<?xml version="1.0" encoding="utf-8"?>
<!-- Generator: Adobe Illustrator 16.0.0, SVG Export Plug-In . SVG Version: 6.00 Build 0)  -->
<!DOCTYPE svg PUBLIC "-//W3C//DTD SVG 1.1//EN" "http://www.w3.org/Graphics/SVG/1.1/DTD/svg11.dtd">
<svg version="1.1" id="Layer_1" xmlns="http://www.w3.org/2000/svg" xmlns:xlink="http://www.w3.org/1999/xlink" x="0px" y="0px"
	 width="500px" height="500px" viewBox="0 0 500 500" enable-background="new 0 0 500 500" xml:space="preserve">
<g id="Layer_1_copy_35">
	<g>
		<path fill="#FCC393" d="M204.771,275.93c0,0,1.82,21.168-10.548,27.889c-12.368,6.721,26.086,75.322,26.086,75.322l86.877-51.609
			l-17.831-27.672c0,0-5.888-8.896-2.578-23.93C290.098,260.889,204.657,263.846,204.771,275.93z"/>
		<path fill="#281912" d="M219.025,383.947l-1.741-3.107c-3.39-6.045-32.979-59.514-28.468-75.15
			c0.821-2.828,2.492-4.235,3.747-4.924c10.211-5.545,8.763-24.354,8.751-24.543l-0.016-0.262c-0.012-1.209,0.345-3.025,2.114-4.811
			c6.955-7.021,32.781-8.896,46.947-8.896c11.834,0,32.549,1.07,38.297,8.223c1.474,1.84,2,3.98,1.51,6.197
			c-2.962,13.443,2.027,21.195,2.083,21.27l19.806,30.736L219.025,383.947z M208.262,276.102
			c0.213,3.432,0.867,23.565-12.385,30.764c-0.125,0.072-0.277,0.361-0.388,0.754c-2.671,9.236,13.95,44.516,26.121,66.713
			l80.713-47.947l-15.888-24.645c-0.25-0.377-6.638-10.277-3.047-26.561c0.02-0.091,0.03-0.143-0.142-0.357
			c-2.179-2.71-13.399-5.625-32.888-5.625C227.393,269.197,210.337,273.234,208.262,276.102z"/>
	</g>
	<g>
		<g>
			<path fill="#FCC393" d="M355.342,168.035c-1.244,0-2.432,0.244-3.586,0.589c-9.835-44.556-53.271-78.136-105.394-78.136
				c-53.514,0-97.749,35.396-106.014,81.697c-1.973-1.165-4.158-1.875-6.487-1.875c-8.389,0-15.186,8.484-15.186,18.95
				c0,10.462,6.797,18.95,15.186,18.95c2.509,0,4.848-0.835,6.931-2.185c9.442,45,53.073,79.049,105.57,79.049
				c52.696,0,96.458-34.344,105.649-79.634c1.071,0.306,2.185,0.49,3.33,0.49c8.388,0,15.188-8.488,15.188-18.95
				C370.529,176.524,363.729,168.035,355.342,168.035z"/>
		</g>
		<g>
			<path fill="#281912" d="M246.362,288.542c-51.591,0-96.255-32.365-107.976-77.562c-1.482,0.463-2.996,0.698-4.525,0.698
				c-10.289,0-18.656-10.054-18.656-22.418c0-12.36,8.367-22.422,18.656-22.422c1.321,0,2.636,0.173,3.922,0.521
				c10.567-46.809,55.498-80.341,108.579-80.341c51.454,0,96.294,32.43,108,77.581c0.329-0.02,0.657-0.036,0.979-0.036
				c10.285,0,18.66,10.057,18.66,22.418c0,12.364-8.375,22.417-18.66,22.417c-0.212,0-0.433-0.003-0.65-0.012
				C343.621,255.452,298.637,288.542,246.362,288.542z M143.15,200.37l1.034,4.943c9.281,44.208,52.25,76.289,102.178,76.289
				c50.211,0,93.215-32.321,102.249-76.851l0.745-3.664l3.601,1.017c0.848,0.239,1.632,0.356,2.386,0.356
				c6.464,0,11.717-6.943,11.717-15.479c0-8.532-5.253-15.479-11.717-15.479c-0.761,0-1.585,0.145-2.585,0.439l-3.582,1.079
				l-0.804-3.652c-9.65-43.694-52.553-75.409-102.009-75.409c-51.293,0-94.442,33.156-102.597,78.841l-0.879,4.923l-4.312-2.55
				c-1.554-0.921-3.141-1.392-4.714-1.392c-6.462,0-11.719,6.943-11.719,15.479c0,8.536,5.257,15.475,11.719,15.475
				c1.683,0,3.376-0.545,5.044-1.624L143.15,200.37z"/>
		</g>
	</g>
	<g>
		<path fill="#EE3024" d="M191.889,299.859c0,0,17.741,34.664,49.202,34.664c45.97-3.224,51.606-34.664,51.606-34.664
			s87.078,4.834,99.979,34.664c12.901,29.832,57.243,110.664,0,113.784H102.392c0,0-71.755,13.604-8.059-115.391
			C120.229,289.916,191.889,299.859,191.889,299.859z"/>
		<path fill="#281912" d="M96.956,452.193c-6.92,0-19.63-1.771-26.979-13.601c-11.718-18.858-4.57-54.93,21.245-107.213l0.141-0.258
			c18.719-31.086,59.88-35.729,82.745-35.729c10.736,0,17.961,0.984,18.26,1.025l1.784,0.252l0.823,1.604
			c0.174,0.33,17.15,32.688,45.997,32.781c42.659-3.051,48.258-31.521,48.312-31.811l0.539-3.021l3.067,0.168
			c3.641,0.205,89.373,5.316,102.973,36.754c1.378,3.188,3.118,6.965,5.057,11.17c13.07,28.338,32.817,71.166,19.249,93.689
			c-5.073,8.426-14.261,13.06-27.304,13.769l-290.181,0.004C101.875,451.908,99.762,452.193,96.956,452.193z M97.381,334.583
			c-30.677,62.172-28.632,88.889-21.508,100.348c5.298,8.529,14.391,10.316,21.083,10.316c2.848,0,4.782-0.348,4.802-0.353
			l0.634-0.057h290.286c10.567-0.582,17.675-3.992,21.547-10.418c11.67-19.367-7.911-61.83-19.609-87.203
			c-1.963-4.256-3.727-8.084-5.121-11.312c-9.525-22.024-68.793-30.637-94.242-32.407c-2.887,8.424-14.412,31.717-53.917,34.485
			l-0.243,0.013c-29.499,0-47.253-27.675-51.383-34.896c-2.675-0.279-8.332-0.765-15.601-0.765
			C152.736,302.335,114.381,306.527,97.381,334.583z"/>
	</g>
	<g>
		<path fill="#141211" d="M207.639,186.978c0,7.571-5.296,13.706-11.824,13.706c-6.535,0-11.826-6.134-11.826-13.706
			c0-7.571,5.291-13.706,11.826-13.706C202.343,173.272,207.639,179.407,207.639,186.978z"/>
	</g>
	<g>
		<path fill="#FFFFFA" d="M198.259,186.982c0,2.636-2.135,4.77-4.773,4.77c-2.636,0-4.766-2.133-4.766-4.77
			c0-2.636,2.13-4.774,4.766-4.774C196.124,182.208,198.259,184.346,198.259,186.982z"/>
	</g>
	<g>
		<path fill="#141211" d="M304.053,186.978c0,7.571-5.296,13.706-11.83,13.706c-6.535,0-11.822-6.134-11.822-13.706
			c0-7.571,5.287-13.706,11.822-13.706C298.757,173.272,304.053,179.407,304.053,186.978z"/>
	</g>
	<g>
		<path fill="#FFFFFA" d="M294.67,186.982c0,2.636-2.133,4.77-4.773,4.77c-2.637,0-4.771-2.133-4.771-4.77
			c0-2.636,2.135-4.774,4.771-4.774C292.537,182.208,294.67,184.346,294.67,186.982z"/>
	</g>
	<g>
		<path fill="#834C1F" d="M235.069,211.969c0,0,15.597,2.146,17.746-5.916c2.146-8.069,0-23.846,0-23.846s9.675,12.019,4.834,26.533
			C252.814,223.255,227.619,211.848,235.069,211.969z"/>
	</g>
	<g opacity="0.7">
		<g>
			<path fill="#F9A880" d="M198.259,217.072c0,4.9-6.68,8.87-14.929,8.87c-8.245,0-14.934-3.97-14.934-8.87
				c0-4.896,6.688-8.861,14.934-8.861C191.579,208.211,198.259,212.177,198.259,217.072z"/>
		</g>
	</g>
	<g opacity="0.7">
		<g>
			<path fill="#F9A880" d="M327.413,216.12c0,4.895-6.686,8.865-14.936,8.865c-8.244,0-14.934-3.97-14.934-8.865
				c0-4.904,6.688-8.87,14.934-8.87C320.729,207.25,327.413,211.216,327.413,216.12z"/>
		</g>
	</g>
	<g>
		<path fill="#FFFFFF" d="M214.627,229.707c0,0,6.999,25.262,31.735,24.188c24.725-1.082,34.037-24.188,34.037-24.188
			s-10.924,12.109-34.037,12.109C222.606,241.816,214.627,229.707,214.627,229.707z"/>
	</g>
	<g>
		<path fill="#834C1F" d="M180.227,173.272c0,0,5.373-6.994,15.588-6.186c10.211,0.804,11.286,2.691,11.824-2.417
			c0.536-5.111-4.299-6.182-11.824-5.377C188.288,160.1,173.773,174.888,180.227,173.272z"/>
	</g>
	<g>
		<path fill="#834C1F" d="M310.471,173.146c0,0-5.375-6.994-15.593-6.186c-10.21,0.804-11.285,2.688-11.823-2.419
			c-0.531-5.108,4.303-6.179,11.823-5.375C302.405,159.974,316.92,174.767,310.471,173.146z"/>
	</g>
	<g>
		<g>
			<path fill="#552011" d="M140.03,167.349c0,0,70.561-10.486,79.706-53.756c0,0,10.426,29.4,77.809,28.212
				c47.936-0.844,50.673,25.67,50.673,25.67s0.11,4.271,12.69-7.174c12.581-11.455,5.971-47.376-30.721-80.839
				c-36.748-33.517-82.397-34.945-122.512-30.375C167.592,53.648,122.398,97.826,140.03,167.349z"/>
		</g>
		<g>
			<path fill="#281912" d="M349.241,171.723c-2.641,0-4.312-1.954-4.479-3.919c-0.166-1.243-3.604-22.547-45.001-22.547
				c-0.706,0-1.429,0.007-2.157,0.02c-48.994,0.832-69.016-14.159-76.743-23.458c-6.155,15.533-20.864,28.588-43.04,38.069
				c-18.978,8.112-36.538,10.783-37.276,10.893l-3.107,0.463l-0.769-3.04c-10.418-41.082,1.075-69.513,12.561-86.132
				c13.997-20.271,35.704-33.889,58.056-36.435c11.325-1.289,21.456-1.917,30.985-1.917c38.947,0,69.779,10.852,94.257,33.176
				c18.232,16.628,37.708,42.986,37.695,67.097c0,8.191-2.416,14.718-6.979,18.872C354.667,170.671,351.353,171.723,349.241,171.723
				z M299.762,138.317c39.042,0,48.794,17.989,51.17,25.552c1.434-0.898,3.829-2.667,7.644-6.139
				c3.036-2.761,4.711-7.641,4.714-13.737c0.005-14.329-9.299-38.132-35.438-61.968c-23.144-21.104-52.441-31.363-89.581-31.363
				c-9.263,0-19.136,0.612-30.198,1.871c-20.393,2.322-40.254,14.839-53.136,33.483c-10.367,15.011-20.734,40.484-12.301,77.34
				c13.474-2.625,66.229-15.11,73.706-50.481l2.547-12.061l4.118,11.617c0.012,0.031,2.522,6.445,12.262,12.806
				c9.543,6.23,28.235,13.735,62.213,13.099C298.254,138.322,299.013,138.317,299.762,138.317z"/>
		</g>
	</g>
	<g>
		<polygon fill="#F6E10F" points="214.428,449.107 173.079,419.068 224.188,419.068 239.976,370.46 255.775,419.068 
			306.878,419.068 265.537,449.107 		"/>
		<path fill="#211010" d="M265.537,451.814h-51.109c-0.572,0-1.129-0.185-1.592-0.519l-41.345-30.039
			c-0.95-0.692-1.351-1.911-0.984-3.026c0.359-1.113,1.4-1.865,2.572-1.865h49.143l15.183-46.74
			c0.363-1.113,1.407-1.867,2.571-1.867l0,0c1.177,0,2.217,0.754,2.577,1.867l15.185,46.74h49.141c1.172,0,2.209,0.752,2.572,1.865
			c0.361,1.114-0.036,2.334-0.984,3.026l-41.342,30.039C266.662,451.63,266.104,451.814,265.537,451.814z M215.307,446.404h49.352
			l33.891-24.633h-42.772c-1.176,0-2.215-0.755-2.576-1.865l-13.224-40.686l-13.215,40.686c-0.365,1.11-1.403,1.865-2.573,1.865
			h-42.78L215.307,446.404z"/>
	</g>
</g>
</svg>
