<?xml version="1.0" encoding="utf-8"?>
<!-- Generator: Adobe Illustrator 16.0.0, SVG Export Plug-In . SVG Version: 6.00 Build 0)  -->
<!DOCTYPE svg PUBLIC "-//W3C//DTD SVG 1.1//EN" "http://www.w3.org/Graphics/SVG/1.1/DTD/svg11.dtd">
<svg version="1.1" id="Layer_1" xmlns="http://www.w3.org/2000/svg" xmlns:xlink="http://www.w3.org/1999/xlink" x="0px" y="0px"
	 width="500px" height="500px" viewBox="0 0 500 500" enable-background="new 0 0 500 500" xml:space="preserve">
<g id="Layer_1_copy_6">
	<g>
		<rect x="234.675" y="32.767" fill="#333333" width="36.04" height="25.018"/>
		<path fill="#27140E" d="M270.715,59.692h-36.04c-1.054,0-1.91-0.854-1.91-1.908V32.767c0-1.053,0.856-1.908,1.91-1.908h36.04
			c1.053,0,1.906,0.855,1.906,1.908v25.018C272.621,58.838,271.768,59.692,270.715,59.692z M236.581,55.876h32.224V34.677h-32.224
			V55.876z"/>
	</g>
	<g>
		<path fill="#F05224" d="M153.461,403.65c0,0,0.505,13.156-9.864,19.23c-10.377,6.064-15.937,23.271-15.937,23.271
			s-4.049,11.124-13.665,11.124c-5.818,1.52-3.289,11.387,0.252,9.87l25.552-1.265c0,0,3.544,0.76,10.373-4.809
			c6.833-5.563,7.333-7.334,13.406-7.08c6.073,0.251,10.623,0.506,10.623-4.805c0-5.316-2.02-14.928-2.02-14.928
			s-2.53-5.315-3.798-5.82c-1.262-0.506,0-12.647,0-12.647l16.95-37.188c0,0,17.201-8.35,18.47-25.551
			c1.262-17.205-5.062-36.938-5.062-36.938l-30.357,11.386l-8.094,7.341C160.29,334.844,154.476,383.156,153.461,403.65z"/>
		<path fill="#27140E" d="M113.512,469.214L113.512,469.214c-2.397,0-4.375-2.351-4.805-5.714c-0.423-3.282,0.903-7.05,4.808-8.069
			c0.158-0.044,0.318-0.061,0.48-0.061c8.14,0,11.835-9.778,11.874-9.874c0.208-0.665,5.883-17.9,16.762-24.265
			c9.278-5.433,8.927-17.389,8.921-17.507c1.006-20.494,6.784-68.623,6.844-69.109c0.057-0.455,0.271-0.874,0.616-1.184l8.093-7.345
			c0.179-0.161,0.384-0.287,0.613-0.373l30.354-11.386c0.487-0.188,1.032-0.158,1.501,0.07c0.47,0.227,0.827,0.636,0.985,1.136
			c0.266,0.821,6.424,20.288,5.146,37.659c-1.204,16.384-15.64,25.047-18.904,26.802l-16.547,36.302
			c-0.43,4.245-0.673,9.252-0.419,10.808c0.784,0.634,2.096,2.188,4.067,6.338c0.064,0.137,0.114,0.275,0.143,0.426
			c0.087,0.402,2.067,9.867,2.067,15.32c0,6.817-6.23,6.817-8.888,6.817c-1.09,0-2.272-0.046-3.52-0.1
			c-0.544-0.022-0.871-0.029-1.175-0.029c-3.332,0-4.264,0.803-7.74,3.798c-0.953,0.821-2.059,1.774-3.41,2.877
			c-6.385,5.203-10.411,5.371-11.663,5.245l-25.086,1.236C114.26,469.153,113.888,469.214,113.512,469.214z M114.282,459.182
			c-1.401,0.471-1.771,1.777-1.827,2.816c-0.102,1.745,0.658,3.146,1.067,3.382c0.197-0.078,0.422-0.129,0.631-0.14l25.553-1.262
			c0.161-0.016,0.33,0.004,0.494,0.039c0.854-0.008,3.741-0.325,8.764-4.426c1.325-1.073,2.408-2.009,3.336-2.809
			c3.924-3.381,5.668-4.938,11.358-4.696c1.394,0.057,2.525,0.104,3.565,0.104c4.57,0,5.072-0.96,5.072-3.003
			c0-4.619-1.642-12.857-1.934-14.313c-1.055-2.171-2.377-4.367-2.882-4.769c-1.025-0.385-2.408-0.936-0.992-14.515
			c0.021-0.205,0.075-0.404,0.161-0.596l16.947-37.184c0.187-0.4,0.508-0.729,0.903-0.924c0.164-0.078,16.23-8.104,17.398-23.975
			c0.996-13.575-2.902-28.975-4.406-34.292l-28.095,10.537l-7.298,6.618c-0.72,6.045-5.801,49.117-6.733,67.964
			c0.026,0.416,0.42,14.206-10.809,20.785c-9.632,5.633-15.03,22.042-15.085,22.206C129.27,447.301,124.901,458.978,114.282,459.182
			z"/>
	</g>
	<g>
		<path fill="#44C0BC" d="M218.473,209.112c0,0-16.692,17.712-28.584,53.638c-4.555,11.629-1.011,25.546-1.011,25.546
			s4.049,14.421-10.373,24.785c-7.098,5.104-13.023,11.925-17.129,20.698l15.613-7.283l2.526,10.365l13.661-7.584l9.358,19.229
			l1.771-18.725c0,0,15.184-9.104,23.782-28.584c8.599-19.478,26.813-44.021,28.08-57.423c1.265-13.413-1.517-27.578-1.517-27.578
			L218.473,209.112z"/>
		<path fill="#27140E" d="M202.535,350.413c-0.716,0-1.39-0.409-1.712-1.072l-8.48-17.415l-11.899,6.604
			c-0.521,0.293-1.143,0.326-1.69,0.082c-0.545-0.236-0.95-0.717-1.09-1.297l-1.979-8.104l-13.5,6.304
			c-0.729,0.332-1.591,0.186-2.156-0.381c-0.566-0.568-0.716-1.434-0.38-2.156c4.056-8.675,10.025-15.887,17.742-21.438
			c13.103-9.425,9.797-22.19,9.645-22.731c-0.156-0.63-3.646-14.688,1.079-26.748c11.85-35.82,28.276-53.518,28.968-54.251
			c0.452-0.477,1.111-0.695,1.756-0.564l36.181,7.085c0.76,0.15,1.354,0.743,1.504,1.504c0.115,0.589,2.824,14.592,1.545,28.125
			c-0.812,8.605-7.945,21.009-15.502,34.145c-4.638,8.062-9.43,16.396-12.73,23.871c-7.687,17.414-20.333,26.674-23.716,28.916
			l-1.683,17.797c-0.08,0.853-0.718,1.549-1.556,1.7C202.765,350.402,202.65,350.413,202.535,350.413z M193.177,327.371
			c0.193,0,0.388,0.027,0.574,0.09c0.497,0.155,0.909,0.51,1.139,0.98l6.388,13.119l1.129-11.959
			c0.057-0.604,0.401-1.146,0.918-1.453c0.146-0.09,14.787-9.068,23.02-27.722c3.384-7.659,8.23-16.087,12.917-24.233
			c7.338-12.762,14.274-24.815,15.007-32.597c1.012-10.706-0.641-22.062-1.264-25.777l-33.827-6.625
			c-3.234,3.762-17.229,21.194-27.477,52.154c-4.314,11.028-1.011,24.346-0.975,24.479c0.028,0.11,4.22,15.784-11.107,26.807
			c-5.656,4.07-10.304,9.101-13.873,15.001l10.434-4.869c0.521-0.238,1.118-0.238,1.634,0.012c0.517,0.244,0.893,0.713,1.029,1.265
			l1.935,7.94l11.473-6.371C192.536,327.45,192.854,327.371,193.177,327.371z"/>
	</g>
	<g>
		<path fill="#F05224" d="M370.921,401.375c0,0-0.505,13.152,9.864,19.23c10.372,6.068,15.939,23.267,15.939,23.267
			s4.05,11.131,13.658,11.131c5.821,1.521,3.292,11.384-0.251,9.864l-25.554-1.261c0,0-3.539,0.761-10.369-4.812
			c-6.829-5.561-7.33-7.331-13.402-7.077c-6.078,0.248-10.628,0.507-10.628-4.808c0-5.313,2.021-14.927,2.021-14.927
			s2.528-5.316,3.793-5.822c1.269-0.502,0-12.646,0-12.646l-16.942-37.188c0,0-17.201-8.344-18.47-25.546
			c-1.266-17.206,5.059-36.939,5.059-36.939l28.178,7.589l8.093,5.312C361.91,326.744,369.91,380.881,370.921,401.375z"/>
		<path fill="#27140E" d="M410.871,466.935c-0.376,0-0.753-0.061-1.122-0.176l-25.084-1.239c-1.261,0.122-5.273-0.035-11.658-5.244
			c-1.357-1.104-2.466-2.057-3.422-2.882c-3.783-3.261-4.614-3.916-8.7-3.771c-1.472,0.063-2.64,0.11-3.718,0.11
			c-1.988,0-4.261-0.136-6.009-1.143c-1.913-1.104-2.884-3.014-2.884-5.68c0-5.453,1.978-14.919,2.06-15.32
			c0.032-0.146,0.079-0.289,0.144-0.427c1.979-4.147,3.288-5.707,4.072-6.338c0.252-1.551,0.013-6.562-0.417-10.802l-16.547-36.304
			c-3.268-1.758-17.698-10.416-18.907-26.8c-1.274-17.377,4.884-36.843,5.146-37.66c0.312-0.975,1.325-1.529,2.313-1.265
			l28.173,7.593c0.193,0.053,0.38,0.137,0.548,0.247l8.099,5.312c0.454,0.299,0.763,0.778,0.841,1.314
			c0.08,0.542,8.026,54.465,9.03,74.814c0,0.287-0.31,12.271,8.921,17.679c10.877,6.367,16.557,23.601,16.793,24.332
			c0.011,0.028,3.708,9.807,11.842,9.807c0.16,0,0.326,0.021,0.483,0.064c3.905,1.018,5.227,4.782,4.808,8.064
			C415.242,464.588,413.269,466.935,410.871,466.935z M384.533,461.697c0.054,0,0.101,0,0.143,0.005l25.55,1.26
			c0.22,0.012,0.435,0.062,0.636,0.145c0.403-0.236,1.168-1.638,1.066-3.383c-0.057-1.034-0.427-2.343-1.828-2.812
			c-10.614-0.204-14.986-11.885-15.169-12.383c-0.075-0.232-5.493-16.653-15.108-22.275c-11.227-6.576-10.827-20.367-10.803-20.951
			c-0.93-18.613-7.854-66.467-8.876-73.432l-7.122-4.673l-26.08-7.029c-1.466,5.149-5.464,20.759-4.456,34.476
			c1.168,15.867,17.236,23.895,17.397,23.97c0.397,0.196,0.72,0.522,0.901,0.928l16.948,37.187c0.085,0.188,0.139,0.388,0.161,0.593
			c1.414,13.586,0.028,14.134-1.192,14.618c-0.313,0.297-1.628,2.489-2.678,4.66c-0.297,1.454-1.935,9.694-1.935,14.313
			c0,1.809,0.655,2.189,0.971,2.371c0.989,0.565,2.815,0.635,4.103,0.635c1.033,0,2.149-0.046,3.326-0.096
			c0.638-0.026,1.01-0.032,1.367-0.032c4.747,0,6.578,1.572,10.224,4.715c0.931,0.802,2.013,1.737,3.335,2.812
			c5.022,4.1,7.915,4.418,8.679,4.418C384.214,461.708,384.386,461.697,384.533,461.697z"/>
	</g>
	<g>
		<path fill="#F8BA80" d="M228.053,88.823c0,0,3.039-3.889,6.264-5.028c1.898-4.175,1.898-23.811,1.898-23.811l11.767,4.649
			l12.61-2.086l7.782-0.666c0,0,3.317,22.2,8.351,25.52c5.022,3.321-17.076,15.179-17.076,15.179l-12.429,12.902L228.053,88.823z"/>
		<path fill="#27140E" d="M247.219,117.39c-0.047,0-0.09-0.002-0.137-0.005c-0.566-0.042-1.082-0.33-1.411-0.788l-19.166-26.659
			c-0.494-0.688-0.477-1.619,0.047-2.288c0.318-0.406,3-3.757,6.26-5.293c1.082-3.735,1.497-15.414,1.497-22.372
			c0-0.632,0.309-1.222,0.831-1.576c0.524-0.357,1.19-0.428,1.777-0.198l11.272,4.453l12.096-1.997l7.929-0.685
			c1-0.093,1.899,0.624,2.05,1.62c1.325,8.867,4.531,22.243,7.514,24.208c1.086,0.719,1.651,1.79,1.594,3.017
			c-0.221,4.862-12.837,12.207-18.557,15.293l-12.224,12.687C248.231,117.178,247.737,117.39,247.219,117.39z M230.486,88.935
			l16.943,23.575l10.842-11.256c0.136-0.141,0.297-0.263,0.474-0.356c8.373-4.495,15.961-9.964,16.754-12.026
			c-4.774-3.522-7.735-18.909-8.731-24.937l-6.01,0.513l-12.469,2.067c-0.34,0.056-0.691,0.02-1.011-0.107l-9.176-3.624
			c-0.074,5.781-0.426,18.239-2.05,21.802c-0.214,0.472-0.612,0.836-1.1,1.008C233.342,86.165,231.597,87.75,230.486,88.935z"/>
	</g>
	<g>
		<path fill="#44C0BC" d="M297.057,206.853c0,0,17.824,16.579,32.05,51.641c5.306,11.314,2.68,25.431,2.68,25.431
			s-3.093,14.65,11.974,24.052c7.417,4.637,13.776,11.047,18.449,19.534l-16.052-6.247l-1.842,10.514l-14.131-6.674l-9.005,21.125
			l-2.074-19.893c0,0-15.738-8.094-25.6-26.966c-9.861-18.874-29.645-42.17-31.785-55.459c-2.142-13.3-0.293-27.615-0.293-27.615
			L297.057,206.853z"/>
		<path fill="#27140E" d="M321.18,348.134c-0.093,0-0.187-0.008-0.281-0.021c-0.861-0.131-1.523-0.825-1.613-1.688l-1.97-18.899
			c-3.604-2.077-16.735-10.492-25.501-27.27c-3.783-7.244-9.114-15.252-14.274-22.99c-8.394-12.608-16.331-24.519-17.701-33.053
			c-2.162-13.417-0.381-27.565-0.306-28.16c0.101-0.771,0.654-1.403,1.404-1.602l35.633-9.442c0.63-0.165,1.304,0.001,1.788,0.448
			c0.74,0.69,18.294,17.27,32.514,52.32c5.464,11.642,2.902,25.897,2.788,26.496c-0.119,0.588-2.579,13.543,11.108,22.084
			c8.066,5.043,14.493,11.85,19.112,20.236c0.388,0.701,0.29,1.573-0.236,2.176c-0.53,0.604-1.383,0.811-2.132,0.522l-13.881-5.407
			l-1.437,8.225c-0.104,0.586-0.478,1.093-1.003,1.363c-0.527,0.272-1.156,0.288-1.695,0.033l-12.332-5.83l-8.228,19.299
			C322.635,347.686,321.938,348.134,321.18,348.134z M263.18,217.806c-0.38,3.748-1.285,15.188,0.424,25.8
			c1.248,7.714,8.953,19.287,17.115,31.541c5.209,7.824,10.598,15.916,14.482,23.344c9.465,18.121,24.624,26.072,24.777,26.15
			c0.573,0.293,0.957,0.856,1.024,1.498l1.312,12.562l6.115-14.347c0.2-0.478,0.592-0.85,1.075-1.037
			c0.483-0.182,1.021-0.159,1.493,0.062l11.867,5.604l1.407-8.047c0.101-0.566,0.443-1.054,0.943-1.338
			c0.493-0.277,1.097-0.324,1.629-0.113l10.729,4.174c-3.946-5.653-8.916-10.368-14.827-14.062
			c-16.012-9.992-12.865-25.904-12.831-26.066c0.016-0.084,2.434-13.616-2.54-24.227c-12.296-30.301-27.412-46.786-30.888-50.326
			L263.18,217.806z"/>
	</g>
	<g>
		<path fill="#44C0BC" d="M382.97,137.965c-2.653-6.831-19.729-15.369-19.729-15.369s-1.141-11.384-23.905-16.316
			c-4.554-5.122-11.956-14.229-27.89-16.126c-1.896,0.373-3.301,1.159-4.389,2.182l-0.737-1.805c0,0-6.826-3.794-23.525-1.707
			c-5.312-3.225-17.456-0.948-17.456-0.948s-22.007,0.758-22.96-0.191c-0.944-0.948-12.712-1.138-20.106,3.606
			c-10.533-3.289-21.97-1.104-27.989,0.548c-0.072,0.018-0.14,0.041-0.22,0.062c-2.514,0.7-4.044,1.287-4.044,1.287l0.008,0.045
			c-10.808,4.163-16.05,11.634-19.506,16.193c-22.322,6.677-22.576,18.116-22.576,18.116s-16.362,9.833-18.485,16.848
			c-2.12,7.013,7.619,9.875,7.619,9.875s1.673,1.963,2.314,2.869c6.427,14.152,49.974,30.949,49.974,30.949l10.226-5.55
			l-0.832-8.309l-21.684-19.444c0,0-1.792-5.95-3.06-7.563c8.025-0.536,13.866-2.567,18.141-5.355
			c6.26,19.912,23.285,24.755,23.285,24.755l-0.574,7.968l15.371,21.82l39.462,11.761l23.716-25.99c0,0,0.379-20.681,1.898-23.147
			c1.521-2.469,6.828-20.682,6.828-20.682l7.782-7.588l0.523-0.493c3.715,7.191,11.604,14.147,28.314,13.964
			c-1.143,1.708-2.469,7.779-2.469,7.779l-20.106,21.06l-0.196,8.347l10.63,4.745c0,0,42.12-20.11,47.431-34.722
			c0.573-0.948,2.089-3.035,2.089-3.035S385.629,144.794,382.97,137.965z"/>
		<path fill="#27140E" d="M269.7,210.071c-0.183,0-0.365-0.026-0.544-0.079l-39.462-11.761c-0.412-0.124-0.771-0.38-1.018-0.73
			l-15.366-21.82c-0.256-0.358-0.373-0.795-0.342-1.234l0.464-6.508c-4.265-1.638-16.473-7.551-22.319-23.244
			c-3.956,2.131-8.685,3.524-14.103,4.162c0.75,1.787,1.412,3.815,1.734,4.855l21.286,19.091c0.355,0.317,0.577,0.756,0.624,1.23
			l0.834,8.308c0.08,0.765-0.312,1.501-0.988,1.868l-10.227,5.55c-0.487,0.266-1.074,0.305-1.598,0.103
			c-1.798-0.694-44.006-17.11-50.941-31.759c-0.462-0.63-1.3-1.639-1.77-2.196c-1.563-0.558-5.869-2.358-7.771-5.88
			c-1.036-1.913-1.226-3.995-0.562-6.188c2.064-6.827,14.93-15.209,18.545-17.452c0.638-3.245,4.127-12.728,23.196-18.605
			l0.143-0.19c3.558-4.716,8.914-11.816,19.456-15.994c0.106-0.076,0.229-0.138,0.357-0.188c0.064-0.025,1.649-0.631,4.22-1.348
			c0.016-0.003,0.248-0.068,0.262-0.071c3.831-1.051,9.825-2.314,16.43-2.314c4.216,0,8.169,0.52,11.762,1.546
			c5.044-2.926,11.741-3.982,16.484-3.982c3.082,0,4.285,0.41,4.844,0.769c0.474,0.081,2.063,0.249,7.045,0.249
			c6.062,0,13.646-0.246,14.758-0.281c0.811-0.143,4.668-0.787,8.883-0.787c3.907,0,6.986,0.561,9.16,1.668
			c3.182-0.375,6.234-0.566,9.076-0.566c10.243,0,14.805,2.471,14.993,2.574c0.248,0.138,0.459,0.326,0.622,0.552
			c0.971-0.525,2.04-0.905,3.208-1.134c0.192-0.039,0.396-0.045,0.596-0.023c15.966,1.902,23.801,10.77,28.481,16.07l0.198,0.222
			c19.459,4.389,23.674,13.572,24.559,16.759c3.778,1.958,17.26,9.319,19.839,15.965c0.831,2.135,0.803,4.226-0.079,6.213
			c-1.627,3.658-5.779,5.788-7.295,6.464c-0.424,0.593-1.183,1.662-1.598,2.327c-5.786,15.143-46.59,34.77-48.333,35.601
			c-0.507,0.245-1.086,0.251-1.6,0.022l-10.63-4.746c-0.702-0.313-1.146-1.018-1.129-1.788l0.193-8.346
			c0.015-0.475,0.199-0.93,0.529-1.274l19.742-20.675c0.243-1.062,0.746-3.135,1.354-4.977
			c-14.526-0.575-22.025-6.788-25.884-12.768l-6.186,6.034c-1.159,3.952-5.396,18.221-6.896,20.664
			c-0.771,1.557-1.444,12.737-1.617,22.182c-0.01,0.465-0.186,0.91-0.496,1.25l-23.721,25.992
			C270.743,209.852,270.23,210.071,269.7,210.071z M231.413,194.763l37.687,11.23l22.426-24.577
			c0.136-6.724,0.607-20.86,2.168-23.393c1.002-1.638,4.593-13.268,6.621-20.215c0.093-0.315,0.266-0.602,0.501-0.831l8.323-8.103
			c0.438-0.413,1.034-0.601,1.63-0.495c0.592,0.1,1.1,0.473,1.376,1.005c4.436,8.584,13.178,12.936,25.982,12.936l0.616-0.004
			c0.008,0,0.015,0,0.021,0c0.699,0,1.345,0.384,1.678,1.002c0.337,0.622,0.301,1.379-0.091,1.966
			c-0.647,0.97-1.673,4.752-2.191,7.125c-0.076,0.343-0.24,0.658-0.484,0.912l-19.598,20.521l-0.146,6.342l8.662,3.866
			c12.076-5.86,41.623-22.143,45.669-33.271c0.039-0.114,0.097-0.225,0.157-0.331c0.595-0.991,2.178-3.175,2.178-3.175
			c0.216-0.297,0.517-0.527,0.864-0.659c1.226-0.471,4.641-2.234,5.726-4.688c0.459-1.037,0.459-2.105,0.004-3.271
			c-1.953-5.034-14.235-12.069-18.804-14.354c-0.585-0.292-0.979-0.865-1.043-1.516c-0.01-0.075-1.54-10.122-22.414-14.645
			c-0.396-0.084-0.756-0.293-1.021-0.594l-0.615-0.694c-4.563-5.17-11.451-12.966-25.765-14.769
			c-1.267,0.292-2.305,0.83-3.163,1.639c-0.459,0.43-1.102,0.609-1.713,0.475c-0.612-0.132-1.122-0.561-1.36-1.142l-0.45-1.103
			c-1.378-0.55-5.388-1.85-12.589-1.85c-2.871,0-5.973,0.206-9.224,0.613c-0.418,0.048-0.859-0.042-1.225-0.262
			c-1.566-0.952-4.258-1.453-7.789-1.453c-4.289,0-8.285,0.74-8.328,0.749c-0.092,0.017-0.188,0.027-0.285,0.031
			c-0.084,0.001-8.441,0.288-15.026,0.288c-7.22,0-8.479-0.311-9.095-0.803c-0.337-0.08-1.228-0.215-2.794-0.215
			c-4.443,0-10.767,1.011-15.188,3.843c-0.476,0.307-1.058,0.389-1.598,0.215c-3.443-1.075-7.298-1.621-11.461-1.621
			c-6.182,0-11.813,1.191-15.454,2.188c-0.019,0.003-0.254,0.07-0.276,0.076c-1.676,0.467-2.908,0.889-3.475,1.092
			c-0.101,0.065-0.208,0.12-0.327,0.165c-9.766,3.766-14.812,10.452-18.146,14.876l-0.522,0.691
			c-0.245,0.323-0.59,0.559-0.976,0.675c-20.466,6.12-21.21,16.254-21.214,16.354c-0.032,0.637-0.377,1.242-0.925,1.568
			c-4.375,2.631-16.076,10.593-17.639,15.763c-0.365,1.199-0.279,2.267,0.259,3.263c1.275,2.366,4.814,3.857,6.073,4.231
			c0.354,0.105,0.669,0.312,0.909,0.593c0.071,0.083,1.738,2.039,2.418,3c0.072,0.101,0.133,0.206,0.183,0.315
			c4.895,10.785,35.611,24.733,48.105,29.64l8.333-4.524l-0.634-6.309l-21.129-18.952c-0.262-0.233-0.451-0.534-0.551-0.867
			c-0.707-2.331-2.019-6.021-2.734-6.938c-0.438-0.557-0.53-1.308-0.244-1.954c0.287-0.647,0.91-1.081,1.619-1.127
			c7.006-0.467,12.799-2.166,17.22-5.05c0.502-0.324,1.125-0.396,1.685-0.197c0.565,0.2,0.999,0.654,1.178,1.223
			c5.858,18.631,21.337,23.304,21.989,23.494c0.866,0.25,1.44,1.073,1.375,1.968l-0.516,7.292L231.413,194.763z"/>
	</g>
	<g>
		<path fill="#27140E" d="M218.222,192.553c-0.745,0-1.454-0.44-1.76-1.171c-0.404-0.971,0.047-2.087,1.021-2.495
			c1.125-0.474,28.169-11.498,78.244-2.14c1.034,0.193,1.719,1.189,1.525,2.225c-0.193,1.038-1.191,1.722-2.225,1.526
			c-48.834-9.123-75.804,1.796-76.068,1.906C218.717,192.505,218.469,192.553,218.222,192.553z"/>
	</g>
	<g>
		<path fill="#FEE31A" d="M218.853,181.269l-0.631,8.429l39.146,14.862l30.929-13.737l6.319-2.984l-0.247-7.167
			c0,0-14.422-5.177-37.564-5.573C233.653,174.702,218.853,181.269,218.853,181.269z"/>
		<path fill="#27140E" d="M257.368,206.468c-0.229,0-0.458-0.042-0.673-0.124l-39.15-14.864c-0.792-0.299-1.29-1.083-1.229-1.926
			l0.637-8.429c0.05-0.7,0.487-1.314,1.125-1.601c0.603-0.267,15.407-6.708,38.752-6.333c23.195,0.397,37.582,5.469,38.184,5.684
			c0.734,0.265,1.236,0.95,1.262,1.73l0.252,7.167c0.024,0.761-0.405,1.465-1.094,1.792l-6.324,2.986l-30.963,13.753
			C257.898,206.412,257.635,206.468,257.368,206.468z M220.231,188.419l37.08,14.079l30.207-13.418l5.148-2.431l-0.157-4.573
			c-3.909-1.199-16.973-4.748-35.741-5.068c-19.057-0.351-32.385,4.177-36.1,5.589L220.231,188.419z"/>
	</g>
	<g>
		<path fill="#F05224" d="M294.616,188.624v19.73c0,0-16.185,7.334-20.741,19.226c-4.555,11.888-10.373,17.457-14.164,16.442
			c-3.798-1.006-4.554,3.282-16.444-15.682c-11.89-18.974-26.055-17.963-26.055-17.963l1.01-19.982
			C218.222,190.395,248.827,181.033,294.616,188.624z"/>
		<path fill="#27140E" d="M260.625,246.046c-0.482,0-0.953-0.061-1.408-0.179c-0.469-0.126-0.885-0.129-1.412-0.137
			c-3.666-0.028-6.408-0.831-16.154-16.377c-10.187-16.255-21.83-17.077-24.06-17.077c-0.562,0.031-1.204-0.158-1.595-0.54
			c-0.39-0.382-0.72-0.911-0.691-1.457l1.012-19.984c0.042-0.801,0.58-1.492,1.346-1.727c0.646-0.198,16.065-4.823,41.489-4.823
			c11.757,0,23.796,1.007,35.779,2.994c0.918,0.152,1.596,0.95,1.596,1.883v19.73c0,0.749-0.438,1.428-1.123,1.738
			c-0.152,0.069-15.53,7.164-19.748,18.17C271.457,239.232,265.699,246.046,260.625,246.046z M219.211,208.551
			c4.578,0.469,15.951,3.259,25.676,18.774c9.128,14.561,11.156,14.579,12.95,14.593c0.636,0.003,1.427,0.007,2.361,0.258
			c0.137,0.036,0.276,0.057,0.424,0.057c2.249-0.003,7.165-4.084,11.474-15.336c4.115-10.743,16.737-17.787,20.615-19.74v-16.911
			c-11.251-1.781-22.534-2.684-33.559-2.684c-20.737,0-34.918,3.223-39.097,4.307L219.211,208.551z"/>
	</g>
	<g>
		<path fill="#F8BA80" d="M317.705,173.254l-6.073,0.568c0,0-10.054-5.882-16.507-2.087c-6.45,3.796-6.068,21.252-0.38,24.098
			c5.688,2.844,10.248,1.517,10.434-1.708c0.189-3.226,7.785,0.188,7.785,0.188s4.36,3.037,13.658-8.156
			C326.053,180.653,321.689,173.064,317.705,173.254z"/>
		<path fill="#27140E" d="M300.566,199.3c-2.063,0-4.371-0.606-6.674-1.76c-3.176-1.588-5.191-6.234-5.403-12.434
			c-0.179-5.282,1.2-12.386,5.669-15.015c1.732-1.021,3.798-1.539,6.13-1.539c5.06,0,10.096,2.438,11.752,3.317l5.486-0.514
			c0.057-0.005,0.268-0.013,0.323-0.013c5.501,0,10.065,8.798,10.672,14.617c0.051,0.512-0.104,1.022-0.432,1.417
			c-6.334,7.621-10.826,9.221-13.484,9.221l0,0c-1.278,0-2.118-0.361-2.52-0.586c-1.244-0.545-3.594-1.365-4.935-1.365
			c-0.039,0-0.075,0.001-0.106,0.003C306.666,197.448,304.118,199.3,300.566,199.3z M300.288,172.368
			c-1.642,0-3.058,0.34-4.199,1.013c-2.411,1.42-3.971,6.188-3.784,11.595c0.155,4.496,1.51,8.258,3.295,9.151
			c2.245,1.122,3.943,1.358,4.968,1.358c0.438,0,2.628-0.07,2.704-1.471c0.096-1.54,1.158-3.183,3.882-3.183
			c2.642,0,6.194,1.565,6.593,1.742c0.1,0.045,0.198,0.1,0.287,0.16c-0.059-0.036,0.168,0.048,0.572,0.048
			c1.176,0,4.457-0.716,10.016-7.209c-0.836-5.079-4.577-10.414-6.771-10.414l-6.043,0.564c-0.384,0.044-0.792-0.053-1.14-0.253
			C310.613,175.44,305.278,172.368,300.288,172.368z"/>
	</g>
	<g>
		<path fill="#F8BA80" d="M197.262,174.526l6.092,0.099c0,0,9.572-6.643,16.298-3.357c6.725,3.286,7.695,20.718,2.239,23.995
			c-5.453,3.277-10.097,2.304-10.534-0.896c-0.438-3.201-7.742,0.792-7.742,0.792s-4.116,3.363-14.249-7.078
			C189.505,182.55,193.27,174.646,197.262,174.526z"/>
		<path fill="#27140E" d="M215.585,199.202c-3.159,0-5.482-1.61-6.041-4.142c-1.497,0.107-3.701,1.069-4.924,1.722
			c-0.436,0.296-1.422,0.801-3.016,0.801c-3.766,0-8.345-2.75-13.608-8.172c-0.358-0.369-0.552-0.866-0.537-1.378
			c0.153-6.095,4.314-15.25,9.745-15.411l5.596,0.087c1.7-1.082,7.163-4.26,12.613-4.26c1.867,0,3.575,0.371,5.076,1.105
			c4.662,2.279,6.582,9.256,6.811,14.542c0.266,6.191-1.389,10.978-4.428,12.803C220.368,198.404,217.847,199.202,215.585,199.202z
			 M209.626,191.215c2.376,0,3.429,1.495,3.622,2.894c0.158,1.151,1.685,1.277,2.337,1.277c1.547,0,3.439-0.625,5.324-1.759
			c1.712-1.028,2.772-4.88,2.579-9.368c-0.236-5.409-2.157-10.046-4.671-11.277c-0.979-0.476-2.122-0.719-3.404-0.719
			c-5.225,0-10.913,3.892-10.972,3.931c-0.329,0.226-0.757,0.306-1.117,0.339l-6.098-0.097c-2.075,0.063-5.469,5.755-5.909,10.907
			c5.787,5.783,9.105,6.423,10.287,6.423c0.62,0,0.899-0.159,0.91-0.165C203.124,193.25,206.929,191.215,209.626,191.215z"/>
	</g>
	<g>
		<polygon fill="#F05224" points="219.63,101.854 252.816,95.464 286.018,100.968 299.126,127.386 252.708,168.003 208.024,128.545 
					"/>
		<path fill="#27140E" d="M252.708,169.912c-0.453,0-0.903-0.157-1.267-0.479l-44.682-39.458c-0.62-0.547-0.818-1.432-0.487-2.189
			l11.604-26.692c0.255-0.577,0.774-0.993,1.391-1.113l33.188-6.39c0.219-0.045,0.448-0.045,0.669-0.009l33.208,5.503
			c0.603,0.098,1.12,0.483,1.394,1.034l13.109,26.418c0.383,0.775,0.196,1.714-0.451,2.284l-46.42,40.619
			C253.604,169.754,253.154,169.912,252.708,169.912z M210.325,128.035l42.386,37.429l44.051-38.547l-12.017-24.227l-31.905-5.289
			l-31.86,6.136L210.325,128.035z"/>
	</g>
	<g>
		<polygon fill="#F8BA80" points="233.562,61.125 233.562,70.8 246.841,81.234 259.65,81.234 273.025,70.137 273.025,57.709 
			264.771,55.719 248.644,55.907 		"/>
		<path fill="#27140E" d="M259.65,83.143H246.84c-0.425,0-0.841-0.144-1.178-0.407L232.38,72.301
			c-0.458-0.362-0.727-0.916-0.727-1.501v-9.675c0-0.814,0.516-1.538,1.286-1.805l15.079-5.217c0.194-0.066,0.399-0.103,0.603-0.104
			l16.127-0.189c0.161,0,0.316,0.016,0.469,0.054l8.256,1.992c0.856,0.206,1.459,0.973,1.459,1.854v12.427
			c0,0.568-0.25,1.105-0.69,1.469l-13.372,11.098C260.529,82.989,260.096,83.143,259.65,83.143z M247.502,79.327h11.461
			l12.153-10.086v-10.03l-6.562-1.582l-15.579,0.183l-13.507,4.672v7.388L247.502,79.327z"/>
	</g>
	<g>
		<path fill="#44C0BC" d="M274.354,45.663c2.695-13.875-4.188-26.496-13.832-28.35c-2.229-0.428-11.215-0.461-13.014-0.207
			c-15.873,2.257-16.814,21.328-14.519,29.504c0,0-4.457-1.707-4.174,3.983c0.282,5.692,0.666,9.773,3.892,10.436
			c3.224,0.667,21.818,3.606,21.818,3.606l19.731-6.831c0,0,4.175,0,3.981-3.606C278.049,50.593,280.521,43.195,274.354,45.663z
			 M246.176,52.303l-7.969-9.868l10.913,1.614L246.176,52.303z M259.934,52.36l-2.94-8.255l10.914-1.612L259.934,52.36z"/>
		<path fill="#27140E" d="M254.527,66.543c-0.102,0-0.196-0.008-0.297-0.023c-0.765-0.121-18.675-2.956-21.906-3.623
			c-4.852-0.998-5.139-6.696-5.411-12.207c-0.11-2.159,0.363-3.805,1.398-4.896c0.611-0.644,1.39-1.061,2.286-1.238
			c-0.947-5.746-0.635-14.59,3.683-21.211c2.994-4.597,7.354-7.331,12.955-8.127c1.154-0.163,4.01-0.181,5.182-0.181
			c1.067,0,6.479,0.02,8.463,0.401c4.382,0.842,8.396,3.678,11.308,7.986c3.694,5.466,5.271,12.573,4.461,19.841
			c1.332,0.057,2.164,0.667,2.634,1.181c1.516,1.664,1.262,4.379,1.015,7.006c-0.098,1.007-0.188,1.956-0.146,2.646
			c0.076,1.5-0.377,2.812-1.312,3.794c-1.376,1.453-3.378,1.747-4.214,1.806L255.15,66.44
			C254.947,66.509,254.738,66.543,254.527,66.543z M231.597,48.279c-0.38,0-0.484,0.11-0.52,0.146
			c-0.208,0.222-0.415,0.884-0.355,2.075c0.28,5.596,0.707,8.319,2.369,8.66c2.866,0.591,18.353,3.054,21.261,3.516l19.283-6.673
			c0.2-0.07,0.412-0.105,0.624-0.105c0.396-0.005,1.384-0.17,1.815-0.636c0.083-0.086,0.298-0.315,0.262-0.962
			c-0.055-0.967,0.051-2.053,0.157-3.203c0.118-1.247,0.337-3.567-0.039-4.09c-0.192,0.072-0.616,0.119-1.394,0.428
			c-0.648,0.26-1.388,0.141-1.92-0.301c-0.541-0.446-0.797-1.149-0.66-1.834c1.379-7.114,0.094-14.491-3.455-19.737
			c-2.338-3.462-5.487-5.727-8.866-6.375c-1-0.193-4.257-0.333-7.742-0.333c-2.508,0-4.142,0.071-4.644,0.143
			c-4.464,0.636-7.926,2.798-10.297,6.433c-4.308,6.605-3.909,16.18-2.644,20.665c0.192,0.693-0.022,1.44-0.553,1.926
			c-0.537,0.485-1.301,0.628-1.971,0.373C232.234,48.365,231.916,48.279,231.597,48.279z M259.934,54.269
			c-0.106,0-0.215-0.009-0.317-0.027c-0.683-0.115-1.248-0.589-1.478-1.24l-2.939-8.255c-0.194-0.538-0.137-1.134,0.156-1.624
			c0.293-0.488,0.797-0.82,1.357-0.904l10.913-1.612c0.767-0.12,1.545,0.258,1.935,0.94c0.393,0.683,0.323,1.533-0.17,2.144
			l-7.974,9.868C261.052,54.012,260.507,54.269,259.934,54.269z M259.568,45.653l1.021,2.861l2.763-3.42L259.568,45.653z
			 M246.176,54.21c-0.57,0-1.118-0.256-1.483-0.709l-7.969-9.867c-0.495-0.611-0.56-1.464-0.172-2.146
			c0.392-0.681,1.157-1.065,1.938-0.941l10.91,1.616c0.566,0.083,1.061,0.414,1.354,0.905c0.295,0.488,0.352,1.085,0.162,1.623
			l-2.941,8.252c-0.229,0.65-0.797,1.125-1.477,1.239C246.391,54.202,246.283,54.21,246.176,54.21z M242.764,45.037l2.76,3.418
			l1.018-2.857L242.764,45.037z"/>
	</g>
	<g>
		<path fill="#27140E" d="M260.727,71.633h-14.17c-1.054,0-1.907-0.855-1.907-1.908c0-1.053,0.854-1.908,1.907-1.908h14.17
			c1.053,0,1.905,0.854,1.905,1.908C262.632,70.779,261.779,71.633,260.727,71.633z"/>
	</g>
</g>
</svg>
