<?xml version="1.0" encoding="utf-8"?>
<!-- Generator: Adobe Illustrator 16.0.0, SVG Export Plug-In . SVG Version: 6.00 Build 0)  -->
<!DOCTYPE svg PUBLIC "-//W3C//DTD SVG 1.1//EN" "http://www.w3.org/Graphics/SVG/1.1/DTD/svg11.dtd">
<svg version="1.1" id="Layer_1" xmlns="http://www.w3.org/2000/svg" xmlns:xlink="http://www.w3.org/1999/xlink" x="0px" y="0px"
	 width="500px" height="500px" viewBox="0 0 500 500" enable-background="new 0 0 500 500" xml:space="preserve">
<g id="Layer_1_copy_13">
	<g>
		<path fill="#C1E6E7" d="M464.392,172.826c0,6.782-24.612,21.144-38.226,30.582c-36.413,25.245-73.909,50.654-111.9,76.451
			c-12.624,8.576-22.841,22.494-33.358,34.75c-7.886,9.186-14.441,19.858-20.837,29.889c-9.869,15.453-19.793,30.193-30.576,46.57
			c-3.578,5.429-7.301,11.587-13.202,11.812c-4.685,0.177-10.176-3.233-11.123-7.647c-1.363-6.336,3.709-19.086,5.562-25.713
			c2.728-9.764,5.766-17.936,6.95-24.328c-5.212,0.839-9.879,3.925-14.595,6.25c-14.154,7.008-28.583,13.315-43.787,20.859
			c-8.21,4.07-19.78,9.355-28.499,14.592c-7.314,4.403-21.309,13.064-29.885,12.215c-7.198-0.711-14.037-12.559-18.072-17.771
			c-18.098-23.397-46.265-58.146-52.821-70.198c-6.243-11.481,0-17.103,0-17.377c13.566-18.938,47.833-0.447,63.252,6.951
			c16.075,7.714,31.043,14.946,44.478,20.848c18.973-13.854,41.01-26.436,60.468-41.006c0.562-0.416,3.284-1.188,2.086-2.777
			c-11.28-0.916-26.8-2.713-41.701-4.174c-12.941-1.265-32.288,0.418-31.977-13.203c0.179-7.51,6.026-9.193,14.6-11.121
			c47.192-10.604,101.904-21.239,148.023-31.274c2.188-0.477,7.735-4.623,11.118-6.951c19.624-13.49,42.896-29.889,63.245-43.787
			c20.279-13.845,63.155-27.802,93.336-11.495c0.631,0.344,3.047,2.923,3.645,3.997
			C462.519,163.218,464.392,167.658,464.392,172.826z"/>
		<path fill="#27140E" d="M215.939,405.273c-5.343,0-11.883-3.834-13.108-9.539c-1.194-5.551,1.692-14.533,4.013-21.75
			c0.614-1.908,1.179-3.655,1.585-5.109c1.049-3.768,2.126-7.227,3.165-10.564c1.118-3.604,2.138-6.871,2.889-9.804
			c-2.307,0.841-4.577,2.056-6.934,3.31c-1.139,0.605-2.271,1.209-3.408,1.771c-6.89,3.406-13.69,6.583-20.89,9.941
			c-7.418,3.461-15.087,7.041-22.892,10.914c-1.946,0.964-4.071,1.992-6.309,3.074c-7.241,3.506-15.453,7.483-22.021,11.426
			l-0.813,0.49c-7.94,4.789-21.574,12.947-30.535,12.059c-6.95-0.692-12.914-9.137-17.267-15.303
			c-0.906-1.277-1.728-2.448-2.463-3.393c-4.224-5.465-9.002-11.551-13.925-17.816c-16.707-21.282-33.985-43.287-39.105-52.703
			c-4.081-7.504-4.071-14.508,0.033-19.721l0,0c0,0-0.239,0.359-0.309,0.928c0.048-0.403,0.196-0.785,0.434-1.112
			c4.406-6.151,11.122-9.274,19.956-9.274c14.57,0,31.715,8.367,43.061,13.904l7.44,3.589c13.889,6.665,27.036,12.976,38.918,18.229
			c8.694-6.288,18.135-12.415,27.273-18.354c10.221-6.629,20.77-13.48,30.576-20.727c-5.983-0.545-12.794-1.264-19.915-2.01
			c-5.587-0.588-11.35-1.191-17.022-1.75c-2.136-0.209-4.448-0.334-6.818-0.467c-12.306-0.677-27.624-1.517-27.31-15.17
			c0.229-9.748,8.482-11.601,16.464-13.396c26.644-5.988,55.905-12.031,84.202-17.874c22.498-4.647,43.747-9.036,63.838-13.406
			c1.311-0.286,5.789-3.439,8.195-5.133c0.74-0.522,1.445-1.018,2.071-1.452c8.688-5.969,18.084-12.508,27.627-19.149
			c11.937-8.303,24.279-16.889,35.631-24.641c14.045-9.589,38.917-19.264,62.839-19.264c12.499,0,23.593,2.568,32.979,7.64
			c1.173,0.634,3.86,3.609,4.599,4.941c2.755,4.925,4.099,9.579,4.099,14.214c0,6.176-11.69,14.327-29.534,26.056
			c-3.505,2.303-6.857,4.506-9.721,6.49c-33.397,23.151-66.941,45.926-102.454,70.042l-9.464,6.421
			c-9.848,6.69-18.382,16.965-26.638,26.89c-2.089,2.51-4.164,5.01-6.252,7.441c-7,8.15-12.969,17.555-18.74,26.646l-1.894,2.969
			c-6.882,10.771-13.724,21.104-20.972,32.045c-3.148,4.748-6.346,9.574-9.625,14.56l-0.563,0.857
			c-3.617,5.511-7.722,11.767-14.546,12.021L215.939,405.273z M217.68,342.803c0.64,0,1.255,0.258,1.708,0.725
			c0.543,0.557,0.781,1.341,0.64,2.104c-0.759,4.078-2.199,8.724-3.87,14.095c-1.01,3.24-2.092,6.723-3.128,10.437
			c-0.419,1.499-0.996,3.31-1.635,5.289c-2.032,6.319-4.815,14.978-3.889,19.274c0.636,2.969,4.733,5.768,8.434,5.768l0.258-0.003
			c4.362-0.165,7.6-5.101,10.731-9.873l0.567-0.868c3.284-4.984,6.485-9.812,9.63-14.566c7.238-10.918,14.074-21.238,20.935-31.97
			l1.883-2.962c5.863-9.238,11.927-18.787,19.152-27.2c2.07-2.413,4.129-4.894,6.195-7.378c8.473-10.188,17.228-20.72,27.634-27.791
			l9.457-6.424c35.508-24.109,69.047-46.875,102.424-70.014c2.893-2.005,6.276-4.23,9.814-6.558
			c9.571-6.291,27.383-18.001,27.383-22.061c0-3.796-1.146-7.687-3.496-11.89c-0.371-0.664-2.254-2.727-2.816-3.135
			c-8.553-4.614-18.887-6.99-30.583-6.99c-22.898,0-46.709,9.255-60.145,18.431c-11.333,7.738-23.67,16.319-35.594,24.617
			c-9.552,6.644-18.959,13.189-27.648,19.164c-0.614,0.424-1.308,0.907-2.027,1.42c-4.495,3.164-7.838,5.44-9.934,5.895
			c-20.113,4.377-41.374,8.768-63.889,13.418c-28.274,5.838-57.515,11.876-84.119,17.857c-9.603,2.154-12.615,3.656-12.736,8.844
			c-0.188,8.374,9.327,9.542,22.795,10.287c2.442,0.136,4.822,0.265,7.023,0.479c5.686,0.561,11.459,1.166,17.056,1.756
			c9.076,0.951,17.652,1.854,24.605,2.418c0.683,0.054,1.308,0.396,1.718,0.94c0.685,0.91,0.934,1.97,0.688,2.979
			c-0.426,1.791-2.145,2.631-3.066,3.08l-0.296,0.148c-10.236,7.669-21.403,14.921-32.205,21.932
			c-9.479,6.156-19.283,12.521-28.177,19.012c-0.685,0.5-1.589,0.604-2.369,0.259c-12.283-5.396-25.901-11.929-40.32-18.851
			L89,301.293c-10.949-5.346-27.499-13.418-40.963-13.418c-7.249,0-12.479,2.345-15.99,7.16c-0.112,0.188-0.232,0.34-0.338,0.477
			c-3.647,4.633-1.791,10.436,0.414,14.48c4.925,9.064,22.852,31.891,38.663,52.031c4.932,6.281,9.718,12.375,13.951,17.846
			c0.768,0.992,1.632,2.218,2.577,3.562c3.608,5.106,9.06,12.825,13.839,13.303c7.523,0.709,20.674-7.223,27.598-11.394l0.817-0.489
			c6.757-4.062,15.068-8.086,22.401-11.638c2.222-1.073,4.336-2.096,6.267-3.052c7.857-3.902,15.553-7.49,22.993-10.962
			c7.18-3.354,13.955-6.519,20.796-9.9c1.092-0.536,2.181-1.118,3.277-1.704c3.746-1.996,7.621-4.058,11.997-4.761
			C217.429,342.812,217.554,342.803,217.68,342.803z"/>
	</g>
	<g>
		<line fill="none" x1="49.516" y1="311.48" x2="97.972" y2="372.062"/>
		<path fill="#211010" d="M97.976,374.452c-0.702,0-1.396-0.308-1.866-0.897l-48.458-60.578c-0.824-1.031-0.658-2.533,0.374-3.359
			c1.03-0.821,2.536-0.653,3.356,0.373l48.456,60.58c0.825,1.029,0.656,2.533-0.373,3.359
			C99.025,374.281,98.498,374.452,97.976,374.452z"/>
	</g>
	<g>
		<path fill="#FFFFFF" d="M363.529,208.635c0,3.588-2.909,6.493-6.493,6.493l0,0c-3.585,0-6.498-2.904-6.498-6.493v-1.214
			c0-3.588,2.913-6.494,6.498-6.494l0,0c3.584,0,6.493,2.906,6.493,6.494V208.635z"/>
		<path fill="#211010" d="M357.036,216.323c-4.243,0-7.692-3.449-7.692-7.688v-1.214c0-4.239,3.449-7.689,7.692-7.689
			c4.239,0,7.688,3.45,7.688,7.689v1.214C364.725,212.874,361.275,216.323,357.036,216.323z M357.036,202.122
			c-2.923,0-5.303,2.376-5.303,5.299v1.214c0,2.921,2.38,5.298,5.303,5.298c2.922,0,5.298-2.376,5.298-5.298v-1.214
			C362.334,204.498,359.958,202.122,357.036,202.122z"/>
	</g>
	<g>
		<path fill="#FFFFFF" d="M341.056,222.838c0,3.587-2.913,6.493-6.498,6.493l0,0c-3.584,0-6.489-2.906-6.489-6.493v-1.216
			c0-3.586,2.905-6.494,6.489-6.494l0,0c3.585,0,6.498,2.908,6.498,6.494V222.838z"/>
		<path fill="#211010" d="M334.558,230.525c-4.235,0-7.685-3.449-7.685-7.688v-1.216c0-4.238,3.448-7.688,7.685-7.688
			c4.245,0,7.693,3.451,7.693,7.688v1.216C342.251,227.077,338.803,230.525,334.558,230.525z M334.558,216.323
			c-2.918,0-5.295,2.378-5.295,5.299v1.216c0,2.921,2.377,5.297,5.295,5.297c2.925,0,5.305-2.376,5.305-5.297v-1.216
			C339.861,218.701,337.481,216.323,334.558,216.323z"/>
	</g>
	<g>
		<path fill="#FFFFFF" d="M316.334,242.13c0,3.588-2.909,6.494-6.497,6.494l0,0c-3.584,0-6.491-2.906-6.491-6.494v-1.215
			c0-3.588,2.907-6.494,6.491-6.494l0,0c3.588,0,6.497,2.906,6.497,6.494V242.13z"/>
		<path fill="#211010" d="M309.837,249.818c-4.236,0-7.686-3.449-7.686-7.688v-1.215c0-4.24,3.448-7.688,7.686-7.688
			c4.243,0,7.692,3.449,7.692,7.688v1.215C317.529,246.37,314.08,249.818,309.837,249.818z M309.837,235.616
			c-2.922,0-5.296,2.376-5.296,5.299v1.215c0,2.919,2.374,5.299,5.296,5.299c2.923,0,5.302-2.38,5.302-5.299v-1.215
			C315.139,237.992,312.76,235.616,309.837,235.616z"/>
	</g>
	<g>
		<path fill="#FFFFFF" d="M293.855,256.33c0,3.591-2.908,6.494-6.489,6.494l0,0c-3.587,0-6.494-2.903-6.494-6.494v-1.212
			c0-3.591,2.907-6.494,6.494-6.494l0,0c3.581,0,6.489,2.903,6.489,6.494V256.33z"/>
		<path fill="#211010" d="M287.366,264.018c-4.24,0-7.688-3.449-7.688-7.688v-1.212c0-4.24,3.448-7.689,7.688-7.689
			c4.237,0,7.686,3.449,7.686,7.689v1.212C295.052,260.568,291.604,264.018,287.366,264.018z M287.366,249.818
			c-2.923,0-5.3,2.375-5.3,5.299v1.212c0,2.922,2.377,5.302,5.3,5.302c2.919,0,5.296-2.38,5.296-5.302v-1.212
			C292.662,252.195,290.285,249.818,287.366,249.818z"/>
	</g>
</g>
</svg>
