<?xml version="1.0" encoding="utf-8"?>
<!-- Generator: Adobe Illustrator 16.0.0, SVG Export Plug-In . SVG Version: 6.00 Build 0)  -->
<!DOCTYPE svg PUBLIC "-//W3C//DTD SVG 1.1//EN" "http://www.w3.org/Graphics/SVG/1.1/DTD/svg11.dtd">
<svg version="1.1" id="Layer_1" xmlns="http://www.w3.org/2000/svg" xmlns:xlink="http://www.w3.org/1999/xlink" x="0px" y="0px"
	 width="500px" height="500px" viewBox="0 0 500 500" enable-background="new 0 0 500 500" xml:space="preserve">
<g id="Layer_1_copy_90">
	<g>
		<g>
			<path fill="#FDDC1F" d="M480.343,248.187c0,127.437-103.305,230.738-230.738,230.738c-127.43,0-230.734-103.301-230.734-230.738
				c0-127.43,103.305-230.734,230.734-230.734C377.038,17.452,480.343,120.757,480.343,248.187z"/>
		</g>
		<g>
			<path fill="#FCB022" d="M249.604,482.385c-129.136,0-234.199-105.062-234.199-234.199S120.468,13.989,249.604,13.989
				c129.139,0,234.199,105.062,234.199,234.197C483.804,377.322,378.743,482.385,249.604,482.385z M249.604,20.915
				c-125.316,0-227.27,101.953-227.27,227.271c0,125.321,101.953,227.277,227.27,227.277c125.32,0,227.277-101.956,227.277-227.277
				C476.882,122.868,374.925,20.915,249.604,20.915z"/>
		</g>
	</g>
	<g>
		<path fill="#4C230D" d="M246.886,283.477c-4.398,0-7.594-1.515-9.721-3.072c-5.142-3.771-8.09-10.844-8.09-19.385
			c0-15.24,15.536-19.271,23.749-19.271c1.912,0,3.462,1.554,3.462,3.465s-1.547,3.46-3.454,3.46
			c-0.75,0.008-16.831,0.241-16.831,12.346c0,6.312,1.918,11.344,5.258,13.801c2.67,1.953,6.208,2.258,10.525,0.899
			c1.837-0.588,3.772,0.445,4.347,2.263c0.573,1.828-0.441,3.774-2.27,4.34C251.268,283.145,248.942,283.477,246.886,283.477z"/>
	</g>
	<g>
		<g>
			<path fill="#DEF2FD" d="M221.54,187.042c-0.572,38.601-24.676,69.554-53.844,69.121c-29.169-0.433-52.348-32.077-51.778-70.682
				c0.566-38.603,24.674-69.549,53.841-69.119C198.927,116.792,222.107,148.438,221.54,187.042z"/>
		</g>
		<g>
			<path fill="#C3E5F2" d="M168.302,258.479l-0.641-0.008c-30.389-0.445-54.638-33.208-54.054-73.021
				c0.584-39.369,25.504-71.398,55.55-71.398l0.637,0.004c30.39,0.45,54.642,33.206,54.055,73.021
				C223.268,226.447,198.347,258.479,168.302,258.479z M169.157,118.667c-27.539,0-50.387,29.988-50.932,66.848
				c-0.549,37.271,21.658,67.922,49.502,68.338h0.574c27.536,0,50.383-29.985,50.929-66.848
				c0.548-37.271-21.659-67.924-49.507-68.334L169.157,118.667z"/>
		</g>
	</g>
	<g>
		<path fill="#010101" d="M187.469,194.023c-0.468,15.36-8.869,27.568-18.757,27.271c-9.892-0.301-17.532-12.994-17.072-28.354
			c0.467-15.359,8.861-27.568,18.757-27.269C180.283,165.97,187.928,178.663,187.469,194.023z"/>
	</g>
	<g>
		<g>
			<path fill="#DEF2FD" d="M266.7,196.848c2.967,38.489,28.942,67.886,58.035,65.643c29.079-2.243,50.254-35.26,47.295-73.756
				c-2.97-38.491-28.945-67.882-58.035-65.644C284.912,125.329,263.738,158.353,266.7,196.848z"/>
		</g>
		<g>
			<path fill="#C3E5F2" d="M321.618,264.917c0,0,0,0-0.004,0c-29.153,0-54.279-29.825-57.214-67.893
				c-3.055-39.702,19.113-73.904,49.418-76.236c30.548-2.332,57.465,28.271,60.512,67.769c3.054,39.698-19.113,73.898-49.421,76.234
				C323.809,264.884,322.712,264.917,321.618,264.917z M317.106,125.279c-0.975,0-1.947,0.038-2.932,0.114
				c-27.767,2.137-48.032,34.111-45.175,71.277c2.754,35.679,25.861,63.635,52.613,63.635c0.004,0,0.004,0,0.004,0
				c0.974,0,1.954-0.035,2.938-0.113c27.768-2.146,48.03-34.12,45.17-71.278C366.973,153.23,343.864,125.279,317.106,125.279z"/>
		</g>
	</g>
	<g>
		<path fill="#010101" d="M301.146,201.701c1.414,15.299,10.557,26.967,20.408,26.052c9.854-0.911,16.696-14.053,15.281-29.357
			c-1.423-15.301-10.561-26.965-20.413-26.054C306.57,173.255,299.729,186.398,301.146,201.701z"/>
	</g>
	<g>
		<g>
			<path fill="#C12026" d="M291.018,337.206c0,0-33.553,5.668-55.985-10.521c-22.437-16.188-63.007-23.682-74.888,20.328
				c-11.88,44.004,16.626,65.01,48.696,52.887c32.069-12.116,50.643-20.123,89.434,0.807c27.001,13.675,30.764-20.284,30.323-31.757
				c-0.073-2.132-0.768-6.173-0.959-9.407C327.062,349.838,323.222,331.867,291.018,337.206z"/>
		</g>
		<g>
			<path fill="#4C230D" d="M309.713,407.368L309.713,407.368c-3.956,0-8.334-1.197-13.005-3.567
				c-15.918-8.593-29.049-12.57-41.397-12.57c-13.795,0-26.558,4.836-42.712,10.949l-2.534,0.963
				c-6.345,2.399-12.647,3.616-18.725,3.616c-12.096,0-22.472-4.848-29.213-13.653c-8.589-11.211-10.479-27.899-5.326-46.996
				c8.353-30.937,29.691-35.559,41.667-35.559c12.591,0,27.017,4.982,38.589,13.327c12.4,8.953,28.598,10.828,40,10.828
				c7.836,0,13.332-0.906,13.385-0.912c4.08-0.68,7.904-1.019,11.378-1.019c12.637,0,27.976,4.606,29.276,26.562
				c0.093,1.552,0.309,3.326,0.521,5.04c0.212,1.749,0.398,3.262,0.444,4.438c0.315,8.295-1.325,24.574-9.463,33.024
				C319.062,405.505,314.731,407.368,309.713,407.368z M255.311,384.309c13.547,0,27.719,4.237,44.604,13.354
				c3.616,1.827,6.938,2.775,9.799,2.775l0,0c3.104,0,5.69-1.11,7.899-3.403c6.059-6.293,7.82-20.173,7.526-27.958
				c-0.035-0.893-0.209-2.329-0.396-3.859c-0.212-1.732-0.456-3.701-0.562-5.47c-0.51-8.606-3.384-20.052-22.361-20.052
				c-3.095,0-6.54,0.312-10.235,0.928c-0.236,0.036-6.068,1.006-14.525,1.006c-12.422,0-30.156-2.104-44.054-12.132
				c-10.433-7.524-23.343-12.021-34.537-12.021c-12.209,0-28.188,5.28-34.979,30.437c-4.579,16.966-3.111,31.519,4.134,40.985
				c5.403,7.053,13.823,10.932,23.717,10.932c5.238,0,10.717-1.062,16.276-3.171l2.53-0.957
				C226.962,389.333,240.248,384.309,255.311,384.309z"/>
		</g>
	</g>
	<g>
		<path fill="#4C230D" d="M140.152,342.832c-1.872,0-3.411-1.494-3.461-3.376c-0.647-26.45,17.567-35.921,18.346-36.31
			c1.706-0.864,3.787-0.17,4.649,1.543c0.857,1.699,0.174,3.771-1.521,4.636c-0.622,0.325-15.085,8.056-14.552,29.96
			c0.05,1.912-1.465,3.497-3.375,3.547C140.209,342.832,140.182,342.832,140.152,342.832z"/>
	</g>
	<g>
		<path fill="#4C230D" d="M236.146,430.01c-0.598,0-1.206-0.154-1.758-0.48c-1.636-0.971-2.188-3.073-1.226-4.714
			c0.125-0.221,12.832-21.186,43.327-11.565c1.825,0.573,2.839,2.52,2.266,4.346c-0.577,1.826-2.517,2.832-4.347,2.26
			c-25.072-7.916-34.875,7.799-35.279,8.471C238.479,429.407,237.324,430.01,236.146,430.01z"/>
	</g>
	<g>
		<g>
			<path fill="#010101" d="M313.025,87.332c0,0-11.188-12.723-1.767-15.462c9.417-2.736,10.903,6.112,16.052,13.828
				c5.16,7.719,25.07,13.747,34.569,11.712C332.805,108.804,313.025,87.332,313.025,87.332z"/>
		</g>
		<g>
			<path fill="#010101" d="M344.914,103.053c-20.312,0-33.054-13.579-33.587-14.157c-1.296-1.476-7.515-8.929-5.871-14.575
				c0.46-1.578,1.727-3.67,5.156-4.667c1.369-0.398,2.675-0.6,3.875-0.6c6.246,0,9.027,5.165,11.724,10.162
				c0.932,1.724,1.891,3.503,3.026,5.202c3.984,5.968,18.923,11.084,28.354,11.084c1.448,0,2.729-0.117,3.806-0.349
				c1.175-0.242,2.347,0.442,2.696,1.594c0.347,1.15-0.252,2.375-1.37,2.813C356.812,101.878,350.821,103.053,344.914,103.053z
				 M314.487,73.67c-0.765,0-1.631,0.139-2.584,0.417c-1.712,0.499-1.933,1.246-2.018,1.525c-0.693,2.385,2.501,7.493,4.873,10.195
				c0.081,0.083,12.333,13.062,31.032,12.616c-8.531-2.229-17.068-6.46-20.395-11.443c-1.261-1.879-2.269-3.758-3.253-5.574
				C319.483,76.466,317.817,73.67,314.487,73.67z"/>
		</g>
	</g>
	<g>
		<g>
			<path fill="#010101" d="M170.024,87.332c0,0,11.183-12.723,1.766-15.462c-9.42-2.736-10.906,6.112-16.055,13.828
				c-5.156,7.719-25.067,13.747-34.565,11.712C150.245,108.804,170.024,87.332,170.024,87.332z"/>
		</g>
		<g>
			<path fill="#010101" d="M138.136,103.053L138.136,103.053c-5.903,0-11.897-1.175-17.809-3.493
				c-1.117-0.438-1.716-1.664-1.365-2.813c0.343-1.152,1.518-1.835,2.689-1.594c1.079,0.232,2.359,0.349,3.808,0.349
				c9.431,0,24.368-5.116,28.354-11.086c1.136-1.697,2.095-3.477,3.023-5.2c2.695-4.997,5.48-10.162,11.727-10.162
				c1.2,0,2.502,0.202,3.872,0.6c3.434,0.998,4.7,3.089,5.159,4.667c1.643,5.646-4.572,13.1-5.839,14.534
				C171.189,89.475,158.449,103.053,138.136,103.053z M137.258,98.424c0.29,0.007,0.588,0.011,0.878,0.011
				c18.232,0,30.073-12.544,30.193-12.671c2.407-2.745,5.531-7.754,4.831-10.151c-0.082-0.281-0.302-1.027-2.014-1.527
				c-5.097-1.481-6.972,1.248-10.245,7.322c-0.98,1.815-1.992,3.694-3.245,5.572C154.326,91.964,145.786,96.195,137.258,98.424z"/>
		</g>
	</g>
	<g>
		<path fill="#F3F3F3" d="M178.33,180.042c0,3.435-2.646,6.222-5.917,6.222c-3.262,0-5.913-2.787-5.913-6.222
			c0-3.438,2.651-6.223,5.913-6.223C175.684,173.819,178.33,176.604,178.33,180.042z"/>
	</g>
	<g>
		<path fill="#F3F3F3" d="M321.926,187.375c-0.641,3.374-3.766,5.613-6.972,4.999c-3.209-0.612-5.287-3.845-4.646-7.221
			c0.647-3.376,3.772-5.614,6.979-5C320.492,180.767,322.573,183.997,321.926,187.375z"/>
	</g>
</g>
</svg>
