<?xml version="1.0" encoding="utf-8"?>
<!-- Generator: Adobe Illustrator 16.0.0, SVG Export Plug-In . SVG Version: 6.00 Build 0)  -->
<!DOCTYPE svg PUBLIC "-//W3C//DTD SVG 1.1//EN" "http://www.w3.org/Graphics/SVG/1.1/DTD/svg11.dtd">
<svg version="1.1" id="Layer_1" xmlns="http://www.w3.org/2000/svg" xmlns:xlink="http://www.w3.org/1999/xlink" x="0px" y="0px"
	 width="500px" height="500px" viewBox="0 0 500 500" enable-background="new 0 0 500 500" xml:space="preserve">
<g id="Layer_1_copy_60">
	<g>
		<path fill="#FAA625" d="M381.778,244.671c0,71.95-58.329,130.284-130.281,130.284c-71.951,0-130.288-58.334-130.288-130.284
			c0-71.954,58.337-130.285,130.288-130.285C323.449,114.386,381.778,172.717,381.778,244.671z"/>
		<path fill="#27140E" d="M251.497,378.611c-73.858,0-133.944-60.086-133.944-133.94c0-73.857,60.086-133.943,133.944-133.943
			c73.855,0,133.942,60.086,133.942,133.943C385.439,318.525,325.354,378.611,251.497,378.611z M251.497,118.044
			c-69.82,0-126.632,56.804-126.632,126.627c0,69.825,56.812,126.627,126.632,126.627c69.821,0,126.626-56.803,126.626-126.627
			C378.123,174.848,321.318,118.044,251.497,118.044z"/>
	</g>
	<g>
		<path fill="#27140E" d="M161.055,251.809c-2.02,0-3.657-1.638-3.657-3.657c0-52.875,43.021-95.893,95.901-95.893
			c2.02,0,3.657,1.638,3.657,3.658s-1.638,3.659-3.657,3.659c-48.848,0-88.588,39.735-88.588,88.576
			C164.711,250.171,163.076,251.809,161.055,251.809z"/>
	</g>
	<g>
		<polygon fill="#FDD71E" points="344.027,115.356 380.399,151.312 403.545,95.516 		"/>
		<path fill="#27140E" d="M380.399,154.972c-0.953,0-1.878-0.374-2.573-1.056l-36.371-35.959c-0.905-0.896-1.278-2.195-0.99-3.432
			c0.287-1.238,1.2-2.237,2.403-2.64l59.521-19.84c1.355-0.458,2.855-0.075,3.835,0.978c0.977,1.048,1.248,2.572,0.703,3.894
			l-23.148,55.798c-0.469,1.127-1.463,1.942-2.658,2.186C380.885,154.947,380.639,154.972,380.399,154.972z M350.835,116.941
			l28.271,27.946l17.985-43.366L350.835,116.941z"/>
	</g>
	<g>
		<polygon fill="#FDD71E" points="407.182,217.333 407.725,268.477 463.429,245.116 		"/>
		<path fill="#27140E" d="M407.725,272.13c-0.702,0-1.4-0.2-2.008-0.604c-1.017-0.666-1.637-1.793-1.647-3.015l-0.542-51.139
			c-0.016-1.273,0.631-2.46,1.708-3.137c1.072-0.679,2.426-0.746,3.566-0.181l56.245,27.78c1.287,0.635,2.087,1.958,2.038,3.394
			c-0.044,1.432-0.919,2.707-2.239,3.26l-55.704,23.36C408.685,272.041,408.203,272.13,407.725,272.13z M410.902,223.251
			l0.422,39.75l43.296-18.158L410.902,223.251z"/>
	</g>
	<g>
		<polygon fill="#FDD71E" points="379.682,338.699 343.652,374.994 399.402,398.255 		"/>
		<path fill="#27140E" d="M399.402,401.919c-0.476,0-0.956-0.099-1.405-0.285l-55.754-23.262c-1.124-0.472-1.939-1.465-2.179-2.66
			c-0.239-1.188,0.13-2.424,0.989-3.291l36.032-36.301c0.895-0.904,2.19-1.287,3.437-0.988c1.236,0.293,2.231,1.205,2.632,2.416
			l19.721,59.556c0.449,1.36,0.064,2.862-0.987,3.836C401.2,401.582,400.308,401.919,399.402,401.919z M350.08,373.714l43.325,18.08
			l-15.319-46.299L350.08,373.714z"/>
	</g>
	<g>
		<polygon fill="#FDD71E" points="277.581,401.648 226.427,402.083 249.674,457.847 		"/>
		<path fill="#27140E" d="M249.674,461.503c-0.038,0-0.079,0-0.121,0c-1.427-0.053-2.702-0.926-3.252-2.25l-23.249-55.756
			c-0.472-1.131-0.349-2.41,0.32-3.427c0.67-1.018,1.806-1.629,3.024-1.645l51.155-0.436c1.256,0.023,2.456,0.639,3.133,1.715
			c0.67,1.082,0.736,2.428,0.176,3.572l-27.908,56.19C252.331,460.72,251.061,461.503,249.674,461.503z M231.894,405.695
			l18.071,43.346l21.694-43.682L231.894,405.695z"/>
	</g>
	<g>
		<polygon fill="#FDD71E" points="279.693,89.689 228.577,88.521 252.619,33.103 		"/>
		<path fill="#27140E" d="M279.693,93.347c-0.026,0-0.057,0-0.082-0.001l-51.117-1.168c-1.219-0.028-2.344-0.66-2.994-1.686
			c-0.658-1.024-0.763-2.311-0.277-3.427l24.039-55.418c0.571-1.314,1.854-2.174,3.29-2.201c1.392-0.091,2.744,0.785,3.364,2.079
			l26.844,56.091c0.403,0.589,0.643,1.303,0.643,2.073c0,2.019-1.637,3.658-3.659,3.658
			C279.729,93.347,279.721,93.349,279.693,93.347z M234.099,84.988l39.726,0.908l-21.041-43.978L234.099,84.988z"/>
	</g>
	<g>
		<polygon fill="#FDD71E" points="162.49,115.147 125.34,150.298 103.42,94.009 		"/>
		<path fill="#27140E" d="M125.34,153.955c-0.266,0-0.535-0.028-0.804-0.088c-1.186-0.266-2.161-1.104-2.605-2.242l-21.92-56.289
			c-0.516-1.337-0.209-2.853,0.789-3.879c0.999-1.026,2.501-1.378,3.854-0.894l59.066,21.14c1.195,0.428,2.086,1.447,2.344,2.692
			c0.266,1.245-0.139,2.535-1.062,3.41l-37.15,35.15C127.168,153.604,126.264,153.955,125.34,153.955z M109.738,100.155
			l17.037,43.749l28.87-27.319L109.738,100.155z"/>
	</g>
	<g>
		<polygon fill="#FDD71E" points="94.337,219.266 93.282,270.389 37.81,246.477 		"/>
		<path fill="#27140E" d="M93.282,274.052c-0.49,0-0.979-0.098-1.443-0.307l-55.48-23.912c-1.312-0.568-2.176-1.847-2.206-3.282
			c-0.029-1.432,0.778-2.751,2.071-3.373l56.527-27.211c1.145-0.547,2.497-0.467,3.563,0.221c1.068,0.688,1.704,1.882,1.678,3.151
			l-1.055,51.13c-0.022,1.213-0.65,2.342-1.675,2.998C94.665,273.852,93.978,274.052,93.282,274.052z M46.624,246.29l43.113,18.588
			l0.819-39.734L46.624,246.29z"/>
	</g>
	<g>
		<polygon fill="#FDD71E" points="120.023,336.417 155.256,373.505 99.006,395.541 		"/>
		<path fill="#27140E" d="M99.009,399.197c-0.934,0-1.854-0.357-2.55-1.031c-1.027-0.994-1.383-2.506-0.9-3.852l21.021-59.121
			c0.427-1.203,1.443-2.086,2.685-2.355c1.241-0.262,2.535,0.143,3.409,1.062l35.232,37.086c0.838,0.883,1.181,2.123,0.92,3.312
			c-0.261,1.188-1.099,2.168-2.235,2.609l-56.25,22.041C99.906,399.113,99.454,399.197,99.009,399.197z M121.478,343.259
			l-16.337,45.949l43.719-17.123L121.478,343.259z"/>
	</g>
</g>
</svg>
