<?xml version="1.0" encoding="utf-8"?>
<!-- Generator: Adobe Illustrator 16.0.0, SVG Export Plug-In . SVG Version: 6.00 Build 0)  -->
<!DOCTYPE svg PUBLIC "-//W3C//DTD SVG 1.1//EN" "http://www.w3.org/Graphics/SVG/1.1/DTD/svg11.dtd">
<svg version="1.1" id="Layer_1" xmlns="http://www.w3.org/2000/svg" xmlns:xlink="http://www.w3.org/1999/xlink" x="0px" y="0px"
	 width="500px" height="500px" viewBox="0 0 500 500" enable-background="new 0 0 500 500" xml:space="preserve">
<g id="Layer_1_copy_89">
	<g>
		<g>
			<path fill="#FDDC1F" d="M482.444,248.187c0,127.437-103.306,230.738-230.737,230.738c-127.43,0-230.734-103.301-230.734-230.738
				c0-127.43,103.305-230.734,230.734-230.734C379.14,17.452,482.444,120.757,482.444,248.187z"/>
		</g>
		<g>
			<path fill="#FCB022" d="M251.707,482.385c-129.136,0-234.199-105.062-234.199-234.199S122.571,13.989,251.707,13.989
				c129.139,0,234.198,105.062,234.198,234.197C485.905,377.322,380.846,482.385,251.707,482.385z M251.707,20.915
				c-125.317,0-227.271,101.953-227.271,227.271c0,125.321,101.953,227.277,227.271,227.277
				c125.32,0,227.276-101.956,227.276-227.277C478.983,122.868,377.027,20.915,251.707,20.915z"/>
		</g>
	</g>
	<g>
		<path fill="#4C230D" d="M248.988,283.477c-4.398,0-7.594-1.515-9.721-3.072c-5.143-3.771-8.091-10.844-8.091-19.385
			c0-15.24,15.537-19.271,23.75-19.271c1.911,0,3.463,1.554,3.463,3.465s-1.548,3.46-3.455,3.46
			c-0.75,0.008-16.832,0.241-16.832,12.346c0,6.312,1.918,11.344,5.259,13.801c2.669,1.953,6.208,2.258,10.526,0.899
			c1.836-0.588,3.771,0.445,4.346,2.263c0.572,1.828-0.442,3.774-2.271,4.34C253.37,283.145,251.045,283.477,248.988,283.477z"/>
	</g>
	<g>
		<g>
			<path fill="#DEF2FD" d="M228.258,187.11c-0.622,41.977-26.832,75.637-58.552,75.162c-31.716-0.467-56.92-34.877-56.305-76.858
				c0.619-41.977,26.832-75.626,58.552-75.158C203.67,110.721,228.873,145.133,228.258,187.11z"/>
		</g>
		<g>
			<path fill="#C3E5F2" d="M170.364,264.585l-0.69-0.007c-32.937-0.487-59.213-36.018-58.583-79.199
				c0.634-42.699,27.643-77.438,60.204-77.438l0.69,0.005c16.081,0.236,31.033,8.69,42.106,23.805
				c10.931,14.918,16.777,34.593,16.474,55.393C229.935,229.848,202.926,264.585,170.364,264.585z M171.295,112.559
				c-30.052,0-54.991,32.696-55.582,72.89c-0.602,40.637,23.64,74.062,54.028,74.516l0.623,0.008
				c30.057,0,54.992-32.703,55.587-72.896c0.289-19.804-5.246-38.483-15.586-52.596c-10.192-13.919-23.853-21.703-38.447-21.917
				L171.295,112.559z"/>
		</g>
	</g>
	<g>
		<path fill="#010101" d="M191.205,194.703c-0.506,16.702-9.64,29.979-20.391,29.651c-10.759-0.326-19.067-14.126-18.566-30.827
			c0.507-16.705,9.637-29.979,20.396-29.655C183.398,164.195,191.708,177.999,191.205,194.703z"/>
	</g>
	<g>
		<g>
			<path fill="#DEF2FD" d="M267.066,181.331c-3.604,43.136,19.896,80.325,52.496,83.043c32.59,2.718,61.935-30.038,65.536-73.18
				c3.604-43.139-19.896-80.318-52.492-83.041C300.013,105.43,270.672,138.195,267.066,181.331z"/>
		</g>
		<g>
			<path fill="#C3E5F2" d="M323.342,266.844L323.342,266.844c-1.316,0-2.653-0.058-3.975-0.17
				c-16.502-1.374-31.27-11.119-41.579-27.435c-10.181-16.104-14.806-36.739-13.021-58.098
				c3.532-42.313,31.668-75.455,64.052-75.455c1.319,0,2.657,0.055,3.978,0.164c33.812,2.828,58.309,41.199,54.604,85.535
				C383.868,233.694,355.727,266.844,323.342,266.844z M328.819,110.303c-30.003,0-56.116,31.284-59.454,71.221
				c-1.698,20.367,2.676,39.988,12.326,55.253c9.517,15.062,23.03,24.043,38.062,25.296c1.189,0.106,2.396,0.155,3.589,0.155
				c30.003,0,56.123-31.291,59.46-71.228c3.486-41.8-19.112-77.933-50.386-80.548C331.223,110.354,330.017,110.303,328.819,110.303z
				"/>
		</g>
	</g>
	<g>
		<path fill="#010101" d="M304.323,192.864c-1.168,17.191,6.864,31.74,17.932,32.486c11.069,0.758,20.993-12.567,22.161-29.758
			c1.167-17.192-6.862-31.736-17.932-32.49C315.417,162.35,305.491,175.674,304.323,192.864z"/>
	</g>
	<g>
		<path fill="#4C230D" d="M244.027,441.305c-3.872,0-7.188-0.629-9.867-1.465c-7.722-2.385-11.996-6.908-12.178-7.092
			c-1.305-1.402-1.228-3.595,0.171-4.897c1.397-1.304,3.578-1.23,4.883,0.156c0.57,0.602,13.572,13.729,36.274,0.537
			c1.652-0.955,3.771-0.396,4.734,1.253c0.959,1.655,0.4,3.78-1.257,4.734C257.967,439.664,250.271,441.305,244.027,441.305z"/>
	</g>
	<g>
		<g>
			<path fill="#010101" d="M337.891,65.706c0,0-15.006-0.384-12.851,11.021c1.815,9.637,10.234,6.163,19.485,6.871
				c9.749,0.745,26.263,6.54,33.217,14.039C366.966,68.328,337.891,65.706,337.891,65.706z"/>
		</g>
		<g>
			<path fill="#010101" d="M377.742,99.946c-0.627,0-1.242-0.253-1.695-0.738c-6.211-6.706-21.859-12.556-31.695-13.31
				c-2.192-0.167-4.334-0.085-6.345-0.014c-1.115,0.039-2.194,0.078-3.221,0.078c-5.117,0-10.553-1.045-12.016-8.806
				c-0.672-3.541-0.021-6.531,1.934-8.885c3.748-4.523,10.907-4.875,13.013-4.875c0.021,0,0.212,0.002,0.233,0.002
				c0.453,0.038,30.81,3.114,41.957,33.443c0.383,1.033-0.024,2.19-0.959,2.764C378.573,99.835,378.155,99.946,377.742,99.946z
				 M341.531,81.183c1.044,0,2.103,0.03,3.171,0.114c7.74,0.591,18.711,4.031,26.889,8.792
				c-11.957-19.859-33.662-22.06-33.906-22.081c-2.49,0.005-7.327,0.681-9.424,3.21c-1.051,1.263-1.361,2.927-0.955,5.082
				c0.817,4.317,2.97,5.047,7.48,5.047c0.977,0,1.999-0.039,3.055-0.075C339.032,81.229,340.271,81.183,341.531,81.183z"/>
		</g>
	</g>
	<g>
		<g>
			<path fill="#010101" d="M162.447,53.97c0,0,18.853-1.345,13.717,10.328c-3.949,8.98-11.986,4.925-21.219,5.832
				c-12.507,1.23-23.441,8.819-30.761,16.811C133.984,57.293,162.447,53.97,162.447,53.97z"/>
		</g>
		<g>
			<path fill="#010101" d="M124.185,89.25c-0.402,0-0.807-0.104-1.168-0.317c-0.94-0.552-1.365-1.683-1.025-2.716
				c10.146-30.691,39.891-34.504,40.188-34.538c0.105-0.01,0.828-0.064,1.975-0.064c4.92,0,11.346,0.865,14.043,4.99
				c1.535,2.357,1.564,5.257,0.085,8.623c-2.853,6.489-7.761,7.363-12.186,7.363c-1.217,0-2.494-0.071-3.817-0.142
				c-2.336-0.131-4.977-0.23-7.106-0.021c-10.171,1-20.845,6.859-29.288,16.074C125.438,88.991,124.814,89.25,124.185,89.25z
				 M164.153,56.232c-0.913,0-1.504,0.041-1.543,0.042c-0.862,0.106-20.497,2.693-31.727,21.46c7.45-5.606,15.759-9.108,23.836-9.9
				c2.388-0.237,5.255-0.138,7.813,0.003c1.238,0.067,2.427,0.137,3.562,0.137c3.848,0,6.254-0.735,7.957-4.604
				c0.813-1.848,0.905-3.275,0.275-4.243C173.16,57.343,169.264,56.232,164.153,56.232z"/>
		</g>
	</g>
	<g>
		<g>
			<path fill="#C12026" d="M282.488,368.885c0,26.352-15.852,47.713-35.396,47.713c-19.549,0-35.396-21.361-35.396-47.713
				c0-26.344,15.848-47.705,35.396-47.705C266.639,321.18,282.488,342.542,282.488,368.885z"/>
		</g>
		<g>
			<path fill="#4C230D" d="M247.092,420.059c-21.428,0-38.86-22.953-38.86-51.174c0-28.213,17.433-51.166,38.86-51.166
				c21.428,0,38.86,22.953,38.86,51.166C285.952,397.105,268.52,420.059,247.092,420.059z M247.092,324.641
				c-17.61,0-31.935,19.846-31.935,44.244c0,24.396,14.324,44.252,31.935,44.252c17.606,0,31.936-19.854,31.936-44.252
				C279.027,344.486,264.698,324.641,247.092,324.641z"/>
		</g>
	</g>
	<g>
		<ellipse fill="#F3F3F3" cx="172.932" cy="180.042" rx="6.06" ry="6.222"/>
	</g>
	<g>
		<ellipse fill="#F3F3F3" cx="321.539" cy="180.042" rx="6.06" ry="6.222"/>
	</g>
</g>
</svg>
