<?xml version="1.0" encoding="utf-8"?>
<!-- Generator: Adobe Illustrator 16.0.0, SVG Export Plug-In . SVG Version: 6.00 Build 0)  -->
<!DOCTYPE svg PUBLIC "-//W3C//DTD SVG 1.1//EN" "http://www.w3.org/Graphics/SVG/1.1/DTD/svg11.dtd">
<svg version="1.1" id="Layer_1" xmlns="http://www.w3.org/2000/svg" xmlns:xlink="http://www.w3.org/1999/xlink" x="0px" y="0px"
	 width="500px" height="500px" viewBox="0 0 500 500" enable-background="new 0 0 500 500" xml:space="preserve">
<g id="Layer_1_copy_91">
	<g>
		<g>
			<path fill="#FDDC1F" d="M480.145,248.187c0,127.437-103.305,230.738-230.737,230.738c-127.43,0-230.734-103.301-230.734-230.738
				c0-127.43,103.305-230.734,230.734-230.734C376.84,17.452,480.145,120.757,480.145,248.187z"/>
		</g>
		<g>
			<path fill="#FCB022" d="M249.406,482.385c-129.135,0-234.199-105.062-234.199-234.199S120.271,13.989,249.406,13.989
				c129.14,0,234.197,105.062,234.197,234.197C483.604,377.322,378.546,482.385,249.406,482.385z M249.406,20.915
				c-125.316,0-227.27,101.953-227.27,227.271c0,125.321,101.953,227.277,227.27,227.277c125.319,0,227.276-101.956,227.276-227.277
				C476.684,122.868,374.727,20.915,249.406,20.915z"/>
		</g>
	</g>
	<g>
		<path fill="#4C230D" d="M246.688,283.477c-4.398,0-7.594-1.515-9.721-3.072c-5.142-3.771-8.09-10.844-8.09-19.385
			c0-15.24,15.536-19.271,23.749-19.271c1.912,0,3.462,1.554,3.462,3.465s-1.547,3.46-3.454,3.46
			c-0.75,0.008-16.831,0.241-16.831,12.346c0,6.312,1.918,11.344,5.258,13.801c2.67,1.953,6.208,2.258,10.525,0.899
			c1.837-0.588,3.773,0.445,4.348,2.263c0.572,1.828-0.442,3.774-2.27,4.34C251.068,283.145,248.744,283.477,246.688,283.477z"/>
	</g>
	<g>
		<g>
			<path fill="#DEF2FD" d="M119.139,147.042c-11.827,9.522-19.202,23.007-19.202,37.962c0,28.844,27.451,52.229,61.315,52.229
				c33.867,0,61.322-23.385,61.322-52.229c0-5.57-1.026-10.939-2.923-15.971L119.139,147.042z"/>
		</g>
		<g>
			<path fill="#C3E5F2" d="M161.252,239.544c-35.085,0-63.623-24.47-63.623-54.54c0-15,7.312-29.493,20.062-39.76l0.86-0.694
				l102.819,22.494l0.442,1.173c2.035,5.406,3.068,11.054,3.068,16.787C224.882,215.074,196.337,239.544,161.252,239.544z
				 M119.736,149.536c-11.293,9.451-17.493,22.007-17.493,35.469c0,27.527,26.471,49.918,59.009,49.918
				c32.537,0,59.011-22.391,59.011-49.918c0-4.765-0.788-9.463-2.35-13.989L119.736,149.536z"/>
		</g>
	</g>
	<g>
		<g>
			<path fill="#DEF2FD" d="M379.392,147.042c11.823,9.522,19.201,23.007,19.201,37.962c0,28.844-27.455,52.229-61.317,52.229
				c-33.864,0-61.319-23.385-61.319-52.229c0-5.57,1.026-10.939,2.92-15.971L379.392,147.042z"/>
		</g>
		<g>
			<path fill="#C3E5F2" d="M337.274,239.544c-35.087,0-63.628-24.47-63.628-54.54c0-5.733,1.035-11.381,3.069-16.787l0.438-1.173
				l102.823-22.494l0.86,0.694c12.751,10.267,20.062,24.76,20.062,39.76C400.9,215.074,372.359,239.544,337.274,239.544z
				 M280.611,171.015c-1.561,4.526-2.346,9.224-2.346,13.989c0,27.527,26.472,49.918,59.009,49.918
				c32.536,0,59.011-22.391,59.011-49.918c0-13.462-6.203-26.018-17.492-35.469L280.611,171.015z"/>
		</g>
	</g>
	<g>
		<path fill="#010101" d="M346.076,183.59c0,12.095-13.03,21.901-29.108,21.901c-16.073,0-29.104-9.806-29.104-21.901
			c0-12.098,13.03-21.9,29.104-21.9C333.046,161.69,346.076,171.493,346.076,183.59z"/>
	</g>
	<g>
		<path fill="#010101" d="M148.49,183.59c0,12.095,13.033,21.901,29.111,21.901c16.073,0,29.101-9.806,29.101-21.901
			c0-12.098-13.027-21.9-29.101-21.9C161.523,161.69,148.49,171.493,148.49,183.59z"/>
	</g>
	<g>
		<path fill="#F3F3F3" d="M201.22,181.034c0,3.667-3.361,6.637-7.502,6.637c-4.147,0-7.503-2.97-7.503-6.637
			s3.355-6.637,7.503-6.637C197.858,174.396,201.22,177.367,201.22,181.034z"/>
	</g>
	<g>
		<g>
			<path fill="#4D1E0B" d="M224.015,163.074c0,0-11.541,7.502-36.069-8.656c-24.528-16.159-95.802-47.544-107.346-15.294
				c-3.461,11.971-1.04,22.566,11.544,19.045c4.923-1.378,30.3-8.352,64.635,6.645c34.342,14.998,55.406,17.611,70.7,0
				C229.496,159.968,224.015,163.074,224.015,163.074z"/>
		</g>
		<g>
			<path fill="#4D1E0B" d="M200.633,179.369L200.633,179.369c-11.268,0-25.077-3.836-44.774-12.439
				c-14.085-6.152-28.248-9.272-42.088-9.272c-7.457,0-14.521,0.922-21.004,2.734c-5.967,1.672-10.648,0.556-13.37-3.065
				c-3.008-4.002-3.369-10.696-1.013-18.843c3.73-10.443,12.988-15.667,27.555-15.667c26.082,0,65.112,17.706,83.278,29.672
				c12.562,8.279,21.403,10.015,26.608,10.015c4.636,0,6.937-1.368,6.961-1.383c0.62-0.354,2.478-1.334,4.119-1.334
				c1.61,0,2.435,0.873,2.782,1.396c0.994,1.494,0.432,3.292-0.078,4.521c-0.099,0.227-0.227,0.438-0.389,0.625
				C221.597,175.102,212.247,179.369,200.633,179.369z M113.771,153.042c14.481,0,29.263,3.249,43.936,9.656
				c19.085,8.335,32.324,12.054,42.927,12.054l0,0c9.074,0,16.328-2.801,22.558-8.77c-1.547,0.546-3.999,1.14-7.361,1.14
				c-5.839,0-15.635-1.869-29.153-10.776c-17.695-11.661-55.597-28.913-80.737-28.913c-12.408,0-20.204,4.194-23.166,12.468
				c-1.841,6.39-1.741,11.917,0.312,14.653c1.564,2.079,4.423,2.512,8.438,1.391C98.411,154.018,105.896,153.042,113.771,153.042z"
				/>
		</g>
	</g>
	<g>
		<g>
			<path fill="#F3F3F3" d="M236.062,332.4c0,0-11.35,2.724-38.699-8.424c-27.349-11.143-57.96,7.58-57.999,34.137
				c-0.038,26.555,12.988,63.729,53.25,56.256c40.267-7.469,56.567-5.551,85.334-1.432c28.769,4.111,59.221-16.908,64.929-50.4
				c5.701-33.5-10.248-48.676-57.581-41.327C253.32,326.17,254.463,331.479,236.062,332.4z"/>
		</g>
		<g>
			<path fill="#4C230D" d="M182.549,418.811c-11.721,0-21.644-3.99-29.494-11.854c-10.772-10.779-17.185-29.046-17.155-48.85
				c0.035-22.539,20.136-40.871,44.806-40.871c6.161,0,12.209,1.189,17.967,3.541c25.855,10.531,36.597,8.254,36.629,8.244
				c0.177-0.033,0.402-0.069,0.587-0.076c8.465-0.426,12.503-1.812,18.095-3.737c6.264-2.151,14.06-4.827,30.781-7.425
				c28.15-4.366,46.122-1.11,55.528,10.044c6.724,7.955,8.685,19.505,5.995,35.29c-5.224,30.668-31.49,53.792-61.104,53.792
				c-2.586,0-5.188-0.185-7.731-0.546c-15.172-2.174-26.065-3.596-38.656-3.596c-12.843,0-26.893,1.549-45.55,5.01
				C189.56,418.466,185.961,418.811,182.549,418.811z M180.705,324.167c-20.505,0-37.853,15.542-37.88,33.944
				c-0.025,18.015,5.63,34.44,15.128,43.953c8.482,8.494,19.999,11.502,34.031,8.903c19.089-3.546,33.527-5.122,46.812-5.122
				c13.052,0,24.167,1.45,39.64,3.658c2.219,0.316,4.486,0.48,6.748,0.48c26.279,0,49.612-20.646,54.276-48.037
				c2.325-13.646,0.867-23.35-4.459-29.655c-7.583-8.981-24.121-11.56-49.176-7.666c-16.113,2.507-23.591,5.074-29.597,7.136
				c-5.844,2.004-10.47,3.588-19.741,4.082c-0.647,0.12-2.045,0.312-4.265,0.312c-6.458,0-17.975-1.559-36.167-8.969
				C191.135,325.18,185.972,324.167,180.705,324.167z"/>
		</g>
	</g>
	<g>
		<ellipse fill="#F3F3F3" cx="304.233" cy="178.436" rx="7.5" ry="6.637"/>
	</g>
	<g>
		<g>
			<path fill="#4D1E0B" d="M265.396,163.074c0,0,11.543,7.502,36.071-8.656c24.523-16.159,95.686-44.081,107.343-15.294
				c5.69,18.62-3.868,20.845-11.545,19.045c-4.979-1.168-30.296-8.352-64.635,6.645c-34.338,14.998-55.404,17.611-70.699,0
				C260.083,160.256,265.396,163.074,265.396,163.074z"/>
		</g>
		<g>
			<path fill="#4D1E0B" d="M288.777,179.369c-11.615,0-20.967-4.264-28.588-13.041c-0.164-0.191-0.301-0.411-0.396-0.648
				c-0.271-0.674-1.104-2.727-0.003-4.369c0.354-0.525,1.196-1.406,2.845-1.406c1.59,0,3.34,0.865,3.844,1.13
				c0.17,0.101,2.471,1.468,7.105,1.468c5.203,0,14.047-1.736,26.613-10.015c17.902-11.795,56.862-28.138,83.438-28.138
				c14.39,0,23.575,4.68,27.313,13.906c2.633,8.575,2.482,14.781-0.369,18.636c-2.714,3.664-7.849,4.93-13.837,3.522l-0.75-0.18
				c-3.071-0.749-10.268-2.5-20.593-2.5c-13.8,0-27.881,3.095-41.846,9.194C313.857,175.532,300.048,179.369,288.777,179.369z
				 M266.216,165.974c6.226,5.973,13.487,8.778,22.562,8.778c10.603,0,23.842-3.718,42.931-12.054
				c14.553-6.356,29.253-9.578,43.692-9.578c10.882,0,18.45,1.843,21.687,2.629l0.707,0.172c4.119,0.968,7.499,0.357,9.074-1.775
				c1.331-1.797,2.364-5.745-0.267-14.348c-2.891-7.123-10.646-10.83-22.967-10.83c-25.332,0-63.914,16.188-80.899,27.377
				c-13.52,8.906-23.314,10.776-29.15,10.776C270.229,167.122,267.775,166.533,266.216,165.974z"/>
		</g>
	</g>
</g>
</svg>
