<?xml version="1.0" encoding="utf-8"?>
<!-- Generator: Adobe Illustrator 16.0.0, SVG Export Plug-In . SVG Version: 6.00 Build 0)  -->
<!DOCTYPE svg PUBLIC "-//W3C//DTD SVG 1.1//EN" "http://www.w3.org/Graphics/SVG/1.1/DTD/svg11.dtd">
<svg version="1.1" id="Layer_1" xmlns="http://www.w3.org/2000/svg" xmlns:xlink="http://www.w3.org/1999/xlink" x="0px" y="0px"
	 width="500px" height="500px" viewBox="0 0 500 500" enable-background="new 0 0 500 500" xml:space="preserve">
<g id="Layer_1_copy_58">
	<polyline fill="#676665" points="295.182,141.922 329.927,258.564 291.443,258.564 268.166,198.896 	"/>
	<polygon fill="#27140E" points="334.189,261.743 289.275,261.743 265.206,200.051 271.123,197.74 293.616,255.386 325.662,255.386 
		292.136,142.829 298.229,141.015 	"/>
	<polygon fill="#8F8F8E" points="322.824,73.56 297.789,95.942 316.46,145.477 368.91,136.074 338.58,93.426 	"/>
	<polygon fill="#676665" points="134.274,228.458 144.127,258.564 178.06,258.564 168.551,204.239 158.061,177.789 122.831,187.858 
			"/>
	<path fill="#27140E" d="M178.06,261.743h-33.933c-1.375,0-2.593-0.882-3.021-2.194l-9.853-30.099l-11.484-40.728
		c-0.475-1.689,0.505-3.435,2.188-3.921l35.23-10.064c1.568-0.446,3.223,0.365,3.829,1.879l10.489,26.45
		c0.076,0.2,0.139,0.409,0.175,0.625l9.513,54.323c0.157,0.926-0.098,1.873-0.698,2.601
		C179.889,261.323,178.999,261.743,178.06,261.743z M146.432,255.386h27.844l-8.804-50.284l-9.304-23.462l-29.417,8.401
		l10.585,37.557L146.432,255.386z"/>
	
		<path fill="#8F8F8E" stroke="#211010" stroke-width="6.3572" stroke-linecap="round" stroke-linejoin="round" stroke-miterlimit="10" d="
		M271.893,208.657"/>
	<path fill="#8F8F8E" d="M282.669,166.023l-23.918,92.542h-34.759v-65.381c-27.313,17.793-74.898,9.099-74.898,9.099l-31.862,56.282
		H80.814c0,0,14.896-105.935,24-137.8c9.107-31.861,33.228-39.367,62.072-49.655c28.853-10.286,88.973-19.036,88.973-19.036
		l47.588,117.521"/>
	<path fill="#27140E" d="M258.751,261.743h-34.759c-1.755,0-3.179-1.429-3.179-3.179v-59.877
		c-24.979,12.809-60.696,8.521-70.044,7.096l-30.776,54.348c-0.562,0.994-1.617,1.612-2.762,1.612H80.814
		c-0.921,0-1.795-0.397-2.397-1.093c-0.601-0.699-0.878-1.625-0.75-2.531c0.61-4.334,15.03-106.519,24.091-138.225
		c9.229-32.298,33.215-40.815,60.985-50.681l3.075-1.096c28.82-10.281,87.114-18.83,89.579-19.19c1.431-0.221,2.854,0.6,3.4,1.955
		l47.597,117.519c0.654,1.627-0.128,3.481-1.751,4.143c-1.646,0.655-3.481-0.128-4.141-1.755L253.85,55.593
		c-11.571,1.764-60.959,9.618-85.895,18.511l-3.087,1.101c-27.189,9.659-48.669,17.286-56.996,46.437
		c-7.99,27.971-20.686,114.891-23.396,133.744h30.9l30.951-54.669c0.67-1.174,2.005-1.803,3.336-1.555
		c0.46,0.081,46.683,8.24,72.59-8.646c0.98-0.637,2.224-0.684,3.253-0.128c1.023,0.552,1.663,1.628,1.663,2.794v62.203h29.12
		l23.309-90.16c0.438-1.697,2.16-2.721,3.873-2.282c1.696,0.439,2.717,2.176,2.281,3.873l-23.923,92.542
		C261.465,260.759,260.199,261.743,258.751,261.743z"/>
	<path fill="#8F8F8E" d="M309.236,72.764c0,0,66.617,97.246-5.789,96.829c-72.423-0.41-79.042-110.9-36.008-122.07
		c43.036-11.171,73.242,4.55,73.242,4.55s31.865,6.62,50.485,52.139c18.622,45.523,43.036,109.661-13.652,120.417
		c-43.858,3.314-23.174-40.552-23.174-40.552l11.586,3.309c0,0-9.102,19.041,2.485,20.697c11.581,1.653,39.761-9.004,9.559-53.693"
		/>
	<path fill="#27140E" d="M373.005,227.99c-10.88,0-18.57-3.182-22.901-9.469c-9.106-13.232,0.934-34.883,1.364-35.797
		c0.665-1.409,2.253-2.128,3.745-1.697l11.59,3.31c0.899,0.252,1.639,0.892,2.025,1.745c0.382,0.855,0.374,1.835-0.032,2.677
		c-2.018,4.257-4.14,11.62-2.509,14.658c0.312,0.578,0.882,1.273,2.571,1.514c4.369,0.637,12.861-0.878,17.05-7.571
		c3.789-6.053,5.029-18.111-10.573-41.185c-0.979-1.456-0.596-3.43,0.859-4.415c1.447-0.987,3.431-0.604,4.409,0.853
		c17.514,25.912,15.482,40.464,10.691,48.119c-5.83,9.315-17.138,11.374-23.341,10.493c-4.206-0.599-6.279-2.947-7.278-4.809
		c-2.695-5.033-0.674-12.545,0.951-16.949l-5.438-1.558c-2.135,5.534-6.369,19.003-0.844,27.017
		c3.545,5.139,10.866,7.336,21.751,6.55c13.604-2.619,22.676-8.419,27.74-17.731c13.463-24.804-5.361-70.831-16.611-98.325
		c-17.773-43.455-47.89-50.173-48.188-50.235c-0.289-0.057-0.562-0.158-0.815-0.289c-0.292-0.154-29.752-14.998-70.984-4.297
		c-19.569,5.079-26.744,32.249-23.725,56.458c3.397,27.243,20.876,59.142,58.949,59.362c0.15,0,0.296,0,0.438,0
		c14.089,0,23.312-3.924,27.42-11.671c13.042-24.555-24.325-79.631-24.706-80.186c-0.986-1.449-0.623-3.429,0.831-4.418
		c1.439-0.995,3.426-0.624,4.414,0.826c1.63,2.387,39.907,58.817,25.086,86.756c-5.353,10.086-16.689,15.097-33.521,15.05
		c-42.194-0.245-61.504-35.129-65.224-64.93c-3.361-26.964,5.324-57.398,28.447-63.399c41.623-10.81,71.278,2.727,75.127,4.615
		c4.166,1.015,34.262,9.757,52.333,53.951c15.8,38.61,30.065,78.431,16.312,103.765c-5.967,10.983-16.836,18.035-32.312,20.971
		c-0.117,0.026-0.238,0.044-0.354,0.048C376.11,227.924,374.527,227.99,373.005,227.99z"/>
	<path fill="#8F8F8E" d="M367.582,129.458c0,0,28.556,14.896,93.935,0c-65.791,49.242-124.39,10.354-124.39,10.354"/>
	<path fill="#27140E" d="M391.432,157.415c-32.907,0.003-55.688-14.71-56.057-14.958c-1.47-0.966-1.861-2.933-0.896-4.396
		c0.968-1.463,2.938-1.865,4.404-0.904c2.158,1.43,50.029,32.159,107.455-1.411c-54.603,9.421-79.121-2.894-80.227-3.467
		c-1.559-0.812-2.162-2.736-1.347-4.293c0.81-1.551,2.729-2.159,4.275-1.35c0.391,0.201,28.734,14.084,91.773-0.278
		c1.459-0.333,2.953,0.406,3.587,1.763c0.63,1.364,0.217,2.981-0.983,3.884C437.43,151.453,412.377,157.415,391.432,157.415z"/>
	<path fill="#676665" d="M364.271,95.942c0,2.738-2.225,4.964-4.963,4.964c-2.739,0-4.968-2.226-4.968-4.964
		c0-2.747,2.229-4.974,4.968-4.974S364.271,93.195,364.271,95.942z"/>
	<path fill="#27140E" d="M359.31,103.021c-3.905,0-7.085-3.176-7.085-7.079c0-3.909,3.18-7.089,7.085-7.089
		c3.901,0,7.08,3.18,7.08,7.089C366.39,99.845,363.211,103.021,359.31,103.021z M359.31,93.091c-1.572,0-2.847,1.275-2.847,2.851
		c0,1.564,1.273,2.843,2.847,2.843c1.568,0,2.842-1.279,2.842-2.843C362.15,94.366,360.878,93.091,359.31,93.091z"/>
	<path fill="#E8B22C" d="M454.859,285.995c0,0,7.854,5.084,7.739,10.416c-0.117,5.336,12.17,16.235,12.17,16.235
		s3.248,4.641-1.506,8.578c1.043,6.728-6.495,8.932-6.495,8.932s-13.565,7.072-18.783-4.059c-2.242-0.117-4.407,1.246-4.407,1.246
		l-11.706-28.029l11.361-20.758L454.859,285.995z"/>
	<path fill="#27140E" d="M457.867,334.227c-4.869,0-8.633-2.131-10.955-6.182c-1.104,0.203-2.033,0.676-2.34,0.863
		c-0.465,0.294-1.035,0.369-1.551,0.201c-0.522-0.166-0.94-0.545-1.151-1.049l-11.715-28.041c-0.217-0.513-0.188-1.108,0.088-1.605
		l11.362-20.752c0.245-0.441,0.666-0.779,1.164-0.902c0.5-0.132,1.029-0.045,1.463,0.237l11.625,7.438
		c0.903,0.582,8.729,5.826,8.593,12.018c-0.066,3.083,6.715,10.515,11.556,14.805c0.104,0.096,0.201,0.204,0.283,0.326
		c1.381,1.968,2.789,6.527-1.086,10.38c0.312,5.826-4.741,8.981-7.74,9.927C466.579,332.318,462.441,334.227,457.867,334.227z
		 M447.714,324.23l0.361,0.013c0.688,0.032,1.303,0.446,1.592,1.062c1.638,3.51,4.327,5.211,8.2,5.211c4.149,0,8.002-1.99,8.045-2
		c0.109-0.062,0.22-0.104,0.338-0.141c0.24-0.068,5.956-1.854,5.181-6.863c-0.099-0.646,0.146-1.291,0.647-1.717
		c3.032-2.508,1.72-5.2,1.276-5.924c-2.526-2.262-12.742-11.76-12.617-17.505c0.081-3.507-4.941-7.552-6.888-8.813l-9.943-6.359
		l-9.983,18.229l10.624,25.418C445.432,324.514,446.539,324.23,447.714,324.23z"/>
	<path fill="#F3F3F3" d="M354.255,385.117c0,0,3.409-4.791,0.626-23.963c-2.788-19.17-0.626-33.811-0.626-33.811"/>
	<path fill="#211010" d="M354.255,386.975c-0.373,0-0.747-0.115-1.072-0.344c-0.821-0.585-1.02-1.713-0.472-2.545
		c0.113-0.197,2.864-5.217,0.333-22.67c-2.794-19.219-0.713-33.73-0.619-34.344c0.147-1.008,1.092-1.727,2.102-1.562
		c1.02,0.146,1.718,1.089,1.561,2.104c-0.017,0.143-2.079,14.617,0.626,33.268c2.812,19.355-0.552,24.762-0.938,25.309
		C355.403,386.705,354.836,386.975,354.255,386.975z"/>
	<path fill="#CA972B" d="M362.162,398.979c0,0-5.121,20.621-6.818,26.331c-1.703,5.722-3.716,21.023,4.787,23.342
		c8.505,2.318,9.586,7.469,8.351,8.659c-1.239,1.209-17.312,0-17.312,0s-5.104,1.341-6.188-2.339
		c-1.083-3.687-3.245-10.489-3.245-10.489l-1.087-62.152l4.023-10.898l13.221,0.93L362.162,398.979"/>
	<path fill="#27140E" d="M363.441,459.698c-4.631,0-10.749-0.409-12.136-0.515c-0.436,0.096-1.238,0.229-2.18,0.229
		c-3.036,0-5.192-1.427-5.925-3.914c-1.063-3.628-3.211-10.387-3.236-10.453c-0.056-0.169-0.08-0.359-0.084-0.527l-1.082-62.15
		c-0.009-0.234,0.031-0.46,0.115-0.675l4.017-10.903c0.285-0.769,1.027-1.282,1.876-1.208l13.219,0.938
		c0.854,0.051,1.562,0.693,1.699,1.551l4.262,26.609c0.041,0.256,0.028,0.497-0.025,0.739c-0.217,0.849-5.148,20.729-6.84,26.42
		c-1.451,4.872-2.357,13.76,0.158,18.28c0.812,1.454,1.904,2.354,3.342,2.75c7.929,2.165,9.631,6.546,9.96,7.841
		c0.414,1.586,0.103,3.05-0.812,3.942C369.048,459.345,367.87,459.698,363.441,459.698z M351.175,455.461c0.04,0,0.089,0,0.128,0
		c0.073,0.008,7.144,0.527,12.14,0.527c1.992,0,3.051-0.08,3.592-0.154c-0.041-0.241-0.141-0.584-0.381-1.018
		c-0.481-0.869-2.146-3.042-7.007-4.373c-2.422-0.652-4.31-2.181-5.617-4.526c-3.607-6.489-1.559-17.463-0.467-21.133
		c1.55-5.193,6.008-23.103,6.701-25.896l-3.969-24.781l-10.36-0.73l-3.424,9.268l1.079,61.538c0.398,1.278,2.221,7.01,3.171,10.27
		c0.11,0.375,0.369,1.252,2.366,1.252c0.855,0,1.566-0.182,1.572-0.182C350.854,455.485,351.014,455.461,351.175,455.461z"/>
	<path fill="#CA972B" d="M241.652,392.096c0,0-15.406,17.905-24.84,23.019c-9.429,5.1-6.795,27.205-6.795,27.205
		s12.983,1.343,8.035,12.652c0,0-17.625,0.175-17.625-4.771c0-8.346,1.548-19.019-2.937-22.258
		c-4.484-3.249,9.505-19.721,12.91-22.192c-0.461-77.452,8.624-84.332,8.624-84.332"/>
	<path fill="#27140E" d="M217.525,456.831c-3.303,0-14.198-0.271-17.668-3.702c-0.842-0.833-1.28-1.843-1.28-2.927
		c0-1.71,0.06-3.52,0.124-5.338c0.224-6.284,0.476-13.408-2.296-15.419c-0.75-0.543-1.646-1.588-1.646-3.484
		c-0.003-5.932,9.934-17.671,13.78-21.079c-0.379-75.372,8.36-84.183,9.363-84.944c0.815-0.615,1.983-0.451,2.597,0.359
		c0.618,0.824,0.457,1.982-0.354,2.604c-0.23,0.257-8.327,9.433-7.889,82.845c0.003,0.592-0.282,1.153-0.765,1.508
		c-2.754,2.004-13.023,14.167-13.02,18.701c0,0.097,0.004,0.41,0.109,0.482c4.374,3.176,4.1,10.995,3.834,18.559
		c-0.067,1.775-0.129,3.541-0.129,5.207c0,0.09,0.113,0.214,0.182,0.285c1.774,1.756,9.037,2.562,14.319,2.627
		c0.735-2.145,0.71-3.92-0.088-5.296c-1.777-3.064-6.827-3.649-6.88-3.657c-0.859-0.088-1.542-0.761-1.646-1.617
		c-0.115-0.957-2.657-23.428,7.758-29.067c9.026-4.888,24.169-22.42,24.318-22.596c0.673-0.775,1.843-0.869,2.619-0.188
		c0.771,0.664,0.862,1.834,0.201,2.608c-0.646,0.748-15.753,18.237-25.372,23.444c-6.348,3.424-6.539,17.387-5.979,23.992
		c2.196,0.489,6.21,1.83,8.185,5.207c1.562,2.686,1.51,5.969-0.149,9.766c-0.293,0.674-0.952,1.111-1.68,1.12
		C217.929,456.831,217.742,456.831,217.525,456.831z"/>
	<path fill="#E8B22C" d="M224.855,310.598c0,0-21.651,7.428-15.768,70.342c0,0,3.526,22.802-12.785,39.426
		c-15.12,0.694-18.755,41.045-12.417,36.172c6.338-4.864,13.605-28.593,13.605-28.593s24.12-25.513,18.555-50.404
		c-5.568-24.89,4.944-48.546,4.944-48.546"/>
	<path fill="#27140E" d="M182.887,458.805c-0.555,0-1.097-0.169-1.582-0.489c-3.629-2.457-2.229-14.558-0.144-21.958
		c1.777-6.299,5.969-16.803,14.296-17.793c14.896-15.68,11.828-37.127,11.791-37.338c-5.957-63.754,16.063-72.062,17.007-72.381
		c0.967-0.34,2.022,0.184,2.352,1.15c0.333,0.963-0.171,2.005-1.126,2.345c-0.345,0.138-20.155,8.442-14.549,68.431
		c0.139,0.856,3.468,23.803-13.298,40.89c-0.332,0.336-0.775,0.533-1.244,0.557c-4.644,0.22-7.808,5.268-9.65,9.464
		c-4.038,9.219-4.525,20.058-3.569,23.013c4.812-4.513,10.639-21.078,12.551-27.3c0.08-0.269,0.227-0.518,0.416-0.729
		c0.242-0.251,23.379-25.098,18.095-48.725c-5.638-25.196,4.629-48.705,5.068-49.697c0.417-0.938,1.503-1.357,2.442-0.942
		c0.937,0.421,1.361,1.513,0.944,2.443c-0.103,0.231-10.196,23.416-4.832,47.386c5.435,24.335-15.781,48.554-18.71,51.764
		c-1.212,3.871-7.783,24.242-14.125,29.122C184.336,458.534,183.601,458.805,182.887,458.805z"/>
	<path fill="#E8B22C" d="M347.854,296.542c0,0-11.835,10.653-54.818,2.458c0,0-40.041-12.674-63.696,6.959
		c-23.654,19.637,0.771,57.667,0.771,57.667s16.853,35.871,15.921,49.008c-0.925,13.146-3.552,16.23,4.798,22.574
		c8.347,6.342,20.719,16.698,20.719,16.698s3.091,5.26,13.444,2.011c4.642,2.32,7.117-1.396,7.117-1.396s5.72,1.084,3.244-5.404
		c-2.473-6.497-4.326-6.812-9.435-5.882c-5.099,0.93-7.106,2.012-12.053-2.935c-4.953-4.952-12.526-8.507-7.425-26.289
		c5.104-17.781,16.08-29.367,11.598-46.373c17.777,25.353,40.509,17.307,40.509,17.307s24.112-4.938,35.706,2.172
		c-1.231,9.734,11.447,16.076,11.447,16.076l39.255,30.611c0,0,4.958,2.779,4.188,6.184c-0.774,3.399,7.573,2.939,7.573,2.939
		s19.785,12.678,21.026,3.401c1.238-9.275-3.248-8.815-9.121-11.756c-5.874-2.925-10.822-5.874-11.291-8.96
		c-0.464-3.094-8.346-10.826-8.346-10.826L398.603,398.4l-4.926-82.697l-31.068-24.744L347.854,296.542z"/>
	<path fill="#27140E" d="M278.822,456.831c-5.42,0-7.93-2.699-8.649-3.651c-1.573-1.309-12.797-10.679-20.471-16.493
		c-7.511-5.706-7.062-9.634-6.173-17.46c0.223-1.933,0.471-4.125,0.654-6.724c0.863-12.179-14.727-45.894-15.701-47.991
		c-1.477-2.369-24.302-40.078-0.328-59.974c9.124-7.575,21.513-11.419,36.833-11.419c14.863,0,27.138,3.665,28.502,4.083
		c10.625,2.021,20.232,3.039,28.562,3.039c18.43,0,24.521-5.05,24.585-5.097c0.156-0.139,0.362-0.268,0.57-0.344l14.741-5.576
		c0.607-0.225,1.3-0.117,1.813,0.291l31.077,24.73c0.406,0.327,0.658,0.816,0.695,1.342l4.89,82.161l9.974,13.823
		c2.078,2.051,8.266,8.393,8.773,11.756c0.396,2.647,7.574,6.24,10.277,7.586c1.057,0.525,2.062,0.944,3.039,1.345
		c4.264,1.734,8.287,3.373,7.092,12.312c-0.425,3.179-2.641,5.001-6.086,5.001c-5.913,0-15.039-5.391-17.281-6.78
		c-0.138,0.007-0.296,0.017-0.472,0.017c-3.95,0-6.559-0.769-7.757-2.263c-0.667-0.833-0.896-1.886-0.651-2.968
		c0.348-1.53-2.065-3.461-3.291-4.162c-0.081-0.045-0.161-0.088-0.23-0.155l-39.114-30.493c-1.604-0.832-12.629-6.973-12.376-16.61
		c-3.843-2.015-9.39-3.021-16.499-3.021c-8.255,0-15.824,1.416-16.803,1.614c-0.734,0.241-4.18,1.267-9.12,1.267
		c-7.89,0-18.88-2.553-28.988-13.767c0.375,8.925-3.063,16.64-6.656,24.724c-2.165,4.863-4.403,9.89-6.026,15.553
		c-4.134,14.395,0.449,18.534,4.887,22.535c0.709,0.638,1.408,1.266,2.062,1.932c2.651,2.646,4.104,3.182,5.581,3.182
		c0.929,0,1.979-0.205,3.31-0.467c0.476-0.098,0.988-0.198,1.523-0.295c1.189-0.226,2.451-0.416,3.611-0.416
		c4.216,0,6.086,2.735,7.882,7.462c0.99,2.595,0.987,4.651-0.019,6.105c-0.847,1.229-2.306,1.911-4.166,1.881
		c-1.019,1.01-2.729,2.092-4.967,2.092c-1.003,0-2.029-0.219-3.072-0.643C282.703,456.516,280.673,456.831,278.822,456.831z
		 M264.986,296.835c-14.432,0-26.024,3.551-34.462,10.55c-22.108,18.357,0.915,54.873,1.151,55.239
		c0.04,0.067,0.08,0.146,0.114,0.212c0.698,1.482,17.046,36.457,16.096,49.932c-0.19,2.67-0.442,4.914-0.669,6.881
		c-0.863,7.607-1.098,9.648,4.735,14.08c8.283,6.291,20.656,16.649,20.783,16.751c0.158,0.141,0.301,0.302,0.41,0.483
		c0.037,0.051,1.448,2.158,5.676,2.158c1.673,0,3.556-0.329,5.619-0.973c0.455-0.147,0.955-0.111,1.386,0.109
		c0.75,0.372,1.463,0.562,2.106,0.562c1.674,0,2.604-1.286,2.644-1.354c0.418-0.592,1.168-0.907,1.872-0.767
		c0.035,0.007,0.238,0.035,0.517,0.035c0.586,0,0.955-0.146,1.043-0.276c0.153-0.221,0.241-1.033-0.392-2.687
		c-1.797-4.732-2.867-5.068-4.414-5.068c-0.874,0-1.979,0.183-2.948,0.353c-0.522,0.103-1.005,0.195-1.463,0.292
		c-1.476,0.278-2.75,0.541-4.033,0.541c-2.831,0-5.129-1.208-8.203-4.279c-0.616-0.607-1.266-1.198-1.928-1.8
		c-4.784-4.313-10.729-9.69-5.97-26.302c1.697-5.919,3.99-11.062,6.207-16.05c4.422-9.935,8.236-18.515,5.38-29.354
		c-0.228-0.861,0.198-1.775,1.014-2.158c0.812-0.371,1.78-0.116,2.304,0.623c10.273,14.664,22.167,17.736,30.338,17.736
		c4.803,0,8.002-1.096,8.027-1.104c0.079-0.027,0.164-0.051,0.244-0.064c0.341-0.072,8.456-1.718,17.65-1.718
		c8.432,0,14.959,1.382,19.405,4.108c0.622,0.39,0.964,1.098,0.871,1.822c-1.054,8.301,10.32,14.133,10.435,14.189
		c0.111,0.051,0.212,0.117,0.311,0.191l39.146,30.53c1.029,0.604,5.892,3.715,4.984,8.043c0.412,0.295,1.913,0.793,4.77,0.793
		c0.511,0,0.853-0.029,0.877-0.029c0.392-0.016,0.771,0.088,1.098,0.292c2.827,1.814,11.171,6.502,15.778,6.502
		c2.004,0,2.286-0.84,2.41-1.783c0.812-6.093-0.722-6.716-4.82-8.392c-0.987-0.409-2.11-0.862-3.292-1.454
		c-7.171-3.584-11.723-6.562-12.293-10.351c-0.219-1.479-4.22-6.246-7.807-9.774c-0.077-0.069-0.15-0.15-0.214-0.23l-10.384-14.388
		c-0.204-0.286-0.324-0.632-0.348-0.981l-4.867-81.875l-29.605-23.562l-13.488,5.099c-1.532,1.166-8.767,5.784-26.734,5.784
		c-8.587,0-18.474-1.053-29.364-3.135c-0.072-0.014-0.143-0.024-0.211-0.051C292.352,300.73,279.824,296.835,264.986,296.835z"/>
	<path fill="#C87229" d="M446.554,271.329l16.078,12.364c0,0,3.56,3.56-1.701,2.941l-5.745-1.854c0,0,0.184,4.172-6.002,0.613
		c-6.182-3.556,6.808,8.043,0.93,5.264c-0.778-0.566-9.433-2.321-10.052-4.021l-1.237,4.454c0,0,6.647,4.978,6.807,19.046
		c0.155,14.069,0.155,33.705,0.155,33.705s3.559,8.809-3.56,2.159c-7.111-6.644-5.411-8.495-5.411-8.495s-2.009,21.639-4.483,13.137
		c-2.473-8.508-2.473-8.508-2.473-8.508s0.152,20.41,2.162,21.024c2.015,0.62,0.932,5.882-4.327,0
		c-5.261-5.868-4.479-6.954-4.479-6.954l1.854,17.005c0,0,0.924,5.728-5.101-1.544l-2.321-2.633c0,0-6.186,18.863-14.998,22.578
		c-0.771,4.785-0.927,5.566-2.94,2.936c-2.008-2.626-2.158-2.936-2.158-2.936s3.548,11.746-1.86,5.566
		c-5.402-6.188-13.6-28.607-11.591-34.949c-5.26-0.769-9.735-14.371-8.192-20.865c1.536-6.495-0.312-7.271-0.312-7.271
		s-2.633,8.757-4.79,1.056c-2.169-7.697-1.857-8.475-1.857-8.475s-7.421,6.961-8.196,2.786c1.086-1.086,6.652-16.387,6.652-16.387
		s-7.577,7.72-4.173-15.152c-2.479-1.547-10.677-0.157-10.677-0.157s-9.579,6.188-5.407-0.15
		c4.175-6.342,9.125-13.293,23.502-14.228c-4.949-2.007,3.863-4.633,3.863-4.633s22.882-10.826,26.899-10.203
		c2.631-4.022,8.347-3.249,12.831-1.243c0,0-0.615-7.883,4.638-11.595c0.775,11.595,14.385,10.052,16.081,4.642
		c0.713-1.676,7.117-6.496,6.495-2.322c-0.619,4.18-1.087,4.023-1.087,4.023s7.426-5.878,7.268-2.474
		c-0.152,3.401-0.152,4.791-0.152,4.791s18.399,2.168,8.19,4.178C445.472,270.557,446.554,271.329,446.554,271.329z"/>
	<path fill="#27140E" d="M398.021,400.831c-1.135,0-2.217-0.705-3.728-2.438c-5.055-5.771-13.026-26.225-12.297-34.929
		c-1.275-0.672-2.494-1.851-3.631-3.524c-3.526-5.209-5.481-13.914-4.269-19.004c0.106-0.451,0.192-0.855,0.264-1.24
		c-0.453,0.307-0.968,0.479-1.536,0.479c-2.538,0-3.463-3.28-3.812-4.521c-0.666-2.361-1.11-4.127-1.407-5.448
		c-1.661,1.229-3.741,2.442-5.436,2.442c-1.676,0-2.918-1.09-3.248-2.849c-0.108-0.604,0.083-1.222,0.518-1.649
		c0.512-0.75,2.684-6.215,4.852-12.021c-0.807-0.139-1.528-0.561-2.102-1.225c-1.179-1.369-2.531-4.496-1.021-15.717
		c-0.485-0.078-1.186-0.143-2.153-0.143c-2.308,0-4.864,0.354-5.789,0.492c-1.555,0.984-4.667,2.788-6.491,2.788
		c-0.98,0-1.788-0.449-2.209-1.232c-0.75-1.39,0.068-2.979,1.069-4.502c3.617-5.5,8.481-12.878,21.693-14.729
		c0.131-2.387,3.604-3.951,6.553-4.848c2.692-1.27,20.852-9.759,26.642-10.318c1.615-1.891,3.985-2.889,6.919-2.889
		c1.799,0,3.541,0.369,5.056,0.842c0.284-2.991,1.389-7.651,5.354-10.449c0.549-0.385,1.267-0.446,1.868-0.161
		c0.607,0.289,1.003,0.885,1.056,1.555c0.431,6.511,5.373,7.019,6.879,7.019c2.633,0,5.08-1.235,5.577-2.814
		c0.845-1.998,4.815-5.273,7.354-5.273c0.849,0,1.595,0.324,2.105,0.918c0.52,0.604,0.75,1.4,0.688,2.381
		c1.247-0.686,2.458-1.155,3.427-1.155c1.007,0,1.64,0.438,1.986,0.804c0.365,0.385,0.789,1.076,0.738,2.198
		c-0.057,1.319-0.1,2.33-0.12,3.072c11.128,1.459,11.189,3.159,11.241,4.418c0.091,2.294-2.834,2.866-4.574,3.207
		c-2.839,0.56-4.711,1.011-5.947,1.351l13.678,10.514c0.062,0.053,0.121,0.104,0.181,0.158c0.707,0.709,2.273,2.557,1.518,4.395
		c-0.336,0.811-1.21,1.781-3.431,1.781c-0.38,0-0.812-0.023-1.319-0.082c-0.117-0.012-0.238-0.043-0.351-0.073l-4.005-1.298
		c-0.106,0.156-0.238,0.32-0.378,0.472c-0.553,0.573-1.679,1.258-3.369,1.079c0.854,1.21,1.183,2.141,0.726,3.109
		c-0.345,0.723-1.083,1.174-1.932,1.174l0,0c-0.558,0-1.182-0.18-2.092-0.607c-0.061-0.029-0.114-0.056-0.169-0.093
		c-0.317-0.132-1.36-0.435-2.221-0.679c-2.531-0.726-4.417-1.313-5.772-1.916l-0.235,0.85c2.016,2.082,6.434,7.955,6.565,19.619
		c0.142,12.887,0.152,30.654,0.152,33.369c1.03,2.685,1.167,4.621,0.392,5.779c-0.46,0.684-1.213,1.068-2.062,1.068l0,0
		c-1.283,0-2.742-0.861-4.998-2.975c-1.208-1.129-2.231-2.174-3.08-3.152c-1.46,10.266-2.996,10.27-4.382,10.271l0,0
		c-0.545,0-0.991-0.183-1.359-0.453c0.252,3.652,0.596,6.565,1.01,7.613c1.162,0.651,1.851,2.041,1.635,3.48
		c-0.237,1.564-1.489,2.656-3.055,2.656c-1.616,0-3.391-1.104-5.419-3.375c-0.138-0.145-0.261-0.291-0.394-0.438l0.987,9.049
		c0.097,0.569,0.249,2.223-0.68,3.312c-0.486,0.57-1.166,0.879-1.919,0.879c-1.533,0-3.208-1.26-5.771-4.354l-0.222-0.248
		c-2.117,5.42-7.165,16.597-13.997,20.252c-0.533,3.256-0.995,5.043-3.006,5.043c-0.278,0-0.531-0.062-0.778-0.142
		c-0.049,1.345-0.425,1.858-0.607,2.107C399.478,400.471,398.782,400.831,398.021,400.831L398.021,400.831z M375.598,332.241
		c0.238,0,0.48,0.048,0.71,0.141c1.236,0.517,3.065,2.429,1.4,9.413c-0.957,4.014,0.856,11.812,3.734,16.066
		c1.006,1.486,2.07,2.408,2.927,2.541c0.535,0.078,1.014,0.387,1.301,0.847c0.286,0.463,0.359,1.024,0.195,1.544
		c-1.705,5.361,5.605,25.865,10.689,32.499c-0.197-0.979-0.469-2.099-0.783-3.151c-0.281-0.914,0.191-1.895,1.091-2.254
		c0.886-0.359,1.901,0.021,2.337,0.877l0,0c0,0,0.297,0.426,1.396,1.881c0.08-0.438,0.15-0.9,0.221-1.33
		c0.104-0.631,0.523-1.164,1.115-1.42c6.575-2.766,12.304-16.414,13.951-21.438c0.206-0.63,0.735-1.104,1.388-1.238
		c0.65-0.124,1.327,0.089,1.768,0.595l2.322,2.625c0.724,0.869,1.302,1.508,1.755,1.953l-1.64-14.953
		c-0.34-1.16-0.072-1.895,0.229-2.312c0.453-0.626,1.228-0.91,1.979-0.713c0.745,0.187,1.291,0.825,1.374,1.59l0.066,0.601
		c0.267,0.633,1.141,2.183,3.954,5.32c0.183,0.204,0.347,0.379,0.505,0.549c-0.802-2.627-1.485-8.195-1.577-20.318
		c-0.011-0.93,0.669-1.719,1.584-1.85c0.922-0.144,1.793,0.428,2.048,1.315l1.849,6.317c0.427-2.104,0.909-5.176,1.342-9.184
		c-0.198-1.422,0.357-2.22,0.617-2.508c0.542-0.589,1.397-0.764,2.125-0.441c0.726,0.32,1.167,1.069,1.098,1.863l-0.092,0.88
		c0.238,0.722,1.181,2.603,4.923,6.099c0.33,0.315,0.633,0.578,0.896,0.803c-0.103-0.309-0.215-0.622-0.333-0.914
		c-0.087-0.221-0.132-0.462-0.132-0.693c0-0.203,0-19.787-0.156-33.688c-0.14-12.834-5.829-17.399-6.071-17.588
		c-0.592-0.461-0.863-1.25-0.665-1.975l1.24-4.455c0.216-0.779,0.908-1.324,1.712-1.355c0.693-0.03,1.371,0.354,1.707,0.973
		c0.73,0.6,3.632,1.485,5.465,2.016c-1.357-1.679-1.897-2.621-1.357-3.774c0.314-0.649,1.116-1.133,1.833-1.133
		c0.621,0,1.295,0.252,2.474,0.925c1.863,1.075,2.777,1.191,3.09,1.191c-0.03-0.605,0.311-1.25,0.798-1.615
		c0.479-0.37,1.181-0.53,1.759-0.346l5.084,1.641l-15.412-11.861c-0.57-0.432-0.864-1.255-0.71-1.953
		c0.252-1.218,1.006-2.105,8.551-3.701c-1.837-0.354-4.021-0.693-6.001-0.929c-0.934-0.104-1.635-0.899-1.635-1.84
		c0,0,0-1.071,0.103-3.621c-0.988,0.486-2.473,1.416-4.066,2.646c-0.533,0.442-1.284,0.615-1.88,0.416
		c-0.647-0.215-1.12-0.769-1.244-1.439c-0.099-0.578,0.081-1.164,0.479-1.591c0.06-0.205,0.233-0.802,0.446-2.093
		c-1.063,0.641-2.438,1.785-2.787,2.373c-1.058,3.055-4.842,5.256-9.065,5.256c-3.724,0-8.083-1.828-9.834-6.719
		c-1.987,3.293-1.69,7.513-1.687,7.563c0.049,0.653-0.242,1.283-0.78,1.663c-0.537,0.374-1.231,0.441-1.827,0.176
		c-2.134-0.954-4.294-1.48-6.083-1.48c-2.089,0-3.54,0.666-4.439,2.037c-0.396,0.61-1.098,0.937-1.829,0.819h-0.007
		c-3.364,0-17.613,6.165-25.821,10.05c-0.087,0.041-0.176,0.073-0.267,0.101c-1.203,0.358-2.487,0.895-3.313,1.349
		c0.562,0.406,0.867,1.102,0.754,1.811c-0.139,0.854-0.853,1.498-1.712,1.56c-12.898,0.826-17.576,6.651-21.274,12.179
		c0.67-0.363,1.387-0.787,2.061-1.219c0.211-0.131,0.444-0.227,0.694-0.268c0.143-0.024,3.577-0.601,6.77-0.601
		c2.442,0,4.086,0.326,5.187,1.015c0.637,0.388,0.97,1.11,0.863,1.839c-1.893,12.7-0.105,14.261-0.033,14.317
		c0.104-0.037,0.69-0.396,1.051-0.748c0.614-0.604,1.576-0.715,2.312-0.257c0.73,0.472,1.042,1.384,0.753,2.202
		c-2.619,7.189-4.565,12.148-5.815,14.829c1.25-0.646,3.028-1.979,4.349-3.214c0.638-0.598,1.593-0.666,2.312-0.176
		c0.586,0.402,0.881,1.09,0.797,1.763c0.016,0.28,0.161,1.929,1.799,7.737c0.125,0.447,0.246,0.807,0.353,1.084
		c0.313-0.606,0.653-1.418,0.878-2.17c0.153-0.5,0.509-0.918,0.986-1.141C375.055,332.3,375.32,332.241,375.598,332.241z"/>
	<path fill="#333333" d="M452.23,302.4c0,1.695,1.362,3.065,3.062,3.065c1.693,0,3.057-1.37,3.057-3.065
		c0-1.691-1.362-3.061-3.057-3.061C453.594,299.34,452.23,300.708,452.23,302.4z"/>
	<path fill="#27140E" d="M455.292,306.393c-2.198,0-3.99-1.789-3.99-3.992c0-2.2,1.792-3.988,3.99-3.988
		c2.2,0,3.993,1.788,3.993,3.988C459.285,304.604,457.492,306.393,455.292,306.393z M455.292,300.266
		c-1.178,0-2.14,0.957-2.14,2.135c0,1.181,0.962,2.142,2.14,2.142c1.173,0,2.136-0.961,2.136-2.142
		C457.428,301.223,456.465,300.266,455.292,300.266z"/>
	<path fill="#27140E" d="M473.256,323.081c-0.236,0-0.49-0.049-0.732-0.154c-2.724-1.19-4.264-2.89-4.576-5.058
		c-0.586-4.043,3.591-7.688,4.069-8.09c0.783-0.663,1.952-0.559,2.61,0.229c0.662,0.777,0.563,1.949-0.222,2.607l0,0
		c-1.007,0.855-3.019,3.143-2.788,4.719c0.118,0.818,0.923,1.555,2.385,2.193c0.944,0.406,1.372,1.5,0.963,2.437
		C474.664,322.667,473.978,323.081,473.256,323.081z"/>
	<path fill="#27140E" d="M473.264,313.805c0,0-3.508,3.625-0.348,5.133C475.377,317.869,473.581,314.123,473.264,313.805z"/>
	<path fill="#FAA625" d="M128.481,410.684c0,0-16.362,27.473-3.066,33.564c18.281,2.451,15.97,7.943,15.97,7.943l-32.383-0.682
		c0,0-1.979-4.301,4.067-9.333c2.654-3.424-3.628-27.964-3.628-27.964"/>
	<path fill="#27140E" d="M141.385,453.787c-0.008,0-0.021,0-0.037,0l-32.382-0.681c-0.615-0.016-1.162-0.382-1.412-0.929
		c-0.103-0.222-2.366-5.384,4.315-11.074c1.128-2.158-1.107-15.312-3.968-26.492c-0.219-0.851,0.293-1.721,1.145-1.935
		c0.85-0.226,1.719,0.294,1.936,1.136c1.953,7.612,6.173,25.688,3.343,29.339c-0.07,0.088-0.147,0.176-0.238,0.249
		c-3.424,2.847-3.862,5.286-3.803,6.539l29.123,0.62c-0.94-1.104-4.05-3.378-14.198-4.731c-0.157-0.021-0.312-0.064-0.457-0.132
		c-2.739-1.259-4.582-3.371-5.493-6.283c-3.307-10.612,7.398-28.772,7.852-29.543c0.454-0.761,1.431-0.995,2.184-0.55
		c0.754,0.447,1.006,1.427,0.559,2.182c-0.112,0.176-10.444,17.701-7.554,26.961c0.617,1.967,1.787,3.357,3.58,4.242
		c9.183,1.26,14.757,3.505,16.571,6.671c1.016,1.779,0.515,3.176,0.404,3.438C142.599,453.407,142.027,453.787,141.385,453.787z"/>
	<path fill="#FAA625" d="M103.666,414.282c0,0-15.793,26.471-2.494,32.562c18.275,2.449,15.967,7.951,15.967,7.951l-32.388-0.688
		c0,0-1.976-4.302,4.074-9.344c2.652-3.421-4.246-28.716-4.246-28.716"/>
	<path fill="#27140E" d="M117.139,456.391c-0.01,0-0.021,0-0.035,0l-32.389-0.688c-0.611-0.014-1.16-0.373-1.412-0.93
		c-0.099-0.22-2.363-5.375,4.312-11.065c1.149-2.263-1.448-15.794-4.571-27.241c-0.234-0.849,0.271-1.726,1.119-1.961
		c0.845-0.234,1.723,0.271,1.952,1.121c2.137,7.832,6.803,26.456,3.97,30.12c-0.073,0.09-0.158,0.177-0.242,0.251
		c-3.427,2.851-3.877,5.273-3.808,6.545l29.123,0.615c-0.937-1.104-4.041-3.38-14.202-4.733c-0.152-0.03-0.305-0.073-0.448-0.131
		c-2.806-1.289-4.692-3.447-5.614-6.401c-3.237-10.409,6.968-27.691,7.405-28.425c0.447-0.761,1.427-1.002,2.184-0.556
		c0.755,0.453,0.999,1.434,0.549,2.179c-0.096,0.171-9.914,16.812-7.095,25.857c0.621,2.012,1.84,3.438,3.689,4.345
		c9.185,1.259,14.757,3.504,16.575,6.688c1.018,1.769,0.521,3.165,0.405,3.431C118.361,456.002,117.78,456.391,117.139,456.391z"/>
	<path fill="#E01D42" d="M165.785,303.055c0,0,12.479-13.371-2.408-11.229c-6.459-11.888-10.005-3.056-10.005-3.056
		s-15.151-9.617-12.579,2.703c-15.899,1.213-3.403,12.782-3.403,12.782"/>
	<path fill="#27140E" d="M137.39,305.85c-0.381,0-0.771-0.14-1.074-0.428c-0.677-0.619-6.522-6.206-4.9-10.865
		c0.853-2.43,3.323-3.906,7.551-4.488c-0.255-2.668,0.388-4.553,1.924-5.614c3.208-2.22,9.017,0.502,11.891,2.11
		c0.787-1.119,2.096-2.424,4.009-2.533c2.521-0.146,4.975,1.844,7.446,6.07c2.256-0.25,6.18-0.34,7.582,2.353
		c2.062,3.954-3.69,10.427-4.864,11.687c-0.601,0.643-1.606,0.676-2.249,0.084c-0.645-0.604-0.682-1.613-0.08-2.254
		c2.596-2.791,5.031-6.781,4.369-8.041c-0.292-0.562-1.875-1.033-5.391-0.527c-0.666,0.095-1.306-0.234-1.628-0.82
		c-2.764-5.09-4.498-5.393-5.003-5.372c-1.058,0.062-1.957,1.741-2.125,2.158c-0.172,0.438-0.538,0.771-0.984,0.918
		c-0.449,0.146-0.947,0.085-1.346-0.168c-2.991-1.898-8.181-4.175-9.815-3.046c-0.667,0.464-0.795,1.947-0.351,4.07
		c0.099,0.457-0.005,0.922-0.283,1.291c-0.273,0.364-0.694,0.594-1.151,0.631c-3.716,0.281-6.021,1.182-6.491,2.539
		c-0.743,2.133,2.41,5.961,4.048,7.489c0.645,0.593,0.688,1.603,0.088,2.245C138.253,305.682,137.826,305.85,137.39,305.85z"/>
	<path fill="#F3F3F3" d="M164.334,301.656c0,0-11.039-15.208-25.583,1.007c-14.545,16.214-19.41,50.708-57.464,43.448
		c-17.976-16.652-30.542-20.795-30.542-20.795s-10.01-2.793,2.425,7.543c-8.985-2.26-16.499-1.123-16.499-1.123
		s-2.919,3.549,8.321,9.47c-12.413,1.021-19.153,2.433-12.019,6.713c7.136,4.285,6.108,4.263,6.108,4.263s-14.019,3.324-3.019,8.198
		c3.995,1.755,9.722,4.081,9.722,4.081s-15.646,7.409-6.154,10.454l8.258,0.168c0,0-11.553,8.922,0.311,9.567
		c-4.663,6.742,6.101,4.513,6.101,4.513s-3.789,7.798,5.827,5.03c-2.97,6.387,2.646,9.226,4.249,6.671
		c-0.165,7.624,7.522,4.294,7.522,4.294s6.96,18.997,37.675,7.127c16.333,8.996,29.186-12.678,29.186-12.678
		s31.396-31.862,21.69-73.25c-0.646,0.242,0.561-14.834,0.561-14.834l11.289-2.215L164.334,301.656z"/>
	<path fill="#27140E" d="M91.45,417.775c-13.203,0-18.655-7.475-20.389-10.664c-0.717,0.19-1.635,0.359-2.597,0.359
		c-1.665,0-3.065-0.527-4.048-1.537c-0.655-0.666-1.119-1.521-1.376-2.56c-1.64,0.155-3.417-0.761-4.418-2.333
		c-0.546-0.855-1.218-2.438-0.835-4.739c-0.406,0.05-0.786,0.073-1.151,0.073c-2.367,0-3.503-1.018-4.045-1.881
		c-0.655-1.061-0.698-2.335-0.527-3.438c-0.395,0.035-0.805,0.053-1.22,0.053c-2.608,0-4.306-0.711-5.044-2.129
		c-0.534-1.011-0.421-2.078-0.1-3.016c-1.722-0.342-3.687-1.141-4.286-3.07c-0.661-2.129,0.823-4.479,2.48-6.299l-4.302-0.097
		c-0.153,0-0.307-0.021-0.453-0.071c-2.638-0.842-4.034-2.188-4.15-3.974c-0.198-2.999,3.84-5.96,7.039-7.818
		c-1.979-0.813-4.531-1.887-6.608-2.801c-1.351-0.601-5.432-2.414-5.15-5.467c0.217-2.365,3.062-3.929,5.491-4.843
		c-0.831-0.545-1.994-1.275-3.61-2.244c-1.945-1.166-4.114-2.784-3.617-4.938c0.523-2.241,3.35-3.373,11.484-4.269
		c-3.043-2.122-4.777-4.215-5.187-6.24c-0.369-1.807,0.442-2.911,0.607-3.111c0.249-0.304,0.607-0.508,0.994-0.568
		c0.085-0.014,2.037-0.303,5.132-0.303c1.667,0,3.872,0.092,6.385,0.414c-2.534-2.645-2.882-4.065-2.465-5.224
		c0.227-0.621,0.907-1.664,2.962-1.664c1.252,0,2.583,0.362,2.729,0.403c0.592,0.197,13.012,4.412,30.854,20.846
		c3.188,0.583,6.23,0.877,9.062,0.877h0.004c19.903-0.01,28.14-14.379,36.108-28.292c3.324-5.794,6.459-11.262,10.361-15.616
		c4.762-5.312,9.734-8.006,14.768-8.006c7.53,0,12.45,6.024,13.192,7.004l7.874,7.571c0.432,0.409,0.596,1.022,0.428,1.597
		c-0.168,0.568-0.64,0.998-1.225,1.108l-10.099,1.981c-0.424,5.516-0.753,11.334-0.64,12.778c0.06,0.117,0.103,0.234,0.131,0.363
		c9.465,40.338-19.69,72.18-21.969,74.584c-1.071,1.748-9.893,15.485-22.386,15.485c-2.766,0-5.505-0.68-8.175-2.033
		C102.847,416.518,96.791,417.775,91.45,417.775z M71.898,403.564c0.216,0,0.433,0.045,0.634,0.133
		c0.401,0.175,0.713,0.504,0.866,0.914c0.15,0.396,3.924,9.982,18.052,9.982c5.124,0,11.03-1.279,17.552-3.804
		c0.436-0.16,0.925-0.131,1.34,0.097c2.395,1.323,4.849,1.981,7.3,1.981c11.268,0,19.661-13.935,19.745-14.08
		c0.066-0.11,0.146-0.213,0.238-0.302c0.303-0.312,30.469-31.549,21.361-71.393c-0.402-0.771-0.573-3.113,0.433-15.701
		c0.062-0.709,0.585-1.293,1.283-1.437l8.287-1.617l-5.76-5.536c-0.066-0.066-0.128-0.136-0.188-0.216
		c-0.04-0.055-4.334-5.813-10.708-5.813c-4.092,0-8.263,2.34-12.397,6.951c-3.68,4.1-6.734,9.43-9.967,15.074
		c-8.028,14.01-17.124,29.885-38.873,29.887h-0.004c-3.155,0-6.555-0.342-10.099-1.017c-0.292-0.062-0.57-0.194-0.787-0.399
		c-17.455-16.16-29.836-20.397-29.96-20.438c-0.161-0.049-0.714-0.173-1.266-0.232c0.601,0.819,1.99,2.362,5.205,5.03
		c0.573,0.478,0.742,1.284,0.402,1.948c-0.337,0.663-1.086,1.004-1.808,0.824c-4.477-1.129-8.572-1.357-11.216-1.357
		c-1.559,0-2.806,0.075-3.613,0.148c0.006,0.061,0.024,0.136,0.051,0.209c0.253,0.832,1.519,3.115,7.728,6.392
		c0.626,0.329,0.958,1.032,0.819,1.726c-0.143,0.694-0.725,1.215-1.429,1.269c-9.306,0.769-12.451,1.616-13.342,2.245
		c0.22,0.266,0.753,0.767,2.014,1.519c7.007,4.208,7.224,4.761,6.864,6.019c-0.152,0.572-0.647,1.017-1.214,1.158l0,0
		c-3.156,0.748-5.938,2.242-5.998,2.937c0,0.008,0.173,0.882,3.263,2.258c3.928,1.728,9.614,4.038,9.679,4.062
		c0.584,0.231,0.972,0.797,0.99,1.427c0.021,0.629-0.332,1.213-0.907,1.483c-4.429,2.105-8.384,5.127-8.303,6.35
		c0.005,0.131,0.353,0.602,1.733,1.076l8.021,0.176c0.676,0.021,1.264,0.453,1.478,1.088c0.212,0.645-0.008,1.355-0.537,1.766
		c-2.55,1.976-4.689,4.693-4.407,5.603c0.102,0.323,1.022,0.95,3.828,1.104c0.579,0.037,1.091,0.373,1.347,0.885
		c0.251,0.527,0.204,1.141-0.121,1.609c-0.998,1.44-0.888,1.961-0.885,1.969c0.077,0.094,0.666,0.408,2.221,0.408
		c1.564,0,3.118-0.314,3.134-0.322c0.596-0.131,1.206,0.11,1.579,0.584c0.369,0.478,0.439,1.129,0.176,1.668
		c-0.402,0.844-0.79,2.385-0.439,2.949c0.223,0.352,1.01,0.389,1.343,0.389c0.798,0,1.825-0.178,3.051-0.534
		c0.6-0.167,1.247,0.021,1.649,0.497c0.406,0.475,0.5,1.142,0.232,1.705c-1.14,2.458-0.653,3.854-0.262,4.476
		c0.387,0.601,0.95,0.87,1.335,0.87c0.271,0,0.348-0.124,0.384-0.189c0.385-0.6,1.119-0.885,1.803-0.681
		c0.687,0.205,1.159,0.849,1.138,1.563c-0.025,1.326,0.224,2.3,0.725,2.812c0.372,0.38,0.972,0.577,1.773,0.577
		c1.4,0,2.795-0.585,2.808-0.6C71.471,403.609,71.687,403.564,71.898,403.564z"/>
	<path fill="#989898" d="M153.062,303.482c-0.021,1.065,0.823,1.955,1.896,1.978c1.064,0.021,1.949-0.827,1.971-1.896
		c0.029-1.076-0.818-1.953-1.887-1.976C153.969,301.564,153.084,302.416,153.062,303.482z"/>
	<path fill="#211010" d="M154.997,306.523L154.997,306.523c-0.008,0-0.059,0-0.067,0c-0.796-0.021-1.542-0.352-2.098-0.926
		c-0.556-0.582-0.854-1.334-0.83-2.141c0.028-1.615,1.375-2.93,2.995-2.93c1.715,0.031,3.031,1.404,2.994,3.059
		C157.955,305.203,156.613,306.523,154.997,306.523z M155.012,302.65c-0.487,0-0.882,0.379-0.89,0.852
		c-0.003,0.23,0.082,0.458,0.242,0.625c0.16,0.169,0.376,0.266,0.611,0.271l0.021,1.062v-1.062c0.472,0,0.863-0.385,0.878-0.854
		C155.882,303.059,155.497,302.663,155.012,302.65L155.012,302.65z"/>
	<path fill="#F3F3F3" d="M138.106,369.514c0,0-27.714,46.793-72.414,18.084c-0.462-14.849,36.694-31.881,36.694-31.881"/>
	<path fill="#27140E" d="M94.22,398.51c-9.627,0-19.465-3.205-29.391-9.574c-0.439-0.277-0.713-0.761-0.731-1.287
		c-0.479-15.728,36.065-32.664,37.626-33.375c0.802-0.375,1.744-0.021,2.11,0.781c0.362,0.799,0.016,1.746-0.786,2.112
		c-9.826,4.498-34.877,18.382-35.742,29.574c12.361,7.729,24.522,10.255,36.162,7.495c20.862-4.943,33.147-25.321,33.268-25.533
		c0.45-0.755,1.431-1.01,2.185-0.562c0.757,0.453,1.004,1.434,0.555,2.178c-0.526,0.894-13.107,21.771-35.278,27.021
		C100.905,398.122,97.57,398.51,94.22,398.51z"/>
	<path fill="#E01D42" d="M160.406,311.739c0,0-9.004,16.849,2.056,18.758C173.521,332.413,167.402,310.468,160.406,311.739z"/>
	<path fill="#27140E" d="M163.756,332.208c-0.879,0-1.588-0.709-1.588-1.591c0-0.878,0.709-1.588,1.588-1.588
		c2.115,0,3.186-1.543,3.186-4.57c0-2.434-0.797-5.381-2.081-7.688c-1.185-2.154-2.669-3.492-3.865-3.492
		c-0.882,0-1.595-0.713-1.595-1.594c0-0.883,0.713-1.595,1.595-1.595c2.457,0,4.823,1.826,6.66,5.14
		c1.542,2.793,2.468,6.248,2.468,9.229C170.123,329.242,167.683,332.208,163.756,332.208z"/>
</g>
</svg>
