<?xml version="1.0" encoding="utf-8"?>
<!-- Generator: Adobe Illustrator 16.0.0, SVG Export Plug-In . SVG Version: 6.00 Build 0)  -->
<!DOCTYPE svg PUBLIC "-//W3C//DTD SVG 1.1//EN" "http://www.w3.org/Graphics/SVG/1.1/DTD/svg11.dtd">
<svg version="1.1" id="Layer_1" xmlns="http://www.w3.org/2000/svg" xmlns:xlink="http://www.w3.org/1999/xlink" x="0px" y="0px"
	 width="500px" height="500px" viewBox="0 0 500 500" enable-background="new 0 0 500 500" xml:space="preserve">
<g id="Layer_1_copy_97">
	<g>
		<path fill="#F4BE78" d="M273.197,100.331c47.503,0,95.008,0,142.514,0c1.638,51.073-5.986,93.92,10.824,130.794
			c8.252,18.085,21.285,32.18,27.063,47.811c16.426,44.397-7.387,87.449-46.904,92.004c-13.271,1.525-28.106-0.582-42.397-1.808
			c-38.667-3.312-82.408-6.633-128.089-4.506c-28.808,1.336-57.253,2.502-84.788,3.604c-38.872,1.555-88.308,16.474-113.264-1.498
			c-8.051-5.801-10.648-30.006,6.764-32.207c45.709-5.711,84.532-19.313,118.229-39.358c19.45-11.574,37.283-24.959,54.12-39.688
			c26.155-22.876,53.708-48.393,55.022-95.617c0.498-17.84-0.367-37.157,0-56.823C272.219,101.756,272.145,100.487,273.197,100.331z
			"/>
		<path fill="#3C2517" d="M74.011,378.734c-16.849,0-28.838-2.979-37.736-9.387c-5.983-4.31-9.101-15.553-6.815-24.56
			c1.931-7.587,7.421-12.49,15.057-13.459c43.897-5.479,82.16-18.22,116.985-38.933c18.234-10.846,35.78-23.715,53.649-39.342
			c23.441-20.502,52.606-46.014,53.919-93.282c0.261-9.228,0.148-18.73,0.037-28.79c-0.104-9.109-0.211-18.531-0.037-28.007
			c-0.207-3.404,1.025-5.453,3.664-5.832c0.152-0.022,0.309-0.038,0.463-0.038h142.515c1.741,0,3.163,1.381,3.223,3.119
			c0.46,14.343,0.192,27.929-0.062,41.069c-0.653,33.578-1.218,62.577,10.598,88.493c3.798,8.323,8.672,15.835,13.386,23.107
			c5.445,8.398,10.592,16.332,13.769,24.918c8.738,23.623,6.956,48.233-4.894,67.521c-9.938,16.177-26.217,26.679-44.666,28.802
			c-3.247,0.375-6.686,0.557-10.516,0.557c-7.926,0-16.218-0.806-24.239-1.58c-2.77-0.269-5.539-0.531-8.284-0.771
			c-30.531-2.611-63.261-5.164-98.097-5.164c-10.114,0-20.063,0.227-29.562,0.669c-28.917,1.341-57.852,2.523-84.812,3.604
			c-11.04,0.441-23.244,2.012-35.045,3.533C102.177,376.827,87.355,378.734,74.011,378.734z M275.496,103.553
			c-0.152,9.38-0.049,18.515,0.052,27.357c0.115,10.126,0.224,19.688-0.032,29.042c-1.396,50.082-31.742,76.623-56.126,97.952
			c-18.165,15.891-36.023,28.986-54.591,40.033c-35.605,21.176-74.685,34.193-119.477,39.78c-5.082,0.649-8.319,3.56-9.618,8.66
			c-1.771,6.959,0.877,15.248,4.336,17.738c7.639,5.502,18.752,8.179,33.972,8.179c12.932,0,27.543-1.883,41.678-3.705
			c11.938-1.537,24.284-3.126,35.604-3.578c26.949-1.08,55.873-2.261,84.767-3.604c9.606-0.445,19.652-0.676,29.867-0.676
			c35.093,0,67.974,2.563,98.646,5.192c2.769,0.237,5.561,0.509,8.354,0.779c7.865,0.758,16.002,1.548,23.619,1.548
			c3.581,0,6.777-0.167,9.78-0.516c16.712-1.924,30.884-11.08,39.916-25.776c10.801-17.588,12.383-40.155,4.335-61.912
			c-2.929-7.917-7.881-15.557-13.13-23.646c-4.845-7.467-9.848-15.188-13.841-23.941c-12.426-27.245-11.846-56.927-11.175-91.292
			c0.234-12.097,0.479-24.573,0.149-37.617L275.496,103.553L275.496,103.553z"/>
	</g>
	<g>
		<path fill="#F4BE78" d="M361.197,225.684c0,0,27.23,19.866,11.834,54.644c-13.697,30.949-54.172,16.855-54.172,16.855"/>
		<path fill="#3C2517" d="M339.152,303.607c-11.509,0-20.939-3.234-21.355-3.381c-1.677-0.582-2.564-2.416-1.984-4.098
			c0.586-1.679,2.42-2.568,4.102-1.986c0.096,0.034,9.869,3.391,20.969,2.996c14.267-0.465,24.091-6.556,29.206-18.113
			c5.968-13.482,5.95-26.118-0.052-37.566c-4.484-8.544-10.676-13.125-10.735-13.169c-1.437-1.047-1.753-3.062-0.705-4.499
			c1.047-1.444,3.066-1.752,4.503-0.705c0.289,0.215,29.14,21.814,12.881,58.545c-6.141,13.871-18.268,21.463-35.074,21.949
			C340.314,303.602,339.728,303.607,339.152,303.607z"/>
	</g>
</g>
</svg>
