<?xml version="1.0" encoding="utf-8"?>
<!-- Generator: Adobe Illustrator 16.0.0, SVG Export Plug-In . SVG Version: 6.00 Build 0)  -->
<!DOCTYPE svg PUBLIC "-//W3C//DTD SVG 1.1//EN" "http://www.w3.org/Graphics/SVG/1.1/DTD/svg11.dtd">
<svg version="1.1" id="Layer_1" xmlns="http://www.w3.org/2000/svg" xmlns:xlink="http://www.w3.org/1999/xlink" x="0px" y="0px"
	 width="500px" height="500px" viewBox="0 0 500 500" enable-background="new 0 0 500 500" xml:space="preserve">
<g id="Layer_1_copy_29">
	<g>
		<path fill="#E83425" d="M211.598,169.884c0,0-113.143-16.335-122.823,88.938c-9.682,105.273,36.303,166.993,93.178,197.243
			c36.706,20.777,59.295,0,59.295,0s20.568-12.099,42.352,4.839c16.939,11.101,38.807,5.735,65.948-11.496
			c33.277-27.823,101.646-72.598,75.633-199.661c0,0-14.932-102.052-128.271-78.252
			C256.807,178.851,211.598,169.884,211.598,169.884z"/>
		<path fill="#27140E" d="M303.494,470.689c-8.114,0-15.54-2.168-22.076-6.452c-0.087-0.062-0.178-0.121-0.262-0.19
			c-6.988-5.432-14.559-8.186-22.502-8.186c-7.928,0-13.812,2.808-15.129,3.499c-2.202,1.85-12.785,9.922-29.889,9.922
			c-10.895,0-22.216-3.279-33.644-9.754c-69.852-37.151-103.686-108.577-95.179-201.07c7.753-84.362,79.947-93.469,110.623-93.469
			c9.982,0,16.457,0.917,16.73,0.958c0.427,0.079,22.908,4.466,49.693,4.466c12.531,0,24.08-0.953,34.332-2.832
			c11.537-2.423,22.707-3.664,33.1-3.664c86.354,0,99.698,84.403,99.824,85.256c24.694,120.584-34.484,168.677-69.844,197.405
			c-2.525,2.054-4.932,4.01-7.176,5.881c-0.134,0.114-0.273,0.221-0.418,0.312C332.69,464.824,316.927,470.689,303.494,470.689z
			 M285.907,457.664c14.707,9.541,33.937,5.843,61.288-11.473c2.214-1.851,4.581-3.768,7.057-5.783
			c33.96-27.596,90.794-73.784,67.029-189.861c-0.515-3.42-12.597-78.671-91.988-78.671c-9.842,0-20.462,1.184-31.565,3.514
			c-10.819,1.985-22.852,2.982-35.866,2.982c-27.583,0-50.062-4.39-51.035-4.583l0,0c-0.041,0-6.166-0.841-15.388-0.841
			c-82.458,0-99.739,54.033-102.704,86.241c-4.739,51.599,0.785,145.332,91.087,193.362c10.309,5.835,20.314,8.771,29.816,8.771
			c15.665,0,24.837-8.117,24.929-8.193c0.202-0.183,0.43-0.356,0.666-0.494c0.326-0.189,8.179-4.732,19.424-4.732
			C268.359,447.902,277.525,451.189,285.907,457.664z"/>
	</g>
	<g>
		<path fill="#683614" d="M244.268,202.554c0,0-45.98-94.384,84.101-134.317c0,0,20.794,39.133,27.443,62.125
			c-70.396-8.881-90.969,72.192-90.969,72.192H244.268z"/>
		<path fill="#27140E" d="M264.844,206.533h-20.576c-1.521,0-2.91-0.867-3.576-2.236c-0.722-1.485-17.545-36.828-1.255-74.329
			c12.834-29.549,42.366-51.597,87.765-65.536c1.811-0.557,3.784,0.25,4.679,1.938c0.86,1.613,21.067,39.762,27.755,62.886
			c0.373,1.285,0.073,2.672-0.795,3.691c-0.872,1.02-2.198,1.529-3.521,1.362c-3.412-0.43-6.803-0.649-10.074-0.649
			c-58.042,0-76.367,69.176-76.542,69.875C268.249,205.299,266.663,206.533,264.844,206.533z M246.885,198.575h14.988
			c4.467-14.087,26.514-72.872,83.37-72.872c1.629,0,3.284,0.049,4.953,0.146c-6.437-18.676-19.382-44.253-23.813-52.818
			c-41.285,13.25-68.07,33.46-79.646,60.107C234.103,162.213,243.651,190.56,246.885,198.575z"/>
	</g>
	<g>
		<path fill="#24B34B" d="M263.631,127.531c0,0,3.633-76.841-85.916-96.201C88.17,11.968,64.572,79.43,64.572,79.43
			s59.333,109.21,199.077,51.127"/>
		<path fill="#27140E" d="M185.795,151.44c-24.921,0.002-51.093-5.716-76.186-21.284c-32.821-20.363-47.908-47.674-48.533-48.828
			c-0.536-0.985-0.632-2.153-0.259-3.212c0.247-0.708,25.826-70.549,117.737-50.674c91.778,19.842,89.088,99.476,89.051,100.276
			c-0.022,0.463-0.123,0.902-0.285,1.305c0,0.004,0,0.004,0,0.007c0.845,2.03-0.114,4.358-2.146,5.203
			C243.096,143.408,215.326,151.438,185.795,151.44z M68.993,79.095c3.675,6.001,18.332,27.964,45.12,44.489
			c41.055,25.324,90.014,26.77,145.553,4.304c-0.016-0.177-0.021-0.357-0.012-0.54l0,0c0.134-3.001,2.275-73.741-82.78-92.128
			c-35.865-7.759-65.051-2.395-86.741,15.938C77.092,62.179,70.899,74.681,68.993,79.095z"/>
	</g>
	<g>
		<path fill="#27140E" d="M124.776,285.186c-0.05,0-0.103,0-0.148,0c-2.198-0.084-3.91-1.926-3.83-4.125
			c2.521-68.017,65.264-75.141,65.898-75.203c2.18-0.227,4.139,1.371,4.355,3.559c0.225,2.186-1.369,4.137-3.558,4.357
			c-2.351,0.248-56.483,6.622-58.743,67.583C128.668,283.503,126.903,285.186,124.776,285.186z"/>
	</g>
</g>
</svg>
