<?xml version="1.0" encoding="utf-8"?>
<!-- Generator: Adobe Illustrator 16.0.0, SVG Export Plug-In . SVG Version: 6.00 Build 0)  -->
<!DOCTYPE svg PUBLIC "-//W3C//DTD SVG 1.1//EN" "http://www.w3.org/Graphics/SVG/1.1/DTD/svg11.dtd">
<svg version="1.1" id="Layer_1" xmlns="http://www.w3.org/2000/svg" xmlns:xlink="http://www.w3.org/1999/xlink" x="0px" y="0px"
	 width="500px" height="500px" viewBox="0 0 500 500" enable-background="new 0 0 500 500" xml:space="preserve">
<g id="Layer_1_copy_70">
	<g>
		<g>
			<path fill="#FFFFFF" d="M425.881,435.626c0,10.373-8.484,18.861-18.859,18.861h-36.093c-10.375,0-27.354,0-37.725,0H97.372
				c-10.37,0-18.858-8.488-18.858-18.861V155.191c0-10.373,8.488-18.86,18.858-18.86H407.02c10.375,0,18.86,8.488,18.86,18.86
				v205.833c0,10.371,0,27.35,0,37.721L425.881,435.626L425.881,435.626z"/>
		</g>
		<g>
			<path fill="#27140E" d="M407.021,458.529H97.372c-12.63,0-22.903-10.273-22.903-22.902V155.191
				c0-12.629,10.273-22.902,22.903-22.902H407.02c12.629,0,22.902,10.273,22.902,22.902v280.435
				C429.923,448.255,419.648,458.529,407.021,458.529z M97.372,140.373c-8.171,0-14.818,6.647-14.818,14.819v280.435
				c0,8.17,6.647,14.82,14.818,14.82H407.02c8.176,0,14.82-6.65,14.82-14.82V155.191c0-8.171-6.646-14.819-14.82-14.819
				L97.372,140.373L97.372,140.373z"/>
		</g>
	</g>
	<g>
		<g>
			<path fill="#458AC9" d="M446.41,188.129c0,10.375-8.492,18.862-18.863,18.862H74.477c-10.371,0-18.863-8.488-18.863-18.862
				V85.325c0-10.374,8.492-18.861,18.863-18.861h353.07c10.371,0,18.863,8.487,18.863,18.861V188.129z"/>
		</g>
		<g>
			<path fill="#27140E" d="M427.547,211.032H74.477c-12.628,0-22.903-10.273-22.903-22.903V85.325
				c0-12.63,10.275-22.903,22.903-22.903h353.07c12.63,0,22.903,10.273,22.903,22.903v102.804
				C450.45,200.758,440.177,211.032,427.547,211.032z M74.477,70.504c-8.171,0-14.816,6.648-14.816,14.82v102.804
				c0,8.171,6.646,14.819,14.816,14.819h353.07c8.171,0,14.817-6.648,14.817-14.819V85.325c0-8.172-6.646-14.82-14.817-14.82
				L74.477,70.504L74.477,70.504z"/>
		</g>
	</g>
	<g>
		<path fill="#424143" d="M164.564,126.15c0,11.071-8.659,20.05-19.339,20.05l0,0c-10.687,0-19.343-8.979-19.343-20.05V54.938
			c0-11.077,8.656-20.056,19.343-20.056l0,0c10.68,0,19.339,8.979,19.339,20.056V126.15z"/>
		<path fill="#27140E" d="M145.226,150.242c-12.894,0-23.387-10.81-23.387-24.092V54.938c0-13.288,10.493-24.096,23.387-24.096
			c12.895,0,23.379,10.808,23.379,24.096v71.212C168.604,139.432,158.12,150.242,145.226,150.242z M145.226,38.925
			c-8.436,0-15.302,7.183-15.302,16.013v71.212c0,8.826,6.866,16.009,15.302,16.009c8.433,0,15.298-7.183,15.298-16.009V54.938
			C160.523,46.108,153.658,38.925,145.226,38.925z"/>
	</g>
	<g>
		<path fill="#424143" d="M374.961,126.15c0,11.071-8.658,20.05-19.34,20.05l0,0c-10.684,0-19.343-8.979-19.343-20.05V54.938
			c0-11.077,8.659-20.056,19.343-20.056l0,0c10.682,0,19.34,8.979,19.34,20.056V126.15z"/>
		<path fill="#27140E" d="M355.621,150.242c-12.893,0-23.384-10.81-23.384-24.092V54.938c0-13.288,10.491-24.096,23.384-24.096
			c12.894,0,23.382,10.808,23.382,24.096v71.212C379.003,139.432,368.515,150.242,355.621,150.242z M355.621,38.925
			c-8.438,0-15.303,7.183-15.303,16.013v71.212c0,8.826,6.864,16.009,15.303,16.009c8.436,0,15.3-7.183,15.3-16.009V54.938
			C370.921,46.108,364.057,38.925,355.621,38.925z"/>
	</g>
	<g>
		<g>
			<path fill="#E5E5E5" d="M425.715,377.979v57.723c0,10.373-8.492,18.86-18.863,18.86h-56.927"/>
		</g>
		<g>
			<path fill="#27140E" d="M406.852,458.601h-56.927c-2.229,0-4.04-1.809-4.04-4.038c0-2.23,1.811-4.041,4.04-4.041h56.927
				c8.172,0,14.818-6.65,14.818-14.82v-57.723c0-2.236,1.812-4.045,4.045-4.045c2.23,0,4.04,1.809,4.04,4.045v57.723
				C429.755,448.33,419.478,458.601,406.852,458.601z"/>
		</g>
	</g>
	<g>
		<path fill="#D2D3D4" d="M425.999,378.189l-57.718,0.287c-10.371,0.051-18.638,8.578-18.359,18.948l1.557,58.248"/>
	</g>
	<g>
		<path fill="#27140E" d="M338.646,458.601c-2.228,0-4.032-1.797-4.04-4.026c-0.009-2.23,1.799-4.045,4.027-4.053l22.896-0.074
			h0.012c2.228,0,4.033,1.799,4.04,4.028c0.012,2.232-1.794,4.046-4.023,4.054l-22.896,0.071
			C338.653,458.601,338.653,458.601,338.646,458.601z"/>
	</g>
	<g>
		<path fill="#27140E" d="M424.373,394.227c-1.491,0-2.696-1.205-2.696-2.695v-21.713c0-1.488,1.205-2.693,2.696-2.693
			c1.485,0,2.689,1.205,2.689,2.693v21.713C427.062,393.021,425.858,394.227,424.373,394.227z"/>
	</g>
	<g>
		<path fill="#333333" d="M127.674,265.576h17.411l26.066,73.668h-16.693l-4.86-15.141H122.47l-4.991,15.141h-16.104
			L127.674,265.576z M126.655,311.406h18.866l-9.305-28.984L126.655,311.406z"/>
		<path fill="#333333" d="M229.977,307.359c-4.309,3.598-10.473,5.399-18.475,5.399h-15.337v26.484h-15.293v-73.668H212.5
			c7.293,0,13.104,1.899,17.442,5.702c4.337,3.796,6.505,9.679,6.505,17.64C236.447,297.615,234.286,303.761,229.977,307.359z
			 M218.229,280.82c-1.95-1.631-4.68-2.447-8.194-2.447h-13.869v21.688h13.869c3.515,0,6.244-0.881,8.194-2.645
			c1.946-1.768,2.923-4.568,2.923-8.398S220.175,282.455,218.229,280.82z"/>
		<path fill="#333333" d="M295.999,267.477c2.714,1.166,5.012,2.883,6.896,5.147c1.561,1.869,2.792,3.937,3.705,6.199
			c0.908,2.264,1.365,4.848,1.365,7.743c0,3.5-0.886,6.939-2.647,10.322c-1.768,3.381-4.687,5.771-8.749,7.172
			c3.4,1.365,5.805,3.308,7.225,5.822c1.414,2.518,2.12,6.354,2.12,11.518v4.951c0,3.365,0.137,5.646,0.406,6.844
			c0.407,1.9,1.356,3.302,2.844,4.197v1.851h-16.991c-0.468-1.632-0.8-2.949-1.002-3.943c-0.396-2.067-0.616-4.182-0.646-6.35
			l-0.102-6.851c-0.062-4.697-0.878-7.828-2.436-9.393c-1.56-1.568-4.484-2.352-8.771-2.352h-15.032v28.887h-15.044v-73.668h35.236
			C289.41,265.68,293.288,266.314,295.999,267.477z M264.184,278.373v19.791h16.569c3.287,0,5.756-0.4,7.401-1.201
			c2.91-1.398,4.365-4.166,4.365-8.295c0-4.467-1.408-7.461-4.222-8.996c-1.582-0.865-3.958-1.299-7.121-1.299H264.184z"/>
		<path fill="#333333" d="M336.751,339.244h-15.295v-73.668h15.295V339.244z"/>
		<path fill="#333333" d="M351.146,265.576h15.391v60.426h36.784v13.242h-52.175V265.576z"/>
	</g>
</g>
</svg>
