<svg id="art_therapy" data-name="art therapy" xmlns="http://www.w3.org/2000/svg" viewBox="0 0 300 300"><defs><style>.cls-1{fill:#555;}.cls-2{fill:#251f1e;}.cls-3{fill:#2e652c;}.cls-4{fill:#848384;}.cls-5{fill:#359140;}.cls-6{fill:#f9e780;}.cls-7{fill:#6e2e58;}.cls-8{fill:#e62440;}.cls-9{fill:#f56162;}</style></defs><title>art therapy</title><path class="cls-1" d="M90,191.71,146.34,93s12.13-25.85.77-47.67c-2-3-2.76-.5-3.62.85C131.9,64.33,65.78,178.27,65.78,178.27"/><path class="cls-2" d="M91.8,192.74l-3.63-2.07L144.48,92c.65-1.45,11-25.23,1.05-45.21l-.27.46c-11.43,17.94-77,130.91-77.67,132L64,177.22C64.63,176.08,130.25,63,141.73,45c.1-.16.2-.34.31-.53.59-1.06,1.49-2.65,3.33-2.7s3.11,1.77,3.49,2.37l.1.17c11.71,22.48-.21,48.44-.72,49.53l-.08.15Z"/><path class="cls-3" d="M29.44,212.16a33.24,33.24,0,1,0,60-19.7l6.17-10.8L71.53,168.18c-3.93,6.75-6.3,10.84-6.3,10.84-.84-.06-1.7-.09-2.56-.09a33.23,33.23,0,0,0-33.23,33.23m15,0a18.25,18.25,0,1,1,18.25,18.25,18.24,18.24,0,0,1-18.25-18.25"/><path class="cls-2" d="M62.67,247.49a35.33,35.33,0,0,1,0-70.65c.47,0,.93,0,1.4,0,1-1.66,2.93-5.06,5.65-9.74l1-1.78,27.71,15.52-6.55,11.47a35.33,35.33,0,0,1-29.25,55.15m0-66.47a31.15,31.15,0,1,0,25.09,12.69l-.81-1.1,5.79-10.15L72.31,171C69,176.69,67,180.07,67,180.07l-.66,1.14-1.31-.1q-1.18-.09-2.4-.09m0,51.48A20.34,20.34,0,1,1,83,212.16,20.36,20.36,0,0,1,62.67,232.5m0-36.49a16.16,16.16,0,1,0,16.16,16.15A16.16,16.16,0,0,0,62.67,196"/><path class="cls-4" d="M119.45,191.89,63.09,93.15S51,67.3,62.33,45.47c2-3,2.75-.49,3.61.86,11.59,18.18,77.72,132.12,77.72,132.12"/><path class="cls-2" d="M117.63,192.92,61.2,94C60.68,93,48.76,67,60.48,44.51l.09-.17c.39-.6,1.6-2.43,3.5-2.38s2.73,1.66,3.33,2.71c.1.19.2.37.31.54,11.48,18,77.1,131,77.76,132.19l-3.62,2.1c-.66-1.14-66.24-114.11-77.67-132-.09-.14-.19-.3-.28-.46-10,20,.4,43.76,1.05,45.21l56.32,98.65Z"/><path class="cls-5" d="M146.76,179.11c-.86,0-1.71,0-2.56.09,0,0-2.37-4.09-6.3-10.84l-24.07,13.48,6.17,10.8a33.24,33.24,0,1,0,26.76-13.53m0,51.48A18.25,18.25,0,1,1,165,212.34a18.24,18.24,0,0,1-18.25,18.25"/><path class="cls-2" d="M146.76,247.67a35.33,35.33,0,0,1-29.24-55.15L111,181l27.71-15.5,6.69,11.5a35.33,35.33,0,1,1,1.39,70.63m-30.07-65,5.79,10.16-.8,1.09a30.86,30.86,0,0,0-6.06,18.46,31.15,31.15,0,1,0,31.14-31.14c-.79,0-1.6,0-2.4.09l-1.31.1-5.92-10.2Zm30.07,50.05a20.34,20.34,0,1,1,20.34-20.34,20.36,20.36,0,0,1-20.34,20.34m0-36.49a16.16,16.16,0,1,0,16.16,16.15,16.16,16.16,0,0,0-16.16-16.15"/><path class="cls-1" d="M111.32,137a6.73,6.73,0,1,1-6.73-6.73,6.73,6.73,0,0,1,6.73,6.73"/><path class="cls-2" d="M104.59,145.81a8.82,8.82,0,1,1,8.82-8.81,8.82,8.82,0,0,1-8.82,8.81m0-13.44a4.63,4.63,0,1,0,4.64,4.63,4.63,4.63,0,0,0-4.64-4.63"/><path class="cls-6" d="M222.61,105.11c0,20.3-9.21,36.75-20.57,36.75s-20.58-16.45-20.58-36.75S190.68,68.37,202,68.37s20.57,16.45,20.57,36.74"/><path class="cls-2" d="M202,143.94c-12.71,0-22.66-17-22.66-38.83s10-38.84,22.66-38.84,22.66,17.06,22.66,38.84-9.95,38.83-22.66,38.83m0-73.48c-10,0-18.48,15.87-18.48,34.65S192,139.76,202,139.76s18.48-15.87,18.48-34.65S212.06,70.46,202,70.46"/><rect class="cls-7" x="166.69" y="107.59" width="70.7" height="31.94" rx="11.16" ry="11.16"/><path class="cls-2" d="M226.23,141.62H177.85a13.27,13.27,0,0,1-13.25-13.25v-9.62a13.27,13.27,0,0,1,13.25-13.25h48.38a13.27,13.27,0,0,1,13.25,13.25v9.62a13.27,13.27,0,0,1-13.25,13.25m-48.38-31.94a9.08,9.08,0,0,0-9.07,9.07v9.62a9.08,9.08,0,0,0,9.07,9.07h48.38a9.08,9.08,0,0,0,9.07-9.07v-9.62a9.08,9.08,0,0,0-9.07-9.07Z"/><path class="cls-8" d="M261.17,225.12c0,6.36-3.09,31-33.17,31H176.83c-32.25,0-34.11-29.6-34.11-36V165.27c0-6.38,0-32.56,24.58-34.42h70.15c7.35,0,25.9,8.68,23.72,40.93Z"/><path class="cls-2" d="M228,258.22H176.83c-14.28,0-25-5.77-31-16.68a46.46,46.46,0,0,1-5.22-21.39V165.27c0-28.51,14.42-35.59,26.52-36.5h70.3c4,0,10.54,2.11,16.1,8.07,5.14,5.49,11,16,9.72,35v53.27c0,12.29-7.43,33.1-35.27,33.1M167.39,132.94c-15,1.17-22.58,12.05-22.58,32.33v54.88c0,5.66,1.55,33.88,32,33.88H228c30.21,0,31.08-26,31.08-28.91V171.64c1.18-17.55-4-27.06-8.59-31.95-5-5.33-10.55-6.75-13.05-6.75Z"/><path class="cls-9" d="M237.72,212.71a16.46,16.46,0,0,1-16.46,16.46H182.81a16.46,16.46,0,0,1-16.46-16.46V174.26a16.46,16.46,0,0,1,16.46-16.46h38.45a16.46,16.46,0,0,1,16.46,16.46Z"/><path class="cls-2" d="M221.26,231.26H182.81a18.57,18.57,0,0,1-18.55-18.55V174.26a18.57,18.57,0,0,1,18.55-18.55h38.45a18.58,18.58,0,0,1,18.56,18.55v38.45a18.58,18.58,0,0,1-18.56,18.55m-38.45-71.37a14.39,14.39,0,0,0-14.37,14.37v38.45a14.39,14.39,0,0,0,14.37,14.37h38.45a14.39,14.39,0,0,0,14.37-14.37V174.26a14.39,14.39,0,0,0-14.37-14.37Z"/></svg>