<?xml version="1.0" encoding="utf-8"?>
<!-- Generator: Adobe Illustrator 16.0.0, SVG Export Plug-In . SVG Version: 6.00 Build 0)  -->
<!DOCTYPE svg PUBLIC "-//W3C//DTD SVG 1.1//EN" "http://www.w3.org/Graphics/SVG/1.1/DTD/svg11.dtd">
<svg version="1.1" id="Layer_1" xmlns="http://www.w3.org/2000/svg" xmlns:xlink="http://www.w3.org/1999/xlink" x="0px" y="0px"
	 width="500px" height="500px" viewBox="0 0 500 500" enable-background="new 0 0 500 500" xml:space="preserve">
<g id="Layer_1_copy_79">
	<g>
		<g>
			<path fill="#FDDC1F" d="M482.699,248.187c0,127.437-103.306,230.738-230.738,230.738c-127.429,0-230.733-103.301-230.733-230.738
				c0-127.43,103.305-230.734,230.733-230.734C379.395,17.452,482.699,120.757,482.699,248.187z"/>
		</g>
		<g>
			<path fill="#FCB022" d="M251.961,482.385c-129.135,0-234.198-105.062-234.198-234.199S122.826,13.989,251.961,13.989
				c129.14,0,234.199,105.062,234.199,234.197C486.16,377.322,381.101,482.385,251.961,482.385z M251.961,20.915
				c-125.316,0-227.27,101.953-227.27,227.271c0,125.321,101.953,227.277,227.27,227.277c125.321,0,227.277-101.956,227.277-227.277
				C479.238,122.868,377.282,20.915,251.961,20.915z"/>
		</g>
	</g>
	<g>
		<path fill="#4C230D" d="M249.243,283.477c-4.398,0-7.594-1.515-9.721-3.072c-5.143-3.771-8.091-10.844-8.091-19.385
			c0-15.24,15.536-19.271,23.75-19.271c1.91,0,3.461,1.554,3.461,3.465s-1.547,3.46-3.455,3.46
			c-0.75,0.008-16.831,0.241-16.831,12.346c0,6.312,1.918,11.344,5.259,13.801c2.669,1.953,6.208,2.258,10.524,0.899
			c1.838-0.588,3.772,0.445,4.346,2.263c0.574,1.828-0.441,3.774-2.269,4.34C253.624,283.145,251.3,283.477,249.243,283.477z"/>
	</g>
	<g>
		<g>
			<path fill="#C12026" d="M239.979,345.443c0,0-58.223-4.771-74.448,32.926c-8.115,31.984,41.522,27.761,41.522,27.761l83.515,1.33
				c0,0,33.886,0.026,34.841-22.883C325.408,384.577,329.704,345.917,239.979,345.443z"/>
		</g>
		<g>
			<path fill="#4C230D" d="M290.566,410.926c-0.014,0-0.034,0-0.053,0l-83.355-1.328c-0.615,0.041-2.689,0.176-5.626,0.176
				c-10.009,0-28.008-1.563-36.176-12.067c-4.154-5.343-5.223-12.132-3.185-20.187c0.046-0.177,0.106-0.354,0.177-0.518
				c13.682-31.787,54.439-35.218,71.33-35.218c3.529,0,5.86,0.155,6.444,0.198c40.241,0.226,67.435,7.955,80.806,22.975
				c8.395,9.436,8.043,18.486,7.935,19.845C327.716,410.63,292.086,410.926,290.566,410.926z M207.053,402.667
				c0.018,0,0.035,0,0.053,0l83.483,1.332c0.948-0.006,30.565-0.476,31.358-19.562c0.007-0.08,0.011-0.164,0.021-0.242
				c0.02-0.256,0.558-7.191-6.437-14.879c-8.342-9.172-28.225-20.164-75.566-20.41c-0.089,0-0.177-0.01-0.263-0.016
				c-0.024,0-2.314-0.178-6.023-0.178c-15.471,0-52.687,3.001-64.857,30.773c-1.427,5.834-0.771,10.404,1.999,13.966
				c6.597,8.479,23.676,9.399,30.712,9.399c3.143,0,5.209-0.17,5.227-0.177C206.854,402.667,206.953,402.667,207.053,402.667z"/>
		</g>
	</g>
	<g>
		<g>
			<path fill="#DEF2FD" d="M224.443,181.228c0,32.352-24.879,58.578-55.562,58.578c-30.682,0-55.561-26.227-55.561-58.578
				c0-32.35,24.879-58.578,55.561-58.578C199.564,122.65,224.443,148.878,224.443,181.228z"/>
		</g>
		<g>
			<path fill="#C3E5F2" d="M168.881,242.114c-31.906,0-57.868-27.313-57.868-60.886c0-33.574,25.962-60.887,57.868-60.887
				c31.907,0,57.869,27.313,57.869,60.887C226.75,214.8,200.788,242.114,168.881,242.114z M168.881,124.959
				c-29.365,0-53.249,25.242-53.249,56.269c0,31.028,23.884,56.268,53.249,56.268c29.363,0,53.254-25.24,53.254-56.268
				C222.135,150.201,198.244,124.959,168.881,124.959z"/>
		</g>
	</g>
	<g>
		<path fill="#010101" d="M204.64,193.057c0,14.023-11.283,25.394-25.205,25.394c-13.915,0-25.197-11.37-25.197-25.394
			s11.282-25.394,25.197-25.394C193.356,167.663,204.64,179.032,204.64,193.057z"/>
	</g>
	<g>
		<g>
			<ellipse fill="#DEF2FD" cx="320.857" cy="181.228" rx="55.562" ry="58.578"/>
		</g>
		<g>
			<path fill="#C3E5F2" d="M320.856,242.114c-31.911,0-57.868-27.313-57.868-60.886c0-33.574,25.957-60.887,57.868-60.887
				c31.91,0,57.868,27.313,57.868,60.887C378.726,214.8,352.768,242.114,320.856,242.114z M320.856,124.959
				c-29.365,0-53.249,25.242-53.249,56.269c0,31.028,23.884,56.268,53.249,56.268c29.362,0,53.251-25.24,53.251-56.268
				C374.107,150.201,350.22,124.959,320.856,124.959z"/>
		</g>
	</g>
	<g>
		<ellipse fill="#010101" cx="310.299" cy="193.057" rx="25.202" ry="25.394"/>
	</g>
	<g>
		<path fill="#F284B5" d="M406.248,294.631c0,12.321-12.227,22.316-27.321,22.316c-15.086,0-27.312-9.995-27.312-22.316
			c0-12.322,12.227-22.316,27.312-22.316C394.021,272.314,406.248,282.309,406.248,294.631z"/>
	</g>
	<g>
		<path fill="#F284B5" d="M150.392,293.088c0,12.33-12.231,22.316-27.318,22.316c-15.09,0-27.32-9.986-27.32-22.316
			c0-12.322,12.23-22.311,27.32-22.311C138.16,270.777,150.392,280.766,150.392,293.088z"/>
	</g>
	<g>
		<g>
			<path fill="#010101" d="M173.125,84.874c0,0,12.252-11.692,3.11-15.247c-9.141-3.55-11.396,5.133-17.203,12.37
				c-5.814,7.237-26.178,11.501-35.456,8.641C151.541,104.534,173.125,84.874,173.125,84.874z"/>
		</g>
		<g>
			<path fill="#010101" d="M143.907,97.915h-0.003c-7.213,0-14.4-1.751-21.354-5.209c-1.079-0.536-1.563-1.808-1.118-2.922
				c0.446-1.119,1.678-1.71,2.824-1.353c1.688,0.522,3.956,0.797,6.555,0.797c10.365,0,22.712-4.052,26.421-8.674
				c1.278-1.593,2.393-3.283,3.468-4.916c2.956-4.494,6.013-9.141,11.65-9.141c1.486,0,3.029,0.321,4.725,0.979
				c3.331,1.295,4.409,3.49,4.731,5.104c1.14,5.765-5.704,12.646-7.089,13.966C174.168,87.043,162.026,97.915,143.907,97.915z
				 M139.544,93.061c1.455,0.158,2.909,0.236,4.36,0.237c16.279,0,27.557-10.031,27.667-10.132c2.637-2.526,6.193-7.242,5.704-9.693
				c-0.057-0.287-0.208-1.047-1.875-1.695c-4.966-1.925-7,0.552-10.848,6.396c-1.136,1.722-2.307,3.507-3.719,5.268
				C157.019,88.192,148.133,91.605,139.544,93.061z"/>
		</g>
	</g>
	<g>
		<g>
			<path fill="#010101" d="M322.592,84.909c0,0-13.374-10.402-4.633-14.856c8.733-4.453,11.854,3.96,18.359,10.577
				c6.512,6.616,27.2,8.804,36.146,5.028C346.041,102.296,322.592,84.909,322.592,84.909z"/>
		</g>
		<g>
			<path fill="#010101" d="M348.436,95.17c-15.7,0-26.762-8.063-27.225-8.409c-1.546-1.205-9.052-7.363-8.497-13.214
				c0.156-1.637,1.013-3.928,4.194-5.553c1.978-1.009,3.801-1.499,5.58-1.499c5.046,0,8.199,3.872,11.529,7.97
				c1.234,1.52,2.513,3.089,3.945,4.544c3.529,3.583,13.077,6.186,22.71,6.186c4.483,0,8.353-0.593,10.896-1.665
				c1.089-0.466,2.382-0.011,2.94,1.058c0.559,1.066,0.201,2.38-0.813,3.02C365.728,92.627,357.23,95.17,348.436,95.17z
				 M322.488,71.115c-1.029,0-2.169,0.325-3.485,0.995c-1.589,0.812-1.663,1.583-1.692,1.874c-0.235,2.49,3.773,6.823,6.699,9.105
				c0.055,0.039,10.307,7.466,24.426,7.466c2.817,0,5.609-0.292,8.353-0.875c-8.397-0.561-17.673-2.918-22.113-7.43
				c-1.586-1.612-2.935-3.269-4.236-4.87C327.276,73.495,325.203,71.115,322.488,71.115z"/>
		</g>
	</g>
	<g>
		<path fill="#F3F3F3" d="M191.559,184.208c0,2.76-2.239,5-5.004,5c-2.761,0-4.997-2.24-4.997-5c0-2.762,2.236-5.002,4.997-5.002
			C189.319,179.206,191.559,181.446,191.559,184.208z"/>
	</g>
	<g>
		<circle fill="#F3F3F3" cx="298.902" cy="186.229" r="5"/>
	</g>
</g>
</svg>
