<?xml version="1.0" encoding="utf-8"?>
<!-- Generator: Adobe Illustrator 16.0.0, SVG Export Plug-In . SVG Version: 6.00 Build 0)  -->
<!DOCTYPE svg PUBLIC "-//W3C//DTD SVG 1.1//EN" "http://www.w3.org/Graphics/SVG/1.1/DTD/svg11.dtd">
<svg version="1.1" id="Layer_1" xmlns="http://www.w3.org/2000/svg" xmlns:xlink="http://www.w3.org/1999/xlink" x="0px" y="0px"
	 width="500px" height="500px" viewBox="0 0 500 500" enable-background="new 0 0 500 500" xml:space="preserve">
<g id="Layer_1_copy_99">
	<g>
		<path d="M351.449,75.336c-12.562-38.078-43.594-59.042-88.831-61.507c-16.237-0.874-32.531-1.442-48.78-1.214
			c-73.129,0.992-116.802,64.078-95.945,138.371c12.042,42.903-0.982,119.889,11.369,162.715c1.76,6.105,30.144-22.225,32.699-16.29
			c26.93-13.427,63.385-39.122,66.258-50.005c-1.282-2.279-62.7-25.5-63.784-27.917c-7.913-10.59-13.541-22.925-16.145-36.303
			c-1.794,1.253-3.804,2.025-5.96,2.025c-7.214,0-13.068-7.88-13.068-17.602c0-9.716,5.854-17.601,13.068-17.601
			c2.004,0,3.878,0.66,5.579,1.743c3.341-20.196,13.506-38.158,28.115-51.532c5.56-7.767,12.079-14.042,19.42-18.116
			c0.595,1.186,1.196,2.389,1.79,3.579c12.565-6.26,26.788-9.815,41.876-9.815c44.852,0,82.226,31.189,90.692,72.575
			c0.989-0.321,2.015-0.54,3.078-0.54c7.222,0,13.073,7.876,13.073,17.592c0,9.717-5.853,17.601-13.073,17.601
			c-0.981,0-1.938-0.174-2.862-0.454c-3.594,19.103-71.947,61.521-85.742,74.395c4.663,3.571,84.914,62.489,109.146,52.618
			c11.813-23.564-0.415-147.312,3.87-171.604C360.865,117.817,358.003,95.198,351.449,75.336z"/>
	</g>
	<g>
		<g>
			<path fill="#FCC393" d="M203.343,248.542c0,0-0.541,23.856-11.189,30.097c-10.634,6.246-14.8,78.396-14.8,78.396l128.066,23.222
				l-13.973-83.775l-15.346-25.713c0,0-5.07-8.257-2.216-22.225C276.732,234.575,203.246,237.317,203.343,248.542z"/>
		</g>
		<g>
			<path fill="#281912" d="M309.171,384.057L174.13,359.57l0.157-2.713c0.997-17.31,5.13-74.305,16.312-80.873
				c7.518-4.405,9.53-21.355,9.674-27.514c-0.013-1.035,0.328-2.739,1.987-4.415c6.311-6.364,28.298-8.062,40.294-8.062
				c10.025,0,27.619,0.958,32.86,7.38c1.396,1.708,1.906,3.704,1.479,5.784c-2.541,12.459,1.658,19.718,1.838,20.022l15.648,26.221
				l0.102,0.568L309.171,384.057z M180.586,354.493l121.086,21.95l-13.166-78.889l-15.046-25.211
				c-0.213-0.347-5.647-9.435-2.589-24.418c0.033-0.161,0.066-0.317-0.221-0.665c-2.015-2.466-11.664-5.125-28.097-5.125
				c-21.834,0-35.149,4.26-36.157,6.539c-0.038,2.556-0.905,25.703-12.686,32.616C188.166,284.542,182.679,321.268,180.586,354.493z
				"/>
		</g>
	</g>
	<g>
		<g>
			<path fill="#FCC393" d="M332.881,148.327c-1.063,0-2.089,0.219-3.078,0.544c-8.467-41.386-45.841-72.574-90.692-72.574
				c-46.031,0-84.088,32.873-91.201,75.884c-1.701-1.089-3.575-1.745-5.579-1.745c-7.214,0-13.068,7.885-13.068,17.601
				c0,9.718,5.854,17.602,13.068,17.602c2.156,0,4.166-0.772,5.96-2.029c8.126,41.801,45.671,73.427,90.82,73.427
				c45.35,0,82.996-31.902,90.908-73.97c0.924,0.284,1.881,0.458,2.862,0.458c7.223,0,13.073-7.883,13.073-17.6
				C345.954,156.207,340.103,148.327,332.881,148.327z"/>
		</g>
		<g>
			<path fill="#281912" d="M239.11,260.115c-44.45,0-82.915-30.043-92.987-72.001c-1.24,0.402-2.508,0.598-3.793,0.598
				c-8.899,0-16.143-9.275-16.143-20.674c0-11.403,7.243-20.678,16.143-20.678c1.103,0,2.194,0.147,3.273,0.443
				c9.067-43.448,47.768-74.584,93.507-74.584c44.359,0,82.996,30.129,93.042,72.059c0.243-0.017,0.489-0.022,0.729-0.022
				c8.907,0,16.147,9.271,16.147,20.67c0,11.594-7.543,21.003-16.598,20.663C322.938,229.371,284.172,260.115,239.11,260.115z
				 M150.397,178.379l0.912,4.646c7.995,41.102,44.916,70.939,87.801,70.939c43.138,0,80.101-30.056,87.886-71.466l0.632-3.367
				l3.284,0.996c0.717,0.213,1.363,0.32,1.969,0.32c5.425,0,9.998-6.648,9.998-14.523c0-7.872-4.573-14.524-9.998-14.524
				c-0.624,0-1.317,0.129-2.122,0.393l-3.276,1.074l-0.694-3.38c-8.31-40.629-45.183-70.119-87.677-70.119
				c-44.062,0-81.145,30.833-88.164,73.316l-0.763,4.603l-3.93-2.515c-6.777-4.33-13.921,3.508-13.921,13.265
				c0,9.892,7.371,17.833,14.19,13.058L150.397,178.379z"/>
		</g>
	</g>
	<g>
		<path fill="#141211" d="M205.812,165.919c0,7.033-4.558,12.731-10.174,12.731c-5.618,0-10.182-5.698-10.182-12.731
			c0-7.031,4.563-12.731,10.182-12.731C201.255,153.188,205.812,158.888,205.812,165.919z"/>
	</g>
	<g>
		<path fill="#FFFFFA" d="M197.743,165.924c0,2.447-1.843,4.427-4.111,4.427c-2.267,0-4.109-1.98-4.109-4.427
			c0-2.453,1.843-4.433,4.109-4.433C195.9,161.491,197.743,163.472,197.743,165.924z"/>
	</g>
	<g>
		<path fill="#141211" d="M288.752,165.919c0,7.033-4.562,12.731-10.177,12.731c-5.623,0-10.181-5.698-10.181-12.731
			c0-7.031,4.558-12.731,10.181-12.731C284.189,153.188,288.752,158.888,288.752,165.919z"/>
	</g>
	<g>
		<path fill="#FFFFFA" d="M280.684,165.924c0,2.447-1.844,4.427-4.106,4.427c-2.272,0-4.11-1.98-4.11-4.427
			c0-2.453,1.838-4.433,4.11-4.433C278.84,161.491,280.684,163.472,280.684,165.924z"/>
	</g>
	<g>
		<path fill="#834C1F" d="M229.398,189.126c0,0,13.414,1.997,15.263-5.491c1.851-7.487,0-22.145,0-22.145s8.317,11.163,4.163,24.646
			C244.661,199.614,222.996,189.014,229.398,189.126z"/>
	</g>
	<g opacity="0.7">
		<g>
			<path fill="#F9A880" d="M197.743,193.875c0,4.552-5.746,8.236-12.853,8.236c-7.092,0-12.842-3.684-12.842-8.236
				c0-4.553,5.75-8.237,12.842-8.237C191.997,185.639,197.743,189.323,197.743,193.875z"/>
		</g>
	</g>
	<g opacity="0.7">
		<g>
			<path fill="#F9A880" d="M308.85,192.984c0,4.553-5.754,8.234-12.845,8.234c-7.096,0-12.853-3.682-12.853-8.234
				c0-4.554,5.757-8.236,12.853-8.236C303.096,184.748,308.85,188.43,308.85,192.984z"/>
		</g>
	</g>
	<g>
		<path fill="#FFFFFF" d="M211.824,205.606c0,0,6.012,23.465,27.286,22.468c21.273-1.005,29.285-22.468,29.285-22.468
			s-9.4,11.249-29.285,11.249C218.684,216.855,211.824,205.606,211.824,205.606z"/>
	</g>
	<g>
		<path fill="#301E12" d="M181.034,151.316c0,0,4.629-6.497,13.417-5.748c8.79,0.749,9.713,2.496,10.177-2.244
			c0.46-4.745-3.706-5.744-10.177-4.995C187.979,139.078,175.49,152.818,181.034,151.316z"/>
	</g>
	<g>
		<path fill="#301E12" d="M294.268,151.316c0,0-4.621-6.497-13.41-5.748c-8.787,0.749-9.709,2.496-10.172-2.244
			c-0.465-4.745,3.705-5.744,10.172-4.995C287.336,139.078,299.818,152.818,294.268,151.316z"/>
	</g>
	<g>
		<path fill="#D91F5D" d="M192.153,278.639c0,0-11.415,49.346,40.515,47.688c58.523-1.868,48.984-28.61,50.484-48.835
			c0,0-9.937-3.589,38.739,7.647c48.684,11.229,64.413,24.713,71.899,118.327c3.747,26.96-36.697,23.172-36.697,23.172
			l-242.646,1.614c0,0-34.447,5.167-26.96-33.023C94.975,357.033,90.282,279.583,192.153,278.639z"/>
		<path fill="#281912" d="M110.49,431.562c-5.395,0-15.385-1.143-21.673-8.79c-5.287-6.423-6.751-15.896-4.349-28.139
			c0.956-4.887,1.729-10.528,2.54-16.499c5.522-40.51,13.865-101.722,105.119-102.568c0.011,0,0.018,0,0.025,0
			c0.934,0,1.812,0.418,2.396,1.148c0.589,0.73,0.813,1.695,0.604,2.614c-0.045,0.196-4.416,19.985,5.772,32.767
			c5.922,7.43,15.752,11.196,29.213,11.196c0.796,0,1.604-0.013,2.433-0.038c47.379-1.514,47.342-18.753,47.309-37
			c-0.005-2.381-0.008-4.824,0.102-7.208c-0.789-0.903-0.809-1.897-0.695-2.549c0.213-1.209,1.232-2.627,3.398-2.627
			c1.006,0,4.068,0,39.899,8.271c51.784,11.946,66.854,28.366,74.271,121.082c0.924,6.603-0.557,12.288-4.416,16.719
			c-7.531,8.657-22.277,9.95-30.395,9.95c-2.648,0-4.521-0.139-5.069-0.184l-242.313,1.614
			C114.089,431.395,112.562,431.562,110.49,431.562z M188.507,281.783c-82.48,2.334-89.938,57.062-95.408,97.182
			c-0.822,6.064-1.603,11.788-2.593,16.854c-2.036,10.356-1.005,18.109,3.056,23.049c4.689,5.697,12.621,6.547,16.929,6.547
			c2.097,0,3.493-0.202,3.505-0.202c0.143-0.021,0.292-0.038,0.435-0.038l242.647-1.605c0.09-0.012,0.201,0,0.298,0.008
			c0.023,0,1.872,0.169,4.67,0.169c5.695,0,19.602-0.763,25.762-7.836c2.671-3.07,3.637-7.005,2.94-12.022
			c-7.502-93.715-23.135-105.041-69.546-115.753c-21.227-4.901-30.806-6.86-35.124-7.625c-0.061,1.845-0.049,3.755-0.049,5.733
			c0.033,18.47,0.078,41.454-53.267,43.156c-0.896,0.033-1.768,0.045-2.623,0.045c-15.445,0-26.903-4.557-34.048-13.543
			C186.919,304.364,187.58,288.891,188.507,281.783z"/>
	</g>
	<g>
		<path d="M354.155,151.677C375.01,77.384,331.334,14.295,258.21,13.305c-16.25-0.229-32.543,0.342-48.773,1.216
			c-45.246,2.462-76.278,23.43-88.839,61.507c-6.554,19.862-7.237,50.106-5.844,62.712c25.014-11.522,35.494,17.173,35.494,17.173
			c26.52-17.392,72.057-49.103,101.773-68.406c-6.034,20.624-35.9,33.047-35.9,36.12c2.638,1.048,46.844-13.695,58.184-36.389
			c14.287,7.92,48.702,40.693,53.688,65.95C327.993,153.188,331.29,130.529,354.155,151.677z"/>
	</g>
	<g>
		<path fill="none" stroke="#281912" stroke-width="6.1491" stroke-linejoin="round" stroke-miterlimit="10" d="M290.225,302.717"/>
	</g>
	<g>
		<path fill="#D91F5D" d="M342.15,185.639c0,2.948-2.529,5.337-5.639,5.337c-3.111,0-5.639-2.389-5.639-5.337
			c0-2.952,2.526-5.343,5.639-5.343C339.621,180.296,342.15,182.687,342.15,185.639z"/>
	</g>
	<g>
		<path fill="#D91F5D" d="M147.939,185.639c0,2.948-2.522,5.337-5.639,5.337c-3.108,0-5.635-2.389-5.635-5.337
			c0-2.952,2.526-5.343,5.635-5.343C145.417,180.296,147.939,182.687,147.939,185.639z"/>
	</g>
	<g>
		<path fill="#FBB041" d="M345.7,289.791c13.883,8.804,0.422,37.342-6.284,50.902c-16.224,32.795-43.673,84.697-92.236,86.314
			c-48.562,1.621-97.56-89.834-90.647-100.521c1.577-2.432,1.169-6.568-0.796-8.518c-7.909-7.857-1.793-14.062,1.678-21.507
			c0,0,1.942-32.956,20.418-24.655c18.468,8.301,25.279,78.452,62.395,76.933c42.889-1.757,45.579-56.617,49.999-70.966
			C300.106,255.859,342.521,287.766,345.7,289.791z"/>
		<path fill="#281912" d="M245.895,430.102c-15.08,0-31.018-7.991-47.383-23.754c-12.501-12.051-25.006-28.754-34.294-45.828
			c-4.585-8.422-14.754-28.763-10.26-35.705c0.833-1.293,0.481-3.801-0.389-4.662c-8.111-8.058-4.117-15.348-0.911-21.207
			c0.59-1.074,1.195-2.182,1.729-3.28c0.348-4.306,2.967-28.272,17.844-28.272c2.171,0,4.479,0.545,6.856,1.608
			c8.212,3.688,13.729,16.394,20.126,31.101c9.293,21.363,19.825,45.582,39.832,45.586l0,0c0.352,0,0.699-0.009,1.057-0.02
			c33.544-1.379,40.949-38.719,44.925-58.779c0.808-4.051,1.498-7.551,2.257-10.018c0.041-0.123,0.086-0.243,0.139-0.36
			c2.791-6.194,8.126-9.462,15.426-9.462c10.335,0,24.889,6.487,43.25,19.29c0.606,0.425,1.024,0.72,1.249,0.861
			c16.724,10.6,0.811,42.751-5.179,54.854c-13.854,28.009-42.687,86.289-94.889,88.026
			C246.822,430.099,246.306,430.188,245.895,430.102z M172.231,273.541c-8.45,0-11.385,17.111-11.747,23.107
			c-0.021,0.384-0.119,0.763-0.283,1.115c-0.676,1.443-1.424,2.812-2.152,4.139c-3.362,6.137-4.771,9.287-0.146,13.888
			c2.989,2.961,3.553,8.744,1.214,12.364c-1.18,2.248,2.056,15.857,14.893,37.064c17.187,28.398,45.101,58.732,71.885,58.74h0.003
			c0.394,0,0.789-0.011,1.182-0.022c48.521-1.622,76.255-57.676,89.579-84.607c4.812-9.722,19.442-39.3,7.395-46.938
			c-0.266-0.17-0.767-0.513-1.465-1.008c-21.573-15.031-33.515-18.186-39.739-18.186c-4.829,0-7.935,1.803-9.74,5.673
			c-0.648,2.164-1.299,5.44-2.047,9.217c-4.309,21.718-12.318,62.149-50.704,63.724c-0.445,0.02-0.882,0.022-1.312,0.022l0,0
			c-24.042,0-35.92-27.321-45.469-49.278c-5.646-12.979-10.974-25.232-17.008-27.943
			C174.992,273.902,173.527,273.541,172.231,273.541z"/>
	</g>
	<path d="M233.966,350.173"/>
	<g>
		<path fill="#FBB041" d="M124.674,311.793c-1.442-18.659-2.706-25.954,6.489-30.132c14.201-6.457,40.997-10.761,40.997-10.761
			s9.816-4.231,10.798,13.766c0.987,18.002,12.173,142.271,12.173,142.271l-65.504,0.069
			C129.627,427.008,125.974,328.663,124.674,311.793z"/>
		<path fill="#281912" d="M129.627,430.083c-1.655,0-3.011-1.308-3.074-2.96c-0.033-0.985-3.665-98.479-4.95-115.096l-0.28-3.575
			c-1.315-16.509-1.973-24.802,8.571-29.593c13.768-6.256,38.329-10.43,41.475-10.953c0.613-0.202,1.76-0.516,3.191-0.516
			c3.938,0,10.655,2.227,11.474,17.11c0.968,17.739,12.05,140.914,12.161,142.158c0.074,0.858-0.212,1.712-0.795,2.35
			c-0.58,0.641-1.401,0.999-2.265,0.999l-65.503,0.074C129.627,430.083,129.627,430.083,129.627,430.083z M174.56,273.541
			c-0.706,0-1.226,0.201-1.236,0.201c-0.195,0.08-0.464,0.16-0.678,0.189c-0.257,0.045-26.553,4.321-40.205,10.525
			c-6.377,2.896-6.31,6.925-4.987,23.504l0.287,3.596c1.177,15.291,4.219,95.549,4.847,112.372l59.182-0.066
			c-1.794-19.97-10.992-122.845-11.882-139.024C179.704,281.441,178.811,273.541,174.56,273.541z"/>
	</g>
	<g>
		<g>
			<g>
				<path fill="#FAA625" d="M322.501,271.409c0,9.649-4.412,17.473-9.848,17.473c-5.434,0-9.847-7.821-9.847-17.473
					c0-9.648,4.413-17.47,9.847-17.47C318.089,253.939,322.501,261.76,322.501,271.409z"/>
			</g>
			<g>
				<path fill="#27140E" d="M312.653,289.139c-5.567,0-10.1-7.953-10.1-17.729c0-9.774,4.531-17.726,10.1-17.726
					c5.569,0,10.103,7.95,10.103,17.726C322.756,281.186,318.224,289.139,312.653,289.139z M312.653,254.191
					c-5.287,0-9.587,7.725-9.587,17.218s4.3,17.219,9.587,17.219c5.29,0,9.594-7.726,9.594-17.219S317.943,254.191,312.653,254.191z
					"/>
			</g>
		</g>
		<g>
			<g>
				<path fill="#6D7EBE" d="M302.46,320.324c0-12.452,0-24.901,0-37.352c6.995,0,13.989,0,20.987,0c0,11.991,0,25.078,0,37.07
					L302.46,320.324z"/>
			</g>
			<g>
				<path fill="#27140E" d="M302.46,322.107c-0.467,0-0.918-0.188-1.251-0.518c-0.34-0.335-0.527-0.789-0.527-1.267v-37.353
					c0-0.979,0.792-1.785,1.778-1.785h20.987c0.985,0,1.781,0.806,1.781,1.785v37.071c0,0.972-0.784,1.769-1.757,1.778
					l-20.988,0.285C302.479,322.107,302.468,322.107,302.46,322.107z M304.239,284.75v33.766l17.429-0.23V284.75H304.239z"/>
			</g>
		</g>
		<g>
			<g>
				<rect x="219.737" y="346.236" fill="#894620" width="186.545" height="67.05"/>
			</g>
			<g>
				<path fill="#27140E" d="M406.282,415.068H219.737c-0.982,0-1.786-0.801-1.786-1.782v-67.05c0-0.979,0.804-1.778,1.786-1.778
					h186.545c0.981,0,1.777,0.799,1.777,1.778v67.05C408.061,414.268,407.265,415.068,406.282,415.068z M221.52,411.503h182.981
					v-63.481H221.52V411.503z"/>
			</g>
		</g>
		<g>
			<g>
				<path fill="#F0516C" d="M239.386,320.208c-12.983-0.548-25.903-1.028-29.142,8.161c0,6.184,0,13.68,0,20.986
					c0,6.982-1.63,15.393,3.448,18.102c7.166,2.742,18.938-11.803,23.362-12.271c17.803-1.896,24.689,13.998,37.31,13.99
					c7.905-0.011,17.505-10.318,27.979-12.826c23.613-5.656,33.646,13.689,50.133,12.826c11.643-0.611,21.494-13.929,32.646-13.99
					c12.243-0.076,22.754,16.326,30.312,13.99c7.555-2.339,6.797-43.865-8.159-48.968
					C401.553,318.254,239.386,320.208,239.386,320.208z"/>
			</g>
			<g>
				<path fill="#27140E" d="M413.89,371.182L413.89,371.182c-3.894,0-7.815-2.93-12.363-6.317c-4.97-3.702-10.6-7.898-16.322-7.898
					h-0.071c-5.1,0.03-10.062,3.214-15.314,6.593c-5.409,3.475-11.002,7.067-17.246,7.396c-7.47,0.389-13.506-2.97-19.902-6.538
					c-6.459-3.598-13.146-7.326-21.887-7.326c-2.582,0-5.283,0.336-8.022,0.989c-4.685,1.125-9.265,3.948-13.692,6.683
					c-5.158,3.178-10.039,6.189-14.701,6.192c-6.112,0-10.794-3.229-15.748-6.661c-5.324-3.682-10.832-7.482-18.662-7.482
					c-0.882,0-1.797,0.049-2.717,0.142c-1.136,0.127-4.128,2.524-6.53,4.446c-4.786,3.841-10.207,8.188-15.068,8.188
					c-0.915,0-1.778-0.159-2.581-0.463c-0.071-0.03-0.139-0.062-0.206-0.099c-5.074-2.704-4.79-9.242-4.517-15.561
					c0.06-1.375,0.123-2.791,0.123-4.109v-20.986c0-0.202,0.03-0.4,0.104-0.594c2.981-8.459,12.751-9.601,21.917-9.601
					c2.981,0,6.138,0.132,8.929,0.248c2.228-0.026,73.144-0.864,121.797-0.864c43.822,0,45.799,0.674,46.646,0.963
					c9.957,3.398,14.265,20.496,14.06,34.946c-0.071,4.704-0.785,15.808-5.948,17.408
					C415.306,371.082,414.604,371.182,413.89,371.182z M385.203,353.4c6.903,0,13.038,4.574,18.449,8.609
					c3.871,2.885,7.527,5.615,10.236,5.615l0,0c0.365,0,0.694-0.053,1.023-0.152c1.346-0.42,3.307-5.06,3.438-14.054
					c0.099-6.89-0.923-14.094-2.811-19.771c-1.494-4.494-4.24-10.186-8.844-11.756c-1.038-0.283-8.368-0.771-45.491-0.771
					c-49.165,0-121.075,0.855-121.8,0.865c-0.03,0-0.061,0-0.094,0c-2.769-0.115-5.907-0.25-8.832-0.25
					c-11.019,0-16.57,2.082-18.457,6.947v20.67c0,1.398-0.067,2.858-0.128,4.268c-0.234,5.396-0.459,10.496,2.538,12.21
					c0.365,0.127,0.766,0.19,1.206,0.19c3.61,0,8.732-4.106,12.837-7.401c3.468-2.779,6.207-4.976,8.392-5.208
					c1.035-0.112,2.074-0.164,3.087-0.164c8.94,0,15.18,4.314,20.688,8.113c4.683,3.235,8.717,6.026,13.709,6.026
					c3.668-0.003,8.121-2.749,12.844-5.659c4.668-2.881,9.498-5.854,14.736-7.109c3.013-0.721,5.988-1.092,8.852-1.092
					c9.669,0,17.078,4.134,23.616,7.779c5.646,3.146,10.97,6.111,17,6.111c0.324,0,0.652-0.012,0.985-0.029
					c5.302-0.275,10.487-3.605,15.509-6.83c5.443-3.5,11.082-7.121,17.222-7.158H385.203L385.203,353.4z"/>
			</g>
		</g>
		<g>
			<g>
				<path fill="#623214" d="M406.282,378.58c0,13.988,0,27.977,0,41.973c6.097,1.675,13.609,1.929,17.484,5.828
					c2.253,4.354,2.784,10.429,2.335,17.486c-75.396,0-150.789,0-226.188,0c-2.145-16.143,4.346-23.641,19.824-22.152
					c0-14.77,0-29.535,0-44.305c9.561-4.521,15.012-7.17,24.479-5.828c9.792,1.383,17.296,9.932,26.818,10.495
					c14.967,0.882,28.41-11.952,44.304-10.495c15.658,1.436,20.895,11.943,38.477,10.495
					C370.292,380.717,388.139,361.896,406.282,378.58z"/>
			</g>
			<g>
				<path fill="#27140E" d="M426.103,445.648H199.913c-0.89,0-1.645-0.665-1.76-1.548c-1.14-8.548,0.097-14.951,3.672-19.03
					c3.087-3.534,7.88-5.32,14.247-5.32c0.605,0,1.236,0.02,1.879,0.048V377.41c0-0.689,0.404-1.314,1.028-1.609l0.344-0.164
					c7.88-3.722,13.079-6.184,20.22-6.184c1.58,0,3.19,0.119,4.928,0.365c5.029,0.709,9.4,3.139,13.623,5.484
					c4.375,2.428,8.508,4.727,13.051,4.987c0.455,0.034,0.918,0.046,1.387,0.046c6.354,0,12.472-2.475,18.945-5.098
					c6.763-2.728,13.744-5.555,21.322-5.555c0.904,0,1.812,0.043,2.701,0.118c7.229,0.665,12.292,3.153,17.194,5.56
					c5.309,2.601,10.321,5.066,17.874,5.066h0.004c0.997,0,2.043-0.044,3.093-0.128c5.029-0.417,10.241-2.565,15.759-4.85
					c6.584-2.707,13.388-5.515,20.434-5.515c6.494,0,12.265,2.396,17.629,7.33c0.365,0.338,0.574,0.812,0.574,1.312v40.582
					c1.277,0.308,2.616,0.568,3.916,0.826c4.86,0.957,9.882,1.945,13.058,5.134c0.125,0.123,0.235,0.275,0.317,0.44
					c2.221,4.285,3.045,10.312,2.526,18.419C427.818,444.92,427.04,445.648,426.103,445.648z M201.501,442.083H424.41
					c0.266-6.43-0.418-11.23-2.096-14.634c-2.444-2.279-6.805-3.135-11.025-3.965c-1.823-0.362-3.711-0.732-5.479-1.219
					c-0.772-0.214-1.311-0.91-1.311-1.715v-41.177c-4.51-3.953-9.308-5.873-14.644-5.873c-6.341,0-12.814,2.663-19.077,5.253
					c-5.522,2.278-11.241,4.633-16.82,5.098c-1.15,0.092-2.29,0.142-3.388,0.142h-0.004c-8.382,0-14.005-2.761-19.443-5.433
					c-4.823-2.373-9.378-4.607-15.946-5.205c-0.781-0.074-1.585-0.107-2.38-0.107c-6.882,0-13.544,2.689-19.983,5.297
					c-6.506,2.631-13.238,5.355-20.285,5.355c-0.534,0-1.071-0.021-1.604-0.049c-5.346-0.313-10.031-2.922-14.562-5.438
					c-4.117-2.285-8.01-4.449-12.389-5.067c-1.577-0.227-3.022-0.33-4.432-0.33c-6.15,0-10.954,2.178-18.023,5.521v43.176
					c0,0.5-0.212,0.982-0.59,1.318c-0.37,0.341-0.863,0.501-1.364,0.456c-7.099-0.688-12.184,0.636-15.057,3.927
					C201.841,430.461,200.828,435.393,201.501,442.083z"/>
			</g>
		</g>
		<g>
			<g>
				<path fill="#4E4E4E" d="M219.876,421.714c-15.479-1.487-21.965,6.011-19.821,22.152c75.397,0,150.79,0,226.187,0
					c0.452-7.059-0.078-13.133-2.331-17.486c-3.879-3.899-11.394-4.153-17.489-5.828L219.876,421.714z"/>
			</g>
			<g>
				<path fill="#27140E" d="M426.241,445.648H200.055c-0.89,0-1.647-0.665-1.764-1.548c-1.139-8.548,0.098-14.951,3.673-19.03
					c3.665-4.188,9.699-5.92,17.99-5.135l186.455-1.17c0.168-0.002,0.325,0.022,0.478,0.067c1.652,0.452,3.473,0.808,5.229,1.155
					c4.86,0.955,9.883,1.944,13.055,5.133c0.134,0.131,0.234,0.275,0.321,0.44c2.219,4.285,3.049,10.312,2.525,18.42
					C427.96,444.92,427.179,445.648,426.241,445.648z M201.64,442.083h222.913c0.27-6.43-0.423-11.23-2.097-14.634
					c-2.447-2.279-6.804-3.135-11.029-3.968c-1.741-0.341-3.534-0.691-5.236-1.151l-186.303,1.17c-0.063,0-0.119-0.007-0.183-0.011
					c-7.099-0.688-12.185,0.636-15.058,3.927C201.979,430.461,200.967,435.393,201.64,442.083z"/>
			</g>
		</g>
		<g>
			<g>
				<path fill="#FDD71E" d="M310.314,231.752c14.971,7.108,34.405,40.884,8.158,48.969c7.857-6.582-0.082-18.552-5.831-22.148
					c-1.249,5.74-6.248,7.734-8.159,12.822c-0.896,5.562,1.643,7.682,4.661,9.326c-9.451,0.062-16.017-9.611-15.157-18.654
					C295.093,250.467,312.668,244.622,310.314,231.752z"/>
			</g>
			<g>
				<path fill="#27140E" d="M309.06,282.503c-4.417,0-8.599-1.917-11.763-5.403c-3.701-4.066-5.6-9.752-5.084-15.201
					c0.562-5.855,4.703-10.217,8.713-14.436c4.505-4.745,8.766-9.227,7.633-15.39c-0.124-0.656,0.138-1.324,0.668-1.73
					c0.53-0.41,1.244-0.487,1.851-0.202c10.79,5.125,23.038,22.341,22.047,36.037c-0.396,5.547-3.175,12.875-14.122,16.243
					c-0.811,0.251-1.686-0.104-2.093-0.853c-0.406-0.741-0.229-1.666,0.419-2.215c1.954-1.633,2.812-3.688,2.638-6.278
					c-0.303-4.38-3.501-8.959-6.423-11.58c-1.005,2.247-2.514,3.929-3.886,5.457c-1.375,1.543-2.687,3.001-3.44,4.903
					c-0.669,4.483,1.229,5.91,3.784,7.303c0.71,0.388,1.072,1.212,0.871,1.997c-0.198,0.79-0.901,1.339-1.711,1.347L309.06,282.503
					L309.06,282.503z M312.279,234.932c-0.377,6.144-4.797,10.799-8.772,14.979c-3.751,3.96-7.305,7.692-7.745,12.325
					c-0.426,4.469,1.133,9.128,4.17,12.468c1.006,1.104,2.134,2.012,3.341,2.694c-0.698-1.602-0.977-3.635-0.55-6.289
					c0.019-0.115,0.053-0.23,0.09-0.344c0.981-2.607,2.615-4.428,4.191-6.188c1.704-1.899,3.314-3.696,3.896-6.386
					c0.128-0.57,0.52-1.037,1.051-1.262c0.534-0.228,1.149-0.175,1.637,0.131c4.542,2.845,9.496,9.52,9.931,15.771
					c0.094,1.359-0.025,2.652-0.362,3.861c3.928-2.477,6.076-6.088,6.415-10.774C330.354,255.025,321.246,240.902,312.279,234.932z"
					/>
			</g>
		</g>
	</g>
</g>
</svg>
