<?xml version="1.0" encoding="utf-8"?>
<!-- Generator: Adobe Illustrator 16.0.0, SVG Export Plug-In . SVG Version: 6.00 Build 0)  -->
<!DOCTYPE svg PUBLIC "-//W3C//DTD SVG 1.1//EN" "http://www.w3.org/Graphics/SVG/1.1/DTD/svg11.dtd">
<svg version="1.1" id="Layer_1" xmlns="http://www.w3.org/2000/svg" xmlns:xlink="http://www.w3.org/1999/xlink" x="0px" y="0px"
	 width="500px" height="500px" viewBox="0 0 500 500" enable-background="new 0 0 500 500" xml:space="preserve">
<g id="Layer_1_copy_4">
	<g>
		<path fill="#FCC393" d="M207.671,279.973c0,0,1.303,16.393-7.57,21.6c-8.868,5.207-14.097,68.852-14.097,68.852l106.768,19.358
			l-11.649-69.843l-12.795-21.435c0,0-4.222-6.889-1.849-18.532C268.859,268.328,207.587,270.614,207.671,279.973z"/>
		<path fill="#281912" d="M293.557,390.573l-0.898-0.162l-107.341-19.46l0.05-0.58c0.215-2.613,5.359-64.039,14.408-69.354
			c8.422-4.937,7.271-20.832,7.259-20.994c-0.007-0.887,0.361-1.689,1.099-2.437c4.005-4.041,19.242-6.153,32.229-6.153
			c5.033,0,21.779,0.391,25.906,5.446c0.797,0.974,1.08,2.062,0.842,3.222c-2.301,11.262,1.725,18.002,1.769,18.065l12.876,21.663
			L293.557,390.573z M186.692,369.891l105.296,19.098l-11.481-68.827l-12.729-21.327c-0.174-0.286-4.327-7.236-1.926-18.991
			c0.162-0.774-0.031-1.483-0.58-2.155c-2.504-3.065-12.051-4.972-24.911-4.972c-14.594,0-28.056,2.482-31.319,5.774
			c-0.495,0.496-0.733,0.979-0.73,1.477c0.051,0.643,1.228,16.812-7.888,22.158C193.462,306.213,188.202,351.866,186.692,369.891z"
			/>
	</g>
	<g>
		<path fill="#934499" d="M198.342,305.064c0,0-9.521,41.146,33.773,39.762c48.791-1.562,37.031-26.01,38.275-42.869
			c0,0-4.471-0.839,36.117,8.525c40.584,9.365,53.697,20.604,59.94,98.652c3.124,22.479-30.593,16.857-30.593,16.857l-202.301,1.344
			c0,0-28.722,6.773-22.478-25.07C117.322,370.423,113.407,305.854,198.342,305.064z"/>
		<path fill="#281912" d="M127.572,430.503c-6.893,0-12.349-2.202-15.779-6.373c-4.082-4.96-5.168-12.479-3.232-22.358
			c0.804-4.074,1.441-8.778,2.121-13.758c4.6-33.771,11.555-84.806,87.637-85.512c0.719,0.002,1.525,0.346,2.021,0.96
			c0.491,0.606,0.677,1.414,0.5,2.177c-0.035,0.166-3.682,16.666,4.814,27.319c4.941,6.196,13.129,9.339,24.353,9.339
			c0.665,0,1.337-0.018,2.024-0.033c16.093-0.516,26.444-3.537,31.653-9.229c5.192-5.671,4.734-13.738,4.293-21.536
			c-0.17-2.971-0.343-6.039-0.191-8.923c-0.096-0.319-0.128-0.661-0.077-0.999c0.181-1.262,1.272-2.201,2.547-2.201
			c0.158,0,0.455,0.033,0.612,0.064c0.208,0.039,0.406,0.104,0.591,0.188c1.576,0.41,8.265,2.042,35.623,8.356
			c43.173,9.961,55.737,23.645,61.919,100.945c0.746,5.315-0.384,9.82-3.365,13.249c-5.037,5.786-14.282,7-21.151,7
			c-4.403,0-7.904-0.482-8.817-0.623l-201.829,1.343C133.005,430.068,130.597,430.503,127.572,430.503z M195.299,307.686
			c-68.76,1.947-74.979,47.575-79.537,81.019c-0.688,5.058-1.341,9.835-2.168,14.058c-1.629,8.299-0.903,14.393,2.156,18.113
			c3.062,3.724,8.123,4.501,11.822,4.501c3.056,0,5.376-0.524,5.4-0.534c0.183-0.041,0.378-0.063,0.567-0.066l202.298-1.343
			c0.111-0.007,0.291,0.009,0.438,0.032c0.035,0.007,3.62,0.592,8.208,0.592c5.802,0,13.519-0.905,17.282-5.238
			c1.998-2.293,2.698-5.346,2.145-9.328c-6.251-78.141-19.284-87.579-57.978-96.51c-16.625-3.834-27.846-6.455-33.076-7.724
			c0.014,1.896,0.125,3.884,0.24,5.949c0.479,8.448,1.021,18.019-5.632,25.29c-6.188,6.768-17.727,10.326-35.264,10.889
			c-0.75,0.023-1.477,0.035-2.194,0.035c-12.876,0-22.424-3.798-28.38-11.288C193.978,326.512,194.525,313.609,195.299,307.686z"/>
	</g>
	<g>
		<g>
			<path fill="#FFFFFF" d="M201.115,340.018c0,3.068-2.866,5.559-6.404,5.559c-3.539,0-6.405-2.489-6.405-5.559
				c0-3.065,2.866-5.554,6.405-5.554C198.249,334.464,201.115,336.952,201.115,340.018z"/>
		</g>
		<g>
			<path fill="#FFFFFF" d="M211.463,361.52c0,3.07-2.869,5.557-6.404,5.557c-3.539,0-6.405-2.485-6.405-5.557
				c0-3.063,2.866-5.552,6.405-5.552C208.594,355.968,211.463,358.456,211.463,361.52z"/>
		</g>
		<g>
			<path fill="#FFFFFF" d="M218.691,371.775c0,3.066-2.871,5.553-6.404,5.553c-3.543,0-6.407-2.485-6.407-5.553
				c0-3.065,2.864-5.555,6.407-5.555C215.82,366.221,218.691,368.709,218.691,371.775z"/>
		</g>
		<g>
			<path fill="#FFFFFF" d="M224.601,383.736c0,3.068-2.865,5.558-6.401,5.558c-3.539,0-6.408-2.489-6.408-5.558
				c0-3.064,2.869-5.553,6.408-5.553C221.735,378.184,224.601,380.671,224.601,383.736z"/>
		</g>
		<g>
			<path fill="#FFFFFF" d="M234.46,391.141c0,3.069-2.87,5.558-6.408,5.558c-3.536,0-6.405-2.487-6.405-5.558
				c0-3.064,2.869-5.553,6.405-5.553C231.59,385.588,234.46,388.076,234.46,391.141z"/>
		</g>
		<g>
			<path fill="#FFFFFF" d="M248.259,390.004c0,3.064-2.871,5.553-6.41,5.553c-3.534,0-6.405-2.486-6.405-5.553
				c0-3.068,2.871-5.557,6.405-5.557C245.388,384.448,248.259,386.936,248.259,390.004z"/>
		</g>
		<g>
			<path fill="#FFFFFF" d="M259.424,384.307c0,3.07-2.871,5.555-6.404,5.555c-3.54,0-6.41-2.483-6.41-5.555
				c0-3.067,2.87-5.554,6.41-5.554C256.553,378.753,259.424,381.239,259.424,384.307z"/>
		</g>
		<g>
			<path fill="#FFFFFF" d="M268.618,375.195c0,3.066-2.865,5.554-6.404,5.554c-3.534,0-6.403-2.487-6.403-5.554
				c0-3.069,2.869-5.555,6.403-5.555C265.753,369.641,268.618,372.125,268.618,375.195z"/>
		</g>
		<g>
			<path fill="#FFFFFF" d="M274.536,364.941c0,3.065-2.866,5.55-6.405,5.55s-6.404-2.483-6.404-5.55c0-3.07,2.865-5.553,6.404-5.553
				S274.536,361.871,274.536,364.941z"/>
		</g>
		<g>
			<path fill="#FFFFFF" d="M279.132,354.684c0,3.07-2.866,5.559-6.405,5.559c-3.537,0-6.401-2.487-6.401-5.559
				c0-3.064,2.864-5.553,6.401-5.553C276.266,349.131,279.132,351.619,279.132,354.684z"/>
		</g>
		<g>
			<path fill="#FFFFFF" d="M203.579,351.268c0,3.067-2.866,5.559-6.404,5.559c-3.54,0-6.406-2.49-6.406-5.559
				c0-3.064,2.866-5.553,6.406-5.553C200.713,345.715,203.579,348.203,203.579,351.268z"/>
		</g>
	</g>
	<g>
		<path fill="#FFFFFF" d="M284.945,343.581c0,3.065-2.871,5.551-6.409,5.551c-3.536,0-6.401-2.485-6.401-5.551
			c0-3.067,2.865-5.558,6.401-5.558C282.074,338.023,284.945,340.514,284.945,343.581z"/>
	</g>
	<g>
		<g>
			<path fill="#FCC393" d="M315.668,196.425c-0.887,0-1.743,0.181-2.569,0.45c-7.059-34.5-38.217-60.505-75.605-60.505
				c-38.379,0-70.108,27.407-76.038,63.268c-1.417-0.907-2.985-1.456-4.651-1.456c-6.019,0-10.897,6.57-10.897,14.669
				c0,8.108,4.879,14.678,10.897,14.678c1.797,0,3.476-0.641,4.963-1.69c6.782,34.851,38.082,61.218,75.727,61.218
				c37.802,0,69.191-26.598,75.786-61.671c0.771,0.238,1.563,0.38,2.39,0.38c6.022,0,10.898-6.57,10.898-14.67
				C326.566,202.992,321.69,196.425,315.668,196.425z"/>
		</g>
		<g>
			<path fill="#281912" d="M237.492,289.619c-37.061,0-69.128-25.045-77.531-60.026c-1.034,0.334-2.087,0.499-3.158,0.499
				c-7.421,0-13.46-7.734-13.46-17.241c0-9.502,6.039-17.232,13.46-17.232c0.921,0,1.832,0.123,2.728,0.37
				c7.562-36.223,39.826-62.182,77.962-62.182c36.979,0,69.188,25.118,77.565,60.076c7.746-0.5,14.07,7.45,14.07,17.214
				c0,9.506-6.036,17.233-13.461,17.233c-0.122,0-0.249,0-0.372-0.003C307.377,263.989,275.059,289.619,237.492,289.619z
				 M163.53,221.477l0.756,3.874c6.663,34.27,37.451,59.143,73.206,59.143c35.96,0,66.775-25.059,73.267-59.581l0.529-2.809
				l2.73,0.83c0.604,0.18,1.144,0.27,1.648,0.27c4.52,0,8.335-5.545,8.335-12.108s-3.815-12.111-8.335-12.111
				c-0.522,0-1.099,0.108-1.77,0.327l-2.732,0.896l-0.576-2.817c-6.929-33.871-37.672-58.456-73.098-58.456
				c-36.742,0-67.653,25.704-73.509,61.124l-0.635,3.834l-3.276-2.094c-5.645-3.608-11.604,2.924-11.604,11.054
				c0,8.254,6.145,14.87,11.83,10.894L163.53,221.477z"/>
		</g>
	</g>
	<g>
		<path fill="#141211" d="M209.731,211.087c0,5.864-3.801,10.617-8.488,10.617c-4.684,0-8.485-4.753-8.485-10.617
			c0-5.86,3.802-10.612,8.485-10.612C205.931,200.475,209.731,205.228,209.731,211.087z"/>
	</g>
	<g>
		<path fill="#FFFFFA" d="M202.999,211.095c0,2.041-1.53,3.692-3.424,3.692c-1.895,0-3.425-1.652-3.425-3.692
			c0-2.044,1.53-3.7,3.425-3.7C201.469,207.395,202.999,209.051,202.999,211.095z"/>
	</g>
	<g>
		<path fill="#141211" d="M278.874,211.087c0,5.864-3.8,10.617-8.483,10.617c-4.685,0-8.488-4.753-8.488-10.617
			c0-5.86,3.805-10.612,8.488-10.612S278.874,205.228,278.874,211.087z"/>
	</g>
	<g>
		<path fill="#FFFFFA" d="M272.146,211.095c0,2.041-1.535,3.692-3.424,3.692c-1.895,0-3.423-1.652-3.423-3.692
			c0-2.044,1.528-3.7,3.423-3.7C270.609,207.395,272.146,209.051,272.146,211.095z"/>
	</g>
	<g>
		<path fill="#834C1F" d="M226.729,231.622c0,0,11.185,1.664,12.726-4.581c1.545-6.244,0-18.463,0-18.463s6.936,9.307,3.469,20.545
			C239.455,240.359,221.388,231.525,226.729,231.622z"/>
	</g>
	<g opacity="0.7">
		<g>
			<path fill="#F9A880" d="M202.999,234.399c0,3.796-4.792,6.867-10.713,6.867c-5.91,0-10.708-3.07-10.708-6.867
				c0-3.796,4.798-6.87,10.708-6.87C198.207,227.529,202.999,230.603,202.999,234.399z"/>
		</g>
	</g>
	<g opacity="0.7">
		<g>
			<path fill="#F9A880" d="M295.631,233.654c0,3.796-4.795,6.866-10.713,6.866c-5.913,0-10.713-3.069-10.713-6.866
				c0-3.797,4.8-6.867,10.713-6.867C290.836,226.787,295.631,229.857,295.631,233.654z"/>
		</g>
	</g>
	<g>
		<path fill="#FFFFFF" d="M214.741,244.178c0,0,5.015,19.562,22.751,18.732c17.73-0.838,24.41-18.732,24.41-18.732
			s-7.83,9.378-24.41,9.378C220.459,253.557,214.741,244.178,214.741,244.178z"/>
	</g>
	<g>
		<path fill="#301E12" d="M189.069,198.915c0,0,3.861-5.417,11.186-4.791c7.328,0.623,8.096,2.083,8.484-1.871
			c0.385-3.958-3.085-4.788-8.484-4.162C194.861,188.713,184.447,200.167,189.069,198.915z"/>
	</g>
	<g>
		<path fill="#301E12" d="M283.475,198.915c0,0-3.854-5.417-11.183-4.791c-7.323,0.623-8.097,2.083-8.479-1.871
			c-0.389-3.958,3.09-4.788,8.479-4.162C277.693,188.713,288.104,200.167,283.475,198.915z"/>
	</g>
	<g>
		<g>
			<path fill="#281912" d="M250.391,206.361c-13.947-8.318-24.514-0.507-24.956-0.173l-3.132-4.054
				c0.554-0.43,13.676-10.332,30.712-0.18L250.391,206.361z"/>
		</g>
		<g>
			
				<rect x="304.185" y="183.751" transform="matrix(-0.2332 -0.9724 0.9724 -0.2332 184.4869 544.0768)" fill="#281912" width="5.125" height="31.106"/>
		</g>
		<g>
			
				<rect x="141.295" y="196.591" transform="matrix(-0.9849 -0.1729 0.1729 -0.9849 285.9585 423.2175)" fill="#281912" width="40.233" height="5.126"/>
		</g>
		<g>
			<path fill="#281912" d="M202.698,234.553c-13.754,0-24.944-11.193-24.944-24.949c0-13.755,11.19-24.948,24.944-24.948
				c13.757,0,24.95,11.193,24.95,24.948C227.648,223.36,216.455,234.553,202.698,234.553z M202.698,189.782
				c-10.928,0-19.818,8.891-19.818,19.822c0,10.928,8.891,19.819,19.818,19.819c10.932,0,19.823-8.891,19.823-19.819
				C222.521,198.673,213.63,189.782,202.698,189.782z"/>
		</g>
		<g>
			<path fill="#281912" d="M270.456,234.553c-13.756,0-24.945-11.193-24.945-24.949c0-13.755,11.189-24.948,24.945-24.948
				c13.755,0,24.952,11.193,24.952,24.948C295.408,223.36,284.211,234.553,270.456,234.553z M270.456,189.782
				c-10.929,0-19.819,8.891-19.819,19.822c0,10.928,8.893,19.819,19.819,19.819c10.933,0,19.821-8.891,19.821-19.819
				C290.277,198.673,281.389,189.782,270.456,189.782z"/>
		</g>
	</g>
	<g>
		<path fill="#20130B" d="M121.214,191.168c1.149-3.9,3.001-8.299,6.059-10.908c9.525-8.131,10.529-17.937,10.752-29.33
			c0.587-30.112,20.694-49.399,52.168-53.026c4.834-0.557,10.29-3.318,13.69-6.64c15.357-15.012,48.271-14.904,63.518,0.344
			c2.972,2.974,7.605,5.698,11.798,6.211c35.381,4.312,55.275,25.139,53.896,58.291c-0.35,8.307,1.867,14.401,7.589,20.71
			c4.681,5.152,8.022,11.846,10.252,18.367l-39.432,3.823c-0.16-7.75-21.84-22.266-29.235-22.128
			c-19.729,0.388-39.48,0.13-60.525,0.13c-0.63-9.206-1.218-17.748-1.806-26.286c-0.753-0.011-1.514-0.022-2.271-0.034
			c-0.815,8.38-1.633,16.764-2.501,25.682c-3.655,0-7.228,0-11.182,0c-1.045-4.115-2.04-8.019-3.696-14.55
			c-0.872,6.27-1.375,9.885-1.899,13.674c-0.798,0.384-1.646,1.111-2.565,1.195c-18.4,1.698-31.362,9.863-32.13,27.077
			L121.214,191.168z"/>
	</g>
	<g>
		<path fill="#20130B" d="M360.302,354.578c-5.518-7.122-5.883-13.289-0.727-20.074c3.754-4.938,7.839-9.648,11.743-14.488
			c13.31-16.498,13.056-27.92-3.988-40.464c-15.121-11.128-16.593-23.53-10.241-38.908c1.771-4.299,3.04-9.445,2.269-13.859
			c-1.846-10.571-4.428-21.114-7.907-31.312c-2.229-6.524-5.571-13.214-10.252-18.367c-5.722-6.309-7.938-12.403-7.592-20.71
			c1.383-33.152-18.514-53.981-53.895-58.291c-4.192-0.515-8.825-3.237-11.797-6.213c-15.246-15.247-48.159-15.357-63.519-0.344
			c-3.399,3.322-8.855,6.084-13.689,6.641c-31.477,3.626-51.58,22.915-52.169,53.027c-0.222,11.389-1.228,21.195-10.75,29.329
			c-3.059,2.609-4.913,7.005-6.063,10.909c-3.588,12.188-6.728,24.495-9.666,36.841c-0.555,2.302,0,5.225,1.066,7.428
			c9.054,18.562,7.693,34.65-11.956,46.718c-0.277,0.177-0.485,0.449-0.72,0.685c-10.689,10.599-11.854,19.669-3.361,31.873
			c4.449,6.401,9.798,12.249,14.674,18.385c5.817,7.326,5.66,13.987-0.385,21.757c-5.075,6.527-9.175,14.286-11.35,22.077
			c-2.963,10.625,2.597,19.882,11.76,23.746c0-3.923,0-7.888,0-14.015c10.3,13.029,19.398,24.941,39.601,19.984
			c-12.691-10.01-20.283-20.418-15.077-36.41c19.162,11.844,31.069,26.57,33.005,49.09c12.632-14.602,8.624-27.875,2.625-41.745
			c19.738,8.841,22.268,9.276,33.219,5.739c-1.499-1.168-2.634-2.197-3.913-3.024c-25.289-16.283-23.546-36.072,4.178-49.326
			c2.408-1.151,5.041-3.678,5.668-6.01c3.385-12.663,6.442-25.422,8.933-38.261c0.003-0.045,0-0.1,0.007-0.146
			c-29.513-6.708-52.506-29.984-58.196-59.253c-1.495,1.045-3.174,1.691-4.963,1.691c-6.022,0-10.902-6.574-10.902-14.678
			c0-8.096,4.88-14.67,10.902-14.67c1.666,0,3.229,0.545,4.648,1.456c5.928-35.861,37.659-63.269,76.033-63.269
			c37.395,0,68.551,26.001,75.609,60.506c0.826-0.269,1.684-0.454,2.571-0.454c6.017,0,10.896,6.571,10.896,14.674
			c0,8.096-4.88,14.67-10.896,14.67c-0.823,0-1.618-0.146-2.391-0.38c-5.733,30.497-30.221,54.573-61.366,60.34
			c0.006,0.045,0.004,0.092,0.006,0.131c1.977,11.313,4.865,22.481,7.459,33.693c1.287,5.587,4.209,9.016,10.521,11.464
			c20.883,8.083,24.473,29.521,7.792,43.218c-3.358,2.758-7.155,5.059-10.755,7.566c0.454,1.115,0.903,2.229,1.354,3.343
			c10.264-2.319,20.529-4.642,30.598-6.925c-7.369,21.572-6.176,31.715,4.625,38.09c0.558-21.533,13.268-35.588,32.335-47.361
			c4.679,16.086-2.556,26.42-15.39,35.983c20.554,5.625,29.51-7.146,40.731-20.536c-0.548,7.008-0.883,11.227-1.241,15.787
			c10.307-6.201,14.981-14.475,11.858-25.367C369.643,368.788,365.377,361.124,360.302,354.578z"/>
	</g>
	<g>
		<g>
			<g>
				<path fill="#FAA625" d="M305.183,299.029c0,8.045-3.676,14.568-8.206,14.568c-4.535,0-8.211-6.523-8.211-14.568
					c0-8.043,3.676-14.567,8.211-14.567C301.507,284.461,305.183,290.986,305.183,299.029z"/>
			</g>
			<g>
				<path fill="#27140E" d="M296.977,313.809c-4.646,0-8.424-6.627-8.424-14.779c0-8.147,3.776-14.778,8.424-14.778
					c4.642,0,8.418,6.631,8.418,14.778C305.395,307.182,301.617,313.809,296.977,313.809z M296.977,284.673
					c-4.412,0-7.996,6.438-7.996,14.354c0,7.914,3.584,14.354,7.996,14.354c4.406,0,7.991-6.44,7.991-14.354
					S301.383,284.673,296.977,284.673z"/>
			</g>
		</g>
		<g>
			<g>
				<path fill="#6D7EBE" d="M288.477,339.811c0-10.381,0-20.759,0-31.142c5.828,0,11.662,0,17.494,0c0,9.998,0,20.91,0,30.905
					L288.477,339.811z"/>
			</g>
			<g>
				<path fill="#27140E" d="M288.477,341.294c-0.392,0-0.769-0.153-1.05-0.425c-0.278-0.281-0.438-0.663-0.438-1.061v-31.141
					c0-0.82,0.665-1.484,1.487-1.484h17.493c0.819,0,1.486,0.664,1.486,1.484v30.905c0,0.813-0.653,1.478-1.468,1.483l-17.493,0.235
					C288.486,341.294,288.48,341.294,288.477,341.294z M289.959,310.156v28.146l14.528-0.195v-27.951H289.959z"/>
			</g>
		</g>
		<g>
			<g>
				<rect x="219.506" y="361.417" fill="#894620" width="155.523" height="55.896"/>
			</g>
			<g>
				<path fill="#27140E" d="M375.029,418.798H219.506c-0.818,0-1.483-0.665-1.483-1.485v-55.896c0-0.818,0.665-1.486,1.483-1.486
					h155.523c0.821,0,1.486,0.668,1.486,1.486v55.896C376.517,418.133,375.852,418.798,375.029,418.798z M220.992,415.83h152.551
					V362.9H220.992V415.83z"/>
			</g>
		</g>
		<g>
			<g>
				<path fill="#F0516C" d="M235.89,339.716c-10.828-0.462-21.598-0.86-24.3,6.8c0,5.156,0,11.407,0,17.494
					c0,5.825-1.356,12.836,2.878,15.098c5.975,2.287,15.789-9.842,19.477-10.232c14.84-1.578,20.584,11.673,31.105,11.661
					c6.591-0.009,14.599-8.601,23.326-10.688c19.688-4.72,28.05,11.411,41.798,10.688c9.706-0.509,17.921-11.608,27.215-11.661
					c10.214-0.062,18.975,13.609,25.275,11.661c6.298-1.948,5.664-36.568-6.806-40.819
					C371.088,338.086,235.89,339.716,235.89,339.716z"/>
			</g>
			<g>
				<path fill="#27140E" d="M381.373,382.211L381.373,382.211c-3.246,0-6.517-2.439-10.311-5.27
					c-4.141-3.084-8.832-6.584-13.605-6.584h-0.056c-4.259,0.026-8.394,2.682-12.772,5.496c-4.508,2.896-9.172,5.893-14.379,6.166
					c-6.225,0.326-11.261-2.477-16.595-5.449c-5.388-3-10.959-6.106-18.244-6.106c-2.149,0-4.402,0.279-6.688,0.822
					c-3.904,0.938-7.723,3.295-11.416,5.571c-4.304,2.651-8.367,5.156-12.257,5.164c-5.095,0-8.999-2.695-13.13-5.556
					c-4.438-3.065-9.03-6.239-15.558-6.239c-0.739,0-1.499,0.041-2.265,0.123c-0.948,0.1-3.441,2.102-5.446,3.703
					c-3.989,3.2-8.509,6.824-12.562,6.824c-0.762,0-1.487-0.13-2.156-0.385c-0.057-0.023-0.111-0.051-0.168-0.077
					c-4.23-2.261-3.993-7.708-3.767-12.976c0.055-1.145,0.104-2.33,0.104-3.432v-17.494c0-0.169,0.027-0.334,0.086-0.49
					c2.486-7.058,10.636-8.008,18.273-8.008c2.486,0,5.122,0.109,7.447,0.211c1.855-0.023,60.979-0.728,101.537-0.728
					c36.538,0,38.187,0.565,38.894,0.808c8.304,2.831,11.896,17.086,11.724,29.137c-0.059,3.92-0.653,13.18-4.961,14.51
					C382.549,382.126,381.969,382.211,381.373,382.211z M357.457,367.387c5.758,0,10.871,3.812,15.379,7.176
					c3.231,2.404,6.278,4.68,8.537,4.68l0,0c0.304,0,0.58-0.038,0.85-0.123c1.126-0.35,2.76-4.217,2.87-11.717
					c0.08-5.744-0.772-11.754-2.344-16.481c-1.245-3.752-3.535-8.497-7.37-9.804c-0.868-0.233-6.98-0.643-37.933-0.643
					c-40.985,0-100.942,0.715-101.542,0.724c-0.021,0-0.054,0-0.08-0.003c-2.307-0.096-4.922-0.207-7.362-0.207
					c-9.188,0-13.816,1.734-15.39,5.794v17.229c0,1.169-0.052,2.382-0.104,3.56c-0.195,4.502-0.38,8.756,2.115,10.182
					c0.307,0.107,0.641,0.157,1.006,0.157c3.009,0,7.278-3.421,10.704-6.173c2.89-2.314,5.176-4.146,6.994-4.34
					c0.864-0.092,1.729-0.139,2.574-0.139c7.453,0,12.656,3.598,17.249,6.771c3.899,2.695,7.271,5.021,11.427,5.021
					c3.06,0,6.774-2.294,10.709-4.718c3.894-2.4,7.92-4.884,12.284-5.928c2.514-0.604,4.996-0.906,7.381-0.906
					c8.062,0,14.24,3.441,19.691,6.48c4.703,2.619,9.146,5.097,14.172,5.097c0.271,0,0.546-0.007,0.821-0.021
					c4.419-0.231,8.745-3.013,12.926-5.697c4.542-2.92,9.241-5.938,14.359-5.969h0.077V367.387z"/>
			</g>
		</g>
		<g>
			<g>
				<path fill="#623214" d="M375.029,388.377c0,11.662,0,23.328,0,34.99c5.084,1.397,11.347,1.614,14.583,4.859
					c1.874,3.632,2.315,8.698,1.942,14.583c-62.857,0-125.72,0-188.572,0c-1.794-13.457,3.62-19.712,16.522-18.473
					c0-12.31,0-24.62,0-36.935c7.97-3.771,12.519-5.977,20.41-4.861c8.166,1.154,14.417,8.284,22.362,8.749
					c12.478,0.735,23.682-9.96,36.935-8.749c13.049,1.193,17.416,9.959,32.076,8.749
					C345.023,390.157,359.901,374.468,375.029,388.377z"/>
			</g>
			<g>
				<path fill="#27140E" d="M391.556,444.292H202.983c-0.745,0-1.375-0.548-1.471-1.285c-0.95-7.129,0.08-12.465,3.062-15.871
					c2.574-2.94,6.569-4.434,11.872-4.434c0.512,0,1.035,0.013,1.576,0.045v-35.343c0-0.573,0.33-1.096,0.849-1.344l0.289-0.135
					c6.57-3.107,10.908-5.156,16.86-5.156c1.313,0,2.659,0.103,4.106,0.307c4.197,0.591,7.836,2.613,11.358,4.57
					c3.646,2.025,7.089,3.938,10.879,4.162c0.38,0.021,0.769,0.033,1.156,0.033c5.297,0,10.396-2.064,15.801-4.244
					c5.632-2.279,11.453-4.635,17.769-4.635c0.758,0,1.517,0.034,2.257,0.1c6.024,0.555,10.247,2.627,14.336,4.635
					c4.424,2.171,8.604,4.223,14.9,4.223l0,0c0.834,0,1.706-0.039,2.582-0.107c4.188-0.347,8.538-2.138,13.138-4.037
					c5.49-2.264,11.162-4.601,17.036-4.601c5.414,0,10.225,1.998,14.694,6.108c0.307,0.279,0.482,0.677,0.482,1.095v33.837
					c1.062,0.253,2.175,0.475,3.264,0.688c4.05,0.795,8.237,1.622,10.885,4.276c0.104,0.105,0.195,0.229,0.265,0.367
					c1.85,3.574,2.541,8.602,2.111,15.354C392.985,443.685,392.339,444.292,391.556,444.292z M204.306,441.323h185.84
					c0.223-5.361-0.354-9.364-1.748-12.2c-2.041-1.902-5.677-2.615-9.191-3.307c-1.518-0.301-3.094-0.609-4.567-1.017
					c-0.646-0.177-1.096-0.761-1.096-1.433V389.04c-3.759-3.293-7.758-4.896-12.204-4.896c-5.286,0-10.686,2.224-15.902,4.375
					c-4.61,1.902-9.377,3.864-14.025,4.25c-0.96,0.082-1.909,0.123-2.827,0.123l0,0c-6.986,0-11.677-2.307-16.211-4.529
					c-4.023-1.977-7.818-3.84-13.294-4.34c-0.653-0.062-1.319-0.092-1.988-0.092c-5.734,0-11.287,2.244-16.66,4.416
					c-5.421,2.192-11.033,4.465-16.908,4.465c-0.445,0-0.894-0.013-1.334-0.037c-4.461-0.262-8.364-2.438-12.143-4.53
					c-3.436-1.911-6.682-3.716-10.332-4.231c-1.314-0.187-2.521-0.277-3.692-0.277c-5.126,0-9.134,1.822-15.028,4.607v35.994
					c0,0.419-0.18,0.82-0.488,1.1c-0.311,0.283-0.727,0.42-1.137,0.381c-5.92-0.573-10.159,0.531-12.562,3.272
					C204.586,431.632,203.744,435.744,204.306,441.323z"/>
			</g>
		</g>
		<g>
			<g>
				<path fill="#4E4E4E" d="M219.62,424.338c-12.902-1.239-18.312,5.016-16.521,18.473c62.857,0,125.715,0,188.573,0
					c0.375-5.885-0.065-10.951-1.945-14.583c-3.23-3.245-9.498-3.462-14.582-4.859L219.62,424.338z"/>
			</g>
			<g>
				<path fill="#27140E" d="M391.672,444.292H203.099c-0.742,0-1.375-0.548-1.472-1.285c-0.949-7.129,0.081-12.469,3.066-15.871
					c3.051-3.489,8.084-4.934,14.996-4.277l155.448-0.973c0.142-0.005,0.27,0.021,0.399,0.055c1.376,0.376,2.894,0.677,4.356,0.964
					c4.055,0.795,8.241,1.622,10.885,4.276c0.107,0.109,0.195,0.229,0.267,0.367c1.852,3.574,2.54,8.596,2.109,15.354
					C393.104,443.685,392.454,444.292,391.672,444.292z M204.42,441.323h185.845c0.221-5.361-0.354-9.364-1.748-12.2
					c-2.04-1.902-5.676-2.615-9.193-3.307c-1.454-0.285-2.948-0.58-4.37-0.963l-155.323,0.972c-0.047,0-0.096-0.002-0.146-0.007
					c-5.921-0.573-10.158,0.531-12.561,3.272C204.7,431.632,203.858,435.744,204.42,441.323z"/>
			</g>
		</g>
		<g>
			<g>
				<path fill="#FDD71E" d="M295.021,265.969c12.479,5.924,28.687,34.084,6.804,40.824c6.552-5.486-0.065-15.469-4.86-18.466
					c-1.041,4.786-5.21,6.45-6.805,10.688c-0.746,4.639,1.371,6.406,3.889,7.776c-7.881,0.05-13.355-8.015-12.638-15.554
					C282.336,281.573,296.982,276.697,295.021,265.969z"/>
			</g>
			<g>
				<path fill="#27140E" d="M293.975,308.279c-3.682,0-7.166-1.598-9.806-4.506c-3.085-3.39-4.668-8.131-4.237-12.672
					c0.469-4.881,3.924-8.519,7.262-12.039c3.758-3.953,7.305-7.688,6.363-12.828c-0.101-0.547,0.114-1.104,0.557-1.441
					c0.441-0.342,1.041-0.402,1.545-0.169c8.995,4.276,19.205,18.628,18.382,30.045c-0.334,4.625-2.647,10.735-11.776,13.546
					c-0.676,0.203-1.404-0.091-1.739-0.716c-0.34-0.616-0.191-1.39,0.35-1.841c1.625-1.366,2.343-3.076,2.193-5.234
					c-0.253-3.654-2.917-7.47-5.353-9.656c-0.839,1.871-2.096,3.274-3.238,4.549c-1.149,1.289-2.24,2.502-2.871,4.088
					c-0.557,3.736,1.025,4.927,3.154,6.086c0.596,0.324,0.895,1.012,0.729,1.664c-0.167,0.662-0.753,1.119-1.433,1.127h-0.082
					V308.279z M296.66,268.616c-0.314,5.126-3.999,9.007-7.312,12.491c-3.131,3.301-6.089,6.412-6.457,10.274
					c-0.357,3.724,0.944,7.611,3.478,10.397c0.834,0.918,1.774,1.67,2.784,2.242c-0.584-1.332-0.814-3.026-0.461-5.244
					c0.021-0.096,0.047-0.191,0.078-0.283c0.817-2.176,2.178-3.694,3.496-5.162c1.418-1.583,2.758-3.081,3.248-5.325
					c0.103-0.471,0.43-0.864,0.875-1.052c0.444-0.188,0.956-0.143,1.363,0.111c3.784,2.369,7.92,7.935,8.275,13.147
					c0.076,1.134-0.022,2.214-0.3,3.22c3.271-2.065,5.063-5.076,5.35-8.982C311.73,285.373,304.138,273.596,296.66,268.616z"/>
			</g>
		</g>
	</g>
</g>
</svg>
