<?xml version="1.0" encoding="utf-8"?>
<!-- Generator: Adobe Illustrator 16.0.0, SVG Export Plug-In . SVG Version: 6.00 Build 0)  -->
<!DOCTYPE svg PUBLIC "-//W3C//DTD SVG 1.1//EN" "http://www.w3.org/Graphics/SVG/1.1/DTD/svg11.dtd">
<svg version="1.1" id="Layer_1" xmlns="http://www.w3.org/2000/svg" xmlns:xlink="http://www.w3.org/1999/xlink" x="0px" y="0px"
	 width="500px" height="500px" viewBox="0 0 500 500" enable-background="new 0 0 500 500" xml:space="preserve">
<g id="Layer_1_copy_32">
	<g>
		<path fill="#2C1D13" d="M249.603,52.773c0,0-94.552-13.993-107.58,75.737c-13.026,89.731,8.682,184.29,8.682,184.29
			s-4.825,9.158,32.327,3.854c37.147-5.303,158.228,1.652,158.228,1.652s19.301-128.042-7.232-218.258
			C321.485,59.527,249.603,52.773,249.603,52.773z"/>
		<path fill="#281912" d="M343.794,321.432l-2.704-0.156c-0.634-0.035-63.947-3.642-112.426-3.642
			c-20.872,0-36.085,0.662-45.217,1.964c-7.819,1.118-14.42,1.684-19.622,1.684c-8.638,0-13.564-1.492-15.501-4.705
			c-0.816-1.354-0.915-2.764-0.688-3.889c-2.031-9.324-20.884-99.651-8.556-184.603c10.36-71.368,71.187-79.073,96.854-79.073
			c8.442,0,13.874,0.79,14.103,0.824c2.859,0.265,73.849,7.402,86.824,49.338c26.426,89.844,7.526,218.294,7.335,219.578
			L343.794,321.432z M153.604,313.671c0.619,0.461,2.949,1.666,10.222,1.666c4.925,0,11.24-0.545,18.782-1.623
			c9.406-1.34,24.9-2.019,46.057-2.019c42.897,0,97.325,2.81,110.029,3.496c2.543-18.84,16.421-132.905-7.521-214.303
			c-11.792-38.111-81.151-45.091-81.851-45.158c-0.203-0.025-5.42-0.777-13.388-0.777c-69.808,0-86.965,46.352-90.974,73.983
			c-12.795,88.162,8.426,182.259,8.638,183.198l0.247,1.072L153.604,313.671z"/>
	</g>
	<g>
		<path fill="#FCC393" d="M209.842,277.287c0,0,1.511,18.996-8.771,25.029c-10.282,6.033-16.341,79.793-16.341,79.793
			l123.744,22.438l-13.508-80.944l-14.825-24.843c0,0-4.896-7.985-2.144-21.475C280.756,263.783,209.748,266.436,209.842,277.287z"
			/>
		<path fill="#281912" d="M309.38,405.466l-1.039-0.188l-124.408-22.557l0.056-0.672c0.251-3.029,6.217-74.215,16.706-80.379
			c9.756-5.719,8.422-24.143,8.406-24.332c-0.008-1.027,0.421-1.957,1.274-2.818c4.642-4.688,22.302-7.137,37.357-7.137
			c5.829,0,25.237,0.455,30.019,6.316c0.922,1.125,1.252,2.385,0.974,3.734c-2.664,13.049,2.006,20.856,2.051,20.938l14.927,25.104
			L309.38,405.466z M185.525,381.498l122.042,22.133l-13.308-79.768l-14.757-24.721c-0.203-0.328-5.012-8.382-2.231-22.011
			c0.186-0.897-0.035-1.714-0.67-2.493c-2.906-3.56-13.97-5.771-28.87-5.771c-16.916,0-32.521,2.883-36.301,6.695
			c-0.578,0.58-0.851,1.142-0.848,1.713c0.062,0.742,1.424,19.484-9.137,25.679C193.375,307.693,187.283,360.602,185.525,381.498z"
			/>
	</g>
	<g>
		<g>
			<path fill="#FCC393" d="M335.01,180.451c-1.031,0-2.022,0.212-2.979,0.525c-8.184-39.987-44.29-70.125-87.632-70.125
				c-44.472,0-81.247,31.766-88.118,73.326c-1.645-1.055-3.457-1.687-5.391-1.687c-6.974,0-12.631,7.618-12.631,17.005
				c0,9.391,5.657,17.009,12.631,17.009c2.08,0,4.024-0.75,5.754-1.958c7.858,40.384,44.13,70.945,87.755,70.945
				c43.815,0,80.198-30.824,87.84-71.475c0.897,0.275,1.816,0.443,2.771,0.443c6.977,0,12.628-7.618,12.628-17.004
				C347.638,188.061,341.985,180.451,335.01,180.451z"/>
		</g>
		<g>
			<path fill="#281912" d="M244.397,288.464c-42.945,0-80.116-29.03-89.849-69.568c-1.197,0.381-2.421,0.577-3.66,0.577
				c-8.603,0-15.604-8.963-15.604-19.979c0-11.019,7.002-19.975,15.604-19.975c1.066,0,2.123,0.142,3.162,0.424
				c8.76-41.984,46.157-72.065,90.347-72.065c42.862,0,80.195,29.108,89.903,69.622c8.997-0.573,16.308,8.642,16.308,19.955
				c0,11.198-7.285,20.327-16.033,19.965C325.397,258.762,287.941,288.464,244.397,288.464z M158.688,209.49l0.87,4.487
				c7.728,39.718,43.409,68.546,84.84,68.546c41.683,0,77.397-29.045,84.921-69.056l0.61-3.252l3.17,0.961
				c0.694,0.208,1.321,0.309,1.91,0.309c5.233,0,9.658-6.425,9.658-14.031s-4.425-14.035-9.658-14.035
				c-0.607,0-1.277,0.121-2.055,0.38l-3.169,1.035l-0.668-3.263c-8.029-39.258-43.658-67.752-84.721-67.752
				c-42.573,0-78.402,29.792-85.185,70.839l-0.737,4.448l-3.797-2.433c-6.544-4.185-13.451,3.394-13.451,12.82
				c0,9.56,7.12,17.229,13.714,12.616L158.688,209.49z"/>
		</g>
	</g>
	<g>
		<path fill="#141211" d="M212.23,197.447c0,6.794-4.409,12.306-9.838,12.306c-5.428,0-9.833-5.511-9.833-12.306
			c0-6.79,4.405-12.301,9.833-12.301C207.821,185.146,212.23,190.657,212.23,197.447z"/>
	</g>
	<g>
		<path fill="#FFFFFA" d="M204.426,197.456c0,2.361-1.773,4.279-3.971,4.279c-2.191,0-3.966-1.918-3.966-4.279
			c0-2.374,1.774-4.284,3.966-4.284C202.652,193.172,204.426,195.082,204.426,197.456z"/>
	</g>
	<g>
		<path fill="#141211" d="M292.367,197.447c0,6.794-4.408,12.306-9.835,12.306c-5.429,0-9.839-5.511-9.839-12.306
			c0-6.79,4.41-12.301,9.839-12.301C287.959,185.146,292.367,190.657,292.367,197.447z"/>
	</g>
	<g>
		<path fill="#FFFFFA" d="M284.564,197.456c0,2.361-1.776,4.279-3.965,4.279c-2.197,0-3.971-1.918-3.971-4.279
			c0-2.374,1.771-4.284,3.971-4.284C282.788,193.172,284.564,195.082,284.564,197.456z"/>
	</g>
	<g>
		<path fill="#834C1F" d="M235.018,219.874c0,0,12.961,1.93,14.75-5.308c1.785-7.233,0-21.394,0-21.394s8.037,10.784,4.017,23.811
			C249.768,230.005,228.828,219.767,235.018,219.874z"/>
	</g>
	<g opacity="0.7">
		<g>
			<path fill="#F9A880" d="M204.426,224.463c0,4.397-5.551,7.959-12.415,7.959c-6.854,0-12.413-3.562-12.413-7.959
				c0-4.401,5.559-7.959,12.413-7.959C198.875,216.504,204.426,220.062,204.426,224.463z"/>
		</g>
	</g>
	<g opacity="0.7">
		<g>
			<path fill="#F9A880" d="M311.785,223.6c0,4.397-5.561,7.959-12.416,7.959c-6.852,0-12.415-3.562-12.415-7.959
				c0-4.401,5.563-7.958,12.415-7.958C306.226,215.641,311.785,219.198,311.785,223.6z"/>
		</g>
	</g>
	<g>
		<path fill="#FFFFFF" d="M218.037,235.795c0,0,5.806,22.678,26.36,21.708c20.558-0.965,28.296-21.708,28.296-21.708
			s-9.075,10.87-28.296,10.87C224.658,246.665,218.037,235.795,218.037,235.795z"/>
	</g>
	<g>
		<path fill="#301E12" d="M188.288,183.338c0,0,4.468-6.276,12.959-5.554c8.494,0.725,9.384,2.416,9.832-2.17
			c0.446-4.582-3.579-5.546-9.832-4.821C194.999,171.515,182.93,184.789,188.288,183.338z"/>
	</g>
	<g>
		<path fill="#301E12" d="M297.694,183.338c0,0-4.468-6.276-12.958-5.554c-8.491,0.725-9.383,2.416-9.829-2.17
			c-0.447-4.582,3.579-5.546,9.829-4.821C290.994,171.515,303.061,184.789,297.694,183.338z"/>
	</g>
	<g>
		<path fill="#87C542" d="M198.819,302.74c0,0-10.821,51.307,39.353,49.703c56.549-1.81,47.123-30.164,48.569-49.703
			c0,0-9.39-0.951,37.646,9.9c47.04,10.854,62.237,23.885,69.472,114.337c3.62,26.05-35.457,20.537-35.457,20.537l-234.453,1.131
			c0,0-33.292,7.277-26.055-29.63C105.131,382.109,100.381,303.652,198.819,302.74z"/>
		<path fill="#281912" d="M117.624,452.201c-5.73,0-13.646-1.318-18.816-7.601c-4.802-5.829-6.088-14.635-3.828-26.153
			c0.949-4.842,1.702-10.533,2.502-16.555c5.355-40.341,13.447-101.308,101.312-102.121c0.851,0.039,1.753,0.391,2.322,1.086
			c0.572,0.692,0.795,1.61,0.615,2.49c-0.048,0.225-4.421,21.932,6.483,35.342c5.837,7.18,15.149,10.819,27.683,10.819
			c0.718,0,1.438-0.014,2.181-0.034c45.672-1.457,45.594-20.041,45.516-38.011c-0.012-2.351-0.02-4.601,0.067-6.799
			c-0.716-0.86-0.716-1.797-0.603-2.41c0.213-1.155,1.197-2.508,3.275-2.508c0.346,0,0.706,0.039,0.706,0.039
			c0.815,0.08,1.522,0.483,2.001,1.073c3.229,1.004,12.069,3.361,36.017,8.89c50.03,11.545,64.6,27.408,71.763,116.992
			c0.872,6.231-0.476,11.553-4.024,15.629c-6.193,7.108-17.651,8.604-26.18,8.604c-4.272,0-7.526-0.377-8.402-0.489l-233.967,1.131
			C123.363,451.783,120.838,452.201,117.624,452.201z M195.341,305.775c-79.406,2.291-86.66,56.883-91.968,96.896
			c-0.812,6.121-1.58,11.896-2.564,16.92c-1.903,9.693-1.028,16.84,2.588,21.236c6.391,7.768,19.861,4.928,19.924,4.916
			c0.196-0.043,0.409-0.062,0.612-0.066l234.457-1.131c0.077-0.02,0.283,0.008,0.428,0.029c0.032,0.004,3.334,0.457,7.799,0.457
			c5.97,0,16.726-0.851,21.696-6.562c2.406-2.762,3.255-6.391,2.604-11.086c-7.245-90.555-22.352-101.5-67.195-111.848
			c-16.789-3.875-28.234-6.668-34.182-8.344c-0.02,1.375-0.012,2.785-0.01,4.244c0.084,18.856,0.187,42.325-51.263,43.971
			c-0.808,0.027-1.593,0.039-2.37,0.039c-14.423,0-25.296-4.385-32.311-13.035C193.705,330.232,194.434,313.189,195.341,305.775z"/>
	</g>
	<g>
		<path fill="#2C1D13" d="M330.868,186.888c0,0-48.798-44.864-53.085-68.99c0,0-56.608,53.467-124.02,53.993
			c0,0,7.12-83.417,83.268-76.179C313.173,102.948,337.302,132.378,330.868,186.888z"/>
	</g>
	<g>
		<path fill="#EAF4E0" d="M251.432,383.266c0,3.858-3.131,6.979-6.982,6.979l0,0c-3.855,0-6.979-3.121-6.979-6.979l0,0
			c0-3.854,3.123-6.98,6.979-6.98l0,0C248.301,376.285,251.432,379.412,251.432,383.266L251.432,383.266z"/>
		<path fill="#281912" d="M244.448,392.723c-5.213,0-9.453-4.246-9.453-9.457c0-5.216,4.24-9.455,9.453-9.455
			c5.214,0,9.456,4.239,9.456,9.455C253.904,388.477,249.662,392.723,244.448,392.723z M244.448,378.761
			c-2.482,0-4.504,2.021-4.504,4.505c0,2.481,2.021,4.506,4.504,4.506c2.483,0,4.503-2.023,4.503-4.506
			C248.951,380.781,246.931,378.761,244.448,378.761z"/>
	</g>
	<g>
		<path fill="#EAF4E0" d="M251.432,440.683c0,3.859-3.131,6.984-6.982,6.984l0,0c-3.855,0-6.979-3.125-6.979-6.984l0,0
			c0-3.854,3.123-6.979,6.979-6.979l0,0C248.301,433.705,251.432,436.83,251.432,440.683L251.432,440.683z"/>
		<path fill="#281912" d="M244.448,450.14c-5.213,0-9.453-4.241-9.453-9.457c0-5.213,4.24-9.45,9.453-9.45
			c5.214,0,9.456,4.237,9.456,9.45C253.904,445.898,249.662,450.14,244.448,450.14z M244.448,436.181
			c-2.482,0-4.504,2.021-4.504,4.502c0,2.482,2.021,4.509,4.504,4.509c2.483,0,4.503-2.025,4.503-4.509
			C248.951,438.2,246.931,436.181,244.448,436.181z"/>
	</g>
	<g>
		<path fill="#87C541" d="M158.224,215.641c0,2.463-1.997,4.455-4.46,4.455c-2.459,0-4.455-1.992-4.455-4.455
			c0-2.464,1.996-4.452,4.455-4.452C156.227,211.189,158.224,213.177,158.224,215.641z"/>
	</g>
	<g>
		<path fill="#87C541" d="M340.066,214.041c0,2.459-1.992,4.452-4.455,4.452c-2.46,0-4.457-1.992-4.457-4.452
			c0-2.464,1.997-4.457,4.457-4.457C338.074,209.584,340.066,211.577,340.066,214.041z"/>
	</g>
	<g>
		<path fill="#E72643" d="M128.197,336.337c-1.39-18.028-7.662-23.375,6.271-29.112c13.941-5.74,39.611-10.4,39.611-10.4
			s9.484-4.084,10.438,13.305c0.952,17.395,11.76,137.461,11.76,137.461l-63.292,0.078
			C132.985,447.667,129.456,352.634,128.197,336.337z"/>
		<path fill="#281912" d="M132.985,450.636c-1.6,0-2.911-1.264-2.969-2.858c-0.036-0.951-3.543-95.156-4.781-111.211
			c-0.354-4.564-1.017-8.234-1.605-11.476c-1.687-9.313-2.805-15.463,9.712-20.616c13.468-5.543,37.039-9.988,39.945-10.525
			c0.581-0.199,1.702-0.514,3.109-0.514c3.803,0,10.302,2.149,11.087,16.532c0.937,17.144,11.646,136.158,11.752,137.361
			c0.075,0.83-0.203,1.649-0.766,2.268c-0.564,0.613-1.357,0.968-2.192,0.968l-63.288,0.071H132.985L132.985,450.636z
			 M176.396,299.378c-0.673,0-1.184,0.19-1.188,0.195c-0.177,0.065-0.411,0.141-0.601,0.174c-0.249,0.045-25.523,4.67-39.006,10.221
			c-8.073,3.322-7.74,5.177-6.127,14.064c0.584,3.211,1.305,7.209,1.683,12.077c1.138,14.771,4.08,92.326,4.688,108.579l57.18-0.062
			c-1.729-19.301-10.617-118.694-11.478-134.332C181.371,307.011,180.509,299.378,176.396,299.378z"/>
	</g>
	<g>
		<path fill="#2C1D13" d="M277.998,277.287c0,0,11.281,55.717,3.189,86.883l0,0c0,0-18.149,33.164,14.858,49.672
			c40.271,16.502,57.437-2.645,61.066-23.596c-11.699,3.734-14.873-15.275-15.572-30.631c-0.451-26.545,2.37-63.207,2.37-63.207"/>
		<path fill="#281912" d="M323.368,423.08c-8.393,0-17.896-2.168-28.447-6.488l-0.204-0.094
			c-10.348-5.176-17.048-12.451-19.92-21.627c-4.615-14.752,2.322-29.293,3.604-31.779c7.664-30.221-3.202-84.672-3.312-85.219
			l5.82-1.18c0.468,2.303,11.323,56.752,3.153,88.227l-0.267,0.672c-0.08,0.139-7.54,14.127-3.313,27.545
			c2.365,7.527,8.016,13.586,16.791,17.998c17.504,7.15,31.543,7.924,41.738,2.283c8.707-4.812,12.586-13.361,14.313-19.77
			c-1.75-0.16-3.391-0.758-4.874-1.789c-5.767-4.015-9.092-14.816-9.88-32.111c-0.448-26.463,2.351-63.197,2.377-63.57l5.923,0.459
			c-0.026,0.365-2.801,36.828-2.36,62.926c0.67,14.613,3.343,24.644,7.335,27.42c0.776,0.537,2.071,1.164,4.361,0.437l4.669-1.494
			l-0.84,4.83c-2.2,12.718-8.646,22.609-18.146,27.865C336.514,421.591,330.322,423.08,323.368,423.08z"/>
	</g>
</g>
</svg>
