<?xml version="1.0" encoding="utf-8"?>
<!-- Generator: Adobe Illustrator 16.0.0, SVG Export Plug-In . SVG Version: 6.00 Build 0)  -->
<!DOCTYPE svg PUBLIC "-//W3C//DTD SVG 1.1//EN" "http://www.w3.org/Graphics/SVG/1.1/DTD/svg11.dtd">
<svg version="1.1" id="Layer_1" xmlns="http://www.w3.org/2000/svg" xmlns:xlink="http://www.w3.org/1999/xlink" x="0px" y="0px"
	 width="500px" height="500px" viewBox="0 0 500 500" enable-background="new 0 0 500 500" xml:space="preserve">
<g id="Layer_1_copy_5">
	<g>
		<g>
			<path fill="#7D421F" d="M356.377,134.668c7.688-17.782,15.13-35.58,35.526-52.775c7.226,4.316,10.88,12.902,11.934,18.694
				c3.867,0.225,5.638-3.648,8.259-5.486c9.206-6.459,19.448-10.371,28.327-12.561c3.281,21.317-6.217,42.042-13.049,62.89
				c8.24-1.307,16.447-1.908,24.537,0.068c-0.437,18.298-16.806,35.858-32.885,53.432c13.988,8.964,28.105,15.175,42.111,23.826
				c-32.423,33.907-68.222,45.773-100.784,44.948c6.164,17.845,9.392,40.718,9.964,61.29c0.172,6.128,2.034,15.404-2.003,20.182
				c-4.17,4.94-13.413,7.123-16.167,3.518c-2.265-2.963,1.983-9.275,3.276-13.19c6.335-19.149-1.596-47.155-7.491-68.644
				c-35.335,29.091-74.05,32.461-109.533,26.414c7.606-14.586,4.311-25.195,11.492-39.806c-19.876-4.811-31.312-8.376-50.568-26.562
				c5.707-6.94,12.96-11.968,19.909-15.083c-16.311-10.756-35.15-21.771-49.285-41.766c13.862-7.413,27.378-7.514,40.905-7.708
				c-3.576-7.282-4.229-14.425-3.271-21.496c20.447-3.254,20.518-12.111,40.633-1.667c-15.031-21.327-12.665-22.292-12.959-42.935
				c11.945-4.465,23.585-2.356,35.335-2.631c-6.965-23.8-12.358-47.527,1.124-70.376c21.506,7.343,36.378,36.42,43.372,54.297
				c9.854-5.455,19.928-15.577,29.688-18.899C358.5,87.104,355.054,110.776,356.377,134.668z"/>
			<path fill="#27140E" d="M356.79,357.701c-3.135,0-5.692-1.092-7.197-3.053c-2.82-3.693-0.481-8.791,1.395-12.875
				c0.561-1.225,1.091-2.381,1.387-3.273c5.593-16.915-0.623-41.506-6.25-62.094c-23.042,17.652-49.698,26.597-79.308,26.597
				c-9.217,0-18.958-0.862-28.957-2.565c-1.011-0.17-1.881-0.818-2.338-1.74c-0.457-0.913-0.441-1.998,0.029-2.912
				c3.644-6.99,4.616-12.979,5.649-19.326c0.854-5.279,1.739-10.707,4.188-16.784c-17.66-4.405-29.524-8.731-48.268-26.434
				c-1.228-1.159-1.35-3.071-0.272-4.376c5.139-6.257,10.975-10.537,15.981-13.391c-0.158-0.105-0.32-0.208-0.479-0.313
				c-15.002-9.759-31.999-20.82-45.027-39.249c-0.531-0.754-0.716-1.7-0.503-2.596c0.215-0.897,0.797-1.659,1.612-2.094
				c12.878-6.891,25.438-7.767,37.635-8.011c-2.031-5.877-2.577-12.069-1.67-18.789c0.188-1.407,1.275-2.521,2.677-2.743
				c6.438-1.025,10.685-2.604,14.431-3.999c3.826-1.421,7.13-2.651,11.252-2.651c2.101,0,4.324,0.336,6.783,1.04
				c-7.229-11.453-7.517-16.243-7.477-28.438c0.008-2.153,0.019-4.564-0.022-7.335c-0.018-1.359,0.819-2.581,2.087-3.057
				c7.301-2.729,14.235-3.095,20.054-3.095c2.385,0,4.764,0.07,7.143,0.144c1.669,0.051,3.333,0.103,5.002,0.126
				c-6.618-23.396-10.665-46.292,2.625-68.805c0.773-1.314,2.363-1.901,3.805-1.411c22.487,7.68,37.411,37.094,43.9,52.65
				c2.863-1.838,5.783-3.997,8.634-6.105c5.991-4.434,12.188-9.016,18.449-11.147c1.468-0.5,3.082,0.122,3.838,1.469
				c11.146,19.863,11.378,39.252,11.603,58.004c0.004,0.442,0.013,0.885,0.016,1.329c6.434-13.684,14.718-27.542,30.638-40.962
				c1.047-0.885,2.544-1.005,3.717-0.302c6.65,3.971,10.678,10.981,12.568,17.239c0.387-0.345,0.812-0.781,1.314-1.312
				c0.847-0.896,1.724-1.822,2.816-2.592c10.542-7.391,21.81-11.175,29.407-13.05c0.874-0.217,1.799-0.054,2.552,0.446
				c0.747,0.501,1.253,1.296,1.395,2.186c2.831,18.431-3.435,36.336-9.497,53.653c-0.684,1.944-1.36,3.89-2.028,5.834
				c8.185-0.938,14.508-0.651,20.602,0.837c1.464,0.357,2.484,1.69,2.448,3.198c-0.441,18.477-15.753,35.862-31.124,52.678
				c6.282,3.838,12.664,7.247,18.869,10.557c6.537,3.49,13.295,7.097,19.961,11.214c0.822,0.51,1.375,1.364,1.497,2.326
				c0.12,0.962-0.196,1.928-0.867,2.629c-28.426,29.726-62.514,45.604-98.667,45.979c4.995,16.272,8.155,37.082,8.737,57.942
				c0.029,1.217,0.137,2.565,0.247,3.975c0.469,6.046,1.048,13.574-3.009,18.375C367.566,355.045,361.818,357.701,356.79,357.701z
				 M347.934,267.654c0.328,0,0.652,0.044,0.975,0.146c1.039,0.331,1.84,1.164,2.127,2.211l0.356,1.307
				c6.059,22.055,13.599,49.508,7.083,69.195c-0.404,1.229-1.01,2.543-1.647,3.938c-0.792,1.738-2.452,5.345-2.087,6.355
				c0.104,0.117,0.72,0.465,2.051,0.465c3.115,0,7.097-1.83,9.069-4.166c2.354-2.787,1.884-8.863,1.508-13.737
				c-0.114-1.519-0.227-2.972-0.262-4.285c-0.619-22.12-4.186-44.108-9.788-60.323c-0.349-0.996-0.183-2.102,0.44-2.949
				c0.62-0.85,1.689-1.3,2.673-1.313c1.022,0.026,2.04,0.04,3.062,0.04c33.661-0.003,65.57-14.202,92.515-41.125
				c-5.391-3.18-10.852-6.096-16.164-8.931c-7.388-3.943-15.022-8.021-22.553-12.845c-0.8-0.511-1.326-1.35-1.452-2.288
				c-0.121-0.94,0.177-1.888,0.818-2.586l0.862-0.944c14.334-15.664,29.135-31.833,30.991-47.745
				c-5.762-0.99-11.871-0.855-20.632,0.532c-1.103,0.187-2.227-0.236-2.949-1.089c-0.726-0.852-0.959-2.021-0.607-3.086
				c1.184-3.619,2.449-7.234,3.717-10.849c5.637-16.106,10.986-31.381,9.637-46.976c-6.775,1.967-15.517,5.365-23.734,11.127
				c-0.564,0.396-1.185,1.052-1.84,1.746c-1.807,1.908-4.304,4.568-8.446,4.319c-1.482-0.086-2.714-1.174-2.977-2.632
				c-0.866-4.76-3.604-11.271-8.557-15.218c-18.048,15.868-25.009,31.976-32.364,48.996l-0.431,1.001
				c-0.594,1.37-2.046,2.144-3.515,1.89c-1.467-0.262-2.562-1.499-2.644-2.987c-0.295-5.263-0.357-10.57-0.42-15.701
				c-0.214-17.929-0.416-34.906-9.445-52.454c-4.599,2.124-9.465,5.724-14.194,9.221c-4.066,3.006-8.271,6.115-12.467,8.438
				c-0.812,0.446-1.782,0.525-2.646,0.21c-0.874-0.313-1.567-0.988-1.902-1.851c-4.996-12.775-18.538-42.578-38.938-51.463
				c-11.053,20.908-6.084,42.907,0.521,65.469c0.28,0.959,0.101,1.993-0.489,2.8c-0.591,0.806-1.521,1.292-2.52,1.314
				c-3.182,0.076-6.359-0.02-9.537-0.118c-2.314-0.07-4.632-0.143-6.949-0.143c-4.66,0-10.088,0.253-15.688,1.973
				c0.011,1.862,0.004,3.554,0,5.112c-0.047,13.62-0.059,16.073,12.352,33.678c0.854,1.211,0.767,2.85-0.206,3.967
				c-0.975,1.116-2.589,1.422-3.905,0.738c-6.099-3.167-10.407-4.58-13.977-4.58c-2.964,0-5.5,0.942-9.011,2.248
				c-3.37,1.255-7.47,2.778-13.229,3.894c-0.485,6.252,0.576,11.943,3.224,17.332c0.487,0.988,0.428,2.157-0.148,3.097
				c-0.574,0.938-1.592,1.517-2.691,1.534l-0.516,0.007c-12.185,0.173-23.755,0.339-35.575,5.672
				c11.954,15.603,26.727,25.216,41.046,34.531c1.733,1.132,3.455,2.251,5.147,3.366c0.98,0.646,1.526,1.774,1.435,2.944
				c-0.096,1.168-0.818,2.192-1.892,2.671c-6.274,2.815-12.126,6.994-16.746,11.924c17.527,16.004,28.353,19.193,46.846,23.668
				c0.951,0.229,1.739,0.877,2.152,1.76c0.417,0.886,0.406,1.906-0.021,2.783c-3.303,6.715-4.239,12.488-5.234,18.602
				c-0.882,5.435-1.788,11.031-4.417,17.277c40.718,5.994,73.932-2.647,102.771-26.383
				C346.478,267.904,347.2,267.654,347.934,267.654z"/>
		</g>
	</g>
	<g>
		<g>
			<path fill="#C84B27" d="M238.018,154.983c17.664-7.965,35.154-16.103,61.807-15.074c2.439,8.06-0.646,16.866-3.771,21.859
				c2.708,2.767,6.624,1.099,9.799,1.506c11.16,1.427,21.361,5.433,29.399,9.798c-11.938,17.962-32.917,26.884-52.012,37.687
				c6.972,4.586,13.442,9.674,18.092,16.583c-12.646,13.232-36.577,15.179-60.295,17.335c4.295,16.054,10.548,30.149,15.071,45.98
				c-46.8,3.223-81.258-12.122-104.77-34.673c-7.459,17.338-20.483,36.42-33.919,52.009c-4.004,4.646-8.875,12.749-15.076,13.567
				c-6.414,0.84-14.714-3.769-14.319-8.295c0.324-3.709,7.713-5.517,11.309-7.537c17.585-9.896,30.589-35.933,40.698-55.775
				c-45.705-2.308-76.587-25.898-98.737-54.269c15.444-5.658,29.325-12.884,44.472-18.846C74.32,159.894,59.1,146.722,57.124,120.31
				c8.893-1.283,17.637-0.114,24.875,2.262c-4.812-18.934-11.315-39.769-8.292-64.066c15.234,3.856,25.296,12.889,35.424,21.858
				c2.263-7.789,6.592-13.507,12.063-18.09c17.305,11.372,24.575,33.751,32.407,55.023c3.259-25.888,4.402-53.89,18.087-69.346
				c11.839,4.749,19.021,14.148,27.888,21.861c10.892-22.28,22.884-43.451,48.242-51.254c10.946,19.911,2.349,51.42-4.524,69.344
				c10.961,2.608,25.224,1.912,34.671,6.029C271.631,121.261,253.139,136.437,238.018,154.983z"/>
			<path fill="#27140E" d="M100.764,324.873c-5.003,0-10.434-2.248-13.509-5.604c-1.78-1.939-2.62-4.115-2.43-6.283
				c0.398-4.623,5.56-6.812,9.704-8.574c1.238-0.523,2.408-1.018,3.229-1.482c15.521-8.729,27.489-31.095,37.201-50.096
				c-38.248-3.222-69.76-21.306-96.198-55.172c-0.634-0.809-0.841-1.873-0.556-2.859c0.28-0.988,1.021-1.781,1.983-2.135
				c8.442-3.093,16.594-6.741,24.477-10.27c5.242-2.347,10.636-4.759,16.151-7.031c-1.832-2.543-3.734-5.041-5.593-7.482
				c-9.685-12.7-19.695-25.828-21.31-47.333c-0.125-1.683,1.076-3.178,2.746-3.419c6.737-0.972,13.948-0.658,20.839,0.877
				c-0.049-0.184-0.101-0.371-0.145-0.557c-4.512-17.317-9.63-36.944-6.838-59.343c0.114-0.915,0.615-1.735,1.374-2.256
				c0.76-0.518,1.711-0.684,2.604-0.463c14.157,3.585,24.031,11.399,33.211,19.431c2.456-5.71,6.225-10.651,11.422-15.009
				c1.084-0.913,2.64-1.001,3.827-0.223c14.696,9.656,22.419,26.529,29.008,43.971c2.478-21.875,5.316-44.183,17.321-57.738
				c0.899-1.016,2.345-1.356,3.602-0.853c9.276,3.721,15.791,10.036,22.088,16.142c1.184,1.146,2.389,2.31,3.605,3.458
				c10.876-21.749,23.309-41.397,48.291-49.083c1.46-0.444,3.03,0.188,3.765,1.522c11.447,20.822,2.661,52.614-3.021,68.484
				c3.352,0.571,6.965,0.94,10.49,1.303c7.418,0.761,15.084,1.55,21.145,4.189c1.423,0.62,2.197,2.163,1.852,3.672
				c-5.146,22.188-18.039,36.681-30.506,50.692c-0.295,0.327-0.583,0.653-0.877,0.982c13.973-5.781,29.428-10.45,50.233-9.635
				c1.371,0.053,2.555,0.97,2.952,2.28c2.241,7.416,0.493,15.313-2.329,21.216c0.629,0.019,1.24-0.046,1.86-0.094
				c1.315-0.098,2.618-0.167,3.826-0.013c12.769,1.633,23.647,6.428,30.528,10.161c0.792,0.431,1.367,1.176,1.581,2.05
				c0.221,0.877,0.059,1.803-0.442,2.553c-10.323,15.535-27.021,24.547-43.173,33.261c-1.807,0.976-3.613,1.95-5.412,2.935
				c5.189,3.739,10.525,8.362,14.654,14.502c0.846,1.252,0.701,2.924-0.343,4.015c-12.771,13.359-35.804,15.892-58.487,17.968
				c2.058,7.064,4.479,13.885,6.836,20.511c2.477,6.982,5.043,14.202,7.195,21.73c0.267,0.929,0.097,1.933-0.461,2.729
				s-1.441,1.291-2.407,1.363c-40.983,2.816-76.996-8.479-103.895-32.494c-7.271,15.402-18.958,32.915-32.581,48.717
				c-0.797,0.93-1.626,1.998-2.503,3.112c-3.725,4.778-8.362,10.729-14.586,11.547C102.113,324.829,101.441,324.873,100.764,324.873
				z M46.563,197.129c25.785,31.498,56.453,47.737,93.632,49.617c1.091,0.052,2.071,0.653,2.617,1.597
				c0.546,0.943,0.578,2.098,0.085,3.071l-0.616,1.201c-10.374,20.383-23.294,45.749-41.374,55.917
				c-1.132,0.634-2.463,1.202-3.87,1.8c-1.756,0.744-5.417,2.292-5.825,3.288c-0.008,0.169,0.221,0.692,0.781,1.306
				c2.071,2.256,6.518,3.908,9.932,3.45c3.613-0.479,7.353-5.272,10.36-9.129c0.944-1.201,1.84-2.358,2.699-3.354
				c14.444-16.752,26.618-35.408,33.402-51.179c0.421-0.967,1.283-1.67,2.315-1.877c1.04-0.222,2.102,0.097,2.86,0.826
				c23.334,22.381,54.565,34.209,90.313,34.209c2.625,0,5.303-0.067,7.993-0.192c-1.836-5.979-3.907-11.812-5.924-17.482
				c-2.807-7.891-5.704-16.051-8.013-24.689c-0.247-0.914-0.077-1.891,0.465-2.669c0.545-0.778,1.401-1.275,2.346-1.361l1.293-0.118
				c21.141-1.917,42.959-3.898,55.049-14.404c-4.509-5.796-10.364-10.06-15.61-13.511c-0.937-0.616-1.48-1.674-1.445-2.793
				c0.037-1.119,0.656-2.138,1.631-2.689c3.311-1.873,6.677-3.688,10.043-5.506c15.02-8.105,29.27-15.794,38.782-28.23
				c-6.335-3.114-15.083-6.491-25.037-7.765c-0.81-0.103-1.671-0.017-2.541,0.05c-0.769,0.055-1.538,0.11-2.297,0.11
				c-1.849,0-4.564-0.271-6.854-2.605c-1.035-1.062-1.213-2.695-0.424-3.954c2.566-4.102,4.926-10.758,3.927-17.011
				c-24.108-0.45-40.028,6.784-56.948,14.421l-0.969,0.438c-1.364,0.614-2.964,0.212-3.872-0.971
				c-0.906-1.182-0.885-2.833,0.06-3.988c3.325-4.085,6.85-8.044,10.26-11.875c11.92-13.398,23.21-26.084,28.358-45.14
				c-4.824-1.529-10.847-2.148-16.699-2.747c-5.029-0.518-10.231-1.05-14.898-2.164c-0.9-0.214-1.668-0.807-2.095-1.626
				c-0.436-0.818-0.495-1.787-0.163-2.651c4.911-12.808,14.984-43.958,5.893-64.262c-22.25,8.004-33.399,27.613-43.719,48.735
				c-0.439,0.898-1.269,1.541-2.249,1.74c-0.98,0.195-1.998-0.07-2.751-0.725c-2.422-2.11-4.733-4.348-6.964-6.512
				c-5.57-5.401-10.865-10.532-17.878-13.859c-9.799,12.73-12.188,33.944-14.507,54.489c-0.429,3.796-0.856,7.592-1.328,11.343
				c-0.185,1.471-1.353,2.624-2.824,2.791c-1.493,0.182-2.871-0.691-3.38-2.082l-1.513-4.131
				c-6.738-18.441-13.692-37.482-27.644-47.915c-4.527,4.277-7.552,9.171-9.21,14.896c-0.31,1.058-1.135,1.886-2.193,2.192
				c-1.058,0.308-2.201,0.05-3.027-0.68l-0.384-0.345C97.49,74.35,88.83,66.679,76.501,62.659
				c-1.678,19.587,2.765,36.644,7.075,53.173c0.52,2.004,1.036,3.988,1.537,5.951c0.288,1.135-0.067,2.339-0.922,3.139
				c-0.859,0.802-2.087,1.067-3.2,0.704c-6.496-2.135-13.63-3.01-20.365-2.474c2.134,17.787,10.684,29,19.709,40.833
				c2.706,3.55,5.505,7.22,8.093,11.055c0.55,0.809,0.697,1.821,0.409,2.752c-0.291,0.931-0.988,1.681-1.895,2.037
				c-6.696,2.636-13.28,5.583-19.651,8.435C60.596,191.262,53.712,194.344,46.563,197.129z"/>
		</g>
	</g>
	<g>
		<g>
			<path fill="#FAA625" d="M252.12,271.583c10.787-16.091,21.34-32.24,44.516-45.446c6.33,5.554,8.36,14.663,8.347,20.551
				c3.761,0.922,6.204-2.562,9.113-3.897c10.231-4.679,21.013-6.668,30.138-7.21c-0.646,21.56-13.741,40.212-24.245,59.474
				c8.34,0.213,16.517,1.112,24.115,4.526c-3.75,17.91-23.035,32.208-42.037,46.571c12.127,11.355,24.887,20.027,37.086,31.072
				c-38.037,27.461-75.398,32.629-107.271,25.911c2.823,18.663,1.843,41.735-1.328,62.071c-0.943,6.062-0.797,15.521-5.633,19.489
				c-5,4.101-14.486,4.562-16.539,0.522c-1.685-3.326,3.634-8.76,5.619-12.373c9.71-17.695,6.993-46.669,5.095-68.863
				c-40.032,22.188-78.711,18.473-112.508,6.084c10.127-12.971,18.094-26.436,27.806-39.493
				c-18.67-8.341-38.55-11.488-54.182-32.864c6.872-5.788,14.917-9.417,22.316-11.223c-14.088-13.537-30.619-27.791-40.883-50.022
				c14.975-4.772,28.284-2.411,41.623-0.147c-2.196-7.81-1.537-14.957,0.687-21.732c20.702,0.514,38.697,15.68,56.581,29.602
				c-10.909-23.705-24.728-48.084-21.269-68.439c12.558-2.22,23.618,1.965,35.225,3.829c-2.525-24.667-3.525-48.98,13.884-69.002
				c19.813,11.124,29.156,42.417,32.791,61.269c10.685-3.573,22.424-11.7,32.625-13.195
				C262.846,225.199,255.157,247.849,252.12,271.583z"/>
			<path fill="#27140E" d="M214.957,491.239c-4.528,0-7.972-1.667-9.445-4.565c-2.103-4.144,1.119-8.722,3.709-12.409
				c0.773-1.099,1.508-2.139,1.96-2.965c8.568-15.617,6.922-40.924,5.126-62.188c-18.387,9.365-37.794,14.105-57.759,14.105
				c-17.1,0.007-34.457-3.312-53.068-10.132c-0.963-0.354-1.704-1.144-1.984-2.131c-0.279-0.988-0.073-2.052,0.558-2.861
				c5.534-7.086,10.525-14.481,15.348-21.642c3.219-4.771,6.526-9.667,10.014-14.512c-2.897-1.193-5.828-2.309-8.693-3.393
				c-14.932-5.671-30.372-11.531-43.106-28.941c-0.996-1.363-0.768-3.267,0.523-4.357c6.197-5.213,12.712-8.361,18.154-10.264
				c-0.141-0.133-0.28-0.266-0.424-0.398c-12.975-12.32-27.681-26.279-37.145-46.771c-0.389-0.834-0.395-1.801-0.022-2.642
				c0.368-0.847,1.084-1.487,1.965-1.769c6.183-1.969,12.523-2.928,19.389-2.928c6.551,0,12.901,0.877,19.076,1.879
				c-0.934-6.142-0.347-12.325,1.766-18.773c0.443-1.346,1.597-2.242,3.138-2.212c17.575,0.435,33.049,10.685,47.854,22.012
				c-9.453-19.886-18.824-40.321-15.794-58.175c0.229-1.338,1.271-2.389,2.61-2.625c2.596-0.461,5.199-0.684,7.956-0.684
				c6.766,0,13.148,1.382,19.323,2.719c1.611,0.348,3.248,0.704,4.893,1.031c-2.256-24.208-2.079-47.459,15.072-67.186
				c0.999-1.148,2.668-1.436,3.995-0.691c20.717,11.628,30.056,43.265,33.617,59.744c3.146-1.287,6.408-2.881,9.593-4.436
				c6.704-3.272,13.627-6.653,20.168-7.613c1.519-0.218,3.008,0.672,3.509,2.142c7.353,21.561,4.063,40.673,0.878,59.156
				c-0.072,0.432-0.146,0.862-0.225,1.299c8.812-12.29,19.475-24.414,37.562-34.715c1.19-0.68,2.681-0.528,3.709,0.375
				c5.821,5.106,8.51,12.738,9.231,19.242c0.49-0.302,1.007-0.678,1.534-1.062c0.99-0.727,2.02-1.479,3.235-2.035
				c11.717-5.354,23.479-7.031,31.287-7.493c0.893-0.054,1.78,0.272,2.43,0.901c0.648,0.629,0.999,1.501,0.971,2.402
				c-0.559,18.642-9.974,35.118-19.079,51.044c-1.021,1.785-2.039,3.568-3.046,5.354c6.386,0.435,13.356,1.542,20.101,4.571
				c1.379,0.619,2.139,2.117,1.829,3.592c-3.786,18.087-21.999,32.406-40.168,46.15c5.479,4.92,11.146,9.433,16.646,13.812
				c5.794,4.615,11.779,9.395,17.583,14.645c0.72,0.648,1.105,1.592,1.052,2.565c-0.053,0.966-0.542,1.858-1.327,2.426
				C314.221,399.186,286.01,409,257.182,409c-7.178,0-14.403-0.627-21.527-1.866c1.962,16.915,1.29,37.96-1.932,58.57
				c-0.185,1.201-0.324,2.551-0.476,3.966c-0.638,6.024-1.435,13.531-6.286,17.513C223.908,489.683,219.307,491.239,214.957,491.239
				z M219.094,400.771c0.516,0,1.036,0.125,1.508,0.375c0.962,0.516,1.597,1.481,1.692,2.565l0.114,1.334
				c1.957,22.785,4.391,51.152-5.593,69.344c-0.623,1.144-1.453,2.321-2.338,3.575c-1.099,1.563-3.385,4.814-3.208,5.87
				c0.147,0.265,1.283,0.974,3.688,0.974c2.89,0,6.002-1.018,7.927-2.596c2.816-2.314,3.458-8.362,3.974-13.222
				c0.159-1.526,0.313-2.979,0.517-4.276c3.414-21.854,3.894-44.125,1.327-61.099c-0.154-1.04,0.207-2.095,0.973-2.817
				c0.768-0.722,1.84-1.031,2.868-0.811c8.119,1.719,16.411,2.58,24.641,2.58c26.283,0,52.103-8.619,76.805-25.631
				c-4.724-4.101-9.561-7.955-14.27-11.709c-6.551-5.222-13.319-10.617-19.85-16.731c-0.693-0.647-1.062-1.57-1.015-2.515
				c0.053-0.943,0.518-1.82,1.272-2.396l1.028-0.774c16.938-12.801,34.42-26.008,39.136-41.315
				c-6.887-2.536-14.105-3.065-20.389-3.229c-1.116-0.027-2.143-0.634-2.699-1.605c-0.562-0.975-0.574-2.16-0.039-3.143
				c1.824-3.34,3.723-6.666,5.622-9.983c8.469-14.82,16.502-28.874,18.006-44.458c-7.016,0.705-16.229,2.459-25.357,6.637
				c-0.627,0.283-1.355,0.818-2.128,1.378c-1.807,1.32-4.052,2.96-7.082,2.96c-0.668,0-1.343-0.081-2.01-0.247
				c-1.438-0.351-2.447-1.645-2.447-3.126c0.012-4.841-1.497-11.741-5.651-16.517c-20.632,12.329-30.402,26.909-40.722,42.312
				l-0.604,0.898c-0.826,1.232-2.399,1.755-3.798,1.217c-1.394-0.523-2.248-1.938-2.057-3.412c0.671-5.229,1.571-10.455,2.44-15.507
				c3.045-17.671,5.929-34.407,0.236-53.306c-4.911,1.251-10.35,3.908-15.636,6.488c-4.542,2.22-9.243,4.513-13.793,6.034
				c-0.877,0.292-1.84,0.194-2.64-0.273c-0.797-0.466-1.356-1.257-1.533-2.166c-2.596-13.471-10.508-45.241-28.946-57.677
				c-14.666,18.552-13.77,41.088-11.373,64.474c0.099,0.996-0.266,1.978-0.992,2.664c-0.727,0.686-1.722,0.992-2.717,0.839
				c-3.172-0.511-6.32-1.191-9.357-1.852c-6.112-1.321-11.887-2.571-17.963-2.571c-1.56,0-3.06,0.083-4.534,0.251
				c-1.597,15.986,7.58,35.259,16.465,53.927c1.641,3.452,3.281,6.902,4.864,10.331c0.618,1.35,0.239,2.941-0.926,3.864
				c-1.162,0.922-2.803,0.929-3.967,0.014L155.086,284c-15.459-12.093-31.419-24.582-48.773-26.07
				c-1.585,6.023-1.563,11.772,0.052,17.519c0.295,1.062,0.029,2.196-0.708,3.015c-0.733,0.819-1.837,1.203-2.928,1.02l-0.52-0.09
				c-7.544-1.274-14.666-2.484-22.154-2.484c-4.867,0-9.428,0.531-13.848,1.615c8.923,17.512,21.701,29.643,34.089,41.396
				c1.504,1.431,2.993,2.847,4.457,4.255c0.845,0.812,1.184,2.021,0.874,3.148c-0.303,1.136-1.201,2.014-2.341,2.294
				c-6.67,1.622-13.17,4.659-18.601,8.655c11.215,13.975,24.399,18.98,38.313,24.261c4.174,1.584,8.48,3.222,12.705,5.11
				c0.889,0.396,1.548,1.172,1.799,2.114c0.244,0.943,0.053,1.955-0.53,2.736c-4.299,5.772-8.336,11.761-12.241,17.557
				c-4.099,6.075-8.313,12.321-12.911,18.464c16.329,5.567,31.656,8.28,46.728,8.28c20.44,0,40.29-5.257,58.982-15.616
				C218.017,400.911,218.555,400.771,219.094,400.771z"/>
		</g>
	</g>
</g>
</svg>
