<?xml version="1.0" encoding="utf-8"?>
<!-- Generator: Adobe Illustrator 16.0.0, SVG Export Plug-In . SVG Version: 6.00 Build 0)  -->
<!DOCTYPE svg PUBLIC "-//W3C//DTD SVG 1.1//EN" "http://www.w3.org/Graphics/SVG/1.1/DTD/svg11.dtd">
<svg version="1.1" id="Layer_1" xmlns="http://www.w3.org/2000/svg" xmlns:xlink="http://www.w3.org/1999/xlink" x="0px" y="0px"
	 width="500px" height="500px" viewBox="0 0 500 500" enable-background="new 0 0 500 500" xml:space="preserve">
<g id="Layer_1_copy_49">
	<g>
		<g>
			<path fill="#27140E" d="M313.088,345.141c-0.843,0-1.688-0.312-2.345-0.935l-9.962-9.396l-7.096,7.364
				c-1.3,1.345-3.441,1.399-4.807,0.112l-13.314-12.562c-0.967-0.91-1.316-2.303-0.896-3.562l17.576-52.666
				c0.355-1.074,1.227-1.902,2.316-2.207l22.421-6.305c1.038-0.288,2.155-0.073,3.01,0.588l9.043,6.975
				c0.475,0.365,0.843,0.85,1.071,1.401l20.791,50.411c0.511,1.244,0.246,2.669-0.678,3.646l-12.412,13.162
				c-0.618,0.657-1.479,1.042-2.384,1.071c-0.897,0.071-1.786-0.308-2.442-0.931l-7.578-7.147l-9.892,9.968
				C314.849,344.8,313.968,345.141,313.088,345.141z M300.667,326.588c0.843,0,1.685,0.309,2.344,0.932l9.997,9.432l9.892-9.969
				c1.302-1.318,3.422-1.352,4.77-0.076l7.514,7.09l8.557-9.072l-19.6-47.523l-6.961-5.371l-19.026,5.349l-16.311,48.877
				l9.268,8.745l7.098-7.365C298.877,326.938,299.771,326.588,300.667,326.588z"/>
		</g>
		<g>
			<path fill="#9FDCF3" d="M322.411,256.008c5.51,5.197,7.096,12.924,4.539,19.242c-0.727,1.787-30.513,1.382-31.466-0.674
				c-2.854-6.169-2.014-13.51,2.712-18.521C304.507,249.365,315.347,249.349,322.411,256.008z"/>
			<path fill="#27140E" d="M314.478,279.803c-20.333,0-21.35-2.188-22.091-3.785c-3.541-7.658-2.234-16.412,3.323-22.31
				c3.712-3.933,8.807-6.102,14.344-6.102c5.435,0,10.656,2.101,14.701,5.912c6.351,5.992,8.505,15.241,5.361,23.016
				C329.272,278.619,328.131,279.803,314.478,279.803z M298.116,272.006c2.294,0.453,8.345,0.96,16.36,0.96
				c4.964,0,8.181-0.212,9.784-0.42c1.325-4.862-0.267-10.347-4.195-14.055c-2.771-2.611-6.326-4.05-10.013-4.05
				c-3.635,0-6.966,1.402-9.371,3.953C297.316,261.965,296.361,267.198,298.116,272.006z"/>
		</g>
		<g>
			<path fill="#27140E" d="M288.043,300.289c-1.87,0-3.395-1.504-3.417-3.378c-0.021-1.886,1.492-3.433,3.379-3.454l47.597-0.546
				c0.014,0,0.025,0,0.039,0c1.87,0,3.396,1.504,3.416,3.378c0.022,1.886-1.487,3.434-3.375,3.454l-47.597,0.546
				C288.07,300.289,288.059,300.289,288.043,300.289z"/>
		</g>
		<g>
			<path fill="#27140E" d="M341.841,314.773c-0.006,0-0.013,0-0.019,0l-58.53-0.293c-1.888-0.01-3.41-1.545-3.401-3.436
				c0.012-1.88,1.539-3.396,3.418-3.396c0.006,0,0.012,0,0.02,0l58.53,0.291c1.887,0.006,3.409,1.547,3.399,3.434
				C345.248,313.252,343.721,314.773,341.841,314.773z"/>
		</g>
		<g>
			<path fill="#27140E" d="M300.67,333.421c-0.154,0-0.312-0.014-0.472-0.035c-1.87-0.257-3.177-1.979-2.916-3.854l7.441-53.73
				c0.261-1.87,1.971-3.183,3.856-2.916c1.867,0.261,3.172,1.982,2.912,3.853l-7.442,53.734
				C303.812,332.184,302.352,333.421,300.67,333.421z"/>
		</g>
		<g>
			<path fill="#27140E" d="M325.32,332.809c-1.648,0-3.1-1.193-3.368-2.871l-8.604-53.021c-0.302-1.861,0.962-3.616,2.826-3.92
				c1.858-0.312,3.618,0.965,3.92,2.826l8.602,53.021c0.302,1.86-0.961,3.615-2.822,3.921
				C325.686,332.792,325.499,332.809,325.32,332.809z"/>
		</g>
	</g>
	<g>
		<path fill="#62CBE7" d="M325.483,126.415c0,54.858-38.104,99.33-85.128,99.33c-47.007,0-85.111-44.472-85.111-99.33
			c0-54.86,38.104-99.332,85.111-99.332C287.379,27.083,325.483,71.555,325.483,126.415z"/>
		<path fill="#27140E" d="M240.355,229.161c-48.816,0-88.524-46.091-88.524-102.746c0-56.657,39.708-102.748,88.524-102.748
			c48.823,0,88.544,46.091,88.544,102.748C328.899,183.069,289.18,229.161,240.355,229.161z M240.355,30.5
			c-45.043,0-81.691,43.027-81.691,95.915c0,52.886,36.648,95.913,81.691,95.913c45.054,0,81.712-43.027,81.712-95.913
			C322.067,73.527,285.409,30.5,240.355,30.5z"/>
	</g>
	<g>
		<line fill="none" x1="188.957" y1="45.704" x2="188.957" y2="206.587"/>
		<rect x="185.541" y="45.704" fill="#27140E" width="6.833" height="160.883"/>
	</g>
	<g>
		<line fill="none" x1="295.739" y1="50.979" x2="295.739" y2="201.819"/>
		<rect x="292.322" y="50.979" fill="#27140E" width="6.833" height="150.839"/>
	</g>
	<g>
		<line fill="none" x1="224.223" y1="26.815" x2="224.223" y2="225.477"/>
		<rect x="220.807" y="26.815" fill="#27140E" width="6.832" height="198.661"/>
	</g>
	<g>
		<line fill="none" x1="263.768" y1="30.663" x2="263.768" y2="222.162"/>
		<rect x="260.352" y="30.663" fill="#27140E" width="6.832" height="191.499"/>
	</g>
	<g>
		<line fill="none" x1="171.965" y1="185.644" x2="309.354" y2="185.644"/>
		<rect x="171.965" y="182.228" fill="#27140E" width="137.391" height="6.835"/>
	</g>
	<g>
		<line fill="none" x1="161.25" y1="91.778" x2="320.816" y2="91.778"/>
		<rect x="161.25" y="88.361" fill="#27140E" width="159.566" height="6.833"/>
	</g>
	<g>
		<line fill="none" x1="177.097" y1="59.97" x2="303.631" y2="59.97"/>
		<rect x="177.097" y="56.552" fill="#27140E" width="126.534" height="6.835"/>
	</g>
	<g>
		<line fill="none" x1="156.874" y1="154.177" x2="323.254" y2="154.177"/>
		<rect x="156.874" y="150.76" fill="#27140E" width="166.38" height="6.833"/>
	</g>
	<g>
		<line fill="none" x1="155.938" y1="122.366" x2="325.59" y2="122.366"/>
		<rect x="155.938" y="118.949" fill="#27140E" width="169.652" height="6.833"/>
	</g>
	<g>
		<line fill="none" x1="240.129" y1="225.745" x2="240.129" y2="381.998"/>
		<rect x="236.711" y="225.745" fill="#27140E" width="6.834" height="156.253"/>
	</g>
	<g>
		<path fill="#522626" d="M257.98,441.204c-0.139,7.675-5.644,13.801-12.303,13.686l-12.396-0.224
			c-6.654-0.116-11.94-6.436-11.806-14.106l1.273-71.792c0.139-7.677,5.644-13.802,12.297-13.686l12.405,0.223
			c6.649,0.117,11.937,6.432,11.8,14.108L257.98,441.204z"/>
		<path fill="#27140E" d="M245.867,458.309l-0.247-0.003l-12.396-0.225c-8.53-0.151-15.331-8.04-15.162-17.584l1.271-71.791
			c0.166-9.399,7.134-17.045,15.526-17.045l0.244,0.004l12.408,0.222c4.221,0.077,8.129,2.008,11.004,5.443
			c2.758,3.295,4.23,7.605,4.15,12.143l-1.271,71.792C261.229,450.661,254.26,458.309,245.867,458.309z M234.982,358.499
			c-4.815,0-8.713,4.632-8.815,10.326l-1.271,71.792c-0.104,5.776,3.686,10.548,8.446,10.632l12.399,0.225l0.125,3.416v-3.416
			c4.692,0,8.594-4.632,8.696-10.33l1.271-71.792c0.052-2.891-0.856-5.602-2.56-7.635c-1.586-1.893-3.67-2.959-5.884-2.997
			l-12.405-0.221C234.985,358.499,234.985,358.499,234.982,358.499z"/>
	</g>
</g>
</svg>
