<?xml version="1.0" encoding="utf-8"?>
<!-- Generator: Adobe Illustrator 16.0.0, SVG Export Plug-In . SVG Version: 6.00 Build 0)  -->
<!DOCTYPE svg PUBLIC "-//W3C//DTD SVG 1.1//EN" "http://www.w3.org/Graphics/SVG/1.1/DTD/svg11.dtd">
<svg version="1.1" id="Layer_1" xmlns="http://www.w3.org/2000/svg" xmlns:xlink="http://www.w3.org/1999/xlink" x="0px" y="0px"
	 width="500px" height="500px" viewBox="0 0 500 500" enable-background="new 0 0 500 500" xml:space="preserve">
<g id="Layer_1_copy_89">
	<g>
		<path fill="#C8DC65" d="M225.678,70.165c0,0-0.728-24.938,18.201-24.938c19.182,0,20.786,24.938,20.786,24.938h14.786
			c0,0,2.206-40.183-36.298-38.835c-38.663,1.354-32.934,38.835-32.934,38.835"/>
		<path fill="#27140E" d="M210.216,72.746c-1.253,0-2.353-0.914-2.549-2.192c-0.107-0.718-2.571-17.719,7.579-29.968
			c6.156-7.424,15.51-11.407,27.814-11.838c11.815-0.394,21.24,2.866,27.991,9.749c11.914,12.154,11.022,31.014,10.975,31.809
			c-0.073,1.37-1.203,2.441-2.574,2.441h-14.786c-1.36,0-2.489-1.057-2.578-2.413c-0.063-0.919-1.702-22.524-18.208-22.524
			c-4.039,0-7.224,1.255-9.731,3.837c-6.17,6.353-5.892,18.323-5.888,18.442c0.041,1.427-1.081,2.615-2.507,2.658
			c-1.457,0.095-2.616-1.081-2.656-2.506c-0.016-0.582-0.327-14.291,7.348-22.194c3.48-3.585,8.002-5.404,13.435-5.404
			c15.72,0,21.774,15.148,23.115,24.938h9.864c-0.194-5.159-1.522-17.353-9.521-25.49c-5.689-5.79-13.812-8.548-24.094-8.179
			c-10.767,0.377-18.851,3.732-24.019,9.97c-8.689,10.482-6.476,25.738-6.449,25.891c0.215,1.41-0.755,2.729-2.161,2.944
			C210.479,72.737,210.346,72.746,210.216,72.746z"/>
	</g>
	<g>
		<path fill="#F26D6E" d="M136.778,46.243c0,0-16.86,1.675-9.687,50.347c7.175,48.67,18.265,5.315,18.265,5.315l4.811-21.662
			l9.052-6.568C159.219,73.675,160.976,31.917,136.778,46.243z"/>
		<path fill="#27140E" d="M135.648,122.272L135.648,122.272c-5.175,0-8.496-7.569-11.111-25.305
			c-4.357-29.584,0.081-42.65,4.568-48.403c2.68-3.433,5.473-4.466,6.748-4.77c7.664-4.406,14.146-4.092,18.705,0.663
			c8.024,8.37,7.279,28.475,7.241,29.326c-0.033,0.79-0.428,1.52-1.062,1.981l-8.26,5.995l-4.603,20.707
			C146.34,108.477,142.113,122.272,135.648,122.272z M145.824,45.834c-2.18,0-4.776,0.884-7.728,2.632
			c-0.323,0.191-0.688,0.31-1.059,0.347c-0.066,0.016-13.958,2.824-7.393,47.4c2.671,18.103,5.55,20.58,6.032,20.875
			c1.787-0.66,5.235-8.244,7.174-15.823l4.793-21.581c0.138-0.617,0.494-1.161,1.006-1.53l8.018-5.82
			c0.075-5.991-0.824-19.076-5.844-24.305C149.405,46.552,147.771,45.834,145.824,45.834z"/>
	</g>
	<g>
		<path fill="#E0364A" d="M136.778,46.243c14.794-2.016,13.389,34,13.389,34l29.632,13.001l10.154-21.473
			c0,0,2.656-35.608-32.649-32.25c0,0-14.326,0.338-21.841,6.568L136.778,46.243z"/>
		<path fill="#27140E" d="M179.799,95.828c-0.345,0-0.697-0.071-1.037-0.219l-29.635-13.002c-0.966-0.425-1.582-1.404-1.538-2.464
			c0.237-6.297-0.353-23.911-5.922-29.697c-1.326-1.378-2.744-1.882-4.536-1.644c-0.216,0.032-0.431,0.034-0.65,0.006l-1.318-0.153
			c-1.025-0.12-1.884-0.841-2.177-1.832c-0.294-0.994,0.029-2.063,0.828-2.723c8.269-6.853,23.342-7.161,23.49-7.161
			c1.394-0.146,3.006-0.223,4.544-0.223c9.415,0,16.877,2.903,22.198,8.633c9.577,10.315,8.533,25.951,8.48,26.612
			c-0.021,0.315-0.103,0.626-0.24,0.913l-10.153,21.473C181.694,95.28,180.77,95.828,179.799,95.828z M152.79,78.575l25.749,11.296
			l8.857-18.738c0.083-2.468,0.07-14.528-7.155-22.291c-5.053-5.424-12.721-7.702-22.692-6.749
			c-2.812,0.067-9.19,0.718-14.652,2.791c0.885,0.512,1.717,1.173,2.496,1.982C152.492,54.245,152.873,72.499,152.79,78.575z"/>
	</g>
	<g>
		<path fill="#F26D6E" d="M351.076,48.219c0,0,16.857,1.673,9.688,50.346c-7.178,48.67-18.268,5.317-18.268,5.317l-4.809-21.664
			l-9.054-6.568C328.636,75.649,326.88,33.893,351.076,48.219z"/>
		<path fill="#27140E" d="M352.205,124.249c-6.462,0-10.688-13.796-12.209-19.729l-4.614-20.787l-8.265-5.992
			c-0.641-0.464-1.029-1.194-1.063-1.982c-0.036-0.853-0.783-20.956,7.245-29.326c4.554-4.755,11.041-5.069,18.706-0.665
			c1.273,0.304,4.064,1.339,6.742,4.77c4.491,5.753,8.932,18.817,4.57,48.401C360.705,116.679,357.38,124.249,352.205,124.249z
			 M331.185,74.308l8.021,5.82c0.512,0.37,0.866,0.914,1.006,1.531l4.808,21.661c1.926,7.502,5.372,15.085,7.155,15.743
			c0.483-0.296,3.366-2.771,6.033-20.875c4.31-29.24-0.363-40.412-3.533-44.471c-1.99-2.554-3.838-2.928-3.853-2.93
			c-0.379-0.037-0.734-0.156-1.065-0.347c-5.584-3.31-9.727-3.568-12.73-0.433C331.993,55.251,331.106,68.323,331.185,74.308z"/>
	</g>
	<g>
		<path fill="#E0364A" d="M351.076,48.219c-14.787-2.018-13.387,33.999-13.387,33.999l-29.633,13.001l-10.16-21.472
			c0,0-2.653-35.609,32.656-32.25c0-0.003,14.324,0.336,21.846,6.567L351.076,48.219z"/>
		<path fill="#27140E" d="M308.058,97.803c-0.97,0-1.895-0.548-2.337-1.479l-10.156-21.472c-0.133-0.288-0.219-0.598-0.237-0.914
			c-0.052-0.662-1.097-16.297,8.478-26.612c6.197-6.667,15.321-9.513,26.994-8.402c-0.155,0.003,14.939,0.265,23.242,7.149
			c0.799,0.659,1.125,1.731,0.832,2.724c-0.297,0.992-1.148,1.711-2.178,1.831l-1.318,0.154c-0.215,0.022-0.427,0.024-0.649-0.007
			c-1.779-0.236-3.211,0.264-4.54,1.646c-5.572,5.797-6.159,23.401-5.919,29.695c0.05,1.062-0.566,2.04-1.541,2.465l-29.632,13.001
			C308.76,97.734,308.408,97.803,308.058,97.803z M300.456,73.11l8.864,18.736l25.746-11.296
			c-0.077-6.077,0.298-24.329,7.396-31.709c0.777-0.809,1.611-1.471,2.497-1.981c-5.446-2.073-11.784-2.721-14.452-2.779
			c-1.675-0.152-3.125-0.223-4.504-0.223c-7.896,0-14.088,2.343-18.39,6.962C300.386,58.583,300.375,70.642,300.456,73.11z"/>
	</g>
	<g>
		<path fill="#E0364A" d="M245.172,465.527c0,0,3.343,0.325,37.639,0c211.05-2.014,88.721-247.338,88.721-247.338H118.804
			c0,0-122.328,245.326,88.729,247.338C241.828,465.853,245.172,465.527,245.172,465.527"/>
		<path fill="#27140E" d="M257.807,468.257c-9.136,0-11.881-0.098-12.635-0.142c-1.222,0.07-7.494,0.283-37.665-0.007
			c-53.93-0.513-91.169-16.938-110.686-48.818c-23.197-37.882-16.558-90.95-6.906-128.804c10.392-40.758,26.419-73.128,26.577-73.45
			c0.439-0.876,1.335-1.431,2.312-1.431H371.53c0.98,0,1.877,0.554,2.312,1.431c0.159,0.322,16.188,32.691,26.582,73.45
			c9.654,37.854,16.288,90.922-6.906,128.804c-19.517,31.881-56.753,48.307-110.683,48.818
			C271.389,468.221,263.391,468.257,257.807,468.257z M245.172,462.945c0.084,0,0.17,0.004,0.245,0.014
			c0.066,0,4.31,0.299,37.367-0.014c52.03-0.494,87.804-16.086,106.328-46.348c40.286-65.803-12.454-181.622-19.2-195.825H120.431
			c-6.746,14.207-59.479,130.057-19.2,195.831c18.529,30.256,54.301,45.848,106.329,46.342c33.043,0.318,37.281,0.02,37.389,0.011
			C245.019,462.949,245.098,462.945,245.172,462.945z"/>
	</g>
	<g>
		<path fill="#5BC4BF" d="M241.136,237.952c0,0-22.179,1.345-103.507-12.771c-68.121-11.825-34.397-85.879-21.638-109.634
			c2.472-4.609,8.979-17.981,13.524-22.157c29.428-27.005,111.62-23.476,111.62-23.476s86.229-3.529,115.654,23.476
			c4.551,4.176,11.052,17.548,13.53,22.157c12.757,23.755,46.476,97.809-21.639,109.634
			C267.35,239.297,241.136,237.952,241.136,237.952z"/>
		<path fill="#27140E" d="M243.273,240.567c-1.159,0-1.851-0.022-2.129-0.034c-0.256,0.011-0.861,0.034-1.869,0.034
			c-6.591,0-33.437-0.926-102.089-12.842c-19.171-3.327-32.185-11.785-38.683-25.136c-13.815-28.388,6.033-71.183,15.21-88.265
			c0.379-0.708,0.854-1.624,1.404-2.684c3.174-6.104,8.475-16.319,12.649-20.153c23.907-21.94,80.683-24.309,103.983-24.309
			c5.849,0,9.349,0.147,9.493,0.154c-0.059-0.007,3.616-0.154,9.722-0.154c24.384,0,83.663,2.369,107.568,24.306
			c4.174,3.827,9.469,14.021,12.629,20.113c0.562,1.077,1.043,2.01,1.435,2.725c9.178,17.085,29.02,59.884,15.202,88.27
			c-6.498,13.348-19.509,21.806-38.678,25.133C280.469,239.642,250.752,240.567,243.273,240.567z M241.136,235.366
			c0.045,0,0.09,0,0.13,0.004c0.046,0.003,0.68,0.029,2.008,0.029c7.371,0,36.72-0.917,104.968-12.765
			c17.438-3.026,29.183-10.531,34.914-22.302c12.776-26.242-6.312-67.18-15.109-83.563c-0.394-0.733-0.895-1.688-1.464-2.79
			c-2.808-5.409-8.038-15.477-11.539-18.687c-22.569-20.71-80.3-22.947-104.077-22.947c-5.991,0-9.688,0.147-9.725,0.149
			c-0.25-0.002-3.768-0.149-9.49-0.149c-22.695,0-77.921,2.236-100.49,22.947c-3.5,3.219-8.742,13.307-11.554,18.729
			c-0.564,1.084-1.052,2.022-1.441,2.747c-8.802,16.383-27.89,57.319-15.114,83.563c5.729,11.773,17.48,19.278,34.92,22.304
			c80.121,13.909,102.563,12.754,102.913,12.739C241.033,235.366,241.084,235.366,241.136,235.366z"/>
	</g>
	<g>
		<path fill="#F26D6E" d="M311.553,216.829c0,0-0.692,43.803,14.958,57.969c9.271,8.394,15.075,8.011,18.266,6.304
			c2.197-1.172,5.522-3.449,8.149-4.568c5.312-2.266,11.714-7.174,1.857-16.221c-10.104-7.166-12.098-34.061-14.875-43.998
			c-4.968-12.13-6.692-15.747-6.692-15.747L311.553,216.829z"/>
		<path fill="#27140E" d="M340.69,284.673L340.69,284.673c-4.726,0-10.078-2.679-15.908-7.965
			c-16.343-14.778-15.836-58.085-15.812-59.92c0.016-0.797,0.396-1.546,1.034-2.025l21.658-16.261
			c0.621-0.466,1.412-0.631,2.171-0.441c0.751,0.184,1.382,0.696,1.712,1.395c0.07,0.151,1.812,3.821,6.751,15.88
			c0.04,0.09,0.069,0.186,0.096,0.282c0.726,2.587,1.371,6.128,2.118,10.23c2.003,10.986,5.03,27.582,11.768,32.363
			c0.086,0.059,0.17,0.126,0.252,0.2c4.527,4.157,6.505,8.159,5.865,11.896c-0.605,3.525-3.524,6.506-8.455,8.601
			c-1.509,0.643-3.398,1.786-5.071,2.798c-1.051,0.636-2.042,1.23-2.878,1.672C344.384,284.234,342.605,284.673,340.69,284.673z
			 M314.136,218.12c0.041,7.149,0.926,42.836,14.11,54.761c6.044,5.477,10.104,6.629,12.444,6.629c1.053,0,2.019-0.23,2.868-0.688
			c0.767-0.409,1.668-0.959,2.639-1.543c1.816-1.094,3.879-2.34,5.722-3.123c1.839-0.787,4.994-2.444,5.387-4.723
			c0.312-1.847-1.126-4.302-4.155-7.11c-8.347-6.089-11.446-23.104-13.718-35.548c-0.713-3.897-1.327-7.27-1.973-9.624
			c-2.563-6.255-4.259-10.225-5.283-12.575L314.136,218.12z"/>
	</g>
	<g>
		<path fill="#C8DC65" d="M299.148,198.634c-0.256,10.432,8.003,19.1,18.438,19.354l13.39,0.323
			c10.44,0.252,19.104-8.001,19.355-18.442l0,0c0.26-10.436-8.005-19.102-18.441-19.356l-13.386-0.323
			C308.068,179.938,299.402,188.193,299.148,198.634L299.148,198.634z"/>
		<path fill="#27140E" d="M331.444,220.898h-0.004l-0.53-0.005l-13.383-0.326c-5.74-0.137-11.078-2.501-15.039-6.657
			c-3.959-4.157-6.062-9.606-5.922-15.34c0.277-11.562,9.911-20.969,21.47-20.969l0.535,0.008l13.379,0.321
			c5.739,0.142,11.081,2.506,15.043,6.66c3.96,4.155,6.065,9.604,5.924,15.341C352.632,211.494,343.002,220.898,331.444,220.898z
			 M318.036,182.769c-8.779,0-16.094,7.145-16.306,15.927c-0.104,4.357,1.488,8.495,4.495,11.65
			c3.014,3.156,7.07,4.955,11.429,5.061l13.79,0.327c8.778,0.002,16.096-7.142,16.306-15.925c0.108-4.36-1.489-8.497-4.499-11.652
			c-3.008-3.158-7.062-4.953-11.427-5.06L318.036,182.769z"/>
	</g>
	<g>
		<path fill="#27140E" d="M328.264,238.579c-0.355,0-0.717-0.025-1.081-0.082c-3.808-0.59-6.427-4.175-5.836-7.985
			c0.583-3.782,4.071-6.441,7.984-5.838c3.812,0.592,6.428,4.175,5.837,7.988C334.64,236.09,331.734,238.579,328.264,238.579z
			 M328.254,229.756c-0.89,0-1.665,0.667-1.803,1.547c-0.155,0.998,0.531,1.934,1.523,2.09c1.014,0.16,1.939-0.531,2.088-1.523
			c0.154-0.998-0.527-1.938-1.524-2.09C328.442,229.764,328.35,229.756,328.254,229.756z"/>
	</g>
	<g>
		<path fill="#27140E" d="M344.214,261.042c-1.163,0-2.227-0.799-2.508-1.987c-0.33-1.39,0.528-2.779,1.912-3.109l11.434-2.719
			l-3.449-15.069l-6.628,0.134c-0.019,0-0.032,0-0.048,0c-1.408,0-2.561-1.125-2.585-2.534c-0.03-1.427,1.106-2.604,2.533-2.634
			l8.728-0.175c1.263,0.041,2.296,0.812,2.566,2.006l4.484,19.616c0.318,1.382-0.539,2.756-1.917,3.087l-13.92,3.313
			C344.611,261.016,344.415,261.042,344.214,261.042z"/>
	</g>
	<g>
		<path fill="#27140E" d="M309.311,269.343c-0.477,0-0.947-0.129-1.364-0.389c-0.581-0.36-0.999-0.944-1.155-1.619l-4.955-21.667
			c-0.308-1.337,0.486-2.679,1.805-3.058l9.1-2.611c1.38-0.391,2.802,0.404,3.195,1.772c0.395,1.371-0.397,2.805-1.771,3.199
			l-6.743,1.932l3.826,16.749l20.828-4.957c1.393-0.321,2.778,0.527,3.107,1.914c0.33,1.387-0.526,2.779-1.916,3.113l-23.354,5.555
			C309.715,269.322,309.511,269.343,309.311,269.343z"/>
	</g>
	<g>
		<path fill="#B4B4B4" d="M343.779,262.952c0.986,1.909,0.249,4.269-1.665,5.269l0,0c-1.917,0.998-4.276,0.252-5.271-1.664
			l-7.15-13.748c-0.995-1.916-0.249-4.271,1.663-5.264l0,0c1.922-1.004,4.273-0.253,5.271,1.66L343.779,262.952z"/>
		<path fill="#27140E" d="M340.316,271.246c-2.438,0-4.645-1.342-5.771-3.502l-7.147-13.738c-1.648-3.186-0.408-7.108,2.765-8.753
			c0.925-0.479,1.957-0.736,2.998-0.736c2.427,0,4.629,1.341,5.754,3.5l7.155,13.741c1.646,3.167,0.408,7.094-2.761,8.754
			C342.383,270.994,341.349,271.246,340.316,271.246z M333.161,249.684c-0.212,0-0.42,0.052-0.608,0.148
			c-0.654,0.338-0.903,1.137-0.564,1.787l7.146,13.738c0.43,0.828,1.245,0.854,1.784,0.572c0.646-0.339,0.905-1.142,0.564-1.787
			l-7.148-13.747C334.06,249.87,333.551,249.684,333.161,249.684z"/>
	</g>
	<g>
		<path fill="#F26D6E" d="M181.189,215.69c0,0,0.746,43.791-14.898,57.979c-9.254,8.396-15.059,8.024-18.252,6.323
			c-2.204-1.172-5.528-3.44-8.155-4.559c-5.32-2.265-11.725-7.162-1.872-16.207c10.098-7.195,12.06-34.085,14.827-44.025
			c4.952-12.137,6.676-15.752,6.676-15.752L181.189,215.69z"/>
		<path fill="#27140E" d="M152.11,283.561c-1.905,0-3.682-0.434-5.282-1.287c-0.84-0.449-1.848-1.049-2.917-1.689
			c-1.66-1.004-3.543-2.134-5.042-2.775c-4.93-2.093-7.856-5.063-8.463-8.59c-0.644-3.732,1.33-7.738,5.859-11.893
			c0.075-0.074,0.158-0.141,0.244-0.2c6.736-4.796,9.741-21.403,11.737-32.391c0.739-4.1,1.386-7.639,2.103-10.226
			c0.026-0.096,0.059-0.192,0.096-0.284c4.927-12.064,6.665-15.733,6.736-15.886c0.33-0.698,0.962-1.211,1.713-1.395
			c0.747-0.189,1.545-0.026,2.168,0.441l21.676,16.238c0.638,0.478,1.021,1.226,1.036,2.023c0.03,1.835,0.577,45.131-15.748,59.933
			C162.192,280.873,156.844,283.561,152.11,283.561z M139.646,261.23c-3.031,2.812-4.467,5.269-4.146,7.11
			c0.387,2.272,3.544,3.927,5.391,4.716c1.832,0.775,3.879,2.014,5.685,3.098c0.979,0.592,1.899,1.145,2.675,1.554
			c0.855,0.453,1.813,0.688,2.86,0.688c2.341,0,6.401-1.156,12.446-6.64c13.186-11.964,14.023-47.627,14.054-54.771l-18.056-13.529
			c-1.024,2.35-2.713,6.321-5.268,12.58c-0.639,2.352-1.253,5.726-1.958,9.62C151.074,238.104,147.99,255.127,139.646,261.23z"/>
	</g>
	<g>
		<path fill="#C8DC65" d="M193.582,197.477c0.264,10.436-7.983,19.11-18.422,19.374l-13.387,0.338
			c-10.433,0.264-19.111-7.981-19.379-18.421l0,0c-0.264-10.436,7.985-19.11,18.424-19.375l13.386-0.338
			C184.637,178.792,193.315,187.037,193.582,197.477L193.582,197.477z"/>
		<path fill="#27140E" d="M161.287,219.779c-11.744,0-21.173-9.201-21.47-20.946c-0.305-11.842,9.09-21.723,20.935-22.022
			l13.938-0.345c11.547,0,21.181,9.397,21.47,20.946c0.306,11.844-9.09,21.723-20.935,22.021L161.287,219.779z M174.69,181.632
			l-0.419,0.003l-13.391,0.34c-8.993,0.229-16.131,7.731-15.903,16.728c0.223,8.773,7.542,15.911,16.31,15.911l0.421-0.004
			l13.388-0.338c8.994-0.229,16.131-7.735,15.904-16.729C190.778,188.768,183.462,181.632,174.69,181.632z"/>
	</g>
	<g>
		<path fill="#27140E" d="M164.5,237.458L164.5,237.458c-3.466-0.004-6.367-2.489-6.902-5.915c-0.289-1.843,0.156-3.691,1.257-5.202
			c1.099-1.508,2.719-2.5,4.565-2.79c3.919-0.624,7.399,2.047,7.994,5.828c0.286,1.848-0.159,3.695-1.26,5.203
			c-1.099,1.512-2.723,2.504-4.57,2.79C165.222,237.428,164.857,237.458,164.5,237.458z M164.509,228.632
			c-0.095,0-0.191,0.009-0.287,0.023c-0.481,0.076-0.907,0.336-1.192,0.73c-0.29,0.395-0.404,0.876-0.33,1.357
			c0.155,0.979,1.088,1.687,2.088,1.525c0.999-0.154,1.683-1.093,1.522-2.092C166.173,229.297,165.399,228.632,164.509,228.632z"/>
	</g>
	<g>
		<path fill="#27140E" d="M148.581,259.934c-0.196,0-0.394-0.021-0.598-0.07l-13.929-3.299c-1.379-0.322-2.235-1.697-1.92-3.08
			l4.465-19.619c0.267-1.177,1.315-2.012,2.515-2.012c0.016,0,0.034,0,0.053,0l8.728,0.162c1.423,0.028,2.559,1.204,2.533,2.63
			c-0.026,1.427-1.166,2.549-2.63,2.538l-6.629-0.126l-3.433,15.076l11.439,2.708c1.387,0.327,2.243,1.72,1.917,3.106
			C150.81,259.131,149.751,259.934,148.581,259.934z"/>
	</g>
	<g>
		<path fill="#27140E" d="M183.485,268.201c-0.197,0-0.397-0.021-0.596-0.071l-23.378-5.535c-1.39-0.327-2.251-1.72-1.921-3.106
			c0.33-1.393,1.724-2.25,3.113-1.915l20.842,4.934l3.818-16.752l-6.754-1.924c-1.37-0.394-2.165-1.824-1.775-3.195
			c0.394-1.372,1.821-2.167,3.195-1.773l9.102,2.601c1.322,0.372,2.118,1.717,1.812,3.058l-4.938,21.671
			c-0.159,0.672-0.571,1.255-1.154,1.619C184.437,268.066,183.965,268.201,183.485,268.201z"/>
	</g>
	<g>
		<path fill="#B4B4B4" d="M149.02,261.843c-0.995,1.909-0.245,4.267,1.667,5.267l0,0c1.915,0.994,4.273,0.248,5.27-1.67
			l7.136-13.752c0.996-1.915,0.247-4.273-1.668-5.266l0,0c-1.917-1-4.271-0.249-5.271,1.668L149.02,261.843z"/>
		<path fill="#27140E" d="M152.485,270.132L152.485,270.132c-1.036,0-2.064-0.253-2.986-0.728c-3.174-1.666-4.414-5.586-2.771-8.754
			l7.133-13.75c1.125-2.162,3.332-3.503,5.767-3.503c1.032,0,2.064,0.252,2.986,0.732c1.538,0.795,2.675,2.144,3.198,3.801
			c0.523,1.649,0.376,3.411-0.428,4.948l-7.141,13.75C157.126,268.788,154.92,270.132,152.485,270.132z M159.627,248.562
			c-0.391,0-0.907,0.189-1.183,0.721l-7.133,13.75c-0.334,0.646-0.079,1.449,0.572,1.791c0.186,0.093,0.386,0.141,0.602,0.141l0,0
			c0.388,0,0.903-0.186,1.175-0.71l7.141-13.757c0.219-0.424,0.147-0.813,0.086-1.011c-0.064-0.193-0.232-0.553-0.655-0.772
			C160.043,248.614,159.837,248.562,159.627,248.562z"/>
	</g>
</g>
</svg>
