<svg id="balcony" xmlns="http://www.w3.org/2000/svg" viewBox="0 0 300 300"><defs><style>.cls-1{fill:#fdefbd;}.cls-2{fill:#fdc981;}.cls-3{fill:#764d2a;}.cls-4{fill:#3c2517;}.cls-5{fill:#552e12;}.cls-6{fill:#8c3e2c;}</style></defs><title>balcony</title><path class="cls-1" d="M268.71,150A118.72,118.72,0,1,1,150,31.29,118.71,118.71,0,0,1,268.71,150"/><path class="cls-2" d="M239.35,77.1A2.32,2.32,0,0,0,237,74.78H63.61a2.32,2.32,0,0,0-2.32,2.32V219.79a2.32,2.32,0,0,0,2.32,2.33H237a2.32,2.32,0,0,0,2.32-2.33"/><rect class="cls-3" x="129.41" y="76.8" width="54.38" height="142.21"/><path class="cls-4" d="M183.79,220.76H129.41a1.74,1.74,0,0,1-1.74-1.74V76.8a1.74,1.74,0,0,1,1.74-1.74h54.38a1.74,1.74,0,0,1,1.75,1.74V219a1.74,1.74,0,0,1-1.75,1.74m-52.64-3.49h50.9V78.55h-50.9Z"/><rect class="cls-4" x="129.46" y="145.42" width="54.33" height="3.49"/><path class="cls-5" d="M237.67,157.85s-.06,0-.1,0-.08,0-.12,0H63.18s-.07,0-.11,0-.07,0-.11,0a1.71,1.71,0,0,0-1.67,1.73v55.75a1.68,1.68,0,1,0,3.35,0V161.65H84.56v54.58a1.68,1.68,0,1,0,3.35,0V161.65h15.55v54.58a1.67,1.67,0,1,0,3.34,0V161.65h14.51v54.58a1.68,1.68,0,1,0,3.35,0V161.65h12.42v54.58a1.68,1.68,0,1,0,3.35,0V161.65h14.5v54.58a1.68,1.68,0,1,0,3.35,0V161.65H170.4v54.58a1.68,1.68,0,1,0,3.35,0V161.65h14.5v54.58a1.68,1.68,0,1,0,3.35,0V161.65H204v54.58a1.68,1.68,0,1,0,3.35,0V161.65h14.5v54.58a1.68,1.68,0,1,0,3.35,0V161.65H236v53.68a1.68,1.68,0,1,0,3.35,0V159.58a1.71,1.71,0,0,0-1.68-1.73"/><path class="cls-6" d="M239.35,222.12a2.32,2.32,0,0,1-2.32,2.32H63.61a2.32,2.32,0,0,1-2.32-2.32v-6.2a2.33,2.33,0,0,1,2.32-2.33H237a2.33,2.33,0,0,1,2.32,2.33"/></svg>