<?xml version="1.0" encoding="utf-8"?>
<!-- Generator: Adobe Illustrator 16.0.0, SVG Export Plug-In . SVG Version: 6.00 Build 0)  -->
<!DOCTYPE svg PUBLIC "-//W3C//DTD SVG 1.1//EN" "http://www.w3.org/Graphics/SVG/1.1/DTD/svg11.dtd">
<svg version="1.1" id="Layer_1" xmlns="http://www.w3.org/2000/svg" xmlns:xlink="http://www.w3.org/1999/xlink" x="0px" y="0px"
	 width="500px" height="500px" viewBox="0 0 500 500" enable-background="new 0 0 500 500" xml:space="preserve">
<g id="Layer_1_copy_31">
	<g>
		<path fill="#FEE600" d="M116.529,139.127c0,0,69.22,78.376,170.319,42.628c64.394-23.64,92.41-52.377,92.41-52.377
			s51.946-54.25,42.354,37.83c-0.957,95.569-152.547,162.331-244.266,125.271c-91.743-37.062-96.887-132.94-96.887-132.94
			L116.529,139.127z"/>
		<path fill="#27140E" d="M235.237,306.684c-21.836,0-41.792-3.59-59.318-10.674c-92.912-37.539-99.21-135.284-99.261-136.267
			c-0.079-1.446,0.67-2.808,1.926-3.521l36.066-20.41c1.565-0.881,3.539-0.555,4.732,0.794
			c0.444,0.505,45.688,50.683,114.676,50.683c17.065,0,34.398-3.071,51.52-9.125c62.809-23.059,90.681-51.163,90.953-51.445
			c0.642-0.669,16.463-17.023,30.365-17.023c4.655,0,8.76,1.818,11.859,5.259c7.3,8.1,9.48,25.263,6.663,52.472
			c-0.445,37.116-22.718,72.525-62.737,99.728C326.271,291.911,278.624,306.684,235.237,306.684z M84.471,161.644
			c1.572,14.647,13.79,94.778,94.304,127.303c16.614,6.714,35.61,10.121,56.463,10.121c41.92,0,87.966-14.285,123.166-38.213
			c37.959-25.799,59.056-59.071,59.4-93.687c0.004-0.12,0.007-0.238,0.021-0.356c3.204-30.758-0.801-42.404-4.726-46.758
			c-1.686-1.871-3.658-2.743-6.204-2.743c-8.866,0-20.972,10.612-24.89,14.7c-1.194,1.224-29.382,29.652-93.848,53.318
			c-17.984,6.358-36.168,9.575-54.101,9.575c-64.721,0-108.283-40.697-118.266-50.987L84.471,161.644z"/>
	</g>
	<g>
		<path fill="#FEE600" d="M129.551,153.265c0,0,60.858,100.491,179.808,81.187c75.919-13.267,112.632-39.441,112.632-39.441
			s68.3-49.598,39.276,50.301c-20.179,105.472-201.132,148.99-295.14,89.665c-94.013-59.32-80.542-166.364-80.542-166.364
			L129.551,153.265z"/>
		<path fill="#27140E" d="M270.193,365.527c-41.08,0-77.77-9.451-106.098-27.334c-94.962-59.918-82.428-168.963-82.29-170.058
			c0.183-1.435,1.158-2.643,2.523-3.12l43.966-15.346c1.696-0.59,3.582,0.083,4.514,1.62c0.495,0.817,50.792,81.817,146.617,81.817
			c9.587,0,19.45-0.812,29.324-2.414c73.967-12.927,110.67-38.531,111.034-38.788c0.698-0.511,18.09-13.016,32.586-13.016
			c6.305,0,11.428,2.39,14.824,6.91c7.423,9.885,6.697,29.644-2.223,60.402C450.015,323.713,353.491,365.527,270.193,365.527z
			 M89.152,171.4c-1.183,15.752-4.23,107.834,79.006,160.359c27.114,17.108,62.397,26.151,102.035,26.151
			c107.598,0,176.824-58.385,187.331-113.317c0.025-0.117,0.056-0.229,0.088-0.346c10.132-34.879,7.491-48.548,3.49-53.874
			c-1.953-2.604-4.812-3.868-8.732-3.868c-12.014,0-27.984,11.469-28.146,11.586c-1.555,1.107-38.315,26.847-114.213,40.109
			c-10.316,1.678-20.595,2.523-30.587,2.523c-90.183,0-141.659-68.554-151.426-82.885L89.152,171.4z"/>
	</g>
	<g>
		<path fill="#FEE600" d="M122.026,153.265c0,0,6.473,117.299,120.531,156.186c73.229,23.976,117.948,18.145,117.948,18.145
			s83.597-11.664,11.018,62.861c-67.399,83.6-247.561,36.936-302.647-59.622c-55.087-96.562,7.129-184.699,7.129-184.699
			L122.026,153.265z"/>
		<path fill="#27140E" d="M265.592,437.651c-79.902,0.008-165.894-45.106-200.023-104.931
			c-55.645-97.535,6.688-187.88,7.324-188.783c0.834-1.181,2.28-1.786,3.691-1.565l46.023,7.128c1.776,0.274,3.12,1.756,3.218,3.551
			c0.066,1.148,7.751,115.224,117.959,152.794c49.329,16.149,85.651,18.566,102.908,18.566c8.604,0,13.272-0.589,13.32-0.598
			c0.167-0.021,5.055-0.69,11.497-0.69c17.245,0,28.341,4.688,32.083,13.556c5.202,12.326-4.354,30.748-29.222,56.303
			C351.07,421.787,312.444,437.651,265.592,437.651z M77.845,150.272c-8.453,13.348-54.436,93.178-5.664,178.677
			c32.881,57.633,116.022,101.086,193.396,101.086c0.008,0,0.008,0,0.015,0c44.577,0,81.146-14.912,102.967-41.975
			c0.073-0.088,0.153-0.176,0.237-0.263c29.204-29.991,29.942-43.045,27.783-48.157c-3.27-7.744-17.11-8.902-25.067-8.902
			c-5.884,0-10.438,0.619-10.483,0.627c-0.233,0.029-5.17,0.662-14.329,0.662c-0.005,0-0.005,0-0.005,0
			c-17.714,0-54.948-2.461-105.318-18.959C136.639,277.361,120.61,175.665,118.509,156.572L77.845,150.272z"/>
	</g>
	<g>
		<path fill="#4B6730" d="M76.004,146.135l51.198,7.13l10.368-33.7c0,0,38.881,29.81,49.9,0
			c11.016-29.81,5.832-47.308-34.348-55.085c-40.18-7.776-68.695-7.776-68.695-7.776S18.975,78.09,72.763,125.398L76.004,146.135z"
			/>
		<path fill="#27140E" d="M127.202,157.073c-0.174,0-0.35-0.011-0.527-0.036l-51.196-7.128c-1.659-0.232-2.978-1.526-3.236-3.185
			l-3.032-19.388c-16.587-14.909-23.619-29.149-20.907-42.344c4.467-21.717,33.699-31.503,34.945-31.907
			c0.379-0.125,0.779-0.189,1.18-0.189c1.18,0,29.342,0.089,69.42,7.845c20.717,4.01,33.052,10.641,38.811,20.867
			c5.388,9.568,4.886,21.681-1.615,39.279c-3.805,10.293-11.206,15.736-21.407,15.736c-11.314,0-23.567-6.824-29.957-10.961
			l-8.836,28.724C130.345,155.999,128.855,157.073,127.202,157.073z M79.331,142.753l45.186,6.293l9.413-30.6
			c0.365-1.19,1.293-2.126,2.479-2.506c1.188-0.379,2.486-0.155,3.478,0.602c0.159,0.124,16.454,12.465,29.749,12.465
			c7.02,0,11.547-3.418,14.264-10.761c5.58-15.103,6.255-25.558,2.119-32.901c-4.515-8.018-15.509-13.621-33.62-17.126
			c-36.125-6.992-62.954-7.64-67.339-7.7c-3.821,1.38-26.036,10.062-29.302,26.026c-2.165,10.586,4.401,22.697,19.521,35.993
			c0.667,0.59,1.11,1.393,1.249,2.273L79.331,142.753z"/>
	</g>
	<g>
		<path fill="#27140E" d="M292.766,359.396c-57.933,0-104.693-15.355-139.246-45.774c-53.264-46.894-57.817-112.011-57.985-114.76
			c-0.127-2.099,1.467-3.903,3.564-4.032c2.061-0.147,3.906,1.465,4.036,3.564c0.04,0.643,4.605,64.836,55.499,109.584
			c37.479,32.953,90.252,47.428,156.901,43.029c2.082-0.115,3.91,1.456,4.052,3.555c0.139,2.097-1.448,3.908-3.549,4.047
			C308.091,359.133,300.333,359.396,292.766,359.396z"/>
	</g>
</g>
</svg>
