<?xml version="1.0" encoding="utf-8"?>
<!-- Generator: Adobe Illustrator 16.0.0, SVG Export Plug-In . SVG Version: 6.00 Build 0)  -->
<!DOCTYPE svg PUBLIC "-//W3C//DTD SVG 1.1//EN" "http://www.w3.org/Graphics/SVG/1.1/DTD/svg11.dtd">
<svg version="1.1" id="Layer_1" xmlns="http://www.w3.org/2000/svg" xmlns:xlink="http://www.w3.org/1999/xlink" x="0px" y="0px"
	 width="500px" height="500px" viewBox="0 0 500 500" enable-background="new 0 0 500 500" xml:space="preserve">
<g id="Layer_1_copy_11">
	<g>
		<path fill="#D4A973" d="M184.317,357.822l-75.446,30.357c-92.138-40.539-49.369-122.675-49.369-122.675
			c-0.687-1.713,73.824-29.712,75.442-30.361l216.83-87.261c1.621-0.649,54.039-23.731,54.727-22.019
			c0,0,81.242,28.424,49.373,122.679c0,0-53.108,21.369-54.73,22.021L184.317,357.822z"/>
		<path fill="#27140E" d="M108.871,391.409c-0.443,0-0.886-0.087-1.299-0.274c-29.352-12.91-48.415-31.341-56.653-54.777
			c-12.223-34.762,3.59-68.107,5.55-72.012c0.026-0.068,0.049-0.14,0.078-0.207c0.826-1.877,1.423-3.24,73.738-30.676
			c2.013-0.762,3.248-1.231,3.454-1.314l216.831-87.257c0.235-0.098,1.422-0.616,3.283-1.423
			c42.363-18.388,50.21-20.926,52.381-20.926c0.701,0,1.291,0.173,1.774,0.439c6.566,2.538,82.2,34.101,50.92,126.595
			c-0.301,0.894-0.979,1.606-1.854,1.963L110.075,391.18C109.69,391.333,109.28,391.409,108.871,391.409z M62.107,267.518
			c-2.11,4.39-16.091,35.52-5.079,66.758c7.523,21.328,24.985,38.283,51.906,50.401l344.348-138.575
			c12.254-37.303,8.021-68.294-12.589-92.134c-14.281-16.522-31.836-23.75-34.82-24.898c-2.275,0.556-12.179,4.141-49.452,20.321
			c-1.971,0.856-3.213,1.397-3.446,1.487L136.15,238.136c-0.199,0.083-1.479,0.57-3.575,1.362
			C76.832,260.646,64.615,266.114,62.107,267.518z M62.506,264.318c0.116,0.302,0.188,0.608,0.214,0.921
			C62.693,264.941,62.626,264.633,62.506,264.318z"/>
	</g>
	<g>
		<path fill="#A57B44" d="M334.293,266.292c1.071,2.642-0.59,5.812-3.708,7.081l-108.301,44.049
			c-3.119,1.273-6.521,0.155-7.595-2.484l-26.979-66.332c-1.073-2.643,0.586-5.812,3.705-7.081l108.297-44.045
			c3.124-1.273,6.524-0.162,7.598,2.478L334.293,266.292z"/>
	</g>
	<g>
		<circle fill="#FFFCFD" cx="349.275" cy="195.697" r="9.865"/>
	</g>
	<g>
		<circle fill="#FFFCFD" cx="402.613" cy="195.697" r="9.862"/>
	</g>
	<g>
		<path fill="#FFFCFD" d="M378.864,240.659c0,5.447-4.415,9.862-9.866,9.862c-5.443,0-9.858-4.416-9.858-9.862
			c0-5.447,4.415-9.866,9.858-9.866C374.449,230.793,378.864,235.211,378.864,240.659z"/>
	</g>
	<g>
		<path fill="#FFFCFD" d="M160.064,315.191c-5.132,1.83-7.809,7.474-5.98,12.604c1.821,5.134,7.459,7.813,12.592,5.985
			c5.14-1.829,7.816-7.465,5.987-12.596C170.839,316.052,165.2,313.364,160.064,315.191z"/>
	</g>
	<g>
		<path fill="#FFFCFD" d="M142.184,264.941c-5.133,1.824-7.811,7.463-5.98,12.597c1.824,5.132,7.459,7.812,12.591,5.983
			c5.137-1.824,7.816-7.463,5.991-12.597C152.957,265.794,147.319,263.113,142.184,264.941z"/>
	</g>
	<g>
		<path fill="#FFFCFD" d="M108.942,305.227c-5.132,1.828-7.812,7.465-5.988,12.599c1.828,5.132,7.468,7.809,12.599,5.983
			c5.136-1.828,7.817-7.468,5.989-12.6C119.717,306.078,114.078,303.4,108.942,305.227z"/>
	</g>
</g>
</svg>
