<?xml version="1.0" encoding="utf-8"?>
<!-- Generator: Adobe Illustrator 16.0.0, SVG Export Plug-In . SVG Version: 6.00 Build 0)  -->
<!DOCTYPE svg PUBLIC "-//W3C//DTD SVG 1.1//EN" "http://www.w3.org/Graphics/SVG/1.1/DTD/svg11.dtd">
<svg version="1.1" id="Layer_1" xmlns="http://www.w3.org/2000/svg" xmlns:xlink="http://www.w3.org/1999/xlink" x="0px" y="0px"
	 width="500px" height="500px" viewBox="0 0 500 500" enable-background="new 0 0 500 500" xml:space="preserve">
<g id="Layer_1_copy_75">
	<g>
		<path fill="#A6DEEE" d="M484.312,246.091c0,126.165-102.281,228.446-228.442,228.446c-126.172,0-228.45-102.281-228.45-228.446
			c0-126.168,102.278-228.446,228.45-228.446C382.03,17.646,484.312,119.923,484.312,246.091z"/>
	</g>
	<g>
		<path fill="#D6EEF4" d="M484.554,247.984c0,126.165-102.277,228.446-228.446,228.446c-126.168,0-228.452-102.281-228.452-228.446"
			/>
	</g>
	<g opacity="0.18">
		<g>
			<path fill="#2C6DB6" d="M453.985,363.043c-0.017,0-0.031,0-0.046-0.003L47.068,339.867c-0.459-0.024-0.812-0.422-0.785-0.889
				c0.023-0.459,0.432-0.873,0.887-0.791l406.866,23.174c0.464,0.031,0.813,0.426,0.79,0.889
				C454.8,362.698,454.43,363.043,453.985,363.043z"/>
		</g>
	</g>
	<g opacity="0.18">
		<g>
			<path fill="#2C6DB6" d="M417.2,411.277c-0.018,0-0.028,0-0.048,0L79.37,392.039c-0.464-0.031-0.818-0.424-0.79-0.889
				c0.026-0.463,0.408-0.867,0.883-0.789l337.788,19.24c0.459,0.027,0.809,0.422,0.79,0.885
				C418.013,410.934,417.644,411.277,417.2,411.277z"/>
		</g>
	</g>
	<g opacity="0.18">
		<g>
			<path fill="#2C6DB6" d="M340.661,461.106c-0.017,0-0.031,0-0.047-0.006L147.98,450.129c-0.463-0.021-0.818-0.42-0.794-0.887
				c0.031-0.464,0.404-0.861,0.887-0.787l192.639,10.969c0.459,0.03,0.813,0.424,0.791,0.887
				C341.475,460.759,341.104,461.106,340.661,461.106z"/>
		</g>
	</g>
	<g opacity="0.18">
		<g>
			<path fill="#2C6DB6" d="M476.058,310.754c-0.016,0-0.03,0-0.047-0.004L31.69,285.323c-0.461-0.028-0.814-0.425-0.787-0.89
				c0.027-0.463,0.421-0.859,0.884-0.785l444.316,25.429c0.464,0.022,0.813,0.421,0.791,0.884
				C476.871,310.404,476.497,310.754,476.058,310.754z"/>
		</g>
	</g>
	<g opacity="0.18">
		<g>
			<path fill="#2C6DB6" d="M483.759,262.88c-0.012,0-0.02,0-0.032,0L91.291,249.043c-0.464-0.015-0.825-0.405-0.81-0.864
				c0.016-0.467,0.452-0.818,0.868-0.813l392.437,13.837c0.463,0.015,0.825,0.408,0.81,0.867
				C484.58,262.525,484.207,262.88,483.759,262.88z"/>
		</g>
	</g>
	<g opacity="0.18">
		<g>
			<path fill="#2C6DB6" d="M119.714,430.916c-0.156,0-0.319-0.043-0.459-0.137c-0.39-0.257-0.499-0.774-0.242-1.159l119.725-182.099
				c0.25-0.39,0.771-0.495,1.161-0.242c0.389,0.253,0.498,0.774,0.24,1.164L120.415,430.542
				C120.255,430.783,119.987,430.916,119.714,430.916z"/>
		</g>
	</g>
	<g opacity="0.18">
		<g>
			<path fill="#2C6DB6" d="M282.1,476.208c-0.137,0-0.272-0.03-0.396-0.097c-0.408-0.223-0.564-0.729-0.342-1.142l120.326-224.12
				c0.222-0.409,0.729-0.557,1.137-0.339c0.406,0.218,0.561,0.729,0.343,1.138L282.839,475.768
				C282.688,476.053,282.398,476.208,282.1,476.208z"/>
		</g>
	</g>
	<g opacity="0.18">
		<g>
			<path fill="#2C6DB6" d="M393.453,431.083c-0.129,0-0.257-0.03-0.378-0.089c-0.412-0.207-0.58-0.712-0.369-1.125l91.096-182.263
				c0.205-0.416,0.718-0.58,1.129-0.377c0.408,0.21,0.58,0.716,0.369,1.129l-91.095,182.258
				C394.06,430.913,393.761,431.083,393.453,431.083z"/>
		</g>
	</g>
	<g opacity="0.18">
		<g>
			<path fill="#2C6DB6" d="M191.993,468.145c-0.141,0-0.28-0.034-0.414-0.111c-0.404-0.228-0.545-0.745-0.311-1.142l125.787-219.329
				c0.236-0.405,0.748-0.537,1.147-0.311c0.405,0.234,0.542,0.748,0.312,1.145L192.725,467.72
				C192.569,467.994,192.284,468.145,191.993,468.145z"/>
		</g>
	</g>
	<g opacity="0.18">
		<g>
			<path fill="#2C6DB6" d="M69.85,378.712c-0.167,0-0.342-0.051-0.491-0.155c-0.373-0.277-0.459-0.803-0.189-1.177l90.048-124.739
				c0.273-0.377,0.795-0.459,1.172-0.19c0.375,0.272,0.459,0.798,0.188,1.176l-90.045,124.74
				C70.368,378.596,70.11,378.712,69.85,378.712z"/>
		</g>
	</g>
	<g>
		<g>
			<g>
				<path fill="#CDCCCC" d="M339.747,238.838c0,0,5.435,7.596,10.804,17.792c5.377,10.193,32.246,7.591,32.246,7.591l24.961-3.193
					v-6.397c0,0,5.899-13.591,9.882-15.791c3.986-2.2-45.07-14.192-45.07-14.192L339.747,238.838z"/>
			</g>
			<g>
				<path fill="#3C2517" d="M375.469,265.641L375.469,265.641c-9.779,0-22.208-1.476-25.907-8.492
					c-5.278-10.014-10.672-17.583-10.726-17.661c-0.194-0.276-0.262-0.623-0.168-0.95c0.089-0.327,0.323-0.591,0.634-0.728
					l32.823-14.192c0.222-0.097,0.476-0.117,0.708-0.062c45.66,11.167,46.025,13.9,46.146,14.795
					c0.078,0.599-0.218,1.148-0.798,1.464c-2.936,1.624-7.615,11.212-9.302,15.052v6.158c0,0.565-0.417,1.037-0.978,1.11
					l-24.96,3.195C382.778,265.35,379.74,265.641,375.469,265.641z M341.444,239.325c1.709,2.5,5.944,8.904,10.1,16.784
					c3.345,6.344,16.422,7.293,23.925,7.293l0,0c4.155,0,7.195-0.287,7.225-0.293l23.951-3.066v-5.413
					c0-0.151,0.027-0.303,0.091-0.442c0.574-1.328,5.416-12.312,9.469-15.703c-4.205-2.336-24.747-8.06-43.536-12.662
					L341.444,239.325z"/>
			</g>
		</g>
		<g>
			<g>
				<rect x="331.772" y="168.276" fill="#FFFFFF" width="94.073" height="75.689"/>
			</g>
			<g>
				<path fill="#3C2517" d="M425.847,245.083h-94.073c-0.619,0-1.125-0.499-1.125-1.117v-75.689c0-0.615,0.506-1.118,1.125-1.118
					h94.073c0.623,0,1.121,0.503,1.121,1.118v75.689C426.968,244.584,426.47,245.083,425.847,245.083z M332.891,242.845h91.841
					v-73.447h-91.841V242.845z"/>
			</g>
		</g>
		<g>
			<g>
				<path fill="#C9EBF9" d="M429.083,169.608c0,3.52-2.496,6.397-5.544,6.397h-89.457c-3.05,0-5.545-2.877-5.545-6.397v-6.658
					c0-3.52,2.495-6.394,5.545-6.394h89.457c3.048,0,5.544,2.874,5.544,6.394V169.608z"/>
			</g>
			<g>
				<path fill="#3C2517" d="M423.539,177.123h-89.457c-3.676,0-6.666-3.372-6.666-7.515v-6.658c0-4.143,2.99-7.515,6.666-7.515
					h89.457c3.671,0,6.661,3.372,6.661,7.515v6.658C430.2,173.751,427.21,177.123,423.539,177.123z M334.082,157.67
					c-2.442,0-4.428,2.375-4.428,5.28v6.658c0,2.912,1.984,5.28,4.428,5.28h89.457c2.439,0,4.426-2.368,4.426-5.28v-6.658
					c0-2.904-1.984-5.28-4.426-5.28H334.082z"/>
			</g>
		</g>
		<g>
			<g>
				<path fill="#CDCCCC" d="M347.682,346.576c0,0,7.627-3.793,5.197-32.389c-2.422-28.578,20.461-21.373,20.461-21.373l27.387,8.984
					l1.904,14.395c0,0-3.12,21.591,6.248,30.383c9.356,8.803-46.46,9.597-46.46,9.597L347.682,346.576z"/>
			</g>
			<g>
				<path fill="#3C2517" d="M362.419,357.29c-0.219,0-0.43-0.062-0.611-0.179l-14.732-9.598c-0.335-0.219-0.534-0.601-0.507-1.005
					c0.022-0.401,0.253-0.756,0.619-0.936c0.043-0.026,6.877-4.247,4.582-31.291c-0.734-8.617,0.729-14.979,4.346-18.919
					c2.699-2.928,6.615-4.481,11.335-4.481c3.453,0,6.116,0.83,6.229,0.865l27.399,8.993c0.412,0.132,0.704,0.486,0.762,0.915
					l1.904,14.395c0.013,0.097,0.013,0.202-0.003,0.3c-0.028,0.211-2.921,21.123,5.901,29.407c1.612,1.519,1.554,2.851,1.228,3.698
					c-0.783,2.021-4.291,4.91-25.596,6.705c-11.443,0.957-22.728,1.129-22.84,1.129C362.426,357.29,362.422,357.29,362.419,357.29z
					 M349.55,346.455l13.195,8.596c18.311-0.283,44.499-2.439,46.036-6.4c0.146-0.381-0.28-0.896-0.673-1.262
					c-9.354-8.783-6.896-29.049-6.607-31.197l-1.787-13.545l-26.725-8.772c-0.013,0-2.449-0.752-5.54-0.752
					c-4.135,0-7.395,1.267-9.688,3.762c-3.173,3.454-4.438,9.251-3.765,17.214C355.877,336.242,351.847,343.926,349.55,346.455z"/>
			</g>
		</g>
		<g>
			<g>
				<path fill="#A0DCF0" d="M420.876,357.488c0,2.943-2.087,5.342-4.638,5.342h-74.854c-2.558,0-4.645-2.398-4.645-5.342v-5.571
					c0-2.933,2.087-5.341,4.645-5.341h74.854c2.551,0,4.638,2.408,4.638,5.341V357.488z"/>
			</g>
			<g>
				<path fill="#3C2517" d="M416.238,363.951h-74.854c-3.177,0-5.761-2.899-5.761-6.463v-5.571c0-3.562,2.584-6.459,5.761-6.459
					h74.854c3.173,0,5.754,2.896,5.754,6.459v5.571C421.992,361.051,419.411,363.951,416.238,363.951z M341.385,347.697
					c-1.941,0-3.522,1.893-3.522,4.22v5.571c0,2.328,1.581,4.225,3.522,4.225h74.854c1.938,0,3.516-1.896,3.516-4.225v-5.571
					c0-2.327-1.577-4.22-3.516-4.22H341.385z"/>
			</g>
		</g>
		<g>
			<g>
				<path fill="#FFFFFF" d="M334.806,276.893c0,26.783,19.704,48.502,44.004,48.502c24.305,0,44.005-21.719,44.005-48.502
					l-33.92-16.92L334.806,276.893z"/>
			</g>
			<g>
				<path fill="#3C2517" d="M378.81,326.507c-24.879,0-45.12-22.255-45.12-49.614c0-0.49,0.313-0.927,0.781-1.066l54.088-16.916
					c0.276-0.09,0.576-0.066,0.83,0.064l33.929,16.918c0.378,0.183,0.617,0.572,0.617,1
					C423.935,304.252,403.693,326.507,378.81,326.507z M335.931,277.711c0.397,25.751,19.483,46.562,42.879,46.562
					c23.439,0,42.546-20.881,42.884-46.691l-32.899-16.406L335.931,277.711z"/>
			</g>
		</g>
		<g>
			<g>
				<rect x="331.772" y="259.415" fill="#C9EBF9" width="94.073" height="21.282"/>
			</g>
			<g>
				<path fill="#3C2517" d="M425.847,281.814h-94.073c-0.619,0-1.125-0.502-1.125-1.117v-21.282c0-0.614,0.506-1.113,1.125-1.113
					h94.073c0.623,0,1.121,0.499,1.121,1.113v21.282C426.968,281.312,426.47,281.814,425.847,281.814z M332.891,279.58h91.841
					v-19.039h-91.841V279.58z"/>
			</g>
		</g>
		<g>
			<g>
				<rect x="329.978" y="254.629" fill="#A0DCF0" width="97.661" height="10.635"/>
			</g>
			<g>
				<path fill="#3C2517" d="M427.639,266.38h-97.661c-0.614,0-1.112-0.499-1.112-1.116v-10.635c0-0.618,0.498-1.115,1.112-1.115
					h97.661c0.618,0,1.116,0.497,1.116,1.115v10.635C428.755,265.881,428.257,266.38,427.639,266.38z M331.099,264.146h95.419
					v-8.396h-95.419V264.146z"/>
			</g>
		</g>
		<g>
			<g>
				<path fill="#818181" d="M344.586,181.335c-2.001,0-3.727,1.394-4.657,3.426l-0.007-0.015c0,0-7.658-3.894-14.663,2.936
					c-5.595,5.447-0.042,11.692,3.642,7.744c2.515-2.69,7.21-5.844,11.231-3.57l0,0c0.966,1.791,2.602,2.975,4.454,2.975
					c2.967,0,5.374-3.025,5.374-6.751C349.96,184.356,347.553,181.335,344.586,181.335z"/>
			</g>
			<g>
				<path fill="#3C2517" d="M326.338,197.789c-1.775,0-3.407-1.184-4.159-3.021c-1.026-2.539-0.17-5.486,2.303-7.889
					c2.919-2.85,6.442-4.356,10.169-4.356c2.074,0,3.772,0.459,4.777,0.813c1.219-1.946,3.122-3.123,5.158-3.123
					c3.582,0,6.49,3.528,6.49,7.865s-2.908,7.865-6.49,7.865c-2.103,0-4.046-1.207-5.269-3.255
					c-0.674-0.327-1.405-0.494-2.173-0.494c-2.726,0-5.622,2.063-7.43,3.999C328.486,197.508,327.202,197.789,326.338,197.789z
					 M334.649,184.761c-3.177,0-6.077,1.254-8.607,3.722c-1.8,1.744-2.462,3.781-1.787,5.444c0.683,1.666,2.498,2.152,3.826,0.736
					c1.032-1.106,4.729-4.708,9.063-4.708c1.259,0,2.449,0.312,3.535,0.923c0.185,0.105,0.335,0.26,0.438,0.443
					c0.802,1.491,2.103,2.387,3.469,2.387c2.345,0,4.252-2.523,4.252-5.63c0-3.099-1.907-5.623-4.252-5.623
					c-1.487,0-2.846,1.037-3.636,2.773c-0.164,0.362-0.511,0.611-0.911,0.646c-0.257,0.027-0.506-0.035-0.713-0.168
					C338.913,185.521,337.087,184.761,334.649,184.761z"/>
			</g>
		</g>
	</g>
	<g>
		<g>
			<g>
				<rect x="181.651" y="153.302" fill="#939598" width="5.33" height="7.227"/>
			</g>
			<g>
				<path fill="#3C2517" d="M186.981,161.65h-5.33c-0.614,0-1.117-0.506-1.117-1.121v-7.227c0-0.619,0.503-1.118,1.117-1.118h5.33
					c0.619,0,1.118,0.499,1.118,1.118v7.227C188.1,161.144,187.601,161.65,186.981,161.65z M182.773,159.407h3.091v-4.988h-3.091
					V159.407z"/>
			</g>
		</g>
		<g>
			<g>
				<path fill="#F2F2F2" d="M189.867,321.594c-2.726-2.134-10.544-5.812-10.575-10.609c-0.039-4.793-0.736-103.143-0.736-103.143
					h-36.594c0,0,0.926,99.969,0,103.684c-0.927,3.715-1.13,4.146-9.531,9.595c-8.41,5.446-1.028,9.312,2.701,9.765
					c3.785,0.98,25.814,1.191,25.814,1.191s19.592,0.486,27.145-1.118C193.379,329.833,192.592,323.725,189.867,321.594z"/>
			</g>
			<g>
				<path fill="#3C2517" d="M167.65,333.264c-3.913,0-6.728-0.07-6.728-0.07c-0.888-0.004-22.201-0.223-26.071-1.223
					c-2.53-0.297-6.615-2.1-7.304-5.082c-0.529-2.277,0.911-4.531,4.271-6.709c8.148-5.275,8.215-5.552,9.056-8.927
					c0.65-2.866,0.335-63.41-0.034-103.403c0-0.296,0.112-0.584,0.326-0.794c0.21-0.218,0.495-0.335,0.795-0.335h36.594
					c0.615,0,1.113,0.494,1.118,1.114l0.732,103.142c0.022,3.135,4.62,6.086,7.662,8.045c0.988,0.64,1.869,1.207,2.487,1.693
					c1.943,1.516,2.971,4.544,2.396,7.035c-0.519,2.251-2.158,3.777-4.626,4.303C183.614,333.053,174.479,333.264,167.65,333.264z
					 M143.09,208.959c0.134,14.425,0.86,99.202-0.042,102.839c-1.048,4.209-1.702,4.878-10.011,10.259
					c-2.422,1.565-3.598,3.101-3.309,4.326c0.396,1.736,3.496,3.146,5.544,3.393c3.135,0.802,19.596,1.121,25.689,1.183
					c0.022,0,2.811,0.069,6.688,0.069c9.504,0,16.681-0.416,20.207-1.166c1.59-0.34,2.594-1.242,2.912-2.613
					c0.386-1.678-0.312-3.77-1.592-4.773c-0.58-0.451-1.398-0.978-2.324-1.567c-3.649-2.353-8.651-5.568-8.683-9.91l-0.728-102.036
					H143.09V208.959z"/>
			</g>
		</g>
		<g>
			<g>
				<path fill="#D2D3D4" d="M118.834,159.076c0,0-20.397-0.448-20.397,11.163c0,11.603,3.345,39.223,44.322,44.316l36.291-0.226
					c0,0,36.514-5.007,41.607-35.684c2.37-20.841-15.217-19.573-15.217-19.573L118.834,159.076z"/>
			</g>
			<g>
				<path fill="#3C2517" d="M142.759,215.671c-0.042,0-0.089-0.003-0.136-0.011c-39.421-4.898-45.305-30.563-45.305-45.421
					c0-11.692,17.677-12.284,21.224-12.284l0.318,0.003l86.564-0.003c0.012-0.004,0.238-0.016,0.592-0.016
					c1.783,0,7.923,0.358,12.047,4.98c3.243,3.633,4.493,8.962,3.706,15.854c-5.178,31.187-42.19,36.614-42.563,36.665
					l-36.438,0.233C142.763,215.671,142.763,215.671,142.759,215.671z M118.542,160.193c-1.943,0-18.988,0.28-18.988,10.045
					c0,32.854,27.075,41.166,43.271,43.194l36.218-0.226c0.214-0.039,35.617-5.256,40.512-34.746
					c0.701-6.167-0.362-10.917-3.157-14.051c-3.509-3.925-8.835-4.232-10.381-4.232c-0.303,0-0.479,0.008-0.498,0.012l-86.685,0.003
					L118.542,160.193L118.542,160.193z"/>
			</g>
		</g>
		<g>
			<g>
				<path fill="#939598" d="M204.778,173.501c0,4.746-20.304,8.589-45.352,8.589c-25.043,0-45.346-3.843-45.346-8.589
					s20.303-8.593,45.346-8.593C184.475,164.909,204.778,168.755,204.778,173.501z"/>
			</g>
			<g>
				<path fill="#3C2517" d="M159.427,183.212c-18.681,0-46.464-2.585-46.464-9.71s27.783-9.71,46.464-9.71
					c18.681,0,46.473,2.585,46.473,9.71S178.107,183.212,159.427,183.212z M159.427,166.026c-26.996,0-44.229,4.431-44.229,7.476
					s17.233,7.472,44.229,7.472c27.002,0,44.235-4.427,44.235-7.472S186.429,166.026,159.427,166.026z"/>
			</g>
		</g>
		<g>
			<g>
				<rect x="177.922" y="148.918" fill="#939598" width="12.794" height="6.397"/>
			</g>
			<g>
				<path fill="#3C2517" d="M190.716,156.433h-12.794c-0.619,0-1.121-0.499-1.121-1.117v-6.397c0-0.615,0.502-1.117,1.121-1.117
					h12.794c0.615,0,1.117,0.502,1.117,1.117v6.397C191.833,155.934,191.331,156.433,190.716,156.433z M179.043,154.198h10.551
					v-4.159h-10.551V154.198z"/>
			</g>
		</g>
		<g>
			<g>
				<rect x="150.072" y="146.909" fill="#6E6F72" width="13.973" height="9.235"/>
			</g>
			<g>
				<path fill="#3C2517" d="M164.045,157.266h-13.973c-0.62,0-1.118-0.499-1.118-1.122v-9.235c0-0.623,0.498-1.121,1.118-1.121
					h13.973c0.624,0,1.122,0.499,1.122,1.121v9.235C165.167,156.767,164.669,157.266,164.045,157.266z M151.188,155.023h11.742
					v-6.996h-11.742V155.023z"/>
			</g>
		</g>
		<g>
			<g>
				<polygon fill="#595A5C" points="150.072,156.144 149.055,162.008 165.193,162.008 164.045,156.144 				"/>
			</g>
			<g>
				<path fill="#3C2517" d="M165.193,163.125h-16.139c-0.326,0-0.642-0.144-0.852-0.397c-0.214-0.253-0.309-0.588-0.249-0.916
					l1.016-5.86c0.094-0.537,0.561-0.93,1.103-0.93h13.973c0.538,0,0.997,0.382,1.098,0.911l1.148,5.86
					c0.067,0.327-0.019,0.666-0.232,0.922C165.843,162.978,165.529,163.125,165.193,163.125z M150.386,160.887h13.449l-0.708-3.621
					h-12.113L150.386,160.887z"/>
			</g>
		</g>
		<g>
			<g>
				<polygon fill="#29AAE1" points="150.434,181.869 153.626,156.144 160.682,156.144 163.815,182.091 				"/>
			</g>
			<g>
				<path fill="#3C2517" d="M163.815,183.212c0,0-0.012,0-0.02,0l-13.378-0.226c-0.319-0.004-0.619-0.145-0.829-0.382
					c-0.207-0.241-0.304-0.561-0.265-0.872l3.192-25.724c0.066-0.565,0.545-0.985,1.109-0.985h7.056
					c0.561,0,1.039,0.428,1.105,0.989l3.103,25.643c0.06,0.132,0.09,0.28,0.09,0.436c0,0.631-0.459,1.133-1.145,1.121
					C163.835,183.212,163.823,183.212,163.815,183.212z M151.694,180.771l10.856,0.183l-2.866-23.688h-5.069L151.694,180.771z"/>
			</g>
		</g>
	</g>
	<g>
		<rect x="115.235" y="74.782" fill="#C8E9EC" width="88.383" height="59.882"/>
		<path fill="#3C2517" d="M203.618,138.024h-88.383c-1.852,0-3.355-1.502-3.355-3.36V74.782c0-1.854,1.504-3.356,3.355-3.356h88.383
			c1.857,0,3.36,1.502,3.36,3.356v59.882C206.979,136.521,205.476,138.024,203.618,138.024z M118.596,131.304h81.667V78.142h-81.667
			V131.304z"/>
	</g>
	<g>
		<g>
			<rect x="254.175" y="135.968" fill="#939598" width="16.419" height="12.95"/>
		</g>
		<g>
			<path fill="#3C2517" d="M270.594,150.039h-16.419c-0.618,0-1.116-0.502-1.116-1.121v-12.95c0-0.615,0.498-1.117,1.116-1.117
				h16.419c0.616,0,1.117,0.502,1.117,1.117v12.95C271.711,149.537,271.21,150.039,270.594,150.039z M255.293,147.801h14.176V137.09
				h-14.176V147.801z"/>
		</g>
	</g>
	<g>
		<path fill="#3C2517" d="M263.671,172.56c-9.052,0-16.414-7.367-16.414-16.416c0-9.048,7.362-16.415,16.414-16.415
			c0.925,0,1.679,0.755,1.679,1.682c0,0.926-0.755,1.678-1.679,1.678c-7.202,0-13.06,5.86-13.06,13.055
			c0,7.199,5.856,13.059,13.06,13.059c7.199,0,13.056-5.86,13.056-13.059c0-0.927,0.752-1.678,1.678-1.678
			c0.928,0,1.68,0.751,1.68,1.678C280.083,165.193,272.716,172.56,263.671,172.56z"/>
	</g>
	<g>
		<g>
			<path fill="#D8E028" d="M261.593,160.537c0,0-7.585,0-9.975,9.939c-2.328,9.675-5.593,21.5-0.834,24.938
				c4.788,3.458,8.134,1.472,11.321,1.121c3.188-0.351,4.623,2.06,9.002,0.265c4.381-1.794,8.172,0.88,7.869-5.287
				C278.678,185.345,277.506,159.742,261.593,160.537z"/>
		</g>
		<g>
			<path fill="#3C2517" d="M268.044,198.591L268.044,198.591c-1.185,0-2.16-0.288-3.024-0.542c-0.957-0.284-1.752-0.518-2.791-0.401
				c-0.65,0.07-1.312,0.218-1.994,0.366c-1.117,0.25-2.387,0.526-3.766,0.526c-2.195,0-4.275-0.728-6.338-2.224
				c-5.062-3.651-2.52-14.102-0.063-24.209l0.459-1.892c2.57-10.676,10.984-10.8,11.065-10.8c0.207-0.012,0.464-0.02,0.718-0.02
				c7.399,0,16.5,5.549,17.785,31.982c0.26,5.322-2.496,5.548-4.935,5.746c-1.104,0.09-2.367,0.195-3.629,0.713
				C270.294,198.342,269.148,198.591,268.044,198.591z M262.749,195.379c1.116,0,2.026,0.269,2.899,0.525
				c1.526,0.444,3.029,0.678,5.035-0.14c1.58-0.654,3.088-0.774,4.299-0.872c2.387-0.195,3.028-0.246,2.877-3.326
				c-1.198-24.754-9.118-29.933-15.551-29.933c-0.219,0-0.437,0.008-0.658,0.016c-0.322,0.008-6.803,0.179-8.942,9.087l-0.464,1.9
				c-2.067,8.503-4.646,19.094-0.807,21.866c1.697,1.23,3.293,1.799,5.03,1.799c1.138,0,2.228-0.241,3.286-0.471
				c0.76-0.167,1.498-0.327,2.227-0.409C262.246,195.395,262.504,195.379,262.749,195.379z"/>
		</g>
	</g>
	<g>
		<path fill="#3C2517" d="M179.129,128.333c-0.194,0-0.386-0.066-0.545-0.199c-0.351-0.299-0.397-0.833-0.098-1.184l15.5-18.284
			c0.3-0.351,0.829-0.389,1.184-0.093c0.354,0.295,0.397,0.826,0.098,1.184l-15.501,18.276
			C179.599,128.231,179.362,128.333,179.129,128.333z"/>
	</g>
	<g>
		<path fill="#3C2517" d="M177.536,121.671c-0.19,0-0.386-0.062-0.541-0.195c-0.354-0.303-0.397-0.833-0.102-1.184l15.5-18.284
			c0.304-0.354,0.829-0.393,1.184-0.093c0.355,0.296,0.397,0.825,0.098,1.184l-15.497,18.28
			C178.011,121.574,177.773,121.671,177.536,121.671z"/>
	</g>
	<g opacity="0.18">
		<g>
			<path fill="#2C6DB6" d="M38.079,317.232c-0.176,0-0.358-0.058-0.514-0.178c-0.362-0.283-0.433-0.814-0.144-1.177l53.238-68.413
				c0.281-0.362,0.807-0.432,1.176-0.148c0.366,0.285,0.437,0.814,0.149,1.18L38.743,316.91
				C38.581,317.121,38.332,317.232,38.079,317.232z"/>
		</g>
	</g>
	<g>
		<g>
			<path fill="#D2D3D4" d="M133.583,212.903c0,0,21.819,6.545,54.042-0.599"/>
		</g>
		<g>
			<path fill="#3C2517" d="M157.986,216.735c-15.254,0-24.583-2.717-24.73-2.76c-0.589-0.175-0.927-0.798-0.748-1.39
				c0.179-0.592,0.795-0.927,1.395-0.752c0.214,0.062,21.955,6.366,53.48-0.619c0.604-0.133,1.199,0.249,1.332,0.849
				c0.135,0.607-0.242,1.203-0.85,1.339C176.488,215.921,166.351,216.735,157.986,216.735z"/>
		</g>
	</g>
</g>
</svg>
