<?xml version="1.0" encoding="utf-8"?>
<!-- Generator: Adobe Illustrator 16.0.0, SVG Export Plug-In . SVG Version: 6.00 Build 0)  -->
<!DOCTYPE svg PUBLIC "-//W3C//DTD SVG 1.1//EN" "http://www.w3.org/Graphics/SVG/1.1/DTD/svg11.dtd">
<svg version="1.1" id="Layer_1" xmlns="http://www.w3.org/2000/svg" xmlns:xlink="http://www.w3.org/1999/xlink" x="0px" y="0px"
	 width="500px" height="500px" viewBox="0 0 500 500" enable-background="new 0 0 500 500" xml:space="preserve">
<g id="Layer_1_copy_37">
	<g>
		<g>
			<path fill="#4E4E4E" d="M443.989,280.177c0,48.369-89.087,87.589-198.979,87.589c-109.895,0-198.979-39.22-198.979-87.589
				c0-48.376,89.084-87.591,198.979-87.591C354.902,192.586,443.989,231.801,443.989,280.177z"/>
			<path fill="#3C2517" d="M245.011,370.311c-111.12,0-201.52-40.435-201.52-90.134c0-49.698,90.399-90.134,201.52-90.134
				c111.117,0,201.522,40.436,201.522,90.134C446.533,329.876,356.128,370.311,245.011,370.311z M245.011,195.128
				c-108.314,0-196.438,38.153-196.438,85.049c0,46.894,88.123,85.046,196.438,85.046c108.315,0,196.438-38.152,196.438-85.046
				C441.448,233.282,353.325,195.128,245.011,195.128z"/>
		</g>
		<g>
			<path fill="#818181" d="M228.698,157.053c76.632-3.649,144.825,12.444,189.716,44.476c25.326,18.078,54.933,54.536,36.309,98.04
				c-3.53,8.242-8.252,17.328-14.522,24.504c-59.404,67.91-226.606,82.777-325.871,39.938
				c-34.081-14.709-62.694-34.326-75.342-62.631c-22.418-50.178,17.187-88.792,48.111-107.109
				c23.587-13.967,52.815-25.356,86.231-31.768C190.164,159.263,209.401,157.971,228.698,157.053z M174.233,198.808
				c-33.363,6.678-61.465,17.215-84.413,35.398c-8.864,7.037-22.729,23.058-22.692,38.127c0.04,17.763,13.844,30.147,25.416,39.022
				c60.014,46.054,183.882,54.752,265.959,23.611c25.124-9.541,68.077-31.127,68.077-62.635c0-18.143-14.489-31.949-28.139-41.758
				c-41.651-29.926-103.051-41.257-168.833-38.123C209.372,193.417,191.522,195.347,174.233,198.808z"/>
			<path fill="#3C2517" d="M246.117,390.65c-49.32,0-96.481-8.633-132.799-24.31c-40.088-17.299-65.162-38.211-76.654-63.926
				c-10.355-23.188-8.948-46.019,4.197-67.852c12.909-21.447,33.7-35.823,44.94-42.481c25.121-14.877,55.225-25.97,87.047-32.078
				c17.26-3.319,36.983-4.602,55.73-5.491c7.129-0.338,14.309-0.512,21.328-0.512c68.538,0,128.902,16.145,169.98,45.456
				c29.792,21.265,55.2,58.994,37.169,101.109c-4.563,10.66-9.454,18.893-14.942,25.176
				C407.092,365.777,331.991,390.65,246.117,390.65z M249.907,159.087c-6.94,0-14.036,0.17-21.09,0.507
				c-18.555,0.879-38.063,2.146-55.012,5.403c-31.256,5.998-60.789,16.876-85.413,31.459
				C19.791,237.09,35.01,286.243,41.308,300.338c10.948,24.5,35.161,44.562,74.027,61.338
				c35.691,15.404,82.137,23.885,130.781,23.885c84.452,0,158.085-24.203,192.167-63.164c5.135-5.877,9.75-13.672,14.103-23.832
				c16.843-39.342-7.271-74.852-35.45-94.967C376.713,174.894,317.395,159.087,249.907,159.087z M247.992,355.919
				c-0.007,0-0.01,0-0.013,0c-63.586-0.008-122.271-15.91-156.982-42.545c-13.036-9.998-26.367-22.69-26.413-41.039
				c-0.04-16.856,15.457-33.614,23.656-40.12c21.643-17.15,48.808-28.556,85.496-35.901c16.743-3.351,34.456-5.386,55.751-6.402
				c7.062-0.338,14.129-0.507,21.006-0.507c62.15,0,113.824,13.523,149.433,39.104c19.648,14.123,29.195,28.453,29.195,43.822
				c0,34.783-48.754,57.053-69.717,65.012C327.38,349.492,288.852,355.919,247.992,355.919z M250.493,194.489
				c-6.798,0-13.784,0.169-20.761,0.502c-21.033,1.004-38.511,3.008-54.999,6.309c-35.867,7.179-62.346,18.27-83.332,34.897
				c-8.753,6.947-21.766,22.294-21.732,36.128c0.04,16.141,12.37,27.768,24.422,37.014c33.856,25.979,91.386,41.492,153.889,41.492
				c0.003,0,0.01,0,0.01,0c39.68,0,78.604-6.478,109.608-18.24c19.977-7.586,66.441-28.641,66.441-60.258
				c0-13.612-8.859-26.596-27.082-39.694C362.22,207.681,311.574,194.489,250.493,194.489z"/>
		</g>
	</g>
	<g>
		<path fill="#BE894A" d="M65.448,264.873l-0.132,33.449l110.875,38.543c0,0,12.844,40.469,76.519,32.371
			c45.05-5.736,48.913-31.859,48.913-31.859s64.089,4.438,72.082-18.758c7.994-23.195,1.918-39.959,1.918-39.959l-122.118,9.275
			L82.639,264.941L65.448,264.873z"/>
		<path fill="#3C2517" d="M236.563,372.848c-26.535,0-42.158-9.47-50.59-17.412c-7.321-6.896-10.631-13.804-11.747-16.562
			L64.481,300.725c-1.027-0.355-1.71-1.326-1.71-2.412l0.136-33.449c0.004-0.676,0.272-1.318,0.756-1.797
			c0.474-0.474,1.116-0.734,1.785-0.734c0.007,0,0.007,0,0.01,0l17.19,0.068c0.109,0,0.219,0.008,0.328,0.023l170.604,22.954
			l121.847-9.252c1.206-0.097,2.196,0.597,2.584,1.666c0.263,0.724,6.288,17.883-1.903,41.653
			c-5.928,17.203-37.153,20.812-62.305,20.812c-4.502,0-8.09-0.125-10.217-0.229c-2.084,6.839-11.445,26.75-50.556,31.726
			C247.333,372.482,241.794,372.848,236.563,372.848z M67.867,296.516l109.159,37.948c0.752,0.265,1.345,0.867,1.587,1.634
			c0.417,1.284,10.796,31.668,57.95,31.668c5.016,0,10.339-0.357,15.828-1.054c42.643-5.426,46.685-29.467,46.718-29.707
			c0.194-1.315,1.378-2.228,2.692-2.168c0.046,0.009,4.919,0.338,12.002,0.338c15.487,0,52.09-1.694,57.5-17.389
			c6.1-17.699,3.657-31.613,2.448-36.437L253.7,290.471c-0.179,0.014-0.357,0.01-0.533-0.017L82.463,267.486l-14.48-0.06
			L67.867,296.516z"/>
	</g>
	<g>
		<path fill="#FDC381" d="M191.182,227.342l122.38,30.176c0,0,53.933-10.933,63.081,24.881c2.12,48.317-86.688,26.365-86.688,26.365
			s-7.795,44.254-61.644,33.487c-38.988-8.058-38.541-30.885-38.541-30.885L65.448,264.873L191.182,227.342z"/>
		<path fill="#3C2517" d="M244.255,346.482c-5.145,0-10.677-0.582-16.44-1.734c-34.553-7.143-39.704-25.596-40.459-31.568
			L64.561,267.254c-1.023-0.381-1.689-1.375-1.653-2.465c0.04-1.094,0.77-2.04,1.815-2.354l125.733-37.533
			c0.431-0.129,0.895-0.139,1.335-0.03l121.841,30.043c2.011-0.367,8.997-1.514,17.803-1.514c26.068,0,43,10.074,47.675,28.361
			c0.043,0.172,0.068,0.344,0.075,0.52c0.392,8.877-2.094,16.182-7.384,21.709c-7.806,8.156-21.55,12.287-40.854,12.287
			c-16.901,0-33.091-3.158-39.135-4.482C289.357,320.259,278.953,346.482,244.255,346.482z M73.433,265.145l117.226,43.844
			c1.011,0.379,1.673,1.352,1.653,2.43c-0.004,0.83,0.308,20.863,36.517,28.344c5.423,1.086,10.617,1.637,15.427,1.637
			c36.825,0,42.954-31.727,43.199-33.078c0.122-0.692,0.525-1.303,1.119-1.688c0.584-0.381,1.309-0.502,1.994-0.338
			c0.195,0.051,20.086,4.904,40.38,4.904c17.861,0,30.372-3.607,37.18-10.721c4.303-4.498,6.264-10.293,5.989-17.707
			c-5.291-20.06-26.111-24.283-42.683-24.283c-9.72,0-17.296,1.505-17.368,1.518c-0.367,0.076-0.752,0.07-1.113-0.02l-121.708-30.01
			L73.433,265.145z"/>
	</g>
	<g>
		<path fill="#BE894A" d="M97.609,234.693l-0.133,33.45l110.872,38.545c0,0,12.844,40.469,76.521,32.369
			c45.047-5.734,48.913-31.859,48.913-31.859s64.089,4.438,72.079-18.758c7.994-23.195,1.918-39.958,1.918-39.958l-122.115,9.276
			l-170.869-22.995L97.609,234.693z"/>
		<path fill="#3C2517" d="M268.725,342.669c-26.536,0-42.159-9.467-50.594-17.412c-7.321-6.896-10.631-13.805-11.747-16.563
			L96.642,270.544c-1.027-0.358-1.713-1.326-1.709-2.412l0.136-33.449c0-0.676,0.271-1.318,0.752-1.795
			c0.474-0.474,1.119-0.735,1.789-0.735c0.006,0,0.006,0,0.006,0l17.19,0.069c0.112,0,0.222,0.007,0.331,0.023l170.604,22.954
			l121.848-9.252c1.209-0.08,2.195,0.596,2.583,1.666c0.262,0.723,6.288,17.883-1.904,41.655
			c-5.927,17.203-37.152,20.811-62.307,20.811c-4.502,0-8.09-0.125-10.217-0.229c-2.08,6.838-11.445,26.748-50.553,31.727
			C279.493,342.302,273.954,342.669,268.725,342.669z M100.024,266.337l109.158,37.947c0.756,0.266,1.349,0.866,1.587,1.633
			c0.418,1.285,10.797,31.666,57.954,31.666c5.02,0,10.34-0.354,15.828-1.054c42.644-5.426,46.682-29.463,46.714-29.704
			c0.198-1.316,1.389-2.222,2.693-2.166c0.046,0.006,4.919,0.338,12.002,0.338c15.487,0,52.093-1.697,57.5-17.39
			c6.099-17.7,3.66-31.614,2.451-36.438l-120.052,9.119c-0.18,0.014-0.357,0.01-0.536-0.016L114.62,237.307l-14.477-0.06
			L100.024,266.337z"/>
	</g>
	<g>
		<path fill="#FDC381" d="M223.342,197.161l122.377,30.178c0,0,53.937-10.932,63.082,24.879
			c2.124,48.32-86.686,26.365-86.686,26.365s-7.795,44.256-61.645,33.489c-38.991-8.057-38.544-30.887-38.544-30.887L97.609,234.693
			L223.342,197.161z"/>
		<path fill="#3C2517" d="M276.416,316.302c-5.145,0-10.678-0.581-16.443-1.733c-34.55-7.144-39.705-25.598-40.459-31.568
			L96.722,237.075c-1.027-0.381-1.69-1.375-1.653-2.465c0.039-1.093,0.769-2.041,1.815-2.352l125.729-37.532
			c0.434-0.127,0.897-0.143,1.335-0.033l121.84,30.045c2.015-0.368,9.001-1.514,17.807-1.514c26.064,0,43,10.074,47.671,28.361
			c0.043,0.172,0.069,0.345,0.076,0.521c0.392,8.879-2.094,16.18-7.384,21.705c-7.802,8.16-21.547,12.293-40.851,12.293
			c-16.901,0-33.092-3.16-39.135-4.48C321.52,290.08,311.114,316.302,276.416,316.302z M105.59,234.965l117.229,43.844
			c1.011,0.379,1.673,1.353,1.653,2.43c-0.007,0.832,0.308,20.863,36.514,28.348c5.426,1.082,10.619,1.633,15.431,1.633
			c36.821,0,42.953-31.727,43.198-33.078c0.123-0.691,0.526-1.302,1.12-1.686c0.583-0.383,1.302-0.504,1.99-0.338
			c0.198,0.049,20.089,4.902,40.383,4.902c17.861,0,30.367-3.607,37.18-10.725c4.303-4.492,6.261-10.29,5.986-17.704
			c-5.291-20.058-26.111-24.282-42.68-24.282c-9.723,0-17.299,1.504-17.372,1.517c-0.368,0.076-0.749,0.069-1.112-0.02
			l-121.705-30.012L105.59,234.965z"/>
	</g>
	<g opacity="0.92">
		<path fill="#D88B56" d="M368.601,240.411c-8.269-9.879-10.484-14.55-18.43-16.359c-7.947-1.805,2.188-10.74-26.236-5.956
			c0,0-3.08,2.365-38.055-14.858c-8.399-4.136-20.751-8.996-34.797-7.546c-14.043,1.449-30.275-10.407-42.957-5.375
			c-12.685,5.032-28.178,5.784-40.091,11.596c-11.916,5.812-35.172,15.925-42.351,16.382c-7.176,0.457-21.735-0.179-28.119,7.129
			c-6.387,7.308-13.863,28.944-2.239,37.09c11.628,8.149,33.602,1.842,45.902,1.27c0.186-0.008,0.397-0.01,0.586-0.02
			c7.235-0.209,22.239,0.866,32.22,12.098c13.562,15.256,20.072,44.594,47.111,43.166c27.039-1.433,46.528-9.908,58.391-22.404
			c7.778-8.197,14.752-18.287,23.518-26.068c5.297-5.682,13.529-8.865,14.59-9.285c7.371-1.721,20.953,2.443,26.808,2.515
			c7.308,0.093,22.234,4.625,24.598-2.117C373.284,249.574,376.872,250.292,368.601,240.411z"/>
	</g>
	<g>
		<path fill="#B35F50" d="M354.617,259.033c0,7.228-3.747,13.092-8.375,13.092c-4.624,0-8.378-5.864-8.378-13.092
			c0-7.229,3.754-13.09,8.378-13.09C350.87,245.943,354.617,251.805,354.617,259.033z"/>
	</g>
	<g>
		<path fill="#C56D61" d="M207.48,235.273c-5.396,4.813-12.264,5.917-15.345,2.461c-3.081-3.449-1.206-10.15,4.19-14.964
			s12.264-5.914,15.345-2.461C214.752,223.758,212.874,230.463,207.48,235.273z"/>
	</g>
	<g>
		<path fill="#C56D61" d="M164.501,254.789c-5.397,4.812-12.265,5.913-15.346,2.465c-3.08-3.452-1.205-10.154,4.191-14.964
			c5.396-4.816,12.264-5.917,15.345-2.464C171.772,243.279,169.897,249.975,164.501,254.789z"/>
	</g>
	<g>
		<path fill="#C56D61" d="M122.448,300.865c-5.394,4.818-12.261,5.914-15.342,2.469c-3.081-3.455-1.209-10.154,4.191-14.963
			c5.393-4.818,12.264-5.92,15.344-2.469C129.72,289.357,127.845,296.057,122.448,300.865z"/>
	</g>
	<g>
		<path fill="#C56D61" d="M144.488,330.738c-5.394,4.816-12.261,5.912-15.345,2.467c-3.078-3.455-1.206-10.156,4.19-14.967
			c5.396-4.816,12.264-5.916,15.348-2.465C151.76,319.225,149.885,325.923,144.488,330.738z"/>
	</g>
	<g>
		<path fill="#B35F50" d="M153.93,236.899c-3.416-6.377-2.876-13.314,1.202-15.5c4.078-2.183,10.153,1.216,13.562,7.586
			c3.416,6.37,2.876,13.307-1.199,15.494C163.417,246.662,157.338,243.267,153.93,236.899z"/>
	</g>
	<g>
		<path fill="#B35F50" d="M240.337,191.859c7.092,1.419,12.103,6.246,11.192,10.785c-0.903,4.535-7.387,7.064-14.476,5.644
			c-7.093-1.417-12.102-6.245-11.194-10.783C226.768,192.969,233.25,190.438,240.337,191.859z"/>
	</g>
	<g>
		<path fill="#B35F50" d="M309.964,236.167c-5.396,4.813-12.267,5.917-15.348,2.461c-3.078-3.452-1.202-10.15,4.193-14.964
			c5.396-4.814,12.265-5.914,15.346-2.465C317.235,224.655,315.36,231.354,309.964,236.167z"/>
	</g>
	<g>
		<path fill="#C56D61" d="M225.75,231.006c0.05-7.231,3.837-13.065,8.461-13.036c4.628,0.03,8.342,5.917,8.295,13.145
			c-0.053,7.232-3.843,13.066-8.464,13.036C229.414,244.121,225.704,238.234,225.75,231.006z"/>
	</g>
	<g>
		<path fill="#C56D61" d="M257.215,272.439c-5.396,4.815-12.264,5.916-15.345,2.465c-3.081-3.455-1.206-10.15,4.19-14.967
			c5.394-4.814,12.265-5.914,15.344-2.465C264.482,260.927,262.607,267.625,257.215,272.439z"/>
	</g>
	<g>
		<path fill="#C56D61" d="M138.35,239.188c-5.396,4.817-12.268,5.917-15.349,2.465c-3.077-3.452-1.202-10.15,4.194-14.964
			c5.394-4.817,12.264-5.917,15.345-2.465C145.618,227.677,143.746,234.375,138.35,239.188z"/>
	</g>
	<g>
		<path fill="#AB4825" d="M177.261,239.686c3.856,6.115,3.807,13.072-0.108,15.541c-3.913,2.465-10.21-0.49-14.066-6.604
			c-3.856-6.119-3.807-13.076,0.106-15.544C167.107,230.612,173.405,233.567,177.261,239.686z"/>
	</g>
	<g>
		<path fill="#7C2617" d="M145.995,240.676c3.853,6.113,3.81,13.072-0.105,15.537c-3.916,2.465-10.214-0.486-14.069-6.605
			c-3.854-6.115-3.81-13.072,0.109-15.54C135.842,231.602,142.14,234.557,145.995,240.676z"/>
	</g>
	<g>
		<path fill="#7C2617" d="M116.502,302.619c3.853,6.111,3.81,13.072-0.109,15.537c-3.913,2.465-10.214-0.488-14.066-6.605
			s-3.81-13.072,0.109-15.541C106.348,293.544,112.646,296.5,116.502,302.619z"/>
	</g>
	<g>
		<path fill="#7C2617" d="M77.521,304.408c3.853,6.111,3.807,13.072-0.106,15.537c-3.915,2.467-10.216-0.488-14.069-6.607
			c-3.853-6.111-3.81-13.068,0.109-15.535C67.366,295.333,73.664,298.289,77.521,304.408z"/>
	</g>
	<g>
		
			<ellipse transform="matrix(-0.5332 -0.846 0.846 -0.5332 102.4086 473.9001)" fill="#7C2617" cx="181.95" cy="208.696" rx="13.089" ry="8.376"/>
	</g>
	<g>
		<path fill="#7C2617" d="M253.048,211.895c3.854,6.112,3.81,13.072-0.104,15.537c-3.915,2.468-10.212-0.487-14.067-6.606
			c-3.856-6.112-3.807-13.074,0.109-15.537C242.897,202.823,249.191,205.779,253.048,211.895z"/>
	</g>
	<g>
		<path fill="#7C2617" d="M279.057,241.687c3.855,6.119,3.811,13.075-0.105,15.543c-3.912,2.465-10.21-0.49-14.066-6.605
			c-3.855-6.119-3.81-13.076,0.106-15.544C268.904,232.613,275.203,235.571,279.057,241.687z"/>
	</g>
	<g>
		<path fill="#7C2617" d="M241.214,254.566c3.856,6.113,3.807,13.068-0.105,15.537c-3.916,2.469-10.213-0.486-14.069-6.605
			c-3.853-6.115-3.807-13.072,0.106-15.54C231.061,245.493,237.358,248.448,241.214,254.566z"/>
	</g>
	<g>
		<path fill="#AB4825" d="M378.665,240.673c3.854,6.116,3.806,13.072-0.109,15.54c-3.913,2.465-10.211-0.486-14.062-6.608
			c-3.855-6.112-3.811-13.069,0.103-15.537C368.511,231.602,374.812,234.557,378.665,240.673z"/>
	</g>
	<g>
		<path fill="#AB4825" d="M171.762,222.297c-5.124,5.102-11.923,6.579-15.186,3.299c-3.267-3.28-1.763-10.071,3.366-15.172
			c5.118-5.1,11.922-6.576,15.186-3.3C178.391,210.407,176.887,217.195,171.762,222.297z"/>
	</g>
	<g>
		<path fill="#AB4825" d="M289.598,289.434c-6.553-3.058-10.283-8.933-8.324-13.125c1.951-4.193,8.849-5.119,15.403-2.064
			c6.554,3.052,10.279,8.926,8.325,13.119C303.047,291.557,296.152,292.484,289.598,289.434z"/>
	</g>
	<g>
		<path fill="#AB4825" d="M215.44,221.826c-7.148-1.05-12.402-5.612-11.727-10.19c0.672-4.577,7.017-7.437,14.172-6.382
			c7.146,1.049,12.403,5.614,11.728,10.188C228.938,220.018,222.6,222.88,215.44,221.826z"/>
	</g>
	<g>
		<path fill="#AB4825" d="M210.048,253.506c1.692,7.026-0.583,13.604-5.085,14.684c-4.496,1.082-9.515-3.734-11.204-10.769
			c-1.692-7.025,0.586-13.605,5.082-14.685C203.339,241.657,208.358,246.476,210.048,253.506z"/>
	</g>
	<g>
		<path fill="#AB4825" d="M116.316,227.064c1.689,7.029-0.587,13.602-5.085,14.682c-4.499,1.083-9.518-3.733-11.207-10.767
			c-1.693-7.026,0.586-13.602,5.081-14.686C109.604,215.214,114.627,220.034,116.316,227.064z"/>
	</g>
	<g>
		<path fill="#AB4825" d="M107.613,315.634c1.687,7.025-0.586,13.601-5.085,14.683c-4.499,1.084-9.521-3.74-11.207-10.771
			c-1.692-7.024,0.586-13.601,5.082-14.682C100.901,303.781,105.921,308.602,107.613,315.634z"/>
	</g>
	<g>
		<path fill="#AB4825" d="M286.715,255.361c-7.142-1.123-12.347-5.737-11.628-10.31c0.72-4.568,7.09-7.364,14.231-6.238
			c7.144,1.12,12.348,5.738,11.632,10.31C300.225,253.691,293.854,256.488,286.715,255.361z"/>
	</g>
	<g>
		<path fill="#AB4825" d="M344.938,241.471c-7.143-1.123-12.347-5.738-11.628-10.31c0.723-4.568,7.09-7.364,14.234-6.238
			c7.144,1.12,12.347,5.738,11.628,10.309C358.45,239.801,352.079,242.597,344.938,241.471z"/>
	</g>
	<g>
		<path fill="#B35F50" d="M310.047,266.373c-7.142-1.123-12.35-5.74-11.628-10.309c0.719-4.568,7.09-7.364,14.232-6.241
			c7.142,1.122,12.346,5.741,11.631,10.312C323.557,264.704,317.189,267.5,310.047,266.373z"/>
	</g>
	<g>
		
			<ellipse transform="matrix(0.9879 0.1554 -0.1554 0.9879 37.8107 -41.121)" fill="#AB4825" cx="281.906" cy="221.269" rx="13.09" ry="8.377"/>
	</g>
	<g>
		<path fill="#AB4825" d="M220.632,231.659c2.203,6.887,0.414,13.608-3.988,15.021c-4.409,1.407-9.77-3.031-11.969-9.919
			c-2.207-6.884-0.414-13.609,3.991-15.017C213.072,220.335,218.433,224.771,220.632,231.659z"/>
	</g>
	<g>
		<path fill="#AB4825" d="M267.243,286.857c2.36,6.83,0.729,13.592-3.647,15.104c-4.369,1.511-9.828-2.803-12.185-9.637
			c-2.365-6.834-0.731-13.597,3.642-15.109C259.428,275.708,264.889,280.02,267.243,286.857z"/>
	</g>
	<g>
		<path fill="#AB4825" d="M94.246,306.141c2.359,6.83,0.726,13.596-3.647,15.104c-4.372,1.514-9.832-2.804-12.188-9.642
			c-2.365-6.83-0.729-13.596,3.641-15.108C86.429,294.992,91.888,299.302,94.246,306.141z"/>
	</g>
	<g>
		<path fill="#AB4825" d="M251.994,245.8c2.357,6.835,0.729,13.597-3.647,15.107c-4.373,1.514-9.832-2.804-12.188-9.638
			c-2.362-6.828-0.729-13.596,3.641-15.106C244.176,234.653,249.636,238.967,251.994,245.8z"/>
	</g>
	<g>
		<path fill="#661C0D" d="M133.629,215.996c5.214,5.009,6.848,11.771,3.644,15.11c-3.206,3.339-10.027,1.991-15.245-3.015
			c-5.218-5.009-6.851-11.767-3.647-15.106C121.585,209.646,128.408,210.994,133.629,215.996z"/>
	</g>
	<g>
		<path fill="#661C0D" d="M125.161,315.498c5.215,5.014,6.848,11.773,3.645,15.109c-3.2,3.34-10.024,1.992-15.242-3.01
			c-5.218-5.015-6.854-11.771-3.65-15.107C113.123,309.148,119.943,310.5,125.161,315.498z"/>
	</g>
	<g>
		<path fill="#7C2617" d="M151.472,228.982c-7.216-0.444-12.841-4.542-12.553-9.16c0.282-4.615,6.351-8.004,13.572-7.563
			c7.219,0.438,12.841,4.539,12.556,9.157C164.769,226.034,158.689,229.422,151.472,228.982z"/>
	</g>
	<g>
		<path fill="#7C2617" d="M220.953,195.594c0.987,7.164-1.928,13.478-6.509,14.111c-4.586,0.629-9.101-4.66-10.091-11.824
			c-0.984-7.162,1.928-13.478,6.509-14.109C215.447,183.142,219.966,188.432,220.953,195.594z"/>
	</g>
	<g>
		<path fill="#661C0D" d="M194.68,209.817c7.033-1.656,13.599,0.649,14.662,5.148c1.058,4.509-3.783,9.498-10.819,11.164
			c-7.036,1.657-13.602-0.646-14.662-5.151S187.644,211.477,194.68,209.817z"/>
	</g>
	<g>
		<path fill="#7C2617" d="M182.429,224.603c7.195,0.715,12.655,5.029,12.198,9.63c-0.461,4.605-6.659,7.755-13.854,7.043
			s-12.654-5.025-12.2-9.627C169.032,227.044,175.233,223.89,182.429,224.603z"/>
	</g>
	<g>
		<path fill="#661C0D" d="M292.02,220.866c-4.635,5.549-11.271,7.643-14.817,4.678c-3.552-2.968-2.675-9.866,1.961-15.418
			c4.631-5.549,11.267-7.644,14.817-4.679C297.531,208.416,296.652,215.313,292.02,220.866z"/>
	</g>
	<g>
		<path fill="#7C2617" d="M276.273,205.646c2.617,6.738,1.242,13.56-3.067,15.236c-4.313,1.673-9.929-2.428-12.554-9.167
			c-2.616-6.738-1.244-13.559,3.072-15.235C268.034,194.807,273.652,198.907,276.273,205.646z"/>
	</g>
	<g>
		<path fill="#7C2617" d="M323.775,235.306c1.709,7.026-0.548,13.602-5.042,14.701c-4.499,1.091-9.524-3.713-11.24-10.739
			c-1.706-7.023,0.55-13.605,5.049-14.702C317.034,223.476,322.069,228.283,323.775,235.306z"/>
	</g>
	<g>
		<path fill="#B35F50" d="M262.794,233.335c-5.399,4.817-12.269,5.92-15.349,2.468c-3.081-3.455-1.206-10.153,4.19-14.967
			c5.395-4.813,12.268-5.914,15.346-2.465C270.062,221.823,268.184,228.525,262.794,233.335z"/>
	</g>
	<g>
		<path fill="#C56D61" d="M97.43,313.328c-5.396,4.818-12.267,5.92-15.348,2.469c-3.077-3.449-1.199-10.154,4.19-14.963
			c5.394-4.818,12.264-5.914,15.349-2.465C104.698,301.82,102.823,308.52,97.43,313.328z"/>
	</g>
</g>
</svg>
