<?xml version="1.0" encoding="utf-8"?>
<!-- Generator: Adobe Illustrator 16.0.0, SVG Export Plug-In . SVG Version: 6.00 Build 0)  -->
<!DOCTYPE svg PUBLIC "-//W3C//DTD SVG 1.1//EN" "http://www.w3.org/Graphics/SVG/1.1/DTD/svg11.dtd">
<svg version="1.1" id="Layer_1" xmlns="http://www.w3.org/2000/svg" xmlns:xlink="http://www.w3.org/1999/xlink" x="0px" y="0px"
	 width="500px" height="500px" viewBox="0 0 500 500" enable-background="new 0 0 500 500" xml:space="preserve">
<g id="Layer_1_copy_88">
	<g>
		<g>
			<g>
				<path fill="#FEDA00" d="M319.214,188.938c1.332,0.254,3.201-0.32,4.161-1.274l4.32-4.317c0.955-0.958,2.011-0.668,2.338,0.646
					l1.267,5.076c0.332,1.311,1.591,2.886,2.806,3.493l6.262,3.13c1.213,0.606,1.203,1.576-0.021,2.153l-6.013,2.828
					c-1.224,0.577-2.229,2.156-2.229,3.51v7.803c0,1.351-0.839,1.736-1.866,0.854l-6.738-5.813
					c-1.024-0.886-2.919-1.267-4.208-0.857l-8.042,2.593c-1.289,0.417-1.743-0.174-1.011-1.314l4.725-7.349
					c0.733-1.141,0.719-2.995-0.032-4.121l-4.658-6.989c-0.748-1.126-0.275-1.837,1.057-1.58L319.214,188.938z"/>
			</g>
			<g>
				<path fill="#FEDA00" d="M319.214,188.938c1.332,0.254,3.201-0.32,4.161-1.274l4.32-4.317c0.955-0.958,2.011-0.668,2.338,0.646
					l1.267,5.076c0.332,1.311,1.591,2.886,2.806,3.493l6.262,3.13c1.213,0.606,1.203,1.576-0.021,2.153l-6.013,2.828
					c-1.224,0.577-2.229,2.156-2.229,3.51v7.803c0,1.351-0.839,1.736-1.866,0.854l-6.738-5.813
					c-1.024-0.886-2.919-1.267-4.208-0.857l-8.042,2.593c-1.289,0.417-1.743-0.174-1.011-1.314l4.725-7.349
					c0.733-1.141,0.719-2.995-0.032-4.121l-4.658-6.989c-0.748-1.126-0.275-1.837,1.057-1.58L319.214,188.938z"/>
				<path fill="#211010" d="M331.253,214.546c-0.613,0-1.223-0.262-1.818-0.773l-6.739-5.813c-0.667-0.578-2.195-0.89-3.03-0.617
					l-8.039,2.592c-1.267,0.411-2.302,0.124-2.756-0.712c-0.261-0.471-0.413-1.281,0.333-2.439l4.725-7.349
					c0.474-0.733,0.458-2.052-0.021-2.774l-4.658-6.986c-0.817-1.23-0.565-2.11-0.346-2.53c0.437-0.81,1.317-1.202,2.654-0.948
					l7.894,1.532c0.987,0.192,2.407-0.29,3.055-0.937l4.32-4.317c0.765-0.763,1.513-0.926,2.008-0.926
					c1.146,0,2.065,0.824,2.396,2.146l1.266,5.076c0.244,0.962,1.271,2.244,2.161,2.687l6.263,3.133
					c1.018,0.508,1.594,1.311,1.583,2.204s-0.604,1.677-1.633,2.164l-6.013,2.829c-0.797,0.374-1.521,1.518-1.521,2.396v7.803
					C333.334,213.755,332.288,214.546,331.253,214.546z M320.448,204.776c1.438,0,2.915,0.505,3.855,1.318l6.563,5.66v-7.571
					c0-1.815,1.29-3.849,2.938-4.625l5.944-2.795l-6.199-3.101c-1.542-0.77-3.023-2.618-3.444-4.292l-1.268-5.079
					c-0.028-0.116-0.064-0.2-0.094-0.25c-0.023,0.04-0.095,0.091-0.178,0.178l-4.321,4.317c-1.017,1.013-2.769,1.695-4.354,1.695
					l0,0c-0.313,0-0.624-0.029-0.905-0.083l-7.423-1.438l4.391,6.583c1.02,1.529,1.038,3.932,0.047,5.475l-4.193,6.524l7.106-2.294
					C319.38,204.845,319.896,204.776,320.448,204.776z"/>
			</g>
		</g>
		<g>
			<g>
				<path fill="#FDB515" d="M344.527,250.598c1.169-0.687,2.191-2.356,2.276-3.708l0.385-6.096c0.078-1.354,1.061-1.833,2.18-1.064
					l4.305,2.967c1.119,0.762,3.105,1.111,4.416,0.762l6.769-1.797c1.311-0.349,1.941,0.38,1.408,1.626l-2.636,6.104
					c-0.539,1.242-0.244,3.092,0.653,4.106l5.162,5.846c0.894,1.018,0.522,1.859-0.835,1.873l-8.896,0.106
					c-1.354,0.014-3.033,0.979-3.724,2.142l-4.312,7.27c-0.688,1.164-1.423,1.021-1.627-0.314l-1.32-8.641
					c-0.208-1.342-1.449-2.723-2.756-3.07l-8.115-2.152c-1.309-0.35-1.428-1.195-0.259-1.881L344.527,250.598z"/>
				<path fill="#211010" d="M350.77,272.749c-0.379,0-1.631-0.153-1.932-2.149l-1.321-8.631c-0.135-0.863-1.021-1.849-1.855-2.068
					l-8.111-2.156c-1.604-0.422-1.91-1.424-1.968-1.834c-0.054-0.414-0.029-1.456,1.396-2.299l6.926-4.077
					c0.816-0.479,1.61-1.775,1.67-2.72l0.386-6.1c0.107-1.783,1.281-2.581,2.392-2.581c0.566,0,1.162,0.203,1.718,0.588l4.308,2.958
					c0.783,0.542,2.486,0.832,3.4,0.588l6.766-1.797c1.202-0.319,2.265,0,2.8,0.806c0.253,0.385,0.603,1.228,0.054,2.499
					l-2.637,6.103c-0.348,0.806-0.134,2.146,0.446,2.804l5.164,5.846c1.078,1.228,0.799,2.248,0.628,2.629
					c-0.167,0.385-0.74,1.273-2.371,1.293l-8.896,0.105c-0.93,0.01-2.203,0.739-2.681,1.538l-4.31,7.265
					C352.059,272.507,351.292,272.749,350.77,272.749z M338.646,255.486l7.644,2.031c1.775,0.471,3.38,2.262,3.659,4.073
					l1.176,7.664l3.809-6.423c0.912-1.521,3.003-2.725,4.769-2.741l8.67-0.104l-5.014-5.676c-1.201-1.361-1.578-3.735-0.859-5.41
					l2.606-6.031l-6.699,1.779c-1.635,0.428-4.054,0.003-5.424-0.937l-4.311-2.967c-0.103-0.068-0.184-0.108-0.236-0.127
					c0.008,0.043-0.012,0.131-0.019,0.247l-0.385,6.1c-0.108,1.769-1.343,3.787-2.876,4.692L338.646,255.486z"/>
			</g>
			<g>
				<path fill="#FDB515" d="M344.527,250.598c1.169-0.687,2.191-2.356,2.276-3.708l0.385-6.096c0.078-1.354,1.061-1.833,2.18-1.064
					l4.305,2.967c1.119,0.762,3.105,1.111,4.416,0.762l6.769-1.797c1.311-0.349,1.941,0.38,1.408,1.626l-2.636,6.104
					c-0.539,1.242-0.244,3.092,0.653,4.106l5.162,5.846c0.894,1.018,0.522,1.859-0.835,1.873l-8.896,0.106
					c-1.354,0.014-3.033,0.979-3.724,2.142l-4.312,7.27c-0.688,1.164-1.423,1.021-1.627-0.314l-1.32-8.641
					c-0.208-1.342-1.449-2.723-2.756-3.07l-8.115-2.152c-1.309-0.35-1.428-1.195-0.259-1.881L344.527,250.598z"/>
				<path fill="#211010" d="M350.77,272.749c-0.379,0-1.631-0.153-1.932-2.149l-1.321-8.631c-0.135-0.863-1.021-1.849-1.855-2.068
					l-8.111-2.156c-1.604-0.422-1.91-1.424-1.968-1.834c-0.054-0.414-0.029-1.456,1.396-2.299l6.926-4.077
					c0.816-0.479,1.61-1.775,1.67-2.72l0.386-6.1c0.107-1.783,1.281-2.581,2.392-2.581c0.566,0,1.162,0.203,1.718,0.588l4.308,2.958
					c0.783,0.542,2.486,0.832,3.4,0.588l6.766-1.797c1.202-0.319,2.265,0,2.8,0.806c0.253,0.385,0.603,1.228,0.054,2.499
					l-2.637,6.103c-0.348,0.806-0.134,2.146,0.446,2.804l5.164,5.846c1.078,1.228,0.799,2.248,0.628,2.629
					c-0.167,0.385-0.74,1.273-2.371,1.293l-8.896,0.105c-0.93,0.01-2.203,0.739-2.681,1.538l-4.31,7.265
					C352.059,272.507,351.292,272.749,350.77,272.749z M338.646,255.486l7.644,2.031c1.775,0.471,3.38,2.262,3.659,4.073
					l1.176,7.664l3.809-6.423c0.912-1.521,3.003-2.725,4.769-2.741l8.67-0.104l-5.014-5.676c-1.201-1.361-1.578-3.735-0.859-5.41
					l2.606-6.031l-6.699,1.779c-1.635,0.428-4.054,0.003-5.424-0.937l-4.311-2.967c-0.103-0.068-0.184-0.108-0.236-0.127
					c0.008,0.043-0.012,0.131-0.019,0.247l-0.385,6.1c-0.108,1.769-1.343,3.787-2.876,4.692L338.646,255.486z"/>
			</g>
		</g>
		<g>
			<g>
				<path fill="#F7EC1F" d="M258.945,130.01c0.894-0.504,1.688-1.746,1.77-2.767l0.369-4.591c0.081-1.017,0.832-1.366,1.664-0.77
					l3.206,2.293c0.83,0.596,2.321,0.882,3.317,0.639l5.131-1.267c0.99-0.245,1.455,0.319,1.033,1.249l-2.068,4.564
					c-0.422,0.93-0.225,2.327,0.438,3.107l3.814,4.48c0.664,0.777,0.365,1.409-0.654,1.402l-6.712-0.047
					c-1.024-0.004-2.299,0.701-2.836,1.568l-3.353,5.42c-0.533,0.868-1.084,0.756-1.219-0.261l-0.884-6.536
					c-0.134-1.009-1.053-2.066-2.032-2.346l-6.093-1.739c-0.979-0.276-1.056-0.919-0.168-1.423L258.945,130.01z"/>
				<path fill="#211010" d="M263.376,147.107c-0.728,0-1.565-0.504-1.755-1.913l-0.878-6.532c-0.068-0.526-0.644-1.184-1.15-1.329
					l-6.093-1.735c-1.377-0.393-1.626-1.297-1.671-1.667c-0.047-0.371-0.015-1.308,1.231-2.016l5.282-2.981
					c0.536-0.301,1.097-1.172,1.146-1.79l0.366-4.591c0.148-1.862,2.057-2.79,3.608-1.669l3.203,2.289
					c0.521,0.373,1.71,0.596,2.306,0.445l5.131-1.265c1.037-0.256,1.953,0.045,2.422,0.766c0.226,0.347,0.525,1.097,0.035,2.186
					l-2.074,4.564c-0.225,0.494-0.096,1.387,0.256,1.801l3.816,4.48c0.907,1.067,0.64,1.972,0.482,2.31
					c-0.157,0.337-0.668,1.122-2.061,1.122l-6.738-0.043c-0.602,0-1.467,0.476-1.777,0.98l-3.354,5.424
					C264.521,146.904,263.841,147.107,263.376,147.107z M255.23,133.521l5.037,1.441c1.459,0.417,2.713,1.866,2.916,3.369
					l0.666,4.949l2.521-4.056c0.755-1.227,2.422-2.153,3.873-2.153l5.882,0.04l-3.261-3.845c-0.973-1.147-1.241-3.046-0.623-4.415
					l1.789-3.933l-4.465,1.09c-1.321,0.323-3.232-0.044-4.33-0.832l-2.938-2.1l-0.356,4.264c-0.111,1.427-1.14,3.035-2.39,3.74
					L255.23,133.521z"/>
			</g>
			<g>
				<path fill="#F7EC1F" d="M258.945,130.01c0.894-0.504,1.688-1.746,1.77-2.767l0.369-4.591c0.081-1.017,0.832-1.366,1.664-0.77
					l3.206,2.293c0.83,0.596,2.321,0.882,3.317,0.639l5.131-1.267c0.99-0.245,1.455,0.319,1.033,1.249l-2.068,4.564
					c-0.422,0.93-0.225,2.327,0.438,3.107l3.814,4.48c0.664,0.777,0.365,1.409-0.654,1.402l-6.712-0.047
					c-1.024-0.004-2.299,0.701-2.836,1.568l-3.353,5.42c-0.533,0.868-1.084,0.756-1.219-0.261l-0.884-6.536
					c-0.134-1.009-1.053-2.066-2.032-2.346l-6.093-1.739c-0.979-0.276-1.056-0.919-0.168-1.423L258.945,130.01z"/>
				<path fill="#211010" d="M263.376,147.107c-0.728,0-1.565-0.504-1.755-1.913l-0.878-6.532c-0.068-0.526-0.644-1.184-1.15-1.329
					l-6.093-1.735c-1.377-0.393-1.626-1.297-1.671-1.667c-0.047-0.371-0.015-1.308,1.231-2.016l5.282-2.981
					c0.536-0.301,1.097-1.172,1.146-1.79l0.366-4.591c0.148-1.862,2.057-2.79,3.608-1.669l3.203,2.289
					c0.521,0.373,1.71,0.596,2.306,0.445l5.131-1.265c1.037-0.256,1.953,0.045,2.422,0.766c0.226,0.347,0.525,1.097,0.035,2.186
					l-2.074,4.564c-0.225,0.494-0.096,1.387,0.256,1.801l3.816,4.48c0.907,1.067,0.64,1.972,0.482,2.31
					c-0.157,0.337-0.668,1.122-2.061,1.122l-6.738-0.043c-0.602,0-1.467,0.476-1.777,0.98l-3.354,5.424
					C264.521,146.904,263.841,147.107,263.376,147.107z M255.23,133.521l5.037,1.441c1.459,0.417,2.713,1.866,2.916,3.369
					l0.666,4.949l2.521-4.056c0.755-1.227,2.422-2.153,3.873-2.153l5.882,0.04l-3.261-3.845c-0.973-1.147-1.241-3.046-0.623-4.415
					l1.789-3.933l-4.465,1.09c-1.321,0.323-3.232-0.044-4.33-0.832l-2.938-2.1l-0.356,4.264c-0.111,1.427-1.14,3.035-2.39,3.74
					L255.23,133.521z"/>
			</g>
		</g>
		<g>
			<g>
				<path fill="#FEDA00" d="M445.548,134.316c1.009,0.164,2.407-0.316,3.104-1.057l3.151-3.358c0.701-0.748,1.498-0.555,1.778,0.429
					l1.078,3.794c0.279,0.984,1.269,2.138,2.197,2.563l4.8,2.215c0.926,0.424,0.939,1.154,0.033,1.623l-4.467,2.273
					c-0.907,0.469-1.627,1.685-1.592,2.705l0.188,5.882c0.031,1.017-0.594,1.333-1.385,0.688l-5.224-4.22
					c-0.793-0.639-2.233-0.886-3.193-0.541l-5.996,2.146c-0.967,0.349-1.321-0.083-0.795-0.966l3.383-5.657
					c0.525-0.875,0.469-2.273-0.124-3.104l-3.677-5.152c-0.596-0.832-0.26-1.383,0.754-1.22L445.548,134.316z"/>
				<path fill="#211010" d="M455.19,153.64c-0.52,0-1.031-0.207-1.531-0.614l-5.224-4.215c-0.431-0.352-1.487-0.522-2-0.341
					l-5.997,2.149c-1.121,0.4-2.049,0.135-2.478-0.621c-0.235-0.417-0.396-1.129,0.203-2.135l3.388-5.664
					c0.273-0.454,0.236-1.322-0.071-1.753l-3.68-5.152c-0.747-1.05-0.525-1.848-0.33-2.233c0.379-0.737,1.146-1.101,2.285-0.919
					l5.986,0.958c0.855-0.007,1.646-0.297,2.012-0.686l3.151-3.358c0.652-0.693,1.316-0.842,1.765-0.842
					c0.981,0,1.783,0.683,2.096,1.779l1.081,3.794c0.179,0.643,0.919,1.507,1.522,1.782l4.799,2.215
					c0.887,0.406,1.41,1.093,1.424,1.884c0.018,0.795-0.473,1.507-1.34,1.95l-4.466,2.28c-0.482,0.247-0.94,1.021-0.923,1.561
					l0.186,5.886c0.029,0.922-0.301,1.463-0.585,1.757C456.132,153.447,455.677,153.64,455.19,153.64z M447.007,145.92
					c1.111,0,2.224,0.367,2.979,0.973l4.566,3.689l-0.151-5.04c-0.052-1.5,0.922-3.151,2.262-3.838l3.848-1.964l-4.168-1.932
					c-1.256-0.577-2.49-2.015-2.867-3.347l-1.01-3.559l-2.916,3.199c-0.831,0.882-2.269,1.478-3.582,1.478l0,0
					c-0.212,0-0.418-0.014-0.615-0.048l-4.894-0.784l3.032,4.267c0.882,1.234,0.958,3.147,0.177,4.451l-2.566,4.292l4.503-1.608
					C446.027,146,446.499,145.92,447.007,145.92z"/>
			</g>
			<g>
				<path fill="#FEDA00" d="M445.548,134.316c1.009,0.164,2.407-0.316,3.104-1.057l3.151-3.358c0.701-0.748,1.498-0.555,1.778,0.429
					l1.078,3.794c0.279,0.984,1.269,2.138,2.197,2.563l4.8,2.215c0.926,0.424,0.939,1.154,0.033,1.623l-4.467,2.273
					c-0.907,0.469-1.627,1.685-1.592,2.705l0.188,5.882c0.031,1.017-0.594,1.333-1.385,0.688l-5.224-4.22
					c-0.793-0.639-2.233-0.886-3.193-0.541l-5.996,2.146c-0.967,0.349-1.321-0.083-0.795-0.966l3.383-5.657
					c0.525-0.875,0.469-2.273-0.124-3.104l-3.677-5.152c-0.596-0.832-0.26-1.383,0.754-1.22L445.548,134.316z"/>
				<path fill="#211010" d="M455.19,153.64c-0.52,0-1.031-0.207-1.531-0.614l-5.224-4.215c-0.431-0.352-1.487-0.522-2-0.341
					l-5.997,2.149c-1.121,0.4-2.049,0.135-2.478-0.621c-0.235-0.417-0.396-1.129,0.203-2.135l3.388-5.664
					c0.273-0.454,0.236-1.322-0.071-1.753l-3.68-5.152c-0.747-1.05-0.525-1.848-0.33-2.233c0.379-0.737,1.146-1.101,2.285-0.919
					l5.986,0.958c0.855-0.007,1.646-0.297,2.012-0.686l3.151-3.358c0.652-0.693,1.316-0.842,1.765-0.842
					c0.981,0,1.783,0.683,2.096,1.779l1.081,3.794c0.179,0.643,0.919,1.507,1.522,1.782l4.799,2.215
					c0.887,0.406,1.41,1.093,1.424,1.884c0.018,0.795-0.473,1.507-1.34,1.95l-4.466,2.28c-0.482,0.247-0.94,1.021-0.923,1.561
					l0.186,5.886c0.029,0.922-0.301,1.463-0.585,1.757C456.132,153.447,455.677,153.64,455.19,153.64z M447.007,145.92
					c1.111,0,2.224,0.367,2.979,0.973l4.566,3.689l-0.151-5.04c-0.052-1.5,0.922-3.151,2.262-3.838l3.848-1.964l-4.168-1.932
					c-1.256-0.577-2.49-2.015-2.867-3.347l-1.01-3.559l-2.916,3.199c-0.831,0.882-2.269,1.478-3.582,1.478l0,0
					c-0.212,0-0.418-0.014-0.615-0.048l-4.894-0.784l3.032,4.267c0.882,1.234,0.958,3.147,0.177,4.451l-2.566,4.292l4.503-1.608
					C446.027,146,446.499,145.92,447.007,145.92z"/>
			</g>
		</g>
		<g>
			<g>
				<path fill="#FDB515" d="M390.418,200.383c0.936-0.41,1.851-1.569,2.035-2.571l0.84-4.53c0.186-1.006,0.962-1.275,1.732-0.596
					l2.955,2.607c0.767,0.679,2.222,1.114,3.233,0.969l5.232-0.729c1.013-0.146,1.42,0.461,0.903,1.347l-2.522,4.325
					c-0.516,0.886-0.462,2.294,0.119,3.137l3.333,4.848c0.581,0.842,0.226,1.441-0.791,1.328l-6.679-0.729
					c-1.013-0.109-2.354,0.458-2.976,1.271l-3.886,5.047c-0.625,0.813-1.158,0.643-1.191-0.385l-0.21-6.586
					c-0.033-1.02-0.835-2.164-1.786-2.545l-5.879-2.346c-0.947-0.38-0.959-1.027-0.021-1.434L390.418,200.383z"/>
				<path fill="#211010" d="M393.234,217.847c-0.754,0-1.659-0.544-1.71-2.088l-0.207-6.586c-0.019-0.53-0.52-1.246-1.009-1.441
					l-5.883-2.349c-1.329-0.534-1.484-1.46-1.492-1.831c-0.008-0.374,0.122-1.303,1.435-1.877l5.557-2.426
					c0.554-0.24,1.207-1.064,1.32-1.663l0.835-4.528c0.345-1.859,2.312-2.571,3.758-1.299l2.96,2.607
					c0.428,0.385,1.329,0.693,2.004,0.693l5.476-0.751c1.082-0.156,1.873,0.214,2.283,0.93c0.219,0.377,0.49,1.176-0.142,2.258
					l-2.527,4.328c-0.271,0.472-0.238,1.369,0.069,1.815l3.332,4.851c0.764,1.096,0.462,1.953,0.295,2.266
					c-0.334,0.639-1.013,1.005-1.862,1.005c-0.043,0-0.329-0.021-0.379-0.025l-6.668-0.726c-0.008,0-0.016,0-0.016,0
					c-0.728,0-1.525,0.37-1.848,0.795l-3.891,5.05C394.418,217.517,393.852,217.847,393.234,217.847z M386.364,203.494l4.855,1.95
					c1.411,0.562,2.507,2.132,2.56,3.646l0.16,4.996l2.918-3.779c0.871-1.141,2.597-1.909,4.09-1.743l5.833,0.631l-2.85-4.153
					c-0.854-1.238-0.927-3.152-0.168-4.458l2.177-3.729l-4.554,0.631c-1.348,0.189-3.203-0.366-4.223-1.271l-2.71-2.389
					l-0.791,4.208c-0.258,1.412-1.445,2.904-2.757,3.479L386.364,203.494z"/>
			</g>
			<g>
				<path fill="#FDB515" d="M390.418,200.383c0.936-0.41,1.851-1.569,2.035-2.571l0.84-4.53c0.186-1.006,0.962-1.275,1.732-0.596
					l2.955,2.607c0.767,0.679,2.222,1.114,3.233,0.969l5.232-0.729c1.013-0.146,1.42,0.461,0.903,1.347l-2.522,4.325
					c-0.516,0.886-0.462,2.294,0.119,3.137l3.333,4.848c0.581,0.842,0.226,1.441-0.791,1.328l-6.679-0.729
					c-1.013-0.109-2.354,0.458-2.976,1.271l-3.886,5.047c-0.625,0.813-1.158,0.643-1.191-0.385l-0.21-6.586
					c-0.033-1.02-0.835-2.164-1.786-2.545l-5.879-2.346c-0.947-0.38-0.959-1.027-0.021-1.434L390.418,200.383z"/>
				<path fill="#211010" d="M393.234,217.847c-0.754,0-1.659-0.544-1.71-2.088l-0.207-6.586c-0.019-0.53-0.52-1.246-1.009-1.441
					l-5.883-2.349c-1.329-0.534-1.484-1.46-1.492-1.831c-0.008-0.374,0.122-1.303,1.435-1.877l5.557-2.426
					c0.554-0.24,1.207-1.064,1.32-1.663l0.835-4.528c0.345-1.859,2.312-2.571,3.758-1.299l2.96,2.607
					c0.428,0.385,1.329,0.693,2.004,0.693l5.476-0.751c1.082-0.156,1.873,0.214,2.283,0.93c0.219,0.377,0.49,1.176-0.142,2.258
					l-2.527,4.328c-0.271,0.472-0.238,1.369,0.069,1.815l3.332,4.851c0.764,1.096,0.462,1.953,0.295,2.266
					c-0.334,0.639-1.013,1.005-1.862,1.005c-0.043,0-0.329-0.021-0.379-0.025l-6.668-0.726c-0.008,0-0.016,0-0.016,0
					c-0.728,0-1.525,0.37-1.848,0.795l-3.891,5.05C394.418,217.517,393.852,217.847,393.234,217.847z M386.364,203.494l4.855,1.95
					c1.411,0.562,2.507,2.132,2.56,3.646l0.16,4.996l2.918-3.779c0.871-1.141,2.597-1.909,4.09-1.743l5.833,0.631l-2.85-4.153
					c-0.854-1.238-0.927-3.152-0.168-4.458l2.177-3.729l-4.554,0.631c-1.348,0.189-3.203-0.366-4.223-1.271l-2.71-2.389
					l-0.791,4.208c-0.258,1.412-1.445,2.904-2.757,3.479L386.364,203.494z"/>
			</g>
		</g>
		<g>
			<g>
				<path fill="#F7EC1F" d="M458.52,223.696c0.701,1.07,2.324,1.96,3.604,1.979l5.777,0.091c1.28,0.021,1.773,0.926,1.096,2.015
					l-2.604,4.201c-0.679,1.085-0.918,2.981-0.524,4.197l2,6.317c0.385,1.22-0.28,1.848-1.479,1.398l-5.879-2.219
					c-1.196-0.45-2.93-0.091-3.848,0.802l-5.291,5.134c-0.921,0.894-1.738,0.577-1.808-0.701l-0.497-8.405
					c-0.075-1.275-1.057-2.817-2.188-3.414l-7.052-3.747c-1.137-0.606-1.034-1.3,0.226-1.558l8.097-1.634
					c1.256-0.25,2.506-1.485,2.773-2.737l1.678-7.759c0.271-1.249,1.066-1.398,1.767-0.323L458.52,223.696z"/>
			</g>
			<g>
				<path fill="#F7EC1F" d="M458.52,223.696c0.701,1.07,2.324,1.96,3.604,1.979l5.777,0.091c1.28,0.021,1.773,0.926,1.096,2.015
					l-2.604,4.201c-0.679,1.085-0.918,2.981-0.524,4.197l2,6.317c0.385,1.22-0.28,1.848-1.479,1.398l-5.879-2.219
					c-1.196-0.45-2.93-0.091-3.848,0.802l-5.291,5.134c-0.921,0.894-1.738,0.577-1.808-0.701l-0.497-8.405
					c-0.075-1.275-1.057-2.817-2.188-3.414l-7.052-3.747c-1.137-0.606-1.034-1.3,0.226-1.558l8.097-1.634
					c1.256-0.25,2.506-1.485,2.773-2.737l1.678-7.759c0.271-1.249,1.066-1.398,1.767-0.323L458.52,223.696z"/>
				<path fill="#211010" d="M450.392,249.352c-0.959,0-1.969-0.734-2.061-2.375l-0.496-8.398c-0.052-0.857-0.781-2.001-1.533-2.396
					l-7.053-3.751c-1.41-0.748-1.501-1.681-1.429-2.171c0.068-0.491,0.426-1.358,1.985-1.681l8.102-1.63
					c0.781-0.16,1.644-1.009,1.809-1.79l1.678-7.759c0.406-1.87,1.651-2.015,2.025-2.015c0.523,0,1.29,0.221,1.979,1.274
					l4.156,6.361c0.478,0.733,1.711,1.408,2.589,1.423l5.773,0.087c1.07,0.022,1.929,0.479,2.349,1.256
					c0.422,0.773,0.343,1.739-0.226,2.644l-2.604,4.201c-0.487,0.784-0.682,2.294-0.398,3.169l2.001,6.325
					c0.284,0.9,0.2,1.725-0.239,2.327c-0.581,0.795-1.659,1.039-2.843,0.596l-5.882-2.219c-0.718-0.272-1.996-0.008-2.553,0.53
					l-5.299,5.134C451.497,249.203,450.825,249.352,450.392,249.352z M441.383,230.776l6.07,3.231
					c1.519,0.799,2.741,2.702,2.84,4.426l0.479,8.042l5.031-4.88c1.221-1.184,3.539-1.673,5.142-1.07l5.683,2.142l-1.935-6.114
					c-0.505-1.569-0.227-3.819,0.652-5.225l2.604-4.197c0.032-0.051,0.056-0.094,0.073-0.131c-0.069,0.007-0.092-0.004-0.146-0.004
					l-5.772-0.091c-1.704-0.021-3.69-1.114-4.615-2.537l-3.819-5.846l-1.544,7.156c-0.371,1.717-2.012,3.337-3.735,3.685
					L441.383,230.776z"/>
			</g>
		</g>
		<g>
			<g>
				<path fill="#FDB515" d="M220.837,180.791c1.016,0.08,2.371-0.505,3.006-1.304l2.872-3.602c0.639-0.799,1.449-0.671,1.812,0.287
					l1.375,3.693c0.356,0.958,1.438,2.033,2.394,2.378l4.968,1.819c0.957,0.352,1.03,1.078,0.163,1.615l-4.268,2.629
					c-0.871,0.538-1.488,1.808-1.371,2.825l0.66,5.845c0.112,1.013-0.482,1.376-1.329,0.799l-5.543-3.794
					c-0.844-0.57-2.295-0.701-3.225-0.28l-5.806,2.629c-0.933,0.417-1.323,0.015-0.872-0.904l2.919-5.907
					c0.45-0.923,0.287-2.305-0.374-3.09l-4.08-4.84c-0.657-0.781-0.367-1.354,0.656-1.274L220.837,180.791z"/>
				<path fill="#211010" d="M231.849,199.279c-0.467,0-0.947-0.163-1.423-0.49l-5.544-3.791c-0.462-0.312-1.525-0.399-2.019-0.174
					l-5.81,2.629c-1.117,0.501-2.08,0.276-2.552-0.476c-0.244-0.396-0.433-1.079,0.067-2.095l2.92-5.911
					c0.233-0.472,0.128-1.344-0.214-1.75l-4.081-4.84c-0.89-1.056-0.636-1.928-0.482-2.254c0.145-0.32,0.628-1.053,1.905-1.053
					c0.029,0,0.235,0.007,0.27,0.014l6.045,0.476c0.762,0.116,1.59-0.393,1.946-0.842l2.876-3.606
					c1.187-1.485,3.26-1.14,3.924,0.625l1.38,3.696c0.232,0.621,1.039,1.423,1.66,1.648l4.971,1.819
					c0.914,0.337,1.483,0.98,1.564,1.768c0.079,0.792-0.345,1.536-1.174,2.052l-4.273,2.632c-0.461,0.283-0.856,1.096-0.795,1.634
					l0.661,5.846c0.108,0.958-0.206,1.54-0.49,1.858C232.844,199.072,232.369,199.279,231.849,199.279z M223.64,192.22
					c0.977,0,1.937,0.272,2.629,0.741l4.851,3.318l-0.555-5.011c-0.172-1.496,0.667-3.22,1.946-4.012l3.682-2.265l-4.317-1.591
					c-1.296-0.472-2.643-1.804-3.127-3.108l-1.304-3.489l-2.635,3.449c-0.817,1.028-2.407,1.776-3.776,1.776l0,0
					c-0.037,0-0.262-0.008-0.295-0.012l-4.943-0.392l3.363,4.008c0.979,1.162,1.21,3.061,0.542,4.426l-2.225,4.499l4.371-1.976
					C222.358,192.348,222.979,192.22,223.64,192.22z"/>
			</g>
			<g>
				<path fill="#FDB515" d="M220.837,180.791c1.016,0.08,2.371-0.505,3.006-1.304l2.872-3.602c0.639-0.799,1.449-0.671,1.812,0.287
					l1.375,3.693c0.356,0.958,1.438,2.033,2.394,2.378l4.968,1.819c0.957,0.352,1.03,1.078,0.163,1.615l-4.268,2.629
					c-0.871,0.538-1.488,1.808-1.371,2.825l0.66,5.845c0.112,1.013-0.482,1.376-1.329,0.799l-5.543-3.794
					c-0.844-0.57-2.295-0.701-3.225-0.28l-5.806,2.629c-0.933,0.417-1.323,0.015-0.872-0.904l2.919-5.907
					c0.45-0.923,0.287-2.305-0.374-3.09l-4.08-4.84c-0.657-0.781-0.367-1.354,0.656-1.274L220.837,180.791z"/>
				<path fill="#211010" d="M231.849,199.279c-0.467,0-0.947-0.163-1.423-0.49l-5.544-3.791c-0.462-0.312-1.525-0.399-2.019-0.174
					l-5.81,2.629c-1.117,0.501-2.08,0.276-2.552-0.476c-0.244-0.396-0.433-1.079,0.067-2.095l2.92-5.911
					c0.233-0.472,0.128-1.344-0.214-1.75l-4.081-4.84c-0.89-1.056-0.636-1.928-0.482-2.254c0.145-0.32,0.628-1.053,1.905-1.053
					c0.029,0,0.235,0.007,0.27,0.014l6.045,0.476c0.762,0.116,1.59-0.393,1.946-0.842l2.876-3.606
					c1.187-1.485,3.26-1.14,3.924,0.625l1.38,3.696c0.232,0.621,1.039,1.423,1.66,1.648l4.971,1.819
					c0.914,0.337,1.483,0.98,1.564,1.768c0.079,0.792-0.345,1.536-1.174,2.052l-4.273,2.632c-0.461,0.283-0.856,1.096-0.795,1.634
					l0.661,5.846c0.108,0.958-0.206,1.54-0.49,1.858C232.844,199.072,232.369,199.279,231.849,199.279z M223.64,192.22
					c0.977,0,1.937,0.272,2.629,0.741l4.851,3.318l-0.555-5.011c-0.172-1.496,0.667-3.22,1.946-4.012l3.682-2.265l-4.317-1.591
					c-1.296-0.472-2.643-1.804-3.127-3.108l-1.304-3.489l-2.635,3.449c-0.817,1.028-2.407,1.776-3.776,1.776l0,0
					c-0.037,0-0.262-0.008-0.295-0.012l-4.943-0.392l3.363,4.008c0.979,1.162,1.21,3.061,0.542,4.426l-2.225,4.499l4.371-1.976
					C222.358,192.348,222.979,192.22,223.64,192.22z"/>
			</g>
		</g>
		<g>
			<path fill="#44B1CB" d="M211.741,73.117c0,0-19.689-7.219-20.674,16.735c-0.982,23.955,38.062,30.517,47.583,17.718
				c16.403,17.062,29.202,0.328,29.202,0.328s26.576,28.219,42.328-4.266c24.281,2.627,28.223-24.36,6.564-31.537
				c8.532-18.011-4.925-30.479-20.676-19.323c-7.217-18.376-31.812-17.062-36.412-1.641c-4.93-18.705-29.871-9.515-31.181-0.329
				C228.477,50.802,204.521,50.802,211.741,73.117z"/>
			<path fill="#211010" d="M290.406,121.234c-9.984,0-18.975-7.274-22.463-10.496c-2.364,2.376-7.43,6.471-14.267,6.471
				c-5.097,0-10.116-2.281-14.938-6.784c-3.699,3.541-9.768,5.532-17.063,5.532c-10.291,0-20.422-3.893-26.434-10.16
				c-4.266-4.444-6.39-9.986-6.144-16.026c0.702-17.092,10.529-19.645,16.329-19.645c1.303,0,2.513,0.125,3.547,0.296
				c-1.206-5.65-0.474-10.355,2.199-14.028c4.321-5.938,12.389-7.214,15.77-7.487c2.099-5.657,10.645-10.622,18.891-10.622
				c6.251,0,11.141,2.801,13.938,7.835c3.429-5.472,9.678-8.814,16.998-8.814c6.894,0,15.545,3.348,20.162,12.554
				c3.606-2.157,7.271-3.288,10.708-3.288c4.775,0,8.91,2.211,11.354,6.067c3.037,4.802,3.155,11.395,0.385,18.333
				c10.689,4.424,14.434,13.603,13.296,20.634c-1.479,9.171-9.904,14.877-21.333,14.1
				C306.023,116.016,298.986,121.234,290.406,121.234z M267.852,105.933c0.539,0,1.058,0.221,1.433,0.615
				c0.102,0.107,10.282,10.75,21.123,10.75c7.271,0,13.329-4.887,18.005-14.525c0.359-0.748,1.13-1.199,1.982-1.099
				c9.804,1.064,17.202-3.32,18.396-10.692c0.976-6.058-2.562-13.67-12.666-17.02c-0.533-0.177-0.969-0.575-1.19-1.094
				c-0.221-0.518-0.21-1.107,0.029-1.618c3.035-6.401,3.294-12.416,0.709-16.502c-3.363-5.312-11.104-5.578-18.46-0.37
				c-0.494,0.348-1.122,0.456-1.703,0.279c-0.579-0.172-1.049-0.604-1.271-1.166c-3.545-9.03-11.35-12.246-17.467-12.246
				c-7.357,0-13.334,4.101-15.229,10.447c-0.25,0.846-1.026,1.401-1.917,1.407c-0.883-0.014-1.646-0.613-1.869-1.467
				c-2.052-7.775-7.614-9.407-11.921-9.407c-7.487,0-14.854,4.951-15.412,8.856c-0.139,0.967-0.966,1.686-1.946,1.69
				c-0.098,0-9.879,0.098-14.129,5.953c-2.38,3.29-2.631,7.926-0.736,13.786c0.232,0.713,0.037,1.498-0.505,2.021
				c-0.536,0.523-1.328,0.692-2.04,0.436c-0.021-0.008-2.534-0.903-5.638-0.903c-7.789,0-11.961,5.338-12.393,15.869
				c-0.207,5.015,1.488,9.435,5.047,13.138c5.218,5.435,14.476,8.948,23.594,8.948c7.021,0,12.775-2.102,15.39-5.624
				c0.349-0.464,0.879-0.753,1.46-0.789c0.566-0.037,1.14,0.183,1.543,0.601c4.506,4.688,9.088,7.065,13.608,7.065
				c7.45,0,12.563-6.506,12.612-6.572c0.351-0.456,0.887-0.737,1.46-0.766C267.786,105.935,267.816,105.933,267.852,105.933z"/>
		</g>
		<g>
			<path fill="#FFEFD3" d="M366.66,60.717c0,0,43.894,12.201,29.187,46.439c-12.343,28.714-32.09,35.395-78.587,16.165
				c2.731,14.898,43.218,61.29,82.229,35.776c39.017-25.514,41.261-75.622,19.708-95.657
				C402.798,48.196,379.62,50.196,366.66,60.717z"/>
			<path fill="#211010" d="M375.227,168.464h-0.005c-31.013,0-57.409-31.889-59.776-44.812c-0.123-0.664,0.127-1.345,0.653-1.77
				c0.526-0.425,1.241-0.53,1.869-0.271c17.523,7.248,31.246,10.773,41.947,10.773c16.175,0,26.414-7.763,34.229-25.959
				c3.62-8.416,3.8-16.137,0.542-22.942c-7.108-14.861-28.307-20.928-28.521-20.987c-0.668-0.187-1.172-0.728-1.314-1.403
				c-0.142-0.677,0.108-1.376,0.644-1.81c6.826-5.541,16.209-8.716,25.747-8.716c10.844,0,21.222,4.091,29.212,11.52
				c10.218,9.498,15.435,25.537,13.957,42.905c-1.916,22.527-14.275,42.812-33.911,55.651
				C392.567,165.832,384.062,168.464,375.227,168.464z M320.223,126.514c5.516,12.777,28.328,38.254,54.999,38.254
				c8.112,0,15.933-2.426,23.256-7.218c18.679-12.214,30.435-31.483,32.254-52.872c1.383-16.244-3.403-31.154-12.792-39.884
				c-9.363-8.704-19.687-10.531-26.696-10.531c-7.44,0-14.752,2.098-20.576,5.838c6.738,2.487,21.287,9.124,27.347,21.772
				c3.747,7.813,3.588,16.566-0.472,26.011c-8.376,19.501-19.985,28.197-37.626,28.197
				C349.49,136.081,336.479,132.948,320.223,126.514z"/>
		</g>
		<g>
			<g>
				<g>
					<path fill="#F4BE78" d="M188.479,247.536c0,0,2.935,8.478-6.578,12.603c-9.514,4.127,10.224,55.235,10.224,55.235
						l33.267-25.688L250,271.292l-9.911-11.896c0,0-10.795-0.104-6.659-10.333c4.132-10.22-14.259-25.637-14.259-25.637
						L188.479,247.536z"/>
				</g>
				<g>
					<path fill="#211010" d="M192.124,317.523c-0.191,0-0.385-0.025-0.576-0.076c-0.654-0.186-1.185-0.665-1.428-1.301
						c-0.051-0.131-5.011-13.022-8.743-26.262c-7.09-25.164-3.902-30.172-0.333-31.718c7.6-3.293,5.497-9.658,5.401-9.927
						c-0.297-0.868-0.019-1.827,0.705-2.394l30.69-24.112c0.8-0.627,1.929-0.613,2.709,0.044
						c2.008,1.681,19.458,16.745,14.872,28.092c-0.951,2.353-1.042,4.134-0.271,5.293c1.113,1.67,4.026,2.073,4.959,2.084
						c0.628,0.003,1.228,0.286,1.626,0.772l9.912,11.896c0.379,0.45,0.557,1.041,0.483,1.626c-0.065,0.586-0.374,1.118-0.847,1.471
						l-24.605,18.394l-33.24,25.671C193.058,317.372,192.596,317.523,192.124,317.523z M190.904,248.368
						c0.696,3.946-0.305,10.34-8.147,13.741c-3.921,1.699,0.9,24.633,10.348,49.793l30.971-23.918l22.824-17.06l-7.877-9.45
						c-1.821-0.195-5.47-0.963-7.449-3.93c-1.608-2.41-1.655-5.531-0.139-9.288c2.673-6.604-7.028-17.238-12.338-22.042
						L190.904,248.368z"/>
				</g>
			</g>
			<g>
				<path fill="#FAE0EA" d="M164.573,255.443c0,0-45.297,4.506-78.258,49.564l45.236,41.463l-2.025,71.795h156.978v-73.414
					l44.812-39.43c-28.651-44.225-79.592-49.4-79.592-49.4l-13.082,2.562c0,0-3.116,26.771-30.495,22.982
					c-27.376-3.787-26.629-23.426-26.629-23.426L164.573,255.443z"/>
				<path fill="#211010" d="M286.504,420.422H129.526c-0.585,0-1.137-0.24-1.539-0.652c-0.408-0.422-0.629-0.98-0.611-1.563
					l2.002-70.813l-44.519-40.801c-0.806-0.742-0.925-1.969-0.279-2.851c33.149-45.31,77.893-50.25,79.78-50.439
					c0.182-0.018,0.37-0.011,0.552,0.019l16.944,2.701c1.074,0.172,1.852,1.115,1.812,2.205
					c-0.021,0.715-0.221,17.758,24.773,21.217c1.662,0.229,3.285,0.346,4.822,0.346c20.431,0,23.138-20.582,23.244-21.457
					c0.108-0.928,0.806-1.674,1.721-1.859l13.083-2.561c0.205-0.047,0.418-0.059,0.631-0.032
					c0.521,0.056,52.299,5.804,81.179,50.374c0.577,0.898,0.418,2.081-0.385,2.782l-44.083,38.782v72.447
					C288.652,419.456,287.689,420.422,286.504,420.422z M131.736,416.124h152.618v-71.272c0-0.615,0.267-1.205,0.729-1.611
					l43.406-38.193c-26.799-39.744-72.521-46.33-76.679-46.85l-11.314,2.211c-1.157,5.533-6.538,23.677-27.233,23.677
					c-1.737,0-3.551-0.131-5.41-0.385c-14.984-2.073-21.935-8.841-25.129-14.153c-2.291-3.814-3.024-7.429-3.253-9.553
					l-14.941-2.381c-3.656,0.465-44.749,6.561-75.335,47.123l43.809,40.152c0.461,0.42,0.716,1.023,0.697,1.641L131.736,416.124z"/>
			</g>
			<g>
				<path fill="#E587AC" d="M198.539,292.84c0,3.033-2.458,5.491-5.488,5.491c-3.036,0-5.49-2.458-5.49-5.491
					c0-3.031,2.454-5.488,5.49-5.488C196.081,287.352,198.539,289.809,198.539,292.84z"/>
			</g>
			<g>
				<g>
					<path fill="#F4BE78" d="M152.143,156.188c0,0-11.184,17.53-11.325,29.708c-0.148,12.177,14.062,10.823,14.062,10.823
						s-5.141,41.758,30.405,50.094c35.549,8.352,72.038,8.664,91.431-43.13c13.485-4.328,12.854-15.889,12.854-15.889
						s0.004-7.16-5.178-9.026c-5.143-1.855-49.439-62.66-49.439-62.66l-40.042,3.816L152.143,156.188z"/>
				</g>
				<g>
					<path fill="#211010" d="M215.964,253.127c-9.012,0-18.915-1.34-31.169-4.223c-31.887-7.476-32.656-40.702-32.225-50.014
						c-2.977-0.138-7.505-0.919-10.63-4.085c-2.215-2.244-3.315-5.25-3.276-8.936c0.153-12.646,11.195-30.103,11.666-30.84
						c0.113-0.182,0.259-0.34,0.421-0.482l42.769-36.263c0.336-0.283,0.748-0.458,1.184-0.501l40.039-3.816
						c0.77-0.062,1.496,0.261,1.946,0.875c16.611,22.803,44.478,59.787,48.517,61.939c6.442,2.32,6.512,10.66,6.508,11.016
						c0.009,0.011,0.527,12.559-13.346,17.591C266.062,237.507,245.638,253.127,215.964,253.127z M154.876,194.573
						c0.578,0,1.136,0.232,1.543,0.65c0.455,0.469,0.672,1.111,0.592,1.757c-0.01,0.102-1.193,10.261,1.85,21.211
						c3.981,14.35,13.037,23.273,26.914,26.531c11.924,2.803,21.52,4.106,30.189,4.106c28.354,0,47.013-14.585,58.736-45.897
						c0.231-0.617,0.729-1.093,1.358-1.293c11.771-3.779,11.366-13.626,11.363-13.724c-0.008-0.168-0.084-5.799-3.759-7.124
						c-5.231-1.888-38.468-46.99-49.727-62.428L195.787,122l-42.001,35.611c-1.372,2.215-10.697,17.678-10.823,28.31
						c-0.029,2.531,0.636,4.448,2.033,5.864c2.523,2.552,6.888,2.832,8.644,2.832h0.005c0.605,0,0.992-0.033,1.035-0.036
						C154.746,194.573,154.808,194.573,154.876,194.573z"/>
				</g>
			</g>
			<g>
				<path fill="#4C230D" d="M257.907,156.49c-4.423,8.242,18.582,30.811,25.347,28.865c6.766-1.95,6.623-8.012,1.623-47.509
					c-5.003-39.488-48.696-45.314-72.006-39.183c-38.414-11.105-65.806,20.608-66.521,45.003
					c-17.425,17.733,0.715,34.246,0.715,34.246s8.367,10.936,13.311,3.515c4.938-7.425,7.681-24.188,3.791-28.6
					c13.547,0.886,20.249-6.274,20.064-12.773c11.506,6.721,23.328,7.316,39.562-4.204
					C223.793,135.849,250.061,160.712,257.907,156.49z"/>
				<path fill="#28140F" d="M282.343,187.624c-6.563,0-18.764-10.987-24.146-19.98c-1.956-3.268-2.959-6.125-3.006-8.54
					c-9.294-0.603-26.455-15.769-31.596-20.503c-8.354,5.656-15.981,8.409-23.279,8.409c-4.765,0-9.485-1.173-14.354-3.58
					c-0.577,2.105-1.731,4.099-3.401,5.816c-3.431,3.533-8.732,5.57-15.021,5.788c1.968,7.606-1.256,21.389-5.377,27.579
					c-1.945,2.93-4.347,3.544-6.013,3.544c-5.061,0-9.752-5.621-10.674-6.79c-1.177-1.122-8.544-8.533-8.83-18.75
					c-0.176-6.313,2.378-12.319,7.589-17.856c1.176-23.132,22.986-48.533,53.048-48.533c5.121,0,10.367,0.741,15.617,2.206
					c5.217-1.311,11.146-2.002,17.21-2.002c24.865,0,52.873,11.335,56.898,43.145c4.936,38.958,5.667,47.298-3.158,49.847
					C283.382,187.559,282.877,187.624,282.343,187.624z M257.907,154.34c0.557,0,1.108,0.218,1.518,0.628
					c0.673,0.671,0.828,1.703,0.378,2.538c-0.799,1.492-0.039,4.383,2.08,7.93c5.312,8.874,16.383,17.889,20.46,17.889
					c0.164,0,0.261-0.018,0.315-0.033c4.92-1.42,4.932-6.91,0.087-45.178c-3.679-29.038-29.603-39.384-52.635-39.384
					c-5.922,0-11.691,0.695-16.691,2.01c-0.374,0.096-0.77,0.089-1.144-0.015c-5.048-1.459-10.094-2.198-14.992-2.198
					c-19.819,0-47.966,17.195-48.786,45.2c-0.015,0.542-0.236,1.056-0.613,1.441c-4.754,4.84-7.092,9.996-6.943,15.329
					c0.258,9.059,7.502,15.757,7.575,15.823c0.094,0.087,0.182,0.182,0.261,0.284c1.558,2.029,4.941,5.253,7.374,5.253
					c0.582,0,1.466-0.167,2.437-1.627c4.876-7.33,6.716-22.867,3.969-25.982c-0.578-0.653-0.705-1.587-0.32-2.371
					c0.385-0.777,1.191-1.26,2.07-1.195c6.684,0.439,12.011-1.179,15.177-4.433c1.739-1.79,2.664-3.968,2.603-6.133
					c-0.024-0.781,0.379-1.514,1.05-1.913c0.676-0.396,1.512-0.4,2.178-0.008c5.201,3.035,10.108,4.514,15.004,4.514
					c6.793,0,14.064-2.818,22.235-8.616c0.835-0.592,1.974-0.516,2.719,0.192c6.038,5.711,23.276,20.536,30.48,20.536l0,0
					c0.479,0,0.86-0.077,1.14-0.225C257.211,154.424,257.559,154.34,257.907,154.34z"/>
			</g>
			<g>
				<path fill="#FFFFFF" d="M189.448,319.059"/>
			</g>
			<g>
				<path fill="#F7EAA6" d="M375.037,293.448c0,0-61.572-29.414-112.031-15.158c-50.466,14.257-59.02,27.59-59.02,27.59
					l9.981,42.545l106.623,7.987L375.037,293.448z"/>
				<path fill="#010101" d="M320.591,358.561c-0.052,0-0.105,0-0.16-0.009l-106.626-7.985c-0.933-0.065-1.717-0.733-1.932-1.648
					l-9.977-42.547c-0.135-0.566-0.033-1.163,0.283-1.65c0.366-0.572,9.575-14.186,60.238-28.5
					c9.35-2.636,19.727-3.979,30.836-3.979c41.885,0,82.305,19.075,82.711,19.269c0.604,0.284,1.038,0.842,1.177,1.498
					c0.137,0.657-0.041,1.342-0.479,1.846l-54.443,62.959C321.805,358.292,321.211,358.561,320.591,358.561z M215.7,346.404
					l103.971,7.785l51.853-59.961c-9.458-4.105-43.386-17.689-78.271-17.689c-10.715,0-20.696,1.284-29.667,3.814
					c-42.331,11.963-54.729,23.285-57.265,26.065L215.7,346.404z"/>
			</g>
			<g>
				<path fill="#F7EAA6" d="M39.25,294.766c0,0,56.676-30.731,107.138-16.477c50.465,14.257,59.019,27.59,59.019,27.59
					l-9.981,42.545L88.8,356.412L39.25,294.766z"/>
				<path fill="#010101" d="M88.8,358.561c-0.646,0-1.264-0.299-1.678-0.806l-49.546-61.646c-0.399-0.5-0.559-1.142-0.432-1.768
					c0.123-0.628,0.518-1.165,1.081-1.469c0.382-0.208,38.305-20.504,79.425-20.504c10.404,0,20.271,1.293,29.322,3.849
					c50.667,14.315,59.871,27.929,60.242,28.501c0.312,0.487,0.413,1.084,0.282,1.65l-9.978,42.547
					c-0.214,0.915-0.997,1.583-1.932,1.648L88.96,358.552C88.908,358.561,88.854,358.561,88.8,358.561z M42.582,295.477
					l47.183,58.705l103.928-7.777l9.379-39.99c-2.497-2.741-14.871-14.078-57.269-26.061c-8.67-2.445-18.143-3.688-28.152-3.688
					C83.342,276.666,51.289,291.195,42.582,295.477z"/>
			</g>
			<g>
				<path fill="#F15B2B" d="M225.695,318.38c0,0-1.649-13.571-18.184-12.435c-16.534,1.142-14.371,13.931-14.371,13.931
					l12.664,14.011L225.695,318.38z"/>
				<path fill="#010101" d="M205.548,336.807l-14.419-15.953l-0.104-0.617c-0.039-0.235-0.926-5.752,2.752-10.422
					c2.804-3.56,7.375-5.582,13.59-6.012c18.408-1.287,20.441,14.168,20.46,14.315l0.149,1.21L205.548,336.807z M195.214,318.961
					l10.846,11.999l17.254-13.452c-0.795-2.9-4.041-10.189-15.652-9.421c-4.949,0.347-8.485,1.819-10.508,4.388
					C195.24,314.902,195.152,317.773,195.214,318.961z"/>
			</g>
			<g>
				<path fill="#019547" d="M34.925,296.537c0,0,64.716-31.648,154.523,22.521l7.41,141.701l-124.3-30.797
					C72.558,429.963,31.505,305.375,34.925,296.537z"/>
				<path fill="#010101" d="M199.157,463.542L70.889,431.766l-0.37-1.126C63.624,409.711,29.4,304.855,32.922,295.759l0.305-0.782
					l0.755-0.371c0.784-0.385,19.603-9.404,51.118-9.404c34.754,0,70.237,10.773,105.46,32.021l0.977,0.586L199.157,463.542z
					 M74.229,428.164l120.332,29.807l-7.199-137.654c-34.226-20.448-68.623-30.819-102.262-30.819
					c-26.64,0-44.129,6.762-48.279,8.549C36.251,308.273,59.022,381.95,74.229,428.164z"/>
			</g>
			<g>
				<path fill="#019547" d="M383.962,296.537c0,0-64.716-31.648-154.523,22.521l-7.41,141.701l124.304-30.797
					C346.332,429.963,387.386,305.375,383.962,296.537z"/>
				<path fill="#010101" d="M219.733,463.542l7.62-145.733l0.977-0.584c35.225-21.25,70.706-32.022,105.46-32.022
					c31.513,0,50.332,9.021,51.115,9.405l0.76,0.369l0.301,0.783c3.525,9.098-30.697,113.952-37.593,134.881l-0.37,1.126
					L219.733,463.542z M231.526,320.314l-7.2,137.655l120.335-29.807c15.196-46.185,37.949-119.802,37.401-130.119
					c-4.172-1.787-21.716-8.549-48.272-8.549C300.147,289.496,265.751,299.867,231.526,320.314z"/>
			</g>
			<g>
				<path fill="#046938" d="M188.773,321.057c0,0,23.387-10.578,39.917-0.586c5.032,12.115-6.409,140.049-6.409,140.049
					s-13.553,11.925-26.095,0.24C192.306,451.465,188.773,321.057,188.773,321.057z"/>
				<path fill="#010101" d="M208.372,468.045c-4.992,0-9.581-1.927-13.655-5.716l-0.334-0.32l-0.182-0.422
					c-3.918-9.389-7.214-127.087-7.574-140.473l-0.04-1.427l1.301-0.594c0.458-0.207,11.354-5.063,23.771-5.063
					c6.984,0,13.088,1.549,18.143,4.604l0.603,0.365l0.269,0.651c5.091,12.25-5.072,127.915-6.248,141.064l-0.077,0.856
					l-0.646,0.565C223.43,462.38,216.894,468.045,208.372,468.045z M198.028,459.527c3.147,2.803,6.627,4.21,10.344,4.21
					c5.516,0,10.192-3.077,11.852-4.319c4.469-50.163,9.778-126.346,6.691-137.488c-4.249-2.39-9.374-3.604-15.256-3.604
					c-9.122,0-17.552,2.922-20.696,4.152C192.371,373.852,195.352,450.732,198.028,459.527z"/>
			</g>
			<g>
				<path fill="#FBB041" d="M341.083,365.117c-0.6,18.976-15.418,33.92-33.092,33.359l-24.449-0.77
					c-17.672-0.559-31.517-16.41-30.92-35.387l0.228-7.166c0.6-18.979,15.418-33.916,33.088-33.354l24.454,0.771
					c17.675,0.562,31.516,16.406,30.916,35.382L341.083,365.117z"/>
				<path fill="#010101" d="M308.96,399.922c-0.337,0-0.676-0.007-1.013-0.021l-24.454-0.771
					c-18.433-0.58-32.923-17.106-32.304-36.858l0.229-7.16c0.624-19.853,15.906-35.441,34.565-34.745l24.452,0.776
					c18.435,0.582,32.926,17.112,32.301,36.859l-0.227,7.158C341.899,384.652,327.16,399.922,308.96,399.922z M284.979,323.217
					c-16.649,0-30.131,14.053-30.697,31.988l-0.225,7.159c-0.574,18.161,12.674,33.376,29.528,33.905l24.452,0.77
					c16.992,0.595,31.038-13.702,31.614-31.975l0.226-7.159c0.572-18.16-12.676-33.369-29.534-33.901l-24.448-0.773
					C285.585,323.219,285.284,323.217,284.979,323.217z"/>
			</g>
			<g>
				<path fill="#E587AC" d="M169.834,271.766c0,3.026-2.458,5.488-5.488,5.488c-3.036,0-5.491-2.462-5.491-5.488
					c0-3.041,2.455-5.498,5.491-5.498C167.376,266.268,169.834,268.725,169.834,271.766z"/>
			</g>
			<g>
				<path fill="#E587AC" d="M260.979,271.766c0,3.026-2.457,5.488-5.49,5.488c-3.034,0-5.489-2.462-5.489-5.488
					c0-3.041,2.455-5.498,5.489-5.498C258.521,266.268,260.979,268.725,260.979,271.766z"/>
			</g>
			<g>
				<g>
					<path fill="#F4BE78" d="M50.912,365.023c0,0,18.222-5.853,21.563,9.025c2.704,12.047,5.429,27.943-8.188,31.844
						C50.673,409.797,34.253,379.836,50.912,365.023z"/>
				</g>
				<g>
					<path fill="#211010" d="M61.805,408.391c-6.961,0-14.353-6.651-17.974-16.158c-3.267-8.6-3.499-20.68,5.65-28.82
						c0.226-0.197,0.486-0.35,0.773-0.444c0.156-0.043,3.899-1.233,8.423-1.233c8.537,0,14.183,4.214,15.896,11.846
						c2.164,9.643,6.667,29.689-9.693,34.375C63.885,408.245,62.85,408.391,61.805,408.391z M51.991,366.947
						c-9.022,8.4-5.466,20.275-4.145,23.754c3.326,8.729,10.349,14.703,15.849,13.121c10.341-2.956,10.152-13.854,6.686-29.301
						c-1.269-5.635-5.204-8.487-11.703-8.487C55.635,366.034,52.983,366.671,51.991,366.947z"/>
				</g>
			</g>
			<g>
				<g>
					<path fill="#F4BE78" d="M377.135,349.811c0,0-18.226-5.846-21.564,9.041c-2.702,12.037-5.427,27.929,8.188,31.834
						C377.376,394.584,393.794,364.631,377.135,349.811z"/>
				</g>
				<g>
					<path fill="#211010" d="M366.243,393.184h-0.004c-1.041,0-2.076-0.146-3.075-0.429c-16.354-4.69-11.854-24.739-9.694-34.377
						c1.718-7.64,7.36-11.851,15.896-11.851c4.522,0,8.271,1.184,8.427,1.242c0.286,0.088,0.549,0.239,0.773,0.435
						c9.148,8.142,8.916,20.226,5.646,28.813C380.596,386.539,373.203,393.184,366.243,393.184z M369.366,350.827
						c-6.5,0-10.437,2.862-11.699,8.495c-3.464,15.438-3.655,26.33,6.681,29.301c0.613,0.169,1.25,0.263,1.893,0.263h0.004
						c5.135,0,11.001-5.636,13.953-13.391c1.32-3.479,4.884-15.351-4.141-23.752C375.056,351.466,372.387,350.827,369.366,350.827z"
						/>
				</g>
			</g>
		</g>
	</g>
</g>
</svg>
