<?xml version="1.0" encoding="utf-8"?>
<!-- Generator: Adobe Illustrator 16.0.0, SVG Export Plug-In . SVG Version: 6.00 Build 0)  -->
<!DOCTYPE svg PUBLIC "-//W3C//DTD SVG 1.1//EN" "http://www.w3.org/Graphics/SVG/1.1/DTD/svg11.dtd">
<svg version="1.1" id="Layer_1" xmlns="http://www.w3.org/2000/svg" xmlns:xlink="http://www.w3.org/1999/xlink" x="0px" y="0px"
	 width="500px" height="500px" viewBox="0 0 500 500" enable-background="new 0 0 500 500" xml:space="preserve">
<g id="Layer_1_copy_61">
	<g>
		<g>
			<path fill="#4E4E4E" d="M440.901,292.865c0,46.988-86.536,85.078-193.28,85.078s-193.28-38.09-193.28-85.078
				c0-46.991,86.536-85.083,193.28-85.083S440.901,245.874,440.901,292.865z"/>
			<path fill="#3C2517" d="M247.621,380.277c-51.944,0-100.817-8.92-137.612-25.117c-37.401-16.463-58-38.584-58-62.295
				c0-23.707,20.599-45.835,58-62.299c36.795-16.198,85.668-25.119,137.612-25.119s100.813,8.921,137.609,25.119
				c37.406,16.464,58.007,38.592,58.007,62.299c0,23.711-20.601,45.832-58.007,62.295
				C348.436,371.357,299.565,380.277,247.621,380.277z M247.621,210.116c-105.286,0-190.944,37.123-190.944,82.749
				c0,45.625,85.658,82.742,190.944,82.742s190.945-37.117,190.945-82.742C438.566,247.239,352.907,210.116,247.621,210.116z"/>
		</g>
		<g>
			<path fill="#818181" d="M231.779,173.266c74.432-3.546,140.674,12.088,184.276,43.204c24.607,17.561,53.362,52.973,35.269,95.227
				c-3.43,8.008-8.011,16.838-14.105,23.807c-57.698,65.963-220.113,80.41-316.535,38.795
				c-33.108-14.291-60.896-33.346-73.186-60.842c-21.775-48.738,16.692-86.245,46.732-104.042
				c22.912-13.567,51.309-24.627,83.764-30.858C194.342,175.415,213.032,174.157,231.779,173.266z M178.871,213.824
				c-32.405,6.49-59.706,16.721-81.994,34.386c-8.613,6.833-22.08,22.396-22.047,37.031c0.043,17.26,13.45,29.291,24.693,37.911
				c58.292,44.73,178.618,53.179,258.34,22.933c24.404-9.265,66.13-30.235,66.13-60.844c0-17.618-14.076-31.031-27.334-40.559
				c-40.462-29.07-100.099-40.073-163.998-37.03C213.003,208.59,195.664,210.463,178.871,213.824z"/>
			<path fill="#3C2517" d="M248.694,400.035c-47.89,0-93.679-8.377-128.937-23.596c-38.905-16.789-63.24-37.082-74.392-62.031
				c-10.044-22.479-8.676-44.607,4.065-65.777c12.525-20.812,32.7-34.76,43.609-41.223c24.385-14.442,53.61-25.21,84.512-31.143
				c16.753-3.22,35.907-4.464,54.117-5.331c6.921-0.33,13.888-0.497,20.708-0.497c66.544,0,125.153,15.674,165.036,44.133
				c28.896,20.622,53.544,57.208,36.056,98.047c-4.432,10.348-9.176,18.34-14.493,24.422
				C404.984,375.898,332.073,400.035,248.694,400.035z M252.378,175.106c-6.741,0-13.639,0.164-20.489,0.492
				c-18.034,0.856-36.993,2.087-53.455,5.251c-30.381,5.832-59.086,16.405-83.011,30.575
				C28.69,250.956,43.498,298.787,49.63,312.503c10.647,23.832,34.194,43.343,71.977,59.651
				c34.688,14.968,79.825,23.212,127.088,23.212c82.074,0,153.637-23.527,186.765-61.4c4.995-5.713,9.484-13.297,13.722-23.188
				c16.396-38.291-7.062-72.84-34.482-92.407C375.604,190.471,317.958,175.106,252.378,175.106z M250.514,366.298
				c-0.007,0-0.007,0-0.011,0c-61.736,0-118.706-15.438-152.403-41.293c-12.636-9.69-25.559-21.993-25.602-39.758
				c-0.04-16.327,14.98-32.56,22.928-38.865c20.996-16.642,47.366-27.715,82.991-34.847c16.263-3.255,33.466-5.229,54.131-6.215
				c6.857-0.326,13.725-0.492,20.407-0.492c60.339,0,110.504,13.126,145.069,37.961c19.042,13.688,28.301,27.572,28.301,42.452
				c0,33.711-47.296,55.309-67.634,63.026C327.602,360.066,290.189,366.298,250.514,366.298z M252.955,209.498
				c-6.609,0-13.397,0.164-20.182,0.487c-20.43,0.974-37.411,2.92-53.441,6.128c-34.87,6.982-60.61,17.763-81.008,33.925
				c-8.521,6.764-21.188,21.713-21.155,35.194c0.033,15.742,12.042,27.066,23.772,36.066c32.909,25.252,88.819,40.326,149.562,40.33
				c0.004,0,0.007,0,0.011,0c38.562,0,76.393-6.297,106.525-17.727c19.426-7.379,64.618-27.859,64.618-58.662
				c0-13.27-8.623-25.915-26.359-38.662C361.534,222.322,312.31,209.498,252.955,209.498z"/>
		</g>
	</g>
	<g>
		<path fill="#8F201D" d="M156.308,263.986c0,0-0.265-0.295-0.712-0.818c-4.161-4.831-24.16-29.369,2.17-25.155
			c29.183,4.669,21.888,7.881,40.562,7.588c18.678-0.292,9.63-5.838,21.596-6.127c11.966-0.293,29.766-10.215,36.186-7.588
			c6.42,2.627,22.18,7.877,28.892,10.796s45.521,16.544,16.925,19.505c-28.599,2.965-46.984,4.131-56.611,9.678
			c-9.631,5.543-11.092,4.959-35.895,10.504c-24.803,5.545-36.185,12.553-42.605,2.189
			C160.393,274.2,156.308,263.986,156.308,263.986z"/>
		<path fill="#3C2517" d="M176.546,292.218c-5.277,0-9.001-2.043-11.718-6.426c-5.83-9.413-9.713-18.567-10.531-20.556
			c-0.126-0.144-0.284-0.323-0.477-0.549c-5.479-6.369-14.209-18.082-11.068-24.931c1.855-4.046,6.904-5.408,15.385-4.048
			c13.788,2.205,19.525,4.085,23.716,5.456c4.539,1.486,6.904,2.257,16.441,2.101c9.455-0.147,10.922-1.6,12.214-2.882
			c1.772-1.754,3.581-3.104,9.359-3.245c5.237-0.129,11.796-2.264,18.137-4.328c5.844-1.905,11.363-3.704,15.418-3.704
			c1.393,0,2.559,0.202,3.571,0.616c2.796,1.145,7.427,2.808,12.333,4.57c6.291,2.256,12.794,4.591,16.604,6.246
			c0.754,0.33,1.922,0.793,3.35,1.365c16.988,6.778,26.056,11.444,25.327,16.685c-0.576,4.142-6.615,5.317-12.442,5.925
			c-3.671,0.375-7.176,0.727-10.516,1.062c-22.407,2.245-37.213,3.729-45.173,8.312c-7.977,4.59-10.736,5.184-23.997,8.023
			c-3.39,0.727-7.48,1.607-12.549,2.738c-5.977,1.336-11.154,2.754-15.72,4.004C186.938,290.643,181.193,292.218,176.546,292.218z
			 M152.396,239.863c-2.08,0-4.701,0.321-5.399,1.842c-1.392,3.033,2.872,11.23,10.365,19.943c0.417,0.483,0.666,0.756,0.676,0.77
			c0.186,0.207,0.335,0.441,0.438,0.697c0.04,0.104,4.091,10.16,10.319,20.215c1.858,2.994,4.104,4.217,7.752,4.217
			c4.019,0,9.494-1.498,16.432-3.395c4.614-1.266,9.849-2.703,15.931-4.062c5.089-1.138,9.192-2.018,12.589-2.745
			c12.973-2.777,15.308-3.277,22.649-7.505c8.825-5.085,24.027-6.606,47.038-8.907c3.33-0.334,6.83-0.687,10.498-1.068
			c6.014-0.619,7.77-1.619,8.223-1.984c-0.702-1.562-5.3-4.836-22.354-11.637c-1.487-0.594-2.698-1.077-3.481-1.42
			c-3.67-1.595-10.1-3.904-16.317-6.135c-4.956-1.779-9.638-3.458-12.526-4.642c-0.437-0.179-1.039-0.27-1.802-0.27
			c-3.316,0-8.49,1.686-13.974,3.472c-6.658,2.17-13.546,4.414-19.469,4.555c-4.38,0.109-5.135,0.86-6.186,1.897
			c-2.318,2.301-4.929,4.071-15.427,4.235c-10.399,0.162-13.126-0.747-17.969-2.334c-4.042-1.321-9.577-3.137-23.001-5.284
			C155.513,240.017,153.827,239.863,152.396,239.863z"/>
	</g>
	<g>
		<path fill="#8F201D" d="M392.095,219.045c0,0-9.047-4.085-20.722,3.793c-11.671,7.879-35.891,17.801-36.77,28.307
			c-0.873,10.504-11.671,22.762-19.257,23.639c-7.59,0.875-26.847,6.42-32.393,19.258c-5.546,12.842-22.179,23.346-28.304,23.637
			c-6.133,0.295-18.97,8.463-11.383,14.883c7.588,6.42,18.969,1.752,33.558-2.627c14.593-4.373,18.678-7.293,22.763-16.922
			c4.088-9.633,9.627-14.303,28.013-13.133c18.387,1.168,35.312,2.043,45.815-9.922c10.505-11.964,12.546-14.008,18.678-25.096
			c6.125-11.09,12.837-18.967,13.423-25.972C406.101,231.886,404.932,221.964,392.095,219.045z"/>
		<path fill="#3C2517" d="M252.713,338.048c-4.423,0-8.007-1.211-10.952-3.702c-2.829-2.396-3.803-5.425-2.743-8.537
			c1.941-5.734,10.621-10.228,15.521-10.461c4.938-0.236,21.029-10.082,26.273-22.232c6.194-14.346,27.348-19.854,34.268-20.652
			c6.427-0.74,16.408-11.99,17.2-21.51c0.745-8.932,13.877-16.298,26.581-23.417c4.201-2.354,8.166-4.578,11.207-6.63
			c5.092-3.438,10.567-5.252,15.839-5.252c3.646,0,6.115,0.848,6.902,1.161c7.604,1.787,16.297,7.111,15.03,22.27
			c-0.442,5.343-3.763,10.642-7.967,17.347c-1.882,2.995-3.819,6.092-5.738,9.559c-5.859,10.604-8.23,13.306-17.061,23.343
			l-1.904,2.168c-8.779,9.998-21.328,11.351-32.438,11.351h-0.004c-4.786,0-9.75-0.291-15.271-0.644
			c-1.789-0.11-3.482-0.17-5.029-0.17c-13.225,0-17.342,4.002-20.688,11.887c-4.602,10.843-9.825,13.927-24.242,18.248
			c-1.67,0.502-3.297,1.004-4.884,1.5C265.036,336.02,258.486,338.048,252.713,338.048z M385.906,220.321
			c-4.396,0-8.85,1.497-13.226,4.452c-3.203,2.163-7.252,4.433-11.538,6.836c-10.545,5.913-23.674,13.27-24.213,19.73
			c-0.932,11.216-12.089,24.7-21.317,25.763c-7.828,0.902-25.589,6.463-30.515,17.866c-6.01,13.921-23.514,24.716-30.338,25.041
			c-3.761,0.181-10.167,3.894-11.323,7.302c-0.288,0.844-0.397,2.004,1.338,3.471c2.101,1.775,4.621,2.598,7.938,2.598
			c5.068,0,11.305-1.932,18.52-4.168c1.597-0.498,3.24-1.006,4.926-1.512c14.129-4.24,17.512-6.719,21.281-15.602
			c4.268-10.054,10.53-15.814,30.312-14.55c5.442,0.347,10.325,0.634,14.977,0.634c14.271,0,22.929-2.923,28.935-9.767l1.908-2.168
			c8.778-9.983,10.865-12.354,16.48-22.515c1.979-3.58,4.041-6.873,5.863-9.779c3.869-6.172,6.927-11.046,7.278-15.257
			c0.809-9.731-2.991-15.413-11.618-17.374c-0.149-0.035-0.298-0.084-0.44-0.149C391.131,221.17,389.13,220.321,385.906,220.321z"/>
	</g>
	<g>
		<path fill="#8F201D" d="M107.282,263.109c0,0-18.383-14.881-35.308-12.84c-16.925,2.043-30.935,3.793-34.142,2.627
			c-3.213-1.168-18.969-7.002-16.928,7.879c2.044,14.883,3.796,17.51,23.64,21.885c19.844,4.379,21.589,1.752,23.929,6.42
			c2.332,4.67,0.288,3.795,9.047,6.422c8.752,2.627,9.229,8.754,14.536,16.342c5.308,7.586,10.558,4.668,23.981,7.586
			c13.42,2.918,27.138-0.877,40.27,3.502c13.132,4.379,31.807,9.629,31.515,0c-0.291-9.629,4.671-8.172-5.546-18.383
			c-10.213-10.213-12.837-17.51-23.637-17.801c-10.796-0.295-37.06-10.162-39.392-14.271
			C116.912,268.361,107.282,263.109,107.282,263.109z"/>
		<path fill="#3C2517" d="M180.156,330.693L180.156,330.693c-7.122,0-17.444-3.166-24.587-5.549
			c-6.043-2.013-12.36-2.181-17.812-2.181c-1.146,0-2.293,0.011-3.442,0.017c-6.003,0.053-12.311,0.137-18.773-1.269
			c-4.228-0.922-7.566-1.233-10.512-1.519c-6.204-0.588-10.69-1.01-14.888-7.014c-1.57-2.252-2.742-4.381-3.772-6.258
			c-2.505-4.564-4.158-7.58-9.521-9.186l-1.521-0.455c-5.813-1.732-6.712-2-8.086-5.262c-0.209-0.498-0.468-1.115-0.858-1.896
			c-0.825-1.649-0.858-1.713-5.95-2.36c-3.369-0.429-8.461-1.076-16.391-2.824c-20.093-4.432-23.184-7.33-25.446-23.849
			c-0.583-4.225,0.093-7.478,2.005-9.671c1.716-1.97,4.279-2.965,7.626-2.965c4.233,0,8.663,1.612,10.332,2.222
			c0.176,0.062,0.821,0.261,2.926,0.261c5.509,0,16.109-1.283,28.38-2.766l1.829-0.222c1.149-0.138,2.345-0.213,3.555-0.213
			c15.871,0,31.448,11.928,33.333,13.421c1.656,0.917,10.223,5.8,12.694,10.16c2.08,3.132,26.976,12.81,37.431,13.093
			c8.998,0.239,13.026,4.866,18.604,11.271c1.875,2.155,4.009,4.604,6.616,7.213c7.417,7.416,7.738,9.549,6.787,14.219
			c-0.301,1.467-0.636,3.133-0.556,5.746c0.062,2.131-0.563,3.889-1.865,5.229C186.593,329.841,183.933,330.693,180.156,330.693z
			 M137.757,318.296c5.813,0,12.585,0.187,19.29,2.422c6.831,2.277,16.663,5.306,23.109,5.306c2.346,0,4.045-0.42,4.784-1.185
			c0.252-0.262,0.583-0.729,0.55-1.836c-0.097-3.155,0.335-5.272,0.649-6.819c0.58-2.855,0.752-3.718-5.513-9.986
			c-2.723-2.725-4.909-5.232-6.838-7.447c-5.326-6.115-8.259-9.482-15.212-9.67c-10.534-0.283-38.279-10.031-41.359-15.453
			c-1.465-2.576-7.554-6.561-11.052-8.469c-0.123-0.064-0.242-0.145-0.352-0.23c-0.155-0.129-15.666-12.518-30.566-12.518
			c-1.024,0-2.031,0.062-2.995,0.18l-1.828,0.221c-12.424,1.5-23.15,2.795-28.94,2.795c-2.098,0-3.472-0.158-4.453-0.514
			c-1.526-0.557-5.396-1.965-8.805-1.965c-1.938,0-3.316,0.459-4.104,1.363c-1.229,1.41-1.166,4.021-0.904,5.969
			c1.897,13.814,2.868,15.74,21.824,19.923c7.729,1.702,12.694,2.333,15.98,2.751c5.351,0.682,7.566,0.963,9.538,4.904
			c0.447,0.895,0.745,1.6,0.987,2.168c0.517,1.232,0.517,1.232,5.107,2.602l1.534,0.459c7.192,2.16,9.548,6.445,12.271,11.41
			c1.023,1.859,2.084,3.787,3.508,5.828c2.965,4.238,5.639,4.49,11.499,5.045c2.925,0.275,6.562,0.623,11.068,1.6
			c5.976,1.302,12.005,1.207,17.746,1.164C135.438,318.305,136.601,318.296,137.757,318.296z"/>
	</g>
	<g>
		<path fill="#8F201D" d="M104.38,234.711c0,0-15.229-16.68-21.188-14.143c-5.963,2.538-14.794,10.523-10.299,16.337
			c4.485,5.817,18.7,24.521,26.15,27.892c7.451,3.373,29.342,19.529,38.405,25.342c9.061,5.81,14.467,4.621,24.189,19.209
			c9.724,14.586,17.568,18.062,25.575,18.379c8.007,0.32,11.913,0.033,20.529-2.049c8.609-2.082,11.654,1.881,13.265-2.822
			c1.613-4.698,4.481-10.145-3.807-17.772c-8.289-7.629-0.238-4.955-20.271-19.168c-20.032-14.217-21.115-21.728-31.958-28.507
			c-10.843-6.782-15.606-13.115-23.944-10.521c-8.339,2.597-19.41-4.051-25.459-6.22C109.521,238.501,104.38,234.711,104.38,234.711
			z"/>
		<path fill="#3C2517" d="M191.937,330.171c-1.471,0-3.044-0.039-4.816-0.11c-10.429-0.414-18.631-6.222-27.423-19.418
			c-6.683-10.021-10.976-12.086-16.412-14.705c-2.199-1.058-4.472-2.152-7.099-3.832c-3.138-2.013-7.825-5.271-12.791-8.722
			c-9.183-6.384-20.608-14.327-25.312-16.458c-6.818-3.086-17.73-16.509-26.473-27.859l-0.566-0.733
			c-1.613-2.085-2.104-4.583-1.415-7.224c1.396-5.338,7.557-10.525,12.648-12.689c0.699-0.298,1.475-0.449,2.306-0.449
			c7.143,0,18.688,12.083,21.354,14.982c0.921,0.652,5.376,3.712,10.419,5.514c1.411,0.505,3.051,1.231,4.79,2
			c4.73,2.083,10.617,4.678,15.719,4.678c1.263,0,2.429-0.166,3.465-0.487c1.515-0.472,2.952-0.702,4.396-0.702
			c5.142,0,9.21,2.921,14.364,6.616c2.077,1.485,4.429,3.175,7.119,4.856c5.128,3.207,8.205,6.582,11.76,10.496
			c4.211,4.627,9.458,10.383,20.308,18.086c13.191,9.355,14.603,11.664,16.232,14.338c0.778,1.277,1.518,2.482,4.273,5.017
			c8.796,8.098,6.486,14.514,4.804,19.196l-0.374,1.058c-0.931,2.729-2.631,4.002-5.341,4.002c-0.569,0-1.209-0.054-1.938-0.113
			c-0.799-0.071-1.723-0.153-2.796-0.153c-1.616,0-3.2,0.194-4.85,0.594C201.322,329.632,197.347,330.171,191.937,330.171z
			 M84.583,222.641c-0.198,0-0.361,0.025-0.48,0.075c-4.051,1.724-9.018,5.983-9.955,9.574c-0.324,1.237-0.136,2.251,0.587,3.192
			l0.573,0.735c4.469,5.804,18.067,23.455,24.7,26.455c5.091,2.305,16.226,10.046,26.052,16.879
			c4.929,3.424,9.583,6.658,12.647,8.625c2.386,1.527,4.528,2.559,6.603,3.557c5.596,2.693,10.883,5.238,18.27,16.322
			c9.869,14.803,17.236,17.08,23.727,17.342c7.719,0.306,11.469,0.047,19.887-1.985c2.011-0.486,3.959-0.728,5.946-0.728
			c1.226,0,2.286,0.097,3.196,0.172c1.094,0.097,2.051,0.062,2.091,0.045c0,0,0.159-0.176,0.374-0.797l0.395-1.121
			c1.58-4.393,2.941-8.186-3.574-14.184c-3.233-2.975-4.221-4.59-5.092-6.014c-1.309-2.141-2.545-4.164-14.947-12.967
			c-11.271-7.993-16.696-13.959-21.062-18.752c-3.466-3.805-6.202-6.812-10.787-9.678c-2.815-1.763-5.23-3.496-7.36-5.021
			c-5.88-4.219-9.61-6.821-14.649-5.251c-1.487,0.464-3.124,0.697-4.856,0.697c-6.089,0-12.47-2.817-17.601-5.076
			c-1.66-0.729-3.23-1.425-4.485-1.872c-6.298-2.256-11.568-6.112-11.787-6.278c-0.122-0.091-0.235-0.192-0.338-0.305
			C97.479,230.62,88.452,222.641,84.583,222.641z"/>
	</g>
	<g>
		<path fill="#8F201D" d="M296.35,299.492c0,0-22.58-0.414-24.836,5.66c-2.26,6.072-2.535,17.975,4.776,18.717
			c7.313,0.738,30.666,3.283,38.236,0.188c7.568-3.086,34.362-7.873,44.805-10.455c10.448-2.584,13.308-7.326,30.584-4.354
			c17.279,2.973,25.193-0.336,30.931-5.93c5.741-5.592,8.216-8.627,12.629-16.312c4.409-7.682,9.383-7.168,7.076-11.57
			c-2.303-4.406-4.287-10.229-15.523-9.459c-11.24,0.771-3.764-3.235-27.856,1.537c-24.094,4.769-30.292,0.391-42.672,3.6
			c-12.384,3.205-20.258,2.312-24.107,10.148c-3.846,7.84-16.289,11.303-22.022,14.207
			C302.637,298.369,296.35,299.492,296.35,299.492z"/>
		<path fill="#3C2517" d="M301.709,327.891c-8.998,0-19.6-1.082-24.689-1.603l-0.965-0.099c-2.623-0.268-4.777-1.633-6.215-3.946
			c-2.919-4.688-2.441-12.724-0.517-17.906c2.21-5.938,15.421-7.188,26.12-7.188l0.689,0.007c1.083-0.216,6.391-1.347,11.182-3.773
			c1.338-0.672,2.993-1.368,4.75-2.108c5.748-2.41,13.614-5.715,16.231-11.039c3.386-6.896,9.481-8.07,17.2-9.56
			c2.504-0.481,5.344-1.028,8.414-1.821c4.661-1.209,8.465-1.379,11.883-1.379c1.239,0,2.505,0.028,3.83,0.053
			c1.421,0.031,2.912,0.057,4.516,0.057c4.952,0,11.992-0.268,22.576-2.359c8.475-1.68,13.771-2.428,17.177-2.428
			c2.048,0,3.296,0.264,4.399,0.502c1.471,0.312,2.918,0.598,6.576,0.348c12.055-0.828,15.02,5.312,17.242,9.711l0.507,0.994
			c2.152,4.111-0.248,6.25-2.184,7.967c-1.432,1.271-3.217,2.854-4.937,5.853c-4.611,8.029-7.294,11.24-13.022,16.82
			c-7.643,7.45-17.173,9.274-32.959,6.559c-3.569-0.61-6.622-0.913-9.328-0.913c-5.499,0-8.806,1.26-12.632,2.721
			c-2.278,0.865-4.638,1.764-7.666,2.514c-3.617,0.895-9.209,2.059-15.132,3.289c-10.946,2.277-24.571,5.111-29.352,7.062
			C312.661,327.339,308.179,327.891,301.709,327.891z M295.443,301.82c-12.647,0-20.985,2.109-21.744,4.145
			c-1.53,4.125-1.858,10.658,0.105,13.811c0.672,1.086,1.541,1.65,2.723,1.769l0.965,0.101c5.016,0.514,15.458,1.578,24.217,1.578
			c7.188,0,10.455-0.724,11.933-1.324c5.182-2.113,18.455-4.873,30.166-7.31c5.88-1.223,11.43-2.377,14.964-3.25
			c2.754-0.682,4.974-1.528,7.122-2.348c4.082-1.554,7.936-3.025,14.296-3.025c2.972,0,6.286,0.32,10.119,0.984
			c4.172,0.719,7.947,1.08,11.222,1.08c9.814,0,14.446-3.228,17.687-6.382c5.467-5.325,7.865-8.196,12.231-15.805
			c2.1-3.658,4.379-5.68,5.887-7.016c0.579-0.514,1.368-1.217,1.471-1.49l0,0c-0.007,0-0.017-0.236-0.32-0.82l-0.54-1.057
			c-2.107-4.173-3.992-7.734-12.759-7.154c-4.448,0.305-6.265-0.102-7.867-0.442c-1.008-0.216-1.871-0.396-3.426-0.396
			c-3.048,0-8.219,0.739-16.269,2.334c-10.985,2.176-18.32,2.452-23.484,2.452c-1.637,0-3.156-0.026-4.607-0.06
			c-5.128-0.098-9.203-0.184-14.447,1.178c-3.213,0.831-6.128,1.395-8.702,1.893c-8.001,1.539-11.628,2.414-13.895,7.024
			c-3.386,6.899-12.188,10.597-18.617,13.291c-1.673,0.703-3.26,1.367-4.445,1.974c-5.97,3.02-12.396,4.19-12.669,4.237
			c-0.146,0.024-0.283,0.024-0.449,0.037L295.443,301.82z"/>
	</g>
	<g>
		<path fill="#8F201D" d="M273.734,290.986c0,0-6.135-7.803-20.127-6.211c-13.994,1.594-40.056-0.799-45.689,8.11
			c-5.629,8.912-20.867,14.794-28,12.062c-7.136-2.729-26.773-6.712-37.626,2.11c-10.85,8.826-30.455,10.455-36.023,7.883
			c-5.572-2.575-20.734-1.258-16.975,7.939c3.764,9.197,16.014,10.318,30.978,13.176c14.961,2.863,19.933,2.162,28.007-4.492
			c8.069-6.649,15.146-8.229,30.911,1.299c15.766,9.535,30.368,18.132,45.213,12.378c14.844-5.757,17.604-6.625,28.162-13.63
			c10.562-7,20.151-10.885,23.904-16.827C280.227,308.848,283.771,299.505,273.734,290.986z"/>
		<path fill="#3C2517" d="M214.454,349.434L214.454,349.434c-12.377,0-24.628-7.404-36.471-14.568
			c-7.205-4.352-12.608-6.383-17.011-6.383c-3.754,0-7,1.416-11.214,4.885c-5.085,4.195-9.438,6.619-16.644,6.619
			c-3.319,0-7.288-0.488-13.284-1.633c-1.709-0.326-3.383-0.631-5.009-0.929c-12.811-2.325-23.872-4.332-27.688-13.659
			c-1.454-3.558-0.569-6.074,0.428-7.558c2.004-2.981,6.553-4.763,12.181-4.763c2.876,0,5.612,0.503,7.504,1.38
			c1.209,0.557,3.617,0.889,6.443,0.889c8.321,0,19.939-2.616,27.128-8.467c4.85-3.94,11.578-5.938,20.016-5.938
			c8.027,0,15.746,1.861,19.92,3.459c0.901,0.344,2.027,0.519,3.353,0.519c6.848,0,17.505-4.783,21.845-11.646
			c4.787-7.578,19.837-8.041,34.396-8.483c4.807-0.146,9.352-0.283,12.996-0.697c1.343-0.157,2.671-0.233,3.958-0.233
			c11.344,0,17.045,5.896,18.096,7.104c5.922,5.103,11.178,13.847,3.045,26.699c-2.866,4.538-8.267,7.702-15.101,11.709
			c-3.045,1.791-6.192,3.635-9.487,5.819c-10.099,6.697-13.454,7.996-25.923,12.82l-2.683,1.039
			C221.798,348.753,218.167,349.434,214.454,349.434z M160.973,323.814c5.29,0,11.462,2.244,19.423,7.055
			c11.3,6.83,22.983,13.896,34.059,13.896l0,0c3.177,0,6.154-0.558,9.106-1.701l2.68-1.039c12.41-4.801,15.354-5.939,25.03-12.357
			c3.402-2.256,6.756-4.219,9.707-5.951c6.291-3.689,11.258-6.602,13.517-10.182c5.222-8.248,4.476-15.043-2.272-20.77
			c-0.115-0.103-0.225-0.216-0.32-0.339c-0.176-0.213-4.603-5.53-14.601-5.53c-1.108,0-2.263,0.067-3.432,0.199
			c-3.833,0.438-8.474,0.577-13.38,0.729c-12.089,0.368-27.132,0.825-30.598,6.312c-5.224,8.266-17.551,13.817-25.786,13.817
			c-1.898,0-3.588-0.274-5.022-0.826c-4.098-1.565-11.336-3.147-18.25-3.147c-7.231,0-13.132,1.69-17.07,4.891
			c-8.077,6.572-20.92,9.514-30.073,9.514c-2.524,0-6.036-0.229-8.405-1.32c-1.278-0.598-3.352-0.946-5.542-0.946
			c-3.886,0-7.225,1.08-8.305,2.692c-0.195,0.295-0.799,1.189,0.017,3.187c2.849,6.961,12.271,8.672,24.199,10.836
			c1.644,0.297,3.33,0.604,5.056,0.937c5.691,1.09,9.398,1.549,12.406,1.549c5.188,0,8.64-1.398,13.675-5.549
			C150.365,326.824,154.844,323.814,160.973,323.814z"/>
	</g>
	<g>
		<path fill="#8F201D" d="M277.387,257.626c0,0,13.989-15.765,17.312-30.018c3.322-14.255,28.125-11.671,36.709-15.022
			c8.583-3.349,25.2-14.695,30.195-1.963c4.998,12.731,5.125,22.242-8.235,34.434c-13.363,12.195-23.425,14.667-37.878,19.981
			c-14.454,5.313-29.062,13.03-38.239,21.235c-9.18,8.205-13.978,17.684-34.977,24.49c-21.006,6.811-30.004,11.127-41.913,7.666
			c-11.903-3.46-22.954-13.599-4.25-23.248c18.703-9.652,27.264-8.252,38.792-16.591c11.528-8.338,14.672-21.967,21.669-22.649
			C263.564,255.253,262.945,262.787,277.387,257.626z"/>
		<path fill="#3C2517" d="M208.72,321.988c-3.021,0-5.97-0.43-9.008-1.312c-6.927-2.012-15.252-6.789-15.914-13.627
			c-0.501-5.141,3.282-9.832,11.246-13.941c8.971-4.631,15.567-6.735,21.388-8.596c6.313-2.018,11.303-3.613,17.106-7.811
			c5.271-3.812,8.689-8.816,11.708-13.234c3.445-5.035,6.417-9.393,11.098-9.85c3.34-0.326,5.391,0.844,7.184,1.857
			c1.547,0.875,2.882,1.635,5.297,1.635c1.941,0,4.3-0.485,7.205-1.48c2.242-2.631,13.549-16.346,16.397-28.55
			c2.732-11.719,17.386-13.522,28.089-14.839c4.028-0.496,7.831-0.964,10.044-1.827c1.487-0.582,3.312-1.454,5.241-2.377
			c5.251-2.514,11.783-5.643,17.365-5.643c5.046,0,8.716,2.552,10.61,7.379c5.168,13.157,5.492,23.938-8.835,37.012
			c-11.977,10.926-21.36,14.271-33.243,18.502c-1.736,0.618-3.531,1.26-5.403,1.946c-15.148,5.568-29.162,13.34-37.49,20.783
			c-2.048,1.828-3.854,3.705-5.765,5.693c-6.546,6.812-13.317,13.857-30.047,19.279c-3.114,1.008-5.966,1.963-8.6,2.848
			C223.335,319.539,216.024,321.988,208.72,321.988z M257.46,258.232c-0.212,0-0.431,0.012-0.662,0.033
			c-2.512,0.245-4.801,3.596-7.699,7.834c-3.071,4.5-6.894,10.096-12.824,14.385c-6.406,4.637-11.972,6.414-18.422,8.473
			c-5.645,1.803-12.049,3.85-20.672,8.301c-5.923,3.055-9.023,6.375-8.735,9.34c0.351,3.603,5.516,7.545,12.571,9.596
			c9.25,2.681,17.088,0.177,31.893-4.784c2.65-0.888,5.513-1.849,8.643-2.863c15.613-5.06,21.974-11.674,28.126-18.067
			c1.887-1.963,3.838-3.994,6.016-5.943c8.875-7.932,23.084-15.838,38.99-21.684c1.887-0.691,3.694-1.336,5.45-1.963
			c11.387-4.058,20.377-7.259,31.66-17.554c12.538-11.441,12.406-19.705,7.636-31.854c-1.198-3.056-3.127-4.419-6.265-4.419
			c-4.519,0-10.524,2.875-15.348,5.186c-2.012,0.962-3.909,1.87-5.562,2.516c-2.756,1.075-6.655,1.556-11.171,2.11
			c-9.852,1.214-22.119,2.723-24.109,11.267c-3.422,14.661-17.256,30.373-17.84,31.033c-0.262,0.297-0.593,0.521-0.961,0.652
			c-3.681,1.312-6.74,1.955-9.352,1.955c-3.646,0-5.842-1.242-7.604-2.243C259.889,258.779,258.925,258.232,257.46,258.232z"/>
	</g>
	<g>
		<path fill="#8F201D" d="M239.181,238.307c0,0-4.615,2.824-10.625,11.771c-6.006,8.943-16.805,16.24-23.809,16.24
			c-7,0-15.785,3.387-20.731,12.053c-4.945,8.668-1.444,7.211-7.281,14.504c-5.837,7.295-15.759,3.793-16.05,13.422
			c-0.292,9.633,11.379,17.312,20.426,11.137c9.048-6.174,22.18-21.057,30.349-20.766c8.173,0.295,21.013-11.086,30.64-16.341
			c9.634-5.255,15.175,0.292,23.057-13.714c7.878-14.008,13.712-21.012,7.878-28.306c-5.838-7.296-5.251-11.676-13.715-9.049
			C250.857,231.886,242.394,225.465,239.181,238.307z"/>
		<path fill="#3C2517" d="M174.071,321.988c-4.181,0-8.322-1.799-11.366-4.937c-2.929-3.02-4.473-6.862-4.354-10.821
			c0.216-7.131,5.082-8.867,8.991-10.267c2.703-0.965,5.503-1.963,7.566-4.549c2.919-3.646,3.23-4.748,3.693-6.414
			c0.457-1.623,1.021-3.646,3.386-7.787c5.565-9.753,15.408-13.229,22.759-13.229c6.212,0,16.432-7.106,21.871-15.209
			c4.816-7.176,8.858-10.638,10.528-11.892c2.335-8.186,7.129-9.34,11.982-9.34c0.738,0,1.504,0.025,2.277,0.05
			c0.757,0.026,1.527,0.053,2.312,0.053c2.021,0,3.531-0.19,4.903-0.616c8-2.483,10.217,0.893,12.948,5.135
			c0.889,1.381,1.896,2.947,3.287,4.681c5.974,7.472,1.861,14.515-4.366,25.179c-1.04,1.773-2.146,3.676-3.304,5.729
			c-5.701,10.139-10.656,11.062-15.903,12.042c-2.498,0.472-5.075,0.947-8.066,2.58c-2.962,1.613-6.231,3.826-9.693,6.166
			c-7.616,5.146-15.483,10.463-21.755,10.463l-0.391-0.004h-0.007c-4.807,0-12.688,6.828-19.022,12.315
			c-3.548,3.074-6.9,5.978-9.925,8.043C179.911,321.078,177.022,321.988,174.071,321.988z M249.129,232.213
			c-3.638,0-6.132,0.464-7.68,6.659c-0.152,0.593-0.523,1.106-1.05,1.425c-0.03,0.02-4.33,2.781-9.905,11.084
			c-6.397,9.523-17.945,17.273-25.747,17.273c-6.039,0-14.129,2.854-18.703,10.869c-2.078,3.646-2.538,5.287-2.945,6.736
			c-0.637,2.281-1.199,3.893-4.539,8.074c-2.896,3.617-6.642,4.953-9.644,6.027c-4.11,1.469-5.784,2.215-5.896,6.006
			c-0.083,2.689,0.997,5.328,3.034,7.434c3.678,3.785,9.445,4.639,13.742,1.701c2.803-1.914,6.056-4.729,9.501-7.715
			c7.636-6.617,15.53-13.459,21.924-13.459l0.321,0.006c0.007,0,0.007,0,0.007,0c5.068,0,12.657-5.133,19.356-9.66
			c3.564-2.406,6.924-4.678,10.08-6.398c3.638-1.984,6.722-2.562,9.441-3.069c4.682-0.873,8.061-1.504,12.695-9.738
			c1.166-2.077,2.292-4.003,3.336-5.795c6.208-10.627,8.576-15.133,4.754-19.91c-1.541-1.923-2.664-3.669-3.564-5.068
			c-2.055-3.186-2.641-3.87-4.228-3.87c-0.858,0-1.976,0.217-3.409,0.665c-2.361,0.73-4.604,0.827-6.291,0.827
			c-0.838,0-1.662-0.028-2.471-0.055C250.525,232.237,249.817,232.213,249.129,232.213z"/>
	</g>
	<g opacity="0.58">
		<path fill="#EAAA54" d="M91.619,240.923c0,0-1.073,1.262-0.377,1.771c0.692,0.505,2.083-0.066,1.828-0.888
			C92.818,240.986,92.504,239.913,91.619,240.923z"/>
	</g>
	<g opacity="0.58">
		<path fill="#EAAA54" d="M90.572,231.853c0,0-1.073,1.264-0.384,1.771c0.699,0.505,2.087-0.064,1.835-0.886
			C91.771,231.917,91.454,230.842,90.572,231.853z"/>
	</g>
	<g opacity="0.58">
		<path fill="#EAAA54" d="M98.335,239.74c0,0-1.074,1.262-0.382,1.767c0.696,0.505,2.084-0.063,1.832-0.886
			C99.534,239.8,99.219,238.729,98.335,239.74z"/>
	</g>
	<g opacity="0.58">
		<path fill="#EAAA54" d="M99.382,254.259c0,0-1.074,1.265-0.382,1.767c0.699,0.508,2.087-0.062,1.836-0.885
			C100.584,254.322,100.266,253.248,99.382,254.259z"/>
	</g>
	<g opacity="0.58">
		<path fill="#EAAA54" d="M45.658,266.727c0,0-1.073,1.262-0.381,1.771c0.692,0.503,2.087-0.065,1.832-0.888
			C46.857,266.789,46.543,265.715,45.658,266.727z"/>
	</g>
	<g opacity="0.58">
		<path fill="#EAAA54" d="M63.901,259.891c0,0-1.073,1.262-0.381,1.768c0.692,0.505,2.084-0.062,1.832-0.887
			C65.101,259.953,64.786,258.878,63.901,259.891z"/>
	</g>
	<g opacity="0.58">
		<path fill="#EAAA54" d="M65.558,270.882c0,0-1.073,1.263-0.384,1.769c0.695,0.504,2.087-0.063,1.835-0.887
			C66.757,270.945,66.439,269.872,65.558,270.882z"/>
	</g>
	<g opacity="0.58">
		<path fill="#EAAA54" d="M78.104,262.602c0,0-1.073,1.264-0.381,1.766c0.695,0.51,2.087-0.059,1.832-0.885
			C79.303,262.663,78.988,261.593,78.104,262.602z"/>
	</g>
	<g opacity="0.58">
		<path fill="#EAAA54" d="M80.816,284.462c0,0-1.073,1.265-0.381,1.771c0.695,0.504,2.087-0.062,1.832-0.885
			C82.016,284.527,81.701,283.451,80.816,284.462z"/>
	</g>
	<g opacity="0.58">
		<path fill="#EAAA54" d="M91.623,273.615c0,0-1.073,1.264-0.381,1.768c0.695,0.508,2.087-0.062,1.831-0.883
			C92.822,273.677,92.507,272.604,91.623,273.615z"/>
	</g>
	<g opacity="0.58">
		<path fill="#EAAA54" d="M110.784,283.789c0,0-1.073,1.262-0.381,1.764c0.695,0.508,2.087-0.059,1.835-0.883
			C111.986,283.848,111.668,282.775,110.784,283.789z"/>
	</g>
	<g opacity="0.58">
		<path fill="#EAAA54" d="M103.268,290.791c0,0-1.073,1.264-0.378,1.768c0.692,0.506,2.084-0.062,1.828-0.883
			C104.467,290.854,104.155,289.779,103.268,290.791z"/>
	</g>
	<g opacity="0.58">
		<path fill="#EAAA54" d="M103.268,302.074c0,0-1.073,1.264-0.378,1.768c0.692,0.504,2.084-0.062,1.828-0.885
			C104.467,302.136,104.155,301.064,103.268,302.074z"/>
	</g>
	<g opacity="0.58">
		<path fill="#EAAA54" d="M120.778,295.266c0,0-1.073,1.262-0.384,1.768c0.698,0.508,2.087-0.062,1.835-0.885
			C121.978,295.328,121.659,294.255,120.778,295.266z"/>
	</g>
	<g opacity="0.58">
		<path fill="#EAAA54" d="M111.341,324.445c0,0-1.074,1.266-0.381,1.77c0.695,0.506,2.087-0.062,1.831-0.885
			C112.54,324.511,112.225,323.438,111.341,324.445z"/>
	</g>
	<g opacity="0.58">
		<path fill="#EAAA54" d="M129.66,321.625c0,0-1.073,1.264-0.378,1.768c0.692,0.506,2.084-0.062,1.832-0.885
			C130.859,321.689,130.548,320.615,129.66,321.625z"/>
	</g>
	<g opacity="0.58">
		<path fill="#EAAA54" d="M138.641,323.261c0,0-1.073,1.263-0.381,1.769c0.696,0.506,2.087-0.062,1.832-0.885
			C139.84,323.324,139.525,322.251,138.641,323.261z"/>
	</g>
	<g opacity="0.58">
		<path fill="#EAAA54" d="M152.747,311.201c0,0-1.074,1.262-0.381,1.766c0.695,0.506,2.087-0.062,1.835-0.885
			C153.946,311.264,153.631,310.188,152.747,311.201z"/>
	</g>
	<g opacity="0.58">
		<path fill="#EAAA54" d="M118.178,256.628c0,0-1.073,1.265-0.381,1.767c0.696,0.508,2.084-0.061,1.832-0.886
			C119.377,256.689,119.062,255.62,118.178,256.628z"/>
	</g>
	<g opacity="0.58">
		<path fill="#EAAA54" d="M130.71,253.074c0,0-1.073,1.264-0.381,1.77c0.695,0.508,2.087-0.063,1.835-0.885
			C131.909,253.136,131.595,252.062,130.71,253.074z"/>
	</g>
	<g opacity="0.58">
		<path fill="#EAAA54" d="M130.71,261.417c0,0-1.073,1.263-0.381,1.765c0.695,0.508,2.087-0.061,1.835-0.884
			C131.909,261.477,131.595,260.407,130.71,261.417z"/>
	</g>
	<g opacity="0.58">
		<path fill="#EAAA54" d="M140.734,274.48c0,0-1.073,1.266-0.378,1.77c0.696,0.506,2.084-0.062,1.832-0.884
			C141.934,274.546,141.619,273.473,140.734,274.48z"/>
	</g>
	<g opacity="0.58">
		<path fill="#EAAA54" d="M156.105,264.355c0,0-1.073,1.265-0.381,1.77c0.692,0.506,2.084-0.062,1.832-0.885
			C157.305,264.42,156.99,263.348,156.105,264.355z"/>
	</g>
	<g opacity="0.58">
		<path fill="#EAAA54" d="M156.105,278.754c0,0-1.073,1.264-0.381,1.768c0.692,0.508,2.084-0.062,1.832-0.883
			C157.304,278.816,156.99,277.741,156.105,278.754z"/>
	</g>
	<g opacity="0.58">
		<path fill="#EAAA54" d="M168.28,276.078c0,0-1.073,1.262-0.385,1.768c0.699,0.506,2.088-0.062,1.836-0.887
			C169.479,276.139,169.161,275.064,168.28,276.078z"/>
	</g>
	<g opacity="0.58">
		<path fill="#EAAA54" d="M161.294,288.443c0,0-1.073,1.264-0.381,1.77c0.695,0.506,2.083-0.064,1.832-0.885
			C162.493,288.507,162.179,287.432,161.294,288.443z"/>
	</g>
	<g opacity="0.58">
		<path fill="#EAAA54" d="M177.566,304.406c0,0,0.006,1.66,0.861,1.592c0.854-0.068,1.54-1.408,0.812-1.867
			C178.514,303.673,177.576,303.066,177.566,304.406z"/>
	</g>
	<g opacity="0.58">
		<path fill="#EAAA54" d="M191.669,281.529c0,0,0.01,1.662,0.861,1.592c0.857-0.068,1.543-1.408,0.814-1.863
			C192.619,280.795,191.679,280.189,191.669,281.529z"/>
	</g>
	<g opacity="0.58">
		<path fill="#EAAA54" d="M199.643,284.173c0,0,0.013,1.658,0.861,1.589c0.861-0.068,1.544-1.404,0.818-1.863
			C200.593,283.439,199.655,282.83,199.643,284.173z"/>
	</g>
	<g opacity="0.58">
		<path fill="#EAAA54" d="M186.796,261.803c0,0,0.006,1.658,0.861,1.59c0.854-0.068,1.54-1.406,0.812-1.865
			C187.739,261.068,186.806,260.461,186.796,261.803z"/>
	</g>
	<g opacity="0.58">
		<path fill="#EAAA54" d="M173.663,252.275c0,0,0.007,1.662,0.861,1.592c0.855-0.067,1.541-1.407,0.812-1.866
			C174.607,251.543,173.674,250.936,173.663,252.275z"/>
	</g>
	<g opacity="0.58">
		<path fill="#EAAA54" d="M192.241,252.275c0,0,0.007,1.662,0.861,1.592c0.855-0.067,1.541-1.407,0.812-1.866
			C193.186,251.543,192.252,250.936,192.241,252.275z"/>
	</g>
	<g opacity="0.58">
		<path fill="#EAAA54" d="M200.636,255.1c0,0,0.011,1.657,0.861,1.59c0.858-0.068,1.541-1.405,0.815-1.862
			C201.584,254.368,200.649,253.758,200.636,255.1z"/>
	</g>
	<g opacity="0.58">
		<path fill="#EAAA54" d="M218.042,248.488c0,0,0.006,1.658,0.861,1.586c0.854-0.067,1.54-1.406,0.811-1.866
			C218.985,247.751,218.052,247.142,218.042,248.488z"/>
	</g>
	<g opacity="0.58">
		<path fill="#EAAA54" d="M216.054,275.277c0,0,0.014,1.662,0.865,1.592c0.857-0.068,1.54-1.405,0.814-1.864
			C217.005,274.546,216.07,273.936,216.054,275.277z"/>
	</g>
	<g opacity="0.58">
		<path fill="#EAAA54" d="M240.445,250.895c0,0,0.014,1.657,0.865,1.594c0.854-0.07,1.54-1.412,0.814-1.867
			C241.396,250.159,240.459,249.552,240.445,250.895z"/>
	</g>
	<g opacity="0.58">
		<path fill="#EAAA54" d="M257.719,252.003c0,0,0.01,1.658,0.861,1.591c0.861-0.068,1.544-1.406,0.814-1.865
			C258.669,251.271,257.73,250.662,257.719,252.003z"/>
	</g>
	<g opacity="0.58">
		<path fill="#EAAA54" d="M253.829,241.791c0,0,0.007,1.656,0.86,1.589c0.858-0.068,1.541-1.405,0.812-1.864
			C254.775,241.057,253.839,240.447,253.829,241.791z"/>
	</g>
	<g opacity="0.58">
		<path fill="#EAAA54" d="M227.367,279.796c0,0,0.01,1.658,0.861,1.586c0.857-0.065,1.54-1.401,0.814-1.862
			C228.314,279.064,227.377,278.452,227.367,279.796z"/>
	</g>
	<g opacity="0.58">
		<path fill="#EAAA54" d="M220.844,305.611c0,0,0.011,1.658,0.861,1.59c0.858-0.068,1.541-1.406,0.815-1.865
			C221.792,304.878,220.857,304.268,220.844,305.611z"/>
	</g>
	<g opacity="0.58">
		<path fill="#EAAA54" d="M236.219,292.384c0,0,0.007,1.656,0.861,1.593c0.854-0.07,1.54-1.412,0.812-1.867
			C237.163,291.646,236.229,291.042,236.219,292.384z"/>
	</g>
	<g opacity="0.58">
		<path fill="#EAAA54" d="M249.056,296.566c0,0,0.01,1.658,0.861,1.59c0.86-0.07,1.544-1.408,0.813-1.867
			C250.007,295.83,249.065,295.225,249.056,296.566z"/>
	</g>
	<g opacity="0.58">
		<path fill="#EAAA54" d="M258.712,287.645c0,0,0.007,1.662,0.861,1.592c0.858-0.068,1.54-1.41,0.812-1.867
			C259.66,286.912,258.723,286.305,258.712,287.645z"/>
	</g>
	<g opacity="0.58">
		<path fill="#EAAA54" d="M270.971,269.066c0,0,0.006,1.658,0.86,1.591c0.854-0.069,1.54-1.408,0.812-1.867
			C271.917,268.334,270.979,267.725,270.971,269.066z"/>
	</g>
	<g opacity="0.58">
		<path fill="#EAAA54" d="M278.748,273.25c0,0,0.01,1.658,0.861,1.587c0.857-0.069,1.543-1.405,0.814-1.864
			C279.698,272.518,278.758,271.906,278.748,273.25z"/>
	</g>
	<g opacity="0.58">
		<path fill="#EAAA54" d="M291.876,253.697c0,0,0.011,1.658,0.86,1.587c0.859-0.067,1.541-1.401,0.815-1.863
			C292.824,252.964,291.891,252.352,291.876,253.697z"/>
	</g>
	<g opacity="0.58">
		<path fill="#EAAA54" d="M305.592,258.27c0,0,0.006,1.656,0.861,1.588c0.856-0.064,1.54-1.408,0.812-1.863
			C306.542,257.533,305.602,256.925,305.592,258.27z"/>
	</g>
	<g opacity="0.58">
		<path fill="#EAAA54" d="M314.734,253.211c0,0,0.011,1.655,0.86,1.587c0.861-0.067,1.544-1.403,0.815-1.866
			C315.686,252.477,314.745,251.867,314.734,253.211z"/>
	</g>
	<g opacity="0.58">
		<path fill="#EAAA54" d="M323.974,238.329c0,0,0.011,1.658,0.861,1.587c0.861-0.069,1.544-1.406,0.815-1.865
			C324.925,237.593,323.987,236.984,323.974,238.329z"/>
	</g>
	<g opacity="0.58">
		<path fill="#EAAA54" d="M310.051,233.755c0,0,0.006,1.658,0.861,1.589c0.854-0.068,1.54-1.408,0.812-1.867
			C310.994,233.02,310.061,232.412,310.051,233.755z"/>
	</g>
	<g opacity="0.58">
		<path fill="#EAAA54" d="M329.738,224.979c0,0,0.01,1.656,0.86,1.587c0.858-0.07,1.54-1.407,0.814-1.865
			C330.686,224.245,329.748,223.633,329.738,224.979z"/>
	</g>
	<g opacity="0.58">
		<path fill="#EAAA54" d="M341.535,236.166c0,0,0.01,1.658,0.861,1.588c0.854-0.068,1.544-1.408,0.813-1.865
			C342.482,235.43,341.545,234.824,341.535,236.166z"/>
	</g>
	<g opacity="0.58">
		<path fill="#EAAA54" d="M349.899,220.99c0,0,0.014,1.658,0.86,1.59c0.858-0.07,1.544-1.408,0.818-1.867
			C350.851,220.256,349.913,219.648,349.899,220.99z"/>
	</g>
	<g opacity="0.58">
		<path fill="#EAAA54" d="M343.52,264.178c0,0,0.008,1.658,0.861,1.59c0.854-0.068,1.54-1.404,0.812-1.863
			C344.467,263.445,343.529,262.835,343.52,264.178z"/>
	</g>
	<g opacity="0.58">
		<path fill="#EAAA54" d="M321.308,279.809c0,0,0.007,1.653,0.861,1.586c0.854-0.068,1.54-1.405,0.812-1.865
			C322.255,279.073,321.317,278.462,321.308,279.809z"/>
	</g>
	<g opacity="0.58">
		<path fill="#EAAA54" d="M301.265,286.441c0,0,0.011,1.658,0.861,1.588c0.861-0.068,1.544-1.404,0.815-1.863
			C302.216,285.707,301.278,285.098,301.265,286.441z"/>
	</g>
	<g opacity="0.58">
		<path fill="#EAAA54" d="M364.718,244.224c0,0,0.01,1.658,0.861,1.59c0.856-0.068,1.54-1.406,0.813-1.863
			C365.665,243.492,364.728,242.882,364.718,244.224z"/>
	</g>
	<g opacity="0.58">
		<path fill="#EAAA54" d="M368.901,255.622c0,0,0.007,1.655,0.86,1.587c0.858-0.068,1.541-1.404,0.812-1.863
			C369.85,254.886,368.912,254.277,368.901,255.622z"/>
	</g>
	<g opacity="0.58">
		<path fill="#EAAA54" d="M384.757,248.326c0,0,0.01,1.658,0.861,1.59c0.856-0.07,1.544-1.408,0.813-1.867
			C385.708,247.589,384.767,246.984,384.757,248.326z"/>
	</g>
	<g opacity="0.58">
		<path fill="#EAAA54" d="M378.228,238.576c0,0,0.007,1.658,0.861,1.587c0.854-0.066,1.54-1.406,0.812-1.864
			C379.175,237.84,378.237,237.23,378.228,238.576z"/>
	</g>
	<g opacity="0.58">
		<path fill="#EAAA54" d="M388.116,227.385c0,0,0.01,1.66,0.86,1.592c0.857-0.07,1.54-1.408,0.814-1.865
			C389.062,226.651,388.126,226.045,388.116,227.385z"/>
	</g>
	<g opacity="0.58">
		<path fill="#EAAA54" d="M189.688,326.248c0,0,0.007,1.658,0.861,1.59c0.858-0.068,1.54-1.408,0.812-1.863
			C190.635,325.511,189.697,324.906,189.688,326.248z"/>
	</g>
	<g opacity="0.58">
		<path fill="#EAAA54" d="M202.392,335.328c0,0,0.01,1.66,0.861,1.59c0.855-0.068,1.544-1.404,0.815-1.863
			S202.401,333.986,202.392,335.328z"/>
	</g>
	<g opacity="0.58">
		<path fill="#EAAA54" d="M212.218,323.648c0,0,0.01,1.658,0.861,1.592c0.857-0.068,1.54-1.41,0.814-1.867
			C213.165,322.912,212.228,322.307,212.218,323.648z"/>
	</g>
	<g opacity="0.58">
		<path fill="#EAAA54" d="M226.373,332.919c0,0,0.01,1.656,0.861,1.588c0.861-0.065,1.544-1.403,0.815-1.862
			C227.324,332.186,226.387,331.576,226.373,332.919z"/>
	</g>
	<g opacity="0.58">
		<path fill="#EAAA54" d="M237.209,320.828c0,0,0.007,1.658,0.861,1.588c0.854-0.068,1.544-1.402,0.815-1.863
			C238.156,320.098,237.219,319.484,237.209,320.828z"/>
	</g>
	<g opacity="0.58">
		<path fill="#EAAA54" d="M263.182,311.585c0,0,0.006,1.658,0.861,1.588c0.857-0.067,1.54-1.403,0.812-1.862
			C264.129,310.854,263.191,310.242,263.182,311.585z"/>
	</g>
	<g opacity="0.58">
		<path fill="#EAAA54" d="M291.876,304.406c0,0,0.011,1.66,0.86,1.592c0.859-0.068,1.541-1.408,0.815-1.867
			C292.824,303.673,291.891,303.066,291.876,304.406z"/>
	</g>
	<g opacity="0.58">
		<path fill="#EAAA54" d="M308.062,312.792c0,0,0.01,1.658,0.864,1.588c0.854-0.067,1.54-1.407,0.814-1.864
			C309.014,312.057,308.076,311.451,308.062,312.792z"/>
	</g>
	<g opacity="0.58">
		<path fill="#EAAA54" d="M317.306,298.977c0,0,0.011,1.657,0.861,1.59c0.857-0.066,1.54-1.408,0.814-1.865
			C318.253,298.24,317.315,297.634,317.306,298.977z"/>
	</g>
	<g opacity="0.58">
		<path fill="#EAAA54" d="M337.033,306.248c0,0,0.007,1.66,0.86,1.592c0.854-0.068,1.54-1.408,0.812-1.863
			C337.98,305.516,337.043,304.908,337.033,306.248z"/>
	</g>
	<g opacity="0.58">
		<path fill="#EAAA54" d="M338.447,300.671c0,0,0.895,1.402,1.577,0.886c0.688-0.515,0.553-2.013-0.306-2.013
			C338.861,299.544,337.742,299.531,338.447,300.671z"/>
	</g>
	<g opacity="0.58">
		<path fill="#EAAA54" d="M356.678,295.811c0,0,0.892,1.401,1.573,0.885c0.689-0.514,0.554-2.01-0.305-2.01
			C357.089,294.686,355.969,294.669,356.678,295.811z"/>
	</g>
	<g opacity="0.58">
		<path fill="#EAAA54" d="M352.689,283.564c0,0,0.891,1.395,1.575,0.885c0.689-0.514,0.555-2.014-0.305-2.014
			C353.1,282.438,351.98,282.419,352.689,283.564z"/>
	</g>
	<g opacity="0.58">
		<path fill="#EAAA54" d="M377.204,280.255c0,0,0.891,1.397,1.573,0.886c0.688-0.513,0.557-2.014-0.31-2.014
			C377.611,279.13,376.495,279.115,377.204,280.255z"/>
	</g>
	<g opacity="0.58">
		<path fill="#EAAA54" d="M379.443,294.75c0,0,0.888,1.398,1.569,0.883c0.688-0.516,0.557-2.008-0.302-2.008
			C379.851,293.625,378.734,293.607,379.443,294.75z"/>
	</g>
	<g opacity="0.58">
		<path fill="#EAAA54" d="M399.481,283.564c0,0,0.892,1.395,1.573,0.885c0.689-0.514,0.554-2.014-0.309-2.014
			C399.89,282.438,398.773,282.419,399.481,283.564z"/>
	</g>
	<g opacity="0.58">
		<path fill="#EAAA54" d="M408.798,277.25c0,0,0.579,1.553,1.354,1.193c0.781-0.359,0.964-1.851,0.123-2.03
			C409.434,276.234,408.344,275.986,408.798,277.25z"/>
	</g>
	<g opacity="0.58">
		<path fill="#EAAA54" d="M430.983,276.136c0,0,0.579,1.55,1.354,1.19c0.782-0.357,0.964-1.852,0.119-2.028
			C431.619,275.119,430.529,274.871,430.983,276.136z"/>
	</g>
	<g opacity="0.58">
		<path fill="#EAAA54" d="M418.454,289.75c0,0,0.58,1.557,1.358,1.197c0.777-0.361,0.961-1.855,0.118-2.033
			C419.09,288.734,418,288.488,418.454,289.75z"/>
	</g>
	<g opacity="0.58">
		<path fill="#EAAA54" d="M236.219,265.93c0,0,0.007,1.657,0.861,1.59c0.854-0.069,1.54-1.406,0.812-1.865
			C237.163,265.197,236.229,264.587,236.219,265.93z"/>
	</g>
</g>
</svg>
