<?xml version="1.0" encoding="utf-8"?>
<!-- Generator: Adobe Illustrator 16.0.0, SVG Export Plug-In . SVG Version: 6.00 Build 0)  -->
<!DOCTYPE svg PUBLIC "-//W3C//DTD SVG 1.1//EN" "http://www.w3.org/Graphics/SVG/1.1/DTD/svg11.dtd">
<svg version="1.1" id="Layer_1" xmlns="http://www.w3.org/2000/svg" xmlns:xlink="http://www.w3.org/1999/xlink" x="0px" y="0px"
	 width="500px" height="500px" viewBox="0 0 500 500" enable-background="new 0 0 500 500" xml:space="preserve">
<g id="Layer_1_copy_42">
	<path fill="#8DC63F" stroke="#3C2415" stroke-width="5.9747" stroke-miterlimit="10" d="M102.721,112.644
		c0,0-15.881-13.124-30.425-4.379c-14.545,8.742,8.361-21.436,42.903-6.529c34.539,14.909-18.909-31.996-27.635-24.724
		s19.999-22.179,46.54,14.907c13.815,21.452,2.551-29.451,2.551-29.451S148.9,51.56,157.498,94.101
		c2.059,21.814,15.875,12.727,24.601,8.726s37.085-16.362,41.814-6.908c4.726,9.452-39.268,11.271-27.635,18.542
		c11.637,7.272,32.725,15.617,24.724,25.799c-11.998-10.528-22.633-16.057-29.562-10.182c-6.934,5.875,3.749-6.165,4.113,20.015
		c0.36,26.179-94.898-18.542-94.898-18.542L102.721,112.644z"/>
	<path fill="#EE3026" stroke="#3C2415" stroke-width="5.9747" stroke-miterlimit="10" d="M346.562,277.352
		c0,30.392-25.066,55.025-55.996,55.025c-30.928,0-55.989-24.635-55.989-55.025c0-30.389,25.062-55.021,55.989-55.021
		C321.496,222.331,346.562,246.963,346.562,277.352z"/>
	<path fill="#EE3026" stroke="#3C2415" stroke-width="5.9747" stroke-miterlimit="10" d="M415.407,299.167
		c0,30.392-25.066,55.022-55.995,55.022c-30.928,0-55.99-24.631-55.99-55.022c0-30.388,25.062-55.022,55.99-55.022
		C390.341,244.145,415.407,268.779,415.407,299.167z"/>
	<path fill="#EE3026" stroke="#3C2415" stroke-width="5.9747" stroke-miterlimit="10" d="M352.869,263.534
		c0,0,5.465,20.005,31.511,16.483"/>
	<path fill="none" stroke="#3C2415" stroke-width="5.9747" stroke-miterlimit="10" d="M483.278,171.428
		c0,0-83.393,14.541-114.655,105.924"/>
	<path fill="#EE3026" stroke="#3C2415" stroke-width="5.9747" stroke-miterlimit="10" d="M266.034,243.054
		c0,0,14.85,14.471,35.515-1.769"/>
	<path fill="none" stroke="#3C2415" stroke-width="5.9747" stroke-miterlimit="10" d="M331.733,97.541
		c0,0-64.509,54.818-45.118,149.433"/>
	<path fill="#EE2D58" stroke="#3C2415" stroke-width="5.9747" stroke-miterlimit="10" d="M139.081,140.261
		c0,17.67-15.192,31.996-33.934,31.996c-18.749,0-33.938-14.326-33.938-31.996c0-17.672,15.188-31.996,33.938-31.996
		C123.889,108.265,139.081,122.588,139.081,140.261z"/>
	<path fill="#EE2D58" stroke="#3C2415" stroke-width="5.9747" stroke-miterlimit="10" d="M93.507,162.075
		c0,17.672-15.188,31.996-33.935,31.996c-18.744,0-33.937-14.324-33.937-31.996c0-17.67,15.192-31.996,33.937-31.996
		C78.318,130.079,93.507,144.405,93.507,162.075z"/>
	<path fill="#EE2D58" stroke="#3C2415" stroke-width="5.9747" stroke-miterlimit="10" d="M191.44,155.289
		c0,17.672-15.193,31.996-33.935,31.996c-18.749,0-33.938-14.324-33.938-31.996c0-17.67,15.188-31.996,33.938-31.996
		C176.247,123.293,191.44,137.619,191.44,155.289z"/>
	<path fill="#EE2D58" stroke="#3C2415" stroke-width="5.9747" stroke-miterlimit="10" d="M231.677,179.042
		c0,17.672-15.188,31.996-33.93,31.996c-18.749,0-33.942-14.323-33.942-31.996c0-17.67,15.193-31.996,33.942-31.996
		C216.488,147.046,231.677,161.372,231.677,179.042z"/>
	<path fill="#EE2D58" stroke="#3C2415" stroke-width="5.9747" stroke-miterlimit="10" d="M144.9,179.042
		c0,17.672-15.193,31.996-33.935,31.996c-18.749,0-33.938-14.323-33.938-31.996c0-17.67,15.188-31.996,33.938-31.996
		C129.707,147.046,144.9,161.372,144.9,179.042z"/>
	<path fill="#EE2D58" stroke="#3C2415" stroke-width="5.9747" stroke-miterlimit="10" d="M191.44,204.256
		c0,17.67-15.193,31.996-33.935,31.996c-18.749,0-33.938-14.326-33.938-31.996c0-17.672,15.188-31.998,33.938-31.998
		C176.247,172.258,191.44,186.583,191.44,204.256z"/>
	<path fill="#EE2D58" stroke="#3C2415" stroke-width="5.9747" stroke-miterlimit="10" d="M225.378,233.342
		c0,17.672-15.189,31.996-33.935,31.996c-18.744,0-33.938-14.324-33.938-31.996c0-17.67,15.193-31.996,33.938-31.996
		C210.188,201.347,225.378,215.672,225.378,233.342z"/>
	<path fill="#EE2D58" stroke="#3C2415" stroke-width="5.9747" stroke-miterlimit="10" d="M93.507,209.289
		c0,17.67-15.188,31.996-33.935,31.996c-18.744,0-33.937-14.326-33.937-31.996c0-17.672,15.192-31.996,33.937-31.996
		C78.318,177.293,93.507,191.617,93.507,209.289z"/>
	<path fill="#EE2D58" stroke="#3C2415" stroke-width="5.9747" stroke-miterlimit="10" d="M144.9,226.068
		c0,17.67-15.193,31.997-33.935,31.997c-18.749,0-33.938-14.327-33.938-31.997c0-17.672,15.188-31.998,33.938-31.998
		C129.707,194.071,144.9,208.396,144.9,226.068z"/>
	<path fill="#EE2D58" stroke="#3C2415" stroke-width="5.9747" stroke-miterlimit="10" d="M185.134,258.064
		c0,17.67-15.193,31.996-33.935,31.996c-18.749,0-33.938-14.326-33.938-31.996c0-17.672,15.188-31.997,33.938-31.997
		C169.94,226.068,185.134,240.392,185.134,258.064z"/>
	<path fill="#EE2D58" stroke="#3C2415" stroke-width="5.9747" stroke-miterlimit="10" d="M93.507,254.327
		c0,17.67-15.188,31.995-33.935,31.995c-18.744,0-33.937-14.325-33.937-31.995c0-17.673,15.192-31.996,33.937-31.996
		C78.318,222.331,93.507,236.654,93.507,254.327z"/>
	<path fill="#EE2D58" stroke="#3C2415" stroke-width="5.9747" stroke-miterlimit="10" d="M136.655,280.432
		c0,17.672-15.189,31.998-33.935,31.998c-18.744,0-33.938-14.326-33.938-31.998c0-17.668,15.193-31.996,33.938-31.996
		C121.466,248.437,136.655,262.764,136.655,280.432z"/>
	<path fill="#EE2D58" stroke="#3C2415" stroke-width="5.9747" stroke-miterlimit="10" d="M113.385,312.43
		c0,17.67-15.188,31.995-33.935,31.995c-18.744,0-33.937-14.325-33.937-31.995c0-17.672,15.192-31.998,33.937-31.998
		C98.196,280.432,113.385,294.758,113.385,312.43z"/>
	<path fill="#EE2D58" stroke="#3C2415" stroke-width="5.9747" stroke-miterlimit="10" d="M219.071,286.322
		c0,17.671-15.189,31.996-33.935,31.996c-18.744,0-33.938-14.325-33.938-31.996c0-17.672,15.193-31.995,33.938-31.995
		C203.882,254.327,219.071,268.65,219.071,286.322z"/>
	<path fill="#EE2D58" stroke="#3C2415" stroke-width="5.9747" stroke-miterlimit="10" d="M175.931,312.43
		c0,17.67-15.193,31.995-33.935,31.995c-18.749,0-33.938-14.325-33.938-31.995c0-17.672,15.188-31.998,33.938-31.998
		C160.737,280.432,175.931,294.758,175.931,312.43z"/>
	<path fill="#EE2D58" stroke="#3C2415" stroke-width="5.9747" stroke-miterlimit="10" d="M153.141,349.199
		c0,17.67-15.188,31.994-33.93,31.994c-18.749,0-33.941-14.324-33.941-31.994c0-17.674,15.192-31.998,33.941-31.998
		C137.952,317.201,153.141,331.525,153.141,349.199z"/>
</g>
</svg>
