<?xml version="1.0" encoding="utf-8"?>
<!-- Generator: Adobe Illustrator 16.0.0, SVG Export Plug-In . SVG Version: 6.00 Build 0)  -->
<!DOCTYPE svg PUBLIC "-//W3C//DTD SVG 1.1//EN" "http://www.w3.org/Graphics/SVG/1.1/DTD/svg11.dtd">
<svg version="1.1" id="Layer_1" xmlns="http://www.w3.org/2000/svg" xmlns:xlink="http://www.w3.org/1999/xlink" x="0px" y="0px"
	 width="500px" height="500px" viewBox="0 0 500 500" enable-background="new 0 0 500 500" xml:space="preserve">
<g id="Layer_1_copy_65">
	<g>
		<path fill="#51121D" d="M86.441,257.393l250.528,15.809v58.365c0,26.733-67.352,48.403-150.436,48.403
			c-83.085,0-150.437-21.67-150.437-48.403v-56.16L86.441,257.393z"/>
		<path fill="#3C2517" d="M186.534,383.188c-75.528,0-153.653-19.308-153.653-51.621v-56.16c0-1.36,0.854-2.574,2.134-3.029
			l50.344-18.018c0.414-0.146,0.852-0.203,1.282-0.183l250.531,15.814c1.696,0.104,3.016,1.512,3.016,3.209v58.364
			C340.188,363.88,262.064,383.188,186.534,383.188z M39.317,277.671v53.896c0,21.822,59.156,45.188,147.217,45.188
			c88.06,0,147.216-23.365,147.216-45.188v-55.342L86.902,260.646L39.317,277.671z"/>
	</g>
	<g>
		<path fill="#6B0E1E" d="M336.97,273.201c0,26.734-67.352,48.408-150.436,48.408c-83.085,0-150.437-21.674-150.437-48.408
			c0-26.73,67.352-48.406,150.437-48.406C269.618,224.794,336.97,246.47,336.97,273.201z"/>
		<path fill="#3C2517" d="M186.534,324.828c-75.528,0-153.653-19.309-153.653-51.627c0-32.314,78.125-51.625,153.653-51.625
			c75.53,0,153.651,19.31,153.651,51.625C340.188,305.52,262.064,324.828,186.534,324.828z M186.534,228.013
			c-88.061,0-147.217,23.367-147.217,45.188c0,21.824,59.156,45.189,147.217,45.189c88.06,0,147.216-23.365,147.216-45.189
			C333.75,251.379,274.594,228.013,186.534,228.013z"/>
	</g>
	<g opacity="0.78">
		<path fill="#5B0D1E" d="M81.111,290.792c-0.825,0-1.646-0.312-2.276-0.942c-0.308-0.306-0.698-0.662-1.152-1.08
			c-3.24-2.972-9.27-8.504-11.538-17.59c-1.17-4.678,0.146-7.658,1.457-9.343c3.138-4.012,8.736-4.129,9.362-4.129
			c1.775,0,3.22,1.438,3.22,3.22c0,1.771-1.431,3.207-3.203,3.219c-0.799,0.008-3.296,0.34-4.313,1.666
			c-0.616,0.803-0.709,2.084-0.278,3.808c1.799,7.21,6.712,11.716,9.647,14.409c0.529,0.49,0.99,0.91,1.352,1.27
			c1.255,1.26,1.255,3.297,0,4.551C82.758,290.48,81.937,290.792,81.111,290.792z"/>
	</g>
	<g opacity="0.78">
		<path fill="#5B0D1E" d="M100.657,264.146c-0.756,0-1.511-0.263-2.121-0.797c-1.338-1.17-1.474-3.207-0.305-4.547
			c0.573-0.646,1.044-1.242,1.475-1.775c3.472-4.322,5.639-5.834,16.345-5.834c5.608,0,8.521,1.123,10.442,1.863
			c1.842,0.713,2.177,0.842,5.592-1.353c1.494-0.968,3.485-0.532,4.442,0.965c0.961,1.494,0.53,3.487-0.964,4.449
			c-5.556,3.567-7.835,3.315-11.39,1.942c-1.656-0.64-3.71-1.434-8.123-1.434c-8.573,0-9.104,0.66-11.322,3.426
			c-0.48,0.602-1.018,1.264-1.646,1.991C102.438,263.773,101.551,264.146,100.657,264.146z"/>
	</g>
	<g opacity="0.78">
		<path fill="#5B0D1E" d="M158.693,297.312c-0.573,0-1.156-0.154-1.683-0.479c-2.479-1.524-4.139-3.056-5.47-4.281
			c-2.812-2.59-3.862-3.557-11.048-1.846c-10.647,2.532-12.287,2.926-16.812-2.067c-0.59-0.652-1.292-1.431-2.2-2.339
			c-5.724-5.724-10.368-9.516-10.415-9.553c-1.378-1.122-1.59-3.149-0.467-4.524c1.119-1.384,3.146-1.591,4.525-0.468
			c0.195,0.158,4.936,4.021,10.905,9.99c1,1,1.775,1.854,2.425,2.571c1.968,2.17,1.968,2.17,10.545,0.129
			c9.818-2.344,12.933-0.282,16.904,3.369c1.243,1.152,2.528,2.332,4.482,3.537c1.514,0.933,1.984,2.914,1.051,4.428
			C160.83,296.768,159.776,297.312,158.693,297.312z"/>
	</g>
	<g opacity="0.78">
		<path fill="#5B0D1E" d="M152.17,276.406c-1.511,0-2.855-1.061-3.146-2.598c-0.109-0.55-0.944-5.496,2.378-8.736
			c2.332-2.268,5.811-2.92,10.356-1.922c2.18,0.475,3.886,0.94,5.283,1.322c4.099,1.118,4.099,1.123,8.368-3.5
			c1.206-1.309,3.243-1.388,4.549-0.181c1.305,1.205,1.385,3.24,0.179,4.544c-6.146,6.65-7.802,7.25-14.788,5.348
			c-1.315-0.359-2.919-0.797-4.969-1.25c-2.15-0.465-3.827-0.383-4.473,0.235c-0.686,0.658-0.669,2.304-0.56,2.955
			c0.301,1.735-0.852,3.412-2.591,3.729C152.562,276.389,152.366,276.406,152.17,276.406z"/>
	</g>
	<g opacity="0.78">
		<path fill="#5B0D1E" d="M189.492,308.564c-0.547,0-1.097-0.142-1.601-0.431c-10.872-6.258-9.699-9.981-9.315-11.207
			c1.199-3.799,6.096-3.901,11.2-3.452c15.564,1.368,17.531-1.002,22.786-7.334l0.52-0.625c2.289-2.746,4.489-4.557,6.255-6.009
			c3.101-2.562,3.902-3.34,3.674-6.032c-0.152-1.771,1.163-3.326,2.932-3.479c1.729-0.203,3.329,1.162,3.479,2.93
			c0.53,6.175-2.789,8.904-5.993,11.55c-1.64,1.348-3.501,2.881-5.399,5.161l-0.517,0.619c-6.331,7.623-10.171,11.226-28.298,9.629
			c-0.908-0.079-1.67-0.125-2.306-0.141c1.189,0.926,2.713,1.961,4.19,2.812c1.544,0.887,2.074,2.854,1.183,4.396
			C191.685,307.984,190.605,308.564,189.492,308.564z"/>
	</g>
	<g>
		<path fill="#46121C" d="M239.35,180.854l231.062,98.098l-19.377,55.054c-8.878,25.217-79.6,23.295-157.977-4.291
			c-78.371-27.586-134.704-70.388-125.826-95.606l18.647-52.979L239.35,180.854z"/>
		<path fill="#3C2517" d="M403.057,354.949c-30.508,0-70.985-8.09-111.063-22.199c-38.209-13.447-72.486-30.908-96.511-49.164
			c-24.969-18.973-36.079-36.922-31.286-50.544l18.645-52.979c0.457-1.282,1.66-2.143,3.024-2.151l53.469-0.275
			c0.54,0.053,0.871,0.086,1.271,0.256l231.066,98.095c1.563,0.666,2.342,2.433,1.778,4.033l-19.376,55.052
			C449.491,348.076,431.854,354.949,403.057,354.949z M188.163,184.337l-17.896,50.839c-3.736,10.614,6.871,26.389,29.106,43.285
			c23.508,17.859,57.158,34.984,94.755,48.223c39.419,13.873,79.119,21.83,108.928,21.83c25.077,0,41.459-5.681,44.944-15.576
			l18.372-52.203L238.7,184.077L188.163,184.337z"/>
	</g>
	<g>
		<path fill="#5B0D1E" d="M470.412,278.952c-8.879,25.218-79.601,23.298-157.978-4.288c-78.367-27.586-134.704-70.392-125.825-95.61
			c8.878-25.215,79.605-23.293,157.973,4.29C422.956,210.931,479.29,253.734,470.412,278.952z"/>
		<path fill="#3C2517" d="M422.433,299.896c-30.507,0-70.981-8.09-111.062-22.199c-38.21-13.447-72.483-30.908-96.511-49.164
			c-24.969-18.973-36.08-36.924-31.283-50.546c4.578-13.003,22.219-19.875,51.014-19.875c30.504,0,70.986,8.091,111.063,22.195
			c71.24,25.08,138.523,69.233,127.797,99.712C468.871,293.021,451.234,299.896,422.433,299.896z M234.589,164.548
			c-25.078,0-41.459,5.677-44.941,15.575c-3.736,10.614,6.874,26.388,29.109,43.286c23.501,17.859,57.155,34.981,94.752,48.217
			c39.419,13.875,79.119,21.834,108.924,21.834c25.078,0,41.46-5.678,44.944-15.576c7.245-20.585-40.793-62.266-123.861-91.505
			C304.098,172.506,264.395,164.548,234.589,164.548z"/>
	</g>
	<g>
		<path fill="#6B0E1E" d="M273.521,195.041c-5.148,0-11.773-1.12-20.864-5.042c-12.257-5.289-16.312-3.742-16.742-3.545
			c-1.272,1.012-3.128,0.916-4.29-0.267c-1.249-1.264-1.232-3.303,0.036-4.55c1.278-1.259,6.748-4.797,23.544,2.453
			c14.083,6.079,21.003,4.625,26.562,3.462l1.266-0.262c7.845-1.567,15.357-1.085,22.979,1.471c1.685,0.563,2.591,2.388,2.028,4.073
			c-0.562,1.687-2.389,2.601-4.075,2.027c-6.528-2.189-12.96-2.604-19.671-1.259l-1.209,0.249
			C280.457,194.403,277.409,195.041,273.521,195.041z"/>
	</g>
	<g>
		<path fill="#6B0E1E" d="M260.336,230.831c-2.404,0-5.467-1.142-9.829-2.904c-1.11-0.446-2.336-0.942-3.707-1.481
			c-5.496-2.173-9.084-5.318-10.657-9.352c-1.938-4.974,0.01-9.254,0.241-9.723c0.772-1.599,2.697-2.271,4.297-1.491
			c1.591,0.769,2.256,2.673,1.508,4.267c-0.07,0.152-0.984,2.304-0.021,4.685c0.921,2.266,3.273,4.157,6.997,5.626
			c1.381,0.548,2.627,1.049,3.75,1.501c3.339,1.345,6.47,2.59,7.331,2.479c0.354-0.31,1.393-2.619,1.789-3.49
			c1.738-3.848,5.765-6.092,11.322-6.309c6.086-0.225,14.18,2.128,16.531,6.391c0.857,1.554,0.295,3.51-1.267,4.371
			c-1.55,0.859-3.511,0.29-4.369-1.266c-0.636-1.055-5.509-3.391-10.929-3.053c-1.645,0.096-4.535,0.552-5.43,2.521
			C265.536,228.83,263.509,230.831,260.336,230.831z"/>
	</g>
	<g>
		<path fill="#6B0E1E" d="M305.479,244.634c-2.302,0-4.423-0.312-6.035-0.73c-1.72-0.445-2.752-2.201-2.31-3.922
			c0.444-1.721,2.2-2.753,3.919-2.311c0.518,0.127,11.136,2.7,14.361-4.685c4.681-10.735,11.807-14.323,22.439-11.283
			c1.71,0.489,2.7,2.27,2.211,3.977c-0.484,1.714-2.271,2.711-3.979,2.211c-6.443-1.845-10.918-1.173-14.774,7.67
			C318.203,242.677,311.26,244.634,305.479,244.634z"/>
	</g>
	<g>
		<path fill="#6B0E1E" d="M415.145,244.619c-0.477,0-0.96-0.108-1.421-0.335c-1.295-0.606-9.26-2.501-16.958-4.33
			c-5.354-1.272-11.39-2.709-17.343-4.204c-9.922-2.491-12.28-3.816-13.276-7.462c-0.149-0.548-0.248-0.906-1.505-1.862
			c-6.243-4.728-10.566-10.735-10.75-10.994c-1.026-1.443-0.691-3.45,0.752-4.485c1.441-1.035,3.452-0.697,4.489,0.745
			c0.039,0.055,3.958,5.488,9.396,9.604c2.77,2.104,3.426,3.833,3.829,5.292c0.011,0.045,0.021,0.093,0.032,0.134
			c0.504,0.358,2.296,1.201,8.602,2.786c5.927,1.487,11.936,2.915,17.27,4.182c11.142,2.652,16.573,3.965,18.312,4.818
			c1.594,0.787,2.25,2.715,1.465,4.309C417.477,243.956,416.334,244.619,415.145,244.619z"/>
	</g>
	<g>
		<path fill="#6B0E1E" d="M406.757,273.128c-3.008,0-5.985-0.629-8.63-2.174c-2.312-1.349-4.171-2.317-5.704-3.117
			c-4.456-2.317-6.957-3.623-9.326-8.433c-2.978-1.385-17.521,0.685-32.266,4.628c-1.71,0.454-3.479-0.558-3.939-2.274
			c-0.46-1.718,0.561-3.479,2.276-3.941c23.726-6.357,37.036-6.869,39.574-1.525c1.49,3.154,2.48,3.668,6.65,5.838
			c1.61,0.842,3.556,1.855,5.978,3.27c6.316,3.688,16.574-1.428,18.438-3.305c0.438-1.256,1.634-2.158,3.037-2.158
			c1.779,0,3.222,1.441,3.222,3.22c0,1.293-0.53,3.315-5.122,5.952C417.133,271.296,411.901,273.128,406.757,273.128z"/>
	</g>
	<g>
		<path fill="#17713A" d="M209.581,187.355c18.491-21.134-7.544,6.037,0-9.812c7.553-15.849-1.13,3.775-3.021-8.68
			c-1.882-12.454-1.882-0.377-10.942-13.208c-17.358-12.077,10.942,13.208-4.138,11.701c-15.09-1.512,10.174,7.922-0.388,9.433
			c-10.567,1.507,4.525,14.717,4.525,14.717C206.56,199.054,206.924,190.416,209.581,187.355z"/>
		<path fill="#176132" d="M202.776,195.808L202.776,195.808c-2.15,0-4.728-1.06-7.892-3.24c-1.792-1.559-10.08-9.117-8.669-13.875
			c0.517-1.738,2.094-2.808,4.694-3.177c0.854-0.123,1.285-0.282,1.49-0.383c-0.427-0.769-2.392-2.259-3.491-3.092
			c-2.469-1.872-4.102-3.109-3.574-4.673c0.493-1.462,2.48-1.462,3.435-1.462c0.735,0,1.673,0.053,2.836,0.17
			c1.68,0.164,2.826-0.042,3.084-0.527c0.806-1.499-2.425-6.342-3.979-8.669c-1.854-2.784-2.624-3.934-2.051-5.005l0.364-0.679
			l0.994-0.106c0.709,0,1.666,0.265,6.338,3.508l0.311,0.316c4.161,5.889,6.072,6.086,7.216,6.203
			c2.591,0.269,3.061,1.67,3.952,7.555c0.41,2.713,1.086,3.306,1.309,3.306c0.623,0,1.723-1.11,2.087-1.475
			c0.444-0.452,0.771-0.78,1.361-0.78h0.716l0.395,0.613c0.434,0.69,0.434,0.69-1.339,4.378l-1.62,3.382
			c-0.854,1.799-1.149,2.784-1.245,3.299c1.063-0.381,2.975-1.663,3.976-2.334c1.633-1.096,2.183-1.444,2.799-1.444h0.828
			l0.424,0.797c0.451,0.992,0.544,1.199-6.973,9.788c-0.464,0.533-0.892,1.372-1.339,2.259
			C208.06,192.717,206.49,195.808,202.776,195.808z M188.551,168.482c0.567,0.485,1.329,1.063,1.915,1.506
			c2.588,1.962,5.035,3.818,4.509,5.84c-0.411,1.586-2.309,2.036-3.707,2.236c-1.037,0.147-2.332,0.505-2.584,1.36
			c-0.699,2.357,4.131,7.919,7.778,11.113c2.567,1.759,4.73,2.697,6.314,2.697l0,0c1.994,0,2.892-1.489,4.141-3.941
			c0.527-1.03,1.018-2.006,1.693-2.781c0.583-0.666,1.619-1.854,2.703-3.112c-0.865,0.427-1.634,0.679-2.296,0.679
			c-0.003,0-0.003,0-0.003,0c-0.775,0-1.401-0.328-1.783-0.926c-0.705-1.121-0.36-2.905,1.187-6.163l1.186-2.472
			c-0.148,0.023-0.41,0.095-0.46,0.035c-2.001,0-3.3-1.851-3.853-5.5c-0.491-3.223-0.905-5.017-1.232-5.325
			c-0.037-0.008-0.272-0.031-0.44-0.05c-2.018-0.208-4.542-0.949-8.918-7.094c-0.779-0.54-1.435-0.982-1.988-1.342
			c0.05,0.068,0.096,0.141,0.143,0.207c2.508,3.769,5.635,8.456,4.107,11.313c-0.821,1.535-2.563,2.185-5.611,1.873
			C190.175,168.517,189.217,168.469,188.551,168.482z"/>
	</g>
	<g>
		<path fill="#248348" d="M210.624,204.517c25.721,11.273-8.026-5.376,9.358-2.955c17.389,2.428-3.938,0.058,7.368-5.489
			c11.306-5.547-0.205-1.915,9.299-14.416c6.291-20.189-9.299,14.416-12.399-0.422c-3.102-14.843-4.492,12.092-9.114,2.468
			c-4.621-9.621-12.678,8.749-12.678,8.749C198.562,205.16,206.907,202.907,210.624,204.517z"/>
		<path fill="#176132" d="M220.556,209.761c-0.688,0-1.838-0.293-10.448-4.066c-0.643-0.28-1.57-0.433-2.551-0.595
			c-2.213-0.369-4.966-0.827-6.437-3.2c-1.306-2.108-1.27-5.324,0.112-9.827c0.951-2.193,5.698-12.446,10.684-12.446
			c1.786,0,3.257,1.185,4.38,3.518c0.371,0.782,0.655,1.146,0.812,1.309c0.606-0.634,1.438-2.961,1.901-4.26
			c1.033-2.897,1.72-4.812,3.346-4.812c1.663,0,2.415,2.049,3.154,5.59c0.176,0.84,0.682,2.794,1.56,2.792
			c1.782,0,5.139-4.176,6.94-6.42c2.127-2.647,2.853-3.485,3.876-3.485h0.653l0.536,0.604c0.56,0.754,0.623,1.748-1.192,7.577
			l-0.209,0.396c-4.363,5.738-3.972,7.621-3.743,8.746c0.526,2.552-0.669,3.425-6.01,6.044c-2.189,1.073-2.772,1.893-2.772,2.173
			c-0.007,0.21,0.262,0.696,2.047,1.617c0.533,0.273,1.425,0.735,1.177,1.767l-0.239,0.986l-1.156,0.031
			c-0.427,0-1.245-0.118-3.438-0.434l-3.733-0.528c-1.627-0.227-2.938-0.262-3.521-0.192c0.686,0.899,2.551,2.387,3.426,3.089
			c1.875,1.498,2.574,2.054,2.206,3.106l-0.302,0.866L220.556,209.761z M211.916,182.202c-2.451,0-6.313,6.296-8.278,10.767
			c-1.08,3.556-1.209,6.153-0.328,7.578c0.854,1.379,2.707,1.688,4.668,2.014c1.143,0.19,2.219,0.369,3.163,0.777
			c0.809,0.353,2.25,0.987,3.773,1.638c-1.166-1.211-1.716-2.273-1.338-3.35c0.562-1.597,2.687-1.597,3.488-1.597
			c0.845,0,1.858,0.083,3.097,0.258l2.707,0.386c-0.188-0.389-0.302-0.823-0.295-1.3c0.02-2.155,2.415-3.576,4.207-4.459
			c2.932-1.436,4.516-2.37,4.715-2.778c-0.007-0.038-0.05-0.269-0.087-0.438c-0.407-1.989-0.46-4.614,4.078-10.641
			c0.282-0.904,0.504-1.66,0.683-2.292c-0.05,0.062-0.105,0.127-0.155,0.19c-2.638,3.29-5.931,7.381-8.941,7.382h-0.004
			c-2.037,0-3.408-1.63-4.081-4.842c-0.271-1.298-0.507-2.155-0.695-2.713c-0.292,0.686-0.613,1.585-0.861,2.272
			c-1.11,3.119-2.163,6.064-4.32,6.064c-1.576,0-2.544-1.633-3.134-2.862C213.522,183.322,212.804,182.202,211.916,182.202z"/>
	</g>
</g>
</svg>
