<svg id="blanket" xmlns="http://www.w3.org/2000/svg" viewBox="0 0 300 300"><defs><style>.cls-1{fill:#f1f0a5;}.cls-2{fill:#3c2417;}.cls-3{fill:#61b899;}</style></defs><title>blanket</title><path class="cls-1" d="M271.08,128.91s9.45,15.92-5,32.36S222.26,240,222.26,240s-7.09,20-51.3,5.47C135.89,233.94,132.12,235,132.12,235s-22.17-.74-36.36-19.42C84,200.11,58.41,201.61,58.41,201.61S10.6,200.11,30,165.25C38.17,152.72,54.29,153,54.29,153"/><path class="cls-2" d="M199,253.2c-7.38,0-16.8-1.47-28.8-5.4-31.07-10.19-37.13-10.33-37.72-10.36a2.16,2.16,0,0,1-.44,0c-.95,0-23.51-1-38.25-20.4-10.81-14.22-35-13-35.23-13h-.22c-1,0-25.29-.94-33.08-14.69-3.86-6.8-3-15.34,2.6-25.36,8.89-13.69,25.78-13.52,26.49-13.49a2.49,2.49,0,0,1-.05,5H54.2c-.85,0-15,.18-22.09,11.08-4.59,8.25-5.47,15.14-2.53,20.34,6.21,11,27.21,12.09,28.81,12.16,2.26-.11,27.26-1,39.35,14.93,12.81,16.86,32.81,18.35,34.37,18.44,4.07-.21,18.28,3.59,39.63,10.59,41.42,13.57,48.11-3.77,48.17-3.95l.09-.23c1.21-2.55,29.71-62.76,44.21-79.27,13-14.81,5.07-28.86,4.72-29.45a2.49,2.49,0,0,1,4.29-2.53c.1.17,10.19,17.68-5.27,35.27-13.81,15.71-42.17,75.43-43.4,78C224,242.45,219,253.2,199,253.2Z"/><path class="cls-1" d="M196.36,213.06s-85.66-44.32-97.11-44.32S1.14,142.34,49,111s78.68-45.81,78.68-45.81a53.77,53.77,0,0,1,44.83,0C196.86,76.1,252.14,93,274.55,113c5.6,5-6,17.92-6,17.92s-32.87,47.32-37.35,61.26-9,39.85-51.14,29.61"/><path class="cls-2" d="M197.44,226.58a76.57,76.57,0,0,1-17.95-2.41,2.49,2.49,0,0,1,1.18-4.84c37,9,42.89-10.58,47.22-24.85.33-1.08.65-2.12,1-3.1,4.55-14.13,36.33-60,37.68-61.91a1.55,1.55,0,0,1,.19-.24c2.76-3.1,7.07-9.32,6.87-12.84a2.06,2.06,0,0,0-.7-1.57C257,100.64,223.81,87.94,197.18,77.73c-10.2-3.91-19-7.29-25.74-10.31a51.8,51.8,0,0,0-42.63-.08c-.43.21-31.41,14.81-78.5,45.71-10.4,6.82-14.66,13.69-12.65,20.4,5.49,18.39,53.55,32.8,61.59,32.8,11.72,0,89.43,40,98.25,44.6a2.49,2.49,0,1,1-2.28,4.42c-34.22-17.7-88-44-96-44-9.55,0-59.86-14.61-66.36-36.35-2.71-9.07,2.23-17.82,14.69-26,47.41-31.11,78.69-45.85,79-46,.75-.41,21.67-11.35,46.9,0,6.6,3,15.35,6.32,25.49,10.21,27,10.35,60.61,23.24,77.24,38a7.15,7.15,0,0,1,2.35,5c.37,6.5-6.77,14.9-8,16.32-1.84,2.66-32.73,47.38-36.94,60.48-.3,1-.61,2-.93,3C229,207.89,223.36,226.58,197.44,226.58Z"/><path class="cls-1" d="M53.43,176.21s24.9,3,27.89,7.47,31.37,13.94,38.84,14.94c6,.79,17,8.77,21.23,11.95a15,15,0,0,0,4.46,2.15c8.18,2.49,32.42,9.61,45.53,10.84"/><path class="cls-2" d="M191.39,226.05h-.24c-13.13-1.23-36.56-8.06-46-10.93a17.65,17.65,0,0,1-5.24-2.55c-6.84-5.17-15.69-10.89-20-11.47-6.94-.93-36.77-10.3-40.59-16-1.41-1.93-13.37-4.85-26.12-6.38a2.49,2.49,0,0,1,.59-5c7.84.94,26.4,3.66,29.67,8.57,2.2,3.19,28.86,12.75,37.1,13.85,6.28.84,16.73,8.15,22.4,12.43a12.42,12.42,0,0,0,3.69,1.76c7.27,2.21,32,9.52,45,10.74a2.49,2.49,0,0,1-.22,5Z"/><path class="cls-3" d="M179.68,201.7s-10.54-20.09,16.6-44.82c31.39-29.95,54.2-56.53,54.2-56.53l-12.62-6.06S169.22,155.05,162,178.37c-2.82,8.22,5.06,17.18,5.06,17.18Z"/><path class="cls-3" d="M196.61,77.4l14,5.56c-3,2.79-79.65,67.43-84.44,77.69-1.74,3.74-3.73,10.71,0,15.19l-14-5.77s-7.22-11.38,2.49-20.34C128.12,137.28,196.61,77.4,196.61,77.4Z"/><path class="cls-3" d="M169.63,66.65c-.49.87-89.54,51.87-93.29,70.47a50.83,50.83,0,0,0,1.08,23.53L65,155.75s-9.55-23.62,7.38-36.32,84.71-56.14,84.71-56.14S164.78,64.08,169.63,66.65Z"/><path class="cls-3" d="M172.21,222.65s-12.35,3-8.59,17.93l8.65,2.68s-4.79-10.85,11.64-18.11A115.16,115.16,0,0,0,172.21,222.65Z"/><path class="cls-3" d="M134.17,208.53s-14,6.78-11.76,22.22c-3.49-1.25-7.72-2.93-7.72-2.93s-.25-21.1,11-24.59A36.56,36.56,0,0,1,134.17,208.53Z"/><path class="cls-3" d="M85.61,189.48s-7.34,3.5-4.6,13a75.87,75.87,0,0,0-7.73-2.2S74.41,187,79,184.8A34.85,34.85,0,0,0,85.61,189.48Z"/><path class="cls-3" d="M151.35,193.37s-9.9,10.24-9.52,14.47c1.62,2.5,7.92,3.67,7.92,3.67s3.78-10.46,9.88-14.19C158.73,196.52,151.35,193.37,151.35,193.37Z"/><path class="cls-3" d="M118.17,178s-11.51,4-13.26,13.88l-9.15-3.3s10.09-14.68,15.81-13.51A30.31,30.31,0,0,1,118.17,178Z"/><path class="cls-3" d="M77.33,165.94s-9.58,3.87-9.21,10.27l-7.22-1.55s6-12.22,9.9-11.21A32.93,32.93,0,0,1,77.33,165.94Z"/></svg>