<?xml version="1.0" encoding="utf-8"?>
<!-- Generator: Adobe Illustrator 16.0.0, SVG Export Plug-In . SVG Version: 6.00 Build 0)  -->
<!DOCTYPE svg PUBLIC "-//W3C//DTD SVG 1.1//EN" "http://www.w3.org/Graphics/SVG/1.1/DTD/svg11.dtd">
<svg version="1.1" id="Layer_1" xmlns="http://www.w3.org/2000/svg" xmlns:xlink="http://www.w3.org/1999/xlink" x="0px" y="0px"
	 width="500px" height="500px" viewBox="0 0 500 500" enable-background="new 0 0 500 500" xml:space="preserve">
<g id="Layer_1_copy_76">
	<g>
		<path fill="#F1EFA6" d="M459.168,210.325c0,0,17.074,28.766-9.018,58.454c-26.09,29.689-79.172,142.15-79.172,142.15
			s-12.811,36.066-92.668,9.894c-63.357-20.769-70.174-18.894-70.174-18.894s-40.036-1.349-65.675-35.088
			c-21.203-27.896-67.476-25.188-67.476-25.188s-86.373-2.699-51.282-65.676c14.725-22.64,43.834-22.062,43.834-22.062"/>
		<path fill="#27140E" d="M329.017,433.671c-13.189,0-30.104-2.628-51.729-9.719c-57.345-18.796-67.802-18.834-68.623-18.767
			c-0.208,0.028-0.428,0.06-0.639,0.037c-1.701-0.057-41.899-1.802-68.188-36.391c-19.874-26.145-64.213-23.924-64.662-23.891
			c-0.096,0.002-0.192,0.011-0.293,0c-1.83-0.057-45.015-1.678-58.758-25.93c-6.75-11.91-5.168-26.927,4.699-44.641
			c15.667-24.094,45.531-23.779,46.778-23.748c1.819,0.037,3.264,1.536,3.23,3.354c-0.037,1.816-1.598,3.246-3.353,3.235
			c-0.29,0-27.496-0.223-41.013,20.562c-8.558,15.373-10.15,28.219-4.61,37.986c11.604,20.475,50.542,22.479,53.104,22.59
			c3.597-0.188,48.546-1.896,70.122,26.494c23.768,31.277,60.768,33.672,63.059,33.787c3.642-0.23,17.638,1.504,71.199,19.061
			c75.918,24.879,88.418-7.535,88.537-7.866c0.033-0.106,0.074-0.208,0.122-0.306c2.175-4.61,53.58-113.222,79.676-142.918
			c24.231-27.572,8.816-54.326,8.657-54.593c-0.929-1.567-0.412-3.586,1.154-4.514c1.565-0.936,3.583-0.416,4.515,1.151
			c0.187,0.304,17.98,31.178-9.377,62.307c-25.113,28.583-76.605,137.029-78.609,141.259
			C373.101,414.575,364.576,433.671,329.017,433.671z"/>
	</g>
	<g>
		<path fill="#F1EFA6" d="M324.194,362.343c0,0-154.742-80.067-175.437-80.067c-20.694,0-177.238-47.686-90.869-104.364
			c86.369-56.68,142.15-82.771,142.15-82.771s36.888-19.792,80.975,0c44.083,19.795,143.946,50.383,184.433,86.369
			c10.121,9.014-10.797,32.388-10.797,32.388s-59.378,85.471-67.479,110.66c-8.093,25.19-16.191,71.977-92.384,53.49"/>
		<path fill="#27140E" d="M325.98,385.527c-9.155,0-19.726-1.311-31.969-4.279c-1.771-0.432-2.855-2.213-2.426-3.979
			c0.428-1.769,2.199-2.858,3.98-2.426c67.884,16.479,78.783-19.472,86.744-45.72c0.59-1.942,1.156-3.813,1.722-5.576
			c8.157-25.364,65.476-108.024,67.911-111.529c0.073-0.111,0.158-0.215,0.248-0.315c3.683-4.125,13.143-16.48,12.713-24.061
			c-0.09-1.585-0.618-2.751-1.649-3.672c-28.977-25.754-88.953-48.746-137.148-67.223c-18.414-7.058-34.314-13.154-46.443-18.6
			c-41.997-18.853-77.715-0.29-78.068-0.1c-0.713,0.337-56.757,26.749-141.894,82.619c-19.29,12.66-27.146,25.516-23.354,38.213
			c4.286,14.345,23.566,29.548,54.284,42.806c24.454,10.556,50.762,17.293,58.128,17.293c20.894,0,161.038,72.207,176.95,80.44
			c1.615,0.834,2.25,2.825,1.415,4.438c-0.839,1.619-2.829,2.246-4.443,1.414c-42.844-22.168-157.605-79.705-173.921-79.705
			c-7.938,0-34.138-6.348-60.738-17.825c-23.018-9.938-51.768-26.152-57.99-46.976c-4.722-15.815,4.04-31.163,26.056-45.604
			c85.573-56.164,141.997-82.742,142.558-83.005c1.399-0.758,38.677-20.241,83.719-0.019c11.961,5.368,27.785,11.435,46.104,18.458
			c48.693,18.667,109.294,41.896,139.169,68.452c2.36,2.105,3.656,4.871,3.847,8.227c0.646,11.364-12.166,26.322-14.237,28.665
			c-2.903,4.191-59.24,85.7-66.934,109.627c-0.562,1.729-1.113,3.564-1.692,5.473C382.167,352.305,372.083,385.523,325.98,385.527z"
			/>
	</g>
	<g>
		<path fill="#F1EFA6" d="M65.99,295.77c0,0,44.981,5.398,50.38,13.496c5.397,8.092,56.68,25.188,70.175,26.985
			c10.78,1.44,30.747,15.853,38.343,21.597c1.916,1.443,4.878,2.918,8.064,3.883c14.771,4.492,58.562,17.356,82.248,19.576"/>
		<path fill="#27140E" d="M315.206,384.604c-0.107,0-0.208-0.008-0.315-0.02c-24.293-2.275-69.591-15.654-82.896-19.698
			c-3.452-1.047-6.764-2.653-9.088-4.407c-16.143-12.201-29.896-20.039-36.799-20.961c-12.073-1.61-65.897-18.56-72.477-28.427
			c-2.814-4.221-27.124-9.541-48.032-12.052c-1.809-0.214-3.097-1.857-2.882-3.663c0.216-1.81,1.849-3.086,3.668-2.881
			c10.904,1.312,46.941,6.256,52.727,14.938c4.313,6.471,53.616,23.652,67.868,25.549c11.082,1.481,29.753,14.564,39.899,22.234
			c1.674,1.264,4.37,2.555,7.031,3.359c13.157,4,57.92,17.229,81.602,19.451c1.81,0.166,3.143,1.773,2.971,3.586
			C318.321,383.323,316.885,384.604,315.206,384.604z"/>
	</g>
	<g>
		<path fill="#61BA9A" d="M294.057,341.816c0,0-19.045-36.291,29.986-80.975c56.705-54.092,97.914-102.106,97.914-102.106
			l-22.784-10.948c0,0-124.01,109.758-137.052,151.892c-5.104,14.846,9.145,31.041,9.145,31.041L294.057,341.816z"/>
	</g>
	<g>
		<path fill="#61BA9A" d="M324.648,117.273l25.338,10.046c-5.507,5.038-143.885,121.824-152.535,140.35
			c-3.147,6.745-6.745,19.343,0,27.437l-25.394-10.418c0,0-13.038-20.561,4.508-36.754
			C200.912,225.458,324.648,117.273,324.648,117.273z"/>
	</g>
	<g>
		<path fill="#61BA9A" d="M275.917,97.854c-0.897,1.578-161.774,93.708-168.543,127.307c-4.584,22.743,1.949,42.509,1.949,42.509
			l-22.491-8.847c0,0-17.247-42.676,13.344-65.616c30.591-22.94,153.023-101.424,153.023-101.424S267.145,93.209,275.917,97.854z"/>
	</g>
	<g>
		<path fill="#61BA9A" d="M280.561,379.663c0,0-22.309,5.521-15.519,32.401l15.634,4.834c0,0-8.66-19.604,21.029-32.723
			C292.081,381.452,280.561,379.663,280.561,379.663z"/>
	</g>
	<g>
		<path fill="#61BA9A" d="M211.849,354.15c0,0-25.304,12.259-21.258,40.146c-6.296-2.25-13.943-5.287-13.943-5.287
			s-0.449-38.121,19.795-44.421C203.976,347.512,211.849,354.15,211.849,354.15z"/>
	</g>
	<g>
		<path fill="#61BA9A" d="M124.13,319.734c0,0-13.27,6.334-8.321,23.43c-4.666-1.833-13.959-3.973-13.959-3.973
			s2.039-23.856,10.361-27.903C119.927,317.805,124.13,319.734,124.13,319.734z"/>
	</g>
	<g>
		<path fill="#61BA9A" d="M242.886,326.781c0,0-17.88,18.484-17.203,26.133c2.929,4.52,14.301,6.634,14.301,6.634
			s6.842-18.896,17.866-25.644C256.214,332.46,242.886,326.781,242.886,326.781z"/>
	</g>
	<g>
		<path fill="#61BA9A" d="M182.944,298.934c0,0-20.806,7.306-23.954,25.078l-16.528-5.964c0,0,18.217-26.511,28.563-24.401
			C178.511,296.055,182.944,298.934,182.944,298.934z"/>
	</g>
	<g>
		<path fill="#61BA9A" d="M109.175,277.229c0,0-17.323,6.987-16.646,18.541l-13.046-2.799c0,0,10.866-22.082,17.883-20.244
			C104.145,274.504,109.175,277.229,109.175,277.229z"/>
	</g>
</g>
</svg>
