<?xml version="1.0" encoding="utf-8"?>
<!-- Generator: Adobe Illustrator 16.0.0, SVG Export Plug-In . SVG Version: 6.00 Build 0)  -->
<!DOCTYPE svg PUBLIC "-//W3C//DTD SVG 1.1//EN" "http://www.w3.org/Graphics/SVG/1.1/DTD/svg11.dtd">
<svg version="1.1" id="Layer_1" xmlns="http://www.w3.org/2000/svg" xmlns:xlink="http://www.w3.org/1999/xlink" x="0px" y="0px"
	 width="500px" height="500px" viewBox="0 0 500 500" enable-background="new 0 0 500 500" xml:space="preserve">
<g id="Layer_1_copy_55">
	<g>
		<path fill="#40429B" d="M319.634,197.497c0,62.592-53.454,113.335-119.389,113.335c-65.942,0-119.393-50.743-119.393-113.335
			c0-62.595,53.45-113.338,119.393-113.338C266.18,84.159,319.634,134.901,319.634,197.497z"/>
		<path fill="#3C2517" d="M200.245,313.833c-67.491,0-122.394-52.19-122.394-116.336c0-64.151,54.902-116.335,122.394-116.335
			c67.483,0,122.387,52.185,122.387,116.335C322.632,261.641,267.729,313.833,200.245,313.833z M200.245,87.16
			c-64.18,0-116.395,49.498-116.395,110.336S136.065,307.83,200.245,307.83c64.172,0,116.387-49.495,116.387-110.334
			S264.417,87.16,200.245,87.16z"/>
	</g>
	<g>
		<path fill="#40429B" d="M473.792,272.934c0,62.596-53.454,113.338-119.389,113.338c-65.938,0-119.394-50.742-119.394-113.338
			c0-62.588,53.456-113.334,119.394-113.334C420.338,159.599,473.792,210.345,473.792,272.934z"/>
		<path fill="#3C2517" d="M354.403,389.273c-67.488,0-122.391-52.188-122.391-116.34c0-64.145,54.902-116.333,122.391-116.333
			c67.482,0,122.39,52.188,122.39,116.333C476.793,337.084,421.887,389.273,354.403,389.273z M354.403,162.6
			c-64.183,0-116.392,49.494-116.392,110.333c0,60.838,52.209,110.34,116.392,110.34c64.175,0,116.387-49.502,116.387-110.34
			C470.79,212.094,418.578,162.6,354.403,162.6z"/>
	</g>
	<g>
		<path fill="#40429B" d="M262.562,329.35c0,62.592-53.454,113.338-119.393,113.338c-65.938,0-119.393-50.746-119.393-113.338
			S77.232,216.015,143.17,216.015C209.109,216.015,262.562,266.758,262.562,329.35z"/>
		<path fill="#3C2517" d="M143.171,445.689c-67.487,0-122.393-52.191-122.393-116.34c0-64.147,54.905-116.335,122.393-116.335
			c67.488,0,122.39,52.188,122.39,116.335C265.561,393.498,210.659,445.689,143.171,445.689z M143.171,219.017
			c-64.175,0-116.391,49.495-116.391,110.333s52.216,110.336,116.391,110.336c64.179,0,116.392-49.498,116.392-110.336
			C259.562,268.511,207.35,219.017,143.171,219.017z"/>
	</g>
	<g>
		<g>
			<path fill="#8A88C2" d="M137.346,251.95c3.205-6.49,8.446-6.49,11.652,0c3.2,6.489,11.686,12.651,18.843,13.694
				c7.164,1.037,8.782,6.022,3.6,11.073c-5.183,5.058-8.419,15.021-7.195,22.156c1.221,7.134-3.019,10.215-9.425,6.847
				c-6.41-3.367-16.888-3.367-23.298,0c-6.403,3.368-10.646,0.287-9.422-6.847c1.222-7.136-2.015-17.101-7.197-22.156
				c-5.184-5.051-3.566-10.036,3.595-11.073C125.662,264.602,134.144,258.439,137.346,251.95z"/>
			<path fill="#3C2517" d="M159.55,308.287c-1.611,0-3.392-0.505-5.29-1.5c-2.925-1.542-6.867-2.391-11.089-2.391
				c-4.221,0-8.163,0.849-11.089,2.391c-4.089,2.15-7.764,1.936-9.791-0.471c-1.458-1.729-1.936-4.375-1.376-7.646
				c1.148-6.69-1.991-16.354-6.854-21.095c-2.849-2.776-3.961-5.715-3.132-8.273c0.829-2.556,3.457-4.277,7.399-4.848
				c6.718-0.975,14.936-6.946,17.944-13.035c1.76-3.572,4.211-5.539,6.897-5.539c2.688,0,5.138,1.967,6.902,5.539
				c3.004,6.089,11.223,12.057,17.941,13.035c3.94,0.57,6.568,2.292,7.398,4.848c0.829,2.559-0.283,5.497-3.133,8.273
				c-4.861,4.74-8,14.404-6.854,21.095c0.561,3.271,0.084,5.915-1.375,7.646C162.966,307.605,161.41,308.287,159.55,308.287z
				 M143.171,301.994c4.603,0,8.938,0.947,12.209,2.666c2.987,1.568,5.56,1.629,6.839,0.109c0.976-1.153,1.272-3.181,0.844-5.69
				c-1.286-7.495,2.099-17.909,7.541-23.216c2.133-2.079,3.053-4.202,2.527-5.816c-0.525-1.615-2.517-2.79-5.46-3.219
				c-7.526-1.094-16.384-7.527-19.749-14.346c-1.317-2.673-3.05-4.202-4.751-4.202c-1.7,0-3.434,1.528-4.747,4.202
				c-3.367,6.817-12.226,13.256-19.752,14.346c-2.942,0.429-4.935,1.604-5.46,3.219c-0.525,1.614,0.394,3.737,2.53,5.816
				c5.442,5.307,8.825,15.721,7.538,23.216c-0.429,2.511-0.132,4.536,0.844,5.69c1.278,1.52,3.858,1.459,6.838-0.109
				C134.234,302.941,138.569,301.994,143.171,301.994z"/>
		</g>
		<g>
			<path fill="#3C2517" d="M159.55,310.088c-1.908,0-3.97-0.574-6.127-1.709c-2.634-1.391-6.373-2.186-10.252-2.186
				s-7.616,0.796-10.255,2.186c-4.844,2.546-9.442,2.13-12.001-0.904c-1.265-1.494-2.597-4.291-1.771-9.106
				c1.059-6.188-1.842-15.117-6.337-19.505c-4.543-4.426-4.198-8.239-3.59-10.112c0.612-1.882,2.569-5.166,8.849-6.079
				c6.216-0.898,13.809-6.417,16.589-12.049c2.808-5.691,6.542-6.542,8.516-6.542c1.975,0,5.709,0.851,8.516,6.542
				c2.78,5.632,10.373,11.15,16.59,12.049c6.279,0.913,8.236,4.197,8.848,6.079c0.612,1.873,0.959,5.687-3.592,10.116
				c-4.492,4.384-7.393,13.312-6.335,19.501c0.826,4.815-0.504,7.612-1.771,9.106C164.01,309.161,161.922,310.088,159.55,310.088z
				 M143.171,300.193c4.889,0,9.522,1.021,13.045,2.873c1.604,0.844,2.698,1.02,3.334,1.02c0.892,0,1.183-0.346,1.293-0.477
				c0.608-0.724,0.774-2.301,0.442-4.227c-1.397-8.146,2.144-19.04,8.062-24.811c1.882-1.84,2.289-3.289,2.068-3.971
				c-0.222-0.686-1.403-1.613-4.004-1.992c-8.181-1.188-17.446-7.924-21.104-15.334c-1.165-2.357-2.421-3.197-3.137-3.197
				s-1.97,0.84-3.135,3.197c-3.659,7.41-12.925,14.146-21.105,15.334c-2.601,0.379-3.783,1.308-4.004,1.992
				c-0.221,0.684,0.187,2.131,2.067,3.971c5.919,5.771,9.46,16.664,8.063,24.811c-0.332,1.926-0.167,3.503,0.442,4.227
				c0.111,0.131,0.404,0.477,1.294,0.477c0.636,0,1.729-0.176,3.332-1.02C133.649,301.213,138.282,300.193,143.171,300.193z"/>
		</g>
	</g>
	<g>
		<g>
			<path fill="#8A88C2" d="M348.577,187.007c3.205-6.494,8.446-6.494,11.647,0c3.205,6.486,11.688,12.651,18.848,13.691
				c7.164,1.038,8.782,6.027,3.599,11.078c-5.183,5.055-8.419,15.02-7.197,22.156c1.221,7.133-3.016,10.213-9.423,6.846
				c-6.407-3.368-16.89-3.368-23.297,0c-6.406,3.367-10.646,0.287-9.425-6.846c1.224-7.136-2.016-17.101-7.195-22.156
				c-5.186-5.051-3.563-10.041,3.597-11.078C336.891,199.658,345.375,193.493,348.577,187.007z"/>
			<path fill="#3C2517" d="M370.778,243.343c-1.607,0-3.39-0.504-5.284-1.504c-2.932-1.539-6.869-2.389-11.091-2.389
				c-4.224,0-8.164,0.85-11.093,2.389c-4.088,2.147-7.763,1.94-9.788-0.467c-1.46-1.729-1.938-4.37-1.376-7.644
				c1.146-6.694-1.987-16.351-6.851-21.095c-2.854-2.78-3.969-5.719-3.136-8.274c0.833-2.555,3.455-4.277,7.396-4.847
				c6.723-0.979,14.94-6.947,17.944-13.039c1.76-3.568,4.216-5.536,6.902-5.536c2.686,0,5.138,1.968,6.896,5.536
				c3.008,6.092,11.224,12.06,17.944,13.039c3.938,0.57,6.565,2.292,7.396,4.847c0.83,2.555-0.279,5.494-3.132,8.274
				c-4.86,4.744-7.998,14.4-6.853,21.095c0.562,3.271,0.086,5.916-1.374,7.644C374.197,242.659,372.638,243.343,370.778,243.343z
				 M354.403,237.051c4.602,0,8.938,0.947,12.205,2.662c2.989,1.573,5.562,1.628,6.838,0.114c0.976-1.158,1.271-3.178,0.845-5.695
				c-1.287-7.492,2.099-17.907,7.543-23.214c2.13-2.082,3.05-4.198,2.525-5.816c-0.526-1.618-2.516-2.79-5.46-3.215
				c-7.523-1.096-16.386-7.531-19.749-14.349c-1.317-2.669-3.046-4.201-4.747-4.201c-1.702,0-3.435,1.532-4.752,4.201
				c-3.36,6.818-12.223,13.252-19.749,14.349c-2.945,0.425-4.935,1.598-5.463,3.215c-0.521,1.618,0.396,3.734,2.53,5.816
				c5.441,5.307,8.827,15.722,7.545,23.214c-0.433,2.517-0.136,4.537,0.839,5.695c1.283,1.518,3.854,1.462,6.844-0.114
				C345.462,237.998,349.798,237.051,354.403,237.051z"/>
		</g>
		<g>
			<path fill="#3C2517" d="M370.778,245.141c-1.906,0-3.963-0.573-6.121-1.708c-2.642-1.386-6.375-2.182-10.254-2.182
				c-3.88,0-7.614,0.795-10.256,2.182c-4.842,2.545-9.445,2.133-12.001-0.899c-1.267-1.5-2.598-4.293-1.774-9.11
				c1.062-6.185-1.839-15.116-6.337-19.497c-4.543-4.433-4.197-8.243-3.585-10.124c0.607-1.877,2.567-5.162,8.848-6.071
				c6.217-0.906,13.811-6.424,16.586-12.053c2.812-5.691,6.545-6.542,8.521-6.542c1.974,0,5.704,0.85,8.513,6.542
				c2.778,5.629,10.375,11.147,16.585,12.053c6.282,0.909,8.242,4.194,8.852,6.071c0.612,1.881,0.958,5.691-3.589,10.124
				c-4.49,4.377-7.396,13.312-6.331,19.497c0.823,4.813-0.512,7.61-1.775,9.11C375.241,244.215,373.153,245.141,370.778,245.141z
				 M354.403,235.253c4.889,0,9.521,1.016,13.042,2.869c1.606,0.844,2.698,1.023,3.333,1.023c0.892,0,1.182-0.349,1.293-0.48
				c0.607-0.723,0.773-2.303,0.44-4.229c-1.393-8.146,2.147-19.041,8.061-24.811c1.889-1.836,2.3-3.285,2.075-3.966
				c-0.223-0.682-1.407-1.615-4.009-1.992c-8.176-1.189-17.445-7.924-21.104-15.334c-1.162-2.358-2.413-3.194-3.132-3.194
				c-0.721,0-1.973,0.836-3.138,3.194c-3.653,7.41-12.925,14.145-21.104,15.334c-2.604,0.377-3.786,1.31-4.011,1.992
				c-0.219,0.681,0.187,2.13,2.073,3.966c5.921,5.77,9.456,16.668,8.062,24.811c-0.331,1.926-0.162,3.506,0.443,4.229
				c0.109,0.131,0.403,0.48,1.293,0.48c0.637,0,1.729-0.18,3.333-1.023C344.877,236.27,349.514,235.253,354.403,235.253z"/>
		</g>
	</g>
	<g>
		<g>
			<path fill="#8A88C2" d="M183.925,116.815c3.202-6.49,8.444-6.49,11.646,0c3.202,6.49,11.688,12.651,18.848,13.692
				c7.163,1.041,8.781,6.026,3.599,11.078c-5.18,5.051-8.422,15.02-7.199,22.152c1.225,7.136-3.015,10.217-9.421,6.849
				c-6.407-3.368-16.891-3.368-23.3,0c-6.404,3.368-10.643,0.287-9.419-6.849c1.221-7.133-2.02-17.101-7.198-22.152
				c-5.188-5.052-3.564-10.037,3.596-11.078C172.239,129.466,180.72,123.305,183.925,116.815z"/>
			<path fill="#3C2517" d="M206.122,173.152c-1.61,0-3.388-0.508-5.282-1.504c-2.932-1.539-6.874-2.386-11.092-2.386
				c-4.225,0-8.16,0.847-11.092,2.386c-4.095,2.15-7.767,1.936-9.792-0.467c-1.46-1.729-1.933-4.375-1.369-7.645
				c1.145-6.693-1.992-16.354-6.853-21.091c-2.856-2.78-3.97-5.719-3.14-8.277c0.837-2.556,3.462-4.277,7.399-4.848
				c6.722-0.978,14.937-6.95,17.944-13.035c1.764-3.575,4.211-5.539,6.901-5.539c2.687,0,5.138,1.964,6.901,5.539
				c3.005,6.085,11.223,12.057,17.941,13.035c3.938,0.571,6.565,2.292,7.396,4.848c0.837,2.558-0.28,5.497-3.133,8.277
				c-4.861,4.737-8.001,14.397-6.854,21.091c0.561,3.271,0.084,5.916-1.375,7.645C209.542,172.471,207.982,173.152,206.122,173.152z
				 M189.748,166.863c4.602,0,8.938,0.943,12.205,2.662c2.987,1.57,5.56,1.625,6.839,0.11c0.976-1.154,1.272-3.177,0.844-5.691
				c-1.286-7.496,2.099-17.91,7.544-23.221c2.13-2.075,3.05-4.194,2.524-5.812s-2.517-2.79-5.456-3.219
				c-7.527-1.093-16.389-7.531-19.749-14.349c-1.321-2.669-3.05-4.197-4.751-4.197s-3.43,1.528-4.751,4.197
				c-3.364,6.818-12.226,13.256-19.749,14.349c-2.946,0.429-4.938,1.601-5.46,3.219s0.397,3.738,2.527,5.812
				c5.442,5.311,8.828,15.725,7.545,23.221c-0.433,2.514-0.132,4.537,0.843,5.691c1.272,1.515,3.85,1.459,6.837-0.11
				C180.807,167.807,185.142,166.863,189.748,166.863z"/>
		</g>
		<g>
			<path fill="#3C2517" d="M206.122,174.953c-1.901,0-3.962-0.573-6.123-1.711c-2.637-1.387-6.376-2.182-10.251-2.182
				c-3.88,0-7.617,0.795-10.256,2.182c-4.847,2.548-9.445,2.133-12.004-0.899c-1.259-1.497-2.594-4.298-1.771-9.111
				c1.062-6.188-1.839-15.116-6.334-19.5c-4.543-4.429-4.197-8.243-3.589-10.12c0.608-1.877,2.572-5.163,8.851-6.075
				c6.21-0.902,13.811-6.42,16.586-12.049c2.812-5.691,6.538-6.542,8.517-6.542c1.974,0,5.705,0.851,8.512,6.542
				c2.78,5.629,10.377,11.146,16.59,12.049c6.279,0.913,8.239,4.198,8.851,6.075c0.609,1.877,0.955,5.691-3.592,10.12
				c-4.491,4.384-7.396,13.312-6.334,19.5c0.826,4.813-0.508,7.614-1.77,9.111C210.583,174.027,208.495,174.953,206.122,174.953z
				 M189.748,165.062c4.889,0,9.521,1.02,13.041,2.866c1.608,0.847,2.698,1.023,3.333,1.023c0.893,0,1.183-0.345,1.294-0.477
				c0.608-0.719,0.773-2.303,0.445-4.229c-1.393-8.143,2.145-19.041,8.06-24.808c1.885-1.84,2.297-3.285,2.075-3.969
				c-0.222-0.684-1.404-1.611-4.011-1.992c-8.178-1.189-17.446-7.925-21.104-15.334c-1.162-2.362-2.414-3.198-3.133-3.198
				c-0.72,0-1.971,0.836-3.133,3.198c-3.658,7.409-12.931,14.145-21.104,15.334c-2.607,0.38-3.79,1.307-4.011,1.992
				c-0.222,0.685,0.187,2.129,2.074,3.969c5.912,5.767,9.453,16.665,8.06,24.808c-0.328,1.926-0.166,3.509,0.443,4.229
				c0.11,0.132,0.404,0.477,1.296,0.477c0.633,0,1.726-0.176,3.329-1.023C180.226,166.082,184.858,165.062,189.748,165.062z"/>
		</g>
	</g>
</g>
</svg>
