<?xml version="1.0" encoding="utf-8"?>
<!-- Generator: Adobe Illustrator 16.0.0, SVG Export Plug-In . SVG Version: 6.00 Build 0)  -->
<!DOCTYPE svg PUBLIC "-//W3C//DTD SVG 1.1//EN" "http://www.w3.org/Graphics/SVG/1.1/DTD/svg11.dtd">
<svg version="1.1" id="Layer_1" xmlns="http://www.w3.org/2000/svg" xmlns:xlink="http://www.w3.org/1999/xlink" x="0px" y="0px"
	 width="500px" height="500px" viewBox="0 0 500 500" enable-background="new 0 0 500 500" xml:space="preserve">
<g id="Layer_1_copy_4">
	<g>
		<path fill="#FBB784" d="M417.91,49.758c-112.942,0-225.895,0-338.841,0c-11.612,2.823-18.836,10.041-21.652,21.655
			c0,112.945,0,225.897,0,338.842c2.816,11.614,10.04,18.834,21.652,21.659c112.946,0,225.896,0,338.841,0
			c11.616-2.825,18.834-10.045,21.656-21.659c0-112.942,0-225.895,0-338.842C436.744,59.798,429.526,52.581,417.91,49.758z
			 M375.237,224.275c-1.311,4.807-2.533,9.168-3.739,13.451v-29.411h6.921C378.474,213.015,376.603,219.258,375.237,224.275z
			 M371.419,160.064c0-9.168,0-18.338,0-27.506c14.435,0,28.872,0,43.306,0c0,9.554,0,19.108,0,28.662c-14.408,0-28.815,0-43.227,0
			v-1.156H371.419z M389.941,198.838c-5.068-5.122-9.295-11.087-18.443-12.126v-16.575c14.41,0,28.817,0,43.227,0
			c0,9.565,0,19.134,0,28.701H389.941z M372.053,74.598c14.022,0.417,29.712-0.837,42.672,0.637c0,14.862,0,29.722,0,44.583
			c-14.434,0-28.871,0-43.306,0C371.841,104.957,370.571,88.398,372.053,74.598z M82.255,76.509c-0.029-1.09,0.473-1.65,1.273-1.911
			c15.709,0,31.42,0,47.132,0c0,15.073,0,30.147,0,45.221c-16.134,0-32.272,0-48.405,0C82.255,105.382,82.255,90.947,82.255,76.509z
			 M82.255,132.558c15.923,0,31.845,0,47.769,0c0,9.554,0,19.108,0,28.662c-15.924,0-31.846,0-47.769,0
			C82.255,151.667,82.255,142.112,82.255,132.558z M82.892,170.137c15.711,0,31.423,0,47.132,0c0,9.765,0,19.53,0,29.298
			c-15.924,0-31.846,0-47.769,0C82.68,189.879,81.406,178.63,82.892,170.137z M82.255,235.738c0-9.341,0-18.683,0-28.023
			c15.923,0,31.845,0,47.769,0c0,9.341,0,18.682,0,28.023C114.1,235.738,98.178,235.738,82.255,235.738z M130.023,244.657
			c0,9.552,0,19.104,0,28.659c-15.924,0-31.846,0-47.769,0c0-9.556,0-19.107,0-28.659C98.178,244.657,114.1,244.657,130.023,244.657
			z M82.892,282.236c15.711,0,31.423,0,47.132,0c0,9.764,0,19.531,0,29.293c-15.924,0-31.846,0-47.769,0
			C82.68,301.975,81.406,290.725,82.892,282.236z M130.023,319.812c0,9.551,0,19.106,0,28.66c-15.924,0-31.846,0-47.769,0
			c0-9.554,0-19.109,0-28.66C98.178,319.812,114.1,319.812,130.023,319.812z M131.935,407.072
			c-16.353-0.418-34.388,0.841-49.68-0.643c0.425-14.854-0.849-31.414,0.637-45.22c16.346,0,32.694,0,49.043,0
			C131.935,376.496,131.935,391.787,131.935,407.072z M173.333,407.072c-9.553,0-19.105,0-28.661,0c0-15.285,0-30.576,0-45.861
			c9.556,0,19.108,0,28.661,0C173.333,376.496,173.333,391.787,173.333,407.072z M173.333,119.818c-9.979,0-19.957,0-29.932,0
			c0-15.073,0-30.147,0-45.221c9.975,0,19.953,0,29.932,0C173.333,89.671,173.333,104.745,173.333,119.818z M210.912,407.072
			c-9.556,0-19.108,0-28.661,0c0-15.285,0-30.576,0-45.861c9.553,0,19.105,0,28.661,0
			C210.912,376.496,210.912,391.787,210.912,407.072z M210.912,119.818c-9.556,0-19.108,0-28.661,0c0-15.073,0-30.147,0-45.221
			c9.553,0,19.105,0,28.661,0C210.912,89.671,210.912,104.745,210.912,119.818z M247.854,407.072c-9.341,0-18.686,0-28.026,0
			c0-15.285,0-30.576,0-45.861c9.341,0,18.686,0,28.026,0C247.854,376.496,247.854,391.787,247.854,407.072z M247.854,119.818
			c-9.341,0-18.686,0-28.026,0c0-15.073,0-30.147,0-45.221c9.341,0,18.686,0,28.026,0
			C247.854,89.671,247.854,104.745,247.854,119.818z M285.436,407.072c-9.557,0-19.109,0-28.666,0c0-15.285,0-30.576,0-45.861
			c9.557,0,19.109,0,28.666,0C285.436,376.496,285.436,391.787,285.436,407.072z M285.436,119.818c-9.557,0-19.109,0-28.666,0
			c0-15.073,0-30.147,0-45.221c9.557,0,19.109,0,28.666,0C285.436,89.671,285.436,104.745,285.436,119.818z M323.014,407.072
			c-9.557,0-19.111,0-28.664,0c0-15.285,0-30.576,0-45.861c9.553,0,19.107,0,28.664,0
			C323.014,376.496,323.014,391.787,323.014,407.072z M323.014,119.818c-9.557,0-19.111,0-28.664,0c0-15.073,0-30.147,0-45.221
			c9.553,0,19.107,0,28.664,0C323.014,89.671,323.014,104.745,323.014,119.818z M356.767,407.072c-8.277,0-16.56,0-24.839,0
			c0-15.285,0-30.576,0-45.861c8.279,0,16.562,0,24.839,0C356.767,376.496,356.767,391.787,356.767,407.072z M358.041,119.818
			c-8.704,0-17.408,0-26.113,0c0-15.073,0-30.147,0-45.221c8.705,0,17.409,0,26.113,0
			C358.041,89.671,358.041,104.745,358.041,119.818z M414.725,406.43c-13.808,1.482-30.351,0.225-45.221,0.643
			c0.427-15.075-0.848-31.848,0.638-45.861c14.862,0,29.727,0,44.583,0C414.725,376.286,414.725,391.359,414.725,406.43z
			 M414.725,348.473c-14.408,0-28.815,0-43.227,0v-28.66c14.41,0,28.817,0,43.227,0
			C414.725,329.364,414.725,338.919,414.725,348.473z M414.725,311.529c-14.408,0-28.815,0-43.227,0v-29.293
			c14.41,0,28.817,0,43.227,0C414.725,292,414.725,301.768,414.725,311.529z M414.725,273.316c-13.158,0-26.322,0-39.486,0
			c2.643-9.672,4.233-20.394,8.281-28.659c10.4,0,20.806,0,31.205,0C414.725,254.208,414.725,263.761,414.725,273.316z
			 M385.427,235.738c1.161-9.886,5.675-16.413,5.712-27.423h23.586c0,9.141,0,18.282,0,27.423
			C404.961,235.738,395.194,235.738,385.427,235.738z"/>
		<path fill="#2C2010" d="M417.91,434.498H79.069c-0.204,0-0.408-0.025-0.612-0.073c-12.573-3.054-20.498-10.984-23.553-23.56
			c-0.051-0.199-0.072-0.408-0.072-0.61V71.413c0-0.206,0.021-0.41,0.072-0.61c3.055-12.575,10.979-20.5,23.553-23.557
			c0.204-0.049,0.408-0.073,0.612-0.073H417.91c0.203,0,0.411,0.024,0.611,0.073c12.577,3.056,20.502,10.981,23.557,23.557
			c0.046,0.2,0.073,0.404,0.073,0.61v338.842c0,0.202-0.027,0.411-0.073,0.61c-3.055,12.578-10.979,20.506-23.557,23.56
			C418.321,434.472,418.113,434.498,417.91,434.498z M79.383,429.328h338.215c10.419-2.62,16.764-8.971,19.386-19.393V71.727
			c-2.622-10.418-8.967-16.763-19.386-19.385H79.383c-10.419,2.622-16.761,8.966-19.382,19.385v338.208
			C62.622,420.357,68.964,426.708,79.383,429.328z M397.218,409.762c-3.411,0-6.865-0.048-10.319-0.099
			c-5.854-0.084-11.712-0.168-17.32-0.009c-0.706-0.01-1.398-0.254-1.9-0.756c-0.503-0.502-0.774-1.188-0.758-1.9
			c0.16-5.688,0.077-11.75-0.006-17.611c-0.136-9.645-0.277-19.619,0.658-28.449c0.139-1.313,1.249-2.312,2.569-2.312h44.583
			c1.431,0,2.585,1.157,2.585,2.585v45.22c0,1.321-0.998,2.43-2.309,2.57C410.102,409.525,404.618,409.762,397.218,409.762z
			 M376.65,404.396c3.406,0,6.864,0.047,10.319,0.098c3.43,0.048,6.861,0.099,10.247,0.099c6.055,0,10.775-0.159,14.922-0.509
			v-40.288h-39.646c-0.659,7.961-0.536,16.873-0.412,25.519c0.073,5.002,0.146,10.143,0.066,15.115
			C373.636,404.408,375.139,404.396,376.65,404.396z M101.537,409.762c-8.103,0-14.124-0.236-19.533-0.758
			c-1.352-0.13-2.374-1.289-2.334-2.646c0.16-5.602,0.076-11.578-0.011-17.359c-0.136-9.52-0.276-19.359,0.662-28.062
			c0.142-1.314,1.249-2.31,2.57-2.31h49.043c1.426,0,2.584,1.157,2.584,2.585v45.861c0,0.699-0.28,1.365-0.778,1.853
			c-0.498,0.484-1.157,0.75-1.871,0.731c-6.178-0.155-12.599-0.072-19.025,0.008C109.059,409.714,105.275,409.762,101.537,409.762z
			 M84.894,404.064c4.643,0.363,9.898,0.527,16.644,0.527c3.717,0,7.479-0.051,11.241-0.099c5.573-0.076,11.147-0.146,16.572-0.058
			v-40.642H85.243c-0.658,7.83-0.535,16.614-0.411,25.129C84.9,393.938,84.974,399.091,84.894,404.064z M356.767,409.656h-24.839
			c-1.431,0-2.584-1.153-2.584-2.584V361.21c0-1.428,1.153-2.585,2.584-2.585h24.839c1.432,0,2.584,1.157,2.584,2.585v45.86
			C359.351,408.502,358.197,409.656,356.767,409.656z M334.513,404.486h19.669v-40.69h-19.669V404.486z M323.014,409.656H294.35
			c-1.428,0-2.584-1.153-2.584-2.584V361.21c0-1.428,1.156-2.585,2.584-2.585h28.664c1.427,0,2.584,1.157,2.584,2.585v45.86
			C325.598,408.502,324.439,409.656,323.014,409.656z M296.938,404.486h23.491v-40.69h-23.491V404.486z M285.436,409.656H256.77
			c-1.427,0-2.584-1.153-2.584-2.584V361.21c0-1.428,1.157-2.585,2.584-2.585h28.666c1.426,0,2.584,1.157,2.584,2.585v45.86
			C288.02,408.502,286.859,409.656,285.436,409.656z M259.354,404.486h23.496v-40.69h-23.496V404.486z M247.854,409.656h-28.026
			c-1.428,0-2.585-1.153-2.585-2.584V361.21c0-1.428,1.157-2.585,2.585-2.585h28.026c1.428,0,2.585,1.157,2.585,2.585v45.86
			C250.438,408.502,249.281,409.656,247.854,409.656z M222.412,404.486h22.857v-40.69h-22.857V404.486z M210.912,409.656h-28.661
			c-1.426,0-2.584-1.153-2.584-2.584V361.21c0-1.428,1.158-2.585,2.584-2.585h28.661c1.427,0,2.584,1.157,2.584,2.585v45.86
			C213.496,408.502,212.339,409.656,210.912,409.656z M184.836,404.486h23.49v-40.69h-23.49V404.486z M173.333,409.656h-28.661
			c-1.427,0-2.584-1.153-2.584-2.584V361.21c0-1.428,1.157-2.585,2.584-2.585h28.661c1.427,0,2.584,1.157,2.584,2.585v45.86
			C175.917,408.502,174.76,409.656,173.333,409.656z M147.256,404.486h23.492v-40.69h-23.492V404.486z M414.725,351.059h-43.227
			c-1.43,0-2.584-1.154-2.584-2.586v-28.66c0-1.432,1.154-2.584,2.584-2.584h43.227c1.431,0,2.585,1.152,2.585,2.584v28.66
			C417.31,349.904,416.154,351.059,414.725,351.059z M374.084,345.889h38.056v-23.492h-38.056V345.889z M130.023,351.059H82.255
			c-1.432,0-2.59-1.154-2.59-2.586v-28.66c0-1.432,1.158-2.584,2.59-2.584h47.769c1.431,0,2.584,1.152,2.584,2.584v28.66
			C132.607,349.904,131.454,351.059,130.023,351.059z M84.84,345.889h42.599v-23.492H84.84V345.889z M414.725,314.118h-43.227
			c-1.43,0-2.584-1.157-2.584-2.589v-29.293c0-1.43,1.154-2.584,2.584-2.584h43.227c1.431,0,2.585,1.154,2.585,2.584v29.293
			C417.31,312.96,416.154,314.118,414.725,314.118z M374.084,308.945h38.056V284.82h-38.056V308.945z M130.023,314.118H82.255
			c-0.707,0-1.379-0.287-1.867-0.8c-0.488-0.51-0.75-1.193-0.714-1.899c0.156-3.56,0.072-7.459-0.012-11.241
			c-0.139-6.33-0.279-12.881,0.682-18.385c0.217-1.238,1.292-2.141,2.548-2.141h47.132c1.431,0,2.584,1.154,2.584,2.584v29.294
			C132.607,312.96,131.454,314.118,130.023,314.118z M84.916,308.945h42.522V284.82H85.13c-0.526,4.599-0.414,9.998-0.298,15.244
			C84.894,303.008,84.96,306.029,84.916,308.945z M414.725,275.902h-39.486c-0.806,0-1.564-0.375-2.058-1.016
			c-0.486-0.638-0.647-1.472-0.437-2.25c0.782-2.867,1.474-5.828,2.162-8.787c1.636-7.02,3.327-14.274,6.291-20.329
			c0.432-0.888,1.336-1.449,2.321-1.449h31.205c1.431,0,2.585,1.157,2.585,2.584v28.66
			C417.31,274.748,416.154,275.902,414.725,275.902z M378.579,270.732h33.561v-23.49h-26.968c-2.313,5.268-3.793,11.619-5.23,17.779
			C379.504,266.902,379.053,268.829,378.579,270.732z M130.023,275.902H82.255c-1.432,0-2.59-1.154-2.59-2.586v-28.659
			c0-1.427,1.158-2.584,2.59-2.584h47.769c1.431,0,2.584,1.157,2.584,2.584v28.659C132.607,274.748,131.454,275.902,130.023,275.902
			z M84.84,270.732h42.599v-23.49H84.84V270.732z M371.503,240.311c-0.121,0-0.24-0.008-0.356-0.022
			c-1.281-0.174-2.231-1.271-2.231-2.562v-29.411c0-1.427,1.154-2.584,2.584-2.584h6.921c1.416,0,2.571,1.14,2.584,2.556
			c0.051,4.592-1.488,10.194-2.85,15.137l-0.423,1.53c-1.312,4.814-2.537,9.183-3.742,13.475
			C373.668,239.553,372.642,240.311,371.503,240.311z M374.084,210.9v7.771c0.694-2.66,1.324-5.361,1.601-7.771H374.084z
			 M414.725,238.323h-29.298c-0.734,0-1.44-0.313-1.931-0.866c-0.49-0.553-0.72-1.289-0.636-2.021
			c0.523-4.465,1.688-8.256,2.817-11.922c1.467-4.78,2.854-9.296,2.874-15.208c0.005-1.423,1.163-2.575,2.586-2.575h23.586
			c1.431,0,2.585,1.158,2.585,2.584v27.423C417.31,237.165,416.154,238.323,414.725,238.323z M388.444,233.154h23.694V210.9h-18.503
			c-0.351,5.453-1.704,9.854-3.015,14.132C389.788,227.74,388.991,230.335,388.444,233.154z M130.023,238.323H82.255
			c-1.432,0-2.59-1.158-2.59-2.584v-28.023c0-1.427,1.158-2.585,2.59-2.585h47.769c1.431,0,2.584,1.158,2.584,2.585v28.023
			C132.607,237.165,131.454,238.323,130.023,238.323z M84.84,233.154h42.599V210.3H84.84V233.154z M130.023,202.02H82.255
			c-0.707,0-1.379-0.288-1.867-0.797c-0.488-0.509-0.75-1.196-0.714-1.902c0.156-3.555,0.072-7.46-0.012-11.24
			c-0.139-6.332-0.279-12.881,0.682-18.389c0.217-1.238,1.292-2.141,2.548-2.141h47.132c1.431,0,2.584,1.158,2.584,2.586v29.298
			C132.607,200.862,131.454,202.02,130.023,202.02z M84.916,196.85h42.522v-24.127H85.13c-0.526,4.6-0.414,10-0.298,15.246
			C84.894,190.911,84.96,193.933,84.916,196.85z M414.725,201.422h-24.782c-0.689,0-1.355-0.277-1.839-0.766
			c-0.755-0.763-1.488-1.546-2.229-2.327c-4.186-4.438-7.799-8.269-14.667-9.05c-1.308-0.149-2.294-1.254-2.294-2.568v-16.575
			c0-1.428,1.154-2.586,2.584-2.586h43.227c1.431,0,2.585,1.158,2.585,2.586v28.701C417.31,200.265,416.154,201.422,414.725,201.422
			z M391.033,196.253h21.105v-23.531h-38.056v11.791c7.33,1.553,11.679,6.16,15.552,10.27
			C390.097,195.273,390.562,195.765,391.033,196.253z M414.725,163.805h-43.227c-1.43,0-2.584-1.158-2.584-2.585v-0.531
			c-0.055-0.201-0.08-0.41-0.08-0.625v-27.506c0-1.427,1.154-2.585,2.585-2.585h43.306c1.431,0,2.585,1.159,2.585,2.585v28.662
			C417.31,162.647,416.154,163.805,414.725,163.805z M374.003,158.633h38.137v-23.491h-38.137V158.633z M130.023,163.805H82.255
			c-1.432,0-2.59-1.158-2.59-2.585v-28.662c0-1.427,1.158-2.585,2.59-2.585h47.769c1.431,0,2.584,1.159,2.584,2.585v28.662
			C132.607,162.647,131.454,163.805,130.023,163.805z M84.84,158.633h42.599v-23.491H84.84V158.633z M414.725,122.404h-43.306
			c-0.698,0-1.369-0.284-1.853-0.784c-0.488-0.501-0.75-1.176-0.732-1.875c0.161-5.606,0.073-11.585-0.008-17.366
			c-0.137-9.518-0.279-19.358,0.66-28.056c0.142-1.343,1.281-2.387,2.643-2.309c5.285,0.157,10.812,0.071,16.333-0.009
			c3.277-0.049,6.554-0.096,9.783-0.096c6.992,0,12.166,0.232,16.773,0.757c1.305,0.149,2.29,1.251,2.29,2.568v44.583
			C417.31,121.247,416.154,122.404,414.725,122.404z M374.062,117.234h38.077V77.572c-3.854-0.338-8.253-0.493-13.895-0.493
			c-3.203,0-6.455,0.047-9.705,0.096c-4.766,0.069-9.528,0.142-14.141,0.062c-0.65,7.816-0.526,16.573-0.403,25.067
			C374.064,107.243,374.139,112.325,374.062,117.234z M358.041,122.404h-26.113c-1.431,0-2.584-1.157-2.584-2.586v-45.22
			c0-1.427,1.153-2.584,2.584-2.584h26.113c1.431,0,2.584,1.158,2.584,2.584v45.221
			C360.625,121.247,359.472,122.404,358.041,122.404z M334.513,117.234h20.943V77.185h-20.943V117.234z M323.014,122.404H294.35
			c-1.428,0-2.584-1.157-2.584-2.586v-45.22c0-1.427,1.156-2.584,2.584-2.584h28.664c1.427,0,2.584,1.158,2.584,2.584v45.221
			C325.598,121.247,324.439,122.404,323.014,122.404z M296.938,117.234h23.491V77.185h-23.491V117.234z M285.436,122.404H256.77
			c-1.427,0-2.584-1.157-2.584-2.586v-45.22c0-1.427,1.157-2.584,2.584-2.584h28.666c1.426,0,2.584,1.158,2.584,2.584v45.221
			C288.02,121.247,286.859,122.404,285.436,122.404z M259.354,117.234h23.496V77.185h-23.496V117.234z M247.854,122.404h-28.026
			c-1.428,0-2.585-1.157-2.585-2.586v-45.22c0-1.427,1.157-2.584,2.585-2.584h28.026c1.428,0,2.585,1.158,2.585,2.584v45.221
			C250.438,121.247,249.281,122.404,247.854,122.404z M222.412,117.234h22.857V77.185h-22.857V117.234z M210.912,122.404h-28.661
			c-1.426,0-2.584-1.157-2.584-2.586v-45.22c0-1.427,1.158-2.584,2.584-2.584h28.661c1.427,0,2.584,1.158,2.584,2.584v45.221
			C213.496,121.247,212.339,122.404,210.912,122.404z M184.836,117.234h23.49V77.185h-23.49V117.234z M173.333,122.404h-29.932
			c-1.432,0-2.588-1.157-2.588-2.586v-45.22c0-1.427,1.156-2.584,2.588-2.584h29.932c1.427,0,2.584,1.158,2.584,2.584v45.221
			C175.917,121.247,174.76,122.404,173.333,122.404z M145.986,117.234h24.762V77.185h-24.762V117.234z M130.66,122.404H82.255
			c-1.432,0-2.59-1.157-2.59-2.586v-43.31c-0.05-2.071,1.093-3.729,3.065-4.368c0.255-0.084,0.525-0.127,0.798-0.127h47.132
			c1.428,0,2.585,1.158,2.585,2.584v45.221C133.245,121.247,132.088,122.404,130.66,122.404z M84.84,117.234h43.236V77.185H84.84
			V117.234z"/>
	</g>
	<g>
		<g>
			<path fill="#F4DF98" d="M130.66,74.598c0,15.073,0,30.147,0,45.221c-16.134,0-32.272,0-48.405,0c0-14.436,0-28.872,0-43.31
				c-0.029-1.09,0.473-1.65,1.273-1.911C99.237,74.598,114.948,74.598,130.66,74.598z"/>
		</g>
		<g>
			<path fill="#F4DF98" d="M173.333,74.598c0,15.073,0,30.147,0,45.221c-9.979,0-19.957,0-29.932,0c0-15.073,0-30.147,0-45.221
				C153.376,74.598,163.354,74.598,173.333,74.598z"/>
		</g>
		<g>
			<path fill="#F4DF98" d="M210.912,74.598c0,15.073,0,30.147,0,45.221c-9.556,0-19.108,0-28.661,0c0-15.073,0-30.147,0-45.221
				C191.804,74.598,201.356,74.598,210.912,74.598z"/>
		</g>
		<g>
			<path fill="#F4DF98" d="M247.854,74.598c0,15.073,0,30.147,0,45.221c-9.341,0-18.686,0-28.026,0c0-15.073,0-30.147,0-45.221
				C229.168,74.598,238.513,74.598,247.854,74.598z"/>
		</g>
		<g>
			<path fill="#F4DF98" d="M285.436,74.598c0,15.073,0,30.147,0,45.221c-9.557,0-19.109,0-28.666,0c0-15.073,0-30.147,0-45.221
				C266.325,74.598,275.879,74.598,285.436,74.598z"/>
		</g>
		<g>
			<path fill="#F4DF98" d="M323.014,74.598c0,15.073,0,30.147,0,45.221c-9.557,0-19.111,0-28.664,0c0-15.073,0-30.147,0-45.221
				C303.901,74.598,313.457,74.598,323.014,74.598z"/>
		</g>
		<g>
			<path fill="#F4DF98" d="M358.041,74.598c0,15.073,0,30.147,0,45.221c-8.704,0-17.408,0-26.113,0c0-15.073,0-30.147,0-45.221
				C340.633,74.598,349.337,74.598,358.041,74.598z"/>
		</g>
		<g>
			<path fill="#F4DF98" d="M414.725,75.235c0,14.862,0,29.722,0,44.583c-14.434,0-28.871,0-43.306,0
				c0.422-14.861-0.848-31.42,0.634-45.221C386.075,75.015,401.765,73.761,414.725,75.235z"/>
		</g>
		<g>
			<path fill="#F4DF98" d="M130.023,132.558c0,9.554,0,19.108,0,28.662c-15.924,0-31.846,0-47.769,0c0-9.553,0-19.108,0-28.662
				C98.178,132.558,114.1,132.558,130.023,132.558z"/>
		</g>
		<g>
			<path fill="#F4DF98" d="M414.725,132.558c0,9.554,0,19.108,0,28.662c-14.434,0-28.871,0-43.306,0c0-9.553,0-19.108,0-28.662
				C385.854,132.558,400.291,132.558,414.725,132.558z"/>
		</g>
		<g>
			<path fill="#F4DF98" d="M130.023,170.137c0,9.765,0,19.53,0,29.298c-15.924,0-31.846,0-47.769,0
				c0.425-9.556-0.849-20.805,0.637-29.298C98.603,170.137,114.314,170.137,130.023,170.137z"/>
		</g>
		<g>
			<path fill="#F4DF98" d="M130.023,207.715c0,9.341,0,18.682,0,28.023c-15.924,0-31.846,0-47.769,0c0-9.341,0-18.683,0-28.023
				C98.178,207.715,114.1,207.715,130.023,207.715z"/>
		</g>
		<g>
			<path fill="#F4DF98" d="M130.023,244.657c0,9.552,0,19.104,0,28.659c-15.924,0-31.846,0-47.769,0c0-9.556,0-19.107,0-28.659
				C98.178,244.657,114.1,244.657,130.023,244.657z"/>
		</g>
		<g>
			<path fill="#F4DF98" d="M130.023,282.236c0,9.764,0,19.531,0,29.293c-15.924,0-31.846,0-47.769,0
				c0.425-9.555-0.849-20.805,0.637-29.293C98.603,282.236,114.314,282.236,130.023,282.236z"/>
		</g>
		<g>
			<path fill="#F4DF98" d="M414.725,282.236c0,9.764,0,19.531,0,29.293c-14.434,0-28.871,0-43.306,0c0-9.762,0-19.529,0-29.293
				C385.854,282.236,400.291,282.236,414.725,282.236z"/>
		</g>
		<g>
			<path fill="#F4DF98" d="M130.023,319.812c0,9.551,0,19.106,0,28.66c-15.924,0-31.846,0-47.769,0c0-9.554,0-19.109,0-28.66
				C98.178,319.812,114.1,319.812,130.023,319.812z"/>
		</g>
		<g>
			<path fill="#F4DF98" d="M414.725,319.812c0,9.551,0,19.106,0,28.66c-14.434,0-28.871,0-43.306,0c0-9.554,0-19.109,0-28.66
				C385.854,319.812,400.291,319.812,414.725,319.812z"/>
		</g>
		<g>
			<path fill="#F4DF98" d="M131.935,361.21c0,15.285,0,30.576,0,45.86c-16.353-0.418-34.388,0.842-49.68-0.641
				c0.425-14.855-0.849-31.416,0.637-45.221C99.237,361.21,115.586,361.21,131.935,361.21z"/>
		</g>
		<g>
			<path fill="#F4DF98" d="M173.333,361.21c0,15.285,0,30.576,0,45.86c-9.553,0-19.105,0-28.661,0c0-15.284,0-30.575,0-45.86
				C154.228,361.21,163.78,361.21,173.333,361.21z"/>
		</g>
		<g>
			<path fill="#F4DF98" d="M210.912,361.21c0,15.285,0,30.576,0,45.86c-9.556,0-19.108,0-28.661,0c0-15.284,0-30.575,0-45.86
				C191.804,361.21,201.356,361.21,210.912,361.21z"/>
		</g>
		<g>
			<path fill="#F4DF98" d="M247.854,361.21c0,15.285,0,30.576,0,45.86c-9.341,0-18.686,0-28.026,0c0-15.284,0-30.575,0-45.86
				C229.168,361.21,238.513,361.21,247.854,361.21z"/>
		</g>
		<g>
			<path fill="#F4DF98" d="M285.436,361.21c0,15.285,0,30.576,0,45.86c-9.557,0-19.109,0-28.666,0c0-15.284,0-30.575,0-45.86
				C266.325,361.21,275.879,361.21,285.436,361.21z"/>
		</g>
		<g>
			<path fill="#F4DF98" d="M323.014,361.21c0,15.285,0,30.576,0,45.86c-9.557,0-19.111,0-28.664,0c0-15.284,0-30.575,0-45.86
				C303.901,361.21,313.457,361.21,323.014,361.21z"/>
		</g>
		<g>
			<path fill="#F4DF98" d="M356.767,361.21c0,15.285,0,30.576,0,45.86c-8.277,0-16.56,0-24.839,0c0-15.284,0-30.575,0-45.86
				C340.207,361.21,348.488,361.21,356.767,361.21z"/>
		</g>
		<g>
			<path fill="#F4DF98" d="M414.725,361.21c0,15.075,0,30.149,0,45.22c-13.808,1.482-30.351,0.225-45.221,0.643
				c0.427-15.075-0.848-31.848,0.638-45.861C385.004,361.21,399.867,361.21,414.725,361.21z"/>
		</g>
		<g>
			<path fill="#F4DF98" d="M414.295,170.47c0,9.554,0,19.108,0,28.663c-14.434,0-28.871,0-43.309,0c0-9.555,0-19.108,0-28.663
				C385.424,170.47,399.861,170.47,414.295,170.47z"/>
		</g>
		<g>
			<path fill="#F4DF98" d="M414.725,207.521c0,9.553,0,19.108,0,28.661c-14.434,0-28.871,0-43.306,0c0-9.552,0-19.107,0-28.661
				C385.854,207.521,400.291,207.521,414.725,207.521z"/>
		</g>
		<g>
			<path fill="#F4DF98" d="M414.295,244.57c0,9.555,0,19.108,0,28.665c-14.434,0-28.871,0-43.309,0c0-9.557,0-19.109,0-28.665
				C385.424,244.57,399.861,244.57,414.295,244.57z"/>
		</g>
	</g>
	<g>
		<rect x="138.429" y="62.917" fill="#FBB784" width="39.207" height="76.474"/>
	</g>
	<g>
		<rect x="327.778" y="62.917" fill="#FBB784" width="39.202" height="76.474"/>
	</g>
	<g>
		<rect x="344.684" y="126.792" fill="#FBB784" width="76.474" height="39.203"/>
	</g>
	<g>
		<rect x="343.606" y="201.968" fill="#FBB784" width="76.473" height="39.201"/>
	</g>
	<g>
		<rect x="344.684" y="276.5" fill="#FBB784" width="76.474" height="39.203"/>
	</g>
	<g>
		<rect x="75.422" y="315.273" fill="#FBB784" width="76.477" height="39.203"/>
	</g>
	<g>
		<rect x="74.134" y="237.941" fill="#FBB784" width="76.469" height="39.204"/>
	</g>
	<g>
		<rect x="70.252" y="165.348" fill="#FBB784" width="76.473" height="39.203"/>
	</g>
	<g>
		<rect x="249.799" y="61.842" fill="#FBB784" width="39.201" height="76.473"/>
	</g>
	<g>
		<rect x="175.698" y="67.442" fill="#FBB784" width="39.2" height="76.473"/>
	</g>
	<g>
		<path fill="#6A2B84" d="M398.431,304.814c-9.562-7.144-8.118-26.235-7.893-28.697c3.207-3.152,5.198-7.536,5.198-12.389
			c0-9.605-7.786-17.396-17.395-17.396c-9.607,0-17.395,7.791-17.395,17.396c0,5.301,2.379,10.037,6.119,13.229
			c0.313,4.288,0.959,21.312-7.949,27.969c-10.229,7.646-18.42,10.655-18.525,22.506c-0.105,11.848,9.694,14.435,26.498,16.154
			c8.798,0.307,12.613,0.041,13.05,0.012c2.104,0.049,5.436,0.053,10.324-0.115c16.801-1.728,26.602-4.309,26.494-16.156
			C416.854,315.477,408.664,312.462,398.431,304.814z"/>
		<path fill="#27140E" d="M374.705,346.318c-1.969,0-4.512-0.036-7.705-0.146c-16.019-1.635-29.124-4.165-28.993-18.763
			c0.1-11.025,6.67-15.556,14.274-20.802c1.671-1.153,3.443-2.377,5.29-3.754c7.303-5.459,7.226-19.883,6.981-24.688
			c-3.945-3.764-6.188-8.966-6.188-14.438c0-11.021,8.963-19.981,19.979-19.981s19.979,8.961,19.979,19.981
			c0,5.062-1.87,9.824-5.276,13.524c-0.551,7.56,0.333,20.56,6.934,25.492c1.843,1.377,3.621,2.604,5.292,3.754
			c7.604,5.246,14.177,9.778,14.274,20.806c0.132,14.586-12.975,17.122-28.816,18.75c-5.229,0.187-8.508,0.172-10.646,0.129
			C379.711,346.219,377.952,346.318,374.705,346.318z M378.343,248.917c-8.165,0-14.809,6.644-14.809,14.812
			c0,4.332,1.898,8.438,5.213,11.26c0.522,0.451,0.848,1.089,0.897,1.781c0.384,5.229,0.863,22.871-8.979,30.226
			c-1.9,1.419-3.729,2.683-5.45,3.869c-7.458,5.147-11.962,8.253-12.038,16.593c-0.073,8.589,5.345,11.632,24.176,13.562
			c7.666,0.246,11.712,0.067,12.606,0c0.972,0.014,1.861,0.024,2.912,0.024c1.923,0,4.394-0.038,7.503-0.144
			c18.653-1.926,24.077-4.965,24.001-13.549c-0.077-8.344-4.579-11.449-12.042-16.597c-1.722-1.187-3.553-2.45-5.449-3.87
			c-10.491-7.834-9.27-27.199-8.92-31.005c0.06-0.608,0.328-1.176,0.765-1.604c2.852-2.809,4.421-6.553,4.421-10.547
			C393.148,255.561,386.508,248.917,378.343,248.917z"/>
	</g>
	<g>
		<g>
			<polygon fill="#F5803E" points="88.888,107.292 116.999,170.621 177.417,166.42 192.604,106.968 170.959,74.334 145.752,52.363 
							"/>
			<path fill="#27140E" d="M116.994,173.207c-1.012,0-1.943-0.598-2.359-1.537l-28.109-63.33c-0.444-0.992-0.216-2.155,0.567-2.908
				l56.865-54.929c0.966-0.932,2.483-0.97,3.495-0.089l25.202,21.971c0.176,0.153,0.328,0.328,0.459,0.521l21.646,32.634
				c0.403,0.608,0.53,1.361,0.349,2.069l-15.188,59.453c-0.272,1.08-1.208,1.862-2.322,1.939l-60.422,4.2
				C117.118,173.204,117.057,173.207,116.994,173.207z M91.981,107.894l26.644,60.022l56.753-3.944l14.438-56.533l-20.822-31.388
				l-23.15-20.181L91.981,107.894z"/>
		</g>
		<g>
			<polygon fill="#F7AC3D" points="145.752,52.363 184.529,126.033 203.591,154.142 232.351,142.833 201.006,86.611 			"/>
			<path fill="#27140E" d="M203.591,156.728c-0.836,0-1.646-0.407-2.141-1.136l-19.061-28.11c-0.058-0.078-0.105-0.162-0.148-0.246
				l-38.773-73.669c-0.547-1.032-0.327-2.299,0.523-3.094c0.853-0.794,2.134-0.923,3.123-0.308l55.254,34.25
				c0.371,0.233,0.685,0.555,0.896,0.94l31.345,56.221c0.363,0.652,0.424,1.427,0.173,2.13c-0.251,0.703-0.793,1.261-1.485,1.534
				l-28.758,11.309C204.229,156.669,203.908,156.728,203.591,156.728z M186.747,124.7l17.82,26.28l24.083-9.471l-29.574-53.053
				l-46.609-28.893L186.747,124.7z"/>
		</g>
		<g>
			<polygon fill="#F04B2A" points="177.744,111.815 116.999,170.621 179.682,194.532 232.351,142.833 			"/>
			<path fill="#27140E" d="M179.682,197.116c-0.31,0-0.623-0.054-0.921-0.169l-62.683-23.91c-0.828-0.314-1.436-1.03-1.614-1.895
				c-0.178-0.866,0.099-1.764,0.736-2.378l60.747-58.806c0.822-0.801,2.069-0.955,3.071-0.391l54.605,31.018
				c0.706,0.402,1.184,1.11,1.289,1.915c0.102,0.803-0.175,1.609-0.754,2.179l-52.665,51.699
				C180.999,196.859,180.344,197.116,179.682,197.116z M121.713,169.653l57.343,21.871l49.035-48.136l-49.942-28.369
				L121.713,169.653z"/>
		</g>
		<g>
			<path fill="#F5F5E6" d="M185.738,158.646c-2.94,3.471-7.534,4.412-10.258,2.102c-2.723-2.308-2.541-6.993,0.403-10.464
				c2.946-3.471,7.535-4.412,10.255-2.102C188.862,150.49,188.688,155.175,185.738,158.646z"/>
			<path fill="#27140E" d="M179.1,163.307c-1.704,0-3.24-0.543-4.453-1.573c-1.626-1.378-2.472-3.447-2.38-5.828
				c0.086-2.264,1.022-4.558,2.631-6.457c3.291-3.878,8.912-4.94,12.079-2.251c1.628,1.378,2.473,3.447,2.382,5.828
				c-0.088,2.265-1.02,4.558-2.633,6.457C184.694,161.877,181.845,163.307,179.1,163.307z M182.528,148.209
				c-1.999,0-4.114,1.088-5.657,2.911c-1.238,1.461-1.959,3.194-2.024,4.883c-0.058,1.569,0.462,2.905,1.471,3.759
				c2.111,1.789,6.058,0.855,8.438-1.951c1.237-1.461,1.955-3.194,2.017-4.884c0.062-1.569-0.459-2.905-1.466-3.759
				C184.566,148.541,183.605,148.209,182.528,148.209z"/>
		</g>
		<g>
			<path fill="#F5F5E6" d="M189.277,101.358c3.062,3.841,3.619,8.489,1.244,10.379c-2.373,1.891-6.776,0.307-9.84-3.534
				c-3.057-3.841-3.618-8.487-1.248-10.378C181.808,95.934,186.215,97.518,189.277,101.358z"/>
			<path fill="#27140E" d="M188.062,113.828c-2.803,0-6.021-1.847-8.387-4.82c-3.561-4.467-4.02-9.823-1.042-12.195
				c0.885-0.707,2.014-1.08,3.262-1.08c2.811,0,6.025,1.846,8.396,4.818c1.623,2.044,2.667,4.378,2.93,6.575
				c0.292,2.421-0.382,4.417-1.89,5.623C190.441,113.455,189.313,113.828,188.062,113.828z M181.895,98.318
				c-0.666,0-1.224,0.175-1.652,0.517c-1.781,1.419-1.115,5.338,1.451,8.562c2.479,3.112,6.298,4.698,8.024,3.329
				c1.06-0.843,1.042-2.424,0.936-3.292c-0.204-1.726-1.056-3.597-2.388-5.271C186.404,99.828,183.903,98.318,181.895,98.318z"/>
		</g>
		<g>
			<path fill="#F5F5E6" d="M198.483,91.018c3.062,3.843,3.622,8.489,1.249,10.381c-2.373,1.89-6.778,0.305-9.841-3.535
				c-3.061-3.841-3.622-8.487-1.247-10.378C191.017,85.595,195.427,87.177,198.483,91.018z"/>
			<path fill="#27140E" d="M197.271,103.488c-2.803,0-6.021-1.846-8.392-4.818c-3.556-4.469-4.015-9.825-1.04-12.195
				c0.884-0.707,2.016-1.082,3.265-1.082c2.812,0,6.021,1.848,8.391,4.821c1.628,2.042,2.67,4.377,2.931,6.572
				c0.296,2.423-0.378,4.419-1.889,5.623C199.653,103.114,198.524,103.488,197.271,103.488z M191.104,87.978
				c-0.67,0-1.223,0.175-1.652,0.519c-1.784,1.418-1.113,5.338,1.449,8.562c2.482,3.11,6.305,4.696,8.023,3.327
				c1.059-0.843,1.041-2.424,0.938-3.292c-0.207-1.726-1.056-3.597-2.388-5.27C195.611,89.489,193.114,87.978,191.104,87.978z"/>
		</g>
		<g>
			<path fill="#F5F5E6" d="M138.323,107.694c0,4.418-3.51,7.999-7.838,7.999c-4.324,0-7.834-3.581-7.834-7.999
				c0-4.416,3.51-7.996,7.834-7.996C134.813,99.698,138.323,103.278,138.323,107.694z"/>
			<path fill="#27140E" d="M130.485,116.984c-5.031,0-9.126-4.168-9.126-9.291c0-5.121,4.095-9.288,9.126-9.288
				c5.035,0,9.13,4.167,9.13,9.288C139.615,112.816,135.521,116.984,130.485,116.984z M130.485,100.99
				c-3.604,0-6.542,3.007-6.542,6.704c0,3.697,2.938,6.706,6.542,6.706c3.611,0,6.546-3.009,6.546-6.706
				C137.031,103.998,134.097,100.99,130.485,100.99z"/>
		</g>
		<g>
			<ellipse fill="#F5F5E6" cx="155.043" cy="108.502" rx="7.834" ry="7.998"/>
			<path fill="#27140E" d="M155.043,117.792c-5.03,0-9.13-4.167-9.13-9.29s4.1-9.289,9.13-9.289c5.035,0,9.13,4.167,9.13,9.289
				S160.078,117.792,155.043,117.792z M155.043,101.799c-3.607,0-6.546,3.007-6.546,6.704c0,3.696,2.938,6.706,6.546,6.706
				s6.545-3.009,6.545-6.706C161.588,104.806,158.65,101.799,155.043,101.799z"/>
		</g>
		<g>
			<path fill="#F5F5E6" d="M145.913,80.553c0,4.417-3.505,7.998-7.834,7.998c-4.325,0-7.833-3.581-7.833-7.998
				c0-4.416,3.508-7.998,7.833-7.998C142.408,72.556,145.913,76.138,145.913,80.553z"/>
			<path fill="#27140E" d="M138.079,89.844c-5.031,0-9.125-4.168-9.125-9.291c0-5.122,4.094-9.29,9.125-9.29
				c5.035,0,9.13,4.168,9.13,9.29C147.209,85.676,143.114,89.844,138.079,89.844z M138.079,73.848c-3.604,0-6.541,3.009-6.541,6.705
				c0,3.697,2.937,6.704,6.541,6.704c3.608,0,6.545-3.006,6.545-6.704C144.624,76.857,141.688,73.848,138.079,73.848z"/>
		</g>
		<g>
			<ellipse fill="#F5F5E6" cx="106.9" cy="109.472" rx="7.838" ry="7.997"/>
			<path fill="#27140E" d="M106.899,118.761c-5.034,0-9.127-4.167-9.127-9.289c0-5.122,4.093-9.29,9.127-9.29
				c5.035,0,9.127,4.168,9.127,9.29C116.026,114.594,111.935,118.761,106.899,118.761z M106.899,102.767
				c-3.606,0-6.541,3.009-6.541,6.706c0,3.697,2.935,6.704,6.541,6.704c3.607,0,6.542-3.007,6.542-6.704
				C113.441,105.776,110.507,102.767,106.899,102.767z"/>
		</g>
		<g>
			<ellipse fill="#F5F5E6" cx="122.731" cy="137.906" rx="7.833" ry="7.998"/>
			<path fill="#27140E" d="M122.732,147.195c-5.032,0-9.127-4.168-9.127-9.29c0-5.122,4.095-9.289,9.127-9.289
				c5.033,0,9.129,4.167,9.129,9.289C131.861,143.027,127.766,147.195,122.732,147.195z M122.732,131.202
				c-3.604,0-6.543,3.007-6.543,6.704c0,3.696,2.939,6.706,6.543,6.706c3.607,0,6.545-3.009,6.545-6.706
				C129.277,134.208,126.34,131.202,122.732,131.202z"/>
		</g>
	</g>
	<g>
		<g>
			<polygon fill="#E2E55A" points="386.471,120.754 322.819,127.862 270.15,165.019 322.496,199.431 388.737,164.535 			"/>
			<path fill="#27140E" d="M322.496,202.016c-0.495,0-0.989-0.142-1.42-0.426l-52.346-34.411c-0.713-0.469-1.148-1.263-1.164-2.117
				c-0.012-0.855,0.396-1.662,1.096-2.155l52.669-37.157c0.356-0.253,0.769-0.409,1.201-0.457l63.65-7.109
				c0.711-0.084,1.42,0.138,1.964,0.598c0.541,0.461,0.869,1.127,0.909,1.837l2.262,43.783c0.051,1.005-0.488,1.951-1.381,2.421
				L323.7,201.717C323.323,201.917,322.91,202.016,322.496,202.016z M274.746,164.944l47.896,31.489l63.427-33.415l-2.035-39.391
				l-60.266,6.729L274.746,164.944z"/>
		</g>
		<g>
			<polygon fill="#86B13F" points="270.15,165.019 365.146,156.943 385.827,192.97 367.73,238.043 297.294,239.495 			"/>
			<path fill="#27140E" d="M297.294,242.08c-1.085,0-2.058-0.677-2.429-1.696l-27.143-74.478c-0.271-0.757-0.182-1.598,0.25-2.277
				c0.435-0.679,1.158-1.116,1.961-1.185l94.993-8.078c0.983-0.095,1.962,0.418,2.462,1.289l20.681,36.026
				c0.393,0.688,0.453,1.517,0.156,2.252l-18.097,45.074c-0.385,0.961-1.307,1.602-2.345,1.62l-70.437,1.453
				C297.331,242.08,297.312,242.08,297.294,242.08z M273.736,167.309l25.352,69.566l66.881-1.38l16.993-42.327l-19.235-33.511
				L273.736,167.309z"/>
		</g>
		<g>
			<polygon fill="#C0D13D" points="338.168,159.365 386.471,120.754 412.971,190.061 367.73,238.043 			"/>
			<path fill="#27140E" d="M367.73,240.627c-0.167,0-0.339-0.018-0.51-0.047c-0.874-0.179-1.595-0.794-1.911-1.627l-29.563-78.679
				c-0.393-1.046-0.068-2.228,0.81-2.928l48.304-38.612c0.645-0.515,1.497-0.691,2.294-0.475c0.794,0.217,1.44,0.801,1.732,1.572
				l26.494,69.308c0.356,0.926,0.148,1.975-0.532,2.695l-45.233,47.982C369.122,240.339,368.438,240.627,367.73,240.627z
				 M341.247,160.212l27.449,73.042l41.276-43.785l-24.651-64.487L341.247,160.212z"/>
		</g>
		<g>
			<path fill="#F5F5E6" d="M383.92,169.58c2.049,4.377,0.827,9.272-2.729,10.936c-3.554,1.663-8.098-0.532-10.148-4.913
				c-2.05-4.379-0.823-9.274,2.732-10.938C377.326,163.002,381.871,165.199,383.92,169.58z"/>
			<path fill="#27140E" d="M378.659,182.363c-3.57,0-7.022-2.438-8.787-6.212c-1.119-2.384-1.409-4.995-0.822-7.348
				c0.614-2.45,2.097-4.336,4.175-5.308c0.961-0.45,1.998-0.677,3.079-0.677c3.568,0,7.02,2.438,8.787,6.214
				c2.347,5.017,0.842,10.693-3.354,12.655C380.774,182.138,379.741,182.363,378.659,182.363z M376.304,165.403
				c-0.703,0-1.368,0.146-1.981,0.434c-1.362,0.637-2.342,1.913-2.762,3.592c-0.442,1.779-0.214,3.778,0.651,5.628
				c1.687,3.602,5.581,5.617,8.431,4.288c2.906-1.357,3.85-5.493,2.109-9.217C381.427,167.303,378.833,165.403,376.304,165.403z"/>
		</g>
		<g>
			
				<ellipse transform="matrix(-0.3356 -0.942 0.942 -0.3356 307.4552 492.0854)" fill="#F5F5E6" cx="327.262" cy="137.618" rx="4.928" ry="9.45"/>
			<path fill="#27140E" d="M323.613,144.549c-3.312,0-5.729-1.235-6.473-3.309c-0.612-1.717-0.005-3.679,1.707-5.524
				c1.512-1.624,3.756-3.023,6.326-3.94c1.938-0.688,3.922-1.054,5.733-1.054c3.315,0,5.733,1.238,6.473,3.309
				c0.615,1.717,0.008,3.68-1.703,5.526c-1.511,1.624-3.757,3.023-6.327,3.939C327.414,144.185,325.431,144.549,323.613,144.549z
				 M330.908,133.306c-1.521,0-3.202,0.313-4.866,0.906c-2.155,0.767-4.085,1.955-5.298,3.262c-1.008,1.09-1.438,2.146-1.168,2.897
				c0.599,1.669,4.943,2.101,8.905,0.688c2.153-0.767,4.088-1.957,5.299-3.262c1.01-1.09,1.435-2.146,1.168-2.897
				C334.604,133.932,333.017,133.306,330.908,133.306z"/>
		</g>
		<g>
			
				<ellipse transform="matrix(-0.3354 -0.9421 0.9421 -0.3354 302.8856 515.6448)" fill="#F5F5E6" cx="333.326" cy="150.986" rx="4.929" ry="9.451"/>
			<path fill="#27140E" d="M329.675,157.878c-3.315,0-5.731-1.238-6.473-3.309c-0.615-1.717-0.007-3.679,1.703-5.524
				c1.512-1.625,3.758-3.025,6.328-3.94c1.936-0.69,3.92-1.054,5.735-1.054c3.313,0,5.73,1.236,6.474,3.309
				c0.611,1.717,0.004,3.679-1.707,5.524c-1.512,1.625-3.758,3.025-6.327,3.94C333.472,157.514,331.486,157.878,329.675,157.878z
				 M336.97,146.635c-1.523,0-3.207,0.313-4.867,0.905c-2.157,0.769-4.088,1.957-5.3,3.264c-1.009,1.088-1.435,2.146-1.168,2.897
				c0.597,1.667,4.946,2.099,8.907,0.688c2.155-0.768,4.084-1.957,5.297-3.264c1.008-1.088,1.438-2.146,1.168-2.898
				C340.661,147.259,339.079,146.635,336.97,146.635z"/>
		</g>
		<g>
			<ellipse fill="#F5F5E6" cx="326.293" cy="180.124" rx="7.673" ry="7.999"/>
			<path fill="#27140E" d="M326.294,189.415c-4.945,0-8.968-4.168-8.968-9.291c0-5.121,4.021-9.288,8.968-9.288
				c4.942,0,8.965,4.167,8.965,9.288C335.259,185.246,331.236,189.415,326.294,189.415z M326.294,173.421
				c-3.521,0-6.382,3.007-6.382,6.703c0,3.697,2.861,6.706,6.382,6.706s6.381-3.009,6.381-6.706
				C332.675,176.428,329.812,173.421,326.294,173.421z"/>
		</g>
		<g>
			<ellipse fill="#F5F5E6" cx="315.387" cy="200.724" rx="7.674" ry="7.998"/>
			<path fill="#27140E" d="M315.387,210.013c-4.943,0-8.966-4.168-8.966-9.29s4.021-9.291,8.966-9.291
				c4.947,0,8.971,4.168,8.971,9.291C324.356,205.845,320.334,210.013,315.387,210.013z M315.387,194.02
				c-3.517,0-6.378,3.006-6.378,6.704c0,3.696,2.861,6.706,6.378,6.706c3.521,0,6.381-3.009,6.381-6.706
				C321.768,197.026,318.906,194.02,315.387,194.02z"/>
		</g>
		<g>
			<ellipse fill="#F5F5E6" cx="340.913" cy="220.918" rx="7.674" ry="7.996"/>
			<path fill="#27140E" d="M340.913,230.208c-4.945,0-8.967-4.168-8.967-9.29s4.021-9.291,8.967-9.291s8.966,4.168,8.966,9.291
				C349.879,226.04,345.859,230.208,340.913,230.208z M340.913,214.213c-3.517,0-6.382,3.008-6.382,6.705
				c0,3.696,2.865,6.704,6.382,6.704c3.52,0,6.382-3.007,6.382-6.704C347.295,217.221,344.433,214.213,340.913,214.213z"/>
		</g>
		<g>
			<path fill="#F5F5E6" d="M315.307,223.827c0,4.416-3.433,7.996-7.675,7.996c-4.235,0-7.674-3.58-7.674-7.996
				c0-4.417,3.438-7.998,7.674-7.998C311.874,215.829,315.307,219.41,315.307,223.827z"/>
			<path fill="#27140E" d="M307.632,233.115c-4.941,0-8.966-4.167-8.966-9.288c0-5.123,4.023-9.291,8.966-9.291
				c4.947,0,8.967,4.168,8.967,9.291C316.599,228.948,312.579,233.115,307.632,233.115z M307.632,217.122
				c-3.516,0-6.381,3.006-6.381,6.706c0,3.696,2.865,6.704,6.381,6.704c3.521,0,6.382-3.007,6.382-6.704
				C314.014,220.128,311.152,217.122,307.632,217.122z"/>
		</g>
		<g>
			<ellipse fill="#F5F5E6" cx="292.609" cy="182.791" rx="7.673" ry="7.996"/>
			<path fill="#27140E" d="M292.609,192.079c-4.944,0-8.967-4.166-8.967-9.288s4.021-9.291,8.967-9.291
				c4.941,0,8.967,4.168,8.967,9.291S297.552,192.079,292.609,192.079z M292.609,176.085c-3.521,0-6.383,3.009-6.383,6.706
				c0,3.697,2.86,6.704,6.383,6.704c3.52,0,6.38-3.007,6.38-6.704C298.989,179.094,296.129,176.085,292.609,176.085z"/>
		</g>
	</g>
	<g>
		<rect x="138.429" y="347.688" fill="#FBB784" width="39.207" height="76.469"/>
	</g>
	<g>
		<rect x="214.039" y="346.824" fill="#FBB784" width="39.203" height="76.473"/>
	</g>
	<g>
		<rect x="289.865" y="343.38" fill="#FBB784" width="39.197" height="76.47"/>
	</g>
	<g>
		<path fill="#ED1F6C" d="M144.679,364.698c-9.562-7.144-8.117-26.235-7.887-28.692c3.202-3.156,5.189-7.54,5.189-12.393
			c0-9.606-7.783-17.397-17.39-17.397c-9.607,0-17.397,7.791-17.397,17.397c0,5.3,2.381,10.035,6.124,13.229
			c0.312,4.293,0.956,21.312-7.952,27.971c-10.229,7.645-18.42,10.658-18.528,22.508c-0.102,11.846,9.697,14.435,26.498,16.152
			c8.803,0.305,12.62,0.043,13.05,0.01c2.105,0.049,5.44,0.052,10.325-0.115c16.803-1.727,26.603-4.309,26.494-16.156
			C163.099,375.359,154.912,372.35,144.679,364.698z"/>
		<path fill="#27140E" d="M120.956,406.202c-1.974,0-4.515-0.036-7.711-0.146c-16.018-1.637-29.119-4.166-28.992-18.765
			c0.103-11.024,6.669-15.554,14.277-20.799c1.675-1.155,3.447-2.378,5.287-3.755c7.312-5.469,7.229-19.883,6.981-24.686
			c-3.946-3.768-6.189-8.966-6.189-14.441c0-11.02,8.963-19.98,19.982-19.98c11.017,0,19.975,8.962,19.975,19.98
			c0,5.063-1.863,9.826-5.278,13.524c-0.547,7.56,0.338,20.562,6.938,25.493c1.847,1.376,3.618,2.602,5.293,3.757
			c7.605,5.245,14.176,9.778,14.27,20.802c0.132,14.588-12.97,17.123-28.815,18.75c-5.235,0.187-8.512,0.172-10.638,0.127
			C125.965,406.104,124.203,406.202,120.956,406.202z M124.592,308.801c-8.165,0-14.812,6.643-14.812,14.812
			c0,4.332,1.9,8.438,5.213,11.264c0.523,0.443,0.853,1.085,0.902,1.775c0.383,5.23,0.874,22.865-8.98,30.229
			c-1.896,1.416-3.725,2.677-5.448,3.866c-7.464,5.145-11.963,8.253-12.04,16.593c-0.076,8.589,5.345,11.632,24.177,13.562
			c2.94,0.095,5.427,0.131,7.354,0.131c3.082,0,4.703-0.086,5.252-0.127c0.973,0.011,1.856,0.021,2.909,0.021
			c1.922,0,4.397-0.034,7.506-0.142c18.653-1.924,24.077-4.967,23.997-13.551c-0.072-8.34-4.579-11.444-12.035-16.592
			c-1.726-1.189-3.553-2.453-5.453-3.873c-10.491-7.836-9.268-27.201-8.919-31.006c0.059-0.607,0.328-1.175,0.765-1.604
			c2.851-2.808,4.42-6.554,4.42-10.546C139.397,315.443,132.758,308.801,124.592,308.801z"/>
	</g>
	<g>
		<path fill="#4FA0CA" d="M311.407,347.468c-9.562-7.143-8.118-26.235-7.893-28.696c3.208-3.156,5.193-7.535,5.193-12.39
			c0-9.606-7.786-17.396-17.39-17.396c-9.609,0-17.396,7.789-17.396,17.396c0,5.302,2.377,10.037,6.119,13.226
			c0.316,4.293,0.962,21.312-7.947,27.974c-10.232,7.642-18.42,10.655-18.527,22.506c-0.106,11.851,9.692,14.435,26.498,16.155
			c8.802,0.302,12.617,0.039,13.051,0.011c2.104,0.044,5.435,0.052,10.322-0.116c16.801-1.726,26.602-4.307,26.494-16.156
			C329.828,358.13,321.638,355.116,311.407,347.468z"/>
		<path fill="#27140E" d="M287.68,388.971c-1.97,0-4.514-0.035-7.705-0.147c-16.019-1.632-29.123-4.165-28.992-18.759
			c0.102-11.026,6.668-15.561,14.276-20.806c1.671-1.149,3.447-2.374,5.285-3.749c7.313-5.468,7.229-19.888,6.983-24.689
			c-3.946-3.764-6.189-8.967-6.189-14.438c0-11.019,8.967-19.981,19.98-19.981c11.018,0,19.978,8.964,19.978,19.981
			c0,5.062-1.869,9.826-5.279,13.524c-0.547,7.562,0.339,20.561,6.938,25.492c1.842,1.377,3.618,2.601,5.289,3.754
			c7.607,5.248,14.176,9.781,14.273,20.806c0.132,14.586-12.972,17.119-28.812,18.75c-5.239,0.183-8.512,0.172-10.645,0.128
			C292.688,388.873,290.932,388.971,287.68,388.971z M291.318,291.57c-8.168,0-14.812,6.644-14.812,14.812
			c0,4.332,1.899,8.435,5.214,11.261c0.523,0.447,0.848,1.088,0.897,1.776c0.386,5.231,0.874,22.865-8.978,30.229
			c-1.9,1.42-3.729,2.68-5.449,3.869c-7.463,5.145-11.965,8.25-12.039,16.59c-0.075,8.592,5.346,11.635,24.174,13.563
			c7.665,0.25,11.714,0.065,12.609,0c0.969,0.015,1.855,0.021,2.91,0.021c1.92,0,4.392-0.032,7.505-0.137
			c18.648-1.926,24.072-4.967,23.996-13.555c-0.075-8.34-4.574-11.443-12.039-16.592c-1.722-1.188-3.553-2.45-5.448-3.87
			c-10.491-7.838-9.27-27.205-8.919-31.006c0.06-0.607,0.323-1.177,0.761-1.604c2.854-2.807,4.423-6.553,4.423-10.547
			C306.125,298.213,299.485,291.57,291.318,291.57z"/>
	</g>
	<g>
		<path fill="#F58020" d="M232.136,268.628c-9.568-7.144-8.118-26.235-7.89-28.696c3.204-3.153,5.191-7.538,5.191-12.389
			c0-9.608-7.79-17.397-17.394-17.397c-9.606,0-17.394,7.789-17.394,17.397c0,5.3,2.377,10.037,6.119,13.226
			c0.317,4.292,0.958,21.311-7.949,27.973c-10.234,7.641-18.422,10.654-18.525,22.505c-0.106,11.851,9.692,14.435,26.494,16.155
			c8.802,0.303,12.621,0.039,13.054,0.011c2.104,0.044,5.435,0.051,10.319-0.115c16.801-1.726,26.601-4.307,26.499-16.155
			C250.553,279.292,242.36,276.277,232.136,268.628z"/>
		<path fill="#27140E" d="M208.407,310.133c-1.969,0-4.514-0.037-7.706-0.15c-16.018-1.629-29.124-4.164-28.993-18.758
			c0.1-11.026,6.67-15.56,14.279-20.805c1.671-1.154,3.443-2.374,5.284-3.75c7.311-5.468,7.229-19.887,6.982-24.689
			c-3.944-3.768-6.188-8.966-6.188-14.438c0-11.019,8.962-19.983,19.978-19.983s19.978,8.964,19.978,19.983
			c0,5.06-1.863,9.826-5.278,13.521c-0.545,7.564,0.336,20.564,6.939,25.493c1.842,1.381,3.618,2.604,5.293,3.76
			c7.601,5.248,14.167,9.779,14.267,20.803c0.131,14.587-12.972,17.12-28.813,18.752c-5.235,0.184-8.513,0.171-10.641,0.128
			C213.416,310.035,211.654,310.133,208.407,310.133z M212.044,212.731c-8.166,0-14.81,6.644-14.81,14.812
			c0,4.333,1.901,8.435,5.213,11.26c0.525,0.451,0.85,1.088,0.9,1.776c0.382,5.231,0.87,22.864-8.98,30.229
			c-1.897,1.42-3.725,2.68-5.447,3.865c-7.462,5.146-11.969,8.253-12.041,16.594c-0.078,8.59,5.344,11.635,24.176,13.56
			c2.944,0.099,5.427,0.136,7.353,0.136c3.084,0,4.703-0.091,5.254-0.132c0.971,0.017,1.855,0.022,2.911,0.022
			c1.923,0,4.395-0.033,7.503-0.139c18.653-1.926,24.074-4.966,23.997-13.555c-0.073-8.336-4.575-11.444-12.03-16.592
			c-1.727-1.188-3.554-2.449-5.454-3.869c-10.491-7.836-9.268-27.202-8.919-31.005c0.058-0.608,0.327-1.176,0.762-1.605
			c2.85-2.807,4.422-6.553,4.422-10.546C226.853,219.375,220.213,212.731,212.044,212.731z"/>
	</g>
</g>
</svg>
