<?xml version="1.0" encoding="utf-8"?>
<!-- Generator: Adobe Illustrator 16.0.0, SVG Export Plug-In . SVG Version: 6.00 Build 0)  -->
<!DOCTYPE svg PUBLIC "-//W3C//DTD SVG 1.1//EN" "http://www.w3.org/Graphics/SVG/1.1/DTD/svg11.dtd">
<svg version="1.1" id="Layer_1" xmlns="http://www.w3.org/2000/svg" xmlns:xlink="http://www.w3.org/1999/xlink" x="0px" y="0px"
	 width="500px" height="500px" viewBox="0 0 500 500" enable-background="new 0 0 500 500" xml:space="preserve">
<g id="Layer_1_copy_90">
	<g>
		<path fill="#678E64" d="M115.223,460.333c-19.784,0-21.637-17.635-21.637-17.635V259.46
			c56.267-32.355,3.092-189.625,3.092-189.625l78.524-26.585c0,0,3.096,79.76,75.44,81.62h1.488
			c72.333-1.86,75.42-81.62,75.42-81.62l78.533,26.585c0,0-53.179,157.27,3.092,189.625v183.238c0,0-1.855,17.635-21.645,17.635
			C367.747,460.333,135.016,460.333,115.223,460.333z"/>
		<path fill="#27140E" d="M387.532,463.18h-272.31c-17.675,0-23.738-13.204-24.472-20.185c-0.013-0.098-0.013-0.197-0.013-0.297
			V259.46c0-1.021,0.547-1.961,1.429-2.466C145.77,226.17,94.503,72.3,93.978,70.744c-0.506-1.484,0.296-3.104,1.784-3.609
			l78.524-26.585c0.854-0.28,1.789-0.156,2.526,0.353c0.742,0.509,1.199,1.339,1.234,2.233c0.125,3.147,3.874,77.122,72.667,78.886
			h1.416c68.704-1.764,72.453-75.738,72.578-78.882c0.035-0.898,0.488-1.728,1.23-2.237c0.737-0.509,1.673-0.642,2.524-0.353
			l78.529,26.585c1.492,0.505,2.29,2.125,1.785,3.609c-0.521,1.556-51.791,155.425,1.812,186.25
			c0.887,0.505,1.433,1.445,1.433,2.466v183.238c0,0.1-0.009,0.199-0.017,0.297C411.27,449.976,405.211,463.18,387.532,463.18z
			 M96.433,442.522c0.209,1.535,2.527,14.964,18.79,14.964h272.31c16.376,0,18.593-13.38,18.797-14.956V261.073
			c-52.008-32.733-10.822-167.849-3.833-189.446l-72.421-24.516c-1.793,16.147-12.948,78.938-77.872,80.602l-1.56,0.004
			c-64.996-1.668-76.164-64.462-77.96-80.605l-72.418,24.516c6.986,21.597,48.175,156.713-3.833,189.446V442.522z"/>
	</g>
	<g>
		<g>
			<path fill="#CAD7AB" d="M103.891,436.727c0,8.643-7.012,15.659-15.662,15.659l0,0c-8.653,0-15.671-7.018-15.671-15.659V282.542
				c0-8.646,7.018-15.66,15.671-15.66l0,0c8.65,0,15.662,7.015,15.662,15.66V436.727z"/>
			<path fill="#27140E" d="M88.229,455.233c-10.208,0-18.518-8.302-18.518-18.507V282.542c0-10.205,8.31-18.506,18.518-18.506
				c10.209,0,18.51,8.301,18.51,18.506v154.186C106.738,446.932,98.438,455.233,88.229,455.233z M88.229,269.729
				c-7.069,0-12.823,5.746-12.823,12.812v154.186c0,7.062,5.754,12.812,12.823,12.812c7.065,0,12.815-5.75,12.815-12.812V282.542
				C101.044,275.475,95.294,269.729,88.229,269.729z"/>
		</g>
		<g>
			<path fill="#CAD7AB" d="M423.784,436.727c0,8.643-7.018,15.659-15.653,15.659l0,0c-8.653,0-15.671-7.018-15.671-15.659V282.542
				c0-8.646,7.018-15.66,15.671-15.66l0,0c8.637,0,15.653,7.015,15.653,15.66V436.727z"/>
			<path fill="#27140E" d="M408.131,455.233c-10.21,0-18.518-8.302-18.518-18.507V282.542c0-10.205,8.308-18.506,18.518-18.506
				c10.2,0,18.501,8.301,18.501,18.506v154.186C426.632,446.932,418.331,455.233,408.131,455.233z M408.131,269.729
				c-7.07,0-12.82,5.746-12.82,12.812v154.186c0,7.062,5.75,12.812,12.82,12.812c7.062,0,12.808-5.75,12.808-12.812V282.542
				C420.938,275.475,415.192,269.729,408.131,269.729z"/>
		</g>
		<g>
			<path fill="#CAD7AB" d="M178.916,68.604c0,0,9.07,21.019,10.726,23.084c1.64,2.061-79.423,28.177-79.423,28.177l-6.328-25.727
				L178.916,68.604z"/>
			<path fill="#27140E" d="M110.219,122.712c-0.48,0-0.954-0.124-1.388-0.361c-0.689-0.385-1.187-1.042-1.375-1.809l-6.332-25.723
				c-0.353-1.436,0.449-2.903,1.849-3.376l75.028-25.539c1.403-0.473,2.943,0.205,3.528,1.568
				c4.295,9.952,9.344,21.076,10.354,22.459c0.525,0.722,0.763,1.841,0.502,2.69c-0.533,1.761-1.26,4.17-81.292,29.949
				C110.808,122.665,110.515,122.712,110.219,122.712z M107.279,95.991l4.978,20.226c25.982-8.404,64.389-21.268,73.604-25.438
				c-2.295-4.475-6.088-13.06-8.514-18.638L107.279,95.991z"/>
		</g>
		<g>
			<path fill="#CAD7AB" d="M324.192,66.43c0,0-9.062,21.028-10.702,23.097c-1.664,2.053,79.414,28.173,79.414,28.173l6.318-25.735
				L324.192,66.43z"/>
			<path fill="#27140E" d="M392.904,120.547c-0.292,0-0.585-0.048-0.87-0.136c-80.053-25.788-80.771-28.202-81.291-29.961
				c-0.272-0.898-0.057-1.985,0.533-2.715c0.966-1.339,6.008-12.471,10.302-22.431c0.585-1.364,2.133-2.037,3.532-1.568
				l75.032,25.535c1.396,0.477,2.196,1.94,1.845,3.376l-6.315,25.727c-0.188,0.771-0.688,1.428-1.38,1.813
				C393.867,120.423,393.387,120.547,392.904,120.547z M317.264,88.613c9.207,4.17,47.62,17.033,73.608,25.438l4.965-20.23
				l-70.073-23.846C323.343,75.549,319.549,84.142,317.264,88.613z"/>
		</g>
	</g>
	<g>
		<path fill="#74AD74" d="M353.696,184.432c0,13.208-10.705,23.915-23.898,23.915H179.75c-13.214,0-23.915-10.707-23.915-23.915l0,0
			c0-13.208,10.701-23.915,23.915-23.915h150.048C342.991,160.518,353.696,171.224,353.696,184.432L353.696,184.432z"/>
		<path fill="#27140E" d="M329.798,211.193H179.75c-14.757,0-26.763-12.005-26.763-26.761c0-14.756,12.006-26.762,26.763-26.762
			h150.048c14.748,0,26.746,12.005,26.746,26.762C356.544,199.189,344.546,211.193,329.798,211.193z M179.75,163.365
			c-11.621,0-21.068,9.455-21.068,21.067c0,11.617,9.447,21.068,21.068,21.068h150.048c11.608,0,21.052-9.451,21.052-21.068
			c0-11.613-9.442-21.067-21.052-21.067H179.75z"/>
	</g>
	<g>
		<rect x="122.027" y="259.46" fill="#74AD74" width="257.236" height="30.502"/>
		<path fill="#27140E" d="M379.264,292.811H122.027c-1.575,0-2.847-1.271-2.847-2.849V259.46c0-1.576,1.271-2.847,2.847-2.847
			h257.236c1.571,0,2.848,1.271,2.848,2.847v30.502C382.11,291.54,380.835,292.811,379.264,292.811z M124.874,287.116h251.543
			v-24.81H124.874V287.116z"/>
	</g>
	<g>
		<rect x="122.027" y="327.471" fill="#74AD74" width="257.236" height="30.504"/>
		<path fill="#27140E" d="M379.264,360.82H122.027c-1.575,0-2.847-1.274-2.847-2.846v-30.504c0-1.57,1.271-2.847,2.847-2.847
			h257.236c1.571,0,2.848,1.274,2.848,2.847v30.504C382.11,359.545,380.835,360.82,379.264,360.82z M124.874,355.123h251.543
			v-24.805H124.874V355.123z"/>
	</g>
	<g>
		<rect x="122.027" y="395.486" fill="#74AD74" width="257.236" height="30.504"/>
		<path fill="#27140E" d="M379.264,428.836H122.027c-1.575,0-2.847-1.271-2.847-2.847v-30.505c0-1.57,1.271-2.846,2.847-2.846
			h257.236c1.571,0,2.848,1.274,2.848,2.846v30.505C382.11,427.565,380.835,428.836,379.264,428.836z M124.874,423.142h251.543
			v-24.809H124.874V423.142z"/>
	</g>
	<g>
		<polygon fill="#74AD74" points="178.839,117.091 134.823,131.791 107.865,51.049 151.881,36.356 		"/>
		<path fill="#27140E" d="M134.823,134.638c-1.191,0-2.302-0.753-2.702-1.944l-26.958-80.743c-0.237-0.718-0.181-1.5,0.156-2.177
			c0.336-0.673,0.93-1.187,1.644-1.428l44.021-14.691c1.483-0.49,3.104,0.312,3.601,1.804l26.958,80.734
			c0.236,0.714,0.18,1.5-0.156,2.174c-0.337,0.673-0.927,1.187-1.645,1.427l-44.016,14.7
			C135.425,134.589,135.12,134.638,134.823,134.638z M111.465,52.845l25.155,75.345l38.618-12.896l-25.154-75.337L111.465,52.845z"
			/>
	</g>
	<g>
		<polygon fill="#74AD74" points="323.884,114.645 367.739,129.83 395.6,49.396 351.748,34.215 		"/>
		<path fill="#27140E" d="M367.739,132.681c-0.313,0-0.626-0.056-0.936-0.161l-43.852-15.186c-0.714-0.244-1.3-0.766-1.628-1.447
			c-0.333-0.678-0.377-1.459-0.133-2.173l27.859-80.43c0.519-1.487,2.143-2.273,3.625-1.76l43.854,15.177
			c0.713,0.249,1.299,0.771,1.628,1.448c0.332,0.682,0.381,1.463,0.132,2.178l-27.86,80.434
			C370.021,131.939,368.918,132.681,367.739,132.681z M327.508,112.888l38.471,13.321l25.996-75.056L353.504,37.84L327.508,112.888z
			"/>
	</g>
</g>
</svg>
