<?xml version="1.0" encoding="utf-8"?>
<!-- Generator: Adobe Illustrator 16.0.0, SVG Export Plug-In . SVG Version: 6.00 Build 0)  -->
<!DOCTYPE svg PUBLIC "-//W3C//DTD SVG 1.1//EN" "http://www.w3.org/Graphics/SVG/1.1/DTD/svg11.dtd">
<svg version="1.1" id="Layer_1" xmlns="http://www.w3.org/2000/svg" xmlns:xlink="http://www.w3.org/1999/xlink" x="0px" y="0px"
	 width="500px" height="500px" viewBox="0 0 500 500" enable-background="new 0 0 500 500" xml:space="preserve">
<g id="Layer_1_copy_56">
	<path fill="#F5EEB7" d="M183.201,54.296c0,0,14.509-14.156,58.569-22.208c43.119,9.699,100.65,56.662,100.65,56.662l49.907,39.862
		l4.589,24.577l-47.07,37.075l-91.033-25.996L183.201,54.296z"/>
	<path fill="#27140E" d="M349.846,194.502c-0.396,0-0.79-0.054-1.164-0.157l-91.037-25.996c-0.942-0.277-1.767-0.871-2.328-1.678
		L179.712,56.697c-1.172-1.7-0.943-3.993,0.532-5.435c0.628-0.616,15.952-15.154,60.771-23.347c0.551-0.101,1.133-0.089,1.692,0.037
		c43.58,9.806,100.005,55.578,102.391,57.516l49.878,39.834c0.8,0.634,1.334,1.533,1.521,2.533l4.588,24.581
		c0.281,1.549-0.309,3.131-1.552,4.102l-47.07,37.083C351.706,194.193,350.781,194.502,349.846,194.502z M261.438,160.608
		l87.488,24.984l43.354-34.149l-3.828-20.503l-48.679-38.874c-0.598-0.491-56.548-45.867-98.097-55.651
		c-31.112,5.795-46.829,14.703-52.715,18.772L261.438,160.608z"/>
	<path fill="#E5784E" d="M403.025,136.993c0,0-2.021-15.158-26.354-32.193L255.548,25.583c0,0-18.088-3.015-26.628,9.385
		c8.092-1.785,11.287,0.106,11.287,0.106S400.343,128.223,390.81,143.91c-11.622,19.128-1.716,14.803-1.716,14.803l14.278-20.719"/>
	<path fill="#27140E" d="M387.195,161.958c-1.339,0-2.688-0.415-3.672-1.548c-2.53-2.903-1.122-8.104,4.869-17.969
		c0.26-0.879,0.507-10.204-72.332-57.425c-37.869-24.549-76.881-47.271-77.272-47.498c0.005,0,0.005,0,0.005,0
		c-0.016,0-2.739-1.229-9.269,0.206c-1.126,0.245-2.306-0.219-2.945-1.181c-0.654-0.963-0.65-2.224,0.016-3.179
		c9.443-13.713,28.603-10.706,29.416-10.567c0.39,0.065,0.761,0.206,1.077,0.425l121.133,79.209
		c24.797,17.366,27.444,33.094,27.599,34.159c0.523,0.913,0.517,2.081-0.122,3.009l-14.275,20.716
		c-0.297,0.441-0.715,0.78-1.194,0.989C389.345,161.688,388.271,161.958,387.195,161.958z M236.825,31.429
		c2.915,0.207,4.418,0.974,4.821,1.213c14.967,8.707,146.546,85.784,152.149,107.857c0.586,2.291,0.012,3.923-0.571,4.878
		c-2.758,4.538-4.074,7.418-4.697,9.176l11.722-17.018c-0.008-0.045-0.016-0.099-0.023-0.148
		c-0.037-0.229-2.448-14.362-25.174-30.272L254.539,28.302C252.309,28.041,243.699,27.394,236.825,31.429z"/>
	<path fill="#FBBA61" d="M399.575,134.224c0,0,7.901,0.079,3.572,76.626c-4.699,82.935-12.263,191.923-12.263,191.923
		s-12.779,23.104-53.169,20.052c-40.384-3.073,5.938-269.218,5.938-269.218S376.032,162.898,399.575,134.224z"/>
	<path fill="#27140E" d="M344.931,427.336c-2.444,0-4.976-0.099-7.537-0.297c-3.972-0.297-7.43-2.29-10.245-5.92
		c-27.754-35.656,10.685-258.762,12.334-268.243c0.198-1.179,0.901-2.229,1.923-2.865c1.021-0.639,2.256-0.814,3.423-0.479
		c0.027,0.008,4.607,1.27,11.35,1.27l0,0c11.09,0,27.043-3.34,40.119-19.269c0.817-0.986,2.018-1.549,3.317-1.545
		c0.768,0.004,2.252,0.243,3.646,1.728c5.389,5.76,6.771,32.46,4.117,79.377c-4.649,82.007-12.194,190.884-12.27,191.978
		c-0.042,0.617-0.217,1.218-0.521,1.76C394.085,405.755,381.708,427.336,344.931,427.336z M347.095,158.61
		c-11.354,66.61-33.938,230.744-13.259,257.297c1.747,2.252,3.238,2.618,4.205,2.679c2.335,0.191,4.651,0.266,6.89,0.266
		c28.222,0,39.518-14.098,41.797-17.433c0.795-11.481,7.787-113.19,12.187-190.809c2.479-43.835,0.883-61.66-0.533-68.755
		c-14.229,14.251-30.536,17.429-42.203,17.429l0,0C352.531,159.284,349.427,158.96,347.095,158.61z"/>
	<path fill="#FCCA8B" d="M171.624,65.601l8.645,215.107c0,0-2.269,29.656,25.591,46.981
		c27.854,17.324,129.072,94.593,129.072,94.593l8.014-268.139L191.189,55.887C191.189,55.887,168.108,39.415,171.624,65.601z"/>
	<path fill="#27140E" d="M334.932,426.522c-0.904,0-1.811-0.297-2.562-0.868c-1.013-0.776-101.38-77.354-128.745-94.365
		c-28.582-17.768-27.792-47.256-27.595-50.625l-8.632-214.705c-0.974-7.461-0.05-12.688,2.826-15.978
		c1.976-2.252,4.761-3.446,8.067-3.446c6.89,0,14.521,5.299,15.365,5.902l151.592,98.148c1.247,0.807,1.979,2.208,1.937,3.69
		l-8.013,268.144c-0.051,1.584-0.975,3.013-2.417,3.69C336.184,426.393,335.557,426.522,334.932,426.522z M178.29,55.016
		c-1.2,0-1.542,0.386-1.687,0.549c-0.414,0.476-1.708,2.568-0.772,9.468c0.007,0.131,0.02,0.264,0.03,0.394l8.645,215.111
		c0.004,0.166,0,0.331-0.011,0.494c-0.08,1.104-1.625,27.372,23.603,43.062c23.906,14.864,99.803,72.303,122.854,89.826
		l7.688-257.513l-149.75-96.962C186.373,57.669,181.449,55.016,178.29,55.016z"/>
	<path fill="#27140E" d="M352.87,142.749c-0.535,0-1.084-0.148-1.562-0.472L217.24,53.381c-1.298-0.861-1.652-2.616-0.792-3.917
		c0.856-1.295,2.622-1.654,3.916-0.791l134.07,88.894c1.293,0.865,1.65,2.611,0.791,3.916
		C354.682,142.304,353.784,142.749,352.87,142.749z"/>
	<path fill="#27140E" d="M367.369,137.765c-0.54,0-1.08-0.148-1.56-0.464l-134.066-88.9c-1.301-0.862-1.659-2.616-0.797-3.913
		c0.857-1.301,2.614-1.659,3.916-0.795l134.07,88.895c1.293,0.867,1.651,2.617,0.789,3.919
		C369.18,137.323,368.282,137.765,367.369,137.765z"/>
	<path fill="#F5EEB7" d="M96.122,101.056c0,0,14.512-14.155,58.575-22.211c43.105,9.704,100.641,56.665,100.641,56.665l49.911,39.86
		l4.585,24.577l-47.072,37.072l-91.028-25.993L96.122,101.056z"/>
	<path fill="#27140E" d="M262.761,241.26c-0.384,0-0.776-0.058-1.163-0.171L170.565,215.1c-0.946-0.267-1.772-0.86-2.331-1.674
		L92.638,103.454c-1.172-1.698-0.946-3.992,0.525-5.433c0.632-0.612,15.948-15.153,60.77-23.352c0.556-0.098,1.138-0.086,1.697,0.04
		c43.576,9.81,100.013,55.572,102.396,57.516l49.868,39.83c0.797,0.635,1.335,1.533,1.525,2.537l4.578,24.574
		c0.296,1.552-0.306,3.131-1.542,4.109l-47.073,37.067C264.625,240.944,263.7,241.26,262.761,241.26z M174.362,207.369l87.481,24.98
		l43.354-34.142l-3.82-20.514l-48.687-38.871c-0.598-0.486-56.539-45.865-98.083-55.656c-31.121,5.804-46.834,14.708-52.724,18.781
		L174.362,207.369z"/>
	<path fill="#593160" d="M315.94,183.754c0,0-2.015-15.161-26.348-32.201L168.466,72.34c0,0-18.094-3.011-26.624,9.379
		c8.08-1.777,11.296,0.11,11.296,0.11s160.131,93.144,150.59,108.837c-11.615,19.125-1.704,14.803-1.704,14.803l14.263-20.716"/>
	<path fill="#27140E" d="M300.113,208.715c-1.339,0-2.684-0.418-3.676-1.548c-2.529-2.896-1.115-8.104,4.877-17.965
		c0.26-0.882,0.514-10.204-72.323-57.433c-37.87-24.546-76.889-47.273-77.276-47.501c0,0.006,0,0.006,0,0.006
		c-0.02,0.003-2.755-1.225-9.268,0.207c-1.139,0.248-2.307-0.22-2.956-1.181c-0.637-0.959-0.637-2.226,0.022-3.179
		c9.442-13.711,28.609-10.702,29.421-10.565c0.381,0.062,0.745,0.205,1.079,0.424l121.121,79.207
		c24.84,17.398,27.458,33.149,27.605,34.161c0.517,0.913,0.51,2.084-0.129,3.009l-14.268,20.719c-0.306,0.434-0.717,0.776-1.2,0.986
		C302.26,208.449,301.188,208.715,300.113,208.715z M149.747,78.186c2.911,0.207,4.414,0.968,4.817,1.205
		c14.974,8.708,146.55,85.786,152.152,107.86c0.587,2.294,0.01,3.93-0.574,4.892c-2.757,4.532-4.068,7.408-4.689,9.169
		l11.715-17.006c-0.004-0.061-0.016-0.11-0.027-0.16c-0.037-0.229-2.44-14.362-25.171-30.276L167.46,75.059
		C165.224,74.804,156.623,74.15,149.747,78.186z"/>
	<path fill="#805887" d="M312.49,180.985c0,0,7.912,0.072,3.575,76.619c-4.698,82.931-12.268,191.936-12.268,191.936
		s-12.771,23.101-53.155,20.034c-40.389-3.065,5.933-269.208,5.933-269.208S288.959,209.659,312.49,180.985z"/>
	<path fill="#27140E" d="M257.846,474.094c-2.436,0-4.97-0.101-7.518-0.289c-3.988-0.312-7.438-2.298-10.266-5.93
		c-27.754-35.661,10.684-258.757,12.334-268.234c0.209-1.19,0.901-2.229,1.93-2.873c1.016-0.639,2.255-0.814,3.412-0.483
		c0.035,0.011,4.611,1.278,11.354,1.278c11.094,0,27.059-3.34,40.125-19.27c0.814-1.001,1.982-1.605,3.312-1.545
		c0.765,0,2.256,0.24,3.649,1.728c5.394,5.752,6.776,32.464,4.121,79.374c-4.645,81.998-12.192,190.89-12.272,191.979
		c-0.045,0.624-0.217,1.219-0.518,1.749C307,452.507,294.643,474.094,257.846,474.094z M260.01,205.367
		c-11.341,66.609-33.933,230.733-13.251,257.305c1.746,2.245,3.233,2.603,4.204,2.679c2.336,0.175,4.657,0.267,6.883,0.267
		c28.275,0,39.479-14.008,41.801-17.426c0.787-11.473,7.795-113.201,12.186-190.823c2.484-43.839,0.888-61.664-0.524-68.755
		c-14.229,14.255-30.532,17.425-42.21,17.425c0,0,0,0-0.005,0C265.458,206.037,262.342,205.721,260.01,205.367z"/>
	<path fill="#A7ABD6" d="M84.542,112.357l8.645,215.112c0,0-2.265,29.658,25.597,46.977
		c27.853,17.328,129.075,94.597,129.075,94.597l8.008-268.133l-151.754-98.262C104.112,102.647,81.031,86.172,84.542,112.357z"/>
	<path fill="#27140E" d="M247.858,473.278c-0.913,0-1.822-0.287-2.567-0.859c-1.018-0.774-101.384-77.353-128.744-94.373
		c-28.588-17.769-27.791-47.259-27.607-50.621l-8.62-214.71c-0.975-7.458-0.05-12.686,2.831-15.975
		c1.966-2.254,4.755-3.447,8.061-3.447c6.894,0,14.519,5.3,15.367,5.903l151.595,98.152c1.235,0.807,1.975,2.206,1.93,3.687
		l-8.01,268.144c-0.042,1.575-0.98,3.015-2.411,3.69C249.102,473.15,248.479,473.278,247.858,473.278z M91.211,101.771
		c-1.202,0-1.536,0.39-1.685,0.553c-0.415,0.472-1.709,2.566-0.783,9.466c0.013,0.129,0.032,0.26,0.038,0.397l8.639,215.112
		c0.008,0.17,0,0.325-0.007,0.493c-0.076,1.103-1.622,27.365,23.604,43.063c23.902,14.857,99.807,72.299,122.851,89.821
		l7.688-257.517l-149.75-96.953C99.292,104.426,94.374,101.771,91.211,101.771z"/>
	<path fill="#27140E" d="M265.784,189.506c-0.536,0-1.076-0.155-1.556-0.471l-134.066-88.899c-1.298-0.86-1.655-2.611-0.8-3.916
		c0.868-1.299,2.623-1.653,3.924-0.795l134.067,88.903c1.301,0.86,1.653,2.614,0.793,3.919
		C267.6,189.061,266.702,189.506,265.784,189.506z"/>
	<path fill="#27140E" d="M280.284,184.522c-0.533,0-1.073-0.148-1.556-0.472l-134.07-88.892c-1.294-0.86-1.652-2.614-0.789-3.915
		c0.864-1.303,2.614-1.657,3.923-0.792l134.056,88.889c1.301,0.868,1.659,2.614,0.797,3.918
		C282.098,184.074,281.197,184.522,280.284,184.522z"/>
	<path fill="#CDCCCC" d="M299.391,296.881l-26.787-1.013l0.238-6.368l18.083,0.67l-17.991-3.22l0.176-4.517l17.764-2.012
		l-17.665-0.683l0.235-6.367l26.793,1l-0.357,9.435c-1.622,0.226-3.523,0.436-5.729,0.656l-6.85,0.773l12.447,2.146L299.391,296.881
		z"/>
	<path fill="#CDCCCC" d="M298.701,315.066l-26.939,3.162l0.281-7.444l4.824-0.22l0.104-2.601l-4.802-0.62l0.286-7.531l26.648,4.713
		L298.701,315.066z M281.631,310.561c3.044-0.261,6.809-0.49,11.287-0.693c-5.102-0.936-8.833-1.541-11.199-1.824L281.631,310.561z"
		/>
	<path fill="#CDCCCC" d="M297.927,335.861l-5.36-0.195l0.158-4.326l-21.428-0.812l0.278-7.293l21.428,0.803l0.16-4.301l5.36,0.195
		L297.927,335.861z"/>
	<path fill="#CDCCCC" d="M297.13,356.959l-26.782-1.012l0.272-7.288l11.255,0.418l0.083-2.179l-11.258-0.426l0.271-7.291
		l26.791,1.008l-0.272,7.297l-9.576-0.364l-0.088,2.176l9.579,0.364L297.13,356.959z"/>
	<path fill="#CDCCCC" d="M288.232,377.688l0.261-6.766l1.981,0.062c0.934,0.045,1.521-0.023,1.781-0.191
		c0.262-0.167,0.4-0.447,0.415-0.852c0.015-0.435-0.142-0.775-0.471-1.012c-0.341-0.236-0.854-0.365-1.556-0.402
		c-0.896-0.031-1.565,0.076-2.029,0.311c-0.461,0.229-1.035,0.891-1.717,2.001c-1.959,3.175-3.549,5.167-4.764,5.968
		c-1.205,0.797-3.135,1.14-5.752,1.049c-1.913-0.084-3.306-0.364-4.189-0.866c-0.893-0.496-1.611-1.433-2.176-2.793
		c-0.56-1.363-0.811-2.931-0.746-4.712c0.073-1.945,0.494-3.604,1.242-4.959c0.76-1.354,1.694-2.215,2.807-2.611
		c1.106-0.381,2.66-0.531,4.672-0.464l1.755,0.067l-0.255,6.771l-3.258-0.121c-1.006-0.036-1.658,0.03-1.947,0.215
		c-0.293,0.184-0.452,0.508-0.467,0.996c-0.021,0.486,0.149,0.854,0.502,1.104c0.355,0.252,0.894,0.388,1.607,0.412
		c1.575,0.066,2.617-0.114,3.12-0.549c0.502-0.449,1.358-1.561,2.563-3.326c1.215-1.778,2.085-2.944,2.634-3.515
		c0.536-0.571,1.272-1.021,2.202-1.379c0.932-0.356,2.107-0.5,3.529-0.455c2.047,0.074,3.539,0.419,4.467,0.996
		c0.926,0.586,1.637,1.499,2.127,2.74c0.492,1.247,0.703,2.739,0.636,4.467c-0.063,1.901-0.422,3.492-1.054,4.81
		c-0.639,1.308-1.408,2.168-2.312,2.562c-0.902,0.402-2.42,0.557-4.551,0.479L288.232,377.688z"/>
	<path fill="#B8454E" d="M385.586,222.104l-0.529,12.155l-5.359-0.228l0.214-4.862l-5.08-0.225l-0.197,4.55l-5.095-0.213
		l0.202-4.554l-5.895-0.254l-0.225,5.353l-5.364-0.236l0.543-12.631L385.586,222.104z"/>
	<path fill="#B8454E" d="M384.136,255.773l-26.783-1.148l0.277-6.388l12.334-3.272l-12.17-0.521l0.258-6.094l26.785,1.148
		l-0.268,6.095l-12.234,3.568l12.061,0.521L384.136,255.773z"/>
	<path fill="#B8454E" d="M373.312,277.657l0.313-7.286l2.437,0.107c1.532,0.063,2.491,0.033,2.888-0.08
		c0.389-0.127,0.594-0.445,0.621-0.965c0.019-0.445-0.144-0.76-0.461-0.941c-0.323-0.174-1.164-0.289-2.534-0.346l-12.853-0.549
		c-1.202-0.063-1.997-0.012-2.39,0.131c-0.384,0.14-0.59,0.463-0.608,0.953c-0.021,0.524,0.177,0.891,0.603,1.101
		c0.419,0.2,1.248,0.35,2.5,0.403l3.176,0.133l0.062-1.473l4.07,0.172l-0.368,8.541l-14.374-0.625l0.198-4.588l1.948-0.576
		c-0.807-0.543-1.401-1.192-1.774-1.961c-0.388-0.781-0.555-1.679-0.51-2.701c0.054-1.226,0.381-2.369,0.997-3.416
		c0.612-1.039,1.352-1.818,2.21-2.346c0.868-0.512,1.768-0.816,2.69-0.916c0.92-0.099,2.302-0.108,4.146-0.031l7.959,0.341
		c2.553,0.106,4.405,0.342,5.556,0.678c1.146,0.33,2.173,1.205,3.077,2.617c0.902,1.403,1.313,3.202,1.224,5.371
		c-0.097,2.122-0.591,3.888-1.488,5.258c-0.902,1.373-1.937,2.248-3.104,2.626c-1.169,0.381-2.851,0.521-5.05,0.426L373.312,277.657
		z"/>
	<path fill="#B8454E" d="M382.626,290.859l-21.428-0.909l-0.189,4.422l-5.356-0.229l0.51-11.727l26.775,1.158L382.626,290.859z"/>
	<path fill="#B8454E" d="M381.934,307.014l-26.774-1.15l0.303-7.289l26.781,1.145L381.934,307.014z"/>
	<path fill="#B8454E" d="M372.92,327.693l0.289-6.771l1.99,0.093c0.921,0.032,1.518-0.033,1.776-0.188
		c0.263-0.162,0.402-0.449,0.419-0.849c0.02-0.44-0.138-0.776-0.474-1.022c-0.33-0.245-0.84-0.376-1.537-0.403
		c-0.893-0.035-1.57,0.062-2.043,0.293c-0.457,0.221-1.038,0.891-1.723,1.994c-1.976,3.161-3.579,5.145-4.79,5.934
		c-1.222,0.795-3.139,1.131-5.769,1.021c-1.901-0.086-3.299-0.381-4.181-0.894c-0.891-0.502-1.604-1.437-2.161-2.797
		c-0.552-1.371-0.788-2.938-0.715-4.722c0.088-1.952,0.514-3.6,1.271-4.95c0.771-1.342,1.702-2.209,2.811-2.595
		c1.115-0.38,2.675-0.521,4.684-0.435l1.75,0.068l-0.296,6.78l-3.254-0.147c-1.004-0.045-1.654,0.025-1.951,0.207
		c-0.294,0.176-0.452,0.51-0.469,1.002c-0.024,0.48,0.143,0.842,0.499,1.096c0.352,0.246,0.886,0.4,1.603,0.432
		c1.574,0.061,2.621-0.123,3.124-0.546c0.507-0.44,1.364-1.539,2.583-3.301c1.218-1.774,2.107-2.931,2.646-3.497
		c0.542-0.574,1.282-1.034,2.211-1.376c0.937-0.343,2.111-0.491,3.534-0.437c2.052,0.096,3.546,0.437,4.466,1.029
		c0.926,0.589,1.625,1.51,2.113,2.752c0.479,1.237,0.685,2.733,0.611,4.457c-0.084,1.896-0.445,3.504-1.093,4.809
		c-0.643,1.308-1.42,2.151-2.319,2.558c-0.906,0.392-2.429,0.543-4.551,0.446L372.92,327.693z"/>
	<path fill="#B8454E" d="M380.065,350.364l-26.775-1.156l0.304-7.291l11.254,0.489l0.096-2.184l-11.25-0.498l0.314-7.285l26.78,1.16
		l-0.316,7.285l-9.582-0.41l-0.093,2.18l9.58,0.419L380.065,350.364z"/>
</g>
</svg>
