<?xml version="1.0" encoding="utf-8"?>
<!-- Generator: Adobe Illustrator 16.0.0, SVG Export Plug-In . SVG Version: 6.00 Build 0)  -->
<!DOCTYPE svg PUBLIC "-//W3C//DTD SVG 1.1//EN" "http://www.w3.org/Graphics/SVG/1.1/DTD/svg11.dtd">
<svg version="1.1" id="Layer_1" xmlns="http://www.w3.org/2000/svg" xmlns:xlink="http://www.w3.org/1999/xlink" x="0px" y="0px"
	 width="500px" height="500px" viewBox="0 0 500 500" enable-background="new 0 0 500 500" xml:space="preserve">
<g id="Layer_1_copy_99">
	<g>
		<g>
			<path fill="#764E2A" d="M157.022,101.517c0,0,37.774,125.306,11.053,152.945c-26.819,27.729-52.516,28.554-93.977,34.999
				c0,0-36.854,10.139-34.09,54.365c2.768,44.222,90.693,42.246,128.99,36.854c37.593-5.295,90.294-2.769,90.294-35.016l8.29,13.82
				c0,0,56.2-0.924,80.16-22.112c7.988-21.251-12.535-77.858-17.506-98.416c-4.611-19.045-6.451-166-2.765-170.61
				C331.155,63.741,206.775,72.035,157.022,101.517z"/>
			<path fill="#3C2517" d="M127.431,387.609c-57.288,0-89.803-15.461-91.56-43.526c-2.94-47.044,36.725-58.507,37.128-58.62
				c0.155-0.039,0.304-0.078,0.459-0.1c4.591-0.715,8.978-1.355,13.197-1.977c33.453-4.904,55.561-8.146,78.442-31.808
				c20.527-21.232-1.741-114.659-12.046-148.866c-0.55-1.827,0.216-3.792,1.856-4.764C196.325,73.406,289.3,63.013,319.307,63.013
				c7.67,0,10.626,0.494,11.958,3.25c0.628,1.306,0.564,2.802-0.137,4.052c-2.729,10.495-1.328,149.218,3.138,167.664
				c1.043,4.32,2.818,10.361,4.868,17.35c8.127,27.649,19.248,65.519,12.483,83.505c-0.235,0.63-0.627,1.195-1.13,1.646
				c-24.82,21.951-80.479,23.106-82.839,23.154c-1.422,0.029-2.861-0.752-3.623-2.015l-2.797-4.658
				c-8.576,19.656-40.64,22.677-69.408,25.396c-7.843,0.733-15.247,1.432-22.247,2.426
				C162.072,385.836,146.615,387.609,127.431,387.609z M75.001,293.518c-3.034,0.912-33.291,11.047-30.851,50.045
				c0.835,13.354,12.76,35.754,83.28,35.754c18.682,0,33.701-1.724,40.989-2.746c7.188-1.016,15.035-1.754,22.624-2.467
				c37.537-3.547,64.104-7.658,64.104-28.439c0-1.861,1.246-3.497,3.037-3.994c1.801-0.504,3.703,0.266,4.658,1.863l7.039,11.724
				c10.609-0.462,54.103-3.378,74.304-20.294c4.998-16.005-6.234-54.257-13.004-77.297c-2.085-7.092-3.885-13.218-4.977-17.737
				c-2.573-10.642-4.091-56.011-4.607-91.63c-0.721-49.778,0.14-69.118,1.117-76.93c-0.879-0.038-1.992-0.063-3.406-0.063
				c-28.7,0-116.067,9.599-157.392,32.196c2.544,8.88,9.776,35.154,14.736,63.408c8.34,47.534,6.458,77.962-5.596,90.432
				c-24.847,25.693-49.323,29.284-83.198,34.25C83.737,292.198,79.461,292.824,75.001,293.518z"/>
		</g>
		<g>
			<path fill="#603A17" d="M327.92,71.578c1.839,13.3-35.62,29.48-83.668,36.141c-48.051,6.668-88.498,1.286-90.336-12.012
				c-1.844-13.298,35.607-29.478,83.662-36.14C285.626,52.901,326.076,58.28,327.92,71.578z"/>
			<path fill="#3C2517" d="M204.98,114.726c-15.818,0-52.865-1.798-55.174-18.453c-1.188-8.566,7.658-17.188,25.587-24.93
				c16.133-6.971,38.014-12.608,61.613-15.881c13.873-1.925,27.279-2.902,39.846-2.902c15.821,0,52.865,1.8,55.172,18.448
				c2.564,18.501-41.924,34.541-87.199,40.817C230.953,113.753,217.549,114.726,204.98,114.726z M276.852,60.855
				c-12.188,0-25.209,0.946-38.706,2.817c-22.879,3.173-43.998,8.596-59.465,15.283c-14.93,6.446-21.133,12.773-20.661,16.183
				c0.606,4.366,13.888,11.294,46.961,11.294c12.188,0,25.207-0.947,38.705-2.819c50.596-7.017,81.251-23.326,80.126-31.464
				C323.205,67.779,309.923,60.855,276.852,60.855z"/>
		</g>
		<g>
			<path fill="#603A17" d="M212.303,157.72c0,4.83-3.937,8.749-8.797,8.749c-4.855,0-8.793-3.919-8.793-8.749
				c0-4.836,3.938-8.756,8.793-8.756C208.366,148.964,212.303,152.884,212.303,157.72z"/>
			<path fill="#3C2517" d="M203.506,170.616c-7.134,0-12.939-5.786-12.939-12.896c0-7.112,5.806-12.897,12.939-12.897
				c7.143,0,12.943,5.786,12.943,12.897C216.449,164.831,210.648,170.616,203.506,170.616z M203.506,153.111
				c-2.562,0-4.645,2.069-4.645,4.609c0,2.537,2.083,4.606,4.645,4.606c2.566,0,4.65-2.069,4.65-4.606
				C208.156,155.181,206.072,153.111,203.506,153.111z"/>
		</g>
		<g>
			<path fill="#603A17" d="M215.564,195.033c0,4.835-3.933,8.754-8.789,8.754c-4.859,0-8.796-3.919-8.796-8.754
				c0-4.834,3.937-8.751,8.796-8.751C211.632,186.281,215.564,190.199,215.564,195.033z"/>
			<path fill="#3C2517" d="M206.775,207.929c-7.142,0-12.942-5.786-12.942-12.896c0-7.112,5.801-12.897,12.942-12.897
				c7.135,0,12.939,5.786,12.939,12.897C219.715,202.143,213.91,207.929,206.775,207.929z M206.775,190.429
				c-2.569,0-4.648,2.064-4.648,4.604c0,2.538,2.079,4.607,4.648,4.607c2.563,0,4.646-2.069,4.646-4.607
				C211.422,192.493,209.339,190.429,206.775,190.429z"/>
		</g>
		<g>
			<path fill="#603A17" d="M215.564,236.495c0,4.832-3.933,8.751-8.789,8.751c-4.859,0-8.796-3.919-8.796-8.751
				c0-4.836,3.937-8.753,8.796-8.753C211.632,227.742,215.564,231.659,215.564,236.495z"/>
			<path fill="#3C2517" d="M206.775,249.393c-7.142,0-12.942-5.79-12.942-12.898c0-7.114,5.801-12.901,12.942-12.901
				c7.135,0,12.939,5.787,12.939,12.901C219.715,243.604,213.91,249.393,206.775,249.393z M206.775,231.888
				c-2.569,0-4.648,2.065-4.648,4.607c0,2.538,2.079,4.604,4.648,4.604c2.563,0,4.646-2.067,4.646-4.604
				C211.422,233.953,209.339,231.888,206.775,231.888z"/>
		</g>
		<g>
			<path fill="#603A17" d="M197.602,272.422c0,4.827-3.933,8.745-8.792,8.745c-4.856,0-8.796-3.918-8.796-8.745
				c0-4.834,3.939-8.749,8.796-8.749C193.669,263.673,197.602,267.588,197.602,272.422z"/>
			<path fill="#3C2517" d="M188.81,285.314c-7.142,0-12.943-5.783-12.943-12.893s5.802-12.895,12.943-12.895
				c7.133,0,12.936,5.783,12.936,12.895C201.745,279.531,195.942,285.314,188.81,285.314z M188.81,267.818
				c-2.565,0-4.654,2.065-4.654,4.604s2.089,4.601,4.654,4.601c2.562,0,4.646-2.062,4.646-4.601S191.371,267.818,188.81,267.818z"/>
		</g>
		<g>
			<path fill="#603A17" d="M162.644,294.992c0,4.826-3.936,8.746-8.792,8.746c-4.859,0-8.797-3.92-8.797-8.746
				c0-4.842,3.938-8.754,8.797-8.754C158.708,286.238,162.644,290.15,162.644,294.992z"/>
			<path fill="#3C2517" d="M153.852,307.887c-7.138,0-12.943-5.789-12.943-12.896c0-7.114,5.806-12.9,12.943-12.9
				c7.13,0,12.938,5.786,12.938,12.9C166.79,302.098,160.981,307.887,153.852,307.887z M153.852,290.385
				c-2.565,0-4.65,2.064-4.65,4.606c0,2.536,2.085,4.6,4.65,4.6c2.561,0,4.646-2.062,4.646-4.6
				C158.498,292.45,156.412,290.385,153.852,290.385z"/>
		</g>
		<g>
			<path fill="#764E2A" d="M40.344,346.736c0,0,27.769,24.729,113.508,17.596c0,0,83.675,0,102.673-40.434l19.004,19.348
				c0,0,67.822-10.025,73.988-21.081"/>
			<path fill="#3C2517" d="M124.063,369.775c-63.266,0-85.443-19.02-86.483-19.942c-1.709-1.521-1.855-4.14-0.335-5.849
				c1.513-1.704,4.125-1.86,5.832-0.361l0,0c0.275,0.236,28.074,23.438,110.43,16.581c0.112-0.009,0.229-0.015,0.341-0.015
				c0.812,0,81.265-0.479,98.925-38.056c0.58-1.227,1.721-2.098,3.058-2.321c1.331-0.244,2.703,0.207,3.655,1.182l17.521,17.841
				c39.514-5.993,66.448-14.308,68.895-18.688c1.115-2.004,3.644-2.713,5.638-1.601c1.999,1.117,2.719,3.64,1.602,5.638
				c-6.646,11.916-60.62,20.741-76.999,23.164c-1.309,0.203-2.641-0.25-3.568-1.195l-15.113-15.389
				c-23.566,36.766-98.188,37.699-103.436,37.719C143.151,369.376,133.178,369.775,124.063,369.775z"/>
		</g>
		<g>
			<path fill="#764E2A" d="M236.677,156.796c0,0,37.776,125.295,11.057,152.935c-26.819,27.744-52.518,28.563-93.977,35.011
				c0,0-36.857,10.138-34.09,54.368c2.763,44.219,90.693,42.241,128.991,36.849c37.588-5.293,90.288-2.762,90.288-35.01l8.29,13.815
				c0,0,56.203-0.924,80.161-22.109c7.991-21.254-12.536-77.871-17.503-98.426c-4.61-19.047-6.451-165.987-2.768-170.602
				C410.814,119.021,286.426,127.315,236.677,156.796z"/>
			<path fill="#3C2517" d="M207.086,442.889c-57.287,0-89.803-15.46-91.557-43.527c-2.944-47.043,36.724-58.504,37.124-58.614
				c0.154-0.043,0.308-0.078,0.463-0.104c4.581-0.711,8.974-1.355,13.193-1.973c33.453-4.908,55.559-8.146,78.441-31.82
				c20.532-21.236-1.732-114.658-12.046-148.856c-0.544-1.822,0.216-3.786,1.857-4.764c41.421-24.542,134.392-34.935,164.404-34.935
				c7.671,0,10.627,0.492,11.955,3.249c0.63,1.306,0.565,2.806-0.133,4.057c-2.734,10.494-1.329,149.203,3.132,167.65
				c1.049,4.323,2.819,10.357,4.869,17.346c8.125,27.658,19.25,65.527,12.487,83.521c-0.237,0.628-0.633,1.194-1.136,1.642
				c-24.815,21.955-80.478,23.11-82.838,23.157c-1.435,0.022-2.86-0.751-3.622-2.015l-2.797-4.658
				c-8.575,19.655-40.636,22.682-69.404,25.396c-7.845,0.733-15.252,1.439-22.248,2.422
				C241.73,441.114,226.274,442.889,207.086,442.889z M154.659,348.795c-3.033,0.917-33.291,11.053-30.858,50.047
				c0.838,13.352,12.764,35.753,83.285,35.753c18.684,0,33.698-1.718,40.991-2.742c7.187-1.018,15.036-1.756,22.621-2.47
				c37.532-3.545,64.102-7.658,64.102-28.436c0-1.864,1.247-3.502,3.039-4c1.8-0.498,3.709,0.268,4.662,1.863l7.035,11.725
				c10.608-0.46,54.102-3.377,74.308-20.292c4.998-16.002-6.241-54.267-13.009-77.31c-2.083-7.093-3.88-13.219-4.972-17.733
				c-2.578-10.642-4.093-56.009-4.611-91.627c-0.717-49.773,0.138-69.11,1.117-76.925c-0.876-0.036-1.989-0.064-3.402-0.064
				c-28.705,0-116.072,9.603-157.392,32.202c2.544,8.876,9.772,35.147,14.729,63.395c8.346,47.537,6.465,77.963-5.594,90.43
				c-24.843,25.703-49.32,29.293-83.204,34.264C163.396,347.48,159.115,348.107,154.659,348.795z"/>
		</g>
		<g>
			<path fill="#603A17" d="M407.574,126.857c1.843,13.302-35.616,29.481-83.668,36.144c-48.047,6.665-88.493,1.283-90.341-12.015
				c-1.839-13.299,35.615-29.478,83.667-36.138C365.28,108.181,405.73,113.56,407.574,126.857z"/>
			<path fill="#3C2517" d="M284.639,170.008c-15.822,0-52.865-1.8-55.178-18.45c-1.189-8.57,7.658-17.193,25.587-24.935
				c16.132-6.968,38.017-12.608,61.612-15.88c13.877-1.925,27.284-2.9,39.85-2.9c15.818,0,52.864,1.798,55.172,18.448
				c2.558,18.502-41.927,34.541-87.204,40.815C310.609,169.035,297.203,170.008,284.639,170.008z M356.51,116.136
				c-12.187,0-25.207,0.948-38.706,2.817c-22.882,3.175-44.003,8.601-59.469,15.284c-14.929,6.445-21.13,12.773-20.661,16.182
				c0.61,4.367,13.893,11.298,46.965,11.298c12.188,0,25.207-0.95,38.701-2.821c50.601-7.018,81.256-23.328,80.13-31.467
				C402.863,123.063,389.577,116.136,356.51,116.136z"/>
		</g>
		<g>
			<path fill="#603A17" d="M291.956,213.002c0,4.832-3.933,8.749-8.792,8.749c-4.855,0-8.796-3.917-8.796-8.749
				c0-4.836,3.94-8.754,8.796-8.754C288.023,204.249,291.956,208.166,291.956,213.002z"/>
			<path fill="#3C2517" d="M283.164,225.898c-7.137,0-12.943-5.789-12.943-12.896c0-7.115,5.807-12.901,12.943-12.901
				c7.134,0,12.938,5.786,12.938,12.901C296.104,220.109,290.298,225.898,283.164,225.898z M283.164,208.394
				c-2.564,0-4.648,2.066-4.648,4.609c0,2.537,2.084,4.604,4.648,4.604c2.562,0,4.646-2.067,4.646-4.604
				C287.811,210.46,285.727,208.394,283.164,208.394z"/>
		</g>
		<g>
			<path fill="#603A17" d="M295.223,250.315c0,4.833-3.938,8.751-8.797,8.751c-4.853,0-8.791-3.918-8.791-8.751
				c0-4.836,3.938-8.754,8.791-8.754C291.285,241.561,295.223,245.479,295.223,250.315z"/>
			<path fill="#3C2517" d="M286.426,263.214c-7.13,0-12.935-5.787-12.935-12.899c0-7.115,5.805-12.9,12.935-12.9
				c7.139,0,12.944,5.785,12.944,12.9C299.37,257.427,293.562,263.214,286.426,263.214z M286.426,245.709
				c-2.561,0-4.646,2.068-4.646,4.606c0,2.539,2.086,4.605,4.646,4.605c2.566,0,4.654-2.066,4.654-4.605
				C291.08,247.777,288.992,245.709,286.426,245.709z"/>
		</g>
		<g>
			<path fill="#603A17" d="M295.223,291.768c0,4.828-3.938,8.748-8.797,8.748c-4.853,0-8.791-3.92-8.791-8.748
				c0-4.841,3.938-8.758,8.791-8.758C291.285,283.01,295.223,286.927,295.223,291.768z"/>
			<path fill="#3C2517" d="M286.426,304.665c-7.13,0-12.935-5.789-12.935-12.896c0-7.113,5.805-12.899,12.935-12.899
				c7.139,0,12.944,5.786,12.944,12.899C299.37,298.875,293.562,304.665,286.426,304.665z M286.426,287.157
				c-2.561,0-4.646,2.069-4.646,4.61c0,2.539,2.086,4.602,4.646,4.602c2.566,0,4.654-2.062,4.654-4.602
				C291.08,289.227,288.992,287.157,286.426,287.157z"/>
		</g>
		<g>
			<path fill="#603A17" d="M277.26,327.699c0,4.83-3.939,8.753-8.797,8.753c-4.859,0-8.791-3.923-8.791-8.753
				c0-4.838,3.932-8.754,8.791-8.754C273.32,318.945,277.26,322.861,277.26,327.699z"/>
			<path fill="#3C2517" d="M268.463,340.594c-7.134,0-12.939-5.781-12.939-12.896s5.807-12.896,12.939-12.896
				s12.938,5.783,12.938,12.896C281.4,334.811,275.598,340.594,268.463,340.594z M268.463,323.094c-2.564,0-4.648,2.062-4.648,4.604
				c0,2.54,2.084,4.604,4.648,4.604c2.566,0,4.65-2.064,4.65-4.604C273.113,325.156,271.029,323.094,268.463,323.094z"/>
		</g>
		<g>
			<path fill="#603A17" d="M242.298,350.273c0,4.824-3.937,8.748-8.792,8.748c-4.856,0-8.798-3.924-8.798-8.748
				c0-4.842,3.941-8.756,8.798-8.756C238.361,341.518,242.298,345.432,242.298,350.273z"/>
			<path fill="#3C2517" d="M233.506,363.167c-7.135,0-12.939-5.782-12.939-12.894c0-7.114,5.805-12.901,12.939-12.901
				c7.133,0,12.938,5.787,12.938,12.901C246.444,357.384,240.639,363.167,233.506,363.167z M233.506,345.664
				c-2.561,0-4.649,2.062-4.649,4.609c0,2.537,2.089,4.604,4.649,4.604s4.65-2.067,4.65-4.604
				C238.156,347.727,236.066,345.664,233.506,345.664z"/>
		</g>
		<g>
			<path fill="#764E2A" d="M119.997,402.021c0,0,27.77,24.728,113.509,17.59c0,0,83.672,0,102.679-40.432l18.998,19.346
				c0,0,67.827-10.021,73.994-21.084"/>
			<path fill="#3C2517" d="M203.721,425.056c-63.264,0-85.447-19.011-86.48-19.942c-1.711-1.521-1.866-4.145-0.341-5.844
				c1.517-1.707,4.125-1.857,5.836-0.367l0,0c0.271,0.236,28.068,23.438,110.427,16.58c0.115-0.006,0.228-0.014,0.344-0.014
				c0.807,0,81.265-0.477,98.921-38.057c0.581-1.225,1.721-2.089,3.062-2.316c1.326-0.236,2.702,0.202,3.65,1.184l17.521,17.837
				c39.513-5.99,66.448-14.312,68.895-18.688c1.117-2.007,3.651-2.72,5.638-1.603c2.002,1.116,2.72,3.64,1.603,5.642
				c-6.647,11.917-60.621,20.738-77.002,23.162c-1.31,0.207-2.639-0.248-3.566-1.193l-15.108-15.395
				c-23.566,36.776-98.192,37.7-103.435,37.722C222.81,424.657,212.831,425.056,203.721,425.056z"/>
		</g>
	</g>
</g>
</svg>
