<?xml version="1.0" encoding="utf-8"?>
<!-- Generator: Adobe Illustrator 16.0.0, SVG Export Plug-In . SVG Version: 6.00 Build 0)  -->
<!DOCTYPE svg PUBLIC "-//W3C//DTD SVG 1.1//EN" "http://www.w3.org/Graphics/SVG/1.1/DTD/svg11.dtd">
<svg version="1.1" id="Layer_1" xmlns="http://www.w3.org/2000/svg" xmlns:xlink="http://www.w3.org/1999/xlink" x="0px" y="0px"
	 width="500px" height="500px" viewBox="0 0 500 500" enable-background="new 0 0 500 500" xml:space="preserve">
<g id="Layer_1_copy_87">
	<g>
		<g>
			<path fill="#FDDC1F" d="M475.938,248.187c0,127.437-103.306,230.738-230.738,230.738c-127.429,0-230.733-103.301-230.733-230.738
				c0-127.43,103.305-230.734,230.733-230.734C372.632,17.452,475.938,120.757,475.938,248.187z"/>
		</g>
		<g>
			<path fill="#FCB022" d="M245.198,482.385c-129.135,0-234.199-105.062-234.199-234.199S116.063,13.989,245.198,13.989
				c129.14,0,234.199,105.062,234.199,234.197C479.397,377.322,374.338,482.385,245.198,482.385z M245.198,20.915
				c-125.316,0-227.27,101.953-227.27,227.271c0,125.321,101.953,227.277,227.27,227.277c125.319,0,227.276-101.956,227.276-227.277
				C472.476,122.868,370.519,20.915,245.198,20.915z"/>
		</g>
	</g>
	<g>
		<path fill="#4C230D" d="M242.48,283.477c-4.398,0-7.595-1.515-9.721-3.072c-5.143-3.771-8.091-10.844-8.091-19.385
			c0-15.24,15.536-19.271,23.75-19.271c1.911,0,3.461,1.554,3.461,3.465s-1.547,3.46-3.454,3.46
			c-0.75,0.008-16.831,0.241-16.831,12.346c0,6.312,1.918,11.344,5.26,13.801c2.668,1.953,6.206,2.258,10.523,0.899
			c1.838-0.588,3.773,0.445,4.348,2.263c0.572,1.828-0.443,3.774-2.27,4.34C246.861,283.145,244.537,283.477,242.48,283.477z"/>
	</g>
	<g>
		<g>
			<path fill="#DEF2FD" d="M221.749,187.11c-0.622,41.977-26.832,75.637-58.551,75.162c-31.716-0.467-56.92-34.877-56.305-76.858
				c0.62-41.977,26.833-75.626,58.552-75.158C197.161,110.721,222.365,145.133,221.749,187.11z"/>
		</g>
		<g>
			<path fill="#C3E5F2" d="M163.856,264.585l-0.69-0.007c-32.937-0.487-59.214-36.018-58.583-79.199
				c0.633-42.699,27.643-77.438,60.203-77.438l0.69,0.005c16.081,0.236,31.034,8.69,42.106,23.805
				c10.932,14.918,16.778,34.593,16.475,55.393C223.427,229.848,196.418,264.585,163.856,264.585z M164.786,112.559
				c-30.052,0-54.99,32.696-55.582,72.89c-0.601,40.637,23.64,74.062,54.029,74.516l0.623,0.008
				c30.056,0,54.991-32.703,55.586-72.896c0.29-19.804-5.245-38.483-15.585-52.596c-10.193-13.919-23.854-21.703-38.447-21.917
				L164.786,112.559z"/>
		</g>
	</g>
	<g>
		<path fill="#010101" d="M184.697,194.703c-0.507,16.702-9.641,29.979-20.392,29.651c-10.759-0.326-19.067-14.126-18.565-30.827
			c0.506-16.705,9.637-29.979,20.396-29.655C176.89,164.195,185.2,177.999,184.697,194.703z"/>
	</g>
	<g>
		<g>
			<path fill="#DEF2FD" d="M261.479,183.642c-3.604,43.138,19.896,80.313,52.495,83.032c32.591,2.717,61.936-30.032,65.537-73.171
				c3.601-43.138-19.896-80.314-52.492-83.041C294.425,107.741,265.084,140.506,261.479,183.642z"/>
		</g>
		<g>
			<path fill="#C3E5F2" d="M317.753,269.145L317.753,269.145c-1.319,0-2.653-0.058-3.973-0.172
				c-16.503-1.371-31.271-11.111-41.579-27.426c-10.184-16.104-14.809-36.736-13.02-58.095c3.529-42.313,31.666-75.455,64.05-75.455
				c1.319,0,2.657,0.055,3.979,0.165c33.814,2.828,58.308,41.197,54.603,85.534C378.28,235.999,350.139,269.145,317.753,269.145z
				 M323.231,112.614c-30.003,0-56.116,31.284-59.454,71.221c-1.702,20.366,2.676,39.986,12.322,55.246
				c9.521,15.06,23.034,24.041,38.064,25.293c1.188,0.099,2.396,0.147,3.588,0.147c30.003,0,56.125-31.276,59.462-71.209
				c3.485-41.802-19.113-77.932-50.388-80.548C325.635,112.665,324.428,112.614,323.231,112.614z"/>
		</g>
	</g>
	<g>
		<path fill="#010101" d="M298.735,195.177c-1.168,17.188,6.861,31.735,17.932,32.484c11.07,0.757,20.993-12.566,22.161-29.759
			c1.168-17.193-6.858-31.737-17.929-32.489C309.83,164.661,299.903,177.985,298.735,195.177z"/>
	</g>
	<g>
		<g>
			<path fill="#010101" d="M331.382,65.706c0,0-15.006-0.384-12.85,11.021c1.814,9.637,10.233,6.163,19.484,6.871
				c9.749,0.745,26.264,6.54,33.217,14.039C360.458,68.328,331.382,65.706,331.382,65.706z"/>
		</g>
		<g>
			<path fill="#010101" d="M371.233,99.946c-0.626,0-1.242-0.253-1.695-0.738c-6.211-6.706-21.859-12.556-31.693-13.31
				c-2.194-0.167-4.336-0.085-6.347-0.014c-1.114,0.039-2.193,0.078-3.22,0.078c-5.117,0-10.554-1.045-12.016-8.806
				c-0.673-3.541-0.021-6.531,1.934-8.885c3.747-4.523,10.905-4.875,13.012-4.875c0.021,0,0.213,0.002,0.234,0.002
				c0.451,0.038,30.809,3.114,41.958,33.443c0.381,1.033-0.026,2.19-0.96,2.764C372.065,99.835,371.647,99.946,371.233,99.946z
				 M335.023,81.183c1.044,0,2.102,0.03,3.171,0.114c7.739,0.591,18.71,4.031,26.89,8.792
				c-11.959-19.859-33.663-22.06-33.907-22.081c-2.491,0.005-7.329,0.681-9.424,3.21c-1.052,1.263-1.362,2.927-0.956,5.082
				c0.817,4.317,2.969,5.047,7.481,5.047c0.977,0,1.999-0.039,3.054-0.075C332.525,81.229,333.764,81.183,335.023,81.183z"/>
		</g>
	</g>
	<g>
		<g>
			<path fill="#010101" d="M155.939,37.463c0,0,18.853-1.349,13.718,10.328c-3.95,8.978-11.987,4.92-21.22,5.831
				c-12.507,1.229-23.442,8.82-30.761,16.811C127.477,40.782,155.939,37.463,155.939,37.463z"/>
		</g>
		<g>
			<path fill="#010101" d="M117.677,72.743c-0.403,0-0.807-0.104-1.168-0.318c-0.941-0.551-1.366-1.681-1.026-2.716
				c10.146-30.691,39.892-34.502,40.188-34.538c0.105-0.009,0.828-0.062,1.975-0.062c4.919,0,11.346,0.865,14.042,4.986
				c1.536,2.357,1.564,5.259,0.086,8.624c-2.853,6.489-7.762,7.363-12.185,7.363c-1.218,0-2.495-0.069-3.818-0.141
				c-2.336-0.131-4.977-0.23-7.106-0.021c-10.172,1-20.845,6.86-29.288,16.074C118.93,72.484,118.308,72.743,117.677,72.743z
				 M157.646,39.723c-0.913,0-1.504,0.041-1.543,0.044c-0.863,0.106-20.498,2.693-31.726,21.458
				c7.448-5.606,15.758-9.105,23.834-9.9c2.39-0.237,5.256-0.138,7.813,0.003c1.239,0.069,2.428,0.137,3.564,0.137
				c3.847,0,6.253-0.734,7.955-4.603c0.814-1.849,0.906-3.275,0.276-4.245C166.652,40.832,162.756,39.723,157.646,39.723z"/>
		</g>
	</g>
	<g>
		<ellipse fill="#F3F3F3" cx="166.423" cy="180.042" rx="6.06" ry="6.222"/>
	</g>
	<g>
		<path fill="#F3F3F3" d="M321.091,180.042c0,3.435-2.715,6.222-6.059,6.222c-3.35,0-6.062-2.787-6.062-6.222
			c0-3.438,2.714-6.223,6.062-6.223C318.376,173.819,321.091,176.604,321.091,180.042z"/>
	</g>
	<g>
		<g>
			<path fill="#FDDC1F" d="M108.055,195.096l114.552-16.561c0,0-2.782-66.284-61.067-67.192
				C103.245,110.436,108.055,195.096,108.055,195.096z"/>
		</g>
		<g>
			<path fill="#FCB022" d="M108.055,198.558c-0.796,0-1.567-0.272-2.19-0.78c-0.754-0.616-1.211-1.517-1.268-2.486
				c-0.112-1.961-2.463-48.309,20.686-72.81c9.158-9.693,21.046-14.608,35.328-14.608l0.978,0.007
				c60.855,0.947,64.443,69.812,64.476,70.508c0.075,1.776-1.207,3.32-2.962,3.573L108.55,198.523
				C108.384,198.547,108.221,198.558,108.055,198.558z M160.61,114.799c-12.305,0-22.493,4.185-30.293,12.439
				c-17.511,18.533-18.933,52.53-18.891,63.871l107.442-15.534c-0.609-5.452-2.514-17.277-8.154-28.985
				c-9.986-20.737-26.552-31.431-49.233-31.783L160.61,114.799z"/>
		</g>
	</g>
	<g>
		<g>
			<path fill="#FDDC1F" d="M378.966,194.218l-117.007-16.916c0,0,2.834-67.71,62.377-68.638
				C383.878,107.737,378.966,194.218,378.966,194.218z"/>
		</g>
		<g>
			<path fill="#FCB022" d="M378.966,197.679c-0.162,0-0.329-0.011-0.495-0.036l-117.007-16.916c-1.76-0.253-3.037-1.796-2.966-3.573
				c0.035-0.708,3.693-70.987,65.784-71.953l1.002-0.009c14.569,0,26.689,5.013,36.028,14.901
				c23.627,25.004,21.229,72.317,21.113,74.321c-0.056,0.968-0.517,1.87-1.267,2.484
				C380.538,197.406,379.763,197.679,378.966,197.679z M265.689,174.341l109.903,15.888c0.038-11.516-1.395-46.429-19.326-65.394
				c-7.977-8.439-18.405-12.717-30.982-12.717l-0.896,0.009c-23.197,0.359-40.139,11.3-50.355,32.513
				C268.244,156.659,266.309,168.8,265.689,174.341z"/>
		</g>
	</g>
	<g>
		<g>
			<path fill="#F3F3F3" d="M245.836,337.489c0,0-18.891-2.521-28.962,35.885c-10.065,38.396,24.553,42.806,38.403,23.914
				C269.125,378.404,266.746,337.913,245.836,337.489z"/>
		</g>
		<g>
			<path fill="#4C230D" d="M234.482,411.605L234.482,411.605c-7.269,0-13.554-2.951-17.694-8.322
				c-3.861-5.004-7.559-14.401-3.263-30.787c9.37-35.729,26.549-38.504,31.592-38.504c0.429,0,0.75,0.021,0.948,0.033
				c7.262,0.207,13.332,4.51,17.094,12.133c7.399,14.971,5.067,39.333-5.086,53.183
				C252.518,406.908,243.481,411.605,234.482,411.605z M245.117,340.914c-2.696,0-16.573,1.613-24.893,33.336
				c-2.835,10.814-2.127,19.395,2.045,24.801c2.8,3.639,7.139,5.635,12.213,5.635c6.834,0,13.731-3.615,18.002-9.442
				c8.508-11.599,10.632-33.534,4.464-46.021c-2.662-5.394-6.429-8.175-11.184-8.271c-0.127,0-0.255-0.016-0.382-0.03
				C245.389,340.919,245.276,340.914,245.117,340.914z"/>
		</g>
	</g>
	<g>
		<path fill="#4C230D" d="M231.163,347.829c-0.8,0-1.6-0.277-2.255-0.836c-1.446-1.244-1.617-3.433-0.371-4.884
			c20.06-23.363,51.311-31.264,52.631-31.59c1.857-0.451,3.73,0.681,4.189,2.535c0.457,1.855-0.678,3.736-2.53,4.19
			c-0.304,0.077-30.451,7.729-49.031,29.379C233.11,347.417,232.141,347.829,231.163,347.829z"/>
	</g>
	<g>
		<path fill="#4C230D" d="M250.143,436.039c-1.562,0-2.98-1.067-3.358-2.653c-0.453-1.854,0.693-3.723,2.555-4.168
			c0.228-0.058,23.008-5.713,31.245-20.676c3.472-6.306,3.86-13.547,1.153-21.517c-0.615-1.812,0.354-3.778,2.166-4.389
			c1.809-0.621,3.772,0.348,4.389,2.165c3.361,9.896,2.807,19.021-1.656,27.109c-9.736,17.645-34.629,23.782-35.683,24.035
			C250.684,436.011,250.411,436.039,250.143,436.039z"/>
	</g>
</g>
</svg>
