<?xml version="1.0" encoding="utf-8"?>
<!-- Generator: Adobe Illustrator 16.0.0, SVG Export Plug-In . SVG Version: 6.00 Build 0)  -->
<!DOCTYPE svg PUBLIC "-//W3C//DTD SVG 1.1//EN" "http://www.w3.org/Graphics/SVG/1.1/DTD/svg11.dtd">
<svg version="1.1" id="Layer_1" xmlns="http://www.w3.org/2000/svg" xmlns:xlink="http://www.w3.org/1999/xlink" x="0px" y="0px"
	 width="500px" height="500px" viewBox="0 0 500 500" enable-background="new 0 0 500 500" xml:space="preserve">
<g id="Layer_1_copy_61">
	<g>
		<path fill="#9DD2A4" d="M474.499,205.114c0,0,14.272,165.952-227.484,155.253c-247.151,14.27-227.52-155.253-227.52-155.253"/>
		<path fill="#27140E" d="M218.185,365.059c-75.242,0-130.834-18.543-165.495-55.259C9.382,263.924,15.408,207.07,15.687,204.673
			c0.242-2.102,2.159-3.615,4.245-3.366c2.103,0.241,3.611,2.142,3.372,4.242c-0.064,0.555-5.832,55.86,35.047,99.08
			c37.368,39.506,100.785,56.958,188.444,51.906c0.13-0.008,0.263-0.008,0.392-0.005c85.903,3.819,148.606-14.232,186.382-53.611
			c41.275-43.028,37.154-96.936,37.109-97.478c-0.183-2.108,1.379-3.965,3.489-4.148c2.118-0.188,3.965,1.382,4.151,3.493
			c0.197,2.343,4.438,57.933-39.221,103.438c-39.347,41.016-103.956,59.848-192.058,55.98
			C237.128,364.773,227.503,365.059,218.185,365.059z"/>
	</g>
	<g>
		<path fill="#73C488" d="M322.436,378.637c0,9.621-7.798,17.42-17.424,17.42H190.032c-9.621,0-17.419-7.799-17.419-17.42l0,0
			c0-9.626,7.798-17.42,17.419-17.42h114.979C314.638,361.217,322.436,369.011,322.436,378.637L322.436,378.637z"/>
		<path fill="#27140E" d="M305.012,399.891H190.032c-11.72,0-21.254-9.537-21.254-21.254c0-11.721,9.534-21.251,21.254-21.251
			h114.979c11.721,0,21.258,9.53,21.258,21.251C326.27,390.354,316.731,399.891,305.012,399.891z M190.031,365.053
			c-7.494,0-13.587,6.092-13.587,13.584c0,7.489,6.093,13.584,13.587,13.584h114.979c7.494,0,13.586-6.095,13.586-13.584
			c0-7.492-6.092-13.584-13.586-13.584H190.031L190.031,365.053z"/>
	</g>
	<g>
		<path fill="#27140E" d="M294.264,332.077c-2.06,0-3.758-1.638-3.83-3.707c-0.066-2.118,1.59-3.89,3.697-3.958
			c1.051-0.035,104.791-4.387,130.355-75.977c0.714-1.996,2.903-3.038,4.902-2.322c1.992,0.713,3.034,2.907,2.319,4.901
			c-11.351,31.787-38.782,55.889-79.325,69.702c-30.311,10.329-56.875,11.317-57.988,11.36
			C294.35,332.077,294.305,332.077,294.264,332.077z"/>
	</g>
	<g>
		<path fill="#55B575" d="M474.499,204.31c0,12.321-102.108,22.305-228.023,22.305c-125.951,0-228.056-9.983-228.056-22.305
			c0-12.32,102.104-22.306,228.056-22.306C372.391,182.004,474.499,191.99,474.499,204.31z"/>
		<path fill="#27140E" d="M246.476,230.449c-61.041,0-118.441-2.325-161.633-6.55c-70.256-6.872-70.256-15.461-70.256-19.589
			s0-12.719,70.256-19.587c43.191-4.226,100.592-6.552,161.633-6.552c61.021,0,118.418,2.326,161.604,6.552
			c70.251,6.869,70.251,15.46,70.251,19.587c0,4.128,0,12.718-70.251,19.589C364.895,228.125,307.497,230.449,246.476,230.449z
			 M22.699,204.31c9.204,7.955,89.496,18.472,223.776,18.472c134.259,0,214.543-10.517,223.743-18.472
			c-9.199-7.953-89.483-18.472-223.743-18.472C112.195,185.838,31.903,196.357,22.699,204.31z"/>
	</g>
</g>
</svg>
