<?xml version="1.0" encoding="utf-8"?>
<!-- Generator: Adobe Illustrator 16.0.0, SVG Export Plug-In . SVG Version: 6.00 Build 0)  -->
<!DOCTYPE svg PUBLIC "-//W3C//DTD SVG 1.1//EN" "http://www.w3.org/Graphics/SVG/1.1/DTD/svg11.dtd">
<svg version="1.1" id="Layer_1" xmlns="http://www.w3.org/2000/svg" xmlns:xlink="http://www.w3.org/1999/xlink" x="0px" y="0px"
	 width="500px" height="500px" viewBox="0 0 500 500" enable-background="new 0 0 500 500" xml:space="preserve">
<g id="Layer_1_copy_47">
	<g>
		<g>
			<path fill="#CBCF46" d="M70.977,198.627l2.38,182.612c0,0-2.38,22.401,20.501,29.905c27.658,4.77,143.517,33.506,143.517,33.506
				s17.643,7.148,42.438-2.379c24.794-9.538,134.457-45.301,134.457-45.301s15.255-5.238,13.824-27.652
				c-1.429-22.412,0.089-165.928,0.089-165.928l-157.432-36.23l-137.795,10.012L70.977,198.627z"/>
			<path fill="#3C2517" d="M254.166,450.332c-0.004,0-0.004,0-0.004,0c-9.932,0-16.422-2.221-17.722-2.707
				c-5.274-1.31-116.393-28.809-143.109-33.409c-0.146-0.026-0.293-0.062-0.438-0.114c-23.677-7.762-22.822-30.393-22.646-32.959
				l-2.381-182.471c-0.017-1.345,0.828-2.543,2.09-2.981l61.982-21.456c0.256-0.093,0.521-0.146,0.792-0.164l137.793-10.012
				c0.315-0.013,0.621,0,0.928,0.071l157.43,36.232c1.424,0.328,2.423,1.605,2.41,3.066c-0.017,1.434-1.499,143.653-0.094,165.691
				c1.562,24.501-15.204,30.552-15.921,30.79c-1.142,0.372-109.911,35.86-134.351,45.265
				C272.018,448.596,263.01,450.332,254.166,450.332z M94.617,408.126c27.832,4.841,138.784,32.34,143.509,33.509
				c0.137,0.034,0.279,0.078,0.419,0.132c0.046,0.019,6.009,2.354,15.617,2.354c0,0,0,0,0.004,0c8.079,0,16.329-1.604,24.525-4.752
				c24.591-9.459,133.515-45,134.61-45.354c0.465-0.168,12.94-4.902,11.689-24.5c-1.332-20.91-0.146-143.847,0.057-163.653
				L270.511,170.29l-136.924,9.95l-59.479,20.59l2.354,180.365c0.006,0.123,0,0.248-0.014,0.371
				C76.365,382.373,74.703,401.457,94.617,408.126z"/>
		</g>
		<g>
			<path fill="#3C2517" d="M255.973,433.459c-1.717,0-3.111-1.39-3.111-3.115V256.318c0-1.721,1.396-3.109,3.111-3.109
				c1.715,0,3.104,1.391,3.104,3.109v174.025C259.077,432.07,257.688,433.459,255.973,433.459z"/>
		</g>
		<g>
			<path fill="#3C2517" d="M255.973,231.775c-1.717,0-3.111-1.394-3.111-3.11v-42.916c0-1.712,1.396-3.106,3.111-3.106
				c1.715,0,3.104,1.394,3.104,3.106v42.916C259.077,230.382,257.688,231.775,255.973,231.775z"/>
		</g>
		<g>
			<path fill="#9AA438" d="M86.801,140.789c0,0-19.164-0.287-20.598,9.467c-1.425,9.746,0,42.173,0,42.173
				s-1.425,17.643,24.318,18.594c25.748,0.956,144.945,29.562,144.945,29.562s23.659,6.949,61.511-3.814
				c47.014-13.374,135.406-32.423,135.406-32.423s5.243-1.606,6.203-15.108v-34.954c0,0,4.286-12.789-15.263-16.169
				c-19.545-3.38-171.048-19.593-171.048-19.593s-37.469,17.911-37.947,14.576C213.852,129.764,86.801,140.789,86.801,140.789z"/>
			<path fill="#3C2517" d="M256.32,245.9c-13.629,0-21.407-2.238-21.729-2.336c-1.04-0.243-119.04-28.502-144.187-29.432
				c-10.16-0.38-17.699-3.26-22.42-8.569c-4.91-5.529-4.945-11.825-4.892-13.143c-0.114-2.681-1.385-32.927,0.039-42.615
				c1.691-11.542,19.873-12.126,23.5-12.126c3.822-0.327,96.172-8.312,121.521-8.312c3.39,0,6.149,0,7.759,0.965
				c4.496-0.81,20.814-7.822,35.021-14.612c0.521-0.248,1.101-0.35,1.67-0.283c6.189,0.659,151.825,16.258,171.252,19.615
				c8.015,1.384,13.495,4.464,16.287,9.149c2.658,4.459,1.935,8.928,1.549,10.494v34.546c-1.062,15.099-7.181,17.709-8.396,18.081
				c-1.137,0.256-89.089,19.249-135.469,32.44C283.502,243.834,269.534,245.9,256.32,245.9z M86.757,143.899
				c-4.675,0-16.655,1.221-17.475,6.804c-1.37,9.352,0.013,41.266,0.03,41.589c0.005,0.128,0,0.256-0.008,0.384
				c-0.01,0.172-0.261,4.783,3.411,8.844c3.553,3.937,9.587,6.087,17.921,6.397c25.761,0.956,140.675,28.473,145.556,29.641
				c0.217,0.062,7.485,2.127,20.128,2.127c12.64,0,26.029-1.986,39.806-5.906c45.041-12.811,128.978-31.038,135.24-32.392
				c0.59-0.406,3.441-2.831,4.119-12.364l-0.011-34.737c0-0.336,0.055-0.672,0.16-0.991c0.031-0.093,0.92-3.062-0.876-5.986
				c-1.823-2.972-5.959-5.092-11.968-6.131c-18.456-3.194-157.557-18.138-169.975-19.47c-8.326,3.968-31.847,14.917-37.604,14.917
				c-1.168,0-2.078-0.358-2.729-0.897c-0.628-0.067-1.889-0.146-4.331-0.146c-25.078,0-120.127,8.219-121.082,8.303
				c-0.103,0.004-0.203,0.014-0.309,0.014H86.757L86.757,143.899z"/>
		</g>
		<g>
			<path fill="#7C7D32" d="M70.592,145.332l164.875,27.07c0,0,21.46,6.87,61.983-2.19l140.061-24.349l-174.386-27.339
				C263.125,118.523,55.904,139.713,70.592,145.332z"/>
			<path fill="#3C2517" d="M258.325,178.002c-0.005,0-0.005,0-0.005,0c-14.095,0-22.07-2.128-23.562-2.566l-164.67-27.039
				c-0.205-0.035-0.412-0.093-0.608-0.164c-2.272-0.872-2.892-2.632-2.711-3.986c0.474-3.592,0.851-6.432,99.672-18.165
				c47.685-5.667,95.883-10.604,96.364-10.653c0.264-0.022,0.536-0.022,0.801,0.026l174.387,27.336
				c1.502,0.234,2.611,1.521,2.625,3.043c0.013,1.522-1.076,2.827-2.575,3.088l-140.056,24.35
				C284,176.405,270.609,178.002,258.325,178.002z M82.001,144.053l153.971,25.283c0.15,0.021,0.3,0.057,0.442,0.105
				c0.07,0.018,7.626,2.345,21.906,2.345c11.828,0,24.769-1.549,38.453-4.609l121.68-21.155l-155.411-24.368
				C203.473,127.751,112.496,138.143,82.001,144.053z"/>
		</g>
		<g>
			<path fill="#ED135C" d="M182.862,138.231c0,0-52.131,8.587-47.682,34.967c4.452,26.38,8.821,248.91,8.821,248.91l38.86,9.236
				l-6.994-247.976c0,0-4.133-34.967,69.609-41.006c28.932,3.495,71.203,11.439,71.203,11.439s24.159,3.5,21.936,46.097
				c-2.223,42.588-6.434,224.197-6.434,224.197l37.294-12.403c0,0,7.919-201.941,4.419-233.728
				c-3.489-31.785-9.879-41.695-76.135-54.702c-66.266-13.006-93.287,9.834-93.287,9.834L182.862,138.231z"/>
			<path fill="#3C2517" d="M182.862,434.45c-0.239,0-0.483-0.027-0.722-0.088l-38.854-9.236c-1.381-0.329-2.363-1.541-2.393-2.965
				c-0.041-2.222-4.417-222.592-8.773-248.445c-0.979-5.792,0.323-11.246,3.87-16.209c11.764-16.475,44.96-22.106,46.367-22.341
				l20.74-4.933c3.433-2.588,20.708-14.081,56.258-14.081c12.148,0,25.27,1.368,39.001,4.065
				c66.649,13.082,74.87,23.189,78.631,57.41c3.48,31.652-4.078,225.926-4.406,234.182c-0.048,1.291-0.894,2.424-2.122,2.83
				l-37.295,12.414c-0.95,0.319-2.008,0.15-2.831-0.451c-0.813-0.602-1.279-1.565-1.256-2.572
				c0.038-1.814,4.237-182.141,6.431-224.292c2.037-38.939-18.425-42.713-19.296-42.859c-0.526-0.098-42.301-7.928-70.791-11.392
				c-37.294,3.105-53.437,13.723-60.409,22.097c-6.711,8.066-6.083,15.148-6.056,15.445l7.016,248.227
				c0.022,0.965-0.398,1.885-1.149,2.496C184.264,434.204,183.569,434.45,182.862,434.45z M147.059,419.639l32.583,7.741
				l-6.885-243.923c-0.021-0.119-1.018-9.467,7.266-19.593c11.209-13.696,33.144-21.974,65.203-24.597
				c0.209-0.019,0.416-0.014,0.629,0.008c28.698,3.468,70.977,11.396,71.401,11.476c0.969,0.141,26.81,4.402,24.461,49.31
				c-2.001,38.359-5.659,191.621-6.323,219.694l31.062-10.335c0.836-21.801,7.596-201.67,4.354-231.111
				c-3.202-29.145-7.379-38.983-73.646-51.99c-13.343-2.619-26.06-3.946-37.808-3.946c-36.688,0-52.728,12.98-52.883,13.112
				c-0.365,0.301-0.813,0.532-1.276,0.642l-21.617,5.131c-0.53,0.097-32.271,5.495-42.536,19.868
				c-2.583,3.619-3.494,7.397-2.796,11.556C142.484,197.813,146.551,394.227,147.059,419.639z"/>
		</g>
		<g>
			<path fill="#D31C5C" d="M271.85,101.619c0,0,46.481-46.252,63.066-49.636c16.581-3.384,16.996,8.67,24.571,15.555
				c7.577,6.879,20.642,15.381,7.502,19.451c-13.134,4.075-32.325,46.266-91.597,33.68
				C260.829,117.585,260.523,112.484,271.85,101.619z"/>
			<path fill="#3C2517" d="M296.396,126.114c-6.856,0-14.139-0.809-21.65-2.402c-5.622-1.194-12.26-3.216-13.719-8.317
				c-1.516-5.318,3.271-10.843,8.666-16.023c4.787-4.756,47.599-46.964,64.604-50.433c2.109-0.434,4.093-0.65,5.893-0.65
				c9.44,0,13.241,5.756,16.596,10.833c1.5,2.266,2.909,4.402,4.79,6.109c1.08,0.983,2.278,1.996,3.485,3.026
				c5.975,5.069,11.607,9.857,10.516,15.174c-0.906,4.433-5.994,6.007-7.666,6.525c-2.702,0.841-6.445,4.389-10.78,8.499
				C345.507,109.472,327.943,126.114,296.396,126.114z M340.188,54.504c-1.384,0-2.944,0.177-4.646,0.526
				c-12.856,2.619-48.753,36.108-61.503,48.791c-6.979,6.698-7.241,9.131-7.033,9.866c0.146,0.504,1.226,2.288,9.034,3.941
				c7.087,1.504,13.936,2.27,20.357,2.27c29.065,0,45.55-15.621,56.454-25.959c5.101-4.831,9.125-8.649,13.219-9.918
				c3.058-0.947,3.416-1.827,3.42-1.832c0.35-1.711-5.817-6.954-8.45-9.192c-1.266-1.075-2.513-2.137-3.641-3.159
				c-2.46-2.234-4.157-4.804-5.8-7.29C348.516,57.88,346.281,54.504,340.188,54.504z"/>
		</g>
		<g>
			<path fill="#D31C5C" d="M231.405,103.751c0,0-63.957-28.857-67.137-5.017c-3.186,23.841-13.352,42.231-13.352,42.231
				s90.69,0,102.123-13.042C264.471,114.887,262.936,96.368,231.405,103.751z"/>
			<path fill="#3C2517" d="M150.917,144.075c-1.098,0-2.119-0.579-2.678-1.53c-0.562-0.947-0.578-2.12-0.044-3.079
				c0.098-0.182,9.933-18.205,12.99-41.139c0.738-5.533,4.521-12.134,18.335-12.134c18.573,0,46.568,11.833,52.2,14.298
				c4.596-1.018,8.771-1.531,12.422-1.531c11.117,0,15.553,4.646,17.319,8.538c2.866,6.318,0.534,14.926-6.082,22.474
				C243.367,143.677,160.345,144.075,150.917,144.075z M179.521,92.409c-11.275,0-11.926,4.893-12.173,6.742
				c-2.31,17.301-8.132,31.652-11.4,38.687c34.812-0.301,87.47-3.65,94.756-11.967c4.834-5.513,6.884-11.865,5.101-15.807
				c-1.836-4.04-7.354-4.888-11.661-4.888c-3.441,0-7.495,0.54-12.03,1.602c-0.667,0.154-1.365,0.088-1.989-0.191
				C229.809,106.441,198.47,92.409,179.521,92.409z"/>
		</g>
		<g>
			<path fill="#ED135C" d="M272.479,120.699c0,0,90.166-57.797,102.312-33.325c12.143,24.473,27.131,48.857-10.109,45.725
				C327.439,129.968,256.573,143.858,272.479,120.699z"/>
			<path fill="#3C2517" d="M296.504,137.528c-17.514,0-25.779-2.137-28.539-7.379c-1.654-3.146-1-6.915,1.951-11.211
				c0.232-0.34,0.535-0.628,0.884-0.854c2.54-1.627,62.516-39.859,91.377-39.859c7.658,0,12.838,2.614,15.396,7.769
				c0.85,1.708,1.707,3.415,2.565,5.109c7.604,15.081,14.793,29.326,9.349,38.165c-3.587,5.827-11.645,8.056-25.066,6.932
				c-3.812-0.323-8.176-0.482-13.334-0.482c-8.887,0-18.738,0.474-28.265,0.929C313.39,137.099,304.479,137.528,296.504,137.528z
				 M274.703,122.969c-1.223,1.915-1.674,3.456-1.234,4.283c0.797,1.518,4.848,4.061,23.035,4.061
				c7.829,0,16.665-0.425,26.018-0.875c9.6-0.456,19.527-0.934,28.563-0.934c5.331,0,9.865,0.164,13.856,0.5
				c10.526,0.89,17.085-0.481,19.253-3.99c3.617-5.888-3.105-19.218-9.604-32.109c-0.862-1.708-1.729-3.429-2.584-5.15
				c-0.529-1.065-2.142-4.313-9.829-4.313C336.505,84.441,280.829,119.107,274.703,122.969z"/>
		</g>
		<g>
			<path fill="#ED135C" d="M267.07,101.323c0,0-16.022-38.559-52.938-55.415c-14.363-9.799-48.397,26.335-48.397,26.335
				s-7.737,18.312,86.581,48.456C270.385,117.217,267.07,101.323,267.07,101.323z"/>
			<path fill="#3C2517" d="M252.316,123.81c-0.323,0-0.637-0.049-0.946-0.146c-64.664-20.674-83.43-36.299-87.783-45.77
				c-1.747-3.801-0.991-6.211-0.717-6.862c0.147-0.341,0.345-0.655,0.603-0.92c1.114-1.186,27.507-28.994,44.765-28.994
				c2.805,0,5.301,0.695,7.415,2.07c37.431,17.209,53.619,55.326,54.291,56.94c0.07,0.181,0.13,0.367,0.168,0.562
				c0.064,0.314,1.566,7.826-2.826,14.426c-2.973,4.464-7.812,7.37-14.378,8.64C252.711,123.792,252.516,123.81,252.316,123.81z
				 M168.714,73.621c0.354,2.884,5.986,18.917,83.775,43.872c4.45-0.992,7.671-2.93,9.587-5.77c2.584-3.835,2.148-8.374,1.99-9.516
				c-1.605-3.627-17.611-38.125-51.22-53.472c-0.162-0.071-0.318-0.154-0.465-0.256c-1.127-0.77-2.485-1.146-4.145-1.146
				C196.52,47.333,176.416,65.631,168.714,73.621z"/>
		</g>
		<g>
			<path fill="#BA1E54" d="M272.199,103.637c0,0-27.854,3.671-28.663,9.768c-0.814,6.101,3.189,17.293,15.034,23.765
				c11.854,6.477,22.888,0.518,21.356-10.033C278.409,116.585,278.91,102.557,272.199,103.637z"/>
			<path fill="#3C2517" d="M268.273,142.969L268.273,142.969c-3.649,0-7.516-1.062-11.191-3.074
				c-12.236-6.68-17.699-18.846-16.626-26.898c0.509-3.857,6.362-9.149,31.336-12.444c0.331-0.057,0.726-0.088,1.114-0.088
				c7.468,0,8.414,9.826,9.33,19.324c0.225,2.34,0.449,4.703,0.77,6.906c0.625,4.309-0.459,8.334-3.059,11.334
				C277.188,141.213,273.044,142.969,268.273,142.969z M272.906,106.685c-12.865,1.694-25.039,5.123-26.361,7.379
				c-0.611,4.893,3.104,14.692,13.52,20.381c5.869,3.208,12.242,2.911,15.188-0.487c1.416-1.637,1.969-3.84,1.602-6.375
				c-0.332-2.3-0.57-4.765-0.805-7.198C275.652,116.29,274.729,106.685,272.906,106.685z"/>
		</g>
	</g>
</g>
</svg>
