<?xml version="1.0" encoding="utf-8"?>
<!-- Generator: Adobe Illustrator 16.0.0, SVG Export Plug-In . SVG Version: 6.00 Build 0)  -->
<!DOCTYPE svg PUBLIC "-//W3C//DTD SVG 1.1//EN" "http://www.w3.org/Graphics/SVG/1.1/DTD/svg11.dtd">
<svg version="1.1" id="Layer_1" xmlns="http://www.w3.org/2000/svg" xmlns:xlink="http://www.w3.org/1999/xlink" x="0px" y="0px"
	 width="500px" height="500px" viewBox="0 0 500 500" enable-background="new 0 0 500 500" xml:space="preserve">
<g id="Layer_1_copy_48">
	<g>
		<path fill="#B27F47" d="M440.012,380.455l-23.604,12.066c-75.479,3.082-160.097,0.229-236.015,0.633
			c-2.998-67.465-2.258-130.889-4.848-200.078c-0.157-4.146,0.172-10.104-0.69-12.463c-1.274-3.471-6.164-5.374-9.695-8.307
			c-8.361-6.951-19.914-18.236-20.075-33.233c-0.301-28.17,35.274-45.664,56.077-54.002
			c70.518-28.256,188.671-24.873,246.468,15.924c11.521,8.132,25.125,21.047,25.621,36.693c0.515,16.351-9.989,25.879-19.389,33.925
			c-3.379,2.895-7.963,4.884-9.001,8.307c-1.564,5.161-0.689,19.783-0.689,27.001C444.17,266.996,439.726,320.686,440.012,380.455z"
			/>
		<path fill="#27140E" d="M332.103,397.962c-22.961,0-46.423-0.222-69.112-0.437c-22.093-0.205-44.936-0.42-66.703-0.42
			c-5.329,0-10.624,0.016-15.875,0.039c-0.004,0-0.012,0-0.02,0c-2.136,0-3.891-1.68-3.989-3.813
			c-1.591-35.894-2.14-71.356-2.671-105.662c-0.473-30.506-0.961-62.047-2.174-94.444c-0.045-1.24-0.053-2.638-0.057-4.057
			c-0.008-2.306-0.02-6.164-0.394-7.18c-0.4-1.089-2.517-2.474-4.39-3.694c-1.361-0.891-2.772-1.812-4.107-2.922
			c-9.154-7.605-21.341-19.64-21.517-36.257c-0.244-22.643,19.468-42.072,58.583-57.75c30.14-12.076,69.278-18.726,110.205-18.726
			c57.399,0,108.45,12.791,140.047,35.093c12.152,8.578,26.757,22.453,27.307,39.828c0.595,18.782-12.267,29.795-20.779,37.082
			c-1.193,1.022-2.44,1.892-3.647,2.733c-1.788,1.247-3.812,2.66-4.13,3.702c-1.003,3.309-0.777,13.054-0.626,19.502
			c0.059,2.388,0.107,4.583,0.107,6.341c0,29.248-1.064,57.381-2.099,84.584c-1.084,28.645-2.209,58.268-2.061,88.934
			c0.008,1.502-0.831,2.883-2.174,3.568l-23.606,12.061c-0.515,0.269-1.079,0.414-1.65,0.437
			C392.277,397.496,365.436,397.962,332.103,397.962z M196.286,389.128c21.806,0,44.668,0.213,66.778,0.419
			c22.672,0.213,46.113,0.436,69.037,0.436c32.826,0,59.316-0.45,83.267-1.412l20.643-10.557
			c-0.077-29.949,1.019-58.84,2.078-86.812c1.026-27.128,2.09-55.183,2.09-84.28c0-1.708-0.049-3.835-0.105-6.156
			c-0.229-9.898-0.306-17.803,0.97-22.002c1.117-3.69,4.352-5.944,7.201-7.932c1.095-0.763,2.128-1.484,3.021-2.249
			c10.104-8.651,18.436-16.937,17.995-30.768c-0.444-14.091-13.262-26.03-23.93-33.561C415.044,82.879,365.677,70.62,309.882,70.62
			c-39.937,0-78.021,6.446-107.238,18.156c-35.247,14.124-53.773,31.501-53.57,50.254c0.141,13.309,10.706,23.614,18.64,30.207
			c0.977,0.816,2.14,1.574,3.364,2.375c2.914,1.899,6.21,4.053,7.521,7.629c0.855,2.334,0.87,6.009,0.881,9.901
			c0.005,1.323,0.009,2.626,0.051,3.786c1.22,32.484,1.709,64.067,2.182,94.62c0.511,33.022,1.037,67.13,2.498,101.604
			C188.212,389.135,192.238,389.128,196.286,389.128z"/>
	</g>
	<g>
		<path fill="#EFB378" d="M416.108,392.461c-85.153,1.617-173.31,0.236-259.621,0.693c-2.994-67.467-2.255-130.889-4.849-200.079
			c-0.152-4.146,0.176-10.104-0.689-12.463c-1.271-3.471-6.165-5.374-9.692-8.307c-8.361-6.951-19.918-18.236-20.078-33.233
			c-0.302-28.17,35.277-45.664,56.076-54.002c70.518-28.256,188.672-24.873,246.47,15.924c11.519,8.132,25.123,21.047,25.619,36.693
			c0.517,16.351-9.988,25.879-19.388,33.925c-3.379,2.895-7.96,4.884-9.001,8.307c-1.564,5.161-0.69,19.783-0.69,27.001
			C420.266,266.996,415.821,332.701,416.108,392.461z"/>
		<path fill="#27140E" d="M313.878,397.259c-19.364,0-38.786-0.053-58.205-0.106c-33.141-0.09-66.287-0.184-99.166-0.006
			c0,0-0.016,0-0.019,0c-2.132,0-3.891-1.681-3.986-3.814c-1.594-35.893-2.144-71.373-2.674-105.677
			c-0.474-30.5-0.961-62.038-2.174-94.43c-0.046-1.24-0.049-2.638-0.057-4.057c-0.009-2.306-0.023-6.164-0.394-7.18
			c-0.4-1.089-2.518-2.474-4.39-3.694c-1.362-0.891-2.773-1.812-4.108-2.922c-9.15-7.605-21.341-19.64-21.516-36.257
			c-0.245-22.641,19.468-42.071,58.582-57.75c30.141-12.076,69.278-18.726,110.206-18.726c57.402,0,108.449,12.791,140.051,35.093
			c12.147,8.578,26.754,22.453,27.303,39.828c0.596,18.783-12.271,29.795-20.779,37.082c-1.189,1.022-2.44,1.892-3.646,2.733
			c-1.786,1.247-3.814,2.66-4.132,3.702c-1.003,3.309-0.774,13.054-0.625,19.502c0.057,2.388,0.105,4.583,0.105,6.341
			c0,29.152-1.061,60.105-2.086,90.039c-1.092,31.827-2.216,64.734-2.071,95.484c0.012,2.183-1.73,3.968-3.913,4.006
			C386.67,397.016,355.119,397.259,313.878,397.259z M197.491,389.066c19.365,0,38.787,0.055,58.209,0.106
			c19.411,0.054,38.819,0.106,58.178,0.106c39.367,0,69.885-0.221,98.229-0.731c-0.042-29.759,1.04-61.312,2.09-91.862
			c1.021-29.865,2.079-60.749,2.079-89.764c0-1.708-0.051-3.835-0.104-6.156c-0.232-9.898-0.31-17.803,0.965-22.002
			c1.121-3.69,4.354-5.944,7.205-7.932c1.09-0.763,2.125-1.484,3.021-2.249c10.101-8.651,18.428-16.937,17.995-30.768
			c-0.445-14.091-13.267-26.03-23.934-33.561C391.144,82.879,341.772,70.62,285.979,70.62c-39.937,0-78.018,6.446-107.233,18.156
			c-35.251,14.126-53.772,31.503-53.575,50.254c0.146,13.309,10.707,23.614,18.637,30.207c0.984,0.816,2.145,1.574,3.372,2.375
			c2.91,1.899,6.21,4.053,7.518,7.629c0.858,2.334,0.869,6.009,0.881,9.901c0.008,1.323,0.008,2.626,0.054,3.786
			c1.213,32.48,1.705,64.061,2.174,94.604c0.512,33.024,1.041,67.139,2.502,101.618
			C172.672,389.089,185.068,389.066,197.491,389.066z"/>
	</g>
	<g>
		<path fill="#BE894A" d="M347.421,406.314l-23.605,12.42c-75.477,3.173-160.091,0.236-236.015,0.656
			c-2.993-69.428-2.254-134.682-4.844-205.875c-0.156-4.268,0.172-10.396-0.69-12.826c-1.273-3.568-6.167-5.529-9.696-8.545
			c-8.359-7.154-19.918-18.765-20.078-34.197c-0.301-28.986,35.274-46.985,56.078-55.566
			c70.518-29.074,188.671-25.591,246.472,16.386c11.516,8.366,25.121,21.655,25.617,37.755c0.515,16.827-9.99,26.629-19.389,34.908
			c-3.381,2.977-7.962,5.025-9.003,8.548c-1.56,5.311-0.689,20.354-0.689,27.781C351.578,289.576,347.136,344.814,347.421,406.314z"
			/>
		<path fill="#27140E" d="M239.543,424.218c-22.962,0-46.427-0.229-69.114-0.441c-22.092-0.214-44.939-0.436-66.703-0.436
			c-5.34,0-10.642,0.009-15.901,0.038c-0.008,0-0.016,0-0.023,0c-2.132,0-3.894-1.686-3.985-3.812
			c-1.595-36.938-2.144-73.439-2.674-108.736c-0.47-31.385-0.957-63.835-2.17-97.168c-0.051-1.274-0.054-2.708-0.062-4.167
			c-0.007-2.386-0.019-6.379-0.403-7.462c-0.413-1.16-2.541-2.59-4.422-3.851c-1.361-0.915-2.773-1.863-4.107-3.005
			c-9.131-7.812-21.295-20.168-21.475-37.185c-0.24-23.224,19.461-43.174,58.548-59.296c30.148-12.431,69.298-19.275,110.24-19.275
			c57.424,0,108.483,13.165,140.097,36.121c12.135,8.813,26.711,23.056,27.257,40.862c0.596,19.237-11.735,30.096-20.734,38.024
			c-1.193,1.051-2.44,1.945-3.646,2.811c-1.8,1.289-3.837,2.75-4.169,3.872c-1.011,3.438-0.782,13.487-0.634,20.139
			c0.058,2.453,0.107,4.706,0.107,6.513c0,30.096-1.064,59.039-2.099,87.028c-1.084,29.477-2.205,59.96-2.061,91.511
			c0.008,1.488-0.812,2.854-2.132,3.548l-23.605,12.419c-0.522,0.274-1.099,0.428-1.687,0.457
			C299.697,423.739,272.868,424.218,239.543,424.218z M103.726,415.361c21.807,0,44.669,0.223,66.779,0.429
			c22.673,0.222,46.115,0.45,69.038,0.45c32.799,0,59.273-0.467,83.211-1.458l20.669-10.87c-0.083-30.85,1.017-60.607,2.075-89.421
			c1.026-27.913,2.091-56.786,2.091-86.73c0-1.757-0.05-3.946-0.104-6.333c-0.229-10.165-0.306-18.282,0.954-22.571
			c1.105-3.755,4.333-6.065,7.175-8.103c1.091-0.786,2.129-1.528,3.021-2.315c10.13-8.921,18.477-17.471,18.037-31.792
			c-0.45-14.572-13.289-26.884-23.977-34.648C322.422,100.012,273.064,87.4,217.29,87.4c-39.92,0-77.993,6.631-107.2,18.672
			c-35.27,14.55-53.807,32.474-53.607,51.835c0.144,13.771,10.732,24.405,18.682,31.207c0.983,0.839,2.143,1.619,3.372,2.442
			c2.897,1.95,6.189,4.162,7.483,7.797c0.846,2.37,0.858,6.133,0.869,10.115c0.007,1.365,0.007,2.71,0.054,3.904
			c1.217,33.417,1.704,65.914,2.178,97.335c0.511,34.023,1.041,69.16,2.505,104.68C95.64,415.37,99.671,415.361,103.726,415.361z"/>
	</g>
	<g>
		<path fill="#FDC381" d="M323.521,418.672c-85.158,1.671-173.312,0.244-259.624,0.719c-2.995-69.428-2.255-134.682-4.845-205.875
			c-0.157-4.268,0.172-10.396-0.694-12.826c-1.271-3.568-6.164-5.529-9.688-8.545c-8.364-7.154-19.918-18.765-20.078-34.197
			c-0.306-28.986,35.274-46.985,56.077-55.566c70.518-29.074,188.671-25.591,246.464,16.386
			c11.523,8.366,25.124,21.655,25.621,37.755c0.52,16.827-9.984,26.629-19.385,34.908c-3.379,2.977-7.964,5.025-9.006,8.548
			c-1.561,5.311-0.689,20.354-0.689,27.781C327.675,289.576,323.231,357.18,323.521,418.672z"/>
		<path fill="#27140E" d="M221.17,423.502c-19.38,0-38.818-0.054-58.247-0.115c-33.086-0.091-66.177-0.19-99.002-0.008
			c-0.008,0-0.016,0-0.022,0c-2.137,0-3.891-1.686-3.983-3.812c-1.594-36.938-2.143-73.439-2.677-108.736
			c-0.474-31.384-0.962-63.837-2.174-97.168c-0.047-1.272-0.054-2.701-0.054-4.154c-0.008-2.39-0.023-6.393-0.408-7.476
			c-0.413-1.16-2.541-2.59-4.422-3.853c-1.36-0.916-2.772-1.862-4.103-3.002c-9.136-7.813-21.3-20.17-21.475-37.187
			c-0.244-23.221,19.452-43.172,58.545-59.296c30.146-12.431,69.3-19.275,110.238-19.275c57.424,0,108.489,13.165,140.092,36.121
			c12.135,8.813,26.717,23.053,27.266,40.862c0.592,19.237-11.736,30.096-20.738,38.024c-1.193,1.051-2.437,1.945-3.646,2.812
			c-1.796,1.289-3.833,2.75-4.164,3.872c-1.012,3.438-0.782,13.487-0.639,20.139c0.059,2.453,0.106,4.706,0.106,6.513
			c0,29.997-1.061,61.846-2.086,92.643c-1.091,32.748-2.216,66.611-2.067,98.254c0.008,2.182-1.735,3.967-3.913,4.005
			C294.048,423.243,262.46,423.502,221.17,423.502z M104.694,415.301c19.385,0,38.813,0.055,58.251,0.107
			c19.423,0.06,38.853,0.113,58.225,0.113c39.412,0,69.973-0.236,98.346-0.764c-0.042-30.65,1.042-63.148,2.092-94.623
			c1.021-30.734,2.078-62.516,2.078-92.375c0-1.757-0.051-3.946-0.104-6.333c-0.229-10.165-0.305-18.282,0.957-22.571
			c1.105-3.755,4.329-6.065,7.172-8.103c1.094-0.786,2.128-1.528,3.021-2.315c10.13-8.921,18.477-17.471,18.036-31.792
			c-0.449-14.572-13.288-26.884-23.979-34.648c-30.271-21.987-79.627-34.599-135.402-34.599c-39.923,0-77.989,6.631-107.199,18.672
			c-35.27,14.55-53.811,32.474-53.604,51.835c0.141,13.771,10.729,24.405,18.682,31.207c0.979,0.839,2.14,1.619,3.364,2.442
			c2.907,1.95,6.193,4.162,7.491,7.798c0.844,2.371,0.854,6.14,0.869,10.127c0.004,1.362,0.008,2.7,0.051,3.891
			c1.216,33.415,1.704,65.906,2.177,97.335c0.512,34.022,1.041,69.16,2.506,104.671C80.017,415.324,92.344,415.301,104.694,415.301z
			"/>
	</g>
</g>
</svg>
