<?xml version="1.0" encoding="utf-8"?>
<!-- Generator: Adobe Illustrator 16.0.0, SVG Export Plug-In . SVG Version: 6.00 Build 0)  -->
<!DOCTYPE svg PUBLIC "-//W3C//DTD SVG 1.1//EN" "http://www.w3.org/Graphics/SVG/1.1/DTD/svg11.dtd">
<svg version="1.1" id="Layer_1" xmlns="http://www.w3.org/2000/svg" xmlns:xlink="http://www.w3.org/1999/xlink" x="0px" y="0px"
	 width="500px" height="500px" viewBox="0 0 500 500" enable-background="new 0 0 500 500" xml:space="preserve">
<g id="Layer_1_copy_96">
	<g>
		<g>
			<path fill="#E1A650" d="M329.351,136.941c0,0-88.762,0.677-122.648,75.211c-33.88,74.53-29.137,127.383,98.26,135.516
				c127.38,8.131,187.683-23.041,168.036-99.605C453.343,171.498,414.725,139.651,329.351,136.941z"/>
			<path fill="#3C2517" d="M342.055,351.627c0,0-0.003,0-0.011,0c-11.623,0-24.158-0.42-37.257-1.258
				c-59.693-3.809-95.93-17.691-110.771-42.443c-13.31-22.189-10.155-52.074,10.219-96.893
				c34.21-75.24,124.192-76.796,125.097-76.801c85.096,2.699,126.083,34.424,146.288,113.154c7.057,27.488,4.042,49.918-8.96,66.68
				C447.317,338.994,405.398,351.627,342.055,351.627z M329.266,139.649c-0.767,0.011-87.336,1.579-120.101,73.625
				c-19.292,42.451-22.634,71.64-10.499,91.865c13.856,23.106,48.684,36.139,106.464,39.819c12.986,0.826,25.405,1.253,36.914,1.253
				c61.588,0,102.07-11.934,120.327-35.471c11.923-15.362,14.614-36.227,7.996-62.002
				C450.637,171.856,412.395,142.291,329.266,139.649z"/>
		</g>
		<g>
			<path fill="#E1A650" d="M279.428,165.989c0,0,81.354-0.901,100.611,50.025"/>
			<path fill="#3C2517" d="M380.039,218.723c-1.09,0-2.121-0.667-2.533-1.75c-18.361-48.554-97.195-48.234-98.048-48.273
				c-1.567-0.077-2.726-1.182-2.74-2.679c-0.017-1.498,1.181-2.72,2.679-2.739c0.848-0.012,20.983-0.16,43.821,6.008
				c30.64,8.268,51.166,24.095,59.358,45.766c0.531,1.398-0.177,2.965-1.575,3.492C380.686,218.666,380.362,218.723,380.039,218.723
				z"/>
		</g>
		<g>
			<path fill="#3C2517" d="M284.074,213.198c-0.28,0-0.57-0.044-0.852-0.139c-1.421-0.472-2.189-2.004-1.722-3.425
				c6.354-19.185,25.935-34.111,58.205-44.358c23.67-7.515,45.159-9.542,46.065-9.623c1.521-0.121,2.806,0.963,2.944,2.455
				c0.134,1.488-0.964,2.808-2.453,2.943c-0.854,0.077-85.728,8.324-99.614,50.289C286.273,212.478,285.215,213.198,284.074,213.198
				z"/>
		</g>
		<g>
			<path fill="#F3B867" d="M164.013,173.981c0,0-88.757,0.68-122.637,75.213c-33.88,74.529-29.137,127.383,98.247,135.509
				c127.393,8.133,187.695-23.034,168.044-99.602C288.021,208.537,249.397,176.694,164.013,173.981z"/>
			<path fill="#3C2517" d="M176.722,388.669c-0.004,0-0.009,0-0.012,0c-11.623,0-24.162-0.423-37.264-1.263
				C79.76,383.6,43.527,369.713,28.689,344.973c-13.31-22.193-10.156-52.078,10.218-96.903
				c34.195-75.236,124.182-76.793,125.082-76.797c85.108,2.699,126.099,34.423,146.304,113.155
				c7.057,27.488,4.043,49.92-8.963,66.676C281.991,376.031,240.065,388.669,176.722,388.669z M163.924,176.694
				c-0.758,0.01-87.337,1.575-120.081,73.619c-19.296,42.451-22.638,71.646-10.506,91.869
				c13.855,23.104,48.683,36.133,106.451,39.815c12.994,0.831,25.41,1.251,36.922,1.251c61.593,0.009,102.082-11.936,120.339-35.466
				c11.92-15.365,14.61-36.226,7.996-62.005C285.311,208.897,247.064,179.329,163.924,176.694z"/>
		</g>
		<g>
			<path fill="#F3B867" d="M114.091,203.034c0,0,81.356-0.903,100.614,50.019"/>
			<path fill="#3C2517" d="M214.705,255.766c-1.097,0-2.129-0.67-2.537-1.757c-18.357-48.537-97.242-48.277-98.047-48.264
				c-1.502-0.075-2.723-1.189-2.742-2.687c-0.015-1.494,1.183-2.72,2.681-2.735c0.851,0.005,20.979-0.158,43.819,6.006
				c30.639,8.272,51.163,24.095,59.364,45.765c0.527,1.403-0.182,2.965-1.583,3.491
				C215.345,255.709,215.021,255.766,214.705,255.766z"/>
		</g>
		<g>
			<path fill="#3C2517" d="M118.736,250.242c-0.28,0-0.569-0.046-0.851-0.141c-1.42-0.47-2.19-2.006-1.717-3.42
				c6.345-19.192,25.926-34.113,58.201-44.363c23.665-7.516,45.159-9.539,46.061-9.623c1.493-0.108,2.811,0.964,2.945,2.456
				c0.135,1.488-0.959,2.807-2.449,2.945c-0.854,0.079-85.731,8.322-99.615,50.283C120.936,249.52,119.873,250.242,118.736,250.242z
				"/>
		</g>
	</g>
</g>
</svg>
