<svg id="calmdown" xmlns="http://www.w3.org/2000/svg" viewBox="0 0 300 300"><defs><style>.cls-1{fill:#fcc393;}.cls-2{fill:#281912;}.cls-3{fill:#ee3024;}.cls-4{fill:#141211;}.cls-5{fill:#fffffa;}.cls-6{opacity:0.7;}.cls-7{fill:#f9a880;}.cls-8{fill:#834c1f;}.cls-9{fill:#552011;}.cls-10{fill:#f6e10f;}.cls-11{fill:#211010;}.cls-12{fill:#fff;stroke-width:2.64px;fill-rule:evenodd;}.cls-12,.cls-14{stroke:#3c2415;stroke-miterlimit:10;}.cls-13{font-size:15.83px;font-family:MyriadHebrew-Regular, Myriad Hebrew;}.cls-14{fill:#bc855c;stroke-width:1.98px;}</style></defs><title>Artboard 1</title><g id="Layer_1_copy_13" data-name="Layer 1 copy 13"><path class="cls-1" d="M90.67,163.61s1,11.12-5.54,14.65,13.71,39.61,13.71,39.61l45.68-27.14-9.38-14.55s-3.09-4.67-1.35-12.58S90.61,157.25,90.67,163.61Z"/><path class="cls-2" d="M98.17,220.39l-.92-1.63c-1.78-3.18-17.34-31.29-15-39.51a4.11,4.11,0,0,1,2-2.59c5.37-2.91,4.61-12.8,4.6-12.9v-.14A3.48,3.48,0,0,1,90,161.09c3.65-3.69,17.23-4.67,24.68-4.67,6.22,0,17.11.56,20.14,4.32a3.77,3.77,0,0,1,.79,3.26c-1.56,7.06,1.07,11.14,1.1,11.18l10.41,16.15ZM92.51,163.7c.11,1.8.46,12.38-6.51,16.17a.71.71,0,0,0-.21.39c-1.4,4.86,7.34,23.41,13.74,35.08L142,190.13l-8.35-13c-.13-.2-3.49-5.4-1.6-14,0-.05,0-.07-.08-.19-1.14-1.42-7-3-17.29-3C102.57,160.07,93.6,162.19,92.51,163.7Z"/><path class="cls-1" d="M169.84,106.88a6.62,6.62,0,0,0-1.89.31c-5.17-23.42-28-41.08-55.41-41.08-28.14,0-51.39,18.61-55.74,43a6.66,6.66,0,0,0-3.41-1c-4.4,0-8,4.46-8,10s3.58,10,8,10A6.7,6.7,0,0,0,57,126.86c5,23.65,27.9,41.55,55.5,41.55s50.71-18,55.54-41.86a6.46,6.46,0,0,0,1.76.26c4.4,0,8-4.47,8-10S174.24,106.88,169.84,106.88Z"/><path class="cls-2" d="M112.54,170.24c-27.13,0-50.61-17-56.77-40.78a8,8,0,0,1-2.38.37c-5.41,0-9.8-5.29-9.8-11.79s4.39-11.79,9.8-11.79a7.65,7.65,0,0,1,2.07.28C61,81.92,84.63,64.29,112.54,64.29c27.05,0,50.62,17,56.78,40.79a4.52,4.52,0,0,1,.52,0c5.4,0,9.81,5.28,9.81,11.78s-4.41,11.79-9.81,11.79h-.35C163.67,152.84,140,170.24,112.54,170.24ZM58.28,123.88l.54,2.6c4.88,23.24,27.47,40.11,53.72,40.11s49-17,53.76-40.4l.39-1.93,1.89.53a4.49,4.49,0,0,0,1.26.19c3.39,0,6.16-3.65,6.16-8.14s-2.77-8.13-6.16-8.13a4.66,4.66,0,0,0-1.37.23l-1.88.56-.42-1.91c-5.07-23-27.63-39.65-53.63-39.65-27,0-49.65,17.43-53.94,41.45L58.14,112l-2.27-1.34a4.78,4.78,0,0,0-2.48-.74c-3.39,0-6.16,3.66-6.16,8.14s2.77,8.14,6.16,8.14a4.87,4.87,0,0,0,2.66-.86Z"/><path class="cls-3" d="M83.9,176.18s9.33,18.23,25.87,18.23c24.17-1.7,27.13-18.23,27.13-18.23s45.78,2.54,52.56,18.23,30.1,58.17,0,59.82H36.85s-37.73,7.15-4.24-60.67C46.23,171,83.9,176.18,83.9,176.18Z"/><path class="cls-2" d="M34,256.27c-3.64,0-10.32-.93-14.18-7.15-6.16-9.91-2.41-28.88,11.17-56.37l.07-.13c9.84-16.34,31.48-18.78,43.5-18.78a76.81,76.81,0,0,1,9.6.54l.94.13.43.84c.09.18,9,17.19,24.19,17.24,22.43-1.61,25.37-16.58,25.4-16.73l.28-1.58,1.61.08c1.92.11,47,2.8,54.14,19.32.72,1.68,1.64,3.67,2.66,5.87,6.87,14.9,17.25,37.42,10.12,49.26-2.67,4.43-7.5,6.86-14.36,7.24H37A19.26,19.26,0,0,1,34,256.27Zm.22-61.83c-16.12,32.68-15,46.73-11.3,52.75,2.78,4.49,7.56,5.43,11.08,5.43a16.56,16.56,0,0,0,2.53-.18l.33,0H189.46c5.56-.3,9.3-2.1,11.33-5.47,6.14-10.19-4.16-32.51-10.31-45.85-1-2.24-2-4.25-2.69-5.94-5-11.58-36.17-16.11-49.55-17-1.51,4.43-7.57,16.67-28.34,18.13h-.13c-15.51,0-24.84-14.54-27-18.34a79.9,79.9,0,0,0-8.2-.4C63.32,177.49,43.15,179.69,34.21,194.44Z"/><path class="cls-4" d="M92.18,116.84c0,4-2.78,7.21-6.22,7.21s-6.21-3.23-6.21-7.21,2.78-7.2,6.21-7.2S92.18,112.86,92.18,116.84Z"/><path class="cls-5" d="M87.25,116.84a2.51,2.51,0,1,1-2.51-2.51A2.51,2.51,0,0,1,87.25,116.84Z"/><path class="cls-4" d="M142.87,116.84c0,4-2.78,7.21-6.22,7.21s-6.22-3.23-6.22-7.21,2.78-7.2,6.22-7.2S142.87,112.86,142.87,116.84Z"/><path class="cls-5" d="M137.94,116.84a2.51,2.51,0,1,1-2.51-2.51A2.51,2.51,0,0,1,137.94,116.84Z"/><g class="cls-6"><path class="cls-7" d="M87.25,132.66c0,2.58-3.51,4.67-7.85,4.67s-7.85-2.09-7.85-4.67S75.07,128,79.4,128,87.25,130.09,87.25,132.66Z"/></g><g class="cls-6"><path class="cls-7" d="M155.15,132.16c0,2.58-3.51,4.66-7.85,4.66s-7.85-2.08-7.85-4.66,3.52-4.66,7.85-4.66S155.15,129.58,155.15,132.16Z"/></g><path class="cls-8" d="M77.77,109.64A9.67,9.67,0,0,1,86,106.38c5.37.42,5.94,1.42,6.22-1.27s-2.26-3.25-6.22-2.83S74.37,110.49,77.77,109.64Z"/><path class="cls-8" d="M146.24,109.57a9.68,9.68,0,0,0-8.19-3.25c-5.37.42-5.94,1.41-6.22-1.28s2.26-3.24,6.22-2.82S149.63,110.42,146.24,109.57Z"/><path class="cls-9" d="M56.64,106.52S93.73,101,98.54,78.26c0,0,5.48,15.46,40.91,14.83,25.2-.44,26.64,13.5,26.64,13.5s.06,2.24,6.67-3.78,3.14-24.9-16.15-42.49S113.29,42,92.2,44.35,47.37,70,56.64,106.52Z"/><path class="cls-2" d="M166.63,108.82a2.3,2.3,0,0,1-2.36-2.06c-.09-.65-1.89-11.85-23.66-11.85h-1.13c-25.76.43-36.29-7.45-40.35-12.33-3.24,8.16-11,15-22.63,20a88.8,88.8,0,0,1-19.6,5.73l-1.63.24-.4-1.6c-5.48-21.6.57-36.54,6.6-45.28C68.83,51,80.24,43.87,92,42.53a145.38,145.38,0,0,1,16.29-1c20.48,0,36.69,5.7,49.56,17.44,9.59,8.74,19.83,22.6,19.82,35.27,0,4.31-1.27,7.74-3.67,9.92C169.48,108.27,167.74,108.82,166.63,108.82Zm-26-17.56c20.53,0,25.66,9.46,26.91,13.43a29.92,29.92,0,0,0,4-3.23c1.6-1.45,2.48-4,2.48-7.22,0-7.53-4.89-20-18.63-32.57-12.17-11.1-27.57-16.49-47.1-16.49a140.22,140.22,0,0,0-15.87,1C81.69,47.38,71.25,54,64.47,63.76,59,71.66,53.57,85.05,58,104.42c7.08-1.38,34.82-7.94,38.74-26.54l1.34-6.34,2.17,6.11s1.33,3.39,6.45,6.73,14.85,7.22,32.71,6.89Z"/><polygon class="cls-10" points="95.75 254.65 74.01 238.85 100.88 238.85 109.18 213.3 117.49 238.85 144.35 238.85 122.62 254.65 95.75 254.65"/><path class="cls-11" d="M122.62,256.07H95.75a1.5,1.5,0,0,1-.84-.27L73.18,240a1.42,1.42,0,0,1,.83-2.57H99.84l8-24.57a1.43,1.43,0,0,1,1.35-1h0a1.43,1.43,0,0,1,1.36,1l8,24.57h25.84a1.42,1.42,0,0,1,.83,2.57l-21.73,15.8A1.5,1.5,0,0,1,122.62,256.07Zm-26.41-2.84h26l17.82-13H117.49a1.41,1.41,0,0,1-1.35-1l-7-21.39-7,21.39a1.41,1.41,0,0,1-1.35,1H78.39Z"/></g><path class="cls-8" d="M103.25,139.4s8.2,1.13,9.33-3.11,0-12.54,0-12.54,5.09,6.32,2.54,13.95S99.33,139.33,103.25,139.4Z"/><path class="cls-12" d="M274,44.51a16.21,16.21,0,0,0-2.22-1.9,6.39,6.39,0,0,0-3.5-1.73c-2.94.84-79.78.6-80.79,1.73-.78.44-10.3,3.11-7.23,23.26a100.35,100.35,0,0,0,3.54,17.52c2.89,9.94,7.83,14.45,14,15.69a12,12,0,0,0,4.74,1.11c1.61.09,3.23-.09,4.84.15,2.29.33,3.14,1.66,3.35,5.1a22.28,22.28,0,0,1-1.62,10.18c-.39.92-1,1.81-.39,2.95s1.25.87,2,.51c5.19-2.53,9-7.18,10.31-15.58.39-2.47,1.1-3.67,2.59-4l6,0q3.5,0,7,.06l15.27.81c1.61-.24,3.23-.06,4.84-.15a12.1,12.1,0,0,0,4.75-1.11c6.16-1.24,11.1-5.75,14-15.69C277.12,77.71,282,54.24,274,44.51Z"/><text class="cls-13" transform="translate(189.13 66.11)">1 2 3 4 5 6<tspan x="9.21" y="19">7 8 9 10</tspan></text><path class="cls-14" d="M103.36,148.24c2.39-.9,6.23-1.65,9.6.81a9.14,9.14,0,0,1,1.6,3.64c.08,7.38-6.37,8-7,7.62s-8.23-2-7.09-9A5.83,5.83,0,0,1,103.36,148.24Z"/></svg>