<?xml version="1.0" encoding="utf-8"?>
<!-- Generator: Adobe Illustrator 16.0.0, SVG Export Plug-In . SVG Version: 6.00 Build 0)  -->
<!DOCTYPE svg PUBLIC "-//W3C//DTD SVG 1.1//EN" "http://www.w3.org/Graphics/SVG/1.1/DTD/svg11.dtd">
<svg version="1.1" id="Layer_1" xmlns="http://www.w3.org/2000/svg" xmlns:xlink="http://www.w3.org/1999/xlink" x="0px" y="0px"
	 width="500px" height="500px" viewBox="0 0 500 500" enable-background="new 0 0 500 500" xml:space="preserve">
<g id="Layer_1_copy_82">
	<g>
		<path fill="#3C50A2" d="M181.312,98.566c0,0-2.15-20.403,20.402-21.479c22.551-1.073,26.311,17.717,26.311,17.717"/>
		<path fill="#27140E" d="M177.691,98.945c-0.04-0.411-0.986-10.134,5.385-17.555c4.189-4.88,10.402-7.552,18.466-7.937
			c20.268-0.931,28.537,13.078,30.048,20.639l-7.133,1.429c-0.134-0.625-3.564-15.729-22.567-14.8
			c-5.959,0.284-10.415,2.088-13.25,5.36c-4.333,5-3.715,12.05-3.708,12.121L177.691,98.945z"/>
	</g>
	<g>
		<path fill="#AA3923" d="M181.576,100.713c0,0-184.433-1.609-128.055,221.486c69.263,4.021,69.263,0.806,69.263,0.806
			l72.486-193.296L181.576,100.713z"/>
		<path fill="#27140E" d="M106.648,327.859c-12.207,0-30.15-0.684-53.337-2.031c-1.587-0.092-2.926-1.198-3.317-2.736
			c-19.02-75.261-13.006-133.529,17.877-173.185C108.546,97.675,178.51,97.075,181.47,97.075c1.404,0,2.8,0.812,3.399,2.083
			l13.694,28.997c0.416,0.89,0.461,1.909,0.113,2.832L126.322,323.93c-0.604,2.611-3.748,3.092-5.012,3.281
			C118.457,327.643,113.523,327.859,106.648,327.859z M119.393,321.695c-0.151,0.383-0.242,0.812-0.242,1.301
			c0-0.432,0.075-0.862,0.231-1.271L119.393,321.695z M56.404,318.716c21.754,1.242,38.649,1.866,50.244,1.866
			c8.056,0,11.746-0.307,13.358-0.533l71.317-190.179l-12.026-25.472c-12.365,0.445-70.632,4.959-105.687,49.977
			C44.529,191.723,38.741,247.005,56.404,318.716z"/>
	</g>
	<g>
		<path fill="#F05323" d="M369.236,254.279c0,0,4.028-155.175-112.758-159.206c-116.784-4.026-145.772,26.58-155.438,103.897
			c-9.67,77.318,20.139,119.74,20.139,119.74S307.221,290.516,369.236,254.279z"/>
		<path fill="#27140E" d="M121.175,322.346c-1.171,0-2.287-0.568-2.979-1.55c-1.248-1.776-30.494-44.463-20.764-122.277
			c5.143-41.152,15.601-65.615,34.973-81.791c21.235-17.732,53.546-25.642,104.773-25.642c6.138,0,12.678,0.119,19.427,0.352
			c49.382,1.703,85.169,30.598,103.483,83.559c13.65,39.465,12.826,77.765,12.781,79.376c-0.03,1.257-0.715,2.41-1.797,3.045
			c-61.908,36.178-241.729,63.73-249.354,64.887C121.536,322.333,121.354,322.346,121.175,322.346z M237.179,98.363
			c-101.956,0-123.97,32.588-132.53,101.06c-8.27,66.173,12.977,106.435,18.319,115.326c21.471-3.384,184.07-29.772,242.646-62.588
			c-0.037-8.42-0.936-41.738-12.46-74.957c-17.508-50.473-50.079-76.884-96.799-78.495C249.683,98.48,243.231,98.363,237.179,98.363
			z"/>
	</g>
	<g>
		<path fill="#26286D" d="M446.532,303.641c0,0,28.476,9.488,23.557,51.407c-0.138,1.2-1.017,5.048-1.665,6.372
			c-1.3,2.686-3.317,6.448-4.036,7.335c-7.52,9.222-23.954,21.397-48.454-3.101c-34.634-34.633-41.081-37.852-41.081-37.852
			S405.459,281.089,446.532,303.641z"/>
		<path fill="#27140E" d="M443.379,383.709c-9.653,0-19.748-5.215-30.015-15.48c-32.797-32.787-39.955-37.062-40.246-37.229
			c-0.866-0.498-1.529-1.355-1.76-2.33c-0.236-0.973-0.097-2.023,0.45-2.861c0.856-1.301,21.301-31.957,52.104-31.957
			c8.127,0,16.25,2.185,24.16,6.482c3.569,1.409,30.514,13.502,25.635,55.134c-0.154,1.33-1.098,5.671-2.01,7.546
			c-0.785,1.612-3.29,6.565-4.493,8.043C462.504,376.824,454.545,383.709,443.379,383.709z M379.952,326.992
			c4.79,3.755,15.564,13.107,38.553,36.095c8.858,8.854,17.222,13.347,24.874,13.347c8.312,0,14.479-5.428,18.187-9.978
			c0.411-0.537,2.108-3.571,3.587-6.616c0.374-0.777,1.198-4.113,1.323-5.209c4.489-38.267-20.055-47.186-21.104-47.546
			c-0.194-0.067-0.402-0.157-0.581-0.254c-6.891-3.785-13.916-5.702-20.876-5.702C402.097,301.128,385.539,319.773,379.952,326.992z
			"/>
	</g>
	<g>
		<path fill="#3C50A2" d="M105.88,323.775c0,0,136.893-69.262,264.951-70.067c28.188,9.663,80.541,52.351,80.541,52.351
			s-35.438-13.688-107.93,44.291c-72.48,57.994-128.835,60.407-177.963,27.39C116.347,344.715,105.88,323.775,105.88,323.775z"/>
		<path fill="#27140E" d="M231.286,402.74c-23.643,0-45.832-7.191-67.84-21.982c-49.356-33.178-60.381-54.463-60.823-55.354
			c-0.894-1.788-0.173-3.967,1.613-4.873c1.377-0.695,139.128-69.66,266.572-70.46c0.008,0,0.014,0,0.022,0
			c0.396,0,0.803,0.066,1.182,0.196c28.477,9.765,79.5,51.213,81.657,52.973c1.388,1.132,1.742,3.102,0.847,4.646
			c-0.902,1.549-2.792,2.207-4.455,1.57c0,0-3.263-1.169-9.685-1.169c-14.387,0-45.817,5.835-94.662,44.909
			C304.047,386.529,266.616,402.74,231.286,402.74z M111.125,325.266c4.848,6.879,19.645,24.76,56.379,49.452
			c20.771,13.96,41.635,20.744,63.782,20.744c33.612,0,69.557-15.681,109.886-47.946c49.223-39.375,82.064-46.151,97.932-46.49
			c-16.311-12.582-48.87-36.568-68.877-43.676C256.091,258.27,133.528,314.506,111.125,325.266z"/>
	</g>
</g>
</svg>
