<?xml version="1.0" encoding="utf-8"?>
<!-- Generator: Adobe Illustrator 16.0.0, SVG Export Plug-In . SVG Version: 6.00 Build 0)  -->
<!DOCTYPE svg PUBLIC "-//W3C//DTD SVG 1.1//EN" "http://www.w3.org/Graphics/SVG/1.1/DTD/svg11.dtd">
<svg version="1.1" id="Layer_1" xmlns="http://www.w3.org/2000/svg" xmlns:xlink="http://www.w3.org/1999/xlink" x="0px" y="0px"
	 width="500px" height="500px" viewBox="0 0 500 500" enable-background="new 0 0 500 500" xml:space="preserve">
<g id="Layer_1_copy_26">
	<g>
		<path fill="#2C1D13" d="M140.804,298.824c0,0,15-4.625,5.739-25.311C83.937,32.437,257.751,68.999,257.751,68.999
			s154.544-20.735,103.114,193.653c-11.867,30.223,9.037,23.27,15.306,25.141C339.765,318.925,203.938,329.145,140.804,298.824z"/>
		<path fill="#281912" d="M244.895,319.994c-43.113,0-80.535-6.568-105.374-18.494l-6.829-3.285l7.237-2.229
			c0.138-0.043,3.895-1.316,5.695-5.389c1.755-3.964,1.153-9.306-1.788-15.871l-0.166-0.468
			c-20.984-80.791-17.857-139.553,9.286-174.643c22.734-29.396,56.988-35.565,81.721-35.565c12.215,0,21.033,1.531,23.188,1.946
			c1.312-0.149,5.087-0.513,10.531-0.513c19.984,0,57.217,4.7,82.025,36.16c26.516,33.631,31.001,88.034,13.326,161.701
			l-0.121,0.394c-4.395,11.188-3.715,15.93-2.369,17.936c1.723,2.58,6.126,2.656,10.015,2.725c2.221,0.041,4.142,0.072,5.745,0.552
			l5.223,1.561l-4.143,3.539C357.154,307.958,303.621,319.994,244.895,319.994z M147.11,298.412
			c23.972,10.115,58.386,15.65,97.784,15.65c51.113,0,99.499-9.597,122.815-23.851c-4.154-0.271-8.709-1.237-11.384-5.239
			c-3.17-4.73-2.628-12.113,1.702-23.212c17.171-71.706,13.043-124.34-12.266-156.441c-23.258-29.495-58.455-33.899-77.367-33.899
			c-6.272,0-10.215,0.514-10.254,0.52l-0.502,0.066l-0.502-0.105c-0.091-0.018-9.309-1.914-22.462-1.914
			c-23.403,0-55.765,5.768-77.03,33.262c-25.932,33.529-28.724,90.482-8.295,169.279c3.601,8.138,4.15,15.068,1.639,20.599
			C149.959,295.41,148.534,297.132,147.11,298.412z"/>
	</g>
	<g>
		<g>
			<path fill="#FCC393" d="M218.037,293.229c0,0,1.506,18.975-8.761,25c-10.269,6.028-16.32,79.698-16.32,79.698l123.591,22.406
				l-13.49-80.847l-14.805-24.811c0,0-4.895-7.975-2.143-21.449C288.864,279.753,217.943,282.398,218.037,293.229z"/>
		</g>
		<g>
			<path fill="#281912" d="M320.167,424.005l-130.39-23.639l0.221-2.685c1.45-17.645,7.017-75.695,17.777-82.012
				c7.077-4.156,7.673-17.439,7.304-22.211l-0.007-0.205c-0.013-1.094,0.313-2.736,1.917-4.354
				c6.085-6.144,27.306-7.779,38.89-7.779c9.669,0,26.65,0.922,31.71,7.121c1.343,1.646,1.837,3.576,1.429,5.576
				c-2.455,12.022,1.601,19.031,1.773,19.324l15.102,25.307l0.091,0.547L320.167,424.005z M196.141,395.486l116.786,21.174
				l-12.703-76.131l-14.521-24.328c-0.204-0.338-5.452-9.109-2.498-23.564c0.031-0.156,0.059-0.307-0.212-0.643
				c-1.941-2.377-11.254-4.936-27.113-4.936c-20.843,0-33.637,4.014-34.864,6.227c0.164,2.65,0.878,20.98-10.242,27.506
				C205.402,323.943,199.099,361.477,196.141,395.486z"/>
		</g>
	</g>
	<g>
		<path fill="#969891" d="M207.237,322.273c0,0-11.018,47.623,39.094,46.021c56.48-1.803,42.862-30.104,44.308-49.614
			c0,0-5.176-0.978,41.808,9.864c46.977,10.838,62.159,23.854,69.384,114.195c3.616,26.022-35.414,21.086-35.414,21.086
			l-234.166-0.015c0,0-33.252,7.839-26.024-29.026C113.45,397.927,108.92,323.188,207.237,322.273z"/>
		<path fill="#281912" d="M125.322,467.474c-7.979,0-14.296-2.549-18.272-7.373c-4.72-5.743-5.979-14.448-3.734-25.881
			c0.925-4.725,1.667-10.168,2.451-15.926c5.326-39.096,13.377-98.172,101.443-98.987c0.828,0.016,1.77,0.399,2.342,1.11
			c0.569,0.705,0.781,1.635,0.581,2.521c-0.048,0.188-4.264,19.287,5.57,31.623c5.714,7.174,15.199,10.806,28.192,10.806
			c0.765,0,1.541-0.015,2.341-0.039c18.625-0.595,30.61-4.089,36.643-10.679c6.005-6.569,5.479-15.905,4.967-24.934
			c-0.197-3.439-0.397-6.984-0.225-10.328c-0.109-0.367-0.146-0.766-0.092-1.152c0.213-1.463,1.476-2.549,2.951-2.549
			c0.184,0,0.525,0.039,0.705,0.07c0.242,0.047,0.473,0.121,0.688,0.223c1.824,0.479,9.567,2.367,41.238,9.674
			c49.968,11.527,64.517,27.371,71.675,116.853c0.875,6.269-0.493,11.633-4.091,15.766c-6.401,7.354-18.283,8.896-27.125,8.896
			c-3.774,0-6.578-0.289-7.328-0.375l-233.684-0.019C131.589,466.972,128.809,467.474,125.322,467.474z M203.72,325.309
			c-79.599,2.256-86.797,55.067-92.072,93.784c-0.798,5.853-1.55,11.375-2.512,16.265c-1.883,9.608-1.043,16.661,2.499,20.969
			c3.546,4.307,9.402,5.219,13.688,5.219c3.533,0,6.22-0.619,6.248-0.627c0.22-0.047,0.45-0.072,0.679-0.072l234.166,0.019
			c0.127,0,0.247,0.008,0.373,0.014c0.027,0.01,2.84,0.354,6.782,0.354c6.229,0,17.455-0.894,22.647-6.849
			c2.457-2.826,3.327-6.496,2.672-11.235c-7.236-90.445-22.322-101.375-67.111-111.709c-19.244-4.443-32.232-7.476-38.289-8.941
			c0.016,2.193,0.145,4.496,0.277,6.885c0.558,9.779,1.186,20.861-6.512,29.273c-7.17,7.838-20.523,11.955-40.831,12.607
			c-0.862,0.028-1.702,0.039-2.529,0.039c-14.906,0-25.961-4.396-32.859-13.07C202.186,347.098,202.824,332.164,203.72,325.309z"/>
	</g>
	<g>
		<polygon fill="#D8D8D6" points="187.832,323.779 171.628,327.354 171.628,416.339 187.832,416.339 		"/>
		<path fill="#281912" d="M187.832,419.314h-16.204c-1.636,0-2.966-1.336-2.966-2.976v-88.985c0-1.392,0.97-2.599,2.326-2.896
			l16.205-3.572c0.886-0.193,1.8,0.02,2.498,0.584c0.703,0.562,1.11,1.412,1.11,2.312v92.561
			C190.802,417.979,189.473,419.314,187.832,419.314z M174.597,413.373h10.271v-85.898l-10.271,2.262V413.373z"/>
	</g>
	<g>
		<polygon fill="#D8D8D6" points="316.959,325.203 333.163,328.777 333.163,417.77 316.959,417.77 		"/>
		<path fill="#281912" d="M333.163,420.732h-16.204c-1.636,0-2.967-1.324-2.967-2.963v-92.566c0-0.898,0.409-1.75,1.105-2.311
			c0.703-0.564,1.612-0.781,2.499-0.584l16.205,3.573c1.36,0.297,2.329,1.502,2.329,2.896v88.992
			C336.132,419.408,334.804,420.732,333.163,420.732z M319.928,414.802h10.271V331.16l-10.271-2.264V414.802z"/>
	</g>
	<g>
		<path fill="#2C1D13" stroke="#281912" stroke-width="5.9342" stroke-miterlimit="10" d="M191.257,332.555"/>
	</g>
	<g>
		<g>
			<path fill="#FCC393" d="M343.052,196.516c-1.026,0-2.022,0.216-2.977,0.529c-8.171-39.94-44.237-70.042-87.523-70.042
				c-44.424,0-81.152,31.73-88.013,73.236c-1.643-1.051-3.452-1.683-5.385-1.683c-6.964,0-12.616,7.606-12.616,16.985
				c0,9.375,5.652,16.985,12.616,16.985c2.079,0,4.02-0.746,5.75-1.954c7.846,40.341,44.075,70.855,87.647,70.855
				c43.764,0,80.099-30.781,87.73-71.386c0.895,0.275,1.812,0.443,2.77,0.443c6.964,0,12.611-7.606,12.611-16.981
				C355.663,204.122,350.016,196.516,343.052,196.516z"/>
		</g>
		<g>
			<path fill="#281912" d="M252.552,304.395c-42.893,0-80.021-28.99-89.738-69.476c-1.196,0.38-2.416,0.572-3.659,0.572
				c-8.592,0-15.581-8.952-15.581-19.951c0-11.006,6.989-19.955,15.581-19.955c1.065,0,2.122,0.145,3.158,0.428
				c8.75-41.929,46.102-71.977,90.239-71.977c42.808,0,80.093,29.071,89.791,69.541c8.979-0.569,16.287,8.626,16.287,19.927
				c0,11.184-7.259,20.273-16.014,19.939C333.449,274.73,296.044,304.395,252.552,304.395z M166.944,225.52l0.87,4.483
				c7.716,39.667,43.354,68.456,84.737,68.456c41.633,0,77.305-29.001,84.812-68.964l0.617-3.249l3.16,0.961
				c0.698,0.208,1.321,0.31,1.91,0.31c5.226,0,9.644-6.414,9.644-14.012c0-7.598-4.418-14.02-9.644-14.02
				c-0.607,0-1.273,0.125-2.052,0.381l-3.165,1.035l-0.666-3.263c-8.021-39.207-43.605-67.666-84.617-67.666
				c-42.525,0-78.308,29.753-85.086,70.752l-0.733,4.441l-3.793-2.428c-6.54-4.178-13.431,3.385-13.431,12.803
				c0,9.548,7.107,17.208,13.693,12.6L166.944,225.52z"/>
		</g>
	</g>
	<g>
		<path fill="#141211" d="M220.423,213.493c0,6.79-4.402,12.289-9.828,12.289c-5.42,0-9.822-5.5-9.822-12.289
			c0-6.782,4.402-12.286,9.822-12.286C216.021,201.207,220.423,206.711,220.423,213.493z"/>
	</g>
	<g>
		<path fill="#FFFFFA" d="M212.628,213.504c0,2.358-1.774,4.268-3.967,4.268c-2.188,0-3.961-1.91-3.961-4.268
			c0-2.369,1.773-4.283,3.961-4.283C210.854,209.221,212.628,211.136,212.628,213.504z"/>
	</g>
	<g>
		<path fill="#141211" d="M300.459,213.493c0,6.79-4.4,12.289-9.82,12.289c-5.422,0-9.826-5.5-9.826-12.289
			c0-6.782,4.404-12.286,9.826-12.286C296.059,201.207,300.459,206.711,300.459,213.493z"/>
	</g>
	<g>
		<path fill="#FFFFFA" d="M292.669,213.504c0,2.358-1.776,4.268-3.961,4.268c-2.192,0-3.966-1.91-3.966-4.268
			c0-2.369,1.773-4.283,3.966-4.283C290.893,209.221,292.669,211.136,292.669,213.504z"/>
	</g>
	<g>
		<path fill="#834C1F" d="M243.177,235.896c0,0,12.949,1.926,14.734-5.304c1.784-7.225,0-21.371,0-21.371s8.028,10.775,4.016,23.783
			C257.911,246.012,236.999,235.789,243.177,235.896z"/>
	</g>
	<g opacity="0.7">
		<g>
			<path fill="#F9A880" d="M212.628,240.477c0,4.393-5.544,7.947-12.404,7.947c-6.841,0-12.392-3.554-12.392-7.947
				c0-4.397,5.551-7.951,12.392-7.951C207.084,232.526,212.628,236.08,212.628,240.477z"/>
		</g>
	</g>
	<g opacity="0.7">
		<g>
			<ellipse fill="#F9A880" cx="307.454" cy="239.614" rx="12.398" ry="7.952"/>
		</g>
	</g>
	<g>
		<path fill="#FFFFFF" d="M226.219,251.793c0,0,5.802,22.652,26.333,21.688c20.531-0.965,28.261-21.688,28.261-21.688
			s-9.065,10.857-28.26,10.857C232.837,262.652,226.219,251.793,226.219,251.793z"/>
	</g>
	<g>
		<path fill="#301E12" d="M196.509,199.399c0,0,4.46-6.265,12.945-5.543s9.372,2.412,9.817-2.169
			c0.445-4.577-3.572-5.535-9.817-4.813C203.21,187.596,191.155,200.854,196.509,199.399z"/>
	</g>
	<g>
		<path fill="#301E12" d="M305.783,199.399c0,0-4.461-6.265-12.94-5.543c-8.481,0.722-9.375,2.412-9.819-2.169
			c-0.447-4.577,3.574-5.535,9.819-4.813C299.092,187.596,311.141,200.854,305.783,199.399z"/>
	</g>
	<g>
		<path fill="#2C1D13" d="M163.021,202.949c0,0,48.139-42.259,52.423-66.355c0,0,57.136,50.849,124.466,51.375
			c0,0-7.115-83.312-83.16-76.086C180.697,119.112,156.596,148.502,163.021,202.949z"/>
	</g>
	<g>
		<path fill="#D8D8D6" d="M335.316,416.339c-9.399-15.33-151.16-24.228-163.688,0c-12.526,24.236,0,47.207,0,47.207h163.688
			C335.316,463.546,344.708,438.267,335.316,416.339z"/>
		<path fill="#281912" d="M335.316,466.509H171.628c-1.082,0-2.083-0.588-2.604-1.545c-0.542-0.986-13.134-24.643-0.031-49.981
			c7.48-14.467,49.104-16.623,73.251-16.623c34.492,0,88.728,5.225,95.599,16.436c0.075,0.127,0.143,0.25,0.196,0.385
			c9.753,22.75,0.455,48.326,0.056,49.4C337.662,465.742,336.552,466.509,335.316,466.509z M173.495,460.58h159.668
			c1.851-6.137,6.729-25.728-0.479-42.836c-4.34-6.135-45.271-13.455-90.44-13.455c-58.098,0-66.818,11.18-67.976,13.416
			C164.391,436.8,171.122,455.228,173.495,460.58z"/>
	</g>
	<g>
		<rect x="226.215" y="444.535" fill="#969891" width="62.493" height="19.012"/>
		<path fill="#281912" d="M288.708,466.509h-62.493c-1.635,0-2.965-1.326-2.965-2.963v-19.012c0-1.637,1.33-2.967,2.965-2.967
			h62.493c1.64,0,2.969,1.329,2.969,2.967v19.012C291.677,465.183,290.348,466.509,288.708,466.509z M229.186,460.58h56.557v-13.078
			h-56.557V460.58z"/>
	</g>
</g>
</svg>
