<svg id="watch_out_for_cards" data-name="watch out for cards" xmlns="http://www.w3.org/2000/svg" xmlns:xlink="http://www.w3.org/1999/xlink" viewBox="0 0 300 300"><defs><style>.cls-1,.cls-5{fill:none;}.cls-2{fill:#58595b;}.cls-3{fill:#d1d3d4;}.cls-4{fill:#c5ecff;}.cls-5,.cls-6,.cls-7{stroke:#3c2415;stroke-miterlimit:10;stroke-width:2.11px;}.cls-6{fill:#efefed;}.cls-7{fill:#9b9b9d;}.cls-8{fill:#f1f2f2;}.cls-9{clip-path:url(#clip-path);}.cls-10{fill:#fde51a;}.cls-11{fill:#27140e;}.cls-12{fill:#f04b2a;}.cls-13{fill:#4e4e4e;}.cls-14{fill:#ffeec0;}.cls-15{fill:#f5803e;}.cls-16{fill:#818181;}.cls-17{fill:#fac279;}.cls-18{fill:#251f1e;}.cls-19{fill:#4b2718;}.cls-20{fill:#3858a8;}.cls-21{fill:#d67226;}.cls-22{fill:#f8801e;}.cls-23{fill:#81441e;}</style><clipPath id="clip-path"><path class="cls-1" d="M279.84,176.3c.18-.8.34-1.6.5-2.4,1.35-6.76,4.05-21.64,2.42-26h0a129.67,129.67,0,0,0-259.34.91s0,.75,0,2a129.68,129.68,0,0,0,256.19,26.43h0S279.71,176.93,279.84,176.3Z"/></clipPath></defs><title>watch out for cars</title><path class="cls-2" d="M283,149.3a129.68,129.68,0,0,1-259.35,0"/><path class="cls-3" d="M23.67,149.3s-.07,28.64,7.08,28.64l249.13-.2s5.26-23.7,3.13-29.35C274.83,149.62,23.67,149.3,23.67,149.3Z"/><path class="cls-4" d="M23.67,149.3a129.68,129.68,0,0,1,259.35,0"/><line class="cls-5" x1="23.67" y1="149.3" x2="283.01" y2="148.39"/><rect class="cls-6" x="30.75" y="177.94" width="15.39" height="12.08"/><rect class="cls-7" x="46.14" y="177.94" width="15.39" height="12.08"/><rect class="cls-6" x="61.53" y="177.94" width="15.39" height="12.08"/><rect class="cls-7" x="76.92" y="177.94" width="15.39" height="12.08"/><rect class="cls-6" x="92.31" y="177.94" width="15.39" height="12.08"/><rect class="cls-7" x="107.71" y="177.94" width="15.39" height="12.08"/><rect class="cls-6" x="123.1" y="177.94" width="15.39" height="12.08"/><rect class="cls-7" x="138.49" y="177.94" width="15.4" height="12.08"/><rect class="cls-6" x="153.89" y="177.94" width="15.39" height="12.08"/><rect class="cls-7" x="169.28" y="177.94" width="15.39" height="12.08"/><rect class="cls-6" x="184.67" y="177.94" width="15.39" height="12.08"/><rect class="cls-7" x="200.06" y="177.94" width="15.4" height="12.08"/><rect class="cls-6" x="215.45" y="177.94" width="15.39" height="12.08"/><rect class="cls-7" x="230.84" y="177.94" width="15.39" height="12.08"/><rect class="cls-6" x="246.23" y="177.94" width="15.4" height="12.08"/><polygon class="cls-7" points="276.18 190.02 261.63 190.02 261.63 177.94 277.02 177.94 276.18 190.02"/><path class="cls-1" d="M283,149.3A129.68,129.68,0,1,0,153.35,279"/><rect class="cls-8" x="69.23" y="226.56" width="42.39" height="5.75"/><rect class="cls-8" x="139.44" y="226.56" width="42.39" height="5.75"/><rect class="cls-8" x="209.65" y="226.56" width="42.39" height="5.75"/><g class="cls-9"><g id="Layer_1_copy_16" data-name="Layer 1 copy 16"><path class="cls-10" d="M118.54,175.58s9.22-2.4,8.82,4.81-3.81,7-3.81,7l-8.22-5.21Z"/><path class="cls-11" d="M123.58,188.93h-.12a1.57,1.57,0,0,1-.73-.23l-8.22-5.22a1.52,1.52,0,0,1-.55-1.95l3.21-6.61a1.47,1.47,0,0,1,1-.81,15.56,15.56,0,0,1,3.61-.44,7.4,7.4,0,0,1,5.6,2,6.25,6.25,0,0,1,1.52,4.83C128.44,188.52,124.38,188.93,123.58,188.93Zm-6.28-7.29,6.55,4.15c.66-.33,1.77-1.67,2-5.48a3.32,3.32,0,0,0-.68-2.56,4.83,4.83,0,0,0-3.39-1,13.06,13.06,0,0,0-2.17.2Z"/><path class="cls-12" d="M-47,200.23l-9.62-.2s-10.42-2.2-5.81-10a8.24,8.24,0,0,1,4.21-2.4s-5.61-24.45,22.05-33.68c20.44-3,25.65-13.22,25.65-13.22S2.09,111,42.78,114.05s58.92,21.24,70,42.09c5.61,13,5.81,21,5.81,21s1.4,9.83,7.42,10.63,5.81,12.63-3.41,11.82Z"/><path class="cls-11" d="M-47,201.76h0l-9.62-.2a1.33,1.33,0,0,1-.28,0c-.24-.05-5.91-1.3-7.68-5.31-.92-2.09-.63-4.44.86-7l.12-.17A8.39,8.39,0,0,1-60,186.56c-1.51-9.37,1.54-26.81,23.32-34.07a1.31,1.31,0,0,1,.27-.06c18.72-2.76,24.15-11.79,24.5-12.39a44.91,44.91,0,0,1,10.59-13.9c6.93-6.31,19.23-13.83,38.4-13.83,1.9,0,3.85.07,5.81.22,19.22,1.42,34.54,6.2,46.85,14.62,9.89,6.76,17.85,16,24.34,28.27a.37.37,0,0,0,0,.11C119.52,168.06,120,176,120.06,177c.38,2.47,2.16,8.73,6.1,9.25s5.61,4.18,5.39,7.54a7.69,7.69,0,0,1-8.13,7.37h0c-.3,0-.61,0-.93,0l-169.5.6Zm-9.43-3.25,9.44.2,169.54-.6a.65.65,0,0,1,.14,0c4,.35,5.67-2.15,5.83-4.49.13-1.94-.78-4-2.76-4.3-7.08-.95-8.66-11.47-8.72-11.92a1.1,1.1,0,0,1,0-.18c0-.08-.28-7.91-5.66-20.42-17.66-33.35-46-39.55-68.69-41.23-1.88-.14-3.76-.21-5.58-.21-14.55,0-26.75,4.36-36.24,12.94a42.46,42.46,0,0,0-10,13,.36.36,0,0,1,0,.09c-.23.44-5.79,10.91-26.66,14-10.89,3.67-17.71,10.13-20.28,19.22a28.05,28.05,0,0,0-.63,12.63,1.53,1.53,0,0,1-.2,1.16,1.56,1.56,0,0,1-1,.67,6.77,6.77,0,0,0-3.27,1.78c-.94,1.63-1.15,3-.65,4.11C-60.82,197.31-57.16,198.33-56.44,198.51Z"/><path class="cls-13" d="M83.43,175.9A19.08,19.08,0,1,1,64.36,195,19.07,19.07,0,0,1,83.43,175.9Z"/><path class="cls-11" d="M83.43,215.58A20.6,20.6,0,1,1,104,195,20.64,20.64,0,0,1,83.43,215.58Zm0-38.15A17.55,17.55,0,1,0,101,195,17.56,17.56,0,0,0,83.43,177.43Z"/><path class="cls-14" d="M-6.93,152.13H33.76V121.87S9.5,118.46-6.93,152.13Z"/><path class="cls-11" d="M33.76,153.66H-6.93a1.52,1.52,0,0,1-1.29-.72,1.53,1.53,0,0,1-.08-1.48c6-12.29,13.69-21.15,22.87-26.34,10.5-5.94,19.11-4.81,19.4-4.77a1.53,1.53,0,0,1,1.31,1.52v30.26A1.53,1.53,0,0,1,33.76,153.66Zm-38.2-3.06H32.23V123.3h-.38C12.4,123.3.15,142-4.44,150.6Z"/><path class="cls-14" d="M43,121.67v29.86H101.1S80.46,119.06,43,121.67Z"/><path class="cls-11" d="M101.1,153.06H43a1.53,1.53,0,0,1-1.53-1.53V121.67a1.53,1.53,0,0,1,1.42-1.53c1.46-.1,2.93-.15,4.37-.15,35.2,0,55,30.41,55.15,30.72a1.51,1.51,0,0,1,0,1.55A1.53,1.53,0,0,1,101.1,153.06ZM44.5,150H98.12c-5.32-6.95-23.06-27-50.88-27-.9,0-1.82,0-2.74.07V150Z"/><path class="cls-15" d="M31.55,161a3,3,0,0,1-3,3H23.93a3,3,0,0,1-3-3h0a3,3,0,0,1,3-3h4.62a3,3,0,0,1,3,3Z"/><path class="cls-11" d="M28.55,165.48H23.93a4.53,4.53,0,1,1,0-9.06h4.62a4.53,4.53,0,0,1,0,9.06Zm-4.62-6a1.48,1.48,0,1,0,0,3h4.62a1.48,1.48,0,0,0,0-3Z"/><path class="cls-16" d="M-20.16,172a22.66,22.66,0,0,0-22.65,22.65,22.65,22.65,0,0,0,22.65,22.65A22.65,22.65,0,0,0,2.49,194.62,22.66,22.66,0,0,0-20.16,172Zm0,33.68A11.63,11.63,0,0,1-31.78,194,11.62,11.62,0,0,1-20.16,182.4,11.63,11.63,0,0,1-8.53,194,11.63,11.63,0,0,1-20.16,205.65Z"/><path class="cls-11" d="M-20.16,218.8a24.2,24.2,0,0,1-24.17-24.18,24.19,24.19,0,0,1,24.17-24.17A24.2,24.2,0,0,1,4,194.62,24.21,24.21,0,0,1-20.16,218.8Zm0-45.3a21.14,21.14,0,0,0-21.12,21.12,21.14,21.14,0,0,0,21.12,21.12A21.14,21.14,0,0,0,1,194.62,21.14,21.14,0,0,0-20.16,173.5Zm0,33.67A13.17,13.17,0,0,1-33.31,194a13.17,13.17,0,0,1,13.15-13.15A13.17,13.17,0,0,1-7,194,13.17,13.17,0,0,1-20.16,207.17Zm0-23.25A10.12,10.12,0,0,0-30.26,194a10.11,10.11,0,0,0,10.1,10.1A10.11,10.11,0,0,0-10.06,194,10.12,10.12,0,0,0-20.16,183.92Z"/><path class="cls-16" d="M84.66,172a22.65,22.65,0,1,0,22.65,22.65A22.65,22.65,0,0,0,84.66,172Zm0,33.68A11.63,11.63,0,1,1,96.29,194,11.63,11.63,0,0,1,84.66,205.65Z"/><path class="cls-11" d="M84.66,218.8a24.18,24.18,0,1,1,24.18-24.18A24.21,24.21,0,0,1,84.66,218.8Zm0-45.3a21.12,21.12,0,1,0,21.13,21.12A21.15,21.15,0,0,0,84.66,173.5Zm0,33.67A13.15,13.15,0,1,1,97.82,194,13.17,13.17,0,0,1,84.66,207.17Zm0-23.25A10.1,10.1,0,1,0,94.76,194,10.11,10.11,0,0,0,84.66,183.92Z"/></g></g><path class="cls-17" d="M206.28,64s-2.16,1.74-2.37,6.06c-.16,3.37-1.82,4-2.54,4.18a.71.71,0,0,0-.46.21c-.27.41-.72,1.45.74,2.18a1.34,1.34,0,0,1,.52,1.85s-5,8.67,12.89,6.92c.87.18.88,4.2,2.23,4.32.11,0,0,.33.06.42.35.6,1.8,2.78,3.13-1,0-.07-.72-3.05-.72-3.05s-.72-.77,2-2.74c3.28-2.34,3.5-7.19,3.5-7.19l-2.88-10.79-10.69-3Z"/><path class="cls-18" d="M218.75,91.89c-.93,0-1.58-.91-1.89-1.45a.75.75,0,0,1-.08-.27c-.8-.41-1.13-1.66-1.42-2.79a7.2,7.2,0,0,0-.45-1.38c-7.36.69-11.87-.3-13.4-2.94a5.17,5.17,0,0,1,.16-4.81,1.16,1.16,0,0,0,.09-.73.66.66,0,0,0-.36-.36,2.25,2.25,0,0,1-1.27-1.37,2,2,0,0,1,.3-1.62,1.14,1.14,0,0,1,.83-.46c.59-.11,2-.68,2.09-3.66.22-4.51,2.48-6.39,2.57-6.47a.5.5,0,0,1,.19-.1l5.45-1.65a.54.54,0,0,1,.31,0l10.69,3a.55.55,0,0,1,.39.4L225.83,76a.88.88,0,0,1,0,.17c0,.21-.27,5.15-3.73,7.62-1.75,1.25-1.87,1.88-1.88,2a.56.56,0,0,1,.07.16c.78,3.15.77,3.17.7,3.38-.6,1.73-1.34,2.58-2.26,2.58m1.15-2.82c-.08-.39-.38-1.63-.66-2.78a1.1,1.1,0,0,1-.12-.64c.08-.8.85-1.7,2.35-2.77,2.78-2,3.2-6.06,3.25-6.68L222,65.81,211.73,63l-5.17,1.56a8.21,8.21,0,0,0-2.09,5.58c-.18,3.78-2.16,4.56-3,4.71l-.13,0a.94.94,0,0,0-.13.65,1.24,1.24,0,0,0,.69.66,1.76,1.76,0,0,1,.93,1,2.2,2.2,0,0,1-.17,1.6,4.12,4.12,0,0,0-.17,3.73c1.27,2.19,5.65,3,12.51,2.35a.49.49,0,0,1,.17,0c.73.14,1,1.06,1.28,2.23.17.66.54,2.05.9,2.08.14,0,.59.11.55.81.29.46.63.77.85.77s.7-.45,1.15-1.69"/><path class="cls-19" d="M217,73.78s2.16-3.09,3.29.31-1.54,3.39-1.54,3.39.72,7.29,4.42,6.37,13.26-8.53,4.62-18.4S207,60.93,207,60.93s-4.3.62-5.35.62c-.87,0,2.67,4.52,6.17,3,1.44,1,5.14,1.23,5.14,1.23s-.72,6.07,4,8"/><path class="cls-18" d="M222.5,84.49c-3.62,0-4.32-6.67-4.35-7a.62.62,0,0,1,.14-.43.6.6,0,0,1,.42-.18,1.45,1.45,0,0,0,1-.51,2.55,2.55,0,0,0,0-2.15c-.15-.45-.47-1.2-.92-1.2s-1.14.7-1.38,1a.55.55,0,0,1-.67.2c-4.22-1.75-4.45-6.37-4.39-8a13.4,13.4,0,0,1-4.6-1.12,4.27,4.27,0,0,1-1.46.25h0c-2.74,0-5.34-2.71-5.34-3.72a.68.68,0,0,1,.69-.7c.81,0,3.95-.43,5.19-.6a21.25,21.25,0,0,1,7.8-1.46,17.53,17.53,0,0,1,13.53,6.15c4.1,4.69,4,8.72,3.21,11.27a13.17,13.17,0,0,1-8.12,8,2.84,2.84,0,0,1-.76.1m-7.86-24.44a20.35,20.35,0,0,0-7.42,1.4l-.14,0c-.15,0-3.19.45-4.75.58a5.6,5.6,0,0,0,4,2.22h0a3,3,0,0,0,1.29-.28.6.6,0,0,1,.55.06c1.07.77,3.86,1.08,4.85,1.13a.57.57,0,0,1,.4.2.55.55,0,0,1,.12.43s-.58,5.32,3.29,7.25a3,3,0,0,1,2-1.15c.88,0,1.55.67,2,2a3.44,3.44,0,0,1-.14,3.17,2.31,2.31,0,0,1-1.32.87c.28,1.89,1.2,5.42,3.17,5.42a1.71,1.71,0,0,0,.49-.07A11.94,11.94,0,0,0,230.31,76c1-3.32,0-6.75-3-10.2a16.22,16.22,0,0,0-12.69-5.77"/><path class="cls-17" d="M220.18,132.47s.75,7.11,4.17,11.95S236,155.77,236,155.77l3.34-.17-.42-2.69s-9.46-11.86-10.43-13.91c-1.42-2.67-.83-6.53-.83-6.53l-1.61-4.65Z"/><path class="cls-18" d="M236,156.33a.55.55,0,0,1-.35-.12c-.34-.27-8.36-6.62-11.79-11.46s-4.24-11.92-4.27-12.22a.57.57,0,0,1,.21-.5l5.9-4.65a.59.59,0,0,1,.51-.1.56.56,0,0,1,.37.36l1.61,4.65a.5.5,0,0,1,0,.27s-.53,3.71.79,6.2c.74,1.58,7.1,9.72,10.36,13.8a.54.54,0,0,1,.11.27l.42,2.68a.61.61,0,0,1-.12.45.58.58,0,0,1-.41.2l-3.33.17h0m2.39-3.18c-1-1.31-9.46-11.91-10.4-13.89-1.34-2.54-1-6-.91-6.73l-1.3-3.78-5,4c.18,1.39,1.13,7.27,4,11.38,3.07,4.34,10.23,10.15,11.4,11.1l2.5-.13Z"/><path class="cls-17" d="M211.22,129.35a41.15,41.15,0,0,0-4.64,10.9c-1.75,6.51-1.67,17.85-1.67,17.85l3.16,3.17,1.35-2.67s1.08-13.18,3.83-17.76l5.42-10-2.61-4.6Z"/><path class="cls-18" d="M208.07,161.83a.55.55,0,0,1-.4-.16l-3.15-3.17a.56.56,0,0,1-.17-.39c0-.47-.06-11.5,1.69-18A41.22,41.22,0,0,1,210.76,129a.49.49,0,0,1,.16-.16l4.84-3.12a.57.57,0,0,1,.44-.07.59.59,0,0,1,.35.27l2.61,4.6a.57.57,0,0,1,0,.55l-5.43,10c-2.66,4.43-3.75,17.4-3.76,17.53a.83.83,0,0,1-.06.21l-1.35,2.67a.56.56,0,0,1-.41.3h-.09m.8-3.38c.11-1.38,1.22-13.43,3.89-17.88l5.27-9.72L215.87,127l-4.24,2.73a41.72,41.72,0,0,0-4.51,10.64c-1.57,5.85-1.64,15.84-1.65,17.47l2.45,2.46,1-1.88"/><path class="cls-20" d="M214.09,119.16l-3.92,9.91s6.67,1.84,9.67,1.84,1.92-11.43,1.92-11.43Z"/><path class="cls-18" d="M219.85,131.47c-3,0-9.56-1.78-9.83-1.86a.53.53,0,0,1-.35-.29.55.55,0,0,1,0-.45l3.92-9.91a.56.56,0,0,1,.55-.36l7.68.32a.55.55,0,0,1,.53.51c.09.94.82,9.24-1.17,11.43a1.74,1.74,0,0,1-1.3.61m-5.39-11.73-3.54,9c1.7.45,6.55,1.66,8.93,1.66a.64.64,0,0,0,.47-.24c1.32-1.45,1.14-7.37.93-10.09Z"/><path class="cls-17" d="M236.44,108.93s-3.53-8.11-8-10.69-1.05-4.62-1.05-4.62h3.51s2.66,1.17,3.33,2.63c1,1.17,6,10.68,6.18,11.84.07.2,4.87,3.78.95,6.12-2.79,1.59-5.48-.57-5.48-1.07s-.77-1.12-.94-1.88.75-2.29,1.54-2.33"/><path class="cls-18" d="M239.2,115.34a5.25,5.25,0,0,1-2.68-.76c-.29-.18-1.24-.8-1.24-1.44a2.48,2.48,0,0,0-.31-.53,3.59,3.59,0,0,1-.62-1.22,3,3,0,0,1,.67-2.12,2.73,2.73,0,0,1,.67-.65c-.87-1.81-3.93-7.81-7.57-9.89-1.72-1-2.59-2-2.6-3.18a3.1,3.1,0,0,1,1.55-2.41.54.54,0,0,1,.28-.08h3.51a.59.59,0,0,1,.22,0c.29.12,2.81,1.26,3.59,2.84a88,88,0,0,1,6.2,11.87l.12.1c.71.67,2.62,2.44,2.41,4.35a3.27,3.27,0,0,1-1.8,2.43,4.8,4.8,0,0,1-2.4.64h0M227.52,94.18a1.9,1.9,0,0,0-.87,1.36c0,.69.7,1.46,2,2.21,4.62,2.64,8.13,10.62,8.28,11a.57.57,0,0,1-.49.78,1.09,1.09,0,0,0-.55.46,1.94,1.94,0,0,0-.47,1.19,2.77,2.77,0,0,0,.45.84,2.52,2.52,0,0,1,.5,1.06,3.85,3.85,0,0,0,2.8,1.18,3.72,3.72,0,0,0,1.83-.49,2.25,2.25,0,0,0,1.26-1.58c.14-1.35-1.52-2.9-2.07-3.4-.25-.23-.33-.31-.38-.46l0-.1a86.7,86.7,0,0,0-6-11.57.42.42,0,0,1-.09-.14c-.45-1-2.18-2-2.94-2.3Z"/><path class="cls-21" d="M230.86,93.2s-2.55,3.63-2.67,6.34c-.21.23-5.27-4.23-5.27-4.23l-1.61-5.69s6.63.92,9.55,3.58"/><path class="cls-18" d="M228.16,100.11c-.23,0-.67,0-5.61-4.38a.48.48,0,0,1-.17-.27l-1.61-5.69a.55.55,0,0,1,.11-.52.59.59,0,0,1,.5-.19c.28,0,6.84,1,9.86,3.73a.58.58,0,0,1,.08.74s-2.46,3.52-2.57,6a.54.54,0,0,1-.15.35.62.62,0,0,1-.44.2m2-6.8c-2.25-1.76-6.26-2.66-8-3L223.41,95c1.62,1.42,3.4,2.92,4.33,3.62a16.94,16.94,0,0,1,2.37-5.31"/><path class="cls-20" d="M215.06,119.23l4.12,13.23s7.26.22,9.76-.84c.92-3.18,1.11-13.28,1.11-13.28l-9.29-6.53Z"/><path class="cls-18" d="M220.74,133c-1,0-1.58,0-1.58,0a.57.57,0,0,1-.52-.4l-4.12-13.22a.6.6,0,0,1,.09-.52l5.71-7.42a.56.56,0,0,1,.77-.11l9.29,6.53a.56.56,0,0,1,.23.47c0,.42-.2,10.21-1.13,13.42a.57.57,0,0,1-.32.36c-1.77.75-5.55.91-8.42.91m7.73-1.85c.74-3,1-10.92,1-12.56l-8.6-6-5.2,6.76,3.91,12.56h1.15a28.81,28.81,0,0,0,7.73-.72"/><path class="cls-22" d="M220.64,87c2.93-1.73,10.72,30.17,10.72,30.17s.58,1.33-3.34,1.75-10.93,1.58-14.68,0a3,3,0,0,1-2.09-3.34s0-25.63,4.21-27.63a6.53,6.53,0,0,0,5.18-1"/><path class="cls-18" d="M218.67,120.26a14.44,14.44,0,0,1-5.52-.84,3.49,3.49,0,0,1-2.46-3.9c0-2.86.19-26,4.53-28.1a.56.56,0,0,1,.42,0,4.2,4.2,0,0,0,1.19.15,6.88,6.88,0,0,0,3.52-1,1,1,0,0,1,.53-.15c.76,0,2.35,0,6.94,15.52,2.14,7.25,4,14.6,4.07,15.11a1.18,1.18,0,0,1-.12,1c-.45.78-1.66,1.26-3.69,1.47l-1.79.21a65.64,65.64,0,0,1-7.62.6m12.16-2.91h0l0-.08c-4.47-18.3-8.56-29.53-9.89-29.81a8.07,8.07,0,0,1-4.09,1.2,5.71,5.71,0,0,1-1.29-.14c-2.69,1.89-3.71,17.45-3.73,27v.09a2.37,2.37,0,0,0,1.69,2.71l.06,0a13.74,13.74,0,0,0,5.11.76,66.17,66.17,0,0,0,7.49-.59l1.8-.21c2.09-.23,2.66-.69,2.81-.88s0-.11.06-.11"/><path class="cls-23" d="M239,152.91,236,155.77s.5,7.92-.5,9.67,1.25,4.09,3.42,1,6.42-11.34,6.42-11.34.42-2.44-6.42-2.19"/><path class="cls-18" d="M236.76,168.51a2,2,0,0,1-1.74-1,2.36,2.36,0,0,1,0-2.33c.67-1.16.62-6.36.43-9.36a.54.54,0,0,1,.17-.43l2.91-2.86a.59.59,0,0,1,.38-.16l1,0c2.85,0,4.72.51,5.57,1.52a1.69,1.69,0,0,1,.45,1.35.33.33,0,0,1,0,.16c-.17.34-4.3,8.33-6.46,11.41a3.33,3.33,0,0,1-2.65,1.74M244.81,155a.94.94,0,0,0-.23-.43c-.4-.43-1.67-1.17-5.4-1.06L236.6,156c.09,1.55.4,8-.58,9.73a1.22,1.22,0,0,0,0,1.21.87.87,0,0,0,.76.46c.54,0,1.15-.45,1.73-1.27,2-2.82,5.79-10.13,6.32-11.16"/><path class="cls-23" d="M209.42,158.6l-4.51-.5s-7.44,4.25-9.45,4.4-2.69,3.32,1.08,3.39,13-1,13-1,2.88-1.2-.12-6.29"/><path class="cls-18" d="M197,166.46h-.42c-2.36,0-3.23-1.2-3.26-2.26a2.27,2.27,0,0,1,2.15-2.25c1.55-.12,7.18-3.16,9.21-4.32a.62.62,0,0,1,.35-.08l4.5.5a.6.6,0,0,1,.42.28c1.31,2.21,1.73,4,1.27,5.43a2.81,2.81,0,0,1-1.42,1.66.33.33,0,0,1-.15,0c-.35.05-8.68,1-12.65,1m12.43-2.12a1.74,1.74,0,0,0,.72-.94c.24-.72.24-2-1-4.27l-4-.45c-1.28.73-7.55,4.23-9.53,4.38a1.15,1.15,0,0,0-1.11,1.1c0,.7.85,1.14,2.16,1.17,3.49.07,11.82-.87,12.83-1"/><path class="cls-17" d="M210.94,102.58l-1.49,3.63s-.37,1.51-3.08,1a86.27,86.27,0,0,0-9.65-.48L195.18,104a4.72,4.72,0,0,0-1.67-.47c-.75,0-2.79-.66-3.44.12s-3.52,5.22-.8,6.81,3.86.51,5.46.07c3.05,1.55,15.56,1.82,15.56,1.82s2.1.54,6.17-6.89c4.56-8.32-5.52-2.86-5.52-2.86"/><path class="cls-18" d="M212.54,111.83c-1.22,1.07-2,1.11-2.3,1.06-.92,0-12.2-.31-15.55-1.78-.23.07-.45.15-.68.24a5,5,0,0,1-5-.42,2.79,2.79,0,0,1-1.38-2c-.39-2.2,1.5-5,2-5.7s2.07-.6,3.16-.42a5.69,5.69,0,0,0,.72.1,5.21,5.21,0,0,1,1.92.53.57.57,0,0,1,.23.23l1.38,2.49a79.78,79.78,0,0,1,9.41.49c2.08.37,2.44-.61,2.44-.62h0l0-.08,1.49-3.63a.57.57,0,0,1,.25-.28c.9-.49,5.49-2.85,7.05-1.28.85.85.6,2.41-.77,4.91a23,23,0,0,1-4.41,6.12M210,106.39a1.85,1.85,0,0,1-.58.85,3.56,3.56,0,0,1-3.13.55,87.68,87.68,0,0,0-9.55-.47.56.56,0,0,1-.49-.29l-1.45-2.61a3.7,3.7,0,0,0-1.28-.35,5.81,5.81,0,0,1-.88-.11c-.62-.1-1.75-.29-2.11,0h0c-.58.7-2.08,3.15-1.79,4.78a1.67,1.67,0,0,0,.83,1.19,3.84,3.84,0,0,0,4.06.34,8.66,8.66,0,0,1,1-.33.51.51,0,0,1,.4,0c2.9,1.47,15.19,1.76,15.32,1.76h.08s.48,0,1.41-.79a21.46,21.46,0,0,0,4.17-5.82c1.49-2.72,1.1-3.43.95-3.58-.69-.69-3.64.39-5.54,1.39Z"/><path class="cls-22" d="M210.23,102.24l6.39,3.06s5.28-8.72,5.08-11.74-6.2-8.76-11.47,8.68"/><path class="cls-18" d="M217,105.72a.58.58,0,0,1-.62.08l-6.39-3a.57.57,0,0,1-.3-.67c1.69-5.59,3.61-9.36,5.72-11.19,1.77-1.55,3.28-1.4,4.23-1a4.55,4.55,0,0,1,2.62,3.64c.21,3.11-4.6,11.16-5.15,12.07a.69.69,0,0,1-.11.13m-.86-14c-1.3,1.14-3.25,3.84-5.23,10.21l5.5,2.63c1.58-2.68,4.87-8.77,4.73-11a3.44,3.44,0,0,0-1.93-2.67,2.92,2.92,0,0,0-3.07.81"/></svg>