<?xml version="1.0" encoding="utf-8"?>
<!-- Generator: Adobe Illustrator 16.0.0, SVG Export Plug-In . SVG Version: 6.00 Build 0)  -->
<!DOCTYPE svg PUBLIC "-//W3C//DTD SVG 1.1//EN" "http://www.w3.org/Graphics/SVG/1.1/DTD/svg11.dtd">
<svg version="1.1" id="Layer_1" xmlns="http://www.w3.org/2000/svg" xmlns:xlink="http://www.w3.org/1999/xlink" x="0px" y="0px"
	 width="500px" height="500px" viewBox="0 0 500 500" enable-background="new 0 0 500 500" xml:space="preserve">
<g id="Layer_1_copy_56">
	<g>
		<path fill="#F3F3F3" d="M288.159,288.381c0,0,85.965,35.227,5.491,116.018c53.974-4.526,44.92,35.544,44.92,35.544H159.218
			C79.604,433,77.781,371.109,84.245,344.288c6.464-26.822,51.381-130.562,29.408-130.975c-56.876-8.814-48.7-47.539-15.415-59.173
			c33.283-11.636,92.146,20.624,39.469,109.497c-52.678,88.863,5.354,126.219,5.354,126.219
			c-31.348-111.82,60.434-178.714,90.487-190.667c30.054-11.958,42.978-30.702,40.396-54.617
			c-2.579-23.913,17.455-52.675,36.519-62.048c19.062-9.369,6.463-16.48,15.188-35.868c8.728-19.392,21.01-6.788,22.949,8.4
			c1.936,15.188,28.761,27.792,28.761,27.792c13.568,3.234,31.669,16.803,32.636,30.7s-0.967,14.867,3.561,23.594
			c4.523,8.724,11.306,14.219,7.105,20.358c-13.569,36.841-57.2,19.39-57.2,19.39s29.411,39.429,28.762,64.956
			c-0.645,25.527-16.15,54.615-27.146,91.134c-10.99,36.518,5.812,68.832,13.249,70.772c7.435,1.935,39.75-4.207,37.809,36.192
			h-55.264c0,0-26.343-43.998-33.456-90.528"/>
		<path fill="#27140E" d="M416.132,443.742h-55.264c-1.333,0-2.571-0.703-3.26-1.85c-0.972-1.621-21.512-36.242-31.021-76.845
			c-4.734,11.294-12.653,23.052-23.729,35.202c14.879,0.186,25.84,4.229,32.661,12.066c10.353,11.892,6.908,27.794,6.756,28.465
			c-0.39,1.732-1.931,2.96-3.706,2.96H159.218c-0.111,0-0.223-0.003-0.332-0.015c-30.8-2.686-53.302-13.619-66.886-32.494
			c-15.354-21.344-15.981-49.035-11.451-67.838c1.795-7.441,6.386-20.408,11.701-35.422c10.758-30.381,28.759-81.227,22.47-90.302
			c-0.258-0.371-0.492-0.55-1.139-0.56c-0.171-0.004-0.342-0.018-0.514-0.043c-38.27-5.933-43.998-24.068-44.689-31.591
			c-1.299-14.221,10.465-28.584,28.609-34.925c16.002-5.591,39.714-2.069,54.082,15.48c10.595,12.942,23.37,43.084-10.092,99.541
			c-37.541,63.32-17.703,98.951-4.486,113.427c-11.688-55.584,7.091-97.845,25.687-124.125
			c24.454-34.556,56.459-53.848,69.964-59.219c27.672-11.009,40.467-28.058,38.024-50.676c-2.748-25.479,18.12-55.789,38.618-65.866
			c9.324-4.583,9.356-7.39,9.438-14.169c0.064-5.059,0.137-11.354,3.96-19.85c4.979-11.061,11.033-12.637,15.242-12.003
			c8.162,1.214,13.691,11.727,14.943,21.481c1.346,10.566,19.096,21.227,26.27,24.677c13.78,3.457,33.985,17.392,35.147,34.033
			c0.3,4.341,0.329,7.425,0.347,9.904c0.049,5.33,0.062,6.938,2.793,12.206c1.166,2.248,2.511,4.288,3.811,6.263
			c3.455,5.252,7.364,11.19,3.339,17.57c-3.979,10.524-10.642,17.925-19.811,22.004c-10.972,4.88-23.196,3.917-31.658,2.194
			c8.801,13.391,23.904,39.268,23.415,58.517c-0.438,17.24-7.202,35.501-15.034,56.647c-4.16,11.229-8.467,22.843-12.272,35.485
			c-10.245,34.039,5.244,64.193,10.588,66.007c0.824,0.214,2.651,0.312,4.588,0.412c11.322,0.612,37.846,2.045,36.038,39.637
			C419.831,442.151,418.162,443.742,416.132,443.742z M363.062,436.143h49.355c-0.149-26.508-17.377-27.436-28.941-28.06
			c-2.531-0.14-4.528-0.246-6.108-0.659c-4.235-1.104-7.933-6.336-10.285-10.531c-7.573-13.488-13.594-38.606-5.647-65.013
			c3.876-12.866,8.225-24.596,12.423-35.933c7.598-20.508,14.161-38.223,14.567-54.201c0.606-23.911-27.729-62.206-28.014-62.588
			c-1.017-1.364-0.999-3.234,0.033-4.583c1.032-1.346,2.835-1.844,4.418-1.218c0.208,0.081,20.509,7.989,36.344,0.916
			c7.327-3.272,12.671-9.357,15.888-18.09c0.107-0.292,0.254-0.572,0.431-0.831c1.394-2.041,0.585-3.861-3.141-9.521
			c-1.341-2.037-2.857-4.345-4.206-6.941c-3.566-6.881-3.596-9.808-3.642-15.64c-0.022-2.374-0.047-5.331-0.332-9.44
			c-0.796-11.371-16.913-24.214-29.729-27.268c-0.252-0.059-0.499-0.146-0.734-0.257c-2.938-1.38-28.775-13.978-30.913-30.751
			c-1.05-8.205-5.332-14.453-8.521-14.929c-2.213-0.325-4.896,2.513-7.191,7.607c-3.175,7.051-3.235,12.243-3.291,16.825
			c-0.086,7.329-0.169,14.253-13.686,20.895c-17.871,8.786-36.8,36.138-34.416,58.23c3.555,32.92-21.297,50.012-42.771,58.556
			c-25.06,9.967-119.541,74.425-88.228,186.109c0.424,1.522-0.133,3.146-1.402,4.085c-1.267,0.934-2.986,0.992-4.312,0.139
			c-0.613-0.392-60.486-40.392-6.567-131.353c31.106-52.478,20.087-79.445,10.752-90.852C133.03,155.997,113,153.005,99.49,157.725
			c-14.847,5.188-24.527,16.316-23.542,27.061c1.091,11.925,15.316,21.165,38.061,24.739c2.912,0.136,5.315,1.449,6.957,3.821
			c7.876,11.369-4.523,49.066-21.554,97.164c-5.244,14.814-9.773,27.61-11.472,34.666c-4.138,17.166-3.624,42.368,10.23,61.62
			c12.208,16.966,32.797,26.84,61.213,29.348h175.858c0.321-4.335,0.036-12.565-5.497-18.885
			c-6.536-7.462-18.568-10.526-35.776-9.075c-1.559,0.111-3.089-0.733-3.76-2.183c-0.671-1.444-0.371-3.157,0.753-4.285
			c25.645-25.748,36.564-49.146,32.443-69.539c-5.492-27.207-36.379-40.151-36.688-40.28c-1.94-0.795-2.872-3.016-2.075-4.955
			c0.795-1.94,3.024-2.869,4.954-2.075c1.427,0.584,34.971,14.657,41.259,45.807c1.206,5.961,1.32,12.101,0.351,18.407
			C337.36,388.975,358.111,427.4,363.062,436.143z"/>
	</g>
	<g>
		<path fill="#989898" d="M387.255,116.581c0,4.569-3.706,8.274-8.278,8.274c-4.565,0-8.275-3.705-8.275-8.274
			c0-4.572,3.71-8.278,8.275-8.278C383.549,108.303,387.255,112.009,387.255,116.581z"/>
		<path fill="#27140E" d="M378.977,127.388c-5.961,0-10.81-4.848-10.81-10.807c0-5.961,4.849-10.811,10.81-10.811
			c5.966,0,10.812,4.85,10.812,10.811C389.788,122.54,384.941,127.388,378.977,127.388z M378.977,110.835
			c-3.165,0-5.743,2.578-5.743,5.746c0,3.166,2.579,5.741,5.743,5.741c3.167,0,5.746-2.576,5.746-5.741
			C384.723,113.413,382.144,110.835,378.977,110.835z"/>
	</g>
	<g>
		<path fill="#27140E" d="M419.271,163.389c-0.249,0-0.507-0.039-0.761-0.119c-7.084-2.233-11.231-5.752-12.336-10.458
			c-1.847-7.92,6.107-15.662,6.447-15.988c1.006-0.967,2.605-0.933,3.574,0.073c0.97,1.008,0.938,2.609-0.065,3.58
			c-1.732,1.676-6.017,6.952-5.015,11.191c0.667,2.836,3.667,5.114,8.919,6.771c1.333,0.418,2.076,1.841,1.654,3.176
			C421.348,162.697,420.349,163.389,419.271,163.389z"/>
	</g>
	<g>
		<path fill="#EDA1C7" d="M413.032,143.831c0,0-7.024,9.041,3.771,13.585C421.53,152.872,413.032,143.831,413.032,143.831z"/>
	</g>
	<g>
		<path fill="#27140E" d="M361.996,167.542c-1.366,0-2.493-1.09-2.529-2.467c-0.37-14.199,30.479-20.836,33.997-21.548
			c1.395-0.27,2.707,0.611,2.984,1.981c0.277,1.372-0.609,2.707-1.979,2.984c-11.68,2.361-30.136,8.918-29.937,16.451
			c0.035,1.398-1.07,2.561-2.465,2.596C362.043,167.542,362.021,167.542,361.996,167.542z"/>
	</g>
	<g>
		<path fill="#27140E" d="M383.724,196.832c-1.302,0-2.406-0.995-2.518-2.318c-1.801-21.221,16.727-38.742,17.516-39.479
			c1.022-0.954,2.632-0.893,3.577,0.127c0.956,1.021,0.898,2.625-0.122,3.58c-0.175,0.164-17.511,16.602-15.927,35.344
			c0.118,1.398-0.913,2.623-2.308,2.74C383.867,196.832,383.796,196.832,383.724,196.832z"/>
	</g>
</g>
</svg>
