<?xml version="1.0" encoding="utf-8"?>
<!-- Generator: Adobe Illustrator 16.0.0, SVG Export Plug-In . SVG Version: 6.00 Build 0)  -->
<!DOCTYPE svg PUBLIC "-//W3C//DTD SVG 1.1//EN" "http://www.w3.org/Graphics/SVG/1.1/DTD/svg11.dtd">
<svg version="1.1" id="Layer_1" xmlns="http://www.w3.org/2000/svg" xmlns:xlink="http://www.w3.org/1999/xlink" x="0px" y="0px"
	 width="500px" height="500px" viewBox="0 0 500 500" enable-background="new 0 0 500 500" xml:space="preserve">
<g id="Layer_1_copy_3">
	<g>
		<g>
			<path fill="#4E4E4E" d="M464.734,259.466c0,51.027-93.988,92.404-209.933,92.404c-115.967,0-209.957-41.377-209.957-92.404
				c0-51.07,93.99-92.454,209.957-92.454C370.746,167.012,464.734,208.396,464.734,259.466z"/>
			<path fill="#3C2517" d="M254.803,354.552c-117.248,0-212.639-42.655-212.639-95.086c0-25.828,22.406-49.919,63.095-67.833
				c39.986-17.606,93.093-27.303,149.544-27.303c56.441,0,109.545,9.697,149.525,27.303c40.684,17.916,63.09,42.005,63.09,67.833
				C467.418,311.896,372.037,354.552,254.803,354.552z M254.803,169.695c-114.29,0-207.274,40.271-207.274,89.771
				c0,49.474,92.984,89.722,207.274,89.722c114.278,0,207.25-40.248,207.25-89.722C462.053,209.966,369.081,169.695,254.803,169.695
				z"/>
		</g>
		<g>
			<path fill="#818181" d="M237.582,129.525c80.865-3.85,152.81,13.129,200.171,46.922c26.722,19.076,57.952,57.565,38.304,103.474
				c-3.724,8.692-8.706,18.285-15.321,25.854c-62.667,71.644-239.096,87.332-343.832,42.134
				c-35.964-15.521-66.142-36.216-79.489-66.08c-23.65-52.952,18.133-93.714,50.761-113.041
				c24.879-14.737,55.722-26.751,90.972-33.516C196.908,131.857,217.209,130.493,237.582,129.525z M180.104,173.577
				c-35.201,7.045-64.848,18.163-89.057,37.36c-9.358,7.424-23.979,24.343-23.944,40.247c0.047,18.746,14.607,31.814,26.816,41.178
				c63.313,48.582,194.035,57.758,280.628,24.91c26.506-10.066,71.824-32.842,71.824-66.088c0-19.15-15.291-33.726-29.688-44.083
				c-43.941-31.581-108.719-43.535-178.137-40.23C217.182,167.891,198.341,169.926,180.104,173.577z"/>
			<path fill="#3C2517" d="M255.958,376.016c-52.041,0-101.807-9.111-140.12-25.644c-42.29-18.25-68.747-40.312-80.872-67.445
				c-10.93-24.475-9.444-48.565,4.425-71.609c13.626-22.646,35.557-37.812,47.418-44.837c26.498-15.695,58.256-27.397,91.833-33.843
				c18.199-3.5,39.023-4.852,58.813-5.792c7.527-0.358,15.097-0.54,22.508-0.54c72.312,0,136.004,17.032,179.347,47.958
				c31.438,22.437,58.241,62.249,39.21,106.71c-4.816,11.246-9.973,19.938-15.768,26.566
				C425.808,349.773,346.569,376.016,255.958,376.016z M259.963,131.67c-7.322,0-14.812,0.18-22.251,0.535
				c-19.591,0.93-40.187,2.266-58.057,5.703c-32.978,6.329-64.142,17.805-90.111,33.19c-72.386,42.875-56.325,94.761-49.681,109.638
				c11.555,25.854,37.101,47.02,78.099,64.713c37.665,16.252,86.667,25.201,137.996,25.201c89.108,0,166.801-25.535,202.757-66.642
				c5.417-6.196,10.283-14.422,14.875-25.147c17.775-41.527-7.662-79.005-37.396-100.229
				C393.754,148.348,331.166,131.67,259.963,131.67z M257.938,339.371c0,0-0.004,0-0.011,0c-67.099,0-129.021-16.777-165.641-44.885
				c-13.753-10.543-27.819-23.935-27.865-43.293c-0.038-17.803,16.308-35.489,24.958-42.356
				c22.824-18.104,51.486-30.142,90.195-37.89c17.665-3.536,36.361-5.683,58.841-6.754c7.453-0.356,14.91-0.535,22.169-0.535
				c65.578,0,120.1,14.269,157.665,41.266c20.726,14.91,30.804,30.042,30.804,46.26c0,36.707-51.44,60.197-73.557,68.594
				C341.71,332.596,301.053,339.371,257.938,339.371z M260.584,169.022c-7.171,0-14.546,0.179-21.915,0.53
				c-22.2,1.057-40.643,3.172-58.04,6.656c-37.848,7.575-65.782,19.276-87.916,36.83c-9.234,7.33-22.962,23.537-22.927,38.142
				c0.038,17.038,13.046,29.299,25.765,39.053c35.716,27.41,96.42,43.775,162.376,43.775h0.011c41.87,0,82.947-6.834,115.656-19.246
				c21.075-8,70.097-30.211,70.097-63.578c0-14.366-9.35-28.075-28.57-41.9C378.471,182.944,325.035,169.022,260.584,169.022z"/>
		</g>
	</g>
	<g>
		<path fill="#EFDAAC" d="M113.445,165.077c0,0-22.694,3.441-12.221,14.914c-8.728,3.441-3.145,16.919,12.221,18.066
			c0,0,2.791,10.612,19.896,4.877c0,0,13.622,6.31,21.308-6.309c26.898-0.572,21.658-16.348,21.658-16.348
			s15.718-16.921-3.142-20.36c-2.097-8.605-10.132-22.37-23.407-5.737c-6.289-12.905-16.763-10.611-24.794-0.288
			C114.84,149.017,105.413,149.017,113.445,165.077z"/>
		<path fill="#3C2517" d="M124.258,207.313c-7.904,0-11.321-4.228-12.65-6.748c-10.09-1.327-16.201-7.601-17.085-13.42
			c-0.476-3.143,0.562-5.96,2.781-7.895c-1.892-3.114-1.704-5.665-1.094-7.391c1.817-5.131,8.882-7.642,13.386-8.743
			c-2.152-5.226-2.414-9.059-0.809-11.659c0.875-1.413,2.692-3.095,6.402-3.095c2.953,0,6.288,1.08,9.009,2.239
			c4.503-5.159,9.553-7.974,14.381-7.974c3.31,0,7.794,1.3,11.634,6.964c3.818-3.929,7.609-5.916,11.297-5.916
			c7.139,0,11.769,7.185,13.812,13.958c5.021,1.239,8.156,3.649,9.33,7.174c2.072,6.237-3.137,13.442-5.438,16.212
			c0.346,2.17,0.465,6.213-2.223,10.027c-3.54,5.015-10.552,7.774-20.864,8.212c-4.545,6.518-10.61,7.93-15.011,7.93
			c-3.459,0-6.388-0.868-7.87-1.408C129.972,206.798,126.95,207.313,124.258,207.313z M115.189,153.726
			c-0.562,0-1.539,0.07-1.84,0.551c-0.13,0.211-1.171,2.276,2.496,9.6c0.381,0.768,0.373,1.671-0.022,2.432
			c-0.391,0.762-1.125,1.288-1.976,1.42c-4.604,0.706-11.554,3.008-12.581,5.921c-0.508,1.435,0.773,3.255,1.938,4.531
			c0.597,0.653,0.833,1.554,0.632,2.414c-0.197,0.861-0.805,1.567-1.627,1.89c-1.855,0.732-2.657,2.029-2.382,3.855
			c0.596,3.928,5.64,8.431,13.816,9.044c1.143,0.085,2.103,0.882,2.396,1.991c0.131,0.43,1.556,4.574,8.219,4.574
			c2.371,0,5.139-0.526,8.23-1.56c0.651-0.219,1.358-0.176,1.979,0.109c0.021,0.01,2.971,1.327,6.648,1.327
			c4.791,0,8.575-2.219,11.239-6.599c0.477-0.779,1.319-1.267,2.237-1.285c9.161-0.194,15.389-2.265,18.015-5.985
			c2.263-3.211,1.165-6.8,1.154-6.835c-0.311-0.926-0.085-1.952,0.579-2.668c1.754-1.9,6.482-8.173,5.219-11.956
			c-0.791-2.366-4.175-3.451-6.877-3.944c-1.042-0.19-1.875-0.976-2.125-2.002c-1.126-4.628-4.465-11.511-9.048-11.511
			c-2.76,0-6.099,2.355-9.656,6.811c-0.571,0.721-1.471,1.098-2.389,0.995c-0.917-0.103-1.715-0.666-2.117-1.493
			c-1.638-3.358-4.488-7.361-8.769-7.361c-3.576,0-7.769,2.75-11.498,7.548c-0.776,0.997-2.146,1.314-3.281,0.767
			C120.337,154.642,117.281,153.726,115.189,153.726z"/>
	</g>
	<g>
		<path fill="#EFDAAC" d="M385.007,254.895c0,0-22.695,3.442-12.222,14.916c-8.728,3.438-3.145,16.918,12.222,18.063
			c0,0,2.791,10.608,19.896,4.877c0,0,13.622,6.312,21.308-6.312c26.897-0.569,21.658-16.344,21.658-16.344
			s15.718-16.922-3.143-20.364c-2.097-8.603-10.132-22.37-23.407-5.733c-6.288-12.906-16.763-10.612-24.794-0.286
			C386.4,238.836,376.975,238.836,385.007,254.895z"/>
		<path fill="#3C2517" d="M395.822,297.136c-7.904,0-11.32-4.231-12.654-6.752c-10.086-1.327-16.201-7.604-17.084-13.422
			c-0.476-3.142,0.562-5.959,2.78-7.896c-1.892-3.11-1.704-5.666-1.093-7.389c1.816-5.135,8.882-7.643,13.389-8.748
			c-2.157-5.219-2.417-9.052-0.812-11.656c0.875-1.412,2.692-3.095,6.401-3.095c2.953,0,6.289,1.08,9.012,2.24
			c4.501-5.159,9.551-7.975,14.381-7.975c3.309,0,7.792,1.302,11.633,6.966c3.816-3.928,7.607-5.915,11.296-5.915
			c7.139,0,11.766,7.183,13.812,13.956c5.021,1.243,8.155,3.648,9.327,7.175c2.075,6.237-3.135,13.44-5.435,16.215
			c0.342,2.168,0.465,6.214-2.224,10.021c-3.541,5.021-10.552,7.775-20.859,8.214c-4.55,6.518-10.615,7.934-15.022,7.934
			c-3.455,0-6.38-0.873-7.862-1.409C401.532,296.619,398.515,297.136,395.822,297.136z M386.75,243.544
			c-0.558,0-1.543,0.071-1.835,0.551c-0.131,0.212-1.172,2.277,2.491,9.598c0.381,0.77,0.374,1.674-0.019,2.436
			c-0.395,0.758-1.13,1.287-1.979,1.418c-4.604,0.707-11.556,3.01-12.581,5.922c-0.505,1.434,0.772,3.258,1.938,4.531
			c0.594,0.652,0.833,1.557,0.636,2.412c-0.2,0.859-0.812,1.57-1.63,1.895c-1.855,0.73-2.658,2.023-2.383,3.854
			c0.597,3.928,5.644,8.434,13.815,9.043c1.144,0.082,2.104,0.883,2.396,1.991c0.133,0.433,1.558,4.574,8.224,4.574
			c2.368,0,5.139-0.522,8.229-1.559c0.641-0.215,1.353-0.18,1.978,0.109c0.021,0.008,2.972,1.326,6.642,1.326
			c4.796,0,8.582-2.22,11.246-6.603c0.479-0.778,1.32-1.265,2.238-1.285c9.11-0.192,15.326-2.243,17.973-5.926
			c2.308-3.205,1.234-6.765,1.189-6.916c-0.286-0.912-0.068-1.94,0.585-2.644c1.754-1.897,6.482-8.174,5.216-11.961
			c-0.787-2.367-4.174-3.448-6.874-3.938c-1.041-0.19-1.874-0.976-2.124-2.001c-1.127-4.63-4.465-11.512-9.049-11.512
			c-2.761,0-6.099,2.354-9.655,6.812c-0.571,0.716-1.481,1.09-2.389,0.991c-0.917-0.104-1.717-0.661-2.121-1.488
			c-1.635-3.36-4.481-7.365-8.764-7.365c-3.577,0-7.767,2.752-11.5,7.548c-0.776,0.999-2.142,1.316-3.278,0.769
			C391.901,244.462,388.842,243.544,386.75,243.544z"/>
	</g>
	<g>
		<path fill="#F2E6C7" d="M172.978,218.626c0,0-6.287,9.467,8.036,9.75c14.669,9.761,23.048-1.719,23.048-1.719
			s25.136-4.015,16.409-18.354c12.916-8.318,16.755-19.215-2.097-23.517c4.538-14.052-3.141-14.34-13.963-11.758
			c0,0-17.194-14.012-25.363,0.737c-18.78-4.362-14.105,13.029-14.105,13.029s-13.624,4.224-6.637,12.866
			c-10.136,2.333-3.572,11.783,2.441,13.516C160.747,213.178,161.1,222.928,172.978,218.626z"/>
		<path fill="#3C2517" d="M192.408,234.99c-3.97,0-8.077-1.331-12.228-3.952c-5.414-0.243-8.932-1.85-10.471-4.786
			c-0.685-1.312-0.864-2.665-0.772-3.914c-0.459,0.042-0.903,0.067-1.337,0.067l0,0c-5.686,0-8.459-3.868-9.271-7.28
			c-4.139-1.913-8.088-6.338-7.967-10.785c0.034-1.344,0.55-4.192,3.979-6.066c-0.963-2.301-0.794-4.246-0.374-5.625
			c1.2-3.956,5.294-6.37,7.933-7.552c-0.353-2.748-0.391-7.248,2.216-10.648c2.696-3.515,7.26-4.778,13.637-3.683
			c2.919-4.219,6.994-6.435,11.892-6.435c6.567,0,12.906,4.028,15.38,5.803c3.201-0.711,5.699-1.044,7.789-1.044
			c3.711,0,6.4,1.111,7.999,3.307c1.751,2.404,2.047,5.775,0.896,10.486c7.271,2.141,11.363,5.567,12.178,10.208
			c0.915,5.202-2.604,10.862-9.948,16.099c1.678,3.963,1.049,7.072,0.11,9.098c-3.391,7.344-14.878,10.124-18.565,10.84
			C203.808,230.967,199.34,234.99,192.408,234.99z M172.978,215.944c0.806,0,1.589,0.367,2.107,1.027
			c0.72,0.911,0.766,2.177,0.127,3.142c-0.477,0.733-1.298,2.622-0.744,3.659c0.226,0.428,1.368,1.822,6.599,1.923
			c0.513,0.011,1.006,0.167,1.433,0.448c3.476,2.312,6.808,3.483,9.909,3.483c6.003,0,9.355-4.376,9.5-4.563
			c0.417-0.553,1.045-0.941,1.726-1.051c3.568-0.575,13.312-3.133,15.549-7.979c0.829-1.792,0.497-3.864-1.006-6.334
			c-0.752-1.242-0.382-2.866,0.84-3.649c6.482-4.175,10.16-8.784,9.591-12.03c-0.493-2.784-4.337-5.135-10.829-6.617
			c-0.734-0.169-1.362-0.636-1.737-1.292c-0.37-0.653-0.451-1.433-0.222-2.149c1.881-5.817,1.083-7.816,0.656-8.406
			c-1.069-1.475-4.725-1.521-11.44,0.083c-0.809,0.188-1.666-0.003-2.314-0.527c-0.068-0.055-6.759-5.415-13.076-5.415
			c-3.553,0-6.248,1.755-8.25,5.369c-0.578,1.048-1.789,1.583-2.95,1.314c-5.036-1.168-8.486-0.73-10.067,1.332
			c-1.874,2.442-1.222,6.988-0.844,8.385c0.374,1.394-0.42,2.834-1.796,3.261c-1.479,0.462-5.883,2.361-6.638,4.856
			c-0.117,0.392-0.474,1.577,1.291,3.762c0.582,0.72,0.752,1.687,0.448,2.562c-0.3,0.875-1.034,1.531-1.935,1.739
			c-1.432,0.332-3.147,0.981-3.183,2.209c-0.057,2.106,2.96,5.308,5.771,6.115c1.115,0.321,1.898,1.323,1.937,2.481
			c0.054,0.907,0.509,3.959,4.172,3.959c1.245,0,2.748-0.318,4.464-0.935C172.36,215.998,172.671,215.944,172.978,215.944z"/>
	</g>
	<g>
		<path fill="#F2E6C7" d="M73.282,250.302c0,0,16.191,10.192,14.794,23.095c-1.395,12.908-5.233,28.395-5.233,28.395
			s0.694,5.736,10.47,5.447c9.774-0.281,3.49-4.873,15.361-1.428c11.868,3.438,15.708,0.278,11.868-3.158
			c-3.84-3.447-11.519-8.896-10.47-16.06c1.047-7.17-1.906-21.397,5.936-25.897c7.841-4.496,20.305-15.982,21.497-19.422
			c1.193-3.449-21.851-4.596-21.851-4.596S105.1,254.23,100.621,258.49c-2.325,2.205-1.75,5-9.083-7.602
			c-7.33-12.605-18.256-17.081-18.256-17.081V250.302z"/>
		<path fill="#3C2517" d="M117.309,309.973c-2.578,0-5.736-0.533-9.379-1.593c-2.679-0.771-4.552-1.166-5.579-1.166
			c-0.477,0-0.477,0-1.013,0.399c-1.528,1.138-3.282,2.169-7.948,2.306l-0.779,0.013c-11.349,0-12.394-7.496-12.432-7.816
			c-0.04-0.324-0.019-0.654,0.06-0.973c0.039-0.152,3.814-15.464,5.17-28.033c1.199-11.066-13.411-20.443-13.559-20.537
			c-0.78-0.49-1.249-1.348-1.249-2.271v-16.494c0-0.893,0.445-1.729,1.186-2.227c0.745-0.497,1.684-0.596,2.513-0.258
			c0.48,0.201,11.861,4.973,19.562,18.217c2.074,3.571,3.606,6.032,4.565,7.351c0.109-0.115,0.226-0.232,0.347-0.351
			c3.458-3.281,11.701-16.451,14.585-21.247c0.512-0.844,1.437-1.362,2.435-1.291c14.017,0.694,22.034,2.393,23.827,5.05
			c0.625,0.928,0.78,2.058,0.42,3.102c-1.577,4.544-15.079,16.499-22.702,20.868c-4.368,2.508-4.343,9.965-4.322,16.545
			c0.011,2.717,0.021,5.281-0.289,7.416c-0.706,4.821,4.33,9.133,8.003,12.272c0.579,0.498,1.122,0.963,1.606,1.396
			c2.9,2.6,2.399,5.004,2.05,5.916C123.792,308.123,122.081,309.973,117.309,309.973z M102.351,301.85
			c1.599,0,3.775,0.428,7.072,1.381c5.409,1.571,7.946,1.479,9.203,1.297c-0.423-0.373-0.89-0.771-1.384-1.191
			c-4.361-3.734-10.957-9.377-9.828-17.129c0.255-1.738,0.247-4.111,0.237-6.621c-0.025-7.645-0.058-17.154,7.019-21.215
			c7.029-4.035,16.512-12.86,19.451-16.644c-3.07-0.966-10.361-1.873-17.002-2.283c-2.721,4.454-10.641,17.179-14.651,20.986
			c-0.248,0.238-0.445,0.482-0.629,0.699c-0.649,0.777-1.631,1.953-3.36,1.953l0,0c-2.604,0-4.22-2.182-9.256-10.846
			c-4.192-7.202-9.676-11.592-13.258-13.897v10.541c4.023,2.856,16.105,12.519,14.775,24.806
			c-1.249,11.561-4.369,24.901-5.132,28.067c0.35,0.772,1.766,2.813,7.002,2.813l0.624-0.012c3.36-0.1,4.14-0.678,4.899-1.242
			C98.963,302.697,100.099,301.85,102.351,301.85z"/>
	</g>
	<g>
		<path fill="#F2E6C7" d="M68.525,212.01c0,0-22.694,3.44-12.218,14.913c-8.729,3.446-3.141,16.929,12.218,18.076
			c0,0,2.792,10.626,19.9,4.881c0,0,13.614,6.318,21.297-6.313c26.883-0.574,21.643-16.354,21.643-16.354s15.71-16.921-3.141-20.361
			c-2.096-8.604-10.121-22.37-23.39-5.738c-6.282-12.902-16.759-10.608-24.791-0.286C69.923,195.954,60.494,195.954,68.525,212.01z"
			/>
		<path fill="#3C2517" d="M79.338,254.266c-7.904,0-11.32-4.239-12.651-6.762c-10.085-1.328-16.197-7.602-17.08-13.42
			c-0.473-3.148,0.562-5.965,2.785-7.898c-1.896-3.117-1.708-5.665-1.101-7.394c1.817-5.131,8.885-7.64,13.388-8.741
			c-2.156-5.227-2.417-9.059-0.808-11.66c0.871-1.412,2.688-3.095,6.401-3.095c2.95,0,6.284,1.08,9.009,2.241
			c4.5-5.163,9.55-7.975,14.381-7.975c3.307,0,7.792,1.302,11.628,6.962c3.812-3.928,7.601-5.915,11.289-5.915
			c7.132,0,11.758,7.185,13.801,13.96c5.019,1.239,8.152,3.646,9.324,7.171c2.074,6.239-3.13,13.441-5.432,16.215
			c0.346,2.167,0.467,6.219-2.226,10.036c-3.537,5.011-10.546,7.771-20.842,8.208c-4.545,6.523-10.608,7.941-15.01,7.941
			c-3.455,0-6.38-0.875-7.862-1.412C85.055,253.746,82.034,254.266,79.338,254.266z M70.272,200.661
			c-0.558,0-1.542,0.071-1.835,0.551c-0.131,0.212-1.176,2.276,2.487,9.599c0.385,0.77,0.378,1.672-0.018,2.435
			c-0.396,0.762-1.129,1.288-1.976,1.418c-4.609,0.706-11.555,3.011-12.584,5.921c-0.505,1.436,0.776,3.257,1.941,4.532
			c0.596,0.652,0.832,1.556,0.631,2.414c-0.197,0.861-0.808,1.566-1.627,1.891c-1.859,0.73-2.661,2.029-2.382,3.857
			c0.596,3.929,5.643,8.435,13.812,9.045c1.145,0.085,2.107,0.886,2.396,1.994c0.131,0.434,1.557,4.58,8.219,4.58
			c2.372,0,5.146-0.522,8.233-1.561c0.649-0.219,1.358-0.179,1.979,0.11c0.021,0.006,2.972,1.331,6.645,1.331
			c4.79,0,8.569-2.228,11.236-6.607c0.477-0.779,1.317-1.267,2.23-1.288c9.15-0.193,15.375-2.266,18.001-5.984
			c2.266-3.211,1.168-6.807,1.157-6.842c-0.311-0.929-0.084-1.949,0.576-2.668c1.754-1.903,6.479-8.17,5.219-11.959
			c-0.794-2.365-4.175-3.444-6.874-3.938c-1.042-0.19-1.874-0.978-2.121-2.005c-1.126-4.626-4.464-11.511-9.041-11.511
			c-2.756,0-6.095,2.354-9.647,6.811c-0.572,0.72-1.482,1.094-2.393,0.995c-0.915-0.102-1.712-0.664-2.114-1.493
			c-1.635-3.359-4.485-7.361-8.763-7.361c-3.575,0-7.768,2.752-11.501,7.548c-0.776,0.995-2.142,1.312-3.278,0.769
			C75.424,201.578,72.365,200.661,70.272,200.661z"/>
	</g>
	<g>
		<path fill="#CEC0A1" d="M105.812,243.864c0,0-6.281,9.477,8.032,9.762c14.663,9.75,23.045-1.724,23.045-1.724
			s25.149-4.022,16.416-18.366c12.93-8.323,16.77-19.216-2.096-23.521c4.542-14.052-3.142-14.338-13.972-11.758
			c0,0-17.193-14.01-25.352,0.737c-18.777-4.358-14.105,13.032-14.105,13.032s-13.614,4.221-6.631,12.862
			c-10.124,2.333-3.567,11.787,2.445,13.523C93.595,238.413,93.941,248.171,105.812,243.864z"/>
		<path fill="#3C2517" d="M125.231,260.236c-3.966,0-8.073-1.33-12.22-3.953c-5.406-0.242-8.922-1.85-10.463-4.781
			c-0.686-1.316-0.866-2.67-0.773-3.923c-0.459,0.046-0.904,0.071-1.33,0.071h-0.005c-5.681-0.005-8.455-3.876-9.27-7.292
			c-4.133-1.913-8.082-6.338-7.961-10.788c0.035-1.34,0.55-4.192,3.979-6.063c-0.963-2.303-0.793-4.245-0.373-5.628
			c1.203-3.953,5.285-6.366,7.926-7.548c-0.35-2.746-0.393-7.252,2.216-10.654c2.692-3.511,7.241-4.782,13.629-3.677
			c2.915-4.221,6.987-6.437,11.885-6.437c6.567,0,12.906,4.026,15.38,5.802c3.201-0.709,5.698-1.042,7.795-1.042
			c3.713,0,6.405,1.111,8.004,3.307c1.751,2.403,2.043,5.773,0.89,10.484c7.284,2.139,11.377,5.569,12.191,10.21
			c0.915,5.201-2.61,10.865-9.954,16.101c1.672,3.96,1.045,7.072,0.109,9.099c-3.392,7.347-14.893,10.13-18.576,10.851
			C136.63,256.212,132.163,260.236,125.231,260.236z M105.812,241.183c0.809,0,1.592,0.368,2.111,1.028
			c0.712,0.907,0.766,2.174,0.127,3.137c-0.477,0.737-1.299,2.626-0.745,3.674c0.229,0.423,1.373,1.817,6.592,1.923
			c0.513,0.011,1.01,0.166,1.433,0.447c3.473,2.312,6.801,3.48,9.902,3.48c6.003,0,9.363-4.379,9.5-4.563
			c0.416-0.558,1.045-0.941,1.733-1.056c3.564-0.575,13.317-3.13,15.551-7.981c0.83-1.798,0.502-3.872-1.002-6.342
			c-0.758-1.242-0.385-2.863,0.84-3.649c6.486-4.178,10.164-8.784,9.596-12.03c-0.491-2.785-4.337-5.135-10.838-6.617
			c-0.733-0.169-1.361-0.639-1.731-1.292c-0.375-0.653-0.453-1.433-0.223-2.153c1.881-5.812,1.087-7.813,0.656-8.402
			c-1.072-1.472-4.729-1.524-11.459,0.081c-0.812,0.191-1.665-0.003-2.312-0.529c-0.066-0.053-6.754-5.414-13.071-5.414
			c-3.546,0-6.245,1.757-8.24,5.371c-0.581,1.045-1.789,1.582-2.956,1.313c-5.022-1.165-8.463-0.73-10.051,1.323
			c-1.87,2.424-1.25,6.889-0.851,8.402c0.367,1.391-0.427,2.827-1.796,3.25c-1.476,0.469-5.876,2.361-6.631,4.859
			c-0.12,0.389-0.477,1.574,1.292,3.759c0.581,0.72,0.751,1.686,0.448,2.562c-0.304,0.875-1.034,1.531-1.935,1.739
			c-1.429,0.332-3.147,0.981-3.18,2.21c-0.056,2.106,2.961,5.313,5.767,6.119c1.112,0.324,1.896,1.327,1.937,2.483
			c0.05,0.912,0.505,3.964,4.164,3.967h0.005c1.242,0,2.742-0.317,4.456-0.939C105.198,241.237,105.509,241.183,105.812,241.183z"/>
	</g>
	<g>
		<path fill="#DED0B0" d="M210.046,192.777c0,0,16.191,10.195,14.794,23.097c-1.394,12.909-5.233,28.39-5.233,28.39
			s0.694,5.738,10.47,5.449c9.775-0.283,3.49-4.87,15.361-1.429c11.871,3.44,15.71,0.282,11.871-3.159
			c-3.838-3.44-11.521-8.89-10.473-16.057c1.047-7.17-1.906-21.399,5.936-25.898c7.842-4.496,20.302-15.982,21.498-19.423
			c1.192-3.446-21.848-4.593-21.848-4.593s-10.559,17.551-15.037,21.811c-2.322,2.206-1.751,5.004-9.08-7.601
			c-7.333-12.607-18.259-17.081-18.259-17.081V192.777z"/>
		<path fill="#3C2517" d="M254.076,252.451c-2.583,0-5.741-0.531-9.384-1.592c-2.675-0.775-4.548-1.167-5.579-1.167
			c-0.477,0-0.477,0-1.012,0.401c-1.525,1.137-3.282,2.167-7.948,2.301l-0.78,0.012c-11.348,0-12.39-7.499-12.431-7.817
			c-0.04-0.325-0.019-0.649,0.059-0.97c0.039-0.152,3.815-15.465,5.174-28.035c1.196-11.066-13.413-20.447-13.562-20.538
			c-0.775-0.491-1.249-1.348-1.249-2.27v-16.494c0-0.893,0.444-1.729,1.186-2.227c0.744-0.5,1.687-0.595,2.513-0.255
			c0.477,0.197,11.857,4.972,19.561,18.214c2.075,3.571,3.606,6.031,4.569,7.351c0.11-0.117,0.223-0.233,0.347-0.346
			c3.455-3.285,11.698-16.454,14.582-21.249c0.512-0.847,1.465-1.357,2.435-1.295c14.019,0.697,22.034,2.396,23.827,5.052
			c0.628,0.93,0.78,2.058,0.421,3.099c-1.578,4.545-15.08,16.501-22.697,20.874c-4.374,2.505-4.35,9.962-4.324,16.543
			c0.011,2.717,0.018,5.283-0.293,7.415c-0.705,4.826,4.33,9.134,8.004,12.277c0.582,0.497,1.122,0.959,1.609,1.394
			c2.894,2.597,2.398,5,2.047,5.914C260.557,250.596,258.846,252.451,254.076,252.451z M239.113,244.327
			c1.6,0,3.779,0.428,7.072,1.381c5.411,1.569,7.943,1.475,9.204,1.298c-0.425-0.374-0.89-0.772-1.384-1.196
			c-4.361-3.733-10.957-9.377-9.825-17.129c0.251-1.736,0.248-4.108,0.237-6.617c-0.028-7.644-0.061-17.157,7.019-21.219
			c7.029-4.034,16.51-12.859,19.444-16.639c-3.065-0.969-10.356-1.875-17.003-2.285c-2.717,4.452-10.636,17.174-14.644,20.988
			c-0.251,0.233-0.448,0.48-0.633,0.695c-0.649,0.78-1.63,1.952-3.355,1.952c-2.604,0-4.221-2.177-9.26-10.844
			c-4.213-7.249-9.69-11.624-13.259-13.911v10.555c4.027,2.858,16.11,12.521,14.779,24.809c-1.252,11.56-4.369,24.903-5.135,28.069
			c0.354,0.772,1.765,2.81,7.001,2.81l0.626-0.008c3.358-0.099,4.143-0.682,4.901-1.245
			C235.727,245.171,236.862,244.327,239.113,244.327z"/>
	</g>
	<g>
		<path fill="#F2E6C7" d="M205.293,154.487c0,0-22.695,3.442-12.222,14.913c-8.729,3.439-3.144,16.926,12.222,18.073
			c0,0,2.791,10.622,19.896,4.88c0,0,13.618,6.313,21.298-6.313c26.88-0.575,21.646-16.355,21.646-16.355s15.711-16.919-3.145-20.36
			c-2.096-8.604-10.121-22.37-23.39-5.736c-6.281-12.905-16.758-10.61-24.787-0.288
			C206.687,138.426,197.261,138.426,205.293,154.487z"/>
		<path fill="#3C2517" d="M216.102,196.74c-7.904,0-11.317-4.238-12.651-6.762c-10.085-1.327-16.193-7.601-17.08-13.42
			c-0.477-3.145,0.562-5.964,2.785-7.898c-1.898-3.115-1.708-5.666-1.098-7.391c1.817-5.131,8.882-7.642,13.385-8.743
			c-2.156-5.227-2.417-9.057-0.808-11.66c0.875-1.412,2.692-3.095,6.401-3.095c2.954,0,6.284,1.08,9.009,2.239
			c4.5-5.159,9.549-7.973,14.381-7.973c3.31,0,7.795,1.302,11.628,6.964c3.814-3.93,7.601-5.916,11.289-5.916
			c7.132,0,11.761,7.185,13.806,13.96c5.018,1.239,8.151,3.647,9.322,7.173c2.076,6.238-3.133,13.441-5.431,16.214
			c0.342,2.17,0.466,6.218-2.229,10.035c-3.537,5.013-10.545,7.772-20.843,8.21c-4.546,6.521-10.608,7.936-15.009,7.936
			c-3.454,0-6.38-0.868-7.865-1.408C221.822,196.221,218.801,196.74,216.102,196.74z M207.036,143.136
			c-0.558,0-1.542,0.071-1.835,0.55c-0.135,0.212-1.172,2.278,2.487,9.601c0.385,0.768,0.378,1.671-0.018,2.431
			c-0.396,0.763-1.13,1.29-1.977,1.421c-4.604,0.706-11.554,3.01-12.583,5.921c-0.502,1.437,0.776,3.255,1.94,4.531
			c0.596,0.653,0.833,1.555,0.631,2.414c-0.197,0.861-0.807,1.566-1.63,1.89c-1.853,0.732-2.654,2.03-2.375,3.859
			c0.593,3.929,5.64,8.436,13.812,9.044c1.144,0.084,2.103,0.886,2.393,1.99c0.131,0.434,1.56,4.587,8.219,4.587
			c2.375,0,5.146-0.526,8.232-1.566c0.653-0.219,1.358-0.177,1.984,0.113c0.021,0.007,2.968,1.327,6.641,1.327
			c4.789,0,8.572-2.22,11.236-6.601c0.477-0.783,1.317-1.269,2.234-1.288c9.099-0.194,15.308-2.245,17.954-5.927
			c2.314-3.215,1.239-6.773,1.193-6.925c-0.286-0.916-0.063-1.941,0.586-2.646c1.757-1.898,6.479-8.171,5.216-11.956
			c-0.791-2.368-4.172-3.449-6.871-3.941c-1.041-0.19-1.873-0.976-2.124-2.005c-1.13-4.626-4.464-11.509-9.041-11.509
			c-2.756,0-6.091,2.354-9.648,6.811c-0.571,0.718-1.479,1.094-2.389,0.993c-0.918-0.103-1.716-0.665-2.118-1.491
			c-1.638-3.359-4.481-7.363-8.762-7.363c-3.575,0-7.768,2.751-11.498,7.546c-0.775,1-2.145,1.318-3.281,0.771
			C212.188,144.053,209.132,143.136,207.036,143.136z"/>
	</g>
	<g>
		<path fill="#CEC0A1" d="M257.309,189.484c0,0-6.285,9.472,8.032,9.762c14.659,9.743,23.04-1.726,23.04-1.726
			s25.151-4.02,16.417-18.366c12.93-8.321,16.771-19.217-2.096-23.52c4.542-14.052-3.142-14.338-13.972-11.757
			c0,0-17.192-14.012-25.354,0.735c-18.772-4.36-14.101,13.031-14.101,13.031s-13.614,4.222-6.631,12.865
			c-10.125,2.331-3.568,11.788,2.445,13.522C245.092,184.031,245.438,193.79,257.309,189.484z"/>
		<path fill="#3C2517" d="M276.725,205.852c-3.967,0-8.072-1.327-12.217-3.952c-5.406-0.24-8.925-1.85-10.463-4.782
			c-0.688-1.316-0.863-2.671-0.773-3.924c-0.459,0.046-0.901,0.071-1.332,0.071h-0.006c-5.678-0.003-8.454-3.875-9.267-7.291
			c-4.132-1.911-8.084-6.336-7.961-10.786c0.035-1.343,0.547-4.192,3.977-6.063c-0.963-2.303-0.794-4.249-0.373-5.63
			c1.203-3.952,5.29-6.365,7.926-7.547c-0.35-2.749-0.388-7.252,2.22-10.653c2.692-3.512,7.233-4.78,13.625-3.679
			c2.915-4.22,6.987-6.435,11.885-6.435c6.567,0,12.906,4.028,15.384,5.802c3.2-0.711,5.698-1.043,7.791-1.043
			c3.713,0,6.405,1.114,8.004,3.309c1.746,2.403,2.048,5.773,0.894,10.482c7.276,2.14,11.374,5.568,12.188,10.211
			c0.915,5.2-2.61,10.864-9.954,16.103c1.677,3.959,1.045,7.074,0.109,9.099c-3.395,7.348-14.893,10.132-18.576,10.848
			C288.123,201.825,283.656,205.852,276.725,205.852z M257.309,186.803c0.81,0,1.588,0.363,2.11,1.023
			c0.714,0.91,0.767,2.177,0.127,3.141c-0.476,0.738-1.299,2.625-0.744,3.67c0.226,0.424,1.369,1.821,6.593,1.927
			c0.508,0.007,1.006,0.166,1.429,0.445c3.473,2.308,6.805,3.479,9.901,3.479c6.096,0,9.455-4.502,9.489-4.549
			c0.417-0.572,1.042-0.953,1.744-1.066c3.567-0.578,13.317-3.133,15.555-7.986c0.826-1.796,0.498-3.869-1.006-6.339
			c-0.758-1.243-0.385-2.862,0.841-3.649c6.485-4.176,10.162-8.785,9.596-12.03c-0.487-2.786-4.337-5.136-10.838-6.62
			c-0.733-0.167-1.361-0.635-1.732-1.29c-0.374-0.653-0.455-1.433-0.222-2.149c1.88-5.817,1.087-7.816,0.655-8.405
			c-1.068-1.472-4.722-1.521-11.455,0.081c-0.805,0.192-1.664-0.003-2.312-0.528c-0.067-0.053-6.754-5.413-13.075-5.413
			c-3.542,0-6.242,1.755-8.24,5.369c-0.578,1.048-1.776,1.583-2.953,1.312c-5.03-1.167-8.479-0.729-10.061,1.333
			c-1.87,2.441-1.218,6.987-0.844,8.388c0.374,1.393-0.416,2.833-1.792,3.259c-1.479,0.464-5.88,2.359-6.631,4.856
			c-0.124,0.39-0.477,1.576,1.288,3.762c0.582,0.72,0.751,1.687,0.451,2.56c-0.307,0.875-1.034,1.532-1.934,1.74
			c-1.433,0.33-3.148,0.981-3.181,2.21c-0.06,2.107,2.958,5.31,5.764,6.12c1.115,0.323,1.896,1.323,1.937,2.482
			c0.053,0.909,0.509,3.961,4.165,3.964h0.004c1.242,0,2.746-0.317,4.457-0.938C256.695,186.852,257.002,186.803,257.309,186.803z"
			/>
	</g>
	<g>
		<path fill="#E0C186" d="M136.437,254.546c0,0,10.933,15.701,4.608,27.039c-6.32,11.334-15.897,24.099-15.897,24.099
			s-1.599,5.551,7.517,9.104c9.119,3.549,5.12-3.127,14.716,4.68c9.591,7.803,14.358,6.402,12.163,1.732
			c-2.194-4.668-7.146-12.688-3.381-18.881c3.762-6.193,6.596-20.445,15.577-21.521c8.979-1.084,24.939-6.78,27.381-9.479
			c2.442-2.705-18.336-12.758-18.336-12.758s-16.572,12.022-22.355,14.192c-3.007,1.125-3.567,3.924-5.402-10.541
			c-1.84-14.461-10.153-22.843-10.153-22.843L136.437,254.546z"/>
		<path fill="#3C2517" d="M157.967,327.691c-3.908,0-8.833-3.342-12.277-6.146c-3.772-3.066-4.882-3.4-5.181-3.4
			c-0.112,0-0.335,0.056-0.6,0.121c-0.579,0.144-1.377,0.336-2.478,0.336l0,0c-1.613,0-3.438-0.416-5.742-1.315
			c-11.268-4.39-9.213-12.022-9.119-12.347c0.089-0.313,0.236-0.604,0.432-0.866c0.091-0.128,9.542-12.755,15.703-23.796
			c5.42-9.723-4.372-24.053-4.471-24.196c-0.522-0.761-0.625-1.731-0.266-2.576l6.434-15.178c0.35-0.826,1.084-1.416,1.962-1.589
			c0.876-0.165,1.779,0.113,2.411,0.745c0.366,0.37,8.98,9.203,10.911,24.393c0.519,4.103,0.967,6.961,1.342,8.554
			c0.147-0.062,0.3-0.128,0.457-0.188c4.461-1.673,17.194-10.564,21.722-13.851c0.798-0.584,1.855-0.674,2.745-0.244
			c12.645,6.119,19.367,10.812,19.98,13.953c0.216,1.103-0.084,2.199-0.821,3.015c-3.222,3.563-20.323,9.297-29.05,10.352
			c-5.012,0.595-7.898,7.47-10.442,13.535c-1.057,2.506-2.043,4.871-3.166,6.713c-2.534,4.173,0.427,10.106,2.586,14.441
			c0.34,0.68,0.658,1.313,0.93,1.899c1.284,2.732,0.761,4.549,0.102,5.594C161.583,326.412,160.408,327.691,157.967,327.691z
			 M140.509,312.781c2.174,0,4.337,1.162,8.564,4.604c3.639,2.965,6.374,4.373,7.969,4.799c-0.244-0.508-0.516-1.055-0.805-1.637
			c-2.566-5.146-6.444-12.92-2.368-19.623c0.914-1.5,1.828-3.684,2.802-5.998c2.961-7.051,6.645-15.82,14.747-16.789
			c8.047-0.973,20.218-5.389,24.403-7.715c-2.456-2.094-8.818-5.773-14.776-8.742c-4.241,3.031-16.498,11.646-21.674,13.588
			c-0.322,0.115-0.601,0.265-0.854,0.396c-0.694,0.354-1.485,0.758-2.494,0.758l0,0c-3.896,0-4.489-4.637-5.66-13.868
			c-1.057-8.314-4.388-14.479-6.783-17.977l-4.118,9.712c2.594,4.196,9.948,17.81,3.927,28.604
			c-5.663,10.154-13.745,21.228-15.679,23.842c0.021,0.878,0.564,3.466,5.93,5.556c1.615,0.627,2.893,0.947,3.793,0.947l0,0
			c0.455,0,0.77-0.076,1.211-0.183C139.137,312.932,139.75,312.781,140.509,312.781z"/>
	</g>
	<g>
		<path fill="#EFDAAC" d="M147.009,217.43c0,0-22.239-5.682-17.073,8.974c-9.383-0.24-9.503,14.356,4.196,21.409
			c0,0-1.57,10.862,16.413,12.255c0,0,10.086,11.127,22.084,2.511c24.989,9.971,26.329-6.604,26.329-6.604
			s21.067-9.453,5.054-19.982c1.429-8.737-0.597-24.551-19.311-14.416c-0.752-14.338-11.299-16.314-22.723-9.945
			C154.561,203.194,145.884,199.514,147.009,217.43z"/>
		<path fill="#3C2517" d="M163.206,268.533c-6.824,0-11.962-4.107-13.861-5.877c-7.11-0.709-12.23-2.963-15.234-6.711
			c-1.937-2.424-2.517-4.889-2.656-6.546c-8.679-5.113-11.89-13.22-10.517-18.89c0.762-3.135,2.837-5.382,5.671-6.314
			c-0.381-2.569,0.05-4.746,1.295-6.507c1.888-2.671,5.427-4.023,10.513-4.023c2.106,0,4.171,0.229,5.812,0.487
			c0.041-4.888,0.977-8.244,2.829-10.22c1.219-1.294,2.81-1.982,4.599-1.982c3.822,0,7.842,3.172,10.904,6.355
			c3.786-1.839,7.475-2.806,10.761-2.806c7.138,0,12.025,4.425,13.575,12.037c7.28-3.081,13.036-2.354,16.567,1.796
			c3.328,3.92,3.971,10.237,3.424,15.396c4.14,3.106,6.084,6.547,5.787,10.251c-0.525,6.53-8.073,11.125-11.296,12.796
			c-1.016,4.384-4.986,10.675-14.934,10.675c-3.868,0-8.399-0.964-13.481-2.869C169.841,267.544,166.562,268.533,163.206,268.533z
			 M129.858,229.086c-2.082,0-3.275,0.903-3.706,2.683c-0.931,3.847,1.98,9.937,9.208,13.66c1.02,0.522,1.591,1.638,1.429,2.77
			c-0.007,0.05-0.232,2.287,1.588,4.492c2.167,2.619,6.447,4.246,12.376,4.703c0.685,0.056,1.32,0.365,1.782,0.873
			c0.035,0.043,4.577,4.9,10.671,4.9c2.654,0,5.301-0.928,7.855-2.766c0.749-0.535,1.716-0.652,2.562-0.312
			c4.986,1.988,9.302,2.998,12.821,2.998c8.861,0,9.767-6.6,9.841-7.352c0.093-0.953,0.696-1.814,1.571-2.205
			c2.356-1.064,9.157-5.003,9.472-8.984c0.194-2.488-2.499-4.811-4.789-6.316c-0.886-0.579-1.345-1.627-1.171-2.672
			c0.705-4.344,0.366-9.974-1.994-12.753c-2.41-2.834-7.009-2.33-13.4,1.129c-0.804,0.438-1.785,0.427-2.586-0.021
			c-0.801-0.448-1.316-1.277-1.366-2.198c-0.377-7.2-3.307-10.852-8.701-10.852c-2.919,0-6.388,1.077-10.037,3.112
			c-1.101,0.611-2.488,0.378-3.317-0.571c-3.952-4.496-6.945-6.091-8.311-6.091c-0.307,0-0.487,0.077-0.688,0.292
			c-0.413,0.441-1.736,2.446-1.285,9.659c0.053,0.854-0.304,1.684-0.963,2.231c-0.664,0.55-1.546,0.745-2.375,0.537
			c-0.039-0.011-3.987-1.003-7.93-1.003c-3.109,0-5.347,0.639-6.138,1.757c-0.814,1.158-0.348,3.208,0.188,4.726
			c0.289,0.833,0.155,1.757-0.359,2.47c-0.52,0.714-1.355,1.165-2.238,1.104C129.862,229.086,129.862,229.086,129.858,229.086z"/>
	</g>
	<g>
		<path fill="#F2E6C7" d="M181.261,269.973c0,0-9.482,6.26,3.589,12.114c9.697,14.699,21.894,7.406,21.894,7.406
			s24.702,6.112,22.264-10.49c15.143-2.619,22.936-11.166,7.26-22.481c9.662-11.169,2.702-14.432-8.266-16.28
			c0,0-10.361-19.61-23.636-9.214c-15.595-11.354-18.072,6.489-18.072,6.489s-14.197-1.425-11.137,9.261
			c-10.242-1.808-7.892,9.464-3.028,13.411C172.128,260.188,168.642,269.302,181.261,269.973z"/>
		<path fill="#3C2517" d="M199.48,293.988L199.48,293.988c-4.442-0.004-10.852-1.719-16.431-9.779
			c-4.892-2.336-7.503-5.191-7.774-8.494c-0.119-1.477,0.247-2.785,0.814-3.904c-2.561-0.797-4.464-2.141-5.681-4.016
			c-1.584-2.434-1.543-5.049-1.26-6.75c-2.89-3.186-4.806-8.434-3.377-12.461c0.949-2.674,3.2-4.323,6.264-4.629
			c0-1.913,0.543-3.593,1.615-5.019c2.468-3.265,6.945-4.083,10.475-4.161c1.253-4.566,4.53-10.209,11.092-10.209
			c2.76,0,5.825,1.073,9.122,3.19c2.562-1.627,5.216-2.449,7.916-2.449c8.998,0,15.41,9.174,17.443,12.506
			c6.115,1.118,11.771,2.897,13.409,7.449c1.355,3.762-0.685,7.686-3.027,10.809c5.854,4.805,8.286,9.561,7.224,14.155
			c-1.189,5.146-6.638,8.988-15.443,10.945c0.005,3.006-0.854,5.529-2.575,7.518c-2.626,3.043-7.059,4.589-13.17,4.589
			c-3.837,0-7.358-0.619-9.023-0.964C205.677,292.966,202.906,293.988,199.48,293.988z M174.637,261.145
			c0,0-0.766,2.172,0.286,3.754c0.924,1.391,3.166,2.219,6.479,2.393c1.158,0.064,2.146,0.861,2.446,1.98
			c0.303,1.115-0.145,2.301-1.112,2.938c-0.723,0.49-2.213,1.906-2.113,3.078c0.042,0.481,0.55,2.211,5.325,4.351
			c0.466,0.207,0.861,0.547,1.143,0.971c3.508,5.313,7.676,8.01,12.391,8.016c3.402,0,5.861-1.418,5.883-1.43
			c0.606-0.365,1.33-0.477,2.021-0.305c0.04,0.012,4.207,1.022,8.731,1.022c3.084,0,7.163-0.478,9.111-2.729
			c1.137-1.313,1.504-3.215,1.126-5.795c-0.212-1.438,0.763-2.783,2.195-3.031c7.601-1.313,12.788-4.127,13.532-7.342
			c0.632-2.762-1.986-6.424-7.386-10.322c-0.606-0.44-1.006-1.118-1.095-1.862c-0.084-0.748,0.146-1.5,0.636-2.067
			c4.203-4.857,4.076-6.993,3.825-7.684c-0.613-1.711-4.149-3.123-10.509-4.195c-0.821-0.135-1.535-0.649-1.919-1.388
			c-1.606-3.013-7.133-10.826-13.378-10.826c-2.048,0-4.146,0.826-6.24,2.467c-0.942,0.734-2.258,0.759-3.229,0.056
			c-2.933-2.138-5.555-3.265-7.569-3.265c-5.061,0-6.261,7.885-6.271,7.966c-0.209,1.418-1.528,2.428-2.923,2.286
			c-0.05-0.003-0.564-0.046-1.327-0.046c-3.274,0-5.802,0.759-6.761,2.033c-0.628,0.836-0.699,2.139-0.205,3.875
			c0.258,0.886,0.036,1.846-0.585,2.53c-0.621,0.688-1.546,1.009-2.457,0.847c-0.582-0.103-1.114-0.155-1.588-0.155
			c-1.881,0-2.146,0.752-2.276,1.112c-0.705,2,0.829,5.971,2.993,7.727C174.718,258.833,175.05,260.061,174.637,261.145
			L174.637,261.145z"/>
	</g>
	<g>
		<path fill="#F2E6C7" d="M267.116,319.132c0,0-5.001-18.467,4.771-27.002c9.775-8.539,23.098-17.323,23.098-17.323
			s3.382-4.689-4.01-11.105c-7.386-6.422-5.871,1.215-12.272-9.365c-6.401-10.586-11.359-10.869-10.868-5.735
			c0.492,5.135,2.443,14.348-3.184,18.913c-5.629,4.562-13.104,17.027-21.919,15.008c-8.818-2.006-25.768-2.021-28.976-0.303
			c-3.207,1.719,12.962,18.188,12.962,18.188s19.652-5.731,25.832-5.817c3.211-0.053,4.684-2.496,1.534,11.744
			c-3.149,14.229,1.856,24.924,1.856,24.924L267.116,319.132z"/>
		<path fill="#3C2517" d="M255.939,333.938c-0.139,0-0.275-0.011-0.412-0.029c-0.879-0.133-1.639-0.705-2.016-1.518
			c-0.224-0.466-5.354-11.687-2.051-26.638c0.893-4.039,1.438-6.883,1.619-8.506c-0.154,0.01-0.316,0.019-0.486,0.021
			c-4.775,0.066-19.76,4.146-25.13,5.713c-0.949,0.279-1.973,0.006-2.66-0.698c-9.844-10.021-14.589-16.705-14.105-19.867
			c0.17-1.108,0.818-2.039,1.788-2.562c2.418-1.297,8.356-1.563,12.913-1.563c6.772,0,13.474,0.603,17.923,1.619
			c4.881,1.092,9.974-4.398,14.397-9.229c1.836-2.003,3.567-3.894,5.24-5.25c3.791-3.072,3.007-9.66,2.438-14.469
			c-0.092-0.751-0.176-1.46-0.235-2.105c-0.246-2.555,0.547-4.02,1.257-4.804c0.812-0.889,1.947-1.383,3.193-1.383
			c4.272,0,8.551,5.59,11.384,10.276c2.958,4.891,3.625,4.961,4.33,5.037c1.893,0.197,3.886,0.631,7.407,3.694
			c9.13,7.929,4.619,14.427,4.426,14.695c-0.19,0.267-0.428,0.492-0.699,0.67c-0.134,0.09-13.289,8.789-22.811,17.106
			c-8.381,7.322-3.991,24.115-3.945,24.283c0.236,0.892,0.003,1.844-0.618,2.519l-11.176,12.125
			C257.396,333.626,256.682,333.938,255.939,333.938z M254.658,291.714c1.55,0,2.453,0.724,2.939,1.33
			c1.411,1.761,1.264,4.095-0.896,13.865c-1.812,8.184-0.748,15.106,0.324,19.213l7.154-7.763
			c-1.027-4.825-3.363-20.123,5.941-28.25c8.76-7.653,20.102-15.35,22.804-17.159c0.279-0.832,0.64-3.447-3.708-7.229
			c-2.542-2.205-3.558-2.312-4.449-2.406c-2.969-0.312-4.678-1.506-8.36-7.594c-2.625-4.34-4.704-6.376-5.888-7.209
			c0.054,0.564,0.129,1.171,0.205,1.818c0.683,5.704,1.705,14.327-4.386,19.264c-1.366,1.109-2.965,2.854-4.661,4.703
			c-4.539,4.959-10.182,11.123-17.018,11.127c-0.847,0-1.697-0.1-2.526-0.289c-4.023-0.914-10.436-1.482-16.734-1.482
			c-4.217,0-7.149,0.259-8.83,0.541c1.613,2.798,6.354,8.396,10.954,13.189c5.012-1.424,19.456-5.398,24.984-5.479
			c0.337-0.008,0.648-0.051,0.934-0.088C253.891,291.757,254.299,291.714,254.658,291.714z"/>
	</g>
	<g>
		<path fill="#EFDAAC" d="M244.646,350.516c0,0,19.021,12.854,19.099-2.689c8.756,3.387,13.788-10.318,3.271-21.574
			c0,0,5.143-9.689-11.324-17.07c0,0-5.744-13.871-19.941-9.805c-20.167-17.812-27.014-2.66-27.014-2.66
			s-23.025,1.795-11.497,17.107c-4.29,7.746-7.714,23.316,13.321,20.092c-4.129,13.74,5.135,19.162,18.037,17.016
			C232.733,361.376,239.664,367.766,244.646,350.516z"/>
		<path fill="#3C2517" d="M237.208,363.912h-0.003c-4.637,0-8.054-5.09-10.28-10.043c-7.969,0.873-14.187-1.125-17.497-5.576
			c-1.602-2.154-3.126-5.76-2.307-11.314c-7.026,0.388-11.759-1.504-14.184-5.625c-2.938-4.981-1.436-11.94,1.168-17.313
			c-2.847-4.315-3.518-8.209-1.99-11.597c2.703-5.991,11.416-7.76,14.988-8.239c1.46-2.201,4.985-6.181,11.397-6.181
			c5.318,0,11.353,2.828,17.948,8.408c1.479-0.32,2.93-0.486,4.337-0.486c10.242,0,15.4,8.271,16.91,11.205
			c6.462,3.07,10.523,6.92,12.084,11.461c1.006,2.935,0.72,5.445,0.293,7.052c5.876,7.062,6.518,14.846,4.432,19.649
			c-1.588,3.664-4.746,5.83-8.374,5.72c-1.259,6.393-6.214,7.155-8.512,7.155c-4.017,0-8.529-2.033-11.447-3.629
			C244.718,358.561,241.979,363.912,237.208,363.912z M228.598,348.248c1.084,0,2.085,0.664,2.491,1.695
			c2.484,6.268,5.071,8.604,6.119,8.604c0.802,0,2.858-1.834,4.863-8.773c0.236-0.825,0.854-1.479,1.658-1.776
			c0.812-0.291,1.708-0.179,2.417,0.297c1.874,1.263,7.584,4.531,11.473,4.531c1.277,0,3.42,0,3.443-5.013
			c0.008-0.883,0.445-1.709,1.174-2.201c0.731-0.502,1.652-0.602,2.479-0.288c0.59,0.229,1.15,0.346,1.662,0.346
			c1.85,0,2.803-1.562,3.209-2.483c1.51-3.488,0.694-9.5-4.531-15.101c-0.781-0.836-0.943-2.076-0.406-3.088
			c0.021-0.05,0.988-2.072,0.015-4.759c-1.154-3.198-4.638-6.176-10.067-8.608c-0.625-0.282-1.119-0.791-1.38-1.418
			c-0.149-0.358-3.865-8.901-12.43-8.901c-1.361,0-2.809,0.219-4.298,0.645c-0.879,0.26-1.824,0.037-2.513-0.568
			c-5.926-5.23-11.271-7.998-15.475-7.998c-5.158,0-7.244,4.273-7.325,4.459c-0.417,0.867-1.271,1.471-2.228,1.547
			c-2.58,0.209-10.312,1.617-11.945,5.258c-1.026,2.277,0.73,5.363,2.379,7.56c0.639,0.847,0.716,1.988,0.204,2.914
			c-2.332,4.209-3.959,10.229-2.028,13.508c1.609,2.729,5.995,3.64,12.595,2.632c0.917-0.144,1.827,0.196,2.435,0.891
			c0.604,0.697,0.808,1.648,0.539,2.531c-0.934,3.121-1.591,7.455,0.604,10.403c2.311,3.104,7.746,4.306,14.426,3.197
			C228.305,348.257,228.453,348.248,228.598,348.248z"/>
	</g>
	<g>
		<path fill="#CEC0A1" d="M230.115,289.505c0,0,11.038-2.694,0.702-12.621c-4.167-17.106-18.107-14.352-18.107-14.352
			s-21.202-14.083-24.501,2.372c-15.139-2.641-25.355,2.777-14.412,18.724c-12.867,7.252-7.41,12.67,2.293,18.106
			c0,0,3.138,21.953,19.142,16.65c10.855,15.938,19.204-0.021,19.204-0.021s12.885,6.132,13.611-4.965
			c9.026,5.15,10.612-6.25,7.365-11.6C235.412,301.8,241.768,294.395,230.115,289.505z"/>
		<path fill="#3C2517" d="M205.027,328.146c-3.811,0-7.467-2.242-10.872-6.681c-1.26,0.281-2.48,0.429-3.663,0.429
			c-12.072,0-15.901-13.972-16.815-18.445c-5.385-3.117-10.113-6.695-10.121-11.533c-0.003-4,3.236-7.002,6.497-9.15
			c-3.659-6.123-4.475-11.19-2.421-15.09c1.461-2.781,5.032-6.09,13.756-6.09c1.538,0,3.169,0.105,4.873,0.316
			c1.775-4.965,5.587-7.666,10.943-7.666c6.462,0,13.66,4.02,16.124,5.514c0.413-0.033,0.928-0.061,1.521-0.061
			c4.299,0,14.574,1.557,18.387,15.811c3.811,3.846,5.311,7.414,4.449,10.615c-0.384,1.428-1.172,2.543-2.086,3.402
			c2.146,1.612,3.486,3.52,3.999,5.696c0.666,2.824-0.251,5.271-1.091,6.775c1.566,3.747,1.524,8.581-0.24,11.723
			c-1.334,2.369-3.504,3.677-6.111,3.677l0,0c-0.688,0-1.401-0.097-2.132-0.279c-1.303,3.615-4.291,5.627-8.562,5.627
			c-2.202,0-4.387-0.562-5.946-1.074C213.702,324.191,210.057,328.146,205.027,328.146z M195.231,315.705
			c0.872,0,1.708,0.422,2.217,1.172c1.838,2.691,4.644,5.906,7.579,5.906c3.308,0,6.197-4.09,7.037-5.668
			c0.671-1.268,2.227-1.793,3.525-1.176c0.024,0.016,3.07,1.434,5.872,1.434c2.185,0,3.685-0.709,3.906-4.15
			c0.063-0.92,0.593-1.75,1.408-2.188c0.816-0.434,1.8-0.424,2.602,0.037c1.376,0.781,2.272,0.951,2.777,0.951h0.003
			c0.469,0,0.971-0.115,1.43-0.941c1.09-1.932,0.864-5.693-0.47-7.893c-0.6-0.988-0.497-2.256,0.257-3.138l0,0
			c0,0,1.451-1.788,0.996-3.631c-0.398-1.623-2.233-3.157-5.293-4.44c-1.066-0.449-1.73-1.533-1.638-2.687
			c0.092-1.156,0.918-2.123,2.039-2.394c0.847-0.219,2.728-1.049,3.025-2.188c0.127-0.467,0.229-2.269-3.544-5.892
			c-0.37-0.354-0.628-0.803-0.748-1.303c-2.643-10.85-9.511-12.467-13.364-12.467c-0.995,0-1.63,0.113-1.637,0.113
			c-0.682,0.121-1.409-0.018-1.987-0.398c-0.077-0.049-7.873-5.168-14.021-5.168c-3.596,0-5.558,1.801-6.366,5.83
			c-0.289,1.434-1.654,2.361-3.092,2.119c-7.73-1.355-13.84-0.279-15.367,2.625c-1.278,2.424,0.01,6.662,3.63,11.938
			c0.425,0.619,0.569,1.392,0.402,2.123c-0.172,0.732-0.642,1.361-1.298,1.73c-5.59,3.152-6.192,5.205-6.192,5.945
			c0.003,1.816,2.854,4.34,8.479,7.486c0.73,0.405,1.229,1.133,1.349,1.959c0.021,0.151,2.322,15.176,11.744,15.176
			c1.203,0,2.513-0.234,3.896-0.693C194.668,315.746,194.949,315.705,195.231,315.705z"/>
	</g>
	<g>
		<path fill="#F2E6C7" d="M305.045,209.606c0,0,6.133,18.124-3.103,27.265c-9.231,9.132-21.979,18.725-21.979,18.725
			s-3.08,4.887,4.68,10.842c7.775,5.949,5.791-1.586,12.836,8.586c7.044,10.16,12.009,10.139,11.2,5.041
			c-0.809-5.09-3.331-14.168,2.004-19.072c5.344-4.902,12.03-17.815,20.959-16.35c8.929,1.458,25.847,0.424,28.943-1.493
			c3.1-1.916-14.065-17.354-14.065-17.354s-19.265,6.945-25.43,7.418c-3.198,0.247-4.514,2.773-2.251-11.624
			c2.262-14.402-3.396-24.767-3.396-24.767L305.045,209.606z"/>
		<path fill="#3C2517" d="M306.965,286.107L306.965,286.107c-4.188,0-8.668-5.197-11.691-9.562c-3.254-4.694-3.92-4.726-4.633-4.756
			c-1.902-0.082-3.918-0.386-7.627-3.226c-9.592-7.354-5.498-14.112-5.318-14.397c0.174-0.276,0.398-0.517,0.656-0.713
			c0.127-0.097,12.715-9.596,21.707-18.489c7.918-7.841,2.499-24.335,2.445-24.501c-0.293-0.872-0.12-1.835,0.462-2.552
			l10.396-12.782c0.564-0.691,1.412-1.062,2.325-0.978c0.89,0.081,1.68,0.6,2.11,1.383c0.246,0.455,6.065,11.339,3.69,26.463
			c-0.643,4.083-1.006,6.955-1.09,8.587c0.153-0.022,0.316-0.04,0.485-0.051c4.757-0.363,19.459-5.368,24.725-7.265
			c0.925-0.336,1.969-0.135,2.702,0.529c10.445,9.397,15.6,15.774,15.312,18.961c-0.099,1.118-0.692,2.089-1.631,2.668
			c-3.296,2.036-13.998,2.58-19.805,2.58c-2.991,0-7.329-0.125-10.979-0.718c-5.067-0.828-9.68,4.998-13.802,10.104
			c-1.708,2.118-3.324,4.114-4.916,5.573c-3.589,3.298-2.399,9.82-1.531,14.58c0.137,0.75,0.264,1.455,0.367,2.099
			c0.416,2.612-0.34,4.145-1.049,4.975C309.467,285.578,308.288,286.107,306.965,286.107z M282.131,257.322
			c-0.223,0.848-0.423,3.482,4.146,6.982c2.668,2.047,3.646,2.092,4.591,2.129c2.981,0.125,4.762,1.215,8.814,7.061
			c2.888,4.166,5.091,6.072,6.316,6.824c-0.087-0.56-0.2-1.166-0.312-1.812c-1.034-5.647-2.592-14.184,3.179-19.487
			c1.299-1.189,2.791-3.039,4.369-4.994c4.753-5.886,10.861-13.345,18.841-12.03c2.607,0.428,6.104,0.649,10.113,0.649
			c6.854,0,12.7-0.646,15.472-1.285c-1.779-2.692-6.86-7.993-11.756-12.499c-4.918,1.736-19.091,6.603-24.609,7.023
			c-0.336,0.026-0.644,0.092-0.922,0.144c-2.459,0.477-3.666-0.314-4.294-1.048c-1.43-1.67-1.412-4.125,0.109-13.812
			c1.302-8.279-0.188-15.125-1.515-19.152l-6.653,8.18c1.323,4.757,4.604,19.882-4.194,28.583
			C295.561,246.961,284.719,255.346,282.131,257.322z"/>
	</g>
	<g>
		<path fill="#F2E6C7" d="M338.344,207.348c0,0-10.619-4.058-7.753,9.976c-6.307,16.456,6.729,22.116,6.729,22.116
			s9.429,23.635,21.509,11.977c10.942,10.785,22.422,12.146,22.485-7.199c14.702,1.348,13.302-6.205,8.409-16.197
			c0,0,9.899-19.851-6.277-24.587c0.134-19.282-15.811-10.908-15.811-10.908s-7.104-12.365-14.006-3.652
			c-4.499-9.378-12.276-0.904-12.655,5.346C340.976,194.22,331.544,196.698,338.344,207.348z"/>
		<path fill="#3C2517" d="M372.854,261.906c-5.12,0-10.266-3.453-14.127-6.902c-2.155,1.545-4.399,2.328-6.704,2.328
			c-9.125,0-15.171-12.242-16.809-15.987c-3.274-1.922-12.843-9.047-7.396-24.25c-0.849-4.708-0.354-8.106,1.499-10.375
			c1.114-1.369,2.664-2.216,4.523-2.498c-0.847-2.551-0.86-4.88-0.049-6.966c1.058-2.703,3.204-4.192,4.753-4.955
			c1.079-5.015,5.335-10.285,10.104-10.285c1.562,0,3.6,0.533,5.467,2.673c1.496-1.067,3.107-1.607,4.824-1.607
			c4.406,0,7.888,3.693,9.696,6.117c1.566-0.561,3.787-1.165,6.119-1.165c3.024,0,5.636,1.02,7.545,2.94
			c2.276,2.294,3.546,5.833,3.787,10.537c3.814,1.528,6.499,4.034,7.999,7.471c3.074,7.03-0.042,15.795-1.4,19
			c2.591,5.484,4.426,10.989,1.94,14.974c-1.785,2.859-5.177,4.209-10.724,4.093C383.059,259.895,376.728,261.906,372.854,261.906z
			 M358.829,248.735c0.677,0,1.358,0.258,1.881,0.772c4.539,4.472,8.963,7.033,12.145,7.033c4.992,0,5.762-7.724,5.778-12.33
			c0-0.755,0.318-1.468,0.876-1.976c0.559-0.509,1.307-0.759,2.046-0.685c4.655,0.42,7.7-0.116,8.521-1.437
			c0.963-1.538,0.032-5.213-2.76-10.916c-0.363-0.751-0.36-1.63,0.007-2.374c0.05-0.096,4.603-9.423,1.846-15.711
			c-1.086-2.477-3.204-4.146-6.475-5.103c-1.151-0.339-1.938-1.397-1.929-2.594c0.028-4.143-0.759-7.135-2.271-8.664
			c-0.907-0.911-2.128-1.355-3.737-1.355c-2.929,0-5.841,1.489-5.868,1.503c-1.292,0.667-2.854,0.208-3.576-1.038
			c-1.021-1.764-3.934-5.417-6.371-5.417c-1.027,0-2.106,0.702-3.204,2.092c-0.575,0.724-1.496,1.102-2.403,0.999
			c-0.917-0.103-1.716-0.67-2.118-1.503c-0.381-0.797-1.396-2.654-2.564-2.654c-1.85,0-4.796,3.688-4.993,7.001
			c-0.066,1.154-0.875,2.139-1.997,2.432l0,0c0.004,0-2.205,0.646-2.88,2.424c-0.594,1.56,0.039,3.868,1.827,6.662
			c0.625,0.975,0.552,2.245-0.18,3.138c-0.732,0.903-1.952,1.228-3.039,0.815l0,0c0,0-1.017-0.367-2.132-0.367
			c-1.27,0-1.658,0.47-1.785,0.628c-0.388,0.473-1.188,2.075-0.25,6.673c0.104,0.501,0.061,1.02-0.124,1.496
			c-5.328,13.897,4.855,18.502,5.294,18.692c0.646,0.282,1.158,0.809,1.422,1.468c1.407,3.504,6.67,13.524,12.21,13.524
			c1.578,0,3.239-0.833,4.944-2.478C357.484,248.989,358.158,248.735,358.829,248.735z"/>
	</g>
	<g>
		<path fill="#EFDAAC" d="M297.906,176.3c0,0-10.615-4.056-7.754,9.98c-6.303,16.459,6.729,22.109,6.729,22.109
			s9.433,23.643,21.509,11.988c10.946,10.78,22.423,12.136,22.485-7.203c14.702,1.352,13.297-6.204,8.41-16.198
			c0,0,9.897-19.852-6.281-24.586c0.137-19.282-15.804-10.906-15.804-10.906s-7.11-12.365-14.009-3.656
			c-4.496-9.375-12.277-0.896-12.651,5.35C300.542,163.178,291.107,165.657,297.906,176.3z"/>
		<path fill="#3C2517" d="M332.418,230.858c-5.12,0-10.265-3.449-14.13-6.903c-2.152,1.548-4.4,2.333-6.701,2.333
			c-9.125,0-15.178-12.246-16.812-15.99c-3.274-1.92-12.84-9.041-7.397-24.248c-0.842-4.708-0.353-8.105,1.501-10.375
			c1.118-1.37,2.664-2.218,4.523-2.499c-0.844-2.55-0.861-4.881-0.047-6.963c1.057-2.705,3.205-4.196,4.755-4.954
			c1.079-5.017,5.332-10.287,10.104-10.287c1.561,0,3.596,0.531,5.459,2.673c1.5-1.07,3.112-1.607,4.823-1.607
			c4.409,0,7.892,3.691,9.702,6.115c1.569-0.561,3.79-1.163,6.123-1.163c3.023,0,5.628,1.017,7.541,2.939
			c2.271,2.292,3.543,5.832,3.781,10.535c3.814,1.528,6.505,4.034,8.005,7.469c3.073,7.035-0.043,15.801-1.404,19.005
			c2.59,5.483,4.429,10.992,1.94,14.973c-1.781,2.855-5.186,4.157-10.722,4.093C342.62,228.854,336.289,230.858,332.418,230.858z
			 M318.392,217.695c0.682,0,1.358,0.254,1.885,0.769c4.533,4.468,8.96,7.029,12.143,7.029c4.99,0,5.764-7.724,5.777-12.329
			c0.004-0.752,0.32-1.469,0.879-1.973c0.555-0.504,1.285-0.755,2.051-0.688c4.626,0.427,7.692-0.113,8.511-1.426
			c0.964-1.542,0.031-5.215-2.76-10.922c-0.362-0.748-0.362-1.627,0.008-2.372c0.046-0.095,4.599-9.429,1.846-15.71
			c-1.088-2.481-3.207-4.152-6.479-5.108c-1.15-0.337-1.934-1.396-1.927-2.594c0.027-4.141-0.755-7.136-2.271-8.662
			c-0.905-0.91-2.128-1.354-3.731-1.354c-2.931,0-5.842,1.488-5.872,1.501c-1.269,0.667-2.856,0.213-3.572-1.038
			c-1.022-1.763-3.938-5.417-6.381-5.417c-1.022,0-2.104,0.704-3.199,2.091c-0.576,0.725-1.497,1.104-2.403,1
			c-0.918-0.102-1.719-0.67-2.117-1.504c-0.386-0.798-1.4-2.652-2.562-2.652c-1.85,0-4.797,3.688-4.994,7.001
			c-0.068,1.158-0.875,2.139-1.997,2.434l0,0c0.004,0-2.209,0.647-2.88,2.424c-0.593,1.559,0.039,3.864,1.825,6.659
			c0.625,0.976,0.55,2.241-0.181,3.141c-0.734,0.898-1.951,1.225-3.038,0.81l0,0c0,0-1.017-0.369-2.132-0.369
			c-1.271,0-1.658,0.475-1.782,0.632c-0.392,0.476-1.191,2.077-0.255,6.675c0.104,0.501,0.062,1.02-0.122,1.496
			c-5.181,13.523,4.221,18.209,5.308,18.7c0.632,0.283,1.146,0.812,1.408,1.454c1.407,3.511,6.669,13.53,12.213,13.53
			c1.578,0,3.236-0.836,4.944-2.478C317.046,217.942,317.721,217.695,318.392,217.695z"/>
	</g>
	<g>
		<path fill="#CEC0A1" d="M386.862,200.791c0,0-10.614-4.058-7.753,9.977c-6.303,16.459,6.729,22.111,6.729,22.111
			s9.435,23.645,21.509,11.985c10.947,10.78,22.419,12.135,22.486-7.203c14.702,1.352,13.297-6.2,8.41-16.198
			c0,0,9.897-19.85-6.282-24.582c0.139-19.282-15.802-10.908-15.802-10.908s-7.111-12.365-14.011-3.655
			c-4.499-9.375-12.276-0.897-12.65,5.348C389.499,187.667,380.066,190.148,386.862,200.791z"/>
		<path fill="#3C2517" d="M421.376,255.35c-5.121,0-10.263-3.449-14.13-6.904c-2.152,1.549-4.4,2.332-6.702,2.332
			c-9.125,0-15.177-12.244-16.812-15.988c-3.275-1.924-12.839-9.044-7.396-24.247c-0.844-4.708-0.353-8.106,1.5-10.375
			c1.118-1.369,2.664-2.219,4.524-2.498c-0.845-2.551-0.861-4.881-0.048-6.963c1.057-2.707,3.205-4.196,4.75-4.955
			c1.085-5.017,5.338-10.289,10.107-10.289c1.561,0,3.596,0.531,5.459,2.673c1.5-1.069,3.112-1.607,4.824-1.607
			c4.407,0,7.891,3.693,9.7,6.116c1.57-0.561,3.791-1.163,6.123-1.163c3.023,0,5.629,1.017,7.538,2.941
			c2.275,2.292,3.546,5.828,3.786,10.532c3.814,1.531,6.503,4.037,8.005,7.47c3.071,7.034-0.044,15.799-1.405,19.007
			c2.59,5.48,4.429,10.993,1.939,14.974c-1.781,2.857-5.189,4.17-10.72,4.089C431.578,253.341,425.247,255.35,421.376,255.35z
			 M407.348,242.182c0.683,0,1.358,0.258,1.886,0.773c4.534,4.468,8.96,7.029,12.144,7.029c4.989,0,5.762-7.724,5.776-12.33
			c0.004-0.751,0.321-1.468,0.879-1.977c0.554-0.504,1.281-0.751,2.05-0.685c4.627,0.425,7.694-0.112,8.512-1.425
			c0.96-1.542,0.032-5.217-2.759-10.925c-0.364-0.745-0.364-1.624,0.007-2.368c0.046-0.096,4.6-9.427,1.846-15.715
			c-1.087-2.478-3.207-4.15-6.479-5.106c-1.15-0.335-1.934-1.394-1.927-2.594c0.028-4.139-0.756-7.135-2.27-8.66
			c-0.907-0.911-2.128-1.355-3.733-1.355c-2.931,0-5.845,1.489-5.872,1.503c-1.268,0.663-2.854,0.211-3.571-1.038
			c-1.022-1.764-3.938-5.418-6.38-5.418c-1.023,0-2.104,0.704-3.201,2.093c-0.578,0.725-1.493,1.103-2.403,1
			c-0.917-0.103-1.719-0.672-2.116-1.507c-0.386-0.797-1.4-2.652-2.562-2.652c-1.85,0-4.796,3.688-4.993,7.003
			c-0.07,1.157-0.875,2.138-1.998,2.431l0,0c0,0-2.209,0.649-2.879,2.424c-0.594,1.56,0.038,3.864,1.824,6.659
			c0.621,0.978,0.551,2.241-0.18,3.141c-0.734,0.903-1.951,1.225-3.039,0.812l0,0c0,0-1.017-0.371-2.131-0.371
			c-1.271,0-1.66,0.477-1.782,0.635c-0.394,0.473-1.193,2.075-0.254,6.673c0.102,0.501,0.06,1.02-0.124,1.496
			c-5.182,13.523,4.221,18.209,5.308,18.697c0.632,0.285,1.146,0.811,1.407,1.457c1.404,3.512,6.671,13.53,12.214,13.53
			c1.577,0,3.236-0.833,4.94-2.481C406.004,242.434,406.678,242.182,407.348,242.182z"/>
	</g>
	<g>
		<path fill="#F2E6C7" d="M255.051,294.08c0,0,19.027-2.012,25.924,9.004c6.885,11.008,13.444,25.547,13.444,25.547
			s4.098,4.078,11.604-2.195c7.51-6.272-0.275-5.99,11.189-10.633c11.462-4.648,12.527-9.496,7.382-9.828
			c-5.147-0.324-14.557,0.148-18.174-6.133c-3.614-6.285-14.739-15.643-11.354-24.035c3.376-8.385,6.075-25.119,4.887-28.566
			c-1.188-3.441-20.016,9.922-20.016,9.922s2.551,20.316,1.662,26.436c-0.459,3.172,1.719,5.012-11.841-0.352
			c-13.551-5.365-24.899-2.117-24.899-2.117L255.051,294.08z"/>
		<path fill="#3C2517" d="M298.224,332.615c-3.501,0-5.479-1.869-5.691-2.08c-0.236-0.232-0.421-0.502-0.554-0.799
			c-0.067-0.148-6.571-14.508-13.276-25.229c-4.457-7.123-15.583-7.894-20.16-7.894c-1.938,0-3.198,0.132-3.212,0.132
			c-0.921,0.096-1.816-0.285-2.385-1.009l-10.192-12.95c-0.557-0.701-0.724-1.634-0.444-2.479c0.271-0.855,0.952-1.513,1.811-1.755
			c0.155-0.047,3.833-1.079,9.45-1.079c5.902,0,11.68,1.104,17.179,3.28c1.599,0.627,5.795,2.291,8.138,2.942
			c0.016-0.159,0.032-0.321,0.062-0.483c0.684-4.726-0.976-20.162-1.671-25.715c-0.122-0.979,0.305-1.951,1.107-2.522
			c3.633-2.574,15.842-10.982,20.528-10.982c2.032,0,3.18,1.225,3.575,2.371c1.569,4.542-1.647,22.292-4.935,30.449
			c-1.889,4.68,2.749,10.521,6.841,15.686c1.686,2.129,3.276,4.137,4.354,6.006c2.438,4.234,9.064,4.5,13.903,4.695
			c0.759,0.031,1.468,0.059,2.109,0.102c4.473,0.281,5.272,3.098,5.409,3.951c0.607,3.748-3.638,7.664-11.948,11.035
			c-5.3,2.146-5.474,2.791-5.659,3.477c-0.494,1.84-1.235,3.736-4.817,6.732C304.469,331.234,301.27,332.615,298.224,332.615z
			 M296.57,326.878c0.302,0.156,0.859,0.371,1.652,0.371c1.727,0,3.828-0.99,6.083-2.871c2.576-2.157,2.831-3.099,3.077-4.01
			c0.776-2.886,2.229-4.384,8.823-7.052c4.701-1.909,7.043-3.639,8.049-4.676c-0.562-0.035-1.175-0.059-1.821-0.084
			c-5.74-0.229-14.425-0.578-18.339-7.381c-0.876-1.521-2.351-3.381-3.906-5.348c-4.753-5.992-10.669-13.453-7.611-21.027
			c3.03-7.516,5.024-20.314,4.997-25.099c-3.014,1.14-9.307,4.938-14.779,8.733c0.613,5.176,2.254,20.068,1.453,25.545
			c-0.046,0.332-0.049,0.648-0.061,0.937c-0.107,3.646-2.201,4.412-3.94,4.412c-1.817,0-4.604-0.873-11.474-3.591
			c-4.866-1.926-9.982-2.903-15.205-2.903c-1.43,0-2.715,0.078-3.808,0.185l6.521,8.287c0.604-0.029,1.372-0.056,2.259-0.056
			c6.793,0,19.038,1.353,24.705,10.412C289.408,311.507,295.202,323.906,296.57,326.878z"/>
	</g>
	<g>
		<path fill="#CEC0A1" d="M260.146,261.093c0,0-6.289,9.47,8.035,9.755c14.67,9.758,23.047-1.72,23.047-1.72
			s25.139-4.021,16.409-18.36c12.916-8.317,16.756-19.212-2.095-23.513c4.537-14.056-3.142-14.342-13.965-11.762
			c0,0-17.196-14.01-25.362,0.741c-18.781-4.362-14.104,13.025-14.104,13.025s-13.625,4.224-6.638,12.866
			c-10.135,2.333-3.571,11.783,2.442,13.52C247.915,255.645,248.268,265.393,260.146,261.093z"/>
		<path fill="#3C2517" d="M279.576,277.462c-3.971,0-8.078-1.332-12.229-3.961c-5.41-0.235-8.932-1.849-10.471-4.776
			c-0.684-1.318-0.863-2.673-0.771-3.92c-0.459,0.045-0.903,0.065-1.338,0.065l0,0c-5.687,0-8.458-3.869-9.271-7.281
			c-4.14-1.914-8.089-6.337-7.969-10.785c0.035-1.34,0.55-4.192,3.981-6.063c-0.965-2.3-0.795-4.248-0.372-5.628
			c1.201-3.952,5.291-6.366,7.931-7.552c-0.35-2.742-0.393-7.245,2.216-10.646c2.696-3.515,7.256-4.778,13.639-3.681
			c2.912-4.221,6.987-6.437,11.888-6.437c6.569,0,12.906,4.029,15.385,5.805c3.197-0.712,5.695-1.044,7.789-1.044
			c3.709,0,6.396,1.112,7.997,3.307c1.749,2.403,2.046,5.773,0.893,10.481c7.272,2.145,11.366,5.568,12.182,10.213
			c0.913,5.202-2.604,10.862-9.947,16.101c1.673,3.957,1.044,7.066,0.108,9.096c-3.392,7.34-14.879,10.123-18.564,10.844
			C290.975,273.438,286.508,277.462,279.576,277.462z M260.146,258.408c0.806,0,1.588,0.369,2.106,1.027
			c0.716,0.91,0.771,2.174,0.126,3.141c-0.475,0.738-1.298,2.623-0.743,3.668c0.226,0.422,1.369,1.82,6.599,1.918
			c0.51,0.01,1.01,0.166,1.435,0.449c3.476,2.313,6.812,3.484,9.908,3.484c6.007,0,9.358-4.378,9.5-4.562
			c0.416-0.557,1.044-0.943,1.729-1.055c3.564-0.574,13.312-3.129,15.541-7.979c0.829-1.795,0.502-3.867-1.002-6.338
			c-0.755-1.242-0.382-2.859,0.84-3.649c6.486-4.174,10.159-8.78,9.589-12.03c-0.486-2.783-4.333-5.13-10.827-6.612
			c-0.733-0.17-1.361-0.636-1.736-1.291c-0.37-0.653-0.451-1.434-0.218-2.154c1.878-5.812,1.083-7.816,0.651-8.405
			c-0.532-0.731-1.765-1.098-3.658-1.098c-1.929,0-4.397,0.375-7.781,1.179c-0.814,0.193-1.665,0-2.314-0.522
			c-0.066-0.056-6.759-5.417-13.078-5.417c-3.547,0-6.246,1.754-8.248,5.372c-0.578,1.047-1.777,1.581-2.953,1.312
			c-5.024-1.169-8.473-0.73-10.062,1.319c-1.87,2.428-1.245,6.889-0.847,8.405c0.367,1.391-0.428,2.827-1.797,3.251
			c-1.479,0.465-5.886,2.364-6.638,4.859c-0.115,0.391-0.476,1.573,1.292,3.762c0.582,0.72,0.752,1.688,0.448,2.559
			c-0.3,0.875-1.034,1.531-1.934,1.739c-1.433,0.329-3.148,0.981-3.184,2.21c-0.056,2.106,2.964,5.307,5.77,6.114
			c1.115,0.326,1.896,1.324,1.938,2.481c0.049,0.91,0.508,3.959,4.17,3.959c1.246,0,2.75-0.312,4.465-0.937
			C259.529,258.462,259.839,258.408,260.146,258.408z"/>
	</g>
	<g>
		<path fill="#F2E6C7" d="M220.988,293.736c0,0-6.284,9.473,8.04,9.754c14.67,9.762,23.047-1.715,23.047-1.715
			s25.134-4.021,16.405-18.357c12.92-8.316,16.76-19.215-2.096-23.52c4.545-14.046-3.138-14.335-13.961-11.751
			c0,0-17.196-14.014-25.362,0.733c-18.784-4.362-14.109,13.03-14.109,13.03s-13.621,4.223-6.638,12.865
			c-10.127,2.328-3.563,11.781,2.45,13.516C208.766,288.291,209.115,298.039,220.988,293.736z"/>
		<path fill="#3C2517" d="M240.419,310.107c-3.966,0-8.076-1.33-12.224-3.959c-5.413-0.236-8.932-1.849-10.467-4.779
			c-0.691-1.316-0.864-2.67-0.776-3.92c-0.459,0.047-0.903,0.066-1.338,0.066l0,0c-5.682,0-8.458-3.867-9.271-7.279
			c-4.14-1.914-8.092-6.34-7.968-10.785c0.035-1.34,0.551-4.193,3.978-6.062c-0.964-2.297-0.791-4.244-0.375-5.625
			c1.207-3.957,5.297-6.365,7.934-7.547c-0.353-2.752-0.389-7.254,2.22-10.655c2.689-3.513,7.252-4.79,13.636-3.681
			c2.915-4.222,6.986-6.434,11.886-6.434c6.57,0,12.917,4.026,15.386,5.801c3.2-0.709,5.699-1.044,7.791-1.044
			c3.71,0,6.401,1.111,7.997,3.307c1.751,2.403,2.047,5.772,0.893,10.481c7.273,2.145,11.367,5.572,12.184,10.213
			c0.912,5.201-2.608,10.861-9.948,16.102c1.673,3.955,1.045,7.068,0.108,9.094c-3.392,7.343-14.881,10.125-18.562,10.845
			C251.818,306.083,247.354,310.107,240.419,310.107z M220.988,291.055c0.809,0,1.592,0.366,2.111,1.026
			c0.713,0.91,0.766,2.174,0.127,3.142c-0.477,0.737-1.299,2.622-0.741,3.668c0.222,0.422,1.369,1.819,6.593,1.918
			c0.512,0.01,1.009,0.166,1.433,0.448c3.476,2.312,6.811,3.484,9.908,3.484c6.011,0,9.362-4.378,9.497-4.562
			c0.42-0.558,1.047-0.945,1.736-1.056c3.562-0.574,13.312-3.129,15.541-7.979c0.828-1.791,0.5-3.862-1.002-6.334
			c-0.756-1.242-0.387-2.863,0.84-3.647c6.482-4.177,10.154-8.785,9.588-12.031c-0.487-2.787-4.337-5.135-10.83-6.618
			c-0.734-0.173-1.362-0.638-1.732-1.289c-0.375-0.656-0.451-1.438-0.219-2.152c1.877-5.812,1.083-7.817,0.652-8.403
			c-0.529-0.73-1.762-1.102-3.66-1.102c-1.923,0-4.396,0.379-7.781,1.186c-0.808,0.188-1.665-0.006-2.314-0.528
			c-0.065-0.054-6.757-5.413-13.081-5.413c-3.547,0-6.243,1.757-8.244,5.367c-0.582,1.048-1.793,1.585-2.954,1.313
			c-5.039-1.169-8.486-0.729-10.067,1.334c-1.87,2.445-1.222,6.986-0.844,8.389c0.378,1.391-0.416,2.83-1.796,3.256
			c-1.475,0.467-5.883,2.361-6.638,4.861c-0.116,0.387-0.474,1.572,1.291,3.756c0.582,0.721,0.752,1.688,0.451,2.562
			c-0.303,0.875-1.034,1.533-1.933,1.74c-1.437,0.327-3.147,0.979-3.184,2.207c-0.06,2.104,2.964,5.307,5.77,6.112
			c1.115,0.324,1.898,1.324,1.941,2.481c0.049,0.91,0.508,3.959,4.167,3.959c1.25,0,2.75-0.313,4.464-0.936
			C220.379,291.109,220.686,291.055,220.988,291.055z"/>
	</g>
	<g>
		<path fill="#E0C186" d="M298.679,279.971c0,0,10.934,15.7,4.608,27.03c-6.323,11.342-15.901,24.099-15.901,24.099
			s-1.598,5.555,7.521,9.104c9.114,3.559,5.117-3.119,14.712,4.68c9.595,7.807,14.358,6.402,12.164,1.729
			c-2.194-4.663-7.144-12.674-3.384-18.877c3.765-6.188,6.599-20.442,15.578-21.52c8.979-1.078,24.94-6.781,27.379-9.479
			c2.445-2.701-18.337-12.758-18.337-12.758s-16.567,12.026-22.353,14.19c-3.006,1.131-3.567,3.924-5.406-10.539
			c-1.832-14.457-10.152-22.84-10.152-22.84L298.679,279.971z"/>
		<path fill="#3C2517" d="M320.204,353.105c-3.906,0-8.832-3.338-12.28-6.146c-3.769-3.064-4.877-3.395-5.181-3.395
			c-0.109,0-0.335,0.055-0.592,0.119c-0.582,0.141-1.382,0.338-2.479,0.338l0,0c-1.617,0-3.438-0.422-5.741-1.318
			c-11.269-4.391-9.219-12.02-9.127-12.346c0.094-0.318,0.237-0.607,0.436-0.869c0.095-0.127,9.546-12.748,15.703-23.793
			c5.424-9.719-4.368-24.049-4.471-24.193c-0.522-0.754-0.625-1.729-0.266-2.58l6.434-15.178c0.348-0.82,1.083-1.418,1.959-1.584
			c0.891-0.18,1.785,0.105,2.413,0.74c0.364,0.367,8.985,9.205,10.908,24.393c0.522,4.096,0.974,6.963,1.344,8.551
			c0.148-0.063,0.297-0.125,0.456-0.184c4.473-1.672,17.196-10.566,21.725-13.852c0.802-0.582,1.855-0.67,2.741-0.244
			c12.651,6.123,19.374,10.815,19.984,13.955c0.211,1.104-0.088,2.201-0.826,3.012c-3.226,3.568-20.326,9.301-29.047,10.348
			c-5.007,0.598-7.894,7.475-10.44,13.539c-1.054,2.504-2.048,4.871-3.166,6.711c-2.533,4.172,0.424,10.107,2.584,14.436
			c0.342,0.685,0.658,1.318,0.936,1.912c1.28,2.726,0.761,4.545,0.099,5.59C323.826,351.828,322.647,353.105,320.204,353.105z
			 M302.743,338.199c2.178,0,4.337,1.164,8.563,4.602c3.646,2.965,6.383,4.369,7.978,4.799c-0.244-0.508-0.521-1.059-0.81-1.637
			c-2.564-5.146-6.437-12.916-2.367-19.617c0.909-1.5,1.832-3.688,2.803-6.006c2.961-7.047,6.642-15.818,14.75-16.785
			c8.04-0.969,20.211-5.385,24.396-7.719c-2.453-2.09-8.814-5.771-14.775-8.74c-4.234,3.035-16.497,11.652-21.675,13.586
			c-0.311,0.121-0.594,0.269-0.848,0.396c-0.693,0.354-1.484,0.764-2.494,0.764h-0.005c-3.896,0-4.483-4.637-5.66-13.873
			c-1.048-8.258-4.386-14.438-6.789-17.959l-4.106,9.701c2.594,4.199,9.948,17.812,3.924,28.601
			c-5.66,10.16-13.742,21.227-15.679,23.844c0.021,0.873,0.563,3.463,5.932,5.553c1.619,0.629,2.895,0.953,3.794,0.953
			c0.455,0,0.771-0.078,1.206-0.184C301.374,338.354,301.992,338.199,302.743,338.199z"/>
	</g>
	<g>
		<path fill="#EFDAAC" d="M309.247,242.853c0,0-22.233-5.686-17.072,8.971c-9.38-0.236-9.5,14.359,4.195,21.41
			c0,0-1.573,10.86,16.413,12.252c0,0,10.086,11.127,22.084,2.516c24.988,9.963,26.326-6.605,26.326-6.605
			s21.073-9.455,5.057-19.983c1.43-8.738-0.596-24.551-19.311-14.42c-0.752-14.33-11.3-16.311-22.72-9.94
			C316.803,228.61,308.121,224.933,309.247,242.853z"/>
		<path fill="#3C2517" d="M325.448,293.953c-6.828,0-11.966-4.109-13.864-5.881c-7.115-0.705-12.235-2.961-15.234-6.707
			c-1.938-2.426-2.521-4.889-2.66-6.547c-8.674-5.111-11.886-13.221-10.51-18.892c0.76-3.137,2.834-5.377,5.672-6.31
			c-0.386-2.569,0.045-4.753,1.291-6.51c1.892-2.669,5.428-4.024,10.517-4.024c2.103,0,4.168,0.233,5.812,0.491
			c0.038-4.887,0.975-8.247,2.826-10.224c1.218-1.294,2.809-1.983,4.602-1.983c3.818,0,7.835,3.173,10.901,6.356
			c3.789-1.839,7.474-2.802,10.759-2.802c7.137,0,12.027,4.425,13.576,12.033c7.284-3.077,13.035-2.354,16.562,1.8
			c3.332,3.92,3.974,10.232,3.427,15.396c4.143,3.103,6.087,6.545,5.791,10.248c-0.522,6.531-8.078,11.127-11.3,12.802
			c-1.018,4.381-4.986,10.67-14.932,10.67c-3.867,0-8.398-0.961-13.478-2.867C332.084,292.964,328.805,293.953,325.448,293.953z
			 M292.098,254.505c-2.078,0-3.274,0.906-3.705,2.687c-0.932,3.842,1.977,9.936,9.207,13.66c1.016,0.522,1.588,1.633,1.422,2.77
			c-0.005,0.051-0.229,2.285,1.596,4.486c2.167,2.619,6.442,4.248,12.376,4.707c0.681,0.053,1.319,0.362,1.782,0.873
			c0.034,0.041,4.58,4.901,10.674,4.901c2.654,0,5.298-0.932,7.854-2.766c0.749-0.535,1.712-0.652,2.561-0.312
			c4.99,1.988,9.302,2.996,12.819,2.996c8.857,0,9.769-6.598,9.843-7.348c0.092-0.955,0.694-1.813,1.569-2.211
			c2.357-1.062,9.158-5,9.474-8.979c0.192-2.488-2.499-4.811-4.793-6.316c-0.882-0.582-1.346-1.629-1.172-2.672
			c0.709-4.35,0.366-9.977-1.994-12.753c-2.407-2.838-7.008-2.332-13.394,1.126c-0.811,0.437-1.785,0.431-2.59-0.019
			c-0.801-0.452-1.315-1.28-1.369-2.202c-0.378-7.195-3.303-10.848-8.699-10.848c-2.913,0-6.387,1.073-10.031,3.108
			c-1.107,0.611-2.488,0.374-3.32-0.574c-3.949-4.489-6.945-6.084-8.308-6.084c-0.308,0-0.487,0.073-0.691,0.289
			c-0.417,0.441-1.736,2.449-1.281,9.658c0.054,0.857-0.307,1.684-0.967,2.234c-0.66,0.548-1.532,0.745-2.375,0.537
			c-0.039-0.012-3.988-1.007-7.926-1.007c-3.109,0-5.347,0.643-6.138,1.758c-0.818,1.154-0.354,3.208,0.185,4.727
			c0.292,0.832,0.155,1.758-0.364,2.469c-0.518,0.717-1.326,1.188-2.236,1.104h-0.008V254.505z"/>
	</g>
	<g>
		<path fill="#F2E6C7" d="M343.496,295.395c0,0-9.482,6.258,3.596,12.114c9.694,14.699,21.887,7.406,21.887,7.406
			s24.709,6.112,22.268-10.49c15.146-2.625,22.936-11.166,7.259-22.489c9.662-11.162,2.704-14.427-8.268-16.275
			c0,0-10.357-19.611-23.634-9.215c-15.594-11.348-18.071,6.49-18.071,6.49s-14.196-1.427-11.138,9.26
			c-10.24-1.805-7.891,9.461-3.026,13.408C334.367,285.604,330.884,294.718,343.496,295.395z"/>
		<path fill="#3C2517" d="M361.722,319.41L361.722,319.41c-4.445-0.004-10.851-1.719-16.437-9.779
			c-4.889-2.336-7.499-5.189-7.771-8.494c-0.12-1.475,0.247-2.787,0.814-3.902c-2.562-0.803-4.464-2.146-5.686-4.02
			c-1.582-2.436-1.539-5.055-1.253-6.752c-2.894-3.189-4.811-8.434-3.381-12.461c0.945-2.674,3.201-4.32,6.265-4.629
			c0.004-1.91,0.544-3.59,1.615-5.014c2.464-3.267,6.945-4.088,10.479-4.162c1.253-4.57,4.531-10.212,11.088-10.212
			c2.764,0,5.822,1.072,9.122,3.195c2.562-1.629,5.22-2.453,7.92-2.453c8.998,0,15.403,9.178,17.432,12.508
			c6.123,1.119,11.78,2.897,13.421,7.451c1.353,3.758-0.688,7.68-3.03,10.803c5.856,4.811,8.284,9.562,7.224,14.158
			c-1.189,5.145-6.639,8.987-15.446,10.949c0.007,3.008-0.854,5.526-2.571,7.518c-2.629,3.043-7.059,4.588-13.17,4.588
			c-3.837,0-7.361-0.619-9.021-0.961C367.916,318.389,365.146,319.41,361.722,319.41z M336.872,286.562c0,0-0.763,2.174,0.289,3.756
			c0.925,1.389,3.162,2.221,6.479,2.395c1.158,0.064,2.145,0.861,2.446,1.98c0.304,1.115-0.145,2.301-1.111,2.938
			c-0.724,0.492-2.217,1.906-2.109,3.078c0.042,0.481,0.55,2.211,5.325,4.351c0.463,0.209,0.86,0.547,1.14,0.973
			c3.504,5.312,7.675,8.01,12.393,8.012c3.396,0,5.855-1.416,5.881-1.428c0.606-0.363,1.334-0.471,2.019-0.303
			c0.042,0.01,4.214,1.022,8.734,1.022c3.081,0,7.164-0.478,9.11-2.729c1.139-1.314,1.508-3.215,1.126-5.795
			c-0.211-1.437,0.763-2.783,2.194-3.031c7.605-1.318,12.79-4.131,13.53-7.342c0.639-2.765-1.982-6.433-7.387-10.33
			c-0.605-0.441-1.006-1.115-1.091-1.861c-0.088-0.75,0.146-1.498,0.637-2.066c4.198-4.854,4.071-6.986,3.824-7.678
			c-0.617-1.717-4.152-3.127-10.509-4.197c-0.823-0.141-1.532-0.656-1.928-1.389c-1.599-3.012-7.124-10.828-13.366-10.828
			c-2.051,0-4.146,0.83-6.24,2.467c-0.944,0.738-2.266,0.766-3.23,0.057c-2.938-2.137-5.552-3.264-7.57-3.264
			c-5.103,0-6.257,7.875-6.271,7.957c-0.198,1.422-1.524,2.416-2.924,2.299c-0.049-0.004-0.561-0.051-1.325-0.051
			c-3.274,0-5.803,0.76-6.763,2.033c-0.632,0.836-0.697,2.141-0.205,3.869c0.259,0.895,0.035,1.848-0.581,2.535
			c-0.617,0.688-1.549,1.018-2.461,0.846c-0.577-0.102-1.114-0.15-1.587-0.15c-1.881,0-2.146,0.748-2.272,1.107
			c-0.709,2.002,0.826,5.973,2.989,7.727C336.957,284.25,337.288,285.479,336.872,286.562L336.872,286.562z"/>
	</g>
</g>
</svg>
