<?xml version="1.0" encoding="utf-8"?>
<!-- Generator: Adobe Illustrator 16.0.0, SVG Export Plug-In . SVG Version: 6.00 Build 0)  -->
<!DOCTYPE svg PUBLIC "-//W3C//DTD SVG 1.1//EN" "http://www.w3.org/Graphics/SVG/1.1/DTD/svg11.dtd">
<svg version="1.1" id="Layer_1" xmlns="http://www.w3.org/2000/svg" xmlns:xlink="http://www.w3.org/1999/xlink" x="0px" y="0px"
	 width="500px" height="500px" viewBox="0 0 500 500" enable-background="new 0 0 500 500" xml:space="preserve">
<g id="Layer_1_copy_52">
	<g>
		<path fill="#4E4E4E" d="M455.478,259.918c0,53.57-94.59,96.991-211.27,96.991c-116.684,0-211.27-43.421-211.27-96.991
			c0-53.568,94.586-96.996,211.27-96.996C360.888,162.922,455.478,206.351,455.478,259.918z"/>
		<path fill="#211010" d="M244.208,360.443c-56.931,0-110.51-10.202-150.865-28.731c-41.233-18.926-63.938-44.421-63.938-71.793
			c0-27.368,22.705-52.869,63.938-71.798c40.355-18.529,93.935-28.732,150.865-28.732c56.928,0,110.508,10.203,150.866,28.732
			c41.229,18.929,63.938,44.43,63.938,71.798c0,27.372-22.708,52.867-63.938,71.793
			C354.716,350.241,301.136,360.443,244.208,360.443z M244.208,166.456c-114.547,0-207.735,41.928-207.735,93.462
			c0,51.536,93.188,93.458,207.735,93.458c114.545,0,207.736-41.922,207.736-93.458
			C451.944,208.384,358.753,166.456,244.208,166.456z"/>
	</g>
	<g>
		<path fill="#818181" d="M226.89,133.186c81.358-3.875,153.771,13.214,201.431,47.225c26.894,19.192,58.325,57.904,38.551,104.089
			c-3.747,8.751-8.761,18.407-15.421,26.021c-63.069,72.102-240.6,87.893-345.998,42.401
			c-36.187-15.616-66.567-36.446-79.994-66.498C1.651,233.148,43.703,192.151,76.537,172.7
			c25.046-14.833,56.083-26.919,91.562-33.733C185.966,135.536,206.401,134.161,226.89,133.186z M169.06,177.518
			c-35.423,7.092-65.263,18.275-89.63,37.588c-9.416,7.466-24.131,24.479-24.094,40.477c0.044,18.862,14.7,32.019,26.985,41.444
			c63.722,48.888,195.248,58.125,282.388,25.062c26.679-10.129,72.284-33.05,72.284-66.507c0-19.259-15.383-33.917-29.878-44.331
			c-44.225-31.78-109.416-43.807-179.263-40.48C206.366,171.795,187.412,173.847,169.06,177.518z"/>
		<path fill="#27140E" d="M245.384,382.047c-52.479,0-102.672-9.189-141.33-25.874c-42.768-18.461-69.533-40.799-81.819-68.302
			c-11.122-24.887-9.608-49.385,4.494-72.814c13.805-22.931,36.004-38.286,48.008-45.398c26.749-15.841,58.8-27.654,92.694-34.162
			c18.367-3.527,39.348-4.893,59.289-5.842c7.586-0.361,15.218-0.546,22.686-0.546c72.938,0,137.208,17.198,180.966,48.423
			c31.896,22.763,59.094,63.18,39.75,108.358c-4.889,11.414-10.125,20.23-16.012,26.961
			C416.775,355.532,336.798,382.047,245.384,382.047z M249.405,136.18c-7.359,0-14.877,0.179-22.351,0.538
			c-19.678,0.936-40.358,2.277-58.289,5.722c-33.102,6.355-64.375,17.872-90.428,33.302c-72.24,42.796-56.266,94.434-49.649,109.244
			c11.531,25.808,37.098,46.97,78.162,64.695c37.801,16.312,86.995,25.299,138.533,25.299c89.436,0,167.374-25.59,203.408-66.781
			c5.389-6.163,10.237-14.366,14.828-25.09c17.695-41.32-7.696-78.656-37.354-99.82C383.698,152.91,320.884,136.18,249.405,136.18z
			 M247.357,345.166h-0.004c-67.686,0-130.184-16.945-167.181-45.334c-14.005-10.744-28.326-24.395-28.371-44.238
			c-0.044-18.231,16.619-36.267,25.432-43.256c23.079-18.292,52.039-30.458,91.137-38.284c17.836-3.569,36.687-5.733,59.315-6.81
			c7.509-0.358,15.029-0.541,22.344-0.541c66.176,0,121.206,14.412,159.147,41.678c21.098,15.159,31.352,30.599,31.352,47.203
			c0,37.464-52.145,61.297-74.564,69.812C331.868,338.327,290.854,345.166,247.357,345.166z M250.029,173.771
			c-7.207,0-14.608,0.179-22.008,0.532c-22.27,1.059-40.785,3.182-58.266,6.681c-37.96,7.599-65.962,19.321-88.131,36.891
			c-9.165,7.267-22.788,23.304-22.755,37.7c0.037,16.778,12.964,28.95,25.604,38.647c35.803,27.476,96.694,43.873,162.879,43.873
			c42.041,0,83.275-6.857,116.103-19.311c63.182-23.982,70.003-52.189,70.003-63.203c0-14.164-9.292-27.727-28.404-41.46
			C368.321,187.725,314.712,173.771,250.029,173.771z"/>
	</g>
	<g>
		<g>
			<path fill="#EFAF68" d="M219.064,166.332c0,0,12.596,3.027,15.305,3.345c2.707,0.319,27.576,9.089,28.375,39.534
				c0.794,30.449-56.435,39.693-56.435,39.693s-22.634,8.61-41.926-0.635c-19.286-9.247-51.012-11.64-50.691-42.084
				c0.318-30.449,30.445-38.1,30.445-38.1S177.936,157.88,219.064,166.332z"/>
			<path fill="#B2834C" d="M184.72,254.907c-7.924,0-15.106-1.521-21.354-4.517c-4.166-1.994-8.923-3.659-13.957-5.423
				c-17.972-6.298-38.342-13.434-38.071-38.81c0.331-31.892,31.901-40.277,32.219-40.356c0.605-0.185,17.417-5.177,41.927-5.177
				c11.626,0,23.08,1.144,34.053,3.399c3.541,0.85,12.999,3.065,15.104,3.313c4.582,0.541,29.639,10.547,30.458,41.813
				c0.821,31.449-53.583,41.271-58.185,42.041C205.319,251.771,196.13,254.907,184.72,254.907z M185.483,165.336
				c-23.766,0-40.497,4.953-40.663,5.004c-1.257,0.324-28.476,7.644-28.772,35.866c-0.229,21.999,17.637,28.256,34.918,34.311
				c5.159,1.808,10.039,3.517,14.438,5.625c5.604,2.686,12.102,4.051,19.315,4.051c11.444,0,20.661-3.457,20.756-3.49
				c0.147-0.058,0.3-0.102,0.459-0.125c0.554-0.091,55.188-9.268,54.451-37.306c-0.791-30.214-26.043-37.223-26.3-37.258
				c-2.765-0.323-14.269-3.08-15.572-3.393C207.928,166.448,196.788,165.336,185.483,165.336z"/>
		</g>
		<g>
			<path fill="#E8EED3" d="M173.154,228.658c0,0,0.128,0,0.357,0.017c1.119,0.073,4.589,0.521,6.177,3.173
				c1.912,3.189,16.259,6.538,22.955,3.027c6.697-3.507,18.812-7.33,23.114-7.971c4.307-0.636,21.681-8.767,18.971-15.143
				c-2.71-6.377,5.737-11.795,2.23-13.868c-3.504-2.075-7.812-6.855-7.812-8.292c0-1.433-0.476-9.724-4.459-10.202
				c-3.987-0.478-8.608-14.984-25.827-11.955c-17.218,3.031-42.244-3.382-45.751-0.414c-3.503,2.965-8.927,3.124-12.593,9.183
				c-3.669,6.059-5.581,3.027-10.203,4.622c-4.622,1.595-19.131,7.97-16.42,13.392c2.709,5.421,5.102,4.941,3.669,6.217
				c-1.437,1.275-19.13,19.128,3.983,20.084c6.379,0.156,10.524-2.869,10.524-2.869s-4.626,3.667,4.777,4.622
				c9.406,0.958,12.913,1.117,18.333,3.349c5.419,2.232,8.102,3.027,8.102,3.027"/>
		</g>
		<g>
			<path fill="#5C7A36" d="M188.22,170.795c0,0,2.471-7.016,11.715-6.217c9.243,0.795,13.548-4.943,16.42,1.273
				c2.868,6.217,3.345,11.478-3.348,9.563c-6.697-1.913-11.796-2.391-12.755-0.318c-0.953,2.072-4.461-2.711-5.576-0.64
				c-1.12,2.076,4.778,4.784,0,9.569c-4.783,4.78-15.305,15.94-17.858,10.52c-2.548-5.42-3.663-1.593-3.346-5.42
				c0.318-3.826-0.477-4.146-2.709-4.941c-2.233-0.798-3.189-5.58,1.749-7.812c4.947-2.233,3.987-9.406,10.046-6.056
				C188.615,173.662,188.22,170.795,188.22,170.795z"/>
		</g>
		<g>
			<path fill="#5C7A36" d="M216.672,210.486c0,0,4.146-4.781,4.939,3.509c0.802,8.288-1.912,10.52,2.872,8.288
				c4.785-2.231,10.521-4.144,10.042-0.636c-0.477,3.507-10.995,9.722-16.178,12.276c-5.183,2.548-10.92-1.753-10.443-8.132
				C208.384,219.414,206.472,207.458,216.672,210.486z"/>
		</g>
		<g>
			<path fill="#5C7A36" d="M150.834,199.008c7.097,3.755,12.755,4.624,9.887,7.015c-2.872,2.392-6.062,9.884-9.887,9.565
				c-3.824-0.318-8.926-0.159-9.243-3.029c-0.321-2.869-2.233-5.259,2.868-6.695C149.558,204.43,145.415,196.14,150.834,199.008z"/>
		</g>
		<g>
			<path fill="#F0502A" d="M220.179,179.719c3.724,4.899,7.494,5.102,0,12.276c-7.493,7.173-11.318,1.274-9.883-1.116
				C211.732,188.489,217.945,176.782,220.179,179.719z"/>
		</g>
		<g>
			<path fill="#F0502A" d="M191.324,207.765c6.447-0.448,2.711,7.343-1.753,8.938C185.107,218.298,184.628,208.231,191.324,207.765z
				"/>
		</g>
		<g>
			<path fill="#F0502A" d="M154.504,203.952c4.886,2.348-0.801,8.607-3.189,5.58C148.923,206.5,146.213,199.966,154.504,203.952z"/>
		</g>
		<g>
			<path fill="#F0502A" d="M159.923,178.287c3.568,4.833-2.713,6.057-7.973,7.649C146.693,187.531,154.98,171.59,159.923,178.287z"
				/>
		</g>
		<g>
			<g>
				<path fill="#ECBF1D" d="M209.231,212.131c-3.412,0-15.562-0.973-24.441-14.043c-4.618-6.792-6.297-12.063-5-15.67
					c0.963-2.669,3.146-3.369,3.393-3.439c0.933-0.275,1.919,0.267,2.189,1.206c0.27,0.938-0.271,1.917-1.207,2.188
					c-0.03,0.013-0.743,0.297-1.08,1.338c-0.457,1.412-0.464,4.897,4.625,12.391c9.021,13.272,21.624,12.517,22.157,12.478
					c0.96-0.073,1.818,0.657,1.893,1.628c0.073,0.972-0.652,1.819-1.622,1.896C210.057,212.109,209.742,212.131,209.231,212.131z"/>
			</g>
			<g>
				<path fill="#ECBF1D" d="M180.966,186.785c-4.312,0-10.439-1.1-12.359-6.986c-0.304-0.928,0.202-1.926,1.129-2.228
					c0.926-0.308,1.926,0.203,2.229,1.132c2.034,6.235,12.701,4.247,12.806,4.225c0.956-0.186,1.885,0.438,2.074,1.397
					c0.183,0.958-0.438,1.884-1.396,2.071C185.247,186.436,183.392,186.785,180.966,186.785z"/>
			</g>
			<g>
				<path fill="#ECBF1D" d="M201.995,174.243c-1.173,0-2.419-0.15-3.73-0.451c-0.953-0.218-1.547-1.164-1.331-2.115
					c0.216-0.951,1.162-1.551,2.115-1.33c2.953,0.672,5.335,0.396,7.088-0.825c2.696-1.872,3.197-5.453,3.204-5.489
					c0.125-0.963,0.996-1.655,1.973-1.525c0.966,0.124,1.648,0.999,1.534,1.965c-0.027,0.209-0.676,5.134-4.656,7.928
					C206.441,173.628,204.369,174.243,201.995,174.243z"/>
			</g>
			<g>
				<path fill="#ECBF1D" d="M183.517,171.125c-0.104,0-0.21-0.008-0.314-0.026c-0.959-0.173-1.602-1.093-1.426-2.053
					c0.575-3.206,1.879-5.232,3.872-6.021c2.831-1.117,5.616,0.86,5.923,1.089c0.784,0.583,0.946,1.689,0.361,2.472
					c-0.581,0.778-1.683,0.942-2.466,0.368c-0.382-0.277-1.662-0.985-2.527-0.638c-0.75,0.302-1.352,1.494-1.686,3.355
					C185.102,170.526,184.358,171.125,183.517,171.125z"/>
			</g>
			<g>
				<path fill="#ECBF1D" d="M175.337,181.374c-3.342,0-6.507-0.551-8.768-2.112c-0.801-0.554-1.003-1.654-0.449-2.458
					c0.554-0.803,1.655-1.003,2.459-0.45c4.883,3.376,17.785,0.137,22.344-1.396c0.926-0.306,1.926,0.189,2.236,1.114
					c0.312,0.924-0.186,1.926-1.111,2.237C190.777,178.736,182.642,181.374,175.337,181.374z"/>
			</g>
			<g>
				<path fill="#ECBF1D" d="M163.903,186.777c-0.838,0-1.584-0.601-1.736-1.458c-3.143-17.581,8.933-20.125,9.055-20.149
					c0.963-0.189,1.886,0.441,2.075,1.399c0.182,0.955-0.439,1.878-1.393,2.069c-0.393,0.083-8.758,2.052-6.258,16.061
					c0.169,0.959-0.47,1.878-1.432,2.049C164.112,186.768,164.008,186.777,163.903,186.777z"/>
			</g>
			<g>
				<path fill="#ECBF1D" d="M170.282,214.078c-0.437,0-0.871-0.161-1.217-0.486c-3.933-3.735-3.11-7.29-1.979-12.208
					c0.499-2.153,1.061-4.596,1.445-7.691c0.114-0.97,0.994-1.665,1.967-1.538c0.973,0.118,1.658,1,1.541,1.97
					c-0.406,3.277-1.018,5.926-1.507,8.053c-1.163,5.049-1.396,6.605,0.969,8.853c0.707,0.672,0.737,1.791,0.064,2.498
					C171.218,213.893,170.753,214.078,170.282,214.078z"/>
			</g>
			<g>
				<path fill="#ECBF1D" d="M215.077,207.631c-0.21,0-0.419-0.037-0.629-0.115c-0.912-0.346-1.368-1.367-1.022-2.278
					c0.057-0.147,5.456-14.74-2.39-20.245c-0.805-0.559-0.993-1.663-0.433-2.46c0.558-0.801,1.663-0.992,2.46-0.433
					c10.096,7.082,3.934,23.688,3.666,24.391C216.463,207.196,215.79,207.631,215.077,207.631z"/>
			</g>
			<g>
				<path fill="#ECBF1D" d="M203.339,186.816c-1.026,0-2.007-0.166-2.945-0.5c-2.676-0.949-4.291-3.134-4.683-4.29
					c-0.314-0.924,0.179-1.925,1.102-2.24c0.926-0.319,1.926,0.179,2.242,1.105l0,0c0,0,0.768,1.544,2.681,2.147
					c1.949,0.617,4.483-0.003,7.321-1.786c9.234-5.801,23.671-1.005,24.285-0.799c0.923,0.314,1.42,1.318,1.102,2.24
					c-0.31,0.924-1.311,1.419-2.236,1.108c-0.135-0.044-13.46-4.463-21.27,0.444C208.212,185.958,205.671,186.816,203.339,186.816z"
					/>
			</g>
			<g>
				<path fill="#ECBF1D" d="M229.269,195.675c-0.745,0-1.437-0.473-1.681-1.216c-1.463-4.448-6.743-16.407-13.511-18.299
					c-0.939-0.264-1.489-1.238-1.227-2.179c0.261-0.939,1.233-1.494,2.179-1.225c9.968,2.787,15.678,19.875,15.915,20.6
					c0.307,0.928-0.197,1.926-1.126,2.229C229.633,195.646,229.45,195.675,229.269,195.675z"/>
			</g>
			<g>
				<path fill="#ECBF1D" d="M201.528,183.11c-0.432,0-0.865-0.157-1.206-0.474c-0.712-0.664-0.754-1.782-0.091-2.499
					c4.865-5.235,1.798-9.713,1.767-9.759c-0.564-0.797-0.375-1.899,0.423-2.463c0.79-0.564,1.898-0.374,2.462,0.422
					c1.666,2.355,3.376,8.354-2.063,14.208C202.475,182.919,202.002,183.11,201.528,183.11z"/>
			</g>
			<g>
				<path fill="#ECBF1D" d="M204.759,204.465c-0.963,0-1.751-0.771-1.771-1.735c0-0.214-0.534-21.369-14.67-26.616
					c-0.912-0.339-1.379-1.356-1.041-2.272c0.338-0.916,1.352-1.38,2.271-1.041c16.407,6.092,16.961,28.901,16.975,29.869
					c0.017,0.975-0.76,1.779-1.737,1.794C204.778,204.465,204.766,204.465,204.759,204.465z"/>
			</g>
			<g>
				<path fill="#ECBF1D" d="M195.403,194.017c-1.977,0-3.937-0.283-5.623-1.054c-0.888-0.407-1.276-1.457-0.867-2.343
					c0.404-0.887,1.456-1.275,2.338-0.87c4.014,1.833,11.314-0.212,13.791-1.157c0.905-0.346,1.933,0.108,2.281,1.021
					c0.348,0.911-0.108,1.933-1.021,2.281C205.999,192.009,200.663,194.017,195.403,194.017z"/>
			</g>
			<g>
				<path fill="#ECBF1D" d="M150.268,177.724c-0.149,0-0.298-0.017-0.446-0.055c-0.946-0.243-1.514-1.208-1.271-2.154
					c1.595-6.149,11.082-7.742,12.157-7.903c0.963-0.148,1.864,0.519,2.006,1.483c0.149,0.964-0.517,1.863-1.479,2.01
					c-2.132,0.326-8.406,1.994-9.258,5.296C151.767,177.198,151.051,177.724,150.268,177.724z"/>
			</g>
			<g>
				<path fill="#ECBF1D" d="M148.898,185.312c-0.368,0-0.739-0.115-1.058-0.351c-0.777-0.585-0.938-1.691-0.358-2.474
					c0.055-0.071,5.258-7.165,1.501-11.116c-0.673-0.706-0.642-1.827,0.064-2.499c0.706-0.674,1.82-0.645,2.496,0.064
					c5.812,6.111-0.939,15.282-1.229,15.668C149.966,185.068,149.437,185.312,148.898,185.312z"/>
			</g>
			<g>
				<path fill="#ECBF1D" d="M159.606,175.27c-0.636,0-1.247-0.34-1.565-0.94c-0.455-0.861-0.128-1.93,0.733-2.388
					c8.612-4.568,16.799-0.178,17.144,0.012c0.851,0.47,1.169,1.544,0.696,2.4c-0.47,0.853-1.541,1.164-2.393,0.701l0,0
					c-0.283-0.15-6.899-3.646-13.792,0.008C160.167,175.204,159.883,175.27,159.606,175.27z"/>
			</g>
		</g>
	</g>
	<g>
		<g>
			<path fill="#EFAF68" d="M295.18,168.772c0,0-11.479,2.761-13.953,3.049c-2.468,0.292-25.139,8.286-25.867,36.044
				c-0.728,27.756,51.446,36.183,51.446,36.183s20.638,7.853,38.224-0.575c17.583-8.43,46.505-10.612,46.214-38.37
				c-0.29-27.758-27.756-34.733-27.756-34.733S332.672,161.067,295.18,168.772z"/>
			<path fill="#B2834C" d="M326.492,249.731L326.492,249.731c-10.39,0-18.771-2.845-20.292-3.396
				c-4.334-0.726-53.951-9.73-53.201-38.531c0.754-28.645,23.75-37.824,27.952-38.323c1.913-0.223,10.521-2.242,13.678-3
				c10.092-2.077,20.552-3.119,31.162-3.119c22.373,0,37.732,4.558,38.374,4.752c0.192,0.045,29.129,7.729,29.433,36.964
				c0.243,23.284-18.396,29.815-34.845,35.58c-4.585,1.604-8.92,3.122-12.704,4.936
				C340.325,248.339,333.747,249.731,326.492,249.731z M325.791,168.075c-10.292,0-20.432,1.012-30.139,3.006
				c-1.112,0.268-11.613,2.786-14.153,3.081c-0.216,0.032-23.073,6.551-23.786,33.765c-0.662,25.377,48.968,33.716,49.471,33.797
				c0.156,0.023,0.312,0.068,0.456,0.125c0.089,0.03,8.504,3.169,18.854,3.169c6.542,0,12.438-1.236,17.52-3.669
				c4.021-1.929,8.471-3.487,13.185-5.139c15.685-5.494,31.897-11.177,31.688-31.081c-0.269-25.565-24.933-32.206-25.982-32.476
				C362.655,172.582,347.424,168.075,325.791,168.075z"/>
		</g>
		<g>
			<path fill="#E8EED3" d="M337.035,225.594c0,0-0.119,0-0.324,0.015c-1.023,0.066-4.184,0.475-5.636,2.894
				c-1.74,2.905-14.82,5.956-20.925,2.76c-6.105-3.198-17.154-6.685-21.076-7.268c-3.924-0.581-19.764-7.994-17.292-13.807
				c2.469-5.813-5.229-10.752-2.035-12.642c3.196-1.89,7.119-6.25,7.119-7.56c0-1.306,0.437-8.864,4.071-9.3
				c3.633-0.438,7.85-13.66,23.543-10.9c15.693,2.762,38.515-3.084,41.71-0.378c3.195,2.705,8.14,2.85,11.479,8.372
				c3.342,5.522,5.09,2.76,9.305,4.213c4.211,1.455,17.437,7.268,14.963,12.209c-2.468,4.943-4.646,4.507-3.34,5.669
				c1.306,1.161,17.438,17.438-3.631,18.311c-5.814,0.141-9.596-2.617-9.596-2.617s4.217,3.342-4.359,4.215
				c-8.575,0.872-11.771,1.017-16.711,3.051c-4.938,2.036-7.386,2.76-7.386,2.76"/>
		</g>
		<g>
			<path fill="#5C7A36" d="M323.297,172.84c0,0-2.247-6.394-10.677-5.666c-8.427,0.725-12.354-4.507-14.968,1.162
				c-2.623,5.668-3.055,10.462,3.052,8.717c6.102-1.742,10.754-2.179,11.626-0.289c0.868,1.887,4.067-2.472,5.085-0.585
				c1.02,1.894-4.359,4.362,0,8.724c4.358,4.358,13.95,14.532,16.278,9.59c2.323-4.939,3.342-1.453,3.051-4.939
				c-0.29-3.489,0.436-3.781,2.47-4.507c2.033-0.727,2.909-5.087-1.598-7.121c-4.504-2.034-3.633-8.577-9.154-5.522
				C322.936,175.456,323.297,172.84,323.297,172.84z"/>
		</g>
		<g>
			<path fill="#5C7A36" d="M297.361,209.026c0,0-3.78-4.359-4.508,3.2c-0.729,7.556,1.744,9.59-2.617,7.556
				c-4.358-2.035-9.59-3.779-9.153-0.581c0.437,3.196,10.024,8.864,14.748,11.19c4.727,2.324,9.957-1.598,9.524-7.413
				C304.916,217.166,306.66,206.266,297.361,209.026z"/>
		</g>
		<g>
			<path fill="#5C7A36" d="M357.382,198.564c-6.471,3.423-11.627,4.213-9.015,6.394c2.618,2.181,5.525,9.011,9.015,8.719
				c3.489-0.291,8.14-0.146,8.429-2.761c0.291-2.615,2.034-4.796-2.614-6.104C358.544,203.505,362.324,195.947,357.382,198.564z"/>
		</g>
		<g>
			<path fill="#F0502A" d="M294.166,180.978c-3.396,4.467-6.836,4.651,0,11.192c6.828,6.542,10.314,1.162,9.007-1.019
				C301.862,188.974,296.2,178.3,294.166,180.978z"/>
		</g>
		<g>
			<path fill="#F0502A" d="M320.465,206.544c-5.872-0.407-2.466,6.697,1.604,8.149C326.135,216.148,326.567,206.97,320.465,206.544z
				"/>
		</g>
		<g>
			<path fill="#F0502A" d="M354.036,203.069c-4.457,2.141,0.729,7.847,2.909,5.087C359.125,205.395,361.598,199.436,354.036,203.069
				z"/>
		</g>
		<g>
			<path fill="#F0502A" d="M349.096,179.672c-3.253,4.408,2.475,5.521,7.27,6.976C361.162,188.101,353.601,173.567,349.096,179.672z
				"/>
		</g>
		<g>
			<g>
				<path fill="#ECBF1D" d="M304.136,210.682c-0.469,0-0.756-0.021-0.831-0.026c-0.973-0.076-1.698-0.927-1.621-1.9
					c0.073-0.973,0.915-1.719,1.896-1.624c0.52,0.036,11.902,0.692,20.053-11.307c4.599-6.763,4.605-9.888,4.202-11.149
					c-0.28-0.88-0.871-1.122-0.938-1.146c-0.891-0.332-1.396-1.319-1.1-2.223c0.297-0.902,1.225-1.413,2.136-1.156
					c0.229,0.067,2.294,0.728,3.195,3.234c1.204,3.338-0.334,8.191-4.574,14.427C318.418,209.79,307.275,210.682,304.136,210.682z"
					/>
			</g>
			<g>
				<path fill="#ECBF1D" d="M329.905,187.575c-2.228,0-3.928-0.319-4.111-0.356c-0.957-0.188-1.578-1.113-1.393-2.071
					c0.183-0.958,1.091-1.59,2.07-1.397c0.096,0.022,9.69,1.804,11.498-3.747c0.305-0.926,1.3-1.434,2.228-1.132
					c0.929,0.303,1.437,1.299,1.132,2.227C339.552,186.558,333.883,187.575,329.905,187.575z"/>
			</g>
			<g>
				<path fill="#ECBF1D" d="M310.738,176.142c-2.196,0-4.119-0.569-5.737-1.708c-3.686-2.586-4.284-7.143-4.308-7.335
					c-0.121-0.97,0.566-1.852,1.537-1.971c0.973-0.111,1.848,0.566,1.97,1.532c0.01,0.091,0.477,3.247,2.852,4.897
					c1.564,1.086,3.7,1.328,6.338,0.725c0.96-0.219,1.896,0.377,2.115,1.33c0.217,0.951-0.377,1.899-1.327,2.115
					C312.965,176.004,311.819,176.142,310.738,176.142z"/>
			</g>
			<g>
				<path fill="#ECBF1D" d="M327.587,173.3c-0.838,0-1.584-0.6-1.739-1.455c-0.291-1.624-0.82-2.696-1.449-2.944
					c-0.68-0.27-1.812,0.318-2.139,0.561c-0.788,0.584-1.893,0.419-2.474-0.361c-0.581-0.783-0.422-1.891,0.36-2.474
					c0.287-0.214,2.89-2.059,5.553-1.014c1.872,0.74,3.092,2.625,3.628,5.607c0.173,0.96-0.466,1.879-1.426,2.053
					C327.794,173.292,327.688,173.3,327.587,173.3z"/>
			</g>
			<g>
				<path fill="#ECBF1D" d="M335.045,182.639c-6.7,0-14.127-2.407-15.286-2.797c-0.925-0.313-1.422-1.314-1.11-2.238
					c0.311-0.924,1.317-1.419,2.235-1.112c4.138,1.389,15.833,4.332,20.236,1.291c0.803-0.558,1.901-0.353,2.456,0.451
					c0.554,0.803,0.352,1.904-0.453,2.456C341.035,182.132,338.118,182.639,335.045,182.639z"/>
			</g>
			<g>
				<path fill="#ECBF1D" d="M345.468,187.568c-0.104,0-0.21-0.009-0.313-0.027c-0.959-0.172-1.603-1.089-1.431-2.05
					c2.284-12.787-5.492-14.444-5.57-14.459c-0.959-0.184-1.584-1.111-1.398-2.071c0.188-0.959,1.132-1.573,2.071-1.399
					c0.11,0.022,11.268,2.374,8.379,18.551C347.053,186.968,346.306,187.568,345.468,187.568z"/>
			</g>
			<g>
				<path fill="#ECBF1D" d="M339.649,212.458c-0.468,0-0.934-0.184-1.28-0.549c-0.673-0.708-0.646-1.826,0.062-2.499
					c2.093-1.988,1.888-3.383,0.838-7.918c-0.448-1.944-1.006-4.364-1.375-7.362c-0.116-0.968,0.568-1.851,1.538-1.971
					c0.99-0.096,1.853,0.571,1.971,1.539c0.348,2.816,0.86,5.039,1.311,7c1.045,4.531,1.801,7.807-1.848,11.273
					C340.528,212.297,340.085,212.458,339.649,212.458z"/>
			</g>
			<g>
				<path fill="#ECBF1D" d="M298.812,206.58c-0.714,0-1.383-0.434-1.652-1.141c-0.243-0.645-5.898-15.893,3.397-22.419
					c0.806-0.564,1.902-0.365,2.465,0.431c0.558,0.799,0.363,1.902-0.434,2.461c-7.071,4.965-2.176,18.14-2.126,18.274
					c0.349,0.912-0.11,1.933-1.022,2.279C299.233,206.543,299.021,206.58,298.812,206.58z"/>
			</g>
			<g>
				<path fill="#ECBF1D" d="M309.512,187.604c-2.151,0-4.497-0.791-7.007-2.367c-7.056-4.429-19.138-0.429-19.259-0.388
					c-0.916,0.309-1.926-0.183-2.237-1.108c-0.313-0.922,0.183-1.926,1.104-2.24c0.559-0.189,13.793-4.582,22.27,0.744
					c2.538,1.593,4.791,2.15,6.528,1.62c1.686-0.523,2.371-1.892,2.374-1.905c0.376-0.87,1.389-1.34,2.277-0.994
					c0.882,0.342,1.357,1.269,1.059,2.166c-0.27,0.777-1.559,3.009-4.363,4.007C311.383,187.448,310.468,187.604,309.512,187.604z"
					/>
			</g>
			<g>
				<path fill="#ECBF1D" d="M285.878,195.68c-0.179,0-0.368-0.028-0.551-0.087c-0.927-0.304-1.433-1.303-1.129-2.23
					c0.22-0.665,5.446-16.319,14.616-18.883c0.948-0.262,1.916,0.289,2.18,1.225c0.264,0.941-0.287,1.916-1.228,2.179
					c-6.104,1.706-10.883,12.548-12.206,16.581C287.312,195.209,286.621,195.68,285.878,195.68z"/>
			</g>
			<g>
				<path fill="#ECBF1D" d="M311.167,184.225c-0.473,0-0.942-0.189-1.294-0.564c-5.027-5.409-3.437-10.965-1.892-13.148
					c0.561-0.797,1.665-0.988,2.459-0.422c0.795,0.561,0.986,1.654,0.433,2.451c-0.283,0.42-2.618,4.185,1.592,8.713
					c0.661,0.715,0.621,1.833-0.092,2.498C312.032,184.069,311.6,184.225,311.167,184.225z"/>
			</g>
			<g>
				<path fill="#ECBF1D" d="M308.225,203.696c-0.011,0-0.021,0-0.026,0c-0.978-0.017-1.757-0.819-1.74-1.795
					c0.015-0.887,0.521-21.786,15.576-27.376c0.915-0.338,1.93,0.126,2.27,1.041c0.339,0.916-0.128,1.933-1.043,2.272
					c-12.812,4.759-13.269,23.926-13.269,24.119C309.974,202.923,309.188,203.696,308.225,203.696z"/>
			</g>
			<g>
				<path fill="#ECBF1D" d="M316.752,194.167c-4.831,0-9.717-1.838-9.993-1.944c-0.913-0.348-1.369-1.371-1.021-2.281
					c0.349-0.909,1.361-1.372,2.28-1.022c2.243,0.855,8.849,2.708,12.446,1.061c0.883-0.405,1.938-0.02,2.346,0.87
					c0.405,0.887,0.018,1.936-0.871,2.343C320.385,193.907,318.569,194.167,316.752,194.167z"/>
			</g>
			<g>
				<path fill="#ECBF1D" d="M357.897,179.316c-0.783,0-1.504-0.527-1.705-1.325c-0.762-2.928-6.396-4.419-8.316-4.71
					c-0.963-0.148-1.624-1.047-1.479-2.012c0.146-0.964,1.033-1.63,2.008-1.483c0.993,0.148,9.729,1.617,11.207,7.32
					c0.246,0.944-0.321,1.909-1.269,2.154C358.195,179.297,358.047,179.316,357.897,179.316z"/>
			</g>
			<g>
				<path fill="#ECBF1D" d="M359.147,186.234c-0.536,0-1.07-0.243-1.415-0.707c-0.271-0.358-6.501-8.818-1.111-14.486
					c0.669-0.709,1.79-0.736,2.496-0.062c0.71,0.672,0.735,1.791,0.063,2.499c-3.301,3.47,1.332,9.866,1.375,9.929
					c0.588,0.782,0.43,1.888-0.352,2.475C359.888,186.119,359.517,186.234,359.147,186.234z"/>
			</g>
			<g>
				<path fill="#ECBF1D" d="M349.384,177.079c-0.276,0-0.561-0.066-0.824-0.207c-6.258-3.318-12.353-0.047-12.417-0.013
					c-0.854,0.469-1.93,0.158-2.398-0.697c-0.469-0.854-0.158-1.929,0.696-2.4c0.316-0.176,7.846-4.218,15.774-0.014
					c0.865,0.458,1.189,1.527,0.733,2.391C350.634,176.738,350.019,177.079,349.384,177.079z"/>
			</g>
		</g>
	</g>
	<g>
		<g>
			<path fill="#EFAF68" d="M387.827,234.591c0,0,12.595,3.027,15.305,3.345c2.706,0.321,27.577,9.089,28.374,39.537
				c0.798,30.447-56.431,39.691-56.431,39.691s-22.639,8.609-41.926-0.635c-19.29-9.252-51.017-11.645-50.691-42.088
				c0.317-30.448,30.445-38.098,30.445-38.098S346.701,226.14,387.827,234.591z"/>
			<path fill="#B2834C" d="M353.485,323.166c-7.925,0-15.109-1.521-21.357-4.516c-4.165-1.991-8.919-3.662-13.957-5.426
				c-17.971-6.298-38.337-13.434-38.069-38.81c0.334-31.888,31.903-40.273,32.222-40.354c0.604-0.186,17.417-5.177,41.923-5.177
				c11.627,0,23.084,1.142,34.055,3.399c3.543,0.848,13.001,3.068,15.105,3.312c4.582,0.541,29.639,10.551,30.456,41.817
				c0.82,31.447-53.583,41.268-58.182,42.037C374.082,320.029,364.896,323.166,353.485,323.166z M354.245,233.598
				c-23.815,0-40.493,4.954-40.658,5.001c-1.257,0.328-28.479,7.646-28.772,35.868c-0.233,22.001,17.634,28.258,34.914,34.312
				c5.16,1.805,10.038,3.514,14.438,5.621c5.605,2.689,12.106,4.056,19.319,4.056c11.396,0,20.664-3.46,20.756-3.493
				c0.145-0.055,0.304-0.102,0.455-0.122c0.555-0.095,55.188-9.271,54.455-37.308c-0.791-30.208-26.043-37.221-26.301-37.255
				c-2.765-0.325-14.271-3.082-15.574-3.396C376.69,234.709,365.554,233.598,354.245,233.598z"/>
		</g>
		<g>
			<path fill="#E8EED3" d="M341.92,296.92c0,0,0.128,0,0.353,0.014c1.125,0.073,4.589,0.521,6.183,3.176
				c1.91,3.189,16.259,6.535,22.952,3.027c6.696-3.508,18.812-7.332,23.117-7.975c4.301-0.637,21.678-8.764,18.968-15.143
				c-2.711-6.375,5.74-11.793,2.232-13.869c-3.508-2.07-7.812-6.852-7.812-8.287c0-1.437-0.478-9.724-4.464-10.204
				c-3.983-0.479-8.608-14.984-25.823-11.957c-17.217,3.03-42.247-3.382-45.755-0.413c-3.507,2.966-8.926,3.125-12.589,9.183
				c-3.668,6.059-5.581,3.027-10.206,4.622c-4.622,1.596-19.127,7.971-16.417,13.391c2.706,5.423,5.102,4.942,3.666,6.221
				c-1.435,1.271-19.127,19.124,3.981,20.084c6.379,0.154,10.525-2.872,10.525-2.872s-4.625,3.669,4.781,4.623
				c9.405,0.958,12.912,1.114,18.329,3.353c5.422,2.229,8.104,3.026,8.104,3.026"/>
		</g>
		<g>
			<path fill="#5C7A36" d="M356.985,239.055c0,0,2.467-7.015,11.711-6.217c9.247,0.797,13.549-4.943,16.421,1.273
				c2.871,6.217,3.345,11.478-3.346,9.562c-6.696-1.909-11.803-2.389-12.758-0.318c-0.953,2.071-4.461-2.709-5.578-0.639
				c-1.118,2.075,4.783,4.784,0,9.569c-4.78,4.779-15.299,15.941-17.854,10.517c-2.552-5.415-3.663-1.591-3.346-5.415
				c0.317-3.828-0.479-4.148-2.713-4.943c-2.229-0.799-3.189-5.581,1.754-7.812c4.942-2.233,3.985-9.406,10.041-6.058
				C357.382,241.923,356.985,239.055,356.985,239.055z"/>
		</g>
		<g>
			<path fill="#5C7A36" d="M385.435,278.749c0,0,4.146-4.785,4.942,3.507c0.802,8.286-1.915,10.521,2.872,8.286
				c4.781-2.231,10.519-4.144,10.042-0.636c-0.48,3.507-10.994,9.724-16.177,12.277c-5.188,2.547-10.924-1.757-10.448-8.137
				C377.146,287.676,375.237,275.716,385.435,278.749z"/>
		</g>
		<g>
			<path fill="#5C7A36" d="M319.6,267.27c7.098,3.754,12.752,4.623,9.885,7.012c-2.872,2.394-6.06,9.888-9.885,9.562
				c-3.831-0.316-8.929-0.154-9.247-3.027c-0.319-2.864-2.229-5.26,2.868-6.693C318.323,272.689,314.178,264.398,319.6,267.27z"/>
		</g>
		<g>
			<path fill="#F0502A" d="M388.94,247.981c3.725,4.899,7.497,5.099,0,12.274c-7.492,7.175-11.314,1.274-9.882-1.114
				C380.494,256.749,386.708,245.042,388.94,247.981z"/>
		</g>
		<g>
			<path fill="#F0502A" d="M360.091,276.025c6.443-0.446,2.706,7.347-1.757,8.939C353.874,286.561,353.395,276.492,360.091,276.025z
				"/>
		</g>
		<g>
			<path fill="#F0502A" d="M323.266,272.209c4.891,2.352-0.801,8.607-3.188,5.58C317.685,274.761,314.976,268.227,323.266,272.209z"
				/>
		</g>
		<g>
			<path fill="#F0502A" d="M328.682,246.545c3.571,4.835-2.709,6.059-7.97,7.653C315.455,255.793,323.746,239.852,328.682,246.545z"
				/>
		</g>
		<g>
			<g>
				<path fill="#ECBF1D" d="M377.995,280.391c-3.414,0-15.561-0.974-24.441-14.043c-4.616-6.793-6.299-12.062-4.998-15.671
					c0.963-2.669,3.146-3.369,3.394-3.439c0.938-0.274,1.915,0.267,2.188,1.206c0.271,0.936-0.271,1.916-1.21,2.189
					c-0.029,0.014-0.743,0.297-1.077,1.338c-0.461,1.413-0.467,4.896,4.625,12.391c9.019,13.272,21.635,12.51,22.15,12.476
					c1.003-0.047,1.818,0.663,1.896,1.629c0.073,0.974-0.651,1.817-1.621,1.899C378.822,280.371,378.504,280.391,377.995,280.391z"
					/>
			</g>
			<g>
				<path fill="#ECBF1D" d="M349.731,255.045c-4.314,0-10.446-1.102-12.366-6.987c-0.3-0.929,0.206-1.926,1.136-2.227
					c0.923-0.304,1.923,0.203,2.226,1.132c2.039,6.254,12.702,4.247,12.808,4.223c0.959-0.175,1.889,0.438,2.077,1.396
					c0.186,0.957-0.438,1.886-1.396,2.074C354.009,254.698,352.157,255.045,349.731,255.045z"/>
			</g>
			<g>
				<path fill="#ECBF1D" d="M370.761,242.501c-1.172,0-2.419-0.149-3.732-0.45c-0.95-0.216-1.544-1.166-1.328-2.115
					c0.22-0.953,1.166-1.541,2.114-1.332c2.96,0.676,5.336,0.402,7.09-0.821c2.691-1.872,3.195-5.454,3.198-5.491
					c0.13-0.966,1.027-1.662,1.978-1.524c0.966,0.122,1.647,0.997,1.53,1.963c-0.023,0.209-0.673,5.136-4.652,7.927
					C375.207,241.886,373.132,242.501,370.761,242.501z"/>
			</g>
			<g>
				<path fill="#ECBF1D" d="M352.279,239.385c-0.103,0-0.21-0.01-0.314-0.027c-0.963-0.172-1.598-1.094-1.426-2.054
					c0.578-3.207,1.882-5.23,3.872-6.018c2.834-1.118,5.619,0.858,5.926,1.088c0.784,0.582,0.943,1.689,0.361,2.474
					c-0.58,0.777-1.684,0.942-2.466,0.365c-0.386-0.277-1.655-0.976-2.526-0.638c-0.755,0.304-1.353,1.497-1.69,3.358
					C353.863,238.788,353.117,239.385,352.279,239.385z"/>
			</g>
			<g>
				<path fill="#ECBF1D" d="M344.096,249.633c-3.335,0-6.501-0.551-8.764-2.112c-0.801-0.554-1.004-1.655-0.449-2.457
					c0.55-0.801,1.654-1.01,2.456-0.453c4.889,3.375,17.789,0.139,22.347-1.392c0.927-0.308,1.927,0.186,2.237,1.111
					c0.311,0.922-0.187,1.926-1.112,2.236C359.544,246.995,351.407,249.633,344.096,249.633z"/>
			</g>
			<g>
				<path fill="#ECBF1D" d="M332.666,255.036c-0.838,0-1.585-0.599-1.737-1.456c-3.135-17.58,8.935-20.127,9.06-20.147
					c0.936-0.186,1.882,0.439,2.067,1.398c0.187,0.953-0.433,1.875-1.385,2.068c-0.389,0.081-8.762,2.047-6.262,16.059
					c0.172,0.964-0.469,1.883-1.429,2.051C332.872,255.029,332.771,255.036,332.666,255.036z"/>
			</g>
			<g>
				<path fill="#ECBF1D" d="M339.048,282.337c-0.438,0-0.878-0.162-1.22-0.485c-3.93-3.737-3.107-7.291-1.978-12.203
					c0.497-2.154,1.062-4.603,1.443-7.695c0.118-0.971,1-1.652,1.97-1.538c0.967,0.118,1.655,1,1.537,1.969
					c-0.404,3.278-1.018,5.931-1.507,8.06c-1.162,5.045-1.392,6.604,0.97,8.848c0.709,0.676,0.736,1.791,0.064,2.5
					C339.98,282.154,339.515,282.337,339.048,282.337z"/>
			</g>
			<g>
				<path fill="#ECBF1D" d="M383.843,275.891c-0.209,0-0.419-0.041-0.628-0.115c-0.909-0.346-1.369-1.365-1.022-2.278
					c0.054-0.146,5.451-14.737-2.395-20.241c-0.797-0.564-0.989-1.666-0.432-2.463c0.561-0.801,1.663-0.993,2.463-0.433
					c10.093,7.082,3.934,23.688,3.666,24.391C385.225,275.457,384.556,275.891,383.843,275.891z"/>
			</g>
			<g>
				<path fill="#ECBF1D" d="M372.105,255.076c-1.03,0-2.019-0.169-2.956-0.503c-2.677-0.953-4.288-3.136-4.677-4.288
					c-0.312-0.926,0.187-1.929,1.107-2.24c0.942-0.307,1.93,0.186,2.24,1.108l0,0c0,0,0.768,1.541,2.676,2.146
					c1.949,0.614,4.482,0,7.325-1.785c9.229-5.801,23.671-1.007,24.282-0.797c0.923,0.311,1.415,1.315,1.104,2.237
					c-0.313,0.925-1.325,1.423-2.24,1.108c-0.135-0.039-13.461-4.457-21.27,0.442C376.978,254.218,374.434,255.076,372.105,255.076z
					"/>
			</g>
			<g>
				<path fill="#ECBF1D" d="M398.03,263.934c-0.744,0-1.434-0.472-1.681-1.215c-1.463-4.449-6.739-16.407-13.511-18.299
					c-0.937-0.264-1.485-1.237-1.227-2.179c0.267-0.936,1.231-1.483,2.179-1.227c9.971,2.791,15.677,19.876,15.917,20.603
					c0.304,0.926-0.202,1.923-1.128,2.23C398.398,263.909,398.212,263.934,398.03,263.934z"/>
			</g>
			<g>
				<path fill="#ECBF1D" d="M370.287,251.37c-0.429,0-0.86-0.159-1.202-0.474c-0.716-0.666-0.754-1.784-0.092-2.497
					c4.865-5.237,1.802-9.717,1.768-9.761c-0.563-0.797-0.375-1.899,0.422-2.463c0.795-0.564,1.899-0.375,2.464,0.422
					c1.665,2.355,3.379,8.352-2.062,14.208C371.234,251.182,370.764,251.37,370.287,251.37z"/>
			</g>
			<g>
				<path fill="#ECBF1D" d="M373.521,272.727c-0.964,0-1.755-0.773-1.769-1.735c-0.007-0.218-0.537-21.371-14.67-26.618
					c-0.916-0.338-1.383-1.355-1.041-2.271c0.338-0.916,1.355-1.385,2.271-1.041c16.407,6.089,16.959,28.902,16.976,29.871
					c0.014,0.978-0.764,1.777-1.74,1.795C373.538,272.727,373.528,272.727,373.521,272.727z"/>
			</g>
			<g>
				<path fill="#ECBF1D" d="M364.169,262.277c-1.974,0-3.938-0.281-5.622-1.057c-0.889-0.408-1.277-1.455-0.872-2.34
					c0.408-0.893,1.456-1.281,2.342-0.873c4.021,1.84,11.315-0.209,13.789-1.154c0.911-0.354,1.933,0.107,2.279,1.017
					c0.349,0.912-0.107,1.935-1.02,2.28C374.761,260.27,369.43,262.277,364.169,262.277z"/>
			</g>
			<g>
				<path fill="#ECBF1D" d="M319.033,245.984c-0.149,0-0.298-0.017-0.446-0.054c-0.945-0.247-1.514-1.209-1.27-2.156
					c1.591-6.149,11.077-7.741,12.151-7.906c0.978-0.122,1.862,0.521,2.01,1.487c0.146,0.963-0.517,1.865-1.482,2.01
					c-2.128,0.324-8.402,1.994-9.254,5.294C320.532,245.457,319.816,245.984,319.033,245.984z"/>
			</g>
			<g>
				<path fill="#ECBF1D" d="M317.661,253.573c-0.368,0-0.737-0.115-1.055-0.353c-0.783-0.584-0.942-1.691-0.361-2.473
					c0.055-0.071,5.262-7.166,1.504-11.116c-0.673-0.706-0.646-1.825,0.064-2.5c0.698-0.672,1.823-0.642,2.495,0.064
					c5.812,6.116-0.941,15.283-1.235,15.671C318.729,253.33,318.198,253.573,317.661,253.573z"/>
			</g>
			<g>
				<path fill="#ECBF1D" d="M328.368,243.531c-0.635,0-1.247-0.341-1.562-0.939c-0.459-0.865-0.131-1.933,0.73-2.389
					c8.618-4.575,16.799-0.176,17.144,0.01c0.854,0.47,1.165,1.544,0.696,2.402c-0.471,0.848-1.538,1.166-2.396,0.699
					c-0.313-0.169-6.912-3.635-13.785,0.007C328.929,243.464,328.646,243.531,328.368,243.531z"/>
			</g>
		</g>
	</g>
	<g>
		<g>
			<path fill="#EFAF68" d="M97.917,233.618c0,0-11.868,2.855-14.427,3.152c-2.551,0.304-25.995,8.568-26.745,37.27
				c-0.751,28.703,53.196,37.421,53.196,37.421s21.337,8.109,39.521-0.602c18.184-8.717,48.093-10.975,47.788-39.674
				c-0.298-28.703-28.698-35.917-28.698-35.917S136.691,225.651,97.917,233.618z"/>
			<path fill="#B2834C" d="M130.3,317.252h-0.005c-10.747,0-19.41-2.945-20.957-3.507c-4.43-0.743-55.729-10.034-54.947-39.771
				c0.773-29.565,24.491-39.033,28.827-39.542c1.982-0.233,10.889-2.321,14.152-3.105c10.427-2.144,21.239-3.223,32.206-3.223
				c23.123,0,38.99,4.71,39.655,4.913c0.2,0.047,30.061,7.977,30.379,38.145c0.249,24.021-19.002,30.765-35.984,36.712
				c-4.743,1.662-9.224,3.229-13.143,5.108C144.577,315.812,137.786,317.252,130.3,317.252z M129.576,232.817
				c-10.65,0-21.141,1.047-31.182,3.108c-1.152,0.28-12.009,2.878-14.627,3.186c-0.229,0.034-23.928,6.72-24.668,34.989
				c-0.689,26.312,50.697,34.948,51.218,35.029c0.155,0.027,0.312,0.066,0.459,0.129c0.088,0.026,8.806,3.277,19.519,3.277h0.005
				c6.773,0,12.878-1.277,18.149-3.807c4.149-1.984,8.751-3.601,13.62-5.304c16.244-5.69,33.043-11.575,32.823-32.215
				c-0.276-26.586-26.653-33.59-26.922-33.655C167.715,237.48,151.956,232.817,129.576,232.817z"/>
		</g>
		<g>
			<path fill="#E8EED3" d="M141.198,292.372c0,0-0.121,0-0.338,0.015c-1.054,0.073-4.324,0.492-5.821,2.993
				c-1.804,3.007-15.329,6.162-21.641,2.858c-6.311-3.312-17.731-6.913-21.789-7.516c-4.058-0.601-20.438-8.271-17.883-14.277
				c2.554-6.01-5.413-11.117-2.104-13.074c3.307-1.953,7.361-6.46,7.361-7.814c0-1.353,0.452-9.167,4.21-9.616
				c3.758-0.453,8.115-14.126,24.347-11.271c16.229,2.855,39.821-3.189,43.126-0.392c3.305,2.797,8.416,2.946,11.873,8.656
				c3.456,5.71,5.257,2.855,9.618,4.358c4.359,1.504,18.032,7.515,15.479,12.623c-2.554,5.11-4.812,4.658-3.456,5.862
				c1.351,1.203,18.031,18.033-3.758,18.932c-6.011,0.148-9.916-2.702-9.916-2.702s4.354,3.453-4.511,4.358
				c-8.869,0.898-12.174,1.055-17.282,3.154c-5.108,2.103-7.636,2.853-7.636,2.853"/>
		</g>
		<g>
			<path fill="#5C7A36" d="M126.994,237.824c0,0-2.324-6.612-11.041-5.858c-8.718,0.75-12.771-4.661-15.478,1.202
				c-2.707,5.859-3.155,10.815,3.156,9.011c6.31-1.801,11.118-2.25,12.021-0.297c0.902,1.95,4.206-2.554,5.261-0.602
				c1.054,1.953-4.508,4.507,0,9.018c4.507,4.507,14.427,15.029,16.833,9.917c2.404-5.109,3.452-1.5,3.155-5.109
				c-0.305-3.604,0.446-3.908,2.555-4.658c2.101-0.75,3-5.257-1.655-7.365c-4.656-2.102-3.758-8.866-9.468-5.707
				C126.623,240.527,126.994,237.824,126.994,237.824z"/>
		</g>
		<g>
			<path fill="#5C7A36" d="M100.175,275.24c0,0-3.906-4.504-4.656,3.312c-0.757,7.812,1.802,9.914-2.706,7.812
				c-4.511-2.109-9.92-3.905-9.47-0.603c0.452,3.305,10.364,9.163,15.251,11.568c4.886,2.406,10.298-1.648,9.846-7.662
				C107.986,283.654,109.791,272.389,100.175,275.24z"/>
		</g>
		<g>
			<path fill="#5C7A36" d="M162.237,264.422c-6.686,3.541-12.024,4.357-9.314,6.611c2.703,2.257,5.71,9.316,9.314,9.02
				c3.608-0.304,8.417-0.154,8.715-2.857c0.303-2.705,2.107-4.955-2.703-6.311C163.441,269.534,167.347,261.719,162.237,264.422z"/>
		</g>
		<g>
			<path fill="#F0502A" d="M96.87,246.241c-3.51,4.618-7.068,4.808,0,11.571c7.062,6.761,10.67,1.199,9.315-1.054
				C104.831,254.505,98.972,243.47,96.87,246.241z"/>
		</g>
		<g>
			<path fill="#F0502A" d="M124.068,272.676c-6.075-0.423-2.554,6.924,1.655,8.432C129.928,282.607,130.38,273.119,124.068,272.676z
				"/>
		</g>
		<g>
			<path fill="#F0502A" d="M158.781,269.081c-4.608,2.217,0.75,8.114,3.007,5.262C164.038,271.486,166.597,265.328,158.781,269.081z
				"/>
		</g>
		<g>
			<path fill="#F0502A" d="M153.673,244.889c-3.365,4.555,2.555,5.71,7.515,7.21C166.147,253.604,158.329,238.575,153.673,244.889z"
				/>
		</g>
		<g>
			<g>
				<path fill="#ECBF1D" d="M107.186,276.891c-0.483,0-0.783-0.021-0.862-0.021c-0.969-0.081-1.696-0.933-1.621-1.904
					c0.077-0.973,0.909-1.672,1.898-1.624l0,0c0.497,0.043,12.333,0.735,20.789-11.718c4.771-7.019,4.774-10.271,4.352-11.586
					c-0.3-0.936-0.936-1.192-1.003-1.217c-0.893-0.327-1.398-1.317-1.102-2.219c0.294-0.906,1.217-1.419,2.135-1.163
					c0.237,0.071,2.339,0.744,3.265,3.308c1.236,3.429-0.352,8.433-4.724,14.862C121.916,275.971,110.419,276.891,107.186,276.891z"
					/>
			</g>
			<g>
				<path fill="#ECBF1D" d="M133.833,253.001c-2.301,0-4.055-0.33-4.244-0.368c-0.959-0.189-1.581-1.113-1.395-2.07
					c0.186-0.959,1.118-1.578,2.07-1.398c0.103,0.02,10.069,1.875,11.958-3.913c0.304-0.926,1.301-1.436,2.227-1.132
					c0.929,0.301,1.437,1.301,1.135,2.227C143.753,251.954,137.928,253.001,133.833,253.001z"/>
			</g>
			<g>
				<path fill="#ECBF1D" d="M114.007,241.176c-2.257,0-4.23-0.584-5.896-1.753c-3.788-2.659-4.406-7.345-4.43-7.542
					c-0.122-0.97,0.568-1.852,1.537-1.97c0.96-0.122,1.849,0.564,1.97,1.527c0.01,0.078,0.486,3.379,2.973,5.108
					c1.63,1.125,3.853,1.392,6.603,0.757c0.953-0.216,1.898,0.375,2.115,1.328c0.217,0.953-0.379,1.899-1.331,2.118
					C116.305,241.035,115.122,241.176,114.007,241.176z"/>
			</g>
			<g>
				<path fill="#ECBF1D" d="M131.428,238.24c-0.838,0-1.582-0.602-1.736-1.456c-0.305-1.7-0.865-2.825-1.534-3.088
					c-0.74-0.294-1.927,0.328-2.271,0.588c-0.781,0.584-1.893,0.419-2.474-0.365s-0.419-1.889,0.361-2.47
					c0.294-0.223,2.964-2.117,5.683-1.041c1.913,0.757,3.163,2.693,3.714,5.75c0.172,0.96-0.467,1.882-1.426,2.055
					C131.637,238.23,131.532,238.24,131.428,238.24z"/>
			</g>
			<g>
				<path fill="#ECBF1D" d="M139.138,247.896c-6.91,0-14.583-2.486-15.785-2.889c-0.923-0.311-1.419-1.314-1.108-2.24
					c0.311-0.922,1.311-1.416,2.236-1.112c4.284,1.44,16.403,4.487,20.976,1.325c0.804-0.554,1.901-0.351,2.456,0.453
					c0.555,0.804,0.354,1.902-0.45,2.456C145.314,247.376,142.307,247.896,139.138,247.896z"/>
			</g>
			<g>
				<path fill="#ECBF1D" d="M149.919,252.996c-0.105,0-0.206-0.012-0.314-0.03c-0.959-0.174-1.602-1.089-1.425-2.048
					c2.367-13.282-5.73-15.005-5.812-15.022c-0.96-0.186-1.588-1.111-1.398-2.071c0.184-0.96,1.108-1.588,2.068-1.399
					c0.115,0.02,11.595,2.44,8.619,19.109C151.504,252.393,150.761,252.996,149.919,252.996z"/>
			</g>
			<g>
				<path fill="#ECBF1D" d="M143.901,278.729c-0.467,0-0.933-0.183-1.277-0.547c-0.676-0.709-0.648-1.824,0.062-2.502
					c2.188-2.078,1.973-3.531,0.886-8.248c-0.464-2.01-1.042-4.507-1.42-7.603c-0.121-0.97,0.567-1.851,1.534-1.97
					c0.973-0.118,1.852,0.566,1.973,1.537c0.358,2.912,0.889,5.209,1.354,7.239c1.078,4.671,1.855,8.042-1.895,11.605
					C144.78,278.566,144.341,278.729,143.901,278.729z"/>
			</g>
			<g>
				<path fill="#ECBF1D" d="M101.678,272.652c-0.712,0-1.382-0.432-1.651-1.139c-0.254-0.666-6.09-16.391,3.493-23.114
					c0.791-0.557,1.898-0.369,2.459,0.433c0.562,0.801,0.369,1.901-0.432,2.463c-7.352,5.159-2.271,18.822-2.217,18.962
					c0.345,0.915-0.111,1.934-1.024,2.28C102.101,272.615,101.887,272.652,101.678,272.652z"/>
			</g>
			<g>
				<path fill="#ECBF1D" d="M112.743,253.029c-2.216,0-4.632-0.814-7.217-2.438c-7.318-4.598-19.84-0.449-19.961-0.408
					c-0.926,0.321-1.929-0.183-2.243-1.108c-0.312-0.922,0.183-1.926,1.107-2.237c0.574-0.199,14.231-4.737,22.976,0.76
					c2.648,1.659,4.994,2.233,6.805,1.679c1.771-0.554,2.479-1.99,2.486-2.004c0.379-0.875,1.389-1.334,2.277-0.997
					c0.885,0.338,1.365,1.274,1.058,2.172c-0.271,0.794-1.604,3.082-4.477,4.105C114.655,252.871,113.72,253.029,112.743,253.029z"
					/>
			</g>
			<g>
				<path fill="#ECBF1D" d="M88.302,261.38c-0.183,0-0.368-0.026-0.551-0.091c-0.929-0.305-1.433-1.297-1.129-2.227
					c0.227-0.689,5.626-16.844,15.072-19.485c0.943-0.264,1.92,0.287,2.18,1.227c0.264,0.939-0.287,1.912-1.227,2.176
					c-6.338,1.774-11.292,13.008-12.666,17.183C89.734,260.907,89.046,261.38,88.302,261.38z"/>
			</g>
			<g>
				<path fill="#ECBF1D" d="M114.452,249.535c-0.472,0-0.945-0.189-1.297-0.564c-5.169-5.565-3.538-11.275-1.952-13.519
					c0.567-0.797,1.665-0.983,2.466-0.422c0.791,0.561,0.98,1.656,0.43,2.45c-0.302,0.443-2.736,4.369,1.648,9.085
					c0.665,0.717,0.625,1.835-0.091,2.497C115.314,249.38,114.886,249.535,114.452,249.535z"/>
			</g>
			<g>
				<path fill="#ECBF1D" d="M111.405,269.669c-0.007,0-0.018,0-0.027,0c-0.976-0.019-1.753-0.821-1.736-1.795
					c0.014-0.916,0.534-22.485,16.065-28.252c0.923-0.338,1.93,0.128,2.274,1.044c0.338,0.913-0.128,1.929-1.044,2.271
					c-13.288,4.933-13.762,24.792-13.762,24.993C113.155,268.896,112.372,269.669,111.405,269.669z"/>
			</g>
			<g>
				<path fill="#ECBF1D" d="M120.224,259.816c-4.98,0-10.021-1.896-10.312-2.008c-0.912-0.349-1.367-1.367-1.02-2.279
					c0.352-0.912,1.371-1.361,2.281-1.021c2.324,0.889,9.18,2.803,12.923,1.096c0.893-0.408,1.936-0.019,2.342,0.869
					c0.408,0.887,0.017,1.938-0.868,2.344C123.968,259.549,122.099,259.816,120.224,259.816z"/>
			</g>
			<g>
				<path fill="#ECBF1D" d="M162.775,244.46c-0.784,0-1.504-0.527-1.71-1.325c-0.791-3.058-6.656-4.612-8.646-4.916
					c-0.963-0.145-1.628-1.047-1.483-2.01c0.146-0.966,1.041-1.608,2.011-1.486c1.02,0.155,10.024,1.666,11.538,7.531
					c0.247,0.942-0.32,1.905-1.263,2.152C163.072,244.444,162.924,244.46,162.775,244.46z"/>
			</g>
			<g>
				<path fill="#ECBF1D" d="M164.062,251.617c-0.537,0-1.067-0.247-1.416-0.707c-0.274-0.368-6.69-9.082-1.149-14.903
					c0.67-0.709,1.792-0.736,2.494-0.064c0.71,0.672,0.737,1.791,0.068,2.497c-3.488,3.663,1.371,10.285,1.418,10.349
					c0.582,0.784,0.423,1.889-0.357,2.473C164.803,251.5,164.43,251.617,164.062,251.617z"/>
			</g>
			<g>
				<path fill="#ECBF1D" d="M153.971,242.146c-0.277,0-0.562-0.064-0.825-0.206c-6.446-3.413-12.644-0.148-12.903-0.01
					c-0.851,0.47-1.93,0.152-2.396-0.706c-0.467-0.855-0.155-1.923,0.697-2.392c0.33-0.183,8.088-4.349,16.257-0.01
					c0.858,0.453,1.189,1.524,0.73,2.386C155.213,241.805,154.605,242.146,153.971,242.146z"/>
			</g>
		</g>
	</g>
	<g>
		<g>
			<path fill="#EFAF68" d="M205.002,266.195c0,0-13.394,3.221-16.278,3.555c-2.879,0.342-29.327,9.668-30.179,42.05
				c-0.845,32.38,60.019,42.212,60.019,42.212s24.077,9.156,44.59-0.676c20.515-9.832,54.251-12.38,53.913-44.759
				c-0.339-32.382-32.382-40.521-32.382-40.521S248.742,257.205,205.002,266.195z"/>
			<path fill="#B2834C" d="M241.525,360.242L241.525,360.242c-12.143,0-21.914-3.34-23.566-3.94
				c-4.78-0.803-62.642-11.217-61.766-44.562c0.864-33.145,27.408-43.756,32.253-44.327c2.254-0.265,12.315-2.621,16.002-3.511
				c11.736-2.408,23.914-3.625,36.267-3.625c26.043,0,43.902,5.301,44.652,5.527c0.236,0.057,33.699,8.946,34.055,42.745
				c0.28,26.886-21.326,34.454-40.39,41.132c-5.362,1.877-10.423,3.647-14.859,5.775
				C257.548,358.633,249.925,360.242,241.525,360.242z M240.715,264.99c-12.035,0-23.891,1.183-35.239,3.513
				c-1.312,0.313-13.539,3.247-16.479,3.589c-0.267,0.034-27.249,7.389-28.094,39.77c-0.784,29.975,57.448,39.73,58.039,39.826
				c0.155,0.026,0.312,0.066,0.456,0.121c0.098,0.041,9.978,3.725,22.127,3.725c7.69,0,14.625-1.453,20.606-4.325
				c4.674-2.235,9.854-4.056,15.344-5.974c18.424-6.453,37.479-13.129,37.236-36.631c-0.317-30.219-30.304-38.185-30.607-38.262
				C283.83,270.26,266.016,264.99,240.715,264.99z"/>
		</g>
		<g>
			<path fill="#E8EED3" d="M253.827,332.482c0,0-0.138,0-0.382,0.014c-1.189,0.081-4.878,0.555-6.568,3.379
				c-2.034,3.393-17.292,6.945-24.414,3.216c-7.119-3.729-20.005-7.798-24.583-8.474c-4.575-0.682-23.057-9.33-20.174-16.107
				c2.882-6.777-6.105-12.542-2.376-14.751c3.73-2.204,8.309-7.284,8.309-8.812c0-1.526,0.511-10.346,4.747-10.854
				c4.237-0.507,9.155-15.936,27.469-12.716c18.305,3.224,44.922-3.599,48.653-0.438c3.73,3.152,9.497,3.322,13.395,9.764
				c3.902,6.445,5.936,3.224,10.854,4.92c4.912,1.695,20.343,8.475,17.457,14.244c-2.879,5.764-5.427,5.257-3.896,6.607
				c1.521,1.358,20.34,20.348-4.24,21.36c-6.78,0.162-11.189-3.048-11.189-3.048s4.916,3.893-5.084,4.912
				c-10.006,1.021-13.736,1.189-19.5,3.562c-5.765,2.369-8.615,3.221-8.615,3.221"/>
		</g>
		<g>
			<path fill="#5C7A36" d="M237.803,270.941c0,0-2.626-7.463-12.457-6.61c-9.833,0.845-14.411-5.257-17.466,1.354
				c-3.047,6.611-3.554,12.205,3.562,10.172c7.122-2.037,12.549-2.543,13.565-0.34c1.018,2.205,4.748-2.883,5.933-0.684
				c1.187,2.212-5.084,5.091,0,10.18c5.085,5.081,16.276,16.953,18.989,11.188s3.898-1.695,3.562-5.765
				c-0.343-4.066,0.506-4.412,2.881-5.256c2.376-0.853,3.389-5.934-1.864-8.312c-5.258-2.37-4.237-10.003-10.68-6.438
				C237.384,273.991,237.803,270.941,237.803,270.941z"/>
		</g>
		<g>
			<path fill="#5C7A36" d="M207.543,313.15c0,0-4.406-5.08-5.254,3.738c-0.849,8.811,2.037,11.182-3.052,8.811
				c-5.088-2.371-11.189-4.405-10.684-0.676c0.511,3.729,11.694,10.338,17.205,13.055c5.514,2.71,11.619-1.865,11.109-8.648
				C216.361,322.645,218.392,309.936,207.543,313.15z"/>
		</g>
		<g>
			<path fill="#5C7A36" d="M277.562,300.948c-7.549,3.993-13.562,4.918-10.512,7.459c3.051,2.548,6.443,10.516,10.512,10.17
				c4.071-0.337,9.494-0.168,9.832-3.218c0.342-3.053,2.375-5.594-3.052-7.121C278.917,306.711,283.326,297.898,277.562,300.948z"/>
		</g>
		<g>
			<path fill="#F0502A" d="M203.812,280.432c-3.957,5.209-7.967,5.426,0,13.055c7.971,7.637,12.042,1.359,10.515-1.182
				C212.8,289.764,206.191,277.311,203.812,280.432z"/>
		</g>
		<g>
			<path fill="#F0502A" d="M234.498,310.259c-6.853-0.474-2.878,7.812,1.868,9.507C241.113,321.462,241.62,310.758,234.498,310.259z
				"/>
		</g>
		<g>
			<path fill="#F0502A" d="M273.664,306.205c-5.196,2.5,0.848,9.154,3.393,5.934C279.598,308.914,282.482,301.967,273.664,306.205z"
				/>
		</g>
		<g>
			<path fill="#F0502A" d="M267.898,278.911c-3.797,5.136,2.884,6.438,8.479,8.137C281.973,288.744,273.152,271.787,267.898,278.911
				z"/>
		</g>
		<g>
			<g>
				<path fill="#ECBF1D" d="M215.462,314.793c-0.54,0-0.874-0.027-0.959-0.034c-0.973-0.075-1.7-0.926-1.621-1.897
					c0.073-0.975,0.942-1.67,1.891-1.623l0,0c0.574,0.041,14.035,0.845,23.665-13.317c5.449-8.021,5.43-11.767,4.933-13.286
					c-0.378-1.154-1.176-1.466-1.267-1.499c-0.902-0.317-1.413-1.312-1.119-2.217c0.291-0.913,1.23-1.435,2.146-1.169
					c0.253,0.074,2.526,0.804,3.531,3.588c1.371,3.805-0.413,9.372-5.302,16.568C231.944,313.759,219.074,314.793,215.462,314.793z"
					/>
			</g>
			<g>
				<path fill="#ECBF1D" d="M245.522,287.838c-2.571,0-4.538-0.372-4.75-0.413c-0.957-0.188-1.578-1.114-1.396-2.075
					c0.189-0.951,1.109-1.565,2.075-1.396c0.114,0.025,11.556,2.154,13.748-4.562c0.304-0.932,1.301-1.438,2.227-1.135
					c0.926,0.305,1.436,1.297,1.133,2.229C256.54,286.676,250.081,287.838,245.522,287.838z"/>
			</g>
			<g>
				<path fill="#ECBF1D" d="M223.152,274.497c-2.5,0-4.684-0.647-6.524-1.938c-4.192-2.942-4.875-8.133-4.902-8.353
					c-0.122-0.97,0.567-1.849,1.537-1.97c0.963-0.122,1.849,0.566,1.97,1.533c0.014,0.099,0.567,3.905,3.446,5.91
					c1.896,1.32,4.46,1.62,7.63,0.896c0.958-0.21,1.901,0.377,2.117,1.327c0.217,0.949-0.377,1.898-1.327,2.119
					C225.706,274.337,224.389,274.497,223.152,274.497z"/>
			</g>
			<g>
				<path fill="#ECBF1D" d="M242.807,271.184c-0.842,0-1.585-0.603-1.74-1.455c-0.358-2.02-1.021-3.316-1.858-3.658
					c-0.97-0.381-2.383,0.396-2.802,0.701c-0.786,0.565-1.888,0.399-2.466-0.383c-0.574-0.785-0.415-1.883,0.365-2.461
					c0.32-0.242,3.232-2.32,6.192-1.146c2.082,0.821,3.443,2.95,4.048,6.317c0.176,0.963-0.467,1.883-1.425,2.056
					C243.016,271.172,242.911,271.184,242.807,271.184z"/>
			</g>
			<g>
				<path fill="#ECBF1D" d="M251.51,282.081c-7.751,0-16.397-2.798-17.742-3.257c-0.925-0.312-1.422-1.312-1.11-2.237
					c0.31-0.924,1.307-1.421,2.239-1.108c4.862,1.637,18.626,5.082,23.86,1.467c0.804-0.555,1.905-0.351,2.46,0.453
					c0.555,0.805,0.352,1.906-0.451,2.459C258.378,281.5,255.037,282.081,251.51,282.081z"/>
			</g>
			<g>
				<path fill="#ECBF1D" d="M263.663,287.824c-0.103,0-0.207-0.006-0.312-0.027c-0.963-0.168-1.603-1.087-1.431-2.047
					c2.714-15.198-6.642-17.188-6.735-17.209c-0.957-0.184-1.586-1.111-1.398-2.07c0.186-0.957,1.111-1.599,2.07-1.398
					c0.129,0.025,12.858,2.709,9.541,21.301C265.248,287.23,264.504,287.824,263.663,287.824z"/>
			</g>
			<g>
				<path fill="#ECBF1D" d="M256.879,316.861c-0.467,0-0.938-0.184-1.281-0.547c-0.672-0.711-0.642-1.832,0.064-2.502
					c2.551-2.426,2.283-4.217,1.061-9.514c-0.52-2.265-1.168-5.082-1.599-8.562c-0.117-0.965,0.567-1.852,1.538-1.965
					c0.98-0.123,1.849,0.565,1.97,1.532c0.405,3.298,1.009,5.9,1.537,8.197c1.196,5.196,2.062,8.946-2.074,12.873
					C257.754,316.699,257.312,316.861,256.879,316.861z"/>
			</g>
			<g>
				<path fill="#ECBF1D" d="M209.239,310.002c-0.71,0-1.382-0.434-1.649-1.136c-0.283-0.75-6.812-18.325,3.855-25.813
					c0.797-0.554,1.901-0.363,2.463,0.434c0.561,0.797,0.365,1.906-0.433,2.467c-8.44,5.919-2.643,21.502-2.581,21.656
					c0.345,0.912-0.115,1.934-1.027,2.277C209.661,309.968,209.448,310.002,209.239,310.002z"/>
			</g>
			<g>
				<path fill="#ECBF1D" d="M221.723,287.872c-2.456,0-5.139-0.913-8.021-2.724c-8.349-5.244-22.573-0.526-22.715-0.479
					c-0.926,0.317-1.926-0.183-2.24-1.108c-0.313-0.918,0.183-1.926,1.105-2.236c0.648-0.215,15.953-5.305,25.731,0.838
					c3.059,1.92,5.784,2.583,7.899,1.906c2.092-0.67,2.905-2.358,2.912-2.379c0.365-0.879,1.375-1.352,2.271-1.015
					c0.893,0.332,1.372,1.277,1.068,2.177c-0.413,1.209-2.108,3.5-4.913,4.494C223.835,287.695,222.801,287.872,221.723,287.872z"/>
			</g>
			<g>
				<path fill="#ECBF1D" d="M194.149,297.292c-0.183,0-0.368-0.026-0.551-0.089c-0.929-0.305-1.432-1.305-1.128-2.229
					c0.253-0.771,6.305-18.888,16.849-21.842c0.942-0.257,1.92,0.29,2.18,1.227c0.264,0.941-0.283,1.918-1.226,2.182
					c-7.259,2.027-12.887,14.785-14.445,19.535C195.582,296.818,194.893,297.292,194.149,297.292z"/>
			</g>
			<g>
				<path fill="#ECBF1D" d="M223.652,283.925c-0.474,0-0.946-0.188-1.298-0.562c-5.733-6.176-3.933-12.492-2.183-14.969
					c0.565-0.797,1.67-0.983,2.467-0.422c0.79,0.56,0.983,1.654,0.426,2.452c-0.152,0.226-3.271,4.983,1.882,10.525
					c0.666,0.717,0.625,1.838-0.092,2.5C224.514,283.77,224.085,283.925,223.652,283.925z"/>
			</g>
			<g>
				<path fill="#ECBF1D" d="M220.22,306.636c-0.014,0-0.023,0-0.033,0c-0.975-0.013-1.751-0.817-1.737-1.79
					c0.014-1.027,0.602-25.212,17.981-31.666c0.918-0.339,1.933,0.127,2.27,1.043c0.339,0.912-0.124,1.932-1.04,2.27
					c-15.106,5.609-15.674,28.186-15.677,28.408C221.967,305.866,221.179,306.636,220.22,306.636z"/>
			</g>
			<g>
				<path fill="#ECBF1D" d="M230.163,295.527c-5.572,0-11.228-2.129-11.552-2.258c-0.912-0.344-1.368-1.363-1.021-2.275
					c0.352-0.913,1.372-1.365,2.281-1.021c2.646,1.008,10.46,3.196,14.754,1.229c0.893-0.404,1.937-0.013,2.338,0.872
					c0.412,0.886,0.021,1.933-0.864,2.338C234.323,295.23,232.248,295.527,230.163,295.527z"/>
			</g>
			<g>
				<path fill="#ECBF1D" d="M278.168,278.202c-0.784,0-1.501-0.534-1.71-1.325c-0.926-3.592-7.487-5.343-9.938-5.715
					c-0.965-0.146-1.627-1.044-1.481-2.012c0.146-0.965,1.041-1.605,2.006-1.485c1.14,0.174,11.164,1.854,12.84,8.327
					c0.244,0.945-0.323,1.906-1.271,2.156C278.465,278.182,278.314,278.202,278.168,278.202z"/>
			</g>
			<g>
				<path fill="#ECBF1D" d="M279.624,286.27c-0.538,0-1.067-0.244-1.413-0.709c-0.311-0.406-7.438-10.084-1.32-16.518
					c0.672-0.712,1.795-0.736,2.498-0.062c0.709,0.672,0.735,1.791,0.062,2.496c-4.081,4.293,1.529,11.889,1.585,11.963
					c0.588,0.783,0.429,1.892-0.353,2.479C280.367,286.154,279.992,286.27,279.624,286.27z"/>
			</g>
			<g>
				<path fill="#ECBF1D" d="M268.232,275.588c-0.275,0-0.561-0.068-0.822-0.206c-7.432-3.937-14.694-0.048-14.766-0.014
					c-0.854,0.475-1.931,0.157-2.401-0.696c-0.467-0.854-0.156-1.929,0.698-2.398c0.365-0.199,9.019-4.844,18.123-0.014
					c0.865,0.456,1.188,1.526,0.733,2.389C269.48,275.248,268.869,275.588,268.232,275.588z"/>
			</g>
		</g>
	</g>
</g>
</svg>
