<?xml version="1.0" encoding="utf-8"?>
<!-- Generator: Adobe Illustrator 16.0.0, SVG Export Plug-In . SVG Version: 6.00 Build 0)  -->
<!DOCTYPE svg PUBLIC "-//W3C//DTD SVG 1.1//EN" "http://www.w3.org/Graphics/SVG/1.1/DTD/svg11.dtd">
<svg version="1.1" id="Layer_1" xmlns="http://www.w3.org/2000/svg" xmlns:xlink="http://www.w3.org/1999/xlink" x="0px" y="0px"
	 width="500px" height="500px" viewBox="0 0 500 500" enable-background="new 0 0 500 500" xml:space="preserve">
<g id="Layer_1_copy_66">
	<g>
		<g>
			<g>
				<path fill="#4D4D4D" d="M170.37,462.179c-0.395,4.021-4.019,7.315-8.061,7.315h-15.148c-4.045,0-7.35-3.309-7.35-7.35v-114.72
					c0-4.041,3.305-7.351,7.35-7.351h27.689c4.045,0,7.029,3.295,6.643,7.316L170.37,462.179z"/>
			</g>
			<g>
				<path fill="#27140E" d="M162.31,473.169h-15.148c-6.079,0-11.023-4.948-11.023-11.022V347.426
					c0-6.076,4.944-11.023,11.023-11.023h27.689c3.005,0,5.739,1.193,7.702,3.354c1.965,2.159,2.888,5.001,2.595,7.989
					l-11.123,114.786C173.458,468.402,168.202,473.169,162.31,473.169z M147.161,343.751c-2.027,0-3.676,1.653-3.676,3.675v114.721
					c0,2.021,1.648,3.675,3.676,3.675h15.148c2.138,0,4.195-1.868,4.399-3.996l11.123-114.787c0.089-0.899-0.167-1.733-0.72-2.341
					c-0.551-0.612-1.354-0.945-2.262-0.945L147.161,343.751L147.161,343.751z"/>
			</g>
		</g>
		<g>
			<g>
				<path fill="#4D4D4D" d="M318.61,462.179c0.391,4.021,4.016,7.315,8.061,7.315h15.146c4.042,0,7.349-3.309,7.349-7.35v-114.72
					c0-4.041-3.307-7.351-7.349-7.351h-27.693c-4.041,0-7.032,3.295-6.639,7.316L318.61,462.179z"/>
			</g>
			<g>
				<path fill="#27140E" d="M341.816,473.169H326.67c-5.896,0-11.151-4.768-11.718-10.638l-11.13-114.786
					c-0.286-2.988,0.633-5.83,2.597-7.989c1.965-2.161,4.698-3.354,7.703-3.354h27.693c6.075,0,11.022,4.947,11.022,11.023v114.72
					C352.84,468.221,347.893,473.169,341.816,473.169z M314.123,343.751c-0.906,0-1.711,0.333-2.261,0.946
					c-0.558,0.605-0.812,1.439-0.724,2.34l11.129,114.787c0.203,2.128,2.263,3.996,4.402,3.996h15.146
					c2.022,0,3.675-1.654,3.675-3.675V347.425c0-2.021-1.651-3.675-3.675-3.675L314.123,343.751L314.123,343.751z"/>
			</g>
		</g>
	</g>
	<g>
		<rect x="139.812" y="303.869" fill="#079076" width="209.354" height="41.122"/>
		<path fill="#27140E" d="M349.165,348.666H139.812c-2.027,0-3.674-1.646-3.674-3.675v-41.122c0-2.027,1.646-3.672,3.674-3.672
			h209.354c2.028,0,3.675,1.645,3.675,3.672v41.122C352.84,347.02,351.193,348.666,349.165,348.666z M143.485,341.316h202.006
			v-33.773H143.485V341.316z"/>
	</g>
	<g>
		<g>
			<g>
				<path fill="#FEE9AE" d="M156.247,36.051c0-4.042,3.309-7.35,7.35-7.35h5.632c4.041,0,7.553,3.301,7.796,7.336l12.951,212.618
					c0.244,4.037-2.86,7.335-6.905,7.335h-19.474c-4.041,0-7.35-3.305-7.35-7.345V36.051L156.247,36.051z"/>
			</g>
			<g>
				<path fill="#27140E" d="M183.07,259.667h-19.474c-6.078,0-11.024-4.944-11.024-11.021V36.051
					c0-6.079,4.946-11.024,11.024-11.024h5.632c5.959,0,11.102,4.84,11.465,10.787l12.947,212.618
					c0.181,2.975-0.826,5.786-2.834,7.923C188.799,258.489,186.048,259.667,183.07,259.667z M163.597,32.376
					c-2.027,0-3.674,1.647-3.674,3.674v212.595c0,2.021,1.646,3.671,3.674,3.671h19.474c0.93,0,1.777-0.354,2.385-0.998
					c0.606-0.644,0.906-1.513,0.851-2.44L173.356,36.261c-0.126-2.105-2.021-3.885-4.128-3.885H163.597z"/>
			</g>
		</g>
		<g>
			<g>
				<path fill="#FEE9AE" d="M334.027,36.051c0-4.042-3.306-7.35-7.352-7.35h-5.628c-4.044,0-7.549,3.301-7.8,7.336l-12.947,212.618
					c-0.247,4.037,2.857,7.335,6.899,7.335h19.476c4.046,0,7.352-3.305,7.352-7.345V36.051L334.027,36.051z"/>
			</g>
			<g>
				<path fill="#27140E" d="M326.677,259.667h-19.476c-2.975,0-5.727-1.179-7.737-3.312c-2.003-2.139-3.015-4.951-2.829-7.923
					l12.95-212.618c0.363-5.949,5.502-10.787,11.464-10.787h5.628c6.079,0,11.024,4.945,11.024,11.024v212.595
					C337.701,254.721,332.756,259.667,326.677,259.667z M321.049,32.376c-2.11,0-4.001,1.778-4.132,3.885l-12.951,212.618
					c-0.057,0.93,0.25,1.797,0.854,2.441c0.606,0.644,1.454,0.996,2.382,0.996h19.476c2.025,0,3.676-1.65,3.676-3.67V36.051
					c0-2.027-1.649-3.674-3.676-3.674L321.049,32.376L321.049,32.376z"/>
			</g>
		</g>
	</g>
	<g>
		<polygon fill="#B4D999" points="156.247,244.614 139.812,303.869 349.165,303.869 334.027,244.614 		"/>
		<path fill="#27140E" d="M349.165,307.542H139.812c-1.146,0-2.23-0.532-2.925-1.446c-0.696-0.912-0.924-2.102-0.616-3.209
			l16.436-59.254c0.443-1.59,1.891-2.691,3.541-2.691h177.78c1.68,0,3.144,1.138,3.561,2.765l15.135,59.253
			c0.283,1.101,0.04,2.269-0.658,3.162C351.369,307.023,350.299,307.542,349.165,307.542z M144.644,300.197h199.79l-13.262-51.908
			h-172.13L144.644,300.197z"/>
	</g>
	<g>
		<rect x="156.247" y="46.074" fill="#B4D999" width="177.78" height="95.594"/>
		<path fill="#27140E" d="M334.027,145.341h-177.78c-2.031,0-3.675-1.644-3.675-3.673V46.074c0-2.029,1.644-3.674,3.675-3.674
			h177.78c2.029,0,3.674,1.646,3.674,3.674v95.594C337.701,143.697,336.058,145.341,334.027,145.341z M159.923,137.993h170.429
			V49.75H159.923V137.993z"/>
	</g>
</g>
</svg>
