<?xml version="1.0" encoding="utf-8"?>
<!-- Generator: Adobe Illustrator 16.0.0, SVG Export Plug-In . SVG Version: 6.00 Build 0)  -->
<!DOCTYPE svg PUBLIC "-//W3C//DTD SVG 1.1//EN" "http://www.w3.org/Graphics/SVG/1.1/DTD/svg11.dtd">
<svg version="1.1" id="Layer_1" xmlns="http://www.w3.org/2000/svg" xmlns:xlink="http://www.w3.org/1999/xlink" x="0px" y="0px"
	 width="500px" height="500px" viewBox="0 0 500 500" enable-background="new 0 0 500 500" xml:space="preserve">
<g id="Layer_1_copy_42">
	<g>
		<rect x="90.819" y="99.064" fill="#3A54A5" width="257.134" height="202.823"/>
		<path fill="#27140E" d="M349.401,303.331H89.37V97.618h260.031V303.331z M92.268,300.441h254.237V100.513H92.268V300.441z"/>
	</g>
	<g>
		<path fill="#F58020" d="M92.845,100.225l-63.966,335.62l201.108,0.456l20.131-130.937l16.142,131.659l195.384-0.342
			c-15.137-139.371-44.735-336.463-44.735-336.458"/>
		<path fill="#27140E" d="M266.26,441.366c-2.191,0-4.043-1.636-4.308-3.812l-12.315-100.471l-15.357,99.882
			c-0.328,2.116-2.15,3.677-4.292,3.677c-0.004,0-0.009,0-0.013,0l-201.108-0.457c-1.29,0-2.516-0.58-3.34-1.576
			c-0.822-0.996-1.155-2.309-0.913-3.578L88.58,99.411l8.529,1.625L34.122,431.52l192.138,0.433l19.566-127.251
			c0.331-2.143,2.315-3.678,4.358-3.678c2.166,0.033,3.98,1.66,4.241,3.811l15.679,127.848l186.699-0.331
			c-15.187-138.143-43.899-329.561-44.19-331.479l4.059-4.984c3.978-0.199,4.479,3.347,4.865,5.943l0.968,6.498
			c0.837,5.664,2.054,13.91,3.561,24.243c2.748,18.848,7.036,48.554,11.834,83.02c8.483,60.877,20.234,148.572,28.062,220.628
			c0.134,1.222-0.257,2.449-1.083,3.371c-0.822,0.912-1.992,1.437-3.225,1.443l-195.384,0.333
			C266.264,441.366,266.264,441.366,266.26,441.366z"/>
	</g>
	<g>
		<polygon fill="#BC7129" points="92.7,121.606 150.723,114.836 155.931,161.704 124.9,215.546 95.83,235.727 72.561,230.333 		"/>
		<path fill="#27140E" d="M96.128,237.281l-25.244-5.851l20.588-111.138l60.524-7.062l5.421,48.785l-31.695,54.72L96.128,237.281z
			 M74.237,229.237l21.297,4.935l28.271-19.628l30.632-53.153l-4.992-44.949l-55.516,6.481L74.237,229.237z"/>
	</g>
	<g>
		<path fill="#BC7129" d="M413.804,111.222l-65.851-12.158l5.375,60.351c0,0,19.188,47.807,38.709,53.128
			c19.516,5.319,37.313,6.008,37.313,6.008l-0.027-1.44L413.804,111.222z"/>
		<path fill="#27140E" d="M430.834,220.058l-1.537-0.061c-0.178-0.006-18.19-0.757-37.642-6.06
			c-19.98-5.446-38.875-52.006-39.667-53.985l-0.102-0.409l-5.545-62.247l68.742,12.69l0.15,1.025l15.52,105.892L430.834,220.058z
			 M354.752,159.068c1.36,3.314,19.678,47.174,37.663,52.078c15.859,4.321,30.715,5.568,35.441,5.872l-15.331-104.562
			l-62.962-11.622L354.752,159.068z"/>
	</g>
	<g>
		<path fill="#27140E" d="M81.335,240.069c-4.807,0-9.771-0.519-14.901-1.557l1.728-8.513c17.333,3.52,32.52,0.245,45.126-9.723
			c40.278-31.83,43.69-121.037,43.715-121.934l8.68,0.284c-0.125,3.828-3.566,94.117-46.999,128.455
			C107.754,235.725,95.232,240.069,81.335,240.069z"/>
	</g>
	<g>
		<path fill="#FAA625" d="M100.312,62.381L86.95,130.097h334.682l-8.348-69.403c0,0-2.162-5.261-4.541-5.281
			c-34.102-0.264-295.983-2.204-302.537,0.033C100.42,55.922,100.312,62.381,100.312,62.381z"/>
		<path fill="#27140E" d="M421.632,134.438H86.95c-1.299,0-2.527-0.581-3.353-1.586c-0.826-1.002-1.158-2.322-0.905-3.598
			l13.295-67.386c0.241-4.091,2.88-9.947,9.463-10.708c2.35-0.484,12.377-1.123,83.458-1.123c84.175,0,206.229,0.928,219.868,1.033
			c4.749,0.04,7.543,5.589,8.521,7.972c0.153,0.363,0.249,0.745,0.298,1.132l8.344,69.404c0.148,1.232-0.236,2.469-1.062,3.397
			C424.055,133.907,422.872,134.438,421.632,134.438z M92.234,125.755h324.5l-7.679-63.896c-0.378-0.794-0.88-1.63-1.259-2.112
			c-17.429-0.135-136.374-1.025-218.889-1.025c-65.876,0-79.439,0.566-81.564,0.913c-0.258,0.07-0.515,0.114-0.781,0.137
			c-1.813,0.149-1.9,2.422-1.909,2.68c0,0.259-0.033,0.517-0.082,0.77L92.234,125.755z"/>
	</g>
	<g>
		<path fill="#27140E" d="M426.438,223.479c-20.12,0-37.14-6.105-50.676-18.199c-29.979-26.782-32.075-73.062-32.146-75.019
			l8.675-0.332c0.02,0.442,2.066,44.622,29.291,68.905c13.431,11.985,30.923,17.262,52.064,15.687l0.644,8.659
			C431.627,223.379,429.008,223.479,426.438,223.479z"/>
	</g>
	<g>
		<line fill="none" x1="250.782" y1="130.097" x2="250.201" y2="308.18"/>
		
			<rect x="246.156" y="130.089" transform="matrix(-1 -0.0029 0.0029 -1 500.3538 438.9981)" fill="#27140E" width="8.683" height="178.09"/>
	</g>
	<g>
		<line fill="none" x1="161.344" y1="55.161" x2="157.919" y2="130.8"/>
		
			<rect x="155.296" y="55.115" transform="matrix(-0.999 -0.0451 0.0451 -0.999 314.9178 193.0594)" fill="#27140E" width="8.685" height="75.718"/>
	</g>
	<g>
		<line fill="none" x1="231.257" y1="54.455" x2="231.257" y2="130.097"/>
		<rect x="226.915" y="54.455" fill="#27140E" width="8.685" height="75.642"/>
	</g>
	<g>
		<line fill="none" x1="313.992" y1="55.161" x2="313.992" y2="130.8"/>
		<rect x="309.651" y="55.161" fill="#27140E" width="8.682" height="75.64"/>
	</g>
	<g>
		<line fill="none" x1="376.999" y1="57.607" x2="376.999" y2="133.25"/>
		<rect x="372.658" y="57.607" fill="#27140E" width="8.683" height="75.642"/>
	</g>
</g>
</svg>
