<?xml version="1.0" encoding="utf-8"?>
<!-- Generator: Adobe Illustrator 16.0.0, SVG Export Plug-In . SVG Version: 6.00 Build 0)  -->
<!DOCTYPE svg PUBLIC "-//W3C//DTD SVG 1.1//EN" "http://www.w3.org/Graphics/SVG/1.1/DTD/svg11.dtd">
<svg version="1.1" id="Layer_1" xmlns="http://www.w3.org/2000/svg" xmlns:xlink="http://www.w3.org/1999/xlink" x="0px" y="0px"
	 width="500px" height="500px" viewBox="0 0 500 500" enable-background="new 0 0 500 500" xml:space="preserve">
<g id="Layer_1_copy_72">
	<g>
		<path fill="#E85C62" d="M228.289,243.952c0,0-16.511-23.79-13.001-111.894c3.506-88.076-45.776-109.04-94.67-94.239
			c-48.892,14.803-86.431,45.913-60.06,128.559c26.45,59.275,42.721,88.933,42.721,88.933s23.715,58.092,35.922,90.379
			c12.211,32.297,31.85,60.863,83.634,40.627c51.789-20.229,45.288-39.985,33.47-76.711
			C244.486,272.887,228.289,243.952,228.289,243.952z"/>
		<path fill="#27140E" d="M191.65,397.395L191.65,397.395c-33.244,0-47.646-26.818-56.479-50.184
			c-11.675-30.863-34.177-86.087-35.793-90.051c-1.55-2.859-17.724-32.922-42.757-89.025l-0.169-0.445
			c-11.938-37.41-11.943-66.629-0.014-89.325c10.78-20.501,31.365-35.114,62.934-44.669c9.934-3.008,19.669-4.535,28.924-4.535
			c19.253,0,35.83,6.664,47.945,19.271c17.002,17.695,24.858,45.889,23.348,83.796c-3.411,85.671,12.086,109.039,12.242,109.265
			l0.221,0.353c0.166,0.294,16.54,29.736,28.354,66.442c11.738,36.47,19.435,60.386-36.003,82.046
			C212.411,395.02,201.392,397.395,191.65,397.395z M64.592,164.841c25.999,58.24,42.306,88.101,42.465,88.397l0.211,0.443
			c0.241,0.586,23.879,58.51,35.965,90.484c8.34,22.061,20.617,44.605,48.418,44.605c8.665,0,18.627-2.176,29.617-6.469
			c47.884-18.713,42.601-35.132,31.019-71.104c-11.234-34.912-26.526-62.92-27.689-65.022c-1.81-2.822-17.006-29.193-13.62-114.293
			c1.417-35.474-5.633-61.543-20.951-77.482c-10.451-10.875-24.876-16.624-41.729-16.624c-8.411,0-17.304,1.402-26.427,4.165
			c-29.244,8.853-48.149,22.078-57.796,40.431C53.443,102.593,53.622,130.339,64.592,164.841z"/>
	</g>
	<g>
		<g>
			<path fill="#F8B77A" d="M205.892,85.577c-1.466,0.522-147.985,16.229-147.985,16.229s3.578-15.185,12.688-29.512
				c3.443-0.374,121.821-14.672,121.821-14.672S202.605,71.318,205.892,85.577z"/>
		</g>
		<g>
			<path fill="#F8B77A" d="M209.985,144.371l-146.366,15.6c0,0-6.779-27.901-5.916-28.956
				c0.862-1.049,152.273-16.788,152.273-16.788L209.985,144.371z"/>
		</g>
		<g>
			<polygon fill="#F8B77A" points="212.291,204.297 89.843,217.579 76.544,189.127 209.861,174.668 			"/>
		</g>
		<g>
			<polygon fill="#F8B77A" points="231.221,260.898 116.007,273.391 103.761,244.843 218.2,232.434 			"/>
		</g>
		<g>
			<polygon fill="#F8B77A" points="253.63,318.206 138.902,330.652 127.468,302.02 243.713,289.414 			"/>
		</g>
		<g>
			<path fill="#F8B77A" d="M227.103,379.732c0,0-48.146,5.129-51.968,5.638c-15.404-5.917-24.855-27.175-24.855-27.175
				s106.152-11.422,108.771-11.799C261.191,367.718,227.103,379.732,227.103,379.732z"/>
		</g>
	</g>
	<g>
		<path fill="#27140E" d="M141.114,309.961c-0.479,0-0.97-0.062-1.458-0.193c-1.931-0.502-47.512-12.772-62.963-47.723
			c-8.273-18.714-6.27-40.076,5.961-63.495c17.42-38.69,42.571-72.18,43.634-73.588c1.25-1.658,3.304-2.51,5.354-2.233
			c1.438,0.194,35.844,5.208,94.228,45.845c16.548,11.521,25.909,25.997,27.834,43.025c3.978,35.23-25.628,68.271-26.89,69.654
			c-2.131,2.354-5.763,2.527-8.114,0.394c-2.347-2.133-2.524-5.762-0.396-8.114c0.273-0.306,27.397-30.651,23.973-60.685
			c-1.541-13.581-9.275-25.301-22.974-34.841c-46.068-32.066-76.386-41.03-85.951-43.235c-6.441,8.938-26.26,37.453-40.288,68.649
			c-0.044,0.104-0.093,0.208-0.148,0.309c-10.586,20.204-12.511,38.246-5.73,53.628c13.172,29.869,54.963,41.188,55.386,41.295
			c3.066,0.807,4.903,3.953,4.097,7.02C145.988,308.248,143.66,309.961,141.114,309.961z"/>
	</g>
	<g>
		<path fill="#27140E" d="M131.642,135.187c-2.435,0-4.699-1.562-5.475-4.006l-7.928-24.903c-0.958-3.023,0.71-6.256,3.734-7.217
			c3.022-0.968,6.257,0.704,7.223,3.732l7.923,24.902c0.961,3.022-0.708,6.255-3.731,7.219
			C132.805,135.1,132.219,135.187,131.642,135.187z"/>
	</g>
	<g>
		<path fill="#E85C62" d="M311.135,328.143c0,0,11.021-26.774-11.284-112.051c-22.31-85.303,21.344-116.345,72.267-112.367
			c50.92,3.977,94.269,26.314,86.221,112.718c-13.133,63.549-22.667,95.997-22.667,95.997s-10.712,61.822-15.712,95.982
			c-5.007,34.159-18.062,66.264-72.976,57.612c-54.923-8.666-52.816-29.346-49.143-67.759
			C301.515,359.884,311.135,328.143,311.135,328.143z"/>
		<path fill="#27140E" d="M363.92,471.774c-5.448,0-11.374-0.498-17.607-1.479c-58.803-9.286-56.408-34.304-52.787-72.172
			c3.697-38.641,13.386-70.912,13.485-71.234l0.141-0.393c0.085-0.217,9.979-27.311-11.472-109.315
			c-10.375-39.68-7.387-71.631,8.648-92.4c12.802-16.574,33.859-25.701,59.315-25.701c2.883,0,5.846,0.116,8.806,0.349
			c32.877,2.564,56.113,12.423,71.039,30.139c16.521,19.615,22.784,48.164,19.141,87.275l-0.071,0.474
			c-12.432,60.144-21.778,92.962-22.685,96.097c-0.722,4.206-10.875,62.975-15.653,95.631
			C419.946,438.249,409.219,471.774,363.92,471.774z M315.222,329.527c-0.685,2.298-9.625,32.934-13.09,69.158
			c-3.63,37.899-5.269,55.075,45.52,63.096c5.794,0.909,11.271,1.376,16.27,1.376c38.368,0,47.562-26.608,51.771-55.356
			c4.949-33.832,15.622-95.479,15.729-96.097l0.116-0.476c0.094-0.323,9.615-32.982,22.53-95.421
			c3.323-36.065-2.452-63.212-17.174-80.685c-13.356-15.857-34.652-24.722-65.116-27.099c-2.738-0.215-5.479-0.321-8.133-0.321
			c-16.074,0-38.227,3.878-52.493,22.349c-14.343,18.576-16.808,47.95-7.132,84.951
			C325.562,297.373,316.383,326.386,315.222,329.527z"/>
	</g>
	<g>
		<g>
			<path fill="#F8B77A" d="M299.058,168.648c1.553,0.198,148.026-15.871,148.026-15.871s-6.749-14.064-18.72-26.104
				c-3.44,0.374-122.136,11.782-122.136,11.782S299.213,154.018,299.058,168.648z"/>
		</g>
		<g>
			<path fill="#F8B77A" d="M307.665,226.981l146.316-16.139c0,0,0.64-28.733-0.437-29.576
				c-1.066-0.844-152.338,16.246-152.338,16.246L307.665,226.981z"/>
		</g>
		<g>
			<polygon fill="#F8B77A" points="318.255,285.99 440.705,272.706 447.603,242.088 314.278,256.542 			"/>
		</g>
		<g>
			<polygon fill="#F8B77A" points="311.899,345.328 427.109,332.828 432.953,302.327 318.532,314.734 			"/>
		</g>
		<g>
			<polygon fill="#F8B77A" points="302.308,406.117 417.027,393.669 422.062,363.253 305.821,375.855 			"/>
		</g>
		<g>
			<path fill="#F8B77A" d="M341.399,460.511c0,0,48.122-5.306,51.96-5.632c13.782-9.078,18.461-31.871,18.461-31.871
				s-106.128,11.602-108.773,11.788C305.53,456.088,341.399,460.511,341.399,460.511z"/>
		</g>
	</g>
	<g>
		<path fill="#27140E" d="M410.876,373.271c-2.094,0-4.104-1.143-5.123-3.129c-1.444-2.828-0.326-6.283,2.497-7.733
			c0.455-0.233,37.527-19.622,43.846-50.983c3.333-16.543-2.503-33.896-17.352-51.57c-0.074-0.088-0.146-0.178-0.212-0.266
			c-20.384-27.447-45.835-51.059-54.062-58.427c-8.9,4.265-36.779,19.702-74.696,60.664c-11.508,12.438-16.545,25.53-14.959,38.911
			c3.418,28.863,35.691,50.711,36.018,50.929c2.638,1.759,3.35,5.328,1.587,7.972c-1.756,2.637-5.332,3.355-7.969,1.586
			c-1.511-1.011-37.017-25.067-41.054-59.135c-1.988-16.88,4.041-33.05,17.943-48.068c48.309-52.197,80.841-64.498,82.205-64.997
			c1.939-0.71,4.131-0.322,5.71,1.032c1.343,1.151,33.092,28.492,58.401,62.539c17.145,20.459,23.771,41.04,19.695,61.159
			c-7.462,36.849-48.14,58.007-49.867,58.894C412.646,373.072,411.751,373.271,410.876,373.271z"/>
	</g>
	<g>
		<line fill="none" x1="383.387" y1="169.553" x2="380.985" y2="195.576"/>
		<path fill="#27140E" d="M380.994,201.322c-0.175,0-0.354-0.009-0.534-0.024c-3.159-0.292-5.483-3.09-5.191-6.25l2.401-26.022
			c0.292-3.162,3.068-5.465,6.247-5.198c3.164,0.292,5.485,3.092,5.195,6.252l-2.402,26.022
			C386.438,199.083,383.928,201.322,380.994,201.322z"/>
	</g>
</g>
</svg>
