<?xml version="1.0" encoding="utf-8"?>
<!-- Generator: Adobe Illustrator 16.0.0, SVG Export Plug-In . SVG Version: 6.00 Build 0)  -->
<!DOCTYPE svg PUBLIC "-//W3C//DTD SVG 1.1//EN" "http://www.w3.org/Graphics/SVG/1.1/DTD/svg11.dtd">
<svg version="1.1" id="Layer_1" xmlns="http://www.w3.org/2000/svg" xmlns:xlink="http://www.w3.org/1999/xlink" x="0px" y="0px"
	 width="500px" height="500px" viewBox="0 0 500 500" enable-background="new 0 0 500 500" xml:space="preserve">
<g id="Layer_1_copy_71">
	<g>
		<path fill="#F2D440" d="M37.393,216.738c0,0,17.573,48.55,12.948,94.792c-4.622,46.242-7.863,58.261,21.732,70.742
			c29.592,12.49,55.484,11.102,65.661-10.631c10.173-21.729,26.817-26.818,42.079-25.433c15.256,1.39,37.919,3.702,42.077,30.058
			c4.163,26.358,24.045,28.202,51.788,27.284l143.805,2.306c0,0,54.101,11.563,52.713-28.203
			c-1.385-39.766,5.551-110.51,5.551-112.364c0-1.847,7.401-19.417-35.606-48.55c-43.003-29.13-61.961-46.7-61.961-46.7
			s-6.163-8.787-22.656,3.234c-19.055,13.888-62.423-22.812-38.379-40.226c3.865-2.551,0-5.086-10.635-12.485
			c-10.639-7.399-65.201-32.831-65.201-32.831s-9.706-14.796-51.785,2.775c-42.078,17.572-115.599,43.465-152.13,86.005
			C23.497,196.738,37.393,216.738,37.393,216.738z"/>
		<path fill="#3C2517" d="M433.977,410.364c-8.463,0-15.318-1.271-16.815-1.571l-143.526-2.307
			c-3.078,0.111-6.195,0.176-9.199,0.176c-19.702,0-41.085-2.312-45.452-29.939c-3.55-22.482-20.678-25.877-39.435-27.582
			c-17.684-1.591-31.042,6.428-39.151,23.75c-6.196,13.243-18.151,20.241-34.563,20.241l0,0c-10.349,0-22.093-2.737-34.904-8.147
			c-29.795-12.562-28.422-25.957-24.336-65.685l0.822-8.063c4.321-43.174-11.223-89.016-12.68-93.19
			c-1.873-2.97-13.572-23.106,0.233-43.202c0.06-0.084,0.126-0.169,0.192-0.25c32.53-37.878,92.64-62.212,136.535-79.979
			c5.95-2.41,11.557-4.679,16.691-6.824c14.027-5.857,26.092-8.828,35.855-8.828c12.061,0,17.272,4.496,18.932,6.394
			c6.399,2.988,54.789,25.675,65.017,32.788l0.896,0.624c8.849,6.153,12.507,8.699,12.464,12.311
			c-0.021,1.728-0.963,3.216-2.787,4.422c-5.237,3.798-6.94,8.858-4.963,14.973c3.752,11.573,19.384,22.93,31.558,22.93
			c3.314,0,6.148-0.845,8.433-2.507c6.281-4.579,11.997-6.899,16.996-6.899c5.734,0,8.693,2.981,9.557,4.031
			c1.95,1.77,21.245,19.039,61.446,46.274c18.822,12.746,40.503,31.909,36.957,50.81l-0.069,0.381
			c0.012,0.173-0.062,1.061-0.438,5.438c-1.549,18.094-6.271,73.152-5.104,106.62c0.327,9.354-2.21,16.894-7.541,22.415
			C459.026,406.766,448.092,410.364,433.977,410.364z M273.584,400.605l143.942,2.307c0.189,0.006,0.382,0.027,0.568,0.064
			c0.069,0.016,7.151,1.498,15.881,1.498c8.707,0,20.521-1.488,27.387-8.597c4.182-4.326,6.164-10.427,5.896-18.121
			c-1.182-33.823,3.561-89.149,5.118-107.329c0.253-2.945,0.414-4.775,0.429-5.193c0-0.199,0.048-0.621,0.158-1.205
			c2.309-12.303-9.935-28.231-34.473-44.854c-42.694-28.925-62.119-46.803-62.312-46.979c-0.149-0.143-0.289-0.297-0.407-0.47
			c-0.019-0.022-1.482-1.847-4.985-1.847c-3.673,0-8.352,1.997-13.53,5.771c-3.309,2.412-7.31,3.634-11.896,3.638
			c-14.601,0-32.657-13.121-37.157-27.001c-2.758-8.51-0.246-16.144,7.068-21.52c-1.376-1.487-5.357-4.259-9.545-7.17l-0.896-0.624
			c-10.316-7.169-64.222-32.324-64.766-32.579c-0.495-0.231-0.917-0.595-1.215-1.05l0,0c-0.003,0-3.432-4.499-14.607-4.499
			c-8.983,0-20.285,2.817-33.59,8.373c-5.155,2.153-10.781,4.431-16.754,6.849C130.617,117.589,71.351,141.58,39.73,178.305
			c-12.451,18.3-0.051,36.571,0.081,36.755c0.145,0.209,0.262,0.437,0.35,0.675c0.728,2.012,17.742,49.714,13.104,96.085
			l-0.817,8.082c-4.054,39.418-5.019,48.785,20.767,59.66c12.09,5.103,23.059,7.688,32.618,7.688l0,0
			c14.167,0,24.001-5.669,29.236-16.85c10.577-22.604,27.68-27.346,40.158-27.346c1.586,0,3.216,0.073,4.85,0.225
			c15.021,1.363,40.158,3.646,44.722,32.522c3.296,20.888,17.029,24.979,39.637,24.979
			C267.375,400.782,270.426,400.708,273.584,400.605z"/>
	</g>
	<g>
		<path fill="#3C2517" d="M448.464,261.755c-0.288,0-0.577-0.034-0.868-0.128c-258.447-79.625-382.625-40.653-383.849-40.242
			c-1.549,0.503-3.204-0.334-3.711-1.876c-0.511-1.542,0.322-3.205,1.868-3.711c1.237-0.411,126.902-40.055,387.425,40.206
			c1.552,0.48,2.423,2.125,1.945,3.684C450.886,260.949,449.722,261.755,448.464,261.755z"/>
	</g>
	<g>
		<path fill="#D7B529" d="M387.89,304.824c0,24.135-20.496,43.699-45.778,43.699s-45.773-19.564-45.773-43.699
			c0-24.129,20.491-43.696,45.773-43.696C367.394,261.127,387.89,280.695,387.89,304.824z"/>
		<path fill="#3C2517" d="M342.11,351.462c-26.86,0-48.714-20.921-48.714-46.639c0-25.714,21.854-46.636,48.714-46.636
			c26.865,0,48.72,20.922,48.72,46.636C390.83,330.542,368.977,351.462,342.11,351.462z M342.11,264.068
			c-23.619,0-42.834,18.283-42.834,40.756c0,22.474,19.215,40.759,42.834,40.759c23.621,0,42.835-18.285,42.835-40.759
			C384.945,282.352,365.731,264.068,342.11,264.068z"/>
	</g>
	<g>
		<path fill="#D7B529" d="M255.645,302.512c0,8.559-7.558,15.493-16.878,15.493c-9.32,0-16.875-6.935-16.875-15.493
			c0-8.558,7.555-15.488,16.875-15.488C248.087,287.023,255.645,293.955,255.645,302.512z"/>
		<path fill="#3C2517" d="M238.766,320.945c-10.929,0-19.815-8.266-19.815-18.434c0-10.16,8.887-18.432,19.815-18.432
			c10.926,0,19.817,8.271,19.817,18.432C258.583,312.68,249.691,320.945,238.766,320.945z M238.766,289.963
			c-7.683,0-13.935,5.63-13.935,12.549c0,6.926,6.252,12.547,13.935,12.547c7.684,0,13.937-5.621,13.937-12.547
			C252.702,295.593,246.449,289.963,238.766,289.963z"/>
	</g>
	<g>
		<path fill="#D7B529" d="M307.896,183.68c0,6.765-7.975,12.253-17.801,12.253c-9.832,0-17.805-5.488-17.805-12.253
			c0-6.77,7.973-12.258,17.805-12.258C299.923,171.422,307.896,176.911,307.896,183.68z"/>
		<path fill="#3C2517" d="M290.096,198.874c-11.638,0-20.748-6.677-20.748-15.194c0-8.525,9.11-15.199,20.748-15.199
			c11.63,0,20.741,6.674,20.741,15.199C310.837,192.197,301.726,198.874,290.096,198.874z M290.096,174.366
			c-8.058,0-14.863,4.262-14.863,9.314c0,5.043,6.807,9.309,14.863,9.309c8.056,0,14.857-4.266,14.857-9.309
			C304.953,178.628,298.15,174.366,290.096,174.366z"/>
	</g>
	<g>
		<path fill="#D7B529" d="M221.891,152.929c0,13.533-16.561,24.506-36.994,24.506c-20.429,0-36.989-10.973-36.989-24.506
			c0-13.535,16.561-24.508,36.989-24.508C205.33,128.42,221.891,139.394,221.891,152.929z"/>
		<path fill="#3C2517" d="M184.896,180.375c-22.016,0-39.93-12.312-39.93-27.447c0-15.136,17.914-27.449,39.93-27.449
			c22.021,0,39.935,12.313,39.935,27.449C224.831,168.063,206.917,180.375,184.896,180.375z M184.896,131.363
			c-18.773,0-34.045,9.674-34.045,21.564c0,11.893,15.271,21.566,34.045,21.566s34.054-9.673,34.054-21.566
			C218.95,141.038,203.671,131.363,184.896,131.363z"/>
	</g>
	<g>
		<path fill="#D7B529" d="M182.122,273.588c0,15.975-13.04,28.924-29.127,28.924s-29.134-12.949-29.134-28.924
			c0-15.979,13.047-28.925,29.134-28.925S182.122,257.611,182.122,273.588z"/>
		<path fill="#3C2517" d="M152.995,305.457c-17.688,0-32.074-14.298-32.074-31.868c0-17.573,14.387-31.865,32.074-31.865
			c17.68,0,32.067,14.292,32.067,31.865C185.062,291.159,170.675,305.457,152.995,305.457z M152.995,247.604
			c-14.446,0-26.189,11.66-26.189,25.984c0,14.328,11.743,25.982,26.189,25.982c14.435,0,26.187-11.654,26.187-25.982
			C179.182,259.264,167.43,247.604,152.995,247.604z"/>
	</g>
</g>
</svg>
