<?xml version="1.0" encoding="utf-8"?>
<!-- Generator: Adobe Illustrator 16.0.0, SVG Export Plug-In . SVG Version: 6.00 Build 0)  -->
<!DOCTYPE svg PUBLIC "-//W3C//DTD SVG 1.1//EN" "http://www.w3.org/Graphics/SVG/1.1/DTD/svg11.dtd">
<svg version="1.1" id="Layer_1" xmlns="http://www.w3.org/2000/svg" xmlns:xlink="http://www.w3.org/1999/xlink" x="0px" y="0px"
	 width="500px" height="500px" viewBox="0 0 500 500" enable-background="new 0 0 500 500" xml:space="preserve">
<g id="Layer_1_copy_62">
	<g>
		<path fill="#E7E7E7" d="M131.202,442.662c-3.63,12.251,18.583,20.918,26.77,23.588c8.19,2.676,29.946,6.356,25.408-21.776
			c-4.541-28.128,5.155-49.677,6.396-52.851c6.638-16.992,45.697-50.93,45.697-50.93l10.971-61.814l-46.261,18.451
			c0,0-27.05,48.473-42.554,57.277c-15.505,8.799-22.788,14.955-51.141,17.774c-28.359,2.815-19.226,22.905-14.547,30.136
			c4.68,7.232,18.753,26.479,29.662,19.832c0,0,13.229-8.729,11.414,5.79C131.202,442.662,131.202,442.662,131.202,442.662
			L131.202,442.662"/>
		<path fill="#3C2517" d="M168.611,471.209L168.611,471.209c-4.895,0-9.384-1.227-11.618-1.953
			c-10.072-3.29-32.954-12.495-28.891-27.229l1.783-14.281c0.45-3.632-0.276-4.577-0.36-4.676c-0.119-0.136-0.443-0.167-0.695-0.167
			c-1.681,0-4.261,1.279-5.494,2.086c-2.089,1.275-4.271,1.895-6.582,1.895c-11.557,0-23.054-15.842-27.46-22.653
			c-2.111-3.256-8.646-14.619-4.159-23.931c3.009-6.251,10.086-9.974,21.042-11.062c24.225-2.405,32.299-7.129,44.525-14.271
			c1.699-0.996,3.475-2.029,5.367-3.107c12.083-6.858,33.947-42.797,41.355-56.069c0.354-0.629,0.913-1.125,1.586-1.392
			l46.261-18.457c1.063-0.422,2.278-0.24,3.166,0.482c0.889,0.729,1.314,1.875,1.113,3.006l-10.966,61.816
			c-0.131,0.712-0.496,1.357-1.041,1.83c-0.386,0.334-38.548,33.624-44.827,49.691l-0.288,0.721
			c-8.336,20.455-7.826,38.743-5.934,50.48c1.549,9.613,0.322,16.854-3.65,21.52C179.657,469.23,174.735,471.209,168.611,471.209z
			 M128.83,416.594c2.81,0,4.506,1.248,5.429,2.301c1.827,2.066,2.445,5.218,1.893,9.639l-1.815,14.521
			c-0.018,0.171-0.056,0.338-0.106,0.506c-2.316,7.822,11.869,15.497,24.722,19.688c1.513,0.498,5.486,1.648,9.66,1.648l0,0
			c4.275,0,7.447-1.18,9.427-3.5c2.715-3.191,3.465-8.716,2.227-16.419c-2.022-12.537-2.568-32.059,6.313-53.872l0.259-0.633
			c6.368-16.293,39.799-46.211,45.723-51.421l9.783-55.144L202.39,299.85c-4.061,7.168-28.185,48.979-43.201,57.5
			c-1.866,1.062-3.62,2.086-5.302,3.062c-12.472,7.296-21.489,12.564-47.083,15.111c-8.615,0.854-13.993,3.379-15.98,7.514
			c-2.43,5.043,0.357,12.482,3.771,17.764c5.901,9.118,15.246,19.766,22.162,19.766c1.149,0,2.201-0.299,3.209-0.91
			C120.353,419.396,124.719,416.594,128.83,416.594z"/>
	</g>
	<g>
		<path fill="#88451E" d="M177.358,333.118c0,0,21.492-66.942,24.214-120.935c0,0,0.91-129.304,112.516-171.497
			c111.61-42.197,133.384,58.526,127.489,96.637c-5.899,38.11-25.863,106.617-79.849,134.747
			c-53.993,28.13-100.483,46.986-112.972,57.125c-9.97,8.101-33.588,29.969-33.588,29.969s-3.519-28.641-5.56-32.587
			C207.467,322.432,177.358,333.118,177.358,333.118z"/>
		<path fill="#3C2517" d="M215.17,362.322c-0.363,0-0.731-0.065-1.08-0.193c-1.117-0.406-1.907-1.4-2.052-2.58
			c-1.559-12.665-3.733-26.859-4.941-30.757c-0.14-0.007-0.299-0.01-0.495-0.01c-6.212,0-22.453,5.278-28.186,7.312
			c-1.127,0.404-2.394,0.125-3.255-0.709c-0.863-0.837-1.176-2.086-0.809-3.23c0.214-0.665,21.398-67.184,24.065-120.131
			c0.007-1.175,2.216-131.821,114.553-174.288c18.157-6.866,34.989-10.344,50.027-10.344c24.055,0,43.667,8.649,58.286,25.699
			c22.692,26.482,26.438,65.171,23.411,84.714c-3.733,24.138-20.649,105.355-81.509,137.069
			c-23.506,12.243-45.979,22.922-64.043,31.502c-23.256,11.047-41.625,19.775-48.399,25.277
			c-9.776,7.936-33.191,29.611-33.427,29.828C216.724,362.031,215.953,362.322,215.17,362.322z M206.602,322.465
			c1.099,0,4.439,0,5.814,2.662c1.684,3.266,3.856,18.109,5.112,27.573c7.368-6.769,21.857-19.962,29.238-25.954
			c7.358-5.975,25.104-14.404,49.667-26.073c18.015-8.56,40.436-19.208,63.84-31.401c58.224-30.345,74.562-109.033,78.185-132.429
			c2.732-17.69-0.808-54.957-21.966-79.641c-13.367-15.592-31.365-23.498-53.494-23.498c-14.274,0-30.354,3.344-47.792,9.937
			C206.877,84.593,204.738,210.932,204.73,212.205c-2.248,44.58-17.286,98.3-22.552,115.949
			C189.245,325.863,200.692,322.465,206.602,322.465z"/>
	</g>
	<g>
		<path fill="#88451E" d="M342.218,49.761c0,0-83.024,28.584-102.534,115.692"/>
		<path fill="#3C2517" d="M239.684,168.611c-0.226,0-0.459-0.025-0.691-0.077c-1.703-0.382-2.773-2.066-2.391-3.769
			c19.666-87.817,103.743-117.701,104.59-117.992c1.647-0.567,3.438,0.313,4.01,1.958c0.567,1.648-0.309,3.446-1.957,4.018
			c-0.812,0.276-81.599,29.094-100.482,113.396C242.435,167.611,241.131,168.611,239.684,168.611z"/>
	</g>
</g>
</svg>
