<?xml version="1.0" encoding="utf-8"?>
<!-- Generator: Adobe Illustrator 16.0.0, SVG Export Plug-In . SVG Version: 6.00 Build 0)  -->
<!DOCTYPE svg PUBLIC "-//W3C//DTD SVG 1.1//EN" "http://www.w3.org/Graphics/SVG/1.1/DTD/svg11.dtd">
<svg version="1.1" id="Layer_1" xmlns="http://www.w3.org/2000/svg" xmlns:xlink="http://www.w3.org/1999/xlink" x="0px" y="0px"
	 width="500px" height="500px" viewBox="0 0 500 500" enable-background="new 0 0 500 500" xml:space="preserve">
<g id="Layer_1_copy_20">
	<g>
		<path fill="#97663A" d="M214.329,237.609c0,0-31.457-3.143-37.746,0c-6.291,3.147-19.774,0.901-26.064,0
			c-6.294-0.896-26.516,4.493-36.85,10.788c-10.336,6.291-29.212,8.537-35.054,9.438c-5.843,0.894-21.122,1.345-23.364,12.133
			c-2.25,10.784-3.596,12.13-10.787,16.617c-7.188,4.493-39.614,31.237,22.02,45.837c36.584,8.663,61.005,9.168,69.61,9.887
			c17.353,1.448,58.932-2.904,66.104-3.558c9.445-0.862,39.766-1.385,49.094,0.41c9.319,1.799,34.022-6.291,42.563-5.843
			c8.531,0.449,22.916,3.597,31.904,0.449c8.986-3.145,48.979-4.941,41.788-15.276c-7.187-10.339,11.235-17.526-59.764-51.671
			C236.798,232.668,214.329,237.609,214.329,237.609z"/>
		<path fill="#3C2517" d="M144.737,344.782c-3.459,0-6.431-0.103-8.825-0.304c-1.206-0.101-2.723-0.194-4.547-0.309
			c-10.97-0.699-33.798-2.145-65.384-9.628c-23.768-5.63-36.698-13.847-38.44-24.421c-2.289-13.924,15.584-25.273,15.767-25.387
			c6.763-4.221,7.708-5.147,9.808-15.213c2.299-11.051,15.647-12.67,22.825-13.539c0.885-0.106,1.679-0.2,2.344-0.305l1.996-0.296
			c6.967-1.012,23.273-3.384,32.256-8.853c10.795-6.569,31.547-12.046,38.291-11.081l1.304,0.187
			c3.846,0.562,9.655,1.41,14.847,1.41c3.881,0,6.783-0.467,8.628-1.387c1.398-0.699,4.325-1.627,13.558-1.627
			c10.259,0,22.981,1.175,25.084,1.376c0.576-0.088,1.804-0.232,3.774-0.232c8.726,0,35.04,2.896,90.711,29.675
			c55.916,26.896,57.455,37.722,58.693,46.42c0.322,2.263,0.578,4.051,1.915,5.974c1.662,2.386,1.364,4.394,0.83,5.655
			c-2.398,5.609-14.334,7.879-30.933,10.479c-5.363,0.841-10.429,1.63-12.762,2.447c-2.89,1.012-6.435,1.506-10.832,1.506
			c-0.006,0-0.006,0-0.006,0c-4.77,0-9.823-0.582-14.282-1.094c-2.798-0.32-5.438-0.628-7.617-0.739
			c-3.509-0.178-10.142,1.225-17.206,2.711c-9.869,2.072-20.256,4.135-25.653,3.096c-3.844-0.742-12.41-1.164-23.498-1.164
			c-9.519,0-20.028,0.326-24.988,0.778l-3.078,0.293C189.198,342.191,162.332,344.782,144.737,344.782z M148.907,239.697
			c-7.382,0-24.919,4.972-34.106,10.562c-9.741,5.928-26.053,8.301-33.894,9.442l-1.957,0.286c-0.708,0.111-1.548,0.216-2.486,0.328
			c-6.515,0.791-17.416,2.109-19.076,10.096c-2.358,11.293-4.067,13.22-11.77,18.023c-4.344,2.713-15.287,11.775-13.773,20.979
			c1.405,8.549,13.562,15.77,35.139,20.883c31.229,7.396,53.809,8.829,64.659,9.518c1.859,0.119,3.406,0.215,4.634,0.32
			c2.273,0.189,5.12,0.285,8.461,0.285c17.386,0,44.1-2.578,54.156-3.548l3.105-0.296c5.154-0.471,15.592-0.799,25.384-0.799
			c6.67,0,18.704,0.16,24.322,1.238c0.766,0.152,1.714,0.226,2.824,0.226c5.378,0,13.371-1.677,21.106-3.304
			c7.399-1.555,14.349-2.994,18.331-2.797c2.315,0.121,5.021,0.435,7.889,0.764c4.344,0.498,9.267,1.063,13.784,1.063
			c0,0,0,0,0.005,0c3.9,0,6.972-0.409,9.394-1.258c2.706-0.95,7.72-1.731,13.527-2.646c9.072-1.416,25.961-4.059,27.592-7.879
			c0.066-0.162,0.23-0.543-0.398-1.447c-1.927-2.779-2.296-5.356-2.653-7.854c-1.029-7.267-2.447-17.219-56.267-43.1
			c-54.856-26.394-80.387-29.245-88.817-29.245c-2.217,0-3.231,0.202-3.243,0.206c-0.213,0.042-0.452,0.057-0.665,0.034
			c-0.141-0.012-14.006-1.384-24.95-1.384c-8.068,0-10.733,0.729-11.604,1.167c-2.494,1.243-5.953,1.847-10.582,1.847
			c-5.512,0-11.506-0.874-15.475-1.452l-1.295-0.19C149.834,239.715,149.397,239.697,148.907,239.697z"/>
	</g>
	<g>
		<path fill="#8A4B22" d="M81.314,287.486c0,0-2.251,9.883-4.946,12.134c-2.694,2.246-4.94,4.94,2.476,8.088
			c7.412,3.144,14.154,0.444,16.846-4.044c2.698-4.497-0.444-11.24-2.691-12.135C90.748,290.629,83.914,279.191,81.314,287.486z"/>
		<path fill="#3C2517" d="M85.252,311.25L85.252,311.25c-2.418,0-4.862-0.518-7.265-1.535c-2.492-1.057-5.868-2.812-6.309-5.801
			c-0.426-2.869,2.082-4.965,3.291-5.971c1.316-1.096,3.212-6.53,4.216-10.943c1.221-3.911,3.334-4.698,4.903-4.698
			c2.92,0,5.541,2.821,7.855,5.306c0.682,0.734,1.616,1.734,1.958,1.943c1.966,0.776,3.509,3.455,4.265,5.689
			c1.171,3.474,0.951,6.951-0.603,9.544C95.172,308.771,90.451,311.25,85.252,311.25z M84.094,286.665
			c0.006,0.021-0.34,0.315-0.701,1.472c-0.356,1.604-2.523,10.566-5.628,13.159c-1.677,1.396-1.768,1.897-1.768,1.983
			c0,0.009,0.3,0.977,3.698,2.418c1.858,0.791,3.728,1.188,5.557,1.188l0,0c3.676,0,6.96-1.665,8.567-4.349
			c1.113-1.85,0.718-4.15,0.38-5.359c-0.581-2.09-1.627-3.416-2.033-3.634c-0.992-0.396-1.896-1.333-3.414-2.964
			C87.661,289.413,85.118,286.68,84.094,286.665z"/>
	</g>
	<g>
		<path fill="#603A17" d="M147.372,262.327c-2.513,0.97-11.685,7.641-5.843,11.231c5.843,3.596,11.232,0,17.078,0
			c5.838,0,9.434-4.945,8.537-8.988C166.243,260.529,161.303,256.934,147.372,262.327z"/>
		<path fill="#3C2517" d="M147.258,277.337L147.258,277.337c-2.524,0-4.77-0.628-6.872-1.919c-2.809-1.73-3.041-4.045-2.927-5.273
			c0.443-4.846,7.389-9.183,9.13-9.854c4.925-1.905,9.172-2.874,12.623-2.874c7.738,0,9.613,4.671,10.061,6.679
			c0.571,2.569-0.141,5.336-1.954,7.598c-2.067,2.57-5.241,4.05-8.711,4.05c-1.737,0-3.479,0.368-5.321,0.759
			C151.351,276.916,149.348,277.337,147.258,277.337z M159.212,261.779c-2.907,0-6.63,0.867-11.054,2.582
			c-1.646,0.636-6.161,4.074-6.354,6.185c-0.016,0.188-0.054,0.589,0.866,1.155c1.418,0.869,2.874,1.271,4.588,1.271
			c1.634,0,3.324-0.355,5.12-0.74c1.982-0.418,4.036-0.854,6.229-0.854c2.139,0,4.075-0.882,5.307-2.418
			c0.966-1.204,1.379-2.667,1.102-3.914C164.416,262.346,161.526,261.779,159.212,261.779z"/>
	</g>
	<g>
		<path fill="#8A4B22" d="M192.756,257.381c0,0-5.391,0-4.94,5.398c0.451,5.39,0.899,8.748,4.94,4.599
			C196.804,263.225,199.951,259.18,192.756,257.381z"/>
		<path fill="#3C2517" d="M189.916,271.418L189.916,271.418c-3.568,0-3.927-4.302-4.275-8.461c-0.228-2.773,0.774-4.5,1.657-5.462
			c2.057-2.229,5.118-2.295,5.458-2.295c0.179,0,0.356,0.021,0.531,0.067c1.214,0.299,4.904,1.225,5.771,4.283
			c0.912,3.2-1.84,6.374-4.736,9.348C192.626,270.641,191.266,271.418,189.916,271.418z M192.536,259.579
			c-0.518,0.058-1.488,0.274-2.039,0.886c-0.42,0.469-0.585,1.167-0.509,2.133c0.083,1.012,0.235,2.827,0.475,3.957
			c0.198-0.172,0.441-0.396,0.733-0.695c3.578-3.676,3.756-4.801,3.665-5.111C194.819,260.59,194.291,260.062,192.536,259.579z"/>
	</g>
	<g>
		<path fill="#603A17" d="M240.397,271.764c0,0-10.24,0.45-7.37,8.09c2.874,7.633,8.647,9.877,14.296,10.775
			c5.651,0.9,12.59-1.962,9.122-6.143c-3.471-4.188-5.338-8.629-9.122-9.332C243.54,274.46,240.397,271.764,240.397,271.764z"/>
		<path fill="#3C2517" d="M249.478,292.979L249.478,292.979c-0.851,0-1.69-0.067-2.497-0.192
			c-5.215-0.83-12.543-2.996-15.994-12.164c-1.243-3.304-0.456-5.576,0.418-6.906c2.479-3.745,8.248-4.102,8.897-4.131
			c0.528-0.043,1.091,0.163,1.513,0.524c0.027,0.018,2.771,2.324,5.903,2.901c3.597,0.666,5.679,3.604,7.888,6.718
			c0.787,1.109,1.597,2.254,2.521,3.367c1.991,2.397,1.479,4.489,0.991,5.521C257.703,291.628,253.256,292.979,249.478,292.979z
			 M239.739,274.02c-1.417,0.193-3.819,0.778-4.698,2.104c-0.169,0.265-0.688,1.056,0.031,2.963
			c2.604,6.917,7.825,8.634,12.592,9.388c0.582,0.092,1.19,0.143,1.813,0.143l0,0c3.105,0,5.333-1.1,5.689-1.855
			c0.113-0.24-0.314-0.775-0.4-0.883c-1.027-1.238-1.925-2.505-2.724-3.625c-1.82-2.572-3.265-4.607-5.119-4.949
			C243.749,276.718,241.021,274.958,239.739,274.02z"/>
	</g>
	<g>
		<path fill="#8A4B22" d="M295.2,271.764c-4.044-0.898-8.989-2.199-3.597,3.393c5.395,5.596,6.296,8.13,12.584,9.33
			c6.291,1.197,11.689-4.031,6.517-7.027C305.535,274.46,295.2,271.764,295.2,271.764z"/>
		<path fill="#3C2517" d="M306.041,286.843L306.041,286.843c-0.754,0-1.513-0.071-2.262-0.213
			c-5.694-1.087-7.659-3.272-10.913-6.892c-0.81-0.899-1.728-1.92-2.832-3.066c-2.228-2.312-3.55-4.23-2.759-6.089
			c0.283-0.674,1.091-1.808,3.268-1.808c1.309,0,2.995,0.382,4.626,0.746l0.503,0.11c0.512,0.132,10.766,2.827,16.127,5.94
			c2.49,1.443,3.611,3.68,2.996,5.975C313.97,284.617,310.286,286.843,306.041,286.843z M293.064,273.525
			c0.033,0.037,0.07,0.08,0.108,0.117c1.147,1.189,2.095,2.242,2.938,3.183c2.996,3.329,4.233,4.709,8.486,5.519
			c0.477,0.092,0.958,0.139,1.441,0.139l0,0c2.652,0,4.34-1.324,4.538-2.064c0.112-0.419-0.787-0.966-0.965-1.068
			c-4.857-2.819-14.862-5.447-14.966-5.474l-0.438-0.095C293.839,273.695,293.447,273.607,293.064,273.525z"/>
	</g>
	<g>
		<path fill="#8B5F3D" d="M297.899,309.068c-5.614-2.756-13.933-4.961-12.587,2.231c1.347,7.19,1.347,6.29,8.99,8.091
			c7.64,1.795,15.729,4.938,13.48,0C305.535,314.447,300.764,310.475,297.899,309.068z"/>
		<path fill="#3C2517" d="M306.238,324.223L306.238,324.223c-2.062,0-4.922-0.762-8.233-1.64c-1.371-0.364-2.793-0.74-4.2-1.069
			c-0.869-0.203-1.643-0.373-2.326-0.525c-6.278-1.379-6.976-2.159-8.31-9.285c-0.433-2.314-0.09-4.163,1.017-5.5
			c1.062-1.281,2.688-1.928,4.823-1.928c3.677,0,8.114,1.979,9.853,2.834c2.969,1.461,8.319,5.69,10.912,11.377
			c0.744,1.643,0.765,3.029,0.062,4.125C309.146,323.68,307.933,324.223,306.238,324.223z M289.009,308.634
			c-0.862,0-1.323,0.187-1.465,0.358c-0.174,0.209-0.288,0.818-0.087,1.908c0.924,4.939,0.924,4.939,4.961,5.826
			c0.699,0.155,1.489,0.33,2.383,0.539c1.448,0.34,2.915,0.727,4.321,1.1c2.399,0.639,4.866,1.292,6.451,1.455
			c-2.076-4.153-6.242-7.617-8.638-8.795C293.889,309.527,290.924,308.634,289.009,308.634z"/>
	</g>
	<g>
		<path fill="#8A4B22" d="M202.642,287.486c0,0-18.477,4.488-14.854,14.824c3.623,10.338,17.554,12.586,23.396,9.887
			c5.842-2.692,11.688-7.941,6.295-11.834C212.084,296.473,199.05,293.773,202.642,287.486z"/>
		<path fill="#3C2517" d="M205.508,315.427L205.508,315.427c-7.686,0-16.777-3.831-19.777-12.396
			c-0.96-2.732-0.769-5.371,0.571-7.833c3.706-6.819,15.333-9.716,15.827-9.833c0.848-0.211,1.733,0.109,2.258,0.806
			c0.524,0.699,0.581,1.638,0.152,2.394c-0.403,0.705-0.357,1.092-0.278,1.354c0.57,1.779,4.677,3.679,7.976,5.203
			c2.444,1.133,4.755,2.201,6.514,3.476c2.765,1.991,3.167,4.262,3.015,5.812c-0.498,5.157-7.525,8.784-9.669,9.769
			C210.331,314.994,208.051,315.427,205.508,315.427z M199.947,290.609c-3.497,1.285-8.131,3.582-9.811,6.675
			c-0.733,1.354-0.833,2.762-0.289,4.304c2.276,6.512,9.716,9.477,15.66,9.477l0,0c1.89,0,3.576-0.299,4.759-0.848
			c3.911-1.803,6.986-4.479,7.153-6.229c0.023-0.221,0.091-0.906-1.224-1.853c-1.422-1.026-3.543-2.011-5.794-3.053
			c-4.495-2.082-9.145-4.233-10.295-7.837C200.047,291.051,199.988,290.842,199.947,290.609z"/>
	</g>
	<g>
		<path fill="#8B5F3D" d="M134.342,296.775c0,0-10.339,6.186-2.699,9.679c7.641,3.496,12.137,5.044,11.686,0
			C142.88,301.416,141.529,294.837,134.342,296.775z"/>
		<path fill="#3C2517" d="M141.032,311.861L141.032,311.861c-2.354,0-5.558-1.254-10.299-3.426
			c-3.226-1.478-4.001-3.511-4.078-4.959c-0.235-4.279,5.426-7.891,6.565-8.574c0.171-0.104,0.357-0.18,0.551-0.231
			c1.037-0.282,2.034-0.422,2.957-0.422c7.697,0,8.508,9.039,8.773,12.011c0.162,1.874-0.198,3.27-1.114,4.272
			C143.833,311.139,142.8,311.861,141.032,311.861z M135.2,298.809c-2.074,1.309-4.244,3.414-4.188,4.43
			c0.015,0.27,0.497,0.757,1.539,1.23c2.314,1.061,6.617,3.029,8.48,3.029l0,0c0.045,0,0.083,0,0.116,0
			c0.027-0.156,0.043-0.422,0.004-0.854c-0.629-7.08-2.588-8.035-4.424-8.035C136.269,298.611,135.755,298.677,135.2,298.809z"/>
	</g>
	<g>
		<path fill="#8B5F3D" d="M101.532,263.309c-3.376,1.287-6.287,5.5-2.243,7.65s8.537,1.596,9.438-1.723
			C109.623,265.923,103.607,262.521,101.532,263.309z"/>
		<path fill="#3C2517" d="M104.051,274.422L104.051,274.422c-1.899,0-3.898-0.533-5.789-1.536c-2.105-1.125-3.245-2.954-3.115-5.017
			c0.19-3.004,2.964-5.592,5.61-6.6c2.489-0.937,6.833,1,8.929,3.738c1.165,1.521,1.573,3.229,1.147,4.799
			C110.062,272.654,107.46,274.422,104.051,274.422z M102.257,265.375c-1.489,0.559-2.702,1.932-2.756,2.768
			c-0.003,0.109-0.025,0.444,0.811,0.891c1.243,0.66,2.57,1.025,3.739,1.025l0,0c0.819,0,2.244-0.184,2.57-1.392
			c0.061-0.222-0.092-0.601-0.399-1.004C105.207,266.336,103.147,265.375,102.257,265.375z"/>
	</g>
	<g>
		<path fill="#B27E4C" d="M413.731,256.734c0,0-22.081-19.946-26.686-27.133c-4.603-7.18-15.311-12.167-25.854-15.372
			c-10.546-3.2-23.958-11.243-33.393-15.455c-9.431-4.204-27.935-21.392-29.625-23.334c-1.696-1.942-3.329-13.224-51.713-13.987
			c-23.167,1.923-27.322-3.698-27.322-3.698s-8.517-8.511-17.838-3.102c-9.328,5.413-14.96,6.256-20.385,6.173
			c-5.427-0.084-18.918,3.622-21.026,9.845c-2.11,6.222-8.534,12.258-8.386,14.949c0.148,2.699,3.471,10.198,6.272,16.858
			c2.801,6.651,20.733,17.872,57.459,39.926c36.729,22.049,47.524,24.922,57.426,30.895c9.904,5.975,13.531,9.235,29.967,14.268
			c16.436,5.045,26.113,8.634,35.477,15.254c9.356,6.623,34.719,16.824,50.001,19.269c15.287,2.448,9.32,3.019,19.352,7.172
			c10.03,4.155,39.519,10.351,47.945,4.121c8.431-6.226,13.346-5.196,5.466-18.282c-7.876-13.082-9.02-18.697-13.699-26.672
			C442.496,280.455,420.253,258.816,413.731,256.734z"/>
		<path fill="#3C2517" d="M442.983,338.207c-0.006,0-0.006,0-0.006,0c-12.806-0.003-29.339-4.029-36.355-6.934
			c-3.892-1.61-5.583-2.771-6.819-3.61c-1.839-1.259-2.854-1.95-12.041-3.422c-16.114-2.576-41.469-12.957-50.918-19.644
			c-9.03-6.39-18.438-9.91-34.854-14.945c-14.041-4.303-19.089-7.442-26.071-11.791c-1.354-0.84-2.781-1.732-4.382-2.693
			c-3.322-2.003-6.704-3.631-11.39-5.88c-8.707-4.187-21.866-10.511-46.028-25.015c-39.097-23.475-55.32-33.75-58.354-40.949
			l-1.079-2.565c-3.239-7.644-5.215-12.467-5.353-15.018c-0.117-2.067,1.438-4.272,3.593-7.321c1.835-2.604,3.919-5.557,4.899-8.449
			c2.661-7.845,17.664-11.327,22.912-11.327l0.848,0.007c5.094,0,10.21-1,18.622-5.884c2.395-1.391,4.948-2.098,7.589-2.098
			c7.261,0,12.662,5.313,12.89,5.542c0.076,0.076,0.148,0.16,0.213,0.247l0,0c0.015,0,3.231,3.212,16.573,3.212
			c2.699,0,5.663-0.133,8.811-0.396c45.179,0.707,51.036,10.544,53.24,14.253c0.123,0.198,0.213,0.369,0.312,0.491
			c1.742,2.007,20.052,18.838,28.857,22.765c3.334,1.49,7.107,3.42,11.103,5.465c7.192,3.683,15.345,7.861,22.035,9.894
			c9.414,2.859,21.753,8.005,27.056,16.28c4.104,6.413,23.305,23.961,25.998,26.413c7.588,3.037,29.313,24.205,34.175,32.483
			c2.044,3.483,3.451,6.57,4.938,9.836c2.008,4.406,4.281,9.396,8.747,16.815c6.872,11.415,4.934,14.113-1.9,18.401
			c-1.233,0.775-2.638,1.652-4.14,2.763C453.944,337.173,449.33,338.207,442.983,338.207z M180.881,163.006
			c-5.462,0-17.312,3.619-18.926,8.363c-1.181,3.497-3.56,6.861-5.469,9.567c-1.152,1.634-2.729,3.869-2.802,4.61
			c0.111,1.928,2.832,8.351,5.018,13.513l1.088,2.569c2.593,6.158,23.102,18.803,56.57,38.899
			c23.995,14.407,37.041,20.675,45.677,24.825c4.609,2.217,8.255,3.969,11.752,6.078c1.615,0.973,3.068,1.877,4.432,2.726
			c6.957,4.329,11.553,7.19,25.049,11.323c16.872,5.176,26.572,8.826,36.096,15.558c8.886,6.291,33.783,16.446,49.089,18.896
			c9.738,1.559,11.274,2.391,13.812,4.127c1.134,0.775,2.552,1.744,6.028,3.187c6.507,2.694,22.604,6.595,34.685,6.599h0.005
			c6.716,0,9.757-1.209,11.125-2.216c1.635-1.209,3.108-2.133,4.413-2.95c5.131-3.22,5.788-3.633,0.481-12.455
			c-4.596-7.632-6.925-12.744-8.98-17.256c-1.501-3.301-2.803-6.146-4.729-9.439c-4.689-7.988-26.676-28.939-32.226-30.711
			c-0.296-0.096-0.569-0.252-0.797-0.461c-0.914-0.819-22.354-20.229-27.061-27.575c-4.588-7.157-15.938-11.813-24.653-14.463
			c-7.062-2.147-15.398-6.416-22.753-10.182c-3.941-2.019-7.667-3.927-10.89-5.364c-9.743-4.345-28.413-21.632-30.386-23.897
			c-0.227-0.263-0.473-0.635-0.756-1.113c-4.523-7.603-21.125-11.681-49.345-12.125c-3.053,0.262-6.14,0.399-8.959,0.399
			c-14.65,0-18.948-3.657-19.933-4.792c-0.539-0.51-4.668-4.208-9.743-4.208c-1.862,0-3.679,0.509-5.396,1.505
			c-9.804,5.69-15.798,6.478-20.815,6.478l-0.7-0.009h-0.001V163.006z"/>
	</g>
	<g>
		<path fill="#8A4B22" d="M224.271,204.818c0,0-6.471-7.808-12.874-8.697c-6.406-0.893-5.504,5.34-3.527,10.271
			c1.976,4.926,5.994,6.043,10.171,5.641c4.174-0.403,6.799-1.255,6.515-4.239C224.271,204.818,224.271,204.818,224.271,204.818z"/>
		<path fill="#3C2517" d="M216.53,214.291c-5.131,0-8.83-2.452-10.688-7.089c-1.357-3.379-2.558-8.032-0.559-10.992
			c0.843-1.248,2.637-2.771,6.415-2.25c7.162,0.995,13.962,9.118,14.246,9.464c0.282,0.339,0.453,0.749,0.495,1.186l0.289,2.976
			c0.551,5.751-5.782,6.36-8.481,6.618C217.671,214.26,217.098,214.291,216.53,214.291z M210.24,198.216
			c-1.045,0-1.267,0.327-1.338,0.441c-0.559,0.825-0.468,3.284,0.992,6.921c1.189,2.969,3.299,4.348,6.636,4.348
			c0.43,0,0.863-0.022,1.301-0.064c4.687-0.453,4.607-1.296,4.553-1.859l-0.22-2.288c-2.011-2.258-6.861-6.85-11.067-7.435
			C210.787,198.238,210.503,198.216,210.24,198.216z"/>
	</g>
	<g>
		<path fill="#603A17" d="M256.059,178.584c0,0-8.243-4.326-6.265,0.6c1.979,4.93,0.029,5.42,3.927,8.955
			c3.896,3.539,3.01,9.951,8.461,7.313c5.463-2.635,11.938-0.997,12.694-5.66c0.757-4.66,2.045-6.891-3.165-7.894
			c-5.215-1.008-8.947,0.855-10.541-0.194C259.57,180.655,256.059,178.584,256.059,178.584z"/>
		<path fill="#3C2517" d="M259.973,198.254c-3.117,0-4.342-2.619-5.32-4.725c-0.635-1.36-1.293-2.771-2.398-3.774
			c-2.798-2.539-3.201-4.018-3.527-6.158c-0.142-0.928-0.3-1.973-0.954-3.595c-0.643-1.597-0.616-2.924,0.075-3.95
			c0.357-0.521,1.209-1.402,2.95-1.402c2.333,0,5.638,1.668,6.275,2.002c0.096,0.054,3.606,2.129,5.254,3.201
			c-0.009-0.015,0.104,0,0.312,0c0.521,0,1.131-0.076,1.827-0.16c2-0.236,5.025-0.445,7.655,0.065
			c6.637,1.277,5.854,5.367,5.223,8.655c-0.104,0.536-0.212,1.109-0.312,1.729c-0.724,4.432-4.869,5.15-8.199,5.732
			c-1.923,0.335-3.906,0.677-5.701,1.547C261.968,197.98,260.936,198.254,259.973,198.254z M252.169,179.302
			c0.556,1.596,0.733,2.751,0.871,3.633c0.216,1.426,0.287,1.905,2.146,3.588c1.754,1.597,2.678,3.573,3.418,5.162
			c0.434,0.931,1.026,2.205,1.369,2.205c0.127,0,0.508-0.038,1.256-0.402c2.347-1.129,4.742-1.547,6.854-1.916
			c3.672-0.635,4.455-0.996,4.638-2.128c0.109-0.662,0.228-1.277,0.334-1.851c0.598-3.098,0.598-3.098-1.76-3.554
			c-2.098-0.403-4.484-0.228-6.312-0.012c-0.896,0.107-1.681,0.19-2.347,0.19c-0.69,0-1.725-0.068-2.667-0.688
			c-1.57-1.026-5.023-3.064-5.023-3.064C254.268,180.112,253.139,179.614,252.169,179.302z"/>
	</g>
	<g>
		<path fill="#8B5F3D" d="M261.493,228.928c-0.681,2.372-3.472,4.545,0.685,7.157c4.154,2.608,5.863-2.368,5.207-4.112
			C266.719,230.232,262.877,224.096,261.493,228.928z"/>
		<path fill="#3C2517" d="M264.383,239.008L264.383,239.008c-1.097,0-2.229-0.361-3.365-1.076c-4.86-3.052-3.052-6.621-2.185-8.335
			c0.233-0.471,0.46-0.908,0.562-1.269c0.848-2.958,2.657-3.399,3.662-3.399c3.687,0,6.344,6.204,6.365,6.268
			c0.596,1.578,0.201,3.912-0.938,5.561C267.482,238.206,266.023,239.008,264.383,239.008z M263.491,229.848
			c-0.216,0.631-0.505,1.205-0.769,1.718c-0.861,1.703-0.877,1.734,0.612,2.672c0.586,0.368,0.927,0.407,1.047,0.407h0.003
			c0.079,0,0.221-0.004,0.438-0.273c0.453-0.566,0.56-1.43,0.506-1.672C265.036,231.934,264.188,230.623,263.491,229.848z"/>
	</g>
	<g>
		<path fill="#8A4B22" d="M318.325,231.657c-1.542,0.559-5.8,2.292-9.746,5.082c-3.945,2.786-5.948,3.888-4.739,7.082
			c1.209,3.191,5.774,2.754,8.168,4.629c2.392,1.877,7.349,6.515,8.256,3.421c0.912-3.099,1.39-4.374,0.859-9.879
			C320.591,236.492,322.929,229.977,318.325,231.657z"/>
		<path fill="#3C2517" d="M319.01,255.09L319.01,255.09c-2.167,0-4.509-1.781-7.345-4.109c-0.363-0.299-0.706-0.582-1.002-0.812
			c-0.609-0.475-1.646-0.787-2.745-1.122c-2.227-0.669-4.998-1.498-6.12-4.454c-1.726-4.559,1.271-6.652,4.733-9.081l0.787-0.556
			c4.382-3.093,8.958-4.876,10.259-5.347c2.308-0.848,3.952-0.046,4.641,0.688c1.425,1.505,1.288,3.842,1.117,6.8
			c-0.092,1.565-0.187,3.188-0.042,4.686c0.524,5.455,0.126,7.104-0.821,10.309l-0.116,0.396
			C321.878,254.114,320.63,255.09,319.01,255.09z M319.048,233.713c-0.891,0.327-5.208,1.98-9.21,4.808l-0.802,0.563
			c-3.68,2.581-3.608,2.763-3.154,3.96c0.337,0.896,1.472,1.278,3.295,1.825c1.368,0.41,2.919,0.882,4.178,1.862
			c0.321,0.254,0.688,0.551,1.084,0.874c0.899,0.745,2.794,2.3,3.956,2.889c0.723-2.447,1.004-3.675,0.56-8.293
			c-0.18-1.832-0.069-3.702,0.025-5.356C319.036,235.873,319.116,234.523,319.048,233.713z"/>
	</g>
	<g>
		<path fill="#603A17" d="M340.124,273.742c0.319,7.4,2.916,8.445,5.801,10.277c2.885,1.816,1.577,0.744,5.712,3.051
			c4.14,2.312,8.279,1.613,5.623-4.141c-2.662-5.768-7.566-3.188-8.202-3.729c-0.636-0.54-1.73-2.539-3.271-6.002
			C344.255,269.732,339.877,268.047,340.124,273.742z"/>
		<path fill="#3C2517" d="M355.628,290.484c-1.539,0-3.283-0.521-5.055-1.508c-1.908-1.065-2.592-1.373-3.095-1.598
			c-0.695-0.312-1.168-0.539-2.718-1.518l-0.604-0.379c-3.438-2.125-5.893-4.205-6.212-11.646c-0.095-2.159,0.365-3.781,1.368-4.834
			c0.723-0.75,1.695-1.163,2.744-1.163c2.204,0,4.559,1.839,5.727,4.474c1.204,2.723,1.937,4.061,2.333,4.705
			c0.484-0.061,1.054-0.117,1.665-0.117c3.333,0,5.915,1.768,7.46,5.115c1.256,2.723,1.373,4.916,0.351,6.516
			C358.788,289.793,357.377,290.484,355.628,290.484z M342.375,272.348c-0.054,0.258-0.1,0.668-0.073,1.299
			c0.247,5.713,1.718,6.621,4.151,8.127l0.643,0.402c1.359,0.858,1.648,0.988,2.174,1.225c0.574,0.259,1.356,0.607,3.434,1.769
			c1.071,0.601,2.165,0.953,2.926,0.953c0.193,0,0.31-0.022,0.361-0.039c-0.058-0.067-0.021-0.74-0.711-2.237
			c-1.508-3.272-3.606-2.632-4.823-2.476c-0.421,0.058-0.78,0.092-1.049,0.092c-0.703,0-1.3-0.202-1.771-0.604
			c-0.695-0.596-1.646-1.83-3.839-6.776C343.392,273.17,342.781,272.602,342.375,272.348z"/>
	</g>
	<g>
		<path fill="#8B5F3D" d="M373.63,243.433c0,0-5.223,8.324-6.185,10.825c-0.967,2.504-1.092,4.322,0.573,5.973
			c1.661,1.643,5.651,2.459,7.474,2.584c1.816,0.129,5.044,5.533,6.26-0.602c1.217-6.133,0.32-6.046-1.087-11.33
			C379.251,245.607,375.964,239.612,373.63,243.433z"/>
		<path fill="#3C2517" d="M379.812,267.318c-1.496,0-2.743-0.943-3.742-1.699c-0.281-0.213-0.691-0.523-0.909-0.643
			c-1.813-0.156-6.436-0.98-8.678-3.197c-2.74-2.717-2.015-5.863-1.075-8.305c1.008-2.623,5.826-10.332,6.374-11.202
			c1.125-1.839,2.527-2.228,3.505-2.228c4.394,0,6.838,7.865,7.483,10.275c0.308,1.151,0.59,2.038,0.828,2.792
			c0.954,3.006,1.305,4.432,0.297,9.527C383.276,265.744,381.9,267.318,379.812,267.318z M375.433,244.668
			c-2.071,3.306-5.307,8.699-5.948,10.376c-0.929,2.397-0.574,2.995,0.07,3.634c1.034,1.023,4.241,1.834,6.09,1.959
			c1.186,0.086,2.138,0.805,3.061,1.5c0.193,0.148,0.453,0.346,0.696,0.514c0.063-0.213,0.14-0.494,0.213-0.863
			c0.832-4.195,0.619-4.864-0.172-7.354c-0.254-0.808-0.557-1.758-0.887-2.99C377.617,247.936,376.229,245.511,375.433,244.668z"/>
	</g>
	<g>
		<path fill="#8A4B22" d="M395.93,287.63c0,0-4.448,3.736-4.222,6.123c0.231,2.388-0.62,6.078,3.079,6.927
			c3.687,0.854,7.849,3.459,7.448-0.715c-0.402-4.17,1.327-1.869-0.513-5.338C399.884,291.162,397.743,285.885,395.93,287.63z"/>
		<path fill="#3C2517" d="M400.717,304.45L400.717,304.45c-1.24,0-2.597-0.452-4.031-0.929c-0.78-0.258-1.599-0.53-2.39-0.713
			c-4.664-1.072-4.698-5.281-4.717-7.541c-0.004-0.457-0.004-0.901-0.042-1.305c-0.316-3.277,3.739-6.956,4.991-8.006
			c0.707-0.688,1.572-0.854,2.156-0.854c2.678,0,4.255,3.139,6.083,6.775c0.301,0.598,0.593,1.186,0.882,1.727
			c0.991,1.871,1.479,2.912,0.817,4.425c-0.057,0.125-0.188,0.419-0.062,1.727c0.147,1.546-0.154,2.714-0.928,3.563
			C403.012,303.834,402.152,304.45,400.717,304.45z M396.672,289.893c-1.521,1.437-2.76,3.056-2.791,3.688
			c0.05,0.482,0.055,1.056,0.062,1.652c0.021,2.726,0.288,3.082,1.331,3.322c0.924,0.213,1.878,0.524,2.784,0.828
			c0.677,0.221,1.418,0.469,1.988,0.6c-0.146-1.735,0.026-2.659,0.267-3.312c-0.096-0.201-0.251-0.518-0.518-1.02
			c-0.3-0.569-0.611-1.187-0.924-1.81C398.311,292.723,397.366,290.854,396.672,289.893z"/>
	</g>
	<g>
		<path fill="#8B5F3D" d="M419.006,280.302c0,0-0.999,5.207,0.631,6.558c1.637,1.342,4.589,0.764,5.371-0.514
			c0.775-1.279,1.357-4.646-0.631-6.558C422.386,277.874,419.288,276.364,419.006,280.302z"/>
		<path fill="#3C2517" d="M422.009,289.809L422.009,289.809c-1.433,0-2.767-0.447-3.758-1.263c-2.327-1.927-1.784-6.514-1.411-8.532
			c0.281-3.213,2.216-4.359,3.952-4.359c2.114,0,4.098,1.604,5.094,2.562c2.728,2.618,2.322,7.062,0.984,9.265
			C426.007,288.896,424.101,289.809,422.009,289.809z M421.211,280.158c-0.012,0.087-0.023,0.188-0.03,0.3
			c-0.005,0.087-0.016,0.171-0.029,0.256c-0.347,1.812-0.358,4.036-0.023,4.567c0.1,0.062,0.472,0.164,0.882,0.164
			c0.654,0,1.106-0.231,1.193-0.315c0.293-0.497,0.745-2.726-0.338-3.771C422.195,280.716,421.603,280.344,421.211,280.158z"/>
	</g>
</g>
</svg>
