<?xml version="1.0" encoding="utf-8"?>
<!-- Generator: Adobe Illustrator 16.0.0, SVG Export Plug-In . SVG Version: 6.00 Build 0)  -->
<!DOCTYPE svg PUBLIC "-//W3C//DTD SVG 1.1//EN" "http://www.w3.org/Graphics/SVG/1.1/DTD/svg11.dtd">
<svg version="1.1" id="Layer_1" xmlns="http://www.w3.org/2000/svg" xmlns:xlink="http://www.w3.org/1999/xlink" x="0px" y="0px"
	 width="500px" height="500px" viewBox="0 0 500 500" enable-background="new 0 0 500 500" xml:space="preserve">
<g id="Layer_1_copy_98">
	<g>
		<g>
			<path fill="#E5AA78" d="M286.438,268.047c0,0-14.043,3.915-9.31,26.254c4.733,22.346,8.899,31.43,17.608,31.24
				c8.708-0.188,16.282-21.393,16.282-21.393S293.102,262.984,286.438,268.047z"/>
			<path fill="#27140E" d="M294.475,327.812c-10.619,0-14.925-11.125-19.565-33.037c-4.64-21.887,7.968-27.82,10.493-28.775
				c0.691-0.424,1.486-0.661,2.302-0.661c8.035,0,20.438,26.513,25.399,37.907l0.358,0.82l-0.303,0.851
				c-0.829,2.319-8.387,22.681-18.372,22.896H294.475L294.475,327.812z M287.703,269.886l-0.346,0.267l-0.306,0.076
				c-0.472,0.146-11.901,3.789-7.7,23.605c4.666,22.011,8.479,29.438,15.121,29.438h0.217c4.761-0.105,10.839-10.93,13.882-19.045
				C300.499,285.859,290.823,269.915,287.703,269.886z"/>
		</g>
		<g>
			<path fill="#E5AA78" d="M449.69,270.695c0,0,14.051,3.914,9.316,26.26c-4.735,22.339-8.897,31.429-17.608,31.234
				c-8.711-0.183-16.281-21.393-16.281-21.393S443.028,265.639,449.69,270.695z"/>
			<path fill="#27140E" d="M441.663,330.466h-0.313c-9.984-0.217-17.542-20.583-18.371-22.903l-0.307-0.842l0.362-0.83
				c4.959-11.396,17.36-37.897,25.394-37.897c0.821,0,1.612,0.229,2.31,0.661c2.521,0.953,15.129,6.889,10.493,28.768
				C456.587,319.343,452.283,330.466,441.663,330.466z M427.562,306.874c3.05,8.122,9.131,18.946,13.885,19.044l0.216,0.007
				c6.639,0,10.455-7.432,15.119-29.442c4.246-20.02-7.579-23.563-7.7-23.601l-0.415-0.118l-0.348-0.258
				C445.31,272.561,435.639,288.514,427.562,306.874z"/>
		</g>
		<g>
			<path fill="#FDCC9C" d="M297.386,284.083c0,0,1.896,12.685-0.757,26.692c-2.65,14.015-12.305,41.841,60.396,69.854
				c32.188,8.716,76.108-30.856,76.108-30.856s13.441-15.902,7.948-40.321c-5.489-24.421-0.436-25.369-0.436-25.369l1.901-29.046
				l-23.046-27.73l-104.696-1.323l-23.098,17.205L297.386,284.083z"/>
			<path fill="#27140E" d="M366.892,384.156L366.892,384.156c-3.679,0-7.194-0.445-10.459-1.331l-0.224-0.076
				c-70.973-27.347-65.285-55.284-62.23-70.295c0.15-0.731,0.293-1.429,0.42-2.097c2.545-13.479,0.763-25.815,0.744-25.94
				l-5.871-42.246l24.798-18.473l106.51,1.352l24.296,29.228l-2.075,31.716l-1.208,0.223c-0.483,0.863-2.185,5.419,1.71,22.742
				c5.674,25.228-7.854,41.604-8.437,42.286l-0.212,0.223C433.172,352.796,398.003,384.156,366.892,384.156z M357.732,378.471
				c2.841,0.76,5.924,1.144,9.158,1.144c28.466,0,62.237-29.341,64.593-31.415c1.11-1.407,12.314-16.318,7.384-38.245
				c-3.102-13.786-3.441-22.646-1.019-26.324c0.191-0.299,0.395-0.542,0.597-0.752l1.775-27.089l-21.799-26.226l-102.875-1.299
				l-21.4,15.944l5.491,39.562c0.076,0.508,1.911,13.207-0.775,27.431c-0.129,0.683-0.275,1.407-0.429,2.159
				C295.646,327.046,290.462,352.51,357.732,378.471z"/>
		</g>
		<g>
			<path fill="#392111" d="M283.812,228.476c0,0-6.873,39.517,13.572,55.606c-2.271-19.503,7.771-39.767,7.771-39.767
				S303.557,217.924,283.812,228.476z"/>
			<path fill="#27140E" d="M300.276,289.244l-4.296-3.378c-21.266-16.738-14.695-56.115-14.407-57.78l0.19-1.093l0.977-0.522
				c3.427-1.832,6.624-2.758,9.508-2.758c13.778,0,15.123,19.629,15.175,20.465l0.039,0.604l-0.27,0.54
				c-0.099,0.202-9.714,19.922-7.548,38.5L300.276,289.244z M285.885,229.967c-0.808,5.844-3.799,33.359,8.896,48.432
				c-0.088-16.207,6.561-31.316,8.055-34.507c-0.297-2.853-2.097-15.638-10.588-15.638
				C290.382,228.253,288.247,228.832,285.885,229.967z"/>
		</g>
		<g>
			<path fill="#392111" d="M452.662,229.793c0,0,6.871,39.523-13.572,55.614c2.271-19.505-7.767-39.767-7.767-39.767
				S432.918,219.247,452.662,229.793z"/>
			<path fill="#27140E" d="M436.202,290.575l0.631-5.427c2.162-18.584-7.449-38.311-7.547-38.505l-0.271-0.536l0.039-0.606
				c0.05-0.835,1.4-20.465,15.179-20.465c2.877,0,6.077,0.926,9.501,2.759l0.979,0.522l0.188,1.09
				c0.292,1.668,6.86,41.044-14.407,57.791L436.202,290.575z M433.639,245.215c1.49,3.183,8.146,18.292,8.061,34.508
				c12.69-15.074,9.699-42.592,8.892-48.433c-2.357-1.136-4.489-1.713-6.355-1.713C435.708,229.577,433.929,242.358,433.639,245.215
				z"/>
		</g>
		<g>
			<path fill="#4A9CD6" d="M282.865,200.76c0,0-31.672-6.416-34.51-25.728c17.608-9.274,28.584-31.237,28.584-31.237
				s49.985,1.704,89.551-31.052c57.174,38.057,87.088,28.59,87.088,28.59s6.248,27.643,32.943,31.237
				c-19.5,25.181-33.094,28.189-33.094,28.189L282.865,200.76L282.865,200.76z"/>
			<path fill="#27140E" d="M453.676,203.031l-171.259-0.042c-1.358-0.278-33.271-6.973-36.31-27.625l-0.231-1.588l1.42-0.752
				c16.767-8.832,27.507-30.029,27.612-30.245l0.652-1.302l1.453,0.049c0.024,0,0.441,0.013,1.205,0.013
				c8.338,0,51.706-1.473,86.822-30.544l1.303-1.076l1.404,0.937c38.24,25.452,64.04,29.249,76.021,29.249
				c5.994,0,9.102-0.934,9.133-0.94l2.333-0.717l0.559,2.382c0.239,1.066,6.261,26.156,31.03,29.492l3.903,0.526l-2.411,3.117
				c-19.772,25.536-33.809,28.886-34.4,29.019L453.676,203.031z M283.109,198.49h170.013c1.654-0.499,13.15-4.542,29.27-24.366
				c-20.523-4.765-28.308-23.655-30.397-30.112c-1.752,0.307-4.503,0.637-8.223,0.637c-12.344,0-38.67-3.807-77.139-29.084
				c-35.963,28.942-79.622,30.509-88.326,30.516c-2.598,4.785-12.461,21.538-27.408,30.144
				C254.729,191.816,280.5,197.911,283.109,198.49z"/>
		</g>
		<g>
			<path fill="#4266B0" d="M283.564,189.612c0,0,108.861-10.222,169.445,0l1.323,35.402c0,0,8.519,24.993-85.385,30.481
				c-74.972,0.376-89.949-32.257-87.464-32.728L283.564,189.612z"/>
			<path fill="#27140E" d="M367.664,257.766c-69.722,0-88.186-28.823-88.686-34.131c-0.062-0.676,0.053-1.254,0.285-1.713
				l2.158-34.389l1.936-0.181c0.482-0.048,49.063-4.556,98.799-4.556c29.276,0,53.242,1.54,71.229,4.576l1.825,0.307l1.383,36.994
				c0.291,1.198,0.767,4.782-2.226,9.233c-6.026,8.961-25.714,20.377-85.283,23.859H367.664z M283.688,223.928
				c2.065,5.663,21.295,29.299,83.978,29.299h1.279c60.632-3.554,77.191-15.214,81.652-21.853c2.227-3.315,1.597-5.607,1.588-5.628
				l-0.12-0.645l-1.255-33.549c-17.528-2.793-40.616-4.211-68.652-4.211c-43.924,0-86.94,3.529-96.441,4.361L283.688,223.928z"/>
		</g>
		<g>
			<path fill="#F89741" d="M453.578,209.516c-3.766,0-6.815,2.967-6.815,6.624c0,0-68.154,26.156-158.461,0
				c0-3.657-3.05-6.624-6.815-6.624c-3.769,0-6.815,2.967-6.815,6.624c0,3.661,3.048,6.628,6.815,6.628
				c2.199,0,4.139-1.034,5.386-2.608l0,0c0,0,78.29,29.416,161.402,0.097l0,0c1.251,1.519,3.148,2.511,5.305,2.511
				c3.769,0,6.814-2.967,6.814-6.628C460.394,212.483,457.347,209.516,453.578,209.516z"/>
			<path fill="#27140E" d="M369.639,235.536c-42.382,0-75.074-10.327-82.144-12.744c-1.655,1.442-3.771,2.246-6.009,2.246
				c-5.016,0-9.092-3.991-9.092-8.898c0-4.904,4.076-8.898,9.092-8.898c4.396,0,8.068,3.072,8.906,7.136
				c25.964,7.376,52.578,11.117,79.117,11.117c0,0,0.003,0,0.012,0c40.572-0.003,68.875-8.867,75.127-11.012
				c0.798-4.117,4.496-7.241,8.93-7.241c5.012,0,9.087,3.994,9.087,8.898c0,4.907-4.075,8.898-9.087,8.898
				c-2.185,0-4.268-0.776-5.907-2.166C423.345,231.276,397.098,235.536,369.639,235.536z M293.395,219.923
				c11.729,3.594,40.449,11.068,76.244,11.068c22.633,0,44.41-2.943,64.928-8.762c-13.218,3.42-35.858,7.808-65.044,7.808h-0.012
				C343.989,230.037,318.414,226.637,293.395,219.923z M449.032,217.606l0.997,1.205c0.881,1.069,2.174,1.682,3.549,1.682
				c2.507,0,4.545-1.95,4.545-4.354c0-2.404-2.038-4.353-4.545-4.353c-2.504,0-4.546,1.95-4.546,4.353V217.606L449.032,217.606z
				 M281.486,211.787c-2.508,0-4.547,1.95-4.547,4.353c0,2.403,2.039,4.354,4.547,4.354c1.41,0,2.727-0.634,3.604-1.741l0.939-1.188
				v-1.425C286.031,213.737,283.99,211.787,281.486,211.787z"/>
		</g>
		<g>
			<path fill="#F89741" d="M342.445,150.8c0,0,16.662,2.462,24.426-8.707c13.628,11.357,27.827,8.14,27.827,8.14v11.36
				c0,0-10.789,6.624-5.298,17.414c5.488,10.797,10.599,32-19.124,37.109c-25.558,0.948-31.237-25.177-22.339-36.158
				c4.543-9.086-1.33-16.094-5.492-18.365V150.8L342.445,150.8z"/>
			<path fill="#27140E" d="M368.936,218.415c-11.244,0-20.203-5.266-24.577-14.443c-4.058-8.512-3.371-18.842,1.647-25.236
				c3.949-8.184-1.997-13.701-4.646-15.15l-1.185-0.645v-14.764l2.598,0.376c0.018,0,1.455,0.206,3.621,0.206
				c4.885,0,13.793-1.034,18.609-7.965l1.417-2.034l1.905,1.588c7.966,6.638,16.087,8.031,21.496,8.031
				c2.685,0,4.362-0.359,4.385-0.362l2.759-0.61l0.007,15.454l-1.083,0.668c-0.361,0.223-8.92,5.698-4.466,14.45
				c2.358,4.635,7.301,16.508,2.251,26.577c-3.585,7.146-11.327,11.789-23.016,13.799l-0.299,0.031
				C369.88,218.404,369.402,218.415,368.936,218.415z M344.72,160.325c4.903,3.365,9.979,11.19,5.248,20.65l-0.264,0.415
				c-4.044,4.984-4.566,13.66-1.244,20.625c2.171,4.556,8,12.28,21.583,11.838c10.097-1.766,16.688-5.576,19.574-11.336
				c4.12-8.212-0.199-18.452-2.243-22.475c-4.688-9.215,0.762-16.47,5.053-19.653v-7.564c-0.741,0.062-1.619,0.104-2.604,0.104
				c-5.744,0-14.162-1.372-22.575-7.645c-6.838,7.721-17.658,8.203-22.527,7.983L344.72,160.325L344.72,160.325z"/>
		</g>
		<g>
			<path fill="#2A1B0E" d="M351.535,281.053c0,4.701-3.18,8.518-7.102,8.518s-7.102-3.815-7.102-8.518c0-4.71,3.18-8.52,7.102-8.52
				C348.355,272.534,351.535,276.343,351.535,281.053z"/>
			<path fill="#27140E" d="M344.435,291.842c-5.168,0-9.372-4.842-9.372-10.789c0-5.949,4.204-10.791,9.372-10.791
				c5.165,0,9.372,4.842,9.372,10.791C353.807,287,349.6,291.842,344.435,291.842z M344.435,274.805
				c-2.665,0-4.827,2.801-4.827,6.248c0,3.44,2.162,6.247,4.827,6.247c2.664,0,4.827-2.807,4.827-6.247
				C349.262,277.605,347.099,274.805,344.435,274.805z"/>
		</g>
		<g>
			<path fill="#2A1B0E" d="M398.958,281.053c0,4.701-3.18,8.518-7.099,8.518c-3.921,0-7.099-3.815-7.099-8.518
				c0-4.71,3.178-8.52,7.099-8.52C395.778,272.534,398.958,276.343,398.958,281.053z"/>
			<path fill="#27140E" d="M391.859,291.842c-5.165,0-9.372-4.842-9.372-10.789c0-5.949,4.207-10.791,9.372-10.791
				c5.169,0,9.368,4.842,9.368,10.791C401.229,287,397.028,291.842,391.859,291.842z M391.859,274.805
				c-2.661,0-4.827,2.801-4.827,6.248c0,3.44,2.166,6.247,4.827,6.247c2.66,0,4.826-2.807,4.826-6.247
				C396.688,277.605,394.521,274.805,391.859,274.805z"/>
		</g>
		<g>
			<path fill="#27140E" d="M292.781,315.796c-0.172,0-0.342-0.021-0.514-0.055c-3.103-0.718-5.111-2.062-6.139-4.117
				c-1.847-3.671,0.018-8.498,2.848-14.921c2.018-4.576,2.053-9.486,0.084-12.502c-0.992-1.52-2.34-2.293-4.012-2.293
				c-1.244,0-2.104,0.279-2.553,0.843c-0.743,0.92-0.572,2.655-0.45,3.196c0.265,1.221-0.498,2.433-1.713,2.711
				c-1.229,0.271-2.431-0.48-2.718-1.692c-0.102-0.425-0.907-4.229,1.311-7.028c0.934-1.177,2.747-2.576,6.123-2.576
				c3.211,0,5.986,1.547,7.818,4.359c2.828,4.334,2.929,10.782,0.269,16.814c-2.097,4.751-3.895,9.167-2.946,11.055
				c0.377,0.76,1.418,1.33,3.097,1.721c1.223,0.278,1.985,1.498,1.707,2.725C294.753,315.086,293.812,315.796,292.781,315.796z"/>
		</g>
		<g>
			<path fill="#27140E" d="M442.545,314.989c-1.035,0-1.972-0.712-2.212-1.763c-0.282-1.219,0.484-2.438,1.706-2.724
				c1.679-0.384,2.721-0.962,3.101-1.721c0.946-1.89-0.854-6.304-2.949-11.048c-2.661-6.039-2.562-12.481,0.269-16.821
				c1.828-2.808,4.604-4.354,7.822-4.354c3.371,0,5.186,1.399,6.118,2.57c2.22,2.801,1.406,6.61,1.308,7.035
				c-0.286,1.219-1.513,1.973-2.73,1.691c-1.217-0.285-1.972-1.504-1.692-2.724c0.118-0.536,0.286-2.271-0.452-3.188
				c-0.45-0.559-1.308-0.844-2.55-0.844c-1.676,0-3.023,0.772-4.021,2.291c-1.965,3.023-1.93,7.928,0.087,12.504
				c2.827,6.422,4.695,11.248,2.854,14.928c-1.031,2.055-3.041,3.398-6.145,4.109C442.883,314.975,442.715,314.989,442.545,314.989z
				"/>
		</g>
		<g>
			<path fill="#D52027" d="M342.445,332.62c0,0,21.879,22.413,50.226-0.377c-3.458-9.16-28.643-8.024-28.643-8.024L342.445,332.62z"
				/>
			<path fill="#27140E" d="M366.809,344.745c-0.005,0-0.005,0-0.005,0c-15.52,0-25.562-10.106-25.983-10.54
				c-0.529-0.542-0.756-1.322-0.593-2.066c0.16-0.746,0.684-1.357,1.396-1.638l21.579-8.399c0.232-0.091,0.478-0.14,0.725-0.152
				c0,0,1.031-0.042,2.716-0.042c9.167,0,25.019,1.233,28.151,9.534c0.349,0.914,0.066,1.957-0.699,2.569
				C385.239,341.129,376.059,344.745,366.809,344.745z M346.851,333.341c3.688,2.716,10.802,6.854,19.953,6.854h0.005
				c7.657,0,15.349-2.862,22.879-8.51c-2.927-3.226-11.573-5.237-23.044-5.237c-0.987,0-1.732,0.014-2.147,0.026L346.851,333.341z"
				/>
		</g>
		<g>
			<path fill="#27140E" d="M368.633,355.471c-10.121,0-13.924-5.726-14.088-5.982c-0.679-1.053-0.376-2.459,0.683-3.143
				c1.045-0.669,2.441-0.375,3.124,0.662c0.15,0.208,3.04,4.215,11.177,3.9c7.359-0.285,8.164-3.029,8.175-3.059
				c0.152-1.246,1.277-2.068,2.524-1.908c1.243,0.152,2.114,1.352,1.962,2.599c-0.085,0.661-1.138,6.472-12.486,6.91
				C369.34,355.464,368.978,355.471,368.633,355.471z"/>
		</g>
		<g>
			<path fill="#392111" d="M362.231,316.041c0,0-21.583,1.889-30.857,13.054c28.396,11.735,64.749,3.03,73.644,0
				c-7.438-7.493-20.354-13.054-27.45-13.054C372.732,316.041,362.231,316.041,362.231,316.041z"/>
			<path fill="#27140E" d="M365.133,337.326c0,0,0,0-0.003,0c-13.134,0-24.783-2.062-34.626-6.137l-2.854-1.168l1.972-2.377
				c9.77-11.765,31.491-13.791,32.411-13.869l15.533-0.012c7.457,0,20.914,5.522,29.062,13.735l2.557,2.576l-3.435,1.171
				C399.577,333.35,383.146,337.326,365.133,337.326z M335.411,328.209c8.602,3.037,18.577,4.566,29.719,4.566h0.003
				c14.488,0,27.858-2.639,35.361-4.686c-7.179-5.747-17.346-9.779-22.928-9.779h-15.335
				C362.225,318.318,344.858,319.948,335.411,328.209z"/>
		</g>
		<g>
			<path fill="#27140E" d="M369.579,313.812c-7.57,0-10.514-5.553-11.008-8.533c-0.209-1.232,0.63-2.403,1.866-2.611
				c1.229-0.225,2.398,0.619,2.611,1.846c0.094,0.508,1.062,4.752,6.541,4.752c0.084,0,0.164,0,0.258,0
				c5.852-0.141,6.293-4.377,6.308-4.558c0.11-1.247,1.193-2.181,2.463-2.062c1.25,0.104,2.177,1.213,2.064,2.459
				c-0.259,2.933-2.835,8.513-10.73,8.699C369.827,313.805,369.698,313.812,369.579,313.812z"/>
		</g>
	</g>
	<g>
		<g>
			<g>
				<polygon fill="#FDC176" points="30.186,276.518 29.064,228.957 81.884,207.566 192.657,228.957 192.657,282.634 
					181.241,320.805 99.87,337.5 40.195,314.516 				"/>
			</g>
			<g>
				<path fill="#27140E" d="M99.674,339.861l-0.622-0.243l-60.759-23.403l-10.378-39.641l-1.16-49.135l54.899-22.234l113.274,21.878
					l-0.098,56.199l-11.807,39.481L99.674,339.861z M42.097,312.816l57.968,22.322l79.387-16.285l10.933-36.555V230.83
					L82.111,209.92L31.37,230.476l1.083,45.722L42.097,312.816z"/>
			</g>
		</g>
		<g>
			<g>
				<path fill="#FCBD75" d="M29.064,228.957c0,0-17.132-14.69-18.563,8.296c-1.428,22.987,6.944,39.683,19.984,40.868l9.424-23.307
					L29.064,228.957z"/>
			</g>
			<g>
				<path fill="#27140E" d="M31.962,280.538l-1.679-0.154c-14.481-1.315-23.551-19.106-22.046-43.27
					c0.772-12.44,6.108-15.053,10.448-15.053c5.761,0,11.608,4.96,11.855,5.169l0.411,0.352L42.367,254.8L31.962,280.538z
					 M18.686,226.606c-3.479,0-5.469,3.629-5.914,10.787c-1.257,20.221,5.521,35.859,16.282,38.212l8.4-20.777l-10.267-24.471
					C25.547,229.069,21.775,226.606,18.686,226.606z"/>
			</g>
		</g>
		<g>
			<g>
				<path fill="#FCBD75" d="M192.787,228.957c0,0,17.132-14.69,18.56,8.296c1.428,22.987-6.938,39.683-19.984,40.868l-9.425-23.307
					L192.787,228.957z"/>
			</g>
			<g>
				<path fill="#27140E" d="M189.89,280.538L179.487,254.8l11.416-27.218l0.404-0.352c0.251-0.209,6.098-5.169,11.859-5.169
					c4.339,0,9.678,2.613,10.452,15.053c1.5,24.164-7.565,41.953-22.05,43.27L189.89,280.538z M184.396,254.828l8.4,20.777
					c10.763-2.354,17.539-17.991,16.285-38.212c-0.445-7.157-2.437-10.787-5.916-10.787c-3.09,0-6.865,2.463-8.503,3.751
					L184.396,254.828z"/>
			</g>
		</g>
		<g>
			<g>
				<path fill="#161616" d="M24.6,200.38c0-48.396,38.924-87.637,86.938-87.637c48.017,0,86.937,39.241,86.937,87.637"/>
			</g>
			<g>
				<path fill="#27140E" d="M200.749,200.38h-4.546c0-47.07-37.983-85.363-84.666-85.363c-46.684,0-84.667,38.293-84.667,85.363
					h-4.541c0-49.574,40.017-89.908,89.208-89.908S200.749,150.807,200.749,200.38z"/>
			</g>
		</g>
		<g>
			<g>
				<path fill="#303030" d="M212.649,210.122c0,10.399-7.545,18.834-16.85,18.834H29.064c-9.306,0-16.851-8.435-16.851-18.834l0,0
					c0-10.407,7.545-18.835,16.851-18.835H195.8C205.104,191.287,212.649,199.715,212.649,210.122L212.649,210.122z"/>
			</g>
			<g>
				<path fill="#27140E" d="M195.8,231.228H29.064c-10.546,0-19.12-9.469-19.12-21.105c0-11.64,8.574-21.109,19.12-21.109H195.8
					c10.546,0,19.12,9.469,19.12,21.109C214.92,221.758,206.346,231.228,195.8,231.228z M29.064,193.558
					c-8.038,0-14.575,7.429-14.575,16.564c0,9.132,6.537,16.564,14.575,16.564H195.8c8.038,0,14.575-7.433,14.575-16.564
					c0-9.135-6.537-16.564-14.575-16.564H29.064z"/>
			</g>
		</g>
		<g>
			<path fill="#303030" d="M198.578,245.876c-0.296-13.729-12.173-13.729-12.173-13.729H114.96h-5.122H38.391
				c0,0-11.876,0-12.169,13.729c-2.975,16.919,10.393,37.99,33.847,36.694c23.46-1.289,31.773,2.891,40.38-8.603
				c2.959-2.606,6.296-3.845,9.744-4.2c0.456-0.049,0.913-0.084,1.369-0.099c0.282-0.014,0.56-0.014,0.839-0.007
				c0.278-0.007,0.558-0.007,0.837,0.007c0.459,0.015,0.918,0.05,1.371,0.099c3.448,0.355,6.785,1.594,9.742,4.2
				c8.605,11.492,16.922,7.312,40.383,8.603C188.186,283.867,201.546,262.795,198.578,245.876z"/>
			<path fill="#27140E" d="M166.781,284.898L166.781,284.898c-0.718,0-1.441-0.016-2.174-0.057
				c-4.649-0.258-8.662-0.285-11.277-0.285c-1.48,0-2.884,0.008-4.215,0.021c-1.212,0.007-2.368,0.021-3.465,0.021
				c-9.992,0-16.546-0.613-22.969-9.068c-2.368-2.027-5.085-3.17-8.304-3.504c-0.399-0.034-0.814-0.069-1.229-0.084l-0.442-0.014
				l-0.272,0.006l-0.34-0.006l-0.425,0.014c-0.436,0.015-0.848,0.05-1.262,0.084c-3.208,0.334-5.928,1.477-8.289,3.504
				c-6.423,8.455-12.978,9.068-22.972,9.068c-1.098,0-2.254-0.014-3.463-0.021c-1.33-0.015-2.737-0.021-4.217-0.021
				c-2.616,0-6.628,0.027-11.273,0.285c-11.383,0.654-21.448-3.686-28.421-11.994c-6.484-7.719-9.396-17.875-7.819-27.194
				c0.353-12.476,9.586-15.777,14.437-15.777h148.015c4.855,0,14.089,3.302,14.441,15.777c1.576,9.327-1.339,19.483-7.823,27.2
				C186.501,280.621,177.181,284.898,166.781,284.898z M153.33,280.007c2.668,0,6.767,0.035,11.528,0.3
				c0.647,0.034,1.288,0.057,1.923,0.057l0,0c9.034,0,17.117-3.706,22.764-10.428c5.586-6.651,8.19-15.723,6.794-23.668
				l-0.031-0.342c-0.243-11.375-9.508-11.507-9.902-11.507H38.391c-0.975,0.014-9.661,0.432-9.897,11.507l-0.035,0.342
				c-1.393,7.941,1.209,17.008,6.791,23.654c6.047,7.203,14.771,10.931,24.694,10.388c4.757-0.266,8.853-0.301,11.524-0.301
				c1.493,0,2.907,0.016,4.249,0.021c1.2,0.015,2.343,0.021,3.431,0.021c9.883,0,14.411-0.669,19.482-7.444l0.32-0.343
				c3.092-2.724,6.794-4.319,11.005-4.758c0.516-0.048,1.018-0.084,1.519-0.104c0.196-0.006,0.408-0.014,0.621-0.014h0.34h0.272
				c0.212,0,0.425,0.008,0.637,0.014c0.484,0.021,0.986,0.058,1.487,0.104c4.221,0.438,7.928,2.034,11.02,4.758l0.318,0.343
				c5.07,6.775,9.601,7.444,19.481,7.444c1.091,0,2.232-0.007,3.431-0.021C150.422,280.021,151.839,280.007,153.33,280.007z"/>
		</g>
		<g>
			<g>
				<path fill="#FFFAF1" d="M71.032,268.41c0,0,24.268,4.158,19.747-8.943c-4.876-14.126-29.454-15.635-36.026-12.12
					C48.192,250.857,42.479,262.984,71.032,268.41z"/>
			</g>
			<g>
				<path fill="#27140E" d="M78.892,271.309h-0.003c-4.346,0-8.083-0.627-8.24-0.654c-18.09-3.441-22.711-9.606-23.411-14.168
					c-0.749-4.92,2.699-9.14,6.45-11.146c2.257-1.206,5.914-1.871,10.295-1.871c11.786,0,25.307,4.719,28.942,15.251
					c1.107,3.202,0.885,5.92-0.658,8.086C90.136,269.795,85.639,271.309,78.892,271.309z M71.457,266.182
					c0,0,3.493,0.586,7.432,0.586h0.003c4.972,0,8.499-0.949,9.673-2.6c0.243-0.335,0.968-1.352,0.066-3.965
					c-3.319-9.625-17.056-12.189-24.648-12.189c-4.172,0-6.948,0.69-8.156,1.331c-2.334,1.254-4.49,3.865-4.096,6.457
					C52.044,257.85,54.596,262.977,71.457,266.182L71.457,266.182z"/>
			</g>
		</g>
		<g>
			<g>
				<path fill="#FFFAF1" d="M155.375,268.41c0,0-24.27,4.158-19.744-8.943c4.869-14.126,29.45-15.635,36.019-12.12
					C178.218,250.857,183.926,262.984,155.375,268.41z"/>
			</g>
			<g>
				<path fill="#27140E" d="M147.514,271.309c-6.742,0-11.242-1.514-13.374-4.508c-1.539-2.158-1.762-4.877-0.658-8.08
					c3.633-10.532,17.152-15.25,28.938-15.25c4.389,0,8.045,0.665,10.302,1.871c3.749,2.006,7.196,6.228,6.444,11.146
					c-0.697,4.562-5.315,10.728-23.37,14.16C155.601,270.682,151.864,271.309,147.514,271.309z M162.42,248.015
					c-7.589,0-21.324,2.563-24.644,12.189c-0.898,2.612-0.175,3.63,0.062,3.965c1.177,1.649,4.701,2.599,9.675,2.599
					c3.971,0,7.442-0.586,7.478-0.593c16.818-3.196,19.371-8.323,19.682-10.372c0.396-2.592-1.763-5.203-4.096-6.457
					C169.372,248.705,166.593,248.015,162.42,248.015z"/>
			</g>
		</g>
		<g>
			<g>
				<path fill="#DBAA7C" d="M30.206,274.923c0,0,12.281,30.968,25.692,36.401c13.42,5.426,14.848,6.708,30.263,3.191
					c15.419-3.512,39.689-8.841,63.387,1.963c15.992,6.66,24.84-12.496,24.84-12.496l18.27-21.35l-2.855,37.627
					c0,0-20.842,36.715-59.674,44.696c-38.826,7.978-63.666-13.729-75.653-22.672C42.479,333.35,29.346,332.068,30.206,274.923z"/>
			</g>
			<g>
				<path fill="#27140E" d="M113.536,368.963c-27.817,0-46.579-14.312-57.793-22.867c-0.938-0.712-1.812-1.38-2.627-1.986
					c-1.337-0.994-2.695-1.895-4.04-2.793c-13.241-8.803-21.865-18.186-21.145-66.422l0.171-11.416l4.215,10.607
					c3.319,8.366,14.182,30.982,24.436,35.128l2.531,1.031c6.465,2.64,9.71,3.963,14.042,3.963c2.853,0,6.309-0.536,12.333-1.908
					c7.885-1.797,19.804-4.514,32.739-4.514c11.649,0,22.446,2.229,32.09,6.624c1.895,0.787,3.83,1.197,5.688,1.197
					c10.173,0,16.09-12.453,16.149-12.586l0.334-0.522l22.788-26.63l-3.417,45.074l-0.25,0.438
					c-0.87,1.539-21.81,37.696-61.193,45.798C124.848,368.357,119.114,368.963,113.536,368.963z M32.484,285.477
					c0.718,39.828,9.672,45.783,19.113,52.059c1.407,0.939,2.829,1.881,4.235,2.933c0.825,0.613,1.714,1.296,2.664,2.021
					c10.755,8.198,28.758,21.928,55.039,21.928c5.272,0,10.698-0.563,16.136-1.687c35.116-7.217,55.453-39.116,57.907-43.172
					l2.285-30.166l-13.562,15.847c-1.083,2.192-7.902,14.92-20.127,14.92c-2.459,0-4.984-0.537-7.502-1.581
					c-9.247-4.215-19.124-6.241-30.275-6.241c-12.421,0-24.042,2.64-31.729,4.396c-6.38,1.455-10.121,2.021-13.344,2.021
					c-5.224,0-8.968-1.526-15.759-4.298l-2.521-1.023C45.816,309.695,37.378,295.354,32.484,285.477z"/>
			</g>
		</g>
	</g>
</g>
</svg>
