<?xml version="1.0" encoding="utf-8"?>
<!-- Generator: Adobe Illustrator 16.0.0, SVG Export Plug-In . SVG Version: 6.00 Build 0)  -->
<!DOCTYPE svg PUBLIC "-//W3C//DTD SVG 1.1//EN" "http://www.w3.org/Graphics/SVG/1.1/DTD/svg11.dtd">
<svg version="1.1" id="Layer_1" xmlns="http://www.w3.org/2000/svg" xmlns:xlink="http://www.w3.org/1999/xlink" x="0px" y="0px"
	 width="500px" height="500px" viewBox="0 0 500 500" enable-background="new 0 0 500 500" xml:space="preserve">
<g id="Layer_1_copy_92">
	<g>
		<g>
			<path fill="#4E4E4E" d="M464.658,271.186c0,52.365-96.456,94.826-215.438,94.826c-119.02,0-215.47-42.461-215.47-94.826
				c0-52.395,96.45-94.864,215.47-94.864C368.202,176.322,464.658,218.791,464.658,271.186z"/>
			<path fill="#3C2517" d="M249.22,368.876c-120.392,0-218.334-43.824-218.334-97.69c0-53.888,97.942-97.729,218.334-97.729
				c120.368,0,218.301,43.842,218.301,97.729C467.521,325.052,369.588,368.876,249.22,368.876z M249.22,179.184
				c-117.234,0-212.607,41.272-212.607,92.001c0,50.709,95.373,91.965,212.607,91.965c117.212,0,212.573-41.256,212.573-91.965
				C461.793,220.456,366.433,179.184,249.22,179.184z"/>
		</g>
		<g>
			<path fill="#818181" d="M231.538,137.848c82.994-3.948,156.828,13.476,205.428,48.15c27.424,19.575,59.476,59.08,39.309,106.179
				c-3.819,8.919-8.938,18.763-15.725,26.531c-64.309,73.519-245.374,89.621-352.859,43.235c-36.9-15.922-67.872-37.161-81.57-67.81
				c-24.27-54.332,18.611-96.16,52.096-115.994c25.531-15.124,57.183-27.452,93.35-34.395
				C189.796,140.248,210.629,138.844,231.538,137.848z M172.556,183.054c-36.13,7.233-66.547,18.641-91.4,38.343
				c-9.601,7.619-24.601,24.977-24.562,41.3c0.041,19.229,14.987,32.638,27.518,42.24c64.971,49.858,199.133,59.276,287.995,25.566
				c27.197-10.332,73.702-33.702,73.702-67.809c0-19.653-15.688-34.611-30.461-45.236c-45.096-32.41-111.573-44.68-182.822-41.284
				C210.598,177.218,191.271,179.307,172.556,183.054z"/>
			<path fill="#3C2517" d="M250.399,390.895c-53.425,0-104.507-9.346-143.843-26.32c-43.427-18.737-70.59-41.396-83.052-69.271
				c-11.229-25.142-9.702-49.898,4.553-73.575c13.994-23.257,36.517-38.836,48.699-46.052
				c27.197-16.106,59.796-28.124,94.271-34.743c18.703-3.589,40.07-4.978,60.376-5.944c7.722-0.369,15.497-0.551,23.095-0.551
				c74.245,0,139.636,17.482,184.132,49.23c32.293,23.057,59.831,63.964,40.273,109.637c-4.95,11.553-10.249,20.478-16.199,27.285
				C424.768,363.958,343.418,390.895,250.399,390.895z M254.498,140.162c-7.508,0-15.189,0.187-22.825,0.548
				c-20.093,0.954-41.215,2.323-59.564,5.85c-33.838,6.495-65.796,18.268-92.431,34.044
				c-74.211,43.958-57.756,97.123-50.942,112.369c11.847,26.5,38.041,48.2,80.088,66.346c38.635,16.67,88.915,25.854,141.576,25.854
				c91.419,0,171.114-26.19,207.992-68.35c5.551-6.347,10.538-14.779,15.25-25.772c18.223-42.553-7.857-80.965-38.338-102.717
				C391.769,157.268,327.561,140.162,254.498,140.162z M252.434,353.293C252.434,353.293,252.438,353.293,252.434,353.293
				c-68.888,0-132.461-17.227-170.066-46.086c-14.135-10.838-28.593-24.602-28.638-44.507
				c-0.042-18.312,16.761-36.488,25.652-43.544c23.437-18.585,52.867-30.948,92.613-38.908c18.13-3.63,37.322-5.833,60.396-6.937
				c7.646-0.362,15.303-0.548,22.75-0.548c67.331,0,123.305,14.655,161.878,42.373c21.298,15.32,31.65,30.875,31.65,47.562
				c0,37.718-52.835,61.854-75.547,70.482C338.438,346.336,296.702,353.293,252.434,353.293z M255.141,178.49
				c-7.357,0-14.926,0.186-22.481,0.541c-22.777,1.086-41.697,3.254-59.541,6.833c-38.826,7.774-67.479,19.778-90.181,37.774
				c-9.458,7.508-23.517,24.102-23.482,39.049c0.038,17.422,13.366,29.986,26.395,39.979c36.64,28.114,98.914,44.899,166.585,44.899
				c42.961,0,85.1-7.008,118.652-19.736c21.605-8.205,71.855-30.979,71.855-65.133c0-14.707-9.573-28.748-29.27-42.911
				C376.082,192.77,321.266,178.49,255.141,178.49z"/>
		</g>
	</g>
	<g>
		<path fill="#EFD9B4" d="M274.782,316.436c0,0,42.294,20.965,80.892,0c38.59-20.965,37.571-40.531,37.571-40.531
			s-1.093-25.617-11.14-10.432c-10.048,15.193-21.675,31.055-37.536,32.641c-15.861,1.584-46.481,4.627-50.247,3.313
			C290.559,300.105,257.87,299.334,274.782,316.436z"/>
		<path fill="#D8B888" d="M317.549,329.331c-24.521,0-43.555-9.291-44.352-9.688l-0.537-0.265l-0.422-0.424
			c-5.172-5.228-6.934-9.933-5.244-13.983c2.812-6.734,14.029-7.738,20.462-7.738c2.765,0,6.328,0.213,8.049,0.816l0,0
			c0.038,0,0.722,0.12,2.866,0.12c9.624,0,33.185-2.353,45.843-3.616c14.204-1.42,25.033-16.117,34.907-31.052
			c1.823-2.757,4.691-6.415,8.565-6.415c7.251,0,8.833,11.693,9.133,18.668c0.045,0.857,0.676,22.036-39.439,43.831
			C345.47,326.052,332.065,329.331,317.549,329.331z M276.9,313.475c3.146,1.444,20.029,8.698,40.647,8.698
			c13.312,0,25.562-2.989,36.415-8.881c35.629-19.354,35.706-37.08,35.702-37.256c-0.2-4.576-1.237-9.683-2.261-11.478
			c-0.414,0.391-1.211,1.221-2.313,2.889c-10.825,16.369-22.841,32.492-40.167,34.229c-12.782,1.273-36.573,3.648-46.554,3.648
			c-3.283,0-4.454-0.252-5.228-0.523c-0.42-0.125-2.479-0.414-5.688-0.414c-8.595,0-13.28,1.951-13.854,3.338
			C273.35,308.332,273.783,310.207,276.9,313.475z"/>
	</g>
	<g>
		<path fill="#EFD9B4" d="M272.831,296.457c0,0,42.29,20.96,80.889,0c38.595-20.968,37.57-40.533,37.57-40.533
			s-1.089-25.618-11.139-10.432c-10.048,15.189-21.676,31.051-37.536,32.641c-15.858,1.583-46.479,4.622-50.247,3.309
			C288.604,280.122,255.915,279.354,272.831,296.457z"/>
		<path fill="#D8B888" d="M315.595,309.35c-24.521,0-43.555-9.295-44.353-9.688l-0.537-0.268l-0.418-0.424
			c-5.172-5.229-6.938-9.937-5.247-13.986c2.812-6.732,14.028-7.734,20.465-7.734c2.761,0,6.329,0.21,8.046,0.816l0,0
			c0.042,0,0.725,0.117,2.868,0.117c9.622,0,33.182-2.353,45.841-3.613c14.203-1.42,25.032-16.12,34.906-31.055
			c1.823-2.753,4.695-6.412,8.566-6.412c7.254,0,8.836,11.698,9.133,18.668c0.044,0.854,0.676,22.031-39.439,43.826
			C343.515,306.07,330.11,309.35,315.595,309.35z M274.945,293.494c3.15,1.441,20.029,8.697,40.648,8.697
			c13.311,0,25.562-2.988,36.415-8.883c35.629-19.354,35.706-37.078,35.706-37.259c-0.204-4.569-1.238-9.676-2.263-11.472
			c-0.413,0.39-1.214,1.217-2.316,2.885c-10.82,16.369-22.84,32.496-40.166,34.229c-12.783,1.276-36.574,3.647-46.552,3.647
			c-3.285,0-4.453-0.251-5.229-0.521c-0.422-0.125-2.479-0.414-5.686-0.414c-8.6,0-13.279,1.951-13.859,3.338
			C271.395,288.35,271.827,290.227,274.945,293.494z"/>
	</g>
	<g>
		<path fill="#EFD9B4" d="M272.831,279.527c0,0,42.29,20.969,80.889,0c38.595-20.959,37.57-40.523,37.57-40.523
			s-1.089-25.618-11.139-10.432c-10.048,15.188-21.676,31.055-37.536,32.637c-15.858,1.586-46.479,4.63-50.247,3.311
			C288.604,263.205,255.915,262.434,272.831,279.527z"/>
		<path fill="#D8B888" d="M315.595,292.425c-24.521,0-43.555-9.294-44.353-9.687l-0.537-0.269l-0.418-0.427
			c-5.172-5.223-6.938-9.928-5.247-13.977c2.812-6.735,14.03-7.742,20.476-7.742c2.754,0,6.314,0.217,8.032,0.812
			c-0.03-0.021,0.53,0.124,2.89,0.124c9.716,0,34.103-2.444,45.818-3.616c14.204-1.42,25.036-16.116,34.91-31.051
			c1.823-2.751,4.695-6.416,8.566-6.416c7.254,0,8.836,11.697,9.133,18.671c0.044,0.858,0.676,22.033-39.439,43.824
			C343.515,289.146,330.11,292.425,315.595,292.425z M274.945,276.57c3.146,1.441,20.029,8.697,40.648,8.697
			c13.311,0,25.562-2.986,36.415-8.885c35.616-19.343,35.716-37.022,35.706-37.194c-0.204-4.623-1.238-9.735-2.263-11.531
			c-0.413,0.389-1.214,1.216-2.316,2.885c-10.825,16.368-22.843,32.495-40.166,34.227c-12.742,1.275-36.461,3.65-46.534,3.65
			c-3.299,0-4.471-0.252-5.25-0.523c-0.414-0.119-2.469-0.414-5.67-0.414c-8.605,0-13.291,1.955-13.871,3.342
			C271.395,271.426,271.827,273.302,274.945,276.57z"/>
	</g>
	<g>
		<path fill="#EFD9B4" d="M267.979,263.908c0,0,42.294,20.968,80.887,0c38.595-20.967,37.57-40.525,37.57-40.525
			s-1.089-25.625-11.139-10.432c-10.042,15.189-21.674,31.048-37.536,32.633c-15.857,1.59-46.479,4.623-50.247,3.31
			C283.751,247.581,251.061,246.808,267.979,263.908z"/>
		<path fill="#D8B888" d="M310.739,276.809c-24.521,0-43.556-9.297-44.351-9.693l-0.535-0.268l-0.422-0.42
			c-5.17-5.232-6.936-9.937-5.242-13.986c2.811-6.732,14.027-7.739,20.463-7.739c2.763,0,6.324,0.214,8.045,0.817
			c0,0.003,0.555,0.121,2.871,0.121c9.684,0,34.103-2.441,45.838-3.614c14.203-1.423,25.032-16.117,34.904-31.051
			c1.822-2.754,4.694-6.419,8.569-6.419c7.251,0,8.833,11.701,9.13,18.671c0.044,0.855,0.676,22.033-39.437,43.826
			C338.661,273.527,325.261,276.809,310.739,276.809z M270.092,260.95c3.146,1.44,20.029,8.702,40.647,8.702
			c13.312,0,25.565-2.993,36.42-8.885c35.626-19.357,35.704-37.082,35.701-37.257c-0.198-4.571-1.234-9.677-2.263-11.477
			c-0.414,0.39-1.209,1.217-2.315,2.889c-10.825,16.365-22.839,32.492-40.166,34.223c-12.759,1.276-36.509,3.65-46.548,3.65
			c-3.285,0-4.455-0.252-5.233-0.521c-0.416-0.129-2.472-0.418-5.683-0.418c-8.596,0-13.282,1.955-13.86,3.342
			C266.54,255.807,266.979,257.678,270.092,260.95z"/>
	</g>
	<g>
		<path fill="#EFD9B4" d="M266.93,249.935c0,0,42.294,20.967,80.889,0c38.598-20.96,37.568-40.524,37.568-40.524
			s-1.089-25.622-11.134-10.432c-10.047,15.189-21.678,31.052-37.537,32.634c-15.859,1.589-46.479,4.63-50.249,3.309
			C282.704,233.608,250.013,232.835,266.93,249.935z"/>
		<path fill="#D8B888" d="M309.692,262.835c-24.521,0-43.558-9.297-44.354-9.69l-0.534-0.269l-0.42-0.425
			c-5.172-5.226-6.938-9.932-5.244-13.979c2.811-6.733,14.032-7.74,20.473-7.74c2.757,0,6.318,0.215,8.035,0.814
			c-0.037-0.01,0.531,0.121,2.883,0.121c9.722,0,34.108-2.441,45.83-3.613c14.199-1.42,25.031-16.117,34.905-31.051
			c1.822-2.755,4.691-6.416,8.566-6.416c7.251,0,8.833,11.697,9.13,18.668c0.043,0.855,0.682,22.033-39.438,43.828
			C337.612,259.555,324.212,262.835,309.692,262.835z M269.042,246.978c3.147,1.444,20.03,8.702,40.65,8.702
			c13.313,0,25.565-2.992,36.419-8.885c35.614-19.348,35.711-37.026,35.705-37.202c-0.204-4.623-1.241-9.732-2.267-11.529
			c-0.413,0.394-1.21,1.217-2.312,2.886c-10.825,16.368-22.845,32.492-40.166,34.223c-12.742,1.276-36.464,3.65-46.541,3.65
			c-3.297,0-4.469-0.251-5.244-0.521c-0.418-0.125-2.473-0.414-5.674-0.414c-8.605,0-13.291,1.955-13.87,3.341
			C265.492,241.834,265.93,243.709,269.042,246.978z"/>
	</g>
	<g>
		<path fill="#EFD9B4" d="M118.297,209.548c0,0-36.617-3.992-10.327,21.36c26.284,25.346,85.436,81.678,115.48,76.979
			c30.041-4.688,78.864-24.099,32.856-65.092c0,0,9.078-21.594,22.221,0c13.145,21.6,29.42,41.628-3.756,72.921
			c-33.171,31.292-93.197,17.527-99.175,7.509C169.62,313.21,73.23,238.104,78.863,219.322
			C84.497,200.547,115.169,185.378,118.297,209.548z"/>
		<path fill="#D8B888" d="M219.372,338.627c-21.371,0-42.387-6.087-46.848-13.568c-1.558-2.604-13.428-13.162-24.911-23.365
			c-43.473-38.647-76.396-69.329-72.176-83.396c3.895-12.987,18.567-24.805,30.785-24.805c8.643,0,14.341,5.686,15.62,15.597
			l0.586,4.503l-4.516-0.483c-0.021-0.003-1.969-0.21-4.551-0.21c-6.916,0-10.659,1.469-11.21,2.837
			c-0.136,0.338-1.063,3.565,8.303,12.594c21.627,20.856,79.078,76.257,109.286,76.257c1.103,0,2.163-0.078,3.154-0.234
			c19.502-3.043,43.788-11.738,48.058-26.225c2.706-9.193-3.021-20.182-17.027-32.661l-1.905-1.7l0.988-2.358
			c0.51-1.207,5.209-11.79,13.917-11.79c5.157,0,10.091,3.81,14.659,11.318c0.886,1.451,1.782,2.899,2.68,4.34
			c12.195,19.623,26.021,41.859-7.037,73.041C259.436,335.105,235.944,338.627,219.372,338.627z M106.223,200.647
			c-8.164,0-20.654,8.791-23.933,19.706c-3.239,10.811,46.279,54.834,70.085,75.991c15.882,14.121,24.266,21.65,26.292,25.047
			c2.12,3.555,19.186,10.08,40.705,10.08c15.274,0,36.86-3.187,52.944-18.355c28.799-27.172,18.172-44.264,5.869-64.059
			c-0.906-1.461-1.817-2.927-2.715-4.398c-3.095-5.082-6.13-7.881-8.546-7.881c-2.485,0-4.806,2.961-6.174,5.23
			c14.728,13.767,20.468,26.591,17.065,38.144c-5.207,17.678-31.214,27.744-53.815,31.274c-1.358,0.21-2.789,0.32-4.261,0.32
			c-29.331,0-76.469-41.828-114.257-78.261c-8.945-8.625-12.114-15.117-9.97-20.426c1.958-4.854,7.963-7.315,17.848-7.315
			c0.117,0,0.231,0,0.345,0.003C112.339,202.319,109.864,200.647,106.223,200.647z"/>
	</g>
	<g>
		<path fill="#EFD9B4" d="M155.681,240.155c0,0-50.188-9.102-13.77-36.302c31.875-23.809,88.251-24.557,95.764-22.026
			c0,0,113.914,16.831,125.185,15.048c11.263-1.786,10.635,20.747,10.635,20.747s-33.798,5.637-46.943,1.875
			c-13.145-3.754-76.357-11.38-89.499-8.505c-13.146,2.868-47.571,3.5-53.205,10.387
			C178.212,228.264,155.681,240.155,155.681,240.155z"/>
		<path fill="#D8B888" d="M156.258,243.896l-1.22-0.221c-2.692-0.489-26.411-5.161-29.609-18.743
			c-1.755-7.471,3.068-15.528,14.342-23.946c23.441-17.507,60.964-23.719,85.972-23.719c3.455,0,9.577,0.138,12.729,1.062
			c5.909,0.873,102.924,15.1,121.934,15.1c1.206,0,1.728-0.065,1.896-0.09c3.605-0.568,6.647,0.51,9.039,2.972
			c5.98,6.15,5.775,19.871,5.733,21.416l-0.083,2.944l-2.906,0.486c-0.786,0.131-19.468,3.212-34.64,3.212
			c-5.969,0-10.508-0.465-13.876-1.43c-10.684-3.051-57.327-8.999-79.333-8.999c-4.878,0-7.271,0.297-8.422,0.548
			c-4.472,0.976-11.177,1.693-18.275,2.448c-11.241,1.196-30.055,3.203-32.92,6.708c-5.926,7.24-26.894,18.424-29.269,19.675
			L156.258,243.896z M225.742,184.423c-23.91,0-59.654,5.836-81.691,22.295c-8.652,6.464-12.686,12.189-11.655,16.568
			c1.683,7.17,16.259,11.714,22.729,13.107c6.802-3.661,21.946-12.383,25.952-17.279c4.396-5.381,17.786-7.17,37.702-9.297
			c6.901-0.731,13.414-1.424,17.505-2.32c2.204-0.479,5.459-0.714,9.95-0.714c22.959,0,70.008,6.047,81.302,9.274
			c2.679,0.765,6.688,1.154,11.907,1.154c11.065,0,24.519-1.779,30.427-2.65c-0.236-4.709-1.278-10.815-3.664-13.263
			c-0.812-0.834-1.646-1.079-2.789-0.889c-0.748,0.117-1.738,0.175-3.013,0.175c-20.03,0-119.048-14.593-123.254-15.213l-0.62-0.148
			C235.709,184.944,232.399,184.423,225.742,184.423z"/>
	</g>
	<g>
		<path fill="#EFD9B4" d="M162.909,271.786c0,0-22.878-36.092,2.788-49.861c25.661-13.772,80.736-10.794,93.259-6.65
			c12.517,4.144,53.201,9.036,70.725,10.032c17.522,1,51.325,3.506,54.455,3.506c3.127,0,21.699,6.674-5.426,15.542
			c-27.121,8.863-64.358-3.655-88.925-4.91c-24.572-1.244-55.241-4.065-76.525,2.351c-21.275,6.416-30.665,2.662-30.665,17.058
			C182.595,273.244,162.909,271.786,162.909,271.786z"/>
		<path fill="#D8B888" d="M164.399,275.406c-1.097,0-1.756-0.053-1.756-0.053l-1.782-0.139l-0.976-1.514
			c-0.552-0.871-13.508-21.592-8.984-38.821c1.842-7.012,6.25-12.432,13.104-16.11c17.081-9.17,44.393-10.539,59.147-10.539
			c15.248,0,30.431,1.5,36.926,3.65c11.65,3.851,51.164,8.792,69.809,9.85c8.576,0.493,21.051,1.341,31.923,2.083
			c10.723,0.727,20.853,1.419,22.325,1.419c2.706,0,11.644,2.6,12.604,8.64c1.134,7.115-9.114,11.332-16.92,13.883
			c-6.852,2.24-14.614,3.327-23.736,3.327c-13.397,0.003-27.141-2.316-40.436-4.558c-9.493-1.606-18.464-3.117-26.044-3.503
			c-3.028-0.155-6.147-0.334-9.334-0.513c-10.226-0.583-20.799-1.186-31.183-1.186c-14.71,0-26.09,1.275-34.793,3.899
			c-6.138,1.851-11.334,2.879-15.502,3.71c-11.191,2.222-12.621,2.778-12.621,9.919
			C186.173,271.059,174.923,275.406,164.399,275.406z M223.153,215.389c-23.967,0-44.293,3.533-55.762,9.687
			c-5.1,2.733-8.227,6.533-9.56,11.607c-3.101,11.759,4.409,26.674,7.149,31.562c5.502-0.091,14.035-1.499,14.035-9.392
			c0-13.292,7.708-14.824,18.382-16.94c4.022-0.8,9.021-1.79,14.827-3.544c9.518-2.865,21.233-4.203,36.863-4.203
			c10.587,0,21.265,0.606,31.593,1.196c3.168,0.18,6.271,0.359,9.287,0.51c7.998,0.407,17.164,1.956,26.874,3.592
			c12.999,2.197,26.44,4.465,39.241,4.461c8.354,0,15.394-0.969,21.513-2.972c9.449-3.088,11.566-5.409,11.99-6.036
			c-0.783-1.031-4.169-2.445-5.503-2.531h-0.004c-1.603,0-9.3-0.517-22.755-1.434c-10.851-0.738-23.289-1.59-31.85-2.076
			c-17.303-0.983-58.497-5.857-71.645-10.204C252.896,217.043,239.401,215.389,223.153,215.389z"/>
	</g>
	<g>
		<path fill="#EFD9B4" d="M133.303,201.912c0,0-36.62-3.992-10.329,21.354c26.29,25.349,85.436,81.681,115.483,76.986
			c30.045-4.691,78.86-24.095,32.854-65.088c0,0,9.078-21.605,22.224,0c13.146,21.594,29.421,41.621-3.755,72.917
			c-33.174,31.292-93.198,17.521-99.175,7.508c-5.979-10.016-102.37-85.121-96.736-103.902
			C99.5,192.914,130.172,177.742,133.303,201.912z"/>
		<path fill="#D8B888" d="M234.379,330.989c-21.368,0-42.384-6.087-46.848-13.565c-1.558-2.609-13.425-13.158-24.905-23.359
			c-43.481-38.653-76.401-69.339-72.185-83.405c3.894-12.983,18.566-24.804,30.784-24.804c8.646,0,14.338,5.685,15.624,15.6
			l0.583,4.502l-4.517-0.486c-0.017-0.003-1.968-0.21-4.554-0.21c-6.916,0-10.656,1.472-11.207,2.838
			c-0.136,0.341-1.066,3.568,8.3,12.593c21.634,20.857,79.096,76.258,109.292,76.258c1.103,0,2.166-0.076,3.154-0.235
			c19.502-3.044,43.786-11.736,48.055-26.217c2.71-9.193-3.02-20.182-17.027-32.662l-1.904-1.703l0.988-2.355
			c0.506-1.207,5.204-11.794,13.918-11.794c5.156,0,10.09,3.809,14.661,11.317c0.886,1.455,1.785,2.903,2.683,4.345
			c12.193,19.62,26.015,41.855-7.041,73.038C274.445,327.465,250.95,330.989,234.379,330.989z M121.226,193.011
			c-8.159,0-20.657,8.792-23.929,19.703c-3.246,10.814,46.282,54.838,70.084,75.996c15.882,14.121,24.264,21.646,26.294,25.045
			c2.12,3.552,19.188,10.077,40.704,10.077c15.275,0,36.863-3.186,52.946-18.354c28.797-27.166,18.17-44.26,5.87-64.05
			c-0.909-1.465-1.823-2.931-2.717-4.406c-3.096-5.085-6.129-7.881-8.549-7.881c-2.486,0-4.811,2.958-6.176,5.23
			c14.73,13.769,20.471,26.59,17.064,38.148c-5.202,17.67-31.211,27.739-53.812,31.271c-1.357,0.21-2.789,0.315-4.262,0.315
			c-29.323,0-76.465-41.823-114.256-78.264c-8.946-8.622-12.117-15.11-9.973-20.423c1.958-4.854,7.964-7.312,17.844-7.312
			c0.117,0,0.238,0,0.348,0C127.342,194.687,124.867,193.011,121.226,193.011z"/>
	</g>
	<g>
		<path fill="#EFD9B4" d="M147.719,186.292c0,0-36.611-3.999-10.324,21.35c26.287,25.352,85.435,81.685,115.477,76.988
			c30.044-4.698,78.868-24.104,32.86-65.095c0,0,9.078-21.598,22.22,0c13.145,21.595,29.421,41.621-3.754,72.921
			c-33.175,31.296-93.199,17.517-99.174,7.509c-5.979-10.02-102.365-85.122-96.736-103.9
			C113.924,177.287,144.593,162.118,147.719,186.292z"/>
		<path fill="#D8B888" d="M248.803,315.365c-21.371,0-42.386-6.086-46.852-13.565c-1.561-2.61-13.438-13.17-24.921-23.378
			c-43.474-38.642-76.389-69.318-72.169-83.38c3.898-12.986,18.571-24.812,30.786-24.812c8.646,0,14.337,5.688,15.623,15.603
			l0.582,4.502l-4.519-0.486c-0.018-0.003-1.972-0.21-4.561-0.21c-6.905,0-10.647,1.472-11.198,2.833
			c-0.138,0.338-1.062,3.562,8.302,12.598c21.633,20.857,79.085,76.256,109.284,76.256c1.107,0,2.165-0.077,3.162-0.233
			c19.501-3.048,43.789-11.749,48.054-26.231c2.706-9.19-3.021-20.177-17.026-32.657l-1.906-1.7l0.99-2.355
			c0.506-1.207,5.207-11.793,13.916-11.793c5.156,0,10.086,3.809,14.657,11.317c0.888,1.455,1.786,2.903,2.685,4.344
			c12.192,19.62,26.014,41.855-7.041,73.042C288.861,311.84,265.375,315.365,248.803,315.365z M135.647,177.387
			c-8.162,0-20.654,8.791-23.933,19.708c-3.237,10.812,46.275,54.826,70.069,75.975c15.893,14.131,24.28,21.66,26.311,25.061
			c2.121,3.555,19.187,10.076,40.708,10.076c15.275,0,36.856-3.186,52.939-18.354c28.8-27.17,18.172-44.263,5.871-64.056
			c-0.91-1.464-1.824-2.93-2.719-4.405c-3.095-5.082-6.129-7.881-8.546-7.881c-2.354,0-4.709,2.803-6.178,5.23
			c14.729,13.765,20.472,26.586,17.069,38.143c-5.206,17.674-31.214,27.744-53.819,31.278c-1.352,0.211-2.785,0.319-4.261,0.319
			c-29.324,0-76.465-41.824-114.248-78.264c-8.947-8.625-12.118-15.117-9.971-20.426c1.958-4.851,7.957-7.312,17.831-7.312
			c0.123,0,0.24,0,0.358,0C141.759,179.062,139.287,177.387,135.647,177.387z"/>
	</g>
	<g>
		<path fill="#EFD9B4" d="M134.678,166.624c0,0,90.571-33.168,207.362-11.801c116.789,21.364-15.611,67.498-15.611,67.498
			S104.671,184.612,134.678,166.624z"/>
		<path fill="#D8B888" d="M326.736,226l-0.91-0.151c-0.477-0.083-48.358-8.253-96.063-18.647
			c-98.663-21.498-100.473-31.114-101.342-35.736c-0.331-1.766-0.204-5.141,4.415-7.912l0.611-0.29
			c0.523-0.193,53.29-19.192,128.833-19.192c27.121,0,54.17,2.434,80.399,7.229c33.418,6.116,50.109,14.952,51.044,27.021
			c1.783,23.036-59.162,44.955-66.119,47.375L326.736,226z M135.571,170.389c1.248,2.258,11.703,11.573,96.749,30.048
			c43.573,9.467,87.018,17.03,93.799,18.199c24.288-8.587,61.481-26.666,60.473-39.766c-0.363-4.645-6.713-13.487-45.197-20.53
			c-25.809-4.72-52.426-7.113-79.114-7.113c-71.062,0-121.465,17.038-126.036,18.637
			C135.905,170.085,135.695,170.265,135.571,170.389z"/>
	</g>
	<g>
		<path fill="#EFD9B4" d="M174.062,176.194c0,0-26.526,15.441-0.239,40.794c26.287,25.349,62.845,56.253,92.887,51.558
			c30.047-4.698,78.866-24.105,32.86-65.096c0,0,9.076-21.598,22.219,0c13.145,21.595,29.42,41.622-3.754,72.921
			c-33.178,31.296-93.199,17.518-99.173,7.508c-5.979-10.018-102.367-85.121-96.736-103.899
			C127.763,161.201,170.932,152.021,174.062,176.194z"/>
		<path fill="#D8B888" d="M262.641,299.279c-21.371,0-42.387-6.086-46.851-13.566c-1.561-2.609-13.438-13.169-24.922-23.38
			c-43.473-38.639-76.389-69.315-72.169-83.377c3.878-12.917,21.422-20.909,35.465-20.909c13.248,0,22.011,6.612,23.448,17.689
			l0.3,2.358l-2.051,1.193c-0.08,0.048-8.942,5.381-9.98,14.234c-0.758,6.461,2.751,13.49,10.429,20.892
			c22.716,21.908,56.152,51.028,84.122,51.028c1.957,0,3.885-0.147,5.727-0.435c19.506-3.047,43.793-11.748,48.058-26.231
			c2.705-9.191-3.02-20.178-17.026-32.658l-1.906-1.7l0.988-2.355c0.506-1.209,5.21-11.793,13.919-11.793
			c5.156,0,10.09,3.809,14.657,11.317c0.887,1.455,1.786,2.903,2.684,4.344c12.191,19.62,26.018,41.856-7.04,73.042
			C302.7,295.756,279.213,299.279,262.641,299.279z M154.164,165.204c-12.716,0-26.081,7.384-28.608,15.807
			c-3.24,10.812,46.272,54.825,70.067,75.976c15.892,14.131,24.28,21.66,26.311,25.06c2.119,3.556,19.185,10.076,40.707,10.076
			c15.276,0,36.857-3.185,52.938-18.353c28.802-27.17,18.172-44.264,5.872-64.059c-0.91-1.461-1.823-2.927-2.717-4.402
			c-3.098-5.082-6.131-7.881-8.547-7.881c-2.484,0-4.807,2.958-6.175,5.23c14.729,13.766,20.469,26.586,17.064,38.142
			c-5.205,17.675-31.214,27.746-53.813,31.278c-2.209,0.345-4.507,0.521-6.834,0.521c-30.558,0-65.479-30.27-89.092-53.037
			c-9.398-9.064-13.621-18.13-12.559-26.949c1.119-9.25,7.787-15.393,11.316-18.037C167.833,166.479,159.3,165.204,154.164,165.204z
			"/>
	</g>
	<g>
		<path fill="#EFD9B4" d="M202.538,171.295c0,0-26.525,15.441-0.237,40.793c26.287,25.346,62.844,56.25,92.889,51.553
			c30.044-4.695,78.863-24.101,32.856-65.094c0,0,9.076-21.599,22.219,0c13.146,21.598,29.426,41.625-3.753,72.924
			c-33.175,31.293-93.199,17.516-99.174,7.508c-5.979-10.021-102.365-85.125-96.736-103.898
			C156.238,156.306,199.407,147.125,202.538,171.295z"/>
		<path fill="#D8B888" d="M291.116,294.375c-21.371,0-42.385-6.08-46.851-13.562c-1.561-2.611-13.438-13.172-24.921-23.381
			c-43.474-38.642-76.386-69.316-72.169-83.383c3.878-12.912,21.421-20.906,35.464-20.906c13.248,0,22.012,6.616,23.448,17.692
			l0.3,2.354l-2.051,1.196c-0.079,0.045-8.942,5.385-9.98,14.231c-0.758,6.46,2.751,13.49,10.429,20.892
			c22.716,21.905,56.152,51.032,84.122,51.032c1.959,0,3.886-0.147,5.727-0.438c19.505-3.047,43.792-11.745,48.058-26.228
			c2.707-9.191-3.021-20.178-17.025-32.658l-1.908-1.7l0.99-2.361c0.508-1.204,5.208-11.787,13.917-11.787
			c5.157,0,10.091,3.806,14.659,11.315c0.887,1.458,1.785,2.902,2.682,4.347c12.193,19.62,26.019,41.86-7.04,73.041
			C331.177,290.854,307.689,294.375,291.116,294.375z M182.64,160.301c-12.716,0-26.081,7.388-28.607,15.807
			c-3.241,10.808,46.271,54.822,70.066,75.979c15.896,14.128,24.28,21.66,26.311,25.06c2.119,3.552,19.186,10.074,40.707,10.074
			c15.275,0,36.856-3.183,52.938-18.352c28.802-27.169,18.172-44.266,5.872-64.057c-0.911-1.462-1.824-2.93-2.718-4.402
			c-3.095-5.085-6.126-7.881-8.546-7.881c-2.485,0-4.806,2.961-6.175,5.229c14.728,13.766,20.468,26.587,17.063,38.14
			c-5.204,17.67-31.213,27.749-53.813,31.282c-2.209,0.346-4.505,0.521-6.832,0.521c-30.56,0-65.481-30.269-89.093-53.035
			c-9.398-9.063-13.621-18.13-12.559-26.953c1.119-9.243,7.79-15.39,11.317-18.041C196.309,161.577,187.775,160.301,182.64,160.301z
			"/>
	</g>
	<g>
		<path fill="#EFD9B4" d="M147.582,217.35c31.875-23.808,77.927-23.422,85.435-20.891c0,0,113.918,16.827,125.188,15.041
			c11.263-1.782,10.636,20.754,10.636,20.754s-33.799,5.633-46.942,1.872c-13.146-3.754-76.357-11.38-89.503-8.504
			c-13.142,2.869-55.846,6.164-61.479,13.052"/>
		<path fill="#D8B888" d="M173.683,240.938l-5.54-4.533c4.517-5.52,21.978-8.289,46.147-11.601c7.302-1,13.604-1.861,17.341-2.678
			c14.042-3.069,77.723,4.695,91.251,8.56c9.174,2.627,31.382,0.145,42.328-1.485c-0.252-4.644-1.297-11.222-3.902-13.504
			c-0.714-0.631-1.477-0.824-2.545-0.662c-11.47,1.848-114.552-13.307-126.266-15.034l-0.62-0.148
			c-5.39-1.816-50.593-3.206-82.154,20.368l-4.282-5.736c32.248-24.084,79.026-24.278,88.373-21.523
			c45.583,6.729,115.976,16.266,123.829,15.007c3.155-0.493,6.067,0.31,8.396,2.354c6.632,5.826,6.424,20.392,6.381,22.029
			l-0.084,2.948l-2.908,0.486c-1.406,0.234-34.756,5.723-48.514,1.786c-12.477-3.565-75.234-11.191-87.751-8.45
			c-4.017,0.872-10.453,1.754-17.899,2.775C201.811,233.739,176.768,237.17,173.683,240.938z"/>
	</g>
	<g>
		<path fill="#EFD9B4" d="M283.884,188.378c0,0,57.158,6.86,66.897,43.23c9.732,36.367,18.191,44.617,18.191,44.617
			s11.854,20.485,18.199,4.894c6.347-15.583-18.065-74.386-40.627-89.399C323.526,176.394,288.932,177.546,283.884,188.378z"/>
		<path fill="#D8B888" d="M381.034,290.549L381.034,290.549c-7.157,0-13.314-9.441-14.941-12.169
			c-1.969-2.192-9.862-12.575-18.769-45.848c-9.004-33.64-63.319-40.538-63.867-40.607l-4.902-0.587l2.086-4.475
			c2.984-6.398,12.817-10.222,26.311-10.222c14.66,0,30.2,4.52,41.577,12.098c10.832,7.205,22.964,24.418,32.446,46.027
			c7.259,16.534,13.565,37.746,9.514,47.702C387.766,289.146,383.844,290.549,381.034,290.549z M292.105,186.144
			c16.537,3.382,54.028,14.276,62.131,44.538c9.189,34.337,17.198,42.941,17.273,43.021l0.56,0.729
			c2.465,4.24,6.751,8.963,8.965,8.963c0.83,0,1.916-1.389,2.826-3.627c5.329-13.086-16.807-70.104-39.298-85.068
			c-10.25-6.823-24.312-10.897-37.612-10.897C300.463,183.8,295.48,184.775,292.105,186.144z"/>
	</g>
	<g>
		<path fill="#EFD9B4" d="M311.092,166.317c0,0,52.163,11.246,58.361,52.384c6.202,41.146,13.373,50.867,13.373,50.867
			s9.363,23.57,16.398,6.6c7.036-16.969-10.986-84.029-30.639-102.184C348.538,155.461,316.565,154.568,311.092,166.317z"/>
		<path fill="#D8B888" d="M393.365,285.889h-0.004c-7.096-0.004-12.128-10.75-13.714-14.632
			c-1.593-2.472-8.061-14.379-13.735-52.018c-5.75-38.177-55.083-49.316-55.58-49.423l-4.373-0.951l1.889-4.058
			c2.908-6.241,10.874-9.818,21.854-9.818c11.411,0,28.256,4.302,41.315,16.368c17.855,16.496,40.348,84.879,31.516,106.178
			C400.232,283.079,397.146,285.889,393.365,285.889z M317.924,164.483c5.279,1.652,13.376,4.644,21.811,9.501
			c19.054,10.97,30.555,26.25,33.257,44.187c5.906,39.167,12.649,49.185,12.714,49.274l0.445,0.8
			c2.227,5.573,5.81,10.407,7.202,10.487c0.104-0.045,1.183-0.594,2.567-3.935c6.566-15.838-11.312-81.143-29.763-98.187
			c-11.542-10.663-26.4-14.466-36.456-14.466C324.905,162.146,320.762,163.008,317.924,164.483z"/>
	</g>
	<g>
		<path fill="#EFD9B4" d="M338.423,159.036c0,0,48.085,11.56,53.136,52.95c5.047,41.394,11.519,51.202,11.519,51.202
			s8.268,23.744,15.073,6.717c6.798-17.021-8.753-84.528-26.637-102.875C373.263,148.308,343.688,147.246,338.423,159.036z"/>
		<path fill="#D8B888" d="M412.636,279.632L412.636,279.632c-6.705,0-11.112-10.149-12.811-14.911
			c-1.431-2.484-7.205-14.469-11.821-52.305c-4.682-38.384-49.968-49.792-50.421-49.898l-4.18-1.017l1.752-3.923
			c2.785-6.24,10.229-9.818,20.412-9.818c10.711,0,26.45,4.406,38.509,16.771c18.979,19.472,34.674,88.47,27.396,106.703
			C420.645,273.309,418.115,279.632,412.636,279.632z M344.839,157.254c4.888,1.689,12.397,4.757,20.183,9.719
			c17.484,11.142,27.89,26.559,30.09,44.579c4.798,39.353,10.924,49.612,10.981,49.709l0.365,0.748
			c1.68,4.806,4.576,9.716,6.109,10.414c0.307-0.241,1.168-1.112,2.259-3.847c6.364-15.941-9.074-81.812-25.877-99.049
			c-10.502-10.773-24.129-14.611-33.382-14.611C351.142,154.916,347.394,155.765,344.839,157.254z"/>
	</g>
	<g>
		<path fill="#6E293D" d="M315.876,261.698c-0.898,0.187-4.908,1.661-3.906,4.224c1.004,2.555,2.556,1.594,3.906-0.855
			C317.232,262.615,315.876,261.698,315.876,261.698z"/>
	</g>
	<g>
		<path fill="#6E293D" d="M352.082,227.096c0,0-9.636,4.379-5.954,6.392c3.679,2.01,5.954-1.689,5.954-4.037
			C352.082,227.096,352.082,227.096,352.082,227.096z"/>
	</g>
	<g>
		<path fill="#6E293D" d="M370.251,192.559c0,0-3.91,2.393,1.319,4.141c5.231,1.754,7.705-1.748,6.104-2.396
			C376.079,193.655,371.463,191.312,370.251,192.559z"/>
	</g>
	<g>
		<path fill="#6E293D" d="M258.486,293.949c0,0-3.908,2.393,1.32,4.15c5.232,1.748,7.7-1.759,6.105-2.406
			C264.316,295.045,259.7,292.708,258.486,293.949z"/>
	</g>
	<g>
		<path fill="#6E293D" d="M238.336,246.609c0,0-3.909,2.389,1.316,4.143c5.234,1.749,7.709-1.751,6.113-2.399
			C244.169,247.705,239.549,245.36,238.336,246.609z"/>
	</g>
	<g>
		<path fill="#6E293D" d="M389.99,244.109c0,0-3.906,2.392,1.324,4.147c5.229,1.751,7.7-1.756,6.107-2.396
			C395.823,245.212,391.204,242.868,389.99,244.109z"/>
	</g>
	<g>
		<path fill="#6E293D" d="M288.729,219.133c0,0-3.906,2.388,1.319,4.144c5.233,1.75,7.706-1.751,6.108-2.4
			C294.562,220.229,289.941,217.888,288.729,219.133z"/>
	</g>
	<g>
		<path fill="#6E293D" d="M154.063,248.218c-1.508-1.834-2.613,0.862,0,4.151c2.612,3.281,4.981-0.151,3.365-2.379
			C155.808,247.771,154.063,248.218,154.063,248.218z"/>
	</g>
	<g>
		<path fill="#6E293D" d="M214.069,197.069c-1,0.341-3.224,2.126-2.829,3.889c0.392,1.762,4.137,2.32,4.48,0.686
			C216.063,200.016,214.069,197.069,214.069,197.069z"/>
	</g>
	<g>
		<path fill="#943E20" d="M133.943,207.976c0,0,8.112-13.042,38.194-29.089c18.162-9.688,21.427-7.626,34.092-14.445
			c12.666-6.819,3.526-14.61,21.729-13.639c18.214,0.976,30.883,7.795,59.134,14.611c28.245,6.818,41.892,6.491,56.501,13.472
			c14.61,6.984,27.273,8.416,34.092,13.542c6.822,5.133,2.926,12.927,0,26.565c-2.919,13.635-13.642,16.4-32.144,31.093
			c-18.51,14.691-15.265,17.889-27.842,21.405c-12.587,3.517-89.741-32.505-89.741-32.505l-79.202-13.524L133.943,207.976z"/>
		<path fill="#3C2517" d="M315.536,274.594c-17.403,0-82.429-30.058-88.436-32.853l-78.825-13.456
			c-0.662-0.113-1.267-0.458-1.7-0.972l-14.817-17.486c-0.799-0.948-0.899-2.306-0.245-3.364
			c0.349-0.559,8.871-13.883,39.278-30.103c10.062-5.368,15.727-7.229,20.722-8.874c4.175-1.375,7.78-2.558,13.362-5.561
			c4.431-2.389,5.63-4.748,6.792-7.029c2.102-4.12,4.296-7.04,13.423-7.04c0.919,0,1.925,0.027,3.021,0.089
			c11.501,0.613,20.87,3.496,32.741,7.136c7.516,2.307,16.037,4.923,26.914,7.553c10.888,2.627,19.476,4.165,27.053,5.52
			c12.03,2.155,20.727,3.709,30.01,8.15c6.688,3.199,12.982,5.209,18.534,6.984c6.463,2.062,12.041,3.843,16.045,6.854
			c7.008,5.271,5.146,12.752,2.788,22.226c-0.551,2.203-1.147,4.602-1.71,7.222c-2.32,10.839-9.087,15.528-19.323,22.619
			c-4.04,2.796-8.611,5.964-13.842,10.118c-7.396,5.871-11.245,9.866-14.056,12.782c-4.251,4.412-6.596,6.848-14.793,9.141
			C317.635,274.484,316.673,274.594,315.536,274.594z M150.268,222.817l78.175,13.345c0.252,0.045,0.496,0.117,0.73,0.228
			c24.06,11.235,73.079,32.478,86.363,32.478c0.788,0,1.209-0.083,1.393-0.136c6.701-1.871,8.2-3.43,12.213-7.594
			c2.922-3.035,6.928-7.188,14.618-13.297c5.378-4.266,10.031-7.492,14.138-10.336c9.764-6.768,15.143-10.491,16.989-19.116
			c0.575-2.686,1.189-5.147,1.751-7.409c2.354-9.439,3.155-13.386-0.673-16.262c-3.226-2.43-8.376-4.074-14.344-5.981
			c-5.727-1.828-12.221-3.902-19.265-7.268c-8.584-4.106-16.958-5.605-28.549-7.681c-7.652-1.369-16.331-2.924-27.387-5.595
			c-11.046-2.665-19.655-5.31-27.249-7.643c-11.945-3.665-20.57-6.312-31.364-6.895c-0.987-0.048-1.89-0.076-2.719-0.076
			c-6.328,0-6.907,1.145-8.321,3.913c-1.338,2.631-3.17,6.233-9.184,9.468c-6.021,3.244-10.032,4.561-14.279,5.96
			c-5.017,1.648-10.194,3.355-19.819,8.491c-22.781,12.152-32.689,22.56-35.881,26.452L150.268,222.817z"/>
	</g>
	<g>
		<path fill="#A94F25" d="M134.145,221.425c0,0-7.792-21.916,12.665-18.02c20.453,3.896,32.631,10.715,39.452,11.69
			c6.816,0.976,19.479-1.462,24.84,0.976c5.356,2.434,19.481,13.638,26.301,15.1c6.822,1.458,4.384-2.924,17.544,0
			c13.152,2.923,24.839,2.923,30.199,3.896c5.356,0.972,19.968,8.277,27.276,10.228c7.305,1.951,12.662,5.357,10.229,14.614
			c-2.438,9.257-3.897,15.587-17.538,15.1c-13.638-0.489-13.638-1.944-24.351-5.356c-10.714-3.409-21.918-8.768-35.077-10.715
			c-13.155-1.951-23.87-5.36-30.689-6.336c-6.818-0.973-18.506-4.872-22.892-6.333c-4.385-1.466-7.791-5.31-19.968-7.281
			c-12.176-1.972-27.276-5.382-29.228-5.382C140.958,233.605,130.248,228.247,134.145,221.425z"/>
		<path fill="#3C2517" d="M306.541,277.896c-0.492,0-1.003-0.01-1.527-0.025c-10.73-0.385-13.463-1.376-18.9-3.352
			c-1.674-0.606-3.625-1.317-6.217-2.143c-3.275-1.04-6.513-2.232-9.939-3.49c-7.756-2.853-15.771-5.8-24.688-7.115
			c-7.674-1.14-14.623-2.789-20.208-4.113c-4.127-0.982-7.691-1.83-10.471-2.227c-7.084-1.009-18.933-4.961-23.39-6.452
			c-1.58-0.524-2.993-1.283-4.486-2.086c-3.147-1.689-7.063-3.792-15.035-5.084c-6.353-1.028-13.434-2.431-19.126-3.562
			c-4.33-0.858-8.804-1.748-9.67-1.782c-2.316,0-8.502-2.927-11.163-7.516c-1.447-2.493-1.665-5.192-0.648-7.732
			c-0.913-3.099-2.747-11.177,1.035-16.538c1.482-2.097,4.461-4.602,10.235-4.602c1.527,0,3.209,0.172,5.003,0.513
			c12.62,2.406,22.18,5.916,29.157,8.478c4.342,1.593,7.771,2.851,10.16,3.192c2.2,0.311,6.046,0.2,9.878,0.024
			c2.205-0.1,4.437-0.203,6.535-0.203c4.272,0,7.109,0.428,9.209,1.382c2.227,1.011,5.521,3.192,9.332,5.716
			c5.64,3.737,12.666,8.391,16.386,9.191c1.857,0.4,2.624,0.27,4.009-0.189c1.228-0.403,2.751-0.904,5.364-0.904
			c2.189,0,4.868,0.359,8.191,1.097c8.371,1.862,16.307,2.523,22.095,3.009c3.348,0.28,5.989,0.5,7.995,0.866
			c3.078,0.558,8.404,2.789,14.041,5.146c4.976,2.083,10.122,4.241,13.463,5.13c3.933,1.051,15.899,4.247,12.259,18.109l-0.105,0.41
			C323.03,269.709,320.879,277.896,306.541,277.896z M143.129,230.75c0.965,0,3.557,0.497,10.541,1.879
			c5.644,1.124,12.669,2.517,18.923,3.53c8.923,1.444,13.49,3.899,16.828,5.692c1.382,0.745,2.478,1.331,3.589,1.699
			c4.329,1.441,15.816,5.279,22.394,6.216c3.035,0.431,6.717,1.307,10.978,2.32c5.764,1.366,12.297,2.913,19.727,4.02
			c9.5,1.403,17.799,4.455,25.823,7.406c3.369,1.237,6.549,2.405,9.699,3.408c2.686,0.855,4.705,1.59,6.438,2.217
			c5.025,1.827,7.318,2.658,17.15,3.016c11.042,0.344,12.188-3.549,14.558-12.563l0.106-0.407c1.643-6.238-0.431-9.045-8.197-11.118
			c-3.72-0.997-9.047-3.227-14.199-5.385c-5.105-2.138-10.385-4.351-12.853-4.798c-1.735-0.31-4.383-0.535-7.446-0.79
			c-5.953-0.5-14.111-1.183-22.859-3.127c-2.91-0.644-5.186-0.958-6.951-0.958c-1.691,0-2.562,0.286-3.57,0.614
			c-1.598,0.527-3.755,1.041-7.007,0.351c-4.773-1.027-11.986-5.802-18.347-10.018c-3.458-2.289-6.724-4.45-8.532-5.274
			c-1.91-0.869-5.627-0.869-6.844-0.869c-2.012,0-4.157,0.101-6.277,0.197c-4.22,0.192-8.319,0.303-10.946-0.077
			c-2.984-0.427-6.662-1.774-11.321-3.485c-6.792-2.495-16.096-5.909-28.259-8.226c-4.777-0.914-8.005-0.334-9.486,1.766
			c-2.375,3.368-0.714,10.317,0.058,12.487c0.279,0.783,0.199,1.655-0.214,2.375c-0.578,1.013-0.621,1.871-0.147,2.878
			c1.275,2.692,5.502,4.836,6.615,5.026C143.103,230.75,143.117,230.75,143.129,230.75z"/>
	</g>
	<g>
		<path fill="#943E20" d="M323.248,240.424c0,0,5.242-10.715,14.009-12.662c8.769-1.952,9.742-7.795,18.027-13.639
			c8.274-5.847,11.688-11.184,11.688-11.184"/>
		<path fill="#3C2517" d="M323.243,243.289c-0.424,0-0.852-0.096-1.254-0.293c-1.421-0.696-2.007-2.414-1.313-3.83
			c0.24-0.489,5.964-11.977,15.961-14.2c4.477-0.996,6.394-3.058,9.291-6.178c1.982-2.134,4.23-4.551,7.705-7.005
			c7.641-5.392,10.901-10.339,10.93-10.391c0.861-1.324,2.623-1.703,3.956-0.852c1.325,0.852,1.716,2.613,0.862,3.944
			c-0.146,0.238-3.812,5.878-12.443,11.976c-2.993,2.11-4.935,4.199-6.815,6.223c-3.101,3.337-6.027,6.488-12.243,7.871
			c-6.088,1.354-10.769,8.491-12.059,11.128C325.322,242.699,324.303,243.289,323.243,243.289z"/>
	</g>
	<g>
		<path fill="#E89F23" d="M314.174,207.811c-0.398-0.848-3.003-2.158-11.949-3.957c-17.539-3.524-22.688-2.689-36.468-7.33
			c-13.789-4.643-19.177-9.535-28.566-12.538c-9.376-3.006-19.395-8.767-23.159-7.647c-3.758,1.117-11.952,2.358,1.879,8.464
			c13.836,6.105,9.829,4.781,19.24,9.301c9.415,4.526,13.549,6.943,23.333,8.674c9.779,1.738,18.873,4.058,26.621,5.975
			c6.484,1.61,22.556,3.303,26.816,1.641C312.749,210.069,314.556,208.628,314.174,207.811z"/>
	</g>
	<g>
		<path fill="#E89F23" d="M321.271,189.012c-0.493-0.438-2.368-0.462-7.976,1.262c-10.977,3.378-13.604,5.616-22.825,7.019
			c-9.221,1.404-13.799-0.107-20.021,0.952c-6.227,1.055-13.688,0.476-15.447,2.455c-1.764,1.979-5.986,5.488,3.732,5.051
			c9.713-0.438,7.043-0.014,13.763-0.069c6.728-0.048,9.815,0.217,15.864-1.821c6.051-2.038,11.896-3.458,16.862-4.709
			c4.156-1.044,13.729-5.167,15.604-7.67C321.186,190.994,321.743,189.433,321.271,189.012z"/>
	</g>
	<g>
		<path fill="#C5832A" d="M307.931,164.907c-0.77-0.541-3.679-0.4-12.35,2.451c-16.999,5.585-21.063,8.85-35.339,11.615
			c-14.283,2.761-21.393,1.168-31.034,3.178c-9.639,2.013-21.192,1.948-23.915,4.771c-2.722,2.83-9.236,7.95,5.809,6.44
			c15.045-1.514,10.906-0.693,21.326-1.403c10.421-0.703,15.21-0.638,24.573-3.954c9.366-3.313,18.423-5.785,26.104-7.939
			c6.434-1.8,21.247-8.254,24.14-11.801C307.807,167.576,308.661,165.428,307.931,164.907z"/>
	</g>
	<g>
		<path fill="#C5832A" d="M332.534,199.313c-0.354-0.869-2.89-2.303-11.745-4.523c-17.352-4.361-22.532-3.775-36.074-9.07
			c-13.545-5.296-18.699-10.439-27.921-13.886c-9.232-3.451-18.973-9.681-22.778-8.75c-3.809,0.938-12.055,1.786,1.471,8.546
			c13.526,6.76,9.593,5.244,18.789,10.214c9.184,4.965,13.188,7.578,22.873,9.781c9.688,2.196,18.66,4.954,26.308,7.24
			c6.402,1.913,22.371,4.371,26.711,2.92C331.008,201.505,332.876,200.147,332.534,199.313z"/>
	</g>
	<g>
		<path fill="#E0AB31" d="M288.229,187.129c0,0,10.122-3.861-7.709,0.276c-17.818,4.133-15.641,4.188-25.049,5.309
			c-9.418,1.117-14.639,1.148-18.845,5.333c-4.213,4.189-2.307,3.81-3.712,7.315c-1.407,3.51,1.709,5.606,10.524,1.207
			c8.815-4.396,8.888-1.196,17.271-3.213C269.091,201.34,304.001,186.25,288.229,187.129z"/>
	</g>
	<g>
		<path fill="#CD952B" d="M296.562,172.502c15.918-12.129-2.217,8.784-9.869,17.395c-7.652,8.612-11.395,10.612-19.227,15.2
			c-7.839,4.592-7.306,3.782-10.281,3.954c-2.98,0.179,9.469-9.815,23.691-22.267C295.1,174.336,296.562,172.502,296.562,172.502z"
			/>
	</g>
	<g>
		<ellipse fill="#EB4924" cx="96.201" cy="247.691" rx="13.204" ry="11.35"/>
		<path fill="#3C2517" d="M96.201,261.904c-8.86,0-16.069-6.377-16.069-14.213c0-7.836,7.209-14.214,16.069-14.214
			c8.86,0,16.064,6.377,16.064,14.214C112.266,255.527,105.062,261.904,96.201,261.904z M96.201,239.203
			c-5.706,0-10.342,3.806-10.342,8.488c0,4.679,4.636,8.487,10.342,8.487c5.702,0,10.339-3.809,10.339-8.487
			C106.54,243.009,101.903,239.203,96.201,239.203z"/>
	</g>
	<g>
		<path fill="#EB4924" d="M144.362,262.809c0,6.401-5.771,11.59-12.884,11.59c-7.118,0-12.882-5.188-12.882-11.59
			c0-6.398,5.764-11.588,12.882-11.588C138.591,251.221,144.362,256.41,144.362,262.809z"/>
		<path fill="#3C2517" d="M131.479,277.264c-8.684,0-15.744-6.484-15.744-14.455c0-7.968,7.061-14.449,15.744-14.449
			c8.685,0,15.744,6.481,15.744,14.449C147.223,270.779,140.163,277.264,131.479,277.264z M131.479,254.083
			c-5.522,0-10.018,3.916-10.018,8.726c0,4.812,4.495,8.729,10.018,8.729s10.019-3.916,10.019-8.729
			C141.497,257.999,137.002,254.083,131.479,254.083z"/>
	</g>
	<g>
		<ellipse fill="#B73726" cx="127.521" cy="298.286" rx="12.958" ry="11.824"/>
		<path fill="#3C2517" d="M127.521,312.973c-8.723,0-15.82-6.59-15.82-14.688s7.098-14.69,15.82-14.69s15.82,6.595,15.82,14.69
			C143.342,306.383,136.243,312.973,127.521,312.973z M127.521,289.322c-5.568,0-10.099,4.021-10.099,8.964
			c0,4.944,4.53,8.964,10.099,8.964s10.098-4.02,10.098-8.964S133.09,289.322,127.521,289.322z"/>
	</g>
	<g>
		<path fill="#B73726" d="M87.766,259.041c0,5.833-5.662,10.561-12.646,10.561c-6.979,0-12.643-4.728-12.643-10.561
			c0-5.83,5.664-10.56,12.643-10.56C82.104,248.48,87.766,253.21,87.766,259.041z"/>
		<path fill="#3C2517" d="M75.12,272.461c-8.551,0-15.508-6.02-15.508-13.421c0-7.397,6.957-13.422,15.508-13.422
			c8.553,0,15.509,6.022,15.509,13.422C90.629,266.441,83.673,272.461,75.12,272.461z M75.12,251.346
			c-5.393,0-9.781,3.45-9.781,7.694s4.389,7.696,9.781,7.696c5.395,0,9.783-3.452,9.783-7.696S80.515,251.346,75.12,251.346z"/>
	</g>
	<g>
		<ellipse fill="#EB4924" cx="91.351" cy="267.397" rx="13.604" ry="11.176"/>
		<path fill="#3C2517" d="M91.35,281.436c-9.079,0-16.465-6.3-16.465-14.039c0-7.738,7.386-14.037,16.465-14.037
			c9.081,0,16.466,6.299,16.466,14.037C107.816,275.136,100.431,281.436,91.35,281.436z M91.35,259.085
			c-5.922,0-10.742,3.728-10.742,8.312c0,4.586,4.82,8.314,10.742,8.314c5.921,0,10.739-3.729,10.739-8.314
			C102.089,262.812,97.271,259.085,91.35,259.085z"/>
	</g>
</g>
</svg>
