<?xml version="1.0" encoding="utf-8"?>
<!-- Generator: Adobe Illustrator 16.0.0, SVG Export Plug-In . SVG Version: 6.00 Build 0)  -->
<!DOCTYPE svg PUBLIC "-//W3C//DTD SVG 1.1//EN" "http://www.w3.org/Graphics/SVG/1.1/DTD/svg11.dtd">
<svg version="1.1" id="Layer_1" xmlns="http://www.w3.org/2000/svg" xmlns:xlink="http://www.w3.org/1999/xlink" x="0px" y="0px"
	 width="500px" height="500px" viewBox="0 0 500 500" enable-background="new 0 0 500 500" xml:space="preserve">
<g id="Layer_1_1_">
	<g>
		<path fill="#ABDDF3" d="M353.77,44.879l-35.637-1.888l-85.675,0.43l-85.67-0.43l-35.636,1.888c0,0-17.271,107.176,6.479,167.111
			c23.748,59.93,36.719,66.412,46.975,111.766c10.26,45.352,4.86,106.902,4.86,106.902s-1.09,13.043,4.305,19.257
			c5.091,5.854,24.245,10.239,57.693,10.414l0.008,0.034c0.347,0,0.64-0.018,0.985-0.024c0.352,0.008,0.639,0.024,0.99,0.024
			l0.009-0.034c33.446-0.175,52.603-4.561,57.692-10.414c5.395-6.214,4.305-19.257,4.305-19.257s-5.396-61.551,4.861-106.902
			c10.259-45.354,23.221-51.836,46.973-111.766C371.045,152.055,353.77,44.879,353.77,44.879z"/>
		<path fill="#3C2517" d="M233.448,463.196l-1.057-0.019l-0.919,0.019c-0.154,0-0.305-0.008-0.451-0.035
			c-18.794-0.125-51.041-1.777-59.388-11.381c-6.109-7.041-5.045-20.771-4.994-21.355c0.054-0.628,5.24-61.651-4.799-106.043
			c-5.824-25.769-12.492-38.721-21.718-56.646c-6.686-12.99-15.003-29.158-25.125-54.702
			c-10.002-25.23-14.152-61.288-12.348-107.188c1.34-34.058,5.657-61.146,5.704-61.413c0.208-1.319,1.314-2.309,2.646-2.384
			l35.637-1.888l85.838,0.426l85.645-0.43l35.796,1.892c1.335,0.075,2.438,1.065,2.651,2.384c0.042,0.267,4.358,27.355,5.703,61.413
			c1.805,45.896-2.352,81.958-12.348,107.188c-10.122,25.539-18.439,41.704-25.122,54.696c-9.225,17.926-15.893,30.877-21.718,56.65
			c-10.047,44.408-4.856,105.415-4.807,106.033c0.05,0.594,1.117,14.324-4.985,21.365c-8.353,9.604-40.606,11.256-59.4,11.381
			C233.748,463.188,233.604,463.196,233.448,463.196z M232.392,457.508l0.685,0.008c0.117-0.018,0.242-0.024,0.363-0.024
			c35.085-0.186,51.708-4.995,55.572-9.429c3.762-4.334,3.887-13.863,3.615-17.171c-0.055-0.603-5.311-62.495,4.924-107.764
			c5.987-26.474,12.795-39.692,22.207-57.996c6.631-12.878,14.878-28.91,24.896-54.186c21.305-53.755,8.94-147.623,6.655-163.357
			l-33.326-1.771l-85.507,0.439l-85.7-0.43l-33.163,1.758c-2.285,15.726-14.65,109.602,6.655,163.361
			c10.021,25.284,18.269,41.314,24.9,54.193c9.412,18.297,16.218,31.519,22.206,57.988c10.236,45.268,4.97,107.161,4.916,107.778
			c-0.268,3.292-0.143,12.812,3.629,17.154c3.854,4.435,20.477,9.244,55.562,9.43c0.126,0,0.248,0.008,0.363,0.024L232.392,457.508z
			"/>
	</g>
	<g>
		<path fill="#ABDDF3" d="M353.582,44.879c0,7.9-54.27,14.307-121.216,14.307c-66.941,0-121.214-6.406-121.214-14.307
			c0-7.901,54.272-14.311,121.214-14.311C299.312,30.569,353.582,36.979,353.582,44.879z"/>
		<path fill="#3C2517" d="M232.366,62.021c-32.483,0-63.037-1.495-86.046-4.205c-38.004-4.489-38.004-10.197-38.004-12.937
			c0-2.74,0-8.448,38.004-12.933c23.004-2.718,53.56-4.213,86.046-4.213c32.483,0,63.043,1.495,86.042,4.213
			c38.005,4.485,38.005,10.193,38.005,12.933c0,2.74,0,8.448-38.005,12.937C295.409,60.526,264.85,62.021,232.366,62.021z
			 M114.271,44.879c5.361,4.84,48.84,11.471,118.095,11.471c69.252,0,112.733-6.631,118.097-11.471
			c-5.362-4.84-48.84-11.475-118.097-11.475C163.106,33.404,119.629,40.04,114.271,44.879z"/>
	</g>
	<g>
		<path fill="#EAB154" d="M105.669,141.544c1.027,24.287,3.763,50.861,11.53,70.446c23.746,59.93,36.712,66.412,46.969,111.766
			c10.26,45.352,4.859,106.902,4.859,106.902s-1.085,13.043,4.31,19.257c5.087,5.854,24.24,10.232,57.693,10.407l0.009,0.041
			c0.342,0,0.639-0.018,0.984-0.034c0.348,0.018,0.64,0.034,0.986,0.034l0.009-0.041c33.447-0.175,52.606-4.554,57.691-10.407
			c5.396-6.214,4.311-19.257,4.311-19.257s-5.396-61.551,4.86-106.902c10.255-45.354,23.221-51.836,46.969-111.766
			c7.83-19.747,11.204-45.93,12.203-70.408"/>
		<path fill="#3C2517" d="M233.01,463.196c-0.342,0-0.635-0.008-0.965-0.025c-0.53,0.025-1.002,0.074-1.495-0.017
			c-18.804-0.126-51.016-1.787-59.351-11.374c-6.113-7.041-5.045-20.771-4.994-21.355c0.054-0.628,5.236-61.651-4.802-106.043
			c-5.83-25.772-12.489-38.721-21.715-56.649c-6.688-12.989-15.008-29.158-25.129-54.697c-6.553-16.527-10.386-39.875-11.726-71.373
			c-0.067-1.562,1.148-2.886,2.714-2.952c1.649-0.004,2.886,1.152,2.948,2.714c1.314,30.846,5.02,53.592,11.337,69.523
			c10.018,25.28,18.266,41.314,24.892,54.193c9.421,18.295,16.223,31.518,22.212,57.987c10.234,45.269,4.973,107.161,4.915,107.778
			c-0.264,3.292-0.143,12.822,3.629,17.155c3.854,4.434,20.478,9.236,55.565,9.429c0.139,0,0.272,0.008,0.406,0.024
			c0.167,0,0.35-0.018,0.618-0.018c0.024,0,0.046,0,0.062,0c0.188,0.01,0.339,0.018,0.473,0.018c0.13-0.018,0.264-0.024,0.396-0.024
			c35.09-0.191,51.713-4.995,55.572-9.429c3.783-4.36,3.896-13.87,3.623-17.171c-0.057-0.603-5.314-62.496,4.916-107.764
			c5.986-26.471,12.79-39.693,22.207-57.988c6.627-12.884,14.879-28.913,24.896-54.192c6.687-16.875,10.836-40.898,12.006-69.481
			c0.059-1.562,1.397-2.793,2.946-2.71c1.565,0.059,2.782,1.378,2.715,2.944c-0.826,20.369-3.654,49.278-12.394,71.335
			c-10.122,25.539-18.445,41.708-25.131,54.698c-9.225,17.929-15.889,30.875-21.715,56.648
			c-10.036,44.393-4.852,105.415-4.802,106.033c0.05,0.594,1.119,14.324-4.988,21.365c-8.345,9.587-40.564,11.248-59.368,11.374
			C233.331,463.188,233.172,463.196,233.01,463.196z"/>
	</g>
	<g>
		<path fill="#F8C986" d="M359.523,139.231c0,7.905-56.934,14.31-127.157,14.31c-70.232,0-127.157-6.405-127.157-14.31
			s56.925-14.306,127.157-14.306C302.591,124.925,359.523,131.327,359.523,139.231z"/>
		<path fill="#3C2517" d="M232.366,156.377c-34.069,0-66.11-1.495-90.23-4.205c-39.762-4.476-39.762-10.193-39.762-12.94
			c0-2.744,0-8.46,39.762-12.933c24.12-2.714,56.161-4.209,90.23-4.209s66.11,1.495,90.23,4.209
			c39.762,4.472,39.762,10.189,39.762,12.933c0,2.748,0,8.464-39.762,12.94C298.478,154.882,266.434,156.377,232.366,156.377z
			 M108.392,139.231c5.908,4.86,51.521,11.475,123.975,11.475c72.455,0,118.066-6.615,123.976-11.475
			c-5.908-4.857-51.521-11.471-123.976-11.471C159.912,127.761,114.3,134.375,108.392,139.231z"/>
	</g>
	<g>
		<path fill="#BE202E" d="M326.28,307.033c0,0-56.509-8.157-61.351,44.428c-4.828,52.59,18.144,83.415,46.556,98.521
			c18.332,10.382,29.61,0,29.61,0s10.272-6.047,21.148,2.423c8.466,5.547,19.397,2.873,32.952-5.746
			c16.615-13.897,50.769-36.263,37.77-99.729c0,0-7.453-50.98-64.063-39.093C348.862,311.514,326.28,307.033,326.28,307.033z"/>
		<path fill="#3C2517" d="M372.189,458.144c-4.224,0-8.09-1.138-11.496-3.365c-3.524-2.732-7.133-4.053-10.907-4.053
			c-3.666,0-6.381,1.253-7.078,1.604c-1.328,1.094-6.782,5.102-15.401,5.102c-5.587,0-11.383-1.679-17.22-4.984
			c-20.353-10.815-53.752-38.409-47.979-101.247c3.941-42.836,40.552-47.459,56.105-47.459c5.044,0,8.335,0.463,8.473,0.485
			c0.259,0.043,11.416,2.226,24.708,2.226c6.209,0,11.927-0.474,16.996-1.403c5.8-1.217,11.438-1.842,16.687-1.842
			c43.854,0,50.636,42.882,50.698,43.314c12.432,60.686-17.371,84.904-35.182,99.38c-1.257,1.025-2.46,1.993-3.578,2.93
			c-0.093,0.083-0.191,0.159-0.297,0.226C387.093,455.169,379.07,458.144,372.189,458.144z M349.786,445.056
			c5.063,0,9.846,1.722,14.201,5.118c6.53,4.244,16.192,2.632,29.53-5.812c1.1-0.908,2.272-1.861,3.499-2.863
			c16.809-13.664,44.944-36.522,33.174-93.999c-0.264-1.727-6.219-38.623-45.115-38.623c-4.856,0-10.103,0.586-15.593,1.732
			c-5.475,1.013-11.542,1.513-18.09,1.513c-13.848,0-25.143-2.204-25.66-2.31l0,0c-0.033,0-3.026-0.401-7.521-0.401
			c-40.514,0-49.008,26.508-50.46,42.315c-2.348,25.564,0.385,71.999,45.064,95.752c5.041,2.855,9.892,4.283,14.488,4.283
			c7.462,0,11.709-3.718,11.887-3.875c0.138-0.126,0.304-0.251,0.468-0.353C339.831,447.438,343.943,445.056,349.786,445.056z"/>
	</g>
	<g>
		<path fill="#683614" d="M342.603,323.357c0,0-22.962-47.15,42.015-67.092c0,0,7.09,11.328,10.405,22.813
			c-45.893-5.267-43.604,44.204-43.604,44.204L342.603,323.357z"/>
		<path fill="#3C2517" d="M342.603,326.193c-1.079,0-2.069-0.617-2.547-1.596c-0.365-0.756-8.932-18.752-0.639-37.84
			c6.515-14.996,21.442-26.171,44.368-33.201c1.224-0.369,2.552,0.115,3.231,1.207c0.302,0.475,7.341,11.799,10.728,23.53
			c0.264,0.91,0.055,1.892-0.56,2.614c-0.609,0.727-1.55,1.105-2.488,0.984c-12.805-1.457-22.824,1.444-29.687,8.631
			c-11.57,12.123-10.769,32.425-10.757,32.627c0.033,0.771-0.246,1.522-0.771,2.082c-0.535,0.56-1.267,0.877-2.038,0.887
			l-8.814,0.074C342.62,326.193,342.611,326.193,342.603,326.193z M383.326,259.645c-20.028,6.531-33.036,16.383-38.682,29.311
			c-5.945,13.611-1.888,27.018-0.158,31.552l4.097-0.034c0.192-6.613,1.791-22.824,12.323-33.861
			c7.318-7.666,17.392-11.266,30.103-10.701C388.533,269.04,385.075,262.684,383.326,259.645z"/>
	</g>
	<g>
		<path fill="#24B34B" d="M354.654,283.008c0,0,1.229-26.064-29.15-32.638c-30.383-6.568-38.385,16.323-38.385,16.323
			s20.132,37.039,67.535,17.347"/>
		<path fill="#3C2517" d="M328.46,292.618c-30.045,0.002-43.662-24.263-43.833-24.572c-0.381-0.704-0.447-1.53-0.184-2.287
			c0.086-0.257,9.193-25.173,41.656-18.157c32.351,6.994,31.402,35.257,31.391,35.541c-0.009,0.131-0.025,0.258-0.047,0.385
			c0.242,1.285-0.441,2.609-1.698,3.132C345.473,290.926,336.394,292.618,328.46,292.618z M290.289,266.473
			c3.727,5.858,22.439,30.945,61.539,15.649c-0.084-4.168-1.838-23.556-26.922-28.983
			C300.982,247.969,292.331,262.166,290.289,266.473z"/>
	</g>
	<g>
		<path fill="#3C2517" d="M282.918,365.48c-0.037,0-0.07,0-0.107-0.006c-1.562-0.051-2.785-1.369-2.728-2.934
			c1.283-34.711,33.353-38.346,33.679-38.377c1.578-0.133,2.948,0.979,3.106,2.534c0.154,1.558-0.979,2.944-2.534,3.106
			c-1.175,0.125-27.484,3.27-28.585,32.944C285.691,364.279,284.436,365.48,282.918,365.48z"/>
	</g>
</g>
</svg>
