<svg id="classroom" xmlns="http://www.w3.org/2000/svg" viewBox="0 0 300 300"><defs><style>.cls-1{fill:#bbefe0;}.cls-2{fill:#fff0cf;}.cls-3{fill:#a97c50;}.cls-3,.cls-4,.cls-5,.cls-6,.cls-8,.cls-9{stroke:#3c2415;stroke-miterlimit:10;stroke-width:2.16px;}.cls-4{fill:#8b5e3c;}.cls-5{fill:#6d6e71;}.cls-6{fill:#414042;}.cls-7{font-size:16.25px;fill:#fff;font-family:MyriadHebrew-Bold, Myriad Hebrew;font-weight:700;}.cls-8{fill:#1c75bc;}.cls-9{fill:#8dc63f;}</style></defs><title>classroom</title><path class="cls-1" d="M266,155.4a119.93,119.93,0,0,1-239.86,0"/><path class="cls-2" d="M26.15,155.4a119.93,119.93,0,0,1,239.86,0"/><rect class="cls-3" x="55.99" y="155.54" width="126.71" height="61.23"/><path class="cls-4" d="M186.93,155.54a5.77,5.77,0,0,1-5.77,5.78h-124a5.78,5.78,0,0,1-5.78-5.78h0a5.77,5.77,0,0,1,5.78-5.77h124a5.77,5.77,0,0,1,5.77,5.77Z"/><rect class="cls-5" x="111.07" y="120.88" width="108.22" height="9.63"/><rect class="cls-6" x="113.38" y="64.27" width="103.6" height="56.61"/><text class="cls-7" transform="translate(138.29 99.52)">4 + 5 = 9</text><rect class="cls-8" x="65.24" y="140.1" width="37.36" height="9.67"/><rect class="cls-9" x="65.24" y="132.82" width="31.58" height="7.36"/></svg>