<?xml version="1.0" encoding="utf-8"?>
<!-- Generator: Adobe Illustrator 16.0.0, SVG Export Plug-In . SVG Version: 6.00 Build 0)  -->
<!DOCTYPE svg PUBLIC "-//W3C//DTD SVG 1.1//EN" "http://www.w3.org/Graphics/SVG/1.1/DTD/svg11.dtd">
<svg version="1.1" id="Layer_1" xmlns="http://www.w3.org/2000/svg" xmlns:xlink="http://www.w3.org/1999/xlink" x="0px" y="0px"
	 width="500px" height="500px" viewBox="0 0 500 500" enable-background="new 0 0 500 500" xml:space="preserve">
<g id="Layer_1_copy_8">
	
		<path fill="none" stroke="#211010" stroke-width="3.5445" stroke-linecap="round" stroke-linejoin="round" stroke-miterlimit="10" d="
		M146.78,229.539c0,0-66.507,31.979-98.853,61.418c-32.348,29.438-18.904,23.627-24.715,50.881"/>
	
		<path fill="none" stroke="#211010" stroke-width="3.5445" stroke-linecap="round" stroke-linejoin="round" stroke-miterlimit="10" d="
		M146.78,205.915c0,0-34.527-32.345-42.522-51.971c-7.996-19.626-14.535-62.874-19.263-81.408"/>
	
		<path fill="#603A17" stroke="#211010" stroke-width="3.5445" stroke-linecap="round" stroke-linejoin="round" stroke-miterlimit="10" d="
		M288.941,286.781c0,0,18.503,31.06,34.856,38.324c16.355,7.27,8.728,22.896,5.089,31.615c-3.632,8.73-3.632-6.902-3.995-17.076
		c0,0-48.607-25.08-53.196-56.152c-4.592-31.07,6.312-23.076,6.312-23.076L288.941,286.781z"/>
	
		<path fill="#603A17" stroke="#211010" stroke-width="3.5445" stroke-linecap="round" stroke-linejoin="round" stroke-miterlimit="10" d="
		M218.085,280.958c0,0,18.501,31.056,34.856,38.321c16.354,7.271,8.722,22.897,5.088,31.621c-3.635,8.723-3.635-6.909-3.998-17.082
		c0,0-48.608-25.082-53.198-56.152c-4.59-31.071,6.313-23.077,6.313-23.077L218.085,280.958z"/>
	
		<path fill="#603A17" stroke="#211010" stroke-width="3.5445" stroke-linecap="round" stroke-linejoin="round" stroke-miterlimit="10" d="
		M363.961,270.156c0,0-32.343,20.475-10.177,20.836c22.17,0.361,105.036,27.984,113.396,38.16c8.355,10.177,13.809,11.994,0,9.449
		c-13.812-2.545-75.236-34.709-89.041-33.705c-13.812,0.996-49.428-3-49.067-16.086c0.362-13.082,9.038-19.627,9.038-19.627
		s16.039-21.806,26.941,0"/>
	
		<path fill="#603A17" stroke="#211010" stroke-width="3.5445" stroke-linecap="round" stroke-linejoin="round" stroke-miterlimit="10" d="
		M293.744,169.97c0,0,18.497-31.056,34.854-38.325c16.355-7.267,8.72-22.895,5.089-31.618c-3.639-8.722-3.639,6.904-3.997,17.081
		c0,0-48.608,25.083-53.199,56.154c-4.589,31.071,6.313,23.077,6.313,23.077L293.744,169.97z"/>
	
		<path fill="#603A17" stroke="#211010" stroke-width="3.5445" stroke-linecap="round" stroke-linejoin="round" stroke-miterlimit="10" d="
		M222.879,175.797c0,0,18.504-31.055,34.859-38.324c16.354-7.269,8.723-22.896,5.088-31.618c-3.635-8.723-3.635,6.904-3.997,17.08
		c0,0-48.609,25.083-53.195,56.152c-4.59,31.073,6.311,23.077,6.311,23.077L222.879,175.797z"/>
	
		<path fill="#603A17" stroke="#211010" stroke-width="3.5445" stroke-linecap="round" stroke-linejoin="round" stroke-miterlimit="10" d="
		M338.551,218.876c0,0-32.347-20.474-10.176-20.837c22.17-0.364,105.031-27.986,113.392-38.16c8.358-10.176,13.811-11.994,0-9.45
		c-13.812,2.544-75.233,34.708-89.041,33.708c-13.811-1-49.426,3-49.064,16.083c0.364,13.083,9.037,19.626,9.037,19.626
		s16.041,21.805,26.943,0"/>
	
		<path fill="#A97D51" stroke="#211010" stroke-width="3.5445" stroke-linecap="round" stroke-linejoin="round" stroke-miterlimit="10" d="
		M194.388,179.385c0,0-43.973,2.907-65.416,33.435c-21.442,30.529,34.891,51.97,41.069,42.886
		c6.178-9.088,23.987,5.812,21.803-26.168C189.664,197.555,208.566,183.746,194.388,179.385z"/>
	
		<path fill="#764E2A" stroke="#211010" stroke-width="3.5445" stroke-linecap="round" stroke-linejoin="round" stroke-miterlimit="10" d="
		M229.642,165.574c0,0-44.703,0-48.32,36.345c-3.08,30.935-21.651,62.147,27.691,68.324c0,0,125.298,28.347,182.723,0
		c57.42-28.349,18.172-59.238,1.816-64.328C377.197,200.826,312.871,157.215,229.642,165.574z"/>
</g>
</svg>
