<?xml version="1.0" encoding="utf-8"?>
<!-- Generator: Adobe Illustrator 16.0.0, SVG Export Plug-In . SVG Version: 6.00 Build 0)  -->
<!DOCTYPE svg PUBLIC "-//W3C//DTD SVG 1.1//EN" "http://www.w3.org/Graphics/SVG/1.1/DTD/svg11.dtd">
<svg version="1.1" id="Layer_1" xmlns="http://www.w3.org/2000/svg" xmlns:xlink="http://www.w3.org/1999/xlink" x="0px" y="0px"
	 width="500px" height="500px" viewBox="0 0 500 500" enable-background="new 0 0 500 500" xml:space="preserve">
<g id="Layer_1_copy_41">
	<g>
		<path fill="#A8894D" d="M397.672,115.756c0,0-2.145,9.449-15.159,10.081c-13.015,0.635-30.477-13.254-30.477-13.254l21.832-15.872
			L397.672,115.756z"/>
		<path fill="#3C2517" d="M381.635,128.919c-13.814,0-30.787-13.374-31.5-13.945c-0.751-0.593-1.178-1.502-1.157-2.455
			c0.022-0.959,0.487-1.849,1.262-2.413l21.828-15.872c1.113-0.811,2.635-0.776,3.709,0.084l23.812,19.046
			c0.912,0.734,1.333,1.926,1.068,3.069c-0.106,0.479-2.833,11.724-17.995,12.464C382.322,128.912,381.979,128.919,381.635,128.919z
			 M357.235,112.585c5.443,3.763,16.49,10.613,25.13,10.197c7.339-0.36,10.422-3.901,11.624-6.053l-20.212-16.174L357.235,112.585z"
			/>
	</g>
	<g>
		<path fill="#A8894D" d="M114.198,120.355c-0.015-0.035,4.28,9.48,16.629,10.08c13.015,0.635,30.477-13.258,30.477-13.258
			L116.617,95.56L114.198,120.355z"/>
		<path fill="#3C2517" d="M131.706,133.518c-0.346,0-0.688-0.007-1.026-0.025c-13.872-0.677-19.043-11.381-19.254-11.84
			c-0.233-0.497-0.332-1.051-0.275-1.598l2.419-24.791c0.099-0.998,0.678-1.884,1.549-2.37c0.878-0.494,1.933-0.522,2.832-0.088
			l44.684,21.617c0.949,0.458,1.594,1.368,1.711,2.416c0.116,1.047-0.314,2.077-1.137,2.733
			C162.492,120.144,145.521,133.518,131.706,133.518z M117.329,119.724c1.144,1.908,5.083,7.237,13.65,7.657
			c8.185,0.423,18.706-5.841,24.371-9.682l-36.113-17.473L117.329,119.724z"/>
	</g>
	<g>
		<path fill="#F0DCAA" d="M130.267,107.782l43.198,327.033c0,0,7.139,31.737,88.887,31.737c81.749,0,87.305-32.935,87.305-32.935
			l34.524-330.764L250.448,54.246L130.267,107.782z"/>
		<path fill="#3C2517" d="M262.352,469.612c-83.235,0-91.56-32.733-91.874-34.127c-0.018-0.089-0.035-0.181-0.046-0.271
			L127.233,108.18c-0.176-1.34,0.55-2.645,1.789-3.195l120.182-53.533c0.727-0.324,1.548-0.353,2.292-0.081L385.226,99.98
			c1.322,0.479,2.147,1.795,2,3.191l-34.526,330.77C352.428,435.58,345.73,469.612,262.352,469.612z M176.474,434.218
			c0.518,1.679,10.273,29.278,85.877,29.278c77.523,0,84.235-30.113,84.292-30.421l34.247-328.162L250.564,57.547L133.6,109.648
			L176.474,434.218z"/>
	</g>
	<g opacity="0.55">
		<path fill="#FFFFFF" d="M145.126,194.376c0,0,110.173-21.218,226.873-2.042l-13.875,129.354c0,0-181.584-2.448-195.452,5.304
			L145.126,194.376z"/>
	</g>
	<g>
		<path fill="#FEF3D8" d="M137.75,71.711c0-31.122,48.243-44.19,116.074-44.19s120.044,9.495,120.044,40.613v11.512L296.482,91.55
			H160.768l-23.018-9.128V71.711z"/>
		<path fill="#3C2517" d="M296.482,94.608H160.768c-0.388,0-0.771-0.07-1.132-0.211l-23.014-9.128
			c-1.164-0.465-1.933-1.59-1.933-2.846V71.711c0-30.47,42.31-47.248,119.135-47.248c82.834,0,123.099,14.284,123.099,43.671v11.512
			c0,1.51-1.102,2.793-2.592,3.023l-77.384,11.903C296.793,94.598,296.639,94.608,296.482,94.608z M161.35,88.489h134.896
			l74.561-11.466v-8.888c0-24.918-39.359-37.552-116.981-37.552c-72.878,0-113.016,14.605-113.016,41.128v8.634L161.35,88.489z"/>
	</g>
	<g>
		<path fill="#D3BB8A" d="M121.875,87.583c0,0-11.508,10.715-7.938,32.54C134.971,94.725,269.896,97.5,269.896,97.5
			s103.973-1.188,127.775,18.255c3.175-18.65-9.354-34-23.804-37.823c-2.998-0.529-45.738-11.392-114.292-11.385
			C243.577,66.555,164.337,65.355,121.875,87.583z"/>
		<path fill="#3C2517" d="M113.937,123.184c-0.265,0-0.532-0.035-0.797-0.106c-1.157-0.317-2.025-1.277-2.223-2.461
			c-3.791-23.18,8.355-34.791,8.874-35.277c0.198-0.183,0.424-0.342,0.667-0.472c26.738-13.992,72.673-21.388,132.837-21.388
			l6.232,0.01c40.719,0,80.916,3.939,113.339,11.1c0.775,0.169,1.292,0.286,1.527,0.325c0.088,0.018,0.17,0.035,0.249,0.057
			c15.559,4.119,29.558,20.688,26.045,41.3c-0.181,1.072-0.922,1.968-1.939,2.349c-1.023,0.381-2.162,0.194-3.013-0.494
			c-3.595-2.935-26.386-17.579-122.372-17.579c-2.201,0-3.422,0.014-3.434,0.014c-0.115,0-4.433-0.091-11.631-0.091
			c-115.166,0-137.807,16.534-142,21.606C115.707,122.79,114.84,123.184,113.937,123.184z M123.707,90.08
			c-1.422,1.496-8.028,9.28-7.351,23.85C141.842,96.358,222.794,94.351,258.3,94.351c7.146,0,11.479,0.089,11.649,0.089
			c0,0,1.24-0.014,3.414-0.014c22.714,0,95.226,1.209,121.744,15.963c0.222-14.82-10.307-26.346-21.925-29.471
			c-0.316-0.063-0.862-0.184-1.633-0.353c-32.007-7.061-71.734-10.955-111.872-10.955l-6.384-0.011
			C194.43,69.599,149.64,76.678,123.707,90.08z"/>
	</g>
	<g>
		<g>
			<g>
				<g>
					<path fill="#764E2A" d="M208.358,287.471c-15.551-8.589-13.735-31.572,0.609-53.603c14.34-22.03,34.518-35.058,50.068-26.47
						c15.551,8.588,26.041,34.381,9.326,59.127C250.572,292.864,223.911,296.062,208.358,287.471z"/>
				</g>
				<g>
					<path fill="#603A17" d="M225.812,294.173c-6.793,0-13.237-1.577-18.637-4.562c-5.734-3.163-9.636-8.32-11.278-14.916
						c-2.894-11.598,1.12-26.963,11.018-42.161c12.338-18.943,27.934-30.254,41.724-30.254c4.112,0,8.011,1.001,11.583,2.97
						c8.608,4.761,15.301,14.03,17.893,24.809c3.019,12.556,0.273,25.987-7.721,37.833
						C259.107,284.596,242.861,294.173,225.812,294.173z M248.639,207.176c-11.949,0-26.364,10.744-37.618,28.033
						c-9.022,13.854-12.901,28.174-10.369,38.303c1.322,5.315,4.316,9.29,8.888,11.819c4.681,2.581,10.306,3.946,16.273,3.946
						c15.398,0,30.167-8.793,40.521-24.125c7.221-10.694,9.714-22.75,7.02-33.95c-2.274-9.459-8.069-17.557-15.498-21.663
						C255.016,207.973,251.912,207.176,248.639,207.176z"/>
				</g>
			</g>
			<g>
				<g>
					<path fill="#8B5F3D" d="M204.721,286.068c-13.875-7.576-13.561-31.623,0.695-53.707c14.252-22.083,37.059-33.841,50.934-26.258
						c13.868,7.583,13.563,31.623-0.691,53.707C241.401,281.891,218.597,293.643,204.721,286.068z"/>
				</g>
				<g>
					<path fill="#603A17" d="M214.272,290.814c-3.957,0-7.562-0.871-10.722-2.6c-5.178-2.829-8.796-7.773-10.455-14.298
						c-3.082-12.126,0.756-28.156,10.265-42.885c11.458-17.751,28.913-29.676,43.438-29.676c3.958,0,7.569,0.875,10.726,2.599
						c5.182,2.832,8.791,7.777,10.451,14.306c3.078,12.125-0.754,28.152-10.257,42.874
						C246.255,278.887,228.796,290.814,214.272,290.814z M246.798,206.252c-12.926,0-28.73,11.025-39.325,27.44
						c-8.648,13.399-12.342,28.35-9.629,39.02c1.312,5.175,4.098,9.05,8.056,11.204c2.426,1.333,5.248,2.008,8.373,2.008
						c12.93,0,28.733-11.033,39.329-27.443c8.648-13.396,12.338-28.342,9.625-39.016c-1.312-5.174-4.098-9.05-8.049-11.212
						C252.745,206.925,249.923,206.252,246.798,206.252z"/>
				</g>
			</g>
			<g>
				<g>
					<path fill="#8B5F3D" d="M248.915,203.903c0,0-0.815,22.029-20.528,40.49c-22.904,21.451-19.701,32.007-20.858,42.906"/>
				</g>
				<g>
					<path fill="#603A17" d="M209.963,287.557l-4.868-0.517c0.162-1.533,0.233-3.062,0.311-4.617
						c0.473-9.743,1.002-20.798,21.311-39.815c18.679-17.501,19.744-38.592,19.75-38.8l4.896,0.187
						c-0.035,0.938-1.087,23.253-21.303,42.189c-18.855,17.66-19.317,27.229-19.767,36.476
						C210.217,284.311,210.139,285.93,209.963,287.557z"/>
				</g>
			</g>
		</g>
		<g>
			<g>
				<g>
					<path fill="#764E2A" d="M329.764,280.576c6.08-16.693-10.388-32.833-35.672-40.017c-25.285-7.191-49.058-3.763-55.145,12.929
						c-6.081,16.688,2.956,43.022,31.809,50.701C301.474,312.365,323.676,297.262,329.764,280.576z"/>
				</g>
				<g>
					<path fill="#603A17" d="M287.539,308.925c-0.005,0,0,0-0.005,0c-5.644,0-11.501-0.797-17.408-2.368
						c-13.812-3.677-24.707-12.002-30.675-23.455c-5.125-9.826-6.172-21.209-2.804-30.457c4.19-11.494,16.51-18.088,33.803-18.088
						c7.618,0,15.797,1.227,24.309,3.65c17.443,4.952,30.567,13.899,36.003,24.544c3.089,6.057,3.544,12.507,1.303,18.661
						C327.068,295.107,311.359,308.925,287.539,308.925z M270.45,239.455c-8.882,0-24.484,1.929-29.204,14.874
						c-2.901,7.971-1.954,17.881,2.547,26.512c5.325,10.214,15.124,17.663,27.592,20.982c5.499,1.464,10.934,2.208,16.149,2.208
						h0.005c21.458,0,35.513-12.203,39.922-24.299c1.787-4.908,1.432-9.871-1.059-14.75c-4.751-9.299-17.081-17.549-32.981-22.071
						C285.458,240.647,277.511,239.455,270.45,239.455z"/>
				</g>
			</g>
			<g>
				<g>
					<path fill="#8B5F3D" d="M331.576,277.124c5.482-14.828-10.542-32.752-35.795-40.039c-25.258-7.283-50.176-1.167-55.652,13.66
						c-5.485,14.828,10.542,32.752,35.792,40.042C301.181,298.073,326.093,291.958,331.576,277.124z"/>
				</g>
				<g>
					<path fill="#603A17" d="M297.07,296.307L297.07,296.307c-7.197,0-14.545-1.065-21.827-3.168
						c-16.843-4.855-30.258-14.429-35.901-25.596c-3.033-6.01-3.556-12.115-1.51-17.649c4.176-11.304,18.277-18.33,36.797-18.33
						c7.199,0,14.546,1.069,21.829,3.167c16.838,4.864,30.265,14.429,35.905,25.595c3.033,6.011,3.559,12.111,1.51,17.646
						C329.692,289.285,315.592,296.307,297.07,296.307z M274.629,236.464c-16.17,0-28.812,5.939-32.204,15.127
						c-1.566,4.226-1.115,8.979,1.291,13.744c4.958,9.826,17.563,18.675,32.886,23.103c6.842,1.976,13.73,2.978,20.471,2.978l0,0
						c16.168,0,28.809-5.942,32.209-15.14c1.562-4.225,1.118-8.977-1.288-13.739c-4.966-9.822-17.567-18.676-32.89-23.095
						C288.255,237.465,281.366,236.464,274.629,236.464z"/>
				</g>
			</g>
			<g>
				<g>
					<path fill="#8B5F3D" d="M244.287,244.202c0,0,15.081,16.077,42.072,17.046c31.365,1.132,35.873,11.193,43.912,18.648"/>
				</g>
				<g>
					<path fill="#603A17" d="M328.606,281.698c-1.203-1.118-2.331-2.289-3.476-3.481c-6.415-6.683-13.046-13.59-38.855-14.521
						c-27.685-0.997-43.128-17.133-43.772-17.817l3.568-3.354c0.141,0.155,14.797,15.361,40.38,16.277
						c27.793,1.002,35.451,8.983,42.211,16.02c1.079,1.125,2.142,2.232,3.277,3.283L328.606,281.698z"/>
				</g>
			</g>
		</g>
	</g>
</g>
</svg>
