<svg id="cold_drink" data-name="cold drink" xmlns="http://www.w3.org/2000/svg" viewBox="0 0 300 300"><defs><style>.cls-1{fill:#c14e27;}.cls-2{fill:#3c2517;}.cls-3{fill:#e01f26;}</style></defs><title>cold drinkss</title><path class="cls-1" d="M189.07,230.62c-5.68-11.46-4.37-16.88-.55-57.46S178.32,103,175.92,93.8,169.44,63.47,169.44,52c-1.11-.24-2.21-.43-3.27-.58v-.1a51.89,51.89,0,0,0-22.08.73c.37,11.44-2.53,33.68-4.06,41.94s-16.2,39.32-11.06,79.76,6.64,45.81,1.33,57.44-3.37,21.49,7.59,25.5,36,3.47,45-.55c9.1-3.75,11.91-14.09,6.23-25.54"/><path class="cls-2" d="M159.37,260.53c-9,0-17-1-21.85-2.82s-8.25-4.74-9.93-8.76c-2-4.9-1.45-11.19,1.74-18.18,4.62-10.13,3.92-15.49.07-45.23-.45-3.52-1-7.39-1.49-11.64-4.14-32.55,4.31-58.6,8.86-72.6,1.07-3.3,1.91-5.9,2.21-7.48,1.6-8.66,4.4-30.62,4-41.72a1.07,1.07,0,0,1,.82-1.07,55.79,55.79,0,0,1,13.28-1.59,44,44,0,0,1,9.31.86,1.22,1.22,0,0,1,.33.14c1,.15,2,.33,2.91.53a1.06,1.06,0,0,1,.85,1.05c0,11.82,4.27,33.21,6.44,41.51.41,1.55,1.16,3.71,2.11,6.45,4.45,12.81,13.71,39.47,10.53,73.28-.4,4.25-.77,8.12-1.11,11.66-2.88,29.86-3.4,35.24,1.55,45.22,3.22,6.49,3.92,12.94,2,18.15a15.26,15.26,0,0,1-8.74,8.86c-4.62,2.08-13.78,3.38-23.88,3.38M145.18,52.91c.2,11.49-2.52,32.78-4.09,41.29a75.94,75.94,0,0,1-2.28,7.76C134.32,115.8,126,141.55,130,173.64c.54,4.24,1,8.1,1.5,11.62,3.92,30.26,4.62,35.71-.25,46.4-2.93,6.43-3.52,12.13-1.71,16.47,1.44,3.44,4.37,6,8.69,7.57,4.67,1.71,12.36,2.69,21.11,2.69,9.82,0,18.64-1.23,23-3.2a13.19,13.19,0,0,0,7.58-7.65c1.75-4.65,1.09-10.49-1.87-16.45-5.22-10.52-4.7-16-1.77-46.38.34-3.53.72-7.4,1.12-11.65,3.13-33.35-6-59.71-10.42-72.37-1-2.79-1.74-5-2.16-6.62-2.15-8.19-6.31-29-6.51-41.18-.77-.15-1.56-.28-2.36-.39a1,1,0,0,1-.46-.19,45.74,45.74,0,0,0-8.44-.73,54.13,54.13,0,0,0-11.93,1.33"/><path class="cls-3" d="M131.09,125.79s39,2.66,53.86-.73c0,0,7.06,25.34,2.92,54,0,0-28.3,8.3-58.27-.41a152.43,152.43,0,0,1,1.49-52.89"/><path class="cls-2" d="M158.86,183.73a105.94,105.94,0,0,1-29.56-4,1.07,1.07,0,0,1-.76-.86,155,155,0,0,1,1.51-53.31,1.08,1.08,0,0,1,1.11-.82c.15,0,14.64,1,29.13,1,11.26,0,19.48-.58,24.43-1.7a1.07,1.07,0,0,1,1.27.76c.07.25,7.07,25.89,2.94,54.47a1.06,1.06,0,0,1-.76.88,115.7,115.7,0,0,1-29.31,3.61m-28.31-5.89a104.12,104.12,0,0,0,28.31,3.75,116.51,116.51,0,0,0,28-3.35c3.42-24.75-1.54-47.07-2.74-51.92-5.17,1-13.19,1.53-23.88,1.53-12.46,0-24.92-.71-28.35-.93a154.07,154.07,0,0,0-1.39,50.92"/><path class="cls-3" d="M171.45,45.93c0-3-6.64-5.39-14.83-5.39S141.79,43,141.79,45.93v6.91s19.9,1.26,29.66,0"/><path class="cls-2" d="M159.42,54.47h0c-8.72,0-17.61-.55-17.69-.55a1.08,1.08,0,0,1-1-1.07V45.94c0-4.21,8.19-6.47,15.9-6.47s15.9,2.26,15.9,6.47v6.91a1.07,1.07,0,0,1-.94,1.06,100.63,100.63,0,0,1-12.16.56m-16.55-2.63c2.56.14,9.61.49,16.55.49h0a109.63,109.63,0,0,0,11-.44v-6c0-1.81-5.24-4.33-13.76-4.33s-13.75,2.52-13.75,4.33Z"/></svg>