<?xml version="1.0" encoding="utf-8"?>
<!-- Generator: Adobe Illustrator 16.0.0, SVG Export Plug-In . SVG Version: 6.00 Build 0)  -->
<!DOCTYPE svg PUBLIC "-//W3C//DTD SVG 1.1//EN" "http://www.w3.org/Graphics/SVG/1.1/DTD/svg11.dtd">
<svg version="1.1" id="Layer_1" xmlns="http://www.w3.org/2000/svg" xmlns:xlink="http://www.w3.org/1999/xlink" x="0px" y="0px"
	 width="500px" height="500px" viewBox="0 0 500 500" enable-background="new 0 0 500 500" xml:space="preserve">
<g id="Layer_1_copy_73">
	<g>
		<g>
			<path fill="#4FA0CA" d="M454.099,239.134c0,116.798-94.68,211.474-211.474,211.474c-116.79,0-211.47-94.676-211.47-211.474
				c0-116.791,94.68-211.47,211.47-211.47C359.419,27.664,454.099,122.343,454.099,239.134z"/>
		</g>
		<g>
			<path fill="#3059A7" d="M242.625,453.779c-118.354,0-214.646-96.291-214.646-214.646c0-118.354,96.292-214.644,214.646-214.644
				c118.357,0,214.646,96.29,214.646,214.644C457.271,357.488,360.982,453.779,242.625,453.779z M242.625,30.837
				c-114.854,0-208.295,93.44-208.295,208.296c0,114.858,93.441,208.301,208.295,208.301c114.857,0,208.302-93.442,208.302-208.301
				C450.927,124.278,357.482,30.837,242.625,30.837z"/>
		</g>
	</g>
	<g>
		<g>
			<path fill="#4FA0CA" d="M245.577,236.409c0,0-18.592,0-18.592,14.485c0,11.683,6.539,20.291,18.592,16.502"/>
		</g>
		<g>
			<path fill="#3059A7" d="M240.134,271.479c-4.031,0-6.96-1.39-8.909-2.816c-4.713-3.457-7.415-9.938-7.415-17.768
				c0-13.965,14.239-17.661,21.768-17.661c1.751,0,3.172,1.424,3.172,3.175s-1.418,3.172-3.166,3.172
				c-0.688,0.007-15.426,0.221-15.426,11.313c0,5.787,1.758,10.397,4.82,12.649c2.445,1.789,5.688,2.067,9.646,0.824
				c1.684-0.539,3.458,0.407,3.983,2.073c0.525,1.675-0.406,3.459-2.079,3.978C244.149,271.173,242.019,271.479,240.134,271.479z"/>
		</g>
	</g>
	<g>
		<g>
			<path fill="#DEF2FD" d="M219.953,171.268c8.122,37.611-8.329,73.082-36.748,79.212c-28.419,6.136-58.032-19.38-66.16-56.989
				c-8.118-37.609,8.333-73.074,36.748-79.21C182.209,108.142,211.832,133.66,219.953,171.268z"/>
		</g>
		<g>
			<path fill="#C3E5F2" d="M174.668,253.509c-27.128,0-52.232-25.053-59.689-59.573c-8.352-38.689,8.858-75.352,38.37-81.725
				c2.945-0.636,5.969-0.958,8.988-0.958c27.128,0,52.229,25.052,59.686,59.569c4.022,18.638,2.312,37.371-4.819,52.747
				c-7.227,15.578-19.144,25.873-33.551,28.98C180.708,253.186,177.685,253.509,174.668,253.509z M162.337,115.485
				c-2.719,0-5.443,0.289-8.096,0.863c-27.232,5.88-42.989,40.284-35.127,76.696c7.042,32.584,30.404,56.235,55.554,56.235
				c2.718,0,5.439-0.292,8.09-0.869c13.084-2.822,23.949-12.277,30.604-26.623c6.747-14.547,8.355-32.329,4.521-50.074
				C210.846,139.133,187.486,115.485,162.337,115.485z"/>
		</g>
	</g>
	<g>
		<path fill="#010101" d="M188.44,185.704c2.996,15.019-2.414,28.76-12.082,30.691c-9.669,1.932-19.944-8.673-22.947-23.692
			c-3.001-15.017,2.409-28.76,12.078-30.693C175.161,160.079,185.437,170.686,188.44,185.704z"/>
	</g>
	<g>
		<g>
			<path fill="#DEF2FD" d="M260.148,162.857c-14.271,37.018-3.172,75.777,24.807,86.558c27.972,10.774,62.213-10.496,76.48-47.514
				c14.269-37.021,3.165-75.769-24.81-86.553C308.659,104.567,274.417,125.84,260.148,162.857z"/>
		</g>
		<g>
			<path fill="#C3E5F2" d="M300.171,254.326c-0.004,0,0,0-0.004,0c-5.533,0-10.903-0.986-15.972-2.938
				c-14.163-5.457-24.649-17.828-29.521-34.832c-4.811-16.788-3.567-36.129,3.5-54.461c11.726-30.42,37.728-51.667,63.24-51.667
				c5.53,0,10.904,0.991,15.975,2.945c29.014,11.184,40.687,51.24,26.021,89.288C351.688,233.082,325.677,254.326,300.171,254.326z
				 M321.415,114.663c-23.801,0-48.183,20.131-59.293,48.957c-6.737,17.477-7.938,35.864-3.377,51.771
				c4.495,15.7,14.075,27.078,26.97,32.047c4.579,1.764,9.441,2.66,14.452,2.66h0.004c23.8,0,48.182-20.129,59.293-48.957
				c13.824-35.871,3.24-73.471-23.596-83.817C331.288,115.558,326.423,114.663,321.415,114.663z"/>
		</g>
	</g>
	<g>
		<path fill="#010101" d="M289.95,182.589c-5.449,14.821-2.127,29.684,7.418,33.19c9.542,3.513,21.699-5.655,27.146-20.476
			c5.452-14.823,2.136-29.681-7.411-33.192C307.562,158.602,295.402,167.766,289.95,182.589z"/>
	</g>
	<g>
		<g>
			<path fill="#4FA0CA" d="M217.702,406.121c0,0,13.701,14.686,37.153,1.057"/>
		</g>
		<g>
			<path fill="#3059A7" d="M235.587,416.128c-3.549,0-6.588-0.576-9.043-1.342c-7.077-2.187-10.995-6.332-11.16-6.5
				c-1.197-1.285-1.126-3.295,0.155-4.488c1.281-1.194,3.279-1.129,4.476,0.144c0.522,0.551,12.439,12.584,33.247,0.492
				c1.514-0.875,3.456-0.363,4.34,1.147c0.879,1.519,0.365,3.465-1.152,4.34C248.362,414.625,241.309,416.128,235.587,416.128z"/>
		</g>
	</g>
	<g>
		<g>
			<path fill="#010101" d="M308.626,78.708c0,0-10.907-8.386-2.792-15.264c6.856-5.812,10.843,1.52,17.839,6.355
				c7.372,5.094,22.471,10.498,31.75,9.172C330.837,93.621,308.626,78.708,308.626,78.708z"/>
		</g>
		<g>
			<path fill="#010101" d="M332.611,87.53c-14.479,0-24.737-6.776-25.166-7.066c-0.373-0.282-6.587-5.126-6.729-11.078
				c-0.067-2.85,1.193-5.391,3.749-7.556c2.1-1.781,4.151-2.645,6.272-2.645c3.62,0,6.528,2.537,9.613,5.224
				c1.425,1.241,2.899,2.525,4.524,3.649c6.263,4.33,18.549,9,27.472,9c0.996,0,1.932-0.06,2.776-0.182
				c1.006-0.149,1.959,0.438,2.297,1.39c0.334,0.951-0.046,2.006-0.915,2.522C348.997,85.263,340.96,87.53,332.611,87.53z
				 M309.917,77.032c0.01,0,9.575,6.266,22.694,6.266c4.811,0,9.514-0.833,14.061-2.487c-8.751-1.369-18.663-5.444-24.199-9.271
				c-1.822-1.259-3.461-2.684-4.903-3.941c-2.572-2.245-4.797-4.183-6.831-4.183c-1.08,0-2.234,0.537-3.538,1.641
				c-1.547,1.314-2.283,2.694-2.254,4.218C305.017,72.535,308.558,75.979,309.917,77.032L309.917,77.032z"/>
		</g>
	</g>
	<g>
		<g>
			<path fill="#010101" d="M171.062,91.903c0,0,15.283-8.157,5.602-14.708c-7.447-5.035-11.702,2.036-19.309,5.837
				c-10.301,5.149-22.486,4.599-32.064,1.975C147.361,103.223,171.062,91.903,171.062,91.903z"/>
		</g>
		<g>
			<path fill="#010101" d="M153.54,97.495L153.54,97.495c-10.91,0-20.868-3.654-29.6-10.856c-0.769-0.636-0.992-1.722-0.532-2.606
				c0.461-0.885,1.473-1.333,2.439-1.065c4.482,1.228,9.205,1.876,13.648,1.876c6.306,0,11.994-1.246,16.911-3.706
				c1.998-0.999,3.782-2.262,5.508-3.483c3.133-2.223,6.091-4.322,9.724-4.322c2.076,0,4.109,0.689,6.208,2.111
				c3.594,2.43,4.229,5.13,4.136,6.97c-0.314,6.057-8.942,10.832-9.925,11.355C171.658,93.963,164.144,97.495,153.54,97.495z
				 M134.991,88.879c5.757,2.916,11.965,4.385,18.549,4.385c9.652,0,16.542-3.235,16.606-3.27c2.361-1.268,7.46-4.912,7.609-7.802
				c0.02-0.407,0.085-1.643-2.28-3.243c-1.375-0.933-2.634-1.385-3.837-1.385c-2.283,0-4.599,1.641-7.278,3.542
				c-1.768,1.253-3.769,2.674-6.059,3.819C151.62,88.264,143.654,89.624,134.991,88.879z"/>
		</g>
	</g>
	<g>
		<path fill="#F3F3F3" d="M174.503,175.137c0.71,3.07-1.139,6.117-4.126,6.81c-2.987,0.691-5.987-1.236-6.697-4.303
			c-0.707-3.071,1.138-6.119,4.125-6.808C170.796,170.142,173.792,172.07,174.503,175.137z"/>
	</g>
	<g>
		<path fill="#F3F3F3" d="M313.729,177.297c-0.886,3.023-3.988,4.776-6.935,3.915c-2.942-0.861-4.612-4.01-3.727-7.033
			c0.882-3.021,3.985-4.773,6.931-3.913C312.94,171.126,314.61,174.274,313.729,177.297z"/>
	</g>
	<g>
		<path fill="#4FA0CA" d="M323.024,268.298c0,0,25.39,1.063,37.381-23.625"/>
		<path fill="#3059A7" d="M323.569,271.484c-0.36,0-0.592-0.006-0.676-0.014c-1.755-0.07-3.113-1.55-3.043-3.302
			c0.078-1.746,1.563-3.121,3.297-3.037l0,0c0.97,0.027,23.505,0.593,34.399-21.84c0.766-1.577,2.666-2.238,4.242-1.473
			c1.576,0.765,2.234,2.666,1.469,4.242C351.476,270.324,327.964,271.484,323.569,271.484z"/>
	</g>
	<g>
		<g>
			<path fill="#F3F3F3" d="M158.471,333.564c0,0-4.317-29.289,15.941-26.851c15.357,3.619,16.389-0.278,25.606-4.307
				c9.225-4.035,15.761-5.248,25.195,3.456c9.433,8.705,18.079,3.017,21.29-0.907c3.218-3.933,15.765-5.248,23.567,4.041
				c7.801,9.276,20.361,8.944,24.68,5.61c4.312-3.328,31.48-12.643,31.957,16.152c0.479,28.789-21.487,54.633-30.293,50.902
				c-8.803-3.736-20.305-5.52-23.482,0.785c-3.173,6.307-20.119,5.709-25.124,0.422c-5.009-5.299-11.608-7.959-22.99-2.23
				c-11.378,5.728-17.897,8.049-24.592-0.145c-2.303-7.16-12.607-2.555-20.226-0.771
				C172.378,381.516,157.945,367.906,158.471,333.564z"/>
		</g>
		<g>
			<path fill="#3059A7" d="M261.178,390.182c-5.234,0-12.099-1.351-15.679-5.132c-2.909-3.082-5.761-4.457-9.237-4.457
				c-2.854,0-6.222,0.976-10.016,2.882c-6.001,3.022-11.372,5.52-16.367,5.52c-4.645,0-8.491-2.062-12.107-6.486
				c-0.25-0.311-0.441-0.662-0.562-1.037c-0.298-0.922-0.732-1.682-3.049-1.682c-2.484,0-5.809,0.941-9.026,1.85
				c-1.518,0.428-3.01,0.851-4.411,1.174c-3.935,0.922-8.683-0.934-12.743-5.053c-8.323-8.459-12.948-24.488-12.688-44
				c-0.299-2.266-1.939-17.186,5.005-25.229c3.46-4.01,8.378-5.701,14.491-4.969c0.12,0.014,0.237,0.03,0.354,0.059
				c3.854,0.914,6.89,1.355,9.276,1.355c3.769,0,5.728-1.058,8.978-2.81c1.506-0.812,3.211-1.731,5.353-2.666
				c3.982-1.746,8.276-3.354,12.714-3.354c5.391,0,10.444,2.349,15.902,7.381c2.686,2.484,5.43,3.736,8.158,3.736
				c3.684,0,6.896-2.328,8.529-4.32c2.122-2.6,6.273-4.149,11.097-4.149c6.668,0,12.992,2.972,17.353,8.16
				c5.022,5.976,11.632,6.623,14.238,6.623c3.067,0,5.192-0.8,6.075-1.479c2.494-1.928,9.556-4.781,16.785-4.781
				c5.979,0,19.934,2.277,20.283,23.386c0.321,19.299-9.043,37.604-18.462,47.187c-3.274,3.334-8.219,7.305-13.133,7.305l0,0
				c-1.108,0-2.155-0.201-3.11-0.609c-4.688-1.984-9.52-3.127-13.252-3.127c-2.255,0-5.15,0.422-6.156,2.426
				C273.753,387.878,268.434,390.182,261.178,390.182z M236.262,374.25c5.222,0,9.756,2.109,13.85,6.436
				c1.729,1.828,6.38,3.152,11.066,3.152c4.93,0,8.223-1.414,8.924-2.814c1.358-2.692,4.512-5.918,11.824-5.918
				c4.555,0,10.285,1.33,15.729,3.642c1.229,0.512,4.7-0.688,9.244-5.308c8.49-8.641,16.931-25.17,16.639-42.625
				c-0.191-11.541-4.748-17.146-13.938-17.146c-5.923,0-11.635,2.474-12.906,3.459c-2.31,1.777-5.938,2.795-9.953,2.795
				c-7.393,0-14.354-3.235-19.098-8.887c-4.477-5.317-10.228-5.896-12.494-5.896c-3.418,0-5.607,1.123-6.186,1.821
				c-2.627,3.22-7.538,6.656-13.44,6.656c-4.373,0-8.566-1.822-12.462-5.416c-4.274-3.945-7.849-5.709-11.599-5.709
				c-3.27,0-6.821,1.36-10.172,2.821c-1.9,0.836-3.418,1.646-4.884,2.438c-3.552,1.922-6.617,3.567-11.988,3.567
				c-2.884,0-6.24-0.467-10.554-1.479c-3.905-0.428-6.74,0.492-8.765,2.842c-4.554,5.269-4.067,16.527-3.489,20.414
				c0.022,0.168,0.032,0.344,0.032,0.512c-0.39,25.476,7.466,36.25,10.862,39.693c2.381,2.42,5.082,3.711,6.77,3.334
				c1.316-0.311,2.714-0.707,4.139-1.109c3.632-1.022,7.388-2.082,10.748-2.082c5.657,0,7.943,3.16,8.861,5.443
				c2.832,3.301,5.05,3.762,6.856,3.762c3.257,0,7.421-1.776,13.516-4.846C228.146,375.412,232.354,374.25,236.262,374.25z"/>
		</g>
	</g>
</g>
</svg>
