<?xml version="1.0" encoding="utf-8"?>
<!-- Generator: Adobe Illustrator 16.0.0, SVG Export Plug-In . SVG Version: 6.00 Build 0)  -->
<!DOCTYPE svg PUBLIC "-//W3C//DTD SVG 1.1//EN" "http://www.w3.org/Graphics/SVG/1.1/DTD/svg11.dtd">
<svg version="1.1" id="Layer_1" xmlns="http://www.w3.org/2000/svg" xmlns:xlink="http://www.w3.org/1999/xlink" x="0px" y="0px"
	 width="500px" height="500px" viewBox="0 0 500 500" enable-background="new 0 0 500 500" xml:space="preserve">
<g id="Layer_1_copy">
	<g>
		<g>
			<path fill="#F4BE78" d="M250.736,257.538c0,0,1.615,15.657-11.578,21.377c-13.194,5.724,14.183,76.606,14.183,76.606
				l46.144-35.633l34.126-25.505l-13.741-16.502c0,0-14.973-0.146-9.244-14.323c5.735-14.183-19.773-35.563-19.773-35.563
				L250.736,257.538z"/>
		</g>
		<g>
			<path fill="#3C2517" d="M253.341,357.993c-0.221,0-0.446-0.029-0.665-0.093c-0.751-0.211-1.357-0.762-1.639-1.487
				c-6.625-17.147-27.124-73.579-12.86-79.765c11.404-4.94,10.114-18.719,10.1-18.857c-0.089-0.87,0.292-1.723,0.993-2.244
				l40.115-29.54c0.917-0.677,2.178-0.642,3.055,0.095c1.098,0.919,26.808,22.715,20.476,38.382c-1.38,3.42-1.494,6.043-0.335,7.795
				c1.658,2.5,5.845,3.109,7.319,3.133c0.722,0.014,1.405,0.338,1.865,0.89l13.741,16.503c0.436,0.522,0.635,1.198,0.558,1.873
				c-0.081,0.668-0.436,1.279-0.979,1.686l-34.124,25.505l-46.109,35.608C254.415,357.811,253.882,357.993,253.341,357.993z
				 M253.284,258.727c0.196,6.441-2.261,17.737-13.142,22.457c-5.166,2.237-1.089,29.639,14.32,70.353l43.511-33.603l32.071-23.969
				l-11.397-13.691c-2.344-0.241-7.491-1.228-10.171-5.239c-2.128-3.193-2.177-7.364-0.14-12.401
				c3.871-9.585-10.257-24.906-17.609-31.478L253.284,258.727z"/>
		</g>
	</g>
	<g>
		<path fill="#F58020" d="M246.827,271.021c0,0-16.624,45.398,19.182,50.515c35.817,5.114,44.768-47.319,44.768-47.319
			s47.317,5.756,69.697,31.975c22.388,26.213,43.485,70.338,43.485,70.338l-56.832,36.992l-20.539-44.024l-1.267,109.05H191.537
			l3.145-143.582l-47.609,2.561c0,0-17.907-36.45-7.034-82.49c13.432-5.116,81.85,0,81.85,0S238.516,260.788,246.827,271.021z"/>
		<path fill="#3C2517" d="M345.321,481.017H191.537c-0.667,0-1.305-0.267-1.768-0.742c-0.466-0.476-0.719-1.116-0.705-1.779
			l3.088-140.92l-44.944,2.415c-1.001,0.053-1.918-0.494-2.35-1.377c-0.752-1.524-18.17-37.779-7.227-84.147
			c0.192-0.797,0.761-1.448,1.526-1.739c4.302-1.64,13.481-2.437,28.067-2.437c24.067,0,54.541,2.257,54.846,2.28
			c0.215,0.017,0.424,0.06,0.627,0.129c0.703,0.244,17.391,6.105,26.049,16.762c0.545,0.678,0.696,1.592,0.401,2.409
			c-0.084,0.228-8.291,23.142,0.007,37c3.372,5.635,9.161,9.071,17.204,10.22c1.52,0.219,3.022,0.328,4.476,0.328
			c29.338,0,37.429-45.164,37.507-45.618c0.22-1.299,1.419-2.19,2.733-2.036c1.97,0.241,48.536,6.18,71.282,32.82
			c22.334,26.163,43.617,70.436,43.831,70.878c0.533,1.119,0.154,2.459-0.881,3.138l-56.832,36.991
			c-0.6,0.39-1.336,0.503-2.028,0.306c-0.689-0.193-1.255-0.682-1.558-1.33l-15.956-34.202l-1.145,98.213
			C347.773,479.932,346.673,481.017,345.321,481.017z M194.059,476.08H342.88l1.237-106.614c0.015-1.153,0.825-2.144,1.947-2.387
			c1.135-0.25,2.277,0.329,2.764,1.371l19.334,41.448l52.615-34.25c-4.348-8.787-22.915-45.291-42.182-67.857
			c-18.766-21.979-56.294-29.253-65.86-30.789c-0.915,4.143-3.23,13.102-7.8,22.163c-8.312,16.481-20.104,25.19-34.098,25.19h-0.005
			c-1.687,0-3.425-0.123-5.176-0.375c-9.593-1.373-16.575-5.605-20.748-12.584c-8.331-13.933-2.651-34.324-0.873-39.842
			c-7.396-8.236-20.55-13.303-22.666-14.082c-3.388-0.246-31.617-2.244-54.146-2.244c-14.923,0-21.877,0.869-25.096,1.729
			c-8.748,38.95,3.45,70.908,6.501,78.005l45.919-2.468c0.706-0.044,1.354,0.218,1.849,0.696c0.493,0.478,0.766,1.139,0.751,1.826
			L194.059,476.08z"/>
	</g>
	<g>
		<g>
			<path fill="#F4BE78" d="M156.662,130.1c-17.266-7.674-23.019-18.947-8.312-24.062c14.709-5.118,30.693,6.394,35.172,23.662
				c4.475,17.263-46.986,54.354-46.986,54.354l-8.648,68.705c0,0-6.394,16.343,15.988,11.861c22.385-4.47,5.757,61.392,5.757,61.392
				h-45.405c0,0-39.646,0.639-33.248-47.322c6.389-47.955,24.938-126.61,24.938-126.61l-1.92-14.708c0,0-7.671-51.796,14.069-53.076
				c8.221-0.048,14.707,5.757,14.707,5.757s3.197-21.74,17.265-5.757c1.278-19.822,15.347-7.257,16.624-5.865
				c1.279,1.393,1.919,23.772,1.919,23.772"/>
		</g>
		<g>
			<path fill="#3C2517" d="M104.089,328.482c-1.728,0-16.787-0.346-27.055-11.885c-7.852-8.822-10.708-21.683-8.504-38.233
				c6.092-45.674,23.375-119.986,24.879-126.41l-1.86-14.263c-0.218-1.451-5.285-36.69,5.795-50.323
				c2.785-3.425,6.343-5.289,10.575-5.538c0.044-0.001,0.087-0.001,0.135-0.001c5.508,0,10.214,2.225,13.153,4.049
				c1.069-3.528,3.281-8.347,7.562-9.615c2.928-0.861,6.117,0.098,9.515,2.864c1.007-4.252,2.973-6.915,5.869-7.935
				c6.658-2.349,14.256,5.486,14.33,5.565c0.667,0.725,1.904,2.071,2.571,25.374c0.011,0.28-0.03,0.552-0.11,0.806
				c2.463,0.534,4.905,1.433,7.261,2.695c8.453,4.52,15.075,13.286,17.713,23.447c4.562,17.614-38.722,50.253-47.062,56.346
				l-8.516,67.644c-0.024,0.203-0.077,0.402-0.15,0.592c-0.015,0.039-1.729,4.751,0.383,7.255c1.794,2.122,6.343,2.577,12.815,1.284
				c4.907-0.984,7.973,0.958,9.681,2.749c11.155,11.731,0.24,56.592-1.043,61.667c-0.275,1.098-1.262,1.869-2.393,1.869h-45.405
				C104.206,328.482,104.156,328.482,104.089,328.482z M108.17,86.765c-0.033,0-0.063,0-0.088,0c-2.7,0.163-5.001,1.379-6.901,3.718
				c-9.729,11.965-4.792,46.183-4.737,46.527l1.923,14.75c0.04,0.294,0.021,0.595-0.049,0.886
				c-0.18,0.786-18.586,79.087-24.893,126.37c-2.003,15.035,0.441,26.562,7.267,34.26c9.141,10.312,23.397,10.312,23.506,10.266
				h43.498c3.413-14.305,9.313-47.273,1.794-55.186c-0.8-0.842-2.203-1.899-5.128-1.313c-8.58,1.726-14.5,0.724-17.586-2.964
				c-3.59-4.283-1.812-10.413-1.304-11.896l8.615-68.436c0.084-0.68,0.453-1.295,1.005-1.694
				c19.365-13.962,48.991-40.351,46.04-51.731c-2.294-8.85-7.998-16.452-15.258-20.333c-5.506-2.945-11.284-3.505-16.709-1.616
				c-2.463,0.856-6.615,2.75-6.739,5.806c-0.145,3.367,4.515,8.898,15.242,13.668c1.245,0.552,1.809,2.013,1.252,3.259
				c-0.552,1.248-2.011,1.812-3.259,1.254c-11.642-5.175-18.44-12.05-18.174-18.386c0.131-3.134,1.979-7.46,10.054-10.267
				c2.773-0.964,5.667-1.404,8.577-1.343c0-0.03,0-0.06-0.004-0.089c-0.266-9.237-0.908-20.142-1.517-22.425
				c-1.447-1.394-6.115-4.954-8.803-3.999c-1.806,0.639-2.973,3.694-3.293,8.605c-0.062,0.996-0.722,1.856-1.668,2.179
				c-0.938,0.326-1.993,0.044-2.648-0.706c-3.283-3.734-6.138-5.491-8.014-4.926c-2.821,0.834-4.556,6.7-4.953,9.409
				c-0.133,0.9-0.749,1.653-1.603,1.964c-0.854,0.31-1.812,0.125-2.49-0.483C121.071,91.843,115.261,86.765,108.17,86.765z"/>
		</g>
	</g>
	<g>
		<g>
			<path fill="#F4BE78" d="M202.32,131.277c0,0-15.513,24.314-15.708,41.208c-0.202,16.888,19.505,15.014,19.505,15.014
				s-7.126,57.916,42.174,69.479c49.307,11.58,102.967,11.871,129.855-59.969c18.702-5.999,14.781-21.89,14.781-21.89
				s-3.353-9.927-10.308-6.862c-6.923,3.082-65.449-92.569-65.449-92.569l-55.535,5.292L202.32,131.277z"/>
		</g>
		<g>
			<path fill="#3C2517" d="M291.314,265.191c-12.69,0-26.948-1.9-43.591-5.81c-44.464-10.43-44.914-57.324-44.272-69.366
				c-4.025-0.122-10.514-1.079-14.92-5.534c-2.972-3.009-4.448-7.054-4.39-12.028c0.198-17.397,15.446-41.489,16.099-42.505
				c0.131-0.208,0.295-0.396,0.481-0.556l59.317-50.298c0.386-0.326,0.864-0.527,1.366-0.575l55.536-5.29
				c0.928-0.096,1.844,0.363,2.338,1.169c26.16,42.754,56.503,88.056,62.929,91.363c1.013-0.374,2.02-0.562,3.011-0.562
				c6.888,0,9.926,8.756,10.052,9.128c0.102,0.374,4.138,17.731-15.224,24.646C363.033,243.529,333.996,265.191,291.314,265.191z
				 M206.113,185.027c0.664,0,1.308,0.271,1.777,0.754c0.519,0.534,0.768,1.275,0.681,2.018c-0.02,0.142-1.673,14.306,2.566,29.589
				c5.575,20.113,18.268,32.624,37.716,37.185c16.269,3.819,30.157,5.679,42.461,5.679c40.726,0,68.375-20.971,84.52-64.107
				c0.265-0.708,0.841-1.256,1.559-1.486c16.194-5.194,13.27-18.398,13.139-18.958c-0.453-1.282-2.545-5.559-5.312-5.559
				c-0.494,0-1.031,0.126-1.599,0.377c-0.433,0.192-0.938,0.271-1.412,0.281c-2.312,0-6.754-0.328-37.709-47.43
				c-13.014-19.806-25.399-39.836-28.623-45.075l-53.229,5.071l-58.438,49.548c-1.762,2.839-14.953,24.608-15.125,39.599
				c-0.045,3.655,0.92,6.435,2.959,8.497c3.64,3.683,9.856,4.08,12.356,4.08c0.881,0,1.434-0.046,1.489-0.052
				C205.963,185.032,206.039,185.027,206.113,185.027z"/>
		</g>
	</g>
	<g>
		<path fill="#4C230D" d="M349.027,131.7c-6.138,11.431,25.77,42.736,35.148,40.035c9.373-2.705,9.185-11.116,2.246-65.897
			c-6.938-54.772-67.542-62.851-99.867-54.349c-53.283-15.402-91.277,28.585-92.271,62.42c-24.159,24.595,1.001,47.5,1.001,47.5
			s11.599,15.168,18.453,4.871c6.856-10.294,10.659-33.55,5.258-39.666c18.797,1.229,28.093-8.703,27.831-17.713
			c15.96,9.321,32.353,10.146,54.872-5.836C301.699,103.067,338.14,137.556,349.027,131.7z"/>
		<path fill="#3C2517" d="M382.913,174.371c-8.95,0-25.656-15.102-33.052-27.467c-2.799-4.677-4.164-8.715-4.096-12.067
			c-12.771-0.301-37.49-22.319-44.29-28.602c-11.632,7.939-22.229,11.804-32.34,11.804c-6.711,0-13.364-1.703-20.242-5.196
			c-0.715,3.063-2.335,5.972-4.746,8.456c-4.782,4.92-12.255,7.703-21.116,7.883c3.087,10.2-1.451,29.775-7.24,38.469
			c-2.575,3.874-5.728,4.685-7.914,4.685c-6.827,0-13.226-7.729-14.424-9.254c-1.499-1.422-11.722-11.607-12.112-25.669
			c-0.244-8.672,3.293-16.924,10.511-24.538c1.514-31.903,31.588-67.022,73.084-67.022c7.095,0,14.377,1.035,21.651,3.08
			c7.224-1.83,15.458-2.795,23.873-2.795c34.271,0,72.864,15.603,78.409,59.395c6.804,53.68,7.831,65.162-4.01,68.582
			C384.258,174.282,383.605,174.371,382.913,174.371z M349.027,129.229c0.637,0,1.27,0.248,1.744,0.724
			c0.771,0.77,0.942,1.954,0.428,2.915c-1.193,2.228-0.137,6.421,2.901,11.5c7.439,12.434,23.032,25.062,28.812,25.062
			c0.229,0,0.424-0.021,0.582-0.068c7.188-2.075,7.252-9.755,0.475-63.213c-5.142-40.606-41.344-55.073-73.508-55.073
			c-8.253,0-16.304,0.969-23.274,2.802c-0.428,0.115-0.89,0.109-1.315-0.016c-7.049-2.036-14.097-3.069-20.935-3.069
			c-27.698,0-67.032,24.041-68.183,63.19c-0.017,0.622-0.269,1.216-0.709,1.659c-6.688,6.811-9.979,14.091-9.768,21.632
			c0.356,12.78,10.566,22.217,10.668,22.311c0.107,0.098,0.211,0.208,0.303,0.324c1.492,1.943,6.64,7.486,10.629,7.486
			c0.925,0,2.323-0.256,3.804-2.48c6.535-9.817,9.806-31.744,5.463-36.66c-0.658-0.752-0.808-1.827-0.365-2.726
			c0.442-0.897,1.402-1.436,2.376-1.376c9.403,0.614,16.956-1.675,21.449-6.297c2.512-2.585,3.85-5.738,3.756-8.881
			c-0.024-0.895,0.438-1.736,1.212-2.195c0.774-0.455,1.73-0.458,2.506-0.007c7.289,4.257,14.175,6.327,21.06,6.327
			c9.526,0,19.713-3.941,31.134-12.044c0.962-0.681,2.271-0.597,3.131,0.219c8.413,7.962,32.469,28.624,42.63,28.628l0,0
			c0.748,0,1.359-0.127,1.824-0.376C348.224,129.327,348.625,129.229,349.027,129.229z"/>
	</g>
	<g>
		<g>
			<path fill="#D8E028" d="M109.345,102.201c0,0-3.196,16.626,7.033,24.94c-22.686,14.981-58.188,28.774-60.107,15.347
				C54.355,129.058,65.86,120.746,109.345,102.201z"/>
		</g>
		<g>
			<path fill="#3C2517" d="M65.055,150.408c-8.828,0-10.829-4.743-11.23-7.57c-2.247-15.718,12.341-24.907,54.554-42.91
				c0.833-0.355,1.806-0.224,2.514,0.35c0.711,0.573,1.05,1.49,0.881,2.387c-0.029,0.153-2.777,15.293,6.165,22.56
				c0.61,0.495,0.95,1.252,0.909,2.039c-0.04,0.784-0.448,1.506-1.104,1.938C102.174,139.482,78.42,150.408,65.055,150.408z
				 M106.443,106.133c-39.441,17.019-49.35,24.641-47.728,36.004c0.128,0.909,0.476,3.33,6.339,3.33
				c10.351,0,30.298-7.934,47.364-18.713C106.748,120.32,106.177,111.41,106.443,106.133z"/>
		</g>
	</g>
	<g>
		<g>
			<path fill="#F2F2F2" d="M189.915,93.89c0,0-8.396,7.859-13.789-2.783C170.73,80.46,166.897,77.9,166.897,77.9l29.415-24.3
				l47.42-15.345l14.604,17.907c0,0-5.75,4.475-7.67,3.836c0,2.984-6.934,4.688-6.934,4.688s-4.155,5.756-8.411,4.691
				c-4.907,6.606-11.516,6.182-11.516,6.182s-4.9,6.607-9.162,4.901c-2.773,5.754-11.086,6.182-11.086,6.182
				s-5.542,5.541-7.674,4.05C195.033,93.247,189.915,93.89,189.915,93.89z"/>
		</g>
		<g>
			<path fill="#3C2517" d="M183.375,99.154c-2.71,0-6.548-1.202-9.45-6.931c-4.909-9.686-8.397-12.268-8.433-12.292
				c-0.624-0.448-1.022-1.169-1.047-1.935c-0.026-0.766,0.287-1.512,0.876-2l29.419-24.3c0.239-0.199,0.516-0.35,0.815-0.446
				l47.412-15.345c0.97-0.318,2.033-0.003,2.675,0.788L260.249,54.6c0.424,0.516,0.614,1.176,0.54,1.838
				c-0.071,0.66-0.411,1.264-0.938,1.672c-1.443,1.122-4.711,3.5-7.367,4.214c-1.498,2.545-5.243,3.935-7.316,4.533
				c-1.33,1.605-4.695,5.122-8.77,5.122c-4.146,4.816-9.142,5.813-11.38,6.008c-1.559,1.806-5.167,5.379-9.149,5.219
				c-3.172,4.368-8.919,5.519-11.213,5.808c-1.6,1.498-4.866,4.222-7.617,4.394c-1.731,1.815-4.581,2.547-6.054,2.816
				C189.742,97.21,186.86,99.154,183.375,99.154z M170.614,78.033c1.808,2.011,4.522,5.652,7.716,11.958
				c2.14,4.223,4.327,4.223,5.045,4.223c2.078,0,4.215-1.542,4.862-2.136c0.374-0.347,0.861-0.576,1.37-0.639
				c1.842-0.24,3.704-1.044,3.937-1.536c0.242-0.74,0.825-1.315,1.565-1.562c0.6-0.197,1.252-0.154,1.811,0.109
				c0.931-0.23,3.208-1.873,4.893-3.554c0.427-0.435,1.01-0.689,1.616-0.721c0.062-0.003,6.897-0.443,8.986-4.787
				c0.562-1.17,1.938-1.709,3.146-1.223c1.879,0.75,5.188-2.634,6.264-4.079c0.498-0.674,1.315-1.05,2.14-0.995c0,0,0.005,0,0.009,0
				c0.993,0,5.697-0.254,9.362-5.189c0.596-0.803,1.615-1.167,2.589-0.924c1.96,0.5,4.832-2.395,5.801-3.738
				c0.342-0.476,0.847-0.815,1.414-0.955c2.234-0.554,4.754-1.773,5.086-2.462c0-0.794,0.367-1.453,1.009-1.918
				c0.575-0.405,1.279-0.487,1.947-0.328c0.612-0.112,2.053-0.888,3.577-1.895l-11.873-14.557l-45.363,14.678L170.614,78.033z"/>
		</g>
	</g>
	<g>
		<g>
			<path fill="#D8E028" d="M156.662,77.9c0,0,7.039-8.953,7.039-13.428c0-4.474,50.516-42.844,72.896-44.761
				c12.791-1.921,4.47,9.59,4.47,9.59l2.665,8.953l-69.8,39.646c0,0-1.921,10.87,1.92,12.15c0.479,0.16,0.542,0.529,0.274,1.056
				c-1.837,3.669-19.464,13.734-19.464,13.734V77.9z"/>
		</g>
		<g>
			<path fill="#3C2517" d="M156.662,107.312c-0.426,0-0.854-0.113-1.241-0.335c-0.758-0.44-1.229-1.256-1.229-2.136V77.9
				c0-0.552,0.186-1.09,0.529-1.525c2.704-3.443,6.508-9.411,6.508-11.903c0-7.463,54.157-45.423,75.154-47.223
				c0.925-0.141,1.917-0.225,2.803-0.225c3.986,0,5.688,1.691,6.411,3.111c1.646,3.224-0.532,7.506-1.829,9.575l2.326,7.842
				c0.328,1.101-0.146,2.283-1.145,2.85L176.194,79.46c-0.502,3.723-0.292,7.624,0.501,8.277c0.823,0.267,1.494,0.877,1.83,1.688
				c0.25,0.6,0.42,1.572-0.188,2.786c-2.017,4.027-16.161,12.329-20.448,14.776C157.51,107.204,157.087,107.312,156.662,107.312z
				 M159.135,78.742v21.788c5.866-3.529,11.638-7.395,13.884-9.495c-3.002-3.372-1.974-10.988-1.521-13.566
				c0.132-0.724,0.574-1.354,1.215-1.717l68.09-38.676l-2.098-7.072c-0.22-0.731-0.085-1.525,0.364-2.147
				c1.451-2.025,2.508-4.738,2.131-5.475c-0.044-0.084-0.538-0.417-2.014-0.417c-0.641,0-1.394,0.065-2.225,0.188
				c-21.666,1.861-67.861,37.661-70.805,42.708C165.889,69.426,161.031,76.246,159.135,78.742z"/>
		</g>
	</g>
	<g>
		<g>
			<path fill="#F4BE78" d="M122.773,90.051c0,0,18.439,28.666,7.639,36.478c-8.733,6.315-12.928,2.772-14.727,0.613"/>
		</g>
		<g>
			<path fill="#3C2517" d="M121.628,132.562c-3.843,0.001-6.38-2.086-7.842-3.845c-0.87-1.047-0.726-2.605,0.324-3.479
				c1.053-0.869,2.607-0.726,3.479,0.325c1.02,1.228,3.732,4.489,11.375-1.038c7.258-5.25-3.815-26.211-8.27-33.139
				c-0.736-1.149-0.403-2.677,0.745-3.414c1.142-0.74,2.675-0.405,3.41,0.74c2.019,3.137,19.351,30.891,7.01,39.816
				C127.742,131.507,124.355,132.562,121.628,132.562z"/>
		</g>
	</g>
	<g>
		<path fill="#D8E028" d="M140.038,84.294c0,0,8.732,15.941,7.005,21.744"/>
		<path fill="#3C2517" d="M147.043,108.509c-0.232,0-0.468-0.033-0.702-0.104c-1.309-0.39-2.056-1.766-1.666-3.074
			c0.988-3.32-3.385-13.606-6.802-19.851c-0.66-1.197-0.218-2.697,0.979-3.353c1.195-0.653,2.699-0.218,3.352,0.98
			c1.542,2.812,9.129,17.171,7.206,23.635C149.091,107.814,148.108,108.509,147.043,108.509z"/>
	</g>
</g>
</svg>
