<?xml version="1.0" encoding="utf-8"?>
<!-- Generator: Adobe Illustrator 16.0.0, SVG Export Plug-In . SVG Version: 6.00 Build 0)  -->
<!DOCTYPE svg PUBLIC "-//W3C//DTD SVG 1.1//EN" "http://www.w3.org/Graphics/SVG/1.1/DTD/svg11.dtd">
<svg version="1.1" id="Layer_1" xmlns="http://www.w3.org/2000/svg" xmlns:xlink="http://www.w3.org/1999/xlink" x="0px" y="0px"
	 width="500px" height="500px" viewBox="0 0 500 500" enable-background="new 0 0 500 500" xml:space="preserve">
<g id="Layer_1_copy_88">
	<g>
		<polygon fill="#F1EDD0" points="335.674,438.264 345.792,479.515 346.444,439.795 343.065,421.45 		"/>
		<path fill="#3C2517" d="M345.792,481.358c-0.845,0-1.589-0.571-1.791-1.407l-10.121-41.247c-0.1-0.395-0.063-0.812,0.104-1.18
			l7.391-16.818c0.327-0.741,1.074-1.177,1.903-1.093c0.806,0.097,1.453,0.701,1.599,1.504l3.382,18.346
			c0.025,0.121,0.033,0.245,0.033,0.368l-0.656,39.712c-0.011,0.93-0.712,1.699-1.638,1.801
			C345.93,481.351,345.858,481.358,345.792,481.358z M337.612,438.431l6.568,26.77l0.415-25.251l-2.262-12.26L337.612,438.431z"/>
	</g>
	<g>
		<path fill="#D0E8CD" d="M225.574,155.29l-57.628,223.162c0,0,12.347,6.409,19.268,0c4.059-3.759,9.546-18.214,9.546-18.214
			l46.767-158.161v-39.428L225.574,155.29z"/>
		<path fill="#3C2517" d="M179.145,383.762h-0.003c-6.236,0-12.081-2.998-12.327-3.127c-1.017-0.527-1.534-1.688-1.251-2.797
			l57.629-223.162c0.178-0.691,0.645-1.266,1.279-1.585c0.639-0.319,1.379-0.348,2.039-0.078l17.945,7.36
			c0.924,0.376,1.527,1.276,1.527,2.276v39.428c0,0.234-0.032,0.472-0.1,0.695l-46.763,158.16
			c-0.642,1.713-5.882,15.289-10.234,19.323C186.373,382.582,183.098,383.762,179.145,383.762z M170.853,377.047
			c1.908,0.76,5.099,1.79,8.292,1.79l0,0c2.673,0,4.824-0.737,6.399-2.19c2.645-2.453,6.874-11.903,8.916-17.285l46.604-157.638
			v-37.422l-13.812-5.665L170.853,377.047z"/>
	</g>
	<g>
		<path fill="#A1CBB6" d="M264.988,202.588l68.839,235.946h13.662c0,0,10.912-41.517,6.243-71.468l-15.702,2.629
			c0,0-48.872-215.979-55.703-217.032c-6.828-1.053-24.698,13.141-24.698,13.141L264.988,202.588z"/>
		<path fill="#3C2517" d="M347.489,440.994h-13.662c-1.093,0-2.058-0.72-2.361-1.772l-68.842-235.945l-7.405-36.989
			c-0.181-0.908,0.156-1.836,0.879-2.411c1.77-1.404,17.518-13.727,25.457-13.727c0.4,0,0.784,0.029,1.146,0.082
			c2.631,0.408,5.907,0.911,32.438,110.766c11.422,47.311,22.318,95.064,24.783,105.888l13.407-2.247
			c0.646-0.1,1.314,0.045,1.844,0.432c0.534,0.388,0.895,0.969,0.992,1.617c4.689,30.115-5.842,70.757-6.292,72.473
			C349.585,440.239,348.605,440.994,347.489,440.994z M335.674,436.074h9.892c1.936-8.044,9.234-40.872,6.083-66.162l-13.209,2.213
			c-1.287,0.193-2.523-0.614-2.809-1.887c-18.448-81.533-47.794-204.518-54.355-215.161c-4.555,0.27-14.705,6.941-20.935,11.734
			l7.062,35.294L335.674,436.074z"/>
	</g>
	<g>
		<rect x="246.767" y="82.411" fill="#F1EFA6" width="12.614" height="22.071"/>
		<path fill="#3C2517" d="M259.381,106.942h-12.614c-1.354,0-2.457-1.103-2.457-2.461v-22.07c0-1.358,1.104-2.461,2.457-2.461
			h12.614c1.36,0,2.463,1.103,2.463,2.461v22.071C261.844,105.84,260.741,106.942,259.381,106.942z M249.231,102.021h7.688v-17.15
			h-7.688V102.021z"/>
	</g>
	<g>
		<rect x="238.188" y="21.098" fill="#D0E8CD" width="29.686" height="68.58"/>
		<path fill="#3C2517" d="M267.874,92.138h-29.686c-1.362,0-2.461-1.102-2.461-2.46v-68.58c0-1.357,1.099-2.457,2.461-2.457h29.686
			c1.362,0,2.465,1.099,2.465,2.457v68.58C270.339,91.036,269.236,92.138,267.874,92.138z M240.648,87.214h24.769V23.562h-24.769
			V87.214z"/>
	</g>
	<g>
		<line fill="none" x1="246.767" y1="21.098" x2="246.767" y2="88.625"/>
		<path fill="#3C2517" d="M246.767,91.085c-1.354,0-2.457-1.103-2.457-2.46V21.098c0-1.357,1.104-2.457,2.457-2.457
			c1.362,0,2.465,1.099,2.465,2.457v67.527C249.231,89.982,248.129,91.085,246.767,91.085z"/>
	</g>
	<g>
		<line fill="none" x1="259.381" y1="21.098" x2="259.381" y2="88.625"/>
		<path fill="#3C2517" d="M259.381,91.085c-1.357,0-2.461-1.103-2.461-2.46V21.098c0-1.357,1.104-2.457,2.461-2.457
			c1.36,0,2.463,1.099,2.463,2.457v67.527C261.844,89.982,260.741,91.085,259.381,91.085z"/>
	</g>
	<g>
		<rect x="123.456" y="359.536" fill="#F1EFA6" width="14.36" height="11.209"/>
		<path fill="#3C2517" d="M137.816,373.205h-14.36c-1.362,0-2.461-1.104-2.461-2.46v-11.209c0-1.362,1.099-2.457,2.461-2.457h14.36
			c1.358,0,2.464,1.095,2.464,2.457v11.209C140.28,372.102,139.175,373.205,137.816,373.205z M125.916,368.285h9.439v-6.289h-9.439
			V368.285z"/>
	</g>
	<g>
		<rect x="112.594" y="349.027" fill="#F58B8B" width="12.612" height="34.683"/>
		<path fill="#3C2517" d="M125.206,386.172h-12.612c-1.357,0-2.46-1.102-2.46-2.463v-34.682c0-1.357,1.103-2.461,2.46-2.461h12.612
			c1.359,0,2.461,1.104,2.461,2.461v34.682C127.667,385.07,126.565,386.172,125.206,386.172z M115.054,381.25h7.692v-29.762h-7.692
			V381.25z"/>
	</g>
	<g>
		<path fill="#594841" d="M282.327,119.559c0,0,3.677-17.339-28.374-18.92c-32.058-1.574-28.379,18.92-28.379,18.92v41.513
			c0,0,0,4.407,0,6.569c0,20.462,12.705,37.045,28.379,37.045c15.673,0,28.374-16.583,28.374-37.045
			c0-2.808,0.131-8.671,0.131-8.671L282.327,119.559z"/>
		<path fill="#3C2517" d="M253.953,207.147c-17.006,0-30.839-17.722-30.839-39.506V119.74c-0.188-1.368-0.766-7.827,3.91-13.421
			c4.562-5.459,12.476-8.225,23.512-8.225c1.126,0,2.312,0.028,3.537,0.089c13.511,0.666,22.78,4.141,27.546,10.33
			c3.8,4.931,3.363,9.951,3.168,11.245l0.128,39.205c0,0.067-0.128,5.892-0.128,8.679
			C284.787,189.425,270.954,207.147,253.953,207.147z M250.536,103.014c-9.47,0-16.092,2.156-19.687,6.402
			c-3.694,4.368-2.886,9.504-2.851,9.721c0.021,0.134,0.035,0.283,0.035,0.421v48.082c0,19.072,11.629,34.585,25.919,34.585
			c14.289,0,25.911-15.514,25.911-34.585c0-2.822,0.131-8.725,0.131-8.725l-0.131-39.347c0-0.177,0.018-0.351,0.056-0.521
			c0.024-0.134,0.692-3.854-2.278-7.632c-3.822-4.864-12.062-7.739-23.81-8.317C252.691,103.042,251.588,103.014,250.536,103.014z"
			/>
	</g>
	<g>
		<path fill="#F1EFA6" d="M266.917,130.765c0,7.161-5.808,12.968-12.964,12.968c-7.161,0-12.968-5.807-12.968-12.968
			c0-7.162,5.807-12.961,12.968-12.961C261.109,117.804,266.917,123.604,266.917,130.765z"/>
		<path fill="#3C2517" d="M253.953,146.193c-8.505,0-15.425-6.919-15.425-15.428c0-8.501,6.92-15.421,15.425-15.421
			s15.425,6.92,15.425,15.421C269.378,139.273,262.458,146.193,253.953,146.193z M253.953,120.268
			c-5.793,0-10.505,4.711-10.505,10.497c0,5.792,4.712,10.507,10.505,10.507c5.789,0,10.504-4.715,10.504-10.507
			C264.457,124.979,259.742,120.268,253.953,120.268z"/>
	</g>
	<g>
		<g>
			<line fill="none" x1="248.521" y1="127.613" x2="259.381" y2="135.324"/>
			<path fill="#3C2517" d="M259.381,137.784c-0.492,0-0.992-0.149-1.425-0.454l-10.859-7.71c-1.109-0.787-1.369-2.322-0.581-3.432
				c0.783-1.105,2.321-1.365,3.432-0.581l10.858,7.71c1.108,0.787,1.367,2.322,0.582,3.432
				C260.908,137.423,260.148,137.784,259.381,137.784z"/>
		</g>
		<g>
			<line fill="none" x1="258.23" y1="126.369" x2="249.67" y2="136.572"/>
			<path fill="#3C2517" d="M249.667,139.032c-0.557,0-1.117-0.188-1.578-0.574c-1.038-0.872-1.177-2.425-0.301-3.467l8.562-10.203
				c0.868-1.035,2.422-1.177,3.467-0.305c1.039,0.872,1.175,2.425,0.302,3.467l-8.563,10.203
				C251.07,138.734,250.372,139.032,249.667,139.032z"/>
		</g>
	</g>
	<g>
		<rect x="137.133" y="346.925" fill="#594841" width="35.733" height="36.784"/>
		<path fill="#3C2517" d="M172.866,386.172h-35.733c-1.358,0-2.46-1.102-2.46-2.463v-36.784c0-1.36,1.102-2.464,2.46-2.464h35.733
			c1.361,0,2.464,1.104,2.464,2.464v36.784C175.33,385.07,174.228,386.172,172.866,386.172z M139.593,381.25h30.813v-31.867h-30.813
			V381.25z"/>
	</g>
</g>
</svg>
