<?xml version="1.0" encoding="utf-8"?>
<!-- Generator: Adobe Illustrator 16.0.0, SVG Export Plug-In . SVG Version: 6.00 Build 0)  -->
<!DOCTYPE svg PUBLIC "-//W3C//DTD SVG 1.1//EN" "http://www.w3.org/Graphics/SVG/1.1/DTD/svg11.dtd">
<svg version="1.1" id="Layer_1" xmlns="http://www.w3.org/2000/svg" xmlns:xlink="http://www.w3.org/1999/xlink" x="0px" y="0px"
	 width="500px" height="500px" viewBox="0 0 500 500" enable-background="new 0 0 500 500" xml:space="preserve">
<g id="Layer_1_copy_55">
	<g>
		<path fill="#F3F3F3" d="M72.71,147.979c0,0-58.673,19.775-44.81,87.162c-20.782,17.9,17.458,41.46,17.458,41.46
			s-2.459-13.203,2.776-21.109c5.23-7.939,2.752-23.982-10.356-25.743c-3.732-8.102,2.534-51.591,25.676-55.025"/>
		<path fill="#27140E" d="M45.358,279.823c-0.588,0-1.174-0.159-1.692-0.479c-0.972-0.6-23.849-14.869-25.116-30.833
			c-0.429-5.388,1.536-10.261,5.84-14.513c-12.872-67.952,46.684-88.869,47.294-89.074c1.681-0.565,3.507,0.338,4.076,2.022
			c0.569,1.683-0.335,3.512-2.016,4.083c-2.286,0.777-55.793,19.757-42.688,83.461c0.238,1.146-0.167,2.329-1.054,3.091
			c-3.688,3.178-5.336,6.587-5.031,10.421c0.644,8.051,9.715,16.744,16.594,22.025c-0.059-4.909,0.628-11.397,3.884-16.315
			c2.436-3.699,2.708-9.682,0.643-14.218c-1.19-2.614-3.675-5.873-8.741-6.554c-1.096-0.146-2.04-0.844-2.497-1.844
			c-3.202-6.948-0.429-28.395,7.252-42.593c5.34-9.865,12.561-15.733,20.874-16.968c1.771-0.263,3.401,0.955,3.659,2.714
			c0.265,1.76-0.952,3.399-2.712,3.66c-6.319,0.937-11.754,5.534-16.149,13.659c-7.065,13.059-8.531,29.608-7.487,35.382
			c5.236,1.303,9.333,4.75,11.668,9.874c2.97,6.519,2.502,14.923-1.134,20.441c-3.705,5.598-2.918,15.428-2.301,18.745
			c0.233,1.257-0.29,2.525-1.342,3.248C46.632,279.634,45.996,279.823,45.358,279.823z"/>
	</g>
	<g>
		<path fill="#D7D6D4" d="M134.534,278.201c-2.963,17.892-3.1,39.88,7.158,58.72c6.285,11.536,12.764,23.335,12.764,23.335h-39.618
			c0,0-7.181-56.609-20.214-82.306c-2.532-4.987-9.448-54.328-12.406-56.345"/>
		<path fill="#27140E" d="M154.456,364.121h-39.618c-1.949,0-3.594-1.444-3.841-3.379c-0.068-0.561-7.243-56.245-19.82-81.041
			c-1.242-2.451-2.651-9.719-5.558-25.725c-1.945-10.702-4.864-26.757-6.287-29.795c-1.158-1.294-1.332-3.256-0.309-4.755
			c1.198-1.766,3.607-2.218,5.368-1.017c2.426,1.652,3.533,5.002,8.833,34.188c1.756,9.646,3.937,21.656,4.856,23.617
			c11.471,22.622,18.354,67.424,20.132,80.174h29.714c-2.473-4.512-6.082-11.107-9.628-17.617
			c-9.014-16.554-11.562-37.143-7.579-61.203c0.348-2.107,2.334-3.534,4.445-3.183c2.106,0.347,3.529,2.337,3.181,4.445
			c-3.691,22.317-1.423,41.241,6.744,56.237c6.279,11.533,12.758,23.326,12.758,23.326c0.656,1.195,0.631,2.654-0.063,3.826
			C157.092,363.398,155.825,364.121,154.456,364.121z"/>
	</g>
	<g>
		<path fill="#F9C7D3" d="M100.72,280.645c6.825,7.463,18.401,12.375,31.536,12.375c20.988,0,37.991-12.539,37.991-28.008
			l-19.421-42.768l-47.191,28.346l-10.004,24.176L100.72,280.645"/>
		<path fill="#27140E" d="M132.256,296.885c-13.621,0-26.378-5.018-34.204-13.428l-6.886-5.715
			c-1.307-1.084-1.754-2.889-1.107-4.454l10.005-24.176c0.318-0.766,0.871-1.409,1.582-1.836l47.188-28.346
			c0.947-0.567,2.086-0.708,3.139-0.378c1.054,0.327,1.916,1.089,2.375,2.092l19.417,42.771c0.229,0.5,0.345,1.045,0.345,1.597
			C174.109,282.585,155.335,296.885,132.256,296.885z M98.295,273.611l4.894,4.06c0.135,0.113,0.266,0.231,0.385,0.363
			c6.363,6.962,17.086,11.118,28.683,11.118c18.439,0,33.508-10.399,34.104-23.344l-17.262-38.018l-42.378,25.456L98.295,273.611z"
			/>
	</g>
	<g>
		<path fill="#D7D6D4" d="M310.562,254.346c0,0-6.681,43.076-7.867,45.596c-3.938,8.371-11.198,29.338-0.374,54.375h-33.456
			l8.361-51.063l-4.561-5.747c0,0-0.85-2.736-0.497-4.828c1.274-7.488,3.228-25.41-5.627-32.225"/>
		<path fill="#27140E" d="M302.32,358.182h-33.456c-1.136,0-2.214-0.496-2.946-1.361c-0.734-0.862-1.053-2.006-0.868-3.129
			l8.085-49.377l-3.494-4.405c-0.3-0.374-0.524-0.804-0.666-1.257c-0.188-0.605-1.1-3.764-0.617-6.621
			c0.894-5.248,3.228-22.818-4.174-28.514c-1.691-1.302-2.009-3.729-0.705-5.42c1.301-1.695,3.732-2.008,5.424-0.709
			c10.146,7.812,8.793,25.868,7.078,35.938c-0.102,0.616,0.052,1.659,0.219,2.405l4.059,5.115c0.676,0.854,0.963,1.953,0.788,3.027
			l-7.627,46.572h23.258c-8.356-24.256-1.176-44.305,2.521-52.156c0.744-2.239,4.465-24.673,7.543-44.533
			c0.33-2.113,2.319-3.543,4.414-3.23c2.108,0.326,3.558,2.302,3.228,4.414c-3.086,19.899-7.011,44.149-8.189,46.646
			c-3.518,7.479-10.597,27.434-0.319,51.191c0.516,1.197,0.396,2.57-0.315,3.658C304.84,357.529,303.624,358.182,302.32,358.182z"/>
	</g>
	<g>
		<path fill="#EED2E5" d="M163.186,293.007c0.963,1.468,3.221,1.681,5.058,0.486l0,0c1.829-1.198,2.541-3.353,1.578-4.812
			l-3.074-4.718c-0.954-1.466-3.22-1.685-5.045-0.489l0,0c-1.838,1.198-2.542,3.354-1.591,4.817L163.186,293.007z"/>
		<path fill="#27140E" d="M165.753,296.844L165.753,296.844c-1.99,0-3.71-0.882-4.719-2.421l-3.078-4.723
			c-1.729-2.661-0.676-6.423,2.337-8.386c2.908-1.898,6.934-1.332,8.615,1.236l3.074,4.725c0.762,1.158,1.022,2.596,0.727,4.039
			c-0.355,1.718-1.468,3.297-3.053,4.336C168.454,296.432,167.106,296.844,165.753,296.844z M164.185,285.283
			c-0.349,0-0.726,0.124-1.07,0.353c-0.752,0.483-0.896,1.13-0.839,1.257l3.071,4.711c0.006,0.008,0.133,0.088,0.406,0.088l0,0
			c0.348,0,0.733-0.127,1.082-0.356c0.718-0.471,0.878-1.103,0.835-1.235l-3.078-4.728
			C164.574,285.355,164.446,285.283,164.185,285.283z"/>
	</g>
	<g>
		<path fill="#EED2E5" d="M145.403,300.461c0.624,1.625,2.788,2.325,4.838,1.546l0,0c2.045-0.784,3.191-2.737,2.567-4.374l-2-5.265
			c-0.621-1.63-2.785-2.32-4.832-1.546l0,0c-2.048,0.775-3.195,2.734-2.578,4.367L145.403,300.461z"/>
		<path fill="#27140E" d="M148.538,304.902L148.538,304.902c-2.54,0-4.718-1.379-5.543-3.516l-2.006-5.279
			c-1.123-2.967,0.703-6.418,4.072-7.695c3.312-1.252,7.057,0.156,8.157,3.039l2,5.267c1.139,3.007-0.639,6.386-4.052,7.696
			C150.304,304.74,149.425,304.902,148.538,304.902z M147.676,293.081c-0.255,0-0.527,0.054-0.788,0.151
			c-0.828,0.316-1.107,0.908-1.077,1.045l2.003,5.265c0.022,0.044,0.269,0.208,0.725,0.208l0,0c0.255,0,0.531-0.052,0.788-0.152
			c0.854-0.326,1.115-0.943,1.071-1.049l-1.997-5.26C148.365,293.236,148.118,293.081,147.676,293.081z"/>
	</g>
	<g>
		<path fill="#EED2E5" d="M115.831,298.895c-0.413,1.699,0.978,3.5,3.115,4.013l0,0c2.127,0.513,4.179-0.45,4.588-2.149l1.322-5.474
			c0.414-1.696-0.98-3.492-3.1-4.011l0,0c-2.132-0.518-4.189,0.453-4.596,2.147L115.831,298.895z"/>
		<path fill="#27140E" d="M120.087,305.619L120.087,305.619c-0.581,0-1.169-0.064-1.743-0.206c-1.836-0.438-3.415-1.547-4.33-3.039
			c-0.773-1.265-1.021-2.712-0.689-4.081l1.332-5.48c0.722-3.006,4.254-4.879,7.706-4.039c1.595,0.388,2.988,1.27,3.932,2.485
			c1.064,1.372,1.452,3.063,1.067,4.64l-1.321,5.467C125.437,303.869,122.986,305.619,120.087,305.619z M120.605,293.711
			c-0.602,0-0.911,0.247-0.939,0.316l-1.329,5.478c-0.007,0.136,0.355,0.69,1.208,0.894c0.813,0.203,1.442-0.159,1.485-0.246
			l1.322-5.473c0-0.146-0.363-0.697-1.21-0.902C120.964,293.738,120.783,293.711,120.605,293.711z"/>
	</g>
	<g>
		<path fill="#F3F3F3" d="M54.022,372.602c0,0,0.029-0.617,0.075-1.762c0.437-9.412,2.528-54.332,4.524-82.354
			c0.126-1.828,2.386-8.068,3.237-9.438c12.895-20.613,4.494-36.162-2.112-86.947c-7.046-54.148,38.305-52.703,38.305-52.703
			s126.799,3.581,144.833,4.089c18.054,0.512,54.154-13.902,82.777-3.777c39.179,10.567,84.084-4.399,84.084-4.399h21.576
			c11.438-5.282,14.96,13.208,14.96,13.208l25.095,40.501c0,0,18.935,14.531-2.643,24.655c-21.574,10.125-22.452-4.401-22.452-4.401
			s-26.853,3.52-42.697-7.924c-12.331,4.844-22.898,22.452-22.898,22.452c-33.354,79.916-156.289,59.873-174.337,52.388
			c-18.045-7.485-43.137-16.289-90.252-19.37c-35.218,47.989-40.055,92.012-37.858,92.89c2.197,0.883,9.246,22.893,9.246,22.893
			H54.022V372.602z"/>
		<path fill="#27140E" d="M87.535,376.467c-0.018,0-0.033,0-0.051,0H54.022c-1.056,0-2.065-0.434-2.798-1.197
			c-0.727-0.763-1.111-1.797-1.065-2.851l0.076-1.746c0.748-16.136,2.677-56.44,4.527-82.461c0.187-2.592,2.693-9.409,3.823-11.213
			c8.759-14.011,6.784-25.629,2.461-51.085c-1.598-9.393-3.404-20.038-5.134-33.313c-2.424-18.607,0.821-33.131,9.642-43.172
			C77.172,136.2,94.378,135.53,97.71,135.53l0.464,0.005l145.676,4.102c5.543,0,12.916-1.368,21.455-2.951
			c11.256-2.089,24.016-4.454,36.855-4.454c9.32,0,17.385,1.238,24.645,3.784c8.926,2.393,18.949,3.605,29.792,3.605
			c27.61,0,51.688-7.897,51.93-7.978c0.391-0.13,0.801-0.198,1.22-0.198h20.784c1.598-0.631,3.181-0.949,4.72-0.949
			c10.255,0,13.875,12.992,14.677,16.564l24.392,39.365c2.275,1.897,9.424,8.563,8.534,16.786
			c-0.613,5.672-4.813,10.369-12.478,13.965c-5.591,2.623-10.487,3.953-14.563,3.953c-6.904,0-10.773-3.822-12.434-7.704
			c-1.724,0.119-4.015,0.228-6.688,0.228c-9.736,0-23.183-1.41-33.479-7.893c-9.532,4.884-17.914,17.956-19.075,19.814
			c-9.867,23.401-38.513,62.294-119.794,62.298c-27.533,0-51.354-4.741-59.475-8.11c-19.402-8.045-43.365-15.896-86.899-18.938
			c-29.812,41.394-36.781,79.439-36.338,86.791c1.691,2.135,4.338,7.643,9.352,23.229c0.269,0.527,0.42,1.127,0.42,1.758
			C91.401,374.736,89.674,376.467,87.535,376.467z M58.069,368.734h24.068c-2.433-7.15-5.097-14.168-6.28-15.971
			c-0.61-0.459-1.255-1.215-1.604-2.434c-2.065-7.213,5.975-51.17,38.727-95.799c0.78-1.062,2.046-1.662,3.368-1.571
			c46.004,3.011,71.157,11.229,91.485,19.661c5.678,2.355,27.792,7.518,56.509,7.518c33.107,0,91.779-7.515,112.776-57.825
			c0.072-0.172,0.156-0.34,0.254-0.501c0.458-0.766,11.396-18.796,24.798-24.06c1.222-0.483,2.613-0.308,3.678,0.463
			c8.817,6.367,21.64,7.703,30.842,7.703c5.343,0,9.057-0.474,9.097-0.478c1.042-0.14,2.13,0.169,2.958,0.854
			c0.824,0.683,1.336,1.677,1.396,2.748c0.116,1.269,0.915,4.354,5.672,4.354c2.929,0,6.727-1.083,11.276-3.222
			c3.468-1.625,7.687-4.297,8.074-7.783c0.46-4.16-4.407-8.957-6.149-10.309c-0.362-0.284-0.682-0.634-0.926-1.026l-25.095-40.5
			c-0.247-0.403-0.421-0.85-0.512-1.314c-0.697-3.588-3.381-11.013-7.231-11.013c-0.678,0-1.456,0.2-2.308,0.593
			c-0.511,0.236-1.062,0.355-1.62,0.355h-20.966c-4.086,1.297-27.002,8.176-53.76,8.176c-11.581,0-22.324-1.315-31.943-3.91
			c-0.097-0.025-0.189-0.056-0.28-0.089c-6.454-2.281-13.721-3.392-22.212-3.392c-12.128,0-24.515,2.298-35.448,4.325
			c-9.43,1.749-17.512,3.254-23.938,3.065l-144.836-4.089c0,0-0.011,0-0.018,0c-1.989,0-16.968,0.349-26.558,11.269
			c-7.287,8.294-9.903,20.767-7.783,37.072c1.705,13.123,3.502,23.692,5.089,33.014c4.523,26.616,6.792,39.979-3.528,56.481
			c-0.631,1.07-2.526,6.396-2.664,7.683C60.713,313.542,58.876,351.376,58.069,368.734z"/>
	</g>
	<g>
		<path fill="#F3F3F3" d="M428.229,144.994c0,0,0.818-23.647-16.382-27.781c-0.671-0.161-2.788,0.104-3.109,0.36
			c-14.598,11.614,1.01,32.266,1.01,32.266"/>
		<path fill="#27140E" d="M409.746,153.705c-1.17,0-2.327-0.528-3.087-1.535c-6.183-8.182-14.211-26.578-0.325-37.623
			c1.681-1.334,5.26-1.374,6.414-1.094c20.04,4.815,19.384,30.58,19.348,31.676c-0.076,2.135-1.856,3.824-3.997,3.729
			c-2.134-0.072-3.804-1.86-3.73-3.991c0.008-0.323,0.422-20.337-13.191-23.837c-0.159,0.004-0.393,0.026-0.605,0.051
			c-10.491,9.276,2.127,26.252,2.262,26.427c1.284,1.705,0.947,4.128-0.756,5.417C411.379,153.451,410.559,153.705,409.746,153.705z
			"/>
	</g>
	<g>
		<path fill="#F3F3F3" d="M331.376,251.096V289.4c0,0,7.925,17.608,9.246,22.451c1.32,4.834-7.046,17.166,0,36.102
			c7.487,12.32,10.566,30.809,10.566,30.809h-35.217c0,0,0-47.101-6.604-54.15c-6.602-7.034-9.689-17.166-9.689-23.77
			c0-6.603-26.416-37.861-26.416-37.861"/>
		<path fill="#27140E" d="M351.188,382.626h-35.216c-2.134,0-3.87-1.731-3.87-3.864c0-21.916-2.123-47.842-5.557-51.508
			c-7.413-7.902-10.734-18.96-10.734-26.413c-0.49-3.754-13.621-21.309-25.5-35.364c-1.381-1.629-1.172-4.072,0.457-5.447
			c1.629-1.381,4.068-1.174,5.447,0.457c10.205,12.076,27.327,33.379,27.327,40.354c0,5.917,2.97,15.076,8.644,21.124
			c6.434,6.868,7.489,38.553,7.632,52.932h26.642c-1.365-6.057-4.307-16.979-9.141-24.938c-0.132-0.21-0.235-0.434-0.323-0.66
			c-5.224-14.048-2.573-24.996-0.995-31.537c0.458-1.878,1.02-4.212,0.886-4.912c-1.012-3.709-6.864-17.043-9.036-21.863
			c-0.224-0.502-0.341-1.043-0.341-1.586v-38.305c0-2.135,1.732-3.867,3.867-3.867c2.134,0,3.865,1.732,3.865,3.867v37.477
			c1.674,3.734,7.861,17.695,9.107,22.26c0.683,2.49,0.015,5.253-0.831,8.749c-1.534,6.353-3.638,15.026,0.603,26.69
			c7.646,12.801,10.753,31.078,10.881,31.854c0.185,1.122-0.128,2.269-0.865,3.138C353.403,382.126,352.321,382.626,351.188,382.626
			z"/>
	</g>
	<g>
		<path fill="#818181" d="M435.716,166.568c0,2.433,1.967,4.403,4.405,4.403c2.436,0,4.404-1.971,4.404-4.403
			s-1.97-4.403-4.404-4.403C437.683,162.165,435.716,164.136,435.716,166.568z"/>
		<path fill="#27140E" d="M440.121,173.549c-3.852,0-6.983-3.132-6.983-6.981s3.134-6.98,6.983-6.98c3.849,0,6.981,3.131,6.981,6.98
			S443.97,173.549,440.121,173.549z M440.121,164.743c-1.009,0-1.828,0.82-1.828,1.825c0,1.008,0.819,1.826,1.828,1.826
			c1.006,0,1.826-0.818,1.826-1.826C441.947,165.562,441.127,164.743,440.121,164.743z"/>
	</g>
	<g>
		<line fill="none" x1="471.377" y1="189.021" x2="446.282" y2="209.274"/>
		<path fill="#27140E" d="M446.285,213.14c-1.128,0-2.25-0.492-3.013-1.439c-1.34-1.661-1.081-4.095,0.581-5.436l25.091-20.254
			c1.659-1.337,4.099-1.08,5.438,0.583c1.344,1.661,1.082,4.095-0.576,5.436l-25.096,20.254
			C447.995,212.859,447.14,213.14,446.285,213.14z"/>
	</g>
	<g>
		<path fill="#F9C7D3" d="M450.83,210.822l20.547-16.549c0,0,8.004,7.67,0.17,13.171C463.71,212.948,454.206,216.242,450.83,210.822
			z"/>
	</g>
</g>
</svg>
