<?xml version="1.0" encoding="utf-8"?>
<!-- Generator: Adobe Illustrator 16.0.0, SVG Export Plug-In . SVG Version: 6.00 Build 0)  -->
<!DOCTYPE svg PUBLIC "-//W3C//DTD SVG 1.1//EN" "http://www.w3.org/Graphics/SVG/1.1/DTD/svg11.dtd">
<svg version="1.1" id="Layer_1" xmlns="http://www.w3.org/2000/svg" xmlns:xlink="http://www.w3.org/1999/xlink" x="0px" y="0px"
	 width="500px" height="500px" viewBox="0 0 500 500" enable-background="new 0 0 500 500" xml:space="preserve">
<g id="Layer_1_copy_59">
	<g>
		<g>
			<path fill="#EA3D3C" d="M344.465,216.048c0,0,5.257-15.533,17.47-16.041c12.223-0.511,60.071-8.643,41.238,16.041
				c-18.836,24.683-48.904,33.339-48.904,33.339l-20.331-3.058L344.465,216.048z"/>
			<path fill="#3C2517" d="M354.269,252.227c-0.145,0-0.28-0.012-0.423-0.031l-20.328-3.057c-0.838-0.125-1.573-0.616-2.014-1.339
				c-0.436-0.724-0.527-1.604-0.249-2.4l10.528-30.284c0.231-0.688,6.033-17.366,20.034-17.949c1.644-0.065,4.046-0.288,6.825-0.543
				c5.556-0.507,12.464-1.14,19.084-1.14c12.414,0,19.325,2.285,21.754,7.189c1.979,3.998,0.651,8.937-4.05,15.098
				c-19.187,25.141-49.113,33.98-50.374,34.346C354.802,252.189,354.534,252.227,354.269,252.227z M337.743,244.031l16.309,2.449
				c4.165-1.335,30.242-10.371,46.862-32.153c3.129-4.099,4.363-7.343,3.477-9.134c-0.603-1.211-3.424-4.03-16.663-4.03
				c-6.359,0-13.127,0.619-18.563,1.117c-2.857,0.262-5.322,0.491-7.106,0.562c-10.097,0.419-14.855,13.985-14.9,14.122
				L337.743,244.031z"/>
		</g>
		<g>
			<path fill="#EA3D3C" d="M428.114,148.082c0,0-14.25-37.672-44.796-16.8c-30.546,20.872-37.826,46.927-24.769,69.283
				c13.062,22.349,36.475,16.751,36.475,16.751s20.873-3.565,29.528-24.945C433.205,170.991,428.114,148.082,428.114,148.082z"/>
			<path fill="#3C2517" d="M388.458,220.779c0,0,0,0-0.004,0c-7.983,0-22.807-2.439-32.355-18.784
				c-14.524-24.863-4.945-52.171,25.616-73.057c6.604-4.511,13.062-6.796,19.202-6.796c20.186,0,29.47,23.917,29.855,24.935
				c0.049,0.127,0.086,0.255,0.117,0.39c0.217,0.968,5.177,24.021-3.706,45.968c-9.146,22.591-30.765,26.522-31.682,26.68
				c0.003,0,0.003,0,0.003,0C395.529,220.114,392.678,220.779,388.458,220.779z M400.917,127.825c-4.975,0-10.36,1.951-15.998,5.804
				c-27.825,19.017-36.766,43.5-23.917,65.501c7.71,13.199,19.188,15.969,27.452,15.969c0.004,0,0.004,0,0.004,0
				c3.532,0,5.893-0.543,5.915-0.55c0.956-0.17,19.619-3.663,27.545-23.246c7.804-19.275,3.928-40.111,3.47-42.399
				C424.53,146.805,416.347,127.825,400.917,127.825z"/>
		</g>
		<g>
			<path fill="#EA3D3C" d="M374.156,93.612c0,0-47.344-21.89-46.836,4.58c0.511,26.47-9.229,53.451,26.947,79.921
				c36.178,26.477,53.242-18.833,53.242-18.833l2.43-32.304C409.939,126.977,405.714,105.322,374.156,93.612z"/>
			<path fill="#3C2517" d="M375.9,189.257h-0.003c-7.438,0-15.281-2.976-23.306-8.849c-30.824-22.555-29.648-45.582-28.51-67.849
				c0.238-4.714,0.487-9.588,0.398-14.312c-0.095-4.815,1.219-8.639,3.901-11.375c2.996-3.051,7.589-4.603,13.651-4.603
				c14.197,0,32.536,8.407,33.312,8.768c32.478,12.033,37.191,34.451,37.378,35.4c0.05,0.249,0.062,0.5,0.046,0.752l-2.43,32.305
				c-0.019,0.268-0.075,0.536-0.174,0.789C409.724,161.464,398.989,189.257,375.9,189.257z M342.035,87.953
				c-4.479,0-7.71,0.975-9.6,2.9c-1.594,1.624-2.341,4.007-2.273,7.287c0.095,4.923-0.16,9.899-0.406,14.711
				c-1.108,21.717-2.157,42.229,26.192,62.971c7.027,5.146,13.742,7.752,19.949,7.752c17.947,0,27.554-21.868,28.812-24.938
				l2.366-31.446c-0.682-2.743-6.129-20.61-33.908-30.915C372.787,96.11,354.973,87.953,342.035,87.953z"/>
		</g>
		<g>
			<path fill="#EA3D3C" d="M306.956,119.064c0,0-48.358-15.271-39.19,0c9.157,15.275,63.117,33.09,72.79,28
				c9.675-5.091-6.619-26.981-6.619-26.981S313.345,120.931,306.956,119.064z"/>
			<path fill="#3C2517" d="M335.373,150.792c-16.312,0-61.006-15.196-70.048-30.265c-1.741-2.903-2.033-5.424-0.86-7.493
				c1.368-2.422,4.441-3.594,9.385-3.594c11.916,0,33.069,6.632,33.965,6.917c1.342,0.39,5.275,1.077,15.883,1.077
				c5.457,0,10.079-0.19,10.125-0.19c0.981-0.026,1.837,0.39,2.396,1.146c1.238,1.66,12.027,16.499,9.976,25.531
				c-0.569,2.514-2.062,4.468-4.314,5.653C340.33,150.393,338.198,150.792,335.373,150.792z M269.4,115.857
				c0.053,0.039,0.107,0.602,0.799,1.748c7.422,12.377,49.085,27.505,65.174,27.505c2.524,0,3.539-0.393,3.86-0.557
				c0.788-0.419,1.214-0.982,1.42-1.889c1.038-4.56-4.131-13.995-8.131-19.69c-1.848,0.059-5.159,0.141-8.826,0.141
				c-8.626,0-14.524-0.442-17.533-1.322c-0.271-0.083-21.274-6.672-32.313-6.672C270.494,115.12,269.555,115.735,269.4,115.857z"/>
		</g>
		<g>
			<path fill="#EA3D3C" d="M333.938,86.512c0,0-53.959-22.935-82.974-7.153c46.325,18.833,75.531,35.634,75.531,35.634
				l17.131-10.181L333.938,86.512z"/>
			<path fill="#3C2517" d="M326.495,117.834c-0.49,0-0.979-0.128-1.417-0.38c-0.292-0.164-29.6-16.931-75.185-35.466
				c-1.019-0.413-1.706-1.375-1.768-2.468c-0.063-1.1,0.517-2.134,1.479-2.658c7.183-3.905,16.341-5.886,27.216-5.886
				c27.508,0,56.983,12.394,58.229,12.924c0.6,0.255,1.093,0.707,1.401,1.283l9.683,18.299c0.71,1.335,0.246,2.999-1.061,3.771
				l-17.131,10.181C327.5,117.7,326.996,117.834,326.495,117.834z M258.277,79.297c36.841,15.333,62.027,28.998,68.176,32.415
				l13.397-7.961l-7.94-14.997c-5.189-2.085-31.377-12.096-55.09-12.096C269.768,76.659,263.555,77.542,258.277,79.297z"/>
		</g>
	</g>
	<g>
		<g>
			<path fill="#EA3D3C" d="M151.341,218.071c0,0-5.253-15.533-17.47-16.044c-12.219-0.507-60.067-8.639-41.235,16.044
				c18.833,24.683,48.901,33.338,48.901,33.338l20.332-3.057L151.341,218.071z"/>
			<path fill="#3C2517" d="M141.537,254.248c-0.266,0-0.527-0.036-0.785-0.111c-1.264-0.361-31.188-9.201-50.371-34.343
				c-4.708-6.165-6.03-11.104-4.053-15.098c2.425-4.904,9.337-7.189,21.749-7.189c6.619,0,13.533,0.631,19.085,1.139
				c2.783,0.255,5.183,0.478,6.826,0.543c14.004,0.586,19.802,17.261,20.044,17.972l10.519,30.261
				c0.278,0.798,0.187,1.676-0.252,2.399c-0.437,0.724-1.173,1.215-2.01,1.343l-20.329,3.054
				C141.821,254.238,141.679,254.248,141.537,254.248z M108.077,203.187c-13.237,0-16.06,2.818-16.659,4.03
				c-0.887,1.787,0.351,5.035,3.474,9.133c16.623,21.783,42.7,30.817,46.865,32.154l16.306-2.449l-9.405-27.05
				c-0.052-0.154-4.806-13.716-14.904-14.139c-1.784-0.072-4.253-0.301-7.107-0.563
				C121.205,203.805,114.438,203.187,108.077,203.187z"/>
		</g>
		<g>
			<path fill="#EA3D3C" d="M67.694,150.105c0,0,14.25-37.672,44.797-16.8c30.542,20.873,37.822,46.931,24.768,69.279
				c-13.062,22.355-36.478,16.751-36.478,16.751s-20.87-3.562-29.524-24.941C62.601,173.014,67.694,150.105,67.694,150.105z"/>
			<path fill="#3C2517" d="M107.352,222.802c-4.25,0-7.111-0.671-7.229-0.701c-0.733-0.121-22.359-4.056-31.499-26.644
				c-8.885-21.946-3.922-44.999-3.705-45.968c0.029-0.134,0.064-0.262,0.118-0.389c0.386-1.019,9.666-24.935,29.854-24.935
				c6.142,0,12.603,2.285,19.199,6.796c30.566,20.885,40.145,48.194,25.616,73.054C130.161,220.363,115.339,222.802,107.352,222.802
				z M70.425,150.923c-0.459,2.278-4.321,23.177,3.463,42.406c7.968,19.681,27.178,23.177,27.374,23.209
				c0.197,0.04,2.56,0.583,6.09,0.583c8.269,0,19.742-2.773,27.452-15.969c12.852-21.999,3.911-46.485-23.917-65.502
				c-5.638-3.853-11.019-5.804-15.995-5.804C79.413,129.848,71.275,148.815,70.425,150.923z"/>
		</g>
		<g>
			<path fill="#EA3D3C" d="M121.652,95.632c0,0,47.344-21.887,46.836,4.583c-0.51,26.473,9.225,53.451-26.951,79.924
				c-36.176,26.471-53.238-18.836-53.238-18.836L85.87,129C85.87,129,90.092,107.345,121.652,95.632z"/>
			<path fill="#3C2517" d="M119.908,191.281c-23.092,0-33.823-27.793-34.268-28.975c-0.099-0.252-0.158-0.52-0.177-0.789
				l-2.43-32.304c-0.02-0.252,0-0.507,0.046-0.756c0.187-0.946,4.904-23.363,37.584-35.482c0.57-0.275,18.912-8.682,33.106-8.682
				c6.065,0,10.659,1.552,13.651,4.603c2.684,2.736,4,6.56,3.905,11.373c-0.089,4.724,0.157,9.598,0.398,14.312
				c1.137,22.271,2.314,45.297-28.509,67.852C135.189,188.301,127.35,191.281,119.908,191.281z M91.097,160.656
				c1.269,3.071,10.918,24.941,28.812,24.941c6.207,0,12.921-2.606,19.952-7.751c28.347-20.742,27.299-41.257,26.192-62.975
				c-0.249-4.812-0.501-9.791-0.405-14.708c0.062-3.276-0.682-5.663-2.278-7.287c-1.886-1.925-5.116-2.9-9.599-2.9
				c-12.957,0-30.749,8.154-30.929,8.236c-27.938,10.374-33.411,28.218-34.108,31.001L91.097,160.656z"/>
		</g>
		<g>
			<path fill="#EA3D3C" d="M188.85,121.088c0,0,48.358-15.271,39.199,0c-9.166,15.274-63.126,33.089-72.799,27.999
				c-9.67-5.09,6.619-26.981,6.619-26.981S182.464,122.954,188.85,121.088z"/>
			<path fill="#3C2517" d="M160.432,152.815c-2.824,0-4.953-0.399-6.504-1.214c-2.253-1.185-3.745-3.143-4.314-5.657
				c-2.05-9.032,8.74-23.871,9.975-25.534c0.56-0.756,1.464-1.195,2.396-1.143c0.049,0.003,4.677,0.19,10.128,0.19
				c10.604,0,14.538-0.688,15.942-1.093c0.835-0.269,21.989-6.904,33.901-6.904c4.946,0,8.018,1.176,9.39,3.598
				c1.168,2.069,0.88,4.59-0.862,7.49C221.441,137.62,176.745,152.812,160.432,152.815L160.432,152.815z M163.283,124.997
				c-3.999,5.699-9.169,15.131-8.132,19.691c0.204,0.907,0.629,1.47,1.422,1.886c0.32,0.167,1.335,0.56,3.858,0.56l0,0
				c16.091,0,57.757-15.13,65.182-27.505c0.713-1.192,0.746-1.754,0.746-1.86c-0.036,0.013-0.923-0.625-4.403-0.628
				c-11.038,0-32.038,6.59-32.252,6.659c-3.066,0.897-8.966,1.342-17.589,1.342l0,0C168.442,125.141,165.13,125.056,163.283,124.997
				z"/>
		</g>
		<g>
			<path fill="#EA3D3C" d="M161.869,88.538c0,0,53.958-22.938,82.977-7.156c-46.325,18.833-75.532,35.633-75.532,35.633
				l-17.13-10.181L161.869,88.538z"/>
			<path fill="#3C2517" d="M169.313,119.857c-0.504,0-1.005-0.138-1.453-0.399l-17.128-10.181c-1.303-0.776-1.768-2.436-1.061-3.771
				l9.683-18.299c0.309-0.573,0.803-1.028,1.402-1.284c1.243-0.527,30.723-12.924,58.23-12.924c10.875,0,20.034,1.981,27.217,5.886
				c0.962,0.527,1.539,1.558,1.476,2.655c-0.062,1.097-0.745,2.059-1.764,2.472c-45.589,18.535-74.897,35.299-75.188,35.466
				C170.289,119.729,169.801,119.857,169.313,119.857z M155.957,105.774l13.396,7.961c6.147-3.417,31.335-17.078,68.183-32.418
				c-5.283-1.751-11.49-2.639-18.548-2.639c-23.715,0-49.902,10.018-55.088,12.096L155.957,105.774z"/>
		</g>
	</g>
	<g>
		<g>
			<path fill="#D32B2A" d="M352.356,265.166c0,0,43.486-27.223,53.104-34.87c9.925-7.89,49.378,14.253,49.378,14.253
				s11.271,45.562,9.297,50.652c-3.496,8.992-22.023,29.779-24.312,23.924c-2.291-5.854,9.07-21.102,11.197-27.229
				c0.61-1.763,0.03-17.85-7.889-31.564c-1.748-3.027-25.463-6.15-29.523-5.346c-1.119,0.223-61.253,44.799-67.479,41.057
				c-17.311-10.406-21.861-25.529-21.861-25.529L352.356,265.166z"/>
			<path fill="#3C2517" d="M441.3,322.99c-1.889,0-3.431-1.057-4.12-2.828c-1.886-4.814,1.75-11.883,7.098-21.33
				c1.773-3.137,3.449-6.1,4.064-7.869c0.345-1.877-0.409-16.451-7.519-28.945c-2.563-1.695-17.79-4.32-25.247-4.32
				c-0.479,0-0.81,0.016-1.028,0.031c-1.018,0.668-3.771,2.612-6.664,4.655c-27.03,19.071-53.095,36.72-60.745,36.72
				c-0.949,0-1.776-0.209-2.472-0.629c-18.044-10.846-22.922-26.479-23.121-27.145c-0.229-0.77-0.124-1.602,0.291-2.291
				c0.422-0.688,1.106-1.169,1.899-1.316l27.562-5.248c4.652-2.912,43.529-27.356,52.397-34.404
				c1.932-1.532,4.643-2.315,8.054-2.315c15.23,0,43.293,15.651,44.48,16.319c0.685,0.383,1.18,1.034,1.365,1.793
				c3.454,13.962,11.266,47.012,9.187,52.361C463.767,303.994,448.336,322.99,441.3,322.99z M415.576,252.016
				c3.723,0,10.433,0.727,16.312,1.771c11.973,2.121,13.099,4.071,13.703,5.126c8.008,13.867,9.188,30.818,8.115,33.908
				c-0.782,2.259-2.5,5.293-4.487,8.81c-2.41,4.259-6.651,11.765-6.881,15.297c4.635-2.438,16.395-15.653,19.15-22.754
				c0.828-3.294-3.93-26.642-9.108-47.732c-5.244-2.835-28.421-15.007-40.631-15.007c-2.066,0-3.631,0.376-4.521,1.087
				c-9.632,7.654-51.586,33.938-53.365,35.054c-0.3,0.184-0.632,0.317-0.978,0.38l-24.68,4.697
				c2.197,4.643,7.68,13.812,19.076,20.765c7.364-0.422,44.92-26.922,57.324-35.676c7.616-5.375,7.616-5.375,8.438-5.538
				C413.685,252.07,414.483,252.016,415.576,252.016z"/>
		</g>
		<g>
			<path fill="#D32B2A" d="M338.091,294.421c0,0,47.562-19.248,58.358-25.104c11.148-6.043,46.15,22.623,46.15,22.623
				s3.173,46.83,0.342,51.502c-5,8.242-26.861,25.494-28.103,19.33c-1.237-6.164,12.606-19.207,15.767-24.873
				c0.903-1.623,3.133-17.562-2.281-32.453c-1.195-3.284-24.006-10.486-28.145-10.396c-1.142,0.021-68.112,33.456-73.594,28.693
				c-15.232-13.263-17.088-28.942-17.088-28.942L338.091,294.421z"/>
			<path fill="#3C2517" d="M416.595,366.916c-2.356,0-4.096-1.374-4.541-3.584c-1.018-5.072,3.795-11.396,10.698-19.771
				c2.292-2.781,4.459-5.41,5.372-7.047c0.672-1.787,2.462-16.267-2.367-29.812c-2.593-2.484-20.469-8.445-25.11-8.796
				c-1.106,0.478-4.193,1.929-7.438,3.453c-28.368,13.344-55.848,25.69-64.746,25.69c-1.616,0-2.837-0.38-3.737-1.165
				c-15.88-13.818-17.966-30.064-18.048-30.752c-0.095-0.795,0.154-1.598,0.688-2.203c0.525-0.604,1.289-0.959,2.098-0.97
				l28.055-0.373c5.078-2.062,47.629-19.37,57.579-24.769c1.447-0.781,3.177-1.182,5.144-1.182
				c14.312,0,41.146,21.643,44.162,24.106c0.607,0.497,0.978,1.225,1.033,2.007c0.973,14.35,2.913,48.249-0.064,53.164
				C440.96,352.184,423.541,366.916,416.595,366.916z M416.575,361.232l0.02,2.842v-2.838
				C416.588,361.232,416.582,361.232,416.575,361.232z M400.126,292.208c3.796,0,28.896,6.839,30.869,12.267
				c5.479,15.062,3.684,31.955,2.092,34.805c-1.162,2.09-3.379,4.777-5.948,7.894c-3.105,3.769-8.569,10.394-9.431,13.839
				c5.113-1.687,18.908-12.621,22.804-19.043c1.389-3.104,0.771-26.93-0.664-48.601c-8.491-6.81-29.597-22.048-39.607-22.048
				c-1.011,0-1.829,0.166-2.436,0.49c-10.812,5.866-56.703,24.453-58.649,25.246c-0.327,0.129-0.675,0.199-1.024,0.203
				l-25.122,0.334c1.354,4.949,5.163,14.932,15.167,23.764c0.072,0.007,0.164,0.01,0.287,0.01c8.855,0,47.703-18.268,62.327-25.148
				c8.491-3.992,8.491-3.992,9.333-4.01C400.122,292.208,400.122,292.208,400.126,292.208z"/>
		</g>
		<g>
			<path fill="#D32B2A" d="M322.384,325.368c0,0,49.739-12.595,61.232-16.925c11.866-4.477,42.642,28.693,42.642,28.693
				s-3.229,46.824-6.671,51.063c-6.079,7.489-30.084,21.603-30.471,15.327c-0.391-6.272,15.101-17.309,19.003-22.496
				c1.116-1.483,5.496-16.971,2.154-32.458c-0.733-3.419-22.354-13.657-26.468-14.136c-1.13-0.127-72.028,23.881-76.809,18.414
				c-13.287-15.209-12.993-31.002-12.993-31.002L322.384,325.368z"/>
			<path fill="#3C2517" d="M391.24,407.934c-3.471,0-4.841-2.275-4.962-4.229c-0.318-5.163,5.31-10.768,13.291-18.126
				c2.65-2.445,5.151-4.754,6.28-6.25c0.903-1.687,4.652-15.782,1.712-29.861c-2.226-2.815-19.213-11.198-23.671-12.135
				c-1.147,0.313-4.373,1.325-7.765,2.383c-17.412,5.451-53.651,16.784-65.731,16.784c-1.855,0-4.156-0.2-5.535-1.777
				c-13.854-15.854-13.709-32.232-13.695-32.923c0.016-0.806,0.372-1.565,0.979-2.096c0.609-0.522,1.414-0.779,2.209-0.671
				l27.85,3.449c5.312-1.353,49.82-12.709,60.414-16.697c1.051-0.396,2.221-0.6,3.464-0.6c14.001,0,39.411,26.944,42.259,30.019
				c0.537,0.577,0.806,1.343,0.754,2.129c-0.993,14.349-3.68,48.199-7.298,52.658C416.732,396.23,398.761,407.934,391.24,407.934z
				 M383.796,331.598c0.109,0,0.223,0.006,0.332,0.02c3.08,0.355,27.664,10.498,28.925,16.357
				c3.378,15.668-0.696,32.156-2.668,34.77c-1.435,1.904-3.997,4.273-6.97,7.009c-3.578,3.304-9.873,9.104-11.212,12.399
				c5.773-1.055,20.765-10.305,25.181-15.742c1.8-2.881,4.422-26.572,5.951-48.236c-7.938-8.387-27.829-27.309-37.257-27.309
				c-0.558,0-1.051,0.078-1.46,0.234c-11.51,4.338-59.501,16.504-61.537,17.021c-0.347,0.084-0.704,0.109-1.045,0.062l-24.935-3.084
				c0.664,5.09,3.083,15.496,11.795,25.603c0.216,0.05,0.668,0.118,1.498,0.118c11.216,0,48.228-11.58,64.031-16.524
				C383.054,331.598,383.126,331.598,383.796,331.598z"/>
		</g>
		<g>
			<path fill="#D32B2A" d="M143.452,267.189c0,0-43.493-27.225-53.108-34.872c-9.925-7.889-49.375,14.253-49.375,14.253
				s-11.274,45.562-9.297,50.654c3.493,8.991,22.018,29.779,24.312,23.926c2.289-5.854-9.074-21.103-11.198-27.235
				c-0.609-1.755-0.033-17.842,7.89-31.562c1.747-3.028,25.462-6.151,29.524-5.347c1.115,0.224,61.252,44.8,67.479,41.054
				c17.311-10.405,21.861-25.528,21.861-25.528L143.452,267.189z"/>
			<path fill="#3C2517" d="M54.509,325.014c-7.039,0-22.471-18.998-25.485-26.763c-2.079-5.353,5.731-38.401,9.186-52.361
				c0.187-0.759,0.685-1.411,1.365-1.793c1.188-0.667,29.247-16.316,44.482-16.316c3.41,0,6.121,0.779,8.056,2.315
				c8.861,7.044,47.745,31.489,52.395,34.406l27.563,5.244c0.792,0.146,1.482,0.628,1.898,1.312
				c0.419,0.688,0.523,1.524,0.294,2.293c-0.199,0.662-5.079,16.301-23.121,27.146c-0.696,0.416-1.525,0.628-2.472,0.628l0,0
				c-7.653-0.003-33.711-17.644-60.731-36.713c-2.9-2.043-5.66-3.994-6.678-4.662c-0.223-0.017-0.554-0.032-1.028-0.032
				c-7.464,0-22.687,2.622-25.25,4.317c-7.109,12.499-7.862,27.073-7.466,29.114c0.562,1.604,2.242,4.567,4.013,7.707
				c5.35,9.451,8.983,16.51,7.098,21.324C57.937,323.957,56.394,325.014,54.509,325.014z M43.425,248.463
				c-5.18,21.085-9.933,44.436-9.079,47.811c2.734,7.028,14.489,20.238,19.121,22.675c-0.229-3.525-4.471-11.032-6.881-15.296
				c-1.987-3.512-3.702-6.551-4.484-8.809c-1.074-3.091,0.102-20.037,8.111-33.912c0.609-1.05,1.735-3.005,13.707-5.121
				c5.877-1.045,12.587-1.771,16.312-1.771c1.09,0,1.892,0.057,2.521,0.184c0.825,0.166,0.825,0.166,8.459,5.549
				c12.417,8.764,50.024,35.299,57.311,35.672c11.393-6.955,16.883-16.122,19.076-20.768l-24.677-4.693
				c-0.347-0.065-0.681-0.196-0.976-0.385c-1.784-1.115-43.735-27.398-53.37-35.053c-0.89-0.713-2.454-1.086-4.52-1.086
				C71.836,233.458,48.661,245.622,43.425,248.463z"/>
		</g>
		<g>
			<path fill="#D32B2A" d="M157.718,296.445c0,0-47.564-19.25-58.361-25.105c-11.15-6.042-46.15,22.627-46.15,22.627
				s-3.173,46.823-0.342,51.494c5.003,8.25,26.864,25.498,28.104,19.334c1.234-6.165-12.606-19.204-15.769-24.873
				c-0.904-1.62-3.133-17.562,2.285-32.451c1.191-3.287,24.002-10.488,28.143-10.4c1.136,0.027,68.11,33.464,73.588,28.697
				c15.238-13.259,17.091-28.945,17.091-28.945L157.718,296.445z"/>
			<path fill="#3C2517" d="M79.211,368.938c-6.943,0-24.362-14.729-28.774-22c-2.976-4.91-1.035-38.815-0.063-53.164
				c0.057-0.782,0.429-1.51,1.036-2.004c3.014-2.468,29.844-24.106,44.163-24.106c1.964,0,3.693,0.396,5.14,1.179
				c9.948,5.399,52.492,22.706,57.576,24.771l28.058,0.365c0.803,0.015,1.568,0.364,2.099,0.971c0.53,0.607,0.779,1.408,0.684,2.205
				c-0.081,0.686-2.164,16.936-18.043,30.756c-0.9,0.779-2.125,1.162-3.735,1.162c-0.003,0-0.003,0-0.003,0
				c-8.908-0.002-36.393-12.354-64.775-25.703c-3.228-1.52-6.298-2.963-7.408-3.441c-4.681,0.364-22.526,6.312-25.114,8.797
				c-4.829,13.547-3.035,28.029-2.288,29.971c0.837,1.482,3.001,4.107,5.293,6.888c6.903,8.381,11.716,14.698,10.701,19.772
				C83.31,367.564,81.568,368.938,79.211,368.938z M79.211,363.259v2.839l0.02-2.843C79.225,363.255,79.218,363.255,79.211,363.259z
				 M55.962,295.393c-1.435,21.672-2.056,45.498-0.629,48.67c3.863,6.356,17.651,17.287,22.768,18.975
				c-0.86-3.444-6.327-10.073-9.431-13.842c-2.566-3.112-4.786-5.805-5.951-7.894c-1.592-2.854-3.385-19.745,2.096-34.805
				c1.973-5.427,27.072-12.271,30.738-12.271c0.976,0.021,0.976,0.021,9.438,4.002c14.63,6.881,53.49,25.156,62.355,25.164h0.003
				c0.117,0,0.209-0.008,0.281-0.014c10.004-8.826,13.814-18.809,15.17-23.764l-25.121-0.33c-0.354-0.008-0.701-0.076-1.028-0.206
				c-1.947-0.793-47.834-19.381-58.65-25.247c-0.603-0.323-1.42-0.49-2.429-0.49C85.555,273.343,64.453,288.584,55.962,295.393z"/>
		</g>
		<g>
			<path fill="#D32B2A" d="M173.425,327.391c0,0-49.739-12.598-61.235-16.926c-11.863-4.472-42.639,28.696-42.639,28.696
				s3.228,46.821,6.669,51.06c6.078,7.492,30.084,21.607,30.473,15.329c0.387-6.274-15.104-17.308-19.003-22.493
				c-1.119-1.484-5.499-16.977-2.157-32.464c0.737-3.413,22.355-13.653,26.467-14.132c1.13-0.128,72.029,23.885,76.812,18.41
				c13.287-15.206,12.989-30.998,12.989-30.998L173.425,327.391z"/>
			<path fill="#3C2517" d="M104.565,409.957c-7.521,0-25.488-11.706-30.55-17.945c-3.617-4.451-6.308-38.305-7.297-52.656
				c-0.056-0.781,0.217-1.551,0.75-2.123c2.851-3.075,28.261-30.026,42.259-30.026c1.248,0,2.413,0.207,3.463,0.601
				c10.594,3.99,55.102,15.351,60.415,16.7l27.849-3.446c0.799-0.104,1.604,0.145,2.21,0.672c0.605,0.526,0.965,1.285,0.978,2.092
				c0.014,0.691,0.158,17.068-13.692,32.919c-1.382,1.582-3.683,1.784-5.536,1.784c-12.083,0-48.317-11.336-65.733-16.783
				c-3.393-1.064-6.62-2.068-7.766-2.391c-4.448,0.934-21.442,9.323-23.668,12.14c-2.943,14.08,0.806,28.18,1.811,30.002
				c1.028,1.354,3.532,3.66,6.18,6.103c7.984,7.361,13.609,12.971,13.292,18.133C109.406,407.68,108.035,409.957,104.565,409.957z
				 M72.475,340.2c1.524,21.661,4.153,45.35,6,48.299c4.366,5.379,19.356,14.623,25.131,15.681
				c-1.342-3.297-7.637-9.104-11.218-12.406c-2.969-2.737-5.533-5.098-6.97-7.01c-1.964-2.609-6.043-19.102-2.665-34.766
				c1.264-5.861,25.849-16.001,28.919-16.357c0.112-0.01,0.229-0.018,0.341-0.018c0.667,0,0.739,0,9.361,2.697
				c15.809,4.943,52.824,16.525,64.039,16.525c0.832,0,1.283-0.068,1.499-0.117c8.764-10.168,11.156-20.535,11.808-25.609
				l-24.947,3.09c-0.351,0.05-0.707,0.021-1.045-0.062c-2.039-0.52-50.026-12.685-61.54-17.021c-0.405-0.157-0.897-0.234-1.46-0.234
				C100.296,312.889,80.409,331.809,72.475,340.2z"/>
		</g>
	</g>
	<g>
		<path fill="#F15E5C" d="M246.034,205.805c0,0-75.346-24.434-99.777,11.71c-24.437,36.143-36.144,136.426,67.197,166.969
			c103.338,30.547,125.226-39.193,125.226-39.193s76.363-129.671-27.995-147.561C276.064,189.516,246.034,205.805,246.034,205.805z"
			/>
		<path fill="#3C2517" d="M261.609,395.066h-0.004c-14.855,0-31.326-2.646-48.957-7.854c-40.004-11.827-67.449-35.63-79.365-68.846
			c-13.35-37.198-4.76-79.693,10.62-102.441c9.434-13.959,26.734-21.033,51.421-21.033c23.145,0,45.202,6.263,50.446,7.86
			c4.498-2.233,22.124-10.174,44.764-10.174c7.116,0,14.119,0.805,20.804,2.389c25.484,4.364,42.776,15.812,51.209,33.993
			c8.818,19.003,7.859,44.651-2.845,76.239c-7.479,22.062-17.078,38.962-18.428,41.283
			C339.725,350.846,322.465,395.066,261.609,395.066z M195.325,200.571c-22.686,0-38.398,6.233-46.714,18.535
			c-14.58,21.563-22.687,61.923-9.984,97.339c11.28,31.44,37.434,54.024,75.633,65.315c17.104,5.058,33.037,7.624,47.348,7.624
			c59.402,0,73.786-43.111,74.365-44.949c0.065-0.203,0.154-0.404,0.263-0.586c0.408-0.697,40.796-70.205,21.156-112.507
			c-7.604-16.381-23.48-26.749-47.188-30.812c-6.437-1.522-12.989-2.275-19.667-2.275c-24.349,0-42.963,9.945-43.146,10.046
			c-0.686,0.374-1.494,0.446-2.233,0.204C244.914,208.427,220.362,200.571,195.325,200.571z"/>
	</g>
	<g>
		<path fill="#3C2517" d="M249.088,369c-1.556,0-2.825-1.254-2.842-2.814l-1.506-154.752c-0.016-1.568,1.244-2.854,2.812-2.868
			c1.506,0.072,2.854,1.244,2.867,2.815l1.507,154.753c0.016,1.567-1.244,2.854-2.812,2.867C249.104,369,249.098,369,249.088,369z"
			/>
	</g>
</g>
</svg>
