<?xml version="1.0" encoding="utf-8"?>
<!-- Generator: Adobe Illustrator 16.0.0, SVG Export Plug-In . SVG Version: 6.00 Build 0)  -->
<!DOCTYPE svg PUBLIC "-//W3C//DTD SVG 1.1//EN" "http://www.w3.org/Graphics/SVG/1.1/DTD/svg11.dtd">
<svg version="1.1" id="Layer_1" xmlns="http://www.w3.org/2000/svg" xmlns:xlink="http://www.w3.org/1999/xlink" x="0px" y="0px"
	 width="500px" height="500px" viewBox="0 0 500 500" enable-background="new 0 0 500 500" xml:space="preserve">
<g id="Layer_1_copy_57">
	<g>
		<path fill="#E3A76A" d="M211.249,66.061c0-19.998-20.824-16.886-20.824-16.886c-7.579,0-13.725,6.957-13.725,15.536
			c0,8.58,6.146,16.461,13.725,16.461v0.037c-7.579,0-13.725,7.876-13.725,16.46c0,8.576,6.146,16.918,13.725,16.918v0.208
			c-7.579,0-13.725,8.338-13.725,16.918s6.146,16.453,13.725,16.453v0.045c-7.579,0-13.725,7.876-13.725,16.452
			c0,8.58,6.146,16.346,13.725,16.346l0,0c-7.579,0-13.725,6.96-13.725,15.541c0,8.571,6.146,16.448,13.725,16.448v0.045
			c-7.579,0-13.725,7.876-13.725,16.453c0,8.58,6.146,16.922,13.725,16.922v0.205c-7.579,0-13.725,8.342-13.725,16.922
			s6.146,16.456,13.725,16.456v0.033c-7.579,0-13.725,7.886-13.725,16.465c0,8.58,6.146,15.532,13.725,15.532l0.008,1.219
			c-19.993,0-16.882,20.824-16.882,20.824c0,7.582,6.952,13.725,15.533,13.725c8.579,0,16.456-6.143,16.456-13.725h0.04
			c0,7.582,7.881,13.725,16.462,13.725c8.575,0,16.918-6.143,16.918-13.725h0.212c0,7.582,8.339,13.725,16.915,13.725
			c8.579,0,16.46-6.143,16.46-13.725h0.036c0,7.582,7.881,13.725,16.457,13.725c8.58,0,16.354-6.143,16.354-13.725h-0.005
			c0,7.582,6.951,13.725,15.532,13.725c8.572,0,16.456-6.143,16.456-13.725h0.042c0,7.582,7.881,13.725,16.456,13.725
			c8.579,0,16.913-6.143,16.913-13.725h0.214c0,7.582,8.347,13.725,16.922,13.725c8.581,0,16.449-6.143,16.449-13.725h0.04
			c0,7.582,7.885,13.725,16.457,13.725c8.58,0,15.541-6.143,15.541-13.725c0,0,1.908-11.451-11.111-16.612v-0.04
			c7.577,0.016,13.735-7.861,13.749-16.439c0.012-8.572-6.127-16.924-13.705-16.939v-0.205c7.578,0.018,13.736-8.316,13.75-16.906
			c0.013-8.57-6.127-16.448-13.705-16.464v-0.041c7.578,0.008,13.741-7.86,13.749-16.44c0.013-8.58-6.122-16.358-13.708-16.367l0,0
			c7.586,0.008,13.737-6.936,13.753-15.516c0.014-8.576-6.13-16.465-13.703-16.477v-0.041c7.573,0.012,13.736-7.855,13.744-16.436
			c0.014-8.58-6.121-16.922-13.699-16.931v-0.217c7.583,0.013,13.736-8.317,13.745-16.893c0.017-8.58-6.121-16.465-13.699-16.477
			v-0.041c7.578,0.012,13.735-7.856,13.749-16.437c0.012-8.58-6.127-15.54-13.704-15.552l-0.009-1.219
			c19.997,0.021,16.905-20.799,16.905-20.799c0.018-7.578-6.928-13.737-15.508-13.746c-8.576-0.016-16.469,6.123-16.477,13.7h-0.045
			c0.017-7.578-7.856-13.732-16.44-13.745c-8.572-0.012-16.918,6.122-16.935,13.704h-0.204c0.004-7.583-8.322-13.741-16.902-13.749
			c-8.585-0.017-16.464,6.122-16.477,13.7h-0.041c0.016-7.579-7.86-13.733-16.434-13.75c-8.579-0.008-16.366,6.126-16.371,13.708
			h0.005c0.004-7.582-6.938-13.741-15.517-13.749c-8.579-0.017-16.473,6.123-16.477,13.7h-0.037
			c0.005-7.578-7.867-13.732-16.447-13.749c-8.576-0.008-16.919,6.126-16.928,13.7h-0.212c0.009-7.574-8.322-13.732-16.906-13.749
			c-10.579-0.02-16.505,13.708-16.505,13.708"/>
		<path fill="#27140E" d="M420.872,350.646c-6.874,0-13.05-3.271-16.479-8.064c-3.427,4.794-9.597,8.064-16.469,8.064
			c-7.05,0-13.52-3.467-17.027-8.408c-3.51,4.941-9.976,8.408-17.021,8.408c-6.875,0-13.046-3.271-16.478-8.064
			c-3.429,4.794-9.603,8.064-16.478,8.064c-6.593,0-12.384-3.142-15.63-7.853c-0.848,1.146-1.865,2.208-3.048,3.188
			c-3.603,2.961-8.416,4.664-13.205,4.664c-6.874,0-13.046-3.271-16.478-8.065c-3.428,4.794-9.603,8.065-16.477,8.065
			c-7.047,0-13.513-3.469-17.021-8.41c-3.51,4.941-9.979,8.41-17.024,8.41c-6.876,0-13.051-3.271-16.478-8.065
			c-3.432,4.794-9.606,8.065-16.48,8.065c-10.061,0-18.265-7.33-18.379-16.375c-0.205-1.621-1.117-11.197,4.563-17.791
			c1.702-1.971,3.786-3.467,6.245-4.481c-4.609-3.271-7.669-8.997-7.669-15.499c0-6.879,3.277-13.055,8.073-16.48
			c-4.796-3.429-8.073-9.594-8.073-16.474c0-7.041,3.469-13.512,8.409-17.021c-4.94-3.513-8.409-9.979-8.409-17.029
			c0-6.871,3.28-13.046,8.073-16.473c-4.793-3.427-8.073-9.603-8.073-16.473c0-6.601,3.153-12.399,7.872-15.647
			c-4.682-3.435-7.872-9.5-7.872-16.239c0-6.875,3.28-13.05,8.073-16.478c-4.793-3.426-8.073-9.602-8.073-16.473
			c0-7.046,3.469-13.516,8.409-17.02c-4.94-3.509-8.409-9.979-8.409-17.025c0-6.875,3.277-13.05,8.07-16.477
			c-4.793-3.431-8.07-9.602-8.07-16.481c0-10.068,7.329-18.268,16.384-18.387c1.618-0.205,11.197-1.112,17.793,4.572
			c1.983,1.705,3.484,3.807,4.498,6.286c3.146-4.347,8.381-9.471,15.619-9.471c0.013,0,0.02,0,0.032,0
			c7.026,0.012,13.476,3.476,16.989,8.399c0.964-1.354,2.176-2.608,3.614-3.737c3.733-2.932,8.621-4.613,13.414-4.613
			c0.008,0,0.018,0,0.023,0c6.875,0.008,13.042,3.292,16.471,8.089c0.883-1.223,1.967-2.368,3.233-3.398
			c3.628-2.953,8.45-4.646,13.229-4.646c0.008,0,0.021,0,0.028,0c6.593,0.008,12.388,3.166,15.627,7.889
			c0.507-0.691,1.075-1.354,1.705-1.983c3.733-3.722,9.021-5.86,14.517-5.86c0.01,0,0.021,0,0.029,0
			c4.793,0.008,9.619,1.713,13.242,4.682c1.265,1.035,2.344,2.176,3.223,3.403c0.884-1.227,1.968-2.364,3.23-3.395
			c3.624-2.953,8.445-4.646,13.222-4.646c0.015,0,0.025,0,0.037,0c7.043,0.008,13.508,3.489,17.013,8.433
			c3.51-4.928,9.971-8.384,17-8.384c0.014,0,0.021,0,0.029,0c4.793,0.004,9.618,1.709,13.246,4.679
			c1.268,1.034,2.348,2.179,3.227,3.406c3.433-4.781,9.599-8.044,16.46-8.044c0.013,0,0.021,0,0.029,0
			c4.846,0.008,9.414,1.693,12.865,4.752c3.501,3.104,5.442,7.234,5.487,11.656c0.2,1.627,1.102,11.197-4.589,17.781
			c-1.695,1.967-3.777,3.459-6.23,4.469c1.042,0.744,2.02,1.624,2.911,2.638c3.047,3.46,4.724,8.032,4.715,12.874
			c-0.004,4.793-1.709,9.619-4.679,13.247c-1.038,1.264-2.184,2.343-3.405,3.227c4.784,3.435,8.048,9.61,8.04,16.481
			c-0.009,4.801-1.701,9.7-4.646,13.434c-1.133,1.436-2.396,2.646-3.75,3.603c4.915,3.525,8.358,9.979,8.352,17.013
			c-0.008,4.785-1.713,9.614-4.684,13.238c-1.034,1.264-2.18,2.343-3.404,3.227c4.791,3.436,8.056,9.611,8.048,16.485
			c-0.018,6.588-3.17,12.379-7.885,15.623c1.145,0.846,2.212,1.864,3.186,3.046c2.961,3.607,4.658,8.424,4.653,13.217
			c-0.008,4.789-1.714,9.615-4.688,13.242c-1.034,1.26-2.18,2.339-3.405,3.223c4.787,3.435,8.052,9.611,8.044,16.481
			c-0.006,4.802-1.701,9.701-4.646,13.438c-1.134,1.432-2.393,2.643-3.746,3.605c4.915,3.518,8.355,9.979,8.347,16.998
			c-0.009,4.793-1.714,9.625-4.682,13.25c-1.403,1.709-3.003,3.082-4.741,4.09c6.314,5.087,7.337,12.146,6.785,15.98
			C439.124,343.342,430.929,350.646,420.872,350.646z M404.375,331.221c1.579,0,2.891,1.276,2.891,2.854
			c0,5.79,6.359,10.87,13.606,10.87c6.997,0,12.688-4.875,12.688-10.87c0-0.156,0.013-0.319,0.036-0.476
			c0.055-0.352,1.272-9.273-9.343-13.486c-1.093-0.426-1.805-1.48-1.805-2.65c0-0.752,0.303-1.506,0.839-2.037
			c0.535-0.531,1.259-0.857,2.013-0.857c0.007,0,0.012,0,0.021,0c2.739,0,5.397-1.399,7.483-3.95
			c2.15-2.626,3.388-6.144,3.395-9.644c0.009-7.354-5.165-14.068-10.857-14.076c-1.575,0-2.847-1.276-2.847-2.854
			c0-0.752,0.299-1.587,0.834-2.119c0.54-0.53,1.31-0.825,2.024-0.932h0.009c2.698,0,5.35-1.472,7.455-4.147
			c2.172-2.755,3.419-6.369,3.424-9.912c0.007-7.238-5.064-13.603-10.858-13.619c-1.574,0-2.846-1.274-2.846-2.845
			c0-0.761,0.302-1.505,0.833-2.045c0.537-0.532,1.265-0.851,2.021-0.851c0.006,0,0.006,0,0.018,0c2.739,0,5.4-1.407,7.492-3.951
			c2.15-2.625,3.387-6.138,3.391-9.635c0.008-7.092-4.929-13.332-10.62-13.512c-0.078,0-0.145,0.004-0.238,0
			c-1.577,0-2.854-1.28-2.851-2.854c0.005-1.575,1.281-2.847,2.851-2.847c0,0,0,0,0.005,0h0.005v-0.008c0.004,0,0.013,0,0.013,0
			c5.989,0,10.869-5.676,10.882-12.669c0.008-7.243-5.062-13.61-10.856-13.618c-1.575,0-2.848-1.276-2.848-2.851
			c0-0.756,0.299-1.505,0.837-2.041c0.533-0.532,1.256-0.851,2.014-0.851c0.004,0,0.013,0,0.013,0c2.744,0,5.406-1.407,7.492-3.95
			c2.15-2.625,3.386-6.139,3.39-9.635c0.009-7.361-5.16-14.072-10.853-14.084c-1.575,0-2.848-1.275-2.848-2.846
			c0-0.761,0.3-1.595,0.838-2.126c0.532-0.536,1.256-0.94,2.013-0.94c0,0,0.013,0,0.018,0c2.702,0,5.35-1.473,7.459-4.143
			c2.167-2.752,3.414-6.359,3.418-9.909c0.015-7.243-5.059-13.61-10.853-13.618c-1.575,0-2.848-1.276-2.848-2.851
			c0-0.757,0.304-1.505,0.839-2.041c0.535-0.531,1.26-0.851,2.013-0.851c0.008,0,0.012,0,0.021,0c2.74,0,5.397-1.407,7.483-3.95
			c2.155-2.63,3.387-6.143,3.395-9.644c0.005-3.452-1.164-6.683-3.292-9.095c-2.045-2.315-4.728-3.591-7.562-3.599
			c-1.566,0-2.838-1.26-2.851-2.822l-0.014-1.218c-0.004-0.765,0.291-1.497,0.83-2.037c0.532-0.539,1.264-0.842,2.024-0.842l0,0
			c0.013,0,0.021,0,0.028,0c4.843,0,8.485-1.374,10.825-4.085c4.338-5.026,3.247-13.361,3.229-13.442
			c-0.021-0.143-0.027-0.286-0.027-0.429c0.003-2.834-1.265-5.525-3.571-7.57c-2.407-2.135-5.635-3.312-9.087-3.321
			c-0.013,0-0.016,0-0.023,0c-7.238,0-13.594,5.072-13.603,10.863c-0.004,1.57-1.279,2.846-2.851,2.846
			c-0.76,0-1.505-0.303-2.04-0.838c-0.536-0.536-0.855-1.264-0.855-2.021c0.005-2.744-1.397-5.411-3.95-7.497
			c-2.63-2.151-6.143-3.39-9.64-3.394c-0.007,0-0.016,0-0.023,0c-7.351,0-14.049,5.17-14.061,10.858
			c0,1.575-1.276,2.847-2.851,2.847c-0.757,0-1.583-0.299-2.118-0.834c-0.536-0.536-0.941-1.264-0.941-2.021
			c0.005-5.693-6.693-10.882-14.051-10.894c-0.009,0-0.021,0-0.029,0c-3.486,0-6.992,1.223-9.618,3.361
			c-2.556,2.082-3.972,4.744-3.972,7.492c-0.003,1.575-1.279,2.847-2.854,2.847c-0.758,0-1.502-0.299-2.037-0.838
			c-0.536-0.532-0.854-1.26-0.854-2.021c0.004-2.74-1.398-5.406-3.95-7.496c-2.626-2.146-6.139-3.386-9.64-3.39c0,0-0.013,0-0.021,0
			c-3.479,0-6.965,1.219-9.562,3.354c-2.458,2.02-3.845,4.588-3.926,7.255c0,0.082,0,0.164,0,0.245c0,1.571-1.275,2.846-2.852,2.846
			l0,0c-1.577,0-2.85-1.275-2.85-2.846c0-0.004,0-0.008,0-0.008h-0.009c0.004-2.838-1.264-5.525-3.574-7.574
			c-2.408-2.135-5.635-3.312-9.087-3.317c-0.009,0-0.013,0-0.021,0c-3.496,0-7,1.227-9.627,3.366
			c-2.56,2.082-3.972,4.744-3.976,7.492c0,1.571-1.276,2.847-2.851,2.847c-0.756,0-1.502-0.302-2.037-0.834
			c-0.53-0.54-0.854-1.26-0.854-2.021c0.01-5.795-6.351-10.886-13.598-10.895c-0.01,0-0.014,0-0.021,0
			c-3.533,0-7.142,1.235-9.893,3.394c-2.675,2.102-4.155,4.752-4.155,7.456c0,1.574-1.276,2.851-2.855,2.851
			c-0.752,0-1.586-0.303-2.122-0.834c-0.535-0.54-0.94-1.264-0.94-2.021c0.005-5.688-6.694-10.882-14.061-10.894
			c-0.003,0-0.012,0-0.02,0c-8.539,0-13.811,11.867-13.863,11.991c-0.054,0.114-0.114,0.232-0.181,0.343
			c0.004,0.098,0.004,0.205,0.004,0.311c0,1.574-1.28,2.851-2.85,2.851c-1.579,0-2.855-1.276-2.855-2.851
			c0-4.854-1.377-8.506-4.094-10.845c-5.037-4.335-13.372-3.239-13.453-3.223c-0.141,0.024-0.283,0.032-0.422,0.032
			c-5.995,0-10.875,5.693-10.875,12.686c0,7.247,5.083,13.61,10.875,13.61c1.574,0,2.854,1.275,2.854,2.851
			c0,1.574-1.28,2.887-2.854,2.887c-5.792,0-10.875,6.359-10.875,13.61c0,7.361,5.182,14.064,10.875,14.064
			c1.574,0,2.854,1.275,2.854,2.854c0,1.571-1.28,3.059-2.854,3.059c-5.693,0-10.875,6.707-10.875,14.068
			c0,7.247,5.083,13.602,10.875,13.602c1.574,0,2.854,1.276,2.854,2.851c0,1.575-1.28,2.892-2.854,2.892
			c-5.792,0-10.875,6.359-10.875,13.606c0,7.189,5.083,13.495,10.875,13.495c1.574,0,2.854,1.28,2.854,2.851
			c0,1.579-1.28,2.854-2.854,2.854c-5.995,0-10.875,5.688-10.875,12.686c0,7.243,5.083,13.598,10.875,13.598
			c1.574,0,2.854,1.28,2.854,2.85c0,1.579-1.28,2.896-2.854,2.896c-5.792,0-10.875,6.355-10.875,13.602
			c0,7.365,5.182,14.072,10.875,14.072c1.574,0,2.854,1.28,2.854,2.85c0,1.579-1.28,3.059-2.854,3.059
			c-5.693,0-10.875,6.708-10.875,14.069c0,7.247,5.083,13.603,10.875,13.603c1.574,0,2.854,1.274,2.854,2.854
			c0,1.57-1.28,2.887-2.854,2.887c-5.792,0-10.875,6.363-10.875,13.61c0,6.993,4.88,12.687,10.875,12.687
			c1.566,0,2.838,1.26,2.854,2.822l0.009,1.227c0.004,0.761-0.295,1.488-0.826,2.027c-0.541,0.541-1.269,0.843-2.029,0.843
			c-4.838,0-8.481,1.375-10.82,4.073c-4.393,5.071-3.248,13.396-3.239,13.479c0.02,0.14,0.032,0.278,0.032,0.418
			c0,5.995,5.685,10.87,12.679,10.87c7.246,0,13.604-5.08,13.604-10.87c0-1.578,1.28-2.854,2.852-2.854
			c1.578,0,2.896,1.276,2.896,2.854c0,5.79,6.354,10.87,13.606,10.87c7.359,0,14.063-5.186,14.063-10.87
			c0-1.578,1.279-2.854,2.854-2.854c1.574,0,3.063,1.276,3.063,2.854c0,5.685,6.702,10.87,14.063,10.87
			c7.247,0,13.61-5.08,13.61-10.87c0-1.578,1.275-2.854,2.85-2.854c1.579,0,2.889,1.276,2.889,2.854
			c0,5.79,6.358,10.87,13.604,10.87c7.096,0,13.328-4.939,13.5-10.635c-0.004-0.08-0.004-0.153-0.004-0.235
			c0-1.578,1.274-2.854,2.854-2.854l0,0c1.571,0,2.852,1.276,2.852,2.847c0,0.009,0,0.009,0,0.009h0.004
			c0,2.838,1.271,5.521,3.583,7.564c2.412,2.135,5.644,3.306,9.095,3.306c7.247,0,13.606-5.08,13.606-10.87
			c0-1.578,1.275-2.854,2.85-2.854c1.579,0,2.892,1.275,2.892,2.854c0,5.79,6.359,10.87,13.606,10.87
			c7.355,0,14.062-5.187,14.062-10.87c0-1.578,1.271-2.854,2.851-2.854c1.575,0,3.066,1.275,3.066,2.854
			c0,5.686,6.703,10.87,14.068,10.87c7.243,0,13.598-5.08,13.598-10.87C401.523,332.498,402.8,331.221,404.375,331.221z"/>
	</g>
	<g>
		<g>
			<path fill="#C5994A" d="M232.71,283.168c6.163,0,11.156,4.998,11.156,11.156s-4.993,11.156-11.156,11.156
				c-6.167,0-11.16-4.998-11.16-11.156C221.55,288.167,226.543,283.168,232.71,283.168z"/>
			<path fill="#27140E" d="M232.71,308.335c-7.729,0-14.01-6.29-14.01-14.011c0-7.723,6.281-14.004,14.01-14.004
				c7.722,0,14.012,6.281,14.012,14.004C246.722,302.045,240.432,308.335,232.71,308.335z M232.71,286.023
				c-4.579,0-8.31,3.722-8.31,8.302c0,4.581,3.73,8.303,8.31,8.303c4.581,0,8.303-3.722,8.303-8.303
				C241.013,289.745,237.291,286.023,232.71,286.023z"/>
		</g>
		<g>
			<path fill="#C5994A" d="M232.71,191.995c6.163,0,11.165,4.998,11.165,11.161c0,6.159-5.002,11.153-11.165,11.153
				c-6.162,0-11.156-4.994-11.156-11.153C221.554,196.993,226.548,191.995,232.71,191.995z"/>
			<path fill="#27140E" d="M232.71,217.163c-7.721,0-14.002-6.281-14.002-14.007c0-7.725,6.281-14.011,14.002-14.011
				c7.729,0,14.012,6.286,14.012,14.011C246.722,210.881,240.439,217.163,232.71,217.163z M232.71,194.85
				c-4.579,0-8.301,3.726-8.301,8.306c0,4.576,3.722,8.306,8.301,8.306c4.581,0,8.312-3.73,8.312-8.306
				C241.021,198.576,237.291,194.85,232.71,194.85z"/>
		</g>
		<g>
			<path fill="#C5994A" d="M274.266,240.375c6.166,0,11.155,4.994,11.155,11.157c0,6.167-4.989,11.155-11.155,11.155
				c-6.162,0-11.156-4.988-11.156-11.155C263.107,245.368,268.104,240.375,274.266,240.375z"/>
			<path fill="#27140E" d="M274.266,265.542c-7.726,0-14.008-6.282-14.008-14.011c0-7.721,6.282-14.011,14.008-14.011
				s14.006,6.29,14.006,14.011C288.271,259.26,281.99,265.542,274.266,265.542z M274.266,243.229c-4.576,0-8.306,3.722-8.306,8.302
				s3.729,8.31,8.306,8.31c4.58,0,8.303-3.729,8.303-8.31C282.566,246.951,278.846,243.229,274.266,243.229z"/>
		</g>
		<g>
			<path fill="#C5994A" d="M314.956,281.574c6.159,0,11.152,4.996,11.152,11.156c0,6.166-4.993,11.156-11.152,11.156
				c-6.167,0-11.16-4.99-11.16-11.156C303.796,286.57,308.789,281.574,314.956,281.574z"/>
			<path fill="#27140E" d="M314.956,306.741c-7.725,0-14.012-6.281-14.012-14.011c0-7.722,6.287-14.012,14.012-14.012
				c7.721,0,14.002,6.29,14.002,14.012C328.958,300.459,322.677,306.741,314.956,306.741z M314.956,284.42
				c-4.58,0-8.312,3.729-8.312,8.311c0,4.58,3.73,8.31,8.312,8.31c4.576,0,8.297-3.729,8.297-8.31
				C323.253,288.148,319.532,284.42,314.956,284.42z"/>
		</g>
		<g>
			<path fill="#C5994A" d="M354.69,240.375c6.166,0,11.151,4.994,11.151,11.157c0,6.167-4.985,11.155-11.151,11.155
				c-6.164,0-11.151-4.988-11.151-11.155C343.539,245.368,348.526,240.375,354.69,240.375z"/>
			<path fill="#27140E" d="M354.69,265.542c-7.723,0-14.003-6.282-14.003-14.011c0-7.721,6.28-14.011,14.003-14.011
				c7.721,0,14.007,6.29,14.007,14.011C368.697,259.26,362.411,265.542,354.69,265.542z M354.69,243.229
				c-4.576,0-8.299,3.722-8.299,8.302s3.723,8.31,8.299,8.31c4.581,0,8.302-3.729,8.302-8.31S359.271,243.229,354.69,243.229z"/>
		</g>
		<g>
			<path fill="#C5994A" d="M396.556,190.094c6.158,0,11.152,4.994,11.152,11.161c0,6.159-4.994,11.148-11.152,11.148
				c-6.164,0-11.155-4.989-11.155-11.148C385.399,195.087,390.392,190.094,396.556,190.094z"/>
			<path fill="#27140E" d="M396.556,215.257c-7.726,0-14.012-6.282-14.012-14.002c0-7.729,6.286-14.011,14.012-14.011
				c7.722,0,14.002,6.282,14.002,14.011C410.558,208.975,404.276,215.257,396.556,215.257z M396.556,192.944
				c-4.58,0-8.307,3.729-8.307,8.31c0,4.572,3.727,8.297,8.307,8.297c4.575,0,8.297-3.725,8.297-8.297
				C404.853,196.674,401.131,192.944,396.556,192.944z"/>
		</g>
		<g>
			<path fill="#C5994A" d="M322.579,190.094c6.163,0,11.156,4.994,11.156,11.161c0,6.159-4.993,11.156-11.156,11.156
				c-6.167,0-11.156-4.998-11.156-11.156C311.423,195.087,316.412,190.094,322.579,190.094z"/>
			<path fill="#27140E" d="M322.579,215.265c-7.727,0-14.007-6.286-14.007-14.011c0-7.729,6.281-14.011,14.007-14.011
				c7.725,0,14.007,6.282,14.007,14.011C336.586,208.979,330.304,215.265,322.579,215.265z M322.579,192.944
				c-4.581,0-8.303,3.729-8.303,8.31c0,4.58,3.722,8.306,8.303,8.306c4.576,0,8.307-3.726,8.307-8.306
				S327.155,192.944,322.579,192.944z"/>
		</g>
		<g>
			<path fill="#C5994A" d="M360.723,132.533c6.162,0,11.151,4.998,11.151,11.161c0,6.159-4.989,11.152-11.151,11.152
				c-6.163,0-11.155-4.994-11.155-11.152C349.566,137.531,354.56,132.533,360.723,132.533z"/>
			<path fill="#27140E" d="M360.723,157.7c-7.726,0-14.007-6.286-14.007-14.007c0-7.725,6.281-14.011,14.007-14.011
				c7.723,0,14.003,6.286,14.003,14.011C374.726,151.415,368.444,157.7,360.723,157.7z M360.723,135.388
				c-4.581,0-8.306,3.725-8.306,8.306c0,4.576,3.725,8.302,8.306,8.302c4.576,0,8.299-3.726,8.299-8.302
				C369.021,139.113,365.299,135.388,360.723,135.388z"/>
		</g>
		<g>
			<path fill="#C5994A" d="M396.556,88.263c6.163,0,11.152,4.994,11.152,11.152c0,6.167-4.989,11.156-11.152,11.156
				c-6.164,0-11.155-4.989-11.155-11.156C385.399,93.257,390.392,88.263,396.556,88.263z"/>
			<path fill="#27140E" d="M396.556,113.426c-7.726,0-14.012-6.285-14.012-14.011c0-7.721,6.286-14.002,14.012-14.002
				c7.722,0,14.002,6.282,14.002,14.002C410.558,107.141,404.276,113.426,396.556,113.426z M396.556,91.114
				c-4.58,0-8.307,3.726-8.307,8.302c0,4.581,3.727,8.306,8.307,8.306c4.575,0,8.297-3.725,8.297-8.306
				C404.853,94.84,401.131,91.114,396.556,91.114z"/>
		</g>
		<g>
			<path fill="#C5994A" d="M322.583,88.259c6.163,0,11.152,4.993,11.152,11.156c0,6.159-4.989,11.156-11.152,11.156
				s-11.16-4.997-11.16-11.156C311.423,93.252,316.42,88.259,322.583,88.259z"/>
			<path fill="#27140E" d="M322.583,113.422c-7.725,0-14.011-6.286-14.011-14.007c0-7.725,6.286-14.011,14.011-14.011
				c7.721,0,14.003,6.286,14.003,14.011C336.586,107.137,330.304,113.422,322.583,113.422z M322.583,91.109
				c-4.58,0-8.307,3.726-8.307,8.306c0,4.581,3.727,8.302,8.307,8.302c4.576,0,8.303-3.722,8.303-8.302
				S327.159,91.109,322.583,91.109z"/>
		</g>
		<g>
			<path fill="#C5994A" d="M281.798,140.679c6.163,0,11.152,4.994,11.152,11.156c0,6.167-4.989,11.157-11.152,11.157
				s-11.151-4.989-11.151-11.157C270.646,145.673,275.635,140.679,281.798,140.679z"/>
			<path fill="#27140E" d="M281.798,165.842c-7.721,0-14.003-6.281-14.003-14.007c0-7.721,6.282-14.01,14.003-14.01
				c7.722,0,14.007,6.289,14.007,14.01C295.805,159.561,289.52,165.842,281.798,165.842z M281.798,143.534
				c-4.575,0-8.302,3.721-8.302,8.301c0,4.581,3.727,8.302,8.302,8.302c4.576,0,8.302-3.722,8.302-8.302
				S286.374,143.534,281.798,143.534z"/>
		</g>
		<g>
			<path fill="#C5994A" d="M232.71,94.459c6.163,0,11.156,4.993,11.156,11.152c0,6.163-4.993,11.161-11.156,11.161
				c-6.167,0-11.156-4.998-11.156-11.161C221.554,99.452,226.543,94.459,232.71,94.459z"/>
			<path fill="#27140E" d="M232.71,119.626c-7.721,0-14.002-6.29-14.002-14.015c0-7.721,6.281-14.002,14.002-14.002
				c7.722,0,14.012,6.281,14.012,14.002C246.722,113.336,240.432,119.626,232.71,119.626z M232.71,97.313
				c-4.579,0-8.301,3.722-8.301,8.298c0,4.584,3.722,8.31,8.301,8.31c4.581,0,8.303-3.726,8.303-8.31
				C241.013,101.035,237.291,97.313,232.71,97.313z"/>
		</g>
		<g>
			<path fill="#C5994A" d="M391.128,281.574c6.16,0,11.153,4.996,11.153,11.156c0,6.166-4.993,11.156-11.153,11.156
				c-6.163,0-11.156-4.99-11.156-11.156C379.972,286.57,384.965,281.574,391.128,281.574z"/>
			<path fill="#27140E" d="M391.128,306.741c-7.725,0-14.011-6.281-14.011-14.011c0-7.722,6.286-14.012,14.011-14.012
				c7.722,0,14.008,6.29,14.008,14.012C405.136,300.459,398.85,306.741,391.128,306.741z M391.128,284.42
				c-4.579,0-8.306,3.729-8.306,8.311c0,4.58,3.727,8.31,8.306,8.31c4.576,0,8.303-3.729,8.303-8.31
				C399.431,288.148,395.704,284.42,391.128,284.42z"/>
		</g>
	</g>
	<g>
		<path fill="#FDC381" d="M322.583,214.108c19.998,0,16.882-20.82,16.882-20.82c0-7.582-6.957-13.729-15.532-13.729
			c-8.579,0-16.464,6.147-16.464,13.729h-0.038c0-7.582-7.872-13.729-16.456-13.729c-8.578,0-16.918,6.147-16.918,13.729h-0.213
			c0-7.582-8.339-13.729-16.918-13.729c-8.576,0-16.449,6.147-16.449,13.729h-0.045c0-7.582-7.876-13.729-16.457-13.729
			c-8.579,0-16.342,6.147-16.342,13.729l0,0c0-7.582-6.96-13.729-15.54-13.729c-8.575,0-16.452,6.147-16.452,13.729h-0.045
			c0-7.582-7.876-13.729-16.452-13.729c-8.584,0-16.919,6.147-16.919,13.729h-0.209c0-7.582-8.338-13.729-16.918-13.729
			c-8.579,0-16.457,6.147-16.457,13.729h-0.04c0-7.582-7.877-13.729-16.456-13.729c-8.581,0-15.536,6.147-15.536,13.729
			l-1.224,0.008c0-19.998-20.816-16.882-20.816-16.882c-7.582,0-13.725,6.953-13.725,15.533c0,8.575,6.143,16.456,13.725,16.456
			v0.041c-7.582,0-13.725,7.876-13.725,16.457c0,8.58,6.143,16.922,13.725,16.922v0.208c-7.582,0-13.725,8.339-13.725,16.919
			c0,8.579,6.143,16.456,13.725,16.456v0.039c-7.582,0-13.725,7.878-13.725,16.457c0,8.58,6.143,16.351,13.725,16.351v-0.008
			c-7.582,0-13.725,6.96-13.725,15.532c0,8.58,6.143,16.465,13.725,16.465v0.04c-7.582,0-13.725,7.877-13.725,16.457
			c0,8.579,6.143,16.913,13.725,16.913v0.215c-7.582,0-13.725,8.341-13.725,16.922c0,8.579,6.143,16.447,13.725,16.447v0.041
			c-7.582,0-13.725,7.877-13.725,16.457s6.143,15.54,13.725,15.54c0,0,11.447,1.913,16.613-11.114h0.036
			c-0.012,7.582,7.855,13.74,16.436,13.749c8.581,0.016,16.931-6.118,16.939-13.701h0.212c-0.012,7.583,8.318,13.733,16.899,13.75
			c8.579,0.008,16.456-6.126,16.472-13.708h0.042c-0.009,7.582,7.859,13.74,16.436,13.749c8.579,0.016,16.362-6.118,16.371-13.7
			h-0.005c-0.013,7.582,6.936,13.733,15.521,13.749c8.575,0.009,16.465-6.127,16.472-13.709h0.042
			c-0.009,7.582,7.859,13.742,16.436,13.75c8.58,0.017,16.923-6.126,16.936-13.7h0.212c-0.009,7.582,8.318,13.732,16.898,13.749
			c8.579,0.008,16.46-6.126,16.473-13.7h0.04c-0.012,7.574,7.86,13.733,16.44,13.74c8.58,0.019,15.541-6.125,15.549-13.7
			l1.223-0.007c-0.023,19.997,20.796,16.906,20.796,16.906c7.582,0.016,13.736-6.928,13.749-15.508s-6.127-16.467-13.704-16.481
			v-0.041c7.577,0.017,13.737-7.86,13.749-16.438c0.014-8.572-6.127-16.924-13.703-16.932v-0.213
			c7.576,0.008,13.736-8.318,13.748-16.898c0.014-8.579-6.126-16.465-13.699-16.473v-0.041c7.573,0.01,13.732-7.867,13.745-16.439
			c0.013-8.579-6.126-16.366-13.705-16.366l0,0c7.579,0.009,13.741-6.937,13.751-15.517c0.012-8.58-6.123-16.465-13.705-16.473
			v-0.041c7.582,0.008,13.735-7.859,13.749-16.449c0.013-8.57-6.122-16.914-13.699-16.921v-0.212c7.577,0,14.28-8.338,13.749-16.906
			c-0.716-11.508-13.709-16.506-13.709-16.506"/>
		<path fill="#27140E" d="M321.14,448.403c-3.767,0-9.979-0.711-14.673-4.761c-1.968-1.7-3.456-3.785-4.467-6.23
			c-0.748,1.038-1.627,2.011-2.638,2.903c-3.451,3.042-8.011,4.719-12.841,4.719c-0.018,0-0.024,0-0.037,0
			c-4.789-0.009-9.618-1.718-13.241-4.688c-1.269-1.028-2.349-2.175-3.231-3.401c-3.427,4.785-9.594,8.041-16.451,8.041
			c-0.013,0-0.021,0-0.029,0c-4.8,0-9.695-1.702-13.435-4.646c-1.431-1.138-2.642-2.39-3.606-3.746
			c-3.514,4.906-9.962,8.351-16.976,8.351c-0.013,0-0.02,0-0.028,0c-4.793-0.007-9.619-1.709-13.242-4.687
			c-1.26-1.031-2.344-2.176-3.223-3.402c-3.436,4.776-9.599,8.04-16.46,8.04c-0.009,0-0.021,0-0.029,0
			c-6.593-0.009-12.379-3.156-15.622-7.878c-0.843,1.146-1.864,2.219-3.047,3.185c-3.599,2.959-8.404,4.652-13.18,4.652
			c-0.014,0-0.025,0-0.033,0c-4.793-0.008-9.619-1.719-13.242-4.68c-1.264-1.038-2.348-2.183-3.228-3.41
			c-3.431,4.777-9.594,8.04-16.451,8.04c-0.009,0-0.018,0-0.029,0c-4.801,0-9.696-1.692-13.434-4.646
			c-1.424-1.12-2.622-2.372-3.579-3.706c-0.961,1.334-2.164,2.577-3.586,3.697c-3.737,2.929-8.63,4.613-13.423,4.613
			c-0.009,0-0.016,0-0.024,0c-7.495-0.009-14.153-3.918-17.323-9.432c-5.095,6.323-12.146,7.354-15.99,6.789
			c-9.038-0.14-16.35-8.335-16.35-18.387c0-6.87,3.279-13.046,8.072-16.474c-4.793-3.427-8.072-9.603-8.072-16.473
			c0-7.051,3.472-13.52,8.416-17.029c-4.944-3.509-8.416-9.971-8.416-17.021c0-6.88,3.275-13.054,8.072-16.481
			c-4.797-3.427-8.072-9.602-8.072-16.48c0-6.592,3.148-12.383,7.86-15.622c-1.146-0.851-2.218-1.863-3.19-3.05
			c-2.966-3.601-4.67-8.418-4.67-13.201c0-6.879,3.279-13.047,8.072-16.473c-4.793-3.437-8.072-9.604-8.072-16.48
			c0-7.051,3.467-13.513,8.407-17.026c-4.94-3.505-8.407-9.975-8.407-17.024c0-6.875,3.279-13.046,8.072-16.478
			c-4.793-3.431-8.072-9.602-8.072-16.476c0-10.065,7.327-18.265,16.382-18.383c1.628-0.2,11.198-1.112,17.79,4.568
			c1.972,1.701,3.469,3.787,4.482,6.245c3.272-4.609,8.996-7.668,15.5-7.668c6.874,0,13.049,3.276,16.477,8.073
			c3.427-4.797,9.598-8.073,16.477-8.073c7.042,0,13.513,3.468,17.021,8.408c3.51-4.94,9.979-8.408,17.025-8.408
			c6.874,0,13.05,3.276,16.477,8.073c3.428-4.797,9.598-8.073,16.473-8.073c6.602,0,12.4,3.149,15.647,7.869
			c3.436-4.683,9.496-7.869,16.234-7.869c6.879,0,13.055,3.276,16.482,8.073c3.427-4.797,9.594-8.073,16.469-8.073
			c7.046,0,13.515,3.468,17.024,8.408c3.51-4.94,9.979-8.408,17.023-8.408c6.875,0,13.052,3.272,16.478,8.068
			c3.432-4.796,9.603-8.068,16.48-8.068c10.062,0,18.265,7.329,18.382,16.379c0.201,1.623,1.117,11.202-4.566,17.794
			c-1.681,1.955-3.742,3.435-6.172,4.449c4.132,2.993,8.888,8.032,9.35,15.52c0.327,5.268-1.691,10.768-5.411,14.719
			c-0.902,0.965-1.877,1.808-2.897,2.511c1.319,0.957,2.548,2.142,3.65,3.549c2.938,3.747,4.622,8.646,4.613,13.446
			c-0.009,6.872-3.287,13.046-8.085,16.465c1.223,0.885,2.363,1.973,3.398,3.239c2.957,3.631,4.649,8.466,4.642,13.258
			c-0.004,4.843-1.693,9.407-4.752,12.856c-0.949,1.072-1.996,1.996-3.113,2.766c1.139,0.852,2.202,1.865,3.166,3.043
			c2.966,3.607,4.663,8.425,4.658,13.209c-0.013,6.871-3.297,13.046-8.094,16.465c1.228,0.885,2.369,1.973,3.398,3.239
			c2.961,3.631,4.653,8.457,4.646,13.259c-0.009,7.025-3.469,13.471-8.393,16.979c1.35,0.967,2.604,2.177,3.733,3.615
			c2.937,3.746,4.621,8.646,4.612,13.447c-0.003,4.793-1.712,9.617-4.683,13.241c-1.035,1.269-2.18,2.347-3.401,3.229
			c4.783,3.437,8.048,9.61,8.039,16.481c-0.004,4.85-1.693,9.414-4.751,12.866c-3.102,3.5-7.231,5.445-11.651,5.496
			C323.786,448.29,322.661,448.403,321.14,448.403z M303.26,425.616c0.753,0,1.477,0.303,2.009,0.834
			c0.54,0.533,0.843,1.261,0.843,2.021c-0.005,4.857,1.364,8.506,4.082,10.854c5.028,4.343,13.363,3.246,13.445,3.229
			c0.14-0.016,0.236-0.058,0.427-0.032c0.003,0,0.012,0,0.012,0c2.834,0,5.516-1.269,7.562-3.573
			c2.132-2.405,3.31-5.627,3.316-9.088c0.008-7.246-5.066-13.61-10.854-13.617c-1.574,0-2.85-1.276-2.85-2.855
			c0-0.752,0.302-1.505,0.837-2.037c0.536-0.531,1.26-0.851,2.013-0.851c0.009-0.007,0.009-0.007,0.021,0
			c2.739,0,5.397-1.405,7.487-3.958c2.146-2.626,3.383-6.134,3.39-9.635c0.005-3.551-1.234-7.165-3.397-9.922
			c-2.104-2.684-4.756-4.155-7.46-4.162c-1.572,0-2.85-1.276-2.85-2.848c0-0.761,0.302-1.596,0.839-2.127
			c0.531-0.531,1.259-0.939,2.017-0.939l0,0c0.004,0,0.008,0,0.008,0c5.691,0,10.878-6.689,10.887-14.053
			c0.009-3.5-1.219-7.01-3.362-9.644c-2.086-2.562-4.738-3.967-7.486-3.976c-1.574,0-2.852-1.275-2.852-2.848
			c0-0.76,0.305-1.504,0.839-2.043c0.535-0.531,1.26-0.852,2.017-0.852l0,0h0.013c5.786,0,10.869-6.348,10.882-13.594
			c0.005-3.484-1.218-6.978-3.356-9.577c-2.037-2.479-4.63-3.869-7.325-3.927c-0.058,0-0.122-0.008-0.175,0
			c-1.574-0.008-2.848-1.285-2.848-2.854c0-1.578,1.276-2.854,2.851-2.854l0,0h0.005l0,0c0.004,0,0.009,0,0.017,0
			c2.83,0,5.514-1.268,7.559-3.573c2.134-2.412,3.315-5.636,3.315-9.087c0.009-3.502-1.219-7.019-3.36-9.651
			c-2.086-2.562-4.745-3.967-7.492-3.976c-1.575,0-2.848-1.274-2.848-2.846c0-0.762,0.3-1.506,0.836-2.037
			c0.534-0.539,1.26-0.858,2.016-0.858h0.004c0,0,0.004,0,0.009,0c5.79,0,10.879-6.347,10.886-13.595
			c0.006-3.541-1.233-7.155-3.397-9.912c-2.103-2.676-4.752-4.155-7.455-4.155c-1.574-0.009-2.851-1.284-2.851-2.854
			c0-0.752,0.303-1.591,0.834-2.126c0.535-0.531,1.265-0.94,2.021-0.94l0,0h0.007c2.459,0,4.953-1.21,7.022-3.415
			c2.658-2.826,4.105-6.735,3.873-10.457c-0.589-9.504-11.778-13.986-11.894-14.027c-0.156-0.066-0.302-0.139-0.445-0.221
			c-0.104,0-0.208,0-0.312,0c-1.578,0-2.854-1.276-2.854-2.85c0-1.574,1.274-2.851,2.854-2.851c4.854,0,8.502-1.382,10.842-4.098
			c4.338-5.035,3.23-13.369,3.218-13.451c-0.021-0.143-0.031-0.281-0.031-0.421c0-5.995-5.686-10.878-12.679-10.878
			c-7.251,0-13.609,5.083-13.609,10.878c0,1.57-1.276,2.851-2.854,2.851c-1.574,0-2.888-1.28-2.888-2.851
			c0-5.794-6.359-10.878-13.606-10.878c-7.36,0-14.062,5.185-14.062,10.878c0,1.57-1.275,2.851-2.855,2.851
			c-1.572,0-3.062-1.28-3.062-2.851c0-5.693-6.702-10.878-14.067-10.878c-7.243,0-13.599,5.083-13.599,10.878
			c0,1.57-1.275,2.851-2.851,2.851c-1.574,0-2.896-1.28-2.896-2.851c0-5.794-6.359-10.878-13.606-10.878
			c-7.189,0-13.495,5.083-13.495,10.878c0,1.57-1.275,2.851-2.847,2.851c-1.578,0-2.854-1.28-2.854-2.851
			c0-5.995-5.692-10.878-12.687-10.878c-7.246,0-13.601,5.083-13.601,10.878c0,1.57-1.276,2.851-2.852,2.851
			c-1.574,0-2.896-1.28-2.896-2.851c0-5.794-6.355-10.878-13.602-10.878c-7.365,0-14.068,5.185-14.068,10.878
			c0,1.57-1.276,2.851-2.851,2.851c-1.578,0-3.059-1.28-3.059-2.851c0-5.693-6.707-10.878-14.068-10.878
			c-7.246,0-13.602,5.083-13.602,10.878c0,1.57-1.28,2.851-2.855,2.851c-1.573,0-2.895-1.28-2.895-2.851
			c0-5.794-6.354-10.878-13.602-10.878c-6.993,0-12.687,4.883-12.687,10.878c0,1.562-1.259,2.838-2.83,2.851l-1.218,0.012
			c-0.811-0.106-1.493-0.294-2.03-0.83c-0.538-0.536-0.841-1.264-0.841-2.024c0-4.842-1.375-8.481-4.077-10.825
			c-5.067-4.388-13.402-3.251-13.477-3.234c-0.139,0.016-0.277,0.032-0.417,0.032c-5.994,0-10.869,5.685-10.869,12.678
			c0,7.246,5.079,13.605,10.869,13.605c1.575,0,2.855,1.276,2.855,2.851c0,1.579-1.28,2.891-2.855,2.891
			c-5.79,0-10.869,6.359-10.869,13.606c0,7.365,5.177,14.068,10.869,14.068c1.575,0,2.855,1.276,2.855,2.854
			c0,1.575-1.28,3.059-2.855,3.059c-5.692,0-10.869,6.708-10.869,14.069c0,7.244,5.079,13.607,10.869,13.607
			c1.575,0,2.855,1.268,2.855,2.848c0,1.578-1.28,2.896-2.855,2.896c-5.79,0-10.869,6.354-10.869,13.602
			c0,7.092,4.94,13.324,10.628,13.496c1.641-0.041,3.097,1.193,3.097,2.847c0,1.577-1.276,2.854-2.855,2.854l0,0v0.009
			c-0.003,0-0.008,0-0.008,0c-2.834,0-5.521,1.269-7.557,3.582c-2.136,2.414-3.305,5.637-3.305,9.088
			c0,7.254,5.079,13.617,10.869,13.617c1.575,0,2.855,1.27,2.855,2.848s-1.28,2.887-2.855,2.887c-5.79,0-10.869,6.363-10.869,13.609
			c0,7.361,5.177,14.061,10.869,14.061c1.575,0,2.855,1.275,2.855,2.854c0,1.57-1.28,3.067-2.855,3.067
			c-5.692,0-10.869,6.698-10.869,14.068c0,7.237,5.079,13.594,10.869,13.594c1.575,0,2.855,1.274,2.855,2.854
			c0,1.578-1.28,2.896-2.855,2.896c-5.79,0-10.869,6.354-10.869,13.602c0,6.994,4.875,12.688,10.869,12.688
			c0.156,0,0.315,0.016,0.471,0.04c0.356,0.058,9.279,1.276,13.492-9.349c0.711-1.8,3.324-2.33,4.686-0.974
			c0.531,0.539,0.851,1.269,0.851,2.021c-0.007,5.798,6.348,10.887,13.595,10.901c0,0,0.012,0,0.016,0
			c3.541,0,7.149-1.234,9.897-3.401c2.683-2.104,4.162-4.753,4.162-7.46c0-1.57,1.28-2.848,2.855-2.848
			c0.757,0,1.587,0.305,2.122,0.835c0.536,0.54,0.941,1.269,0.941,2.021c-0.005,2.708,1.468,5.366,4.142,7.468
			c2.749,2.176,6.363,3.42,9.909,3.427c0,0,0.013,0,0.021,0c7.234,0,13.585-5.07,13.598-10.853c0.003-1.579,1.279-2.847,2.85-2.847
			c0.761,0,1.506,0.294,2.041,0.834c0.536,0.53,0.854,1.26,0.854,2.02c-0.004,2.749,1.399,5.415,3.95,7.501
			c2.626,2.151,6.136,3.387,9.636,3.396c0.008,0,0.017,0,0.025,0c7.082,0,13.307-4.933,13.486-10.624c0-0.075,0-0.156,0-0.238
			c0-1.57,1.275-2.847,2.851-2.847h0.005c1.573,0,2.845,1.275,2.845,2.854l0,0h0.009c-0.009,2.838,1.259,5.529,3.57,7.573
			c2.409,2.135,5.639,3.312,9.092,3.319c0.008,0,0.016,0,0.023,0c7.239,0,13.59-5.069,13.599-10.859
			c0.003-1.571,1.279-2.847,2.85-2.847c0.761,0,1.506,0.302,2.041,0.842c0.536,0.532,0.855,1.26,0.855,2.021
			c-0.009,2.749,1.398,5.406,3.949,7.5c2.626,2.151,6.136,3.388,9.637,3.396c0.007,0,0.012,0,0.02,0
			c7.349,0,14.048-5.18,14.06-10.863c0.005-1.569,1.28-2.846,2.852-2.846c0.761,0,1.591,0.302,2.126,0.834
			c0.531,0.54,0.94,1.268,0.94,2.021c-0.004,2.708,1.464,5.357,4.139,7.477c2.753,2.168,6.363,3.41,9.905,3.419
			c0.008,0,0.018,0,0.023,0c7.233,0,13.59-5.062,13.598-10.854c0-1.568,1.275-2.846,2.852-2.846c0.758,0,1.506,0.304,2.037,0.835
			c0.535,0.539,0.857,1.268,0.857,2.02c-0.004,2.748,1.398,5.406,3.951,7.502c2.625,2.149,6.143,3.386,9.639,3.386
			c0,0,0.017,0,0.023,0c3.443,0,6.668-1.17,9.075-3.288c2.315-2.045,3.59-4.729,3.595-7.56c0.005-1.568,1.269-2.838,2.835-2.854
			l1.22-0.009C303.243,425.616,303.252,425.616,303.26,425.616z"/>
	</g>
	<g>
		<g>
			<path fill="#D9B262" d="M105.477,232.719c0,6.163-4.998,11.156-11.156,11.156c-6.163,0-11.157-4.993-11.157-11.156
				c0-6.167,4.994-11.156,11.157-11.156C100.479,221.563,105.477,226.552,105.477,232.719z"/>
			<path fill="#27140E" d="M94.32,246.726c-7.729,0-14.011-6.286-14.011-14.007c0-7.729,6.281-14.011,14.011-14.011
				c7.721,0,14.006,6.281,14.006,14.011C108.326,240.44,102.041,246.726,94.32,246.726z M94.32,224.41
				c-4.581,0-8.307,3.729-8.307,8.31c0,4.581,3.726,8.302,8.307,8.302c4.58,0,8.301-3.722,8.301-8.302
				C102.621,228.139,98.9,224.41,94.32,224.41z"/>
		</g>
		<g>
			<path fill="#D9B262" d="M196.646,232.719c0,6.163-4.993,11.161-11.161,11.161c-6.159,0-11.156-4.998-11.156-11.161
				c0-6.163,4.997-11.156,11.156-11.156C191.652,221.563,196.646,226.556,196.646,232.719z"/>
			<path fill="#27140E" d="M185.484,246.73c-7.722,0-14.003-6.281-14.003-14.011c0-7.721,6.281-14.002,14.003-14.002
				c7.729,0,14.011,6.282,14.011,14.002C199.495,240.449,193.214,246.73,185.484,246.73z M185.484,224.417
				c-4.576,0-8.302,3.722-8.302,8.302c0,4.581,3.726,8.31,8.302,8.31c4.58,0,8.311-3.729,8.311-8.31
				C193.795,228.139,190.064,224.417,185.484,224.417z"/>
		</g>
		<g>
			<path fill="#D9B262" d="M148.27,274.277c0,6.158-4.998,11.147-11.165,11.147c-6.158,0-11.151-4.989-11.151-11.147
				c0-6.168,4.993-11.155,11.151-11.155C143.271,263.122,148.27,268.109,148.27,274.277z"/>
			<path fill="#27140E" d="M137.104,288.281c-7.721,0-14.003-6.29-14.003-14.004c0-7.729,6.282-14.01,14.003-14.01
				c7.729,0,14.015,6.28,14.015,14.01C151.119,281.991,144.834,288.281,137.104,288.281z M137.104,265.975
				c-4.576,0-8.302,3.723-8.302,8.303c0,4.572,3.726,8.293,8.302,8.293c4.585,0,8.31-3.721,8.31-8.293
				C145.414,269.697,141.689,265.975,137.104,265.975z"/>
		</g>
		<g>
			<path fill="#D9B262" d="M107.071,314.96c0,6.167-4.998,11.156-11.156,11.156c-6.167,0-11.161-4.989-11.161-11.156
				c0-6.159,4.994-11.155,11.161-11.155C102.073,303.805,107.071,308.801,107.071,314.96z"/>
			<path fill="#27140E" d="M95.915,328.973c-7.73,0-14.012-6.291-14.012-14.013s6.281-14.011,14.012-14.011
				c7.721,0,14.006,6.29,14.006,14.011C109.921,322.682,103.636,328.973,95.915,328.973z M95.915,306.66
				c-4.581,0-8.311,3.72-8.311,8.301c0,4.58,3.729,8.303,8.311,8.303c4.579,0,8.301-3.723,8.301-8.303
				C104.216,310.379,100.494,306.66,95.915,306.66z"/>
		</g>
		<g>
			<path fill="#D9B262" d="M148.27,354.704c0,6.167-4.998,11.155-11.165,11.155c-6.158,0-11.151-4.988-11.151-11.155
				c0-6.168,4.993-11.157,11.151-11.157C143.271,343.546,148.27,348.536,148.27,354.704z"/>
			<path fill="#27140E" d="M137.104,368.707c-7.721,0-14.003-6.282-14.003-14.003c0-7.722,6.282-14.003,14.003-14.003
				c7.729,0,14.015,6.281,14.015,14.003C151.119,362.425,144.834,368.707,137.104,368.707z M137.104,346.4
				c-4.576,0-8.302,3.723-8.302,8.304c0,4.58,3.726,8.302,8.302,8.302c4.585,0,8.31-3.722,8.31-8.302
				C145.414,350.123,141.689,346.4,137.104,346.4z"/>
		</g>
		<g>
			<path fill="#D9B262" d="M198.547,396.564c0,6.158-4.993,11.156-11.156,11.156s-11.152-4.998-11.152-11.156
				s4.989-11.156,11.152-11.156S198.547,390.406,198.547,396.564z"/>
			<path fill="#27140E" d="M187.391,410.566c-7.722,0-14.003-6.281-14.003-14.002c0-7.722,6.281-14.004,14.003-14.004
				c7.725,0,14.011,6.282,14.011,14.004C201.402,404.285,195.115,410.566,187.391,410.566z M187.391,388.262
				c-4.576,0-8.303,3.723-8.303,8.303s3.727,8.301,8.303,8.301c4.579,0,8.306-3.721,8.306-8.301
				C195.696,391.984,191.97,388.262,187.391,388.262z"/>
		</g>
		<g>
			<path fill="#D9B262" d="M198.547,322.583c0,6.168-4.993,11.157-11.156,11.157c-6.167,0-11.156-4.989-11.156-11.157
				c0-6.159,4.989-11.147,11.156-11.147C193.554,311.436,198.547,316.424,198.547,322.583z"/>
			<path fill="#27140E" d="M187.391,336.594c-7.727,0-14.012-6.281-14.012-14.011c0-7.722,6.285-14.003,14.012-14.003
				c7.725,0,14.011,6.281,14.011,14.003C201.401,330.312,195.115,336.594,187.391,336.594z M187.391,314.282
				c-4.581,0-8.307,3.729-8.307,8.302c0,4.581,3.726,8.311,8.307,8.311c4.579,0,8.306-3.729,8.306-8.311
				C195.696,318.012,191.97,314.282,187.391,314.282z"/>
		</g>
		<g>
			<path fill="#D9B262" d="M256.107,360.732c0,6.166-4.994,11.146-11.162,11.146c-6.158,0-11.151-4.98-11.151-11.146
				c0-6.168,4.993-11.156,11.151-11.156C251.113,349.576,256.107,354.564,256.107,360.732z"/>
			<path fill="#27140E" d="M244.946,374.734c-7.721,0-14.002-6.281-14.002-14.002c0-7.723,6.281-14.004,14.002-14.004
				c7.729,0,14.012,6.281,14.012,14.004C258.958,368.453,252.676,374.734,244.946,374.734z M244.946,352.43
				c-4.576,0-8.301,3.721-8.301,8.303c0,4.57,3.725,8.301,8.301,8.301c4.581,0,8.311-3.729,8.311-8.301
				C253.257,356.15,249.527,352.43,244.946,352.43z"/>
		</g>
		<g>
			<path fill="#D9B262" d="M300.377,396.564c0,6.166-4.988,11.156-11.152,11.156c-6.162,0-11.151-4.99-11.151-11.156
				c0-6.158,4.989-11.156,11.151-11.156C295.389,385.408,300.377,390.406,300.377,396.564z"/>
			<path fill="#27140E" d="M289.225,410.566c-7.722,0-14.007-6.281-14.007-14.002c0-7.722,6.285-14.004,14.007-14.004
				c7.723,0,14.008,6.282,14.008,14.004C303.232,404.285,296.945,410.566,289.225,410.566z M289.225,388.262
				c-4.58,0-8.302,3.723-8.302,8.303s3.722,8.301,8.302,8.301s8.303-3.721,8.303-8.301
				C297.526,391.984,293.805,388.262,289.225,388.262z"/>
		</g>
		<g>
			<path fill="#D9B262" d="M300.385,322.591c0,6.167-4.992,11.149-11.16,11.149c-6.158,0-11.151-4.982-11.151-11.149
				s4.993-11.155,11.151-11.155C295.393,311.436,300.385,316.424,300.385,322.591z"/>
			<path fill="#27140E" d="M289.225,336.594c-7.722,0-14.002-6.281-14.002-14.003c0-7.721,6.28-14.011,14.002-14.011
				c7.727,0,14.012,6.29,14.012,14.011C303.235,330.312,296.95,336.594,289.225,336.594z M289.225,314.282
				c-4.576,0-8.298,3.729-8.298,8.31c0,4.581,3.722,8.303,8.298,8.303c4.58,0,8.307-3.722,8.307-8.303
				C297.53,318.012,293.805,314.282,289.225,314.282z"/>
		</g>
		<g>
			<path fill="#D9B262" d="M247.965,281.811c0,6.16-4.998,11.148-11.156,11.148c-6.167,0-11.156-4.989-11.156-11.148
				c0-6.168,4.989-11.156,11.156-11.156C242.967,270.654,247.965,275.643,247.965,281.811z"/>
			<path fill="#27140E" d="M236.809,295.812c-7.729,0-14.012-6.28-14.012-14.002c0-7.729,6.282-14.011,14.012-14.011
				c7.721,0,14.005,6.28,14.005,14.011C250.814,289.532,244.529,295.812,236.809,295.812z M236.809,273.509
				c-4.581,0-8.307,3.722-8.307,8.302c0,4.571,3.726,8.293,8.307,8.293c4.576,0,8.301-3.722,8.301-8.293
				C245.109,277.23,241.385,273.509,236.809,273.509z"/>
		</g>
		<g>
			<path fill="#D9B262" d="M294.182,232.719c0,6.163-4.988,11.156-11.152,11.156c-6.162,0-11.16-4.993-11.16-11.156
				c0-6.167,4.998-11.156,11.16-11.156C289.193,221.563,294.182,226.552,294.182,232.719z"/>
			<path fill="#27140E" d="M283.029,246.726c-7.725,0-14.012-6.286-14.012-14.007c0-7.721,6.287-14.002,14.012-14.002
				c7.721,0,14.006,6.282,14.006,14.002C297.035,240.44,290.75,246.726,283.029,246.726z M283.029,224.417
				c-4.586,0-8.312,3.722-8.312,8.302c0,4.581,3.726,8.302,8.312,8.302c4.576,0,8.301-3.722,8.301-8.302
				C291.33,228.139,287.605,224.417,283.029,224.417z"/>
		</g>
		<g>
			<path fill="#D9B262" d="M107.071,391.141c0,6.159-4.998,11.148-11.156,11.148c-6.167,0-11.161-4.989-11.161-11.148
				c0-6.166,4.994-11.156,11.161-11.156C102.073,379.984,107.071,384.975,107.071,391.141z"/>
			<path fill="#27140E" d="M95.915,405.145c-7.73,0-14.012-6.283-14.012-14.004c0-7.729,6.281-14.011,14.012-14.011
				c7.721,0,14.006,6.282,14.006,14.011C109.921,398.861,103.636,405.145,95.915,405.145z M95.915,382.831
				c-4.581,0-8.311,3.729-8.311,8.31c0,4.573,3.729,8.303,8.311,8.303c4.579,0,8.301-3.729,8.301-8.303
				C104.216,386.561,100.494,382.831,95.915,382.831z"/>
		</g>
	</g>
</g>
</svg>
