<?xml version="1.0" encoding="utf-8"?>
<!-- Generator: Adobe Illustrator 16.0.0, SVG Export Plug-In . SVG Version: 6.00 Build 0)  -->
<!DOCTYPE svg PUBLIC "-//W3C//DTD SVG 1.1//EN" "http://www.w3.org/Graphics/SVG/1.1/DTD/svg11.dtd">
<svg version="1.1" id="Layer_1" xmlns="http://www.w3.org/2000/svg" xmlns:xlink="http://www.w3.org/1999/xlink" x="0px" y="0px"
	 width="500px" height="500px" viewBox="0 0 500 500" enable-background="new 0 0 500 500" xml:space="preserve">
<g id="Layer_1_copy_43">
	<g>
		<g>
			<path fill="#4E4E4E" d="M457.918,283.982c0,50.104-92.286,90.729-206.123,90.729c-113.834,0-206.12-40.624-206.12-90.729
				c0-50.113,92.286-90.735,206.12-90.735C365.632,193.247,457.918,233.869,457.918,283.982z"/>
			<path fill="#3C2517" d="M251.795,377.165c-55.387,0-107.501-9.511-146.735-26.78c-39.879-17.553-61.84-41.134-61.84-66.402
				c0-25.27,21.961-48.854,61.84-66.407c39.234-17.273,91.345-26.785,146.735-26.785c55.39,0,107.501,9.512,146.738,26.785
				c39.879,17.555,61.839,41.139,61.839,66.407c0,25.27-21.96,48.851-61.839,66.402
				C359.296,367.654,307.185,377.165,251.795,377.165z M251.795,195.703c-112.3,0-203.663,39.604-203.663,88.279
				c0,48.672,91.363,88.271,203.663,88.271c112.302,0,203.665-39.599,203.665-88.271
				C455.46,235.307,364.097,195.703,251.795,195.703z"/>
		</g>
		<g>
			<path fill="#818181" d="M234.899,156.439c79.377-3.782,150.023,12.888,196.524,46.07c26.237,18.725,56.905,56.492,37.61,101.556
				c-3.657,8.539-8.547,17.957-15.044,25.388c-61.535,70.344-234.736,85.747-337.568,41.374
				c-35.307-15.24-64.939-35.562-78.042-64.883c-23.227-51.979,17.8-91.977,49.835-110.955
				c24.433-14.469,54.712-26.267,89.326-32.909C194.978,158.727,214.909,157.386,234.899,156.439z M178.479,199.691
				c-34.561,6.917-63.671,17.833-87.443,36.672c-9.182,7.284-23.547,23.883-23.508,39.487c0.043,18.406,14.34,31.238,26.331,40.432
				c62.167,47.707,190.48,56.711,275.503,24.453c26.026-9.881,70.52-32.241,70.52-64.885c0-18.789-15.012-33.09-29.145-43.253
				c-43.15-30.996-106.75-42.735-174.896-39.488C214.88,194.106,196.39,196.105,178.479,199.691z"/>
			<path fill="#3C2517" d="M252.943,398.241c-51.07,0-99.896-8.937-137.492-25.16c-41.487-17.909-67.43-39.54-79.318-66.136
				c-10.706-23.963-9.247-47.557,4.337-70.122c13.356-22.185,34.86-37.057,46.493-43.947c26.006-15.402,57.17-26.885,90.117-33.207
				c17.862-3.437,38.288-4.764,57.702-5.685c7.384-0.352,14.814-0.53,22.085-0.53c70.962,0,133.461,16.711,175.982,47.055
				c30.805,21.987,57.081,60.992,38.441,104.521c-4.727,11.037-9.782,19.553-15.45,26.039
				C419.598,372.501,341.849,398.241,252.943,398.241z M256.867,158.367c-7.191,0-14.544,0.176-21.853,0.524
				c-19.229,0.914-39.445,2.223-57.01,5.603c-32.398,6.216-63.013,17.492-88.537,32.607c-71.19,42.173-55.387,93.204-48.849,107.84
				c11.358,25.42,36.477,46.231,76.776,63.629c36.997,15.965,85.135,24.758,135.547,24.758c87.532,0,163.861-25.096,199.199-65.496
				c5.326-6.088,10.113-14.184,14.634-24.734c17.489-40.85-7.53-77.71-36.778-98.589
				C388.299,174.753,326.812,158.367,256.867,158.367z M254.877,362.261c-0.008,0,0,0-0.008,0
				c-65.831-0.004-126.583-16.464-162.509-44.032c-13.467-10.33-27.244-23.443-27.287-42.371
				c-0.046-17.398,15.965-34.7,24.437-41.421c22.396-17.747,50.514-29.555,88.487-37.153c17.345-3.473,35.688-5.58,57.73-6.63
				c7.312-0.348,14.63-0.523,21.753-0.523c64.345,0,117.832,13.995,154.687,40.475c20.306,14.59,30.173,29.392,30.173,45.245
				c0,35.926-50.425,58.952-72.105,67.182C337.078,355.611,297.186,362.261,254.877,362.261z M257.48,195.042
				c-7.042,0-14.285,0.173-21.521,0.519c-21.794,1.038-39.901,3.114-56.999,6.537c-37.183,7.442-64.637,18.943-86.4,36.188
				c-9.094,7.212-22.61,23.169-22.575,37.562c0.04,16.799,12.847,28.883,25.368,38.486c35.099,26.934,94.73,43.012,159.516,43.016
				h0.008c41.127,0,81.474-6.714,113.616-18.906c20.722-7.869,68.935-29.725,68.935-62.594c0-14.154-9.201-27.652-28.125-41.256
				C373.287,208.718,320.787,195.042,257.48,195.042z"/>
		</g>
	</g>
	<g>
		<path fill="#D8B367" d="M207.007,192.729c0,0-9.472-12.253,3.464-9.853c12.935,2.402,34.546,8.877,44.706,9.076
			c10.156,0.198,13.085,1.901,23.544,2.128c10.459,0.224,20.829,1.469,32.646,0.379c11.813-1.091,11.989,3.756,29.735,5.256
			c17.747,1.5,16.606,0.471,26.166,0.411c9.564-0.061,14.017-6.58,23.249-6.364c9.229,0.218,12.73,7.356,16.024,11.867
			c3.293,4.511,0.07-0.769,0.959,6.43c0.892,7.199,2.697,4.277,5.872,10.113c3.172,5.836,2.115,7.281-2.026,8.758
			c-4.143,1.477-10.316-5.254-4.237,2.544c6.077,7.798,7.479,6.328,6.504,11.814c-0.979,5.492-3.258,13.663-7.367,14.805
			c-4.112,1.142-5.173-4.138-5.25,3.535c-0.079,7.671-5.109,5.369-2.354,12.396c2.753,7.031-7.585,8.875-9.083,11.822
			c-1.499,2.946-3.082,6.811-2.134,9.979c0.942,3.172,1.393,5.062,1.199,7.199c-0.196,2.141-3.475,4.312-8.562,6.011
			c-5.088,1.696-3.196-2.142-8.64,3.534c-5.447,5.674-4.948,3.562-7.307,9.209c-2.361,5.639-7.393,6.729-9.729,5.285
			s4.355-14.099-4.755-1.974c-9.11,12.123-5.587,3.812-10.143,9.875c-4.556,6.065,1.253-0.196-8.029,3.591
			c-9.281,3.782-9.258,0.088-14.397,2.396c-5.145,2.313-1.861,3.534-7.253,5.204c-5.39,1.671-5.504,2.896-7.837,1.449
			c-2.337-1.439-8.509,2.006-15.261,1.707c-6.757-0.306-4.962-0.142-9.504-0.86c-4.537-0.718-18.247-4.317-17.919-8.296
			c0.333-3.98-7.958-32.58-12.357-38.525c-4.395-5.943-13.131-18.449-16.694-30.18c-3.563-11.727-22.781-18.575-18.508-32.898
			c4.278-14.323,3.639-20.544-0.093-28.898C207.906,203.299,207.007,192.729,207.007,192.729z"/>
		<path fill="#3C2517" d="M287.562,352.553c-0.299,0-0.603-0.007-0.908-0.021l-2.395-0.103c-3.375-0.145-3.429-0.146-5.683-0.515
			l-1.56-0.254c-0.195-0.027-19.459-3.466-18.953-9.604c0.312-3.758-7.965-32.078-12.118-37.701
			c-8.445-11.416-14.28-21.979-16.885-30.547c-1.334-4.381-5.025-8.072-8.939-11.976c-6.071-6.054-12.351-12.318-9.568-21.632
			c4.281-14.341,3.451-20.245-0.038-28.046c-3.433-7.68-4.507-17.002-4.699-18.962c-1.145-1.541-4.522-6.509-2.985-9.632
			c1.002-2.045,3.589-2.688,7.863-1.893c4.694,0.871,10.423,2.251,16.487,3.714c10.645,2.564,21.649,5.217,28.014,5.34
			c5.141,0.102,8.517,0.59,11.779,1.062c3.246,0.469,6.6,0.955,11.771,1.065c3.132,0.069,6.257,0.226,9.414,0.387
			c4.213,0.214,8.568,0.435,13.028,0.435c3.589,0,6.881-0.143,10.06-0.437c6.372-0.583,9.582,0.509,13.495,1.833
			c3.566,1.206,8.005,2.708,16.46,3.423c6.603,0.557,11.037,0.807,14.384,0.807c1.969,0,3.433-0.082,5.022-0.173
			c1.739-0.098,3.71-0.208,6.648-0.227c4.48-0.029,7.728-1.54,11.166-3.138c3.413-1.589,6.945-3.232,11.641-3.232l0.479,0.005
			c8.645,0.204,12.714,6.155,15.686,10.502c0.445,0.652,0.878,1.282,1.303,1.865c0.481,0.656,0.816,1.103,1.052,1.409
			c0.532,0.699,0.824,1.085,0.664,1.725l-0.136,0.569l-0.456,0.234c-0.068,0.253-0.187,1.04,0.062,3.066
			c0.468,3.778,1.085,4.309,2.205,5.272c0.896,0.767,2.115,1.819,3.524,4.409c1.877,3.45,2.38,5.541,1.741,7.214
			c-0.629,1.641-2.228,2.5-4.433,3.289c-1.279,0.453-2.917,0.286-4.27-0.132c0.183,0.235,0.375,0.492,0.589,0.76
			c1.857,2.387,3.278,3.896,4.315,4.998c2.54,2.698,3.176,3.582,2.427,7.788c-0.941,5.298-3.269,14.391-8.248,15.773
			c-1.69,0.465-3.325-0.037-4.221-0.44c-0.062,0.485-0.117,1.331-0.132,2.801c-0.035,3.913-1.312,5.604-2.24,6.838
			c-0.932,1.241-1.44,1.923-0.195,5.104c2.229,5.697-2.751,8.623-6.047,10.561c-1.291,0.756-2.759,1.619-3.086,2.266
			c-1.287,2.531-2.903,6.228-2.052,9.07c1.023,3.447,1.448,5.37,1.245,7.66c-0.307,3.346-5.276,5.689-9.396,7.066
			c-1.794,0.596-3.261,0.57-4.202,0.4c-0.159-0.035-0.311-0.065-0.459-0.065c-0.489,0-1.596,0.917-3.482,2.883
			c-1.776,1.854-2.925,2.882-3.76,3.635c-1.634,1.462-1.802,1.615-3.301,5.195c-2.043,4.886-5.909,6.62-8.601,6.62
			c-1.096,0-2.102-0.266-2.903-0.762c-1.484-0.918-1.186-3.162-0.777-5.289c-0.578,0.697-1.341,1.67-2.352,3.012
			c-5.27,7.013-6.604,7.617-8.04,7.748c-0.2,0.018-0.542,0.047-2.103,2.125c-0.787,1.049-1.263,1.727-1.556,2.145
			c-0.484,0.692-0.805,1.145-1.512,1.145l-0.617,0.005l-0.425-0.523c-0.019,0.007-0.094,0-0.192,0c-0.467,0-1.645,0.155-4.245,1.216
			c-3.188,1.303-5.712,1.907-7.939,1.907c-0.782,0-1.448-0.069-2.076-0.135c-1.144-0.117-1.924-0.478-4.342,0.61
			c-2.123,0.957-2.516,1.594-2.931,2.27c-0.713,1.163-1.451,2.055-4.461,2.988c-1.714,0.531-2.895,1.021-3.758,1.382
			c-2.004,0.833-3.1,1.17-5.09-0.062c-0.128-0.08-0.39-0.172-0.909-0.172c-1.035,0-2.509,0.356-4.214,0.764
			C293.771,351.826,290.743,352.553,287.562,352.553z M207.521,183.791c-0.941,0-2.137,0.148-2.483,0.854
			c-0.724,1.464,1.331,5.242,2.943,7.333l0.221,0.287l0.029,0.36c0.011,0.104,0.927,10.468,4.526,18.527
			c3.75,8.379,4.655,14.661,0.15,29.748c-2.361,7.912,3.135,13.391,8.95,19.196c3.953,3.945,8.045,8.026,9.558,12.996
			c2.525,8.309,8.229,18.613,16.506,29.809c4.569,6.18,12.952,35.011,12.593,39.354c-0.187,2.269,10.396,5.954,16.889,6.979
			l1.572,0.254c2.133,0.352,2.133,0.352,5.395,0.49l2.396,0.103c3.199,0.14,6.217-0.593,8.864-1.226
			c3.107-0.748,5.533-1.197,6.988-0.297c0.648,0.4,0.928,0.461,1.113,0.461c0.359,0,0.908-0.233,1.743-0.58
			c0.906-0.377,2.15-0.896,3.971-1.459c2.361-0.731,2.673-1.234,3.094-1.927c0.659-1.071,1.416-2.055,4.021-3.225
			c2.065-0.927,3.746-1.019,5.611-0.813c0.549,0.062,1.127,0.123,1.812,0.123c1.193,0,3.221-0.176,7.013-1.724
			c3.051-1.243,5.037-1.599,6.121-1.279c0.304-0.435,0.746-1.051,1.392-1.911c1.908-2.539,2.697-2.992,3.851-3.096
			c0.382-0.031,1.283-0.111,6.293-6.779c3.991-5.313,4.808-5.695,5.679-5.695h0.581l0.532,0.523
			c0.599,0.729,0.389,1.784,0.047,3.527c-0.189,0.957-0.579,2.943-0.336,3.429c0.289,0.138,0.862,0.279,1.49,0.279
			c1.938,0,4.76-1.343,6.335-5.113c1.662-3.978,2.026-4.372,3.926-6.077c0.81-0.725,1.916-1.721,3.631-3.507
			c3.293-3.428,4.346-3.874,6.154-3.532c0.631,0.11,1.615,0.141,2.984-0.317c5.536-1.847,7.62-3.824,7.725-4.953
			c0.168-1.89-0.219-3.604-1.155-6.736c-1.1-3.686,0.738-7.979,2.219-10.887c0.656-1.291,2.219-2.208,4.03-3.272
			c3.91-2.291,6.368-4.06,5.005-7.543c-1.627-4.146-0.849-5.652,0.521-7.479c0.844-1.12,1.718-2.279,1.749-5.385
			c0.028-2.935,0.054-5.469,2.086-5.469c0.5,0,0.934,0.194,1.393,0.4c0.717,0.324,1.627,0.66,2.672,0.363
			c2.611-0.725,5.099-6.027,6.485-13.833c0.562-3.17,0.428-3.311-1.799-5.676c-1.068-1.134-2.531-2.693-4.467-5.169
			c-2.686-3.45-3.124-4.134-2.668-5.076l0.339-0.688l0.907-0.064c0.463,0,0.92,0.192,1.676,0.514c1.284,0.55,3.309,1.306,4.545,0.86
			c1.853-0.66,2.708-1.199,2.957-1.855c0.336-0.87-0.188-2.561-1.602-5.158c-1.191-2.198-2.134-3.004-2.965-3.721
			c-1.526-1.309-2.486-2.34-3.043-6.831c-0.281-2.26-0.225-3.7,0.215-4.58c-0.229-0.304-0.539-0.716-0.95-1.276
			c-0.438-0.604-0.884-1.255-1.344-1.93c-2.972-4.34-6.333-9.259-13.717-9.432l-0.421-0.005c-4.148,0-7.284,1.458-10.605,3.002
			c-3.524,1.639-7.171,3.335-12.186,3.368c-2.875,0.018-4.73,0.122-6.521,0.223c-1.642,0.093-3.143,0.177-5.165,0.177
			c-3.418,0-7.917-0.252-14.591-0.817c-8.754-0.738-13.345-2.292-17.041-3.542c-3.831-1.296-6.688-2.254-12.479-1.712
			c-3.257,0.3-6.621,0.446-10.288,0.446c-4.52,0-8.91-0.224-13.151-0.438c-3.134-0.16-6.236-0.317-9.345-0.385
			c-5.321-0.114-8.754-0.612-12.066-1.092c-3.339-0.481-6.493-0.938-11.477-1.035c-6.628-0.13-17.77-2.814-28.543-5.41
			c-6.031-1.454-11.729-2.827-16.358-3.687C209.208,183.891,208.288,183.791,207.521,183.791z"/>
	</g>
	<g>
		<path fill="#E5C37F" d="M197.347,184.949c0,0-9.475-12.257,3.46-9.855c12.939,2.403,34.55,8.877,44.702,9.075
			c10.156,0.198,13.087,1.903,23.548,2.128c10.465,0.225,20.83,1.47,32.646,0.38c11.814-1.092,11.994,3.756,29.737,5.256
			s16.605,0.473,26.166,0.412c9.563-0.062,14.732,0.713,23.966,0.931c9.229,0.218,12.018,0.061,15.308,4.57
			c3.292,4.509,0.071-0.769,0.963,6.43c0.889,7.197,2.696,4.279,5.868,10.115s2.116,7.281-2.026,8.758
			c-4.142,1.473-10.312-5.258-4.233,2.54s7.478,6.329,6.499,11.818c-0.975,5.487-3.257,13.659-7.362,14.8
			c-4.113,1.143-5.18-4.137-5.254,3.535c-0.079,7.674-5.109,5.37-2.355,12.396c2.759,7.035-7.584,8.876-9.081,11.822
			c-1.503,2.945-3.082,6.813-2.138,9.978c0.949,3.172,1.396,5.062,1.198,7.203c-0.189,2.142-3.467,4.31-8.558,6.007
			c-5.084,1.702-3.196-2.137-8.641,3.536c-5.448,5.676-4.948,3.562-7.31,9.207c-2.358,5.644-7.389,6.729-9.726,5.286
			c-2.334-1.445,4.359-14.094-4.756-1.969c-9.109,12.123-5.582,3.807-10.138,9.869c-4.556,6.065,1.248-0.195-8.033,3.59
			c-9.283,3.784-9.258,0.094-14.397,2.4c-5.142,2.312-1.858,3.531-7.253,5.201c-5.394,1.674-5.5,2.896-7.838,1.451
			c-2.337-1.443-8.504,2.006-15.261,1.703c-6.757-0.301-4.963-0.142-9.5-0.858c-4.538-0.72-11.315-0.095-10.987-4.075
			c0.328-3.979-14.896-36.798-19.288-42.744c-4.396-5.947-13.132-18.453-16.695-30.181c-3.567-11.729-22.784-18.578-18.508-32.897
			c4.274-14.323,3.639-20.548-0.092-28.899C198.242,195.519,197.347,184.949,197.347,184.949z"/>
		<path fill="#3C2517" d="M277.904,344.773c-0.305,0-0.607-0.006-0.91-0.021l-2.395-0.104c-3.379-0.144-3.433-0.149-5.686-0.514
			l-1.561-0.255c-1.006-0.159-2.119-0.25-3.242-0.343c-2.008-0.164-4.092-0.334-5.693-0.893c-2.754-0.959-3.193-2.789-3.082-4.155
			c0.271-3.253-14.512-35.765-19.054-41.914c-8.443-11.423-14.279-21.987-16.883-30.552c-1.332-4.381-5.027-8.069-8.94-11.977
			c-6.071-6.053-12.35-12.318-9.567-21.628c4.28-14.348,3.449-20.248-0.035-28.048c-3.436-7.679-4.506-17-4.702-18.962
			c-1.142-1.541-4.521-6.508-2.986-9.632c1.007-2.042,3.585-2.684,7.863-1.892c4.694,0.872,10.428,2.252,16.495,3.715
			c10.645,2.564,21.646,5.215,28.006,5.34c5.138,0.1,8.516,0.589,11.783,1.062c3.238,0.469,6.593,0.955,11.766,1.066
			c3.139,0.066,6.268,0.225,9.425,0.385c4.209,0.214,8.563,0.436,13.021,0.436c3.59,0,6.883-0.143,10.061-0.437
			c6.361-0.585,9.582,0.506,13.495,1.833c3.568,1.206,8.006,2.708,16.46,3.423c6.603,0.559,11.037,0.808,14.384,0.808
			c1.969,0,3.432-0.083,5.026-0.173c1.74-0.098,3.71-0.208,6.646-0.228l1.073-0.004c5.033,0,8.817,0.229,12.824,0.471
			c3.063,0.182,6.23,0.373,10.103,0.464l1.26,0.03c8.384,0.185,11.52,0.257,15.015,5.044c0.476,0.655,0.813,1.099,1.046,1.408
			c0.535,0.699,0.827,1.084,0.671,1.723l-0.139,0.571l-0.457,0.233c-0.068,0.252-0.187,1.042,0.063,3.068
			c0.468,3.776,1.084,4.307,2.207,5.271c0.894,0.769,2.113,1.817,3.522,4.408c1.876,3.449,2.378,5.54,1.74,7.213
			c-0.632,1.645-2.228,2.504-4.432,3.289c-1.281,0.453-2.915,0.285-4.271-0.128c0.187,0.235,0.379,0.489,0.589,0.76
			c1.857,2.383,3.279,3.892,4.315,4.995c2.54,2.7,3.172,3.581,2.427,7.791c-0.941,5.294-3.261,14.385-8.244,15.772
			c-1.698,0.47-3.332-0.044-4.225-0.438c-0.061,0.48-0.117,1.326-0.132,2.799c-0.04,3.91-1.312,5.604-2.239,6.84
			c-0.933,1.236-1.444,1.922-0.196,5.101c2.231,5.701-2.75,8.626-6.044,10.56c-1.294,0.761-2.76,1.619-3.092,2.267
			c-1.287,2.532-2.9,6.226-2.052,9.069c1.03,3.447,1.455,5.371,1.245,7.662c-0.3,3.348-5.272,5.688-9.394,7.065
			c-1.795,0.599-3.268,0.569-4.199,0.401c-0.167-0.027-0.312-0.063-0.467-0.063c-0.485,0-1.591,0.913-3.479,2.882
			c-1.778,1.854-2.926,2.879-3.764,3.633c-1.63,1.465-1.801,1.619-3.296,5.196c-2.041,4.884-5.907,6.619-8.598,6.619
			c-1.099,0-2.102-0.267-2.903-0.765c-1.487-0.916-1.185-3.16-0.777-5.287c-0.578,0.697-1.345,1.67-2.354,3.015
			c-5.271,7.011-6.604,7.619-8.037,7.748c-0.203,0.019-0.543,0.046-2.103,2.122c-0.792,1.05-1.263,1.727-1.56,2.146
			c-0.484,0.69-0.802,1.147-1.516,1.147h-0.609l-0.425-0.522c-0.021,0-0.094-0.002-0.192-0.002c-0.471,0-1.646,0.16-4.248,1.221
			c-3.187,1.298-5.712,1.908-7.938,1.908c-0.785,0-1.449-0.071-2.076-0.14c-1.144-0.124-1.924-0.478-4.346,0.614
			c-2.123,0.952-2.516,1.59-2.93,2.266c-0.714,1.162-1.452,2.055-4.463,2.987c-1.712,0.532-2.893,1.021-3.753,1.382
			c-2.004,0.833-3.101,1.174-5.094-0.059c-0.13-0.078-0.386-0.17-0.91-0.17c-1.037,0-2.508,0.353-4.209,0.763
			C284.111,344.045,281.082,344.773,277.904,344.773z M197.857,176.011c-0.942,0-2.138,0.148-2.483,0.851
			c-0.722,1.464,1.33,5.244,2.942,7.337l0.222,0.285l0.032,0.361c0.007,0.105,0.927,10.468,4.526,18.525
			c3.742,8.376,4.652,14.662,0.146,29.751c-2.357,7.913,3.133,13.387,8.95,19.197c3.956,3.94,8.045,8.024,9.557,12.994
			c2.522,8.297,8.23,18.604,16.511,29.806c4.074,5.515,19.909,38.897,19.527,43.577c-0.051,0.559,0.025,1.144,1.438,1.631
			c1.31,0.457,3.229,0.613,5.092,0.768c1.184,0.098,2.359,0.191,3.424,0.36l1.57,0.256c2.133,0.349,2.133,0.349,5.394,0.485
			l2.399,0.107c3.207,0.139,6.215-0.594,8.862-1.229c3.11-0.749,5.532-1.201,6.987-0.292c0.648,0.399,0.928,0.454,1.113,0.454
			c0.359,0,0.91-0.229,1.744-0.574c0.905-0.379,2.15-0.9,3.971-1.464c2.36-0.732,2.672-1.23,3.096-1.927
			c0.661-1.07,1.417-2.051,4.018-3.221c2.065-0.932,3.754-1.019,5.614-0.814c0.547,0.059,1.128,0.123,1.813,0.123
			c1.19,0,3.218-0.18,7.013-1.726c3.047-1.245,5.037-1.59,6.118-1.28c0.303-0.436,0.746-1.047,1.395-1.912
			c1.905-2.535,2.693-2.987,3.847-3.092c0.382-0.035,1.284-0.115,6.293-6.777c3.995-5.315,4.809-5.698,5.679-5.698h0.582
			l0.531,0.522c0.6,0.73,0.393,1.783,0.05,3.525c-0.188,0.957-0.581,2.944-0.335,3.43c0.285,0.137,0.859,0.278,1.491,0.278
			c1.934,0,4.755-1.342,6.332-5.112c1.661-3.978,2.021-4.373,3.92-6.074c0.811-0.728,1.915-1.721,3.632-3.508
			c3.3-3.435,4.359-3.865,6.157-3.535c0.632,0.11,1.611,0.146,2.981-0.313c5.54-1.847,7.623-3.823,7.728-4.955
			c0.172-1.891-0.219-3.606-1.155-6.737c-1.1-3.691,0.738-7.984,2.219-10.888c0.656-1.289,2.223-2.204,4.03-3.272
			c3.91-2.291,6.372-4.059,5.002-7.539c-1.623-4.149-0.849-5.655,0.524-7.479c0.841-1.119,1.715-2.279,1.747-5.388
			c0.028-2.935,0.055-5.468,2.087-5.468c0.5,0,0.935,0.198,1.392,0.405c0.717,0.32,1.634,0.648,2.672,0.363
			c2.615-0.728,5.099-6.029,6.485-13.834c0.562-3.172,0.428-3.314-1.797-5.679c-1.071-1.138-2.533-2.693-4.464-5.169
			c-2.687-3.446-3.129-4.135-2.669-5.073l0.335-0.688l0.906-0.064c0.467,0,0.925,0.192,1.677,0.514
			c1.285,0.546,3.301,1.298,4.542,0.856c1.854-0.66,2.711-1.195,2.965-1.851c0.331-0.874-0.189-2.561-1.605-5.162
			c-1.191-2.194-2.133-3.003-2.965-3.717c-1.522-1.311-2.485-2.343-3.042-6.831c-0.278-2.26-0.229-3.7,0.218-4.581
			c-0.231-0.305-0.543-0.715-0.953-1.277c-2.778-3.807-4.962-3.857-13.082-4.037l-1.263-0.028c-3.916-0.093-7.105-0.286-10.19-0.471
			c-3.972-0.241-7.721-0.465-12.679-0.465l-1.06,0.003c-2.875,0.018-4.73,0.123-6.521,0.225c-1.637,0.091-3.143,0.177-5.165,0.177
			c-3.418,0-7.917-0.253-14.59-0.817c-8.752-0.738-13.347-2.296-17.038-3.544c-3.836-1.297-6.692-2.255-12.481-1.712
			c-3.258,0.299-6.621,0.446-10.289,0.446c-4.52,0-8.903-0.223-13.146-0.438c-3.136-0.159-6.237-0.316-9.351-0.382
			c-5.322-0.116-8.754-0.612-12.071-1.092c-3.336-0.483-6.485-0.939-11.473-1.036c-6.627-0.13-17.765-2.813-28.538-5.408
			c-6.032-1.456-11.733-2.829-16.367-3.688C199.541,176.109,198.624,176.011,197.857,176.011z"/>
	</g>
	<g opacity="0.49">
		<path fill="#D2AA62" d="M253.238,233.798c0,0,12.283,33.259,12.896,37.558c0.612,4.299,20.323,6.449,22.901,6.449
			c2.583,0,11.43-6.758,16.678-9.212c5.247-2.458,20.205-5.643,26.237-10.806c6.027-5.162,10.635-7.15,10.635-16.288
			c0-9.139-2.08-16.702-5.352-15.407c-3.269,1.295-0.874,1.353-5.283,10.26c-4.408,8.904-17.875,13.474-24.809,16.562
			c-6.927,3.09-12.514,2.977-18.011,4.873c-5.497,1.9-19.62-7.873-22.997-13.733c-3.38-5.858-1.91-12.979-5.103-15.408
			C257.846,226.221,251.705,223.563,253.238,233.798z"/>
	</g>
	<g opacity="0.49">
		<path fill="#D2AA62" d="M349.539,262.756c0,0-2.654,7.984,4.256,5.837c6.906-2.149,8.779-3.991,13.677-13.202
			c4.898-9.211,19.742-12.339,16.771-26.745c-2.967-14.401-1.079-20.056-6.479-21.68c-5.394-1.625-17.12-4.545-16.576,1.958
			c0.537,6.501,3.421,13.519,3.616,18.477c0.195,4.959-0.682,6.118-3.616,12.136C358.247,245.563,354.954,259.072,349.539,262.756z"
			/>
	</g>
	<g opacity="0.49">
		<path fill="#D2AA62" d="M221.922,193.546c0,0,3.067,16.758,6.14,32.546c3.071,15.789,6.756,35.229,9.518,39.477
			c2.765,4.252,24.564,30.045,26.404,37.41c1.845,7.369-3.639,18.422,3.859,19.649c7.504,1.229,11.131,0.612,21.29-3.067
			c10.159-3.686,26.396-7.678,37.007-19.344c10.613-11.669,9.079-27.939,2.323-18.728c-6.757,9.21-26.673,16.577-32.526,20.569
			c-5.854,3.991-18.137,12.586-21.205,6.14c-3.07-6.446-14.434-21.185-18.114-26.097c-3.685-4.912,0-14.74-6.757-21.187
			c-6.752-6.449-11.664-25.991-13.202-28.963c-1.533-2.971,0.863-9.314-3.714-19.958
			C228.368,201.35,225.301,182.978,221.922,193.546z"/>
	</g>
	<g>
		<path fill="#D8B367" d="M118.805,191.667c0,0-9.475-12.255,3.46-9.853c12.936,2.403,34.55,8.879,44.703,9.078
			c10.156,0.196,13.085,1.901,23.547,2.125c10.464,0.225,20.833,1.47,32.645,0.38s11.994,3.756,29.736,5.256
			c17.744,1.5,16.606,0.471,26.166,0.412c9.564-0.062,14.021-6.582,23.249-6.366c9.229,0.217,12.731,7.357,16.024,11.866
			c3.292,4.509,0.071-0.77,0.963,6.432c0.889,7.195,2.693,4.277,5.868,10.113c3.172,5.836,2.116,7.281-2.025,8.758
			c-4.143,1.473-10.316-5.258-4.237,2.544c6.078,7.798,7.478,6.325,6.504,11.812c-0.976,5.489-3.259,13.663-7.368,14.803
			c-4.108,1.143-5.176-4.139-5.251,3.539c-0.078,7.67-5.108,5.365-2.354,12.396c2.758,7.032-7.585,8.873-9.082,11.819
			c-1.503,2.945-3.083,6.812-2.137,9.98c0.948,3.17,1.396,5.059,1.197,7.197c-0.188,2.143-3.47,4.314-8.558,6.012
			c-5.084,1.699-3.196-2.14-8.641,3.535c-5.447,5.672-4.947,3.561-7.311,9.203c-2.357,5.646-7.387,6.732-9.725,5.288
			c-2.337-1.445,4.355-14.099-4.752-1.97c-9.113,12.121-5.59,3.81-10.142,9.871c-4.556,6.062,1.249-0.195-8.033,3.588
			c-9.283,3.785-9.258,0.093-14.397,2.402c-5.142,2.312-1.859,3.53-7.253,5.2c-5.394,1.672-5.504,2.896-7.838,1.451
			c-2.337-1.445-8.504,2.004-15.261,1.705c-6.757-0.304-4.966-0.14-9.5-0.859c-4.537-0.722-18.246-4.319-17.918-8.295
			c0.324-3.979-7.966-32.579-12.357-38.526c-4.396-5.945-13.132-18.449-16.695-30.184c-3.567-11.727-22.784-18.575-18.508-32.894
			c4.274-14.323,3.639-20.548-0.092-28.899C119.7,202.238,118.805,191.667,118.805,191.667z"/>
		<path fill="#3C2517" d="M199.362,351.495c-0.3,0-0.606-0.009-0.91-0.021l-2.394-0.105c-3.379-0.141-3.432-0.145-5.686-0.514
			l-1.56-0.252c-0.196-0.033-19.46-3.476-18.949-9.611c0.307-3.752-7.973-32.076-12.126-37.695
			c-8.44-11.423-14.276-21.984-16.88-30.551c-1.33-4.381-5.027-8.068-8.939-11.973c-6.072-6.058-12.351-12.32-9.568-21.631
			c4.28-14.348,3.449-20.248-0.039-28.05c-3.432-7.678-4.502-17-4.698-18.96c-1.145-1.541-4.52-6.508-2.989-9.629
			c1.01-2.046,3.592-2.688,7.866-1.895c4.698,0.872,10.434,2.254,16.506,3.717c10.638,2.565,21.636,5.215,27.996,5.339
			c5.138,0.1,8.512,0.588,11.779,1.061c3.243,0.469,6.596,0.955,11.769,1.065c3.133,0.069,6.261,0.227,9.418,0.387
			c4.213,0.214,8.568,0.436,13.031,0.436c3.588,0,6.878-0.143,10.057-0.437c6.367-0.589,9.578,0.506,13.494,1.833
			c3.568,1.208,8.009,2.708,16.46,3.423c6.6,0.559,11.037,0.806,14.384,0.806c1.966,0,3.429-0.082,5.022-0.173
			c1.736-0.096,3.71-0.209,6.65-0.227c4.479-0.028,7.729-1.539,11.166-3.139c3.416-1.587,6.947-3.23,11.639-3.23l0.479,0.006
			c8.646,0.203,12.714,6.159,15.687,10.505c0.445,0.653,0.878,1.281,1.306,1.864c0.475,0.656,0.812,1.101,1.049,1.408
			c0.531,0.699,0.824,1.084,0.667,1.725l-0.144,0.569l-0.452,0.233c-0.068,0.252-0.187,1.042,0.063,3.068
			c0.468,3.778,1.084,4.306,2.204,5.269c0.893,0.767,2.116,1.819,3.525,4.409c1.876,3.449,2.379,5.54,1.74,7.213
			c-0.632,1.645-2.228,2.504-4.432,3.289c-1.284,0.453-2.914,0.286-4.271-0.128c0.184,0.236,0.379,0.489,0.589,0.76
			c1.862,2.387,3.282,3.896,4.317,4.998c2.538,2.698,3.174,3.578,2.426,7.787c-0.942,5.294-3.266,14.389-8.248,15.775
			c-1.695,0.465-3.328-0.043-4.226-0.441c-0.057,0.48-0.112,1.326-0.128,2.801c-0.039,3.91-1.312,5.604-2.238,6.838
			c-0.934,1.238-1.445,1.923-0.197,5.104c2.232,5.698-2.75,8.625-6.047,10.558c-1.291,0.762-2.757,1.618-3.088,2.266
			c-1.289,2.534-2.9,6.226-2.053,9.073c1.03,3.443,1.455,5.367,1.245,7.661c-0.3,3.347-5.272,5.688-9.394,7.063
			c-1.795,0.598-3.268,0.57-4.198,0.402c-0.168-0.031-0.313-0.064-0.468-0.064c-0.485,0-1.592,0.914-3.479,2.883
			c-1.779,1.855-2.925,2.883-3.764,3.636c-1.631,1.463-1.803,1.617-3.297,5.194c-2.04,4.884-5.906,6.617-8.598,6.617
			c-1.099,0-2.101-0.265-2.906-0.765c-1.484-0.913-1.182-3.161-0.774-5.282c-0.581,0.699-1.342,1.664-2.353,3.012
			c-5.271,7.01-6.604,7.619-8.039,7.748c-0.207,0.017-0.542,0.045-2.102,2.125c-0.791,1.047-1.264,1.724-1.56,2.141
			c-0.485,0.691-0.806,1.15-1.516,1.15h-0.61l-0.425-0.521c-0.028,0-0.093,0-0.192,0c-0.471,0-1.647,0.157-4.245,1.215
			c-3.192,1.303-5.715,1.91-7.944,1.91c-0.781,0-1.444-0.07-2.072-0.139c-1.142-0.127-1.916-0.477-4.35,0.611
			c-2.118,0.957-2.511,1.592-2.925,2.266c-0.714,1.162-1.447,2.06-4.463,2.99c-1.712,0.529-2.893,1.023-3.756,1.379
			c-2.005,0.836-3.104,1.175-5.091-0.057c-0.128-0.076-0.39-0.17-0.91-0.17c-1.037,0-2.508,0.352-4.209,0.764
			C205.565,350.768,202.541,351.495,199.362,351.495z M119.312,182.731c-0.938,0-2.134,0.148-2.479,0.851
			c-0.72,1.466,1.33,5.244,2.942,7.334l0.222,0.287l0.032,0.361c0.007,0.103,0.924,10.468,4.527,18.527
			c3.742,8.374,4.651,14.66,0.15,29.75c-2.362,7.912,3.131,13.388,8.945,19.196c3.956,3.941,8.045,8.025,9.557,12.995
			c2.523,8.302,8.23,18.604,16.511,29.805c4.565,6.185,12.949,35.011,12.593,39.358c-0.189,2.262,10.391,5.951,16.888,6.98
			l1.573,0.256c2.129,0.344,2.129,0.344,5.39,0.482l2.4,0.107c3.157,0.137,6.211-0.592,8.865-1.228
			c3.104-0.746,5.529-1.198,6.984-0.292c0.65,0.398,0.928,0.452,1.114,0.452c0.359,0,0.912-0.228,1.744-0.574
			c0.905-0.379,2.147-0.896,3.97-1.46c2.365-0.732,2.672-1.234,3.101-1.929c0.656-1.07,1.412-2.054,4.013-3.222
			c2.065-0.929,3.756-1.017,5.615-0.814c0.546,0.061,1.128,0.122,1.809,0.122c1.195,0,3.222-0.179,7.014-1.724
			c3.05-1.244,5.048-1.588,6.121-1.279c0.308-0.432,0.746-1.051,1.392-1.912c1.908-2.536,2.696-2.99,3.845-3.094
			c0.386-0.031,1.289-0.113,6.301-6.776c3.992-5.317,4.808-5.702,5.676-5.702h0.581l0.531,0.524c0.6,0.731,0.393,1.784,0.051,3.528
			c-0.188,0.957-0.582,2.941-0.34,3.429c0.289,0.135,0.862,0.276,1.495,0.276c1.933,0,4.756-1.34,6.332-5.109
			c1.662-3.979,2.021-4.371,3.92-6.076c0.811-0.729,1.92-1.719,3.632-3.506c3.3-3.438,4.378-3.864,6.157-3.531
			c0.632,0.109,1.615,0.139,2.982-0.318c5.539-1.849,7.623-3.824,7.724-4.955c0.175-1.891-0.216-3.605-1.152-6.737
			c-1.103-3.688,0.738-7.979,2.219-10.89c0.656-1.287,2.219-2.203,4.03-3.271c3.91-2.294,6.372-4.06,5.002-7.545
			c-1.623-4.146-0.849-5.649,0.524-7.474c0.842-1.121,1.717-2.28,1.747-5.383c0.028-2.939,0.055-5.473,2.088-5.473
			c0.5,0,0.935,0.195,1.392,0.4c0.717,0.322,1.633,0.654,2.671,0.365c2.612-0.729,5.099-6.029,6.486-13.838
			c0.562-3.167,0.432-3.31-1.795-5.671c-1.069-1.138-2.536-2.694-4.467-5.173c-2.687-3.446-3.129-4.135-2.673-5.073l0.34-0.688
			l0.905-0.064c0.469,0,0.925,0.192,1.678,0.514c1.281,0.546,3.301,1.302,4.541,0.856c1.854-0.66,2.711-1.195,2.965-1.852
			c0.33-0.874-0.188-2.561-1.605-5.162c-1.191-2.194-2.137-3.004-2.964-3.718c-1.526-1.312-2.49-2.343-3.043-6.831
			c-0.281-2.26-0.229-3.7,0.218-4.58c-0.232-0.304-0.543-0.716-0.953-1.277c-0.438-0.603-0.884-1.252-1.345-1.926
			c-2.968-4.342-6.332-9.263-13.716-9.436l-0.422-0.005c-4.148,0-7.283,1.457-10.603,3.002c-3.526,1.639-7.171,3.335-12.188,3.367
			c-2.879,0.018-4.73,0.124-6.524,0.223c-1.642,0.093-3.144,0.176-5.162,0.176c-3.418,0-7.92-0.251-14.59-0.815
			c-8.752-0.74-13.35-2.293-17.038-3.542c-3.831-1.296-6.682-2.252-12.486-1.714c-3.252,0.3-6.616,0.446-10.28,0.446
			c-4.523,0-8.911-0.223-13.156-0.438c-3.132-0.159-6.236-0.316-9.347-0.384c-5.322-0.114-8.75-0.61-12.068-1.092
			c-3.336-0.481-6.488-0.938-11.472-1.034c-6.628-0.13-17.759-2.813-28.529-5.406c-6.035-1.456-11.739-2.829-16.373-3.69
			C121.003,182.83,120.082,182.731,119.312,182.731z"/>
	</g>
	<g>
		<path fill="#E5C37F" d="M109.141,183.887c0,0-9.475-12.255,3.464-9.853c12.935,2.401,34.547,8.878,44.703,9.074
			c10.155,0.198,13.085,1.903,23.544,2.128c10.462,0.225,20.833,1.47,32.644,0.38c11.816-1.092,11.994,3.757,29.737,5.256
			c17.748,1.5,16.607,0.473,26.169,0.411c9.562-0.059,14.734,0.715,23.959,0.933c9.231,0.218,12.021,0.061,15.314,4.57
			c3.289,4.511,0.067-0.769,0.959,6.43c0.893,7.199,2.694,4.279,5.869,10.113c3.171,5.836,2.114,7.284-2.026,8.757
			c-4.139,1.477-10.312-5.254-4.237,2.544c6.078,7.798,7.479,6.329,6.503,11.815c-0.975,5.486-3.253,13.663-7.366,14.804
			c-4.109,1.142-5.173-4.142-5.252,3.536c-0.074,7.674-5.107,5.365-2.35,12.396c2.754,7.033-7.59,8.875-9.086,11.821
			c-1.5,2.945-3.084,6.812-2.135,9.979c0.945,3.168,1.391,5.058,1.198,7.201c-0.196,2.141-3.474,4.31-8.558,6.006
			c-5.088,1.699-3.2-2.14-8.644,3.535c-5.444,5.674-4.948,3.562-7.307,9.205c-2.362,5.646-7.392,6.731-9.729,5.291
			c-2.337-1.445,4.355-14.099-4.756-1.974c-9.106,12.125-5.583,3.81-10.138,9.875c-4.555,6.06,1.249-0.198-8.033,3.588
			c-9.278,3.785-9.258,0.088-14.397,2.399c-5.141,2.31-1.859,3.529-7.253,5.201c-5.39,1.674-5.501,2.897-7.837,1.453
			c-2.337-1.449-8.505,2.004-15.262,1.701c-6.753-0.303-4.962-0.139-9.499-0.859c-4.538-0.719-11.316-0.094-10.984-4.074
			c0.325-3.977-14.896-36.801-19.293-42.743c-4.397-5.948-13.13-18.453-16.693-30.183c-3.568-11.727-22.785-18.577-18.508-32.896
			c4.277-14.327,3.639-20.548-0.097-28.902C110.037,194.458,109.141,183.887,109.141,183.887z"/>
		<path fill="#3C2517" d="M189.694,343.713c-0.3,0-0.603-0.007-0.905-0.021l-2.395-0.103c-3.378-0.144-3.428-0.149-5.683-0.519
			l-1.562-0.25c-1.007-0.159-2.123-0.247-3.243-0.34c-2.012-0.164-4.092-0.342-5.693-0.896c-2.751-0.957-3.197-2.786-3.079-4.15
			c0.264-3.259-14.512-35.771-19.057-41.918c-8.439-11.412-14.276-21.979-16.88-30.551c-1.335-4.384-5.03-8.068-8.944-11.972
			c-6.071-6.057-12.35-12.321-9.567-21.636c4.281-14.34,3.449-20.244-0.039-28.047c-3.432-7.677-4.502-16.999-4.698-18.96
			c-1.146-1.542-4.52-6.507-2.985-9.63c1.002-2.046,3.588-2.688,7.861-1.892c4.699,0.87,10.432,2.252,16.503,3.715
			c10.639,2.563,21.644,5.214,28.003,5.338c5.138,0.1,8.512,0.588,11.78,1.061c3.242,0.47,6.596,0.954,11.769,1.067
			c3.132,0.068,6.254,0.227,9.414,0.385c4.213,0.214,8.568,0.435,13.031,0.435c3.589,0,6.878-0.143,10.06-0.437
			c6.364-0.576,9.579,0.511,13.495,1.834c3.567,1.206,8.005,2.709,16.457,3.424c6.603,0.557,11.033,0.805,14.384,0.805
			c1.965,0,3.432-0.082,5.025-0.171c1.736-0.1,3.71-0.209,6.648-0.228l1.054-0.004c5.041,0,8.829,0.229,12.842,0.469
			c3.063,0.184,6.231,0.375,10.103,0.466l1.26,0.028c8.385,0.187,11.52,0.259,15.016,5.046c0.479,0.655,0.817,1.101,1.049,1.407
			c0.532,0.699,0.824,1.086,0.667,1.725l-0.139,0.569l-0.457,0.235c-0.067,0.252-0.185,1.04,0.063,3.067
			c0.469,3.775,1.09,4.307,2.209,5.271c0.893,0.769,2.111,1.819,3.523,4.409c1.873,3.449,2.376,5.54,1.737,7.213
			c-0.627,1.641-2.227,2.501-4.432,3.289c-1.283,0.453-2.914,0.289-4.27-0.128c0.182,0.236,0.378,0.489,0.588,0.756
			c1.862,2.386,3.282,3.896,4.316,4.998c2.54,2.7,3.175,3.578,2.427,7.787c-0.938,5.297-3.262,14.391-8.248,15.774
			c-1.688,0.467-3.325-0.039-4.22-0.438c-0.062,0.481-0.115,1.323-0.129,2.801c-0.04,3.909-1.313,5.601-2.24,6.834
			c-0.931,1.242-1.444,1.927-0.199,5.104c2.232,5.701-2.748,8.627-6.044,10.561c-1.294,0.76-2.757,1.616-3.089,2.266
			c-1.287,2.531-2.903,6.229-2.052,9.068c1.006,3.371,1.449,5.376,1.244,7.666c-0.307,3.342-5.275,5.684-9.392,7.059
			c-1.799,0.601-3.265,0.574-4.203,0.403c-0.165-0.028-0.31-0.063-0.463-0.063c-0.489,0-1.596,0.916-3.481,2.883
			c-1.772,1.852-2.922,2.88-3.762,3.633c-1.63,1.466-1.801,1.619-3.3,5.201c-2.04,4.884-5.905,6.615-8.597,6.615
			c-1.1,0-2.102-0.265-2.907-0.758c-1.483-0.922-1.185-3.166-0.776-5.293c-0.574,0.7-1.339,1.666-2.353,3.012
			c-5.269,7.013-6.603,7.623-8.036,7.754c-0.204,0.017-0.543,0.046-2.098,2.121c-0.792,1.048-1.268,1.728-1.56,2.144
			c-0.485,0.688-0.806,1.147-1.516,1.147h-0.614l-0.424-0.52c-0.025-0.004-0.094-0.004-0.193-0.004c-0.472,0-1.648,0.16-4.249,1.221
			c-3.185,1.297-5.711,1.904-7.938,1.904c-0.781,0-1.447-0.066-2.075-0.137c-1.143-0.124-1.919-0.479-4.346,0.613
			c-2.122,0.953-2.514,1.593-2.929,2.267c-0.713,1.158-1.452,2.056-4.459,2.987c-1.713,0.529-2.893,1.022-3.756,1.383
			c-2.006,0.835-3.104,1.169-5.094-0.057c-0.13-0.08-0.39-0.174-0.91-0.174c-1.039,0-2.508,0.353-4.214,0.762
			C195.897,342.984,192.873,343.713,189.694,343.713z M109.65,174.95c-0.94,0-2.137,0.148-2.482,0.853
			c-0.724,1.469,1.331,5.246,2.943,7.334l0.221,0.286l0.033,0.36c0.006,0.105,0.927,10.468,4.522,18.525
			c3.749,8.382,4.658,14.667,0.15,29.753c-2.361,7.909,3.135,13.388,8.953,19.192c3.953,3.945,8.045,8.026,9.554,13
			c2.525,8.308,8.233,18.613,16.51,29.806c4.073,5.512,19.908,38.894,19.528,43.575c-0.048,0.556,0.028,1.14,1.44,1.632
			c1.306,0.454,3.226,0.614,5.087,0.769c1.185,0.097,2.361,0.192,3.42,0.358l1.573,0.258c2.134,0.347,2.134,0.347,5.396,0.484
			l2.4,0.107c3.168,0.133,6.211-0.594,8.861-1.23c3.11-0.748,5.532-1.193,6.991-0.292c0.646,0.401,0.924,0.456,1.113,0.456
			c0.36,0,0.909-0.229,1.744-0.574c0.906-0.383,2.147-0.898,3.967-1.464c2.362-0.729,2.672-1.229,3.097-1.926
			c0.661-1.067,1.412-2.056,4.018-3.226c2.068-0.928,3.749-1.014,5.614-0.812c0.55,0.061,1.127,0.126,1.812,0.126
			c1.196,0,3.223-0.184,7.011-1.728c3.054-1.244,5.044-1.594,6.121-1.276c0.307-0.435,0.745-1.054,1.396-1.911
			c1.907-2.537,2.693-2.99,3.845-3.094c0.386-0.036,1.285-0.118,6.293-6.781c3.99-5.316,4.809-5.697,5.68-5.697h0.581l0.531,0.523
			c0.6,0.729,0.394,1.783,0.047,3.529c-0.188,0.955-0.578,2.941-0.335,3.428c0.292,0.135,0.863,0.273,1.494,0.273
			c1.934,0,4.756-1.338,6.332-5.11c1.662-3.978,2.025-4.37,3.928-6.08c0.807-0.724,1.911-1.714,3.628-3.502
			c3.297-3.435,4.37-3.856,6.153-3.531c0.632,0.109,1.615,0.144,2.986-0.317c5.535-1.854,7.618-3.825,7.723-4.95
			c0.171-1.899-0.219-3.615-1.151-6.738c-1.103-3.688,0.738-7.981,2.215-10.889c0.656-1.288,2.22-2.208,4.034-3.271
			c3.907-2.294,6.368-4.061,5.002-7.54c-1.623-4.154-0.849-5.654,0.524-7.478c0.842-1.125,1.712-2.284,1.743-5.388
			c0.029-2.937,0.055-5.468,2.091-5.468c0.497,0,0.932,0.192,1.389,0.399c0.721,0.325,1.63,0.659,2.672,0.364
			c2.614-0.725,5.103-6.025,6.485-13.834c0.562-3.167,0.431-3.31-1.794-5.675c-1.07-1.135-2.537-2.693-4.468-5.173
			c-2.687-3.442-3.128-4.131-2.668-5.069l0.335-0.688l0.909-0.068c0.464,0,0.921,0.196,1.678,0.517
			c1.283,0.546,3.297,1.298,4.541,0.856c1.852-0.66,2.712-1.199,2.961-1.852c0.332-0.874-0.192-2.565-1.604-5.162
			c-1.191-2.194-2.134-3.004-2.965-3.721c-1.523-1.309-2.486-2.342-3.043-6.831c-0.282-2.258-0.226-3.698,0.215-4.581
			c-0.229-0.303-0.539-0.713-0.95-1.275c-2.774-3.806-4.958-3.856-13.081-4.037l-1.266-0.03c-3.914-0.091-7.103-0.284-10.192-0.469
			c-3.974-0.239-7.723-0.466-12.691-0.466l-1.038,0.003c-2.875,0.018-4.73,0.123-6.525,0.225c-1.636,0.093-3.142,0.177-5.165,0.177
			c-3.421,0-7.919-0.253-14.59-0.816c-8.751-0.74-13.346-2.294-17.042-3.544c-3.827-1.295-6.681-2.246-12.478-1.712
			c-3.257,0.299-6.621,0.446-10.285,0.446c-4.522,0-8.914-0.223-13.156-0.438c-3.132-0.161-6.235-0.317-9.343-0.383
			c-5.322-0.116-8.75-0.612-12.072-1.092c-3.331-0.483-6.485-0.94-11.472-1.036c-6.629-0.128-17.762-2.811-28.531-5.408
			c-6.036-1.454-11.74-2.828-16.371-3.687C111.339,175.05,110.422,174.95,109.65,174.95z"/>
	</g>
	<g opacity="0.49">
		<path fill="#D2AA62" d="M160.964,235.171c0,0,12.281,33.263,12.896,37.562c0.613,4.297,20.323,6.444,22.901,6.444
			c2.583,0,11.431-6.752,16.678-9.211c5.248-2.457,20.209-5.64,26.237-10.802c6.033-5.165,10.639-7.152,10.639-16.292
			c0-9.136-2.084-16.699-5.355-15.407c-3.267,1.295-0.874,1.356-5.283,10.26c-4.408,8.908-17.875,13.477-24.803,16.566
			c-6.932,3.086-12.514,2.977-18.015,4.873c-5.498,1.898-19.621-7.877-22.999-13.734c-3.379-5.861-1.908-12.981-5.098-15.407
			C165.568,227.594,159.43,224.937,160.964,235.171z"/>
	</g>
	<g opacity="0.49">
		<path fill="#D2AA62" d="M257.264,264.134c0,0-2.65,7.979,4.256,5.832c6.91-2.149,8.779-3.991,13.678-13.2
			c4.898-9.212,19.74-12.341,16.773-26.743c-2.973-14.401-1.086-20.057-6.479-21.682c-5.396-1.625-17.123-4.544-16.581,1.958
			c0.543,6.503,3.421,13.521,3.617,18.479c0.199,4.959-0.678,6.115-3.617,12.137C265.973,246.939,262.682,260.45,257.264,264.134z"
			/>
	</g>
	<g opacity="0.49">
		<path fill="#D2AA62" d="M129.646,194.921c0,0,3.072,16.759,6.14,32.544c3.071,15.789,6.757,35.23,9.521,39.48
			c2.762,4.248,24.561,30.041,26.405,37.41c1.841,7.365-3.643,18.422,3.859,19.647c7.499,1.229,11.127,0.614,21.287-3.065
			c10.163-3.688,26.397-7.678,37.007-19.349c10.612-11.664,9.079-27.938,2.322-18.728c-6.753,9.211-26.673,16.58-32.526,20.572
			c-5.851,3.988-18.133,12.584-21.205,6.139c-3.07-6.446-14.43-21.186-18.114-26.1c-3.686-4.91,0-14.733-6.753-21.186
			c-6.756-6.446-11.669-25.991-13.207-28.963c-1.533-2.968,0.863-9.31-3.71-19.955C136.096,202.725,133.023,184.353,129.646,194.921
			z"/>
	</g>
	<g>
		<path fill="#9D3021" d="M252.943,223.196c0,0-5.833-0.614-8.904,1.844c-3.067,2.455-5.526,2.761-5.832,7.367
			c-0.308,4.605-0.308,10.134,0,12.896c0.306,2.765-0.308,5.832-2.765,6.758c-2.454,0.92-8.291,3.373-11.053,1.533
			c-2.765-1.841-3.685-7.984-10.747-8.291c-7.061-0.307-11.665-2.761-19.342-0.614c-7.678,2.148-16.888-0.306-19.96-1.84
			c-3.068-1.538,2.458-3.378-5.219-6.756c-7.677-3.378-5.219-9.211-9.211-10.131c-3.992-0.92,7.983-1.673-1.841-2.833
			c-9.828-1.16-10.748-3.617-14.74-5.458c-3.991-1.844-3.068-7.063,0-10.746c3.071-3.686,7.062,1.842,15.968-2.457
			c8.904-4.299,5.218-4.914,11.669-4.914c6.446,0,7.979-3.684,17.193-1.535c9.211,2.149,11.359,0.803,18.729-0.672
			c7.366-1.477,11.665-4.239,16.27-4.239c4.606,0,2.458-6.142,11.976,0c9.519,6.139,11.669,3.376,19.652,4.296
			c7.981,0.922,2.455,0.309,11.052,0.309c8.598,0,8.904-1.536,13.203,1.841c4.299,3.378,0.614,2.765,8.29,5.22
			c7.677,2.456,4.604,0.614,9.824,6.753c5.223,6.143,1.229,1.538,7.983,6.45c6.757,4.912,14.123,0.307,8.599,9.518
			c-5.526,9.21-6.758,10.749-13.817,10.749c-7.062,0-3.07,1.84-15.043-1.538c-11.977-3.378-12.281-4.605-20.268-3.378
			C256.628,234.558,253.25,230.259,252.943,223.196z"/>
	</g>
	<g>
		<ellipse fill="#680E0D" cx="158.991" cy="206.924" rx="8.291" ry="7.675"/>
	</g>
	<g>
		<ellipse fill="#680E0D" cx="205.148" cy="204.467" rx="8.29" ry="7.677"/>
	</g>
	<g>
		<ellipse fill="#851619" cx="169.122" cy="213.372" rx="10.131" ry="8.904"/>
	</g>
	<g>
		<path fill="#851619" d="M188.518,218.066c4.634,0.085,8.322,3.553,8.243,7.741c-0.077,4.191-3.895,7.52-8.524,7.435
			c-4.635-0.089-8.323-3.557-8.245-7.745C180.07,221.305,183.887,217.98,188.518,218.066z"/>
	</g>
	<g>
		
			<ellipse transform="matrix(-0.9998 -0.0188 0.0188 -0.9998 429.9361 451.7997)" fill="#851619" cx="217.092" cy="223.878" rx="8.387" ry="7.587"/>
	</g>
	<g>
		<path fill="#851619" d="M234.008,223.874c4.635,0.085,8.322,3.553,8.245,7.741c-0.079,4.191-3.896,7.516-8.527,7.431
			c-4.633-0.086-8.322-3.553-8.244-7.741C225.561,227.113,229.378,223.788,234.008,223.874z"/>
	</g>
	<g>
		<path fill="#851619" d="M234.008,193.167c4.635,0.088,8.322,3.554,8.245,7.743c-0.079,4.19-3.896,7.516-8.527,7.431
			c-4.633-0.087-8.322-3.553-8.244-7.743C225.561,196.409,229.378,193.083,234.008,193.167z"/>
	</g>
	<g>
		<path fill="#851619" d="M239.819,207.03c4.63,0.086,8.319,3.551,8.244,7.743c-0.079,4.188-3.896,7.516-8.529,7.427
			c-4.63-0.085-8.319-3.549-8.245-7.741C231.368,210.268,235.186,206.943,239.819,207.03z"/>
	</g>
	<g>
		<path fill="#851619" d="M272.671,216.286c4.634,0.085,8.322,3.553,8.243,7.741c-0.078,4.192-3.895,7.516-8.523,7.431
			c-4.636-0.085-8.324-3.553-8.246-7.741C264.225,219.525,268.04,216.2,272.671,216.286z"/>
	</g>
	<g>
		<path fill="#851619" d="M283.727,242.877c4.629,0.085,8.318,3.552,8.244,7.74c-0.078,4.191-3.896,7.517-8.529,7.43
			c-4.631-0.088-8.319-3.552-8.244-7.744C275.273,246.116,279.092,242.787,283.727,242.877z"/>
	</g>
	<g>
		<path fill="#680E0D" d="M191.985,216.25c-0.846,4.156-5.166,6.785-9.653,5.872c-4.491-0.914-7.442-5.022-6.597-9.175
			c0.846-4.156,5.166-6.783,9.657-5.87C189.876,207.99,192.83,212.098,191.985,216.25z"/>
	</g>
	<g>
		<path fill="#680E0D" d="M208.852,223.973c-0.846,4.153-5.165,6.782-9.653,5.869c-4.487-0.914-7.438-5.02-6.593-9.175
			c0.845-4.155,5.165-6.781,9.653-5.869C206.743,215.708,209.697,219.817,208.852,223.973z"/>
	</g>
	<g>
		<path fill="#680E0D" d="M222.995,236.823c-0.845,4.155-5.165,6.786-9.652,5.872c-4.491-0.917-7.442-5.022-6.597-9.175
			c0.846-4.156,5.166-6.785,9.657-5.872C220.887,228.561,223.841,232.667,222.995,236.823z"/>
	</g>
	<g>
		<path fill="#680E0D" d="M239.534,222.729c-0.85,4.152-5.17,6.781-9.657,5.868c-4.488-0.914-7.438-5.02-6.592-9.175
			c0.845-4.156,5.165-6.781,9.652-5.868C237.426,214.463,240.375,218.573,239.534,222.729z"/>
	</g>
	<g>
		<path fill="#680E0D" d="M273.658,239.381c-0.85,4.156-5.168,6.782-9.656,5.868c-4.486-0.913-7.438-5.019-6.593-9.174
			c0.846-4.153,5.165-6.782,9.653-5.869C271.55,231.115,274.501,235.225,273.658,239.381z"/>
	</g>
	<g>
		<path fill="#680E0D" d="M269.646,204.276c-0.85,4.156-5.17,6.783-9.658,5.87c-4.486-0.912-7.438-5.019-6.592-9.175
			c0.847-4.154,5.166-6.782,9.653-5.87C267.537,196.014,270.488,200.123,269.646,204.276z"/>
	</g>
	<g>
		<path fill="#680E0D" d="M303.132,240.814c-0.846,4.156-5.166,6.785-9.651,5.869c-4.488-0.914-7.438-5.02-6.598-9.175
			c0.85-4.152,5.169-6.781,9.656-5.868C301.023,232.553,303.978,236.659,303.132,240.814z"/>
	</g>
	<g>
		<path fill="#4A1311" d="M183.858,225.654c0,4.238-3.71,7.673-8.287,7.673c-4.579,0-8.29-3.435-8.29-7.673
			c0-4.242,3.711-7.677,8.29-7.677C180.148,217.977,183.858,221.412,183.858,225.654z"/>
	</g>
	<g>
		<path fill="#4A1311" d="M208.708,233.242c0,4.238-3.71,7.673-8.29,7.673c-4.577,0-8.29-3.436-8.29-7.673
			c0-4.242,3.713-7.677,8.29-7.677C204.998,225.564,208.708,229,208.708,233.242z"/>
	</g>
	<g>
		<ellipse fill="#4A1311" cx="177.412" cy="206.924" rx="8.29" ry="7.675"/>
	</g>
	<g>
		<ellipse fill="#4A1311" cx="221.729" cy="204.467" rx="8.291" ry="7.677"/>
	</g>
	<g>
		<path fill="#4A1311" d="M261.541,214.616c0,4.238-3.71,7.677-8.291,7.677c-4.576,0-8.291-3.439-8.291-7.677
			c0-4.241,3.715-7.677,8.291-7.677C257.831,206.939,261.541,210.375,261.541,214.616z"/>
	</g>
	<g>
		<ellipse fill="#4A1311" cx="277.201" cy="210.3" rx="8.291" ry="7.677"/>
	</g>
	<g>
		<ellipse fill="#4A1311" cx="304.527" cy="217.977" rx="8.291" ry="7.677"/>
	</g>
</g>
</svg>
