<?xml version="1.0" encoding="utf-8"?>
<!-- Generator: Adobe Illustrator 16.0.0, SVG Export Plug-In . SVG Version: 6.00 Build 0)  -->
<!DOCTYPE svg PUBLIC "-//W3C//DTD SVG 1.1//EN" "http://www.w3.org/Graphics/SVG/1.1/DTD/svg11.dtd">
<svg version="1.1" id="Layer_1" xmlns="http://www.w3.org/2000/svg" xmlns:xlink="http://www.w3.org/1999/xlink" x="0px" y="0px"
	 width="500px" height="500px" viewBox="0 0 500 500" enable-background="new 0 0 500 500" xml:space="preserve">
<g id="Layer_1_copy_25">
	<path fill="#58595B" stroke="#3C2415" stroke-width="3.038" stroke-miterlimit="10" d="M274.127,304.021l-38.592,44.494
		c0,0-43.94-4.32-47.991-2.777c-4.051,1.541-6.19,4.938,31.823,10.189c0,0-33.691,16.354-24.968,20.055
		c8.727,3.703,47.679-20.362,47.679-20.362s27.234,0.31,37.452-0.317c10.226-0.615,4.114-7.097,0-7.097
		c-4.113,0-30.91,0.31-30.91,0.31l45.8-43.398L274.127,304.021z"/>
	<path fill="#58595B" stroke="#3C2415" stroke-width="3.038" stroke-miterlimit="10" d="M206.357,353.941
		c0,0-27.853-3.883-27.227,4.764c0.624,8.641,28.33,3.568,28.33,3.568l11.906-6.346L206.357,353.941z"/>
	<path fill="#58595B" stroke="#3C2415" stroke-width="3.038" stroke-miterlimit="10" d="M222.714,333.034l-38.596,44.491
		c0,0-43.94-4.318-47.991-2.776c-4.051,1.543-6.191,4.938,31.824,10.183c0,0-33.691,16.361-24.969,20.063
		c8.726,3.702,47.678-20.372,47.678-20.372s27.236,0.309,37.458-0.309c10.222-0.616,4.113-7.098,0-7.098
		c-4.113,0-30.91,0.309-30.91,0.309l45.8-43.398L222.714,333.034z"/>
	<path fill="#58595B" stroke="#3C2415" stroke-width="3.038" stroke-miterlimit="10" d="M154.94,382.961
		c0,0-27.845-3.893-27.228,4.747c0.625,8.647,28.327,3.575,28.327,3.575l11.911-6.354L154.94,382.961z"/>
	<path fill="#414042" stroke="#3C2415" stroke-width="4.0507" stroke-miterlimit="10" d="M213.529,140.513
		c0,0-44.716-87.098-105.246-76.876c-39.756,5.331-43.914,38.021-43.914,38.021l14.11,31.551c0,0,29.521,29.525,23.703,55.745
		c-5.818,26.217-24.518,93.767,44.044,129.317c68.553,35.576,198.594,21.771,248.041-3.113
		c23.268-13.331-86.006-59.104-86.006-59.104l-93.896-77.766L213.529,140.513z"/>
	<path fill="#2D2D2D" stroke="#3C2415" stroke-width="4.0507" stroke-miterlimit="10" d="M350.296,244.733
		c0,0-64.476-75.814-109.234-44.663c-44.765,31.148-1.828,94.252,45.131,116.384c60.84,28.657,123.901,31.799,168.42,24.084
		c44.521-7.71,18.441-29.407,18.441-29.407S385.129,242.067,350.296,244.733z"/>
	
		<path fill="#2D2D2D" stroke="#3C2415" stroke-width="4.0507" stroke-linecap="round" stroke-linejoin="round" stroke-miterlimit="10" d="
		M72.685,100.719l17.033,19.957c0,0-49.442,7.817-50.689,9.877C37.779,132.609,48.167,107.095,72.685,100.719z"/>
	
		<polygon fill="#2D2D2D" stroke="#3C2415" stroke-width="4.0507" stroke-linecap="round" stroke-linejoin="round" stroke-miterlimit="10" points="
		89.718,120.675 89.718,135.08 39.028,130.553 	"/>
	<path fill="#2D2D2D" stroke="#3C2415" stroke-width="4.0507" stroke-miterlimit="10" d="M297.043,197.134
		c0,0-54.847-83.045-103.039-57.529c-48.197,25.515-13.201,93.342,30.743,120.982c56.933,35.802,119.155,46.526,164.279,44.25
		c45.127-2.276,21.858-26.967,21.858-26.967S331.945,198.694,297.043,197.134z"/>
	
		<ellipse fill="#FFFFFF" stroke="#3C2415" stroke-width="3.038" stroke-miterlimit="10" cx="118.576" cy="97.435" rx="11.353" ry="14.057"/>
	<path fill="#3C2415" d="M120.862,98.414c0,3.329-2.073,6.025-4.637,6.025c-2.556,0-4.632-2.696-4.632-6.025
		c0-3.327,2.076-6.022,4.632-6.022C118.789,92.392,120.862,95.087,120.862,98.414z"/>
</g>
</svg>
