<?xml version="1.0" encoding="utf-8"?>
<!-- Generator: Adobe Illustrator 16.0.0, SVG Export Plug-In . SVG Version: 6.00 Build 0)  -->
<!DOCTYPE svg PUBLIC "-//W3C//DTD SVG 1.1//EN" "http://www.w3.org/Graphics/SVG/1.1/DTD/svg11.dtd">
<svg version="1.1" id="Layer_1" xmlns="http://www.w3.org/2000/svg" xmlns:xlink="http://www.w3.org/1999/xlink" x="0px" y="0px"
	 width="500px" height="500px" viewBox="0 0 500 500" enable-background="new 0 0 500 500" xml:space="preserve">
<g id="Layer_1_copy_97">
	<g>
		<path fill="#F8E7D4" d="M473.29,267.037c-3.197,36.062-37.257,100.783-37.257,100.783c-7.067,11.195-13.677,12.15-28.872,18.932
			c-8.502,3.785-16.977,15.49-29.198,18.527c-9.701,2.412-21.714-3.924-33.322-2.098c-10.173,1.603-20.209,11.51-31.577,12.59
			c-10.423,0.992-21.732-6.845-32.952-6.344c-10.577,0.482-21.321,9.338-32.443,9.338c-11.107,0-21.852-8.854-32.417-9.338
			c-11.224-0.494-22.523,7.336-32.941,6.344c-11.373-1.08-21.412-10.987-31.589-12.584c-11.635-1.832-23.664,4.504-33.377,2.08
			c-12.229-3.025-20.7-14.738-29.202-18.533c-15.169-6.773-23.53-8.652-28.85-18.914c0,0-40.829-76.479-37.893-98.865L198.51,252.79
			L473.29,267.037z"/>
		<path fill="#3C2517" d="M247.667,421.542c-6.344,0-12.353-2.536-18.159-4.989c-5.051-2.129-9.817-4.143-14.39-4.353
			c-4.959-0.208-10.384,1.497-15.558,3.153c-5.733,1.838-11.718,3.734-17.521,3.183c-6.613-0.625-12.558-3.847-18.302-6.968
			c-4.713-2.553-9.16-4.965-13.451-5.637c-4.851-0.764-10.766,0.192-16.23,1.201c-6.002,1.111-12.441,2.061-17.39,0.829
			c-7.907-1.958-14.218-7.151-19.788-11.733c-3.491-2.871-6.79-5.584-9.872-6.963c-2.591-1.158-4.984-2.17-7.197-3.106
			c-10.911-4.623-18.12-7.675-22.981-17.062c-1.672-3.123-41.196-77.5-38.185-100.504c0.167-1.289,1.207-2.285,2.5-2.404
			l177.108-16.167c0.135-0.011,0.269-0.011,0.396-0.007l274.787,14.244c0.757,0.039,1.461,0.381,1.955,0.95
			c0.49,0.571,0.737,1.315,0.668,2.067c-3.212,36.205-36.167,99.175-37.568,101.84c-6.362,10.094-12.546,12.688-22.789,16.984
			c-2.229,0.936-4.682,1.967-7.408,3.185c-3.09,1.373-6.392,4.087-9.891,6.964c-5.563,4.576-11.867,9.758-19.768,11.723
			c-4.94,1.226-11.372,0.28-17.364-0.84c-5.448-1.014-11.364-1.973-16.196-1.208c-4.28,0.671-8.729,3.084-13.43,5.634
			c-5.752,3.121-11.695,6.353-18.316,6.978c-5.811,0.565-11.786-1.345-17.518-3.183c-5.186-1.66-10.559-3.354-15.572-3.153
			c-4.574,0.21-9.346,2.224-14.396,4.353C260.032,419.006,254.02,421.542,247.667,421.542z M214.218,406.626
			c0.381,0,0.767,0.011,1.148,0.024c5.566,0.256,11.023,2.559,16.3,4.787c5.544,2.338,10.784,4.547,16.001,4.547
			c5.231,0,10.468-2.209,16.013-4.547c5.279-2.229,10.737-4.531,16.305-4.787c6.049-0.258,11.881,1.604,17.522,3.41
			c5.447,1.754,10.538,3.385,15.293,2.948c5.491-0.522,10.936-3.473,16.195-6.329c4.909-2.664,9.988-5.421,15.213-6.246
			c1.581-0.248,3.197-0.367,4.945-0.367c4.502,0,8.891,0.813,13.135,1.605c5.653,1.055,11.063,1.895,15.006,0.908
			c6.684-1.66,12.224-6.212,17.583-10.62c3.796-3.122,7.384-6.067,11.15-7.747c2.772-1.234,5.261-2.285,7.521-3.229
			c9.864-4.143,14.814-6.221,20.138-14.646c0.222-0.439,31.968-61.089,36.526-96.682L198.564,255.57L24.011,271.505
			c-0.143,23.776,37.341,94.278,37.732,95.011c3.958,7.635,9.734,10.084,20.231,14.526c2.242,0.953,4.669,1.978,7.296,3.155
			c3.772,1.678,7.351,4.625,11.141,7.742c5.359,4.414,10.903,8.976,17.597,10.631c3.964,0.992,9.366,0.152,15.035-0.897
			c4.243-0.788,8.63-1.603,13.135-1.603c1.732,0,3.405,0.127,4.971,0.375c5.235,0.82,10.319,3.576,15.235,6.242
			c5.257,2.85,10.7,5.799,16.184,6.321c4.763,0.433,9.846-1.194,15.296-2.942C203.14,408.375,208.594,406.626,214.218,406.626z"/>
	</g>
	<g>
		<path fill="#E0CEBE" d="M473.334,267.826c0,8.624-16.536,11.865-35.938,18.795c-10.312,3.686-20.896,17.072-35.451,20.018
			c-11.57,2.34-25.591-5.804-39.361-4.033c-12.075,1.56-24.13,13.162-37.585,14.213c-12.353,0.959-25.648-8.62-38.925-8.129
			c-12.518,0.465-25.258,11.033-38.406,11.033c-13.138,0-25.866-10.568-38.387-11.033c-13.263-0.484-26.567,9.093-38.911,8.129
			c-13.455-1.051-25.507-12.653-37.577-14.204c-13.774-1.778-27.804,6.372-39.383,4.03c-14.57-2.949-25.184-16.342-35.503-20.026
			c-19.385-6.933-36.243-10.072-36.243-18.692c0-8.631,16.863-11.77,36.276-18.706c10.304-3.681,20.899-17.071,35.451-20.013
			c11.573-2.34,25.594,5.806,39.362,4.033c12.077-1.551,24.14-13.16,37.584-14.21c12.354-0.963,25.655,8.619,38.925,8.128
			c12.521-0.461,25.268-11.032,38.405-11.032c13.149,0,25.874,10.57,38.388,11.032c13.271,0.483,26.567-9.095,38.911-8.128
			c13.454,1.05,25.506,12.659,37.573,14.204c13.784,1.773,27.799-6.373,39.38-4.029c14.58,2.945,25.179,16.338,35.498,20.027
			C456.816,256.162,473.334,259.203,473.334,267.826z"/>
		<path fill="#3C2517" d="M247.667,322.499c-7.357,0-14.385-2.974-21.176-5.845c-6.06-2.563-11.783-4.984-17.316-5.192
			c-6.038-0.216-12.46,1.952-18.644,4.05c-6.675,2.264-13.625,4.596-20.373,4.076c-7.681-0.602-14.675-4.248-21.44-7.775
			c-5.698-2.973-11.079-5.777-16.281-6.441c-1.199-0.156-2.468-0.232-3.769-0.232c-5.192,0-10.54,1.219-15.71,2.397
			c-5.222,1.188-10.149,2.313-15.014,2.313c-1.821,0-3.481-0.156-5.084-0.479c-9.128-1.849-16.674-7.429-23.334-12.353
			c-4.451-3.285-8.655-6.396-12.55-7.787c-4.109-1.465-8.1-2.76-11.842-3.979c-15.238-4.95-26.248-8.524-26.248-17.325
			c0-8.81,11.021-12.388,26.278-17.344c3.738-1.214,7.73-2.507,11.841-3.979c3.892-1.387,8.088-4.494,12.528-7.779
			c6.652-4.919,14.192-10.493,23.305-12.339c1.603-0.324,3.266-0.483,5.09-0.483c4.858,0,9.789,1.123,15.003,2.318
			c5.167,1.177,10.515,2.398,15.703,2.398c1.302,0,2.565-0.08,3.761-0.236c5.204-0.665,10.593-3.478,16.293-6.45
			c6.77-3.524,13.764-7.172,21.434-7.771c6.751-0.531,13.705,1.812,20.381,4.08c6.188,2.096,12.557,4.294,18.654,4.04
			c5.536-0.203,11.259-2.626,17.323-5.192c6.799-2.871,13.829-5.843,21.187-5.843c7.369,0,14.396,2.972,21.19,5.85
			c6.054,2.559,11.771,4.982,17.303,5.185c6.104,0.232,12.463-1.948,18.644-4.04c6.683-2.268,13.629-4.607,20.38-4.08
			c7.675,0.599,14.673,4.247,21.435,7.771c5.697,2.972,11.078,5.777,16.273,6.445c1.199,0.152,2.472,0.234,3.771,0.234
			c5.193,0,10.542-1.221,15.708-2.399c5.219-1.191,10.145-2.314,15.006-2.314c1.824,0,3.488,0.157,5.091,0.482
			c9.136,1.847,16.686,7.427,23.35,12.354c4.443,3.285,8.641,6.392,12.534,7.783c4.096,1.461,8.063,2.75,11.771,3.958
			c15.09,4.901,25.993,8.444,25.993,17.252c0,8.886-11.122,12.538-26.514,17.596c-3.563,1.175-7.357,2.421-11.271,3.815
			c-3.896,1.393-8.092,4.498-12.536,7.781c-6.648,4.922-14.185,10.498-23.297,12.34c-1.604,0.322-3.266,0.483-5.087,0.483
			c-4.861,0-9.789-1.122-15.006-2.315c-5.17-1.18-10.517-2.4-15.704-2.4c-1.301,0-2.565,0.081-3.761,0.232
			c-5.202,0.674-10.584,3.478-16.281,6.451c-6.767,3.529-13.765,7.178-21.44,7.777c-6.776,0.516-13.706-1.816-20.38-4.076
			c-6.188-2.103-12.567-4.266-18.662-4.05c-5.53,0.208-11.253,2.629-17.31,5.188C262.066,319.525,255.036,322.499,247.667,322.499z
			 M208.296,305.893c0.363,0,0.723,0.008,1.083,0.021c6.554,0.239,13.022,2.978,19.275,5.625c6.285,2.655,12.778,5.403,19.013,5.403
			c6.247,0,12.747-2.748,19.032-5.407c6.253-2.644,12.725-5.382,19.268-5.621c7.083-0.263,14.001,2.08,20.656,4.336
			c6.436,2.181,12.448,4.248,18.161,3.8c6.547-0.512,13.032-3.895,19.304-7.165c5.88-3.065,11.958-6.237,18.144-7.032
			c1.428-0.183,2.928-0.276,4.469-0.276c5.812,0,11.467,1.29,16.938,2.536c4.901,1.123,9.533,2.175,13.771,2.175
			c1.446,0,2.751-0.122,3.984-0.371c7.907-1.599,14.611-6.562,21.098-11.356c4.781-3.539,9.302-6.882,13.971-8.551
			c3.956-1.416,7.797-2.678,11.404-3.861c12.177-4,22.69-7.451,22.69-12.319c0-4.775-10.265-8.106-22.152-11.974
			c-3.753-1.217-7.775-2.525-11.925-4.004c-4.666-1.672-9.187-5.015-13.971-8.55c-6.498-4.807-13.219-9.775-21.144-11.377
			c-1.235-0.251-2.54-0.374-3.99-0.374c-4.236,0-8.865,1.062-13.767,2.177c-5.474,1.246-11.129,2.54-16.947,2.54
			c-1.54,0-3.044-0.094-4.477-0.276c-6.181-0.792-12.259-3.967-18.138-7.031c-6.271-3.27-12.754-6.649-19.298-7.162
			c-5.704-0.454-11.722,1.614-18.167,3.801c-6.646,2.253-13.545,4.586-20.628,4.335c-6.551-0.244-13.016-2.98-19.266-5.625
			c-6.284-2.656-12.776-5.406-19.023-5.406c-6.234,0-12.735,2.747-19.021,5.406c-6.261,2.642-12.732,5.381-19.283,5.625
			c-7.07,0.272-13.988-2.076-20.646-4.335c-6.438-2.184-12.451-4.251-18.166-3.801c-6.537,0.513-13.022,3.892-19.294,7.162
			c-5.884,3.067-11.965,6.239-18.153,7.035c-1.428,0.185-2.936,0.276-4.47,0.276c-5.816,0-11.467-1.29-16.938-2.536
			c-4.902-1.119-9.535-2.176-13.769-2.176c-1.449,0-2.75,0.12-3.988,0.366c-7.903,1.602-14.611,6.566-21.104,11.366
			c-4.782,3.535-9.299,6.877-13.963,8.545c-4.161,1.487-8.209,2.804-11.994,4.03c-12.042,3.908-22.44,7.287-22.44,12.061
			c0,4.762,10.384,8.139,22.411,12.043c3.79,1.231,7.837,2.547,11.994,4.034c4.668,1.666,9.192,5.011,13.981,8.549
			c6.5,4.804,13.218,9.771,21.136,11.373c1.231,0.251,2.536,0.371,3.982,0.371c4.239,0,8.873-1.06,13.777-2.173
			c5.472-1.251,11.13-2.54,16.946-2.54c1.541,0,3.049,0.09,4.48,0.276c6.181,0.793,12.259,3.963,18.139,7.029
			c6.271,3.27,12.753,6.649,19.301,7.161c5.682,0.45,11.721-1.616,18.159-3.8C195.058,308.109,201.588,305.893,208.296,305.893z"/>
	</g>
	<g>
		<g>
			<line fill="none" x1="209.716" y1="333.001" x2="210.072" y2="383.583"/>
			<path fill="#3C2517" d="M210.072,386.359c-1.53,0-2.77-1.231-2.78-2.758l-0.355-50.58c-0.008-1.532,1.225-2.785,2.758-2.797
				c0,0,0.014,0,0.021,0c1.522,0,2.765,1.231,2.776,2.76l0.355,50.582c0.011,1.529-1.224,2.781-2.758,2.793
				C210.083,386.359,210.079,386.359,210.072,386.359z"/>
		</g>
		<g>
			<line fill="none" x1="283.326" y1="333.936" x2="279.064" y2="380.989"/>
			<path fill="#3C2517" d="M279.066,383.77c-0.084,0-0.166-0.004-0.254-0.014c-1.528-0.137-2.651-1.488-2.515-3.014l4.263-47.059
				c0.137-1.528,1.504-2.666,3.016-2.518c1.529,0.143,2.656,1.489,2.52,3.02l-4.267,47.054
				C281.702,382.682,280.488,383.77,279.066,383.77z"/>
		</g>
		<g>
			<line fill="none" x1="360.679" y1="326.785" x2="349.654" y2="378.604"/>
			<path fill="#3C2517" d="M349.659,381.385c-0.193,0-0.386-0.021-0.582-0.062c-1.501-0.319-2.456-1.796-2.141-3.296l11.023-51.82
				c0.323-1.5,1.798-2.459,3.296-2.141c1.5,0.322,2.459,1.795,2.141,3.297l-11.023,51.82
				C352.093,380.488,350.94,381.385,349.659,381.385z"/>
		</g>
		<g>
			<line fill="none" x1="424.431" y1="315.902" x2="405.759" y2="364.616"/>
			<path fill="#3C2517" d="M405.759,367.396c-0.33,0-0.664-0.062-0.992-0.187c-1.436-0.549-2.149-2.155-1.598-3.586l18.668-48.714
				c0.548-1.436,2.166-2.145,3.586-1.604c1.437,0.549,2.151,2.155,1.6,3.586l-18.669,48.715
				C407.932,366.717,406.878,367.396,405.759,367.396z"/>
		</g>
		<g>
			<line fill="none" x1="136.36" y1="332.693" x2="143.296" y2="375.598"/>
			<path fill="#3C2517" d="M143.289,378.374c-1.337,0-2.514-0.972-2.739-2.338l-6.93-42.899c-0.246-1.515,0.782-2.938,2.296-3.188
				c1.526-0.246,2.94,0.787,3.188,2.301l6.932,42.904c0.243,1.514-0.785,2.938-2.3,3.183
				C143.588,378.363,143.438,378.374,143.289,378.374z"/>
		</g>
		<g>
			<line fill="none" x1="65.939" y1="317.145" x2="78.574" y2="357.982"/>
			<path fill="#3C2517" d="M78.57,360.762c-1.185,0-2.281-0.767-2.652-1.955l-12.63-40.836c-0.454-1.469,0.37-3.023,1.834-3.479
				c1.454-0.447,3.02,0.365,3.474,1.832l12.631,40.836c0.454,1.468-0.367,3.023-1.832,3.473
				C79.123,360.721,78.847,360.762,78.57,360.762z"/>
		</g>
	</g>
	<g>
		
			<path fill="#CCB592" stroke="#3C2517" stroke-width="5.0642" stroke-linecap="round" stroke-linejoin="round" stroke-miterlimit="10" d="
			M32.597,274.586"/>
	</g>
	<g>
		<path fill="#D1923D" d="M25.856,264.98c-3.492,2.992-0.498,7.857,12.728,11.976s21.086,6.987,21.086,6.987
			s10.107,5.242,17.473,11.732c7.361,6.484,16.598,11.975,39.553,5.361c14.226-3.866,21.961,0,24.333,0.626
			c2.366,0.625,20.334,12.851,29.442,12.104c3.746,0.623,8.357,0.121,26.703-6.363c13.85-5.243,29.572,2.992,32.566,4.367
			c2.997,1.365,16.347,11.229,37.933-1c0,0,13.728-5.99,20.961-4.99c7.239,0.998,13.475,3.367,28.328,7.611
			c14.85,4.242,29.942-8.232,29.942-8.232s14.225-9.483,41.927-1.748c21.215,6.488,36.811-13.23,36.811-13.23
			s2.619-3.113,22.211-10.354c19.968-5.863,24.055-6.362,22.558-13.724c0,0-13.324-9.733-25.678-2.619
			c-11.229-8.611-20.302,5.736-20.302,5.736s7.448-18.72-14.511-17.845c3.244-11.103-8.361-9.73-17.841-5.74
			c-0.502-8.608-11.979-10.228-13.478-3.865c0,0-7.237-9.858-31.196-0.125c-1.123-7.238-1.744-12.477-21.583-8.858
			c-2.623-9.483-14.102-9.356-22.708,0.872c0,0-14.105-2.995-19.345,3.993c-13.725-13.353-32.69-3.87-32.69-3.87
			s-9.61-9.479-16.347,0.876c-4.491-10.359-15.345-6.49-18.215-0.624c-5.115-10.73-20.842-4.368-22.959,4.865
			c-2.374-12.976-10.232-13.223-18.967-7.362c-8.11,0.501-15.599-6.486-21.089,2.994c-8.106,1.748-20.21,2.625-23.331,8.484
			c-1.623-4.491-12.48-8.357-18.592,0.501c-5.738-8.986-21.713-2.493-23.959,4.869c-0.497-11.23-18.465,2.863-18.465,2.863
			s-13.978-5.112-16.721,2.624c0,0-11.89-4.902-15.055,2.227C37.381,256.1,23.119,257.298,25.856,264.98z"/>
		<path fill="#BA7A2D" d="M247.058,318.209c-8.395,0-14.095-3.116-16.834-4.618c-0.44-0.241-0.792-0.437-1.058-0.555l-0.698-0.328
			c-2.935-1.397-11.862-5.644-21.335-5.644c-3.412,0-6.599,0.554-9.469,1.636c-15.616,5.526-21.204,6.653-24.803,6.653
			c-0.832,0-1.612-0.059-2.448-0.192c-7.184,0.476-18.73-6.058-25.528-9.906c-1.843-1.041-3.75-2.12-4.215-2.249
			c-0.317-0.086-0.728-0.225-1.231-0.395c-1.937-0.655-5.549-1.883-10.894-1.883c-3.601,0-7.46,0.556-11.481,1.646
			c-7.104,2.05-13.189,3.049-18.593,3.049l0,0c-10.871-0.003-17.117-4.187-22.247-8.706c-7.147-6.301-17.089-11.488-17.194-11.542
			c0.004,0.003,0.004,0.003,0.004,0.003c-0.033,0-7.921-2.867-20.864-6.896c-9.032-2.812-14.202-6.213-14.951-9.844
			c-0.287-1.381,0.095-2.729,1.075-3.861c-0.381-1.646-0.126-3.208,0.741-4.561c2.442-3.787,9.073-4.927,11.453-5.219
			c1.115-1.947,3.387-3.955,7.994-3.955c2.853,0,5.668,0.772,7.229,1.293c1.163-2.01,3.565-3.932,8.503-3.932
			c3.586,0,7.181,1.014,8.688,1.497c2.199-1.646,9.811-7.049,14.864-7.049c1.904,0,3.354,0.745,4.244,2.122
			c3.081-3.986,9.171-7.02,14.894-7.02c3.562,0,6.576,1.232,8.68,3.502c2.548-2.892,5.908-4.461,9.633-4.461
			c3.583,0,7.118,1.54,9.048,3.749c3.669-3.888,11.194-5.225,17.923-6.416c1.545-0.276,3.046-0.542,4.437-0.829
			c2.198-3.518,4.928-5.163,8.55-5.163c2.006,0,4.004,0.483,6.119,0.998c2.242,0.542,4.534,1.123,6.853,1.037
			c3.743-2.457,7.14-3.704,10.108-3.704c3.277,0,7.369,1.529,9.65,8.183c2.838-4.394,8.346-7.62,13.771-7.62
			c3.735,0,6.82,1.54,8.896,4.378c2.252-2.75,5.933-4.596,9.501-4.596c2.227,0,6.107,0.734,8.88,5.248
			c2.104-2.413,4.6-3.634,7.445-3.634c3.992,0,7.471,2.497,8.931,3.718c2.093-0.906,7.706-3.013,14.457-3.013
			c6.935,0,12.942,2.195,17.885,6.537c2.695-2.649,7.045-4.037,12.695-4.037c2.718,0,5.039,0.32,6.217,0.515
			c4.353-4.908,9.585-7.709,14.457-7.709c4.545,0,8.104,2.507,9.728,6.769c3.877-0.662,7.057-0.984,9.705-0.984
			c9.62,0,11.172,4.429,12.037,9.497c6.529-2.492,12.416-3.753,17.518-3.753c6.397,0,10.182,1.988,12.1,3.455
			c1.202-1.816,3.336-2.91,5.89-2.91c3.846,0,8.049,2.503,9.183,7.184c4.019-1.531,7.801-2.358,10.791-2.358
			c3.122,0,5.367,0.882,6.671,2.63c1.116,1.486,1.457,3.495,1.021,5.992c6.436,0.054,10.935,1.903,13.371,5.494
			c1.847,2.726,2.147,5.937,1.927,8.629c2.488-2.34,6.094-4.742,10.412-4.742c2.544,0,5.044,0.841,7.448,2.5
			c2.998-1.559,6.271-2.351,9.749-2.351c9.025,0,16.336,5.268,16.644,5.49l0.435,0.314l0.109,0.531
			c1.628,8.018-2.736,9.281-18.967,14.004l-4.563,1.325c-18.385,6.802-21.452,9.835-21.571,9.96
			c-0.426,0.544-12.053,14.994-29.21,14.994c-3.02,0-6.061-0.461-9.036-1.368c-7.06-1.974-13.887-2.979-20.257-2.979
			c-13.426,0-20.427,4.51-20.496,4.553c-0.35,0.298-11.44,9.345-24.268,9.345c-2.362,0-4.655-0.312-6.824-0.933
			c-4.447-1.269-8.117-2.369-11.282-3.322c-7.407-2.219-11.885-3.564-16.852-4.248c-6.812-0.919-20.093,4.833-20.218,4.889
			C261.061,316.113,253.893,318.209,247.058,318.209z M207.133,304.29c10.094,0,19.453,4.446,22.527,5.908l0.661,0.312
			c0.306,0.139,0.719,0.364,1.232,0.647c2.539,1.388,7.822,4.274,15.504,4.274c6.351,0,13.054-1.975,19.933-5.871
			c0.672-0.299,14.385-6.205,21.834-5.156c5.184,0.714,9.732,2.08,17.272,4.341c3.149,0.946,6.812,2.046,11.245,3.31
			c1.922,0.549,3.96,0.829,6.062,0.829c11.841,0,22.512-8.71,22.618-8.798c0.421-0.289,7.805-5.102,22.146-5.102
			c6.621,0,13.698,1.039,21.038,3.09c2.747,0.835,5.512,1.255,8.255,1.255c15.791,0,26.981-13.868,27.091-14.011
			c0.32-0.377,3.444-3.633,22.822-10.793l4.654-1.367c15.769-4.582,17.96-5.396,17.128-10.23c-1.64-1.072-7.646-4.662-14.57-4.662
			c-3.295,0-6.377,0.813-9.163,2.42l-0.803,0.463l-0.735-0.563c-2.132-1.636-4.315-2.468-6.496-2.468
			c-6.746,0-11.73,7.766-11.782,7.845l-2.464-1.254c0.025-0.067,2.739-7.097-0.396-11.702c-2.086-3.062-6.301-4.48-12.771-4.242
			l-1.93,0.077l0.542-1.853c0.719-2.463,0.672-4.266-0.147-5.355c-0.941-1.257-2.94-1.519-4.452-1.519
			c-2.99,0-7.136,1.02-11.368,2.804l-1.812,0.763l-0.114-1.961c-0.244-4.179-3.622-6.428-6.68-6.428c-0.8,0-3.447,0.199-4.062,2.797
			l-0.688,2.929l-1.784-2.423c-0.107-0.146-3.052-3.852-11.455-3.852c-5.163,0-11.249,1.409-18.096,4.189l-1.628,0.661l-0.266-1.733
			c-0.867-5.599-1.373-8.862-9.565-8.862c-2.743,0-6.147,0.381-10.398,1.156l-1.25,0.229l-0.338-1.229
			c-1.059-3.829-3.702-5.94-7.445-5.94c-4.189,0-8.992,2.743-12.862,7.339l-0.538,0.636l-0.812-0.174
			c-0.029-0.003-2.918-0.607-6.46-0.607c-3.845,0-8.956,0.709-11.482,4.078l-0.946,1.265l-1.131-1.101
			c-4.601-4.473-10.322-6.741-17.021-6.741c-7.726,0-14.017,3.085-14.082,3.118l-0.888,0.439l-0.708-0.694
			c-0.033-0.032-3.688-3.565-7.71-3.565c-2.493,0-4.68,1.417-6.501,4.208l-1.405,2.166l-1.032-2.369
			c-2.013-4.643-5.127-5.617-7.387-5.617c-3.324,0-6.896,2.169-8.306,5.047l-1.266,2.587l-1.234-2.598
			c-1.9-3.982-5.178-4.822-7.591-4.822c-5.649,0-11.612,4.394-12.764,9.4l-2.722-0.058c-1.937-10.595-7.859-12.474-16.823-6.457
			l-0.312,0.207l-0.379,0.024c-2.815,0.165-5.486-0.468-8.037-1.089c-1.947-0.477-3.793-0.922-5.465-0.922
			c-1.962,0-4.27,0.512-6.472,4.317l-0.304,0.533l-0.601,0.126c-1.588,0.343-3.328,0.651-5.119,0.97
			c-7.067,1.254-15.079,2.678-17.281,6.806l-1.468,2.762l-1.062-2.938c-0.682-1.889-3.923-3.917-7.651-3.917
			c-2.383,0-5.795,0.825-8.495,4.738l-1.188,1.719l-1.123-1.762c-1.97-3.085-5.17-3.732-7.507-3.732
			c-5.875,0-12.658,4.011-13.952,8.256l-2.719-0.343c-0.115-2.652-1.256-3.015-2.467-3.015c-4.048,0-11.3,4.988-13.753,6.915
			l-0.605,0.477l-0.728-0.266c-0.043-0.016-4.367-1.574-8.466-1.574c-5.283,0-6.176,2.525-6.471,3.354l-0.487,1.373l-1.352-0.558
			c-0.032-0.01-3.79-1.535-7.423-1.535c-3.017,0-4.92,0.994-5.829,3.044l-0.334,0.752l-0.82,0.069
			c-2.213,0.188-8.356,1.285-10.126,4.041c-0.561,0.863-0.626,1.812-0.204,2.988l0.319,0.898l-0.727,0.621
			c-0.92,0.785-0.908,1.432-0.824,1.845c0.392,1.909,4.032,4.942,13.058,7.751c13.11,4.081,21.075,6.979,21.154,7.01
			c0.581,0.291,10.504,5.469,17.909,11.993c4.4,3.878,9.967,8.013,20.413,8.013c0,0,0,0,0.004,0c5.134,0,10.969-0.965,17.837-2.943
			c4.279-1.163,8.389-1.748,12.233-1.748c5.803,0,9.698,1.32,11.786,2.031c0.429,0.146,0.778,0.262,1.05,0.339
			c0.753,0.196,2.04,0.911,4.869,2.515c6.138,3.473,17.772,10.062,24.108,9.543l0.171-0.013l0.171,0.028
			c0.749,0.123,1.431,0.182,2.161,0.182c3.312,0,8.634-1.102,23.851-6.486C199.869,304.9,203.383,304.29,207.133,304.29z"/>
	</g>
	<g>
		<path fill="#A8AAAD" d="M429.619,121.666c6.446-8.418,13.399-19.955,30.969-12.645c2.292,0.959,12.769,7.154,14.552,8.858
			c12.468,11.947-0.991,22.967-7.452,32.683c-6.205,7.503-95.863,126.795-95.863,126.795s-27.404,3.412-32.506-3.896
			C339.982,271.255,423.17,130.084,429.619,121.666z"/>
		<path fill="#3C2517" d="M358.251,280.932c-11.51,0-18.45-1.925-21.212-5.877c-0.486-0.697-0.629-1.58-0.381-2.395
			c1.114-3.695,85.935-146.388,90.756-152.681l1.33-1.758c4.781-6.37,10.732-14.298,21.563-14.298c3.484,0,7.305,0.85,11.348,2.536
			c2.297,0.956,13.219,7.329,15.401,9.415c11.991,11.489,3.261,22.72-3.121,30.924c-1.444,1.853-2.808,3.608-3.935,5.305
			c-0.055,0.08-0.112,0.156-0.175,0.232c-6.098,7.365-94.892,125.503-95.785,126.69c-0.454,0.603-1.13,0.996-1.878,1.092
			C371.899,280.148,365.521,280.932,358.251,280.932z M342.762,272.878c1.777,1.091,5.936,2.5,15.489,2.5
			c5.156,0,9.945-0.424,12.07-0.646c9.064-12.061,88.485-117.695,95.135-125.827c1.229-1.827,2.686-3.702,4.096-5.52
			c7.491-9.629,11.475-16.02,3.665-23.501c-1.423-1.359-11.527-7.391-13.701-8.299c-3.36-1.399-6.46-2.107-9.207-2.107
			c-8.056,0-12.666,6.141-17.125,12.078l-1.356,1.794C426.008,130.945,351.962,256.339,342.762,272.878z"/>
	</g>
	<g>
		<path fill="#3C2517" d="M361.87,282.216c-23.512,0-32.319-10.271-32.788-10.842c-0.977-1.185-0.81-2.937,0.375-3.909
			c1.184-0.975,2.921-0.803,3.895,0.36c0.2,0.225,13.814,15.383,53.622,5.405c1.482-0.356,2.998,0.529,3.368,2.021
			c0.374,1.484-0.525,2.992-2.017,3.367C377.952,281.221,369.195,282.216,361.87,282.216z"/>
	</g>
	<g>
		<path fill="#D1923D" d="M68.655,271.324c0,0,3.247-10.588,11.731-4.598c8.484,5.989,16.718-1.838,16.718-1.838
			s11.482-3.885,17.72,3.219c15.221-9.369,11.479,6.854,10.229,9.599"/>
		<path fill="#BA7A2D" d="M126.317,278.279l-2.529-1.147c0.822-1.804,2.169-8.225,0.135-10.021
			c-1.282-1.133-4.255-0.354-8.371,2.178l-0.999,0.613l-0.771-0.879c-5.065-5.773-14.283-3.396-15.963-2.902
			c-3.288,2.962-10.977,6.861-18.236,1.74c-2.02-1.428-3.818-1.894-5.325-1.377c-2.918,0.992-4.263,5.205-4.277,5.25l-2.652-0.817
			c0.072-0.229,1.763-5.603,6.021-7.058c2.409-0.816,5.047-0.234,7.842,1.733c7.463,5.271,14.886-1.641,14.958-1.711l0.513-0.31
			c0.487-0.162,11.529-3.801,18.4,2.775c4.959-2.854,8.461-3.287,10.696-1.32C129.329,268.182,127.229,276.27,126.317,278.279z"/>
	</g>
	<g>
		<path fill="#D1923D" d="M163.735,257.492c0,0,4.494-8.905,13.479-4.702c7.732-7.277,15.632-2.256,18.461-1.127
			c6.991-6.648,15.723-0.414,16.471,10.323"/>
		<path fill="#BA7A2D" d="M210.763,262.08c-0.382-5.46-2.994-9.911-6.66-11.332c-2.492-0.971-5.148-0.287-7.471,1.918l-0.646,0.613
			l-0.821-0.326c-0.342-0.135-0.749-0.324-1.218-0.538c-3.356-1.548-9.606-4.422-15.783,1.385l-0.688,0.646l-0.854-0.399
			c-7.619-3.564-11.488,3.761-11.648,4.072l-2.475-1.253c1.696-3.372,6.853-8.706,14.447-5.7c7.336-6.261,14.878-2.791,18.163-1.272
			c0.105,0.047,0.211,0.095,0.309,0.143c2.962-2.45,6.446-3.14,9.691-1.875c4.661,1.806,7.968,7.198,8.425,13.728L210.763,262.08z"
			/>
	</g>
	<g>
		<path fill="#D1923D" d="M184.445,294.675c0,0-0.999-12.229,6.739-8.235c7.485-8.483,20.962-0.805,20.962-0.805
			s12.474-12.919,14.974,2.928c11.231-9.361,13.477-1.627,16.471,6.112"/>
		<path fill="#BA7A2D" d="M242.298,295.177l-0.411-1.071c-1.52-3.961-2.947-7.698-5.418-8.342c-1.937-0.515-4.781,0.795-8.458,3.862
			l-1.883,1.567l-0.378-2.416c-0.414-2.615-1.365-5.879-3.553-6.572c-3.013-0.939-7.66,2.954-9.052,4.396l-0.749,0.774l-0.933-0.531
			c-0.131-0.077-12.591-7.021-19.235,0.513l-0.716,0.81l-0.967-0.497c-1.353-0.7-2.38-0.829-3.049-0.386
			c-1.62,1.079-1.824,5.366-1.663,7.274l-2.773,0.229c-0.061-0.769-0.509-7.543,2.896-9.813c1.348-0.902,2.993-0.969,4.904-0.213
			c7.061-6.906,17.801-2.422,21.039-0.82c1.903-1.77,6.816-5.746,11.133-4.383c2.38,0.75,4.055,2.943,4.992,6.523
			c3.673-2.71,6.619-3.668,9.145-3.01c3.852,1.005,5.53,5.394,7.311,10.039l0.407,1.058L242.298,295.177z"/>
	</g>
	<g>
		<path fill="#D1923D" d="M258.564,267.924c0,0-3.742-12.181,8.984-7.436c4.491-11.234,13.227-7.491,14.723-6.243
			c7.986-6.233,15.222,3.993,15.222,3.993s14.723-4.988,15.722,8.488"/>
		<path fill="#BA7A2D" d="M257.238,268.331c-0.189-0.619-1.764-6.087,1.205-8.888c1.744-1.646,4.547-1.879,8.34-0.685
			c1.85-3.956,4.447-6.38,7.738-7.208c3.121-0.793,6.076,0.126,7.707,1.018c2.147-1.424,4.433-1.971,6.806-1.625
			c4.312,0.641,7.647,4.109,8.975,5.701c2.241-0.582,7.921-1.643,12.077,1.107c2.693,1.78,4.212,4.768,4.517,8.869l-2.771,0.208
			c-0.236-3.205-1.341-5.479-3.277-6.763c-4.062-2.689-10.552-0.534-10.617-0.514l-0.975,0.332l-0.604-0.844
			c-0.031-0.047-3.403-4.725-7.738-5.352c-1.93-0.28-3.713,0.262-5.493,1.648l-0.884,0.689l-0.861-0.715
			c-0.621-0.521-3.354-1.785-6.18-1.072c-2.699,0.684-4.844,2.957-6.366,6.762l-0.501,1.258l-1.271-0.473
			c-3.256-1.213-5.641-1.333-6.715-0.323c-1.465,1.382-0.808,4.92-0.457,6.046L257.238,268.331z"/>
	</g>
</g>
</svg>
