<?xml version="1.0" encoding="utf-8"?>
<!-- Generator: Adobe Illustrator 16.0.0, SVG Export Plug-In . SVG Version: 6.00 Build 0)  -->
<!DOCTYPE svg PUBLIC "-//W3C//DTD SVG 1.1//EN" "http://www.w3.org/Graphics/SVG/1.1/DTD/svg11.dtd">
<svg version="1.1" id="Layer_1" xmlns="http://www.w3.org/2000/svg" xmlns:xlink="http://www.w3.org/1999/xlink" x="0px" y="0px"
	 width="500px" height="500px" viewBox="0 0 500 500" enable-background="new 0 0 500 500" xml:space="preserve">
<g id="Layer_1_copy_60">
	<g>
		<g>
			<g>
				<line fill="none" x1="61.167" y1="217.408" x2="61.167" y2="280.419"/>
			</g>
		</g>
		<g>
			<g>
				<path fill="#27140E" d="M61.167,282.939c-1.39,0-2.521-1.129-2.521-2.521v-63.011c0-1.392,1.131-2.521,2.521-2.521
					c1.394,0,2.521,1.129,2.521,2.521v63.011C63.688,281.811,62.561,282.939,61.167,282.939z"/>
			</g>
		</g>
		<g>
			<g>
				<path fill="#9DD2A4" d="M78.282,377.32c0,9.449-7.666,17.115-17.115,17.115l0,0c-9.453,0-17.114-7.666-17.114-17.115v-78.573
					c0-9.451,7.661-17.117,17.114-17.117l0,0c9.449,0,17.115,7.666,17.115,17.117V377.32z"/>
			</g>
		</g>
		<g>
			<g>
				<path fill="#27140E" d="M61.167,396.956c-10.824,0-19.636-8.806-19.636-19.636v-78.573c0-10.829,8.812-19.64,19.636-19.64
					c10.829,0,19.641,8.811,19.641,19.64v78.573C80.808,388.15,71.996,396.956,61.167,396.956z M61.167,284.152
					c-8.046,0-14.594,6.55-14.594,14.595v78.573c0,8.046,6.548,14.594,14.594,14.594s14.594-6.548,14.594-14.594v-78.573
					C75.761,290.702,69.213,284.152,61.167,284.152z"/>
			</g>
		</g>
		<g>
			<g>
				<path fill="#636973" d="M102.011,160.446c0,31.461-18.284,56.962-40.844,56.962c-22.552,0-40.836-25.501-40.836-56.962
					c0-31.459,18.284-56.96,40.836-56.96C83.727,103.486,102.011,128.987,102.011,160.446z"/>
			</g>
		</g>
		<g>
			<g>
				<path fill="#27140E" d="M61.167,219.928c-23.91,0-43.362-26.685-43.362-59.481c0-32.798,19.452-59.482,43.362-59.482
					c23.915,0,43.362,26.684,43.362,59.482C104.529,193.243,85.082,219.928,61.167,219.928z M61.167,106.009
					c-21.126,0-38.323,24.421-38.323,54.438c0,30.017,17.197,54.441,38.323,54.441c21.132,0,38.324-24.424,38.324-54.441
					C99.491,130.43,82.299,106.009,61.167,106.009z"/>
			</g>
		</g>
		<g>
			<g>
				<path fill="#27140E" d="M88.009,162.968c-1.395,0-2.522-1.13-2.522-2.521c0-19.25-10.91-34.908-24.319-34.908
					c-1.39,0-2.521-1.128-2.521-2.521c0-1.392,1.131-2.521,2.521-2.521c16.19,0,29.362,17.922,29.362,39.95
					C90.529,161.838,89.397,162.968,88.009,162.968z"/>
			</g>
		</g>
		<g>
			<g>
				<g>
					<g>
						<line fill="none" x1="412.596" y1="175.459" x2="412.596" y2="103.554"/>
					</g>
				</g>
			</g>
		</g>
		<g>
			<g>
				<g>
					<g>
						<path fill="#27140E" d="M412.596,178.046c-1.431,0-2.591-1.159-2.591-2.587v-71.905c0-1.43,1.16-2.589,2.591-2.589
							c1.434,0,2.593,1.159,2.593,2.589v71.905C415.188,176.887,414.028,178.046,412.596,178.046z"/>
					</g>
				</g>
			</g>
		</g>
		<g>
			<g>
				<g>
					<g>
						<line fill="none" x1="439.759" y1="103.554" x2="439.759" y2="175.459"/>
					</g>
				</g>
			</g>
		</g>
		<g>
			<g>
				<g>
					<g>
						<path fill="#27140E" d="M439.759,178.046c-1.432,0-2.592-1.159-2.592-2.587v-71.905c0-1.43,1.16-2.589,2.592-2.589
							c1.429,0,2.584,1.159,2.584,2.589v71.905C442.343,176.887,441.188,178.046,439.759,178.046z"/>
					</g>
				</g>
			</g>
		</g>
		<g>
			<g>
				<g>
					<g>
						<line fill="none" x1="466.124" y1="103.554" x2="466.124" y2="175.459"/>
					</g>
				</g>
			</g>
		</g>
		<g>
			<g>
				<g>
					<g>
						<path fill="#27140E" d="M466.124,178.046c-1.428,0-2.592-1.159-2.592-2.587v-71.905c0-1.43,1.164-2.589,2.592-2.589
							c1.425,0,2.589,1.159,2.589,2.589v71.905C468.713,176.887,467.549,178.046,466.124,178.046z"/>
					</g>
				</g>
			</g>
		</g>
		<g>
			<g>
				<g>
					<g>
						<line fill="none" x1="439.759" y1="212.562" x2="439.759" y2="277.277"/>
					</g>
				</g>
			</g>
		</g>
		<g>
			<g>
				<g>
					<g>
						<path fill="#27140E" d="M439.759,279.859c-1.432,0-2.592-1.158-2.592-2.582v-64.715c0-1.431,1.16-2.591,2.592-2.591
							c1.429,0,2.584,1.16,2.584,2.591v64.715C442.343,278.701,441.188,279.859,439.759,279.859z"/>
					</g>
				</g>
			</g>
		</g>
		<g>
			<g>
				<g>
					<g>
						
							<path fill="#27140E" stroke="#211010" stroke-width="6.5775" stroke-linecap="round" stroke-linejoin="round" stroke-miterlimit="10" d="
							M421.383,205.818"/>
					</g>
				</g>
			</g>
		</g>
		<g>
			<g>
				<g>
					<g>
						
							<path fill="#27140E" stroke="#211010" stroke-width="6.5775" stroke-linecap="round" stroke-linejoin="round" stroke-miterlimit="10" d="
							M470.116,205.818"/>
					</g>
				</g>
			</g>
		</g>
		<g>
			<g>
				<g>
					<g>
						<path fill="#9DD2A4" d="M457.339,376.784c0,9.707-7.876,17.583-17.58,17.583l0,0c-9.705,0-17.576-7.876-17.576-17.583v-80.687
							c0-9.705,7.871-17.58,17.576-17.58l0,0c9.704,0,17.58,7.875,17.58,17.58V376.784z"/>
					</g>
				</g>
			</g>
		</g>
		<g>
			<g>
				<g>
					<g>
						<path fill="#27140E" d="M439.759,396.956c-11.12,0-20.172-9.048-20.172-20.172v-80.687c0-11.121,9.052-20.168,20.172-20.168
							c11.122,0,20.163,9.047,20.163,20.168v80.687C459.922,387.908,450.881,396.956,439.759,396.956z M439.759,281.107
							c-8.263,0-14.989,6.725-14.989,14.99v80.687c0,8.268,6.728,14.993,14.989,14.993c8.268,0,14.988-6.727,14.988-14.993v-80.687
							C454.747,287.832,448.025,281.107,439.759,281.107z"/>
					</g>
				</g>
			</g>
		</g>
		<g>
			<g>
				<g>
					<g>
						<polygon fill="#636973" points="412.596,177.587 466.124,177.587 466.124,209.806 412.709,209.806 						"/>
					</g>
				</g>
			</g>
		</g>
		<g>
			<g>
				<g>
					<g>
						<path fill="#27140E" d="M466.124,212.399h-53.415c-1.425,0-2.589-1.154-2.592-2.582l-0.112-32.221
							c0-0.688,0.272-1.352,0.759-1.838c0.485-0.487,1.146-0.76,1.832-0.76h53.528c1.425,0,2.589,1.154,2.589,2.589v32.219
							C468.713,211.238,467.549,212.399,466.124,212.399z M415.289,207.219h48.243v-27.044h-48.334L415.289,207.219z"/>
					</g>
				</g>
			</g>
		</g>
		<path fill="#9DD2A4" d="M395.991,248.974c0,80.273-65.093,145.367-145.364,145.367c-80.294,0-145.389-65.094-145.389-145.367
			c0-80.296,65.095-145.392,145.389-145.392C330.898,103.582,395.991,168.678,395.991,248.974z"/>
		<path fill="#27140E" d="M250.627,396.956c-81.611,0-148.008-66.382-148.008-147.981c0-81.61,66.396-148.008,148.008-148.008
			c81.598,0,147.983,66.398,147.983,148.008C398.61,330.574,332.225,396.956,250.627,396.956z M250.627,106.199
			c-78.73,0-142.772,64.048-142.772,142.775c0,78.715,64.042,142.75,142.772,142.75c78.706,0,142.748-64.035,142.748-142.75
			C393.375,170.247,329.333,106.199,250.627,106.199z"/>
		<path fill="#55B575" d="M355.286,248.974c0,57.788-46.867,104.658-104.659,104.658c-57.815,0-104.685-46.87-104.685-104.658
			c0-57.816,46.869-104.684,104.685-104.684C308.419,144.29,355.286,191.158,355.286,248.974z"/>
		<path fill="#27140E" d="M250.627,356.245c-59.167,0-107.3-48.116-107.3-107.271c0-59.164,48.133-107.3,107.3-107.3
			c59.154,0,107.271,48.136,107.271,107.3C357.898,308.128,309.781,356.245,250.627,356.245z M250.627,146.91
			c-56.279,0-102.068,45.788-102.068,102.064c0,56.262,45.789,102.043,102.068,102.043c56.266,0,102.046-45.781,102.046-102.043
			C352.673,192.698,306.893,146.91,250.627,146.91z"/>
		<path fill="#27140E" d="M323.344,251.589c-1.443,0-2.615-1.168-2.615-2.615c0-38.667-31.449-70.126-70.102-70.126
			c-1.444,0-2.619-1.172-2.619-2.619c0-1.446,1.175-2.616,2.619-2.616c41.54,0,75.333,33.81,75.333,75.361
			C325.96,250.421,324.787,251.589,323.344,251.589z"/>
	</g>
</g>
</svg>
