<?xml version="1.0" encoding="utf-8"?>
<!-- Generator: Adobe Illustrator 16.0.0, SVG Export Plug-In . SVG Version: 6.00 Build 0)  -->
<!DOCTYPE svg PUBLIC "-//W3C//DTD SVG 1.1//EN" "http://www.w3.org/Graphics/SVG/1.1/DTD/svg11.dtd">
<svg version="1.1" id="Layer_1" xmlns="http://www.w3.org/2000/svg" xmlns:xlink="http://www.w3.org/1999/xlink" x="0px" y="0px"
	 width="500px" height="500px" viewBox="0 0 500 500" enable-background="new 0 0 500 500" xml:space="preserve">
<g id="Layer_1_copy_3">
	<g>
		<path fill="#51BFA3" d="M385.199,227.527c-39.438,0-71.397,31.965-71.397,71.396c0,39.433,31.96,71.396,71.397,71.396
			c39.435,0,71.395-31.963,71.395-71.396C456.594,259.492,424.634,227.527,385.199,227.527z M385.199,354.389
			c-30.636,0-55.467-24.83-55.467-55.467c0-30.63,24.83-55.465,55.467-55.465c30.633,0,55.465,24.835,55.465,55.465
			C440.664,329.559,415.832,354.389,385.199,354.389z"/>
		<path fill="#27140E" d="M385.199,373.618c-41.188,0-74.697-33.507-74.697-74.695c0-41.187,33.51-74.697,74.697-74.697
			c41.186,0,74.697,33.51,74.697,74.697C459.896,340.111,426.385,373.618,385.199,373.618z M385.199,230.827
			c-37.547,0-68.102,30.549-68.102,68.096c0,37.552,30.555,68.097,68.102,68.097s68.098-30.545,68.098-68.097
			C453.297,261.375,422.746,230.827,385.199,230.827z M385.199,357.688c-32.406,0-58.77-26.359-58.77-58.766
			c0-32.402,26.362-58.765,58.77-58.765c32.403,0,58.767,26.362,58.767,58.765C443.966,331.328,417.604,357.688,385.199,357.688z
			 M385.199,246.759c-28.764,0-52.17,23.401-52.17,52.164c0,28.767,23.406,52.165,52.17,52.165
			c28.763,0,52.167-23.398,52.167-52.165C437.366,270.16,413.962,246.759,385.199,246.759z"/>
	</g>
	<g>
		<path fill="#51BFA3" d="M107.908,228.533c-39.438,0-71.397,31.964-71.397,71.395c0,39.438,31.96,71.395,71.397,71.395
			c39.431,0,71.394-31.957,71.394-71.395C179.302,260.497,147.339,228.533,107.908,228.533z M107.908,355.393
			c-30.636,0-55.467-24.828-55.467-55.466c0-30.635,24.831-55.464,55.467-55.464c30.633,0,55.464,24.829,55.464,55.464
			C163.372,330.564,138.541,355.393,107.908,355.393z"/>
		<path fill="#27140E" d="M107.908,374.625c-41.188,0-74.701-33.506-74.701-74.697c0-41.186,33.513-74.694,74.701-74.694
			c41.185,0,74.694,33.509,74.694,74.694C182.603,341.119,149.093,374.625,107.908,374.625z M107.908,231.834
			c-37.551,0-68.101,30.547-68.101,68.093c0,37.554,30.55,68.099,68.101,68.099c37.544,0,68.094-30.545,68.094-68.099
			C176.002,262.381,145.452,231.834,107.908,231.834z M107.908,358.695c-32.408,0-58.771-26.36-58.771-58.769
			c0-32.399,26.362-58.764,58.771-58.764c32.404,0,58.764,26.362,58.764,58.764C166.672,332.334,140.312,358.695,107.908,358.695z
			 M107.908,247.763c-28.767,0-52.17,23.403-52.17,52.165c0,28.768,23.403,52.166,52.17,52.166c28.76,0,52.163-23.398,52.163-52.166
			C160.071,271.166,136.668,247.763,107.908,247.763z"/>
	</g>
	<g>
		<path fill="#27140E" d="M107.908,358.064c-1.827,0-3.3-1.477-3.3-3.299c0-1.82,1.473-3.298,3.3-3.298
			c28.972,0,52.544-23.573,52.544-52.546c0-1.82,1.477-3.298,3.3-3.298c1.823,0,3.301,1.478,3.301,3.298
			C167.053,331.537,140.521,358.064,107.908,358.064z"/>
	</g>
	<g>
		<path fill="#27140E" d="M382.673,336.775c-1.217,0-2.199-0.981-2.199-2.198c0-1.218,0.982-2.2,2.199-2.2
			c20.125,0,36.495-16.372,36.495-36.496c0-1.217,0.987-2.199,2.201-2.199c1.22,0,2.202,0.982,2.202,2.199
			C423.571,318.434,405.225,336.775,382.673,336.775z"/>
	</g>
	<g>
		<path fill="#27140E" d="M107.094,337.938c-1.218,0-2.201-0.982-2.201-2.197c0-1.219,0.983-2.202,2.201-2.202
			c20.124,0,36.495-16.373,36.495-36.497c0-1.216,0.983-2.201,2.201-2.201c1.214,0,2.197,0.985,2.197,2.201
			C147.987,319.592,129.642,337.938,107.094,337.938z"/>
	</g>
	<g>
		<path fill="#6B6C6C" d="M283.719,307.139c0,12.577-10.197,22.782-22.775,22.782c-12.583,0-22.781-10.205-22.781-22.782
			c0-12.582,10.198-22.783,22.781-22.783C273.521,284.355,283.719,294.557,283.719,307.139z"/>
		<path fill="#27140E" d="M260.943,333.219c-14.382,0-26.085-11.701-26.085-26.08c0-14.383,11.703-26.084,26.085-26.084
			c14.379,0,26.078,11.701,26.078,26.084C287.021,321.518,275.322,333.219,260.943,333.219z M260.943,287.654
			c-10.743,0-19.485,8.74-19.485,19.484c0,10.745,8.742,19.48,19.485,19.48c10.74,0,19.476-8.735,19.476-19.48
			C280.419,296.395,271.686,287.654,260.943,287.654z"/>
	</g>
	<g>
		<path fill="#4D4D4D" d="M119.533,298.93c0,6.422-5.207,11.627-11.625,11.627c-6.421,0-11.628-5.205-11.628-11.627
			c0-6.42,5.207-11.621,11.628-11.621C114.326,287.309,119.533,292.51,119.533,298.93z"/>
		<path fill="#27140E" d="M107.908,313.855c-8.231,0-14.927-6.694-14.927-14.926c0-8.229,6.695-14.924,14.927-14.924
			c8.226,0,14.925,6.694,14.925,14.924C122.833,307.161,116.134,313.855,107.908,313.855z M107.908,290.607
			c-4.591,0-8.324,3.735-8.324,8.322c0,4.59,3.733,8.324,8.324,8.324c4.587,0,8.32-3.734,8.32-8.324
			C116.229,294.343,112.495,290.607,107.908,290.607z"/>
	</g>
	<g>
		<path fill="#4D4D4D" d="M396.824,298.93c0,6.422-5.203,11.627-11.625,11.627c-6.424,0-11.627-5.205-11.627-11.627
			c0-6.42,5.203-11.621,11.627-11.621C391.621,287.309,396.824,292.51,396.824,298.93z"/>
		<path fill="#27140E" d="M385.199,313.855c-8.231,0-14.928-6.694-14.928-14.926c0-8.229,6.695-14.924,14.928-14.924
			c8.229,0,14.925,6.694,14.925,14.924C400.124,307.161,393.428,313.855,385.199,313.855z M385.199,290.607
			c-4.594,0-8.327,3.735-8.327,8.322c0,4.59,3.733,8.324,8.327,8.324c4.592,0,8.324-3.734,8.324-8.324
			C393.523,294.343,389.791,290.607,385.199,290.607z"/>
	</g>
	<g>
		<path fill="#27140E" d="M115.595,293.529c-0.398,0-0.799-0.068-1.189-0.219c-1.701-0.658-2.545-2.568-1.886-4.271l55.354-143.136
			c0.492-1.271,1.713-2.109,3.077-2.109h41.01c1.823,0,3.3,1.477,3.3,3.299c0,1.824-1.477,3.302-3.3,3.302h-38.745l-54.544,141.026
			C118.166,292.73,116.918,293.529,115.595,293.529z"/>
	</g>
	<g>
		<path fill="#27140E" d="M283.713,310.441c-1.682,0-3.122-1.289-3.281-3c-0.164-1.819,1.176-3.42,2.985-3.59l89.854-8.209
			c1.816-0.166,3.426,1.17,3.588,2.986c0.168,1.814-1.168,3.423-2.988,3.592l-89.85,8.204
			C283.917,310.434,283.818,310.441,283.713,310.441z"/>
	</g>
	<g>
		<path fill="#27140E" d="M379.841,291.924c-1.132,0-2.233-0.581-2.847-1.631l-56.665-96.615H154.213
			c-1.823,0-3.304-1.479-3.304-3.3c0-1.822,1.48-3.302,3.304-3.302h168.006c1.168,0,2.251,0.623,2.844,1.631l57.625,98.246
			c0.924,1.574,0.395,3.596-1.179,4.518C380.986,291.777,380.41,291.924,379.841,291.924z"/>
	</g>
	<g>
		<path fill="#27140E" d="M272.145,290.607c-0.49,0-1-0.111-1.471-0.349c-1.631-0.815-2.293-2.802-1.473-4.43l56.497-112.875
			c0.821-1.63,2.8-2.285,4.428-1.473c1.629,0.816,2.291,2.798,1.473,4.428l-56.495,112.874
			C274.523,289.938,273.357,290.607,272.145,290.607z"/>
	</g>
	<g>
		<path fill="#27140E" d="M245.56,293.631c-0.752,0-1.506-0.256-2.129-0.779l-97.933-82.945c-1.39-1.176-1.562-3.262-0.384-4.65
			c1.178-1.39,3.261-1.565,4.653-0.385l97.926,82.941c1.394,1.181,1.566,3.26,0.388,4.652
			C247.431,293.232,246.496,293.631,245.56,293.631z"/>
	</g>
	<g>
		<path fill="#51BFA3" d="M292.841,172.803c18.064,1.233,41.002,2.28,51.823,0c10.826-2.277,25.634-12.023,12.534-22.213
			c-10.456-8.131-21.016-1.655-27.171,1.87c-1.557,0.893-6.024,2.297-7.993,2.628c-9.606,1.61-30.511,4.485-34.324,5.127
			C283.113,160.988,274.77,171.572,292.841,172.803z"/>
		<path fill="#27140E" d="M325.336,177.448h-0.003c-8.685,0-19.389-0.442-32.722-1.352c-11.393-0.776-13.992-5.22-14.168-8.81
			c-0.242-4.865,4.57-9.628,8.717-10.326c1.496-0.251,5.596-0.844,10.619-1.569c7.964-1.15,17.88-2.58,23.708-3.558
			c1.748-0.293,5.809-1.609,6.897-2.235l0.529-0.302c4.107-2.362,10.312-5.929,17.36-5.929c4.649,0,9.006,1.554,12.943,4.619
			c6.448,5.013,6.898,9.964,6.146,13.238c-1.883,8.17-13.008,13.334-20.021,14.809C340.823,176.987,334.278,177.448,325.336,177.448
			z M346.275,149.968c-5.286,0-10.366,2.919-14.074,5.051l-0.532,0.306c-2.029,1.164-6.951,2.66-9.089,3.019
			c-5.904,0.988-15.857,2.426-23.858,3.579c-4.95,0.715-8.987,1.298-10.465,1.546c-1.056,0.179-3.286,2.237-3.221,3.493
			c0.021,0.422,1.438,2.099,8.026,2.549c13.183,0.9,23.734,1.337,32.271,1.337c8.358,0,14.634-0.43,18.652-1.275
			c6.438-1.355,13.979-5.63,14.949-9.835c0.468-2.034-0.794-4.235-3.768-6.543C352.375,151.024,349.47,149.968,346.275,149.968z"/>
	</g>
</g>
</svg>
