<svg id="dance_therapy" data-name="dance therapy" xmlns="http://www.w3.org/2000/svg" viewBox="0 0 300 300"><defs><style>.cls-1{fill:#f3be79;}.cls-2{fill:#27140e;}.cls-3{fill:#3059a6;}.cls-4{fill:#f48020;}.cls-5{fill:#7c421f;}.cls-6{fill:#4b220d;}</style></defs><title>dance therapy</title><path class="cls-1" d="M136.41,194.9s15.46,46.48,16,60.37l2.88,8.65,8.13-7.08s-4.8-42.7-11-63.43-9.66-13.91-9.66-13.91Z"/><path class="cls-2" d="M155.28,265.31a1.49,1.49,0,0,1-.36-.05,1.36,1.36,0,0,1-.95-.9l-2.89-8.65a1.78,1.78,0,0,1-.07-.39c-.51-13.54-15.77-59.52-15.92-60a1.33,1.33,0,0,1,0-1l6.29-15.4a3.35,3.35,0,0,1,2.86-1.94c2,0,5.1,1.66,9.42,16,6.21,20.61,11.05,63.25,11.1,63.68a1.38,1.38,0,0,1-.47,1.2L156.2,265A1.43,1.43,0,0,1,155.28,265.31Zm-1.5-10.3,2.16,6.5,6-5.23c-.67-5.7-5.22-43.57-10.92-62.47-4.18-13.83-6.73-14-6.76-14s-.26.18-.34.32l-6,14.81C139.62,200.2,153.15,241.48,153.78,255Z"/><path class="cls-1" d="M175.82,173.9a58.34,58.34,0,0,0,33.21,0c6.4-1.74,32.37-5,32.37-5l7.48-6.45-7.73-1.64s-25.57-1.38-35.79,0-22-.08-23.44-1.71-15,2.3-15,2.3Z"/><path class="cls-2" d="M192.5,177.7h0a56,56,0,0,1-17.14-2.49,1.34,1.34,0,0,1-.67-.5l-8.91-12.49a1.39,1.39,0,0,1,.74-2.14c.39-.11,9.52-2.75,13.7-2.75a3.49,3.49,0,0,1,2.72.84c.74.64,6,1.81,13.75,1.81a63.1,63.1,0,0,0,8.48-.54,116.32,116.32,0,0,1,14-.62c10.52,0,21.93.61,22,.61l.21,0,7.74,1.64a1.4,1.4,0,0,1,.62,2.41L242.3,170a1.38,1.38,0,0,1-.73.32c-.26,0-25.94,3.25-32.18,5A58,58,0,0,1,192.5,177.7Zm-15.82-5a56,56,0,0,0,15.82,2.2h0a55.29,55.29,0,0,0,16.12-2.35c6.09-1.65,28.71-4.54,32.19-5l5-4.35-4.88-1c-1.19-.06-11.89-.6-21.79-.6a112.29,112.29,0,0,0-13.64.6,66.89,66.89,0,0,1-8.85.56c-4.51,0-13.48-.55-15.67-2.58a3.14,3.14,0,0,0-.8-.07c-2.72,0-8.15,1.34-11,2.11Z"/><path class="cls-3" d="M133.79,194.44s14.41,1.84,20.18-1.83L151.61,173l22.55,5,8.39-20.36s-13.9-.09-25.69-5.07S128,148.83,128,148.83v14.95Z"/><path class="cls-2" d="M141.71,196.29h0a70.69,70.69,0,0,1-8.1-.47,1.38,1.38,0,0,1-1.19-1.12L126.65,164a2.28,2.28,0,0,1,0-.26V148.83a1.39,1.39,0,0,1,1.28-1.39c.08,0,2.11-.16,5.27-.16,6.79,0,16.51.69,24.22,3.94,11.39,4.81,25,5,25.16,5a1.38,1.38,0,0,1,1.27,1.91l-8.39,20.36a1.37,1.37,0,0,1-1.58.82l-20.63-4.56,2.12,17.72a1.38,1.38,0,0,1-.63,1.34C152.1,195.45,147.72,196.29,141.71,196.29ZM135,193.18c1.34.13,3.9.33,6.75.33,4.82,0,8.52-.57,10.77-1.66l-2.25-18.74a1.4,1.4,0,0,1,.45-1.19,1.37,1.37,0,0,1,1.23-.33l21.41,4.73,7.18-17.43c-4.34-.22-14.82-1.16-24.18-5.12-7.66-3.23-17.79-3.71-23.14-3.71-1.59,0-2.89,0-3.77.08v13.51Z"/><path class="cls-1" d="M172.91,99.45s23-2.8,44,2.19a18.79,18.79,0,0,0,5.64.65s10-1.44,13,.79,11.8,5.9,11.8,5.9,6.29,4.45-2.5,3.8c-6.38-.48-11.53-3.93-12.45-1.57s9.58,8.81,2.51,8c-4-1-4.39-1.68-6.44-2.91-1.79-1.08-4.2-6.69-4.2-7.08s-49.91,2.38-49.91,2.38l-11.83-6.45Z"/><path class="cls-2" d="M235.91,120.34a10.49,10.49,0,0,1-1.16-.07,14.55,14.55,0,0,1-5.76-2.36c-.32-.21-.68-.45-1.1-.7-1.65-1-3.7-5-4.42-7-6.2,0-48.66,2.39-49.1,2.42a1.14,1.14,0,0,1-.55-.13L162,106.09a1,1,0,0,1-.55-.91,1.07,1.07,0,0,1,.54-.92l10.41-5.73a1.29,1.29,0,0,1,.38-.12,146.18,146.18,0,0,1,15.7-.78,124.94,124.94,0,0,1,28.65,3,18.53,18.53,0,0,0,5.3.64,49.48,49.48,0,0,1,6.57-.47c3.48,0,5.81.48,7.13,1.45,2.88,2.13,11.49,5.75,11.58,5.78l.2.11c.94.67,3.07,2.4,2.53,4.09-.47,1.49-2.52,1.67-4,1.67-.49,0-1,0-1.67-.07a35.07,35.07,0,0,1-7.44-1.58,15.28,15.28,0,0,0-3.5-.81c-.41,0-.44.08-.47.15,0,.52,1.6,2.22,2.45,3.13,1.76,1.88,3,3.23,2.46,4.54C237.77,120.34,236.37,120.34,235.91,120.34Zm-10.64-11.23c.27,1,2.43,5.55,3.7,6.32.45.27.82.52,1.17.75a12.53,12.53,0,0,0,5,2c.29,0,.72,0,1,0a21.64,21.64,0,0,0-1.83-2.13c-1.79-1.91-3.49-3.72-2.87-5.3a2.33,2.33,0,0,1,2.41-1.48,16.15,16.15,0,0,1,4.1.89,33.17,33.17,0,0,0,7,1.5c.57,0,1.08.06,1.52.06a5.32,5.32,0,0,0,2-.25,6,6,0,0,0-1.62-1.65c-1.08-.46-9-3.82-11.9-6-.53-.38-2-1-5.89-1a52.74,52.74,0,0,0-6.32.44,6,6,0,0,1-.76,0,23.67,23.67,0,0,1-5.27-.7,123,123,0,0,0-28.17-2.94,145.67,145.67,0,0,0-15.25.75l-8.57,4.71,9.9,5.39c4.15-.23,43.5-2.4,49.05-2.4C224.13,108.16,225.18,108.16,225.27,109.11Z"/><path class="cls-1" d="M94.46,97.31s-4.67,5.42-6.63,1.36S57.1,62.31,57.1,62.31A7.77,7.77,0,0,0,49,61.26c-6.82,2.7-9.31,1.88-5.9-.83S45.3,58,42.81,56s-11.8.52-11.8.52-9.3-.92,6.82-5.5,24.78,5.5,24.78,5.5l30,29.37,10.49,9.3Z"/><path class="cls-2" d="M89.89,101.22a3.25,3.25,0,0,1-3-2.1C85.33,95.89,64.3,72,56.32,63h0a6.34,6.34,0,0,0-4-1.36,8.11,8.11,0,0,0-2.94.59A20.53,20.53,0,0,1,42.74,64c-1.44,0-2-.62-2.14-1.14-.43-1.23.83-2.42,1.83-3.21A13.43,13.43,0,0,0,44,58.2c-.17-.14-.43-.32-.65-.47s-.77-.53-1.22-.89a4.58,4.58,0,0,0-2.75-.54,39.22,39.22,0,0,0-8.14,1.25,1.14,1.14,0,0,1-.37,0c-1.29-.13-3.47-.57-3.6-2.11s1.53-3,10.24-5.43A30.62,30.62,0,0,1,46,48.8c11.2,0,17.14,6.78,17.39,7.07L93.35,85.16l10.45,9.27a1.05,1.05,0,0,1-.44,1.8l-8.34,2C94.28,99,92.06,101.22,89.89,101.22ZM52.29,59.55a8.37,8.37,0,0,1,5.53,2c1.24,1.38,28.93,32.51,30.94,36.65.45.93.92.93,1.13.93,1.17,0,2.94-1.54,3.78-2.51a1,1,0,0,1,.55-.33l6.71-1.63-9-8L61.88,57.29A21.89,21.89,0,0,0,46,50.88,28.89,28.89,0,0,0,38.11,52c-5.74,1.64-7.74,2.68-8.42,3.17a7.28,7.28,0,0,0,1.25.28,39.31,39.31,0,0,1,8.48-1.27,6.52,6.52,0,0,1,4,1c.42.33.8.6,1.12.82.87.61,1.62,1.13,1.65,2.06s-.72,1.74-2.51,3.17c-.31.24-.54.45-.71.61a19.72,19.72,0,0,0,5.58-1.57A10.08,10.08,0,0,1,52.29,59.55Z"/><path class="cls-1" d="M125.79,85.91A10,10,0,0,1,124.35,94c-2.76,3.8,7.47,12.85,7.47,12.85l8.52-5V96.39s-2.49-3.8,2.62-8.65-5.77-14-5.77-14Z"/><path class="cls-2" d="M131.82,108.27a1.39,1.39,0,0,1-.92-.35c-1.86-1.65-11-10.11-7.68-14.7a8.67,8.67,0,0,0,1.24-6.92,1.38,1.38,0,0,1,.32-1.34l11.4-12.19a1.4,1.4,0,0,1,1.91-.12c.76.65,7.47,6.45,7.62,11.76a5.61,5.61,0,0,1-1.79,4.34c-4.14,3.92-2.48,6.78-2.41,6.9a1.52,1.52,0,0,1,.22.74v5.51a1.39,1.39,0,0,1-.69,1.2l-8.52,5A1.37,1.37,0,0,1,131.82,108.27Zm-4.52-22a11.23,11.23,0,0,1-1.83,8.53c-1.23,1.7,2.82,6.84,6.53,10.32L139,101.1V96.74c-.61-1.28-1.9-5.31,3.05-10a2.81,2.81,0,0,0,.94-2.24c-.09-2.94-3.53-6.8-5.66-8.83Z"/><path class="cls-4" d="M124.35,94s5.76,12.85,16.78,2.1c0,0,22.54,5,31.19,2.62,7.87,8.91,0,15.21,0,15.21h-19.4s4.72,34.34,7.34,37.23S144.53,163,129.59,163.77s-16.78-55.06-16.78-55.06S98.39,106.88,89,99.8c-3.93-11,3.67-13.89,3.67-13.89S116.48,93,124.35,94Z"/><path class="cls-2" d="M129.28,165.17c-14.79,0-17.43-45.81-17.82-55.25-3.69-.61-15.19-2.9-23.34-9a1.36,1.36,0,0,1-.47-.64C83.3,88.12,92,84.64,92.13,84.61a1.43,1.43,0,0,1,.89,0c.24.07,23.84,7.06,31.51,8.09a1.35,1.35,0,0,1,1.08.8c0,.06,2.59,5.57,7.15,5.57,2.26,0,4.75-1.31,7.4-3.89a1.37,1.37,0,0,1,1.26-.37c.15,0,14.72,3.23,24.66,3.23a23.27,23.27,0,0,0,5.88-.59,1.41,1.41,0,0,1,1.41.42c2.8,3.18,4.08,6.44,3.8,9.69a11.59,11.59,0,0,1-4,7.52,1.36,1.36,0,0,1-.87.31h-17.8c2.25,16.09,5.33,33.18,6.77,34.91a2.37,2.37,0,0,1,.4,2.59c-1.84,4.48-18.72,11.61-32,12.31ZM90.12,98.94c9,6.56,22.73,8.38,22.87,8.4a1.38,1.38,0,0,1,1.21,1.33c.68,20.77,5.38,53.72,15.08,53.72h.24c13.45-.71,28.39-7.88,29.56-10.46-2.7-3.81-6.43-29.77-7.53-37.77a1.4,1.4,0,0,1,1.37-1.58h18.87a8.87,8.87,0,0,0,2.62-5.32c.18-2.25-.69-4.59-2.6-7a28.93,28.93,0,0,1-5.73.47c-9.08,0-21.4-2.47-24.53-3.13-3,2.77-6,4.17-8.79,4.17h0c-5.24,0-8.32-4.69-9.33-6.51-7.87-1.24-27.21-6.89-30.69-7.91C91.44,88.1,87.45,91,90.12,98.94Z"/><path class="cls-5" d="M153.71,255.27s3.41,3.14,9.7,1.57c0,0,7.86,11.53,0,12.85s-36.43,6.81-31.59-2.1c5.48-5.84,20.58-12.32,20.58-12.32Z"/><path class="cls-2" d="M139.66,274c-5.21,0-8.17-.89-9.3-2.79-.49-.83-.85-2.24.24-4.24a1.54,1.54,0,0,1,.21-.29c5.61-6,20.41-12.38,21-12.65a1.46,1.46,0,0,1,.55-.11h1.31a1.38,1.38,0,0,1,.94.37,8.34,8.34,0,0,0,5.33,1.64,13,13,0,0,0,3.09-.39,1.36,1.36,0,0,1,1.48.56c.54.78,5.14,7.73,3.31,12a5.14,5.14,0,0,1-4.22,3l-1.85.31C156.54,272.28,146.77,274,139.66,274Zm-6.7-5.55a1.57,1.57,0,0,0-.21,1.34c.19.33,1.29,1.43,6.91,1.43,6.87,0,16.49-1.65,21.66-2.54l1.86-.32c1.5-.25,1.93-.88,2.12-1.32.85-2-1-6-2.53-8.6a15,15,0,0,1-2.79.27h0a11.58,11.58,0,0,1-6.75-2h-.54C150.71,257.53,137.89,263.29,133,268.41Z"/><path class="cls-5" d="M240.75,160.1s3.93,6.29,0,9.44,24.12,7.86,28.58,7.08,4.71-6,0-8.22-17.57-14.59-17.57-14.59S243.12,154.6,240.75,160.1Z"/><path class="cls-2" d="M268,178.09h0c-4.38,0-27.36-3-28.85-7.25a2.09,2.09,0,0,1,.78-2.38c2.92-2.34-.27-7.57-.31-7.63a1.41,1.41,0,0,1-.1-1.28c2.66-6.19,11.78-7.09,12.17-7.13a1.41,1.41,0,0,1,1.08.39c.13.12,12.74,12.19,17.21,14.34,2.89,1.39,4.53,4,4.18,6.53a5.2,5.2,0,0,1-4.54,4.3A8.91,8.91,0,0,1,268,178.09Zm-25.84-7.9c3.18,2,19.41,5.13,25.84,5.13h0a6.56,6.56,0,0,0,1.13-.07,2.45,2.45,0,0,0,2.28-1.95c.14-1-.46-2.6-2.64-3.65-4.38-2.11-15-12.07-17.44-14.38-1.78.28-7,1.36-9,4.79C243.28,161.9,245.43,166.94,242.11,170.19Z"/><path class="cls-1" d="M118.05,64.54s-3.54-2-3.93,1.7,3.93,3.67,3.93,3.67-2.75,12.46,7.74,16,22.15,4.71,29.49-10.36c4.2-.92,3.67-4.46,3.67-4.46s-.52-2.23-2.1-1.7-12.32-21.5-12.32-21.5H132.34Z"/><path class="cls-2" d="M137.4,89.55a37.61,37.61,0,0,1-12.06-2.33c-8.35-2.82-9.52-11.08-8.89-16.13a5.36,5.36,0,0,1-2.69-1.51,4.33,4.33,0,0,1-1-3.48c.23-2.18,1.51-3.48,3.4-3.48a5.3,5.3,0,0,1,1.51.25L131.29,47a1.38,1.38,0,0,1,1.05-.49h12.19a1.4,1.4,0,0,1,1.25.78c4.39,9,9.64,18.82,11.31,20.65,1.92-.15,2.95,1.74,3.22,2.85a5.37,5.37,0,0,1-4.06,6C151.87,85.36,145.7,89.55,137.4,89.55ZM116.14,65.4c-.24,0-.53,0-.64,1a1.62,1.62,0,0,0,.32,1.33,3.61,3.61,0,0,0,2.24.81,1.34,1.34,0,0,1,1.07.52,1.36,1.36,0,0,1,.28,1.16c-.1.46-2.34,11.29,6.82,14.38a35,35,0,0,0,11.17,2.18c7.32,0,12.76-3.87,16.63-11.83a1.41,1.41,0,0,1,1-.75c2.84-.62,2.62-2.66,2.59-2.89a1.83,1.83,0,0,0-.36-.63,1.53,1.53,0,0,1-.44.12c-.92,0-2.66-.16-13.11-21.51H133L119.11,65.44a1.39,1.39,0,0,1-1.73.31A3.14,3.14,0,0,0,116.14,65.4Z"/><path class="cls-6" d="M150.3,60.74c-1.57,2.36,4.72,9.83,6.82,9.44S159.35,68,159,55.89,145.58,40.81,138.37,42C127.1,37.54,117.92,46.32,117,53.66c-5.77,4.85-.77,10.35-.77,10.35s2.21,3.55,3.91,1.45,3-7.08,2-8.52c4.06.65,6.29-1.32,6.42-3.28,3.28,2.36,6.83,2.88,12.06-.13C140.6,53.53,147.81,61.79,150.3,60.74Z"/><path class="cls-2" d="M157,71.58c-2.41,0-5.83-3.92-7.29-6.63a7.86,7.86,0,0,1-1-2.94c-2.8-.91-6.51-4.68-8.38-6.74-4.17,2.14-7.63,2.31-11,.48a6.27,6.27,0,0,1-5.41,2.7,14.22,14.22,0,0,1-2.63,7.88,2.87,2.87,0,0,1-2.29,1.18c-1.93,0-3.41-2-3.82-2.66a9.66,9.66,0,0,1-2.27-6.4,8.12,8.12,0,0,1,2.86-5.5c1.13-6.64,7.9-13.55,16.57-13.55a18,18,0,0,1,6.25,1.16,21.11,21.11,0,0,1,2.93-.19c8.87,0,18.57,4.84,18.9,15.47.37,11.86.47,15-3,15.7A1.87,1.87,0,0,1,157,71.58Zm-6.62-12.25a1.37,1.37,0,0,1,1.06.51,1.41,1.41,0,0,1,.07,1.67c-.06.13-.06.84.73,2.26,1.46,2.64,3.95,4.84,4.73,5,.91-.3,1-3.41.66-12.86-.31-10.09-10.28-12.79-16.12-12.79a18.35,18.35,0,0,0-2.86.22,1.34,1.34,0,0,1-.74-.08,15.28,15.28,0,0,0-5.58-1.11c-7.33,0-13.21,6.15-13.9,11.66a1.34,1.34,0,0,1-.48.89,5.69,5.69,0,0,0-2.27,3.89,6.87,6.87,0,0,0,1.64,4.48,1.57,1.57,0,0,1,.15.19c.48.77,1.24,1.44,1.52,1.45,0,0,0,0,.13-.15,1.52-1.87,2.41-6,1.92-6.84a1.47,1.47,0,0,1,0-1.54,1.4,1.4,0,0,1,1.34-.64,7.51,7.51,0,0,0,1.31.12c2.21,0,3.44-1.07,3.51-2.11A1.38,1.38,0,0,1,128,52.4a1.41,1.41,0,0,1,1.4.13c3.32,2.39,6.27,2.26,10.56-.21a1.39,1.39,0,0,1,1.74.3c2.88,3.29,6.84,6.82,8.16,6.82A1.39,1.39,0,0,1,150.33,59.33Z"/></svg>