<?xml version="1.0" encoding="utf-8"?>
<!-- Generator: Adobe Illustrator 16.0.0, SVG Export Plug-In . SVG Version: 6.00 Build 0)  -->
<!DOCTYPE svg PUBLIC "-//W3C//DTD SVG 1.1//EN" "http://www.w3.org/Graphics/SVG/1.1/DTD/svg11.dtd">
<svg version="1.1" id="Layer_1" xmlns="http://www.w3.org/2000/svg" xmlns:xlink="http://www.w3.org/1999/xlink" x="0px" y="0px"
	 width="500px" height="500px" viewBox="0 0 500 500" enable-background="new 0 0 500 500" xml:space="preserve">
<g id="Layer_1_copy_62">
	<g>
		<g>
			<path fill="#FFFFFF" d="M412.96,435.626c0,10.373-8.487,18.861-18.862,18.861h-36.091c-10.374,0-27.354,0-37.724,0H84.45
				c-10.371,0-18.859-8.488-18.859-18.861V155.191c0-10.373,8.488-18.86,18.859-18.86h309.646c10.375,0,18.862,8.488,18.862,18.86
				v205.833c0,10.371,0,27.35,0,37.721L412.96,435.626L412.96,435.626z"/>
		</g>
		<g>
			<path fill="#27140E" d="M394.098,458.529H84.45c-12.63,0-22.903-10.273-22.903-22.902V155.191
				c0-12.629,10.273-22.902,22.903-22.902h309.646c12.628,0,22.903,10.273,22.903,22.902v280.435
				C417.001,448.255,406.726,458.529,394.098,458.529z M84.45,140.373c-8.171,0-14.818,6.647-14.818,14.819v280.435
				c0,8.17,6.647,14.82,14.818,14.82h309.646c8.177,0,14.821-6.65,14.821-14.82V155.191c0-8.171-6.646-14.819-14.821-14.819
				L84.45,140.373L84.45,140.373z"/>
		</g>
	</g>
	<g>
		<g>
			<path fill="#458AC9" d="M433.487,188.129c0,10.375-8.491,18.862-18.862,18.862H61.554c-10.37,0-18.86-8.488-18.86-18.862V85.325
				c0-10.374,8.49-18.861,18.86-18.861h353.071c10.371,0,18.862,8.487,18.862,18.861V188.129z"/>
		</g>
		<g>
			<path fill="#27140E" d="M414.625,211.032H61.554c-12.629,0-22.902-10.273-22.902-22.903V85.325
				c0-12.63,10.273-22.903,22.902-22.903h353.071c12.63,0,22.902,10.273,22.902,22.903v102.804
				C437.527,200.758,427.255,211.032,414.625,211.032z M61.554,70.504c-8.17,0-14.816,6.648-14.816,14.82v102.804
				c0,8.171,6.646,14.819,14.816,14.819h353.071c8.171,0,14.818-6.648,14.818-14.819V85.325c0-8.172-6.647-14.82-14.818-14.82
				L61.554,70.504L61.554,70.504z"/>
		</g>
	</g>
	<g>
		<path fill="#424143" d="M151.643,126.15c0,11.071-8.659,20.05-19.34,20.05l0,0c-10.687,0-19.341-8.979-19.341-20.05V54.938
			c0-11.077,8.654-20.056,19.341-20.056l0,0c10.681,0,19.34,8.979,19.34,20.056V126.15z"/>
		<path fill="#27140E" d="M132.303,150.242c-12.894,0-23.387-10.81-23.387-24.092V54.938c0-13.288,10.493-24.096,23.387-24.096
			c12.895,0,23.38,10.808,23.38,24.096v71.212C155.683,139.432,145.197,150.242,132.303,150.242z M132.303,38.925
			c-8.436,0-15.301,7.183-15.301,16.013v71.212c0,8.826,6.865,16.009,15.301,16.009c8.434,0,15.298-7.183,15.298-16.009V54.938
			C147.601,46.108,140.736,38.925,132.303,38.925z"/>
	</g>
	<g>
		<path fill="#424143" d="M362.041,126.15c0,11.071-8.659,20.05-19.343,20.05l0,0c-10.685,0-19.342-8.979-19.342-20.05V54.938
			c0-11.077,8.657-20.056,19.342-20.056l0,0c10.684,0,19.343,8.979,19.343,20.056V126.15z"/>
		<path fill="#27140E" d="M342.698,150.242c-12.893,0-23.384-10.81-23.384-24.092V54.938c0-13.288,10.491-24.096,23.384-24.096
			c12.895,0,23.383,10.808,23.383,24.096v71.212C366.081,139.432,355.593,150.242,342.698,150.242z M342.698,38.925
			c-8.438,0-15.302,7.183-15.302,16.013v71.212c0,8.826,6.863,16.009,15.302,16.009c8.436,0,15.302-7.183,15.302-16.009V54.938
			C358,46.108,351.134,38.925,342.698,38.925z"/>
	</g>
	<g>
		<g>
			<path fill="#E5E5E5" d="M412.792,377.979v57.723c0,10.373-8.492,18.86-18.863,18.86h-56.926"/>
		</g>
		<g>
			<path fill="#27140E" d="M393.929,458.601h-56.926c-2.229,0-4.04-1.809-4.04-4.038c0-2.23,1.811-4.041,4.04-4.041h56.926
				c8.173,0,14.819-6.65,14.819-14.82v-57.723c0-2.236,1.812-4.045,4.044-4.045c2.23,0,4.04,1.809,4.04,4.045v57.723
				C416.832,448.33,406.555,458.601,393.929,458.601z"/>
		</g>
	</g>
	<g>
		<path fill="#D2D3D4" d="M413.077,378.189l-57.719,0.287c-10.371,0.051-18.638,8.578-18.358,18.948l1.557,58.248"/>
	</g>
	<g>
		<path fill="#27140E" d="M325.724,458.601c-2.228,0-4.032-1.797-4.04-4.026c-0.009-2.23,1.799-4.045,4.028-4.053l22.896-0.074
			c0.003,0,0.007,0,0.011,0c2.228,0,4.033,1.799,4.041,4.028c0.013,2.232-1.794,4.046-4.024,4.054l-22.896,0.071
			C325.731,458.601,325.731,458.601,325.724,458.601z"/>
	</g>
	<g>
		<path fill="#27140E" d="M411.45,394.227c-1.49,0-2.695-1.205-2.695-2.695v-21.713c0-1.488,1.205-2.693,2.695-2.693
			c1.485,0,2.689,1.205,2.689,2.693v21.713C414.141,393.021,412.938,394.227,411.45,394.227z"/>
	</g>
	<g>
		<path fill="#333333" d="M174.958,269.636c5.663,1.865,10.255,5.281,13.765,10.248c2.816,4.017,4.735,8.369,5.761,13.046
			c1.021,4.674,1.533,9.131,1.533,13.366c0,10.74-2.156,19.838-6.471,27.295c-5.851,10.043-14.88,15.066-27.093,15.066h-34.829
			v-80.775h34.829C167.462,267.957,171.628,268.541,174.958,269.636z M144.013,281.912v52.717h15.586
			c7.98,0,13.538-3.922,16.686-11.777c1.721-4.311,2.581-9.444,2.581-15.399c0-8.222-1.294-14.533-3.868-18.937
			c-2.581-4.404-7.714-6.604-15.398-6.604H144.013z"/>
		<path fill="#333333" d="M268.416,282.189h-42.752v17.147h39.24v14.029h-39.24v20.771h44.717v14.521h-61.208v-80.775h59.243
			V282.189L268.416,282.189z"/>
		<path fill="#333333" d="M291.252,276.322c6.507-6.648,14.786-9.973,24.829-9.973c13.449,0,23.279,4.459,29.495,13.368
			c3.438,5.011,5.277,10.031,5.531,15.072h-16.876c-1.077-3.873-2.455-6.795-4.141-8.769c-3.003-3.508-7.461-5.264-13.365-5.264
			c-6.012,0-10.758,2.477-14.226,7.428c-3.476,4.949-5.211,11.955-5.211,21.017c0,9.063,1.833,15.848,5.496,20.358
			c3.666,4.515,8.318,6.769,13.966,6.769c5.789,0,10.204-1.938,13.239-5.812c1.68-2.08,3.072-5.205,4.182-9.369h16.771
			c-1.446,8.804-5.141,15.968-11.089,21.482c-5.946,5.516-13.561,8.273-22.853,8.273c-11.49,0-20.526-3.725-27.108-11.18
			c-6.574-7.488-9.865-17.754-9.865-30.798C280.027,294.83,283.771,283.96,291.252,276.322z"/>
	</g>
</g>
</svg>
