<?xml version="1.0" encoding="utf-8"?>
<!-- Generator: Adobe Illustrator 16.0.0, SVG Export Plug-In . SVG Version: 6.00 Build 0)  -->
<!DOCTYPE svg PUBLIC "-//W3C//DTD SVG 1.1//EN" "http://www.w3.org/Graphics/SVG/1.1/DTD/svg11.dtd">
<svg version="1.1" id="Layer_1" xmlns="http://www.w3.org/2000/svg" xmlns:xlink="http://www.w3.org/1999/xlink" x="0px" y="0px"
	 width="500px" height="500px" viewBox="0 0 500 500" enable-background="new 0 0 500 500" xml:space="preserve">
<g id="Layer_1_copy_31">
	<g>
		<polygon fill="#6FCACC" points="253.466,450.745 394.58,221.267 253.466,26.739 119.606,221.267 		"/>
		<path fill="#27140E" d="M253.466,456.968c-0.022,0-0.046,0-0.069,0c-2.187-0.025-4.201-1.196-5.305-3.088L114.227,224.404
			c-1.215-2.083-1.118-4.68,0.25-6.663L248.342,23.212c1.146-1.667,3.028-2.671,5.047-2.697c2.106-0.011,3.934,0.934,5.114,2.569
			l141.113,194.528c1.479,2.038,1.579,4.768,0.264,6.914l-141.108,229.48C257.635,455.849,255.629,456.968,253.466,456.968z
			 M126.967,221.542l126.643,217.095l133.487-217.083L253.604,37.522L126.967,221.542z"/>
	</g>
</g>
</svg>
