<?xml version="1.0" encoding="utf-8"?>
<!-- Generator: Adobe Illustrator 16.0.0, SVG Export Plug-In . SVG Version: 6.00 Build 0)  -->
<!DOCTYPE svg PUBLIC "-//W3C//DTD SVG 1.1//EN" "http://www.w3.org/Graphics/SVG/1.1/DTD/svg11.dtd">
<svg version="1.1" id="Layer_1" xmlns="http://www.w3.org/2000/svg" xmlns:xlink="http://www.w3.org/1999/xlink" x="0px" y="0px"
	 width="500px" height="500px" viewBox="0 0 500 500" enable-background="new 0 0 500 500" xml:space="preserve">
<g id="Layer_1_copy_80">
	<g>
		<g>
			<path fill="#FDDC1F" d="M474.496,252.672c0,120.078-97.335,217.421-217.412,217.421c-120.083,0-217.421-97.343-217.421-217.421
				c0-120.074,97.338-217.415,217.421-217.415C377.161,35.258,474.496,132.599,474.496,252.672z"/>
		</g>
		<g>
			<path fill="#FCB022" d="M257.084,473.359c-121.688,0-220.687-99-220.687-220.688c0-121.679,98.999-220.678,220.687-220.678
				c121.683,0,220.678,98.999,220.678,220.678C477.762,374.359,378.767,473.359,257.084,473.359z M257.084,38.519
				c-118.091,0-214.16,96.072-214.16,214.153c0,118.09,96.069,214.16,214.16,214.16c118.081,0,214.151-96.07,214.151-214.16
				C471.235,134.591,375.165,38.519,257.084,38.519z"/>
		</g>
	</g>
	<g>
		<path fill="#4C230D" d="M254.514,285.928c-4.143,0-7.149-1.429-9.158-2.895c-4.842-3.561-7.62-10.217-7.62-18.264
			c0-14.364,14.641-18.16,22.375-18.16c1.807,0,3.266,1.458,3.266,3.261c0,1.8-1.459,3.259-3.261,3.266
			c-0.699,0-15.854,0.225-15.854,11.633c0,5.946,1.803,10.686,4.956,12.996c2.513,1.844,5.847,2.127,9.919,0.854
			c1.728-0.553,3.553,0.413,4.09,2.135c0.547,1.721-0.414,3.551-2.134,4.09C258.641,285.615,256.454,285.928,254.514,285.928z"/>
	</g>
	<g>
		<g>
			<path fill="#DEF2FD" d="M234.983,195.122c-0.585,39.555-25.284,71.271-55.171,70.826c-29.89-0.444-53.638-32.866-53.061-72.425
				c0.589-39.554,25.289-71.258,55.176-70.82C211.813,123.144,235.565,155.567,234.983,195.122z"/>
		</g>
		<g>
			<path fill="#C3E5F2" d="M180.434,268.126l-0.653-0.005c-31.031-0.459-55.795-33.939-55.202-74.63
				c0.596-40.236,26.048-72.968,56.732-72.968l0.647,0.004c15.151,0.227,29.242,8.188,39.678,22.432
				c10.297,14.058,15.812,32.595,15.521,52.192C236.564,235.391,211.113,268.126,180.434,268.126z M181.311,124.875
				c-28.321,0-51.819,30.811-52.377,68.68c-0.565,38.292,22.277,69.792,50.911,70.218l0.589,0.004
				c28.315,0,51.811-30.814,52.376-68.689c0.277-18.661-4.944-36.262-14.688-49.558c-9.604-13.113-22.471-20.449-36.222-20.653
				L181.311,124.875z"/>
		</g>
	</g>
	<g>
		<path fill="#010101" d="M199.224,194.881c-0.479,15.739-9.083,28.25-19.217,27.941c-10.136-0.306-17.966-13.312-17.491-29.048
			c0.474-15.741,9.079-28.251,19.214-27.947C191.868,166.135,199.698,179.139,199.224,194.881z"/>
	</g>
	<g>
		<g>
			<path fill="#DEF2FD" d="M271.555,189.681c-3.398,40.644,18.738,75.683,49.463,78.249c30.704,2.561,58.357-28.31,61.753-68.962
				c3.399-40.645-18.743-75.678-49.459-78.247C302.599,118.159,274.949,149.029,271.555,189.681z"/>
		</g>
		<g>
			<path fill="#C3E5F2" d="M324.579,270.253L324.579,270.253c-1.241,0-2.506-0.054-3.747-0.157
				c-15.546-1.298-29.463-10.479-39.18-25.849c-9.594-15.178-13.947-34.622-12.266-54.749c3.328-39.869,29.838-71.103,60.354-71.103
				c1.242,0,2.51,0.053,3.747,0.156c31.862,2.664,54.938,38.821,51.452,80.597C381.612,239.018,355.094,270.253,324.579,270.253z
				 M329.741,122.746c-28.271,0-52.88,29.481-56.019,67.112c-1.604,19.192,2.52,37.683,11.608,52.065
				c8.965,14.19,21.701,22.658,35.864,23.839c1.117,0.09,2.256,0.143,3.383,0.143c28.27,0,52.883-29.481,56.024-67.114
				c3.289-39.386-18.008-73.437-47.476-75.899C332.006,122.796,330.868,122.746,329.741,122.746z"/>
		</g>
	</g>
	<g>
		<path fill="#010101" d="M308.274,195.566c-1.104,16.196,6.467,29.908,16.896,30.607c10.431,0.716,19.779-11.836,20.879-28.038
			c1.104-16.202-6.464-29.906-16.895-30.616C318.726,166.811,309.373,179.368,308.274,195.566z"/>
	</g>
	<g>
		<path fill="#F3F3F3" d="M187.714,181.066c0,3.237-2.554,5.864-5.708,5.864c-3.153,0-5.712-2.626-5.712-5.864
			c0-3.235,2.559-5.863,5.712-5.863C185.16,175.203,187.714,177.831,187.714,181.066z"/>
	</g>
	<g>
		<path fill="#F3F3F3" d="M330.208,183.483c0,3.239-2.562,5.864-5.708,5.864c-3.154,0-5.716-2.625-5.716-5.864
			c0-3.24,2.562-5.86,5.716-5.86C327.646,177.624,330.208,180.244,330.208,183.483z"/>
	</g>
	<g>
		<path fill="#27140E" d="M181.592,81.408c0,0-20.595,23.32-61.702,36.267c-41.107,12.955,7.807,11.228,7.807,11.228
			s46.195-0.043,61.448-39.022C192.972,70.075,181.592,81.408,181.592,81.408z"/>
		<path fill="#27140E" d="M122.491,131.158L122.491,131.158c-18.847,0-20.819-2.545-21.183-4.933
			c-0.463-3.004,2.319-5.704,17.921-10.621c39.993-12.599,60.535-35.408,60.732-35.635c0.74-0.747,4.131-3.965,7.312-3.965
			c1.329,0,2.515,0.553,3.353,1.562c1.739,2.114,1.944,6.042,0.651,12.725c-0.023,0.131-0.059,0.257-0.11,0.38
			c-15.593,39.853-62.887,40.408-63.467,40.412C127.708,131.082,125.529,131.158,122.491,131.158z M106.337,125.452
			c1.644,0.536,5.845,1.354,16.154,1.354l0,0c2.983,0,5.106-0.075,5.126-0.075c0.521-0.002,44.835-0.536,59.43-37.458
			c1.457-7.684,0.221-8.939,0.213-8.951c-0.981,0.031-3.067,1.567-4.132,2.625c-0.763,0.872-21.371,23.821-62.586,36.808
			C111.273,122.673,107.708,124.511,106.337,125.452z"/>
	</g>
	<g>
		<path fill="#4C230D" d="M354.425,414.827c-2.406,0-4.354-1.944-4.354-4.349c0-38.94-44.643-70.627-99.519-70.627
			c-54.87,0-99.517,31.687-99.517,70.627c0,2.403-1.944,4.349-4.351,4.349c-2.403,0-4.353-1.944-4.353-4.349
			c0-43.739,48.551-79.326,108.22-79.326c59.671,0,108.223,35.587,108.223,79.326C358.774,412.882,356.825,414.827,354.425,414.827z
			"/>
	</g>
	<g>
		<g>
			<path fill="#FDDC1F" d="M126.945,201.625l107.936-15.604c0,0-2.617-62.46-57.539-63.316
				C122.42,121.849,126.945,201.625,126.945,201.625z"/>
		</g>
		<g>
			<path fill="#FCB022" d="M126.945,204.889c-0.747,0-1.475-0.257-2.063-0.737c-0.711-0.577-1.142-1.428-1.193-2.344
				c-0.106-1.846-2.319-45.519,19.491-68.604c8.632-9.135,19.829-13.767,33.289-13.767l0.925,0.008
				c57.337,0.896,60.726,65.786,60.749,66.438c0.067,1.674-1.135,3.128-2.791,3.366l-107.94,15.607
				C127.253,204.879,127.095,204.889,126.945,204.889z M176.469,125.962c-11.589,0-21.194,3.941-28.547,11.724
				c-16.502,17.463-17.834,49.497-17.794,60.183l101.239-14.637c-0.576-5.136-2.371-16.281-7.684-27.315
				c-9.412-19.54-25.025-29.62-46.396-29.95L176.469,125.962z"/>
		</g>
	</g>
	<g>
		<g>
			<path fill="#FDDC1F" d="M381.952,199.896l-107.938-15.601c0,0,2.619-62.462,57.546-63.316
				C386.481,120.126,381.952,199.896,381.952,199.896z"/>
		</g>
		<g>
			<path fill="#FCB022" d="M381.952,203.162c-0.154,0-0.312-0.014-0.466-0.034L273.55,187.521c-1.655-0.237-2.86-1.692-2.794-3.364
				c0.028-0.656,3.411-65.549,60.752-66.444l0.922-0.002c13.463,0,24.656,4.628,33.289,13.766
				c21.815,23.085,19.599,66.758,19.494,68.608c-0.055,0.915-0.485,1.763-1.197,2.34
				C383.431,202.904,382.699,203.162,381.952,203.162z M277.534,181.505l101.24,14.637c0.03-10.694-1.329-42.764-17.812-60.197
				c-7.345-7.771-16.949-11.71-28.534-11.71l-0.817,0.01c-21.372,0.328-36.981,10.405-46.394,29.945
				C279.9,165.226,278.107,176.369,277.534,181.505z"/>
		</g>
	</g>
	<g>
		<path fill="#27140E" d="M332.801,81.85c0,0,20.993,22.965,62.318,35.217c41.321,12.253-7.617,11.357-7.617,11.357
			s-46.191,0.74-62.104-37.973C321.239,70.713,332.801,81.85,332.801,81.85z"/>
		<path fill="#27140E" d="M389.598,130.616c-1.324,0-2.135-0.014-2.135-0.014h-0.013c-5.074,0-48.365-1.125-64.062-39.325
			c-0.052-0.123-0.096-0.251-0.114-0.375c-1.411-6.694-1.272-10.632,0.459-12.765c0.829-1.026,2.03-1.591,3.383-1.591
			c3.155,0,6.546,3.117,7.198,3.739c0.301,0.324,21.223,22.781,61.421,34.695c15.716,4.664,18.542,7.32,18.103,10.342
			C413.565,127.169,413.064,130.614,389.598,130.616z M387.529,126.249c0.009,0,0.012,0,0.012,0
			c0.013,0.003,0.787,0.016,2.057,0.016c10.834,0,16.912-0.861,19.214-1.639c-1.372-0.921-4.965-2.699-14.312-5.472
			c-41.429-12.283-62.429-34.876-63.302-35.833c-1.174-1.117-3.158-2.421-4.08-2.421l0,0c-0.023,0-1.209,1.312,0.368,8.908
			c14.957,36.028,58.001,36.445,59.831,36.445C387.328,126.252,387.478,126.249,387.529,126.249z"/>
	</g>
</g>
</svg>
