<?xml version="1.0" encoding="utf-8"?>
<!-- Generator: Adobe Illustrator 16.0.0, SVG Export Plug-In . SVG Version: 6.00 Build 0)  -->
<!DOCTYPE svg PUBLIC "-//W3C//DTD SVG 1.1//EN" "http://www.w3.org/Graphics/SVG/1.1/DTD/svg11.dtd">
<svg version="1.1" id="Layer_1" xmlns="http://www.w3.org/2000/svg" xmlns:xlink="http://www.w3.org/1999/xlink" x="0px" y="0px"
	 width="500px" height="500px" viewBox="0 0 500 500" enable-background="new 0 0 500 500" xml:space="preserve">
<g id="Layer_1_copy_86">
	<g>
		<polygon fill="#F1EDD0" points="337.717,423.688 347.233,462.483 347.848,425.127 344.669,407.872 		"/>
		<path fill="#3C2517" d="M347.233,464.22c-0.794,0-1.493-0.537-1.685-1.322l-9.52-38.797c-0.094-0.37-0.061-0.764,0.097-1.109
			l6.952-15.82c0.307-0.696,1.011-1.11,1.791-1.026c0.757,0.09,1.367,0.66,1.504,1.414l3.181,17.257
			c0.023,0.112,0.03,0.229,0.03,0.347l-0.617,37.353c-0.01,0.873-0.67,1.599-1.541,1.693
			C347.364,464.214,347.298,464.22,347.233,464.22z M339.542,423.843l6.178,25.179l0.391-23.751l-2.126-11.53L339.542,423.843z"/>
	</g>
	<g>
		<path fill="#A1CBB6" d="M271.575,202.706l64.751,221.927h12.852c0,0,10.262-39.05,5.869-67.222l-14.769,2.476
			c0,0-45.966-203.15-52.396-204.141c-6.426-0.99-23.23,12.361-23.23,12.361L271.575,202.706z"/>
		<path fill="#3C2517" d="M349.178,426.948h-12.852c-1.029,0-1.934-0.677-2.225-1.667l-64.75-221.928l-6.971-34.792
			c-0.167-0.854,0.15-1.727,0.834-2.268c1.66-1.32,16.477-12.911,23.941-12.911c0.377,0,0.736,0.027,1.08,0.077
			c2.472,0.384,5.549,0.857,30.504,104.186c10.747,44.498,20.997,89.416,23.311,99.597l12.614-2.114
			c0.607-0.093,1.237,0.044,1.734,0.408c0.504,0.363,0.84,0.908,0.938,1.52c4.41,28.326-5.499,66.554-5.926,68.166
			C351.148,426.238,350.229,426.948,349.178,426.948z M338.061,422.32h9.305c1.819-7.565,8.688-38.443,5.722-62.231l-12.428,2.081
			c-1.214,0.184-2.371-0.577-2.642-1.773c-17.35-76.688-44.947-192.369-51.119-202.377c-4.289,0.253-13.832,6.529-19.694,11.037
			l6.64,33.198L338.061,422.32z"/>
	</g>
	<g>
		<polygon fill="#F1EDD0" points="183.683,423.688 174.166,462.483 173.553,425.127 176.733,407.872 		"/>
		<path fill="#3C2517" d="M174.166,464.22c-0.063,0-0.127-0.006-0.193-0.014c-0.867-0.096-1.527-0.82-1.541-1.693l-0.617-37.353
			c-0.003-0.117,0.011-0.233,0.03-0.347l3.182-17.257c0.136-0.754,0.747-1.324,1.503-1.414c0.758-0.084,1.484,0.33,1.792,1.026
			l6.951,15.82c0.153,0.347,0.187,0.739,0.097,1.109l-9.517,38.796C175.659,463.683,174.955,464.22,174.166,464.22z M175.29,425.271
			l0.39,23.751l6.175-25.18l-4.438-10.101L175.29,425.271z"/>
	</g>
	<g>
		<path fill="#D0E8CD" d="M250.028,202.706l-64.752,221.927h-12.848c0,0-10.261-39.05-5.872-67.222l14.766,2.476
			c0,0,45.968-203.15,52.396-204.141c6.426-0.99,23.231,12.361,23.231,12.361L250.028,202.706z"/>
		<path fill="#3C2517" d="M185.276,426.948h-12.848c-1.054,0-1.971-0.71-2.24-1.729c-0.424-1.612-10.334-39.84-5.92-68.165
			c0.095-0.611,0.431-1.156,0.935-1.521c0.5-0.364,1.127-0.504,1.733-0.408l12.614,2.114c2.314-10.18,12.564-55.098,23.312-99.598
			c24.955-103.328,28.032-103.801,30.504-104.185c0.344-0.05,0.703-0.077,1.08-0.077c7.469,0,22.281,11.591,23.941,12.911
			c0.684,0.541,1,1.414,0.834,2.268l-6.923,34.598L187.5,425.281C187.21,426.271,186.307,426.948,185.276,426.948z M174.239,422.32
			h9.304l64.265-220.264l6.592-33.001c-5.862-4.508-15.405-10.784-19.693-11.037c-6.172,10.01-33.771,125.689-51.124,202.378
			c-0.273,1.195-1.431,1.982-2.641,1.772l-12.425-2.081C165.553,383.876,172.418,414.754,174.239,422.32z"/>
	</g>
	<g>
		<rect x="254.439" y="89.668" fill="#F1EDD0" width="11.859" height="20.76"/>
		<path fill="#3C2517" d="M266.3,112.742h-11.86c-1.28,0-2.312-1.037-2.312-2.314v-20.76c0-1.277,1.032-2.314,2.312-2.314h11.86
			c1.28,0,2.313,1.037,2.313,2.314v20.76C268.613,111.705,267.58,112.742,266.3,112.742z M256.753,108.114h7.233V91.982h-7.233
			V108.114z"/>
	</g>
	<g>
		<rect x="246.37" y="31.999" fill="#D0E8CD" width="27.923" height="64.505"/>
		<path fill="#3C2517" d="M274.293,98.817H246.37c-1.277,0-2.314-1.037-2.314-2.314V31.999c0-1.277,1.037-2.311,2.314-2.311h27.923
			c1.277,0,2.312,1.034,2.312,2.311v64.505C276.605,97.78,275.57,98.817,274.293,98.817z M248.684,94.186h23.291v-59.87h-23.291
			V94.186z"/>
	</g>
	<g>
		<path fill="#3C2517" d="M254.439,97.827c-1.281,0-2.313-1.037-2.313-2.314V31.999c0-1.277,1.032-2.311,2.313-2.311
			c1.279,0,2.312,1.034,2.312,2.311v63.515C256.753,96.79,255.721,97.827,254.439,97.827z"/>
	</g>
	<g>
		<path fill="#3C2517" d="M266.3,97.827c-1.28,0-2.313-1.037-2.313-2.314V31.999c0-1.277,1.033-2.311,2.313-2.311
			s2.313,1.034,2.313,2.311v63.515C268.613,96.79,267.58,97.827,266.3,97.827z"/>
	</g>
	<g>
		<path fill="#594841" d="M287.884,124.61c0,0,3.462-16.309-26.688-17.796c-30.146-1.48-26.686,17.796-26.686,17.796v39.046
			c0,0,0,4.145,0,6.179c0,19.247,11.947,34.845,26.686,34.845c14.74,0,26.688-15.599,26.688-34.845c0-2.641,0.12-8.156,0.12-8.156
			L287.884,124.61z"/>
		<path fill="#3C2517" d="M261.195,206.994c-15.993,0-29.004-16.668-29.004-37.159v-45.056c-0.173-1.287-0.72-7.362,3.682-12.627
			c4.288-5.131,11.73-7.732,22.107-7.732c1.063,0,2.174,0.026,3.328,0.083c12.707,0.627,21.424,3.895,25.907,9.716
			c3.571,4.638,3.162,9.36,2.981,10.577l0.119,36.875c0,0.063-0.119,5.542-0.119,8.163
			C290.198,190.325,277.188,206.994,261.195,206.994z M257.98,109.048c-8.942,0-15.186,2.044-18.558,6.075
			c-3.471,4.155-2.644,9.026-2.637,9.076c0.026,0.134,0.036,0.273,0.036,0.411v45.225c0,17.939,10.934,32.531,24.372,32.531
			c13.441,0,24.375-14.591,24.375-32.531c0-2.654,0.123-8.207,0.123-8.207l-0.123-37.009c0-0.167,0.014-0.33,0.05-0.49
			c0.024-0.126,0.653-3.625-2.14-7.179c-3.603-4.575-11.345-7.279-22.398-7.823C260.005,109.074,258.971,109.048,257.98,109.048z"/>
	</g>
	<g>
		<path fill="#F1EDD0" d="M273.391,135.149c0,6.736-5.463,12.198-12.195,12.198c-6.735,0-12.189-5.462-12.189-12.198
			c0-6.735,5.454-12.19,12.189-12.19C267.928,122.959,273.391,128.415,273.391,135.149z"/>
		<path fill="#3C2517" d="M261.195,149.661c-8,0-14.505-6.509-14.505-14.512c0-7.996,6.505-14.505,14.505-14.505
			c7.998,0,14.508,6.509,14.508,14.505C275.703,143.152,269.193,149.661,261.195,149.661z M261.195,125.277
			c-5.445,0-9.877,4.431-9.877,9.873c0,5.449,4.432,9.884,9.877,9.884c5.447,0,9.879-4.435,9.879-9.884
			C271.074,129.708,266.645,125.277,261.195,125.277z"/>
	</g>
	<g>
		<g>
			<path fill="#3C2517" d="M266.297,141.752c-0.461,0-0.931-0.14-1.337-0.427l-10.214-7.252c-1.04-0.74-1.288-2.184-0.547-3.229
				c0.74-1.041,2.181-1.284,3.228-0.547l10.214,7.252c1.041,0.741,1.287,2.184,0.547,3.228
				C267.736,141.412,267.027,141.752,266.297,141.752z"/>
		</g>
		<g>
			<path fill="#3C2517" d="M257.163,142.926c-0.522,0-1.05-0.177-1.483-0.54c-0.979-0.821-1.105-2.281-0.287-3.261l8.053-9.597
				c0.824-0.974,2.281-1.107,3.262-0.287c0.98,0.82,1.107,2.281,0.287,3.261l-8.053,9.596
				C258.48,142.646,257.827,142.926,257.163,142.926z"/>
		</g>
	</g>
</g>
</svg>
