<?xml version="1.0" encoding="utf-8"?>
<!-- Generator: Adobe Illustrator 16.0.0, SVG Export Plug-In . SVG Version: 6.00 Build 0)  -->
<!DOCTYPE svg PUBLIC "-//W3C//DTD SVG 1.1//EN" "http://www.w3.org/Graphics/SVG/1.1/DTD/svg11.dtd">
<svg version="1.1" id="Layer_1" xmlns="http://www.w3.org/2000/svg" xmlns:xlink="http://www.w3.org/1999/xlink" x="0px" y="0px"
	 width="500px" height="500px" viewBox="0 0 500 500" enable-background="new 0 0 500 500" xml:space="preserve">
<g id="Layer_1_copy_16">
	<g>
		<path fill="#C3996C" d="M447.997,267.475c0,74.201-89.954,134.356-200.921,134.356c-110.976,0-200.931-60.155-200.931-134.356"/>
		<path fill="#3C2517" d="M247.076,404.514c-112.273,0-203.611-61.479-203.611-137.039c0-1.482,1.201-2.687,2.681-2.687
			c1.482,0,2.682,1.203,2.682,2.687c0,72.604,88.933,131.674,198.249,131.674c109.307,0,198.239-59.07,198.239-131.674
			c0-1.482,1.198-2.687,2.682-2.687s2.683,1.203,2.683,2.687C450.68,343.034,359.345,404.514,247.076,404.514z"/>
	</g>
	<g>
		<path fill="#FAD4E5" d="M293.509,130.026c0,0-108.065-18.083-168.882,13.147c0,0-62.045,23.831-78.481,71.493
			c0,0-16.028,35.337-4.519,67.802c11.507,32.459,12.737,26.298,10.275,42.319c-2.466,16.029-10.275,32.873,10.269,40.686
			c20.547,7.799,28.767,2.461,47.664-12.334c18.898-14.785,29.586-9.445,39.446-2.461c9.864,6.982,25.89,20.124,57.117,9.445
			c31.228-10.686,36.161-15.203,51.36-7.805c15.198,7.396,72.729,23.83,92.448,1.231c19.725-22.597,23.424-27.528,38.215-19.72
			c14.792,7.799,47.662,28.354,62.453,11.089c14.79-17.255,15.911-29.171,12.091-65.737
			C459.117,242.295,453.75,159.614,293.509,130.026z"/>
		<path fill="#3C2517" d="M78.431,371.732c-5.002,0-10.472-1.194-17.211-3.76c-19.323-7.343-16.195-22.48-13.436-35.849
			c0.532-2.554,1.075-5.194,1.469-7.746c1.629-10.583,1.629-10.583-2.466-20.747c-1.806-4.501-4.287-10.67-7.686-20.271
			c-11.736-33.1,3.929-68.314,4.604-69.798c16.334-47.408,75.742-71.25,79.821-72.837c24.096-12.333,57.943-18.584,100.62-18.584
			c38.024,0,69.49,5.19,69.806,5.242c159.136,29.38,167.457,110.388,171.455,149.319l0.227,2.205
			c3.876,37.115,2.731,49.729-12.72,67.755c-4.355,5.079-10.41,7.657-17.995,7.657l0,0c-14.503-0.006-31.763-9.42-43.188-15.651
			c-1.66-0.904-3.188-1.745-4.565-2.464c-4.121-2.18-7.046-3.146-9.484-3.146c-6.039,0-11.63,6.411-23.885,20.454l-1.566,1.802
			c-7.188,8.237-19.354,12.412-36.154,12.412c-22.368,0-48.723-7.754-59.49-12.994c-4.916-2.394-8.435-3.365-12.132-3.365
			c-5.585,0-12.115,2.352-22.944,6.259c-4.068,1.468-8.754,3.155-14.245,5.04c-8.101,2.763-15.845,4.174-23.016,4.174
			c-17.015,0-27.881-7.788-35.069-12.939l-1.447-1.03c-5.483-3.89-10.308-6.478-16.004-6.478c-5.998,0-12.617,2.904-20.236,8.867
			C98.438,365.473,89.858,371.732,78.431,371.732z M224.146,127.505c-41.89,0-74.957,6.072-98.289,18.054
			c-0.089,0.043-0.175,0.086-0.266,0.119c-0.607,0.234-61.08,23.958-76.909,69.865c-0.246,0.573-15.526,34.998-4.527,66.025
			c3.362,9.498,5.82,15.603,7.611,20.063c4.506,11.202,4.584,11.862,2.789,23.563c-0.415,2.688-0.975,5.396-1.515,8.015
			c-3.082,14.896-4.239,24.31,10.084,29.754c6.111,2.323,10.975,3.397,15.306,3.397c9.687,0,17.238-5.541,29.755-15.329
			c8.599-6.736,16.303-10.007,23.542-10.007c7.909,0,14.007,3.848,19.104,7.459l1.476,1.05c7.027,5.036,16.65,11.937,31.941,11.937
			c6.579,0,13.741-1.309,21.28-3.888c5.463-1.865,10.114-3.544,14.161-5.001c19.256-6.952,25.484-9.368,39.239-2.675
			c8.018,3.897,33.541,12.454,57.146,12.454c15.188,0,25.992-3.559,32.113-10.574l1.567-1.795
			c13.352-15.312,19.444-22.305,27.925-22.305c3.402,0,6.988,1.127,11.989,3.77c1.397,0.734,2.947,1.578,4.633,2.503
			c10.939,5.97,27.482,14.993,40.615,14.993c6.034,0,10.585-1.895,13.923-5.778c14.245-16.624,15.203-27.862,11.457-63.713
			l-0.229-2.213c-3.863-37.633-11.904-115.943-167.046-144.584C292.756,132.622,261.7,127.505,224.146,127.505z"/>
	</g>
	<g>
		<path fill="#C3996C" d="M243.103,239.827c0,0-13.869-6.029-16.819-5.841c-2.951,0.197-13.919,5.727-14.071,5.841
			c-0.152,0.116-7.286,4.517-7.286,4.517s-0.829,3.064,7.811,4.873c8.638,1.812,33.64,4.621,33.64,4.621l29.529-4.161l14.081-4.17
			l8.771-5.857l-2.454-3.377l-8.553-2.93l-9.707-2.366l-6.164,1.904l-9.014,3.621l-3.469,3.008l-8.627,0.231L243.103,239.827z"/>
	</g>
	<g>
		<path fill="#3C2517" d="M244.606,255.979c-22.03,0-43.578-6.68-62.051-12.94c-1.402-0.474-2.156-1.998-1.682-3.398
			c0.482-1.405,2.001-2.151,3.401-1.681c18.065,6.122,39.117,12.656,60.331,12.656c51.159,0,63.624-24.144,63.746-24.388
			c0.652-1.329,2.268-1.873,3.591-1.226c1.325,0.658,1.876,2.265,1.221,3.592C312.616,229.711,299.066,255.979,244.606,255.979z"/>
	</g>
	<g>
		<path fill="#3C2517" d="M199.826,248.181c-1.303,0-2.09-0.23-2.298-0.302c-1.405-0.471-2.161-1.993-1.686-3.397
			c0.469-1.405,1.989-2.163,3.391-1.686l0,0c0.043,0.002,3.82,0.766,10.645-4.555c8.507-6.633,16.228-9.791,26.269-3.668
			c7.375,4.501,17.832,2.993,22.851,1.382c1.301-0.417,3.186-1.517,5.179-2.679c5.267-3.072,11.825-6.897,17.267-3.893
			c5.541,3.056,19.808,6.108,19.951,6.14c1.452,0.305,2.374,1.729,2.068,3.181c-0.312,1.441-1.72,2.382-3.185,2.061
			c-0.618-0.131-15.196-3.247-21.423-6.685c-2.793-1.536-7.881,1.438-11.978,3.828c-2.252,1.315-4.381,2.559-6.247,3.154
			c-1.623,0.52-16.158,4.875-27.282-1.91c-6.675-4.068-11.767-3.238-20.169,3.314C207.005,247.282,202.407,248.181,199.826,248.181z
			"/>
	</g>
	<g>
		<path fill="#FFFFFF" d="M155.957,267.445c-1.859,1.666-4.717,1.52-6.385-0.344l0,0c-1.674-1.856-1.515-4.713,0.341-6.385
			l14.056-12.627c1.859-1.664,4.715-1.516,6.386,0.351l0,0c1.674,1.856,1.519,4.709-0.345,6.382L155.957,267.445z"/>
		<path fill="#3C2517" d="M152.936,271.286c-2.044,0-3.995-0.873-5.365-2.392c-1.278-1.432-1.933-3.277-1.833-5.201
			c0.106-1.918,0.951-3.684,2.38-4.969l14.058-12.628c2.852-2.559,7.626-2.293,10.176,0.556c1.284,1.421,1.937,3.27,1.834,5.196
			c-0.106,1.916-0.946,3.683-2.376,4.967l-14.06,12.625C156.422,270.629,154.711,271.286,152.936,271.286z M166.988,249.618
			c-0.455,0-0.891,0.168-1.229,0.47l-14.056,12.627c-0.365,0.323-0.578,0.773-0.603,1.268c-0.029,0.488,0.134,0.961,0.464,1.322
			c0.667,0.741,1.868,0.801,2.601,0.146l14.053-12.62c0.365-0.332,0.582-0.784,0.605-1.272c0.032-0.488-0.134-0.959-0.464-1.322
			C167.998,249.832,167.517,249.618,166.988,249.618z"/>
	</g>
	<g>
		<path fill="#29AAE1" d="M370.198,281.29c2.023,1.465,2.476,4.29,1.007,6.317l0,0c-1.461,2.022-4.28,2.478-6.311,1.013
			l-15.305-11.076c-2.021-1.464-2.477-4.285-1.007-6.312l0,0c1.463-2.026,4.283-2.479,6.309-1.019L370.198,281.29z"/>
		<path fill="#3C2517" d="M367.538,292.163c-1.515,0-2.978-0.476-4.217-1.369l-15.304-11.075c-3.22-2.334-3.937-6.846-1.605-10.062
			c2.234-3.099,6.941-3.868,10.056-1.612l15.307,11.071c3.217,2.335,3.936,6.849,1.604,10.063
			C372.028,291.047,369.843,292.163,367.538,292.163z M352.251,272.04c-0.604,0-1.146,0.276-1.493,0.763
			c-0.597,0.824-0.415,1.975,0.407,2.571l15.302,11.071c0.399,0.289,0.802,0.354,1.071,0.354c0.603,0,1.147-0.281,1.497-0.767
			c0.596-0.82,0.411-1.976-0.404-2.572l-15.309-11.069C352.92,272.1,352.517,272.04,352.251,272.04z"/>
	</g>
	<g>
		<path fill="#29AAE1" d="M274.736,292.833c1.16,2.208,0.324,4.94-1.893,6.104l0,0c-2.214,1.168-4.945,0.319-6.111-1.893
			l-8.797-16.718c-1.16-2.213-0.315-4.947,1.897-6.108l0,0c2.206-1.164,4.94-0.316,6.106,1.896L274.736,292.833z"/>
		<path fill="#3C2517" d="M270.736,302.145c-2.687,0-5.125-1.477-6.377-3.852l-8.801-16.715c-0.894-1.709-1.07-3.654-0.504-5.493
			c0.57-1.84,1.823-3.345,3.533-4.242c1.023-0.542,2.186-0.829,3.35-0.829c2.678,0,5.125,1.475,6.377,3.848l8.8,16.723
			c1.845,3.518,0.489,7.881-3.021,9.729C273.057,301.855,271.896,302.145,270.736,302.145z M261.938,276.376
			c-0.302,0-0.586,0.074-0.854,0.215c-0.438,0.233-0.759,0.614-0.899,1.082c-0.15,0.472-0.104,0.974,0.127,1.41l8.797,16.712
			c0.461,0.872,1.603,1.237,2.49,0.77c0.896-0.473,1.24-1.586,0.771-2.484l-8.798-16.715
			C263.245,276.757,262.622,276.376,261.938,276.376z"/>
	</g>
	<g>
		<path fill="#29AAE1" d="M184.463,211.955c-1.677,1.843-4.532,1.978-6.38,0.286l0,0c-1.849-1.685-1.979-4.538-0.298-6.388
			l12.733-13.95c1.681-1.844,4.541-1.983,6.385-0.293l0,0c1.851,1.682,1.982,4.537,0.294,6.384L184.463,211.955z"/>
		<path fill="#3C2517" d="M181.13,216.114c-1.803,0-3.526-0.674-4.859-1.893c-2.926-2.67-3.143-7.234-0.473-10.174l12.737-13.958
			c2.576-2.821,7.356-3.045,10.185-0.458c1.411,1.288,2.245,3.058,2.333,4.977c0.093,1.926-0.574,3.768-1.875,5.191l-12.731,13.961
			C185.088,215.253,183.151,216.114,181.13,216.114z M193.86,193.104c-0.522,0-1.007,0.214-1.355,0.6l-12.74,13.961
			c-0.682,0.743-0.629,1.91,0.124,2.593c0.438,0.404,0.919,0.491,1.241,0.491c0.521,0,1-0.215,1.354-0.6l12.734-13.964
			c0.329-0.365,0.499-0.833,0.479-1.325c-0.021-0.486-0.234-0.938-0.595-1.268C194.753,193.276,194.313,193.104,193.86,193.104z"/>
	</g>
	<g>
		<path fill="#29AAE1" d="M373.252,217.947c0.979,2.298-0.096,4.947-2.401,5.922l0,0c-2.303,0.98-4.951-0.099-5.93-2.398
			l-7.361-17.401c-0.971-2.296,0.098-4.948,2.402-5.919l0,0c2.299-0.981,4.951,0.094,5.927,2.403L373.252,217.947z"/>
		<path fill="#3C2517" d="M369.089,226.916c-2.895,0-5.495-1.726-6.637-4.388l-7.36-17.41c-0.752-1.773-0.767-3.732-0.046-5.512
			c0.727-1.782,2.096-3.18,3.873-3.928c0.895-0.378,1.837-0.573,2.806-0.573c2.898,0,5.501,1.73,6.634,4.402l7.362,17.398
			c0.756,1.764,0.771,3.717,0.054,5.5c-0.727,1.786-2.101,3.184-3.873,3.938C371,226.719,370.06,226.916,369.089,226.916z
			 M361.725,200.47c-0.24,0-0.48,0.048-0.71,0.147c-0.46,0.195-0.812,0.552-0.997,1.004c-0.184,0.453-0.177,0.953,0.012,1.407
			l7.359,17.4c0.388,0.898,1.482,1.37,2.413,0.976c0.461-0.195,0.812-0.552,0.999-1.011c0.178-0.452,0.175-0.945-0.014-1.397
			l-7.367-17.398C363.125,200.912,362.462,200.47,361.725,200.47z"/>
	</g>
	<g>
		<path fill="#3DB54A" d="M151.48,295.275c1.635,1.889,1.434,4.742-0.461,6.377l0,0c-1.887,1.64-4.739,1.434-6.381-0.461
			l-12.357-14.286c-1.632-1.894-1.431-4.739,0.468-6.382l0,0c1.887-1.631,4.739-1.424,6.373,0.461L151.48,295.275z"/>
		<path fill="#3C2517" d="M148.064,305.441c-2.096,0-4.079-0.912-5.451-2.496l-12.361-14.282c-2.593-3.013-2.26-7.567,0.745-10.168
			c2.887-2.505,7.65-2.149,10.153,0.735l12.358,14.291c2.601,3.008,2.271,7.563-0.733,10.162
			C151.467,304.814,149.792,305.441,148.064,305.441z M135.704,282.104c-0.315,0-0.773,0.082-1.2,0.449
			c-0.769,0.664-0.854,1.831-0.194,2.602l12.357,14.279c0.362,0.416,0.854,0.644,1.397,0.644c0.309,0,0.77-0.077,1.204-0.449
			c0.765-0.667,0.85-1.829,0.187-2.598l-12.361-14.287C136.742,282.338,136.238,282.104,135.704,282.104z"/>
	</g>
	<g>
		<path fill="#3DB54A" d="M304.498,210.488c-2.212,1.162-4.941,0.321-6.105-1.895l0,0c-1.162-2.218-0.312-4.947,1.902-6.111
			l16.724-8.79c2.218-1.155,4.944-0.311,6.104,1.908l0,0c1.16,2.209,0.312,4.944-1.896,6.104L304.498,210.488z"/>
		<path fill="#3C2517" d="M302.394,213.693c-2.685,0-5.128-1.479-6.372-3.852c-1.851-3.517-0.49-7.885,3.021-9.731l16.727-8.791
			c1.036-0.54,2.195-0.821,3.351-0.821c2.689,0,5.136,1.477,6.38,3.861c1.844,3.514,0.49,7.878-3.025,9.72l-16.728,8.786
			C304.714,213.404,303.55,213.693,302.394,213.693z M319.119,195.862c-0.299,0-0.59,0.069-0.863,0.211l-16.713,8.782
			c-0.901,0.474-1.248,1.593-0.773,2.492c0.453,0.865,1.59,1.234,2.479,0.766l16.73-8.779c0.898-0.472,1.242-1.588,0.768-2.486
			C320.427,196.237,319.807,195.862,319.119,195.862z"/>
	</g>
	<g>
		<path fill="#F8ED34" d="M312.227,307.641c-1.756,1.57-4.784,1.061-6.778-1.151l0,0c-1.985-2.22-2.17-5.277-0.411-6.855
			l13.272-11.928c1.764-1.574,4.788-1.065,6.778,1.147l0,0c1.989,2.213,2.17,5.277,0.419,6.857L312.227,307.641z"/>
		<path fill="#3C2517" d="M309.716,311.234c-2.292,0-4.572-1.073-6.258-2.949c-3.019-3.371-3.114-8.047-0.213-10.648l13.277-11.93
			c2.782-2.486,7.687-1.854,10.562,1.354c2.966,3.305,3.068,8.078,0.221,10.644l-13.287,11.932
			C312.861,310.667,311.34,311.234,309.716,311.234z M320.827,289.473c-0.314,0-0.558,0.076-0.728,0.23l-13.272,11.925
			c-0.558,0.5-0.41,1.921,0.624,3.072c1.183,1.323,2.498,1.381,2.986,0.942l13.277-11.93c0.558-0.5,0.407-1.921-0.622-3.064
			C322.312,289.781,321.413,289.473,320.827,289.473z"/>
	</g>
	<g>
		<path fill="#F8ED34" d="M281.421,176.977c-1.759,1.577-4.791,1.063-6.778-1.151l0,0c-1.985-2.217-2.166-5.278-0.414-6.856
			l13.275-11.925c1.756-1.577,4.788-1.065,6.773,1.149l0,0c1.99,2.208,2.175,5.278,0.42,6.854L281.421,176.977z"/>
		<path fill="#3C2517" d="M278.904,180.573c-2.29,0-4.57-1.077-6.256-2.957c-2.965-3.306-3.062-8.08-0.213-10.641l13.276-11.928
			c2.78-2.492,7.679-1.854,10.562,1.353c1.362,1.517,2.18,3.396,2.296,5.294c0.128,2.096-0.632,4.046-2.075,5.348l-13.286,11.931
			C282.059,180.002,280.534,180.573,278.904,180.573z M290.02,158.812c-0.312,0-0.558,0.076-0.728,0.228l-13.271,11.924
			c-0.558,0.5-0.412,1.921,0.617,3.072c1.188,1.322,2.493,1.382,2.993,0.945l13.273-11.928c0.308-0.275,0.325-0.766,0.311-1.032
			c-0.04-0.683-0.382-1.422-0.928-2.033C291.504,159.119,290.604,158.812,290.02,158.812z"/>
	</g>
	<g>
		<path fill="#F8ED34" d="M124.452,247.866c1.082,2.097-0.181,4.899-2.827,6.262l0,0c-2.642,1.365-5.649,0.771-6.739-1.323
			l-8.189-15.855c-1.082-2.098,0.182-4.9,2.827-6.266l0,0c2.632-1.366,5.65-0.77,6.735,1.325L124.452,247.866z"/>
		<path fill="#3C2517" d="M118.71,257.545c-2.745,0-5.062-1.309-6.204-3.504l-8.189-15.861c-0.901-1.731-0.915-3.826-0.05-5.74
			c0.783-1.735,2.209-3.207,4.025-4.139c1.302-0.678,2.735-1.036,4.143-1.036c2.747,0,5.065,1.312,6.207,3.51l8.191,15.86
			c0.894,1.734,0.915,3.825,0.049,5.739c-0.78,1.729-2.209,3.206-4.025,4.138C121.552,257.188,120.114,257.545,118.71,257.545z
			 M112.435,232.628c-0.549,0-1.135,0.151-1.677,0.436c-0.738,0.38-1.32,0.953-1.604,1.575c-0.108,0.247-0.261,0.709-0.069,1.078
			l8.189,15.859c0.233,0.445,0.891,0.605,1.437,0.605c0.553,0,1.136-0.152,1.686-0.437c0.733-0.38,1.315-0.951,1.595-1.571
			c0.11-0.248,0.263-0.709,0.078-1.082l-8.197-15.854C113.68,232.866,113.13,232.628,112.435,232.628z"/>
	</g>
	<g>
		<path fill="#EE2E7C" d="M176.544,293.068c-2.139,0.639-4.417-0.646-5.094-2.887l0,0c-0.674-2.231,0.521-4.558,2.66-5.205
			l16.179-4.879c2.134-0.642,4.422,0.642,5.093,2.871l0,0c0.669,2.235-0.522,4.562-2.656,5.211L176.544,293.068z"/>
		<path fill="#3C2517" d="M175.419,295.914c-2.97,0-5.656-2.042-6.536-4.96c-1.1-3.636,0.896-7.468,4.451-8.542l16.178-4.885
			c3.504-1.057,7.374,1.131,8.441,4.666c1.089,3.648-0.905,7.484-4.452,8.556l-16.185,4.883
			C176.692,295.818,176.061,295.914,175.419,295.914z M191.408,282.615c-0.117,0-0.233,0.016-0.352,0.051l-16.174,4.879
			c-0.72,0.219-1.106,1.051-0.864,1.864c0.24,0.799,1.028,1.298,1.756,1.087l16.173-4.881c0.722-0.217,1.107-1.061,0.866-1.877
			C192.61,283.079,192.04,282.615,191.408,282.615z"/>
	</g>
	<g>
		<path fill="#EE2E7C" d="M254.936,189.026c1.104,1.936,0.365,4.44-1.66,5.604l0,0c-2.024,1.154-4.564,0.515-5.671-1.426
			l-8.382-14.672c-1.105-1.94-0.372-4.452,1.653-5.61l0,0c2.029-1.15,4.565-0.516,5.679,1.424L254.936,189.026z"/>
		<path fill="#3C2517" d="M251.122,197.888c-2.426,0-4.667-1.286-5.85-3.354l-8.382-14.672c-1.837-3.226-0.641-7.381,2.654-9.267
			c3.218-1.829,7.562-0.677,9.336,2.414l8.382,14.687c1.838,3.219,0.643,7.374-2.654,9.259
			C253.542,197.566,252.335,197.888,251.122,197.888z M243.031,175.033c-0.287,0-0.573,0.076-0.83,0.222
			c-0.73,0.417-1.024,1.294-0.649,1.953l8.379,14.665c0.365,0.633,1.29,0.836,2.014,0.427c0.734-0.42,1.031-1.296,0.66-1.949
			l-8.377-14.674C243.992,175.273,243.546,175.033,243.031,175.033z"/>
	</g>
	<g>
		<path fill="#EE2E7C" d="M291.859,269.324c0,3.742-2.485,6.777-5.547,6.777c-3.062,0-5.549-3.035-5.549-6.777
			c0-3.749,2.486-6.782,5.549-6.782C289.374,262.542,291.859,265.575,291.859,269.324z"/>
		<path fill="#3C2517" d="M286.312,278.782c-4.541,0-8.23-4.241-8.23-9.458c0-5.221,3.689-9.465,8.23-9.465
			c4.539,0,8.229,4.244,8.229,9.465C294.541,274.541,290.854,278.782,286.312,278.782z M286.312,265.223
			c-1.555,0-2.867,1.879-2.867,4.102c0,2.219,1.312,4.096,2.867,4.096c1.554,0,2.864-1.877,2.864-4.096
			C289.178,267.102,287.866,265.223,286.312,265.223z"/>
	</g>
	<g>
		<path fill="#EE2E7C" d="M349.796,173.791c0,3.746-2.486,6.779-5.548,6.779c-3.064,0-5.547-3.033-5.547-6.779
			c0-3.748,2.481-6.783,5.547-6.783C347.31,167.008,349.796,170.043,349.796,173.791z"/>
		<path fill="#3C2517" d="M344.248,183.251c-4.539,0-8.232-4.246-8.232-9.46c0-5.219,3.693-9.465,8.232-9.465
			c4.541,0,8.229,4.246,8.229,9.465C352.478,179.005,348.789,183.251,344.248,183.251z M344.248,169.688
			c-1.554,0-2.87,1.879-2.87,4.104c0,2.219,1.316,4.095,2.87,4.095c1.551,0,2.866-1.876,2.866-4.095
			C347.114,171.567,345.799,169.688,344.248,169.688z"/>
	</g>
	<g>
		<path fill="#EE2E7C" d="M153.96,184.672c0,3.744-2.486,6.777-5.547,6.777c-3.062,0-5.549-3.034-5.549-6.777
			c0-3.746,2.486-6.778,5.549-6.778C151.474,177.894,153.96,180.926,153.96,184.672z"/>
		<path fill="#3C2517" d="M148.413,194.133c-4.538,0-8.23-4.246-8.23-9.461c0-5.218,3.692-9.463,8.23-9.463
			c4.536,0,8.228,4.246,8.228,9.463C156.641,189.887,152.949,194.133,148.413,194.133z M148.413,180.573
			c-1.555,0-2.867,1.876-2.867,4.099c0,2.222,1.312,4.096,2.867,4.096c1.549,0,2.861-1.875,2.861-4.096
			C151.274,182.45,149.962,180.573,148.413,180.573z"/>
	</g>
	<g>
		<path fill="#3DB54A" d="M226.115,276.102c0,3.741-2.481,6.775-5.543,6.775c-3.065,0-5.548-3.034-5.548-6.775
			c0-3.744,2.482-6.777,5.548-6.777C223.634,269.324,226.115,272.357,226.115,276.102z"/>
		<path fill="#3C2517" d="M220.572,285.561c-4.541,0-8.229-4.244-8.229-9.459c0-5.218,3.688-9.461,8.229-9.461
			c4.536,0,8.226,4.243,8.226,9.461C228.798,281.316,225.108,285.561,220.572,285.561z M220.572,272.003
			c-1.554,0-2.865,1.877-2.865,4.099c0,2.219,1.312,4.096,2.865,4.096c1.549,0,2.862-1.877,2.862-4.096
			C223.435,273.88,222.121,272.003,220.572,272.003z"/>
	</g>
	<g>
		<path fill="#FFFFFF" d="M328.298,259.479c3.043,5.313,3.117,11.002,0.159,12.691c-2.95,1.689-7.813-1.254-10.854-6.564
			c-3.043-5.317-3.116-11.006-0.162-12.69C320.392,251.221,325.259,254.164,328.298,259.479z"/>
		<path fill="#3C2517" d="M326.577,275.329c-3.948,0-8.386-3.296-11.304-8.39c-2.381-4.156-3.246-8.658-2.324-12.045
			c0.529-1.943,1.622-3.434,3.161-4.312c0.961-0.552,2.044-0.83,3.21-0.83c3.951,0,8.389,3.295,11.308,8.393
			c2.374,4.155,3.242,8.651,2.322,12.039c-0.524,1.945-1.62,3.435-3.159,4.314C328.825,275.046,327.748,275.329,326.577,275.329z
			 M319.32,255.117c-0.225,0-0.401,0.037-0.546,0.121c-0.353,0.201-0.548,0.691-0.649,1.066c-0.411,1.508-0.185,4.491,1.805,7.965
			c2.114,3.701,5.006,5.694,6.647,5.694c0.227,0,0.404-0.038,0.547-0.121c0.354-0.202,0.549-0.694,0.652-1.065
			c0.412-1.506,0.181-4.494-1.807-7.965C323.853,257.111,320.966,255.117,319.32,255.117z"/>
	</g>
	<g>
		<path fill="#FFFFFF" d="M206.94,156.758c3.04,5.313,3.111,11.003,0.16,12.691c-2.954,1.691-7.817-1.25-10.861-6.568
			c-3.043-5.313-3.113-11.001-0.156-12.688C199.03,148.499,203.897,151.443,206.94,156.758z"/>
		<path fill="#3C2517" d="M205.221,172.608c-3.955,0-8.393-3.294-11.308-8.394c-1.699-2.96-2.649-6.156-2.686-9.004
			c-0.043-3.369,1.241-6.047,3.522-7.349c0.961-0.552,2.039-0.83,3.207-0.83c3.951,0,8.389,3.294,11.311,8.394
			c1.696,2.96,2.646,6.16,2.683,9.005c0.042,3.369-1.242,6.047-3.521,7.349C207.466,172.33,206.384,172.608,205.221,172.608z
			 M197.957,152.396c-0.221,0-0.397,0.038-0.544,0.123c-0.514,0.294-0.84,1.323-0.826,2.625c0.032,1.92,0.745,4.258,1.977,6.407
			c2.124,3.7,5.011,5.693,6.657,5.693c0.22,0,0.4-0.038,0.546-0.121c0.516-0.296,0.838-1.325,0.819-2.627
			c-0.021-1.92-0.744-4.258-1.972-6.405C202.497,154.393,199.602,152.396,197.957,152.396z"/>
	</g>
</g>
</svg>
