<?xml version="1.0" encoding="utf-8"?>
<!-- Generator: Adobe Illustrator 16.0.0, SVG Export Plug-In . SVG Version: 6.00 Build 0)  -->
<!DOCTYPE svg PUBLIC "-//W3C//DTD SVG 1.1//EN" "http://www.w3.org/Graphics/SVG/1.1/DTD/svg11.dtd">
<svg version="1.1" id="Layer_1" xmlns="http://www.w3.org/2000/svg" xmlns:xlink="http://www.w3.org/1999/xlink" x="0px" y="0px"
	 width="500px" height="500px" viewBox="0 0 500 500" enable-background="new 0 0 500 500" xml:space="preserve">
<g id="Layer_1_copy_7">
	<g>
		<g>
			<path fill="#C4AC30" d="M385.695,469.712c0,4.324-3.543,7.867-7.871,7.867H135.591c-4.329,0-7.872-3.543-7.872-7.867V39.771
				c0-4.328,3.543-7.869,7.872-7.869h242.233c4.328,0,7.871,3.542,7.871,7.869V469.712z"/>
		</g>
		<g>
			<path fill="#27140E" d="M377.824,481.516H135.591c-6.51,0-11.807-5.298-11.807-11.804V39.771c0-6.51,5.297-11.805,11.807-11.805
				h242.233c6.51,0,11.804,5.295,11.804,11.805v429.942C389.628,476.218,384.334,481.516,377.824,481.516z M135.591,35.836
				c-2.165,0-3.935,1.764-3.935,3.934v429.942c0,2.166,1.77,3.929,3.935,3.929h242.233c2.166,0,3.933-1.763,3.933-3.929V39.771
				c0-2.17-1.767-3.934-3.933-3.934L135.591,35.836L135.591,35.836z"/>
		</g>
	</g>
	<g>
		<g>
			<path fill="#DBD9A4" d="M243.234,226.873c0,2.882-2.363,5.245-5.249,5.245h-59.772c-2.885,0-5.245-2.363-5.245-5.245V75.654
				c0-2.885,2.36-5.246,5.245-5.246h59.772c2.886,0,5.249,2.361,5.249,5.246V226.873z"/>
		</g>
		<g>
			<path fill="#27140E" d="M237.985,236.056h-59.772c-5.065,0-9.184-4.124-9.184-9.183V75.654c0-5.062,4.118-9.182,9.184-9.182
				h59.772c5.063,0,9.182,4.119,9.182,9.182v151.219C247.167,231.932,243.049,236.056,237.985,236.056z M178.213,74.343
				c-0.712,0-1.312,0.6-1.312,1.311v151.219c0,0.711,0.6,1.312,1.312,1.312h59.772c0.713,0,1.311-0.601,1.311-1.312V75.654
				c0-0.711-0.598-1.311-1.311-1.311H178.213z"/>
		</g>
	</g>
	<g>
		<g>
			<path fill="#DBD9A4" d="M345.745,226.873c0,2.882-2.358,5.245-5.245,5.245h-59.771c-2.886,0-5.25-2.363-5.25-5.245V75.654
				c0-2.885,2.364-5.246,5.25-5.246H340.5c2.887,0,5.245,2.361,5.245,5.246V226.873z"/>
		</g>
		<g>
			<path fill="#27140E" d="M340.5,236.056h-59.771c-5.064,0-9.184-4.124-9.184-9.183V75.654c0-5.062,4.118-9.182,9.184-9.182H340.5
				c5.064,0,9.183,4.119,9.183,9.182v151.219C349.683,231.932,345.564,236.056,340.5,236.056z M280.729,74.343
				c-0.711,0-1.312,0.6-1.312,1.311v151.219c0,0.711,0.601,1.312,1.312,1.312H340.5c0.713,0,1.312-0.601,1.312-1.312V75.654
				c0-0.711-0.6-1.311-1.312-1.311H280.729z"/>
		</g>
	</g>
	<g>
		<g>
			<path fill="#DBD9A4" d="M345.745,430.939c0,2.885-2.358,5.252-5.245,5.252H173.396c-2.885,0-5.247-2.367-5.247-5.252V286.46
				c0-2.885,2.362-5.249,5.247-5.249H340.5c2.887,0,5.245,2.364,5.245,5.249V430.939z"/>
		</g>
		<g>
			<path fill="#27140E" d="M340.5,440.122H173.396c-5.062,0-9.182-4.115-9.182-9.183V286.46c0-5.063,4.119-9.183,9.182-9.183H340.5
				c5.064,0,9.183,4.119,9.183,9.183v144.479C349.683,436.006,345.564,440.122,340.5,440.122z M173.396,285.15
				c-0.711,0-1.311,0.599-1.311,1.311V430.94c0,0.711,0.6,1.313,1.311,1.313H340.5c0.713,0,1.312-0.604,1.312-1.313V286.46
				c0-0.712-0.6-1.312-1.312-1.312H173.396V285.15z"/>
		</g>
	</g>
	<g>
		<path fill="#218D93" d="M367.886,254.742c0,5.053-4.091,9.141-9.143,9.141s-9.146-4.088-9.146-9.141
			c0-5.055,4.094-9.147,9.146-9.147S367.886,249.687,367.886,254.742z"/>
		<path fill="#27140E" d="M358.743,266.506c-6.488,0-11.77-5.275-11.77-11.765c0-6.494,5.28-11.77,11.77-11.77
			c6.485,0,11.77,5.276,11.77,11.77C370.513,261.23,365.229,266.506,358.743,266.506z M358.743,248.217
			c-3.6,0-6.519,2.928-6.519,6.524c0,3.594,2.919,6.518,6.519,6.518c3.598,0,6.521-2.924,6.521-6.518
			C365.265,251.145,362.341,248.217,358.743,248.217z"/>
	</g>
</g>
</svg>
