<?xml version="1.0" encoding="utf-8"?>
<!-- Generator: Adobe Illustrator 16.0.0, SVG Export Plug-In . SVG Version: 6.00 Build 0)  -->
<!DOCTYPE svg PUBLIC "-//W3C//DTD SVG 1.1//EN" "http://www.w3.org/Graphics/SVG/1.1/DTD/svg11.dtd">
<svg version="1.1" id="Layer_1" xmlns="http://www.w3.org/2000/svg" xmlns:xlink="http://www.w3.org/1999/xlink" x="0px" y="0px"
	 width="500px" height="500px" viewBox="0 0 500 500" enable-background="new 0 0 500 500" xml:space="preserve">
<g id="Layer_1_copy_43">
	<g>
		<g>
			<path fill="#E3D59A" d="M435.041,382.389c0,4.025-3.29,7.314-7.315,7.314H78.005c-4.024,0-9.431-2.521-12.021-5.602l-6.31-7.516
				c-2.587-3.081-4.51-8.888-4.269-12.906l14.847-249.44c0.242-4.017,3.728-7.434,7.745-7.592L413.11,93.362
				c4.024-0.159,9.702,1.977,12.623,4.747l3.997,3.792c2.92,2.769,5.31,8.328,5.31,12.351L435.041,382.389L435.041,382.389z"/>
		</g>
		<g>
			<path fill="#27140E" d="M427.726,393.361H78.005c-5.146,0-11.516-2.967-14.823-6.906l-6.306-7.512
				c-3.166-3.768-5.413-10.566-5.124-15.479l14.852-249.443c0.349-5.853,5.394-10.8,11.25-11.03l335.691-13.295
				c4.922,0,11.244,2.477,14.707,5.758l3.997,3.794c3.678,3.486,6.449,9.936,6.449,15.003v268.138
				C438.698,388.441,433.777,393.361,427.726,393.361z M413.545,97.014l-0.285,0.005L78.143,110.302
				c-2.13,0.084-4.107,2.026-4.238,4.156L59.057,363.896c-0.182,3.063,1.446,7.992,3.421,10.338l6.31,7.512
				c1.889,2.254,6.282,4.301,9.218,4.301h349.721c2.017,0,3.658-1.643,3.658-3.658V114.251c0-3.005-1.988-7.628-4.169-9.696
				l-3.998-3.793C421.107,98.765,416.591,97.014,413.545,97.014z"/>
		</g>
	</g>
	<g>
		<g>
			<path fill="#F8F5E5" d="M419.895,366.941c0,4.023-3.293,7.316-7.317,7.316H62.858c-4.021,0-7.315-3.293-7.315-7.316V98.804
				c0-4.023,3.294-7.315,7.315-7.315h349.718c4.024,0,7.317,3.292,7.317,7.315L419.895,366.941L419.895,366.941z"/>
		</g>
		<g>
			<path fill="#27140E" d="M412.576,377.917H62.858c-6.051,0-10.973-4.926-10.973-10.978V98.804c0-6.051,4.922-10.973,10.973-10.973
				h349.718c6.052,0,10.977,4.922,10.977,10.973v268.137C423.553,372.992,418.628,377.917,412.576,377.917z M62.858,95.147
				c-2.016,0-3.654,1.642-3.654,3.657v268.137c0,2.019,1.639,3.66,3.654,3.66h349.718c2.02,0,3.661-1.643,3.661-3.66V98.804
				c0-2.016-1.643-3.657-3.661-3.657H62.858z"/>
		</g>
	</g>
	<g>
		<g>
			<g>
				<path fill="#919191" d="M69.326,306.953c0,2.263-1.834,4.102-4.101,4.102H48.828c-2.263,0-4.097-1.839-4.097-4.102l0,0
					c0-2.264,1.834-4.098,4.097-4.098h16.397C67.492,302.855,69.326,304.689,69.326,306.953L69.326,306.953z"/>
			</g>
			<g>
				<path fill="#27140E" d="M65.226,313.495H48.828c-3.603,0-6.535-2.937-6.535-6.542c0-3.604,2.933-6.536,6.535-6.536h16.397
					c3.605,0,6.539,2.935,6.539,6.536C71.765,310.559,68.831,313.495,65.226,313.495z M48.828,305.293
					c-0.917,0-1.658,0.746-1.658,1.659c0,0.917,0.741,1.663,1.658,1.663h16.397c0.917,0,1.661-0.746,1.661-1.663
					c0-0.913-0.744-1.659-1.661-1.659H48.828z"/>
			</g>
		</g>
		<g>
			<g>
				<path fill="#919191" d="M69.326,331.02c0,2.267-1.834,4.101-4.101,4.101H48.828c-2.263,0-4.097-1.834-4.097-4.101l0,0
					c0-2.269,1.834-4.102,4.097-4.102h16.397C67.492,326.918,69.326,328.751,69.326,331.02L69.326,331.02z"/>
			</g>
			<g>
				<path fill="#27140E" d="M65.226,337.557H48.828c-3.603,0-6.535-2.933-6.535-6.537s2.933-6.541,6.535-6.541h16.397
					c3.605,0,6.539,2.938,6.539,6.541C71.765,334.625,68.831,337.557,65.226,337.557z M48.828,329.355
					c-0.917,0-1.658,0.746-1.658,1.664c0,0.916,0.741,1.66,1.658,1.66h16.397c0.917,0,1.661-0.744,1.661-1.66
					c0-0.918-0.744-1.664-1.661-1.664H48.828z"/>
			</g>
		</g>
		<g>
			<g>
				<path fill="#919191" d="M69.326,355.086c0,2.262-1.834,4.1-4.101,4.1H48.828c-2.263,0-4.097-1.838-4.097-4.1l0,0
					c0-2.268,1.834-4.1,4.097-4.1h16.397C67.492,350.986,69.326,352.82,69.326,355.086L69.326,355.086z"/>
			</g>
			<g>
				<path fill="#27140E" d="M65.226,361.625H48.828c-3.603,0-6.535-2.936-6.535-6.538c0-3.604,2.933-6.539,6.535-6.539h16.397
					c3.605,0,6.539,2.935,6.539,6.539C71.765,358.689,68.831,361.625,65.226,361.625z M48.828,353.425
					c-0.917,0-1.658,0.745-1.658,1.661c0,0.914,0.741,1.659,1.658,1.659h16.397c0.917,0,1.661-0.745,1.661-1.659
					c0-0.916-0.744-1.661-1.661-1.661H48.828z"/>
			</g>
		</g>
		<g>
			<g>
				<path fill="#919191" d="M69.326,234.714c0,2.277-1.834,4.119-4.101,4.119H48.828c-2.263,0-4.097-1.841-4.097-4.119l0,0
					c0-2.275,1.834-4.118,4.097-4.118h16.397C67.492,230.596,69.326,232.439,69.326,234.714L69.326,234.714z"/>
			</g>
			<g>
				<path fill="#27140E" d="M65.226,241.271H48.828c-3.603,0-6.535-2.94-6.535-6.557c0-3.617,2.933-6.558,6.535-6.558h16.397
					c3.605,0,6.539,2.941,6.539,6.558C71.764,238.331,68.831,241.271,65.226,241.271z M48.828,233.035
					c-0.917,0-1.658,0.753-1.658,1.679c0,0.927,0.741,1.679,1.658,1.679h16.397c0.917,0,1.661-0.752,1.661-1.679
					c0-0.926-0.744-1.679-1.661-1.679H48.828z"/>
			</g>
		</g>
		<g>
			<g>
				<path fill="#919191" d="M69.326,258.82c0,2.268-1.834,4.103-4.101,4.103H48.828c-2.263,0-4.097-1.835-4.097-4.103l0,0
					c0-2.262,1.834-4.096,4.097-4.096h16.397C67.492,254.725,69.326,256.559,69.326,258.82L69.326,258.82z"/>
			</g>
			<g>
				<path fill="#27140E" d="M65.226,265.359H48.828c-3.603,0-6.535-2.933-6.535-6.539c0-3.605,2.933-6.535,6.535-6.535h16.397
					c3.605,0,6.539,2.93,6.539,6.535C71.764,262.427,68.831,265.359,65.226,265.359z M48.828,257.163
					c-0.917,0-1.658,0.744-1.658,1.657c0,0.918,0.741,1.662,1.658,1.662h16.397c0.917,0,1.661-0.744,1.661-1.662
					c0-0.913-0.744-1.657-1.661-1.657H48.828z"/>
			</g>
		</g>
		<g>
			<g>
				<path fill="#919191" d="M69.326,282.886c0,2.267-1.834,4.103-4.101,4.103H48.828c-2.263,0-4.097-1.836-4.097-4.103l0,0
					c0-2.267,1.834-4.101,4.097-4.101h16.397C67.492,278.786,69.326,280.62,69.326,282.886L69.326,282.886z"/>
			</g>
			<g>
				<path fill="#27140E" d="M65.226,289.426H48.828c-3.603,0-6.535-2.934-6.535-6.54c0-3.604,2.933-6.538,6.535-6.538h16.397
					c3.605,0,6.539,2.934,6.539,6.538C71.765,286.493,68.831,289.426,65.226,289.426z M48.828,281.225
					c-0.917,0-1.658,0.744-1.658,1.661c0,0.919,0.741,1.663,1.658,1.663h16.397c0.917,0,1.661-0.744,1.661-1.663
					c0-0.917-0.744-1.661-1.661-1.661H48.828z"/>
			</g>
		</g>
		<g>
			<g>
				<path fill="#919191" d="M69.326,162.495c0,2.263-1.834,4.098-4.101,4.098H48.828c-2.263,0-4.097-1.835-4.097-4.098l0,0
					c0-2.266,1.834-4.1,4.097-4.1h16.397C67.492,158.396,69.326,160.229,69.326,162.495L69.326,162.495z"/>
			</g>
			<g>
				<path fill="#27140E" d="M65.226,169.032H48.828c-3.603,0-6.535-2.933-6.535-6.537c0-3.605,2.933-6.538,6.535-6.538h16.397
					c3.605,0,6.539,2.933,6.539,6.538C71.765,166.1,68.831,169.032,65.226,169.032z M48.828,160.834
					c-0.917,0-1.658,0.745-1.658,1.661c0,0.915,0.741,1.66,1.658,1.66h16.397c0.917,0,1.661-0.746,1.661-1.66
					c0-0.916-0.744-1.661-1.661-1.661H48.828z"/>
			</g>
		</g>
		<g>
			<g>
				<path fill="#919191" d="M69.326,186.56c0,2.265-1.834,4.1-4.101,4.1H48.828c-2.263,0-4.097-1.834-4.097-4.1l0,0
					c0-2.265,1.834-4.099,4.097-4.099h16.397C67.492,182.461,69.326,184.295,69.326,186.56L69.326,186.56z"/>
			</g>
			<g>
				<path fill="#27140E" d="M65.226,193.098H48.828c-3.603,0-6.535-2.933-6.535-6.538c0-3.604,2.933-6.538,6.535-6.538h16.397
					c3.605,0,6.539,2.934,6.539,6.538C71.765,190.165,68.831,193.098,65.226,193.098z M48.828,184.9
					c-0.917,0-1.658,0.744-1.658,1.66s0.741,1.661,1.658,1.661h16.397c0.917,0,1.661-0.745,1.661-1.661
					c0-0.917-0.744-1.66-1.661-1.66H48.828z"/>
			</g>
		</g>
		<g>
			<g>
				<path fill="#919191" d="M69.326,138.429c0,2.263-1.834,4.101-4.101,4.101H48.828c-2.263,0-4.097-1.838-4.097-4.101l0,0
					c0-2.267,1.834-4.099,4.097-4.099h16.397C67.492,134.33,69.326,136.162,69.326,138.429L69.326,138.429z"/>
			</g>
			<g>
				<path fill="#27140E" d="M65.226,144.968H48.828c-3.603,0-6.535-2.934-6.535-6.54c0-3.605,2.933-6.539,6.535-6.539h16.397
					c3.605,0,6.539,2.933,6.539,6.539C71.764,142.034,68.831,144.968,65.226,144.968z M48.828,136.769
					c-0.917,0-1.658,0.745-1.658,1.66c0,0.916,0.741,1.661,1.658,1.661h16.397c0.917,0,1.661-0.745,1.661-1.661
					c0-0.915-0.744-1.66-1.661-1.66H48.828z"/>
			</g>
		</g>
		<g>
			<g>
				<path fill="#919191" d="M69.326,114.363c0,2.264-1.834,4.099-4.101,4.099H48.828c-2.263,0-4.097-1.835-4.097-4.099l0,0
					c0-2.267,1.834-4.1,4.097-4.1h16.397C67.492,110.263,69.326,112.096,69.326,114.363L69.326,114.363z"/>
			</g>
			<g>
				<path fill="#27140E" d="M65.226,120.902H48.828c-3.603,0-6.535-2.933-6.535-6.54c0-3.606,2.933-6.54,6.535-6.54h16.397
					c3.605,0,6.539,2.934,6.539,6.54C71.765,117.97,68.831,120.902,65.226,120.902z M48.828,112.702
					c-0.917,0-1.658,0.746-1.658,1.661c0,0.916,0.741,1.661,1.658,1.661h16.397c0.917,0,1.661-0.746,1.661-1.661
					c0-0.915-0.744-1.661-1.661-1.661H48.828z"/>
			</g>
		</g>
		<g>
			<g>
				<path fill="#919191" d="M69.326,210.626c0,2.265-1.834,4.099-4.101,4.099H48.828c-2.263,0-4.097-1.834-4.097-4.099l0,0
					c0-2.266,1.834-4.1,4.097-4.1h16.397C67.492,206.527,69.326,208.361,69.326,210.626L69.326,210.626z"/>
			</g>
			<g>
				<path fill="#27140E" d="M65.226,217.164H48.828c-3.603,0-6.535-2.933-6.535-6.537c0-3.605,2.933-6.538,6.535-6.538h16.397
					c3.605,0,6.539,2.933,6.539,6.538C71.765,214.231,68.831,217.164,65.226,217.164z M48.828,208.965
					c-0.917,0-1.658,0.745-1.658,1.661c0,0.915,0.741,1.66,1.658,1.66h16.397c0.917,0,1.661-0.745,1.661-1.66
					c0-0.916-0.744-1.661-1.661-1.661H48.828z"/>
			</g>
		</g>
	</g>
	<g>
		<path fill="#686969" d="M145.579,313.025c-0.48,0-0.938-0.285-1.13-0.76c-11.712-28.72,8.174-51.439,8.377-51.666
			c0.45-0.498,1.219-0.543,1.721-0.097c0.502,0.447,0.543,1.22,0.097,1.722c-0.192,0.217-19.062,21.84-7.934,49.12
			c0.254,0.622-0.049,1.333-0.667,1.591C145.893,312.998,145.733,313.025,145.579,313.025z"/>
	</g>
	<g>
		<path fill="#686969" d="M176.061,263.719c-4.341,0-7.425-3.857-9.053-6.562c-1.401,2.696-4.198,5.983-8.03,5.983
			c-1.088,0-2.198-0.265-3.297-0.787c-1.772-0.838-2.909-2.149-3.387-3.9c-0.636-2.333,0.089-5.038,0.982-7.176
			c-1.611,0.729-3.541,1.365-5.364,1.365c-2.666,0-4.603-1.319-5.599-3.813c-2.079-5.223,2.523-9.276,6.113-11.522
			c-1.703-0.398-3.564-1.161-4.932-2.622c-1.43-1.527-2.071-3.531-1.91-5.956c0.148-2.223,1.348-5.953,7.706-5.953
			c2.272,0,4.603,0.474,6.237,0.901c-0.762-3.097-1.593-8.272,0.649-10.446c1.354-1.458,2.868-2.221,4.455-2.221
			c3.861,0,6.83,4.551,8.35,7.5c1.679-2.993,4.979-7.673,9.032-7.282c2.545,0.37,4.266,1.476,5.173,3.294
			c1.229,2.47,0.567,5.724-0.258,8.103c1.381-0.554,3.067-1.04,4.706-1.04c2.809,0,4.829,1.389,5.839,4.016
			c2.067,5.397-3.545,9.558-7.374,11.679c3.719,1.126,9.028,3.662,8.747,8.933c-0.008,0.096-0.024,0.188-0.049,0.282
			c-1.058,3.548-3.694,5.427-7.634,5.427l0,0c-2.347,0-4.747-0.673-6.509-1.316c0.92,2.918,1.913,7.467,0.398,10.379
			c-0.708,1.354-1.902,2.24-3.455,2.568C177.087,263.661,176.569,263.719,176.061,263.719z M166.828,252.948
			c0.481,0,0.921,0.262,1.106,0.714c0.035,0.074,3.223,7.617,8.126,7.617c0.337,0,0.687-0.037,1.038-0.112
			c0.848-0.179,1.422-0.594,1.792-1.31c1.449-2.784-0.563-8.883-1.46-11.003c-0.202-0.471-0.081-1.02,0.293-1.367
			c0.378-0.351,0.934-0.429,1.394-0.189c0.042,0.021,4.26,2.185,8.048,2.185l0,0c2.771,0,4.491-1.157,5.25-3.541
			c0.128-5.557-10.041-7.03-10.146-7.044c-0.549-0.076-0.975-0.511-1.043-1.061c-0.062-0.553,0.247-1.079,0.762-1.281
			c0.117-0.044,11.3-4.626,9.205-10.08c-0.639-1.671-1.772-2.451-3.558-2.451c-2.985,0-6.451,2.186-6.485,2.208
			c-0.467,0.3-1.086,0.244-1.49-0.139c-0.405-0.379-0.501-0.986-0.234-1.475c0.88-1.616,2.886-6.386,1.578-9.01
			c-0.536-1.073-1.608-1.714-3.28-1.959l0,0c-3.386,0-6.746,6.043-7.674,8.16c-0.199,0.452-0.646,0.758-1.14,0.73
			c-0.488-0.007-0.928-0.311-1.109-0.77c-0.855-2.158-4.009-8.321-7.168-8.321c-0.883,0-1.796,0.5-2.713,1.489
			c-1.433,1.388-0.516,6.879,0.541,10.169c0.146,0.444,0.022,0.926-0.312,1.249c-0.333,0.324-0.821,0.427-1.261,0.272
			c-0.037-0.016-4.004-1.415-7.598-1.415c-4.505,0-5.168,2.099-5.274,3.677c-0.116,1.748,0.296,3.1,1.257,4.126
			c1.964,2.099,5.716,2.262,6.814,2.262c0.632,0,0.475-0.012,0.516-0.012c0.562,0,1.058,0.391,1.188,0.948
			c0.131,0.577-0.172,1.168-0.721,1.398c-0.11,0.045-10.785,4.544-8.49,10.317c0.619,1.549,1.676,2.274,3.332,2.274
			c2.819,0,6.495-2.171,7.672-3.009c0.481-0.34,1.141-0.285,1.559,0.124c0.42,0.412,0.488,1.068,0.156,1.556
			c-1.007,1.491-3.452,6.007-2.649,8.944c0.282,1.043,0.962,1.809,2.072,2.332c0.771,0.367,1.53,0.553,2.256,0.553
			c3.949,0,6.526-5.523,6.615-6.6c0.044-0.559,0.474-1.054,1.03-1.14C166.691,252.956,166.761,252.948,166.828,252.948z
			 M167.18,248.294c-5.967,0-10.82-4.88-10.82-10.884c0-5.977,4.854-10.84,10.82-10.84c5.976,0,10.839,4.863,10.839,10.84
			C178.019,243.414,173.155,248.294,167.18,248.294z M167.18,229.011c-4.624,0-8.381,3.768-8.381,8.399
			c0,4.657,3.757,8.445,8.381,8.445c4.629,0,8.399-3.788,8.399-8.445C175.579,232.779,171.809,229.011,167.18,229.011z"/>
	</g>
	<g>
		<path fill="#686969" d="M252.684,330.219c-0.485,0-0.939-0.285-1.132-0.761c-9.153-22.44,6.388-40.194,6.546-40.372
			c0.446-0.499,1.217-0.546,1.723-0.097c0.504,0.444,0.545,1.22,0.099,1.721c-0.147,0.169-14.673,16.826-6.108,37.827
			c0.254,0.622-0.045,1.333-0.67,1.587C252.99,330.188,252.836,330.219,252.684,330.219z"/>
	</g>
	<g>
		<path fill="#686969" d="M276.327,291.961c-3.272,0-5.646-2.704-6.998-4.809c-1.177,2.074-3.317,4.361-6.255,4.361
			c-0.885,0-1.786-0.218-2.676-0.636c-1.426-0.677-2.387-1.787-2.771-3.206c-0.457-1.673-0.069-3.543,0.515-5.127
			c-1.141,0.461-2.424,0.822-3.652,0.822c-2.158,0-3.789-1.114-4.597-3.131c-1.584-3.979,1.578-7.096,4.335-8.937
			c-1.188-0.351-2.422-0.946-3.363-1.957c-1.163-1.239-1.689-2.864-1.559-4.821c0.124-1.821,1.099-4.879,6.258-4.879
			c1.594,0,3.221,0.299,4.465,0.599c-0.562-2.48-1.045-6.25,0.683-7.929c1.097-1.177,2.341-1.797,3.647-1.797
			c2.943,0,5.225,3.203,6.488,5.528c1.397-2.366,3.895-5.646,7.026-5.356c2.579,0.375,3.72,1.676,4.231,2.705
			c0.908,1.828,0.568,4.129,0.006,5.949c0.981-0.347,2.103-0.619,3.201-0.619c2.271,0,3.968,1.17,4.781,3.293
			c1.579,4.116-2.31,7.317-5.308,9.086c2.905,0.982,6.604,3.022,6.392,7.014c-0.006,0.101-0.02,0.193-0.048,0.285
			c-0.845,2.841-3.043,4.406-6.185,4.406l0,0c-1.639,0-3.312-0.416-4.633-0.861c0.668,2.305,1.263,5.576,0.134,7.744
			c-0.585,1.127-1.578,1.865-2.866,2.138C277.167,291.917,276.744,291.961,276.327,291.961z M269.145,283.007
			c0.486,0,0.939,0.31,1.133,0.771c0.721,1.729,3.479,6.355,6.8,5.666c0.581-0.123,0.952-0.396,1.206-0.877
			c0.958-1.836-0.191-6.068-1.141-8.309c-0.203-0.471-0.086-1.02,0.293-1.367c0.377-0.35,0.926-0.425,1.391-0.191
			c0.031,0.019,3.253,1.67,6.121,1.67l0,0c2.029,0,3.24-0.805,3.801-2.521c0.038-3.986-7.555-5.139-7.634-5.148
			c-0.55-0.075-0.979-0.512-1.046-1.062c-0.064-0.553,0.248-1.076,0.764-1.279c0.085-0.034,8.516-3.49,6.984-7.471
			c-0.455-1.191-1.229-1.725-2.504-1.725c-1.867,0-4.158,1.201-4.883,1.665c-0.471,0.3-1.086,0.247-1.49-0.134
			c-0.405-0.377-0.504-0.988-0.236-1.477c0.663-1.221,2.184-4.812,1.219-6.738c-0.375-0.75-1.141-1.195-2.34-1.371
			c-2.27,0-4.787,4.156-5.667,6.168c-0.195,0.451-0.642,0.742-1.136,0.731c-0.492-0.007-0.932-0.312-1.114-0.769
			c-0.81-2.051-3.179-6.285-5.306-6.285c-0.604,0-1.246,0.359-1.906,1.07c-0.992,0.966-0.35,5.035,0.482,7.617
			c0.144,0.442,0.022,0.928-0.312,1.252c-0.332,0.321-0.823,0.428-1.261,0.271c-0.03-0.011-3.062-1.081-5.801-1.081
			c-3.65,0-3.771,1.822-3.822,2.6c-0.086,1.274,0.21,2.256,0.9,2.994c1.451,1.551,4.266,1.67,5.088,1.67l0.326-0.007
			c0.6-0.038,1.129,0.367,1.258,0.944c0.135,0.58-0.168,1.171-0.718,1.396c-0.083,0.034-8.091,3.49-6.437,7.652
			c0.438,1.1,1.156,1.594,2.33,1.594c2.106,0,4.896-1.648,5.796-2.283c0.481-0.345,1.134-0.289,1.557,0.123s0.487,1.064,0.157,1.553
			c-0.766,1.131-2.613,4.537-2.02,6.715c0.203,0.74,0.666,1.26,1.463,1.638c0.561,0.267,1.112,0.402,1.631,0.402
			c2.839,0,4.762-4.054,4.861-4.874c0-0.579,0.407-1.059,0.979-1.17C268.988,283.014,269.064,283.007,269.145,283.007z
			 M269.438,279.995c-4.779,0-8.668-3.911-8.668-8.72c0-4.789,3.889-8.683,8.668-8.683c4.787,0,8.684,3.894,8.684,8.683
			C278.121,276.083,274.227,279.995,269.438,279.995z M269.438,265.031c-3.435,0-6.229,2.799-6.229,6.244
			c0,3.461,2.796,6.281,6.229,6.281c3.441,0,6.244-2.82,6.244-6.281C275.684,267.83,272.88,265.031,269.438,265.031z"/>
	</g>
	<g>
		<path fill="#686969" d="M253.195,187.712c-0.61,0-1.225-0.229-1.698-0.69l-56.791-55.176c-7.696-6.785-17.1-9.821-27.837-8.956
			c-41.695,3.378-91.247,63.324-91.746,63.928c-0.851,1.044-2.39,1.196-3.432,0.34c-1.043-0.852-1.193-2.391-0.343-3.431
			c0.128-0.155,12.888-15.663,30.783-31.377c24.231-21.277,45.876-32.823,64.34-34.32c12.117-0.982,22.729,2.461,31.549,10.237
			l56.876,55.256c0.965,0.939,0.988,2.484,0.049,3.449C254.467,187.465,253.832,187.712,253.195,187.712z"/>
	</g>
	<g>
		<path fill="#686969" d="M372.704,163.935c-0.521,0-1.051-0.17-1.497-0.516c-1.062-0.83-1.249-2.364-0.422-3.425
			c0.175-0.221,17.625-22.413,41.761-40.917c1.073-0.821,2.599-0.617,3.42,0.451c0.82,1.07,0.618,2.6-0.453,3.419
			c-23.649,18.129-40.713,39.833-40.885,40.05C374.147,163.613,373.433,163.935,372.704,163.935z"/>
	</g>
	<g>
		<path fill="#686969" d="M392.33,187.103c-0.629,0-1.254-0.24-1.735-0.723c-0.291-0.297-29.918-30.136-65.63-59.584
			c-34.294-28.283-103.107,24.902-103.799,25.443c-1.062,0.831-2.593,0.642-3.424-0.417c-0.831-1.061-0.642-2.593,0.419-3.424
			c0.729-0.57,18.142-14.114,40.335-24.203c29.938-13.606,53.99-14.011,69.573-1.161c35.907,29.609,65.695,59.615,65.993,59.913
			c0.948,0.958,0.938,2.502-0.017,3.45C393.569,186.868,392.947,187.103,392.33,187.103z"/>
	</g>
	<g>
		<path fill="#686969" d="M171.163,319.049c-0.23,0-0.46-0.064-0.666-0.199c-1.938-1.268-4.495-4.672-6.993-8.322
			c0.014,1.925-0.391,3.785-1.46,4.998c-0.828,0.938-2.37,1.887-5.017,1.045c-3.153-0.993-5.943-5.025-8.099-9.287
			c-1.36,4.479-4.634,9.742-5.675,10.52c-0.426,0.312-1.188,0.375-1.617,0.072c-0.838-0.595-0.52-1.628-0.386-2.068
			c0.234-0.762-0.271-2.605-1.927-5.021c-1.538-2.238-3.098-3.577-3.856-3.956c-0.004,0.064-0.004,0.143-0.004,0.227
			c0.169,6.184-6.01,10.534-6.271,10.717c-0.312,0.217-0.707,0.274-1.068,0.158c-0.361-0.117-0.649-0.396-0.772-0.75
			c-2.433-6.779-1.758-10.77-1.161-14.289c0.172-1.011,0.33-1.944,0.398-2.884c-4.822,5.431-3.851,16.071-3.839,16.191
			c0.067,0.67-0.42,1.264-1.094,1.332c-0.677,0.04-1.263-0.427-1.331-1.097c-0.06-0.598-1.341-14.713,6.744-20.047
			c0.351-0.233,0.794-0.269,1.176-0.093c0.384,0.171,0.648,0.528,0.707,0.944c0.296,2.201-0.021,4.072-0.358,6.055
			c-0.518,3.066-1.051,6.23,0.502,11.398c1.577-1.455,4.022-4.258,3.93-7.571c-0.041-1.681,0.653-2.367,1.244-2.646
			c1.04-0.498,2.32-0.065,3.908,1.309c1.688,1.467,4.334,4.727,5.244,7.676c1.816-3.121,4.221-8.316,3.589-10.225l-0.082-0.237
			c-0.159-0.474-0.529-1.586,0.58-1.998c0.416-0.162,1.182-0.233,1.673,0.962c2.844,6.893,6.047,11.485,8.579,12.285
			c1.689,0.535,2.267-0.12,2.452-0.334c1.312-1.489,0.996-5.666-0.145-8.133c-0.275-0.59-0.783-1.693,0.254-2.27
			c1.052-0.592,1.375-0.104,3.16,2.596c1.976,2.996,6.087,9.223,8.346,10.699c0.563,0.371,0.722,1.123,0.354,1.689
			C171.95,318.854,171.562,319.049,171.163,319.049z"/>
	</g>
	<g>
		<path fill="#686969" d="M232.692,339.564c-0.397,0-0.785-0.197-1.02-0.556c-0.371-0.562-0.213-1.317,0.35-1.688
			c2.264-1.478,6.376-7.703,8.353-10.697c1.78-2.696,2.103-3.188,3.157-2.598c1.033,0.576,0.525,1.681,0.251,2.271
			c-1.137,2.467-1.453,6.641-0.145,8.133c0.192,0.213,0.762,0.861,2.451,0.332c2.536-0.8,5.743-5.393,8.58-12.283
			c0.494-1.199,1.265-1.121,1.677-0.963c1.109,0.414,0.735,1.524,0.576,1.998l-0.078,0.237c-0.636,1.907,1.771,7.103,3.59,10.226
			c0.91-2.951,3.551-6.209,5.243-7.674c1.591-1.38,2.868-1.81,3.905-1.311c0.592,0.279,1.291,0.965,1.243,2.645
			c-0.089,3.33,2.354,6.127,3.933,7.579c1.553-5.177,1.018-8.336,0.498-11.405c-0.333-1.979-0.648-3.854-0.35-6.053
			c0.054-0.419,0.318-0.775,0.699-0.947c0.385-0.176,0.828-0.138,1.178,0.094c8.09,5.334,6.805,19.449,6.746,20.046
			c-0.064,0.67-0.666,1.176-1.332,1.093c-0.67-0.062-1.16-0.659-1.096-1.329c0.01-0.116,0.973-10.759-3.841-16.187
			c0.072,0.934,0.229,1.871,0.401,2.877c0.595,3.521,1.268,7.513-1.156,14.293c-0.131,0.353-0.417,0.634-0.777,0.748
			c-0.362,0.119-0.756,0.058-1.063-0.159c-0.267-0.181-6.446-4.529-6.278-10.716c0.004-0.086,0.004-0.16,0-0.223
			c-0.756,0.374-2.318,1.713-3.855,3.953c-1.659,2.414-2.164,4.258-1.932,5.018c0.139,0.442,0.457,1.477-0.382,2.072
			c-0.433,0.305-1.194,0.239-1.612-0.074c-1.049-0.775-4.328-6.047-5.683-10.529c-2.19,4.324-4.965,8.312-8.098,9.303
			c-2.648,0.837-4.19-0.111-5.016-1.048c-1.067-1.213-1.476-3.075-1.462-5.002c-2.494,3.653-5.053,7.06-6.989,8.325
			C233.153,339.498,232.923,339.564,232.692,339.564z"/>
	</g>
	<g>
		<path fill="#686969" d="M417.099,188.626h-0.003l-343.148-0.711c-1.347-0.001-2.439-1.096-2.436-2.441
			c0.003-1.347,1.095-2.435,2.438-2.435c0.003,0,0.003,0,0.003,0l343.154,0.711c1.347,0.003,2.435,1.097,2.432,2.444
			C419.538,187.54,418.445,188.626,417.099,188.626z"/>
	</g>
	<g>
		<g>
			<polygon fill="#F7E4BC" points="284.525,336.545 294.521,309.611 309.554,269.131 348.917,280.65 353.42,319.812 			"/>
			<path fill="#27140E" d="M284.525,338.984c-0.687,0-1.353-0.289-1.819-0.819c-0.601-0.672-0.779-1.619-0.466-2.47l25.028-67.411
				c0.443-1.199,1.739-1.853,2.972-1.494l39.363,11.521c0.94,0.272,1.624,1.088,1.733,2.061l4.508,39.163
				c0.141,1.222-0.652,2.36-1.85,2.649l-68.894,16.731C284.91,338.961,284.719,338.984,284.525,338.984z M311.052,272.113
				l-22.645,60.979l62.345-15.143l-4.073-35.414L311.052,272.113z"/>
		</g>
		<g>
			<line fill="none" x1="311.666" y1="329.667" x2="294.373" y2="309.741"/>
			<polygon fill="#27140E" points="309.825,331.266 292.532,311.342 296.213,308.145 313.506,328.068 			"/>
		</g>
		<g>
			<path fill="#279DD8" d="M448.209,190.525l-8.727-10.044c-13.522-16.33-30.564,2.383-30.564,2.383l-99.364,86.267l7.247,21.141
				l7.101,8.178l2.493,2.867l7.103,8.185l19.902,10.146l99.367-86.271c0,0,20.924-14.242,6.652-29.925l-8.713-10.053
				L448.209,190.525z"/>
			<path fill="#27140E" d="M353.398,322.084c-0.377,0-0.757-0.089-1.104-0.268l-19.908-10.146c-0.275-0.142-0.526-0.337-0.729-0.573
				l-16.696-19.229c-0.205-0.234-0.363-0.511-0.466-0.81l-7.248-21.14c-0.318-0.94-0.037-1.979,0.711-2.63l99.263-86.181
				c1.078-1.15,9.492-9.754,19.545-9.754c5.522,0,10.438,2.546,14.599,7.569l19.901,22.928c4.238,4.657,6.091,9.742,5.462,15.068
				c-1.201,10.162-11.148,17.463-12.457,18.383L355,321.488C354.547,321.882,353.973,322.084,353.398,322.084z M335.024,307.543
				l18.018,9.184l98.127-85.191c0.069-0.062,0.146-0.12,0.224-0.171c0.095-0.065,9.504-6.601,10.489-15.031
				c0.447-3.855-0.985-7.637-4.262-11.242l-19.979-23.011c-3.229-3.895-6.877-5.848-10.878-5.848c-8.365,0-15.97,8.195-16.046,8.277
				c-0.062,0.069-0.13,0.136-0.202,0.196l-98.12,85.191l6.56,19.135L335.024,307.543z"/>
		</g>
		<g>
			<line fill="none" x1="316.801" y1="290.271" x2="414.898" y2="205.105"/>
			
				<rect x="363.419" y="182.731" transform="matrix(-0.6556 -0.7551 0.7551 -0.6556 418.6811 686.329)" fill="#27140E" width="4.877" height="129.907"/>
		</g>
		<g>
			<line fill="none" x1="333.166" y1="309.121" x2="431.261" y2="223.954"/>
			
				<rect x="379.797" y="201.591" transform="matrix(-0.6554 -0.7553 0.7553 -0.6554 431.4128 729.9374)" fill="#27140E" width="4.876" height="129.91"/>
		</g>
		<g>
			<line fill="none" x1="445.166" y1="239.976" x2="401.321" y2="189.461"/>
			
				<rect x="389.797" y="212.281" transform="matrix(-0.6555 -0.7552 0.7552 -0.6555 538.5233 675.0983)" fill="#27140E" width="66.89" height="4.876"/>
		</g>
		<g>
			<polygon fill="#484747" points="294.816,313.395 308.136,328.721 287.134,333.869 			"/>
			<path fill="#27140E" d="M285.184,335.604l9.215-24.554l15.97,18.378L285.184,335.604z M295.239,315.742l-6.152,16.393
				l16.816-4.121L295.239,315.742z"/>
		</g>
		<g>
			<path fill="#F16667" d="M403.821,188.803l42.356,48.775c0,0,8.299-6.768,10.033-8.632c1.737-1.867,7.062-6.718,6.82-12.78
				c0.576-7.011-5.764-12.382-5.764-12.382l-20.565-23.551c0,0-4.743-5.949-11.657-5.231
				C415.85,176.069,406.737,186.251,403.821,188.803z"/>
			<path fill="#27140E" d="M446.036,239.272l-43.933-50.587l0.918-0.799c0.437-0.383,1.009-0.938,1.71-1.611
				c4.187-4.03,11.977-11.533,20.175-12.486c0.45-0.046,0.879-0.067,1.298-0.067c6.79,0,11.266,5.516,11.451,5.751l20.53,23.506
				c0.147,0.109,6.685,5.736,6.062,13.288c0.239,5.858-4.363,10.625-6.578,12.916l-0.566,0.592c-1.771,1.906-9.812,8.47-10.15,8.748
				L446.036,239.272z M405.518,188.897l40.807,46.988c2.194-1.806,7.673-6.347,8.996-7.771l0.598-0.627
				c1.981-2.047,6.092-6.308,5.896-11.273c0.521-6.435-5.274-11.453-5.333-11.502l-20.696-23.676
				c-0.076-0.096-4.468-5.471-10.609-4.822c-7.367,0.857-15.057,8.259-18.748,11.818C406.1,188.346,405.797,188.636,405.518,188.897
				z"/>
		</g>
	</g>
</g>
</svg>
