<?xml version="1.0" encoding="utf-8"?>
<!-- Generator: Adobe Illustrator 16.0.0, SVG Export Plug-In . SVG Version: 6.00 Build 0)  -->
<!DOCTYPE svg PUBLIC "-//W3C//DTD SVG 1.1//EN" "http://www.w3.org/Graphics/SVG/1.1/DTD/svg11.dtd">
<svg version="1.1" id="Layer_1" xmlns="http://www.w3.org/2000/svg" xmlns:xlink="http://www.w3.org/1999/xlink" x="0px" y="0px"
	 width="500px" height="500px" viewBox="0 0 500 500" enable-background="new 0 0 500 500" xml:space="preserve">
<g id="Layer_1_copy_34">
	<path fill="#AB4A27" stroke="#3C2415" stroke-width="4.1843" stroke-miterlimit="10" d="M194.357,139.183
		c0,0-42.729,54.048-32.616,95.192c10.113,41.145,70.78,140.171,78.802,140.171s6.628-23.711,6.975-59.973
		C247.866,278.311,227.672,122.446,194.357,139.183z"/>
	<path fill="#85422D" stroke="#3C2415" stroke-width="4.1843" stroke-miterlimit="10" d="M194.622,134.999
		c0,0-32.885,32.777-7.007,89.962c25.877,57.186,66.674,149.585,66.674,149.585l32.428,81.245c0,0,14.147,16.737,14.919,9.068
		c0.772-7.671,2.515-9.769,8.442-0.7c5.93,9.067,14.647,12.9,15.344,5.23c0.694-7.67,8.368-6.971,12.9,0.352
		c4.53,7.321,8.728,7.671,6.979-3.837c-1.749-11.506-7.327-24.405-7.327-35.913c0-11.507-0.702-15.69-4.534-31.382
		c-3.833-15.693-3.833-13.252-1.74-29.989c2.092-16.737,1.396-170.508-39.75-232.402
		C261.611,132.905,194.622,134.999,194.622,134.999z"/>
	<path fill="#D9BD9D" stroke="#3C2415" stroke-width="4.1843" stroke-miterlimit="10" d="M214.886,97.688
		c0,0-19.523,32.43-20.222,40.449c-0.699,8.019,8.017,36.612,8.017,36.612l12.205-23.362l17.437,19.526l4.184-20.922l21.269,5.23
		l8.187-16.737l18.665,12.553l7.323-14.819c0,0,5.229-75.837-39.75-93.273c-44.981-17.436-55.443,18.13-55.443,18.13L214.886,97.688
		z"/>
	
		<ellipse fill="#FFFFFF" stroke="#3C2415" stroke-width="3.1382" stroke-miterlimit="10" cx="235.795" cy="67.039" rx="11.728" ry="14.521"/>
	<path fill="#3C2415" d="M238.157,68.051c0,3.439-2.142,6.224-4.789,6.224c-2.64,0-4.785-2.785-4.785-6.224
		c0-3.437,2.146-6.221,4.785-6.221C236.016,61.83,238.157,64.614,238.157,68.051z"/>
	<path fill="#F7941E" stroke="#3C2415" stroke-width="4.1843" stroke-miterlimit="10" d="M197.729,63.037
		c0,0-31.659,0.479-30.962,21.052c0.699,20.574,2.439,22.354,2.439,22.354l39.269-21.702L197.729,63.037z"/>
	<polygon fill="#F7941E" stroke="#3C2415" stroke-width="4.1843" stroke-miterlimit="10" points="214.886,97.688 183.81,98.373 
		208.475,84.741 	"/>
	<path fill="#754C29" stroke="#3C2415" stroke-width="4.1843" stroke-miterlimit="10" d="M91.103,347.352l1.74,27.194
		c0,0,86.751,8.306,118.869,8.339c32.117,0.031,31.165,0.979,61.628,3.295c30.462,2.316,59.404,10.689,79.626,10.338
		c20.226-0.352,41.849-5.934,55.097-1.397c13.247,4.536,23.706,8.271,32.074-5.103c8.369-13.377,13.604-23.142,14.998-32.205
		c1.395-9.065-25.105,1.17-33.475,6.514c-8.368,5.342-14.646,8.816-33.476,8.996c-18.828,0.18-71.631-2.485-86.55-7.256
		c-14.919-4.768-56.532-8.838-77.568-10.812c-21.034-1.977-40.56-6.161-61.831-6.161C140.964,349.092,91.103,347.352,91.103,347.352
		z"/>
	<path fill="#FBB040" stroke="#3C2415" stroke-width="4.1843" stroke-miterlimit="10" d="M205.472,336.542
		c0,0-21.621,3.836-17.784,20.571c3.838,16.738,16.039,41.496,23.362,17.088C218.371,349.792,212.542,338.18,205.472,336.542z"/>
	<path fill="#FBB040" stroke="#3C2415" stroke-width="4.1843" stroke-miterlimit="10" d="M219.07,338.286
		c0,0-21.62,3.834-17.782,20.571c3.836,16.736,16.037,41.494,23.359,17.086C231.972,351.535,226.14,339.922,219.07,338.286z"/>
	<path fill="#FBB040" stroke="#3C2415" stroke-width="4.1843" stroke-miterlimit="10" d="M267.536,340.378
		c0,0-21.619,3.834-17.783,20.57c3.837,16.737,16.038,41.493,23.361,17.087C280.438,353.627,274.605,342.014,267.536,340.378z"/>
	<path fill="#FBB040" stroke="#3C2415" stroke-width="4.1843" stroke-miterlimit="10" d="M281.137,342.12
		c0,0-21.621,3.835-17.783,20.573c3.838,16.736,16.039,41.49,23.36,17.086C294.035,355.371,288.204,343.756,281.137,342.12z"/>
	<path fill="#AB4A27" stroke="#3C2415" stroke-width="4.1843" stroke-miterlimit="10" d="M292.135,152.783
		c0,0-42.729,54.048-32.615,95.192c10.113,41.143,70.782,140.169,78.804,140.169c8.021,0,6.626-23.709,6.975-59.974
		C345.645,291.909,325.45,136.045,292.135,152.783z"/>
</g>
</svg>
