<?xml version="1.0" encoding="utf-8"?>
<!-- Generator: Adobe Illustrator 16.0.0, SVG Export Plug-In . SVG Version: 6.00 Build 0)  -->
<!DOCTYPE svg PUBLIC "-//W3C//DTD SVG 1.1//EN" "http://www.w3.org/Graphics/SVG/1.1/DTD/svg11.dtd">
<svg version="1.1" id="Layer_1" xmlns="http://www.w3.org/2000/svg" xmlns:xlink="http://www.w3.org/1999/xlink" x="0px" y="0px"
	 width="500px" height="500px" viewBox="0 0 500 500" enable-background="new 0 0 500 500" xml:space="preserve">
<g id="Layer_1_copy_99">
	<g>
		<path fill="#DFA24C" d="M30.24,308.246c0,0-13.413,59.881,85.751,76.17c0,0,145.151,9.1,246.234,6.705
			c101.079-2.395,119.283-51.258,110.66-91.021c-8.62-39.76-167.666-48.383-167.666-48.383s-111.624,28.264-127.433,24.908
			c-15.806-3.354-86.705,4.312-86.705,4.312L30.24,308.246z"/>
		<path fill="#3C2517" d="M325.511,394.1c0,0-0.01,0-0.017,0c-95.106,0-208.528-7.043-209.665-7.113
			c-0.086-0.006-0.169-0.016-0.255-0.029c-38.494-6.324-64.974-19.838-78.695-40.164c-13.297-19.697-9.328-38.328-9.156-39.111
			c0.183-0.795,0.723-1.453,1.461-1.789l60.843-27.307c0.245-0.109,0.507-0.182,0.778-0.212c0.48-0.054,48.171-5.175,73.881-5.175
			c6.305,0,10.767,0.299,13.639,0.908c0.474,0.1,1.379,0.219,2.985,0.219c23.846-0.004,122.287-24.859,123.278-25.107
			c0.248-0.066,0.507-0.094,0.77-0.076c6.578,0.354,161.112,9.203,170.051,50.414c3.354,15.486,4.085,38.119-11.538,57.967
			c-17.969,22.832-52.146,35.002-101.583,36.177C351.029,393.966,338.656,394.1,325.511,394.1z M116.28,381.848
			c4.429,0.274,115.708,7.098,209.214,7.098c0.007,0,0.014,0,0.014,0c13.105,0,25.437-0.133,36.655-0.402
			c47.827-1.133,80.684-12.641,97.658-34.211c14.377-18.27,13.675-39.279,10.547-53.686c-3.286-15.15-32.674-27.98-84.992-37.11
			c-38.094-6.646-75.7-8.981-79.907-9.224c-7.759,1.959-100.198,25.168-124.159,25.168c-1.673,0-2.998-0.109-4.055-0.332
			c-2.479-0.525-6.709-0.795-12.569-0.795c-24.183,0-68.226,4.604-72.924,5.102l-59.206,26.576
			c-0.569,4.24-1.566,18.897,8.673,33.988C54.136,363.041,79.386,375.77,116.28,381.848z"/>
	</g>
	<g>
		<path fill="#6E4020" d="M36.31,314.953c0,0,26.19,11.182,31.938,17.246c5.747,6.07,32.621,29.422,43.158,30.383
			c10.542,0.957,29.822-2.293,50.259-6.443c20.439-4.154,27.704-5.668,39.518-2.793c11.813,2.871,40.797-8.051,56.131-6.133
			c15.328,1.916,32.258,7.348,50.461,0.959c18.203-6.391,23.312-11.5,35.768-8.625c12.457,2.873,22.358,16.289,41.838,15.65
			c19.482-0.643,32.896-0.637,42.477-9.902c9.584-9.262,8.306-15.328,15.011-16.285c6.708-0.961,12.138,2.551,16.928-12.139
			c4.791-14.688-39.919-11.816-43.115-10.855c-3.196,0.955-109.544,3.191-109.544,3.191l-116.891-3.512l-99.963-7.027l-47.264-4.791
			C43.018,293.876,31.841,306.654,36.31,314.953z"/>
		<path fill="#3C2517" d="M115.544,365.328L115.544,365.328c-1.59,0-3.058-0.062-4.366-0.18
			c-12.157-1.109-40.038-26.146-44.802-31.176c-4.412-4.658-23.928-13.597-31.077-16.646c-0.54-0.229-0.98-0.633-1.259-1.15
			c-5.254-9.76,6.536-23.422,7.036-23.994c0.55-0.629,1.375-0.938,2.2-0.871l47.267,4.793l99.883,7.021l116.785,3.506
			c41.646-0.879,105.151-2.432,108.868-3.116c1.414-0.433,7.911-0.951,14.745-0.951c16.514,0,26.736,2.551,30.388,7.58
			c1.577,2.17,1.932,4.77,1.034,7.524c-4.095,12.562-9.239,13.623-15.537,13.703c-1.192,0.012-2.325,0.024-3.479,0.19
			c-2.396,0.342-3.095,1.338-5.151,4.74c-1.649,2.736-3.912,6.48-8.431,10.846c-9.855,9.531-23.145,9.955-41.532,10.539l-2.65,0.086
			c-12.88,0.484-21.731-4.887-29.526-9.545c-4.448-2.66-8.649-5.17-12.977-6.168c-8.057-1.856-12.9,0.01-21.831,3.693
			c-3.509,1.449-7.479,3.088-12.506,4.85c-6.072,2.135-12.437,3.168-19.456,3.168c-7.785,0-15.169-1.252-22.312-2.469
			c-3.429-0.582-6.664-1.129-9.864-1.529c-1.101-0.139-2.343-0.209-3.688-0.209c-6.9,0-15.835,1.791-24.478,3.521
			c-8.521,1.709-16.571,3.322-22.818,3.322c-2.114,0-3.893-0.182-5.437-0.557c-4.002-0.976-7.378-1.408-10.959-1.408
			c-6.668,0-14.327,1.557-27.025,4.139l-0.41,0.082C139.502,363.271,125.118,365.328,115.544,365.328z M38.241,312.979
			c5.224,2.26,26.362,11.633,31.875,17.448c6.881,7.263,32.558,28.771,41.529,29.587c1.152,0.104,2.465,0.159,3.898,0.159
			c11.807,0,30.577-3.51,45.607-6.562l0.41-0.084c20.268-4.117,27.888-5.691,40.23-2.687c1.123,0.271,2.541,0.41,4.218,0.41
			c5.737,0,13.542-1.563,21.808-3.222c8.885-1.78,18.078-3.62,25.489-3.62c1.561,0,3.014,0.084,4.326,0.245
			c3.311,0.414,6.602,0.972,10.087,1.566c6.935,1.176,14.101,2.393,21.45,2.393c6.432,0,12.237-0.938,17.75-2.875
			c4.893-1.717,8.799-3.329,12.244-4.752c6.808-2.809,11.727-4.84,17.743-4.84c2.27,0,4.631,0.289,7.215,0.89
			c5.115,1.18,9.653,3.896,14.461,6.764c7.549,4.517,15.41,9.146,26.71,8.822l2.66-0.086c17.876-0.572,29.687-0.947,38.109-9.095
			c4.038-3.905,6.017-7.176,7.604-9.803c2.1-3.479,3.912-6.479,8.835-7.186c1.483-0.209,2.896-0.229,4.145-0.242
			c4.628-0.059,7.424-0.092,10.696-10.139c0.497-1.521,0.101-2.354-0.302-2.906c-2.479-3.412-12.28-5.453-26.217-5.453
			c-7.263,0-12.612,0.561-13.42,0.775c-3.265,0.975-85.186,2.766-110.217,3.293l-117.021-3.512L90.1,301.236l-45.979-4.656
			C41.226,300.244,36.386,307.934,38.241,312.979z"/>
	</g>
	<g>
		<path fill="#F7EEE7" d="M41.868,269.741c0,0-16.213-2.472-17.425,19.056c-1.22,21.533,4.034,38.656,36.497,42.641
			c22.98,35.224,66.619,11.695,66.619,11.695s18.641,0.334,21.983-12.188c5.059,6.402,24.969,12.836,41.394,9.082
			c16.425-3.75,34.168-18.004,36.778-24.146c2.604-6.145-2.67,21.957,49.513,23.742c52.189,1.779,66.681-15.457,66.681-15.457
			s22.576,26.654,60.378,14.527c23.756-7.818,23.67-19.32,23.67-19.32s18.787,18.465,33.959,9.49
			c15.249-9.021,9.452-15.252,9.452-15.252s13.521,1.58,16.321-10.305c2.803-11.892,2.447-22.074-19.463-26.183
			c-21.906-4.103-101.683,1.803-101.683,1.803l-273.86-9.364L41.868,269.741z"/>
		<path fill="#3C2517" d="M96.768,353.404c-15.904,0-28.453-6.578-37.321-19.562c-35.06-4.747-38.693-25.479-37.58-45.192
			c1.133-20.017,14.456-21.569,18.512-21.569c0.778,0,1.354,0.05,1.652,0.086l50.643-0.183l273.82,9.361
			c2.775-0.201,45.146-3.25,75.606-3.25c12.356,0,21.306,0.504,26.596,1.494c10.257,1.921,16.854,5.342,20.182,10.448
			c3.729,5.731,2.76,12.748,1.318,18.856c-2.282,9.693-10.63,11.832-15.195,12.265c0.046,0.582,0.033,1.219-0.066,1.903
			c-0.64,4.42-4.577,8.799-11.707,13.017c-3.16,1.871-6.683,2.821-10.459,2.821c-9.673,0-18.825-6.2-23.471-9.938
			c-2.146,4.648-8.043,11.855-24.206,17.176c-6.813,2.188-13.604,3.293-20.205,3.293c-21.896,0-36.19-11.842-41.085-16.643
			c-5.665,4.678-23.763,15.918-66.663,14.406c-25.822-0.881-42.344-8.258-49.185-21.939c-6.112,7.676-22.119,19.012-36.44,22.281
			c-3.415,0.781-7.112,1.18-10.979,1.18c-11.24,0-23.521-3.561-30.023-8.369c-5.347,9.42-19.068,10.287-22.312,10.357
			C125.264,347.188,112.046,353.404,96.768,353.404z M40.378,272.234c-4.642,0-12.543,2.17-13.364,16.711
			c-1.202,21.297,4.157,36.242,34.237,39.936c0.756,0.09,1.432,0.514,1.846,1.146c7.891,12.094,19.217,18.223,33.671,18.223
			c15.689,0,29.434-7.311,29.569-7.383c0.388-0.209,0.806-0.318,1.266-0.312c0,0,0.004,0,0.007,0
			c0.831,0,16.739-0.135,19.446-10.275c0.252-0.94,1.014-1.659,1.968-1.858c0.96-0.19,1.938,0.162,2.544,0.929
			c3.442,4.354,16.187,9.217,28.967,9.217c3.481,0,6.788-0.355,9.829-1.047c16.226-3.707,32.922-17.804,34.977-22.644
			c0.284-0.67,1.036-2.444,2.975-2.444c2.011,0,2.667,1.729,3.196,3.12c5.089,13.4,20.503,20.632,45.802,21.496
			c49.86,1.677,64.501-14.399,64.634-14.553c0.489-0.563,1.209-0.896,1.957-0.896h0.01c0.752,0.002,1.472,0.328,1.958,0.896
			c0.143,0.166,14.6,16.783,39.015,16.783c6.062,0,12.327-1.023,18.611-3.041c21.268-6.996,21.878-16.803,21.881-16.902
			c0.036-1.02,0.673-1.951,1.623-2.328c0.941-0.377,2.024-0.191,2.76,0.523c0.112,0.115,11.578,11.217,23.007,11.217
			c2.844,0,5.478-0.709,7.836-2.104c7.5-4.437,9.004-7.742,9.229-9.318c0.176-1.219-0.348-1.951-0.352-1.955
			c-0.738-0.791-0.9-1.957-0.417-2.922c0.489-0.965,1.507-1.527,2.601-1.395c0.053,0.004,0.526,0.053,1.262,0.053
			c3.837,0,10.531-1.094,12.251-8.396c1.252-5.301,2.041-10.772-0.623-14.86c-2.511-3.865-8.01-6.545-16.806-8.195
			c-4.979-0.932-13.608-1.404-25.646-1.404c-31.153,0-74.929,3.213-75.365,3.242c-0.101,0.01-0.189,0.01-0.278,0.008l-273.863-9.361
			l-50.716,0.178c-0.082,0.011-0.265-0.01-0.397-0.028C41.425,272.279,41.014,272.234,40.378,272.234z"/>
	</g>
	<g>
		<path fill="#DFA24C" d="M96.351,179.895c0,0-71.381,21.56-69.463,74.253c3.83,31.619,48.863,30.182,64.195,31.619
			c15.328,1.438,68.024,11.496,126.948,13.409c58.925,1.919,242.398,4.314,246.234-21.556c3.829-25.869-3.354-61.316-21.56-67.063
			c-18.207-5.751-242.883,5.267-244.317,5.267C196.949,215.825,96.351,179.895,96.351,179.895z"/>
		<path fill="#3C2517" d="M288.706,302.85c-33.531,0-60.656-0.767-70.761-1.095c-43.884-1.424-84.316-7.354-108.477-10.896
			c-8.239-1.209-14.745-2.162-18.628-2.523c-1.742-0.166-3.876-0.291-6.291-0.434c-18.366-1.084-56.572-3.336-60.22-33.443
			c-0.835-22.695,11.316-43.135,35.122-59.332c17.727-12.059,35.41-17.475,36.152-17.7c0.53-0.156,1.097-0.143,1.613,0.04
			c38.501,13.751,96.495,34.343,101.428,35.771c0.662-0.03,2.478-0.116,5.257-0.242c119.754-5.519,177.462-6.679,204.79-6.679
			c26.128,0,32.372,1.014,34.791,1.779c20.718,6.542,26.948,45.487,23.332,69.903c-0.933,6.287-8.448,15.256-62.737,20.543
			C367.521,302.1,321.161,302.85,288.706,302.85z M96.307,182.618c-7.688,2.547-68.558,24.279-66.842,71.437
			c3.111,25.617,37.12,27.625,55.39,28.702c2.481,0.146,4.675,0.277,6.467,0.443c4.019,0.377,10.584,1.342,18.899,2.557
			c24.048,3.529,64.301,9.429,107.894,10.847c10.081,0.328,37.137,1.09,70.592,1.09c157.721,0,172.301-15.652,173.01-20.449
			c3.869-26.146-3.767-59.172-19.784-64.231c-2.229-0.706-9.806-1.541-33.239-1.541c-27.274,0-84.899,1.16-204.554,6.672
			c-3.588,0.166-5.618,0.258-5.748,0.258C197.827,218.402,196.509,218.399,96.307,182.618z"/>
	</g>
	<g>
		<path fill="#6E4020" d="M180.922,162.43c0,0-71.205,7.58-104.528,25.697c-33.319,18.111-58.983,38.481-40.721,49.857
			c18.257,11.373,49.394,13.749,60.807,13.329c11.409-0.424,24.65,5.896,35.145,9.688c10.502,3.793,36.518,8.424,46.104-0.424
			c9.587-8.847,13.694-13.059,29.212-13.483c15.521-0.417,25.104,5.9,43.367,5.483c18.256-0.425,21.907-8.428,29.209-2.111
			c7.308,6.318,44.277,17.693,46.561,18.535c2.283,0.847,30.127,8.849,32.866-2.526c2.735-11.369,4.562-15.162,12.78-16.009
			c8.217-0.838,23.735,2.952,31.951,6.318c8.213,3.372,63.479,11.724,66.216-5.546c2.737-17.271-5.963-27.307-33.811-46.266
			c-27.84-18.956-113.2-41.281-178.472-43.388C192.334,159.481,180.922,162.43,180.922,162.43z"/>
		<path fill="#3C2517" d="M346.547,275.102c-9.271,0-20.059-3.201-21.364-3.685c-0.301-0.108-1.245-0.414-2.666-0.875
			c-16.312-5.294-38.687-12.937-44.687-18.125c-1.825-1.58-3.051-1.791-4.008-1.791c-1.455,0-3.25,0.572-5.521,1.298
			c-4.012,1.278-9.508,3.034-17.936,3.227c-9.792,0.252-17.047-1.395-24.057-2.961c-6.255-1.396-12.118-2.689-19.301-2.519
			c-14.103,0.389-17.796,3.804-26.718,12.045l-0.814,0.757c-4.141,3.822-10.982,5.762-20.334,5.762
			c-10.365,0-21.983-2.492-28.394-4.809c-2.07-0.748-4.247-1.593-6.489-2.464c-8.902-3.459-19.032-7.425-27.686-7.075
			c-0.828,0.028-1.749,0.049-2.76,0.049c-13.896,0-42.072-2.902-59.507-13.765c-4.97-3.091-7.414-7.02-7.278-11.665
			c0.324-11.114,16.521-25.458,48.131-42.645c32.969-17.919,100.818-25.492,105.344-25.979c1.381-0.292,9.216-1.63,35.977-1.63
			c11.714,0,25.581,0.252,41.211,0.759c68.26,2.203,152.725,25.369,179.84,43.834c27.142,18.472,37.987,29.338,34.902,48.793
			c-1.335,8.443-11.649,12.725-30.652,12.725c-0.003,0-0.003,0-0.003,0c-15.886,0-34.042-3.127-39.084-5.19
			c-8.058-3.303-22.94-6.934-30.709-6.139c-6.312,0.646-7.789,2.612-10.535,14.046C360.567,270.738,357.268,275.102,346.547,275.102
			z M273.822,245.471c2.634,0,4.979,0.971,7.381,3.048c3.915,3.389,18.353,9.146,42.903,17.12c1.522,0.493,2.533,0.825,2.861,0.948
			c1.133,0.417,11.185,3.358,19.578,3.358c4.065,0,9.081-0.706,9.889-4.075c2.819-11.707,5.093-16.947,15.027-17.965
			c8.45-0.874,24.524,2.945,33.188,6.496c4.024,1.65,21.615,4.809,37.127,4.809h0.006c15.405,0,24.721-3.055,25.564-8.375
			c2.438-15.388-4.29-24.375-32.717-43.732c-26.542-18.071-109.687-40.764-177.104-42.94c-15.575-0.503-29.384-0.755-41.044-0.755
			c-28.225,0-34.679,1.458-34.94,1.524c-0.105,0.026-0.235,0.05-0.348,0.06c-0.705,0.076-71.085,7.739-103.567,25.399
			c-28.622,15.557-45.186,29.507-45.444,38.269c-0.079,2.717,1.508,5.052,4.854,7.136c16.48,10.27,44.348,12.986,56.78,12.986
			c0.941,0,1.799-0.017,2.567-0.043c9.69-0.348,20.377,3.784,29.742,7.417c2.207,0.859,4.344,1.688,6.374,2.423
			c6,2.167,16.898,4.502,26.645,4.502c7.901,0,13.725-1.521,16.836-4.396l0.814-0.75c9.051-8.368,14.036-12.977,30.077-13.413
			c7.791-0.199,13.993,1.172,20.562,2.64c6.711,1.497,13.642,3.041,22.812,2.839c7.688-0.179,12.571-1.736,16.487-2.988
			C269.326,246.183,271.562,245.471,273.822,245.471z"/>
	</g>
	<g>
		<path fill="#E7DBD3" d="M105.692,177.225c0,0,14.609,14.848,20.36,27.065c5.747,12.218,11.737,22.275,15.809,23.236
			c4.074,0.954,15.089,4.548,22.993-9.104c7.904-13.655,22.518-37.368,22.756-39.763c0.238-2.395,6.467-17.723,6.467-17.723
			l-13.155,1.494c0,0-10.558,22.219-11.516,25.333c-0.957,3.111-11.498,21.556-15.331,23.474s-10.779,3.111-15.566-7.427
			c-4.791-10.538-18.685-30.901-19.646-30.66C117.906,173.392,105.692,177.225,105.692,177.225z"/>
		<path fill="#3C2517" d="M149.172,231.246c0,0,0,0-0.003,0c-2.984,0-5.535-0.629-7.229-1.047l-0.669-0.169
			c-2.872-0.672-7.818-3.962-17.552-24.644c-5.499-11.684-19.721-26.211-19.863-26.356c-0.629-0.639-0.881-1.561-0.662-2.432
			c0.215-0.871,0.868-1.567,1.726-1.835c2.054-0.646,12.341-3.866,13.321-4.114c0.205-0.05,0.431-0.076,0.643-0.076
			c1.364,0,2.346,0,10.594,12.565c2.408,3.664,8.335,12.917,11.376,19.605c2.167,4.773,4.92,7.192,8.17,7.192
			c1.563,0,2.984-0.546,3.899-1.004c2.878-1.53,13.049-18.777,14.02-21.927c0.983-3.2,10.564-23.391,11.65-25.681
			c0.381-0.805,1.153-1.354,2.037-1.458l13.155-1.494c0.904-0.106,1.796,0.282,2.346,1.004c0.547,0.726,0.676,1.686,0.335,2.531
			c-2.945,7.238-6.1,15.59-6.291,17.024c-0.195,1.938-3.499,7.742-14.766,26.681c-2.998,5.039-5.963,10.021-8.325,14.099
			C162.655,227.364,156.629,231.246,149.172,231.246z M110.393,178.451c4.628,5.055,13.646,15.503,17.989,24.743
			c9.527,20.235,13.632,21.719,14.068,21.818l0.729,0.179c1.533,0.381,3.634,0.901,5.989,0.901c5.565,0,9.965-2.932,13.456-8.961
			c2.372-4.095,5.344-9.097,8.352-14.152c5.712-9.597,13.529-22.745,14.103-24.779c0.166-1.776,2.981-9.124,4.999-14.215
			l-7.443,0.842c-4.201,8.868-10.134,21.646-10.767,23.693c-0.871,2.839-11.654,22.53-16.641,25.024
			c-1.411,0.703-3.634,1.547-6.204,1.547c-3.75,0-9.024-1.769-12.864-10.213c-4.229-9.309-14.82-24.968-17.984-28.834
			C116.452,176.565,113.352,177.53,110.393,178.451z"/>
	</g>
	<g>
		<path fill="#E7DBD3" d="M224.736,160.694c0,0,14.133,45.991,16.767,52.938c2.637,6.947,8.957,16.852,13.894,19.399
			c7.424,3.833,25.867,4.552,30.66-4.552c4.793-9.1,13.171-40.479,13.171-40.479l5.032-22.037l-15.09-2.157
			c0,0-9.104,41.201-10.538,45.272c-1.44,4.075-8.864,15.089-21.082,4.79c-5.983-12.694-7.424-28.745-7.424-28.745l-3.353-23.233
			C246.773,161.893,238.389,161.178,224.736,160.694z"/>
		<path fill="#3C2517" d="M268.859,238.296c-5.565,0-11.043-1.11-14.646-2.975c-6.143-3.17-12.651-14.275-15.12-20.778
			c-2.634-6.94-16.242-51.208-16.818-53.09c-0.249-0.798-0.093-1.663,0.417-2.326c0.507-0.663,1.282-1.07,2.134-1.007
			c13.562,0.477,22.083,1.199,22.169,1.203c1.192,0.106,2.16,1.017,2.329,2.2l3.354,23.235c0.028,0.292,1.45,15.461,6.967,27.496
			c2.727,2.203,5.293,3.316,7.633,3.316c4.779,0,8.078-4.95,8.928-7.348c1.129-3.216,7.927-33.552,10.447-44.971
			c0.293-1.315,1.548-2.18,2.883-1.994l15.09,2.157c0.712,0.103,1.352,0.497,1.759,1.09c0.408,0.593,0.55,1.335,0.389,2.034
			l-5.028,22.037c-0.368,1.385-8.537,31.856-13.407,41.108C285.453,235.155,278.354,238.296,268.859,238.296z M228.268,163.407
			c3.343,10.836,13.493,43.629,15.646,49.307c2.505,6.606,8.583,15.918,12.665,18.028c2.821,1.458,7.644,2.398,12.28,2.398
			c7.406,0,12.981-2.193,14.916-5.86c4.603-8.742,12.882-39.634,12.964-39.945l4.387-19.214l-9.955-1.424
			c-2.069,9.322-8.815,39.564-10.106,43.242c-1.537,4.336-6.474,10.786-13.787,10.786c-3.715,0-7.545-1.64-11.387-4.883
			c-0.285-0.239-0.511-0.537-0.67-0.871c-6.112-12.96-7.603-28.938-7.662-29.613l-3.042-21.052
			C241.678,164.1,236,163.722,228.268,163.407z"/>
	</g>
	<g>
		<path fill="#E7DBD3" d="M337.795,171.716c0,0,14.848,44.07,15.809,49.34c0.957,5.271,9.58,20.36,25.15,18.445
			c15.566-1.918,19.161-8.384,20.596-16.531c1.438-8.139,4.556-32.333,4.556-32.333l-14.612-5.751c0,0,0,28.745-1.677,34.251
			c-1.676,5.512-1.914,10.541-13.895,7.188c0,0-7.903-0.719-10.061-16.289c-2.153-15.57-7.187-34.012-7.187-34.012L337.795,171.716z
			"/>
		<path fill="#3C2517" d="M376.062,242.245c-15.114,0-23.885-14.626-24.993-20.725c-0.763-4.174-11.604-36.775-15.717-48.983
			c-0.298-0.884-0.097-1.862,0.53-2.551c0.629-0.696,1.586-0.994,2.491-0.785l18.681,4.313c0.929,0.212,1.659,0.917,1.908,1.832
			c0.049,0.185,5.098,18.787,7.251,34.34c1.796,12.957,7.68,14.069,7.742,14.073c0.155,0.017,0.308,0.04,0.46,0.086
			c2.336,0.653,4.261,0.984,5.725,0.984c3.031,0,3.485-1.123,4.597-5.015c0.132-0.467,0.265-0.944,0.41-1.425
			c1.148-3.77,1.566-22.103,1.566-33.502c0-0.854,0.421-1.65,1.126-2.13c0.706-0.48,1.601-0.577,2.396-0.269l14.611,5.748
			c1.101,0.434,1.764,1.561,1.613,2.73c-0.129,0.99-3.144,24.345-4.575,32.455c-1.479,8.401-5.271,16.478-22.817,18.634
			C378.065,242.182,377.051,242.245,376.062,242.245z M341.704,175.26c3.8,11.35,13.629,40.899,14.434,45.332
			c0.673,3.707,8.09,18.107,22.303,16.352c14.942-1.845,17.216-7.872,18.376-14.421c1.169-6.632,3.498-24.276,4.272-30.226
			l-9.235-3.634c-0.061,8.242-0.357,26.575-1.772,31.227l-0.388,1.332c-1.051,3.697-2.491,8.762-9.552,8.762
			c-1.931,0-4.214-0.371-6.979-1.14c-1.763-0.318-9.862-2.644-12.052-18.455c-1.761-12.705-5.503-27.533-6.726-32.2L341.704,175.26z
			"/>
	</g>
	<g>
		<path fill="#F7EEE7" d="M60.94,331.746c0,0-9.236-13.838,3.865-25.004"/>
		<path fill="#3C2517" d="M60.94,334.324c-0.832,0-1.646-0.402-2.144-1.146c-3.635-5.443-7.404-18.393,4.336-28.398
			c1.083-0.93,2.71-0.797,3.634,0.289c0.925,1.084,0.792,2.709-0.288,3.632c-11.229,9.573-3.72,21.129-3.396,21.618
			c0.789,1.185,0.471,2.783-0.712,3.574C61.931,334.184,61.434,334.324,60.94,334.324z"/>
	</g>
	<g>
		<path fill="#F7EEE7" d="M133.37,332.835c0,0-1.232,9.438-8.961,11.854"/>
		<path fill="#3C2517" d="M124.406,347.266c-1.097,0-2.117-0.705-2.458-1.81c-0.425-1.356,0.334-2.806,1.692-3.228
			c6.086-1.903,7.162-9.649,7.172-9.729c0.186-1.412,1.498-2.402,2.89-2.223c1.41,0.186,2.408,1.477,2.226,2.889
			c-0.062,0.453-1.55,11.107-10.753,13.979C124.919,347.227,124.661,347.266,124.406,347.266z"/>
	</g>
</g>
</svg>
