<?xml version="1.0" encoding="utf-8"?>
<!-- Generator: Adobe Illustrator 16.0.0, SVG Export Plug-In . SVG Version: 6.00 Build 0)  -->
<!DOCTYPE svg PUBLIC "-//W3C//DTD SVG 1.1//EN" "http://www.w3.org/Graphics/SVG/1.1/DTD/svg11.dtd">
<svg version="1.1" id="Layer_1" xmlns="http://www.w3.org/2000/svg" xmlns:xlink="http://www.w3.org/1999/xlink" x="0px" y="0px"
	 width="500px" height="500px" viewBox="0 0 500 500" enable-background="new 0 0 500 500" xml:space="preserve">
<g id="Layer_1_copy_68">
	<g>
		<path fill="#10763B" d="M470.015,250c0,121.51-98.504,220.015-220.012,220.015C128.492,470.015,29.985,371.51,29.985,250
			c0-121.511,98.507-220.014,220.018-220.014C371.511,29.986,470.015,128.489,470.015,250z"/>
		<path fill="#27140E" d="M250.003,473.335c-123.15,0-223.338-100.188-223.338-223.335c0-123.147,100.188-223.336,223.338-223.336
			c123.146,0,223.332,100.188,223.332,223.336C473.335,373.148,373.147,473.335,250.003,473.335z M250.003,33.308
			C130.517,33.308,33.311,130.516,33.311,250c0,119.489,97.206,216.695,216.692,216.695c119.485,0,216.688-97.206,216.688-216.695
			C466.69,130.516,369.488,33.308,250.003,33.308z"/>
	</g>
	<g>
		<path fill="#FFFFFF" d="M213.787,123.729c-23.751,22.315-47.204,57.727-42.701,106.063
			c24.227,149.046,199.505,69.926,202.486,74.388c-25.907,46.327-68.738,76.235-129.48,71.622
			c-61.729-4.678-112.062-58.083-117.086-115.704C121.07,192.027,161.482,143.728,213.787,123.729z"/>
		<path fill="#27140E" d="M256.23,378.484c-4.026,0-8.167-0.16-12.307-0.467c-60.426-4.584-113.863-57.396-119.127-117.729
			c-6.526-74.849,41.282-120.689,88.197-138.629c0.992-0.375,2.109-0.003,2.667,0.893c0.562,0.896,0.414,2.066-0.36,2.789
			c-21.694,20.385-46.593,55.017-42.01,104.245c9.641,59.278,44.879,89.417,104.721,89.417c32.997,0,65.018-9.188,82.215-14.133
			c7.287-2.093,10.872-3.097,12.692-3.097c1.416,0,2.137,0.639,2.492,1.168c0.465,0.692,0.503,1.588,0.096,2.316
			C348.717,353.162,307.476,378.484,256.23,378.484z M204.205,130.238c-41.781,19.845-80.826,62.791-74.993,129.67
			c5.08,58.268,56.691,109.26,115.047,113.688c53.614,4.066,97.099-19.164,125.194-66.695c-2.121,0.545-4.947,1.353-8.003,2.234
			c-17.408,4.991-49.818,14.297-83.438,14.297c-62.341,0-99.053-31.39-109.114-93.284
			C164.695,185.063,184.179,151.893,204.205,130.238z"/>
	</g>
	<g>
		<g>
			<path fill="#FFFFFF" d="M293.359,178.228c2.981-1.861,5.553-6.253,5.686-9.764l0.635-15.849c0.14-3.526,2.659-4.829,5.604-2.891
				l11.368,7.438c2.942,1.929,8.114,2.714,11.492,1.731l17.475-5.071c3.378-0.983,5.076,0.875,3.749,4.144l-6.482,15.993
				c-1.316,3.261-0.444,8.056,1.942,10.633l13.748,14.89c2.391,2.58,1.463,4.789-2.054,4.911l-23.098,0.788
				c-3.511,0.121-7.807,2.73-9.541,5.783l-10.771,19.13c-1.72,3.064-3.627,2.746-4.241-0.729l-3.938-22.347
				c-0.613-3.468-3.922-6.983-7.335-7.806l-21.205-5.121c-3.41-0.825-3.769-3.016-0.779-4.884L293.359,178.228z"/>
			<path fill="#27140E" d="M310.766,233.308c-0.865,0-2.406-0.491-2.983-3.748l-3.938-22.35c-0.537-3.03-3.515-6.2-6.502-6.919
				l-21.206-5.124c-2.848-0.688-3.493-2.141-3.626-2.947c-0.129-0.806,0.023-2.393,2.52-3.949l17.748-10.986
				c2.677-1.667,5.043-5.727,5.162-8.863l0.635-15.85c0.115-2.947,1.734-4.852,4.122-4.852c1.031,0,2.108,0.363,3.195,1.078
				l11.367,7.439c1.834,1.199,4.798,1.973,7.556,1.973c1.12,0,2.171-0.131,3.025-0.379l17.466-5.071
				c2.255-0.653,4.132-0.215,5.046,1.145c0.751,1.112,0.762,2.705,0.041,4.479l-6.479,15.992c-1.161,2.869-0.371,7.206,1.728,9.465
				l13.745,14.89c1.979,2.135,1.729,3.771,1.399,4.553c-0.326,0.784-1.312,2.115-4.226,2.218l-23.099,0.786
				c-3.121,0.109-7.069,2.501-8.614,5.224l-10.768,19.127C312.844,232.84,311.594,233.308,310.766,233.308z M302.694,149.934
				c-1.626,0-1.877,1.906-1.904,2.725l-0.635,15.85c-0.149,3.901-2.88,8.582-6.212,10.659l-17.748,10.984
				c-1.113,0.696-1.555,1.363-1.5,1.713c0.055,0.351,0.687,0.842,1.959,1.151l21.201,5.12c3.819,0.922,7.479,4.818,8.163,8.691
				l3.941,22.347c0.262,1.48,0.71,1.895,0.805,1.917l0,0c0.112,0,0.666-0.262,1.384-1.539l10.77-19.131
				c1.912-3.369,6.607-6.214,10.468-6.346l23.101-0.788c1.421-0.049,2.097-0.475,2.256-0.855c0.159-0.379-0.019-1.155-0.981-2.197
				l-13.745-14.89c-2.654-2.866-3.627-8.159-2.155-11.799l6.481-15.995c0.42-1.041,0.484-1.942,0.17-2.411
				c-0.262-0.392-0.812-0.474-1.229-0.474c-0.4,0-0.853,0.075-1.354,0.221l-17.47,5.068c-1.069,0.314-2.295,0.469-3.644,0.469
				c-3.213,0-6.566-0.893-8.768-2.334l-11.368-7.439C303.965,150.181,303.279,149.934,302.694,149.934z"/>
		</g>
		<g>
			<path fill="#FFFFFF" d="M293.359,178.228c2.981-1.861,5.553-6.253,5.686-9.764l0.635-15.849c0.14-3.526,2.659-4.829,5.604-2.891
				l11.368,7.438c2.942,1.929,8.114,2.714,11.492,1.731l17.475-5.071c3.378-0.983,5.076,0.875,3.749,4.144l-6.482,15.993
				c-1.316,3.261-0.444,8.056,1.942,10.633l13.748,14.89c2.391,2.58,1.463,4.789-2.054,4.911l-23.098,0.788
				c-3.511,0.121-7.807,2.73-9.541,5.783l-10.771,19.13c-1.72,3.064-3.627,2.746-4.241-0.729l-3.938-22.347
				c-0.613-3.468-3.922-6.983-7.335-7.806l-21.205-5.121c-3.41-0.825-3.769-3.016-0.779-4.884L293.359,178.228z"/>
			<path fill="#27140E" d="M310.766,234.415c-0.978,0-3.326-0.455-4.074-4.664l-3.941-22.349c-0.458-2.598-3.11-5.418-5.67-6.036
				l-21.202-5.123c-3.474-0.837-4.285-2.769-4.461-3.846c-0.174-1.078-0.015-3.17,3.024-5.066l17.75-10.987
				c2.365-1.472,4.533-5.196,4.64-7.962l0.635-15.854c0.161-4.085,2.744-5.917,5.229-5.917c1.253,0,2.532,0.424,3.807,1.261
				l11.365,7.437c1.663,1.091,4.387,1.792,6.945,1.792c1.021,0,1.956-0.115,2.718-0.336l17.474-5.069
				c2.729-0.792,5.073-0.177,6.264,1.59c0.966,1.428,1.018,3.387,0.15,5.515l-6.482,15.991c-0.997,2.47-0.284,6.35,1.519,8.293
				l13.746,14.896c2.399,2.585,2.04,4.698,1.612,5.728c-0.436,1.029-1.679,2.774-5.21,2.898l-23.104,0.788
				c-2.736,0.094-6.332,2.272-7.69,4.662l-10.764,19.125C313.543,233.851,311.89,234.415,310.766,234.415z M276.043,191.647
				c0.2,0.092,0.482,0.197,0.87,0.291l21.204,5.122c4.277,1.033,8.228,5.238,8.991,9.574l3.941,22.348
				c0.015,0.068,0.027,0.131,0.038,0.192c0.03-0.051,0.062-0.105,0.091-0.16l10.774-19.135c2.115-3.731,7.12-6.762,11.396-6.91
				l23.101-0.788c0.638-0.022,0.997-0.129,1.188-0.208c-0.077-0.187-0.258-0.52-0.686-0.985l-13.752-14.891
				c-2.969-3.2-4.011-8.896-2.373-12.964l6.488-15.997c0.306-0.758,0.306-1.212,0.275-1.361c-0.024,0.023-0.134,0-0.311,0
				c-0.203,0-0.551,0.032-1.046,0.175l-17.474,5.073c-3.911,1.136-9.944,0.207-13.324-2.005l-11.367-7.439
				c-0.516-0.341-1.02-0.535-1.375-0.535c-0.683,0-0.784,1.268-0.802,1.659l-0.636,15.854c-0.159,4.225-3.116,9.301-6.727,11.553
				l-17.752,10.984C276.439,191.304,276.202,191.494,276.043,191.647z"/>
		</g>
	</g>
</g>
</svg>
