<?xml version="1.0" encoding="utf-8"?>
<!-- Generator: Adobe Illustrator 16.0.0, SVG Export Plug-In . SVG Version: 6.00 Build 0)  -->
<!DOCTYPE svg PUBLIC "-//W3C//DTD SVG 1.1//EN" "http://www.w3.org/Graphics/SVG/1.1/DTD/svg11.dtd">
<svg version="1.1" id="Layer_1" xmlns="http://www.w3.org/2000/svg" xmlns:xlink="http://www.w3.org/1999/xlink" x="0px" y="0px"
	 width="500px" height="500px" viewBox="0 0 500 500" enable-background="new 0 0 500 500" xml:space="preserve">
<g id="Layer_1_copy_84">
	<g>
		<g>
			<g>
				<path fill="#F4BE78" d="M299.202,236.762c-8.856-30.95,11.821-51.161,11.821-51.161s13.167-16.241,8.28-32.344
					c-4.882-16.104,0.67-17.481,0.67-17.481s7.32-4.223,15.501,6.375c8.17,10.598,4.679,36.329,1.932,44.144
					c-2.759,7.815,3.343,8.106,6.501,5.53c3.157-2.572,18.687-15.224,18.687-15.224l35.299-46.724c0,0,4.124-8.495,12.609-3.858
					c9.126,4.987,4.16,13.552,4.16,13.552s-29.639,39.536-32.391,47.351c-3.092,4.602,0.558,7.791,4.431,4.464
					c1.969-1.461,49.965-37.103,49.965-37.103s7.799-7.272,15.231,0.753c7.438,8.022-1.963,13.444-1.963,13.444
					s-45.102,33.911-50.75,38.834c-5.649,4.92-2.572,8.068,1.679,6.491c4.255-1.581,55.212-20.495,55.212-20.495
					s10.071-4.696,13.859,2.559c5.644,9.641-5.858,13.577-5.858,13.577s-52.607,20.895-57.739,23.891
					c-5.13,3-2.705,5.11,0.138,4.917c2.843-0.189,44.525-2.986,44.525-2.986s12.109-1.479,12.305,8.337
					c0.151,7.524-9.676,9.427-9.676,9.427l-52.821,4.833l-23.322,17.138c-27.066,18.337-48.428,8.169-48.428,8.169
					s-112.354,94.411-142.305,114.439c-27.628,18.479-35.671,27.852-83.067,2.93l-67.912-39.577v-123.62l102.608,74.758
					c0,0,15.146,12.221,57.167-13.191C237.574,273.504,299.202,236.762,299.202,236.762z"/>
			</g>
		</g>
		<g>
			<g>
				<path fill="#3C2517" d="M147.82,418.105c-11.184,0.004-24.722-4.604-45.262-15.41l-68.011-39.631
					c-0.75-0.436-1.206-1.236-1.206-2.1V237.344c0-0.918,0.513-1.752,1.325-2.166c0.819-0.42,1.802-0.336,2.537,0.204
					l102.608,74.757c0.099,0.073,3.354,2.467,10.871,2.467h0.004c7.99,0,22.04-2.731,43.604-15.772
					c37.815-22.865,92.153-55.293,102.079-61.215c-7.65-30.066,10.97-49.762,12.831-51.634c1.005-1.296,12.041-15.959,7.775-30.02
					c-2.522-8.313-2.785-14.313-0.787-17.824c0.955-1.683,2.158-2.348,2.823-2.601c0.636-0.315,2.331-1.023,4.719-1.023
					c3.367,0,8.471,1.416,13.668,8.152c8.866,11.495,5.192,38.221,2.299,46.439c-0.758,2.148-0.597,3.231-0.379,3.536
					c0.129,0.189,0.566,0.203,0.696,0.203c0.758,0,1.681-0.354,2.354-0.904l18.458-15.042l35.001-46.324
					c0.662-1.217,3.819-6.372,9.815-6.372c1.955,0,3.981,0.568,6.024,1.682c3.365,1.84,5.506,4.335,6.368,7.408
					c1.362,4.872-1.167,9.309-1.272,9.498c-0.049,0.081-0.102,0.161-0.157,0.238c-8.18,10.914-29.888,40.58-32.039,46.703
					c-0.069,0.189-0.164,0.378-0.277,0.546c-0.841,1.251-0.774,2.001-0.707,2.121c0.291-0.066,0.858-0.277,1.535-0.859
					l50.011-37.146c0.715-0.62,4.328-3.564,9.07-3.564c3.493,0,6.683,1.531,9.482,4.552c2.729,2.948,3.88,6.007,3.413,9.102
					c-0.701,4.633-4.924,7.472-5.793,8.012c-2.338,1.759-45.126,33.953-50.52,38.653c-1.416,1.23-1.979,2.155-2.165,2.628
					c0.249,0.014,0.708,0.003,1.396-0.256l55.217-20.495l0,0c-0.021,0,3.561-1.644,7.521-1.644c4.279,0,7.507,1.854,9.34,5.362
					c1.913,3.259,2.353,6.469,1.251,9.438c-1.966,5.285-8.214,7.472-8.478,7.566c-14.475,5.751-53.222,21.305-57.3,23.688
					c-0.204,0.119-0.387,0.231-0.549,0.337l43.807-2.93c0.01,0,0.742-0.084,1.829-0.084c8.057,0,12.948,4.038,13.086,10.798
					c0.188,9.463-11.162,11.772-11.646,11.867c-0.081,0.015-0.161,0.024-0.242,0.031l-52.145,4.772l-22.781,16.737
					c-11.243,7.616-22.794,11.45-34.422,11.45c-7.269,0-12.561-1.549-15-2.443c-11.828,9.922-113.29,94.86-141.397,113.664
					c-1.762,1.18-3.448,2.322-5.067,3.418C170.166,411.792,160.867,418.105,147.82,418.105z M38.207,359.566l66.706,38.877
					c19.703,10.356,32.565,14.801,42.907,14.797c11.548,0,19.878-5.652,32.484-14.209c1.63-1.105,3.322-2.252,5.1-3.439
					c29.491-19.729,140.966-113.337,142.087-114.283c0.732-0.608,1.76-0.734,2.61-0.332c0.05,0.021,5.604,2.58,14.4,2.58
					c10.633-0.004,21.276-3.558,31.619-10.566l23.245-17.081c0.357-0.263,0.773-0.425,1.221-0.464l52.674-4.817
					c0.895-0.204,7.713-1.935,7.612-6.971c-0.081-3.999-2.847-6.031-8.222-6.031c-0.778,0-1.302,0.056-1.364,0.063l-44.652,2.997
					c-2.807,0.2-5.043-1.097-5.6-3.15c-0.417-1.542-0.053-3.883,4.072-6.295c5.231-3.056,55.916-23.197,58.07-24.052
					c1.312-0.463,4.657-2.127,5.604-4.714c0.575-1.549,0.264-3.309-0.946-5.373c-0.672-1.283-1.864-2.85-5.085-2.85
					c-2.863,0-5.625,1.255-5.656,1.269l-55.387,20.565c-3.403,1.269-6.774,0.196-7.753-2.404c-0.528-1.416-0.764-4.37,3.632-8.201
					c5.652-4.92,49.04-37.555,50.887-38.943c0.077-0.059,0.161-0.112,0.245-0.161c0.873-0.519,3.238-2.366,3.568-4.641
					c0.228-1.545-0.505-3.245-2.173-5.043c-1.845-1.987-3.831-2.993-5.916-2.993c-3.245,0-5.848,2.341-5.874,2.366
					c-0.063,0.06-0.133,0.12-0.207,0.172l-49.966,37.104c-1.359,1.177-2.988,1.857-4.58,1.857c-1.848,0-3.448-0.939-4.286-2.509
					c-1.038-1.948-0.743-4.437,0.803-6.869c3.283-8.404,29.025-42.904,32.518-47.562c0.262-0.522,1.475-3.108,0.734-5.688
					c-0.502-1.752-1.851-3.234-4.01-4.416c-1.313-0.722-2.559-1.086-3.688-1.086c-3.585,0-5.548,3.841-5.564,3.875
					c-0.07,0.141-0.154,0.277-0.248,0.407l-35.299,46.716c-0.116,0.154-0.253,0.295-0.403,0.421l-18.688,15.224
					c-1.533,1.254-3.562,1.997-5.425,1.997c-1.979,0-3.641-0.799-4.672-2.257c-1.349-1.907-1.426-4.584-0.238-7.962
					c2.799-7.935,5.706-32.428-1.56-41.852c-3.157-4.093-6.553-6.259-9.815-6.259c-1.573,0-2.565,0.519-2.575,0.526
					c-0.108,0.056-0.234,0.112-0.357,0.161c-0.795,0.519-2.277,4.205,0.837,14.488c5.194,17.142-8.15,33.876-8.726,34.581
					c-0.058,0.07-0.12,0.14-0.188,0.207c-0.799,0.785-19.51,19.636-11.183,48.75c0.305,1.065-0.145,2.194-1.094,2.761
					c-0.613,0.365-62.103,37.026-103.635,62.141c-18.084,10.934-33.603,16.482-46.124,16.482h-0.004
					c-9.252,0-13.388-3.121-13.829-3.479l-98.647-71.869v117.438H38.207z"/>
			</g>
		</g>
	</g>
</g>
</svg>
