<?xml version="1.0" encoding="utf-8"?>
<!-- Generator: Adobe Illustrator 16.0.0, SVG Export Plug-In . SVG Version: 6.00 Build 0)  -->
<!DOCTYPE svg PUBLIC "-//W3C//DTD SVG 1.1//EN" "http://www.w3.org/Graphics/SVG/1.1/DTD/svg11.dtd">
<svg version="1.1" id="Layer_1" xmlns="http://www.w3.org/2000/svg" xmlns:xlink="http://www.w3.org/1999/xlink" x="0px" y="0px"
	 width="500px" height="500px" viewBox="0 0 500 500" enable-background="new 0 0 500 500" xml:space="preserve">
<g id="Layer_1_copy_59">
	<g>
		<polyline fill="#676665" points="289.141,223.574 329.525,359.16 284.794,359.16 257.734,289.797 		"/>
		<path fill="#27140E" d="M329.525,362.848h-44.731c-1.521,0-2.892-0.931-3.442-2.348l-27.06-69.363
			c-0.741-1.898,0.194-4.041,2.101-4.781c1.894-0.748,4.039,0.194,4.783,2.102l26.143,67.007h37.252L285.6,224.63
			c-0.584-1.954,0.528-4.014,2.485-4.597c1.947-0.578,4.011,0.525,4.595,2.489l40.386,135.58c0.337,1.114,0.117,2.328-0.578,3.265
			C331.79,362.296,330.693,362.848,329.525,362.848z"/>
	</g>
	<g>
		<polygon fill="#8F8F8E" points="321.262,144.108 292.165,170.122 313.874,227.706 374.839,216.775 339.583,167.201 		"/>
		<path fill="#27140E" d="M313.085,229.098l-22.366-59.332l30.7-27.446l19.129,24.116l36.422,51.206L313.085,229.098z
			 M293.618,170.478l21.048,55.833l58.046-10.405l-34.13-47.991l-17.471-22.019L293.618,170.478z"/>
	</g>
	<g>
		<polygon fill="#676665" points="102.1,324.167 113.553,359.16 152.995,359.16 141.94,296.008 129.75,265.268 88.8,276.968 		"/>
		<path fill="#27140E" d="M152.995,362.848h-39.442c-1.595,0-3.013-1.025-3.513-2.541l-11.453-34.992l-13.345-47.342
			c-0.552-1.964,0.583-3.994,2.54-4.557l40.954-11.702c1.825-0.521,3.747,0.427,4.446,2.194l12.197,30.734
			c0.089,0.234,0.16,0.479,0.201,0.727l11.059,63.146c0.187,1.078-0.109,2.183-0.815,3.017
			C155.125,362.368,154.085,362.848,152.995,362.848z M116.231,355.463H148.6l-10.232-58.443l-10.818-27.283l-34.196,9.772
			l12.305,43.649L116.231,355.463z"/>
	</g>
	<g>
		
			<path fill="#8F8F8E" stroke="#27140E" stroke-width="9.855" stroke-linecap="round" stroke-linejoin="round" stroke-miterlimit="10" d="
			M262.064,301.145"/>
	</g>
	<g>
		<path fill="#8F8F8E" d="M274.6,251.586L246.794,359.16H206.39v-76c-31.747,20.682-87.062,10.58-87.062,10.58l-37.039,65.42H39.957
			c0,0,17.317-123.142,27.901-160.177c10.582-37.038,38.614-45.762,72.151-57.722c33.536-11.961,103.416-22.127,103.416-22.127
			l55.318,136.607"/>
		<path fill="#27140E" d="M246.794,362.848H206.39c-2.04,0-3.696-1.647-3.696-3.688v-69.6c-29.035,14.889-70.557,9.898-81.423,8.24
			l-35.766,63.174c-0.657,1.162-1.886,1.873-3.217,1.873H39.957c-1.064,0-2.085-0.462-2.787-1.264
			c-0.699-0.814-1.017-1.887-0.869-2.938c0.709-5.043,17.471-123.818,28.006-160.679c10.728-37.543,38.605-47.447,70.884-58.916
			l3.577-1.271c33.495-11.947,101.261-21.886,104.129-22.303c1.659-0.257,3.313,0.691,3.959,2.27l55.315,136.608
			c0.764,1.893-0.146,4.041-2.04,4.809c-1.902,0.764-4.049-0.146-4.812-2.033l-54.222-133.909
			c-13.451,2.053-70.862,11.182-99.843,21.519l-3.586,1.277c-31.608,11.228-56.577,20.098-66.259,53.981
			c-9.291,32.513-24.044,133.556-27.191,155.465h35.917l35.979-63.546c0.772-1.367,2.328-2.102,3.878-1.812
			c0.539,0.101,54.26,9.582,84.38-10.043c1.133-0.742,2.583-0.797,3.776-0.151s1.938,1.891,1.938,3.25v72.304h33.848l27.088-104.801
			c0.512-1.976,2.52-3.16,4.502-2.656c1.976,0.513,3.162,2.528,2.651,4.501l-27.804,107.569
			C249.948,361.712,248.476,362.848,246.794,362.848z"/>
	</g>
	<g>
		<path fill="#8F8F8E" d="M305.475,143.183c0,0,77.445,113.04-6.729,112.559c-84.181-0.482-92.271-130.553-41.849-141.899
			c49.076-11.044,85.138,5.292,85.138,5.292s38.653,11.991,58.682,60.607c21.772,52.86,53.872,127.094-15.87,139.972
			c-50.987,3.851-26.935-47.137-26.935-47.137l13.468,3.85c0,0-10.587,22.122,2.88,24.048c13.473,1.924,46.23-10.461,11.116-62.406"
			/>
		<path fill="#27140E" d="M379.603,323.615c-12.648,0-21.59-3.696-26.622-11.006c-10.579-15.377,1.08-40.545,1.585-41.607
			c0.774-1.639,2.62-2.475,4.358-1.979l13.467,3.85c1.043,0.299,1.906,1.046,2.354,2.037c0.448,0.988,0.433,2.127-0.035,3.107
			c-2.352,4.943-4.812,13.504-2.914,17.039c0.356,0.67,1.026,1.479,2.987,1.756c5.075,0.738,14.946-1.016,19.817-8.802
			c4.405-7.034,5.847-21.048-12.285-47.873c-1.143-1.691-0.696-3.988,0.991-5.13c1.69-1.145,3.99-0.699,5.132,0.991
			c20.354,30.116,17.994,47.039,12.43,55.937c-6.779,10.822-19.933,13.217-27.131,12.195c-4.893-0.699-7.303-3.426-8.463-5.591
			c-3.125-5.849-0.783-14.581,1.101-19.704l-6.319-1.803c-2.474,6.425-7.397,22.082-0.979,31.4
			c4.118,5.973,12.643,8.528,25.292,7.607c16.935-3.163,28.083-10.057,34.081-21.073c14.677-26.963-4.48-73.406-19.873-110.728
			l-1.277-3.093c-9.957-24.184-24.729-38.783-35.371-46.777c-11.564-8.686-20.903-11.68-20.996-11.711
			c-0.139-0.043-0.285-0.098-0.418-0.157c-0.35-0.16-35.628-15.672-82.808-5.056c-22.219,5.001-30.816,35.586-27.827,63.214
			c5.676,52.432,40.655,71.224,68.89,71.385c0.166,0,0.337,0.003,0.508,0.003c16.374,0,27.095-4.565,31.875-13.563
			c6.137-11.559,3.235-31.179-8.38-56.742c-9.041-19.888-20.229-36.308-20.344-36.47c-1.149-1.684-0.724-3.984,0.96-5.136
			c1.679-1.155,3.987-0.725,5.136,0.959c1.902,2.775,46.39,68.372,29.155,100.85c-6.218,11.722-19.387,17.547-38.955,17.488
			c-46.831-0.267-72.01-39.356-76.19-77.978c-3.343-30.889,7.108-65.269,33.549-71.218c48.335-10.876,83.936,3.973,87.271,5.438
			c3.58,1.169,40.896,14.391,60.778,62.659l1.274,3.088c15.991,38.774,35.891,87.028,19.532,117.078
			c-7.054,12.957-20.319,21.321-39.423,24.845c-0.132,0.025-0.264,0.045-0.392,0.051
			C383.209,323.543,381.37,323.615,379.603,323.615z"/>
	</g>
	<g>
		<path fill="#8F8F8E" d="M373.3,209.082c0,0,33.189,17.318,109.188,0C406.009,266.324,337.9,221.12,337.9,221.12"/>
		<path fill="#27140E" d="M400.522,241.731c-7.163,0-13.733-0.604-19.579-1.514c-27.075-4.222-44.366-15.54-45.09-16.021
			c-1.698-1.126-2.16-3.413-1.034-5.117c1.122-1.7,3.416-2.164,5.116-1.043c2.513,1.659,58.154,37.374,124.906-1.644
			c-63.471,10.951-91.967-3.365-93.254-4.035c-1.812-0.942-2.511-3.176-1.568-4.984c0.943-1.806,3.177-2.51,4.977-1.572
			c0.448,0.228,33.398,16.374,106.669-0.321c1.701-0.39,3.443,0.467,4.174,2.05c0.735,1.584,0.258,3.464-1.139,4.509
			C453.656,235.277,423.944,241.731,400.522,241.731z"/>
	</g>
	<g>
		<circle fill="#676665" cx="363.681" cy="170.121" r="5.771"/>
		<path fill="#27140E" d="M363.679,178.357c-4.539,0-8.234-3.694-8.234-8.236c0-4.541,3.695-8.235,8.234-8.235
			c4.542,0,8.234,3.694,8.234,8.235C371.913,174.663,368.221,178.357,363.679,178.357z M363.679,166.813
			c-1.821,0-3.308,1.484-3.308,3.308c0,1.825,1.484,3.311,3.308,3.311c1.824,0,3.311-1.485,3.311-3.311
			C366.988,168.297,365.503,166.813,363.679,166.813z"/>
	</g>
</g>
</svg>
