<?xml version="1.0" encoding="utf-8"?>
<!-- Generator: Adobe Illustrator 16.0.0, SVG Export Plug-In . SVG Version: 6.00 Build 0)  -->
<!DOCTYPE svg PUBLIC "-//W3C//DTD SVG 1.1//EN" "http://www.w3.org/Graphics/SVG/1.1/DTD/svg11.dtd">
<svg version="1.1" id="Layer_1" xmlns="http://www.w3.org/2000/svg" xmlns:xlink="http://www.w3.org/1999/xlink" x="0px" y="0px"
	 width="500px" height="500px" viewBox="0 0 500 500" enable-background="new 0 0 500 500" xml:space="preserve">
<g id="Layer_1_copy_34">
	<g>
		<path fill="#566371" d="M409.606,387.723v-47.505L316.92,94.602L145.438,36.671c0,0-50.395-8.69-58.506,39.393V420.74
			c0,0,1.155,40.549,58.506,41.127"/>
		<path fill="#27140E" d="M145.438,466.003c-0.014,0-0.026,0-0.043,0c-60.621-0.615-62.582-44.705-62.592-45.146L82.799,76.064
			c0-0.231,0.02-0.461,0.059-0.688c2.515-14.91,9.12-26.249,19.644-33.703c18.625-13.201,42.628-9.249,43.637-9.075
			c0.214,0.037,0.42,0.089,0.62,0.157l171.485,57.931c1.177,0.396,2.109,1.296,2.543,2.455l92.689,245.617
			c0.176,0.467,0.266,0.961,0.266,1.461v47.504c0,2.281-1.854,4.133-4.135,4.133c-2.282,0-4.135-1.852-4.135-4.133v-46.75
			L313.745,97.891l-169.292-57.19c-1.878-0.27-12.854-1.622-24.352,1.685c-16.146,4.642-25.912,16.09-29.036,34.029V420.74
			c0.055,1.358,1.973,36.465,54.412,36.992c2.286,0.028,4.115,1.895,4.097,4.182C149.549,464.179,147.706,466.003,145.438,466.003z"
			/>
	</g>
	<g>
		<g>
			<path fill="#566371" d="M145.438,461.867h250.39c7.579,0,13.778-6.199,13.778-13.779v-60.365"/>
		</g>
		<g>
			<path fill="#27140E" d="M395.828,466.003h-250.39c-2.281,0-4.137-1.854-4.137-4.137s1.855-4.135,4.137-4.135h250.39
				c5.316,0,9.645-4.326,9.645-9.646v-60.365c0-2.283,1.853-4.139,4.135-4.139c2.281,0,4.135,1.855,4.135,4.139v60.365
				C413.741,457.966,405.706,466.003,395.828,466.003z"/>
		</g>
	</g>
	<g>
		<path fill="#FFFFFF" d="M137.91,382.746l271.696,0.582v58.508H140.169c0,0-28.75,0.578-29.312-33.598
			C111.982,384.484,137.91,382.746,137.91,382.746z"/>
		<path fill="#27140E" d="M140.075,445.968c-1.335,0-32.738-0.43-33.352-37.663c1.036-21.966,20.668-28.994,30.91-29.687
			c0.097-0.002,0.132,0.018,0.283-0.007l271.697,0.58c2.28,0.004,4.127,1.857,4.127,4.136v58.508c0,2.281-1.854,4.133-4.135,4.133
			H140.075L140.075,445.968z M138.069,386.88c-1.937,0.166-22.175,2.377-23.082,21.552c0.474,28.438,22.569,29.271,25.088,29.271
			v4.133l0.022-4.133h265.375v-50.248L138.069,386.88z"/>
	</g>
	<g>
		<g>
			<path fill="#5CC4BF" d="M410.185,347.908c0,7.574-6.198,13.777-13.777,13.777H144.741c-7.582,0-13.783-6.203-13.783-13.777
				V49.293c0-7.579,6.201-13.779,13.783-13.779h251.665c7.579,0,13.777,6.2,13.777,13.779L410.185,347.908L410.185,347.908z"/>
		</g>
		<g>
			<path fill="#27140E" d="M396.406,365.82H144.741c-9.882,0-17.917-8.035-17.917-17.912V49.293c0-9.876,8.035-17.915,17.917-17.915
				h251.665c9.879,0,17.913,8.039,17.913,17.915v298.615C414.319,357.785,406.285,365.82,396.406,365.82z M144.741,39.647
				c-5.321,0-9.649,4.328-9.649,9.646v298.615c0,5.316,4.328,9.645,9.649,9.645h251.665c5.315,0,9.645-4.328,9.645-9.645V49.293
				c0-5.317-4.328-9.646-9.645-9.646H144.741z"/>
		</g>
	</g>
	<g>
		<g>
			<path fill="#C3C3C6" d="M386.427,297.443c0,7.58-6.198,13.777-13.776,13.777H168.495c-7.584,0-13.784-6.197-13.784-13.777V89.762
				c0-7.579,6.2-13.781,13.784-13.781h204.154c7.578,0,13.776,6.202,13.776,13.781L386.427,297.443L386.427,297.443z"/>
		</g>
		<g>
			<path fill="#27140E" d="M372.649,315.355H168.495c-9.883,0-17.917-8.035-17.917-17.912V89.762
				c0-9.878,8.034-17.915,17.917-17.915h204.154c9.877,0,17.916,8.037,17.916,17.915v207.681
				C390.565,307.32,382.526,315.355,372.649,315.355z M168.495,80.114c-5.322,0-9.648,4.33-9.648,9.646v207.681
				c0,5.316,4.326,9.644,9.648,9.644h204.154c5.315,0,9.645-4.326,9.645-9.644V89.762c0-5.317-4.328-9.647-9.645-9.647
				L168.495,80.114L168.495,80.114z"/>
		</g>
	</g>
	<g>
		<path fill="#EE1F48" stroke="#EE1F48" stroke-width="2.2779" stroke-miterlimit="10" d="M227.747,214.616
			c-0.062,0.543-0.18,1.841-0.361,3.893c-0.062,1.086-0.303,1.899-0.726,2.443c-0.304,0.181-0.815,0.272-1.537,0.272
			c-1.992,0-4.464-0.513-7.422-1.539c-3.197-0.966-5.37-2.112-6.516-3.439c-0.486-0.543-0.968-2.354-1.448-5.432
			c-0.668-4.041-1.42-7.39-2.268-10.047c-2.288,0.303-5.638,1.131-10.044,2.49c-4.404,1.359-7.273,2.49-8.597,3.395
			c-0.905,2.594-2.115,5.793-3.621,9.594c-0.179,0.844-0.381,1.644-0.591,2.397c-0.21,0.755-0.736,1.374-1.584,1.856
			c-0.178,0.121-0.45,0.181-0.813,0.181c-1.449,0-3.878-0.755-7.285-2.263c-3.414-1.508-5.176-2.504-5.299-2.986
			c-0.24-0.844,0.334-2.927,1.723-6.245c1.934-4.827,3.047-7.784,3.351-8.871c-1.27-1.266-1.901-2.534-1.901-3.802
			c0-0.3,0.025-0.634,0.089-0.995c0.124-0.724,1.96-2.02,5.522-3.891l11.676-39.917c0.182-0.725,0.214-2.051,0.088-3.982
			c-0.12-1.629,0.063-2.655,0.544-3.078c0.304-0.301,1.024-0.453,2.173-0.453c2.834,0,6.879,0.726,12.131,2.174
			c5.251,1.447,8.387,2.746,9.412,3.891c0.363,6.697,1.719,16.744,4.075,30.14C221.532,196.937,224.61,208.342,227.747,214.616z
			 M204.125,187.101c-0.784-3.801-1.266-6.305-1.451-7.512c-0.664-4.043-1.118-8.238-1.358-12.583
			c-1.203,2.958-2.624,7.062-4.255,12.312c-1.746,5.492-2.685,8.929-2.803,10.316C195.403,189.152,198.691,188.308,204.125,187.101z
			"/>
		<path fill="#4165B0" stroke="#4165B0" stroke-width="2.2779" stroke-miterlimit="10" d="M299.252,185.743
			c0.122,0.906,0.18,1.811,0.18,2.715c0,5.008-2.143,10.409-6.424,16.202c-3.439,4.646-7.666,8.811-12.673,12.491
			c-4.588,3.318-7.69,4.857-9.323,4.617c-1.808-0.244-5.011-1.584-9.595-4.03c-4.584-2.443-7.062-4.118-7.421-5.022
			c-0.12-0.241-0.182-0.513-0.182-0.815c0-0.363,0.104-0.829,0.312-1.403c0.216-0.573,0.319-1.009,0.319-1.312v-58.653
			c0-0.965,1.328-1.448,3.986-1.448c1.202,0,2.262,0.12,3.166,0.361c2.838-1.809,6.408-3.424,10.725-4.842
			c4.316-1.417,8.012-2.127,11.09-2.127c1.809,0,3.214,0.258,4.207,0.77c0.997,0.515,1.914,1.403,2.759,2.672
			c1.087,1.75,1.84,2.836,2.265,3.256c0.123,0.123,1.117,0.938,2.987,2.446c1.084,0.904,1.778,1.87,2.081,2.896
			c0.239,0.724,0.365,1.509,0.365,2.354c0,4.768-3.168,9.955-9.506,15.568C295.029,177.326,298.585,181.761,299.252,185.743z
			 M283.413,156.327c-0.119-0.241-0.454-0.362-0.997-0.362c-1.387,0-3.561,0.725-6.516,2.172c-2.961,1.448-4.95,2.837-5.976,4.163
			v9.414c3.862-3.078,7.195-6.214,10.003-9.414C282.732,159.103,283.895,157.112,283.413,156.327z M286.673,183.119
			c-1.571,0.061-4.228,0.812-7.967,2.261c-4.043,1.63-6.97,3.229-8.78,4.796v16.835c3.92-1.084,7.782-4.403,11.585-9.956
			C285.311,191.507,287.034,186.858,286.673,183.119z"/>
		<path fill="#43AB53" stroke="#43AB53" stroke-width="2.2779" stroke-miterlimit="10" d="M372.113,200.587
			c-0.18,1.508-0.753,2.715-1.721,3.619c-1.751,3.744-4.436,7.515-8.054,11.316c-3.925,4.042-7.091,6.063-9.506,6.063
			c-0.359,0-0.694-0.031-0.994-0.09c-2.658-0.846-5.646-1.9-8.961-3.167c-5.916-2.415-10.439-7.029-13.577-13.851
			c-2.774-6.153-4.164-13.303-4.164-21.45c0-9.956,1.9-18.737,5.7-26.338c4.046-8.087,9.114-12.281,15.208-12.583
			c2.354-0.119,5.807,1.089,10.363,3.622c4.557,2.534,7.562,5.055,9.008,7.559c1.448,2.503,2.445,7.98,2.985,16.428
			c0.121,1.811-0.12,3.65-0.727,5.521c-0.722,2.232-1.661,3.259-2.803,3.078c-2.115-0.301-4.766-0.964-7.969-1.991
			c-3.861-1.269-5.941-2.323-6.244-3.169c-0.121-0.3-0.179-0.572-0.179-0.814c0-0.542,0.256-1.223,0.769-2.036
			c0.512-0.815,0.769-1.494,0.769-2.036c0.305-2.475,0.455-4.797,0.455-6.969c0-3.137-0.361-5.311-1.087-6.519
			c-3.623,2.657-6.37,7.091-8.235,13.305c-1.573,5.25-2.356,11.194-2.356,17.831c0,5.129,0.454,9.702,1.362,13.712
			c0.904,4.016,1.991,6.443,3.255,7.287c0.603,0.363,2.274-0.859,5.024-3.666c2.747-2.806,4.51-5.054,5.294-6.744
			c0.062-0.058,0.333-1.024,0.813-2.895c0.36-1.087,0.847-1.749,1.447-1.991c1.029-0.363,3.669,0.497,7.922,2.579
			C370.169,198.28,372.233,199.743,372.113,200.587z"/>
	</g>
</g>
</svg>
