<?xml version="1.0" encoding="utf-8"?>
<!-- Generator: Adobe Illustrator 16.0.0, SVG Export Plug-In . SVG Version: 6.00 Build 0)  -->
<!DOCTYPE svg PUBLIC "-//W3C//DTD SVG 1.1//EN" "http://www.w3.org/Graphics/SVG/1.1/DTD/svg11.dtd">
<svg version="1.1" id="Layer_1" xmlns="http://www.w3.org/2000/svg" xmlns:xlink="http://www.w3.org/1999/xlink" x="0px" y="0px"
	 width="500px" height="500px" viewBox="0 0 500 500" enable-background="new 0 0 500 500" xml:space="preserve">
<g id="Layer_1_copy_94">
	<g>
		<polygon fill="#F1F3F6" points="42.223,230.333 42.223,317.236 185.185,393.665 184.44,302.566 160.277,255.223 		"/>
		<path fill="#27140E" d="M185.185,397.018c-0.542,0-1.084-0.133-1.579-0.398L40.642,320.191c-1.091-0.588-1.771-1.721-1.771-2.955
			v-86.903c0-1.01,0.455-1.964,1.241-2.603c0.783-0.637,1.811-0.882,2.801-0.675l118.059,24.888c0.988,0.213,1.831,0.856,2.29,1.756
			l24.163,47.345c0.237,0.465,0.362,0.976,0.365,1.491l0.747,91.101c0.011,1.181-0.605,2.288-1.616,2.897
			C186.387,396.857,185.784,397.018,185.185,397.018z M45.571,315.225L181.79,388.05l-0.696-84.669l-23.071-45.21L45.571,234.464
			V315.225z"/>
	</g>
	<g>
		<polygon fill="#D0D0D2" points="411.455,176.005 273.533,115.821 42.543,230.333 184.44,302.566 277.773,290.421 374.505,230.333 
					"/>
		<path fill="#27140E" d="M184.44,305.916c-0.526,0-1.049-0.125-1.521-0.365L41.023,233.318c-1.13-0.574-1.839-1.737-1.832-3.003
			c0.006-1.267,0.728-2.421,1.863-2.983L272.047,112.82c0.879-0.44,1.919-0.467,2.826-0.071l137.923,60.186
			c0.91,0.397,1.602,1.184,1.88,2.142c0.272,0.958,0.108,1.989-0.45,2.813l-36.949,54.328c-0.267,0.386-0.605,0.713-1.003,0.96
			l-96.729,60.088c-0.41,0.254-0.862,0.414-1.338,0.476l-93.337,12.145C184.726,305.91,184.584,305.916,184.44,305.916z
			 M50.005,230.372l135.029,68.739l91.589-11.918l95.512-59.332l34.277-50.401l-132.789-57.945L50.005,230.372z"/>
	</g>
	<g>
		<polygon fill="#9A9A9B" points="185.185,393.665 411.455,262.896 411.455,175.629 184.44,302.566 		"/>
		<path fill="#27140E" d="M185.185,397.018c-0.574,0-1.146-0.147-1.662-0.443c-1.036-0.59-1.678-1.69-1.688-2.881l-0.747-91.102
			c-0.01-1.223,0.648-2.354,1.717-2.953l227.014-126.935c1.04-0.579,2.304-0.565,3.331,0.034c1.022,0.602,1.657,1.702,1.657,2.891
			v87.268c0,1.192-0.642,2.297-1.678,2.899L186.862,396.568C186.342,396.863,185.762,397.018,185.185,397.018z M187.806,304.521
			l0.683,83.364l219.619-126.924V181.34L187.806,304.521z"/>
	</g>
	<g>
		<polygon fill="#383A93" points="253.068,363.884 438.534,252.377 438.534,161.408 253.736,263.85 		"/>
		<path fill="#27140E" d="M253.068,367.234c-0.57,0-1.146-0.146-1.661-0.439c-1.049-0.597-1.696-1.72-1.688-2.934l0.668-100.031
			c0.009-1.209,0.667-2.322,1.722-2.906l184.802-102.446c1.036-0.576,2.297-0.56,3.323,0.043c1.02,0.602,1.647,1.7,1.647,2.887
			v90.97c0,1.177-0.615,2.269-1.623,2.87L254.792,366.755C254.266,367.077,253.669,367.234,253.068,367.234z M257.076,265.832
			l-0.616,92.104l178.722-107.452v-83.389L257.076,265.832z"/>
	</g>
	<g>
		<polygon fill="#7B79B9" points="435.929,160.492 298.007,100.308 109.174,191.619 251.195,263.85 		"/>
		<path fill="#27140E" d="M251.195,267.202c-0.521,0-1.039-0.119-1.521-0.362l-142.022-72.234c-1.133-0.577-1.842-1.748-1.828-3.02
			c0.013-1.273,0.747-2.428,1.893-2.984l188.833-91.311c0.876-0.423,1.902-0.444,2.798-0.054l137.918,60.186
			c1.171,0.508,1.947,1.634,2.01,2.906c0.062,1.27-0.602,2.467-1.71,3.087L252.831,266.771
			C252.324,267.061,251.762,267.202,251.195,267.202z M116.716,191.694l134.406,68.361l177.281-99.19l-130.323-56.87
			L116.716,191.694z"/>
	</g>
	<g>
		<polygon fill="#211010" points="252.498,367.145 241.742,361.488 248.639,358.068 253.124,355.836 		"/>
		<path fill="#27140E" d="M253.521,368.941l-14.237-7.479l15.059-7.482L253.521,368.941z M244.199,361.52l7.281,3.824l0.42-7.65
			L244.199,361.52z"/>
	</g>
	<g>
		<polygon fill="#211010" points="105.895,191.111 105.382,197.531 110.315,195.02 		"/>
		<path fill="#27140E" d="M104.111,199.434l0.847-10.641l7.324,6.477L104.111,199.434z M106.828,193.43l-0.173,2.201l1.69-0.861
			L106.828,193.43z"/>
	</g>
</g>
</svg>
