<?xml version="1.0" encoding="utf-8"?>
<!-- Generator: Adobe Illustrator 16.0.0, SVG Export Plug-In . SVG Version: 6.00 Build 0)  -->
<!DOCTYPE svg PUBLIC "-//W3C//DTD SVG 1.1//EN" "http://www.w3.org/Graphics/SVG/1.1/DTD/svg11.dtd">
<svg version="1.1" id="Layer_1" xmlns="http://www.w3.org/2000/svg" xmlns:xlink="http://www.w3.org/1999/xlink" x="0px" y="0px"
	 width="500px" height="500px" viewBox="0 0 500 500" enable-background="new 0 0 500 500" xml:space="preserve">
<g id="Layer_1_copy_86">
	<g>
		<g>
			<path fill="#F3BD78" d="M201.021,211.104c7.368,4.266,28.706,67.037,28.706,67.037s16.148,50.307,29.398,50.307
				c44.586,5.814,18.668-130.913-4.982-139.44C209.553,171.56,201.021,211.104,201.021,211.104s-35.278,1.939-36.445,29.856
				c-48.075-1.55-36.831,41.487-36.831,41.487s-7.368,1.162-5.042,21.715c13.96,54.281,50.791,93.829,50.791,93.829
				c6.979,3.875,6.205,15.118,6.205,15.118v33.732c0,0,7.365,21.325,60.486,21.325c53.118,0,53.118-20.549,53.118-20.549v-45.753
				c0,0-3.488-13.569,10.854-29.467c14.347-15.896,29.47-74.83,0-142.293c-1.998-7.44-5.287-141.154-6.436-164.736
				C294.729,3.671,249.1,26.985,250.555,55.14c-0.388,106.629-0.318,130.568-0.318,130.568"/>
		</g>
		<g>
			<path fill="#081712" d="M240.186,471.658c-54.972,0-63.451-22.708-63.785-23.674c-0.128-0.367-0.19-0.751-0.19-1.142v-33.731
				c0-0.078,0.004-0.157,0.007-0.238c0.007-0.082,0.436-9.135-4.416-11.831c-0.321-0.181-0.613-0.403-0.862-0.672
				c-1.526-1.646-37.598-40.825-51.613-95.339c-0.043-0.157-0.072-0.314-0.089-0.479c-1.727-15.222,1.642-21.391,4.584-23.891
				c-1.003-5.861-2.268-20.12,6.283-30.826c6.474-8.105,16.991-12.273,31.295-12.404c2.903-20.555,23.871-28.153,36.923-29.601
				c1.639-5.088,6.448-16.499,17.98-22.688c8.479-4.554,18.694-5.297,30.443-2.231c-0.007-8.902,0.006-41.192,0.32-127.783
				c-0.566-10.838,5.216-21.938,14.733-28.097c7.303-4.725,15.366-5.438,22.131-1.969c7.172,3.679,15.991,13.632,17.279,40.137
				c0.373,7.719,0.982,27.331,1.688,50.038c1.329,42.883,3.331,107.425,4.59,113.768c30.062,69.096,14.373,128.993-0.737,145.73
				c-12.764,14.146-10.176,25.805-10.059,26.293c0.062,0.265,0.103,0.566,0.103,0.838v45.753
				C296.793,450.081,295.204,471.658,240.186,471.658z M183.188,446.1c1.438,2.727,11.752,18.579,56.997,18.579
				c48.115,0,49.62-16.979,49.629-17.15v-45.294c-0.549-2.812-2.295-16.607,11.755-32.174
				c13.639-15.108,27.999-73.065-0.609-138.559c-0.068-0.161-0.128-0.324-0.17-0.491c-1.347-5.01-2.937-53.146-4.872-115.553
				c-0.701-22.678-1.311-42.264-1.682-49.92c-0.875-18.082-5.668-30.25-13.494-34.266c-4.481-2.3-10.002-1.704-15.152,1.622
				c-7.346,4.751-11.984,13.62-11.549,22.072c-0.348,96.931-0.324,125.88-0.318,130.152c0.563,0.204,1.129,0.417,1.69,0.639
				c19.69,7.1,38.215,85.362,29.058,123.111c-5.351,22.067-18.255,23.976-25.598,23.063c-14.565-0.451-28.52-40.429-32.468-52.728
				c-9.599-28.228-21.8-59.077-26.537-64.5c-6.188,0.652-30.895,4.613-31.806,26.403c-0.079,1.914-1.651,3.427-3.598,3.342
				c-13.655-0.446-23.366,2.828-28.883,9.711c-8.617,10.752-4.502,27.248-4.463,27.412c0.246,0.953,0.079,1.965-0.458,2.787
				c-0.479,0.73-1.213,1.252-2.045,1.469c-0.38,0.232-4.099,2.961-2.47,17.697c12.928,49.996,45.919,87.662,49.576,91.726
				c7.889,4.888,7.545,16.479,7.466,17.96L183.188,446.1L183.188,446.1z M204.927,210.096c8.207,10.022,22.124,49.33,28.104,66.919
				c7.447,23.18,19.697,47.941,26.096,47.941c0.146,0,0.301,0.01,0.452,0.029c3.312,0.436,13.38,1.742,18.11-17.764
				c9.396-38.752-10.703-109.875-24.729-114.935c-13.548-5.304-24.746-5.625-33.359-0.999
				C210.143,196.368,206.191,206.125,204.927,210.096z"/>
		</g>
	</g>
	<g>
		<g>
			<path fill="#F3BD78" d="M164.216,240.938c0,0,24.742,82.587,41.632,103.396c18.802,21.669,44.39-2.572,37.257-33.503"/>
		</g>
		<g>
			<path fill="#27140E" d="M221.612,356.107c-6.513,0-12.99-3.252-18.402-9.487c-17.2-21.19-41.316-101.282-42.336-104.679
				c-0.554-1.848,0.495-3.794,2.34-4.344c1.844-0.557,3.794,0.492,4.344,2.339c0.249,0.819,24.736,82.162,40.999,102.196
				c5.888,6.782,12.751,8.748,19.251,5.442c8.761-4.456,15.906-18.573,11.896-35.957c-0.433-1.878,0.737-3.752,2.614-4.188
				c1.884-0.416,3.751,0.739,4.188,2.617c4.854,21.061-4.139,37.948-15.533,43.747C227.923,355.344,224.761,356.107,221.612,356.107
				z"/>
		</g>
	</g>
	<g>
		<g>
			<path fill="#F3BD78" d="M128.977,283.417c0,0,41.484,84.095,74.443,64.319"/>
		</g>
		<g>
			<path fill="#27140E" d="M192.805,354.241c-2.497,0-5.059-0.384-7.68-1.157c-29.687-8.729-58.085-65.701-59.28-68.123
				c-0.852-1.727-0.141-3.818,1.586-4.672c1.723-0.854,3.82-0.145,4.675,1.583c0.278,0.565,28.231,56.651,54.992,64.519
				c5.32,1.569,10.071,1.025,14.526-1.645c1.651-0.999,3.794-0.455,4.787,1.195c0.992,1.651,0.455,3.798-1.196,4.787
				C201.316,353.07,197.162,354.241,192.805,354.241z"/>
		</g>
	</g>
	<g>
		<g>
			<path fill="#F3BD78" d="M300.694,226.735c0,0-57.643-23.382-79.046-14.078c-21.4,9.304,13.105,56.995,42.185,56.995
				c-2.712,31.404,34.896,52.729,34.896,52.729"/>
		</g>
		<g>
			<path fill="#27140E" d="M298.726,325.875c-0.583,0-1.173-0.146-1.717-0.455c-1.557-0.882-36.817-21.25-36.809-52.484
				c-22.288-2.569-44.662-27.885-48.161-44.708c-1.841-8.855,1.157-15.696,8.221-18.766c22.494-9.786,79.337,13.065,81.745,14.042
				c1.786,0.724,2.647,2.758,1.924,4.547c-0.725,1.782-2.756,2.647-4.545,1.92c-15.659-6.35-59.896-21.263-76.34-14.114
				c-1.464,0.639-5.913,2.575-4.174,10.949c4.142,19.9,29.244,39.361,44.963,39.361c0.978,0,1.91,0.409,2.571,1.13
				c0.662,0.722,0.99,1.685,0.904,2.66c-2.482,28.772,32.789,49.188,33.146,49.394c1.675,0.953,2.258,3.082,1.308,4.758
				C301.12,325.236,299.941,325.875,298.726,325.875z"/>
		</g>
	</g>
	<g>
		<g>
			<path fill="#F3BD78" d="M289.038,260.798c1.728-1.432-9.695,9.306-25.339,8.777"/>
		</g>
		<g>
			<path fill="#27140E" d="M264.797,273.084c-0.402,0-0.811-0.007-1.216-0.02c-1.931-0.065-3.437-1.682-3.371-3.607
				s1.724-3.473,3.606-3.368c11.879,0.371,21.086-6.428,22.722-7.725c0.085-0.089,0.177-0.171,0.271-0.253
				c1.189-0.989,3.07-1.207,4.361-0.332c1.287,0.873,1.838,2.49,1.355,3.969c-0.127,0.395-0.566,0.967-1.277,1.646l0.046,0.062
				c-0.142,0.115-0.292,0.217-0.444,0.305C286.921,267.266,276.691,273.084,264.797,273.084z"/>
		</g>
	</g>
	<g>
		<path fill="#F3BD78" d="M232.987,286.43c0,0,13.178,47.004,33.104,41.646"/>
		<path fill="#27140E" d="M262.973,331.988c-6.639,0-15.265-4.381-23.999-21.111c-5.885-11.273-9.206-23.013-9.344-23.508
			c-0.524-1.854,0.56-3.777,2.414-4.303c1.848-0.521,3.784,0.562,4.302,2.418c3.182,11.33,15.316,42.845,28.837,39.225
			c1.871-0.501,3.777,0.604,4.275,2.464c0.501,1.856-0.604,3.774-2.464,4.275C265.76,331.779,264.413,331.988,262.973,331.988z"/>
	</g>
	<g>
		<path fill="#221212" d="M298.172,229.425c0,0,4.989,5.573,5.717,8.872c0.729,3.296,1.212-9.79,1.212-9.79l-7.512-2.326
			L298.172,229.425z"/>
		<path fill="#27140E" d="M304.174,239.991c-1.088,0.01-1.34-1.081-1.422-1.445c-0.54-2.46-4.115-6.857-5.447-8.345l-0.221-0.246
			l-0.977-5.452l10.187,3.152l-0.029,0.891C305.845,239.834,305.351,239.991,304.174,239.991z M299.26,228.901
			c0.74,0.845,2.854,3.338,4.331,5.851c0.124-1.599,0.232-3.542,0.312-5.399l-4.833-1.497L299.26,228.901z"/>
	</g>
</g>
</svg>
