<?xml version="1.0" encoding="utf-8"?>
<!-- Generator: Adobe Illustrator 16.0.0, SVG Export Plug-In . SVG Version: 6.00 Build 0)  -->
<!DOCTYPE svg PUBLIC "-//W3C//DTD SVG 1.1//EN" "http://www.w3.org/Graphics/SVG/1.1/DTD/svg11.dtd">
<svg version="1.1" id="Layer_1" xmlns="http://www.w3.org/2000/svg" xmlns:xlink="http://www.w3.org/1999/xlink" x="0px" y="0px"
	 width="500px" height="500px" viewBox="0 0 500 500" enable-background="new 0 0 500 500" xml:space="preserve">
<g id="Layer_1_copy_4">
	<g>
		<g>
			<path fill="#4E4E4E" d="M458.55,289.271c0,51.918-95.645,94.019-213.627,94.019c-118.021,0-213.668-42.101-213.668-94.019
				c0-51.961,95.647-94.075,213.668-94.075C362.905,195.197,458.55,237.31,458.55,289.271z"/>
			<path fill="#3C2517" d="M244.923,385.872c-57.428,0-111.456-9.854-152.132-27.761c-41.347-18.192-64.118-42.645-64.118-68.84
				c0-26.217,22.771-50.68,64.118-68.887c40.673-17.907,94.704-27.771,152.132-27.771c57.412,0,111.43,9.864,152.099,27.771
				c41.343,18.207,64.108,42.672,64.108,68.887C461.13,342.538,364.141,385.872,244.923,385.872z M244.923,197.778
				c-116.395,0-211.084,41.047-211.084,91.494c0,50.416,94.689,91.438,211.084,91.438c116.371,0,211.045-41.022,211.045-91.438
				C455.968,238.825,361.294,197.778,244.923,197.778z"/>
		</g>
		<g>
			<path fill="#818181" d="M227.395,157.05c82.284-3.92,155.5,13.359,203.698,47.748c27.192,19.411,58.977,58.583,38.979,105.275
				c-3.79,8.847-8.859,18.606-15.592,26.308c-63.775,72.907-243.312,88.877-349.898,42.878
				c-36.591-15.788-67.308-36.854-80.893-67.241c-24.065-53.865,18.453-95.343,51.657-115.013
				c25.322-14.995,56.706-27.221,92.581-34.107C186.003,159.421,206.664,158.033,227.395,157.05z M168.902,201.875
				c-35.823,7.173-65.991,18.484-90.632,38.024c-9.519,7.552-24.401,24.768-24.364,40.953c0.046,19.063,14.864,32.351,27.292,41.879
				c64.425,49.444,197.447,58.779,285.571,25.352c26.973-10.247,73.094-33.422,73.094-67.229c0-19.49-15.562-34.32-30.213-44.856
				c-44.72-32.142-110.636-44.307-181.277-40.942C206.631,196.088,187.462,198.16,168.902,201.875z"/>
			<path fill="#3C2517" d="M246.091,407.715c-52.94,0-103.556-9.263-142.53-26.084c-43.004-18.554-69.896-40.984-82.224-68.562
				c-11.104-24.842-9.59-49.31,4.49-72.712c13.854-23.014,36.151-38.432,48.207-45.575c26.956-15.963,59.258-27.867,93.405-34.419
				c18.531-3.564,39.709-4.938,59.832-5.893c7.658-0.365,15.356-0.548,22.892-0.548c73.559,0,138.344,17.322,182.43,48.775
				c31.943,22.8,59.185,63.252,39.852,108.393c-4.895,11.433-10.139,20.261-16.021,26.992
				C418.859,381.029,338.258,407.715,246.091,407.715z M250.163,159.085c-7.453,0-15.072,0.183-22.646,0.544
				c-19.933,0.944-40.891,2.302-59.104,5.804c-33.569,6.442-65.297,18.128-91.75,33.792
				c-73.764,43.698-57.389,96.573-50.612,111.736c11.771,26.344,37.796,47.909,79.554,65.93
				c38.343,16.545,88.236,25.656,140.486,25.656c90.725,0,169.828-26.005,206.445-67.863c5.521-6.316,10.478-14.699,15.163-25.627
				c18.127-42.326-7.799-80.523-38.109-102.156C386.374,176.066,322.655,159.085,250.163,159.085z M248.111,370.425h-0.015
				c-68.251-0.003-131.232-17.069-168.472-45.649c-13.965-10.707-28.259-24.301-28.304-43.918
				c-0.037-18.06,16.558-36.011,25.342-42.982c23.216-18.407,52.361-30.649,91.73-38.53c17.968-3.598,36.991-5.782,59.86-6.871
				c7.574-0.362,15.161-0.542,22.547-0.542c66.7,0,122.153,14.512,160.355,41.964c21.056,15.146,31.287,30.504,31.287,46.958
				c0,37.229-52.279,61.104-74.757,69.643C333.318,363.533,291.969,370.425,248.111,370.425z M250.801,197.093
				c-7.307,0-14.808,0.181-22.301,0.539c-22.604,1.078-41.381,3.23-59.091,6.777c-38.538,7.712-66.987,19.631-89.531,37.513
				c-9.422,7.472-23.424,24.008-23.391,38.921c0.042,17.38,13.309,29.892,26.278,39.835c36.374,27.915,98.177,44.575,165.331,44.58
				h0.015c42.624,0,84.433-6.958,117.741-19.592c21.479-8.156,71.43-30.803,71.43-64.814c0-14.672-9.53-28.66-29.139-42.76
				C370.82,211.271,316.415,197.093,250.801,197.093z"/>
		</g>
	</g>
	<g>
		<path fill="#368D42" d="M137.936,341.982c0,0,0.851-23.653,8.355-45.342c7.348-21.22-8.396-29.521-23.988-43.775
			c3.294-5.53,6.322-11.994,10.165-18.554c10.996-18.795,10.898-37.074,14.372-49.939c3.472-12.861,3.419-6.031,2.136-25.71
			c-1.278-19.683-6.735-7.574-15.517-11.162c-8.78-3.588-1.492-2.807-5.199-9.209c-3.704-6.401-5.662-1.765-8.229,1.562
			c-2.566,3.331-5.251,5.086-9.492,4.292c-4.23-0.792-2.615-5.366-7.14-4.862c-4.521,0.506-13.397,5.211-12.085,11.179
			c1.31,5.97-2.428,9.7-7.064,6.833c-4.641-2.859-7.325,1.585-7.676,2.542c-0.354,0.955,1.876,4.263,0.241,8.381
			c-1.634,4.122-3.819,0.825-7.642-2.771c-3.824-3.593-9.191-3.168-9.165,1.623c0.022,4.793,6.4,10.33,2.897,11.531
			c-3.502,1.197-3.599-3.045-8.493,0.188c-4.886,3.242-2.315,6.482,0.475,7.645c2.789,1.16,3.233,12.794,1.152,12.313
			c-2.088-0.481-6.348,1.904-5.781,6.77c0.57,4.86,4.214,2.573,4.599,5.522c0.384,2.945-4.133,2.561-5.859,4.668
			c-0.985,1.197-0.127,2.105,0.786,3.318c-15.161-2.139-9.992,3.278-11.544,9.662c-0.552,0.551-0.656,0.985-0.429,1.335
			c-0.254,0.627-0.585,1.257-1.019,1.889c-5.427,7.787-3.069,0.845-10.127,3.054c-7.057,2.211-2.965,5.14-0.283,8.377
			c2.692,3.228,3.816,6.233,2.107,10.194c-1.7,3.957-5.808,1.376-6.307,5.899c-0.497,4.521,2.148,14.213,8.254,14.248
			c0.705,0,1.354,0.063,1.965,0.185c0.407,0.44,1.131,0.636,2.06,0.646c3.096,1.469,3.92,4.67,1.097,7.56
			c-3.808,3.897-0.06,7.489,0.79,8.046c0.859,0.55,4.578-0.901,8.232,1.602c3.667,2.498-0.029,3.91-4.378,6.846
			c-4.343,2.944-5.104,8.268-0.423,9.293c4.683,1.041,11.482-3.974,11.881-0.297c0.399,3.685-3.76,2.847-1.675,8.33
			c2.089,5.479,5.814,3.678,7.561,1.219c1.745-2.471,13.192-0.35,12.269,1.578c-0.93,1.924,0.463,6.611,5.333,7.127
			c4.871,0.504,3.436-3.56,6.401-3.285c2.954,0.271,1.588,4.592,3.263,6.746c1.675,2.146,3.716-1.449,7.181-0.631
			c3.466,0.805,2.279,4.957-0.036,6.457c-2.32,1.489,0,0-0.867,0.881c-0.864,0.879,1.481,1.584,3.771,6.197
			c2.291,4.615,3.842-5.279,7.386-6.91c3.547-1.625,1.79,2.982,1.727,5.541c-0.06,2.56,0.836,3.271,0.541,4.502
			c-0.29,1.231,4.804-2.125,6.314-2.058c1.508,0.07,3.074-1.313,6.797,2.3c3.723,3.62-0.272,2.961,3.92,8.887
			c4.196,5.937,2.607-0.465,7.69-1.162c5.093-0.704-1.179-1.258,5.972,4.218C142.358,362.971,137.936,341.982,137.936,341.982z"/>
		<path fill="#3C2517" d="M137.245,360.989L137.245,360.989c-1.156,0-2.338-0.474-3.606-1.442c-1.812-1.388-3.077-2.605-3.846-3.738
			c-0.063,0.008-0.131,0.021-0.205,0.028c-1.014,0.142-1.41,0.626-2.077,1.543c-0.586,0.804-1.56,2.146-3.354,2.146
			c-2.011,0-3.436-1.773-4.723-3.59c-2.439-3.449-2.626-5.312-2.607-6.929c0.005-0.149,0.005-0.358-0.011-0.413
			c0,0-0.107-0.326-0.988-1.188c-1.217-1.178-2.187-1.771-2.884-1.771c-0.265,0-0.5,0.045-0.723,0.079
			c-0.444,0.068-0.862,0.126-1.28,0.126c-0.425,0.062-1.712,0.678-2.48,1.042c-1.769,0.843-2.741,1.284-3.727,1.284
			c-0.79,0-1.734-0.43-2.222-1.049c-0.53-0.668-0.713-1.541-0.512-2.401c-0.023-0.034-0.082-0.19-0.131-0.37
			c-0.204-0.746-0.518-1.875-0.478-3.597c0.004-0.156,0.012-0.313,0.026-0.479c-0.22,0.396-0.414,0.778-0.574,1.088
			c-1.224,2.375-2.383,4.621-4.764,4.621c-1.469,0-2.659-0.894-3.532-2.649c-1.018-2.054-2.014-3.177-2.741-3.993
			c-0.459-0.521-1.582-1.786-1.496-3.234c-0.238-1.574,0.97-2.354,2.245-3.174c0.65-0.42,1.053-1.33,1.034-1.725
			c-0.034-0.002-0.094-0.023-0.18-0.049c-0.82-0.192-1.565,0.168-2.433,0.574c-0.839,0.383-1.793,0.824-2.904,0.824
			c-0.903,0-2.208-0.297-3.298-1.693c-1.101-1.414-1.351-3.119-1.548-4.492c-0.022-0.172-0.052-0.373-0.086-0.576
			c-0.839,1.203-2.354,2.991-6.262,2.589c-2.974-0.313-5.473-1.913-6.856-4.39c-0.81-1.449-1.164-3.088-1.036-4.547
			c-1.194-0.414-3.351-0.871-5.454-0.871c-1.138,0-1.783,0.146-2.033,0.238c-1.529,2.043-3.666,3.25-5.758,3.25
			c-1.557,0-4.429-0.68-6.17-5.25c-1.57-4.127-0.399-6.17,0.892-7.727c-0.403,0.109-0.829,0.23-1.231,0.352
			c-2.451,0.715-5.539,1.494-8.016,0.943c-2.757-0.609-4.613-2.386-5.091-4.875c-0.608-3.143,1.257-6.793,4.628-9.078
			c0.728-0.49,1.44-0.938,2.1-1.361c0.657-0.414,1.466-0.93,2.053-1.354c-1.889-1.182-3.652-0.966-4.823-0.902
			c-0.351,0.012-0.667,0.029-0.94,0.029c-0.623,0-1.433-0.062-2.186-0.548c-1.115-0.728-3.29-2.876-3.617-5.858
			c-0.172-1.529,0.104-3.846,2.371-6.166c0.721-0.738,1.078-1.486,0.978-2.052c-0.074-0.416-0.406-0.821-0.937-1.157
			c-0.936-0.082-1.737-0.33-2.398-0.738c-0.298-0.033-0.604-0.051-0.917-0.051c-2.462-0.018-4.719-1.102-6.539-3.148
			c-3.241-3.637-4.722-9.953-4.286-13.965c0.452-4.074,3.242-4.951,4.742-5.418c1.137-0.357,1.45-0.481,1.768-1.226
			c1.142-2.655,0.689-4.625-1.72-7.521c-0.354-0.422-0.728-0.838-1.101-1.249c-1.745-1.939-3.733-4.139-2.991-6.853
			c0.712-2.59,3.529-3.743,5.584-4.39c1.234-0.386,2.339-0.575,3.372-0.575c1.678,0,2.816,0.506,3.572,0.921
			c0.348-0.391,0.922-1.104,1.836-2.411c0.16-0.239,0.312-0.483,0.447-0.739c-0.015-0.681,0.194-1.429,0.724-2.169
			c0.19-1.096,0.168-2.212,0.142-3.299c-0.044-2.087-0.097-4.456,1.642-6.236c1.6-1.63,4.147-2.225,8.404-1.962
			c0.123-0.63,0.413-1.292,0.97-1.964c1.133-1.384,2.748-2.001,4.043-2.495c0.163-0.062,0.354-0.134,0.541-0.211
			c-1.369-0.558-3.451-1.772-3.895-5.545c-0.306-2.627,0.437-5.099,2.089-6.958c1.32-1.484,3.152-2.477,4.919-2.703
			c0.251-2.109-0.204-6.305-1.036-7.438c-2.074-0.931-4.298-2.852-4.555-5.582c-0.164-1.684,0.38-4.178,3.884-6.498
			c1.723-1.14,3.199-1.671,4.65-1.671c1.354,0,2.339,0.464,3.081,0.849c-0.205-0.394-0.433-0.796-0.619-1.13
			c-1.186-2.148-2.667-4.819-2.682-7.601c-0.011-2.459,0.977-3.965,1.809-4.801c2.704-2.718,8.072-2.134,11.708,1.283
			c0.646,0.604,1.239,1.197,1.795,1.752c0.552,0.549,1.224,1.224,1.768,1.701c0.66-1.891,0.198-3.555-0.175-4.901
			c-0.299-1.072-0.578-2.087-0.176-3.174c0.493-1.341,2.861-5.175,7.129-5.175c1.436,0,2.891,0.446,4.322,1.328
			c1.183,0.735,2.146,0.839,2.737,0.104c0.52-0.646,0.911-2.085,0.452-4.182c-0.526-2.39,0.041-4.83,1.634-7.061
			c2.838-3.961,8.679-6.794,12.686-7.24c4.23-0.478,5.506,2.016,6.329,3.434c0.594,1.033,0.784,1.309,1.571,1.457
			c2.868,0.533,4.621-0.278,6.972-3.327c0.332-0.435,0.656-0.894,0.973-1.341c1.47-2.078,3.134-4.429,5.838-4.429
			c2.782,0,4.588,2.562,5.703,4.487c1.936,3.354,1.562,5.542,1.182,6.85c0.459,0.257,1.28,0.662,2.754,1.263
			c2.021,0.826,4.281,0.438,6.352-0.079c1.186-0.292,2.302-0.572,3.465-0.572c5.896,0,6.842,6.936,7.304,14.038l0.365,5.453
			c0.671,9.9,0.702,10.284-0.821,15.099c-0.437,1.39-1.018,3.23-1.767,5.998c-0.97,3.601-1.679,7.764-2.418,12.169
			c-1.854,10.975-4.166,24.637-12.219,38.398c-1.898,3.242-3.6,6.47-5.249,9.592c-1.308,2.49-2.569,4.875-3.855,7.144
			c1.908,1.707,3.818,3.332,5.665,4.909c13.011,11.097,24.245,20.681,17.479,40.228c-6.845,19.769-8.072,41.479-8.206,44.289
			c0.921,4.447,2.562,14.345-0.165,17.709C139.572,360.452,138.469,360.989,137.245,360.989z M134.053,352.895
			c0.201,0.306,0.82,1.071,2.551,2.418c0.354-2.328-0.123-7.701-1.192-12.797c-0.046-0.201-0.064-0.412-0.057-0.625
			c0.033-0.981,0.951-24.293,8.501-46.097c5.609-16.215-3.432-23.931-15.953-34.606c-2.388-2.041-4.865-4.154-7.341-6.422
			c-0.903-0.824-1.104-2.175-0.478-3.223c1.607-2.7,3.155-5.638,4.796-8.748c1.675-3.169,3.402-6.454,5.356-9.792
			c7.58-12.944,9.709-25.539,11.586-36.65c0.765-4.53,1.484-8.81,2.524-12.654c0.773-2.865,1.373-4.771,1.829-6.207
			c1.227-3.883,1.227-3.883,0.592-13.19l-0.369-5.472c-0.57-8.764-1.891-9.208-2.148-9.208c-0.529,0-1.346,0.205-2.211,0.422
			c-1.354,0.335-3.033,0.755-4.932,0.755c-1.615,0-3.133-0.297-4.629-0.908c-4.341-1.776-7.095-3.234-5.853-7.173
			c0.229-0.729,0.425-1.354-0.604-3.135c-0.566-0.988-0.983-1.49-1.234-1.738c-0.47,0.462-1.163,1.443-1.614,2.078
			c-0.358,0.505-0.725,1.02-1.101,1.509c-1.966,2.553-4.835,5.485-9.602,5.485c-0.769,0-1.578-0.079-2.402-0.235
			c-3.155-0.587-4.371-2.689-5.096-3.944c-0.183-0.312-0.462-0.788-0.585-0.877l0,0c0,0-0.294-0.054-0.701-0.013
			c-2.398,0.268-7.004,2.245-9.061,5.117c-0.737,1.033-0.999,1.996-0.79,2.943c0.735,3.344,0.197,6.451-1.47,8.529
			c-2.186,2.717-6.005,3.199-9.475,1.057c-0.6-0.371-1.145-0.561-1.61-0.561c-0.951,0-1.717,0.893-2.074,1.443
			c0.025,0.11,0.062,0.231,0.097,0.36c0.47,1.688,1.343,4.828-0.089,8.435c-1.161,2.928-2.946,3.543-4.237,3.543
			c-2.141,0-3.798-1.65-5.891-3.741c-0.522-0.52-1.081-1.08-1.686-1.645c-1.312-1.24-2.708-1.68-3.565-1.68
			c-0.25,0-0.705,0.035-0.943,0.278c-0.198,0.198-0.306,0.599-0.306,1.132c0.011,1.461,1.088,3.406,2.036,5.124
			c1.268,2.283,2.462,4.44,1.655,6.535c-0.294,0.766-0.973,1.792-2.532,2.325c-0.701,0.24-1.384,0.36-2.056,0.36
			c-1.432,0-2.454-0.533-3.2-0.927c-0.458-0.24-0.675-0.345-0.847-0.345c-0.131,0-0.659,0.058-1.802,0.813
			c-1.346,0.891-1.607,1.542-1.592,1.699c0.029,0.31,0.626,0.988,1.629,1.406c4.16,1.729,4.398,10.577,3.779,13.645
			c-0.653,3.293-2.659,3.65-3.499,3.65c-0.189,0-0.514-0.038-0.704-0.083c-0.37,0.008-1.184,0.325-1.816,1.028
			c-0.68,0.767-0.951,1.75-0.817,2.928c0.134,1.154,0.209,1.181,1.078,1.498c1.022,0.373,3.15,1.149,3.524,3.993
			c0.485,3.765-2.906,5.063-4.535,5.686c-0.467,0.179-1.008,0.387-1.406,0.601c0.048,0.062,0.093,0.119,0.134,0.173l0.231,0.3
			c0.634,0.834,0.698,1.966,0.168,2.867c-0.538,0.903-1.556,1.384-2.589,1.248c-2.115-0.299-3.871-0.448-5.229-0.448
			c-2.387,0-2.868,0.466-2.876,0.472c-0.22,0.228-0.19,1.714-0.167,2.514c0.025,1.447,0.066,3.25-0.399,5.177
			c-0.071,0.295-0.198,0.569-0.358,0.819c-0.016,0.296-0.078,0.591-0.187,0.875c-0.347,0.841-0.775,1.646-1.298,2.393
			c-2.32,3.333-3.79,4.918-5.896,4.918c-1.063,0-1.862-0.466-2.384-0.773c-0.493-0.28-0.762-0.437-1.365-0.437
			c-0.497,0-1.112,0.111-1.828,0.337c-1.089,0.343-1.675,0.636-1.97,0.824c0.348,0.563,1.152,1.458,1.672,2.035
			c0.418,0.459,0.835,0.929,1.234,1.407c2.458,2.951,4.973,7.092,2.491,12.86c-1.269,2.948-3.584,3.676-4.969,4.108
			c-0.346,0.106-0.868,0.271-0.98,0.377l0,0c0,0-0.112,0.159-0.168,0.681c-0.266,2.397,0.656,7.325,3.007,9.963
			c0.843,0.949,1.727,1.414,2.696,1.42c0.817,0,1.638,0.076,2.436,0.227c0.44,0.084,0.851,0.282,1.187,0.57
			c0.238,0.048,0.98,0.035,1.5,0.281c2.282,1.086,3.812,2.955,4.2,5.131c0.402,2.258-0.437,4.588-2.373,6.567
			c-1.011,1.038-0.951,1.722-0.933,1.948c0.06,0.717,0.585,1.43,0.98,1.839c0.128-0.007,0.247-0.009,0.373-0.021
			c0.418-0.021,0.896-0.045,1.411-0.045c2.625,0,4.852,0.651,6.806,1.988c0.658,0.444,2.657,1.807,2.619,4.126
			c-0.04,2.542-2.357,4.009-5.036,5.708c-0.622,0.398-1.289,0.82-1.972,1.28c-1.947,1.321-2.607,3.032-2.455,3.829
			c0.03,0.16,0.112,0.578,1.138,0.807c1.336,0.286,3.584-0.318,5.453-0.859c1.522-0.448,2.966-0.87,4.256-0.87
			c2.302,0,3.942,1.442,4.186,3.672c0.29,2.647-0.959,4.121-1.701,4.997c-0.612,0.721-0.795,0.938-0.127,2.695
			c0.534,1.4,1.108,1.922,1.344,1.922c0.376,0,1.133-0.487,1.696-1.284c1.048-1.481,3.047-2.205,6.095-2.205
			c2.156,0,8.69,0.618,10.414,3.36c0.586,0.935,0.66,2.065,0.19,3.039c-0.049,0.16-0.044,0.998,0.515,1.861
			c0.589,0.917,1.525,1.447,2.764,1.577c0.19,0.019,0.362,0.026,0.53,0.026c0.686,0,0.686,0,1.168-0.752
			c0.573-0.897,1.76-2.806,4.673-2.562c3.782,0.346,4.3,3.943,4.551,5.67c0.07,0.494,0.156,1.068,0.276,1.502
			c0.07-0.031,0.137-0.064,0.201-0.093c1.003-0.464,2.384-1.101,4.129-1.101c0.552,0,1.101,0.066,1.645,0.191
			c2.189,0.51,3.719,2.055,4.08,4.119c0.381,2.201-0.611,4.706-2.416,6.331c0.544,0.636,1.205,1.481,1.901,2.608
			c0.034-0.066,0.064-0.133,0.102-0.196c1.208-2.341,2.569-4.987,4.916-6.067c2.096-0.961,3.85-0.666,4.941,0.609
			c1.288,1.498,0.967,3.576,0.653,5.588c-0.097,0.618-0.201,1.236-0.212,1.757c-0.012,0.468,0.021,0.836,0.07,1.159
			c1.809-0.855,3.032-1.363,4.159-1.363c0.343,0.002,0.47-0.033,0.63-0.058c0.47-0.076,0.97-0.144,1.529-0.144
			c2.149,0,4.207,1.024,6.479,3.229c2.187,2.126,2.589,3.522,2.566,5.362c-0.007,0.714-0.015,1.519,1.664,3.889
			c0.131,0.188,0.25,0.355,0.361,0.502c0.914-1.089,2.377-2.393,4.868-2.732c0.999-0.138,1.474-0.27,1.696-0.33
			c0.225-0.061,0.635-0.131,0.87-0.131c0.769,0,1.521,0.353,2.015,0.943C133.844,351.667,134.045,352.289,134.053,352.895z"/>
	</g>
	<g>
		<path fill="#E89F23" d="M183.535,256.402c0,0-30.348-3.03-43.851-6.008c-13.506-2.973-52.365-7.621-64.498-10.644
			c-12.134-3.027-19.195-4.647-25.559-0.899c-6.359,3.751-16.314,5.597-12.733,12.98c3.584,7.392-3.823,4.459,11.548,10.821
			c15.371,6.359,2.857,7.565,22.61,9.968c19.747,2.401,22.601,4.56,40.646,2.928c18.041-1.626,48.731-2.266,64.354-2.336
			c15.613-0.071,33.521-3.037,33.084-3.257C208.697,269.734,223.482,261.626,183.535,256.402z"/>
		<path fill="#3C2517" d="M100.781,278.698h-0.008c-6.202,0-10.664-0.692-16.845-1.651c-3.622-0.561-7.725-1.197-13.189-1.861
			c-11.271-1.375-13.021-2.412-15.15-5.051c-0.895-1.102-2.119-2.609-8.131-5.099c-10.836-4.481-11.967-4.953-11.978-8.589
			c0-0.721,0-1.613-0.91-3.487c-1.104-2.282-1.306-4.438-0.604-6.403c1.357-3.778,5.644-5.746,9.787-7.651
			c1.575-0.722,3.204-1.473,4.565-2.275c2.937-1.732,6.062-2.538,9.833-2.538c4.682,0,10.026,1.246,17.662,3.148
			c6.288,1.571,20.23,3.631,33.714,5.627c12.474,1.845,24.256,3.586,30.713,5.005c13.201,2.912,43.246,5.934,43.548,5.96
			c24.636,3.22,28.979,7.535,30.019,10.935c0.97,3.18-1.261,5.52-2.361,6.522c-0.521,1.229-2.178,1.666-12.789,2.946
			c-5.707,0.688-14.268,1.521-22.598,1.558c-16.202,0.073-46.65,0.753-64.129,2.325
			C107.558,278.516,104.011,278.698,100.781,278.698z M40.646,256.396c1.115,0.695,4.7,2.181,8.784,3.867
			c6.676,2.766,8.62,4.713,10.172,6.623c0.939,1.159,1.562,1.932,11.764,3.172c5.546,0.672,9.695,1.315,13.357,1.889
			c6.173,0.955,10.246,1.589,16.05,1.589h0.008c3.073,0,6.471-0.179,10.686-0.563c19.016-1.707,50.553-2.283,64.57-2.343
			c13.35-0.062,28.396-2.267,31.701-2.95c1.063-0.943,1.138-1.298,1.134-1.384c0-0.039-0.992-4.104-25.674-7.333
			c-1.167-0.115-30.574-3.07-44.073-6.049c-6.274-1.379-18.512-3.192-30.354-4.941c-13.604-2.01-27.673-4.09-34.211-5.717
			c-12.31-3.072-18.411-4.246-23.618-1.179c-1.589,0.939-3.339,1.742-5.032,2.518c-3.029,1.395-6.456,2.972-7.079,4.708
			c-0.086,0.228-0.333,0.917,0.388,2.404C40.624,253.602,40.646,255.346,40.646,256.396z"/>
	</g>
	<g>
		<path fill="#A94F25" d="M67.085,296.564c0,0-9.184-16.191-0.807-17.147c8.378-0.959,9.27-4.813,11.373-9.036
			c2.107-4.219,4.33-5.021,9.926-3.632c5.595,1.397,5.685,0.608,13.894,3.466c8.211,2.866,8.781,0.16,17.4,2.311
			c8.624,2.154,10.694-0.721,14.686,3.666c3.995,4.393,10.299-0.481,11.183,9.578c0.88,10.057-0.213,11.849-1.041,15.018
			c-0.824,3.176,2.227,9.023-7.061,9.412c-9.295,0.398-26.35-0.561-36.654,2.679C89.681,316.116,59.744,305.574,67.085,296.564z"/>
		<path fill="#3C2517" d="M95.253,316.057c-9.978,0-27.456-5.639-31.16-13.426c-0.988-2.083-0.98-4.225-0.003-6.176
			c-1.835-3.538-5.491-11.668-3.126-16.318c0.667-1.312,2.081-2.951,5.021-3.283c6.068-0.697,7.057-2.793,8.698-6.254
			c0.212-0.453,0.432-0.908,0.66-1.373c1.406-2.811,3.466-5.688,8.098-5.688c1.316,0,2.827,0.225,4.76,0.706
			c1.891,0.471,3.114,0.678,4.293,0.88c2.224,0.38,4.327,0.736,9.829,2.652c4.423,1.537,6.149,1.312,8.071,1.267
			c2.145-0.049,4.521-0.17,9.104,0.974c3.201,0.801,5.431,0.848,7.226,0.883c3.017,0.062,5.62,0.117,8.746,3.552
			c0.877,0.97,1.962,1.206,3.655,1.513c2.974,0.547,7.464,1.361,8.188,9.575c0.806,9.192-0.007,12.01-0.794,14.74
			c-0.104,0.376-0.217,0.757-0.318,1.157c-0.107,0.401-0.089,1.162-0.066,1.896c0.071,2.935,0.228,9.04-9.388,9.444
			c-2.336,0.1-5.163,0.119-8.252,0.135c-9.071,0.049-20.369,0.111-27.735,2.43C99.244,315.816,97.391,316.057,95.253,316.057z
			 M83.44,268.706c-1.283,0-2.156,0.188-3.477,2.83c-0.217,0.429-0.418,0.853-0.615,1.271c-1.802,3.819-3.854,8.149-12.771,9.174
			c-0.802,0.092-0.937,0.354-1.011,0.494c-0.988,1.943,1.152,8.197,3.764,12.813c0.522,0.928,0.426,2.082-0.243,2.907
			c-0.727,0.893-0.667,1.508-0.327,2.223c2.279,4.797,16.643,10.477,26.493,10.477c1.594,0,2.962-0.166,3.954-0.479
			c8.112-2.551,19.836-2.614,29.258-2.669c3.014-0.017,5.778-0.029,8.064-0.128c4.54-0.191,4.514-1.271,4.442-4.156
			c-0.03-1.091-0.06-2.219,0.228-3.325c0.116-0.444,0.238-0.864,0.358-1.286c0.686-2.377,1.331-4.625,0.611-12.857
			c-0.381-4.29-1.357-4.469-3.969-4.943c-1.876-0.345-4.454-0.811-6.553-3.123c-1.627-1.789-2.418-1.81-5.028-1.859
			c-1.944-0.041-4.607-0.096-8.37-1.039c-3.983-0.989-5.92-0.864-7.729-0.818c-2.521,0.059-4.988,0.157-9.899-1.554
			c-5.092-1.772-6.897-2.082-8.99-2.438c-1.219-0.209-2.599-0.44-4.681-0.961C85.458,268.883,84.31,268.706,83.44,268.706z"/>
	</g>
	<g>
		<path fill="#F3B69B" d="M93.238,241.549c-23.83-5.662-46.128,2.292-49.806,17.762c-3.679,15.476,12.655,32.606,36.49,38.266
			c23.827,5.669,46.129-2.278,49.81-17.747C133.407,264.352,117.07,247.218,93.238,241.549z M82.829,286.359
			c-13.868-3.303-23.574-12.438-21.679-20.416c1.897-7.979,14.682-11.775,28.549-8.479c13.868,3.3,23.573,12.438,21.679,20.419
			C109.483,285.859,96.7,289.654,82.829,286.359z"/>
		<path fill="#3C2517" d="M95.175,301.986c-0.003,0-0.003,0-0.003,0c-5.219,0-10.553-0.639-15.846-1.899
			c-12.003-2.848-22.601-8.594-29.832-16.179c-7.517-7.883-10.563-16.828-8.575-25.19c3.065-12.909,17.975-21.577,37.087-21.577
			c5.215,0,10.541,0.64,15.83,1.895c25.177,5.995,42.406,24.558,38.408,41.387C129.174,293.322,114.279,301.986,95.175,301.986z
			 M78.006,242.303c-16.673,0-29.557,7.077-32.063,17.608c-1.57,6.601,1.019,13.858,7.289,20.432
			c6.55,6.867,16.24,12.097,27.289,14.722c4.904,1.168,9.835,1.756,14.651,1.756c0,0,0,0,0.003,0
			c16.666,0,29.542-7.066,32.044-17.592c3.339-14.06-12.171-29.838-34.58-35.167C87.741,242.897,82.813,242.303,78.006,242.303z
			 M92.668,290.131c-3.412,0-6.923-0.422-10.44-1.26c-15.486-3.688-25.853-14.021-23.592-23.528
			c1.687-7.077,10.02-11.651,21.224-11.651c3.417,0,6.927,0.426,10.433,1.257c15.491,3.688,25.853,14.021,23.596,23.528
			C112.206,285.557,103.877,290.131,92.668,290.131z M79.859,258.855c-8.594,0-15.105,3.09-16.198,7.684
			c-1.537,6.466,7.515,14.395,19.764,17.309c3.123,0.74,6.233,1.118,9.243,1.118c8.599,0,15.104-3.087,16.196-7.681
			c1.541-6.471-7.512-14.395-19.766-17.311C85.98,259.234,82.873,258.855,79.859,258.855z"/>
	</g>
	<g>
		<path fill="#C03526" d="M176.09,301.389c5.106,14.965-4.835,31.901-22.204,37.826c-17.371,5.938-35.596-1.388-40.702-16.352
			c-5.109-14.965,4.83-31.901,22.204-37.828C152.755,279.104,170.983,286.426,176.09,301.389z"/>
		<path fill="#3C2517" d="M141.643,343.859c-14.592,0-26.726-7.911-30.905-20.158c-2.717-7.963-1.69-16.643,2.891-24.447
			c4.505-7.678,11.938-13.595,20.924-16.663c4.275-1.457,8.669-2.198,13.066-2.198c14.603,0,26.736,7.914,30.918,20.162
			c2.716,7.965,1.686,16.643-2.891,24.446c-4.509,7.677-11.943,13.593-20.929,16.66
			C150.449,343.119,146.048,343.859,141.643,343.859z M147.618,285.557c-3.83,0-7.665,0.646-11.398,1.922
			c-7.814,2.668-14.257,7.776-18.136,14.39c-3.811,6.485-4.684,13.647-2.461,20.159c3.457,10.127,13.67,16.668,26.02,16.668
			c3.835,0,7.673-0.647,11.41-1.922c7.814-2.666,14.256-7.777,18.135-14.389c3.81-6.484,4.683-13.646,2.459-20.162
			C170.188,292.1,159.976,285.557,147.618,285.557z"/>
	</g>
	<g>
		<path fill="#F3B69B" d="M184.05,268.43c-19.009-4.52-37.401,4.359-41.075,19.842c-3.678,15.465,8.75,31.664,27.763,36.182
			c19.005,4.527,37.396-4.355,41.07-19.825C215.485,289.152,203.058,272.95,184.05,268.43z M173.594,313.225
			c-11.062-2.631-18.493-11.23-16.598-19.209c1.897-7.979,12.405-12.32,23.469-9.684c11.06,2.628,18.493,11.229,16.595,19.207
			C195.16,311.516,184.657,315.855,173.594,313.225z"/>
		<path fill="#3C2517" d="M180.677,328.221L180.677,328.221c-3.513,0-7.057-0.424-10.54-1.255
			c-9.77-2.319-18.236-7.62-23.838-14.923c-5.727-7.469-7.796-16.12-5.838-24.375c3.219-13.54,17.061-23.001,33.655-23.001
			c3.506,0,7.05,0.421,10.533,1.247c20.361,4.843,33.671,22.479,29.672,39.312C211.103,318.764,197.269,328.221,180.677,328.221z
			 M174.116,269.83c-14.192,0-25.969,7.829-28.631,19.037c-1.593,6.712,0.149,13.82,4.912,20.031
			c4.882,6.367,12.316,10.998,20.933,13.047c3.096,0.734,6.239,1.109,9.344,1.109c14.188,0,25.96-7.82,28.62-19.022
			c3.342-14.063-8.251-28.909-25.842-33.089C180.363,270.206,177.22,269.83,174.116,269.83z M180.039,316.574
			c-2.335,0-4.704-0.279-7.046-0.838c-12.425-2.957-20.728-12.967-18.508-22.319c1.771-7.44,9.616-12.44,19.526-12.44
			c2.335,0,4.712,0.284,7.05,0.844c12.429,2.951,20.731,12.964,18.513,22.315C197.802,311.577,189.949,316.574,180.039,316.574z
			 M174.012,286.143c-7.471,0-13.302,3.403-14.506,8.469c-1.559,6.582,5.024,13.804,14.682,16.102
			c1.954,0.464,3.92,0.697,5.852,0.697c7.472,0,13.305-3.406,14.51-8.467c1.567-6.582-5.021-13.807-14.681-16.101
			C177.913,286.377,175.943,286.143,174.012,286.143z"/>
	</g>
	<g>
		<path fill="#E89F23" d="M202.028,204.572c0,0-30.352-3.031-43.851-6.004c-13.502-2.977-52.369-7.624-64.503-10.651
			c-12.129-3.027-19.19-4.649-25.55-0.895c-6.366,3.752-16.318,5.595-12.737,12.986c3.58,7.386-3.827,4.456,11.544,10.815
			c15.371,6.357,2.86,7.566,22.611,9.97c19.746,2.408,22.604,4.558,40.645,2.928c18.046-1.634,48.729-2.266,64.351-2.34
			c15.621-0.069,33.531-3.038,33.089-3.256C227.186,217.911,241.973,209.796,202.028,204.572z"/>
		<path fill="#3C2517" d="M119.268,226.874h-0.005c-6.206,0-10.675-0.694-16.859-1.656c-3.617-0.56-7.713-1.196-13.174-1.863
			c-11.268-1.371-13.014-2.414-15.147-5.044c-0.895-1.103-2.115-2.608-8.139-5.097c-10.828-4.486-11.962-4.952-11.97-8.592
			c0-0.72,0-1.615-0.906-3.483c-1.111-2.285-1.317-4.441-0.607-6.408c1.354-3.779,5.64-5.748,9.783-7.654
			c1.574-0.723,3.2-1.472,4.569-2.277c2.931-1.731,6.057-2.539,9.828-2.539c4.688,0,9.803,1.192,17.661,3.154
			c6.293,1.568,20.231,3.631,33.708,5.623c12.48,1.844,24.267,3.588,30.721,5.011c13.199,2.908,43.249,5.925,43.551,5.955
			c24.633,3.221,28.979,7.536,30.019,10.934c0.97,3.178-1.257,5.515-2.364,6.524c-0.522,1.231-2.183,1.664-12.786,2.949
			c-5.715,0.69-14.268,1.52-22.601,1.555c-13.958,0.062-45.319,0.63-64.126,2.331C126.045,226.689,122.501,226.874,119.268,226.874z
			 M59.14,204.57c1.119,0.696,4.696,2.178,8.776,3.87c6.681,2.762,8.628,4.705,10.175,6.616c0.94,1.164,1.564,1.931,11.766,3.175
			c5.538,0.673,9.686,1.316,13.342,1.885c6.177,0.958,10.258,1.591,16.064,1.591h0.005c3.073,0,6.471-0.179,10.689-0.559
			c18.981-1.712,50.537-2.285,64.573-2.347c13.339-0.059,28.393-2.27,31.701-2.952c1.096-0.972,1.134-1.321,1.134-1.382
			c-0.004-0.041-0.898-4.097-25.674-7.333c-1.167-0.118-30.578-3.072-44.073-6.043c-6.277-1.384-18.522-3.194-30.365-4.946
			c-13.604-2.012-27.665-4.092-34.2-5.724c-12.323-3.075-18.423-4.245-23.618-1.175c-1.589,0.938-3.343,1.742-5.031,2.52
			c-3.025,1.393-6.465,2.971-7.084,4.705c-0.078,0.23-0.332,0.921,0.392,2.412C59.117,201.778,59.136,203.521,59.14,204.57z"/>
	</g>
	<g>
		<path fill="#E89F23" d="M232.147,289.562c0,0-30.333-3.102-43.827-6.076c-13.506-2.982-52.354-7.705-64.48-10.734
			c-12.138-3.025-19.198-4.645-25.535-0.975c-6.345,3.68-16.286,5.463-12.679,12.75c3.604,7.291-3.801,4.38,11.574,10.697
			c15.383,6.326,2.883,7.475,22.63,9.908c19.739,2.441,22.596,4.579,40.62,3.039c18.019-1.543,48.676-2.062,64.278-2.068
			c15.605-0.016,33.487-2.881,33.043-3.097C257.336,302.796,272.072,294.848,232.147,289.562z"/>
		<path fill="#3C2517" d="M149.853,311.275c0,0,0,0-0.004,0c-6.352,0-10.88-0.711-17.139-1.688
			c-3.626-0.567-7.732-1.214-13.196-1.889c-11.254-1.39-13.007-2.421-15.145-5.021c-0.895-1.091-2.122-2.584-8.149-5.063
			c-10.836-4.449-11.97-4.915-11.988-8.526c-0.008-0.7-0.012-1.575-0.917-3.415c-1.12-2.256-1.333-4.395-0.635-6.349
			c1.343-3.745,5.632-5.679,9.779-7.55c1.567-0.709,3.193-1.441,4.548-2.228c2.905-1.682,5.993-2.466,9.712-2.466
			c4.696,0,10.075,1.253,17.744,3.169c6.296,1.567,20.239,3.653,33.715,5.666c12.469,1.864,24.245,3.625,30.697,5.048
			c13.197,2.911,43.234,5.997,43.533,6.027c24.693,3.271,29.02,7.57,30.033,10.947c0.66,2.199-0.135,4.355-2.363,6.412
			c-0.521,1.226-2.194,1.651-12.779,2.875c-5.703,0.661-14.245,1.45-22.57,1.457c-16.155,0.01-46.539,0.562-64.062,2.062
			C156.496,311.102,152.96,311.275,149.853,311.275z M89.394,288.997c1.127,0.69,4.707,2.164,8.787,3.842
			c6.682,2.744,8.624,4.671,10.18,6.562c0.947,1.152,1.574,1.912,11.783,3.174c5.551,0.684,9.706,1.337,13.365,1.908
			c6.259,0.98,10.387,1.627,16.34,1.627c0.004,0,0.004,0,0.004,0c2.962,0,6.353-0.166,10.377-0.508
			c17.677-1.516,48.255-2.076,64.495-2.08c13.35-0.014,28.378-2.135,31.675-2.803c0.925-0.807,1.086-1.16,1.101-1.299
			c-0.012-0.031-1.037-4.035-25.691-7.299c-1.165-0.116-30.561-3.139-44.048-6.116c-6.274-1.385-18.508-3.21-30.344-4.981
			c-13.599-2.032-27.666-4.133-34.203-5.768c-12.235-3.049-18.453-4.23-23.615-1.244c-1.589,0.922-3.331,1.711-5.017,2.467
			c-3.018,1.361-6.438,2.901-7.039,4.584c-0.078,0.217-0.312,0.879,0.399,2.32C89.244,286.023,89.383,287.668,89.394,288.997z"/>
	</g>
	<g>
		<path fill="#E89F23" d="M270.532,253.583c0,0-30.328-3.094-43.835-6.072c-13.498-2.983-52.343-7.705-64.477-10.732
			c-12.129-3.029-19.187-4.653-25.531-0.973c-6.341,3.668-16.285,5.456-12.678,12.748c3.606,7.291-3.801,4.375,11.574,10.701
			c15.378,6.322,2.887,7.468,22.625,9.905c19.743,2.438,22.601,4.57,40.62,3.037c18.026-1.543,48.68-2.059,64.281-2.072
			c15.606-0.016,33.492-2.869,33.048-3.089C295.721,266.816,310.461,258.876,270.532,253.583z"/>
		<path fill="#3C2517" d="M188.242,275.296h-0.005c-6.363,0-10.891-0.711-17.161-1.69c-3.618-0.565-7.722-1.209-13.186-1.883
			c-11.242-1.392-12.995-2.423-15.133-5.022c-0.898-1.089-2.122-2.581-8.153-5.06c-10.836-4.455-11.97-4.922-11.991-8.529
			c-0.005-0.698-0.008-1.575-0.918-3.412c-1.115-2.262-1.328-4.397-0.63-6.351c1.342-3.753,5.632-5.683,9.779-7.556
			c1.571-0.703,3.192-1.436,4.551-2.221c2.901-1.686,5.985-2.469,9.709-2.469c4.699,0,9.837,1.203,17.743,3.174
			c6.288,1.566,20.213,3.644,33.675,5.659c12.488,1.867,24.278,3.625,30.734,5.054c13.205,2.915,43.234,5.995,43.54,6.022
			c24.688,3.274,29.012,7.567,30.034,10.946c0.943,3.14-1.27,5.433-2.368,6.427c-0.526,1.221-2.192,1.643-12.778,2.869
			c-5.699,0.658-14.242,1.445-22.566,1.454c-13.95,0.009-45.285,0.458-64.065,2.062
			C194.881,275.123,191.345,275.296,188.242,275.296z M127.778,253.021c1.126,0.692,4.704,2.162,8.791,3.846
			c6.678,2.74,8.625,4.662,10.177,6.555c0.951,1.151,1.578,1.914,11.782,3.171c5.543,0.687,9.688,1.339,13.351,1.911
			c6.258,0.98,10.399,1.627,16.358,1.627h0.005c2.961,0,6.352-0.166,10.373-0.508c18.947-1.616,50.474-2.071,64.494-2.08
			c13.356-0.014,28.375-2.133,31.671-2.795c0.934-0.814,1.09-1.167,1.104-1.307c-0.008-0.026-1.037-4.026-25.691-7.299
			c-1.164-0.117-30.557-3.135-44.051-6.111c-6.277-1.388-18.535-3.218-30.381-4.988c-13.585-2.03-27.636-4.132-34.167-5.761
			c-12.241-3.055-18.456-4.232-23.614-1.242c-1.582,0.917-3.327,1.703-5.013,2.463c-3.019,1.358-6.439,2.9-7.039,4.584
			c-0.078,0.215-0.317,0.878,0.398,2.32C127.634,250.048,127.768,251.691,127.778,253.021z"/>
	</g>
	<g>
		
			<path fill="#C03526" stroke="#3C2517" stroke-width="4.5869" stroke-linecap="round" stroke-linejoin="round" stroke-miterlimit="10" d="
			M151.77,145.392"/>
	</g>
	<g>
		<path fill="#C03526" d="M165.369,158.882c0,0-18.81-8.9-30.242,7.009c-11.433,15.91-15.696,14.815-6.072,24.331
			c9.623,9.519,0.771,14.815,15.752,19.232c14.979,4.418,6.829,2.113,31.91-0.918c25.076-3.032,58.776-7.193,40.786-22.091
			C199.51,171.549,189.573,157.794,165.369,158.882z"/>
		<path fill="#3C2517" d="M155.287,214.494L155.287,214.494c-2.521,0-4.945-0.716-10.805-2.441l-0.407-0.123
			c-9.408-2.773-10.881-6.19-12.048-11.085c-0.619-2.605-1.269-5.301-4.789-8.786c-8.702-8.605-7.222-11.277-0.754-19.219
			c1.769-2.172,3.977-4.878,6.546-8.456c4.969-6.912,12.045-10.565,20.459-10.565c5.859,0,10.694,1.768,12.361,2.46
			c20.508-0.744,31.519,9.034,44.338,20.414c2.835,2.52,5.771,5.124,8.96,7.764c4.871,4.034,6.799,7.934,5.725,11.595
			c-2.606,8.894-22.335,11.959-47.851,15.048c-8.587,1.039-13.189,1.981-16.24,2.605C158.47,214.181,156.94,214.494,155.287,214.494
			z M153.489,158.982c-6.78,0-12.253,2.831-16.267,8.413c-2.663,3.704-4.919,6.479-6.735,8.707
			c-5.372,6.594-5.372,6.594,0.384,12.286c4.572,4.522,5.502,8.415,6.181,11.255c0.798,3.352,1.242,5.198,8.486,7.335l0.405,0.119
			c5.353,1.58,7.564,2.23,9.344,2.23l0,0c1.126,0,2.38-0.255,4.458-0.681c3.129-0.642,7.858-1.611,16.658-2.674
			c14.558-1.762,41.656-5.039,43.514-11.378c0.425-1.451-1.019-3.637-4.066-6.16c-3.256-2.699-6.222-5.333-9.094-7.878
			c-12.629-11.218-22.484-19.942-41.271-19.096c-0.425,0.022-0.843-0.065-1.224-0.246
			C164.217,161.194,159.416,158.982,153.489,158.982z"/>
	</g>
	<g>
		<path fill="#AD5626" d="M172.549,180.678c0,0-40.984-9.744-51.727-12.905c-10.743-3.164-37.255-11.13-25.792,2.764
			c11.461,13.891-3.279,18.586,20.503,26.593c23.782,8.016,39.299,6.607,48.276,4.974c8.982-1.636,30.493-4.249,20.604-11.386
			C174.537,183.582,172.549,180.678,172.549,180.678z"/>
		<path fill="#3C2517" d="M149.894,205.949L149.894,205.949c-10.802,0-22.641-2.143-35.181-6.373
			c-14.823-4.987-16.285-9.286-16.935-15.769c-0.332-3.295-0.675-6.702-4.736-11.63c-1.974-2.391-4.432-5.927-2.974-9.015
			c1.474-3.125,5.637-3.125,7.006-3.125c6.631,0,17.508,3.203,24.002,5.119l0.477,0.14c10.556,3.105,51.184,12.771,51.594,12.871
			c0.627,0.147,1.167,0.524,1.532,1.051l0,0c0,0,2.156,2.837,11.25,9.405c2.857,2.061,4.028,4.273,3.492,6.573
			c-1.165,5.009-9.858,6.852-22.011,8.905c-1.142,0.196-2.208,0.375-3.138,0.544C159.446,205.521,154.743,205.949,149.894,205.949z
			 M94.851,165.454c0.134,0.46,0.593,1.525,2.171,3.438c5.065,6.138,5.542,10.911,5.894,14.398
			c0.443,4.431,0.712,7.105,13.442,11.391c12.011,4.048,23.298,6.1,33.536,6.1l0,0c4.599,0,8.874-0.386,13.458-1.22
			c0.943-0.171,2.025-0.355,3.2-0.554c4.435-0.75,16.035-2.711,17.755-4.897c-0.142-0.214-0.507-0.656-1.398-1.302
			c-7.367-5.321-10.545-8.428-11.791-9.817c-6.035-1.44-41.056-9.81-51.022-12.742l-0.481-0.142
			c-5.818-1.716-16.65-4.908-22.539-4.908C95.836,165.201,95.172,165.346,94.851,165.454z"/>
	</g>
	<g>
		<path fill="#AD5626" d="M85.458,239.58c0,0,41.041,9.492,51.746,12.818c10.702,3.332,37.106,11.771,26.666-6.348
			c-10.434-18.111,5.095-26.046-18.504-34.817c-23.593-8.765-39.612-5.306-48.956-2.167c-9.345,3.148-31.616,8.863-22.167,17.779
			C83.694,235.756,85.458,239.58,85.458,239.58z"/>
		<path fill="#3C2517" d="M159.387,259.868c-0.004,0-0.004,0-0.004,0c-6.882,0-16.639-3.037-22.469-4.854l-0.479-0.146
			c-10.488-3.264-51.148-12.676-51.556-12.769c-0.779-0.182-1.432-0.713-1.764-1.435c0,0-1.902-3.697-10.646-11.94
			c-3.167-2.99-3.347-5.765-2.937-7.563c1.406-6.19,11.149-9.765,22.779-13.478c1.194-0.382,2.307-0.735,3.269-1.061
			c4.509-1.517,11.614-3.529,21.256-3.529c9.307,0,19.206,1.924,29.427,5.722c14.801,5.501,15.904,11.125,15.961,19.73
			c0.029,4.497,0.062,9.595,3.883,16.221c2.856,4.958,3.469,8.705,1.88,11.456C166.593,258.641,163.698,259.868,159.387,259.868z
			 M87.122,237.315c6.699,1.554,41.021,9.564,50.851,12.621l0.474,0.147c5.55,1.729,14.842,4.621,20.937,4.621h0.004
			c2.588,0,3.834-0.554,4.133-1.074c0.146-0.25,0.738-1.731-1.888-6.287c-4.494-7.808-4.536-13.884-4.573-18.767
			c-0.041-6.619-0.062-10.266-12.592-14.919c-9.646-3.583-18.938-5.403-27.629-5.403c-8.884,0-15.445,1.865-19.607,3.262
			c-0.989,0.332-2.123,0.693-3.347,1.085c-5.99,1.912-18.448,5.887-19.313,9.701c-0.164,0.711,0.324,1.604,1.444,2.664
			C82.975,231.527,85.946,235.484,87.122,237.315z"/>
	</g>
	<g>
		<path fill="#A94F25" d="M247.489,217.573c0,0-77.003,1.654-97.469,1.498c-20.463-0.159-71.037-0.706-44.395,9.707
			c26.651,10.409,2.708,18.988,48.467,20.323c45.761,1.341,72.59-4.251,87.73-8.289c15.14-4.035,52.032-12.426,31.272-16.691
			C252.334,219.861,247.489,217.573,247.489,217.573z"/>
		<path fill="#3C2517" d="M167.63,251.884L167.63,251.884c-4.424,0-9.004-0.063-13.61-0.2c-27.523-0.802-31.142-4.237-35.17-10.241
			c-2.015-3.001-4.302-6.407-14.159-10.262c-5.17-2.02-9.862-4.401-9.161-8.122c0.687-3.627,4.391-6.632,42.984-6.632
			c3.928,0,7.583,0.028,10.646,0.054l3.99,0.017c23.865,0,93.582-1.495,94.279-1.509c0.403,0.009,0.803,0.076,1.156,0.249
			c0.033,0.013,5.144,2.273,25.028,6.352c4.027,0.828,8.16,2.141,8.246,5.601c0.127,5.017-8.807,8.221-34.021,14.725
			c-1.958,0.503-3.771,0.972-5.35,1.39C220.846,249.082,196.362,251.884,167.63,251.884z M101.535,224
			c0.847,0.537,2.364,1.326,5.031,2.372c11.369,4.443,14.252,8.74,16.572,12.192c2.801,4.177,4.826,7.194,31.029,7.958
			c4.559,0.134,9.087,0.202,13.462,0.202c28.27,0,52.324-2.749,73.529-8.404c1.589-0.423,3.416-0.894,5.39-1.402
			c7.699-1.988,24.798-6.399,29.328-9.368c-0.659-0.253-1.701-0.569-3.301-0.899c-17.187-3.525-23.704-5.757-25.572-6.486
			c-6.573,0.142-71.048,1.5-93.854,1.5l-4.027-0.015c-3.056-0.026-6.699-0.054-10.608-0.054
			C112.996,221.594,104.407,222.987,101.535,224z"/>
	</g>
	<g>
		<path fill="#F3B69B" d="M168.197,185.842c-19.001-4.515-37.396,4.364-41.075,19.836c-3.675,15.47,8.755,31.68,27.759,36.194
			c19.008,4.519,37.396-4.36,41.074-19.831C199.633,206.568,187.205,190.363,168.197,185.842z M157.741,230.639
			c-11.059-2.633-18.488-11.233-16.598-19.213c1.902-7.977,12.41-12.309,23.469-9.682c11.06,2.63,18.494,11.231,16.595,19.206
			C179.315,228.929,168.806,233.272,157.741,230.639z"/>
		<path fill="#3C2517" d="M164.813,245.63L164.813,245.63c-3.506,0-7.046-0.422-10.53-1.247
			c-9.769-2.321-18.231-7.624-23.834-14.931c-5.725-7.463-7.8-16.119-5.837-24.372c3.218-13.542,17.057-22.997,33.659-22.997
			c3.502,0,7.042,0.418,10.521,1.244c20.359,4.843,33.675,22.475,29.676,39.306C195.251,236.174,181.411,245.63,164.813,245.63z
			 M158.271,187.248c-14.196,0-25.973,7.824-28.636,19.029c-1.597,6.712,0.146,13.827,4.908,20.033
			c4.884,6.368,12.317,11,20.934,13.046c3.092,0.739,6.232,1.11,9.336,1.11c14.196,0,25.969-7.826,28.632-19.027
			c3.338-14.058-8.255-28.901-25.845-33.085C164.512,187.619,161.371,187.248,158.271,187.248z M164.19,233.988
			c-2.334,0-4.707-0.281-7.049-0.837c-12.426-2.956-20.729-12.971-18.509-22.32c1.768-7.438,9.619-12.436,19.534-12.436
			c2.334,0,4.704,0.281,7.046,0.837c5.867,1.395,11.022,4.387,14.505,8.423c3.697,4.272,5.119,9.207,4,13.896
			C181.952,228.99,174.105,233.988,164.19,233.988z M158.167,203.561c-7.475,0-13.305,3.4-14.514,8.461
			c-1.56,6.582,5.028,13.807,14.681,16.104c1.955,0.462,3.921,0.7,5.856,0.7c7.472,0,13.301-3.404,14.503-8.471
			c0.719-3.029-0.299-6.341-2.88-9.323c-2.783-3.223-6.972-5.627-11.798-6.773C162.065,203.794,160.099,203.561,158.167,203.561z"/>
	</g>
	<g>
		<path fill="#943E20" d="M191.886,222.625c0,0-7.023-3.112-13.883,3.999c-6.859,7.106-7.736,9.26-13.723,8.784
			c-5.987-0.476-17.558-0.31-19.631,2.561c-2.074,2.876-7.662,3.514-12.525,5.355c-4.871,1.836-2.323-1.593-9.903,1.597
			c-7.575,3.197-11.966,4.482-12.842,9.345c-0.876,4.871-5.345,5.113-8.62,5.995c-3.271,0.874-10.053,2.239-6.535,9.892
			c3.51,7.668,7.181,6.545,17.157,7.339c9.982,0.793,13.507,2.694,21.84,4.096c8.337,1.397,9.694,2.759,20.224-4.112
			c10.53-6.871,7.103-10.777,16.599-9.428c9.497,1.354,3.353,2.875,16.841,1.831c13.484-1.046,18.304,6.835,21.88-4.767
			c3.574-11.605-0.261-13.92,4.207-16.875c4.473-2.957,5.424-6.779,11.329-8.704c5.907-1.917,3.596,4.625,13.808-2.323
			c10.216-6.945,17.397-9.903,11.888-12.294c-5.506-2.393-1.118,0.401-8.938-2.234c-7.825-2.628-15.173-13.948-23.547-6.207
			c-8.382,7.742-14.842,9.179-16.763,8.704C198.838,224.697,191.886,222.625,191.886,222.625z"/>
		<path fill="#3C2517" d="M141.043,285.305c-1.813,0-3.544-0.316-5.733-0.72c-0.769-0.146-1.6-0.297-2.514-0.451
			c-3.29-0.554-5.834-1.181-8.293-1.782c-3.797-0.932-7.381-1.812-13.323-2.283c-1.487-0.118-2.831-0.195-4.054-0.262
			c-6.998-0.395-11.622-0.656-15.252-8.576c-1.417-3.09-1.6-5.801-0.533-8.055c1.683-3.561,5.822-4.643,8.295-5.294l0.455-0.118
			c0.501-0.131,1.026-0.252,1.567-0.382c3.36-0.77,4.771-1.309,5.181-3.571c1.032-5.749,5.677-7.666,12.107-10.326l2.271-0.942
			c2.679-1.128,4.535-1.632,6.013-1.632c0.913,0,1.566,0.187,1.999,0.312c0.288,0.08,0.347,0.09,0.437,0.09
			c0.135,0,0.56-0.036,1.54-0.408c1.563-0.587,3.152-1.052,4.682-1.496c2.819-0.818,5.736-1.665,6.666-2.951
			c0.686-0.953,2.771-3.838,16.165-3.838c1.991,0,4.04,0.076,5.767,0.21c0.447,0.036,0.865,0.058,1.253,0.058
			c2.742,0,3.593-0.818,7.654-5.151c0.806-0.861,1.712-1.831,2.753-2.911c4.356-4.517,8.869-5.463,11.883-5.463
			c2.396,0,4.142,0.595,4.715,0.82c0.926,0.276,6.931,2.059,8.635,2.484c0,0,0.005,0,0.008,0c2.062,0,7.448-1.697,14.372-8.092
			c2.406-2.225,5.032-3.354,7.808-3.354c4.308,0,8.067,2.625,11.704,5.163c2.323,1.613,4.513,3.141,6.609,3.847
			c2.947,0.993,3.85,1.101,4.095,1.101c0.381-0.045,0.594-0.067,0.844-0.067c0.97,0,1.955,0.296,4.208,1.275
			c2.154,0.94,3.313,2.259,3.449,3.932c0.242,3.122-3.008,5.194-8.912,8.95c-1.798,1.147-3.834,2.441-6.001,3.918
			c-3.846,2.615-6.438,3.729-8.665,3.729c-1.548,0-2.606-0.537-3.383-0.93c-1.093-0.556-1.347-0.503-2.417-0.156
			c-2.958,0.961-4.342,2.442-6.095,4.309c-1.224,1.301-2.604,2.772-4.607,4.094c-1.245,0.825-1.249,1.033-1.294,3.573
			c-0.037,2.449-0.097,6.145-1.876,11.91c-1.253,4.076-3.241,8.24-8.481,8.24c-1.511,0-3.078-0.325-4.89-0.7
			c-2.91-0.601-6.309-1.312-10.77-0.959c-8.583,0.665-9.827,0.333-12.002-0.538c-0.93-0.375-2.09-0.842-5.406-1.312
			c-1.13-0.16-2.047-0.238-2.786-0.238c-1.95,0-2.297,0.387-3.946,2.246c-1.547,1.748-3.67,4.145-8.086,7.025
			C148.361,283.875,144.877,285.305,141.043,285.305z M127.23,246.077c-0.5,0-1.601,0.211-4.006,1.226l-2.302,0.959
			c-6.293,2.597-8.492,3.64-9.001,6.466c-1.056,5.842-5.899,6.953-9.108,7.689c-0.478,0.111-0.939,0.217-1.383,0.332l-0.485,0.131
			c-1.704,0.447-4.282,1.118-4.935,2.506c-0.478,1.004,0.041,2.562,0.56,3.691c2.331,5.094,3.968,5.184,10.846,5.568
			c1.262,0.07,2.642,0.15,4.171,0.272c6.359,0.505,10.143,1.435,14.147,2.414c2.365,0.582,4.812,1.185,7.915,1.709
			c0.947,0.156,1.806,0.313,2.596,0.462c2.004,0.367,3.455,0.637,4.798,0.637c2.331,0,4.774-0.771,10.992-4.828
			c3.838-2.506,5.617-4.516,7.046-6.129c1.895-2.14,3.531-3.985,7.81-3.985c0.989,0,2.138,0.092,3.515,0.292
			c3.936,0.559,5.479,1.179,6.602,1.634c0.889,0.354,1.294,0.521,3.22,0.521c1.42,0,3.472-0.108,6.46-0.34
			c5.181-0.402,9.164,0.42,12.208,1.049c1.54,0.319,2.868,0.595,3.85,0.595c0.951,0,2.138,0,3.55-4.599
			c1.56-5.064,1.608-8.187,1.646-10.468c0.045-2.938,0.09-5.474,3.61-7.801c1.5-0.994,2.559-2.122,3.682-3.318
			c1.896-2.023,4.048-4.312,8.27-5.689c1.026-0.332,1.954-0.492,2.832-0.492c1.629,0,2.719,0.554,3.517,0.957
			c0.585,0.296,0.768,0.37,1.048,0.37c0.593,0,2.13-0.368,5.76-2.835c2.219-1.508,4.296-2.831,6.131-4.001
			c2.18-1.384,4.566-2.908,5.819-3.941c-1.388-0.595-1.786-0.69-1.884-0.703c-0.167,0.041-0.413,0.071-0.75,0.071
			c-0.868,0-2.17-0.166-5.739-1.369c-2.802-0.94-5.401-2.751-7.916-4.506c-3.121-2.178-6.071-4.233-8.753-4.233
			c-1.474,0-2.843,0.63-4.302,1.979c-7.561,6.984-14.106,9.472-17.714,9.472c-0.522,0-1.003-0.052-1.424-0.161
			c-1.947-0.487-8.688-2.497-8.975-2.579c-0.104-0.032-0.209-0.071-0.306-0.115l0,0c0,0-1.138-0.458-2.817-0.458
			c-2.931,0-5.677,1.311-8.164,3.887c-1.025,1.057-1.91,2.011-2.705,2.855c-4.658,4.976-6.646,7.214-13.084,6.712
			c-1.593-0.125-3.494-0.196-5.356-0.196c-7.512,0-11.354,1.061-12.007,1.729c-1.939,2.695-5.554,3.743-9.385,4.855
			c-1.433,0.417-2.92,0.847-4.293,1.368c-2.503,0.943-4.285,0.716-5.222,0.447C127.506,246.103,127.409,246.077,127.23,246.077z"/>
	</g>
	<g>
		<path fill="#A94F25" d="M209.036,259.938c0,0-13.33-2.305-21.07-2.545c-7.744-0.234-7.263,0.565-16.043,3.123
			c-8.772,2.559-8.783-5.588-15.244,1.285c-6.457,6.864-8.135,10.854-6.219,12.69c1.918,1.838-3.346,9.339,4.793,12.049
			c8.144,2.707,8.468,1.433,22.508-0.491c14.047-1.919,11.253,1.117,20.112-4.476c8.857-5.595,4.304-10.456,13.245-8.224
			C220.054,275.578,221.036,261.695,209.036,259.938z"/>
		<path fill="#3C2517" d="M162.814,290.676c-2.447,0-4.637-0.439-8.374-1.685c-7.438-2.476-6.639-8.552-6.259-11.476
			c0.067-0.496,0.148-1.134,0.153-1.509c-3.675-4.147,1.492-10.696,6.464-15.975c2.364-2.519,4.375-3.646,6.509-3.646
			c1.503,0,2.723,0.576,3.798,1.082c1.118,0.524,2.08,0.978,3.513,0.978c0.775,0,1.648-0.133,2.585-0.407
			c2.216-0.647,3.826-1.181,5.136-1.608c3.901-1.283,5.394-1.822,11.705-1.617c7.829,0.239,20.881,2.482,21.436,2.578
			c7.685,1.127,11.377,6.728,11.016,11.676c-0.311,4.185-3.402,7.104-7.527,7.104l0,0c-0.799,0-1.63-0.106-2.477-0.319
			c-1.272-0.313-2.242-0.477-2.898-0.477c-0.638,0-0.638,0-1.443,1.329c-1.056,1.737-2.655,4.37-6.901,7.055
			c-6.071,3.829-7.407,4.013-11.569,4.091c-1.995,0.043-4.73,0.098-9.568,0.76c-3.236,0.443-5.739,0.849-7.772,1.185
			C167.089,290.323,164.94,290.676,162.814,290.676z M161.308,261.555c-0.258,0-1.037,0.196-2.749,2.016
			c-6.64,7.06-6.263,9.138-6.259,9.156c1.533,1.416,1.254,3.567,1.007,5.461c-0.425,3.225-0.481,4.822,2.764,5.902
			c3.152,1.047,4.916,1.424,6.744,1.424c1.705,0,3.689-0.328,6.691-0.82c2.07-0.334,4.61-0.75,7.907-1.203
			c5.133-0.701,8.161-0.762,10.165-0.803c3.375-0.065,3.808-0.074,8.918-3.297c3.219-2.033,4.338-3.881,5.233-5.363
			c1.033-1.699,2.316-3.812,5.863-3.812c1.104,0,2.425,0.197,4.147,0.633c0.44,0.105,0.851,0.16,1.228,0.16l0,0
			c1.921,0,2.309-1.451,2.376-2.318c0.149-2.074-1.503-5.439-6.685-6.192c-0.193-0.035-13.301-2.293-20.771-2.521
			c-5.212-0.149-6.155,0.119-9.934,1.36c-1.35,0.446-3.017,0.993-5.307,1.66c-1.43,0.416-2.746,0.618-4.029,0.618
			c-2.585,0-4.391-0.852-5.711-1.473C162.236,261.827,161.658,261.555,161.308,261.555z"/>
	</g>
	<g>
		<path fill="#FEE394" d="M231.696,229.104c0,0-18.273-4.563-43.312,46.846c-25.04,51.411-35.409,63.069-52.008,72.493
			c-16.594,9.425,171.296-28.603,268.148-87.812c32.062-17.035,1.895-61.874,1.895-61.874l-58.456-18.656l-119.39,24.475
			L231.696,229.104z"/>
		<path fill="#3C2517" d="M137.38,352.458c-1.164,0-3.895,0-4.521-2.366c-0.398-1.511,0.358-2.82,2.242-3.893
			c16.527-9.387,26.71-21.58,50.963-71.379c19.556-40.157,35.396-47.384,42.701-48.289l-2.75-21.628
			c-0.172-1.339,0.721-2.583,2.044-2.854l119.386-24.477c0.437-0.089,0.881-0.067,1.306,0.069l58.453,18.655
			c0.556,0.177,1.037,0.537,1.356,1.021c0.717,1.063,17.49,26.313,12.319,46.972c-2.021,8.094-7.116,14.357-15.143,18.622
			C318.171,316.45,158.36,352.458,137.38,352.458z M230.487,231.588c-2.943,0-18.69,2.189-39.78,45.491
			c-21.697,44.554-32.574,59.823-46.669,69.616c36.698-4.93,180.272-40.055,259.14-88.266c6.814-3.627,11.037-8.781,12.693-15.394
			c4.159-16.638-8.475-37.9-11.119-42.1l-56.927-18.169l-116.387,23.858l2.819,22.154c0.104,0.845-0.212,1.692-0.847,2.257
			c-0.638,0.563-1.514,0.78-2.342,0.572C231.048,231.61,230.831,231.588,230.487,231.588z"/>
	</g>
	<g>
		<path fill="#FEE394" d="M142.87,151.159c22.638,12.583,94.283,111.466,170.382,105.553c76.088-5.912,114.29-55.707,84.305-101.358
			c-14.017-28.102-32.562-5.437-47.144-4.066c-14.591,1.368-112.455,2.421-157.935-5.914
			C128.904,133.729,120.237,138.574,142.87,151.159z"/>
		<path fill="#3C2517" d="M306.646,259.548c-55.129,0-107.685-51.893-139.083-82.899c-11.413-11.264-20.425-20.162-25.949-23.234
			c-9.837-5.47-13.47-9.17-12.537-12.77c1.022-3.942,6.823-4.474,12.361-4.474c10.038,0,27.371,2.24,51.504,6.662
			c33.51,6.139,92.645,6.803,116.51,6.803c21.229,0,35.994-0.477,40.716-0.921c3.712-0.347,7.93-2.346,12.396-4.461
			c5.685-2.695,11.559-5.481,17.599-5.481c8.045,0,14.472,5.002,19.638,15.289c12.085,18.484,13.872,38.594,5.018,56.647
			c-13.245,26.999-47.401,45.162-91.365,48.575C311.211,259.46,308.922,259.548,306.646,259.548z M134.418,142.071
			c0.705,0.912,2.917,3.057,9.706,6.832c6.143,3.413,15.375,12.529,27.063,24.071c30.841,30.449,82.448,81.409,135.458,81.409
			c2.143,0,4.295-0.081,6.408-0.246c42.119-3.272,74.692-20.358,87.125-45.704c8.038-16.386,6.342-34.734-4.781-51.662
			c-0.057-0.086-0.107-0.174-0.152-0.265c-5.617-11.267-11.302-12.568-15.083-12.568c-4.876,0-10.222,2.533-15.387,4.981
			c-4.675,2.215-9.509,4.506-14.122,4.94c-4.843,0.453-19.803,0.941-41.201,0.941c-24.01,0-83.51-0.671-117.442-6.889
			c-23.822-4.362-40.839-6.576-50.571-6.576C137.175,141.336,135.242,141.772,134.418,142.071z"/>
	</g>
	<g>
		<g>
			<path fill="#D2D3D4" d="M451.947,279.77c0,25.022-30.906,45.301-69.026,45.301c-38.125,0-69.031-20.277-69.031-45.301"/>
			<path fill="#2C2010" d="M382.921,327.654c-39.489,0-71.611-21.48-71.611-47.885c0-1.422,1.152-2.578,2.58-2.578
				c1.426,0,2.582,1.156,2.582,2.578c0,23.557,29.811,42.719,66.449,42.719c36.636,0,66.442-19.162,66.442-42.719
				c0-1.422,1.16-2.578,2.584-2.578c1.429,0,2.581,1.156,2.581,2.578C454.528,306.173,422.406,327.654,382.921,327.654z"/>
		</g>
		<g>
			<path fill="#DDD4CB" d="M313.461,279.873c0,6.008,30.94,10.879,69.105,10.879c38.156,0,69.094-4.871,69.094-10.879
				c0-6.014-30.938-10.88-69.094-10.88C344.401,268.993,313.461,273.859,313.461,279.873z"/>
			<path fill="#2C2010" d="M382.566,293.331c-7.342,0-71.688-0.376-71.688-13.458c0-13.085,64.347-13.463,71.688-13.463
				c7.333,0,71.679,0.378,71.679,13.463C454.245,292.955,389.899,293.331,382.566,293.331z M316.202,279.873
				c3.147,3.492,27.714,8.295,66.364,8.295c38.639,0,63.203-4.803,66.354-8.295c-3.151-3.492-27.717-8.297-66.354-8.297
				C343.916,271.576,319.354,276.38,316.202,279.873z"/>
		</g>
		<g>
			<path fill="#90C95B" d="M315.199,279.873c1.104,3.094,24.707,9.498,66.744,9.075c38.156-0.386,68.156-3.976,68.156-9.988
				c0,0-0.014-3.171-6.937-3.538c-6.923-0.365-9.755-1.295-11.988-2.189c-2.238-0.898-9.371-1.479-14.507-1.688
				c-5.133-0.209-13.021,1.035-19.463,0.587c-6.438-0.452-10.022,1.755-14.397,0.55s-23.081-1.205-31.179-0.102
				c-8.099,1.102-17.259,3.097-22.115,3.406C324.654,276.294,314.61,278.216,315.199,279.873z"/>
		</g>
		<g>
			<path fill="#75AA43" d="M424.144,275.145c0,0,0.185,0.033,0.505,0.088c3.524,0.636,23.983,4.49,10.991,6.107
				c-14.181,1.766-28.443,5.279-28.443,5.279s-19.427,0.309-21.807,0c-2.376-0.312-13.536,1.344-14.363,1.137
				c-0.828-0.209-1.033-3.721,7.751-3.721c8.783,0,7.751,0.41,16.121,0.204c8.369-0.204,8.787-0.204,15.505-1.548
				c6.714-1.346,8.886-1.447,14.155-2.381c5.274-0.928,12.303,1.139,6.617-0.928c-5.685-2.068-3.309-2.438-7.96-2.771
				c-4.65-0.328-4.855-1.365-7.646-0.745c-2.791,0.62-4.499-3.039,8.758-0.689"/>
		</g>
		<g>
			<path fill="#BDDB90" d="M374.747,275.042c0,0-10.954-0.206-12.61,0c-1.651,0.206-10.436,0.415-11.163,0.826
				c-0.721,0.417-5.681,1.551-8.988,1.86c-3.307,0.311-7.953,2.222-8.887,2.145c-0.933-0.079-0.413,3.336,5.062,3.747
				c5.479,0.416,6.612,0.104,11.159,0.416c4.547,0.31,11.679-1.863,15.092-1.656c3.409,0.207,7.341,0.62,11.053,0
				c3.727-0.621,6.312-1.039,6.312-1.039s-0.209-1.81-4.033-1.468c-3.823,0.34-15.191,1.871-17.985,1.468
				c-2.786-0.407-9.812,0.937-12.294,0.832c-2.48-0.101-6.305,1.124-5.271-0.832c1.028-1.956,8.37-4.705,13.436-4.728
				c5.064-0.021,12.707,0.806,15.915,0.494c3.203-0.307,3.615-1.963,9.299-1.239c5.686,0.726,16.849,0.745,16.849,0.745
				S405.271,275.158,374.747,275.042z"/>
		</g>
		<g opacity="0.59">
			<path fill="#4C7B39" d="M403.887,277.938c0,0,0.156,0.016,0.402,0.041c1.743,0.201,8.288,1.056,1.877,1.895
				c-7.341,0.959-12.716,0.796-16.125,0c-3.409-0.803-9.817-1.625-5.886-1.936c3.923-0.309,1.753,1.248,7.021,1.297
				c5.269,0.045,13.955-0.371,11.37-0.678c-2.589-0.31-3.339-1.857,1.495-0.604"/>
		</g>
	</g>
	<g>
		<g>
			<path fill="#D2D3D4" d="M349.119,305.208c0,26.476-32.708,47.937-73.053,47.937c-40.346,0-73.051-21.461-73.051-47.937"/>
			<path fill="#2C2010" d="M276.066,355.729c-41.705,0-75.635-22.664-75.635-50.521c0-1.429,1.16-2.582,2.584-2.582
				c1.422,0,2.582,1.153,2.582,2.582c0,25.008,31.615,45.354,70.469,45.354c38.855,0,70.468-20.348,70.468-45.354
				c0-1.429,1.156-2.582,2.585-2.582s2.582,1.153,2.582,2.582C351.701,333.064,317.772,355.729,276.066,355.729z"/>
		</g>
		<g>
			<ellipse fill="#DDD4CB" cx="275.993" cy="305.314" rx="73.126" ry="11.51"/>
			<path fill="#2C2010" d="M275.992,319.408c-19.664,0-38.172-1.209-52.11-3.401c-20.915-3.297-23.6-7.444-23.6-10.692
				s2.685-7.399,23.6-10.691c13.938-2.199,32.446-3.404,52.11-3.404c19.666,0,38.174,1.205,52.108,3.404
				c20.913,3.292,23.601,7.443,23.601,10.691s-2.688,7.396-23.601,10.692C314.166,318.199,295.658,319.408,275.992,319.408z
				 M205.612,305.314c0.832,0.805,4.74,3.512,21.077,5.892c13.433,1.959,30.94,3.034,49.303,3.034s35.872-1.075,49.304-3.034
				c16.338-2.38,20.246-5.087,21.078-5.892c-0.832-0.811-4.74-3.513-21.078-5.898c-13.432-1.957-30.944-3.036-49.304-3.036
				c-18.362,0-35.87,1.079-49.303,3.036C210.353,301.802,206.444,304.504,205.612,305.314z"/>
		</g>
		<g>
			<path fill="#ED7A23" d="M347.381,304.941c0,4.807-30.343,9.979-70.729,9.979c-40.388,0-66.672-3.93-71.901-9.428
				c0,0-1.228-1.706,7.112-4.706c6.901-2.484,10.317-1.374,12.683-2.319c2.372-0.947,9.918-1.568,15.352-1.785
				c5.431-0.219,13.784,1.092,20.602,0.619c6.814-0.473,10.607,1.86,15.236,0.581c4.629-1.272,24.424-1.272,32.995-0.108
				c8.563,1.168,18.263,3.281,23.402,3.613C337.272,301.711,347.381,303.088,347.381,304.941z"/>
		</g>
		<g>
			<path fill="#D06528" d="M231.986,300.311c0,0-0.19,0.033-0.533,0.096c-3.727,0.671-25.379,4.75-11.63,6.461
				c15.01,1.861,30.102,5.583,30.102,5.583s20.563,0.329,23.077,0c2.51-0.323,14.33,1.423,15.203,1.202
				c0.873-0.217,1.093-3.938-8.202-3.938c-9.299,0-8.206,0.438-17.063,0.223c-8.858-0.223-9.301-0.223-16.409-1.642
				c-7.105-1.42-9.403-1.532-14.979-2.513c-5.58-0.985-13.019,1.199-7.005-0.985c6.02-2.19,3.502-2.582,8.421-2.937
				c4.924-0.346,5.141-1.442,8.099-0.784c2.95,0.655,4.756-3.218-9.27-0.731"/>
		</g>
		<g opacity="0.59">
			<path fill="#D06528" d="M284.266,300.199c0,0,11.594-0.219,13.344,0c1.75,0.22,11.044,0.441,11.812,0.878
				c0.77,0.438,6.017,1.644,9.512,1.968c3.503,0.33,8.423,2.35,9.407,2.27c0.984-0.084,0.44,3.525-5.359,3.968
				c-5.792,0.434-7.002,0.108-11.81,0.434c-4.812,0.33-12.357-1.966-15.968-1.748c-3.611,0.218-7.768,0.659-11.702,0
				c-3.938-0.657-6.668-1.1-6.668-1.1s0.212-1.911,4.263-1.554c4.049,0.358,16.072,1.981,19.03,1.554
				c2.951-0.433,10.388,0.991,13.011,0.882c2.629-0.107,6.673,1.188,5.58-0.882c-1.093-2.07-8.858-4.979-14.22-5.007
				c-5.359-0.02-13.449,0.858-16.845,0.529c-3.387-0.326-3.822-2.078-9.84-1.312c-6.017,0.765-17.828,0.783-17.828,0.783
				S251.964,300.32,284.266,300.199z"/>
		</g>
		<g>
			<path fill="#EB975D" d="M253.423,303.266c0,0-0.159,0.014-0.425,0.045c-1.844,0.213-8.77,1.114-1.98,2.004
				c7.766,1.014,13.455,0.845,17.062,0c3.61-0.848,10.389-1.721,6.231-2.049c-4.153-0.332-1.856,1.322-7.434,1.37
				c-5.58,0.05-14.768-0.387-12.033-0.717c2.734-0.325,3.528-1.961-1.58-0.64"/>
		</g>
	</g>
</g>
</svg>
