<?xml version="1.0" encoding="utf-8"?>
<!-- Generator: Adobe Illustrator 16.0.0, SVG Export Plug-In . SVG Version: 6.00 Build 0)  -->
<!DOCTYPE svg PUBLIC "-//W3C//DTD SVG 1.1//EN" "http://www.w3.org/Graphics/SVG/1.1/DTD/svg11.dtd">
<svg version="1.1" id="Layer_1" xmlns="http://www.w3.org/2000/svg" xmlns:xlink="http://www.w3.org/1999/xlink" x="0px" y="0px"
	 width="500px" height="500px" viewBox="0 0 500 500" enable-background="new 0 0 500 500" xml:space="preserve">
<g id="Layer_1_copy_25">
	<g>
		<path fill="#F17A22" d="M230.122,64.033c0,0,5.99,19.989-5.952,35.228c-11.942,15.242-29.243,16.89-25.95,57.254
			c0,23.481,24.344,21.42,16.496,54.373c-2.078,18.121-23.363,18.121-22.213,62.195l0.776,167.646c0,0,0.82,30.07,16.473,32.952
			c7.827,6.321,12.851,6.321,21.872,6.321c9.022,0,18.905-7.142,18.905-7.142s7.828-6.32,18.953,0.406
			c11.117,6.734,28.419,5.357,32.947,0.828c13.185,1.234,20.597-11.536,19.358-37.075c-1.23-25.541,0.137-162.287,0.137-162.287
			s5.632-31.305-19.905-59.314c0,0-7.826-10.298,6.18-37.482c14.004-27.185,13.177-59.727-15.242-78.675
			c-16.477-13.181-8.779-34.775-8.779-34.775l-15.105-22.062L230.122,64.033z"/>
		<path fill="#3C2517" d="M231.624,482.244c-9.093,0-14.647,0-22.848-6.477c-16.693-3.734-17.707-33.688-17.74-34.975l-0.775-167.7
			c-0.743-28.594,7.794-39.264,14.66-47.836c3.842-4.795,6.873-8.586,7.564-14.628c0.013-0.087,0.029-0.174,0.052-0.258
			c4.239-17.818-1.292-24.525-7.147-31.628c-4.627-5.61-9.409-11.407-9.409-22.228c-2.579-31.466,7.574-40.61,17.391-49.454
			c3.069-2.766,6.249-5.626,9.034-9.183c11.096-14.16,5.623-33.011,5.567-33.198c-0.3-1.011,0.14-2.094,1.061-2.608l38.946-21.614
			c1.015-0.562,2.287-0.259,2.938,0.695l15.108,22.063c0.404,0.591,0.503,1.341,0.267,2.016c-0.29,0.824-6.938,20.28,8.065,32.277
			c26.075,17.374,32.352,49.393,15.833,81.454c-12.453,24.176-6.947,34.187-6.404,35.066c25.094,27.624,20.867,57.92,20.377,60.905
			c-0.056,5.676-1.332,137.217-0.133,161.977c0.797,16.519-1.845,28.104-7.872,34.426c-3.425,3.593-7.749,5.318-12.966,5.06
			c-3.045,2.335-8.726,3.756-15.228,3.756c-4.273,0-12.515-0.646-19.646-4.964c-3.052-1.843-6.095-2.778-9.056-2.778
			c-4.483,0-7.3,2.172-7.328,2.19C251.42,474.986,241.26,482.244,231.624,482.244z M216.929,211.278
			c-0.869,7.248-4.579,11.881-8.508,16.784c-6.405,8.003-14.379,17.962-13.675,44.963l0.775,167.69
			c0.006,0.232,0.956,28.241,14.638,30.761c0.369,0.064,0.711,0.221,1.001,0.459c7.213,5.816,11.639,5.816,20.464,5.816
			c8.172,0,17.504-6.65,17.595-6.714c0.064-0.059,3.923-3.116,10.048-3.116c3.791,0,7.616,1.151,11.375,3.426
			c4.526,2.747,10.844,4.317,17.325,4.317c6.679,0,11.354-1.636,12.876-3.16c0.477-0.473,1.157-0.711,1.798-0.646
			c4.133,0.388,7.605-0.828,10.271-3.619c5.07-5.318,7.363-16.078,6.637-31.11c-1.225-25.313,0.12-161.051,0.129-162.418
			c0.004-0.126,0.018-0.249,0.036-0.375c0.055-0.301,5.087-30.603-19.352-57.406c-0.481-0.621-8.645-11.904,5.842-40.022
			c18.692-36.287,4.771-62.938-14.492-75.779c-15.426-12.331-11.338-31.44-9.99-36.265L268.37,45.373l-35.65,19.785
			c1.215,5.413,3.761,22.031-6.786,35.486c-3.024,3.865-6.346,6.856-9.558,9.752c-9.832,8.854-18.321,16.502-15.92,45.936
			c0.01,9.39,4.081,14.331,8.391,19.562C214.838,183.157,221.63,191.384,216.929,211.278z"/>
	</g>
	<g>
		<path fill="#22428F" d="M227.466,63.426V31.708c0,0,12.771-5.629,28.832-5.629c16.066,0,29.867,4.692,32.129,7.691
			c1.237,5.765,0,29.657,0,29.657S261.652,71.666,227.466,63.426z"/>
		<path fill="#3C2517" d="M258.467,69.333c-10.663,0-21.272-1.253-31.528-3.725c-1.005-0.243-1.716-1.145-1.716-2.181V31.708
			c0-0.885,0.523-1.69,1.338-2.049c0.537-0.239,13.391-5.826,29.737-5.826c15.707,0,30.859,4.533,33.919,8.585
			c0.197,0.259,0.333,0.562,0.4,0.879c1.264,5.888,0.178,27.77,0.049,30.245c-0.049,0.943-0.68,1.751-1.58,2.029
			C288.585,65.727,276.654,69.333,258.467,69.333z M229.709,61.648c9.376,2.12,19.038,3.196,28.758,3.196
			c13.9,0,24.114-2.22,27.803-3.154c0.332-7.209,0.813-22.011,0.066-26.884c-2.432-2.123-14.469-6.485-30.038-6.485
			c-12.481,0-22.98,3.532-26.589,4.905V61.648z"/>
	</g>
	<g>
		<polygon fill="#D94926" points="192.794,299.443 192.946,411.898 321.621,411.898 321.621,300.068 		"/>
		<path fill="#3C2517" d="M321.621,414.143H192.946c-1.237,0-2.239-1.01-2.246-2.244l-0.148-112.451c0-0.596,0.232-1.17,0.659-1.59
			c0.42-0.42,0.988-0.655,1.583-0.655c0,0,0.007,0,0.013,0l128.828,0.618c1.234,0.009,2.232,1.006,2.232,2.248v111.83
			C323.867,413.133,322.862,414.143,321.621,414.143z M195.186,409.65h124.196V302.296l-124.342-0.598L195.186,409.65z"/>
	</g>
	<g>
		<line fill="none" x1="306.065" y1="308.663" x2="306.065" y2="399.221"/>
		<path fill="#3C2517" d="M306.065,401.469c-1.24,0-2.242-1.008-2.242-2.248v-90.559c0-1.241,1.002-2.246,2.242-2.246
			s2.247,1.005,2.247,2.246v90.558C308.312,400.461,307.307,401.469,306.065,401.469z"/>
	</g>
</g>
</svg>
