<?xml version="1.0" encoding="utf-8"?>
<!-- Generator: Adobe Illustrator 16.0.0, SVG Export Plug-In . SVG Version: 6.00 Build 0)  -->
<!DOCTYPE svg PUBLIC "-//W3C//DTD SVG 1.1//EN" "http://www.w3.org/Graphics/SVG/1.1/DTD/svg11.dtd">
<svg version="1.1" id="Layer_1" xmlns="http://www.w3.org/2000/svg" xmlns:xlink="http://www.w3.org/1999/xlink" x="0px" y="0px"
	 width="500px" height="500px" viewBox="0 0 500 500" enable-background="new 0 0 500 500" xml:space="preserve">
<g id="Layer_1_copy_3">
	<g>
		<g>
			<path fill="#FCC394" d="M221.266,264.027c0,0,1.561,16.762-9.046,22.08c-10.606,5.324-16.859,70.396-16.859,70.396l127.67,19.789
				l-13.925-71.408l-15.308-21.911c0,0-5.049-7.041-2.203-18.945C294.438,252.118,221.171,254.459,221.266,264.027z"/>
		</g>
		<g>
			<path fill="#291911" d="M326.901,380.023l-134.896-20.914l0.277-2.9c1.507-15.664,7.289-67.215,18.55-72.863
				c8.48-4.256,7.367-18.887,7.355-19.031l-0.017-0.256c-0.007-0.992,0.28-2.479,1.711-3.923c5.689-5.743,28.122-7.276,40.481-7.276
				c10.341,0,28.396,0.887,33.074,6.812c1.174,1.49,1.586,3.29,1.164,5.071c-2.449,10.246,1.553,16.203,1.726,16.451l15.683,22.459
				l0.126,0.642L326.901,380.023z M198.726,353.9l120.429,18.662L306.2,306.121l-14.931-21.379
				c-0.217-0.301-5.777-8.252-2.711-21.295c-1.102-1.508-9.127-4.405-28.191-4.405c-19.381,0-33.68,3.032-35.979,5.312
				c0.188,3.347,0.45,18.883-10.78,24.517C208.175,291.596,201.786,324.166,198.726,353.9z"/>
		</g>
	</g>
	<g>
		<g>
			<path fill="#FFFFFF" d="M213.945,294.977c0.667,3.737,7.665,27.842,40.858,25.291c33.194-2.556,41.924-21.697,41.924-21.697
				L308,402.83l-26.809,31.488l-57.878,0.307L213.945,294.977z"/>
		</g>
		<g>
			<path fill="#28180E" d="M220.423,437.728l-9.561-142.542l6.127-0.746c0.039,0.229,4.401,22.928,33.017,22.928
				c1.473,0,3.01-0.061,4.559-0.18c30.754-2.367,39.02-19.201,39.356-19.916l4.688-9.949l12.607,116.496L282.623,437.4
				L220.423,437.728z M218.044,309.91l8.155,121.606l53.556-0.278l25.031-29.396l-10.272-94.988
				c-5.889,6.31-17.72,14.82-39.471,16.492c-1.714,0.133-3.404,0.199-5.037,0.199C233.358,323.544,223.634,316.791,218.044,309.91z"
				/>
		</g>
	</g>
	<g>
		<g>
			<path fill="#454545" d="M212.247,285.371c0,0-106.395,10.215-110.646,34.896c-4.26,24.682-22.986,91.069-22.986,91.069
				s3.404,26.381,39.152,22.98H238.63L212.247,285.371z"/>
		</g>
		<g>
			<path fill="#28180E" d="M111.624,437.708c-25.879,0-34.913-16.992-36.074-25.976l-0.082-0.627l0.173-0.608
				c0.188-0.662,18.735-66.515,22.911-90.756c4.527-26.248,102.273-36.378,113.4-37.447l2.841-0.271l27.521,155.385H117.915
				C115.753,437.609,113.639,437.708,111.624,437.708z M81.779,411.501c0.675,3.371,5.257,20.031,29.845,20.031
				c1.866,0,3.835-0.101,5.853-0.293l0.29-0.015h117.182l-25.243-142.498c-40.363,4.15-102.319,16.156-105.061,32.064
				C100.589,344.305,83.866,404.078,81.779,411.501z"/>
		</g>
	</g>
	<g>
		<g>
			<path fill="#454545" d="M299.062,285.371c0,0,106.395,10.215,110.646,34.896c4.26,24.682,22.981,91.069,22.981,91.069
				s-3.399,26.381-39.147,22.98H272.675L299.062,285.371z"/>
		</g>
		<g>
			<path fill="#28180E" d="M399.688,437.708c-2.016,0-4.135-0.1-6.291-0.301h-124.4l27.521-155.386l2.84,0.271
				c11.128,1.07,108.871,11.199,113.398,37.447c4.184,24.242,22.721,90.094,22.909,90.756l0.172,0.609l-0.082,0.627
				C434.599,420.716,425.564,437.708,399.688,437.708z M276.363,431.226l117.476,0.015c2.012,0.192,3.98,0.293,5.849,0.293
				c24.562,0,29.161-16.631,29.841-20.031c-2.087-7.434-18.807-67.197-22.861-90.709c-2.746-15.908-64.696-27.92-105.062-32.064
				L276.363,431.226z"/>
		</g>
	</g>
	<g>
		<g>
			<polygon fill="#828182" points="212.247,285.371 238.63,434.318 219.908,434.318 167.988,343.248 187.565,329.625 
				167.988,321.119 			"/>
		</g>
		<g>
			<path fill="#28180E" d="M242.314,437.408H218.11l-54.206-95.086l17.35-12.07l-19.179-8.334l52.303-42.24L242.314,437.408z
				 M221.704,431.226h13.244l-24.831-140.163l-36.218,29.254L193.874,329l-21.804,15.172L221.704,431.226z"/>
		</g>
	</g>
	<g>
		<g>
			<polygon fill="#828182" points="298.769,287.009 272.675,434.318 291.402,434.318 343.322,343.248 323.745,329.625 
				343.322,321.119 			"/>
		</g>
		<g>
			<path fill="#28180E" d="M293.195,437.408h-24.199l27.615-155.941l52.76,40.393l-19.315,8.394l17.352,12.07L293.195,437.408z
				 M276.363,431.226h13.242l49.63-87.055L317.438,329l19.837-8.619l-36.349-27.828L276.363,431.226z"/>
		</g>
	</g>
	<g>
		<g>
			<path fill="#FCC394" d="M337.65,164.536c-0.91,0-1.784,0.224-2.628,0.553c-7.218-42.051-39.07-73.746-77.302-73.746
				c-39.233,0-71.677,33.405-77.738,77.107c-1.451-1.102-3.048-1.769-4.758-1.769c-6.152,0-11.141,8.006-11.141,17.884
				c0,9.874,4.988,17.883,11.141,17.883c1.839,0,3.549-0.784,5.08-2.06c6.927,42.479,38.928,74.608,77.416,74.608
				c38.646,0,70.746-32.413,77.484-75.157c0.789,0.286,1.602,0.463,2.444,0.463c6.149,0,11.142-8.006,11.142-17.88
				C348.792,172.546,343.801,164.536,337.65,164.536z"/>
		</g>
		<g>
			<path fill="#291911" d="M257.723,278.085c-38.078,0-71.013-30.432-79.688-72.961c-0.919,0.279-1.856,0.412-2.809,0.412
				c-7.979,0-14.228-9.21-14.228-20.97c0-11.76,6.248-20.975,14.228-20.975c0.792,0,1.576,0.098,2.353,0.286
				c7.807-44.071,40.954-75.622,80.145-75.622c38.047,0,71.152,30.594,79.764,73.194c0.056,0,0.109-0.004,0.165-0.004
				c7.979,0,14.228,9.215,14.228,20.978c0,11.717-6.21,20.904-14.148,20.967C329.601,246.861,296.38,278.085,257.723,278.085z
				 M182.482,194.553l0.874,5.339c6.806,41.729,38.081,72.016,74.365,72.016c36.5,0,67.804-30.511,74.431-72.55l0.584-3.691
				l3.515,1.267c0.518,0.188,0.977,0.278,1.4,0.278c3.805,0,8.049-6.076,8.049-14.788c0-8.724-4.244-14.796-8.049-14.796
				c-0.425,0-0.917,0.11-1.507,0.346l-3.525,1.373l-0.645-3.735c-7.077-41.243-38.301-71.176-74.253-71.176
				c-37.292,0-68.696,31.307-74.679,74.44l-0.722,5.233l-4.205-3.194c-0.997-0.76-1.969-1.141-2.891-1.141
				c-3.81,0-8.049,6.076-8.049,14.793c0,8.719,4.239,14.792,8.049,14.792c0.988,0,2.035-0.451,3.098-1.341L182.482,194.553z"/>
		</g>
	</g>
	<g>
		<path fill="#110D0A" d="M229.334,178.952c0,5.998-3.88,10.854-8.673,10.854c-4.794,0-8.677-4.856-8.677-10.854
			c0-5.994,3.883-10.85,8.677-10.85C225.454,168.103,229.334,172.958,229.334,178.952z"/>
	</g>
	<g>
		<path fill="#FFFFFA" d="M222.458,178.96c0,2.083-1.565,3.777-3.503,3.777c-1.934,0-3.5-1.694-3.5-3.777
			c0-2.091,1.566-3.781,3.5-3.781C220.893,175.179,222.458,176.869,222.458,178.96z"/>
	</g>
	<g>
		<path fill="#110D0A" d="M300.032,178.952c0,5.998-3.888,10.854-8.677,10.854c-4.791,0-8.678-4.856-8.678-10.854
			c0-5.994,3.887-10.85,8.678-10.85C296.145,168.103,300.032,172.958,300.032,178.952z"/>
	</g>
	<g>
		<path fill="#FFFFFA" d="M293.152,178.96c0,2.083-1.57,3.777-3.5,3.777c-1.938,0-3.504-1.694-3.504-3.777
			c0-2.091,1.566-3.781,3.504-3.781C291.582,175.179,293.152,176.869,293.152,178.96z"/>
	</g>
	<g>
		<path fill="#844A1F" d="M249.442,198.738c0,0,11.434,1.698,13.007-4.68c1.576-6.386,0-18.88,0-18.88s7.096,9.516,3.55,21.006
			C262.449,207.674,243.98,198.644,249.442,198.738z"/>
	</g>
	<g opacity="0.7">
		<g>
			<path fill="#F9A780" d="M222.458,202.783c0,3.879-4.903,7.021-10.952,7.021c-6.046,0-10.953-3.142-10.953-7.021
				c0-3.88,4.907-7.022,10.953-7.022C217.555,195.761,222.458,198.903,222.458,202.783z"/>
		</g>
	</g>
	<g opacity="0.7">
		<g>
			<path fill="#F9A780" d="M317.162,202.026c0,3.879-4.903,7.021-10.952,7.021c-6.044,0-10.948-3.142-10.948-7.021
				c0-3.88,4.904-7.022,10.948-7.022C312.259,195.004,317.162,198.146,317.162,202.026z"/>
		</g>
	</g>
	<g>
		<path fill="#FFFFFD" d="M232.178,229.684c0,0,5.128,20.005,23.261,19.15c18.131-0.851,24.957-19.15,24.957-19.15
			s-8.002,9.591-24.957,9.591C238.022,239.275,232.178,229.684,232.178,229.684z"/>
	</g>
	<g>
		<path fill="#301C10" d="M208.214,166.505c0,0,3.95-5.535,11.436-4.899c7.491,0.639,8.285,2.134,8.676-1.914
			c0.393-4.044-3.157-4.891-8.676-4.252C214.134,156.08,203.492,167.789,208.214,166.505z"/>
	</g>
	<g>
		<path fill="#301C10" d="M304.735,166.505c0,0-3.939-5.535-11.431-4.899c-7.492,0.639-8.281,2.134-8.678-1.914
			c-0.389-4.044,3.157-4.891,8.678-4.252C298.823,156.08,309.466,167.789,304.735,166.505z"/>
	</g>
	<g>
		<g>
			<path fill="#783217" d="M297.471,102.709c-23.904,27.778-49.605,42.512-83.902,47.945c0-2.687,0-1.436,0-5.139
				c-20.21,10.27-24.701,23.583-36.803,43.106c-9.236-16.962-10.496-29.083-13.219-45.279c-2.722-16.26-6.997-33.251,7.054-45.788
				c11.735-10.473,26.631-17.358,38.709-27.516c29.741-25.026,56.353-10.797,83.528,4.613c5.193,2.94,11.687,3.544,17.503,5.419
				c22.995,7.447,34.002,21.674,32.456,45.474c-0.982,15.322-4.898,30.448-9.948,46.114
				C330.781,143.366,301.954,131.32,297.471,102.709z"/>
		</g>
		<g>
			<path fill="#291911" d="M176.59,194.76l-2.537-4.664c-8.567-15.726-10.517-27.682-12.776-41.525
				c-0.248-1.542-0.506-3.107-0.777-4.719c-0.203-1.22-0.416-2.439-0.627-3.664c-2.625-15.094-5.602-32.203,8.672-44.939
				c6.345-5.661,13.601-10.317,20.622-14.816c6.179-3.964,12.571-8.063,18.154-12.759c11.478-9.658,23.229-14.354,35.92-14.354
				c18.243,0,35.712,9.905,51.12,18.645c2.988,1.689,6.586,2.538,10.397,3.438c2.146,0.508,4.369,1.031,6.528,1.728
				c24.881,8.057,36.193,23.96,34.594,48.613c-1.105,17.217-5.976,34.092-10.09,46.864l-4.872,15.106l-1.152-15.828
				c-0.992-13.6-8.674-23.277-16.801-33.519c-6.833-8.618-13.871-17.483-17.2-29.083c-23.277,25.416-48.713,39.192-81.715,44.42
				l-3.573,0.569v-3.51c-12.348,7.515-17.737,16.785-24.924,29.129c-1.91,3.284-3.888,6.684-6.163,10.353L176.59,194.76z
				 M243.24,59.501c-11.177,0-21.622,4.219-31.938,12.904c-5.892,4.952-12.454,9.16-18.801,13.229
				c-6.815,4.372-13.863,8.891-19.846,14.226c-11.708,10.45-9.275,24.446-6.696,39.27c0.217,1.235,0.429,2.472,0.636,3.703
				c0.271,1.616,0.53,3.197,0.781,4.743c2.001,12.282,3.629,22.27,9.609,34.712c1.122-1.879,2.186-3.707,3.229-5.503
				c8.21-14.106,14.694-25.255,31.953-34.025l4.492-2.279v6.52c31.616-5.743,55.944-20.127,78.465-46.303l4.362-5.066l1.035,6.602
				c2.051,13.096,9.449,22.419,17.282,32.293c6.005,7.566,12.152,15.313,15.562,24.83c3.734-13.148,5.685-23.727,6.347-34.008
				c1.408-21.724-8.227-35.175-30.322-42.334c-1.926-0.62-3.93-1.092-6.053-1.592c-4.062-0.96-8.27-1.952-12.021-4.078
				C276.566,68.979,259.854,59.501,243.24,59.501z"/>
		</g>
	</g>
	<g>
		<path fill="#783217" d="M208.116,220.933c18.069,0.859,32.915-13.322,48.896-1.875c16.075-10.905,30.531,1.867,47.444,2.451
			c-10.603,10.348-22.237,13.377-34.063,9.85c-9.646-2.872-17.824-2.409-27.369,0.121
			C230.899,234.709,219.271,231.402,208.116,220.933z"/>
	</g>
</g>
</svg>
