<?xml version="1.0" encoding="utf-8"?>
<!-- Generator: Adobe Illustrator 16.0.0, SVG Export Plug-In . SVG Version: 6.00 Build 0)  -->
<!DOCTYPE svg PUBLIC "-//W3C//DTD SVG 1.1//EN" "http://www.w3.org/Graphics/SVG/1.1/DTD/svg11.dtd">
<svg version="1.1" id="Layer_1" xmlns="http://www.w3.org/2000/svg" xmlns:xlink="http://www.w3.org/1999/xlink" x="0px" y="0px"
	 width="500px" height="500px" viewBox="0 0 500 500" enable-background="new 0 0 500 500" xml:space="preserve">
<g id="Layer_1_copy_88">
	<g>
		<g>
			<path fill="#FCC394" d="M212.717,246.544c0,0,1.473,15.83-8.545,20.854c-10.017,5.025-15.919,66.485-15.919,66.485
				l120.573,18.688l-13.15-67.438l-14.451-20.698c0,0-4.771-6.649-2.084-17.893C281.825,235.298,212.627,237.51,212.717,246.544z"/>
		</g>
		<g>
			<path fill="#291911" d="M312.488,356.1l-127.404-19.752l0.262-2.742c1.424-14.793,6.882-63.479,17.52-68.813
				c8.011-4.021,6.957-17.84,6.945-17.978l-0.016-0.239c-0.008-0.938,0.267-2.343,1.618-3.707
				c5.369-5.421,26.557-6.871,38.233-6.871c9.766,0,26.818,0.837,31.233,6.43c1.109,1.409,1.499,3.112,1.1,4.794
				c-2.312,9.671,1.472,15.298,1.633,15.539l14.811,21.21l0.119,0.606L312.488,356.1z M191.429,331.423l113.74,17.629
				l-12.239-62.755l-14.101-20.189c-0.202-0.28-5.454-7.791-2.56-20.112c-1.039-1.424-8.619-4.159-26.624-4.159
				c-18.305,0-31.808,2.862-33.981,5.018c0.18,3.161,0.426,17.833-10.181,23.154C200.354,272.582,194.316,303.341,191.429,331.423z"
				/>
		</g>
	</g>
	<g>
		<g>
			<path fill="#FFFFFF" d="M205.806,275.773c0.627,3.533,7.236,26.299,38.587,23.886c31.351-2.41,39.593-20.49,39.593-20.49
				l10.646,98.468l-25.32,29.739l-54.664,0.291L205.806,275.773z"/>
		</g>
		<g>
			<path fill="#28180E" d="M211.922,410.596l-9.031-134.625l5.788-0.707c0.037,0.217,4.154,21.655,31.182,21.655
				c1.394,0,2.843-0.058,4.308-0.168c29.046-2.233,36.851-18.133,37.168-18.81l4.424-9.396l11.912,110.029l-27.007,31.714
				L211.922,410.596z M209.676,289.88l7.7,114.849l50.58-0.261L291.6,376.7l-9.707-89.709c-5.556,5.96-16.732,13.995-37.274,15.575
				c-1.618,0.129-3.218,0.19-4.757,0.19C224.14,302.758,214.952,296.375,209.676,289.88z"/>
		</g>
	</g>
	<g>
		<g>
			<path fill="#454545" d="M204.199,266.705c0,0-100.486,9.645-104.502,32.954c-4.021,23.31-21.707,86.016-21.707,86.016
				s3.213,24.914,36.977,21.701h114.148L204.199,266.705z"/>
		</g>
		<g>
			<path fill="#28180E" d="M109.164,410.581c-24.442,0-32.971-16.052-34.07-24.532l-0.077-0.59l0.164-0.575
				c0.179-0.628,17.69-62.827,21.64-85.718c4.274-24.79,96.588-34.357,107.102-35.367l2.683-0.259l25.993,146.756H115.105
				C113.065,410.482,111.07,410.581,109.164,410.581z M80.979,385.832c0.636,3.184,4.966,18.913,28.186,18.913
				c1.764,0,3.624-0.091,5.526-0.269l0.276-0.017h110.67l-23.841-134.588c-38.12,3.92-96.636,15.263-99.222,30.282
				C98.74,322.363,82.947,378.814,80.979,385.832z"/>
		</g>
	</g>
	<g>
		<g>
			<path fill="#454545" d="M286.191,266.705c0,0,100.481,9.645,104.504,32.954c4.02,23.31,21.707,86.016,21.707,86.016
				s-3.218,24.914-36.979,21.701h-114.15L286.191,266.705z"/>
		</g>
		<g>
			<path fill="#28180E" d="M381.228,410.581c-1.905,0-3.903-0.099-5.94-0.285H257.794l25.993-146.756l2.684,0.259
				c10.514,1.01,102.826,10.577,107.102,35.367c3.949,22.891,21.462,85.09,21.637,85.718l0.164,0.575l-0.077,0.59
				C414.2,394.529,405.67,410.581,381.228,410.581z M264.756,404.46l110.946,0.017c1.901,0.178,3.762,0.269,5.524,0.269
				c23.202,0,27.539-15.708,28.183-18.913c-1.969-7.023-17.758-63.469-21.592-85.678c-2.589-15.022-61.103-26.365-99.222-30.281
				L264.756,404.46z"/>
		</g>
	</g>
	<g>
		<g>
			<polygon fill="#828182" points="204.199,266.705 229.115,407.375 211.436,407.375 162.398,321.365 180.888,308.498 
				162.398,300.465 			"/>
		</g>
		<g>
			<path fill="#28180E" d="M232.598,410.295h-22.862l-51.193-89.805l16.383-11.398l-18.108-7.873l49.396-39.895L232.598,410.295z
				 M213.132,404.46h12.505l-23.449-132.383L167.98,299.71l18.863,8.197l-20.59,14.331L213.132,404.46z"/>
		</g>
	</g>
	<g>
		<g>
			<polygon fill="#828182" points="285.917,268.249 261.273,407.375 278.956,407.375 327.993,321.365 309.504,308.498 
				327.993,300.465 			"/>
		</g>
		<g>
			<path fill="#28180E" d="M280.652,410.295h-22.858l26.083-147.281l49.829,38.15l-18.239,7.928l16.383,11.398L280.652,410.295z
				 M264.756,404.46h12.508l46.871-82.222l-20.591-14.331l18.738-8.142l-34.329-26.283L264.756,404.46z"/>
		</g>
	</g>
	<g>
		<g>
			<path fill="#FCC394" d="M322.637,152.579c-0.854,0-1.686,0.213-2.484,0.523c-6.814-39.715-36.896-69.65-73.005-69.65
				c-37.057,0-67.696,31.548-73.42,72.826c-1.372-1.043-2.877-1.674-4.495-1.674c-5.807,0-10.518,7.565-10.518,16.891
				c0,9.325,4.711,16.891,10.518,16.891c1.737,0,3.355-0.739,4.801-1.946c6.542,40.12,36.765,70.464,73.114,70.464
				c36.501,0,66.817-30.609,73.181-70.979c0.743,0.27,1.514,0.433,2.31,0.433c5.81,0,10.521-7.558,10.521-16.887
				C333.158,160.145,328.445,152.579,322.637,152.579z"/>
		</g>
		<g>
			<path fill="#291911" d="M247.146,259.823c-35.962,0-67.065-28.739-75.262-68.907c-0.867,0.258-1.753,0.389-2.653,0.389
				c-7.532,0-13.436-8.698-13.436-19.81c0-11.107,5.903-19.806,13.436-19.806c0.751,0,1.491,0.09,2.224,0.269
				c7.374-41.621,38.677-71.425,75.691-71.425c35.936,0,67.202,28.896,75.333,69.131c0.053,0,0.104,0,0.157,0
				c7.535,0,13.438,8.698,13.438,19.806c0,11.066-5.866,19.746-13.364,19.805C315.037,230.329,283.66,259.823,247.146,259.823z
				 M176.087,180.929l0.826,5.044c6.426,39.409,35.965,68.013,70.233,68.013c34.474,0,64.038-28.816,70.297-68.519l0.553-3.485
				l3.316,1.195c0.489,0.176,0.924,0.262,1.323,0.262c3.595,0,7.601-5.735,7.601-13.97c0-8.235-4.006-13.974-7.601-13.974
				c-0.399,0-0.867,0.108-1.421,0.325l-3.333,1.3l-0.604-3.527c-6.685-38.95-36.179-67.222-70.132-67.222
				c-35.217,0-64.88,29.568-70.528,70.304l-0.684,4.942l-3.973-3.019c-0.94-0.717-1.856-1.076-2.73-1.076
				c-3.595,0-7.6,5.738-7.6,13.969c0,8.234,4.005,13.973,7.6,13.973c0.938,0,1.924-0.426,2.929-1.27L176.087,180.929z"/>
		</g>
	</g>
	<g>
		<path fill="#110D0A" d="M220.339,166.193c0,5.664-3.669,10.252-8.193,10.252s-8.193-4.588-8.193-10.252
			c0-5.66,3.669-10.245,8.193-10.245S220.339,160.533,220.339,166.193z"/>
	</g>
	<g>
		<ellipse fill="#FFFFFA" cx="210.536" cy="166.201" rx="3.306" ry="3.568"/>
	</g>
	<g>
		<path fill="#110D0A" d="M287.109,166.193c0,5.664-3.674,10.252-8.193,10.252c-4.529,0-8.198-4.588-8.198-10.252
			c0-5.66,3.669-10.245,8.198-10.245C283.438,155.949,287.109,160.533,287.109,166.193z"/>
	</g>
	<g>
		<path fill="#FFFFFA" d="M280.611,166.201c0,1.969-1.483,3.568-3.307,3.568c-1.83,0-3.308-1.599-3.308-3.568
			c0-1.973,1.478-3.572,3.308-3.572C279.128,162.629,280.611,164.228,280.611,166.201z"/>
	</g>
	<g>
		<path fill="#844A1F" d="M239.326,184.882c0,0,10.802,1.606,12.283-4.42c1.492-6.03,0-17.833,0-17.833s6.707,8.989,3.353,19.843
			C251.609,193.322,234.171,184.792,239.326,184.882z"/>
	</g>
	<g opacity="0.7">
		<g>
			<path fill="#F9A780" d="M213.845,188.701c0,3.665-4.632,6.635-10.345,6.635c-5.709,0-10.342-2.97-10.342-6.635
				c0-3.662,4.633-6.632,10.342-6.632C209.213,182.069,213.845,185.039,213.845,188.701z"/>
		</g>
	</g>
	<g opacity="0.7">
		<g>
			<ellipse fill="#F9A780" cx="292.945" cy="187.987" rx="10.342" ry="6.632"/>
		</g>
	</g>
	<g>
		<path fill="#FFFFFD" d="M223.021,214.106c0,0,4.846,18.897,21.969,18.09c17.127-0.807,23.574-18.09,23.574-18.09
			s-7.562,9.061-23.574,9.061C228.543,223.167,223.021,214.106,223.021,214.106z"/>
	</g>
	<g>
		<path fill="#301C10" d="M200.391,154.439c0,0,3.729-5.231,10.802-4.625c7.073,0.601,7.823,2.014,8.19-1.809
			c0.37-3.818-2.979-4.621-8.19-4.016C205.98,144.591,195.927,155.65,200.391,154.439z"/>
	</g>
	<g>
		<path fill="#301C10" d="M291.551,154.439c0,0-3.721-5.231-10.797-4.625c-7.077,0.601-7.82,2.014-8.193-1.809
			c-0.367-3.818,2.981-4.621,8.193-4.016C285.969,144.591,296.02,155.65,291.551,154.439z"/>
	</g>
	<g>
		<g>
			<path fill="#783217" d="M284.688,94.189c-22.578,26.236-46.853,40.149-79.242,45.283c0-2.541,0-1.356,0-4.857
				c-19.088,9.7-23.328,22.271-34.758,40.71c-8.724-16.013-9.916-27.465-12.483-42.765c-2.57-15.352-6.608-31.403,6.658-43.243
				c11.086-9.89,25.157-16.395,36.563-25.985c28.085-23.635,53.219-10.2,78.887,4.356c4.904,2.776,11.037,3.348,16.528,5.119
				c21.719,7.032,32.115,20.471,30.655,42.948c-0.931,14.47-4.626,28.758-9.396,43.557
				C316.15,132.586,288.925,121.206,284.688,94.189z"/>
		</g>
		<g>
			<path fill="#291911" d="M170.524,181.127l-2.399-4.405c-8.093-14.855-9.934-26.146-12.063-39.223
				c-0.239-1.45-0.481-2.933-0.736-4.454c-0.191-1.151-0.393-2.309-0.595-3.463c-2.476-14.253-5.29-30.416,8.19-42.443
				c5.993-5.347,12.849-9.744,19.48-13.992c5.836-3.744,11.87-7.614,17.146-12.049c10.839-9.12,21.938-13.558,33.925-13.558
				c17.228,0,33.727,9.355,48.282,17.612c2.818,1.595,6.219,2.395,9.819,3.247c2.024,0.479,4.125,0.972,6.165,1.632
				c23.501,7.607,34.182,22.626,32.673,45.911c-1.046,16.26-5.646,32.199-9.531,44.263l-4.599,14.269l-1.092-14.948
				c-0.938-12.845-8.188-21.984-15.867-31.66c-6.456-8.138-13.1-16.511-16.245-27.465c-21.983,24.001-46.008,37.015-77.175,41.954
				l-3.378,0.535v-3.314c-11.657,7.099-16.752,15.853-23.538,27.509c-1.801,3.105-3.669,6.314-5.816,9.781L170.524,181.127z
				 M233.472,53.379c-10.558,0-20.422,3.987-30.166,12.188c-5.562,4.678-11.761,8.649-17.754,12.494
				c-6.438,4.128-13.096,8.395-18.745,13.435c-11.059,9.871-8.762,23.09-6.325,37.085c0.205,1.169,0.407,2.339,0.602,3.501
				c0.254,1.524,0.496,3.019,0.735,4.479c1.891,11.597,3.431,21.031,9.079,32.785c1.059-1.778,2.063-3.504,3.049-5.201
				c7.753-13.324,13.877-23.852,30.178-32.135l4.241-2.152v6.154c29.863-5.421,52.837-19.006,74.11-43.729l4.116-4.786l0.979,6.239
				c1.938,12.367,8.926,21.173,16.321,30.499c5.673,7.144,11.479,14.463,14.695,23.448c3.527-12.416,5.369-22.409,5.996-32.116
				c1.33-20.52-7.767-33.222-28.642-39.985c-1.815-0.583-3.711-1.031-5.713-1.502c-3.842-0.908-7.812-1.845-11.358-3.852
				C264.945,62.331,249.159,53.379,233.472,53.379z"/>
		</g>
	</g>
	<g>
		<path fill="#783217" d="M200.298,205.842c17.062,0.811,31.085-12.58,46.18-1.771c15.184-10.297,28.836,1.767,44.812,2.317
			c-10.017,9.773-21.005,12.632-32.176,9.303c-9.109-2.713-16.835-2.272-25.847,0.112
			C221.814,218.855,210.835,215.732,200.298,205.842z"/>
	</g>
	<g>
		<g>
			<g>
				<path fill="#FAA625" d="M306.757,288.396c0,9.162-4.184,16.59-9.344,16.59c-5.163,0-9.349-7.428-9.349-16.59
					c0-9.156,4.186-16.584,9.349-16.584C302.573,271.812,306.757,279.24,306.757,288.396z"/>
			</g>
			<g>
				<path fill="#27140E" d="M297.413,305.229c-5.287,0-9.587-7.552-9.587-16.832c0-9.276,4.3-16.823,9.587-16.823
					c5.283,0,9.588,7.547,9.588,16.823C307.001,297.677,302.696,305.229,297.413,305.229z M297.413,272.055
					c-5.021,0-9.104,7.331-9.104,16.342c0,9.017,4.084,16.344,9.104,16.344c5.019,0,9.101-7.327,9.101-16.344
					C306.514,279.386,302.432,272.055,297.413,272.055z"/>
			</g>
		</g>
		<g>
			<g>
				<path fill="#6D7EBE" d="M287.736,334.831c0-11.821,0-23.64,0-35.457c6.636,0,13.278,0,19.918,0c0,11.382,0,23.808,0,35.188
					L287.736,334.831z"/>
			</g>
			<g>
				<path fill="#27140E" d="M287.736,336.52c-0.444,0-0.875-0.172-1.191-0.485c-0.32-0.321-0.501-0.751-0.501-1.203v-35.457
					c0-0.935,0.755-1.69,1.692-1.69h19.918c0.934,0,1.69,0.758,1.69,1.69v35.188c0,0.922-0.743,1.681-1.666,1.688l-19.922,0.27
					C287.752,336.52,287.744,336.52,287.736,336.52z M289.425,301.066v32.05l16.541-0.22v-31.83H289.425z"/>
			</g>
		</g>
		<g>
			<g>
				<rect x="209.213" y="359.424" fill="#894620" width="177.069" height="63.644"/>
			</g>
			<g>
				<path fill="#27140E" d="M386.282,424.763H209.213c-0.935,0-1.693-0.763-1.693-1.695v-63.644c0-0.927,0.759-1.688,1.693-1.688
					h177.069c0.934,0,1.691,0.762,1.691,1.688v63.644C387.975,424,387.216,424.763,386.282,424.763z M210.905,421.377H384.59V361.12
					H210.905V421.377z"/>
			</g>
		</g>
		<g>
			<g>
				<path fill="#F0516C" d="M227.864,334.718c-12.326-0.522-24.588-0.979-27.667,7.746c0,5.871,0,12.984,0,19.919
					c0,6.628-1.539,14.615,3.276,17.186c6.804,2.608,17.979-11.199,22.175-11.647c16.898-1.801,23.437,13.293,35.415,13.278
					c7.506-0.008,16.619-9.797,26.562-12.174c22.413-5.373,31.938,12.996,47.588,12.174c11.049-0.576,20.4-13.219,30.988-13.278
					c11.624-0.073,21.599,15.498,28.771,13.278c7.175-2.219,6.452-41.639-7.745-46.48
					C381.791,332.866,227.864,334.718,227.864,334.718z"/>
			</g>
			<g>
				<path fill="#27140E" d="M393.505,383.104L393.505,383.104c-3.696,0-7.421-2.778-11.74-6c-4.714-3.513-10.057-7.494-15.488-7.494
					h-0.067c-4.846,0.029-9.55,3.057-14.538,6.254c-5.133,3.304-10.441,6.711-16.371,7.025c-7.088,0.372-12.823-2.818-18.892-6.203
					c-6.134-3.422-12.479-6.957-20.776-6.957c-2.45,0-5.011,0.32-7.614,0.941c-4.445,1.062-8.795,3.743-12.994,6.336
					c-4.901,3.02-9.53,5.874-13.959,5.883c-5.799,0-10.244-3.072-14.943-6.322c-5.056-3.489-10.282-7.105-17.718-7.105
					c-0.841,0-1.704,0.044-2.573,0.143c-1.084,0.11-3.924,2.391-6.206,4.222c-4.539,3.64-9.685,7.764-14.299,7.764
					c-0.87,0-1.692-0.149-2.455-0.44c-0.063-0.022-0.126-0.053-0.19-0.082c-4.819-2.578-4.551-8.779-4.289-14.772
					c0.06-1.308,0.116-2.651,0.116-3.908v-19.919c0-0.189,0.033-0.381,0.097-0.561c2.832-8.033,12.109-9.113,20.807-9.113
					c2.832,0,5.829,0.124,8.481,0.236c2.107-0.027,69.422-0.822,115.605-0.822c41.596,0,43.475,0.643,44.278,0.915
					c9.451,3.224,13.543,19.453,13.346,33.172c-0.064,4.469-0.743,15.004-5.646,16.521
					C394.846,383.007,394.185,383.104,393.505,383.104z M366.275,366.225c6.553,0,12.374,4.342,17.512,8.174
					c3.676,2.735,7.143,5.328,9.718,5.328l0,0c0.347,0,0.66-0.045,0.968-0.143c1.281-0.396,3.143-4.797,3.266-13.338
					c0.098-6.539-0.877-13.383-2.668-18.771c-1.416-4.268-4.022-9.668-8.392-11.158c-0.986-0.269-7.946-0.731-43.184-0.731
					c-46.669,0-114.93,0.813-115.613,0.821c-0.025,0-0.06,0-0.09,0c-2.626-0.107-5.607-0.234-8.384-0.234
					c-10.457,0-15.729,1.977-17.522,6.596v19.615c0,1.33-0.061,2.713-0.119,4.051c-0.222,5.127-0.43,9.969,2.409,11.59
					c0.348,0.127,0.729,0.179,1.147,0.179c3.426,0,8.283-3.892,12.187-7.022c3.292-2.639,5.89-4.724,7.962-4.939
					c0.983-0.104,1.97-0.157,2.93-0.157c8.488,0,14.411,4.097,19.638,7.704c4.442,3.07,8.274,5.717,13.009,5.717
					c3.486,0,7.717-2.607,12.196-5.372c4.431-2.735,9.016-5.56,13.987-6.748c2.858-0.688,5.687-1.03,8.398-1.03
					c9.182,0,16.215,3.916,22.421,7.383c5.358,2.98,10.413,5.799,16.133,5.799c0.312,0,0.624-0.008,0.938-0.023
					c5.034-0.262,9.958-3.429,14.721-6.484c5.171-3.325,10.52-6.764,16.347-6.801h0.085V366.225z"/>
			</g>
		</g>
		<g>
			<g>
				<path fill="#623214" d="M386.282,390.128c0,13.278,0,26.558,0,39.835c5.788,1.593,12.92,1.838,16.6,5.538
					c2.138,4.132,2.644,9.9,2.216,16.595c-71.565,0-143.134,0-214.701,0c-2.039-15.316,4.122-22.438,18.816-21.026
					c0-14.019,0-28.028,0-42.054c9.071-4.289,14.249-6.801,23.238-5.531c9.296,1.31,16.414,9.425,25.455,9.961
					c14.209,0.839,26.965-11.342,42.056-9.961c14.857,1.36,19.827,11.336,36.521,9.961
					C352.118,392.154,369.062,374.294,386.282,390.128z"/>
			</g>
			<g>
				<path fill="#27140E" d="M405.098,453.787H190.396c-0.848,0-1.561-0.629-1.673-1.465c-1.08-8.115,0.093-14.191,3.489-18.069
					c2.93-3.347,7.479-5.043,13.518-5.043c0.579,0,1.178,0.014,1.789,0.044v-40.238c0-0.649,0.378-1.248,0.972-1.523l0.326-0.156
					c7.479-3.535,12.418-5.874,19.195-5.874c1.499,0,3.027,0.12,4.678,0.353c4.775,0.672,8.923,2.974,12.932,5.207
					c4.15,2.303,8.073,4.483,12.386,4.737c0.43,0.021,0.873,0.037,1.314,0.037c6.029,0,11.841-2.347,17.99-4.835
					c6.412-2.593,13.043-5.275,20.23-5.275c0.863,0,1.727,0.039,2.57,0.112c6.855,0.636,11.668,2.989,16.318,5.276
					c5.037,2.473,9.797,4.812,16.968,4.812h0.003c0.944,0,1.938-0.046,2.938-0.128c4.768-0.396,9.717-2.429,14.959-4.595
					c6.247-2.578,12.707-5.239,19.396-5.239c6.164,0,11.638,2.271,16.729,6.957c0.349,0.321,0.549,0.771,0.549,1.248v38.521
					c1.207,0.292,2.478,0.539,3.716,0.784c4.612,0.904,9.381,1.847,12.393,4.873c0.119,0.118,0.224,0.262,0.302,0.417
					c2.107,4.065,2.894,9.789,2.399,17.479C406.727,453.098,405.991,453.787,405.098,453.787z M191.902,450.408h211.589
					c0.254-6.104-0.4-10.663-1.991-13.892c-2.32-2.167-6.456-2.98-10.466-3.766c-1.729-0.345-3.517-0.695-5.2-1.159
					c-0.732-0.201-1.244-0.866-1.244-1.629v-39.088c-4.277-3.743-8.832-5.574-13.895-5.574c-6.021,0-12.166,2.533-18.11,4.991
					c-5.245,2.159-10.67,4.401-15.964,4.835c-1.095,0.09-2.175,0.134-3.218,0.134H333.4c-7.954,0-13.294-2.614-18.457-5.155
					c-4.577-2.248-8.903-4.371-15.137-4.938c-0.742-0.067-1.501-0.104-2.264-0.104c-6.531,0-12.854,2.563-18.965,5.028
					c-6.178,2.505-12.564,5.082-19.258,5.082c-0.508,0-1.016-0.015-1.518-0.036c-5.076-0.3-9.521-2.773-13.822-5.164
					c-3.913-2.175-7.607-4.229-11.763-4.812c-1.498-0.209-2.868-0.312-4.207-0.312c-5.836,0-10.397,2.069-17.107,5.244v40.979
					c0,0.479-0.206,0.935-0.557,1.256c-0.355,0.321-0.826,0.479-1.297,0.434c-6.739-0.657-11.563,0.599-14.299,3.723
					C192.224,439.372,191.264,444.057,191.902,450.408z"/>
			</g>
		</g>
		<g>
			<g>
				<path fill="#4E4E4E" d="M209.344,431.069c-14.694-1.411-20.849,5.71-18.812,21.026c71.565,0,143.13,0,214.695,0
					c0.428-6.693-0.073-12.463-2.212-16.595c-3.681-3.7-10.812-3.945-16.604-5.538L209.344,431.069z"/>
			</g>
			<g>
				<path fill="#27140E" d="M405.229,453.787H190.532c-0.845,0-1.565-0.629-1.678-1.465c-1.08-8.115,0.093-14.198,3.489-18.069
					c3.478-3.976,9.206-5.611,17.075-4.872l176.986-1.104c0.161-0.009,0.307,0.021,0.456,0.06c1.564,0.426,3.292,0.771,4.958,1.099
					c4.613,0.904,9.382,1.847,12.394,4.873c0.123,0.118,0.224,0.262,0.302,0.417c2.111,4.065,2.896,9.789,2.402,17.479
					C406.861,453.098,406.121,453.787,405.229,453.787z M192.033,450.408h211.592c0.255-6.104-0.398-10.663-1.991-13.892
					c-2.318-2.167-6.459-2.98-10.465-3.766c-1.655-0.329-3.359-0.658-4.972-1.092l-176.843,1.105c-0.056,0-0.112-0.008-0.172-0.008
					c-6.74-0.657-11.564,0.599-14.299,3.722C192.354,439.372,191.398,444.057,192.033,450.408z"/>
			</g>
		</g>
		<g>
			<g>
				<path fill="#FDD71E" d="M295.188,250.759c14.212,6.744,32.661,38.804,7.748,46.479c7.458-6.248-0.074-17.609-5.537-21.027
					c-1.186,5.453-5.93,7.348-7.744,12.176c-0.848,5.274,1.561,7.289,4.427,8.852c-8.97,0.06-15.207-9.123-14.388-17.706
					C280.746,268.521,297.421,262.973,295.188,250.759z"/>
			</g>
			<g>
				<path fill="#27140E" d="M293.998,298.93c-4.191,0-8.16-1.82-11.167-5.131c-3.513-3.859-5.313-9.258-4.824-14.429
					c0.534-5.556,4.47-9.699,8.269-13.704c4.279-4.503,8.316-8.755,7.248-14.605c-0.114-0.624,0.131-1.259,0.631-1.645
					c0.507-0.388,1.186-0.459,1.758-0.19c10.245,4.865,21.868,21.208,20.931,34.206c-0.378,5.269-3.016,12.221-13.41,15.424
					c-0.769,0.234-1.599-0.102-1.979-0.812c-0.385-0.703-0.218-1.585,0.396-2.101c1.854-1.555,2.67-3.5,2.498-5.959
					c-0.287-4.158-3.319-8.504-6.093-10.996c-0.952,2.135-2.384,3.729-3.688,5.183c-1.308,1.465-2.551,2.849-3.269,4.652
					c-0.635,4.255,1.169,5.61,3.595,6.931c0.676,0.37,1.017,1.148,0.83,1.896c-0.191,0.748-0.859,1.271-1.63,1.277h-0.095V298.93z
					 M297.059,253.77c-0.363,5.836-4.56,10.256-8.328,14.225c-3.567,3.755-6.935,7.301-7.354,11.697
					c-0.406,4.242,1.073,8.664,3.957,11.836c0.953,1.047,2.021,1.906,3.172,2.557c-0.664-1.518-0.926-3.447-0.521-5.97
					c0.018-0.109,0.049-0.218,0.09-0.321c0.93-2.479,2.476-4.207,3.974-5.878c1.619-1.804,3.147-3.508,3.703-6.063
					c0.116-0.537,0.485-0.981,0.994-1.199c0.509-0.213,1.087-0.163,1.555,0.128c4.309,2.7,9.017,9.034,9.422,14.971
					c0.09,1.293-0.024,2.519-0.339,3.669c3.721-2.354,5.766-5.779,6.086-10.23C314.215,272.852,305.569,259.441,297.059,253.77z"/>
			</g>
		</g>
	</g>
</g>
</svg>
