<?xml version="1.0" encoding="utf-8"?>
<!-- Generator: Adobe Illustrator 16.0.0, SVG Export Plug-In . SVG Version: 6.00 Build 0)  -->
<!DOCTYPE svg PUBLIC "-//W3C//DTD SVG 1.1//EN" "http://www.w3.org/Graphics/SVG/1.1/DTD/svg11.dtd">
<svg version="1.1" id="Layer_1" xmlns="http://www.w3.org/2000/svg" xmlns:xlink="http://www.w3.org/1999/xlink" x="0px" y="0px"
	 width="500px" height="500px" viewBox="0 0 500 500" enable-background="new 0 0 500 500" xml:space="preserve">
<g id="Layer_1_copy_37">
	<g>
		<g>
			<g>
				<rect x="139.978" y="338.468" fill="#6C5422" width="46.782" height="71.394"/>
			</g>
			<g>
				<path fill="#3C2517" d="M186.76,411.674h-46.782c-1.001,0-1.807-0.812-1.807-1.812v-71.394c0-0.999,0.806-1.807,1.807-1.807
					h46.782c0.998,0,1.806,0.808,1.806,1.807v71.394C188.565,410.863,187.758,411.674,186.76,411.674z M141.787,408.052h43.161
					v-67.772h-43.161V408.052z"/>
			</g>
			<g>
				<path fill="#186734" d="M78.678,272.307c0,0-19.577,28.536-50.745,51.928c-31.162,23.392,11.103,24.758,11.103,24.758
					s0.794,27.572,47.178,3.391c-5.156,23.784,23.784,0,23.784,0s8.723,16.65,27.35,15.46c18.633-1.188,18.793-24.579,18.793-24.579
					s12.128,28.547,27.591,0.795c10.703,13.082,19.427,13.279,31.714,11.196c12.286-2.083,7.533-13.971,7.533-13.971
					s8.724,14.63,25.763,7.708c6.703-3.604,3.568-10.877,3.568-10.877s34.096,19.818,39.646-1.99
					c-5.553-16.646-52.729-63.818-52.729-63.818l-42.814-35.805C196.412,236.501,85.016,237.023,78.678,272.307z"/>
			</g>
			<g>
				<path fill="#3C2517" d="M135.459,369.713c-14.711,0-23.08-10.314-25.944-14.64c-3.871,2.979-13.255,9.688-19.432,9.688
					c-2.551,0-3.994-1.126-4.752-2.068c-1.268-1.567-1.753-3.904-1.46-7.098c-11.498,5.66-21.114,8.528-28.636,8.528l0,0
					c-13.838,0-17.057-9.474-17.793-13.401c-5.122-0.334-19.982-1.971-22.434-9.736c-1.602-5.066,2.271-11.021,11.842-18.2
					c28.837-21.646,47.918-48.081,50.124-51.202c7.25-35.955,114.838-36.871,119.429-36.895c0.508,0.037,0.844,0.149,1.169,0.425
					l42.815,35.801c2.058,2.048,47.664,47.776,53.288,64.637c0.111,0.33,0.12,0.685,0.036,1.021
					c-1.934,7.589-7.345,11.598-15.648,11.598c-8.508,0-18.166-4.159-23.203-6.663c0.104,3.114-1.014,6.792-5.257,9.077
					c-0.063,0.03-0.121,0.06-0.187,0.086c-3.246,1.319-6.46,1.992-9.539,1.992c-6.414,0-11.143-2.83-14.212-5.544
					c-0.094,1.505-0.453,3.098-1.292,4.585c-1.589,2.844-4.493,4.638-8.633,5.337c-4.156,0.703-7.095,1.004-9.823,1.004
					c-8.472,0-15.139-3.277-21.911-10.88c-4.452,7.194-9.176,10.83-14.072,10.83c-5.662,0-10.033-4.894-12.662-8.907
					c-1.436,7.491-5.909,19.672-19.81,20.561C136.779,369.693,136.113,369.713,135.459,369.713z M109.992,350.575
					c0.123,0,0.237,0.01,0.362,0.034c0.531,0.106,0.991,0.449,1.242,0.931c0.083,0.153,8.461,15.619,25.636,14.496
					c16.71-1.065,17.085-21.899,17.094-22.785c0.013-0.86,0.612-1.589,1.456-1.76c0.84-0.171,1.687,0.274,2.021,1.065
					c1.402,3.284,6.32,11.821,12.131,11.821c3.909,0,8.135-3.872,12.217-11.202c0.292-0.523,0.828-0.865,1.425-0.921
					c0.611-0.062,1.176,0.194,1.562,0.657c6.688,8.179,12.712,11.513,20.78,11.513c2.519,0,5.276-0.284,9.218-0.956
					c3-0.505,5.041-1.691,6.079-3.521c1.883-3.333,0.093-7.952,0.086-7.996c-0.351-0.881,0.036-1.878,0.88-2.291
					c0.844-0.416,1.867-0.116,2.35,0.695c0.213,0.348,5.357,8.688,15.348,8.688c2.58,0,5.304-0.571,8.091-1.69
					c5.069-2.803,2.785-8.295,2.679-8.527c-0.304-0.717-0.119-1.549,0.461-2.072c0.588-0.513,1.439-0.596,2.11-0.205
					c0.142,0.078,13.916,8.004,24.847,8.004c6.451,0,10.387-2.736,11.998-8.354c-6.117-16.5-51.648-62.149-52.114-62.614
					l-42.181-35.265c-9.14,0.122-109.545,2.261-115.312,34.307c-0.046,0.251-0.139,0.493-0.287,0.701
					c-0.198,0.29-20.105,29.06-51.144,52.354c-7.848,5.891-11.604,10.942-10.568,14.219c1.531,4.863,13.472,7.049,20.641,7.285
					c0.95,0.027,1.721,0.801,1.749,1.756c0.017,0.464,0.588,11.565,14.39,11.568l0,0c7.616,0,17.756-3.277,30.137-9.729
					c0.621-0.323,1.376-0.261,1.938,0.167c0.557,0.425,0.819,1.133,0.667,1.82c-1.104,5.105-0.366,6.985,0.168,7.657
					c0.253,0.308,0.72,0.72,1.938,0.72c5.244,0,15.326-7.33,18.765-10.16C109.172,350.716,109.58,350.575,109.992,350.575z"/>
			</g>
			<g>
				<path fill="#169C49" d="M111.325,201.899c0,0-29.476,34.725-49.3,48.996c-19.817,14.272,6.094,25.371,24.651,19.029
					c-0.863,24.582,29.664,10.708,39.174,2.383c12.291,21.405,22.517,11.096,30.289,0c11.337,12.686,20.454,0,20.454,0
					s22.991,20.213,22.991-4.358c22.203,13.474,27.355,6.737,26.965-1.985c2.379,3.569,32.498,11.1,21.006-13.479
					c-19.454-31.631-42.416-61.457-42.416-61.457l-59.863-28.135L111.325,201.899z"/>
			</g>
			<g>
				<path fill="#3C2517" d="M140.401,286.596c-5.275,0-10.205-3.789-15.032-11.568c-6.156,4.697-17.686,10.59-27.006,10.59
					c-4.221,0-7.538-1.223-9.862-3.631c-2.181-2.256-3.392-5.487-3.613-9.637c-3.059,0.797-6.354,1.213-9.675,1.213l0,0
					c-10.868,0-19.801-4.166-21.723-10.129c-1.027-3.192-0.567-8.209,7.481-14.002c19.413-13.981,48.683-48.356,48.979-48.704
					l33.96-39.025c0.535-0.609,1.403-0.794,2.136-0.447l59.858,28.131c0.268,0.126,0.49,0.309,0.666,0.538
					c0.235,0.3,23.241,30.26,42.523,61.614c0.042,0.054,0.069,0.117,0.1,0.177c3.155,6.748,3.618,11.951,1.374,15.479
					c-1.875,2.957-5.525,4.516-10.555,4.516c-4.007,0-8.673-1.061-11.788-2.484c-0.32,2.354-1.148,4.237-2.473,5.629
					c-1.621,1.686-3.869,2.543-6.708,2.543c-4.456,0-10.296-2.088-17.784-6.36c-0.819,8.919-5.26,10.899-9.046,10.899
					c-5.705,0-12.504-4.82-15.396-7.105c-1.81,1.888-5.473,4.923-10.337,4.923c-3.489,0-6.897-1.555-10.134-4.629
					C151.996,281.053,146.767,286.596,140.401,286.596z M125.851,270.492c0.104,0,0.202,0.014,0.301,0.027
					c0.535,0.088,0.999,0.414,1.271,0.883c4.405,7.68,8.777,11.574,12.979,11.574c5.365,0,10.438-6.256,14.254-11.705
					c0.316-0.457,0.827-0.736,1.374-0.771c0.552-0.035,1.09,0.186,1.457,0.598c2.986,3.342,6.011,5.033,8.994,5.033
					c5.037,0,8.613-4.837,8.65-4.888c0.301-0.41,0.757-0.683,1.263-0.736c0.506-0.067,1.017,0.104,1.399,0.435
					c2.333,2.052,9.477,7.375,14.421,7.375c1.375,0,5.564,0,5.564-10.368c0-0.659,0.35-1.261,0.922-1.579
					c0.568-0.32,1.264-0.312,1.824,0.029c8.063,4.896,14.298,7.373,18.52,7.373c1.83,0,3.168-0.465,4.091-1.422
					c1.489-1.562,1.694-4.291,1.601-6.306c-0.037-0.812,0.477-1.547,1.246-1.803c0.773-0.255,1.621,0.038,2.074,0.716
					c0.732,0.893,6.316,3.132,11.957,3.132c2.602,0,6.009-0.491,7.502-2.841c1.507-2.364,0.972-6.48-1.555-11.906
					c-18.056-29.335-39.376-57.442-41.992-60.866l-58.223-27.368l-33.054,37.978c-1.194,1.409-29.834,35.042-49.604,49.28
					c-3.47,2.493-7.35,6.247-6.147,9.954c1.395,4.347,9.254,7.621,18.273,7.621l0,0c3.806,0,7.567-0.599,10.879-1.729
					c0.565-0.195,1.188-0.096,1.664,0.26c0.481,0.354,0.753,0.924,0.731,1.516c-0.152,4.34,0.729,7.527,2.617,9.488
					c1.613,1.67,4.058,2.521,7.259,2.521c8.913,0,20.998-6.419,26.295-11.057C124.995,270.654,125.419,270.492,125.851,270.492z"/>
			</g>
			<g>
				<path fill="#2DB34A" d="M157.963,92.726c0,0-54.312,92.345-60.258,98.302c-5.946,5.954-0.789,14.678,11.497,6.749
					c3.567,12.287,16.648,3.967,22.988-2.379c15.069,14.666,25.772,7.533,34.102-2.377c11.093,11.102,24.573,13.854,24.178-1.992
					c12.688,9.524,25.768,9.524,26.562,1.992c0.791-7.53-40.218-65.692-46.765-85.642C163.513,86.773,159.935,89.38,157.963,92.726z
					"/>
			</g>
			<g>
				<path fill="#3C2517" d="M116.379,205.905c-2.667,0-6.078-1.008-8.119-5.46c-2.811,1.537-5.411,2.312-7.749,2.312
					c-3.109,0-5.575-1.473-6.592-3.936c-1.189-2.857-0.227-6.336,2.507-9.069c4.744-4.757,44.9-72.316,59.979-97.946
					c0.464-0.784,1.868-3.169,4.328-3.169c2.616,0,6.004,2.161,11.255,18.178c3.241,9.884,15.504,29.967,26.322,47.691
					c13.395,21.949,20.953,34.569,20.521,38.701c-0.47,4.413-4.119,7.044-9.761,7.044l0,0c-5.106-0.004-11.143-2.106-16.933-5.854
					c-0.354,3.039-1.336,5.403-2.938,7.047c-1.592,1.631-3.773,2.494-6.316,2.494c-4.757,0-10.818-3.068-16.473-8.289
					c-4.109,4.623-10.104,9.917-17.763,9.917c-5.392,0-10.781-2.51-16.438-7.672C127.784,201.963,121.653,205.905,116.379,205.905z
					 M109.202,195.968c0.209,0,0.428,0.039,0.634,0.113c0.535,0.202,0.942,0.644,1.103,1.191c1.309,4.496,3.733,5.014,5.44,5.014
					c4.397,0,10.472-4.103,14.537-8.169c0.695-0.701,1.836-0.707,2.542-0.014c5.347,5.204,10.453,7.843,15.189,7.843
					c5.309,0,10.472-3.208,16.258-10.092c0.324-0.387,0.794-0.623,1.304-0.644c0.478-0.015,1.001,0.17,1.358,0.529
					c5.291,5.293,11.16,8.583,15.315,8.583c1.563,0,2.819-0.473,3.729-1.405c1.432-1.47,2.139-4.18,2.049-7.847
					c-0.018-0.693,0.365-1.333,0.983-1.652c0.612-0.319,1.357-0.253,1.909,0.16c5.885,4.417,12.432,7.053,17.517,7.053l0,0
					c2.149,0,5.815-0.498,6.165-3.803c0.324-3.117-10.954-21.592-20.016-36.439c-11.456-18.764-23.293-38.169-26.673-48.45
					c-5.08-15.505-7.702-15.684-7.813-15.684c0,0-0.432,0.06-1.215,1.385c-2.216,3.779-54.492,92.617-60.532,98.664
					c-1.65,1.656-2.334,3.668-1.729,5.127c0.458,1.103,1.614,1.705,3.255,1.705c1.478,0,4.017-0.5,7.711-2.882
					C108.519,196.064,108.859,195.968,109.202,195.968z"/>
			</g>
			<g>
				<path fill="#FEDA00" d="M150.47,81.091c1.852-0.132,4.14-1.543,5.069-3.154l4.227-7.245c0.933-1.608,2.437-1.595,3.333,0.04
					l3.469,6.287c0.889,1.628,3.11,3.276,4.935,3.654l9.409,1.961c1.832,0.371,2.156,1.662,0.729,2.859l-6.987,5.866
					c-1.419,1.193-2.2,3.65-1.719,5.446l2.732,10.353c0.477,1.798-0.503,2.599-2.177,1.788l-10.979-5.35
					c-1.672-0.816-4.325-0.659-5.889,0.34l-9.77,6.265c-1.555,1.009-2.37,0.383-1.798-1.391l3.691-11.413
					c0.571-1.77-0.099-4.226-1.489-5.456l-8.639-7.642c-1.386-1.234-1.012-2.343,0.844-2.475L150.47,81.091z"/>
			</g>
			<g>
				<path fill="#FEDA00" d="M150.47,81.091c1.852-0.132,4.14-1.543,5.069-3.154l4.227-7.245c0.933-1.608,2.437-1.595,3.333,0.04
					l3.469,6.287c0.889,1.628,3.11,3.276,4.935,3.654l9.409,1.961c1.832,0.371,2.156,1.662,0.729,2.859l-6.987,5.866
					c-1.419,1.193-2.2,3.65-1.719,5.446l2.732,10.353c0.477,1.798-0.503,2.599-2.177,1.788l-10.979-5.35
					c-1.672-0.816-4.325-0.659-5.889,0.34l-9.77,6.265c-1.555,1.009-2.37,0.383-1.798-1.391l3.691-11.413
					c0.571-1.77-0.099-4.226-1.489-5.456l-8.639-7.642c-1.386-1.234-1.012-2.343,0.844-2.475L150.47,81.091z"/>
			</g>
			<g>
				<path fill="#3C2517" d="M145.598,112.494c-0.823,0-1.56-0.368-2.021-1.002c-0.597-0.811-0.678-1.899-0.242-3.237l3.689-11.415
					c0.347-1.071-0.123-2.795-0.966-3.542l-8.637-7.644c-1.753-1.555-1.503-3.02-1.312-3.582c0.189-0.562,0.885-1.885,3.226-2.054
					l11.016-0.736c1.264-0.087,2.996-1.159,3.63-2.249l4.217-7.253c0.773-1.331,1.954-2.097,3.234-2.097
					c1.305,0,2.493,0.794,3.25,2.175l3.466,6.288c0.646,1.173,2.415,2.481,3.724,2.753l9.416,1.959
					c1.57,0.326,2.657,1.22,2.966,2.454c0.309,1.233-0.223,2.535-1.448,3.567l-6.987,5.862c-0.881,0.741-1.432,2.49-1.136,3.59
					l2.732,10.364c0.44,1.66,0,2.703-0.449,3.287c-0.893,1.163-2.546,1.427-4.267,0.591l-10.981-5.352
					c-1.039-0.504-3.146-0.384-4.124,0.24l-9.762,6.261C147.047,112.237,146.288,112.494,145.598,112.494z M140.524,83.566
					l7.934,7.02c1.912,1.696,2.799,4.932,2.008,7.37l-3.173,9.818l8.354-5.361c2.038-1.295,5.485-1.498,7.652-0.443l10.469,5.098
					l-2.583-9.801c-0.654-2.447,0.357-5.654,2.3-7.296l6.72-5.64l-9.073-1.888c-2.351-0.485-4.996-2.444-6.156-4.551l-3.46-6.288
					c-0.033-0.057-0.066-0.107-0.095-0.146c-0.024,0.039-0.062,0.089-0.091,0.143l-4.226,7.25c-1.234,2.132-4.032,3.872-6.511,4.042
					L140.524,83.566z"/>
			</g>
			<g>
				<g>
					<path fill="#F8ED39" d="M135.162,162.893c0,1.362-1.226,2.473-2.731,2.473c-1.507,0-2.729-1.111-2.729-2.473
						c0-1.37,1.223-2.479,2.729-2.479C133.937,160.413,135.162,161.522,135.162,162.893z"/>
				</g>
			</g>
			<g>
				<g>
					<path fill="#F8ED39" d="M167.233,131.772c0,1.365-1.218,2.479-2.731,2.479c-1.506,0-2.732-1.113-2.732-2.479
						c0-1.366,1.227-2.473,2.732-2.473C166.016,129.299,167.233,130.406,167.233,131.772z"/>
				</g>
			</g>
			<g>
				<g>
					<path fill="#F8ED39" d="M177.541,162.893c0,1.362-1.222,2.473-2.728,2.473c-1.51,0-2.732-1.111-2.732-2.473
						c0-1.37,1.223-2.479,2.732-2.479C176.319,160.413,177.541,161.522,177.541,162.893z"/>
				</g>
			</g>
			<g>
				<path fill="#F8ED39" d="M149.198,184.895c0,1.367-1.222,2.476-2.731,2.476c-1.502,0-2.729-1.109-2.729-2.476
					c0-1.368,1.228-2.481,2.729-2.481C147.977,182.414,149.198,183.527,149.198,184.895z"/>
			</g>
			<g>
				<path fill="#F8ED39" d="M124.225,218.201c0,1.362-1.221,2.473-2.731,2.473c-1.506,0-2.732-1.111-2.732-2.473
					c0-1.371,1.227-2.483,2.732-2.483C123.004,215.717,124.225,216.83,124.225,218.201z"/>
			</g>
			<g>
				<path fill="#F8ED39" d="M109.354,256.445c0,1.371-1.218,2.479-2.729,2.479c-1.507,0-2.732-1.106-2.732-2.479
					c0-1.364,1.226-2.475,2.732-2.475C108.137,253.971,109.354,255.081,109.354,256.445z"/>
			</g>
			<g>
				<path fill="#F8ED39" d="M189.492,251.1c0,1.365-1.23,2.475-2.732,2.475c-1.516,0-2.733-1.108-2.733-2.475
					c0-1.37,1.218-2.479,2.733-2.479C188.262,248.622,189.492,249.73,189.492,251.1z"/>
			</g>
			<g>
				<path fill="#F8ED39" d="M176.551,213.245c0,1.365-1.224,2.473-2.733,2.473c-1.506,0-2.732-1.107-2.732-2.473
					c0-1.367,1.227-2.479,2.732-2.479C175.327,210.765,176.551,211.878,176.551,213.245z"/>
			</g>
			<g>
				<ellipse fill="#F8ED39" cx="82.84" cy="294.308" rx="2.729" ry="2.477"/>
			</g>
			<g>
				<g>
					<path fill="#F8ED39" d="M64.758,332.166c0,1.367-1.223,2.48-2.732,2.48c-1.507,0-2.729-1.113-2.729-2.48
						c0-1.366,1.223-2.477,2.729-2.477C63.535,329.689,64.758,330.799,64.758,332.166z"/>
				</g>
			</g>
			<g>
				<path fill="#F8ED39" d="M105.589,315.122c0,1.364-1.222,2.476-2.728,2.476c-1.512,0-2.733-1.111-2.733-2.476
					c0-1.367,1.222-2.479,2.733-2.479C104.367,312.641,105.589,313.754,105.589,315.122z"/>
			</g>
			<g>
				<ellipse fill="#F8ED39" cx="132.79" cy="294.308" rx="2.73" ry="2.477"/>
			</g>
			<g>
				<path fill="#F8ED39" d="M131.953,342.077c0,1.364-1.222,2.478-2.732,2.478c-1.507,0-2.732-1.111-2.732-2.478
					s1.226-2.479,2.732-2.479C130.731,339.598,131.953,340.711,131.953,342.077z"/>
			</g>
			<g>
				<path fill="#F8ED39" d="M156.946,323.841c0,1.366-1.222,2.478-2.73,2.478c-1.508,0-2.733-1.11-2.733-2.478
					c0-1.364,1.226-2.475,2.733-2.475C155.725,321.367,156.946,322.477,156.946,323.841z"/>
			</g>
			<g>
				<path fill="#F8ED39" d="M179.283,295.698c0,1.362-1.224,2.476-2.732,2.476c-1.512,0-2.733-1.113-2.733-2.476
					c0-1.371,1.222-2.48,2.733-2.48C178.06,293.217,179.283,294.327,179.283,295.698z"/>
			</g>
			<g>
				<path fill="#F8ED39" d="M199.943,328.798c0,1.364-1.222,2.476-2.737,2.476c-1.502,0-2.729-1.11-2.729-2.476
					c0-1.371,1.227-2.479,2.729-2.479C198.722,326.318,199.943,327.427,199.943,328.798z"/>
			</g>
			<g>
				<g>
					<path fill="#F8ED39" d="M217.975,296.789c0,1.365-1.222,2.475-2.725,2.475c-1.506,0-2.736-1.109-2.736-2.475
						c0-1.37,1.23-2.48,2.736-2.48C216.753,294.309,217.975,295.418,217.975,296.789z"/>
				</g>
			</g>
			<g>
				<g>
					<path fill="#F8ED39" d="M242.158,323.841c0,1.366-1.219,2.478-2.729,2.478c-1.511,0-2.737-1.11-2.737-2.478
						c0-1.364,1.227-2.475,2.737-2.475C240.939,321.367,242.158,322.477,242.158,323.841z"/>
				</g>
			</g>
			<g>
				<g>
					<path fill="#F8ED39" d="M250.165,303.827c0,1.362-1.227,2.474-2.732,2.474c-1.51,0-2.728-1.111-2.728-2.474
						c0-1.37,1.218-2.483,2.728-2.483C248.938,301.343,250.165,302.457,250.165,303.827z"/>
				</g>
			</g>
			<g>
				<path fill="#F8ED39" d="M147.018,238.98c0,1.362-1.227,2.475-2.732,2.475c-1.507,0-2.733-1.112-2.733-2.475
					c0-1.37,1.227-2.479,2.733-2.479C145.791,236.501,147.018,237.61,147.018,238.98z"/>
			</g>
			<g>
				<g>
					<path fill="#F8ED39" d="M210.839,223.153c0,1.371-1.218,2.475-2.725,2.475c-1.509,0-2.735-1.104-2.735-2.475
						c0-1.366,1.227-2.479,2.735-2.479C209.621,220.674,210.839,221.787,210.839,223.153z"/>
				</g>
			</g>
			<g>
				<g>
					<path fill="#F8ED39" d="M217.975,248.622c0,1.362-1.222,2.476-2.725,2.476c-1.506,0-2.736-1.114-2.736-2.476
						c0-1.37,1.23-2.48,2.736-2.48C216.753,246.142,217.975,247.251,217.975,248.622z"/>
				</g>
			</g>
			<g>
				<circle fill="#D71F27" cx="121.493" cy="181.279" r="9.711"/>
			</g>
			<g>
				<path fill="#3C2517" d="M121.493,192.802c-6.35,0-11.521-5.167-11.521-11.522c0-6.351,5.172-11.517,11.521-11.517
					c6.349,0,11.518,5.167,11.518,11.517C133.011,187.635,127.843,192.802,121.493,192.802z M121.493,173.377
					c-4.357,0-7.906,3.548-7.906,7.902c0,4.356,3.549,7.903,7.906,7.903s7.905-3.547,7.905-7.903
					C129.398,176.925,125.851,173.377,121.493,173.377z"/>
			</g>
			<g>
				<path fill="#D71F27" d="M223.57,298.173c0,5.364-4.35,9.71-9.715,9.71c-5.357,0-9.711-4.346-9.711-9.71s4.354-9.713,9.711-9.713
					C219.221,288.46,223.57,292.809,223.57,298.173z"/>
			</g>
			<g>
				<path fill="#3C2517" d="M213.855,309.695c-6.354,0-11.517-5.172-11.517-11.521c0-6.355,5.163-11.523,11.517-11.523
					s11.521,5.168,11.521,11.523C225.377,304.523,220.209,309.695,213.855,309.695z M213.855,290.27
					c-4.354,0-7.896,3.545-7.896,7.903c0,4.354,3.543,7.897,7.896,7.897c4.361,0,7.909-3.543,7.909-7.897
					C221.765,293.814,218.217,290.27,213.855,290.27z"/>
			</g>
			<g>
				<path fill="#D71F27" d="M188.993,232.866c0,5.364-4.354,9.713-9.71,9.713c-5.367,0-9.717-4.349-9.717-9.713
					c0-5.363,4.35-9.713,9.717-9.713C184.64,223.153,188.993,227.502,188.993,232.866z"/>
			</g>
			<g>
				<path fill="#3C2517" d="M179.283,244.384c-6.354,0-11.526-5.167-11.526-11.518c0-6.351,5.172-11.524,11.526-11.524
					c6.352,0,11.518,5.173,11.518,11.524C190.801,239.217,185.635,244.384,179.283,244.384z M179.283,224.966
					c-4.358,0-7.902,3.544-7.902,7.9c0,4.356,3.544,7.903,7.902,7.903c4.356,0,7.9-3.547,7.9-7.903
					C187.184,228.51,183.64,224.966,179.283,224.966z"/>
			</g>
			<g>
				<circle fill="#D71F27" cx="102.861" cy="317.597" r="9.711"/>
			</g>
			<g>
				<path fill="#3C2517" d="M102.861,329.118c-6.354,0-11.522-5.169-11.522-11.521c0-6.354,5.169-11.522,11.522-11.522
					s11.521,5.17,11.521,11.522C114.382,323.949,109.215,329.118,102.861,329.118z M102.861,309.695
					c-4.358,0-7.901,3.543-7.901,7.902c0,4.355,3.543,7.899,7.901,7.899c4.357,0,7.899-3.544,7.899-7.899
					C110.761,313.238,107.219,309.695,102.861,309.695z"/>
			</g>
		</g>
		<g>
			<g>
				<path fill="#8E5B24" d="M367.386,254.697l-6.494-1.885l-6.46,17.645l20.623,17.47l2.383-15.013
					C377.438,272.914,369.418,274.439,367.386,254.697z"/>
				<path fill="#3C2517" d="M375.055,290.24c-0.542,0-1.068-0.186-1.497-0.549l-20.625-17.467c-0.738-0.625-1.012-1.648-0.678-2.562
					l6.465-17.645c0.415-1.14,1.643-1.77,2.814-1.426l6.496,1.885c0.904,0.264,1.561,1.047,1.659,1.982
					c1.309,12.761,5.233,16.166,7.349,16.166c0.746-0.136,1.485,0.096,2.029,0.617c0.538,0.527,0.772,1.287,0.653,2.031
					l-2.383,15.017c-0.132,0.821-0.699,1.512-1.48,1.806C375.598,290.195,375.326,290.24,375.055,290.24z M357.16,269.74
					l16.253,13.764l1.366-8.618c-3.271-1.079-7.849-5.054-9.519-18.396l-2.937-0.852L357.16,269.74z"/>
			</g>
			<g>
				<path fill="#A7732C" d="M327.722,275.675c0,0,1.938-4.582,2.732-17.009c0,0-1.585-6.173,8.638-4.584
					c10.227,1.585,4.987-3.172,11.707-1.673c6.719,1.498,10.683,0.264,10.683,0.264s1.324,20.714,5.904,22.562
					c4.583,1.85-11.634,17.806-11.634,17.806s-24.503-3.712-28.385-17.368C327.722,275.675,327.722,275.675,327.722,275.675z"/>
				<path fill="#3C2517" d="M355.752,295.355c-0.114,0-0.229-0.008-0.345-0.025c-1.062-0.16-26.027-4.107-30.263-19.029
					c-0.204-0.703-0.058-1.463,0.393-2.039c0.106-0.138,0.219-0.259,0.349-0.363c0.535-1.793,1.672-6.45,2.244-15.097
					c-0.136-0.886-0.235-2.888,1.135-4.655c1.808-2.326,5.206-3.121,10.187-2.352c1.283,0.199,2.369,0.303,3.221,0.303
					c1.522,0,1.75-0.24,2.127-0.636c0.795-0.833,2.301-2.248,6.502-1.314c2.041,0.456,4.018,0.688,5.865,0.688
					c2.328,0,3.633-0.372,3.648-0.379c0.675-0.198,1.411-0.08,1.983,0.32c0.576,0.404,0.95,1.047,0.995,1.744
					c0.638,9.94,2.732,19.557,4.49,20.582c1.119,0.449,1.917,1.402,2.154,2.601c0.89,4.459-7.801,13.812-13.061,18.985
					C356.941,295.118,356.357,295.355,355.752,295.355z M329.998,276.204c3.908,9.646,20.483,13.476,24.98,14.348
					c5.41-5.452,10.098-11.335,10.812-13.56c-4.209-2.848-5.83-14.549-6.432-21.626c-0.635,0.058-1.366,0.102-2.195,0.102
					c-2.187,0-4.499-0.271-6.873-0.802c-1.078-0.239-1.967-0.221-1.971-0.221c-0.024,0.037-0.092,0.125-0.169,0.209
					c-1.006,1.048-2.247,2.07-5.481,2.07c-1.104,0-2.391-0.117-3.934-0.356c-2.938-0.461-5.151-0.201-5.803,0.597
					c-0.371,0.459-0.226,1.166-0.226,1.174c0.039,0.202,0.069,0.469,0.058,0.676C332.067,269.706,330.483,274.848,329.998,276.204z"
					/>
			</g>
			<g>
				<path fill="#F47826" d="M320.404,275.588c0,0-64.869-3.175-66.807,83.555c-1.939,86.733,58.522,79.331,58.522,79.331
					s87.438,1.725,96.955,0.15c9.324-1.529,52.639-8.666,49.608-93.922c-0.058-1.793-0.501-6.726-0.976-8.771
					c-1.637-7.027-5.922-23.478-11.793-31.259c0,0-14.924-33.131-55.524-34.218c-1.489-0.033-7.901,0.993-9.35,1.414
					C363.468,277.02,365.04,276.076,320.404,275.588z"/>
				<path fill="#3C2517" d="M382.319,441.601c-27.748,0-67.346-0.762-70.095-0.814c-0.447,0.05-1.716,0.161-3.575,0.161
					c-6.77,0-23.98-1.522-37.745-15.596c-13.688-13.998-20.29-36.293-19.62-66.262c1.866-83.422,61.468-85.832,68.258-85.832
					c0.637,0,0.979,0.018,0.979,0.018c6.678,0.074,12.38,0.156,17.248,0.229c27.034,0.403,28.06,0.416,42.623-3.854
					c1.537-0.446,7.975-1.508,9.915-1.508c39.809,1.064,56.058,32.176,57.597,35.326c5.864,7.93,10.069,23.383,12.062,31.938
					c0.522,2.245,0.972,7.315,1.033,9.215c1.999,56.299-16.307,90.499-51.552,96.287
					C406.633,441.374,397.757,441.601,382.319,441.601z M312.121,436.161c0.019,0,0.03,0,0.046,0
					c0.416,0.004,41.585,0.811,70.152,0.811c18.65,0,24.639-0.341,26.379-0.628c32.651-5.365,49.579-37.883,47.676-91.562
					c-0.059-1.7-0.495-6.486-0.914-8.325c-1.557-6.651-5.762-22.931-11.386-30.388c-0.108-0.135-0.193-0.285-0.265-0.438
					c-0.589-1.298-14.88-31.824-53.479-32.855c-1.389,0-7.359,0.945-8.639,1.317c-11.395,3.337-14.938,4.214-28.528,4.214
					c-4.054,0-9.027-0.076-15.459-0.174c-4.869-0.072-10.563-0.154-17.324-0.228c-0.109-0.005-0.373-0.021-0.839-0.021
					c-3.033,0-18.92,0.537-33.84,11.057c-19.022,13.42-29.048,37.055-29.789,70.258c-0.642,28.676,5.519,49.846,18.304,62.915
					c12.533,12.816,28.252,14.205,34.434,14.205c1.996,0,3.185-0.143,3.195-0.146C311.938,436.165,312.032,436.161,312.121,436.161z
					"/>
			</g>
			<g>
				<path fill="#FCB116" d="M312.477,310.489c0,0-15.689,21.86-16.393,31.556c3.524,1.232,30.14-2.467,30.14-2.467L312.477,310.489z
					"/>
				<path fill="#3C2517" d="M298.864,344.607L298.864,344.607c-1.699,0-2.789-0.117-3.544-0.379
					c-0.986-0.349-1.62-1.312-1.547-2.354c0.74-10.229,16.168-31.82,16.822-32.736c0.478-0.668,1.274-1.031,2.09-0.955
					c0.813,0.072,1.531,0.574,1.882,1.313l13.751,29.088c0.312,0.667,0.292,1.442-0.059,2.093c-0.351,0.646-0.986,1.088-1.716,1.19
					C325.738,341.98,306.744,344.607,298.864,344.607z M298.783,339.98c0.026,0,0.057,0,0.081,0c5.707,0,18.102-1.522,23.912-2.277
					l-10.684-22.605C307.588,321.762,300.548,333.128,298.783,339.98z"/>
			</g>
			<g>
				<path fill="#F68C1F" d="M305.254,341.971c0,0,3.646-14.641,11.868-21.646l-4.646-9.835c0,0-16.575,22.921-16.393,31.556
					C296.084,342.044,298.276,342.639,305.254,341.971z"/>
				<path fill="#3C2517" d="M299.457,344.602L299.457,344.602c-2.584,0-3.699-0.252-3.984-0.324
					c-0.99-0.271-1.682-1.159-1.701-2.187c-0.189-9.147,15.085-30.547,16.829-32.958c0.481-0.666,1.279-1.037,2.086-0.949
					c0.819,0.077,1.531,0.577,1.882,1.313l4.648,9.835c0.444,0.947,0.201,2.074-0.593,2.749
					c-7.567,6.455-11.089,20.306-11.122,20.444c-0.239,0.951-1.05,1.651-2.024,1.746
					C303.202,344.49,301.177,344.602,299.457,344.602z M298.642,339.964c0.244,0.002,0.517,0.009,0.815,0.009l0,0
					c1.172,0,2.511-0.057,4.005-0.172c1.15-3.881,4.57-13.8,10.846-20.025l-2.223-4.697
					C307.392,321.939,300.066,333.607,298.642,339.964z"/>
			</g>
			<g>
				<path fill="#FCB116" d="M389.342,302.917c0,0,18.998,19.058,21.245,28.513c-3.279,1.787-30.154,2.403-30.154,2.403
					L389.342,302.917z"/>
				<path fill="#3C2517" d="M380.433,336.148c-0.711,0-1.391-0.334-1.829-0.902c-0.449-0.582-0.594-1.346-0.388-2.057l8.908-30.916
					c0.223-0.787,0.848-1.396,1.642-1.6c0.791-0.195,1.64,0.024,2.216,0.608c0.798,0.797,19.482,19.637,21.857,29.612
					c0.241,1.014-0.227,2.064-1.142,2.566c-3.5,1.904-24.771,2.538-31.211,2.686C380.474,336.148,380.455,336.148,380.433,336.148z
					 M390.457,307.402l-6.921,24.035c9.748-0.295,19.789-0.895,24.066-1.588C404.765,323.367,395.988,313.268,390.457,307.402z"/>
			</g>
			<g>
				<path fill="#F68C1F" d="M401.522,332.829c0,0-5.946-13.861-15.189-19.46l3.009-10.451c0,0,20.036,19.958,21.245,28.512
					C410.587,331.43,408.518,332.37,401.522,332.829z"/>
				<path fill="#3C2517" d="M401.522,335.141c-0.922,0-1.759-0.545-2.132-1.399c-0.055-0.128-5.77-13.253-14.255-18.396
					c-0.894-0.544-1.312-1.615-1.021-2.617l3.008-10.449c0.223-0.786,0.848-1.396,1.642-1.604c0.791-0.202,1.63,0.023,2.211,0.603
					c2.105,2.101,20.623,20.771,21.907,29.828c0.141,1.016-0.404,2.006-1.337,2.433c-0.412,0.185-2.813,1.137-9.876,1.603
					C401.625,335.141,401.572,335.141,401.522,335.141z M389.029,312.374c7.192,5.142,12.16,14.385,13.917,18.028
					c2.164-0.185,3.712-0.414,4.772-0.614c-2.319-5.654-10.666-15.509-17.254-22.41L389.029,312.374z"/>
			</g>
			<g>
				<polygon fill="#FCB116" points="352.49,326.395 336.89,359.497 373.467,359.497 				"/>
				<path fill="#3C2517" d="M373.467,361.814H336.89c-0.795,0-1.529-0.408-1.954-1.08c-0.424-0.666-0.477-1.51-0.14-2.226
					l15.599-33.104c0.362-0.762,1.111-1.271,1.95-1.319c0.872-0.054,1.647,0.358,2.101,1.069l20.978,33.104
					c0.452,0.711,0.478,1.613,0.069,2.357C375.089,361.354,374.311,361.814,373.467,361.814z M340.54,357.182h28.721l-16.472-25.994
					L340.54,357.182z"/>
			</g>
			<g>
				<polygon fill="#F68C1F" points="344.206,359.497 353.641,340.634 365.72,347.271 352.49,326.395 336.89,359.497 				"/>
				<path fill="#3C2517" d="M344.206,361.814h-7.316c-0.795,0-1.529-0.408-1.954-1.08c-0.424-0.666-0.477-1.51-0.14-2.226
					l15.599-33.104c0.362-0.762,1.111-1.271,1.95-1.319c0.872-0.054,1.647,0.358,2.101,1.069l13.016,20.541
					c0.381,0.414,0.616,0.97,0.616,1.576c0,1.277-1.032,2.314-2.313,2.314c-0.012-0.004-0.026-0.004-0.043,0
					c-0.381,0-0.767-0.093-1.114-0.286l-9.973-5.479l-8.355,16.713C345.88,361.314,345.082,361.814,344.206,361.814z
					 M340.54,357.182h2.233l8.794-17.58c0.283-0.562,0.78-0.988,1.383-1.178c0.602-0.189,1.251-0.117,1.803,0.184l4.196,2.308
					l-6.16-9.728L340.54,357.182z"/>
			</g>
			<g>
				<path fill="#FCB116" d="M413.044,350.859c0,0-2.21,42.041-16.395,55.35l-5.29-0.702l-5.107,8.104c0,0-29.389-5.02-35.453,5.293
					c-6.062,10.312-32.113-2.029-33.677-4.941c-1.56-2.9-24.304-24.5-26.856-46.709c0,0,10.139,23.887,26.265,25.646
					c8.196,1.5,9.693-14.01,9.693-14.01s4.758,11.103,14.106,10.484c9.341-0.617,12.251-9.164,12.251-9.164
					s4.319,7.562,13.747,6.688c5.114,0.185,8.46-4.049,8.46-4.049l5.382,9.611l5.111-13.484c0,0,10.048-1.498,17.536-14.281
					C408.81,355.419,413.044,350.859,413.044,350.859z"/>
				<path fill="#3C2517" d="M341.762,425.256c-9.756,0-24.82-6.74-26.677-10.199c-0.229-0.388-1.477-1.83-2.686-3.223
					c-6.673-7.688-22.292-25.688-24.436-44.316c-0.128-1.141,0.597-2.207,1.707-2.502c1.127-0.298,2.271,0.274,2.72,1.332
					c0.094,0.227,9.812,22.66,24.39,24.25c0.398,0.064,0.625,0.09,0.84,0.09c3.869,0,5.916-8.103,6.304-12.022
					c0.104-1.056,0.901-1.901,1.942-2.062c1.053-0.186,2.068,0.403,2.48,1.375c0.04,0.09,4.237,9.586,11.825,9.086
					c7.711-0.504,10.189-7.527,10.218-7.597c0.292-0.864,1.065-1.475,1.968-1.562c0.935-0.073,1.781,0.367,2.233,1.156
					c0.132,0.231,3.791,6.278,11.521,5.53c0.096-0.009,0.193-0.012,0.297-0.004l0.237,0.004c3.713,0,6.302-3.144,6.328-3.177
					c0.479-0.604,1.23-0.93,1.997-0.873c0.771,0.062,1.46,0.504,1.83,1.178l2.963,5.28l3.352-8.849
					c0.296-0.782,0.996-1.342,1.821-1.469c0.358-0.054,9.106-1.592,15.88-13.158c6.086-9.428,10.353-14.047,10.533-14.24
					c0.658-0.715,1.699-0.939,2.598-0.557c0.896,0.383,1.456,1.278,1.405,2.252c-0.094,1.754-2.422,43.129-17.119,56.916
					c-0.507,0.476-1.207,0.694-1.89,0.604l-3.817-0.507l-4.321,6.853c-0.495,0.789-1.429,1.205-2.341,1.045
					c-0.075-0.013-7.075-1.188-14.745-1.188c-9.781,0-16.294,1.907-18.328,5.374C351.398,422.439,348.362,425.256,341.762,425.256z
					 M298.412,384.498c5.48,10.479,13.308,19.493,17.479,24.305c1.974,2.274,2.865,3.309,3.272,4.064
					c1.238,1.466,13.518,7.761,22.599,7.761c3.544,0,5.909-0.976,7.04-2.897c2.988-5.08,10.494-7.652,22.319-7.652
					c5.962,0,11.415,0.654,13.98,1.017l4.302-6.821c0.48-0.77,1.362-1.182,2.26-1.062l4.164,0.557
					c9.267-9.734,12.937-33.355,14.254-45.519c-1.51,2.036-3.316,4.604-5.32,7.707c-6.336,10.817-14.521,14.086-17.752,14.995
					l-4.674,12.336c-0.321,0.838-1.096,1.419-1.991,1.48c-0.927,0.077-1.753-0.392-2.193-1.179l-3.946-7.043
					c-1.731,1.299-4.328,2.674-7.555,2.674l-0.233-0.004c-6.564,0.547-10.95-2.387-13.42-4.831
					c-1.979,2.975-5.822,6.859-12.518,7.301c-6.045,0.41-10.435-3.238-13.114-6.588c-1.336,4.643-4.121,10.217-9.743,10.217
					c-0.481,0-0.988-0.041-1.506-0.141C308.967,394.4,302.988,389.738,298.412,384.498z"/>
			</g>
			<g>
				<path fill="#F68C1F" d="M314.925,392.65c0,0,3.812,6.769,17.385,8.625c13.57,1.848,16.312-7.058,23.889-6.611
					c7.575,0.443,8.636-1.413,17.627,2.423c8.987,3.838,13.658-3.567,15.242-6.3c1.589-2.732,7.411-9.307,9.04-19.682l14.938-19.896
					c0,0-2.844,36.525-10.191,46.157c-4.512,7.062-6.202,8.843-6.202,8.843l-5.29-0.702l-5.107,8.104c0,0-16.843-2.295-24.641-0.484
					c-7.797,1.811-10.209,4.193-10.812,5.424c-0.604,1.225-3.018,7.073-16.044,3.493c-13.021-3.58-19.381-7.921-25.018-16.903
					c-5.634-8.979-16.919-17.879-19.474-37.887C290.266,367.253,299.04,387.809,314.925,392.65z"/>
				<path fill="#3C2517" d="M342.14,425.5c-2.341,0-5.031-0.412-7.998-1.227c-13.497-3.713-20.396-8.398-26.363-17.904
					c-1.329-2.11-3.032-4.292-4.844-6.6c-5.776-7.358-12.962-16.52-14.967-32.225c-0.145-1.145,0.572-2.223,1.688-2.527
					c1.119-0.301,2.281,0.265,2.734,1.321c0.088,0.197,8.56,19.628,23.204,24.093c0.572,0.176,1.054,0.561,1.343,1.077
					c0.132,0.218,3.607,5.823,15.682,7.47c1.135,0.156,2.227,0.229,3.255,0.229c5.078,0,8.123-1.871,11.073-3.686
					c2.712-1.668,5.574-3.388,9.386-3.17c2.177,0.129,3.781,0.053,5.209-0.008c3.851-0.164,6.6-0.197,13.188,2.608
					c5.036,2.151,8.976,0.461,12.337-5.328c0.32-0.558,0.803-1.259,1.387-2.104c2.292-3.318,6.127-8.879,7.362-16.779
					c0.062-0.374,0.214-0.729,0.436-1.029l14.94-19.891c0.627-0.822,1.712-1.146,2.676-0.777c0.958,0.367,1.562,1.32,1.484,2.348
					c-0.118,1.517-2.991,37.315-10.66,47.377c-4.392,6.887-6.174,8.83-6.362,9.031c-0.511,0.54-1.247,0.799-1.982,0.7l-3.817-0.507
					l-4.321,6.852c-0.481,0.768-1.379,1.182-2.268,1.059c-0.088-0.014-8.609-1.157-16.131-1.157c-3.278,0-5.86,0.214-7.676,0.634
					c-8.032,1.86-9.254,4.174-9.261,4.197C350.963,423.538,347.366,425.5,342.14,425.5z M296.996,382.404
					c2.762,5.822,6.295,10.328,9.579,14.514c1.886,2.402,3.666,4.675,5.119,6.991c5.329,8.487,11.3,12.502,23.674,15.899
					c2.565,0.707,4.848,1.062,6.771,1.062c4.973,0,6.097-2.338,6.521-3.219c1.022-2.077,3.954-4.81,12.426-6.775
					c2.161-0.504,5.095-0.764,8.725-0.764c6.013,0,12.431,0.68,15.271,1.021l4.324-6.862c0.48-0.769,1.362-1.181,2.26-1.062
					l4.016,0.535c0.853-1.099,2.52-3.386,5.223-7.621c4.589-6.026,7.588-24.517,9.027-36.909l-9.637,12.825
					c-1.493,8.642-5.732,14.78-8.032,18.11c-0.499,0.728-0.917,1.328-1.193,1.798c-3.282,5.661-7.456,8.534-12.39,8.534
					c-1.856,0-3.795-0.424-5.762-1.269c-5.835-2.489-7.95-2.383-11.167-2.243c-1.559,0.062-3.325,0.143-5.684,0
					c-2.425-0.121-4.283,1.014-6.694,2.494c-3.169,1.951-7.11,4.374-13.496,4.374l0,0c-1.238,0-2.544-0.091-3.877-0.271
					c-11.863-1.62-16.954-6.894-18.528-8.953C306.624,392.297,301.11,387.383,296.996,382.404z"/>
			</g>
		</g>
		<g>
			<path fill="#EF4237" d="M278.381,68.479c24.706-7.499,43.991,18.678,54.596,34.063c19.237,27.901,37.295,75.033,14.133,106.203
				c-16.86,22.679-62.86,33.171-89.801,11.941c-28.644-22.556-27.417-67.569-16.061-102.767
				c4.202-13.018,13.766-34.932,27.396-44.968C270.527,71.569,272.438,70.282,278.381,68.479z"/>
			<path fill="#3C2517" d="M293.506,233.957c-14.503,0-27.393-4.117-37.275-11.905c-29.63-23.337-28.02-69.366-16.632-104.666
				c5.156-15.982,15.225-36.413,28.023-45.832c2.121-1.563,4.229-2.905,10.253-4.738c3.058-0.926,6.16-1.395,9.229-1.395
				c19.738,0,34.988,18.266,47.301,36.133c11.159,16.189,19.625,35.324,23.232,52.503c4.649,22.151,1.489,41.421-9.139,55.72
				C337.75,224.239,315.652,233.957,293.506,233.957z M287.104,68.891c-2.729,0-5.492,0.422-8.223,1.247
				c-5.933,1.807-7.597,3.031-9.204,4.213c-12.13,8.926-21.789,28.637-26.774,44.104c-11.029,34.185-12.757,78.635,15.475,100.868
				c9.269,7.304,21.413,11.161,35.128,11.161c21.103,0,42.079-9.151,52.21-22.775c23.606-31.773,2.202-80.438-14.171-104.182
				C319.743,86.403,305.238,68.891,287.104,68.891z"/>
		</g>
		<g>
			<path fill="#FBB041" d="M315.146,217.369c0,2.551-2.058,4.611-4.601,4.611c-2.547,0-4.604-2.06-4.604-4.611
				c0-2.541,2.059-4.602,4.604-4.602C313.09,212.767,315.146,214.828,315.146,217.369z"/>
		</g>
		<g>
			<path fill="#FBB041" d="M315.146,125.667c0,2.547-2.058,4.607-4.601,4.607c-2.547,0-4.604-2.06-4.604-4.607
				c0-2.543,2.059-4.603,4.604-4.603C313.09,121.065,315.146,123.125,315.146,125.667z"/>
		</g>
		<g>
			<path fill="#2BC2E1" d="M380.134,69.176c25.696,2.389,33.676,33.913,37.679,52.16c7.275,33.102,6.186,83.562-27.033,103.672
				c-24.171,14.637-70.728,6.973-87.663-22.862c-17.994-31.699,0.15-72.917,23.957-101.213
				c8.809-10.468,25.931-27.148,42.354-31.292C371.689,69.069,373.944,68.604,380.134,69.176z"/>
			<path fill="#3C2517" d="M361.558,233.952c-25.75,0-49.273-12.146-59.947-30.947c-18.615-32.796,0.263-74.808,24.134-103.189
				c5.25-6.241,23.882-26.966,43.259-31.855c1.626-0.412,3.329-0.784,6.243-0.784c1.447,0,3.098,0.091,5.053,0.271
				c28.042,2.61,35.869,38.283,39.21,53.519c4.218,19.201,4.831,40.12,1.68,57.387c-4.062,22.266-14.267,38.913-29.512,48.138
				C383.732,231.302,373.031,233.952,361.558,233.952z M375.245,70.65c-2.523,0-3.88,0.294-5.393,0.677
				c-14.603,3.683-30.987,18.284-41.452,30.726c-23.124,27.485-41.512,67.992-23.776,99.24c7.646,13.464,27.143,29.19,56.934,29.19
				c10.853,0,20.908-2.471,28.324-6.958c33.864-20.499,32.424-73.645,26.236-101.812c-3.182-14.495-10.625-48.434-36.146-50.811
				C378.13,70.732,376.582,70.65,375.245,70.65z"/>
		</g>
		<g>
			<g>
				<path fill="#EE2E7C" d="M300.379,157.478L300.379,157.478c0.46,0.382,46.732,38.404,113.271,35.657l-5.204,11.197
					c-55.643,0-97.232-25.558-110.653-35.02C297.791,169.312,298.867,153.872,300.379,157.478z"/>
			</g>
		</g>
		<g>
			<g>
				<path fill="#EE2E7C" d="M394.522,140.709c-44.05,0-72.854-26.456-74.373-27.872l5.905-7.903l-0.996-0.866
					c0.402,0.375,39.82,37.703,92.347,24l1.162,9.827C409.307,140.308,402.917,140.709,394.522,140.709z"/>
			</g>
		</g>
		<g>
			<g>
				<path fill="#FBB041" d="M404.93,178.019c-0.177,0-0.346-0.011-0.52-0.029c-3.617-0.376-6.09-4.35-8.487-8.193
					c-1.614-2.583-3.608-5.798-5.145-6.055c-1.814-0.303-4.849,2.113-7.519,4.249c-3.511,2.81-6.814,5.479-10.064,4.688
					c-3.593-0.862-5.527-5.182-7.398-9.359c-1.229-2.738-2.761-6.149-4.188-6.604c-1.853-0.59-5.242,1.405-8.238,3.164
					c-3.826,2.249-7.443,4.366-10.464,3.15c-3.576-1.451-4.859-6.144-6.098-10.68c-0.757-2.79-1.709-6.263-2.922-6.878
					c-2.046-1.032-5.982,0.451-9.452,1.764c-4.073,1.541-7.589,2.872-10.081,1.293c-5.493-3.468-4.745-8.231-4.145-12.062
					c0.494-3.189,1.131-4.788-0.638-6.407l1.83-3.275c3.312,3.039,2.938,7.09,2.444,10.252c-0.622,3.963-0.811,6.3,2.479,8.382
					c0.938,0.591,4.47-0.743,6.811-1.627c4.176-1.58,8.919-3.372,12.409-1.604c2.685,1.348,3.72,5.16,4.82,9.192
					c0.903,3.331,2.03,7.471,3.925,8.234c1.345,0.539,4.6-1.374,7.221-2.912c3.836-2.249,7.811-4.578,11.214-3.498
					c3.003,0.954,4.67,4.675,6.432,8.61c1.37,3.047,3.069,6.841,4.899,7.281c1.481,0.352,4.49-2.049,6.897-3.979
					c3.438-2.751,7-5.594,10.444-5.004c3.162,0.537,5.344,4.035,7.652,7.736c1.743,2.803,3.916,6.286,5.744,6.476
					c1.559,0.168,4.238-2.624,6.397-4.862c3.045-3.155,4.777-6.56,8.247-6.438l-0.265,4.288c-1.822-0.076-2.967,2.259-5.328,4.703
					C410.875,175.097,408.057,178.019,404.93,178.019z"/>
			</g>
		</g>
		<g>
			<path fill="#FBB041" d="M331.083,153.523c0,1.625-1.32,2.951-2.953,2.951c-1.63,0-2.951-1.325-2.951-2.951
				c0-1.635,1.321-2.958,2.951-2.958C329.763,150.564,331.083,151.888,331.083,153.523z"/>
		</g>
		<g>
			<path fill="#FBB041" d="M323.105,138.167c0,1.633-1.317,2.954-2.956,2.954c-1.628,0-2.949-1.321-2.949-2.954
				c0-1.63,1.321-2.95,2.949-2.95C321.788,135.216,323.105,136.537,323.105,138.167z"/>
		</g>
		<g>
			<path fill="#FBB041" d="M350.333,151.062c0,1.633-1.325,2.957-2.953,2.957c-1.635,0-2.956-1.323-2.956-2.957
				c0-1.627,1.321-2.95,2.956-2.95C349.008,148.112,350.333,149.436,350.333,151.062z"/>
		</g>
		<g>
			<circle fill="#FBB041" cx="359.15" cy="164.265" r="2.953"/>
		</g>
		<g>
			<path fill="#FBB041" d="M378.577,159.885c0,1.629-1.32,2.951-2.95,2.951c-1.634,0-2.954-1.321-2.954-2.951
				c0-1.632,1.32-2.955,2.954-2.955C377.257,156.93,378.577,158.253,378.577,159.885z"/>
		</g>
		<g>
			<path fill="#FBB041" d="M392.292,171.45c0,1.627-1.32,2.955-2.954,2.955c-1.63,0-2.95-1.327-2.95-2.955
				c0-1.632,1.32-2.955,2.95-2.955C390.972,168.495,392.292,169.818,392.292,171.45z"/>
		</g>
		<g>
			<path fill="#FBB041" d="M408.263,164.265c0,1.634-1.329,2.955-2.955,2.955c-1.629,0-2.952-1.32-2.952-2.955
				c0-1.631,1.323-2.951,2.952-2.951C406.934,161.314,408.263,162.633,408.263,164.265z"/>
		</g>
		<g>
			<path fill="#FBB041" d="M278.311,89.434c0,2.547-2.068,4.611-4.612,4.611c-2.542,0-4.601-2.064-4.601-4.611
				c0-2.541,2.059-4.602,4.601-4.602C276.241,84.832,278.311,86.893,278.311,89.434z"/>
		</g>
		<g>
			<path fill="#FBB041" d="M315.146,92.917c0,2.542-2.058,4.607-4.601,4.607c-2.547,0-4.604-2.066-4.604-4.607
				c0-2.544,2.059-4.604,4.604-4.604C313.09,88.312,315.146,90.372,315.146,92.917z"/>
		</g>
		<g>
			<path fill="#FBB041" d="M295.877,113.181c0,2.543-2.057,4.604-4.604,4.604c-2.543,0-4.604-2.061-4.604-4.604
				s2.062-4.607,4.604-4.607C293.82,108.574,295.877,110.638,295.877,113.181z"/>
		</g>
		<g>
			<path fill="#FBB041" d="M262.309,119.32c0,2.547-2.062,4.606-4.604,4.606c-2.542,0-4.604-2.059-4.604-4.606
				c0-2.543,2.062-4.607,4.604-4.607C260.247,114.713,262.309,116.777,262.309,119.32z"/>
		</g>
		<g>
			<path fill="#FBB041" d="M286.668,138.167c0,2.542-2.062,4.606-4.604,4.606c-2.549,0-4.61-2.064-4.61-4.606
				c0-2.543,2.062-4.603,4.61-4.603C284.605,133.563,286.668,135.623,286.668,138.167z"/>
		</g>
		<g>
			<path fill="#FBB041" d="M255.352,153.257c0,2.547-2.062,4.607-4.605,4.607s-4.609-2.06-4.609-4.607
				c0-2.542,2.066-4.603,4.609-4.603S255.352,150.715,255.352,153.257z"/>
		</g>
		<g>
			<circle fill="#FBB041" cx="289.536" cy="165.917" r="4.604"/>
		</g>
		<g>
			<circle fill="#FBB041" cx="257.703" cy="185.238" r="4.604"/>
		</g>
		<g>
			<path fill="#FBB041" d="M291.271,195.674c0,2.549-2.061,4.607-4.604,4.607c-2.539,0-4.604-2.058-4.604-4.607
				c0-2.54,2.064-4.603,4.604-4.603C289.212,191.071,291.271,193.134,291.271,195.674z"/>
		</g>
		<g>
			<circle fill="#FBB041" cx="274.387" cy="216.451" r="4.606"/>
		</g>
	</g>
</g>
</svg>
