<?xml version="1.0" encoding="utf-8"?>
<!-- Generator: Adobe Illustrator 16.0.0, SVG Export Plug-In . SVG Version: 6.00 Build 0)  -->
<!DOCTYPE svg PUBLIC "-//W3C//DTD SVG 1.1//EN" "http://www.w3.org/Graphics/SVG/1.1/DTD/svg11.dtd">
<svg version="1.1" id="Layer_1" xmlns="http://www.w3.org/2000/svg" xmlns:xlink="http://www.w3.org/1999/xlink" x="0px" y="0px"
	 width="500px" height="500px" viewBox="0 0 500 500" enable-background="new 0 0 500 500" xml:space="preserve">
<g id="Layer_1_copy_44">
	<path fill="#8B1E36" stroke="#3C2415" stroke-width="5.6273" stroke-miterlimit="10" d="M155.093,102.862h37.043
		c0,0-0.465,28.135,37.52,37.984c37.984,9.847,85.814,28.603,84.409,122.86c-1.408,94.258-78.314,128.021-138.81,124.739
		c-60.493-3.278-150.531-12.661-144.904-132.239c3.281-84.881,97.073-113.488,97.073-113.488S155.561,137.092,155.093,102.862z"/>
	<path fill="#AB1933" stroke="#3C2415" stroke-width="5.6273" stroke-miterlimit="10" d="M310.896,103.109h37.047
		c0,0-0.47,28.137,37.516,37.984c37.984,9.847,85.816,28.603,84.41,122.861c-1.405,94.254-78.315,128.021-138.81,124.737
		c-60.493-3.28-150.531-12.659-144.899-132.239c3.279-84.88,97.068-113.485,97.068-113.485S311.364,137.339,310.896,103.109z"/>
	
		<ellipse fill="#DB1E33" stroke="#F597A8" stroke-width="6.062" stroke-miterlimit="10" cx="331.939" cy="266.234" rx="101.818" ry="93.73"/>
	<ellipse fill="#CC2A52" cx="345.48" cy="268.167" rx="14.42" ry="14.772"/>
	<ellipse fill="#CC2A52" cx="374.32" cy="238.625" rx="14.419" ry="14.771"/>
	<ellipse fill="#CC2A52" cx="380.652" cy="284.699" rx="14.419" ry="14.771"/>
	<ellipse fill="#CC2A52" cx="340.556" cy="314.242" rx="14.42" ry="14.771"/>
	<path fill="#CC2A52" d="M318.401,308.966c0,8.158-6.46,14.771-14.423,14.771s-14.422-6.612-14.422-14.771
		c0-8.157,6.459-14.771,14.422-14.771S318.401,300.809,318.401,308.966z"/>
	<path fill="#CC2A52" d="M295.188,284.699c0,8.158-6.459,14.771-14.422,14.771c-7.961,0-14.422-6.613-14.422-14.771
		s6.461-14.773,14.422-14.773C288.729,269.925,295.188,276.541,295.188,284.699z"/>
	<path fill="#CC2A52" d="M318.401,234.756c0,8.158-6.46,14.773-14.423,14.773s-14.422-6.615-14.422-14.773
		c0-8.157,6.459-14.771,14.422-14.771C311.941,219.984,318.401,226.599,318.401,234.756z"/>
	<path fill="#CC2A52" d="M345.481,209.083c0,8.157-6.46,14.771-14.422,14.771c-7.963,0-14.419-6.614-14.419-14.771
		c0-8.159,6.456-14.773,14.419-14.773C339.021,194.31,345.481,200.924,345.481,209.083z"/>
	<path fill="#CC2A52" d="M318.401,264.3c0,8.158-6.46,14.771-14.423,14.771s-14.422-6.612-14.422-14.771
		c0-8.159,6.459-14.771,14.422-14.771S318.401,256.141,318.401,264.3z"/>
	<ellipse fill="#BF2035" cx="363.77" cy="225.613" rx="14.421" ry="14.771"/>
	<path fill="#BF2035" d="M351.108,292.789c0,8.158-6.455,14.771-14.423,14.771c-7.963,0-14.418-6.613-14.418-14.771
		s6.455-14.771,14.418-14.771C344.653,278.018,351.108,284.63,351.108,292.789z"/>
	<ellipse fill="#BF2035" cx="382.059" cy="260.784" rx="14.42" ry="14.771"/>
	<path fill="#BF2035" d="M392.61,323.738c0,8.158-6.46,14.771-14.421,14.771c-7.964,0-14.42-6.612-14.42-14.771
		s6.456-14.771,14.42-14.771C386.15,308.966,392.61,315.58,392.61,323.738z"/>
	<ellipse fill="#BF2035" cx="322.267" cy="332.882" rx="14.421" ry="14.772"/>
	<ellipse fill="#BF2035" cx="293.427" cy="308.966" rx="14.42" ry="14.771"/>
	<ellipse fill="#BF2035" cx="326.138" cy="243.548" rx="14.419" ry="14.771"/>
	<ellipse fill="#BF2035" cx="282.877" cy="248.121" rx="14.42" ry="14.771"/>
	<path fill="#BF2035" d="M309.606,210.839c0,8.159-6.455,14.773-14.419,14.773c-7.967,0-14.422-6.614-14.422-14.773
		c0-8.157,6.455-14.771,14.422-14.771C303.151,196.069,309.606,202.683,309.606,210.839z"/>
	<path fill="#BF2035" d="M271.271,284.699c0,8.158-6.459,14.771-14.422,14.771c-7.961,0-14.421-6.613-14.421-14.771
		s6.46-14.773,14.421-14.773C264.812,269.925,271.271,276.541,271.271,284.699z"/>
	<path fill="#009444" stroke="#3C2415" stroke-width="4.5677" stroke-miterlimit="10" d="M155.093,102.862
		c0,0-10.954-32.844,17.002-32.844c30.768-0.004,20.041,32.844,20.041,32.844H155.093z"/>
	<path fill="#009444" stroke="#3C2415" stroke-width="4.5677" stroke-miterlimit="10" d="M309.94,102.862
		c0,0-10.949-32.844,17.004-32.844c30.771-0.004,20.041,32.844,20.041,32.844H309.94z"/>
</g>
</svg>
