<?xml version="1.0" encoding="utf-8"?>
<!-- Generator: Adobe Illustrator 16.0.0, SVG Export Plug-In . SVG Version: 6.00 Build 0)  -->
<!DOCTYPE svg PUBLIC "-//W3C//DTD SVG 1.1//EN" "http://www.w3.org/Graphics/SVG/1.1/DTD/svg11.dtd">
<svg version="1.1" id="Layer_1" xmlns="http://www.w3.org/2000/svg" xmlns:xlink="http://www.w3.org/1999/xlink" x="0px" y="0px"
	 width="500px" height="500px" viewBox="0 0 500 500" enable-background="new 0 0 500 500" xml:space="preserve">
<g id="Layer_1_copy_12">
	<g>
		<g>
			<path fill="#818181" d="M467.229,187.926c0,4.732,0,9.468,0,14.202c-1.064,3.751-1.903,8.058-3.016,11.623
				c-1.142,3.665-2.438,6.911-4.3,10.327c-9.549,17.48-27.581,32.89-54.228,33.141c-40.133,0.375-82.831-0.436-126.099-0.436
				c-43.035,0-85.732,0-126.528,0c-11.519,0-21.184,0.749-29.695-0.862c-8.64-1.64-16.039-4.563-22.81-9.039
				c-17.128-11.328-33.11-35.07-26.684-65.409c4.397-20.759,18.78-35.98,35.722-43.468c3.499-1.549,7.724-1.88,11.188-4.732
				c-4.251-15.848-2.438-31.305,1.29-44.331c3.671-12.809,9.884-24.63,17.646-33.568c15.066-17.348,39.014-32.083,70.15-31.847
				c35.026,0.266,60.1,19.408,74.452,40.455c2.252,3.297,3.479,7.276,6.453,10.327c5.748-2.164,10.315-4.942,15.931-6.456
				c45.283-12.201,83.71,15.726,94.247,51.215c1.521,5.131,1.187,9.413,3.018,13.769c22.043,0.068,36.148,8.6,46.906,19.799
				C459.469,161.59,464.545,173.972,467.229,187.926z"/>
			<path fill="#27140E" d="M382.731,261.311c-16.445,0-32.858-0.131-50.237-0.27c-17.272-0.129-35.137-0.266-52.906-0.266H153.06
				c-2.854,0-5.595,0.045-8.235,0.091c-2.48,0.038-4.878,0.084-7.19,0.084c-4.533,0-9.861-0.13-15.013-1.106
				c-9.167-1.74-17.105-4.893-24.269-9.632c-17.447-11.539-35.351-36.68-28.39-69.565c4.32-20.375,18.533-37.68,38.015-46.294
				c1.424-0.629,2.866-1.062,4.259-1.484c1.404-0.423,2.76-0.833,3.981-1.416c-3.064-13.561-2.389-28.215,2.015-43.607
				c3.812-13.299,10.373-25.762,18.475-35.089c10.773-12.408,34.511-33.225,72.421-33.225l0.771,0.004
				c31.268,0.237,59.596,15.616,77.719,42.197c0.992,1.452,1.771,2.946,2.529,4.393c0.619,1.181,1.219,2.328,1.894,3.368
				c1.202-0.515,2.37-1.047,3.519-1.572c3.148-1.438,6.404-2.926,10.103-3.922c7.504-2.022,15.082-3.045,22.521-3.045
				c35.142,0,66.638,23.43,76.594,56.979c0.763,2.562,1.11,4.919,1.412,6.999c0.21,1.424,0.396,2.731,0.693,3.97
				c18.86,0.669,33.816,7.378,46.872,20.97c8.483,8.836,14.338,21.385,17.396,37.3c0.05,0.248,0.071,0.5,0.071,0.754v14.202
				c0,0.37-0.05,0.736-0.148,1.091c-0.462,1.614-0.877,3.337-1.29,5.055c-0.541,2.24-1.103,4.559-1.758,6.666
				c-1.308,4.19-2.727,7.598-4.604,11.048c-12.104,22.149-33.133,34.985-57.695,35.222
				C398.146,261.279,390.479,261.311,382.731,261.311z M153.06,252.792h126.528c17.805,0,35.679,0.138,52.968,0.269
				c17.363,0.137,33.768,0.258,50.177,0.258c7.721,0,15.363-0.021,22.917-0.092c30.654-0.297,45.711-21.82,50.761-31.062
				c1.617-2.966,2.851-5.928,3.991-9.598c0.579-1.862,1.084-3.952,1.622-6.165c0.39-1.633,0.785-3.267,1.214-4.818V188.31
				c-2.778-14.198-7.908-25.27-15.243-32.908c-12.116-12.615-26.11-18.517-44.039-18.572c-1.601-0.004-3.046-0.967-3.668-2.444
				c-1.209-2.881-1.61-5.634-2-8.298c-0.289-1.99-0.564-3.87-1.16-5.883c-8.965-30.185-37.315-51.266-68.944-51.266
				c-6.739,0-13.615,0.931-20.439,2.771c-3.062,0.824-5.885,2.112-8.868,3.477c-2.104,0.959-4.275,1.95-6.688,2.86
				c-1.488,0.557-3.16,0.187-4.271-0.948c-2.244-2.303-3.625-4.944-4.845-7.274c-0.678-1.296-1.318-2.521-2.049-3.589
				c-7.869-11.541-30.553-38.407-71.186-38.714l-0.71-0.002c-34.742,0-56.512,19.093-66.396,30.474
				c-7.35,8.468-13.326,19.851-16.822,32.051c-4.312,15.066-4.74,29.263-1.274,42.196c0.404,1.511-0.111,3.12-1.32,4.116
				c-2.893,2.383-6.015,3.325-8.771,4.158c-1.214,0.366-2.361,0.711-3.335,1.143c-17.15,7.579-29.646,22.773-33.435,40.646
				c-6.132,28.96,9.625,51.094,24.981,61.249c6.267,4.146,13.25,6.914,21.353,8.455c3.575,0.672,7.621,0.962,13.524,0.962
				c2.268,0,4.617-0.046,7.061-0.084C147.373,252.837,150.154,252.792,153.06,252.792z"/>
		</g>
	</g>
	<g>
		<path fill="#4E4E4E" d="M149.495,315.333c-16.731,0-25.455-6.175-33.152-11.625c-7.33-5.19-13.658-9.67-27.004-9.67
			c-2.938,0-5.324-2.382-5.324-5.32s2.386-5.319,5.324-5.319c16.734,0,25.459,6.176,33.152,11.617
			c7.331,5.188,13.658,9.67,27.004,9.67c13.35,0,19.677-4.48,27.004-9.67c7.701-5.449,16.422-11.625,33.155-11.625
			c16.731,0,25.455,6.176,33.157,11.625c7.327,5.188,13.654,9.67,27.003,9.67c13.346,0,19.674-4.48,27.004-9.67
			c7.697-5.449,16.423-11.625,33.156-11.625c16.734,0,25.458,6.176,33.155,11.625c7.332,5.182,13.662,9.661,27.012,9.661
			c13.351,0,19.682-4.479,27.014-9.661c7.695-5.449,16.421-11.625,33.154-11.625c2.938,0,5.324,2.381,5.324,5.319
			s-2.386,5.328-5.324,5.328c-13.35,0-19.681,4.479-27.009,9.662c-7.695,5.45-16.425,11.624-33.159,11.624
			c-16.732,0-25.462-6.174-33.159-11.624c-7.331-5.183-13.661-9.662-27.008-9.662c-13.35,0-19.678,4.479-27.009,9.67
			c-7.696,5.442-16.422,11.616-33.151,11.616c-16.734,0-25.458-6.174-33.155-11.616c-7.327-5.19-13.654-9.67-27.005-9.67
			c-13.345,0-19.676,4.479-27.004,9.67C174.953,309.159,166.229,315.333,149.495,315.333z"/>
	</g>
	<g>
		<path fill="#4E4E4E" d="M149.495,359.984c-16.731,0-25.455-6.176-33.152-11.625c-7.33-5.184-13.658-9.67-27.004-9.67
			c-2.938,0-5.324-2.383-5.324-5.32s2.386-5.32,5.324-5.32c16.734,0,25.459,6.176,33.152,11.625
			c7.331,5.184,13.658,9.663,27.004,9.663c13.35,0,19.677-4.479,27.004-9.67c7.701-5.45,16.425-11.625,33.155-11.625
			c16.731,0,25.455,6.175,33.157,11.625c7.327,5.183,13.654,9.67,27.003,9.67c13.342,0,19.674-4.487,27.004-9.67
			c7.697-5.45,16.418-11.625,33.156-11.625c16.734,0,25.458,6.175,33.159,11.616c7.328,5.191,13.658,9.671,27.008,9.671
			c13.351,0,19.679-4.479,27.009-9.671c7.696-5.449,16.426-11.624,33.159-11.624c2.938,0,5.324,2.389,5.324,5.327
			s-2.386,5.32-5.324,5.32c-13.35,0-19.681,4.479-27.009,9.67c-7.695,5.449-16.425,11.625-33.159,11.625
			c-16.732,0-25.462-6.176-33.159-11.625c-7.331-5.184-13.661-9.67-27.008-9.67c-13.35,0-19.678,4.486-27.009,9.67
			c-7.696,5.449-16.422,11.625-33.151,11.625c-16.734,0-25.458-6.176-33.155-11.625c-7.327-5.184-13.654-9.662-27.005-9.662
			c-13.349,0-19.676,4.479-27.004,9.67C174.953,353.809,166.229,359.984,149.495,359.984z"/>
	</g>
	<g>
		<path fill="#4E4E4E" d="M149.495,404.634c-16.731,0-25.455-6.175-33.152-11.625c-7.327-5.19-13.658-9.663-27.004-9.663
			c-2.938,0-5.324-2.381-5.324-5.326c0-2.938,2.383-5.32,5.324-5.32h0.004c16.73,0,25.455,6.176,33.148,11.625
			c7.331,5.183,13.663,9.662,27.004,9.662c13.35,0,19.677-4.479,27.004-9.67c7.701-5.441,16.425-11.617,33.155-11.617
			c16.731,0,25.455,6.176,33.157,11.617c7.327,5.189,13.654,9.67,27.003,9.67c13.342,0,19.674-4.479,27.004-9.67
			c7.693-5.449,16.418-11.625,33.156-11.625c16.734,0,25.458,6.176,33.159,11.625c7.328,5.184,13.658,9.662,27.008,9.662
			c13.351,0,19.679-4.479,27.014-9.662c7.695-5.449,16.421-11.625,33.154-11.625c2.938,0,5.324,2.382,5.324,5.319
			c0,2.939-2.386,5.32-5.324,5.32c-13.35,0-19.681,4.479-27.009,9.67c-7.695,5.45-16.425,11.625-33.159,11.625
			c-16.732,0-25.462-6.175-33.159-11.625c-7.331-5.183-13.661-9.662-27.008-9.662c-13.35,0-19.678,4.479-27.009,9.662
			c-7.696,5.45-16.422,11.625-33.151,11.633h-0.008c-16.729,0-25.455-6.183-33.147-11.625c-7.327-5.19-13.659-9.67-27.005-9.67
			c-13.349,0-19.676,4.479-27.004,9.67C174.953,398.459,166.229,404.634,149.495,404.634z"/>
	</g>
	<g>
		<path fill="#4E4E4E" d="M149.495,449.285c-16.731,0-25.455-6.175-33.148-11.624c-7.331-5.191-13.662-9.671-27.004-9.671
			c-2.942,0-5.328-2.382-5.328-5.32c0-2.938,2.386-5.32,5.328-5.32c16.73,0,25.455,6.177,33.151,11.618
			c7.328,5.189,13.66,9.67,27.001,9.67c13.35,0,19.677-4.479,27.004-9.67c7.701-5.45,16.422-11.625,33.155-11.625
			c16.731,0,25.455,6.175,33.152,11.625c7.332,5.189,13.659,9.67,27,9.67c13.35,0,19.682-4.479,27.008-9.67
			c7.697-5.45,16.422-11.625,33.155-11.625c16.734,0,25.459,6.175,33.157,11.625c7.33,5.184,13.661,9.662,27.011,9.662
			c13.351,0,19.683-4.479,27.01-9.662c7.696-5.45,16.425-11.625,33.157-11.625c2.939,0,5.324,2.382,5.324,5.319
			c0,2.938-2.385,5.328-5.324,5.328c-13.349,0-19.676,4.479-27.007,9.662c-7.698,5.449-16.425,11.625-33.16,11.625
			c-16.733,0-25.458-6.176-33.155-11.625c-7.331-5.184-13.661-9.662-27.013-9.662c-13.349,0-19.676,4.479-27.007,9.671
			c-7.697,5.44-16.422,11.616-33.156,11.616c-16.729,0-25.455-6.176-33.147-11.616c-7.331-5.191-13.659-9.671-27.005-9.671
			c-13.345,0-19.676,4.479-27.004,9.671C174.953,443.11,166.229,449.285,149.495,449.285z"/>
	</g>
</g>
</svg>
