<?xml version="1.0" encoding="utf-8"?>
<!-- Generator: Adobe Illustrator 16.0.0, SVG Export Plug-In . SVG Version: 6.00 Build 0)  -->
<!DOCTYPE svg PUBLIC "-//W3C//DTD SVG 1.1//EN" "http://www.w3.org/Graphics/SVG/1.1/DTD/svg11.dtd">
<svg version="1.1" id="Layer_1" xmlns="http://www.w3.org/2000/svg" xmlns:xlink="http://www.w3.org/1999/xlink" x="0px" y="0px"
	 width="500px" height="500px" viewBox="0 0 500 500" enable-background="new 0 0 500 500" xml:space="preserve">
<g id="Layer_1_copy_38">
	<g>
		<path fill="#6859A6" d="M97.818,154.621c0,0,68.372,54.68,83.968-15.123c15.587-69.803,133.151-147.75,139.147-29.084
			c0,0-9.605,73.291,23.983,59.332c33.591-13.96,147.549-47.7,111.559,55.842c-35.983,103.538-145.147,37.227-112.758,107.028
			c32.386,69.808,71.977,41.885,14.396,88.42c-57.575,46.531-130.75,70.964-116.352-38.396
			c14.395-109.356-29.991-65.152-82.77-3.488c-52.778,61.658-77.967,74.46-92.365-17.451
			c-14.395-91.906,80.369-67.475,62.379-93.067c-17.996-25.595-62.379,0-86.371-22.104
			C18.646,224.422,23.449,129.025,97.818,154.621z"/>
		<path fill="#27140E" d="M276.24,467.008c-12.469,0-22.498-4.229-29.812-12.568c-11.978-13.66-15.748-38.104-11.2-72.658
			c5.577-42.367,1.271-54.561-1.797-58.051c-0.791-0.905-1.57-1.258-2.771-1.258c-14.479,0-49.725,41.182-66.663,60.967
			c-27.041,31.6-47.333,51.178-64.907,51.182h-0.003c-24.414,0-33.401-36.342-38.97-71.9c-10.037-64.084,30.627-77.234,52.475-84.3
			c4.242-1.37,9.891-3.196,11.868-4.606c-0.159-0.325-0.421-0.784-0.85-1.391c-5.671-8.066-14.908-9.686-27.978-9.686
			c-2.975,0-6.005,0.084-9.056,0.164c-3.217,0.09-6.448,0.182-9.663,0.182c-12.876,0-27.55-1.396-38.743-11.71
			c-15.225-14.024-19.718-49.01-9.623-74.87c8.26-21.152,24.597-32.799,46.008-32.799c7.824,0,16.373,1.576,25.406,4.686
			c0.713,0.246,1.379,0.613,1.972,1.084c0.231,0.187,23.993,18.928,44.754,18.928c14.729,0,24.104-9.925,28.664-30.34
			c10.578-47.349,62.572-95.589,103.029-95.589c17.075,0,46.16,8.783,49.132,67.609c0.022,0.395,0.003,0.792-0.049,1.185
			c-2.002,15.381-2.388,42.967,5.119,51.512c1.316,1.502,2.672,2.145,4.515,2.145c1.494,0,3.275-0.426,5.295-1.263
			c18.925-7.868,50.091-17.056,75.631-17.056c21.077,0,36.036,6.017,44.478,17.884c9.889,13.907,9.957,35.191,0.2,63.261
			c-20.396,58.671-63.613,66.337-92.212,71.409c-12.219,2.167-22.769,4.043-25.298,8.893c-1.354,2.596-1.669,8.48,4.508,21.789
			c12.138,26.16,25.033,37.676,33.563,45.301c6.09,5.439,10.899,9.733,10.735,16.416c-0.212,8.431-7.926,15.358-31.74,34.602
			C343.385,441.412,307.113,467.008,276.24,467.008z M230.661,309.291c5,0,9.387,1.988,12.681,5.748
			c8.396,9.574,9.93,30.691,4.952,68.464c-3.975,30.19-1.188,51.718,8.045,62.246c4.767,5.438,11.271,8.077,19.901,8.077
			c19.589,0,47.921-13.818,77.736-37.92c10.898-8.807,25.768-20.826,26.814-24.584c-0.582-1.236-3.749-4.062-6.315-6.355
			c-8.767-7.831-23.45-20.949-36.732-49.574c-7.053-15.209-8.361-25.52-4.238-33.431c5.524-10.606,19.033-13.002,34.685-15.776
			c28.604-5.074,64.209-11.39,82.062-62.763c8.274-23.807,8.781-41.065,1.509-51.293c-5.824-8.19-17.178-12.344-33.735-12.344
			c-23.602,0-52.768,8.645-70.574,16.047c-9.938,4.125-18.773,2.477-24.778-4.361c-13.378-15.25-9.204-54.419-8.351-61.303
			c-1.354-25.012-8.723-54.513-35.938-54.513c-33.898,0-81.088,44.635-90.165,85.28c-7.506,33.597-26.727,40.649-41.528,40.649
			c-23.037,0-46.939-17.196-52.032-21.074c-7.263-2.406-14.021-3.624-20.1-3.624c-20.002,0-29.381,13.275-33.728,24.412
			c-8.685,22.243-3.673,51.219,6.275,60.38c7.836,7.227,18.96,8.223,29.811,8.223c3.095,0,6.205-0.087,9.3-0.175
			c3.175-0.086,6.329-0.17,9.419-0.17c14.553,0,29.317,1.849,38.763,15.286c3.268,4.65,4.243,9.054,2.895,13.091
			c-2.385,7.127-10.444,9.732-20.643,13.029c-21.865,7.07-51.806,16.751-43.51,69.721c6.315,40.318,15.046,60.761,25.949,60.761
			c13.251-0.008,35.186-23.546,54.896-46.575C189.533,333.337,213.479,309.291,230.661,309.291z"/>
	</g>
</g>
</svg>
