<?xml version="1.0" encoding="utf-8"?>
<!-- Generator: Adobe Illustrator 16.0.0, SVG Export Plug-In . SVG Version: 6.00 Build 0)  -->
<!DOCTYPE svg PUBLIC "-//W3C//DTD SVG 1.1//EN" "http://www.w3.org/Graphics/SVG/1.1/DTD/svg11.dtd">
<svg version="1.1" id="Layer_1" xmlns="http://www.w3.org/2000/svg" xmlns:xlink="http://www.w3.org/1999/xlink" x="0px" y="0px"
	 width="500px" height="500px" viewBox="0 0 500 500" enable-background="new 0 0 500 500" xml:space="preserve">
<g id="Layer_1_copy_64">
	<g>
		<path fill="#D55245" d="M155.703,424.255v25.272h23.131c0,0,0.92-11.05,11.139-12.641c9.587-1.484,47.77-0.674,64.684-0.226
			c0,0,68.536-1.701,80.956,0.226c10.212,1.591,11.142,12.641,11.142,12.641h23.127v-25.272l-128.505-73.249L155.703,424.255z"/>
		<path fill="#3C2517" d="M369.881,452.412h-23.127c-1.498,0-2.746-1.149-2.876-2.643c-0.03-0.345-0.911-8.817-8.71-10.031
			c-2.603-0.405-9.784-0.883-29.204-0.883c-23.116,0-50.958,0.685-51.239,0.69c-8.954-0.236-25.893-0.628-40.366-0.628
			c-15.41,0-21.529,0.448-23.948,0.819c-7.793,1.214-8.673,9.688-8.706,10.046c-0.136,1.48-1.383,2.628-2.87,2.628h-23.131
			c-1.595,0-2.883-1.292-2.883-2.884v-25.272c0-0.841,0.372-1.645,1.009-2.188l85.674-73.25c0.922-0.789,2.242-0.92,3.302-0.314
			l128.506,73.252c0.896,0.512,1.453,1.465,1.453,2.502v25.272C372.765,451.12,371.473,452.412,369.881,452.412z M349.162,446.649
			h17.836v-20.718l-125.29-71.418l-83.121,71.073v21.062h17.832c1.229-4.812,4.91-11.332,13.108-12.604
			c3.867-0.603,11.985-0.891,24.831-0.891c14.541,0,31.535,0.389,40.371,0.624c0.133-0.007,28.049-0.69,51.234-0.69
			c16.112,0,25.955,0.312,30.091,0.957C344.25,435.317,347.934,441.841,349.162,446.649z"/>
	</g>
	<g>
		<path fill="#BADC9F" d="M381.023,156.341c0,8.149-6.91,14.752-15.425,14.752H159.988c-8.517,0-15.423-6.604-15.423-14.752V53.059
			c0-8.149,6.906-14.752,15.423-14.752H365.6c8.515,0,15.425,6.604,15.425,14.752L381.023,156.341L381.023,156.341z"/>
		<path fill="#3C2517" d="M365.6,173.977H159.988c-10.096,0-18.304-7.913-18.304-17.636V53.059c0-9.723,8.208-17.636,18.304-17.636
			H365.6c10.096,0,18.305,7.913,18.305,17.636v103.282C383.903,166.064,375.694,173.977,365.6,173.977z M159.988,41.186
			c-6.916,0-12.541,5.329-12.541,11.873v103.282c0,6.548,5.625,11.873,12.541,11.873H365.6c6.913,0,12.541-5.325,12.541-11.873
			V53.059c0-6.544-5.628-11.873-12.541-11.873H159.988z"/>
	</g>
	<g>
		<path fill="#0A9077" d="M381.023,396.131c0,15.534-6.91,28.124-15.425,28.124H159.988c-8.517,0-15.423-12.59-15.423-28.124
			V199.224c0-15.534,6.906-28.13,15.423-28.13H365.6c8.515,0,15.425,12.597,15.425,28.13L381.023,396.131L381.023,396.131z"/>
		<path fill="#3C2517" d="M365.6,427.139H159.988c-10.265,0-18.304-13.619-18.304-31.008V199.224c0-17.387,8.039-31.01,18.304-31.01
			H365.6c10.266,0,18.305,13.623,18.305,31.01v196.908C383.903,413.52,375.864,427.139,365.6,427.139z M159.988,173.977
			c-5.933,0-12.541,10.371-12.541,25.247v196.908c0,14.876,6.608,25.24,12.541,25.24H365.6c5.935,0,12.541-10.364,12.541-25.24
			V199.224c0-14.875-6.606-25.247-12.541-25.247H159.988z"/>
	</g>
	<g>
		<path fill="#FEE9AE" d="M174.12,250.129c0,5.083-4.119,9.208-9.208,9.208l0,0c-5.083,0-9.209-4.126-9.209-9.208V205.15
			c0-5.085,4.126-9.208,9.209-9.208l0,0c5.089,0,9.208,4.123,9.208,9.208V250.129z"/>
		<path fill="#3C2517" d="M164.912,262.221c-6.667,0-12.092-5.425-12.092-12.092V205.15c0-6.667,5.425-12.091,12.092-12.091
			c6.67,0,12.091,5.424,12.091,12.091v44.979C177.003,256.796,171.582,262.221,164.912,262.221z M164.912,198.825
			c-3.489,0-6.325,2.837-6.325,6.325v44.979c0,3.488,2.836,6.33,6.325,6.33c3.487,0,6.328-2.842,6.328-6.33V205.15
			C171.24,201.662,168.399,198.825,164.912,198.825z"/>
	</g>
	<g>
		<path fill="#FEE9AE" d="M176.051,146.036c0,5.086-4.123,9.212-9.213,9.212l0,0c-5.086,0-9.208-4.126-9.208-9.212V101.06
			c0-5.089,4.122-9.212,9.208-9.212l0,0c5.09,0,9.213,4.123,9.213,9.212V146.036L176.051,146.036z"/>
		<path fill="#3C2517" d="M166.838,158.131c-6.663,0-12.091-5.428-12.091-12.095V101.06c0-6.671,5.428-12.095,12.091-12.095
			c6.671,0,12.092,5.424,12.092,12.095v44.976C178.93,152.703,173.509,158.131,166.838,158.131z M166.838,94.729
			c-3.487,0-6.324,2.84-6.324,6.332v44.976c0,3.491,2.837,6.329,6.324,6.329c3.488,0,6.332-2.837,6.332-6.329v-44.976
			C173.17,97.569,170.326,94.729,166.838,94.729z"/>
	</g>
</g>
</svg>
