<?xml version="1.0" encoding="utf-8"?>
<!-- Generator: Adobe Illustrator 16.0.0, SVG Export Plug-In . SVG Version: 6.00 Build 0)  -->
<!DOCTYPE svg PUBLIC "-//W3C//DTD SVG 1.1//EN" "http://www.w3.org/Graphics/SVG/1.1/DTD/svg11.dtd">
<svg version="1.1" id="Layer_1" xmlns="http://www.w3.org/2000/svg" xmlns:xlink="http://www.w3.org/1999/xlink" x="0px" y="0px"
	 width="500px" height="500px" viewBox="0 0 500 500" enable-background="new 0 0 500 500" xml:space="preserve">
<g id="Layer_1_copy_68">
	<g>
		<g>
			<path fill="#FFFFFF" d="M416.354,428.85c0,10.352-8.473,18.818-18.825,18.818h-36.021c-10.351,0-27.294,0-37.647,0H88.494
				c-10.354,0-18.822-8.468-18.822-18.818V148.971c0-10.354,8.469-18.822,18.822-18.822h309.033
				c10.354,0,18.825,8.468,18.825,18.822v205.423c0,10.351,0,27.295,0,37.646L416.354,428.85L416.354,428.85z"/>
		</g>
		<g>
			<path fill="#27140E" d="M397.527,451.703H88.494c-12.605,0-22.855-10.25-22.855-22.854V148.971
				c0-12.606,10.25-22.86,22.855-22.86h309.033c12.603,0,22.858,10.254,22.858,22.86V428.85
				C420.387,441.453,410.13,451.703,397.527,451.703z M88.494,134.182c-8.155,0-14.788,6.633-14.788,14.789V428.85
				c0,8.152,6.633,14.785,14.788,14.785h309.033c8.155,0,14.793-6.633,14.793-14.785V148.971c0-8.156-6.638-14.789-14.793-14.789
				H88.494z"/>
		</g>
	</g>
	<g>
		<g>
			<path fill="#D95241" d="M436.838,181.841c0,10.354-8.472,18.822-18.822,18.822H65.639c-10.35,0-18.821-8.468-18.821-18.822
				V79.238c0-10.35,8.472-18.822,18.821-18.822h352.376c10.352,0,18.822,8.472,18.822,18.822V181.841z"/>
		</g>
		<g>
			<path fill="#27140E" d="M418.016,204.696H65.639c-12.603,0-22.855-10.25-22.855-22.855V79.238
				c0-12.602,10.253-22.855,22.855-22.855h352.376c12.604,0,22.855,10.254,22.855,22.855v102.603
				C440.871,194.447,430.618,204.696,418.016,204.696z M65.639,64.45c-8.151,0-14.788,6.636-14.788,14.788v102.603
				c0,8.156,6.637,14.789,14.788,14.789h352.376c8.151,0,14.789-6.633,14.789-14.789V79.238c0-8.152-6.638-14.788-14.789-14.788
				H65.639z"/>
		</g>
	</g>
	<g>
		<path fill="#424143" d="M155.55,119.983c0,11.052-8.638,20.01-19.3,20.01l0,0c-10.662,0-19.305-8.958-19.305-20.01v-71.07
			c0-11.056,8.643-20.014,19.305-20.014l0,0c10.662,0,19.3,8.958,19.3,20.014V119.983z"/>
		<path fill="#27140E" d="M136.25,144.027c-12.868,0-23.338-10.786-23.338-24.043v-71.07c0-13.258,10.47-24.047,23.338-24.047
			s23.333,10.79,23.333,24.047v71.07C159.583,133.241,149.118,144.027,136.25,144.027z M136.25,32.934
			c-8.419,0-15.271,7.164-15.271,15.98v71.07c0,8.808,6.852,15.976,15.271,15.976c8.418,0,15.267-7.168,15.267-15.976v-71.07
			C151.517,40.098,144.668,32.934,136.25,32.934z"/>
	</g>
	<g>
		<path fill="#424143" d="M365.532,119.983c0,11.052-8.639,20.01-19.3,20.01l0,0c-10.667,0-19.305-8.958-19.305-20.01v-71.07
			c0-11.056,8.638-20.014,19.305-20.014l0,0c10.662,0,19.3,8.958,19.3,20.014V119.983L365.532,119.983z"/>
		<path fill="#27140E" d="M346.232,144.027c-12.868,0-23.339-10.786-23.339-24.043v-71.07c0-13.258,10.471-24.047,23.339-24.047
			c12.867,0,23.333,10.79,23.333,24.047v71.07C369.565,133.241,359.101,144.027,346.232,144.027z M346.232,32.934
			c-8.423,0-15.271,7.164-15.271,15.98v71.07c0,8.808,6.849,15.976,15.271,15.976c8.418,0,15.267-7.168,15.267-15.976v-71.07
			C361.499,40.098,354.65,32.934,346.232,32.934z"/>
	</g>
	<g>
		<g>
			<path fill="#E5E5E5" d="M416.184,371.309v57.611c0,10.35-8.472,18.825-18.824,18.825h-56.812"/>
		</g>
		<g>
			<path fill="#2C2010" d="M397.358,451.779h-56.812c-2.225,0-4.033-1.806-4.033-4.033c0-2.229,1.81-4.033,4.033-4.033h56.812
				c8.154,0,14.792-6.641,14.792-14.792v-57.612c0-2.222,1.805-4.033,4.032-4.033c2.229,0,4.034,1.812,4.034,4.033v57.612
				C420.218,441.522,409.964,451.779,397.358,451.779z"/>
		</g>
	</g>
	<g>
		<path fill="#D2D3D4" d="M416.47,371.525l-57.604,0.283c-10.351,0.055-18.599,8.562-18.319,18.912l1.55,58.136"/>
	</g>
	<g>
		<path fill="#2C2010" d="M329.292,451.779c-2.226,0-4.025-1.796-4.037-4.018c-0.008-2.229,1.797-4.042,4.022-4.05l22.852-0.077
			c0.003,0,0.007,0,0.012,0c2.222,0,4.025,1.797,4.033,4.025c0.008,2.222-1.793,4.034-4.021,4.042l-22.849,0.076L329.292,451.779
			L329.292,451.779z"/>
	</g>
	<g>
		<path fill="#1D1D1D" d="M414.846,387.527c-1.487,0-2.69-1.195-2.69-2.685v-21.672c0-1.487,1.203-2.69,2.69-2.69
			c1.485,0,2.688,1.203,2.688,2.69v21.672C417.534,386.332,416.331,387.527,414.846,387.527z"/>
	</g>
	<g>
		<path fill="#333333" d="M160.748,261.545h57.48v14.168h-40.744v18.54h35.717v13.998h-35.717v33.804h-16.736V261.545
			L160.748,261.545z"/>
		<path fill="#333333" d="M280.83,263.511c2.971,1.28,5.484,3.154,7.548,5.64c1.708,2.043,3.058,4.304,4.054,6.779
			c0.998,2.481,1.491,5.305,1.491,8.475c0,3.834-0.965,7.597-2.896,11.299c-1.937,3.703-5.127,6.316-9.571,7.844
			c3.717,1.497,6.351,3.626,7.901,6.379c1.55,2.754,2.324,6.948,2.324,12.604v5.412c0,3.688,0.15,6.187,0.447,7.498
			c0.443,2.074,1.48,3.608,3.107,4.588v2.029h-18.594c-0.514-1.791-0.877-3.232-1.097-4.32c-0.437-2.26-0.675-4.58-0.709-6.947
			l-0.112-7.489c-0.068-5.146-0.957-8.567-2.66-10.288c-1.713-1.713-4.908-2.568-9.603-2.568h-16.451v31.613h-16.462v-80.617h38.562
			C273.62,261.545,277.861,262.24,280.83,263.511z M246.013,275.441V297.1h18.133c3.598,0,6.297-0.439,8.101-1.32
			c3.187-1.525,4.778-4.557,4.778-9.076c0-4.881-1.543-8.168-4.623-9.842c-1.731-0.947-4.331-1.42-7.789-1.42H246.013z"/>
		<path fill="#333333" d="M325.428,342.055h-16.735v-80.617h16.735V342.055z"/>
	</g>
</g>
</svg>
