<?xml version="1.0" encoding="utf-8"?>
<!-- Generator: Adobe Illustrator 16.0.0, SVG Export Plug-In . SVG Version: 6.00 Build 0)  -->
<!DOCTYPE svg PUBLIC "-//W3C//DTD SVG 1.1//EN" "http://www.w3.org/Graphics/SVG/1.1/DTD/svg11.dtd">
<svg version="1.1" id="Layer_1" xmlns="http://www.w3.org/2000/svg" xmlns:xlink="http://www.w3.org/1999/xlink" x="0px" y="0px"
	 width="500px" height="500px" viewBox="0 0 500 500" enable-background="new 0 0 500 500" xml:space="preserve">
<g id="Layer_1_copy_43">
	<g>
		<path d="M373.812,191.673c-5.111-43.141-20.166-83.154-46.554-118.024c-6.92-9.148-16.782-16.381-26.208-23.248
			c-13.148-9.589-27.496-11.84-43.258-5.007c-5.371,2.332-12.75,2.758-18.402,1.183c-16.737-4.668-30.917-1.046-44.855,8.706
			c-41.458,28.995-64.841,59.022-64.688,119.061c-3.405,135.068,50.307,121.469,60.726,114.131
			c2.418-1.705,1.973-7.844,0.361-16.828c-14.984-12.94-25.636-30.566-29.519-50.541c-1.784,1.244-3.785,2.012-5.927,2.012
			c-7.183,0-13.008-7.841-13.008-17.515c0-9.669,5.825-17.515,13.008-17.515c1.988,0,3.86,0.651,5.551,1.738
			c7.077-42.805,44.948-75.52,90.758-75.52c44.636,0,81.827,31.04,90.252,72.224c0.985-0.321,2.009-0.541,3.068-0.541
			c7.183,0,13.008,7.837,13.008,17.515c0,9.665-5.825,17.51-13.008,17.51c-0.985,0-1.931-0.173-2.854-0.455
			c-3.597,19.147-18.789,22.23-32.67,35.073c-0.777,6.724-4.508,25.414,2.823,31.55c7.335,6.141,42.647-6.179,40.48-17.949
			c-1.396-7.562-4.463-6.054,1.104-8.301c5.571-2.248,8.097-25.196,11.367-36.328C368.593,213.664,375.057,202.174,373.812,191.673z
			"/>
	</g>
	<g>
		<g>
			<path fill="#FCC393" d="M217.95,284.291c0,0,1.554,19.57-9.033,25.779c-10.588,6.213-16.828,82.186-16.828,82.186l127.446,23.107
				l-13.909-83.369l-15.271-25.582c0,0-5.041-8.227-2.205-22.121C290.99,270.393,217.853,273.123,217.95,284.291z"/>
		</g>
		<g>
			<path fill="#281912" d="M323.271,419.148l-134.458-24.381l0.228-2.765c1.495-18.192,7.233-78.058,18.326-84.567
				c7.301-4.289,7.917-17.984,7.536-22.904l-0.011-0.209c-0.009-1.129,0.324-2.824,1.977-4.494
				c6.279-6.336,28.163-8.025,40.104-8.025c9.973,0,27.482,0.956,32.7,7.346c1.39,1.699,1.899,3.688,1.478,5.754
				c-2.531,12.4,1.647,19.628,1.826,19.929l15.571,26.094l0.1,0.57L323.271,419.148z M195.372,389.74l120.43,21.834l-13.095-78.508
				l-14.979-25.086c-0.209-0.351-5.619-9.392-2.576-24.297c0.031-0.164,0.063-0.318-0.219-0.662
				c-2.006-2.457-11.607-5.101-27.961-5.101c-21.492,0-34.688,4.146-35.948,6.429c0.166,2.731,0.901,21.639-10.559,28.36
				C204.92,315.968,198.42,354.667,195.372,389.74z"/>
		</g>
	</g>
	<g>
		<g>
			<path fill="#FCC393" d="M346.865,184.566c-1.06,0-2.083,0.215-3.067,0.541c-8.426-41.188-45.617-72.226-90.253-72.226
				c-45.81,0-83.683,32.717-90.758,75.517c-1.69-1.082-3.562-1.737-5.556-1.737c-7.182,0-13.007,7.845-13.007,17.515
				c0,9.673,5.825,17.519,13.007,17.519c2.146,0,4.15-0.769,5.932-2.016c8.089,41.596,45.452,73.068,90.382,73.068
				c45.125,0,82.596-31.747,90.469-73.609c0.917,0.278,1.867,0.455,2.853,0.455c7.183,0,13.007-7.845,13.007-17.515
				C359.872,192.403,354.048,184.566,346.865,184.566z"/>
		</g>
		<g>
			<path fill="#281912" d="M253.545,295.805c-44.235,0-82.519-29.896-92.54-71.645c-1.235,0.393-2.495,0.593-3.773,0.593
				c-8.857,0-16.066-9.229-16.066-20.578c0-11.344,7.209-20.57,16.066-20.57c1.099,0,2.189,0.145,3.26,0.436
				c9.023-43.236,47.539-74.219,93.054-74.219c44.142,0,82.592,29.979,92.595,71.708c9.233-0.596,16.792,8.893,16.792,20.547
				c0,11.537-7.5,20.912-16.514,20.562C336.969,265.215,298.393,295.805,253.545,295.805z M165.267,214.468l0.897,4.625
				c7.959,40.902,44.706,70.593,87.381,70.593c42.93,0,79.712-29.912,87.46-71.115l0.631-3.354l3.265,0.989
				c0.718,0.219,1.36,0.322,1.966,0.322c5.394,0,9.947-6.618,9.947-14.452c0-7.833-4.555-14.455-9.947-14.455
				c-0.625,0-1.314,0.129-2.115,0.392l-3.263,1.071l-0.688-3.366c-8.271-40.435-44.969-69.778-87.255-69.778
				c-43.853,0-80.752,30.681-87.739,72.959l-0.76,4.578l-3.907-2.503c-6.739-4.307-13.854,3.496-13.851,13.2
				c0,9.846,7.327,17.746,14.122,12.996L165.267,214.468z"/>
		</g>
	</g>
	<g>
		<path fill="#141211" d="M220.409,202.069c0,6.998-4.538,12.673-10.132,12.673c-5.59,0-10.124-5.676-10.124-12.673
			c0-6.995,4.534-12.67,10.124-12.67C215.871,189.398,220.409,195.074,220.409,202.069z"/>
	</g>
	<g>
		<path fill="#FFFFFA" d="M212.373,202.076c0,2.436-1.828,4.405-4.088,4.405c-2.26,0-4.084-1.969-4.084-4.405
			c0-2.439,1.824-4.413,4.084-4.413C210.545,197.663,212.373,199.637,212.373,202.076z"/>
	</g>
	<g>
		<path fill="#141211" d="M302.946,202.069c0,6.998-4.539,12.673-10.128,12.673c-5.59,0-10.133-5.676-10.133-12.673
			c0-6.995,4.543-12.67,10.133-12.67C298.407,189.398,302.946,195.074,302.946,202.069z"/>
	</g>
	<g>
		<path fill="#FFFFFA" d="M294.913,202.076c0,2.436-1.833,4.405-4.083,4.405c-2.266,0-4.092-1.969-4.092-4.405
			c0-2.439,1.826-4.413,4.092-4.413C293.08,197.663,294.913,199.637,294.913,202.076z"/>
	</g>
	<g>
		<path fill="#834C1F" d="M243.88,225.169c0,0,13.349,1.989,15.192-5.469c1.839-7.453,0-22.037,0-22.037s8.281,11.113,4.138,24.524
			C259.072,235.599,237.505,225.055,243.88,225.169z"/>
	</g>
	<g opacity="0.7">
		<g>
			<path fill="#F9A880" d="M212.373,229.892c0,4.53-5.716,8.195-12.788,8.195c-7.053,0-12.781-3.665-12.781-8.195
				c0-4.535,5.729-8.198,12.781-8.198C206.657,221.693,212.373,225.357,212.373,229.892z"/>
		</g>
	</g>
	<g opacity="0.7">
		<g>
			<path fill="#F9A880" d="M322.944,229.001c0,4.531-5.724,8.202-12.785,8.202s-12.787-3.671-12.787-8.202
				c0-4.526,5.727-8.19,12.787-8.19C317.222,220.811,322.944,224.475,322.944,229.001z"/>
		</g>
	</g>
	<g>
		<path fill="#FFFFFF" d="M226.389,241.566c0,0,5.985,23.355,27.156,22.355c21.171-0.993,29.141-22.355,29.141-22.355
			s-9.347,11.195-29.141,11.195C233.214,252.761,226.389,241.566,226.389,241.566z"/>
	</g>
	<g>
		<path fill="#301E12" d="M195.752,187.535c0,0,4.602-6.461,13.349-5.715c8.748,0.741,9.666,2.483,10.125-2.236
			c0.458-4.719-3.684-5.715-10.125-4.97C202.664,175.359,190.233,189.033,195.752,187.535z"/>
	</g>
	<g>
		<path fill="#301E12" d="M308.436,187.535c0,0-4.602-6.461-13.347-5.715c-8.743,0.741-9.665,2.483-10.124-2.236
			c-0.458-4.719,3.688-5.715,10.124-4.97C301.534,175.359,313.961,189.033,308.436,187.535z"/>
	</g>
	<g>
		<path fill="#F89720" d="M206.817,314.244c0,0-11.363,49.107,40.31,47.457c58.244-1.863,44.205-31.045,45.691-51.168
			c0,0-5.336-1.004,43.109,10.176c48.444,11.178,64.097,24.596,71.549,117.756c3.728,26.83-36.517,20.123-36.517,20.123
			l-241.474,1.607c0,0-34.288,8.08-26.836-29.929C110.11,392.255,105.437,315.184,206.817,314.244z"/>
		<path fill="#281912" d="M122.344,463.972c-8.227,0-14.742-2.629-18.837-7.604c-4.872-5.922-6.166-14.898-3.856-26.689
			c0.955-4.865,1.719-10.482,2.531-16.42c5.491-40.312,13.792-101.229,104.609-102.076c0.851-0.043,1.819,0.416,2.408,1.146
			c0.588,0.729,0.808,1.688,0.6,2.6c-0.047,0.201-4.393,19.896,5.747,32.613c5.892,7.396,15.676,11.142,29.071,11.142
			c0.787,0,1.588-0.011,2.416-0.039c19.205-0.615,31.562-4.216,37.781-11.015c6.194-6.771,5.648-16.396,5.125-25.709
			c-0.201-3.547-0.41-7.203-0.231-10.646c-0.114-0.386-0.149-0.789-0.092-1.197c0.217-1.502,1.52-2.623,3.041-2.623
			c0.188,0,0.54,0.041,0.727,0.074c0.25,0.047,0.485,0.125,0.71,0.227c1.879,0.49,9.865,2.441,42.524,9.973
			c51.523,11.896,66.528,28.23,73.907,120.5c0.888,6.343-0.455,11.726-4.021,15.812c-6.015,6.908-17.049,8.354-25.247,8.354
			c-5.257,0-9.434-0.573-10.527-0.739l-240.907,1.602C128.827,463.455,125.952,463.972,122.344,463.972z M203.187,317.371
			c-82.078,2.326-89.504,56.787-94.94,96.709c-0.824,6.039-1.602,11.736-2.59,16.779c-1.94,9.901-1.074,17.182,2.574,21.614
			c3.659,4.445,9.696,5.379,14.113,5.379c3.644,0,6.416-0.633,6.445-0.641c0.22-0.049,0.45-0.076,0.679-0.082l241.47-1.6
			c0.139-0.008,0.351,0.012,0.526,0.039c0.039,0.004,4.318,0.703,9.795,0.703c6.929,0,16.135-1.085,20.629-6.255
			c2.382-2.733,3.222-6.375,2.56-11.133c-7.462-93.27-23.02-104.537-69.204-115.197c-19.847-4.576-33.236-7.701-39.479-9.217
			c0.014,2.26,0.147,4.637,0.284,7.1c0.572,10.082,1.22,21.515-6.716,30.189c-7.395,8.076-21.166,12.328-42.105,12.994
			c-0.891,0.031-1.754,0.045-2.608,0.045c-15.37,0-26.772-4.537-33.881-13.48C201.609,339.839,202.264,324.443,203.187,317.371z"/>
	</g>
	<g>
		<path d="M129.849,174.343c-0.153-60.039,23.229-90.066,64.688-119.061c13.938-9.751,28.118-13.374,44.855-8.706
			c5.652,1.575,13.031,1.149,18.402-1.183c15.761-6.833,30.108-4.582,43.258,5.007c9.426,6.866,19.288,14.1,26.208,23.248
			c26.388,34.87,48.425,94.854,46.554,118.024c-29.073-22.731-33.49,0.73-33.49,0.73c-1.679-18.009-27.907-29.193-47.724-45.558
			c4.785,9.619,12.372,16.632,17.812,27.549c-36.904-16.816-66.937-13-95.947-37.222c9.203,11.328,18.408,22.649,27.615,33.97
			c-0.538,0.831-1.071,1.659-1.608,2.495c-14.973-9.532-29.954-19.065-43.334-27.584c0,0-29.601,43.883-31.895,46.688
			C168.046,179.227,129.849,174.343,129.849,174.343z"/>
	</g>
	<g>
		<path fill="#F15A25" d="M181.148,316.395c0,0-0.451,63.307,61.341,63.989c61.795,0.675,67.239-16.03,69.959-65.471l-19.63-4.381
			c0,0,16.823,55.243-45.691,51.168c-48.911,4.758-40.31-47.457-40.31-47.457L181.148,316.395z"/>
		<path fill="#281912" d="M246.021,383.46h-0.005c-1.165,0-2.353-0.006-3.561-0.021c-64.097-0.707-64.371-66.403-64.367-67.065
			c0.012-1.582,1.229-2.896,2.805-3.026l25.67-2.154c0.937-0.066,1.858,0.283,2.498,0.973c0.641,0.689,0.926,1.641,0.773,2.568
			c-0.036,0.219-3.429,22.022,7.445,34.807c6.24,7.336,16.225,10.42,29.554,9.111c0.163-0.017,0.329-0.017,0.493-0.006
			c2.126,0.137,4.205,0.211,6.179,0.211h0.003c15.385,0,26.29-4.179,32.401-12.416c10.229-13.771,4.044-34.81,3.979-35.019
			c-0.312-1.043-0.054-2.176,0.688-2.969c0.737-0.797,1.848-1.144,2.907-0.906l19.625,4.377c1.464,0.33,2.472,1.66,2.389,3.158
			C312.773,364.707,306.068,383.46,246.021,383.46z M184.325,319.203c0.353,5.115,1.73,16.518,7.166,27.791
			c9.58,19.857,26.746,30.059,51.034,30.328c1.185,0.016,2.35,0.018,3.491,0.018c55.957,0,60.656-15.486,63.23-60.006l-12.354-2.756
			c1.458,7.867,2.806,23.537-6.05,35.484c-7.327,9.893-19.891,14.91-37.336,14.91h-0.003c-2.031,0-4.158-0.066-6.329-0.205
			c-15.355,1.442-27.018-2.381-34.58-11.285c-9.808-11.56-9.815-28.361-9.23-35.881L184.325,319.203z"/>
	</g>
</g>
</svg>
