<?xml version="1.0" encoding="utf-8"?>
<!-- Generator: Adobe Illustrator 16.0.0, SVG Export Plug-In . SVG Version: 6.00 Build 0)  -->
<!DOCTYPE svg PUBLIC "-//W3C//DTD SVG 1.1//EN" "http://www.w3.org/Graphics/SVG/1.1/DTD/svg11.dtd">
<svg version="1.1" id="Layer_1" xmlns="http://www.w3.org/2000/svg" xmlns:xlink="http://www.w3.org/1999/xlink" x="0px" y="0px"
	 width="500px" height="500px" viewBox="0 0 500 500" enable-background="new 0 0 500 500" xml:space="preserve">
<g id="Layer_1_copy_71">
	<g>
		<g>
			<path fill="#BE202E" d="M485.845,264.188c0,81.268-103.381,147.146-230.911,147.146c-127.525,0-230.912-65.879-230.912-147.146
				c0-81.269,103.386-147.148,230.912-147.148C382.464,117.039,485.845,182.919,485.845,264.188z"/>
			<path fill="#3C2517" d="M254.934,415.637c-129.696,0-235.218-67.938-235.218-151.449c0-83.508,105.521-151.453,235.218-151.453
				c129.698,0,235.218,67.944,235.218,151.453C490.15,347.699,384.632,415.637,254.934,415.637z M254.934,121.342
				c-124.949,0-226.606,64.081-226.606,142.846c0,78.762,101.658,142.838,226.606,142.838c124.952,0,226.606-64.076,226.606-142.838
				C481.54,185.422,379.886,121.342,254.934,121.342z"/>
		</g>
		<g>
			<path fill="#3C2517" d="M254.934,354.238c-109.824,0-199.177-50.781-199.177-113.198s89.353-113.187,199.177-113.187
				c109.826,0,199.177,50.77,199.177,113.187C454.109,303.457,364.76,354.238,254.934,354.238z M254.934,136.459
				c-105.08,0-190.565,46.914-190.565,104.581s85.486,104.587,190.565,104.587c105.082,0,190.565-46.921,190.565-104.587
				C445.499,183.373,360.016,136.459,254.934,136.459z"/>
		</g>
		<g>
			<g>
				<path fill="#FFFFFF" d="M254.49,266.846c-64.683,0-113.461-25.729-113.461-59.833c0-34.113,48.778-59.835,113.461-59.835
					c64.687,0,113.458,25.722,113.458,59.835C367.948,241.116,319.177,266.846,254.49,266.846z M254.49,168.449
					c-52.764,0-92.184,20.361-92.184,38.562c0,18.197,39.42,38.558,92.184,38.558c52.761,0,92.187-20.361,92.187-38.558
					C346.677,188.811,307.251,168.449,254.49,168.449z"/>
				<path fill="#3C2517" d="M254.49,271.154c-67.136,0-117.763-27.577-117.763-64.142c0-36.569,50.627-64.142,117.763-64.142
					c67.137,0,117.767,27.573,117.767,64.142C372.257,243.577,321.627,271.154,254.49,271.154z M254.49,151.479
					c-62.229,0-109.153,23.87-109.153,55.533c0,31.658,46.924,55.532,109.153,55.532c62.23,0,109.154-23.874,109.154-55.532
					C363.646,175.349,316.722,151.479,254.49,151.479z M254.49,249.873c-51.402,0-96.491-20.03-96.491-42.861
					c0-22.836,45.089-42.866,96.491-42.866c51.399,0,96.487,20.03,96.487,42.866C350.979,229.843,305.891,249.873,254.49,249.873z
					 M254.49,172.756c-23.949,0-46.723,4.287-64.12,12.075c-14.656,6.563-23.761,15.061-23.761,22.18
					c0,13.634,35.05,34.25,87.881,34.25c23.951,0,46.72-4.291,64.12-12.079c14.657-6.56,23.76-15.057,23.76-22.171
					C342.37,193.373,307.321,172.756,254.49,172.756z"/>
			</g>
		</g>
		<g>
			<path fill="#424143" d="M302.355,206.124c0,11.013-20.039,19.943-44.76,19.943c-24.726,0-44.764-8.93-44.764-19.943
				c0-11.018,20.038-19.948,44.764-19.948C282.316,186.176,302.355,195.106,302.355,206.124z"/>
			<path fill="#3C2517" d="M257.596,230.375c-27.976,0-49.069-10.429-49.069-24.25c0-13.825,21.094-24.25,49.069-24.25
				c27.971,0,49.068,10.426,49.068,24.25C306.664,219.945,285.564,230.375,257.596,230.375z M257.596,190.483
				c-23.157,0-40.458,8.254-40.458,15.641c0,7.383,17.301,15.64,40.458,15.64c23.157,0,40.458-8.257,40.458-15.64
				C298.054,198.737,280.753,190.483,257.596,190.483z"/>
		</g>
	</g>
</g>
</svg>
