<?xml version="1.0" encoding="utf-8"?>
<!-- Generator: Adobe Illustrator 16.0.0, SVG Export Plug-In . SVG Version: 6.00 Build 0)  -->
<!DOCTYPE svg PUBLIC "-//W3C//DTD SVG 1.1//EN" "http://www.w3.org/Graphics/SVG/1.1/DTD/svg11.dtd">
<svg version="1.1" id="Layer_1" xmlns="http://www.w3.org/2000/svg" xmlns:xlink="http://www.w3.org/1999/xlink" x="0px" y="0px"
	 width="500px" height="500px" viewBox="0 0 500 500" enable-background="new 0 0 500 500" xml:space="preserve">
<g id="Layer_1_copy_95">
	<g>
		<g>
			<path fill="#4E4E4E" d="M461.794,254.227c0,51.851-95.512,93.896-213.326,93.896c-117.842,0-213.352-42.046-213.352-93.896
				c0-51.88,95.51-93.938,213.352-93.938C366.282,160.288,461.794,202.346,461.794,254.227z"/>
			<path fill="#3C2517" d="M248.468,350.625c-57.328,0-111.268-9.848-151.876-27.716c-41.255-18.161-63.977-42.554-63.977-68.683
				c0-26.148,22.722-50.551,63.977-68.71c40.608-17.884,94.544-27.728,151.876-27.728c57.322,0,111.248,9.844,151.853,27.728
				c41.254,18.161,63.978,42.562,63.978,68.71c0,26.129-22.724,50.519-63.978,68.683
				C359.712,340.779,305.787,350.625,248.468,350.625z M248.468,162.79c-116.267,0-210.852,41.02-210.852,91.438
				c0,50.395,94.585,91.394,210.852,91.394c116.252,0,210.824-40.999,210.824-91.394C459.292,203.809,364.72,162.79,248.468,162.79z
				"/>
		</g>
		<g>
			<path fill="#818181" d="M230.969,122.195c82.172-3.907,155.28,13.339,203.405,47.682c27.15,19.381,58.888,58.494,38.921,105.135
				c-3.781,8.832-8.847,18.579-15.572,26.268c-63.677,72.807-242.956,88.746-349.389,42.816
				c-36.539-15.769-67.209-36.799-80.772-67.144c-24.032-53.8,18.428-95.219,51.58-114.858c25.286-14.977,56.622-27.18,92.44-34.058
				C189.634,124.567,210.261,123.181,230.969,122.195z M172.554,166.961c-35.768,7.159-65.889,18.454-90.491,37.962
				c-9.505,7.542-24.363,24.73-24.329,40.899c0.042,19.039,14.842,32.314,27.248,41.826c64.338,49.369,197.17,58.693,285.161,25.314
				c26.937-10.229,72.986-33.372,72.986-67.142c0-19.464-15.538-34.276-30.168-44.794c-44.653-32.095-110.479-44.245-181.017-40.883
				C210.235,161.182,191.093,163.248,172.554,166.961z"/>
			<path fill="#3C2517" d="M249.645,372.427c-52.857,0-103.39-9.247-142.301-26.036c-42.918-18.52-69.763-40.899-82.066-68.418
				c-11.07-24.789-9.564-49.201,4.489-72.552c13.818-22.965,36.068-38.351,48.103-45.478c26.902-15.935,59.143-27.818,93.243-34.365
				c18.499-3.553,39.643-4.927,59.736-5.878c7.646-0.365,15.333-0.547,22.854-0.547c73.441,0,138.12,17.289,182.124,48.689
				c31.867,22.748,59.051,63.11,39.767,108.153c-4.888,11.409-10.116,20.219-15.985,26.935
				C422.105,345.798,341.654,372.427,249.645,372.427z M253.702,124.155c-7.443,0-15.057,0.179-22.613,0.541
				c-19.909,0.944-40.841,2.301-59.036,5.794c-33.535,6.439-65.222,18.111-91.634,33.754
				C6.703,207.907,23.071,260.771,29.847,275.93c11.764,26.324,37.763,47.869,79.477,65.866
				c38.3,16.527,88.132,25.628,140.321,25.628c90.606,0,169.619-25.97,206.193-67.79c5.52-6.312,10.48-14.688,15.159-25.608
				c18.111-42.316-7.793-80.497-38.075-102.112C389.758,141.112,326.11,124.155,253.702,124.155z M251.667,335.193
				c-0.007,0-0.01,0-0.019,0c-68.142-0.002-131.017-17.03-168.188-45.561c-13.933-10.686-28.187-24.24-28.229-43.808
				c-0.039-18.005,16.517-35.91,25.274-42.861c23.161-18.366,52.262-30.588,91.562-38.455c17.94-3.595,36.928-5.774,59.757-6.862
				c7.571-0.36,15.146-0.544,22.521-0.544c66.585,0,121.941,14.488,160.074,41.896c20.999,15.096,31.206,30.413,31.206,46.823
				c0,37.142-52.168,60.964-74.595,69.479C336.73,328.312,295.447,335.193,251.667,335.193z M254.348,162.105
				c-7.301,0-14.792,0.179-22.283,0.538c-22.571,1.076-41.329,3.229-59.015,6.769c-38.497,7.707-66.914,19.615-89.436,37.472
				c-9.42,7.471-23.412,24.004-23.381,38.931c0.039,17.396,13.303,29.906,26.271,39.852c36.33,27.879,98.067,44.522,165.145,44.522
				c0.002,0,0.016,0,0.019,0c42.567,0,84.324-6.945,117.592-19.562c21.457-8.151,71.368-30.778,71.368-64.807
				c0-14.686-9.525-28.675-29.129-42.765C374.224,176.267,319.878,162.105,254.348,162.105z"/>
		</g>
	</g>
	<g>
		<g>
			<path fill="#D58128" d="M186.265,130.805c0,0-2.112,6.351-17.467,3.177c-15.347-3.177-22.228-1.061-23.814,5.29
				c-1.592,6.353-6.879,10.587-12.173,17.996c-5.296,7.411-13.762,16.936-11.646,24.879c2.117,7.933,8.469,10.583,13.232,17.464
				c4.764,6.876,4.23,8.996,12.7,16.935c8.468,7.94,19.588,7.94,26.995,5.825c7.409-2.119,18.521-11.118,24.876-7.943
				c6.348,3.175,16.934,1.586,25.398,3.175c8.469,1.588,25.414,1.588,29.641-5.821c4.233-7.41,2.12-4.235,3.707-14.286
				c1.584-10.059,10.054-16.939,13.229-16.411c3.175,0.526,4.234-10.056,3.175-17.996c-1.058-7.937-6.353-10.052-3.175-17.992
				c3.175-7.94,1.057-12.704-9.525-14.291c-10.588-1.585-14.289,2.645-21.171-2.647c-6.881-5.29-16.407-9.524-16.938-3.703
				c-0.527,5.821-1.588,5.293-9.791,5.821C205.315,130.805,197.907,119.163,186.265,130.805z"/>
			<path fill="#3C2517" d="M165.481,226.066c-5.424,0-13.313-1.337-20.097-7.696c-6.101-5.725-7.824-8.704-9.814-12.155
				c-0.891-1.539-1.807-3.129-3.23-5.183c-1.675-2.419-3.616-4.328-5.493-6.171c-3.248-3.194-6.609-6.49-8.098-12.074
				c-2.121-7.959,4.104-16.306,9.594-23.666c0.852-1.139,1.679-2.247,2.435-3.306c1.771-2.484,3.562-4.644,5.146-6.547
				c3.181-3.838,5.694-6.87,6.63-10.6c1.433-5.735,6.26-8.644,14.33-8.644c3.445,0,7.51,0.494,12.423,1.509
				c2.687,0.559,5.107,0.836,7.203,0.836c6.207,0,7.415-2.448,7.431-2.474c0.119-0.368,0.277-0.581,0.558-0.857
				c3.987-3.987,7.999-5.923,12.253-5.923c3.645,0,6.851,1.42,9.682,2.672c2.481,1.097,4.793,2.142,6.924,1.994l2.117-0.124
				c5.065-0.288,5.065-0.288,5.344-3.425c0.289-3.136,2.479-5.079,5.723-5.079c4.492,0,10.816,3.63,15.23,7.024
				c3.689,2.835,6.079,2.349,9.443,2.04c2.879-0.263,6.766-0.456,10.576,0.119c6.098,0.912,9.96,2.921,11.805,6.138
				c1.703,2.967,1.594,6.742-0.328,11.548c-1.557,3.89-0.689,5.733,0.746,8.782c0.949,2.02,2.127,4.529,2.582,7.957
				c0.75,5.598,0.771,15.8-2.35,19.365c-1.075,1.226-2.264,1.48-3.074,1.48c-0.139,0-0.503-0.028-0.638-0.053
				c-1.636,0.005-8.938,5.385-10.353,14.331c-0.517,3.271-0.621,5.04-0.699,6.327c-0.191,3.14-0.438,3.795-3.307,8.813
				c-3.934,6.894-15.405,7.924-21.895,7.924c-3.631,0-7.317-0.312-10.374-0.887c-3.185-0.597-6.826-0.723-10.342-0.845
				c-5.867-0.205-11.405-0.396-15.718-2.55c-0.548-0.272-1.191-0.406-1.972-0.406c-3.287,0-8.007,2.419-12.17,4.557
				c-3.181,1.631-6.186,3.171-8.933,3.956C171.815,225.615,168.604,226.066,165.481,226.066z M156.884,135.025
				c-7.325,0-8.911,2.592-9.477,4.854c-1.213,4.839-4.188,8.424-7.632,12.581c-1.604,1.93-3.258,3.923-4.931,6.259
				c-0.777,1.091-1.621,2.225-2.491,3.39c-4.577,6.134-10.271,13.77-8.773,19.39c1.139,4.259,3.748,6.823,6.77,9.792
				c1.947,1.914,4.157,4.083,6.104,6.89c1.533,2.229,2.552,3.981,3.445,5.53c1.944,3.365,3.345,5.793,8.911,11.01
				c5.587,5.241,12.15,6.342,16.671,6.342c2.663,0,5.401-0.38,7.921-1.101c2.273-0.65,5.063-2.083,8.018-3.596
				c4.897-2.517,9.959-5.111,14.456-5.111c1.552,0,2.968,0.313,4.209,0.934c3.337,1.668,8.345,1.841,13.649,2.026
				c3.708,0.127,7.54,0.258,11.092,0.928c2.725,0.508,6.167,0.802,9.455,0.802c9.062,0,15.621-2.018,17.556-5.408
				c2.517-4.404,2.521-4.448,2.649-6.631c0.082-1.314,0.201-3.295,0.758-6.803c1.668-10.584,10.454-18.549,15.332-18.549
				c0.04,0,0.07,0.003,0.105,0.003c1.027-1.744,1.853-8.44,0.957-15.142c-0.353-2.658-1.271-4.604-2.154-6.482
				c-1.584-3.378-3.226-6.863-0.862-12.767c1.317-3.299,1.526-5.659,0.637-7.207c-1.022-1.779-3.782-3.019-8.211-3.685
				c-3.334-0.499-6.604-0.336-9.373-0.08c-1.279,0.119-2.482,0.228-3.697,0.228c-3.497,0-6.261-0.983-9.257-3.284
				c-4.511-3.472-9.637-5.987-12.181-5.987c-0.449,0-0.622,0.083-0.653,0.096c0.003,0.005-0.061,0.13-0.086,0.428
				c-0.643,7.074-3.077,7.572-10.037,7.97l-2.085,0.124c-3.331,0.205-6.358-1.123-9.271-2.413c-2.608-1.156-5.075-2.246-7.656-2.246
				c-2.805,0-5.492,1.323-8.415,4.165c-0.844,1.569-3.647,5.093-11.826,5.093c-2.436,0-5.199-0.315-8.221-0.942
				C163.775,135.499,159.944,135.025,156.884,135.025z"/>
		</g>
		<g opacity="0.8">
			<path fill="#A86027" d="M187.429,195.444c-8.516,0-12.955-2.211-16.592-5.627c-1.516-1.42-3.885-1.359-8.669-1.097
				c-3.978,0.217-8.936,0.488-15.355-0.361c-12.854-1.7-16.038-10.197-15.929-14.452c0.035-1.357,1.148-2.436,2.498-2.436
				c0.021,0,0.043,0,0.067,0.001c1.371,0.036,2.456,1.168,2.436,2.542c-0.004,0.819,0.311,7.896,11.582,9.388
				c5.959,0.782,10.656,0.526,14.428,0.323c5.15-0.282,9.218-0.507,12.36,2.444c3.343,3.137,8.076,5.952,25.67,3.063
				c6.154-1.007,10.024-1.919,12.855-2.582c5.354-1.258,7.359-1.725,13.145,0.009c6.706,2.01,17.743-0.07,23.876-6.945
				c0.926-1.031,2.502-1.117,3.529-0.198c1.033,0.919,1.122,2.499,0.202,3.531c-7.545,8.448-20.69,10.909-29.045,8.403
				c-4.504-1.354-5.433-1.136-10.562,0.067c-2.901,0.683-6.868,1.614-13.188,2.652C195.394,195.044,191.043,195.444,187.429,195.444
				z"/>
		</g>
	</g>
	<g>
		<g>
			<path fill="#D58128" d="M267.134,146.763c0,0,2.99,5.986,17.735,0.673c14.746-5.316,21.854-4.192,24.328,1.868
				c2.471,6.065,8.31,9.506,14.598,16.094c6.287,6.583,16.02,14.818,15.042,22.976c-0.972,8.161-6.885,11.675-10.628,19.162
				c-3.735,7.486-2.916,9.506-10.176,18.563c-7.264,9.055-18.264,10.628-25.899,9.583c-7.636-1.05-19.909-8.383-25.745-4.342
				c-5.844,4.042-16.542,3.966-24.699,6.737c-8.162,2.771-24.926,5.166-30.164-1.569c-5.237-6.736-2.696-3.893-5.69-13.623
				c-3.001-9.729-12.349-15.342-15.421-14.37c-3.071,0.974-5.611-9.358-5.687-17.363c-0.071-8.011,4.863-10.853,0.597-18.264
				c-4.266-7.408-2.844-12.424,7.412-15.49c10.253-3.071,14.52,0.595,20.581-5.617c6.062-6.211,14.892-11.752,16.242-6.066
				c1.345,5.688,2.318,5.017,10.518,4.377C248.27,149.461,253.96,136.88,267.134,146.763z"/>
			<path fill="#3C2517" d="M224.766,243.364c-7.349,0-12.465-1.792-15.216-5.321c-3.545-4.558-3.881-5.175-4.514-8.254
				c-0.262-1.269-0.615-3.006-1.59-6.17c-2.573-8.34-10.102-12.712-12.241-12.712c-0.408,0.113-0.798,0.173-1.194,0.173l0,0
				c-6.198,0-7.736-14.741-7.786-19.906c-0.031-3.455,0.782-6.11,1.436-8.237c0.992-3.225,1.587-5.171-0.503-8.801
				c-2.586-4.49-3.227-8.214-1.964-11.39c1.37-3.443,4.916-5.979,10.828-7.748c4.352-1.302,7.735-1.472,10.453-1.609
				c3.919-0.195,6.082-0.308,9.056-3.354c1.495-1.536,9.263-9.191,15.161-9.191c2.68,0,4.659,1.604,5.299,4.296
				c0.682,2.866,0.682,2.866,2.169,2.866l0,0c0.938,0,2.115-0.102,3.61-0.23l2.117-0.177c2.106-0.162,4.275-1.516,6.573-2.953
				c3.114-1.949,6.646-4.159,11.146-4.159c3.588,0,7.195,1.404,11.031,4.278c0.311,0.232,0.562,0.536,0.734,0.881l0,0
				c0.01,0,1.088,1.489,4.977,1.489c2.645,0,5.896-0.693,9.678-2.055c6.635-2.387,11.863-3.552,15.992-3.552
				c5.779,0,9.646,2.297,11.495,6.832c1.453,3.564,4.367,6.205,8.062,9.554c1.838,1.659,3.92,3.545,6.024,5.756
				c0.9,0.945,1.873,1.921,2.874,2.927c6.479,6.511,13.819,13.897,12.848,22.071c-0.687,5.742-3.541,9.482-6.31,13.099
				c-1.598,2.094-3.251,4.257-4.564,6.887c-1.114,2.232-1.8,3.934-2.457,5.579c-1.484,3.699-2.77,6.896-8.01,13.431
				c-7.531,9.396-18.043,10.805-23.642,10.805c-1.539,0-3.065-0.106-4.546-0.312c-2.828-0.383-6.016-1.487-9.396-2.649
				c-4.084-1.411-8.314-2.875-11.518-2.875c-1.324,0-2.333,0.251-3.066,0.762c-3.963,2.743-9.42,3.72-15.194,4.75
				c-3.471,0.62-7.056,1.26-10.127,2.301C238.338,241.856,231.495,243.364,224.766,243.364z M191.205,205.905
				c4.9,0,13.966,6.331,17.02,16.245c1.046,3.391,1.445,5.34,1.714,6.631c0.439,2.143,0.442,2.186,3.56,6.188
				c1.703,2.19,5.701,3.394,11.268,3.394c6.129,0,12.512-1.431,16.117-2.651c3.429-1.166,7.204-1.843,10.854-2.488
				c5.224-0.935,10.162-1.814,13.227-3.941c1.579-1.09,3.569-1.646,5.916-1.646c4.043,0,8.674,1.596,13.152,3.142
				c3.136,1.082,6.101,2.106,8.439,2.43c1.254,0.169,2.559,0.258,3.867,0.258c4.699,0,13.511-1.162,19.742-8.932
				c4.776-5.956,5.822-8.56,7.268-12.167c0.661-1.654,1.417-3.533,2.622-5.949c1.531-3.057,3.411-5.517,5.068-7.687
				c2.573-3.363,4.793-6.271,5.316-10.651c0.685-5.777-6.03-12.53-11.429-17.958c-1.023-1.03-2.021-2.032-2.946-2.999
				c-1.979-2.077-3.905-3.821-5.762-5.503c-4.001-3.623-7.458-6.753-9.338-11.371c-0.708-1.732-2.125-3.719-6.865-3.719
				c-3.493,0-8.303,1.097-14.3,3.259c-4.322,1.558-8.148,2.345-11.371,2.345c-5.65,0-8.148-2.407-9.048-3.616
				c-2.803-2.036-5.321-3.027-7.694-3.027c-3.063,0-5.703,1.65-8.496,3.398c-2.704,1.69-5.504,3.441-8.841,3.699l-2.07,0.17
				c-1.645,0.138-2.938,0.25-4.038,0.25l0,0c-5.046,0-6.135-2.913-7.035-6.719c-0.082-0.325-0.166-0.427-0.166-0.427
				c-0.005,0.005-0.093-0.02-0.267-0.016c-1.981,0-6.714,2.691-11.583,7.68c-4.343,4.452-8.249,4.646-12.387,4.858
				c-2.573,0.131-5.489,0.276-9.264,1.409c-4.298,1.283-6.857,2.898-7.613,4.803c-0.666,1.661-0.125,3.964,1.65,7.044
				c3.17,5.513,2.04,9.196,0.946,12.761c-0.607,1.989-1.241,4.043-1.211,6.729c0.062,6.761,1.826,13.265,3.085,14.846
				C190.603,205.93,190.898,205.905,191.205,205.905z"/>
		</g>
		<g opacity="0.8">
			<path fill="#A86027" d="M226.787,214.407c-6.496,0-13.554-1.945-18.855-6.413c-1.058-0.889-1.191-2.467-0.302-3.526
				c0.892-1.053,2.469-1.191,3.524-0.299c7.041,5.935,18.26,6.437,24.615,3.497c5.481-2.535,7.534-2.353,13.009-1.871
				c2.9,0.26,6.857,0.608,13.093,0.74c17.85,0.389,22.115-3.088,24.979-6.664c2.699-3.363,6.758-3.722,11.896-4.169
				c3.763-0.334,8.444-0.743,14.227-2.362c11.326-3.178,10.164-10.834,10.15-10.906c-0.23-1.364,0.686-2.656,2.051-2.887
				c1.354-0.241,2.65,0.682,2.884,2.044c0.71,4.199-1.243,13.062-13.73,16.566c-6.235,1.744-11.173,2.18-15.144,2.527
				c-4.779,0.419-7.129,0.691-8.43,2.315c-4.445,5.548-10.863,8.909-28.984,8.537c-6.404-0.134-10.467-0.497-13.432-0.758
				c-5.25-0.468-6.196-0.552-10.469,1.426C234.8,213.626,230.904,214.407,226.787,214.407z"/>
		</g>
	</g>
	<g>
		<g>
			<path fill="#D58128" d="M145.113,166.219c0,0-3.166,1.89-8.72,0.873c-5.566-1.015-9.353-7.341-18.209-6.09
				c-8.848,1.255-14.039,5.427-14.927,8.078c-0.883,2.653-4.234-0.355-13.536,7.696c-9.299,8.055-3.677,9.732-1.408,14.286
				c2.273,4.558,2.524,5.067-0.521,12.894c-3.04,7.838-6.667,8.592,3.038,16.126c9.71,7.534,13.757,6.781,17.295,12.602
				c3.531,5.815,15.534,12.787,25.393,14.822c9.859,2.029,25.798-2.753,30.606-7.047c4.808-4.291,9.487-3.154,16.186-0.486
				c6.698,2.66,16.887,1.193,19.574-4.325c2.688-5.521,4.212-10.064,8.888-10.189c4.681-0.121,6.84-9.098,4.315-12.887
				c-2.522-3.799-1.254-8.855-3.526-12.145c-2.272-3.287-8.97-5.957-7.193-11.263c1.775-5.308,2.669-14.282-11.115-14.676
				c-13.777-0.396-10.246,2.896-16.813-1.411c-6.566-4.309-9.463-13.307-15.848-10.587
				C152.2,165.213,145.113,166.219,145.113,166.219z"/>
			<path fill="#3C2517" d="M138.758,250.487c-2.095,0-4.025-0.178-5.746-0.529c-10.735-2.222-23.12-9.538-27.025-15.977
				c-1.661-2.733-3.39-3.677-6.528-5.386c-2.59-1.412-5.811-3.166-10.157-6.535c-8.604-6.679-8.341-9.5-5.503-15.31
				c0.52-1.06,1.108-2.262,1.664-3.697c2.648-6.804,2.648-6.804,0.618-10.871c-0.391-0.788-0.947-1.511-1.533-2.276
				c-3.013-3.932-4.825-7.775,3.537-15.018c6.121-5.299,10.088-6.227,12.219-6.728c0.226-0.052,0.495-0.115,0.692-0.17
				c1.503-3.776,7.653-8.161,16.839-9.465c0.884-0.122,1.765-0.188,2.616-0.188c4.994,0,8.539,2.174,11.388,3.925
				c1.812,1.114,3.379,2.073,5.001,2.368c0.943,0.176,1.869,0.261,2.757,0.261c2.721,0,4.252-0.833,4.27-0.841
				c0.267-0.146,0.595-0.265,0.894-0.311c0.067-0.009,6.854-0.995,12.853-3.549c1.092-0.464,2.191-0.703,3.266-0.703
				c4.005,0,6.759,3.158,9.426,6.212c1.679,1.922,3.418,3.916,5.503,5.282c2.369,1.554,3.026,1.838,3.471,1.834
				c0.387,0,0.793-0.083,1.348-0.182c1.806-0.318,4.661-0.825,10.703-0.647c6.067,0.173,10.324,1.942,12.642,5.258
				c2.22,3.177,2.488,7.576,0.771,12.711c-0.626,1.867,0.633,3.204,3.457,5.608c1.244,1.058,2.535,2.156,3.418,3.44
				c1.456,2.101,1.771,4.501,2.074,6.822c0.263,2.007,0.513,3.895,1.481,5.358c2.298,3.45,1.668,8.907-0.093,12.294
				c-1.462,2.821-3.679,4.413-6.241,4.475c-2.354,0.063-3.457,1.927-5.771,6.836c-0.302,0.633-0.609,1.286-0.934,1.954
				c-2.52,5.176-9.189,7.016-14.593,7.016c-2.917,0-5.737-0.508-8.151-1.468c-6.218-2.471-9.91-3.259-13.593,0.029
				C160.92,246.67,148.287,250.487,138.758,250.487z M120.45,163.341c-0.608,0-1.244,0.044-1.913,0.139
				c-7.893,1.116-12.367,4.774-12.907,6.39c-0.793,2.368-2.754,2.826-4.192,3.162c-1.831,0.429-4.891,1.147-10.08,5.636
				c-5.485,4.747-4.707,5.757-2.839,8.2c0.672,0.873,1.433,1.868,2.033,3.082c2.641,5.29,2.806,6.596-0.428,14.916
				c-0.633,1.633-1.298,2.989-1.831,4.084c-1.923,3.934-2.128,4.346,4.071,9.159c4.03,3.126,7.052,4.772,9.479,6.097
				c3.383,1.843,6.055,3.295,8.416,7.18c3.125,5.153,14.675,11.793,23.767,13.671c1.381,0.284,2.976,0.429,4.731,0.429
				c8.999,0,20.133-3.706,23.703-6.894c2.637-2.353,5.475-3.494,8.687-3.494c3.054,0,6.242,1.017,10.088,2.546
				c1.803,0.717,4.043,1.113,6.303,1.113c4.813,0,8.87-1.689,10.094-4.204c0.318-0.65,0.617-1.283,0.909-1.901
				c2.321-4.906,4.509-9.546,10.164-9.693c0.923-0.023,1.66-1.255,1.934-1.785c1.187-2.283,1.364-5.725,0.368-7.217
				c-1.616-2.428-1.966-5.111-2.28-7.479c-0.244-1.888-0.456-3.521-1.224-4.629c-0.517-0.745-1.506-1.587-2.548-2.479
				c-2.679-2.281-6.727-5.722-4.959-11c0.682-2.041,1.573-5.824-0.13-8.257c-1.36-1.949-4.281-2.998-8.685-3.126
				c-5.486-0.152-8.08,0.293-9.702,0.577c-0.791,0.136-1.478,0.254-2.203,0.254c-1.95,0.003-3.46-0.847-6.209-2.649
				c-2.662-1.749-4.72-4.104-6.536-6.184c-2.105-2.413-3.923-4.496-5.654-4.496c-0.399,0-0.831,0.098-1.308,0.3
				c-5.787,2.465-12.007,3.571-13.679,3.838c-0.94,0.447-3.106,1.264-6.295,1.264c-1.188,0-2.417-0.115-3.654-0.339
				c-2.541-0.465-4.666-1.767-6.719-3.027C126.551,164.887,124.033,163.341,120.45,163.341z"/>
		</g>
		<g opacity="0.8">
			<path fill="#A86027" d="M179.956,231.223c-3.624,0-7.055-0.772-9.663-2.125c-3.012-1.556-3.611-1.532-7.547-1.359
				c-2.251,0.102-5.336,0.24-10.203,0.122c-13.95-0.338-18.789-3.181-22.069-7.667c-0.781-1.071-2.457-1.336-5.871-1.792
				c-3.009-0.4-6.754-0.896-11.451-2.441c-9.724-3.196-10.932-10.34-10.212-13.672c0.293-1.347,1.62-2.204,2.974-1.916
				c1.339,0.292,2.193,1.603,1.922,2.944c-0.102,0.572-0.725,5.392,6.878,7.891c4.257,1.403,7.744,1.866,10.546,2.237
				c4.013,0.536,7.176,0.954,9.254,3.8c1.948,2.665,4.96,5.3,18.154,5.612c4.693,0.115,7.68-0.02,9.86-0.115
				c4.146-0.182,5.864-0.256,10.066,1.914c4.527,2.352,12.709,2.349,18.047-1.751c1.088-0.838,2.661-0.636,3.502,0.461
				c0.841,1.094,0.636,2.667-0.459,3.508C189.733,229.91,184.683,231.223,179.956,231.223z"/>
		</g>
	</g>
	<g>
		<g>
			<path fill="#D58128" d="M208.627,186.291c0,0-5.117,2.325-21.403,0c-16.288-2.324-10.241,1.862-14.432,6.52
				c-4.186,4.649-10.703,3.02-16.287,7.443c-5.584,4.422-2.407,9.543-4.694,13.032c-2.282,3.489-10.667,7.212-10.199,16.289
				c0.466,9.076,0.932,15.358,7.917,21.875c6.977,6.506,10.701,13.255,13.96,19.073c3.255,5.817,8.607,5.115,16.287,5.115
				c7.682,0,9.307-10.236,18.613-4.184c9.312,6.048,24.204,4.886,29.324,0.23c5.116-4.656,7.444-1.631,15.588-1.631
				c8.147,0,21.412-7.215,23.038-18.605c1.628-11.404,2.562-14.428,6.521-16.524c3.951-2.092,4.877-13.729-2.332-19.317
				c-7.211-5.581-10.473-9.072-11.633-13.257c-1.162-4.191-0.93-9.081-12.103-9.081c-11.168,0-10.936,2.098-16.757-1.391
				C224.222,188.387,220.963,181.406,208.627,186.291z"/>
			<path fill="#3C2517" d="M175.573,278.167c-5.623,0-10.946-0.49-14.269-6.423l-0.148-0.27
				c-3.167-5.652-6.751-12.055-13.335-18.199c-7.875-7.35-8.265-14.869-8.709-23.573c-0.393-7.719,4.65-12.203,7.99-15.166
				c1.11-0.99,2.153-1.917,2.619-2.619c0.505-0.778,0.552-1.926,0.615-3.379c0.124-2.876,0.294-6.819,4.616-10.242
				c3.086-2.446,6.349-3.274,9.225-4.005c2.838-0.719,5.083-1.29,6.758-3.155c0.827-0.922,1.054-1.799,1.308-2.808
				c0.842-3.292,2.375-5.199,7.72-5.199c1.888,0,4.372,0.223,7.613,0.684c4.69,0.671,8.867,1.011,12.435,1.011
				c5.503,0,7.616-0.825,7.635-0.834c3.213-1.274,5.998-1.878,8.574-1.878c5.454,0,8.79,2.723,11.738,5.123
				c1.138,0.931,2.217,1.804,3.363,2.499c2.373,1.42,3.316,1.661,4.54,1.661c0.724,0,1.52-0.083,2.519-0.182
				c1.888-0.186,4.461-0.441,8.412-0.441c11.004,0,12.987,4.534,14.185,9.594c0.106,0.441,0.209,0.88,0.328,1.314
				c0.943,3.409,3.758,6.539,10.756,11.95c5.242,4.068,6.679,10.536,6.271,15.233c-0.34,3.934-1.948,7.025-4.305,8.271
				c-2.688,1.426-3.553,3.052-5.215,14.67c-1.807,12.665-16.317,20.753-25.511,20.753c-2.86,0-5.055-0.349-6.818-0.628
				c-1.147-0.182-2.138-0.339-2.973-0.339c-1,0-2.142,0.151-4.118,1.945c-3.135,2.854-8.924,4.555-15.486,4.555
				c-6.377,0-12.367-1.611-16.877-4.54c-1.543-1.003-2.879-1.507-3.974-1.507c-1.474,0-2.679,0.883-4.521,2.328
				c-2.146,1.681-4.811,3.77-8.759,3.77L175.573,278.167z M179.963,188.13c-2.089,0-2.522,0.348-2.53,0.348
				c-0.092,0.122-0.244,0.705-0.344,1.085c-0.312,1.23-0.78,3.079-2.438,4.917c-2.692,2.996-6.022,3.84-9.242,4.66
				c-2.622,0.665-5.101,1.295-7.352,3.075c-2.527,2.002-2.612,4.002-2.722,6.539c-0.081,1.865-0.17,3.98-1.436,5.905
				c-0.82,1.26-2.109,2.403-3.475,3.612c-3.089,2.747-6.588,5.856-6.316,11.176c0.475,9.332,1.016,14.472,7.123,20.171
				c7.161,6.675,10.946,13.444,14.286,19.417l0.152,0.27c1.862,3.326,4.445,3.863,9.903,3.863l4.202-0.027
				c2.22,0,3.821-1.252,5.673-2.705c2.029-1.594,4.33-3.396,7.606-3.396c2.106,0,4.299,0.76,6.698,2.317
				c3.704,2.406,8.733,3.732,14.152,3.732c5.19,0,9.949-1.279,12.122-3.253c2.499-2.274,4.743-3.248,7.482-3.248
				c1.227,0,2.461,0.194,3.758,0.399c1.668,0.267,3.566,0.566,6.033,0.566c7.249,0,19.149-6.563,20.56-16.462
				c1.634-11.409,2.666-15.647,7.83-18.379c0.522-0.275,1.435-1.68,1.656-4.278c0.293-3.386-0.691-8.015-4.348-10.849
				c-6.832-5.288-11.072-9.368-12.516-14.569c-0.139-0.491-0.254-0.999-0.375-1.504c-0.815-3.457-1.359-5.743-9.316-5.743
				c-3.704,0-6.143,0.242-7.916,0.418c-1.199,0.118-2.152,0.208-3.015,0.208c-2.327,0-4.188-0.622-7.112-2.375
				c-1.46-0.876-2.729-1.91-3.952-2.912c-2.633-2.144-4.905-3.998-8.577-3.998c-1.933,0-4.114,0.493-6.67,1.504
				c-0.35,0.161-2.986,1.21-9.539,1.21c-3.799,0-8.218-0.355-13.142-1.06C183.865,188.339,181.61,188.13,179.963,188.13z"/>
		</g>
		<g opacity="0.8">
			<path fill="#A86027" d="M204.496,255.736c-7.582,0-11.541-1.975-14.792-5.027c-1.248-1.165-3.284-1.107-7.408-0.882
				c-3.51,0.188-7.882,0.428-13.552-0.321c-11.521-1.523-14.374-9.181-14.272-13.018c0.035-1.379,1.182-2.5,2.567-2.433
				c1.371,0.036,2.456,1.168,2.434,2.538c0.005,0.702,0.295,6.684,9.925,7.956c5.211,0.689,9.322,0.465,12.626,0.283
				c4.602-0.252,8.236-0.449,11.099,2.23c2.881,2.7,6.974,5.135,22.316,2.617c5.401-0.885,8.797-1.683,11.278-2.266
				c4.771-1.125,6.553-1.536,11.72,0.01c5.805,1.741,15.364-0.062,20.684-6.021c0.92-1.03,2.507-1.117,3.531-0.201
				c1.033,0.926,1.121,2.502,0.201,3.533c-6.715,7.521-18.421,9.708-25.854,7.479c-3.889-1.168-4.69-0.98-9.141,0.066
				c-2.549,0.6-6.044,1.42-11.611,2.334C211.544,255.385,207.698,255.736,204.496,255.736z"/>
		</g>
	</g>
	<g>
		<g>
			<path fill="#D58128" d="M98.094,217.07c0,0-5.121,2.33-21.411,0c-16.288-2.324-10.235,1.867-14.424,6.52
				c-4.188,4.653-10.703,3.024-16.292,7.447c-5.584,4.419-2.402,9.539-4.689,13.031c-2.29,3.489-10.663,7.209-10.199,16.28
				c0.461,9.076,0.926,15.354,7.909,21.873c6.979,6.516,10.702,13.266,13.965,19.082c3.256,5.817,8.605,5.118,16.29,5.118
				c7.674,0,9.307-10.239,18.612-4.185c9.306,6.048,24.197,4.884,29.319,0.229c5.12-4.657,7.449-1.63,15.594-1.63
				c8.14,0,21.404-7.213,23.033-18.617c1.63-11.4,2.561-14.425,6.515-16.521c3.959-2.095,4.889-13.726-2.326-19.306
				c-7.214-5.584-10.469-9.074-11.631-13.265c-1.167-4.188-0.934-9.076-12.102-9.076c-11.169,0-10.94,2.098-16.754-1.395
				C113.684,219.167,110.426,212.188,98.094,217.07z"/>
			<path fill="#3C2517" d="M65.035,308.947c-5.622,0-10.946-0.489-14.268-6.422l-0.163-0.293
				c-3.163-5.642-6.746-12.043-13.321-18.184c-7.875-7.349-8.257-14.863-8.702-23.572c-0.399-7.717,4.648-12.201,7.988-15.164
				c1.11-0.983,2.153-1.915,2.616-2.618c0.509-0.772,0.554-1.921,0.618-3.377c0.124-2.879,0.29-6.82,4.609-10.243
				c3.093-2.446,6.352-3.274,9.228-4.004c2.839-0.719,5.075-1.29,6.759-3.155c0.83-0.919,1.049-1.795,1.308-2.804
				c0.842-3.296,2.367-5.203,7.719-5.203c1.881,0,4.37,0.227,7.609,0.688c4.69,0.674,8.876,1.01,12.438,1.01
				c5.508,0,7.614-0.824,7.632-0.833c3.219-1.274,6.006-1.882,8.578-1.882c5.453,0,8.79,2.724,11.734,5.126
				c1.146,0.928,2.22,1.805,3.372,2.498c2.371,1.42,3.318,1.663,4.535,1.663c0.725,0,1.522-0.086,2.523-0.185
				c1.881-0.186,4.457-0.439,8.409-0.439c11.002,0,12.984,4.536,14.183,9.592c0.103,0.441,0.205,0.882,0.329,1.316
				c0.947,3.411,3.761,6.541,10.752,11.959c5.244,4.054,6.677,10.516,6.272,15.215c-0.338,3.936-1.95,7.029-4.308,8.275
				c-2.686,1.42-3.545,3.047-5.207,14.667c-1.812,12.675-16.321,20.762-25.511,20.762c-2.863,0-5.058-0.348-6.822-0.627
				c-1.147-0.187-2.139-0.339-2.972-0.339c-1.001,0-2.146,0.146-4.118,1.943c-3.142,2.854-8.928,4.556-15.496,4.556
				c-6.367,0-12.362-1.61-16.869-4.54c-1.54-1.002-2.876-1.511-3.973-1.511c-1.475,0-2.68,0.887-4.52,2.329
				c-2.146,1.682-4.812,3.771-8.756,3.771L65.035,308.947z M69.426,218.91c-2.089,0-2.526,0.347-2.53,0.352
				c-0.1,0.122-0.244,0.699-0.342,1.085c-0.315,1.227-0.783,3.077-2.436,4.913c-2.698,2.996-6.027,3.84-9.246,4.66
				c-2.624,0.663-5.102,1.292-7.354,3.076c-2.53,2.004-2.611,4.002-2.717,6.535c-0.082,1.866-0.17,3.981-1.432,5.911
				c-0.834,1.26-2.117,2.404-3.478,3.609c-3.093,2.742-6.592,5.854-6.324,11.172c0.48,9.332,1.019,14.469,7.122,20.168
				c7.153,6.676,10.937,13.438,14.276,19.4l0.162,0.291c1.866,3.328,4.45,3.866,9.906,3.866l4.207-0.03
				c2.216,0,3.817-1.25,5.665-2.702c2.032-1.591,4.333-3.396,7.61-3.396c2.11,0,4.301,0.764,6.701,2.318
				c3.704,2.407,8.727,3.732,14.141,3.732c5.197,0,9.958-1.277,12.132-3.255c2.502-2.275,4.743-3.245,7.482-3.245
				c1.229,0,2.453,0.193,3.76,0.398c1.673,0.27,3.567,0.567,6.034,0.567c7.249,0,19.146-6.569,20.557-16.474
				c1.632-11.407,2.665-15.646,7.821-18.375c0.526-0.278,1.442-1.689,1.664-4.288c0.295-3.38-0.695-8-4.351-10.83
				c-6.831-5.29-11.067-9.37-12.515-14.573c-0.135-0.493-0.256-0.997-0.376-1.502c-0.816-3.456-1.357-5.744-9.312-5.744
				c-3.7,0-6.142,0.243-7.921,0.419c-1.192,0.115-2.146,0.208-3.012,0.208c-2.329,0-4.186-0.624-7.109-2.378
				c-1.459-0.876-2.731-1.911-3.957-2.909c-2.63-2.147-4.903-4.001-8.575-4.001c-1.934,0-4.114,0.491-6.669,1.506
				c-0.351,0.162-2.987,1.208-9.541,1.208c-3.799,0-8.221-0.358-13.144-1.062C73.328,219.119,71.07,218.91,69.426,218.91z"/>
		</g>
		<g opacity="0.8">
			<path fill="#A86027" d="M93.951,286.514c-7.581,0-11.537-1.979-14.787-5.027c-1.248-1.168-3.288-1.112-7.405-0.891
				c-3.509,0.196-7.883,0.434-13.551-0.316c-11.523-1.523-14.375-9.182-14.272-13.02c0.035-1.378,1.17-2.471,2.562-2.433
				c1.374,0.034,2.46,1.173,2.435,2.539c0.005,0.707,0.305,6.682,9.926,7.954c5.216,0.686,9.327,0.462,12.629,0.281
				c4.604-0.242,8.231-0.447,11.094,2.234c2.884,2.706,6.987,5.133,22.32,2.615c5.4-0.889,8.801-1.684,11.286-2.268
				c4.768-1.119,6.549-1.537,11.713,0.01c5.808,1.748,15.367-0.06,20.684-6.02c0.919-1.025,2.5-1.12,3.534-0.197
				c1.032,0.922,1.12,2.5,0.198,3.529c-6.716,7.521-18.422,9.709-25.854,7.479c-3.884-1.159-4.688-0.979-9.13,0.066
				c-2.555,0.6-6.051,1.419-11.62,2.333C101,286.161,97.149,286.514,93.951,286.514z"/>
		</g>
	</g>
	<g>
		<g>
			<path fill="#D58128" d="M181.416,251.169c0,0-3.159,1.892-8.727,0.877c-5.56-1.019-9.346-7.345-18.2-6.09
				c-8.85,1.255-14.037,5.425-14.929,8.071c-0.888,2.652-4.237-0.353-13.533,7.695c-9.303,8.053-3.68,9.732-1.41,14.286
				c2.272,4.556,2.526,5.063-0.521,12.896c-3.044,7.837-6.665,8.589,3.04,16.129c9.709,7.529,13.753,6.775,17.287,12.595
				c3.535,5.822,15.538,12.788,25.398,14.823c9.861,2.033,25.798-2.756,30.602-7.044c4.815-4.3,9.49-3.153,16.188-0.493
				c6.697,2.668,16.884,1.2,19.574-4.316c2.689-5.518,4.213-10.068,8.889-10.193c4.679-0.117,6.839-9.092,4.315-12.887
				c-2.524-3.799-1.255-8.854-3.526-12.144c-2.273-3.29-8.975-5.951-7.197-11.263c1.773-5.305,2.672-14.284-11.111-14.674
				c-13.778-0.398-10.241,2.893-16.818-1.412c-6.562-4.307-9.462-13.297-15.849-10.577
				C188.503,250.164,181.416,251.169,181.416,251.169z"/>
			<path fill="#3C2517" d="M175.067,335.434c-2.1,0-4.032-0.179-5.75-0.535c-10.741-2.213-23.119-9.529-27.031-15.974
				c-1.661-2.731-3.387-3.674-6.528-5.383c-2.584-1.407-5.808-3.162-10.155-6.534c-8.603-6.684-8.339-9.51-5.496-15.314
				c0.516-1.059,1.104-2.262,1.661-3.694c2.644-6.804,2.644-6.804,0.615-10.868c-0.396-0.786-0.951-1.511-1.534-2.273
				c-3.011-3.938-4.823-7.782,3.538-15.023c6.118-5.297,10.085-6.225,12.216-6.721c0.233-0.055,0.501-0.115,0.696-0.172
				c1.501-3.776,7.659-8.157,16.839-9.46c0.886-0.125,1.763-0.189,2.611-0.189c4.997,0,8.542,2.176,11.396,3.927
				c1.81,1.11,3.375,2.069,4.997,2.369c0.938,0.173,1.866,0.258,2.75,0.258c2.729,0,4.26-0.834,4.277-0.841
				c0.26-0.146,0.593-0.265,0.897-0.311c0.063-0.008,6.853-0.995,12.844-3.545c1.097-0.467,2.195-0.704,3.269-0.704
				c4.005,0,6.762,3.154,9.427,6.208c1.68,1.924,3.422,3.912,5.504,5.283c2.367,1.545,3.025,1.834,3.467,1.834
				c0.39,0,0.798-0.09,1.351-0.187c1.806-0.315,4.658-0.806,10.698-0.646c6.076,0.174,10.331,1.942,12.643,5.258
				c2.224,3.183,2.489,7.578,0.771,12.714c-0.629,1.864,0.637,3.196,3.46,5.602c1.247,1.063,2.538,2.161,3.417,3.444
				c1.457,2.104,1.768,4.5,2.075,6.822c0.262,2.002,0.51,3.896,1.48,5.354c2.299,3.452,1.666,8.914-0.093,12.301
				c-1.463,2.818-3.683,4.408-6.237,4.478c-2.362,0.059-3.453,1.921-5.775,6.829c-0.298,0.633-0.608,1.289-0.934,1.959
				c-2.524,5.172-9.192,7.011-14.594,7.011c-2.919,0-5.736-0.506-8.151-1.467c-6.22-2.468-9.917-3.259-13.6,0.034
				C197.219,331.621,184.594,335.434,175.067,335.434z M156.749,248.292c-0.604,0-1.237,0.044-1.909,0.142
				c-7.886,1.117-12.366,4.772-12.907,6.391c-0.792,2.36-2.758,2.821-4.188,3.157c-1.836,0.426-4.896,1.144-10.085,5.629
				c-5.48,4.754-4.704,5.761-2.841,8.207c0.674,0.873,1.432,1.865,2.035,3.078c2.645,5.283,2.807,6.594-0.424,14.914
				c-0.633,1.631-1.301,2.987-1.834,4.084c-1.926,3.937-2.127,4.346,4.075,9.16c4.028,3.127,7.052,4.771,9.483,6.098
				c3.379,1.841,6.051,3.293,8.408,7.175c3.128,5.155,14.675,11.799,23.766,13.676c1.386,0.286,2.98,0.431,4.739,0.431
				c8.992,0,20.118-3.703,23.692-6.892c2.632-2.353,5.475-3.496,8.691-3.496c3.05,0,6.241,1.019,10.088,2.545
				c1.809,0.722,4.043,1.117,6.301,1.117c4.814,0,8.872-1.69,10.098-4.206c0.315-0.648,0.615-1.286,0.908-1.902
				c2.319-4.91,4.507-9.543,10.161-9.693c0.923-0.022,1.658-1.256,1.934-1.779c1.188-2.289,1.362-5.729,0.368-7.223
				c-1.611-2.43-1.961-5.111-2.275-7.479c-0.248-1.891-0.464-3.521-1.227-4.63c-0.517-0.745-1.507-1.587-2.553-2.478
				c-2.676-2.278-6.723-5.725-4.958-11c0.686-2.038,1.573-5.824-0.125-8.26c-1.36-1.947-4.287-2.998-8.687-3.123
				c-5.485-0.174-8.077,0.293-9.695,0.576c-0.796,0.135-1.485,0.256-2.21,0.256c-1.947,0-3.459-0.849-6.213-2.649
				c-2.654-1.747-4.712-4.099-6.527-6.179c-2.104-2.412-3.928-4.494-5.66-4.494c-0.402,0-0.83,0.099-1.31,0.304
				c-5.783,2.461-12.004,3.563-13.679,3.832c-0.938,0.442-3.107,1.265-6.299,1.265c-1.185,0-2.415-0.111-3.651-0.342
				c-2.542-0.465-4.663-1.766-6.712-3.023C162.856,249.842,160.332,248.292,156.749,248.292z"/>
		</g>
		<g opacity="0.8">
			<path fill="#A86027" d="M216.258,316.167c-3.622,0-7.058-0.769-9.665-2.121c-3.016-1.562-3.621-1.53-7.543-1.36
				c-2.252,0.104-5.345,0.232-10.201,0.119c-13.953-0.33-18.789-3.179-22.072-7.662c-0.781-1.072-2.457-1.338-5.871-1.791
				c-3.009-0.402-6.754-0.896-11.448-2.442c-9.724-3.201-10.933-10.345-10.218-13.677c0.293-1.351,1.617-2.213,2.976-1.916
				c1.34,0.287,2.194,1.604,1.92,2.943c-0.103,0.571-0.725,5.395,6.881,7.896c4.259,1.4,7.747,1.865,10.547,2.236
				c4.008,0.529,7.175,0.953,9.254,3.793c1.953,2.672,4.962,5.305,18.146,5.619c4.69,0.11,7.683-0.02,9.869-0.117
				c4.141-0.178,5.862-0.262,10.062,1.918c4.527,2.347,12.717,2.344,18.048-1.75c1.091-0.846,2.664-0.637,3.506,0.457
				c0.845,1.101,0.639,2.666-0.46,3.508C226.034,314.855,220.984,316.167,216.258,316.167z"/>
		</g>
	</g>
	<g>
		<path fill="#CCCAC8" d="M436.66,244.484c0,33.909-34.133,61.409-76.229,61.409c-42.095,0-76.224-27.5-76.224-61.409"/>
		<path fill="#3C2517" d="M360.433,308.395c-43.405,0-78.723-28.672-78.723-63.911c0-1.382,1.117-2.502,2.499-2.502
			s2.501,1.121,2.501,2.502c0,32.479,33.072,58.907,73.723,58.907c40.653,0,73.73-26.428,73.73-58.907
			c0-1.382,1.116-2.502,2.497-2.502c1.383,0,2.5,1.121,2.5,2.502C439.16,279.723,403.848,308.395,360.433,308.395z"/>
	</g>
	<g>
		<path fill="#CCCAC8" d="M436.66,245.45c0,12.077-34.133,21.876-76.229,21.876c-42.095,0-76.224-9.799-76.224-21.876
			c0-12.087,34.129-21.886,76.224-21.886C402.527,223.564,436.66,233.363,436.66,245.45z"/>
		<path fill="#3C2517" d="M360.433,269.828c-38.16,0-78.723-8.545-78.723-24.377c0-15.841,40.562-24.389,78.723-24.389
			c38.169,0,78.729,8.548,78.729,24.389C439.16,261.283,398.602,269.828,360.433,269.828z M360.433,226.064
			c-43.44,0-73.723,10.214-73.723,19.386c0,9.166,30.281,19.377,73.723,19.377c43.449,0,73.73-10.212,73.73-19.377
			C434.163,236.278,403.882,226.064,360.433,226.064z"/>
	</g>
	<g>
		<path fill="#EED142" d="M288.577,240.861c0,0-7.586,5.786,6.743,13.343c14.332,7.558,52.574,11.723,63.486,10.53
			c10.91-1.188,55.351,0,73.008-15.069c7.539-7.341-7.341-13.111-7.341-13.111s-30.156-5.141-40.272-3.16
			c-10.118,1.988-4.282,5.556-23.77,2.186c-19.478-3.37-34.96-2.186-42.293-0.793C310.798,236.176,293.732,239.994,288.577,240.861z
			"/>
	</g>
	<g opacity="0.4">
		<path fill="#C0A32F" d="M318.931,237.959c0,0-18.252,3.525-19.047,6.524c-0.792,3-3.969,6.558,2.979,8.74
			c6.938,2.191,9.716,3.182,21.818,5.361c12.104,2.182,16.865,0,21.626,0c4.766,0-1.591-3.17-10.118-2.973
			c-8.528,0.197-18.051-1.191-21.825-3.566c-3.765-2.381-9.72-3.975-4.761-6.253c4.959-2.276,12.894-5.399,12.103-4.933
			C320.914,241.331,334.101,238.157,318.931,237.959z"/>
	</g>
	<g opacity="0.4">
		<path fill="#C0A32F" d="M345.716,240.861c0,0,8.132,2.059,13.491,1.665c5.351-0.399,19.242-2.132,23.013-1.665
			c3.768,0.47,15.472-0.427,20.433-0.075c4.959,0.351,17.061,5.091,12.301,7.973c-4.761,2.892-7.737,2.45-20.234,5.445
			c-12.498,2.996-21.229,2.996-20.635,1.808c0.594-1.19,18.843-6.832,22.617-7.284c3.768-0.451-4.765-3.232-14.679-2.934
			c-9.923,0.301-28.97,1.29-34.724,0C341.548,244.507,332.225,239.204,345.716,240.861z"/>
	</g>
</g>
</svg>
