<?xml version="1.0" encoding="utf-8"?>
<!-- Generator: Adobe Illustrator 16.0.0, SVG Export Plug-In . SVG Version: 6.00 Build 0)  -->
<!DOCTYPE svg PUBLIC "-//W3C//DTD SVG 1.1//EN" "http://www.w3.org/Graphics/SVG/1.1/DTD/svg11.dtd">
<svg version="1.1" id="Layer_1" xmlns="http://www.w3.org/2000/svg" xmlns:xlink="http://www.w3.org/1999/xlink" x="0px" y="0px"
	 width="500px" height="500px" viewBox="0 0 500 500" enable-background="new 0 0 500 500" xml:space="preserve">
<g id="Layer_1_copy_18">
	<g>
		<path fill="#A8AAAD" d="M158.96,192.995c0,0-61.504-115.504-65.864-122.843c-4.282-9.296-14.447-20.667-2.022-29.328
			c1.772-1.236,11.689-5.182,13.805-5.699c16.216-3.953,20.672,6.987,25.116,15.154c4.444,8.166,44.444,120.017,44.444,120.017
			l12.572,47.093L158.96,192.995z"/>
		<path fill="#3C2517" d="M187.011,219.859c-0.582,0-1.155-0.208-1.621-0.608l-28.051-24.39c-0.228-0.2-0.42-0.438-0.56-0.703
			c-0.615-1.156-61.526-115.542-65.808-122.748c-0.04-0.072-0.082-0.148-0.117-0.228c-0.747-1.621-1.692-3.322-2.694-5.128
			c-4.418-7.981-10.472-18.914,1.502-27.258c2.167-1.512,12.504-5.555,14.631-6.073c2.46-0.601,4.795-0.903,6.942-0.903
			c11.733,0,16.325,8.632,20.013,15.566l0.915,1.708c4.482,8.241,42.967,115.795,44.603,120.368l12.51,46.829
			c0.162,0.333,0.253,0.703,0.253,1.096c0,1.372-1.104,2.491-2.494,2.471C187.03,219.859,187.022,219.859,187.011,219.859z
			 M160.925,191.434l21.619,18.797l-10.49-39.297c-13.752-38.433-40.786-113.151-44.229-119.477l-0.938-1.749
			c-3.385-6.367-6.885-12.947-15.651-12.947c-1.75,0-3.692,0.257-5.771,0.764c-2.006,0.491-11.567,4.342-12.977,5.328
			c-7.763,5.404-5.177,11.47-0.004,20.811c0.979,1.761,1.988,3.586,2.805,5.34C100.031,77.097,156.333,182.814,160.925,191.434z"/>
	</g>
	<g>
		<path fill="#EFE2DA" d="M218.809,160.889c0,0-19.217-9.485-7.698-37.223c11.515-27.737,45.008-17.429,68.804-1.213
			c28.19,15.006,30.563-19.069,27.436-26.524c-7.124-16.972-29.858-15.003-29.858-15.003s33.498-20.916,62.293,16.976
			c0,0,19.69,27.424-3.416,58.952l-54.936,45.015L218.809,160.889z"/>
		<path fill="#3C2517" d="M281.432,204.339c-0.472,0-0.938-0.136-1.353-0.404l-62.546-40.926c-2.04-1.13-20.357-12.233-8.706-40.292
			c5.102-12.289,14.89-18.781,28.298-18.781c12.681,0,28.734,5.974,44.068,16.4c9.597,5.071,16.587,4.561,20.823-1.814
			c4.628-6.96,4.392-18.445,3.053-21.638c-5.136-12.236-19.484-13.559-25.417-13.559c-1.18,0-1.9,0.057-1.952,0.061
			c-1.169,0.072-2.192-0.601-2.554-1.682c-0.357-1.084,0.068-2.271,1.037-2.872c0.4-0.253,9.978-6.137,23.455-6.137
			c10.992,0,27.217,4.115,42.108,23.709c0.25,0.344,20.506,29.314-3.39,61.912c-0.119,0.166-0.265,0.317-0.428,0.449l-54.935,45.015
			C282.544,204.15,281.986,204.339,281.432,204.339z M237.125,108.875c-11.413,0-19.398,5.294-23.732,15.74
			c-10.438,25.133,5.819,33.708,6.521,34.062c0.08,0.042,0.171,0.095,0.246,0.145l61.105,39.99l53.295-43.667
			c21.442-29.532,3.974-54.746,3.213-55.807c-10.93-14.38-23.774-21.699-38.135-21.699c-4.285,0-8.154,0.676-11.363,1.553
			c7.649,1.462,17.007,5.431,21.348,15.782c2.155,5.132,1.864,18.233-3.491,26.286c-5.589,8.408-15.35,9.78-27.379,3.375
			c-0.078-0.042-0.155-0.087-0.229-0.14C263.958,114.569,248.869,108.875,237.125,108.875z"/>
	</g>
	<g>
		<path fill="#EFE2DA" d="M352.254,197.753c0,0,3.146-9.368-4.13-27.405c-7.275-18.034-24.71-22.583-66.082-4.701
			c-41.377,17.885-63.511-16.519-92.609-6.515c-29.101,10.002-21.067,33.334-21.067,33.334l56.685,63.966l107.31-3.029
			L352.254,197.753z"/>
		<path fill="#3C2517" d="M225.05,258.9c-0.702,0-1.378-0.303-1.849-0.832l-56.683-63.966c-0.217-0.242-0.383-0.525-0.488-0.831
			c-0.091-0.269-2.219-6.591-0.45-14.273c1.629-7.074,6.943-16.666,23.048-22.201c3.907-1.346,7.827-1.999,11.977-1.999
			c9.042,0,17.481,3.118,26.419,6.42c9.594,3.541,19.518,7.207,30.947,7.207c0.002,0,0.002,0,0.002,0
			c7.688,0,15.241-1.651,23.086-5.044c17.974-7.766,31.917-11.542,42.633-11.542c13.21,0,21.95,5.751,26.724,17.587
			c7.527,18.665,4.323,28.698,4.184,29.113l-19.915,55.691c-0.344,0.959-1.235,1.608-2.257,1.64l-107.304,3.03
			C225.099,258.9,225.077,258.9,225.05,258.9z M170.57,191.227l55.564,62.705l104.463-2.951l19.333-54.055
			c0.004-0.022,2.664-8.884-4.1-25.652c-4.045-10.026-10.873-14.497-22.141-14.497c-10.027,0-23.329,3.647-40.67,11.137
			c-8.48,3.669-16.674,5.45-25.049,5.45c0,0,0,0-0.003,0c-12.312,0-22.655-3.817-32.658-7.513c-8.511-3.144-16.549-6.11-24.707-6.11
			c-3.591,0-6.987,0.563-10.37,1.727C165.72,169.894,169.676,188.075,170.57,191.227z"/>
	</g>
	<g>
		<path fill="#D8C5BA" d="M126.809,262.12c0,0-20.883-21.449,11.397-56.004c32.284-34.558,78.058,6.931,85.521,10.854
			c16.299,8.4,48.154,30.52,90.896-7.218c42.743-37.741,87.506,20.761,73.406,36.675c-14.096,15.913,8.438,21.525-51.126,35.166
			c-59.564,13.64-67.749,62.289-67.749,62.289L126.809,262.12z"/>
		<path fill="#3C2517" d="M269.154,346.354c-0.424,0-0.854-0.11-1.232-0.328L125.58,264.264c-0.201-0.115-0.383-0.255-0.54-0.416
			c-0.223-0.236-22.141-23.56,11.359-59.422c8.948-9.576,19.727-14.432,32.038-14.432c21.366,0,41.894,14.598,51.76,21.619
			c2.05,1.455,3.821,2.717,4.676,3.167c1.217,0.624,2.536,1.338,3.94,2.097c9.172,4.951,21.729,11.729,37.314,11.729
			c15.531,0,31.298-6.964,46.862-20.708c9.834-8.681,20.423-13.083,31.476-13.083c20.716,0,38.675,15.812,45.707,31.434
			c4.074,9.055,3.968,17.006-0.291,21.815c-3.806,4.293-4.637,7.672-5.44,10.937c-2.373,9.633-5.728,15.552-46.985,24.999
			c-57.293,13.116-65.783,59.82-65.866,60.292c-0.133,0.795-0.651,1.479-1.38,1.823
			C269.877,346.273,269.514,346.354,269.154,346.354z M128.381,260.173l139.151,79.931c3.229-11.511,17.556-49.182,68.82-60.918
			c40.299-9.231,41.554-14.322,43.291-21.365c0.858-3.488,1.928-7.823,6.537-13.03c2.873-3.243,2.677-9.413-0.517-16.507
			c-6.38-14.179-22.58-28.527-41.199-28.527c-9.812,0-19.303,3.983-28.207,11.847c-16.49,14.564-33.355,21.948-50.131,21.948
			c-16.832,0-30.027-7.124-39.661-12.327c-1.378-0.745-2.667-1.439-3.873-2.06c-1.168-0.612-2.883-1.836-5.26-3.526
			c-9.448-6.722-29.109-20.701-48.896-20.701c-10.888,0-20.452,4.326-28.425,12.86C111.409,238.411,126.423,257.891,128.381,260.173
			z"/>
	</g>
	<g>
		<path fill="#088F80" d="M223.913,288.184l-99.488-1.621l27.271,150.529c0,0,5.268,18.751,83.364,17.127
			c4.734-0.099,29.715,0.037,36.217,0.083c72.217,0.545,77.197-17.21,77.197-17.21l27.277-150.529
			C375.753,286.562,224.906,280.891,223.913,288.184z"/>
		<path fill="#3C2517" d="M225.7,456.789c-69.037,0-75.832-17.081-76.381-19.031L121.994,287c-0.133-0.727,0.067-1.475,0.545-2.041
			c0.479-0.559,1.178-0.885,1.926-0.868l98.168,1.603c2.848-2.041,13.222-3.702,53.286-3.702c43.504,0,99.368,2.081,99.925,2.104
			c0.717,0.024,1.383,0.357,1.831,0.916c0.45,0.561,0.636,1.286,0.508,1.988l-27.273,150.53
			c-0.597,2.178-7.384,19.259-76.418,19.259c-0.009,0-0.009,0-0.009,0l-3.223-0.016c-6.484-0.046-31.427-0.188-36.146-0.084
			C231.85,456.758,228.715,456.789,225.7,456.789z M154.085,436.413c0.62,1.247,9.103,15.433,71.615,15.433
			c2.981,0,6.081-0.029,9.308-0.099c4.754-0.098,29.774,0.039,36.289,0.084l3.188,0.015c62.521,0,70.987-14.186,71.605-15.433
			l26.724-147.483c-11.946-0.425-59.104-2-96.895-2c-40.166,0-48.28,1.821-49.909,2.559c-0.441,0.719-1.216,1.187-2.136,1.168
			l-96.484-1.576L154.085,436.413z"/>
	</g>
	<g>
		<path fill="#3C2517" d="M282.559,236.502c-38.051,0-65.763-21.208-66.149-21.51c-1.073-0.843-1.263-2.392-0.424-3.465
			c0.84-1.07,2.396-1.267,3.466-0.428c0.521,0.409,52.975,40.426,111.695,7.411c1.192-0.669,2.696-0.246,3.365,0.94
			c0.669,1.187,0.246,2.695-0.943,3.364C315.606,232.916,298.207,236.502,282.559,236.502z"/>
	</g>
	<g>
		<path fill="#01A79D" d="M379.26,289.259c-12.002,6.116-63.902,10.716-126.107,10.716c-71.094,0-115.702-4.742-128.728-13.412
			c0,0-10.673-4.062-10.62-14.973c-0.303-15.762,10.62-12.052,10.62-12.052c0,7.407,57.633,13.416,128.728,13.416
			c71.093,0,128.723-6.009,128.723-13.416c0,0,7.468-3.408,5.955,15.385c-0.69,4.543-2.181,7.451-3.495,9.226
			C383.023,285.923,380.972,288.389,379.26,289.259z"/>
		<path fill="#3C2517" d="M253.15,302.445c-49.671,0-112.409-2.381-129.884-13.688c-1.862-0.789-11.986-5.604-11.93-17.183
			c-0.105-5.49,1.097-9.592,3.579-12.118c1.776-1.812,4.153-2.769,6.878-2.769c1.867,0,3.272,0.461,3.427,0.516
			c0.899,0.302,1.531,1.095,1.652,2.014c3.805,4.648,50.483,11.266,126.278,11.266c75.794,0,122.473-6.616,126.277-11.266
			c0.104-0.83,0.64-1.562,1.42-1.923c0.238-0.11,1.112-0.466,2.303-0.466c1.168,0,2.876,0.341,4.38,1.969
			c2.521,2.737,3.424,8.072,2.763,16.322c-0.657,4.347-1.988,7.822-3.976,10.502c-2.216,2.993-4.214,4.961-5.938,5.838
			C367.688,297.925,315.368,302.445,253.15,302.445z M121.794,261.628c-1.388,0-2.514,0.433-3.349,1.285
			c-1.5,1.526-2.249,4.513-2.169,8.627c-0.046,9.077,8.665,12.569,9.032,12.713c0.169,0.067,0.336,0.154,0.484,0.253
			c7.292,4.852,33.541,12.999,127.358,12.999c60.542,0,113.107-4.394,124.985-10.444c0.755-0.386,2.255-1.736,4.213-4.379
			c1.031-1.396,2.399-3.935,3.038-8.129c0.714-8.945-0.805-11.658-1.488-12.4c-0.063-0.074-0.125-0.127-0.183-0.172
			c-1.881,2.763-9.387,6.383-39.29,9.5c-24.396,2.543-56.812,3.944-91.275,3.944c-34.465,0-66.885-1.401-91.278-3.944
			c-31.077-3.238-37.963-7.025-39.486-9.825C122.201,261.639,122.001,261.628,121.794,261.628z"/>
	</g>
	<g>
		<path fill="#FBB041" d="M320.882,374.074c0,22.197-30.87,40.201-68.955,40.201c-38.081,0-68.954-18.004-68.954-40.201
			s30.873-40.191,68.954-40.191C290.012,333.882,320.882,351.876,320.882,374.074z"/>
		<path fill="#3C2517" d="M251.927,416.739c-39.385,0-71.427-19.138-71.427-42.665c0-23.52,32.042-42.662,71.427-42.662
			c39.386,0,71.426,19.143,71.426,42.662C323.353,397.602,291.312,416.739,251.927,416.739z M251.927,336.352
			c-36.66,0-66.484,16.922-66.484,37.723c0,20.809,29.824,37.73,66.484,37.73c36.66,0,66.486-16.923,66.486-37.73
			C318.413,353.273,288.587,336.352,251.927,336.352z"/>
	</g>
</g>
</svg>
