<?xml version="1.0" encoding="utf-8"?>
<!-- Generator: Adobe Illustrator 16.0.0, SVG Export Plug-In . SVG Version: 6.00 Build 0)  -->
<!DOCTYPE svg PUBLIC "-//W3C//DTD SVG 1.1//EN" "http://www.w3.org/Graphics/SVG/1.1/DTD/svg11.dtd">
<svg version="1.1" id="Layer_1" xmlns="http://www.w3.org/2000/svg" xmlns:xlink="http://www.w3.org/1999/xlink" x="0px" y="0px"
	 width="500px" height="500px" viewBox="0 0 500 500" enable-background="new 0 0 500 500" xml:space="preserve">
<g id="Layer_1_copy_61">
	<g>
		<g>
			<path fill="#F4BE78" d="M228.892,220.44c0,0,6.668,28.083-7.67,33.511c-7.799,2.945,18.664,49.595,18.664,49.595l28.098,1.974
				l26.688-26.056l-1.635-24.165c0,0-14.817-15.718-5.96-36.564c8.855-20.846-34.971-30.912-34.971-30.912L228.892,220.44z"/>
		</g>
		<g>
			<path fill="#3C2415" d="M267.982,308.754c-0.074,0-0.149-0.004-0.228-0.011l-28.096-1.974c-1.079-0.074-2.052-0.69-2.588-1.631
				c-21.818-38.47-20.878-48.765-20.067-51.004c0.551-1.529,1.643-2.671,3.068-3.21c9.558-3.619,7.334-22.695,5.67-29.742
				c-0.217-0.905-0.027-1.859,0.513-2.617l23.22-32.618c0.758-1.065,2.08-1.569,3.358-1.28c1.202,0.276,29.521,6.926,36.86,21.318
				c2.285,4.48,2.406,9.196,0.361,14.009c-7.892,18.572,4.799,32.507,5.342,33.089c0.504,0.543,0.818,1.252,0.865,1.992
				l1.635,24.167c0.063,0.944-0.29,1.87-0.965,2.53l-26.689,26.058C269.636,308.425,268.827,308.754,267.982,308.754z
				 M241.85,300.441l24.91,1.748l24.583-23.998l-1.459-21.594c-3.196-3.869-14.216-19.278-5.78-39.125
				c1.279-3.018,1.224-5.811-0.172-8.542c-4.537-8.911-21.926-15.154-30.469-17.435l-21.111,29.66
				c1.22,6.175,4.795,29.503-9.359,35.567C222.251,261.538,231.812,282.527,241.85,300.441z"/>
		</g>
	</g>
	<g>
		<g>
			<path fill="#F4BE78" d="M181.914,174.811c6.594,30.193,37.502,53.042,74.646,53.042c36.181,0,64.092-19.838,71.724-48.88
				l0.521-4.512c-0.079,0.097,19.392,6.593,23.194-10.191c3.923-17.28-9.856-21.812-9.856-21.812l-3.348-4.945l-56.062-72.507
				l-73.854,16.441l-42.587,66.847c0,0-12.413-1.152-7.94,17.206c4.312,17.728,23.495,9.057,23.418,8.96"/>
		</g>
		<g>
			<path fill="#3C2415" d="M256.561,231.085c-36.759,0-68.542-21.819-77.001-52.337c-3.283,0.927-7.48,1.398-10.621,0.952
				c-4.94-0.701-11.338-3.597-13.734-13.434c-1.902-7.82-1.232-13.673,1.982-17.399c2.151-2.492,5.062-3.475,7.29-3.744
				L206.15,79.71c0.462-0.723,1.188-1.234,2.023-1.42l73.856-16.44c1.222-0.27,2.494,0.188,3.261,1.178l56.062,72.505l2.897,4.266
				c5.795,2.453,14.303,10.223,10.908,25.191c-1.761,7.766-6.943,12.658-14.589,13.773c-2.022,0.293-5.761,0.286-8.979-0.246
				l-0.093,0.829c-0.021,0.15-0.046,0.304-0.086,0.451C323.224,210.954,293.843,231.085,256.561,231.085z M181.918,171.579
				c1.487,0,2.829,1.03,3.153,2.542c6.395,29.26,36.458,50.495,71.49,50.495c34.162,0,61.039-18.143,68.536-46.244l0.493-4.283
				c0.179-1.545,1.432-2.743,2.979-2.857c0.551-0.042,1.098,0.064,1.579,0.286c1.685,0.594,8.692,2.185,13.553-0.44
				c2.638-1.427,4.317-3.886,5.146-7.522c3.231-14.249-7.263-17.875-7.713-18.021c-0.684-0.226-1.27-0.669-1.67-1.262l-3.348-4.949
				L281.43,68.612l-70.544,15.702l-41.867,65.719c-0.651,1.022-1.823,1.591-3.024,1.48c-0.069-0.003-2.465-0.144-3.952,1.623
				c-1.688,2.01-1.884,6.132-0.551,11.6c0.955,3.937,2.743,6.465,5.457,7.727c4.909,2.289,11.813-0.114,13.263-0.829l0.168,0.333
				c0.257-0.14,0.539-0.247,0.843-0.311C181.457,171.604,181.688,171.579,181.918,171.579z"/>
		</g>
	</g>
	<g>
		<path fill="#F58020" d="M293.717,253.988c26.003,11.02,80.246,27.859,81.861,59.934c0,0,4.353,30.059,0,30.123
			c-17.92,0.27-94.143-0.486-109.113-0.279c-21.272,0.289-108.93,0.411-134.402,0.067c-4.094-0.058,2.592-30.45,2.553-30.575
			c8.268-36.173,59.312-46.846,86.431-59.699c0,0,7.326,29.109,34.701,29.182C285.873,282.82,293.717,253.988,293.717,253.988z"/>
		<path fill="#3C2415" d="M363.36,347.337c-12.477,0-30.54-0.104-47.859-0.2c-21.562-0.119-41.985-0.229-48.994-0.142
			c-11.774,0.162-44.431,0.28-77.656,0.28c-26.259,0-46.978-0.08-56.834-0.211c-1.217-0.016-2.317-0.562-3.104-1.537
			c-1.237-1.538-3.312-4.105,2.32-31.846c0.09-0.433,0.154-0.736,0.18-0.888c0.014-0.085,0.027-0.172,0.049-0.261
			c6.884-30.133,41.017-43.252,68.439-53.796c7.243-2.785,14.084-5.413,19.758-8.103c0.876-0.418,1.889-0.418,2.765-0.004
			c0.876,0.415,1.523,1.197,1.76,2.135c0.274,1.088,7.097,26.674,31.576,26.738c27.354,0,34.766-26.104,34.838-26.365
			c0.242-0.902,0.865-1.652,1.705-2.062c0.842-0.408,1.816-0.437,2.674-0.067c3.355,1.42,7.179,2.936,11.297,4.569
			c28.231,11.202,70.881,28.126,72.528,58.022c1.815,12.578,3.275,28.301-0.004,32.139c-0.827,0.972-1.952,1.516-3.172,1.533
			C372.814,347.318,368.574,347.337,363.36,347.337z M274.502,340.492c9.755,0,25.079,0.087,41.034,0.177
			c23.285,0.132,47.928,0.272,58.479,0.155c0.754-3.917-0.153-16.178-1.638-26.44c-0.015-0.098-0.023-0.196-0.033-0.301
			c-1.302-25.838-41.717-41.874-68.462-52.485c-2.93-1.166-5.715-2.271-8.289-3.322c-3.346,8.1-14.102,27.701-39.719,27.701h-0.004
			c-23.517-0.062-33.55-19.685-36.743-27.987c-5.127,2.26-10.88,4.473-16.907,6.79c-25.988,9.99-58.331,22.426-64.452,49.197
			c-0.047,0.269-0.115,0.59-0.196,0.998c-3.438,16.938-3.74,23.316-3.595,25.647c10.441,0.118,30.204,0.185,54.872,0.185
			c33.197,0,65.817-0.117,77.566-0.277C268.264,340.503,271.029,340.492,274.502,340.492z"/>
	</g>
	<g>
		<circle fill="#25111A" cx="223.489" cy="154.133" r="8.626"/>
	</g>
	<g>
		<circle fill="#25111A" cx="287.66" cy="154.133" r="8.624"/>
	</g>
	<g>
		<path fill="#3C2415" d="M254.023,207.081c-22.45,0-29.789-19.029-29.859-19.223c-0.622-1.673,0.233-3.536,1.905-4.158
			c1.667-0.629,3.537,0.229,4.158,1.905c0.233,0.601,5.933,15.008,23.809,15.008c0.062,0,0.123,0,0.188,0l3.457-0.011
			c16.869-0.593,22.34-14.41,22.565-15c0.637-1.663,2.503-2.507,4.166-1.877c1.666,0.625,2.515,2.478,1.896,4.148
			c-0.283,0.75-7.108,18.446-28.506,19.197l-3.555,0.01C254.174,207.081,254.098,207.081,254.023,207.081z"/>
	</g>
	<g>
		<path fill="#4C230D" d="M344.256,87.737c-20.038-48.505-59.441-59.576-90.132-53.133l-0.11,0.141
			c-30.485-5.846-69.039,5.585-88.784,53.389c-6.646,16.085-14.303,56.323-0.027,61.862c0.021,0.062,0.043,0.126,0.058,0.165
			c0.271,0.049,0.539,0.064,0.81,0.111c0.122,0.036,0.233,0.085,0.359,0.115c0.367,0.085,0.775,0.118,1.208,0.11
			c39.456,5.127,75.289-45.699,75.289-45.699l-6.983,33.001c0,0,19.978-2.76,33.314-48.31c7.816,25.337,18.461,40.341,18.461,40.341
			s-2.91-16.542,0.969-25.525c3.004,2.051,25.122,32.43,41.271,40.017c5.294,4.048,10.233,6.33,13.101,5.667
			C358.994,146.313,351.085,104.269,344.256,87.737z"/>
		<path fill="#3C2415" d="M173.297,154.094c-1.974,0-3.955-0.125-5.885-0.369c-0.688-0.011-1.217-0.075-1.703-0.186
			c-0.075-0.018-0.229-0.061-0.361-0.104l-0.043-0.004c-0.215-0.025-0.425-0.054-0.64-0.093c-0.547-0.104-1.055-0.346-1.47-0.69
			c-2.932-1.401-5.203-3.951-6.761-7.594c-6.473-15.122,0.711-45.828,5.802-58.157c14.911-36.091,42.991-56.791,77.045-56.791
			c4.807,0,9.645,0.433,14.396,1.286c5.429-1.123,10.98-1.693,16.513-1.693c34.059,0,62.146,20.703,77.06,56.803
			c5.722,13.862,12.354,45.596,5.191,59.484c-1.976,3.83-4.972,6.304-8.656,7.155c-0.564,0.129-1.166,0.193-1.795,0.193l0,0
			c-4.488,0-9.891-3.344-13.728-6.236c-12.437-6.025-27.223-23.542-36.086-34.045c-0.63-0.746-1.263-1.498-1.869-2.21
			c-0.888,6.38-0.072,14.305,0.514,17.934c0.115,0.329,0.176,0.683,0.176,1.052c0,1.787-1.448,3.236-3.236,3.236
			c-0.011,0-0.023,0-0.037,0c0,0,0,0-0.005,0c-1.022,0-2.018-0.486-2.64-1.362c-0.389-0.551-8.475-12.076-15.762-31.918
			c-13.651,38.111-32.094,41.1-32.933,41.219c-1.047,0.136-2.095-0.232-2.81-1.001c-0.719-0.773-1.016-1.842-0.794-2.875
			l4.181-19.759C224.615,131.381,200.422,154.094,173.297,154.094z M167.269,147.257c0.063-0.003,0.528-0.003,0.786,0.033
			c1.717,0.222,3.482,0.335,5.242,0.335c35.031,0,66.671-44.245,66.985-44.692c0.884-1.253,2.529-1.714,3.938-1.1
			c1.405,0.615,2.188,2.133,1.869,3.635l-5.677,26.828c6.271-4.037,17.312-14.936,25.74-43.715c0.399-1.372,1.65-2.316,3.08-2.326
			c1.371-0.04,2.69,0.917,3.113,2.281c3.531,11.455,7.685,20.79,11.105,27.495c0.086-4.509,0.654-9.281,2.266-13.008
			c0.385-0.887,1.143-1.556,2.072-1.826c0.921-0.271,1.923-0.109,2.721,0.437c1.115,0.761,2.734,2.656,6.611,7.248
			c8.03,9.52,22.987,27.241,34.208,32.511c0.207,0.1,0.407,0.218,0.59,0.357c4.938,3.772,8.438,5.117,10.069,5.117
			c0.182,0,0.292-0.018,0.344-0.029c1.823-0.422,3.253-1.669,4.358-3.819c5.643-10.934,0.472-39.773-5.425-54.048
			c-13.862-33.555-39.771-52.803-71.076-52.803c-4.991,0-9.998,0.504-14.896,1.499c-0.598,0.268-1.264,0.379-1.889,0.255
			c-4.652-0.892-9.403-1.345-14.125-1.345c-31.3,0-57.202,19.241-71.062,52.791c-5.728,13.855-10.844,41.444-5.838,53.14
			c1.007,2.356,2.312,3.819,3.993,4.469c0.079,0.032,0.162,0.068,0.239,0.107l0,0c0.107,0.018,0.211,0.04,0.314,0.068
			c0.062,0.018,0.232,0.071,0.326,0.104C167.254,147.257,167.257,147.257,167.269,147.257z"/>
	</g>
	<g>
		<circle fill="#EAE05F" cx="255.613" cy="367.826" r="99.727"/>
		<path fill="#3C2415" d="M255.615,470.25c-56.477,0-102.425-45.947-102.425-102.424c0-56.475,45.948-102.422,102.425-102.422
			c56.474,0,102.421,45.947,102.421,102.422C358.036,424.302,312.089,470.25,255.615,470.25z M255.615,270.792
			c-53.501,0-97.032,43.53-97.032,97.033c0,53.505,43.531,97.032,97.032,97.032c53.502,0,97.033-43.527,97.033-97.032
			C352.648,314.323,309.117,270.792,255.615,270.792z"/>
	</g>
	<g>
		<path fill="#00A14B" d="M252.73,340.579c0,0-6.727,94.118-31.03,121.057c28.523,13.646,84.16,2.864,102.979-21.883
			c0.654-7.236-56.338-108.002-59.288-107.752C265.391,332,263.16,340.514,252.73,340.579z"/>
		<path fill="#3C2415" d="M252.771,470.299L252.771,470.299c-12.567-0.003-23.716-2.156-32.233-6.231
			c-0.77-0.368-1.319-1.072-1.483-1.909c-0.165-0.833,0.074-1.695,0.644-2.325c23.412-25.955,30.278-118.515,30.346-119.444
			c0.097-1.404,1.26-2.494,2.669-2.502c8.005-0.054,9.89-5.926,10.079-6.595c0.305-1.079,1.255-1.884,2.37-1.978
			c1.463-0.117,2.491,0.944,2.896,1.385c6.344,6.943,60.063,100.887,59.306,109.293c-0.045,0.509-0.234,0.988-0.539,1.391
			C313.878,458.407,283.428,470.299,252.771,470.299z M226.052,460.577c7.337,2.84,16.49,4.33,26.722,4.33
			c28.111,0,56.918-10.869,69.114-25.962c-2.432-9.447-44.624-86.377-55.87-102.187c-1.988,2.802-5.438,5.636-10.781,6.347
			C254.049,357.645,246.995,432.648,226.052,460.577z"/>
	</g>
	<g>
		<path fill="#ED1C24" d="M265.775,329.079c0,0,56.77-19.876,87.451,18.239c-15.676-59.992-63.59-73.266-63.59-73.266l-35.46,43.426
			C254.178,317.479,266.598,319.084,265.775,329.079z"/>
		<path fill="#3C2415" d="M353.231,350.016c-0.799,0-1.578-0.355-2.104-1.006c-11.971-14.875-29.463-22.416-51.986-22.416
			c-17.849,0-32.33,4.981-32.478,5.031c-0.858,0.3-1.812,0.143-2.535-0.415c-0.722-0.56-1.112-1.44-1.04-2.351
			c0.602-7.289-8.859-8.651-9.266-8.711c-0.969-0.129-1.795-0.771-2.151-1.68c-0.356-0.908-0.2-1.938,0.418-2.695l35.464-43.426
			c0.674-0.826,1.776-1.175,2.807-0.896c0.492,0.14,49.348,14.323,65.355,74.731c0.161,0.344,0.251,0.727,0.251,1.133
			c0,1.486-1.21,2.697-2.697,2.697C353.259,350.016,353.241,350.016,353.231,350.016z M299.142,321.202
			c19.373,0,35.814,5.553,48.197,16.172c-15.559-43.254-49.002-57.417-56.782-60.181l-31.634,38.734
			c3.966,1.491,8.218,4.467,9.317,9.571C273.73,323.948,285.365,321.202,299.142,321.202z"/>
	</g>
	<g>
		<path fill="#27AAE1" d="M243.508,333.635c0,0-65.202,17.162-81.711,68.083c-21.182-67.315,26.224-107.212,26.224-107.212
			s48.808-1.191,59.46,25.104C240.52,323.982,243.508,333.635,243.508,333.635z"/>
		<path fill="#3C2415" d="M161.797,404.415c-0.007,0-0.01,0-0.015,0c-1.168-0.007-2.205-0.769-2.56-1.888
			c-21.472-68.238,26.574-109.674,27.064-110.08c0.465-0.396,1.055-0.618,1.671-0.637c0,0,0.356-0.008,1.021-0.008
			c8.374,0,50.671,1.293,61.001,26.793c0.485,1.213,0.043,2.604-1.065,3.297c-5.146,3.231-2.857,10.866-2.833,10.943
			c0.215,0.701,0.138,1.463-0.218,2.104c-0.356,0.644-0.958,1.113-1.669,1.301c-0.637,0.17-63.979,17.412-79.834,66.309
			C164,403.66,162.963,404.415,161.797,404.415z M189.062,297.195c-5.435,5.049-40.407,40.184-26.855,95.968
			c8.17-18.271,23.67-34.373,45.284-46.914c14.5-8.413,27.598-12.89,32.879-14.509c-0.462-3.329-0.462-9.022,3.772-12.959
			C233.524,297.932,194.058,297.203,189.062,297.195z"/>
	</g>
	<g>
		<ellipse fill="#96D0A4" cx="254.177" cy="329.079" rx="14.015" ry="13.36"/>
		<path fill="#3C2415" d="M254.178,345.133c-9.217,0-16.713-7.201-16.713-16.055c0-8.85,7.496-16.055,16.713-16.055
			c9.215,0,16.709,7.205,16.709,16.055C270.887,337.932,263.393,345.133,254.178,345.133z M254.178,318.416
			c-6.246,0-11.319,4.785-11.319,10.663c0,5.882,5.073,10.666,11.319,10.666c6.24,0,11.321-4.784,11.321-10.666
			C265.499,323.201,260.418,318.416,254.178,318.416z"/>
	</g>
	<g>
		<path fill="#F4BE78" d="M146.544,332.365c-8.014-0.779-31.315-4.752-31.162,37.008c1.237,32.581,32.217,29.178,32.217,29.178
			s28.248-5.425,10.044-22.226c13.133-13.468-4.816-23.077-4.816-23.077S173.286,339.055,146.544,332.365z"/>
		<path fill="#3C2415" d="M145.139,401.887h-0.003c-7.449,0-31.85-2.338-32.986-32.393c-0.057-15.99,3.254-27.396,9.84-34.01
			c4.509-4.521,10.545-6.817,17.946-6.817c2.347,0,4.477,0.222,6.033,0.388l0.886,0.09c0.161,0.018,0.318,0.041,0.476,0.082
			c9.834,2.463,15.089,6.254,16.065,11.584c0.901,4.944-2.425,9.394-5.249,12.176c2.921,2.363,6.584,6.271,7.38,11.416
			c0.619,4-0.551,7.953-3.468,11.769c4.212,4.627,5.742,9.085,4.544,13.284c-2.563,8.984-16.783,11.963-18.396,12.271
			c-0.082,0.018-0.169,0.026-0.255,0.037C147.838,401.779,146.804,401.887,145.139,401.887z M139.936,335.136
			c-5.696,0-10.065,1.608-13.366,4.916c-5.327,5.351-8.006,15.212-7.951,29.31c0.89,23.508,18.844,26.058,26.518,26.058h0.003
			c1.016,0,1.72-0.051,1.991-0.071c3.934-0.798,12.11-3.646,13.252-7.675c0.826-2.892-2.228-6.479-4.931-8.974
			c-0.64-0.594-1.017-1.415-1.041-2.292c-0.021-0.873,0.309-1.718,0.915-2.343c2.949-3.021,4.23-5.938,3.808-8.676
			c-0.832-5.406-7.763-9.252-7.834-9.287c-0.994-0.533-1.637-1.543-1.698-2.668c-0.067-1.123,0.459-2.201,1.384-2.844
			c2.203-1.54,6.586-5.682,6.043-8.621c-0.439-2.402-4.463-4.732-11.049-6.41l-0.683-0.072
			C143.801,335.333,141.942,335.136,139.936,335.136z"/>
	</g>
	<g>
		<path fill="#F4BE78" d="M362.774,338.25c8.017-0.777,31.312-4.747,31.161,37.014c-1.232,32.577-32.213,29.178-32.213,29.178
			s-28.251-5.426-10.045-22.23c-13.138-13.462,4.813-23.074,4.813-23.074S336.036,344.943,362.774,338.25z"/>
		<path fill="#3C2415" d="M364.183,407.775c-1.663,0-2.698-0.106-2.813-0.121c-0.084-0.01-0.171-0.025-0.257-0.041
			c-1.612-0.311-15.83-3.284-18.395-12.271c-1.196-4.196,0.332-8.655,4.549-13.286c-2.921-3.814-4.091-7.763-3.473-11.768
			c0.795-5.145,4.459-9.05,7.378-11.413c-2.822-2.782-6.146-7.229-5.243-12.175c0.975-5.336,6.229-9.126,16.062-11.585
			c0.155-0.04,0.312-0.069,0.473-0.084l0.892-0.093c1.556-0.16,3.688-0.383,6.031-0.383c7.397,0,13.438,2.295,17.946,6.815
			c6.587,6.614,9.895,18.019,9.84,33.899C396.028,405.438,371.635,407.775,364.183,407.775z M362.188,401.232
			c0.267,0.024,0.975,0.072,1.995,0.072c7.679,0,25.627-2.552,26.521-26.164c0.05-13.988-2.627-23.851-7.955-29.199
			c-3.298-3.309-7.667-4.916-13.362-4.916c-2.01,0-3.869,0.197-5.362,0.348l-0.685,0.074c-6.59,1.674-10.608,4.009-11.049,6.414
			c-0.536,2.937,3.93,7.148,6.047,8.617c0.923,0.642,1.449,1.717,1.384,2.844c-0.063,1.123-0.709,2.135-1.702,2.664
			c-1.939,1.055-7.146,4.787-7.835,9.311c-0.415,2.729,0.869,5.643,3.811,8.654c0.611,0.626,0.938,1.472,0.919,2.345
			c-0.021,0.873-0.397,1.699-1.041,2.292c-2.706,2.499-5.757,6.082-4.931,8.979C350.092,397.609,358.262,400.449,362.188,401.232z"
			/>
	</g>
</g>
</svg>
