<svg id="put_garbage_in_bin" data-name="put garbage in bin" xmlns="http://www.w3.org/2000/svg" viewBox="0 0 300 300"><defs><style>.cls-1{fill:#6d6e71;}.cls-1,.cls-10,.cls-2,.cls-3,.cls-4,.cls-5,.cls-6,.cls-7,.cls-8,.cls-9{stroke:#3c2415;stroke-width:2.34px;}.cls-1,.cls-2,.cls-3,.cls-4,.cls-5,.cls-6,.cls-7,.cls-8,.cls-9{stroke-linecap:round;stroke-linejoin:round;}.cls-2{fill:#9f6e71;}.cls-3{fill:#436700;}.cls-4{fill:#a06700;}.cls-5{fill:#bb6700;}.cls-6{fill:#6d3b71;}.cls-7{fill:#6d5b71;}.cls-8{fill:#808285;}.cls-9{fill:#a7a9ac;}.cls-10{fill:#f1ba85;stroke-miterlimit:10;fill-rule:evenodd;}</style></defs><title>put garbage in dustbin</title><path class="cls-1" d="M209,120.61c0,6.18-29.56,11.18-66,11.18s-66-5-66-11.18,29.55-11.17,66-11.17S209,114.44,209,120.61Z"/><path class="cls-2" d="M169.51,116.29s-3.94-5.66,0-6.6,8-2.84,8.9-5.2,7.79-.7,8.5,2.36-2.12,4.25,0,6.61,6.16,3.55,4.5,6.5-8.28,1.53-14.18,0S169.51,116.29,169.51,116.29Z"/><path class="cls-3" d="M188.71,71.26c-7.18-5.07-7.34-5.39-16.22-1.44S159.32,67,161,74.72s-1.83,6.79,4.84,11.73,16.7,14.82,21.49.79S191.9,73.5,188.71,71.26Z"/><path class="cls-4" d="M118.22,114a20.94,20.94,0,0,1,16.5-8.94c11.13-.32,15.5-1.36,16.08,5.8s-9.08.4-14.55,6.89-6.36,11.3-10,10.87S108.79,118.48,118.22,114Z"/><path class="cls-5" d="M155.85,113.3a20.91,20.91,0,0,1,18.41,3.59c8.8,6.84,12.82,8.82,8.72,14.71s-7.26-5.47-15.61-3.95-12.1,4.67-14.61,2S145.69,110.78,155.85,113.3Z"/><path class="cls-2" d="M83.39,123.94s-4-5.67,0-6.61,8-2.84,8.9-5.2,7.79-.7,8.5,2.36-2.13,4.25,0,6.61,6.16,3.55,4.49,6.5-8.27,1.53-14.17,0S83.39,123.94,83.39,123.94Z"/><path class="cls-6" d="M110.41,117.72c2.74-4.25,7.55-4.55,11.33-3.13s1.37,1.89,9.42,2.12,5.21-1.53,11.35,1,13.06-5.25,10.3,5.13-3.93,11.24-11,13.17-11.33,4.81-13.46-.05-8.57-3.68-12.19-7S106.87,123.21,110.41,117.72Z"/><path class="cls-7" d="M165.13,140c-1.59-4.8,1.21-8.73,4.69-10.77s2.33.11,7.57-6,2.09-5,7.92-8.2,4.12-13.46,10.47-4.79,6.26,10.13,3.32,16.85-3.39,11.84-8.5,10.43-8.26,4.35-13.1,5.09S167.17,146.24,165.13,140Z"/><path class="cls-3" d="M99,104c-4.4,7.59-4.72,7.78,0,16.28s-1.65,13.36,5.91,11.05,6.92,1.22,11.25-5.86,13.29-17.93-1.11-21.47S101,100.66,99,104Z"/><path class="cls-8" d="M185.89,244.43c0,10.1-19.23,18.29-42.95,18.29s-43-8.19-43-18.29L83.39,133.31l47.51,1,71.74-1Z"/><path class="cls-9" d="M209,119.91c0,5.18-29.56,9.37-66,9.37s-66-4.19-66-9.37v9.38c0,5.17,29.55,9.36,66,9.36s66-4.19,66-9.36v-9.38Z"/><polygon class="cls-1" points="109.13 250.21 94.34 143.84 100.63 145.26 113.85 253.04 109.13 250.21"/><polygon class="cls-1" points="121.09 256.19 126.44 258.39 117.63 147.62 109.29 146.67 121.09 256.19"/><polygon class="cls-1" points="134.62 259.34 141.38 259.34 139.34 148.56 128.01 148.56 134.62 259.34"/><polygon class="cls-1" points="150.82 259.34 156.02 259.34 161.68 148.56 150.82 149.66 150.82 259.34"/><polygon class="cls-1" points="164.67 256.5 170.02 254.93 179.78 145.73 171.6 146.67 164.67 256.5"/><polygon class="cls-1" points="176.63 251.47 180.56 248.79 193.31 142.27 187.65 143.84 176.63 251.47"/><path class="cls-10" d="M223,59.17c-.26-6.85-.52-13.43-.78-20.22-4.09-.22-8.14-.17-12.11-.73-9.57-1.34-18.29,2-27.29,4.22-6.44,1.62-10.92,5.32-15.49,9.8-6.9,6.75-6.93,15-6.58,23.47a4.87,4.87,0,0,0,2.85,3.54c1,.27,2.82-1.13,3.75-2.23s1.07-2.61,1.5-4C170,69.54,171,66,172.16,62.5A3.38,3.38,0,0,1,173.47,61c2.52-1.71,5.06-3.39,7.65-5a4,4,0,0,1,5.35.57,4,4,0,0,1,0,5.57c-2.34,2.77-4.13,6.15-8.24,7-1.51.3-2.85,1.44-4.27,2.2-2.53,1.34-3.18,3.54-2.8,6.2a3.36,3.36,0,0,0,3.53,3.24c4.64.24,8.18-2.24,11.84-4.54a16.26,16.26,0,0,1,5.64-2.58c7.72-1.26,13.41-5.37,17.47-11.85,1.4-2.24,3.59-1.46,5.43-1.84A71.49,71.49,0,0,1,223,59.17Z"/></svg>