<?xml version="1.0" encoding="utf-8"?>
<!-- Generator: Adobe Illustrator 16.0.0, SVG Export Plug-In . SVG Version: 6.00 Build 0)  -->
<!DOCTYPE svg PUBLIC "-//W3C//DTD SVG 1.1//EN" "http://www.w3.org/Graphics/SVG/1.1/DTD/svg11.dtd">
<svg version="1.1" id="Layer_1" xmlns="http://www.w3.org/2000/svg" xmlns:xlink="http://www.w3.org/1999/xlink" x="0px" y="0px"
	 width="500px" height="500px" viewBox="0 0 500 500" enable-background="new 0 0 500 500" xml:space="preserve">
<g id="Layer_1_copy_24">
	<g>
		<g>
			<path fill="#F4BE78" d="M255.624,249.149c0,0,1.599,15.509-11.47,21.175c-13.064,5.665,14.046,75.867,14.046,75.867
				l45.692-35.289l33.802-25.258l-13.613-16.344c0,0-14.826-0.148-9.146-14.189c5.677-14.042-19.583-35.221-19.583-35.221
				L255.624,249.149z"/>
		</g>
		<g>
			<path fill="#3C2517" d="M258.2,348.628c-0.218,0-0.438-0.03-0.653-0.09c-0.742-0.207-1.34-0.753-1.615-1.47
				c-6.562-16.979-26.857-72.861-12.744-78.979c11.237-4.871,10.065-18.132,10.014-18.695c-0.087-0.854,0.286-1.693,0.979-2.204
				l39.728-29.258c0.905-0.667,2.146-0.628,3.006,0.093c1.087,0.912,26.543,22.495,20.277,37.998
				c-1.376,3.402-1.486,6.011-0.324,7.748c1.976,2.961,7.188,3.096,7.239,3.096c0.715,0.007,1.388,0.328,1.849,0.877l13.612,16.344
				c0.425,0.512,0.625,1.178,0.546,1.842c-0.078,0.662-0.425,1.264-0.96,1.664l-33.801,25.258l-45.664,35.268
				C259.258,348.453,258.732,348.628,258.2,348.628z M258.134,250.321c0.19,6.373-2.235,17.565-13.012,22.236
				c-5.123,2.221-1.088,29.371,14.183,69.709l43.104-33.285l31.776-23.75l-11.307-13.571c-2.312-0.238-7.413-1.216-10.062-5.187
				c-2.106-3.16-2.152-7.289-0.136-12.271c3.831-9.49-10.173-24.682-17.455-31.193L258.134,250.321z"/>
		</g>
	</g>
	<g>
		<path fill="#F58020" d="M251.747,262.504c0,0-16.463,44.962,19.003,50.029c35.465,5.066,44.332-46.865,44.332-46.865
			s46.862,5.699,69.029,31.663c22.163,25.966,43.063,69.663,43.063,69.663l-56.28,36.637l-20.347-43.6l-1.258,108.003H196.988
			l3.112-142.202l-47.145,2.535c0,0-17.734-36.102-6.968-81.698c13.3-5.067,81.063,0,81.063,0S243.515,252.369,251.747,262.504z"/>
		<path fill="#3C2517" d="M349.291,470.467H196.988c-0.652,0-1.281-0.263-1.74-0.731c-0.456-0.468-0.708-1.1-0.691-1.755
			l3.054-139.578l-44.527,2.396c-0.998,0.068-1.883-0.483-2.313-1.358c-0.739-1.504-17.994-37.41-7.15-83.329
			c0.186-0.785,0.749-1.427,1.503-1.714c4.258-1.623,13.352-2.411,27.793-2.411c23.836,0,54.016,2.238,54.32,2.259
			c0.207,0.018,0.411,0.059,0.611,0.125c0.697,0.242,17.223,6.048,25.792,16.598c0.534,0.668,0.688,1.569,0.396,2.375
			c-0.08,0.224-8.212,22.925,0.01,36.655c3.341,5.581,9.078,8.99,17.052,10.126c1.498,0.218,2.99,0.325,4.433,0.325
			c29.103,0,37.078-44.738,37.158-45.188c0.218-1.277,1.398-2.169,2.689-2.01c1.952,0.236,48.063,6.12,70.587,32.501
			c22.114,25.907,43.197,69.754,43.407,70.192c0.529,1.103,0.154,2.425-0.867,3.088l-56.282,36.641
			c-0.591,0.383-1.314,0.491-1.996,0.301c-0.681-0.192-1.239-0.673-1.537-1.312l-15.831-33.928l-1.134,97.33
			C351.705,469.395,350.625,470.467,349.291,470.467z M199.476,465.599h147.411l1.227-105.597c0.014-1.136,0.812-2.109,1.921-2.352
			c1.117-0.246,2.239,0.324,2.719,1.352l19.161,41.064l52.131-33.936c-4.299-8.686-22.7-44.863-41.784-67.219
			c-18.578-21.764-55.788-28.979-65.246-30.499c-0.9,4.097-3.197,12.976-7.728,21.956c-9.221,18.287-22.803,26.878-38.883,24.574
			c-9.499-1.356-16.411-5.551-20.542-12.461c-8.249-13.795-2.623-34.004-0.861-39.455c-7.326-8.162-20.37-13.188-22.46-13.955
			c-3.346-0.245-31.313-2.225-53.625-2.225c-14.791,0-21.681,0.864-24.868,1.717c-8.671,38.599,3.428,70.265,6.443,77.282
			l45.483-2.445c0.655-0.047,1.336,0.211,1.824,0.68c0.486,0.475,0.753,1.126,0.738,1.805L199.476,465.599z"/>
	</g>
	<g>
		<g>
			<path fill="#F4BE78" d="M162.455,122.941c-17.103-7.602-22.799-18.766-8.234-23.832c14.566-5.068,30.397,6.332,34.829,23.435
				c4.437,17.096-46.529,53.83-46.529,53.83l-8.567,68.044c0,0-6.331,16.184,15.834,11.748c22.168-4.428,5.701,60.8,5.701,60.8
				h-44.962c0,0-39.266,0.636-32.931-46.864c6.327-47.498,24.695-125.394,24.695-125.394l-1.9-14.567
				c0,0-7.599-51.298,13.932-52.564c8.143-0.048,14.567,5.702,14.567,5.702s3.164-21.533,17.099-5.702
				c1.266-19.631,15.199-7.187,16.467-5.808c1.265,1.378,1.9,23.542,1.9,23.542"/>
		</g>
		<g>
			<path fill="#3C2517" d="M110.381,319.398c-1.706,0-16.615-0.34-26.782-11.764c-7.771-8.736-10.604-21.473-8.418-37.855
				c6.032-45.241,23.154-118.85,24.64-125.196l-1.844-14.129c-0.211-1.437-5.23-36.328,5.741-49.827
				c2.756-3.39,6.276-5.235,10.462-5.48c0.043-0.001,0.084-0.001,0.13-0.001c5.461,0,10.131,2.21,13.035,4.019
				c1.057-3.494,3.244-8.275,7.486-9.531c2.901-0.858,6.059,0.1,9.424,2.849c0.997-4.219,2.941-6.859,5.81-7.871
				c6.573-2.33,14.107,5.426,14.181,5.508c0.659,0.717,1.879,2.048,2.542,25.12c0.007,0.281-0.031,0.555-0.114,0.809
				c2.446,0.529,4.867,1.419,7.203,2.67c8.37,4.475,14.922,13.156,17.534,23.215c4.521,17.438-38.364,49.767-46.606,55.792
				l-8.436,66.997c-0.024,0.201-0.077,0.394-0.146,0.584c-0.014,0.038-1.72,4.712,0.38,7.195c1.783,2.109,6.297,2.562,12.709,1.278
				c4.86-0.972,7.883,0.942,9.572,2.719c11.044,11.612,0.231,56.036-1.036,61.065c-0.272,1.078-1.248,1.834-2.359,1.834h-44.962
				C110.503,319.398,110.453,319.398,110.381,319.398z M114.426,80.009c-0.028,0-0.059,0-0.09,0
				c-2.677,0.161-4.957,1.368-6.844,3.686c-9.634,11.855-4.749,45.748-4.693,46.089l1.902,14.608
				c0.039,0.291,0.024,0.588-0.04,0.874c-0.188,0.777-18.412,78.324-24.658,125.155c-1.985,14.892,0.438,26.31,7.195,33.938
				c9.058,10.219,23.179,10.197,23.293,10.174h43.086c3.386-14.17,9.233-46.842,1.779-54.68c-0.797-0.834-2.189-1.883-5.092-1.302
				c-8.491,1.698-14.346,0.71-17.402-2.938c-3.552-4.235-1.79-10.304-1.289-11.769l8.532-67.777c0.086-0.67,0.443-1.275,0.992-1.669
				c19.182-13.827,48.522-39.97,45.601-51.245c-2.273-8.77-7.925-16.301-15.116-20.147c-5.458-2.919-11.179-3.471-16.561-1.601
				c-2.442,0.85-6.558,2.729-6.685,5.764c-0.138,3.339,4.478,8.821,15.106,13.546c1.227,0.546,1.778,1.983,1.233,3.213
				c-0.546,1.226-1.979,1.783-3.213,1.233c-11.526-5.122-18.25-11.924-17.99-18.195c0.128-3.101,1.963-7.376,9.948-10.156
				c2.749-0.958,5.62-1.394,8.508-1.33c-0.007-0.035-0.007-0.068-0.007-0.102c-0.269-9.357-0.898-19.956-1.505-22.215
				c-1.435-1.382-6.069-4.901-8.732-3.965c-1.794,0.635-2.955,3.665-3.269,8.534c-0.066,0.981-0.712,1.829-1.645,2.145
				c-0.934,0.32-1.962,0.045-2.611-0.694c-3.257-3.7-6.076-5.439-7.949-4.883c-2.798,0.829-4.518,6.643-4.915,9.331
				c-0.132,0.886-0.74,1.628-1.582,1.935c-0.84,0.302-1.782,0.122-2.449-0.477C127.211,85.042,121.452,80.009,114.426,80.009z"/>
		</g>
	</g>
	<g>
		<g>
			<path fill="#F4BE78" d="M207.673,124.105c0,0-15.365,24.081-15.562,40.81c-0.196,16.73,19.319,14.871,19.319,14.871
				s-7.057,57.36,41.767,68.807c48.831,11.474,101.978,11.759,128.605-59.387c18.526-5.942,14.645-21.68,14.645-21.68
				s-3.319-9.831-10.208-6.795c-6.856,3.05-64.82-91.679-64.82-91.679l-55.002,5.24L207.673,124.105z"/>
		</g>
		<g>
			<path fill="#3C2517" d="M295.809,256.717c-12.567,0-26.686-1.882-43.166-5.754c-44.046-10.329-44.476-56.801-43.839-68.697
				c-3.983-0.117-10.419-1.064-14.778-5.478c-2.942-2.975-4.404-6.981-4.346-11.901c0.201-17.227,15.299-41.083,15.939-42.091
				c0.134-0.203,0.293-0.387,0.479-0.545l58.749-49.812c0.381-0.323,0.846-0.52,1.342-0.568l54.998-5.24
				c0.914-0.094,1.82,0.359,2.309,1.151c25.918,42.361,55.979,87.237,62.337,90.491c0.998-0.373,2.001-0.556,2.979-0.556
				c6.813,0,9.815,8.663,9.939,9.033c0.102,0.366,4.094,17.548-15.074,24.392C366.825,235.267,338.075,256.717,295.809,256.717z
				 M211.428,177.354c0.657,0,1.289,0.263,1.748,0.739c0.515,0.525,0.761,1.258,0.671,1.987c-0.019,0.141-1.655,14.173,2.541,29.31
				c5.527,19.925,18.097,32.319,37.366,36.837c16.111,3.783,29.866,5.625,42.055,5.625c40.34,0,67.726-20.771,83.719-63.499
				c0.26-0.694,0.825-1.237,1.533-1.465c16.053-5.147,13.15-18.235,13.021-18.788c-0.45-1.274-2.526-5.517-5.271-5.517
				c-0.487,0-1.021,0.125-1.59,0.373c-0.425,0.19-0.888,0.276-1.389,0.283c-2.285,0-6.67-0.314-37.335-46.972
				c-12.897-19.624-25.168-39.471-28.356-44.648l-52.729,5.025l-57.874,49.074c-1.744,2.805-14.819,24.374-14.989,39.224
				c-0.044,3.624,0.916,6.38,2.94,8.425c3.609,3.651,9.766,4.049,12.246,4.049c0.873,0,1.419-0.048,1.474-0.055
				C211.279,177.354,211.351,177.354,211.428,177.354z"/>
		</g>
	</g>
	<g>
		<path fill="#4C230D" d="M352.959,124.523c-6.072,11.32,25.524,42.322,34.813,39.652c9.288-2.68,9.1-11.008,2.23-65.263
			c-6.874-54.246-66.895-62.246-98.907-53.826c-52.771-15.254-90.401,28.309-91.386,61.819
			c-23.928,24.356,0.991,47.044,0.991,47.044s11.489,15.02,18.277,4.823c6.786-10.198,10.556-33.228,5.205-39.283
			c18.619,1.216,27.821-8.619,27.569-17.543c15.8,9.232,32.039,10.047,54.344-5.78C306.098,96.167,342.179,130.323,352.959,124.523z
			"/>
		<path fill="#3C2517" d="M386.521,166.771c-8.86,0-25.396-14.955-32.724-27.196c-2.772-4.636-4.128-8.636-4.049-11.956
			c-12.646-0.28-37.147-22.114-43.873-28.33c-11.522,7.864-22.019,11.693-32.032,11.693c-6.65,0-13.244-1.691-20.06-5.152
			c-0.701,3.035-2.308,5.922-4.701,8.382c-4.737,4.874-12.139,7.63-20.92,7.806c3.067,10.09-1.423,29.49-7.16,38.102
			c-2.547,3.831-5.666,4.636-7.828,4.636c-6.756,0-13.092-7.655-14.277-9.161c-1.481-1.402-11.605-11.49-11.993-25.414
			c-0.238-8.587,3.265-16.757,10.411-24.298c1.497-31.592,31.276-66.369,72.366-66.369c7.021,0,14.235,1.026,21.445,3.05
			c7.149-1.813,15.312-2.77,23.641-2.77c33.937,0,72.154,15.449,77.651,58.812c6.728,53.158,7.743,64.525-3.97,67.907
			C387.853,166.684,387.206,166.771,386.521,166.771z M352.959,122.091c0.632,0,1.254,0.246,1.722,0.712
			c0.76,0.76,0.933,1.927,0.425,2.874c-1.186,2.21-0.142,6.366,2.869,11.399c7.369,12.314,22.821,24.83,28.548,24.83
			c0.229,0,0.421-0.024,0.58-0.069c7.134-2.059,7.192-9.668,0.487-62.621c-5.096-40.222-40.958-54.555-72.821-54.555
			c-8.174,0-16.146,0.961-23.055,2.779c-0.425,0.109-0.877,0.105-1.295-0.017c-6.981-2.017-13.96-3.042-20.737-3.042
			c-27.434,0-66.398,23.814-67.535,62.595c-0.021,0.613-0.267,1.197-0.699,1.634c-6.618,6.738-9.876,13.937-9.678,21.395
			c0.335,12.623,10.47,22.056,10.577,22.149c0.104,0.097,0.204,0.204,0.286,0.314c1.479,1.924,6.588,7.42,10.543,7.42
			c0.919,0,2.304-0.252,3.779-2.463c6.474-9.727,9.709-31.452,5.409-36.322c-0.657-0.74-0.798-1.8-0.362-2.684
			c0.435-0.884,1.377-1.417,2.342-1.357c9.306,0.601,16.799-1.661,21.251-6.242c2.49-2.562,3.813-5.689,3.724-8.803
			c-0.024-0.883,0.433-1.712,1.195-2.163c0.76-0.448,1.702-0.453,2.467-0.007c7.221,4.215,14.045,6.267,20.864,6.267
			c9.439,0,19.53-3.903,30.843-11.931c0.947-0.67,2.239-0.586,3.082,0.217c8.332,7.884,32.164,28.354,42.228,28.354l0,0
			c0.742,0,1.354-0.128,1.812-0.374C352.173,122.188,352.565,122.091,352.959,122.091z"/>
	</g>
	<g>
		<g>
			<path fill="#D8E028" d="M115.59,95.31c0,0-3.167,16.464,6.968,24.699c-22.472,14.84-57.632,28.499-59.533,15.2
				C61.125,121.908,72.524,113.676,115.59,95.31z"/>
		</g>
		<g>
			<path fill="#3C2517" d="M71.724,143.039c-8.733,0-10.705-4.691-11.105-7.486c-2.227-15.558,12.218-24.657,54.019-42.48
				c0.822-0.354,1.775-0.219,2.477,0.344c0.701,0.562,1.033,1.468,0.867,2.35c-0.027,0.15-2.749,15.155,6.108,22.357
				c0.603,0.487,0.936,1.233,0.897,2.007c-0.039,0.773-0.443,1.481-1.088,1.91C108.48,132.22,84.96,143.039,71.724,143.039z
				 M112.729,99.185c-39.078,16.862-48.903,24.417-47.297,35.678c0.132,0.905,0.473,3.309,6.291,3.309
				c10.264,0,30.021-7.858,46.934-18.543C113.021,113.251,112.468,104.407,112.729,99.185z"/>
		</g>
	</g>
	<g>
		<g>
			<path fill="#F2F2F2" d="M195.386,87.076c0,0-8.314,7.787-13.657-2.754c-5.341-10.544-9.138-13.079-9.138-13.079l29.131-24.066
				l46.961-15.199l14.467,17.734c0,0-5.7,4.432-7.601,3.798c0,2.959-6.867,4.645-6.867,4.645s-4.111,5.701-8.332,4.646
				c-4.856,6.543-11.399,6.121-11.399,6.121s-4.854,6.544-9.078,4.855c-2.742,5.7-10.98,6.123-10.98,6.123s-5.489,5.487-7.6,4.01
				C200.454,86.442,195.386,87.076,195.386,87.076z"/>
		</g>
		<g>
			<path fill="#3C2517" d="M188.909,92.278c-2.681,0-6.479-1.19-9.352-6.856c-4.86-9.596-8.321-12.154-8.356-12.177
				c-0.615-0.442-1.004-1.154-1.025-1.908c-0.031-0.753,0.28-1.487,0.864-1.969l29.131-24.066c0.233-0.195,0.508-0.344,0.801-0.439
				l46.958-15.199c0.957-0.311,2.003-0.001,2.636,0.776l14.467,17.734c0.419,0.508,0.607,1.163,0.531,1.812
				c-0.072,0.651-0.403,1.245-0.922,1.648c-1.431,1.11-4.666,3.466-7.297,4.171c-1.48,2.52-5.193,3.898-7.25,4.49
				c-1.31,1.587-4.646,5.069-8.673,5.069c-0.008,0-0.008,0-0.008,0c-4.11,4.775-9.057,5.759-11.271,5.952
				c-1.504,1.748-4.943,5.173-8.802,5.173h-0.005c-0.084,0-0.171-0.001-0.258-0.005c-3.137,4.33-8.836,5.467-11.103,5.753
				c-1.581,1.482-4.822,4.184-7.54,4.351c-1.714,1.798-4.539,2.521-6.001,2.788C195.21,90.353,192.356,92.278,188.909,92.278z
				 M176.251,71.375c1.791,1.984,4.479,5.593,7.649,11.849c2.12,4.188,4.293,4.188,5.009,4.188c2.087,0,4.228-1.563,4.812-2.111
				c0.377-0.351,0.853-0.573,1.36-0.64c1.834-0.238,3.686-1.038,3.907-1.526c0.242-0.729,0.815-1.297,1.544-1.537
				c0.595-0.197,1.233-0.153,1.79,0.107c0.916-0.226,3.179-1.856,4.854-3.529c0.425-0.423,0.995-0.675,1.595-0.706
				c0.063-0.003,6.838-0.439,8.909-4.748c0.557-1.152,1.906-1.68,3.1-1.206c1.844,0.753,5.102-2.551,6.22-4.047
				c0.494-0.661,1.292-1.043,2.108-0.976c0.003,0,0.003,0,0.003,0c0.992,0,5.654-0.25,9.285-5.144
				c0.588-0.791,1.593-1.15,2.547-0.91c1.954,0.49,4.794-2.375,5.768-3.713c0.339-0.461,0.833-0.796,1.389-0.933
				c2.219-0.552,4.718-1.764,5.046-2.447c0-0.783,0.359-1.436,1-1.894c0.556-0.402,1.25-0.485,1.912-0.325
				c0.612-0.11,2.047-0.882,3.564-1.888l-11.775-14.437L202.909,49.35L176.251,71.375z"/>
		</g>
	</g>
	<g>
		<g>
			<path fill="#D8E028" d="M162.455,71.243c0,0,6.964-8.868,6.964-13.299c0-4.434,50.032-42.432,72.2-44.33
				c12.664-1.903,4.432,9.5,4.432,9.5l2.632,8.864l-69.129,39.265c0,0-1.903,10.766,1.897,12.034
				c0.477,0.157,0.535,0.523,0.277,1.045c-1.814,3.634-19.273,13.603-19.273,13.603V71.243L162.455,71.243z"/>
		</g>
		<g>
			<path fill="#3C2517" d="M162.455,100.358c-0.422,0-0.847-0.111-1.223-0.33c-0.75-0.435-1.212-1.236-1.212-2.104V71.243
				c0-0.544,0.183-1.074,0.521-1.502c2.673-3.412,6.441-9.325,6.441-11.797c0-7.389,53.629-44.973,74.428-46.754
				c0.909-0.142,1.897-0.223,2.773-0.223c3.939,0,5.621,1.67,6.336,3.071c1.631,3.19-0.536,7.43-1.813,9.477l2.308,7.771
				c0.322,1.086-0.146,2.249-1.133,2.809L181.777,72.78c-0.538,3.979-0.214,7.634,0.502,8.218c0.812,0.259,1.479,0.858,1.81,1.658
				c0.245,0.591,0.415,1.548-0.183,2.75c-1.994,3.989-16.002,12.209-20.246,14.632C163.287,100.251,162.87,100.358,162.455,100.358z
				 M164.887,72.072v21.604c5.828-3.503,11.559-7.346,13.78-9.427c-2.975-3.332-1.959-10.877-1.51-13.431
				c0.128-0.712,0.562-1.333,1.195-1.692l67.446-38.311l-2.083-7.011c-0.214-0.722-0.08-1.504,0.358-2.115
				c1.444-2.01,2.488-4.704,2.115-5.438c-0.05-0.088-0.52-0.419-2.005-0.419c-0.639,0-1.378,0.062-2.207,0.187
				c-21.482,1.844-67.234,37.309-70.133,42.304C171.575,62.844,166.763,69.603,164.887,72.072z"/>
		</g>
	</g>
	<g>
		<g>
			<path fill="#F4BE78" d="M128.89,83.277c0,0,18.26,28.389,7.565,36.127c-8.65,6.252-12.81,2.747-14.585,0.604"/>
		</g>
		<g>
			<path fill="#3C2517" d="M127.752,125.366c-3.796,0-6.31-2.065-7.754-3.803c-0.858-1.033-0.716-2.566,0.321-3.427
				c1.033-0.856,2.566-0.715,3.423,0.318c1.016,1.219,3.703,4.463,11.286-1.022c7.205-5.213-3.773-25.978-8.185-32.839
				c-0.729-1.129-0.404-2.637,0.729-3.363c1.134-0.729,2.637-0.399,3.362,0.729c2,3.105,19.153,30.584,6.947,39.414
				C133.805,124.323,130.453,125.366,127.752,125.366z"/>
		</g>
	</g>
	<g>
		<path fill="#D8E028" d="M145.988,77.575c0,0,8.646,15.787,6.937,21.534"/>
		<path fill="#3C2517" d="M152.928,101.543c-0.233,0-0.466-0.033-0.697-0.102c-1.289-0.383-2.021-1.738-1.638-3.026
			c0.982-3.288-3.35-13.482-6.738-19.67c-0.647-1.178-0.215-2.658,0.967-3.303c1.181-0.647,2.655-0.214,3.302,0.964
			c1.523,2.785,9.04,17,7.133,23.398C154.941,100.859,153.971,101.543,152.928,101.543z"/>
	</g>
</g>
</svg>
