<?xml version="1.0" encoding="utf-8"?>
<!-- Generator: Adobe Illustrator 16.0.0, SVG Export Plug-In . SVG Version: 6.00 Build 0)  -->
<!DOCTYPE svg PUBLIC "-//W3C//DTD SVG 1.1//EN" "http://www.w3.org/Graphics/SVG/1.1/DTD/svg11.dtd">
<svg version="1.1" id="Layer_1" xmlns="http://www.w3.org/2000/svg" xmlns:xlink="http://www.w3.org/1999/xlink" x="0px" y="0px"
	 width="500px" height="500px" viewBox="0 0 500 500" enable-background="new 0 0 500 500" xml:space="preserve">
<g id="Layer_1_copy_97">
	<g>
		<g>
			<path fill="#019547" d="M147.332,330.52c0,0-5.115,34.063,7.081,48.334c12.201,14.271,93.398-29.608,99.45-36.322
				c6.057-6.731-18.372-44.104-20.877-43.194c-2.509,0.914-54.107-13.063-54.107-13.063L147.332,330.52z"/>
			<path fill="#3C2517" d="M163.063,385.541h-0.003c-5.309,0-9.199-1.41-11.572-4.186c-13.187-15.428-8.183-49.944-7.965-51.41
				c0.09-0.596,0.321-1.168,0.672-1.663l31.552-44.246c0.933-1.312,2.588-1.9,4.141-1.479c19.491,5.283,48.387,12.715,52.561,12.971
				c0.219-0.035,0.438-0.055,0.638-0.055c1.614,0,3.621,0,10.956,11.004c4.254,6.383,8.203,13.43,10.837,19.334
				c4.338,9.736,4.927,15.865,1.851,19.293C250.431,352.087,188.046,385.541,163.063,385.541z M151.014,331.989
				c-1.307,9.7-2.442,34.108,6.322,44.362c0.812,0.946,2.897,1.486,5.725,1.486c23.649,0.004,83.919-33.415,87.948-37.889
				c0.306-0.842-0.149-6.307-7.282-19.193c-4.888-8.835-9.859-15.596-11.763-17.561c-6.874-0.604-39.946-9.398-51.504-12.514
				L151.014,331.989z"/>
		</g>
		<g>
			<path fill="#3DB54A" d="M146.374,329.736c0,0-28.146-21.826-47.232-49.729C80.056,252.115,48.34,239.41,48.34,239.41
				s-19.604-6.224-8.555-23.234c5.756-8.854,17.012-11.014,47.002,12.019c0,0-41.427-41.46-20.362-58.707
				c21.068-17.245,52.918,51.423,52.918,51.423s-49.851-70.698-18.905-82.49c30.942-11.799,53.108,71.248,53.108,71.248
				s-37.77-81.505-0.305-86.355c37.459-4.853,39.227,93.329,39.227,93.329s5.599-46.951,30.475-40.35
				c24.869,6.605,4.995,65.76,3.277,74.975c-1.718,9.215,2.899,44.359,6.767,48.068l-85.654,31.184L146.374,329.736z"/>
			<path fill="#3C2517" d="M147.332,334.369c-0.878,0-1.744-0.303-2.437-0.873l-0.96-0.783
				c-1.088-0.842-28.767-22.456-47.972-50.531c-17.718-25.896-47.094-38.383-48.965-39.16c-1.435-0.492-10.646-3.918-13.561-12.059
				c-1.85-5.163-0.8-10.844,3.122-16.883c3.447-5.304,8.267-7.994,14.326-7.994c4.777,0,10.366,1.644,17.025,5.065
				c-6.227-9.239-11.759-20.299-11.274-29.958c0.294-5.99,2.77-10.93,7.352-14.683c6.864-5.613,15.501-4.78,24.707,2.732
				c-2.758-9.946-2.942-17.954-0.544-23.923c1.991-4.963,5.664-8.492,10.917-10.491c2.436-0.93,4.931-1.4,7.403-1.4
				c9.143,0,18.012,6.245,26.498,18.615c-0.638-10.173,0.894-18.064,4.586-23.582c3.402-5.084,8.513-8.101,15.19-8.961
				c1.056-0.139,2.109-0.206,3.142-0.206c16.557,0,28.386,16.762,35.146,49.828c1.703,8.314,2.854,16.573,3.644,23.818
				c4.393-10.733,11.718-21.133,23.608-21.133c1.833,0,3.731,0.262,5.64,0.768c25.104,6.666,12.861,53.258,7.633,73.156
				c-0.753,2.844-1.341,5.095-1.556,6.244c-1.621,8.686,3.031,40.957,5.78,44.732c0.958,0.919,1.309,2.199,1.038,3.499
				c-0.277,1.301-1.272,2.295-2.52,2.748l-85.654,31.181C148.217,334.292,147.774,334.369,147.332,334.369z M50.887,213.781
				c-3.472,0-5.823,1.345-7.872,4.492c-2.535,3.905-3.322,7.292-2.342,10.072c1.486,4.191,6.888,6.767,8.843,7.402
				c0.085,0.028,0.18,0.061,0.255,0.091c1.338,0.537,33.024,13.466,52.548,41.999c16.907,24.715,41.374,44.827,45.74,48.323
				l79.661-29.002c-4.146-11.965-6.606-39.491-5.284-46.596c0.264-1.424,0.86-3.672,1.678-6.792
				c3.839-14.608,15.522-59.066-2.161-63.757c-1.266-0.339-2.502-0.508-3.666-0.508c-14.333,0-20.736,27.137-22.004,37.595
				c-0.239,2.006-1.979,3.496-4.012,3.383c-2.021-0.099-3.617-1.748-3.652-3.775c-0.457-24.956-7.22-89.721-32.729-89.721
				c-0.703,0-1.418,0.045-2.155,0.142c-4.435,0.575-7.636,2.41-9.78,5.613c-4.782,7.142-4.587,21.12,0.561,40.432
				c7.976,17.737,12.562,34.779,12.75,35.502c0.52,1.93-0.529,3.927-2.403,4.612c-1.882,0.68-3.965-0.193-4.803-2.001
				c-0.32-0.686-7.791-16.901-12.82-35.518c-10.14-22.345-21.054-34.648-30.765-34.648c-1.538,0-3.104,0.302-4.663,0.898
				c-3.205,1.223-5.339,3.237-6.518,6.167c-2.924,7.29-0.225,20.144,7.82,37.179c11.076,15.381,19.375,33.172,19.724,33.929
				c0.838,1.807,0.156,3.953-1.569,4.949c-1.722,0.998-3.918,0.516-5.068-1.115c-0.458-0.648-11.246-16.013-19.735-33.824
				c-8.806-12.088-16.837-18.745-22.645-18.745c-1.763,0-3.388,0.623-4.954,1.911c-2.865,2.344-4.354,5.325-4.539,9.105
				c-0.734,14.604,17.934,36.641,25.185,43.9c1.438,1.438,1.511,3.736,0.17,5.259c-1.338,1.526-3.627,1.751-5.234,0.513
				C69.353,219.659,58.062,213.781,50.887,213.781z"/>
		</g>
		<g>
			<line fill="none" x1="169.308" y1="322.52" x2="180.952" y2="375.667"/>
			<path fill="#3C2517" d="M180.945,379.516c-1.771,0-3.362-1.228-3.757-3.023l-11.641-53.146c-0.454-2.08,0.859-4.128,2.938-4.584
				c2.068-0.468,4.126,0.859,4.585,2.936l11.637,53.146c0.457,2.079-0.856,4.13-2.935,4.584
				C181.496,379.489,181.219,379.516,180.945,379.516z"/>
		</g>
		<g>
			<line fill="none" x1="204.985" y1="309.531" x2="221.237" y2="361.6"/>
			<path fill="#3C2517" d="M221.237,365.453c-1.642,0-3.159-1.057-3.676-2.702l-16.25-52.071c-0.633-2.029,0.497-4.191,2.527-4.82
				c2.03-0.642,4.189,0.496,4.819,2.524l16.252,52.07c0.635,2.03-0.495,4.19-2.526,4.817
				C222.004,365.395,221.615,365.453,221.237,365.453z"/>
		</g>
		<g>
			<path fill="#019547" d="M349.66,347.534c0,0,5.536,36.86-7.66,52.302c-13.204,15.443-101.065-32.029-107.618-39.307
				c-6.551-7.277,19.89-47.715,22.597-46.734c2.711,0.992,58.543-14.141,58.543-14.141L349.66,347.534z"/>
			<path fill="#3C2517" d="M332.639,406.754c-26.976,0-94.328-36.111-101.115-43.646c-3.238-3.604-2.587-10.123,2.044-20.523
				c2.843-6.375,7.107-13.984,11.705-20.883c7.847-11.771,9.925-11.771,11.596-11.771c0.211,0,0.441,0.021,0.679,0.061
				c4.13-0.215,32.241-7.344,56.964-14.049c1.547-0.42,3.209,0.166,4.146,1.48l34.14,47.878c0.351,0.495,0.578,1.063,0.672,1.666
				c0.233,1.574,5.634,38.784-8.543,55.371C342.42,405.268,338.285,406.754,332.639,406.754z M257.936,317.668
				c-2.041,2.062-7.525,9.499-12.948,19.314c-7.781,14.099-8.148,20.093-7.666,21.076c4.288,4.742,69.659,41,95.317,41
				c3.201,0,5.485-0.613,6.438-1.726c10.83-12.67,7.602-42.781,6.894-48.342l-32.029-44.925
				C301.561,307.404,265.062,317.125,257.936,317.668z"/>
		</g>
		<g>
			<path fill="#3DB54A" d="M350.692,346.691c0,0,30.462-23.616,51.112-53.811c20.649-30.184,54.971-43.929,54.971-43.929
				s21.207-6.735,9.254-25.141c-6.227-9.583-18.407-11.918-50.856,13.002c0,0,44.824-44.862,22.031-63.52
				c-22.801-18.664-57.26,55.638-57.26,55.638s53.938-76.5,20.458-89.255c-33.484-12.765-57.472,77.091-57.472,77.091
				s40.878-88.193,0.337-93.441c-40.536-5.247-42.448,100.988-42.448,100.988s-6.063-50.807-32.977-43.661
				c-26.909,7.147-5.409,71.156-3.549,81.126c1.86,9.972-3.135,48.003-7.315,52.014l92.682,33.739L350.692,346.691z"/>
			<path fill="#3C2517" d="M349.66,351.382c-0.443,0-0.892-0.075-1.316-0.231l-92.678-33.739c-1.255-0.453-2.184-1.521-2.453-2.821
				c-0.273-1.298,0.143-2.65,1.104-3.57c2.903-3.879,7.983-38.957,6.197-48.528c-0.236-1.265-0.881-3.703-1.691-6.796
				c-5.631-21.433-18.815-71.627,8.035-78.761c2.039-0.54,4.066-0.815,6.023-0.815c13.139,0,21.072,11.906,25.729,23.833
				c0.846-8.121,2.135-17.524,4.07-26.996c7.283-35.607,19.975-53.662,37.721-53.662c1.104,0,2.232,0.074,3.36,0.222
				c7.126,0.92,12.583,4.137,16.214,9.561c4.099,6.12,5.709,14.983,4.833,26.475c9.312-13.933,19.044-20.965,29.063-20.965
				c2.642,0,5.302,0.501,7.898,1.494c5.602,2.132,9.512,5.892,11.636,11.175c2.643,6.593,2.346,15.518-0.877,26.657
				c5.897-5.01,11.42-7.475,16.676-7.475c3.783,0,7.296,1.308,10.441,3.877c4.883,4,7.519,9.268,7.841,15.658
				c0.533,10.738-5.862,23.107-12.848,33.255c7.644-4.064,13.997-6.02,19.378-6.02c6.445,0,11.571,2.86,15.236,8.504
				c4.188,6.451,5.315,12.505,3.348,17.995c-3.107,8.691-12.993,12.346-14.485,12.855c-1.972,0.819-33.938,14.435-53.137,42.492
				c-20.75,30.346-50.664,53.7-51.928,54.678l-0.959,0.787C351.396,351.084,350.533,351.382,349.66,351.382z M262.297,311.636
				l86.636,31.539c4.573-3.655,31.295-25.565,49.692-52.468c21.069-30.794,55.274-44.753,56.72-45.327
				c0.086-0.036,0.178-0.07,0.267-0.096c0.066-0.023,7.766-2.588,9.754-8.2c1.102-3.106,0.233-6.865-2.563-11.181
				c-2.245-3.457-4.955-5-8.783-5c-7.833,0-20.114,6.379-36.5,18.962c-1.613,1.239-3.896,1.013-5.238-0.508
				c-1.336-1.522-1.261-3.826,0.171-5.263c0.284-0.28,28.31-28.593,27.35-47.746c-0.215-4.184-1.86-7.481-5.029-10.078
				c-1.758-1.437-3.579-2.135-5.564-2.135c-6.389,0-15.179,7.253-24.771,20.437c-9.182,19.255-20.848,35.877-21.347,36.58
				c-1.146,1.63-3.343,2.109-5.067,1.115c-1.727-0.999-2.404-3.142-1.565-4.954c0.377-0.812,9.352-20.059,21.328-36.683
				c8.748-18.525,11.682-32.531,8.48-40.506c-1.31-3.254-3.673-5.493-7.23-6.852c-1.722-0.656-3.457-0.986-5.159-0.986
				c-10.64,0-22.557,13.382-33.584,37.693c-5.434,20.128-13.52,37.667-13.863,38.406c-0.839,1.813-2.927,2.683-4.802,2.001
				c-1.878-0.68-2.924-2.682-2.407-4.61c0.204-0.78,5.17-19.215,13.795-38.395c5.6-21,5.797-36.219,0.572-44.022
				c-2.377-3.548-5.91-5.578-10.806-6.212c-0.805-0.103-1.604-0.158-2.377-0.158c-27.876,0-35.242,70.307-35.731,97.394
				c-0.037,2.027-1.632,3.672-3.654,3.774c-2.016,0.108-3.772-1.374-4.015-3.383c-1.373-11.393-8.378-40.958-24.118-40.958
				c-1.289,0-2.65,0.188-4.053,0.561c-19.426,5.159-7.172,51.803-2.561,69.364c0.885,3.365,1.523,5.802,1.808,7.341
				C269.523,268.811,266.828,298.982,262.297,311.636z"/>
		</g>
		<g>
			<line fill="none" x1="325.879" y1="338.882" x2="313.289" y2="396.389"/>
			<path fill="#3C2517" d="M313.289,400.234c-0.271,0-0.551-0.027-0.825-0.09c-2.075-0.455-3.392-2.506-2.938-4.58l12.594-57.506
				c0.457-2.074,2.488-3.402,4.584-2.936c2.075,0.454,3.392,2.509,2.934,4.583l-12.594,57.507
				C316.653,399.011,315.059,400.234,313.289,400.234z"/>
		</g>
		<g>
			<line fill="none" x1="287.273" y1="324.825" x2="269.693" y2="381.167"/>
			<path fill="#3C2517" d="M269.693,385.018c-0.381,0-0.766-0.053-1.15-0.177c-2.025-0.631-3.159-2.793-2.521-4.819l17.58-56.346
				c0.631-2.021,2.774-3.162,4.821-2.521c2.027,0.631,3.16,2.789,2.522,4.82l-17.579,56.34
				C272.854,383.961,271.332,385.018,269.693,385.018z"/>
		</g>
	</g>
</g>
</svg>
