<?xml version="1.0" encoding="utf-8"?>
<!-- Generator: Adobe Illustrator 16.0.0, SVG Export Plug-In . SVG Version: 6.00 Build 0)  -->
<!DOCTYPE svg PUBLIC "-//W3C//DTD SVG 1.1//EN" "http://www.w3.org/Graphics/SVG/1.1/DTD/svg11.dtd">
<svg version="1.1" id="Layer_1" xmlns="http://www.w3.org/2000/svg" xmlns:xlink="http://www.w3.org/1999/xlink" x="0px" y="0px"
	 width="500px" height="500px" viewBox="0 0 500 500" enable-background="new 0 0 500 500" xml:space="preserve">
<g id="Layer_1_copy_64">
	<g>
		<g>
			<path fill="#E0F0E1" d="M222.107,35.342c0-2.567,2.102-4.667,4.666-4.667h56.014c2.562,0,4.662,2.099,4.662,4.667v77.793
				c0,2.564,2.1,4.663,4.666,4.663h77.794c2.566,0,4.666,2.101,4.666,4.667v56.012c0,2.566-2.1,4.665-4.666,4.665h-77.11
				c-2.566,0-4.67,2.099-4.678,4.667l-0.704,186.696c0.019,2.567-2.065,4.671-4.63,4.671h-56.014c-2.564,0-4.666-2.104-4.666-4.671
				V187.807c0-2.568-2.097-4.634-4.663-4.595l-77.794-0.733c-2.566-0.011-4.709-2.117-4.759-4.682l0.751-55.333
				c0.011-2.565,2.121-4.667,4.688-4.667h77.114c2.566,0,4.663-2.099,4.663-4.663V35.342L222.107,35.342z"/>
		</g>
		<g>
			<path fill="#27140E" d="M282.787,382.671h-56.014c-4.503,0-8.164-3.67-8.164-8.168V187.807c0-0.606-0.493-1.096-1.094-1.096
				l-77.9-0.733c-4.434-0.02-8.132-3.656-8.225-8.112l0.752-55.45c0.021-4.46,3.696-8.115,8.188-8.115h77.114
				c0.632,0,1.165-0.535,1.165-1.166V35.342c0-4.503,3.661-8.165,8.164-8.165h56.014c4.498,0,8.158,3.662,8.158,8.165v77.793
				c0,0.631,0.537,1.166,1.17,1.166h77.794c4.502,0,8.163,3.663,8.163,8.163v56.012c0,4.502-3.661,8.164-8.163,8.164h-77.11
				c-0.637,0-1.18,0.536-1.18,1.173l-0.701,186.707c0.018,2.139-0.825,4.189-2.363,5.742
				C287.014,381.814,284.965,382.671,282.787,382.671z M140.33,121.298c-0.643,0-1.187,0.542-1.187,1.182l-0.752,55.364
				c0.008,0.547,0.608,1.134,1.274,1.136l77.81,0.735c4.503,0,8.132,3.629,8.132,8.092v186.696c0,0.629,0.533,1.167,1.166,1.167
				h56.014c0.406,0,0.679-0.215,0.801-0.338c0.125-0.127,0.336-0.4,0.333-0.809l0.7-186.729c0.011-4.493,3.676-8.153,8.178-8.153
				h77.11c0.633,0,1.17-0.532,1.17-1.166v-56.012c0-0.631-0.537-1.166-1.17-1.166h-77.794c-4.501,0-8.166-3.663-8.166-8.163V35.342
				c0-0.633-0.529-1.167-1.162-1.167h-56.014c-0.633,0-1.166,0.534-1.166,1.167v77.793c0,4.5-3.665,8.163-8.163,8.163H140.33z"/>
		</g>
	</g>
	<g>
		<g>
			<path fill="#989898" d="M333.401,418.799c0,2.569-2.101,4.671-4.663,4.671h-148.03c-2.568,0-4.663-2.102-4.663-4.671v-52.033
				c0-2.566,2.095-4.668,4.663-4.668h148.03c2.562,0,4.663,2.102,4.663,4.668V418.799z"/>
		</g>
		<g>
			<path fill="#27140E" d="M328.738,426.966h-148.03c-4.499,0-8.164-3.66-8.164-8.167v-52.033c0-4.506,3.665-8.166,8.164-8.166
				h148.03c4.498,0,8.164,3.66,8.164,8.166v52.033C336.902,423.306,333.236,426.966,328.738,426.966z M180.708,365.6
				c-0.633,0-1.166,0.53-1.166,1.166v52.033c0,0.639,0.533,1.174,1.166,1.174h148.03c0.633,0,1.166-0.535,1.166-1.174v-52.033
				c0-0.636-0.533-1.166-1.166-1.166H180.708z"/>
		</g>
	</g>
	<g>
		<g>
			<path fill="#4E4E4E" d="M381.395,462.109c0,2.561-2.099,4.664-4.662,4.664H132.714c-2.567,0-4.666-2.104-4.666-4.664v-45.281
				c0-2.569,2.099-4.671,4.666-4.671h244.019c2.563,0,4.662,2.102,4.662,4.671V462.109z"/>
		</g>
		<g>
			<path fill="#27140E" d="M376.731,470.27H132.714c-4.501,0-8.167-3.662-8.167-8.16v-45.281c0-4.508,3.666-8.168,8.167-8.168
				h244.019c4.502,0,8.162,3.66,8.162,8.168v45.281C384.895,466.607,381.233,470.27,376.731,470.27z M132.714,415.66
				c-0.633,0-1.166,0.529-1.166,1.168v45.281c0,0.629,0.533,1.165,1.166,1.165h244.019c0.633,0,1.165-0.536,1.165-1.165v-45.281
				c0-0.639-0.532-1.168-1.165-1.168H132.714z"/>
		</g>
	</g>
</g>
</svg>
