<?xml version="1.0" encoding="utf-8"?>
<!-- Generator: Adobe Illustrator 16.0.0, SVG Export Plug-In . SVG Version: 6.00 Build 0)  -->
<!DOCTYPE svg PUBLIC "-//W3C//DTD SVG 1.1//EN" "http://www.w3.org/Graphics/SVG/1.1/DTD/svg11.dtd">
<svg version="1.1" id="Layer_1" xmlns="http://www.w3.org/2000/svg" xmlns:xlink="http://www.w3.org/1999/xlink" x="0px" y="0px"
	 width="500px" height="500px" viewBox="0 0 500 500" enable-background="new 0 0 500 500" xml:space="preserve">
<g id="Layer_1_copy_57">
	<g>
		<g>
			<defs>
				<rect id="SVGID_1_" x="-46.957" y="13.388" width="621.777" height="271.814"/>
			</defs>
			<clipPath id="SVGID_2_">
				<use xlink:href="#SVGID_1_"  overflow="visible"/>
			</clipPath>
			<g clip-path="url(#SVGID_2_)">
				<path fill="#FAA625" d="M370.364,283.507c0,66.587-53.985,120.575-120.577,120.575c-66.588,0-120.572-53.988-120.572-120.575
					c0-66.591,53.984-120.571,120.572-120.571C316.379,162.937,370.364,216.917,370.364,283.507z"/>
				<path fill="#2C2010" d="M249.787,407.465c-68.353,0-123.959-55.611-123.959-123.958c0-68.352,55.606-123.957,123.959-123.957
					c68.354,0,123.96,55.605,123.96,123.957C373.747,351.854,318.141,407.465,249.787,407.465z M249.787,166.321
					c-64.615,0-117.185,52.568-117.185,117.186c0,64.616,52.569,117.187,117.185,117.187c64.62,0,117.188-52.569,117.188-117.187
					C366.976,218.889,314.407,166.321,249.787,166.321z"/>
			</g>
		</g>
		<g>
			<defs>
				<rect id="SVGID_3_" x="-46.957" y="13.388" width="621.777" height="271.814"/>
			</defs>
			<clipPath id="SVGID_4_">
				<use xlink:href="#SVGID_3_"  overflow="visible"/>
			</clipPath>
			<g clip-path="url(#SVGID_4_)">
				<path fill="#2C2010" d="M166.091,290.115c-1.872,0-3.388-1.521-3.388-3.391c0-48.93,39.816-88.741,88.752-88.741
					c1.869,0,3.384,1.516,3.384,3.384c0,1.871-1.515,3.387-3.384,3.387c-45.203,0-81.978,36.769-81.978,81.968
					C169.478,288.593,167.958,290.115,166.091,290.115z"/>
			</g>
		</g>
		<g>
			<defs>
				<rect id="SVGID_5_" x="-46.957" y="13.388" width="621.777" height="271.814"/>
			</defs>
			<clipPath id="SVGID_6_">
				<use xlink:href="#SVGID_5_"  overflow="visible"/>
			</clipPath>
			<g clip-path="url(#SVGID_6_)">
				<polygon fill="#FDD71E" points="335.423,163.831 369.083,197.107 390.507,145.469 				"/>
				<path fill="#2C2010" d="M369.083,200.493c-0.882,0-1.74-0.345-2.38-0.978l-33.661-33.277c-0.841-0.827-1.188-2.029-0.916-3.175
					c0.266-1.148,1.11-2.074,2.224-2.444l55.085-18.361c1.256-0.422,2.644-0.067,3.547,0.905c0.902,0.969,1.158,2.379,0.649,3.604
					l-21.42,51.64c-0.433,1.04-1.353,1.797-2.457,2.021C369.529,200.471,369.309,200.493,369.083,200.493z M341.723,165.297
					l26.16,25.866l16.652-40.136L341.723,165.297z"/>
			</g>
		</g>
		<g>
			<defs>
				<rect id="SVGID_7_" x="-46.957" y="13.388" width="621.777" height="271.814"/>
			</defs>
			<clipPath id="SVGID_8_">
				<use xlink:href="#SVGID_7_"  overflow="visible"/>
			</clipPath>
			<g clip-path="url(#SVGID_8_)">
				<polygon fill="#FDD71E" points="393.866,258.208 394.371,305.532 445.923,283.917 				"/>
				<path fill="#2C2010" d="M394.371,308.916c-0.654,0-1.297-0.186-1.861-0.553c-0.939-0.616-1.509-1.66-1.521-2.797l-0.505-47.323
					c-0.015-1.177,0.589-2.275,1.581-2.898c0.995-0.63,2.248-0.692,3.305-0.173l52.054,25.713c1.189,0.582,1.927,1.812,1.885,3.135
					c-0.038,1.328-0.851,2.506-2.075,3.024l-51.553,21.615C395.261,308.833,394.812,308.916,394.371,308.916z M397.312,263.682
					l0.392,36.785l40.063-16.801L397.312,263.682z"/>
			</g>
		</g>
		<g>
			<defs>
				<rect id="SVGID_9_" x="-46.957" y="13.388" width="621.777" height="271.814"/>
			</defs>
			<clipPath id="SVGID_10_">
				<use xlink:href="#SVGID_9_"  overflow="visible"/>
			</clipPath>
			<g clip-path="url(#SVGID_10_)">
				<polygon fill="#FDD71E" points="368.419,370.521 335.072,404.118 386.67,425.644 				"/>
				<path fill="#2C2010" d="M386.67,429.029c-0.443,0-0.886-0.083-1.305-0.265l-51.594-21.521c-1.041-0.436-1.799-1.362-2.021-2.462
					c-0.218-1.108,0.124-2.251,0.919-3.054l33.344-33.596c0.833-0.829,2.027-1.183,3.181-0.906c1.145,0.264,2.067,1.106,2.438,2.229
					l18.246,55.123c0.419,1.259,0.062,2.645-0.91,3.551C388.333,428.716,387.503,429.029,386.67,429.029z M341.021,402.934
					l40.099,16.725l-14.183-42.84L341.021,402.934z"/>
			</g>
		</g>
		<g>
			<defs>
				<rect id="SVGID_11_" x="-46.957" y="13.388" width="621.777" height="271.814"/>
			</defs>
			<clipPath id="SVGID_12_">
				<use xlink:href="#SVGID_11_"  overflow="visible"/>
			</clipPath>
			<g clip-path="url(#SVGID_12_)">
				<polygon fill="#FDD71E" points="273.927,428.779 226.586,429.188 248.103,480.788 				"/>
				<path fill="#2C2010" d="M248.105,484.171c-0.041,0-0.075,0-0.117,0c-1.321-0.042-2.498-0.858-3.01-2.075l-21.514-51.607
					c-0.437-1.038-0.325-2.229,0.297-3.163c0.623-0.939,1.668-1.516,2.796-1.521l47.341-0.407c1.197-0.11,2.276,0.594,2.899,1.592
					c0.626,0.996,0.685,2.248,0.163,3.3l-25.824,52.009C250.562,483.453,249.386,484.171,248.105,484.171z M231.651,432.53
					l16.718,40.104l20.076-40.425L231.651,432.53z"/>
			</g>
		</g>
		<g>
			<defs>
				<rect id="SVGID_13_" x="-46.957" y="13.388" width="621.777" height="271.814"/>
			</defs>
			<clipPath id="SVGID_14_">
				<use xlink:href="#SVGID_13_"  overflow="visible"/>
			</clipPath>
			<g clip-path="url(#SVGID_14_)">
				<polygon fill="#FDD71E" points="275.881,140.077 228.579,138.996 250.826,87.71 				"/>
				<path fill="#2C2010" d="M275.881,143.462c-0.023,0-0.048,0-0.074-0.002l-47.304-1.081c-1.128-0.024-2.17-0.609-2.775-1.559
					c-0.609-0.95-0.706-2.137-0.256-3.172l22.25-51.285c0.53-1.219,1.72-2.012,3.042-2.037c1.324-0.073,2.547,0.727,3.116,1.922
					l24.839,51.912c0.377,0.545,0.596,1.206,0.596,1.917c0,1.872-1.517,3.385-3.385,3.385
					C275.92,143.462,275.906,143.464,275.881,143.462z M233.686,135.726l36.768,0.841l-19.476-40.698L233.686,135.726z"/>
			</g>
		</g>
		<g>
			<defs>
				<rect id="SVGID_15_" x="-46.957" y="13.388" width="621.777" height="271.814"/>
			</defs>
			<clipPath id="SVGID_16_">
				<use xlink:href="#SVGID_15_"  overflow="visible"/>
			</clipPath>
			<g clip-path="url(#SVGID_16_)">
				<polygon fill="#FDD71E" points="167.416,163.64 133.038,196.17 112.753,144.077 				"/>
				<path fill="#2C2010" d="M133.038,199.555c-0.249,0-0.498-0.027-0.744-0.083c-1.1-0.247-2.003-1.024-2.411-2.074l-20.284-52.093
					c-0.481-1.235-0.198-2.638,0.729-3.587c0.921-0.95,2.315-1.277,3.564-0.827l54.666,19.562c1.107,0.396,1.93,1.339,2.169,2.49
					c0.242,1.152-0.132,2.347-0.985,3.155l-34.378,32.531C134.727,199.23,133.889,199.555,133.038,199.555z M118.604,149.765
					l15.764,40.487l26.717-25.283L118.604,149.765z"/>
			</g>
		</g>
		<g>
			<defs>
				<rect id="SVGID_17_" x="-46.957" y="13.388" width="621.777" height="271.814"/>
			</defs>
			<clipPath id="SVGID_18_">
				<use xlink:href="#SVGID_17_"  overflow="visible"/>
			</clipPath>
			<g clip-path="url(#SVGID_18_)">
				<polygon fill="#FDD71E" points="104.342,259.995 103.37,307.311 52.033,285.174 				"/>
				<path fill="#2C2010" d="M103.37,310.695c-0.453,0-0.91-0.09-1.339-0.277l-51.338-22.137c-1.218-0.52-2.02-1.708-2.048-3.037
					c-0.027-1.327,0.723-2.54,1.917-3.121l52.312-25.182c1.059-0.512,2.312-0.428,3.301,0.209c0.99,0.636,1.577,1.736,1.554,2.918
					l-0.972,47.312c-0.028,1.128-0.609,2.167-1.558,2.782C104.647,310.516,104.011,310.695,103.37,310.695z M60.188,285.008
					l39.903,17.196l0.757-36.772L60.188,285.008z"/>
			</g>
		</g>
		<g>
			<defs>
				<rect id="SVGID_19_" x="-46.957" y="13.388" width="621.777" height="271.814"/>
			</defs>
			<clipPath id="SVGID_20_">
				<use xlink:href="#SVGID_19_"  overflow="visible"/>
			</clipPath>
			<g clip-path="url(#SVGID_20_)">
				<polygon fill="#FDD71E" points="128.118,368.412 160.721,402.734 108.667,423.133 				"/>
				<path fill="#2C2010" d="M108.667,426.517c-0.864,0-1.716-0.334-2.356-0.954c-0.951-0.922-1.276-2.318-0.833-3.57l19.45-54.717
					c0.396-1.104,1.336-1.928,2.485-2.172c1.151-0.242,2.349,0.125,3.162,0.978l32.599,34.319c0.778,0.816,1.1,1.968,0.851,3.066
					c-0.242,1.106-1.018,2.008-2.068,2.422l-52.058,20.393C109.497,426.44,109.083,426.517,108.667,426.517z M129.461,374.744
					l-15.12,42.529l40.46-15.854L129.461,374.744z"/>
			</g>
		</g>
	</g>
	<g>
		<path fill="#4C230D" d="M464.796,294.585c0,5.175-5.64,9.375-12.59,9.375H47.448c-6.954,0-12.593-4.2-12.593-9.375l0,0
			c0-5.185,5.639-9.384,12.593-9.384h404.758C459.156,285.202,464.796,289.402,464.796,294.585L464.796,294.585z"/>
		<path fill="#2C2010" d="M452.206,307.354H47.448c-8.809,0-15.978-5.729-15.978-12.769c0-7.044,7.169-12.772,15.978-12.772h404.758
			c8.809,0,15.974,5.729,15.974,12.772C468.18,301.624,461.015,307.354,452.206,307.354z M47.448,288.585
			c-4.988,0-9.206,2.748-9.206,6c0,3.246,4.218,5.992,9.206,5.992h404.758c4.989,0,9.204-2.746,9.204-5.992c0-3.252-4.215-6-9.204-6
			H47.448z"/>
	</g>
	<g>
		<g>
			<path fill="#2C2010" d="M209.051,375.305c-1.716,0-3.428-0.65-4.746-1.945c-2.665-2.623-2.702-6.912-0.077-9.576l35.402-35.989
				c2.623-2.665,6.905-2.698,9.576-0.077l35.985,35.401c2.664,2.623,2.703,6.913,0.08,9.569c-2.623,2.68-6.91,2.705-9.578,0.082
				l-31.161-30.652l-30.65,31.16C212.553,374.625,210.802,375.305,209.051,375.305z"/>
		</g>
		<g>
			<path fill="#2C2010" d="M244.751,441.63c-3.744,0-6.775-3.024-6.775-6.77v-98.736c0-3.743,3.031-6.774,6.775-6.774
				c3.735,0,6.767,3.031,6.767,6.774v98.736C251.518,438.605,248.486,441.63,244.751,441.63z"/>
		</g>
	</g>
</g>
</svg>
