<?xml version="1.0" encoding="utf-8"?>
<!-- Generator: Adobe Illustrator 16.0.0, SVG Export Plug-In . SVG Version: 6.00 Build 0)  -->
<!DOCTYPE svg PUBLIC "-//W3C//DTD SVG 1.1//EN" "http://www.w3.org/Graphics/SVG/1.1/DTD/svg11.dtd">
<svg version="1.1" id="Layer_1" xmlns="http://www.w3.org/2000/svg" xmlns:xlink="http://www.w3.org/1999/xlink" x="0px" y="0px"
	 width="500px" height="500px" viewBox="0 0 500 500" enable-background="new 0 0 500 500" xml:space="preserve">
<g id="Layer_1_copy_86">
	<g>
		<path fill="#FCC495" d="M204.837,217.228c0,0,1.652,19.298-9.571,25.425c-11.225,6.124-17.833,81.023-17.833,81.023L312.5,346.459
			l-14.735-82.193l-16.188-25.226c0,0-5.349-8.107-2.336-21.812C282.252,203.527,204.736,206.222,204.837,217.228z"/>
		<path fill="#28180E" d="M316.18,350.104l-141.961-23.942l0.24-2.746c1.127-12.771,7.359-76.824,19.379-83.381
			c9.367-5.111,8.044-22.379,8.028-22.555l-0.011-0.224c-0.011-1.069,0.307-2.675,1.872-4.259
			c6.292-6.348,29.658-8.041,42.474-8.041c10.695,0,29.423,0.96,34.604,7.409c1.315,1.632,1.778,3.534,1.35,5.507
			c-2.676,12.161,1.736,19.245,1.925,19.544l16.513,25.743L316.18,350.104z M180.648,321.195l128.165,21.613l-13.881-77.433
			l-15.867-24.726c-0.226-0.344-5.981-9.299-2.738-24.065c0.025-0.124,0.049-0.213-0.168-0.486
			c-2.012-2.496-12.24-5.182-29.957-5.182c-21.2,0-36.705,3.762-38.367,6.408c0.19,2.885,0.889,21.378-11.137,27.947
			C191.966,247.854,184.748,276.852,180.648,321.195z"/>
	</g>
	<g>
		<g>
			<path fill="#FFFFFF" d="M192.882,246.576c0,0,1.64,33.843,42.525,30.765c40.893-3.075,47.438-9.998,49.071-30.765
				c0,0-3.271-6.919,49.889,4.613c53.159,11.535,70.331,25.385,78.513,121.518c4.088,27.682-40.074,20.758-40.074,20.758
				l-264.979,1.659c0,0-37.619,8.347-29.441-30.88C86.561,325.021,81.629,247.547,192.882,246.576z"/>
		</g>
		<g>
			<path fill="#281912" d="M99.988,398.848c-6.414,0-15.226-1.431-20.772-8.248c-4.951-6.092-6.211-15.162-3.747-26.966
				c1.03-4.938,1.859-10.579,2.737-16.555c6.016-40.863,15.106-102.618,114.649-103.485l2.869-0.026l0.139,2.862
				c0.061,1.14,1.894,28.126,34.429,28.126c1.576,0,3.221-0.067,4.891-0.195c40.471-3.041,44.827-9.644,46.295-27.65
				c-0.07-0.725,0.062-1.565,0.576-2.369c1.243-1.969,3.996-2.805,9.19-2.805c8.417,0,23.138,2.268,43.754,6.74
				c56.35,12.229,72.759,29.061,80.852,124.177c0.938,6.288-0.392,11.668-3.968,15.808c-10.441,12.109-36.428,8.602-39.29,8.19
				l-264.452,1.653C107.132,398.303,103.975,398.848,99.988,398.848z M190.191,249.595C98.304,251.471,90.11,307.174,84.109,347.95
				c-0.893,6.063-1.737,11.788-2.802,16.903c-2.078,9.955-1.223,17.354,2.54,21.979c4.065,5.002,11.022,6.054,16.141,6.054
				c4.072,0,7.166-0.67,7.196-0.678l0.623-0.066l265.219-1.662l0.241,0.037c0.047,0.006,4.779,0.735,10.841,0.735
				c11.167,0,19.424-2.448,23.261-6.887c2.426-2.81,3.259-6.481,2.56-11.228c-8.205-96.346-25.332-107.998-76.195-119.031
				c-34.448-7.477-43.911-6.826-46.362-6.318c-1.913,21.604-10.039,29.385-51.739,32.523c-1.819,0.136-3.613,0.205-5.339,0.205
				C202.005,280.52,192.011,261.693,190.191,249.595z"/>
		</g>
	</g>
	<g>
		<g>
			<path fill="#A36427" d="M116.319,268.273l24.805,127.598l207.763-2.253l25.396-128.614c0,0-19.852-15.282-54.828-16.858
				l-44.158,64.118c0,0-13.478,25.104-30.11,22.506c-16.633-2.597-20.96-1.729-33.08-22.506l-43.214-64.118
				C168.891,248.145,129.549,254.803,116.319,268.273z"/>
		</g>
		<g>
			<path fill="#291911" d="M138.67,398.878L113.091,267.3l1.099-1.12c13.749-13.998,52.561-20.695,54.205-20.976l1.895-0.321
				l44.288,65.717c10.608,18.168,14.202,18.702,27.562,20.694c1.105,0.164,2.271,0.336,3.504,0.526
				c0.65,0.104,1.312,0.156,1.97,0.156c11.253,0,21.902-15.248,25.056-21.123l0.172-0.281l45.096-65.48l1.65,0.075
				c35.509,1.596,55.674,16.828,56.514,17.476l1.466,1.127l-26.225,132.805L138.67,398.878z M119.56,269.303l24.015,123.557
				l202.854-2.196l24.548-124.317c-5.036-3.305-22.683-13.537-50.01-15.132l-43.123,62.615
				c-1.229,2.241-13.662,24.114-30.229,24.114c-0.96,0-1.935-0.076-2.888-0.221c-1.219-0.195-2.373-0.367-3.468-0.527
				c-14.396-2.146-19.779-2.947-31.728-23.428l-42.021-62.33C159.891,252.895,131.201,258.947,119.56,269.303z"/>
		</g>
	</g>
	<g>
		<g>
			<path fill="#FCC394" d="M316.027,128.441c-0.874,0-1.721,0.216-2.537,0.534c-3.185-18.573-1.961-42.417-13.417-54.833
				c-13.581-14.721-41.185-16.357-61.202-16.357c-15.031,0-49.659-0.691-61.438,8.07c-17.915,13.32-10.077,40.919-13.607,66.362
				c-1.397-1.062-2.94-1.707-4.592-1.707c-5.938,0-10.749,7.729-10.749,17.265c0,9.531,4.812,17.261,10.749,17.261
				c1.774,0,3.43-0.755,4.905-1.983c6.685,41,37.579,72.019,74.732,72.019c37.309,0,68.29-31.287,74.794-72.553
				c0.767,0.276,1.551,0.445,2.362,0.445c5.938,0,10.752-7.727,10.752-17.258C326.779,136.171,321.967,128.441,316.027,128.441z"/>
		</g>
		<g>
			<path fill="#291911" d="M238.871,238.058c-36.758,0-68.549-29.378-76.93-70.432c-0.881,0.262-1.786,0.396-2.708,0.396
				c-7.7,0-13.734-8.892-13.734-20.247s6.034-20.247,13.734-20.247c0.71,0,1.412,0.079,2.104,0.235
				c0.591-6.321,0.604-12.774,0.616-19.051c0.034-18.061,0.071-35.116,13.697-45.249c10.338-7.689,35.416-8.675,56.11-8.675
				l7.11,0.011c22.075,0,49.231,1.969,63.396,17.321c9.116,9.875,10.724,25.742,12.28,41.087c0.435,4.274,0.849,8.354,1.413,12.251
				c0.021,0,0.044,0,0.067,0c7.704,0,13.737,8.892,13.737,20.246c0,11.313-5.992,20.179-13.661,20.243
				C308.259,207.91,276.188,238.058,238.871,238.058z M166.243,157.412l0.84,5.16c6.567,40.284,36.76,69.52,71.788,69.52
				c35.23,0,65.454-29.453,71.85-70.031l0.564-3.564l3.393,1.218c0.501,0.18,0.941,0.269,1.351,0.269
				c3.676,0,7.771-5.866,7.771-14.276c0-8.417-4.095-14.284-7.771-14.284c-0.408,0-0.888,0.108-1.45,0.329l-3.407,1.333l-0.62-3.605
				c-0.854-4.991-1.404-10.42-1.938-15.666c-1.457-14.374-2.966-29.236-10.73-37.646c-12.733-13.806-39.778-15.401-59.009-15.401
				l-7.11-0.011c-11.616,0-42.47,0-52.55,7.495c-11.23,8.35-11.261,23.235-11.291,40.471c-0.015,7.827-0.029,15.92-1.14,23.908
				l-0.702,5.055l-4.062-3.094c-0.956-0.725-1.89-1.095-2.783-1.095c-3.676,0-7.768,5.862-7.768,14.28
				c0,8.414,4.092,14.276,7.768,14.276c0.956,0,1.965-0.43,2.993-1.289L166.243,157.412z"/>
		</g>
	</g>
	<g>
		<path fill="#110D0A" d="M211.47,142.359c0,5.783-3.747,10.476-8.373,10.476c-4.629,0-8.373-4.692-8.373-10.476
			c0-5.784,3.744-10.477,8.373-10.477C207.723,131.882,211.47,136.575,211.47,142.359z"/>
	</g>
	<g>
		<path fill="#FFFFFA" d="M204.826,142.362c0,2.014-1.513,3.647-3.374,3.647c-1.871,0-3.385-1.633-3.385-3.647
			c0-2.018,1.514-3.646,3.385-3.646C203.313,138.716,204.826,140.344,204.826,142.362z"/>
	</g>
	<g>
		<ellipse fill="#110D0A" cx="271.34" cy="142.359" rx="8.375" ry="10.476"/>
	</g>
	<g>
		<path fill="#FFFFFA" d="M273.072,142.362c0,2.014-1.514,3.647-3.379,3.647c-1.867,0-3.377-1.633-3.377-3.647
			c0-2.018,1.51-3.646,3.377-3.646C271.559,138.716,273.072,140.344,273.072,142.362z"/>
	</g>
	<g>
		<path fill="#844A1F" d="M228.013,164.32c0,0,11.041,1.64,12.558-4.524c1.524-6.158,0-18.218,0-18.218s6.852,9.184,3.426,20.276
			C240.571,172.946,222.745,164.226,228.013,164.32z"/>
	</g>
	<g opacity="0.7">
		<g>
			<path fill="#F9A780" d="M204.826,165.362c0,3.744-4.73,6.778-10.569,6.778c-5.837,0-10.57-3.034-10.57-6.778
				c0-3.747,4.733-6.777,10.57-6.777C200.096,158.584,204.826,161.615,204.826,165.362z"/>
		</g>
	</g>
	<g opacity="0.7">
		<g>
			<path fill="#F9A780" d="M296.251,164.626c0,3.747-4.733,6.781-10.573,6.781c-5.836,0-10.568-3.034-10.568-6.781
				c0-3.74,4.732-6.778,10.568-6.778C291.518,157.849,296.251,160.886,296.251,164.626z"/>
		</g>
	</g>
	<g>
		<path fill="#FFFFFD" d="M215.821,191.329c0,0,4.951,19.312,22.451,18.491c17.509-0.826,24.096-18.491,24.096-18.491
			s-7.729,9.258-24.096,9.258C221.464,200.587,215.821,191.329,215.821,191.329z"/>
	</g>
	<g>
		<path fill="#A9A8A8" d="M191.08,130.343c0,0,3.812-5.343,11.041-4.73c7.233,0.616,7.995,2.059,8.373-1.846
			c0.377-3.908-3.046-4.727-8.373-4.11C196.793,120.274,186.519,131.58,191.08,130.343z"/>
	</g>
	<g>
		<path fill="#A9A8A8" d="M284.254,130.343c0,0-3.803-5.343-11.031-4.73c-7.234,0.616-7.996,2.059-8.379-1.846
			c-0.376-3.908,3.047-4.727,8.379-4.11C278.549,120.274,288.823,131.58,284.254,130.343z"/>
	</g>
	<g>
		<path fill="#A9A8A8" d="M210.226,214.25c3.601,7.29,10.281,10.11,17.392,12.042c1.794,0.49,4.917,0.329,5.701-0.781
			c1.061-1.479,0.448-4.155,0.056-6.415c1.118-2.466,3.39-3.497,6.271-2.738c2.051,0.538,3.189,1.591,2.118,4.08
			c-1.887,4.386,0.194,7.065,5.077,6.467c6.104-0.748,11.751-2.556,15.813-7.678c1.545-1.95,3.4-3.65,5.117-5.462
			c0.48,0.079,0.963,0.149,1.444,0.228c0,3.684,0.579,7.483-0.118,11.029c-1.697,8.639-5.908,15.961-14.244,19.72
			c-5.604,2.525-11.728,4.304-17.966,2.925c-6.304-1.386-12.834-2.713-18.539-5.537c-3.408-1.681-6.692-5.829-7.752-9.52
			c-1.645-5.702-1.331-11.953-1.851-17.975C209.242,214.504,209.732,214.381,210.226,214.25z"/>
	</g>
	<g>
		<path fill="#A9A8A8" d="M192.594,180.18c17.44,0.829,31.772-12.86,47.199-1.812c15.518-10.525,29.477,1.804,45.803,2.369
			c-10.238,9.987-21.469,12.916-32.891,9.512c-9.306-2.776-17.205-2.328-26.419,0.112
			C214.585,193.481,203.361,190.287,192.594,180.18z"/>
	</g>
	<g>
		<g>
			<path fill="#A5A5A5" d="M227.042,23.753c4.469-4.144,8.851-2.418,14.451,0.071c4.801,2.125,9.067,5.533,13.454,6.99
				c5.396,1.79,9.691,3.658,13.457,7.835c1.154,1.281,4.246,0.605,6.117,1.502c2.588,1.244,9.492,3.235,10.752,2.87
				c1.879-0.542,14.25,5.197,19.113,7.005c0.953,0.351,2.078,1.393,2.311,2.32c1.158,4.596,2.041,9.254,3.021,13.896
				c-0.385,0.082,8.258,15.019,8.229,22.857c-0.049,11.029-1.97,22.145-3.973,33.058c-1.476,8.07-4.308,15.894-6.646,23.789
				c-0.578,1.965-5.413-20.908-6.456-34.142c-0.604-7.723-1.079-15.483-2.282-23.12c-0.373-2.38-2.966-4.401-4.521-6.605
				c-0.623-0.885-1.207-1.793-1.771-2.712c-1.76-2.922-9.903-6.497-10.958-7.226c-6.849-4.753-13.824-7.174-22.352-3.879
				c-5.346,2.062-11.251,3.012-17.002,3.564c-4.349,0.418-8.839-0.586-13.443-0.968c0.02-0.09-6.777-2.021-9.291-2.234
				c-9.445,1.768-26.658,6.075-26.273,7.652c-2.002,0.561-3.949,1.401-5.967,1.614c-6.486,0.688-10.917,4.158-11.717,10.656
				c-1.054,8.485-1.405,17.056-2.069,25.593c-0.534,6.919-1.02,13.846-1.655,20.75c-0.508,5.474-5.533,9.352-6.814,5.537
				c-1.753-5.22-3.553-10.458-4.778-15.815c-1.114-4.873-1.56-9.898-2.171-14.867c-0.609-4.958-1.249-9.923-1.529-14.904
				c-0.205-3.669-0.036-7.39,0.292-11.06c0.512-5.765,0.754-11.709,6.482-15.393c0.471-0.302,0.381-2.104,0.019-2.974
				c-1.712-4.046-1.957-7.48,0.848-11.586c2.418-3.526,2.777-8.395,4.675-12.374c3.508-7.364,8.316-13.521,17.168-14.904
				c0.736-0.116,1.793-0.437,2.07-0.982c2.671-5.265,7.05-6.124,12.313-5.153C200.474,20.484,223.611,22.176,227.042,23.753z"/>
		</g>
		<g>
			<path fill="#291911" d="M307.221,149.046c-2.565,0-3.285-0.58-6.046-14.78c-1.605-8.257-2.832-16.563-3.275-22.23l-0.275-3.621
				c-0.481-6.363-0.983-12.938-1.978-19.264c-0.119-0.762-1.174-1.958-2.104-3.016c-0.648-0.735-1.318-1.498-1.912-2.339
				c-0.662-0.938-1.277-1.898-1.872-2.877c-0.927-1.532-6.295-4.289-8.062-5.197c-1.144-0.587-1.662-0.859-2.054-1.125
				c-7.36-5.111-13.015-6.09-19.574-3.557c-6.309,2.436-13.178,3.306-17.796,3.751c-3.269,0.317-6.636-0.094-9.834-0.501
				c-1.375-0.171-2.75-0.347-4.139-0.463l-3.333-0.276l0.119-0.617c-1.868-0.501-4.356-1.114-5.72-1.296
				c-8.553,1.625-19.151,4.375-23.001,5.903l0.206,0.829l-2.783,0.773c-0.595,0.168-1.178,0.358-1.761,0.549
				c-1.476,0.486-3.004,0.982-4.695,1.166c-5.433,0.572-8.485,3.281-9.075,8.048c-0.718,5.795-1.114,11.77-1.498,17.549
				c-0.177,2.637-0.352,5.275-0.558,7.913l-0.388,5.145c-0.396,5.219-0.789,10.438-1.271,15.646
				c-0.481,5.209-4.229,9.774-8.021,9.774c-2.126,0-3.84-1.33-4.591-3.564l-0.292-0.867c-1.658-4.928-3.374-10.024-4.569-15.232
				c-0.92-4.031-1.401-8.152-1.861-12.131c-0.118-1.016-0.234-2.025-0.357-3.034l-0.123-1.001c-0.572-4.599-1.159-9.355-1.424-14.1
				c-0.188-3.389-0.09-7.147,0.298-11.489l0.072-0.822c0.481-5.526,1.016-11.747,6.664-16.043c-0.007-0.041-0.018-0.078-0.025-0.108
				c-1.637-3.871-2.791-8.642,1.146-14.399c1.125-1.636,1.749-3.83,2.413-6.15c0.55-1.924,1.122-3.912,2.03-5.821
				c2.988-6.28,8.252-14.829,19.397-16.57c0.078-0.011,0.154-0.026,0.225-0.045c2.421-4.296,6.176-6.474,11.16-6.474
				c1.247,0,2.555,0.13,4.005,0.399c-0.041-0.011,0.463,0.026,1.199,0.089c15.356,1.274,21.633,2.164,24.506,2.858
				c2.002-1.449,4.162-2.156,6.55-2.156c3.153,0,6.161,1.222,9.762,2.821c2.276,1.009,4.372,2.246,6.401,3.441
				c2.383,1.405,4.632,2.731,6.785,3.449c4.92,1.629,10.092,3.628,14.537,8.448c0.325,0.078,0.976,0.134,1.424,0.172
				c1.235,0.104,2.642,0.224,3.961,0.859c2.195,1.05,7.517,2.544,8.947,2.616c0.262-0.053,0.534-0.079,0.829-0.079
				c2.104,0,5.903,1.454,14.185,4.92c2.222,0.931,4.259,1.786,5.655,2.309c1.675,0.617,3.646,2.324,4.166,4.39
				c0.866,3.448,1.587,6.957,2.286,10.353c0.251,1.207,0.5,2.417,0.755,3.624c0.167,0.377,0.481,1.001,0.882,1.812
				c2.413,4.906,7.442,15.114,7.412,21.701c-0.049,11.021-1.928,22.174-4.017,33.581c-1.121,6.12-3,12.109-4.816,17.904
				c-0.646,2.062-1.293,4.129-1.904,6.199l-0.636,2.133l-2.312,0.12C307.235,149.046,307.228,149.046,307.221,149.046z
				 M196.682,23.05c-2.963,0-4.815,1.158-6.191,3.867c-0.922,1.812-3.075,2.395-4.277,2.582c-6.531,1.021-10.996,4.98-14.927,13.238
				c-0.699,1.465-1.177,3.131-1.677,4.898c-0.771,2.678-1.562,5.447-3.229,7.879c-1.969,2.873-2.105,5.081-0.563,8.743
				c0.415,0.986,1.424,4.995-1.158,6.646c-4.21,2.709-4.599,7.155-5.043,12.304l-0.071,0.84c-0.37,4.054-0.46,7.529-0.288,10.626
				c0.257,4.547,0.833,9.199,1.386,13.701l0.123,1.005c0.128,1.024,0.247,2.048,0.367,3.071c0.444,3.826,0.899,7.779,1.752,11.497
				c1.099,4.79,2.709,9.613,4.282,14.291c0.612-0.751,1.285-2.006,1.435-3.624c0.478-5.171,0.866-10.361,1.259-15.542l0.393-5.16
				c0.204-2.615,0.381-5.234,0.549-7.854c0.393-5.858,0.796-11.918,1.536-17.881c0.926-7.555,6.165-12.386,14.365-13.252
				c1.064-0.112,2.234-0.493,3.471-0.897c0.362-0.119,0.729-0.239,1.091-0.352c4.816-3.717,26.46-7.8,27.438-7.984l0.4-0.071
				l0.399,0.034c0.074,0.003,6.131,0.956,9.452,2.245c1.421,0.124,2.829,0.299,4.227,0.475c3.022,0.381,5.802,0.747,8.522,0.482
				c6.78-0.654,11.934-1.726,16.211-3.377c2.951-1.139,5.906-1.719,8.784-1.719c5.319,0,10.51,1.887,16.341,5.929
				c0.206,0.131,0.723,0.389,1.389,0.729c4.366,2.246,8.774,4.67,10.426,7.405c0.521,0.848,1.065,1.7,1.651,2.537
				c0.407,0.575,0.946,1.188,1.515,1.834c1.468,1.667,3.131,3.553,3.516,6.026c1.039,6.564,1.543,13.264,2.033,19.746l0.274,3.602
				c0.568,7.185,2.197,16.794,3.628,23.818c1.401-4.54,2.732-9.172,3.576-13.771c2.114-11.557,3.87-21.984,3.919-32.528
				c0.022-5.186-4.76-14.896-6.8-19.04c-0.896-1.816-1.383-2.802-1.457-3.631c-0.225-1.08-0.448-2.16-0.669-3.24
				c-0.676-3.28-1.375-6.673-2.197-9.949c-0.111-0.142-0.358-0.348-0.496-0.408c-1.454-0.541-3.571-1.427-5.885-2.395
				c-3.526-1.479-10.019-4.199-11.772-4.442c-0.258,0.045-0.534,0.067-0.834,0.067c-2.633,0-9.107-1.999-11.623-3.209
				c-0.336-0.161-1.229-0.235-1.883-0.288c-1.658-0.142-3.726-0.317-5.16-1.909c-3.184-3.531-6.879-5.238-12.184-6.998
				c-2.753-0.916-5.388-2.47-7.932-3.972c-1.883-1.109-3.829-2.256-5.787-3.127c-2.948-1.307-5.366-2.305-7.346-2.305
				c-0.949,0-2.245,0.191-3.87,1.7l-1.462,1.356l-1.816-0.837c-0.776-0.34-4.714-1.312-24.4-2.944
				c-1.105-0.089-1.775-0.165-1.835-0.175C198.527,23.151,197.548,23.05,196.682,23.05z"/>
		</g>
	</g>
	<g opacity="0.7">
		<path fill="#6B6C6C" d="M188.104,140.352c-0.071,0-0.149-0.008-0.221-0.026l-8.62-1.988c-0.537-0.124-0.87-0.658-0.747-1.192
			c0.128-0.534,0.665-0.87,1.196-0.743l8.615,1.988c0.538,0.12,0.871,0.657,0.747,1.192
			C188.97,140.042,188.559,140.352,188.104,140.352z"/>
	</g>
	<g opacity="0.7">
		<path fill="#6B6C6C" d="M180.357,148.261c-0.385,0-0.75-0.228-0.904-0.604c-0.201-0.5,0.041-1.064,0.542-1.267l8.019-3.228
			c0.493-0.199,1.064,0.044,1.263,0.541c0.202,0.497-0.037,1.065-0.535,1.263l-8.021,3.228
			C180.602,148.243,180.477,148.261,180.357,148.261z"/>
	</g>
	<g opacity="0.7">
		<path fill="#6B6C6C" d="M285.396,140.464c-0.443,0-0.845-0.306-0.947-0.754c-0.12-0.523,0.203-1.042,0.728-1.166l8.425-1.947
			c0.527-0.124,1.043,0.206,1.166,0.729c0.119,0.523-0.205,1.046-0.729,1.166l-8.426,1.947
			C285.543,140.453,285.468,140.464,285.396,140.464z"/>
	</g>
	<g opacity="0.7">
		<path fill="#6B6C6C" d="M293.617,148.149c-0.116,0-0.242-0.022-0.362-0.071l-8.021-3.224c-0.498-0.202-0.736-0.766-0.534-1.263
			c0.192-0.504,0.766-0.744,1.262-0.542l8.021,3.225c0.498,0.205,0.738,0.77,0.539,1.267
			C294.368,147.918,294.002,148.149,293.617,148.149z"/>
	</g>
	<g opacity="0.7">
		<path fill="#6B6C6C" d="M251.021,109.032c-4.997,0-9.4-1.663-9.66-1.76c-6.15-2.462-11.779-0.044-11.833-0.019
			c-0.504,0.22-1.09-0.007-1.314-0.508c-0.225-0.504,0.007-1.091,0.505-1.311c0.257-0.116,6.426-2.791,13.371-0.015
			c0.067,0.03,8.332,3.135,14.505,0.662c0.508-0.206,1.092,0.045,1.293,0.556c0.205,0.512-0.043,1.087-0.555,1.289
			C255.299,108.744,253.109,109.032,251.021,109.032z"/>
	</g>
	<g opacity="0.7">
		<path fill="#6B6C6C" d="M248.23,104.885c-3.543,0-6.655-1.696-6.834-1.797c-4.103-2.38-7.809-0.049-7.846-0.026
			c-0.39,0.246-0.897,0.134-1.144-0.247c-0.247-0.385-0.136-0.896,0.246-1.143c0.184-0.12,4.6-2.899,9.557-0.022
			c0.046,0.022,5.59,3.041,9.704,0.661c0.388-0.228,0.896-0.094,1.128,0.303c0.229,0.396,0.093,0.9-0.299,1.128
			C251.286,104.589,249.721,104.885,248.23,104.885z"/>
	</g>
	<g>
		<g>
			<path fill="#281912" d="M248.832,136.899c-13.716-9.25-21.88-0.814-22.22-0.452l-4.405-4.024
				c0.119-0.131,11.858-12.685,29.961-0.467L248.832,136.899z"/>
		</g>
		<g>
			<polygon fill="#281912" points="294.723,135.932 293.438,130.107 315.433,125.235 316.722,131.06 			"/>
		</g>
		<g>
			
				<rect x="157.883" y="127.649" transform="matrix(-0.9842 -0.1769 0.1769 -0.9842 312.8535 289.1585)" fill="#281912" width="22.868" height="5.967"/>
		</g>
		<g>
			<path fill="#281912" d="M202.647,169.797c-14.335,0-25.996-13.025-25.996-29.031c0-16.013,11.661-29.034,25.996-29.034
				c14.333,0,25.997,13.021,25.997,29.034C228.645,156.772,216.98,169.797,202.647,169.797z M202.647,117.699
				c-11.044,0-20.028,10.346-20.028,23.067c0,12.718,8.984,23.063,20.028,23.063c11.045,0,20.03-10.345,20.03-23.063
				C222.678,128.045,213.692,117.699,202.647,117.699z"/>
		</g>
		<g>
			<path fill="#281912" d="M272.311,169.797c-14.334,0-25.994-13.025-25.994-29.031c0-16.013,11.66-29.034,25.994-29.034
				s25.999,13.021,25.999,29.034C298.31,156.772,286.645,169.797,272.311,169.797z M272.311,117.699
				c-11.041,0-20.031,10.346-20.031,23.067c0,12.718,8.99,23.063,20.031,23.063c11.047,0,20.032-10.345,20.032-23.063
				C292.343,128.045,283.357,117.699,272.311,117.699z"/>
		</g>
	</g>
	<g>
		<g>
			<g>
				<path fill="#FAA625" d="M312.904,278.109c0,9.363-4.275,16.951-9.552,16.951c-5.275,0-9.554-7.588-9.554-16.951
					c0-9.362,4.278-16.955,9.554-16.955C308.629,261.154,312.904,268.747,312.904,278.109z"/>
			</g>
			<g>
				<path fill="#27140E" d="M303.354,295.307c-5.402,0-9.799-7.716-9.799-17.197s4.396-17.197,9.799-17.197
					c5.398,0,9.801,7.716,9.801,17.197C313.153,287.591,308.752,295.307,303.354,295.307z M303.354,261.4
					c-5.134,0-9.307,7.494-9.307,16.709c0,9.209,4.173,16.701,9.307,16.701c5.131,0,9.305-7.492,9.305-16.701
					C312.657,268.895,308.483,261.4,303.354,261.4z"/>
			</g>
		</g>
		<g>
			<g>
				<path fill="#6D7EBE" d="M293.463,325.566c0-12.08,0-24.158,0-36.237c6.782,0,13.571,0,20.359,0c0,11.632,0,24.331,0,35.962
					L293.463,325.566z"/>
			</g>
			<g>
				<path fill="#27140E" d="M293.463,327.297c-0.455,0-0.893-0.18-1.217-0.501c-0.329-0.325-0.514-0.771-0.514-1.229v-36.237
					c0-0.956,0.773-1.729,1.729-1.729h20.359c0.953,0,1.729,0.773,1.729,1.729v35.962c0,0.945-0.762,1.719-1.707,1.729
					l-20.358,0.277C293.479,327.297,293.471,327.297,293.463,327.297z M295.189,291.055v32.76l16.902-0.229v-32.531H295.189z"/>
			</g>
		</g>
		<g>
			<g>
				<rect x="213.202" y="350.708" fill="#894620" width="180.985" height="65.051"/>
			</g>
			<g>
				<path fill="#27140E" d="M394.188,417.489H213.202c-0.956,0-1.729-0.777-1.729-1.73v-65.051c0-0.953,0.773-1.728,1.729-1.728
					h180.985c0.952,0,1.729,0.773,1.729,1.728v65.051C395.918,416.711,395.141,417.489,394.188,417.489z M214.933,414.029h177.525
					v-61.592H214.933V414.029z"/>
			</g>
		</g>
		<g>
			<g>
				<path fill="#F0516C" d="M232.266,325.455c-12.6-0.534-25.131-1.002-28.276,7.918c0,5.996,0,13.273,0,20.357
					c0,6.773-1.576,14.938,3.348,17.562c6.953,2.665,18.374-11.447,22.663-11.907c17.277-1.834,23.957,13.585,36.2,13.574
					c7.671-0.008,16.984-10.01,27.146-12.44c22.911-5.488,32.645,13.281,48.64,12.44c11.295-0.591,20.854-13.51,31.675-13.574
					c11.882-0.069,22.077,15.843,29.411,13.574c7.332-2.269,6.592-42.556-7.92-47.506
					C389.596,323.557,232.266,325.455,232.266,325.455z"/>
			</g>
			<g>
				<path fill="#27140E" d="M401.571,374.911L401.571,374.911c-3.777,0-7.589-2.845-12.001-6.132
					c-4.816-3.594-10.278-7.666-15.83-7.666h-0.071c-4.95,0.029-9.763,3.123-14.859,6.396c-5.249,3.373-10.674,6.859-16.732,7.177
					c-7.245,0.379-13.104-2.879-19.31-6.34c-6.27-3.492-12.752-7.105-21.232-7.105c-2.507,0-5.126,0.32-7.783,0.955
					c-4.547,1.093-8.992,3.832-13.285,6.484c-5.011,3.086-9.74,6.004-14.266,6.01c-5.93,0-10.473-3.138-15.276-6.463
					c-5.168-3.572-10.511-7.264-18.109-7.264c-0.856,0-1.741,0.045-2.63,0.143c-1.107,0.121-4.01,2.443-6.341,4.312
					c-4.641,3.725-9.901,7.939-14.615,7.939c-0.891,0-1.731-0.149-2.508-0.445c-0.067-0.03-0.134-0.061-0.198-0.09
					c-4.924-2.631-4.648-8.971-4.382-15.102c0.06-1.334,0.119-2.709,0.119-3.99v-20.357c0-0.199,0.03-0.393,0.097-0.576
					c2.896-8.208,12.378-9.314,21.267-9.314c2.896,0,5.96,0.127,8.668,0.244c2.155-0.03,70.958-0.846,118.161-0.846
					c42.518,0,44.435,0.657,45.26,0.938c9.658,3.296,13.843,19.885,13.643,33.906c-0.067,4.562-0.764,15.338-5.772,16.885
					C402.938,374.809,402.263,374.911,401.571,374.911z M373.74,357.657c6.694,0,12.646,4.436,17.896,8.351
					c3.759,2.803,7.305,5.447,9.936,5.447l0,0c0.351,0,0.676-0.049,0.988-0.146c1.31-0.406,3.21-4.906,3.338-13.634
					c0.097-6.684-0.897-13.678-2.729-19.181c-1.446-4.364-4.114-9.887-8.578-11.407c-1.01-0.276-8.122-0.751-44.14-0.751
					c-47.699,0-117.466,0.833-118.165,0.846c-0.029,0-0.062,0-0.098-0.005c-2.682-0.11-5.727-0.239-8.566-0.239
					c-10.688,0-16.077,2.019-17.907,6.74v20.053c0,1.359-0.064,2.771-0.124,4.14c-0.228,5.237-0.44,10.188,2.463,11.848
					c0.357,0.124,0.743,0.185,1.174,0.185c3.5,0,8.466-3.979,12.455-7.178c3.363-2.701,6.019-4.83,8.138-5.057
					c1.006-0.107,2.014-0.16,2.993-0.16c8.676,0,14.732,4.186,20.075,7.877c4.539,3.139,8.459,5.848,13.297,5.848
					c3.561-0.004,7.883-2.668,12.463-5.496c4.528-2.791,9.215-5.68,14.295-6.896c2.923-0.699,5.813-1.059,8.591-1.059
					c9.378,0,16.569,4.01,22.914,7.548c5.473,3.049,10.644,5.93,16.492,5.93c0.315,0,0.635-0.008,0.959-0.022
					c5.142-0.269,10.174-3.506,15.042-6.631c5.286-3.396,10.753-6.908,16.709-6.946h0.09V357.657z"/>
			</g>
		</g>
		<g>
			<g>
				<path fill="#623214" d="M394.188,382.084c0,13.574,0,27.146,0,40.721c5.915,1.629,13.204,1.876,16.967,5.657
					c2.186,4.222,2.696,10.121,2.265,16.965c-73.146,0-146.299,0-219.446,0c-2.085-15.657,4.211-22.936,19.229-21.489
					c0-14.328,0-28.656,0-42.985c9.274-4.386,14.568-6.957,23.752-5.656c9.501,1.341,16.774,9.636,26.022,10.183
					c14.519,0.854,27.559-11.595,42.98-10.183c15.187,1.39,20.269,11.591,37.328,10.183
					C359.27,384.158,376.587,365.898,394.188,382.084z"/>
			</g>
			<g>
				<path fill="#27140E" d="M413.419,447.154H193.973c-0.867,0-1.6-0.641-1.715-1.498c-1.102-8.294,0.097-14.508,3.568-18.468
					c2.992-3.424,7.644-5.16,13.816-5.16c0.594,0,1.203,0.015,1.83,0.049v-41.125c0-0.669,0.389-1.272,0.99-1.562l0.336-0.156
					c7.645-3.617,12.692-6.006,19.622-6.006c1.529,0,3.091,0.121,4.779,0.355c4.884,0.691,9.121,3.045,13.219,5.32
					c4.24,2.361,8.249,4.588,12.654,4.846c0.443,0.025,0.896,0.041,1.349,0.041c6.165,0,12.103-2.4,18.386-4.947
					c6.555-2.648,13.332-5.391,20.682-5.391c0.882,0,1.764,0.045,2.626,0.119c7.009,0.643,11.926,3.057,16.679,5.392
					c5.148,2.526,10.017,4.917,17.344,4.917h0.004c0.968,0,1.979-0.045,3.003-0.127c4.872-0.402,9.933-2.488,15.285-4.699
					c6.391-2.635,12.991-5.354,19.825-5.354c6.302,0,11.899,2.327,17.104,7.112c0.354,0.326,0.561,0.785,0.561,1.271v39.38
					c1.233,0.291,2.533,0.549,3.796,0.799c4.716,0.923,9.588,1.885,12.665,4.978c0.123,0.123,0.232,0.27,0.312,0.426
					c2.152,4.163,2.954,10.01,2.454,17.871C415.085,446.448,414.33,447.154,413.419,447.154z M195.508,443.698h216.271
					c0.259-6.235-0.409-10.896-2.035-14.197c-2.373-2.212-6.604-3.041-10.697-3.848c-1.768-0.35-3.595-0.707-5.312-1.183
					c-0.752-0.205-1.274-0.885-1.274-1.666v-39.951c-4.371-3.83-9.026-5.697-14.204-5.697c-6.149,0-12.431,2.59-18.506,5.097
					c-5.361,2.212-10.91,4.499-16.319,4.946c-1.118,0.09-2.224,0.139-3.288,0.139h-0.004c-8.13,0-13.589-2.679-18.863-5.271
					c-4.683-2.297-9.102-4.465-15.473-5.047c-0.758-0.071-1.536-0.107-2.312-0.107c-6.677,0-13.138,2.613-19.388,5.141
					c-6.311,2.553-12.842,5.193-19.68,5.193c-0.52,0-1.038-0.016-1.55-0.046c-5.192-0.304-9.737-2.832-14.135-5.271
					c-3.997-2.221-7.774-4.32-12.02-4.922c-1.531-0.216-2.933-0.32-4.297-0.32c-5.966,0-10.633,2.119-17.488,5.36v41.892
					c0,0.484-0.209,0.947-0.571,1.276c-0.359,0.329-0.841,0.487-1.323,0.441c-6.889-0.665-11.82,0.617-14.615,3.807
					C195.837,432.418,194.857,437.205,195.508,443.698z"/>
			</g>
		</g>
		<g>
			<g>
				<path fill="#4E4E4E" d="M213.338,423.938c-15.021-1.445-21.312,5.832-19.23,21.489c73.151,0,146.298,0,219.445,0
					c0.438-6.844-0.074-12.743-2.26-16.965c-3.764-3.781-11.056-4.028-16.971-5.657L213.338,423.938z"/>
			</g>
			<g>
				<path fill="#27140E" d="M413.553,447.154H194.107c-0.863,0-1.6-0.641-1.715-1.498c-1.103-8.294,0.098-14.508,3.567-18.468
					c3.554-4.062,9.412-5.739,17.452-4.98l180.898-1.129c0.164-0.007,0.317,0.019,0.468,0.06c1.603,0.438,3.366,0.785,5.068,1.125
					c4.717,0.924,9.593,1.885,12.667,4.978c0.126,0.128,0.229,0.27,0.311,0.426c2.154,4.163,2.959,10.006,2.455,17.871
					C415.219,446.448,414.465,447.154,413.553,447.154z M195.644,443.698h216.272c0.259-6.235-0.411-10.897-2.036-14.197
					c-2.372-2.212-6.602-3.041-10.696-3.853c-1.688-0.328-3.434-0.674-5.085-1.112l-180.752,1.128c-0.057,0-0.113,0-0.173-0.008
					c-6.89-0.665-11.821,0.617-14.616,3.807C195.971,432.418,194.993,437.205,195.644,443.698z"/>
			</g>
		</g>
		<g>
			<g>
				<path fill="#FDD71E" d="M301.078,239.634c14.527,6.893,33.383,39.663,7.921,47.511c7.622-6.387-0.078-18.002-5.66-21.49
					c-1.211,5.57-6.063,7.51-7.917,12.439c-0.867,5.396,1.596,7.451,4.524,9.051c-9.169,0.06-15.544-9.326-14.705-18.104
					C286.316,257.792,303.361,252.121,301.078,239.634z"/>
			</g>
			<g>
				<path fill="#27140E" d="M299.864,288.874c-4.286,0-8.341-1.86-11.415-5.242c-3.59-3.948-5.432-9.464-4.932-14.75
					c0.545-5.679,4.565-9.911,8.451-14.007c4.371-4.604,8.504-8.953,7.404-14.931c-0.115-0.635,0.136-1.285,0.65-1.677
					c0.516-0.399,1.207-0.471,1.793-0.194c10.473,4.973,22.354,21.673,21.394,34.96c-0.389,5.383-3.082,12.488-13.704,15.762
					c-0.788,0.243-1.637-0.104-2.028-0.825c-0.393-0.721-0.221-1.62,0.407-2.147c1.895-1.588,2.731-3.578,2.556-6.094
					c-0.291-4.248-3.393-8.689-6.229-11.235c-0.975,2.179-2.438,3.808-3.77,5.294c-1.339,1.5-2.608,2.912-3.341,4.757
					c-0.649,4.349,1.195,5.735,3.674,7.085c0.69,0.376,1.037,1.178,0.847,1.938c-0.193,0.767-0.877,1.301-1.666,1.309
					L299.864,288.874L299.864,288.874z M302.991,242.717c-0.374,5.962-4.659,10.48-8.511,14.537
					c-3.646,3.838-7.088,7.462-7.519,11.957c-0.414,4.334,1.099,8.854,4.043,12.098c0.976,1.068,2.069,1.945,3.243,2.611
					c-0.682-1.551-0.945-3.523-0.535-6.102c0.023-0.111,0.053-0.225,0.09-0.332c0.952-2.529,2.537-4.297,4.064-6.004
					c1.655-1.848,3.214-3.588,3.785-6.198c0.12-0.55,0.498-1.007,1.017-1.226c0.521-0.218,1.113-0.168,1.587,0.125
					c4.405,2.762,9.218,9.236,9.633,15.31c0.09,1.317-0.025,2.573-0.348,3.743c3.804-2.403,5.893-5.904,6.222-10.453
					C320.524,262.215,311.689,248.511,302.991,242.717z"/>
			</g>
		</g>
	</g>
</g>
</svg>
