<?xml version="1.0" encoding="utf-8"?>
<!-- Generator: Adobe Illustrator 16.0.0, SVG Export Plug-In . SVG Version: 6.00 Build 0)  -->
<!DOCTYPE svg PUBLIC "-//W3C//DTD SVG 1.1//EN" "http://www.w3.org/Graphics/SVG/1.1/DTD/svg11.dtd">
<svg version="1.1" id="Layer_1" xmlns="http://www.w3.org/2000/svg" xmlns:xlink="http://www.w3.org/1999/xlink" x="0px" y="0px"
	 width="500px" height="500px" viewBox="0 0 500 500" enable-background="new 0 0 500 500" xml:space="preserve">
<g id="Layer_1_copy_94">
	<g>
		<path fill="#FCC495" d="M200.896,210.962c0,0,1.703,19.878-9.857,26.184c-11.556,6.305-18.363,83.435-18.363,83.435l139.1,23.458
			L296.6,259.404l-16.668-25.983c0,0-5.508-8.347-2.406-22.458C280.626,196.854,200.795,199.629,200.896,210.962z"/>
		<path fill="#28180E" d="M315.567,347.793l-146.201-24.652l0.254-2.832c1.157-13.149,7.577-79.108,19.948-85.858
			c9.534-5.204,8.283-23.045,8.268-23.225l-0.012-0.233c-0.007-1.101,0.322-2.757,1.932-4.39c6.479-6.535,30.544-8.28,43.74-8.28
			c11.021,0,30.301,0.992,35.645,7.631c1.353,1.684,1.834,3.641,1.385,5.67c-2.752,12.526,1.787,19.822,1.984,20.125l17.007,26.512
			L315.567,347.793z M175.991,318.023l131.986,22.259l-14.294-79.735l-16.338-25.463c-0.236-0.357-6.16-9.574-2.82-24.778
			c0.029-0.129,0.048-0.226-0.176-0.501c-2.066-2.574-12.604-5.335-30.854-5.335c-21.831,0-37.803,3.867-39.511,6.594
			c0.19,2.97,0.911,22.02-11.474,28.776C187.641,242.5,180.212,272.361,175.991,318.023z"/>
	</g>
	<g>
		<g>
			<path fill="#FFFFFF" d="M188.589,241.183c0,0,1.685,34.851,43.796,31.681c42.11-3.169,48.852-10.292,50.535-31.681
				c0,0-3.365-7.125,51.373,4.757c54.739,11.875,72.427,26.132,80.848,125.126c4.216,28.512-41.266,21.383-41.266,21.383
				l-272.878,1.703c0,0-38.737,8.598-30.315-31.799C79.103,321.965,74.021,242.188,188.589,241.183z"/>
		</g>
		<g>
			<path fill="#281912" d="M92.932,397.99c-6.606,0-15.686-1.473-21.39-8.496c-5.102-6.273-6.401-15.61-3.864-27.764
				c1.058-5.09,1.913-10.899,2.821-17.049c6.19-42.084,15.55-105.67,118.06-106.571l2.955-0.024l0.143,2.95
				c0.059,1.175,1.947,28.956,35.457,28.956c1.624,0,3.321-0.062,5.04-0.193c41.677-3.132,46.165-9.932,47.673-28.478
				c-0.07-0.746,0.067-1.606,0.595-2.44c1.285-2.025,4.117-2.886,9.469-2.886c8.667,0,23.824,2.335,45.051,6.94
				c58.029,12.591,74.93,29.923,83.262,127.873c0.964,6.477-0.403,12.018-4.084,16.279c-10.757,12.463-37.517,8.857-40.459,8.434
				l-272.336,1.703C100.283,397.43,97.033,397.99,92.932,397.99z M185.816,244.295c-94.619,1.93-103.06,59.291-109.242,101.28
				c-0.915,6.243-1.786,12.142-2.886,17.405c-2.136,10.252-1.258,17.875,2.616,22.639c4.188,5.145,11.351,6.229,16.627,6.229
				c4.188,0,7.378-0.688,7.404-0.69l0.646-0.071l273.119-1.711l0.248,0.037c0.048,0.008,4.924,0.756,11.167,0.756
				c11.496,0,20.003-2.52,23.952-7.093c2.493-2.892,3.355-6.673,2.635-11.56c-8.446-99.217-26.086-111.211-78.464-122.576
				c-35.472-7.698-45.22-7.028-47.741-6.501c-1.97,22.241-10.338,30.258-53.282,33.487c-1.872,0.143-3.725,0.215-5.503,0.215
				C197.982,276.139,187.692,256.751,185.816,244.295z"/>
		</g>
	</g>
	<g>
		<g>
			<path fill="#A36427" d="M109.747,263.525l25.538,131.394l213.956-2.312l26.153-132.445c0,0-20.444-15.74-56.459-17.358
				l-45.473,66.026c0,0-13.876,25.847-31.007,23.174c-17.138-2.674-21.596-1.777-34.078-23.174l-44.498-66.026
				C163.881,242.803,123.369,249.655,109.747,263.525z"/>
		</g>
		<g>
			<path fill="#291911" d="M132.759,398.023l-26.345-135.498l1.141-1.155c14.151-14.413,54.119-21.308,55.814-21.598l1.951-0.331
				l45.607,67.67c10.92,18.711,14.62,19.264,28.388,21.31c1.139,0.172,2.347,0.347,3.616,0.548c0.665,0.104,1.353,0.155,2.025,0.155
				c11.586,0,22.552-15.698,25.798-21.749l0.178-0.288l46.438-67.431l1.704,0.079c36.562,1.644,57.329,17.326,58.19,17.992
				l1.515,1.162l-27.011,136.758L132.759,398.023z M113.08,264.592l24.734,127.232l208.898-2.266l25.278-128.021
				c-5.187-3.396-23.358-13.936-51.5-15.582l-44.407,64.482c-1.269,2.306-14.067,24.828-31.127,24.832
				c-0.99,0-1.991-0.078-2.974-0.23c-1.256-0.196-2.444-0.377-3.569-0.539c-14.836-2.209-20.384-3.034-32.684-24.126l-43.277-64.187
				C154.615,247.689,125.069,253.927,113.08,264.592z"/>
		</g>
	</g>
	<g>
		<g>
			<path fill="#FCC394" d="M315.41,119.532c-0.904,0-1.775,0.222-2.615,0.553c-3.283-19.129-2.134-80.87-76.846-79.206
				c-80.246-0.034-73.648,56.34-77.284,82.548c-1.438-1.1-3.03-1.762-4.729-1.762c-6.116,0-11.071,7.962-11.071,17.779
				c0,9.815,4.955,17.777,11.071,17.777c1.83,0,3.534-0.779,5.051-2.046c6.882,42.223,38.696,74.164,76.963,74.164
				c38.423,0,70.325-32.221,77.028-74.709c0.784,0.282,1.593,0.452,2.433,0.452c6.112,0,11.071-7.953,11.071-17.768
				C326.481,127.494,321.522,119.532,315.41,119.532z"/>
		</g>
		<g>
			<path fill="#291911" d="M235.949,232.409c-37.855,0-70.596-30.249-79.223-72.527c-0.912,0.272-1.843,0.411-2.791,0.411
				c-7.933,0-14.146-9.156-14.146-20.848c0-11.69,6.213-20.854,14.146-20.854c0.729,0,1.453,0.084,2.163,0.247
				c0.201-2.02,0.374-4.175,0.549-6.4c2.235-27.912,5.975-74.629,79.227-74.629c1.023-0.021,2.025-0.033,3.012-0.033
				c67.001,0,73.08,50.534,76.001,74.821c0.169,1.388,0.322,2.681,0.479,3.869c0.014,0,0.024,0,0.044,0
				c7.929,0,14.143,9.156,14.143,20.85c0,11.648-6.173,20.781-14.066,20.845C307.407,201.364,274.383,232.409,235.949,232.409z
				 M161.154,149.368l0.862,5.313c6.767,41.479,37.859,71.587,73.933,71.587c36.285,0,67.403-30.331,73.992-72.118l0.577-3.669
				l3.497,1.255c0.517,0.188,0.973,0.275,1.395,0.275c3.781,0,7.995-6.032,7.995-14.696c0-8.67-4.214-14.711-7.995-14.711
				c-0.422,0-0.912,0.112-1.498,0.343l-3.505,1.368l-0.64-3.712c-0.352-2.036-0.643-4.469-0.98-7.274
				c-2.964-24.631-8.583-70.733-72.767-69.377c-67.727,0-70.918,39.867-73.249,68.976c-0.311,3.933-0.609,7.648-1.064,10.923
				l-0.722,5.207l-4.177-3.185c-0.994-0.752-1.953-1.134-2.873-1.134c-3.785,0-8,6.041-8,14.708c0,8.664,4.215,14.706,8,14.706
				c0.986,0,2.021-0.448,3.082-1.336L161.154,149.368z"/>
		</g>
	</g>
	<g>
		<path fill="#110D0A" d="M207.726,133.862c0,5.961-3.863,10.79-8.623,10.79c-4.76,0-8.624-4.829-8.624-10.79
			c0-5.954,3.864-10.783,8.624-10.783C203.863,123.079,207.726,127.908,207.726,133.862z"/>
	</g>
	<g>
		<path fill="#FFFFFA" d="M200.889,133.87c0,2.072-1.555,3.753-3.482,3.753c-1.921,0-3.479-1.681-3.479-3.753
			c0-2.079,1.558-3.756,3.479-3.756C199.334,130.113,200.889,131.791,200.889,133.87z"/>
	</g>
	<g>
		<path fill="#110D0A" d="M278.016,133.862c0,5.961-3.863,10.79-8.623,10.79c-4.765,0-8.627-4.829-8.627-10.79
			c0-5.954,3.862-10.783,8.627-10.783C274.15,123.08,278.016,127.908,278.016,133.862z"/>
	</g>
	<g>
		<path fill="#FFFFFA" d="M271.174,133.87c0,2.072-1.562,3.753-3.482,3.753s-3.475-1.681-3.475-3.753
			c0-2.079,1.555-3.756,3.475-3.756S271.174,131.791,271.174,133.87z"/>
	</g>
	<g>
		<path fill="#844A1F" d="M224.767,156.479c0,0,11.373,1.69,12.935-4.655c1.568-6.344,0-18.766,0-18.766s7.061,9.461,3.534,20.886
			C237.701,165.362,219.334,156.388,224.767,156.479z"/>
	</g>
	<g opacity="0.7">
		<g>
			<path fill="#F9A780" d="M200.889,157.555c0,3.854-4.872,6.979-10.888,6.979c-6.012,0-10.884-3.125-10.884-6.979
				c0-3.857,4.872-6.982,10.884-6.982C196.017,150.573,200.889,153.698,200.889,157.555z"/>
		</g>
	</g>
	<g opacity="0.7">
		<g>
			<ellipse fill="#F9A780" cx="284.157" cy="156.799" rx="10.887" ry="6.983"/>
		</g>
	</g>
	<g>
		<path fill="#FFFFFD" d="M212.205,184.295c0,0,5.101,19.886,23.132,19.037c18.029-0.845,24.815-19.037,24.815-19.037
			s-7.963,9.536-24.815,9.536C218.019,193.831,212.205,184.295,212.205,184.295z"/>
	</g>
	<g>
		<path fill="#A9A8A8" d="M186.731,121.49c0,0,3.924-5.501,11.37-4.87c7.442,0.637,8.23,2.123,8.619-1.903
			c0.389-4.017-3.139-4.861-8.619-4.226C192.612,111.127,182.031,122.766,186.731,121.49z"/>
	</g>
	<g>
		<path fill="#A9A8A8" d="M282.691,121.49c0,0-3.918-5.501-11.364-4.87c-7.45,0.637-8.231,2.123-8.627-1.903
			c-0.386-4.017,3.138-4.861,8.627-4.226C276.814,111.127,287.391,122.766,282.691,121.49z"/>
	</g>
	<g opacity="0.7">
		<path fill="#6B6C6C" d="M183.668,131.8c-0.074,0-0.156-0.009-0.234-0.026l-8.874-2.045c-0.55-0.129-0.896-0.678-0.766-1.229
			c0.126-0.553,0.684-0.888,1.229-0.766l8.869,2.046c0.558,0.129,0.897,0.678,0.771,1.229
			C184.554,131.482,184.131,131.8,183.668,131.8z"/>
	</g>
	<g opacity="0.7">
		<path fill="#6B6C6C" d="M175.684,139.951c-0.392,0-0.77-0.24-0.926-0.633c-0.206-0.51,0.044-1.091,0.556-1.3l8.257-3.322
			c0.509-0.202,1.1,0.045,1.309,0.555c0.202,0.512-0.049,1.096-0.558,1.302l-8.26,3.322
			C175.935,139.924,175.812,139.951,175.684,139.951z"/>
	</g>
	<g opacity="0.7">
		<path fill="#6B6C6C" d="M283.861,131.912c-0.455,0-0.866-0.31-0.971-0.773c-0.127-0.54,0.213-1.076,0.746-1.201l8.676-2.005
			c0.545-0.132,1.076,0.209,1.203,0.753c0.123,0.536-0.213,1.073-0.75,1.198l-8.677,2.004
			C284.016,131.908,283.939,131.912,283.861,131.912z"/>
	</g>
	<g opacity="0.7">
		<path fill="#6B6C6C" d="M292.332,139.833c-0.127,0-0.25-0.026-0.378-0.074l-8.253-3.323c-0.516-0.204-0.764-0.791-0.557-1.3
			c0.205-0.516,0.783-0.762,1.299-0.557l8.266,3.321c0.508,0.206,0.754,0.791,0.553,1.303
			C293.104,139.59,292.725,139.833,292.332,139.833z"/>
	</g>
	<g opacity="0.7">
		<path fill="#6B6C6C" d="M248.468,99.551c-5.147,0-9.684-1.717-9.944-1.815c-6.334-2.532-12.14-0.047-12.199-0.023
			c-0.519,0.226-1.125-0.004-1.352-0.517c-0.229-0.519,0.007-1.123,0.522-1.353c0.265-0.116,6.628-2.874,13.774-0.012
			c0.071,0.024,8.579,3.221,14.938,0.677c0.521-0.209,1.116,0.046,1.326,0.573c0.212,0.523-0.041,1.121-0.564,1.33
			C252.873,99.248,250.618,99.551,248.468,99.551z"/>
	</g>
	<g opacity="0.7">
		<path fill="#6B6C6C" d="M245.592,95.282c-3.646,0-6.849-1.752-7.039-1.857c-4.226-2.453-8.047-0.05-8.085-0.026
			c-0.399,0.252-0.923,0.138-1.181-0.26c-0.251-0.393-0.138-0.919,0.258-1.175c0.19-0.121,4.749-2.979,9.849-0.017
			c0.045,0.021,5.758,3.134,9.991,0.682c0.399-0.238,0.923-0.101,1.161,0.306c0.239,0.409,0.101,0.929-0.31,1.162
			C248.734,94.968,247.124,95.282,245.592,95.282z"/>
	</g>
	<g>
		<g>
			<path fill="#281912" d="M246.213,128.243c-14.127-9.528-22.541-0.837-22.896-0.46l-4.528-4.15
				c0.115-0.135,12.21-13.054,30.857-0.482L246.213,128.243z"/>
		</g>
		<g>
			<polygon fill="#281912" points="293.471,127.248 292.145,121.253 314.794,116.231 316.12,122.231 			"/>
		</g>
		<g>
			<polygon fill="#281912" points="175.359,126.909 152.188,122.741 153.273,116.7 176.446,120.862 			"/>
		</g>
		<g>
			<path fill="#281912" d="M198.646,162.119c-14.766,0-26.774-13.409-26.774-29.894c0-16.488,12.009-29.897,26.774-29.897
				c14.754,0,26.763,13.409,26.763,29.897C225.409,148.71,213.4,162.119,198.646,162.119z M198.646,108.469
				c-11.376,0-20.631,10.657-20.631,23.756c0,13.096,9.255,23.753,20.631,23.753c11.373,0,20.62-10.657,20.62-23.753
				C219.267,119.126,210.02,108.469,198.646,108.469z"/>
		</g>
		<g>
			<path fill="#281912" d="M270.393,162.119c-14.765,0-26.771-13.409-26.771-29.894c0-16.488,12.008-29.897,26.771-29.897
				c14.76,0,26.771,13.409,26.771,29.897C297.163,148.71,285.15,162.119,270.393,162.119z M270.393,108.469
				c-11.375,0-20.626,10.657-20.626,23.756c0,13.096,9.251,23.753,20.626,23.753c11.369,0,20.625-10.657,20.625-23.753
				C291.018,119.126,281.762,108.469,270.393,108.469z"/>
		</g>
	</g>
	<g>
		<path fill="#A9A8A8" d="M298.389,68.021c0,0,15.468-3.122,24.021,5.304c8.561,8.427,11.734,13.59,5.604,20.246
			c-6.128,6.662,14.32,17.071,2.443,28.02c-11.87,10.949-18.494,11.513-23.449,4.945c-4.953-6.561-1.326-16.029-1.707-18.861
			c-0.393-2.828-12.919-5.555-10.487-12.183c2.437-6.623,4.339-13.247-2.668-15.552C285.145,77.64,285.966,71.188,298.389,68.021z"
			/>
	</g>
	<g>
		<path fill="#A9A8A8" d="M174.943,69.038c0,0-15.34-4.138-23.896,4.287c-8.556,8.427-11.731,13.59-5.604,20.246
			c6.132,6.662-11.429,14.715,0.444,25.661c11.875,10.949,15.61,13.872,20.564,7.304c4.955-6.561,1.323-16.029,1.708-18.861
			c0.393-2.828,12.916-5.555,10.487-12.183c-2.439-6.623-4.341-13.247,2.672-15.552C188.316,77.64,187.371,72.204,174.943,69.038z"
			/>
	</g>
	<g>
		<path fill="#A9A8A8" d="M208.507,205.44c3.713,7.506,10.592,10.409,17.91,12.4c1.846,0.502,5.067,0.338,5.878-0.803
			c1.095-1.526,0.46-4.28,0.056-6.606c1.154-2.541,3.49-3.603,6.456-2.821c2.118,0.554,3.288,1.637,2.189,4.196
			c-1.945,4.524,0.195,7.276,5.223,6.662c6.285-0.767,12.103-2.629,16.287-7.908c1.588-2.004,3.501-3.753,5.271-5.623
			c0.488,0.084,0.986,0.155,1.482,0.233c0,3.797,0.6,7.708-0.115,11.36c-1.748,8.895-6.086,16.439-14.668,20.304
			c-5.775,2.603-12.083,4.436-18.51,3.017c-6.493-1.431-13.227-2.794-19.096-5.703c-3.509-1.732-6.894-6.004-7.988-9.802
			c-1.686-5.872-1.367-12.309-1.901-18.515C207.49,205.7,208.003,205.573,208.507,205.44z"/>
	</g>
	<g>
		<path fill="#A9A8A8" d="M188.289,172.692c17.964,0.854,32.719-13.241,48.619-1.862c15.977-10.841,30.351,1.858,47.162,2.439
			c-10.543,10.28-22.106,13.297-33.86,9.791c-9.591-2.858-17.725-2.393-27.219,0.122
			C210.938,186.392,199.383,183.102,188.289,172.692z"/>
	</g>
	<g>
		<g>
			<g>
				<ellipse fill="#FAA625" cx="308.565" cy="269.918" rx="9.837" ry="17.455"/>
			</g>
			<g>
				<path fill="#27140E" d="M308.565,287.633c-5.561,0-10.088-7.947-10.088-17.715c0-9.766,4.527-17.712,10.088-17.712
					c5.562,0,10.091,7.946,10.091,17.712C318.656,279.686,314.129,287.633,308.565,287.633z M308.565,252.712
					c-5.283,0-9.583,7.722-9.583,17.206s4.3,17.199,9.583,17.199c5.282,0,9.578-7.715,9.578-17.199
					C318.145,260.434,313.849,252.712,308.565,252.712z"/>
			</g>
		</g>
		<g>
			<g>
				<path fill="#6D7EBE" d="M298.381,318.786c0-12.438,0-24.878,0-37.313c6.986,0,13.98,0,20.967,0c0,11.978,0,25.055,0,37.033
					L298.381,318.786z"/>
			</g>
			<g>
				<path fill="#27140E" d="M298.381,320.566c-0.467,0-0.919-0.184-1.256-0.512c-0.332-0.338-0.525-0.793-0.525-1.27v-37.314
					c0-0.98,0.795-1.779,1.781-1.779h20.967c0.983,0,1.779,0.799,1.779,1.779v37.034c0,0.976-0.785,1.771-1.756,1.778l-20.964,0.283
					C298.399,320.566,298.389,320.566,298.381,320.566z M300.159,283.252v33.73l17.41-0.231v-33.499H300.159L300.159,283.252z"/>
			</g>
		</g>
		<g>
			<g>
				<rect x="215.731" y="344.682" fill="#894620" width="186.375" height="66.982"/>
			</g>
			<g>
				<path fill="#27140E" d="M402.105,413.445H215.731c-0.981,0-1.781-0.799-1.781-1.78v-66.983c0-0.986,0.8-1.781,1.781-1.781
					h186.375c0.981,0,1.78,0.795,1.78,1.781v66.983C403.887,412.646,403.088,413.445,402.105,413.445z M217.515,409.886h182.812
					v-63.43H217.515V409.886z"/>
			</g>
		</g>
		<g>
			<g>
				<path fill="#F0516C" d="M235.362,318.671c-12.973-0.551-25.881-1.032-29.12,8.149c0,6.182,0,13.675,0,20.97
					c0,6.976-1.621,15.381,3.452,18.09c7.159,2.739,18.92-11.796,23.34-12.262c17.784-1.896,24.667,13.983,37.272,13.974
					c7.897-0.005,17.491-10.306,27.958-12.812c23.594-5.652,33.613,13.682,50.082,12.812c11.632-0.609,21.478-13.91,32.618-13.974
					c12.235-0.079,22.738,16.312,30.289,13.974c7.548-2.332,6.785-43.824-8.159-48.921
					C397.379,316.719,235.362,318.671,235.362,318.671z"/>
			</g>
			<g>
				<path fill="#27140E" d="M409.705,369.602L409.705,369.602c-3.886,0-7.811-2.93-12.353-6.316
					c-4.962-3.7-10.59-7.893-16.306-7.893h-0.071c-5.1,0.03-10.054,3.213-15.303,6.588c-5.402,3.471-10.996,7.062-17.23,7.391
					c-7.461,0.388-13.495-2.969-19.882-6.527c-6.455-3.599-13.136-7.318-21.87-7.318c-2.578,0-5.276,0.332-8.012,0.985
					c-4.682,1.116-9.258,3.94-13.683,6.677c-5.16,3.172-10.027,6.176-14.689,6.188c-6.105,0-10.783-3.23-15.729-6.657
					c-5.324-3.677-10.821-7.478-18.647-7.478c-0.886,0-1.794,0.046-2.709,0.144c-1.136,0.126-4.129,2.519-6.531,4.441
					c-4.778,3.834-10.196,8.175-15.054,8.175c-0.911,0-1.778-0.152-2.582-0.46c-0.066-0.028-0.134-0.056-0.201-0.09
					c-5.07-2.707-4.785-9.239-4.513-15.554c0.063-1.367,0.119-2.787,0.119-4.104v-20.969c0-0.199,0.033-0.401,0.104-0.589
					c2.986-8.457,12.744-9.594,21.901-9.594c2.981,0,6.135,0.135,8.923,0.25c2.223-0.029,73.072-0.865,121.682-0.865
					c43.783,0,45.757,0.673,46.604,0.961c9.95,3.394,14.254,20.478,14.048,34.923c-0.069,4.694-0.778,15.792-5.943,17.384
					C411.117,369.494,410.422,369.602,409.705,369.602z M381.048,351.833c6.897,0,13.024,4.569,18.427,8.601
					c3.871,2.881,7.521,5.607,10.23,5.607l0,0c0.365,0,0.699-0.049,1.023-0.148c1.345-0.418,3.303-5.052,3.434-14.041
					c0.101-6.881-0.923-14.084-2.807-19.748c-1.49-4.494-4.24-10.179-8.832-11.748c-1.042-0.283-8.365-0.77-45.454-0.77
					c-49.12,0-120.964,0.854-121.686,0.864c-0.03,0-0.063,0-0.097-0.003c-2.766-0.112-5.9-0.247-8.822-0.247
					c-11.01,0-16.559,2.079-18.445,6.942v20.647c0,1.399-0.06,2.854-0.123,4.263c-0.235,5.391-0.455,10.491,2.532,12.198
					c0.37,0.131,0.768,0.194,1.207,0.194c3.606,0,8.725-4.104,12.827-7.395c3.472-2.783,6.201-4.978,8.38-5.203
					c1.039-0.113,2.077-0.17,3.087-0.17c8.929,0,15.167,4.309,20.673,8.111c4.67,3.23,8.707,6.021,13.688,6.021
					c3.669-0.004,8.118-2.748,12.834-5.66c4.667-2.877,9.489-5.851,14.724-7.103c3.009-0.721,5.982-1.087,8.842-1.087
					c9.66,0,17.065,4.125,23.601,7.771c5.639,3.143,10.959,6.103,16.978,6.103c0.333,0,0.657-0.005,0.991-0.022
					c5.294-0.276,10.479-3.609,15.489-6.826c5.443-3.498,11.071-7.113,17.206-7.154L381.048,351.833L381.048,351.833z"/>
			</g>
		</g>
		<g>
			<g>
				<path fill="#623214" d="M402.105,376.988c0,13.978,0,27.953,0,41.932c6.089,1.678,13.596,1.934,17.471,5.821
					c2.252,4.352,2.779,10.427,2.331,17.474c-75.322,0-150.654,0-225.978,0c-2.144-16.121,4.338-23.619,19.802-22.13
					c0-14.757,0-29.508,0-44.267c9.55-4.514,15.001-7.161,24.461-5.82c9.782,1.383,17.272,9.923,26.794,10.482
					c14.951,0.883,28.383-11.938,44.263-10.482c15.639,1.432,20.869,11.934,38.44,10.482
					C366.147,379.122,383.98,360.325,402.105,376.988z"/>
			</g>
			<g>
				<path fill="#27140E" d="M421.907,443.998H195.93c-0.896,0-1.644-0.662-1.763-1.544c-1.136-8.545,0.097-14.94,3.672-19.021
					c3.083-3.522,7.872-5.31,14.228-5.31c0.613,0,1.241,0.012,1.884,0.045v-42.35c0-0.685,0.403-1.309,1.02-1.606l0.348-0.161
					c7.872-3.725,13.073-6.18,20.205-6.18c1.573,0,3.184,0.119,4.921,0.363c5.029,0.713,9.394,3.138,13.614,5.479
					c4.368,2.43,8.493,4.721,13.032,4.988c0.455,0.029,0.919,0.041,1.388,0.041c6.352,0,12.463-2.473,18.935-5.092
					c6.748-2.729,13.728-5.553,21.297-5.553c0.904,0,1.812,0.049,2.701,0.122c7.219,0.666,12.281,3.15,17.175,5.558
					c5.305,2.597,10.315,5.06,17.863,5.06l0,0c0.997,0,2.039-0.049,3.093-0.131c5.019-0.416,10.227-2.56,15.741-4.835
					c6.576-2.717,13.376-5.516,20.418-5.516c6.489,0,12.251,2.392,17.608,7.319c0.365,0.336,0.578,0.813,0.578,1.312v40.55
					c1.271,0.303,2.604,0.563,3.909,0.825c4.856,0.953,9.871,1.938,13.043,5.126c0.126,0.127,0.239,0.271,0.316,0.438
					c2.22,4.285,3.045,10.304,2.529,18.4C423.622,443.268,422.849,443.998,421.907,443.998z M197.511,440.436h222.71
					c0.263-6.423-0.426-11.219-2.095-14.622c-2.444-2.275-6.801-3.129-11.02-3.962c-1.819-0.354-3.701-0.728-5.475-1.213
					c-0.771-0.214-1.307-0.912-1.307-1.72v-41.135c-4.507-3.946-9.296-5.874-14.628-5.874c-6.332,0-12.805,2.672-19.062,5.253
					c-5.519,2.274-11.23,4.633-16.802,5.093c-1.151,0.094-2.29,0.143-3.389,0.143l0,0c-8.377,0-13.996-2.758-19.433-5.43
					c-4.815-2.365-9.367-4.6-15.928-5.199c-0.781-0.072-1.581-0.108-2.38-0.108c-6.878,0-13.533,2.69-19.967,5.294
					c-6.498,2.627-13.227,5.346-20.266,5.346c-0.539,0-1.068-0.011-1.596-0.041c-5.348-0.316-10.027-2.922-14.557-5.433
					c-4.117-2.285-8.002-4.449-12.375-5.065c-1.577-0.221-3.022-0.332-4.428-0.332c-6.143,0-10.943,2.182-18.008,5.522v43.133
					c0,0.501-0.217,0.979-0.583,1.32c-0.373,0.332-0.871,0.5-1.367,0.455c-7.096-0.688-12.173,0.632-15.05,3.919
					C197.852,428.82,196.842,433.749,197.511,440.436z"/>
			</g>
		</g>
		<g>
			<g>
				<path fill="#4E4E4E" d="M215.87,420.084c-15.467-1.49-21.942,6.009-19.802,22.13c75.327,0,150.655,0,225.977,0
					c0.452-7.047-0.075-13.122-2.327-17.474c-3.875-3.889-11.385-4.145-17.475-5.821L215.87,420.084z"/>
			</g>
			<g>
				<path fill="#27140E" d="M422.045,443.998H196.068c-0.885,0-1.645-0.662-1.764-1.544c-1.136-8.545,0.098-14.94,3.678-19.021
					c3.657-4.185,9.684-5.907,17.967-5.126l186.283-1.166c0.167-0.004,0.324,0.02,0.481,0.067c1.647,0.446,3.463,0.808,5.219,1.153
					c4.856,0.953,9.871,1.939,13.043,5.127c0.132,0.127,0.235,0.271,0.317,0.438c2.22,4.285,3.05,10.304,2.53,18.4
					C423.764,443.268,422.987,443.998,422.045,443.998z M197.648,440.436H420.36c0.266-6.423-0.427-11.227-2.101-14.622
					c-2.442-2.275-6.797-3.129-11.015-3.962c-1.737-0.344-3.531-0.693-5.234-1.149l-186.126,1.161c-0.064,0-0.124,0-0.184-0.003
					c-7.095-0.688-12.173,0.632-15.049,3.919C197.988,428.82,196.98,433.749,197.648,440.436z"/>
			</g>
		</g>
		<g>
			<g>
				<path fill="#FDD71E" d="M306.228,230.301c14.952,7.095,34.372,40.842,8.152,48.922c7.849-6.578-0.079-18.539-5.829-22.134
					c-1.244,5.741-6.239,7.733-8.148,12.812c-0.899,5.556,1.641,7.678,4.655,9.322c-9.44,0.061-16.001-9.604-15.144-18.641
					C291.021,248.999,308.577,243.154,306.228,230.301z"/>
			</g>
			<g>
				<path fill="#27140E" d="M304.976,281.005c-4.42,0-8.589-1.921-11.759-5.401c-3.691-4.062-5.589-9.744-5.072-15.188
					c0.56-5.85,4.699-10.209,8.701-14.421c4.502-4.745,8.753-9.217,7.629-15.376c-0.123-0.652,0.14-1.326,0.664-1.728
					c0.531-0.411,1.241-0.486,1.852-0.202c10.777,5.123,23.016,22.318,22.027,36.004c-0.399,5.543-3.173,12.859-14.114,16.23
					c-0.812,0.249-1.683-0.107-2.085-0.852c-0.407-0.741-0.229-1.67,0.419-2.215c1.944-1.633,2.809-3.685,2.63-6.271
					c-0.303-4.376-3.493-8.953-6.415-11.571c-1.005,2.246-2.511,3.924-3.878,5.453c-1.379,1.541-2.69,2.997-3.441,4.897
					c-0.672,4.476,1.229,5.905,3.78,7.295c0.711,0.392,1.073,1.21,0.871,1.997c-0.198,0.786-0.9,1.337-1.711,1.347H304.976
					L304.976,281.005z M308.191,233.471c-0.382,6.143-4.793,10.79-8.766,14.971c-3.751,3.953-7.296,7.685-7.742,12.313
					c-0.425,4.464,1.133,9.119,4.172,12.454c1.004,1.105,2.13,2.011,3.336,2.691c-0.702-1.6-0.976-3.627-0.551-6.281
					c0.021-0.117,0.055-0.234,0.091-0.344c0.982-2.605,2.611-4.426,4.188-6.183c1.704-1.899,3.312-3.696,3.896-6.38
					c0.119-0.57,0.517-1.039,1.047-1.265c0.533-0.226,1.146-0.173,1.637,0.131c4.532,2.845,9.485,9.515,9.919,15.759
					c0.09,1.361-0.029,2.652-0.362,3.857c3.923-2.478,6.068-6.079,6.407-10.766C326.25,253.549,317.152,239.438,308.191,233.471z"/>
			</g>
		</g>
	</g>
</g>
</svg>
