<?xml version="1.0" encoding="utf-8"?>
<!-- Generator: Adobe Illustrator 16.0.0, SVG Export Plug-In . SVG Version: 6.00 Build 0)  -->
<!DOCTYPE svg PUBLIC "-//W3C//DTD SVG 1.1//EN" "http://www.w3.org/Graphics/SVG/1.1/DTD/svg11.dtd">
<svg version="1.1" id="Layer_1" xmlns="http://www.w3.org/2000/svg" xmlns:xlink="http://www.w3.org/1999/xlink" x="0px" y="0px"
	 width="500px" height="500px" viewBox="0 0 500 500" enable-background="new 0 0 500 500" xml:space="preserve">
<g id="Layer_1_copy_76">
	<g>
		<path fill="#FCC495" d="M210.087,210.57c0,0,0.553,23.456-10.095,29.609c-10.649,6.146-15.902,77.313-15.902,77.313
			l128.126,22.884l-13.978-82.56l-15.355-25.341c0,0-5.072-8.142-2.219-21.905C283.521,196.806,209.989,199.511,210.087,210.57z"/>
		<path fill="#28180E" d="M315.881,344.072l-134.978-24.102l0.197-2.699c1.26-17.065,6.24-73.248,17.394-79.688
			c7.453-4.304,8.735-20.912,8.597-26.946c-0.011-1.146,0.316-2.802,1.935-4.435c6.235-6.288,28.269-7.962,40.299-7.962
			c10.047,0,27.675,0.945,32.846,7.296c1.353,1.667,1.849,3.617,1.427,5.642c-2.545,12.281,1.659,19.432,1.838,19.731l15.663,25.847
			l0.094,0.564L315.881,344.072z M187.284,315.02l121.267,21.658l-13.174-77.795L280.32,234.03
			c-0.215-0.344-5.652-9.299-2.59-24.068c0.033-0.157,0.061-0.306-0.213-0.639c-1.992-2.451-11.668-5.092-28.193-5.092
			c-20.213,0-34.866,3.777-36.237,6.415c0.06,3.202,0.049,25.399-11.594,32.127C195.837,246.038,189.923,281.573,187.284,315.02z"/>
	</g>
	<g>
		<g>
			<path fill="#FCC394" d="M315.758,121.387c-0.879,0-1.726,0.213-2.545,0.535c-3.201-18.655-2.081-78.887-74.959-77.261
				c-78.271-0.033-71.828,54.96-75.374,80.519c-1.404-1.068-2.955-1.715-4.618-1.715c-5.959,0-10.797,7.768-10.797,17.34
				c0,9.576,4.838,17.34,10.797,17.34c1.79,0,3.448-0.758,4.929-1.992c6.721,41.184,37.747,72.344,75.063,72.344
				c37.479,0,68.602-31.429,75.136-72.878c0.766,0.273,1.555,0.444,2.368,0.444c5.967,0,10.807-7.76,10.807-17.336
				C326.562,129.151,321.725,121.387,315.758,121.387z"/>
		</g>
		<g>
			<path fill="#291911" d="M238.254,231.489c-36.921,0-68.847-29.504-77.265-70.744c-0.893,0.265-1.801,0.399-2.728,0.399
				c-7.73,0-13.791-8.933-13.791-20.34c0-11.403,6.061-20.336,13.791-20.336c0.717,0,1.42,0.079,2.119,0.239
				c0.19-1.973,0.358-4.076,0.534-6.25c2.175-27.222,5.821-72.789,77.265-72.789c1.005-0.022,1.979-0.034,2.943-0.034
				c65.347,0,71.28,49.292,74.13,72.979c0.165,1.356,0.317,2.619,0.468,3.777c0.011,0,0.026,0,0.037,0
				c7.737,0,13.798,8.933,13.798,20.336c0,11.366-6.02,20.273-13.716,20.333C307.957,201.211,275.739,231.489,238.254,231.489z
				 M165.305,150.484l0.849,5.182c6.594,40.463,36.917,69.83,72.101,69.83c35.396,0,65.75-29.584,72.176-70.345l0.564-3.579
				l3.411,1.225c0.501,0.183,0.94,0.269,1.353,0.269c3.691,0,7.806-5.892,7.806-14.339c0-8.455-4.113-14.343-7.806-14.343
				c-0.407,0-0.885,0.105-1.453,0.329l-3.423,1.337l-0.624-3.621c-0.34-1.991-0.623-4.356-0.956-7.099
				c-2.848-23.662-8.142-67.704-68.179-67.704c-0.923,0-1.854,0.011-2.802,0.03c-66.052,0-69.164,38.886-71.436,67.282
				c-0.308,3.837-0.594,7.457-1.04,10.655l-0.702,5.074l-4.079-3.104c-0.964-0.729-1.906-1.103-2.803-1.103
				c-3.688,0-7.801,5.892-7.801,14.343c0,8.455,4.113,14.343,7.801,14.343c0.964,0,1.98-0.434,3.012-1.296L165.305,150.484z"/>
		</g>
	</g>
	<g>
		<path fill="#110D0A" d="M210.732,135.364c0,5.811-3.766,10.525-8.409,10.525c-4.648,0-8.411-4.715-8.411-10.525
			c0-5.81,3.763-10.521,8.411-10.521C206.967,124.843,210.732,129.554,210.732,135.364z"/>
	</g>
	<g>
		<path fill="#FFFFFA" d="M204.061,135.368c0,2.025-1.517,3.662-3.389,3.662c-1.88,0-3.396-1.636-3.396-3.662
			c0-2.025,1.517-3.661,3.396-3.661C202.544,131.707,204.061,133.343,204.061,135.368z"/>
	</g>
	<g>
		<path fill="#110D0A" d="M279.285,135.364c0,5.811-3.77,10.525-8.41,10.525c-4.648,0-8.414-4.715-8.414-10.525
			c0-5.81,3.766-10.521,8.414-10.521C275.516,124.843,279.285,129.554,279.285,135.364z"/>
	</g>
	<g>
		<path fill="#FFFFFA" d="M272.611,135.368c0,2.025-1.521,3.662-3.393,3.662c-1.876,0-3.393-1.636-3.393-3.662
			c0-2.025,1.517-3.661,3.393-3.661C271.091,131.707,272.611,133.343,272.611,135.368z"/>
	</g>
	<g>
		<path fill="#844A1F" d="M227.353,157.423c0,0,11.089,1.647,12.613-4.54c1.531-6.191,0-18.304,0-18.304s6.882,9.225,3.44,20.37
			C239.966,166.09,222.058,157.333,227.353,157.423z"/>
	</g>
	<g opacity="0.7">
		<g>
			<path fill="#F9A780" d="M204.063,158.473c0,3.759-4.752,6.807-10.617,6.807c-5.866,0-10.615-3.048-10.615-6.807
				c0-3.762,4.749-6.808,10.615-6.808C199.312,151.665,204.063,154.71,204.063,158.473z"/>
		</g>
	</g>
	<g opacity="0.7">
		<g>
			<path fill="#F9A780" d="M295.898,157.733c0,3.766-4.76,6.811-10.625,6.811c-5.861,0-10.613-3.045-10.613-6.811
				c0-3.759,4.752-6.807,10.613-6.807C291.141,150.926,295.898,153.974,295.898,157.733z"/>
		</g>
	</g>
	<g>
		<path fill="#FFFFFD" d="M215.104,184.555c0,0,4.973,19.398,22.552,18.572c17.586-0.829,24.207-18.572,24.207-18.572
			s-7.766,9.299-24.207,9.299C220.772,193.854,215.104,184.555,215.104,184.555z"/>
	</g>
	<g>
		<path fill="#A9A8A8" d="M190.26,123.292c0,0,3.821-5.365,11.084-4.745c7.264,0.617,8.033,2.063,8.41-1.857
			c0.382-3.926-3.056-4.745-8.41-4.124C195.994,113.182,185.67,124.537,190.26,123.292z"/>
	</g>
	<g>
		<path fill="#A9A8A8" d="M283.848,123.292c0,0-3.822-5.365-11.086-4.745c-7.264,0.617-8.029,2.063-8.414-1.857
			c-0.373-3.926,3.062-4.745,8.414-4.124C278.115,113.182,288.432,124.537,283.848,123.292z"/>
	</g>
	<g opacity="0.7">
		<path fill="#6B6C6C" d="M187.266,133.35c-0.074,0-0.148-0.007-0.224-0.026l-8.657-1.995c-0.538-0.127-0.874-0.661-0.751-1.199
			c0.128-0.538,0.662-0.871,1.2-0.748l8.656,1.995c0.534,0.124,0.875,0.662,0.75,1.199
			C188.133,133.037,187.722,133.35,187.266,133.35z"/>
	</g>
	<g opacity="0.7">
		<path fill="#6B6C6C" d="M179.483,141.293c-0.388,0-0.755-0.228-0.907-0.609c-0.199-0.497,0.041-1.069,0.545-1.271l8.056-3.239
			c0.497-0.198,1.068,0.041,1.27,0.542c0.199,0.501-0.044,1.069-0.545,1.271l-8.055,3.239
			C179.73,141.275,179.603,141.293,179.483,141.293z"/>
	</g>
	<g opacity="0.7">
		<path fill="#6B6C6C" d="M284.99,133.463c-0.445,0-0.844-0.307-0.949-0.759c-0.123-0.523,0.206-1.05,0.729-1.169l8.463-1.958
			c0.529-0.124,1.05,0.206,1.172,0.732c0.119,0.526-0.204,1.053-0.731,1.172l-8.458,1.954
			C285.141,133.451,285.064,133.463,284.99,133.463z"/>
	</g>
	<g opacity="0.7">
		<path fill="#6B6C6C" d="M293.251,141.182c-0.12,0-0.246-0.022-0.366-0.071l-8.055-3.239c-0.501-0.202-0.744-0.77-0.539-1.27
			c0.199-0.501,0.766-0.744,1.271-0.542l8.051,3.239c0.505,0.206,0.742,0.77,0.541,1.271
			C294.006,140.95,293.636,141.182,293.251,141.182z"/>
	</g>
	<g opacity="0.7">
		<path fill="#6B6C6C" d="M250.464,101.891c-5.021,0-9.441-1.669-9.703-1.771c-6.176-2.473-11.833-0.045-11.892-0.019
			c-0.501,0.224-1.092-0.008-1.315-0.512c-0.22-0.504,0.004-1.09,0.508-1.315c0.262-0.116,6.456-2.806,13.429-0.015
			c0.071,0.03,8.368,3.149,14.571,0.666c0.512-0.206,1.095,0.044,1.299,0.556c0.201,0.516-0.045,1.095-0.557,1.297
			C254.762,101.6,252.561,101.891,250.464,101.891z"/>
	</g>
	<g opacity="0.7">
		<path fill="#6B6C6C" d="M247.662,97.726c-3.562,0-6.684-1.708-6.868-1.809c-4.117-2.392-7.845-0.048-7.88-0.026
			c-0.388,0.247-0.903,0.135-1.146-0.247c-0.25-0.388-0.139-0.9,0.247-1.15c0.187-0.12,4.625-2.903,9.602-0.019
			c0.041,0.026,5.612,3.056,9.744,0.666c0.389-0.229,0.9-0.098,1.132,0.302c0.229,0.396,0.095,0.904-0.304,1.132
			C250.729,97.427,249.156,97.726,247.662,97.726z"/>
	</g>
	<g>
		<g>
			<path fill="#281912" d="M248.264,129.883c-13.776-9.292-21.98-0.818-22.32-0.456l-4.42-4.042
				c0.116-0.13,11.91-12.74,30.092-0.467L248.264,129.883z"/>
		</g>
		<g>
			
				<rect x="301.779" y="112.238" transform="matrix(-0.2167 -0.9762 0.9762 -0.2167 250.1983 447.8574)" fill="#281912" width="5.989" height="22.629"/>
		</g>
		<g>
			<polygon fill="#281912" points="179.162,128.579 156.558,124.518 157.619,118.615 180.224,122.684 			"/>
		</g>
		<g>
			<path fill="#281912" d="M201.874,162.926c-14.399,0-26.111-13.084-26.111-29.161c0-16.081,11.712-29.165,26.111-29.165
				c14.396,0,26.108,13.084,26.108,29.165C227.982,149.842,216.271,162.926,201.874,162.926z M201.874,110.593
				c-11.092,0-20.118,10.394-20.118,23.172c0,12.774,9.026,23.168,20.118,23.168c11.094,0,20.115-10.394,20.115-23.168
				C221.989,120.987,212.968,110.593,201.874,110.593z"/>
		</g>
		<g>
			<path fill="#281912" d="M271.848,162.926c-14.396,0-26.109-13.084-26.109-29.161c0-16.081,11.712-29.165,26.109-29.165
				c14.401,0,26.114,13.084,26.114,29.165C297.962,149.842,286.249,162.926,271.848,162.926z M271.848,110.593
				c-11.094,0-20.117,10.394-20.117,23.172c0,12.774,9.023,23.168,20.117,23.168c11.096,0,20.125-10.394,20.125-23.168
				C291.973,120.987,282.943,110.593,271.848,110.593z"/>
		</g>
	</g>
	<g>
		<path fill="#A9A8A8" d="M299.162,71.139c0,0,15.087-3.048,23.429,5.175c8.352,8.216,11.444,13.252,5.467,19.746
			c-5.979,6.497,13.967,16.652,2.385,27.33c-11.579,10.678-18.043,11.235-22.873,4.827c-4.835-6.4-1.294-15.636-1.667-18.397
			c-0.386-2.761-12.604-5.425-10.229-11.885c2.375-6.463,4.232-12.923-2.604-15.172C286.238,80.517,287.041,74.229,299.162,71.139z"
			/>
	</g>
	<g>
		<path fill="#A9A8A8" d="M178.759,72.129c0,0-14.967-4.039-23.31,4.185c-8.352,8.216-11.444,13.252-5.467,19.746
			c5.979,6.497-11.148,14.351,0.434,25.033c11.579,10.678,15.226,13.532,20.053,7.125c4.837-6.4,1.3-15.636,1.67-18.397
			c0.381-2.761,12.602-5.425,10.229-11.885c-2.376-6.463-4.233-12.923,2.604-15.172C191.799,80.517,190.883,75.219,178.759,72.129z"
			/>
	</g>
	<g>
		<path fill="#A9A8A8" d="M211.495,205.183c3.624,7.319,10.331,10.151,17.471,12.098c1.797,0.486,4.939,0.325,5.724-0.785
			c1.069-1.487,0.452-4.177,0.057-6.448c1.124-2.478,3.403-3.512,6.299-2.75c2.062,0.542,3.206,1.599,2.129,4.095
			c-1.897,4.409,0.195,7.099,5.098,6.5c6.129-0.751,11.807-2.567,15.886-7.711c1.55-1.958,3.418-3.669,5.141-5.489
			c0.479,0.079,0.968,0.15,1.449,0.232c0,3.695,0.583,7.51-0.115,11.074c-1.704,8.675-5.937,16.036-14.31,19.81
			c-5.631,2.533-11.78,4.323-18.045,2.94c-6.338-1.397-12.895-2.728-18.625-5.566c-3.423-1.689-6.715-5.852-7.783-9.562
			c-1.651-5.724-1.338-12.004-1.856-18.053C210.506,205.437,210.999,205.313,211.495,205.183z"/>
	</g>
	<g>
		<path fill="#A9A8A8" d="M191.775,173.238c17.523,0.833,31.918-12.912,47.412-1.816c15.588-10.573,29.606,1.812,46.008,2.38
			c-10.282,10.028-21.562,12.969-33.035,9.55c-9.348-2.788-17.283-2.335-26.534,0.116
			C213.868,186.599,202.593,183.393,191.775,173.238z"/>
	</g>
	<g>
		<path fill="#0E6C37" d="M199.992,240.179c0,0,15.314,33.167,42.479,33.167c39.683-3.086,44.554-33.167,44.554-33.167
			s75.182,4.626,86.317,33.167c11.134,28.54,49.419,105.872,0,108.857h-250.62c0,0-61.95,13.018-6.962-110.4
			C138.12,230.667,199.992,240.179,199.992,240.179z"/>
		<path fill="#291911" d="M118.027,385.592c-5.604,0-15.973-1.486-22.443-11.451c-11.292-17.396-5.426-52.234,17.44-103.557
			l0.104-0.213c16.147-29.707,51.734-34.137,71.511-34.137c9.292,0,15.546,0.941,15.808,0.982l1.588,0.243l0.677,1.461
			c0.146,0.313,14.817,31.331,39.645,31.428c36.805-2.918,41.667-30.372,41.711-30.652l0.434-2.678l2.704,0.171
			c3.153,0.191,77.228,5.085,88.926,35.069c1.195,3.053,2.701,6.668,4.375,10.692c11.517,27.682,28.922,69.52,15.883,90.407
			c-4.498,7.203-12.189,11.189-22.864,11.832l-250.521,0.006C122.271,385.328,120.47,385.592,118.027,385.592z M118.452,273.132
			c-27.337,61.388-24.793,87.04-17.84,97.747c4.679,7.211,12.053,8.721,17.415,8.721c2.428,0,4.076-0.328,4.09-0.328l0.606-0.063
			h250.62c8.562-0.522,14.501-3.479,17.964-9.022c11.399-18.263-5.963-59.996-16.335-84.932c-1.695-4.072-3.216-7.73-4.42-10.82
			c-4.181-10.707-19.819-19.51-45.229-25.458c-15.483-3.625-30.274-5.13-35.994-5.615c-0.92,3.116-2.986,8.522-7.338,14.089
			c-6.01,7.688-17.702,17.204-39.287,18.883l-0.231,0.011c-25.634,0-40.968-26.617-44.453-33.398
			c-2.331-0.269-7.165-0.721-13.379-0.721C166.221,242.223,133.147,246.243,118.452,273.132z"/>
	</g>
	<g>
		<g>
			<defs>
				<path id="SVGID_1_" d="M197.496,240.179c0,0,15.314,33.17,42.477,33.17c39.687-3.09,44.554-33.17,44.554-33.17
					s75.181,4.626,86.317,33.17c11.139,28.536,49.423,105.868,0,108.854H120.228c0,0-61.954,13.018-6.961-110.4
					C135.625,230.671,197.496,240.179,197.496,240.179z"/>
			</defs>
			<clipPath id="SVGID_2_">
				<use xlink:href="#SVGID_1_"  overflow="visible"/>
			</clipPath>
			<g clip-path="url(#SVGID_2_)">
				<g>
					<rect x="129.77" y="241.144" fill="#193F1D" width="8.32" height="149.145"/>
					<path fill="#291911" d="M139.087,391.287h-10.318V240.146h10.318V391.287z M130.768,389.292h6.325v-147.15h-6.325V389.292z"/>
				</g>
				<g>
					<rect x="164.038" y="238.144" fill="#193F1D" width="8.324" height="149.15"/>
					<path fill="#291911" d="M173.36,388.293h-10.324V237.146h10.324V388.293z M165.04,386.294h6.32v-147.15h-6.32V386.294z"/>
				</g>
				<g>
					<rect x="198.307" y="238.144" fill="#193F1D" width="8.324" height="149.15"/>
					<path fill="#291911" d="M207.628,388.293H197.31V237.146h10.318V388.293L207.628,388.293z M199.304,386.294h6.33v-147.15h-6.33
						V386.294z"/>
				</g>
				<g>
					<rect x="232.579" y="249.632" fill="#193F1D" width="8.324" height="149.146"/>
					<path fill="#291911" d="M241.9,399.779h-10.323V248.634H241.9V399.779z M233.576,397.779h6.325V250.63h-6.325V397.779z"/>
				</g>
				<g>
					<rect x="266.848" y="249.632" fill="#193F1D" width="8.32" height="149.146"/>
					<path fill="#291911" d="M276.169,399.779h-10.323V248.634h10.323V399.779z M267.846,397.779h6.324V250.63h-6.324V397.779z"/>
				</g>
				<g>
					<rect x="301.116" y="236.338" fill="#193F1D" width="8.324" height="149.148"/>
					<path fill="#291911" d="M310.438,386.49h-10.318V235.341h10.318V386.49z M302.116,384.49h6.326V237.34h-6.326V384.49z"/>
				</g>
				<g>
					<rect x="335.384" y="238.144" fill="#193F1D" width="8.324" height="149.15"/>
					<path fill="#291911" d="M344.71,388.293h-10.323V237.146h10.323V388.293z M336.386,386.294h6.325v-147.15h-6.325V386.294z"/>
				</g>
				<g>
					<rect x="369.657" y="244.136" fill="#193F1D" width="8.323" height="149.148"/>
					<path fill="#291911" d="M378.979,394.287h-10.319V243.139h10.319V394.287z M370.654,392.288h6.328v-147.15h-6.328V392.288z"/>
				</g>
				<g>
					<rect x="95.497" y="256.623" fill="#193F1D" width="8.324" height="149.146"/>
					<path fill="#291911" d="M104.819,406.77H94.5V255.625h10.319V406.77z M96.499,404.77h6.321V257.621h-6.321V404.77z"/>
				</g>
			</g>
		</g>
	</g>
	<g>
		<path fill="#291911" d="M118.362,385.598c-5.607,0-15.979-1.488-22.446-11.453c-11.295-17.396-5.425-52.238,17.44-103.561
			l0.104-0.213c16.147-29.703,51.736-34.137,71.511-34.137c9.292,0,15.547,0.945,15.808,0.986l1.588,0.243l0.673,1.458
			c0.146,0.313,14.818,31.335,39.645,31.429c36.806-2.914,41.67-30.369,41.715-30.648l0.431-2.678l2.708,0.167
			c3.148,0.195,77.227,5.089,88.925,35.072c1.195,3.053,2.698,6.67,4.376,10.693c11.516,27.681,28.923,69.52,15.883,90.404
			c-4.499,7.207-12.194,11.188-22.864,11.836L123.336,385.2C122.604,385.331,120.803,385.598,118.362,385.598z M118.781,273.132
			c-27.334,61.388-24.79,87.04-17.841,97.747c4.683,7.211,12.054,8.725,17.422,8.725c2.426,0,4.07-0.328,4.084-0.332l0.609-0.063
			h250.616c8.568-0.522,14.505-3.476,17.965-9.021c11.402-18.266-5.96-59.998-16.331-84.935c-1.695-4.067-3.217-7.728-4.424-10.815
			c-4.177-10.711-19.82-19.515-45.228-25.458c-15.486-3.625-30.274-5.13-35.999-5.616c-0.914,3.116-2.979,8.521-7.336,14.09
			c-6.01,7.689-17.699,17.204-39.282,18.882l-0.232,0.008c-25.634,0-40.967-26.617-44.454-33.394
			c-2.331-0.269-7.165-0.721-13.379-0.721C166.549,242.227,133.479,246.243,118.781,273.132z"/>
	</g>
	<g>
		<g>
			<g>
				<path fill="#FAA625" d="M318.127,268.471c0,9.406-4.297,17.028-9.595,17.028c-5.302,0-9.595-7.622-9.595-17.028
					c0-9.4,4.293-17.025,9.595-17.025C313.83,251.445,318.127,259.07,318.127,268.471z"/>
			</g>
			<g>
				<path fill="#27140E" d="M308.532,285.75c-5.431,0-9.842-7.753-9.842-17.279c0-9.523,4.411-17.272,9.842-17.272
					c5.424,0,9.841,7.749,9.841,17.272C318.373,277.998,313.956,285.75,308.532,285.75z M308.532,251.691
					c-5.156,0-9.35,7.527-9.35,16.779c0,9.254,4.192,16.778,9.35,16.778c5.15,0,9.345-7.524,9.345-16.778
					C317.877,259.219,313.684,251.691,308.532,251.691z"/>
			</g>
		</g>
		<g>
			<g>
				<path fill="#6D7EBE" d="M298.598,316.141c0-12.133,0-24.268,0-36.397c6.814,0,13.634,0,20.447,0c0,11.683,0,24.438,0,36.124
					L298.598,316.141z"/>
			</g>
			<g>
				<path fill="#27140E" d="M298.598,317.878c-0.46,0-0.896-0.18-1.226-0.501c-0.329-0.329-0.513-0.773-0.513-1.236v-36.397
					c0-0.961,0.776-1.737,1.737-1.737h20.447c0.961,0,1.738,0.776,1.738,1.737v36.124c0,0.945-0.764,1.724-1.711,1.734
					l-20.452,0.276C298.612,317.878,298.604,317.878,298.598,317.878z M300.33,281.475v32.905l16.981-0.228v-32.678H300.33
					L300.33,281.475z"/>
			</g>
		</g>
		<g>
			<g>
				<rect x="217.978" y="341.396" fill="#894620" width="181.796" height="65.34"/>
			</g>
			<g>
				<path fill="#27140E" d="M399.773,408.473H217.978c-0.956,0-1.737-0.775-1.737-1.736v-65.34c0-0.955,0.781-1.736,1.737-1.736
					h181.796c0.957,0,1.737,0.781,1.737,1.736v65.34C401.512,407.697,400.73,408.473,399.773,408.473z M219.715,405.001h178.322
					V343.13H219.715V405.001z"/>
			</g>
		</g>
		<g>
			<g>
				<path fill="#F0516C" d="M237.126,316.027c-12.654-0.536-25.242-1.004-28.403,7.951c0,6.026,0,13.334,0,20.453
					c0,6.808-1.584,15.004,3.363,17.642c6.986,2.68,18.461-11.499,22.769-11.959c17.351-1.847,24.061,13.645,36.36,13.634
					c7.704-0.008,17.061-10.055,27.268-12.498c23.015-5.516,32.789,13.342,48.857,12.498c11.344-0.594,20.945-13.57,31.813-13.634
					c11.935-0.071,22.179,15.913,29.542,13.634c7.364-2.275,6.621-42.746-7.954-47.721
					C395.164,314.124,237.126,316.027,237.126,316.027z"/>
			</g>
			<g>
				<path fill="#27140E" d="M407.19,365.706L407.19,365.706c-3.798,0-7.622-2.854-12.058-6.158
					c-4.839-3.608-10.323-7.698-15.9-7.698h-0.071c-4.974,0.028-9.804,3.133-14.922,6.426c-5.275,3.389-10.725,6.89-16.811,7.205
					c-7.277,0.383-13.166-2.895-19.397-6.369c-6.296-3.508-12.809-7.137-21.326-7.137c-2.52,0-5.149,0.325-7.819,0.965
					c-4.565,1.092-9.03,3.845-13.343,6.508c-5.032,3.102-9.785,6.031-14.328,6.039c-5.955,0-10.521-3.153-15.349-6.494
					c-5.189-3.586-10.555-7.293-18.188-7.293c-0.859,0-1.748,0.045-2.642,0.143c-1.113,0.119-4.027,2.454-6.371,4.33
					c-4.662,3.74-9.945,7.977-14.683,7.977c-0.889,0-1.737-0.152-2.519-0.447c-0.066-0.03-0.131-0.061-0.197-0.09
					c-4.947-2.643-4.67-9.014-4.401-15.17c0.06-1.338,0.119-2.721,0.119-4.008V323.98c0-0.193,0.034-0.39,0.101-0.574
					c2.907-8.246,12.431-9.356,21.361-9.356c2.906,0,5.985,0.128,8.704,0.243c2.167-0.025,71.276-0.845,118.692-0.845
					c42.705,0,44.633,0.657,45.458,0.938c9.707,3.309,13.906,19.973,13.705,34.059c-0.068,4.585-0.766,15.404-5.8,16.963
					C408.564,365.604,407.886,365.706,407.19,365.706z M379.232,348.376c6.729,0,12.707,4.457,17.979,8.388
					c3.772,2.812,7.334,5.471,9.979,5.471l0,0c0.351,0,0.676-0.049,0.988-0.146c1.315-0.406,3.226-4.924,3.355-13.691
					c0.098-6.715-0.904-13.737-2.738-19.269c-1.458-4.383-4.137-9.931-8.616-11.455c-1.017-0.28-8.158-0.755-44.337-0.755
					c-47.914,0-117.993,0.837-118.695,0.846c-0.03,0-0.063,0-0.098,0c-2.693-0.113-5.754-0.244-8.604-0.244
					c-10.738,0-16.149,2.029-17.99,6.771v20.144c0,1.362-0.061,2.782-0.12,4.157c-0.231,5.261-0.444,10.233,2.474,11.899
					c0.355,0.128,0.743,0.188,1.173,0.188c3.521,0,8.507-4.002,12.513-7.211c3.381-2.712,6.05-4.85,8.175-5.078
					c1.013-0.107,2.021-0.164,3.008-0.164c8.713,0,14.795,4.207,20.164,7.914c4.56,3.152,8.496,5.873,13.356,5.873
					c3.576-0.005,7.918-2.68,12.518-5.519c4.551-2.806,9.258-5.705,14.361-6.931c2.938-0.703,5.836-1.062,8.627-1.062
					c9.423,0,16.645,4.027,23.02,7.581c5.495,3.063,10.688,5.955,16.562,5.955c0.318,0,0.64-0.009,0.964-0.022
					c5.163-0.269,10.219-3.52,15.109-6.66c5.31-3.412,10.801-6.942,16.782-6.977L379.232,348.376L379.232,348.376z"/>
			</g>
		</g>
		<g>
			<g>
				<path fill="#623214" d="M399.773,372.912c0,13.634,0,27.271,0,40.904c5.94,1.633,13.264,1.883,17.041,5.68
					c2.192,4.243,2.713,10.165,2.275,17.044c-73.478,0-146.953,0-220.43,0c-2.095-15.729,4.229-23.042,19.316-21.588
					c0-14.392,0-28.783,0-43.179c9.315-4.406,14.631-6.984,23.859-5.681c9.542,1.351,16.851,9.681,26.136,10.228
					c14.586,0.863,27.686-11.644,43.176-10.228c15.255,1.394,20.357,11.644,37.492,10.228
					C364.698,374.994,382.091,356.654,399.773,372.912z"/>
			</g>
			<g>
				<path fill="#27140E" d="M419.091,438.274h-220.43c-0.87,0-1.606-0.645-1.719-1.507c-1.108-8.332,0.098-14.57,3.579-18.552
					c3.008-3.438,7.683-5.182,13.881-5.182c0.594,0,1.21,0.016,1.838,0.049v-41.312c0-0.67,0.389-1.277,0.997-1.565l0.337-0.16
					c7.678-3.632,12.747-6.026,19.708-6.026c1.535,0,3.105,0.115,4.802,0.354c4.901,0.69,9.157,3.062,13.277,5.347
					c4.26,2.369,8.287,4.604,12.712,4.864c0.444,0.026,0.899,0.041,1.352,0.041c6.195,0,12.157-2.413,18.47-4.965
					c6.582-2.664,13.39-5.418,20.772-5.418c0.886,0,1.771,0.041,2.637,0.12c7.039,0.646,11.981,3.07,16.757,5.418
					c5.173,2.531,10.06,4.935,17.42,4.935h0.003c0.973,0,1.99-0.044,3.016-0.127c4.895-0.407,9.979-2.499,15.356-4.72
					c6.413-2.645,13.046-5.379,19.912-5.379c6.329,0,11.952,2.334,17.181,7.144c0.354,0.329,0.563,0.792,0.563,1.277v39.556
					c1.239,0.295,2.54,0.553,3.811,0.805c4.737,0.93,9.633,1.89,12.727,4.998c0.123,0.127,0.231,0.269,0.312,0.43
					c2.161,4.177,2.966,10.051,2.462,17.948C420.76,437.562,420.006,438.274,419.091,438.274z M200.205,434.802h217.236
					c0.259-6.266-0.409-10.946-2.043-14.266c-2.385-2.22-6.633-3.052-10.745-3.862c-1.774-0.348-3.613-0.71-5.339-1.185
					c-0.756-0.21-1.277-0.894-1.277-1.675v-40.131c-4.396-3.849-9.068-5.724-14.271-5.724c-6.176,0-12.485,2.601-18.592,5.122
					c-5.383,2.22-10.957,4.518-16.39,4.966c-1.122,0.093-2.235,0.14-3.304,0.14h-0.004c-8.168,0-13.648-2.69-18.948-5.295
					c-4.701-2.31-9.142-4.486-15.54-5.069c-0.763-0.071-1.543-0.108-2.323-0.108c-6.707,0-13.197,2.626-19.475,5.163
					c-6.34,2.567-12.896,5.22-19.769,5.22c-0.519,0-1.042-0.016-1.558-0.046c-5.213-0.309-9.777-2.846-14.193-5.297
					c-4.017-2.229-7.81-4.343-12.076-4.944c-1.535-0.215-2.944-0.324-4.315-0.324c-5.992,0-10.678,2.131-17.567,5.389v42.077
					c0,0.489-0.209,0.952-0.571,1.284c-0.362,0.33-0.845,0.49-1.33,0.445c-6.919-0.668-11.874,0.616-14.68,3.821
					C200.537,423.469,199.555,428.279,200.205,434.802z"/>
			</g>
		</g>
		<g>
			<g>
				<path fill="#4E4E4E" d="M218.111,414.952c-15.086-1.454-21.403,5.858-19.312,21.588c73.473,0,146.949,0,220.425,0
					c0.438-6.879-0.073-12.801-2.271-17.044c-3.777-3.797-11.104-4.047-17.045-5.68L218.111,414.952z"/>
			</g>
			<g>
				<path fill="#27140E" d="M419.225,438.274H198.8c-0.871,0-1.606-0.645-1.722-1.507c-1.11-8.332,0.096-14.575,3.582-18.552
					c3.568-4.079,9.448-5.765,17.53-5.002l181.707-1.136c0.165-0.003,0.317,0.021,0.472,0.062c1.605,0.44,3.377,0.788,5.089,1.129
					c4.737,0.931,9.635,1.891,12.725,4.998c0.128,0.127,0.229,0.27,0.312,0.43c2.163,4.178,2.971,10.052,2.462,17.949
					C420.898,437.562,420.14,438.274,419.225,438.274z M200.343,434.802H417.58c0.259-6.266-0.414-10.946-2.043-14.266
					c-2.385-2.22-6.636-3.052-10.745-3.862c-1.701-0.333-3.449-0.677-5.107-1.121l-181.562,1.137c-0.06,0-0.115-0.004-0.175-0.008
					c-6.92-0.668-11.874,0.616-14.68,3.821C200.672,423.469,199.689,428.279,200.343,434.802z"/>
			</g>
		</g>
		<g>
			<g>
				<path fill="#FDD71E" d="M306.245,229.827c14.59,6.923,33.533,39.839,7.958,47.719c7.655-6.412-0.078-18.079-5.687-21.588
					c-1.219,5.601-6.091,7.543-7.95,12.497c-0.874,5.422,1.604,7.486,4.543,9.091c-9.211,0.063-15.609-9.366-14.772-18.181
					C291.42,248.063,308.539,242.365,306.245,229.827z"/>
			</g>
			<g>
				<path fill="#27140E" d="M305.027,279.283c-4.309,0-8.377-1.868-11.467-5.264c-3.605-3.965-5.455-9.506-4.951-14.814
					c0.545-5.705,4.586-9.961,8.49-14.071c4.39-4.625,8.536-8.989,7.438-14.997c-0.118-0.639,0.136-1.292,0.649-1.685
					c0.518-0.399,1.216-0.475,1.807-0.194c10.517,4.992,22.45,21.767,21.485,35.116c-0.389,5.405-3.098,12.547-13.768,15.835
					c-0.789,0.241-1.641-0.105-2.036-0.833c-0.393-0.724-0.221-1.627,0.411-2.161c1.901-1.591,2.737-3.594,2.565-6.115
					c-0.294-4.267-3.41-8.73-6.255-11.287c-0.98,2.189-2.45,3.826-3.787,5.32c-1.347,1.501-2.619,2.922-3.355,4.774
					c-0.653,4.366,1.2,5.762,3.688,7.116c0.693,0.383,1.043,1.183,0.853,1.949c-0.194,0.769-0.883,1.303-1.674,1.311H305.027z
					 M308.166,232.92c-0.37,5.993-4.678,10.525-8.549,14.602c-3.661,3.859-7.118,7.498-7.551,12.011
					c-0.416,4.353,1.103,8.896,4.063,12.15c0.979,1.076,2.078,1.957,3.259,2.623c-0.684-1.56-0.952-3.539-0.538-6.129
					c0.02-0.111,0.05-0.224,0.091-0.332c0.955-2.541,2.544-4.314,4.084-6.029c1.657-1.854,3.228-3.603,3.799-6.226
					c0.12-0.557,0.501-1.013,1.021-1.231c0.523-0.221,1.117-0.168,1.597,0.127c4.423,2.771,9.258,9.277,9.676,15.373
					c0.09,1.328-0.025,2.586-0.352,3.764c3.822-2.414,5.918-5.934,6.251-10.5C325.782,252.509,316.904,238.741,308.166,232.92z"/>
			</g>
		</g>
	</g>
</g>
</svg>
