<?xml version="1.0" encoding="utf-8"?>
<!-- Generator: Adobe Illustrator 16.0.0, SVG Export Plug-In . SVG Version: 6.00 Build 0)  -->
<!DOCTYPE svg PUBLIC "-//W3C//DTD SVG 1.1//EN" "http://www.w3.org/Graphics/SVG/1.1/DTD/svg11.dtd">
<svg version="1.1" id="Layer_1" xmlns="http://www.w3.org/2000/svg" xmlns:xlink="http://www.w3.org/1999/xlink" x="0px" y="0px"
	 width="500px" height="500px" viewBox="0 0 500 500" enable-background="new 0 0 500 500" xml:space="preserve">
<g id="Layer_1_copy_12">
	<g>
		<g>
			<path fill="#C0C7C8" d="M131.12,218.83c0,0-43.819,64.271,36.479,73.021c80.302,8.752,16.402-54.651,16.402-54.651
				S156.613,197.961,131.12,218.83z"/>
		</g>
		<g>
			<path fill="#281912" d="M181.409,296.045L181.409,296.045c-4.235,0-9.004-0.288-14.176-0.852
				c-25.459-2.771-41.689-11.383-48.232-25.58c-10.602-22.996,8.514-51.479,9.337-52.682l0.272-0.4l0.377-0.307
				c5.575-4.564,11.688-6.874,18.175-6.874c20.368,0,37.377,22.82,39.418,25.667c4.043,4.046,30.774,31.719,23.681,48.94
				C206.956,291.977,197.25,296.045,181.409,296.045z M133.64,221.116c-2.163,3.366-16.933,27.484-8.522,45.7
				c5.495,11.894,19.911,19.189,42.847,21.688c4.93,0.539,9.452,0.812,13.445,0.812c8.833,0,19.926-1.373,22.627-7.92
				c4.691-11.381-14.586-34.036-22.408-41.809l-0.385-0.458c-0.166-0.23-16.342-23.051-34.081-23.051
				C142.347,216.079,137.92,217.727,133.64,221.116z"/>
		</g>
	</g>
	<g>
		<path fill="#FCC393" d="M182.877,261.761c0,0,1.567,19.661-9.076,25.9c-10.64,6.243-16.909,82.586-16.909,82.586l128.049,23.207
			l-13.967-83.769l-15.348-25.701c0,0-5.066-8.266-2.221-22.225C256.266,247.793,182.776,250.533,182.877,261.761z"/>
		<path fill="#281912" d="M289.044,397.62l-135.757-24.606l0.249-3.047c1.507-18.312,7.293-78.592,18.562-85.209
			c7.238-4.246,7.812-17.848,7.424-22.73l-0.013-0.239c-0.007-1.188,0.343-2.974,2.076-4.718c6.374-6.432,28.456-8.149,40.495-8.149
			c10.073,0,27.768,0.972,33.086,7.488c1.449,1.774,1.982,3.858,1.536,6.026c-2.509,12.313,1.749,19.722,1.795,19.791l15.688,26.281
			L289.044,397.62z M160.502,367.479l120.332,21.812l-13.075-78.423l-15.024-25.16c-0.211-0.346-5.701-9.533-2.624-24.622
			c0.025-0.11,0.038-0.181-0.157-0.423c-1.972-2.412-11.535-5.01-27.872-5.01c-19.517,0-34.049,3.658-35.824,6.25
			c0.182,3.117,0.772,21.902-10.754,28.66C170.023,293.784,163.568,332.376,160.502,367.479z"/>
	</g>
	<g>
		<g>
			<path fill="#FCC393" d="M312.402,161.555c-1.063,0-2.095,0.219-3.081,0.542c-8.464-41.377-45.832-72.561-90.676-72.561
				c-46.024,0-84.083,32.871-91.191,75.877c-1.703-1.091-3.577-1.749-5.587-1.749c-7.209,0-13.061,7.884-13.061,17.602
				c0,9.718,5.852,17.599,13.061,17.599c2.163,0,4.169-0.776,5.963-2.029c8.127,41.793,45.663,73.416,90.815,73.416
				c45.332,0,82.982-31.892,90.895-73.958c0.919,0.281,1.875,0.454,2.862,0.454c7.219,0,13.071-7.876,13.071-17.594
				C325.475,169.436,319.621,161.555,312.402,161.555z"/>
		</g>
		<g>
			<path fill="#281912" d="M218.646,273.618c-44.48,0-82.984-29.989-93.193-71.91c-1.172,0.346-2.372,0.519-3.585,0.519
				c-9.056,0-16.426-9.398-16.426-20.96s7.37-20.968,16.426-20.968c1.033,0,2.052,0.126,3.055,0.377
				c9.214-43.423,47.956-74.504,93.724-74.504c44.402,0,83.09,30.098,93.251,72.029c0.173-0.004,0.337-0.012,0.506-0.012
				c9.061,0,16.435,9.406,16.435,20.964c0,11.65-7.458,21.102-16.648,20.956C302.573,242.898,263.755,273.618,218.646,273.618z
				 M130.147,191.115l0.986,5.08c7.962,40.959,44.769,70.692,87.512,70.692c42.992,0,79.824-29.952,87.587-71.215l0.694-3.7
				l3.602,1.102c0.672,0.208,1.282,0.308,1.874,0.308c5.261,0,9.705-6.517,9.705-14.228c0-7.716-4.444-14.232-9.705-14.232
				c-0.596,0-1.266,0.123-2.04,0.376l-3.585,1.164l-0.758-3.688c-8.28-40.487-45.023-69.872-87.375-69.872
				c-43.919,0-80.87,30.726-87.876,73.061L129.94,171l-4.305-2.751c-6.586-4.223-13.464,3.481-13.464,13.018
				c0,9.664,7.036,17.495,13.733,12.811L130.147,191.115z"/>
		</g>
	</g>
	<g>
		<ellipse fill="#141211" cx="175.172" cy="179.146" rx="10.175" ry="12.73"/>
	</g>
	<g>
		<path fill="#FFFFFA" d="M177.274,179.154c0,2.448-1.836,4.43-4.101,4.43c-2.274,0-4.115-1.982-4.115-4.43
			c0-2.452,1.841-4.434,4.115-4.434C175.438,174.72,177.274,176.702,177.274,179.154z"/>
	</g>
	<g>
		<path fill="#141211" d="M268.277,179.146c0,7.032-4.562,12.73-10.18,12.73s-10.175-5.698-10.175-12.73
			c0-7.028,4.558-12.73,10.175-12.73C263.716,166.416,268.277,172.118,268.277,179.146z"/>
	</g>
	<g>
		<path fill="#FFFFFA" d="M260.208,179.154c0,2.448-1.841,4.43-4.104,4.43c-2.273,0-4.109-1.982-4.109-4.43
			c0-2.452,1.836-4.434,4.109-4.434C258.367,174.72,260.208,176.702,260.208,179.154z"/>
	</g>
	<g>
		<path fill="#834C1F" d="M208.927,202.354c0,0,13.414,1.994,15.266-5.491c1.849-7.488,0-22.143,0-22.143s8.315,11.162,4.158,24.641
			C224.192,212.839,202.525,202.243,208.927,202.354z"/>
	</g>
	<g opacity="0.7">
		<g>
			<path fill="#F9A880" d="M177.274,207.095c0,4.553-5.749,8.242-12.845,8.242c-7.093,0-12.846-3.688-12.846-8.242
				c0-4.549,5.753-8.23,12.846-8.23C171.525,198.865,177.274,202.546,177.274,207.095z"/>
		</g>
	</g>
	<g opacity="0.7">
		<g>
			<path fill="#F9A880" d="M288.372,206.208c0,4.557-5.752,8.238-12.845,8.238c-7.098,0-12.854-3.681-12.854-8.238
				c0-4.554,5.756-8.239,12.854-8.239C282.62,197.969,288.372,201.654,288.372,206.208z"/>
		</g>
	</g>
	<g>
		<path fill="#FFFFFF" d="M191.356,218.83c0,0,6.018,23.461,27.289,22.466c21.267-1.003,29.278-22.466,29.278-22.466
			s-9.397,11.25-29.278,11.25C198.215,230.08,191.356,218.83,191.356,218.83z"/>
	</g>
	<g>
		<path fill="#301E12" d="M160.571,164.541c0,0,4.627-6.486,13.418-5.744c8.787,0.757,9.709,2.505,10.17-2.244
			c0.458-4.742-3.695-5.737-10.17-4.988C167.51,152.31,155.027,166.047,160.571,164.541z"/>
	</g>
	<g>
		<path fill="#301E12" d="M273.791,164.541c0,0-4.622-6.486-13.406-5.744c-8.787,0.757-9.714,2.505-10.171-2.244
			c-0.466-4.742,3.699-5.737,10.171-4.988C266.861,152.31,279.343,166.047,273.791,164.541z"/>
	</g>
	<g>
		<path fill="#BBE2D5" d="M171.695,291.852c0,0-11.421,49.352,40.498,47.688c58.521-1.877,44.411-31.193,45.905-51.416
			c0,0-5.353-1.007,43.319,10.229c48.674,11.236,64.397,24.711,71.887,118.311c3.746,26.963-36.693,20.224-36.693,20.224
			l-242.625,1.612c0,0-34.442,8.12-26.954-30.068C74.521,370.248,69.825,292.796,171.695,291.852z"/>
		<path fill="#281912" d="M86.821,442.583c-8.362,0-14.981-2.675-19.155-7.75c-4.952-6.019-6.277-15.117-3.938-27.054
			c0.958-4.881,1.726-10.52,2.54-16.481c5.533-40.604,13.895-101.965,105.394-102.813l4.276-0.039l-0.965,4.162
			c-0.043,0.191-4.384,19.854,5.714,32.521c5.867,7.354,15.611,11.081,28.974,11.081c0.792,0,1.6-0.013,2.425-0.038
			c19.217-0.613,31.565-4.204,37.76-10.971c6.145-6.717,5.626-15.899,5.072-25.619c-0.169-2.959-0.338-5.996-0.296-8.932
			l-0.269-0.082l0.242-2.945l0.448-3.859l3.677,1.057l2.959,0.555l-0.02,0.229c4.191,1.021,14.656,3.506,40.511,9.472
			c51.938,11.987,67.058,28.438,74.488,121.323c0.897,6.441-0.478,11.931-4.112,16.106c-9.989,11.469-33.24,8.193-36.189,7.746
			L94.355,441.86C93.321,442.073,90.428,442.583,86.821,442.583z M167.714,295.293c-81.915,2.471-89.332,56.959-94.779,96.911
			c-0.826,6.067-1.606,11.797-2.601,16.868c-1.934,9.863-1.084,17.098,2.527,21.487c3.604,4.371,9.58,5.296,13.96,5.296
			c3.615,0,6.374-0.633,6.401-0.635l0.744-0.09l242.908-1.615l0.283,0.05c0.044,0.007,4.323,0.706,9.794,0.706
			c9.762,0,17.046-2.197,20.52-6.191c2.332-2.675,3.151-6.26,2.498-10.957c-7.484-93.52-23.062-104.816-69.31-115.49
			c-19.558-4.514-32.882-7.628-39.315-9.185c0.032,2.155,0.158,4.417,0.293,6.752c0.576,10.188,1.232,21.735-6.828,30.543
			c-7.479,8.181-21.391,12.481-42.509,13.155c-0.899,0.031-1.774,0.043-2.641,0.043c-15.534,0-27.062-4.594-34.261-13.652
			C166.308,317.855,166.804,302.594,167.714,295.293z"/>
	</g>
	<g>
		<g>
			<path fill="#C0C7C8" d="M322.146,174.72c0,0,7.984,2.578,6.489-19.389c-1.503-21.969-2.497-115.817-83.372-119.813
				c-80.874-3.996-116.934,21.576-125.898,69.646c-7.573,40.697,0.097,51.163,0,61.372c0,0,6.469,11.262,14.889-1.874
				c8.406-13.137,53.379-73.646,86.419-75.081c33.044-1.435,83.521,81.013,83.521,81.013S312.621,177.16,322.146,174.72z"/>
		</g>
		<g>
			<path fill="#281912" d="M317.774,178.627c-8.646,0-15.369-5.16-15.65-5.379l-0.479-0.377l-0.322-0.522
				c-13.529-22.091-54.235-79.423-79.788-79.423c-0.237,0-0.479,0.006-0.709,0.016c-30.985,1.347-74.601,59.269-83.741,73.532
				c-3.362,5.252-7.1,7.919-11.112,7.919c-5.802,0-9.151-5.549-9.517-6.183l-0.458-0.791l0.008-0.915
				c0.022-2.397-0.474-4.944-1.096-8.168c-1.795-9.303-4.511-23.366,1.149-53.788c9.138-48.99,46.192-72.802,113.295-72.802
				c5.146,0,10.557,0.138,16.08,0.411c79.724,3.938,84.687,90.563,86.32,119.028c0.087,1.479,0.161,2.792,0.237,3.915
				c0.711,10.432-0.51,17.179-3.735,20.634c-1.471,1.575-3.377,2.444-5.362,2.444c-0.223,0-0.434-0.012-0.621-0.035
				C320.81,178.466,319.3,178.627,317.774,178.627z M306.697,168.246c1.375,0.929,5.848,3.654,11.077,3.654
				c1.215,0,2.4-0.154,3.537-0.446l0.942-0.238l0.686,0.223c0.079-0.027,0.218-0.107,0.398-0.3
				c0.652-0.703,2.735-3.904,1.939-15.581c-0.08-1.141-0.157-2.479-0.243-3.984C323.488,124.6,318.781,42.521,245.1,38.878
				c-74.461-3.668-113.189,17.385-122.423,66.901c-5.428,29.168-2.858,42.474-1.156,51.281c0.589,3.043,1.104,5.725,1.199,8.422
				c0.696,0.899,1.965,2.179,3.251,2.179c1.502,0,3.488-1.755,5.444-4.818c0.484-0.745,50.347-74.939,89.112-76.625
				c15.005-0.653,34.209,13.396,57.337,41.73C292.787,146.232,304.511,164.745,306.697,168.246z"/>
		</g>
	</g>
	<g>
		<path fill="#EAA526" d="M320.468,194.761c0,3.167-2.566,5.733-5.731,5.733c-3.162,0-5.727-2.566-5.727-5.733
			c0-3.162,2.563-5.725,5.727-5.725C317.9,189.036,320.468,191.599,320.468,194.761z"/>
	</g>
	<g>
		<path fill="#EAA526" d="M129.006,194.761c0,3.167-2.562,5.733-5.726,5.733c-3.165,0-5.728-2.566-5.728-5.733
			c0-3.162,2.562-5.725,5.728-5.725C126.443,189.036,129.006,191.599,129.006,194.761z"/>
	</g>
	<g>
		<path fill="#FFFAFA" d="M113.687,439.22c0,0,1.71-50.563,56.091-75.556c54.377-24.998,91.395-12.038,88.32-75.541
			c0,0,89.667,12.771,96.396,41.193c0,0-7.17,92.044-40.233,107.718L113.687,439.22z"/>
		<path fill="#281912" d="M110.204,442.626l0.121-3.521c0.02-0.543,0.536-13.498,7.953-29.694
			c6.832-14.899,21.063-35.466,50.089-48.806c14.952-6.875,28.449-10.871,40.364-14.402c31.027-9.189,48.123-14.25,46.009-57.915
			l-0.2-4.069l4.034,0.575c0.228,0.032,22.92,3.304,46.137,10.037c32.114,9.313,49.966,20.657,53.056,33.711l0.122,0.511
			l-0.041,0.526c-0.301,3.834-7.718,94.177-42.146,110.494l-0.661,0.313l-0.743,0.014L110.204,442.626z M261.605,292.061
			c1.008,45.205-19.854,51.381-50.961,60.601c-11.694,3.464-24.955,7.388-39.465,14.062c-43.698,20.084-52.171,57.492-53.771,69.095
			l196.05-2.138c12.272-6.316,22.645-26.021,30.024-57.076c5.307-22.344,7.289-43.379,7.607-47.002
			C345.459,309.484,288.064,296.292,261.605,292.061z"/>
	</g>
	<g>
		<path fill="#9EC8BA" d="M174.627,397.781c0,2.726-2.21,4.935-4.934,4.935c-2.726,0-4.934-2.209-4.934-4.935
			c0-2.729,2.208-4.934,4.934-4.934C172.417,392.848,174.627,395.052,174.627,397.781z"/>
	</g>
	<g>
		<path fill="#9EC8BA" d="M221.837,402.715c0,2.727-2.213,4.934-4.936,4.934c-2.725,0-4.938-2.207-4.938-4.934
			c0-2.729,2.214-4.936,4.938-4.936C219.624,397.781,221.837,399.986,221.837,402.715z"/>
	</g>
	<g>
		<circle fill="#9EC8BA" cx="229.277" cy="373.554" r="4.934"/>
	</g>
	<g>
		<path fill="#9EC8BA" d="M272.969,388.355c0,2.728-2.205,4.937-4.934,4.937c-2.725,0-4.936-2.209-4.936-4.937
			c0-2.725,2.211-4.935,4.936-4.935C270.764,383.421,272.969,385.631,272.969,388.355z"/>
	</g>
	<g>
		<path fill="#9EC8BA" d="M280.219,353.059c0,2.726-2.208,4.938-4.933,4.938c-2.729,0-4.935-2.212-4.935-4.938
			c0-2.724,2.205-4.934,4.935-4.934C278.011,348.125,280.219,350.335,280.219,353.059z"/>
	</g>
	<g>
		<path fill="#9EC8BA" d="M313.943,383.421c0,2.728-2.206,4.935-4.935,4.935c-2.724,0-4.93-2.207-4.93-4.935
			c0-2.729,2.206-4.935,4.93-4.935C311.737,378.488,313.943,380.693,313.943,383.421z"/>
	</g>
	<g>
		<path fill="#9EC8BA" d="M338.691,332.742c0,2.724-2.208,4.934-4.934,4.934c-2.729,0-4.938-2.21-4.938-4.934
			c0-2.729,2.209-4.938,4.938-4.938C336.483,327.803,338.691,330.012,338.691,332.742z"/>
	</g>
	<g>
		<path fill="#9EC8BA" d="M285.152,314.548c0,2.724-2.209,4.935-4.935,4.935c-2.728,0-4.933-2.211-4.933-4.935
			c0-2.729,2.205-4.934,4.933-4.934C282.943,309.615,285.152,311.818,285.152,314.548z"/>
	</g>
	<g>
		<path fill="#9EC8BA" d="M298.002,422.161c0,2.725-2.21,4.934-4.934,4.934c-2.729,0-4.935-2.209-4.935-4.934
			c0-2.729,2.205-4.935,4.935-4.935C295.792,417.227,298.002,419.432,298.002,422.161z"/>
	</g>
	<g>
		<path fill="#9EC8BA" d="M252.622,422.161c0,2.725-2.212,4.934-4.937,4.934s-4.938-2.209-4.938-4.934
			c0-2.729,2.213-4.935,4.938-4.935S252.622,419.432,252.622,422.161z"/>
	</g>
	<g>
		<path fill="#9EC8BA" d="M184.802,427.094c0,2.727-2.21,4.935-4.934,4.935c-2.725,0-4.938-2.208-4.938-4.935
			c0-2.729,2.214-4.934,4.938-4.934C182.592,422.161,184.802,424.366,184.802,427.094z"/>
	</g>
	<g>
		<path fill="#9EC8BA" d="M138.878,422.161c0,2.725-2.21,4.934-4.935,4.934c-2.729,0-4.938-2.209-4.938-4.934
			c0-2.729,2.209-4.935,4.938-4.935C136.668,417.227,138.878,419.432,138.878,422.161z"/>
	</g>
	<g opacity="0.7">
		<path fill="#6B6C6C" d="M158.22,175.922c-0.081,0-0.165-0.007-0.249-0.026l-9.723-2.244c-0.606-0.139-0.982-0.746-0.841-1.345
			c0.14-0.603,0.745-0.979,1.345-0.841l9.722,2.245c0.606,0.138,0.979,0.741,0.841,1.344
			C159.195,175.572,158.734,175.922,158.22,175.922z"/>
	</g>
	<g opacity="0.7">
		<path fill="#6B6C6C" d="M149.482,184.848c-0.435,0-0.85-0.261-1.02-0.688c-0.225-0.561,0.048-1.199,0.608-1.426l9.048-3.643
			c0.562-0.219,1.199,0.046,1.426,0.611c0.228,0.561-0.046,1.198-0.606,1.426l-9.049,3.639
			C149.754,184.821,149.616,184.848,149.482,184.848z"/>
	</g>
	<g opacity="0.7">
		<path fill="#6B6C6C" d="M279.95,175.849c-0.505,0-0.953-0.342-1.071-0.849c-0.135-0.592,0.234-1.18,0.821-1.318l9.506-2.194
			c0.592-0.143,1.181,0.234,1.313,0.822c0.139,0.591-0.229,1.179-0.817,1.314l-9.507,2.194
			C280.111,175.841,280.025,175.849,279.95,175.849z"/>
	</g>
	<g opacity="0.7">
		<path fill="#6B6C6C" d="M289.227,184.517c-0.14,0-0.276-0.022-0.412-0.077l-9.045-3.639c-0.562-0.223-0.832-0.864-0.61-1.425
			c0.228-0.565,0.864-0.838,1.429-0.611l9.051,3.639c0.562,0.231,0.83,0.869,0.604,1.43
			C290.07,184.26,289.66,184.517,289.227,184.517z"/>
	</g>
	<g opacity="0.7">
		<path fill="#6B6C6C" d="M232.432,138.974c-5.638,0-10.602-1.875-10.898-1.986c-6.965-2.79-13.286-0.05-13.347-0.023
			c-0.565,0.253-1.234-0.003-1.483-0.57c-0.25-0.567,0.004-1.228,0.572-1.48c0.292-0.128,7.247-3.15,15.077-0.018
			c0.077,0.033,9.392,3.54,16.369,0.748c0.576-0.233,1.229,0.05,1.46,0.625c0.227,0.577-0.055,1.229-0.628,1.459
			C237.258,138.643,234.787,138.974,232.432,138.974z"/>
	</g>
	<g opacity="0.7">
		<path fill="#6B6C6C" d="M229.28,134.298c-3.996,0-7.503-1.917-7.708-2.031c-4.599-2.665-8.683-0.138-8.855-0.028
			c-0.43,0.271-1.003,0.146-1.284-0.285c-0.28-0.434-0.153-1.009,0.281-1.285c0.208-0.136,5.19-3.264,10.777-0.024
			c0.05,0.027,6.306,3.434,10.947,0.748c0.438-0.258,1.01-0.11,1.271,0.338c0.257,0.447,0.108,1.018-0.339,1.273
			C232.728,133.958,230.964,134.298,229.28,134.298z"/>
	</g>
	<g>
		<g>
			<path fill="#281912" d="M237.692,170.462c-18.184-10.843-30.502-0.761-31.017-0.33l-4.381-5.111
				c0.657-0.569,16.361-13.74,38.844-0.342L237.692,170.462z"/>
		</g>
		<g>
			
				<rect x="307.785" y="146.253" transform="matrix(-0.1094 -0.994 0.994 -0.1094 182.1342 491.2745)" fill="#281912" width="6.73" height="35.583"/>
		</g>
		<g>
			
				<rect x="115.405" y="157.657" transform="matrix(-0.9627 -0.2707 0.2707 -0.9627 216.0233 351.8365)" fill="#281912" width="33.738" height="6.729"/>
		</g>
		<g>
			<path fill="#281912" d="M176.694,207.472c-18.06,0-32.749-14.692-32.749-32.752c0-18.059,14.689-32.752,32.749-32.752
				c18.059,0,32.757,14.693,32.757,32.752C209.451,192.779,194.753,207.472,176.694,207.472z M176.694,148.695
				c-14.348,0-26.021,11.677-26.021,26.024c0,14.347,11.674,26.021,26.021,26.021c14.347,0,26.023-11.673,26.023-26.021
				C202.718,160.372,191.041,148.695,176.694,148.695z"/>
		</g>
		<g>
			<path fill="#281912" d="M265.652,207.472c-18.061,0-32.752-14.692-32.752-32.752c0-18.059,14.692-32.752,32.752-32.752
				c18.059,0,32.753,14.693,32.753,32.752C298.405,192.779,283.711,207.472,265.652,207.472z M265.652,148.695
				c-14.352,0-26.024,11.677-26.024,26.024c0,14.347,11.674,26.021,26.024,26.021c14.348,0,26.021-11.673,26.021-26.021
				C291.673,160.372,280,148.695,265.652,148.695z"/>
		</g>
	</g>
	<g>
		<g>
			<g>
				<ellipse fill="#FAA625" cx="297.404" cy="280.612" rx="10.774" ry="19.122"/>
			</g>
			<g>
				<path fill="#27140E" d="M297.402,300.016c-6.096,0-11.051-8.703-11.051-19.404c0-10.696,4.955-19.399,11.051-19.399
					c6.094,0,11.058,8.703,11.058,19.399C308.46,291.312,303.496,300.016,297.402,300.016z M297.402,261.766
					c-5.787,0-10.494,8.452-10.494,18.846c0,10.395,4.707,18.844,10.494,18.844c5.79,0,10.496-8.449,10.496-18.844
					C307.898,270.218,303.192,261.766,297.402,261.766z"/>
			</g>
		</g>
		<g>
			<g>
				<path fill="#6D7EBE" d="M286.248,334.15c0-13.629,0-27.254,0-40.883c7.648,0,15.311,0,22.967,0c0,13.123,0,27.449,0,40.571
					L286.248,334.15z"/>
			</g>
			<g>
				<path fill="#27140E" d="M286.248,336.1c-0.516,0-1.007-0.201-1.376-0.562c-0.369-0.37-0.576-0.868-0.576-1.388v-40.883
					c0-1.076,0.872-1.951,1.952-1.951h22.967c1.074,0,1.951,0.875,1.951,1.951v40.57c0,1.066-0.857,1.936-1.925,1.948l-22.972,0.312
					C286.264,336.1,286.256,336.1,286.248,336.1z M288.195,295.216v36.957l19.068-0.254v-36.703H288.195z"/>
			</g>
		</g>
		<g>
			<g>
				<rect x="195.701" y="362.511" fill="#894620" width="204.177" height="73.386"/>
			</g>
			<g>
				<path fill="#27140E" d="M399.878,437.849H195.701c-1.075,0-1.951-0.872-1.951-1.951v-73.387c0-1.069,0.876-1.948,1.951-1.948
					h204.177c1.076,0,1.953,0.879,1.953,1.948v73.386C401.831,436.977,400.954,437.849,399.878,437.849z M197.653,433.951h200.272
					v-69.488H197.653V433.951z"/>
			</g>
		</g>
		<g>
			<g>
				<path fill="#F0516C" d="M217.208,334.025c-14.213-0.604-28.354-1.131-31.899,8.931c0,6.767,0,14.976,0,22.967
					c0,7.644-1.779,16.851,3.777,19.816c7.845,3.004,20.729-12.917,25.571-13.433c19.484-2.072,27.022,15.321,40.831,15.312
					c8.658-0.01,19.166-11.294,30.629-14.037c25.848-6.193,36.825,14.984,54.873,14.037c12.741-0.67,23.525-15.239,35.729-15.312
					c13.406-0.082,24.911,17.869,33.185,15.312c8.27-2.561,7.435-48.012-8.938-53.594
					C394.703,331.883,217.208,334.025,217.208,334.025z"/>
			</g>
			<g>
				<path fill="#27140E" d="M408.209,389.818L408.209,389.818c-4.261,0-8.562-3.207-13.537-6.918
					c-5.438-4.053-11.601-8.646-17.857-8.646h-0.082c-5.586,0.036-11.014,3.52-16.765,7.217c-5.92,3.803-12.042,7.739-18.879,8.098
					c-8.172,0.426-14.784-3.252-21.781-7.155c-7.073-3.942-14.389-8.019-23.958-8.019c-2.822,0-5.777,0.364-8.779,1.082
					c-5.125,1.23-10.139,4.317-14.984,7.312c-5.652,3.48-10.988,6.77-16.096,6.779c-6.687,0-11.812-3.539-17.233-7.293
					c-5.827-4.023-11.854-8.193-20.429-8.193c-0.965,0-1.965,0.053-2.967,0.161c-1.25,0.134-4.521,2.759-7.155,4.868
					c-5.233,4.193-11.17,8.957-16.488,8.957c-1.001,0-1.951-0.174-2.831-0.508c-0.072-0.031-0.146-0.064-0.219-0.102
					c-5.556-2.967-5.245-10.119-4.944-17.036c0.064-1.503,0.134-3.056,0.134-4.501v-22.967c0-0.227,0.034-0.439,0.112-0.646
					c3.266-9.265,13.959-10.513,23.991-10.513c3.267,0,6.721,0.146,9.779,0.274c2.433-0.027,80.048-0.946,133.303-0.946
					c47.964,0,50.127,0.735,51.058,1.058c10.897,3.715,15.616,22.43,15.39,38.248c-0.077,5.146-0.856,17.303-6.514,19.049
					C409.754,389.705,408.988,389.818,408.209,389.818z M376.812,370.354c7.555,0,14.267,5.004,20.188,9.418
					c4.238,3.162,8.238,6.147,11.209,6.147l0,0c0.399,0,0.761-0.054,1.113-0.165c1.479-0.456,3.624-5.533,3.766-15.382
					c0.113-7.537-1.011-15.427-3.074-21.636c-1.637-4.928-4.642-11.153-9.679-12.867c-1.138-0.312-9.163-0.852-49.793-0.852
					c-53.812,0-132.522,0.942-133.312,0.955c-0.035,0-0.067,0-0.106-0.006c-3.027-0.125-6.464-0.271-9.664-0.271
					c-12.062,0-18.141,2.279-20.203,7.606v22.619c0,1.535-0.073,3.129-0.138,4.671c-0.26,5.907-0.501,11.492,2.777,13.365
					c0.399,0.14,0.837,0.208,1.32,0.208c3.95,0,9.553-4.491,14.054-8.099c3.796-3.043,6.792-5.448,9.179-5.703
					c1.137-0.117,2.271-0.18,3.378-0.18c9.79,0,16.621,4.723,22.646,8.883c5.123,3.543,9.545,6.598,15.001,6.598
					c4.02-0.002,8.896-3.014,14.062-6.198c5.107-3.149,10.395-6.407,16.127-7.778c3.298-0.793,6.555-1.191,9.686-1.191
					c10.583,0,18.697,4.518,25.856,8.511c6.175,3.438,12.002,6.688,18.601,6.688c0.36,0,0.72-0.006,1.084-0.025
					c5.799-0.305,11.477-3.955,16.972-7.48c5.961-3.832,12.131-7.797,18.847-7.836H376.812L376.812,370.354z"/>
			</g>
		</g>
		<g>
			<g>
				<path fill="#623214" d="M399.878,397.912c0,15.312,0,30.628,0,45.939c6.675,1.833,14.897,2.112,19.146,6.377
					c2.461,4.766,3.041,11.421,2.55,19.145c-82.52,0-165.046,0-247.563,0c-2.353-17.664,4.748-25.876,21.692-24.249
					c0-16.163,0-32.321,0-48.49c10.464-4.95,16.436-7.847,26.797-6.38c10.716,1.514,18.925,10.871,29.353,11.485
					c16.381,0.965,31.094-13.081,48.491-11.485c17.132,1.564,22.864,13.071,42.112,11.485
					C360.487,400.247,380.021,379.654,399.878,397.912z"/>
			</g>
			<g>
				<path fill="#27140E" d="M421.572,471.321H174.009c-0.98,0-1.803-0.729-1.934-1.692c-1.244-9.359,0.111-16.368,4.022-20.833
					c3.378-3.865,8.627-5.821,15.589-5.821c0.668,0,1.355,0.019,2.063,0.055v-46.396c0-0.754,0.438-1.438,1.118-1.761l0.381-0.182
					c8.622-4.078,14.316-6.771,22.132-6.771c1.725,0,3.488,0.136,5.395,0.401c5.506,0.777,10.285,3.435,14.912,6.004
					c4.784,2.658,9.306,5.171,14.277,5.464c0.497,0.03,1.007,0.046,1.519,0.046c6.955,0,13.652-2.708,20.742-5.58
					c7.396-2.988,15.039-6.082,23.334-6.082c0.991,0,1.986,0.047,2.959,0.137c7.908,0.726,13.455,3.446,18.819,6.082
					c5.808,2.848,11.297,5.545,19.562,5.545h0.004c1.096,0,2.236-0.051,3.39-0.143c5.498-0.457,11.204-2.809,17.249-5.299
					c7.203-2.975,14.65-6.044,22.362-6.044c7.107,0,13.424,2.622,19.292,8.021c0.402,0.371,0.635,0.894,0.635,1.438v44.425
					c1.394,0.331,2.857,0.618,4.284,0.899c5.316,1.047,10.814,2.125,14.289,5.616c0.139,0.139,0.258,0.307,0.349,0.481
					c2.429,4.695,3.331,11.29,2.769,20.161C423.451,470.52,422.602,471.321,421.572,471.321z M175.742,467.418h243.98
					c0.292-7.034-0.461-12.289-2.293-16.018c-2.679-2.494-7.448-3.431-12.068-4.34c-1.995-0.394-4.059-0.797-5.998-1.332
					c-0.846-0.23-1.438-0.997-1.438-1.878v-45.071c-4.934-4.321-10.182-6.428-16.021-6.428c-6.939,0-14.025,2.92-20.879,5.748
					c-6.05,2.498-12.31,5.074-18.411,5.58c-1.259,0.104-2.509,0.157-3.711,0.157h-0.004c-9.171,0-15.328-3.021-21.283-5.944
					c-5.275-2.594-10.263-5.039-17.452-5.699c-0.856-0.076-1.731-0.119-2.604-0.119c-7.535,0-14.823,2.949-21.875,5.8
					c-7.119,2.882-14.485,5.858-22.201,5.858c-0.584,0-1.172-0.015-1.748-0.051c-5.856-0.345-10.986-3.195-15.942-5.945
					c-4.511-2.508-8.771-4.877-13.562-5.553c-1.727-0.242-3.309-0.365-4.85-0.365c-6.729,0-11.992,2.393-19.728,6.051v47.255
					c0,0.549-0.237,1.075-0.642,1.442c-0.407,0.376-0.952,0.552-1.493,0.501c-7.774-0.749-13.338,0.696-16.488,4.296
					C176.114,454.694,175.007,460.091,175.742,467.418z"/>
			</g>
		</g>
		<g>
			<g>
				<path fill="#4E4E4E" d="M195.852,445.124c-16.941-1.627-24.04,6.585-21.689,24.249c82.519,0,165.04,0,247.563,0
					c0.49-7.724-0.084-14.379-2.551-19.145c-4.247-4.265-12.47-4.544-19.145-6.377L195.852,445.124z"/>
			</g>
			<g>
				<path fill="#27140E" d="M421.727,471.321H174.162c-0.976,0-1.807-0.729-1.937-1.692c-1.245-9.359,0.111-16.368,4.025-20.833
					c4.009-4.584,10.614-6.479,19.688-5.62l204.082-1.276c0.184-0.002,0.354,0.024,0.525,0.072c1.806,0.493,3.796,0.886,5.719,1.266
					c5.32,1.047,10.818,2.125,14.288,5.617c0.145,0.144,0.258,0.306,0.351,0.48c2.433,4.695,3.336,11.29,2.768,20.161
					C423.609,470.52,422.756,471.321,421.727,471.321z M175.895,467.418h243.982c0.293-7.034-0.46-12.295-2.293-16.018
					c-2.678-2.494-7.45-3.431-12.068-4.342c-1.905-0.372-3.874-0.761-5.737-1.262l-203.913,1.276c-0.062,0-0.127,0-0.197-0.008
					c-7.769-0.749-13.338,0.696-16.487,4.296C176.264,454.694,175.161,460.091,175.895,467.418z"/>
			</g>
		</g>
		<g>
			<g>
				<path fill="#FDD71E" d="M294.839,237.208c16.385,7.777,37.66,44.745,8.935,53.597c8.6-7.205-0.089-20.307-6.383-24.244
					c-1.367,6.285-6.839,8.469-8.933,14.035c-0.979,6.082,1.801,8.408,5.106,10.209c-10.349,0.065-17.537-10.521-16.598-20.422
					C278.182,257.691,297.413,251.291,294.839,237.208z"/>
			</g>
			<g>
				<path fill="#27140E" d="M293.467,292.757c-4.833,0-9.406-2.103-12.875-5.918c-4.051-4.448-6.129-10.673-5.56-16.638
					c0.61-6.409,5.147-11.186,9.532-15.803c4.93-5.195,9.59-10.099,8.354-16.841c-0.131-0.718,0.15-1.453,0.734-1.895
					c0.576-0.449,1.359-0.53,2.021-0.218c11.815,5.609,25.217,24.449,24.134,39.438c-0.438,6.075-3.474,14.095-15.458,17.786
					c-0.891,0.273-1.845-0.118-2.29-0.934c-0.44-0.814-0.249-1.83,0.463-2.424c2.136-1.791,3.076-4.039,2.882-6.871
					c-0.33-4.795-3.831-9.806-7.024-12.68c-1.104,2.459-2.755,4.299-4.253,5.975c-1.511,1.688-2.942,3.285-3.771,5.369
					c-0.733,4.901,1.346,6.465,4.143,7.99c0.779,0.428,1.173,1.325,0.958,2.188c-0.22,0.861-0.992,1.464-1.881,1.476H293.467
					L293.467,292.757z M296.996,240.686c-0.42,6.728-5.254,11.82-9.604,16.399c-4.11,4.331-7.994,8.415-8.48,13.487
					c-0.467,4.891,1.242,9.992,4.564,13.646c1.1,1.207,2.334,2.197,3.659,2.946c-0.769-1.752-1.067-3.976-0.604-6.882
					c0.022-0.125,0.058-0.252,0.1-0.372c1.076-2.858,2.862-4.853,4.589-6.777c1.862-2.079,3.622-4.047,4.264-6.989
					c0.135-0.623,0.566-1.138,1.149-1.384c0.584-0.245,1.256-0.19,1.791,0.144c4.972,3.117,10.396,10.42,10.869,17.268
					c0.101,1.487-0.03,2.901-0.396,4.227c4.292-2.711,6.646-6.662,7.02-11.797C316.779,262.684,306.809,247.222,296.996,240.686z"/>
			</g>
		</g>
	</g>
</g>
</svg>
