<?xml version="1.0" encoding="utf-8"?>
<!-- Generator: Adobe Illustrator 16.0.0, SVG Export Plug-In . SVG Version: 6.00 Build 0)  -->
<!DOCTYPE svg PUBLIC "-//W3C//DTD SVG 1.1//EN" "http://www.w3.org/Graphics/SVG/1.1/DTD/svg11.dtd">
<svg version="1.1" id="Layer_1" xmlns="http://www.w3.org/2000/svg" xmlns:xlink="http://www.w3.org/1999/xlink" x="0px" y="0px"
	 width="500px" height="500px" viewBox="0 0 500 500" enable-background="new 0 0 500 500" xml:space="preserve">
<g id="Layer_1_copy_28">
	<g>
		<g>
			<path fill="#FCC393" d="M220.986,271.43c0,0,1.659,20.885-9.642,27.51c-11.298,6.637-17.958,87.715-17.958,87.715L329.4,411.311
				l-14.844-88.972l-16.294-27.31c0,0-5.387-8.772-2.358-23.602C298.938,256.589,220.881,259.503,220.986,271.43z"/>
		</g>
		<g>
			<path fill="#281912" d="M333.387,415.355l-143.499-26.015l0.239-2.954c1.597-19.416,7.728-83.31,19.565-90.261
				c7.791-4.571,8.441-19.199,8.042-24.442l-0.011-0.229c-0.013-1.199,0.349-3.01,2.11-4.793c6.703-6.76,30.055-8.562,42.799-8.562
				c10.644,0,29.329,1.016,34.901,7.838c1.479,1.815,2.023,3.938,1.566,6.146c-2.697,13.229,1.763,20.942,1.954,21.267
				l16.626,27.846l0.097,0.604L333.387,415.355z M196.89,383.971l128.527,23.305l-13.978-83.793l-15.984-26.775
				c-0.225-0.369-5.999-10.023-2.751-25.934c0.036-0.172,0.071-0.332-0.231-0.701c-2.138-2.625-12.387-5.445-29.84-5.445
				c-22.939,0-37.021,4.421-38.367,6.865c0.18,2.91,0.965,23.09-11.27,30.268C207.081,305.23,200.146,346.535,196.89,383.971z"/>
		</g>
	</g>
	<g>
		<g>
			<path fill="#FCC393" d="M354.773,169.436c-1.135,0-2.229,0.231-3.276,0.577c-8.994-43.956-48.685-77.084-96.32-77.084
				c-48.889,0-89.312,34.918-96.862,80.599c-1.809-1.153-3.805-1.852-5.928-1.852c-7.669,0-13.881,8.371-13.881,18.688
				c0,10.328,6.212,18.695,13.881,18.695c2.288,0,4.425-0.815,6.328-2.149c8.635,44.393,48.508,77.982,96.462,77.982
				c48.162,0,88.149-33.885,96.554-78.56c0.979,0.293,1.991,0.482,3.044,0.482c7.664,0,13.878-8.371,13.878-18.688
				C368.651,177.803,362.438,169.436,354.773,169.436z"/>
		</g>
		<g>
			<path fill="#281912" d="M255.177,288.16c-47.209,0-88.067-31.908-98.768-76.469c-1.314,0.423-2.661,0.635-4.022,0.635
				c-9.452,0-17.146-9.85-17.146-21.963c0-12.105,7.693-21.956,17.146-21.956c1.171,0,2.329,0.158,3.474,0.467
				c9.632-46.144,50.737-79.212,99.316-79.212c47.106,0,88.143,31.997,98.815,76.529c0.263-0.015,0.521-0.023,0.781-0.023
				c9.452,0,17.146,9.85,17.146,21.959c0,12.305-7.999,22.328-17.625,21.943C344.206,255.511,303.032,288.16,255.177,288.16z
				 M160.958,201.351l0.962,4.935c8.487,43.659,47.71,75.341,93.257,75.341c45.815,0,85.066-31.921,93.34-75.898l0.675-3.578
				l3.479,1.056c0.77,0.231,1.45,0.345,2.104,0.345c5.75,0,10.613-7.065,10.613-15.424c0-8.363-4.863-15.428-10.613-15.428
				c-0.667,0-1.404,0.137-2.257,0.416l-3.486,1.141l-0.734-3.589c-8.825-43.153-47.988-74.473-93.119-74.473
				c-46.803,0-86.185,32.748-93.642,77.866l-0.808,4.888l-4.175-2.672c-7.194-4.601-14.783,3.727-14.783,14.087
				c0,10.513,7.821,18.943,15.069,13.87L160.958,201.351z"/>
		</g>
	</g>
	<g>
		<path fill="#141211" d="M219.813,188.116c0,7.472-4.844,13.525-10.814,13.525c-5.966,0-10.807-6.053-10.807-13.525
			c0-7.465,4.841-13.522,10.807-13.522C214.97,174.594,219.813,180.651,219.813,188.116z"/>
	</g>
	<g>
		<path fill="#FFFFFA" d="M211.239,188.127c0,2.597-1.953,4.699-4.366,4.699c-2.408,0-4.362-2.103-4.362-4.699
			c0-2.613,1.954-4.715,4.362-4.715C209.286,183.412,211.239,185.514,211.239,188.127z"/>
	</g>
	<g>
		<path fill="#141211" d="M307.896,188.116c0,7.472-4.846,13.525-10.808,13.525c-5.97,0-10.812-6.053-10.812-13.525
			c0-7.465,4.842-13.522,10.812-13.522C303.052,174.594,307.896,180.651,307.896,188.116z"/>
	</g>
	<g>
		<path fill="#FFFFFA" d="M299.326,188.127c0,2.597-1.954,4.699-4.362,4.699c-2.407,0-4.362-2.103-4.362-4.699
			c0-2.613,1.955-4.715,4.362-4.715C297.372,183.412,299.326,185.514,299.326,188.127z"/>
	</g>
	<g>
		<path fill="#834C1F" d="M244.86,212.77c0,0,14.248,2.122,16.212-5.833c1.966-7.959,0-23.524,0-23.524s8.838,11.858,4.416,26.176
			C261.072,223.906,238.058,212.647,244.86,212.77z"/>
	</g>
	<g opacity="0.7">
		<g>
			<path fill="#F9A880" d="M211.239,217.81c0,4.837-6.104,8.748-13.651,8.748c-7.53,0-13.639-3.911-13.639-8.748
				s6.108-8.752,13.639-8.752C205.136,209.058,211.239,212.973,211.239,217.81z"/>
		</g>
	</g>
	<g opacity="0.7">
		<g>
			<path fill="#F9A880" d="M329.24,216.865c0,4.832-6.107,8.748-13.643,8.748c-7.532,0-13.647-3.916-13.647-8.748
				c0-4.837,6.115-8.748,13.647-8.748C323.133,208.117,329.24,212.028,329.24,216.865z"/>
		</g>
	</g>
	<g>
		<path fill="#FFFFFF" d="M226.192,230.268c0,0,6.39,24.925,28.984,23.862s31.104-23.862,31.104-23.862s-9.983,11.949-31.104,11.949
			C233.476,242.217,226.192,230.268,226.192,230.268z"/>
	</g>
	<g>
		<path fill="#301E12" d="M193.492,172.605c0,0,4.916-6.896,14.247-6.103c9.34,0.796,10.316,2.655,10.812-2.381
			c0.49-5.041-3.935-6.1-10.812-5.304C200.868,159.613,187.605,174.206,193.492,172.605z"/>
	</g>
	<g>
		<path fill="#301E12" d="M313.758,172.605c0,0-4.91-6.896-14.247-6.103c-9.331,0.796-10.312,2.655-10.8-2.381
			c-0.498-5.041,3.932-6.1,10.8-5.304C306.392,159.613,319.657,174.206,313.758,172.605z"/>
	</g>
	<g>
		<path fill="#646565" d="M209.104,303.393c0,0-12.125,52.412,43.023,50.647c62.159-1.983,47.17-33.133,48.76-54.604
			c0,0-5.691-1.076,46.012,10.857c51.701,11.93,68.407,26.25,76.359,125.676c3.98,28.638-38.973,21.476-38.973,21.476
			l-257.714,1.715c0,0-36.591,8.631-28.639-31.939C105.888,386.654,100.902,304.396,209.104,303.393z"/>
		<path fill="#281912" d="M118.951,463.193c-8.779,0-15.734-2.808-20.107-8.123c-5.194-6.314-6.584-15.898-4.111-28.48
			c1.016-5.192,1.832-11.182,2.694-17.525c5.864-43.02,14.721-108.039,111.646-108.938c0.013,0,0.02,0,0.031,0
			c0.985,0,1.922,0.451,2.542,1.221c0.628,0.775,0.864,1.805,0.64,2.777c-0.048,0.207-4.688,21.229,6.135,34.803
			c6.288,7.894,16.727,11.894,31.025,11.894c0.843,0,1.697-0.013,2.582-0.044c20.49-0.649,33.68-4.502,40.32-11.754
			c6.613-7.229,6.027-17.502,5.468-27.438c-0.216-3.785-0.436-7.687-0.247-11.364c-0.121-0.408-0.16-0.839-0.099-1.271
			c0.231-1.605,1.624-2.807,3.249-2.807c0.199,0,0.575,0.049,0.771,0.084c0.267,0.051,0.521,0.129,0.758,0.239
			c2.004,0.527,10.527,2.604,45.381,10.646c54.995,12.693,71.007,30.129,78.88,128.602c0.95,6.769-0.484,12.512-4.287,16.877
			c-6.417,7.373-18.195,8.916-26.947,8.916c-5.609,0-10.066-0.612-11.234-0.787l-257.111,1.707
			C125.869,462.642,122.798,463.193,118.951,463.193z M205.23,306.729c-87.601,2.487-95.522,60.608-101.331,103.217
			c-0.879,6.441-1.707,12.521-2.762,17.903c-2.071,10.574-1.146,18.339,2.75,23.076c3.907,4.736,10.348,5.734,15.063,5.734
			c3.886,0,6.848-0.674,6.876-0.683c0.234-0.051,0.479-0.084,0.726-0.084l257.71-1.713c0.157-0.008,0.373,0.013,0.559,0.043
			c0.043,0.008,4.612,0.75,10.454,0.75c7.395,0,17.221-1.153,22.021-6.674c2.542-2.918,3.434-6.807,2.728-11.885
			c-7.968-99.533-24.567-111.564-73.856-122.941c-21.182-4.885-35.473-8.225-42.136-9.842c0.016,2.418,0.155,4.951,0.305,7.58
			c0.607,10.764,1.302,22.963-7.17,32.221c-7.89,8.617-22.588,13.156-44.935,13.869c-0.948,0.031-1.871,0.049-2.785,0.049
			c-16.406,0-28.568-4.842-36.164-14.389C203.543,330.71,204.245,314.279,205.23,306.729z"/>
	</g>
	<g>
		<path fill="#ED7FB2" d="M167.47,309.07c-66.579,18.842-63.927,83.938-70.726,118.602c-7.955,40.568,28.64,31.943,28.64,31.943
			l53.462-0.359L167.47,309.07z"/>
		<path fill="#281912" d="M117.767,463.642c0,0-0.005,0-0.01,0c-8.777,0-15.731-2.805-20.103-8.118
			c-5.198-6.316-6.579-15.894-4.113-28.479c1.015-5.193,1.831-11.185,2.698-17.526c5.004-36.732,11.857-87.039,70.345-103.588
			c0.94-0.271,1.953-0.097,2.758,0.465c0.799,0.562,1.309,1.451,1.384,2.43l11.372,150.186c0.071,0.906-0.239,1.795-0.851,2.461
			c-0.617,0.666-1.476,1.047-2.382,1.054l-53.129,0.352C124.681,463.093,121.61,463.642,117.767,463.642z M164.521,313.376
			c-50.838,16.517-57.161,62.916-61.81,97.021c-0.879,6.442-1.706,12.524-2.762,17.901c-2.075,10.578-1.148,18.34,2.746,23.074
			c3.907,4.748,10.348,5.738,15.066,5.738h0.005c3.883,0,6.84-0.67,6.871-0.679c0.232-0.055,0.479-0.082,0.723-0.086l49.964-0.334
			L164.521,313.376z"/>
	</g>
	<g>
		<path fill="#ED7FB2" d="M355.114,458.089l27.979-0.19c0,0,42.953,7.159,38.974-21.476
			c-7.953-99.424-24.655-113.748-76.359-125.678L355.114,458.089z"/>
		<path fill="#281912" d="M394.085,461.96c-5.609,0-10.068-0.617-11.232-0.795l-27.719,0.186c-0.008,0-0.017,0-0.017,0
			c-1.727,0-3.152-1.336-3.264-3.061l-9.406-147.338c-0.062-1.025,0.36-2.027,1.146-2.697c0.784-0.664,1.844-0.924,2.85-0.69
			c54.99,12.69,71.008,30.127,78.881,128.6c0.943,6.772-0.487,12.516-4.292,16.881C414.617,460.414,402.833,461.96,394.085,461.96z
			 M383.095,454.632c0.181,0,0.36,0.017,0.537,0.047c0.042,0.004,4.614,0.748,10.453,0.748c7.396,0,17.216-1.156,22.023-6.672
			c2.538-2.918,3.431-6.803,2.725-11.887c-7.731-96.603-23.598-110.783-69.586-121.931l8.927,139.857l24.897-0.164
			C383.079,454.632,383.086,454.632,383.095,454.632z"/>
	</g>
	<g>
		<path fill="#FFFFFF" d="M151.559,390.059c0.193,2.705,2.542,4.741,5.25,4.547c2.705-0.191,4.742-2.543,4.549-5.25
			c-0.194-2.701-2.545-4.742-5.251-4.551C153.404,385.001,151.367,387.352,151.559,390.059z"/>
	</g>
	<g>
		<path fill="#FFFFFF" d="M153.604,418.542c0.188,2.703,2.542,4.74,5.244,4.547c2.706-0.19,4.742-2.545,4.547-5.248
			c-0.188-2.704-2.543-4.741-5.248-4.549C155.438,413.486,153.407,415.837,153.604,418.542z"/>
	</g>
	<g>
		<path fill="#FFFFFF" d="M155.64,447.025c0.194,2.705,2.543,4.741,5.251,4.551c2.703-0.193,4.739-2.549,4.543-5.252
			c-0.188-2.707-2.542-4.742-5.244-4.545C157.479,441.974,155.447,444.32,155.64,447.025z"/>
	</g>
	<g>
		<path fill="#FFFFFF" d="M376.967,390.059c-0.194,2.705-2.546,4.741-5.247,4.547c-2.703-0.191-4.738-2.543-4.548-5.25
			c0.196-2.701,2.546-4.742,5.249-4.551C375.124,385.001,377.159,387.352,376.967,390.059z"/>
	</g>
	<g>
		<path fill="#FFFFFF" d="M374.928,418.542c-0.195,2.703-2.542,4.74-5.249,4.547c-2.707-0.19-4.738-2.545-4.542-5.248
			c0.191-2.704,2.537-4.741,5.245-4.549C373.087,413.486,375.12,415.837,374.928,418.542z"/>
	</g>
	<g>
		<path fill="#FFFFFF" d="M372.884,447.025c-0.188,2.705-2.538,4.741-5.245,4.551c-2.703-0.193-4.736-2.549-4.542-5.252
			c0.196-2.707,2.542-4.742,5.245-4.545C371.048,441.974,373.08,444.32,372.884,447.025z"/>
	</g>
	<g>
		<path fill="#969891" d="M281.787,72.667c-48.326-0.649-31.51-38.977-2.98-42.239c9.125-1.047,29.746-0.475,42.467,11.636
			c12.723,12.114,3.712,25.468-3.156,32.686C311.243,81.962,300.727,72.917,281.787,72.667z"/>
		<path fill="#281912" d="M311.271,80.799c-3.205,0-6.665-0.875-10.671-1.892c-5.327-1.348-11.359-2.876-18.855-2.974
			c-29.569-0.398-33.443-14.046-33.738-19.894c-0.676-13.44,13.545-26.924,30.433-28.856c2.139-0.246,4.59-0.375,7.08-0.375
			c9.135,0,26.225,1.675,38.002,12.893c10.823,10.303,9.714,23.898-3.039,37.302C318.045,79.56,315.032,80.799,311.271,80.799z
			 M285.518,33.339c-2.838,0-5.013,0.181-6.334,0.332c-14.432,1.652-25.103,13.202-24.654,22.04
			c0.416,8.35,10.623,13.469,27.303,13.693c8.266,0.107,14.977,1.808,20.37,3.174c3.585,0.909,6.684,1.693,9.069,1.693
			c1.984,0,3.283-0.514,4.479-1.771c10.334-10.854,11.432-20.298,3.27-28.069C308.505,34.42,292.089,33.339,285.518,33.339z"/>
	</g>
	<g>
		<path fill="#969891" d="M158.314,173.527c-1.989-16.314,62.521-28.133,91.504-69.547c22.5,54.049,103.69,66.033,103.69,66.033
			c18.435-114.298-108.986-107.77-108.986-107.77c-121.846-1.88-99.564,112.351-99.564,112.351
			C144.934,174.543,158.314,173.527,158.314,173.527z"/>
		<path fill="#281912" d="M144.95,177.862c-1.538,0-2.898-1.095-3.197-2.644c-0.403-2.056-9.481-50.724,18.586-84.782
			c17.212-20.888,44.538-31.481,81.226-31.481c0.954,0,1.935,0.008,2.904,0.023c0.383-0.018,1.7-0.068,3.78-0.068
			c14.608,0,64.41,2.508,91.896,34.78c16.171,18.988,21.754,44.84,16.59,76.845c-0.282,1.761-1.931,2.981-3.699,2.71
			c-0.843-0.125-20.975-3.169-44.199-12.972c-28.719-12.117-49.227-29.31-59.688-49.951c-16.714,20.923-42.246,34.087-61.226,43.866
			c-13.874,7.151-26.983,13.906-26.368,18.947c0.11,0.887-0.153,1.777-0.716,2.464c-0.565,0.69-1.39,1.118-2.276,1.185
			c-4.59,0.348-12.066,0.929-13.082,1.035c-0.043,0.004-0.083,0.012-0.126,0.016C145.221,177.854,145.087,177.862,144.95,177.862z
			 M241.564,65.485c-34.629,0-60.256,9.786-76.169,29.083c-22.379,27.137-19.128,65.724-17.68,76.511l7.562-0.592
			c1.938-7.821,13.878-13.977,29.651-22.104c20.786-10.712,46.656-24.043,62.214-46.273c0.682-0.979,1.839-1.506,3.028-1.375
			c1.182,0.127,2.199,0.891,2.659,1.991c19.048,45.751,82.87,60.583,97.948,63.485c3.966-28.501-1.278-51.465-15.608-68.285
			c-25.67-30.142-73.021-32.485-86.922-32.485c-2.24,0-3.515,0.062-3.562,0.064C243.499,65.493,242.519,65.485,241.564,65.485z"/>
	</g>
	<g>
		<path fill="#FFFFFF" d="M207.147,323.223c0,3.907-3.621,7.073-8.085,7.073c-4.467,0-8.084-3.166-8.084-7.073
			c0-3.91,3.617-7.074,8.084-7.074C203.526,316.148,207.147,319.312,207.147,323.223z"/>
	</g>
	<g>
		<path fill="#FFFFFF" d="M209.557,339.294c0,4.715-3.62,8.535-8.09,8.535c-4.462,0-8.08-3.82-8.08-8.535
			c0-4.713,3.618-8.537,8.08-8.537C205.937,330.757,209.557,334.582,209.557,339.294z"/>
	</g>
	<g>
		<path fill="#FFFFFF" d="M219.508,352.648c0,4.272-4.036,7.742-9.021,7.742c-4.978,0-9.02-3.47-9.02-7.742
			c0-4.277,4.042-7.738,9.02-7.738C215.472,344.91,219.508,348.371,219.508,352.648z"/>
	</g>
	<g>
		<path fill="#FFFFFF" d="M233.304,360.873c0.495,3.873-3.096,7.529-8.025,8.164c-4.927,0.631-9.328-1.996-9.827-5.873
			c-0.498-3.871,3.095-7.531,8.026-8.164C228.404,354.365,232.806,356.994,233.304,360.873z"/>
	</g>
	<g>
		<path fill="#FFFFFF" d="M250.916,365.521c0,3.903-3.934,7.071-8.786,7.071c-4.848,0-8.778-3.168-8.778-7.071
			c0-3.908,3.931-7.076,8.778-7.076C246.982,358.445,250.916,361.613,250.916,365.521z"/>
	</g>
	<g>
		<path fill="#FFFFFF" d="M268.247,365.521c0,3.903-3.621,7.071-8.09,7.071c-4.46,0-8.084-3.168-8.084-7.071
			c0-3.908,3.624-7.076,8.084-7.076C264.626,358.445,268.247,361.613,268.247,365.521z"/>
	</g>
	<g>
		<path fill="#FFFFFF" d="M300.099,358.445c0,3.906-3.62,7.076-8.083,7.076c-4.47,0-8.09-3.17-8.09-7.076
			c0-3.912,3.62-7.076,8.09-7.076C296.479,351.369,300.099,354.533,300.099,358.445z"/>
	</g>
	<g>
		<path fill="#FFFFFF" d="M311.103,347.83c0,3.912-3.621,7.076-8.085,7.076c-4.469,0-8.088-3.164-8.088-7.076
			c0-3.906,3.619-7.076,8.088-7.076C307.48,340.753,311.103,343.923,311.103,347.83z"/>
	</g>
	<g>
		<path fill="#FFFFFF" d="M316.269,335.042c0,3.906-3.62,7.071-8.085,7.071c-4.464,0-8.085-3.165-8.085-7.071
			c0-3.912,3.621-7.076,8.085-7.076C312.648,327.966,316.269,331.13,316.269,335.042z"/>
	</g>
	<g>
		<path fill="#FFFFFF" d="M320.622,320.895c0,3.901-3.616,7.071-8.081,7.071c-4.468,0-8.089-3.17-8.089-7.071
			c0-3.912,3.621-7.078,8.089-7.078C317.006,313.816,320.622,316.982,320.622,320.895z"/>
	</g>
	<g>
		<path fill="#FFFFFF" d="M320.622,306.482c0,3.912-3.616,7.078-8.081,7.078c-4.468,0-8.089-3.166-8.089-7.078
			c0-3.908,3.621-7.072,8.089-7.072C317.006,299.41,320.622,302.574,320.622,306.482z"/>
	</g>
	<g>
		<path fill="#FFFFFF" d="M206.162,309.07c0,3.906-3.62,7.078-8.085,7.078c-4.467,0-8.083-3.172-8.083-7.078
			s3.616-7.072,8.083-7.072C202.542,301.998,206.162,305.164,206.162,309.07z"/>
	</g>
	<g>
		<path fill="#FFFFFF" d="M285.919,363.277c0,3.904-3.622,7.074-8.086,7.074c-4.468,0-8.083-3.17-8.083-7.074
			c0-3.906,3.615-7.074,8.083-7.074C282.297,356.203,285.919,359.371,285.919,363.277z"/>
	</g>
	<g opacity="0.7">
		<path fill="#6B6C6C" d="M194.183,178.646c-0.082,0-0.164-0.007-0.246-0.027l-9.435-2.178c-0.586-0.137-0.952-0.718-0.815-1.307
			c0.134-0.584,0.721-0.945,1.302-0.815l9.434,2.177c0.589,0.137,0.954,0.722,0.816,1.307
			C195.125,178.309,194.677,178.646,194.183,178.646z"/>
	</g>
	<g opacity="0.7">
		<path fill="#6B6C6C" d="M185.698,187.308c-0.424,0-0.824-0.251-0.987-0.667c-0.217-0.546,0.043-1.165,0.588-1.385l8.782-3.53
			c0.537-0.212,1.164,0.043,1.384,0.588c0.221,0.549-0.046,1.166-0.592,1.385l-8.782,3.531
			C185.966,187.284,185.832,187.308,185.698,187.308z"/>
	</g>
	<g opacity="0.7">
		<path fill="#6B6C6C" d="M315.386,178.893c-0.485,0-0.922-0.333-1.036-0.823c-0.133-0.573,0.226-1.146,0.797-1.279l9.223-2.126
			c0.581-0.145,1.146,0.22,1.277,0.797c0.131,0.568-0.227,1.145-0.8,1.274l-9.219,2.131
			C315.546,178.885,315.464,178.893,315.386,178.893z"/>
	</g>
	<g opacity="0.7">
		<path fill="#6B6C6C" d="M324.388,187.308c-0.133,0-0.267-0.024-0.399-0.078l-8.778-3.531c-0.546-0.219-0.808-0.836-0.589-1.385
			c0.22-0.544,0.84-0.812,1.385-0.588l8.78,3.53c0.545,0.22,0.807,0.839,0.586,1.385
			C325.208,187.056,324.809,187.308,324.388,187.308z"/>
	</g>
	<g opacity="0.7">
		<path fill="#6B6C6C" d="M263.227,153.655c-5.473,0-10.293-1.82-10.576-1.926c-6.734-2.695-12.896-0.051-12.959-0.023
			c-0.55,0.243-1.188-0.008-1.437-0.553c-0.239-0.553,0.008-1.192,0.558-1.436c0.277-0.13,7.033-3.06,14.635-0.016
			c0.074,0.032,9.121,3.429,15.88,0.723c0.553-0.22,1.188,0.046,1.411,0.607c0.224,0.561-0.047,1.193-0.604,1.416
			C267.904,153.337,265.509,153.655,263.227,153.655z"/>
	</g>
	<g opacity="0.7">
		<path fill="#6B6C6C" d="M260.167,149.116c-3.881,0-7.28-1.859-7.481-1.969c-4.495-2.608-8.546-0.055-8.589-0.031
			c-0.425,0.271-0.981,0.148-1.248-0.271c-0.271-0.42-0.152-0.979,0.267-1.248c0.208-0.133,5.037-3.169,10.466-0.023
			c0.043,0.023,6.123,3.327,10.619,0.726c0.427-0.25,0.985-0.105,1.233,0.33c0.252,0.431,0.106,0.984-0.328,1.235
			C263.508,148.787,261.797,149.116,260.167,149.116z"/>
	</g>
	<g>
		<g>
			<path fill="#281912" d="M270.277,177.548c-17.489-10.43-27.951-0.863-28.387-0.447l-4.535-4.699
				c0.578-0.558,14.334-13.537,36.271-0.463L270.277,177.548z"/>
		</g>
		<g>
			
				<rect x="336.314" y="156.637" transform="matrix(-0.1918 -0.9814 0.9814 -0.1918 237.3641 536.5009)" fill="#281912" width="6.526" height="27.766"/>
		</g>
		<g>
			
				<rect x="157.242" y="167.324" transform="matrix(-0.9876 -0.1568 0.1568 -0.9876 313.8492 365.9371)" fill="#281912" width="28.235" height="6.53"/>
		</g>
		<g>
			<path fill="#281912" d="M212.659,213.46c-17.526,0-31.781-14.255-31.781-31.782c0-17.526,14.255-31.781,31.781-31.781
				c17.522,0,31.776,14.255,31.776,31.781C244.436,199.205,230.182,213.46,212.659,213.46z M212.659,156.424
				c-13.921,0-25.25,11.329-25.25,25.253c0,13.926,11.329,25.251,25.25,25.251c13.922,0,25.25-11.325,25.25-25.251
				C237.909,167.753,226.581,156.424,212.659,156.424z"/>
		</g>
		<g>
			<path fill="#281912" d="M298.977,213.46c-17.525,0-31.779-14.255-31.779-31.782c0-17.526,14.254-31.781,31.779-31.781
				c17.527,0,31.781,14.255,31.781,31.781C330.758,199.205,316.504,213.46,298.977,213.46z M298.977,156.424
				c-13.926,0-25.254,11.329-25.254,25.253c0,13.926,11.328,25.251,25.254,25.251c13.928,0,25.25-11.325,25.25-25.251
				C324.227,167.753,312.903,156.424,298.977,156.424z"/>
		</g>
	</g>
</g>
</svg>
