<?xml version="1.0" encoding="utf-8"?>
<!-- Generator: Adobe Illustrator 16.0.0, SVG Export Plug-In . SVG Version: 6.00 Build 0)  -->
<!DOCTYPE svg PUBLIC "-//W3C//DTD SVG 1.1//EN" "http://www.w3.org/Graphics/SVG/1.1/DTD/svg11.dtd">
<svg version="1.1" id="Layer_1" xmlns="http://www.w3.org/2000/svg" xmlns:xlink="http://www.w3.org/1999/xlink" x="0px" y="0px"
	 width="500px" height="500px" viewBox="0 0 500 500" enable-background="new 0 0 500 500" xml:space="preserve">
<g id="Layer_1_copy_14">
	<g>
		<path fill="#FCC495" d="M218.767,263.031c0,0,1.757,20.555-10.196,27.086c-11.955,6.523-19,86.311-19,86.311l143.886,24.268
			l-15.698-87.557l-17.243-26.875c0,0-5.695-8.635-2.49-23.231C301.232,248.435,218.66,251.305,218.767,263.031z"/>
		<path fill="#28180E" d="M337.375,404.58l-151.226-25.506l0.255-2.928c1.204-13.605,7.842-81.84,20.646-88.824
			c9.975-5.441,8.567-23.836,8.552-24.025l-0.013-0.234c-0.007-1.143,0.329-2.852,1.997-4.541
			c6.699-6.762,31.593-8.564,45.243-8.564c11.399,0,31.343,1.023,36.861,7.893c1.404,1.743,1.897,3.766,1.439,5.864
			c-2.848,12.958,1.847,20.501,2.047,20.823l17.599,27.42L337.375,404.58z M192.999,373.783l136.531,23.025l-14.793-82.484
			l-16.902-26.342c-0.234-0.365-6.37-9.906-2.914-25.637c0.027-0.132,0.052-0.229-0.18-0.519
			c-2.138-2.655-13.036-5.521-31.912-5.521c-22.583,0-39.1,4.008-40.869,6.824c0.199,3.075,0.948,22.775-11.866,29.775
			C205.057,295.656,197.368,326.544,192.999,373.783z"/>
	</g>
	<g>
		<g>
			<path fill="#FFFFFF" d="M206.033,294.294c0,0,1.742,36.049,45.295,32.771c43.564-3.273,50.536-10.646,52.275-32.771
				c0,0-3.48-7.371,53.143,4.916c56.631,12.283,74.927,27.037,83.638,129.447c4.359,29.489-42.686,22.112-42.686,22.112
				l-282.273,1.769c0,0-40.078,8.887-31.362-32.896C92.771,377.857,87.518,295.332,206.033,294.294z"/>
		</g>
		<g>
			<path fill="#281912" d="M107.076,456.507c-6.833,0-16.22-1.524-22.13-8.795c-5.273-6.484-6.614-16.147-3.994-28.724
				c1.098-5.26,1.98-11.268,2.922-17.631c6.402-43.53,16.088-109.317,122.132-110.244l3.052-0.024l0.146,3.054
				c0.066,1.211,2.02,29.957,36.681,29.957c1.679,0,3.433-0.066,5.209-0.201c43.11-3.244,47.75-10.277,49.316-29.463
				c-0.075-0.771,0.07-1.664,0.612-2.521c1.324-2.101,4.255-2.99,9.794-2.99c8.967,0,24.646,2.412,46.608,7.183
				c60.024,13.021,77.507,30.955,86.13,132.276c0.995,6.701-0.42,12.431-4.229,16.844c-11.126,12.896-38.809,9.162-41.854,8.724
				l-281.714,1.764C114.683,455.923,111.321,456.507,107.076,456.507z M203.161,297.511
				c-97.882,1.998-106.608,61.332-113.003,104.773c-0.95,6.457-1.848,12.557-2.981,18.006c-2.217,10.609-1.302,18.486,2.704,23.414
				c4.329,5.33,11.739,6.445,17.195,6.445c4.339,0,7.633-0.707,7.666-0.716l0.663-0.075l282.525-1.771l0.258,0.041
				c0.048,0.006,5.097,0.781,11.553,0.781c11.895,0,20.688-2.605,24.771-7.336c2.584-2.99,3.477-6.9,2.73-11.957
				c-8.74-102.633-26.984-115.047-81.171-126.805c-36.693-7.963-46.775-7.271-49.388-6.729
				c-2.036,23.015-10.693,31.304-55.117,34.647c-1.938,0.144-3.849,0.218-5.685,0.218C215.75,330.451,205.1,310.396,203.161,297.511
				z"/>
		</g>
	</g>
	<g>
		<g>
			<path fill="#A36427" d="M124.47,317.404l26.423,135.928l221.32-2.396l27.056-137.014c0,0-21.145-16.279-58.4-17.957
				l-47.045,68.305c0,0-14.353,26.742-32.075,23.978c-17.719-2.771-22.327-1.847-35.241-23.978l-46.027-68.305
				C180.479,295.964,138.568,303.059,124.47,317.404z"/>
		</g>
		<g>
			<path fill="#291911" d="M148.28,456.539l-27.25-140.172l1.172-1.189c14.646-14.916,55.992-22.047,57.747-22.344l2.011-0.34
				l47.183,69.998c11.297,19.359,15.126,19.93,29.36,22.047c1.179,0.178,2.42,0.359,3.733,0.564c0.69,0.11,1.4,0.166,2.096,0.166
				c11.986,0,23.332-16.242,26.693-22.506l0.181-0.3l48.04-69.754l1.763,0.084c37.824,1.697,59.307,17.926,60.2,18.613l1.558,1.198
				L374.83,454.083L148.28,456.539z M127.922,318.507l25.583,131.617l216.092-2.342l26.152-132.437
				c-5.367-3.516-24.168-14.416-53.277-16.115l-45.938,66.701c-1.308,2.389-14.554,25.691-32.201,25.691
				c-1.024,0-2.063-0.084-3.075-0.24c-1.299-0.205-2.525-0.385-3.691-0.559c-15.336-2.283-21.072-3.141-33.8-24.955l-44.762-66.4
				C170.886,301.023,140.325,307.473,127.922,318.507z"/>
		</g>
	</g>
	<g>
		<g>
			<path fill="#FCC394" d="M337.215,168.449c-0.934,0-1.832,0.228-2.702,0.569c-3.397-19.786-2.091-45.187-14.296-58.41
				c-14.466-15.681-43.869-17.426-65.201-17.426c-16.004,0-52.893-0.736-65.445,8.601c-19.08,14.186-10.732,43.586-14.491,70.691
				c-1.49-1.133-3.134-1.82-4.895-1.82c-6.323,0-11.449,8.237-11.449,18.394c0,10.149,5.126,18.386,11.449,18.386
				c1.895,0,3.655-0.806,5.229-2.114c7.119,43.675,40.025,76.723,79.604,76.723c39.748,0,72.749-33.332,79.685-77.291
				c0.812,0.29,1.646,0.473,2.515,0.473c6.323,0,11.45-8.232,11.45-18.386C348.665,176.683,343.538,168.449,337.215,168.449z"/>
		</g>
		<g>
			<path fill="#291911" d="M255.016,285.218c-39.147,0-73.017-31.294-81.944-75.027c-0.94,0.281-1.902,0.423-2.887,0.423
				c-8.205,0-14.628-9.475-14.628-21.566c0-12.098,6.423-21.573,14.628-21.573c0.761,0,1.506,0.086,2.239,0.257
				c0.631-6.736,0.647-13.612,0.659-20.299c0.036-19.235,0.075-37.407,14.593-48.202c11.01-8.192,37.725-9.24,59.77-9.24l7.57,0.012
				c23.521,0,52.45,2.099,67.54,18.45c9.709,10.522,11.424,27.427,13.079,43.773c0.462,4.548,0.902,8.896,1.505,13.045
				c0.024,0,0.05,0,0.075,0c8.206,0,14.632,9.476,14.632,21.568c0,12.053-6.382,21.496-14.551,21.563
				C328.942,253.102,294.771,285.218,255.016,285.218z M177.653,199.311l0.896,5.493c6.997,42.912,39.159,74.059,76.467,74.059
				c37.535,0,69.729-31.374,76.547-74.602l0.601-3.799l3.616,1.298c0.529,0.196,0.998,0.289,1.437,0.289
				c3.914,0,8.276-6.247,8.276-15.21c0-8.963-4.362-15.213-8.276-15.213c-0.436,0-0.944,0.118-1.55,0.351l-3.628,1.42l-0.658-3.841
				c-0.915-5.315-1.495-11.097-2.066-16.691c-1.552-15.308-3.158-31.138-11.428-40.101c-13.568-14.705-42.377-16.405-62.868-16.405
				l-7.57-0.013c-12.373,0-45.24,0-55.98,7.986c-11.961,8.893-11.991,24.75-12.027,43.114c-0.015,8.332-0.026,16.954-1.212,25.465
				l-0.745,5.385l-4.331-3.293c-1.019-0.778-2.016-1.171-2.965-1.171c-3.915,0-8.276,6.249-8.276,15.217
				c0,8.958,4.361,15.206,8.276,15.206c1.02,0,2.09-0.459,3.193-1.377L177.653,199.311z"/>
		</g>
	</g>
	<g>
		<path fill="#110D0A" d="M225.832,183.275c0,6.162-3.994,11.158-8.921,11.158c-4.93,0-8.92-4.996-8.92-11.158
			c0-6.164,3.99-11.16,8.92-11.16C221.838,172.115,225.832,177.111,225.832,183.275z"/>
	</g>
	<g>
		<path fill="#FFFFFA" d="M218.755,183.279c0,2.144-1.612,3.884-3.594,3.884c-1.992,0-3.608-1.74-3.608-3.884
			c0-2.148,1.616-3.885,3.608-3.885C217.143,179.394,218.755,181.131,218.755,183.279z"/>
	</g>
	<g>
		<ellipse fill="#110D0A" cx="289.609" cy="183.275" rx="8.92" ry="11.158"/>
	</g>
	<g>
		<path fill="#FFFFFA" d="M291.453,183.279c0,2.144-1.611,3.884-3.598,3.884c-1.988,0-3.598-1.74-3.598-3.884
			c0-2.148,1.608-3.885,3.598-3.885C289.842,179.394,291.453,181.131,291.453,183.279z"/>
	</g>
	<g>
		<path fill="#844A1F" d="M243.456,206.667c0,0,11.756,1.75,13.376-4.818c1.624-6.559,0-19.406,0-19.406s7.3,9.781,3.646,21.601
			C256.832,215.859,237.843,206.571,243.456,206.667z"/>
	</g>
	<g opacity="0.7">
		<g>
			<path fill="#F9A780" d="M218.755,207.78c0,3.985-5.037,7.217-11.262,7.217c-6.218,0-11.26-3.232-11.26-7.217
				c0-3.994,5.042-7.222,11.26-7.222C213.718,200.558,218.755,203.787,218.755,207.78z"/>
		</g>
	</g>
	<g opacity="0.7">
		<g>
			<path fill="#F9A780" d="M316.147,206.997c0,3.989-5.046,7.222-11.264,7.222c-6.222,0-11.263-3.232-11.263-7.222
				c0-3.985,5.041-7.219,11.263-7.219C311.103,199.778,316.147,203.012,316.147,206.997z"/>
		</g>
	</g>
	<g>
		<path fill="#FFFFFD" d="M230.468,235.442c0,0,5.272,20.572,23.917,19.694c18.647-0.879,25.665-19.694,25.665-19.694
			s-8.233,9.86-25.665,9.86C236.478,245.302,230.468,235.442,230.468,235.442z"/>
	</g>
	<g>
		<path fill="#A9A8A8" d="M204.112,170.475c0,0,4.059-5.696,11.759-5.039c7.705,0.66,8.521,2.19,8.921-1.969
			c0.399-4.16-3.244-5.031-8.921-4.374C210.195,159.749,199.251,171.792,204.112,170.475z"/>
	</g>
	<g>
		<path fill="#A9A8A8" d="M303.37,170.475c0,0-4.056-5.696-11.757-5.039c-7.707,0.66-8.52,2.19-8.924-1.969
			c-0.399-4.16,3.244-5.031,8.924-4.374C297.289,159.749,308.234,171.792,303.37,170.475z"/>
	</g>
	<g>
		<path fill="#A9A8A8" d="M224.509,259.857c3.836,7.768,10.949,10.771,18.523,12.83c1.91,0.519,5.24,0.353,6.077-0.828
			c1.129-1.58,0.474-4.428,0.054-6.838c1.192-2.629,3.608-3.728,6.685-2.916c2.186,0.571,3.397,1.69,2.256,4.342
			c-2.014,4.676,0.207,7.525,5.408,6.891c6.5-0.793,12.514-2.721,16.846-8.179c1.644-2.075,3.623-3.886,5.453-5.815
			c0.51,0.08,1.025,0.154,1.532,0.24c0,3.922,0.619,7.973-0.122,11.746c-1.808,9.203-6.295,17.008-15.173,21.01
			c-5.975,2.691-12.493,4.584-19.142,3.115c-6.717-1.479-13.671-2.889-19.747-5.896c-3.629-1.793-7.132-6.209-8.262-10.141
			c-1.75-6.075-1.417-12.732-1.966-19.15C223.458,260.127,223.98,259.997,224.509,259.857z"/>
	</g>
	<g>
		<path fill="#A9A8A8" d="M205.724,223.563c18.578,0.886,33.845-13.696,50.277-1.926c16.533-11.215,31.399,1.92,48.794,2.52
			c-10.906,10.643-22.871,13.761-35.033,10.134c-9.918-2.955-18.328-2.479-28.146,0.12
			C229.146,237.735,217.194,234.329,205.724,223.563z"/>
	</g>
	<g>
		<g>
			<path fill="#A5A5A5" d="M242.42,56.93c4.763-4.417,9.432-2.575,15.396,0.072c5.11,2.268,9.656,5.896,14.328,7.449
				c5.746,1.907,10.33,3.893,14.334,8.343c1.236,1.367,4.523,0.647,6.521,1.603c2.758,1.326,10.112,3.447,11.453,3.056
				c2.001-0.579,15.182,5.534,20.363,7.462c1.013,0.375,2.213,1.484,2.459,2.472c1.231,4.897,2.174,9.858,3.221,14.802
				c-0.415,0.088,8.795,15.997,8.764,24.348c-0.05,11.75-2.1,23.589-4.229,35.213c-1.573,8.601-4.588,16.934-7.08,25.347
				c-0.615,2.09-5.771-22.275-6.88-36.373c-0.646-8.226-1.149-16.493-2.43-24.626c-0.402-2.538-3.165-4.689-4.82-7.037
				c-0.662-0.943-1.282-1.91-1.881-2.893c-1.881-3.11-10.559-6.917-11.68-7.694c-7.297-5.06-14.726-7.643-23.807-4.132
				c-5.695,2.197-11.987,3.207-18.11,3.797c-4.638,0.447-9.419-0.622-14.322-1.032c0.016-0.092-7.222-2.15-9.9-2.377
				c-10.061,1.88-28.396,6.471-27.984,8.149c-2.134,0.598-4.209,1.495-6.358,1.722c-6.912,0.729-11.626,4.427-12.479,11.347
				c-1.122,9.039-1.503,18.173-2.209,27.266c-0.568,7.371-1.082,14.749-1.76,22.104c-0.542,5.831-5.896,9.964-7.257,5.9
				c-1.872-5.562-3.79-11.145-5.097-16.85c-1.185-5.188-1.66-10.542-2.314-15.836c-0.643-5.282-1.325-10.571-1.629-15.876
				c-0.214-3.909-0.037-7.874,0.316-11.78c0.548-6.139,0.802-12.472,6.902-16.398c0.502-0.322,0.411-2.239,0.021-3.166
				c-1.821-4.313-2.088-7.97,0.905-12.345c2.573-3.756,2.954-8.941,4.978-13.18c3.739-7.847,8.858-14.404,18.288-15.877
				c0.785-0.122,1.91-0.465,2.205-1.047c2.847-5.607,7.51-6.525,13.121-5.49C214.117,53.445,238.769,55.249,242.42,56.93z"/>
		</g>
		<g>
			<path fill="#291911" d="M327.832,190.4c-2.734,0-3.499-0.618-6.441-15.748c-1.71-8.792-3.017-17.646-3.489-23.678l-0.295-3.858
				c-0.514-6.776-1.049-13.783-2.106-20.524c-0.126-0.81-1.251-2.084-2.239-3.21c-0.69-0.784-1.408-1.594-2.037-2.489
				c-0.706-1-1.359-2.025-1.995-3.065c-0.984-1.63-6.704-4.57-8.587-5.537c-1.216-0.626-1.773-0.915-2.189-1.199
				c-7.841-5.442-13.861-6.486-20.849-3.787c-6.723,2.593-14.039,3.522-18.957,3.997c-3.484,0.338-7.069-0.102-10.479-0.533
				c-1.464-0.186-2.93-0.373-4.409-0.494l-3.555-0.296l0.134-0.655c-1.993-0.537-4.644-1.189-6.096-1.382
				c-9.112,1.729-20.406,4.662-24.5,6.289l0.22,0.881l-2.967,0.828c-0.632,0.177-1.256,0.38-1.874,0.585
				c-1.573,0.514-3.201,1.046-5.001,1.238c-5.79,0.609-9.043,3.497-9.67,8.574c-0.765,6.174-1.189,12.537-1.597,18.691
				c-0.188,2.813-0.373,5.623-0.593,8.432l-0.415,5.481c-0.416,5.562-0.841,11.123-1.354,16.67c-0.51,5.547-4.504,10.41-8.543,10.41
				c-2.264,0-4.092-1.419-4.893-3.793l-0.309-0.929c-1.77-5.247-3.597-10.68-4.868-16.223c-0.98-4.295-1.49-8.683-1.984-12.929
				c-0.126-1.077-0.248-2.154-0.381-3.229l-0.134-1.069c-0.604-4.898-1.23-9.961-1.515-15.018
				c-0.199-3.609-0.099-7.612,0.318-12.241l0.074-0.875c0.515-5.888,1.087-12.514,7.104-17.091
				c-0.009-0.043-0.021-0.083-0.031-0.114c-1.742-4.125-2.97-9.204,1.224-15.337c1.197-1.746,1.863-4.08,2.569-6.553
				c0.589-2.049,1.196-4.17,2.166-6.202c3.18-6.688,8.789-15.795,20.664-17.65c0.078-0.014,0.16-0.03,0.236-0.047
				c2.579-4.576,6.577-6.898,11.889-6.898c1.324,0,2.722,0.139,4.269,0.426c-0.043-0.012,0.493,0.029,1.274,0.096
				c16.36,1.353,23.049,2.304,26.104,3.044c2.135-1.544,4.437-2.299,6.979-2.299c3.357,0,6.562,1.304,10.402,3.006
				c2.42,1.073,4.652,2.393,6.812,3.668c2.542,1.495,4.938,2.908,7.227,3.672c5.244,1.735,10.756,3.866,15.485,9
				c0.351,0.083,1.041,0.143,1.522,0.182c1.318,0.112,2.809,0.237,4.217,0.914c2.339,1.12,8.011,2.71,9.532,2.787
				c0.277-0.057,0.571-0.083,0.883-0.083c2.24,0,6.292,1.544,15.11,5.241c2.364,0.992,4.534,1.904,6.024,2.458
				c1.784,0.659,3.884,2.479,4.438,4.678c0.922,3.673,1.693,7.414,2.437,11.028c0.266,1.289,0.532,2.576,0.809,3.858
				c0.172,0.404,0.505,1.069,0.933,1.935c2.574,5.226,7.928,16.096,7.901,23.118c-0.052,11.74-2.061,23.62-4.28,35.768
				c-1.196,6.521-3.196,12.904-5.131,19.072c-0.688,2.2-1.377,4.399-2.032,6.604l-0.674,2.271l-2.469,0.131
				C327.844,190.4,327.84,190.4,327.832,190.4z M210.078,56.179c-3.157,0-5.131,1.234-6.595,4.123
				c-0.984,1.93-3.278,2.548-4.559,2.748c-6.954,1.088-11.712,5.305-15.901,14.102c-0.742,1.558-1.251,3.336-1.786,5.22
				c-0.818,2.852-1.666,5.797-3.435,8.392c-2.099,3.062-2.249,5.414-0.604,9.312c0.443,1.053,1.518,5.321-1.235,7.081
				c-4.484,2.885-4.896,7.622-5.37,13.107l-0.076,0.896c-0.396,4.319-0.488,8.02-0.305,11.317c0.274,4.843,0.883,9.801,1.476,14.596
				l0.13,1.069c0.137,1.091,0.266,2.181,0.387,3.273c0.479,4.075,0.965,8.286,1.872,12.241c1.165,5.106,2.883,10.248,4.562,15.229
				c0.65-0.8,1.369-2.138,1.525-3.858c0.506-5.511,0.926-11.035,1.343-16.563l0.414-5.492c0.225-2.789,0.409-5.58,0.589-8.367
				c0.416-6.243,0.848-12.698,1.633-19.049c0.991-8.047,6.569-13.192,15.303-14.117c1.137-0.118,2.385-0.525,3.698-0.955
				c0.388-0.129,0.776-0.256,1.166-0.377c5.131-3.956,28.183-8.306,29.229-8.502l0.426-0.079l0.427,0.035
				c0.079,0.008,6.527,1.022,10.068,2.393c1.511,0.131,3.01,0.319,4.501,0.507c3.215,0.406,6.182,0.795,9.076,0.512
				c7.23-0.696,12.713-1.84,17.271-3.597c3.146-1.214,6.293-1.832,9.359-1.832c5.664,0,11.189,2.009,17.404,6.319
				c0.22,0.138,0.769,0.41,1.475,0.774c4.656,2.393,9.356,4.973,11.109,7.887c0.557,0.906,1.138,1.813,1.761,2.702
				c0.436,0.616,1.009,1.265,1.616,1.956c1.562,1.775,3.331,3.784,3.742,6.421c1.104,6.993,1.643,14.13,2.165,21.032l0.295,3.838
				c0.604,7.647,2.342,17.892,3.866,25.37c1.487-4.837,2.904-9.768,3.803-14.667c2.255-12.313,4.126-23.418,4.178-34.655
				c0.021-5.523-5.072-15.865-7.246-20.28c-0.953-1.932-1.471-2.985-1.549-3.866c-0.243-1.15-0.476-2.303-0.715-3.452
				c-0.717-3.495-1.467-7.107-2.337-10.597c-0.123-0.154-0.386-0.373-0.529-0.435c-1.554-0.577-3.81-1.52-6.27-2.553
				c-3.759-1.576-10.67-4.472-12.545-4.733c-0.271,0.049-0.568,0.073-0.886,0.073c-2.802,0-9.706-2.13-12.382-3.416
				c-0.356-0.171-1.312-0.251-2.004-0.311c-1.772-0.149-3.97-0.335-5.499-2.03c-3.391-3.76-7.328-5.582-12.977-7.455
				c-2.938-0.977-5.742-2.63-8.453-4.23c-2.004-1.183-4.076-2.404-6.162-3.333c-3.144-1.392-5.717-2.457-7.826-2.457
				c-1.012,0-2.389,0.203-4.123,1.81l-1.558,1.445l-1.93-0.888c-0.827-0.363-5.024-1.399-25.995-3.138
				c-1.181-0.098-1.891-0.175-1.953-0.188C212.047,56.287,211,56.179,210.078,56.179z"/>
		</g>
	</g>
	<g opacity="0.7">
		<path fill="#6B6C6C" d="M200.942,181.139c-0.078,0-0.16-0.008-0.239-0.03l-9.181-2.118c-0.572-0.131-0.929-0.7-0.791-1.269
			c0.129-0.568,0.701-0.927,1.267-0.794l9.184,2.12c0.572,0.128,0.925,0.7,0.792,1.269
			C201.864,180.808,201.424,181.139,200.942,181.139z"/>
	</g>
	<g opacity="0.7">
		<path fill="#6B6C6C" d="M192.688,189.561c-0.412,0-0.8-0.242-0.965-0.644c-0.211-0.533,0.048-1.134,0.577-1.352l8.544-3.434
			c0.529-0.213,1.138,0.043,1.345,0.577c0.216,0.529-0.04,1.133-0.569,1.343l-8.547,3.439
			C192.946,189.543,192.818,189.561,192.688,189.561z"/>
	</g>
	<g opacity="0.7">
		<path fill="#6B6C6C" d="M304.583,181.257c-0.471,0-0.899-0.324-1.009-0.805c-0.13-0.554,0.217-1.111,0.775-1.241l8.977-2.073
			c0.561-0.131,1.104,0.218,1.243,0.777c0.125,0.558-0.221,1.112-0.776,1.24l-8.975,2.073
			C304.739,181.245,304.661,181.257,304.583,181.257z"/>
	</g>
	<g opacity="0.7">
		<path fill="#6B6C6C" d="M313.342,189.442c-0.13,0-0.259-0.022-0.389-0.075l-8.544-3.437c-0.529-0.212-0.784-0.814-0.572-1.343
			c0.213-0.536,0.82-0.792,1.345-0.575l8.549,3.435c0.524,0.215,0.784,0.817,0.573,1.347
			C314.143,189.198,313.75,189.442,313.342,189.442z"/>
	</g>
	<g opacity="0.7">
		<path fill="#6B6C6C" d="M267.969,147.773c-5.322,0-10.019-1.77-10.294-1.876c-6.551-2.621-12.548-0.046-12.607-0.02
			c-0.536,0.239-1.157-0.005-1.396-0.54c-0.238-0.536,0.004-1.159,0.538-1.398c0.275-0.12,6.841-2.974,14.238-0.016
			c0.075,0.031,8.877,3.341,15.456,0.706c0.537-0.22,1.16,0.047,1.377,0.592c0.216,0.541-0.049,1.16-0.59,1.375
			C272.523,147.465,270.188,147.773,267.969,147.773z"/>
	</g>
	<g opacity="0.7">
		<path fill="#6B6C6C" d="M264.991,143.358c-3.773,0-7.089-1.811-7.28-1.917c-4.365-2.538-8.32-0.055-8.36-0.031
			c-0.414,0.264-0.952,0.145-1.216-0.263c-0.262-0.41-0.144-0.955,0.264-1.216c0.195-0.129,4.897-3.084,10.184-0.023
			c0.043,0.026,5.949,3.242,10.335,0.707c0.412-0.244,0.955-0.104,1.201,0.319c0.242,0.422,0.097,0.961-0.322,1.205
			C268.247,143.038,266.579,143.358,264.991,143.358z"/>
	</g>
	<g>
		<g>
			<path fill="#281912" d="M265.63,177.462c-14.61-9.856-23.304-0.872-23.67-0.483l-4.688-4.288
				c0.122-0.135,12.629-13.511,31.912-0.498L265.63,177.462z"/>
		</g>
		<g>
			<polygon fill="#281912" points="314.519,176.428 313.149,170.222 336.576,165.037 337.952,171.236 			"/>
		</g>
		<g>
			
				<rect x="168.748" y="167.608" transform="matrix(-0.9842 -0.1769 0.1769 -0.9842 328.786 370.8839)" fill="#281912" width="24.354" height="6.357"/>
		</g>
		<g>
			<path fill="#281912" d="M216.437,212.503c-15.275,0-27.693-13.875-27.693-30.927c0-17.052,12.418-30.926,27.693-30.926
				c15.267,0,27.689,13.875,27.689,30.926C244.126,198.627,231.703,212.503,216.437,212.503z M216.437,157.003
				c-11.769,0-21.34,11.026-21.34,24.573c0,13.549,9.571,24.572,21.34,24.572c11.76,0,21.331-11.023,21.331-24.572
				C237.768,168.029,228.196,157.003,216.437,157.003z"/>
		</g>
		<g>
			<path fill="#281912" d="M290.646,212.503c-15.271,0-27.69-13.875-27.69-30.927c0-17.052,12.419-30.926,27.69-30.926
				c15.271,0,27.696,13.875,27.696,30.926C318.343,198.627,305.917,212.503,290.646,212.503z M290.646,157.003
				c-11.771,0-21.344,11.026-21.344,24.573c0,13.549,9.573,24.572,21.344,24.572c11.764,0,21.339-11.023,21.339-24.572
				C311.984,168.029,302.409,157.003,290.646,157.003z"/>
		</g>
	</g>
</g>
</svg>
