<?xml version="1.0" encoding="utf-8"?>
<!-- Generator: Adobe Illustrator 16.0.0, SVG Export Plug-In . SVG Version: 6.00 Build 0)  -->
<!DOCTYPE svg PUBLIC "-//W3C//DTD SVG 1.1//EN" "http://www.w3.org/Graphics/SVG/1.1/DTD/svg11.dtd">
<svg version="1.1" id="Layer_1" xmlns="http://www.w3.org/2000/svg" xmlns:xlink="http://www.w3.org/1999/xlink" x="0px" y="0px"
	 width="500px" height="500px" viewBox="0 0 500 500" enable-background="new 0 0 500 500" xml:space="preserve">
<g id="Layer_1_copy_70">
	<g>
		<g>
			<path fill="#F4BE78" d="M223.694,235.828c0,0,7.509,31.617-8.639,37.729c-8.776,3.319,21.019,55.838,21.019,55.838l31.633,2.224
				l30.045-29.337l-1.836-27.208c0,0-16.684-17.693-6.708-41.164c9.972-23.472-39.373-34.806-39.373-34.806L223.694,235.828z"/>
		</g>
		<g>
			<path fill="#3C2415" d="M267.707,335.256c-0.085,0-0.171,0-0.256-0.005l-31.632-2.222c-1.218-0.09-2.309-0.777-2.91-1.84
				c-24.572-43.312-23.511-54.903-22.601-57.426c0.619-1.72,1.849-3.007,3.459-3.615c10.759-4.072,8.252-25.55,6.383-33.483
				c-0.241-1.016-0.032-2.095,0.574-2.946l26.144-36.727c0.85-1.2,2.351-1.771,3.78-1.44c1.356,0.312,33.24,7.798,41.504,24.002
				c2.574,5.044,2.707,10.355,0.406,15.774c-8.938,21.04,5.855,37.087,6.008,37.248c0.58,0.609,0.925,1.406,0.981,2.249l1.84,27.209
				c0.074,1.065-0.326,2.108-1.09,2.853l-30.047,29.334C269.568,334.889,268.656,335.256,267.707,335.256z M238.283,325.9
				l28.051,1.97l27.678-27.021l-1.646-24.313c-3.602-4.356-16.006-21.703-6.51-44.05c1.439-3.397,1.379-6.546-0.188-9.621
				c-5.131-10.052-24.696-17.063-34.306-19.626l-23.773,33.396c1.374,6.953,5.4,33.215-10.54,40.042
				C216.218,282.1,226.987,305.732,238.283,325.9z"/>
		</g>
	</g>
	<g>
		<g>
			<path fill="#F4BE78" d="M170.8,184.455c7.426,33.996,42.228,59.717,84.046,59.717c40.74,0,72.164-22.332,80.752-55.031
				l0.589-5.084c-0.089,0.109,21.833,7.426,26.119-11.47c4.415-19.46-11.102-24.559-11.102-24.559l-3.768-5.569l-63.126-81.637
				l-83.146,18.512l-47.95,75.261c0,0-13.977-1.292-8.945,19.377c4.856,19.958,26.456,10.194,26.367,10.085"/>
		</g>
		<g>
			<path fill="#3C2415" d="M254.846,247.816c-41.387,0-77.172-24.57-86.698-58.929c-3.695,1.045-8.418,1.572-11.956,1.07
				c-5.562-0.786-12.763-4.054-15.46-15.125c-2.146-8.802-1.395-15.392,2.227-19.589c2.426-2.807,5.7-3.911,8.214-4.216
				l46.92-73.648c0.513-0.814,1.334-1.389,2.278-1.598l83.15-18.511c1.375-0.303,2.808,0.211,3.675,1.328l63.12,81.633l3.257,4.802
				c6.527,2.762,16.107,11.509,12.284,28.361c-1.982,8.75-7.816,14.255-16.425,15.512c-2.281,0.33-6.487,0.317-10.108-0.279
				l-0.106,0.933c-0.019,0.168-0.05,0.339-0.092,0.507C329.905,225.147,296.822,247.816,254.846,247.816z M170.803,180.816
				c1.675,0,3.186,1.159,3.559,2.862c7.192,32.943,41.045,56.855,80.484,56.855c38.463,0,68.724-20.427,77.166-52.072l0.557-4.822
				c0.201-1.736,1.61-3.085,3.354-3.216c0.622-0.055,1.235,0.072,1.779,0.322c1.895,0.669,9.779,2.46,15.26-0.496
				c2.97-1.603,4.864-4.371,5.796-8.468c3.532-15.585-7.449-19.864-8.713-20.301c-0.743-0.258-1.412-0.758-1.854-1.411l-3.771-5.57
				L282.85,64.881l-79.426,17.68l-47.14,73.993c-0.733,1.149-2.039,1.797-3.404,1.668c-0.071,0.003-2.776-0.16-4.447,1.826
				c-1.9,2.264-2.12,6.903-0.623,13.06c1.079,4.433,3.09,7.279,6.143,8.701c5.533,2.581,13.308-0.125,14.934-0.935l0.19,0.375
				c0.286-0.16,0.608-0.276,0.949-0.35C170.285,180.841,170.549,180.816,170.803,180.816z"/>
		</g>
	</g>
	<g>
		<path fill="#25111A" d="M227.322,161.177c0,5.361-4.35,9.707-9.714,9.707c-5.359,0-9.711-4.346-9.711-9.707
			c0-5.368,4.352-9.716,9.711-9.716C222.973,151.46,227.322,155.809,227.322,161.177z"/>
	</g>
	<g>
		<path fill="#25111A" d="M299.573,161.177c0,5.361-4.349,9.707-9.714,9.707c-5.361,0-9.709-4.346-9.709-9.707
			c0-5.368,4.348-9.716,9.709-9.716C295.227,151.46,299.573,155.809,299.573,161.177z"/>
	</g>
	<g>
		<path fill="#3C2415" d="M251.988,220.785c-25.277,0-33.533-21.423-33.614-21.641c-0.702-1.884,0.258-3.983,2.145-4.682
			c1.876-0.71,3.979,0.259,4.681,2.144c0.262,0.679,6.68,16.898,26.803,16.898c0.07,0,0.142,0,0.213,0l3.894-0.011
			c18.998-0.667,25.158-16.224,25.41-16.887c0.715-1.875,2.812-2.823,4.689-2.116c1.873,0.707,2.829,2.788,2.127,4.67
			c-0.312,0.846-8,20.771-32.088,21.616l-4.004,0.009C252.158,220.785,252.072,220.785,251.988,220.785z"/>
	</g>
	<g>
		<path fill="#4C230D" d="M353.587,86.416c-22.562-54.613-66.929-67.078-101.481-59.821l-0.123,0.157
			c-34.331-6.583-77.734,6.288-99.97,60.111c-7.481,18.109-16.098,63.413-0.025,69.649c0.021,0.071,0.046,0.145,0.063,0.186
			c0.305,0.056,0.609,0.078,0.91,0.131c0.142,0.039,0.265,0.094,0.407,0.129c0.418,0.094,0.871,0.132,1.359,0.118
			c44.431,5.778,84.769-51.448,84.769-51.448l-7.863,37.156c0,0,22.49-3.106,37.509-54.395
			c8.799,28.528,20.787,45.423,20.787,45.423s-3.273-18.626,1.092-28.743c3.383,2.312,28.283,36.512,46.466,45.059
			c5.963,4.556,11.521,7.126,14.75,6.381C370.176,152.37,361.272,105.028,353.587,86.416z"/>
		<path fill="#3C2415" d="M161.099,161.126c-2.209,0-4.422-0.14-6.584-0.407c-0.691-0.003-1.35-0.076-1.962-0.214
			c-0.085-0.019-0.26-0.07-0.407-0.117l-0.057-0.006c-0.234-0.029-0.471-0.061-0.704-0.103c-0.62-0.117-1.187-0.39-1.653-0.773
			c-3.304-1.578-5.863-4.45-7.619-8.557c-7.289-17.023,0.801-51.595,6.536-65.476c16.787-40.635,48.401-63.942,86.743-63.942
			c5.413,0,10.864,0.488,16.209,1.447c6.111-1.265,12.363-1.906,18.59-1.906c38.347,0,69.972,23.309,86.76,63.953
			c6.446,15.607,13.916,51.336,5.848,66.973c-2.224,4.317-5.597,7.102-9.746,8.06c-0.634,0.146-1.312,0.221-2.021,0.221l0,0
			c-5.056,0-11.134-3.767-15.453-7.027c-14.006-6.785-30.65-26.511-40.636-38.337c-0.707-0.839-1.42-1.685-2.1-2.484
			c-1.01,7.192-0.089,16.11,0.577,20.194c0.128,0.372,0.192,0.77,0.192,1.188c0,2.007-1.627,3.64-3.637,3.64
			c-0.016,0-0.033,0-0.049,0c-1.152,0-2.271-0.547-2.97-1.535c-0.44-0.618-9.543-13.593-17.75-35.938
			c-15.372,42.913-36.137,46.28-37.078,46.409c-1.175,0.16-2.351-0.258-3.165-1.125c-0.803-0.867-1.143-2.073-0.895-3.236
			l4.709-22.249C218.884,135.554,191.641,161.126,161.099,161.126z M154.31,153.43c0.073,0,0.611,0,0.888,0.036
			c1.933,0.251,3.919,0.379,5.901,0.379c39.441,0,75.068-49.815,75.422-50.318c0.994-1.413,2.843-1.932,4.433-1.238
			c1.583,0.69,2.463,2.399,2.103,4.089l-6.391,30.212c7.06-4.551,19.49-16.821,28.979-49.224c0.448-1.545,1.861-2.607,3.469-2.619
			c1.584,0.077,3.035,1.033,3.505,2.568c3.983,12.898,8.653,23.41,12.509,30.961c0.096-5.079,0.74-10.451,2.553-14.651
			c0.432-0.999,1.284-1.753,2.329-2.054c1.04-0.303,2.171-0.124,3.069,0.492c1.254,0.857,3.072,2.986,7.432,8.151
			c9.048,10.72,25.891,30.675,38.524,36.614c0.237,0.109,0.457,0.246,0.666,0.405c5.555,4.245,9.498,5.761,11.332,5.761
			c0.206,0,0.326-0.022,0.386-0.036c2.058-0.473,3.661-1.882,4.91-4.3c6.353-12.314,0.532-44.783-6.11-60.851
			c-15.602-37.784-44.773-59.452-80.024-59.452c-5.617,0-11.252,0.566-16.772,1.685c-0.669,0.301-1.416,0.423-2.124,0.289
			c-5.24-1.004-10.585-1.514-15.902-1.514c-35.243,0-64.404,21.663-80.01,59.436c-6.446,15.599-12.214,46.664-6.576,59.831
			c1.142,2.655,2.61,4.305,4.497,5.036c0.092,0.036,0.188,0.079,0.27,0.121h0.007c0.117,0.02,0.236,0.044,0.351,0.078
			c0.063,0.019,0.258,0.076,0.364,0.113C154.294,153.43,154.297,153.43,154.31,153.43z"/>
	</g>
	<g>
		<path fill="#F58020" d="M299.446,271.352c31.284,13.252,96.538,33.514,98.481,72.098c0,0,5.236,59.509,0,59.586
			c-23.983,0.361-115.687-0.553-131.27-0.336c-25.589,0.35-131.051,0.5-161.691,0.076c-4.921-0.065,3.119-59.975,3.073-60.123
			c9.947-43.521,71.354-56.355,103.978-71.818c0,0,8.818,35.02,41.753,35.104C290.011,306.037,299.446,271.352,299.446,271.352z"/>
		<path fill="#3C2415" d="M380.574,406.768c-16.855,0-40.787-0.146-61.905-0.265c-23.826-0.134-45.163-0.265-51.957-0.165
			c-14.153,0.193-53.412,0.336-93.346,0.336c-31.634,0-56.58-0.092-68.449-0.252c-1.234-0.021-2.371-0.559-3.21-1.521
			c-1.558-1.787-4.46-5.123,2.5-60.905c0.109-0.851,0.177-1.406,0.202-1.619c0.011-0.177,0.038-0.356,0.081-0.53
			c8.256-36.128,49.244-51.888,82.179-64.544c8.717-3.354,16.952-6.517,23.788-9.757c0.983-0.468,2.127-0.468,3.115-0.005
			c0.984,0.465,1.711,1.347,1.976,2.405c0.021,0.074,2.182,8.359,8.086,16.466c7.649,10.507,17.794,15.851,30.149,15.886
			c33.094,0,42.062-31.579,42.146-31.9c0.276-1.017,0.978-1.858,1.922-2.316c0.945-0.461,2.048-0.49,3.011-0.083
			c4.021,1.698,8.671,3.55,13.595,5.503c33.965,13.479,85.299,33.847,87.108,69.77c2.243,25.5,4.021,57.073-0.329,61.892
			c-0.868,0.96-2.022,1.497-3.257,1.516C393.899,406.736,387.86,406.768,380.574,406.768z M274.072,399.023
			c9.977,0,26.587,0.093,44.642,0.195c21.104,0.122,45.025,0.262,61.86,0.262c6.181,0,11.459-0.021,15.393-0.061
			c1.417-6.702,0.322-33.055-1.667-55.652c-1.582-31.382-50.297-50.709-82.535-63.502c-3.579-1.421-7.016-2.785-10.194-4.086
			c-3.895,9.543-16.726,33.399-47.639,33.399c-0.002,0,0,0-0.002,0c-28.391-0.075-40.364-23.962-44.078-33.749
			c-6.221,2.751-13.226,5.445-20.565,8.27c-31.271,12.019-70.164,26.969-77.659,59.193c-0.039,0.382-0.103,0.895-0.191,1.6
			c-4.837,38.756-4.669,50.668-4.23,54.27c12.557,0.148,36.391,0.229,66.161,0.229c39.905,0,79.12-0.141,93.245-0.33
			C268.287,399.029,270.832,399.023,274.072,399.023z"/>
	</g>
	<g>
		<g>
			<path fill="#5CB8DE" d="M257.473,357.634c0,1.562-0.152,3.962-0.457,7.222c-0.305,3.266-0.457,5.666-0.457,7.228
				c0,5.293-0.279,13.147-0.832,23.558c-0.556,10.411-0.832,18.268-0.832,23.562c0,4.065,0.306,10.135,0.91,18.21
				c0.615,8.072,0.916,14.146,0.916,18.215c0,3.062-1.074,5.653-3.238,7.763c-2.164,2.126-4.854,3.175-8.071,3.175
				c-3.271,0-10.954-1.034-13.336-3.12c-2.387-2.075-3.576-4.612-3.576-7.604c0-4.046-0.185-10.122-0.542-18.211
				c-0.361-8.104-0.54-11.744-0.54-15.79c0-3.168,0.056-5.965,0.161-8.401c-8.701,0.391-14.603,1.742-27.411,4.076
				c-10.649,1.938-14.006,3.911-24.654,5.905c-0.113,3.521-0.499,6.967-1.165,15.2c-0.553,7.24-0.828,13.166-0.828,17.775
				c0,2.851-1.085,5.255-3.251,7.224c-2.159,1.968-12.132,2.945-15.347,2.945c-3.218,0-5.909-1.027-8.068-3.089
				c-2.163-2.054-3.243-4.566-3.243-7.544c0-5.467,0.485-13.642,1.451-24.517c0.974-10.887,1.456-19.055,1.456-24.525
				c0-6.923,0.173-17.361,0.504-31.293c0.332-13.938,0.497-24.373,0.497-31.305c0-2.979,1.08-5.491,3.243-7.55
				c2.164-2.06,4.854-3.082,8.068-3.082c3.216,0,13.188,1.048,15.352,3.159c2.163,2.109,3.242,4.689,3.242,7.73
				c0,4.219-0.148,10.551-0.453,19.012c-0.308,8.457-0.461,14.791-0.461,19c0,1.389-0.194,1.623-0.583,5.56
				c-0.333,3.657-0.468,4.028-0.414,5.969l24.654-5.989c12.477-2.213,18.381-3.49,27.411-3.82c0.227-3.756,0.585-8.981,1.083-25.4
				c0.115-4.318-0.687-12.888,1.812-18.49c3.104-6.896,13.582-6.729,17.52-6.729c2.942,0,5.544,0.972,7.812,2.92
				C258.248,338.689,257.473,354.621,257.473,357.634z"/>
			<path fill="#3C2415" d="M245.41,470.208c-2.209,0-11.951-0.718-15.732-4.021c-3.152-2.744-4.819-6.326-4.819-10.349
				c0-3.927-0.184-10.001-0.538-18.053l-0.084-1.857c-0.308-6.845-0.461-10.292-0.461-14.091c0-1.582,0.014-3.084,0.039-4.504
				c-5.218,0.461-9.98,1.35-16.972,2.646l-6.024,1.109c-5.217,0.954-8.569,1.893-12.12,2.891c-2.843,0.803-5.771,1.625-9.693,2.452
				c-0.104,1.614-0.265,3.421-0.467,5.811c-0.159,1.828-0.343,3.997-0.559,6.666c-0.545,7.085-0.822,12.972-0.822,17.484
				c0,3.901-1.493,7.244-4.436,9.917c-3.895,3.552-17.666,3.897-17.801,3.897c-4.164,0-7.726-1.377-10.578-4.093
				c-2.902-2.758-4.375-6.185-4.375-10.186c0-5.551,0.494-13.914,1.469-24.839c0.956-10.731,1.44-18.874,1.44-24.204
				c0-6.953,0.167-17.221,0.502-31.386c0.329-13.876,0.5-24.378,0.5-31.211c0-3.997,1.47-7.422,4.372-10.187
				c2.853-2.713,6.416-4.088,10.578-4.088c0.135,0,13.984,0.383,17.896,4.196c2.878,2.806,4.341,6.282,4.341,10.336
				c0,4.238-0.155,10.675-0.46,19.14c-0.301,8.377-0.456,14.725-0.456,18.873c0,0.984-0.082,1.575-0.198,2.461
				c-0.092,0.693-0.227,1.687-0.4,3.451c-0.028,0.324-0.057,0.629-0.082,0.906l19.84-4.818l5.183-0.938
				c7.991-1.437,13.27-2.39,19.649-2.817c0.216-3.803,0.51-9.793,0.881-22.037c0.025-0.844,0.003-1.867-0.007-3.008
				c-0.078-4.928-0.174-11.684,2.127-16.857c4.002-8.887,15.815-8.887,20.262-8.887h0.588c3.823,0,7.245,1.276,10.187,3.797
				c2.579,2.233,3.299,7.551,2.969,21.91c-0.018,0.834-0.035,1.496-0.035,1.91c0,1.703-0.15,4.178-0.467,7.561
				c-0.364,3.865-0.441,5.879-0.441,6.889c0,5.364-0.277,13.135-0.836,23.751c-0.553,10.257-0.832,18.119-0.832,23.367
				c0,3.957,0.305,9.992,0.904,17.935c0.613,8.062,0.926,14.284,0.926,18.49c0,4.071-1.459,7.555-4.338,10.365
				C253.182,468.786,249.605,470.208,245.41,470.208z M231.395,409.621l-0.177,3.979c-0.106,2.375-0.16,5.146-0.16,8.238
				c0,3.641,0.152,7.023,0.453,13.769l0.081,1.858c0.369,8.276,0.55,14.288,0.55,18.374c0,1.929,0.736,3.478,2.326,4.856
				c1.171,1.006,7.204,2.227,10.942,2.227c2.283,0,4.036-0.679,5.523-2.13c1.469-1.438,2.147-3.077,2.147-5.166
				c0-4.018-0.308-10.054-0.91-17.941c-0.608-8.129-0.92-14.346-0.92-18.482c0-5.375,0.282-13.369,0.839-23.757
				c0.553-10.344,0.824-18.207,0.824-23.361c0-1.695,0.159-4.241,0.479-7.568c0.287-3.108,0.433-5.425,0.433-6.879
				c0-0.447,0.018-1.164,0.038-2.078c0.259-11.22-0.236-15.186-0.739-16.466c-1.515-1.204-3.2-1.788-5.133-1.788h-0.588
				c-2.86,0-11.552,0-13.616,4.582c-1.642,3.688-1.558,9.52-1.494,13.768c0.018,1.257,0.035,2.383,0.008,3.318
				c-0.457,15.196-0.805,20.856-1.03,24.607l-0.255,4.216l-3.303,0.116c-7.484,0.279-12.615,1.207-21.929,2.882l-4.985,0.896
				l-28.793,7l-0.134-4.491c-0.047-1.623,0.031-2.419,0.194-3.997c0.064-0.616,0.141-1.383,0.234-2.412
				c0.19-1.93,0.332-2.991,0.435-3.734c0.081-0.623,0.132-0.936,0.132-1.49c0-4.234,0.159-10.674,0.459-19.139
				c0.302-8.367,0.457-14.722,0.457-18.873c0-2.07-0.683-3.695-2.146-5.123c-1.349-0.945-8.941-2.123-12.809-2.123
				c-2.301,0-4.063,0.66-5.562,2.082c-1.434,1.364-2.105,2.924-2.105,4.904c0,6.895-0.171,17.451-0.504,31.387
				c-0.325,13.912-0.499,24.408-0.499,31.211c0,5.543-0.491,13.905-1.466,24.852c-0.956,10.713-1.444,18.852-1.444,24.19
				c0,1.979,0.673,3.532,2.114,4.906c1.477,1.406,3.296,2.085,5.558,2.085c3.887,0,11.542-1.11,13-2.085
				c1.299-1.188,1.953-2.627,1.953-4.442c0-4.693,0.281-10.77,0.844-18.062c0.219-2.694,0.404-4.871,0.562-6.709
				c0.326-3.77,0.521-6.044,0.592-8.324l0.095-2.927l2.875-0.537c5.105-0.953,8.398-1.877,11.889-2.862
				c3.555-0.998,7.228-2.035,12.779-3.043l5.998-1.107c9.003-1.68,14.437-2.688,21.908-3.018L231.395,409.621z"/>
		</g>
		<g>
			<path fill="#5CB8DE" d="M307.476,423.902c0,3.16,0.1,8.229,0.298,15.212c0.189,6.987,0.285,12.067,0.285,15.224
				c0,3.226-1.079,5.865-3.245,7.944c-2.163,2.078-4.902,3.123-8.235,3.123c-3.327,0-8.496-1.045-10.656-3.123
				c-2.166-2.079-3.246-4.72-3.246-7.944c0-3.155-0.099-8.234-0.289-15.224c-0.203-6.981-0.295-12.052-0.295-15.212
				c0-4.937,0.284-11.12,0.832-18.549c0.553-7.435,0.832-13.615,0.832-18.552c0-3.211,1.086-5.864,3.247-7.938
				c2.166-2.089,7.331-3.128,10.659-3.128c3.331,0,6.071,1.039,8.235,3.128c2.161,2.071,3.245,4.727,3.245,7.938
				c0,4.937-0.275,11.117-0.84,18.552C307.75,412.782,307.476,418.966,307.476,423.902z M300.408,362.932
				c-3.547,0-6.627-1.189-9.237-3.576c-2.604-2.39-3.903-5.289-3.903-8.731s1.299-6.351,3.903-8.729
				c2.61-2.391,5.69-3.578,9.237-3.578s6.607,1.188,9.188,3.578c2.58,2.379,3.868,5.285,3.868,8.729
				c0,3.442-1.288,6.343-3.868,8.731C307.017,361.742,303.955,362.932,300.408,362.932z"/>
			<path fill="#3C2415" d="M296.577,469.043c-3.073,0-9.781-0.867-13.181-4.139c-2.893-2.78-4.364-6.333-4.364-10.567
				c0-3.037-0.097-7.979-0.287-15.117c-0.198-6.872-0.293-12.025-0.293-15.317c0-4.977,0.278-11.301,0.841-18.82
				c0.543-7.34,0.822-13.484,0.822-18.279c0-4.228,1.466-7.783,4.361-10.566c3.401-3.271,10.11-4.139,13.185-4.139
				c4.286,0,7.91,1.392,10.759,4.146c2.896,2.776,4.364,6.333,4.364,10.562c0,4.995-0.282,11.321-0.845,18.823
				c-0.547,7.286-0.822,13.433-0.822,18.275c0,3.217,0.103,8.302,0.294,15.107c0.195,7.216,0.291,12.223,0.291,15.327
				c0,4.234-1.47,7.796-4.369,10.574C304.486,467.652,300.864,469.043,296.577,469.043z M297.661,379.382
				c-3.06,0-7.011,1.022-8.136,2.103c-1.455,1.401-2.129,3.084-2.129,5.317c0,4.972-0.281,11.3-0.842,18.817
				c-0.546,7.342-0.82,13.488-0.82,18.282c0,3.217,0.099,8.302,0.289,15.107c0.199,7.216,0.295,12.222,0.295,15.327
				c0,2.233,0.675,3.923,2.123,5.312c1.127,1.091,5.08,2.106,8.136,2.106c2.372,0,4.242-0.688,5.712-2.106
				c1.453-1.391,2.131-3.079,2.131-5.312c0-3.037-0.1-7.98-0.291-15.117c-0.193-6.872-0.293-12.025-0.293-15.317
				c0-5.024,0.282-11.354,0.838-18.82c0.554-7.317,0.826-13.465,0.826-18.279c0-2.233-0.674-3.916-2.125-5.317
				C301.899,380.07,300.029,379.382,297.661,379.382z M300.408,366.57c-4.475,0-8.408-1.522-11.693-4.523
				c-3.377-3.099-5.087-6.939-5.087-11.423c0-4.491,1.71-8.334,5.087-11.416c3.285-3.011,7.215-4.533,11.693-4.533
				c4.48,0,8.407,1.529,11.661,4.548c3.343,3.084,5.038,6.92,5.038,11.401c0,4.474-1.695,8.312-5.041,11.399
				C308.815,365.044,304.887,366.57,300.408,366.57z M300.408,341.961c-2.634,0-4.85,0.854-6.777,2.616
				c-1.855,1.702-2.721,3.618-2.721,6.046c0,2.426,0.863,4.342,2.721,6.045c1.928,1.762,4.145,2.624,6.777,2.624
				c2.624,0,4.82-0.854,6.712-2.61c1.845-1.703,2.702-3.633,2.702-6.059c0-2.432-0.857-4.357-2.694-6.053
				C305.229,342.807,303.032,341.961,300.408,341.961z"/>
		</g>
		<g>
			<path fill="#5CB8DE" d="M348.661,438.201c-3.101,0-9.554-0.963-11.576-2.906c-2.031-1.938-3.04-4.38-3.04-7.318
				c0-2.164-0.068-5.395-0.205-9.688c-0.14-4.294-0.21-7.53-0.21-9.69c0-7.654,0.07-19.131,0.21-34.436
				c0.137-15.301,0.205-26.785,0.205-34.436c0-2.939,1.025-5.389,3.08-7.356c2.049-1.976,8.492-2.956,11.536-2.956
				c3.053,0,5.602,0.98,7.655,2.956c2.049,1.969,3.08,4.417,3.08,7.356v88.25c0,2.938-1.015,5.382-3.035,7.318
				C354.333,437.238,351.767,438.201,348.661,438.201z"/>
			<path fill="#3C2415" d="M348.661,441.843c-0.099,0-10.195-0.17-14.102-3.926c-2.755-2.623-4.154-5.98-4.154-9.941
				c0-2.139-0.068-5.332-0.206-9.573c-0.139-4.351-0.209-7.62-0.209-9.807c0-7.66,0.07-19.148,0.205-34.468
				c0.142-15.29,0.21-26.761,0.21-34.403c0-3.957,1.412-7.316,4.197-9.986c3.946-3.797,13.959-3.969,14.059-3.969
				c4.008,0,7.437,1.338,10.176,3.969c2.789,2.684,4.197,6.037,4.197,9.986v88.251c0,3.958-1.397,7.305-4.154,9.948
				C356.171,440.519,352.729,441.843,348.661,441.843z M348.661,333.055c-3.376,0-8.093,1.135-9.02,1.942
				c-1.332,1.276-1.954,2.78-1.954,4.728c0,7.657-0.067,19.152-0.206,34.471c-0.135,15.283-0.208,26.755-0.208,34.4
				c0,2.133,0.073,5.334,0.204,9.574c0.143,4.347,0.21,7.618,0.21,9.806c0,1.951,0.607,3.438,1.91,4.685
				c0.933,0.797,5.669,1.9,9.062,1.9c2.186,0,3.83-0.603,5.18-1.896c1.309-1.25,1.912-2.736,1.912-4.688v-88.251
				c0-1.939-0.623-3.451-1.961-4.733C352.418,333.671,350.786,333.055,348.661,333.055z"/>
		</g>
		<g>
			<path fill="#5CB8DE" d="M352.057,475.288c-3.323,0-10.318-1.777-13.2-5.323c-2.612-3.271-3.912-6.323-3.912-9.152
				c0-2.873,1.137-5.293,3.413-7.232c2.271-1.94,8.736-2.917,11.618-2.917c3.327,0,6.407,1.778,9.236,5.331
				c2.605,3.271,3.908,6.295,3.908,9.06c0,2.833-1.125,5.24-3.366,7.241C357.51,474.29,354.939,475.288,352.057,475.288z"/>
			<path fill="#3C2415" d="M352.057,478.927c-4.274,0-12.331-2.117-16.029-6.665c-3.141-3.938-4.723-7.777-4.723-11.45
				c0-3.934,1.62-7.389,4.69-10.009c3.678-3.14,11.961-3.781,13.979-3.781c4.481,0,8.544,2.258,12.082,6.706
				c3.117,3.905,4.702,7.719,4.702,11.324c0,3.843-1.585,7.279-4.585,9.957C359.255,477.611,355.852,478.927,352.057,478.927z
				 M349.976,454.308c-3.14,0-8.159,1.103-9.255,2.04c-1.458,1.247-2.134,2.662-2.134,4.465c0,1.976,1.043,4.295,3.115,6.878
				c1.854,2.287,7.479,3.959,10.354,3.959c1.986,0,3.706-0.685,5.275-2.075c1.462-1.307,2.146-2.747,2.146-4.521
				c0-1.906-1.048-4.194-3.116-6.792C354.241,455.597,352.153,454.308,349.976,454.308z"/>
		</g>
	</g>
	<g>
		<path fill="#F4BE78" d="M130.978,361.844c-9.024-0.883-35.257-5.35-35.079,41.67c1.387,36.685,36.266,32.85,36.266,32.85
			s31.806-6.107,11.308-25.025c14.791-15.161-5.416-25.982-5.416-25.982S161.084,369.374,130.978,361.844z"/>
		<path fill="#3C2415" d="M129.396,440.119h-0.004c-8.387,0-35.855-2.63-37.138-36.469c-0.066-18.006,3.657-30.85,11.078-38.291
			c5.077-5.096,11.871-7.68,20.204-7.68c2.642,0,5.039,0.252,6.794,0.432l0.999,0.104c0.18,0.021,0.357,0.055,0.53,0.094
			c11.078,2.771,16.993,7.041,18.091,13.041c1.017,5.573-2.729,10.586-5.909,13.713c3.289,2.662,7.415,7.06,8.311,12.857
			c0.697,4.499-0.617,8.95-3.909,13.243c4.748,5.212,6.468,10.23,5.124,14.961c-2.891,10.115-18.9,13.465-20.716,13.814
			c-0.092,0.018-0.191,0.031-0.287,0.047C132.433,439.996,131.269,440.119,129.396,440.119z M123.536,364.965
			c-6.415,0-11.336,1.814-15.046,5.538c-6.001,6.015-9.014,17.124-8.953,32.998c1.002,26.465,21.213,29.332,29.854,29.332h0.004
			c1.143,0,1.934-0.053,2.241-0.078c4.43-0.892,13.637-4.105,14.922-8.639c0.928-3.261-2.511-7.294-5.559-10.104
			c-0.718-0.669-1.139-1.601-1.168-2.576c-0.024-0.983,0.352-1.938,1.038-2.646c3.317-3.397,4.758-6.687,4.283-9.769
			c-0.938-6.078-8.741-10.412-8.823-10.459c-1.113-0.594-1.84-1.732-1.914-2.996c-0.071-1.271,0.517-2.483,1.562-3.209
			c2.478-1.728,7.413-6.396,6.807-9.707c-0.498-2.7-5.03-5.324-12.44-7.215l-0.771-0.078
			C127.895,365.186,125.798,364.965,123.536,364.965z"/>
	</g>
	<g>
		<path fill="#F4BE78" d="M374.435,368.468c9.025-0.875,35.259-5.35,35.085,41.673c-1.392,36.681-36.271,32.854-36.271,32.854
			s-31.806-6.106-11.308-25.029c-14.791-15.156,5.42-25.979,5.42-25.979S344.329,376.008,374.435,368.468z"/>
		<path fill="#3C2415" d="M376.022,446.744c-1.878,0-3.042-0.114-3.175-0.128c-0.095-0.016-0.188-0.025-0.286-0.046
			c-1.814-0.352-17.824-3.696-20.711-13.821c-1.349-4.72,0.376-9.746,5.123-14.954c-3.292-4.302-4.605-8.745-3.912-13.251
			c0.896-5.795,5.021-10.192,8.311-12.849c-3.18-3.137-6.926-8.143-5.905-13.711c1.093-6.004,7.009-10.274,18.087-13.047
			c0.174-0.041,0.351-0.07,0.53-0.088l1-0.106c1.751-0.181,4.151-0.433,6.792-0.433c8.331,0,15.131,2.586,20.206,7.684
			c7.42,7.441,11.146,20.281,11.077,38.165C411.873,444.124,384.408,446.744,376.022,446.744z M373.772,439.378
			c0.299,0.035,1.096,0.086,2.25,0.086c8.64,0,28.849-2.868,29.857-29.463c0.056-15.75-2.957-26.849-8.958-32.874
			c-3.711-3.725-8.631-5.537-15.047-5.537c-2.261,0-4.354,0.221-6.035,0.403l-0.768,0.077c-7.414,1.886-11.946,4.508-12.444,7.212
			c-0.609,3.31,4.326,7.974,6.812,9.719c1.037,0.724,1.629,1.938,1.551,3.196c-0.074,1.265-0.797,2.396-1.912,2.998
			c-2.188,1.187-8.048,5.389-8.821,10.479c-0.464,3.068,0.98,6.354,4.291,9.747c0.687,0.699,1.06,1.651,1.033,2.637
			c-0.025,0.984-0.447,1.912-1.17,2.584c-3.049,2.812-6.487,6.848-5.558,10.111C360.157,435.307,369.352,438.501,373.772,439.378z"
			/>
	</g>
</g>
</svg>
