<?xml version="1.0" encoding="utf-8"?>
<!-- Generator: Adobe Illustrator 16.0.0, SVG Export Plug-In . SVG Version: 6.00 Build 0)  -->
<!DOCTYPE svg PUBLIC "-//W3C//DTD SVG 1.1//EN" "http://www.w3.org/Graphics/SVG/1.1/DTD/svg11.dtd">
<svg version="1.1" id="Layer_1" xmlns="http://www.w3.org/2000/svg" xmlns:xlink="http://www.w3.org/1999/xlink" x="0px" y="0px"
	 width="500px" height="500px" viewBox="0 0 500 500" enable-background="new 0 0 500 500" xml:space="preserve">
<g id="Layer_1_copy_19">
	<g>
		<path fill="#E3973A" d="M45.696,313.59c0,0-16.763,30.475,15.399,54.258c20.312,15.014,80.24,17.688,129.514,17.608
			c28.765-0.037,107.149,1.716,141.94,1.741c65.397,0.037,144.521-9.502,130.055-64.688"/>
		<path fill="#3C2517" d="M332.962,390.096c-0.137,0-0.271,0-0.412,0c-17.702-0.011-46.635-0.471-74.624-0.914
			c-27.353-0.436-53.203-0.822-67.313-0.822c-71.545,0.096-114.543-5.83-131.239-18.178c-33.812-25.01-16.398-57.66-16.219-57.99
			c0.771-1.402,2.534-1.909,3.938-1.142c1.403,0.771,1.915,2.527,1.146,3.931l0,0c-0.628,1.156-15.079,28.599,14.584,50.539
			c15.443,11.416,58.479,17.035,127.783,17.037c14.181,0.016,40.034,0.391,67.417,0.827c27.957,0.441,56.873,0.9,74.531,0.911
			c0.128,0,0.269,0,0.399,0c65.729,0,106.729-9.945,121.88-29.557c6.639-8.604,8.266-18.905,4.963-31.493
			c-0.403-1.548,0.522-3.132,2.071-3.541c1.548-0.394,3.135,0.521,3.546,2.067c3.729,14.246,1.716,26.524-5.991,36.51
			C442.896,379.689,401.521,390.096,332.962,390.096z"/>
	</g>
	<g>
		<g>
			<path fill="#59BA54" d="M64.273,244.878c0,0-15.631-3.369-12.645,12.236c2.982,15.608,2.241,6.687-3.703,11.144
				c-5.943,4.467-5.943,19.325,0,21.557c5.944,2.23,6.664,3.717,3.703,11.146c-2.96,7.43-16.336,9.662-14.105,16.352
				c2.226,6.688,2.722-0.75,13.25,8.916c10.524,9.652-7.308,0.74-5.077,12.633c2.229,11.896,15.194,2.977,15.399,0
				c0.202-2.979,7.642-6.687,10.609,0c2.975,6.688-0.746,15.609,8.919,13.379c9.665-2.223-5.201-17.1,5.201-13.379
				c10.404,3.715,10.404,4.412,10.404,13.728c0,9.312,2.23,13.722,9.661,0c7.432-13.728,11.146-15.952,14.117-7.039
				c2.977,8.921,0.75,15.603,12.637,10.409c11.888-5.202,1.484-15.609,11.888-12.639c10.407,2.977,0.382,4.455,6.88,14.117
				c6.496,9.658-2.42,13.672,10.955,3.869c13.379-9.815,0.488-16.507,4.706-15.758c4.217,0.747,10.906,0,14.62,6.69
				s5.948,21.272,13.375,14.728c7.433-6.554,4.544-16.949,9.331-18.443c4.79-1.487,5.532-11.144,9.993-1.487
				c4.459,9.661-5.944,20.864,0,21.584c5.942,0.713,15.604,7.396,15.604-3.747c0-11.148,8.604-17.098,11.733-13.382
				c3.129,3.721-3.56,14.127,3.129,16.356c6.687,2.228,9.663-2.229,14.122-11.15c4.459-8.922,14.451-12.633,13.916-2.975
				c-0.537,9.662-2.021,20.2,6.892,17.534c8.919-2.666-2.974-24.216,5.2-22.733c8.182,1.494,10.431-0.004,15.619,5.947
				c5.195,5.942,11.14,3.709,16.342-0.748c5.196-4.461,9.656-4.461,14.858,2.235c5.205,6.683,0.003,3.712,5.205,6.683
				c5.201,2.978,0.742-9.658,8.174-11.149c7.432-1.474,14.503-0.734,18.029,3.721c3.521,4.459,9.463,8.916,10.955-0.741
				c1.483-9.67,4.459-14.121,11.892-5.947c7.432,8.175,17.831,15.611,20.063,2.233c2.229-13.376,5.797-14.12,12.188-8.181
				c6.393,5.947,1.933,23.042,12.335,16.354c10.404-6.689,6.688-14.865,5.201-20.067c-1.486-5.203,2.974-11.144,10.404,0
				c7.432,11.155,17.094,2.976,13.376-6.688c-3.715-9.666-2.814-12.629,0.821-12.629c3.638,0,11.064-2.771,5.126-11.422
				c-5.947-8.646-11.893-13.116-3.718-18.312c8.177-5.203,22.295-2.979-3.716-11.145c-26.012-8.172-95.125-20.811-102.553-18.583
				c-7.436,2.229-139.716-2.228-139.716-2.228L64.273,244.878z"/>
		</g>
		<g>
			<path fill="#379445" d="M277.271,374.578c-2.051,0-3.811-0.727-5.104-2.105c-3.148-3.348-2.744-9.707-2.318-16.439l0.146-2.469
				c0.115-2.016-0.375-2.559-0.396-2.58c-0.051-0.055-0.209-0.062-0.301-0.062c-1.712,0-5.451,2.521-7.726,7.071
				c-3.897,7.8-7.152,13.323-13.577,13.323c-1.278,0-2.604-0.232-4.056-0.717c-6.193-2.065-5.205-8.543-4.614-12.412
				c0.231-1.489,0.65-4.269,0.185-4.828c-0.019,0-0.037,0-0.056,0c-2.105,0-6.557,4.054-6.557,11.515
				c0,8.074-4.67,9.283-7.446,9.283c-2.304,0-4.739-0.778-7.098-1.525c-1.609-0.507-3.123-0.991-4.309-1.13
				c-2.065-0.254-3.142-1.3-3.678-2.138c-1.462-2.278-0.551-5.146,0.51-8.458c1.229-3.833,2.752-8.606,0.883-12.654
				c-0.356-0.768-0.654-1.33-0.889-1.736c-0.078,0.096-0.147,0.189-0.217,0.278c-1.176,1.562-2.793,3.69-5.397,4.503
				c-0.605,0.189-1.161,2.717-1.527,4.387c-0.863,3.936-2.043,9.312-6.741,13.459c-1.793,1.577-3.607,2.375-5.399,2.375
				c-5.306,0-7.667-6.154-9.955-12.102c-0.842-2.186-1.636-4.251-2.477-5.768c-1.954-3.516-4.897-4.311-8.119-4.711
				c1.158,3.586,0.934,8.924-6.957,14.711c-2.175,1.596-3.758,2.819-4.904,3.711c-2.413,1.871-3.229,2.504-4.588,2.504
				c-1.143,0-3.086-0.52-3.263-3.957c-0.073-1.377-0.195-3.684-2.322-6.848c-3.724-5.541-2.949-9.209-2.482-11.402
				c0.029-0.154,0.065-0.329,0.1-0.492c-0.383-0.212-1.205-0.576-2.889-1.057c-0.741-0.211-1.263-0.316-1.62-0.369
				c-0.029,0.272-0.043,0.576-0.062,0.834c-0.191,3.035-0.551,8.675-8.247,12.043c-12.522,5.478-14.037-1.557-15.216-6.982
				c-0.341-1.57-0.727-3.349-1.333-5.161c-0.684-2.065-1.238-2.927-1.51-3.253c-0.657,0.411-2.733,2.309-7.308,10.753
				c-3.938,7.271-6.752,10.233-9.727,10.233c-5.386,0-5.386-8.141-5.386-11.615c0-7.763,0-7.964-7.824-10.768
				c0.021,0.074,0.044,0.14,0.065,0.207c1.011,2.945,2.274,6.606,0.559,9.688c-0.94,1.7-2.575,2.829-4.849,3.35
				c-1.238,0.283-2.325,0.424-3.317,0.424c-6.612,0-7.252-5.778-7.675-9.6c-0.224-2.021-0.454-4.107-1.229-5.85
				c-0.81-1.814-1.812-2.027-2.491-2.027c-1.326,0-2.45,0.901-2.619,1.264c-0.228,3.691-7.093,8.498-12.409,8.498
				c-2.138,0-7.273-0.82-8.694-8.377c-0.537-2.888-0.169-5.259,1.094-7.059c1.474-2.1,3.729-2.863,5.635-3.26
				c-0.224-0.213-0.474-0.453-0.76-0.715c-4.93-4.526-7.108-4.732-8.409-4.858c-3.034-0.292-4.4-1.574-5.631-5.274
				c-1.929-5.783,3.188-9.191,7.299-11.935c2.884-1.921,5.867-3.905,6.862-6.409c1.518-3.807,1.616-5.103,1.437-5.519
				c-0.128-0.296-0.838-0.853-3.46-1.837c-3.2-1.203-5.43-4.653-6.121-9.469c-0.811-5.686,0.522-13.468,5.396-17.123
				c1.29-0.971,2.568-1.582,3.868-1.85c-0.085-0.425-0.176-0.886-0.271-1.367c-0.269-1.306-0.604-2.967-1.004-5.062
				c-0.974-5.102-0.286-9.12,2.05-11.944c2.187-2.643,5.683-4.044,10.117-4.044c1.792,0,3.211,0.233,3.736,0.333l151.447,12.966
				c0.694,0.02,84.848,2.84,122.053,2.84c13.61,0,16.14-0.389,16.59-0.506c0.855-0.258,2.031-0.373,3.682-0.373
				c15.771,0,76.861,11.523,100.565,18.969c14.451,4.541,16.994,5.881,16.986,8.965c-0.008,2.845-2.699,3.676-5.818,4.638
				c-2.107,0.653-4.731,1.462-6.768,2.76c-1.583,1.003-2.493,1.94-2.633,2.702c-0.266,1.469,1.829,4.254,4.04,7.208
				c0.996,1.319,2.067,2.751,3.145,4.312c3.578,5.213,2.987,8.854,1.862,10.994c-2.062,3.92-6.865,4.967-9.379,4.967
				c-0.113,0-0.205,0.002-0.278,0.009c-0.109,0.623-0.125,2.722,2.167,8.678c1.631,4.252,1.271,8.743-0.97,12.001
				c-1.748,2.547-4.415,4.003-7.317,4.003c-2.152,0-6.348-0.864-10.212-6.661c-2.752-4.129-4.625-5.031-5.114-5.031
				c-0.099,0.132-0.487,1.226-0.088,2.625c0.124,0.438,0.27,0.895,0.411,1.375c1.58,5.113,4.512,14.635-6.833,21.927
				c-2.082,1.336-3.882,1.987-5.51,1.987c-5.169,0-6.256-5.522-7.13-9.961c-0.645-3.256-1.366-6.955-3.24-8.697
				c-2.767-2.57-3.891-2.773-4.17-2.773c-0.019,0-1.7,0.4-3.181,9.309c-1.422,8.5-6.062,9.771-8.699,9.771
				c-5.62,0-12.005-5.727-16.377-10.527c-2.979-3.281-4.261-3.319-4.312-3.319c-0.024,0.006-1.477,0.665-2.567,7.758
				c-1.099,7.142-4.734,8.206-6.804,8.206c-3.685,0-7.086-3.32-9.285-6.109c-2.164-2.734-6.204-3.31-9.206-3.31
				c-1.855,0-3.865,0.217-5.987,0.632c-1.672,0.343-2.168,1.863-2.701,5.378c-0.359,2.345-0.958,6.283-4.694,6.283
				c-0.889,0-1.8-0.277-2.78-0.839c-2.949-1.682-4.056-2.316-4.062-4.456l0,0c-0.016,0-0.305-0.798-1.99-2.962
				c-2.208-2.844-4.129-4.223-5.875-4.223c-1.344,0-2.916,0.785-4.809,2.407c-7.714,6.617-15.002,6.64-20.413,0.457
				c-3.178-3.646-4.562-3.799-8.673-4.262c-1.39-0.158-2.987-0.339-4.901-0.673c-0.096,1.322,0.31,3.949,0.588,5.795
				c0.944,6.195,2.237,14.687-4.814,16.793C279.402,374.402,278.309,374.578,277.271,374.578z M269.3,345.125
				c1.792,0,3.354,0.646,4.515,1.874c1.479,1.563,2.146,3.879,1.974,6.887l-0.149,2.509c-0.283,4.473-0.67,10.588,0.76,12.113
				c0.093,0.096,0.258,0.271,0.875,0.271c0.455,0,1.024-0.1,1.689-0.297c2.219-0.67,1.362-6.274,0.741-10.371
				c-0.698-4.566-1.297-8.508,0.757-10.903c0.779-0.905,2.296-2.026,5.048-1.538c1.935,0.355,3.519,0.533,4.89,0.688
				c4.658,0.523,7.739,0.871,12.397,6.211c3.42,3.91,7.134,3.354,12.271-1.045c6.888-5.912,13.069-5.02,19.035,2.654
				c1.923,2.469,2.74,3.993,3.05,5.202c0.024,0.017,0.052,0.028,0.076,0.048c0.03-0.205,0.062-0.404,0.09-0.59
				c0.479-3.143,1.365-8.999,7.303-10.189c9.358-1.854,16.986-0.146,20.869,4.77c2.126,2.688,4.052,3.905,4.737,3.909
				c-0.003-0.022,0.67-0.628,1.076-3.296c0.585-3.79,1.951-12.676,8.299-12.676c2.639,0,5.371,1.662,8.606,5.223
				c5.786,6.359,10.036,8.629,12.083,8.629c1.433,0,2.432-1.652,2.977-4.927c1.167-6.998,3.137-14.149,8.903-14.149
				c2.396,0,4.896,1.334,8.118,4.322c3.248,3.023,4.171,7.7,4.98,11.826c0.356,1.804,0.952,4.812,1.576,5.345
				c-0.018-0.069,0.658-0.117,2.237-1.131c7.645-4.912,6.01-10.216,4.431-15.345c-0.162-0.517-0.315-1.015-0.447-1.483
				c-0.798-2.796-0.371-5.755,1.108-7.717c1.12-1.485,2.74-2.306,4.555-2.306c3.229,0,6.572,2.562,9.94,7.615
				c1.727,2.594,3.692,4.076,5.386,4.076c1.318,0,2.156-0.925,2.535-1.479c1.16-1.689,1.285-4.17,0.338-6.635
				c-2.873-7.472-3.307-11.587-1.503-14.214c0.738-1.073,2.215-2.36,5.028-2.36c1.367,0,3.607-0.649,4.247-1.869
				c0.533-1.01-0.02-2.83-1.515-5.008c-1.021-1.489-2.046-2.851-2.996-4.114c-3.255-4.339-5.829-7.763-5.109-11.726
				c0.447-2.466,2.159-4.611,5.229-6.562c2.023-1.29,4.32-2.165,6.322-2.821c-2.256-0.822-5.378-1.861-9.353-3.109
				c-23.375-7.344-83.407-18.707-98.829-18.707c-1.543,0-2.009,0.131-2.028,0.135c-0.804,0.24-2.486,0.75-18.242,0.75
				c-37.305,0-121.557-2.827-122.396-2.857L63.663,247.719c0-0.004-5.936-1.251-8.368,1.695c-1.47,1.775-1.256,4.873-0.818,7.154
				c0.396,2.076,0.727,3.715,0.987,5.006c0.899,4.461,1.139,5.66,0.008,7.05c-0.367,0.444-1.188,1.19-2.615,1.19
				c-0.206,0-0.448-0.018-0.735-0.047c-0.139-0.021-0.302-0.043-0.492-0.043c-0.205,0-0.83,0-1.965,0.854
				c-2.392,1.794-3.795,7.028-3.134,11.659c0.363,2.537,1.315,4.447,2.413,4.859c2.763,1.039,5.555,2.271,6.727,4.922
				c1.16,2.631,0.386,5.66-1.349,10.012c-1.663,4.183-5.576,6.789-9.032,9.095c-4.089,2.722-5.467,3.929-5.019,5.269
				c0.231,0.695,0.404,1.098,0.515,1.321c0.055,0.007,0.113,0.011,0.172,0.017c2.62,0.25,5.907,0.97,11.774,6.357
				c2.729,2.504,4.922,4.784,4.141,7.391c-0.714,2.385-3.135,2.773-4.897,3.061c-1.19,0.189-2.817,0.455-3.292,1.129
				c-0.319,0.454-0.367,1.426-0.14,2.655c0.688,3.651,2.308,3.651,2.994,3.651c2.682,0,6.032-2.514,6.696-3.631
				c0.449-3.25,4.317-6.132,8.332-6.132c3.406,0,6.241,1.993,7.787,5.472c1.144,2.563,1.435,5.22,1.698,7.566
				c0.488,4.434,0.79,4.434,1.91,4.434c0.54,0,1.22-0.086,2.009-0.271c0.57-0.132,0.984-0.327,1.088-0.517
				c0.455-0.822-0.471-3.531-0.974-4.987c-0.871-2.542-1.697-4.938-0.297-6.897c0.654-0.916,2.594-2.465,7.016-0.882
				c11.564,4.128,12.325,5.913,12.325,16.456c0,2.311,0.147,3.818,0.309,4.775c0.818-0.983,2.09-2.807,3.904-6.155
				c5.552-10.251,8.839-13.887,12.586-13.887c4.397,0,6.167,5.312,6.836,7.312c0.702,2.109,1.125,4.054,1.491,5.769
				c0.974,4.475,1.282,4.475,1.951,4.475c0.761,0,2.289-0.271,5.278-1.576c4.453-1.949,4.604-4.339,4.779-7.1
				c0.121-1.889,0.405-6.305,5.323-6.305c1.04,0,2.227,0.201,3.747,0.637c6.079,1.736,7.817,3.842,6.862,8.322
				c-0.36,1.701-0.735,3.461,1.62,6.966c1.591,2.358,2.398,4.46,2.813,6.171c1.055-0.809,2.369-1.811,4.026-3.026
				c7.12-5.22,5.117-8.325,3.656-10.591c-0.63-0.977-1.577-2.451-0.651-4.146c0.562-1.022,1.642-1.631,2.895-1.631
				c0.266,0,0.599,0.021,1.021,0.1c0.712,0.123,1.499,0.201,2.332,0.285c4.203,0.428,10.551,1.065,14.32,7.848
				c1.04,1.878,1.946,4.229,2.821,6.502c0.966,2.508,3.222,8.386,4.541,8.386c0.051,0,0.539-0.028,1.564-0.929
				c3.277-2.889,4.147-6.852,4.911-10.35c0.812-3.684,1.646-7.488,5.474-8.685c0.823-0.256,1.713-1.428,2.494-2.465
				c1.146-1.51,2.572-3.394,4.915-3.394c2.935,0,4.654,2.844,6.072,5.926c2.814,6.094,0.834,12.31-0.617,16.85
				c-0.326,1.021-0.742,2.317-0.918,3.178c1.543,0.276,3.104,0.772,4.625,1.254c1.936,0.612,3.941,1.252,5.342,1.252
				c0.768,0,1.645,0,1.645-3.482c0-10.244,6.422-17.387,12.189-17.387c1.844,0,3.501,0.76,4.657,2.14
				c2.164,2.57,1.609,6.218,1.121,9.437c-0.728,4.718-0.459,5.646,0.713,6.037c0.83,0.274,1.575,0.418,2.219,0.418
				c2.833,0,4.96-3.263,8.391-10.117C259.366,349.443,264.796,345.125,269.3,345.125z"/>
		</g>
	</g>
	<g>
		<g>
			<path fill="#EB3525" d="M241.73,289.814c0,27.09-40.435,49.047-90.318,49.047c-49.883,0-90.316-21.957-90.316-49.047
				s40.434-49.054,90.316-49.054C201.296,240.761,241.73,262.725,241.73,289.814z"/>
		</g>
		<g>
			<path fill="#A51E22" d="M151.412,341.759c-51.398,0-93.215-23.3-93.215-51.944c0-28.646,41.816-51.952,93.215-51.952
				c51.4,0,93.22,23.305,93.22,51.952C244.632,318.459,202.812,341.759,151.412,341.759z M151.412,243.661
				c-48.203,0-87.418,20.71-87.418,46.153c0,25.445,39.215,46.148,87.418,46.148c48.205,0,87.419-20.703,87.419-46.148
				C238.831,264.371,199.617,243.661,151.412,243.661z"/>
		</g>
	</g>
	<g>
		<g>
			<path fill="#EB3525" d="M453.527,289.814c0,27.09-40.433,49.047-90.312,49.047c-49.88,0-90.319-21.957-90.319-49.047
				s40.439-49.054,90.319-49.054S453.527,262.725,453.527,289.814z"/>
		</g>
		<g>
			<path fill="#A51E22" d="M363.217,341.759c-51.402,0-93.22-23.3-93.22-51.944c0-28.646,41.816-51.952,93.22-51.952
				c51.4,0,93.211,23.305,93.211,51.952C456.428,318.459,414.617,341.759,363.217,341.759z M363.217,243.661
				c-48.204,0-87.422,20.71-87.422,46.153c0,25.445,39.218,46.148,87.422,46.148c48.2,0,87.411-20.703,87.411-46.148
				C450.628,264.371,411.417,243.661,363.217,243.661z"/>
		</g>
	</g>
	<g>
		<path fill="#2D352D" d="M384.127,292.572c4.617-8.889,0.532-20.162-9.114-25.176c-9.652-5.017-21.226-1.867-25.843,7.025
			c-4.614,8.887-0.541,20.161,9.116,25.176C367.94,304.614,379.505,301.464,384.127,292.572z M354.144,280.125
			c2.837-5.453,8.726-8.014,13.158-5.709c4.438,2.305,5.738,8.596,2.905,14.057c-2.839,5.446-8.724,8.002-13.161,5.697
			C352.611,291.872,351.308,285.583,354.144,280.125z"/>
		<path fill="#20231F" d="M367.93,304.882L367.93,304.882c-3.769,0-7.566-0.937-10.982-2.71c-5.315-2.764-9.327-7.279-11.296-12.729
			c-2.003-5.522-1.665-11.334,0.943-16.358c3.521-6.771,10.712-10.978,18.771-10.978c3.77,0,7.563,0.938,10.98,2.715
			c5.315,2.762,9.33,7.277,11.295,12.723c2.003,5.525,1.668,11.333-0.943,16.364C383.183,300.678,375.993,304.882,367.93,304.882z
			 M361.523,297.877c2.064,0.791,4.242,1.207,6.405,1.207c5.887,0,11.105-3.009,13.622-7.848c1.855-3.573,2.082-7.735,0.64-11.719
			c-1.474-4.072-4.496-7.459-8.516-9.547c-2.594-1.348-5.47-2.062-8.311-2.062c-5.889,0-11.108,3.008-13.62,7.849
			c-1.092,2.103-1.62,4.412-1.58,6.771c0.305-1.274,0.775-2.533,1.403-3.739c2.563-4.937,7.357-8.12,12.214-8.12
			c1.728,0,3.357,0.395,4.855,1.172c2.939,1.523,4.956,4.309,5.685,7.834c0.684,3.305,0.136,6.904-1.543,10.137
			C370.384,294.413,366.042,297.495,361.523,297.877z M363.782,276.471c-2.674,0-5.514,2.002-7.063,4.989
			c-1.064,2.052-1.43,4.282-1.011,6.285c0.367,1.782,1.319,3.149,2.675,3.849c2.942,1.538,7.243-0.604,9.254-4.461
			c1.062-2.047,1.417-4.281,1.006-6.287c-0.369-1.783-1.313-3.148-2.679-3.854C365.3,276.645,364.568,276.471,363.782,276.471z"/>
	</g>
	<g>
		<path fill="#2D352D" d="M439.482,290.266c9.117-4.168,12.843-15.556,8.32-25.455c-4.516-9.896-15.571-14.536-24.683-10.369
			c-9.114,4.162-12.843,15.55-8.321,25.445C419.319,289.782,430.372,294.425,439.482,290.266z M423.525,261.988
			c5.594-2.555,11.81-0.939,13.886,3.609c2.071,4.547-0.775,10.307-6.366,12.861c-5.591,2.547-11.807,0.939-13.883-3.613
			C415.087,270.302,417.935,264.55,423.525,261.988z"/>
		<path fill="#20231F" d="M432.451,294.689L432.451,294.689c-8.552,0-16.516-5.34-20.288-13.6
			c-5.176-11.326-0.797-24.467,9.753-29.285c2.597-1.191,5.371-1.792,8.243-1.792c8.548,0,16.517,5.336,20.281,13.594
			c5.18,11.33,0.802,24.475-9.753,29.293C438.09,294.085,435.317,294.689,432.451,294.689z M418.404,280.521
			c3.078,5.144,8.407,8.367,14.047,8.367c2.027,0,3.99-0.424,5.826-1.26c7.647-3.496,10.737-13.189,6.892-21.615
			c-2.832-6.197-8.725-10.203-15.01-10.203c-2.035,0-4,0.43-5.837,1.264c-2.189,1.003-4.008,2.515-5.394,4.359
			c1.007-0.807,2.143-1.515,3.392-2.082c2.111-0.966,4.407-1.475,6.638-1.475c5.008,0,9.258,2.497,11.09,6.516
			c2.738,5.996-0.76,13.487-7.798,16.703C427.569,283.232,422.056,282.915,418.404,280.521z M428.958,263.675
			c-1.406,0-2.865,0.329-4.228,0.948c-4.057,1.859-6.315,5.988-4.932,9.018c1.334,2.93,6.062,3.993,10.04,2.178
			c4.061-1.85,6.318-5.983,4.931-9.019C433.892,264.875,431.665,263.675,428.958,263.675z"/>
	</g>
	<g>
		<path fill="#2D352D" d="M261.014,296.943c9.112-4.161,12.842-15.549,8.318-25.442c-4.518-9.896-15.566-14.54-24.682-10.379
			c-9.113,4.165-12.843,15.553-8.32,25.455C240.852,296.471,251.898,301.109,261.014,296.943z M245.055,268.678
			c5.591-2.554,11.811-0.936,13.89,3.608c2.074,4.548-0.779,10.303-6.367,12.851c-5.594,2.559-11.81,0.945-13.886-3.601
			C236.616,276.993,239.464,271.234,245.055,268.678z"/>
		<path fill="#20231F" d="M253.979,301.374L253.979,301.374c-8.553,0-16.514-5.337-20.29-13.595
			c-2.486-5.451-2.865-11.483-1.065-16.982c1.822-5.586,5.664-9.956,10.822-12.309c2.597-1.189,5.367-1.793,8.24-1.793
			c8.553,0,16.518,5.341,20.285,13.602c2.49,5.446,2.872,11.477,1.068,16.977c-1.821,5.584-5.668,9.955-10.826,12.308
			C259.616,300.771,256.843,301.374,253.979,301.374z M239.934,287.208c3.079,5.14,8.405,8.365,14.044,8.365l0,0
			c2.031,0,3.992-0.427,5.826-1.269c3.666-1.672,6.409-4.812,7.726-8.836c1.344-4.113,1.051-8.646-0.835-12.764
			c-2.827-6.205-8.725-10.212-15.01-10.212c-2.035,0-3.994,0.425-5.831,1.263c-2.159,0.988-3.995,2.482-5.41,4.366
			c1.024-0.815,2.167-1.519,3.409-2.081c2.104-0.966,4.401-1.479,6.631-1.479c5.003,0,9.257,2.5,11.098,6.517
			c1.37,3.008,1.249,6.444-0.351,9.668c-1.498,3.022-4.146,5.519-7.453,7.024C249.105,289.912,243.585,289.6,239.934,287.208z
			 M250.484,270.366c-1.408,0-2.865,0.327-4.225,0.95c-2.099,0.959-3.754,2.496-4.662,4.334c-0.809,1.629-0.904,3.291-0.269,4.679
			c1.333,2.935,6.062,3.989,10.04,2.17c2.103-0.96,3.758-2.495,4.665-4.325c0.809-1.631,0.904-3.294,0.271-4.685
			C255.425,271.564,253.195,270.366,250.484,270.366z"/>
	</g>
	<g>
		<g>
			<g>
				<path fill="#138541" d="M82.226,259.6c-18.709,0-33.881,12.252-33.881,27.366c0,15.111,15.172,27.369,33.881,27.369
					c18.713,0,33.881-12.258,33.881-27.369C116.106,271.852,100.938,259.6,82.226,259.6z M83.312,305.162
					c-13.375,0-24.216-7.498-24.216-16.729c0-9.244,10.841-16.742,24.216-16.742c13.376,0,24.217,7.498,24.217,16.742
					C107.529,297.664,96.688,305.162,83.312,305.162z"/>
			</g>
		</g>
		<g>
			<g>
				<path fill="#225228" d="M82.226,317.234c-20.277,0-36.778-13.58-36.778-30.269s16.501-30.268,36.778-30.268
					c20.285,0,36.78,13.577,36.78,30.268C119.006,303.654,102.511,317.234,82.226,317.234z M82.226,262.497
					c-17.082,0-30.979,10.979-30.979,24.47c0,13.491,13.896,24.467,30.979,24.467s30.983-10.976,30.983-24.467
					C113.209,273.477,99.308,262.497,82.226,262.497z M83.312,308.061c-14.95,0-27.113-8.806-27.113-19.629
					c0-10.83,12.163-19.642,27.113-19.642c14.952,0,27.115,8.812,27.115,19.642C110.428,299.255,98.265,308.061,83.312,308.061z
					 M83.312,274.588c-11.552,0-21.316,6.34-21.316,13.844c0,7.496,9.765,13.832,21.316,13.832c11.558,0,21.318-6.336,21.318-13.832
					C104.631,280.928,94.87,274.588,83.312,274.588z"/>
			</g>
		</g>
	</g>
	<g>
		<g>
			<g>
				<path fill="#EBBFDA" d="M204.955,255.462c-18.71,0-33.878,12.254-33.878,27.367c0,15.116,15.168,27.369,33.878,27.369
					c18.712,0,33.881-12.253,33.881-27.369C238.836,267.716,223.667,255.462,204.955,255.462z M206.042,301.029
					c-13.372,0-24.216-7.493-24.216-16.735c0-9.237,10.844-16.731,24.216-16.731c13.379,0,24.216,7.494,24.216,16.731
					C230.258,293.536,219.421,301.029,206.042,301.029z"/>
			</g>
		</g>
		<g>
			<g>
				<path fill="#D49BC6" d="M204.955,313.1c-20.279,0-36.776-13.578-36.776-30.271c0-16.687,16.497-30.265,36.776-30.265
					c20.281,0,36.782,13.578,36.782,30.265C241.737,299.521,225.236,313.1,204.955,313.1z M204.955,258.363
					c-17.082,0-30.976,10.976-30.976,24.467c0,13.493,13.894,24.47,30.976,24.47c17.085,0,30.981-10.977,30.981-24.47
					C235.937,269.338,222.04,258.363,204.955,258.363z M206.042,303.93c-14.952,0-27.118-8.812-27.118-19.637
					c0-10.824,12.166-19.633,27.118-19.633c14.95,0,27.113,8.809,27.113,19.633C233.155,295.119,220.992,303.93,206.042,303.93z
					 M206.042,270.46c-11.554,0-21.317,6.335-21.317,13.833s9.764,13.838,21.317,13.838c11.557,0,21.316-6.34,21.316-13.838
					S217.599,270.46,206.042,270.46z"/>
			</g>
		</g>
	</g>
	<g>
		<g>
			<g>
				<path fill="#EBBFDA" d="M106.328,262.45c-18.71,0-33.878,12.247-33.878,27.364c0,15.11,15.168,27.36,33.878,27.36
					c18.709,0,33.876-12.25,33.876-27.36C140.204,274.697,125.037,262.45,106.328,262.45z M107.415,308.011
					c-13.375,0-24.219-7.497-24.219-16.729c0-9.243,10.844-16.744,24.219-16.744s24.22,7.501,24.22,16.744
					C131.635,300.514,120.79,308.011,107.415,308.011z"/>
			</g>
		</g>
		<g>
			<g>
				<path fill="#D49BC6" d="M106.328,320.078c-20.282,0-36.775-13.575-36.775-30.264s16.493-30.266,36.775-30.266
					c20.277,0,36.778,13.577,36.778,30.266C143.106,306.502,126.605,320.078,106.328,320.078z M106.328,265.35
					c-17.082,0-30.979,10.977-30.979,24.465c0,13.486,13.896,24.461,30.979,24.461c17.081,0,30.979-10.975,30.979-24.461
					C137.307,276.326,123.409,265.35,106.328,265.35z M107.415,310.914c-14.955,0-27.118-8.809-27.118-19.631
					c0-10.833,12.163-19.643,27.118-19.643c14.952,0,27.118,8.81,27.118,19.643C134.533,302.105,122.367,310.914,107.415,310.914z
					 M107.415,277.439c-11.557,0-21.316,6.338-21.316,13.844c0,7.494,9.76,13.828,21.316,13.828
					c11.554,0,21.313-6.334,21.313-13.828C128.729,283.777,118.969,277.439,107.415,277.439z"/>
			</g>
		</g>
	</g>
	<g>
		<g>
			<g>
				<path fill="#138541" d="M147.831,246.867c-31.548,0-57.123,16.101-57.123,35.963c0,19.861,25.575,35.972,57.123,35.972
					c31.552,0,57.124-16.108,57.124-35.972S179.383,246.867,147.831,246.867z M149.665,306.743
					c-22.553,0-40.836-9.849-40.836-21.985c0-12.15,18.283-21.994,40.836-21.994c22.551,0,40.831,9.844,40.831,21.994
					C190.496,296.895,172.216,306.743,149.665,306.743z"/>
			</g>
		</g>
		<g>
			<g>
				<path fill="#225228" d="M147.831,321.702c-33.095,0-60.021-17.437-60.021-38.872c0-21.43,26.927-38.863,60.021-38.863
					c33.094,0,60.021,17.436,60.021,38.863C207.853,304.266,180.926,321.702,147.831,321.702z M147.831,249.766
					c-29.898,0-54.226,14.833-54.226,33.063c0,18.235,24.327,33.071,54.226,33.071c29.902,0,54.225-14.836,54.225-33.071
					C202.056,264.6,177.733,249.766,147.831,249.766z M149.665,309.645c-24.525,0-43.738-10.932-43.738-24.888
					c0-13.957,19.213-24.892,43.738-24.892c24.523,0,43.732,10.935,43.732,24.892C193.397,298.713,174.188,309.645,149.665,309.645z
					 M149.665,265.664c-20.564,0-37.937,8.74-37.937,19.094c0,10.344,17.372,19.088,37.937,19.088
					c20.56,0,37.932-8.744,37.932-19.088C187.597,274.404,170.225,265.664,149.665,265.664z"/>
			</g>
		</g>
	</g>
	<g>
		<g>
			<g>
				<path fill="#138541" d="M316.497,263.729c-18.709,0-33.878,12.256-33.878,27.371c0,15.118,15.169,27.366,33.878,27.366
					s33.881-12.248,33.881-27.366C350.378,275.984,335.206,263.729,316.497,263.729z M317.585,309.292
					c-13.38,0-24.224-7.485-24.224-16.729c0-9.246,10.844-16.73,24.224-16.73c13.371,0,24.216,7.484,24.216,16.73
					C341.801,301.807,330.956,309.292,317.585,309.292z"/>
			</g>
		</g>
		<g>
			<g>
				<path fill="#225228" d="M316.497,321.366c-20.281,0-36.774-13.577-36.774-30.267c0-16.69,16.493-30.271,36.774-30.271
					c20.277,0,36.779,13.581,36.779,30.271C353.276,307.789,336.774,321.366,316.497,321.366z M316.497,266.627
					c-17.082,0-30.979,10.98-30.979,24.473c0,13.491,13.896,24.469,30.979,24.469s30.979-10.978,30.979-24.469
					C347.476,277.607,333.579,266.627,316.497,266.627z M317.585,312.191c-14.955,0-27.122-8.809-27.122-19.629
					c0-10.821,12.167-19.631,27.122-19.631c14.951,0,27.113,8.81,27.113,19.631C344.698,303.383,332.536,312.191,317.585,312.191z
					 M317.585,278.732c-11.558,0-21.321,6.334-21.321,13.83s9.765,13.828,21.321,13.828c11.553,0,21.313-6.332,21.313-13.828
					S329.138,278.732,317.585,278.732z"/>
			</g>
		</g>
	</g>
	<g>
		<g>
			<g>
				<path fill="#138541" d="M412.876,262.45c-18.71,0-33.878,12.247-33.878,27.364c0,15.11,15.168,27.36,33.878,27.36
					c18.713,0,33.884-12.25,33.884-27.36C446.76,274.697,431.589,262.45,412.876,262.45z M413.963,308.011
					c-13.376,0-24.216-7.497-24.216-16.729c0-9.243,10.84-16.744,24.216-16.744c13.375,0,24.216,7.501,24.216,16.744
					C438.179,300.514,427.338,308.011,413.963,308.011z"/>
			</g>
		</g>
		<g>
			<g>
				<path fill="#225228" d="M412.876,320.078c-20.278,0-36.78-13.575-36.78-30.264s16.502-30.266,36.78-30.266
					c20.28,0,36.783,13.577,36.783,30.266C449.659,306.502,433.156,320.078,412.876,320.078z M412.876,265.35
					c-17.082,0-30.976,10.977-30.976,24.465c0,13.486,13.894,24.461,30.976,24.461c17.085,0,30.986-10.975,30.986-24.461
					C443.862,276.326,429.961,265.35,412.876,265.35z M413.963,310.914c-14.951,0-27.118-8.809-27.118-19.631
					c0-10.833,12.167-19.643,27.118-19.643s27.118,8.81,27.118,19.643C441.081,302.105,428.914,310.914,413.963,310.914z
					 M413.963,277.439c-11.554,0-21.318,6.338-21.318,13.844c0,7.494,9.766,13.828,21.318,13.828
					c11.557,0,21.313-6.334,21.313-13.828C435.276,283.777,425.52,277.439,413.963,277.439z"/>
			</g>
		</g>
	</g>
	<g>
		<g>
			<g>
				<path fill="#EBBFDA" d="M439.226,259.6c-18.709,0-33.877,12.252-33.877,27.366c0,15.111,15.168,27.369,33.877,27.369
					s33.883-12.258,33.883-27.369C473.107,271.852,457.935,259.6,439.226,259.6z M440.316,305.162
					c-13.379,0-24.225-7.498-24.225-16.729c0-9.244,10.846-16.742,24.225-16.742c13.372,0,24.212,7.498,24.212,16.742
					C464.528,297.664,453.688,305.162,440.316,305.162z"/>
			</g>
		</g>
		<g>
			<g>
				<path fill="#D49BC6" d="M439.226,317.234c-20.277,0-36.775-13.58-36.775-30.269s16.498-30.268,36.775-30.268
					c20.281,0,36.779,13.577,36.779,30.268C476.005,303.654,459.507,317.234,439.226,317.234z M439.226,262.497
					c-17.082,0-30.979,10.979-30.979,24.47c0,13.491,13.896,24.467,30.979,24.467s30.979-10.976,30.979-24.467
					C470.205,273.477,456.308,262.497,439.226,262.497z M440.316,308.061c-14.955,0-27.121-8.806-27.121-19.629
					c0-10.83,12.166-19.642,27.121-19.642c14.946,0,27.109,8.812,27.109,19.642C467.427,299.255,455.264,308.061,440.316,308.061z
					 M440.316,274.588c-11.562,0-21.321,6.34-21.321,13.844c0,7.496,9.761,13.832,21.321,13.832c11.55,0,21.311-6.336,21.311-13.832
					C461.627,280.928,451.866,274.588,440.316,274.588z"/>
			</g>
		</g>
	</g>
	<g>
		<g>
			<g>
				<path fill="#EBBFDA" d="M316.497,274.613c-18.709,0-33.878,12.252-33.878,27.359c0,15.131,15.169,27.381,33.878,27.381
					s33.878-12.25,33.878-27.381C350.375,286.865,335.206,274.613,316.497,274.613z M317.581,320.18
					c-13.376,0-24.22-7.496-24.22-16.738c0-9.234,10.844-16.725,24.22-16.725c13.375,0,24.22,7.489,24.22,16.725
					C341.801,312.684,330.956,320.18,317.581,320.18z"/>
			</g>
		</g>
		<g>
			<g>
				<path fill="#D49BC6" d="M316.497,332.253c-20.281,0-36.774-13.584-36.774-30.28c0-16.684,16.493-30.261,36.774-30.261
					c20.277,0,36.775,13.577,36.775,30.261C353.272,318.669,336.774,332.253,316.497,332.253z M316.497,277.51
					c-17.082,0-30.979,10.977-30.979,24.463c0,13.5,13.896,24.479,30.979,24.479s30.976-10.979,30.976-24.479
					C347.473,288.486,333.579,277.51,316.497,277.51z M317.581,323.08c-14.951,0-27.118-8.811-27.118-19.639
					c0-10.819,12.167-19.625,27.118-19.625s27.117,8.806,27.117,19.625C344.698,314.27,332.532,323.08,317.581,323.08z
					 M317.581,289.615c-11.554,0-21.317,6.333-21.317,13.826c0,7.5,9.765,13.836,21.317,13.836c11.557,0,21.317-6.336,21.317-13.836
					C338.898,295.948,329.138,289.615,317.581,289.615z"/>
			</g>
		</g>
	</g>
	<g>
		<g>
			<g>
				<path fill="#138541" d="M382.103,251.003c-31.553,0-57.122,16.101-57.122,35.963s25.569,35.966,57.122,35.966
					c31.55,0,57.123-16.104,57.123-35.966S413.651,251.003,382.103,251.003z M383.932,310.879c-22.548,0-40.831-9.846-40.831-21.992
					c0-12.139,18.283-21.986,40.831-21.986c22.553,0,40.835,9.849,40.835,21.986C424.767,301.034,406.483,310.879,383.932,310.879z"
					/>
			</g>
		</g>
		<g>
			<g>
				<path fill="#225228" d="M382.103,325.832c-33.102,0-60.024-17.438-60.024-38.865c0-21.431,26.924-38.863,60.024-38.863
					c33.1,0,60.021,17.433,60.021,38.863C442.124,308.395,415.201,325.832,382.103,325.832z M382.103,253.9
					c-29.897,0-54.225,14.834-54.225,33.065s24.326,33.063,54.225,33.063c29.896,0,54.223-14.832,54.223-33.063
					S411.998,253.9,382.103,253.9z M383.932,313.779c-24.521,0-43.729-10.936-43.729-24.893c0-13.955,19.208-24.887,43.729-24.887
					c24.524,0,43.733,10.932,43.733,24.887C427.665,302.844,408.456,313.779,383.932,313.779z M383.932,269.8
					c-20.561,0-37.933,8.741-37.933,19.087c0,10.35,17.372,19.092,37.933,19.092c20.562,0,37.938-8.742,37.938-19.092
					C421.868,278.542,404.492,269.8,383.932,269.8z"/>
			</g>
		</g>
	</g>
	<g>
		<g>
			<g>
				<path fill="#138541" d="M251.82,257.936c-21.386,0-38.715,14.567-38.715,32.523c0,17.966,17.329,32.533,38.715,32.533
					c21.385,0,38.717-14.567,38.717-32.533C290.537,272.503,273.205,257.936,251.82,257.936z M253.061,312.085
					c-15.287,0-27.673-8.905-27.673-19.887c0-10.982,12.387-19.884,27.673-19.884c15.285,0,27.676,8.9,27.676,19.884
					C280.734,303.18,268.346,312.085,253.061,312.085z"/>
			</g>
		</g>
		<g>
			<g>
				<path fill="#225228" d="M251.82,325.893c-22.952,0-41.617-15.896-41.617-35.434c0-19.533,18.665-35.426,41.617-35.426
					c22.945,0,41.613,15.893,41.613,35.426C293.436,309.998,274.768,325.893,251.82,325.893z M251.82,260.835
					c-19.75,0-35.815,13.288-35.815,29.624c0,16.342,16.066,29.633,35.815,29.633c19.748,0,35.816-13.291,35.816-29.633
					C287.639,274.124,271.568,260.835,251.82,260.835z M253.061,314.986c-16.862,0-30.572-10.221-30.572-22.787
					c0-12.562,13.709-22.784,30.572-22.784c16.856,0,30.572,10.224,30.572,22.784C283.633,304.766,269.917,314.986,253.061,314.986z
					 M253.061,275.214c-13.66,0-24.774,7.62-24.774,16.984c0,9.362,11.115,16.985,24.774,16.985c13.66,0,24.777-7.623,24.777-16.985
					C277.838,282.834,266.721,275.214,253.061,275.214z"/>
			</g>
		</g>
	</g>
	<g>
		<path fill="#2D352D" d="M108.833,290.266c9.114-4.168,12.843-15.556,8.32-25.455c-4.519-9.896-15.568-14.536-24.683-10.369
			c-9.116,4.162-12.846,15.55-8.324,25.445C88.666,289.782,99.719,294.425,108.833,290.266z M92.875,261.988
			c5.591-2.555,11.807-0.939,13.89,3.609c2.075,4.547-0.774,10.307-6.37,12.861c-5.587,2.547-11.806,0.939-13.882-3.613
			C84.437,270.302,87.284,264.55,92.875,261.988z"/>
		<path fill="#20231F" d="M101.798,294.689L101.798,294.689c-8.548,0-16.517-5.34-20.288-13.602
			c-2.487-5.447-2.865-11.475-1.068-16.977c1.825-5.586,5.671-9.957,10.824-12.309c2.602-1.191,5.371-1.791,8.244-1.791
			c8.549,0,16.513,5.337,20.285,13.591c5.172,11.332,0.8,24.474-9.754,29.297C107.441,294.085,104.671,294.689,101.798,294.689z
			 M87.755,280.521c3.082,5.144,8.404,8.367,14.043,8.367c2.036,0,3.997-0.424,5.831-1.26c7.647-3.496,10.733-13.189,6.887-21.615
			c-2.832-6.197-8.721-10.203-15.006-10.203c-2.034,0-3.997,0.43-5.838,1.264c-2.159,0.99-4,2.488-5.418,4.375
			c1.018-0.812,2.161-1.521,3.412-2.098c2.116-0.965,4.409-1.475,6.639-1.475c5.007,0,9.258,2.497,11.095,6.516
			c1.374,3.008,1.248,6.442-0.346,9.668c-1.499,3.025-4.144,5.526-7.454,7.035C96.916,283.232,91.41,282.91,87.755,280.521z
			 M98.305,263.675c-1.403,0-2.861,0.329-4.225,0.948c-4.052,1.859-6.314,5.988-4.93,9.018c0.878,1.93,3.107,3.129,5.814,3.129
			c1.403,0,2.865-0.328,4.226-0.951c2.101-0.954,3.758-2.498,4.668-4.328c0.805-1.635,0.9-3.299,0.266-4.689
			C103.241,264.875,101.017,263.675,98.305,263.675z"/>
	</g>
	<g>
		<path fill="#2D352D" d="M184.735,274.323c-14.334,0-25.949,7.823-25.949,17.469s11.615,17.461,25.949,17.461
			c14.327,0,25.938-7.815,25.938-17.461S199.062,274.323,184.735,274.323z M188.691,303.006c-8.791,0-15.917-3.589-15.917-8.025
			c0-4.435,7.126-8.026,15.917-8.026s15.921,3.593,15.921,8.026C204.612,299.417,197.482,303.006,188.691,303.006z"/>
		<path fill="#20231F" d="M184.735,312.15c-16.174,0-28.849-8.94-28.849-20.358c0-11.42,12.675-20.367,28.849-20.367
			c16.175,0,28.84,8.947,28.84,20.367C213.575,303.209,200.91,312.15,184.735,312.15z M184.735,277.227
			c-12.497,0-23.048,6.668-23.048,14.564c0,7.891,10.551,14.561,23.048,14.561c2.009,0,3.975-0.17,5.853-0.5
			c-0.625,0.037-1.253,0.056-1.896,0.056c-10.726,0-18.815-4.7-18.815-10.927c0-6.228,8.09-10.928,18.815-10.928
			c10.242,0,18.077,4.279,18.772,10.082c0.206-0.765,0.312-1.549,0.312-2.344C207.775,283.895,197.222,277.227,184.735,277.227z
			 M188.691,289.854c-7.828,0-13.019,3.086-13.019,5.127s5.19,5.125,13.019,5.125s13.023-3.084,13.023-5.125
			C201.715,292.939,196.52,289.854,188.691,289.854z"/>
	</g>
	<g>
		<path fill="#7B2D18" d="M59.722,214.097c0,0-11.688,7.345-11.377,15.517c0.324,8.18,4.875,4.461-0.003,11.146
			c-4.876,6.694,1.164,12.304,0,14.701c-1.161,2.397,0.43,1.165,0.003,6.987c-0.419,5.809,11.377,9.898,11.377,9.898
			c15.675,0.282,18.221,1.453,22.504,1.975c4.287,0.523,6.527-1.687,10.639-1.266c4.11,0.406,1.025-2.906,7.788-0.709
			c6.763,2.189,5.745,5.568,9.584,6.688c3.828,1.114,0.129,4.366,8.843,3.792c8.709-0.578,13.65,2.924,16.538,0.665
			c2.883-2.248,4.587-4.457,4.587-4.457s9.934,2.192,15.481,3.792c5.536,1.599,14.499-5.521,15.392-5.869
			c0.896-0.366-13.654-6.589,0-4.611c13.658,1.975,13.658,3.992,13.658,3.992c5.874,4.555,11.821,7.916,11.821,7.916
			s0.742,2.835,2.972,2.709c2.23-0.132,5.735,3.602,10.125,0c4.386-3.604,9.94-3.472,9.94-3.472s0.532-3.132,3.714,0
			c3.185,3.136-6.646,3.198,3.185,3.136c9.838-0.054,13.199,9.74,15.238-1.715c2.042-11.451,21.339-2.086,21.339-2.086
			s-5.894,2.428,0.191,4.137c6.078,1.702,3.368,7.012,9.635,2.848c6.268-4.168,8.832-5.047,9.724-6.983
			c0.89-1.935,4.368-6.224,7.918-3.792c3.548,2.428,10.071,4.457,10.071,4.457s-0.688-3.736,5.194,0
			c5.878,3.738,11.777,3.223,11.777,3.223s2.795-1.855,7.398,0.249c4.603,2.101,4.302,10.619,8.907,4.134
			c4.606-6.49,4.07-12.062,4.07-12.062s-5.632-7.551,6.727,3.792c12.361,11.34,22.617-8.414,22.617-8.414l3.563,12.551l8.133,2.849
			c0,0-5.44,10.812,10.749,1.469c16.182-9.358,10.789-12.049,16.182-9.358c5.4,2.687-14.318,8.843,5.4,2.687
			c19.716-6.15,20.365-0.487,27.896,2.355c7.534,2.848,18.923-8.297,18.923-8.297l6.187-4.348c0,0-1.399,2.186,5.125,0.291
			c6.524-1.889,5.224-10.551,3.648-12.163c-1.585-1.614-3.628-4.183,0-6.987c3.616-2.807,4.358,3.548,5.848-4.459
			c1.483-8.009-0.746,1.652,0-10.242c0.746-11.885,0.521-18.577,0.521-18.577s-3.28-1.058-8.96-3.872
			c-5.679-2.817-5.679-2.817-5.679-2.817s6.365,0.004-11.311-5.196c-17.676-5.209-10.316-9.364-48.18-11
			c-37.867-1.637-60.903-2.822-110.693,0c-49.795,2.821-192.551-16.133-194.002-14.086
			C99.201,187.257,59.722,214.097,59.722,214.097z"/>
		<path fill="#3C2517" d="M380.255,297.986c-2.571,0-3.806-1.373-4.31-2.196c-0.806-1.302-0.83-2.833-0.588-4.179l-5.451-1.909
			c-0.894-0.312-1.576-1.035-1.832-1.947l-1.859-6.545c-3.034,3.745-7.796,8.031-13.665,8.031c-3.428,0-6.738-1.438-9.828-4.271
			c-0.825-0.758-1.554-1.413-2.195-1.983c-0.484,2.578-1.636,6.076-4.276,9.795c-1.193,1.681-2.86,3.611-5.193,3.611
			c-2.583,0-3.851-2.145-4.863-3.867c-0.69-1.166-1.466-2.488-2.417-2.918c-1.076-0.496-2.099-0.744-3.038-0.744
			c-1.04,0-1.613,0.312-1.636,0.324c-0.349,0.196-0.869,0.379-1.267,0.42c0,0-0.367,0.037-1.019,0.037
			c-2.031,0-7.317-0.361-12.57-3.703c-0.5-0.316-0.911-0.551-1.245-0.727c-0.533,0.721-1.433,1.169-2.363,1.182
			c-0.304-0.035-0.599-0.039-0.892-0.133c-0.283-0.09-6.979-2.188-10.849-4.832c-0.287-0.197-0.467-0.222-0.568-0.222
			c-0.98,0-2.561,1.713-3.071,2.831c-0.966,2.104-2.778,3.205-5.774,5.037c-1.312,0.8-2.945,1.798-4.981,3.15
			c-2.187,1.451-3.653,2.043-5.069,2.043c-2.295,0-3.475-1.562-4.18-2.5c-0.662-0.877-1.188-1.569-2.773-2.014
			c-1.162-0.326-4.681-1.316-4.863-4.443c-0.033-0.539,0.044-1.033,0.205-1.486c-2.42-0.842-5.562-1.704-8.309-1.704
			c-3.813,0-4.622,1.586-4.926,3.301c-0.459,2.579-1.419,7.953-5.915,7.953c-1.602,0-3.005-0.729-4.636-1.577
			c-2.043-1.064-4.356-2.27-7.457-2.27l-2.646,0.013c-2.075,0-4.225,0-4.761-2.373c-0.048-0.187-0.088-0.453-0.077-0.763
			c-1.227,0.074-4.783,0.484-7.601,2.798c-1.804,1.481-3.772,2.233-5.855,2.233c-1.943,0-3.601-0.664-4.809-1.143
			c-0.434-0.176-1.029-0.411-1.238-0.438c-0.008,0-0.011,0-0.019,0c-2.873,0-4.544-1.91-5.355-3.608
			c-1.921-1.14-6.583-3.996-11.259-7.617c-0.247-0.188-0.456-0.411-0.625-0.661c-0.555-0.312-2.575-1.232-8.544-2.261
			c0.183,0.403,0.261,0.862,0.224,1.412c-0.084,1.101-0.819,2.104-1.844,2.521c0.029,0.004-0.262,0.203-0.651,0.461
			c-2.847,1.899-8.775,5.856-14.073,5.856c-0.903,0-1.763-0.114-2.563-0.344c-4.044-1.171-10.569-2.685-13.622-3.373
			c-0.878,0.942-2.189,2.235-3.864,3.534c-2.135,1.666-5.102,1.504-8.856,0.773c-2.546-0.498-5.503-1.088-9.269-0.828
			c-0.768,0.051-1.447,0.072-2.053,0.072c-4.567,0-6.205-1.367-7.366-3.568c-0.056-0.108-0.106-0.225-0.177-0.326l0,0
			c-0.019,0-0.103-0.041-0.25-0.082c-2.523-0.735-3.734-2.209-4.708-3.394c-0.997-1.202-1.937-2.344-4.96-3.325
			c-1.309-0.422-2.017-0.557-2.377-0.596c-0.673,0.643-1.778,1.48-3.857,1.48c-0.286,0-0.595-0.012-0.947-0.049
			c-1.536-0.16-2.667,0.17-4.096,0.555c-1.396,0.384-2.983,0.81-4.949,0.81l0,0c-0.525,0-1.072-0.032-1.656-0.097
			c-1.04-0.131-1.979-0.291-3.022-0.475c-3.277-0.565-7.358-1.271-19.184-1.485c-0.305-0.005-0.61-0.06-0.9-0.158
			c-2.318-0.81-13.867-5.207-13.309-12.851c0.18-2.492-0.052-3.308-0.198-3.852c-0.354-1.254-0.4-2.229,0.301-3.822
			c-0.092-0.387-0.356-1.092-0.559-1.631c-1.164-3.075-3.119-8.233,0.996-13.88c0.863-1.184,1.296-1.862,1.51-2.251
			c-0.934-1.384-1.907-3.229-2.055-7.074c-0.374-9.577,11.385-17.242,12.726-18.084c14.459-9.836,38.282-26.279,40.266-28.305
			c0.819-1.179,2.443-1.179,3.517-1.179c4.646,0,19.958,1.578,41.146,3.773c41.387,4.281,103.936,10.754,139.896,10.754
			c4.319,0,8.185-0.099,11.487-0.283c20.535-1.167,37.554-1.706,53.566-1.706c18.188,0,33.748,0.674,53.445,1.528l3.971,0.178
			c26.631,1.148,31.622,3.622,37.952,6.761c2.767,1.372,5.631,2.792,10.921,4.349c10.927,3.212,13.975,4.666,14.456,6.71
			l3.005,1.489c5.367,2.664,8.533,3.702,8.565,3.712c1.161,0.379,1.963,1.442,2.003,2.662c0.011,0.281,0.216,6.967-0.525,18.854
			c-0.166,2.633-0.166,3.988-0.14,4.663c0.015,0.015,0.025,0.028,0.033,0.045c0.926,1.225,0.745,2.21,0.062,5.881
			c-0.513,2.785-1.227,6.604-4.646,6.604c-0.8,0-1.443-0.258-1.866-0.427c-0.07-0.028-0.146-0.065-0.224-0.097
			c-0.021,0.03-0.097,0.072-0.186,0.145c-0.72,0.557-0.896,0.936-0.901,0.994c0,0.043,0.007,0.457,1.192,1.665
			c1.896,1.94,2.656,6.47,1.701,10.104c-0.915,3.465-3.262,5.907-6.612,6.879c-3.026,0.879-4.967,1.064-6.264,0.705l-4,2.807
			c-1.613,1.545-10.217,9.425-18.085,9.425c-1.319,0-2.568-0.222-3.715-0.656c-1.961-0.739-3.501-1.646-4.859-2.438
			c-2.457-1.442-4.234-2.486-7.901-2.486c-3.251,0-7.586,0.857-13.246,2.628c-8.223,2.563-8.897,2.776-9.769,2.776
			c-1.233,0-2.397-0.809-2.807-1.965c-1.944,1.539-4.625,3.406-8.424,5.604C386.238,296.654,382.764,297.986,380.255,297.986z
			 M373.241,284.725l6.717,2.354c0.785,0.274,1.414,0.875,1.729,1.649c0.312,0.773,0.274,1.646-0.097,2.391
			c-0.14,0.271-0.265,0.598-0.367,0.918c1.136-0.284,3.288-1.079,7.071-3.268c7.688-4.445,10.216-7.264,11.428-8.617
			c0.891-0.993,1.894-2.113,3.724-2.113c1.182,0,2.159,0.486,3.778,1.291c1.58,0.786,2.204,1.88,2.447,2.76
			c0.257-0.08,0.521-0.165,0.792-0.249c6.315-1.969,11.073-2.886,14.974-2.886c5.242,0,8.22,1.744,10.842,3.281
			c1.268,0.748,2.473,1.451,3.972,2.019c0.488,0.185,1.047,0.279,1.664,0.279c4.98,0,11.942-5.731,14.205-7.938
			c0.114-0.109,0.234-0.211,0.363-0.3l6.187-4.343c1.132-0.795,2.678-0.673,3.673,0.279c0.045,0.043,0.089,0.088,0.129,0.127
			c0.512-0.088,1.218-0.252,2.181-0.529c1.229-0.359,2.013-1.083,2.457-2.289c0.753-2.036,0.213-4.59-0.178-5.188
			c-0.73-0.725-2.938-2.98-2.735-5.998c0.132-1.932,1.187-3.678,3.134-5.183c1.438-1.114,3.122-1.532,4.496-1.325
			c0.08-0.361,0.177-0.812,0.279-1.375c0.16-0.879,0.271-1.498,0.345-1.936c-0.782-1.657-0.61-4.434-0.386-7.955
			c0.495-7.966,0.551-13.6,0.544-16.365c-1.596-0.622-4.106-1.683-7.382-3.307l-5.679-2.813c-0.809-0.401-1.357-1.137-1.543-1.973
			c-1.551-0.611-4.331-1.584-9.293-3.043c-5.774-1.701-9.013-3.304-11.862-4.72c-5.713-2.829-10.228-5.064-35.626-6.162
			l-3.975-0.173c-19.628-0.853-35.127-1.526-53.192-1.526c-15.898,0-32.814,0.54-53.236,1.697
			c-3.412,0.193-7.391,0.292-11.817,0.292c-36.261,0-98.986-6.493-140.494-10.784c-20.226-2.094-36.198-3.744-40.547-3.744
			c-0.02,0-0.042,0-0.063,0c-4.934,4.149-24.26,17.466-40.545,28.538c-2.942,1.858-10.319,7.701-10.105,13.005
			c0.103,2.662,0.687,3.503,1.153,4.174c2.058,2.983,1.007,5.065-1.712,8.796c-2.112,2.896-1.473,5.211-0.265,8.412
			c0.725,1.914,1.474,3.889,0.529,5.844c-0.036,0.063-0.062,0.123-0.084,0.18c0.33,1.27,0.591,2.751,0.37,5.748
			c-0.161,2.221,5.084,5.348,9.016,6.803c11.909,0.232,16.34,1.003,19.586,1.562c0.941,0.16,1.794,0.313,2.738,0.422
			c0.333,0.046,0.649,0.062,0.95,0.062l0,0c1.194,0,2.231-0.276,3.439-0.604c1.689-0.453,3.669-0.977,6.19-0.726
			c0.116,0.009,0.223,0.021,0.33,0.021c1.01-0.987,2.825-2.303,8.056-0.603c4.633,1.501,6.374,3.608,7.646,5.152
			c0.8,0.97,1.087,1.286,1.861,1.512c2.616,0.761,3.475,2.397,3.934,3.274c0.053,0.107,0.104,0.207,0.169,0.312
			c-0.011-0.032,0.52,0.16,2.062,0.16c0.496,0,1.05-0.022,1.671-0.063c4.488-0.282,8.037,0.392,10.763,0.924
			c1.374,0.267,2.564,0.5,3.395,0.5c0.592,0,0.734-0.112,0.783-0.151c2.538-1.976,4.074-3.931,4.092-3.95
			c0.683-0.882,1.825-1.295,2.909-1.055c0.412,0.091,10.088,2.23,15.66,3.842c0.272,0.078,0.596,0.119,0.955,0.119
			c2.484,0,5.838-1.743,8.313-3.249c-2.325-1.476-3.956-2.981-3.339-5.243c0.471-1.73,1.995-2.613,4.529-2.613
			c1.124,0,2.608,0.139,4.544,0.422c10.154,1.469,14.188,3.089,15.547,4.978c5.47,4.167,10.892,7.245,10.942,7.276
			c0.684,0.387,1.183,1.029,1.382,1.785c0.044,0.162,0.169,0.404,0.272,0.551c1.34,0.039,2.354,0.445,3.338,0.838
			c0.904,0.357,1.834,0.73,2.664,0.73c0.459,0,1.175-0.097,2.175-0.914c3.538-2.902,7.626-3.771,9.974-4.026
			c0.717-0.873,1.773-1.497,3.145-1.497c1.451,0,2.892,0.729,4.412,2.227c0.815,0.803,1.227,1.594,1.41,2.307
			c4.474,0.07,7.77,1.779,9.959,2.921c0.448,0.233,0.995,0.521,1.425,0.708c0.192-0.487,0.46-1.378,0.742-2.956
			c0.912-5.14,4.787-8.081,10.632-8.081c6.715,0,14.496,3.74,14.826,3.898c1.024,0.496,1.664,1.555,1.632,2.697
			c-0.02,0.629-0.242,1.221-0.617,1.7c2.543,1.036,3.746,2.623,4.515,3.638c0.294-0.156,0.76-0.418,1.422-0.859
			c2.116-1.406,3.812-2.441,5.176-3.275c1.841-1.124,3.296-2.01,3.521-2.503c1.148-2.495,4.316-6.21,8.347-6.21
			c1.354,0,2.655,0.414,3.847,1.232c1.799,1.231,4.721,2.451,6.916,3.26c1.765-1.52,4.388-1.323,8.267,1.142
			c3.964,2.522,7.935,2.798,9.459,2.798c0.004,0,0.016,0,0.025,0c0.809-0.358,2.136-0.781,3.895-0.781
			c1.776,0,3.609,0.427,5.446,1.268c2.609,1.191,3.989,3.534,5,5.245c0.033,0.055,0.066,0.114,0.104,0.174
			c0.074-0.101,0.155-0.208,0.235-0.325c3.022-4.254,3.498-7.945,3.549-9.438c-1.153-1.7-1.697-3.178-0.966-4.633
			c0.487-0.983,1.642-1.674,2.739-1.674c1.333,0,2.523,0.34,9.797,7.021c1.987,1.819,3.976,2.744,5.908,2.744
			c5.543,0,10.671-7.485,12.186-10.366c0.547-1.052,1.623-1.686,2.864-1.544c1.184,0.121,2.172,0.948,2.49,2.095L373.241,284.725z"
			/>
	</g>
	<g>
		<path fill="#F7DC57" d="M72.45,224.417c0,0,12.686,21.134,46.629,33.519c7.181,2.717,72.275-2.474,72.275-2.474l99.183-19.159
			l-159.38-59.382L72.45,224.417z"/>
		<path fill="#3C2517" d="M129.945,261.622h-0.005c-8.25,0-10.689-0.521-11.89-0.976c-34.477-12.581-47.548-33.838-48.091-34.74
			c-0.742-1.238-0.46-2.835,0.664-3.743l58.707-47.498c0.802-0.648,1.878-0.821,2.836-0.463l159.383,59.386
			c1.217,0.454,1.984,1.665,1.874,2.96c-0.106,1.291-1.062,2.359-2.336,2.605l-99.186,19.156c-0.103,0.024-0.213,0.037-0.312,0.047
			C191.175,258.386,150.37,261.622,129.945,261.622z M76.37,224.972c4.114,5.464,17.35,20.625,43.7,30.237
			c0.302,0.111,2.021,0.611,9.87,0.611c19.551,0,58.207-3.014,61.025-3.234l88.881-17.17l-148.149-55.198L76.37,224.972z"/>
	</g>
	<g>
		<path fill="#F7DC57" d="M459.423,224.417c0,0-12.685,21.134-46.628,33.519c-7.188,2.717-72.276-2.474-72.276-2.474l-99.186-19.159
			l159.375-59.382L459.423,224.417z"/>
		<path fill="#3C2517" d="M401.929,261.622c-20.425,0-61.229-3.235-61.638-3.267c-0.107-0.008-0.217-0.021-0.324-0.045
			l-99.181-19.157c-1.279-0.246-2.237-1.314-2.344-2.605c-0.107-1.295,0.66-2.506,1.881-2.96l159.376-59.386
			c0.966-0.361,2.038-0.182,2.835,0.463l58.714,47.498c1.124,0.908,1.407,2.505,0.662,3.743
			c-0.541,0.902-13.614,22.16-48.124,34.753C412.618,261.102,410.18,261.622,401.929,261.622z M340.908,252.586
			c2.816,0.221,41.47,3.234,61.021,3.234c7.851,0,9.573-0.5,9.843-0.602c26.366-9.623,39.61-24.777,43.729-30.248l-55.33-44.754
			l-148.146,55.195L340.908,252.586z"/>
	</g>
	<g>
		<path fill="#F7DC57" d="M350.778,224.417c0,0-12.692,21.134-46.632,33.519c-7.189,2.717-72.279-2.474-72.279-2.474l-99.183-19.159
			l159.38-59.382L350.778,224.417z"/>
		<path fill="#3C2517" d="M293.279,261.622c-20.424,0-61.229-3.235-61.645-3.267c-0.107-0.008-0.214-0.021-0.32-0.045
			l-99.181-19.157c-1.275-0.246-2.23-1.314-2.34-2.605c-0.104-1.295,0.66-2.506,1.876-2.96l159.376-59.386
			c0.97-0.361,2.039-0.182,2.839,0.463l58.715,47.498c1.124,0.908,1.406,2.505,0.661,3.743c-0.54,0.902-13.61,22.16-48.12,34.753
			C303.97,261.102,301.531,261.622,293.279,261.622z M232.256,252.586c2.817,0.221,41.479,3.234,61.023,3.234
			c7.854,0,9.577-0.5,9.839-0.602c26.376-9.623,39.619-24.777,43.737-30.248l-55.332-44.754l-148.146,55.198L232.256,252.586z"/>
	</g>
	<g>
		<g>
			<path fill="#E3973A" d="M62.062,164.42c-6.05,3.077-13.191,15.36-9.35,31.943c3.851,16.593,10.448,52.86,146.251,47.939
				c135.795-4.919,166.035,1.529,169.334,0.458c3.3-1.069,109.956,7.538,106.109-44.092c-3.846-51.613-71.476-84.803-107.759-75.584
				c-24.741-15.98-57.18-36.877-103.388-4.919c-17.567-23.97-53.307-29.111-71.446-16.708l-24.741,21.626
				c0,0-40.148-26.442-67.078,4.303c-17.413,19.881-18.691,23.356-18.691,23.356S68.109,161.348,62.062,164.42z"/>
			<path fill="#3C2517" d="M366.972,247.778c-1.327,0-3.365-0.142-6.447-0.354c-9.721-0.682-29.942-2.096-69.874-2.096
				c-26.481,0-57.296,0.631-91.584,1.876c-8.36,0.301-16.479,0.453-24.128,0.453c-113.376,0-121.16-33.769-124.902-50.002
				l-0.144-0.637c-4.251-18.302,3.791-31.591,10.855-35.182c5.106-2.595,15.697-9.4,18.356-11.12
				c1.289-2.202,5.429-8.076,18.71-23.239c9.22-10.528,20.86-15.868,34.593-15.868c15.697,0,29.443,7.043,34.354,9.893
				l23.144-20.228c0.088-0.074,0.176-0.145,0.275-0.209c6.623-4.531,15.696-7.027,25.542-7.027c18.742,0,36.929,8.443,48.167,22.201
				c15.932-10.545,31.217-15.679,46.649-15.679c22.951,0,41.584,11.699,56.642,21.415c3.908-0.878,8.188-1.326,12.736-1.326
				c37.278,0,93.748,31.089,97.381,79.804c0.729,9.714-2.142,18.12-8.52,24.99c-13.657,14.714-43.183,22.177-87.749,22.177
				c-2.648,0-4.975-0.025-6.896-0.045c-2.575-0.026-4.456-0.058-5.176,0.013C368.441,247.721,367.827,247.778,366.972,247.778z
				 M290.65,239.529c40.133,0,60.49,1.424,70.277,2.107c3.621,0.258,5.833,0.443,6.639,0.319c0.443-0.15,1.136-0.204,3.195-0.204
				c0.922,0,2.071,0.013,3.429,0.024c1.901,0.021,4.212,0.045,6.839,0.045c53.42,0,74.892-11.05,83.499-20.323
				c5.309-5.72,7.594-12.467,6.987-20.615c-1.484-19.936-13.32-38.978-33.322-53.617c-17.55-12.84-39.879-20.818-58.276-20.818
				c-4.555,0-8.776,0.485-12.557,1.446c-0.778,0.198-1.603,0.062-2.285-0.375c-15.358-9.918-32.765-21.161-54.536-21.161
				c-14.952,0-29.873,5.297-45.633,16.19c-1.286,0.896-3.061,0.596-3.981-0.668c-11.914-16.254-31.167-22.045-45.203-22.045
				c-8.618,0-16.469,2.103-22.13,5.921l-24.608,21.51c-0.978,0.854-2.417,0.954-3.505,0.239
				c-0.154-0.101-15.594-10.099-33.072-10.099c-11.991,0-22.159,4.675-30.229,13.888c-16.094,18.377-18.141,22.445-18.218,22.609
				c-0.227,0.476-0.628,0.979-1.071,1.269c-0.544,0.355-13.398,8.725-19.511,11.833c-4.522,2.298-11.462,13.074-7.84,28.701
				l0.151,0.645c3.402,14.771,10.487,45.504,119.249,45.504c7.579,0,15.624-0.147,23.919-0.455
				C233.219,240.161,264.098,239.529,290.65,239.529z"/>
		</g>
		<g>
			<path fill="#FEE394" d="M184.665,148.44c12.832,15.159,46.364,47.923,54.981,50.789c8.611,2.871-9.899-87.076-47.832-95.771
				c-3.497,3.057-24.741,21.626-24.741,21.626S171.837,133.28,184.665,148.44z"/>
			<path fill="#3C2517" d="M240.036,202.197c-0.003,0-0.007,0-0.007,0c-0.434,0-0.871-0.072-1.297-0.213
				c-9.907-3.297-45.026-38.372-56.278-51.67c-12.85-15.183-17.688-23.43-17.887-23.773c-0.697-1.199-0.448-2.726,0.6-3.641
				l24.737-21.626c0.701-0.61,1.649-0.849,2.561-0.643c19.293,4.423,32.419,27.05,40.033,45.254
				c8.633,20.625,12.95,42.417,11.998,50.779C243.944,201.479,241.469,202.197,240.036,202.197z M170.853,125.633
				c2.138,3.26,7.127,10.417,16.028,20.936c12.291,14.521,42.068,43.427,51.95,49.091c0.684-6.993-3.839-31.438-14.62-54.137
				c-6.517-13.721-17.229-30.676-31.644-34.873L170.853,125.633z"/>
		</g>
		<g>
			<path fill="#FEE394" d="M263.261,120.166c0,0,63.255,53.679,67.287,61.459c12.646,9.62,15.099-65.947-42.354-74.359
				C281.43,108.695,263.261,120.166,263.261,120.166z"/>
			<path fill="#3C2517" d="M332.689,185.37L332.689,185.37c-1.333,0-2.648-0.487-3.901-1.438c-0.341-0.259-0.617-0.593-0.815-0.975
				c-2.747-5.295-42.304-39.97-66.589-60.582c-0.706-0.595-1.081-1.493-1.018-2.413c0.069-0.921,0.563-1.756,1.345-2.249
				c1.909-1.203,18.814-11.79,25.879-13.286c0.338-0.067,0.691-0.081,1.021-0.029c42.624,6.237,53.52,47.945,52.115,67.165
				C340.088,180.336,337.157,185.37,332.689,185.37z M268.18,120.542c13.225,11.28,58.251,49.949,64.467,58.98
				c1.39-1.111,3.731-8.847,1.491-21.734c-1.704-9.788-10.027-42.02-45.819-47.572C283.854,111.406,274.18,116.918,268.18,120.542z"
				/>
		</g>
		<g>
			<path fill="#FEE394" d="M366.647,125.084c0,0,40.137,44.993,43.064,57.116c2.936,12.115,10.814-15.526,8.005-25.978
				C415.487,147.926,399.816,116.479,366.647,125.084z"/>
			<path fill="#3C2517" d="M411.615,188.11c0,0,0,0-0.003,0c-2.289,0-3.876-1.761-4.719-5.232
				c-2.263-9.362-31.382-43.5-42.409-55.865c-0.674-0.753-0.903-1.802-0.61-2.77c0.295-0.968,1.066-1.712,2.047-1.966
				c4.015-1.041,7.979-1.568,11.792-1.568c27.775,0,40.831,27.419,42.809,34.763c2.188,8.159-1.269,25.412-5.178,30.508
				C414.264,187.394,413.004,188.11,411.615,188.11z M372.144,126.921c9.71,11.078,35.416,41.061,39.912,53.073
				c2.144-5.424,4.42-17.229,2.862-23.017c-1.733-6.436-13.118-30.47-37.205-30.47C375.897,126.508,374.032,126.646,372.144,126.921
				z"/>
		</g>
		<g>
			<path fill="#FEE394" d="M62.608,166.468c0,0,41.783,43.416,72.941,47.515c11.183,1.637-1.285-14.685-1.285-14.685
				S97.276,140.06,91.127,139.74c-1.334,1.607-4.637,6.612-11.535,14.11C72.689,161.348,56.012,163.805,62.608,166.468z"/>
			<path fill="#3C2517" d="M136.998,216.998L136.998,216.998c-0.559,0-1.175-0.045-1.866-0.147
				c-30.482-4.011-69.592-43.23-74.212-47.963c-1.782-0.869-2.693-2.094-2.723-3.641c-0.051-2.931,2.763-4.188,7.428-6.265
				c3.799-1.693,8.993-4.011,11.836-7.095c5.118-5.562,8.171-9.665,9.992-12.115c0.617-0.834,1.091-1.464,1.437-1.881
				c0.584-0.706,1.437-1.1,2.384-1.045c6.334,0.327,28.216,33.31,45.453,60.918c2.421,3.15,8.15,11.503,5.796,16.259
				C141.972,215.133,140.525,216.998,136.998,216.998z M65.592,165.366c6.186,6.21,42.998,42.145,70.337,45.741
				c0.426,0.062,0.769,0.092,1.069,0.092l0,0c0.132,0,0.235-0.007,0.327-0.013c-0.074-1.73-2.513-6.388-5.367-10.126
				c-15.693-25.12-33.91-51.815-40.089-57.509c-1.815,2.439-5.052,6.726-10.143,12.264c-3.655,3.966-9.485,6.565-13.739,8.462
				C67.241,164.609,66.371,164.997,65.592,165.366z"/>
		</g>
	</g>
</g>
</svg>
