<?xml version="1.0" encoding="utf-8"?>
<!-- Generator: Adobe Illustrator 16.0.0, SVG Export Plug-In . SVG Version: 6.00 Build 0)  -->
<!DOCTYPE svg PUBLIC "-//W3C//DTD SVG 1.1//EN" "http://www.w3.org/Graphics/SVG/1.1/DTD/svg11.dtd">
<svg version="1.1" id="Layer_1" xmlns="http://www.w3.org/2000/svg" xmlns:xlink="http://www.w3.org/1999/xlink" x="0px" y="0px"
	 width="500px" height="500px" viewBox="0 0 500 500" enable-background="new 0 0 500 500" xml:space="preserve">
<g id="Layer_1_copy_40">
	<g>
		<g>
			<path fill="#FFF8EF" d="M146.919,47.5c-32.615,10.181-39.29,23.258-44.972,51.692c-5.687,28.432-54.281,224.354,105.97,342.731
				c20.006,15.104,40.759,16.509,58.812,12.441c11.115-1.289,22.613-5.442,33.877-13.943c1.707-1.262,3.361-2.547,5.021-3.823
				c8.103-5.589,12.914-10.181,12.914-10.181l0.062-0.395c138.441-119.22,93.438-301.027,87.975-328.336
				c-5.688-28.432-12.406-41.354-44.977-51.692C361.602,45.995,252.891,14.415,146.919,47.5z"/>
			<path fill="#3C2517" d="M249.685,458.766h-0.003c-15.599-0.004-30.143-5.013-43.235-14.896
				C140.775,395.361,101.994,328.421,91.2,244.932c-8.525-65.943,3.56-123.374,7.527-142.248c0.326-1.557,0.607-2.885,0.823-3.973
				c5.652-28.262,12.096-42.762,46.64-53.544c32.342-10.097,68.158-15.213,106.458-15.213c61.763,0,109.161,13.558,109.635,13.696
				c34.631,10.991,41.062,25.44,46.687,53.556c0.219,1.084,0.498,2.408,0.823,3.961c4.123,19.607,15.072,71.701,8.458,134.149
				c-8.33,78.661-41.121,143.272-97.461,192.044c-0.125,0.308-0.317,0.587-0.562,0.822c-0.201,0.193-5.047,4.789-13.22,10.421
				l-0.771,0.604c-1.378,1.064-2.765,2.129-4.187,3.178c-10.691,8.075-22.447,12.918-34.914,14.39
				C261.229,458.096,255.354,458.766,249.685,458.766z M252.648,34.833c-37.809,0-73.136,5.045-105.004,14.996
				c-32.195,10.05-37.918,22.902-43.305,49.843c-0.22,1.096-0.505,2.44-0.836,4.017c-3.93,18.674-15.878,75.492-7.46,140.621
				c10.613,82.117,48.743,147.946,113.326,195.649c12.242,9.242,25.8,13.925,40.312,13.925h0.003c5.349,0,10.901-0.639,16.505-1.899
				c0.084-0.021,0.17-0.035,0.252-0.044c11.645-1.352,22.644-5.884,32.692-13.467c1.415-1.045,2.768-2.089,4.122-3.134l0.882-0.678
				c6.417-4.432,10.753-8.221,12.195-9.529c0.142-0.367,0.374-0.693,0.678-0.958c55.731-47.991,88.158-111.709,96.386-189.372
				c6.537-61.684-4.3-113.225-8.381-132.631c-0.329-1.573-0.613-2.913-0.83-4.008c-5.363-26.796-11.078-39.609-43.325-49.844
				C360.455,48.202,313.681,34.833,252.648,34.833z"/>
		</g>
		<g>
			<path fill="#2D2011" d="M117.554,120.644c0,0,18.61-18.866,46.27-9.821c27.655,9.049,56.604,25.846,56.604,25.846
				s10.337,4.655,7.496-6.719c-2.843-11.37-40.838-36.444-68.753-34.119C131.253,98.16,121.433,112.116,117.554,120.644z"/>
			<path fill="#3C2517" d="M224.561,139.443c-2.365,0-4.635-0.989-4.884-1.103c-0.457-0.256-29.274-16.896-56.424-25.779
				c-4.797-1.569-9.636-2.365-14.391-2.365c-18.22,0-29.89,11.618-30.004,11.732c-0.618,0.634-1.603,0.729-2.34,0.225
				c-0.729-0.505-0.995-1.458-0.627-2.267c6.885-15.154,21.798-24.1,43.128-25.877c1.277-0.11,2.569-0.157,3.878-0.157
				c27.22,0,63.705,23.256,66.803,35.651c0.909,3.642,0.692,6.255-0.663,7.989C228.344,138.383,227.005,139.443,224.561,139.443z
				 M221.336,135.081c0.028,0,1.695,0.702,3.225,0.702c1.171,0,1.489-0.406,1.592-0.541c0.275-0.35,0.823-1.529-0.003-4.847
				c-2.63-10.519-39.559-35.033-66.826-32.739c-16.057,1.34-27.872,6.656-35.259,15.839c5.652-3.377,14.153-6.96,24.798-6.96
				c5.14,0,10.366,0.859,15.528,2.545C191.734,118.027,220.677,134.702,221.336,135.081L221.336,135.081z"/>
		</g>
		<g>
			<path fill="#FFFFFF" d="M113.676,171.308c0,0,5.947,10.594,12.411,7.496c5.345-2.566,14.042-15.208,22.452-21.404
				c1.758-1.296,7.181-3.886,8.353-4.268c17.572-5.774,61.146,4.78,64.052,21.018c3.104,17.318-31.013,21.196-31.013,21.196
				s-27.917,5.943-50.148-7.756c-22.229-13.696-25.069,5.17-26.106,5.431"/>
			<path fill="#3C2517" d="M175.163,198.498c-10.205,0-24.033-1.767-36.338-9.353c-6.657-4.099-12.036-5.533-16.002-4.264
				c-4.158,1.336-5.871,5.407-6.786,7.595c-0.504,1.19-0.867,2.053-1.911,2.317c-0.982,0.241-1.976-0.346-2.224-1.328
				c-0.161-0.639,0.035-1.285,0.465-1.727c0.083-0.169,0.178-0.402,0.292-0.686c0.982-2.333,3.283-7.807,9.045-9.656
				c0.296-0.095,0.601-0.178,0.899-0.252c-5.893-0.827-10.296-8.54-10.523-8.946c-0.489-0.879-0.178-1.99,0.702-2.487
				c0.882-0.5,1.998-0.182,2.494,0.698c0.052,0.087,5.266,9.033,10.019,6.739c2.412-1.155,5.994-5.072,9.786-9.215
				c3.807-4.162,8.118-8.879,12.37-12.008c1.952-1.443,7.607-4.119,8.869-4.537c13.174-4.328,39.907,0.099,55.002,9.107
				c6.716,4.009,10.558,8.494,11.425,13.33c0.678,3.795-0.154,7.298-2.476,10.417c-7.637,10.255-29.222,12.816-30.137,12.919
				C189.682,197.264,183.687,198.498,175.163,198.498z M126.083,180.786c4.205,0.071,9.115,1.825,14.665,5.242
				c21.353,13.163,48.527,7.583,48.8,7.528c0.383-0.056,21.101-2.515,27.789-11.504c1.715-2.306,2.305-4.784,1.804-7.579
				c-0.661-3.693-4.013-7.437-9.695-10.83c-14.097-8.415-39.85-12.758-51.982-8.774c-1.029,0.339-6.238,2.826-7.84,4
				c-3.961,2.924-8.15,7.497-11.843,11.532c-4.213,4.606-7.851,8.588-10.901,10.049C126.61,180.581,126.347,180.691,126.083,180.786
				z"/>
		</g>
		<g>
			<path fill="#2D2011" d="M144.437,176.218c0,0,28.692-32.964,69.53-2.136C185.015,197.926,144.437,176.218,144.437,176.218z"/>
			<path fill="#3C2517" d="M181.121,187.096c-20.006,0-36.842-8.883-37.548-9.266c-0.492-0.264-0.835-0.733-0.938-1.285
				c-0.099-0.548,0.055-1.108,0.421-1.529c0.568-0.654,14.123-15.934,36.109-15.934c11.922,0,24.002,4.556,35.899,13.537
				c0.45,0.339,0.718,0.863,0.73,1.423c0.012,0.56-0.233,1.096-0.668,1.451C205.785,183.194,194.343,187.096,181.121,187.096z
				 M147.543,175.686c5.171,2.357,18.614,7.748,33.578,7.748c11.477,0,21.495-3.129,29.811-9.304
				c-10.616-7.56-21.289-11.387-31.766-11.387C163.11,162.743,151.697,171.8,147.543,175.686z"/>
		</g>
		<g>
			<path fill="#3C2517" d="M202.332,392.835c-0.479,0-0.966-0.188-1.324-0.565c-36.991-39.002-59.574-74.608-72.008-97.611
				c-13.507-24.983-18.178-40.508-18.371-41.157c-0.22-0.744,0.056-1.55,0.687-2.003c0.631-0.458,1.481-0.464,2.12-0.02
				c36.944,25.795,80.372-6.85,80.806-7.185c0.804-0.615,1.952-0.47,2.565,0.339c0.615,0.8,0.465,1.951-0.339,2.566
				c-0.438,0.335-42.579,32.068-80.644,10.137c5.959,16.135,28.92,70.29,87.84,132.41c0.693,0.732,0.661,1.893-0.07,2.589
				C203.238,392.668,202.785,392.835,202.332,392.835z"/>
		</g>
		<g>
			<circle fill="#2D2011" cx="103.341" cy="182.162" r="5.169"/>
			<path fill="#3C2517" d="M103.338,189.161c-3.858,0-6.998-3.141-6.998-7c0-3.858,3.14-7.004,6.998-7.004
				c3.863,0,7.004,3.146,7.004,7.004C110.342,186.02,107.201,189.161,103.338,189.161z M103.338,178.819
				c-1.84,0-3.337,1.502-3.337,3.342c0,1.84,1.497,3.338,3.337,3.338c1.841,0,3.343-1.498,3.343-3.338
				C106.681,180.321,105.179,178.819,103.338,178.819z"/>
		</g>
		<g>
			<path fill="#2D2011" d="M234.127,348.1h38.512c0,0-9.045,9.821-9.306,15.248c-0.257,5.43,9.306,41.875-1.806,69.014
				c-8.793,14.991-17.582-1.291-17.582-1.291s-8.528-18.096-0.772-65.395C242.658,357.148,234.127,348.1,234.127,348.1z"/>
			<path fill="#3C2517" d="M253.488,440.535c-6.439,0-10.965-8.245-11.153-8.595c-0.402-0.849-8.702-19.187-1.006-66.35
				c-0.586-7.706-8.457-16.151-8.532-16.237c-0.503-0.533-0.642-1.311-0.35-1.982c0.29-0.67,0.948-1.104,1.68-1.104h38.512
				c0.729,0,1.387,0.431,1.676,1.096c0.295,0.666,0.166,1.441-0.328,1.975c-3.322,3.613-8.658,10.635-8.824,14.102
				c-0.047,0.957,0.363,3.666,0.841,6.799c2.005,13.283,6.188,40.916-2.778,62.817c-0.035,0.079-0.07,0.159-0.115,0.233
				C260.286,438.095,257.052,440.535,253.488,440.535z M238.035,349.928c2.703,3.54,6.602,9.624,6.964,15.639
				c0.008,0.135,0,0.272-0.02,0.406c-7.575,46.201,0.539,64.143,0.626,64.314c0.962,1.771,4.352,6.587,7.883,6.587
				c2.148,0,4.299-1.79,6.392-5.328c8.521-20.948,4.455-47.83,2.499-60.761c-0.562-3.734-0.938-6.2-0.875-7.521
				c0.197-4.078,4.297-9.809,7.154-13.336H238.035L238.035,349.928z"/>
		</g>
		<g>
			<path fill="#CB4B58" d="M199.482,318.458c0,0,9.551,16.838,53.899,18.327c44.586,1.492,57.513-18.327,57.513-18.327H199.482z"/>
			<path fill="#3C2517" d="M258.119,338.697h-0.003c-1.558,0-3.153-0.028-4.793-0.084c-44.867-1.506-55.022-18.527-55.433-19.252
				c-0.319-0.567-0.314-1.262,0.012-1.825c0.328-0.562,0.93-0.911,1.58-0.911h111.412c0.672,0,1.289,0.367,1.609,0.959
				c0.323,0.591,0.29,1.309-0.08,1.872C311.915,320.243,299.402,338.697,258.119,338.697z M203.479,320.287
				c4.917,4.632,18.44,13.607,49.96,14.665c32.468,1.1,47.804-9.431,53.354-14.665H203.479z"/>
		</g>
		<g>
			<path fill="#3C2517" d="M221.541,284.04c-2.25,0-4.661-0.565-7.03-2.133c-6.282-4.72-9.263-8.513-9.75-12.358
				c-0.632-4.91,2.727-9.14,7.37-14.992c4.818-6.073,11.421-14.385,16.41-27.304c12.805-33.137,3.93-62.346,3.838-62.637
				c-0.303-0.962,0.237-1.99,1.198-2.294c0.962-0.311,1.995,0.232,2.298,1.202c0.386,1.238,9.341,30.725-3.917,65.048
				c-5.195,13.436-11.993,22.003-16.958,28.258c-4.088,5.15-7.039,8.872-6.606,12.253c0.347,2.751,2.964,5.876,8.227,9.833
				c6.202,4.092,13.435-1.706,13.506-1.762c0.779-0.639,1.935-0.524,2.573,0.26c0.638,0.785,0.524,1.936-0.261,2.574
				C232.167,280.213,227.387,284.04,221.541,284.04z"/>
		</g>
		<g>
			<path fill="#2D2011" d="M221.195,267.958c2.562,2.092,3.688,4.953,2.514,6.388c-1.175,1.442-4.205,0.911-6.764-1.183
				c-2.564-2.093-3.688-4.953-2.514-6.392C215.606,265.335,218.633,265.863,221.195,267.958z"/>
			<path fill="#3C2517" d="M221.69,276.986c-1.879,0-4.031-0.875-5.903-2.405c-3.452-2.821-4.643-6.677-2.774-8.97
				c1.805-2.207,6.039-1.766,9.34,0.926c3.453,2.818,4.647,6.673,2.775,8.967C224.349,276.46,223.126,276.986,221.69,276.986z
				 M216.445,267.795c-0.358,0-0.557,0.078-0.598,0.135c-0.241,0.291,0.177,2.115,2.257,3.812c2.062,1.688,4.04,1.621,4.186,1.443
				c0.241-0.291-0.177-2.117-2.254-3.812C218.609,268.209,217.245,267.795,216.445,267.795z"/>
		</g>
		<g>
			<path fill="#2D2011" d="M392.26,120.644c0,0-18.609-18.866-46.265-9.821c-27.66,9.049-56.606,25.846-56.606,25.846
				s-10.337,4.655-7.496-6.719c2.846-11.37,40.838-36.444,68.754-34.119C378.561,98.16,388.386,112.116,392.26,120.644z"/>
			<path fill="#3C2517" d="M285.255,139.443c-2.444,0-3.784-1.06-4.478-1.951c-1.356-1.734-1.573-4.347-0.662-7.985
				c3.102-12.398,39.58-35.655,66.803-35.655c1.312,0,2.604,0.047,3.882,0.157c21.159,1.762,36.006,10.586,42.961,25.522
				c0.237,0.308,0.379,0.694,0.379,1.112c0,1.037-0.857,1.853-1.903,1.829c-0.469-0.004-0.931-0.189-1.276-0.54
				c-0.118-0.118-11.851-11.736-30.003-11.736c-4.753,0-9.597,0.795-14.395,2.365c-27.157,8.887-55.969,25.522-56.256,25.692
				C289.891,138.455,287.618,139.443,285.255,139.443z M346.918,97.514c-26.827,0-60.732,22.815-63.249,32.88
				c-0.831,3.318-0.282,4.498-0.008,4.847c0.103,0.135,0.427,0.541,1.589,0.541c1.607,0,3.37-0.773,3.391-0.78
				c0.121-0.083,29.264-16.915,56.783-25.921c5.166-1.686,10.393-2.545,15.532-2.545c10.644,0,19.145,3.583,24.797,6.96
				c-7.385-9.183-19.201-14.5-35.257-15.839C349.321,97.557,348.127,97.514,346.918,97.514z"/>
		</g>
		<g>
			<path fill="#FFFFFF" d="M396.138,171.308c0,0-5.946,10.594-12.406,7.496c-5.346-2.566-14.046-15.208-22.451-21.404
				c-1.764-1.296-7.182-3.886-8.356-4.268c-17.573-5.774-61.142,4.78-64.051,21.018c-3.102,17.318,31.018,21.196,31.018,21.196
				s27.914,5.943,50.143-7.756c22.229-13.696,25.07,5.17,26.105,5.431"/>
			<path fill="#3C2517" d="M334.667,198.494c-8.57,0-14.624-1.245-15.161-1.36c-0.74-0.075-22.322-2.636-29.963-12.891
				c-2.322-3.118-3.152-6.621-2.473-10.417c0.861-4.835,4.711-9.32,11.426-13.33c15.095-9.005,41.812-13.435,54.999-9.107
				c1.26,0.417,6.917,3.093,8.868,4.532c4.251,3.133,8.565,7.851,12.371,12.012c3.794,4.143,7.378,8.06,9.79,9.215
				c4.782,2.298,9.966-6.649,10.018-6.735c0.498-0.884,1.607-1.195,2.491-0.706c0.882,0.497,1.192,1.612,0.701,2.491
				c-0.226,0.406-4.631,8.119-10.523,8.946c0.305,0.075,0.604,0.157,0.898,0.252c5.764,1.849,8.063,7.323,9.045,9.656
				c0.118,0.28,0.21,0.516,0.296,0.686c0.426,0.442,0.623,1.088,0.465,1.727c-0.248,0.982-1.245,1.569-2.224,1.328
				c-1.048-0.264-1.409-1.127-1.91-2.321c-0.921-2.184-2.633-6.255-6.791-7.591c-3.956-1.265-9.34,0.166-16.001,4.264
				C358.701,196.72,344.896,198.494,334.667,198.494z M340.777,153.376c-12.979,0-29.919,4.008-40.409,10.267
				c-5.679,3.393-9.033,7.137-9.694,10.83c-0.502,2.795,0.09,5.273,1.805,7.579c6.691,8.99,27.411,11.449,27.619,11.473
				c0.441,0.086,27.646,5.647,48.974-7.496c5.549-3.417,10.46-5.17,14.665-5.242c-0.27-0.095-0.532-0.205-0.796-0.335
				c-3.056-1.461-6.692-5.443-10.905-10.046c-3.693-4.035-7.879-8.611-11.843-11.536c-1.598-1.174-6.812-3.662-7.841-4
				C349.246,153.848,345.247,153.376,340.777,153.376z"/>
		</g>
		<g>
			<path fill="#2D2011" d="M365.381,176.218c0,0-28.69-32.964-69.529-2.136C324.8,197.926,365.381,176.218,365.381,176.218z"/>
			<path fill="#3C2517" d="M328.697,187.096L328.697,187.096c-13.227-0.004-24.668-3.901-34.008-11.603
				c-0.436-0.355-0.682-0.891-0.67-1.451s0.281-1.083,0.729-1.423c11.898-8.981,23.98-13.537,35.903-13.537
				c21.983,0,35.546,15.28,36.108,15.934c0.366,0.421,0.521,0.981,0.417,1.529c-0.099,0.552-0.443,1.021-0.933,1.285
				C365.534,178.212,348.698,187.096,328.697,187.096z M298.878,174.13c8.319,6.175,18.338,9.301,29.819,9.304
				c14.982,0,28.406-5.387,33.569-7.744c-4.166-3.882-15.602-12.947-31.615-12.947C320.177,162.743,309.5,166.57,298.878,174.13z"/>
		</g>
		<g>
			<path fill="#3C2517" d="M307.482,392.835c-0.454,0-0.907-0.167-1.263-0.501c-0.732-0.697-0.761-1.855-0.066-2.589
				c58.964-62.168,81.893-116.287,87.841-132.41c-38.063,21.933-80.21-9.798-80.651-10.137c-0.801-0.615-0.951-1.766-0.335-2.566
				c0.614-0.8,1.766-0.954,2.565-0.339c0.438,0.331,43.873,32.979,80.809,7.186c0.64-0.446,1.486-0.439,2.116,0.019
				c0.632,0.453,0.907,1.259,0.688,2.003c-0.187,0.634-19.557,64.096-90.376,138.77
				C308.451,392.646,307.968,392.835,307.482,392.835z"/>
		</g>
		<g>
			<path fill="#2D2011" d="M360.995,263.207l-18.594,36.818c0,0-28.668,5.432-43.265-1.401c-2.55-1.194-8.043-7.179-9.171-8.446
				c-4.926-5.533-11.437-11.604-11.437-11.604s-9.025,5.242-22.225,3.795h-2.795c-13.202,1.447-22.228-3.795-22.228-3.795
				s-6.512,6.068-11.434,11.604c-1.128,1.27-6.625,7.252-9.175,8.446c-14.595,6.833-43.267,1.401-43.267,1.401l-18.587-36.818
				c-9.563,1.197-16.576-1.348-16.576-1.348s14,23.689,19.686,39.457c5.688,15.767,24.815,15.767,24.815,15.767l54.277,1.292
				l19.642-26.105l4.241-0.246l4.24,0.246l19.644,26.105l54.282-1.292c0,0,19.124,0,24.809-15.767
				c5.691-15.768,19.687-39.457,19.687-39.457S370.561,264.404,360.995,263.207z"/>
			<path fill="#3C2517" d="M278.791,320.204c-0.577,0-1.116-0.269-1.463-0.729l-19.135-25.428l-3.393-0.197l-3.178,0.197
				l-19.139,25.428c-0.354,0.473-0.875,0.754-1.504,0.729l-54.282-1.288l0,0c-0.841,0-20.443-0.218-26.492-16.979
				c-5.562-15.426-19.395-38.91-19.533-39.146c-0.397-0.666-0.326-1.505,0.162-2.095c0.492-0.602,1.306-0.826,2.034-0.557
				c0.042,0.012,4.413,1.557,10.798,1.557c1.648,0,3.304-0.104,4.931-0.309c0.754-0.099,1.51,0.301,1.855,0.993l18.177,35.995
				c2.786,0.473,11.797,1.863,21.307,1.863c8.607,0,15.32-1.104,19.962-3.279c1.726-0.804,6.058-5.162,8.583-8.004
				c4.924-5.533,11.285-11.477,11.552-11.725c0.588-0.545,1.47-0.647,2.165-0.248c0.065,0.039,6.728,3.807,16.705,3.807
				c1.462,0,2.946-0.082,4.411-0.238l2.99-0.014c1.66,0.17,3.146,0.252,4.608,0.252c10.038,0,16.631-3.764,16.698-3.804
				c0.693-0.409,1.58-0.308,2.166,0.245c0.269,0.248,6.631,6.19,11.557,11.725c2.354,2.645,6.767,7.156,8.579,8.004
				c4.644,2.178,11.359,3.279,19.968,3.279c9.519,0,18.516-1.389,21.301-1.863l18.179-35.995c0.347-0.688,1.07-1.084,1.858-0.993
				c1.623,0.205,3.283,0.309,4.931,0.309c6.377,0,10.752-1.545,10.795-1.557c0.729-0.266,1.541-0.045,2.029,0.557
				c0.493,0.59,0.561,1.429,0.169,2.095c-0.138,0.233-13.976,23.724-19.54,39.146c-6.05,16.783-25.699,16.979-26.529,16.979
				l-54.238,1.288C278.822,320.204,278.807,320.204,278.791,320.204z M135.986,264.677c4.181,7.335,13.282,23.855,17.669,36.019
				c5.174,14.343,22.36,14.556,23.092,14.559l53.379,1.27l19.083-25.354c0.318-0.429,0.814-0.691,1.352-0.729l4.235-0.25l4.459,0.25
				c0.535,0.035,1.031,0.3,1.354,0.729l19.078,25.354l53.342-1.27c0.768-0.003,17.959-0.216,23.134-14.559
				c4.387-12.162,13.487-28.684,17.66-36.019c-2.005,0.362-4.631,0.683-7.674,0.683c-1.367,0-2.735-0.067-4.092-0.193
				l-18.021,35.684c-0.256,0.508-0.738,0.867-1.292,0.975c-0.449,0.087-11.111,2.08-22.862,2.08c-9.147,0-16.388-1.219-21.52-3.621
				c-3.083-1.446-9.089-8.126-9.763-8.887c-3.725-4.188-8.422-8.734-10.39-10.607c-2.535,1.199-8.785,3.666-17.297,3.666
				c-1.597,0-3.218-0.089-4.81-0.268l-2.594,0.012c-1.395,0.167-3.015,0.256-4.607,0.256c-8.517,0-14.763-2.463-17.301-3.666
				c-1.967,1.873-6.665,6.425-10.385,10.607c-0.675,0.754-6.673,7.437-9.767,8.887c-5.127,2.402-12.372,3.621-21.515,3.621
				c-11.76,0-22.421-1.993-22.867-2.08c-0.56-0.106-1.037-0.467-1.292-0.975l-18.015-35.684c-1.36,0.126-2.731,0.193-4.096,0.193
				C140.622,265.359,138,265.043,135.986,264.677z"/>
		</g>
		<g>
			<path fill="#2D2011" d="M401.306,182.162c0,2.857,2.312,5.17,5.17,5.17c2.854,0,5.173-2.313,5.173-5.17
				c0-2.854-2.319-5.171-5.173-5.171C403.618,176.991,401.306,179.308,401.306,182.162z"/>
			<path fill="#3C2517" d="M406.476,189.161c-3.857,0-6.999-3.141-6.999-7c0-3.858,3.142-7.004,6.999-7.004
				c3.859,0,7.001,3.146,7.001,7.004C413.477,186.02,410.335,189.161,406.476,189.161z M406.476,178.819
				c-1.844,0-3.339,1.502-3.339,3.342c0,1.84,1.495,3.338,3.339,3.338c1.841,0,3.34-1.498,3.34-3.338
				C409.815,180.321,408.315,178.819,406.476,178.819z"/>
		</g>
		<g>
			<path fill="#3C2517" d="M288.252,284.016c-5.855,0-10.604-3.803-10.88-4.027c-0.781-0.639-0.896-1.784-0.261-2.568
				c0.635-0.779,1.793-0.898,2.572-0.27c0.301,0.242,7.353,5.824,13.604,1.703c5.168-3.895,7.784-7.022,8.135-9.771
				c0.436-3.381-2.518-7.103-6.608-12.253c-4.967-6.255-11.765-14.823-16.955-28.258c-13.262-34.323-4.303-63.811-3.918-65.048
				c0.304-0.962,1.32-1.501,2.293-1.202c0.967,0.3,1.504,1.328,1.203,2.294c-0.09,0.291-8.942,29.555,3.834,62.637
				c4.99,12.915,11.594,21.231,16.412,27.304c4.646,5.854,8.001,10.082,7.369,14.992c-0.491,3.846-3.468,7.639-9.654,12.296
				C292.98,283.438,290.531,284.016,288.252,284.016z"/>
		</g>
		<g>
			<path fill="#2D2011" d="M288.62,267.958c-2.56,2.092-3.687,4.953-2.517,6.388c1.176,1.442,4.207,0.911,6.769-1.183
				c2.562-2.093,3.687-4.953,2.515-6.392C294.212,265.335,291.182,265.863,288.62,267.958z"/>
			<path fill="#3C2517" d="M288.123,276.986h-0.004c-1.434,0-2.652-0.525-3.434-1.482c-1.867-2.29-0.675-6.145,2.774-8.967
				c3.3-2.688,7.536-3.137,9.344-0.926c1.868,2.293,0.675,6.147-2.772,8.97C292.154,276.111,290.003,276.986,288.123,276.986z
				 M293.369,267.795c-0.801,0-2.165,0.414-3.592,1.579c-2.075,1.694-2.494,3.521-2.254,3.812c0.149,0.186,2.129,0.236,4.188-1.442
				c2.077-1.697,2.494-3.521,2.255-3.813C293.925,267.874,293.729,267.795,293.369,267.795z"/>
		</g>
		<g opacity="0.39">
			<path fill="#E1A69D" d="M397.353,233.755c-1.328,9.33-19.776,14.417-41.196,11.362c-21.43-3.054-37.717-13.092-36.391-22.417
				c1.329-9.328,19.778-14.412,41.201-11.358C382.392,214.392,398.68,224.43,397.353,233.755z"/>
		</g>
		<g opacity="0.39">
			<path fill="#E1A69D" d="M113.756,233.755c1.327,9.33,19.771,14.417,41.2,11.362c21.424-3.054,37.713-13.092,36.384-22.417
				c-1.332-9.328-19.772-14.412-41.196-11.358C128.716,214.392,112.424,224.43,113.756,233.755z"/>
		</g>
	</g>
</g>
</svg>
