<?xml version="1.0" encoding="utf-8"?>
<!-- Generator: Adobe Illustrator 16.0.0, SVG Export Plug-In . SVG Version: 6.00 Build 0)  -->
<!DOCTYPE svg PUBLIC "-//W3C//DTD SVG 1.1//EN" "http://www.w3.org/Graphics/SVG/1.1/DTD/svg11.dtd">
<svg version="1.1" id="Layer_1" xmlns="http://www.w3.org/2000/svg" xmlns:xlink="http://www.w3.org/1999/xlink" x="0px" y="0px"
	 width="500px" height="500px" viewBox="0 0 500 500" enable-background="new 0 0 500 500" xml:space="preserve">
<g id="Layer_1_copy_51">
	<g>
		<path fill="#27140E" d="M131.35,464.966H72.835c-5.359,0-9.707-4.344-9.707-9.702c0-5.359,4.348-9.711,9.707-9.711h58.515
			c5.36,0,9.703,4.352,9.703,9.711S136.71,464.966,131.35,464.966z"/>
	</g>
	<g>
		<line fill="none" x1="309.245" y1="455.264" x2="188.96" y2="455.264"/>
		<path fill="#27140E" d="M309.245,460.81H188.96c-3.062,0-5.547-2.482-5.547-5.546c0-3.062,2.485-5.547,5.547-5.547h120.285
			c3.062,0,5.547,2.483,5.547,5.547S312.308,460.81,309.245,460.81z"/>
	</g>
	<g>
		<path fill="#27140E" d="M427.163,464.966h-58.508c-5.358,0-9.707-4.344-9.707-9.702c0-5.359,4.349-9.711,9.707-9.711h58.508
			c5.359,0,9.708,4.352,9.708,9.711S432.522,464.966,427.163,464.966z"/>
	</g>
	<g>
		<path fill="#27140E" d="M397.906,464.966c-5.359,0-9.707-4.344-9.707-9.702v-305.12L309.82,61.95l-71.282-13.205l-55.696,12.961
			l-71.037,88.17v305.388c0,5.358-4.349,9.702-9.712,9.702c-5.36,0-9.707-4.344-9.707-9.702V146.452c0-2.215,0.762-4.365,2.147-6.09
			l75.294-93.441c1.359-1.689,3.245-2.875,5.359-3.365l60.93-14.18c1.305-0.307,2.656-0.334,3.968-0.09l76.548,14.18
			c2.124,0.393,4.056,1.482,5.488,3.096l83.043,93.441c1.578,1.778,2.453,4.072,2.453,6.449v308.812
			C407.616,460.623,403.27,464.966,397.906,464.966z"/>
	</g>
	<g>
		<path fill="#27140E" d="M210.184,161.407c-3.067,0-5.549-2.484-5.549-5.547V56.702c0-3.064,2.481-5.549,5.549-5.549
			c3.062,0,5.546,2.484,5.546,5.549v99.158C215.729,158.923,213.246,161.407,210.184,161.407z"/>
	</g>
	<g>
		<path fill="#2AB88E" d="M208.336,149.61c-18.325,0-33.188,14.868-33.188,33.151c0,18.316,14.863,33.182,33.188,33.182
			c18.312,0,33.18-14.866,33.18-33.182C241.516,164.478,226.647,149.61,208.336,149.61z M208.336,202.074
			c-10.665,0-19.313-8.648-19.313-19.307c0-10.634,8.648-19.287,19.313-19.287c10.655,0,19.304,8.653,19.304,19.287
			C227.64,193.425,218.991,202.074,208.336,202.074z"/>
		<path fill="#27140E" d="M208.336,218.716c-19.83,0-35.962-16.128-35.962-35.955c0-19.809,16.132-35.924,35.962-35.924
			c19.823,0,35.953,16.115,35.953,35.924C244.289,202.587,228.159,218.716,208.336,218.716z M208.336,152.384
			c-16.773,0-30.415,13.627-30.415,30.377c0,16.765,13.642,30.406,30.415,30.406c16.766,0,30.405-13.641,30.405-30.406
			C238.741,166.011,225.102,152.384,208.336,152.384z M208.336,204.847c-12.181,0-22.087-9.904-22.087-22.081
			c0-12.164,9.906-22.06,22.087-22.06c12.171,0,22.077,9.896,22.077,22.06C230.413,194.943,220.507,204.847,208.336,204.847z
			 M208.336,166.253c-9.122,0-16.541,7.408-16.541,16.513c0,9.116,7.419,16.534,16.541,16.534c9.115,0,16.531-7.418,16.531-16.534
			C224.867,173.662,217.451,166.253,208.336,166.253z"/>
	</g>
	<g>
		<path fill="#27140E" d="M288.027,161.407c-3.063,0-5.549-2.484-5.549-5.547V56.702c0-3.064,2.484-5.549,5.549-5.549
			c3.062,0,5.547,2.484,5.547,5.549v99.158C293.574,158.923,291.09,161.407,288.027,161.407z"/>
	</g>
	<g>
		<path fill="#ED2224" d="M322.484,48.726c0,8.043-3.414,14.568-7.621,14.568H177.386c-4.23,0-7.66-6.525-7.66-14.568l0,0
			c0-8.048,3.43-14.572,7.66-14.572h137.478C319.07,34.153,322.484,40.677,322.484,48.726L322.484,48.726z"/>
		<path fill="#27140E" d="M314.863,68.841H177.386c-7.527,0-13.208-8.647-13.208-20.116c0-11.471,5.681-20.121,13.208-20.121
			h137.478c7.507,0,13.167,8.65,13.167,20.121C328.03,60.194,322.37,68.841,314.863,68.841z M177.78,57.748h136.669
			c0.785-0.733,2.486-3.756,2.486-9.022c0-5.267-1.701-8.293-2.486-9.025H177.78c-0.781,0.719-2.508,3.734-2.508,9.025
			C175.272,54.011,176.999,57.029,177.78,57.748z"/>
	</g>
	<g>
		<path fill="#2AB88E" d="M289.693,148.687c-18.32,0-33.188,14.865-33.188,33.148c0,18.318,14.866,33.182,33.188,33.182
			c18.316,0,33.186-14.864,33.186-33.182C322.879,163.552,308.011,148.687,289.693,148.687z M289.693,201.148
			c-10.66,0-19.308-8.648-19.308-19.307c0-10.634,8.646-19.287,19.308-19.287c10.656,0,19.311,8.653,19.311,19.287
			C309.004,192.5,300.351,201.148,289.693,201.148z"/>
		<path fill="#27140E" d="M289.693,217.79c-19.827,0-35.959-16.128-35.959-35.955c0-19.807,16.132-35.922,35.959-35.922
			c19.824,0,35.958,16.116,35.958,35.922C325.651,201.662,309.519,217.79,289.693,217.79z M289.693,151.46
			c-16.77,0-30.412,13.625-30.412,30.375c0,16.768,13.644,30.409,30.412,30.409c16.766,0,30.406-13.641,30.406-30.409
			C320.101,165.085,306.459,151.46,289.693,151.46z M289.693,203.921c-12.18,0-22.082-9.905-22.082-22.081
			c0-12.164,9.902-22.061,22.082-22.061c12.177,0,22.084,9.896,22.084,22.061C311.777,194.017,301.87,203.921,289.693,203.921z
			 M289.693,165.329c-9.115,0-16.534,7.408-16.534,16.512c0,9.118,7.419,16.534,16.534,16.534c9.119,0,16.534-7.416,16.534-16.534
			C306.229,172.737,298.812,165.329,289.693,165.329z"/>
	</g>
</g>
</svg>
