<?xml version="1.0" encoding="utf-8"?>
<!-- Generator: Adobe Illustrator 16.0.0, SVG Export Plug-In . SVG Version: 6.00 Build 0)  -->
<!DOCTYPE svg PUBLIC "-//W3C//DTD SVG 1.1//EN" "http://www.w3.org/Graphics/SVG/1.1/DTD/svg11.dtd">
<svg version="1.1" id="Layer_1" xmlns="http://www.w3.org/2000/svg" xmlns:xlink="http://www.w3.org/1999/xlink" x="0px" y="0px"
	 width="500px" height="500px" viewBox="0 0 500 500" enable-background="new 0 0 500 500" xml:space="preserve">
<g id="Layer_1_copy_51">
	<g>
		<g>
			<path fill="#8E5B24" d="M269.414,66.976l-12.898-3.747l-12.835,35.05l40.962,34.7l4.737-29.822
				C289.38,103.157,273.441,106.195,269.414,66.976z"/>
			<path fill="#3C2517" d="M284.643,135.937c-0.688,0-1.367-0.241-1.912-0.696l-40.965-34.699c-0.945-0.806-1.292-2.114-0.864-3.281
				l12.83-35.05c0.537-1.457,2.088-2.262,3.61-1.823l12.901,3.747c1.154,0.338,1.992,1.34,2.117,2.54
				c3.353,32.631,14.918,33.577,16.229,33.577c0.152,0,0.258-0.012,0.312-0.016c0.92-0.121,1.899,0.186,2.557,0.857
				c0.65,0.668,0.993,1.602,0.848,2.527l-4.736,29.822c-0.168,1.059-0.894,1.944-1.895,2.314
				C285.339,135.876,284.992,135.937,284.643,135.937z M247.169,97.353l35.377,29.967l3.408-21.471
				c-5.649-1.328-15.89-7.808-19.267-36.579l-8.346-2.427L247.169,97.353z"/>
		</g>
		<g>
			<path fill="#A7732C" d="M190.633,108.642c0,0,3.851-9.1,5.429-33.786c0,0-3.15-12.259,17.152-9.104
				c20.312,3.151,9.913-6.307,23.25-3.329c13.346,2.978,21.222,0.527,21.222,0.527s2.629,41.143,11.729,44.818
				c9.101,3.674-23.11,35.364-23.11,35.364s-48.668-7.374-56.372-34.503C190.633,108.642,190.633,108.642,190.633,108.642z"/>
			<path fill="#3C2517" d="M246.304,146.095c-0.144,0-0.293-0.012-0.441-0.037c-2.065-0.31-50.646-7.984-58.775-36.615
				c-0.257-0.902-0.073-1.872,0.499-2.612c0.222-0.291,0.491-0.531,0.793-0.72c1.038-3.3,3.51-12.774,4.704-31.054
				c-0.245-1.385-0.56-4.999,1.905-8.174c3.19-4.109,9.452-5.494,18.685-4.057c2.637,0.41,4.878,0.616,6.656,0.616
				c3.719,0,4.464-0.781,5.406-1.767c1.065-1.115,2.672-2.801,6.391-2.801c1.368,0,2.994,0.217,4.986,0.66
				c4.173,0.93,8.215,1.404,12.006,1.404c4.908,0,7.674-0.813,7.703-0.821c0.861-0.261,1.812-0.112,2.547,0.407
				c0.74,0.51,1.215,1.336,1.275,2.237c1.213,18.972,5.474,40.483,9.877,42.262c1.791,0.72,2.981,2.146,3.354,3.996
				c1.721,8.645-19.073,29.911-25.493,36.221C247.826,145.793,247.077,146.095,246.304,146.095z M193.401,109.701
				c7.907,21.072,44.183,28.829,51.904,30.253c12.61-12.581,22.94-25.963,22.792-29.528c-8.968-4.065-12.136-31.404-13.125-43.929
				c-1.51,0.201-3.47,0.363-5.854,0.363c-4.227,0-8.698-0.52-13.298-1.542c-1.537-0.346-2.78-0.523-3.694-0.523
				c-1.184,0-1.324,0.153-2.105,0.966c-1.814,1.899-3.916,3.606-9.691,3.606c-2.112,0-4.587-0.226-7.566-0.688
				c-6.66-1.034-11.341-0.37-13.066,1.799c-1.232,1.542-0.766,3.655-0.756,3.675c0.06,0.277,0.095,0.607,0.079,0.894
				C197.491,98.923,193.845,108.602,193.401,109.701z"/>
		</g>
		<g>
			<path fill="#F47826" d="M176.104,108.465c0,0-128.854-6.306-132.701,165.965c-3.854,172.271,116.245,157.565,116.245,157.565
				s173.668,3.43,192.575,0.312c18.519-3.05,104.553-17.217,98.543-186.569c-0.119-3.554-0.999-13.35-1.939-17.411
				c-3.252-13.961-11.76-46.633-23.423-62.086c0,0-29.646-65.807-110.297-67.959c-2.958-0.076-15.688,1.963-18.559,2.801
				C261.626,111.311,264.753,109.443,176.104,108.465z"/>
			<path fill="#3C2517" d="M299.196,436.576c-55.472,0-134.908-1.529-139.412-1.618c-0.735,0.08-3.236,0.313-7.043,0.313
				c-13.225,0-46.896-2.97-73.799-30.48c-26.868-27.48-39.823-71.359-38.503-130.43c3.67-164.146,120.62-168.881,133.945-168.881
				c1.212,0,1.863,0.028,1.863,0.028c13.31,0.145,24.628,0.314,34.295,0.458c12.637,0.185,22.617,0.334,30.635,0.334
				c26.026,0,32.273-1.538,54.537-8.054c2.896-0.853,15.551-2.926,19.217-2.926c78.887,2.105,110.57,64.312,113.021,69.384
				c11.947,16.058,20.59,49.341,23.756,62.953c1.007,4.331,1.893,14.243,2.02,17.981c3.934,110.887-31.94,178.218-101.02,189.593
				C347.201,436.139,329.698,436.576,299.196,436.576z M159.647,429.034c0.021,0,0.04,0,0.061,0
				c0.82,0.022,82.726,1.626,139.488,1.626c37.064,0,49.035-0.692,52.549-1.272c65.762-10.825,99.878-76.006,96.067-183.542
				c-0.128-3.534-0.999-13.076-1.872-16.847c-3.101-13.314-11.535-45.909-22.9-60.973c-0.133-0.177-0.246-0.366-0.333-0.567
				c-0.295-0.64-29.92-64.135-107.679-66.216h-0.003c-2.979,0-14.98,1.903-17.646,2.684c-29.219,8.557-32.209,8.77-86.928,7.961
				c-9.659-0.146-20.972-0.31-34.382-0.459c-0.148-0.004-0.7-0.028-1.687-0.028c-8.589,0-38.88,1.606-68.167,22.26
				c-38.231,26.96-58.373,74.346-59.859,140.836c-1.278,57.414,11.104,99.859,36.817,126.148
				c25.332,25.908,57.085,28.702,69.565,28.702c4.085,0,6.523-0.29,6.547-0.29C159.409,429.042,159.53,429.034,159.647,429.034z"/>
		</g>
		<g>
			<path fill="#FCB116" d="M160.347,177.797c0,0-31.162,43.417-32.562,62.674c7.004,2.447,59.875-4.905,59.875-4.905
				L160.347,177.797z"/>
			<path fill="#3C2517" d="M133.306,243.934c-0.008,0-0.003,0-0.003,0c-3.176,0-5.18-0.21-6.496-0.668
				c-1.26-0.444-2.072-1.674-1.977-3.011c1.445-19.861,31.818-62.385,33.111-64.188c0.615-0.848,1.612-1.308,2.672-1.219
				c1.046,0.092,1.959,0.737,2.411,1.683l27.31,57.772c0.403,0.85,0.378,1.843-0.071,2.673c-0.448,0.825-1.265,1.393-2.199,1.525
				C186.472,238.721,148.837,243.934,133.306,243.934z M131.113,237.964c0.583,0.028,1.304,0.045,2.185,0.045c0,0,0.005,0,0.008,0
				c12.215,0,39.655-3.474,49.946-4.838l-23.396-49.49C152.617,194.246,134.128,222.345,131.113,237.964z"/>
		</g>
		<g>
			<path fill="#F68C1F" d="M146.008,240.319c0,0,7.236-29.065,23.568-42.995l-9.229-19.527c0,0-32.912,45.518-32.562,62.674
				C127.784,240.471,132.143,241.651,146.008,240.319z"/>
			<path fill="#3C2517" d="M134.47,243.912c-5.043,0-7.097-0.486-7.459-0.583c-1.271-0.346-2.159-1.486-2.189-2.797
				c-0.365-17.942,31.76-62.579,33.127-64.47c0.616-0.849,1.631-1.3,2.67-1.215c1.046,0.097,1.959,0.737,2.406,1.683l9.233,19.53
				c0.571,1.208,0.256,2.649-0.762,3.514c-15.427,13.16-22.542,41.175-22.614,41.461c-0.302,1.212-1.34,2.109-2.592,2.23
				C141.814,243.695,137.839,243.912,134.47,243.912z M130.929,237.884c0.893,0.06,2.06,0.108,3.541,0.108
				c2.664,0,5.763-0.149,9.224-0.438c1.929-6.757,8.894-28.313,22.265-40.958l-6.12-12.951
				C150.21,197.493,132.913,224.623,130.929,237.884z"/>
		</g>
		<g>
			<path fill="#FCB116" d="M313.033,162.752c0,0,37.721,37.852,42.195,56.639c-6.52,3.545-59.894,4.769-59.894,4.769
				L313.033,162.752z"/>
			<path fill="#3C2517" d="M295.336,227.118c-0.913,0-1.783-0.423-2.343-1.151c-0.575-0.749-0.761-1.723-0.502-2.628l17.696-61.407
				c0.289-1.006,1.09-1.787,2.104-2.048c1.019-0.25,2.098,0.036,2.838,0.777c1.562,1.569,38.367,38.672,42.979,58.046
				c0.31,1.3-0.287,2.648-1.468,3.285c-6.802,3.702-52.206,4.921-61.236,5.127C295.385,227.118,295.359,227.118,295.336,227.118z
				 M314.461,168.48l-15.16,52.617c19.157-0.535,44.132-1.872,52.254-3.61C346.1,202.552,323.306,177.749,314.461,168.48z"/>
		</g>
		<g>
			<path fill="#F68C1F" d="M337.216,222.164c0,0-11.808-27.533-30.16-38.661l5.979-20.75c0,0,39.791,39.646,42.196,56.639
				C355.229,219.391,351.116,221.253,337.216,222.164z"/>
			<path fill="#3C2517" d="M337.216,225.125c-1.18,0-2.254-0.7-2.722-1.795c-0.115-0.266-11.666-26.795-28.973-37.292
				c-1.144-0.696-1.683-2.064-1.312-3.352l5.979-20.755c0.289-1.006,1.086-1.787,2.099-2.044c1.012-0.261,2.09,0.028,2.836,0.769
				c1.652,1.646,40.521,40.552,43.038,58.321c0.186,1.304-0.512,2.567-1.706,3.11c-0.472,0.218-5.012,2.113-19.046,3.031
				C337.341,225.125,337.281,225.125,337.216,225.125z M310.513,182.208c15.226,10.331,25.558,30.494,28.547,36.857
				c6.468-0.502,10.437-1.211,12.648-1.722c-4.084-12.778-25.512-36.777-37.235-48.899L310.513,182.208z"/>
		</g>
		<g>
			<polygon fill="#FCB116" points="239.829,209.382 208.84,275.135 281.496,275.135 			"/>
			<path fill="#3C2517" d="M281.496,278.098H208.84c-1.014,0-1.956-0.52-2.499-1.377c-0.545-0.857-0.612-1.929-0.183-2.85
				l30.994-65.75c0.458-0.978,1.417-1.625,2.492-1.694c1.054-0.076,2.108,0.459,2.688,1.373l41.662,65.753
				c0.58,0.909,0.615,2.062,0.097,3.012C283.568,277.51,282.574,278.098,281.496,278.098z M213.513,272.177h62.602l-35.903-56.658
				L213.513,272.177z"/>
		</g>
		<g>
			<polygon fill="#F68C1F" points="223.368,275.135 242.104,237.67 266.104,250.855 239.829,209.382 208.84,275.135 			"/>
			<path fill="#3C2517" d="M223.368,278.098H208.84c-1.014,0-1.956-0.52-2.499-1.377c-0.545-0.857-0.612-1.929-0.183-2.85
				l30.994-65.75c0.458-0.978,1.417-1.625,2.492-1.694c1.054-0.076,2.108,0.459,2.688,1.373l26.004,41.039
				c0.494,0.526,0.792,1.235,0.792,2.017c0,1.635-1.327,2.959-2.963,2.959c-0.017,0-0.039,0-0.062,0
				c-0.481,0-0.973-0.117-1.424-0.362l-21.302-11.704l-17.359,34.712C225.518,277.465,224.492,278.098,223.368,278.098z
				 M213.513,272.177h8.028l17.914-35.831c0.362-0.72,0.998-1.264,1.767-1.501c0.764-0.241,1.603-0.156,2.31,0.234l13.918,7.644
				l-17.238-27.203L213.513,272.177z"/>
		</g>
		<g>
			<path fill="#FCB116" d="M360.104,257.979c0,0-4.382,83.51-32.562,109.944l-10.505-1.407l-10.15,16.114
				c0,0-58.372-9.979-70.423,10.504c-12.04,20.484-63.785-4.032-66.888-9.812c-3.099-5.771-48.271-48.664-53.346-92.785
				c0,0,20.13,47.449,52.17,50.945c16.282,2.976,19.259-27.834,19.259-27.834s9.452,22.057,28.01,20.832
				c18.558-1.224,24.333-18.207,24.333-18.207s8.585,15.027,27.311,13.293c10.162,0.363,16.808-8.041,16.808-8.041l10.687,19.084
				l10.152-26.782c0,0,19.959-2.976,34.833-28.361C351.692,267.038,360.104,257.979,360.104,257.979z"/>
			<path fill="#3C2517" d="M218.522,404.122c-19.624,0-48.452-13.619-51.554-19.397c-0.444-0.83-2.931-3.688-5.559-6.724
				c-13.145-15.147-43.92-50.631-48.123-87.121c-0.169-1.461,0.766-2.825,2.188-3.204c1.408-0.374,2.899,0.348,3.479,1.707
				c0.193,0.459,19.842,45.893,49.77,49.16c0.771,0.133,1.319,0.186,1.843,0.186c11.377,0,14.122-25.109,14.146-25.358
				c0.124-1.345,1.149-2.431,2.486-2.64c1.332-0.207,2.641,0.511,3.18,1.75c0.081,0.192,8.818,20.095,25.094,19.049
				c16.283-1.075,21.515-15.596,21.731-16.215c0.38-1.096,1.37-1.873,2.523-1.98c1.148-0.104,2.268,0.468,2.846,1.479
				c0.295,0.502,7.929,13.355,24.47,11.808c0.121-0.013,0.241-0.021,0.38-0.009l0.53,0.009c8.192,0,13.797-6.866,13.852-6.935
				c0.617-0.772,1.569-1.176,2.562-1.103c0.978,0.079,1.859,0.644,2.342,1.5l7.583,13.543l7.896-20.847
				c0.383-1.004,1.272-1.721,2.335-1.881c0.173-0.023,18.815-3.209,32.72-26.933c11.969-18.541,20.345-27.625,20.694-28.004
				c0.846-0.916,2.179-1.202,3.324-0.711c1.146,0.485,1.868,1.638,1.803,2.886c-0.182,3.456-4.775,85.006-33.49,111.945
				c-0.653,0.611-1.547,0.885-2.42,0.771l-8.626-1.149l-9.136,14.504c-0.636,1.015-1.831,1.546-3.002,1.337
				c-0.141-0.025-14.175-2.384-29.569-2.384c-20.313,0-33.387,3.969-37.798,11.47C235.317,400.925,228.424,404.122,218.522,404.122z
				 M124.863,312.217c10.311,26.504,30.969,50.312,41.022,61.904c3.844,4.436,5.577,6.447,6.299,7.8
				c2.105,3.052,27.414,16.276,46.338,16.276c7.65,0,12.831-2.215,15.39-6.569c5.618-9.546,20.056-14.392,42.906-14.392
				c12.654,0,24.128,1.496,28.603,2.164l9.113-14.463c0.61-0.975,1.719-1.516,2.893-1.354l9.08,1.207
				c20.791-20.989,27.873-75.833,29.914-97.743c-3.529,4.517-8.438,11.192-14.143,20.022c-12.95,22.106-29.689,27.949-35.121,29.312
				l-9.584,25.279c-0.409,1.073-1.398,1.817-2.548,1.901c-1.18,0.086-2.246-0.502-2.807-1.508l-8.771-15.673
				c-3.114,2.677-8.512,6.153-15.494,6.153l-0.53-0.008c-13.825,1.216-22.588-5.815-26.861-10.602
				c-3.316,5.682-10.698,14.585-24.699,15.506c-13.104,0.848-21.93-8.281-26.703-15.199c-2.157,9.106-7.247,22.412-18.593,22.412
				c-0.877,0-1.786-0.084-2.697-0.25C148.949,342.334,134.204,326.131,124.863,312.217z"/>
		</g>
		<g>
			<path fill="#F68C1F" d="M165.209,340.982c0,0,7.571,13.459,34.532,17.138c26.959,3.671,32.396-14.011,47.448-13.134
				c15.053,0.882,17.152-2.81,35.011,4.812c17.855,7.621,27.129-7.087,30.28-12.517c3.15-5.427,14.714-18.489,17.948-39.091
				l29.675-39.518c0,0-5.654,72.543-20.248,91.68c-8.958,14.021-12.313,17.568-12.313,17.568l-10.505-1.406l-10.15,16.113
				c0,0-33.461-4.564-48.947-0.975c-15.481,3.598-20.269,8.332-21.476,10.777c-1.198,2.438-5.987,14.047-31.861,6.93
				c-25.871-7.105-38.496-15.734-49.692-33.563c-11.195-17.835-33.604-35.516-38.68-75.262
				C116.23,290.538,133.66,331.371,165.209,340.982z"/>
			<path fill="#3C2517" d="M219.271,404.604c-4.507,0-9.703-0.805-15.454-2.383c-26.356-7.244-39.812-16.363-51.414-34.853
				c-2.681-4.259-6.098-8.621-9.716-13.231c-11.349-14.468-25.463-32.466-29.396-63.222c-0.186-1.464,0.737-2.847,2.161-3.231
				c1.434-0.391,2.918,0.334,3.501,1.694c0.167,0.392,17.279,39.683,47.12,48.771c0.729,0.222,1.344,0.717,1.715,1.381
				c0.061,0.101,7.425,12.255,32.35,15.654c2.313,0.312,4.562,0.475,6.68,0.475h0.009c10.545,0,16.798-3.846,22.84-7.565
				c5.422-3.333,10.568-6.495,17.696-6.061c4.387,0.254,7.639,0.112,10.512-0.017c7.396-0.33,12.657-0.414,25.486,5.061
				c10.8,4.609,19.456,0.956,26.561-11.278c0.623-1.073,1.557-2.435,2.688-4.077c4.632-6.707,12.376-17.937,14.89-33.99
				c0.077-0.476,0.27-0.93,0.56-1.315l29.678-39.517c0.795-1.053,2.186-1.459,3.413-0.991c1.231,0.463,2.009,1.687,1.907,2.998
				c-0.235,2.999-5.896,73.642-20.847,93.245c-8.867,13.898-12.376,17.658-12.521,17.812c-0.65,0.685-1.603,1.022-2.539,0.894
				l-8.626-1.149l-9.136,14.504c-0.618,0.981-1.766,1.497-2.899,1.353c-0.174-0.016-17.215-2.317-32.274-2.317
				c-6.628,0-11.88,0.437-15.606,1.304c-16.403,3.809-19.216,8.653-19.487,9.2C235.62,401.014,228.971,404.604,219.271,404.604z
				 M123.463,309.623c5.755,17.747,15.249,29.854,23.881,40.854c3.719,4.737,7.232,9.224,10.074,13.746
				c10.833,17.266,22.939,25.41,47.97,32.293c5.239,1.44,9.911,2.164,13.884,2.164c10.897,0,13.458-5.318,14.424-7.324
				c1.554-3.146,6.516-8.619,23.576-12.58c4.166-0.967,9.865-1.457,16.943-1.457c12.648,0,26.245,1.529,31.175,2.133l9.146-14.512
				c0.61-0.975,1.719-1.516,2.893-1.354l8.892,1.191c1.517-1.907,4.979-6.527,11.044-16.018
				c10.772-14.143,16.628-59.309,18.799-79.902l-22.929,30.525c-2.847,17.004-11.222,29.135-15.744,35.698
				c-1.025,1.489-1.88,2.716-2.443,3.687c-6.217,10.709-14.021,16.133-23.2,16.133c-3.462,0-7.096-0.797-10.804-2.381
				c-11.88-5.07-16.388-4.885-22.903-4.588c-3.037,0.133-6.482,0.286-11.12,0.008c-5.297-0.301-9.216,2.102-14.247,5.195
				c-6.112,3.762-13.72,8.446-25.942,8.446c-0.004,0-0.004,0-0.004,0c-2.387,0-4.901-0.179-7.486-0.532
				c-23.993-3.273-33.533-14.096-36.015-17.561C145.179,337.548,131.773,322.114,123.463,309.623z"/>
		</g>
	</g>
</g>
</svg>
