<?xml version="1.0" encoding="utf-8"?>
<!-- Generator: Adobe Illustrator 16.0.0, SVG Export Plug-In . SVG Version: 6.00 Build 0)  -->
<!DOCTYPE svg PUBLIC "-//W3C//DTD SVG 1.1//EN" "http://www.w3.org/Graphics/SVG/1.1/DTD/svg11.dtd">
<svg version="1.1" id="Layer_1" xmlns="http://www.w3.org/2000/svg" xmlns:xlink="http://www.w3.org/1999/xlink" x="0px" y="0px"
	 width="500px" height="500px" viewBox="0 0 500 500" enable-background="new 0 0 500 500" xml:space="preserve">
<g id="Layer_1_1_">
	<g>
		<path fill="#E4BE63" d="M464.644,346.521c0,58.732-98.398,83.055-219.789,83.055c-121.384,0-219.783-24.321-219.783-83.055
			c0-58.734,89.283-44.563,210.666-44.563C357.129,301.958,464.644,287.788,464.644,346.521z"/>
		<path fill="#3C2517" d="M244.854,432.615c-141.607,0-222.823-31.381-222.823-86.094c0-45.35,50.778-49.104,107.351-49.104
			c14.441,0,30.069,0.33,46.615,0.681c19.066,0.405,38.778,0.821,59.74,0.821c20.562,0,40.642-0.403,60.063-0.796
			c17.916-0.363,34.843-0.706,50.833-0.706c61.251,0,121.05,3.794,121.05,49.104C467.684,401.234,386.462,432.615,244.854,432.615z
			 M129.382,303.495c-65.684,0-101.271,6.856-101.271,43.026c0,50.102,81.022,80.017,216.744,80.017
			c135.723,0,216.751-29.915,216.751-80.017c0-35.826-43.99-43.026-114.973-43.026c-15.929,0-32.825,0.342-50.711,0.705
			c-19.446,0.392-39.565,0.797-60.186,0.797c-21.025,0-40.771-0.417-59.869-0.822C159.351,303.823,143.757,303.495,129.382,303.495z
			"/>
	</g>
	<g>
		<path fill="#E89F23" d="M65.692,325.67c0,0,23.827,45.127,26.364,56.775c2.534,11.646-1.019,25.824,27.854,13.166
			c28.863-12.659,115.965-22.793,127.614-22.793s47.606,6.084,81.537-7.592c33.933-13.674,96.988-19.677,105.464-46.297
			c8.479-26.623-102.426-48.896-102.426-48.896s-165.598,1.014-167.627,0C162.447,269.023,55.534,297.253,65.692,325.67z"/>
		<path fill="#3C2517" d="M102.512,403.618c-10.534,0-11.732-8.908-12.604-15.411c-0.23-1.707-0.464-3.473-0.822-5.113
			c-1.937-8.892-17.907-40.518-26.08-56.002c-0.067-0.126-0.125-0.262-0.172-0.395c-1.773-4.957-0.829-10.081,2.807-15.239
			c17.066-24.222,93.638-44.487,98.633-44.487c0.242,0,0.534,0.038,0.821,0.102c1.032,0.142,8.104,0.376,43.737,0.376
			c49.091,0,122.513-0.442,123.248-0.451c0.214,0.004,0.414,0.021,0.618,0.062c3.643,0.73,89.35,18.178,103.221,41.729
			c2.166,3.679,2.671,7.4,1.503,11.064c-6.398,20.097-39.138,28.766-70.797,37.146c-13.503,3.578-26.26,6.954-36.428,11.05
			c-15.298,6.164-32.57,9.162-52.812,9.162c-8.355,0-15.576-0.496-21.384-0.901c-3.603-0.252-6.447-0.447-8.477-0.447
			c-11.27,0-98.255,10.189-126.396,22.537C113.116,401.907,107.029,403.618,102.512,403.618z M68.491,324.459
			c1.97,3.746,24.004,45.711,26.529,57.34c0.408,1.885,0.667,3.774,0.908,5.604c1.011,7.509,1.793,10.139,6.583,10.139
			c3.606,0,9.051-1.586,16.175-4.713c29.466-12.919,116.992-23.045,128.838-23.045c2.241,0,5.181,0.203,8.896,0.464
			c5.714,0.392,12.818,0.884,20.965,0.884c19.448,0,35.979-2.85,50.538-8.719c10.521-4.238,23.453-7.664,37.145-11.287
			c28.677-7.596,61.175-16.195,66.564-33.116c0.625-1.975,0.32-3.981-0.953-6.133c-10.326-17.548-74.564-33.886-98.875-38.799
			c-5.289,0.028-75.495,0.446-122.973,0.446c-34.156,0-42.251-0.174-44.604-0.472c-5.543,0.388-79.512,20.716-93.921,42.347
			C68.14,318.65,67.542,321.619,68.491,324.459z"/>
	</g>
	<g>
		<path fill="#AF4A25" d="M60.264,243.967c0,0-5.277,9.112-5.277,13.67c0,4.555-14.357,7.594-13.257,18.217
			c1.105,10.631,7.497,18.982,9.233,22.781c1.744,3.799-0.977,7.598,0,12.154c0.986,4.559,1.177,5.01,9.301,11.676
			c8.117,6.665,15.994,11.495,28.908,12.821c12.911,1.328,50.131,12.726,59.246,8.926c9.114-3.799,25.826-1.494,31.904,0.771
			c6.077,2.268,9.115-0.746,20.512,0c11.394,0.748,17.467,0.213,30.383,0.859c12.915,0.648,12.915-1.631,29.631-3.15
			c16.715-1.52,30.385-1.52,37.222,0c6.838,1.521,9.115,8.049,23.551,3.264c14.43-4.782,3.038-10.477,25.065-10.669
			c22.029-0.19,22.79-2.845,33.425,0c10.636,2.848-11.272-0.106,14.43,0c25.709,0.112,17.474,1.712,31.148,0
			c13.67-1.71,17.284-0.312,18.987-4.75c1.706-4.437-1.904,6.321,1.706-4.437c3.61-10.752-3.228,1.398,3.61-16.07
			c6.838-17.473,10.637-18.231,6.838-28.858c-3.798-10.632-4.558-9.112-4.558-15.94c0-6.834,2.277-21.264,0-21.264
			c-2.28,0,6.075,1.519-5.317-6.838c-11.393-8.352,18.229-4.554-11.393-8.352c-29.628-3.799-63.051-15.193-87.358-25.07
			c-24.307-9.875-126.862-58.492-137.495-53.933c-10.636,4.558-103.309,98.817-103.309,98.817L77.776,220.39
			C77.776,220.392,46.55,224.979,60.264,243.967z"/>
		<path fill="#3C2517" d="M312.523,350.721c-4.885,0-7.937-1.662-10.623-3.129c-1.558-0.851-2.894-1.58-4.491-1.932
			c-6.349-1.415-20.231-1.406-36.284,0.058c-6.922,0.632-10.949,1.399-14.188,2.019c-4.638,0.884-8.006,1.539-15.87,1.144
			c-6.081-0.307-10.603-0.344-14.973-0.384c-4.833-0.043-9.399-0.08-15.462-0.48c-4.939-0.33-8.193,0.102-10.951,0.461
			c-3.682,0.479-7.009,0.625-10.42-0.646c-3.389-1.264-10.818-2.604-17.928-2.604c-4.875,0-8.937,0.617-11.745,1.791
			c-1.623,0.676-3.778,1.006-6.587,1.006l0,0c-8.618,0-22.558-3.129-34.854-5.895c-7.743-1.74-15.061-3.385-19.293-3.818
			c-13.356-1.373-21.863-6.392-30.521-13.498c-8.377-6.879-9.154-7.877-10.339-13.383c-0.581-2.685-0.176-5.014,0.184-7.065
			c0.35-2.03,0.543-3.332,0.025-4.464c-0.371-0.813-0.984-1.854-1.707-3.098c-2.739-4.712-6.874-11.824-7.789-20.632
			c-0.861-8.272,5.548-12.849,9.788-15.87c1.277-0.914,3.214-2.296,3.494-2.918c-0.034-3.902,3.017-10.122,4.707-13.261
			c-3.101-4.959-3.777-9.587-2.003-13.783c4.216-9.976,20.766-12.677,22.636-12.952c0.938-0.133,1.867,0.164,2.542,0.806
			l27.457,26.138c16.05-16.284,91.881-92.932,102.183-97.344c0.855-0.367,1.886-0.55,3.151-0.55
			c12.784,0,58.299,19.789,107.814,41.836c12.363,5.501,23.037,10.256,28.868,12.623c18.492,7.513,54.331,20.729,86.601,24.869
			c16.115,2.066,16.115,2.066,16.283,4.9c0.154,2.638-2.426,3.285-3.396,3.531c-0.143,0.034-0.331,0.084-0.543,0.134
			c0.142,0.113,0.292,0.226,0.463,0.355c5.84,4.283,7.826,6.829,7.33,9.392c-0.018,0.1-0.042,0.2-0.071,0.3
			c0.561,2.463,0.292,6.416-0.214,12.661c-0.237,2.979-0.488,6.063-0.488,8.192c0,3.982,0.173,4.384,1.486,7.511
			c0.689,1.627,1.624,3.853,2.896,7.403c3.148,8.815,1.536,12.256-1.995,19.793c-1.332,2.84-2.983,6.371-4.874,11.199
			c-1.979,5.063-2.659,7.269-2.88,8.223c1.158,1.806,0.491,4.229-0.683,7.711c-0.613,1.841-1.071,3.197-1.446,4.199
			c-0.031,0.1-0.061,0.201-0.093,0.302l-0.021-0.005c-0.534,1.391-0.914,2.02-1.403,2.304c-2.171,2.854-5.757,3.135-11.074,3.545
			c-2.403,0.188-5.4,0.421-9.161,0.888c-7.855,0.986-8.792,0.91-12.618,0.631c-2.811-0.209-7.515-0.556-18.917-0.604l-1.318-0.006
			c-3.683,0-6.102,0.07-7.689,0.158c-0.562,0.636-1.436,1.086-2.616,1.086c-1.666,0-2.984-0.506-3.761-1.395
			c-5.348-1.416-8.115-1.277-13.8-0.777c-4.038,0.359-9.57,0.853-18.629,0.934c-11.359,0.095-12.427,1.572-13.774,3.445
			c-1.456,2.014-3.448,4.771-10.363,7.066C318.76,350.105,315.476,350.721,312.523,350.721z M283.163,338.514
			c6.712,0,11.946,0.405,15.563,1.211c2.435,0.543,4.37,1.6,6.083,2.529c2.351,1.281,4.378,2.389,7.714,2.389
			c2.291,0,4.95-0.514,8.139-1.57c5.052-1.672,6.166-3.219,7.347-4.858c2.623-3.635,5.188-5.848,18.649-5.964
			c8.815-0.08,14.21-0.557,18.148-0.906c6.341-0.562,9.843-0.66,16.087,1.01c0.46,0.121,0.86,0.234,1.206,0.34
			c1.461-0.227,4.385-0.447,11.108-0.447l1.345,0.005c11.616,0.049,16.452,0.408,19.342,0.622c3.288,0.245,3.925,0.342,11.411-0.602
			c3.906-0.488,6.98-0.729,9.45-0.914c6.366-0.492,6.62-0.705,7.085-1.907c0.208-0.543,0.438-1.142,0.771-1.662
			c0.229-0.685,0.521-1.554,0.889-2.649c0.519-1.531,0.755-2.435,0.873-2.942c-1.382-1.983-0.464-4.96,2.788-13.274
			c1.966-5.013,3.664-8.64,5.033-11.562c3.298-7.035,4.079-8.709,1.773-15.163c-1.219-3.402-2.117-5.534-2.771-7.097
			c-1.559-3.692-1.966-4.867-1.966-9.867c0-2.375,0.244-5.438,0.508-8.682c0.26-3.261,0.639-7.952,0.472-10.06
			c-0.818-0.571-1.394-1.47-1.394-2.467c0-0.405,0.134-0.806,0.339-1.182c-0.734-0.705-1.966-1.766-4-3.255
			c-1.251-0.914-4.565-3.352-3.91-6.704c0.021-0.101,0.041-0.2,0.066-0.296c-1.741-0.229-3.795-0.493-6.142-0.792
			c-32.949-4.225-69.346-17.645-88.11-25.267c-5.928-2.408-16.132-6.95-29.051-12.702c-34.708-15.448-92.799-41.311-105.35-41.311
			c-0.572,0-0.788,0.071-0.788,0.071c-7.369,3.156-65.227,60.419-102.309,98.137c-1.163,1.186-3.06,1.211-4.261,0.071L76.789,223.65
			c-4.884,0.967-14.297,3.822-16.504,9.061c-1.078,2.559-0.255,5.748,2.437,9.479c0.702,0.972,0.77,2.267,0.168,3.306
			c-2.025,3.489-4.866,9.57-4.866,12.143c0,3.326-2.919,5.408-6,7.609c-4.553,3.242-7.733,5.881-7.274,10.292
			c0.78,7.509,4.52,13.95,6.995,18.208c0.844,1.452,1.545,2.671,1.982,3.619c1.329,2.9,0.856,5.626,0.436,8.033
			c-0.289,1.654-0.561,3.22-0.226,4.746c0.816,3.808,0.83,3.879,8.248,9.973c8.035,6.593,15.401,10.924,27.289,12.143
			c4.591,0.477,11.733,2.08,20.006,3.941c11.984,2.688,25.571,5.742,33.519,5.742l0,0c2.576,0,3.766-0.34,4.25-0.537
			c3.594-1.498,8.336-2.26,14.082-2.26c8.274,0,16.192,1.55,20.053,2.988c2.357,0.883,4.425,0.711,7.51,0.313
			c2.843-0.371,6.574-0.859,12.134-0.501c5.89,0.389,10.372,0.43,15.118,0.473c4.434,0.036,9.012,0.077,15.219,0.389
			c7.03,0.35,9.978-0.197,14.43-1.047c3.369-0.642,7.561-1.441,14.777-2.098C268.863,338.912,276.673,338.514,283.163,338.514z"/>
	</g>
	<g>
		<path fill="#F3CEC4" d="M36.934,275.311c0,0-6.022,20.861,4.007,28.17c10.022,7.31,22.699,10.926,36.373,11.125
			c13.676,0.195,29.624,0.955,38.743,0.955c9.116,0,9.116-0.396,28.864-0.955c19.753-0.562,26.589-6.637,38.744,0.955
			c12.151,7.598,18.987,7.598,37.98,7.598c18.987,0,21.266,3.039,40.263,0c18.988-3.039,9.115-1.155,30.384-8.553
			c21.271-7.396,12.914-14.853,35.7-11.125c22.792,3.729,3.04,2.969,30.388,3.729c27.346,0.76,22.031-0.594,43.298-6.755
			c21.271-6.161,7.598-8.439,21.271-6.161c13.67,2.278,32.061-4.991,33.881-13.122c1.819-8.136,23.091-30.15-13.374-37.743
			c-36.461-7.596-275.744-63.049-275.744-63.049S33.02,200.131,36.934,275.311z"/>
		<path fill="#3C2517" d="M247.249,327.548c-3.515,0-6.575-0.274-9.818-0.562c-4.127-0.373-8.812-0.789-15.785-0.789
			c-19.426,0-26.696,0-39.595-8.061c-3.732-2.33-6.984-3.322-10.879-3.322c-2.75,0-5.772,0.479-9.266,1.039
			c-4.425,0.709-9.927,1.59-16.897,1.791c-9.471,0.268-14.384,0.496-17.947,0.668c-3.866,0.179-6.199,0.287-11.005,0.287
			c-4.85,0-11.657-0.213-18.862-0.441c-6.512-0.205-13.474-0.422-19.923-0.514c-14.726-0.213-27.912-4.268-38.121-11.711
			c-10.791-7.861-6.198-27.464-5.272-30.957c-1.418-31.907,21.313-58.909,65.771-78.118c33.172-14.326,67.282-19.439,67.621-19.49
			c0.37-0.049,0.755-0.033,1.125,0.05c2.393,0.555,239.669,55.528,275.684,63.033c11.958,2.487,19.208,6.725,22.159,12.942
			c3.802,8.002-0.698,16.672-3.982,23.004c-1.126,2.174-2.191,4.225-2.462,5.433c-2.421,10.844-23.551,17.759-37.346,15.46
			c-2.618-0.439-4.354-0.727-5.255-0.807c-1.438,1.533-4.217,3.859-14.668,6.892c-5.038,1.458-8.569,2.644-11.407,3.599
			c-7.285,2.449-10.298,3.465-21.71,3.465c-3.001,0-6.62-0.071-11.112-0.191l-4.879-0.135c-11.675-0.321-11.675-0.321-13.67-1.029
			c-1.103-0.389-3.139-1.114-12.243-2.604c-3.915-0.64-6.954-0.953-9.291-0.953c-4.608,0-6.074,1.135-8.991,3.39
			c-2.984,2.313-7.069,5.478-15.934,8.558c-6.553,2.284-10.133,3.674-12.5,4.596c-5.059,1.97-5.238,2.004-14.714,3.502l-3.687,0.589
			C256.465,327.107,251.65,327.548,247.249,327.548z M171.172,308.736c5.047,0,9.396,1.312,14.104,4.25
			c11.411,7.133,17.702,7.133,36.369,7.133c7.245,0,12.07,0.431,16.328,0.814c3.236,0.286,6.028,0.537,9.275,0.537
			c4.078,0,8.581-0.418,14.18-1.31l3.694-0.593c9.011-1.428,9.011-1.428,13.46-3.159c2.408-0.94,6.05-2.354,12.711-4.677
			c7.922-2.756,11.408-5.45,14.213-7.621c3.228-2.5,6.016-4.663,12.706-4.663c2.704,0,5.969,0.331,10.271,1.03
			c9.643,1.578,11.931,2.394,13.296,2.877c1.048,0.371,1.089,0.389,11.803,0.68l4.88,0.135c4.426,0.12,7.99,0.191,10.945,0.191
			c10.414,0,12.771-0.799,19.771-3.147c2.894-0.973,6.489-2.182,11.649-3.678c9.802-2.843,11.453-4.67,12.072-5.358
			c0.778-0.867,1.784-1.789,3.89-1.789c1.215,0,2.918,0.285,6.653,0.908c1.527,0.254,3.168,0.385,4.88,0.385
			c12.191,0,24.438-6.254,25.541-11.175c0.442-1.981,1.628-4.263,2.996-6.903c2.848-5.494,6.396-12.326,3.892-17.599
			c-2.059-4.325-8.081-7.556-17.915-9.605c-35.213-7.333-262.121-59.89-275.239-62.928c-9.32,1.499-131.233,22.511-127.628,91.682
			c0.019,0.334-0.024,0.673-0.117,0.998c-1.502,5.238-3.918,19.92,2.873,24.873c9.19,6.699,21.167,10.344,34.632,10.539
			c6.487,0.099,13.486,0.313,20.023,0.52c7.158,0.225,13.916,0.438,18.674,0.438c4.659,0,6.942-0.104,10.719-0.283
			c3.582-0.166,8.528-0.4,18.063-0.672c6.573-0.188,11.636-0.996,16.103-1.711C164.698,309.253,167.934,308.736,171.172,308.736z"/>
	</g>
	<g>
		<g>
			<path fill="#CC4627" d="M225.994,266.988c0,18.482-42.341,33.467-94.571,33.467c-52.235,0-94.577-14.982-94.577-33.467
				c0-18.476,42.342-33.464,94.577-33.464C183.653,233.523,225.994,248.512,225.994,266.988z"/>
			<path fill="#3C2517" d="M131.423,303.495c-54.738,0-97.615-16.033-97.615-36.507c0-20.467,42.877-36.502,97.615-36.502
				c54.734,0,97.611,16.036,97.611,36.502C229.034,287.461,186.157,303.495,131.423,303.495z M131.423,236.562
				c-54.757,0-91.537,15.732-91.537,30.426c0,14.695,36.78,30.429,91.537,30.429c54.755,0,91.533-15.731,91.533-30.429
				C222.956,252.294,186.178,236.562,131.423,236.562z"/>
		</g>
		<g>
			<path fill="#CC4627" d="M352.307,270.014c0,18.479-42.343,33.467-94.572,33.467s-94.575-14.988-94.575-33.467
				c0-18.479,42.346-33.464,94.575-33.464S352.307,251.535,352.307,270.014z"/>
			<path fill="#3C2517" d="M257.734,306.52c-54.735,0-97.616-16.035-97.616-36.506c0-20.47,42.881-36.503,97.616-36.503
				c54.733,0,97.609,16.033,97.609,36.503C355.345,290.484,312.469,306.52,257.734,306.52z M257.734,239.588
				c-54.756,0-91.539,15.729-91.539,30.426c0,14.691,36.782,30.43,91.539,30.43c54.756,0,91.537-15.737,91.537-30.43
				C349.271,255.316,312.49,239.588,257.734,239.588z"/>
		</g>
		<g>
			<path fill="#CC4627" d="M463.153,253.312c0,18.479-42.341,33.461-94.571,33.461s-94.573-14.981-94.573-33.461
				c0-18.49,42.343-33.477,94.573-33.477S463.153,234.822,463.153,253.312z"/>
			<path fill="#3C2517" d="M368.582,289.811c-54.735,0-97.611-16.031-97.611-36.498c0-20.479,42.876-36.515,97.611-36.515
				c54.734,0,97.609,16.037,97.609,36.515C466.191,273.779,423.316,289.811,368.582,289.811z M368.582,222.875
				c-54.758,0-91.534,15.74-91.534,30.438c0,14.688,36.776,30.422,91.534,30.422c54.755,0,91.533-15.732,91.533-30.422
				C460.115,238.616,423.337,222.875,368.582,222.875z"/>
		</g>
	</g>
	<g>
		<path fill="#368D42" d="M39.968,210.479c0,0-34.009,21.555-21.354,41.302c12.663,19.734,21.4,16.191,40.773,5.312
			c19.366-10.882,27.343,3.795,33.42,12.902c6.077,9.111,15.194,9.872,31.144,0c15.949-9.867,22.787-12.143,28.864-4.555
			c6.077,7.594,0,19.738,22.79,4.555c22.785-15.182,27.344,13.666,34.94,19.738c7.598,6.078,18.232,2.785,33.423-6.58
			c15.201-9.359,16.722-19.229,37.228-4.047c20.513,15.186,19.754,31.219,37.222,13.709c17.473-17.508,19.751-26.614,37.226-15.988
			c17.469,10.628,26.584,28.605,37.22,6.326c10.635-22.268-6.076-43.271,18.233-36.942c24.306,6.324,29.622,36.69,47.096,13.157
			c17.469-23.537,0-18.22,0-31.894c0-13.675,9.114-7.597,18.229-11.395c9.115-3.794,19.751-23.546-28.864-38.74
			c-48.614-15.194-303.097-9.876-303.097-9.876S54.348,174.74,39.968,210.479z"/>
		<path fill="#3C2517" d="M306.236,303.495c-5.104,0-8.623-3.925-13.073-8.896c-3.384-3.777-7.597-8.479-13.772-13.05
			c-6.695-4.959-11.451-7.263-14.966-7.263c-3.38,0-6.114,2.12-10.25,5.326c-2.419,1.873-5.152,3.998-8.611,6.127
			c-11.342,6.996-19.359,10.113-25.998,10.113c-4.14,0-7.812-1.26-10.914-3.742c-2.508-2.01-4.425-5.452-6.642-9.436
			c-3.647-6.564-7.779-14.004-14.56-14.004c-2.904,0-6.322,1.299-10.164,3.854c-8.176,5.451-13.185,7.776-16.732,7.776
			c-5.159,0-6.565-4.342-7.594-7.51c-0.612-1.903-1.251-3.869-2.517-5.452c-2.382-2.977-4.319-3.376-5.902-3.376
			c-4.198,0-10.631,3.443-18.99,8.615c-8.238,5.097-14.97,7.571-20.571,7.571c-6.007,0-10.949-2.849-14.701-8.469l-1.102-1.675
			c-4.224-6.437-9.008-13.733-17.197-13.733c-3.278,0-7.018,1.166-11.108,3.465c-9.616,5.402-16.95,9.227-23.845,9.227l0,0
			c-7.706,0-13.98-4.646-20.972-15.545c-3.076-4.804-4.011-10.081-2.775-15.669c3.196-14.455,20.244-26.618,24.247-29.306
			c15.962-36.281,102.963-43.711,106.686-44.008c0.618-0.021,43.979-0.914,97.553-0.914c78.355,0,177.828,1.895,206.696,10.915
			c31.376,9.805,38.401,21.476,38.773,29.54c0.337,7.338-4.764,12.873-9.644,14.906c-3.452,1.44-6.867,1.649-9.607,1.824
			c-5.46,0.339-6.754,0.417-6.754,6.767c0,3.757,1.576,5.447,3.571,7.592c4.964,5.313,7.563,10.298-4.173,26.113
			c-5.084,6.85-9.726,10.035-14.609,10.035c-5.65,0-10.155-4.184-15.372-9.029c-5.429-5.043-11.578-10.762-20.32-13.032
			c-4.954-1.294-8.257-1.369-9.312-0.304c-1.257,1.281-1.181,5.347-1.104,9.646c0.12,6.898,0.292,16.346-4.304,25.968
			c-2.534,5.31-6.718,12.366-13.729,12.366c-5.355,0-10.418-4.12-16.278-8.891c-3.406-2.775-7.268-5.92-11.532-8.515
			c-4.602-2.798-7.993-4.104-10.67-4.104c-4.312,0-7.742,3.527-14.487,10.856c-2.394,2.597-5.097,5.535-8.336,8.783
			C314.603,300.943,310.319,303.495,306.236,303.495z M264.425,268.21c5.019,0,10.573,2.528,18.58,8.453
			c6.675,4.94,11.114,9.896,14.686,13.878c3.57,3.99,6.154,6.875,8.547,6.875c2.222,0,5.503-2.209,10.03-6.746
			c3.155-3.16,5.815-6.053,8.165-8.605c7.104-7.719,11.79-12.818,18.962-12.818c3.896,0,8.157,1.54,13.825,4.988
			c4.624,2.812,8.657,6.094,12.214,8.996c4.957,4.035,9.245,7.523,12.442,7.523c0.99,0,3.99,0,8.244-8.908
			c3.977-8.33,3.832-16.595,3.715-23.236c-0.112-6.098-0.196-10.916,2.848-14.011c2.874-2.927,7.346-3.365,15.177-1.323
			c10.223,2.659,17.269,9.2,22.925,14.459c4.275,3.974,7.972,7.404,11.234,7.404c2.765,0,5.944-2.479,9.73-7.576
			c9.63-12.974,7.634-15.114,4.612-18.35c-2.2-2.359-5.209-5.581-5.209-11.737c0-12.059,6.902-12.485,12.454-12.835
			c2.521-0.155,5.135-0.317,7.644-1.365c2.496-1.04,6.132-4.295,5.911-9.016c-0.187-4.037-3.921-14.459-34.514-24.018
			c-28.137-8.795-126.944-10.64-204.884-10.64c-53.512,0-96.81,0.889-97.245,0.901c-0.696,0.063-88.218,7.526-101.733,41.111
			c-0.238,0.589-0.655,1.09-1.194,1.428c-0.191,0.125-19.38,12.451-22.382,26.034c-0.885,4.007-0.24,7.625,1.962,11.065
			c7.209,11.231,12.06,12.748,15.854,12.748c5.404,0.004,12.351-3.66,20.871-8.445c5.012-2.816,9.749-4.244,14.082-4.244
			c11.47,0,17.714,9.521,22.277,16.476l1.081,1.636c2.658,3.99,5.631,5.769,9.642,5.769c4.441,0,10.127-2.179,17.373-6.666
			c9.754-6.032,16.513-9.524,22.188-9.524c4.116,0,7.601,1.85,10.645,5.655c1.963,2.446,2.847,5.181,3.561,7.376
			c1.027,3.182,1.282,3.307,1.808,3.307c1.474,0,4.983-1.174,13.364-6.76c4.922-3.275,9.352-4.869,13.532-4.869
			c10.353,0,15.633,9.496,19.869,17.125c1.829,3.285,3.554,6.383,5.121,7.64c5.982,4.786,14.507,2.717,29.938-6.796
			c3.181-1.957,5.78-3.975,8.073-5.752C255.021,271.27,258.965,268.21,264.425,268.21z"/>
	</g>
	<g>
		<path fill="#E4BE63" d="M459.155,180.379c0,62.089-93.639,59.756-209.155,59.756c-115.511,0-209.147,2.333-209.147-59.756
			c0-62.094,93.637-112.425,209.147-112.425C365.518,67.955,459.155,118.285,459.155,180.379z"/>
		<path fill="#3C2517" d="M273.87,243.187L250,243.174l-23.868,0.012c-54.755,0-99.272-0.613-132.435-8.302
			c-37.604-8.728-55.883-26.56-55.883-54.505c0-63.667,95.181-115.463,212.186-115.463c117.004,0,212.192,51.796,212.192,115.463
			C462.192,243.187,370.719,243.187,273.87,243.187z M250,237.097l23.87,0.012c110.088,0,182.245-3.948,182.245-56.729
			c0-60.32-92.464-109.386-206.115-109.386c-113.649,0-206.111,49.066-206.111,109.386c0,25.044,16.262,40.48,51.181,48.582
			c32.533,7.546,76.7,8.147,131.062,8.147L250,237.097z"/>
	</g>
	<g>
		<path fill="#FBF3DF" d="M198.854,89.477c0,1.54-3.284,2.788-7.338,2.788c-4.062,0-7.351-1.248-7.351-2.788
			c0-1.541,3.288-2.785,7.351-2.785C195.57,86.691,198.854,87.936,198.854,89.477z"/>
	</g>
	<g>
		<path fill="#FBF3DF" d="M237.339,84.413c0,1.256-3.396,2.279-7.596,2.279c-4.194,0-7.593-1.022-7.593-2.279
			c0-1.261,3.398-2.279,7.593-2.279C233.942,82.134,237.339,83.152,237.339,84.413z"/>
	</g>
	<g>
		<path fill="#FBF3DF" d="M283.939,86.946c0,1.398-3.627,2.53-8.103,2.53s-8.104-1.132-8.104-2.53c0-1.402,3.631-2.534,8.104-2.534
			S283.939,85.544,283.939,86.946z"/>
	</g>
	<g>
		<ellipse fill="#FBF3DF" cx="241.946" cy="102.14" rx="8.146" ry="2.279"/>
	</g>
	<g>
		<path fill="#FBF3DF" d="M305.711,102.14c0,1.256-4.307,2.279-9.62,2.279c-5.31,0-9.623-1.022-9.623-2.279
			c0-1.261,4.313-2.279,9.623-2.279C301.404,99.861,305.711,100.879,305.711,102.14z"/>
	</g>
	<g>
		<path fill="#FBF3DF" d="M191.517,109.228c0,1.54-2.555,2.784-5.697,2.784c-3.147,0-5.698-1.244-5.698-2.784
			c0-1.541,2.551-2.788,5.698-2.788C188.962,106.44,191.517,107.688,191.517,109.228z"/>
	</g>
	<g>
		<path fill="#FBF3DF" d="M278.366,124.926c0,1.26-3.177,2.28-7.087,2.28c-3.916,0-7.094-1.02-7.094-2.28
			c0-1.256,3.179-2.279,7.094-2.279C275.189,122.647,278.366,123.67,278.366,124.926z"/>
	</g>
	<g>
		<ellipse fill="#FBF3DF" cx="135.047" cy="106.819" rx="8.1" ry="2.409"/>
	</g>
	<g>
		<path fill="#FBF3DF" d="M341.671,99.732c0,1.327-3.062,2.408-6.837,2.408s-6.838-1.081-6.838-2.408
			c0-1.328,3.063-2.405,6.838-2.405S341.671,98.404,341.671,99.732z"/>
	</g>
</g>
</svg>
