<?xml version="1.0" encoding="utf-8"?>
<!-- Generator: Adobe Illustrator 16.0.0, SVG Export Plug-In . SVG Version: 6.00 Build 0)  -->
<!DOCTYPE svg PUBLIC "-//W3C//DTD SVG 1.1//EN" "http://www.w3.org/Graphics/SVG/1.1/DTD/svg11.dtd">
<svg version="1.1" id="Layer_1" xmlns="http://www.w3.org/2000/svg" xmlns:xlink="http://www.w3.org/1999/xlink" x="0px" y="0px"
	 width="500px" height="500px" viewBox="0 0 500 500" enable-background="new 0 0 500 500" xml:space="preserve">
<g id="Layer_1_copy_51">
	<g>
		<g>
			<path fill="#F4BE78" d="M218.163,474.155h92.343l-8.795-205.788c0,0,29.457-15.82,31.219-61.982v-40.894l38.695-64.199
				c0,0,6.595-13.629-2.639-18.907c-9.233-5.276-19.787,7.036-19.787,7.036l-33.857,53.205c0,0-6.595,4.396-5.719-3.958
				c0.883-8.354,21.107-85.743,21.107-85.743s4.393-19.789-10.556-18.028c-11.432-1.758-14.511,13.632-14.511,13.632l-22.862,80.027
				c0,0-7.918,7.036-8.794-3.518c-0.884-10.553-1.76-90.282-1.76-90.282s1.691-15.25-13.666-13.49
				c-15.357,1.759-13.598,16.709-13.598,16.709l0.44,87.941c0,0-2.2,10.993-8.795,1.319c-6.596-9.673-26.823-76.511-26.823-76.511
				s-7.471-14.072-18.907-6.596c-11.434,7.476-6.158,17.591-6.158,17.591l23.668,79.289l0.899,8.985l-3.02,26.051
				c0,0-1.319,11.433-7.911,1.759c-6.599-9.675-32.982-35.18-51.888-34.738c-18.909,0.441-20.229,12.313-20.229,12.313
				s-3.079,7.473,19.349,15.389c22.426,7.915,29.898,36.496,29.898,36.496s5.717,40.457,48.373,56.262L218.163,474.155z"/>
		</g>
		<g>
			<path fill="#27140E" d="M310.506,477.854h-92.343c-0.999,0-1.953-0.406-2.65-1.122c-0.697-0.716-1.074-1.682-1.047-2.68
				l5.644-208.015c-40.702-16.468-47.621-54.192-48.224-58.003c-0.649-2.282-8.09-26.927-27.504-33.779
				c-11.646-4.111-18.752-8.875-21.116-14.164c-1.14-2.558-0.889-4.55-0.61-5.562c0.464-2.532,3.717-14.696,23.747-15.162
				l0.574-0.007c20.545,0,47.629,26.346,54.455,36.358c0.351,0.513,0.653,0.916,0.917,1.235c0.117-0.445,0.217-0.923,0.266-1.347
				l2.977-25.642l-0.825-8.236L181.29,63.083c-2.249-4.699-3.397-14.868,7.587-22.049c2.835-1.852,5.749-2.792,8.668-2.792
				c9.71,0,15.297,10.311,15.532,10.75c0.11,0.211,0.201,0.435,0.27,0.663c5.579,18.438,21.192,67.946,26.34,75.498
				c0.633,0.925,1.132,1.504,1.493,1.866c0.212-0.457,0.418-1.027,0.544-1.508l-0.434-87.354c-0.123-1.424-0.453-8.402,3.938-13.943
				c2.972-3.752,7.322-5.981,12.933-6.622c7.653-0.883,11.823,1.975,13.933,4.332c4.274,4.77,3.987,11.44,3.855,12.987
				c0.049,4.403,0.906,79.771,1.742,89.821c0.111,1.303,0.328,2.008,0.473,2.358c0.393-0.124,0.929-0.411,1.416-0.729l22.492-78.724
				c0.403-1.848,4.007-16.58,16.324-16.58c0.6,0,1.217,0.039,1.837,0.114c6.252-0.597,9.725,2.061,11.488,4.253
				c5.086,6.342,2.892,17.096,2.62,18.302c-5.604,21.435-20.137,77.911-21.023,85.185l32.761-51.474
				c0.092-0.149,0.197-0.29,0.312-0.42c0.845-0.988,8.524-9.644,17.647-9.644c2.409,0,4.692,0.606,6.781,1.804
				c9.674,5.527,6.935,17.938,4.134,23.729c-0.051,0.103-0.104,0.201-0.159,0.298l-38.166,63.316v39.866
				c-1.566,41.236-24.102,59.333-31.131,63.991l8.704,203.619c0.042,1.005-0.327,1.991-1.028,2.718
				C312.479,477.44,311.515,477.854,310.506,477.854z M221.964,470.457h84.68l-8.632-201.932c-0.058-1.42,0.7-2.748,1.949-3.422
				c0.062-0.033,6.994-3.873,14.023-13.006c6.48-8.412,14.387-23.198,15.246-45.854V165.49c0-0.673,0.184-1.332,0.528-1.91
				l38.591-64.022c0.541-1.201,4.545-10.679-1.198-13.961c-0.974-0.558-1.99-0.828-3.112-0.828c-4.719,0-10.009,4.797-11.871,6.88
				l-33.704,52.96c-0.282,0.436-0.643,0.807-1.069,1.093c-0.448,0.298-2.802,1.777-5.358,1.777c-1.742,0-3.312-0.675-4.414-1.907
				c-1.473-1.631-2.019-4.018-1.679-7.292c0.902-8.535,20.38-83.121,21.21-86.293c0.438-2.028,1.235-8.908-1.207-11.94
				c-0.543-0.671-1.541-1.564-3.961-1.564c-0.435,0-0.891,0.028-1.374,0.085c-0.332,0.04-0.67,0.034-0.997-0.017
				c-0.423-0.065-0.829-0.097-1.217-0.097c-6.804,0-9.085,10.7-9.107,10.809c-0.016,0.091-0.047,0.191-0.07,0.282l-22.858,80.026
				c-0.195,0.676-0.575,1.283-1.103,1.747c-0.604,0.541-3.815,3.234-7.421,3.234c-2.027,0-6.824-0.897-7.518-9.207
				c-0.879-10.568-1.734-87.289-1.771-90.55c-0.004-0.151,0.005-0.299,0.021-0.45c0.137-1.31,0.035-5.259-2.002-7.51
				c-1.52-1.677-3.98-2.297-7.562-1.896c-10.979,1.258-10.543,10.737-10.345,12.624c0.011,0.122,0.024,0.268,0.024,0.392
				l0.439,87.944c0,0.248-0.022,0.497-0.07,0.743c-0.766,3.815-3.198,8.271-7.548,8.271c-2.768,0.002-5.366-1.829-7.932-5.596
				c-6.604-9.686-24.579-68.518-27.185-77.112c-0.75-1.235-4.264-6.566-8.846-6.566c-1.457,0-3.01,0.533-4.619,1.584
				c-8.529,5.576-5.056,12.492-4.902,12.783c0.109,0.211,0.198,0.428,0.266,0.652l23.666,79.291
				c0.064,0.225,0.109,0.455,0.136,0.688l0.903,8.985c0.024,0.265,0.021,0.531-0.009,0.796l-3.021,26.05
				c-0.495,4.31-2.598,8.917-7.004,8.917c-3.486,0-6.032-3.14-7.642-5.501c-6.554-9.614-31.611-33.127-48.343-33.127l-0.398,0.003
				c-15.167,0.354-16.594,8.733-16.646,9.088c-0.023,0.168-0.065,0.354-0.114,0.533c0,1.323,3.06,5.966,17.026,10.896
				c23.999,8.47,31.921,37.803,32.246,39.047c0.034,0.138,0.065,0.278,0.085,0.419c0.224,1.559,6.021,38.496,45.989,53.312
				c1.484,0.547,2.458,1.982,2.413,3.568L221.964,470.457z"/>
		</g>
	</g>
	<g>
		<g>
			<path fill="#F4BE78" d="M262.053,223.184c0,0-9.867-43.832-58.803-41.264"/>
		</g>
		<g>
			<path fill="#27140E" d="M262.053,226.883c-1.688,0-3.215-1.165-3.605-2.881c-0.389-1.703-9.899-40.744-55.003-38.387
				c-1.997,0.129-3.782-1.458-3.886-3.5c-0.109-2.04,1.459-3.781,3.499-3.887c51.489-2.67,62.501,43.675,62.605,44.144
				c0.453,1.992-0.801,3.971-2.794,4.42C262.596,226.854,262.32,226.883,262.053,226.883z"/>
		</g>
	</g>
</g>
</svg>
