<svg id="hand_activities" data-name="hand activities" xmlns="http://www.w3.org/2000/svg" viewBox="0 0 300 300"><defs><style>.cls-1{fill:#f3be79;}.cls-2{fill:#3c2417;}.cls-3{fill:#ec2227;}.cls-4{fill:#009348;}.cls-5{fill:#67308f;}.cls-6{fill:#ed2e7c;}.cls-7{fill:#fbb041;}.cls-8{fill:#2cabe1;}.cls-9{fill:#8a5f3d;}.cls-10{fill:#fcded8;}</style></defs><title>hand exercises</title><polygon class="cls-1" points="189.36 118.55 162.24 117.58 158.55 129.25 167.74 151.63 198.12 168.39 204.39 152.17 189.36 118.55"/><path class="cls-2" d="M198.43,169.24l-31.16-17.19-.08-.19-9.27-22.58,3.9-12.31,27.93,1L205,152.16Zm-30.22-18,29.6,16.33,5.94-15.36L189,119.13l-26.3-.95-3.49,11Z"/><polygon class="cls-1" points="136.17 111.74 116.38 106.87 85.25 131.52 94.65 151.63 131.95 125.36 136.17 111.74"/><path class="cls-2" d="M94.42,152.52l-9.91-21.17,31.73-25.12,20.68,5.08-4.46,14.42ZM86,131.7l8.91,19L131.45,125l4-12.83-18.9-4.64Z"/><path class="cls-1" d="M127.86,135.07s-.61,9.75,5.23,9.1,5.9-7.17.68-13.8"/><path class="cls-2" d="M132.56,145.39a4.79,4.79,0,0,1-3.39-1.33c-2.81-2.67-2.54-8.42-2.49-9.06a1.17,1.17,0,0,1,1.25-1.11,1.18,1.18,0,0,1,1.11,1.25c-.09,1.46.06,5.59,1.76,7.21A2.55,2.55,0,0,0,133,143a3.49,3.49,0,0,0,3.12-2c1-2.29-.31-6.17-3.24-9.89a1.18,1.18,0,0,1,1.86-1.46c3.56,4.52,4.89,9.1,3.57,12.26a5.82,5.82,0,0,1-5.05,3.45A5.07,5.07,0,0,1,132.56,145.39Z"/><path class="cls-1" d="M137,127.33s11.16,4.68,6.13,11.16S132,131.85,132,131.85"/><path class="cls-2" d="M140.07,141.48l-.47,0c-4.56-.51-8.31-8.23-8.72-9.11a1.18,1.18,0,1,1,2.14-1c1.35,2.86,4.39,7.49,6.84,7.76.3,0,1.21.13,2.35-1.33a3.93,3.93,0,0,0,.94-3.5c-.75-2.83-5-5.18-6.6-5.85a1.18,1.18,0,1,1,.91-2.18c.28.11,6.78,2.88,8,7.42a6.22,6.22,0,0,1-1.36,5.56A5,5,0,0,1,140.07,141.48Z"/><path class="cls-1" d="M140.14,122.49s11.11,1.41,7.54,8.71c0,0-3.82,4.94-8.8-1.91"/><path class="cls-2" d="M144.23,134.11h-.08c-2.17,0-4.27-1.42-6.23-4.12a1.19,1.19,0,1,1,1.92-1.39c1.48,2,3,3.12,4.35,3.14h0a3.54,3.54,0,0,0,2.45-1.19,3.74,3.74,0,0,0,.18-3.45c-1.21-2.25-5.37-3.24-6.87-3.44a1.18,1.18,0,0,1,.3-2.35c.27,0,6.61.88,8.65,4.67a6,6,0,0,1-.19,5.74,1.37,1.37,0,0,1-.13.2A6,6,0,0,1,144.23,134.11Z"/><path class="cls-1" d="M154.81,135.87s-5.45-3.21-7.07,0,1.52,5.88,5.3,7.47"/><path class="cls-2" d="M153,144.52a1.22,1.22,0,0,1-.46-.09c-2.3-1-5.23-2.65-6.17-5.21a4.76,4.76,0,0,1,.27-3.88,3.61,3.61,0,0,1,2.27-1.9c2.64-.77,6.08,1.19,6.46,1.41a1.19,1.19,0,0,1,.42,1.62,1.17,1.17,0,0,1-1.62.42c-.75-.43-3.2-1.59-4.6-1.17a1.25,1.25,0,0,0-.82.69,2.38,2.38,0,0,0-.16,2c.5,1.35,2.27,2.76,4.87,3.85a1.18,1.18,0,0,1-.46,2.27Z"/><path class="cls-1" d="M191.31,148.71s-4.76-8.64-.76-12.32c-5.29-3.46-6.16-11.14-6.16-11.14s-5,1.84-11.78-2.76c-9.74,2.75-16.33-.48-16.33-.48-.65-3.25-3.89-10.81,19.56-11.25s24.44,7,24.44,7,.65,3.79,7.57,13.3S220.71,156,221.47,173.9s16.87,36,16.87,36H197.15c-6.17-5.3-13.84-19-17.74-28.76s-11.78-18.71-11.78-18.71-19.57-17.73-14.16-25.15,16,2.34,16,2.34,14.59,18.92,20.86,17.84,7.14-5.84,7.14-5.84"/><path class="cls-2" d="M238.34,211.09H197.15a1.18,1.18,0,0,1-.78-.29c-6.3-5.41-14-19.09-18.06-29.21-3.62-9.08-10.91-17.6-11.53-18.32-2.31-2.1-20.09-18.69-14.27-26.68a7.42,7.42,0,0,1,5.45-3.23c5.77-.57,12,5.16,12.31,5.4l.14.15c5.47,7.09,15.69,18.1,19.72,17.39,5.39-.93,6.16-4.84,6.18-4.88a1.18,1.18,0,1,1,2.32.42c0,.23-1.09,5.59-8.09,6.8-6.7,1.16-20.11-15.84-21.94-18.2-.67-.59-6-5.17-10.41-4.72a5.11,5.11,0,0,0-3.76,2.26c-3.9,5.36,9.13,19.17,14,23.59l.09.09c.33.37,8.07,9.24,12,19.05s11.32,22.82,17.07,28H235.8c-4.21-5.22-14.89-19.88-15.51-34.77-.67-15.78-5.68-31.54-13.4-42.16-7-9.63-7.75-13.63-7.78-13.8s-1.61-6.45-23.24-6c-12.33.23-16.65,2.48-18.1,4.33-1.22,1.57-.81,3.38-.48,4.83a.08.08,0,0,1,0,0,24.4,24.4,0,0,0,15,.2,1.16,1.16,0,0,1,1,.16c6.15,4.16,10.53,2.69,10.72,2.63a1.18,1.18,0,0,1,1,.11,1.17,1.17,0,0,1,.55.87c0,.07.89,7.17,5.64,10.27a1.21,1.21,0,0,1,.53.9,1.19,1.19,0,0,1-.38,1c-2.72,2.5-.2,8.7,1,10.88a1.18,1.18,0,1,1-2.07,1.15c-.2-.36-4.41-8.15-1.44-12.7-3.58-3-4.94-7.65-5.4-9.91-2,.29-6.06.29-11-2.91-9.76,2.58-16.36-.56-16.64-.7a1.2,1.2,0,0,1-.65-.83c0-.18-.08-.39-.13-.6-.37-1.63-1-4.36.92-6.81,2.61-3.34,9.12-5,19.92-5.25,23.84-.42,25.52,7.19,25.64,8.06h0s.8,3.75,7.35,12.76c8,11,13.16,27.22,13.85,43.45.72,17.33,16.4,35.09,16.56,35.27a1.18,1.18,0,0,1-.88,2Z"/><path class="cls-3" d="M236.51,146.4a13.6,13.6,0,0,1-2.86-.31c-8.89-1.93-13.93-6.84-17.26-10.1-1.51-1.47-2.82-2.74-3.76-3a66.05,66.05,0,0,0-8.41.46c-14.69,1.22-42.06,3.5-52.46-5.21-10.8-9.05-25-8.21-33.53-7.71-1.64.09-3,.17-4.22.17h0c-7.7,0-15.08-17.15-15.9-19.1a1.19,1.19,0,0,1,2.19-.91c2,4.9,8.51,17.64,13.71,17.64h0c1.1,0,2.48-.08,4.08-.17,8.85-.52,23.67-1.39,35.19,8.26,9.66,8.09,37.41,5.77,50.75,4.67,5.62-.47,8.15-.66,9.2-.39,1.55.41,3,1.82,4.82,3.6,3.32,3.24,7.88,7.69,16.11,9.47,9.55,2.08,17-8.84,22.34-16.81,1.41-2.09,2.63-3.89,3.74-5.23a1.18,1.18,0,1,1,1.82,1.51c-1,1.26-2.22,3-3.6,5C253.5,135.63,246.21,146.4,236.51,146.4Z"/><path class="cls-1" d="M116.28,122.88s5.66-2.6,8.07-1"/><path class="cls-2" d="M116.28,124.06a1.18,1.18,0,0,1-.5-2.26c.64-.3,6.35-2.82,9.23-.88a1.19,1.19,0,0,1-1.32,2c-1.41-1-5.27.3-6.92,1.06A1.09,1.09,0,0,1,116.28,124.06Z"/><path class="cls-1" d="M97.57,140.44c3.25.81,9.73-4.05,9.73-4.05s14.92-16.22,23.68-17,10.38,4,9.73,7-7.46,8.11-7.46,8.11a82,82,0,0,0-22.38,25.3c-10.7,20.43-32.6,29.52-32.6,29.52L63,208.71H23.41s37.4-44.54,41.51-52.32S84,124,84,124s3.3-8.81,11.89-10.59c2.6.87,14.92-13.19,14.92-13.19s3-6.92,15.79,0c8.31,3.93,14.18,7,18.82,13.19,0,0,2.37,4.11-.88,7.14S129.36,117,129.36,117s-9.08-.63-10.6-4.64c.22,7.23-7.13,7.66-7.13,7.66"/><path class="cls-2" d="M63,209.9H23.41a1.18,1.18,0,0,1-.91-2c.37-.44,37.37-44.53,41.37-52.12s18-30.77,19-32.4c.44-1.11,4-9.43,12.72-11.23a1.18,1.18,0,0,1,.53,0c1.68-.17,8.34-6.68,13.65-12.71a6.84,6.84,0,0,1,3.85-3.1c3.43-1.18,8-.26,13.48,2.73,8.18,3.86,14.38,7.11,19.21,13.51l.08.13c1,1.7,2,5.69-1.1,8.59a5.18,5.18,0,0,1-3.84,1.1,6.69,6.69,0,0,1,.41,4.13c-.71,3.18-6.71,7.89-7.9,8.79a81.55,81.55,0,0,0-22.06,24.94C101.69,179.83,81.78,189,79,190.23L64,209.45A1.15,1.15,0,0,1,63,209.9ZM26,207.53h36.5l14.89-19a1.24,1.24,0,0,1,.48-.37c.22-.09,21.63-9.17,32-29a82.46,82.46,0,0,1,22.76-25.73c2.45-1.87,6.57-5.57,7-7.38a4.23,4.23,0,0,0-.92-3.68,3.41,3.41,0,0,0-.47-.46,35.29,35.29,0,0,1-4.28-1.45,17.64,17.64,0,0,0-2.79.05c-8.2.76-22.77,16.49-22.92,16.65a.77.77,0,0,1-.16.15c-.71.53-7,5.17-10.73,4.25a1.18,1.18,0,0,1-.86-1.44,1.2,1.2,0,0,1,1.44-.86c1.84.46,6.13-1.91,8.65-3.79,1.23-1.33,14-15,22.93-17.08l-.43-.22c-1.37-.12-6.41-.69-9.39-2.92-1.22,4.35-5.47,5.82-7.92,6a1.19,1.19,0,0,1-.14-2.37c.63,0,6.19-.58,6-6.45a1.18,1.18,0,0,1,2.29-.45c1,2.69,7.41,3.72,9.57,3.87a1.2,1.2,0,0,1,.49.14,44.25,44.25,0,0,0,4.61,2.18,10,10,0,0,1,4.61,1.55c2.08.52,3.8.6,4.54-.09,2.37-2.21.93-5.16.69-5.62-4.51-5.94-10.2-8.92-18.34-12.77-6.11-3.31-9.66-3.25-11.57-2.62a4.42,4.42,0,0,0-2.63,2,1.12,1.12,0,0,1-.19.29c-5.54,6.32-12.6,13.61-15.69,13.61h0c-7.71,1.71-10.82,9.73-10.85,9.81a.75.75,0,0,1-.1.2c-.15.25-14.94,24.71-19,32.37C62.3,163.9,33.28,198.76,26,207.53Z"/><path class="cls-3" d="M119,120.43c-4.52,0-10.48-.65-13.06-3.74-4-4.74-8.9-17.5-9.11-18a1.19,1.19,0,0,1,2.22-.85c0,.13,5,12.93,8.71,17.38,2.85,3.4,12.93,3,16.57,2.58a1.18,1.18,0,1,1,.28,2.35A48.62,48.62,0,0,1,119,120.43Z"/><path class="cls-4" d="M162.24,128.53c0,3.67-3.34,6.64-7.47,6.64s-7.47-3-7.47-6.64,3.35-6.63,7.47-6.63S162.24,124.87,162.24,128.53Z"/><path class="cls-2" d="M154.77,136.35c-4.77,0-8.66-3.5-8.66-7.82s3.89-7.81,8.66-7.81,8.66,3.5,8.66,7.81S159.54,136.35,154.77,136.35Zm0-13.26c-3.47,0-6.29,2.44-6.29,5.44s2.82,5.45,6.29,5.45,6.29-2.44,6.29-5.45S158.24,123.09,154.77,123.09Z"/><path class="cls-5" d="M236.84,143.34c0,3.66-3.34,6.63-7.47,6.63s-7.47-3-7.47-6.63,3.34-6.63,7.47-6.63S236.84,139.68,236.84,143.34Z"/><path class="cls-2" d="M229.37,151.16c-4.77,0-8.66-3.51-8.66-7.82s3.89-7.82,8.66-7.82S238,139,238,143.34,234.14,151.16,229.37,151.16Zm0-13.27c-3.47,0-6.29,2.45-6.29,5.45s2.82,5.45,6.29,5.45,6.29-2.44,6.29-5.45S232.84,137.89,229.37,137.89Z"/><path class="cls-6" d="M201.39,131.29c0,4.56-3,8.27-6.72,8.27s-6.71-3.71-6.71-8.27,3-8.26,6.71-8.26S201.39,126.73,201.39,131.29Z"/><path class="cls-2" d="M194.67,140.74c-4.35,0-7.9-4.24-7.9-9.45s3.55-9.45,7.9-9.45,7.9,4.24,7.9,9.45S199,140.74,194.67,140.74Zm0-16.53c-3,0-5.53,3.18-5.53,7.08s2.48,7.08,5.53,7.08,5.53-3.17,5.53-7.08S197.72,124.21,194.67,124.21Z"/><path class="cls-4" d="M251,143c0,2.91-2.93,5.27-6.55,5.27s-6.55-2.36-6.55-5.27,2.93-5.27,6.55-5.27S251,140.11,251,143Z"/><path class="cls-2" d="M244.46,149.48c-4.27,0-7.74-2.9-7.74-6.46s3.47-6.46,7.74-6.46,7.74,2.9,7.74,6.46S248.73,149.48,244.46,149.48Zm0-10.55c-3,0-5.37,1.84-5.37,4.09s2.41,4.09,5.37,4.09,5.37-1.84,5.37-4.09S247.42,138.93,244.46,138.93Z"/><path class="cls-7" d="M187.31,131.47c0,3.79-5.38,6.86-12,6.86s-12-3.07-12-6.86,5.37-6.87,12-6.87S187.31,127.68,187.31,131.47Z"/><path class="cls-2" d="M175.31,139.52c-7.4,0-13.19-3.54-13.19-8.05s5.79-8,13.19-8,13.18,3.54,13.18,8S182.7,139.52,175.31,139.52Zm0-13.73c-5.87,0-10.82,2.6-10.82,5.68s4.95,5.68,10.82,5.68,10.81-2.6,10.81-5.68S181.17,125.79,175.31,125.79Z"/><path class="cls-8" d="M223.09,135.16c0,5-4.62,9.09-10.32,9.09s-10.33-4.07-10.33-9.09,4.63-9.1,10.33-9.1S223.09,130.13,223.09,135.16Z"/><path class="cls-2" d="M212.77,145.44c-6.35,0-11.51-4.62-11.51-10.28s5.16-10.29,11.51-10.29,11.51,4.62,11.51,10.29S219.11,145.44,212.77,145.44Zm0-18.2c-5,0-9.14,3.55-9.14,7.92s4.1,7.91,9.14,7.91,9.14-3.55,9.14-7.91S217.81,127.24,212.77,127.24Z"/><path class="cls-9" d="M261.93,129.24c2.53,4.61,1.57,10-2.15,12s-8.78-.05-11.31-4.67-1.56-10,2.16-12S259.41,124.62,261.93,129.24Z"/><path class="cls-2" d="M256.68,143.25c-3.6,0-7.23-2.38-9.25-6.07a12,12,0,0,1-1.39-7.77,8.12,8.12,0,0,1,4-5.88,7.47,7.47,0,0,1,3.67-.93c3.6,0,7.22,2.38,9.24,6.07,2.84,5.18,1.67,11.3-2.62,13.65A7.58,7.58,0,0,1,256.68,143.25Zm-3-18.28a5.25,5.25,0,0,0-2.54.63,5.83,5.83,0,0,0-2.81,4.23,9.49,9.49,0,0,0,1.13,6.21c1.61,2.94,4.42,4.83,7.17,4.83a5.22,5.22,0,0,0,2.53-.63c3.14-1.72,3.9-6.4,1.69-10.43C259.29,126.87,256.47,125,253.73,125Z"/><path class="cls-1" d="M182.24,145.87s-2.9-5.64-1.67-8.31"/><path class="cls-2" d="M182.24,147.06a1.18,1.18,0,0,1-1.05-.65c-.33-.62-3.13-6.25-1.69-9.35a1.19,1.19,0,0,1,1.57-.58,1.2,1.2,0,0,1,.58,1.58c-.72,1.55.63,5.29,1.64,7.28a1.18,1.18,0,0,1-.51,1.59A1.16,1.16,0,0,1,182.24,147.06Z"/><path class="cls-10" d="M161.76,150.05l7-4.89s-4.37-6.69-9.51-5.4S161.76,150.05,161.76,150.05Z"/><path class="cls-2" d="M161.76,150.93a.85.85,0,0,1-.67-.31c-.56-.65-5.43-6.47-4.38-9.75a2.92,2.92,0,0,1,2.29-2,6.22,6.22,0,0,1,1.55-.2c5,0,8.76,5.73,8.92,6a.89.89,0,0,1-.24,1.21l-6.95,4.89A.91.91,0,0,1,161.76,150.93Zm-1.21-10.45a4.71,4.71,0,0,0-1.12.14c-.76.19-1,.54-1,.79-.49,1.53,1.63,5.06,3.53,7.43l5.54-3.89C166.38,143.54,163.64,140.48,160.55,140.48Z"/><path class="cls-10" d="M126.13,125.46l5,5.83s7.93-4.59,5-7.5S126.13,125.46,126.13,125.46Z"/><path class="cls-2" d="M131.17,132.18a.88.88,0,0,1-.67-.31l-5-5.83a.87.87,0,0,1-.21-.71.9.9,0,0,1,.4-.62c.18-.11,4.35-2.78,7.83-2.78a4.51,4.51,0,0,1,3.32,1.23,2.88,2.88,0,0,1,.88,2.49c-.4,3-5.49,6.08-6.07,6.41A.88.88,0,0,1,131.17,132.18Zm-3.67-6.49,3.85,4.45c1.88-1.2,4.38-3.25,4.57-4.73a1.12,1.12,0,0,0-.38-1,2.79,2.79,0,0,0-2.06-.7A14.18,14.18,0,0,0,127.5,125.69Z"/></svg>