<?xml version="1.0" encoding="utf-8"?>
<!-- Generator: Adobe Illustrator 16.0.0, SVG Export Plug-In . SVG Version: 6.00 Build 0)  -->
<!DOCTYPE svg PUBLIC "-//W3C//DTD SVG 1.1//EN" "http://www.w3.org/Graphics/SVG/1.1/DTD/svg11.dtd">
<svg version="1.1" id="Layer_1" xmlns="http://www.w3.org/2000/svg" xmlns:xlink="http://www.w3.org/1999/xlink" x="0px" y="0px"
	 width="500px" height="500px" viewBox="0 0 500 500" enable-background="new 0 0 500 500" xml:space="preserve">
<g id="Layer_1_copy_76">
	<g>
		<g>
			<path fill="#FDDC1F" d="M481.957,248.187c0,127.437-103.306,230.738-230.738,230.738c-127.431,0-230.735-103.301-230.735-230.738
				c0-127.43,103.305-230.734,230.735-230.734C378.651,17.452,481.957,120.757,481.957,248.187z"/>
		</g>
		<g>
			<path fill="#FCB022" d="M251.219,482.385c-129.137,0-234.199-105.062-234.199-234.199S122.082,13.989,251.219,13.989
				c129.139,0,234.198,105.062,234.198,234.197C485.417,377.322,380.356,482.385,251.219,482.385z M251.219,20.915
				c-125.317,0-227.27,101.953-227.27,227.271c0,125.321,101.952,227.277,227.27,227.277c125.319,0,227.276-101.956,227.276-227.277
				C478.495,122.868,376.538,20.915,251.219,20.915z"/>
		</g>
	</g>
	<g>
		<path fill="#4C230D" d="M248.5,255.773c-4.398,0-7.595-1.515-9.722-3.07c-5.142-3.78-8.089-10.844-8.089-19.387
			c0-15.241,15.535-19.268,23.749-19.268c1.91,0,3.461,1.55,3.461,3.463c0,1.913-1.545,3.461-3.453,3.463
			c-0.75,0.003-16.83,0.239-16.83,12.342c0,6.317,1.918,11.346,5.258,13.802c2.668,1.953,6.208,2.258,10.525,0.899
			c1.836-0.573,3.771,0.446,4.346,2.272c0.572,1.818-0.442,3.766-2.27,4.338C252.882,255.441,250.557,255.773,248.5,255.773z"/>
	</g>
	<g>
		<g>
			<path fill="#27140E" d="M123.067,109.77c0,0,18.176-17.592,42.951-9.19c22.016,7.471,17.613-5.593,16.629-9.343
				c-2.413-9.18-15.019-16.113-43.39-5.083C121.332,93.913,123.067,109.77,123.067,109.77z"/>
		</g>
		<g>
			<path fill="#27140E" d="M123.067,112.078c-0.263,0-0.531-0.044-0.787-0.136c-0.827-0.299-1.415-1.044-1.506-1.92
				c-0.021-0.175-1.695-17.647,17.565-25.986c10.017-3.893,18.729-5.852,25.977-5.852c15.6,0,19.577,8.718,20.564,12.467l0.132,0.48
				c0.661,2.438,2.045,7.513-0.603,10.976c-2.923,3.82-9.059,4.078-19.132,0.66c-4.211-1.426-8.507-2.15-12.768-2.15
				c-16.478,0-27.728,10.706-27.837,10.813C124.234,111.853,123.654,112.078,123.067,112.078z M164.316,82.8
				c-6.674,0-14.824,1.853-24.221,5.504c-10.22,4.427-13.419,11.64-14.382,16.414c5.139-3.589,14.619-8.72,26.797-8.72
				c4.767,0,9.562,0.807,14.247,2.396c7.426,2.516,12.542,2.793,13.986,0.91c1.26-1.649,0.28-5.238-0.188-6.959l-0.143-0.521
				C178.907,86.089,173.04,82.8,164.316,82.8z"/>
		</g>
	</g>
	<g>
		<g>
			<path fill="#27140E" d="M385.482,105.371c0,0-20.874-14.292-43.889-1.853c-20.451,11.059-18.71-3.217-17.96-6.419
				c2.035-8.693,11.998-15.346,41.819-9.235C383.024,92.157,385.482,105.371,385.482,105.371"/>
		</g>
		<g>
			<path fill="#27140E" d="M329.397,109.961c-3.521,0-5.493-1.548-6.523-2.845c-2.904-3.663-1.748-9.424-1.486-10.542
				c1.431-6.106,6.756-13.388,24.02-13.388c5.786,0,12.688,0.812,20.509,2.417c17.064,4.167,21.024,16.107,21.715,18.814
				c0.13,0.292,0.205,0.614,0.205,0.954c0,1.31-1.013,2.364-2.414,2.308c-0.438-0.011-0.867-0.144-1.242-0.398
				c-0.099-0.067-9.768-6.538-22.762-6.538c-6.519,0-12.821,1.619-18.721,4.809C337.203,108.518,332.858,109.961,329.397,109.961z
				 M345.406,87.802c-11.432,0-17.998,3.305-19.523,9.823c-0.365,1.564-0.708,4.959,0.612,6.621c0.212,0.272,0.87,1.097,2.902,1.097
				c1.811,0,5.208-0.668,11.101-3.854c6.586-3.558,13.626-5.365,20.919-5.365c7.974,0,14.726,2.137,19.255,4.107
				c-2.431-3.604-7.07-8.001-15.765-10.125C357.471,88.583,350.881,87.802,345.406,87.802z"/>
		</g>
	</g>
	<g>
		<g>
			<path fill="#4C230D" d="M106.815,189.014c-0.742,0-1.5-0.181-2.201-0.561c-2.236-1.219-3.064-4.018-1.85-6.257
				c0.767-1.418,19.219-34.811,50.971-41.755c32.77-7.184,60.409,34.208,61.569,35.971c1.401,2.131,0.812,4.992-1.315,6.393
				c-2.135,1.398-4.99,0.809-6.398-1.316c-0.248-0.378-25.283-37.845-51.882-32.027c-27.582,6.033-44.66,36.833-44.83,37.145
				C110.04,188.142,108.454,189.014,106.815,189.014z"/>
		</g>
		<g>
			<path fill="#4C230D" d="M402.058,194.757c-1.638,0-3.221-0.874-4.062-2.415c-0.259-0.483-17.327-31.123-44.827-37.139
				c-26.642-5.816-51.633,31.645-51.885,32.024c-1.401,2.132-4.261,2.723-6.392,1.323c-2.135-1.403-2.725-4.264-1.322-6.396
				c1.16-1.765,28.76-43.142,61.572-35.972c31.751,6.947,50.2,40.335,50.973,41.754c1.217,2.24,0.385,5.042-1.858,6.258
				C403.559,194.577,402.804,194.757,402.058,194.757z"/>
		</g>
	</g>
	<g>
		<path fill="#4C230D" d="M100.148,289.705c-0.07,0-0.142-0.007-0.212-0.007c-1.911-0.119-3.362-1.763-3.245-3.665
			c1.588-26.02,17.068-31.355,17.726-31.568c1.812-0.588,3.773,0.396,4.364,2.223c0.587,1.806-0.393,3.744-2.188,4.354
			c-0.552,0.197-11.71,4.451-12.99,25.417C103.489,288.29,101.968,289.705,100.148,289.705z"/>
	</g>
	<g>
		<path fill="#4C230D" d="M392.163,290.497c-1.652,0-3.121-1.195-3.404-2.888c-3.578-21.105-15.473-23.844-15.593-23.873
			c-1.868-0.396-3.068-2.229-2.676-4.104c0.396-1.868,2.24-3.058,4.104-2.668c0.678,0.142,16.634,3.793,20.989,29.493
			c0.319,1.882-0.952,3.674-2.835,3.991C392.556,290.484,392.357,290.497,392.163,290.497z"/>
	</g>
	<g>
		<g>
			<path fill="#C12026" d="M245.613,433.385c-34.484-1.579-70.563-35.941-89.075-84.551c0,0-19.276-55.436-26.79-62.201
				c-7.509-6.76-21.931-17.85-21.931-17.85s54.164,50.193,140.627,49.558c0,0,91.126,1.487,137.039-46.805
				c0,0-27.152,20.313-38.812,67.912C323.072,439.869,245.613,433.385,245.613,433.385z"/>
		</g>
		<g>
			<path fill="#4C230D" d="M248.454,436.932c-2.021,0-3.132-0.092-3.132-0.092c-35.849-1.644-72.881-36.516-92.019-86.773
				c-7.376-21.199-20.881-56.362-25.87-60.856c-2.491-2.237-6.026-5.21-10.518-8.833c-7.361-5.279-11.29-8.896-11.451-9.053
				c-1.36-1.254-1.486-3.354-0.291-4.771c1.192-1.416,3.288-1.642,4.756-0.517c0.051,0.043,5.38,4.141,11.18,8.827
				c20.939,14.977,65.042,40.025,125.692,40.025l1.613-0.017l0.921,0.007c8.272,0,82.028-1.076,125.932-38.453
				c4.726-5.089,7.998-7.56,8.138-7.665c1.442-1.075,3.468-0.87,4.66,0.474c1.196,1.346,1.164,3.385-0.074,4.687
				c-2.459,2.593-5.121,5.117-7.917,7.511c-8.02,8.727-22.446,27.851-30.041,58.844c-9.074,38.623-26.972,66.386-53.181,82.486
				C276.029,435.551,256.07,436.932,248.454,436.932z M138.326,293.838c8.274,16.357,18.94,46.544,21.482,53.862
				c17.854,46.87,53.218,80.724,85.96,82.225c0.201,0.021,1.104,0.085,2.686,0.085c7.024,0,25.453-1.289,44.774-13.15
				c24.577-15.098,41.424-41.405,50.071-78.202c4.594-18.751,11.602-33.394,18.343-44.202
				c-45.396,26.484-104.822,27.355-112.308,27.355l-0.948-0.006l-1.586,0.006C200.279,321.811,163.184,307.52,138.326,293.838z"/>
		</g>
	</g>
	<g>
		<path fill="#F288B7" d="M178.486,380.188c0,0,19.932-18.34,42.665-17.453c22.734,0.892,24.914,10.058,24.914,10.058
			s13.671-9.3,26.471-10.022c3.019-0.168,12.866,1.205,15.868,1.869c9.008,2.02,26.327,7.573,33.802,21.105
			c-8.947,21.062-47.515,48.355-86.952,41.803C212.983,422.607,187.727,400.664,178.486,380.188z"/>
		<path fill="#F173AC" d="M247.396,429.691c-4.162,0-8.31-0.34-12.33-1.004c-22.062-4.895-47.889-26.431-57.634-48.025l-0.341-0.757
			l0.616-0.566c0.807-0.741,20.504-18.637,43.486-17.75c18.176,0.708,23.746,6.696,25.367,9.505
			c3.599-2.266,14.951-8.854,25.911-9.477c3.172-0.198,13.166,1.223,16.186,1.896c9.621,2.151,26.909,7.819,34.56,21.672
			l0.271,0.487l-0.22,0.517C314.53,406.766,281.223,429.691,247.396,429.691z M179.895,380.484
			c9.743,20.762,34.494,41.251,55.61,45.929c3.836,0.638,7.856,0.97,11.892,0.97c35.615,0,65.835-24.39,73.524-41.568
			c-7.356-12.703-23.64-18.01-32.767-20.043c-2.828-0.637-12.543-2.022-15.551-1.847c-12.344,0.692-25.759,9.729-25.891,9.824
			l-1.385,0.938l-0.389-1.627c-0.021-0.062-2.488-8.338-23.835-9.166C201.28,363.117,183.427,377.479,179.895,380.484z"/>
	</g>
	<g>
		<path fill="#FAFDFF" d="M135.432,292.316l10.083,18.701c0,0,34.706,40.066,101.408,40.066c66.7,0,114.115-45.561,114.435-56.354
			c-2.224-0.319-24.836,13.561-63.932,22.019C251.223,326.756,187.524,322.816,135.432,292.316z"/>
	</g>
</g>
</svg>
