<?xml version="1.0" encoding="utf-8"?>
<!-- Generator: Adobe Illustrator 16.0.0, SVG Export Plug-In . SVG Version: 6.00 Build 0)  -->
<!DOCTYPE svg PUBLIC "-//W3C//DTD SVG 1.1//EN" "http://www.w3.org/Graphics/SVG/1.1/DTD/svg11.dtd">
<svg version="1.1" id="Layer_1" xmlns="http://www.w3.org/2000/svg" xmlns:xlink="http://www.w3.org/1999/xlink" x="0px" y="0px"
	 width="500px" height="500px" viewBox="0 0 500 500" enable-background="new 0 0 500 500" xml:space="preserve">
<g id="Layer_1_copy_95">
	<g>
		<g>
			<path fill="#764E2A" d="M127.882,269.462c0,0-100.928,2.753-110.846,39.718c-9.914,36.971,72.18,76.271,268.629,70.836
				c196.45-5.43,209.741-59.414,186.16-92.697c-13.3-18.771-96.156-25.072-96.156-25.072l-129.257-2.194L127.882,269.462z"/>
			<path fill="#3C2517" d="M250.005,385.122c-120.338,0-206.847-19.11-231.41-51.136c-6.289-8.197-8.366-17.188-6.003-25.996
				c4.604-17.162,25.692-29.625,62.678-37.041c26.553-5.327,51.435-6.057,52.485-6.088l118.295-9.397
				c0.146-0.015,0.295-0.01,0.443-0.017l129.251,2.197c8.975,0.672,85.694,7.054,99.834,27.014
				c10.378,14.646,12.32,30.258,5.474,43.964c-16.769,33.565-84.292,52.929-195.259,55.993
				C273.611,384.954,261.568,385.122,250.005,385.122z M246.555,264.661l-118.31,9.39c-27.358,0.762-99.36,8.736-106.765,36.324
				c-1.611,6.023-0.13,12.079,4.421,18.01c26.88,35.043,133.392,47.536,224.104,47.536c11.479,0,23.437-0.169,35.538-0.507
				c61.285-1.695,167.115-10.561,187.275-50.907c6.738-13.485,1.135-26.22-4.749-34.526c-8.771-12.383-61.547-20.766-92.75-23.146
				L246.555,264.661z"/>
		</g>
		<g>
			<path fill="#764E2A" d="M385.316,298.979c-4.09-15.013-23.44-61.778-9.65-153.079l-135.019-11.028l-121.845,19.416
				c0,0,17.541,59.433-9.396,152.918c-0.684,1.18-1.055,2.366-1.02,3.565c0.51,15.485,63.082,26.008,139.759,23.506
				c76.688-2.504,138.438-17.082,137.936-32.567C386.051,300.781,385.786,299.874,385.316,298.979z"/>
			<path fill="#3C2517" d="M225.815,339.249L225.815,339.249c-12.396,0-121.126-0.796-122.026-28.325
				c-0.058-1.824,0.389-3.667,1.339-5.482c25.994-90.624,9.43-149.271,9.261-149.854c-0.372-1.271-0.183-2.638,0.522-3.757
				c0.709-1.114,1.86-1.877,3.17-2.085l121.845-19.419c0.362-0.06,0.722-0.072,1.099-0.042l135.015,11.028
				c1.271,0.106,2.444,0.73,3.234,1.731c0.792,1,1.13,2.283,0.943,3.545c-12.209,80.798,1.804,126.015,7.789,145.324
				c0.654,2.103,1.211,3.907,1.633,5.421c0.646,1.379,0.996,2.798,1.042,4.225c0.333,10.35-13.916,18.782-43.562,25.784
				c-26.341,6.218-61.433,10.315-98.82,11.535C240.765,339.123,233.202,339.249,225.815,339.249z M124.476,158.043
				c3.612,16.402,12.219,71.094-10.645,150.438c-0.107,0.361-0.253,0.703-0.439,1.028c-0.267,0.455-0.413,0.865-0.405,1.114
				c0.221,6.561,34.514,19.418,112.829,19.418l0,0c7.288,0,14.747-0.12,22.186-0.364c88.132-2.88,133.746-19.64,133.479-27.819
				c-0.005-0.198-0.085-0.453-0.24-0.744c-0.152-0.293-0.278-0.603-0.362-0.924c-0.416-1.516-0.988-3.363-1.667-5.555
				c-6.048-19.518-20.05-64.708-8.806-144.547l-129.581-10.585L124.476,158.043z"/>
		</g>
		<g>
			<path fill="#603A17" d="M375.666,145.9c0.501,15.487-56.585,29.914-127.515,32.234c-70.929,2.313-128.842-8.362-129.349-23.847
				c-0.506-15.486,56.584-29.913,127.518-32.229C317.252,119.74,375.157,130.419,375.666,145.9z"/>
			<path fill="#3C2517" d="M228.994,183.052c-52.523,0-114.1-7.497-114.788-28.613c-0.78-23.944,78.489-35.234,131.962-36.981
				c6.466-0.211,12.967-0.321,19.318-0.321c52.515,0,114.082,7.496,114.779,28.612c0.771,23.944-78.492,35.234-131.962,36.982
				C241.838,182.946,235.347,183.052,228.994,183.052z M265.486,126.342c-6.256,0-12.65,0.11-19.019,0.316
				c-81.301,2.654-123.332,19.302-123.064,27.478c0.215,6.66,32.335,19.71,105.59,19.71c6.251,0,12.645-0.105,19.01-0.312
				c81.291-2.659,123.325-19.305,123.063-27.485C370.849,139.397,338.732,126.342,265.486,126.342z"/>
		</g>
		<g>
			<path fill="#BE202E" d="M108.388,312.984c0,0,2.23,21.34,128.625,23.869c126.396,2.535,149.069-32.938,149.069-32.938
				l-8.717-31.268c0,0-101.918,43.471-260.41,6.252L108.388,312.984z"/>
			<path fill="#3C2517" d="M249.729,341.586c-0.008,0-0.008,0-0.016,0c-4.137,0-8.412-0.042-12.794-0.13
				c-121.05-2.427-132.488-22.041-133.109-27.997c-0.059-0.535-0.017-1.074,0.115-1.6l8.567-34.082
				c0.612-2.438,3.068-3.942,5.517-3.355c42.219,9.914,84.278,14.938,125.005,14.938c82.298,0,132.061-20.732,132.55-20.942
				c1.224-0.515,2.606-0.485,3.797,0.085c1.193,0.577,2.085,1.639,2.439,2.912l8.715,31.271c0.353,1.258,0.146,2.608-0.556,3.711
				C389.041,307.83,366.134,341.586,249.729,341.586z M113.282,312.393c2.909,3.246,21.639,17.812,123.824,19.856
				c106.274,2.134,137.719-23.091,143.889-29.442l-6.698-24.037c-14.587,5.307-60.88,19.795-131.282,19.795
				c-40.008,0-81.271-4.765-122.697-14.164L113.282,312.393z"/>
		</g>
	</g>
</g>
</svg>
