<?xml version="1.0" encoding="utf-8"?>
<!-- Generator: Adobe Illustrator 16.0.0, SVG Export Plug-In . SVG Version: 6.00 Build 0)  -->
<!DOCTYPE svg PUBLIC "-//W3C//DTD SVG 1.1//EN" "http://www.w3.org/Graphics/SVG/1.1/DTD/svg11.dtd">
<svg version="1.1" id="Layer_1" xmlns="http://www.w3.org/2000/svg" xmlns:xlink="http://www.w3.org/1999/xlink" x="0px" y="0px"
	 width="500px" height="500px" viewBox="0 0 500 500" enable-background="new 0 0 500 500" xml:space="preserve">
<g id="Layer_1_copy_40">
	<g>
		<g>
			<path fill="#ED195C" d="M249.951,131.339c0,0-125.938-114.57-202.143,2.806C-28.403,251.523,250,428.25,250,428.25"/>
			<path fill="#27140E" d="M249.991,435.418c-1.311,0-2.642-0.364-3.833-1.12c-0.48-0.302-48.395-30.854-98.523-74.266
				C79.671,301.18,40.093,247.84,29.985,201.503c-5.748-26.362-1.771-50.338,11.809-71.26
				c21.149-32.571,48.067-51.176,80.003-55.299c66.495-8.588,130.29,48.653,132.975,51.095c2.929,2.662,3.142,7.189,0.479,10.119
				c-2.658,2.931-7.189,3.144-10.121,0.485c-0.611-0.551-61.639-55.237-121.549-47.477c-27.552,3.574-51.025,20.019-69.765,48.881
				c-11.421,17.595-14.729,37.919-9.824,60.404C66.64,302.333,251.971,421.014,253.841,422.2c3.341,2.122,4.327,6.553,2.207,9.892
				C254.688,434.241,252.363,435.418,249.991,435.418z"/>
		</g>
		<g>
			<path fill="#ED195C" d="M250,428.25c0,0,278.403-176.727,202.191-294.105c-76.205-117.376-202.144-2.806-202.144-2.806"/>
			<path fill="#27140E" d="M250.004,435.418c-2.369,0-4.69-1.178-6.056-3.327c-2.121-3.339-1.13-7.77,2.21-9.892
				c1.867-1.187,187.222-119.926,209.849-223.758c4.899-22.481,1.597-42.803-9.823-60.395
				c-18.748-28.879-42.242-45.326-69.814-48.888c-59.969-7.729-120.889,46.928-121.498,47.481
				c-2.934,2.664-7.464,2.446-10.124-0.479c-2.662-2.927-2.446-7.459,0.482-10.123c2.681-2.444,66.44-59.683,132.974-51.095
				c31.937,4.124,58.854,22.728,80.003,55.299c13.581,20.922,17.559,44.898,11.807,71.26
				c-10.104,46.337-49.683,99.676-117.646,158.529c-50.129,43.411-98.053,73.964-98.524,74.266
				C252.646,435.054,251.318,435.418,250.004,435.418z"/>
		</g>
	</g>
</g>
</svg>
