<?xml version="1.0" encoding="utf-8"?>
<!-- Generator: Adobe Illustrator 16.0.0, SVG Export Plug-In . SVG Version: 6.00 Build 0)  -->
<!DOCTYPE svg PUBLIC "-//W3C//DTD SVG 1.1//EN" "http://www.w3.org/Graphics/SVG/1.1/DTD/svg11.dtd">
<svg version="1.1" id="Layer_1" xmlns="http://www.w3.org/2000/svg" xmlns:xlink="http://www.w3.org/1999/xlink" x="0px" y="0px"
	 width="500px" height="500px" viewBox="0 0 500 500" enable-background="new 0 0 500 500" xml:space="preserve">
<g id="Layer_1_copy_48">
	<g>
		<g>
			<path fill="#E0CC9B" d="M156.864,304.436c0,0,5.591,31.696-13.053,45.014c-18.648,13.322-32.145,19.847-21.576,32.648
				c8.522,8.639,50.877,11.573,57.537-8.406c8.257-17.852,22.379-46.082,22.379-46.082"/>
			<path fill="#3C2517" d="M148.074,391.9c-11.797,0-23.471-2.848-28.115-7.553c-3.65-4.396-5.067-8.336-4.524-12.252
				c1.045-7.547,8.966-13.033,19.938-20.636c2.089-1.451,4.294-2.981,6.579-4.61c16.811-12.01,11.817-41.566,11.763-41.859
				c-0.308-1.74,0.852-3.398,2.592-3.701c1.738-0.321,3.394,0.848,3.708,2.587c0.24,1.381,5.711,33.849-14.349,48.176
				c-2.306,1.65-4.54,3.199-6.657,4.665c-9.264,6.422-16.582,11.494-17.24,16.258c-0.284,2.041,0.678,4.361,2.932,7.09
				c3.828,3.867,21.182,7.547,36,4.107c6.038-1.402,13.721-4.538,16.038-11.492c0.038-0.113,0.083-0.216,0.131-0.326
				c8.185-17.692,22.277-45.893,22.421-46.174c0.785-1.576,2.706-2.219,4.287-1.43c1.58,0.79,2.218,2.709,1.433,4.287
				c-0.144,0.283-14.11,28.23-22.267,45.843c-2.623,7.634-9.742,13.001-20.596,15.521C157.754,391.422,152.9,391.9,148.074,391.9z"
				/>
		</g>
		<g>
			<path fill="#EFCCB2" d="M153.934,388.727c0,0,0.267-16.894-9.321-19.432c-9.591-2.527-8.032,18.466-8.032,18.466
				s3.765-22.541-9.283-20.97c-13.055,1.57-7.866,10.928-7.866,10.928S122.498,391.239,153.934,388.727z"/>
			<path fill="#3C2517" d="M146.507,392.236L146.507,392.236c-24.108,0-29.177-10.76-30.039-13.297
				c-0.614-1.244-2.32-5.385-0.288-9.371c1.685-3.295,5.293-5.289,10.734-5.951c0.573-0.062,1.119-0.096,1.643-0.096
				c2.552,0,6.31,0.789,8.878,4.824c1.771-1.906,3.844-2.457,5.646-2.457c0.755,0,1.549,0.104,2.347,0.32
				c11.868,3.134,11.713,21.775,11.701,22.562c-0.023,1.651-1.297,3.01-2.939,3.145
				C151.516,392.124,148.933,392.236,146.507,392.236z M140.069,385.537c1.931,0.197,4.069,0.302,6.438,0.302l0,0
				c1.308,0,2.669-0.03,4.068-0.104c-0.402-4.322-1.811-12.035-6.784-13.344c-0.264-0.072-0.504-0.111-0.711-0.111
				c-1.435,0-2.428,2.879-2.91,5.703C140.386,380.846,140.245,383.598,140.069,385.537z M128.557,369.91
				c-0.279,0-0.571,0.023-0.878,0.057c-3.09,0.375-5.148,1.26-5.794,2.497c-0.659,1.252,0.055,3.158,0.357,3.731
				c0.133,0.248,0.244,0.544,0.309,0.813c0.003,0.009,1.515,4.785,10.739,7.306c0.008-1.85,0.108-4.195,0.447-6.547
				C132.959,369.91,129.653,369.91,128.557,369.91z"/>
		</g>
		<g>
			<path fill="#3C2517" d="M292.984,361.814c-1.008,0-2.002-0.479-2.623-1.373c-0.393-0.558-9.521-13.824-6.406-26.658
				c1.568-6.434,5.848-11.534,12.73-15.155c1.561-0.821,3.498-0.226,4.319,1.341c0.821,1.563,0.219,3.494-1.34,4.315
				c-5.265,2.768-8.368,6.373-9.492,11.011c-2.446,10.059,5.349,21.374,5.433,21.494c1.004,1.443,0.653,3.438-0.795,4.451
				C294.258,361.623,293.616,361.814,292.984,361.814z"/>
		</g>
		<g>
			<path fill="#F2E1B1" d="M294.999,360.139c0,0-22.263,23.65-69.944,16.455c0,0-31.965-1.596-53.542-38.355
				c-13.583-19.446-13.316-33.564-33.564-60.736c-8.79,7.729-25.572,8.527-42.083,2.668c0,0-21.046-12.786-34.1-11.189
				c-1.36-2.026,13.054-7.453,14.92-12.787c1.863-5.327-27.973,17.852-46.087,0c-18.115-17.847-6.393-24.91,8.79-22.042
				c15.188,2.863,30.904-23.51,34.629-34.163c3.729-10.657,10.242-33.728,28.033-34.047c17.787-0.315,22.051-7.243,22.051-7.243
				l55.141-6.393l79.646,55.14l110.549,99.896L294.999,360.139z"/>
			<path fill="#3C2517" d="M242.618,381.157c-5.822,0-11.893-0.472-18.039-1.396c-1.062-0.041-33.624-2.091-55.817-39.908
				c-5.995-8.56-9.368-16.231-12.938-24.353c-4.288-9.771-8.724-19.851-18.537-33.497c-5.241,3.414-12.192,5.209-20.345,5.209
				c-7.063,0-14.721-1.396-22.146-4.033c-0.207-0.07-0.407-0.162-0.593-0.277c-0.188-0.114-20.098-12.213-32.046-10.748
				c-1.213,0.176-2.378-0.391-3.047-1.393c-0.571-0.849-0.762-1.873-0.543-2.889c0.314-1.459,1.396-2.58,3.159-3.827
				c-4.192,1.257-8.874,2.216-13.62,2.216c-7.856,0-14.5-2.619-19.75-7.791c-8.555-8.429-11.732-15.534-9.439-21.115
				c1.822-4.466,7.012-7.023,14.23-7.023c2.169,0,4.466,0.231,6.836,0.674c11.836,2.229,27-20.586,31.021-32.08l0.824-2.402
				c3.979-11.689,11.387-33.445,30.166-33.784c15.371-0.271,19.4-5.743,19.436-5.799c0.525-0.742,1.399-1.316,2.305-1.416
				l55.141-6.393c0.778-0.108,1.548,0.1,2.186,0.542l79.647,55.14c0.111,0.08,0.219,0.163,0.323,0.256l110.55,99.896
				c0.718,0.65,1.104,1.592,1.044,2.557c-0.055,0.971-0.547,1.858-1.34,2.422l-74.201,52.634
				C294.768,364.9,277.314,381.157,242.618,381.157z M137.948,274.307c0.112,0,0.227,0.006,0.339,0.018
				c0.886,0.091,1.694,0.555,2.23,1.269c11.593,15.564,16.674,27.132,21.16,37.339c3.438,7.827,6.688,15.217,12.456,23.478
				c20.511,34.923,49.851,36.925,51.088,36.996c6.146,0.909,11.889,1.354,17.396,1.354c33.637,0,49.9-16.646,50.06-16.812
				c0.144-0.15,0.304-0.296,0.472-0.406l71.188-50.5l-107.438-97.084l-78.485-54.335l-52.677,6.106
				c-2.328,2.437-8.738,7.146-23.63,7.41c-14.286,0.255-20.508,18.529-24.229,29.449l-0.841,2.461
				c-3.274,9.36-18.33,36.516-35.319,36.516c-0.982,0-1.966-0.087-2.92-0.271c-6.848-1.292-12.886-0.16-13.971,2.489
				c-0.423,1.045-1.112,5.145,8.017,14.142c4.064,4.005,9.058,5.95,15.263,5.95c8.184,0,16.34-3.396,21.74-5.645
				c3.404-1.418,4.969-2.039,6.392-2.039c1.266,0,2.387,0.545,3.068,1.511c0.411,0.579,1.004,1.805,0.394,3.554
				c-1.24,3.549-5.436,6.439-9.526,9c11.869,2.198,24.874,9.713,27.056,11.012c6.656,2.326,13.464,3.558,19.713,3.558
				c7.993,0,14.709-2.032,18.896-5.718C136.425,274.586,137.18,274.307,137.948,274.307z"/>
		</g>
		<g>
			<path fill="#3C2517" d="M143.28,189.068c-0.274,0-0.553-0.036-0.833-0.112c-1.704-0.458-2.712-2.213-2.258-3.92
				c0.639-2.357,1.081-5.587-0.411-7.574c-1.639-2.169-5.013-2.249-5.049-2.249c-1.754-0.028-3.174-1.468-3.162-3.223
				c0.016-1.754,1.433-3.17,3.187-3.17l0,0c0.662,0,6.556,0.135,10.078,4.73c2.492,3.254,3.007,7.677,1.532,13.152
				C145.981,188.126,144.692,189.068,143.28,189.068z"/>
		</g>
		<g>
			<path fill="#C7B57B" d="M39.389,234.15c0,0-9.724-2.505-14.849,1.38c-5.129,3.885-2.995,11.565,2.81,17.208
				C33.15,258.382,43.651,242.74,39.389,234.15z"/>
			<path fill="#3C2517" d="M30.148,257.134L30.148,257.134c-1.876,0-3.617-0.726-5.029-2.104c-4.451-4.324-6.939-9.667-6.652-14.294
				c0.19-3.167,1.626-5.847,4.144-7.757c2.474-1.866,5.862-2.819,10.085-2.819c3.968,0,7.351,0.86,7.491,0.896
				c0.9,0.232,1.655,0.846,2.065,1.675c2.828,5.7,0.63,12.875-2.102,17.285C37.338,254.542,33.697,257.134,30.148,257.134z
				 M32.695,236.551c-2.755,0-4.908,0.53-6.225,1.528c-1.013,0.766-1.542,1.767-1.623,3.055c-0.167,2.739,1.643,6.31,4.729,9.312
				c0.305,0.296,0.475,0.296,0.571,0.296c0.785,0,2.716-1.114,4.565-4.095c2.022-3.26,2.868-7.024,2.278-9.72
				C35.898,236.742,34.347,236.551,32.695,236.551z"/>
		</g>
		<g>
			<path fill="#F2E1B1" d="M311.814,369.854c0,0,2.741,11.806-9.506,12.068c-12.254,0.271-31.842,4.102-20.516,25.037
				c8.79,16.249,55.68,7.195,55.68,7.195s17.452,0.59,34.829-36.195"/>
			<path fill="#3C2517" d="M311.092,419.93c-13.192,0-27.191-2.354-32.107-11.445c-4.293-7.938-4.942-14.58-1.928-19.758
				c4.6-7.912,16.231-9.804,25.186-9.994c2.625-0.063,4.471-0.75,5.479-2.059c1.765-2.266,0.985-6.062,0.979-6.094
				c-0.401-1.723,0.67-3.438,2.39-3.837c1.71-0.423,3.434,0.661,3.837,2.385c0.158,0.687,1.455,6.828-2.15,11.472
				c-2.252,2.895-5.75,4.418-10.396,4.521c-10.189,0.215-17.404,2.704-19.799,6.818c-1.814,3.119-1.131,7.666,2.027,13.504
				c5.586,10.322,35.016,8.895,52.261,5.576c0.236-0.049,0.479-0.08,0.715-0.057c0.096-0.008,15.812-0.454,31.83-34.369
				c0.752-1.597,2.658-2.289,4.254-1.531c1.599,0.756,2.277,2.664,1.527,4.26c-16.754,35.47-34.286,37.879-37.378,38.023
				C334.861,417.904,323.323,419.93,311.092,419.93z"/>
		</g>
		<g>
			<path fill="#EFCCB2" d="M316.708,416.525c0,0,1.578-22.08-10.941-20.213c-12.514,1.857-9.268,19.143-9.268,19.143
				s1.547-22.612-13.349-28.715c-9.229,1.636-6.7,22.422,4.639,25.797C302.841,419.212,316.708,416.525,316.708,416.525z"/>
			<path fill="#3C2517" d="M309.54,420.256L309.54,420.256c-5.544,0-13.998-0.82-22.867-4.721
				c-8.3-2.609-12.774-12.516-12.312-20.676c0.354-6.207,3.431-10.418,8.229-11.271c0.604-0.104,1.211-0.039,1.771,0.192
				c5.711,2.337,10.018,7.098,12.605,13.773c2.062-2.385,4.869-3.893,8.331-4.41c3.98-0.599,7.21,0.573,9.676,3.223
				c5.76,6.182,5.025,18.943,4.921,20.379c-0.103,1.443-1.156,2.64-2.575,2.913C317.189,419.684,314.199,420.256,309.54,420.256z
				 M299.732,412.926c6.066,1.165,11.016,1.014,13.839,0.768c-0.06-3.965-0.705-10.211-3.282-12.979
				c-1.052-1.124-2.325-1.507-4.051-1.243c-1.48,0.223-5.958,0.885-6.796,8.732C299.643,410.04,299.714,411.667,299.732,412.926z
				 M282.938,390.154c-1.813,0.988-2.138,4.061-2.196,5.063c-0.322,5.648,2.8,12.716,7.957,14.255
				c0.132,0.041,0.259,0.088,0.387,0.145c1.292,0.574,2.576,1.068,3.84,1.508c-0.012-0.893,0.013-1.852,0.093-2.855
				C292.229,401.768,289.818,393.607,282.938,390.154z"/>
		</g>
		<g>
			<path fill="#F2E1B1" d="M184.566,315.596c0,0,5.596,31.698-13.054,45.014c-18.646,13.32-32.146,19.854-21.576,32.656
				c8.523,8.639,50.879,11.563,57.538-8.408c8.259-17.852,22.374-46.086,22.374-46.086"/>
			<path fill="#3C2517" d="M175.776,403.068c-11.797,0-23.466-2.856-28.113-7.562c-3.645-4.395-5.061-8.336-4.526-12.244
				c1.046-7.545,8.97-13.041,19.937-20.643c2.095-1.451,4.301-2.977,6.585-4.61c16.81-12.007,11.813-41.563,11.761-41.858
				c-0.302-1.737,0.854-3.395,2.593-3.7c1.73-0.326,3.398,0.85,3.702,2.59c0.242,1.379,5.714,33.847-14.339,48.17
				c-2.313,1.651-4.542,3.198-6.66,4.667c-9.269,6.42-16.587,11.494-17.241,16.255c-0.283,2.042,0.676,4.363,2.928,7.101
				c3.834,3.859,21.185,7.545,36.006,4.107c6.037-1.404,13.715-4.539,16.036-11.494c0.036-0.111,0.08-0.224,0.133-0.336
				c8.184-17.684,22.276-45.885,22.417-46.169c0.789-1.579,2.703-2.218,4.286-1.427c1.581,0.789,2.223,2.707,1.429,4.286
				c-0.136,0.282-14.105,28.235-22.258,45.838c-2.625,7.634-9.743,13.003-20.596,15.522
				C185.456,402.59,180.606,403.068,175.776,403.068z"/>
		</g>
		<g>
			<path fill="#EFCCB2" d="M181.636,399.893c0,0,0.267-16.901-9.324-19.43c-9.588-2.537-8.029,18.465-8.029,18.465
				s3.773-22.541-9.284-20.969c-13.054,1.57-7.857,10.928-7.857,10.928S150.204,402.406,181.636,399.893z"/>
			<path fill="#3C2517" d="M174.213,403.395h-0.005c-24.106,0-29.181-10.76-30.037-13.289c-0.614-1.252-2.318-5.392-0.284-9.371
				c1.679-3.295,5.297-5.295,10.732-5.95c0.57-0.071,1.116-0.104,1.643-0.104c2.549,0,6.306,0.797,8.877,4.834
				c1.772-1.906,3.842-2.466,5.645-2.466c0.762,0,1.547,0.112,2.344,0.319c11.878,3.136,11.719,21.775,11.707,22.572
				c-0.029,1.645-1.306,3.008-2.943,3.136C179.223,403.292,176.639,403.395,174.213,403.395z M167.772,396.703
				c1.93,0.191,4.072,0.303,6.436,0.303h0.005c1.309,0,2.668-0.029,4.067-0.104c-0.397-4.323-1.818-12.035-6.783-13.353
				c-0.263-0.063-0.507-0.104-0.714-0.104c-1.432,0-2.429,2.881-2.903,5.697C168.091,392.004,167.952,394.757,167.772,396.703z
				 M156.262,381.078c-0.281,0-0.574,0.015-0.881,0.055c-3.092,0.367-5.146,1.252-5.795,2.489c-0.653,1.26,0.057,3.166,0.363,3.731
				c0.131,0.258,0.242,0.543,0.308,0.822c0.004,0.008,1.511,4.778,10.734,7.307c0.012-1.857,0.113-4.203,0.452-6.558
				C160.662,381.078,157.358,381.078,156.262,381.078z"/>
		</g>
		<g>
			<path fill="#FFFFFF" d="M97.46,215.705c0,0-4.527-9.859-13.315,3.194c-8.79,13.053-0.878,22.067,9.324,17.847
				C101.188,233.552,103.322,226.625,97.46,215.705z"/>
			<path fill="#3C2517" d="M88.555,240.995h-0.004c-4.355,0-8.096-2.143-10.007-5.731c-2.599-4.89-1.527-11.506,2.947-18.146
				c3.705-5.503,7.34-8.18,11.115-8.18c4.156,0,6.836,3.414,7.757,5.432c3.534,6.573,4.526,12.368,2.86,17.038
				c-1.325,3.709-4.196,6.497-8.535,8.295C92.618,240.559,90.548,240.995,88.555,240.995z M92.606,215.33
				c-0.371,0-2.38,0.263-5.811,5.356c-3.066,4.551-4.039,8.878-2.607,11.573c0.804,1.508,2.353,2.342,4.362,2.342h0.004
				c1.153,0,2.397-0.276,3.689-0.806c2.636-1.093,4.254-2.576,4.956-4.539c1.021-2.86,0.138-7.023-2.557-12.041
				C94.395,216.701,93.536,215.33,92.606,215.33z"/>
		</g>
		<g>
			<path fill="#C7B57B" d="M101.188,166.821l28.771-29.568c0,0,4.263,13.185,2.664,14.785c0,0,16.512-25.573,28.897-25.174
				c-2.309,12.958-9.188,19.977-9.188,19.977s35.562-25.568,41.955-25.568c6.394,0-14.385,17.181-14.385,17.181l60.334-28.858
				L227.05,128.72l50.745-11.164l-19.577,12.906l66.727-11.187l-26.37,14.784c0,0,48.748-6.792,53.542,0
				c-7.578,6.11-29.569,9.588-29.569,9.588l47.549,3.597l-16.38,9.588l73.118,25.975l-26.769,4.57l55.54,21.401l-21.575,3.194
				c0,0,40.754,25.173,40.354,27.974c-0.401,2.794-38.358-8.795-38.358-8.795l33.163,37.561h-22.776
				c0,0,23.176,25.173,23.176,29.171c0,3.996-34.362,0-34.362,0s15.581,17.182,17.982,25.572c2.396,8.391-19.98,0-19.98,0
				l13.588,20.777l-21.178-2.396l13.186,15.186h-29.967l-1.601,10.386l-25.972-5.99c0,0,5.994,21.312-29.567,18.849
				c-35.562-2.474-58.739-21.647-58.739-21.647s-22.373,2.401-33.562-21.181c-11.187-23.572-48.345-76.312-102.289-65.929
				c44.353-53.94-13.982-68.325-13.982-68.325s28.367-19.977,4.395-37.96c-23.176-11.984-24.774,11.59-24.774,11.59
				S121.166,159.631,101.188,166.821z"/>
			<path fill="#3C2517" d="M357.188,383.652c-1.771,0-3.665-0.062-5.69-0.198c-32.441-2.257-54.614-17.812-59.544-21.584
				c-0.221,0.008-0.463,0.008-0.727,0.008c-5.572,0-24.535-1.659-34.697-23.067c-2.527-5.338-12.167-24.043-29.938-40.736
				c-21.349-20.068-44.751-28.073-68.855-23.424c-1.328,0.24-2.665-0.351-3.351-1.506c-0.69-1.162-0.578-2.625,0.278-3.662
				c13.481-16.398,18.438-30.409,14.729-41.632c-5.284-15.977-26.796-21.508-27.015-21.564c-1.214-0.303-2.135-1.281-2.366-2.512
				c-0.231-1.225,0.271-2.477,1.293-3.203c0.123-0.087,12.523-8.985,12.662-19.199c0.068-4.753-2.668-9.269-8.131-13.428
				c-3.802-1.938-7.128-2.919-9.895-2.919c-8.99,0-9.947,11.522-9.984,12.016c-0.122,1.655-1.495,2.947-3.158,2.967
				c-0.007,0-0.02,0-0.031,0c-1.647,0-3.028-1.252-3.183-2.899c-0.092-0.89-1.173-8.846-9.585-8.846
				c-2.229,0-4.832,0.526-7.725,1.567c-1.403,0.499-2.963-0.024-3.769-1.272c-0.805-1.257-0.642-2.899,0.392-3.964l28.77-29.569
				c0.782-0.801,1.924-1.136,3.023-0.881c1.09,0.255,1.966,1.061,2.313,2.129c0.833,2.577,1.499,4.885,1.999,6.923
				c6.356-8.271,16.75-19.53,26.234-19.53c0.035,0,0.358,0.004,0.394,0.009c0.925,0.027,1.795,0.458,2.377,1.181
				c0.587,0.721,0.83,1.659,0.662,2.571c-0.562,3.151-1.371,5.979-2.3,8.464c12.083-8.264,27.078-17.815,31.92-17.815
				c2.995,0,3.956,2.034,4.184,2.652c0.355,0.993,0.881,2.461-1.993,6.253l42.378-20.272c1.312-0.622,2.876-0.287,3.816,0.813
				c0.938,1.097,1.022,2.697,0.199,3.889l-8.583,12.443l42.821-9.42c1.527-0.343,3.035,0.463,3.63,1.878
				c0.598,1.416,0.104,3.063-1.185,3.913l-6.955,4.586l51.817-8.69c1.512-0.259,3.023,0.622,3.541,2.094
				c0.515,1.464-0.096,3.091-1.451,3.848l-12.511,7.011c6.915-0.65,15.031-1.232,22.105-1.232c13.691,0,17.099,2.213,18.627,4.371
				c0.973,1.38,0.703,3.278-0.607,4.334c-2.668,2.154-6.752,3.964-11.091,5.444l27.308,2.066c1.396,0.104,2.56,1.105,2.874,2.465
				c0.317,1.364-0.294,2.771-1.503,3.478l-10.449,6.122l66.646,23.67c1.368,0.487,2.237,1.838,2.114,3.291
				c-0.129,1.452-1.214,2.628-2.649,2.872l-15.312,2.616l44.695,17.225c1.353,0.519,2.186,1.895,2.028,3.334
				c-0.159,1.444-1.275,2.6-2.711,2.812l-12.962,1.918c35.085,21.986,34.745,24.396,34.438,26.537
				c-0.103,0.747-0.744,3.178-4.506,3.178c-4.547,0-17.672-3.485-27.275-6.221l25.819,29.242c0.83,0.945,1.032,2.284,0.515,3.434
				c-0.515,1.145-1.654,1.883-2.91,1.883h-15.546c12.71,14.138,19.144,22.867,19.144,25.972c0,4.974-7.287,4.974-12.107,4.974
				c-5.561,0-12.5-0.513-17.787-0.985c4.952,5.985,11.736,14.911,13.392,20.707c0.734,2.575-0.009,4.306-0.761,5.304
				c-1.266,1.684-3.371,2.501-6.431,2.501c-2.483,0-5.522-0.565-8.344-1.269l8.739,13.369c0.678,1.035,0.697,2.367,0.047,3.426
				c-0.648,1.057-1.858,1.662-3.078,1.499l-13.024-1.476l7.804,8.989c0.822,0.942,1.013,2.283,0.496,3.423
				c-0.521,1.141-1.656,1.866-2.908,1.866h-27.225l-1.185,7.683c-0.135,0.877-0.63,1.657-1.363,2.16
				c-0.732,0.504-1.646,0.663-2.513,0.471l-21.7-5.008c-0.11,2.729-0.851,6.204-3.29,9.428
				C377.167,380.725,368.972,383.652,357.188,383.652z M292.969,355.417c0.743,0,1.473,0.263,2.047,0.733
				c0.228,0.185,22.889,18.562,56.924,20.922c1.87,0.129,3.613,0.191,5.247,0.191c9.54,0,16.205-2.137,19.265-6.182
				c3.003-3.965,1.771-8.758,1.759-8.807c-0.308-1.084-0.017-2.258,0.765-3.069c0.778-0.821,1.943-1.149,3.032-0.91l22.616,5.216
				l1.078-6.979c0.237-1.564,1.578-2.713,3.158-2.713h22.96l-8.592-9.893c-0.865-0.992-1.032-2.418-0.413-3.585
				c0.608-1.165,1.889-1.832,3.186-1.688l14.423,1.637l-9.868-15.092c-0.755-1.153-0.683-2.664,0.185-3.745
				c0.864-1.085,2.329-1.476,3.612-0.997c2.62,0.98,10.373,3.529,14.744,3.529c0.367,0,0.658-0.02,0.887-0.049
				c-2.373-6.764-13.062-19.434-17.122-23.912c-0.894-0.985-1.084-2.426-0.475-3.605c0.613-1.184,1.918-1.874,3.214-1.714
				c0.151,0.015,15.211,1.754,25.083,1.754c2.157,0,3.648-0.084,4.672-0.188c-3.21-4.908-12.717-16.088-21.287-25.396
				c-0.86-0.935-1.085-2.285-0.578-3.449c0.515-1.166,1.663-1.911,2.928-1.911h15.688l-28.476-32.249
				c-0.945-1.069-1.062-2.644-0.288-3.844c0.774-1.205,2.258-1.739,3.622-1.328c8.088,2.468,19.617,5.755,27.67,7.626
				c-7.657-5.429-20.372-13.668-32.28-21.03c-1.145-0.706-1.728-2.046-1.45-3.366c0.271-1.312,1.331-2.317,2.657-2.513l9.568-1.419
				l-44.212-17.038c-1.34-0.515-2.174-1.867-2.03-3.294c0.144-1.436,1.225-2.597,2.646-2.836l14.688-2.508l-61.574-21.871
				c-1.167-0.419-1.992-1.476-2.108-2.713c-0.119-1.24,0.494-2.432,1.565-3.058l7.542-4.419l-37.333-2.823
				c-1.619-0.12-2.888-1.436-2.956-3.055c-0.062-1.62,1.094-3.035,2.696-3.286c4.472-0.714,15.084-2.86,22.405-5.855
				c-1.966-0.231-4.662-0.402-8.353-0.402c-15.452,0-36.872,2.959-37.09,2.987c-1.495,0.223-2.979-0.69-3.466-2.142
				c-0.492-1.46,0.124-3.059,1.467-3.809l10.355-5.811l-48.625,8.156c-1.473,0.25-2.95-0.579-3.501-1.982
				c-0.556-1.408-0.048-3.011,1.212-3.841l5.174-3.411l-33.893,7.455c-1.284,0.283-2.604-0.248-3.338-1.34
				c-0.73-1.089-0.727-2.513,0.024-3.598l6.373-9.245l-49.514,23.682c-1.457,0.69-3.203,0.195-4.072-1.164
				c-0.869-1.36-0.586-3.151,0.659-4.184c3.125-2.583,6.472-5.576,9.168-8.195c-8.183,4.638-21.386,13.408-32.839,21.644
				c-1.34,0.974-3.211,0.75-4.287-0.511c-1.081-1.26-1.021-3.138,0.141-4.319c0.048-0.052,4.554-4.802,7.17-13.48
				c-7.813,3.613-17.238,15.578-21.763,22.414l0,0c-0.181,0.287-0.403,0.583-0.576,0.758c-1.156,1.156-2.994,1.256-4.271,0.228
				c-1.244-1.005-1.549-2.764-0.734-4.128c0.028-0.818-0.555-3.645-1.443-6.995l-17.972,18.469
				c5.557,0.128,9.306,2.513,11.718,5.492c2.406-4.639,6.686-8.734,13.757-8.734c3.856,0,8.255,1.264,13.067,3.756
				c0.16,0.08,0.312,0.175,0.451,0.279c7.339,5.504,11.004,11.833,10.9,18.821c-0.129,8.734-6.293,16.18-10.785,20.459
				c7.785,3.027,21.31,10.106,25.872,23.862c3.948,11.884,0.243,25.807-11.008,41.453c2.187-0.19,4.368-0.286,6.525-0.286
				c46.227,0,79.165,43.432,91.342,69.096c8.318,17.529,22.999,19.418,28.922,19.418c0.842,0,1.348-0.047,1.428-0.055
				C292.757,355.424,292.861,355.417,292.969,355.417z"/>
		</g>
		<g>
			<path fill="#3C2517" d="M317.751,317.061c-0.543,0-1.092-0.14-1.595-0.428l-42.307-24.406l8.569,16.144
				c0.69,1.3,0.399,2.903-0.696,3.887c-1.109,0.979-2.74,1.075-3.94,0.242l-40.557-27.97c-1.451-1.002-1.818-2.991-0.812-4.443
				c0.997-1.451,2.992-1.816,4.442-0.82l29.784,20.543l-7.649-14.414c-0.671-1.254-0.427-2.807,0.604-3.801
				c1.025-0.988,2.58-1.176,3.815-0.467l34.19,19.727l-24.368-26.793c-0.969-1.063-1.104-2.645-0.334-3.86
				c0.766-1.22,2.262-1.778,3.633-1.349l28.611,8.738l-23.643-24.224c-0.896-0.921-1.156-2.289-0.658-3.474
				c0.499-1.184,1.66-1.958,2.948-1.958h25.014l-16.966-18.199c-0.75-0.805-1.033-1.938-0.75-3.006
				c0.288-1.062,1.098-1.902,2.148-2.23l17.189-5.272l-18.625-20.698c-0.568-0.635-0.865-1.472-0.814-2.329
				c0.049-0.854,0.44-1.651,1.086-2.213l7.81-6.832l-37.05-6.8c-1.328-0.244-2.361-1.296-2.577-2.632
				c-0.214-1.336,0.437-2.661,1.616-3.311l23.378-12.83l-50.459-3.956c-1.757-0.14-3.07-1.684-2.935-3.438
				c0.14-1.762,1.691-3.075,3.434-2.939l61.135,4.793c1.407,0.116,2.581,1.137,2.876,2.517c0.295,1.379-0.348,2.795-1.583,3.474
				l-24.887,13.659l34.709,6.369c1.209,0.215,2.183,1.109,2.505,2.293c0.327,1.185-0.053,2.449-0.977,3.254l-10.348,9.054
				l19.812,22.007c0.729,0.813,0.992,1.942,0.704,2.991c-0.29,1.057-1.101,1.886-2.141,2.205l-17.099,5.249l18.493,19.841
				c0.871,0.929,1.104,2.287,0.596,3.454c-0.512,1.165-1.66,1.919-2.933,1.919h-24.777l27.066,27.738
				c1.021,1.043,1.199,2.646,0.442,3.896c-0.766,1.249-2.271,1.827-3.665,1.392l-29.43-8.987l30.331,33.35
				c1.058,1.164,1.112,2.929,0.123,4.154C319.618,316.646,318.692,317.061,317.751,317.061z"/>
		</g>
		<g>
			<ellipse fill="#3C2517" cx="86.91" cy="229.955" rx="6.559" ry="6.792"/>
		</g>
	</g>
</g>
</svg>
