<?xml version="1.0" encoding="utf-8"?>
<!-- Generator: Adobe Illustrator 16.0.0, SVG Export Plug-In . SVG Version: 6.00 Build 0)  -->
<!DOCTYPE svg PUBLIC "-//W3C//DTD SVG 1.1//EN" "http://www.w3.org/Graphics/SVG/1.1/DTD/svg11.dtd">
<svg version="1.1" id="Layer_1" xmlns="http://www.w3.org/2000/svg" xmlns:xlink="http://www.w3.org/1999/xlink" x="0px" y="0px"
	 width="500px" height="500px" viewBox="0 0 500 500" enable-background="new 0 0 500 500" xml:space="preserve">
<g id="Layer_1_copy_65">
	<g>
		<g>
			<path fill="#F4BE78" d="M226.869,198.571c0,0,6.333,26.66-7.282,31.812c-7.398,2.801,17.724,47.083,17.724,47.083l26.673,1.878
				l25.338-24.738l-1.553-22.94c0,0-14.066-14.923-5.658-34.713c8.408-19.793-33.197-29.346-33.197-29.346L226.869,198.571z"/>
		</g>
		<g>
			<path fill="#3C2415" d="M263.982,282.415c-0.071,0-0.145-0.004-0.215-0.011l-26.672-1.873c-1.024-0.071-1.949-0.653-2.456-1.549
				c-20.717-36.521-19.826-46.296-19.055-48.423c0.528-1.451,1.562-2.534,2.917-3.048c9.072-3.431,6.961-21.542,5.381-28.233
				c-0.204-0.859-0.025-1.767,0.488-2.485l22.04-30.969c0.723-1.008,1.978-1.486,3.188-1.21c1.143,0.26,28.029,6.574,34.996,20.235
				c2.17,4.255,2.284,8.734,0.342,13.304c-7.486,17.629,4.558,30.855,5.073,31.412c0.479,0.517,0.774,1.187,0.821,1.893
				l1.551,22.942c0.062,0.896-0.271,1.773-0.917,2.402l-25.335,24.736C265.555,282.102,264.783,282.415,263.982,282.415z
				 M239.175,274.52l23.649,1.662l23.339-22.785l-1.39-20.499c-3.035-3.676-13.496-18.304-5.489-37.146
				c1.216-2.863,1.163-5.514-0.16-8.109c-4.312-8.461-20.817-14.384-28.923-16.554l-20.043,28.162
				c1.158,5.861,4.554,28.006-8.888,33.764C220.569,237.588,229.644,257.516,239.175,274.52z"/>
		</g>
	</g>
	<g>
		<g>
			<path fill="#F4BE78" d="M182.274,155.255c6.261,28.664,35.604,50.352,70.86,50.352c34.355,0,60.853-18.833,68.097-46.402
				l0.494-4.288c-0.074,0.095,18.406,6.262,22.023-9.67c3.721-16.41-9.362-20.707-9.362-20.707l-3.178-4.699l-53.224-68.834
				l-70.116,15.609l-40.427,63.459c0,0-11.785-1.09-7.544,16.338c4.099,16.826,22.308,8.597,22.235,8.502"/>
		</g>
		<g>
			<path fill="#3C2415" d="M253.135,208.678c-34.892,0-65.067-20.713-73.099-49.688c-3.116,0.878-7.101,1.327-10.079,0.905
				c-4.694-0.664-10.769-3.418-13.038-12.754c-1.809-7.422-1.177-12.981,1.877-16.517c2.043-2.368,4.805-3.298,6.922-3.555
				l39.563-62.102c0.438-0.684,1.132-1.168,1.922-1.347l70.113-15.609c1.16-0.255,2.369,0.179,3.099,1.121l53.224,68.834
				l2.747,4.048c5.503,2.329,13.579,9.707,10.356,23.915c-1.673,7.374-6.591,12.02-13.848,13.076
				c-1.923,0.28-5.473,0.273-8.525-0.231l-0.088,0.787c-0.02,0.143-0.046,0.287-0.081,0.426
				C316.429,189.565,288.529,208.678,253.135,208.678z M182.277,152.182c1.411,0,2.68,0.982,2.996,2.417
				c6.069,27.778,34.608,47.938,67.861,47.938c32.437,0,57.951-17.224,65.07-43.905l0.469-4.066
				c0.173-1.463,1.356-2.602,2.827-2.709c0.521-0.042,1.043,0.059,1.499,0.271c1.604,0.562,8.256,2.072,12.866-0.42
				c2.506-1.35,4.104-3.686,4.887-7.139c3.068-13.528-6.898-16.97-7.321-17.109c-0.649-0.212-1.207-0.634-1.588-1.197l-3.178-4.697
				l-51.917-67.134l-66.971,14.909l-39.748,62.391c-0.617,0.969-1.73,1.509-2.871,1.405c-0.065-0.003-2.342-0.134-3.747,1.542
				c-1.604,1.909-1.792,5.819-0.527,11.01c0.911,3.737,2.605,6.138,5.182,7.338c4.66,2.17,11.219-0.111,12.592-0.791l0.156,0.315
				c0.249-0.133,0.517-0.229,0.803-0.296C181.839,152.207,182.059,152.182,182.277,152.182z"/>
		</g>
	</g>
	<g>
		<circle fill="#25111A" cx="221.742" cy="135.622" r="8.187"/>
	</g>
	<g>
		<circle fill="#25111A" cx="282.663" cy="135.622" r="8.188"/>
	</g>
	<g>
		<path fill="#3C2415" d="M250.73,185.89c-21.315,0-28.279-18.065-28.349-18.251c-0.592-1.591,0.222-3.356,1.81-3.949
			c1.583-0.595,3.356,0.218,3.949,1.809c0.217,0.573,5.633,14.25,22.6,14.25c0.058,0,0.116,0,0.179,0l3.285-0.01
			c16.016-0.562,21.211-13.682,21.423-14.241c0.604-1.581,2.374-2.38,3.955-1.782c1.58,0.595,2.387,2.352,1.795,3.936
			c-0.263,0.715-6.745,17.516-27.06,18.229l-3.373,0.01C250.874,185.89,250.799,185.89,250.73,185.89z"/>
	</g>
	<g>
		<path fill="#4C230D" d="M336.395,72.587c-19.021-46.049-56.431-56.559-85.565-50.442l-0.104,0.134
			c-28.942-5.549-65.542,5.302-84.292,50.685c-6.31,15.27-13.579,53.472-0.022,58.729c0.02,0.058,0.039,0.12,0.053,0.156
			c0.257,0.048,0.511,0.065,0.767,0.107c0.118,0.032,0.223,0.081,0.343,0.107c0.349,0.081,0.738,0.114,1.147,0.104
			c37.459,4.869,71.476-43.383,71.476-43.383l-6.629,31.33c0,0,18.963-2.62,31.622-45.863c7.424,24.054,17.53,38.297,17.53,38.297
			s-2.762-15.704,0.925-24.233c2.844,1.946,23.845,30.787,39.176,37.99c5.027,3.845,9.716,6.011,12.438,5.383
			C350.384,128.199,342.877,88.282,336.395,72.587z"/>
		<path fill="#3C2415" d="M174.09,135.583c-1.869,0-3.751-0.117-5.584-0.348c-0.654-0.01-1.151-0.071-1.617-0.175
			c-0.071-0.017-0.217-0.059-0.345-0.098l-0.039-0.007c-0.205-0.022-0.403-0.048-0.608-0.087c-0.521-0.098-0.999-0.329-1.396-0.657
			c-2.78-1.327-4.938-3.747-6.417-7.208c-6.145-14.354,0.677-43.507,5.51-55.21c14.155-34.262,40.815-53.914,73.142-53.914
			c4.566,0,9.158,0.41,13.667,1.22c5.154-1.067,10.425-1.609,15.675-1.609c32.335,0,58.998,19.656,73.157,53.927
			c5.435,13.159,11.73,43.282,4.928,56.471c-1.873,3.636-4.717,5.985-8.217,6.795c-0.533,0.123-1.109,0.186-1.704,0.186l0,0
			c-4.261,0-9.392-3.175-13.031-5.924c-11.811-5.722-25.845-22.355-34.264-32.327c-0.596-0.706-1.197-1.418-1.77-2.091
			c-0.843,6.057-0.068,13.578,0.487,17.026c0.106,0.313,0.166,0.649,0.166,0.998c0,1.709-1.338,3.136-3.108,3.07h-0.004
			c-0.97,0-1.917-0.462-2.505-1.293c-0.372-0.52-8.048-11.463-14.966-30.301c-12.959,36.18-30.469,39.021-31.263,39.129
			c-0.991,0.133-1.986-0.218-2.666-0.95c-0.683-0.729-0.963-1.747-0.756-2.726l3.966-18.76
			C222.813,114.022,199.845,135.583,174.09,135.583z M168.368,129.094c0.066-0.004,0.501-0.004,0.749,0.029
			c1.63,0.212,3.305,0.319,4.973,0.319c33.256,0,63.295-42.002,63.594-42.427c0.839-1.19,2.4-1.628,3.741-1.044
			c1.334,0.583,2.075,2.024,1.772,3.449l-5.39,25.472c5.956-3.836,16.437-14.182,24.438-41.503c0.378-1.301,1.567-2.198,2.925-2.209
			c0.007,0,0.014,0,0.02,0c1.347,0,2.537,0.878,2.938,2.165c3.354,10.877,7.293,19.741,10.546,26.108
			c0.078-4.285,0.621-8.813,2.149-12.354c0.363-0.843,1.084-1.479,1.965-1.734c0.878-0.255,1.829-0.102,2.586,0.415
			c1.061,0.724,2.593,2.519,6.27,6.875c7.627,9.04,21.824,25.864,32.483,30.873c0.198,0.094,0.384,0.205,0.56,0.339
			c4.685,3.581,8.013,4.859,9.558,4.859c0.173,0,0.276-0.021,0.325-0.03c1.733-0.4,3.087-1.587,4.141-3.626
			c5.357-10.384,0.445-37.761-5.151-51.31c-13.161-31.857-37.755-50.129-67.479-50.129c-4.736,0-9.488,0.478-14.14,1.421
			c-0.565,0.255-1.196,0.361-1.792,0.244c-4.418-0.847-8.929-1.277-13.41-1.277c-29.718,0-54.309,18.266-67.466,50.116
			c-5.436,13.156-10.291,39.347-5.542,50.45c0.959,2.239,2.198,3.627,3.792,4.245c0.077,0.03,0.153,0.065,0.229,0.101l0,0
			c0.101,0.016,0.201,0.04,0.303,0.065c0.054,0.017,0.217,0.068,0.305,0.098C168.355,129.094,168.358,129.094,168.368,129.094z"/>
	</g>
	<g>
		<path fill="#F58020" d="M289.521,232.033c24.691,10.461,76.183,26.447,77.719,56.9c0,0,4.131,46.959,0,47.018
			c-17.012,0.261-89.375-0.459-103.588-0.264c-20.205,0.276-103.425,0.391-127.605,0.064c-3.884-0.052,2.459-47.334,2.423-47.451
			c7.85-34.342,56.312-44.475,82.056-56.676c0,0,6.955,27.637,32.955,27.704C282.08,259.404,289.521,232.033,289.521,232.033z"/>
		<path fill="#3C2415" d="M355.641,339.08c-11.843,0-28.99-0.098-45.437-0.191c-20.468-0.113-39.856-0.222-46.509-0.13
			c-11.187,0.152-42.193,0.263-73.731,0.263c-24.933,0-44.602-0.074-53.96-0.197c-1.027-0.018-1.98-0.465-2.679-1.27
			c-1.338-1.535-3.576-4.104,1.928-48.207c0.081-0.672,0.14-1.113,0.156-1.281c0.013-0.15,0.035-0.301,0.068-0.449
			c6.538-28.604,38.941-41.063,64.976-51.071c6.874-2.645,13.365-5.139,18.756-7.693c0.832-0.396,1.795-0.396,2.628-0.003
			c0.829,0.394,1.444,1.135,1.665,2.026c0.264,1.031,6.74,25.321,29.986,25.385c25.854,0.003,32.791-24.015,33.074-25.037
			c0.236-0.853,0.83-1.568,1.623-1.952c0.797-0.387,1.717-0.41,2.533-0.065c3.186,1.347,6.812,2.788,10.726,4.339
			c26.851,10.656,67.429,26.756,68.862,55.231c1.775,20.158,3.172,45.13-0.309,48.982c-0.723,0.799-1.686,1.246-2.713,1.262
			C364.618,339.061,360.593,339.08,355.641,339.08z M271.284,332.581c9.262,0,23.808,0.085,38.955,0.167
			c21.942,0.126,45.158,0.26,55.294,0.15c1.068-5.479,0.198-26.069-1.351-43.696c-1.245-24.647-39.615-39.871-65.007-49.948
			c-2.779-1.106-5.425-2.154-7.867-3.152c-3.179,7.689-13.389,26.298-37.705,26.298c0,0-0.004,0-0.006,0
			c-22.334-0.059-31.862-18.688-34.895-26.568c-4.865,2.143-10.327,4.245-16.048,6.443c-24.627,9.468-55.268,21.247-61.158,46.566
			c-0.032,0.308-0.085,0.712-0.153,1.267c-3.746,30.045-3.682,39.607-3.356,42.598c9.946,0.109,28.649,0.176,51.976,0.176
			c31.512,0,62.488-0.111,73.647-0.265C265.361,332.591,267.986,332.581,271.284,332.581z"/>
	</g>
	<g>
		<path fill="#F4BE78" d="M346.299,298.688c7.608-0.737,29.729-4.511,29.581,35.137c-1.172,30.931-30.582,27.699-30.582,27.699
			s-26.819-5.149-9.535-21.104c-12.47-12.779,4.571-21.902,4.571-21.902S320.915,305.04,346.299,298.688z"/>
		<path fill="#3C2415" d="M347.637,364.689c-1.581,0-2.566-0.102-2.675-0.114c-0.08-0.011-0.162-0.019-0.243-0.035
			c-1.528-0.296-15.026-3.12-17.461-11.651c-1.138-3.986,0.315-8.22,4.316-12.615c-2.774-3.619-3.884-7.371-3.295-11.168
			c0.754-4.886,4.23-8.595,7.002-10.84c-2.676-2.642-5.835-6.863-4.979-11.557c0.929-5.064,5.913-8.662,15.253-11.001
			c0.148-0.035,0.301-0.062,0.448-0.077l0.843-0.085c1.478-0.153,3.5-0.367,5.731-0.367c7.021,0,12.754,2.179,17.031,6.478
			c6.258,6.271,9.399,17.104,9.341,32.183C377.866,362.473,354.707,364.689,347.637,364.689z M345.739,358.479
			c0.254,0.022,0.924,0.068,1.896,0.068c7.285,0,24.326-2.42,25.177-24.841c0.048-13.276-2.492-22.64-7.554-27.718
			c-3.13-3.143-7.28-4.672-12.683-4.672c-1.91,0-3.676,0.189-5.094,0.338l-0.646,0.063c-6.253,1.593-10.071,3.806-10.492,6.089
			c-0.517,2.788,3.647,6.721,5.743,8.188c0.874,0.61,1.371,1.636,1.307,2.698c-0.062,1.063-0.671,2.022-1.612,2.527
			c-1.841,0.999-6.785,4.545-7.438,8.838c-0.391,2.59,0.825,5.354,3.616,8.217c0.579,0.593,0.895,1.396,0.872,2.226
			c-0.021,0.829-0.375,1.613-0.985,2.176c-2.569,2.371-5.469,5.776-4.684,8.525C334.257,355.042,342.012,357.734,345.739,358.479z"
			/>
	</g>
	<g>
		<g>
			<path fill="#27AAE1" d="M236.604,249.168c5.559,0,11.107,0,16.66,0c10.976,1.086,22.426,2.807,31.688,5.745
				c9.387,2.981,18.191,7.094,24.778,11.856c14.041,10.157,26.776,31.584,20.308,54.974c-3.977,14.38-14.881,23.937-25.996,32.333
				c-5.348,4.033-11.729,7.906-17.87,11.852c-5.688,3.653-13.4,8.239-17.066,12.938c-5.272,6.76-5.881,14.881-10.559,19.757
				c-1.803,1.878-4.648,3.532-6.908,4.31c-24.045,8.338-37.909-11.869-30.47-30.531c5.017-12.575,17.49-20.084,29.655-28.741
				c11.568-8.233,23.652-16.154,27.216-26.228c0.267-0.752,0.702-2.156,0.812-2.879c3.211-20.043-12.813-31.023-32.899-30.896
				c-12.891,0.085-22.828,5.022-28.028,11.139c-8.565,10.063-9.183,22.46-21.124,27.306c-12.848,5.211-28.049-0.903-31.688-8.979
				c-4.05-8.983,0.253-20.769,4.875-28.39C182.466,264.176,207.339,252.918,236.604,249.168z"/>
			<path fill="#3C2415" d="M240.96,407.932c-8.63,0-15.896-3.703-20.457-10.434c-4.985-7.354-5.803-17.164-2.186-26.239
				c4.766-11.95,15.304-19.312,26.462-27.104c1.417-0.992,2.842-1.987,4.265-3l2.66-1.883c10.067-7.121,20.476-14.479,23.442-22.862
				c0.285-0.812,0.613-1.942,0.672-2.33c1.146-7.146-0.312-13.147-4.325-17.856c-5.146-6.033-14.325-9.498-25.189-9.498
				l-0.331,0.004c-10.803,0.066-20.412,3.828-25.71,10.054c-2.989,3.514-4.983,7.429-6.916,11.22
				c-3.382,6.637-6.879,13.491-15.392,16.946c-3.529,1.432-7.331,2.155-11.306,2.155c-10.78,0-21.013-5.351-24.334-12.721
				c-5.501-12.195,2.472-26.997,5.048-31.242c12.14-20.002,35.949-32.805,68.854-37.021c0.13-0.016,0.257-0.022,0.387-0.022h16.66
				c0.104,0,0.205,0.006,0.303,0.013c13.494,1.337,24.062,3.259,32.313,5.877c10.086,3.201,18.956,7.451,25.649,12.291
				c15.083,10.914,28.236,33.804,21.469,58.279c-4.35,15.733-16.271,25.781-27.105,33.965c-4.283,3.233-9.25,6.387-14.052,9.434
				c-1.34,0.85-2.68,1.701-4.011,2.559l-2.082,1.325c-5.038,3.2-11.312,7.183-14.223,10.914c-2.33,2.981-3.692,6.388-5.014,9.681
				c-1.457,3.642-2.967,7.408-5.75,10.312c-1.994,2.076-5.183,4.072-8.125,5.085C248.619,407.227,244.691,407.932,240.96,407.932z
				 M246.304,280.583c12.667,0,23.549,4.248,29.863,11.655c5.163,6.053,7.14,13.938,5.722,22.801
				c-0.162,1.027-0.693,2.686-0.953,3.416c-3.617,10.227-14.834,18.158-25.687,25.829l-2.646,1.874
				c-1.434,1.021-2.875,2.029-4.307,3.027c-10.386,7.254-20.188,14.104-24.275,24.348c-2.862,7.186-2.276,14.855,1.565,20.521
				c4.96,7.318,14.431,9.65,25.045,5.975c2.03-0.698,4.372-2.149,5.699-3.532c1.958-2.046,3.125-4.964,4.481-8.347
				c1.41-3.517,3.006-7.504,5.873-11.176c3.561-4.567,10.049-8.687,15.771-12.322l2.058-1.307c1.336-0.863,2.686-1.719,4.035-2.572
				c4.696-2.983,9.558-6.067,13.646-9.151c10.024-7.572,21.049-16.817,24.888-30.694c5.984-21.658-5.731-41.964-19.153-51.668
				c-6.083-4.4-14.571-8.455-23.905-11.42c-7.809-2.476-17.92-4.307-30.908-5.6h-16.312c-21.581,2.793-50.163,10.977-64.189,34.085
				c-4.494,7.411-8.094,18.012-4.701,25.532c2.021,4.477,9.577,9.104,18.737,9.104c3.178,0,6.202-0.576,8.993-1.705
				c6.396-2.595,8.968-7.647,12.234-14.045c1.993-3.913,4.257-8.354,7.711-12.409c6.438-7.568,17.783-12.137,30.345-12.217
				L246.304,280.583z"/>
		</g>
		<g>
			<path fill="#27AAE1" d="M246.356,474.071c-2.57,0-5.146,0-7.716,0c-17.093-2.358-30.568-18.95-21.937-35.564
				c3.933-7.579,13.284-14.462,25.996-14.374c11.556,0.077,19.824,6.053,23.969,12.215
				C277.23,452.027,265.943,471.322,246.356,474.071z"/>
			<path fill="#3C2415" d="M246.356,477.142h-7.716c-0.14,0-0.284-0.011-0.42-0.029c-10.525-1.453-19.887-7.811-24.428-16.591
				c-3.854-7.456-3.792-15.78,0.183-23.435c3.841-7.394,13.605-16.024,28.49-16.024h0.256c10.919,0.07,20.825,5.145,26.495,13.568
				c5.126,7.607,5.974,16.651,2.339,24.815c-4.164,9.335-13.658,16.104-24.774,17.665
				C246.643,477.131,246.498,477.142,246.356,477.142z M238.854,471h7.284c8.944-1.319,16.522-6.689,19.805-14.055
				c2.801-6.277,2.152-12.984-1.821-18.886c-1.697-2.523-8.269-10.77-21.441-10.857h-0.215c-12.129,0-19.992,6.852-23.039,12.719
				c-3.884,7.477-2.241,13.792-0.176,17.78C222.858,464.68,230.359,469.761,238.854,471z"/>
		</g>
	</g>
	<g>
		<path fill="#F4BE78" d="M158.93,298.684c-7.608-0.738-29.727-4.507-29.584,35.137c1.172,30.931,30.585,27.699,30.585,27.699
			s26.816-5.148,9.538-21.1c12.468-12.784-4.574-21.906-4.574-21.906S184.317,305.04,158.93,298.684z"/>
		<path fill="#3C2415" d="M157.592,364.689L157.592,364.689c-7.07,0-30.233-2.219-31.313-30.752
			c-0.059-15.182,3.087-26.011,9.342-32.287c4.277-4.293,10.012-6.473,17.034-6.473c2.229,0,4.252,0.211,5.726,0.364l0.846,0.088
			c0.152,0.017,0.303,0.042,0.448,0.077c9.34,2.335,14.328,5.934,15.253,10.998c0.855,4.693-2.304,8.918-4.983,11.561
			c2.774,2.24,6.255,5.949,7.006,10.836c0.586,3.801-0.521,7.549-3.292,11.172c3.998,4.396,5.451,8.625,4.313,12.61
			c-2.434,8.532-15.932,11.359-17.464,11.651c-0.078,0.016-0.16,0.029-0.24,0.039C160.158,364.583,159.177,364.689,157.592,364.689z
			 M152.654,301.318c-5.409,0-9.557,1.525-12.685,4.668c-5.059,5.078-7.602,14.438-7.554,27.824
			c0.85,22.316,17.887,24.736,25.176,24.736l0,0c0.966,0,1.634-0.046,1.897-0.068c3.73-0.754,11.494-3.465,12.578-7.281
			c0.779-2.749-2.115-6.152-4.681-8.522c-0.611-0.562-0.966-1.347-0.989-2.176c-0.022-0.827,0.293-1.63,0.872-2.226
			c2.797-2.866,4.013-5.639,3.61-8.232c-0.791-5.133-7.371-8.786-7.433-8.821c-0.942-0.505-1.556-1.464-1.616-2.53
			c-0.062-1.065,0.436-2.088,1.314-2.699c2.091-1.465,6.255-5.393,5.736-8.184c-0.419-2.285-4.237-4.496-10.49-6.087l-0.646-0.067
			C156.327,301.504,154.564,301.318,152.654,301.318z"/>
	</g>
</g>
</svg>
