<?xml version="1.0" encoding="utf-8"?>
<!-- Generator: Adobe Illustrator 16.0.0, SVG Export Plug-In . SVG Version: 6.00 Build 0)  -->
<!DOCTYPE svg PUBLIC "-//W3C//DTD SVG 1.1//EN" "http://www.w3.org/Graphics/SVG/1.1/DTD/svg11.dtd">
<svg version="1.1" id="Layer_1" xmlns="http://www.w3.org/2000/svg" xmlns:xlink="http://www.w3.org/1999/xlink" x="0px" y="0px"
	 width="500px" height="500px" viewBox="0 0 500 500" enable-background="new 0 0 500 500" xml:space="preserve">
<g id="Layer_1_copy_32">
	<g>
		<g>
			<g>
				<path fill="#E5A661" d="M56.316,412.326l80.284,32.512l64.818-181.995c0,0,31.198-3.395,48.976-42.875l14.4-35.551l56.26-42.189
					c0,0,10.521-9.535,4.378-17.362c-6.185-7.854-19.696-0.847-19.696-0.847l-48.165,34.303c0,0-7.296,1.501-3.588-5.469
					c3.699-6.938,48.551-67.074,48.551-67.074s10.777-15.649-2.822-19.394c-9.328-5.554-17.427,6.731-17.427,6.731l-48.065,61.518
					c0,0-9.34,3.349-6.401-6.146c2.956-9.498,30.275-79.095,30.275-79.095s6.841-12.66-7.138-16.542
					c-13.968-3.893-17.698,9.727-17.698,9.727l-30.597,76.609c0,0-5.787,8.755-8.103-1.961c-2.333-10.72,3.625-75.959,3.625-75.959
					s-1.543-14.857-14.106-12.384C171.499,31.359,172.52,42.01,172.52,42.01l-7.347,77.243l-2.396,8.155L151,148.971
					c0,0-5.177,9.459-7.522-1.24c-2.316-10.737-16.26-42.216-32.854-48.49c-16.603-6.269-21.913,3.566-21.913,3.566
					s-5.305,5.417,11.391,20.236c16.698,14.755,13.161,42.245,13.161,42.245s-9.303,37.143,22.197,65.952L56.316,412.326z"/>
			</g>
			<g>
				<path fill="#27140E" d="M136.601,448.392c-0.455,0-0.911-0.088-1.338-0.254l-80.285-32.509c-0.886-0.373-1.592-1.07-1.956-1.956
					c-0.363-0.896-0.348-1.892,0.033-2.771l78.144-178.791c-29.539-28.692-22.285-63.865-21.449-67.444
					c0.243-2.25,2.408-26.23-12.008-38.959c-8.692-7.718-13.19-14.397-13.379-19.856c-0.096-2.657,0.841-4.321,1.446-5.113
					c0.987-1.537,5.227-7.144,14.668-7.144c3.491,0,7.324,0.779,11.405,2.318c18.138,6.857,32.625,39.728,35.074,51.067
					c0.104,0.484,0.209,0.888,0.314,1.225c0.234-0.324,0.456-0.658,0.609-0.943l11.595-21.229l2.191-7.46l7.282-76.599
					c-0.296-4.909,2.309-14.195,14.441-16.581c1.163-0.229,2.3-0.345,3.387-0.345c10.521,0,14.371,10.367,14.943,15.848
					c0.025,0.23,0.025,0.46,0.004,0.69c-2.374,26.009-5.318,67.409-3.692,74.878c0.202,0.94,0.415,1.586,0.586,2.021
					c0.314-0.299,0.64-0.671,0.895-1.003l30.375-76.057c1.331-4.558,6.34-12.834,16.295-12.834c1.826,0,3.75,0.28,5.728,0.832
					c5.237,1.453,8.733,4.175,10.401,8.086c2.496,5.875-0.281,11.985-0.979,13.352c-1.521,3.891-27.302,69.641-30.12,78.678
					c-0.33,1.075-0.405,1.737-0.409,2.104c0.367,0.022,0.924-0.046,1.342-0.13l47.253-60.489c0.99-1.457,6.908-9.64,15.324-9.64
					c2.202,0,4.349,0.571,6.389,1.698c5.284,1.595,7.441,4.773,8.324,7.193c2.718,7.465-3.282,16.509-3.977,17.515
					c-12.229,16.406-43.959,59.279-48.1,66.313l46.31-32.987c0.139-0.096,0.28-0.184,0.427-0.259
					c0.26-0.134,6.394-3.275,12.804-3.275c4.796,0,8.713,1.755,11.324,5.08c6.486,8.257-0.292,18.129-4.781,22.197
					c-0.084,0.073-0.167,0.144-0.257,0.209l-55.465,41.595l-14.031,34.638c-15.857,35.235-41.793,43.084-49.625,44.691
					l-64.116,180.034c-0.326,0.914-1.007,1.658-1.898,2.047C137.587,448.292,137.095,448.392,136.601,448.392z M61.037,410.402
					l73.456,29.75l63.572-178.502c0.46-1.285,1.61-2.202,2.965-2.348c0.062-0.006,7.446-0.906,16.757-6.359
					c8.588-5.03,20.655-15.081,29.367-34.433l14.347-35.43c0.237-0.6,0.647-1.121,1.161-1.512l56.102-42.067
					c0.898-0.866,7.645-7.637,3.872-12.439c-1.255-1.591-3.128-2.364-5.735-2.364c-4.11,0-8.379,1.921-9.332,2.383l-47.938,34.136
					c-0.4,0.289-0.855,0.487-1.342,0.585c-0.171,0.036-1.079,0.21-2.203,0.21c-3.638,0-5.259-1.798-5.907-2.875
					c-1.255-2.089-1.034-4.765,0.668-7.955c3.783-7.095,46.999-65.067,48.834-67.528c1.138-1.668,4.327-7.525,3.069-10.948
					c-0.18-0.496-0.731-1.997-3.984-2.891c-0.306-0.086-0.604-0.211-0.875-0.375c-1.062-0.636-2.099-0.941-3.169-0.941
					c-4.193,0-8.35,4.867-9.47,6.575c-0.051,0.079-0.104,0.157-0.168,0.232l-48.065,61.517c-0.413,0.529-0.969,0.931-1.602,1.158
					c-0.221,0.082-2.244,0.78-4.465,0.78c-3.27,0-5.034-1.463-5.937-2.686c-1.525-2.07-1.731-4.978-0.593-8.64
					c2.959-9.516,29.245-76.497,30.362-79.343c0.054-0.136,0.111-0.266,0.18-0.391c0.605-1.148,1.939-4.758,0.789-7.43
					c-0.781-1.808-2.718-3.153-5.749-3.995c-1.358-0.378-2.646-0.569-3.824-0.569c-7.276,0-9.471,7.729-9.492,7.806
					c-0.037,0.13-0.079,0.255-0.126,0.381l-30.6,76.611c-0.092,0.224-0.205,0.441-0.339,0.64c-0.766,1.167-3.575,4.967-7.434,4.967
					c-2.442,0.002-5.657-1.411-7.108-8.134c-2.341-10.749,2.761-68.28,3.524-76.645c-0.246-1.635-1.7-9.171-7.831-9.171
					c-0.622,0-1.305,0.069-2.015,0.209c-9.308,1.831-8.734,8.995-8.705,9.299c0.025,0.226,0.025,0.451,0,0.675l-7.343,77.245
					c-0.02,0.223-0.062,0.447-0.128,0.665l-2.397,8.153c-0.07,0.243-0.166,0.477-0.292,0.701l-11.773,21.567
					c-0.735,1.342-3.434,5.709-7.371,5.711c-3.328,0-5.6-2.655-6.745-7.896c-2.345-10.858-15.983-40.381-30.642-45.92
					c-3.271-1.238-6.259-1.863-8.889-1.863c-6.41,0-8.618,3.749-8.638,3.786c-0.093,0.169-0.193,0.328-0.311,0.477
					c-0.129,0.493-0.845,4.958,10.934,15.411c17.899,15.815,14.476,44.163,14.324,45.36c-0.016,0.138-0.041,0.276-0.079,0.41
					c-0.352,1.43-8.328,35.501,21.151,62.463c1.125,1.026,1.468,2.653,0.862,4.05L61.037,410.402z"/>
			</g>
		</g>
		<g>
			<g>
				<path fill="#E5A661" d="M144.611,152.14c0,0,18.652,18.049,14.378,40.004"/>
			</g>
			<g>
				<path fill="#27140E" d="M158.993,195.703c-0.226,0-0.455-0.021-0.685-0.067c-1.924-0.374-3.183-2.241-2.81-4.168
					c3.858-19.833-13.188-36.603-13.363-36.771c-1.408-1.367-1.446-3.617-0.079-5.03c1.367-1.411,3.62-1.448,5.029-0.081
					c0.815,0.79,19.981,19.659,15.391,43.238C162.146,194.523,160.662,195.703,158.993,195.703z"/>
			</g>
		</g>
	</g>
	<g>
		<path fill="#27140E" d="M461.32,126.571c-1.693,0-3.194-1.214-3.5-2.937c-8.863-50.03-47.99-55.068-49.653-55.258
			c-1.948-0.222-3.354-1.981-3.136-3.929c0.217-1.948,1.973-3.334,3.918-3.142c0.459,0.053,46.054,5.666,55.875,61.09
			c0.343,1.934-0.949,3.777-2.877,4.12C461.734,126.553,461.525,126.571,461.32,126.571z"/>
	</g>
	<g>
		<path fill="#27140E" d="M441.761,139.875c-1.691,0-3.186-1.214-3.489-2.937c-8.873-50.028-47.994-55.07-49.658-55.257
			c-1.949-0.226-3.351-1.981-3.132-3.93c0.218-1.949,1.961-3.339,3.912-3.14c0.466,0.049,46.052,5.663,55.876,61.084
			c0.344,1.936-0.944,3.782-2.88,4.123C442.175,139.856,441.97,139.875,441.761,139.875z"/>
	</g>
	<g>
		<path fill="#27140E" d="M46.302,217.248c-0.685,0-1.38-0.201-1.985-0.612c-0.389-0.258-38.081-26.51-20.884-80.107
			c0.598-1.871,2.601-2.897,4.469-2.3c1.869,0.601,2.901,2.601,2.304,4.474c-15.586,48.575,17.753,71.815,18.092,72.043
			c1.631,1.1,2.052,3.312,0.953,4.938C48.564,216.7,47.443,217.248,46.302,217.248z"/>
	</g>
	<g>
		<path fill="#27140E" d="M69.809,214.615c-0.687,0-1.376-0.198-1.986-0.612c-0.39-0.259-38.081-26.512-20.885-80.107
			c0.598-1.871,2.601-2.901,4.471-2.301c1.873,0.603,2.901,2.604,2.3,4.471c-15.584,48.579,17.756,71.818,18.095,72.047
			c1.63,1.098,2.053,3.31,0.953,4.936C72.07,214.067,70.945,214.615,69.809,214.615z"/>
	</g>
	<g>
		<g>
			<path fill="#F4BE78" d="M373.209,451.583l78.336-36.944l-89.771-171.062c0,0,18.681-25.224,1.718-65.088l-16.355-34.695
				l7.158-69.944c0,0,0.142-14.199-9.797-14.987c-9.955-0.78-13.985,13.904-13.985,13.904l-7.455,58.645
				c0,0-3.834,6.397-6.435-1.056c-2.592-7.44-16.374-81.188-16.374-81.188s-4.188-18.532-16.163-11.075
				c-10.411,3.092-6.863,17.376-6.863,17.376l12.608,77.044c0,0-3.901,9.115-8.868,0.527c-4.967-8.605-37.604-75.896-37.604-75.896
				s-4.658-13.607-16.984-5.973c-12.333,7.645-4.854,19.616-4.854,19.616l35.54,74.433c0,0,2.525,10.204-6.937,4.626
				c-9.463-5.557-53.35-54.17-53.35-54.17s-11.962-8.956-18.682,1.955c-6.706,10.915,1.811,17.383,1.811,17.383l51.786,57.805
				l4.361,7.284l7.856,23.29c0,0,3.456,10.223-6.005,4.677c-9.466-5.577-42.053-16.678-57.911-8.726
				c-15.876,7.931-12.25,18.518-12.25,18.518s0.389,7.566,22.585,5.327c22.176-2.25,39.959,19.002,39.959,19.002
				s21.014,32.028,63.534,28.408L373.209,451.583z"/>
		</g>
		<g>
			<path fill="#27140E" d="M373.209,455.145c-0.422,0-0.845-0.08-1.245-0.231c-0.899-0.332-1.623-1.021-2.012-1.896l-78.381-178.698
				c-1.478,0.072-2.948,0.117-4.398,0.117c-38.237,0-57.749-27.198-59.719-30.086c-1.404-1.609-16.001-17.773-33.821-17.773
				c-0.981,0-1.978,0.05-2.951,0.153c-2.843,0.282-5.494,0.429-7.894,0.429c-15.749,0-18.179-6.324-18.539-8.586
				c-0.64-2.433-2.634-14.021,14.149-22.412c4.168-2.087,9.52-3.151,15.904-3.151c17.48,0,38.528,7.944,45.402,11.996
				c0.431,0.249,0.798,0.445,1.107,0.6c-0.075-0.388-0.167-0.769-0.275-1.072l-7.736-22.931l-3.987-6.667l-51.356-57.32
				c-3.809-3.104-8.863-11.312-2.396-21.846c3.62-5.875,8.512-7.108,11.979-7.108c6.12,0,11.292,3.742,11.86,4.168
				c0.184,0.138,0.355,0.295,0.51,0.464c17.494,19.379,45.917,49.612,52.515,53.485c0.828,0.492,1.442,0.776,1.886,0.941
				c-0.013-0.418-0.06-0.905-0.139-1.347L218.381,72.46c-0.681-1.184-3.759-6.98-2.249-13.453c1.024-4.398,3.843-8.052,8.37-10.857
				c3.065-1.901,6.059-2.86,8.902-2.86c8.854,0,12.61,8.831,13.228,10.461c1.772,3.65,32.681,67.314,37.408,75.511
				c0.573,0.98,1.008,1.482,1.271,1.733c0.256-0.247,0.553-0.642,0.818-1.075l-12.395-75.74c-1.452-6.044-1.389-17.958,8.875-21.349
				c2.32-1.37,4.625-2.061,6.854-2.061c8.466,0,12.943,9.812,14.252,15.616c3.754,20.084,13.728,72.349,16.106,80.299l7.161-56.367
				c0.021-0.165,0.06-0.33,0.104-0.493c0.186-0.696,5.021-17.504,17.688-16.507c10.481,0.83,13.132,12.508,13.073,18.568
				c-0.004,0.109-0.009,0.218-0.021,0.324l-7.058,68.96l15.938,33.802c15.143,35.574,3.314,59.952-0.812,66.8l88.798,169.219
				c0.451,0.858,0.53,1.86,0.226,2.778c-0.309,0.918-0.979,1.676-1.859,2.088l-78.336,36.944
				C374.246,455.026,373.728,455.145,373.209,455.145z M293.818,267.037c1.397,0,2.686,0.828,3.254,2.13l77.927,177.64
				l71.676-33.803L358.63,245.225c-0.636-1.207-0.521-2.667,0.292-3.766c0.034-0.05,4.379-6.083,6.684-16.63
				c2.136-9.723,2.931-25.41-5.387-44.95l-16.297-34.571c-0.281-0.587-0.39-1.235-0.322-1.877l7.134-69.748
				c-0.021-1.24-0.415-10.793-6.516-11.278c-6.217-0.49-9.713,9.528-10.215,11.103l-7.417,58.35
				c-0.062,0.492-0.226,0.962-0.479,1.384c-0.428,0.712-2.752,4.277-6.359,4.279c-2.003,0-4.754-1.041-6.481-5.997
				c-2.649-7.604-15.946-78.679-16.511-81.704c-0.465-1.988-3.14-9.94-7.291-9.94c-1.009,0-2.188,0.416-3.5,1.231
				c-0.271,0.167-0.564,0.301-0.869,0.391c-7.065,2.099-4.449,12.999-4.421,13.11c0.021,0.094,0.038,0.188,0.056,0.282
				l12.608,77.046c0.11,0.667,0.025,1.35-0.241,1.971c-0.451,1.064-2.965,6.37-7.781,6.37c-2.834,0-5.33-1.838-7.43-5.461
				c-4.975-8.619-36.393-73.373-37.729-76.124c-0.062-0.13-0.118-0.266-0.163-0.404c-0.013-0.04-2.141-5.893-6.589-5.893
				c-1.497,0-3.232,0.604-5.151,1.793c-8.752,5.421-4.625,13.219-3.705,14.726c0.063,0.102,0.126,0.226,0.181,0.333l35.539,74.435
				c0.104,0.217,0.188,0.445,0.246,0.677c0.313,1.267,1.162,5.619-1.082,8.483c-2.188,2.791-6.047,3.047-11.112,0.06
				c-9.483-5.569-48.267-48.303-53.916-54.55c-0.886-0.595-4.097-2.585-7.361-2.585c-2.476,0-4.357,1.183-5.926,3.721
				c-4.954,8.076,0.694,12.501,0.941,12.685c0.18,0.141,0.343,0.292,0.493,0.462l51.791,57.803c0.146,0.169,0.283,0.352,0.4,0.548
				l4.36,7.286c0.131,0.218,0.239,0.446,0.318,0.688l7.856,23.29c0.447,1.315,1.731,5.835-0.376,8.772
				c-1.037,1.446-2.651,2.245-4.546,2.245h-0.004c-1.772,0-3.759-0.677-6.246-2.139c-6.711-3.951-26.416-11.011-41.802-11.011
				c-5.269,0-9.546,0.805-12.72,2.397c-12.664,6.33-10.557,13.927-10.456,14.249c0.038,0.142,0.084,0.308,0.112,0.473
				c0.189,0.315,2.028,2.805,11.549,2.805c2.158,0,4.575-0.133,7.184-0.397c1.203-0.122,2.441-0.184,3.661-0.184
				c22.022,0,38.68,19.606,39.377,20.443c0.093,0.104,0.177,0.213,0.247,0.331c0.177,0.265,18.334,27.089,53.916,27.089
				c2.082,0,4.218-0.097,6.339-0.277C293.619,267.044,293.715,267.037,293.818,267.037z"/>
		</g>
	</g>
</g>
</svg>
