<?xml version="1.0" encoding="utf-8"?>
<!-- Generator: Adobe Illustrator 16.0.0, SVG Export Plug-In . SVG Version: 6.00 Build 0)  -->
<!DOCTYPE svg PUBLIC "-//W3C//DTD SVG 1.1//EN" "http://www.w3.org/Graphics/SVG/1.1/DTD/svg11.dtd">
<svg version="1.1" id="Layer_1" xmlns="http://www.w3.org/2000/svg" xmlns:xlink="http://www.w3.org/1999/xlink" x="0px" y="0px"
	 width="500px" height="500px" viewBox="0 0 500 500" enable-background="new 0 0 500 500" xml:space="preserve">
<g id="Layer_1_copy_82">
	<g>
		<path fill="#D87C9A" d="M399.566,361.984v-43.592L314.505,92.981l-157.36-53.164c0,0-46.255-7.975-53.696,36.153v316.318
			c0,0,1.065,37.211,53.696,37.742"/>
		<path fill="#27140E" d="M157.145,433.824c-0.015,0-0.023,0-0.043,0c-55.635-0.558-57.432-41.025-57.442-41.434V75.971
			c0-0.212,0.011-0.424,0.048-0.632c2.31-13.684,8.375-24.09,18.031-30.932c17.092-12.116,39.114-8.492,40.046-8.327
			c0.196,0.032,0.387,0.081,0.57,0.143L315.72,89.388c1.075,0.362,1.932,1.19,2.332,2.253l85.059,225.414
			c0.166,0.422,0.25,0.875,0.25,1.338v43.592c0,2.099-1.701,3.798-3.793,3.798c-2.095,0-3.798-1.699-3.798-3.798V319.08L311.592,96
			L156.237,43.519c-1.721-0.249-11.801-1.492-22.343,1.543c-14.823,4.261-23.785,14.767-26.648,31.229v315.998
			c0.048,1.242,1.806,33.463,49.936,33.953c2.096,0.02,3.775,1.731,3.756,3.832C160.915,432.15,159.221,433.824,157.145,433.824z"/>
	</g>
	<g>
		<g>
			<path fill="#D87C9A" d="M157.145,430.031h229.772c6.957,0,12.649-5.689,12.649-12.643v-55.404"/>
		</g>
		<g>
			<path fill="#211010" d="M386.917,433.824H157.145c-2.1,0-3.794-1.697-3.794-3.793c0-2.09,1.694-3.789,3.794-3.789h229.772
				c4.879,0,8.853-3.976,8.853-8.854v-55.404c0-2.096,1.703-3.795,3.798-3.795c2.092,0,3.793,1.699,3.793,3.795v55.404
				C403.359,426.453,395.983,433.824,386.917,433.824z"/>
		</g>
	</g>
	<g>
		<path fill="#FFFFFF" d="M150.231,357.417l249.335,0.533v53.69H152.301c0,0-26.381,0.537-26.897-30.834
			C126.44,359.016,150.231,357.417,150.231,357.417z"/>
		<path fill="#27140E" d="M152.216,415.443c-1.223,0-30.04-0.4-30.606-34.572c0.953-20.158,18.975-26.609,28.372-27.24
			c0.086-0.006,0.142,0.014,0.262-0.006l249.327,0.535c2.096,0.004,3.789,1.699,3.789,3.791v53.691c0,2.1-1.701,3.801-3.793,3.801
			H152.216z M150.378,361.214c-1.776,0.154-20.35,2.187-21.182,19.781c0.438,26.096,20.714,26.854,23.02,26.854v3.791l0.025-3.791
			H395.77v-46.115L150.378,361.214z"/>
	</g>
	<g>
		<g>
			<path fill="#F596A0" d="M400.096,325.441c0,6.961-5.693,12.646-12.646,12.646H156.503c-6.957,0-12.646-5.687-12.646-12.646
				V51.404c0-6.958,5.689-12.649,12.646-12.649h230.945c6.953,0,12.646,5.691,12.646,12.649L400.096,325.441L400.096,325.441z"/>
		</g>
		<g>
			<path fill="#27140E" d="M387.448,341.889H156.503c-9.066,0-16.445-7.382-16.445-16.447V51.404
				c0-9.068,7.379-16.443,16.445-16.443h230.945c9.064,0,16.438,7.375,16.438,16.443v274.038
				C403.886,334.507,396.514,341.889,387.448,341.889z M156.503,42.55c-4.879,0-8.854,3.972-8.854,8.854v274.038
				c0,4.883,3.975,8.854,8.854,8.854h230.945c4.881,0,8.851-3.971,8.851-8.854V51.404c0-4.883-3.97-8.854-8.851-8.854H156.503z"/>
		</g>
	</g>
	<g>
		<g>
			<path fill="#E2E2E2" d="M378.299,279.132c0,6.955-5.689,12.647-12.646,12.647H178.293c-6.957,0-12.644-5.692-12.644-12.647
				V88.541c0-6.956,5.687-12.646,12.644-12.646h187.358c6.957,0,12.646,5.69,12.646,12.646L378.299,279.132L378.299,279.132z"/>
		</g>
		<g>
			<path fill="#27140E" d="M365.651,295.572H178.293c-9.063,0-16.44-7.375-16.44-16.439V88.541c0-9.064,7.377-16.439,16.44-16.439
				h187.358c9.062,0,16.44,7.375,16.44,16.439v190.591C382.093,288.197,374.715,295.572,365.651,295.572z M178.293,79.688
				c-4.881,0-8.854,3.972-8.854,8.853v190.591c0,4.882,3.974,8.851,8.854,8.851h187.358c4.885,0,8.854-3.969,8.854-8.851V88.541
				c0-4.881-3.97-8.853-8.854-8.853H178.293z"/>
		</g>
	</g>
	<g>
		<g>
			<path fill="#8C191B" d="M293.529,180.078c-1.004,3.985-5.379-3.828-9.592-2.876c-0.785-0.182-0.961-0.963-1.924-0.959
				c18.679,20.627-31.494,41.165-32.619,14.39c-0.442-10.546,12.201-20.584,26.865-19.188
				C282.311,172.021,291.869,173.565,293.529,180.078z M274.346,175.282c-12.984-4.204-21.101,16.193-12.479,24.946
				C276.229,202.467,280.48,184.626,274.346,175.282z"/>
		</g>
		<g>
			<path fill="#8C191B" d="M342.457,203.104c3.4-12.91,5.221-27.398,8.64-40.295c-4.797,0-9.595,0-14.39,0
				c-1.895,2.907-1.541,8.061-2.883,11.513c-18.057-2.128-36.4,2.917-32.618,19.19c3.11,13.401,31.396,8.606,24.946-9.596
				c3.196,0,6.395,0,9.595,0c0.296,15.333-7.797,22.269-16.312,28.784c-4.06-2.468,3.406-7.418,3.84-11.513
				c-5.162,3.473-12.851,4.421-22.067,3.838c-19.848-12.289-0.993-39.753,23.98-33.582c1.426-1.772,1.846-4.56,1.916-7.675
				c-25.261-2.237-56.99-0.32-83.852-0.959c-2.859,1.616-0.131,6.519-0.574,10.554c-7.521,1.114-20.251-2.98-22.066,3.838
				c1.601,5.589,8.758,1.666,13.432,2.876c4.786,1.241,6.678,4.04,9.6,5.758c4.288,12.336-12.91,22.74-23.031,14.392
				c-0.61-3.499,5.244,0.431,8.637-0.959c24.327-16.285-24.705-24.824-19.191,0c2.212,9.954,20.372,10.76,30.702,5.757
				c-0.381,2.493-2.864,2.892-2.878,5.756c-19.875,1.773-42.604-0.72-36.461-18.229c1.601-4.552,6.729-7.266,12.475-9.596
				c1.911-1.355-3.871-3.1-1.919-7.675c2.455-7.459,15.186-4.642,23.026-6.715c-0.124-2.367-0.143-4.624,0.963-5.758
				c-12.155,0-24.308,0-36.465,0L188.467,212.7h-8.165c0,0,7.133-36.058,9.606-48.932c-1.342-2.815-9.213,0.894-10.556-1.917
				c-1.172-6.291,7.194-3.042,11.516-3.84c-0.992-2.524-1.151-5.888-0.96-9.596c8.105-14.05,50.837-17.203,47.017,9.596
				c23.046,1.331,62.522,0.926,93.062,0.959c-12.721-25.703,40.196-28.755,30.707-0.959c-2.884,0-5.763,0-8.642,0
				c8.621-22.633-22.19-20.944-13.43,0c-2.561,0-5.12,0-7.681,0c9.605,2.872,25.904-0.952,35.509,1.919
				c0.617,3.826-3.651,2.748-6.721,2.879c-2.854,12.82-5.879,25.463-7.679,39.335 M199.5,146.5c-1.074,3.086-2.15,10.792,0.96,12.47
				c7.223-3.104,24.561,1.29,28.788-1.919C232.645,141.899,209.051,135.47,199.5,146.5z"/>
		</g>
		<g>
			<path fill="#8C191B" d="M359.962,162.789l-9.724,50.071h-10.178c0,0,7.831-36.236,10.31-49.109"/>
		</g>
		<g>
			<rect x="178.873" y="156.411" fill="#8C191B" width="189.012" height="7.358"/>
		</g>
		<g>
			<path fill="#8C191B" d="M174.77,206.943"/>
		</g>
		<g>
			<path fill="#8C191B" d="M190.378,156.411c0,0-8.262-18.429,22.917-20.226c31.184-1.799,23.799,20.226,23.799,20.226h-8.21
				c0,0,4.735-15.556-15.263-15.432c-19.994,0.122-14.869,15.432-14.869,15.432"/>
		</g>
		<g>
			<path fill="#8C191B" d="M234.766,163.769l0.236,4.798c0,0-20.246-0.639-21.995,4.775c-4.149,4.699,0.888,9.614,0.888,9.614
				l8.929-3.083c0,0-6.608-4.558,4.521-6.673l15.333,0.163l1.081-9.594H234.766z"/>
		</g>
		<g>
			<path fill="#8C191B" d="M226.006,180.286c0,0,17.336-3.302,18.142,7.54c0.807,10.841-3.512,0.769-3.512,0.769L226.006,180.286z"
				/>
		</g>
		<g>
			<polygon fill="#8C191B" points="238.982,205.796 240.759,205.025 240.759,210.83 237.156,210.843 			"/>
		</g>
		<g>
			<path fill="#8C191B" d="M282.398,176.483c0,0,8.095,3.675,11.707,9.033c3.621,5.355,4.337-4.119,4.337-4.119
				s-9.951-8.394-13.312-8.035"/>
		</g>
		<g>
			<path fill="#8C191B" d="M259.427,196.539c0,0,1.165,5.102,9.3,3.075c8.131-2.027-3.738,2.652-3.738,2.652l-8.397-0.961
				L259.427,196.539z"/>
		</g>
		<g>
			<path fill="#8C191B" d="M298.904,203.391c0,0,9.131,9.07,24.369-2.203l-7.317,1.079h-14.871L298.904,203.391z"/>
		</g>
		<g>
			<polygon fill="#8C191B" points="326.271,163.769 325.188,171.443 333.824,174.322 337.06,163.769 			"/>
		</g>
		<g>
			<path fill="#8C191B" d="M323.273,201.188l-8.52,11.513h6.359c0,0,9.234-9.757,10.667-12.477
				C333.206,197.504,323.273,201.188,323.273,201.188z"/>
		</g>
	</g>
</g>
</svg>
