<?xml version="1.0" encoding="utf-8"?>
<!-- Generator: Adobe Illustrator 16.0.0, SVG Export Plug-In . SVG Version: 6.00 Build 0)  -->
<!DOCTYPE svg PUBLIC "-//W3C//DTD SVG 1.1//EN" "http://www.w3.org/Graphics/SVG/1.1/DTD/svg11.dtd">
<svg version="1.1" id="Layer_1" xmlns="http://www.w3.org/2000/svg" xmlns:xlink="http://www.w3.org/1999/xlink" x="0px" y="0px"
	 width="500px" height="500px" viewBox="0 0 500 500" enable-background="new 0 0 500 500" xml:space="preserve">
<g id="Layer_1_copy_94">
	<g>
		<polygon fill="#F4BE78" points="419.824,339.441 419.824,451.8 271.777,461.562 265.96,342.242 		"/>
		<path fill="#3C2517" d="M271.777,464.25c-0.662,0-1.299-0.243-1.789-0.681c-0.539-0.481-0.863-1.159-0.898-1.875l-5.812-119.321
			c-0.035-0.725,0.225-1.434,0.72-1.969c0.496-0.53,1.187-0.836,1.914-0.852l153.868-2.801c0.828,0.012,1.417,0.264,1.933,0.771
			c0.515,0.502,0.806,1.195,0.806,1.916V451.8c0,1.413-1.097,2.586-2.514,2.679l-148.051,9.77
			C271.895,464.248,271.836,464.25,271.777,464.25z M268.779,344.883l5.547,113.813l142.813-9.415V342.184L268.779,344.883z"/>
	</g>
	<g>
		<path fill="#F4BE78" d="M159.16,38.436c0,0,31.468,130.829,44.713,159.813c4.969,43.884-15.205,59.983-19.237,72.749
			c-1.947,6.165-109.104,190.564-109.104,190.564h196.245l103.506-77.006c0,0,77.83-48.856,67.898-138.284
			c-5.801-72.037-18.074-82.354-45.49-128.512c-14.419-24.279-30.584-76.025-31.589-79.326L159.16,38.436L159.16,38.436z"/>
		<path fill="#3C2517" d="M271.777,464.25H75.531c-0.96,0-1.851-0.516-2.331-1.347c-0.479-0.837-0.477-1.863,0.008-2.692
			c42.672-73.436,106.882-184.643,108.876-190.053c1.104-3.501,3.254-7.107,5.748-11.282c7.134-11.956,16.894-28.315,13.423-59.907
			c-13.303-29.628-43.423-154.577-44.709-159.906c-0.193-0.797-0.007-1.642,0.504-2.292c0.511-0.643,1.289-1.022,2.11-1.022h206.941
			c1.187,0,2.23,0.775,2.576,1.906c0.158,0.534,16.583,53.911,31.324,78.737c3.668,6.166,7.06,11.696,10.206,16.816
			c20.359,33.167,30.58,49.821,35.653,112.853c9.997,89.98-68.361,140.275-69.151,140.77l-103.333,76.891
			C272.916,464.065,272.352,464.25,271.777,464.25z M80.202,458.871h190.685l102.792-76.475
			c0.938-0.597,76.455-49.174,66.831-135.825c-4.976-61.832-14.353-77.099-34.883-110.549c-3.156-5.139-6.565-10.693-10.244-16.89
			c-13.459-22.653-28.148-68.149-31.255-78.009H162.58c4.996,20.55,31.92,130.154,43.741,156.005
			c0.115,0.26,0.193,0.535,0.224,0.817c3.812,33.664-6.967,51.735-14.097,63.687c-2.319,3.885-4.322,7.242-5.247,10.18
			C185.322,277.757,98.499,427.376,80.202,458.871z"/>
	</g>
	<g>
		<path fill="#29AAE1" d="M397.69,117.762c0,0-170.039,4.21-204.7,48.974c13.826,46.464,7.153,73.873,7.153,73.873
			s159.898-1.754,219.681,98.834C462.226,297.609,476.062,188.877,397.69,117.762z"/>
		<path fill="#3C2517" d="M419.824,342.133c-0.108,0-0.226-0.012-0.34-0.023c-0.817-0.108-1.543-0.58-1.969-1.293
			c-57.305-96.414-210.352-97.524-216.834-97.524l-0.511,0.008c-0.813-0.047-1.611-0.372-2.131-1.019
			c-0.511-0.647-0.704-1.499-0.511-2.305c0.069-0.271,6.297-27.385-7.111-72.474c-0.247-0.833-0.08-1.728,0.45-2.413
			c14.817-19.136,54.213-33.366,117.095-42.289c46.459-6.595,89.235-7.718,89.666-7.726c0.688-0.062,1.363,0.232,1.87,0.697
			c35.926,32.598,56.259,76.808,57.258,124.476c0.837,40.217-12.587,78.958-35.042,101.106
			C421.208,341.854,420.529,342.133,419.824,342.133z M203.369,237.947c21.813,0.445,160.368,6.824,216.948,97.137
			c19.999-21.499,31.838-57.395,31.061-94.721c-0.953-45.825-20.372-88.357-54.694-119.883
			c-14.376,0.465-166.854,6.375-200.714,46.848C206.824,204.574,204.694,229.376,203.369,237.947z"/>
	</g>
</g>
</svg>
