<svg id="history_class" data-name="history class" xmlns="http://www.w3.org/2000/svg" viewBox="0 0 300 300"><defs><style>.cls-1{fill:#19396d;}.cls-2{fill:#251f1e;}.cls-3{fill:#fff;}.cls-4{fill:#256bb4;}.cls-5{fill:#cbc8ce;}.cls-6{fill:#6c6d6c;}.cls-7{fill:#734819;}.cls-8{fill:#ae6c24;}.cls-9{fill:#9f9c9e;}</style></defs><title>history class</title><path class="cls-1" d="M210.26,202.34V184.56L175.58,92.65,111.41,71s-18.86-3.26-21.9,14.74v129s.44,15.18,21.9,15.39"/><path class="cls-2" d="M111.41,231.63h0C88.71,231.4,88,214.9,88,214.74v-129a2.28,2.28,0,0,1,0-.26c.94-5.58,3.41-9.82,7.35-12.61,7-4.94,16-3.46,16.33-3.4l.23.06,64.17,21.68a1.55,1.55,0,0,1,1,.92L211.71,184a1.65,1.65,0,0,1,.09.54v17.78a1.55,1.55,0,0,1-3.09,0v-17.5L174.39,93.89,111,72.49a23.44,23.44,0,0,0-9.11.63c-6,1.73-9.7,6-10.87,12.73V214.69c0,.51.74,13.65,20.36,13.85a1.55,1.55,0,0,1,0,3.09"/><path class="cls-1" d="M111.41,230.08H205.1a5.17,5.17,0,0,0,5.16-5.15V202.34"/><path class="cls-2" d="M205.1,231.63H111.41a1.55,1.55,0,1,1,0-3.09H205.1a3.61,3.61,0,0,0,3.61-3.61V202.34a1.55,1.55,0,1,1,3.09,0v22.59a6.71,6.71,0,0,1-6.7,6.7"/><path class="cls-3" d="M108.59,200.48l101.67.21v21.9H109.44s-10.76.21-11-12.57c.42-8.89,10.12-9.54,10.12-9.54"/><path class="cls-2" d="M109.4,224.13c-.5,0-12.25-.16-12.48-14.09.39-8.22,7.73-10.85,11.57-11.11h.1l101.67.22a1.54,1.54,0,0,1,1.54,1.54v21.9a1.54,1.54,0,0,1-1.54,1.54ZM108.65,202c-.72.07-8.3.89-8.64,8.07.18,10.64,8.45,10.95,9.39,10.95v0h99.3v-18.8Z"/><rect class="cls-4" x="105.99" y="70.55" width="104.48" height="122.05" rx="5.16" ry="5.16"/><path class="cls-2" d="M205.32,194.14H111.15a6.71,6.71,0,0,1-6.71-6.7V75.7a6.71,6.71,0,0,1,6.71-6.7h94.17a6.71,6.71,0,0,1,6.7,6.7V187.44a6.71,6.71,0,0,1-6.7,6.7m-94.17-122a3.61,3.61,0,0,0-3.61,3.61V187.44a3.61,3.61,0,0,0,3.61,3.61h94.17a3.61,3.61,0,0,0,3.61-3.61V75.7a3.61,3.61,0,0,0-3.61-3.61Z"/><rect class="cls-5" x="114.88" y="85.69" width="86.71" height="88.03" rx="5.16" ry="5.16"/><path class="cls-2" d="M196.43,175.26H120a6.71,6.71,0,0,1-6.7-6.7V90.85a6.72,6.72,0,0,1,6.7-6.71h76.4a6.72,6.72,0,0,1,6.7,6.71v77.71a6.71,6.71,0,0,1-6.7,6.7m-76.4-88a3.62,3.62,0,0,0-3.61,3.62v77.71a3.61,3.61,0,0,0,3.61,3.61h76.4a3.61,3.61,0,0,0,3.61-3.61V90.85a3.62,3.62,0,0,0-3.61-3.62Z"/><polygon class="cls-6" points="171.06 140.74 180.38 102.78 192.46 96.84 197.54 108.88 179.48 146.1 173.43 145.66 171.06 140.74"/><path class="cls-2" d="M179.48,146.87h0l-6.05-.44a.76.76,0,0,1-.64-.43l-2.38-4.92a.8.8,0,0,1-.05-.53l9.32-38a.75.75,0,0,1,.41-.51l12.08-6a.83.83,0,0,1,.62,0,.86.86,0,0,1,.44.42l5.07,12a.76.76,0,0,1,0,.64l-18,37.21a.77.77,0,0,1-.7.44m-5.55-2,5.08.37,17.68-36.43-4.62-11-11,5.43-9.16,37.33Z"/><line class="cls-7" x1="187.21" y1="110.33" x2="175.16" y2="144.26"/><path class="cls-2" d="M175.16,145a1.27,1.27,0,0,1-.26,0,.79.79,0,0,1-.47-1l12-33.93a.77.77,0,0,1,1-.47.76.76,0,0,1,.47,1l-12,33.93a.77.77,0,0,1-.73.52"/><path class="cls-8" d="M174.58,157.3l2.75-7.6L174,144.1l-3.9,2.79-2.84,7.29-.77.18a5.93,5.93,0,1,0,8.05,2.94M168.5,162a2.64,2.64,0,1,1,3.42-1.51A2.64,2.64,0,0,1,168.5,162"/><path class="cls-2" d="M169.15,166.39h0a6.76,6.76,0,0,1-2.43-.46,6.71,6.71,0,0,1-.53-12.26.49.49,0,0,1,.17-.06l.37-.09,2.69-6.91a.76.76,0,0,1,.27-.34l3.9-2.8a.78.78,0,0,1,.61-.12.75.75,0,0,1,.51.36l3.29,5.6a.75.75,0,0,1,.06.65l-2.65,7.32a6.71,6.71,0,0,1-6.26,9.11m-2.36-11.29a5.15,5.15,0,0,0,.49,9.38,5,5,0,0,0,1.87.36,5.16,5.16,0,0,0,4.73-7.23.73.73,0,0,1,0-.58l2.63-7.25-2.69-4.56-3,2.17L168,154.47a.8.8,0,0,1-.54.47Zm2.67,7.89a3.49,3.49,0,0,1-1.24-.23,3.43,3.43,0,0,1-1.94-4.42,3.39,3.39,0,0,1,3.18-2.17,3.54,3.54,0,0,1,1.24.23,3.41,3.41,0,0,1-1.24,6.59m0-5.28a1.87,1.87,0,0,0-1.71,2.62,1.86,1.86,0,0,0,3.44-.08,1.8,1.8,0,0,0,0-1.42,1.88,1.88,0,0,0-1-1,2,2,0,0,0-.68-.13"/><line class="cls-7" x1="168.09" y1="152.16" x2="175.41" y2="155.02"/><path class="cls-2" d="M175.41,155.79a.92.92,0,0,1-.28,0l-7.32-2.86a.76.76,0,0,1-.44-1,.77.77,0,0,1,1-.44l7.32,2.85a.78.78,0,0,1-.28,1.5"/><line class="cls-7" x1="169.12" y1="149.63" x2="175.91" y2="152.27"/><path class="cls-2" d="M175.91,153a.69.69,0,0,1-.28,0l-6.79-2.64a.79.79,0,0,1-.44-1,.78.78,0,0,1,1-.44l6.79,2.65a.77.77,0,0,1-.28,1.49"/><path class="cls-7" d="M184.54,149.25a3.1,3.1,0,0,1-4,1.77L167,145.73a3.1,3.1,0,0,1,2.25-5.78l13.56,5.28a3.1,3.1,0,0,1,1.76,4"/><path class="cls-2" d="M181.65,152a4,4,0,0,1-1.41-.26l-13.55-5.29a3.88,3.88,0,0,1,1.4-7.49,3.76,3.76,0,0,1,1.41.27l13.56,5.28a3.91,3.91,0,0,1,2.14,2.05,3.83,3.83,0,0,1,.06,3,3.89,3.89,0,0,1-3.61,2.47m-13.56-11.49a2.33,2.33,0,0,0-.84,4.5l13.55,5.28a2.37,2.37,0,0,0,3-1.32,2.33,2.33,0,0,0-1.32-3l-13.56-5.29a2.25,2.25,0,0,0-.85-.16"/><path class="cls-9" d="M144.92,153.22a2.21,2.21,0,0,1-2.68,0L130.13,145c-10.18-7.71-9.32-16.5-9.32-16.5V100.91s10.29,11.15,22.72,0h.24c12.43,11.15,22.47,0,22.47,0v27.55s.86,8.79-9.32,16.5Z"/><path class="cls-2" d="M143.61,154.45a3.16,3.16,0,0,1-1.85-.63L129.7,145.6c-10.44-7.91-9.7-16.84-9.67-17.22V100.91a.78.78,0,0,1,.49-.72.77.77,0,0,1,.85.19c0,.05,4.45,4.71,10.74,4.71,3.71,0,7.38-1.6,10.9-4.76a.82.82,0,0,1,.52-.2h.24a.82.82,0,0,1,.52.2c3.52,3.16,7.16,4.76,10.83,4.76,6.22,0,10.5-4.65,10.55-4.7a.77.77,0,0,1,1.34.52v27.55c0,.3.78,9.23-9.63,17.12l-12,8.27a2.83,2.83,0,0,1-1.75.6m-22-51.79v25.8c0,.15-.66,8.55,9,15.89l12.08,8.23a1.6,1.6,0,0,0,.93.33,1.39,1.39,0,0,0,.85-.31l12-8.27c9.65-7.32,9-15.72,9-15.8V102.68a16.51,16.51,0,0,1-10.35,4c-3.92,0-7.78-1.62-11.47-4.81-3.69,3.19-7.57,4.81-11.54,4.81a17,17,0,0,1-10.53-4"/></svg>