<?xml version="1.0" encoding="utf-8"?>
<!-- Generator: Adobe Illustrator 16.0.0, SVG Export Plug-In . SVG Version: 6.00 Build 0)  -->
<!DOCTYPE svg PUBLIC "-//W3C//DTD SVG 1.1//EN" "http://www.w3.org/Graphics/SVG/1.1/DTD/svg11.dtd">
<svg version="1.1" id="Layer_1" xmlns="http://www.w3.org/2000/svg" xmlns:xlink="http://www.w3.org/1999/xlink" x="0px" y="0px"
	 width="500px" height="500px" viewBox="0 0 500 500" enable-background="new 0 0 500 500" xml:space="preserve">
<g id="Layer_1_copy_83">
	<g>
		<path fill="#FDD08C" d="M363.464,400.039c0,0,14.271,27.805-9.476,28.256c-3.158-3.077,2.442,15.965-14.459,8.025
			c-26.026-12.208-65.309-5.32-65.309-5.32l-90.854,21.657c0,0-12.567,3.725-15.402-8.125
			c-3.111-13.019,11.379-14.475,11.379-14.475s80.808-18.419,87.179-20.878c0,0,50.689-8.393,62.234-47.438
			C335.485,356.791,363.464,400.039,363.464,400.039z"/>
		<path fill="#3C2517" d="M179.031,455.849c-7.035,0-12.007-3.896-13.635-10.698c-1.055-4.427-0.483-8.232,1.713-11.314
			c3.642-5.135,10.535-6.22,11.783-6.38c22.532-5.137,81.607-18.781,86.681-20.731c0.165-0.062,0.339-0.111,0.514-0.14
			c0.491-0.087,49.202-8.612,60.139-45.591c0.163-0.555,0.503-1.037,0.968-1.379c0.805-0.596,1.787-0.904,2.834-0.904
			c9.128,0,29.599,30.538,35.651,39.9c0.464,0.875,8.228,16.232,2.638,25.597c-2.439,4.071-6.836,6.314-13.078,6.679
			c-0.402,3.195-1.443,10.024-8.738,10.024c-2.292,0-4.937-0.721-8.091-2.199c-9.913-4.646-22.995-7.012-38.89-7.012
			c-13.867,0-24.734,1.876-24.842,1.898l-90.701,21.625C183.884,455.251,181.793,455.849,179.031,455.849z M267.204,411.74
			c-8.093,2.826-84.009,20.143-87.274,20.891c-0.105,0.024-0.213,0.041-0.321,0.052c-0.051,0.011-5.688,0.647-8.212,4.221
			c-1.284,1.815-1.562,4.108-0.865,7.023c1.066,4.473,3.851,6.653,8.5,6.653c2.011,0,3.576-0.444,3.593-0.449l90.984-21.696
			c0.617-0.111,11.588-2.011,25.91-2.011c16.675,0,30.512,2.53,41.127,7.519c2.404,1.128,4.377,1.689,5.854,1.689
			c2.196,0,2.989-1.263,3.534-5.646c0.217-1.746,0.575-4.671,3.375-4.671c0.464,0,0.908,0.104,1.341,0.314
			c4.492-0.222,7.531-1.612,9.035-4.131c3.41-5.705-0.771-16.557-2.667-20.244c-10.98-16.958-25.331-35.252-30.353-37.113
			c-5.267,15.945-17.775,29.178-36.287,38.33C281.096,409.084,269.122,411.404,267.204,411.74z"/>
	</g>
	<g>
		<path fill="#CDEAE9" d="M327.503,144.969c-43.045-27.058-22.552-87.521-22.552-87.521l-113.053-3.075l-94.293,3.075
			c0,0,20.498,60.464-22.542,87.521c0,0-59.854,42.225-23.775,127.491c36.073,85.265,71.737,110.672,71.737,110.672
			c0,10.079,34.686,18.251,77.479,18.251c0.263,0,0.519-0.007,0.776-0.007c0.259,0,0.515,0.007,0.781,0.007
			c42.786,0,77.479-8.172,77.479-18.251c0,0,35.664-25.407,71.738-110.672C387.355,187.194,327.503,144.969,327.503,144.969z"/>
		<path fill="#3C2517" d="M202.062,404.02l-1.001-0.006l-0.557,0.006c-38.409,0-77.277-6.676-79.969-19.457
			c-6.062-4.75-38.552-32.778-71.684-111.072c-19.021-44.966-11.354-78.069-1.572-97.917c10.627-21.568,25.627-32.312,26.262-32.759
			c17.126-10.769,25.933-28.119,26.296-51.644c0.278-17.857-4.675-32.73-4.729-32.879c-0.27-0.791-0.142-1.662,0.329-2.348
			c0.479-0.685,1.252-1.106,2.084-1.133l94.284-3.076l113.22,3.076c0.839,0.021,1.611,0.44,2.091,1.129
			c0.476,0.684,0.604,1.56,0.336,2.352c-0.05,0.147-5.006,15.021-4.729,32.879c0.363,23.524,9.171,40.875,26.179,51.564
			c0.732,0.512,61.286,44.525,24.808,130.755c-33.124,78.294-65.617,106.321-71.68,111.071
			C279.34,397.344,240.471,404.02,202.062,404.02z M201.253,398.736l0.809,0.008c45.685,0,74.838-9.245,74.838-15.611
			c0-0.85,0.414-1.646,1.109-2.145c0.348-0.248,35.562-26.172,70.841-109.557c34.845-82.355-22.287-123.896-22.872-124.31
			c-38.199-24.008-28.077-73.721-24.51-87.134l-109.644-2.98l-90.74,2.963c3.568,13.384,13.702,63.142-24.622,87.23
			c-2.249,1.603-57.529,42.024-22.747,124.229c35.378,83.614,70.493,109.31,70.841,109.557c0.696,0.49,1.109,1.296,1.109,2.146
			c0,6.366,29.153,15.611,74.838,15.611l0.487-0.007H201.253L201.253,398.736z"/>
	</g>
	<g>
		<path fill="#FBB041" d="M47.573,182.191c-8.846,21.086-12.554,51.207,4.043,90.439c36.078,85.269,71.741,110.677,71.741,110.677
			c0,10.078,34.689,18.242,77.479,18.242c0.264,0,0.519,0,0.777-0.007c0.259,0.007,0.515,0.007,0.781,0.007
			c42.784,0,77.479-8.164,77.479-18.242c0,0,35.663-25.408,71.737-110.677c16.151-38.178,12.019-69.566,3.691-90.561"/>
		<path fill="#3C2517" d="M202.395,404.188h-1.001h-0.558c-38.408,0-77.277-6.678-79.968-19.459
			c-6.066-4.746-38.557-32.778-71.679-111.07c-14.278-33.739-15.639-64.857-4.049-92.485c0.562-1.347,2.111-1.978,3.452-1.417
			c1.346,0.564,1.979,2.113,1.416,3.456c-11.019,26.271-9.662,56.011,4.04,88.39c35.276,83.383,70.491,109.305,70.844,109.561
			c0.691,0.488,1.105,1.294,1.105,2.145c0,6.368,29.153,15.61,74.838,15.61l0.487-0.007l0.263-0.01l0.809,0.017
			c45.685,0,74.838-9.242,74.838-15.61c0-0.851,0.414-1.654,1.104-2.145c0.353-0.256,35.567-26.178,70.845-109.561
			c16.546-39.118,11.131-69.75,3.669-88.56c-0.537-1.354,0.123-2.888,1.479-3.423c1.348-0.538,2.883,0.124,3.424,1.477
			c7.825,19.728,13.531,51.799-3.71,92.562c-33.125,78.299-65.619,106.324-71.682,111.07
			C279.672,397.51,240.803,404.188,202.395,404.188z"/>
	</g>
	<g>
		<path fill="#FCC067" d="M354.026,180.394c0,10.073-68.358,18.244-152.685,18.244c-84.322,0-152.681-8.171-152.681-18.244
			c0-10.077,68.358-18.246,152.681-18.246C285.668,162.148,354.026,170.316,354.026,180.394z"/>
		<path fill="#3C2517" d="M201.343,201.272c-1.551,0-155.316-0.238-155.316-20.878c0-20.645,153.766-20.882,155.316-20.882
			c1.554,0,155.321,0.237,155.321,20.882C356.664,201.034,202.896,201.272,201.343,201.272z M51.292,180.486
			c0.081,0,3.026,5.671,44.598,10.444c28.473,3.269,65.923,5.068,105.453,5.068c39.529,0,76.984-1.799,105.457-5.068
			c41.775-4.796,44.544-10.499,44.599-10.632l0,0c-0.081,0-3.023-5.671-44.599-10.444c-28.473-3.269-65.928-5.068-105.457-5.068
			c-39.53,0-76.98,1.799-105.453,5.068C54.113,174.652,51.346,180.354,51.292,180.486L51.292,180.486z"/>
	</g>
	<g>
		<path fill="#FDD08C" d="M355.867,441.905c-11.068,2.649-24.728-14.781-30.515-38.937c-5.783-24.154-1.501-45.88,9.567-48.533
			L447.83,327.4l14.455,50.664l6.491,36.801L355.867,441.905z"/>
		<path fill="#3C2517" d="M353.59,444.81c-12.128,0-25.082-17.343-30.801-41.228c-6.216-25.959-1.159-48.678,11.517-51.708
			l112.914-27.042c1.369-0.325,2.767,0.486,3.151,1.842l14.451,50.672c0.022,0.079,0.043,0.174,0.062,0.262l6.49,36.803
			c0.244,1.372-0.626,2.699-1.983,3.025l-112.914,27.035C355.542,444.694,354.571,444.81,353.59,444.81z M445.991,330.555
			l-110.46,26.45c-8.432,2.015-13.507,20.72-7.611,45.354c5.953,24.861,18.947,39.003,27.332,36.98l110.499-26.463l-6.039-34.219
			L445.991,330.555z"/>
	</g>
	<g>
		<g>
			<path fill="#B18A51" d="M414.897,427.782l-5.861,1.384c-11.068,2.65-24.728-14.775-30.514-38.932
				c-5.784-24.157-1.496-45.889,9.566-48.534l5.865-1.392c-11.069,2.646-15.349,24.377-9.568,48.533
				C390.169,412.999,403.828,430.426,414.897,427.782"/>
			<path fill="#3C2517" d="M406.763,430.754c-11.34,0-24.035-17.289-29.521-40.219c-2.842-11.861-3.392-23.543-1.546-32.895
				c1.913-9.695,6.2-15.813,12.084-17.224l5.869-1.394c0.712-0.178,1.415,0.271,1.585,0.979c0.171,0.706-0.268,1.42-0.975,1.586
				c-4.821,1.155-8.413,6.544-10.113,15.173c-1.771,8.987-1.229,20.269,1.522,31.768c5.126,21.416,16.968,38.191,26.954,38.191
				c0.657,0,1.303-0.069,1.93-0.222l0.038-0.007c0.712-0.175,1.415,0.271,1.589,0.974c0.17,0.716-0.271,1.422-0.975,1.593l0,0
				h-0.004l0,0c-0.017,0-0.026,0.009-0.038,0.009l-5.827,1.388C408.507,430.654,407.637,430.754,406.763,430.754z M386.896,343.494
				c-4.067,1.83-7.096,6.954-8.613,14.66c-1.768,8.988-1.23,20.266,1.522,31.767c5.199,21.703,17.25,38.562,27.359,38.187
				c-9.724-4.36-19.442-19.666-24.062-38.963c-2.838-11.859-3.391-23.539-1.547-32.887
				C382.632,350.809,384.456,346.486,386.896,343.494z"/>
		</g>
		<g>
			<path fill="#B18A51" d="M447.762,419.902l-5.864,1.391c-11.061,2.653-24.728-14.785-30.507-38.941
				c-5.782-24.146-1.501-45.879,9.564-48.523l5.864-1.391c-11.068,2.645-15.349,24.375-9.563,48.53
				C423.039,405.124,436.696,422.553,447.762,419.902"/>
			<path fill="#3C2517" d="M439.628,422.879c-11.343,0-24.03-17.286-29.525-40.214c-2.834-11.866-3.39-23.55-1.54-32.897
				c1.907-9.694,6.203-15.817,12.088-17.222l5.86-1.396c0,0,0,0,0.003,0l0,0c0.721-0.176,1.419,0.267,1.59,0.979
				c0.171,0.704-0.271,1.418-0.979,1.584c-4.817,1.158-8.412,6.546-10.113,15.173c-1.767,8.99-1.229,20.266,1.523,31.768
				c5.13,21.421,16.967,38.191,26.953,38.191c0.004,0,0.004,0,0.004,0c0.652,0,1.307-0.072,1.93-0.221l0.039-0.008
				c0.714-0.176,1.414,0.27,1.584,0.979c0.171,0.705-0.267,1.418-0.978,1.594l0,0h-0.004l0,0c-0.013,0-0.021,0-0.035,0.007
				l-5.826,1.384C441.367,422.784,440.497,422.879,439.628,422.879z M419.761,335.621c-4.062,1.828-7.09,6.954-8.614,14.661
				c-1.771,8.981-1.229,20.263,1.524,31.764c5.199,21.713,17.228,38.646,27.362,38.188c-9.728-4.363-19.445-19.67-24.062-38.961
				c-2.841-11.864-3.389-23.549-1.55-32.892C415.496,342.926,417.325,338.611,419.761,335.621z"/>
		</g>
		<g>
			<path fill="#B18A51" d="M382.027,435.648l-5.859,1.393c-11.068,2.65-24.728-14.783-30.511-38.939
				c-5.78-24.158-1.5-45.879,9.567-48.533l5.86-1.385c-11.063,2.646-15.348,24.377-9.563,48.529
				C357.301,420.869,370.968,438.301,382.027,435.648"/>
			<path fill="#3C2517" d="M373.895,438.625c-11.34,0-24.026-17.293-29.518-40.214c-6.047-25.24-1.415-47.265,10.539-50.124
				l5.869-1.383c0.711-0.189,1.414,0.267,1.584,0.975c0.171,0.705-0.268,1.418-0.979,1.585c-4.819,1.157-8.407,6.546-10.111,15.175
				c-1.771,8.98-1.23,20.269,1.522,31.771c5.129,21.407,16.967,38.188,26.957,38.188l0,0c0.653,0,1.303-0.078,1.93-0.224
				c0.004,0,0.004,0,0.004,0l0.034-0.005c0.712-0.183,1.415,0.263,1.59,0.974c0.17,0.709-0.271,1.42-0.979,1.587l0,0h-0.005l0,0
				c-0.011,0.006-0.027,0.006-0.042,0.015l-5.817,1.376C375.635,438.52,374.769,438.625,373.895,438.625L373.895,438.625z
				 M354.026,351.369c-9.035,4.107-12.317,24.584-7.083,46.427c5.128,21.412,16.961,38.194,26.95,38.194l0,0
				c0.132,0,0.268-0.009,0.401-0.009c-9.723-4.37-19.441-19.667-24.062-38.964c-2.838-11.855-3.388-23.537-1.541-32.893
				C349.767,358.684,351.591,354.359,354.026,351.369z"/>
		</g>
	</g>
	<g>
		<path fill="#BD9C69" d="M478.347,366.334c5.782,24.156,1.499,45.878-9.568,48.53c-11.064,2.651-24.731-14.783-30.511-38.931
			c-5.783-24.158-1.505-45.885,9.563-48.535C458.899,324.75,472.558,342.178,478.347,366.334z"/>
		<path fill="#3C2517" d="M466.504,417.77c-12.131,0-25.082-17.336-30.805-41.229c-6.217-25.955-1.155-48.675,11.521-51.709
			c0.94-0.227,1.91-0.335,2.89-0.335c12.128,0,25.082,17.334,30.805,41.226c2.88,12.045,3.433,23.92,1.558,33.449
			c-2.021,10.238-6.665,16.727-13.079,18.256C468.453,417.654,467.479,417.77,466.504,417.77z M450.108,329.77
			c-0.564,0-1.122,0.066-1.658,0.193c-8.439,2.021-13.517,20.727-7.62,45.352c5.954,24.862,18.982,39.006,27.332,36.983
			c4.226-1.014,7.559-6.168,9.132-14.144c1.731-8.803,1.194-19.883-1.516-31.205C470.203,343.673,458.352,329.77,450.108,329.77z"/>
	</g>
	<g>
		<path fill="#CDEAE9" d="M305.203,57.447c0,10.073-46.527,18.24-103.923,18.24c-57.39,0-103.917-8.167-103.917-18.24
			c0-10.075,46.527-18.243,103.917-18.243C258.676,39.204,305.203,47.372,305.203,57.447z"/>
		<path fill="#3C2517" d="M201.28,78.325c-27.903,0-54.166-1.912-73.937-5.381c-32.621-5.728-32.621-13.083-32.621-15.497
			c0-2.418,0-9.771,32.621-15.497c19.771-3.472,46.033-5.384,73.937-5.384c27.906,0,54.167,1.912,73.938,5.384
			c32.621,5.726,32.621,13.079,32.621,15.497c0,2.415,0,9.77-32.621,15.497C255.447,76.414,229.187,78.325,201.28,78.325z
			 M201.28,41.842C134.786,41.842,99.999,52,99.999,57.447c0,5.443,34.787,15.603,101.281,15.603
			c66.496,0,101.286-10.16,101.286-15.603C302.565,52,267.775,41.842,201.28,41.842z"/>
	</g>
</g>
</svg>
