<?xml version="1.0" encoding="utf-8"?>
<!-- Generator: Adobe Illustrator 16.0.0, SVG Export Plug-In . SVG Version: 6.00 Build 0)  -->
<!DOCTYPE svg PUBLIC "-//W3C//DTD SVG 1.1//EN" "http://www.w3.org/Graphics/SVG/1.1/DTD/svg11.dtd">
<svg version="1.1" id="Layer_1" xmlns="http://www.w3.org/2000/svg" xmlns:xlink="http://www.w3.org/1999/xlink" x="0px" y="0px"
	 width="500px" height="500px" viewBox="0 0 500 500" enable-background="new 0 0 500 500" xml:space="preserve">
<g id="Layer_1_copy_83">
	<g>
		<g>
			<rect x="270.805" y="180.045" fill="#F9FCFD" width="192.083" height="169.62"/>
			<path fill="#291911" d="M466.171,352.952H267.518V176.758h198.653V352.952L466.171,352.952z M274.091,346.377H459.6V183.333
				H274.091V346.377z"/>
		</g>
		<g>
			<rect x="254.736" y="157.403" fill="#D7EEEC" width="221.293" height="22.642"/>
			<path fill="#291911" d="M479.317,183.333H251.449V154.12h227.868V183.333L479.317,183.333z M258.023,176.758h214.723V160.69
				H258.023V176.758z"/>
		</g>
		<g>
			<rect x="34.495" y="180.045" fill="#F9FCFD" width="192.08" height="169.62"/>
			<path fill="#291911" d="M229.861,352.952H31.211V176.758h198.65V352.952z M37.781,346.377h185.51V183.333H37.781V346.377z"/>
		</g>
		<g>
			<rect x="21.349" y="157.403" fill="#D7EEEC" width="221.293" height="22.642"/>
			<path fill="#291911" d="M245.929,183.333H18.062V154.12h227.867V183.333z M24.636,176.758h214.722V160.69H24.636V176.758z"/>
		</g>
		<g>
			<rect x="151.028" y="117.767" fill="#F9FCFD" width="192.081" height="242.472"/>
			<path fill="#291911" d="M346.399,363.525H147.744V114.479h198.655V363.525z M154.315,356.955h185.509V121.05H154.315V356.955z"/>
		</g>
		<g>
			<rect x="134.962" y="95.125" fill="#D7EEEC" width="221.296" height="22.642"/>
			<path fill="#291911" d="M359.545,121.05H131.678V91.837h227.867V121.05L359.545,121.05z M138.248,114.479H352.97v-16.07H138.248
				V114.479z"/>
		</g>
		<g>
			<rect x="51.703" y="200.261" fill="#94D6DB" width="27.555" height="27.237"/>
			<path fill="#291911" d="M81.449,229.687H49.511V198.07h31.938V229.687z M53.894,225.307h23.173v-22.854H53.894V225.307z"/>
		</g>
		<g>
			<rect x="102.981" y="200.261" fill="#94D6DB" width="27.558" height="27.237"/>
			<path fill="#291911" d="M132.729,229.687h-31.936V198.07h31.936V229.687z M105.176,225.307h23.169v-22.854h-23.169V225.307z"/>
		</g>
		<g>
			<rect x="177.146" y="246.27" fill="#94D6DB" width="27.556" height="27.242"/>
			<path fill="#291911" d="M206.892,275.699h-31.938v-31.621h31.938V275.699z M179.337,271.316h23.172v-22.854h-23.172V271.316z"/>
		</g>
		<g>
			<rect x="236.263" y="246.27" fill="#94D6DB" width="27.555" height="27.242"/>
			<path fill="#291911" d="M266.009,275.699H234.07v-31.621h31.938L266.009,275.699L266.009,275.699z M238.453,271.316h23.173
				v-22.854h-23.173V271.316z"/>
		</g>
		<g>
			<rect x="295.379" y="246.27" fill="#94D6DB" width="27.555" height="27.242"/>
			<path fill="#291911" d="M325.126,275.699h-31.938v-31.621h31.938V275.699z M297.566,271.316h23.176v-22.854h-23.176V271.316z"/>
		</g>
		<g>
			<rect x="177.146" y="200.261" fill="#94D6DB" width="27.556" height="27.237"/>
			<path fill="#291911" d="M206.892,229.687h-31.938V198.07h31.938V229.687z M179.337,225.307h23.172v-22.854h-23.172V225.307z"/>
		</g>
		<g>
			<rect x="236.263" y="200.261" fill="#94D6DB" width="27.555" height="27.237"/>
			<path fill="#291911" d="M266.009,229.687H234.07V198.07h31.938L266.009,229.687L266.009,229.687z M238.453,225.307h23.173
				v-22.854h-23.173V225.307z"/>
		</g>
		<g>
			<rect x="295.379" y="200.261" fill="#94D6DB" width="27.555" height="27.237"/>
			<path fill="#291911" d="M325.126,229.687h-31.938V198.07h31.938V229.687z M297.566,225.307h23.176v-22.854h-23.176V225.307z"/>
		</g>
		<g>
			<rect x="177.146" y="155.111" fill="#94D6DB" width="27.556" height="27.237"/>
			<path fill="#291911" d="M206.892,184.54h-31.938v-31.621h31.938V184.54z M179.337,180.156h23.172v-22.858h-23.172V180.156z"/>
		</g>
		<g>
			<rect x="236.263" y="155.111" fill="#94D6DB" width="27.555" height="27.237"/>
			<path fill="#291911" d="M266.009,184.54H234.07v-31.621h31.938L266.009,184.54L266.009,184.54z M238.453,180.156h23.173v-22.858
				h-23.173V180.156z"/>
		</g>
		<g>
			<rect x="295.379" y="155.111" fill="#94D6DB" width="27.555" height="27.237"/>
			<path fill="#291911" d="M325.126,184.54h-31.938v-31.621h31.938V184.54z M297.566,180.156h23.176v-22.858h-23.176V180.156z"/>
		</g>
		<g>
			<rect x="51.703" y="246.27" fill="#94D6DB" width="27.555" height="27.242"/>
			<path fill="#291911" d="M81.449,275.699H49.511v-31.621h31.938V275.699z M53.894,271.316h23.173v-22.854H53.894V271.316z"/>
		</g>
		<g>
			<rect x="102.981" y="246.27" fill="#94D6DB" width="27.558" height="27.242"/>
			<path fill="#291911" d="M132.729,275.699h-31.936v-31.621h31.936V275.699z M105.176,271.316h23.169v-22.854h-23.169V271.316z"/>
		</g>
		<g>
			<rect x="51.703" y="290.094" fill="#94D6DB" width="27.555" height="27.234"/>
			<path fill="#291911" d="M81.449,319.523H49.511v-31.625h31.938V319.523z M53.894,315.141h23.173v-22.858H53.894V315.141z"/>
		</g>
		<g>
			<rect x="102.981" y="290.094" fill="#94D6DB" width="27.558" height="27.234"/>
			<path fill="#291911" d="M132.729,319.523h-31.936v-31.625h31.936V319.523z M105.176,315.141h23.169v-22.858h-23.169V315.141z"/>
		</g>
		<g>
			<rect x="361.678" y="200.261" fill="#94D6DB" width="27.556" height="27.237"/>
			<path fill="#291911" d="M391.421,229.687h-31.936V198.07h31.936V229.687z M363.868,225.307h23.173v-22.854h-23.173V225.307z"/>
		</g>
		<g>
			<rect x="412.956" y="200.261" fill="#94D6DB" width="27.555" height="27.237"/>
			<path fill="#291911" d="M442.698,229.687h-31.936V198.07h31.936V229.687z M415.147,225.307h23.172v-22.854h-23.172V225.307z"/>
		</g>
		<g>
			<rect x="361.678" y="246.27" fill="#94D6DB" width="27.556" height="27.242"/>
			<path fill="#291911" d="M391.421,275.699h-31.936v-31.621h31.936V275.699z M363.868,271.316h23.173v-22.854h-23.173V271.316z"/>
		</g>
		<g>
			<rect x="412.956" y="246.27" fill="#94D6DB" width="27.555" height="27.242"/>
			<path fill="#291911" d="M442.698,275.699h-31.936v-31.621h31.936V275.699z M415.147,271.316h23.172v-22.854h-23.172V271.316z"/>
		</g>
		<g>
			<rect x="361.678" y="290.094" fill="#94D6DB" width="27.556" height="27.234"/>
			<path fill="#291911" d="M391.421,319.523h-31.936v-31.625h31.936V319.523z M363.868,315.141h23.173v-22.858h-23.173V315.141z"/>
		</g>
		<g>
			<path fill="#F9FCFD" d="M281.518,106.442c0,19.829-16.076,35.903-35.91,35.903c-19.828,0-35.905-16.074-35.905-35.903
				S225.78,70.54,245.608,70.54C265.439,70.54,281.518,86.613,281.518,106.442z"/>
			<path fill="#291911" d="M245.607,145.632c-21.611,0-39.193-17.581-39.193-39.19c0-21.612,17.582-39.193,39.193-39.193
				c21.612,0,39.193,17.581,39.193,39.193C284.801,128.051,267.221,145.632,245.607,145.632z M245.607,73.824
				c-17.985,0-32.614,14.632-32.614,32.618c0,17.987,14.629,32.619,32.614,32.619c17.986,0,32.62-14.632,32.62-32.619
				C278.227,88.456,263.594,73.824,245.607,73.824z"/>
		</g>
		<g>
			<rect x="412.956" y="290.094" fill="#94D6DB" width="27.555" height="27.234"/>
			<path fill="#291911" d="M442.698,319.523h-31.936v-31.625h31.936V319.523z M415.147,315.141h23.172v-22.858h-23.172V315.141z"/>
		</g>
		<g>
			<polygon fill="#E62925" points="270.755,96.409 256.866,96.409 256.866,82.52 236.412,82.52 236.412,96.409 222.523,96.409 
				222.523,116.475 236.412,116.475 236.412,130.365 256.866,130.365 256.866,116.475 270.755,116.475 			"/>
		</g>
		<g>
			<rect x="213.052" y="295.967" fill="#77471C" width="70.718" height="64.271"/>
			<path fill="#291911" d="M287.057,363.525h-77.292V292.68h77.292V363.525z M216.335,356.955h64.146v-57.699h-64.146V356.955
				L216.335,356.955z"/>
		</g>
		<g>
			<line fill="none" x1="248.215" y1="360.239" x2="248.215" y2="295.967"/>
			<rect x="244.924" y="295.967" fill="#291911" width="6.574" height="64.271"/>
		</g>
	</g>
</g>
</svg>
