<?xml version="1.0" encoding="utf-8"?>
<!-- Generator: Adobe Illustrator 16.0.0, SVG Export Plug-In . SVG Version: 6.00 Build 0)  -->
<!DOCTYPE svg PUBLIC "-//W3C//DTD SVG 1.1//EN" "http://www.w3.org/Graphics/SVG/1.1/DTD/svg11.dtd">
<svg version="1.1" id="Layer_1" xmlns="http://www.w3.org/2000/svg" xmlns:xlink="http://www.w3.org/1999/xlink" x="0px" y="0px"
	 width="500px" height="500px" viewBox="0 0 500 500" enable-background="new 0 0 500 500" xml:space="preserve">
<g id="Layer_1_copy_86">
	<g>
		<path fill="#4E4E4E" d="M468.102,278.364c0,48.34-89.035,87.534-198.861,87.534c-109.823,0-198.863-39.194-198.863-87.534
			c0-48.352,89.04-87.539,198.863-87.539C379.065,190.825,468.102,230.012,468.102,278.364z"/>
		<path fill="#211010" d="M269.239,368.479c-111.077,0-201.443-40.427-201.443-90.114c0-49.693,90.366-90.122,201.443-90.122
			c111.075,0,201.441,40.428,201.441,90.122C470.682,328.052,380.314,368.479,269.239,368.479z M269.239,193.405
			c-108.23,0-196.279,38.114-196.279,84.958c0,46.842,88.049,84.949,196.279,84.949c108.229,0,196.276-38.107,196.276-84.949
			C465.517,231.519,377.468,193.405,269.239,193.405z"/>
	</g>
	<g>
		<path fill="#818181" d="M252.938,155.311c76.581-3.646,144.739,12.438,189.602,44.453c25.314,18.063,54.896,54.503,36.285,97.974
			c-3.529,8.238-8.242,17.328-14.517,24.496c-59.363,67.867-226.467,82.724-325.669,39.914
			c-34.067-14.703-62.66-34.311-75.294-62.597c-22.408-50.146,17.169-88.74,48.078-107.049
			c23.572-13.958,52.783-25.337,86.181-31.75C214.42,157.522,233.654,156.23,252.938,155.311z M198.507,197.041
			c-33.349,6.673-61.43,17.202-84.367,35.381c-8.86,7.027-22.716,23.038-22.675,38.1c0.04,17.756,13.836,30.135,25.399,39.006
			c59.976,46.021,183.775,54.715,265.798,23.591c25.114-9.528,68.04-31.109,68.04-62.597c0-18.127-14.486-31.926-28.125-41.729
			c-41.624-29.913-102.987-41.234-168.731-38.102C233.62,191.653,215.779,193.583,198.507,197.041z"/>
		<path fill="#3C2517" d="M270.348,388.811c-49.296,0-96.436-8.629-132.735-24.293c-40.074-17.299-65.142-38.203-76.631-63.914
			c-10.358-23.188-8.946-46.014,4.192-67.848c12.91-21.444,33.69-35.816,44.928-42.475c25.111-14.867,55.197-25.958,87.011-32.064
			c17.233-3.311,36.957-4.592,55.702-5.485c7.129-0.339,14.301-0.512,21.318-0.512c68.503,0,128.843,16.139,169.903,45.439
			c29.789,21.256,55.192,58.972,37.159,101.091c-4.567,10.676-9.457,18.912-14.94,25.184
			C431.249,363.953,356.18,388.811,270.348,388.811z M274.133,157.387c-6.938,0-14.025,0.168-21.072,0.506
			c-18.557,0.88-38.059,2.146-54.972,5.396c-31.236,5.997-60.751,16.867-85.351,31.436c-68.529,40.6-53.333,89.688-47.037,103.768
			c10.934,24.478,35.125,44.522,73.961,61.28c35.665,15.393,82.076,23.873,130.686,23.873c84.391,0,157.965-24.185,192.016-63.113
			c5.127-5.858,9.73-13.645,14.088-23.814c16.824-39.3-7.264-74.767-35.414-94.854C400.844,173.181,341.571,157.387,274.133,157.387
			z M272.208,354.096h-0.003c-63.555-0.002-122.215-15.894-156.916-42.521c-13.032-9.998-26.364-22.695-26.408-41.048
			c-0.045-16.868,15.456-33.627,23.657-40.13c21.629-17.146,48.79-28.55,85.464-35.889c16.744-3.351,34.447-5.383,55.721-6.399
			c7.061-0.334,14.123-0.504,21-0.504c62.122,0,113.774,13.518,149.363,39.085c19.649,14.128,29.196,28.462,29.196,43.832
			c0,34.807-48.746,57.057-69.709,65.008C351.57,347.678,313.058,354.096,272.208,354.096z M274.723,192.769
			c-6.797,0-13.777,0.167-20.755,0.5c-21.008,0.999-38.466,3.003-54.952,6.303c-35.845,7.174-62.306,18.257-83.274,34.873
			c-8.738,6.932-21.73,22.258-21.693,36.071c0.034,16.113,12.347,27.726,24.389,36.965c33.827,25.949,91.312,41.447,153.769,41.451
			c39.654,0,78.558-6.475,109.541-18.229c19.954-7.572,66.371-28.592,66.371-60.184c0-13.588-8.848-26.552-27.046-39.635
			C386.366,205.949,335.759,192.769,274.723,192.769z"/>
	</g>
	<g>
		<path fill="#DDD4CB" d="M246.06,216.681l-13.073-3.239l-99.872,2.851l-99.872-2.851l-13.073,3.239
			c0,0,2.784,75.723,112.752,80.316l0.053,0.019c0.053-0.004,0.093-0.008,0.141-0.008c0.045,0,0.089,0.004,0.142,0.008l0.048-0.019
			C243.275,292.404,246.06,216.681,246.06,216.681z"/>
		<path fill="#3C2517" d="M133.229,299.594c-0.041,0-0.197-0.015-0.224-0.009c-0.173,0.009-0.317,0-0.463-0.019
			c-110.812-4.75-114.923-82.014-114.957-82.793c-0.045-1.225,0.778-2.308,1.962-2.601l13.072-3.238
			c0.229-0.054,0.464-0.089,0.697-0.074l99.872,2.853l99.724-2.853c0.234-0.015,0.468,0.017,0.689,0.074l13.077,3.238
			c1.183,0.292,2.006,1.375,1.961,2.601c-0.029,0.78-4.148,78.081-115.043,82.795C133.478,299.585,133.352,299.594,133.229,299.594z
			 M22.916,218.659c1.332,12.2,12.825,71.696,110.113,75.759c0.056,0.002,0.114,0,0.167,0c44.159-1.843,77.234-15.968,95.649-40.837
			c11.085-14.975,13.796-29.638,14.437-34.931l-10.573-2.619l-99.521,2.842l-99.669-2.842L22.916,218.659z"/>
	</g>
	<g>
		<path fill="#C4C3C2" d="M246.06,216.681c0,12.962-50.57,23.47-112.945,23.47c-62.378,0-112.945-10.508-112.945-23.47
			c0-12.967,50.567-23.477,112.945-23.477C195.489,193.205,246.06,203.714,246.06,216.681z"/>
		<path fill="#3C2517" d="M133.114,242.735c-56.006,0-115.529-9.131-115.529-26.054c0-16.929,59.523-26.059,115.529-26.059
			c56.002,0,115.525,9.13,115.525,26.059C248.64,233.604,189.116,242.735,133.114,242.735z M133.114,195.789
			c-68.377,0-110.364,12.164-110.364,20.892c0,8.722,41.987,20.89,110.364,20.89c68.373,0,110.364-12.168,110.364-20.89
			C243.479,207.953,201.487,195.789,133.114,195.789z"/>
	</g>
	<g>
		<path fill="#F7F3D2" d="M245.507,214.788c0.2,12.96-50.296,23.472-112.348,23.472c-62.053,0-112.349-10.509-112.349-23.472
			c0,0-0.459-5.532,6.129-6.357c6.592-0.823,15.786-6.499,18.419-7.873c2.632-1.37,3.092-3.566,11.512-6.588
			c8.419-3.02,9.61-13.91,19.864-10.616c10.248,3.294,14.459,0,21.781-1.922c7.323-1.922,33.957-8.512,44.846-2.197
			c10.894,6.316,14.371,4.119,23.432,4.026c9.064-0.091,28.838-4.668,33.319,0.823c4.485,5.493,7.504,5.309,13.911,9.428
			c6.41,4.118,12.082,3.113,17.117,9.06C236.172,208.524,245.47,212.015,245.507,214.788z"/>
	</g>
	<g>
		<path fill="#E0D9AE" d="M42.222,209.484c0,0-6.726,2.885,2.064,7.688c8.784,4.809,36.378,10.982,41.05,10.982
			c4.668,0,37.479,0.552,50.938,0c13.45-0.543,40.085,0.689,53.54-3.571c13.458-4.252,13.321-4.802-6.04-3.432
			c-19.356,1.376-46.955,3.709-61.369,3.709c-14.419,0-33.087-0.278-38.166-2.47c-5.082-2.195-6.455-4.396-13.454-4.396
			c-7.004,0-22.382-2.743-22.931-3.294c-0.549-0.547-3.982-5.491-0.956-6.727C49.915,206.739,47.03,207.699,42.222,209.484z"/>
	</g>
	<g opacity="0.68">
		<path fill="#E0D9AE" d="M91.735,201.871c0,0,33.526,11.376,52.249,9.009c18.723-2.369,40.183-0.161,47.356-2.584
			c7.174-2.43,19.783-1.754,19.331-5.359c-0.456-3.605,3.203-6.854-1.201-9.513c-4.895-0.512-5.31-0.494-3.403,2.017
			c1.901,2.508,4.894,0.91,0.952,4.371c-3.938,3.461-8.92,3.967-13.372,2.577c-4.45-1.389-18.286,1.985-22.632,1.019
			c-4.338-0.971-16.391,2.516-22.601,2.807c-6.21,0.286-11.227,3.402-17.673,0.921c-6.439-2.479-13.31-2.646-19.149-3.848
			c-5.836-1.201-11.753-3.374-16.288-3.389C90.764,199.878,86.578,198.647,91.735,201.871z"/>
	</g>
	<g opacity="0.42">
		<path fill="#E0D9AE" d="M96.313,183.675c0,0,9.202,8.006,14.012,8.19c4.801,0.182,2.189,0.734,13.725,0.734
			c11.538,0,17.848,1.922,27.461,0c9.609-1.922,14.964-4.366,7.549-4.036c-7.411,0.328-9.062,3.623-17.711,2.523
			c-8.646-1.096-15.649-2.608-23.338-3.155c-7.686-0.55-10.025,0.96-12.766-1.375C102.494,184.222,100.711,180.24,96.313,183.675z"
			/>
	</g>
	<g>
		<path fill="#1B6E38" d="M138.453,175.946c-0.215,0.076-0.394,0.093-0.542,0.08c-0.7-0.062-2.261-2.015-3.532-0.026
			c-1.539,2.408-0.212,2.487-1.024,4.819c-0.814,2.336-4.896,3.75-0.814,2.336c4.082-1.417,4.846-2.534,5.371-0.412
			c0.531,2.125-4.145,5.442-1.883,5.35c2.261-0.091,3.597,0.867,3.956-0.777c0.355-1.644-1.402-3.85,0.931-3.531
			c2.34,0.313,6.885-2.542,4.152-3.719c-2.739-1.177-4.85,0.832-3.251-1.857c1.59-2.69,9.603-6.079,3.763-4.268
			c-5.851,1.813-5.086-3.609-6.103-0.803C138.453,175.946,138.453,175.946,138.453,175.946z"/>
	</g>
	<g>
		<path fill="#2A9446" d="M132.317,183.719c0,0-0.982,4.575,0.815,2.777c1.795-1.799,0.33-1.541,3.437-1.18
			c3.104,0.364,4.576,1.018,3.104-1.598c-1.472-2.618-2.562-0.981-1.938-3.596c0.63-2.616,3.622-8.34,0-6.212
			c-3.623,2.125-0.676-6.049-3.134-1.635c-2.442,4.414-4.563-0.037-4.241,3.003c0.326,3.043-1.476-0.553-2.784,1.735
			c-1.305,2.292-2.614,3.109,0,3.435c2.618,0.326,3.596-0.491,2.618,2.289c-0.982,2.779-0.493,2.616,0.815,1.798
			C132.317,183.719,132.317,183.719,132.317,183.719z"/>
	</g>
	<g>
		<path fill="#FBDC8D" d="M319.976,252.029c0,0-27.929-9.433-24.132-0.944c3.793,8.489,3.346,15.603,4.085,18.692
			c0.746,3.094,2.043,21.396,3.526,29.41c1.486,8.022,4.273,20.41,5.572,26.592c1.298,6.182,2.603,4.611,5.388,15.598
			c2.788,10.979,4.645,20.217,4.645,24.051c0,3.838,2.971,15.164,12.813,0c9.843-15.162,22.842-23.703,28.6-26.494
			c5.759-2.791,32.874-27.367,36.396-32.596c3.533-5.229,9.759-18.154,14.351-20.32c4.6-2.162,27.065-16.024,16.48-20.857
			c-10.585-4.837-30.271-4.489-39.931-5.883c-9.658-1.393-21.539-2.09-32.311-4.006C344.688,253.35,319.976,252.029,319.976,252.029
			z"/>
		<path fill="#3C2517" d="M323.45,375.041L323.45,375.041c-4.783,0-6.329-6.477-6.329-9.613c0-3.455-1.713-12.269-4.579-23.576
			c-1.487-5.854-2.531-8.009-3.367-9.742c-0.756-1.562-1.408-2.916-2.042-5.93c-0.367-1.748-0.853-3.998-1.397-6.503
			c-1.387-6.394-3.113-14.358-4.182-20.132c-0.842-4.538-1.595-12.059-2.267-18.693c-0.484-4.819-0.945-9.375-1.245-10.619
			c-0.233-0.993-0.353-2.198-0.496-3.723c-0.366-3.714-0.86-8.793-3.471-14.636c-0.897-2.007-0.472-3.377,0.049-4.173
			c0.911-1.412,2.731-2.095,5.563-2.095c6.773,0,18.704,3.858,20.651,4.506c2.823,0.151,25.165,1.417,35.462,3.25
			c6.284,1.123,12.953,1.82,19.404,2.494c4.553,0.479,8.847,0.926,12.843,1.506c2.784,0.4,6.56,0.662,10.56,0.94
			c9.857,0.687,22.122,1.544,29.896,5.091c3.237,1.483,3.927,3.676,3.938,5.26c0.048,8.337-20.19,19.021-20.398,19.117
			c-2.766,1.305-7.133,8.821-10.025,13.795c-1.297,2.235-2.523,4.35-3.544,5.859c-3.606,5.352-30.901,30.219-37.156,33.251
			c-1.652,0.806-16.474,8.323-27.82,25.804C329.708,372.32,326.519,375.041,323.45,375.041z M297.415,249.805
			c0.034,0.057,0.082,0.228,0.197,0.485c2.864,6.425,3.419,12.09,3.78,15.843c0.131,1.32,0.241,2.465,0.42,3.191
			c0.341,1.428,0.73,5.162,1.326,11.14c0.631,6.236,1.409,13.995,2.223,18.374c1.057,5.717,2.775,13.646,4.158,20.02
			c0.546,2.513,1.034,4.771,1.404,6.527c0.535,2.549,1.038,3.594,1.74,5.038c0.911,1.892,2.046,4.243,3.625,10.476
			c2.992,11.774,4.705,20.718,4.705,24.528c0,2.271,1.098,5.738,2.455,5.738l0,0c0.562,0,2.706-0.489,6.799-6.791
			c11.919-18.362,27.625-26.338,29.379-27.185c5.608-2.717,32.451-27.213,35.64-31.936c0.941-1.4,2.141-3.455,3.403-5.639
			c3.689-6.344,7.864-13.533,11.727-15.352c5.255-2.476,18.197-11.371,18.172-15.595c-0.004-0.267-0.009-0.991-1.674-1.751
			c-7.137-3.261-19.016-4.087-28.559-4.754c-4.07-0.28-7.92-0.549-10.844-0.973c-3.92-0.564-8.181-1.014-12.691-1.488
			c-6.518-0.678-13.258-1.389-19.684-2.527c-10.529-1.879-35.002-3.203-35.246-3.213c-0.179-0.014-0.354-0.044-0.521-0.102
			c-0.13-0.043-13.063-4.384-19.664-4.384C298.22,249.48,297.62,249.702,297.415,249.805z"/>
	</g>
	<g>
		<path fill="#FBDC8D" d="M355.857,256.133c0,0-27.24,11.262-18.803,15.161c8.438,3.901,12.779,9.556,15.372,11.392
			c2.591,1.847,15.607,14.779,21.996,19.842c6.393,5.066,16.636,12.566,21.687,16.367c5.042,3.807,4.989,1.77,14.311,8.207
			c9.316,6.445,16.795,12.182,19.319,15.072c2.514,2.893,12.209,9.467,9.649-8.428c-2.558-17.898,1.62-32.883,4.123-38.768
			c2.503-5.889,6.771-42.231,5.994-48.495c-0.781-6.256-4.592-20.092-2.554-24.746c2.039-4.651,9.851-29.869-1.305-26.553
			c-11.147,3.32-25.754,16.528-33.945,21.828c-8.19,5.304-17.606,12.59-26.978,18.229
			C375.343,240.883,355.857,256.133,355.857,256.133z"/>
		<path fill="#3C2517" d="M436.128,347.709c-3.041,0-6.362-2.551-7.85-4.266c-2.259-2.588-9.348-8.101-18.96-14.748
			c-4.965-3.434-7.169-4.373-8.938-5.127c-1.6-0.686-2.978-1.272-5.437-3.127c-1.429-1.072-3.271-2.444-5.323-3.969
			c-5.254-3.912-11.79-8.779-16.398-12.43c-3.626-2.869-9.152-8.055-14.036-12.627c-3.516-3.299-6.841-6.413-7.879-7.152
			c-0.834-0.59-1.716-1.423-2.836-2.475c-2.714-2.561-6.429-6.055-12.229-8.738c-2.433-1.121-2.766-2.838-2.746-3.754
			c0.109-5.406,14.785-12.111,21.373-14.852c2.235-1.747,19.892-15.475,28.854-20.863c5.478-3.297,10.963-7.156,16.272-10.891
			c3.737-2.628,7.267-5.111,10.65-7.303c2.365-1.528,5.385-3.813,8.575-6.233c7.879-5.965,17.683-13.39,25.875-15.827
			c3.056-0.906,5.494-0.15,6.927,2.041c4.191,6.416-2.191,24.622-3.301,27.148c-1.23,2.807,0.428,11.356,1.523,17.01
			c0.493,2.531,0.957,4.922,1.18,6.72c0.793,6.418-3.414,43.104-6.129,49.491c-0.72,1.688-6.939,17.098-3.989,37.729
			c0.895,6.291,0.424,10.4-1.448,12.559C438.908,347.124,437.618,347.709,436.128,347.709z M337.386,269.294
			c0.063,0.009,0.212,0.113,0.482,0.24c6.373,2.946,10.518,6.851,13.258,9.437c0.972,0.911,1.809,1.7,2.421,2.137
			c1.193,0.85,3.93,3.397,8.286,7.479c4.586,4.3,10.296,9.653,13.796,12.422c4.561,3.613,11.07,8.46,16.306,12.357
			c2.062,1.529,3.907,2.908,5.34,3.988c2.079,1.564,3.146,2.021,4.626,2.648c1.933,0.826,4.329,1.852,9.62,5.504
			c5.886,4.068,16.259,11.477,19.677,15.396c1.046,1.197,3.399,2.931,4.932,2.931c0.422,0,0.629-0.136,0.808-0.349
			c0.486-0.562,1.521-2.608,0.538-9.463c-3.096-21.676,3.496-38.011,4.261-39.801c2.432-5.723,6.555-41.832,5.851-47.498
			c-0.208-1.669-0.66-3.994-1.135-6.46c-1.69-8.717-2.859-15.673-1.269-19.301c2.259-5.15,6.051-19.725,3.604-23.477
			c-0.501-0.762-1.271-0.83-2.581-0.443c-7.52,2.236-17.01,9.424-24.64,15.199c-3.251,2.466-6.324,4.792-8.812,6.399
			c-3.323,2.151-6.822,4.614-10.526,7.219c-5.364,3.775-10.911,7.674-16.507,11.039c-9.168,5.517-28.473,20.61-28.669,20.762
			c-0.142,0.104-0.29,0.195-0.452,0.262C346.792,261.979,337.931,267.232,337.386,269.294z"/>
	</g>
	<g>
		<path fill="#FBDC8D" d="M278.604,213.776c0,0-27.926-9.432-24.133-0.943c3.797,8.489,3.344,15.6,4.086,18.692
			c0.741,3.094,2.043,21.396,3.529,29.413c1.482,8.021,4.271,20.408,5.572,26.592c1.301,6.182,2.603,4.609,5.388,15.596
			c2.783,10.979,4.638,20.217,4.638,24.051s2.974,15.165,12.82,0c9.84-15.167,22.838-23.703,28.6-26.494
			c5.755-2.789,32.871-27.367,36.399-32.596c3.53-5.229,9.755-18.157,14.349-20.321s27.064-16.027,16.479-20.86
			s-30.271-4.486-39.93-5.88c-9.658-1.393-21.544-2.092-32.311-4.007C303.318,215.098,278.604,213.776,278.604,213.776z"/>
		<path fill="#3C2517" d="M282.082,336.787L282.082,336.787c-4.783-0.005-6.333-6.477-6.333-9.611
			c0-3.451-1.713-12.267-4.579-23.578c-1.486-5.85-2.527-8.007-3.365-9.742c-0.757-1.562-1.406-2.914-2.044-5.929
			c-0.366-1.747-0.849-3.993-1.395-6.497c-1.39-6.398-3.113-14.361-4.187-20.137c-0.842-4.543-1.602-12.075-2.265-18.719
			c-0.485-4.811-0.945-9.354-1.242-10.599c-0.237-0.99-0.353-2.194-0.504-3.718c-0.358-3.711-0.856-8.793-3.467-14.635
			c-0.897-2.008-0.472-3.377,0.045-4.177c0.916-1.407,2.735-2.09,5.571-2.09c6.773,0,18.705,3.857,20.649,4.5
			c2.822,0.156,25.164,1.418,35.464,3.255c6.279,1.118,12.953,1.816,19.404,2.493c4.549,0.479,8.847,0.929,12.843,1.502
			c2.784,0.404,6.56,0.667,10.557,0.945c9.86,0.685,22.126,1.54,29.899,5.09c3.232,1.479,3.923,3.674,3.936,5.256
			c0.051,8.483-20.191,19.023-20.396,19.121c-2.765,1.301-7.132,8.821-10.023,13.795c-1.299,2.236-2.524,4.349-3.545,5.858
			c-3.61,5.351-30.901,30.222-37.156,33.253c-1.653,0.803-16.479,8.321-27.82,25.805C288.34,334.07,285.145,336.787,282.082,336.787
			z M256.044,211.557c0.037,0.053,0.078,0.224,0.192,0.482c2.873,6.419,3.422,12.089,3.791,15.844
			c0.127,1.32,0.238,2.462,0.412,3.189c0.346,1.428,0.729,5.154,1.332,11.117c0.627,6.24,1.404,14.012,2.217,18.396
			c1.061,5.718,2.779,13.647,4.16,20.021c0.545,2.514,1.033,4.77,1.404,6.521c0.538,2.555,1.041,3.596,1.738,5.043
			c0.916,1.893,2.051,4.245,3.63,10.475c2.988,11.779,4.702,20.719,4.702,24.529c0,2.27,1.102,5.738,2.458,5.738l0,0
			c0.56,0,2.702-0.49,6.799-6.792c11.913-18.36,27.625-26.335,29.378-27.183c5.606-2.718,32.448-27.211,35.637-31.938
			c0.945-1.399,2.144-3.456,3.407-5.636c3.686-6.344,7.859-13.533,11.724-15.354c5.254-2.476,18.195-11.375,18.17-15.594
			c0-0.271-0.003-0.992-1.668-1.752c-7.138-3.26-19.017-4.087-28.56-4.753c-4.074-0.284-7.915-0.551-10.844-0.973
			c-3.92-0.564-8.179-1.012-12.691-1.484c-6.517-0.682-13.262-1.392-19.687-2.535c-10.529-1.874-34.999-3.2-35.247-3.212
			c-0.179-0.01-0.353-0.041-0.517-0.101c-0.129-0.041-13.063-4.382-19.664-4.382C256.85,211.227,256.247,211.449,256.044,211.557z"
			/>
	</g>
	<g>
		<path fill="#FBDC8D" d="M337.806,154.639c0,0-16.646-24.327-18.717-15.265c-2.072,9.067-6.71,14.479-7.979,17.394
			c-1.265,2.921-11.227,18.326-14.866,25.625c-3.631,7.298-8.854,18.873-11.53,24.594c-2.682,5.723-0.696,5.248-5.071,15.7
			c-4.379,10.446-8.449,18.947-10.76,22.011c-2.307,3.062-6.74,13.903,10.24,7.709c16.984-6.206,32.507-5.208,38.783-3.977
			c6.28,1.232,42.723-2.098,48.684-4.155c5.962-2.056,18.715-8.642,23.685-7.606c4.972,1.034,31.265,3.469,25.712-6.761
			c-5.552-10.228-21.493-21.786-28.37-28.708c-6.878-6.92-15.953-14.626-23.406-22.632
			C356.753,170.556,337.806,154.639,337.806,154.639z"/>
		<path fill="#3C2517" d="M270.885,256.223c-3.496,0-5.006-1.562-5.66-2.873c-1.726-3.457,0.938-8.26,2.112-9.814
			c2.067-2.75,5.998-10.82,10.519-21.599c2.328-5.563,2.795-7.912,3.17-9.799c0.336-1.706,0.627-3.181,1.937-5.971
			c0.757-1.622,1.72-3.716,2.794-6.049c2.737-5.941,6.145-13.335,8.762-18.587c2.055-4.132,5.973-10.597,9.433-16.298
			c2.507-4.145,4.879-8.058,5.391-9.236c0.403-0.932,1.034-1.964,1.831-3.27c1.943-3.187,4.605-7.546,6.028-13.782
			c0.73-3.183,2.918-3.528,3.823-3.528c5.453,0,15.145,13.421,18.232,17.913c2.169,1.826,19.249,16.265,26.371,23.92
			c4.356,4.673,9.261,9.245,14.007,13.664c3.353,3.116,6.511,6.058,9.357,8.92c1.982,1.998,4.843,4.479,7.871,7.105
			c7.464,6.473,16.75,14.531,20.829,22.042c1.546,2.854,1.012,4.897,0.284,6.114c-1.809,3.043-6.836,4.519-15.366,4.519l0,0
			c-5.279,0-10.623-0.615-12.729-1.052c-0.219-0.045-0.485-0.067-0.793-0.067c-3.521,0-10.177,2.81-15.526,5.064
			c-2.377,1.005-4.619,1.956-6.337,2.545c-5.546,1.911-33.268,4.529-44.688,4.529c-2.329,0-3.963-0.101-5.001-0.301
			c-1.354-0.267-5.104-0.887-10.656-0.887c-6.389,0-16.276,0.828-27.091,4.776C276.102,255.57,273.193,256.223,270.885,256.223z
			 M321.113,139.294c-0.003,0.061-0.07,0.226-0.138,0.514c-1.567,6.849-4.537,11.715-6.499,14.935
			c-0.692,1.131-1.286,2.11-1.588,2.796c-0.585,1.349-2.52,4.565-5.635,9.701c-3.247,5.359-7.289,12.029-9.275,16.016
			c-2.588,5.2-5.979,12.565-8.705,18.482c-1.08,2.343-2.043,4.443-2.807,6.071c-1.109,2.361-1.336,3.503-1.646,5.079
			c-0.407,2.058-0.914,4.62-3.396,10.545c-2.762,6.597-7.87,18.28-10.995,22.432c-1.258,1.667-2.313,4.607-1.738,5.753
			c0.299,0.604,1.359,0.731,2.193,0.731c1.821,0,4.367-0.597,7.578-1.762c11.346-4.145,21.714-5.015,28.414-5.015
			c5.683,0,9.58,0.6,11.401,0.954c0.536,0.105,1.708,0.231,4.256,0.231c11.837,0,38.624-2.661,43.426-4.313
			c1.59-0.553,3.777-1.474,6.094-2.452c6.756-2.853,14.557-6.059,18.613-5.225c1.946,0.402,6.938,0.974,11.941,0.974l0,0
			c7.722,0,11.28-1.356,12.038-2.628c0.308-0.51,0.182-1.279-0.364-2.287c-3.74-6.892-12.734-14.692-19.961-20.963
			c-3.08-2.675-5.994-5.2-8.078-7.299c-2.792-2.81-5.924-5.726-9.242-8.818c-4.802-4.466-9.762-9.083-14.208-13.862
			c-7.292-7.833-26.044-23.604-26.233-23.761c-0.134-0.115-0.253-0.247-0.355-0.391
			C330.843,147.894,323.564,139.507,321.113,139.294z"/>
	</g>
	<g>
		<path fill="#FBDC8D" d="M394.678,159.754c0,0-16.644-24.329-18.72-15.264c-2.072,9.062-6.706,14.476-7.971,17.392
			c-1.271,2.919-11.237,18.324-14.87,25.624c-3.634,7.298-8.858,18.871-11.534,24.594c-2.681,5.72-0.696,5.25-5.076,15.699
			c-4.375,10.447-8.444,18.947-10.751,22.012c-2.306,3.062-6.741,13.905,10.239,7.705c16.98-6.195,32.504-5.207,38.78-3.971
			c6.28,1.23,42.723-2.1,48.688-4.155c5.958-2.056,18.712-8.646,23.685-7.611c4.972,1.038,31.261,3.469,25.708-6.757
			c-5.548-10.229-21.489-21.79-28.367-28.708c-6.881-6.918-15.953-14.626-23.409-22.636
			C413.623,175.67,394.678,159.754,394.678,159.754z"/>
		<path fill="#3C2517" d="M327.758,261.333c-3.496,0-5.01-1.562-5.665-2.872c-1.721-3.456,0.938-8.258,2.113-9.812
			c2.072-2.75,6.002-10.821,10.519-21.596c2.328-5.57,2.794-7.918,3.169-9.804c0.339-1.707,0.628-3.179,1.937-5.971
			c0.752-1.603,1.705-3.676,2.766-5.984c2.747-5.959,6.166-13.38,8.79-18.652c2.056-4.136,5.979-10.605,9.439-16.315
			c2.507-4.136,4.876-8.045,5.388-9.219c0.4-0.932,1.034-1.964,1.828-3.273c1.942-3.181,4.604-7.541,6.031-13.777
			c0.728-3.186,2.914-3.529,3.821-3.529c5.454,0,15.143,13.421,18.23,17.911c2.172,1.83,19.249,16.267,26.375,23.919
			c4.356,4.681,9.265,9.254,14.015,13.677c3.344,3.114,6.503,6.054,9.351,8.915c1.977,1.993,4.835,4.47,7.859,7.093
			c7.468,6.477,16.759,14.538,20.832,22.054c1.551,2.852,1.014,4.897,0.293,6.109c-1.816,3.044-6.84,4.523-15.372,4.523
			c-0.003,0,0,0-0.003,0c-5.279,0-10.616-0.616-12.721-1.054c-0.223-0.048-0.489-0.072-0.793-0.072
			c-3.521,0-10.178,2.812-15.522,5.07c-2.381,1.004-4.628,1.952-6.345,2.545c-5.542,1.911-33.267,4.531-44.688,4.531
			c-2.328,0-3.963-0.104-5.002-0.305c-1.354-0.268-5.099-0.889-10.651-0.889c-6.388,0-16.272,0.83-27.091,4.775
			C332.974,260.68,330.06,261.333,327.758,261.333z M377.986,144.407c-0.003,0.062-0.074,0.228-0.142,0.514
			c-1.563,6.854-4.534,11.716-6.495,14.934c-0.692,1.132-1.291,2.112-1.587,2.799c-0.586,1.348-2.518,4.556-5.624,9.682
			c-3.255,5.367-7.301,12.042-9.288,16.035c-2.599,5.218-6.002,12.607-8.736,18.547c-1.068,2.315-2.021,4.392-2.774,6.006
			c-1.107,2.361-1.334,3.498-1.646,5.077c-0.408,2.056-0.916,4.622-3.4,10.548c-2.762,6.592-7.863,18.272-10.996,22.432
			c-1.254,1.668-2.309,4.604-1.738,5.752c0.301,0.604,1.36,0.729,2.198,0.729c1.816,0,4.363-0.593,7.574-1.762
			c11.349-4.144,21.719-5.015,28.418-5.015c5.684,0,9.58,0.602,11.4,0.959c0.533,0.104,1.706,0.233,4.253,0.233
			c11.842,0,38.625-2.665,43.426-4.319c1.59-0.551,3.785-1.471,6.099-2.454c6.76-2.849,14.548-6.053,18.611-5.22
			c1.946,0.401,6.929,0.973,11.935,0.973c7.727,0,11.285-1.356,12.045-2.63c0.302-0.512,0.18-1.278-0.361-2.284
			c-3.745-6.896-12.743-14.704-19.974-20.973c-3.076-2.671-5.986-5.196-8.07-7.289c-2.788-2.807-5.921-5.725-9.234-8.812
			c-4.802-4.469-9.767-9.088-14.212-13.871c-7.296-7.834-26.045-23.604-26.237-23.763c-0.13-0.113-0.253-0.245-0.353-0.389
			C387.712,153.008,380.434,144.624,377.986,144.407z"/>
	</g>
	<g>
		<path fill="#FBDC8D" d="M298.987,251.023c0,0-27.242,11.256-18.802,15.158c8.438,3.901,12.779,9.555,15.373,11.394
			c2.591,1.847,15.604,14.778,21.995,19.841c6.393,5.064,16.637,12.562,21.683,16.367c5.042,3.806,4.993,1.767,14.313,8.208
			c9.316,6.44,16.795,12.18,19.315,15.071c2.519,2.892,12.209,9.465,9.654-8.432c-2.559-17.896,1.619-32.877,4.122-38.766
			c2.504-5.889,6.774-42.233,5.991-48.489c-0.782-6.262-4.59-20.103-2.551-24.748c2.04-4.651,9.851-29.873-1.305-26.553
			c-11.152,3.314-25.756,16.528-33.946,21.826c-8.189,5.304-17.606,12.589-26.979,18.225
			C318.474,235.768,298.987,251.023,298.987,251.023z"/>
		<path fill="#3C2517" d="M379.262,342.592h-0.003c-3.041,0-6.362-2.547-7.85-4.263c-2.27-2.593-9.354-8.108-18.96-14.743
			c-4.964-3.434-7.166-4.374-8.938-5.128c-1.598-0.687-2.978-1.274-5.438-3.128c-1.45-1.094-3.326-2.49-5.421-4.051
			c-5.225-3.887-11.724-8.725-16.298-12.346c-3.626-2.875-9.154-8.054-14.03-12.621c-3.521-3.304-6.844-6.418-7.889-7.158
			c-0.828-0.59-1.709-1.424-2.826-2.473c-2.713-2.561-6.428-6.062-12.233-8.742c-2.437-1.125-2.767-2.836-2.747-3.756
			c0.109-5.408,14.785-12.109,21.373-14.851c2.239-1.745,19.895-15.477,28.855-20.867c5.477-3.293,10.971-7.158,16.279-10.891
			c3.733-2.63,7.264-5.111,10.647-7.302c2.36-1.527,5.38-3.811,8.576-6.236c7.874-5.959,17.677-13.384,25.866-15.82
			c3.045-0.904,5.497-0.152,6.93,2.04c4.191,6.415-2.191,24.625-3.3,27.147c-1.231,2.809,0.43,11.362,1.522,17.017
			c0.49,2.53,0.953,4.914,1.18,6.713c0.798,6.419-3.419,43.104-6.133,49.489c-0.719,1.689-6.937,17.105-3.988,37.734
			c0.896,6.293,0.427,10.397-1.445,12.556C382.039,342.01,380.745,342.592,379.262,342.592z M280.518,264.184
			c0.062,0.01,0.207,0.113,0.481,0.24c6.38,2.948,10.521,6.854,13.269,9.439c0.965,0.91,1.803,1.697,2.414,2.13
			c1.194,0.853,3.927,3.401,8.294,7.491c4.582,4.295,10.284,9.64,13.783,12.41c4.527,3.59,11,8.407,16.206,12.278
			c2.1,1.562,3.986,2.966,5.439,4.065c2.08,1.566,3.146,2.023,4.626,2.654c1.933,0.826,4.335,1.851,9.621,5.5
			c9.999,6.912,17.174,12.524,19.676,15.396c1.045,1.198,3.399,2.932,4.935,2.932l0,0c0.419,0,0.627-0.14,0.806-0.348
			c0.485-0.56,1.517-2.604,0.538-9.465c-3.098-21.673,3.491-38.011,4.256-39.802c2.436-5.728,6.559-41.829,5.854-47.495
			c-0.208-1.665-0.66-3.992-1.135-6.455c-1.694-8.721-2.858-15.681-1.269-19.305c2.255-5.15,6.052-19.724,3.604-23.475
			c-0.501-0.766-1.275-0.836-2.585-0.446c-7.515,2.233-17.009,9.422-24.636,15.197c-3.256,2.465-6.329,4.792-8.81,6.401
			c-3.317,2.144-6.817,4.606-10.521,7.213c-5.369,3.773-10.914,7.68-16.515,11.043c-9.168,5.521-28.477,20.612-28.669,20.761
			c-0.141,0.109-0.293,0.201-0.457,0.268C289.915,256.868,281.059,262.123,280.518,264.184z"/>
	</g>
</g>
</svg>
