<?xml version="1.0" encoding="utf-8"?>
<!-- Generator: Adobe Illustrator 16.0.0, SVG Export Plug-In . SVG Version: 6.00 Build 0)  -->
<!DOCTYPE svg PUBLIC "-//W3C//DTD SVG 1.1//EN" "http://www.w3.org/Graphics/SVG/1.1/DTD/svg11.dtd">
<svg version="1.1" id="Layer_1" xmlns="http://www.w3.org/2000/svg" xmlns:xlink="http://www.w3.org/1999/xlink" x="0px" y="0px"
	 width="500px" height="500px" viewBox="0 0 500 500" enable-background="new 0 0 500 500" xml:space="preserve">
<g id="Layer_1_copy_82">
	<g>
		<g>
			<path fill="#E01D42" d="M244.542,95.33c2.525,0,5.053,0,7.575,0c4.988,0.561,10.193,1.445,14.404,2.955
				c4.271,1.534,8.272,3.648,11.268,6.096c6.382,5.222,12.175,16.234,9.236,28.261c-1.81,7.394-6.767,12.304-11.822,16.617
				c-2.432,2.077-5.331,4.068-8.124,6.099c-2.587,1.876-6.09,4.233-7.756,6.647c-2.399,3.475-2.679,7.648-4.804,10.158
				c-0.817,0.962-2.113,1.812-3.14,2.213c-10.938,4.285-17.236-6.101-13.851-15.697c2.272-6.464,7.945-10.322,13.48-14.772
				c5.259-4.234,10.755-8.303,12.371-13.481c0.124-0.387,0.321-1.111,0.374-1.479c1.455-10.307-5.828-15.953-14.962-15.882
				c-5.862,0.041-10.379,2.579-12.744,5.722c-3.896,5.178-4.172,11.549-9.602,14.038c-5.842,2.68-12.755-0.465-14.408-4.614
				c-1.842-4.621,0.113-10.678,2.217-14.595C219.927,103.046,231.237,97.259,244.542,95.33z"/>
			<path fill="#27140E" d="M246.525,177.973c-4.014,0-7.505-1.806-9.827-5.089c-2.857-4.036-3.478-9.81-1.625-15.07
				c2.26-6.411,7.399-10.472,12.365-14.396c0.644-0.509,1.289-1.02,1.938-1.542l1.226-0.979c4.652-3.717,9.039-7.23,10.297-11.249
				c0.092-0.286,0.24-0.8,0.277-1.073c0.52-3.65-0.236-6.764-2.185-9.004c-2.185-2.521-5.75-3.907-10.034-3.907
				c-4.648,0.035-8.644,1.784-10.828,4.688c-1.293,1.713-2.177,3.677-3.034,5.576c-1.616,3.589-3.287,7.301-7.565,9.258
				c-1.779,0.819-3.699,1.231-5.696,1.231c-5.401,0-10.536-3.045-12.21-7.246c-2.639-6.615,1.124-14.519,2.341-16.788
				c5.693-10.615,16.831-17.397,32.204-19.626c0.124-0.018,0.25-0.03,0.374-0.03h7.575c0.103,0,0.192,0.005,0.292,0.017
				c6.232,0.698,11.143,1.709,14.992,3.091c4.729,1.7,8.891,3.958,12.037,6.532c7.088,5.8,13.279,17.94,10.108,30.889
				c-1.938,7.971-7.229,13.353-12.655,17.984c-1.98,1.693-4.258,3.326-6.453,4.903l-2.767,1.994
				c-2.222,1.595-4.991,3.579-6.211,5.347c-0.983,1.425-1.582,3.117-2.164,4.75c-0.69,1.952-1.405,3.975-2.79,5.611
				c-1.24,1.461-2.975,2.484-4.183,2.957C250.345,177.578,248.389,177.973,246.525,177.973z M248.776,110.458
				c5.998,0,10.957,2.026,14.147,5.699c2.968,3.413,4.14,7.963,3.404,13.153c-0.089,0.638-0.367,1.585-0.466,1.899
				c-1.728,5.529-6.955,9.711-12.008,13.751l-1.217,0.972c-0.654,0.529-1.316,1.05-1.974,1.567
				c-4.591,3.629-8.924,7.053-10.687,12.043c-1.3,3.694-0.927,7.652,0.97,10.334c0.934,1.318,2.66,2.889,5.577,2.889
				c1.213,0,2.526-0.277,3.904-0.815c0.62-0.239,1.568-0.839,2.104-1.471c0.768-0.91,1.275-2.335,1.859-3.982
				c0.658-1.866,1.409-3.976,2.787-5.976c1.733-2.507,4.774-4.691,7.456-6.613l2.767-1.995c2.205-1.582,4.295-3.085,6.113-4.635
				c4.432-3.784,9.305-8.4,10.981-15.257c2.629-10.763-2.486-20.828-8.356-25.628c-2.654-2.172-6.382-4.18-10.498-5.661
				c-3.438-1.235-7.91-2.149-13.67-2.799h-7.241c-9.514,1.406-22.054,5.488-28.186,16.911c-1.951,3.634-3.523,8.8-2.093,12.397
				c0.765,1.91,3.802,3.973,7.379,3.973c1.246,0,2.431-0.257,3.526-0.759c2.502-1.146,3.604-3.582,4.993-6.67
				c0.927-2.058,1.979-4.389,3.618-6.566C237.125,113.033,242.66,110.506,248.776,110.458L248.776,110.458z"/>
		</g>
		<g>
			<path fill="#E01D42" d="M248.974,210.944c-1.165,0-2.332,0-3.506,0c-7.769-1.21-13.896-9.738-9.975-18.281
				c1.79-3.894,6.04-7.437,11.821-7.389c5.254,0.041,9.01,3.113,10.895,6.281C263.012,199.616,257.882,209.531,248.974,210.944z"/>
			<path fill="#27140E" d="M248.974,213.548h-3.506c-0.133,0-0.268-0.013-0.4-0.03c-4.874-0.761-9.204-3.86-11.578-8.291
				c-2.305-4.292-2.432-9.142-0.356-13.654c1.885-4.106,6.702-8.903,14.072-8.903c5.55,0.044,10.451,2.868,13.242,7.552
				c2.667,4.477,2.938,9.73,0.743,14.417c-2.217,4.737-6.631,8.057-11.804,8.877C249.249,213.536,249.111,213.548,248.974,213.548z
				 M245.684,208.344h3.076c3.387-0.601,6.262-2.8,7.721-5.913c1.447-3.097,1.269-6.573-0.504-9.547
				c-0.693-1.165-3.373-4.966-8.683-5.007c-4.996,0-8.189,3.161-9.433,5.869c-1.375,2.997-1.301,6.201,0.215,9.021
				C239.63,205.667,242.529,207.791,245.684,208.344z"/>
		</g>
	</g>
	<g>
		<g>
			<path fill="#E01D42" d="M347.696,142.938c1.72,0.995,3.442,1.989,5.162,2.984c3.182,2.348,6.382,5.001,8.656,7.691
				c2.306,2.731,4.203,5.747,5.278,8.598c2.298,6.075,1.899,15.867-4.841,22.907c-4.151,4.33-9.464,5.722-14.612,6.671
				c-2.477,0.458-5.239,0.67-7.941,0.953c-2.502,0.261-5.821,0.486-7.914,1.475c-3.002,1.422-4.834,4.161-7.275,5.035
				c-0.938,0.333-2.153,0.402-3.013,0.27c-9.146-1.39-9.346-10.955-3.261-16.161c4.104-3.509,9.493-3.905,15.021-4.762
				c5.249-0.809,10.602-1.418,13.748-4.313c0.233-0.213,0.652-0.629,0.836-0.865c5.056-6.446,2.314-13.168-3.939-16.722
				c-4.014-2.278-8.094-2.328-10.944-1.121c-4.696,1.994-7.396,6.228-12.081,5.785c-5.036-0.475-8.506-5.345-7.999-8.824
				c0.561-3.876,4.285-7.234,7.263-9.075C327.869,138.493,337.862,139.006,347.696,142.938z"/>
			<path fill="#27140E" d="M322.083,202.187c-0.457,0-0.895-0.032-1.277-0.09c-4.723-0.719-8.083-3.42-9.222-7.407
				c-1.279-4.48,0.593-9.827,4.665-13.306c4.188-3.587,9.376-4.339,14.397-5.07l3.143-0.469c4.542-0.689,8.837-1.341,11.159-3.471
				c0.149-0.141,0.416-0.4,0.55-0.559c1.72-2.192,2.375-4.406,1.945-6.575c-0.474-2.407-2.341-4.695-5.123-6.277
				c-2.895-1.642-6.271-1.994-8.645-0.985c-1.498,0.633-2.791,1.562-4.162,2.544c-2.585,1.858-5.283,3.8-9.186,3.43
				c-3.107-0.292-6.049-1.931-8.068-4.498c-1.778-2.269-2.604-4.924-2.263-7.289c0.846-5.788,6.698-9.818,8.471-10.918
				c8.149-5.04,18.799-5.283,30.197-0.727c0.112,0.047,0.225,0.1,0.334,0.164l5.162,2.986c0.085,0.046,0.163,0.099,0.243,0.157
				c4.014,2.961,6.987,5.613,9.098,8.107c2.59,3.063,4.57,6.3,5.727,9.355c2.606,6.904,2.032,17.869-5.401,25.63
				c-4.573,4.773-10.397,6.392-16.015,7.429c-2.029,0.375-4.226,0.592-6.343,0.802l-2.718,0.271c-2.1,0.208-4.713,0.467-6.151,1.15
				c-1.17,0.549-2.166,1.4-3.224,2.304c-1.279,1.09-2.608,2.221-4.292,2.826C324.205,202.014,323.142,202.187,322.083,202.187z
				 M336.742,152.191c2.741,0,5.56,0.778,8.149,2.248c4.156,2.366,6.882,5.844,7.656,9.796c0.727,3.669-0.3,7.403-2.96,10.794
				c-0.243,0.312-0.804,0.886-1.125,1.177c-3.484,3.207-8.78,4.008-13.898,4.782l-3.172,0.477c-4.676,0.68-8.714,1.267-11.762,3.875
				c-2.551,2.181-3.773,5.364-3.045,7.921c0.575,2.005,2.302,3.28,5.001,3.691c0.542,0.086,1.308,0.008,1.747-0.15
				c0.789-0.28,1.655-1.025,2.667-1.882c1.205-1.032,2.583-2.204,4.369-3.055c2.255-1.067,5.24-1.36,7.872-1.619l2.713-0.274
				c2.105-0.207,4.095-0.405,5.913-0.738c4.432-0.819,9.471-2.018,13.201-5.914c5.875-6.131,6.34-14.762,4.289-20.187
				c-0.938-2.473-2.65-5.257-4.831-7.832c-1.825-2.159-4.473-4.516-8.102-7.196l-4.869-2.817c-9.75-3.86-18.652-3.751-25.353,0.389
				c-2.536,1.572-5.645,4.41-6.057,7.239c-0.134,0.918,0.338,2.226,1.2,3.321c1.146,1.456,2.773,2.375,4.47,2.537
				c2.002,0.19,3.562-0.971,5.661-2.479c1.467-1.055,3.129-2.245,5.162-3.109C333.172,152.536,334.935,152.191,336.742,152.191z"/>
		</g>
		<g>
			<path fill="#E01D42" d="M305.143,223.507c-0.796-0.46-1.592-0.918-2.393-1.381c-4.819-3.89-5.634-12.12,0.409-16.397
				c2.752-1.95,7.047-2.689,10.969-0.378c3.565,2.1,4.919,5.672,4.958,8.577C319.181,221.317,311.774,226.055,305.143,223.507z"/>
			<path fill="#27140E" d="M308.867,226.805c-1.593,0-3.157-0.292-4.654-0.866c-0.127-0.049-0.251-0.109-0.366-0.177l-2.399-1.385
				c-0.112-0.066-0.227-0.143-0.33-0.227c-3.154-2.548-4.962-6.532-4.832-10.664c0.128-4.013,2.034-7.519,5.374-9.883
				c3.887-2.756,9.496-3.025,13.791-0.495c3.851,2.266,6.181,6.3,6.235,10.785c0.047,3.443-1.235,6.662-3.614,9.072
				C315.661,225.405,312.307,226.805,308.867,226.805z M306.256,221.148c2.807,0.995,6.054,0.245,8.108-1.843
				c0.989-0.996,2.151-2.73,2.117-5.344c-0.012-0.994-0.313-4.39-3.676-6.37c-2.59-1.526-5.862-1.355-8.143,0.261
				c-1.979,1.397-3.105,3.457-3.176,5.797c-0.076,2.409,0.973,4.815,2.752,6.33L306.256,221.148z"/>
		</g>
	</g>
	<g>
		<g>
			<path fill="#E01D42" d="M149.135,141.952c1.794-0.856,3.587-1.718,5.381-2.574c3.735-1.295,7.734-2.437,11.237-2.791
				c3.558-0.363,7.116-0.224,10.076,0.503c6.311,1.536,14.165,7.398,16.162,16.941c1.227,5.867-0.63,11.041-2.751,15.819
				c-1.025,2.306-2.411,4.704-3.704,7.093c-1.198,2.21-2.892,5.077-3.256,7.362c-0.521,3.284,0.698,6.338,0.039,8.847
				c-0.254,0.962-0.881,2.005-1.477,2.639c-6.314,6.755-14.319,1.519-15.175-6.448c-0.578-5.369,2.143-10.035,4.559-15.077
				c2.298-4.792,4.821-9.553,4.215-13.784c-0.046-0.313-0.152-0.894-0.243-1.175c-2.463-7.815-9.556-9.351-16.022-6.203
				c-4.146,2.022-6.497,5.363-7.11,8.396c-1.007,5.002,0.959,9.623-2.054,13.238c-3.241,3.886-9.218,3.999-11.804,1.615
				c-2.879-2.66-3.544-7.63-3.383-11.124C134.263,155.797,140.333,147.843,149.135,141.952z"/>
			<path fill="#27140E" d="M174.519,201.498c-5.793,0-10.715-5.104-11.441-11.873c-0.585-5.49,1.724-10.192,3.958-14.744
				l1.388-2.859c1.998-4.14,3.89-8.051,3.442-11.165c-0.031-0.208-0.092-0.574-0.151-0.773c-1.216-3.861-3.753-5.905-7.336-5.905
				c-1.607,0-3.354,0.437-5.06,1.267c-3.577,1.741-5.289,4.538-5.701,6.573c-0.321,1.594-0.285,3.184-0.25,4.87
				c0.07,3.052,0.147,6.512-2.357,9.517c-2.191,2.63-5.5,4.142-9.07,4.142c-2.557,0-4.926-0.831-6.493-2.279
				c-4.299-3.968-4.32-11.071-4.222-13.155c0.451-9.662,6.146-18.416,16.462-25.324c0.106-0.07,0.216-0.132,0.328-0.187l5.381-2.569
				c0.088-0.041,0.176-0.079,0.265-0.111c4.713-1.637,8.582-2.595,11.831-2.926c3.953-0.401,7.802-0.206,10.955,0.565
				c7.17,1.748,15.891,8.418,18.089,18.938c1.357,6.471-0.602,12.193-2.921,17.411c-0.838,1.884-1.892,3.809-2.913,5.671
				l-1.318,2.412c-1.015,1.849-2.28,4.153-2.533,5.724c-0.2,1.272-0.063,2.58,0.081,3.96c0.18,1.674,0.363,3.404-0.092,5.139
				c-0.346,1.302-1.148,2.741-2.101,3.756C179.709,200.818,176.594,201.498,174.519,201.498z M164.378,148.971
				c5.817,0,10.415,3.571,12.304,9.559c0.116,0.377,0.275,1.161,0.335,1.587c0.674,4.687-1.656,9.506-3.908,14.168l-1.401,2.891
				c-2.086,4.239-3.879,7.903-3.454,11.89c0.438,4.052,3.186,7.23,6.266,7.23c1.502,0,3.03-0.791,4.422-2.282
				c0.313-0.34,0.727-0.999,0.859-1.524c0.219-0.812,0.096-1.95-0.042-3.266c-0.169-1.58-0.359-3.372-0.045-5.329
				c0.391-2.463,1.835-5.093,3.106-7.412l1.321-2.41c1.016-1.848,1.971-3.593,2.721-5.278c1.825-4.115,3.689-8.953,2.579-14.233
				c-1.737-8.308-8.598-13.571-14.229-14.943c-2.554-0.625-5.859-0.784-9.195-0.446c-2.809,0.287-6.247,1.144-10.511,2.618
				l-5.078,2.424c-6.169,4.164-13.536,11.186-14.002,21.14c-0.141,2.978,0.444,7.144,2.547,9.089
				c0.603,0.55,1.741,0.897,2.967,0.897c1.995,0,3.888-0.848,5.071-2.269c1.198-1.438,1.219-3.156,1.155-6.066
				c-0.042-1.81-0.089-3.856,0.349-6.02c0.853-4.212,4.038-8.034,8.523-10.22C159.449,149.592,161.985,148.971,164.378,148.971z"/>
		</g>
		<g>
			<path fill="#E01D42" d="M191.558,222.589c-0.831,0.4-1.659,0.798-2.49,1.195c-5.937,1.775-13.189-2.203-13.302-9.602
				c-0.052-3.375,1.769-7.336,5.888-9.266c3.746-1.756,7.464-0.851,9.877,0.759C197.682,209.772,197.403,218.562,191.558,222.589z"
				/>
			<path fill="#27140E" d="M186.157,226.805c-6.29,0-12.872-4.707-12.995-12.586c-0.07-4.945,2.829-9.519,7.389-11.66
				c4.006-1.879,8.802-1.465,12.428,0.95c3.566,2.378,5.634,6.186,5.669,10.445c0.035,4.304-2.064,8.333-5.613,10.778
				c-0.109,0.076-0.229,0.143-0.352,0.203l-2.499,1.196c-0.119,0.058-0.242,0.106-0.373,0.146
				C188.637,226.631,187.407,226.805,186.157,226.805z M185.889,206.561c-1.067,0-2.124,0.242-3.132,0.714
				c-3.291,1.542-4.422,4.662-4.388,6.866c0.085,5.733,5.652,8.321,9.771,7.2l2.096-1.002c2.03-1.472,3.229-3.829,3.203-6.344
				c-0.018-2.504-1.24-4.746-3.35-6.15C189.37,207.363,187.877,206.561,185.889,206.561z"/>
		</g>
	</g>
	<g>
		<g>
			<path fill="#F4BE78" d="M112.856,267.58c0,0,0.311-0.189,14.052,23.445c13.746,23.639,56.169,99.49,80.055,83.479
				c23.887-16.004,11.244-52.474-12.673-77.706c-23.918-25.229-52.756-51.197-58.678-55.291
				c-5.924-4.094-27.143-10.209-27.143-10.209L112.856,267.58z"/>
			<path fill="#27140E" d="M199.772,378.79c-21.688,0-50.275-44.587-72.755-83.431l-1.906-3.287
				c-11.384-19.578-13.459-22.637-13.776-23.07c-0.293-0.314-0.49-0.719-0.543-1.17l-4.387-36.287
				c-0.084-0.692,0.184-1.381,0.715-1.832c0.532-0.455,1.262-0.611,1.929-0.417c0.877,0.255,21.616,6.263,27.747,10.5
				c6.282,4.34,35.517,30.795,59.005,55.573c17.833,18.814,27.723,41.217,25.803,58.475c-1.067,9.577-5.603,17.117-13.48,22.396
				C205.6,377.93,202.787,378.79,199.772,378.79z M114.869,266.875c1.673,2.225,5.066,8.012,13.841,23.104l1.912,3.299
				c12.875,22.246,47.078,81.348,69.15,81.348c2.205,0,4.182-0.605,6.035-1.848c6.812-4.565,10.733-11.092,11.656-19.399
				c1.762-15.823-7.929-37.469-24.687-55.147c-24.693-26.047-53.008-51.317-58.349-55.013c-3.972-2.742-16.396-6.853-23.51-9.023
				L114.869,266.875z"/>
		</g>
		<g>
			<g>
				<g>
					<path fill="#F4BE78" d="M129.914,244.072c0,0-0.666,14.885-18.829,24.496l-16.406,7.895l-18.291,27.921
						c0,0-3.991,4.948-8.09,2.601c-5.13-2.937-0.997-9.305-0.997-9.305L82.1,273.826c0,0,0.486-3.5-2.695-1.531
						c-3.178,1.961-30.312,25.021-30.312,25.021s-5.635,5.795-9.274-0.752c-2.914-4.25,2.66-8.457,2.66-8.457L70.17,263.48
						c0,0,1.306-4.525-3.105-2.851c-4.407,1.688-36.552,16.729-36.552,16.729s-5.789,3.627-8.052-2.879
						c-2.266-6.5,4.073-8.68,4.073-8.68l35.368-16.806c0,0,3.972-3.004-1.176-3.779c-5.145-0.782-35.87,4.006-35.87,4.006
						s-7.085-0.28-6.289-6.304c0.792-6.034,5.862-5.875,5.862-5.875l36.373-5.805l3.792-1.385l9.858-6.228
						c0,0,4.324-2.737-0.813-3.527c-5.154-0.777-20.488-6.432-23.963-14.098c-3.472-7.68,1.029-10.491,1.029-10.491
						s2.402-2.674,9.929,4.785c7.494,7.465,20.408,4.961,20.408,4.961s19.217-7.042,33.812,7.014
						C114.854,212.271,132.504,231.673,129.914,244.072z"/>
				</g>
				<g>
					<path fill="#27140E" d="M70.612,309.699c-1.173,0-2.297-0.307-3.347-0.906c-1.79-1.025-2.971-2.542-3.418-4.383
						c-0.892-3.707,1.438-7.453,1.709-7.862l13.102-21.128c-5.188,4.045-18.933,15.592-28.222,23.48
						c-0.15,0.17-2.863,2.865-6.257,2.865c-1.759,0-4.256-0.729-6.18-4.188c-3.09-4.494,0.75-9.263,3.224-11.132l26.986-24.006
						c-0.12,0.035-0.25,0.078-0.401,0.138c-4.169,1.595-34.383,15.717-36.317,16.624c-0.518,0.299-2.314,1.248-4.439,1.248
						c-1.766,0-4.957-0.689-6.557-5.285c-0.867-2.486-0.808-4.775,0.175-6.803c1.445-2.963,4.346-4.211,5.061-4.481l34.88-16.575
						c-0.061-0.009-0.123-0.019-0.193-0.027c-0.312-0.052-0.744-0.065-1.266-0.065c-7.784,0-33.713,4.027-33.978,4.069
						c-0.127,0.019-0.265,0.034-0.401,0.022c-0.447-0.018-4.454-0.256-6.794-3.025c-1.254-1.493-1.769-3.439-1.476-5.636
						c0.778-5.957,5.179-7.624,7.758-7.682l36.019-5.749l3.393-1.24l9.299-5.874c-5.969-1.034-21.363-6.787-25.189-15.243
						c-3.781-8.354,0.577-12.208,1.617-12.97c0.426-0.366,1.313-0.926,2.762-0.926c2.679,0,6.021,1.971,9.94,5.855
						c3.95,3.938,9.729,4.764,13.879,4.764c2.308,0,4.052-0.264,4.535-0.346c0.993-0.339,5.708-1.825,11.979-1.825
						c9.214,0,17.445,3.238,23.806,9.362c0.842,0.921,18.293,20.292,15.683,33.576c-0.137,1.88-1.79,16.468-19.926,26.061
						L96.1,278.085l-17.97,27.437C77.678,306.1,74.658,309.699,70.612,309.699z M81.012,269.611c0.912,0,1.732,0.365,2.312,1.031
						c1.057,1.217,0.905,2.965,0.835,3.469c-0.039,0.289-0.138,0.562-0.293,0.81L69.07,298.773
						c-0.479,0.752-1.582,2.992-1.174,4.668c0.18,0.729,0.635,1.277,1.434,1.74c2.013,1.145,4.595-1.117,5.385-2.039l18.221-27.819
						c0.208-0.316,0.496-0.573,0.838-0.737l16.409-7.895c16.726-8.851,17.621-22.154,17.653-22.724
						c0.006-0.106,0.017-0.216,0.042-0.322c1.945-9.316-9.852-24.796-14.563-29.975c-5.55-5.338-12.59-8.097-20.82-8.097
						c-6.148,0-10.694,1.621-10.739,1.635c-0.099,0.04-0.208,0.07-0.317,0.088c-0.091,0.021-2.315,0.446-5.458,0.446
						c-4.937,0-11.856-1.038-16.814-5.973c-4.348-4.309-6.458-4.647-7.005-4.647c-0.2,0.024-0.099-0.016,0.075-0.204
						c-0.127,0.137-0.27,0.257-0.427,0.354c-0.257,0.185-2.809,2.179-0.236,7.87c3.009,6.638,17.229,12.123,22.378,12.899
						c0.93,0.144,3.735,0.572,4.228,2.912c0.473,2.278-1.881,3.966-2.614,4.433l-9.858,6.228c-0.127,0.08-0.258,0.146-0.398,0.196
						l-3.787,1.381c-0.127,0.047-0.258,0.083-0.389,0.101l-36.373,5.81c-0.127,0.018-0.257,0.03-0.391,0.023
						c-0.512,0-3.231,0.197-3.734,4.064c-0.138,1.025,0.034,1.809,0.524,2.398c0.909,1.085,2.766,1.465,3.611,1.545
						c2.787-0.434,26.596-4.083,34.383-4.083c0.782,0,1.406,0.035,1.893,0.11c2.458,0.371,3.911,1.355,4.309,2.921
						c0.574,2.271-1.536,4.077-2.191,4.575c-0.117,0.087-0.236,0.16-0.363,0.221L27.43,267.686
						c-0.067,0.032-0.141,0.062-0.216,0.084c-0.711,0.262-4.263,1.784-2.783,6.026c0.863,2.481,2.089,2.491,2.618,2.491
						c0.916-0.035,2.054-0.506,2.371-0.698c0.07-0.04,0.145-0.085,0.215-0.116c1.314-0.613,32.262-15.091,36.69-16.785
						c2.413-0.916,4.268-0.554,5.328,0.862c1.254,1.661,0.652,4.05,0.525,4.509c-0.113,0.379-0.328,0.719-0.621,0.979
						l-27.691,24.624c-0.286,0.227-4.076,3.177-2.328,5.727c1.243,2.211,2.301,2.211,2.646,2.211c1.438,0,3.062-1.369,3.417-1.736
						c2.936-2.506,27.494-23.354,30.708-25.34C79.299,269.907,80.187,269.611,81.012,269.611z"/>
				</g>
			</g>
			<g>
				<g>
					<path fill="#F4BE78" d="M75.397,220.588c0,0,11.106,7.15,21.378,4.464"/>
				</g>
				<g>
					<path fill="#27140E" d="M91.874,227.739c-9.087,0-17.198-5.14-17.604-5.401c-0.965-0.622-1.24-1.904-0.62-2.873
						c0.62-0.967,1.906-1.246,2.872-0.627c0.105,0.065,10.486,6.617,19.729,4.202c1.113-0.291,2.251,0.375,2.539,1.487
						c0.289,1.113-0.372,2.251-1.485,2.538C95.492,227.539,93.664,227.739,91.874,227.739z"/>
				</g>
			</g>
		</g>
	</g>
	<g>
		<g>
			<path fill="#F4BE78" d="M388.591,274.784c0,0-0.293-0.216-15.874,22.253c-15.577,22.472-63.892,94.72-86.429,76.861
				c-22.54-17.851-7.04-53.205,18.805-76.455c25.851-23.25,56.655-46.85,62.881-50.459c6.233-3.606,27.871-8.022,27.871-8.022
				L388.591,274.784z"/>
			<path fill="#27140E" d="M294.432,378.79c-3.535,0-6.705-1.101-9.437-3.256c-7.435-5.892-11.353-13.763-11.659-23.396
				c-0.543-17.354,11.096-38.904,30.365-56.242c25.377-22.828,56.624-46.877,63.229-50.712c6.452-3.735,27.602-8.08,28.495-8.261
				c0.694-0.135,1.396,0.076,1.894,0.569c0.493,0.492,0.705,1.202,0.566,1.881l-7.251,35.824c-0.096,0.445-0.324,0.837-0.642,1.126
				c-0.35,0.403-2.657,3.286-15.564,21.901l-2.146,3.102c-15.997,23.182-53.454,77.457-77.849,77.465L294.432,378.79L294.432,378.79
				z M393.174,241.659c-7.265,1.594-19.978,4.705-24.151,7.128c-5.62,3.255-35.854,26.201-62.536,50.205
				c-18.107,16.289-29.484,37.099-28.985,53.012c0.263,8.357,3.653,15.172,10.082,20.262c2.001,1.592,4.242,2.359,6.851,2.359l0,0
				c22.211,0,60.146-54.969,74.424-75.663l2.148-3.11c10.014-14.438,13.837-19.871,15.637-21.918L393.174,241.659z"/>
		</g>
		<g>
			<g>
				<g>
					<path fill="#F4BE78" d="M373.453,249.994c0,0-0.519,14.891,16.825,25.915l15.731,9.175l16.007,29.281
						c0,0,3.592,5.253,7.866,3.238c5.341-2.524,1.729-9.199,1.729-9.199l-12.857-24.95c0,0-0.211-3.527,2.812-1.313
						c3.012,2.207,28.227,27.346,28.227,27.346s5.152,6.227,9.306-0.008c3.238-4.008-1.986-8.643-1.986-8.643l-25.646-26.747
						c0,0-0.938-4.618,3.32-2.596c4.263,2.034,35.111,19.579,35.111,19.579s5.485,4.072,8.256-2.232
						c2.77-6.299-3.376-8.973-3.376-8.973l-33.921-19.562c0,0-3.722-3.311,1.473-3.676c5.19-0.37,35.44,6.846,35.44,6.846
						s7.085,0.281,6.771-5.791c-0.312-6.074-5.385-6.316-5.385-6.316l-35.791-8.679l-3.669-1.679l-9.334-6.991
						c0,0-4.095-3.074,1.093-3.45c5.201-0.368,20.933-4.785,25.007-12.153c4.065-7.376-0.194-10.541-0.194-10.541
						s-2.188-2.852-10.277,3.982c-8.064,6.851-20.739,3.328-20.739,3.328s-18.598-8.546-34.264,4.304
						C390.989,219.489,371.858,237.43,373.453,249.994z"/>
				</g>
				<g>
					<path fill="#27140E" d="M427.885,320.146L427.885,320.146c-4.312,0-7.262-4.133-7.582-4.604l-15.843-28.953l-15.23-8.88
						c-17.379-11.044-17.868-25.718-17.861-27.606c-1.543-13.446,17.389-31.372,18.202-32.133c6.22-5.107,13.422-7.653,21.512-7.653
						c7.784,0,13.738,2.407,14.858,2.891c0.628,0.159,3.396,0.798,6.836,0.798c4.954,0,8.949-1.256,11.866-3.735
						c3.981-3.367,7.315-5.067,9.916-5.067c1.732,0,2.714,0.715,3.149,1.161c0.983,0.856,5,5.037,0.578,13.053
						c-4.489,8.127-20.285,12.636-26.321,13.196l8.803,6.595l3.284,1.502l35.43,8.591c2.458,0.218,6.832,2.171,7.142,8.277
						c0.112,2.155-0.521,4.024-1.828,5.401c-2.272,2.392-5.839,2.578-6.879,2.578c-0.028,0-0.197,0-0.226-0.006
						c-0.138-0.003-0.271-0.021-0.401-0.056c-7.932-1.892-29.598-6.804-34.523-6.804l-0.289,0.011
						c-0.065,0.006-0.13,0.009-0.192,0.015l33.456,19.297c0.689,0.322,3.483,1.797,4.687,4.868c0.821,2.097,0.694,4.384-0.367,6.796
						c-1.821,4.147-4.792,4.771-6.397,4.771c-2.375,0-4.35-1.249-4.88-1.618c-1.857-1.061-30.856-17.531-34.892-19.459
						c-0.145-0.07-0.271-0.124-0.384-0.164l25.111,26.186c2.199,1.943,5.647,7.002,2.104,11.394
						c-1.928,2.905-4.273,3.547-5.884,3.547c-3.63,0-6.346-3.16-6.646-3.519c-8.517-8.479-21.289-21.065-26.135-25.504
						l11.406,22.141c0.215,0.396,2.244,4.312,1.058,7.938c-0.593,1.801-1.89,3.217-3.745,4.096
						C429.841,319.921,428.872,320.146,427.885,320.146z M423.791,313.264c0.726,1,3.076,3.448,5.207,2.455
						c0.832-0.395,1.328-0.91,1.563-1.625c0.544-1.658-0.404-4.007-0.777-4.697l-12.878-24.992
						c-0.132-0.256-0.212-0.539-0.227-0.829c-0.031-0.486-0.047-2.173,1.021-3.304c1.181-1.258,3.075-1.293,5.098,0.187
						c3.049,2.238,25.874,24.972,28.464,27.556c0.57,0.661,2.149,2.157,3.573,2.157c0.32,0,1.3,0,2.53-1.847
						c2.078-2.586-1.598-5.899-1.637-5.932l-25.768-26.862c-0.271-0.283-0.459-0.642-0.535-1.028
						c-0.096-0.451-0.485-2.788,0.789-4.352c1.146-1.403,3.086-1.666,5.465-0.535c4.281,2.044,33.98,18.931,35.242,19.648
						c0.074,0.041,0.148,0.084,0.215,0.137c0.331,0.242,1.455,0.883,2.521,0.883c0.434,0,1.59,0,2.586-2.28
						c0.608-1.38,0.713-2.56,0.3-3.601c-0.673-1.727-2.572-2.617-2.593-2.627c-0.075-0.032-0.143-0.067-0.212-0.105l-33.921-19.561
						c-0.12-0.073-0.24-0.157-0.346-0.25c-0.618-0.553-2.576-2.519-1.818-4.737c0.519-1.531,2.044-2.396,4.526-2.567
						c0.174-0.015,0.367-0.021,0.582-0.021c6.186,0,32.258,6.148,35.25,6.859c0.643-0.02,2.695-0.16,3.761-1.279
						c0.518-0.545,0.742-1.303,0.688-2.318c-0.197-3.902-2.893-4.309-3.431-4.35c-0.114-0.008-0.255-0.028-0.363-0.057
						l-35.793-8.677c-0.13-0.029-0.257-0.076-0.377-0.129l-3.667-1.679c-0.135-0.065-0.265-0.139-0.381-0.229l-9.333-6.991
						c-0.694-0.521-2.907-2.39-2.252-4.626c0.672-2.292,3.509-2.497,4.437-2.567c5.204-0.364,19.812-4.7,23.336-11.083
						c3.017-5.465,0.634-7.659,0.353-7.889c-0.042-0.031-0.088-0.075-0.135-0.12c-0.277-0.074-2.24-0.411-7.521,4.052
						c-3.637,3.086-8.672,4.72-14.556,4.72c-4.5,0-7.938-0.941-8.083-0.98c-0.106-0.03-0.208-0.07-0.308-0.114
						c-0.061-0.026-5.789-2.595-13.309-2.595c-7.104,0-13.418,2.228-18.767,6.617c-5.004,4.7-17.996,19.207-16.797,28.636
						c0.019,0.111,0.019,0.224,0.019,0.334c-0.019,0.553-0.181,13.892,15.858,24.085l15.665,9.129
						c0.325,0.189,0.597,0.469,0.775,0.804L423.791,313.264z"/>
				</g>
			</g>
			<g>
				<g>
					<path fill="#F4BE78" d="M429.661,230.91c0,0-11.639,6.249-21.666,2.757"/>
				</g>
				<g>
					<path fill="#27140E" d="M414.679,236.812c-2.424,0-4.926-0.331-7.368-1.18c-1.085-0.375-1.655-1.566-1.278-2.651
						c0.378-1.085,1.562-1.66,2.649-1.277c9.021,3.136,19.892-2.567,20-2.629c1.016-0.539,2.272-0.151,2.815,0.856
						c0.543,1.015,0.161,2.273-0.851,2.815C430.256,232.957,422.948,236.812,414.679,236.812z"/>
				</g>
			</g>
		</g>
	</g>
</g>
</svg>
