<svg id="i_feel_sick" data-name="i feel sick" xmlns="http://www.w3.org/2000/svg" viewBox="0 0 300 300"><defs><style>.cls-1{fill:#f3be79;}.cls-2{fill:#200f0f;}.cls-3{fill:#009997;}.cls-4{fill:#4b220d;}.cls-5{fill:#28130e;}.cls-6{fill:#c1e7f7;}.cls-7{fill:#2b1f0f;}.cls-8{fill:#ed2134;}</style></defs><title>i feel sick</title><path class="cls-1" d="M136,132.56s1.8,5.17-4,7.69S138.21,174,138.21,174l20.31-15.69,15-11.22-6.05-7.27s-6.59-.06-4.07-6.3-8.7-15.66-8.7-15.66Z"/><path class="cls-2" d="M138.21,175.54a1.52,1.52,0,0,1-.42-.06,1.55,1.55,0,0,1-1-.94c0-.08-3.07-8-5.35-16.06-4.38-15.56-2.33-18.68-.05-19.67,4.28-1.86,3.28-5.36,3.15-5.75a1.58,1.58,0,0,1,.52-1.74l18.73-14.72a1.57,1.57,0,0,1,2,0c1.24,1,12,10.35,9.15,17.44-.37.93-.71,2.2-.19,3s2.29,1.15,2.83,1.17a1.57,1.57,0,0,1,1.18.56l6.05,7.27a1.57,1.57,0,0,1-.26,2.25l-15,11.23-20.29,15.67A1.53,1.53,0,0,1,138.21,175.54Zm-.47-42.37c.39,2.51-.31,6.42-5.15,8.52-1.78.77-.17,12.37,6.34,29.75L157.57,157l13.72-10.25-4.57-5.48a6.5,6.5,0,0,1-4.64-2.5c-1-1.55-1.06-3.54-.1-5.91,1.53-3.79-4.19-10.14-7.31-13Z"/><path class="cls-1" d="M110.77,77.29s-7.13,10.76-7.21,18.23,9,6.65,9,6.65,2,33.19,40.37,33.19c12.52,0,26.9-5.68,37.21-28.92,8.59-2.65,8.19-9.75,8.19-9.75s0-4.4-3.3-5.54S163.5,52.69,163.5,52.69L138,55Z"/><path class="cls-2" d="M152.88,136.93c-34.62,0-40.76-26.54-41.76-33.18-2-.07-5-.56-7.06-2.66A7.45,7.45,0,0,1,102,95.5c.09-7.84,7.17-18.62,7.47-19.08a1.75,1.75,0,0,1,.32-.35L137,53.82a1.57,1.57,0,0,1,.85-.35l25.49-2.34a1.56,1.56,0,0,1,1.4.62c13.19,17.45,28.48,36.68,30.82,38,4.23,1.46,4.28,6.77,4.28,7,.15,2.7-1.47,8.5-8.61,11C182.46,127.1,169.56,136.93,152.88,136.93ZM112.51,100.6a1.54,1.54,0,0,1,1,.38,1.58,1.58,0,0,1,.55,1.09c.08,1.29,2.43,31.72,38.8,31.72,15.5,0,27.54-9.41,35.78-28a1.56,1.56,0,0,1,1-.86c7.33-2.27,7.08-8.1,7.08-8.16s-.05-3.39-2.24-4.15c-3.3-1.15-22.85-26.61-31.7-38.3l-24.15,2.22L112,78.35c-.93,1.46-6.75,10.79-6.83,17.19a4.48,4.48,0,0,0,1.17,3.35c1.55,1.57,4.31,1.73,5.43,1.73h.79Z"/><path class="cls-3" d="M121.39,137.38s-27.65,2.75-47.78,30.26L101.23,193v39.9h94.6V192L223.2,167.9c-17.5-27-48.6-30.17-48.6-30.17l-8,1.57s-1.9,16.35-18.61,14S131.74,139,131.74,139Z"/><path d="M195.83,234.43h-94.6a1.57,1.57,0,0,1-1.57-1.57V193.65L72.55,168.8a1.57,1.57,0,0,1-.21-2.08c20.31-27.76,47.74-30.79,48.89-30.9a1.41,1.41,0,0,1,.41,0L132,137.48a1.57,1.57,0,0,1,1.33,1.61c0,.42-.12,10.61,14.9,12.69,6.58.91,11.5-1.17,14.5-6.16a18.45,18.45,0,0,0,2.35-6.5,1.55,1.55,0,0,1,1.25-1.36l8-1.57a1.42,1.42,0,0,1,.46,0c1.3.14,32.05,3.55,49.75,30.87a1.57,1.57,0,0,1-.28,2l-26.83,23.6v40.19A1.57,1.57,0,0,1,195.83,234.43Zm-93-3.14h91.47V182a1.57,1.57,0,1,1,3.13,0v6.54l23.73-20.87c-16.21-23.85-43.73-28-46.47-28.3l-6.7,1.31c-.79,3.62-4.22,14.49-16.84,14.49a24.31,24.31,0,0,1-3.34-.24c-9.25-1.27-13.55-5.47-15.53-8.76a14.92,14.92,0,0,1-2-5.74L121.36,139c-2.4.32-27.14,4.08-45.65,28.48l24,21.95V182a1.57,1.57,0,0,1,3.14,0Z"/><path class="cls-4" d="M178.38,77c-2.7,5,11.34,18.81,15.47,17.62s4-4.89,1-29-29.73-27.67-44-23.93c-23.45-6.78-40.18,12.58-40.62,27.48-10.63,10.82.44,20.91.44,20.91s5.11,6.67,8.13,2.14,4.69-14.77,2.31-17.46c8.27.54,12.37-3.83,12.25-7.8,7,4.11,14.24,4.47,24.16-2.57C157.55,64.36,173.59,79.54,178.38,77Z"/><path class="cls-5" d="M193.29,96.23c-4.08,0-11.64-6.78-15-12.32a11.77,11.77,0,0,1-1.86-5.11c-5.72-.6-15.79-9.42-19.07-12.43-5.08,3.41-9.73,5.07-14.19,5.07a19.72,19.72,0,0,1-8.6-2.08,8.58,8.58,0,0,1-2.05,3.36,13.3,13.3,0,0,1-9,3.6c1.1,4.79-.85,12.91-3.4,16.74a4.56,4.56,0,0,1-3.88,2.28c-3.19,0-6.11-3.47-6.71-4.23-.78-.75-5.28-5.32-5.46-11.61-.1-3.9,1.46-7.61,4.64-11,.78-14.22,14.18-29.78,32.64-29.78A35.7,35.7,0,0,1,150.9,40a43.85,43.85,0,0,1,10.51-1.22c8.21,0,16,2,21.92,5.74A27.8,27.8,0,0,1,196.4,65.39c3,24,3.48,29.09-2.12,30.71A3.49,3.49,0,0,1,193.29,96.23ZM178.38,75.4a1.58,1.58,0,0,1,1.11.46,1.56,1.56,0,0,1,.27,1.85c-.44.82,0,2.53,1.27,4.59,3.11,5.21,9.86,10.79,12.26,10.79h.13c2.78-.8,2.77-4.37-.14-27.3C191.06,48.22,175.36,42,161.41,42a40.35,40.35,0,0,0-10.13,1.22,1.6,1.6,0,0,1-.84,0,32.51,32.51,0,0,0-9.08-1.33c-12,0-29,10.4-29.53,27.34a1.55,1.55,0,0,1-.45,1.06c-2.84,2.89-4.24,6-4.16,9.14.14,5.4,4.5,9.47,4.54,9.51a1.8,1.8,0,0,1,.19.2c.78,1,2.85,3.11,4.3,3.11.32,0,.75-.1,1.27-.88,2.93-4.41,4.08-13.7,2.45-15.55a1.57,1.57,0,0,1-.24-1.73,1.59,1.59,0,0,1,1.51-.87c4,.25,7.19-.7,9.07-2.63A5,5,0,0,0,131.82,67a1.56,1.56,0,0,1,.77-1.39,1.54,1.54,0,0,1,1.59,0,17.76,17.76,0,0,0,9,2.72c4.09,0,8.49-1.71,13.43-5.22a1.59,1.59,0,0,1,2,.14c5.09,4.82,14.6,12.47,18.43,12.47a1.29,1.29,0,0,0,.58-.1A1.51,1.51,0,0,1,178.38,75.4Z"/><path class="cls-5" d="M135.78,121.49a1.56,1.56,0,0,1-1.2-2.57c.32-.39,8-9.37,18-5.35,1.21.48,2.36,1,3.47,1.49,5.9,2.61,9.14,3.82,12.86.53a1.57,1.57,0,0,1,2.08,2.35c-5.41,4.78-10.65,2.45-16.21,0-1.08-.48-2.2-1-3.37-1.45-7.88-3.16-14.18,4.14-14.44,4.45A1.56,1.56,0,0,1,135.78,121.49Z"/><path class="cls-6" d="M180.52,103.9c2.85.48,4.8.68,7.07-1.44,3.87-3.62,4.2-7,.58-10.85s-6.89-3.66-10.76,0c-2.26,2.11-2.19,4.05-1.92,6.91l-16.9,16.31c-2.28,2.13-3.07,3.25-1,5.49s3.38,1.64,5.65-.49Z"/><path class="cls-7" d="M188.49,91.31c3.71,4,3.53,7.62-.6,11.47-2.32,2.17-4.3,2.08-7.23,1.6l-17.1,15.74c-2.09,2-3.77,3.14-6.27.46s-1.23-4,1-6.11L175,98.31c-.27-2.94-.22-4.91,2.08-7.07C181.29,87.34,184.8,87.36,188.49,91.31ZM157.94,120c1.81,1.94,2.75,1.61,5-.51l17.26-15.89a.46.46,0,0,1,.37-.11c2.77.46,4.58.65,6.7-1.34,3.78-3.53,4-6.58.55-10.21s-6.29-3.61-10.13,0c-2.1,2-2,3.77-1.78,6.55a.43.43,0,0,1-.14.36L158.9,115.11C156.67,117.19,156.11,118,157.94,120Z"/><path class="cls-8" d="M178.27,99.09,162,114.27l1.92,2,16.26-15.19a5.29,5.29,0,1,0-1.93-2Z"/><path class="cls-7" d="M187.12,92.7a5.73,5.73,0,0,1-6.86,9l-16,15a.45.45,0,0,1-.63,0l-1.91-2.05a.43.43,0,0,1,0-.62l16-15a5.73,5.73,0,0,1,9.4-6.29ZM164,115.7l15.94-14.89a.42.42,0,0,1,.53,0,4.85,4.85,0,1,0-1.77-1.87.46.46,0,0,1-.09.53l-15.92,14.87Z"/><path class="cls-1" d="M125.91,215.2a5.84,5.84,0,0,0-1.06-7.31c-5.16-6.32-19.33,5.79-19.33,5.79a45.71,45.71,0,0,0-13.74-11.27,34.07,34.07,0,0,0-5.26-2.24c6.42-5.09,11.61-10,11.61-10L87.46,179.46,76.15,170s-16.78,16.27-15.41,35.48a8.56,8.56,0,0,0,.85,3.43c.09,1.72.95,4.11,3.38,7.49C78.71,237.61,100.21,229,100,233.93c.54,9,17.17,12,20.44,12.72s8,2.48,8.13-4.08c4.86.67,4.5-5.37,4.5-5.37s6.1-2.33,2-8.24C142,221.23,125.91,215.2,125.91,215.2Z"/><path d="M124.82,249a17.11,17.11,0,0,1-3.83-.6l-.86-.2-.56-.12c-13.61-2.84-20.71-7.56-21.11-14a19.23,19.23,0,0,0-4.37-.56c-7.27-.47-20.8-1.34-30.44-16.2-2.19-3.06-3.38-5.67-3.6-7.92a10.72,10.72,0,0,1-.88-3.75c-1.41-19.72,15.18-36,15.89-36.71a1.58,1.58,0,0,1,2.1-.08l11.3,9.42.11.09,10.67,10.73a1.57,1.57,0,0,1,0,2.25s-4.18,3.93-9.57,8.34c1,.4,1.92.85,2.86,1.35a48.1,48.1,0,0,1,13.24,10.47c2.77-2.16,9.59-7,15-7A6.69,6.69,0,0,1,126,206.8a7.17,7.17,0,0,1,2,7.56c3,1.32,9.09,4.56,10.23,9.18a6.62,6.62,0,0,1-1.19,5.53,6.7,6.7,0,0,1,.82,5.35,6.94,6.94,0,0,1-3.19,3.75,7.45,7.45,0,0,1-1.73,4.53,4.64,4.64,0,0,1-2.88,1.44C129.48,248.09,127,249,124.82,249ZM101.59,233.9c.24,3.35,3.68,8,18.63,11.09l.58.13.92.21a14.6,14.6,0,0,0,3.1.51c.91,0,2.16,0,2.2-3.29A1.57,1.57,0,0,1,128.8,241l.51,0h0a1.66,1.66,0,0,0,1.33-.5,5.2,5.2,0,0,0,.89-3.26,1.58,1.58,0,0,1,1-1.56,4.23,4.23,0,0,0,2.31-2.26c.3-1,0-2.2-1-3.62a1.56,1.56,0,0,1,.12-1.93,3.93,3.93,0,0,0,1.22-3.63c-.88-3.57-7.37-6.71-9.8-7.62a1.59,1.59,0,0,1-.79-2.3,4.2,4.2,0,0,0-.78-5.33,1.21,1.21,0,0,1-.16-.16,3.47,3.47,0,0,0-2.93-1.25c-4.66,0-11.8,5.23-14.16,7.25a1.55,1.55,0,0,1-1.19.36,1.56,1.56,0,0,1-1.08-.62A44.65,44.65,0,0,0,91,203.79a32.21,32.21,0,0,0-5-2.13,1.58,1.58,0,0,1-1-1.22,1.52,1.52,0,0,1,.57-1.5c4.51-3.57,8.44-7.08,10.32-8.79l-9.47-9.53-10.13-8.43c-3.48,3.78-15.08,17.62-14,33.22a7.15,7.15,0,0,0,.68,2.81,1.51,1.51,0,0,1,.18.65c.09,1.69,1.13,3.93,3.08,6.66,8.83,13.59,20.86,14.38,28.05,14.84C98.23,230.63,101.64,230.85,101.59,233.9Z"/><path class="cls-1" d="M169.88,215.2a5.84,5.84,0,0,1,1.06-7.31c5.16-6.32,19.32,5.79,19.32,5.79A45.68,45.68,0,0,1,204,202.41a33.26,33.26,0,0,1,5.26-2.24,45.64,45.64,0,0,1-9.53-10l10.68-10.73,11.3-9.42s14.7,16.27,13.33,35.48a8.55,8.55,0,0,1-.86,3.43c-.09,1.72-.95,4.11-3.37,7.49-13.74,21.17-35.25,12.6-35.06,17.49-.53,9-17.16,12-20.44,12.72s-8,2.48-8.12-4.08c-4.86.67-4.51-5.37-4.51-5.37s-6.1-2.33-2-8.24C153.79,221.23,169.88,215.2,169.88,215.2Z"/><path d="M171,249c-2.14,0-4.66-.89-5.22-4.84a4.71,4.71,0,0,1-2.88-1.44,7.43,7.43,0,0,1-1.72-4.53,6.86,6.86,0,0,1-3.19-3.75,6.69,6.69,0,0,1,.81-5.35,6.65,6.65,0,0,1-1.18-5.53c1.14-4.62,7.26-7.86,10.23-9.18a7.13,7.13,0,0,1,2-7.56,6.68,6.68,0,0,1,5.29-2.31c5.37,0,12.19,4.84,14.95,7A48.5,48.5,0,0,1,203.27,201c1-.5,1.94-1,2.92-1.37a44.64,44.64,0,0,1-7.77-8.62,1.59,1.59,0,0,1,.21-1.95l10.67-10.73.11-.09,11.31-9.42a1.57,1.57,0,0,1,2.17.15c.62.69,15.13,17,13.73,36.64a10.6,10.6,0,0,1-.89,3.75c-.21,2.25-1.41,4.86-3.64,8-9.6,14.81-23.13,15.68-30.4,16.15a19.13,19.13,0,0,0-4.36.56c-.4,6.44-7.51,11.16-21.12,14l-.56.12-.86.2A16.93,16.93,0,0,1,171,249Zm-3.76-8a1.61,1.61,0,0,1,1,.38,1.54,1.54,0,0,1,.54,1.17c0,3.29,1.31,3.32,2.2,3.29a14.69,14.69,0,0,0,3.11-.51l.92-.21.58-.13c14.94-3.12,18.39-7.74,18.63-11.09-.06-3.05,3.35-3.27,7.29-3.53,7.19-.46,19.23-1.25,28-14.78q3-4.18,3.13-6.72a1.65,1.65,0,0,1,.17-.65,7.14,7.14,0,0,0,.69-2.81c1.1-15.46-8.79-29.18-12-33.16l-10,8.37-9.69,9.75a47.74,47.74,0,0,0,8.45,8.57,1.57,1.57,0,0,1-.48,2.72,32.41,32.41,0,0,0-5,2.13,44.25,44.25,0,0,0-13.22,10.83,1.58,1.58,0,0,1-2.28.26c-2.36-2-9.5-7.25-14.15-7.25a3.49,3.49,0,0,0-2.94,1.25,1.14,1.14,0,0,1-.15.16,4.21,4.21,0,0,0-.79,5.33,1.57,1.57,0,0,1-.78,2.3c-2.43.91-8.93,4.06-9.81,7.62a3.93,3.93,0,0,0,1.23,3.63,1.56,1.56,0,0,1,.12,1.93c-1,1.42-1.33,2.65-1,3.64a4.31,4.31,0,0,0,2.3,2.24,1.58,1.58,0,0,1,1,1.56,5.2,5.2,0,0,0,.89,3.26,1.64,1.64,0,0,0,1.32.5l.51,0Z"/></svg>