<?xml version="1.0" encoding="utf-8"?>
<!-- Generator: Adobe Illustrator 16.0.0, SVG Export Plug-In . SVG Version: 6.00 Build 0)  -->
<!DOCTYPE svg PUBLIC "-//W3C//DTD SVG 1.1//EN" "http://www.w3.org/Graphics/SVG/1.1/DTD/svg11.dtd">
<svg version="1.1" id="Layer_1" xmlns="http://www.w3.org/2000/svg" xmlns:xlink="http://www.w3.org/1999/xlink" x="0px" y="0px"
	 width="500px" height="500px" viewBox="0 0 500 500" enable-background="new 0 0 500 500" xml:space="preserve">
<g id="Layer_1_copy_10">
	<g>
		<g>
			<path fill="#F4BE78" d="M231.694,224.292c0,0,3.618,10.433-8.092,15.509c-11.707,5.069,12.586,67.969,12.586,67.969
				l40.937-31.615l30.282-22.627l-12.195-14.646c0,0-13.278-0.129-8.194-12.712c5.086-12.58-17.547-31.55-17.547-31.55
				L231.694,224.292z"/>
		</g>
		<g>
			<path fill="#211010" d="M236.188,310.936c-0.285,0-0.571-0.045-0.848-0.123c-0.963-0.266-1.741-0.97-2.102-1.903
				c-0.062-0.156-6.18-16.05-10.775-32.363c-8.837-31.358-4.705-37.659-0.118-39.646c8.633-3.744,6.614-10.804,6.353-11.594
				c-0.41-1.267,0-2.679,1.044-3.5l37.771-29.672c1.174-0.927,2.836-0.9,3.986,0.062c2.5,2.097,24.225,20.863,18.45,35.16
				c-0.759,1.87-1.438,4.432-0.396,6.02c1.225,1.846,4.61,2.323,5.702,2.347c0.921,0.02,1.796,0.434,2.383,1.138l12.194,14.644
				c0.557,0.669,0.814,1.533,0.713,2.396c-0.102,0.859-0.556,1.642-1.248,2.158l-30.285,22.627l-40.896,31.588
				C237.562,310.708,236.881,310.936,236.188,310.936z M235.238,225.529c0.785,5.049-0.626,12.947-10.378,17.171
				c-3.594,1.561-0.348,24.938,12.768,59.961l37.563-29.011l27.654-20.659l-9.207-11.059c-2.395-0.289-6.861-1.33-9.337-5.038
				c-2.075-3.118-2.149-7.123-0.215-11.91c3.086-7.643-8.438-20.433-14.739-26.254L235.238,225.529z"/>
		</g>
	</g>
	<g>
		<g>
			<path fill="#F4BE78" d="M180.869,112.9c0,0-14.354,21.684-14.534,36.751c-0.188,15.062,18.051,13.393,18.051,13.393
				s4.071,66.905,81.361,66.905c25.248,0,54.23-11.444,75.01-58.292c17.309-5.351,16.498-19.655,16.498-19.655
				s0.007-8.859-6.642-11.171c-6.6-2.292-63.459-77.513-63.459-77.513l-51.392,4.721L180.869,112.9z"/>
		</g>
		<g>
			<path fill="#211010" d="M265.747,233.109c-69.772,0-82.155-53.493-84.162-66.874c-3.938-0.152-10.08-1.138-14.245-5.354
				c-2.824-2.859-4.224-6.653-4.169-11.269c0.191-15.814,14.456-37.542,15.062-38.458c0.175-0.266,0.392-0.5,0.638-0.704
				l54.889-44.86c0.488-0.399,1.088-0.641,1.713-0.7l51.392-4.721c1.104-0.106,2.152,0.368,2.812,1.244
				c26.591,35.179,57.404,73.945,62.13,76.499c8.52,2.95,8.609,13.64,8.609,14.094c0.315,5.444-2.957,17.124-17.345,22.208
				C325.373,213.298,299.366,233.109,265.747,233.109z M184.374,159.884c0.755,0,1.494,0.27,2.069,0.762
				c0.645,0.555,1.044,1.354,1.095,2.198c0.169,2.613,4.909,63.94,78.209,63.94c31.252,0,55.52-18.978,72.119-56.411
				c0.372-0.837,1.083-1.471,1.956-1.74c14.775-4.568,14.284-16.334,14.271-16.451c-0.004-0.235-0.104-6.83-4.517-8.359
				c-6.643-2.312-46.058-53.641-63.887-77.196l-48.676,4.471l-53.759,43.937c-1.882,2.938-13.604,21.759-13.761,34.651
				c-0.035,2.906,0.731,5.116,2.347,6.751c3.117,3.157,8.698,3.497,10.951,3.497h0.005c0.759,0,1.243-0.035,1.307-0.039
				C184.194,159.887,184.284,159.884,184.374,159.884z"/>
		</g>
	</g>
	<g>
		<path fill="#069B99" d="M202.281,234.017c0,0-55.739,5.55-96.304,61l55.671,51.022v-22.188v102.611H352.33V323.852v20.189
			l55.146-48.514c-35.262-54.428-97.945-60.799-97.945-60.799l-16.1,3.152c0,0-3.83,32.954-37.525,28.292
			c-33.696-4.658-32.771-28.835-32.771-28.835L202.281,234.017z"/>
		<path fill="#010101" d="M352.33,429.626H161.648c-1.748,0-3.16-1.419-3.16-3.164v-79.034l-54.65-50.082
			c-1.186-1.088-1.365-2.894-0.414-4.191c40.929-55.95,96.209-62.051,98.544-62.286c0.273-0.027,0.539-0.02,0.81,0.024l20.856,3.325
			c1.579,0.254,2.722,1.643,2.663,3.242c-0.024,0.856-0.227,21.396,30.039,25.581c13.266,1.839,23.18-2.366,29.23-12.415
			c3.924-6.528,4.718-13.044,4.725-13.107c0.157-1.365,1.186-2.472,2.535-2.738l16.095-3.157c0.306-0.062,0.623-0.078,0.928-0.039
			c2.624,0.266,64.608,7.158,100.281,62.223c0.854,1.317,0.609,3.06-0.562,4.092l-54.075,47.57v80.993
			C355.491,428.208,354.074,429.626,352.33,429.626z M164.81,423.302h184.355v-99.45c0-1.746,1.421-3.162,3.165-3.162
			s3.161,1.416,3.161,3.162v13.195l47.824-42.07c-32.685-48.087-88.146-56.345-93.666-57.048l-13.499,2.645
			c-1.601,7.291-8.516,29.21-33.951,29.21c-2.154,0-4.416-0.16-6.729-0.48c-18.646-2.578-27.312-11.029-31.296-17.664
			c-2.725-4.542-3.691-8.864-4.028-11.575l-17.93-2.859c-4.846,0.634-54.697,8.23-92,57.413l48.271,44.237v-15.004
			c0-1.744,1.412-3.16,3.16-3.16c1.749,0,3.161,1.416,3.161,3.16L164.81,423.302L164.81,423.302z"/>
	</g>
	<g>
		<path fill="#4C230D" d="M317.147,112.254c-5.445,10.139,22.856,37.914,31.182,35.52c8.32-2.402,8.151-9.861,1.999-58.464
			c-6.153-48.596-59.928-55.766-88.609-48.22c-47.274-13.667-80.982,25.357-81.862,55.378c-21.442,21.822,0.88,42.146,0.88,42.146
			s10.294,13.456,16.377,4.318c6.083-9.133,9.458-29.766,4.666-35.188c16.671,1.087,24.924-7.725,24.693-15.72
			c14.155,8.272,28.698,9.004,48.689-5.179C275.162,86.846,307.486,117.444,317.147,112.254z"/>
		<path fill="#28140F" d="M347.206,151.079c-8.237,0-23.465-13.659-30.153-24.841c-2.327-3.892-3.578-7.333-3.746-10.295
			c-11.539-1.201-31.832-18.994-38.438-25.052c-10.243,6.868-19.62,10.212-28.607,10.212c-5.762,0-11.469-1.376-17.336-4.189
			c-0.778,2.453-2.183,4.772-4.138,6.783c-4.196,4.322-10.601,6.86-18.188,7.248c2.202,9.65-1.718,26.027-6.853,33.744
			c-2.527,3.791-5.656,4.588-7.83,4.588c-6.423,0-12.302-6.985-13.522-8.526c-1.564-1.499-10.643-10.717-10.995-23.402
			c-0.219-7.862,2.926-15.325,9.349-22.205c1.571-28.651,28.581-60.024,65.789-60.024c6.302,0,12.764,0.908,19.226,2.699
			c6.422-1.604,13.723-2.449,21.172-2.449c16.551,0,32.246,4.103,44.192,11.555c14.934,9.321,24.039,23.836,26.339,41.989
			c6.113,48.306,7.014,58.648-4.26,61.902C348.583,150.989,347.91,151.079,347.206,151.079z M317.147,109.09
			c0.816,0,1.631,0.317,2.236,0.923c0.985,0.989,1.208,2.503,0.548,3.735c-0.881,1.643,0.07,5.101,2.551,9.247
			c6.281,10.506,19.89,21.759,24.724,21.759c0.165,0,0.235-0.016,0.25-0.02c5.618-1.624,5.582-8.821-0.266-55.03
			c-4.481-35.402-36.134-48.017-64.257-48.017c-7.244,0-14.301,0.853-20.41,2.457c-0.556,0.148-1.131,0.141-1.683-0.02
			c-6.168-1.784-12.324-2.687-18.306-2.687c-24.18,0-58.519,20.973-59.52,55.123c-0.023,0.795-0.349,1.557-0.903,2.125
			c-5.734,5.832-8.558,12.035-8.397,18.438c0.281,10.877,9.066,19.076,9.156,19.154c0.132,0.125,0.266,0.27,0.375,0.41
			c1.573,2.046,5.763,6.263,8.669,6.263c0.645,0,1.521-0.2,2.564-1.768c5.914-8.887,8.218-27.623,4.929-31.346
			c-0.849-0.962-1.032-2.335-0.469-3.485c0.566-1.15,1.779-1.843,3.043-1.765c8.042,0.517,14.483-1.4,18.271-5.295
			c2.046-2.104,3.128-4.651,3.055-7.174c-0.032-1.15,0.562-2.226,1.549-2.808c0.989-0.591,2.222-0.591,3.207-0.012
			c6.317,3.688,12.267,5.48,18.196,5.48c8.25,0,17.104-3.438,27.071-10.51c1.231-0.872,2.905-0.755,4.005,0.282
			c10.268,9.716,29.433,25.134,37.154,25.134c0.497,0,0.896-0.074,1.162-0.219C316.122,109.215,316.639,109.09,317.147,109.09z"/>
	</g>
	<g>
		<path fill="#28140F" d="M231.28,201.994c-0.717,0-1.44-0.243-2.031-0.739c-1.333-1.127-1.509-3.114-0.391-4.452
			c0.653-0.774,16.135-18.888,36.307-10.78c2.437,0.978,4.763,2.011,7.005,3.004c11.871,5.268,18.415,7.705,25.91,1.072
			c1.306-1.162,3.308-1.033,4.462,0.273c1.158,1.306,1.037,3.305-0.274,4.463c-10.889,9.638-21.466,4.94-32.662-0.028
			c-2.176-0.965-4.438-1.967-6.799-2.917c-15.873-6.375-28.573,8.351-29.105,8.98C233.075,201.61,232.183,201.994,231.28,201.994z"
			/>
	</g>
	<g>
		<g>
			<g>
				<path fill="#C2E8F8" d="M321.466,166.544c5.734,0.962,9.668,1.365,14.248-2.914c7.805-7.291,8.458-14.053,1.167-21.857
					c-7.291-7.803-13.879-7.388-21.682-0.098c-4.558,4.26-4.424,8.179-3.88,13.94l-34.062,32.871
					c-4.589,4.287-6.188,6.544-1.964,11.07c4.228,4.521,6.798,3.297,11.386-0.989L321.466,166.544z"/>
			</g>
			<g>
				<path fill="#2C2010" d="M337.529,141.167c7.481,8.007,7.104,15.356-1.204,23.117c-4.679,4.365-8.676,4.181-14.578,3.21
					l-34.464,31.726c-4.225,3.951-7.604,6.329-12.639,0.943c-4.861-5.207-2.486-8.128,2.004-12.329l33.743-32.562
					c-0.544-5.93-0.445-9.908,4.201-14.249C323.015,133.153,330.09,133.196,337.529,141.167z M275.943,198.947
					c3.658,3.912,5.543,3.254,10.127-1.033l34.793-32.026c0.199-0.184,0.478-0.267,0.75-0.227c5.583,0.939,9.216,1.314,13.49-2.683
					c7.62-7.119,7.961-13.28,1.123-20.594c-6.777-7.255-12.696-7.275-20.423-0.058c-4.237,3.966-4.13,7.6-3.598,13.205
					c0.022,0.273-0.074,0.54-0.271,0.728l-34.058,32.871C273.396,193.318,272.26,195,275.943,198.947z"/>
			</g>
		</g>
		<g>
			<g>
				<path fill="#EE2134" d="M316.924,156.848l-32.746,30.591l3.864,4.138l32.771-30.618c3.98,2.409,9.223,2.006,12.788-1.33
					c4.301-4.018,4.527-10.761,0.507-15.063c-4.019-4.298-10.762-4.529-15.06-0.508C315.445,147.422,314.71,152.694,316.924,156.848
					z"/>
			</g>
			<g>
				<path fill="#2C2010" d="M334.76,143.96c4.351,4.654,4.101,11.973-0.555,16.322c-3.587,3.352-8.95,4.04-13.261,1.771
					l-32.292,30.173c-0.364,0.336-0.924,0.316-1.264-0.043l-3.861-4.134c-0.336-0.36-0.315-0.923,0.044-1.259l32.258-30.142
					c-2.058-4.486-1.029-9.841,2.609-13.244C323.092,139.059,330.414,139.31,334.76,143.96z M288.086,190.318l32.119-30.012
					c0.294-0.274,0.729-0.317,1.068-0.105c3.725,2.245,8.538,1.744,11.719-1.221c3.931-3.673,4.143-9.868,0.466-13.803
					c-3.674-3.935-9.868-4.146-13.804-0.47c-3.217,3.008-4.021,7.831-1.943,11.723c0.188,0.352,0.112,0.798-0.181,1.068
					l-32.095,29.985L288.086,190.318z"/>
			</g>
		</g>
	</g>
	<g>
		<g>
			<path fill="#F4BE78" d="M211.391,390.869c0,0,5.037-8.167-2.14-14.742c-10.405-12.716-38.95,11.684-38.95,11.684
				s-9.896-13.153-27.708-22.726c-3.696-1.938-7.225-3.407-10.597-4.519c12.942-10.235,23.406-20.101,23.406-20.101l-21.509-21.63
				l-22.792-18.979c0,0-33.838,32.771-31.076,71.5c0.203,2.892,0.805,5.164,1.729,6.918c0.184,3.472,1.917,8.281,6.802,15.104
				c27.692,42.673,71.04,25.396,70.652,35.25c1.079,18.099,34.604,24.199,41.206,25.628c6.588,1.438,16.218,5.006,16.378-8.223
				c9.79,1.35,9.077-10.822,9.077-10.822s12.295-4.694,4.064-16.608C243.819,403.025,211.391,390.869,211.391,390.869z"/>
		</g>
		<g>
			<path fill="#010101" d="M209.191,458.958c-2.615,0-5.322-0.642-7.709-1.205c-0.599-0.145-1.182-0.285-1.741-0.406l-1.126-0.237
				c-27.427-5.738-41.746-15.239-42.56-28.232c-1.303-0.623-5.43-0.889-8.793-1.107c-14.652-0.953-41.926-2.727-61.358-32.668
				c-4.421-6.164-6.822-11.433-7.257-15.971c-0.97-2.089-1.571-4.619-1.779-7.546c-2.831-39.743,30.607-72.614,32.035-73.995
				c1.158-1.127,2.979-1.193,4.221-0.16l22.791,18.979c0.075,0.062,0.149,0.129,0.22,0.199l21.509,21.631
				c0.603,0.605,0.931,1.424,0.919,2.279c-0.016,0.854-0.371,1.662-0.993,2.25c-0.095,0.086-8.413,7.916-19.275,16.791
				c1.937,0.816,3.864,1.726,5.765,2.727c13.71,7.365,22.824,16.688,26.685,21.104c5.577-4.343,19.314-14.098,30.141-14.098
				c4.4,0,8.086,1.609,10.663,4.654c5.312,4.981,5.291,11.037,4.013,15.229c5.981,2.668,18.316,9.204,20.617,18.513
				c0.669,2.711,0.713,6.718-2.382,11.138c2.123,3.806,2.676,7.432,1.636,10.787c-1.217,3.919-4.343,6.329-6.432,7.558
				c-0.164,2.434-0.86,6.363-3.47,9.128c-1.533,1.628-3.515,2.617-5.805,2.915C218.595,457.174,213.515,458.958,209.191,458.958z
				 M162.373,428.57c0.48,6.743,7.423,16.049,37.541,22.351l1.17,0.25c0.603,0.13,1.224,0.274,1.861,0.426
				c2.147,0.515,4.368,1.037,6.246,1.037c1.843,0,4.358,0,4.439-6.633c0.013-0.908,0.412-1.769,1.095-2.363
				c0.689-0.587,1.597-0.849,2.496-0.733c0.36,0.055,0.704,0.077,1.024,0.077h0.005c1.537,0,2.261-0.575,2.671-1.015
				c1.647-1.73,1.851-5.425,1.792-6.583c-0.074-1.367,0.747-2.639,2.029-3.128c0.021-0.009,3.731-1.51,4.655-4.55
				c0.603-1.987-0.09-4.446-2.064-7.304c-0.831-1.199-0.732-2.812,0.241-3.901c2.249-2.519,3.052-4.909,2.461-7.3
				c-1.776-7.2-14.863-13.541-19.757-15.371c-0.884-0.336-1.577-1.044-1.882-1.939c-0.305-0.893-0.195-1.877,0.302-2.681
				c0.355-0.603,3.438-6.151-1.584-10.757c-0.113-0.102-0.219-0.206-0.313-0.327c-1.399-1.714-3.281-2.512-5.918-2.512
				c-9.375,0-23.772,10.542-28.534,14.602c-0.656,0.563-1.521,0.829-2.394,0.734c-0.868-0.093-1.658-0.543-2.183-1.239
				c-0.097-0.128-9.746-12.747-26.679-21.842c-3.312-1.735-6.717-3.188-10.088-4.299c-1.104-0.363-1.92-1.303-2.124-2.451
				c-0.203-1.143,0.239-2.309,1.149-3.031c9.095-7.189,17.016-14.257,20.813-17.719l-19.092-19.198l-20.41-16.995
				c-7.024,7.624-30.408,35.521-28.166,66.96c0.164,2.343,0.629,4.253,1.373,5.673c0.215,0.405,0.337,0.849,0.359,1.305
				c0.18,3.4,2.272,7.918,6.216,13.426c17.784,27.398,42.048,28.977,56.543,29.918C155.609,421.972,162.482,422.421,162.373,428.57z
				"/>
		</g>
	</g>
	<g>
		<g>
			<path fill="#F4BE78" d="M300.011,390.869c0,0-5.04-8.167,2.142-14.742c10.403-12.716,38.948,11.684,38.948,11.684
				s9.896-13.153,27.708-22.726c3.692-1.938,7.222-3.407,10.594-4.519c-12.939-10.235-19.189-20.101-19.189-20.101l21.509-21.63
				l22.791-18.979c0,0,29.622,32.771,26.865,71.5c-0.208,2.892-0.81,5.164-1.733,6.918c-0.184,3.472-1.911,8.281-6.802,15.104
				c-27.691,42.673-71.035,25.396-70.651,35.25c-1.076,18.099-34.604,24.199-41.202,25.628c-6.593,1.438-16.218,5.006-16.382-8.223
				c-9.791,1.35-9.074-10.822-9.074-10.822s-12.299-4.694-4.067-16.608C267.578,403.025,300.011,390.869,300.011,390.869z"/>
		</g>
		<g>
			<path fill="#010101" d="M302.206,458.958c-4.318,0-9.403-1.784-10.529-9.747c-2.294-0.298-4.274-1.29-5.809-2.915
				c-2.609-2.765-3.302-6.695-3.466-9.128c-2.09-1.229-5.215-3.639-6.432-7.558c-1.045-3.355-0.492-6.981,1.635-10.787
				c-3.099-4.425-3.055-8.427-2.385-11.138c2.301-9.309,14.635-15.845,20.616-18.513c-1.278-4.192-1.294-10.248,4.013-15.229
				c2.577-3.045,6.264-4.654,10.663-4.654c10.83,0,24.566,9.755,30.142,14.097c3.859-4.415,12.971-13.731,26.655-21.087
				c1.956-1.023,3.925-1.955,5.893-2.779c-10.351-9.07-15.423-16.987-15.662-17.363c-0.785-1.247-0.609-2.875,0.431-3.92
				l21.509-21.631c0.07-0.069,0.146-0.137,0.22-0.199l22.793-18.978c1.302-1.088,3.229-0.95,4.365,0.308
				c1.246,1.383,30.496,34.229,27.677,73.849c-0.215,2.974-0.798,5.449-1.783,7.546c-0.435,4.541-2.841,9.812-7.335,16.088
				c-19.35,29.824-46.624,31.598-61.276,32.551c-3.362,0.22-7.488,0.484-8.792,1.107c-0.813,12.993-15.134,22.494-42.563,28.232
				l-1.126,0.237c-0.558,0.121-1.139,0.263-1.741,0.406C307.528,458.317,304.826,458.958,302.206,458.958z M294.605,442.875
				c0.754,0,1.486,0.27,2.065,0.763c0.688,0.596,1.086,1.455,1.099,2.363c0.077,6.638,2.624,6.699,4.437,6.633
				c1.881,0,4.103-0.522,6.25-1.037c0.638-0.15,1.255-0.296,1.854-0.426l1.179-0.25c30.113-6.302,37.057-15.606,37.542-22.351
				c-0.109-6.148,6.759-6.599,14.699-7.114c14.494-0.942,38.759-2.519,56.465-29.797c4.021-5.63,6.113-10.146,6.294-13.546
				c0.022-0.457,0.145-0.899,0.354-1.307c0.752-1.42,1.213-3.324,1.382-5.675c2.217-31.163-17.707-58.806-24.113-66.823
				l-20.25,16.861l-19.533,19.645c2.475,3.32,8.136,10.231,17.038,17.272c0.91,0.724,1.353,1.89,1.148,3.035
				s-1.017,2.089-2.124,2.448c-3.371,1.109-6.773,2.558-10.113,4.313c-16.973,9.121-26.557,21.697-26.648,21.822
				c-0.523,0.699-1.314,1.149-2.183,1.242c-0.864,0.09-1.733-0.171-2.397-0.734c-4.758-4.06-19.159-14.603-28.534-14.603
				c-2.637,0-4.515,0.799-5.918,2.513c-0.095,0.121-0.195,0.228-0.312,0.327c-5.19,4.758-1.733,10.516-1.584,10.753
				c0.497,0.808,0.605,1.792,0.302,2.685c-0.305,0.891-0.995,1.604-1.878,1.939c-4.897,1.838-17.993,8.193-19.765,15.375
				c-0.588,2.387,0.22,4.777,2.469,7.296c0.97,1.091,1.07,2.702,0.242,3.901c-1.986,2.867-2.68,5.341-2.059,7.332
				c0.924,2.987,4.612,4.51,4.647,4.521c1.29,0.497,2.112,1.764,2.026,3.141c-0.056,1.146,0.144,4.84,1.795,6.57
				c0.41,0.438,1.133,1.014,2.672,1.014c0.324,0,0.664-0.021,1.023-0.076C294.32,442.887,294.465,442.875,294.605,442.875z"/>
		</g>
	</g>
</g>
</svg>
