<?xml version="1.0" encoding="utf-8"?>
<!-- Generator: Adobe Illustrator 16.0.0, SVG Export Plug-In . SVG Version: 6.00 Build 0)  -->
<!DOCTYPE svg PUBLIC "-//W3C//DTD SVG 1.1//EN" "http://www.w3.org/Graphics/SVG/1.1/DTD/svg11.dtd">
<svg version="1.1" id="Layer_1" xmlns="http://www.w3.org/2000/svg" xmlns:xlink="http://www.w3.org/1999/xlink" x="0px" y="0px"
	 width="500px" height="500px" viewBox="0 0 500 500" enable-background="new 0 0 500 500" xml:space="preserve">
<g id="Layer_1_copy_19">
	<g>
		<g>
			<path fill="#F2BC77" d="M36.172,68.644l49.058,72.257l37.79-36.128c0,0,35.347,21.423,89.165,7.386
				c3.373-0.882,18.78-3.628,24.935-4.193c44.929-4.116,151.073-17.445,151.073-17.445s11.27-2.652,8.613-11.933
				c9.943-1.326,24.533,3.315,20.554-17.236c9.28-7.293,20.551-20.549-14.585-25.854c-36.466,0.663-94.8,0-94.8,0
				s-25.854-13.921-70.938-5.303c-45.073,8.618-97.449-2.815-97.449-2.815s-40.44-16.412-78.888,12.757
				C43.854,53.877,36.172,68.644,36.172,68.644z"/>
		</g>
		<g>
			<path fill="#27140E" d="M85.229,144.879c-0.139,0-0.275-0.008-0.419-0.02c-1.166-0.126-2.215-0.755-2.874-1.724L32.879,70.877
				c-0.821-1.209-0.91-2.772-0.235-4.071c0.332-0.634,8.26-15.653,25.545-29.751c16.001-12.142,34.024-18.256,53.692-18.256
				c15.537,0,26.717,3.943,28.851,4.754c3.036,0.632,29.077,5.878,58.876,5.878c13.431,0,25.771-1.059,36.687-3.144
				c10.018-1.915,19.908-2.886,29.403-2.886c24.419,0,39.438,6.321,43.231,8.13c4.839,0.049,28.241,0.283,53.062,0.283
				c16.285,0,29.98-0.1,40.709-0.292c0.22-0.012,0.447,0.01,0.666,0.041c16.565,2.502,25.15,6.953,27.013,14.008
				c1.424,5.39-1.508,11.238-8.72,17.396c0.887,6.328,0.037,10.993-2.577,14.214c-3.934,4.854-10.419,4.964-16.146,5.06
				c-0.604,0.01-1.202,0.02-1.787,0.037c-0.144,1.735-0.655,3.386-1.541,4.894c-3.144,5.356-9.761,7.047-10.509,7.222
				c-0.135,0.033-0.272,0.057-0.415,0.074c-1.062,0.134-106.722,13.386-151.199,17.461c-6.086,0.559-21.212,3.274-24.301,4.08
				c-12.456,3.25-24.977,4.898-37.217,4.898c-27.032,0-45.607-7.896-52.29-11.259l-35.699,34.131
				C87.234,144.489,86.25,144.879,85.229,144.879z M40.863,68.469l45.018,66.309l34.391-32.878c1.296-1.242,3.268-1.464,4.805-0.529
				c0.188,0.114,19.635,11.579,50.892,11.579c11.562,0,23.403-1.563,35.208-4.64c3.724-0.972,19.42-3.738,25.582-4.303
				c43.285-3.965,144.86-16.673,150.685-17.403c1.173-0.327,4.179-1.51,5.312-3.478c0.351-0.602,0.753-1.614,0.229-3.446
				c-0.317-1.111-0.131-2.307,0.501-3.272c0.634-0.968,1.657-1.612,2.8-1.762c2.135-0.287,4.362-0.324,6.521-0.36
				c4.184-0.071,8.504-0.144,10.103-2.116c1.316-1.626,1.508-5.105,0.554-10.063c-0.289-1.465,0.271-2.963,1.442-3.884
				c5.496-4.317,8.401-8.285,7.788-10.623c-0.328-1.231-2.748-5.441-20.179-8.122c-10.725,0.193-24.354,0.291-40.519,0.291
				c-27.794,0-53.802-0.291-54.062-0.294c-0.646-0.009-1.275-0.173-1.837-0.476c-0.139-0.072-14.688-7.645-40.396-7.645
				c-8.996,0-18.386,0.925-27.911,2.744c-11.406,2.181-24.248,3.289-38.179,3.289c-32.448,0-59.722-5.875-60.864-6.123
				c-0.219-0.049-0.439-0.116-0.649-0.201c-0.099-0.041-10.903-4.307-26.213-4.307c-17.887,0-34.301,5.569-48.773,16.547
				C50.745,53.392,43.513,64.115,40.863,68.469z"/>
		</g>
	</g>
	<g>
		<path fill="#F2BC77" d="M93.186,68.644c0,0,19.225,45.225,116.015,29.24c96.787-15.982,155.788-25.265,155.788-25.265
			s31.16-3.975,30.493-18.561c-0.662-14.583-19.766-9.964-25.854-9.944c0,0-68.946,1.895-71.596-0.711
			c-2.651-2.602-29.169-9.99-44.417,0"/>
		<path fill="#27140E" d="M170.436,105.303c-65.123,0-80.201-33.434-80.912-35.103c-0.858-2.024,0.084-4.358,2.104-5.218
			c2.009-0.86,4.342,0.074,5.208,2.08c0.198,0.449,19.725,42.088,111.714,26.897c95.697-15.804,155.229-25.175,155.817-25.269
			c9.094-1.173,27.517-6.224,27.143-14.451c-0.099-2.149-0.712-3.689-1.887-4.708c-3.32-2.893-11.118-2.165-15.772-1.729
			c-1.635,0.153-3.045,0.284-4.207,0.289c-70.537,1.943-72.956-0.433-74.396-1.849c-2.793-1.911-26.24-8.169-39.453,0.487
			c-1.837,1.208-4.305,0.693-5.503-1.146c-1.208-1.838-0.695-4.305,1.144-5.507c16.041-10.51,42.479-4.305,48.609-0.129
			c5.144,1.172,38.979,1.03,69.478,0.191c0.987-0.004,2.195-0.126,3.59-0.256c6.305-0.589,15.839-1.482,21.739,3.648
			c2.854,2.488,4.406,5.97,4.604,10.346c0.812,17.736-30.399,22.234-33.96,22.688c-0.48,0.077-59.985,9.445-155.651,25.244
			C195.021,104.256,181.939,105.303,170.436,105.303z"/>
	</g>
	<g>
		<line fill="none" x1="417.359" y1="61.351" x2="392.762" y2="61.351"/>
		<path fill="#27140E" d="M417.359,65.329h-24.599c-2.193,0-3.976-1.781-3.976-3.978c0-2.197,1.781-3.978,3.976-3.978h24.599
			c2.195,0,3.979,1.781,3.979,3.978C421.34,63.548,419.556,65.329,417.359,65.329z"/>
	</g>
	<g>
		<line fill="none" x1="396.807" y1="78.587" x2="344.105" y2="75.938"/>
		<path fill="#27140E" d="M396.811,82.564c-0.067,0-0.134,0-0.199-0.003l-52.703-2.65c-2.195-0.112-3.889-1.978-3.777-4.173
			c0.114-2.193,1.996-3.88,4.175-3.771l52.705,2.649c2.191,0.109,3.883,1.977,3.772,4.17
			C400.677,80.912,398.917,82.564,396.811,82.564z"/>
	</g>
	<g>
		<g>
			<path fill="#F2BC77" d="M319.744,483.174l-83.32-6.164l6.996-77.09c0,0-26.39-33.393-15.089-88.255
				c0.707-3.447,2.541-19.04,2.683-25.229c1.049-45.143,7.501-152.109,7.501-152.109s2.053-11.464,12.495-9.619
				c0.695-10.03-5.561-24.169,17.42-21.974c7.329-9.883,21.086-22.259,29.667,12.313c2.11,36.407,7.378,94.512,7.378,94.512
				s17.379,24.576,11.378,70.26c-6.003,45.684,10.688,96.914,10.688,96.914s9.517,19.918,6.74,61.73
				C330.361,468.344,319.744,483.174,319.744,483.174z"/>
		</g>
		<g>
			<path fill="#27140E" d="M319.744,487.15c-0.1,0-0.196-0.009-0.293-0.009l-83.319-6.171c-1.065-0.073-2.053-0.578-2.739-1.391
				c-0.688-0.812-1.024-1.87-0.927-2.937l6.857-75.579c-4.879-6.902-25.31-39.594-14.887-90.205
				c0.649-3.146,2.464-18.432,2.603-24.512c1.036-44.701,7.438-151.19,7.504-152.263c0.012-0.155,0.031-0.309,0.056-0.459
				c0.757-4.234,4.31-11.986,12.427-12.99c-0.027-0.578-0.06-1.169-0.097-1.771c-0.316-5.362-0.679-11.44,3.423-15.791
				c3.261-3.459,8.451-4.901,16.24-4.472c5.501-6.879,10.952-10.36,16.213-10.36c8.572,0,14.837,8.453,19.157,25.844
				c0.058,0.238,0.095,0.484,0.106,0.73c1.931,33.33,6.577,85.559,7.279,93.391c3.208,5.083,16.997,29.846,11.447,72.131
				c-5.625,42.79,9.329,91.376,10.461,94.962c1.206,2.685,9.666,23.187,6.99,63.424c-4.023,30.774-14.812,46.123-15.269,46.758
				C322.224,486.533,321.021,487.15,319.744,487.15z M240.754,473.335l76.893,5.691c2.753-4.714,9.725-18.464,12.688-41.081
				c2.638-39.773-6.297-59.32-6.39-59.506c-0.07-0.154-0.136-0.318-0.188-0.474c-0.69-2.13-16.898-52.618-10.846-98.668
				c5.695-43.384-10.524-67.217-10.691-67.453c-0.394-0.567-0.643-1.238-0.707-1.929c-0.049-0.58-5.257-58.189-7.361-94.269
				c-3.117-12.366-7.244-19.452-11.347-19.452c-2.907,0-6.979,3.246-11.175,8.907c-0.829,1.118-2.154,1.718-3.572,1.589
				c-1.461-0.14-2.822-0.209-4.05-0.209c-2.707,0-6.269,0.354-7.866,2.047c-1.744,1.854-1.517,5.746-1.268,9.867
				c0.126,2.166,0.256,4.406,0.107,6.583c-0.08,1.126-0.629,2.165-1.517,2.859c-0.89,0.697-2.035,0.984-3.146,0.785
				c-0.524-0.093-1.029-0.14-1.504-0.14c-4.646,0-6.069,5.128-6.347,6.364c-0.373,6.146-6.471,108.263-7.479,151.686
				c-0.142,6.188-1.976,22.115-2.76,25.929c-10.802,52.446,14.061,84.677,14.312,84.994c0.631,0.796,0.932,1.812,0.843,2.827
				L240.754,473.335z"/>
		</g>
	</g>
	<g>
		<path fill="#F2BC77" d="M282.844,426.953c0,0-46.581-15.643-38.179-113.385c8.219-95.614,8.235-95.612,13.062-157.282
			c0,0,1.541-31.373,16.135-31.849c14.589-0.473,11.472,18.932,11.927,25.003c0,0,3.478,68.884,6.276,71.325
			c2.806,2.439,12.235,28.298,3.461,44.282"/>
		<path fill="#27140E" d="M282.844,430.928c-0.419,0-0.845-0.062-1.263-0.203c-2.024-0.684-49.453-17.789-40.876-117.498
			l0.878-10.252c7.391-85.988,7.533-87.63,12.185-147.001c0.166-3.469,2.219-34.934,19.963-35.509
			c4.342-0.174,7.969,1.128,10.676,3.787c5.568,5.475,5.428,15.046,5.328,21.382c-0.02,1.403-0.049,2.616,0.021,3.508
			c1.544,30.562,4.031,64.305,5.598,69.345c4.634,5.777,12.891,31.666,3.654,48.47c-1.058,1.927-3.482,2.627-5.398,1.579
			c-1.928-1.059-2.635-3.48-1.572-5.4c7.604-13.854-0.459-36.738-2.758-39.541c-1.354-1.161-3.901-3.382-7.463-73.955
			c-0.08-1.065-0.062-2.484-0.037-4.126c0.07-4.675,0.191-12.5-2.95-15.588c-1.104-1.087-2.681-1.575-4.837-1.512
			c-8.262,0.268-11.848,19.024-12.29,28.068c-4.658,59.513-4.802,61.158-12.19,147.177l-0.883,10.251
			c-7.987,92.921,35.074,109.124,35.51,109.278c2.061,0.73,3.17,2.982,2.459,5.05C286.027,429.888,284.491,430.928,282.844,430.928z
			"/>
	</g>
	<g>
		<line fill="none" x1="268.43" y1="102.734" x2="268.43" y2="126.328"/>
		<path fill="#27140E" d="M268.43,130.306c-2.191,0-3.976-1.778-3.976-3.978v-23.593c0-2.198,1.784-3.98,3.976-3.98
			c2.199,0,3.983,1.783,3.983,3.98v23.593C272.413,128.527,270.629,130.306,268.43,130.306z"/>
	</g>
	<g>
		<line fill="none" x1="251.01" y1="124.708" x2="256.076" y2="177.361"/>
		<path fill="#27140E" d="M256.066,181.339c-2.021,0-3.756-1.539-3.95-3.595l-5.061-52.656c-0.212-2.187,1.39-4.13,3.576-4.339
			c2.195-0.224,4.131,1.392,4.344,3.578l5.061,52.655c0.207,2.187-1.391,4.13-3.577,4.342
			C256.328,181.335,256.197,181.339,256.066,181.339z"/>
	</g>
</g>
</svg>
