<svg id="i_was_hit" data-name="i was hit" xmlns="http://www.w3.org/2000/svg" viewBox="0 0 300 300"><defs><style>.cls-1,.cls-13,.cls-3,.cls-7{fill:#f1ba85;}.cls-1,.cls-10,.cls-11,.cls-12,.cls-13,.cls-2,.cls-3,.cls-4,.cls-7,.cls-9{stroke:#3c2415;stroke-miterlimit:10;}.cls-1{stroke-width:1.6px;}.cls-2{fill:#5a631e;}.cls-10,.cls-11,.cls-12,.cls-2,.cls-3,.cls-4,.cls-9{stroke-width:1.75px;}.cls-4{fill:#754c29;}.cls-5{fill:#81441e;}.cls-6{fill:#3c2415;}.cls-7{stroke-width:1.35px;}.cls-8{fill:#4b2718;}.cls-9{fill:#f7941e;}.cls-10{fill:#2bb673;}.cls-11{fill:#f15a29;}.cls-12{fill:#8b5e3c;}.cls-13{stroke-width:1.72px;}</style></defs><title>i was hit</title><path class="cls-1" d="M148.58,90.88s-3.16-9.17,4.88-8,7.47,6.79,4.87,9.62a36.42,36.42,0,0,1-5.94,5S148,95.37,148.58,90.88Z"/><path class="cls-2" d="M127.9,76.47s5-1.06,3.6,5.76-5.54,20.12,3.36,21.38,13.57-11.4,13.57-11.4l6.73,2.92s-5.34,22.94-24.26,18.48a16.92,16.92,0,0,1-12.62-13.92S120.85,77.72,127.9,76.47Z"/><path class="cls-3" d="M194.57,82s.91-.28.57-3.1S206.51,82,206.51,82l1.07,4.22-6.9,9.45S189.61,88.38,194.57,82Z"/><path class="cls-4" d="M210.34,222.45s-3.8,11.62,2.26,12.75S236,239,236,234.29s-7.65-7-12.78-10.6Z"/><path class="cls-5" d="M85.25,206.54l8.23,1.79s10.59,11.88,14,13.33,2.78,7.44-3.91,5.35-22.31-9.46-22.31-9.46-4.37-3.82,3.94-11"/><path class="cls-6" d="M102.57,227.77c-7-2.35-21.11-9-21.7-9.28a1,1,0,0,1-.24-.16,5.07,5.07,0,0,1-1.51-3.75c0-2.73,1.83-5.71,5.44-8.83a1.05,1.05,0,0,1,.9-.23l8.24,1.79a1,1,0,0,1,.56.32c2.9,3.26,11,12,13.67,13.07a4.25,4.25,0,0,1,2.46,5.24c-.68,1.86-2.89,3.38-7.09,2.06l-.73-.23M81.92,216.68c1.7.79,15.83,7.39,22,9.33,2.33.73,4.06.43,4.5-.79a2.14,2.14,0,0,0-1.31-2.6c-3.39-1.42-12.37-11.3-14.2-13.35l-7.38-1.59c-3.56,3.19-4.33,5.51-4.33,6.91a3.26,3.26,0,0,0,.71,2.09"/><path class="cls-5" d="M110.54,216.81l8.42.2s12.63,9.68,16.31,10.46,4.12,6.79-2.84,6-23.69-5.11-23.69-5.11-5-2.92,1.8-11.54"/><path class="cls-6" d="M131.54,234.39c-7.31-1-22.42-4.86-23.06-5a1.53,1.53,0,0,1-.27-.11,5.13,5.13,0,0,1-2.18-3.4c-.51-2.68.73-5.95,3.69-9.69a1,1,0,0,1,.84-.4L119,216a1.05,1.05,0,0,1,.62.21c3.45,2.66,13.06,9.67,15.88,10.27a4.23,4.23,0,0,1,3.4,4.68c-.32,2-2.21,3.86-6.57,3.36l-.77-.1m-22.36-7c1.82.46,16.93,4.29,23.37,5,2.42.28,4.06-.34,4.27-1.62a2.14,2.14,0,0,0-1.77-2.3c-3.6-.76-14.28-8.78-16.46-10.44l-7.55-.19c-2.9,3.81-3.22,6.23-3,7.6a3.19,3.19,0,0,0,1.1,1.92"/><path class="cls-7" d="M128.17,37.25s3.17,2,4.06,7.87c.7,4.54,3.05,5.22,4.05,5.3a.92.92,0,0,1,.64.22c.42.52,1.19,1.87-.69,3.06a1.81,1.81,0,0,0-.43,2.58s8,11-16.48,11.19c-1.16.37-.6,5.81-2.41,6.17-.15,0,0,.45,0,.57-.38.87-2,4-4.39-1,0-.09.54-4.23.54-4.23s.87-1.14-3.13-3.41c-4.77-2.71-5.76-9.25-5.76-9.25l2.37-15,14-5.56Z"/><path class="cls-6" d="M115.24,76.75c-1.24.13-2.36-.9-3.43-3.17-.12-.26-.14-.3.47-4.67a.81.81,0,0,1,.07-.22c0-.15-.28-1-2.82-2.42-5-2.86-6.09-9.51-6.13-9.79a1,1,0,0,1,0-.24l2.36-15a.76.76,0,0,1,.48-.6l14-5.55a.79.79,0,0,1,.43,0l7.61,1.46a.57.57,0,0,1,.27.11c.14.09,3.47,2.31,4.4,8.39.61,4,2.54,4.59,3.35,4.66a1.6,1.6,0,0,1,1.19.5,2.81,2.81,0,0,1,.64,2.16,3.06,3.06,0,0,1-1.53,2,.91.91,0,0,0-.44.55,1.5,1.5,0,0,0,.23,1c.08.11,2.33,3.28.9,6.5-1.69,3.79-7.66,5.77-17.72,5.88a9.87,9.87,0,0,0-.42,1.94c-.24,1.56-.5,3.3-1.52,4a.88.88,0,0,1-.08.37c-.34.78-1.1,2.1-2.35,2.23m-2-3.65c.79,1.62,1.46,2.17,1.8,2.13s.72-.51,1-1.17c-.16-.93.45-1.13.64-1.17.48-.09.78-2,.92-3,.25-1.62.45-2.9,1.41-3.2a.91.91,0,0,1,.23,0c9.38-.07,15.2-1.82,16.61-5,1.08-2.41-.74-5-.76-5a3.07,3.07,0,0,1-.47-2.14,2.4,2.4,0,0,1,1.12-1.53,1.74,1.74,0,0,0,.84-1,1.31,1.31,0,0,0-.26-.87l-.18,0c-1.17-.09-4-.86-4.74-6-.73-4.76-3.09-6.85-3.62-7.26l-7.22-1.38L107.21,41.9l-2.28,14.46c.15.83,1.29,6.28,5.35,8.58,2.18,1.24,3.35,2.36,3.57,3.42a1.52,1.52,0,0,1-.07.89c-.22,1.59-.45,3.32-.5,3.85"/><path class="cls-8" d="M115.09,52s-3.36-3.87-4.41.89,2.57,4.37,2.57,4.37.06,10-5.08,9.25S89,56.82,99.3,42.24s27.46-9.07,27.46-9.07,5.91.23,7.32.08c1.19-.13-3,6.5-7.92,4.91-1.8,1.6-6.78,2.4-6.78,2.4s1.83,8.11-4.29,11.42"/><path class="cls-6" d="M109.11,67.27a4.13,4.13,0,0,1-1,0c-3.53-.5-9.72-4.16-12.13-9.74-1.44-3.35-2.14-8.79,2.74-15.71a23.88,23.88,0,0,1,17.46-10.26,29.41,29.41,0,0,1,10.76.87c1.71.07,6,.19,7.12.08a.92.92,0,0,1,1,.85c.15,1.37-3,5.41-6.7,5.8h0a5.91,5.91,0,0,1-2-.14c-1.63,1.18-4.66,1.89-6.07,2.17.31,2.22.66,8.52-4.81,11.48a.77.77,0,0,1-.94-.17c-.37-.42-1.36-1.28-2-1.22s-.93,1.14-1.06,1.77c-.3,1.36-.21,2.37.27,2.91a1.94,1.94,0,0,0,1.47.54.78.78,0,0,1,.59.19.77.77,0,0,1,.25.56c0,.39,0,9.53-4.9,10m7.18-34.21a22.12,22.12,0,0,0-16.37,9.62c-3.59,5.09-4.46,9.88-2.58,14.22a16.29,16.29,0,0,0,10.93,8.83,2.62,2.62,0,0,0,.68,0c2.67-.28,3.41-5.19,3.52-7.79a3.2,3.2,0,0,1-1.91-1c-.83-.94-1-2.37-.63-4.27s1.22-2.83,2.41-3A4,4,0,0,1,115.21,51c5-3.17,3.44-10.22,3.42-10.29a.77.77,0,0,1,.62-.93c1.33-.21,5.06-1,6.4-2.21a.77.77,0,0,1,.74-.16,4.35,4.35,0,0,0,1.79.19h0c2.38-.25,4.36-2.39,5.07-3.56-2.14,0-6.31-.11-6.52-.12a.71.71,0,0,1-.2,0,28.13,28.13,0,0,0-10.24-.84"/><path class="cls-9" d="M95.52,117.7s.62,21.42,3.92,32.31c3.58,11.85-10,49-15.88,56.91l14.26,6.16s21.23-30.69,22.75-50.39,1.36-33.1,1.36-33.1S99.3,113.26,95.52,117.7Z"/><path class="cls-3" d="M110.7,71.56a6,6,0,0,0,.57-4.24l11,.13.91,5.81s-10.42,5.63-10.47,5.16S110.7,71.56,110.7,71.56Z"/><path class="cls-9" d="M96.19,128.38s2.42,18.46,12.47,30.05c8.12,9.36,3.56,49.91,0,59.1l15.4,2.09s12.18-35.28,8.34-54.66-7.61-32.25-7.61-32.25S98.64,123.08,96.19,128.38Z"/><path class="cls-2" d="M109.81,71.44s9.73,3.6,13.83,1.88c0,0,12.4,1.57,9.3,19.33s-7.37,40-7.37,40-23.77,1.88-31.77-6.14C93.8,126.53,99.89,72.48,109.81,71.44Z"/><path class="cls-10" d="M170.26,138.37a104.67,104.67,0,0,0,9.21,34.27c8.35,18.19-9.21,52.51-9.21,52.51l12.89,1.24s14.13-25.65,13-49.29.07-22.29.07-22.29,14.12,32.42,14.8,45.48a107.21,107.21,0,0,1-1.35,23.42l12.83-.9s11.93-55.17-17.79-82.64Z"/><path class="cls-11" d="M194.86,81.58s-16.64-5.18-21.6,29-2.27,27.7-2.27,27.7l34.45,1.8S222.91,88.54,206.79,85c0,0-1.45,6.48-8.49,3.78S194.86,81.58,194.86,81.58Z"/><path class="cls-3" d="M177.31,98s-4.91,23.32,7.76,27.59,24.15-16.45,24.15-16.45,6.52-8.55-1.13-11.14-6.53,6-4.28,7.54-13.51,12.39-13.51,12.39-7.21-.45.22-17.57C189.62,90.63,177.31,98,177.31,98Z"/><path class="cls-11" d="M188.05,83.42S176.2,83.3,176.2,97.61c3.74,1.35,15.68,2.7,15.68,2.7S198.46,81.63,188.05,83.42Z"/><path class="cls-3" d="M213.27,97.16s-5.6-9.91.35-10.81,8.88,4,6.85,9.34,4.07,31-8.66,30.43c-8.23-.14-1.92-12.07-1.92-12.07S214.47,103.77,213.27,97.16Z"/><path class="cls-4" d="M170.26,225.15s-3.8,11.62,2.26,12.75,23.41,3.83,23.41-.9-7.66-7-12.78-10.61Z"/><path class="cls-3" d="M191.94,64.86s-4.57-3.82-6-.57,1.42,6,3,6-2.57,10,11.51,11.94,18.68-5.62,18.46-10.83S221.11,58,221.11,58s1.28-7.64-14.26-6.4-13.56-2.19-13.56-2.19Z"/><path class="cls-12" d="M194.47,43.13s-11,.24-10.36,7.5a39.28,39.28,0,0,0,3.19,12.42s4.26.38,4.64,2.38,1.35,1.63,1.35,1.63l.8-4.4s-.19-9.55,2.29-9.36,14.57,2.85,17.24.9,5.2,2.85,6.07,4.36,5.63-1.82,5.18-5S222.84,38.88,194.47,43.13Z"/><path class="cls-13" d="M171.08,93.65s9.55,4.16,9-4.56-6.65-8.57-9.9-6A39.13,39.13,0,0,0,164.27,89S166.22,93.88,171.08,93.65Z"/><path class="cls-2" d="M114.29,93.44s-6.84-4.64-1.64-11.52S122,79.07,122,79.07s14.52,14.46,27.56,11.81,16.6-5.55,16.6-5.55L169,94.6s-10.92,8.44-25.57,7.79S114.29,93.44,114.29,93.44Z"/></svg>