<svg id="i_was_touched" data-name="i was touched" xmlns="http://www.w3.org/2000/svg" viewBox="0 0 300 300"><defs><style>.cls-1{fill:#5a631e;}.cls-1,.cls-11,.cls-2,.cls-3,.cls-4,.cls-5,.cls-6,.cls-9{stroke:#3c2415;stroke-miterlimit:10;}.cls-1,.cls-11,.cls-2,.cls-3,.cls-4,.cls-5,.cls-6{stroke-width:1.75px;}.cls-2,.cls-9{fill:#f1ba85;}.cls-3{fill:#754c29;}.cls-4{fill:#2bb673;}.cls-5{fill:#f15a29;}.cls-6{fill:#8b5e3c;}.cls-7{fill:#81441e;}.cls-8{fill:#3c2415;}.cls-9{stroke-width:1.35px;}.cls-10{fill:#4b2718;}.cls-11{fill:#f7941e;}</style></defs><title>i was touched</title><path class="cls-1" d="M178.22,116s-15.09,2.44-26.74-9.12S137.31,86.41,131,88.52s-11.75,8.31,4.37,23,34,18.07,43.13,14.78Z"/><path class="cls-2" d="M189.52,91s-1-.3-.61-3.31S176.76,91,176.76,91l-1.14,4.51,7.37,10.1S194.82,97.81,189.52,91Z"/><path class="cls-3" d="M172.67,241.05s4.06,12.42-2.42,13.62-25,4.09-25-1,8.18-7.46,13.66-11.33Z"/><path class="cls-4" d="M215.5,151.22a111.83,111.83,0,0,1-9.84,36.61c-8.93,19.45,9.84,56.11,9.84,56.11l-13.77,1.33s-15.1-27.4-13.9-52.67-.07-23.82-.07-23.82-15.09,34.65-15.81,48.6a114.38,114.38,0,0,0,1.44,25l-13.71-1s-12.75-58.94,19-88.3Z"/><path class="cls-5" d="M189.21,90.54s17.77-5.53,23.08,31,2.42,29.6,2.42,29.6l-36.81,1.92S159.24,98,176.46,94.19c0,0,1.56,6.93,9.08,4S189.21,90.54,189.21,90.54Z"/><path class="cls-2" d="M208,108s5.25,24.91-8.28,29.47-25.81-17.57-25.81-17.57-7-9.14,1.21-11.9,7,6.37,4.57,8,14.43,13.24,14.43,13.24,7.7-.49-.24-18.77C194.8,100.21,208,108,208,108Z"/><path class="cls-5" d="M196.49,92.51s12.66-.12,12.66,15.16c-4,1.44-16.75,2.89-16.75,2.89S185.36,90.6,196.49,92.51Z"/><path class="cls-2" d="M169.54,107.19s6-10.59-.38-11.55-9.48,4.32-7.32,10-4.34,33.14,9.26,32.51c8.79-.14,2.05-12.89,2.05-12.89S168.26,114.25,169.54,107.19Z"/><path class="cls-3" d="M215.5,243.94s4.06,12.42-2.42,13.62-25,4.09-25-1,8.18-7.46,13.66-11.33Z"/><path class="cls-2" d="M188.85,69.93s4-5,6.19-1.9-.19,6.6-1.87,6.94,4.84,10-9.47,15S162.93,88.08,162,82.58,156.84,69,156.84,69s-3-7.72,13.55-9.76S184.11,54,184.11,54Z"/><path class="cls-6" d="M181.53,47.72s11.6-2.11,12.46,5.63A42.32,42.32,0,0,1,193.32,67s-4.38,1.3-4.35,3.49-1.06,2-1.06,2l-1.78-4.43s-1.86-10-4.41-9.3-14.64,6.11-17.85,4.65-4.83,4.09-5.41,5.85-6.29-.68-6.49-4.08S150.93,49.37,181.53,47.72Z"/><path class="cls-7" d="M88,227.9l8.8,1.85s11.4,12.62,15.11,14.15,3,7.93-4.14,5.74-23.9-10-23.9-10S79.2,235.63,88,227.9"/><path class="cls-8" d="M106.68,250.45C99.19,248,84.07,241,83.43,240.69a1.45,1.45,0,0,1-.26-.17,5.49,5.49,0,0,1-1.64-4c0-2.92,1.93-6.11,5.76-9.47a1.09,1.09,0,0,1,1-.26l8.81,1.85a1.18,1.18,0,0,1,.6.35c3.12,3.45,11.86,12.69,14.7,13.87a4.53,4.53,0,0,1,2.66,5.58c-.71,2-3.07,3.63-7.55,2.25l-.79-.25M84.55,238.74c1.81.84,17,7.8,23.57,9.83,2.49.76,4.34.43,4.8-.88a2.29,2.29,0,0,0-1.41-2.77c-3.64-1.49-13.29-12-15.26-14.16l-7.9-1.66c-3.79,3.44-4.59,5.92-4.58,7.42a3.33,3.33,0,0,0,.78,2.22"/><path class="cls-7" d="M115.12,238.69l9,.16s13.56,10.26,17.5,11.06,4.45,7.22-3,6.41S113.28,251,113.28,251s-5.37-3.09,1.84-12.34"/><path class="cls-8" d="M137.68,257.33c-7.82-1-24-5-24.67-5.22a1.45,1.45,0,0,1-.29-.11,5.5,5.5,0,0,1-2.36-3.62c-.56-2.86.74-6.36,3.88-10.38a1.08,1.08,0,0,1,.9-.43l9,.16a1.19,1.19,0,0,1,.65.23c3.72,2.81,14,10.24,17,10.86a4.53,4.53,0,0,1,3.67,5c-.33,2.09-2.34,4.14-7,3.63l-.82-.1M113.74,250c1.94.48,18.12,4.46,25,5.21,2.59.28,4.34-.39,4.55-1.76a2.27,2.27,0,0,0-1.9-2.45c-3.86-.78-15.31-9.29-17.66-11l-8.07-.15c-3.07,4.09-3.39,6.68-3.11,8.14a3.42,3.42,0,0,0,1.19,2.05"/><path class="cls-9" d="M132.73,46.72s3.4,2.18,4.39,8.38c.78,4.85,3.29,5.56,4.36,5.64a1,1,0,0,1,.69.23c.45.55,1.28,2-.72,3.28A1.93,1.93,0,0,0,141,67s8.61,11.71-17.52,12.07c-1.24.39-.61,6.21-2.54,6.61-.15,0,0,.47,0,.6-.4.94-2.16,4.31-4.69-1,0-.1.54-4.53.54-4.53s.92-1.22-3.37-3.62c-5.12-2.86-6.21-9.84-6.21-9.84l2.42-16.06,15-6Z"/><path class="cls-8" d="M119.18,89c-1.33.15-2.53-1-3.68-3.37-.14-.28-.15-.31.47-5a.73.73,0,0,1,.07-.24c0-.15-.3-1-3-2.56-5.41-3-6.57-10.12-6.62-10.42a1,1,0,0,1,0-.25l2.42-16.06a.83.83,0,0,1,.5-.64l15-6a.75.75,0,0,1,.45,0l8.14,1.5a.65.65,0,0,1,.29.11c.15.1,3.72,2.45,4.76,8.94.68,4.28,2.75,4.89,3.61,5a1.7,1.7,0,0,1,1.27.54,2.94,2.94,0,0,1,.7,2.3,3.24,3.24,0,0,1-1.62,2.18,1,1,0,0,0-.46.58,1.61,1.61,0,0,0,.25,1c.09.11,2.51,3.49,1,6.94-1.78,4.06-8.14,6.22-18.89,6.4a10.42,10.42,0,0,0-.43,2.08c-.25,1.66-.52,3.52-1.6,4.25a1,1,0,0,1-.08.4c-.36.83-1.16,2.25-2.5,2.4m-2.12-3.89c.86,1.73,1.57,2.31,1.94,2.27s.77-.55,1.1-1.26c-.17-1,.47-1.21.68-1.25.51-.11.82-2.17,1-3.16.26-1.74.46-3.1,1.49-3.43a.67.67,0,0,1,.24,0c10-.14,16.23-2.05,17.71-5.42,1.14-2.58-.82-5.33-.84-5.35a3.31,3.31,0,0,1-.52-2.29A2.58,2.58,0,0,1,141,63.56a1.89,1.89,0,0,0,.89-1.06,1.32,1.32,0,0,0-.29-.92l-.19,0c-1.25-.09-4.24-.89-5.1-6.32-.82-5.09-3.35-7.3-3.92-7.74l-7.73-1.42-14.31,5.76L108,67.3c.16.89,1.42,6.7,5.77,9.13,2.34,1.31,3.59,2.5,3.84,3.63a1.55,1.55,0,0,1-.07,1c-.22,1.71-.46,3.55-.51,4.12"/><path class="cls-10" d="M118.85,62.55s-3.62-4.11-4.71,1,2.78,4.65,2.78,4.65.13,10.66-5.36,9.93S91,67.91,101.91,52.26s29.28-9.88,29.28-9.88,6.31.2,7.83,0c1.26-.14-3.14,7-8.44,5.3-1.91,1.72-7.23,2.61-7.23,2.61s2,8.65-4.5,12.23"/><path class="cls-8" d="M112.57,78.93a4.67,4.67,0,0,1-1.12,0c-3.78-.52-10.42-4.39-13-10.33-1.56-3.56-2.35-9.37,2.82-16.8a25.47,25.47,0,0,1,18.58-11.08,31.26,31.26,0,0,1,11.51.85c1.82.06,6.42.17,7.6,0a1,1,0,0,1,1.11.9c.17,1.46-3.15,5.8-7.12,6.24h0a6.2,6.2,0,0,1-2.15-.13c-1.74,1.27-5,2-6.47,2.36.35,2.37.76,9.1-5.06,12.3a.81.81,0,0,1-1-.18c-.4-.45-1.46-1.36-2.17-1.28s-1,1.21-1.13,1.89c-.31,1.45-.2,2.53.31,3.11a2.06,2.06,0,0,0,1.58.56.84.84,0,0,1,.63.2.89.89,0,0,1,.28.6c0,.42.07,10.18-5.17,10.76M120,42.33a23.61,23.61,0,0,0-17.43,10.39c-3.8,5.47-4.7,10.59-2.66,15.22a17.43,17.43,0,0,0,11.74,9.35,3,3,0,0,0,.73,0c2.85-.32,3.61-5.57,3.7-8.35a3.36,3.36,0,0,1-2-1c-.9-1-1.14-2.52-.71-4.55s1.28-3,2.56-3.18A4.33,4.33,0,0,1,119,61.52c5.27-3.42,3.6-10.94,3.58-11a.82.82,0,0,1,.11-.63.83.83,0,0,1,.55-.36c1.41-.23,5.4-1.13,6.82-2.41a.81.81,0,0,1,.79-.17,4.74,4.74,0,0,0,1.91.19h0c2.54-.29,4.64-2.59,5.39-3.84-2.29.06-6.74-.08-7-.09l-.21,0A29.7,29.7,0,0,0,120,42.33"/><path class="cls-11" d="M98.39,132.91s.81,22.88,4.41,34.48c3.91,12.64-10.37,52.45-16.58,60.92l15.28,6.49s22.48-32.94,24-54,1.23-35.37,1.23-35.37S102.41,128.13,98.39,132.91Z"/><path class="cls-2" d="M114.29,83.5a6.31,6.31,0,0,0,.59-4.53l11.76.06,1,6.2s-11.1,6.08-11.16,5.59S114.29,83.5,114.29,83.5Z"/><path class="cls-2" d="M160.77,148.06a32.83,32.83,0,0,1,9.68,3.61c4.36,2.64,15.36,5.49,17.44-2.25s-7.08-8.58-12-7.22,6.65-.73,6.11-2.9-5.4-2.14-10.92.12c-1.86.63-6.67-.5-6.67-.5Z"/><path class="cls-11" d="M99.18,144.31s2.72,19.71,13.54,32c8.73,9.94,4.14,53.3.44,63.14l16.47,2.13s12.77-37.77,8.53-58.46-8.35-34.39-8.35-34.39S101.77,138.63,99.18,144.31Z"/><path class="cls-1" d="M113.34,83.38s10.43,3.78,14.79,1.91c0,0,13.26,1.6,10.08,20.59s-7.6,42.81-7.6,42.81-25.39,2.17-34-6.34C96.61,142.35,102.76,84.56,113.34,83.38Z"/><path class="cls-1" d="M166.4,139s-14.82-3.77-20.9-19-4.84-24.46-11.45-25S120,98,128.91,117.84,153,148,162.6,148.56Z"/></svg>