<svg id="i_was_pushed" data-name="i was pushed" xmlns="http://www.w3.org/2000/svg" viewBox="0 0 300 300"><defs><style>.cls-1,.cls-5{fill:#f1ba85;}.cls-1,.cls-10,.cls-11,.cls-2,.cls-5,.cls-7,.cls-8,.cls-9{stroke:#3c2415;stroke-miterlimit:10;}.cls-1,.cls-10,.cls-11,.cls-2,.cls-7,.cls-8,.cls-9{stroke-width:1.75px;}.cls-2{fill:#754c29;}.cls-3{fill:#81441e;}.cls-4{fill:#3c2415;}.cls-5{stroke-width:1.35px;}.cls-6{fill:#4b2718;}.cls-7{fill:#5a631e;}.cls-8{fill:#f7941e;}.cls-9{fill:#2bb673;}.cls-10{fill:#f15a29;}.cls-11{fill:#8b5e3c;}</style></defs><title>i was pushed</title><path class="cls-1" d="M197,95.54s.91-.28.57-3.1,11.37,3.1,11.37,3.1L210,99.76l-6.9,9.45S192,101.9,197,95.54Z"/><path class="cls-2" d="M212.72,236s-3.8,11.62,2.26,12.75,23.41,3.83,23.41-.9-7.66-7-12.78-10.61Z"/><path class="cls-3" d="M82.91,217.67,91,220s9.79,12.55,13.15,14.22,2.28,7.61-4.25,5.08-21.64-10.9-21.64-10.9-4.12-4.09,4.64-10.72"/><path class="cls-4" d="M98.81,240c-6.83-2.8-20.47-10.36-21-10.68a.91.91,0,0,1-.23-.17,5.11,5.11,0,0,1-1.26-3.84c.18-2.73,2.21-5.57,6-8.45a1.08,1.08,0,0,1,.92-.18L91.3,219a1.07,1.07,0,0,1,.53.36c2.69,3.43,10.22,12.65,12.79,13.93a4.25,4.25,0,0,1,2.11,5.39c-.8,1.81-3.11,3.18-7.2,1.59l-.72-.28M78.93,227.56c1.64.91,15.31,8.42,21.35,10.76,2.27.88,4,.69,4.54-.5a2.12,2.12,0,0,0-1.13-2.67c-3.29-1.64-11.6-12.09-13.3-14.25l-7.26-2.08c-3.76,3-4.68,5.22-4.78,6.61a3.21,3.21,0,0,0,.58,2.13"/><path class="cls-3" d="M107.48,229.57l8.39.76s12,10.48,15.59,11.49,3.67,7.05-3.23,5.79-23.3-6.65-23.3-6.65-4.81-3.24,2.55-11.39"/><path class="cls-4" d="M127.28,248.49c-7.23-1.47-22-6.32-22.68-6.53a1.26,1.26,0,0,1-.26-.13,5.13,5.13,0,0,1-2-3.53c-.34-2.72,1.12-5.89,4.31-9.43a1,1,0,0,1,.87-.35l8.39.76a1.05,1.05,0,0,1,.6.26c3.27,2.87,12.4,10.5,15.17,11.28a4.23,4.23,0,0,1,3.09,4.89c-.44,1.93-2.46,3.71-6.78,2.93l-.76-.15M105.43,240c1.78.58,16.61,5.39,23,6.55,2.4.44,4.08-.07,4.36-1.34a2.12,2.12,0,0,0-1.61-2.41c-3.54-1-13.67-9.7-15.74-11.5l-7.52-.68c-3.14,3.61-3.62,6-3.45,7.39a3.2,3.2,0,0,0,1,2"/><path class="cls-5" d="M136.82,51.55s3,2.26,3.54,8.12c.4,4.57,2.7,5.41,3.69,5.55a.92.92,0,0,1,.63.26c.38.55,1.06,1.94-.89,3a1.82,1.82,0,0,0-.61,2.55S150.43,82.55,126,81.13c-1.19.28-1,5.76-2.82,6-.14,0,0,.44,0,.56-.44.85-2.3,3.88-4.32-1.24,0-.09.82-4.19.82-4.19s.93-1.08-2.91-3.61c-4.58-3-5.13-9.6-5.13-9.6L115,54.22l14.38-4.62Z"/><path class="cls-4" d="M121.33,90.12c-1.25,0-2.29-1.06-3.21-3.39-.1-.27-.12-.31.78-4.62a.53.53,0,0,1,.08-.22c0-.15-.21-1-2.66-2.6-4.84-3.18-5.45-9.89-5.48-10.18a.93.93,0,0,1,0-.23l3.34-14.83a.78.78,0,0,1,.51-.56l14.38-4.62a.7.7,0,0,1,.43,0l7.5,2a.62.62,0,0,1,.26.12c.14.1,3.31,2.54,3.84,8.67.35,4,2.24,4.75,3,4.86a1.59,1.59,0,0,1,1.15.59,2.73,2.73,0,0,1,.5,2.19,3,3,0,0,1-1.65,1.92,1,1,0,0,0-.48.52,1.55,1.55,0,0,0,.17,1c.07.11,2.11,3.42.47,6.54-1.94,3.67-8,5.26-18.07,4.71a10,10,0,0,0-.54,1.91c-.34,1.54-.72,3.26-1.78,3.86a1.08,1.08,0,0,1-.1.37c-.39.75-1.24,2-2.5,2.07m-1.71-3.77c.68,1.67,1.31,2.26,1.65,2.24s.75-.46,1.11-1.1c-.09-.94.53-1.09.72-1.12.49-.06.91-2,1.11-2.88.36-1.6.64-2.87,1.63-3.1a.53.53,0,0,1,.22,0c9.37.54,15.29-.83,16.9-3.87,1.24-2.33-.41-5-.43-5.06a3,3,0,0,1-.32-2.16,2.37,2.37,0,0,1,1.21-1.46,1.76,1.76,0,0,0,.91-.93,1.29,1.29,0,0,0-.21-.88l-.18,0c-1.16-.17-3.9-1.12-4.34-6.25-.42-4.8-2.63-7-3.14-7.49l-7.11-1.85L115.6,54.81,112.38,69.1c.1.84.88,6.35,4.78,8.91,2.09,1.38,3.18,2.57,3.33,3.65a1.5,1.5,0,0,1-.12.88c-.32,1.57-.67,3.28-.75,3.81"/><path class="cls-6" d="M122.8,65.39s-3.1-4.08-4.46.6,2.28,4.53,2.28,4.53-.59,10-5.67,8.9-18.49-10.9-7.26-24.78,28-7.25,28-7.25,5.88.61,7.3.56c1.19-.05-3.39,6.29-8.23,4.38-1.9,1.47-6.92,1.94-6.92,1.94s1.3,8.21-5,11.12"/><path class="cls-4" d="M115.84,80.26a4.62,4.62,0,0,1-1-.09c-3.5-.73-9.43-4.79-11.47-10.51-1.22-3.44-1.57-8.91,3.76-15.5a23.88,23.88,0,0,1,18.09-9.1,29.39,29.39,0,0,1,10.68,1.58c1.7.17,6,.58,7.1.54a.93.93,0,0,1,1,.91c.05,1.38-3.34,5.21-7.08,5.36h0a6.1,6.1,0,0,1-2-.27c-1.71,1.07-4.77,1.58-6.2,1.77.17,2.23.1,8.54-5.55,11.14a.77.77,0,0,1-.92-.23c-.35-.46-1.28-1.38-1.94-1.35s-1,1.07-1.18,1.69c-.39,1.34-.36,2.35.08,2.92a1.91,1.91,0,0,0,1.44.63.78.78,0,0,1,.57.24.76.76,0,0,1,.22.57c0,.39-.62,9.51-5.55,9.7m9.4-33.67a22.09,22.09,0,0,0-17,8.53c-3.92,4.85-5.1,9.56-3.51,14a16.29,16.29,0,0,0,10.33,9.53,2.73,2.73,0,0,0,.68.06c2.68-.1,3.74-5,4-7.54A3.2,3.2,0,0,1,118,70.07c-.77-1-.89-2.43-.35-4.3S119,63,120.2,63A4,4,0,0,1,123,64.44c5.16-2.84,4.1-10,4.08-10a.77.77,0,0,1,.69-.88c1.33-.12,5.11-.7,6.52-1.79a.77.77,0,0,1,.76-.11,4.09,4.09,0,0,0,1.76.3h0c2.4-.09,4.52-2.09,5.3-3.22-2.14-.09-6.29-.52-6.5-.54a.73.73,0,0,1-.2,0,27.79,27.79,0,0,0-10.16-1.51"/><path class="cls-7" d="M168.27,106.05s-13.68,4.2-26-5S126.54,83.84,121,86.61s-9.83,9.21,7,20.75,33.87,12.37,41.89,8.16Z"/><path class="cls-8" d="M99,129.69s-.78,21.42,1.8,32.49c2.8,12.06-13.2,48.27-19.57,55.76L95,225s23.19-29.24,26-48.8,3.52-32.94,3.52-32.94S103,125.51,99,129.69Z"/><path class="cls-1" d="M117.14,84.64a5.94,5.94,0,0,0,.86-4.19l11,.85.53,5.85s-10.77,4.94-10.79,4.47S117.14,84.64,117.14,84.64Z"/><path class="cls-8" d="M98.94,140.39s1.21,18.58,10.49,30.81c7.48,9.86.28,50-3.83,59l15.22,3.1s14.47-34.4,11.9-54-5.48-32.67-5.48-32.67S101.74,135.27,98.94,140.39Z"/><path class="cls-1" d="M168.63,108.2s10.94-16.64,13.29-12.65-9,18.71-12.34,18.26Z"/><path class="cls-7" d="M116.26,84.46s9.48,4.23,13.68,2.78c0,0,12.27,2.38,8,19.9s-10,39.45-10,39.45-23.85.32-31.31-8.2C96.68,138.39,106.3,84.85,116.26,84.46Z"/><path class="cls-9" d="M172.64,151.89a104.67,104.67,0,0,0,9.21,34.27c8.35,18.2-9.21,52.51-9.21,52.51l12.89,1.24s14.13-25.64,13-49.29.07-22.29.07-22.29,14.12,32.42,14.8,45.48A106.73,106.73,0,0,1,212,237.23l12.84-.9s11.93-55.17-17.79-82.64Z"/><path class="cls-10" d="M197.24,95.1s-16.64-5.18-21.6,29.05-2.27,27.69-2.27,27.69l34.45,1.8s17.47-51.58,1.35-55.12c0,0-1.45,6.49-8.49,3.78S197.24,95.1,197.24,95.1Z"/><path class="cls-1" d="M179.69,111.47s-4.91,23.32,7.75,27.59,24.15-16.44,24.15-16.44,6.53-8.56-1.12-11.15-6.53,6-4.28,7.54-13.51,12.39-13.51,12.39-7.21-.45.22-17.56C192,104.15,179.69,111.47,179.69,111.47Z"/><path class="cls-10" d="M190.43,97s-11.85-.12-11.85,14.18c3.74,1.35,15.67,2.71,15.67,2.71S200.84,95.16,190.43,97Z"/><path class="cls-1" d="M215.65,110.68s-5.6-9.91.35-10.81,8.88,4,6.85,9.34,4.07,31-8.66,30.43c-8.23-.13-1.92-12.07-1.92-12.07S216.85,117.29,215.65,110.68Z"/><path class="cls-2" d="M172.64,238.67s-3.8,11.62,2.26,12.75,23.41,3.83,23.41-.9-7.66-7-12.78-10.61Z"/><path class="cls-1" d="M194.32,78.38s-4.57-3.82-6-.57,1.41,6,3,6-2.56,10,11.52,11.94,18.68-5.61,18.46-10.83,2.21-13.43,2.21-13.43,1.28-7.63-14.26-6.39-13.56-2.2-13.56-2.2Z"/><path class="cls-11" d="M196.84,56.65s-11,.24-10.35,7.5a39.28,39.28,0,0,0,3.19,12.42s4.26.38,4.64,2.38,1.35,1.63,1.35,1.63l.8-4.4s-.19-9.55,2.29-9.35,14.57,2.85,17.24.9,5.2,2.84,6.07,4.35,5.63-1.82,5.18-5S225.22,52.4,196.84,56.65Z"/><path class="cls-7" d="M169.12,112.92s-13.68,4.21-26-5-15.77-17.2-21.33-14.43-9.83,9.21,7,20.75,33.88,12.37,41.89,8.16Z"/><path class="cls-1" d="M169.48,115.07s10.94-16.64,13.29-12.65-9,18.71-12.34,18.27Z"/></svg>