<?xml version="1.0" encoding="utf-8"?>
<!-- Generator: Adobe Illustrator 16.0.0, SVG Export Plug-In . SVG Version: 6.00 Build 0)  -->
<!DOCTYPE svg PUBLIC "-//W3C//DTD SVG 1.1//EN" "http://www.w3.org/Graphics/SVG/1.1/DTD/svg11.dtd">
<svg version="1.1" id="Layer_1" xmlns="http://www.w3.org/2000/svg" xmlns:xlink="http://www.w3.org/1999/xlink" x="0px" y="0px"
	 width="500px" height="500px" viewBox="0 0 500 500" enable-background="new 0 0 500 500" xml:space="preserve">
<g id="Layer_1_copy_53">
	<g>
		<path fill="#D09B54" d="M243.399,466.565c-1.263,0-2.526,0-3.786,0c-6.392-9.278-8.659-20.804-11.351-31.412
			C208,355.4,187.277,274.943,166.777,196.08c5.456-2.818,10.325-6.178,16.081-8.726c6.902,5.189,12.664,12.531,23.647,14.833
			c15.005,3.146,27.954-3.359,37.836-10.469c9.868,15.97,30.513,20.818,45.404,9.598c4.794-3.611,7.647-9.094,12.301-9.598
			c4.388,2.64,9.656,4.468,13.244,7.853c-20.172,77.482-40.869,158.306-60.541,235.583
			C252.055,445.735,249.719,457.258,243.399,466.565z"/>
		<path fill="#27140E" d="M243.399,470.33h-3.786c-1.238,0-2.396-0.612-3.1-1.627c-5.998-8.717-8.508-18.888-10.929-28.728
			c-0.324-1.31-0.645-2.604-0.972-3.895c-18.91-74.447-39.597-154.877-61.478-239.054c-0.446-1.703,0.353-3.486,1.915-4.292
			c2.094-1.083,4.081-2.238,6.187-3.46c3.17-1.844,6.452-3.75,10.095-5.364c1.245-0.551,2.691-0.389,3.785,0.434
			c1.814,1.36,3.543,2.854,5.212,4.297c4.956,4.283,9.634,8.328,16.951,9.861c11.07,2.318,22.35-0.84,34.867-9.844
			c0.845-0.61,1.907-0.84,2.93-0.635c1.028,0.205,1.921,0.824,2.468,1.713c5.388,8.715,14.407,13.919,24.136,13.919
			c5.692,0,11.156-1.85,15.803-5.35c1.492-1.123,2.854-2.55,4.168-3.932c2.781-2.915,5.652-5.93,9.986-6.401
			c0.831-0.089,1.646,0.094,2.35,0.517c1.387,0.835,2.888,1.591,4.479,2.392c3.271,1.646,6.654,3.348,9.411,5.949
			c0.996,0.943,1.402,2.357,1.058,3.687c-17.494,67.21-36.733,142.063-60.533,235.563l-0.926,3.686
			c-2.453,9.891-4.994,20.126-10.962,28.914C245.811,469.71,244.645,470.33,243.399,470.33z M171.161,197.994
			c21.616,83.152,42.05,162.617,60.75,236.23c0.331,1.311,0.655,2.627,0.982,3.951c2.077,8.437,4.223,17.132,8.605,24.373
			c4.384-7.328,6.561-16.095,8.67-24.597l0.936-3.729c23.526-92.428,42.598-166.646,59.935-233.267
			c-1.724-1.219-3.798-2.262-5.957-3.351c-1.184-0.594-2.396-1.206-3.587-1.864c-1.333,0.619-2.775,2.13-4.393,3.829
			c-1.457,1.524-3.105,3.255-5.092,4.751c-5.96,4.49-12.992,6.863-20.33,6.863c-11.078,0-21.404-5.256-28.296-14.239
			c-13.082,8.592-25.447,11.479-37.652,8.925c-9.22-1.933-15.119-7.032-20.326-11.533c-1.044-0.899-2.053-1.771-3.057-2.593
			c-2.493,1.226-4.854,2.601-7.33,4.038C173.764,196.515,172.479,197.262,171.161,197.994z"/>
	</g>
	<g>
		<path fill="#F491AA" d="M231.426,52.455c7.252,0,14.504,0,21.751,0c48.277,6.235,85.804,41.753,86.088,86.382
			c0.059,9.231-3.904,21.041-1.894,29.666c2.89,12.372,20.855,18.193,17.026,35.773c-1.919,8.816-13.941,16.461-26.488,15.706
			c-11.563-0.698-20.078-11.939-32.16-9.599c-10.47,2.029-11.054,16.924-23.651,16.579c-8.867-0.243-15.361-16.307-27.432-16.579
			c-5.845-0.131-10.357,3.391-15.134,6.108c-6.481,3.692-9.886,5.927-17.026,5.237c-14.439-1.398-17.023-17.579-29.323-17.452
			c-10.409,0.108-14.778,12.992-30.271,13.087c-9.584,0.06-21.572-5.375-23.648-14.833c-4.423-20.132,14.539-28.284,17.026-40.135
			c1.896-9.041-1.277-18.702-0.947-27.05C147.214,88.369,187.403,58.697,231.426,52.455z"/>
		<path fill="#27140E" d="M272.525,230.731l-0.529-0.007c-5.555-0.151-9.871-4.337-14.046-8.384
			c-4.101-3.972-8.336-8.082-13.367-8.193c-0.003,0-0.003,0-0.003,0c-3.852,0-7.119,1.978-10.582,4.07
			c-0.863,0.523-1.727,1.047-2.605,1.546l-1.058,0.606c-6.082,3.479-10.192,5.881-18.192,5.104
			c-8.717-0.844-13.86-6.267-17.995-10.624c-4.005-4.222-6.669-6.811-10.821-6.811c-3.538,0.038-6.306,2.141-9.804,4.807
			c-4.815,3.663-10.809,8.224-20.59,8.282c-11.613,0-24.901-6.654-27.349-17.789c-3.174-14.462,4.282-23.573,10.279-30.893
			c3.225-3.939,6.01-7.338,6.74-10.824c1.012-4.803,0.363-10.12-0.259-15.263c-0.446-3.692-0.91-7.511-0.764-11.164
			c0.918-23.049,10.772-43.583,28.49-59.38c15.882-14.158,37.482-23.776,60.825-27.086c0.173-0.025,0.353-0.038,0.529-0.038h21.751
			c0.162,0,0.324,0.011,0.486,0.031c51.491,6.651,89.073,44.541,89.365,90.091c0.024,3.97-0.626,8.29-1.252,12.47
			c-0.88,5.837-1.789,11.875-0.738,16.364c0.914,3.919,4.014,7.362,7.289,11.002c5.56,6.181,12.483,13.874,9.749,26.429
			c-2.245,10.322-15.005,18.72-28.443,18.72h-0.003c-0.647,0-1.296-0.019-1.944-0.058c-5.895-0.354-10.816-2.926-15.575-5.411
			c-5.315-2.773-10.371-5.265-15.645-4.249c-3.347,0.648-5.467,3.445-7.921,6.682C285.172,225.204,280.979,230.731,272.525,230.731z
			 M244.35,206.615l0.403,0.006c7.981,0.178,13.535,5.562,18.438,10.314c3.285,3.183,6.388,6.192,9.011,6.262l0.323,0.005
			c4.488,0,6.73-2.658,10.021-6.993c2.958-3.903,6.315-8.326,12.488-9.522c1.332-0.257,2.688-0.389,4.034-0.389
			c6.266,0,11.483,2.723,16.525,5.355c4.247,2.217,8.262,4.311,12.543,4.57c11.419,0.666,21.205-6.418,22.583-12.749
			c1.914-8.785-2.674-13.885-7.988-19.789c-3.772-4.191-7.666-8.522-9.026-14.328c-1.375-5.895-0.356-12.657,0.627-19.197
			c0.611-4.072,1.19-7.921,1.169-11.303c-0.267-41.672-34.975-76.394-82.567-82.64h-21.237
			c-39.811,5.735-80.725,32.44-82.588,79.276c-0.122,3.048,0.28,6.404,0.712,9.956c0.699,5.751,1.419,11.695,0.151,17.716
			c-1.109,5.287-4.592,9.542-8.281,14.046c-5.732,7-11.146,13.61-8.753,24.509c1.562,7.104,11.51,11.876,19.819,11.876
			c7.399-0.045,11.676-3.3,16.206-6.747c4.056-3.088,8.253-6.28,14.181-6.341c7.784-0.002,12.397,4.864,16.468,9.155
			c3.776,3.98,7.342,7.74,13.259,8.312c5.471,0.529,8.182-0.974,13.723-4.144l1.079-0.613c0.814-0.466,1.62-0.956,2.434-1.445
			C234.1,209.357,238.634,206.615,244.35,206.615z"/>
	</g>
	<g>
		<circle fill="#E91B3E" cx="241.764" cy="46.18" r="18.194"/>
		<path fill="#27140E" d="M241.765,68.141c-12.109,0-21.96-9.851-21.96-21.961c0-12.108,9.851-21.959,21.96-21.959
			c12.107,0,21.958,9.851,21.958,21.959C263.723,58.29,253.872,68.141,241.765,68.141z M241.765,31.75
			c-7.96,0-14.432,6.475-14.432,14.43c0,7.958,6.472,14.432,14.432,14.432c7.958,0,14.428-6.475,14.428-14.432
			C256.193,38.225,249.723,31.75,241.765,31.75z"/>
	</g>
</g>
</svg>
