<?xml version="1.0" encoding="utf-8"?>
<!-- Generator: Adobe Illustrator 16.0.0, SVG Export Plug-In . SVG Version: 6.00 Build 0)  -->
<!DOCTYPE svg PUBLIC "-//W3C//DTD SVG 1.1//EN" "http://www.w3.org/Graphics/SVG/1.1/DTD/svg11.dtd">
<svg version="1.1" id="Layer_1" xmlns="http://www.w3.org/2000/svg" xmlns:xlink="http://www.w3.org/1999/xlink" x="0px" y="0px"
	 width="500px" height="500px" viewBox="0 0 500 500" enable-background="new 0 0 500 500" xml:space="preserve">
<g id="Layer_1_copy_90">
	<g>
		<g>
			<path fill="#BDBEC0" d="M43.625,289.798c0,0-19.852,11.667-16.79,31.548c3.06,19.887,21.413,28.041,55.059,28.041
				c33.65,0,252.857,0,252.857,0s18.361-0.005,16.315-11.728c-2.039-11.722-23.961-7.138-23.961-7.138s-18.856,4.592-19.369-24.465
				c-0.514-29.062-9.178-23.961-9.178-23.961l-11.217,22.938c0,0,5.609,23.453-14.273,27.527
				c-19.881,4.082-112.158-2.039-112.158-2.039s-25.999,3.059-17.842-25.996c8.158-29.062,2.554-36.195,2.554-36.195l-24.979,29.676
				c0,0,13.251,33.023-11.73,33.537c-24.982,0.508-48.939,0-48.939,0s-29.377-9.996,0.098-35.588
				c29.47-25.586,27.938-27.625,27.938-27.625L43.625,289.798z"/>
			<path fill="#3C2517" d="M334.751,352.139L334.751,352.139H81.894c-36.23,0-54.591-9.65-57.775-30.373
				c-3.307-21.479,17.234-33.826,18.113-34.343l44.581-21.571c1.185-0.57,2.605-0.226,3.399,0.828
				c1.505,2.01,3.066,4.088-28.339,31.355c-8.93,7.756-13.084,14.798-12.004,20.361c1.227,6.344,8.856,9.705,10.631,10.402
				c2.209,0.047,12.007,0.219,24.62,0.219c8.401,0,16.391-0.076,23.733-0.228c5.014-0.103,8.412-1.604,10.396-4.599
				c4.551-6.871,0.705-20.493-1.164-25.16c-0.379-0.947-0.201-2.018,0.45-2.797l24.978-29.674c0.534-0.635,1.21-1,2.154-0.982
				c0.83,0.012,1.602,0.398,2.114,1.052c0.664,0.843,6.231,9.086-2.064,38.642c-2.251,8.016-1.948,13.98,0.896,17.729
				c3.205,4.232,9.058,4.861,12.255,4.861c1.009,0,1.66-0.062,1.73-0.069c0.164-0.019,0.334-0.019,0.497-0.015
				c0.516,0.033,52.208,3.438,86.06,3.438c12.474,0,21.007-0.453,25.361-1.348c4.588-0.938,7.86-3.031,10-6.393
				c4.604-7.233,2.174-17.695,2.152-17.797c-0.15-0.621-0.074-1.277,0.203-1.85l11.217-22.945c0.236-0.48,0.611-0.89,1.077-1.158
				c0.284-0.172,1.343-0.726,2.853-0.726c6.635,0,10.154,9.087,10.471,27.007c0.336,19.165,8.836,22.028,13.874,22.028
				c1.264,0,2.104-0.188,2.111-0.188c0.253-0.055,4.63-0.959,9.771-0.959c13.695,0,16.868,6.453,17.537,10.303
				c0.591,3.41-0.173,6.494-2.206,8.916C346.647,351.967,335.958,352.139,334.751,352.139z M77.401,276.516l-32.577,15.756
				c0.016,0-18.001,10.897-15.27,28.658c2.735,17.782,18.874,25.705,52.339,25.705H334.75h-0.003
				c2.567-0.01,9.835-0.753,12.622-4.074c0.99-1.189,1.307-2.594,0.984-4.427c-0.821-4.747-7.041-5.741-12.11-5.741
				c-4.547,0-8.534,0.813-8.575,0.822c-0.055,0.018-1.374,0.323-3.307,0.323c-5.683,0-18.941-2.672-19.378-27.437
				c-0.282-16.035-3.173-20.772-4.589-21.494l-10.168,20.797c0.584,3.197,1.883,13.242-3.07,21.023
				c-2.94,4.623-7.495,7.588-13.538,8.829c-4.78,0.981-13.435,1.462-26.464,1.462c-32.881,0-82.412-3.189-86.198-3.438
				c-0.374,0.037-1.104,0.084-2.089,0.084c-4.218,0-11.998-0.912-16.646-7.042c-3.938-5.192-4.546-12.78-1.807-22.541
				c4.556-16.224,4.664-25.234,4.05-29.81l-20.692,24.582c1.689,4.854,6.037,19.643,0.062,28.672
				c-3.008,4.545-8.011,6.926-14.869,7.065c-7.383,0.151-15.406,0.224-23.847,0.224c-14.36,0-25.1-0.224-25.205-0.224
				c-0.281-0.009-0.56-0.06-0.828-0.146c-0.516-0.179-12.601-4.398-14.613-14.672c-1.516-7.724,3.127-16.336,13.79-25.595
				C67.33,286.008,73.378,280.438,77.401,276.516z"/>
		</g>
		<g>
			<path fill="#FBB041" d="M329.147,229.804c0,0-8.159,36.486-6.633,60.956c4.591,18.356-15.292,15.807-18.351,15.807
				s-47.409,11.214-44.857-17.844c2.549-29.062-17.339-17.845-29.572-13.256c-12.234,4.588-58.624,29.565-90.234,28.549
				c-31.608-1.021-103.492,16.826-104.514-28.037c43.34-5.606,90.748-8.672,90.748-8.672l159.57-55.04L329.147,229.804z"/>
			<path fill="#3C2517" d="M283.952,311.447c-10.685,0-18.396-2.5-22.911-7.432c-3.537-3.857-5.042-9.086-4.479-15.535
				c0.629-7.168-0.162-12.183-2.287-14.502c-1.104-1.201-2.625-1.765-4.79-1.765c-4.281,0-9.857,2.257-14.772,4.243
				c-1.398,0.562-2.747,1.107-4.012,1.584c-2.374,0.891-6.165,2.613-10.957,4.794c-18.891,8.597-54.448,24.793-80.333,23.927
				c-6.71-0.195-15.395,0.444-24.722,1.154c-9.349,0.707-19.945,1.514-29.973,1.514c-0.01,0-0.01,0-0.014,0
				c-22.202,0-51.784-3.461-52.464-33.392c-0.034-1.404,1.004-2.61,2.394-2.792c40.919-5.293,86.005-8.355,90.557-8.658
				l159.216-54.922c0.621-0.214,1.305-0.202,1.919,0.046l43.843,17.537c1.256,0.504,1.958,1.836,1.665,3.155
				c-0.08,0.361-8.002,36.15-6.586,59.943c1.367,5.654,0.744,10.201-1.845,13.517c-2.886,3.702-8.026,5.575-15.283,5.575
				c-1.189,0-2.235-0.051-3.018-0.088c-0.399-0.018-0.719-0.035-0.938-0.035c-0.319,0.022-1.102,0.164-2.203,0.348
				C298.228,310.285,291.268,311.447,283.952,311.447z M249.486,266.709c3.715,0,6.688,1.198,8.849,3.557
				c3.285,3.586,4.5,9.701,3.71,18.699c-0.429,4.911,0.566,8.622,3.055,11.331c3.43,3.748,9.772,5.647,18.854,5.647
				c6.859,0,13.527-1.113,17.106-1.711c2.682-0.445,2.774-0.449,4.3-0.379c0.719,0.033,1.673,0.08,2.761,0.08
				c5.474,0,9.154-1.162,10.945-3.461c1.532-1.957,1.797-5,0.783-9.048c-0.041-0.157-0.065-0.325-0.073-0.495
				c-1.338-21.32,4.424-50.969,6.191-59.434l-40.734-16.298l-158.597,54.708c-0.232,0.084-0.476,0.13-0.725,0.146
				c-0.461,0.028-45.971,3-88.033,8.326c1.597,17.643,16.184,25.546,46.84,25.546c9.823,0,19.854-0.761,29.556-1.501
				c9.483-0.713,18.349-1.395,25.318-1.162c24.655,0.737,59.394-15.033,77.874-23.436c4.892-2.225,8.757-3.985,11.304-4.938
				c1.227-0.463,2.529-0.99,3.878-1.535C238.032,269.18,244.134,266.709,249.486,266.709z"/>
		</g>
		<g>
			<path fill="#29AAE1" d="M195.576,75.659c0,0-7.135-18.86,8.668-16.819c15.804,2.039,99.413,8.332,99.413,8.332
				s8.159-9.865,0,51.822c-4.584,19.881,10.191,60.669,17.331,68.315c7.144,7.647,21.928,49.452-9.686,57.603
				c-31.607,8.15-33.646,0.508-104,22.419c-39.086,15.125-26.512,25.999-120.822,23.962c-29.566,2.037-57.099-10.197-51.494-23.962
				c5.613-13.761-7.135-25.474,38.75-28.533c45.882-3.058,101.29-68.824,108.761-80.546
				C189.968,146.526,195.576,111.347,195.576,75.659z"/>
			<path fill="#3C2517" d="M107.4,294.289c-6.357,0-13.415-0.079-20.979-0.243c-1.966,0.142-4.219,0.222-6.449,0.222
				c-20.779,0-39.746-6.613-46.11-16.082c-2.556-3.795-3.042-7.908-1.42-11.892c1.158-2.849,1.444-5.7,1.718-8.467
				c1.188-11.994,4.433-19.444,39.393-21.775c43.326-2.886,98.147-65.976,106.621-79.282c7.182-11.259,12.601-45.863,12.651-80.626
				c-0.798-2.307-3.358-10.823,0.327-16.15c1.483-2.151,4.672-4.755,11.445-3.882c14.601,1.882,88.576,7.508,98.23,8.244
				c1.253-0.702,3.524-0.635,4.854,0.877c1.39,1.588,5.092,5.811-1.299,54.124c-4.403,19.163,10.042,59.036,16.615,66.076
				c4.959,5.307,14.021,26.486,9.08,43.432c-2.788,9.571-9.734,16.041-20.087,18.713c-11.676,3.009-19.52,3.916-27.826,4.874
				c-14.771,1.706-31.516,3.639-76.043,17.512c-9.457,3.664-15.938,7.146-21.659,10.224
				C170.675,288.68,160.238,294.289,107.4,294.289z M86.293,288.544c7.772,0.159,14.792,0.24,21.107,0.24
				c51.451,0,61.4-5.351,76.459-13.445c5.861-3.151,12.499-6.722,22.453-10.575c45.195-14.08,62.206-16.05,77.223-17.78
				c8.463-0.974,15.771-1.82,27.083-4.739c8.487-2.185,13.934-7.21,16.181-14.92c4.113-14.113-3.412-33.418-7.818-38.137
				c-7.5-8.033-22.898-49.586-18.004-70.812c4.627-35.074,3.727-45.452,2.953-48.464c-0.163,0.013-0.318,0.017-0.479,0.004
				c-3.416-0.256-83.862-6.323-99.559-8.349c-0.682-0.088-1.314-0.13-1.904-0.13c-3.143,0-4.02,1.261-4.302,1.676
				c-2.055,2.962-0.307,9.517,0.465,11.58c0.115,0.307,0.177,0.638,0.177,0.966c0,36.431-5.679,71.783-13.511,84.067
				c-5.882,9.231-62.489,78.594-110.898,81.816c-32.83,2.189-33.439,8.329-34.279,16.832c-0.303,3.004-0.64,6.411-2.102,10
				c-0.924,2.269-0.639,4.474,0.891,6.737c5.319,7.908,22.789,13.652,41.544,13.652C82.078,288.766,84.203,288.691,86.293,288.544z"
				/>
		</g>
		<g>
			<g>
				<path fill="#FBB041" d="M220.354,103.713c-0.349,3.202-3.23,5.52-6.436,5.171l-23.261-2.533
					c-3.206-0.349-5.521-3.227-5.176-6.433l0,0c0.352-3.201,3.23-5.521,6.436-5.172l23.261,2.53
					C218.387,97.625,220.699,100.507,220.354,103.713L220.354,103.713z"/>
				<path fill="#3C2517" d="M214.556,111.667c-0.307,0-0.618-0.013-0.938-0.046l-23.259-2.534c-2.281-0.243-4.332-1.37-5.766-3.151
					c-1.44-1.79-2.096-4.034-1.848-6.311c0.509-4.68,4.701-8.122,9.471-7.613l23.259,2.529c4.706,0.513,8.121,4.76,7.613,9.461
					C222.611,108.376,218.941,111.667,214.556,111.667z M191.279,97.465c-1.575,0-2.892,1.185-3.06,2.756
					c-0.091,0.815,0.148,1.622,0.663,2.26c0.515,0.643,1.254,1.047,2.068,1.134l23.263,2.534c1.728,0.181,3.219-1.054,3.404-2.734
					c0.182-1.694-1.045-3.219-2.735-3.404l-23.259-2.53C191.507,97.469,191.394,97.465,191.279,97.465z"/>
			</g>
			<g>
				<path fill="#FBB041" d="M213.388,136.9c-0.462,3.189-3.424,5.399-6.613,4.941l-23.153-3.337
					c-3.194-0.461-5.408-3.419-4.95-6.608l0,0c0.462-3.193,3.418-5.408,6.612-4.945l23.159,3.332
					C211.632,130.746,213.841,133.708,213.388,136.9L213.388,136.9z"/>
				<path fill="#3C2517" d="M207.616,144.656c-0.41,0-0.821-0.034-1.236-0.092l-23.155-3.336c-4.688-0.676-7.948-5.038-7.278-9.722
					c0.666-4.609,5.01-7.958,9.732-7.278l23.155,3.332c4.683,0.677,7.943,5.038,7.271,9.727
					C215.505,141.488,211.859,144.656,207.616,144.656z M184.444,129.641c-1.521,0-2.833,1.138-3.046,2.646
					c-0.246,1.685,0.929,3.252,2.617,3.496l23.152,3.336c1.699,0.243,3.257-0.958,3.498-2.614c0.238-1.684-0.934-3.256-2.619-3.495
					l-23.153-3.341C184.737,129.648,184.59,129.641,184.444,129.641z"/>
			</g>
			<g>
				<path fill="#FBB041" d="M202.707,170.554c-0.856,3.105-4.072,4.933-7.176,4.071l-22.559-6.205
					c-3.108-0.857-4.938-4.072-4.084-7.181l0,0c0.857-3.104,4.076-4.933,7.181-4.075l22.559,6.21
					C201.737,164.227,203.56,167.44,202.707,170.554L202.707,170.554z"/>
				<path fill="#3C2517" d="M197.086,177.588c-0.774,0-1.538-0.101-2.287-0.307l-22.558-6.206c-2.214-0.613-4.054-2.046-5.188-4.042
					c-1.134-1.995-1.424-4.31-0.811-6.52c1.02-3.719,4.421-6.311,8.272-6.311c0.77,0,1.538,0.105,2.286,0.307l22.553,6.21
					c4.563,1.252,7.262,5.991,6.005,10.559C204.337,174.995,200.934,177.588,197.086,177.588z M174.515,159.707
					c-1.378,0-2.604,0.933-2.97,2.264c-0.219,0.794-0.113,1.626,0.294,2.34c0.402,0.723,1.067,1.24,1.866,1.454l22.556,6.209
					c1.64,0.45,3.354-0.55,3.795-2.15c0.451-1.643-0.516-3.349-2.155-3.799l-22.557-6.209
					C175.07,159.744,174.792,159.707,174.515,159.707z"/>
			</g>
			<g>
				<path fill="#FBB041" d="M180.742,197.948c-1.702,2.739-5.304,3.575-8.038,1.869l-19.869-12.356
					c-2.73-1.706-3.575-5.306-1.869-8.041l0,0c1.701-2.739,5.302-3.576,8.042-1.87l19.859,12.361
					C181.611,191.612,182.443,195.213,180.742,197.948L180.742,197.948z"/>
				<path fill="#3C2517" d="M175.783,203.452c-1.604,0-3.167-0.445-4.533-1.294l-19.868-12.361
					c-4.021-2.504-5.252-7.815-2.752-11.836c1.575-2.533,4.306-4.046,7.292-4.046c1.606,0,3.17,0.445,4.534,1.294l19.865,12.36
					c4.022,2.5,5.258,7.811,2.757,11.832C181.503,201.939,178.775,203.452,175.783,203.452z M155.922,179.42
					c-1.074,0-2.054,0.542-2.625,1.449c-0.896,1.445-0.448,3.357,0.997,4.256l19.863,12.36c1.408,0.875,3.379,0.408,4.248-0.986
					c0.899-1.445,0.454-3.354-0.991-4.252l-19.865-12.361C157.062,179.579,156.5,179.42,155.922,179.42z"/>
			</g>
			<g>
				<path fill="#FBB041" d="M159.486,218.838c-1.962,2.555-5.626,3.025-8.185,1.063l-18.54-14.268
					c-2.556-1.958-3.037-5.63-1.073-8.185l0,0c1.967-2.554,5.635-3.03,8.186-1.062l18.549,14.264
					C160.978,212.62,161.453,216.275,159.486,218.838L159.486,218.838z"/>
				<path fill="#3C2517" d="M154.86,223.863c-1.911,0-3.723-0.618-5.235-1.781l-18.544-14.265c-1.821-1.398-2.983-3.419-3.283-5.697
					c-0.293-2.278,0.312-4.529,1.711-6.349c1.639-2.129,4.122-3.352,6.811-3.352c1.912,0,3.718,0.617,5.235,1.785l18.545,14.264
					c3.747,2.886,4.454,8.29,1.571,12.042C160.033,222.644,157.549,223.863,154.86,223.863z M136.319,197.923
					c-0.971,0-1.861,0.441-2.45,1.202c-0.503,0.655-0.718,1.463-0.612,2.282c0.109,0.819,0.523,1.545,1.182,2.05l18.544,14.264
					c1.314,1.013,3.322,0.744,4.323-0.562c1.033-1.35,0.782-3.29-0.563-4.328l-18.545-14.268
					C137.655,198.142,137.005,197.923,136.319,197.923z"/>
			</g>
			<g>
				<path fill="#FBB041" d="M130.399,240.66c-2.402,2.157-6.088,1.956-8.243-0.444l-15.639-17.399
					c-2.155-2.4-1.962-6.084,0.438-8.244l0,0c2.397-2.155,6.091-1.954,8.242,0.446l15.637,17.398
					C132.995,234.82,132.795,238.505,130.399,240.66L130.399,240.66z"/>
				<path fill="#3C2517" d="M126.504,244.903c-2.436,0-4.767-1.037-6.395-2.848l-15.637-17.398
					c-3.17-3.524-2.879-8.966,0.641-12.129c3.392-3.05,9.09-2.739,12.136,0.652l15.633,17.402c3.165,3.521,2.875,8.962-0.643,12.125
					C130.659,244.123,128.622,244.903,126.504,244.903z M110.854,215.83c-0.759,0-1.49,0.276-2.059,0.789
					c-1.264,1.139-1.37,3.097-0.23,4.362l15.642,17.394c1.098,1.231,3.126,1.344,4.353,0.24c1.267-1.135,1.371-3.093,0.232-4.358
					l-15.634-17.402C112.561,216.195,111.739,215.83,110.854,215.83z"/>
			</g>
		</g>
		<g>
			<g>
				<path fill="#2075BC" d="M224.193,103.663c0,4.104-3.331,7.437-7.44,7.437c-4.105,0-7.437-3.332-7.437-7.437
					c0-4.113,3.331-7.441,7.437-7.441C220.862,96.222,224.193,99.549,224.193,103.663z"/>
				<path fill="#3C2517" d="M216.753,113.851c-5.618,0-10.188-4.575-10.188-10.188c0-5.622,4.57-10.193,10.188-10.193
					c5.621,0,10.193,4.572,10.193,10.193C226.946,109.276,222.374,113.851,216.753,113.851z M216.753,98.973
					c-2.584,0-4.685,2.101-4.685,4.689c0,2.58,2.101,4.685,4.685,4.685s4.689-2.105,4.689-4.685
					C221.442,101.074,219.337,98.973,216.753,98.973z"/>
			</g>
			<g>
				<path fill="#2075BC" d="M218.35,136.598c0,4.104-3.331,7.437-7.441,7.437c-4.104,0-7.438-3.333-7.438-7.437
					c0-4.108,3.333-7.437,7.438-7.437C215.019,129.161,218.35,132.489,218.35,136.598z"/>
				<path fill="#3C2517" d="M210.908,146.787c-5.616,0-10.187-4.572-10.187-10.189c0-5.622,4.57-10.188,10.187-10.188
					c5.618,0,10.193,4.567,10.193,10.188C221.102,142.215,216.526,146.787,210.908,146.787z M210.908,131.914
					c-2.583,0-4.688,2.101-4.688,4.684c0,2.584,2.104,4.689,4.688,4.689c2.589,0,4.689-2.105,4.689-4.689
					C215.598,134.014,213.497,131.914,210.908,131.914z"/>
			</g>
			<g>
				<path fill="#2075BC" d="M208.703,170.135c0,4.108-3.336,7.441-7.44,7.441c-4.108,0-7.442-3.333-7.442-7.441
					c0-4.11,3.334-7.441,7.442-7.441C205.367,162.693,208.703,166.025,208.703,170.135z"/>
				<path fill="#3C2517" d="M201.263,180.327c-5.617,0-10.193-4.571-10.193-10.192c0-5.618,4.576-10.189,10.193-10.189
					c5.617,0,10.192,4.572,10.192,10.189C211.455,175.756,206.88,180.327,201.263,180.327z M201.263,165.445
					c-2.584,0-4.689,2.101-4.689,4.689c0,2.583,2.105,4.688,4.689,4.688s4.688-2.104,4.688-4.688
					C205.951,167.546,203.847,165.445,201.263,165.445z"/>
			</g>
			<g>
				<path fill="#2075BC" d="M185.931,196.121c0,4.113-3.332,7.445-7.437,7.445s-7.438-3.332-7.438-7.445
					c0-4.105,3.332-7.437,7.438-7.437C182.599,188.684,185.931,192.016,185.931,196.121z"/>
				<path fill="#3C2517" d="M178.494,206.318c-5.622,0-10.188-4.576-10.188-10.197c0-5.613,4.566-10.189,10.188-10.189
					c5.617,0,10.188,4.576,10.188,10.189C188.683,201.742,184.111,206.318,178.494,206.318z M178.494,191.436
					c-2.584,0-4.684,2.105-4.684,4.685c0,2.588,2.1,4.693,4.684,4.693s4.684-2.105,4.684-4.693
					C183.178,193.541,181.078,191.436,178.494,191.436z"/>
			</g>
			<g>
				<path fill="#2075BC" d="M163.612,216.847c0,4.108-3.332,7.44-7.437,7.44c-4.108,0-7.438-3.332-7.438-7.44
					c0-4.11,3.329-7.441,7.438-7.441C160.28,209.406,163.612,212.737,163.612,216.847z"/>
				<path fill="#3C2517" d="M156.176,227.035c-5.623,0-10.188-4.567-10.188-10.188c0-5.622,4.565-10.194,10.188-10.194
					c5.616,0,10.189,4.572,10.189,10.194C166.365,222.468,161.792,227.035,156.176,227.035z M156.176,212.158
					c-2.584,0-4.685,2.1-4.685,4.689c0,2.583,2.101,4.688,4.685,4.688c2.585,0,4.684-2.104,4.684-4.688
					C160.859,214.258,158.761,212.158,156.176,212.158z"/>
			</g>
			<g>
				<path fill="#2075BC" d="M135.444,239.165c0,4.105-3.33,7.432-7.436,7.432c-4.104,0-7.44-3.327-7.44-7.432
					c0-4.104,3.336-7.44,7.44-7.44C132.114,231.724,135.444,235.061,135.444,239.165z"/>
				<path fill="#3C2517" d="M128.009,249.349c-5.621,0-10.193-4.567-10.193-10.185c0-5.617,4.572-10.188,10.193-10.188
					c5.617,0,10.188,4.571,10.188,10.188C138.197,244.782,133.626,249.349,128.009,249.349z M128.009,234.476
					c-2.584,0-4.689,2.105-4.689,4.688c0,2.584,2.105,4.681,4.689,4.681s4.684-2.097,4.684-4.681
					C132.692,236.581,130.593,234.476,128.009,234.476z"/>
			</g>
		</g>
		<g>
			<path fill="#BDBEC0" d="M135.79,346.236c0,0-19.852,11.673-16.793,31.556c3.058,19.882,21.416,28.041,55.056,28.041
				c33.65,0,252.866,0,252.866,0s18.354-0.008,16.316-11.731c-2.043-11.723-23.967-7.134-23.967-7.134s-18.859,4.589-19.368-24.469
				c-0.514-29.062-9.177-23.964-9.177-23.964l-11.218,22.938c0,0,5.608,23.452-14.271,27.536
				c-19.883,4.075-112.155-2.042-112.155-2.042s-26.004,3.059-17.844-25.998c8.155-29.061,2.546-36.197,2.546-36.197l-24.978,29.674
				c0,0,13.255,33.025-11.727,33.539c-24.982,0.513-48.942,0-48.942,0s-29.368-10,0.101-35.584
				c29.469-25.592,27.938-27.629,27.938-27.629L135.79,346.236z"/>
			<path fill="#3C2517" d="M426.919,408.581L426.919,408.581H174.053c-36.225,0-54.585-9.655-57.774-30.37
				c-3.308-21.486,17.24-33.831,18.117-34.348l44.578-21.566c1.188-0.576,2.607-0.234,3.398,0.823
				c1.512,2.008,3.071,4.088-28.334,31.354c-8.945,7.771-13.094,14.812-12,20.385c1.226,6.285,8.877,9.68,10.629,10.386
				c2.214,0.042,12.01,0.219,24.617,0.219c8.399,0,16.386-0.084,23.734-0.228c5.016-0.108,8.415-1.613,10.394-4.604
				c4.559-6.897,0.706-20.495-1.163-25.159c-0.373-0.943-0.202-2.019,0.449-2.795L235.676,323c0.534-0.633,1.29-1.027,2.151-0.982
				c0.827,0.014,1.605,0.405,2.117,1.053c0.663,0.843,6.231,9.091-2.062,38.638c-2.251,8.019-1.949,13.983,0.896,17.737
				c3.205,4.228,9.052,4.867,12.254,4.859c1.01,0,1.663-0.062,1.731-0.068c0.162-0.024,0.332-0.024,0.494-0.018
				c0.521,0.034,52.232,3.438,86.085,3.438c12.462,0,20.987-0.455,25.335-1.347c4.581-0.94,7.849-3.023,9.988-6.367
				c4.596-7.193,2.184-17.723,2.164-17.832c-0.147-0.621-0.077-1.271,0.199-1.84l11.224-22.947c0.234-0.483,0.608-0.891,1.076-1.162
				c0.285-0.169,1.345-0.725,2.852-0.725c6.637,0,10.155,9.09,10.472,27.011c0.335,19.166,8.837,22.032,13.878,22.032
				c1.26,0,2.1-0.193,2.107-0.193c0.253-0.05,4.631-0.957,9.773-0.957c13.695,0,16.864,6.451,17.534,10.302
				c0.595,3.41-0.17,6.495-2.208,8.916C438.811,408.413,428.121,408.581,426.919,408.581z M169.566,332.955l-32.578,15.76
				c0.017,0-18.001,10.902-15.273,28.656c2.735,17.779,18.882,25.705,52.338,25.705h252.866h-0.003
				c2.562-0.008,9.827-0.746,12.618-4.075c0.995-1.187,1.311-2.599,0.991-4.429c-0.829-4.748-7.047-5.739-12.113-5.739
				c-4.551,0-8.539,0.815-8.58,0.823c-0.054,0.017-1.374,0.326-3.302,0.326c-5.683,0-18.944-2.68-19.382-27.441
				c-0.281-16.031-3.173-20.768-4.59-21.493l-10.171,20.795c0.585,3.202,1.887,13.253-3.066,21.031
				c-2.94,4.622-7.492,7.589-13.534,8.833c-4.78,0.975-13.43,1.455-26.443,1.455c-32.88,0-82.429-3.186-86.219-3.438
				c-0.373,0.033-1.107,0.084-2.093,0.084c-4.218,0-12-0.916-16.642-7.041c-3.941-5.193-4.546-12.781-1.808-22.545
				c4.551-16.222,4.66-25.238,4.048-29.809l-20.693,24.582c1.688,4.855,6.037,19.645,0.066,28.67
				c-3.007,4.555-8.013,6.932-14.872,7.066c-7.387,0.149-15.412,0.234-23.848,0.234c-14.366,0-25.104-0.227-25.21-0.234
				c-0.281,0-0.559-0.053-0.827-0.145c-0.512-0.176-12.596-4.395-14.612-14.672c-1.514-7.723,3.126-16.335,13.797-25.593
				C159.494,342.445,165.54,336.875,169.566,332.955z"/>
		</g>
		<g>
			<path fill="#FBB041" d="M421.311,286.234c0,0-8.157,36.498-6.63,60.969c4.589,18.354-15.293,15.799-18.352,15.799
				c-3.061,0-47.406,11.219-44.859-17.841c2.545-29.056-17.336-17.841-29.568-13.252c-12.236,4.588-58.63,29.563-90.236,28.548
				c-31.608-1.018-103.492,16.822-104.51-28.039c43.332-5.609,90.746-8.668,90.746-8.668l159.567-55.057L421.311,286.234z"/>
			<path fill="#3C2517" d="M376.119,367.884c-10.688,0-18.395-2.495-22.916-7.428c-3.532-3.856-5.04-9.086-4.473-15.535
				c0.626-7.168-0.164-12.176-2.289-14.496c-1.105-1.204-2.627-1.764-4.791-1.764c-4.284,0-9.856,2.25-14.776,4.239
				c-1.394,0.566-2.739,1.107-4.007,1.584c-2.374,0.89-6.165,2.611-10.968,4.797c-18.89,8.588-54.474,24.754-80.324,23.922
				c-6.705-0.202-15.397,0.443-24.72,1.158c-9.351,0.707-19.945,1.514-29.98,1.514h-0.003c-22.201,0-51.788-3.471-52.467-33.395
				c-0.035-1.404,1.003-2.61,2.394-2.791c40.913-5.297,86.005-8.355,90.554-8.662l159.217-54.937
				c0.621-0.215,1.308-0.202,1.92,0.046l43.843,17.543c1.257,0.5,1.958,1.836,1.663,3.149c-0.079,0.362-7.999,36.162-6.584,59.96
				c1.366,5.65,0.745,10.193-1.844,13.514c-2.888,3.698-8.029,5.571-15.279,5.571c-1.193,0-2.236-0.05-3.021-0.084
				c-0.398-0.017-0.72-0.033-0.938-0.033c-0.318,0.019-1.101,0.159-2.201,0.345C390.392,366.725,383.435,367.884,376.119,367.884z
				 M341.65,323.158c3.715,0,6.688,1.191,8.849,3.55c3.285,3.583,4.5,9.7,3.715,18.69c-0.433,4.916,0.567,8.627,3.049,11.336
				c3.434,3.748,9.777,5.646,18.854,5.646c6.86,0,13.528-1.109,17.108-1.706c2.681-0.444,2.765-0.444,4.303-0.379
				c0.714,0.034,1.668,0.076,2.762,0.076c5.468,0,9.148-1.159,10.944-3.454c1.527-1.959,1.793-5.006,0.78-9.048
				c-0.043-0.164-0.067-0.327-0.08-0.495c-1.33-21.323,4.43-50.98,6.196-59.447l-40.731-16.302l-158.6,54.724
				c-0.235,0.08-0.479,0.129-0.722,0.148c-0.463,0.027-45.974,2.995-88.034,8.325c1.591,17.643,16.185,25.548,46.832,25.548
				c9.823,0,19.857-0.764,29.563-1.503c9.483-0.716,18.348-1.396,25.313-1.161c24.634,0.748,59.388-15.029,77.871-23.434
				c4.894-2.231,8.764-3.987,11.313-4.944c1.219-0.459,2.525-0.983,3.873-1.529C330.193,325.624,336.299,323.158,341.65,323.158z"/>
		</g>
		<g>
			<path fill="#29AAE1" d="M287.74,132.103c0,0-7.137-18.86,8.669-16.823c15.806,2.037,99.411,8.335,99.411,8.335
				s8.158-9.87,0,51.821c-4.588,19.882,10.196,60.666,17.332,68.308c7.142,7.643,21.928,49.445-9.687,57.602
				c-31.605,8.152-33.645,0.506-103.998,22.426c-39.088,15.133-26.509,26.002-120.823,23.961
				c-29.57,2.041-57.098-10.194-51.491-23.961c5.607-13.766-7.137-25.486,38.748-28.545c45.88-3.061,101.29-68.81,108.761-80.537
				C282.137,202.965,287.74,167.79,287.74,132.103z"/>
			<path fill="#3C2517" d="M199.595,350.73c-6.367,0-13.434-0.082-21.009-0.246c-1.966,0.146-4.222,0.223-6.457,0.223
				c-20.777,0-39.733-6.607-46.104-16.079c-2.549-3.794-3.04-7.907-1.42-11.896c1.164-2.849,1.444-5.701,1.718-8.467
				c1.19-12,4.438-19.455,39.395-21.783c43.329-2.892,98.147-65.968,106.625-79.271c7.177-11.259,12.597-45.863,12.647-80.626
				c-0.799-2.311-3.358-10.823,0.326-16.155c1.488-2.147,4.681-4.752,11.445-3.882c14.602,1.886,88.575,7.512,98.23,8.243
				c1.251-0.701,3.529-0.626,4.854,0.882c1.39,1.589,5.095,5.811-1.299,54.124c-4.408,19.163,10.041,59.03,16.616,66.068
				c4.954,5.308,14.021,26.474,9.084,43.424c-2.789,9.573-9.738,16.048-20.092,18.721c-11.675,3.009-19.521,3.917-27.826,4.873
				c-14.773,1.708-31.516,3.644-76.041,17.517c-9.456,3.664-15.938,7.151-21.651,10.227
				C262.843,345.118,252.412,350.727,199.595,350.73z M178.455,344.984c7.782,0.158,14.811,0.244,21.14,0.244
				c51.428-0.006,61.374-5.354,76.434-13.449c5.859-3.152,12.498-6.723,22.446-10.575c45.195-14.084,62.207-16.05,77.226-17.785
				c8.461-0.976,15.771-1.817,27.083-4.739c8.487-2.188,13.931-7.21,16.18-14.929c4.108-14.11-3.411-33.409-7.817-38.127
				c-7.502-8.03-22.903-49.583-18.006-70.808c4.631-35.066,3.729-45.443,2.953-48.46c-0.159,0.013-0.316,0.017-0.477,0.004
				c-3.416-0.256-83.862-6.323-99.561-8.349c-0.681-0.088-1.315-0.134-1.897-0.134c-3.15,0-4.025,1.269-4.312,1.685
				c-2.062,2.982-0.307,9.512,0.471,11.566c0.117,0.311,0.177,0.643,0.177,0.975c0,36.431-5.681,71.787-13.509,84.067
				c-5.885,9.23-62.488,78.573-110.896,81.803c-32.831,2.189-33.444,8.332-34.286,16.836c-0.301,3.006-0.638,6.411-2.1,10
				c-0.926,2.272-0.635,4.482,0.891,6.748c5.315,7.907,22.789,13.646,41.536,13.646C174.239,345.203,176.364,345.13,178.455,344.984
				z"/>
		</g>
		<g>
			<g>
				<path fill="#FBB041" d="M312.519,160.151c-0.351,3.206-3.228,5.521-6.434,5.172l-23.265-2.529
					c-3.205-0.344-5.521-3.231-5.172-6.433l0,0c0.35-3.206,3.229-5.521,6.438-5.171l23.26,2.529
					C310.552,154.068,312.861,156.946,312.519,160.151L312.519,160.151z"/>
				<path fill="#3C2517" d="M306.719,168.113c-0.307,0-0.621-0.021-0.932-0.054l-23.27-2.53c-2.275-0.248-4.32-1.365-5.761-3.155
					s-2.091-4.033-1.844-6.311c0.509-4.675,4.692-8.121,9.468-7.608l23.262,2.529c4.701,0.513,8.117,4.756,7.613,9.461
					C314.772,164.819,311.106,168.113,306.719,168.113z M283.445,153.904c-1.574,0-2.889,1.189-3.062,2.756
					c-0.089,0.815,0.147,1.623,0.659,2.265c0.521,0.642,1.251,1.046,2.071,1.135l23.269,2.528c1.685,0.172,3.217-1.054,3.397-2.735
					c0.183-1.688-1.046-3.213-2.734-3.398l-23.259-2.53C283.675,153.912,283.562,153.904,283.445,153.904z"/>
			</g>
			<g>
				<path fill="#FBB041" d="M305.552,193.339c-0.458,3.193-3.42,5.408-6.607,4.945l-23.165-3.339
					c-3.188-0.459-5.4-3.417-4.944-6.609l0,0c0.464-3.193,3.424-5.408,6.614-4.945l23.159,3.339
					C303.799,187.184,306.009,190.146,305.552,193.339L305.552,193.339z"/>
				<path fill="#3C2517" d="M299.783,201.095c-0.408,0-0.82-0.03-1.235-0.088l-23.159-3.337c-4.688-0.676-7.953-5.042-7.277-9.726
					c0.67-4.601,4.996-7.966,9.728-7.277l23.159,3.335c2.273,0.329,4.282,1.517,5.655,3.357c1.373,1.836,1.949,4.097,1.627,6.37
					C307.674,197.928,304.021,201.095,299.783,201.095z M276.605,186.083c-1.521,0-2.83,1.139-3.049,2.643
					c-0.242,1.685,0.933,3.251,2.616,3.496l23.159,3.335c1.688,0.244,3.257-0.958,3.495-2.609c0.119-0.819-0.092-1.63-0.582-2.289
					c-0.492-0.665-1.216-1.089-2.034-1.21l-23.154-3.332C276.906,186.096,276.755,186.083,276.605,186.083z"/>
			</g>
			<g>
				<path fill="#FBB041" d="M294.871,226.993c-0.857,3.109-4.064,4.933-7.176,4.076l-22.559-6.206
					c-3.109-0.861-4.938-4.072-4.08-7.181l0,0c0.856-3.109,4.07-4.932,7.18-4.079l22.561,6.21
					C293.9,220.665,295.725,223.884,294.871,226.993L294.871,226.993z"/>
				<path fill="#3C2517" d="M289.245,234.031c-0.769,0-1.533-0.105-2.281-0.308l-22.557-6.209c-4.563-1.26-7.257-6-6.005-10.562
					c1.023-3.714,4.429-6.307,8.277-6.307c0.771,0,1.541,0.101,2.289,0.311l22.557,6.206c4.561,1.252,7.254,5.987,6.001,10.554
					C296.501,231.434,293.098,234.031,289.245,234.031z M266.682,216.145c-1.381,0-2.603,0.933-2.974,2.269
					c-0.448,1.639,0.517,3.345,2.161,3.794l22.557,6.21c1.609,0.449,3.354-0.555,3.795-2.155c0.447-1.639-0.519-3.345-2.156-3.794
					l-22.557-6.21C267.232,216.182,266.957,216.145,266.682,216.145z"/>
			</g>
			<g>
				<path fill="#FBB041" d="M272.909,254.382c-1.705,2.734-5.306,3.568-8.041,1.869l-19.865-12.352
					c-2.737-1.705-3.58-5.302-1.872-8.038l0,0c1.704-2.739,5.301-3.574,8.04-1.869l19.861,12.353
					C273.775,248.051,274.607,251.643,272.909,254.382L272.909,254.382z"/>
				<path fill="#3C2517" d="M267.948,259.883c-1.603,0-3.169-0.445-4.534-1.295l-19.864-12.353
					c-1.949-1.214-3.311-3.113-3.832-5.353c-0.518-2.23-0.136-4.534,1.08-6.479c1.575-2.533,4.303-4.05,7.295-4.05
					c1.601,0,3.166,0.454,4.533,1.302l19.86,12.353c4.015,2.497,5.255,7.799,2.759,11.823
					C273.666,258.369,270.936,259.883,267.948,259.883z M248.093,235.859c-1.077,0-2.061,0.546-2.627,1.458
					c-0.432,0.697-0.57,1.521-0.387,2.323c0.189,0.804,0.677,1.488,1.378,1.924l19.863,12.348c1.408,0.883,3.384,0.408,4.253-0.982
					c0.896-1.445,0.45-3.349-0.991-4.244l-19.864-12.361C249.226,236.018,248.662,235.859,248.093,235.859z"/>
			</g>
			<g>
				<path fill="#FBB041" d="M251.65,275.259c-1.961,2.56-5.625,3.034-8.186,1.068l-18.545-14.265
					c-2.551-1.967-3.034-5.629-1.066-8.186l0,0c1.965-2.554,5.633-3.029,8.187-1.062l18.542,14.26
					C253.143,269.045,253.621,272.706,251.65,275.259L251.65,275.259z"/>
				<path fill="#3C2517" d="M247.029,280.288c-1.913,0-3.723-0.612-5.24-1.779l-18.546-14.264
					c-3.752-2.892-4.457-8.291-1.569-12.043c1.639-2.13,4.116-3.352,6.81-3.352c1.907,0,3.718,0.616,5.234,1.78l18.542,14.267
					c3.756,2.886,4.463,8.287,1.575,12.045C252.197,279.07,249.714,280.288,247.029,280.288z M228.483,254.354
					c-0.971,0-1.865,0.438-2.449,1.205c-1.037,1.346-0.782,3.287,0.571,4.324l18.536,14.26c1.32,1.017,3.327,0.748,4.329-0.56
					c1.037-1.349,0.785-3.289-0.563-4.323l-18.542-14.264C229.819,254.577,229.169,254.354,228.483,254.354z"/>
			</g>
			<g>
				<path fill="#FBB041" d="M222.563,297.091c-2.398,2.151-6.092,1.949-8.248-0.44l-15.637-17.407
					c-2.152-2.396-1.953-6.087,0.439-8.242l0,0c2.398-2.155,6.088-1.955,8.245,0.444L223,288.843
					C225.156,291.246,224.959,294.93,222.563,297.091L222.563,297.091z"/>
				<path fill="#3C2517" d="M218.665,301.334c-2.435,0-4.767-1.038-6.391-2.844l-15.638-17.407
					c-3.172-3.524-2.879-8.967,0.646-12.13c3.392-3.051,9.089-2.734,12.13,0.65l15.639,17.402c3.159,3.521,2.863,8.961-0.647,12.125
					C222.823,300.553,220.786,301.334,218.665,301.334z M203.019,272.255c-0.761,0-1.493,0.281-2.06,0.791
					c-1.263,1.14-1.368,3.091-0.23,4.358l15.639,17.404c1.096,1.213,3.124,1.334,4.356,0.23c1.263-1.135,1.364-3.094,0.229-4.357
					l-15.637-17.402C204.725,272.623,203.909,272.255,203.019,272.255z"/>
			</g>
		</g>
		<g>
			<g>
				<circle fill="#2075BC" cx="308.919" cy="160.101" r="7.438"/>
				<path fill="#3C2517" d="M308.918,170.289c-5.618,0-10.189-4.57-10.189-10.188c0-5.621,4.571-10.193,10.189-10.193
					c5.62,0,10.191,4.572,10.191,10.193C319.109,165.719,314.538,170.289,308.918,170.289z M308.918,155.412
					c-2.585,0-4.687,2.101-4.687,4.689c0,2.583,2.102,4.685,4.687,4.685c2.587,0,4.688-2.102,4.688-4.685
					C313.604,157.513,311.505,155.412,308.918,155.412z"/>
			</g>
			<g>
				<path fill="#2075BC" d="M310.513,193.036c0,4.114-3.33,7.441-7.438,7.441c-4.105,0-7.438-3.328-7.438-7.441
					c0-4.108,3.331-7.437,7.438-7.437C307.183,185.6,310.513,188.928,310.513,193.036z"/>
				<path fill="#3C2517" d="M303.073,203.229c-5.619,0-10.19-4.571-10.19-10.193c0-5.612,4.571-10.188,10.19-10.188
					c5.621,0,10.191,4.576,10.191,10.188C313.266,198.659,308.694,203.229,303.073,203.229z M303.073,188.352
					c-2.586,0-4.688,2.1-4.688,4.684s2.104,4.689,4.688,4.689c2.588,0,4.688-2.105,4.688-4.689S305.661,188.352,303.073,188.352z"/>
			</g>
			<g>
				<path fill="#2075BC" d="M300.866,226.578c0,4.104-3.331,7.436-7.441,7.436c-4.108,0-7.437-3.332-7.437-7.436
					c0-4.109,3.328-7.438,7.437-7.438C297.535,219.14,300.866,222.468,300.866,226.578z"/>
				<path fill="#3C2517" d="M293.425,236.766c-5.62,0-10.187-4.571-10.187-10.188c0-5.622,4.566-10.189,10.187-10.189
					c5.619,0,10.194,4.567,10.194,10.189C303.619,232.194,299.044,236.766,293.425,236.766z M293.425,221.893
					c-2.586,0-4.688,2.101-4.688,4.685c0,2.583,2.103,4.685,4.688,4.685s4.689-2.102,4.689-4.685
					C298.114,223.994,296.011,221.893,293.425,221.893z"/>
			</g>
			<g>
				<path fill="#2075BC" d="M278.1,252.557c0,4.107-3.33,7.436-7.439,7.436c-4.105,0-7.438-3.327-7.438-7.436
					c0-4.103,3.332-7.435,7.438-7.435C274.77,245.123,278.1,248.455,278.1,252.557z"/>
				<path fill="#3C2517" d="M270.659,262.745c-5.62,0-10.19-4.572-10.19-10.188c0-5.614,4.57-10.186,10.19-10.186
					c5.614,0,10.192,4.571,10.192,10.186C280.852,258.172,276.273,262.745,270.659,262.745z M270.659,247.874
					c-2.586,0-4.687,2.1-4.687,4.683c0,2.582,2.101,4.684,4.687,4.684c2.582,0,4.687-2.102,4.687-4.684
					C275.346,249.974,273.241,247.874,270.659,247.874z"/>
			</g>
			<g>
				<path fill="#2075BC" d="M255.777,273.273c0,4.107-3.329,7.436-7.438,7.436c-4.11,0-7.44-3.327-7.44-7.436
					c0-4.105,3.33-7.44,7.44-7.44C252.448,265.833,255.777,269.167,255.777,273.273z"/>
				<path fill="#3C2517" d="M248.34,283.461c-5.618,0-10.188-4.566-10.188-10.188c0-5.619,4.57-10.192,10.188-10.192
					c5.617,0,10.188,4.574,10.188,10.192C258.527,278.895,253.957,283.461,248.34,283.461z M248.34,268.583
					c-2.584,0-4.689,2.104-4.689,4.688s2.105,4.689,4.689,4.689c2.582,0,4.686-2.105,4.686-4.689
					C253.023,270.689,250.922,268.583,248.34,268.583z"/>
			</g>
			<g>
				<path fill="#2075BC" d="M227.609,295.589c0,4.11-3.332,7.44-7.436,7.44c-4.109,0-7.438-3.33-7.438-7.44
					c0-4.103,3.328-7.44,7.438-7.44C224.277,288.148,227.609,291.486,227.609,295.589z"/>
				<path fill="#3C2517" d="M220.174,305.784c-5.618,0-10.19-4.571-10.19-10.194c0-5.615,4.572-10.189,10.19-10.189
					c5.616,0,10.188,4.574,10.188,10.189C230.362,301.212,225.79,305.784,220.174,305.784z M220.174,290.902
					c-2.586,0-4.686,2.104-4.686,4.688c0,2.59,2.1,4.689,4.686,4.689c2.583,0,4.684-2.1,4.684-4.689
					C224.857,293.007,222.757,290.902,220.174,290.902z"/>
			</g>
		</g>
	</g>
</g>
</svg>
