<?xml version="1.0" encoding="utf-8"?>
<!-- Generator: Adobe Illustrator 16.0.0, SVG Export Plug-In . SVG Version: 6.00 Build 0)  -->
<!DOCTYPE svg PUBLIC "-//W3C//DTD SVG 1.1//EN" "http://www.w3.org/Graphics/SVG/1.1/DTD/svg11.dtd">
<svg version="1.1" id="Layer_1" xmlns="http://www.w3.org/2000/svg" xmlns:xlink="http://www.w3.org/1999/xlink" x="0px" y="0px"
	 width="500px" height="500px" viewBox="0 0 500 500" enable-background="new 0 0 500 500" xml:space="preserve">
<g id="Layer_1_copy_45">
	<g>
		<path fill="#4E4E4E" d="M451.736,262.033c0,49.805-91.723,90.173-204.864,90.173c-113.145,0-204.863-40.368-204.863-90.173
			c0-49.809,91.719-90.184,204.863-90.184C360.015,171.849,451.736,212.224,451.736,262.033z"/>
		<path fill="#27140E" d="M246.872,355.632c-55.188,0-107.123-9.479-146.244-26.7c-40.01-17.611-62.046-41.371-62.046-66.898
			c0-25.534,22.036-49.293,62.046-66.906c39.121-17.222,91.057-26.705,146.244-26.705c55.186,0,107.12,9.483,146.242,26.705
			c40.01,17.613,62.049,41.372,62.049,66.906c0,25.527-22.039,49.287-62.049,66.898
			C353.992,346.152,302.058,355.632,246.872,355.632z M246.872,175.275c-111.074,0-201.437,38.918-201.437,86.757
			c0,47.833,90.362,86.745,201.437,86.745c111.071,0,201.438-38.912,201.438-86.745C448.31,214.194,357.943,175.275,246.872,175.275
			z"/>
	</g>
	<g>
		<path fill="#818181" d="M230.078,135.265c78.893-3.758,149.107,12.813,195.323,45.792c26.079,18.61,56.558,56.15,37.382,100.934
			c-3.633,8.485-8.495,17.85-14.952,25.233c-61.158,69.914-233.305,85.221-335.508,41.115
			c-35.092-15.145-64.548-35.343-77.568-64.48c-23.084-51.662,17.692-91.417,49.53-110.279
			c24.284-14.383,54.383-26.105,88.786-32.708C190.396,137.543,210.211,136.209,230.078,135.265z M174.002,178.252
			c-34.348,6.877-63.284,17.723-86.912,36.448c-9.131,7.241-23.398,23.735-23.362,39.25c0.042,18.29,14.255,31.048,26.167,40.188
			c61.79,47.405,189.328,56.362,273.825,24.297c25.869-9.815,70.093-32.043,70.093-64.485c0-18.674-14.918-32.89-28.973-42.987
			c-42.883-30.815-106.098-42.477-173.824-39.253C210.179,172.704,191.799,174.691,174.002,178.252z"/>
		<path fill="#27140E" d="M248.013,376.575c-50.887,0-99.559-8.911-137.045-25.091c-41.471-17.895-67.426-39.555-79.342-66.229
			c-10.781-24.126-9.313-47.881,4.361-70.602c13.387-22.236,34.911-37.125,46.556-44.021c25.938-15.362,57.02-26.817,89.88-33.126
			c17.804-3.42,38.152-4.744,57.492-5.665c7.352-0.351,14.756-0.527,21.993-0.527c70.729,0,133.052,16.676,175.481,46.953
			c30.932,22.072,57.302,61.266,38.545,105.075c-4.743,11.066-9.821,19.617-15.525,26.139
			C414.206,350.869,336.654,376.575,248.013,376.575z M251.908,138.167c-7.133,0-14.422,0.175-21.669,0.52
			c-19.084,0.909-39.142,2.211-56.522,5.55c-32.097,6.163-62.415,17.328-87.682,32.292c-70.053,41.5-54.565,91.571-48.151,105.928
			c11.182,25.029,35.977,45.551,75.796,62.738c36.655,15.816,84.357,24.525,134.333,24.525c86.722,0,162.298-24.809,197.239-64.75
			c5.226-5.977,9.928-13.932,14.38-24.33c17.157-40.066-7.463-76.271-36.223-96.794C382.132,154.39,321.224,138.167,251.908,138.167
			z M249.926,340.818h-0.003c-65.633,0-126.237-16.434-162.115-43.959C74.23,286.439,60.343,273.198,60.3,253.96
			c-0.042-17.675,16.113-35.165,24.66-41.945c22.384-17.739,50.461-29.535,88.371-37.123c17.288-3.461,35.566-5.56,57.521-6.604
			c7.28-0.346,14.566-0.523,21.659-0.523c64.169,0,117.535,13.977,154.328,40.416c20.456,14.697,30.399,29.668,30.399,45.77
			c0,36.329-50.562,59.439-72.304,67.689C331.875,334.188,292.104,340.818,249.926,340.818z M252.512,174.619
			c-6.982,0-14.164,0.174-21.336,0.515c-21.601,1.03-39.554,3.089-56.499,6.479c-36.805,7.368-63.959,18.735-85.457,35.775
			c-8.889,7.047-22.102,22.601-22.065,36.553c0.036,16.275,12.57,28.076,24.824,37.479c34.722,26.642,93.766,42.543,157.944,42.543
			c40.767,0,80.749-6.647,112.581-18.726c61.266-23.254,67.881-50.604,67.881-61.287c0-13.733-9.01-26.884-27.544-40.204
			C367.219,188.149,315.234,174.619,252.512,174.619z"/>
	</g>
	<g>
		<path fill="#FFFFFF" d="M341.821,175.846c1.28,7.205,0.203,15.706-10.088,28.394c-20.283,25.016-67.979,57.059-135.57,46.151
			c-67.589-10.913-124.557-60.354-79.364-100.918c34.801-31.24,105.154-48.264,165.303-26.623
			c24.77,8.911,45.746,30.589,54.217,41.222C338.676,167.034,341.451,173.77,341.821,175.846z"/>
		<path fill="#27140E" d="M223.002,256.012c-8.971,0-18.184-0.754-27.383-2.236c-47.784-7.716-88.495-33.833-96.8-62.104
			c-3.25-11.07-3.172-27.822,15.687-44.75c25.567-22.95,67.727-37.207,110.022-37.207c20.696,0,40.458,3.333,58.733,9.909
			c22.796,8.204,44.271,27.92,55.735,42.313c2.67,3.354,5.707,10.559,6.199,13.306c1.798,10.119-1.534,19.727-10.804,31.156
			C314.946,230.382,275.471,256.012,223.002,256.012z M224.528,116.568c-40.678,0-81.08,13.585-105.442,35.453
			c-13.007,11.676-17.613,24.367-13.688,37.719c7.598,25.868,46.002,49.953,91.315,57.269c8.836,1.425,17.686,2.149,26.289,2.149
			c50.061,0,87.616-24.32,106.068-47.076c10.073-12.419,10.396-19.93,9.38-25.637c-0.272-1.514-2.798-7.706-4.812-10.238
			c-10.906-13.691-31.249-32.417-52.694-40.132C263.411,119.766,244.432,116.568,224.528,116.568z"/>
	</g>
	<g>
		<g>
			<path fill="#E4E4E4" d="M160.835,198.696c9.124-16.909,68.51,20.988,127.705-6.883c22.583-14.188,13.943-18.797,22.757-22.408
				c8.806-3.607,12.826,29.312-6.546,46.3C285.375,232.695,154.676,252.572,160.835,198.696z"/>
		</g>
		<g>
			<path fill="#E4E4E4" d="M246.083,141.802c0,0-11.44-1.407-10.75,3.494c0.695,4.901,11.123,11.694,12.385,6.837
				C248.982,147.278,246.083,141.802,246.083,141.802z"/>
		</g>
		<g>
			<path fill="#E4E4E4" d="M217.281,146.626c-3.925-1.543-9.586-8.528-13.438-1.268c-3.86,7.259,4.245,0.316,7.738,2.015
				C215.073,149.074,217.281,146.626,217.281,146.626z"/>
		</g>
		<g>
			<path fill="#E4E4E4" d="M227.795,160.65c0,0-7.755-9.496-8.105-2.11C219.339,165.923,227.795,160.65,227.795,160.65z"/>
		</g>
		<g>
			<path fill="#E4E4E4" d="M205.795,163.575c0,0-4.829,1.894-4.508,6.7c0.324,4.805,2.499-0.531,5.013-2.634
				C208.815,165.542,213.593,160.883,205.795,163.575z"/>
		</g>
		<g>
			<path fill="#E4E4E4" d="M183.457,161.692c0,0-3.099-4.739-8.832-3.873c-5.733,0.87-4.961,6.972-1.776,6.819
				C176.04,164.482,186.426,169.942,183.457,161.692z"/>
		</g>
		<g>
			<path fill="#E4E4E4" d="M166.732,175.439c0,0-15.703-13.14-14.93-7.036C152.575,174.506,176.459,185.845,166.732,175.439z"/>
		</g>
	</g>
	<g>
		<path fill="#FFFFFF" d="M214.055,214.443c-1.854,7.077-1.458,15.641,7.78,29.113c18.217,26.555,63.192,62.319,131.44,56.854
			c68.247-5.465,128.987-50.187,87.192-94.239c-32.188-33.927-100.954-56.528-162.643-39.772c-25.4,6.9-48.049,26.828-57.341,36.75
			C217.894,205.912,214.589,212.404,214.055,214.443z"/>
		<path fill="#27140E" d="M339.456,304.395c-0.004,0-0.004,0-0.01,0c-59.009,0-100.905-30.431-120.437-58.899
			c-8.324-12.138-10.877-21.982-8.271-31.92c0.704-2.698,4.308-9.637,7.243-12.771c12.577-13.428,35.561-31.362,58.943-37.713
			c14.113-3.833,29.066-5.778,44.442-5.778c47.06,0,94.788,18.252,121.584,46.498c17.442,18.383,16.185,35.089,12.057,45.864
			c-10.543,27.513-53.213,50.289-101.459,54.155C348.829,304.204,344.089,304.395,339.456,304.395z M321.368,164.167
			c-14.771,0-29.116,1.864-42.646,5.539c-21.996,5.974-43.772,23.011-55.738,35.785c-2.218,2.365-5.226,8.333-5.615,9.82
			c-1.472,5.607-1.753,13.118,7.293,26.305c18.543,27.034,58.435,55.924,114.786,55.924c0,0,0.003,0,0.007,0
			c4.449,0,9.006-0.185,13.544-0.544c45.753-3.67,85.962-24.6,95.607-49.775c4.979-12.997,1.401-26.013-10.625-38.694
			C412.805,181.995,365.94,164.167,321.368,164.167z"/>
	</g>
	<g>
		<g>
			<path fill="#E4E4E4" d="M405.41,245.626c-8.928-17.01-68.752,20.187-127.616-8.374c-22.416-14.448-13.728-18.957-22.495-22.668
				c-8.767-3.71-13.171,29.159,6.006,46.367C280.48,278.171,410.94,299.578,405.41,245.626z"/>
		</g>
		<g>
			<path fill="#E4E4E4" d="M320.83,187.743c0,0,11.457-1.272,10.707,3.619c-0.75,4.893-11.257,11.565-12.463,6.695
				C317.865,193.185,320.83,187.743,320.83,187.743z"/>
		</g>
		<g>
			<path fill="#E4E4E4" d="M349.573,192.905c3.943-1.498,9.688-8.417,13.458-1.111c3.769,7.303-4.255,0.265-7.766,1.923
				C351.755,195.377,349.573,192.905,349.573,192.905z"/>
		</g>
		<g>
			<path fill="#E4E4E4" d="M338.898,206.805c0,0,7.862-9.405,8.129-2.017C347.293,212.178,338.898,206.805,338.898,206.805z"/>
		</g>
		<g>
			<path fill="#E4E4E4" d="M360.859,209.986c0,0,4.807,1.948,4.43,6.752c-0.377,4.799-2.49-0.561-4.979-2.693
				C357.819,211.917,353.099,207.204,360.859,209.986z"/>
		</g>
		<g>
			<path fill="#E4E4E4" d="M383.22,208.362c0,0,3.152-4.701,8.879-3.768c5.722,0.938,4.878,7.029,1.693,6.839
				C390.607,211.239,380.16,216.578,383.22,208.362z"/>
		</g>
		<g>
			<path fill="#E4E4E4" d="M399.784,222.304c0,0,15.854-12.956,15.009-6.858C413.951,221.538,389.938,232.593,399.784,222.304z"/>
		</g>
	</g>
	<g>
		<path fill="#FFFFFF" d="M299.604,234.061c2.632,6.828,3.188,15.382-4.494,29.8c-15.152,28.418-55.869,68.955-124.304,71.117
			c-68.431,2.156-133.77-35.531-97.131-83.959c28.218-37.297,94.041-67.404,157.211-57.613c26.01,4.033,50.735,21.318,61.072,30.145
			C294.84,226.01,298.847,232.096,299.604,234.061z"/>
		<path fill="#27140E" d="M165.209,338.492c-47.076,0-88.793-17.77-101.449-43.213c-5.042-10.144-7.893-26.406,7.179-46.33
			c27.107-35.819,82.758-60.837,135.342-60.837c8.508,0,16.961,0.642,25.128,1.909c23.95,3.713,48.784,18.979,62.772,30.926
			c3.268,2.783,7.617,9.278,8.623,11.883c3.692,9.586,2.251,19.654-4.672,32.643c-17.24,32.33-60.902,70.838-127.217,72.928
			C169.013,338.465,167.103,338.492,165.209,338.492z M206.28,194.966c-50.576,0-103.982,23.9-129.874,58.121
			c-10.402,13.749-12.591,26.913-6.51,39.14c11.834,23.785,54.916,40.769,100.804,39.326
			c63.389-2.005,105.007-38.586,121.385-69.311c7.521-14.106,6.404-21.54,4.321-26.949c-0.555-1.438-4.207-7.031-6.674-9.132
			c-13.31-11.365-36.846-25.874-59.373-29.367C222.536,195.58,214.438,194.966,206.28,194.966z"/>
	</g>
	<g>
		<g>
			<path fill="#E4E4E4" d="M126.28,290.955c5.736-18.334,71.252,7.562,124.059-31.072c19.468-18.23,10.11-21.11,18.071-26.329
				c7.962-5.219,18.174,26.329,2.389,46.695C255.012,300.62,130.49,345.018,126.28,290.955z"/>
		</g>
		<g>
			<path fill="#E4E4E4" d="M199.134,218.871c0,0-11.499,0.797-9.887,5.476c1.615,4.682,13.147,9.363,13.462,4.354
				C203.026,223.695,199.134,218.871,199.134,218.871z"/>
		</g>
		<g>
			<path fill="#E4E4E4" d="M171.777,229.091c-4.147-0.767-11.03-6.546-13.436,1.317c-2.405,7.86,4.227-0.501,7.981,0.501
				C170.077,231.916,171.777,229.091,171.777,229.091z"/>
		</g>
		<g>
			<path fill="#E4E4E4" d="M184.771,240.856c0,0-9.423-7.843-8.358-0.527C177.475,247.645,184.771,240.856,184.771,240.856z"/>
		</g>
		<g>
			<path fill="#E4E4E4" d="M163.731,247.917c0,0-4.381,2.778-3.148,7.437c1.229,4.654,2.352-0.998,4.416-3.541
				C167.069,249.273,170.87,243.792,163.731,247.917z"/>
		</g>
		<g>
			<path fill="#E4E4E4" d="M141.439,250.321c0,0-3.941-4.062-9.406-2.12c-5.465,1.946-3.541,7.79-0.442,7.033
				C134.688,254.473,145.925,257.857,141.439,250.321z"/>
		</g>
		<g>
			<path fill="#E4E4E4" d="M127.644,267c0,0-17.921-9.906-15.998-4.062C113.562,268.781,139.173,275.367,127.644,267z"/>
		</g>
	</g>
</g>
</svg>
