<?xml version="1.0" encoding="utf-8"?>
<!-- Generator: Adobe Illustrator 16.0.0, SVG Export Plug-In . SVG Version: 6.00 Build 0)  -->
<!DOCTYPE svg PUBLIC "-//W3C//DTD SVG 1.1//EN" "http://www.w3.org/Graphics/SVG/1.1/DTD/svg11.dtd">
<svg version="1.1" id="Layer_1" xmlns="http://www.w3.org/2000/svg" xmlns:xlink="http://www.w3.org/1999/xlink" x="0px" y="0px"
	 width="500px" height="500px" viewBox="0 0 500 500" enable-background="new 0 0 500 500" xml:space="preserve">
<g id="Layer_1_copy_67">
	<g>
		<path fill="#FFFFFF" d="M469.874,250.004c0,122.529-99.332,221.864-221.867,221.864c-122.534,0-221.87-99.335-221.87-221.864
			c0-122.54,99.336-221.874,221.87-221.874C370.542,28.13,469.874,127.464,469.874,250.004z"/>
	</g>
	<g>
		<g>
			<path fill="#292B78" d="M247.126,197.161c4.246-0.205,8.539,0.423,12.085,1.144c3.688,0.757,6.98,1.94,9.975,3.25
				c8.539,3.73,15.082,9.119,20.479,15.884c2.417,3.027,4.478,6.356,6.26,10.217c1.354,2.94,2.601,6.24,3.446,9.783
				c0.863,3.621,1.505,7.528,1.505,11.685c0,2.246-0.068,4.334-0.276,6.341c-1.01,9.883-4.459,17.617-8.832,24.244
				c-1.732,2.627-3.758,5.062-5.943,7.248c-4.391,4.388-9.342,8.128-15.442,10.968c-2.962,1.386-6.219,2.573-9.788,3.446
				c-3.601,0.888-7.582,1.509-11.685,1.509c-4.393,0-8.337-0.396-12.039-1.188c-3.632-0.775-6.956-1.86-10.023-3.207
				c-9.156-4.014-16.419-10.142-21.906-17.752c-1.85-2.551-3.443-5.351-4.833-8.354c-2.439-5.274-4.316-11.104-4.831-18.298
				c-0.704-9.801,1.323-18.544,4.237-25.19c1.386-3.157,3.018-5.97,4.713-8.52c1.771-2.653,3.744-4.948,5.904-7.288
				c1.041-1.129,2.263-2.132,3.443-3.167c3.502-3.063,7.535-5.704,12.006-7.805c2.979-1.402,6.197-2.578,9.784-3.447
				c3.546-0.858,7.423-1.501,11.685-1.501C247.072,197.161,247.1,197.161,247.126,197.161z M244.274,203.891
				c0.074,1.08-0.431,1.817-1.072,2.218c-1.446,0.908-3.316-0.078-3.563-1.622c-2.531,0.505-4.941,1.129-7.166,1.941
				c1.052,2.932-3.245,4.385-4.279,1.782c-2.321,1.075-4.45,2.339-6.46,3.723c1.026,1.471,0.064,3.5-1.58,3.684
				c-0.942,0.102-1.625-0.317-2.141-0.833c-1.873,1.626-3.654,3.345-5.23,5.268c0.61,0.507,0.938,1.288,0.836,2.14
				c-0.201,1.597-2.339,2.583-3.687,1.544c-1.385,2.009-2.651,4.14-3.723,6.459c0.84,0.394,1.385,1.143,1.385,2.099
				c0,1.522-1.562,2.785-3.166,2.177c-0.785,2.252-1.495,4.586-1.904,7.21c1.562,0.167,2.498,2.171,1.583,3.563
				c-0.41,0.631-1.16,1.096-2.218,1.031c-0.185,2.406-0.188,5.042,0,7.45c2.283-0.129,3.208,2.279,2.099,3.721
				c-0.263,0.341-0.707,0.695-1.144,0.832c-0.088,0.027-0.273-0.034-0.32,0.123c0.439,2.565,1.105,4.914,1.904,7.133
				c3.085-0.982,4.297,3.331,1.781,4.271c1.078,2.334,2.33,4.504,3.764,6.497c1.687-1.221,3.86,0.232,3.646,2.179
				c-0.082,0.709-0.481,1.092-0.836,1.541c1.645,1.857,3.36,3.641,5.269,5.229c0.758-1.133,2.696-1.071,3.566-0.074
				c0.628,0.709,0.747,2.067,0.116,2.929c2.023,1.345,4.108,2.627,6.419,3.686c0.369-0.637,0.959-1.241,1.822-1.346
				c1.809-0.226,3.105,1.453,2.498,3.168c2.273,0.765,4.614,1.453,7.207,1.896c0.339-2.694,4.799-2.585,4.595,0.595
				c2.316,0.227,5.129,0.227,7.446,0c-0.011-1.365,0.784-2.396,2.021-2.531c1.352-0.15,2.401,0.779,2.614,1.938
				c2.582-0.464,4.988-1.105,7.211-1.938c-0.104-0.219-0.145-0.355-0.16-0.594c-0.186-2.164,2.289-3.183,3.724-2.098
				c0.306,0.227,0.478,0.604,0.75,0.909c2.304-1.063,4.386-2.349,6.416-3.685c-0.584-0.766-0.528-1.994-0.075-2.696
				c0.699-1.073,2.457-1.312,3.443-0.513c0.089,0.067,0.26,0.361,0.355,0.354c0.006,0,0.225-0.231,0.322-0.312
				c1.833-1.6,3.409-3.162,4.907-4.998c-1.567-1.181-0.806-3.877,1.19-4.073c0.799-0.082,1.188,0.161,1.66,0.436
				c1.356-2.04,2.627-4.163,3.726-6.463c-0.765-0.382-1.304-0.996-1.386-1.897c-0.143-1.631,1.438-3.037,3.17-2.375
				c0.766-2.287,1.472-4.621,1.9-7.248c-2.764-0.348-2.527-4.791,0.633-4.594c0.164-2.375,0.164-5.072,0-7.45
				c-0.914,0.038-1.468-0.215-1.9-0.635c-1.424-1.361-0.438-3.805,1.269-3.959c-0.433-2.604-1.129-4.945-1.899-7.21
				c-1.832,0.631-3.385-0.826-3.17-2.495c0.107-0.865,0.732-1.483,1.385-1.822c-1.119-2.261-2.342-4.417-3.727-6.418
				c-1.483,1.029-3.457,0.067-3.683-1.503c-0.126-0.906,0.3-1.792,0.832-2.216c-1.627-1.864-3.356-3.612-5.229-5.232
				c-0.326,0.22-0.466,0.436-0.789,0.596c-2.301,1.123-4.297-1.693-2.936-3.447c-2.014-1.375-4.139-2.644-6.453-3.723
				c-0.398,0.841-1.178,1.387-2.141,1.385c-1.512-0.003-2.762-1.544-2.137-3.167c-2.27-0.779-4.601-1.5-7.252-1.902
				c-0.181,1.038-0.881,1.718-1.822,1.902c-1.475,0.287-2.879-0.889-2.771-2.537C249.318,203.7,246.677,203.7,244.274,203.891z"/>
		</g>
		<g>
			<path fill="#292B78" d="M246.055,240.926c0.492-0.051,0.922-0.161,1.464-0.157c-0.303-2.655-0.623-5.378-0.945-8.121
				c-0.047-0.375-0.149-0.749-0.16-1.109c-0.021-0.562,0.086-1.155,0.119-1.742c0.485-8.571,0.97-17.399,1.465-25.947
				c0.461,7.679,0.945,15.547,1.348,23.372c0.078,1.587,0.328,3.166,0.198,4.674c-0.263,3.017-0.771,5.897-1.03,8.832
				c0.43,0.095,0.955,0.095,1.385,0.198c0.216-0.757,0.253-1.542,0.358-2.293c0.253-1.863,0.535-3.795,0.829-5.748
				c0.059-0.38,0.075-0.781,0.157-1.148c0.123-0.544,0.375-1.107,0.562-1.664c2.735-8.165,5.395-16.371,8.114-24.599
				c-1.685,8.341-3.468,17.058-5.267,25.512c-0.164,0.778-0.276,1.523-0.553,2.216c-1.104,2.733-2.209,5.354-3.213,7.962
				c0.441,0.177,0.908,0.334,1.309,0.553c0.688-1.471,1.312-2.928,1.94-4.396c0.314-0.73,0.636-1.475,0.949-2.218
				c0.317-0.734,0.546-1.522,0.952-2.177c0.809-1.298,1.71-2.541,2.536-3.805c4.129-6.346,8.288-12.646,12.477-19.051
				c-3.409,6.854-6.952,13.903-10.457,20.872c-0.334,0.669-0.71,1.38-1.071,2.063c-0.367,0.706-0.642,1.474-1.067,2.057
				c-1.795,2.464-3.642,4.737-5.39,7.133c0.383,0.307,0.758,0.617,1.15,0.911c1.457-1.836,2.867-3.621,4.316-5.467
				c0.476-0.604,0.908-1.266,1.427-1.819c0.505-0.542,1.137-1.051,1.703-1.549c6.303-5.534,12.593-11.251,18.899-16.833
				c0.178-0.109-0.104,0.167-0.16,0.239c-1.387,1.583-2.873,3.254-4.321,4.833c-1.55,1.689-3.037,3.48-4.593,5.187
				c-2.703,2.97-5.394,6.036-8.119,9.032c-0.393,0.423-0.71,0.921-1.108,1.307c-0.272,0.263-0.646,0.475-0.952,0.713
				c-2.127,1.625-4.231,3.419-6.42,5.03c0.273,0.417,0.659,0.717,0.874,1.191c1.837-1.369,3.724-2.754,5.583-4.16
				c0.604-0.458,1.194-0.99,1.826-1.386c0.463-0.297,1.023-0.532,1.539-0.792c7.686-3.843,15.572-7.863,23.257-11.688
				c-2.573,1.657-5.067,3.389-7.606,5.03c-2.547,1.648-5.051,3.341-7.604,4.993c-2.539,1.638-5.045,3.334-7.648,4.989
				c-0.644,0.41-1.442,0.668-2.18,0.99c-2.175,0.942-4.361,1.87-6.613,2.812c0.125,0.506,0.412,0.864,0.519,1.386
				c2.608-1.058,5.249-2.075,7.999-3.208c0.684-0.279,1.447-0.433,2.219-0.594c8.396-1.727,17.077-3.535,25.473-5.269
				c-8.642,2.921-16.935,5.573-25.592,8.478c-0.775,0.259-1.576,0.32-2.42,0.437c-2.445,0.341-4.853,0.761-7.404,1.072
				c0.014,0.375,0.143,0.965,0.156,1.464c2.936-0.318,5.825-0.72,8.834-1.068c0.731-0.089,1.536,0.024,2.34,0.083
				c8.489,0.559,17.219,0.914,25.707,1.46c-7.658,0.498-15.613,0.896-23.369,1.353c-0.779,0.041-1.561,0.114-2.338,0.155
				c-0.789,0.034-1.58,0.109-2.34,0.041c-3.02-0.3-5.879-0.729-8.793-1.072c-0.137,0.43-0.082,1.043-0.232,1.461
				c2.951,0.408,5.803,0.853,8.714,1.27c0.457,0.066,0.729,0.156,1.104,0.279c8.688,2.791,16.94,5.597,25.666,8.437
				c-7.729-1.569-15.787-3.208-23.684-4.874c-1.126-0.238-2.29-0.402-3.369-0.71c-0.729-0.204-1.451-0.58-2.18-0.873
				c-2.096-0.833-4.352-1.739-6.45-2.573c-0.219,0.416-0.334,0.937-0.594,1.305c2.483,1.126,4.899,2.109,7.44,3.208
				c0.36,0.155,0.735,0.266,1.073,0.437c0.238,0.123,0.464,0.361,0.709,0.52c7.484,4.839,14.992,9.828,22.463,14.693
				c-7.545-3.731-15.309-7.67-22.937-11.527c-0.699-0.348-1.471-0.647-2.059-1.07c-2.479-1.788-4.746-3.658-7.173-5.386
				c-0.168,0.172-0.235,0.342-0.434,0.594c-0.079,0.097-0.479,0.458-0.479,0.513c0,0.082,0.67,0.566,0.912,0.758
				c0.928,0.724,1.866,1.439,2.732,2.137c1.289,1.031,2.535,1.884,3.645,2.895c0.559,0.512,1.069,1.119,1.588,1.699
				c5.579,6.259,11.36,12.825,16.872,18.934c-5.515-4.888-11.512-10.147-17.229-15.281c-0.563-0.512-1.135-1.03-1.703-1.551
				c-0.562-0.518-1.189-1.002-1.703-1.541c-0.525-0.561-0.979-1.209-1.468-1.822c-1.167-1.488-2.313-2.977-3.562-4.561
				c-0.191-0.244-0.625-0.881-0.719-0.908c-0.253-0.08-0.832,0.801-1.188,0.834c1.781,2.39,3.521,4.771,5.351,7.207
				c0.235,0.313,0.417,0.627,0.595,0.989c3.928,7.952,8.108,16.032,12.077,23.964c-0.208-0.178-0.323-0.451-0.471-0.668
				c-4.298-6.442-8.539-13.037-12.837-19.567c-0.631-0.964-1.381-1.898-1.899-2.896c-0.356-0.683-0.61-1.438-0.91-2.143
				c-0.901-2.117-1.837-4.198-2.733-6.376c-0.42,0.219-0.863,0.403-1.35,0.562c1.004,2.619,2.109,5.247,3.213,7.998
				c0.279,0.703,0.389,1.461,0.553,2.26c1.724,8.342,3.601,17.084,5.307,25.465c-2.859-8.463-5.576-16.946-8.436-25.465
				c-0.199-0.595-0.321-1.203-0.438-1.979c-0.382-2.662-0.727-5.297-1.146-8.007c-0.354,0.014-0.962,0.123-1.426,0.156
				c0.149,1.494,0.334,3.018,0.515,4.561c0.175,1.488,0.454,2.996,0.557,4.477c0.034,0.566-0.048,1.176-0.082,1.782
				c-0.506,8.613-0.983,17.487-1.464,26.06c-0.587-8.471-0.982-17.229-1.506-25.86c-0.037-0.581-0.129-1.153-0.119-1.707
				c0.011-0.757,0.184-1.562,0.276-2.342c0.273-2.259,0.57-4.647,0.829-6.927c-0.398-0.157-1.02-0.09-1.423-0.239
				c-0.402,2.539-0.724,4.954-1.071,7.487c-0.109,0.812-0.226,1.604-0.471,2.34c-2.901,8.621-5.549,16.921-8.439,25.623
				c0.167-1.119,0.406-2.238,0.631-3.365c0.669-3.337,1.462-6.709,2.144-10.1c0.791-3.953,1.638-7.893,2.454-11.845
				c0.119-0.573,0.16-1.166,0.317-1.698c0.102-0.354,0.286-0.744,0.437-1.111c0.969-2.432,2.074-5.092,3.051-7.529
				c-0.437-0.211-0.938-0.354-1.352-0.594c-1.071,2.531-2.144,4.956-3.208,7.486c-0.144,0.35-0.263,0.738-0.437,1.072
				c-0.123,0.245-0.355,0.479-0.513,0.71c-1.088,1.632-2.184,3.419-3.289,5.071c-3.829,5.746-7.583,11.548-11.364,17.35
				c0.061-0.383,0.301-0.695,0.471-1.029c2.628-5.135,5.27-10.443,7.883-15.646c1.031-2.046,2.068-4.203,3.133-6.298
				c0.349-0.696,0.689-1.44,1.106-2.021c1.788-2.484,3.625-4.771,5.392-7.168c-0.405-0.285-0.785-0.594-1.153-0.914
				c-1.706,2.137-3.364,4.279-5.071,6.457c-0.239,0.301-0.457,0.648-0.71,0.908c-0.194,0.204-0.457,0.36-0.672,0.559
				c-6.576,5.897-13.319,11.856-19.885,17.779c0.021-0.183,0.204-0.312,0.316-0.43c1.911-2.082,3.832-4.309,5.743-6.457
				c3.812-4.306,7.632-8.592,11.521-12.879c0.273-0.294,0.478-0.607,0.758-0.866c0.56-0.526,1.215-0.948,1.822-1.427
				c1.803-1.42,3.597-2.867,5.467-4.279c-0.014-0.219-0.286-0.361-0.437-0.553c-0.167-0.212-0.28-0.451-0.438-0.636
				c-2.402,1.755-4.722,3.543-7.173,5.345c-0.58,0.438-1.317,0.766-2.014,1.112c-7.589,3.815-15.343,7.692-22.895,11.526
				c0.405-0.382,0.925-0.641,1.382-0.947c6.682-4.457,13.479-8.887,20.285-13.31c0.483-0.321,0.935-0.71,1.419-0.956
				c0.355-0.171,0.751-0.279,1.112-0.437c2.423-1.03,4.877-2.13,7.368-3.167c-0.157-0.465-0.405-0.833-0.516-1.346
				c-2.627,1.023-5.238,2.062-7.999,3.168c-0.365,0.149-0.695,0.278-1.071,0.36c-8.751,1.856-17.794,3.687-26.578,5.502
				c8.638-2.874,16.907-5.616,25.547-8.478c0.765-0.252,1.598-0.314,2.417-0.438c2.449-0.361,4.866-0.695,7.408-1.07
				c-0.058-0.479-0.153-0.922-0.156-1.461c-2.936,0.342-5.812,0.758-8.835,1.072c-0.759,0.075-1.563,0-2.376-0.04
				c-8.443-0.402-17.187-1.1-25.67-1.468c6.108-0.478,12.463-0.686,18.701-1.109c2.263-0.153,4.675-0.256,7.044-0.392
				c0.798-0.052,1.586-0.171,2.301-0.083c3.009,0.369,5.89,0.734,8.794,1.068c0.092-0.447,0.109-0.973,0.197-1.426
				c-2.525-0.375-4.91-0.761-7.446-1.109c-0.822-0.112-1.61-0.181-2.379-0.437c-8.6-2.887-16.892-5.56-25.585-8.437
				c1.533,0.243,3.083,0.59,4.636,0.912c6.924,1.443,13.886,2.897,20.871,4.316c0.768,0.157,1.501,0.324,2.181,0.594
				c2.761,1.099,5.364,2.164,7.958,3.208c0.181-0.451,0.355-0.915,0.557-1.344c-2.522-1.12-4.917-2.116-7.443-3.208
				c-0.661-0.287-1.242-0.536-1.821-0.912c-1.639-1.05-3.328-2.242-4.997-3.327c-5.788-3.761-11.521-7.556-17.305-11.33
				c2.051,0.943,4.084,2.014,6.139,3.051c5.109,2.576,10.279,5.133,15.409,7.764c1.019,0.522,2.091,0.966,3.046,1.546
				c0.663,0.396,1.28,0.915,1.905,1.386c1.821,1.379,3.74,2.785,5.541,4.201c0.322-0.372,0.591-0.788,0.915-1.15
				c-2.085-1.727-4.237-3.331-6.381-5.03c-0.3-0.242-0.643-0.464-0.908-0.717c-0.409-0.382-0.765-0.874-1.147-1.303
				c-5.698-6.425-11.555-12.924-17.271-19.331c0.911,0.682,1.717,1.501,2.573,2.257c4.31,3.817,8.63,7.639,12.951,11.565
				c1.478,1.341,3.037,2.696,4.559,4.041c1.304,1.16,2.307,2.798,3.443,4.197c0.96,1.191,1.926,2.378,2.851,3.607
				c0.422-0.262,0.757-0.617,1.193-0.87c-1.627-2.146-3.262-4.389-4.914-6.58c-0.231-0.307-0.525-0.594-0.717-0.908
				c-0.293-0.485-0.487-1.061-0.751-1.585c-3.817-7.597-7.821-15.466-11.644-23.056c0.218,0.181,0.32,0.447,0.471,0.674
				c3.662,5.488,7.27,11.083,10.935,16.638c0.945,1.427,1.914,2.877,2.853,4.358c0.314,0.486,0.696,0.937,0.949,1.425
				c0.185,0.348,0.283,0.737,0.437,1.109c1.023,2.417,2.163,4.867,3.17,7.406c0.485-0.15,0.851-0.413,1.39-0.515
				c-0.983-2.468-2.027-5.102-3.051-7.641c-0.144-0.354-0.341-0.723-0.437-1.072c-0.151-0.54-0.239-1.135-0.355-1.703
				c-1.724-8.361-3.495-16.947-5.231-25.272c0.058-0.147,0.011,0.118,0.081,0.08c2.693,8.211,5.341,16.329,8.078,24.599
				c0.185,0.558,0.45,1.086,0.557,1.624c0.146,0.765,0.201,1.541,0.317,2.297C245.451,236.374,245.734,238.558,246.055,240.926z"/>
		</g>
	</g>
	<g>
		<path fill="#F89939" d="M38.75,176.112c30.441-86.209,112.642-147.98,209.271-147.98c96.737,0,179.017,61.915,209.372,148.278
			L38.75,176.112z"/>
	</g>
	<g>
		<path fill="#1C8842" d="M38.75,323.887c30.441,86.206,112.642,147.981,209.271,147.981c96.737,0,179.017-61.92,209.372-148.281
			L38.75,323.887z"/>
	</g>
</g>
</svg>
