<?xml version="1.0" encoding="utf-8"?>
<!-- Generator: Adobe Illustrator 16.0.0, SVG Export Plug-In . SVG Version: 6.00 Build 0)  -->
<!DOCTYPE svg PUBLIC "-//W3C//DTD SVG 1.1//EN" "http://www.w3.org/Graphics/SVG/1.1/DTD/svg11.dtd">
<svg version="1.1" id="Layer_1" xmlns="http://www.w3.org/2000/svg" xmlns:xlink="http://www.w3.org/1999/xlink" x="0px" y="0px"
	 width="500px" height="500px" viewBox="0 0 500 500" enable-background="new 0 0 500 500" xml:space="preserve">
<g id="Layer_1_copy_72">
	<g>
		<g>
			<path fill="#47B649" d="M406.076,120.446c0,34.66-27.916,62.758-62.356,62.758s-62.358-28.098-62.358-62.758
				c0-34.664,27.918-62.762,62.358-62.762S406.076,85.782,406.076,120.446z"/>
			<path fill="#2C2010" d="M343.72,185.599c-35.708,0-64.759-29.23-64.759-65.153c0-35.929,29.051-65.159,64.759-65.159
				c35.707,0,64.757,29.23,64.757,65.159C408.477,156.369,379.427,185.599,343.72,185.599z M343.72,60.084
				c-33.062,0-59.959,27.075-59.959,60.362c0,33.282,26.896,60.358,59.959,60.358s59.962-27.076,59.962-60.358
				C403.682,87.159,376.781,60.084,343.72,60.084z"/>
		</g>
		<g>
			<path fill="#2E9345" d="M229.396,120.446c0,34.66-27.922,62.758-62.363,62.758c-34.438,0-62.358-28.098-62.358-62.758
				c0-34.664,27.921-62.762,62.358-62.762C201.475,57.684,229.396,85.782,229.396,120.446z"/>
			<path fill="#2C2010" d="M167.033,185.599c-35.708,0-64.754-29.23-64.754-65.153c0-35.929,29.046-65.159,64.754-65.159
				c35.704,0,64.758,29.23,64.758,65.159C231.791,156.369,202.737,185.599,167.033,185.599z M167.033,60.084
				c-33.063,0-59.958,27.075-59.958,60.362c0,33.282,26.895,60.358,59.958,60.358c33.062,0,59.963-27.076,59.963-60.358
				C226.996,87.159,200.096,60.084,167.033,60.084z"/>
		</g>
		<g>
			<path fill="#676767" d="M159.849,31.017c29.857-2.072,47.269,17.553,73.928,24.565c13.236,3.481,27.976,3.942,42.692,0.993
				c30.229-6.063,51.442-26.515,79.959-20.992c28.942,5.602,46.536,29.127,62.137,62.037c13.765,29.046,24.012,61.271,22.538,98.868
				c-0.995,25.28-10.566,46.609-32.993,51.88c-26.303,6.182-47.825-9.849-62.062-22.304c-14.928-13.05-26.156-34.472-42.743-41.721
				c-12.421-5.42-30.419-4.676-49.545-5.121c-21.291-0.492-37.164-1.663-49.733,2.818c-19.32,6.896-29.66,24.612-44.562,36.714
				c-13.762,11.177-32.314,25.356-56.179,23.529c-56.729-4.339-39.221-87.146-22.813-129.666
				c11.634-30.156,27.845-59.473,53.381-74.255C141.864,33.719,150.85,31.643,159.849,31.017z M345.025,98.895
				c23.772,0.549,21.958-38.701-3.188-33.85C321.047,69.057,326.89,98.472,345.025,98.895z M174.739,74.077
				c-4.868-9.267-21.433-9.038-24.91,3.395c-2.174,7.771,1.098,14.12-0.554,23.83c-18.588-2.359-38.461-0.703-34.172,17.086
				c2.576,10.69,19.967,9.491,33.551,9.722c-1.898,19.559-0.826,35.213,14.108,34.099c15.539-1.16,9.992-19.52,13.688-33.458
				c18.208,1.686,33.174,0.503,33.086-13.135c-0.089-14.047-16.229-14.133-34.448-13.714
				C175.83,92.504,178.402,81.04,174.739,74.077z M293.052,112.586c-3.036,29.427,40.238,23.594,33.852-3.187
				c-1.713-7.168-12.338-12.778-21.614-10.436C297.118,101.025,293.631,106.942,293.052,112.586z M373.034,133.316
				c27.683,7.483,31.013-39.101,1.755-32.739C356.969,104.45,359.652,129.699,373.034,133.316z M346.409,167.469
				c20.102-2.353,18.064-35.208-3.183-33.85C318.769,135.186,323.868,170.099,346.409,167.469z"/>
			<path fill="#2C2010" d="M396.401,252.141c-21.439,0-39.019-12.968-51.935-24.268c-5.867-5.13-11.178-11.523-16.31-17.701
				c-8.282-9.972-16.104-19.386-25.813-23.629c-10.011-4.373-24.398-4.568-39.629-4.776c-2.964-0.035-5.979-0.077-9.015-0.15
				c-2.769-0.065-5.445-0.138-8.037-0.21c-5.437-0.154-10.574-0.3-15.301-0.3c-8.201,0-17.647,0.38-25.532,3.191
				c-12.229,4.366-20.623,13.17-29.507,22.492c-4.514,4.731-9.174,9.622-14.349,13.826c-11.159,9.062-29.826,24.224-53.513,24.224
				c-1.443,0-2.911-0.057-4.357-0.165c-14.503-1.11-25.361-7.226-32.279-18.184c-16.888-26.754-6.562-78.527,7.406-114.737
				c14.693-38.093,32.494-62.777,54.415-75.467c7.532-4.362,16.628-6.94,27.033-7.662c19.141-1.323,33.543,6.052,47.484,13.179
				c8.501,4.348,17.294,8.844,27.227,11.459c13.062,3.432,27.567,3.771,41.609,0.96c11.407-2.289,21.577-6.705,31.412-10.972
				c13.03-5.657,25.345-11.002,39.285-11.002c3.4,0,6.827,0.327,10.186,0.979c32.802,6.351,50.685,35.597,63.845,63.363
				c16.822,35.481,24.057,67.257,22.77,99.99c-1.175,29.896-13.545,49.115-34.841,54.126
				C404.614,251.656,400.49,252.141,396.401,252.141z M230.363,176.312c4.795,0,9.964,0.146,15.438,0.3
				c2.585,0.077,5.249,0.149,8.014,0.21c3.022,0.07,6.017,0.112,8.965,0.154c15.731,0.21,30.587,0.414,41.483,5.171
				c10.75,4.696,19.311,14.998,27.583,24.954c5.016,6.04,10.202,12.282,15.776,17.158c12.287,10.747,28.936,23.083,48.778,23.083
				c3.721,0,7.472-0.441,11.162-1.309c25.637-6.028,30.513-33.689,31.142-49.642c1.253-31.934-5.835-62.992-22.312-97.744
				c-17.929-37.826-36-55.983-60.423-60.711c-3.062-0.593-6.179-0.893-9.272-0.893c-12.944,0-24.812,5.153-37.377,10.606
				c-10.064,4.37-20.471,8.885-32.379,11.275c-14.758,2.957-30.004,2.596-43.771-1.027c-10.434-2.743-19.459-7.358-28.191-11.823
				c-14.003-7.161-27.157-13.897-44.965-12.665c-9.811,0.68-17.972,2.979-24.965,7.026c-20.933,12.118-38.059,36.013-52.341,73.044
				c-13.573,35.17-23.763,85.204-7.824,110.449c6.062,9.607,15.68,14.975,28.585,15.965c1.352,0.1,2.684,0.15,3.993,0.15
				c21.98,0,39.824-14.495,50.485-23.153c4.942-4.008,9.495-8.792,13.903-13.411c8.882-9.315,18.065-18.952,31.366-23.698
				C211.795,176.722,221.755,176.312,230.363,176.312z M344.026,170.007c0,0,0,0-0.004,0c-12.169,0-19.049-10.033-19.353-19.474
				c-0.287-9.004,5.291-18.469,18.402-19.306c12.684-0.818,19.138,9.058,19.672,18.188c0.517,8.876-4.289,19.059-16.055,20.43
				C345.777,169.953,344.891,170.007,344.026,170.007z M344.494,135.977c-0.368,0-0.732,0.011-1.117,0.035
				c-10.585,0.68-14.111,8.167-13.91,14.372c0.234,7.364,5.311,14.828,14.561,14.828l0,0c0.683,0,1.383-0.042,2.104-0.126
				c8.682-1.014,12.218-8.693,11.826-15.389C357.557,142.865,353.241,135.977,344.494,135.977z M161.301,164.663
				c-4.423,0-7.982-1.448-10.575-4.301c-5.635-6.212-5.683-18.314-4.693-29.887c-0.628,0-1.253-0.008-1.886-0.008
				c-13.42-0.073-28.636-0.153-31.373-11.518c-1.341-5.572-0.627-10.171,2.13-13.673c4.847-6.152,15.945-8.396,32.308-6.631
				c0.329-3.433,0.057-6.462-0.212-9.409c-0.369-4.1-0.723-7.975,0.521-12.407c1.979-7.077,8.08-11.646,15.546-11.646
				c5.986,0,11.278,2.981,13.801,7.777c3.205,6.105,2.223,14.615,1.267,22.848c-0.143,1.227-0.284,2.444-0.407,3.64
				c1.693-0.035,3.368-0.056,5.003-0.056c10.171,0,29.104,0,29.208,16.205c0.026,4.296-1.275,7.802-3.882,10.421
				c-3.877,3.904-10.355,5.724-20.384,5.724c-2.769,0-5.848-0.138-9.354-0.418c-0.684,3.437-0.905,7.146-1.12,10.755
				c-0.61,10.105-1.299,21.558-14.256,22.522C162.376,164.643,161.831,164.663,161.301,164.663z M137.069,102.853
				c-9.257,0-15.619,1.866-18.395,5.395c-1.829,2.319-2.236,5.453-1.237,9.58c1.857,7.71,15.074,7.779,26.735,7.844
				c1.535,0.004,3.053,0.015,4.519,0.039c0.673,0.011,1.306,0.303,1.752,0.802c0.445,0.496,0.663,1.16,0.599,1.828
				c-1.029,10.609-1.594,23.475,3.237,28.793c1.892,2.089,4.595,2.968,8.305,2.684c8.37-0.622,9.152-6.931,9.821-18.026
				c0.276-4.539,0.557-9.231,1.728-13.654c0.299-1.129,1.352-1.878,2.543-1.774c4.238,0.396,7.836,0.583,10.996,0.583
				c8.546,0,14.103-1.409,16.986-4.307c1.688-1.705,2.504-3.998,2.479-7.007c-0.049-8.34-6.668-11.442-24.407-11.442
				c-2.461,0-4.998,0.05-7.587,0.111c-0.688,0.007-1.329-0.257-1.797-0.748c-0.464-0.496-0.703-1.164-0.649-1.841
				c0.166-2.075,0.416-4.25,0.673-6.457c0.871-7.51,1.77-15.271-0.749-20.06c-1.693-3.217-5.353-5.216-9.554-5.216
				c-4.184,0-9.252,2.139-10.927,8.14c-1.001,3.586-0.707,6.876-0.361,10.688c0.334,3.698,0.715,7.89-0.138,12.898
				c-0.215,1.263-1.382,2.12-2.668,1.978C144.657,103.134,140.651,102.853,137.069,102.853z M308.938,134.602L308.938,134.602
				c-5.546,0-10.443-2.046-13.795-5.763c-2.531-2.803-5.361-7.94-4.479-16.499c0.808-7.817,6.051-13.688,14.038-15.702
				c1.613-0.405,3.298-0.614,5.022-0.614c9.071,0,17.821,5.75,19.51,12.818c2.057,8.619-0.688,14.456-3.357,17.834
				C321.957,131.638,315.625,134.602,308.938,134.602z M309.725,100.821c-1.328,0-2.618,0.16-3.849,0.469
				c-8.573,2.162-10.159,8.792-10.438,11.542c-0.558,5.387,0.571,9.81,3.264,12.793c2.435,2.695,6.065,4.181,10.236,4.181
				c5.151,0,10.205-2.338,13.177-6.101c2.879-3.651,3.729-8.405,2.453-13.749C323.388,105.003,316.589,100.821,309.725,100.821z
				 M343.711,99.526L343.711,99.526c-5.545,0-10.443-2.046-13.795-5.763c-2.53-2.805-5.356-7.94-4.474-16.499
				c0.802-7.82,6.051-13.688,14.032-15.703c1.612-0.406,3.304-0.613,5.022-0.613c9.073,0,17.827,5.75,19.513,12.817
				c2.059,8.622-0.69,14.458-3.354,17.835C356.733,96.563,350.403,99.526,343.711,99.526z M344.498,64.846
				c-1.325,0-2.619,0.159-3.843,0.468c-8.575,2.162-10.159,8.792-10.439,11.542c-0.557,5.387,0.57,9.81,3.265,12.793
				c2.43,2.695,6.062,4.181,10.23,4.181c5.157,0,10.205-2.338,13.179-6.101c2.882-3.651,3.731-8.405,2.456-13.75
				C358.163,69.029,351.367,64.846,344.498,64.846z M377.891,135.201L377.891,135.201c-5.544,0-10.441-2.046-13.796-5.763
				c-2.528-2.803-5.358-7.94-4.477-16.498c0.807-7.818,6.051-13.688,14.037-15.703c1.608-0.405,3.299-0.614,5.021-0.614
				c9.073,0,17.823,5.752,19.509,12.819c2.06,8.619-0.688,14.456-3.354,17.834C390.915,132.241,384.579,135.201,377.891,135.201z
				 M378.678,101.421c-1.322,0-2.618,0.159-3.847,0.468c-8.574,2.162-10.16,8.792-10.44,11.542
				c-0.557,5.387,0.573,9.811,3.264,12.793c2.436,2.695,6.066,4.182,10.236,4.182c5.154,0,10.206-2.338,13.179-6.102
				c2.88-3.651,3.731-8.405,2.454-13.75C392.343,105.606,385.543,101.421,378.678,101.421z"/>
		</g>
	</g>
	<g>
		
			<polygon fill="#F5803E" stroke="#2C2010" stroke-width="4.7968" stroke-linecap="round" stroke-linejoin="round" stroke-miterlimit="10" points="
			338.927,395.708 383.97,441.576 435.101,418.257 428.942,361.654 399.508,340.35 370.454,329.464 		"/>
		
			<polygon fill="#F7AC3D" stroke="#2C2010" stroke-width="4.7968" stroke-linecap="round" stroke-linejoin="round" stroke-miterlimit="10" points="
			370.454,329.464 428.128,380.854 453.846,399.073 475.147,379.877 429.613,341.234 		"/>
		
			<polygon fill="#F04B2A" stroke="#2C2010" stroke-width="4.7968" stroke-linecap="round" stroke-linejoin="round" stroke-miterlimit="10" points="
			417.604,370.706 383.97,441.576 446.216,441.947 475.147,379.877 		"/>
		<path fill="#F5F5E6" d="M439.8,408.793c-1.429,3.975-5.108,6.289-8.225,5.164c-3.118-1.118-4.488-5.249-3.061-9.219
			c1.431-3.973,5.11-6.284,8.229-5.17C439.858,400.691,441.228,404.818,439.8,408.793z"/>
		<path fill="#F5F5E6" d="M424.224,357.865c3.907,2.343,5.908,6.193,4.461,8.615c-1.447,2.412-5.788,2.475-9.697,0.131
			c-3.914-2.342-5.91-6.195-4.465-8.61C415.972,355.583,420.315,355.523,424.224,357.865z"/>
		<path fill="#F5F5E6" d="M428.857,345.886c3.907,2.339,5.908,6.192,4.462,8.611c-1.444,2.413-5.791,2.473-9.699,0.135
			c-3.908-2.343-5.91-6.2-4.461-8.61C420.606,343.6,424.949,343.541,428.857,345.886z"/>
		<path fill="#F5F5E6" d="M382.012,379.962c1.439,3.836-0.441,8.09-4.205,9.496c-3.76,1.415-7.971-0.56-9.41-4.394
			c-1.438-3.844,0.444-8.09,4.203-9.504C376.358,374.152,380.575,376.122,382.012,379.962z"/>
		<path fill="#F5F5E6" d="M403.611,372.667c1.439,3.838-0.444,8.09-4.204,9.504c-3.763,1.402-7.972-0.562-9.409-4.401
			c-1.44-3.836,0.438-8.09,4.204-9.498C397.957,366.865,402.173,368.827,403.611,372.667z"/>
		<path fill="#F5F5E6" d="M379.772,353.908c1.438,3.836-0.446,8.09-4.205,9.498c-3.76,1.414-7.972-0.562-9.409-4.396
			c-1.438-3.836,0.443-8.09,4.204-9.498C374.12,348.105,378.336,350.072,379.772,353.908z"/>
		<path fill="#F5F5E6" d="M362.095,389.186c1.44,3.838-0.443,8.09-4.204,9.498c-3.76,1.408-7.974-0.561-9.409-4.396
			c-1.438-3.837,0.443-8.09,4.203-9.499C356.442,383.375,360.658,385.344,362.095,389.186z"/>
		<path fill="#F5F5E6" d="M385.109,408.734c1.436,3.842-0.445,8.096-4.2,9.502c-3.765,1.408-7.979-0.56-9.415-4.401
			c-1.437-3.837,0.445-8.09,4.204-9.496C379.458,402.93,383.673,404.896,385.109,408.734z"/>
	</g>
	<g>
		
			<polygon fill="#E2E55A" stroke="#2C2010" stroke-width="4.7968" stroke-linecap="round" stroke-linejoin="round" stroke-miterlimit="10" points="
			147.901,342.209 88.561,338.966 34.672,364.911 77.312,404.416 143.267,382.62 		"/>
		
			<polygon fill="#86B13F" stroke="#2C2010" stroke-width="4.7968" stroke-linecap="round" stroke-linejoin="round" stroke-miterlimit="10" points="
			34.672,364.911 122.845,372.061 136.252,408.193 112.795,446.677 48.111,437.225 		"/>
		
			<polygon fill="#C0D13D" stroke="#2C2010" stroke-width="4.7968" stroke-linecap="round" stroke-linejoin="round" stroke-miterlimit="10" points="
			97.779,370.148 147.901,342.209 161.536,409.688 112.795,446.677 		"/>
		<path fill="#F5F5E6" d="M138.091,386.501c1.201,4.319-0.663,8.612-4.173,9.59c-3.511,0.979-7.334-1.731-8.535-6.047
			c-1.206-4.327,0.663-8.614,4.173-9.594C133.064,379.469,136.882,382.178,138.091,386.501z"/>
		<path fill="#F5F5E6" d="M99.761,347.052c0.445,2.487-3.064,5.191-7.832,6.044c-4.77,0.85-8.989-0.477-9.435-2.964
			c-0.444-2.487,3.063-5.19,7.832-6.039C95.096,343.24,99.314,344.573,99.761,347.052z"/>
		<path fill="#F5F5E6" d="M103.266,360.182c0.445,2.487-3.063,5.189-7.832,6.033c-4.766,0.854-8.988-0.477-9.434-2.96
			c-0.445-2.481,3.064-5.187,7.832-6.036C98.598,356.367,102.821,357.695,103.266,360.182z"/>
		<path fill="#F5F5E6" d="M90.761,388.503c-0.676,4.044-4.369,6.793-8.247,6.146s-6.474-4.451-5.798-8.492
			c0.676-4.043,4.37-6.793,8.247-6.147C88.841,380.661,91.437,384.463,90.761,388.503z"/>
		<path fill="#F5F5E6" d="M77.63,405.684c-0.68,4.041-4.37,6.791-8.248,6.146c-3.877-0.651-6.478-4.449-5.801-8.493
			c0.68-4.04,4.368-6.789,8.246-6.146C75.709,397.842,78.302,401.641,77.63,405.684z"/>
		<path fill="#F5F5E6" d="M97.898,428.075c-0.68,4.044-4.369,6.793-8.251,6.141c-3.878-0.646-6.474-4.449-5.794-8.489
			c0.675-4.043,4.365-6.793,8.243-6.143C95.979,420.229,98.569,424.033,97.898,428.075z"/>
		<path fill="#F5F5E6" d="M66.994,425.642c-0.672,4.041-4.367,6.792-8.248,6.145c-3.878-0.65-6.473-4.451-5.793-8.493
			c0.672-4.044,4.365-6.794,8.243-6.145C65.074,417.795,67.669,421.599,66.994,425.642z"/>
		<path fill="#F5F5E6" d="M59.529,385.792c-0.68,4.04-4.374,6.789-8.25,6.138c-3.878-0.646-6.474-4.449-5.799-8.494
			c0.68-4.041,4.37-6.791,8.248-6.138C57.606,377.943,60.201,381.749,59.529,385.792z"/>
	</g>
	<g>
		<path fill="#6A2B84" d="M322.321,329.652c-7.122-5.321-6.047-19.543-5.878-21.375c2.388-2.354,3.869-5.611,3.869-9.23
			c0-7.156-5.798-12.955-12.954-12.955c-7.157,0-12.956,5.799-12.956,12.955c0,3.952,1.771,7.477,4.559,9.854
			c0.234,3.199,0.714,15.877-5.921,20.832c-7.621,5.694-13.718,7.94-13.799,16.766c-0.081,8.827,7.223,10.749,19.729,12.031
			c6.56,0.229,9.399,0.037,9.728,0.014c1.566,0.03,4.047,0.038,7.688-0.088c12.517-1.288,19.812-3.211,19.734-12.029
			C336.043,337.592,329.946,335.346,322.321,329.652z"/>
		<path fill="#2C2010" d="M304.647,360.564c-1.467,0-3.359-0.025-5.736-0.11c-11.935-1.215-21.694-3.104-21.595-13.972
			c0.074-8.219,4.966-11.588,10.627-15.494c1.25-0.86,2.565-1.772,3.939-2.799c5.445-4.065,5.385-14.807,5.204-18.385
			c-2.938-2.806-4.608-6.682-4.608-10.759c0-8.204,6.675-14.882,14.88-14.882s14.883,6.678,14.883,14.882
			c0,3.771-1.396,7.319-3.934,10.071c-0.409,5.633,0.249,15.318,5.163,18.986c1.375,1.033,2.696,1.938,3.94,2.805
			c5.667,3.904,10.562,7.283,10.636,15.496c0.096,10.865-9.664,12.75-21.467,13.965c-3.894,0.138-6.335,0.13-7.925,0.094
			C308.38,360.488,307.07,360.564,304.647,360.564z M307.358,288.018c-6.082,0-11.031,4.943-11.031,11.028
			c0,3.229,1.417,6.283,3.882,8.39c0.396,0.336,0.635,0.808,0.672,1.321c0.284,3.896,0.641,17.04-6.691,22.519
			c-1.41,1.057-2.772,1.998-4.056,2.877c-5.556,3.837-8.911,6.15-8.97,12.363c-0.055,6.401,3.982,8.662,18.009,10.099
			c5.709,0.188,8.72,0.052,9.394,0.007c0.72,0.004,1.381,0.013,2.164,0.013c1.432,0,3.277-0.026,5.59-0.104
			c13.891-1.433,17.932-3.696,17.877-10.093c-0.059-6.213-3.41-8.53-8.969-12.361c-1.283-0.885-2.646-1.823-4.06-2.883
			c-7.812-5.838-6.903-20.258-6.643-23.094c0.042-0.451,0.243-0.877,0.563-1.195c2.128-2.088,3.294-4.881,3.294-7.856
			C318.385,292.961,313.44,288.018,307.358,288.018z"/>
	</g>
	<g>
		<path fill="#ED1F6C" d="M215.354,343.955c-7.123-5.318-6.043-19.539-5.874-21.375c2.385-2.352,3.866-5.614,3.866-9.225
			c0-7.158-5.803-12.963-12.955-12.963c-7.155,0-12.955,5.805-12.955,12.963c0,3.949,1.771,7.474,4.559,9.851
			c0.234,3.194,0.714,15.872-5.921,20.835c-7.622,5.688-13.724,7.939-13.8,16.762c-0.08,8.828,7.222,10.752,19.731,12.034
			c6.562,0.228,9.404,0.028,9.726,0.007c1.567,0.034,4.047,0.034,7.688-0.084c12.517-1.29,19.815-3.211,19.734-12.037
			C229.077,351.898,222.977,349.65,215.354,343.955z"/>
		<path fill="#2C2010" d="M197.686,374.87c-1.472,0-3.364-0.026-5.745-0.11c-11.93-1.221-21.689-3.102-21.593-13.977
			c0.076-8.213,4.968-11.59,10.636-15.497c1.243-0.854,2.564-1.765,3.938-2.789c5.445-4.071,5.383-14.812,5.199-18.386
			c-2.941-2.809-4.612-6.68-4.612-10.756c0-8.207,6.678-14.889,14.883-14.889s14.879,6.682,14.879,14.889
			c0,3.765-1.391,7.314-3.933,10.068c-0.407,5.637,0.254,15.316,5.169,18.989c1.374,1.021,2.699,1.937,3.947,2.801
			c5.66,3.906,10.552,7.28,10.626,15.495c0.098,10.863-9.662,12.752-21.462,13.965c-3.9,0.137-6.339,0.129-7.929,0.092
			C201.413,374.792,200.104,374.87,197.686,374.87z M200.392,302.318c-6.082,0-11.031,4.947-11.031,11.037
			c0,3.224,1.417,6.279,3.886,8.383c0.388,0.334,0.63,0.811,0.668,1.324c0.283,3.898,0.652,17.03-6.688,22.517
			c-1.412,1.062-2.776,1.997-4.059,2.879c-5.557,3.832-8.911,6.147-8.969,12.36c-0.058,6.396,3.982,8.666,18.008,10.103
			c2.192,0.072,4.046,0.095,5.479,0.095c2.296,0,3.501-0.061,3.912-0.095c0.722,0.011,1.383,0.021,2.168,0.021
			c1.429,0,3.269-0.028,5.588-0.108c13.896-1.433,17.936-3.692,17.878-10.09c-0.059-6.216-3.41-8.525-8.967-12.361
			c-1.286-0.887-2.648-1.825-4.062-2.887c-7.815-5.831-6.903-20.263-6.644-23.091c0.042-0.454,0.242-0.875,0.569-1.193
			c2.127-2.094,3.294-4.882,3.294-7.854C211.423,307.266,206.474,302.318,200.392,302.318z"/>
	</g>
	<g>
		<path fill="#4FA0CA" d="M273.086,401.717c-7.122-5.318-6.048-19.539-5.878-21.375c2.388-2.346,3.874-5.613,3.874-9.223
			c0-7.16-5.807-12.963-12.964-12.963c-7.151,0-12.953,5.803-12.953,12.963c0,3.947,1.773,7.477,4.562,9.848
			c0.229,3.196,0.715,15.873-5.925,20.835c-7.622,5.688-13.718,7.94-13.799,16.763c-0.082,8.829,7.222,10.752,19.735,12.036
			c6.558,0.226,9.403,0.026,9.722,0.012c1.569,0.031,4.052,0.031,7.687-0.091c12.519-1.289,19.816-3.211,19.74-12.033
			C286.805,409.661,280.704,407.418,273.086,401.717z"/>
		<path fill="#2C2010" d="M255.412,432.633c-1.469,0-3.363-0.026-5.739-0.105c-11.93-1.224-21.694-3.106-21.594-13.982
			c0.072-8.208,4.969-11.582,10.636-15.488c1.243-0.863,2.564-1.769,3.935-2.797c5.448-4.07,5.384-14.811,5.203-18.386
			c-2.94-2.808-4.611-6.681-4.611-10.754c0-8.208,6.676-14.89,14.877-14.89c8.211,0,14.884,6.682,14.884,14.89
			c0,3.769-1.392,7.313-3.933,10.069c-0.402,5.634,0.25,15.317,5.169,18.992c1.368,1.021,2.694,1.935,3.942,2.795
			c5.662,3.908,10.555,7.282,10.629,15.496c0.096,10.862-9.66,12.751-21.463,13.965c-3.897,0.135-6.338,0.128-7.927,0.092
			C259.145,432.56,257.831,432.633,255.412,432.633z M258.118,360.08c-6.08,0-11.029,4.955-11.029,11.04
			c0,3.222,1.416,6.282,3.886,8.382c0.393,0.333,0.633,0.818,0.668,1.328c0.289,3.896,0.652,17.027-6.685,22.512
			c-1.418,1.061-2.775,1.997-4.059,2.885c-5.56,3.83-8.917,6.143-8.969,12.357c-0.059,6.396,3.981,8.662,18.003,10.103
			c5.709,0.184,8.724,0.051,9.396,0c0.717,0.008,1.379,0.021,2.166,0.021c1.431,0,3.271-0.032,5.586-0.111
			c13.896-1.428,17.935-3.693,17.877-10.091c-0.054-6.207-3.405-8.524-8.966-12.356c-1.281-0.891-2.646-1.826-4.059-2.885
			c-7.812-5.837-6.908-20.263-6.643-23.092c0.038-0.459,0.238-0.877,0.564-1.195c2.127-2.093,3.297-4.885,3.297-7.854
			C269.154,365.035,264.205,360.08,258.118,360.08z"/>
	</g>
	<g>
		<path fill="#F58020" d="M264.032,277.684c-7.126-5.324-6.043-19.552-5.875-21.375c2.389-2.354,3.868-5.617,3.868-9.233
			c0-7.153-5.803-12.959-12.957-12.959c-7.153,0-12.957,5.806-12.957,12.959c0,3.946,1.772,7.475,4.556,9.856
			c0.239,3.192,0.72,15.867-5.917,20.827c-7.621,5.699-13.721,7.938-13.798,16.769c-0.081,8.828,7.218,10.752,19.734,12.029
			c6.555,0.231,9.399,0.035,9.722,0.008c1.565,0.035,4.048,0.039,7.687-0.084c12.52-1.285,19.813-3.207,19.736-12.033
			C277.751,285.625,271.652,283.377,264.032,277.684z"/>
		<path fill="#2C2010" d="M246.362,308.592c-1.466,0-3.363-0.025-5.739-0.109c-11.934-1.217-21.693-3.1-21.594-13.976
			c0.072-8.211,4.964-11.582,10.632-15.495c1.243-0.855,2.568-1.767,3.939-2.789c5.444-4.076,5.383-14.814,5.198-18.394
			c-2.94-2.8-4.611-6.673-4.611-10.754c0-8.21,6.676-14.883,14.882-14.883c8.208,0,14.882,6.673,14.882,14.883
			c0,3.771-1.395,7.321-3.932,10.075c-0.41,5.632,0.25,15.314,5.164,18.986c1.379,1.032,2.698,1.938,3.947,2.803
			c5.66,3.904,10.551,7.283,10.624,15.488c0.097,10.869-9.659,12.76-21.459,13.973c-3.901,0.135-6.344,0.123-7.93,0.092
			C250.09,308.518,248.781,308.592,246.362,308.592z M249.069,236.043c-6.081,0-11.026,4.95-11.026,11.032
			c0,3.229,1.413,6.284,3.882,8.389c0.388,0.334,0.629,0.81,0.668,1.325c0.284,3.893,0.652,17.031-6.688,22.516
			c-1.414,1.061-2.775,1.996-4.059,2.879c-5.556,3.832-8.912,6.146-8.966,12.362c-0.062,6.394,3.979,8.662,18.003,10.095
			c2.192,0.077,4.044,0.104,5.479,0.104c2.297,0,3.503-0.07,3.913-0.101c0.723,0.01,1.382,0.016,2.165,0.016
			c1.433,0,3.275-0.021,5.592-0.104c13.896-1.435,17.931-3.701,17.877-10.096c-0.059-6.212-3.409-8.521-8.967-12.359
			c-1.28-0.884-2.646-1.819-4.062-2.884c-7.813-5.832-6.903-20.262-6.639-23.091c0.038-0.453,0.237-0.879,0.562-1.197
			c2.123-2.089,3.296-4.88,3.296-7.855C260.102,240.993,255.154,236.043,249.069,236.043z"/>
	</g>
</g>
</svg>
