<?xml version="1.0" encoding="utf-8"?>
<!-- Generator: Adobe Illustrator 16.0.0, SVG Export Plug-In . SVG Version: 6.00 Build 0)  -->
<!DOCTYPE svg PUBLIC "-//W3C//DTD SVG 1.1//EN" "http://www.w3.org/Graphics/SVG/1.1/DTD/svg11.dtd">
<svg version="1.1" id="Layer_1" xmlns="http://www.w3.org/2000/svg" xmlns:xlink="http://www.w3.org/1999/xlink" x="0px" y="0px"
	 width="500px" height="500px" viewBox="0 0 500 500" enable-background="new 0 0 500 500" xml:space="preserve">
<g id="Layer_1_copy_88">
	<g>
		<rect x="44.57" y="133.096" fill="#FBDEC8" width="410.194" height="213.245"/>
		<path fill="#3B2518" d="M454.765,348.469H44.57c-1.17,0-2.126-0.951-2.126-2.129V133.096c0-1.175,0.956-2.128,2.126-2.128h410.194
			c1.176,0,2.129,0.953,2.129,2.128V346.34C456.894,347.518,455.939,348.469,454.765,348.469z M46.698,344.215h405.938V135.218
			H46.698V344.215z"/>
	</g>
	<g>
		<g>
			<path fill="#EAA98B" d="M319.322,245.245c0,37.317-30.266,67.587-67.579,67.587c-37.33,0-67.591-30.271-67.591-67.587
				c0-37.335,30.261-67.593,67.591-67.593C289.057,177.652,319.322,207.91,319.322,245.245z"/>
			<path fill="#3B2518" d="M251.743,314.958c-38.438,0-69.715-31.272-69.715-69.713c0-38.443,31.276-69.72,69.715-69.72
				c38.434,0,69.707,31.277,69.707,69.72C321.45,283.686,290.177,314.958,251.743,314.958z M251.743,179.777
				c-36.099,0-65.462,29.366-65.462,65.468c0,36.096,29.363,65.46,65.462,65.46c36.091,0,65.456-29.364,65.456-65.46
				C317.199,209.144,287.834,179.777,251.743,179.777z"/>
		</g>
		<g>
			<path fill="#EAA98B" d="M136.822,241.241c0,10.981-8.904,19.875-19.885,19.875c-10.979,0-19.88-8.894-19.88-19.875
				c0-10.977,8.901-19.876,19.88-19.876C127.918,221.365,136.822,230.264,136.822,241.241z"/>
			<path fill="#3B2518" d="M116.938,263.243c-12.132,0-22.008-9.87-22.008-22.002c0-12.132,9.876-22.004,22.008-22.004
				c12.137,0,22.008,9.873,22.008,22.004C138.946,253.372,129.074,263.243,116.938,263.243z M116.938,223.486
				c-9.789,0-17.757,7.967-17.757,17.754s7.968,17.748,17.757,17.748s17.757-7.961,17.757-17.748
				C134.694,231.454,126.727,223.486,116.938,223.486z"/>
		</g>
		<g>
			<path fill="#EAA98B" d="M403.607,243.63c0,10.979-8.896,19.872-19.876,19.872c-10.991,0-19.885-8.893-19.885-19.872
				c0-10.982,8.894-19.88,19.885-19.88C394.712,223.75,403.607,232.647,403.607,243.63z"/>
			<path fill="#3B2518" d="M383.731,265.627c-12.137,0-22.009-9.868-22.009-21.998c0-12.135,9.872-22.007,22.009-22.007
				c12.134,0,22,9.872,22,22.007C405.731,255.759,395.865,265.627,383.731,265.627z M383.731,225.875
				c-9.792,0-17.758,7.966-17.758,17.755c0,9.785,7.966,17.748,17.758,17.748c9.784,0,17.749-7.963,17.749-17.748
				C401.48,233.84,393.517,225.875,383.731,225.875z"/>
		</g>
		<g>
			<path fill="#EAA98B" d="M37.147,130.048V354.29h425.704V130.048H37.147z M93.527,335.543c2.176-3.951,3.53-8.396,3.53-13.195
				c0-15.443-12.813-27.953-28.634-27.953c-4.63,0-8.949,1.166-12.826,3.08V189.183l0.051-0.05
				c3.161,1.169,6.553,1.887,10.123,1.887c15.814,0,28.633-12.523,28.633-27.982c0-4.183-1.013-8.125-2.711-11.705l0.051-0.051
				h312.549l0.039,0.037c-1.69,3.58-2.716,7.518-2.716,11.718c0,15.459,12.827,27.982,28.633,27.982
				c4.872,0,9.379-1.304,13.392-3.391l0.094,0.084v109.972l-0.094,0.082c-4.013-2.084-8.52-3.373-13.392-3.373
				c-15.806,0-28.633,12.522-28.633,27.955c0,4.832,1.372,9.305,3.569,13.271H93.606L93.527,335.543z"/>
			<path fill="#3B2518" d="M462.852,356.418H37.147c-1.173,0-2.127-0.949-2.127-2.128V130.048c0-1.175,0.954-2.126,2.127-2.126
				h425.704c1.18,0,2.128,0.951,2.128,2.126V354.29C464.979,355.469,464.03,356.418,462.852,356.418z M39.272,352.17h421.456
				V132.174H39.272V352.17z M405.188,337.746H93.606c-0.52,0-1.027-0.194-1.418-0.546c-0.735-0.66-0.999-1.812-0.524-2.679
				c2.171-3.941,3.266-8.037,3.266-12.174c0-14.238-11.889-25.83-26.506-25.83c-4.035,0-8.04,0.963-11.883,2.863
				c-0.656,0.327-1.438,0.285-2.066-0.102c-0.62-0.387-1-1.071-1-1.807v-108.29c0-0.564,0.223-1.107,0.619-1.506
				c0.588-0.587,1.513-0.827,2.295-0.539c3.144,1.165,6.306,1.756,9.383,1.756c14.617,0,26.505-11.598,26.505-25.856
				c0-3.656-0.839-7.291-2.499-10.795c-0.39-0.809-0.225-1.776,0.411-2.413c0.401-0.399,0.992-0.67,1.556-0.67h312.549
				c0.596,0,1.162,0.247,1.566,0.688c0.588,0.635,0.765,1.604,0.394,2.382c-1.665,3.521-2.509,7.16-2.509,10.808
				c0,14.259,11.889,25.856,26.505,25.856c4.214,0,8.388-1.059,12.413-3.151c0.803-0.417,1.79-0.281,2.446,0.347
				c0.421,0.406,0.747,1.044,0.747,1.624v109.972c0,0.58-0.235,1.138-0.656,1.537c-0.661,0.627-1.73,0.854-2.537,0.437
				c-4.004-2.081-8.178-3.14-12.413-3.14c-14.616,0-26.505,11.59-26.505,25.83c0,4.178,1.112,8.293,3.302,12.237
				c0.364,0.658,0.355,1.463-0.023,2.106C406.637,337.346,405.939,337.746,405.188,337.746z M96.885,333.491h304.904
				c-1.527-3.614-2.297-7.351-2.297-11.144c0-16.588,13.797-30.08,30.757-30.08c3.864,0,7.664,0.746,11.354,2.228V190.906
				c-3.698,1.488-7.505,2.24-11.354,2.24c-16.96,0-30.757-13.509-30.757-30.108c0-3.245,0.562-6.473,1.682-9.627H94.851
				c1.119,3.148,1.679,6.376,1.679,9.627c0,16.6-13.798,30.108-30.758,30.108c-2.656,0-5.354-0.374-8.046-1.114v102.207
				c3.484-1.31,7.071-1.972,10.698-1.972c16.96,0,30.757,13.492,30.757,30.08C99.181,326.129,98.409,329.866,96.885,333.491z"/>
		</g>
	</g>
	<g>
		<g>
			<path fill="#FBDEC8" d="M238.873,234.906v-5.101c3.677,0,6.867-0.997,9.565-2.987c2.91-2.181,4.503-5.102,4.779-8.759h3.795
				v58.531h-5.607v-41.684H238.873z"/>
			<path fill="#FBDEC8" d="M259.141,278.714h-9.858v-41.682h-12.538v-9.354h2.13c3.242,0,5.961-0.843,8.301-2.57
				c2.409-1.802,3.693-4.164,3.927-7.208l0.147-1.967h7.894v62.781H259.141z M253.533,274.464h1.351V220.97
				c-0.793,3.037-2.528,5.569-5.173,7.553c-2.524,1.868-5.446,2.972-8.71,3.302v0.955h12.532V274.464L253.533,274.464z"/>
		</g>
		<g>
			<path fill="#FBDEC8" d="M268.639,247.326c0-8.023,1.588-14.858,4.771-20.508c3.565-6.286,8.228-9.433,13.983-9.433
				c5.76,0,10.422,3.146,13.987,9.433c3.177,5.65,4.769,12.485,4.769,20.508c0,8.021-1.592,14.857-4.769,20.504
				c-3.565,6.29-8.228,9.436-13.987,9.436c-5.757,0-10.418-3.146-13.983-9.436C270.227,262.184,268.639,255.348,268.639,247.326z
				 M274.244,247.326c0,6.416,1.042,11.809,3.133,16.169c2.363,5.073,5.715,7.606,10.057,7.606c4.291,0,7.642-2.533,10.062-7.606
				c2.028-4.36,3.051-9.753,3.051-16.169c0-6.417-1.021-11.808-3.051-16.174c-2.422-5.068-5.771-7.605-10.062-7.605
				c-4.342,0-7.692,2.538-10.057,7.605C275.286,235.518,274.244,240.908,274.244,247.326z"/>
			<path fill="#FBDEC8" d="M287.393,279.391c-6.553,0-11.875-3.537-15.834-10.513c-3.348-5.944-5.051-13.192-5.051-21.553
				s1.703-15.61,5.047-21.549c3.963-6.978,9.285-10.517,15.838-10.517c6.555,0,11.881,3.539,15.836,10.515
				c3.351,5.943,5.05,13.194,5.05,21.551c0,8.354-1.699,15.604-5.045,21.547C299.272,275.854,293.945,279.391,287.393,279.391z
				 M287.393,219.511c-4.979,0-8.945,2.736-12.131,8.358c-2.984,5.292-4.496,11.838-4.496,19.457c0,7.615,1.512,14.165,4.496,19.459
				c3.186,5.619,7.151,8.354,12.131,8.354c4.982,0,8.95-2.732,12.137-8.355c2.984-5.295,4.497-11.844,4.497-19.456
				c0-7.618-1.513-14.163-4.501-19.462C296.343,222.247,292.375,219.511,287.393,219.511z M287.434,273.227
				c-5.223,0-9.256-2.97-11.981-8.832c-2.211-4.609-3.335-10.359-3.335-17.068s1.124-12.461,3.343-17.091
				c2.724-5.841,6.752-8.814,11.976-8.814c5.157,0,9.188,2.965,11.979,8.818c2.165,4.645,3.255,10.388,3.255,17.087
				c0,6.701-1.09,12.443-3.247,17.07C296.621,270.261,292.592,273.227,287.434,273.227z M287.434,225.672
				c-3.471,0-6.127,2.083-8.132,6.381c-1.946,4.072-2.935,9.204-2.935,15.272c0,6.065,0.988,11.198,2.927,15.252
				c2.008,4.312,4.669,6.399,8.14,6.399c3.428,0,6.092-2.095,8.142-6.396c1.885-4.046,2.847-9.185,2.847-15.257
				c0-6.075-0.962-11.212-2.854-15.272C293.521,227.766,290.859,225.672,287.434,225.672z"/>
		</g>
	</g>
	<path fill="#FBDEC8" d="M233.641,217.528c-0.848,2.202-2.359,3.752-3.409,5.756c-0.314-0.014-9.381-0.214-9.381-0.214
		c0.48,0.479,1.492,2.016,2.134,3.415c0.347,0.756,0.445,1.633,0.636,2.556c3.342,0,6.682,0,10.021,0
		c-1.05,2.004-3.624,5.544-3.624,5.544c-2.128,0-4.261,0-6.396,0c-1.852,8.805-8.532,12.784-17.904,14.068
		c6.317,8.816,14.027,18.088,20.891,27.078c-3.127,0-6.252,0-9.38,0c-6.863-8.914-14.037-17.52-20.896-26.435
		c-0.141-1.917,0.19-3.366,0.219-5.12c9.807,1.01,18.096-1.188,19.183-9.59l-20.894-0.216c1.021-2.039,2.221-3.89,3.41-5.756
		c5.637-0.089,10.71,0.378,16.421,0.213c-1.976-5.771-11.591-5.75-20.256-5.542c0-0.072,0-0.143,0-0.214
		c1.596-1.534,4.054-5.329,4.054-5.329C206.141,217.6,230.302,217.528,233.641,217.528z"/>
</g>
</svg>
