<?xml version="1.0" encoding="utf-8"?>
<!-- Generator: Adobe Illustrator 16.0.0, SVG Export Plug-In . SVG Version: 6.00 Build 0)  -->
<!DOCTYPE svg PUBLIC "-//W3C//DTD SVG 1.1//EN" "http://www.w3.org/Graphics/SVG/1.1/DTD/svg11.dtd">
<svg version="1.1" id="Layer_1" xmlns="http://www.w3.org/2000/svg" xmlns:xlink="http://www.w3.org/1999/xlink" x="0px" y="0px"
	 width="500px" height="500px" viewBox="0 0 500 500" enable-background="new 0 0 500 500" xml:space="preserve">
<g id="Layer_1_copy_82">
	<g>
		<rect x="33.575" y="144.526" fill="#F5EACB" width="432.148" height="224.666"/>
		<path fill="#3B2518" d="M465.725,371.43H33.575c-1.238,0-2.239-1.003-2.239-2.238V144.526c0-1.236,1.001-2.242,2.239-2.242
			h432.148c1.236,0,2.239,1.005,2.239,2.242v224.666C467.964,370.427,466.961,371.43,465.725,371.43z M35.815,366.948h427.67
			V146.766H35.815V366.948z"/>
	</g>
	<g>
		<g>
			<path fill="#A7B696" d="M323.032,262.68c0,39.315-31.884,71.206-71.201,71.206c-39.317,0-71.203-31.891-71.203-71.206
				c0-39.336,31.886-71.21,71.203-71.21C291.148,191.47,323.032,223.344,323.032,262.68z"/>
			<path fill="#3B2518" d="M251.831,336.123c-40.499,0-73.445-32.946-73.445-73.443c0-40.498,32.946-73.451,73.445-73.451
				c40.497,0,73.445,32.953,73.445,73.451C325.276,303.176,292.328,336.123,251.831,336.123z M251.831,193.709
				c-38.022,0-68.964,30.94-68.964,68.971c0,38.027,30.941,68.965,68.964,68.965c38.024,0,68.962-30.938,68.962-68.965
				C320.793,224.65,289.855,193.709,251.831,193.709z"/>
		</g>
		<g>
			<path fill="#A7B696" d="M130.758,258.463c0,11.569-9.38,20.938-20.944,20.938c-11.563,0-20.944-9.367-20.944-20.938
				c0-11.57,9.381-20.944,20.944-20.944C121.378,237.519,130.758,246.894,130.758,258.463z"/>
			<path fill="#3B2518" d="M109.813,281.641c-12.784,0-23.188-10.396-23.188-23.178c0-12.784,10.403-23.184,23.188-23.184
				s23.184,10.399,23.184,23.184C132.997,271.245,122.599,281.641,109.813,281.641z M109.813,239.76
				c-10.315,0-18.705,8.389-18.705,18.703c0,10.311,8.39,18.699,18.705,18.699c10.312,0,18.705-8.389,18.705-18.699
				C128.519,248.149,120.126,239.76,109.813,239.76z"/>
		</g>
		<g>
			<path fill="#A7B696" d="M411.83,260.975c0,11.57-9.377,20.94-20.944,20.94c-11.575,0-20.944-9.37-20.944-20.94
				c0-11.57,9.369-20.939,20.944-20.939C402.453,240.035,411.83,249.405,411.83,260.975z"/>
			<path fill="#3B2518" d="M390.886,284.156c-12.785,0-23.185-10.396-23.185-23.182c0-12.78,10.398-23.18,23.185-23.18
				c12.784,0,23.185,10.399,23.185,23.18C414.069,273.76,403.67,284.156,390.886,284.156z M390.886,242.276
				c-10.312,0-18.7,8.389-18.7,18.699c0,10.312,8.389,18.702,18.7,18.702c10.312,0,18.705-8.392,18.705-18.702
				C409.591,250.665,401.197,242.276,390.886,242.276z"/>
		</g>
		<g>
			<path fill="#A7B696" d="M25.752,141.314v236.252h448.496V141.314H25.752z M85.148,357.812c2.291-4.162,3.721-8.849,3.721-13.901
				c0-16.271-13.507-29.452-30.162-29.452c-4.881,0-9.432,1.229-13.516,3.248v-114.09l0.052-0.053
				c3.325,1.232,6.899,1.988,10.671,1.988c16.656,0,30.159-13.193,30.159-29.479c0-4.409-1.066-8.56-2.852-12.33l0.051-0.053h329.28
				l0.039,0.039c-1.781,3.772-2.858,7.919-2.858,12.344c0,16.287,13.516,29.479,30.166,29.479c5.132,0,9.882-1.372,14.107-3.568
				l0.095,0.087v115.856l-0.095,0.09c-4.227-2.197-8.977-3.56-14.107-3.56c-16.65,0-30.166,13.196-30.166,29.452
				c0,5.091,1.44,9.807,3.765,13.98H85.23L85.148,357.812z"/>
			<path fill="#3B2518" d="M474.248,379.807H25.752c-1.235,0-2.239-1.004-2.239-2.24V141.314c0-1.234,1.004-2.239,2.239-2.239
				h448.496c1.236,0,2.239,1.005,2.239,2.239v236.252C476.487,378.803,475.484,379.807,474.248,379.807z M27.991,375.328h444.014
				V143.556H27.991V375.328z M413.497,360.13H85.23c-0.551,0-1.081-0.202-1.491-0.573c-0.774-0.695-1.055-1.906-0.554-2.824
				c2.282-4.146,3.44-8.463,3.44-12.821c0-15.003-12.52-27.212-27.919-27.212c-4.262,0-8.476,1.018-12.523,3.015
				c-0.696,0.349-1.521,0.302-2.177-0.104c-0.65-0.409-1.06-1.127-1.06-1.901v-114.09c0-0.596,0.237-1.167,0.661-1.586
				c0.62-0.618,1.591-0.877,2.413-0.568c3.309,1.229,6.64,1.848,9.893,1.848c15.392,0,27.92-12.218,27.92-27.238
				c0-3.856-0.889-7.681-2.639-11.372c-0.406-0.854-0.226-1.873,0.438-2.544c0.422-0.419,1.047-0.709,1.639-0.709h329.28
				c0.628,0,1.229,0.265,1.646,0.729c0.62,0.67,0.806,1.689,0.42,2.508c-1.758,3.713-2.647,7.544-2.647,11.389
				c0,15.02,12.529,27.238,27.928,27.238c4.436,0,8.835-1.115,13.073-3.313c0.842-0.441,1.863-0.298,2.562,0.344
				c0.455,0.424,0.807,1.107,0.807,1.73v115.857c0,0.609-0.248,1.196-0.69,1.618c-0.694,0.659-1.823,0.896-2.678,0.456
				c-4.215-2.193-8.614-3.305-13.073-3.305c-15.397,0-27.928,12.209-27.928,27.212c0,4.399,1.17,8.739,3.479,12.892
				c0.388,0.693,0.376,1.539-0.027,2.223C415.024,359.712,414.287,360.13,413.497,360.13z M88.685,355.652h321.227
				c-1.604-3.812-2.418-7.75-2.418-11.741c0-17.476,14.534-31.69,32.405-31.69c4.064,0,8.073,0.789,11.964,2.348V205.435
				c-3.901,1.564-7.911,2.356-11.964,2.356c-17.871,0-32.405-14.229-32.405-31.719c0-3.42,0.592-6.817,1.77-10.144H86.544
				c1.173,3.317,1.769,6.716,1.769,10.144c0,17.491-14.534,31.719-32.398,31.719c-2.808,0-5.647-0.396-8.482-1.171v107.676
				c3.676-1.379,7.452-2.075,11.275-2.075c17.863,0,32.401,14.215,32.401,31.689C91.108,347.895,90.295,351.833,88.685,355.652z"/>
		</g>
	</g>
	<g>
		<g>
			<path fill="#F5EACB" d="M219.697,272.4h4.621c0,2.699,1.02,4.918,3.061,6.666c1.9,1.584,4.163,2.377,6.789,2.377
				c2.81,0,5.209-1.032,7.2-3.092c2.081-2.115,3.128-4.707,3.128-7.774c0-3.226-1.023-5.946-3.056-8.168
				c-2.043-2.22-4.463-3.329-7.272-3.329c-1.812,0-3.534,0.396-5.162,1.189c-1.627,0.846-3.013,2.062-4.143,3.646h-4.688
				l4.143-24.984h21.671v5.397h-17.527l-2.034,12.37c0.813-1.161,1.97-1.981,3.464-2.458c1.129-0.371,2.555-0.558,4.276-0.558
				c4.076,0,7.588,1.644,10.53,4.918c2.942,3.28,4.419,7.271,4.419,11.977c0,4.551-1.501,8.408-4.486,11.582
				c-2.899,3.117-6.387,4.678-10.463,4.678c-3.894,0-7.247-1.322-10.051-3.968C221.175,280.068,219.697,276.581,219.697,272.4z"/>
			<path fill="#F5EACB" d="M234.168,287.396c-4.023,0-7.535-1.385-10.438-4.121c-3.044-2.897-4.59-6.557-4.59-10.875v-0.559h5.739
				v0.559c0,2.549,0.933,4.593,2.858,6.24c1.787,1.486,3.955,2.242,6.431,2.242c2.675,0,4.898-0.953,6.798-2.925
				c1.972-1.998,2.969-4.479,2.969-7.382c0-3.062-0.978-5.686-2.91-7.788c-1.946-2.121-4.186-3.149-6.856-3.149
				c-1.717,0-3.373,0.379-4.918,1.133c-1.527,0.797-2.857,1.965-3.928,3.471l-0.172,0.236h-5.634l4.328-26.105h22.705v6.515h-17.61
				l-1.662,10.096c0.69-0.553,1.507-0.979,2.444-1.276c1.18-0.385,2.678-0.582,4.446-0.582c4.224,0,7.903,1.715,10.948,5.103
				c3.022,3.371,4.559,7.525,4.559,12.351c0,4.676-1.56,8.701-4.638,11.967C242.044,285.762,238.387,287.396,234.168,287.396z
				 M220.27,272.96c0.131,3.758,1.549,6.955,4.234,9.506c2.679,2.528,5.936,3.81,9.664,3.81c3.895,0,7.279-1.512,10.051-4.498
				c2.88-3.053,4.333-6.822,4.333-11.2c0-4.54-1.437-8.444-4.273-11.603c-2.814-3.138-6.22-4.73-10.11-4.73
				c-1.651,0-3.033,0.178-4.104,0.529c-1.369,0.438-2.439,1.192-3.183,2.244l-1.007-0.412l2.117-12.839h17.437v-4.276h-20.633
				l-3.961,23.867h3.745c1.145-1.539,2.546-2.742,4.17-3.586c1.71-0.832,3.531-1.254,5.418-1.254c2.959,0,5.542,1.181,7.682,3.515
				c2.13,2.315,3.204,5.19,3.204,8.545c0,3.208-1.106,5.952-3.282,8.166c-2.094,2.166-4.653,3.262-7.604,3.262
				c-2.748,0-5.153-0.845-7.148-2.507c-2.021-1.732-3.107-3.93-3.246-6.537L220.27,272.96L220.27,272.96z"/>
		</g>
		<g>
			<path fill="#F5EACB" d="M251.491,262.729c0-6.61,1.311-12.244,3.931-16.897c2.941-5.18,6.78-7.77,11.523-7.77
				c4.746,0,8.584,2.59,11.521,7.77c2.622,4.654,3.934,10.287,3.934,16.897c0,6.608-1.312,12.237-3.934,16.893
				c-2.938,5.184-6.773,7.771-11.521,7.771c-4.743,0-8.582-2.588-11.523-7.771C252.802,274.966,251.491,269.337,251.491,262.729z
				 M256.109,262.729c0,5.285,0.858,9.726,2.582,13.321c1.941,4.181,4.711,6.267,8.285,6.267c3.535,0,6.299-2.086,8.289-6.267
				c1.678-3.597,2.518-8.036,2.518-13.321c0-5.287-0.84-9.73-2.518-13.326c-1.99-4.177-4.754-6.266-8.289-6.266
				c-3.574,0-6.344,2.089-8.285,6.266C256.969,252.998,256.109,257.441,256.109,262.729z"/>
			<path fill="#F5EACB" d="M266.945,287.953c-4.938,0-8.979-2.711-12.01-8.057c-2.658-4.717-4.006-10.492-4.006-17.168
				c0-6.677,1.348-12.455,4.006-17.167c3.031-5.35,7.072-8.059,12.01-8.059c4.938,0,8.978,2.709,12.011,8.055
				c2.657,4.72,4.006,10.496,4.006,17.171c0,6.672-1.349,12.447-4.006,17.168C275.923,285.242,271.884,287.953,266.945,287.953z
				 M266.945,238.621c-4.564,0-8.176,2.449-11.034,7.488c-2.563,4.543-3.858,10.136-3.858,16.62c0,6.478,1.295,12.072,3.858,16.613
				c2.858,5.042,6.47,7.49,11.034,7.49c4.568,0,8.176-2.448,11.035-7.49c2.562-4.545,3.862-10.137,3.862-16.613
				c0-6.482-1.3-12.071-3.862-16.622C275.121,241.07,271.514,238.621,266.945,238.621z M266.979,282.876
				c-3.801,0-6.758-2.216-8.797-6.591c-1.746-3.65-2.634-8.213-2.634-13.557c0-5.345,0.888-9.91,2.638-13.569
				c2.039-4.366,4.998-6.584,8.793-6.584c3.756,0,6.709,2.218,8.795,6.588c1.705,3.657,2.566,8.221,2.566,13.565
				c0,5.342-0.861,9.902-2.566,13.557C273.691,280.661,270.732,282.876,266.979,282.876z M266.979,243.696
				c-3.369,0-5.918,1.943-7.78,5.944c-1.679,3.512-2.528,7.911-2.528,13.088c0,5.174,0.852,9.576,2.528,13.084
				c1.862,4,4.405,5.94,7.78,5.94c3.328,0,5.877-1.942,7.785-5.94c1.629-3.504,2.454-7.908,2.454-13.084
				c0-5.178-0.825-9.58-2.46-13.088C272.854,245.643,270.307,243.696,266.979,243.696z"/>
		</g>
		<g>
			<path fill="#F5EACB" d="M284.098,262.729c0-6.61,1.309-12.244,3.932-16.897c2.938-5.18,6.779-7.77,11.523-7.77
				s8.583,2.59,11.522,7.77c2.62,4.654,3.932,10.287,3.932,16.897c0,6.608-1.312,12.237-3.932,16.893
				c-2.939,5.184-6.778,7.771-11.522,7.771s-8.585-2.588-11.523-7.771C285.404,274.966,284.098,269.337,284.098,262.729z
				 M288.716,262.729c0,5.285,0.861,9.726,2.583,13.321c1.942,4.181,4.708,6.267,8.286,6.267c3.534,0,6.296-2.086,8.289-6.267
				c1.676-3.597,2.513-8.036,2.513-13.321c0-5.287-0.837-9.73-2.513-13.326c-1.993-4.177-4.755-6.266-8.289-6.266
				c-3.578,0-6.344,2.089-8.286,6.266C289.577,252.998,288.716,257.441,288.716,262.729z"/>
			<path fill="#F5EACB" d="M299.553,287.953c-4.938,0-8.98-2.711-12.01-8.057c-2.654-4.713-4.001-10.488-4.001-17.168
				c0-6.683,1.347-12.458,4.001-17.167c3.027-5.35,7.07-8.059,12.01-8.059c4.938,0,8.978,2.709,12.007,8.055
				c2.661,4.72,4.01,10.496,4.01,17.171c0,6.672-1.349,12.447-4.01,17.168C308.529,285.242,304.49,287.953,299.553,287.953z
				 M299.553,238.621c-4.568,0-8.18,2.449-11.035,7.488c-2.559,4.542-3.857,10.134-3.857,16.62c0,6.483,1.3,12.073,3.857,16.613
				c2.855,5.042,6.467,7.49,11.035,7.49c4.566,0,8.176-2.448,11.03-7.49c2.563-4.545,3.863-10.137,3.863-16.613
				c0-6.482-1.3-12.071-3.863-16.622C307.729,241.07,304.119,238.621,299.553,238.621z M299.585,282.876
				c-3.799,0-6.758-2.216-8.796-6.591c-1.747-3.646-2.635-8.209-2.635-13.557c0-5.351,0.888-9.914,2.638-13.569
				c2.035-4.366,4.994-6.584,8.793-6.584c3.752,0,6.709,2.218,8.792,6.588c1.705,3.664,2.57,8.221,2.57,13.565
				c0,5.338-0.865,9.902-2.566,13.557C306.294,280.661,303.337,282.876,299.585,282.876z M299.585,243.696
				c-3.37,0-5.916,1.943-7.78,5.944c-1.679,3.506-2.529,7.907-2.529,13.088c0,5.176,0.852,9.58,2.524,13.078
				c1.869,4.006,4.412,5.946,7.785,5.946c3.332,0,5.876-1.942,7.784-5.94c1.627-3.504,2.461-7.908,2.461-13.084
				c0-5.178-0.834-9.576-2.461-13.088C305.458,245.643,302.914,243.696,299.585,243.696z"/>
		</g>
	</g>
	<path fill="#F5EACB" d="M220.725,238.171c-0.703,1.817-1.944,3.094-2.812,4.745c-0.257-0.011-7.727-0.178-7.727-0.178
		c0.396,0.399,1.229,1.661,1.753,2.812c0.29,0.626,0.368,1.349,0.531,2.105c2.748,0,5.505,0,8.254,0
		c-0.869,1.654-2.986,4.572-2.986,4.572c-1.757,0-3.51,0-5.268,0c-1.525,7.262-7.031,10.539-14.757,11.598
		c5.211,7.265,11.566,14.904,17.218,22.31c-2.58,0-5.155,0-7.731,0c-5.654-7.346-11.563-14.434-17.215-21.776
		c-0.115-1.58,0.158-2.777,0.178-4.219c8.08,0.832,14.909-0.981,15.805-7.912l-17.211-0.174c0.837-1.68,1.829-3.213,2.812-4.747
		c4.642-0.071,8.819,0.312,13.522,0.176c-1.624-4.758-9.549-4.74-16.687-4.566c0-0.061,0-0.117,0-0.178
		c1.312-1.262,3.338-4.39,3.338-4.39C198.069,238.233,217.976,238.171,220.725,238.171z"/>
</g>
</svg>
