<?xml version="1.0" encoding="utf-8"?>
<!-- Generator: Adobe Illustrator 16.0.0, SVG Export Plug-In . SVG Version: 6.00 Build 0)  -->
<!DOCTYPE svg PUBLIC "-//W3C//DTD SVG 1.1//EN" "http://www.w3.org/Graphics/SVG/1.1/DTD/svg11.dtd">
<svg version="1.1" id="Layer_1" xmlns="http://www.w3.org/2000/svg" xmlns:xlink="http://www.w3.org/1999/xlink" x="0px" y="0px"
	 width="500px" height="500px" viewBox="0 0 500 500" enable-background="new 0 0 500 500" xml:space="preserve">
<g id="Layer_1_copy_86">
	<g>
		<rect x="38.1" y="127.371" fill="#F8A99D" width="424.29" height="220.577"/>
		<path fill="#3B2518" d="M462.39,350.146H38.1c-1.212,0-2.199-0.982-2.199-2.198V127.371c0-1.215,0.987-2.199,2.199-2.199h424.29
			c1.217,0,2.2,0.984,2.2,2.199v220.577C464.59,349.164,463.605,350.146,462.39,350.146z M40.299,345.749h419.894V129.57H40.299
			V345.749z"/>
	</g>
	<g>
		<g>
			<path fill="#DF352D" d="M322.298,243.375c0,38.6-31.31,69.909-69.909,69.909c-38.61,0-69.909-31.31-69.909-69.909
				c0-38.62,31.299-69.914,69.909-69.914C290.988,173.461,322.298,204.755,322.298,243.375z"/>
			<path fill="#3B2518" d="M252.389,315.482c-39.763,0-72.107-32.349-72.107-72.107c0-39.762,32.346-72.112,72.107-72.112
				c39.758,0,72.106,32.35,72.106,72.112C324.495,283.134,292.146,315.482,252.389,315.482z M252.389,175.661
				c-37.339,0-67.71,30.375-67.71,67.714c0,37.334,30.372,67.711,67.71,67.711c37.336,0,67.707-30.377,67.707-67.711
				C320.096,206.036,289.725,175.661,252.389,175.661z"/>
		</g>
		<g>
			<path fill="#DF352D" d="M133.519,239.235c0,11.358-9.21,20.556-20.566,20.556c-11.354,0-20.562-9.198-20.562-20.556
				c0-11.359,9.208-20.562,20.562-20.562C124.309,218.673,133.519,227.876,133.519,239.235z"/>
			<path fill="#3B2518" d="M112.952,261.991c-12.55,0-22.762-10.206-22.762-22.755c0-12.553,10.212-22.762,22.762-22.762
				c12.551,0,22.766,10.209,22.766,22.762C135.718,251.785,125.503,261.991,112.952,261.991z M112.952,220.871
				c-10.125,0-18.362,8.238-18.362,18.364c0,10.123,8.237,18.357,18.362,18.357c10.13,0,18.367-8.234,18.367-18.357
				C131.319,229.109,123.082,220.871,112.952,220.871z"/>
		</g>
		<g>
			<path fill="#DF352D" d="M409.475,241.704c0,11.354-9.201,20.557-20.56,20.557c-11.367,0-20.563-9.202-20.563-20.557
				c0-11.359,9.196-20.563,20.563-20.563C400.272,221.14,409.475,230.345,409.475,241.704z"/>
			<path fill="#3B2518" d="M388.915,264.459c-12.551,0-22.763-10.209-22.763-22.756c0-12.55,10.212-22.762,22.763-22.762
				c12.549,0,22.758,10.212,22.758,22.762C411.673,254.25,401.464,264.459,388.915,264.459z M388.915,223.34
				c-10.127,0-18.365,8.237-18.365,18.364c0,10.119,8.238,18.356,18.365,18.356c10.122,0,18.359-8.237,18.359-18.356
				C407.274,231.577,399.037,223.34,388.915,223.34z"/>
		</g>
		<g>
			<path fill="#DF352D" d="M30.421,124.219v231.953h440.334V124.219H30.421z M88.737,336.779c2.252-4.088,3.652-8.688,3.652-13.65
				c0-15.977-13.258-28.915-29.615-28.915c-4.792,0-9.261,1.204-13.269,3.187V185.387l0.052-0.052
				c3.267,1.208,6.774,1.951,10.476,1.951c16.354,0,29.611-12.954,29.611-28.942c0-4.33-1.046-8.407-2.804-12.109l0.052-0.048
				h323.292l0.037,0.038c-1.75,3.701-2.806,7.775-2.806,12.119c0,15.988,13.268,28.942,29.615,28.942c5.04,0,9.7-1.347,13.854-3.504
				l0.093,0.086v113.75l-0.093,0.086c-4.153-2.158-8.813-3.49-13.854-3.49c-16.349,0-29.615,12.953-29.615,28.915
				c0,4.998,1.415,9.628,3.693,13.727H88.824L88.737,336.779z"/>
			<path fill="#3B2518" d="M470.755,358.371H30.421c-1.216,0-2.2-0.984-2.2-2.199V124.219c0-1.211,0.984-2.199,2.2-2.199h440.334
				c1.22,0,2.204,0.988,2.204,2.199v231.953C472.959,357.386,471.975,358.371,470.755,358.371z M32.62,353.973H468.56V126.418H32.62
				V353.973z M411.11,339.055H88.824c-0.543,0-1.068-0.201-1.473-0.562c-0.759-0.686-1.035-1.876-0.541-2.771
				c2.244-4.074,3.38-8.312,3.38-12.592c0-14.729-12.302-26.716-27.416-26.716c-4.181,0-8.318,0.994-12.295,2.958
				c-0.68,0.339-1.488,0.297-2.134-0.104c-0.645-0.4-1.039-1.107-1.039-1.867V185.387c0-0.583,0.235-1.143,0.646-1.557
				c0.604-0.608,1.561-0.856,2.368-0.556c3.256,1.206,6.52,1.813,9.713,1.813c15.114,0,27.412-11.995,27.412-26.743
				c0-3.785-0.87-7.541-2.589-11.166c-0.397-0.839-0.228-1.84,0.431-2.496c0.412-0.411,1.025-0.694,1.605-0.694h323.292
				c0.618,0,1.204,0.255,1.618,0.711c0.607,0.657,0.79,1.657,0.408,2.465c-1.723,3.643-2.598,7.406-2.598,11.18
				c0,14.748,12.3,26.743,27.418,26.743c4.358,0,8.679-1.095,12.839-3.256c0.821-0.428,1.83-0.297,2.514,0.342
				c0.445,0.415,0.792,1.084,0.792,1.695v113.75c0,0.601-0.246,1.177-0.682,1.591c-0.685,0.646-1.791,0.881-2.624,0.45
				c-4.139-2.155-8.463-3.246-12.839-3.246c-15.118,0-27.418,11.985-27.418,26.716c0,4.322,1.149,8.578,3.415,12.659
				c0.381,0.68,0.373,1.509-0.023,2.183C412.611,338.641,411.89,339.055,411.11,339.055z M92.211,334.656h315.381
				c-1.578-3.743-2.372-7.605-2.372-11.527c0-17.156,14.271-31.115,31.812-31.115c3.994,0,7.931,0.774,11.745,2.305V187.171
				c-3.829,1.537-7.767,2.313-11.745,2.313c-17.543,0-31.812-13.969-31.812-31.141c0-3.356,0.584-6.695,1.737-9.958H90.106
				c1.154,3.256,1.737,6.591,1.737,9.958c0,17.172-14.272,31.141-31.811,31.141c-2.756,0-5.541-0.387-8.327-1.149v105.716
				c3.607-1.354,7.315-2.037,11.068-2.037c17.542,0,31.815,13.959,31.815,31.114C94.59,327.043,93.791,330.906,92.211,334.656z"/>
		</g>
	</g>
	<g>
		<g>
			<path fill="#F8A99D" d="M240.011,265.941c0-5.125,1.637-9.926,4.917-14.4c2.672-3.712,6.404-7.188,11.2-10.427
				c3.226-2.175,5.599-4.119,7.111-5.828c2.168-2.593,3.257-5.362,3.257-8.304c0-2.769-1.036-5.068-3.107-6.895
				c-1.965-1.647-4.283-2.472-6.961-2.472c-2.771,0-5.141,1.091-7.108,3.27c-2.021,2.237-3.028,4.947-3.028,8.127v3.356h-5.147
				v-3.356c0-4.83,1.516-8.953,4.541-12.367c2.975-3.359,6.56-5.034,10.744-5.034c4.088,0,7.619,1.412,10.596,4.24
				c3.076,3,4.615,6.711,4.615,11.13c0,3.888-1.211,7.54-3.632,10.955c-2.02,2.824-4.819,5.445-8.403,7.858l-1.584,1.063
				c-6.76,4.475-10.467,8.834-11.125,13.075h24.745v6.008h-31.629V265.941z"/>
			<path fill="#F8A99D" d="M273.839,268.139h-36.027v-2.197c0-5.58,1.796-10.862,5.342-15.704
				c2.803-3.891,6.757-7.578,11.743-10.945c3.071-2.075,5.323-3.915,6.696-5.465c1.806-2.158,2.703-4.416,2.703-6.846
				c0-2.126-0.772-3.843-2.36-5.245c-1.533-1.281-3.35-1.923-5.508-1.923c-2.141,0-3.932,0.832-5.479,2.544
				c-1.654,1.837-2.458,4.012-2.458,6.653v5.555h-9.547v-5.555c0-5.358,1.717-10.009,5.097-13.828
				c3.397-3.833,7.562-5.773,12.387-5.773c4.651,0,8.727,1.626,12.109,4.845c3.527,3.442,5.302,7.716,5.302,12.726
				c0,4.336-1.36,8.448-4.039,12.226c-2.169,3.035-5.183,5.862-8.966,8.414l-1.593,1.063c-4.765,3.155-7.888,6.187-9.331,9.05
				h23.929V268.139L273.839,268.139z M242.324,263.741h27.115v-1.609H244.33l0.391-2.532c0.763-4.932,4.712-9.695,12.083-14.577
				l1.578-1.053c3.342-2.251,5.977-4.712,7.836-7.312c2.165-3.055,3.223-6.225,3.223-9.674c0-3.836-1.291-6.96-3.953-9.56
				c-2.555-2.424-5.524-3.611-9.061-3.611c-3.56,0-6.536,1.401-9.097,4.294c-2.684,3.028-3.987,6.599-3.987,10.907v1.156h0.748
				v-1.156c0-3.726,1.209-6.958,3.591-9.598c2.396-2.655,5.338-3.999,8.745-3.999c3.19,0,6.008,1.005,8.377,2.99
				c2.596,2.29,3.891,5.163,3.891,8.577c0,3.459-1.268,6.729-3.77,9.715c-1.679,1.899-4.141,3.922-7.568,6.238
				c-4.555,3.08-8.134,6.405-10.645,9.888C244.199,256.256,242.729,259.916,242.324,263.741z"/>
		</g>
		<g>
			<path fill="#F8A99D" d="M277.938,239.083c0-7.36,1.459-13.634,4.381-18.819c3.271-5.766,7.548-8.652,12.834-8.652
				c5.285,0,9.562,2.886,12.837,8.652c2.92,5.186,4.381,11.459,4.381,18.819c0,7.361-1.461,13.638-4.381,18.815
				c-3.274,5.773-7.552,8.66-12.837,8.66c-5.286,0-9.563-2.887-12.834-8.66C279.396,252.721,277.938,246.444,277.938,239.083z
				 M283.084,239.083c0,5.89,0.957,10.837,2.873,14.842c2.168,4.654,5.248,6.979,9.234,6.979c3.934,0,7.011-2.324,9.229-6.979
				c1.866-4.005,2.802-8.952,2.802-14.842s-0.936-10.833-2.802-14.839c-2.218-4.654-5.295-6.98-9.229-6.98
				c-3.986,0-7.066,2.327-9.234,6.98C284.041,228.25,283.084,233.193,283.084,239.083z"/>
			<path fill="#F8A99D" d="M295.15,268.757c-6.113,0-11.071-3.286-14.744-9.774c-3.098-5.492-4.668-12.187-4.668-19.899
				c0-7.709,1.57-14.403,4.662-19.896c3.679-6.491,8.64-9.775,14.75-9.775s11.072,3.284,14.75,9.771
				c3.098,5.497,4.668,12.191,4.668,19.9c0,7.713-1.57,14.407-4.665,19.897C306.224,265.471,301.262,268.757,295.15,268.757z
				 M295.15,213.811c-4.471,0-8.043,2.465-10.92,7.541c-2.717,4.819-4.096,10.789-4.096,17.731c0,6.946,1.379,12.917,4.1,17.737
				c2.873,5.072,6.445,7.539,10.916,7.539c4.476,0,8.046-2.467,10.925-7.545c2.717-4.814,4.094-10.786,4.094-17.731
				c0-6.943-1.377-12.912-4.097-17.739C303.196,216.276,299.622,213.811,295.15,213.811z M295.191,263.102
				c-3.368,0-8.049-1.429-11.228-8.244c-2.04-4.271-3.082-9.583-3.082-15.774c0-6.19,1.042-11.503,3.091-15.788
				c3.17-6.801,7.851-8.231,11.219-8.231c4.835,0,8.606,2.769,11.215,8.231c2.003,4.305,3.015,9.612,3.015,15.788
				c0,6.181-1.012,11.483-3.004,15.771C303.799,260.333,300.029,263.102,295.191,263.102z M295.191,219.463
				c-3.082,0-5.45,1.868-7.243,5.707c-1.773,3.711-2.669,8.387-2.669,13.914c0,5.531,0.896,10.206,2.662,13.896
				c1.8,3.856,4.168,5.726,7.25,5.726c3.034,0,5.407-1.876,7.243-5.726c1.714-3.684,2.587-8.365,2.587-13.896
				c0-5.534-0.873-10.212-2.594-13.914C300.596,221.333,298.227,219.463,295.191,219.463z"/>
		</g>
	</g>
	<g>
		<path fill="#F8A99D" d="M235.558,209.65c-0.885,2.282-2.444,3.881-3.528,5.956c-0.324-0.017-9.702-0.221-9.702-0.221
			c0.494,0.497,1.539,2.085,2.203,3.528c0.358,0.788,0.462,1.692,0.663,2.648c3.453,0,6.907,0,10.364,0
			c-1.091,2.071-3.749,5.731-3.749,5.731c-2.206,0-4.412,0-6.615,0c-1.916,9.111-8.829,13.223-18.526,14.553
			c6.539,9.118,14.518,18.712,21.613,28.011c-3.235,0-6.471,0-9.701,0c-7.103-9.223-14.519-18.123-21.613-27.345
			c-0.146-1.982,0.193-3.484,0.222-5.296c10.146,1.045,18.719-1.229,19.845-9.923l-21.61-0.221c1.053-2.106,2.292-4.03,3.529-5.952
			c5.824-0.093,11.076,0.39,16.979,0.217c-2.041-5.969-11.987-5.948-20.949-5.731c0-0.076,0-0.148,0-0.221
			c1.646-1.588,4.189-5.515,4.189-5.515C207.109,209.724,232.101,209.65,235.558,209.65z"/>
	</g>
</g>
</svg>
