<?xml version="1.0" encoding="utf-8"?>
<!-- Generator: Adobe Illustrator 16.0.0, SVG Export Plug-In . SVG Version: 6.00 Build 0)  -->
<!DOCTYPE svg PUBLIC "-//W3C//DTD SVG 1.1//EN" "http://www.w3.org/Graphics/SVG/1.1/DTD/svg11.dtd">
<svg version="1.1" id="Layer_1" xmlns="http://www.w3.org/2000/svg" xmlns:xlink="http://www.w3.org/1999/xlink" x="0px" y="0px"
	 width="500px" height="500px" viewBox="0 0 500 500" enable-background="new 0 0 500 500" xml:space="preserve">
<g id="Layer_1_copy_85">
	<g>
		<rect x="38.565" y="137.731" fill="#BEE4E1" width="422.194" height="219.49"/>
		<path fill="#3B2518" d="M460.76,359.409H38.565c-1.211,0-2.19-0.979-2.19-2.188v-219.49c0-1.207,0.979-2.186,2.19-2.186H460.76
			c1.207,0,2.188,0.979,2.188,2.186v219.49C462.947,358.43,461.967,359.409,460.76,359.409z M40.754,355.029H458.57V139.92H40.754
			V355.029z"/>
	</g>
	<g>
		<g>
			<path fill="#67C8C6" d="M321.354,253.167c0,38.408-31.152,69.56-69.562,69.56c-38.415,0-69.562-31.15-69.562-69.56
				c0-38.432,31.147-69.575,69.562-69.575C290.2,183.593,321.354,214.735,321.354,253.167z"/>
			<path fill="#3B2518" d="M251.791,324.918c-39.565,0-71.753-32.188-71.753-71.751c0-39.568,32.188-71.761,71.753-71.761
				c39.568,0,71.753,32.192,71.753,71.761C323.544,292.73,291.359,324.918,251.791,324.918z M251.791,185.783
				c-37.15,0-67.376,30.227-67.376,67.385c0,37.148,30.226,67.37,67.376,67.37c37.15,0,67.378-30.222,67.378-67.37
				C319.169,216.01,288.941,185.783,251.791,185.783z"/>
		</g>
		<g>
			<path fill="#67C8C6" d="M133.509,249.045c0,11.303-9.163,20.456-20.462,20.456c-11.302,0-20.465-9.151-20.465-20.456
				c0-11.303,9.163-20.46,20.465-20.46C124.346,228.585,133.509,237.742,133.509,249.045z"/>
			<path fill="#3B2518" d="M113.047,271.689c-12.493,0-22.654-10.157-22.654-22.645c0-12.491,10.161-22.649,22.654-22.649
				c12.49,0,22.651,10.159,22.651,22.649C135.698,261.532,125.537,271.689,113.047,271.689z M113.047,230.772
				c-10.077,0-18.274,8.198-18.274,18.273c0,10.074,8.197,18.27,18.274,18.27c10.074,0,18.271-8.195,18.271-18.27
				C131.318,238.97,123.121,230.772,113.047,230.772z"/>
		</g>
		<g>
			<path fill="#67C8C6" d="M408.104,251.501c0,11.302-9.158,20.457-20.46,20.457c-11.311,0-20.463-9.155-20.463-20.457
				c0-11.304,9.152-20.46,20.463-20.46C398.944,231.042,408.104,240.197,408.104,251.501z"/>
			<path fill="#3B2518" d="M387.644,274.145c-12.49,0-22.651-10.156-22.651-22.644c0-12.491,10.161-22.65,22.651-22.65
				c12.485,0,22.647,10.159,22.647,22.65C410.291,263.988,400.129,274.145,387.644,274.145z M387.644,233.228
				c-10.077,0-18.275,8.199-18.275,18.274c0,10.072,8.198,18.268,18.275,18.268c10.073,0,18.271-8.194,18.271-18.268
				C405.914,241.427,397.717,233.228,387.644,233.228z"/>
		</g>
		<g>
			<path fill="#67C8C6" d="M30.922,134.598v230.804h438.163V134.598H30.922z M88.952,346.107c2.236-4.068,3.63-8.646,3.63-13.582
				c0-15.897-13.192-28.774-29.465-28.774c-4.769,0-9.212,1.202-13.203,3.172V195.46l0.05-0.048c3.248,1.201,6.739,1.94,10.423,1.94
				c16.273,0,29.467-12.889,29.467-28.799c0-4.304-1.046-8.363-2.789-12.048l0.051-0.049H408.81l0.035,0.037
				c-1.737,3.685-2.791,7.736-2.791,12.061c0,15.911,13.204,28.799,29.471,28.799c5.014,0,9.655-1.34,13.788-3.485l0.089,0.084
				v113.188l-0.089,0.088c-4.133-2.148-8.774-3.478-13.788-3.478c-16.267,0-29.471,12.894-29.471,28.774
				c0,4.976,1.413,9.58,3.679,13.658H89.034L88.952,346.107z"/>
			<path fill="#3B2518" d="M469.085,367.592H30.922c-1.211,0-2.19-0.977-2.19-2.189V134.598c0-1.208,0.979-2.19,2.19-2.19h438.163
				c1.205,0,2.185,0.982,2.185,2.19v230.804C471.27,366.616,470.29,367.592,469.085,367.592z M33.107,363.216h433.787v-226.43
				H33.107V363.216z M409.731,348.37H89.034c-0.539,0-1.059-0.198-1.461-0.56c-0.762-0.681-1.03-1.863-0.537-2.763
				c2.226-4.052,3.356-8.266,3.356-12.522c0-14.657-12.234-26.584-27.275-26.584c-4.163,0-8.275,0.99-12.234,2.943
				c-0.682,0.336-1.483,0.295-2.125-0.104c-0.642-0.399-1.034-1.102-1.034-1.859V195.46c0-0.581,0.227-1.138,0.645-1.546
				c0.602-0.606,1.55-0.855,2.355-0.555c3.233,1.2,6.487,1.807,9.663,1.807c15.04,0,27.276-11.936,27.276-26.613
				c0-3.768-0.869-7.504-2.575-11.11c-0.396-0.834-0.224-1.831,0.428-2.483c0.414-0.411,1.024-0.695,1.6-0.695H408.81
				c0.616,0,1.195,0.259,1.613,0.711c0.604,0.653,0.781,1.649,0.404,2.455c-1.714,3.623-2.587,7.367-2.587,11.122
				c0,14.677,12.238,26.613,27.283,26.613c4.339,0,8.638-1.092,12.774-3.24c0.817-0.429,1.822-0.294,2.503,0.336
				c0.443,0.415,0.789,1.083,0.789,1.689v113.188c0,0.6-0.249,1.172-0.681,1.582c-0.674,0.646-1.779,0.879-2.611,0.446
				c-4.116-2.142-8.417-3.228-12.774-3.228c-15.045,0-27.283,11.928-27.283,26.586c0,4.297,1.146,8.535,3.398,12.595
				c0.38,0.674,0.368,1.503-0.023,2.169C411.223,347.958,410.503,348.37,409.731,348.37z M92.406,343.994H406.23
				c-1.574-3.721-2.365-7.566-2.365-11.469c0-17.075,14.2-30.961,31.658-30.961c3.973,0,7.896,0.768,11.688,2.291V197.24
				c-3.812,1.529-7.727,2.301-11.688,2.301c-17.458,0-31.658-13.903-31.658-30.989c0-3.339,0.582-6.661,1.731-9.909H90.313
				c1.146,3.238,1.726,6.561,1.726,9.909c0,17.085-14.197,30.989-31.652,30.989c-2.736,0-5.518-0.384-8.286-1.146V303.59
				c3.585-1.348,7.281-2.025,11.017-2.025c17.453,0,31.655,13.886,31.655,30.961C94.772,336.418,93.977,340.264,92.406,343.994z"/>
		</g>
	</g>
	<g>
		<g>
			<path fill="#F0F9FA" d="M233.444,265.814h5.305c0,3.1,1.171,5.65,3.512,7.652c2.187,1.822,4.79,2.736,7.81,2.736
				c3.223,0,5.986-1.188,8.269-3.559c2.395-2.428,3.596-5.403,3.596-8.93c0-3.704-1.172-6.834-3.512-9.387
				c-2.343-2.551-5.13-3.828-8.353-3.828c-2.083,0-4.063,0.456-5.933,1.369c-1.877,0.972-3.462,2.367-4.762,4.189h-5.389
				l4.762-28.704h24.897v6.194h-20.132l-2.345,14.218c0.937-1.336,2.262-2.278,3.979-2.825c1.301-0.423,2.942-0.638,4.921-0.638
				c4.678,0,8.715,1.882,12.094,5.651c3.386,3.765,5.075,8.354,5.075,13.759c0,5.226-1.715,9.661-5.15,13.306
				c-3.328,3.586-7.341,5.377-12.019,5.377c-4.478,0-8.328-1.517-11.552-4.557C235.134,274.625,233.444,270.611,233.444,265.814z"/>
			<path fill="#F0F9FA" d="M250.07,283.493c-4.743,0-8.886-1.634-12.304-4.853c-3.599-3.426-5.417-7.74-5.417-12.826v-1.096h7.495
				v1.096c0,2.787,1.022,5.017,3.13,6.822c1.987,1.659,4.311,2.471,7.096,2.471c2.946,0,5.392-1.055,7.483-3.219
				c2.213-2.25,3.285-4.92,3.285-8.173c0-3.452-1.052-6.28-3.225-8.646c-2.146-2.34-4.613-3.473-7.544-3.473
				c-1.906,0-3.739,0.42-5.454,1.258c-1.689,0.873-3.162,2.174-4.355,3.842l-0.323,0.459h-7.239l5.126-30.893h26.919v8.384H244.44
				l-1.674,10.174c0.622-0.375,1.307-0.682,2.052-0.918c1.4-0.459,3.169-0.692,5.252-0.692c4.985,0,9.329,2.022,12.907,6.015
				c3.556,3.954,5.355,8.826,5.355,14.49c0,5.492-1.832,10.222-5.449,14.056C259.361,281.564,255.047,283.493,250.07,283.493z
				 M234.567,266.909c0.235,4.03,1.78,7.354,4.7,10.14c3.04,2.862,6.573,4.258,10.803,4.258c4.405,0,8.079-1.646,11.214-5.027
				c3.271-3.471,4.858-7.579,4.858-12.562c0-5.104-1.611-9.487-4.789-13.028c-3.195-3.56-6.887-5.286-11.284-5.286
				c-1.849,0-3.394,0.194-4.578,0.582c-1.503,0.479-2.622,1.268-3.43,2.416l-1.973-0.808l2.491-15.134h19.972v-4.005h-22.874
				l-4.397,26.518h3.543c1.33-1.734,2.948-3.104,4.81-4.072c2.038-0.99,4.195-1.49,6.437-1.49c3.529,0,6.611,1.408,9.154,4.184
				c2.525,2.749,3.805,6.155,3.805,10.126c0,3.804-1.315,7.064-3.907,9.699c-2.481,2.573-5.528,3.879-9.051,3.879
				c-3.268,0-6.131-1.003-8.508-2.985c-2.316-1.979-3.605-4.465-3.864-7.399h-3.132V266.909z"/>
		</g>
		<g>
			<path fill="#F0F9FA" d="M274.684,254.695c0-7.595,1.506-14.064,4.517-19.408c3.375-5.956,7.786-8.933,13.243-8.933
				c5.448,0,9.862,2.977,13.235,8.933c3.016,5.344,4.519,11.813,4.519,19.408c0,7.596-1.503,14.062-4.519,19.408
				c-3.373,5.957-7.787,8.933-13.235,8.933c-5.457,0-9.868-2.976-13.243-8.933C276.188,268.758,274.684,262.291,274.684,254.695z
				 M279.992,254.695c0,6.074,0.986,11.179,2.964,15.31c2.237,4.802,5.413,7.198,9.526,7.198c4.056,0,7.23-2.396,9.522-7.198
				c1.92-4.131,2.886-9.233,2.886-15.31s-0.966-11.179-2.886-15.311c-2.292-4.797-5.468-7.198-9.522-7.198
				c-4.113,0-7.289,2.401-9.526,7.198C280.979,243.516,279.992,248.619,279.992,254.695z"/>
			<path fill="#F0F9FA" d="M292.443,284.131c-5.857,0-10.633-3.193-14.195-9.488c-3.094-5.484-4.656-12.195-4.656-19.947
				c0-7.752,1.562-14.464,4.656-19.947c3.566-6.295,8.338-9.488,14.195-9.488c5.846,0,10.617,3.193,14.187,9.485
				c3.094,5.486,4.66,12.198,4.66,19.95c0,7.752-1.566,14.463-4.656,19.947C303.062,280.938,298.289,284.131,292.443,284.131z
				 M292.443,227.445c-5.08,0-9.1,2.741-12.289,8.379c-2.903,5.15-4.377,11.498-4.377,18.869s1.474,13.723,4.377,18.875
				c3.189,5.635,7.209,8.375,12.289,8.375c5.069,0,9.09-2.74,12.284-8.383c2.903-5.146,4.372-11.496,4.372-18.867
				s-1.469-13.719-4.376-18.874C301.533,230.186,297.511,227.445,292.443,227.445z M292.482,278.298
				c-4.56,0-8.097-2.637-10.518-7.834c-2.031-4.241-3.068-9.553-3.068-15.771c0-6.213,1.037-11.523,3.076-15.781
				c2.416-5.188,5.953-7.821,10.51-7.821c4.494,0,8.031,2.631,10.507,7.821c1.986,4.27,2.996,9.575,2.996,15.781
				c0,6.211-1.01,11.517-2.99,15.771C300.515,275.664,296.98,278.298,292.482,278.298z M292.482,233.282
				c-3.685,0-6.473,2.146-8.537,6.562c-1.896,3.974-2.857,8.968-2.857,14.852c0,5.887,0.961,10.88,2.857,14.838
				c2.064,4.43,4.854,6.574,8.537,6.574c3.631,0,6.422-2.152,8.532-6.574c1.842-3.955,2.779-8.951,2.779-14.838
				c0-5.886-0.938-10.88-2.779-14.852C298.901,235.43,296.113,233.282,292.482,233.282z"/>
		</g>
	</g>
	<g>
		<g>
			<path fill="#F0F9FA" d="M232.367,226.486c-0.807,2.087-2.236,3.553-3.227,5.449c-0.299-0.013-8.883-0.202-8.883-0.202
				c0.454,0.458,1.416,1.911,2.018,3.229c0.332,0.72,0.422,1.55,0.604,2.422c3.167,0,6.329,0,9.487,0
				c-0.997,1.898-3.429,5.248-3.429,5.248c-2.018,0-4.038,0-6.059,0c-1.751,8.339-8.074,12.103-16.953,13.321
				c5.99,8.345,13.286,17.122,19.781,25.633c-2.962,0-5.922,0-8.882,0c-6.493-8.441-13.287-16.588-19.776-25.023
				c-0.13-1.815,0.176-3.19,0.201-4.847c9.285,0.954,17.133-1.126,18.163-9.083l-19.779-0.2c0.965-1.932,2.103-3.688,3.229-5.45
				c5.337-0.086,10.139,0.358,15.545,0.2c-1.869-5.467-10.974-5.446-19.178-5.248c0-0.065,0-0.132,0-0.202
				c1.512-1.453,3.835-5.046,3.835-5.046C206.33,226.552,229.209,226.486,232.367,226.486z"/>
		</g>
	</g>
</g>
</svg>
