<?xml version="1.0" encoding="utf-8"?>
<!-- Generator: Adobe Illustrator 16.0.0, SVG Export Plug-In . SVG Version: 6.00 Build 0)  -->
<!DOCTYPE svg PUBLIC "-//W3C//DTD SVG 1.1//EN" "http://www.w3.org/Graphics/SVG/1.1/DTD/svg11.dtd">
<svg version="1.1" id="Layer_1" xmlns="http://www.w3.org/2000/svg" xmlns:xlink="http://www.w3.org/1999/xlink" x="0px" y="0px"
	 width="500px" height="500px" viewBox="0 0 500 500" enable-background="new 0 0 500 500" xml:space="preserve">
<g id="Layer_1_copy_79">
	<g>
		<rect x="45.301" y="148.017" fill="#F4D8E8" width="408.738" height="212.49"/>
		<path fill="#3C2517" d="M454.039,362.624H45.301c-1.171,0-2.12-0.946-2.12-2.117v-212.49c0-1.17,0.949-2.119,2.12-2.119h408.738
			c1.17,0,2.118,0.949,2.118,2.119v212.49C456.157,361.677,455.209,362.624,454.039,362.624z M47.419,358.387h404.5V150.135h-404.5
			V358.387z"/>
	</g>
	<g>
		<g>
			<path fill="#BB7CB5" d="M319.08,259.768c0,37.187-30.161,67.347-67.348,67.347c-37.189,0-67.348-30.16-67.348-67.347
				c0-37.203,30.157-67.352,67.348-67.352C288.919,192.417,319.08,222.565,319.08,259.768z"/>
			<path fill="#3C2517" d="M251.732,329.232c-38.301,0-69.465-31.162-69.465-69.465c0-38.305,31.164-69.471,69.465-69.471
				c38.308,0,69.467,31.166,69.467,69.471C321.199,298.07,290.04,329.232,251.732,329.232z M251.732,194.535
				c-35.965,0-65.229,29.263-65.229,65.232c0,35.969,29.263,65.228,65.229,65.228c35.966,0,65.229-29.259,65.229-65.228
				C316.961,223.798,287.698,194.535,251.732,194.535z"/>
		</g>
		<g>
			<path fill="#BB7CB5" d="M137.221,255.783c0,10.941-8.874,19.803-19.81,19.803c-10.943,0-19.81-8.861-19.81-19.803
				c0-10.943,8.866-19.81,19.81-19.81C128.347,235.973,137.221,244.839,137.221,255.783z"/>
			<path fill="#3C2517" d="M117.411,277.704c-12.092,0-21.929-9.833-21.929-21.921c0-12.096,9.837-21.929,21.929-21.929
				c12.089,0,21.929,9.833,21.929,21.929C139.34,267.871,129.5,277.704,117.411,277.704z M117.411,238.091
				c-9.754,0-17.691,7.934-17.691,17.691c0,9.749,7.938,17.684,17.691,17.684s17.69-7.935,17.69-17.684
				C135.102,246.025,127.165,238.091,117.411,238.091z"/>
		</g>
		<g>
			<path fill="#BB7CB5" d="M403.062,258.16c0,10.939-8.865,19.803-19.808,19.803c-10.949,0-19.81-8.861-19.81-19.803
				c0-10.943,8.859-19.81,19.81-19.81C394.197,238.35,403.062,247.217,403.062,258.16z"/>
			<path fill="#3C2517" d="M383.256,280.081c-12.091,0-21.927-9.833-21.927-21.921c0-12.092,9.836-21.929,21.927-21.929
				c12.089,0,21.925,9.837,21.925,21.929C405.181,270.248,395.345,280.081,383.256,280.081z M383.256,240.469
				c-9.758,0-17.692,7.938-17.692,17.691c0,9.75,7.936,17.684,17.692,17.684c9.752,0,17.688-7.934,17.688-17.684
				C400.944,248.406,393.008,240.469,383.256,240.469z"/>
		</g>
		<g>
			<path fill="#BB7CB5" d="M37.903,144.979v223.455h424.193V144.979H37.903z M94.082,349.75c2.168-3.939,3.52-8.371,3.52-13.152
				c0-15.388-12.771-27.854-28.53-27.854c-4.618,0-8.92,1.163-12.781,3.07v-107.91l0.05-0.051c3.144,1.164,6.526,1.882,10.09,1.882
				c15.755,0,28.528-12.48,28.528-27.884c0-4.169-1.009-8.098-2.7-11.664l0.049-0.047H403.75l0.032,0.036
				c-1.685,3.566-2.7,7.488-2.7,11.675c0,15.404,12.782,27.884,28.529,27.884c4.854,0,9.344-1.3,13.346-3.376l0.089,0.083v109.581
				l-0.089,0.082c-4.002-2.076-8.49-3.361-13.346-3.361c-15.747,0-28.529,12.48-28.529,27.854c0,4.816,1.364,9.277,3.555,13.226
				H94.165L94.082,349.75z"/>
			<path fill="#3C2517" d="M462.097,370.551H37.903c-1.172,0-2.12-0.947-2.12-2.119V144.979c0-1.167,0.948-2.116,2.12-2.116h424.193
				c1.176,0,2.12,0.949,2.12,2.116v223.455C464.217,369.604,463.271,370.551,462.097,370.551z M40.021,366.312h419.962V147.097
				H40.021V366.312z M404.636,351.941H94.165c-0.521,0-1.027-0.194-1.415-0.543c-0.732-0.658-0.999-1.807-0.521-2.672
				c2.159-3.926,3.254-8.006,3.254-12.129c0-14.188-11.848-25.733-26.411-25.733c-4.028,0-8.016,0.958-11.844,2.85
				c-0.658,0.327-1.434,0.284-2.059-0.101c-0.62-0.389-0.998-1.066-0.998-1.799v-107.91c0-0.56,0.224-1.099,0.618-1.498
				c0.585-0.585,1.505-0.829,2.284-0.538c3.136,1.16,6.281,1.749,9.356,1.749c14.562,0,26.41-11.557,26.41-25.765
				c0-3.645-0.84-7.265-2.497-10.755c-0.385-0.808-0.219-1.771,0.417-2.407c0.396-0.395,0.984-0.667,1.547-0.667h311.442
				c0.594,0,1.156,0.247,1.559,0.686c0.582,0.631,0.76,1.599,0.393,2.374c-1.659,3.509-2.5,7.136-2.5,10.77
				c0,14.208,11.849,25.765,26.411,25.765c4.197,0,8.36-1.056,12.367-3.139c0.796-0.413,1.765-0.28,2.422,0.33
				c0.432,0.399,0.765,1.045,0.765,1.634v109.58c0,0.578-0.24,1.136-0.657,1.533c-0.657,0.621-1.727,0.85-2.528,0.432
				c-3.988-2.076-8.151-3.123-12.367-3.123c-14.562,0-26.411,11.546-26.411,25.732c0,4.163,1.105,8.266,3.291,12.196
				c0.36,0.654,0.354,1.456-0.027,2.103C406.084,351.542,405.387,351.941,404.636,351.941z M97.429,347.703H401.25
				c-1.52-3.605-2.289-7.326-2.289-11.105c0-16.525,13.749-29.973,30.649-29.973c3.847,0,7.638,0.743,11.315,2.221V205.625
				c-3.688,1.48-7.479,2.23-11.315,2.23c-16.9,0-30.649-13.46-30.649-30.002c0-3.235,0.565-6.449,1.675-9.592H95.402
				c1.111,3.135,1.671,6.35,1.671,9.592c0,16.542-13.747,30.002-30.644,30.002c-2.655,0-5.337-0.373-8.02-1.11v101.844
				c3.472-1.305,7.046-1.965,10.661-1.965c16.901,0,30.648,13.446,30.648,29.974C99.72,340.369,98.949,344.089,97.429,347.703z"/>
		</g>
	</g>
	<g>
		<g>
			<path fill="#F4D8E8" d="M218.479,273.527c0-3.301,1.056-6.395,3.171-9.28c1.721-2.392,4.131-4.628,7.216-6.72
				c2.082-1.404,3.608-2.653,4.587-3.756c1.396-1.67,2.096-3.456,2.096-5.354c0-1.782-0.663-3.261-2-4.439
				c-1.267-1.063-2.762-1.595-4.486-1.595c-1.787,0-3.313,0.705-4.581,2.108c-1.305,1.44-1.955,3.188-1.955,5.24v2.162h-3.314
				v-2.162c0-3.114,0.974-5.771,2.928-7.973c1.914-2.166,4.223-3.247,6.923-3.247c2.634,0,4.91,0.912,6.828,2.733
				c1.983,1.936,2.974,4.328,2.974,7.172c0,2.51-0.775,4.861-2.342,7.061c-1.3,1.823-3.103,3.514-5.411,5.067l-1.024,0.687
				c-4.356,2.884-6.748,5.691-7.169,8.426h15.946v3.871H218.479z"/>
			<path fill="#F4D8E8" d="M239.129,273.792h-20.913v-0.267c0-3.344,1.085-6.518,3.219-9.438c1.73-2.402,4.184-4.684,7.286-6.779
				c2.056-1.387,3.578-2.637,4.533-3.713c1.343-1.605,2.029-3.352,2.029-5.18c0-1.695-0.643-3.121-1.911-4.242
				c-1.206-1.013-2.661-1.526-4.311-1.526c-1.7,0-3.178,0.679-4.389,2.019c-1.249,1.386-1.88,3.089-1.88,5.064v2.428h-3.844v-2.428
				c0-3.167,1.005-5.908,2.991-8.149c1.961-2.212,4.357-3.336,7.121-3.336c2.694,0,5.051,0.945,7.007,2.805
				c2.033,1.982,3.061,4.463,3.061,7.366c0,2.553-0.805,4.978-2.389,7.215c-1.31,1.839-3.156,3.566-5.483,5.132l-1.024,0.688
				c-4.108,2.722-6.46,5.391-6.998,7.943h15.895V273.792L239.129,273.792z M218.744,273.261h19.854v-3.341H222.61l0.046-0.305
				c0.432-2.799,2.884-5.696,7.283-8.608l1.026-0.682c2.271-1.534,4.069-3.216,5.346-5.005c1.518-2.144,2.287-4.463,2.287-6.904
				c0-2.758-0.97-5.104-2.894-6.985c-1.855-1.76-4.088-2.654-6.643-2.654c-2.606,0-4.872,1.063-6.725,3.157
				c-1.897,2.14-2.859,4.762-2.859,7.797v1.896h2.787v-1.896c0-2.108,0.675-3.933,2.019-5.419c1.312-1.455,2.922-2.191,4.778-2.191
				c1.778,0,3.349,0.557,4.655,1.656c1.394,1.228,2.098,2.787,2.098,4.64c0,1.954-0.729,3.81-2.159,5.522
				c-0.99,1.117-2.549,2.398-4.64,3.809c-3.048,2.061-5.456,4.302-7.15,6.652C219.85,267.15,218.803,270.129,218.744,273.261z"/>
		</g>
		<g>
			<path fill="#F4D8E8" d="M240.961,256.221c0-4.744,0.94-8.789,2.822-12.129c2.108-3.72,4.867-5.581,8.271-5.581
				c3.408,0,6.162,1.861,8.274,5.581c1.882,3.34,2.821,7.385,2.821,12.129c0,4.743-0.939,8.784-2.821,12.127
				c-2.112,3.721-4.866,5.578-8.274,5.578c-3.404,0-6.163-1.857-8.271-5.578C241.901,265.005,240.961,260.964,240.961,256.221z
				 M244.276,256.221c0,3.795,0.617,6.984,1.853,9.562c1.4,2.999,3.383,4.496,5.951,4.496c2.533,0,4.518-1.497,5.949-4.496
				c1.203-2.578,1.804-5.768,1.804-9.562c0-3.796-0.601-6.986-1.804-9.564c-1.434-3.002-3.416-4.5-5.949-4.5
				c-2.568,0-4.551,1.498-5.951,4.5C244.894,249.235,244.276,252.424,244.276,256.221z"/>
			<path fill="#F4D8E8" d="M252.055,274.191c-3.49,0-6.35-1.922-8.501-5.715c-1.896-3.365-2.857-7.486-2.857-12.256
				c0-4.771,0.962-8.893,2.857-12.262c2.152-3.792,5.012-5.714,8.501-5.714c3.49,0,6.354,1.921,8.504,5.714
				c1.896,3.369,2.855,7.491,2.855,12.262c0,4.766-0.959,8.889-2.855,12.256C258.407,272.27,255.548,274.191,252.055,274.191z
				 M252.055,238.777c-3.286,0-5.991,1.831-8.042,5.444c-1.845,3.286-2.786,7.319-2.786,12c0,4.676,0.941,8.713,2.786,11.993
				c2.047,3.614,4.756,5.449,8.042,5.449c3.289,0,5.993-1.835,8.045-5.449c1.85-3.28,2.786-7.321,2.786-11.993
				c0-4.677-0.938-8.713-2.79-12C258.048,240.608,255.344,238.777,252.055,238.777z M252.08,270.545
				c-2.668,0-4.752-1.562-6.191-4.65c-1.243-2.601-1.88-5.856-1.88-9.674c0-3.818,0.637-7.076,1.883-9.683
				c1.437-3.081,3.521-4.647,6.188-4.647c2.632,0,4.715,1.566,6.189,4.647c1.215,2.611,1.828,5.864,1.828,9.683
				c0,3.816-0.613,7.07-1.828,9.674C256.8,268.984,254.712,270.545,252.08,270.545z M252.08,242.422
				c-2.479,0-4.347,1.419-5.711,4.345c-1.214,2.532-1.828,5.713-1.828,9.454c0,3.738,0.614,6.915,1.828,9.449
				c1.364,2.926,3.231,4.348,5.711,4.348c2.447,0,4.316-1.422,5.71-4.348c1.183-2.533,1.782-5.712,1.782-9.449
				c0-3.738-0.602-6.917-1.782-9.454C256.393,243.845,254.523,242.422,252.08,242.422z"/>
		</g>
		<g>
			<path fill="#F4D8E8" d="M264.368,256.221c0-4.744,0.942-8.789,2.823-12.129c2.108-3.72,4.865-5.581,8.271-5.581
				c3.408,0,6.163,1.861,8.272,5.581c1.88,3.34,2.82,7.385,2.82,12.129c0,4.743-0.94,8.784-2.82,12.127
				c-2.109,3.721-4.864,5.578-8.272,5.578c-3.405,0-6.162-1.857-8.271-5.578C265.311,265.005,264.368,260.964,264.368,256.221z
				 M267.688,256.221c0,3.795,0.614,6.984,1.851,9.562c1.397,2.999,3.382,4.496,5.95,4.496c2.535,0,4.52-1.497,5.951-4.496
				c1.199-2.578,1.804-5.768,1.804-9.562c0-3.796-0.604-6.986-1.804-9.564c-1.433-3.002-3.416-4.5-5.951-4.5
				c-2.568,0-4.553,1.498-5.95,4.5C268.302,249.235,267.688,252.424,267.688,256.221z"/>
			<path fill="#F4D8E8" d="M275.463,274.191c-3.496,0-6.354-1.922-8.5-5.715c-1.896-3.365-2.859-7.486-2.859-12.256
				c0-4.771,0.963-8.896,2.854-12.262c2.151-3.792,5.009-5.714,8.505-5.714c3.49,0,6.352,1.921,8.505,5.714
				c1.896,3.369,2.854,7.491,2.854,12.262c0,4.766-0.958,8.889-2.854,12.256C281.814,272.27,278.953,274.191,275.463,274.191z
				 M275.463,238.777c-3.286,0-5.994,1.831-8.041,5.444c-1.85,3.282-2.787,7.319-2.787,12c0,4.676,0.938,8.713,2.787,11.993
				c2.047,3.614,4.755,5.449,8.041,5.449s5.994-1.835,8.044-5.449c1.851-3.28,2.786-7.321,2.786-11.993c0-4.677-0.936-8.713-2.79-12
				C281.457,240.608,278.749,238.777,275.463,238.777z M275.486,270.545c-2.668,0-4.75-1.562-6.189-4.65
				c-1.246-2.601-1.875-5.856-1.875-9.674c0-3.818,0.629-7.076,1.879-9.683c1.436-3.081,3.52-4.647,6.188-4.647
				c2.633,0,4.715,1.566,6.191,4.647c1.215,2.611,1.827,5.864,1.827,9.683c0,3.816-0.612,7.07-1.827,9.674
				C280.202,268.984,278.12,270.545,275.486,270.545z M275.486,242.422c-2.478,0-4.344,1.419-5.709,4.345
				c-1.213,2.532-1.828,5.713-1.828,9.454c0,3.738,0.615,6.92,1.824,9.449c1.369,2.926,3.235,4.348,5.713,4.348
				c2.447,0,4.318-1.422,5.713-4.348c1.181-2.533,1.775-5.712,1.775-9.449c0-3.738-0.596-6.917-1.775-9.454
				C279.801,243.845,277.934,242.422,275.486,242.422z"/>
		</g>
		<g>
			<path fill="#F4D8E8" d="M287.777,256.221c0-4.744,0.938-8.789,2.822-12.129c2.107-3.72,4.862-5.581,8.271-5.581
				s6.162,1.861,8.271,5.581c1.883,3.34,2.824,7.385,2.824,12.129c0,4.743-0.941,8.784-2.824,12.127
				c-2.107,3.721-4.861,5.578-8.271,5.578s-6.163-1.857-8.271-5.578C288.715,265.005,287.777,260.964,287.777,256.221z
				 M291.092,256.221c0,3.795,0.618,6.984,1.854,9.562c1.396,2.999,3.383,4.496,5.949,4.496c2.537,0,4.52-1.497,5.947-4.496
				c1.204-2.578,1.809-5.768,1.809-9.562c0-3.796-0.604-6.986-1.809-9.564c-1.429-3.002-3.41-4.5-5.947-4.5
				c-2.566,0-4.553,1.498-5.949,4.5C291.71,249.235,291.092,252.424,291.092,256.221z"/>
			<path fill="#F4D8E8" d="M298.871,274.191c-3.495,0-6.354-1.922-8.501-5.715c-1.899-3.365-2.858-7.486-2.858-12.256
				c0-4.771,0.959-8.896,2.854-12.262c2.151-3.792,5.01-5.714,8.505-5.714c3.491,0,6.349,1.921,8.5,5.714
				c1.9,3.369,2.859,7.491,2.859,12.262c0,4.766-0.959,8.889-2.855,12.256C305.224,272.27,302.362,274.191,298.871,274.191z
				 M298.871,238.777c-3.289,0-5.994,1.831-8.04,5.444c-1.854,3.282-2.787,7.319-2.787,12c0,4.676,0.933,8.713,2.787,11.993
				c2.046,3.614,4.751,5.449,8.04,5.449c3.286,0,5.994-1.835,8.044-5.449c1.85-3.28,2.787-7.321,2.787-11.993
				c0-4.677-0.938-8.713-2.79-12C304.865,240.608,302.157,238.777,298.871,238.777z M298.896,270.545
				c-2.672,0-4.754-1.562-6.191-4.65c-1.245-2.601-1.873-5.856-1.873-9.674c0-3.818,0.628-7.076,1.877-9.683
				c1.438-3.081,3.52-4.647,6.188-4.647c2.634,0,4.716,1.566,6.188,4.647c1.217,2.611,1.831,5.864,1.831,9.683
				c0,3.816-0.614,7.07-1.831,9.674C303.611,268.984,301.529,270.545,298.896,270.545z M298.896,242.422
				c-2.479,0-4.351,1.419-5.709,4.345c-1.215,2.532-1.83,5.713-1.83,9.454c0,3.738,0.615,6.92,1.826,9.449
				c1.362,2.926,3.234,4.348,5.713,4.348c2.445,0,4.312-1.422,5.711-4.348c1.182-2.533,1.777-5.712,1.777-9.449
				c0-3.738-0.597-6.917-1.777-9.454C303.208,243.845,301.342,242.422,298.896,242.422z"/>
		</g>
	</g>
	<path fill="#F4D8E8" d="M218.403,239.499c-0.506,1.304-1.397,2.219-2.019,3.408c-0.188-0.011-5.549-0.129-5.549-0.129
		c0.284,0.284,0.884,1.196,1.262,2.019c0.204,0.452,0.261,0.97,0.38,1.515c1.972,0,3.95,0,5.926,0
		c-0.625,1.182-2.144,3.275-2.144,3.275c-1.265,0-2.521,0-3.782,0c-1.1,5.211-5.05,7.563-10.594,8.322
		c3.741,5.217,8.299,10.702,12.357,16.018c-1.854,0-3.699,0-5.549,0c-4.059-5.27-8.299-10.362-12.357-15.638
		c-0.079-1.131,0.11-1.989,0.129-3.027c5.801,0.6,10.702-0.703,11.346-5.674l-12.355-0.122c0.601-1.21,1.312-2.305,2.015-3.404
		c3.333-0.054,6.336,0.222,9.712,0.122c-1.168-3.411-6.855-3.401-11.98-3.275c0-0.043,0-0.086,0-0.129
		c0.944-0.905,2.397-3.15,2.397-3.15C202.134,239.546,216.428,239.499,218.403,239.499z"/>
</g>
</svg>
