<?xml version="1.0" encoding="utf-8"?>
<!-- Generator: Adobe Illustrator 16.0.0, SVG Export Plug-In . SVG Version: 6.00 Build 0)  -->
<!DOCTYPE svg PUBLIC "-//W3C//DTD SVG 1.1//EN" "http://www.w3.org/Graphics/SVG/1.1/DTD/svg11.dtd">
<svg version="1.1" id="Layer_1" xmlns="http://www.w3.org/2000/svg" xmlns:xlink="http://www.w3.org/1999/xlink" x="0px" y="0px"
	 width="500px" height="500px" viewBox="0 0 500 500" enable-background="new 0 0 500 500" xml:space="preserve">
<g id="Layer_1_copy_65">
	<g>
		<g>
			<g>
				<path fill="#D2D3D4" d="M412.741,400.096c0,25.165-20.6,45.766-45.771,45.766H146.705c-25.173,0-45.77-20.601-45.77-45.766
					V89.231c0-25.171,20.597-45.769,45.77-45.769h220.267c25.171,0,45.771,20.598,45.771,45.769L412.741,400.096L412.741,400.096z"
					/>
			</g>
			<g>
				<path fill="#D2D3D4" d="M412.741,400.096c0,25.165-20.6,45.766-45.771,45.766H146.705c-25.173,0-45.77-20.601-45.77-45.766
					V89.231c0-25.171,20.597-45.769,45.77-45.769h220.267c25.171,0,45.771,20.598,45.771,45.769L412.741,400.096L412.741,400.096z"
					/>
				<path fill="#3C2517" d="M366.972,450.751H146.705c-27.937,0-50.663-22.726-50.663-50.655V89.231
					c0-27.937,22.727-50.663,50.663-50.663h220.267c27.938,0,50.663,22.726,50.663,50.663v310.865
					C417.635,428.026,394.908,450.751,366.972,450.751z M146.705,48.357c-22.54,0-40.874,18.335-40.874,40.874v310.865
					c0,22.536,18.334,40.868,40.874,40.868h220.267c22.54,0,40.874-18.332,40.874-40.868V89.231
					c0-22.539-18.334-40.874-40.874-40.874H146.705z"/>
			</g>
		</g>
		<g>
			<g>
				<path fill="#B2E2F5" d="M370.783,335.575c0,18.401-15.056,33.448-33.453,33.448H176.347c-18.398,0-33.452-15.047-33.452-33.448
					V108.377c0-18.391,15.054-33.449,33.452-33.449H337.33c18.397,0,33.453,15.058,33.453,33.449V335.575z"/>
			</g>
			<g>
				<path fill="#B2E2F5" d="M370.783,335.575c0,18.401-15.056,33.448-33.453,33.448H176.347c-18.398,0-33.452-15.047-33.452-33.448
					V108.377c0-18.391,15.054-33.449,33.452-33.449H337.33c18.397,0,33.453,15.058,33.453,33.449V335.575z"/>
				<path fill="#3C2517" d="M337.33,373.919H176.347c-21.142,0-38.348-17.194-38.348-38.345V108.377
					c0-21.144,17.206-38.343,38.348-38.343H337.33c21.143,0,38.347,17.2,38.347,38.343v227.198
					C375.677,356.725,358.473,373.919,337.33,373.919z M176.347,79.822c-15.744,0-28.56,12.811-28.56,28.555v227.198
					c0,15.747,12.815,28.558,28.56,28.558H337.33c15.745,0,28.559-12.811,28.559-28.558V108.377
					c0-15.745-12.812-28.555-28.559-28.555H176.347z"/>
			</g>
		</g>
		<g>
			<path fill="#939598" d="M275.432,406.631c0,9.746-7.897,17.642-17.64,17.642s-17.64-7.896-17.64-17.642
				c0-9.738,7.898-17.641,17.64-17.641S275.432,396.893,275.432,406.631z"/>
			<path fill="#3C2517" d="M257.792,429.161c-12.426,0-22.533-10.104-22.533-22.529c0-12.427,10.107-22.53,22.533-22.53
				s22.534,10.104,22.534,22.53C280.326,419.057,270.218,429.161,257.792,429.161z M257.792,393.889
				c-7.028,0-12.745,5.711-12.745,12.742s5.717,12.742,12.745,12.742c7.026,0,12.746-5.711,12.746-12.742
				S264.818,393.889,257.792,393.889z"/>
		</g>
		<g opacity="0.46">
			<g>
				<path d="M271.984,175.318c0.699,0.443,0.516,1.446,0.507,2.04c-0.064,4.728-2.8,9.361-5.44,11.904
					c-2.466,2.373-5.965,4.123-10.369,4.08C256.249,183.634,263.111,176.551,271.984,175.318z"/>
			</g>
			<g>
				<path d="M286.438,201.671c-1.451,1.698-3.071,2.466-4.426,4.087c-5.351,6.422-5.142,17.648,1.531,23.631
					c1.516,1.357,3.271,2.262,5.1,3.231c-1.379,4.048-3.17,7.62-5.606,11.222c-2.757,4.07-6.097,10.186-13.603,9.354
					c-2.783-0.312-4.801-1.887-7.145-2.553c-2.406-0.682-5.03-0.708-7.82,0c-3.162,0.803-6.329,3.121-10.032,2.719
					c-4.354-0.469-7.46-4.821-9.857-8.161c-4.441-6.174-9.118-15.294-9.523-26.183c-0.303-8.069,2.214-14.909,6.289-19.043
					c2.944-2.979,7.989-6.205,14.458-5.612c2.158,0.201,3.979,1.025,5.777,1.703c1.675,0.628,3.55,1.673,5.606,1.699
					c1.791,0.025,3.569-0.969,5.444-1.699c2.396-0.935,5.106-1.958,8.162-2.04C278.294,193.82,283.049,197.498,286.438,201.671z"/>
			</g>
		</g>
	</g>
</g>
</svg>
