<?xml version="1.0" encoding="utf-8"?>
<!-- Generator: Adobe Illustrator 16.0.0, SVG Export Plug-In . SVG Version: 6.00 Build 0)  -->
<!DOCTYPE svg PUBLIC "-//W3C//DTD SVG 1.1//EN" "http://www.w3.org/Graphics/SVG/1.1/DTD/svg11.dtd">
<svg version="1.1" id="Layer_1" xmlns="http://www.w3.org/2000/svg" xmlns:xlink="http://www.w3.org/1999/xlink" x="0px" y="0px"
	 width="500px" height="500px" viewBox="0 0 500 500" enable-background="new 0 0 500 500" xml:space="preserve">
<g id="Layer_1_copy_36">
	<g>
		<g>
			<path fill="#4E4E4E" d="M460.141,268.07c0,50.061-92.195,90.645-205.926,90.645c-113.73,0-205.922-40.585-205.922-90.645
				c0-50.065,92.192-90.649,205.922-90.649C367.945,177.421,460.141,218.005,460.141,268.07z"/>
			<path fill="#3C2517" d="M254.215,362.159c-55.469,0-107.675-9.531-146.999-26.841c-40.217-17.703-62.37-41.588-62.37-67.248
				c0-25.662,22.153-49.545,62.37-67.252c39.324-17.31,91.53-26.841,146.999-26.841c55.473,0,107.679,9.531,147.003,26.841
				c40.217,17.707,62.367,41.59,62.367,67.252c0,25.66-22.15,49.545-62.367,67.248C361.894,352.627,309.688,362.159,254.215,362.159
				z M254.215,180.868c-111.646,0-202.48,39.119-202.48,87.202c0,48.082,90.835,87.197,202.48,87.197
				c111.646,0,202.481-39.115,202.481-87.197C456.696,219.987,365.86,180.868,254.215,180.868z"/>
		</g>
		<g>
			<path fill="#818181" d="M237.336,140.647c79.303-3.775,149.881,12.88,196.334,46.03c26.216,18.705,56.854,56.438,37.577,101.456
				c-3.655,8.529-8.539,17.941-15.03,25.365c-61.477,70.277-234.513,85.665-337.243,41.329
				c-35.274-15.22-64.881-35.522-77.972-64.815C17.8,238.083,58.787,198.121,90.793,179.161
				c24.409-14.458,54.662-26.239,89.241-32.879C197.449,142.937,217.366,141.597,237.336,140.647z M180.97,183.858
				c-34.529,6.912-63.61,17.813-87.361,36.634c-9.178,7.282-23.522,23.86-23.487,39.459c0.048,18.383,14.33,31.206,26.306,40.39
				c62.108,47.657,190.306,56.66,275.243,24.429c26.001-9.867,70.456-32.209,70.456-64.817c0-18.771-14.997-33.064-29.124-43.21
				c-43.104-30.977-106.646-42.698-174.727-39.459C217.333,178.281,198.858,180.279,180.97,183.858z"/>
			<path fill="#3C2517" d="M255.363,383.213c-51.151,0-100.073-8.959-137.752-25.224c-41.687-17.987-67.776-39.763-79.753-66.571
				c-10.838-24.258-9.362-48.131,4.384-70.972c13.455-22.349,35.093-37.315,46.794-44.25c26.074-15.44,57.314-26.953,90.35-33.295
				c17.892-3.438,38.348-4.768,57.785-5.694c7.394-0.354,14.831-0.533,22.109-0.533c71.098,0,133.739,16.764,176.392,47.198
				c31.089,22.186,57.596,61.583,38.744,105.618c-4.767,11.126-9.875,19.718-15.608,26.273
				C422.418,357.369,344.465,383.213,255.363,383.213z M259.279,143.565c-7.168,0-14.496,0.176-21.782,0.523
				c-19.185,0.916-39.343,2.223-56.814,5.581c-32.264,6.19-62.738,17.416-88.137,32.456
				c-70.416,41.712-54.847,92.046-48.398,106.479c11.242,25.16,36.165,45.787,76.189,63.064
				c36.843,15.9,84.795,24.654,135.026,24.654c87.17,0,163.141-24.943,198.26-65.092c5.253-6.004,9.979-14.004,14.457-24.455
				c17.243-40.272-7.499-76.668-36.412-97.292C390.178,159.873,328.956,143.565,259.279,143.565z M257.289,347.268h-0.004
				c-65.976,0-126.897-16.521-162.956-44.19C80.683,292.605,66.727,279.3,66.682,259.96c-0.047-17.767,16.194-35.348,24.786-42.163
				c22.497-17.832,50.725-29.689,88.825-37.315c17.382-3.478,35.753-5.588,57.82-6.64c7.317-0.347,14.646-0.522,21.772-0.522
				c64.501,0,118.141,14.047,155.128,40.624c20.56,14.772,30.558,29.822,30.558,46.01c0,36.515-50.824,59.747-72.68,68.042
				C339.658,340.602,299.683,347.268,257.289,347.268z M259.886,180.207c-7.02,0-14.236,0.175-21.445,0.516
				c-21.717,1.036-39.761,3.106-56.792,6.515c-36.995,7.404-64.289,18.831-85.899,35.959c-8.933,7.086-22.213,22.715-22.18,36.746
				c0.04,16.354,12.639,28.222,24.955,37.666c34.897,26.781,94.247,42.765,158.761,42.768c40.975,0,81.165-6.682,113.161-18.824
				c61.582-23.369,68.235-50.865,68.235-61.6c0-13.809-9.059-27.029-27.691-40.415C375.188,193.807,322.938,180.207,259.886,180.207
				z"/>
		</g>
	</g>
	<g>
		<g>
			<path fill="#EFD9B4" d="M275.273,336.177c0,0,45.927,22.771,87.838,0c41.912-22.769,40.8-44.011,40.8-44.011
				s-1.186-27.82-12.092-11.328c-10.908,16.496-23.54,33.719-40.768,35.442c-17.221,1.725-50.474,5.022-54.565,3.593
				C292.4,318.445,256.902,317.607,275.273,336.177z"/>
			<path fill="#D8B888" d="M321.713,349.167c-26.395,0-46.859-9.992-47.717-10.419l-0.43-0.212l-0.338-0.341
				c-5.297-5.359-7.14-10.094-5.479-14.076c2.825-6.77,14.55-7.779,21.289-7.779c2.915,0,6.646,0.217,8.397,0.828
				c0.043,0.006,0.743,0.188,3.459,0.188c10.57,0,37.117-2.655,49.872-3.934c15.866-1.584,27.801-17.746,38.655-34.165
				c2.94-4.446,5.623-6.515,8.456-6.515c7.291,0,8.651,13.502,8.898,19.305c0.048,0.913,0.712,23.288-42.298,46.655
				C351.697,345.646,337.307,349.167,321.713,349.167z M276.964,333.802c3.011,1.396,21.756,9.621,44.749,9.621
				c14.627,0,28.092-3.286,40.029-9.767c39.858-21.656,39.311-41.145,39.3-41.342c-0.273-6.353-1.876-13.053-3.298-13.855
				c0.007,0.061-1.208,0.449-3.531,3.963c-11.618,17.568-24.501,34.874-42.876,36.715c-13.832,1.383-39.586,3.956-50.44,3.956
				c-3.434,0-4.631-0.254-5.354-0.51c-0.522-0.175-2.976-0.507-6.502-0.507c-8.37,0-14.947,1.748-15.992,4.252
				C272.411,327.848,273.841,330.557,276.964,333.802z"/>
		</g>
		<g>
			<path fill="#EFD9B4" d="M273.148,314.479c0,0,45.928,22.769,87.842,0c41.911-22.77,40.8-44.013,40.8-44.013
				s-1.185-27.824-12.093-11.327c-10.91,16.494-23.542,33.719-40.763,35.442c-17.228,1.72-50.479,5.021-54.565,3.593
				C290.275,296.745,254.777,295.904,273.148,314.479z"/>
			<path fill="#D8B888" d="M319.59,327.466c-26.396,0-46.857-9.991-47.715-10.417l-0.43-0.213l-0.338-0.34
				c-5.301-5.359-7.144-10.098-5.481-14.078c2.825-6.771,14.554-7.779,21.293-7.779c2.914,0,6.649,0.217,8.397,0.825
				c0.041,0.011,0.74,0.188,3.457,0.188c10.569,0,37.115-2.656,49.876-3.93c15.867-1.59,27.795-17.75,38.651-34.168
				c2.939-4.445,5.625-6.513,8.454-6.513c7.292,0,8.658,13.498,8.902,19.301c0.047,0.912,0.708,23.291-42.298,46.654
				C349.574,323.947,335.185,327.466,319.59,327.466z M274.844,312.104c3.014,1.396,21.752,9.621,44.746,9.621
				c14.626,0,28.095-3.287,40.028-9.771c39.862-21.654,39.316-41.142,39.307-41.34c-0.278-6.353-1.879-13.054-3.302-13.854
				c0.007,0.061-1.211,0.449-3.53,3.959c-11.621,17.571-24.501,34.879-42.873,36.719c-13.836,1.381-39.592,3.955-50.445,3.955
				c-3.429,0-4.63-0.258-5.352-0.51c-0.528-0.175-2.978-0.506-6.504-0.506c-8.374,0-14.946,1.751-15.997,4.252
				C270.294,306.148,271.721,308.857,274.844,312.104z"/>
		</g>
		<g>
			<path fill="#EFD9B4" d="M273.148,296.104c0,0,45.928,22.769,87.842,0c41.911-22.77,40.8-44.013,40.8-44.013
				s-1.185-27.824-12.093-11.328c-10.91,16.496-23.542,33.719-40.763,35.443c-17.228,1.724-50.479,5.022-54.565,3.593
				C290.275,278.37,254.777,277.529,273.148,296.104z"/>
			<path fill="#D8B888" d="M319.59,309.091c-26.396,0-46.857-9.991-47.715-10.417l-0.43-0.213l-0.338-0.34
				c-5.301-5.359-7.144-10.098-5.481-14.078c2.825-6.768,14.554-7.779,21.293-7.779c2.914,0,6.649,0.217,8.397,0.828
				c0.041,0.008,0.74,0.188,3.457,0.188c10.569,0,37.115-2.654,49.876-3.932c15.867-1.589,27.795-17.746,38.651-34.167
				c2.939-4.446,5.625-6.514,8.454-6.514c7.292,0,8.658,13.499,8.902,19.302c0.047,0.912,0.708,23.291-42.298,46.654
				C349.574,305.572,335.185,309.091,319.59,309.091z M274.844,293.727c3.014,1.396,21.752,9.623,44.746,9.623
				c14.626,0,28.095-3.287,40.028-9.771c39.862-21.653,39.316-41.141,39.307-41.339c-0.278-6.352-1.879-13.051-3.302-13.855
				c0.007,0.06-1.211,0.451-3.53,3.964c-11.621,17.568-24.501,34.875-42.873,36.712c-13.836,1.383-39.592,3.957-50.445,3.957
				c-3.429,0-4.63-0.258-5.352-0.509c-0.528-0.176-2.978-0.507-6.504-0.507c-8.374,0-14.946,1.751-15.997,4.252
				C270.294,287.773,271.721,290.482,274.844,293.727z"/>
		</g>
		<g>
			<path fill="#EFD9B4" d="M267.879,279.134c0,0,45.927,22.769,87.841,0c41.912-22.769,40.8-44.008,40.8-44.008
				s-1.184-27.824-12.096-11.328c-10.902,16.492-23.539,33.72-40.763,35.44c-17.224,1.724-50.478,5.025-54.562,3.597
				C285.007,261.408,249.511,260.566,267.879,279.134z"/>
			<path fill="#D8B888" d="M314.319,292.124c-26.396,0-46.857-9.988-47.716-10.415l-0.43-0.215l-0.337-0.338
				c-5.297-5.359-7.144-10.094-5.481-14.081c2.824-6.769,14.554-7.777,21.293-7.777c2.914,0,6.648,0.22,8.396,0.826
				c0.042,0.015,0.74,0.188,3.457,0.188c10.57,0,37.117-2.652,49.878-3.931c15.866-1.585,27.793-17.75,38.651-34.169
				c2.938-4.443,5.624-6.514,8.453-6.514c7.292,0,8.653,13.502,8.901,19.305c0.047,0.913,0.709,23.291-42.298,46.655
				C344.303,288.604,329.915,292.124,314.319,292.124z M269.573,276.766c3.011,1.394,21.753,9.621,44.746,9.621
				c14.626,0,28.092-3.289,40.03-9.773c39.859-21.652,39.312-41.143,39.302-41.338c-0.275-6.355-1.876-13.055-3.3-13.859
				c0.009,0.06-1.21,0.456-3.532,3.963c-11.618,17.571-24.498,34.878-42.874,36.717c-13.836,1.383-39.588,3.961-50.442,3.961
				c-3.433,0-4.629-0.26-5.354-0.515c-0.524-0.174-2.974-0.502-6.5-0.502c-8.371,0-14.947,1.743-15.992,4.248
				C265.021,270.807,266.45,273.516,269.573,276.766z"/>
		</g>
		<g>
			<path fill="#EFD9B4" d="M266.744,263.965c0,0,45.927,22.77,87.839,0c41.914-22.769,40.799-44.015,40.799-44.015
				s-1.185-27.821-12.096-11.325c-10.904,16.496-23.536,33.719-40.763,35.439c-17.221,1.724-50.475,5.025-54.562,3.596
				C283.872,246.236,248.373,245.395,266.744,263.965z"/>
			<path fill="#D8B888" d="M313.181,276.955c-26.394,0-46.855-9.992-47.71-10.419l-0.431-0.212l-0.337-0.342
				c-5.301-5.358-7.146-10.094-5.482-14.078c2.825-6.771,14.551-7.775,21.289-7.775c2.915,0,6.647,0.215,8.397,0.823
				c0.043,0.013,0.743,0.192,3.46,0.192c10.571,0,37.114-2.657,49.872-3.934c15.87-1.584,27.797-17.75,38.651-34.169
				c2.94-4.443,5.627-6.514,8.459-6.514c7.292,0,8.651,13.502,8.9,19.308c0.046,0.913,0.71,23.288-42.299,46.655
				C343.168,273.43,328.777,276.955,313.181,276.955z M268.436,261.589c3.01,1.396,21.756,9.624,44.745,9.624
				c14.63,0,28.096-3.288,40.032-9.771c39.859-21.653,39.312-41.144,39.3-41.338c-0.272-6.353-1.876-13.052-3.298-13.859
				c0.007,0.062-1.207,0.453-3.53,3.963c-11.618,17.571-24.502,34.877-42.877,36.717c-13.836,1.383-39.585,3.958-50.439,3.958
				c-3.435,0-4.632-0.255-5.354-0.51c-0.522-0.175-2.976-0.506-6.503-0.506c-8.37,0-14.946,1.747-15.991,4.251
				C263.883,255.634,265.312,258.344,268.436,261.589z"/>
		</g>
		<g>
			<path fill="#EFD9B4" d="M105.333,220.105c0,0-39.763-4.333-11.212,23.192c28.545,27.521,92.774,88.695,125.401,83.602
				c32.628-5.096,85.643-26.17,35.686-70.688c0,0,9.854-23.454,24.132,0c14.271,23.45,31.945,45.203-4.079,79.187
				c-36.026,33.983-101.209,19.031-107.7,8.16c-6.49-10.879-111.161-92.441-105.047-112.834
				C68.633,210.333,101.936,193.856,105.333,220.105z"/>
			<path fill="#D8B888" d="M215.097,359.261c-22.497,0-45.396-6.518-50.003-14.235c-1.771-2.969-14.141-13.965-27.242-25.607
				c-45.328-40.297-82.492-74.846-78.088-89.522c4.115-13.72,19.589-26.213,32.459-26.213c8.819,0,14.636,5.85,15.96,16.056
				l0.463,3.616l-3.619-0.394c-0.023,0-2.19-0.232-5.056-0.232c-7.163,0-12.188,1.423-13.111,3.715
				c-0.4,0.986-0.917,4.983,9.254,14.785c23.568,22.726,86.178,83.098,119.387,83.098c1.247,0,2.455-0.089,3.579-0.269
				c21.473-3.353,48.236-13.01,53.005-29.193c3.062-10.393-3.26-22.676-18.785-36.512l-1.53-1.369l0.793-1.891
				c0.209-0.496,5.225-12.181,14.176-12.181c5.222,0,10.283,3.973,15.051,11.804c0.967,1.577,1.945,3.152,2.918,4.725
				c13.674,22,27.816,44.75-7.477,78.043C258.152,355.482,232.909,359.261,215.097,359.261z M92.223,209.423
				c-10.257,0-23.609,10.958-26.961,22.124c-3.708,12.363,48.409,58.689,76.404,83.58c17.175,15.266,26.232,23.396,28.356,26.954
				c2.72,4.556,22.081,11.438,45.074,11.438c16.774,0,40.485-3.506,58.191-20.209c31.877-30.074,20.139-48.961,6.54-70.838
				c-0.985-1.584-1.972-3.176-2.943-4.771c-3.603-5.918-7.11-9.045-10.147-9.045c-3.43,0-6.42,4.04-7.995,6.878
				c16.135,14.878,22.474,28.646,18.851,40.951c-5.521,18.738-33.388,29.461-57.625,33.25c-1.419,0.218-2.925,0.33-4.467,0.33
				c-31.489,0-82.472-45.267-123.374-84.706c-9.247-8.916-12.715-15.808-10.59-21.067c1.959-4.851,8.158-7.306,18.435-7.306
				c0.639,0,1.244,0.01,1.806,0.023C100.278,211.97,97.079,209.423,92.223,209.423z"/>
		</g>
		<g>
			<path fill="#EFD9B4" d="M109.228,251.686c0,0-25.826-44.123,25.828-54.295c51.655-10.167,73.536-15.129,97.88-13.386
				c44.858,3.219,118.368,13.386,120.307,13.386c1.938,0,45.537,18.95,45.537,18.95l-39.354,7.583c0,0-40.849-5.618-63.279-8.589
				c-22.432-2.967-26.508-3.643-77.486-2.967c-50.979,0.681-68.648-10.875-78.846,11.556
				c-10.193,22.431-16.313,26.292-13.594,27.761C128.939,253.154,109.228,251.686,109.228,251.686z"/>
			<path fill="#2C2010" d="M123.023,255.784c-5.104,0-13.69-0.636-14.054-0.662c-1.125-0.086-2.144-0.718-2.714-1.696
				c-0.499-0.848-12.062-20.959-4.215-38.378c4.811-10.679,15.695-17.756,32.348-21.035l12.898-2.551
				c42.903-8.496,63.283-12.516,85.894-10.891c34.229,2.455,84.189,8.83,108.201,11.894c6.31,0.804,11.292,1.439,11.99,1.486
				c0.628-0.023,2.435-0.04,46.78,19.231c1.386,0.602,2.217,2.035,2.051,3.537c-0.165,1.502-1.289,2.72-2.77,3.004l-39.355,7.583
				c-0.374,0.073-0.755,0.083-1.122,0.03c-0.407-0.053-41.097-5.651-63.264-8.585l-1.186-0.156
				c-16.138-2.137-22.82-3.021-47.193-3.021c-7.166,0-16.258,0.076-28.612,0.238c-15.747,0.215-28.461-0.744-38.482-1.495
				c-6.293-0.473-11.726-0.883-16.277-0.883c-11.937,0-16.841,2.782-20.989,11.917c-5.246,11.537-9.433,18.25-11.93,22.259
				c-0.576,0.92-1.161,1.859-1.562,2.564c0.503,0.887,0.545,1.866,0.351,2.625C129.064,255.784,125.994,255.784,123.023,255.784z
				 M111.381,248.379c2.68,0.179,7.63,0.479,11.081,0.509c0.469-1.323,1.408-2.835,2.712-4.926
				c2.412-3.867,6.448-10.338,11.507-21.468c6.034-13.283,14.908-15.95,27.262-15.95c4.81,0,10.361,0.417,16.793,0.9
				c9.893,0.744,22.424,1.697,37.878,1.479c12.384-0.166,21.504-0.238,28.701-0.238c24.83,0,31.642,0.9,48.097,3.077l1.186,0.159
				c20.761,2.746,57.729,7.824,62.733,8.512l27.833-5.363c-14.676-6.312-31.66-13.492-34.354-14.253
				c-0.942-0.079-3.45-0.39-12.298-1.519c-23.953-3.057-73.787-9.419-107.825-11.857c-21.765-1.565-41.755,2.398-84.062,10.778
				l-12.903,2.551c-14.322,2.819-23.535,8.569-27.387,17.078C103.044,229.551,109.075,243.721,111.381,248.379z"/>
		</g>
		<g>
			<path fill="#EFD9B4" d="M145.931,262.666c0,0-54.502-9.879-14.953-39.42c34.615-25.855,95.841-26.666,103.996-23.917
				c0,0,123.701,18.273,135.939,16.337c12.229-1.936,11.552,22.533,11.552,22.533s-36.702,6.117-50.976,2.035
				c-14.275-4.076-82.925-12.361-97.197-9.237c-14.272,3.117-51.657,3.801-57.774,11.278
				C170.399,249.756,145.931,262.666,145.931,262.666z"/>
			<path fill="#2C2010" d="M145.931,266.109c-0.205,0-0.41-0.017-0.615-0.053c-2.895-0.525-28.399-5.55-31.808-20.022
				c-1.862-7.924,3.323-16.519,15.411-25.551c25.369-18.944,66.006-25.667,93.099-25.667c3.738,0,10.376,0.149,13.728,1.145
				c6.104,0.9,111.797,16.4,132.505,16.4c1.289,0,1.885-0.06,2.127-0.1c3.771-0.596,6.931,0.526,9.429,3.1
				c6.369,6.547,6.15,21.277,6.103,22.934c-0.044,1.647-1.248,3.03-2.875,3.302c-0.854,0.142-21.104,3.487-37.542,3.487
				c-6.44,0-11.331-0.502-14.95-1.535c-11.619-3.322-62.345-9.796-86.271-9.796c-5.336,0-7.973,0.334-9.239,0.609
				c-4.837,1.059-12.113,1.833-19.812,2.653c-13.064,1.393-32.803,3.498-36.032,7.444c-6.378,7.792-29.081,19.896-31.647,21.253
				C147.039,265.977,146.486,266.109,145.931,266.109z M222.018,201.704c-26.037,0-64.961,6.362-88.977,24.3
				c-6.662,4.976-14.292,12.212-12.823,18.451c1.902,8.086,18.15,13.107,25.174,14.594c7.345-3.945,24.039-13.548,28.459-18.954
				c4.672-5.708,19.122-7.639,40.637-9.932c7.51-0.797,14.601-1.552,19.07-2.531c2.362-0.516,5.866-0.768,10.712-0.768
				c24.903,0,75.925,6.561,88.166,10.058c2.952,0.847,7.343,1.274,13.056,1.274c12.298,0,27.288-2.022,33.501-2.945
				c-0.229-5.244-1.383-12.274-4.125-15.089c-0.979-1.006-2.028-1.317-3.414-1.096c-0.795,0.126-1.84,0.189-3.202,0.189
				c-21.721,0-129.214-15.844-133.779-16.519c-0.206-0.03-0.403-0.08-0.599-0.146C232.89,202.26,229.289,201.704,222.018,201.704z"
				/>
		</g>
		<g>
			<path fill="#EFD9B4" d="M153.778,281.473c0,0-24.839-39.198,3.027-54.147c27.867-14.957,87.68-11.715,101.277-7.219
				c13.598,4.497,57.774,9.81,76.805,10.892c19.029,1.085,55.733,3.805,59.136,3.805c3.395,0,23.562,7.259-5.894,16.883
				c-29.455,9.623-69.888-3.971-96.568-5.331c-26.684-1.356-59.987-4.413-83.095,2.551c-23.112,6.967-33.309,2.888-33.309,18.523
				C175.158,283.059,153.778,281.473,153.778,281.473z"/>
			<path fill="#D8B888" d="M155.399,284.391c-1.145,0-1.832-0.056-1.832-0.056l-1.433-0.108l-0.778-1.215
				c-0.596-0.937-14.431-23.072-9.634-41.359c1.925-7.331,6.544-13.002,13.727-16.856c18.358-9.856,47.823-11.325,63.749-11.325
				c16.467,0,32.825,1.608,39.788,3.911c12.721,4.205,55.77,9.594,76.062,10.749c9.303,0.529,22.741,1.446,34.601,2.253
				c11.688,0.797,22.729,1.548,24.373,1.548c2.637,0,11.751,2.657,12.685,8.529c1.107,6.964-9.562,11.295-17.684,13.951
				c-7.34,2.397-15.67,3.563-25.47,3.563c-14.464,0-29.35-2.512-43.739-4.94c-10.341-1.745-20.104-3.39-28.399-3.817
				c-3.285-0.166-6.666-0.357-10.12-0.553c-11.12-0.635-22.615-1.29-33.915-1.29c-16.079,0-28.539,1.399-38.087,4.278
				c-6.623,1.994-12.23,3.109-16.74,4.007c-11.989,2.376-14.523,3.176-14.523,11.769
				C178.029,279.932,166.337,284.391,155.399,284.391z M219.198,219.212c-26.186,0-48.434,3.881-61.032,10.646
				c-5.804,3.11-9.363,7.444-10.892,13.253c-3.57,13.604,5.422,30.749,8.164,35.536c5.103-0.006,16.848-1.121,16.848-11.219
				c0-13.604,7.618-15.113,19.148-17.402c4.387-0.87,9.846-1.956,16.198-3.867c10.098-3.044,23.1-4.526,39.747-4.526
				c11.461,0,23.039,0.661,34.239,1.297c3.44,0.198,6.813,0.39,10.09,0.555c8.622,0.44,18.551,2.114,29.059,3.888
				c14.16,2.392,28.804,4.863,42.787,4.859c9.185,0,16.934-1.068,23.683-3.278c13.617-4.45,13.806-7.553,13.803-7.586
				c-0.219-1.489-5.33-3.652-7.024-3.695c-1.739,0-10.543-0.592-24.756-1.562c-11.842-0.807-25.264-1.717-34.537-2.247
				c-18.741-1.068-63.329-6.332-77.542-11.034C251.74,221.036,236.952,219.212,219.198,219.212z"/>
		</g>
		<g>
			<path fill="#EFD9B4" d="M121.628,211.814c0,0-39.762-4.337-11.217,23.189c28.553,27.524,92.782,88.702,125.409,83.601
				c32.628-5.096,85.638-26.166,35.681-70.688c0,0,9.856-23.457,24.133,0c14.271,23.45,31.945,45.199-4.079,79.184
				c-36.025,33.983-101.208,19.033-107.699,8.158c-6.491-10.871-111.166-92.437-105.049-112.833
				C84.924,202.042,118.229,185.566,121.628,211.814z"/>
			<path fill="#D8B888" d="M231.395,350.967c-22.497,0-45.398-6.521-50.004-14.236c-1.77-2.965-14.14-13.961-27.235-25.602
				c-45.331-40.299-82.502-74.849-78.098-89.528c4.116-13.72,19.589-26.216,32.458-26.216c8.824,0,14.64,5.856,15.96,16.059
				l0.467,3.616l-3.623-0.39c-0.023-0.006-2.184-0.235-5.051-0.235c-7.167,0-12.189,1.422-13.115,3.715
				c-0.397,0.993-0.913,4.983,9.25,14.785c23.576,22.726,86.188,83.097,119.388,83.097c1.25,0,2.454-0.091,3.586-0.269
				c21.472-3.352,48.233-13.009,53.005-29.192c3.057-10.392-3.266-22.677-18.789-36.512l-1.531-1.363l0.793-1.893
				c0.213-0.496,5.226-12.181,14.182-12.181c5.217,0,10.285,3.97,15.046,11.801c0.966,1.585,1.945,3.156,2.921,4.732
				c13.672,21.997,27.812,44.741-7.477,78.034C274.443,347.188,249.206,350.967,231.395,350.967z M108.516,201.128
				c-10.256,0-23.612,10.958-26.96,22.124c-3.709,12.363,48.416,58.698,76.418,83.587c17.164,15.259,26.223,23.388,28.346,26.947
				c2.72,4.556,22.081,11.438,45.075,11.438c16.772,0,40.48-3.511,58.191-20.211c31.872-30.072,20.135-48.962,6.54-70.828
				c-0.985-1.59-1.974-3.177-2.946-4.778c-3.597-5.918-7.109-9.045-10.145-9.045c-3.432,0-6.426,4.042-8,6.881
				c16.132,14.878,22.474,28.651,18.852,40.95c-5.521,18.736-33.386,29.455-57.627,33.244c-1.419,0.226-2.924,0.336-4.469,0.336
				c-31.479,0-82.466-45.269-123.37-84.708C99.17,228.152,95.709,221.26,97.829,216c1.956-4.846,8.163-7.305,18.439-7.305
				c0.634,0,1.243,0.01,1.803,0.027C116.575,203.676,113.369,201.128,108.516,201.128z"/>
		</g>
		<g>
			<path fill="#EFD9B4" d="M137.29,194.85c0,0-39.765-4.347-11.217,23.188c28.545,27.526,92.778,88.698,125.402,83.601
				c32.625-5.099,85.643-26.176,35.686-70.69c0,0,9.859-23.453,24.132,0c14.27,23.458,31.949,45.202-4.08,79.187
				c-36.024,33.984-101.21,19.026-107.698,8.155c-6.491-10.875-111.162-92.434-105.049-112.827
				C100.585,185.073,133.889,168.601,137.29,194.85z"/>
			<path fill="#D8B888" d="M247.056,333.998c-22.504,0-45.401-6.518-50.01-14.239c-1.767-2.964-14.141-13.962-27.245-25.606
				c-45.325-40.293-82.488-74.839-78.081-89.516c4.115-13.72,19.585-26.216,32.455-26.216c8.82,0,14.637,5.853,15.96,16.059
				l0.47,3.612l-3.626-0.39c-0.021,0-2.189-0.231-5.062-0.231c-7.16,0-12.179,1.423-13.102,3.712
				c-0.403,0.985-0.914,4.982,9.25,14.792c23.569,22.725,86.181,83.093,119.388,83.093c1.247,0,2.454-0.09,3.579-0.266
				c21.476-3.357,48.24-13.018,53.001-29.199c3.062-10.396-3.256-22.68-18.781-36.512l-1.529-1.366l0.791-1.893
				c0.209-0.496,5.225-12.178,14.181-12.178c5.221,0,10.281,3.967,15.05,11.801c0.963,1.584,1.941,3.163,2.921,4.73
				c13.671,21.998,27.808,44.748-7.482,78.037C290.105,330.219,264.864,333.998,247.056,333.998z M124.175,184.163
				c-10.256,0-23.609,10.958-26.957,22.126c-3.712,12.357,48.402,58.682,76.397,83.57c17.178,15.263,26.236,23.395,28.36,26.957
				c2.719,4.556,22.084,11.438,45.08,11.438c16.771,0,40.479-3.504,58.185-20.208c31.877-30.069,20.14-48.961,6.548-70.83
				c-0.989-1.584-1.979-3.18-2.947-4.777c-3.604-5.918-7.112-9.045-10.146-9.045c-3.431,0-6.425,4.039-8.001,6.878
				c16.134,14.878,22.475,28.648,18.853,40.953c-5.518,18.738-33.388,29.465-57.626,33.248c-1.419,0.223-2.924,0.336-4.466,0.336
				c-31.487,0-82.473-45.267-123.371-84.707c-9.25-8.919-12.718-15.811-10.594-21.072c1.959-4.847,8.159-7.305,18.429-7.305
				c0.642,0,1.25,0.013,1.812,0.027C132.234,186.71,129.028,184.163,124.175,184.163z"/>
		</g>
		<g>
			<path fill="#EFD9B4" d="M130.978,223.246c34.615-25.855,95.841-26.666,103.996-23.917c0,0,123.701,18.273,135.939,16.337
				c12.229-1.936,11.552,22.533,11.552,22.533s-36.702,6.117-50.976,2.035c-14.275-4.076-82.925-12.361-97.197-9.237
				c-14.272,3.117-51.657,3.801-57.774,11.278"/>
			<path fill="#D8B888" d="M345.58,244.502c-5.75,0-11.037-0.41-14.881-1.505c-13.603-3.887-82.099-12.185-95.791-9.194
				c-4.808,1.049-12.066,1.823-19.752,2.64c-13.154,1.403-33.038,3.52-36.416,7.649l-4.443-3.629
				c4.529-5.542,18.878-7.45,40.25-9.727c7.527-0.804,14.634-1.559,19.133-2.544c15.148-3.312,83.968,5.105,98.598,9.283
				c11.446,3.275,38.999-0.479,47.307-1.733c-0.182-5.631-1.452-13.499-4.626-16.284c-1.002-0.884-2.136-1.178-3.596-0.96
				c-12.309,1.956-124.104-14.451-136.812-16.331l-0.497-0.118c-7.55-2.542-67.336-1.913-101.356,23.493l-3.435-4.599
				c35.871-26.788,97.017-27.129,106.347-24.419c34.453,5.082,125.17,17.823,134.857,16.308c3.122-0.503,5.994,0.301,8.283,2.316
				c6.859,6.024,6.633,21.398,6.587,23.135l-0.065,2.363l-2.336,0.39C381.81,241.22,361.861,244.502,345.58,244.502z"/>
		</g>
		<g>
			<path fill="#EFD9B4" d="M175.158,267.43c0-15.637,10.196-11.558,33.309-18.525c23.106-6.964,56.411-3.907,83.094-2.551
				c26.683,1.36,67.114,14.955,96.569,5.332c29.454-9.625,9.287-16.884,5.894-16.884c-3.401,0-40.105-2.719-59.136-3.805
				c-19.029-1.082-63.208-6.395-76.805-10.892c-13.598-4.496-73.41-7.738-101.277,7.219l-10.173,9.694"/>
			<path fill="#D8B888" d="M178.029,267.43h-5.743c0-13.604,7.618-15.113,19.148-17.403c4.387-0.87,9.846-1.956,16.198-3.867
				c20.757-6.256,49.037-4.645,73.986-3.229c3.44,0.198,6.813,0.39,10.09,0.555c8.622,0.44,18.551,2.114,29.062,3.888
				c22.04,3.724,47.021,7.937,66.467,1.582c13.618-4.45,13.806-7.553,13.803-7.586c-0.219-1.489-5.33-3.652-7.024-3.695
				c-1.739,0-10.543-0.592-24.756-1.562c-11.842-0.807-25.264-1.717-34.537-2.247c-18.741-1.068-63.329-6.332-77.542-11.034
				c-12.797-4.235-71.693-7.348-98.677,6.849l-9.892,9.416l-3.958-4.155l10.796-10.144c28.634-15.371,89.7-11.996,103.537-7.414
				c12.721,4.205,55.77,9.594,76.062,10.749c9.304,0.529,22.741,1.446,34.601,2.253c11.688,0.797,22.729,1.548,24.373,1.548
				c2.637,0,11.751,2.657,12.685,8.529c1.107,6.964-9.562,11.295-17.684,13.951c-20.793,6.786-46.515,2.455-69.206-1.377
				c-10.344-1.745-20.107-3.39-28.402-3.817c-3.285-0.166-6.666-0.357-10.12-0.553c-24.479-1.399-52.22-2.978-72.002,2.987
				c-6.623,1.996-12.23,3.109-16.74,4.003C180.563,258.038,178.029,258.837,178.029,267.43z"/>
		</g>
		<g>
			<path fill="#EFD9B4" d="M314.663,194.545c0,0,45.901,7.629,53.722,48.071c7.815,40.442,14.613,49.616,14.613,49.616
				s9.512,22.774,14.614,5.442c5.095-17.334-14.513-82.721-32.629-99.412C346.497,181.219,318.716,182.502,314.663,194.545z"/>
			<path fill="#D8B888" d="M392.68,307.053L392.68,307.053c-5.973,0-10.739-9.971-12.222-13.453
				c-1.311-2.039-7.739-13.438-14.892-50.438c-7.354-38.043-50.934-45.712-51.373-45.785l-3.328-0.556l1.078-3.192
				c2.29-6.799,10.429-11.021,21.242-11.021c11.932,0,24.542,5.062,33.743,13.545c19.105,17.601,38.845,83.928,33.436,102.33
				C398.69,304.169,396.106,307.053,392.68,307.053z M319.202,192.64c11.755,3.083,45.309,14.815,51.998,49.434
				c7.49,38.744,14.055,48.382,14.12,48.478l0.324,0.573c2.293,5.48,5.682,10.011,7,10.188c0.165-0.105,1.151-0.849,2.215-4.447
				c4.812-16.377-14.678-80.691-31.823-96.489c-8.166-7.53-19.322-12.026-29.851-12.026
				C326.99,188.348,321.915,189.966,319.202,192.64z"/>
		</g>
		<g>
			<path fill="#EFD9B4" d="M334.852,187.621c0,0,45.278,10.739,50.317,51.621c5.042,40.882,11.195,50.498,11.195,50.498
				s7.943,23.369,14.209,6.424c6.267-16.945-8.836-83.514-25.772-101.406C367.519,176.494,339.718,175.882,334.852,187.621z"/>
			<path fill="#D8B888" d="M405.396,305.195L405.396,305.195c-6.024,0-10.099-9.768-11.655-14.271
				c-1.169-2.116-6.811-13.931-11.421-51.333c-4.741-38.457-47.698-49.077-48.131-49.176l-3.282-0.781l1.294-3.113
				c2.501-6.038,9.696-9.644,19.248-9.644c9.854,0,24.337,4.178,35.437,15.903c17.862,18.868,33.034,86.386,26.381,104.377
				C412.532,299.146,410.296,305.195,405.396,305.195z M339.516,186.032c11.521,3.877,44.188,17.869,48.501,52.858
				c4.831,39.168,10.728,49.236,10.786,49.333l0.281,0.592c1.918,5.625,4.986,10.371,6.289,10.635
				c0.172-0.09,1.211-0.766,2.508-4.282c5.922-16.009-9.138-81.506-25.167-98.438c-9.846-10.401-22.605-14.107-31.265-14.107
				C346.281,182.622,342.03,183.878,339.516,186.032z"/>
		</g>
		<g>
			<path fill="#EFD9B4" d="M356.551,183.114c0,0,45.146,11.246,49.727,52.187c4.578,40.938,10.626,50.618,10.626,50.618
				s7.673,23.457,14.131,6.584c6.458-16.87-7.884-83.61-24.618-101.69C389.337,172.359,361.543,171.429,356.551,183.114z"/>
			<path fill="#D8B888" d="M425.819,301.479L425.819,301.479c-6.06-0.002-10.044-9.86-11.561-14.4
				c-1.145-2.133-6.646-14.008-10.835-51.458c-4.302-38.428-47.142-49.61-47.572-49.716l-3.265-0.82l1.323-3.097
				c2.522-5.902,9.597-9.429,18.927-9.429c9.959,0,24.56,4.288,35.682,16.304c17.65,19.073,32.056,86.76,25.197,104.667
				C432.962,295.495,430.669,301.479,425.819,301.479z M361.236,181.583c11.479,4.009,43.978,18.364,47.895,53.397
				c4.385,39.221,10.167,49.351,10.225,49.448l0.273,0.6c1.854,5.646,4.866,10.428,6.171,10.705c0.171-0.09,1.213-0.754,2.553-4.258
				c6.104-15.943-8.211-81.599-24.044-98.709c-9.874-10.667-22.727-14.464-31.471-14.464
				C367.85,178.301,363.717,179.508,361.236,181.583z"/>
		</g>
		<g>
			<g>
				<path fill="#C54727" d="M198.178,196.226c0,0-10.925-12.671-20.976-10.924c-10.051,1.747-17.476-4.807-24.466-4.371
					c-6.991,0.44-10.925-3.06-16.604,5.244c-5.682,8.305-7.428,0-11.361,10.051c-3.931,10.051-9.611,10.488-11.361,18.349
					c-1.747,7.867,2.624,7.867,6.121,13.544c3.493,5.684,1.31,10.491,10.484,10.928c9.174,0.433,45.877,15.725,51.995,12.668
					c6.117-3.057-6.991-9.615,9.174-4.807c16.171,4.807,18.791,3.06,16.607-9.611c-2.189-12.671,5.262-4.371,0.662-16.165
					c-4.599-11.798-2.852-11.361-6.345-15.295C198.614,201.906,206.478,193.602,198.178,196.226z"/>
			</g>
			<g>
				<path fill="#A24723" d="M179.63,255.564c-6.08,0-17.858-3.773-29.246-7.417c-8.449-2.707-17.19-5.505-20.531-5.661
					c-8.153-0.39-10.052-4.103-11.54-8.552c-0.437-1.31-0.894-2.664-1.72-4.007c-0.908-1.482-1.924-2.524-2.902-3.53
					c-2.454-2.527-5.237-5.386-3.643-12.571c1.082-4.857,3.448-7.464,5.733-9.988c1.998-2.201,4.066-4.483,5.783-8.87
					c2.376-6.071,4.675-7.451,8.09-7.881c1.064-0.133,1.832-0.225,3.636-2.859c3.41-4.982,6.892-7.113,11.642-7.113
					c1.022,0,2.077,0.099,3.195,0.205c1.391,0.132,2.812,0.274,4.394,0.172c3.637-0.231,7.081,0.976,10.694,2.253
					c3.348,1.181,6.808,2.405,10.533,2.405c0.959,0,1.925-0.079,2.864-0.245c0.828-0.146,1.682-0.215,2.542-0.215
					c8.638,0,16.88,7.381,20.158,10.706c2.895-0.479,4.525,0.672,5.283,1.638c1.535,1.952,0.97,4.262,0.477,6.299
					c-0.176,0.708-0.701,2.865-0.39,3.213c2.453,2.759,2.897,3.986,3.823,7.136c0.529,1.79,1.331,4.506,3.156,9.194
					c2.441,6.266,2.37,8.966-0.317,11.557c-0.317,0.311-0.92,0.89-0.159,5.276c1.05,6.097,1.204,10.465-1.263,13.393
					c-1.516,1.795-3.818,2.709-6.836,2.709l0,0c-2.895,0-6.749-0.777-12.883-2.604c-1.217-0.36-2.21-0.638-3.021-0.853
					c0.056,2.875-1.79,4.519-3.636,5.442C182.516,255.311,181.235,255.564,179.63,255.564z M144.932,184.011
					c-1.399,0-3.143,0-5.955,4.109c-3.282,4.794-5.981,5.499-8.47,5.806c-0.248,0.03-0.589,0.073-0.685,0.109
					c-0.01,0.014-0.679,0.47-1.843,3.444c-2.177,5.568-4.903,8.572-7.093,10.987c-2.065,2.276-3.428,3.778-4.109,6.854
					c-0.795,3.554-0.232,4.129,1.853,6.273c1.125,1.155,2.521,2.598,3.832,4.721c1.243,2.022,1.879,3.911,2.385,5.433
					c1.039,3.1,1.224,3.659,5.33,3.857c4.255,0.202,12.617,2.878,22.309,5.981c10.378,3.322,22.14,7.087,27.145,7.087
					c0.166,0,0.306-0.007,0.425-0.01c-0.027-0.069-0.054-0.129-0.08-0.182c-0.453-1.042-1.297-2.974-0.063-4.863
					c0.556-0.847,1.671-1.863,3.835-1.863c1.562,0,4.003,0.536,8.42,1.853c3.345,0.992,8.118,2.315,10.921,2.315l0,0
					c1.119,0,1.522-0.205,1.568-0.261c0.209-0.251,0.813-1.552-0.259-7.781c-1.141-6.607-0.039-9.257,2.125-11.365
					c-0.063-0.49-0.312-1.661-1.277-4.135c-1.932-4.966-2.786-7.847-3.345-9.753c-0.738-2.495-0.811-2.759-2.365-4.503
					c-2.31-2.597-1.946-5.879-1.43-8.264l-1.052,0.327l-1.482-1.71c-2.386-2.756-9.981-9.896-16.416-9.896
					c-0.467,0-0.924,0.037-1.363,0.113c-1.326,0.231-2.687,0.347-4.043,0.347c-4.91,0-9.117-1.489-12.83-2.802
					c-3.07-1.085-5.677-2.021-7.967-1.873c-2.077,0.129-3.92-0.043-5.479-0.192C146.586,184.097,145.745,184.011,144.932,184.011z"
					/>
			</g>
		</g>
		<g>
			<path fill="#C55928" d="M200.877,220.04c0,0-13.545,1.747-13.984,9.174c-0.434,7.431-3.061,6.121-6.554,8.745
				c-3.494,2.617-6.114,3.927-6.114,7.424s-3.064,4.371,0,12.234c3.057,7.865,3.057,11.361,4.804,14.422
				c1.747,3.057,2.624,6.986,9.614,8.734c6.987,1.75,8.298,6.558,14.854,11.797c6.554,5.244,5.241,8.305,13.545,9.179
				c8.304,0.87-0.873-5.681,10.921,0c11.798,5.677,9.182,8.301,17.915,5.677c8.737-2.619,5.247,0.44,10.052-5.24
				c4.807-5.681,1.311-3.934,7.428-6.99c6.117-3.062,9.613,1.746,9.613-10.051s-8.302-14.418,0-17.916
				c8.297-3.492,13.107,1.75,10.049-11.359c-3.059-13.105,10.051-11.358-5.24-16.166c-15.292-4.804-9.615-22.282-15.292-19.662
				c-5.685,2.624-7.431-4.371-12.237-8.301c-4.808-3.934,7.866-10.488-6.555-6.554c-14.418,3.93-20.535-3.058-24.905,3.493
				c-4.367,6.554-20.535-9.178-17.038,1.314C205.244,220.479,200.877,220.04,200.877,220.04z"/>
			<path fill="#A24723" d="M240.85,311.891c-2.839,0-4.572-1.164-6.759-2.638c-1.618-1.088-3.832-2.577-7.62-4.403
				c-1.416-0.681-2.428-1.135-3.137-1.433c-1.059,1.231-2.706,1.854-4.899,1.854c-0.499,0-1.082-0.026-1.75-0.098
				c-6.362-0.671-8.45-2.615-11.13-5.738c-1.039-1.213-2.217-2.582-4.207-4.177c-2.595-2.073-4.401-4.046-5.989-5.786
				c-2.564-2.802-4.112-4.498-7.553-5.358c-7.441-1.859-9.545-6.022-11.08-9.062c-0.225-0.448-0.446-0.89-0.688-1.307
				c-1.089-1.909-1.595-3.794-2.236-6.188c-0.59-2.188-1.32-4.91-2.79-8.688c-2.365-6.08-1.657-9.064-0.655-11.824
				c0.284-0.781,0.42-1.181,0.42-1.661c0-4.761,3.107-7.004,6.114-9.171c0.44-0.321,0.904-0.651,1.384-1.012
				c1.185-0.887,2.256-1.413,3.116-1.826c1.542-0.748,1.859-0.903,2.064-4.357c0.533-9.068,12.698-11.705,16.201-12.274
				c0.023-0.804-0.122-2.501-1.175-5.661c-0.647-1.939-1.204-4.414,0.222-6.395c0.5-0.692,1.665-1.856,3.822-1.856
				c1.859,0,3.943,0.903,6.351,1.952c2.165,0.939,4.858,2.11,6.502,2.11c0.374,0,0.503-0.066,0.503-0.066
				c2.722-4.08,6.187-4.545,8.559-4.545c1.307,0,2.67,0.159,4.116,0.324c1.693,0.199,3.619,0.417,5.782,0.417
				c2.819,0,5.585-0.377,8.45-1.161c3.428-0.937,5.498-1.333,6.922-1.333c2.313,0,3.46,1.092,4.017,2.012
				c1.244,2.061,0.198,4.042-0.494,5.353c-0.182,0.348-0.492,0.934-0.629,1.324c1.791,1.516,3.121,3.229,4.299,4.751
				c1.111,1.429,2.49,3.206,3.246,3.206c0.218,0,0.531-0.093,0.894-0.262c0.837-0.384,1.67-0.583,2.472-0.583
				c4.186,0,5.096,4.248,5.764,7.349c0.998,4.658,2.246,10.448,9.533,12.74c5.996,1.886,8.726,2.981,9.697,5.565
				c0.824,2.19-0.277,4.006-1.006,5.21c-0.955,1.572-2.145,3.527-1.125,7.894c1.211,5.198,1.572,8.691-0.179,11.188
				c-1.604,2.287-4.146,2.588-6.386,2.856c-1.617,0.195-3.446,0.409-5.504,1.273c-0.774,0.329-1.234,0.585-1.49,0.754
				c0.162,0.489,0.494,1.239,0.752,1.833c1.132,2.574,2.849,6.462,2.849,12.15c0,8.5-1.894,11.457-7.78,12.17
				c-1.231,0.15-2.398,0.291-3.742,0.963c-1.588,0.794-2.847,1.422-3.123,1.638c0.065-0.043,0.006,0.065-0.075,0.205
				c-0.454,0.754-1.208,2.015-3.142,4.294c-0.607,0.721-1.084,1.297-1.461,1.764c-1.847,2.254-2.562,2.981-5.234,3.389
				c-0.906,0.139-2.27,0.35-4.992,1.16C244.111,311.549,242.364,311.891,240.85,311.891z M221.905,295.96
				c1.283,0,2.871,0.427,7.553,2.685c4.238,2.037,6.789,3.754,8.479,4.893c1.909,1.288,2.264,1.467,2.912,1.467
				c0.777,0,2.023-0.271,4.039-0.877c3.187-0.956,4.903-1.218,5.932-1.37c0.066-0.013,0.13-0.022,0.188-0.028
				c0.191-0.22,0.427-0.521,0.755-0.92c0.398-0.49,0.896-1.093,1.534-1.848c1.568-1.855,2.12-2.779,2.491-3.387
				c1.236-2.068,1.965-2.434,6.025-4.465c2.414-1.207,4.484-1.455,5.994-1.637c0.399-0.051,0.922-0.113,1.207-0.18
				c0.161-0.384,0.51-1.638,0.51-5.15c0-4.238-1.254-7.09-2.265-9.379c-0.991-2.264-2.026-4.605-1.011-7.149
				c0.969-2.441,3.387-3.72,5.385-4.56c2.948-1.244,5.5-1.55,7.362-1.771c0.481-0.054,1.081-0.126,1.505-0.205
				c0.021-0.658-0.076-2.16-0.838-5.429c-1.448-6.21,0.159-9.945,1.427-12.169c-0.873-0.351-2.235-0.827-4.351-1.496
				c-11.116-3.494-13.124-12.839-14.203-17.865c-0.09-0.414-0.191-0.897-0.299-1.344c-0.706,0.189-1.408,0.281-2.09,0.281
				c-4.133,0-6.555-3.117-8.688-5.869c-1.054-1.36-2.144-2.763-3.395-3.785c-2.368-1.938-2.633-4.268-2.263-6.217
				c-0.37,0.093-0.767,0.202-1.204,0.318c-3.467,0.946-6.822,1.406-10.263,1.406c-2.561,0-4.783-0.255-6.573-0.463
				c-1.294-0.149-2.419-0.282-3.325-0.282c-1.476,0-2.025,0.282-2.786,1.423c-0.969,1.452-2.845,3.189-6.272,3.189
				c-3.076,0-6.358-1.422-9.25-2.68c-0.159-0.069-0.331-0.146-0.503-0.218c1.35,4.817,1.218,8.132-0.381,10.352
				c-0.981,1.366-2.518,2.2-4.132,2.25c-3.44,0.5-10.587,2.6-10.785,5.935c-0.403,6.934-2.815,8.642-5.929,10.147
				c-0.688,0.337-1.337,0.651-1.996,1.148c-0.515,0.384-1.008,0.741-1.481,1.085c-2.828,2.038-3.259,2.511-3.259,3.583
				c0,1.717-0.46,2.991-0.834,4.013c-0.549,1.504-1.019,2.806,0.603,6.971c1.608,4.133,2.422,7.183,3.021,9.406
				c0.553,2.061,0.917,3.42,1.565,4.556c0.298,0.522,0.575,1.063,0.854,1.618c1.29,2.547,2.217,4.386,6.603,5.484
				c5.452,1.366,8.132,4.293,10.965,7.396c1.492,1.63,3.034,3.313,5.207,5.051c2.501,2.002,3.964,3.702,5.135,5.071
				c1.889,2.197,2.527,2.941,6.62,3.372c0.269,0.03,0.507,0.05,0.731,0.057C219.136,296.152,221.211,295.96,221.905,295.96z"/>
		</g>
		<g>
			<path fill="#D84726" d="M227.698,149.127c0,0-22.818-5.241-26.702,0c-3.884,5.244-16.118,0-19.176,2.187
				c-3.06,2.187-4.808-3.06-6.994,3.931c-2.183,6.99-6.551,13.984-5.24,18.352c1.31,4.37-0.483,2.62-0.238,7.431
				c0.238,4.804,0.238,5.677,5.916,10.047c5.684,4.371,0.046,11.861,3.52,15.321c3.475,3.467-1.124,6.498,6.637,8.476
				c7.762,1.982-1.052,5.433,15.576,9.846c16.628,4.417,14.246,3.653,21.128,1.827c6.888-1.827,7.761,2.531,16.495,1.446
				c8.741-1.085,6.554-3.709,10.052-7.643c3.492-3.931,1.396-0.351,8.571-4.804c7.177-4.456,11.09-8.301,13.713-13.984
				c2.617-5.678,6.117-4.804,0-12.235c-6.116-7.424-4.37-9.174-6.558-17.912c-2.183-8.741-1.646-10.488-7.155-12.671
				c-5.515-2.184-0.271,2.183-9.445-4.808c-9.178-6.991-8.741-14.418-14.418-9.611C227.698,149.127,227.698,149.127,227.698,149.127
				z"/>
			<path fill="#A24723" d="M235.927,231.609c-3.289,0-5.509-0.741-7.292-1.336c-2.052-0.682-3.342-1.006-5.628-0.397
				c-0.894,0.235-1.624,0.457-2.26,0.642c-1.707,0.513-3.057,0.917-4.942,0.917c-2.799,0-6.217-0.871-15.691-3.385
				c-9.704-2.581-12.344-5.082-13.823-8.794c-0.069-0.179-0.122-0.357-0.221-0.516l0,0c-0.021,0-0.384-0.242-1.502-0.529
				c-5.866-1.496-7.286-4.142-7.62-7.652c-0.097-1.026-0.136-1.257-0.599-1.721c-2.7-2.692-2.322-6.259-2.024-9.124
				c0.344-3.299,0.337-4.758-1.158-5.909c-6.303-4.847-6.961-6.574-7.255-12.493c-0.144-2.786,0.247-4.076,0.658-5.17l0.072-0.206
				l0,0c-0.023,0-0.066-0.384-0.354-1.347c-1.241-4.135,0.733-8.922,2.828-13.988c0.866-2.104,1.768-4.277,2.426-6.385
				c0.528-1.697,1.941-6.214,6.097-6.214c0.813,0,1.509,0.186,2.019,0.325c0.1,0.026,0.198,0.06,0.304,0.086
				c1.496-0.993,3.272-1.108,4.496-1.108c1.442,0,3.041,0.188,4.729,0.387c1.736,0.202,3.533,0.417,5.144,0.414
				c1.433,0,3.272-0.179,3.901-1.029c1.879-2.542,5.508-3.726,11.414-3.726c6.318,0,13.809,1.376,17.117,2.051l4.387-3.712
				c1.191-1.005,3.037-2.342,5.277-2.342c3.16,0,4.926,2.349,6.799,4.83c1.528,2.031,3.427,4.552,6.659,7.017
				c1.123,0.854,3.512,2.673,4.612,3.414c1.028-0.03,2.257,0.235,4.015,0.93c6.325,2.508,7.01,5.499,8.379,11.46
				c0.242,1.039,0.514,2.223,0.854,3.58c0.672,2.676,0.996,4.764,1.254,6.438c0.599,3.825,0.87,5.568,4.618,10.121
				c4.855,5.898,5.33,8.701,2.199,13.031c-0.578,0.804-1.18,1.635-1.731,2.832c-2.862,6.2-7.073,10.534-15.022,15.467
				c-3.713,2.303-5.381,2.779-6.744,3.041c-0.172,0.152-0.488,0.473-1.067,1.125c-0.755,0.85-1.129,1.591-1.565,2.454
				c-1.829,3.613-3.892,5.482-10.64,6.319C237.965,231.54,236.912,231.609,235.927,231.609z M225.293,222.646
				c2.256,0,3.993,0.579,5.525,1.092c1.575,0.529,2.94,0.983,5.108,0.983c0.704,0,1.469-0.053,2.269-0.152
				c4.295-0.533,4.559-1.052,5.341-2.594c0.509-1.013,1.217-2.402,2.561-3.917c1.916-2.153,2.885-2.934,4.874-3.309
				c0.512-0.095,1.463-0.278,4.456-2.133c6.775-4.202,10.136-7.593,12.403-12.5c0.829-1.807,1.738-3.063,2.4-3.98
				c0.22-0.298,0.494-0.685,0.637-0.919c-0.137-0.367-0.652-1.374-2.571-3.702c-4.718-5.724-5.366-8.688-6.104-13.436
				c-0.254-1.618-0.539-3.454-1.133-5.833c-0.35-1.403-0.629-2.627-0.881-3.706c-1.244-5.426-1.244-5.426-4.205-6.597
				c-0.676-0.268-1.06-0.377-1.24-0.423c-0.203,0.033-0.461,0.066-0.762,0.066l0,0c-1.76,0-2.732-0.698-8.262-4.913
				c-3.986-3.037-6.299-6.108-7.99-8.347c-0.488-0.652-1.062-1.417-1.476-1.869c-0.165,0.109-0.376,0.268-0.642,0.493l-6.994,5.922
				l-1.68-0.387c-0.1-0.023-9.866-2.243-17.283-2.243c-4.87,0-5.896,0.956-5.906,0.969c-2.802,3.781-7.774,3.781-9.406,3.781
				c-2.018,0.003-4.107-0.241-5.947-0.46c-1.486-0.172-2.886-0.337-3.928-0.337c-0.453,0-0.707,0.03-0.823,0.053
				c-1.082,0.721-2.26,1.085-3.508,1.085c-0.615,0-1.157-0.086-1.614-0.192c-0.112,0.278-0.244,0.648-0.396,1.132
				c-0.748,2.398-1.707,4.718-2.634,6.954c-1.469,3.56-3.133,7.59-2.594,9.379c0.887,2.955,0.741,4.317,0.133,5.942
				c-0.159,0.426-0.312,0.831-0.235,2.306c0.208,4.122,0.208,4.122,4.582,7.49c4.698,3.612,4.163,8.708,3.812,12.082
				c-0.133,1.26-0.331,3.163,0.036,3.53c2.24,2.24,2.459,4.562,2.591,5.955c0.026,0.274,0.063,0.646,0.099,0.781
				c0.008-0.003,0.523,0.367,2.369,0.844c4.479,1.141,5.625,3.183,6.418,5.174c0.371,0.933,0.996,2.501,9.191,4.678
				c8.022,2.131,11.971,3.156,13.922,3.156c0.837,0,1.416-0.166,2.971-0.628c0.695-0.206,1.489-0.443,2.469-0.701
				C222.684,222.832,224.01,222.646,225.293,222.646z"/>
		</g>
		<g>
			<g>
				<path fill="#C54727" d="M304.453,169.394c0,0-20.535-4.367-23.596,0c-3.058,4.367-8.166,3.302-12.234,7.041
					c-4.068,3.742-7.665,3.342-7.202,9.353c0.463,6.015-0.291,5.456-0.039,15.937c0.25,10.491,2.242,11.801,4.962,21.416
					c2.717,9.61,5.776,16.161,12.768,19.658c6.986,3.498,1.311,2.624,13.545,0c12.233-2.62,10.925,10.488,20.095-4.367
					c9.179-14.854-2.62-14.417,9.615-17.478c12.233-3.06,16.168-4.37,13.542-17.039c-2.614-12.671-1.309-12.671-6.551-16.608
					c-5.244-3.931-3.494-15.725-11.796-13.104C309.257,176.822,310.567,162.403,304.453,169.394z"/>
			</g>
			<g>
				<path fill="#A24723" d="M305.571,249.097c-1.918,0-3.432-0.863-4.769-1.621c-1.444-0.817-2.805-1.591-4.973-1.591
					c-0.753,0-1.578,0.096-2.451,0.281c-3.742,0.801-5.727,1.429-6.918,1.81c-1.055,0.331-1.816,0.575-2.746,0.575
					c-1.416,0-2.392-0.575-3.428-1.184c-0.582-0.344-1.416-0.834-2.719-1.486c-8.123-4.063-11.586-11.354-14.541-21.806
					c-0.807-2.845-1.549-4.95-2.203-6.802c-1.567-4.44-2.699-7.649-2.893-15.463c-0.129-5.407,0.008-8.027,0.106-9.942
					c0.095-1.836,0.159-3.047-0.054-5.816c-0.485-6.276,2.752-8.337,5.355-9.995c0.963-0.612,1.956-1.244,2.948-2.157
					c2.396-2.203,5.035-3.1,7.159-3.818c2.346-0.801,3.615-1.28,4.586-2.664c1.63-2.325,4.902-3.411,10.299-3.411
					c5.412,0,11.881,1.072,14.994,1.654c1.062-0.894,2.408-1.647,4.021-1.647c3.11,0,4.679,2.561,5.826,4.43
					c1.509,2.465,1.977,2.898,3.345,2.472c1.143-0.361,2.193-0.536,3.213-0.536c5.733,0,7.562,5.122,8.896,8.86
					c0.771,2.16,1.568,4.394,2.789,5.313c4.989,3.738,5.413,5.287,6.597,11.973c0.306,1.73,0.689,3.894,1.269,6.689
					c3.206,15.497-3.306,17.886-16.082,21.079c-1.73,0.433-2.732,0.741-3.318,0.956c0.321,2.488,0.737,6.997-4.198,14.99
					C312.311,245.707,309.439,249.097,305.571,249.097z M295.831,238.997c3.987,0,6.627,1.499,8.375,2.491
					c0.433,0.245,1.008,0.573,1.312,0.685c0.396-0.229,1.639-1.241,4.306-5.552c3.795-6.146,3.438-8.886,3.202-10.699
					c-0.73-5.584,2.727-6.865,8.506-8.311c11.791-2.948,13.024-3.255,11.004-12.999c-0.593-2.875-0.986-5.108-1.303-6.885
					c-0.96-5.426-0.96-5.426-3.944-7.666c-2.885-2.16-4.086-5.531-5.146-8.505c-1.039-2.905-1.664-4.288-2.408-4.288
					c-0.204,0-0.572,0.04-1.139,0.218c-1.016,0.318-2.008,0.483-2.957,0.483c-4.705,0-6.978-3.705-8.337-5.922
					c-0.073-0.123-0.155-0.258-0.246-0.397c0,0-0.006,0.006-0.013,0.013l-1.33,1.519l-1.976-0.42
					c-0.093-0.02-8.866-1.866-15.403-1.866c-3.32,0-4.5,0.49-4.768,0.629c-2.297,3.176-5.399,4.228-7.9,5.081
					c-1.816,0.616-3.389,1.145-4.712,2.362c-1.44,1.327-2.812,2.197-3.913,2.901c-2.221,1.413-2.355,1.499-2.188,3.649
					c0.248,3.216,0.166,4.754,0.065,6.703c-0.099,1.906-0.218,4.281-0.099,9.422c0.164,6.72,1.041,9.211,2.5,13.336
					c0.688,1.952,1.47,4.162,2.332,7.219c2.51,8.867,5.115,14.577,10.994,17.518c1.506,0.751,2.463,1.317,3.137,1.71
					c0.066,0.04,0.127,0.08,0.183,0.112c0.126-0.043,0.263-0.085,0.421-0.135c1.303-0.414,3.486-1.105,7.545-1.975
					C293.284,239.142,294.591,238.997,295.831,238.997z"/>
			</g>
		</g>
		<g>
			<path fill="#49B867" d="M220.816,308.374c-3.1,0.687-6.11-1.613-9.012,1.899c-2.901,3.514-2.849,3.646-6.759,3.799
				c-4.646,0.175-2.031-2.326-4.493-3.365c-2.236-0.946-4.099,0.482-6.283-0.784c-2.177-1.269-1.644-4.126-4.618-4.813
				c-2.978-0.685-5.763,2.617-5.819-4.37c-0.033-4.142-0.873-3.787-2.315-4.927c-5.016-3.939-3.494-7.959,3.48-9.071
				c5.415-0.866,2.719-2.421,6.04-3.226c0.888-0.213,3.766-0.906,5.248,0.375c1.479,1.282,4.513,2.191,5.396,1.979
				c0.883-0.213,4.258-0.799,5.068,1.587c0.812,2.382,1.28,5.312,3.994,4.894c2.71-0.42,4.215,0.299,4.671,2.853
				c0.913,5.121,4.324,5.711,6.663,8.394C223.226,304.907,223.91,307.691,220.816,308.374z"/>
			<path fill="#0D9F49" d="M204.603,315.229c-2.987,0-3.553-1.311-3.851-2.537c-0.136-0.562-0.179-0.73-0.646-0.926
				c-0.681-0.291-1.551-0.269-2.431-0.203c-0.397,0.035-0.798,0.063-1.198,0.063c-0.668,0-1.68-0.071-2.782-0.708
				c-1.233-0.718-1.804-1.822-2.253-2.71c-0.579-1.125-0.933-1.724-2.048-1.981c-0.605-0.139-1.38-0.025-2.041,0.08
				c-0.493,0.075-0.963,0.146-1.391,0.146c-2.848,0-3.255-2.882-3.275-5.703c-0.025-2.783-0.336-2.983-1.084-3.472
				c-0.245-0.161-0.51-0.334-0.798-0.562c-3.565-2.81-3.569-5.264-3.252-6.479c0.605-2.334,3.183-3.979,7.266-4.635
				c2.567-0.41,2.881-0.893,3.182-1.359c0.468-0.73,1.033-1.422,2.767-1.846c0.522-0.123,1.717-0.41,2.978-0.41
				c1.39,0,2.494,0.348,3.289,1.031c1.104,0.957,3.407,1.734,4.326,1.734c0.368-0.076,1.204-0.252,2.171-0.252
				c2.211,0,3.738,0.913,4.304,2.584c0.113,0.327,0.219,0.668,0.325,1.009c0.738,2.359,1.185,3.312,2.411,3.12
				c3.508-0.535,5.427,0.721,5.975,3.785c0.55,3.086,2.075,4.241,3.839,5.584c0.86,0.654,1.753,1.333,2.561,2.253
				c0.896,1.032,1.581,2.759,1.078,4.285c-0.277,0.847-1.019,1.948-2.957,2.375c-1.046,0.231-2.307,0.157-3.504,0.028
				c-1.559-0.164-3.094-0.666-4.874,1.479l-0.337,0.41c-2.739,3.331-3.117,3.646-7.262,3.805L204.603,315.229z M198.706,309.21
				c0.86,0,1.589,0.14,2.293,0.438c1.535,0.647,1.816,1.81,1.986,2.508c0.145,0.607,0.188,0.773,1.617,0.773l0.396-0.007
				c3.235-0.123,3.235-0.123,5.579-2.968l0.34-0.413c1.804-2.179,3.735-2.433,5.028-2.433c0.615,0,1.234,0.065,1.859,0.133
				c0.956,0.1,1.982,0.186,2.763,0.01c0.711-0.156,1.139-0.439,1.274-0.848c0.197-0.608-0.163-1.521-0.632-2.055
				c-0.649-0.752-1.41-1.33-2.217-1.941c-1.876-1.426-4-3.04-4.708-7.008c-0.394-2.187-1.525-2.211-3.364-1.918
				c-3.408,0.502-4.281-2.549-4.956-4.709c-0.1-0.317-0.199-0.642-0.305-0.948c-0.086-0.259-0.351-1.032-2.131-1.032
				c-0.741,0-1.396,0.146-1.581,0.188c-0.173,0.043-0.371,0.063-0.59,0.063c-1.476,0-4.34-0.999-5.829-2.29
				c-0.357-0.309-0.979-0.475-1.786-0.475c-0.989,0-1.962,0.236-2.429,0.349c-0.992,0.238-1.131,0.457-1.383,0.851
				c-0.642,0.992-1.436,1.863-4.754,2.396c-3.034,0.479-5.053,1.582-5.405,2.94c-0.298,1.146,0.599,2.638,2.45,4.098
				c0.229,0.178,0.44,0.312,0.633,0.439c1.452,0.945,2.094,1.744,2.123,5.377c0.03,3.426,0.698,3.426,0.982,3.426
				c0.314,0,0.663-0.059,1.026-0.118c0.933-0.147,2.011-0.259,2.921-0.046c2.207,0.509,2.969,1.986,3.577,3.173
				c0.396,0.776,0.711,1.39,1.362,1.771c0.731,0.426,1.646,0.42,2.64,0.344C197.894,309.241,198.297,309.21,198.706,309.21z"/>
		</g>
		<g>
			<path fill="#49B867" d="M172.418,218.035c-1.475,2.809-5.175,3.623-4.36,8.106c0.807,4.482,0.945,4.532-1.466,7.612
				c-2.862,3.662-3.087,0.056-5.469,1.26c-2.163,1.099-2.276,3.447-4.651,4.294c-2.376,0.847-4.215-1.409-6.659,0.423
				c-2.446,1.83-1.725,6.088-7.094,1.622c-3.187-2.647-3.464-1.777-5.261-1.41c-6.246,1.284-8.334-2.471-4.682-8.516
				c2.836-4.695-0.093-3.639,1.437-6.693c0.409-0.82,1.733-3.464,3.673-3.765c1.938-0.301,4.584-2.035,4.995-2.849
				c0.403-0.814,2.141-3.765,4.482-2.845c2.342,0.917,4.887,2.448,6.315,0.105c1.427-2.335,2.948-3.023,5.194-1.723
				c4.5,2.607,7.153,0.38,10.709,0.328C171.33,213.958,173.9,215.229,172.418,218.035z"/>
			<path fill="#0D9F49" d="M146.324,244.475c-1.141,0-2.478-0.691-4.337-2.236c-1.3-1.082-2.131-1.584-2.613-1.584
				c-0.196,0-0.424,0.069-0.741,0.165c-0.278,0.083-0.582,0.176-0.946,0.249c-0.883,0.182-1.72,0.274-2.485,0.274
				c-2.867,0-4.185-1.261-4.78-2.319c-1.115-1.975-0.625-4.879,1.373-8.188c1.347-2.23,1.175-2.779,1.009-3.312
				c-0.251-0.83-0.417-1.707,0.384-3.305c0.496-0.986,1.998-3.99,4.521-4.383c1.667-0.262,3.851-1.76,4.154-2.243
				c0.421-0.844,2.028-3.64,4.605-3.64c0.444,0,0.887,0.083,1.313,0.255c0.327,0.125,0.652,0.264,0.982,0.403
				c1.007,0.424,2.045,0.864,2.81,0.864c0.423,0,0.777-0.119,1.127-0.688c1.827-3.004,4.033-3.698,6.75-2.12
				c1.307,0.754,2.508,1.107,3.778,1.107l0,0c0.999,0,1.952-0.214,2.961-0.436c1.055-0.238,2.153-0.483,3.378-0.5l0,0
				c1.432,0,3.163,0.608,3.983,1.961c0.456,0.758,0.807,2.028-0.113,3.772c-0.588,1.125-1.429,1.922-2.239,2.693
				c-1.412,1.35-2.436,2.326-2.011,4.674l0.095,0.53c0.774,4.241,0.771,4.728-1.786,7.993c-1.151,1.475-2.137,2.134-3.189,2.134
				c-0.642,0-1.138-0.248-1.538-0.45c-0.51-0.254-0.698-0.324-1.125-0.105c-0.764,0.387-1.207,1.009-1.717,1.73
				c-0.688,0.959-1.466,2.048-3.07,2.62c-1.158,0.411-2.488,0.215-3.521-0.026c-1.092-0.248-1.965-0.364-2.832,0.284
				c-0.532,0.397-0.903,1.012-1.264,1.608C148.644,243.245,147.902,244.472,146.324,244.475z M139.374,238.358
				c1.121,0,2.229,0.572,4.078,2.11c1.787,1.486,2.565,1.707,2.869,1.707c0.258,0,0.5-0.354,0.953-1.105
				c0.43-0.711,0.959-1.594,1.849-2.263c1.473-1.095,3.246-1.026,4.731-0.678c0.823,0.188,1.578,0.331,2.233,0.096
				c0.92-0.332,1.383-0.976,1.965-1.796c0.602-0.84,1.284-1.797,2.548-2.438c1.264-0.642,2.508-0.242,3.196,0.103
				c0.201,0.099,0.409,0.205,0.509,0.205c0.017,0,0.414-0.013,1.384-1.25c1.99-2.55,1.99-2.55,1.332-6.167l-0.096-0.539
				c-0.645-3.563,1.205-5.323,2.687-6.74c0.708-0.674,1.377-1.313,1.794-2.101c0.337-0.642,0.396-1.151,0.179-1.515
				c-0.335-0.556-1.251-0.854-1.943-0.854c-1.034,0.016-1.965,0.222-2.953,0.443c-1.086,0.241-2.21,0.489-3.461,0.489l0,0
				c-1.667,0-3.282-0.463-4.93-1.416c-0.569-0.328-1.065-0.496-1.473-0.496c-0.453,0-1.168,0.191-2.167,1.829
				c-0.714,1.168-1.78,1.787-3.086,1.787c-1.231,0-2.485-0.533-3.702-1.045c-0.312-0.129-0.618-0.261-0.927-0.38
				c-1.304-0.52-2.563,1.35-3.037,2.292c-0.645,1.291-3.758,3.143-5.842,3.467c-0.616,0.096-1.608,0.718-2.826,3.144
				c-0.449,0.91-0.378,1.151-0.238,1.598c0.348,1.131,0.496,2.299-1.237,5.178c-1.509,2.491-2.011,4.688-1.344,5.872
				c0.536,0.95,1.811,1.152,2.782,1.152c0.609,0,1.291-0.076,2.029-0.229c0.284-0.06,0.522-0.132,0.743-0.198
				C138.401,238.49,138.845,238.358,139.374,238.358z"/>
		</g>
		<g>
			<path fill="#49B867" d="M172.789,149.947c-0.576,3.117-3.868,4.996-1.764,9.039c2.107,4.037,2.252,4.043,0.863,7.702
				c-1.648,4.348-2.932,0.966-4.85,2.829c-1.737,1.69-1.145,3.967-3.163,5.481c-2.018,1.509-4.439-0.096-6.233,2.379
				c-1.793,2.478,0.166,6.329-6.289,3.656c-3.828-1.582-3.835-0.668-5.443,0.218c-5.583,3.081-8.693,0.113-7-6.743
				c1.314-5.326-1.171-3.447-0.615-6.818c0.146-0.9,0.629-3.822,2.386-4.685c1.76-0.864,3.775-3.299,3.924-4.205
				c0.146-0.894,0.926-4.229,3.438-4.046c2.508,0.178,5.393,0.886,6.062-1.773c0.668-2.657,1.914-3.765,4.445-3.193
				c5.072,1.152,6.942-1.757,10.326-2.868C170.532,146.374,173.364,146.831,172.789,149.947z"/>
			<path fill="#0D9F49" d="M142.007,183.614c-1.473,0-2.689-0.562-3.522-1.627c-1.294-1.648-1.532-4.331-0.689-7.755
				c0.622-2.524,0.295-2.997-0.017-3.457c-0.488-0.718-0.905-1.505-0.618-3.269c0.179-1.089,0.726-4.404,3.014-5.528
				c1.513-0.745,3.156-2.825,3.303-3.375c0.396-2.412,1.753-5.002,4.366-5.002l0.281,0.01c0.348,0.023,0.701,0.06,1.056,0.096
				c0.615,0.059,1.231,0.119,1.806,0.119c1.443,0,1.821-0.396,2.006-1.125c0.258-1.039,1.053-4.208,4.363-4.208
				c0.447,0,0.937,0.06,1.449,0.179c0.691,0.156,1.35,0.238,1.956,0.238h0.003c1.896,0,3.186-0.741,4.678-1.601
				c0.939-0.536,1.909-1.095,3.073-1.476c1.694-0.556,3.735-0.152,4.725,1.039c0.479,0.576,0.986,1.615,0.675,3.285
				c-0.228,1.248-0.79,2.26-1.337,3.239c-0.945,1.708-1.633,2.941-0.531,5.062l0.247,0.477c1.998,3.818,2.141,4.281,0.676,8.162
				c-0.583,1.531-1.417,3.1-3.196,3.1c-0.269,0-0.543-0.04-0.82-0.086c-0.165-0.026-0.331-0.06-0.51-0.06
				c-0.119,0-0.298,0-0.603,0.292c-0.608,0.596-0.85,1.32-1.124,2.16c-0.371,1.122-0.788,2.392-2.151,3.417
				c-1.141,0.854-2.375,0.946-3.367,1.019c-1.265,0.093-1.952,0.185-2.624,1.112c-0.387,0.536-0.56,1.234-0.725,1.909
				c-0.304,1.248-0.767,3.13-3.136,3.13c-0.957,0-2.16-0.314-3.799-0.993c-1.263-0.519-2.131-0.774-2.653-0.774
				c-0.331,0-0.482,0.096-0.97,0.42c-0.241,0.163-0.506,0.337-0.823,0.516C144.832,183.157,143.33,183.614,142.007,183.614z
				 M147.956,155.899c-1.694,0-2.197,2.964-2.22,3.09c-0.232,1.425-2.657,4.119-4.55,5.045c-0.559,0.277-1.319,1.167-1.76,3.84
				c-0.165,1.003-0.02,1.215,0.245,1.598c0.668,0.979,1.157,2.052,0.354,5.31c-0.651,2.633-0.553,4.745,0.265,5.787
				c0.871,1.111,2.742,0.959,5.065-0.324c0.251-0.139,0.463-0.278,0.651-0.41c1.029-0.692,2.207-1.344,5.787,0.139
				c1.311,0.542,2.289,0.813,2.918,0.813c0.469,0,0.568,0,0.905-1.376c0.199-0.807,0.444-1.807,1.093-2.706
				c1.33-1.84,2.987-1.959,4.317-2.058c0.87-0.066,1.555-0.119,2.16-0.569c0.78-0.589,1.032-1.343,1.344-2.296
				c0.324-0.985,0.694-2.101,1.71-3.09c0.891-0.867,2.015-1.026,3.08-0.853c0.152,0.026,0.305,0.056,0.45,0.056
				c0.39,0,0.86-1.128,1.045-1.614c1.146-3.027,1.146-3.027-0.556-6.283l-0.251-0.483c-1.678-3.216-0.437-5.446,0.562-7.239
				c0.477-0.853,0.923-1.661,1.085-2.541c0.082-0.437,0.115-1.039-0.186-1.396c-0.374-0.453-1.442-0.592-2.236-0.328
				c-0.946,0.308-1.773,0.785-2.65,1.287c-1.559,0.894-3.318,1.906-5.822,1.906h-0.003c-0.778-0.003-1.608-0.099-2.466-0.298
				c-0.347-0.076-0.664-0.119-0.939-0.119c-0.733,0-1.567,0.192-2.141,2.475c-0.477,1.899-1.898,2.858-4.229,2.858
				c-0.647,0-1.335-0.066-2.03-0.132C148.619,155.955,148.284,155.922,147.956,155.899L147.956,155.899z"/>
		</g>
		<g>
			<path fill="#49B867" d="M353.771,221.733c-3.149,0.367-5.912-2.22-9.15,0.973c-3.246,3.202-3.206,3.341-7.113,3.093
				c-4.638-0.294-1.784-2.511-4.132-3.798c-2.124-1.168-4.126,0.069-6.167-1.417c-2.042-1.485-1.218-4.271-4.108-5.257
				c-2.893-0.982-5.999,2.018-5.344-4.936c0.384-4.122-0.49-3.864-1.811-5.134c-4.588-4.434-2.663-8.275,4.384-8.678
				c5.476-0.311,2.948-2.13,6.336-2.594c0.906-0.123,3.835-0.523,5.181,0.903c1.341,1.429,4.27,2.637,5.175,2.515
				c0.894-0.123,4.313-0.361,4.877,2.09c0.565,2.455,0.741,5.416,3.48,5.274c2.731-0.146,4.158,0.721,4.356,3.312
				c0.391,5.188,3.722,6.121,5.775,9.025C356.524,218.531,356.922,221.37,353.771,221.733z"/>
			<path fill="#0D9F49" d="M339.37,227.03c-0.525,0-1.154-0.033-1.937-0.083c-3.065-0.195-3.827-1.273-4.059-2.948
				c-0.08-0.572-0.103-0.748-0.553-0.992c-0.748-0.407-1.51-0.427-2.396-0.447c-1.178-0.02-2.518-0.046-3.892-1.049
				c-1.156-0.837-1.607-1.992-1.972-2.918c-0.46-1.178-0.751-1.81-1.836-2.177c-0.521-0.179-1.301-0.175-2.034-0.136
				c-0.296,0.021-0.579,0.037-0.851,0.037c-0.68,0-1.665-0.092-2.396-0.893c-0.837-0.919-1.089-2.458-0.837-5.138
				c0.261-2.772-0.03-3.003-0.727-3.566c-0.228-0.182-0.473-0.384-0.741-0.635c-3.262-3.156-3.017-5.598-2.58-6.776
				c0.841-2.263,3.573-3.639,7.699-3.877c2.602-0.146,2.958-0.596,3.302-1.032c0.543-0.681,1.176-1.31,2.944-1.548
				c0.403-0.06,1.164-0.159,2.028-0.159c1.865,0,3.262,0.473,4.142,1.409c1.075,1.138,3.504,2.164,4.195,2.164
				c0.248-0.034,0.698-0.08,1.224-0.08c2.678,0,4.474,1.111,4.92,3.05c0.075,0.337,0.148,0.685,0.223,1.032
				c0.509,2.518,0.862,3.355,1.944,3.355c0.342-0.013,0.542-0.02,0.741-0.02c3.063,0,4.73,1.476,4.952,4.391
				c0.235,3.126,1.635,4.434,3.253,5.945c0.794,0.741,1.611,1.501,2.318,2.501c0.791,1.118,1.294,2.901,0.639,4.377
				c-0.363,0.81-1.214,1.829-3.187,2.058c-1.243,0.135-2.396-0.096-3.483-0.325c-0.754-0.162-1.468-0.314-2.149-0.314
				c-0.715,0-1.688,0.146-2.846,1.291l-0.387,0.38C342.679,226.243,341.882,227.03,339.37,227.03z M321.538,213.956
				c0.745,0,1.359,0.089,1.932,0.288c2.145,0.731,2.746,2.272,3.236,3.513c0.313,0.814,0.565,1.456,1.178,1.903
				c0.794,0.575,1.588,0.589,2.591,0.612c1.039,0.017,2.213,0.04,3.454,0.725c1.465,0.8,1.627,1.981,1.724,2.692
				c0.083,0.602,0.115,0.851,1.929,0.969c0.726,0.043,1.305,0.077,1.79,0.077c1.525,0,1.777-0.208,4.054-2.458l0.386-0.384
				c1.334-1.313,2.79-1.949,4.461-1.949c0.924,0,1.786,0.182,2.627,0.361c0.957,0.198,1.825,0.39,2.742,0.288
				c0.722-0.083,1.179-0.321,1.354-0.714c0.261-0.583-0.007-1.528-0.417-2.107c-0.573-0.811-1.271-1.462-2.008-2.151
				c-1.726-1.611-3.677-3.434-3.981-7.454c-0.139-1.856-0.972-2.372-3.151-2.253l-0.248,0.006c-3.144,0-3.756-2.997-4.198-5.191
				c-0.065-0.327-0.136-0.658-0.208-0.976c-0.331-1.433-2.872-1.311-3.606-1.211l-0.298,0.02c-1.42,0-4.406-1.33-5.865-2.884
				c-0.417-0.444-1.294-0.688-2.472-0.688c-0.729,0-1.377,0.089-1.714,0.135c-1.01,0.136-1.168,0.341-1.459,0.705
				c-0.738,0.927-1.621,1.707-4.97,1.899c-3.066,0.172-5.188,1.065-5.678,2.382c-0.411,1.105,0.327,2.68,2.024,4.321
				c0.212,0.202,0.403,0.357,0.583,0.503c1.323,1.065,1.908,1.958,1.57,5.565c-0.241,2.617,0.13,3.245,0.249,3.381
				c0.031,0.04,0.129,0.142,0.697,0.142c0.229,0,0.47-0.016,0.718-0.03C320.879,213.976,321.204,213.956,321.538,213.956z"/>
		</g>
		<g>
			<path fill="#6E293D" d="M319.896,276.732c-0.979,0.205-5.334,1.811-4.24,4.586c1.084,2.779,2.771,1.732,4.24-0.926
				C321.366,277.73,319.896,276.732,319.896,276.732z"/>
		</g>
		<g>
			<path fill="#6E293D" d="M359.214,239.159c0,0-10.465,4.754-6.464,6.938c3.996,2.187,6.464-1.833,6.464-4.384
				C359.214,239.159,359.214,239.159,359.214,239.159z"/>
		</g>
		<g>
			<path fill="#6E293D" d="M378.939,201.651c0,0-4.242,2.6,1.438,4.503c5.678,1.902,8.363-1.903,6.634-2.607
				C385.277,202.842,380.259,200.302,378.939,201.651z"/>
		</g>
		<g>
			<path fill="#6E293D" d="M257.57,311.762c0,0-4.241,2.598,1.436,4.502c5.68,1.899,8.367-1.904,6.633-2.609
				C263.908,312.954,258.891,310.409,257.57,311.762z"/>
		</g>
		<g>
			<path fill="#6E293D" d="M235.688,260.346c0,0-4.242,2.598,1.436,4.504c5.684,1.898,8.37-1.904,6.637-2.607
				C242.027,261.537,237.009,258.992,235.688,260.346z"/>
		</g>
		<g>
			<path fill="#6E293D" d="M400.381,257.637c0,0-4.241,2.598,1.437,4.499c5.681,1.905,8.366-1.899,6.634-2.604
				C406.713,258.831,401.697,256.287,400.381,257.637z"/>
		</g>
		<g>
			<path fill="#6E293D" d="M290.416,230.511c0,0-4.248,2.597,1.434,4.502c5.684,1.899,8.369-1.906,6.633-2.61
				C296.748,231.702,291.732,229.158,290.416,230.511z"/>
		</g>
		<g>
			<path fill="#6E293D" d="M144.175,262.1c-1.635-1.994-2.835,0.937,0,4.502c2.839,3.566,5.408-0.166,3.651-2.576
				C146.069,261.613,144.175,262.1,144.175,262.1z"/>
		</g>
		<g>
			<path fill="#6E293D" d="M209.337,206.551c-1.086,0.375-3.498,2.31-3.073,4.222c0.423,1.916,4.496,2.518,4.869,0.751
				C211.504,209.754,209.337,206.551,209.337,206.551z"/>
		</g>
	</g>
</g>
</svg>
