<?xml version="1.0" encoding="utf-8"?>
<!-- Generator: Adobe Illustrator 16.0.0, SVG Export Plug-In . SVG Version: 6.00 Build 0)  -->
<!DOCTYPE svg PUBLIC "-//W3C//DTD SVG 1.1//EN" "http://www.w3.org/Graphics/SVG/1.1/DTD/svg11.dtd">
<svg version="1.1" id="Layer_1" xmlns="http://www.w3.org/2000/svg" xmlns:xlink="http://www.w3.org/1999/xlink" x="0px" y="0px"
	 width="500px" height="500px" viewBox="0 0 500 500" enable-background="new 0 0 500 500" xml:space="preserve">
<g id="Layer_1_copy_68">
	<g>
		<g>
			<path fill="#FFFFFF" d="M412.96,431.188c0,10.375-8.487,18.86-18.862,18.86h-36.091c-10.374,0-27.354,0-37.724,0H84.45
				c-10.371,0-18.859-8.485-18.859-18.86V150.754c0-10.374,8.488-18.861,18.859-18.861h309.646c10.375,0,18.862,8.487,18.862,18.861
				v205.83c0,10.371,0,27.35,0,37.721L412.96,431.188L412.96,431.188z"/>
		</g>
		<g>
			<path fill="#27140E" d="M394.098,454.091H84.45c-12.63,0-22.903-10.274-22.903-22.903V150.754
				c0-12.63,10.273-22.904,22.903-22.904h309.646c12.628,0,22.903,10.273,22.903,22.904v280.434
				C417.001,443.816,406.726,454.091,394.098,454.091z M84.45,135.934c-8.171,0-14.818,6.648-14.818,14.82v280.434
				c0,8.172,6.647,14.821,14.818,14.821h309.646c8.177,0,14.821-6.649,14.821-14.821V150.754c0-8.172-6.646-14.82-14.821-14.82
				H84.45L84.45,135.934z"/>
		</g>
	</g>
	<g>
		<g>
			<path fill="#458AC9" d="M433.487,183.69c0,10.374-8.491,18.862-18.862,18.862H61.554c-10.37,0-18.86-8.488-18.86-18.862V80.886
				c0-10.373,8.49-18.86,18.86-18.86h353.071c10.371,0,18.862,8.487,18.862,18.86V183.69z"/>
		</g>
		<g>
			<path fill="#27140E" d="M414.625,206.593H61.554c-12.629,0-22.902-10.273-22.902-22.902V80.886
				c0-12.629,10.273-22.903,22.902-22.903h353.071c12.63,0,22.902,10.274,22.902,22.903V183.69
				C437.527,196.319,427.255,206.593,414.625,206.593z M61.554,66.066c-8.17,0-14.816,6.648-14.816,14.82V183.69
				c0,8.171,6.646,14.819,14.816,14.819h353.071c8.171,0,14.818-6.648,14.818-14.819V80.886c0-8.171-6.647-14.82-14.818-14.82
				H61.554z"/>
		</g>
	</g>
	<g>
		<path fill="#424143" d="M151.643,121.711c0,11.071-8.659,20.05-19.34,20.05l0,0c-10.687,0-19.341-8.979-19.341-20.05V50.5
			c0-11.077,8.654-20.057,19.341-20.057l0,0c10.681,0,19.34,8.979,19.34,20.057V121.711z"/>
		<path fill="#27140E" d="M132.303,145.803c-12.894,0-23.387-10.81-23.387-24.092V50.5c0-13.289,10.493-24.097,23.387-24.097
			c12.895,0,23.38,10.809,23.38,24.097v71.211C155.683,134.994,145.197,145.803,132.303,145.803z M132.303,34.486
			c-8.436,0-15.301,7.183-15.301,16.014v71.211c0,8.826,6.865,16.009,15.301,16.009c8.434,0,15.298-7.183,15.298-16.009V50.5
			C147.601,41.669,140.736,34.486,132.303,34.486z"/>
	</g>
	<g>
		<path fill="#424143" d="M362.041,121.711c0,11.071-8.659,20.05-19.343,20.05l0,0c-10.685,0-19.342-8.979-19.342-20.05V50.5
			c0-11.077,8.657-20.057,19.342-20.057l0,0c10.684,0,19.343,8.979,19.343,20.057V121.711z"/>
		<path fill="#27140E" d="M342.698,145.803c-12.893,0-23.384-10.81-23.384-24.092V50.5c0-13.289,10.491-24.097,23.384-24.097
			c12.895,0,23.383,10.809,23.383,24.097v71.211C366.081,134.994,355.593,145.803,342.698,145.803z M342.698,34.486
			c-8.438,0-15.302,7.183-15.302,16.014v71.211c0,8.826,6.863,16.009,15.302,16.009c8.436,0,15.302-7.183,15.302-16.009V50.5
			C358,41.669,351.134,34.486,342.698,34.486z"/>
	</g>
	<g>
		<g>
			<path fill="#E5E5E5" d="M412.792,373.541v57.721c0,10.375-8.492,18.861-18.863,18.861h-56.926"/>
		</g>
		<g>
			<path fill="#27140E" d="M393.929,454.164h-56.926c-2.229,0-4.04-1.812-4.04-4.041c0-2.23,1.811-4.041,4.04-4.041h56.926
				c8.173,0,14.819-6.648,14.819-14.82v-57.721c0-2.238,1.812-4.047,4.044-4.047c2.23,0,4.04,1.809,4.04,4.047v57.721
				C416.832,443.89,406.555,454.164,393.929,454.164z"/>
		</g>
	</g>
	<g>
		<path fill="#D2D3D4" d="M413.077,373.75l-57.719,0.289c-10.371,0.051-18.638,8.576-18.358,18.949l1.557,58.246"/>
	</g>
	<g>
		<path fill="#27140E" d="M325.724,454.164c-2.228,0-4.032-1.799-4.04-4.029c-0.009-2.229,1.799-4.045,4.028-4.053l22.896-0.072
			c0.003,0,0.007,0,0.011,0c2.228,0,4.033,1.797,4.041,4.027c0.013,2.231-1.794,4.045-4.024,4.055l-22.896,0.072
			C325.731,454.164,325.731,454.164,325.724,454.164z"/>
	</g>
	<g>
		<path fill="#27140E" d="M411.45,389.787c-1.49,0-2.695-1.203-2.695-2.693V365.38c0-1.489,1.205-2.694,2.695-2.694
			c1.485,0,2.689,1.205,2.689,2.694v21.713C414.141,388.583,412.938,389.787,411.45,389.787z"/>
	</g>
	<g>
		<path fill="#333333" d="M116.792,306.348v1.694c0.125,5.688,0.71,9.683,1.758,11.994c1.047,2.312,3.284,3.465,6.721,3.465
			c3.405,0,5.651-1.265,6.744-3.787c0.655-1.498,0.983-4.024,0.983-7.582v-51.414h15.36v51.168c0,6.248-1.054,11.201-3.168,14.855
			c-3.576,6.186-10.032,9.278-19.361,9.278s-15.587-2.5-18.769-7.506c-3.191-5.004-4.781-11.828-4.781-20.473v-1.695h14.513V306.348
			z"/>
		<path fill="#333333" d="M164.615,260.718h15.608v45.146c0,5.053,0.601,8.736,1.794,11.062c1.85,4.119,5.895,6.179,12.123,6.179
			c6.194,0,10.219-2.06,12.076-6.179c1.193-2.325,1.786-6.01,1.786-11.062v-45.146h15.608V305.9c0,7.813-1.209,13.896-3.635,18.254
			c-4.513,7.977-13.125,11.965-25.836,11.965c-12.715,0-21.343-3.988-25.892-11.965c-2.422-4.357-3.634-10.439-3.634-18.254v-45.183
			H164.615z"/>
		<path fill="#333333" d="M238.121,260.718h16.104l29.176,51.255v-51.255h14.313v73.507h-15.354l-29.924-52.156v52.156h-14.314
			V260.718L238.121,260.718z"/>
		<path fill="#333333" d="M366.489,273.732h-38.897v15.608h35.704v12.767h-35.704v18.901h40.693v13.216H312.58v-73.507h53.909
			V273.732L366.489,273.732z"/>
	</g>
</g>
</svg>
