<svg id="jungle_gym" data-name="jungle gym" xmlns="http://www.w3.org/2000/svg" viewBox="0 0 300 300"><defs><style>.cls-1{fill:#f15a29;}.cls-1,.cls-2,.cls-3,.cls-4{stroke:#3c2415;stroke-miterlimit:10;stroke-width:3.51px;}.cls-2{fill:#f7941e;}.cls-3{fill:none;}.cls-4{fill:#ef4136;}</style></defs><title>jungle gym</title><rect class="cls-1" x="126.92" y="149.04" width="57.91" height="37.8"/><path class="cls-2" d="M170.24,168.79a13.5,13.5,0,1,1-13.48-13A13.23,13.23,0,0,1,170.24,168.79Z"/><rect class="cls-2" x="117.85" y="101.25" width="11.49" height="126.15"/><rect class="cls-2" x="181.51" y="101.25" width="11.49" height="126.15"/><line class="cls-3" x1="193.01" y1="184.45" x2="259.27" y2="229.05"/><line class="cls-3" x1="193.01" y1="151.96" x2="261.59" y2="195.44"/><line class="cls-3" x1="205.55" y1="192.89" x2="205.55" y2="159.91"/><line class="cls-3" x1="218.65" y1="200.94" x2="218.65" y2="167.96"/><line class="cls-3" x1="230.09" y1="208.43" x2="230.09" y2="175.45"/><line class="cls-3" x1="243.35" y1="217.43" x2="243.35" y2="184.45"/><line class="cls-3" x1="256.12" y1="225.87" x2="256.12" y2="192.89"/><path class="cls-1" d="M117.85,152.59,63.31,206.75s-17.9-3.5-18.57,13.06C45.07,234.62,62,232.87,62,232.87l16.75.06,39.12-36.53Z"/><path class="cls-4" d="M100.39,112.09c8-.27,26.53,0,26.53,0s9.17-14.92,29.84-14.87c17.14,0,28.07,14.87,28.07,14.87s23,0,30.73,0c8.56-2-58.8-48.64-58.8-48.64S84.86,108.48,100.39,112.09Z"/><path class="cls-1" d="M162.73,85.12a6,6,0,1,1-6-5.74A5.86,5.86,0,0,1,162.73,85.12Z"/><line class="cls-4" x1="156.76" y1="63.45" x2="156.76" y2="34.73"/><polygon class="cls-2" points="156.76 36.16 181.51 36.16 175.55 45.4 181.51 54.32 156.76 54.32 156.76 36.16"/></svg>