<?xml version="1.0" encoding="utf-8"?>
<!-- Generator: Adobe Illustrator 16.0.0, SVG Export Plug-In . SVG Version: 6.00 Build 0)  -->
<!DOCTYPE svg PUBLIC "-//W3C//DTD SVG 1.1//EN" "http://www.w3.org/Graphics/SVG/1.1/DTD/svg11.dtd">
<svg version="1.1" id="Layer_1" xmlns="http://www.w3.org/2000/svg" xmlns:xlink="http://www.w3.org/1999/xlink" x="0px" y="0px"
	 width="500px" height="500px" viewBox="0 0 500 500" enable-background="new 0 0 500 500" xml:space="preserve">
<g id="Layer_1_copy_92">
	<g>
		<path fill="#27140E" d="M82.944,413.436c-1.762,0-3.439-1.029-4.179-2.756c-0.985-2.306,0.088-4.979,2.396-5.969l334.694-142.885
			c2.302-0.988,4.972,0.091,5.956,2.396c0.989,2.305-0.087,4.971-2.392,5.959L84.727,413.068
			C84.146,413.318,83.543,413.436,82.944,413.436z"/>
	</g>
	<g>
		<polygon fill="#F4BE78" points="174.179,173.994 197.497,200.693 195.381,209.863 175.062,209.863 154.391,186.694 
			150.574,174.759 		"/>
		<path fill="#27140E" d="M195.381,211.562h-20.318c-0.487,0-0.949-0.202-1.273-0.564l-20.666-23.169
			c-0.16-0.178-0.279-0.387-0.355-0.616l-3.815-11.934c-0.164-0.508-0.076-1.065,0.229-1.501c0.307-0.435,0.802-0.703,1.337-0.721
			l23.604-0.766c0.515-0.021,1.002,0.195,1.341,0.585l23.318,26.699c0.358,0.411,0.498,0.972,0.376,1.501l-2.117,9.17
			C196.864,211.019,196.175,211.562,195.381,211.562z M175.822,208.157h18.204l1.619-6.998l-22.219-25.435l-20.544,0.665
			l3.018,9.438L175.822,208.157z"/>
	</g>
	<g>
		<g>
			<path fill="#E2A96A" d="M273.686,217.069c0,0-15.246-11.893-38.136-10.232c-22.888,1.661-43.775-2.214-43.775-2.214
				l-15.733-16.875c0,0-16.024-12.728-20.029,3.318c-4.003,16.046,10.584,18.26,12.305,21.024
				c1.716,2.771,13.73,22.685,22.886,14.389c9.157-8.3,27.184,5.253,34.905,8.296c7.726,3.05,31.452,8.634,31.452,8.634
				l14.037-3.927L273.686,217.069z"/>
			<path fill="#27140E" d="M257.559,245.116c-0.132,0-0.261-0.014-0.391-0.048c-0.975-0.229-23.934-5.647-31.688-8.704
				c-1.831-0.724-4.11-1.95-6.747-3.374c-6.173-3.325-13.853-7.461-20.091-7.461c-2.593,0-4.654,0.724-6.295,2.214
				c-1.792,1.623-3.818,2.444-6.009,2.444c-7.3,0-14.552-9.247-19.353-17.004c-0.349-0.508-1.603-1.19-2.521-1.699
				c-4.703-2.569-13.467-7.367-10.104-20.833c1.936-7.767,6.545-9.396,10.064-9.396c6.109,0,12.408,4.947,12.676,5.156
				c0.062,0.056,0.125,0.111,0.182,0.174l15.346,16.46c2.757,0.467,15.614,2.5,31.093,2.5c4.021,0,7.962-0.136,11.705-0.411
				c1.493-0.104,3.011-0.16,4.501-0.16c20.78,0,34.239,10.315,34.802,10.754c0.459,0.359,0.703,0.923,0.65,1.501l-2.086,22.41
				c-0.066,0.704-0.559,1.292-1.24,1.483l-14.035,3.931C257.865,245.095,257.712,245.116,257.559,245.116z M198.643,222.125
				c7.099,0,15.196,4.359,21.706,7.868c2.542,1.372,4.739,2.552,6.386,3.199c6.959,2.747,27.562,7.694,30.789,8.463l12.488-3.495
				l1.885-20.272c-3.02-2.072-15.047-9.508-31.967-9.508c-1.41,0-2.841,0.056-4.254,0.157c-3.827,0.275-7.848,0.417-11.948,0.417
				c-17.738,0-32.117-2.628-32.26-2.656c-0.358-0.066-0.689-0.247-0.932-0.512l-15.646-16.777
				c-0.749-0.567-5.897-4.345-10.462-4.345c-3.401,0-5.615,2.228-6.761,6.816c-2.723,10.911,3.726,14.441,8.436,17.021
				c1.748,0.958,3.016,1.647,3.662,2.694l0.122,0.195c6.048,9.783,12.047,15.392,16.453,15.392c1.341,0,2.559-0.508,3.722-1.566
				C192.324,223.166,195.213,222.125,198.643,222.125z"/>
		</g>
		<g>
			<path fill="#F4BE78" d="M191.202,226.48c0,0,6.295-5.658,3.433-11.681"/>
			<path fill="#27140E" d="M191.202,228.183c-0.462,0-0.926-0.188-1.26-0.564c-0.634-0.696-0.578-1.772,0.118-2.402
				c0.053-0.049,5.312-4.902,3.036-9.689c-0.404-0.85-0.042-1.866,0.808-2.27c0.853-0.404,1.866-0.039,2.271,0.811
				c3.366,7.088-3.537,13.411-3.834,13.675C192.017,228.04,191.609,228.183,191.202,228.183z"/>
		</g>
	</g>
	<g>
		<path fill="#F58020" d="M138.452,136.548l37.693,35.437l-17.246,17.609l-6.194-5.39l-21.311-16.32
			C131.395,167.884,115.46,128.112,138.452,136.548z"/>
		<path fill="#27140E" d="M158.899,191.3c-0.398,0-0.798-0.14-1.119-0.418l-6.192-5.396l-21.227-16.252
			c-0.243-0.184-0.432-0.432-0.547-0.717c-0.95-2.374-9.118-23.396-3.593-31.562c2.357-3.475,6.757-4.227,12.815-2.005
			c0.216,0.077,0.41,0.202,0.581,0.355l37.694,35.441c0.333,0.313,0.524,0.745,0.535,1.205c0.011,0.456-0.167,0.898-0.487,1.226
			l-17.247,17.612C159.786,191.126,159.341,191.3,158.899,191.3z M132.805,166.819l20.938,16.036l5.062,4.404l14.907-15.224
			l-36.173-34c-4.253-1.504-7.062-1.285-8.494,0.828C125.307,144.391,130.341,160.503,132.805,166.819z"/>
	</g>
	<g>
		<g>
			<path fill="#F4BE78" d="M81.75,232.318l10.176,35.247c0,0-9.87-5.11-22.657-1.49c-9.65,1.691-24.258-6.754-24.258-6.754
				s-13.376-9.169-16.271,4.342c-2.897,13.512,0,35.702,0,35.702s5.549,3.384,12.059-11.337c6.518-14.719,5.069-10.375,10.858-9.649
				c5.79,0.726,30.501,16.161,54.575,12.304c24.074-3.857,16.457-23.123,14.908-30.636c-1.689-8.203-13.513-35.707-13.513-35.707
				S80.238,216.178,81.75,232.318z"/>
		</g>
		<g>
			<path fill="#27140E" d="M30.243,301.404c-1.366,0-2.229-0.487-2.389-0.586c-0.442-0.264-0.738-0.725-0.805-1.231
				c-0.122-0.919-2.899-22.644,0.024-36.282c1.546-7.215,5.849-8.729,9.184-8.729c4.791,0,9.519,3.199,9.713,3.34l0,0
				c0.011,0,11.685,6.677,20.555,6.677c0.874,0,1.7-0.065,2.452-0.194c3.014-0.863,6.301-1.323,9.601-1.323
				c4.533,0,8.266,0.856,10.758,1.649l-9.223-31.932c-0.027-0.104-0.049-0.209-0.059-0.313c-0.312-3.342,0.46-6.054,2.291-8.07
				c2.318-2.545,6.245-3.837,11.67-3.837c6.861,0,13.807,2.047,14.1,2.131c0.483,0.146,0.878,0.498,1.078,0.961
				c0.489,1.131,11.907,27.758,13.613,36.04c0.153,0.74,0.369,1.602,0.606,2.555c1.44,5.814,3.627,14.602-0.948,21.516
				c-2.951,4.479-8.327,7.367-15.966,8.586c-2.645,0.432-5.427,0.642-8.265,0.642l0,0c-15.437,0-30.337-6.323-39.238-10.104
				c-3.371-1.436-6.281-2.666-7.552-2.828c-1.477-0.188-2.542-0.576-3.321-0.862c-0.32-0.117-0.766-0.277-0.905-0.277
				c-0.731,0.46-3.021,5.634-4.859,9.789C37.718,299.204,33.209,301.404,30.243,301.404z M36.258,257.984
				c-1.957,0-4.692,0.621-5.854,6.033c-2.431,11.346-0.648,29.295-0.113,33.981c1.065-0.028,4.638-0.92,8.952-10.661
				c4.233-9.566,5.333-11.822,7.976-11.822c0.731,0,1.386,0.236,2.074,0.494c0.697,0.25,1.483,0.543,2.577,0.676
				c1.741,0.224,4.558,1.42,8.46,3.069c8.661,3.685,23.165,9.839,37.905,9.839l0,0c2.66,0,5.257-0.201,7.729-0.591
				c6.657-1.073,11.252-3.461,13.661-7.103c3.75-5.676,1.783-13.586,0.481-18.817c-0.247-1.006-0.475-1.91-0.635-2.698
				c-1.482-7.191-11.188-30.166-13.086-34.626c-1.937-0.509-7.267-1.782-12.369-1.782c-4.363,0-7.527,0.947-9.149,2.729
				c-1.152,1.264-1.623,3.001-1.435,5.299l10.131,35.085c0.188,0.655-0.027,1.352-0.554,1.79c-0.525,0.433-1.257,0.509-1.863,0.201
				c-0.048-0.027-5.159-2.604-12.567-2.604c-2.983,0-5.96,0.418-8.846,1.231c-1.114,0.203-2.134,0.287-3.207,0.287
				c-9.79,0-21.859-6.908-22.368-7.207C44.008,260.695,39.979,257.984,36.258,257.984z"/>
		</g>
	</g>
	<g>
		<g>
			<path fill="#F4BE78" d="M207.45,119.743c0,0,0.683,7.193-6.974,15.43c-5.974,6.437-4.198,10.765-3.133,12.352
				c0.299,0.442,0.522,0.898,0.446,1.232c-0.293,1.24-1.4,3.986-5.421,2.597c-3.252-1.121-4.376,2.416-4.376,2.416
				S178.3,175.599,149,139.169c-1.922-1.31-7.76,5.02-9.452,6.931c-0.188,0.209-0.616,0.582-0.867,0.645
				c-1.761,0.466-10.089-0.808-5.41-10.226c0.088-0.17,4.436-6.291,4.436-6.291s4.638-6.176,4.421-8.905
				c-0.838-10.455,8.161-14.852,8.161-14.852l25.303-14.302l25.001,14.449L207.45,119.743z"/>
		</g>
		<g>
			<path fill="#27140E" d="M177.743,161.958c-8.258,0-18.231-7.13-29.647-21.195c-0.992,0.369-3.537,2.256-7.276,6.469
				c-0.084,0.094-0.843,0.929-1.699,1.159c-1.963,0.512-6.078-0.199-7.99-3.283c-1.485-2.388-1.276-5.536,0.617-9.344
				c0.077-0.153,0.146-0.296,4.575-6.524c2.074-2.771,4.208-6.538,4.107-7.784c-0.919-11.475,8.7-16.314,9.11-16.517l25.217-14.249
				c0.525-0.296,1.169-0.289,1.692,0.01l24.996,14.441c0.278,0.16,0.508,0.4,0.654,0.689l6.862,13.125
				c0.101,0.195,0.163,0.407,0.185,0.627c0.034,0.324,0.661,8.049-7.419,16.749c-5.156,5.553-3.795,9.014-2.971,10.246
				c0.412,0.606,0.931,1.535,0.689,2.566c-0.832,3.541-3.815,5.142-7.635,3.819c-0.243-0.083-0.47-0.125-0.664-0.125
				c-1.031,0-1.532,1.449-1.54,1.462C189.413,154.766,186.12,161.958,177.743,161.958L177.743,161.958z M148.371,137.29
				c0.585,0,1.131,0.167,1.587,0.473c0.137,0.097,0.262,0.209,0.365,0.341c13.599,16.899,22.414,20.45,27.42,20.45l0,0
				c6.189,0,8.67-5.424,8.69-5.48c0.387-1.243,1.9-3.641,4.714-3.641c0.578,0,1.177,0.104,1.775,0.313
				c0.558,0.191,1.051,0.292,1.469,0.292c0.342,0,1.226,0,1.658-1.372c-0.028-0.048-0.067-0.115-0.119-0.188
				c-1.281-1.908-3.51-7.13,3.301-14.462c6.204-6.677,6.552-12.442,6.534-13.821l-6.454-12.352l-23.726-13.71l-24.462,13.818
				c-0.41,0.206-8.027,4.112-7.296,13.233c0.25,3.133-3.58,8.499-4.757,10.068c-1.549,2.176-4.128,5.814-4.351,6.159
				c-0.84,1.713-1.717,4.258-0.693,5.904c0.979,1.577,3.464,1.856,4.084,1.8c0.062-0.049,0.132-0.112,0.166-0.146
				C142.797,139.872,146.195,137.29,148.371,137.29z"/>
		</g>
	</g>
	<g>
		<polygon fill="#3059A7" points="78.439,234.954 81.385,251.842 109.852,243.396 98.993,226.751 		"/>
		<path fill="#27140E" d="M81.385,253.541c-0.313,0-0.626-0.083-0.898-0.254c-0.414-0.254-0.696-0.676-0.78-1.152l-2.945-16.888
			c-0.139-0.797,0.301-1.577,1.045-1.876l20.558-8.202c0.755-0.299,1.615-0.024,2.058,0.654l10.854,16.645
			c0.297,0.449,0.359,1.013,0.175,1.518c-0.188,0.504-0.599,0.895-1.114,1.047l-28.468,8.439
			C81.708,253.52,81.545,253.541,81.385,253.541z M80.354,236.022l2.381,13.641l24.44-7.249l-8.844-13.563L80.354,236.022z"/>
	</g>
	<g>
		<path fill="#4C230D" d="M169.841,117.644c0,0,1.803-9.626-6.56-5.553c-8.369,4.073-3.502,9.038-3.502,9.038
			s-14.877,11.948-19.893,3.384c-5.017-8.561-8.279-40.183,25.787-42.091c34.059-1.912,46.202,30.365,46.202,30.365
			s6.67,9.111,8.581,11.064c1.591,1.623-13.274,3.263-16.767-6.043c-4.532-0.801-11.651-7.308-11.651-7.308
			S182.075,122.876,169.841,117.644z"/>
		<path fill="#27140E" d="M145.46,129.307c-3.102,0-5.535-1.362-7.043-3.931c-3.481-5.939-5.354-19.664,0.174-29.968
			c3.329-6.197,10.709-13.772,26.988-14.685c33.366-1.855,46.575,28.249,47.793,31.232c1.937,2.635,6.838,9.208,8.3,10.705
			c0.596,0.606,0.77,1.448,0.453,2.2c-0.544,1.295-2.424,1.95-5.588,1.95c-5.197,0-11.485-2.002-14.083-7.547
			c-3.661-1.065-8.09-4.53-10.277-6.378c-2.45,2.521-8.463,7.75-16.181,7.75c-2.315,0-4.613-0.481-6.827-1.428
			c-0.731-0.313-1.146-1.093-1.006-1.873c0.18-0.982,0.306-3.29-0.446-4.192c-0.271-0.327-0.654-0.996-3.69,0.481
			c-2.324,1.128-3.68,2.406-3.913,3.687c-0.257,1.4,0.885,2.625,0.892,2.636c0.327,0.348,0.501,0.822,0.467,1.295
			c-0.031,0.473-0.259,0.919-0.627,1.218C160.497,122.737,152.239,129.307,145.46,129.307z M168.56,84.044
			c-0.912,0-1.846,0.028-2.792,0.084c-11.802,0.658-19.935,4.996-24.172,12.891c-5.288,9.85-2.719,22.403-0.24,26.637
			c0.898,1.532,2.2,2.242,4.102,2.242c4.219,0,9.595-3.45,11.996-5.16c-0.521-0.996-0.978-2.388-0.699-3.989
			c0.422-2.448,2.368-4.529,5.783-6.19c3.533-1.72,6.21-1.511,7.802,0.411c1.33,1.598,1.437,4.01,1.344,5.549
			c1.417,0.474,2.864,0.71,4.313,0.71c8.341,0,14.653-7.722,14.719-7.798c0.293-0.366,0.725-0.592,1.194-0.627
			c0.47-0.042,0.93,0.122,1.278,0.439c1.88,1.716,7.488,6.301,10.799,6.889c0.592,0.104,1.087,0.512,1.299,1.076
			c2.211,5.898,9.762,6.194,11.252,6.194c0.467,0,0.88-0.018,1.235-0.053c-2.666-3.272-7.046-9.246-7.272-9.553
			c-0.094-0.125-0.167-0.261-0.219-0.404C210.17,113.097,198.834,84.044,168.56,84.044z"/>
	</g>
	<g>
		<g>
			<path fill="#F4BE78" d="M100.452,211.082c0,0,21.896,15.221,21.896,25.853c0,10.632-10.95,81.848-10.95,81.848
				s1.299,13.641,23.493,22.671c11.819,8.224-11.521,8.62-17.22,6.817c-5.698-1.805-14.389-9.228-18.489-10.027
				c-4.098-0.807-8.923-0.604-7.718-10.234c1.208-9.631,3.327-23.068,4.557-34.104c1.232-11.029-7.806-23.569,0.508-37.478
				c1.692-12.238-10.371-10.379-10.371-10.379l-21.47-37.401L100.452,211.082z"/>
		</g>
		<g>
			<path fill="#27140E" d="M126.03,350.854c-3.609,0-7.012-0.369-8.873-0.961c-3.075-0.976-6.738-3.32-10.282-5.599
				c-3.091-1.983-6.294-4.045-8.021-4.379c-0.368-0.077-0.752-0.14-1.128-0.202c-3.902-0.661-9.246-1.572-7.951-11.913
				c0.491-3.921,1.132-8.468,1.804-13.229c0.996-7.045,2.022-14.322,2.751-20.854c0.414-3.704-0.446-7.715-1.352-11.969
				c-1.656-7.757-3.53-16.529,1.908-25.888c0.324-2.719-0.105-4.776-1.277-6.122c-1.585-1.817-4.321-2.088-5.811-2.088
				c-0.794,0-1.334,0.076-1.387,0.083c-0.692,0.098-1.382-0.229-1.732-0.835l-21.475-37.405c-0.31-0.543-0.299-1.218,0.035-1.748
				c0.335-0.536,0.919-0.849,1.56-0.797l35.769,2.434c0.306,0.021,0.602,0.125,0.855,0.299c2.315,1.608,22.623,16.049,22.623,27.252
				c0,10.43-10.104,76.494-10.925,81.856c0.265,1.538,2.911,13.152,22.414,21.083c0.114,0.049,0.226,0.104,0.326,0.183
				c1.195,0.827,4.83,3.354,3.876,6.404C138.599,350.088,131.656,350.854,126.03,350.854z M87.798,244.246
				c2.067,0,5.911,0.421,8.375,3.255c1.897,2.172,2.584,5.253,2.045,9.161c-0.031,0.222-0.108,0.443-0.228,0.639
				c-4.971,8.322-3.3,16.162-1.681,23.737c0.968,4.532,1.88,8.808,1.406,13.055c-0.734,6.58-1.766,13.884-2.76,20.952
				c-0.677,4.741-1.313,9.273-1.805,13.182c-0.887,7.102,1.512,7.513,5.146,8.125c0.407,0.075,0.814,0.146,1.214,0.224
				c2.361,0.459,5.533,2.491,9.209,4.853c3.353,2.158,6.824,4.387,9.463,5.223c1.51,0.479,4.661,0.802,7.847,0.802
				c6.865,0,10.197-1.31,10.458-2.013l0,0c-0.007,0-0.091-0.83-2.419-2.485c-22.717-9.304-24.312-23.409-24.366-24.009
				c-0.015-0.141-0.008-0.285,0.014-0.426c0.108-0.709,10.925-71.202,10.925-81.583c0-7.819-14.64-19.844-20.78-24.189
				l-32.113-2.183l19.346,33.697C87.303,244.252,87.539,244.246,87.798,244.246z"/>
		</g>
	</g>
	<g>
		<path fill="#3059A7" d="M50.671,181.458c0,0-6.977,22.611,1.47,33.71c8.442,11.099,34.017,30.88,34.017,30.88
			s5.247-24.976,22.193-30.88c5.703-1.984-0.724-27.983-0.724-27.983S58.609,171.146,50.671,181.458z"/>
		<path fill="#27140E" d="M86.157,247.755c-0.372,0-0.741-0.125-1.04-0.359c-1.053-0.811-25.85-20.046-34.335-31.197
			c-8.87-11.659-2.036-34.285-1.74-35.246c0.06-0.191,0.153-0.376,0.278-0.536c2.139-2.771,6.435-4.123,13.14-4.123
			c17.174,0,44.541,8.892,45.696,9.268c0.562,0.185,0.985,0.641,1.125,1.211c2.043,8.272,6.103,27.75-0.369,30.003
			c-15.83,5.515-21.038,29.383-21.088,29.62c-0.125,0.578-0.528,1.047-1.078,1.25C86.554,247.72,86.356,247.755,86.157,247.755z
			 M52.203,182.276c-0.776,2.722-6.005,22.274,1.291,31.862c6.831,8.976,25.437,24.025,31.649,28.951
			c1.898-6.754,8.147-24.478,22.647-29.529c2.162-0.752,1.39-12.561-1.591-25.045c-4.915-1.545-28.806-8.811-43.74-8.811
			C56.001,179.704,53.313,181.051,52.203,182.276z"/>
	</g>
	<g>
		<g>
			<path fill="#F4BE78" d="M159.501,178.001c0,0,15.924,17.261,17.609,20.882c4.463,0,38.361,6.35,45.237,8.362
				c3.137-0.881,2.173-1.727,5.793-4.018c3.613-2.291,6.51-2.022,2.771,3.875c-3.739,5.894,5.02,1.657,6.88,0.143
				c3.738-3.054,21.348-2.932,6.632,13.393c-8.666,6.928-22.557,0-22.557,0s-49.186,0.849-51.331-1.065
				c-2.145-1.915-24.426-23.886-24.426-23.886l-3.014-16.586L159.501,178.001z"/>
		</g>
		<g>
			<path fill="#27140E" d="M234.725,225.421c-6.11,0-11.716-2.377-13.229-3.074c-2.072,0.035-11.872,0.181-22.24,0.181
				c-27.967,0-29.056-0.975-29.853-1.685c-2.151-1.922-23.577-23.044-24.488-23.942c-0.251-0.248-0.419-0.561-0.481-0.909
				l-3.015-16.585c-0.083-0.481,0.035-0.968,0.334-1.351c0.296-0.383,0.746-0.62,1.226-0.654l16.409-1.101
				c0.511-0.038,1.012,0.164,1.364,0.543c1.535,1.664,14.231,15.475,17.376,20.387c7.206,0.605,36.823,6.218,44.207,8.237
				c0.937-0.303,1.184-0.557,1.73-1.121c0.596-0.612,1.402-1.448,3.165-2.562c1.148-0.731,2.832-1.598,4.31-1.598
				c1.1,0,2.001,0.491,2.479,1.354c0.78,1.427,0.268,3.422-1.664,6.472c-0.035,0.052-0.07,0.108-0.102,0.157
				c1.543-0.501,3.655-1.587,4.46-2.249c1.431-1.163,4.137-1.921,6.9-1.921c3.856,0,6.698,1.42,7.799,3.892
				c1.488,3.349-0.436,8.021-5.724,13.884c-0.062,0.07-0.13,0.132-0.202,0.195C242.623,224.259,239.003,225.421,234.725,225.421z
				 M221.867,218.936c0.261,0,0.522,0.062,0.759,0.178c0.056,0.031,5.919,2.9,12.099,2.9c3.429,0,6.298-0.881,8.528-2.621
				c5.756-6.417,5.449-9.209,5.045-10.114c-0.612-1.378-2.823-1.87-4.686-1.87c-2.166,0-4.06,0.595-4.749,1.156
				c-1.162,0.95-5.347,3.276-7.819,3.276c-1.515,0-2.186-0.805-2.447-1.285c-0.78-1.417,0.06-3.075,0.878-4.366
				c0.713-1.124,1.082-1.897,1.273-2.398c-0.428,0.156-0.995,0.432-1.695,0.874c-1.421,0.897-2.02,1.511-2.541,2.054
				c-0.934,0.964-1.651,1.591-3.705,2.166c-0.306,0.087-0.63,0.08-0.939-0.007c-7.14-2.093-40.604-8.29-44.757-8.29
				c-0.661,0-1.261-0.383-1.542-0.985c-1.11-2.388-10.644-13.184-16.771-19.848l-13.686,0.919l2.579,14.176
				c2.896,2.858,21.229,20.923,23.834,23.319c0.856,0.264,5.274,0.954,27.729,0.954c11.59,0,22.473-0.188,22.58-0.188
				C221.847,218.936,221.857,218.936,221.867,218.936z"/>
		</g>
	</g>
	<g>
		<g>
			<path fill="#E2A96A" d="M334.896,323.009c0,0-11.824,17.86-16.169,33.784c-4.342,15.917-13.515,29.188-14.72,30.873
				c-1.201,1.691-6.994,10.375,9.414,10.618c16.405,0.243,17.497-0.083,19.538,0c7.962,0.327,15.443-1.929,10.614-8.683
				c-4.822-6.761-18.561-5.793-19.777-6.037c-1.219-0.244,33.237-47.766,33.237-47.766s8.984-8.683,8.741-16.646
				c-0.244-7.967-11.347-36.256-11.347-36.256l-13.508-2.59l-13.508,12.545l0.728,11.823
				C328.142,304.676,338.606,316.959,334.896,323.009z"/>
		</g>
		<g>
			<path fill="#27140E" d="M323.981,400.074h-0.005c-2.556,0-5.963-0.014-10.583-0.09c-6.842-0.098-10.911-1.616-12.449-4.646
				c-1.2-2.374-0.605-5.452,1.678-8.661c1.023-1.441,10.152-14.525,14.466-30.338c4.362-16,15.896-33.533,16.387-34.271
				c2.473-4.03-4.122-13.348-6.636-16.285c-0.231-0.286-0.376-0.635-0.399-1.002l-0.725-11.824c-0.035-0.509,0.167-1.002,0.54-1.352
				l13.508-12.547c0.399-0.369,0.937-0.529,1.482-0.425l13.508,2.591c0.571,0.11,1.053,0.508,1.264,1.051
				c0.461,1.162,11.211,28.66,11.462,36.828c0.252,8.209-8.028,16.703-9.146,17.81c-10.75,14.823-27.234,37.899-31.774,45.037
				c4.836,0.14,14.261,0.854,18.406,6.663c2.374,3.32,2.012,5.682,1.295,7.08c-1.936,3.761-8.232,4.324-11.815,4.324
				c-0.517,0-1.03-0.008-1.554-0.035c-0.602-0.021-1.125-0.014-2.021,0.015C329.628,400.025,327.696,400.074,323.981,400.074z
				 M329.806,304.016c2.124,2.59,10.479,13.465,6.542,19.885c-0.149,0.229-11.758,17.867-15.974,33.34
				c-4.47,16.376-13.915,29.925-14.977,31.416c-0.707,0.994-2.257,3.48-1.414,5.146c0.505,0.996,2.402,2.681,9.459,2.777
				c4.599,0.069,7.989,0.091,10.534,0.091h0.005c3.669,0,5.576-0.049,6.803-0.076c0.995-0.021,1.569-0.035,2.248-0.015
				c0.471,0.021,0.942,0.035,1.41,0.035c4.562,0,8.015-0.976,8.783-2.479c0.521-1.003-0.274-2.484-1.033-3.551
				c-3.586-5.021-13.731-5.195-17.065-5.258c-0.851-0.014-1.432-0.041-1.661-0.092c-0.567-0.11-1.068-0.527-1.281-1.07
				c-0.44-1.114-0.813-2.074,33.472-49.367c0.06-0.076,0.122-0.152,0.194-0.223c0.083-0.083,8.438-8.266,8.224-15.367
				c-0.209-6.816-9.034-30.01-10.887-34.814l-11.736-2.248l-12.289,11.412L329.806,304.016z"/>
		</g>
	</g>
	<g>
		<path fill="#F58020" d="M114.868,160.256l31.117,36.82l15.444-19.075c0,0-11.822-23.145-18.337-31.106
			c-6.514-7.962-5.306-18.093-5.306-18.093s0.003-15.684-18.337-8.93c-18.336,6.757-44.151,33.053-44.151,33.053l-24.606,20.509
			c0,0-16.164,9.651,41.979,27.26c11.349,3.593,15.679,14.476,15.679,14.476l26.08-29.87"/>
		<path fill="#27140E" d="M108.351,216.871c-0.093,0-0.187-0.011-0.285-0.024c-0.581-0.098-1.071-0.495-1.294-1.045
			c-0.042-0.104-4.21-10.19-14.615-13.487c-29.057-8.801-44.27-17.059-45.186-24.53c-0.359-2.925,1.486-4.937,2.723-5.738
			l24.52-20.429c0.936-0.975,26.167-26.535,44.648-33.345c6.668-2.451,11.918-2.388,15.615,0.185
			c4.957,3.461,5.013,10.065,5.013,10.343c-0.021,0.293-1.03,9.738,4.923,17.014c6.552,8.01,18.048,30.459,18.532,31.409
			c0.306,0.603,0.233,1.323-0.192,1.849l-15.439,19.075c-0.32,0.394-0.798,0.627-1.306,0.63c-0.563-0.056-0.991-0.215-1.319-0.599
			l-9.462-11.196l-25.593,29.307C109.31,216.662,108.84,216.871,108.351,216.871z M127.572,119.878c-2.134,0-4.65,0.533-7.529,1.591
			c-17.77,6.545-43.271,32.388-43.525,32.649l-24.732,20.624c-0.069,0.056-0.146,0.105-0.22,0.153
			c-0.128,0.083-1.42,0.947-1.208,2.507c0.37,2.729,5.278,10.291,42.808,21.662c8.732,2.764,13.536,9.448,15.577,13.069
			l24.259-27.782l-19.435-22.999c-0.608-0.717-0.516-1.789,0.199-2.395c0.721-0.609,1.792-0.519,2.401,0.199l29.791,35.249
			l13.445-16.613c-2.318-4.478-12.06-23.013-17.63-29.819c-6.88-8.408-5.733-18.887-5.679-19.375l0,0
			c-0.017,0-0.136-4.971-3.589-7.359C131.197,120.334,129.546,119.878,127.572,119.878z"/>
	</g>
	<g>
		<path fill="#F4BE78" d="M408.91,257.625l-3.568,38.369c0,0,7.044,9.045,23.402,17.609c11.478,6.008,23.959,10.207,23.959,10.207
			s0.605,8.912,0.345,13.98c-0.261,5.062,5.609,9.191,7.301,0.752c1.688-8.452,4.241-6.48,7.959,4.191
			c4.163,11.94,22.804,9.406,15.26-8.863c-3.377-8.871-21.593-19.064-22.316-19.064c-0.728,0-33.954-25.574-33.954-25.574
			l5.525-35.869l-18.96-17.201L408.91,257.625z"/>
		<path fill="#27140E" d="M477.794,351.738c-4.06,0-9.062-2.61-11.096-8.438c-1.883-5.403-3.049-7.325-3.62-8.007
			c-0.251,0.493-0.647,1.518-1.059,3.578c-1.125,5.611-4.019,6.218-5.209,6.218l0,0c-1.219,0-2.434-0.569-3.422-1.608
			c-1.387-1.461-2.151-3.627-2.04-5.777c0.198-3.865-0.125-10.117-0.274-12.652c-3.309-1.17-13.609-4.957-23.121-9.936
			c-16.49-8.641-23.659-17.692-23.955-18.076c-0.27-0.34-0.395-0.771-0.352-1.205l3.568-38.363c0.006-0.078,0.021-0.154,0.037-0.227
			l4.951-21.464c0.133-0.592,0.571-1.065,1.147-1.247c0.581-0.177,1.204-0.042,1.654,0.366l18.959,17.201
			c0.425,0.387,0.627,0.959,0.54,1.526l-5.376,34.877c12.632,9.712,31.236,23.896,32.813,24.761l-0.012,0.026
			c3.829,1.462,19.955,11.384,23.229,19.978c3.127,7.574,1.825,12.114,0.179,14.572
			C483.678,350.318,480.931,351.738,477.794,351.738z M462.956,331.581c2.381,0,4.271,2.869,6.959,10.599
			c1.483,4.254,5.024,6.154,7.879,6.154c2.009,0,3.68-0.85,4.711-2.389c1.678-2.5,1.496-6.565-0.509-11.426
			c-2.994-7.854-19.412-17.429-21.191-18.076l0.007-0.021c-1.231-0.493-5.926-3.802-34.557-25.839
			c-0.49-0.376-0.737-0.995-0.644-1.607l5.385-34.969l-16.129-14.636l-4.269,18.524l-3.5,37.547
			c1.729,1.979,8.806,9.513,22.433,16.647c11.224,5.877,23.591,10.062,23.716,10.104c0.653,0.223,1.109,0.813,1.155,1.496
			c0.023,0.369,0.608,9.074,0.345,14.185c-0.073,1.462,0.529,2.64,1.113,3.259c0.327,0.348,0.684,0.551,0.95,0.551
			c0.404,0,1.315-0.725,1.866-3.476C459.335,334.93,460.355,331.581,462.956,331.581z"/>
	</g>
	<g>
		<path fill="#4B7ABD" d="M293.68,213.233c0,0-6.8,0.958-16.447,0c-9.649-0.96-18.816,13.035-21.232,27.267
			c-2.409,14.236,20.51,11.1,28.952,28.708c8.446,17.615,27.503,22.135,30.643,30.49c2.113,3.362,12.548,4.979,12.548,4.979
			s16.401-23.401,27.739-21.71c5.069-0.48-8.202-21.975-8.202-21.975l-34.017-37.621L293.68,213.233z"/>
		<path fill="#27140E" d="M328.142,306.375c-0.091,0-0.174-0.006-0.265-0.021c-1.869-0.285-11.326-1.922-13.728-5.75
			c-0.062-0.098-0.114-0.195-0.153-0.308c-1.128-3.008-5.143-5.758-9.786-8.946c-6.994-4.805-15.696-10.779-20.791-21.404
			c-3.826-7.973-10.876-11.442-17.097-14.502c-6.926-3.399-13.461-6.616-12.002-15.226c2.479-14.612,11.935-29.818,23.078-28.68
			c2.793,0.279,5.612,0.415,8.385,0.415c4.675,0,7.631-0.404,7.658-0.408c0.342-0.052,0.692,0.01,1.011,0.171l19.981,10.138
			c0.186,0.098,0.354,0.223,0.491,0.376l34.019,37.62c0.071,0.077,0.132,0.16,0.184,0.243c3.446,5.578,11.23,18.981,9.233,23.007
			c-0.452,0.904-1.278,1.463-2.318,1.566c-0.137,0.007-0.275,0-0.412-0.014c-0.312-0.049-0.63-0.07-0.953-0.07
			c-8.498,0-21.035,15.214-25.143,21.068C329.21,306.109,328.691,306.375,328.142,306.375z M317.108,298.904
			c1.229,1.664,6.389,3.203,10.271,3.912c3.154-4.301,17.087-22.377,27.983-21.619c0.023-2.438-3.909-10.834-9.052-19.182
			l-33.7-37.266l-19.241-9.762c-1.098,0.125-3.788,0.376-7.586,0.376c-2.883,0-5.821-0.146-8.723-0.438
			c-7.957-0.776-16.92,11.356-19.381,25.86c-0.988,5.835,2.801,7.994,10.141,11.599c6.387,3.143,14.334,7.047,18.668,16.094
			c4.701,9.803,12.99,15.49,19.653,20.065C311.176,291.998,315.534,294.992,317.108,298.904z"/>
	</g>
	<g>
		<path fill="#FFCB07" d="M409.203,169.089c0,0,9.406,21.473,23.397,33.296c13.992,11.823,0,51.629,0,51.629l-21.953,3.133
			c0,0-46.083,12.793-55.25,11.588c-9.163-1.213-14.235,9.406-18.816,11.334c-4.583,1.93-30.646,16.162-44.633-13.271
			c-13.992-29.432-12.3-36.673-3.86-47.769c8.449-11.095,21.954-15.196,36.188-16.164c14.235-0.964,45.841-25.574,48.253-29.432
			C374.938,169.572,402.627,156.674,409.203,169.089z"/>
		<path fill="#27140E" d="M317.391,286.9c-11.795,0-20.871-6.519-26.98-19.371c-13.709-28.843-13-37.272-3.678-49.53
			c7.721-10.142,19.961-15.649,37.431-16.833c13.398-0.909,44.606-24.935,46.926-28.638c2.086-3.338,16.325-10.414,27.26-10.414
			c5.946,0,10.219,2.138,12.359,6.18c0.146,0.32,9.476,21.366,22.994,32.788c14.721,12.436,1.094,51.825,0.509,53.495
			c-0.209,0.599-0.737,1.03-1.364,1.122l-21.955,3.133c-1.51,0.439-42.17,11.677-54.033,11.677c-0.003,0-0.003,0-0.003,0
			c-0.642,0-1.202-0.026-1.681-0.09c-5.249-0.688-9.051,3.245-12.414,6.69c-1.96,2.013-3.651,3.746-5.518,4.533
			c-0.275,0.11-0.627,0.271-1.048,0.459C333.043,283.538,325.666,286.9,317.391,286.9z M398.348,165.524
			c-9.948,0-23.103,6.774-24.377,8.811c-2.521,4.035-34.473,29.206-49.579,30.229c-16.429,1.114-27.856,6.183-34.95,15.496
			c-7.961,10.469-9.674,17.146,4.047,46.008c5.497,11.558,13.535,17.428,23.902,17.428c7.534,0,14.19-3.029,17.391-4.492
			c0.463-0.208,0.842-0.382,1.138-0.508c1.233-0.516,2.771-2.088,4.401-3.76c3.696-3.788,8.394-8.6,15.301-7.693
			c0.352,0.041,0.762,0.062,1.232,0.062c11.408,0,52.92-11.482,53.343-11.598l21.125-3.033c1.98-6.078,11.963-38.837,0.182-48.792
			c-14.132-11.937-23.469-33.018-23.858-33.909C406.164,166.993,403.017,165.524,398.348,165.524z"/>
	</g>
	<g>
		<path fill="#4C230D" d="M413.861,178.213c0,0,1.302-7.99,7.646-15.726c6.378-7.785,10.332-6.566,11.579-7.391
			c3.62-2.402,18.193-9.281,21.714-8.442c4.345,1.031,14.229,10.284,20.985,21.71c6.757,11.434-3.642,28.422-8.198,33.777
			c-4.102,4.825-12.308,9.587-14.236,11.042c-1.929,1.456-9.998,1.152-14.526,0C434.294,212.036,417.562,194.333,413.861,178.213z"
			/>
		<path fill="#27140E" d="M447.548,215.872c-3.134,0-6.637-0.397-9.146-1.038c-5.319-1.351-22.417-19.764-26.201-36.242
			c-0.048-0.216-0.057-0.438-0.021-0.655c0.057-0.344,1.451-8.533,8.009-16.53c5.298-6.468,9.196-7.207,11.288-7.603
			c0.279-0.056,0.624-0.118,0.731-0.161c3.141-2.095,16.798-8.766,21.889-8.766c0.407,0,0.77,0.042,1.097,0.118
			c4.821,1.146,15.063,10.667,22.059,22.504c7.373,12.478-3.851,30.435-8.365,35.748c-3.32,3.899-9.007,7.638-12.404,9.873
			c-0.939,0.616-1.679,1.101-2.104,1.42C453.942,214.873,452.62,215.872,447.548,215.872z M415.605,178.175
			c3.711,15.402,19.75,32.371,23.639,33.359c2.218,0.564,5.476,0.929,8.304,0.929c3.228,0,4.543-0.463,4.776-0.637
			c0.463-0.349,1.263-0.881,2.283-1.549c3.243-2.134,8.679-5.706,11.681-9.236c5.167-6.075,13.926-21.839,8.032-31.807
			c-6.796-11.499-16.332-20.074-19.915-20.923c-0.023-0.007-0.118-0.025-0.31-0.025c-3.941,0-16.693,5.985-20.066,8.227
			c-0.575,0.383-1.229,0.508-1.918,0.637c-1.783,0.337-4.773,0.905-9.292,6.416C417.527,170.025,415.912,176.678,415.605,178.175z"
			/>
	</g>
	<g>
		<path fill="#F4BE78" d="M224.183,228.92c10.664,0,12.801,4.199,12.94,8.495s-20.945,5.257-18.487-2.583
			C218.636,234.832,219.775,228.92,224.183,228.92z"/>
		<path fill="#27140E" d="M228.016,242.4c-2.34,0-8.024-0.341-10.34-3.496c-0.965-1.309-1.19-2.893-0.666-4.581
			c0.475-2.521,2.58-7.106,7.173-7.106c9.63,0,14.419,3.318,14.64,10.142c0.021,0.599-0.133,1.504-0.976,2.371
			C235.943,241.697,231.521,242.4,228.016,242.4z M224.183,230.626c-2.921,0-3.864,4.484-3.875,4.529
			c-0.303,1.013-0.098,1.445,0.111,1.729c0.923,1.26,3.977,2.105,7.597,2.105c4.227,0,7.088-1.103,7.436-1.695
			C235.348,235.25,235.194,230.626,224.183,230.626z"/>
	</g>
</g>
</svg>
