<?xml version="1.0" encoding="utf-8"?>
<!-- Generator: Adobe Illustrator 16.0.0, SVG Export Plug-In . SVG Version: 6.00 Build 0)  -->
<!DOCTYPE svg PUBLIC "-//W3C//DTD SVG 1.1//EN" "http://www.w3.org/Graphics/SVG/1.1/DTD/svg11.dtd">
<svg version="1.1" id="Layer_1" xmlns="http://www.w3.org/2000/svg" xmlns:xlink="http://www.w3.org/1999/xlink" x="0px" y="0px"
	 width="500px" height="500px" viewBox="0 0 500 500" enable-background="new 0 0 500 500" xml:space="preserve">
<g id="Layer_1_copy_41">
	<g>
		<g>
			<path fill="#BC842E" d="M394.622,119.155c0,0,7.981-38.575-9.785-57.1c-17.762-18.52-19.571,57.02-15.173,50.856"/>
			<path fill="#3C2517" d="M394.625,121.762c-0.172,0-0.352-0.02-0.528-0.056c-1.41-0.291-2.314-1.669-2.022-3.081
				c0.076-0.371,7.484-37.458-9.116-54.764c-2.78-2.896-3.977-2.078-4.434-1.77c-7.286,4.965-9.302,40.585-7.828,48.426
				c0.169,0.07,0.33,0.165,0.48,0.272c1.174,0.837,1.445,2.464,0.607,3.634c-1.004,1.41-2.417,1.626-3.396,1.345
				c-2.234-0.628-2.837-3.181-3.163-7.667c-0.679-9.406,0.486-46.063,11.572-50.991c2.203-0.988,5.724-1.238,9.922,3.139
				c18.501,19.294,10.793,57.8,10.461,59.432C396.922,120.911,395.838,121.762,394.625,121.762z"/>
		</g>
		<g>
			<path fill="#BC842E" d="M264.484,260.061c17.75,44.373-22.562,105.396-22.562,105.396s21.453,9.238,42.529,0
				c21.08-9.248,19.6,4.109,19.6,4.109s15.163-3.004,12.943,10.312c-2.219,13.313-12.351,17.753-37.424,21.823
				c-25.07,4.062-64.271-2.967-60.206-21.823c4.068-18.86,12.205-72.106-7.024-72.479l-26.122-41.73L264.484,260.061z"/>
			<path fill="#3C2517" d="M264.809,405.418c-15.625,0-36.782-3.602-44.979-13.753c-2.927-3.623-3.97-7.892-3.01-12.337
				c3.949-18.314,9.14-55.819,0.529-66.7c-1.39-1.751-2.994-2.586-5.062-2.624c-0.877-0.02-1.688-0.48-2.153-1.225l-26.123-41.733
				c-0.485-0.772-0.525-1.743-0.111-2.562c0.413-0.813,1.225-1.353,2.135-1.418l78.264-5.605c1.133-0.081,2.184,0.581,2.605,1.631
				c7.506,18.762,5.914,43.391-4.604,71.229c-5.998,15.875-13.178,28.421-16.444,33.775c3.628,1.155,10.314,2.861,18.202,2.861
				c6.955,0,13.461-1.309,19.352-3.891c10.259-4.5,17.308-4.57,20.975-0.469c1.173,1.312,1.762,2.801,2.048,4.094
				c0.325-0.016,0.67-0.024,1.035-0.024c4.468,0,7.951,1.321,10.071,3.825c2.03,2.4,2.712,5.699,2.03,9.81
				c-2.558,15.337-14.8,19.949-39.579,23.968C275.292,405.032,270.188,405.418,264.809,405.418z M213.854,304.902
				c2.997,0.406,5.543,1.914,7.582,4.494c12.069,15.246,1.701,65.362,0.48,71.03c-0.634,2.935,0.008,5.54,1.967,7.968
				c5.704,7.065,22.152,11.81,40.926,11.81c5.098,0,9.926-0.361,14.346-1.08c25.504-4.134,33.414-8.55,35.271-19.676
				c0.422-2.528,0.128-4.41-0.871-5.587c-1.457-1.727-4.442-1.983-6.089-1.983c-1.646,0-2.9,0.241-2.913,0.241
				c-0.8,0.152-1.658-0.08-2.264-0.639c-0.611-0.565-0.92-1.379-0.828-2.203l0,0c0,0,0.161-1.971-0.983-3.223
				c-1.945-2.134-7.445-1.516-14.979,1.789c-6.545,2.869-13.763,4.328-21.44,4.328c-12.984,0-22.753-4.146-23.16-4.324
				c-0.715-0.306-1.249-0.91-1.469-1.646c-0.224-0.742-0.104-1.54,0.32-2.185c0.391-0.588,38.279-58.769,22.986-101.219
				l-72.006,5.158L213.854,304.902z"/>
		</g>
		<g>
			<path fill="#FBB041" d="M361.404,208.484c0,0,15.896,14.792,17.379,39.567c18.122-0.736,37.353,17.618,30.325,34.143
				c-7.025,16.521-31.804,11.713-36.609,3.949c-4.809-7.767,10.72-12.941,10.72-12.941l-21.813-5.066l-13.313-14.059
				C348.091,254.076,341.805,205.523,361.404,208.484z"/>
			<path fill="#3C2517" d="M390.375,295.885c-8.642,0-17.09-3.52-20.093-8.369c-1.39-2.246-1.688-4.646-0.852-6.947
				c0.982-2.721,3.447-4.896,5.978-6.506l-14.596-3.395c-0.497-0.109-0.95-0.372-1.305-0.741l-13.313-14.059
				c-0.372-0.402-0.621-0.916-0.688-1.46c-0.177-1.367-4.215-33.561,5.523-44.641c2.797-3.183,6.345-4.525,10.764-3.864
				c0.521,0.078,1.004,0.312,1.386,0.671c0.658,0.612,15.665,14.831,18.018,38.879c10.628,0.494,21.588,6.732,27.606,15.838
				c4.721,7.139,5.685,14.923,2.705,21.919C408.085,291.266,400.377,295.885,390.375,295.885z M362.761,265.77l21.048,4.893
				c1.141,0.264,1.96,1.252,2.016,2.415c0.054,1.164-0.67,2.225-1.778,2.595c-3.211,1.08-8.693,3.844-9.713,6.674
				c-0.196,0.533-0.32,1.289,0.381,2.424c1.759,2.838,8.244,5.902,15.662,5.902c4.592,0,12.821-1.234,16.337-9.503
				c2.263-5.33,1.465-11.369-2.256-16.998c-5.451-8.243-16.071-13.875-25.564-13.517c-1.393,0.127-2.625-1.029-2.708-2.444
				c-1.244-20.805-13.178-34.337-15.972-37.235c-2.111-0.139-3.806,0.57-5.266,2.236c-6.593,7.494-5.468,30.418-4.372,39.693
				L362.761,265.77z"/>
		</g>
		<g>
			<path fill="#FCDEB3" d="M371.017,174.831c0,0-14.421,12.938-11.094,49.182c3.331,36.241-4.516,78.012-60.319,95.956
				c-55.798,17.944-22.886-43.072-22.886-43.072l12.939-67.671C289.657,209.224,360.661,117.142,371.017,174.831z"/>
			<path fill="#3C2517" d="M282.266,325.88c-7.31,0-12.473-2.44-15.342-7.253c-7.746-12.975,5.45-39.062,7.307-42.605l12.871-67.29
				c0.071-0.399,0.25-0.775,0.498-1.102c1.709-2.22,42.236-54.407,67.442-54.407c6.731,0,15.4,3.668,18.54,21.145
				c0.16,0.887-0.148,1.798-0.823,2.4c-0.121,0.112-13.385,12.764-10.239,47.006c4.656,50.723-16.239,83.919-62.115,98.675
				C293.33,324.727,287.227,325.88,282.266,325.88z M292.104,210.33l-12.826,67.056c-0.051,0.263-0.139,0.515-0.269,0.746
				c-3.981,7.397-13.116,28.608-7.606,37.826c1.889,3.167,5.443,4.707,10.863,4.707c4.416,0,9.985-1.067,16.544-3.179
				c43.846-14.101,62.987-44.598,58.518-93.233c-2.91-31.717,7.416-46.317,10.881-50.251c-3.182-15.564-10.661-15.564-13.165-15.564
				c-9.183,0-22.979,8.954-39.889,25.89C303.502,196.003,294.072,207.823,292.104,210.33z"/>
		</g>
		<g>
			<path fill="#FBB041" d="M329.675,223.459c0,0,15.898,14.788,17.38,39.566c18.118-0.734,37.354,17.617,30.32,34.142
				c-7.024,16.522-31.802,11.716-36.609,3.95c-4.81-7.766,10.726-12.941,10.726-12.941l-21.815-5.066l-13.317-14.062
				C316.356,269.047,310.071,220.499,329.675,223.459z"/>
			<path fill="#3C2517" d="M358.647,310.861c-8.646,0-17.097-3.521-20.099-8.371c-1.385-2.244-1.686-4.646-0.851-6.945
				c0.982-2.721,3.446-4.898,5.977-6.508l-14.59-3.393c-0.498-0.115-0.956-0.375-1.306-0.742l-13.312-14.062
				c-0.383-0.4-0.623-0.912-0.69-1.459c-0.178-1.365-4.219-33.557,5.522-44.637c2.798-3.183,6.342-4.534,10.76-3.863
				c0.521,0.078,1.006,0.311,1.386,0.668c0.663,0.614,15.667,14.831,18.02,38.883c10.627,0.489,21.585,6.729,27.606,15.838
				c4.72,7.137,5.682,14.918,2.705,21.918C376.352,306.241,368.648,310.861,358.647,310.861z M331.028,280.746l21.053,4.893
				c1.135,0.264,1.954,1.25,2.01,2.41c0.058,1.168-0.67,2.227-1.773,2.598c-3.214,1.08-8.693,3.847-9.718,6.674
				c-0.192,0.535-0.32,1.291,0.381,2.426c1.759,2.838,8.25,5.902,15.668,5.902c4.592,0,12.813-1.234,16.331-9.502
				c2.268-5.334,1.47-11.371-2.257-17.002c-5.449-8.244-16.091-13.858-25.562-13.515c-1.377,0.136-2.62-1.028-2.709-2.448
				c-1.236-20.725-13.182-34.322-15.977-37.236c-2.09-0.104-3.8,0.578-5.262,2.236c-6.587,7.498-5.463,30.417-4.371,39.696
				L331.028,280.746z"/>
		</g>
		<g>
			<path fill="#FBB041" d="M446.424,150.222c-10.227-2.669-26.676-6.669-38.234-30.679c-11.557-24.01-27.121-17.338-48.899-11.112
				c-19.56,5.585-19.768,33.013-19.607,38.568l-10.82,10.824c0,0-3.697,5.175-21.82,19.226
				c-18.121,14.052-55.838,10.726-98.368,35.503c-42.529,24.773-35.502,87.644-40.676,123.884
				c-5.177,36.237-25.516,25.519-73.592,31.809c-48.077,6.285-51.036,7.023-58.06,23.66c-7.029,16.646,27.735,9.25,44.742,4.443
				c17.014-4.812,19.594,5.338,49.835,5.863c34.282,0.602,52.322-12.281,61.647-38.982c9.1-26.057,21.281-68.209,21.281-68.209
				s13.312,20.705,32.543,21.076c19.226,0.372,11.094,53.619,7.024,72.48c-4.066,18.861,35.132,25.888,60.205,21.822
				c25.071-4.066,35.206-8.508,37.426-21.822c2.221-13.311-12.944-10.312-12.944-10.312s1.48-13.354-19.595-4.109
				c-21.08,9.242-42.535,0-42.535,0s40.312-61.018,22.559-105.396c54.736-28.103,51.417-109.204,51.417-109.204
				s-2.225,12.894,23.563,22.671c25.783,9.781,18.228-1.776,39.122-3.998c20.9-2.222,16.448,3.998,27.562,0
				C451.315,174.228,456.65,152.884,446.424,150.222z"/>
			<path fill="#3C2517" d="M298.861,414.119c-15.631,0-36.787-3.6-44.983-13.756c-2.925-3.625-3.965-7.891-3.01-12.334
				c3.95-18.314,9.146-55.821,0.53-66.699c-1.384-1.753-2.99-2.592-5.054-2.627c-14.866-0.286-26.189-11.527-31.458-17.938
				c-3.521,11.99-12.689,42.791-19.853,63.322c-10.07,28.835-29.751,41.273-64.156,40.73c-14.969-0.265-23.257-2.801-29.915-4.84
				c-4.227-1.291-7.562-2.319-11.432-2.319c-2.363,0-4.894,0.394-7.731,1.19c-6.341,1.795-22.348,5.963-34.024,5.963
				c-7.128,0-11.62-1.547-13.727-4.729c-1.618-2.437-1.653-5.528-0.108-9.19c7.767-18.389,12.72-19.039,60.127-25.236
				c11.943-1.564,21.998-2.074,30.869-2.528c26.837-1.364,36.878-1.874,40.476-27.063c1.074-7.532,1.626-16.33,2.207-25.643
				c2.212-35.584,4.969-79.868,39.743-100.123c23.798-13.864,46.212-19.08,64.226-23.266c14.626-3.406,26.179-6.092,33.86-12.042
				c17.323-13.44,21.265-18.652,21.306-18.704c0.075-0.106,0.172-0.219,0.264-0.307l10.035-10.043
				c-0.057-7.752,1.26-34.227,21.521-40.013c1.545-0.446,3.062-0.889,4.552-1.325c8.453-2.48,15.754-4.62,22.572-4.62
				c10.891,0,18.785,5.858,24.838,18.435c10.882,22.598,26.078,26.557,36.133,29.175l0.413,0.106
				c4.443,1.16,7.136,5.003,7.381,10.55c0.381,8.375-4.904,19.383-13.382,22.435c-2.938,1.058-5.105,1.529-7.027,1.529l0,0
				c-1.689,0-3.003-0.354-4.395-0.73c-1.879-0.509-4.211-1.142-8.778-1.142c-2.293,0-4.974,0.165-7.968,0.486
				c-7.575,0.805-11.022,2.859-14.062,4.676c-2.761,1.652-5.37,3.209-9.838,3.209c-3.985,0-9.055-1.247-16.426-4.042
				c-10.495-3.981-16.688-8.531-20.315-12.711c-1.493,23.995-9.573,75.484-50.489,98.031
				c14.196,39.881-14.229,90.355-21.866,102.815c3.624,1.151,10.312,2.854,18.193,2.854c6.95,0,13.467-1.311,19.347-3.891
				c10.341-4.531,17.274-4.601,20.976-0.466c1.178,1.312,1.765,2.802,2.048,4.095c0.329-0.018,0.675-0.029,1.034-0.029
				c4.469,0,7.953,1.326,10.071,3.826c2.036,2.403,2.718,5.703,2.036,9.812c-2.558,15.338-14.804,19.945-39.582,23.966
				C309.35,413.73,304.235,414.119,298.861,414.119z M213.851,292.414c0.879,0,1.709,0.439,2.191,1.191
				c0.127,0.194,12.819,19.549,30.403,19.885c3.641,0.072,6.683,1.617,9.043,4.605c12.064,15.244,1.701,65.365,0.478,71.034
				c-0.635,2.935,0.017,5.537,1.972,7.958c5.709,7.068,22.147,11.816,40.925,11.816c5.101,0,9.926-0.361,14.346-1.079
				c25.503-4.14,33.419-8.55,35.273-19.677c0.417-2.528,0.127-4.41-0.871-5.588c-1.462-1.725-4.443-1.98-6.096-1.98
				c-1.644,0-2.9,0.234-2.913,0.24c-0.802,0.152-1.649-0.08-2.264-0.643c-0.609-0.559-0.919-1.378-0.827-2.199l0,0
				c0,0,0.162-1.976-0.979-3.229c-1.951-2.127-7.446-1.509-14.979,1.795c-6.546,2.865-13.761,4.322-21.441,4.322
				c-12.988,0-22.758-4.143-23.163-4.322c-0.71-0.307-1.248-0.908-1.47-1.643c-0.221-0.741-0.101-1.541,0.322-2.184
				c0.396-0.603,39.347-60.41,22.312-102.994c-0.498-1.248,0.031-2.675,1.232-3.285c47.879-24.587,50.096-91.155,50.034-104.688
				c-0.177-1.495-0.032-2.459,0-2.643c0.229-1.311,1.421-2.229,2.737-2.154c1.333,0.087,2.38,1.161,2.437,2.491
				c0,0,0.028,0.686,0.035,1.953c0.499,3.342,3.657,11.49,21.849,18.389c6.662,2.531,11.299,3.707,14.577,3.707
				c3.025,0,4.673-0.985,7.164-2.472c3.328-1.987,7.471-4.459,16.184-5.386c3.177-0.339,6.047-0.512,8.52-0.512
				c5.253,0,8.074,0.763,10.134,1.321c1.188,0.316,2.038,0.551,3.039,0.551l0,0c1.275,0,2.945-0.389,5.263-1.222
				c6.041-2.173,10.234-10.923,9.945-17.295c-0.104-2.226-0.79-5.031-3.491-5.74l-0.409-0.106
				c-10.323-2.69-27.591-7.185-39.521-31.96c-6.566-13.645-13.867-15.481-20.143-15.481c-6.071,0-13.039,2.042-21.107,4.407
				c-1.497,0.436-3.025,0.889-4.587,1.335c-17.706,5.059-17.866,30.865-17.714,35.988c0.021,0.718-0.261,1.411-0.767,1.92
				l-10.7,10.696c-0.887,1.13-5.703,6.787-22.186,19.571c-8.576,6.649-21.225,9.591-35.869,12.997
				c-17.674,4.111-39.661,9.227-62.786,22.694c-32.362,18.853-35.022,61.603-37.162,95.943c-0.587,9.422-1.141,18.319-2.248,26.061
				c-4.207,29.435-18.828,30.183-45.376,31.535c-8.771,0.442-18.717,0.95-30.456,2.488c-48.013,6.276-49.578,6.895-56.001,22.091
				c-0.565,1.341-1.083,3.175-0.35,4.282c0.479,0.723,2.35,2.396,9.385,2.396c11.022,0,26.476-4.029,32.604-5.76
				c3.305-0.936,6.298-1.395,9.151-1.395c4.651,0,8.501,1.186,12.96,2.551c6.343,1.941,14.246,4.363,28.474,4.611
				c32.127,0.551,49.812-10.5,59.147-37.24c8.967-25.688,21.113-67.649,21.232-68.071c0.285-0.979,1.117-1.705,2.124-1.856
				C213.597,292.422,213.726,292.414,213.851,292.414z"/>
		</g>
		<g>
			<path fill="#FBB041" d="M380.181,109.319c0,0-13.782-36.902-38.682-43.128c-24.896-6.223,13.785,58.686,14.229,51.13"/>
			<path fill="#3C2517" d="M355.287,120.552c-1.866,0-3.573-1.805-5.885-4.947c-5.578-7.598-24.103-39.247-17.344-49.317
				c1.346-2.007,4.194-4.09,10.074-2.623c25.93,6.48,39.906,43.182,40.491,44.739c0.502,1.35-0.187,2.852-1.529,3.354
				c-1.359,0.504-2.851-0.183-3.354-1.525c-0.133-0.355-13.607-35.698-36.871-41.511c-3.894-0.971-4.476,0.362-4.692,0.865
				c-3.522,8.08,13.729,39.303,19.147,45.157c0.18-0.026,0.368-0.037,0.557-0.024c1.438,0.084,2.533,1.314,2.448,2.755
				c-0.104,1.73-1.185,2.653-2.163,2.942C355.865,120.507,355.576,120.552,355.287,120.552z"/>
		</g>
		<g>
			<path fill="#FFFFFF" d="M384.764,128.772c0,0,3.688-8.038,10.856,2.606c7.17,10.645,0.715,17.996-7.603,14.556
				C381.722,143.328,379.983,137.682,384.764,128.772z"/>
			<path fill="#3C2517" d="M392.025,149.397c-1.631,0-3.312-0.356-5.002-1.056c-3.54-1.465-5.881-3.741-6.958-6.763
				c-1.362-3.809-0.556-8.536,2.397-14.037c0.684-1.503,2.866-4.282,6.258-4.282c3.075,0,6.04,2.179,9.06,6.665
				c3.647,5.418,4.522,10.813,2.399,14.801C398.623,147.649,395.578,149.397,392.025,149.397z M388.722,128.471
				c-0.852,0-1.585,1.375-1.594,1.392c-2.268,4.236-2.986,7.63-2.156,9.961c0.57,1.604,1.893,2.812,4.043,3.703
				c2.882,1.189,5.531,0.686,6.566-1.25c1.172-2.199,0.377-5.73-2.119-9.442C390.656,128.68,389.022,128.471,388.722,128.471z"/>
		</g>
		<g>
			<ellipse fill="#3C2517" cx="393.365" cy="140.394" rx="5.347" ry="5.541"/>
		</g>
	</g>
</g>
</svg>
