<svg id="one_arm_distance" data-name="one arm distance" xmlns="http://www.w3.org/2000/svg" viewBox="0 0 300 300"><defs><style>.cls-1{fill:#f0a985;}.cls-2{fill:#3c2417;}.cls-3{fill:#603b17;}.cls-4{fill:#be202e;}.cls-5{fill:#9f1e2a;}.cls-6{fill:#27a8e0;}.cls-7{fill:none;stroke:#3c2415;stroke-miterlimit:10;stroke-width:1.75px;}</style></defs><title>one arm distnace</title><path class="cls-1" d="M114.19,155.14s6.47,17.24,10.11,16.62,22.43-5.59,24.5-13.53c1.84-7,6.84-10.93,6.3-4.9s.46,5.32,4.18,4.68,11.46-5.23,13,2.56-16.28,8.61-19.33,7.85-4.41-.07-9.73,4.12-19.28,14.72-24.88,10.28a109.64,109.64,0,0,1-11.09-10.49S103.08,149.71,114.19,155.14Z"/><path class="cls-2" d="M121.78,184.74a6.21,6.21,0,0,1-4-1.26A110.8,110.8,0,0,1,106.6,172.9l-.17-.18,0-.24c-.09-.53-2.33-13,1.32-17.43,1.55-1.85,3.9-2.11,6.85-.67l.3.15.12.32c2.9,7.73,7.22,16.08,9.12,16.08,4.78-.81,22-5.86,23.88-12.92,1.22-4.69,3.94-8.51,6.06-8.51a1.65,1.65,0,0,1,1.26.56c.58.63.79,1.73.65,3.34-.08.89-.32,3.58.14,4.08a4.48,4.48,0,0,0,2.17-.14l.89-.16a20.2,20.2,0,0,0,2.6-.73,20,20,0,0,1,5.69-1.21c3.08,0,5,1.74,5.64,5.17a5.06,5.06,0,0,1-1.1,4.34c-3.1,3.74-11.59,4.74-16.11,4.74a15,15,0,0,1-3.16-.25A7.26,7.26,0,0,0,151,169c-1.7,0-3.32,1.05-7.33,4.21C134,180.86,126.62,184.74,121.78,184.74ZM108,171.94a109.24,109.24,0,0,0,10.83,10.22,4.52,4.52,0,0,0,2.94.89c3.06,0,9.17-1.94,20.89-11.17,4.12-3.25,6-4.57,8.37-4.57a8.6,8.6,0,0,1,2.08.29,13.52,13.52,0,0,0,2.75.2c5.48,0,12.46-1.29,14.8-4.13a3.38,3.38,0,0,0,.75-2.94c-.66-3.36-2.47-3.79-4-3.79a18.42,18.42,0,0,0-5.17,1.13,22.7,22.7,0,0,1-2.85.78l-.85.15c-1.88.34-3,.4-3.73-.38s-.86-2.13-.58-5.36c.15-1.72-.22-2.07-.22-2.07-.73,0-3.19,2.55-4.42,7.25-2.23,8.54-21.48,13.52-25.18,14.15a1.87,1.87,0,0,1-.34,0c-3.85,0-8.93-12.49-10.59-16.86-2-.91-3.49-.82-4.5.38C106.46,159.21,107.39,168.36,108,171.94Z"/><path class="cls-1" d="M82.07,129.31s3,5.53,1.8,8.17S81,151.89,87,152.13s8.66-9.38,8.66-9.38V137S91.82,121.16,82.07,129.31Z"/><path class="cls-2" d="M87.21,153H87a4.48,4.48,0,0,1-3.78-2.25c-2.34-3.81-1.11-11.35-.08-13.59.75-1.64-.69-5.42-1.77-7.41l-.33-.61.53-.45a9.25,9.25,0,0,1,5.79-2.52c6.49,0,9.05,10.26,9.15,10.7l0,.2,0,5.94C96.35,143.39,93.64,153,87.21,153Zm-4.07-23.44c.81,1.64,2.62,5.83,1.5,8.29-.91,2-1.9,8.94,0,12A2.81,2.81,0,0,0,87,151.29h.18c4.84,0,7.3-7.67,7.59-8.66v-5.48c-.26-1-2.59-9.32-7.48-9.32A7.15,7.15,0,0,0,83.14,129.54Z"/><path class="cls-1" d="M125.47,101.81s-6,4.89-5.54,9.45,4.32,25.73-17.55,26.21S79.3,122.32,79.3,122.32,84.59,86.5,95.89,88.43,128.13,82.5,125.47,101.81Z"/><path class="cls-2" d="M101.4,138.32c-21.47,0-22.93-15.77-22.94-15.93v-.1l0-.09c.21-1.42,5.25-34.69,16.55-34.69a7,7,0,0,1,1,.08,28.1,28.1,0,0,0,4.7.33h0c1.74,0,3.62-.09,5.44-.18s3.84-.18,5.72-.18c4.21,0,9.42.43,12.32,3.75,2.06,2.37,2.75,5.84,2.09,10.62l0,.33-.26.21s-5.66,4.65-5.23,8.71c0,.24.06.54.1.88.51,4.19,1.71,14-3.89,20.48-3.2,3.69-8.1,5.63-14.58,5.77Zm-21.24-16c.13,1.34,2.07,14.7,22.2,14.27,6-.13,10.47-1.88,13.34-5.19,5.11-5.9,4-15.2,3.49-19.17,0-.35-.08-.65-.11-.91-.46-4.44,4.38-8.93,5.6-10,.51-4.1-.06-7-1.74-9-2.45-2.81-7.19-3.17-11-3.17-1.84,0-3.77.09-5.64.18s-3.74.18-5.53.18h0a29.26,29.26,0,0,1-5-.35A4.59,4.59,0,0,0,95,89.2C86.87,89.2,81.54,113,80.16,122.35Z"/><path class="cls-3" d="M116.32,80.74S124,97.32,112,102.13s-16.34,1-21.87,4.09-7.45,12-7.69,18-.49,12.74-7.22,12-19.95-.24-21.15-14S49,74.73,85.55,65.83s42.79,20.43,43,23.8S127.86,120.16,116.32,80.74Z"/><path class="cls-2" d="M76.17,137.16a9.39,9.39,0,0,1-1,0c-.69-.08-1.44-.14-2.23-.2-6.94-.56-18.54-1.5-19.68-14.51l-.08-.92C51.87,107.24,48.9,73.88,85.35,65a55.88,55.88,0,0,1,13-1.7c24.21,0,30.65,20.71,31,26.26.08,1.12.09,10.09-2.11,12.46a2,2,0,0,1-1.48.69c-1.31,0-3.18-1.21-6.33-9.52a11,11,0,0,1-7.19,9.72,35.32,35.32,0,0,1-14.71,2.74c-2.78,0-4.79,0-7.07,1.29-5,2.81-7,11.09-7.26,17.33C83,130.06,82.76,137.16,76.17,137.16ZM98.38,65a54,54,0,0,0-12.63,1.64c-35,8.53-32.16,40.87-30.93,54.68l.09.92c1,11.59,10.9,12.39,18.12,13l2.28.2c5.37.58,6-4.19,6.27-11.14s2.56-15.66,8.12-18.8c2.66-1.5,5.09-1.51,7.9-1.52a33.77,33.77,0,0,0,14.08-2.61c6.48-2.6,6.75-9,5.83-13.89-.62-1.88-1.3-4.1-2-6.49a.85.85,0,0,1,1.58-.59,31.82,31.82,0,0,1,2.08,6.77c4.4,13.49,6.44,13.88,6.66,13.88s.18-.1.24-.15c1.45-1.57,1.82-9.09,1.67-11.19C127.72,89.44,124.35,65,98.38,65Z"/><path class="cls-4" d="M61,207.66h49.28c2.41-7.93-1.2-39.91-1.2-39.91L116.8,159c-8.68-21.5-21.15-17.42-21.15-17.42-7.33,7.56-12.4-2-12.4-2s-16.45,2.85-21.68,7.75C55.68,152.84,61,207.66,61,207.66Z"/><path class="cls-2" d="M110.31,208.51H61a.85.85,0,0,1-.84-.77c-.55-5.65-5.21-55.4.81-61,5.34-5,21.42-7.85,22.1-8a.85.85,0,0,1,.9.43c0,.05,2.42,4.46,6,4.46h0c1.62,0,3.31-.89,5-2.65a.8.8,0,0,1,.35-.22,9.67,9.67,0,0,1,2.75-.35c4.51,0,13,2.37,19.45,18.27a.84.84,0,0,1-.15.87L110,168c.42,3.78,3.44,32.24,1.13,39.88A.85.85,0,0,1,110.31,208.51Zm-48.51-1.7h47.86c2-8.58-1.36-38.65-1.39-39a.85.85,0,0,1,.2-.65l7.35-8.38c-6-14.54-13.65-16.73-17.68-16.73a8.8,8.8,0,0,0-2,.22c-2,2-4,3-6.07,3h0c-3.79,0-6.34-3.45-7.2-4.82-2.93.55-16.22,3.26-20.67,7.43C58.1,151.73,59.7,184.93,61.8,206.81Z"/><path class="cls-4" d="M110.13,178.39s-1.86-16.4-4-22.53"/><path class="cls-2" d="M110.13,179.23a.84.84,0,0,1-.84-.75c0-.16-1.88-16.37-4-22.34a.84.84,0,1,1,1.59-.56c2.17,6.14,4,22,4.07,22.71a.85.85,0,0,1-.74.94Z"/><path class="cls-1" d="M70.71,154l11.78,10.38s9.17,7.54,14.63,4.22,24.73-13.47,23.66-20.65-.65-11.86,3.19-3.75c0,0,1,2.32,5.94-3.13s5.75-5.57,7.88-3.7,3.21,9.63-3.7,13.41-8.85,7.52-11.69,10.34-22.86,30.11-36.08,21.9a166.75,166.75,0,0,1-23.24-17.57S61.65,152.54,70.71,154Z"/><path class="cls-2" d="M91.76,185.44a11,11,0,0,1-5.89-1.66A168.54,168.54,0,0,1,62.5,166.11l-.23-.21,0-.31c0-.29-.74-7,2.37-10.5a6.44,6.44,0,0,1,6.24-1.88l.24,0,.18.16L83,163.79s6,4.85,10.84,4.85a5.3,5.3,0,0,0,2.8-.72c.66-.4,1.51-.9,2.51-1.48,6.47-3.76,21.61-12.57,20.75-18.32-1.07-7.18-.19-8.21.1-8.54a1.23,1.23,0,0,1,1-.46c.89,0,1.86.81,3.73,4.76,0,0,0,0,.16,0,.32,0,1.58-.23,4.39-3.34,3.24-3.57,4.85-5.07,6.46-5.07a4,4,0,0,1,2.6,1.31c1.39,1.21,2.14,3.93,1.84,6.6a10.48,10.48,0,0,1-5.68,8.18,30.11,30.11,0,0,0-9.35,7.82c-.72.84-1.4,1.63-2.16,2.38-.35.35-1,1.16-1.91,2.19C115.65,170.38,102.93,185.44,91.76,185.44ZM63.89,165.09a167.11,167.11,0,0,0,22.87,17.25,9.31,9.31,0,0,0,5,1.41c10.38,0,23.2-15.18,28-20.89.94-1.11,1.61-1.91,2-2.3.71-.7,1.36-1.47,2.06-2.29a31.59,31.59,0,0,1,9.83-8.19,8.84,8.84,0,0,0,4.81-6.88c.27-2.38-.46-4.43-1.27-5.15s-1.14-.89-1.49-.89c-.93,0-2.62,1.66-5.21,4.52-2.37,2.62-4.22,3.9-5.64,3.9a1.82,1.82,0,0,1-1.7-1,16.92,16.92,0,0,0-2-3.48,24.78,24.78,0,0,0,.42,6.77c1,6.88-13.68,15.44-21.58,20l-2.48,1.46a6.93,6.93,0,0,1-3.68,1c-5.47,0-11.67-5-11.93-5.26L70.34,154.84a4.73,4.73,0,0,0-4.47,1.37C63.6,158.74,63.8,163.8,63.89,165.09Z"/><path class="cls-5" d="M67.27,173.46,82,159.68S65.8,140,57.35,150,67.27,173.46,67.27,173.46Z"/><path class="cls-2" d="M67.27,174.3a.83.83,0,0,1-.5-.16c-.47-.34-11.4-8.45-12.42-17a9.7,9.7,0,0,1,2.35-7.68,8.25,8.25,0,0,1,6.53-3.13c8.75,0,19,12.33,19.38,12.86a.84.84,0,0,1-.07,1.15L67.85,174.07A.85.85,0,0,1,67.27,174.3Zm-4-26.32A6.56,6.56,0,0,0,58,150.51a8,8,0,0,0-2,6.39c.81,6.82,9,13.69,11.18,15.45l13.58-12.73C78.64,157.16,70.15,148,63.23,148Z"/><path class="cls-2" d="M132.08,129.09a.82.82,0,0,1-.43-.12.84.84,0,0,1-.3-1.16,7.2,7.2,0,0,0,.4-6.07,7,7,0,0,0-4.78-4.61.85.85,0,0,1,.37-1.65,8.67,8.67,0,0,1,6,5.69,8.9,8.9,0,0,1-.55,7.5A.82.82,0,0,1,132.08,129.09Z"/><path class="cls-2" d="M139.22,130.14a.8.8,0,0,1-.44-.13.85.85,0,0,1-.29-1.16,12.75,12.75,0,0,0,.73-10.74c-1.51-4.21-4.77-7.34-8.51-8.17a.85.85,0,0,1-.64-1,.83.83,0,0,1,1-.64c4.3.95,8,4.5,9.73,9.25a14.44,14.44,0,0,1-.87,12.18A.82.82,0,0,1,139.22,130.14Z"/><path class="cls-1" d="M216.63,183.54s-2.11,3.67-4.18,2-7.71-4-7-8.59-1.06-9.65-3.15-4.25c-1.6,4.13-3.66,2.44-5.73.94-4.73-3.43-12.77.62-7.52,5,4.51,3.79,9.21,1.73,11.56,4.26,3.29,3.56,10.39,11.39,14.44,8.51a58.09,58.09,0,0,0,5.12-3.93Z"/><path class="cls-2" d="M213,192.89h0c-4.35,0-9.86-6-12.82-9.16l-.22-.24c-.86-.93-2.21-1.11-3.92-1.33a13.39,13.39,0,0,1-7.57-2.86c-2.34-2-2.15-3.77-1.82-4.66.68-1.86,3.06-3.16,5.79-3.16a7.77,7.77,0,0,1,4.6,1.45l.21.15a5.61,5.61,0,0,0,2.52,1.34c.61,0,1.19-.69,1.71-2.06s1.26-2.87,2.57-2.87a1.57,1.57,0,0,1,1.23.62c1,1.15,1.41,4.13,1,6.93-.48,3.1,2.53,5,4.95,6.6.66.43,1.28.84,1.75,1.22a1,1,0,0,0,.62.26c.87,0,1.93-1.35,2.3-2l.58-1,4.85,5.44-.59.56a54,54,0,0,1-5.21,4A4.25,4.25,0,0,1,213,192.89Zm-20.56-19.72c-2,0-3.78.88-4.2,2s.51,2.1,1.32,2.79a11.88,11.88,0,0,0,6.7,2.49c1.89.24,3.66.47,4.94,1.85l.22.24c2.59,2.8,8,8.62,11.58,8.62a2.5,2.5,0,0,0,1.52-.48c2.38-1.69,3.72-2.74,4.41-3.31l-2.24-2.5a4.36,4.36,0,0,1-3.11,1.9,2.66,2.66,0,0,1-1.69-.64,19.17,19.17,0,0,0-1.6-1.1c-2.53-1.64-6.34-4.1-5.7-8.28.42-2.77-.15-5.06-.57-5.56a4.85,4.85,0,0,0-1,1.74c-.3.78-1.21,3.14-3.29,3.14-1.24,0-2.4-.85-3.52-1.66l-.21-.15A6.11,6.11,0,0,0,192.46,173.17Z"/><path class="cls-2" d="M148.25,128.78a.88.88,0,0,1-.43-.12.85.85,0,0,1-.29-1.16,16.37,16.37,0,0,0,.93-13.79c-1.93-5.4-6.12-9.42-10.92-10.49a.85.85,0,0,1-.65-1,.86.86,0,0,1,1-.64c5.37,1.19,10,5.62,12.16,11.56A18.12,18.12,0,0,1,149,128.37.84.84,0,0,1,148.25,128.78Z"/><path class="cls-2" d="M199.09,160.16a.85.85,0,0,1-.81-.61,7.45,7.45,0,0,1,1.83-6.89A7.78,7.78,0,0,1,206,150a.85.85,0,0,1,.81.88.83.83,0,0,1-.88.81,6,6,0,0,0-4.57,2.12,5.81,5.81,0,0,0-1.47,5.3.84.84,0,0,1-.57,1A1,1,0,0,1,199.09,160.16Z"/><path class="cls-2" d="M192.23,160.29a.83.83,0,0,1-.81-.61,12,12,0,0,1,3-11.11,12.43,12.43,0,0,1,9.52-4.33.84.84,0,0,1,.81.88.85.85,0,0,1-.88.81,10.63,10.63,0,0,0-8.19,3.77,10.38,10.38,0,0,0-2.6,9.51.85.85,0,0,1-.58,1Z"/><path class="cls-2" d="M184.47,157.94a.85.85,0,0,1-.82-.61c-1.3-4.52.13-9.82,3.71-13.85a15.48,15.48,0,0,1,11.87-5.42.85.85,0,0,1,.81.88.87.87,0,0,1-.88.81,13.78,13.78,0,0,0-10.54,4.86c-3.2,3.59-4.48,8.29-3.34,12.25a.85.85,0,0,1-.58,1Z"/><path class="cls-6" d="M224.9,175.88l-9.54,7.05,4.77,5.83,2.75-2.68-4,20.73s-1.17,5.5,6.82,6.49,26.6,1.59,26.09-3.62-4.8-14.29-4.8-14.29l1.84-.71s-2.12-10-4.28-14.29a6.43,6.43,0,0,0-8.37-3C234.78,178.23,224.9,175.88,224.9,175.88Z"/><path class="cls-2" d="M237.1,214.81a100.73,100.73,0,0,1-11.55-.67c-3.1-.39-5.3-1.47-6.55-3.22a5.8,5.8,0,0,1-1-4.29l3.53-18.06L220.06,190l-5.92-7.23L224.72,175l.38.09c.07,0,7,1.66,9.88,1.66a2.41,2.41,0,0,0,.74-.07,6,6,0,0,1,3-.67,7.16,7.16,0,0,1,6.58,4c2.19,4.37,4.27,14.08,4.35,14.5l.15.7-1.66.64c1.07,2.39,4.05,9.32,4.49,13.74a2.91,2.91,0,0,1-.77,2.26C250,213.81,245.08,214.81,237.1,214.81Zm-12.87-31.22L219.67,207a4.1,4.1,0,0,0,.72,3c1,1.34,2.77,2.17,5.37,2.5a99.18,99.18,0,0,0,11.34.66c7.17,0,12.08-.88,13.46-2.41a1.14,1.14,0,0,0,.34-1c-.49-5-4.67-13.92-4.71-14l-.39-.83,2-.77c-.52-2.33-2.29-9.85-4.05-13.38a5.43,5.43,0,0,0-5.07-3.1,4.48,4.48,0,0,0-2.09.43,3,3,0,0,1-1.61.31c-2.68,0-8.35-1.26-9.89-1.61l-8.51,6.28,3.62,4.43Z"/><path class="cls-1" d="M240.71,194.86l-.62,1.65s-10.06-3.43-11-4.55a12.19,12.19,0,0,1-1.61-5.46c0-1.22-1.87-2.77-2.58,0s1.65,3.9-6.53,7.19-2.3,4.33-.89,4.38,8.55-1.84,10.48-.57,13,8.89,16.78,4.19c4.26-5.35,2.54-7.32,2.54-7.32Z"/><path class="cls-2" d="M241.21,204.05c-3.23,0-7.75-1.92-13.45-5.69l-.22-.15a3.42,3.42,0,0,0-1.82-.3,36,36,0,0,0-5.56.66,20,20,0,0,1-2.58.34c-.12,0-3.91-.15-4.24-2-.24-1.33,1.19-2.51,4.76-4,5.82-2.34,5.83-3.3,5.84-4.75a7.35,7.35,0,0,1,.19-1.87c.49-1.9,1.51-2.18,2.08-2.18a2,2,0,0,1,1.41.63,2.59,2.59,0,0,1,.75,1.77,11.7,11.7,0,0,0,1.43,4.92c.57.59,5.37,2.49,9.78,4l.52-1.4,7.59-.55.27.32c.23.25,2.06,2.66-2.51,8.39A5.12,5.12,0,0,1,241.21,204.05Zm-15.49-7.83a5,5,0,0,1,2.75.58l.23.15c5.42,3.59,9.63,5.41,12.51,5.41a3.51,3.51,0,0,0,2.92-1.2c2.69-3.39,2.79-5.19,2.66-5.9l-5.48.4-.72,1.92-.78-.26c-3.09-1.06-10.39-3.65-11.34-4.84-1.07-1.35-1.8-4.69-1.79-6a.84.84,0,0,0-.47-.7s-.24.13-.44.91a6.22,6.22,0,0,0-.14,1.46c0,2.2-.36,3.68-6.9,6.31-2.9,1.17-3.55,1.88-3.69,2.09a5.53,5.53,0,0,0,2.51.65h0a20.91,20.91,0,0,0,2.31-.33A38.68,38.68,0,0,1,225.72,196.22Z"/><path class="cls-1" d="M227.68,176.58s-.94,3.67,1.88,4.66,6.23-1.07,6.64-3.59-8-2.7-8.34-1.07"/><path class="cls-2" d="M231.07,182.33a5.37,5.37,0,0,1-1.79-.29c-2.81-1-2.81-4.14-2.42-5.67l1.64.43-.82-.22.82.21c0,.12-.71,2.93,1.34,3.65a4.41,4.41,0,0,0,3.64-.48,3.7,3.7,0,0,0,1.88-2.45c0-.22-.43-.47-.57-.54-1.93-.93-5.65-.65-6.14-.1a.52.52,0,0,0,0-.12l-1.66-.33c.39-2,4.7-1.89,6.61-1.55,3.38.62,3.49,2.25,3.39,2.92a5.41,5.41,0,0,1-2.69,3.62A6.44,6.44,0,0,1,231.07,182.33Z"/><path class="cls-3" d="M219.7,124.91s-7.47,1.26-5.78,5.35,29.14,21.36,29.14,21.36l-5.3,16.72,4.79,6.07a4.08,4.08,0,0,0,3.95,4.23c4.09.28,18.61-4.66,20.59-15.23s3.38-32.58-8.46-38.5S219.7,124.91,219.7,124.91Z"/><path class="cls-2" d="M246.85,179.49h-.41a4.82,4.82,0,0,1-4.74-4.78l-4.89-6.19L242.06,152c-4.61-2.92-27.26-17.39-28.92-21.4a3.45,3.45,0,0,1,.11-3.09c1.39-2.53,5.81-3.34,6.31-3.43a129.44,129.44,0,0,1,23.71-2.64c6.83,0,12.12.91,15.73,2.72,14.47,7.23,9.53,36.14,8.92,39.41C265.84,174.7,251.21,179.49,246.85,179.49Zm-8.15-11.32,4.71,6v.31a3.18,3.18,0,0,0,3.16,3.35c3.47.25,17.78-4.25,19.7-14.54a75.81,75.81,0,0,0,.94-20.74c-1-8.72-4-14.39-8.95-16.85-3.38-1.69-8.42-2.54-15-2.54a128.18,128.18,0,0,0-23.38,2.61c-1.18.2-4.31,1-5.16,2.58a1.79,1.79,0,0,0,0,1.63c1.16,2.8,18.29,14.34,28.81,21l.55.35Z"/><path class="cls-1" d="M217.9,134s-2.54,8.18-5.92,12.84-3.95,9-2.41,15.79c1,4.17,6.32,14,26.63,15a10,10,0,0,0,6.24-2.57s11.28-1.08,11.14-7.17-7.05-3.55-10-1.29c0,0-.56-1.55.71-10.72,1-4.23-1.55-5.07-5.5-8.18S217.9,134,217.9,134Z"/><path class="cls-2" d="M236.21,178.5h0c-23-1.12-26.91-13.23-27.46-15.64-1.62-7.11-.9-11.73,2.55-16.48,3.27-4.49,5.78-12.51,5.8-12.59l.33-1,.93.59c.69.43,17,10.63,20.94,13.73.67.52,1.29,1,1.86,1.39,2.84,2.09,4.89,3.59,3.95,7.65a66.24,66.24,0,0,0-.82,9,12.42,12.42,0,0,1,5.8-1.85c2.69,0,4.28,1.69,4.34,4.63.15,6.29-9.76,7.77-11.62,8A10.68,10.68,0,0,1,236.21,178.5Zm-17.84-43.16c-.81,2.38-3,8.27-5.71,12-3.17,4.36-3.78,8.46-2.27,15.11.51,2.21,4.11,13.27,25.83,14.33a9.1,9.1,0,0,0,5.63-2.34l.21-.2.3,0c.1,0,10.49-1.07,10.37-6.31,0-2-.89-3-2.65-3a11.38,11.38,0,0,0-6,2.32l-.92.7-.39-1.08c-.11-.29-.57-2.2.66-11.12.71-3-.46-3.9-3.28-6-.58-.43-1.22-.9-1.9-1.43C234.91,145.76,221.94,137.58,218.37,135.34Z"/><polyline class="cls-6" points="237.36 187.91 239.9 194.92 248.27 194.31"/><polygon class="cls-2" points="239.32 195.81 236.57 188.2 238.16 187.62 240.48 194.03 248.21 193.46 248.33 195.15 239.32 195.81"/><line class="cls-7" x1="126.55" y1="203.2" x2="200.04" y2="203.2"/><polyline class="cls-7" points="131.67 211.69 126.22 203.2 132.84 194.92"/><polyline class="cls-7" points="195.31 194.89 200.77 203.38 194.15 211.69"/></svg>