<?xml version="1.0" encoding="utf-8"?>
<!-- Generator: Adobe Illustrator 16.0.0, SVG Export Plug-In . SVG Version: 6.00 Build 0)  -->
<!DOCTYPE svg PUBLIC "-//W3C//DTD SVG 1.1//EN" "http://www.w3.org/Graphics/SVG/1.1/DTD/svg11.dtd">
<svg version="1.1" id="Layer_1" xmlns="http://www.w3.org/2000/svg" xmlns:xlink="http://www.w3.org/1999/xlink" x="0px" y="0px"
	 width="500px" height="500px" viewBox="0 0 500 500" enable-background="new 0 0 500 500" xml:space="preserve">
<g id="Layer_1_copy_78">
	<g>
		<path fill="#F9EDD5" d="M483.849,246.099c0,125.604-101.83,227.436-227.441,227.436c-125.618,0-227.449-101.832-227.449-227.436
			c0-125.617,101.831-227.449,227.449-227.449C382.019,18.65,483.849,120.482,483.849,246.099z"/>
	</g>
	<g>
		<path fill="#D1EBE7" d="M463.286,343.128c-36.022,78.098-114.999,132.295-206.646,132.295c-88.298,0-164.844-50.32-202.53-123.844
			"/>
	</g>
	<g>
		<rect x="97.493" y="93.026" fill="#F57F3D" width="104.248" height="105.618"/>
		<path fill="#3C2517" d="M201.741,200.318H97.493c-0.925,0-1.668-0.748-1.668-1.673V93.026c0-0.924,0.743-1.672,1.668-1.672
			h104.248c0.926,0,1.675,0.748,1.675,1.672v105.618C203.416,199.57,202.667,200.318,201.741,200.318z M99.164,196.972H200.07
			V94.698H99.164V196.972z"/>
	</g>
	<g>
		<rect x="97.493" y="298.775" fill="#F57F3D" width="104.248" height="105.619"/>
		<path fill="#3C2517" d="M201.741,406.064H97.493c-0.925,0-1.668-0.752-1.668-1.67V298.775c0-0.924,0.743-1.672,1.668-1.672
			h104.248c0.926,0,1.675,0.748,1.675,1.672v105.619C203.416,405.312,202.667,406.064,201.741,406.064z M99.164,402.729H200.07
			V300.45H99.164V402.729z"/>
	</g>
	<g>
		<rect x="201.741" y="298.775" fill="#932350" width="104.249" height="105.619"/>
		<path fill="#3C2517" d="M305.99,406.064H201.741c-0.92,0-1.671-0.752-1.671-1.67V298.775c0-0.924,0.751-1.672,1.671-1.672H305.99
			c0.925,0,1.675,0.748,1.675,1.672v105.619C307.665,405.312,306.915,406.064,305.99,406.064z M203.416,402.729h100.903V300.45
			H203.416V402.729z"/>
	</g>
	<g>
		<rect x="305.99" y="298.775" fill="#F57F3D" width="104.245" height="105.619"/>
		<path fill="#3C2517" d="M410.235,406.064H305.99c-0.921,0-1.671-0.752-1.671-1.67V298.775c0-0.924,0.75-1.672,1.671-1.672h104.245
			c0.925,0,1.671,0.748,1.671,1.672v105.619C411.906,405.312,411.16,406.064,410.235,406.064z M307.665,402.729h100.898V300.45
			H307.665V402.729z"/>
	</g>
	<g>
		<rect x="309.286" y="136.917" fill="#932350" width="104.245" height="95.103"/>
		<path fill="#3C2517" d="M413.531,233.693H309.286c-0.925,0-1.671-0.748-1.671-1.673v-95.103c0-0.921,0.746-1.669,1.671-1.669
			h104.245c0.921,0,1.667,0.748,1.667,1.669v95.103C415.198,232.945,414.452,233.693,413.531,233.693z M310.956,230.349h100.9
			V138.59h-100.9V230.349z"/>
	</g>
	<g>
		<rect x="309.286" y="93.026" fill="#F57F3D" width="104.245" height="95.104"/>
		<path fill="#3C2517" d="M413.531,189.798H309.286c-0.925,0-1.671-0.748-1.671-1.668V93.026c0-0.924,0.746-1.672,1.671-1.672
			h104.245c0.921,0,1.667,0.748,1.667,1.672v95.104C415.198,189.05,414.452,189.798,413.531,189.798z M310.956,186.457h100.9V94.698
			h-100.9V186.457z"/>
	</g>
	<g>
		<g>
			<g>
				<path fill="#FDCD33" d="M323.36,339.643c0,3.678-1.643,6.686-3.655,6.686c-2.015,0-3.657-3.008-3.657-6.686v-18.18
					c0-3.676,1.644-6.684,3.657-6.684s3.655,3.008,3.655,6.684V339.643z"/>
			</g>
			<g>
				<path fill="#3C2517" d="M319.705,347.445c-2.679,0-4.773-3.432-4.773-7.803v-18.18c0-4.376,2.096-7.798,4.773-7.798
					c2.677,0,4.771,3.422,4.771,7.798v18.18C324.476,344.014,322.382,347.445,319.705,347.445z M319.705,315.895
					c-1.2,0-2.547,2.385-2.547,5.568v18.18c0,3.188,1.347,5.574,2.547,5.574c1.203,0,2.545-2.386,2.545-5.574v-18.18
					C322.25,318.279,320.908,315.895,319.705,315.895z"/>
			</g>
		</g>
		<g>
			<g>
				<path fill="#FDCD33" d="M195.34,339.643c0,3.678-1.646,6.686-3.656,6.686c-2.014,0-3.66-3.008-3.66-6.686v-18.18
					c0-3.676,1.646-6.684,3.66-6.684c2.01,0,3.656,3.008,3.656,6.684V339.643z"/>
			</g>
			<g>
				<path fill="#3C2517" d="M191.684,347.445c-2.679,0-4.771-3.432-4.771-7.803v-18.18c0-4.376,2.092-7.798,4.771-7.798
					c2.678,0,4.771,3.422,4.771,7.798v18.18C196.454,344.014,194.361,347.445,191.684,347.445z M191.684,315.895
					c-1.2,0-2.542,2.385-2.542,5.568v18.18c0,3.188,1.342,5.574,2.542,5.574c1.203,0,2.542-2.386,2.542-5.574v-18.18
					C194.226,318.279,192.887,315.895,191.684,315.895z"/>
			</g>
		</g>
		<g>
			<g>
				<path fill="#FDCD33" d="M195.34,127.72c0,3.676-1.646,6.684-3.656,6.684c-2.014,0-3.66-3.008-3.66-6.684v-18.176
					c0-3.679,1.646-6.689,3.66-6.689c2.01,0,3.656,3.01,3.656,6.689V127.72z"/>
			</g>
			<g>
				<path fill="#3C2517" d="M191.684,135.518c-2.679,0-4.771-3.422-4.771-7.798v-18.176c0-4.374,2.092-7.803,4.771-7.803
					c2.678,0,4.771,3.43,4.771,7.803v18.176C196.454,132.096,194.361,135.518,191.684,135.518z M191.684,103.97
					c-1.2,0-2.542,2.382-2.542,5.574v18.176c0,3.188,1.342,5.57,2.542,5.57c1.203,0,2.542-2.381,2.542-5.57v-18.176
					C194.226,106.352,192.887,103.97,191.684,103.97z"/>
			</g>
		</g>
		<g>
			<g>
				<path fill="#FDCD33" d="M323.36,127.72c0,3.676-1.643,6.684-3.655,6.684c-2.015,0-3.657-3.008-3.657-6.684v-18.176
					c0-3.679,1.644-6.689,3.657-6.689s3.655,3.01,3.655,6.689V127.72z"/>
			</g>
			<g>
				<path fill="#3C2517" d="M319.705,135.518c-2.679,0-4.773-3.422-4.773-7.798v-18.176c0-4.374,2.096-7.803,4.773-7.803
					c2.677,0,4.771,3.43,4.771,7.803v18.176C324.476,132.096,322.382,135.518,319.705,135.518z M319.705,103.97
					c-1.2,0-2.547,2.382-2.547,5.574v18.176c0,3.188,1.347,5.57,2.547,5.57c1.203,0,2.545-2.381,2.545-5.57v-18.176
					C322.25,106.352,320.908,103.97,319.705,103.97z"/>
			</g>
		</g>
	</g>
	<g>
		<polygon fill="#932350" points="277.184,93.026 277.184,174.414 301.877,216.476 206.77,216.476 231.002,175.784 231.002,93.026 
					"/>
		<path fill="#3C2517" d="M301.92,218.149c-0.007,0-0.028,0-0.043,0H206.77c-0.597,0-1.154-0.323-1.454-0.846
			c-0.293-0.521-0.289-1.163,0.022-1.684l23.997-40.295V93.026c0-0.924,0.746-1.672,1.667-1.672h46.182
			c0.922,0,1.668,0.748,1.668,1.672v80.93l24.297,41.386c0.275,0.296,0.442,0.698,0.442,1.134
			C303.591,217.399,302.841,218.149,301.92,218.149z M209.711,214.803h89.246l-23.213-39.545c-0.153-0.253-0.234-0.55-0.234-0.844
			V94.698h-42.833v81.086c0,0.302-0.082,0.596-0.236,0.857L209.711,214.803z"/>
	</g>
	<g>
		<rect x="319.708" y="238.881" fill="#E7BF59" width="83.669" height="6.399"/>
		<path fill="#3C2517" d="M403.377,246.956h-83.669c-0.925,0-1.671-0.751-1.671-1.676v-6.399c0-0.921,0.746-1.673,1.671-1.673
			h83.669c0.924,0,1.678,0.752,1.678,1.673v6.399C405.055,246.205,404.301,246.956,403.377,246.956z M321.379,243.61h80.327v-3.057
			h-80.327V243.61z"/>
	</g>
	<g>
		<rect x="114.871" y="206.873" fill="#E7BF59" width="62.181" height="6.402"/>
		<path fill="#3C2517" d="M177.052,214.944h-62.181c-0.926,0-1.672-0.745-1.672-1.669v-6.402c0-0.925,0.746-1.669,1.672-1.669
			h62.181c0.925,0,1.671,0.744,1.671,1.669v6.402C178.723,214.2,177.977,214.944,177.052,214.944z M116.542,211.602h58.839v-3.056
			h-58.839V211.602z"/>
	</g>
	<g>
		<rect x="211.804" y="334.441" fill="#F57F3D" width="84.127" height="60.354"/>
		<path fill="#3C2517" d="M295.932,396.464h-84.127c-0.925,0-1.675-0.741-1.675-1.668v-60.354c0-0.926,0.75-1.678,1.675-1.678
			h84.127c0.922,0,1.671,0.752,1.671,1.678v60.354C297.603,395.723,296.854,396.464,295.932,396.464z M213.471,393.12h80.79v-57.013
			h-80.79V393.12L213.471,393.12z"/>
	</g>
	<g>
		<rect x="223.226" y="343.128" fill="#E7BF59" width="62.206" height="6.401"/>
		<path fill="#3C2517" d="M285.432,351.201h-62.206c-0.921,0-1.668-0.754-1.668-1.672v-6.4c0-0.926,0.747-1.668,1.668-1.668h62.206
			c0.922,0,1.672,0.742,1.672,1.668v6.4C287.104,350.447,286.354,351.201,285.432,351.201z M224.9,347.855h58.856v-3.057H224.9
			V347.855z"/>
	</g>
	<g>
		<g>
			<path fill="#FDCD33" d="M223.226,319.807c0,2.019-1.632,3.66-3.652,3.66c-2.018,0-3.653-1.643-3.653-3.66
				c0-2.016,1.636-3.652,3.653-3.652C221.594,316.154,223.226,317.792,223.226,319.807z"/>
			<path fill="#3C2517" d="M219.573,324.583c-2.628,0-4.767-2.146-4.767-4.774c0-2.631,2.139-4.77,4.767-4.77
				c2.627,0,4.771,2.139,4.771,4.77C224.344,322.436,222.2,324.583,219.573,324.583z M219.573,317.266
				c-1.399,0-2.535,1.143-2.535,2.541c0,1.402,1.136,2.547,2.535,2.547c1.399,0,2.542-1.145,2.542-2.547
				C222.115,318.408,220.973,317.266,219.573,317.266z"/>
		</g>
		<g>
			<path fill="#FDCD33" d="M262.822,319.807c0,2.019-1.639,3.66-3.655,3.66c-2.015,0-3.653-1.643-3.653-3.66
				c0-2.016,1.639-3.652,3.653-3.652C261.184,316.154,262.822,317.792,262.822,319.807z"/>
			<path fill="#3C2517" d="M259.167,324.583c-2.632,0-4.771-2.146-4.771-4.774c0-2.631,2.139-4.77,4.771-4.77
				c2.631,0,4.772,2.139,4.772,4.77C263.939,322.436,261.798,324.583,259.167,324.583z M259.167,317.266
				c-1.399,0-2.543,1.143-2.543,2.541c0,1.402,1.144,2.547,2.543,2.547s2.542-1.145,2.542-2.547
				C261.709,318.408,260.566,317.266,259.167,317.266z"/>
		</g>
		<g>
			<path fill="#FDCD33" d="M275.812,319.807c0,2.019-1.646,3.66-3.655,3.66c-2.015,0-3.66-1.643-3.66-3.66
				c0-2.016,1.646-3.652,3.66-3.652C274.166,316.154,275.812,317.792,275.812,319.807z"/>
			<path fill="#3C2517" d="M272.156,324.583c-2.633,0-4.773-2.146-4.773-4.774c0-2.631,2.143-4.77,4.773-4.77
				s4.771,2.139,4.771,4.77C276.927,322.436,274.788,324.583,272.156,324.583z M272.156,317.266c-1.403,0-2.547,1.143-2.547,2.541
				c0,1.402,1.144,2.547,2.547,2.547c1.402,0,2.542-1.145,2.542-2.547C274.698,318.408,273.561,317.266,272.156,317.266z"/>
		</g>
		<g>
			<path fill="#FDCD33" d="M289.088,319.807c0,2.019-1.646,3.66-3.656,3.66c-2.019,0-3.66-1.643-3.66-3.66
				c0-2.016,1.643-3.652,3.66-3.652C287.441,316.154,289.088,317.792,289.088,319.807z"/>
			<path fill="#3C2517" d="M285.432,324.583c-2.636,0-4.777-2.146-4.777-4.774c0-2.631,2.143-4.77,4.777-4.77
				c2.629,0,4.768,2.139,4.768,4.77C290.198,322.436,288.061,324.583,285.432,324.583z M285.432,317.266
				c-1.406,0-2.547,1.143-2.547,2.541c0,1.402,1.141,2.547,2.547,2.547c1.399,0,2.539-1.145,2.539-2.547
				C287.971,318.408,286.831,317.266,285.432,317.266z"/>
		</g>
	</g>
	<g>
		<path fill="#A8AAAD" d="M287.338,265.191c-0.3-2.342-3.23-1.909-3.23-1.909c-56.364,2.008-57.083-0.563-60.695-0.396
			c-1.828,0.077-2.546,0.971-2.817,1.834c-0.313,0.685-0.307,1.229-0.085,1.663l0,0l0,0c0.899,1.796,5.565,1.743,7.63,2.507
			c0,3.582,0,7.611,0,11.332c0,3.805-0.436,7.551,0.457,10.182c1.642,4.785,7.448,3.929,14.11,3.929c7.881,0,13.771,0,21.51,0
			c3.773,0,8.115,0.588,10.633-0.233c5.045-1.641,4.162-8.512,4.162-15.031c0-4.082-0.41-7.324,0.239-10.178
			C280.564,267.486,287.986,269.377,287.338,265.191z"/>
		<path fill="#3C2517" d="M270.98,296.206L270.98,296.206c-1.078,0-2.229-0.052-3.385-0.101c-1.136-0.053-2.281-0.1-3.381-0.1
			h-21.51c-0.892,0-1.771,0.012-2.624,0.028c-0.829,0.015-1.632,0.03-2.407,0.03c-4.309,0-9.041-0.397-10.66-5.119
			c-0.765-2.256-0.687-5.01-0.604-7.92c0.032-0.922,0.058-1.858,0.058-2.805v-10.039c-0.414-0.086-0.872-0.162-1.328-0.238
			c-2.528-0.422-5.142-0.86-6.127-2.81c-0.318-0.642-0.578-1.706,0.061-3.106c0.264-0.881,1.278-2.686,4.27-2.811l0.408-0.013
			c0.722,0,1.37,0.09,2.271,0.21c2.375,0.312,7.309,0.965,22.255,0.965c9.408,0,21.423-0.257,35.72-0.764
			c0.039-0.008,0.303-0.036,0.648-0.036c2.414,0,4.082,1.3,4.346,3.397c0.229,1.45-0.264,2.44-0.713,3.004
			c-1.305,1.619-3.692,1.772-5.803,1.905c-0.535,0.035-1.269,0.085-1.742,0.157c-0.239,1.62-0.184,3.479-0.118,5.568
			c0.036,1.09,0.067,2.231,0.067,3.453c0,0.842,0.02,1.686,0.032,2.521c0.104,6.044,0.211,12.292-5.353,14.1
			C274.264,296.049,272.913,296.206,270.98,296.206z M242.706,292.661h21.51c1.146,0,2.343,0.051,3.526,0.106
			c1.109,0.049,2.207,0.096,3.238,0.096l0,0c1.521,0,2.613-0.114,3.347-0.354c2.999-0.974,3.151-4.752,3.046-10.861
			c-0.016-0.857-0.033-1.722-0.033-2.58c0-1.184-0.031-2.295-0.066-3.346c-0.082-2.674-0.153-4.981,0.347-7.197
			c0.063-0.289,0.207-0.555,0.405-0.77c0.927-0.992,2.461-1.093,4.236-1.201c1.057-0.068,3.03-0.197,3.405-0.664
			c0.032-0.048,0.054-0.201,0.015-0.441c-0.021-0.201-0.063-0.526-1.035-0.526c-0.16,0-0.274,0.015-0.308,0.015
			c-14.532,0.528-26.608,0.785-36.062,0.785c-15.164,0-20.059-0.644-22.693-0.992c-0.771-0.104-1.286-0.179-1.832-0.179
			l-0.265,0.005c-1.1,0.045-1.229,0.45-1.297,0.668c-0.167,0.395-0.167,0.486-0.167,0.486c0.342,0.381,2.592,0.757,3.671,0.939
			c1.124,0.187,2.181,0.363,3.027,0.679c0.657,0.243,1.089,0.866,1.089,1.562v11.332c0,0.979-0.028,1.945-0.054,2.899
			c-0.074,2.604-0.146,5.065,0.421,6.746c0.735,2.133,2.629,2.852,7.498,2.852c0.758,0,1.54-0.015,2.35-0.026
			C240.899,292.676,241.796,292.661,242.706,292.661z"/>
	</g>
	<g>
		<path fill="#6E6F72" d="M404.647,262.718c-6.135,0.745-11.772,3.316-16.644,5.55c-1.639,0.74-3.566,2.023-5.323,2.308
			c-4.224,0.688-9.298,0-14.109,0c-11.876,0-23.994,0-35.377,0c-0.114,0-0.25-0.011-0.371-0.011
			c-0.372-0.051-6.646-0.821-6.296,1.399c-0.535,2.345,2.312,2.42,2.32,2.42c0.058,0.089,0.106,0.177,0.158,0.269
			c0.152,11.139,12.004,20.131,26.606,20.131c14.226,0,25.833-8.523,26.575-19.262c0.015-0.023,0.021-0.062,0.028-0.088
			c4.759-2.805,13.251-4.785,20.82-5.783c2.557-0.338,5.826-0.312,6.701-2.315C411.646,262.997,407.729,262.333,404.647,262.718z"/>
		<path fill="#3C2517" d="M355.613,296.456c-14.938,0-27.309-9.164-28.226-20.646c-0.64-0.201-1.363-0.57-1.898-1.242
			c-0.418-0.525-0.854-1.411-0.647-2.696c-0.018-0.649,0.197-1.265,0.619-1.758c0.811-0.949,2.302-1.392,4.691-1.392
			c1.281,0,2.431,0.129,2.788,0.172c0.058,0,0.109,0.004,0.117,0.004l35.514,0.004c1.643,0,3.315,0.076,4.977,0.156
			c3.3,0.157,6.613,0.233,8.862-0.14c0.971-0.149,2.146-0.771,3.285-1.362c0.557-0.296,1.104-0.578,1.617-0.813
			c4.771-2.183,10.703-4.905,17.135-5.687c0.536-0.066,1.093-0.104,1.649-0.104c2.475,0,4.271,0.739,5.186,2.147
			c0.85,1.303,0.846,2.953-0.016,4.906c-1.117,2.57-4.268,2.898-6.791,3.161c-0.418,0.044-0.833,0.088-1.222,0.14
			c-8.177,1.082-15.356,2.996-19.477,5.164C382.454,287.742,370.281,296.456,355.613,296.456z M328.174,272.266
			c-0.003,0.023-0.011,0.045-0.014,0.07c0.043,0.246,0.449,0.366,0.75,0.379c0.532,0.027,1.038,0.303,1.335,0.744
			c0.079,0.127,0.157,0.253,0.229,0.391c0.129,0.236,0.199,0.502,0.204,0.775c0.14,10.193,11.321,18.488,24.937,18.488
			c13.278,0,24.223-7.776,24.908-17.707c0.008-0.135,0.035-0.268,0.077-0.396c0.111-0.419,0.392-0.802,0.77-1.021
			c6.248-3.679,17.081-5.423,21.448-5.997c0.424-0.059,0.862-0.104,1.312-0.148c1.571-0.164,3.732-0.39,4.075-1.178
			c0.421-0.953,0.418-1.523,0.277-1.74c-0.206-0.314-1.023-0.628-2.385-0.628c-0.418,0-0.839,0.024-1.247,0.073
			c-5.911,0.725-11.354,3.214-16.147,5.412c-0.472,0.213-0.954,0.47-1.454,0.729c-1.313,0.69-2.802,1.471-4.306,1.713
			c-1.36,0.221-2.867,0.323-4.725,0.323c-1.567,0-3.191-0.075-4.83-0.151c-1.604-0.076-3.222-0.153-4.816-0.153h-35.377
			c-0.082,0-0.529-0.013-0.611-0.022c-0.006,0-1.163-0.156-2.431-0.156C329.06,272.064,328.464,272.18,328.174,272.266z"/>
	</g>
	<g>
		<path fill="#595A5C" d="M277.322,261.798h0.004c-0.012-0.042-0.036-0.086-0.051-0.121c-1.336-3.753-4.908-5.778-8.465-7.048
			c-3.063-1.217-5.752-1.688-5.752-1.688v-0.732c0.018-0.925,0.047-1.855,0-2.735c0.238-4.332-2.8-4.07-2.8-4.07h-9.923
			c-1.735-0.109-3.438-0.206-4.667,0h-0.025l-0.018,0.005c-0.21,0.036-0.425,0.075-0.607,0.128
			c-2.849,0.893-1.899,4.502-2.077,8.095c-6.12,1.442-11.948,3.165-13.415,9.257c16.027,0,32.06,0,48.092,0
			C277.547,262.5,277.439,262.143,277.322,261.798z M260.352,252.883c-4.565-0.725-9.951-0.326-14.64,0.021v-3.887
			c0.151-0.398,0.497-0.713,0.689-0.865c0.054-0.032,0.097-0.067,0.154-0.096l10.818,0.152c1.429-0.289,2.325,0.275,2.85,0.654
			c0.036,0.091,0.094,0.174,0.129,0.264V252.883L260.352,252.883z"/>
		<path fill="#3C2517" d="M277.619,264.557h-48.092c-0.514,0-0.996-0.233-1.314-0.64c-0.316-0.399-0.436-0.927-0.31-1.421
			c1.664-6.903,8.141-8.92,13.393-10.191c-0.004-0.371-0.011-0.738-0.019-1.101c-0.067-2.762-0.149-6.2,3.243-7.261
			c0.225-0.069,0.492-0.125,0.757-0.173c0.071-0.016,0.146-0.025,0.218-0.036c1.21-0.182,3.05-0.121,4.944-0.003l9.82-0.001
			c0.524,0.028,2.023,0.121,3.138,1.299c0.994,1.046,1.437,2.573,1.332,4.537c0.035,0.55,0.024,1.282,0.011,2.026
			c1.14,0.276,2.843,0.752,4.688,1.483c4.921,1.753,7.991,4.31,9.326,7.788c0.162,0.231,0.263,0.507,0.286,0.804
			c0.086,0.295,0.164,0.594,0.225,0.911c0.094,0.488-0.041,0.996-0.359,1.374C278.59,264.338,278.115,264.557,277.619,264.557z
			 M231.94,261.214h43.301c-1.189-2.128-3.479-3.756-6.994-5.014c-2.903-1.154-5.453-1.609-5.478-1.613
			c-0.453-0.08-0.84-0.337-1.086-0.69c-0.072,0.092-0.154,0.182-0.246,0.258c-0.369,0.318-0.864,0.467-1.348,0.38
			c-1.635-0.261-3.488-0.386-5.677-0.386c-2.882,0-5.906,0.226-8.576,0.424c-0.472,0.022-0.921-0.125-1.26-0.443
			c-0.012-0.009-0.019-0.016-0.032-0.023c-0.169,0.566-0.625,1.014-1.222,1.153C238.104,256.486,233.859,257.756,231.94,261.214z
			 M247.384,249.743v1.366c3.738-0.262,8.026-0.432,11.298-0.12v-1.091c-0.271-0.103-0.586-0.128-0.979-0.051
			c-0.114,0.021-0.231,0.025-0.354,0.032L247.384,249.743z"/>
	</g>
	<g>
		<path fill="#231F20" d="M242.195,255.516c0,0,3.899-1.072,5.573-1.162c1.672-0.093-3.113-2.737-3.113-2.737l-2.646,3.899
			l15.88-1.432L242.195,255.516z"/>
		<path fill="#3C2517" d="M239.768,256.835l4.542-6.688l0.886,0.494c2.967,1.639,3.817,2.521,4.013,3.114l8.58-0.78l0.203,2.219
			h-0.008l-15.685,1.429l-0.008-0.021L239.768,256.835z M244.995,253.1l-0.461,0.686c0.378-0.09,0.774-0.174,1.164-0.254
			C245.478,253.391,245.238,253.245,244.995,253.1z"/>
	</g>
	<g>
		<path fill="#231F20" d="M259.699,254.492c0,0,6.459,0.555,7.383,1.252c0.929,0.701-3.311-2.655-3.311-2.655l-4.072-0.299V254.492z
			"/>
		<path fill="#3C2517" d="M268.011,256.956h-1.168l-0.428-0.32c-0.554-0.306-3.979-0.788-6.81-1.034l-1.021-0.084v-3.925
			l5.605,0.411l0.271,0.213c1.592,1.262,2.562,2.025,3.143,2.539c0.058,0.033,0.105,0.066,0.149,0.104l-0.015,0.025
			c0.746,0.689,0.683,0.879,0.531,1.323L268.011,256.956z"/>
	</g>
</g>
</svg>
