<svg id="kite" xmlns="http://www.w3.org/2000/svg" viewBox="0 0 300 300"><defs><style>.cls-1{fill:#ffc932;}.cls-2{fill:#251f1e;}.cls-3{fill:#da5834;}.cls-4{fill:#e9bd68;}.cls-5{fill:#6b75b8;}.cls-6{fill:#78c9aa;}.cls-7{fill:#fa9635;}</style></defs><title>kite</title><rect class="cls-1" x="88.08" y="61.98" width="92.41" height="92.41" transform="translate(-37.16 126.64) rotate(-45)"/><path class="cls-2" d="M134.29,175.34a1.82,1.82,0,0,1-1.28-.53L67.66,109.47a1.82,1.82,0,0,1,0-2.57L133,41.56a1.8,1.8,0,0,1,2.56,0l65.35,65.34a1.82,1.82,0,0,1,0,2.57l-65.35,65.34a1.82,1.82,0,0,1-1.28.53M71.51,108.18,134.29,171l62.79-62.78L134.29,45.4Z"/><polygon class="cls-3" points="134.21 144.55 100.37 178.95 168.21 178.95 134.21 144.55"/><path class="cls-2" d="M168.21,180.76H100.37a1.8,1.8,0,0,1-1.67-1.11,1.82,1.82,0,0,1,.38-2l33.83-34.4a1.83,1.83,0,0,1,1.3-.55h0a1.84,1.84,0,0,1,1.29.54l34,34.4a1.83,1.83,0,0,1,.38,2,1.81,1.81,0,0,1-1.67,1.11m-63.51-3.62h59.17l-29.66-30Z"/><path class="cls-2" d="M134.29,147.35a1.81,1.81,0,0,1-1.81-1.81V42.84a1.81,1.81,0,1,1,3.62,0v102.7a1.81,1.81,0,0,1-1.81,1.81"/><path class="cls-2" d="M69.32,109.83a1.77,1.77,0,0,1-1.23-.48,1.81,1.81,0,0,1-.1-2.56c18.7-20.22,36.57-37,65.89-37,28.26,0,48.84,17.6,66.86,36.62a1.81,1.81,0,1,1-2.63,2.49c-17.47-18.43-37.34-35.48-64.23-35.48-25.32,0-41.76,12.58-63.23,35.79a1.79,1.79,0,0,1-1.33.58"/><path class="cls-2" d="M221.53,256.66a1.23,1.23,0,0,1-1.06-.62c-1.83-3.3-3.26-6.26-4.31-8.41-.35-.72-.66-1.37-.94-1.92-1.28-3-13.43-29.1-53.93-33.26-12.42-1.28-21.13-5.55-25.89-12.7-6.52-9.81-3.15-21.3-3-21.79a1.21,1.21,0,0,1,2.31.7c0,.11-3.19,10.92,2.71,19.77,4.35,6.51,12.46,10.42,24.11,11.61,16.13,1.66,29.75,6.86,40.49,15.44,10.19,8.14,14.36,16.77,15.4,19.21l.92,1.89c1,2.12,2.44,5,4.24,8.29a1.2,1.2,0,0,1-1.05,1.79"/><polygon class="cls-4" points="137.41 200.41 146.19 188.81 151.37 197.48 137.41 200.41"/><path class="cls-2" d="M137.41,201.62a1.23,1.23,0,0,1-1-.56,1.22,1.22,0,0,1,.06-1.38l8.78-11.6a1.21,1.21,0,0,1,2,.1l5.18,8.68a1.22,1.22,0,0,1,.06,1.1,1.18,1.18,0,0,1-.86.7l-14,2.93a1,1,0,0,1-.25,0M146.08,191l-5.75,7.59,9.13-1.91Z"/><polygon class="cls-5" points="162.85 211.31 167.16 197.41 174.98 203.81 162.85 211.31"/><path class="cls-2" d="M162.86,212.52A1.21,1.21,0,0,1,161.7,211l4.31-13.9a1.22,1.22,0,0,1,.81-.8,1.21,1.21,0,0,1,1.11.23l7.82,6.4a1.2,1.2,0,0,1,.44,1,1.22,1.22,0,0,1-.57,1l-12.13,7.5a1.18,1.18,0,0,1-.63.18m4.93-13-2.82,9.1,7.94-4.91Z"/><polygon class="cls-6" points="185.77 217.3 192.75 204.53 199.14 212.35 185.77 217.3"/><path class="cls-2" d="M185.77,218.51a1.21,1.21,0,0,1-1.06-1.79l7-12.77a1.21,1.21,0,0,1,2-.19l6.39,7.83a1.21,1.21,0,0,1-.52,1.9l-13.37,4.94a1.25,1.25,0,0,1-.42.08M193,206.68,188.38,215l8.75-3.23Z"/><polygon class="cls-4" points="205.3 229.11 214.93 218.2 219.44 227.24 205.3 229.11"/><path class="cls-2" d="M205.3,230.32a1.21,1.21,0,0,1-.9-2L214,217.4a1.2,1.2,0,0,1,1.07-.4,1.21,1.21,0,0,1,.92.66l4.51,9a1.22,1.22,0,0,1-.93,1.74l-14.13,1.87h-.16m9.35-10-6.3,7.15,9.25-1.23Z"/><polygon class="cls-3" points="215.74 244.32 227.58 235.86 229.93 245.69 215.74 244.32"/><path class="cls-2" d="M229.93,246.9h-.12l-14.19-1.37a1.21,1.21,0,0,1-1.05-.89,1.18,1.18,0,0,1,.47-1.29l11.84-8.46a1.23,1.23,0,0,1,1.13-.15,1.21,1.21,0,0,1,.75.85l2.29,9.6a1.26,1.26,0,0,1,.11.51A1.21,1.21,0,0,1,230,246.9Zm-10.86-3.48,9.29.91-1.54-6.44Z"/><polygon class="cls-6" points="137.17 200.15 124.94 208.04 133.21 213.85 137.17 200.15"/><path class="cls-2" d="M133.21,215.05a1.25,1.25,0,0,1-.7-.21L124.24,209a1.19,1.19,0,0,1-.51-1,1.24,1.24,0,0,1,.55-1l12.24-7.88a1.21,1.21,0,0,1,1.81,1.35l-4,13.69a1.23,1.23,0,0,1-.76.81,1.39,1.39,0,0,1-.4.06m-6.11-7,5.42,3.81,2.59-9Z"/><polygon class="cls-3" points="162.75 211.34 153.46 222.53 163.08 225.59 162.75 211.34"/><path class="cls-2" d="M163.08,226.8a1.09,1.09,0,0,1-.36-.06l-9.63-3.06a1.18,1.18,0,0,1-.8-.81,1.24,1.24,0,0,1,.23-1.11l9.3-11.19a1.22,1.22,0,0,1,1.33-.37,1.19,1.19,0,0,1,.81,1.11l.33,14.26a1.21,1.21,0,0,1-.48,1,1.23,1.23,0,0,1-.73.24m-7.55-4.88,6.3,2-.21-9.33Z"/><polygon class="cls-4" points="185.74 217.03 176.49 228.27 186.14 231.28 185.74 217.03"/><path class="cls-2" d="M186.14,232.48a1.12,1.12,0,0,1-.36,0l-9.64-3a1.21,1.21,0,0,1-.58-1.92l9.25-11.24A1.21,1.21,0,0,1,187,217l.4,14.25a1.23,1.23,0,0,1-.48,1,1.21,1.21,0,0,1-.73.24m-7.57-4.83,6.32,2-.27-9.33Z"/><polygon class="cls-5" points="205.13 229.76 192.6 237.17 200.64 243.29 205.13 229.76"/><path class="cls-2" d="M200.64,244.5a1.15,1.15,0,0,1-.73-.25l-8-6.12a1.21,1.21,0,0,1-.47-1,1.17,1.17,0,0,1,.59-1l12.52-7.41a1.22,1.22,0,0,1,1.38.1,1.21,1.21,0,0,1,.38,1.32l-4.48,13.53a1.25,1.25,0,0,1-.79.78,1.49,1.49,0,0,1-.36.05m-5.88-7.21,5.27,4,2.94-8.85Z"/><polygon class="cls-7" points="215.81 243.95 203.82 252.2 212.26 257.76 215.81 243.95"/><path class="cls-2" d="M212.26,259a1.22,1.22,0,0,1-.66-.2l-8.44-5.56a1.2,1.2,0,0,1-.54-1,1.17,1.17,0,0,1,.52-1l12-8.25a1.21,1.21,0,0,1,1.86,1.29l-3.56,13.81a1.22,1.22,0,0,1-.73.83,1.32,1.32,0,0,1-.44.08M206,252.18l5.52,3.64,2.33-9Z"/></svg>