<?xml version="1.0" encoding="utf-8"?>
<!-- Generator: Adobe Illustrator 16.0.0, SVG Export Plug-In . SVG Version: 6.00 Build 0)  -->
<!DOCTYPE svg PUBLIC "-//W3C//DTD SVG 1.1//EN" "http://www.w3.org/Graphics/SVG/1.1/DTD/svg11.dtd">
<svg version="1.1" id="Layer_1" xmlns="http://www.w3.org/2000/svg" xmlns:xlink="http://www.w3.org/1999/xlink" x="0px" y="0px"
	 width="500px" height="500px" viewBox="0 0 500 500" enable-background="new 0 0 500 500" xml:space="preserve">
<g id="Layer_1_copy_23">
	<g>
		
			<rect x="118.613" y="60.09" transform="matrix(-0.7071 0.7071 -0.7071 -0.7071 480.8281 116.4029)" fill="#FFC62F" width="195.386" height="195.389"/>
		<path fill="#27140E" d="M216.31,299.775c-0.98,0-1.962-0.373-2.711-1.121L75.435,160.491c-0.716-0.718-1.122-1.693-1.122-2.709
			c0-1.016,0.406-1.992,1.122-2.709l138.164-138.16c1.497-1.497,3.922-1.497,5.418,0l138.162,138.16
			c1.496,1.495,1.496,3.924,0,5.419L219.017,298.654C218.269,299.402,217.287,299.775,216.31,299.775z M83.567,157.782
			L216.31,290.521l132.738-132.739L216.31,25.042L83.567,157.782z"/>
	</g>
	<g>
		<polygon fill="#D25631" points="216.136,234.658 144.599,307.4 288.02,307.4 		"/>
		<path fill="#27140E" d="M288.02,311.234h-143.42c-1.545,0-2.938-0.926-3.535-2.352c-0.596-1.425-0.28-3.068,0.8-4.17
			l71.541-72.744c0.716-0.73,1.702-1.144,2.729-1.144h0.003c1.025,0,2.007,0.41,2.728,1.139l71.882,72.742
			c1.088,1.101,1.403,2.745,0.812,4.172C290.965,310.305,289.564,311.234,288.02,311.234z M153.745,303.568h125.098l-62.7-63.451
			L153.745,303.568z"/>
	</g>
	<g>
		<path fill="#27140E" d="M216.31,240.584c-2.118,0-3.834-1.713-3.834-3.833V19.622c0-2.118,1.716-3.833,3.834-3.833
			c2.115,0,3.831,1.714,3.831,3.833v217.13C220.141,238.872,218.425,240.584,216.31,240.584z"/>
	</g>
	<g>
		<path fill="#27140E" d="M78.946,161.27c-0.928,0-1.863-0.336-2.598-1.02c-1.554-1.436-1.647-3.861-0.212-5.416
			c39.533-42.751,77.306-78.139,139.308-78.139c59.744,0,103.244,37.206,141.352,77.412c1.454,1.536,1.39,3.961-0.144,5.419
			c-1.536,1.452-3.963,1.391-5.42-0.147C314.302,120.417,272.29,84.36,215.444,84.36c-53.546,0-88.292,26.598-133.683,75.679
			C81.006,160.856,79.98,161.27,78.946,161.27z"/>
	</g>
	<g>
		<path fill="#27140E" d="M400.748,471.698c-0.9,0-1.771-0.476-2.234-1.316c-3.884-6.98-6.905-13.221-9.111-17.77
			c-0.741-1.533-1.403-2.9-1.989-4.073c-2.717-6.397-28.399-61.52-114.031-70.307c-26.255-2.699-44.673-11.732-54.734-26.861
			c-13.793-20.734-6.653-45.035-6.34-46.057c0.41-1.351,1.835-2.113,3.181-1.707c1.354,0.412,2.116,1.836,1.71,3.186
			c-0.068,0.23-6.736,23.093,5.731,41.793c9.185,13.771,26.334,22.032,50.976,24.559c34.098,3.506,62.895,14.486,85.603,32.639
			c21.533,17.215,30.354,35.445,32.545,40.619c0.524,1.043,1.193,2.426,1.949,3.979c2.182,4.499,5.164,10.659,8.979,17.525
			c0.687,1.229,0.24,2.785-0.994,3.469C401.594,471.598,401.165,471.698,400.748,471.698z"/>
	</g>
	<g>
		<polygon fill="#E1B866" points="222.915,352.773 241.472,328.24 252.412,346.581 		"/>
		<path fill="#27140E" d="M222.915,355.33c-0.865,0-1.685-0.439-2.159-1.188c-0.572-0.9-0.525-2.06,0.122-2.912l18.558-24.533
			c0.511-0.678,1.321-1.057,2.177-1.008c0.85,0.041,1.619,0.511,2.055,1.24l10.939,18.346c0.422,0.705,0.479,1.576,0.145,2.332
			c-0.332,0.756-1.008,1.306-1.818,1.475l-29.492,6.193C223.261,355.311,223.088,355.33,222.915,355.33z M241.224,332.805
			l-12.156,16.063l19.318-4.052L241.224,332.805z"/>
	</g>
	<g>
		<polygon fill="#6773B7" points="276.701,375.82 285.812,346.434 302.341,359.973 		"/>
		<path fill="#27140E" d="M276.701,378.375c-0.555,0-1.104-0.18-1.562-0.532c-0.847-0.655-1.193-1.757-0.877-2.776l9.109-29.389
			c0.253-0.812,0.891-1.445,1.701-1.691c0.818-0.243,1.697-0.067,2.357,0.473l16.529,13.535c0.636,0.523,0.984,1.324,0.928,2.145
			c-0.055,0.827-0.504,1.569-1.206,2.008l-25.636,15.849C277.633,378.252,277.165,378.375,276.701,378.375z M287.13,350.816
			l-5.966,19.238l16.79-10.377L287.13,350.816z"/>
	</g>
	<g>
		<polygon fill="#75C7A9" points="325.148,388.479 339.908,361.484 353.421,378.029 		"/>
		<path fill="#27140E" d="M325.148,391.035c-0.729,0-1.439-0.309-1.934-0.887c-0.698-0.806-0.82-1.963-0.307-2.894l14.758-26.993
			c0.406-0.75,1.158-1.246,2.008-1.324c0.846-0.08,1.677,0.271,2.213,0.928l13.513,16.545c0.521,0.643,0.701,1.49,0.485,2.29
			s-0.806,1.438-1.579,1.728l-28.272,10.449C325.745,390.984,325.446,391.035,325.148,391.035z M340.33,366.041l-9.666,17.676
			l18.514-6.845L340.33,366.041z"/>
	</g>
	<g>
		<polygon fill="#E1B866" points="366.443,413.46 386.793,390.387 396.326,409.502 		"/>
		<path fill="#27140E" d="M366.443,416.016c-0.937,0-1.807-0.512-2.252-1.354c-0.505-0.936-0.368-2.096,0.338-2.895l20.35-23.074
			c0.562-0.631,1.395-0.963,2.249-0.84c0.841,0.107,1.572,0.633,1.95,1.396l9.532,19.106c0.365,0.74,0.358,1.611-0.032,2.34
			c-0.385,0.734-1.102,1.23-1.917,1.339l-29.879,3.957C366.667,416.008,366.556,416.016,366.443,416.016z M386.199,394.921
			l-13.321,15.106l19.564-2.592L386.199,394.921z"/>
	</g>
	<g>
		<polygon fill="#D25631" points="388.507,445.601 413.548,427.732 418.507,448.509 		"/>
		<path fill="#27140E" d="M418.507,451.065c-0.083,0-0.165-0.008-0.248-0.015l-30.001-2.9c-1.058-0.103-1.946-0.856-2.222-1.886
			c-0.275-1.028,0.12-2.116,0.983-2.735l25.046-17.876c0.69-0.491,1.587-0.611,2.379-0.318c0.795,0.303,1.392,0.979,1.589,1.8
			l4.846,20.303c0.149,0.324,0.233,0.691,0.233,1.072c0,1.411-1.146,2.557-2.556,2.557
			C418.539,451.065,418.521,451.065,418.507,451.065z M395.545,443.716l19.645,1.908l-3.245-13.609L395.545,443.716z"/>
	</g>
	<g>
		
			<path fill="none" stroke="#27140E" stroke-width="4.5558" stroke-linecap="round" stroke-linejoin="round" stroke-miterlimit="10" d="
			M348.538,407.486"/>
	</g>
	<g>
		<polygon fill="#75C7A9" points="222.396,352.234 196.538,368.904 214.016,381.184 		"/>
		<path fill="#27140E" d="M214.016,383.736c-0.519,0-1.032-0.149-1.468-0.459l-17.478-12.278c-0.698-0.487-1.103-1.296-1.087-2.146
			c0.018-0.85,0.457-1.633,1.169-2.095l25.862-16.674c0.896-0.575,2.056-0.539,2.907,0.103c0.857,0.637,1.228,1.737,0.929,2.758
			l-8.381,28.949c-0.227,0.791-0.828,1.426-1.604,1.698C214.588,383.693,214.3,383.736,214.016,383.736z M201.115,368.998
			l11.443,8.04l5.483-18.958L201.115,368.998z"/>
	</g>
	<g>
		<polygon fill="#D25631" points="276.488,375.885 256.827,399.549 277.18,406.02 		"/>
		<path fill="#27140E" d="M277.18,408.574c-0.259,0-0.521-0.045-0.773-0.121l-20.352-6.471c-0.813-0.252-1.443-0.899-1.682-1.715
			c-0.236-0.819-0.055-1.699,0.484-2.353l19.662-23.663c0.686-0.822,1.801-1.124,2.807-0.786c1.008,0.353,1.691,1.298,1.718,2.362
			l0.69,30.133c0.019,0.821-0.362,1.604-1.021,2.102C278.264,408.4,277.729,408.574,277.18,408.574z M261.214,398.26l13.328,4.239
			l-0.452-19.733L261.214,398.26z"/>
	</g>
	<g>
		<polygon fill="#E1B866" points="325.086,387.904 305.54,411.668 325.932,418.031 		"/>
		<path fill="#27140E" d="M325.932,420.585c-0.254,0-0.511-0.036-0.763-0.114L304.78,414.1c-0.813-0.25-1.447-0.892-1.688-1.705
			c-0.245-0.812-0.064-1.697,0.477-2.353l19.542-23.765c0.678-0.82,1.799-1.131,2.804-0.793c1.008,0.347,1.699,1.281,1.728,2.349
			l0.847,30.125c0.021,0.828-0.354,1.612-1.016,2.108C327.026,420.412,326.479,420.585,325.932,420.585z M309.927,410.357
			l13.351,4.168l-0.556-19.728L309.927,410.357z"/>
	</g>
	<g>
		<polygon fill="#6773B7" points="366.078,414.829 339.596,430.489 356.584,443.436 		"/>
		<path fill="#27140E" d="M356.584,445.99c-0.55,0-1.098-0.18-1.55-0.524l-16.985-12.947c-0.678-0.511-1.052-1.33-1.004-2.182
			c0.05-0.849,0.521-1.611,1.252-2.043l26.479-15.66c0.918-0.548,2.071-0.452,2.906,0.208c0.828,0.67,1.154,1.785,0.82,2.793
			l-9.493,28.607c-0.26,0.776-0.882,1.39-1.674,1.635C357.092,445.955,356.836,445.99,356.584,445.99z M344.161,430.755
			l11.125,8.479l6.217-18.728L344.161,430.755z"/>
	</g>
	<g>
		<polygon fill="#F79533" points="388.668,444.833 363.317,462.27 381.154,474.03 		"/>
		<path fill="#27140E" d="M381.154,476.585c-0.493,0-0.981-0.145-1.403-0.425l-17.843-11.753c-0.708-0.468-1.14-1.26-1.146-2.108
			c-0.008-0.856,0.407-1.655,1.108-2.131l25.352-17.438c0.874-0.604,2.036-0.598,2.91,0.008c0.876,0.61,1.274,1.706,1.012,2.733
			l-7.513,29.191c-0.209,0.799-0.785,1.446-1.559,1.749C381.776,476.528,381.463,476.585,381.154,476.585z M367.891,462.227
			l11.685,7.701l4.919-19.122L367.891,462.227z"/>
	</g>
</g>
</svg>
