<?xml version="1.0" encoding="utf-8"?>
<!-- Generator: Adobe Illustrator 16.0.0, SVG Export Plug-In . SVG Version: 6.00 Build 0)  -->
<!DOCTYPE svg PUBLIC "-//W3C//DTD SVG 1.1//EN" "http://www.w3.org/Graphics/SVG/1.1/DTD/svg11.dtd">
<svg version="1.1" id="Layer_1" xmlns="http://www.w3.org/2000/svg" xmlns:xlink="http://www.w3.org/1999/xlink" x="0px" y="0px"
	 width="500px" height="500px" viewBox="0 0 500 500" enable-background="new 0 0 500 500" xml:space="preserve">
<g id="Layer_1_copy_45">
	<path fill="#9A8C32" stroke="#3C2415" stroke-width="4.8646" stroke-miterlimit="10" d="M454.15,228.49
		c0,76.57-56.717,138.639-126.683,138.639c-69.969,0-126.685-62.068-126.685-138.639c0-76.568,56.716-138.639,126.685-138.639
		C397.435,89.851,454.15,151.922,454.15,228.49z"/>
	<path fill="#9A8C32" stroke="#3C2415" stroke-width="4.8646" stroke-miterlimit="10" d="M283.893,297.506
		c0,63.475-47.001,120.299-128.102,120.299c-72.315,0-119.185-61.789-119.185-125.264c0-63.474,46.869-104.59,119.185-104.59
		S283.893,234.034,283.893,297.506z"/>
	<path fill="#B7D434" stroke="#3C2415" stroke-width="4.8646" stroke-miterlimit="10" d="M281.861,281.697
		c0,51.773-54.899,93.746-122.628,93.746c-67.726,0-122.627-41.973-122.627-93.746c0-51.774,54.901-93.746,122.627-93.746
		C226.962,187.951,281.861,229.922,281.861,281.697z"/>
	<path fill="#3C2415" d="M109.985,268.927c0,1.398-1.367,2.534-3.043,2.534c-1.677,0-3.039-1.136-3.039-2.534
		c0-1.399,1.362-2.534,3.039-2.534C108.618,266.393,109.985,267.527,109.985,268.927z"/>
	<path fill="#3C2415" d="M127.531,265.316c0,2.574-2.507,4.664-5.592,4.664c-3.082,0-5.589-2.09-5.589-4.664
		s2.507-4.662,5.589-4.662C125.024,260.654,127.531,262.742,127.531,265.316z"/>
	<ellipse fill="#3C2415" cx="171.108" cy="249.671" rx="3.523" ry="2.939"/>
	<path fill="#3C2415" d="M192.96,257.712c0,1.623-1.58,2.938-3.523,2.938c-1.944,0-3.524-1.315-3.524-2.938
		c0-1.622,1.58-2.938,3.524-2.938C191.38,254.775,192.96,256.09,192.96,257.712z"/>
	<path fill="#3C2415" d="M156.883,263.592c0,1.622-1.584,2.938-3.527,2.938s-3.523-1.315-3.523-2.938
		c0-1.621,1.58-2.938,3.523-2.938S156.883,261.971,156.883,263.592z"/>
	<ellipse fill="#3C2415" cx="106.944" cy="281.496" rx="4.014" ry="3.344"/>
	<path fill="#3C2415" d="M118.013,300.85c0,1.848-1.802,3.346-4.017,3.346c-2.214,0-4.011-1.498-4.011-3.346
		c0-1.846,1.797-3.344,4.011-3.344C116.211,297.506,118.013,299.004,118.013,300.85z"/>
	<path fill="#3C2415" d="M137.104,310.176c0,1.846-1.802,3.344-4.013,3.344c-2.215,0-4.016-1.498-4.016-3.344
		s1.801-3.346,4.016-3.346C135.302,306.831,137.104,308.331,137.104,310.176z"/>
	<path fill="#3C2415" d="M144.399,323.555c0,1.844-1.801,3.342-4.011,3.342c-2.215,0-4.017-1.498-4.017-3.342
		c0-1.847,1.802-3.347,4.017-3.347C142.599,320.208,144.399,321.708,144.399,323.555z"/>
	<path fill="#3C2415" d="M178.858,310.176c0,1.846-1.801,3.344-4.016,3.344c-2.215,0-4.017-1.498-4.017-3.344
		s1.802-3.346,4.017-3.346C177.057,306.83,178.858,308.331,178.858,310.176z"/>
	<ellipse fill="#3C2415" cx="192.03" cy="311.795" rx="4.014" ry="3.345"/>
	<path fill="#3C2415" d="M208.812,295.074c0,1.846-1.8,3.344-4.011,3.344c-2.215,0-4.017-1.498-4.017-3.344s1.802-3.346,4.017-3.346
		C207.012,291.729,208.812,293.229,208.812,295.074z"/>
	<path fill="#3C2415" d="M220.41,278.15c0,1.846-1.801,3.346-4.016,3.346c-2.214,0-4.012-1.5-4.012-3.346s1.798-3.344,4.012-3.344
		C218.609,274.807,220.41,276.305,220.41,278.15z"/>
	<path fill="#3C2415" d="M136.129,271.461c0,1.398-1.362,2.534-3.038,2.534c-1.68,0-3.042-1.136-3.042-2.534
		s1.362-2.534,3.042-2.534C134.767,268.927,136.129,270.062,136.129,271.461z"/>
	<path fill="#3C2415" d="M143.427,260.25c0,1.396-1.362,2.533-3.038,2.533c-1.681,0-3.043-1.137-3.043-2.533
		c0-1.4,1.362-2.537,3.043-2.537C142.064,257.712,143.427,258.85,143.427,260.25z"/>
	<path fill="#3C2415" d="M180.924,262.783c0,1.398-1.362,2.533-3.043,2.533c-1.676,0-3.038-1.135-3.038-2.533
		c0-1.4,1.362-2.533,3.038-2.533C179.562,260.25,180.924,261.382,180.924,262.783z"/>
	<ellipse fill="#3C2415" cx="156.396" cy="250.787" rx="3.04" ry="2.535"/>
	<path fill="#3C2415" d="M188.017,244.099c0,1.4-1.366,2.534-3.041,2.534c-1.677,0-3.04-1.134-3.04-2.534s1.363-2.534,3.04-2.534
		C186.65,241.564,188.017,242.699,188.017,244.099z"/>
	<path fill="#3C2415" d="M209.907,252.205c0,1.4-1.366,2.534-3.042,2.534c-1.677,0-3.039-1.134-3.039-2.534
		c0-1.398,1.362-2.534,3.039-2.534C208.541,249.671,209.907,250.807,209.907,252.205z"/>
	<path fill="#3C2415" d="M221.662,267.852c0,1.398-1.362,2.535-3.039,2.535c-1.676,0-3.041-1.137-3.041-2.535
		s1.365-2.535,3.041-2.535C220.3,265.316,221.662,266.453,221.662,267.852z"/>
	<path fill="#3C2415" d="M206.865,278.959c0,1.4-1.362,2.536-3.039,2.536c-1.68,0-3.042-1.136-3.042-2.536
		c0-1.396,1.362-2.534,3.042-2.534C205.503,276.425,206.865,277.562,206.865,278.959z"/>
	<ellipse fill="#3C2415" cx="199.773" cy="304.297" rx="3.041" ry="2.533"/>
	<ellipse fill="#3C2415" cx="177.07" cy="300.041" rx="3.04" ry="2.533"/>
	<path fill="#3C2415" d="M165.517,306.831c0,1.399-1.362,2.536-3.039,2.536c-1.68,0-3.042-1.137-3.042-2.536
		c0-1.397,1.362-2.533,3.042-2.533C164.154,304.297,165.517,305.434,165.517,306.831z"/>
	<path fill="#3C2415" d="M156.397,317.674c0,1.4-1.365,2.534-3.042,2.534c-1.676,0-3.038-1.134-3.038-2.534
		c0-1.398,1.362-2.533,3.038-2.533C155.032,315.141,156.397,316.275,156.397,317.674z"/>
	<path fill="#3C2415" d="M146.469,304.297c0,1.398-1.365,2.533-3.042,2.533c-1.676,0-3.038-1.135-3.038-2.533
		c0-1.396,1.362-2.533,3.038-2.533C145.104,301.764,146.469,302.9,146.469,304.297z"/>
	<path fill="#3C2415" d="M124.98,306.831c0,1.399-1.361,2.536-3.041,2.536c-1.677,0-3.039-1.137-3.039-2.536
		c0-1.397,1.362-2.533,3.039-2.533C123.619,304.297,124.98,305.434,124.98,306.831z"/>
	<path fill="#3C2415" d="M103.903,292.542c0,1.396-1.365,2.532-3.041,2.532c-1.677,0-3.039-1.137-3.039-2.532
		c0-1.399,1.362-2.536,3.039-2.536C102.538,290.005,103.903,291.141,103.903,292.542z"/>
	<path fill="#FFFFFF" d="M119.714,281.496c0,0,0.606,3.143-4.259,6.384c-4.864,3.241-0.76,6.888,4.28,5.877
		c5.043-1.012,7.71-1.419,7.796,1.317c0.085,2.736-0.721,6.183,4.343,4.967c5.065-1.216,5.271-4.863,8.515-4.055
		c3.238,0.812,3.852,1.42,6.08,4.055c2.225,2.634,8.713,1.621,9.929-1.623c1.216-3.24,4.665-5.066,7.097-2.229
		c2.433,2.838,6.887,4.459,8.917,1.316c2.028-3.142,3.772-4.357,6.447-2.433c2.671,1.927,9.158,3.751,10.578,0
		c1.419-3.749-2.886-5.979,3.523-5.777c6.408,0.203,7.019-1.011,5.595-4.457c-1.419-3.446-4.821-4.659-2.511-6.688
		c2.309-2.027,7.095-4.987,8.757-7.765c1.661-2.778-1.173-6.354-3-3.854c-1.822,2.498-5.838,1.889-5.757-0.139
		c0.08-2.025-10.213-4.66-10.132-0.707c0.078,3.953,2.711,7.396-0.937,6.789c-3.649-0.609-11.951-7.095-16.011-3.548
		c-4.055,3.548-3.651,6.589-6.487,5.88c-2.839-0.712-2.681-4.154-5.595-3.346c-2.918,0.811-1.096,6.486-4.743,6.688
		c-3.649,0.203-3.649-4.862-6.688-4.153c-3.042,0.708-2.757,6.788-9.08,6.181c-6.323-0.607-4.907-8.105-12.203-5.369
		C116.871,277.542,117.484,279.367,119.714,281.496z"/>
	<path fill="none" stroke="#D2E17A" stroke-width="9.7291" stroke-miterlimit="10" d="M251.459,283.158
		c0,33.81-40.878,61.213-91.313,61.213c-50.433,0-91.31-27.403-91.31-61.213c0-33.808,40.877-61.212,91.31-61.212
		C210.581,221.946,251.459,249.35,251.459,283.158z"/>
</g>
</svg>
