<?xml version="1.0" encoding="utf-8"?>
<!-- Generator: Adobe Illustrator 16.0.0, SVG Export Plug-In . SVG Version: 6.00 Build 0)  -->
<!DOCTYPE svg PUBLIC "-//W3C//DTD SVG 1.1//EN" "http://www.w3.org/Graphics/SVG/1.1/DTD/svg11.dtd">
<svg version="1.1" id="Layer_1" xmlns="http://www.w3.org/2000/svg" xmlns:xlink="http://www.w3.org/1999/xlink" x="0px" y="0px"
	 width="500px" height="500px" viewBox="0 0 500 500" enable-background="new 0 0 500 500" xml:space="preserve">
<g id="Layer_1_copy_62">
	<g>
		<g>
			<path fill="#F4BE78" d="M225.478,224.612c0,0,6.883,28.982-7.919,34.583c-8.045,3.046,19.269,51.189,19.269,51.189l28.998,2.037
				l27.545-26.893l-1.688-24.941c0,0-15.291-16.223-6.148-37.738c9.138-21.515-36.095-31.903-36.095-31.903L225.478,224.612z"/>
		</g>
		<g>
			<path fill="#3C2415" d="M265.825,315.761c-0.079,0-0.156,0-0.235-0.008l-28.995-2.039c-1.118-0.078-2.12-0.711-2.671-1.682
				c-22.524-39.707-21.553-50.328-20.714-52.646c0.567-1.574,1.693-2.752,3.166-3.313c9.865-3.729,7.567-23.419,5.851-30.694
				c-0.22-0.931-0.025-1.918,0.532-2.701l23.961-33.667c0.786-1.1,2.154-1.616,3.468-1.317c1.242,0.285,30.47,7.148,38.042,22.001
				c2.361,4.623,2.483,9.489,0.375,14.46c-8.144,19.166,4.953,33.548,5.514,34.152c0.525,0.561,0.847,1.291,0.895,2.057
				l1.688,24.941c0.068,0.977-0.299,1.93-0.999,2.612l-27.543,26.892C267.531,315.423,266.693,315.761,265.825,315.761z
				 M238.849,307.18l25.717,1.807l25.369-24.769l-1.51-22.286c-3.299-3.994-14.67-19.899-5.967-40.387
				c1.32-3.111,1.266-5.992-0.175-8.812c-4.683-9.198-22.63-15.639-31.445-17.996l-21.793,30.613
				c1.26,6.373,4.953,30.45-9.658,36.708C218.626,267.029,228.492,288.695,238.849,307.18z"/>
		</g>
	</g>
	<g>
		<g>
			<path fill="#F4BE78" d="M176.99,177.521c6.808,31.162,38.71,54.742,77.042,54.742c37.345,0,66.153-20.472,74.027-50.448
				l0.537-4.661c-0.081,0.102,20.018,6.808,23.943-10.514c4.048-17.838-10.174-22.51-10.174-22.51l-3.456-5.11l-57.865-74.831
				l-76.224,16.968l-43.954,68.991c0,0-12.811-1.186-8.198,17.764c4.455,18.294,24.249,9.344,24.171,9.242"/>
		</g>
		<g>
			<path fill="#3C2415" d="M254.032,235.599c-37.939,0-70.744-22.517-79.473-54.016c-3.39,0.954-7.721,1.44-10.96,0.98
				c-5.103-0.722-11.7-3.714-14.173-13.862c-1.968-8.073-1.276-14.113,2.042-17.962c2.222-2.573,5.226-3.584,7.525-3.861
				l43.012-67.515c0.476-0.747,1.227-1.272,2.092-1.464l76.223-16.971c1.26-0.277,2.576,0.195,3.365,1.217l57.865,74.835
				l2.984,4.403c5.983,2.532,14.764,10.548,11.258,25.996c-1.817,8.016-7.161,13.066-15.051,14.218
				c-2.09,0.302-5.947,0.295-9.269-0.254l-0.099,0.852c-0.02,0.158-0.048,0.314-0.085,0.468
				C322.843,214.82,292.516,235.599,254.032,235.599z M176.997,174.18c1.535,0,2.914,1.067,3.255,2.626
				c6.598,30.2,37.625,52.119,73.78,52.119c35.262,0,63.002-18.729,70.74-47.732l0.512-4.421c0.183-1.593,1.475-2.828,3.069-2.947
				c0.568-0.045,1.135,0.067,1.633,0.295c1.738,0.61,8.969,2.252,13.988-0.457c2.724-1.47,4.458-4.006,5.312-7.761
				c3.336-14.708-7.5-18.452-7.964-18.602c-0.703-0.231-1.31-0.688-1.725-1.301l-3.452-5.11l-56.442-72.982l-72.81,16.208
				l-43.213,67.827c-0.669,1.055-1.889,1.643-3.119,1.53c-0.071-0.007-2.544-0.146-4.077,1.676
				c-1.744,2.072-1.944,6.325-0.568,11.97c0.983,4.066,2.827,6.672,5.633,7.975c5.061,2.36,12.194-0.12,13.686-0.857l0.173,0.345
				c0.266-0.143,0.557-0.255,0.872-0.322C176.519,174.207,176.759,174.18,176.997,174.18z"/>
		</g>
	</g>
	<g>
		<path fill="#F58020" d="M292.382,259.24c26.842,11.369,82.822,28.752,84.49,61.855c0,0,4.493,31.021,0,31.086
			c-18.491,0.282-97.165-0.498-112.617-0.285c-21.953,0.301-112.427,0.428-138.719,0.067c-4.223-0.057,2.678-31.428,2.638-31.555
			c8.53-37.334,61.216-48.349,89.205-61.617c0,0,7.564,30.045,35.82,30.119C284.289,288.994,292.382,259.24,292.382,259.24z"/>
		<path fill="#3C2415" d="M364.264,355.583c-12.874,0-31.521-0.106-49.396-0.207c-22.251-0.125-43.336-0.235-50.566-0.144
			c-12.152,0.166-45.858,0.287-80.15,0.287c-27.104,0-48.484-0.082-58.658-0.217c-1.256-0.018-2.391-0.58-3.206-1.59
			c-1.274-1.586-3.415-4.232,2.398-32.863c0.093-0.447,0.156-0.764,0.184-0.916c0.014-0.09,0.03-0.18,0.052-0.27
			c7.106-31.102,42.335-44.643,70.64-55.523c7.474-2.877,14.534-5.588,20.389-8.363c0.905-0.43,1.952-0.43,2.854-0.004
			c0.904,0.427,1.57,1.234,1.813,2.203c0.289,1.123,7.328,27.529,32.592,27.599c28.232,0,35.882-26.943,35.957-27.214
			c0.25-0.93,0.895-1.704,1.761-2.127c0.864-0.42,1.874-0.448,2.763-0.071c3.459,1.467,7.404,3.028,11.654,4.717
			c29.142,11.563,73.155,29.029,74.857,59.886c1.874,12.983,3.382,29.213,0,33.174c-0.856,1.004-2.021,1.563-3.277,1.582
			C374.023,355.562,369.643,355.583,364.264,355.583z M272.555,348.52c10.062,0,25.881,0.09,42.35,0.184
			c24.032,0.135,49.468,0.277,60.355,0.162c0.782-4.047-0.156-16.703-1.688-27.291c-0.016-0.102-0.026-0.207-0.03-0.311
			c-1.347-26.671-43.06-43.222-70.66-54.175c-3.028-1.203-5.898-2.342-8.556-3.43c-3.456,8.358-14.558,28.592-40.995,28.592h-0.004
			c-24.271-0.062-34.629-20.313-37.924-28.885c-5.29,2.329-11.229,4.616-17.45,7.008c-26.823,10.312-60.205,23.146-66.523,50.774
			c-0.048,0.277-0.116,0.611-0.198,1.029c-3.549,17.484-3.864,24.066-3.715,26.471c10.78,0.123,31.178,0.195,56.635,0.195
			c34.263,0,67.935-0.123,80.062-0.289C266.113,348.531,268.968,348.52,272.555,348.52z"/>
	</g>
	<g>
		<circle fill="#25111A" cx="219.903" cy="156.178" r="8.901"/>
	</g>
	<g>
		<circle fill="#25111A" cx="286.132" cy="156.178" r="8.902"/>
	</g>
	<g>
		<path fill="#3C2415" d="M251.414,210.826c-23.173,0-30.739-19.641-30.814-19.843c-0.644-1.728,0.236-3.646,1.968-4.29
			c1.717-0.647,3.647,0.236,4.29,1.967c0.24,0.621,6.123,15.489,24.568,15.489c0.065,0,0.131,0,0.198,0l3.567-0.011
			c17.416-0.61,23.061-14.872,23.293-15.482c0.658-1.717,2.576-2.584,4.297-1.938c1.722,0.647,2.597,2.558,1.955,4.279
			c-0.287,0.778-7.338,19.043-29.418,19.817l-3.67,0.011C251.57,210.826,251.491,210.826,251.414,210.826z"/>
	</g>
	<g>
		<path fill="#4C230D" d="M344.548,87.649c-20.682-50.063-61.354-61.488-93.028-54.839l-0.111,0.146
			c-31.466-6.034-71.257,5.764-91.64,55.103c-6.854,16.602-14.759,58.132-0.025,63.847c0.022,0.063,0.046,0.131,0.061,0.169
			c0.28,0.052,0.558,0.07,0.838,0.116c0.123,0.037,0.239,0.09,0.37,0.12c0.378,0.086,0.797,0.12,1.246,0.112
			c40.722,5.293,77.704-47.163,77.704-47.163l-7.204,34.057c0,0,20.612-2.846,34.383-49.858
			c8.063,26.151,19.055,41.637,19.055,41.637s-3.004-17.075,0.998-26.346c3.102,2.117,25.929,33.468,42.596,41.301
			c5.465,4.178,10.561,6.534,13.521,5.854C359.757,148.106,351.596,104.711,344.548,87.649z"/>
		<path fill="#3C2415" d="M168.095,156.137c-2.034,0-4.076-0.127-6.074-0.378c-0.707-0.015-1.249-0.079-1.755-0.195
			c-0.078-0.019-0.234-0.063-0.372-0.105l-0.047-0.007c-0.217-0.026-0.437-0.053-0.658-0.097c-0.563-0.105-1.088-0.356-1.517-0.711
			c-3.023-1.444-5.369-4.077-6.978-7.836c-6.68-15.605,0.734-47.3,5.989-60.025c15.388-37.247,44.372-58.613,79.518-58.613
			c4.961,0,9.954,0.447,14.857,1.326c5.601-1.16,11.334-1.746,17.043-1.746c35.15,0,64.141,21.367,79.53,58.626
			c5.907,14.307,12.756,47.06,5.36,61.393c-2.038,3.954-5.127,6.505-8.937,7.384c-0.583,0.134-1.205,0.202-1.853,0.202l0,0
			c-4.633,0-10.206-3.449-14.168-6.438c-12.833-6.217-28.095-24.298-37.244-35.138c-0.65-0.77-1.303-1.548-1.93-2.281
			c-0.916,6.583-0.075,14.763,0.535,18.511c0.111,0.341,0.174,0.703,0.174,1.085c0,1.844-1.491,3.336-3.336,3.336
			c-0.015,0-0.024,0-0.039,0c0,0,0,0-0.004,0c-1.058,0-2.08-0.501-2.725-1.406c-0.4-0.564-8.749-12.459-16.271-32.94
			c-14.086,39.333-33.12,42.421-33.985,42.538c-1.08,0.146-2.158-0.236-2.898-1.032c-0.743-0.794-1.047-1.901-0.822-2.963
			l4.313-20.396C221.063,132.695,196.096,156.137,168.095,156.137z M161.875,149.078c0.067,0,0.546,0,0.812,0.034
			c1.773,0.231,3.595,0.348,5.408,0.348c36.157,0,68.814-45.666,69.14-46.127c0.913-1.294,2.611-1.768,4.062-1.133
			c1.45,0.634,2.259,2.199,1.93,3.75l-5.857,27.692c6.471-4.17,17.866-15.418,26.563-45.121c0.416-1.416,1.705-2.39,3.18-2.401
			c1.492-0.042,2.779,0.946,3.218,2.354c3.646,11.822,7.926,21.457,11.46,28.381c0.087-4.657,0.676-9.582,2.337-13.43
			c0.397-0.915,1.181-1.605,2.136-1.883c0.955-0.279,1.986-0.113,2.814,0.45c1.15,0.788,2.818,2.742,6.818,7.483
			c8.291,9.822,23.729,28.113,35.311,33.555c0.217,0.101,0.417,0.225,0.604,0.367c5.1,3.893,8.713,5.281,10.396,5.281
			c0.188,0,0.304-0.019,0.354-0.03c1.886-0.434,3.357-1.724,4.502-3.942c5.82-11.285,0.486-41.049-5.599-55.782
			c-14.309-34.634-41.048-54.499-73.359-54.499c-5.148,0-10.317,0.521-15.375,1.545c-0.617,0.277-1.302,0.391-1.949,0.264
			c-4.798-0.921-9.705-1.388-14.576-1.388c-32.307,0-59.038,19.859-73.347,54.485c-5.905,14.301-11.191,42.775-6.021,54.846
			c1.039,2.435,2.387,3.942,4.117,4.616c0.087,0.029,0.17,0.067,0.251,0.108l0,0c0.108,0.019,0.218,0.042,0.325,0.071
			c0.062,0.019,0.239,0.075,0.333,0.105C161.859,149.078,161.863,149.078,161.875,149.078z"/>
	</g>
	<g>
		<g>
			<path fill="#F7EAA6" d="M382.842,308.406c0,0-49.896-27.76-90.799-14.307c-40.898,13.452-47.83,26.036-47.83,26.036l8.092,40.158
				l86.415,7.537L382.842,308.406z"/>
			<path fill="#3C2415" d="M338.72,370.615c-0.082,0-0.16-0.008-0.243-0.012l-86.414-7.537c-1.23-0.105-2.242-1.015-2.488-2.221
				l-8.086-40.158c-0.131-0.648-0.027-1.316,0.291-1.894c0.304-0.555,7.935-13.696,49.396-27.34
				c7.706-2.533,16.249-3.817,25.391-3.817c34.271,0,66.285,17.592,67.632,18.336c0.701,0.393,1.201,1.063,1.363,1.848
				c0.175,0.781-0.007,1.6-0.48,2.244l-44.126,59.424C340.425,370.199,339.596,370.615,338.72,370.615z M254.62,357.705l82.79,7.221
				l41.251-55.549c-8.519-4.234-34.97-16.174-62.097-16.174c-8.55,0-16.508,1.188-23.65,3.537
				c-33.334,10.967-43.497,21.275-45.733,24.025L254.62,357.705z"/>
		</g>
		<g>
			<path fill="#F7EAA6" d="M110.701,309.645c0,0,45.936-28.998,86.831-15.545c40.898,13.452,47.829,26.036,47.829,26.036
				l-8.086,40.158l-86.417,7.537L110.701,309.645z"/>
			<path fill="#3C2415" d="M150.858,370.615c-0.909,0-1.764-0.449-2.289-1.205l-40.157-58.182c-0.43-0.625-0.592-1.396-0.437-2.142
				c0.152-0.739,0.598-1.387,1.24-1.791c1.262-0.801,31.335-19.541,65.021-19.541c8.568,0,16.701,1.246,24.167,3.699
				c41.459,13.644,49.09,26.785,49.396,27.34c0.314,0.576,0.42,1.244,0.289,1.894l-8.084,40.158
				c-0.246,1.206-1.257,2.114-2.486,2.221l-86.416,7.537C151.02,370.607,150.94,370.615,150.858,370.615z M114.692,310.531
				l37.54,54.387l82.728-7.213l7.436-36.932c-2.24-2.746-12.426-13.076-45.729-24.033c-6.902-2.27-14.45-3.418-22.429-3.418
				C147.575,293.322,122.524,306.126,114.692,310.531z"/>
		</g>
		<g>
			<path fill="#F15B2B" d="M261.805,331.934c0,0-1.332-12.808-14.729-11.732c-13.401,1.078-11.648,13.146-11.648,13.146
				l10.26,13.225L261.805,331.934z"/>
			<path fill="#3C2415" d="M245.332,350.652l-12.553-16.178l-0.104-0.726c-0.039-0.252-0.861-6.269,2.917-11.006
				c2.499-3.127,6.284-4.918,11.259-5.318c12.913-1.034,17.18,9.033,17.723,14.222l0.145,1.401L245.332,350.652z M238.136,332.307
				l7.907,10.184l12.747-11.576c-0.688-2.77-3.181-8.607-11.493-7.941c-3.383,0.273-5.859,1.361-7.351,3.24
				C238.241,328.352,238.098,331.08,238.136,332.307z"/>
		</g>
		<g>
			<path fill="#019547" d="M107.197,311.322c0,0,52.451-29.873,125.237,21.256l6.003,133.744l-100.741-29.068
				C137.696,437.253,104.426,319.662,107.197,311.322z"/>
			<path fill="#3C2415" d="M241.394,470.066L135.44,439.501l-0.423-1.488c-7.854-27.778-33.285-119.075-30.458-127.567l0.333-1.014
				l0.928-0.527c0.647-0.369,16.174-9.037,42.043-9.037c28.428,0,57.42,10.238,86.169,30.434l1.118,0.785L241.394,470.066z
				 M139.952,435.011l95.531,27.562l-5.769-128.5c-27.425-19.011-54.958-28.646-81.852-28.646c-20.479,0-34.147,5.789-38.104,7.705
				C109.715,323.837,127.803,391.977,139.952,435.011z"/>
		</g>
		<g>
			<path fill="#019547" d="M390.08,311.322c0,0-52.448-29.873-125.238,21.256l-6.003,133.744l100.742-29.068
				C359.581,437.253,392.852,319.662,390.08,311.322z"/>
			<path fill="#3C2415" d="M255.884,470.066l6.243-138.98l1.114-0.785c28.753-20.195,57.746-30.434,86.172-30.434
				c25.869,0,41.394,8.668,42.04,9.037l0.932,0.527l0.336,1.014c2.821,8.492-22.604,99.789-30.462,127.567l-0.422,1.488
				L255.884,470.066z M267.559,334.074l-5.769,128.5l95.535-27.562c12.131-42.967,30.182-110.957,30.175-121.881
				c-3.992-1.918-17.724-7.701-38.087-7.701C322.521,305.43,294.982,315.064,267.559,334.074z"/>
		</g>
		<g>
			<path fill="#046938" d="M231.886,334.462c0,0,18.953-9.983,32.35-0.549c4.08,11.437-5.191,132.188-5.191,132.188
				s-10.985,11.246-21.152,0.222C234.746,457.552,231.886,334.462,231.886,334.462z"/>
			<path fill="#3C2415" d="M247.774,473.949c-4.405,0-8.416-1.937-11.929-5.742l-0.381-0.416l-0.194-0.531
				c-3.202-8.932-5.869-120.09-6.164-132.734l-0.042-1.723l1.526-0.805c0.381-0.199,9.468-4.922,19.844-4.922
				c5.921,0,11.105,1.533,15.402,4.561l0.723,0.508l0.299,0.834c4.156,11.654-4.088,120.914-5.041,133.337l-0.075,1.006
				l-0.706,0.721C260.799,468.285,255.186,473.949,247.774,473.949z M240.365,464.884c2.321,2.354,4.75,3.502,7.409,3.502
				c3.822,0,7.174-2.424,8.582-3.602c3.586-46.986,7.843-117.953,5.479-129.129c-3.189-2.005-7.021-3.015-11.4-3.015
				c-6.673,0-12.932,2.349-15.726,3.568C235.851,384.447,238.231,456.109,240.365,464.884z"/>
		</g>
	</g>
	<g>
		<path fill="#F4BE78" d="M140.482,340.13c-8.267-0.805-32.317-4.903-32.155,38.197c1.271,33.627,33.248,30.114,33.248,30.114
			s29.157-5.602,10.365-22.94c13.556-13.897-4.967-23.813-4.967-23.813S168.084,347.035,140.482,340.13z"/>
		<path fill="#3C2415" d="M139.035,411.884h-0.004c-7.689,0-32.867-2.413-34.041-33.43c-0.061-16.502,3.355-28.277,10.151-35.101
			c4.653-4.668,10.885-7.039,18.522-7.039c2.421,0,4.62,0.23,6.228,0.398l0.917,0.094c0.165,0.014,0.328,0.045,0.491,0.082
			c10.147,2.541,15.57,6.453,16.575,11.959c0.937,5.103-2.502,9.695-5.415,12.568c3.016,2.438,6.797,6.467,7.619,11.777
			c0.637,4.133-0.568,8.207-3.583,12.146c4.351,4.775,5.928,9.382,4.694,13.711c-2.646,9.277-17.322,12.349-18.986,12.666
			c-0.087,0.019-0.176,0.029-0.262,0.043C141.821,411.775,140.753,411.884,139.035,411.884z M133.664,342.99
			c-5.881,0-10.388,1.662-13.792,5.078c-5.497,5.521-8.262,15.699-8.209,30.248c0.92,24.26,19.445,26.891,27.368,26.891h0.004
			c1.048,0,1.773-0.049,2.058-0.07c4.058-0.824,12.497-3.768,13.676-7.92c0.852-2.988-2.301-6.688-5.092-9.26
			c-0.661-0.615-1.047-1.467-1.073-2.369c-0.022-0.9,0.318-1.773,0.946-2.42c3.045-3.115,4.365-6.127,3.931-8.949
			c-0.86-5.582-8.012-9.551-8.087-9.592c-1.024-0.547-1.689-1.592-1.753-2.75c-0.067-1.164,0.475-2.27,1.429-2.936
			c2.273-1.59,6.801-5.865,6.24-8.898c-0.458-2.482-4.61-4.885-11.406-6.617l-0.706-0.07
			C137.655,343.193,135.736,342.99,133.664,342.99z"/>
	</g>
	<g>
		<path fill="#F4BE78" d="M363.661,346.208c8.271-0.806,32.317-4.903,32.16,38.196c-1.274,33.628-33.249,30.113-33.249,30.113
			s-29.156-5.598-10.367-22.942c-13.556-13.896,4.971-23.813,4.971-23.813S336.064,353.113,363.661,346.208z"/>
		<path fill="#3C2415" d="M365.112,417.96c-1.718,0-2.787-0.11-2.906-0.123c-0.085-0.012-0.176-0.024-0.262-0.039
			c-1.668-0.321-16.343-3.396-18.986-12.666c-1.234-4.332,0.344-8.938,4.693-13.713c-3.015-3.938-4.224-8.019-3.582-12.146
			c0.817-5.312,4.6-9.344,7.614-11.781c-2.914-2.869-6.348-7.463-5.411-12.564c1.002-5.506,6.426-9.418,16.577-11.959
			c0.16-0.041,0.322-0.066,0.485-0.086l0.919-0.092c1.605-0.17,3.806-0.398,6.225-0.398c7.641,0,13.871,2.367,18.523,7.035
			c6.799,6.826,10.215,18.594,10.154,34.988C397.979,415.552,372.804,417.96,365.112,417.96z M363.052,411.21
			c0.277,0.024,1.006,0.074,2.062,0.074c7.923,0,26.447-2.634,27.374-27.007c0.048-14.438-2.713-24.616-8.212-30.139
			c-3.403-3.41-7.914-5.07-13.795-5.07c-2.07,0-3.991,0.201-5.536,0.357l-0.702,0.076c-6.8,1.727-10.952,4.141-11.4,6.621
			c-0.558,3.029,4.051,7.375,6.238,8.895c0.953,0.662,1.496,1.773,1.43,2.933c-0.066,1.163-0.732,2.202-1.759,2.754
			c-2.005,1.084-7.379,4.938-8.087,9.608c-0.426,2.816,0.896,5.82,3.933,8.933c0.631,0.644,0.973,1.521,0.944,2.416
			c-0.018,0.903-0.407,1.754-1.068,2.366c-2.795,2.578-5.943,6.281-5.091,9.271C350.57,407.473,359,410.4,363.052,411.21z"/>
	</g>
</g>
</svg>
