<?xml version="1.0" encoding="utf-8"?>
<!-- Generator: Adobe Illustrator 16.0.0, SVG Export Plug-In . SVG Version: 6.00 Build 0)  -->
<!DOCTYPE svg PUBLIC "-//W3C//DTD SVG 1.1//EN" "http://www.w3.org/Graphics/SVG/1.1/DTD/svg11.dtd">
<svg version="1.1" id="Layer_1" xmlns="http://www.w3.org/2000/svg" xmlns:xlink="http://www.w3.org/1999/xlink" x="0px" y="0px"
	 width="500px" height="500px" viewBox="0 0 500 500" enable-background="new 0 0 500 500" xml:space="preserve">
<g id="Layer_1_copy_14">
	<g>
		<polygon fill="#C12026" points="408.353,309.551 373.11,323.645 321.571,279.154 398.221,253.163 462.096,280.475 
			445.796,306.463 		"/>
		<path fill="#27140E" d="M373.11,326.042c-0.564,0-1.125-0.199-1.567-0.581l-51.539-44.488c-0.651-0.564-0.951-1.431-0.786-2.277
			c0.162-0.846,0.768-1.536,1.581-1.811l76.651-25.994c0.558-0.189,1.166-0.162,1.713,0.066l63.875,27.309
			c0.645,0.277,1.139,0.821,1.344,1.489c0.213,0.673,0.118,1.397-0.253,1.994l-16.298,25.987c-0.406,0.643-1.086,1.055-1.839,1.117
			l-37.083,3.058l-34.911,13.962C373.712,325.989,373.41,326.042,373.11,326.042z M326.31,280.08l47.264,40.798l33.892-13.552
			c0.221-0.092,0.453-0.146,0.692-0.166l36.246-2.986l14.171-22.597l-60.45-25.847L326.31,280.08z"/>
	</g>
	<g>
		<polygon fill="#ECE82D" points="194.702,295.454 137.873,310.872 88.094,264.616 147.122,245.675 244.478,243.031 
			247.122,292.809 		"/>
		<path fill="#27140E" d="M137.873,313.27c-0.599,0-1.183-0.224-1.632-0.642l-49.779-46.257c-0.624-0.578-0.896-1.445-0.708-2.275
			c0.185-0.83,0.796-1.504,1.606-1.764l59.033-18.94c0.216-0.071,0.438-0.108,0.668-0.115l97.352-2.645
			c1.297-0.024,2.392,0.973,2.462,2.273l2.642,49.774c0.034,0.635-0.189,1.26-0.615,1.735c-0.426,0.474-1.019,0.753-1.661,0.787
			l-52.16,2.631l-56.579,15.351C138.294,313.242,138.081,313.27,137.873,313.27z M92.728,265.648l45.803,42.562l55.545-15.069
			c0.161-0.047,0.334-0.072,0.506-0.084l50.018-2.52l-2.39-45.043l-94.674,2.569L92.728,265.648z"/>
	</g>
	<g>
		<polygon fill="#C12026" points="229.941,224.53 189.413,239.947 164.745,205.147 270.471,170.346 269.588,153.163 
			293.816,145.678 357.692,172.988 322.893,224.968 		"/>
		<path fill="#27140E" d="M189.413,242.345c-0.76,0-1.495-0.364-1.958-1.013l-24.669-34.797c-0.438-0.622-0.56-1.414-0.317-2.137
			c0.236-0.724,0.806-1.29,1.527-1.528l103.984-34.23l-0.787-15.354c-0.059-1.096,0.639-2.089,1.688-2.415l24.226-7.486
			c0.539-0.166,1.123-0.138,1.65,0.086l63.876,27.31c0.657,0.282,1.154,0.839,1.356,1.525c0.204,0.684,0.09,1.421-0.308,2.014
			l-34.8,51.98c-0.449,0.669-1.199,1.152-2.006,1.064l-92.506-0.437l-40.108,15.255
			C189.987,242.294,189.697,242.345,189.413,242.345z M168.578,206.409l21.721,30.637l38.788-14.759
			c0.273-0.104,0.514-0.118,0.865-0.155l91.663,0.432l32.477-48.507l-60.41-25.828l-21.604,6.676l0.786,15.317
			c0.055,1.081-0.617,2.063-1.646,2.402L168.578,206.409z"/>
	</g>
	<g>
		<polygon fill="#495DAA" points="137.43,163.297 90.735,198.538 48.886,139.509 205.712,91.932 270.471,118.804 225.978,164.179 		
			"/>
		<path fill="#27140E" d="M90.735,200.936c-0.122,0-0.244-0.008-0.365-0.027c-0.643-0.1-1.217-0.456-1.588-0.984L46.93,140.896
			c-0.446-0.63-0.561-1.434-0.311-2.164s0.832-1.295,1.571-1.518l156.824-47.576c0.534-0.163,1.103-0.134,1.615,0.079l64.758,26.872
			c0.735,0.306,1.272,0.957,1.432,1.737c0.158,0.78-0.082,1.589-0.639,2.158l-44.493,45.373c-0.455,0.468-1.164,0.703-1.735,0.72
			l-87.727-0.873l-46.046,34.75C91.762,200.769,91.254,200.936,90.735,200.936z M52.768,140.838l38.498,54.297l44.723-33.752
			c0.421-0.319,1.014-0.461,1.469-0.483l87.52,0.87l41.295-42.11l-60.685-25.182L52.768,140.838z"/>
	</g>
	<g>
		<path fill="#861719" d="M403.361,291.208c0,1.996-6.312,3.617-14.096,3.617c-7.78,0-14.09-1.621-14.09-3.617V280.29l16.186-1.078
			l11.74,1.271L403.361,291.208z"/>
		<path fill="#27140E" d="M389.267,297.225c-3.866,0-16.486-0.434-16.486-6.017V280.29c0-1.261,0.979-2.308,2.237-2.392
			l16.185-1.082c0.144-0.006,0.281-0.002,0.42,0.012l11.74,1.27c1.197,0.129,2.109,1.125,2.142,2.328l0.256,10.727
			C405.759,296.792,393.137,297.225,389.267,297.225z M377.574,290.607c1.199,0.723,5.286,1.82,11.691,1.82
			c6.389,0,10.468-1.088,11.684-1.812l-0.193-7.977l-9.441-1.019l-13.739,0.915L377.574,290.607L377.574,290.607z"/>
	</g>
	<g>
		<path fill="#C12026" d="M403.043,280.29c0,1.999-6.308,3.62-14.09,3.62s-14.09-1.621-14.09-3.62c0-1.996,6.308-3.62,14.09-3.62
			S403.043,278.293,403.043,280.29z"/>
		<path fill="#27140E" d="M388.953,286.309c-3.871,0-16.492-0.434-16.492-6.02c0-5.583,12.621-6.018,16.492-6.018
			c3.866,0,16.487,0.435,16.487,6.018C405.44,285.875,392.819,286.309,388.953,286.309z M378.72,280.29
			c1.962,0.61,5.452,1.224,10.233,1.224c4.782,0,8.268-0.611,10.229-1.224c-1.962-0.612-5.446-1.222-10.229-1.222
			C384.172,279.068,380.682,279.677,378.72,280.29z"/>
	</g>
	<g>
		<path fill="#861719" d="M438.011,281.241c0,2-6.308,3.618-14.089,3.618s-14.09-1.618-14.09-3.618v-10.918l16.184-1.076
			l11.746,1.269L438.011,281.241z"/>
		<path fill="#27140E" d="M423.922,287.257c-3.867,0-16.487-0.433-16.487-6.017v-10.918c0-1.26,0.979-2.307,2.238-2.391
			l16.185-1.078c0.139-0.006,0.277-0.006,0.416,0.006l11.746,1.271c1.194,0.128,2.11,1.125,2.142,2.327l0.251,10.728
			C440.411,286.825,427.792,287.257,423.922,287.257z M412.229,280.641c1.198,0.727,5.285,1.82,11.692,1.82
			c6.383,0,10.462-1.085,11.68-1.811l-0.189-7.978l-9.446-1.021l-13.734,0.914v8.074H412.229z"/>
	</g>
	<g>
		<path fill="#C12026" d="M437.694,270.323c0,2-6.308,3.62-14.091,3.62c-7.776,0-14.087-1.62-14.087-3.62
			c0-1.995,6.311-3.617,14.087-3.617C431.388,266.706,437.694,268.328,437.694,270.323z"/>
		<path fill="#27140E" d="M423.604,276.341c-3.867,0-16.483-0.437-16.483-6.019c0-5.584,12.616-6.016,16.483-6.016
			c3.869,0,16.487,0.433,16.487,6.016C440.091,275.904,427.474,276.341,423.604,276.341z M413.378,270.323
			c1.963,0.61,5.447,1.223,10.228,1.223c4.781,0,8.271-0.61,10.229-1.223c-1.958-0.61-5.447-1.22-10.229-1.22
			C418.825,269.104,415.341,269.712,413.378,270.323z"/>
	</g>
	<g>
		<path fill="#861719" d="M408.689,268.549c0,1.996-6.31,3.618-14.091,3.618c-7.784,0-14.089-1.622-14.089-3.618v-10.915
			l16.184-1.077l11.742,1.268L408.689,268.549z"/>
		<path fill="#27140E" d="M394.6,274.564c-3.869,0-16.487-0.432-16.487-6.016v-10.915c0-1.263,0.979-2.311,2.238-2.395l16.186-1.077
			c0.142-0.008,0.276-0.004,0.419,0.01l11.738,1.268c1.198,0.127,2.114,1.125,2.142,2.326l0.253,10.728
			C411.087,274.133,398.467,274.564,394.6,274.564z M382.908,267.949c1.194,0.723,5.281,1.82,11.69,1.82
			c6.385,0,10.464-1.088,11.68-1.813l-0.188-7.976l-9.442-1.02l-13.738,0.915L382.908,267.949L382.908,267.949z"/>
	</g>
	<g>
		<path fill="#C12026" d="M408.372,257.634c0,1.992-6.309,3.613-14.09,3.613c-7.778,0-14.091-1.621-14.091-3.613
			c0-1.999,6.312-3.62,14.091-3.62C402.062,254.014,408.372,255.635,408.372,257.634z"/>
		<path fill="#27140E" d="M394.282,263.646c-3.867,0-16.488-0.434-16.488-6.013c0-5.586,12.621-6.018,16.488-6.018
			c3.87,0,16.487,0.432,16.487,6.018C410.771,263.213,398.152,263.646,394.282,263.646z M384.057,257.634
			c1.961,0.608,5.449,1.216,10.227,1.216c4.779,0,8.265-0.606,10.228-1.216c-1.963-0.61-5.447-1.223-10.228-1.223
			C389.506,256.412,386.018,257.023,384.057,257.634z"/>
	</g>
	<g>
		<path fill="#861719" d="M373.781,278.766c0,2-6.312,3.617-14.09,3.617c-7.781,0-14.09-1.617-14.09-3.617V267.85l16.184-1.076
			l11.743,1.268L373.781,278.766z"/>
		<path fill="#27140E" d="M359.691,284.781c-3.87,0-16.488-0.432-16.488-6.016V267.85c0-1.263,0.979-2.31,2.239-2.394l16.185-1.077
			c0.142-0.008,0.276-0.008,0.415,0.01l11.742,1.268c1.2,0.128,2.115,1.123,2.142,2.33l0.254,10.723
			C376.18,284.35,363.559,284.781,359.691,284.781z M348,278.169c1.195,0.722,5.281,1.815,11.691,1.815
			c6.384,0,10.463-1.084,11.679-1.811l-0.188-7.977l-9.442-1.018L348,270.093V278.169z"/>
	</g>
	<g>
		<path fill="#C12026" d="M373.465,267.85c0,1.998-6.31,3.618-14.091,3.618s-14.091-1.62-14.091-3.618
			c0-1.994,6.31-3.617,14.091-3.617S373.465,265.855,373.465,267.85z"/>
		<path fill="#27140E" d="M359.374,273.866c-3.87,0-16.488-0.433-16.488-6.017c0-5.582,12.618-6.015,16.488-6.015
			c3.867,0,16.488,0.433,16.488,6.015C375.862,273.434,363.241,273.866,359.374,273.866z M349.144,267.85
			c1.96,0.611,5.451,1.221,10.23,1.221c4.78,0,8.268-0.608,10.23-1.221c-1.964-0.609-5.45-1.22-10.23-1.22
			C354.595,266.63,351.104,267.24,349.144,267.85z"/>
	</g>
	<g>
		<path fill="#CDAD2C" d="M166.562,275.486c0,1.996-6.312,3.619-14.091,3.619c-7.784,0-14.089-1.623-14.089-3.619v-10.918
			l16.183-1.074l11.74,1.267L166.562,275.486z"/>
		<path fill="#27140E" d="M152.472,281.502c-3.87,0-16.487-0.434-16.487-6.016v-10.918c0-1.264,0.979-2.312,2.235-2.396
			l16.184-1.074c0.146-0.004,0.281-0.006,0.42,0.012l11.739,1.267c1.199,0.132,2.114,1.125,2.141,2.33l0.254,10.724
			C168.96,281.07,156.336,281.502,152.472,281.502z M140.78,274.886c1.195,0.722,5.282,1.82,11.691,1.82
			c6.384,0,10.463-1.088,11.676-1.813l-0.188-7.972l-9.443-1.022l-13.735,0.912L140.78,274.886L140.78,274.886z"/>
	</g>
	<g>
		<path fill="#ECE82D" d="M166.242,264.568c0,1.996-6.306,3.621-14.087,3.621c-7.781,0-14.095-1.625-14.095-3.621
			s6.313-3.616,14.095-3.616C159.937,260.952,166.242,262.572,166.242,264.568z"/>
		<path fill="#27140E" d="M152.155,270.587c-3.87,0-16.492-0.435-16.492-6.019s12.622-6.017,16.492-6.017
			c3.863,0,16.484,0.433,16.484,6.017C168.64,270.154,156.019,270.587,152.155,270.587z M141.921,264.572
			c1.966,0.607,5.451,1.218,10.234,1.218c4.775,0,8.267-0.61,10.227-1.218c-1.96-0.612-5.451-1.223-10.227-1.223
			C147.372,263.35,143.887,263.959,141.921,264.572z"/>
	</g>
	<g>
		<path fill="#CDAD2C" d="M138.633,263.049c0,1.995-6.31,3.616-14.091,3.616s-14.09-1.621-14.09-3.616v-10.92l16.185-1.074
			l11.746,1.271L138.633,263.049z"/>
		<path fill="#27140E" d="M124.542,269.062c-3.867,0-16.488-0.432-16.488-6.014v-10.92c0-1.264,0.979-2.31,2.239-2.395l16.188-1.074
			c0.135-0.003,0.277-0.003,0.415,0.011l11.743,1.269c1.195,0.129,2.111,1.125,2.142,2.328l0.25,10.725
			C141.033,268.631,128.412,269.062,124.542,269.062z M112.85,262.447c1.198,0.727,5.285,1.82,11.692,1.82
			c6.383,0,10.467-1.088,11.68-1.813l-0.19-7.972l-9.442-1.02l-13.739,0.909L112.85,262.447L112.85,262.447z"/>
	</g>
	<g>
		<path fill="#ECE82D" d="M138.314,252.129c0,2-6.31,3.617-14.09,3.617c-7.778,0-14.09-1.617-14.09-3.617
			c0-1.996,6.312-3.617,14.09-3.617C132.005,248.512,138.314,250.133,138.314,252.129z"/>
		<path fill="#27140E" d="M124.225,258.145c-3.864,0-16.487-0.433-16.487-6.016c0-5.579,12.623-6.015,16.487-6.015
			c3.87,0,16.491,0.436,16.491,6.015C140.716,257.712,128.095,258.145,124.225,258.145z M114.001,252.129
			c1.963,0.611,5.448,1.221,10.224,1.221c4.781,0,8.268-0.608,10.227-1.221c-1.959-0.607-5.448-1.219-10.227-1.219
			C119.449,250.911,115.964,251.521,114.001,252.129z"/>
	</g>
	<g>
		<path fill="#861719" d="M230.485,201.791c0,2.051-6.474,3.713-14.465,3.713c-7.984,0-14.458-1.662-14.458-3.713v-11.203
			l16.612-1.105l12.051,1.3L230.485,201.791z"/>
		<path fill="#27140E" d="M216.021,207.901c-3.951,0-16.856-0.439-16.856-6.111v-11.203c0-1.263,0.979-2.31,2.239-2.393
			l16.609-1.106c0.143-0.007,0.28-0.004,0.419,0.009l12.051,1.302c1.195,0.128,2.113,1.123,2.141,2.327l0.26,11.009
			C232.883,207.462,219.979,207.901,216.021,207.901z M203.96,201.211c1.202,0.75,5.413,1.895,12.061,1.895
			c6.63,0,10.835-1.137,12.053-1.886l-0.195-8.279l-9.75-1.052l-14.168,0.942L203.96,201.211L203.96,201.211z"/>
	</g>
	<g>
		<path fill="#C12026" d="M230.161,190.587c0,2.049-6.475,3.712-14.465,3.712c-7.984,0-14.462-1.663-14.462-3.712
			c0-2.051,6.478-3.713,14.462-3.713C223.687,186.874,230.161,188.536,230.161,190.587z"/>
		<path fill="#27140E" d="M215.696,196.697c-3.951,0-16.86-0.441-16.86-6.11c0-5.672,12.909-6.111,16.86-6.111
			c3.958,0,16.862,0.439,16.862,6.111C232.559,196.256,219.654,196.697,215.696,196.697z M204.99,190.586
			c1.982,0.649,5.636,1.315,10.706,1.315c5.072,0,8.728-0.667,10.709-1.315c-1.981-0.646-5.634-1.314-10.709-1.314
			C210.623,189.272,206.973,189.939,204.99,190.586z"/>
	</g>
	<g>
		<path fill="#861719" d="M265.141,190.328c0,2.048-6.479,3.711-14.457,3.711c-7.988,0-14.468-1.664-14.468-3.711v-11.207
			l16.611-1.104l12.056,1.3L265.141,190.328z"/>
		<path fill="#27140E" d="M250.684,196.437c-3.957,0-16.865-0.44-16.865-6.109v-11.207c0-1.261,0.979-2.309,2.242-2.391l16.61-1.106
			c0.136-0.009,0.272-0.009,0.415,0.008l12.055,1.3c1.198,0.13,2.114,1.126,2.142,2.328l0.26,11.009
			C267.541,195.997,254.639,196.437,250.684,196.437z M238.618,189.747c1.199,0.75,5.413,1.895,12.063,1.895
			c6.623,0,10.828-1.137,12.047-1.886l-0.193-8.278l-9.758-1.054l-14.159,0.941V189.747z"/>
	</g>
	<g>
		<path fill="#C12026" d="M264.812,179.122c0,2.05-6.469,3.713-14.458,3.713c-7.984,0-14.463-1.663-14.463-3.713
			c0-2.052,6.479-3.713,14.463-3.713C258.346,175.408,264.812,177.07,264.812,179.122z"/>
		<path fill="#27140E" d="M250.354,185.233c-3.959,0-16.863-0.439-16.863-6.111c0-5.67,12.904-6.111,16.863-6.111
			c3.955,0,16.858,0.44,16.858,6.111C267.213,184.793,254.311,185.233,250.354,185.233z M239.644,179.122
			c1.984,0.649,5.637,1.315,10.711,1.315c5.072,0,8.728-0.667,10.709-1.315c-1.981-0.648-5.638-1.313-10.709-1.313
			C245.277,177.808,241.628,178.474,239.644,179.122z"/>
	</g>
	<g>
		<path fill="#861719" d="M299.798,180.947c0,2.048-6.478,3.713-14.461,3.713c-7.987,0-14.463-1.665-14.463-3.713v-11.206
			l16.61-1.106l12.054,1.304L299.798,180.947z"/>
		<path fill="#27140E" d="M285.337,187.059c-3.955,0-16.86-0.44-16.86-6.111v-11.206c0-1.264,0.98-2.31,2.239-2.394l16.61-1.105
			c0.142-0.009,0.279-0.005,0.418,0.008l12.051,1.304c1.194,0.129,2.115,1.125,2.141,2.327l0.262,11.008
			C302.196,186.618,289.291,187.059,285.337,187.059z M273.271,180.366c1.203,0.75,5.414,1.895,12.064,1.895
			c6.626,0,10.827-1.136,12.05-1.886l-0.196-8.278l-9.752-1.056l-14.166,0.943V180.366L273.271,180.366z"/>
	</g>
	<g>
		<path fill="#C12026" d="M299.47,169.741c0,2.052-6.474,3.713-14.458,3.713c-7.986,0-14.464-1.661-14.464-3.713
			c0-2.052,6.478-3.713,14.464-3.713C292.996,166.028,299.47,167.689,299.47,169.741z"/>
		<path fill="#27140E" d="M285.012,175.853c-3.957,0-16.861-0.439-16.861-6.111c0-5.672,12.904-6.112,16.861-6.112
			c3.955,0,16.856,0.439,16.856,6.112C301.868,175.413,288.967,175.853,285.012,175.853z M274.299,169.741
			c1.979,0.648,5.639,1.315,10.713,1.315s8.729-0.667,10.707-1.315c-1.979-0.65-5.633-1.315-10.707-1.315
			S276.281,169.091,274.299,169.741z"/>
	</g>
	<g>
		<path fill="#861719" d="M334.974,171.827c0,2.05-6.474,3.711-14.458,3.711c-7.986,0-14.467-1.661-14.467-3.711v-11.206
			l16.614-1.106l12.049,1.303L334.974,171.827z"/>
		<path fill="#27140E" d="M320.516,177.938c-3.955,0-16.863-0.441-16.863-6.111v-11.206c0-1.262,0.979-2.309,2.238-2.392
			l16.613-1.108c0.139-0.009,0.28-0.009,0.415,0.008l12.052,1.306c1.198,0.128,2.113,1.125,2.142,2.327l0.26,11.006
			C337.371,177.497,324.471,177.938,320.516,177.938z M308.448,171.246c1.202,0.751,5.413,1.895,12.066,1.895
			c6.626,0,10.828-1.135,12.046-1.887l-0.195-8.278l-9.753-1.055l-14.164,0.944V171.246L308.448,171.246z"/>
	</g>
	<g>
		<ellipse fill="#C12026" cx="320.189" cy="160.621" rx="14.459" ry="3.713"/>
		<path fill="#27140E" d="M320.188,166.732c-3.954,0-16.855-0.441-16.855-6.111c0-5.673,12.901-6.112,16.855-6.112
			c3.955,0,16.858,0.439,16.858,6.112C337.046,166.291,324.143,166.732,320.188,166.732z M309.478,160.621
			c1.983,0.648,5.637,1.315,10.71,1.315c5.072,0,8.729-0.667,10.711-1.315c-1.982-0.65-5.639-1.315-10.711-1.315
			C315.113,159.306,311.461,159.971,309.478,160.621z"/>
	</g>
	<g>
		<path fill="#861719" d="M305.79,157.495c0,2.052-6.471,3.713-14.462,3.713c-7.987,0-14.458-1.661-14.458-3.713v-11.206
			l16.608-1.104l12.051,1.304L305.79,157.495z"/>
		<path fill="#27140E" d="M291.328,163.606c-3.955,0-16.855-0.441-16.855-6.111v-11.206c0-1.262,0.979-2.309,2.238-2.391
			l16.609-1.106c0.14-0.009,0.277-0.007,0.414,0.008l12.056,1.303c1.195,0.129,2.11,1.125,2.137,2.327l0.262,11.007
			C308.188,163.166,295.287,163.606,291.328,163.606z M279.268,156.916c1.199,0.75,5.41,1.894,12.062,1.894
			c6.63,0,10.831-1.135,12.05-1.885l-0.191-8.278l-9.758-1.055l-14.16,0.942v8.382H279.268z"/>
	</g>
	<g>
		<path fill="#C12026" d="M305.462,146.289c0,2.052-6.471,3.713-14.455,3.713c-7.989,0-14.465-1.661-14.465-3.713
			c0-2.048,6.476-3.713,14.465-3.713C298.991,142.576,305.462,144.241,305.462,146.289z"/>
		<path fill="#27140E" d="M291.007,152.4c-3.954,0-16.862-0.439-16.862-6.111c0-5.671,12.908-6.111,16.862-6.111
			c3.952,0,16.854,0.44,16.854,6.111C307.859,151.961,294.959,152.4,291.007,152.4z M280.298,146.289
			c1.979,0.65,5.634,1.315,10.709,1.315c5.072,0,8.726-0.665,10.703-1.315c-1.979-0.649-5.634-1.314-10.703-1.314
			C285.936,144.975,282.277,145.64,280.298,146.289z"/>
	</g>
	<g>
		<path fill="#29337A" d="M135.396,149.697c0,2.096-6.619,3.796-14.781,3.796c-8.168,0-14.788-1.7-14.788-3.796v-11.458
			l16.985-1.128l12.32,1.329L135.396,149.697z"/>
		<path fill="#27140E" d="M120.615,155.891c-4.033,0-17.186-0.446-17.186-6.194v-11.458c0-1.262,0.978-2.309,2.24-2.393l16.98-1.128
			c0.142-0.01,0.277-0.007,0.419,0.008l12.32,1.331c1.195,0.128,2.115,1.123,2.141,2.327l0.264,11.256
			C137.798,155.445,124.643,155.891,120.615,155.891z M108.227,149.134c1.206,0.771,5.521,1.959,12.389,1.959
			c6.839,0,11.15-1.179,12.373-1.951l-0.203-8.544l-10.022-1.081l-14.536,0.966L108.227,149.134L108.227,149.134z"/>
	</g>
	<g>
		<ellipse fill="#495DAA" cx="120.279" cy="138.239" rx="14.786" ry="3.796"/>
		<path fill="#27140E" d="M120.279,144.433c-4.033,0-17.184-0.446-17.184-6.194c0-5.747,13.15-6.192,17.184-6.192
			c4.032,0,17.185,0.446,17.185,6.192C137.464,143.987,124.312,144.433,120.279,144.433z M109.161,138.239
			c1.993,0.682,5.789,1.397,11.118,1.397c5.33,0,9.126-0.716,11.118-1.397c-1.992-0.683-5.788-1.396-11.118-1.396
			C114.95,136.843,111.154,137.556,109.161,138.239z"/>
	</g>
	<g>
		<path fill="#29337A" d="M172.162,139.838c0,2.097-6.619,3.796-14.783,3.796c-8.169,0-14.785-1.699-14.785-3.796v-11.456
			l16.984-1.13l12.32,1.332L172.162,139.838z"/>
		<path fill="#27140E" d="M157.379,146.034c-4.028,0-17.183-0.447-17.183-6.195v-11.456c0-1.264,0.976-2.311,2.239-2.393
			l16.981-1.13c0.141-0.01,0.283-0.007,0.418,0.008l12.319,1.333c1.199,0.128,2.115,1.125,2.142,2.327l0.265,11.255
			C174.561,145.586,161.408,146.034,157.379,146.034z M144.992,139.276c1.205,0.771,5.522,1.96,12.387,1.96
			c6.84,0,11.152-1.179,12.372-1.952l-0.196-8.542l-10.027-1.083l-14.535,0.966L144.992,139.276L144.992,139.276z"/>
	</g>
	<g>
		<path fill="#495DAA" d="M171.831,128.383c0,2.097-6.619,3.797-14.786,3.797c-8.162,0-14.785-1.7-14.785-3.797
			c0-2.096,6.623-3.797,14.785-3.797C165.212,124.586,171.831,126.287,171.831,128.383z"/>
		<path fill="#27140E" d="M157.045,134.578c-4.032,0-17.184-0.447-17.184-6.195c0-5.749,13.151-6.194,17.184-6.194
			c4.033,0,17.185,0.446,17.185,6.194C174.229,134.131,161.078,134.578,157.045,134.578z M145.927,128.383
			c1.993,0.682,5.789,1.398,11.118,1.398c5.33,0,9.126-0.716,11.122-1.398c-1.996-0.682-5.792-1.398-11.122-1.398
			C151.716,126.984,147.92,127.701,145.927,128.383z"/>
	</g>
	<g>
		<path fill="#29337A" d="M207.864,128.383c0,2.097-6.623,3.797-14.786,3.797s-14.786-1.7-14.786-3.797v-11.457l16.984-1.131
			l12.324,1.333L207.864,128.383z"/>
		<path fill="#27140E" d="M193.078,134.578c-4.028,0-17.185-0.447-17.185-6.195v-11.457c0-1.261,0.98-2.309,2.24-2.393l16.983-1.131
			c0.139-0.007,0.281-0.005,0.416,0.008l12.326,1.333c1.197,0.131,2.109,1.127,2.139,2.329l0.265,11.255
			C210.263,134.131,197.11,134.578,193.078,134.578z M180.69,127.82c1.205,0.773,5.521,1.961,12.388,1.961
			c6.84,0,11.151-1.181,12.375-1.952l-0.199-8.543l-10.024-1.084l-14.539,0.969L180.69,127.82L180.69,127.82z"/>
	</g>
	<g>
		<path fill="#495DAA" d="M207.528,116.926c0,2.096-6.617,3.796-14.781,3.796c-8.17,0-14.79-1.7-14.79-3.796
			c0-2.096,6.62-3.796,14.79-3.796C200.911,113.13,207.528,114.831,207.528,116.926z"/>
		<path fill="#27140E" d="M192.747,123.12c-4.031,0-17.188-0.445-17.188-6.194c0-5.748,13.156-6.194,17.188-6.194
			c4.028,0,17.181,0.446,17.181,6.194C209.928,122.675,196.775,123.12,192.747,123.12z M181.626,116.926
			c1.995,0.682,5.792,1.398,11.121,1.398s9.122-0.716,11.117-1.398c-1.995-0.682-5.788-1.398-11.117-1.398
			S183.621,116.244,181.626,116.926z"/>
	</g>
	<g>
		<path fill="#29337A" d="M241.965,118.259c0,2.098-6.62,3.796-14.786,3.796c-8.167,0-14.785-1.698-14.785-3.796v-11.456
			l16.983-1.131l12.324,1.333L241.965,118.259z"/>
		<path fill="#27140E" d="M227.179,124.453c-4.032,0-17.184-0.446-17.184-6.194v-11.456c0-1.264,0.979-2.311,2.239-2.394
			l16.984-1.13c0.142-0.006,0.28-0.006,0.415,0.009l12.325,1.333c1.194,0.128,2.109,1.124,2.141,2.327l0.263,11.254
			C244.362,124.007,231.212,124.453,227.179,124.453z M214.791,117.696c1.202,0.772,5.525,1.961,12.388,1.961
			c6.839,0,11.153-1.179,12.374-1.953l-0.202-8.541l-10.024-1.086l-14.535,0.967L214.791,117.696L214.791,117.696z"/>
	</g>
	<g>
		<ellipse fill="#495DAA" cx="226.847" cy="106.803" rx="14.784" ry="3.796"/>
		<path fill="#27140E" d="M226.848,112.999c-4.032,0-17.188-0.447-17.188-6.195c0-5.749,13.155-6.196,17.188-6.196
			c4.03,0,17.184,0.447,17.184,6.196C244.031,112.551,230.878,112.999,226.848,112.999z M215.727,106.803
			c1.996,0.682,5.792,1.398,11.121,1.398c5.33,0,9.126-0.716,11.119-1.398c-1.997-0.683-5.789-1.397-11.119-1.397
			C221.519,105.405,217.723,106.121,215.727,106.803z"/>
	</g>
	<g>
		<path fill="#29337A" d="M212.126,106.271c0,2.096-6.619,3.796-14.783,3.796c-8.169,0-14.789-1.7-14.789-3.796V94.813l16.984-1.13
			l12.322,1.333L212.126,106.271z"/>
		<path fill="#27140E" d="M197.343,112.465c-4.031,0-17.187-0.445-17.187-6.194V94.813c0-1.262,0.979-2.309,2.239-2.392l16.985-1.13
			c0.138-0.008,0.278-0.006,0.415,0.007l12.323,1.333c1.199,0.128,2.11,1.125,2.139,2.327l0.267,11.257
			C214.524,112.02,201.372,112.465,197.343,112.465z M184.951,105.708c1.206,0.772,5.522,1.961,12.392,1.961
			c6.836,0,11.149-1.181,12.373-1.953l-0.2-8.543l-10.024-1.084l-14.54,0.967L184.951,105.708L184.951,105.708z"/>
	</g>
	<g>
		<path fill="#495DAA" d="M211.792,94.813c0,2.097-6.62,3.796-14.786,3.796c-8.16,0-14.786-1.699-14.786-3.796
			s6.626-3.796,14.786-3.796C205.172,91.017,211.792,92.716,211.792,94.813z"/>
		<path fill="#27140E" d="M197.006,101.009c-4.032,0-17.184-0.447-17.184-6.195s13.151-6.194,17.184-6.194
			c4.033,0,17.184,0.446,17.184,6.194S201.038,101.009,197.006,101.009z M185.888,94.813c1.992,0.682,5.789,1.398,11.118,1.398
			s9.125-0.716,11.121-1.398c-1.996-0.681-5.792-1.398-11.121-1.398S187.88,94.133,185.888,94.813z"/>
	</g>
	<g>
		<path fill="#29337A" d="M176.961,116.127c0,2.096-6.623,3.796-14.789,3.796c-8.165,0-14.785-1.7-14.785-3.796v-11.456
			l16.983-1.131l12.324,1.333L176.961,116.127z"/>
		<path fill="#27140E" d="M162.172,122.321c-4.029,0-17.183-0.445-17.183-6.194v-11.456c0-1.263,0.978-2.31,2.241-2.393l16.981-1.13
			c0.139-0.008,0.28-0.006,0.419,0.008l12.321,1.331c1.194,0.128,2.113,1.125,2.141,2.327l0.263,11.255
			C179.358,121.876,166.205,122.321,162.172,122.321z M149.787,115.565c1.205,0.772,5.522,1.96,12.385,1.96
			c6.843,0,11.153-1.18,12.377-1.952l-0.205-8.543l-10.024-1.084l-14.532,0.967L149.787,115.565L149.787,115.565z"/>
	</g>
	<g>
		<ellipse fill="#495DAA" cx="161.841" cy="104.672" rx="14.786" ry="3.796"/>
		<path fill="#27140E" d="M161.841,110.866c-4.032,0-17.184-0.446-17.184-6.194s13.151-6.196,17.184-6.196
			c4.033,0,17.184,0.448,17.184,6.196S165.874,110.866,161.841,110.866z M150.723,104.672c1.993,0.68,5.788,1.398,11.118,1.398
			c5.33,0,9.125-0.718,11.119-1.398c-1.994-0.682-5.789-1.398-11.119-1.398C156.511,103.274,152.716,103.99,150.723,104.672z"/>
	</g>
	<g>
		<path fill="#29337A" d="M140.196,127.05c0,2.097-6.623,3.798-14.786,3.798c-8.17,0-14.79-1.701-14.79-3.798v-11.456l16.988-1.13
			l12.321,1.33L140.196,127.05z"/>
		<path fill="#27140E" d="M125.41,133.246c-4.032,0-17.188-0.448-17.188-6.195v-11.456c0-1.264,0.979-2.311,2.243-2.394
			l16.979-1.128c0.144-0.01,0.278-0.007,0.42,0.008l12.323,1.329c1.196,0.131,2.111,1.125,2.139,2.33l0.263,11.254
			C142.594,132.798,129.439,133.246,125.41,133.246z M113.019,126.489c1.205,0.771,5.524,1.961,12.392,1.961
			c6.839,0,11.151-1.181,12.375-1.954l-0.199-8.543l-10.028-1.082l-14.539,0.965L113.019,126.489L113.019,126.489z"/>
	</g>
	<g>
		<ellipse fill="#495DAA" cx="125.076" cy="115.595" rx="14.786" ry="3.797"/>
		<path fill="#27140E" d="M125.076,121.79c-4.033,0-17.185-0.448-17.185-6.195c0-5.747,13.151-6.194,17.185-6.194
			c4.032,0,17.184,0.447,17.184,6.194C142.26,121.342,129.108,121.79,125.076,121.79z M113.958,115.596
			c1.991,0.681,5.788,1.398,11.118,1.398c5.328,0,9.124-0.717,11.117-1.398c-1.993-0.682-5.789-1.398-11.117-1.398
			C119.746,114.198,115.949,114.914,113.958,115.596z"/>
	</g>
	<g>
		<path fill="#29337A" d="M103.697,136.375c0,2.096-6.62,3.796-14.786,3.796s-14.786-1.701-14.786-3.796v-11.456l16.981-1.131
			l12.323,1.333L103.697,136.375z"/>
		<path fill="#27140E" d="M88.911,142.569c-4.032,0-17.184-0.446-17.184-6.194v-11.456c0-1.263,0.979-2.31,2.236-2.393l16.984-1.13
			c0.138-0.01,0.28-0.008,0.415,0.009l12.327,1.331c1.195,0.128,2.107,1.125,2.137,2.329l0.265,11.254
			C106.095,142.123,92.939,142.569,88.911,142.569z M76.523,135.812c1.202,0.772,5.522,1.96,12.388,1.96
			c6.836,0,11.152-1.178,12.374-1.952l-0.202-8.543l-10.024-1.084l-14.535,0.967L76.523,135.812L76.523,135.812z"/>
	</g>
	<g>
		<ellipse fill="#495DAA" cx="88.575" cy="124.918" rx="14.784" ry="3.797"/>
		<path fill="#27140E" d="M88.576,131.113c-4.028,0-17.184-0.446-17.184-6.194s13.155-6.195,17.184-6.195
			c4.029,0,17.182,0.447,17.182,6.195S92.605,131.113,88.576,131.113z M77.455,124.918c1.996,0.681,5.792,1.398,11.121,1.398
			c5.331,0,9.122-0.717,11.118-1.398c-1.996-0.682-5.787-1.398-11.118-1.398C83.247,123.521,79.451,124.236,77.455,124.918z"/>
	</g>
	<g>
		<polygon fill="#861719" points="321.571,279.154 393.374,310.872 392.935,351.837 383.685,360.212 319.805,334.66 		"/>
		<path fill="#27140E" d="M383.685,362.611c-0.301,0-0.604-0.062-0.892-0.176l-63.875-25.547c-0.936-0.379-1.541-1.298-1.508-2.311
			l1.764-55.502c0.024-0.793,0.446-1.526,1.121-1.952c0.673-0.425,1.514-0.485,2.247-0.165l71.802,31.717
			c0.875,0.393,1.438,1.264,1.429,2.223l-0.438,40.965c-0.007,0.669-0.294,1.305-0.79,1.757l-9.251,8.37
			C384.843,362.395,384.265,362.611,383.685,362.611z M322.258,333.059l60.927,24.371l7.363-6.668l0.411-38.332l-67.104-29.645
			L322.258,333.059z"/>
	</g>
	<g>
		<polygon fill="#B11F24" points="384.124,305.583 383.685,360.212 462.096,336.861 462.096,280.475 		"/>
		<path fill="#27140E" d="M383.685,362.611c-0.515,0-1.022-0.17-1.44-0.486c-0.609-0.453-0.964-1.177-0.957-1.932l0.438-54.629
			c0.01-1.035,0.68-1.944,1.661-2.266l77.974-25.109c0.732-0.232,1.529-0.104,2.147,0.345c0.621,0.452,0.985,1.175,0.985,1.94
			v56.387c0,1.061-0.699,2-1.715,2.298l-78.412,23.35C384.144,362.577,383.913,362.611,383.685,362.611z M386.507,307.334
			l-0.399,49.648l73.592-21.912v-51.303L386.507,307.334z"/>
	</g>
	<g>
		<polygon fill="#861719" points="164.745,205.147 207.914,222.328 216.287,245.675 199.106,275.189 136.112,250.521 
			136.553,213.516 		"/>
		<path fill="#27140E" d="M199.106,277.588c-0.294,0-0.59-0.056-0.878-0.166l-62.994-24.672c-0.925-0.361-1.534-1.26-1.52-2.259
			l0.438-37.003c0.014-1.052,0.71-1.973,1.717-2.272l28.193-8.369c0.513-0.155,1.067-0.128,1.566,0.071l43.173,17.181
			c0.639,0.255,1.138,0.77,1.371,1.419l8.372,23.347c0.237,0.668,0.17,1.405-0.189,2.016l-17.176,29.516
			C200.738,277.152,199.938,277.588,199.106,277.588z M138.53,248.894l59.537,23.314l15.585-26.772l-7.629-21.281l-41.393-16.473
			l-25.702,7.629L138.53,248.894z"/>
	</g>
	<g>
		<polygon fill="#C12026" points="357.692,172.988 357.692,225.854 199.106,275.189 199.547,219.241 		"/>
		<path fill="#27140E" d="M199.106,277.588c-0.51,0-1.014-0.162-1.432-0.474c-0.615-0.46-0.972-1.179-0.966-1.945l0.438-55.947
			c0.009-1.057,0.711-1.986,1.724-2.283l158.149-46.252c0.721-0.213,1.507-0.071,2.11,0.383c0.604,0.453,0.959,1.164,0.959,1.918
			v52.866c0,1.047-0.683,1.976-1.685,2.29l-158.59,49.334C199.587,277.55,199.343,277.588,199.106,277.588z M201.93,221.044
			l-0.397,50.879l153.762-47.84v-47.895L201.93,221.044z"/>
	</g>
	<g>
		<polygon fill="#CDAD2C" points="88.094,264.616 163.421,297.216 159.896,337.3 150.648,345.23 87.215,319.684 		"/>
		<path fill="#27140E" d="M150.648,347.629c-0.303,0-0.608-0.056-0.898-0.176l-63.433-25.546c-0.919-0.371-1.517-1.272-1.5-2.263
			l0.878-55.066c0.015-0.801,0.427-1.544,1.098-1.977c0.672-0.439,1.517-0.504,2.253-0.187l75.328,32.599
			c0.949,0.409,1.525,1.381,1.438,2.411l-3.525,40.091c-0.055,0.62-0.352,1.195-0.827,1.607l-9.25,7.93
			C151.764,347.432,151.209,347.629,150.648,347.629z M89.637,318.075l60.556,24.386l7.4-6.342l3.29-37.391l-70.445-30.485
			L89.637,318.075z"/>
	</g>
	<g>
		<polygon fill="#F2D21F" points="150.648,290.607 150.648,345.23 309.235,296.775 308.795,239.947 		"/>
		<path fill="#27140E" d="M150.648,347.629c-0.507,0-1.01-0.163-1.426-0.475c-0.614-0.452-0.972-1.161-0.972-1.924v-54.625
			c0-1.043,0.672-1.965,1.665-2.282l158.15-50.663c0.726-0.229,1.52-0.104,2.134,0.345c0.618,0.445,0.985,1.161,0.993,1.924
			l0.438,56.824c0.006,1.06-0.68,2.003-1.695,2.313l-158.589,48.451C151.118,347.596,150.886,347.629,150.648,347.629z
			 M153.046,292.355v49.633l153.777-46.983l-0.399-51.778L153.046,292.355z"/>
	</g>
	<g>
		<polygon fill="#29337A" points="123.775,176.072 111.884,164.619 48.886,139.509 48.005,196.336 111.445,221.443 131.266,195.455 
					"/>
		<path fill="#27140E" d="M111.441,223.841c-0.293,0-0.595-0.055-0.883-0.169l-63.435-25.107c-0.93-0.366-1.531-1.27-1.517-2.266
			l0.881-56.827c0.015-0.789,0.411-1.521,1.07-1.959c0.655-0.437,1.485-0.525,2.216-0.231l62.994,25.111
			c0.291,0.115,0.553,0.284,0.777,0.5l11.895,11.452c0.25,0.244,0.446,0.537,0.574,0.863l7.487,19.383
			c0.301,0.778,0.176,1.656-0.327,2.318L113.348,222.9C112.884,223.506,112.174,223.841,111.441,223.841z M50.431,194.716
			l60.206,23.831l17.91-23.479l-6.814-17.636l-11.174-10.758l-59.325-23.648L50.431,194.716z"/>
	</g>
	<g>
		<polygon fill="#32469D" points="111.884,164.619 270.471,118.804 270.471,170.346 111.445,221.443 		"/>
		<path fill="#27140E" d="M111.445,223.841c-0.507,0-1.008-0.156-1.423-0.466c-0.618-0.453-0.983-1.182-0.98-1.949l0.443-56.827
			c0.007-1.061,0.714-1.989,1.729-2.285l158.589-45.812c0.719-0.208,1.502-0.066,2.104,0.386c0.604,0.453,0.959,1.164,0.959,1.917
			v51.542c0,1.042-0.673,1.966-1.665,2.283l-159.028,51.098C111.938,223.807,111.688,223.841,111.445,223.841z M114.268,166.427
			l-0.401,51.72l154.205-49.548v-46.605L114.268,166.427z"/>
	</g>
</g>
</svg>
