<?xml version="1.0" encoding="utf-8"?>
<!-- Generator: Adobe Illustrator 16.0.0, SVG Export Plug-In . SVG Version: 6.00 Build 0)  -->
<!DOCTYPE svg PUBLIC "-//W3C//DTD SVG 1.1//EN" "http://www.w3.org/Graphics/SVG/1.1/DTD/svg11.dtd">
<svg version="1.1" id="Layer_1" xmlns="http://www.w3.org/2000/svg" xmlns:xlink="http://www.w3.org/1999/xlink" x="0px" y="0px"
	 width="500px" height="500px" viewBox="0 0 500 500" enable-background="new 0 0 500 500" xml:space="preserve">
<g id="Layer_1_copy_96">
	<g>
		<path fill="#F4BE78" d="M192.236,36.469c0,0,10.622,69.05,23.977,92.451c6.04,10.58,6.974,25.7,6.974,25.7
			s36.668,144.989,22.33,193.149c-3.718,12.498-11.628,14.99-11.628,14.99l-79.536,43.913c0,0-33.921,28.325-1.821,34.032
			c32.093,5.718,64.305-6.871,68.491-8.298c4.188-1.434,43.977-14.067,51.513-14.899c18.846-2.078,35.771-14.402,29.265-30.113
			c-6.512-15.709-7.904-29.99-6.98-40.697c0.932-10.706,30.703-108.889,25.121-169.226c-2.323-53.193-17.676-30.345-15.818-78.187
			l9.98-66.023L192.236,36.469z"/>
		<path fill="#3C2517" d="M170.001,444.613L170.001,444.613c-6.226,0-12.247-0.511-17.896-1.518
			c-8.847-1.571-14.044-5.04-15.442-10.311c-3.068-11.534,14.159-26.325,16.135-27.977c0.119-0.098,0.245-0.188,0.384-0.262
			l79.535-43.91c0.142-0.08,0.288-0.143,0.44-0.191c0.252-0.088,6.774-2.418,10.032-13.368
			c13.988-46.97-21.988-190.417-22.355-191.86c-0.034-0.144-0.06-0.293-0.069-0.444c-0.008-0.146-0.979-14.701-6.659-24.651
			c-13.421-23.519-23.833-90.444-24.266-93.282c-0.105-0.689,0.09-1.391,0.534-1.926c0.447-0.535,1.102-0.85,1.8-0.871
			l121.862-3.208c0.698-0.049,1.412,0.279,1.884,0.817c0.477,0.539,0.689,1.258,0.581,1.971l-9.962,65.891
			c-0.891,23.369,2.377,29.164,6.155,35.881c3.983,7.06,8.493,15.064,9.667,41.97c4.365,47.136-12.735,117.297-20.953,151.015
			c-2.224,9.112-3.981,16.315-4.174,18.524c-0.752,8.73-0.188,22.688,6.807,39.562c2.456,5.929,2.082,11.892-1.084,17.244
			c-5.022,8.494-16.578,14.708-30.156,16.207c-7.015,0.772-45.893,13.037-50.995,14.785l-1.014,0.358
			C203.037,441.398,185.945,444.613,170.001,444.613z M155.732,408.68c-4.815,4.078-16.29,15.684-14.379,22.861
			c0.874,3.285,4.775,5.561,11.598,6.78c5.375,0.958,11.107,1.439,17.05,1.439c15.386,0,31.932-3.122,49.159-9.266l1.079-0.381
			c4.272-1.464,44.156-14.152,52.027-15.02c11.91-1.317,22.315-6.753,26.514-13.854c2.392-4.045,2.652-8.389,0.779-12.918
			c-7.371-17.779-7.961-32.564-7.154-41.838c0.224-2.576,1.839-9.213,4.289-19.254c8.153-33.463,25.127-103.095,20.831-149.538
			c-1.137-25.861-5.342-33.33-9.057-39.919c-4.148-7.367-7.739-13.732-6.771-38.583c0-0.091,0.01-0.182,0.023-0.269l9.553-63.165
			L195.07,38.822c2.129,12.981,11.754,68.754,23.246,88.889c5.907,10.346,7.127,24.47,7.277,26.525
			c2.132,8.466,36.47,146.452,22.247,194.22c-3.691,12.403-11.363,15.913-12.943,16.519L155.732,408.68z"/>
	</g>
	<g>
		<path fill="#F4BE78" d="M233.595,31.799c0,0,9.902,96.558,23.258,119.954c6.039,10.581,6.976,25.704,6.976,25.704
			s36.668,144.99,22.323,193.146c-3.719,12.496-11.62,14.989-11.62,14.989l-79.54,43.914c0,0-33.917,28.328-1.825,34.036
			c32.093,5.718,64.312-6.875,68.496-8.302c4.187-1.429,43.976-14.067,51.511-14.896c18.852-2.088,35.772-14.407,29.267-30.114
			c-6.513-15.707-7.906-29.988-6.978-40.701c0.93-10.705,30.698-108.889,25.116-169.222c-2.324-53.196-17.672-30.345-15.819-78.187
			l10.703-93.538L233.595,31.799z"/>
		<path fill="#3C2517" d="M210.636,467.451L210.636,467.451c-6.222,0-12.24-0.516-17.896-1.518
			c-8.843-1.571-14.036-5.044-15.438-10.312c-3.065-11.537,14.158-26.329,16.133-27.976c0.119-0.102,0.248-0.188,0.382-0.263
			l79.539-43.913c0.141-0.076,0.289-0.144,0.443-0.188c0.248-0.087,6.771-2.417,10.031-13.372
			c13.984-46.975-21.991-190.413-22.357-191.86c-0.035-0.143-0.061-0.293-0.067-0.44c-0.011-0.147-0.981-14.704-6.661-24.655
			c-13.457-23.571-23.155-116.948-23.564-120.912c-0.062-0.671,0.146-1.342,0.594-1.845c0.448-0.51,1.085-0.808,1.759-0.825
			l121.866-3.212c0.716-0.031,1.377,0.27,1.852,0.787c0.472,0.518,0.703,1.216,0.623,1.916l-10.703,93.534
			c-0.897,23.295,2.378,29.104,6.166,35.833c3.979,7.063,8.489,15.068,9.664,41.974c4.365,47.136-12.736,117.298-20.953,151.016
			c-2.224,9.111-3.978,16.312-4.17,18.524c-0.755,8.729-0.191,22.684,6.805,39.558c2.454,5.934,2.08,11.896-1.084,17.246
			c-5.021,8.496-16.584,14.707-30.158,16.206c-7.013,0.776-45.892,13.041-50.991,14.788l-1.02,0.357
			C243.675,464.236,226.588,467.451,210.636,467.451z M196.372,431.517c-4.813,4.079-16.292,15.68-14.38,22.861
			c0.874,3.282,4.778,5.562,11.601,6.777c5.372,0.955,11.108,1.443,17.043,1.443c15.392,0,31.932-3.122,49.162-9.271l1.084-0.384
			c4.269-1.464,44.151-14.146,52.025-15.013c11.908-1.316,22.312-6.753,26.515-13.854c2.388-4.047,2.652-8.389,0.772-12.918
			c-7.364-17.784-7.955-32.564-7.151-41.838c0.225-2.576,1.842-9.213,4.289-19.256c8.153-33.461,25.126-103.092,20.827-149.537
			c-1.129-25.864-5.34-33.33-9.052-39.921c-4.152-7.368-7.735-13.729-6.771-38.583l10.397-90.94L236.29,34.155
			c1.694,15.533,10.929,95.823,22.67,116.396c5.906,10.346,7.123,24.466,7.272,26.524c2.129,8.462,36.473,146.45,22.246,194.219
			c-3.689,12.405-11.361,15.911-12.945,16.517L196.372,431.517z"/>
	</g>
</g>
</svg>
