<?xml version="1.0" encoding="utf-8"?>
<!-- Generator: Adobe Illustrator 16.0.0, SVG Export Plug-In . SVG Version: 6.00 Build 0)  -->
<!DOCTYPE svg PUBLIC "-//W3C//DTD SVG 1.1//EN" "http://www.w3.org/Graphics/SVG/1.1/DTD/svg11.dtd">
<svg version="1.1" id="Layer_1" xmlns="http://www.w3.org/2000/svg" xmlns:xlink="http://www.w3.org/1999/xlink" x="0px" y="0px"
	 width="500px" height="500px" viewBox="0 0 500 500" enable-background="new 0 0 500 500" xml:space="preserve">
<g id="Layer_1_copy_45">
	<g>
		<g>
			<path fill="#F4BE78" d="M225.578,313.307c0,0,27.195,81.707,28.12,106.137l5.067,15.211l14.289-12.447
				c0,0-8.441-75.076-19.432-111.52c-10.991-36.439-16.98-24.459-16.98-24.459L225.578,313.307z"/>
		</g>
		<g>
			<path fill="#27140E" d="M258.766,437.094c-0.213,0-0.43-0.024-0.639-0.085c-0.791-0.213-1.417-0.808-1.675-1.581l-5.071-15.211
				c-0.07-0.221-0.115-0.451-0.123-0.683c-0.896-23.804-27.722-104.644-27.997-105.457c-0.182-0.554-0.165-1.157,0.059-1.691
				l11.062-27.079c0.241-0.502,1.788-3.404,5.029-3.404c3.469,0,8.959,2.912,16.55,28.08c10.926,36.233,19.438,111.2,19.523,111.952
				c0.084,0.799-0.221,1.59-0.822,2.114l-14.29,12.444C259.922,436.888,259.352,437.094,258.766,437.094z M256.122,418.997
				l3.803,11.413l10.562-9.196c-1.174-10.021-9.18-76.589-19.199-109.821c-7.336-24.324-11.834-24.606-11.875-24.606
				c-0.153,0-0.464,0.319-0.604,0.575l-10.626,26.037C231.23,322.62,255.014,395.197,256.122,418.997z"/>
		</g>
	</g>
	<g>
		<g>
			<path fill="#F4BE78" d="M294.872,276.386c0,0,27.041,9.517,58.387,0c11.257-3.062,56.914-8.771,56.914-8.771l13.153-11.348
				l-13.598-2.885c0,0-44.943-2.424-62.92,0c-17.979,2.424-38.596-0.146-41.22-2.998c-2.622-2.85-26.387,4.039-26.387,4.039
				L294.872,276.386z"/>
		</g>
		<g>
			<path fill="#27140E" d="M324.192,283.055L324.192,283.055c-17.517,0-29.624-4.189-30.132-4.369
				c-0.476-0.164-0.885-0.475-1.177-0.883l-15.669-21.961c-0.456-0.646-0.576-1.472-0.316-2.218
				c0.259-0.749,0.862-1.323,1.627-1.546c0.678-0.193,16.73-4.825,24.081-4.825c2.361,0,3.841,0.458,4.777,1.479
				c1.314,1.118,10.562,3.174,24.188,3.174c5.258,0,10.272-0.317,14.91-0.939c5.406-0.732,13.691-1.101,24.628-1.101
				c18.494,0,38.551,1.069,38.754,1.079c0.122,0.007,0.251,0.025,0.373,0.052l13.598,2.884c0.903,0.192,1.626,0.881,1.854,1.781
				c0.23,0.896-0.067,1.85-0.77,2.455l-13.153,11.348c-0.363,0.312-0.814,0.512-1.292,0.574c-0.454,0.055-45.61,5.717-56.573,8.7
				C344.492,281.594,334.479,283.055,324.192,283.055z M296.393,274.311c2.783,0.862,13.492,3.862,27.801,3.862l0,0
				c9.804,0,19.345-1.389,28.356-4.125c10.705-2.911,50.462-7.989,56.588-8.76l8.867-7.652l-8.592-1.825
				c-2.079-0.105-20.898-1.062-38.303-1.062c-10.717,0-18.78,0.354-23.976,1.058c-4.854,0.651-10.09,0.984-15.562,0.984
				c-7.938,0-23.695-0.955-27.562-4.534c-0.171-0.044-0.588-0.118-1.402-0.118c-4.781,0-14.326,2.359-19.385,3.713L296.393,274.311z
				"/>
		</g>
	</g>
	<g>
		<path fill="#3059A7" d="M220.972,312.503c0,0,25.346,3.228,35.49-3.229l-4.149-34.567l39.646,8.759l14.748-35.787
			c0,0-24.429-0.173-45.169-8.928c-20.746-8.752-50.706-6.453-50.706-6.453v26.289L220.972,312.503z"/>
		<path fill="#27140E" d="M234.912,315.751c-0.004,0-0.004,0-0.004,0c-7.669,0-13.981-0.791-14.245-0.825
			c-1.052-0.135-1.895-0.932-2.091-1.974l-10.142-53.913c-0.026-0.148-0.044-0.3-0.044-0.454v-26.289
			c0-1.274,0.983-2.334,2.255-2.434c0.147-0.01,3.716-0.278,9.262-0.278c11.948,0,29.034,1.2,42.582,6.92
			c20.033,8.453,44.001,8.731,44.237,8.731c0.814,0.007,1.567,0.417,2.019,1.094c0.446,0.674,0.527,1.53,0.223,2.279l-14.747,35.785
			c-0.454,1.096-1.626,1.703-2.784,1.453l-36.281-8.019l3.736,31.157c0.113,0.932-0.32,1.847-1.113,2.352
			C253.17,314.268,245.476,315.751,234.912,315.751z M223.035,310.271c2.364,0.233,6.857,0.599,11.873,0.599
			c8.477,0,14.972-1.011,18.936-2.929l-3.955-32.947c-0.092-0.786,0.2-1.566,0.785-2.102c0.592-0.527,1.399-0.738,2.169-0.572
			l37.64,8.318l12.631-30.642c-7.635-0.394-26.064-2.049-42.524-9c-13.472-5.683-31.271-6.532-40.685-6.532
			c-2.789,0-5.078,0.069-6.632,0.142v23.754L223.035,310.271z"/>
	</g>
	<g>
		<g>
			<path fill="#F4BE78" d="M289.751,145.476c0,0,40.464-4.904,77.337,3.854c6.421,1.511,9.907,1.152,9.907,1.152
				s17.52-2.534,22.82,1.383c5.304,3.919,20.742,10.381,20.742,10.381s11.063,7.825-4.38,6.674
				c-11.225-0.837-20.282-6.914-21.895-2.766c-1.612,4.149,16.852,15.5,4.406,14.116c-6.998-1.68-7.714-2.958-11.319-5.127
				c-3.152-1.896-7.375-11.753-7.375-12.445c0-0.691-87.765,4.181-87.765,4.181l-20.787-11.326L289.751,145.476z"/>
		</g>
		<g>
			<path fill="#27140E" d="M400.523,182.217c-0.573,0-1.248-0.04-2.036-0.127c-6.043-1.437-7.845-2.63-10.122-4.141
				c-0.579-0.381-1.194-0.791-1.938-1.237c-2.907-1.75-6.504-8.776-7.78-12.25c-10.898,0.065-85.553,4.203-86.312,4.246
				c-0.358,0.011-0.678-0.059-0.978-0.222L270.57,157.16c-0.59-0.32-0.955-0.934-0.955-1.604c-0.004-0.668,0.361-1.284,0.949-1.607
				l18.302-10.076c0.206-0.112,0.431-0.184,0.664-0.213c0.112-0.014,11.592-1.382,27.607-1.382c18.697,0,35.646,1.772,50.369,5.271
				c5.926,1.393,9.145,1.128,9.311,1.11c0.15-0.022,5.688-0.814,11.561-0.814c6.109,0,10.206,0.834,12.527,2.549
				c5.062,3.74,20.21,10.1,20.36,10.163c0.119,0.051,0.239,0.118,0.352,0.194c1.653,1.17,5.404,4.215,4.458,7.182
				c-0.835,2.63-4.441,2.934-7.085,2.934c-0.858,0-1.84-0.038-2.945-0.12c-4.947-0.37-9.45-1.706-13.071-2.776
				c-2.573-0.763-4.795-1.422-6.166-1.422c-0.715,0-0.77,0.148-0.813,0.269c0.006,0.912,2.8,3.895,4.303,5.499
				c3.092,3.302,5.329,5.686,4.333,7.979C403.797,182.217,401.331,182.217,400.523,182.217z M381.815,162.478
				c0.475,1.7,4.267,9.751,6.501,11.097c0.794,0.478,1.453,0.915,2.068,1.322c2.135,1.415,3.544,2.348,8.731,3.592
				c0.513,0.04,1.268,0.077,1.729,0.06c-0.677-1.013-2.162-2.596-3.226-3.73c-3.148-3.364-6.126-6.542-5.043-9.328
				c0.462-1.188,1.572-2.603,4.229-2.603c1.904,0,4.245,0.694,7.209,1.571c3.451,1.023,7.745,2.295,12.301,2.635
				c1.007,0.075,1.895,0.111,2.674,0.111c2.201,0,3.148-0.289,3.507-0.452c-0.31-0.676-1.554-1.956-2.84-2.902
				c-1.897-0.799-15.774-6.708-20.929-10.514c-0.928-0.684-3.5-1.831-10.352-1.831c-5.6,0-11.062,0.779-11.117,0.786
				c-0.076,0.01-0.499,0.056-1.331,0.056c-1.492,0-4.682-0.161-9.261-1.239c-14.456-3.433-31.119-5.172-49.53-5.172
				c-14.254,0-24.812,1.093-26.821,1.317l-15.061,8.288l17.396,9.478c7.3-0.405,76.494-4.221,86.239-4.221
				C379.804,160.8,381.668,160.8,381.815,162.478z"/>
		</g>
	</g>
	<g>
		<g>
			<path fill="#F4BE78" d="M151.829,141.724c0,0-8.209,9.526-11.664,2.385c-3.459-7.146-54.021-63.919-54.021-63.919
				s-5.532-5.301-14.291-1.844c-11.997,4.737-16.362,3.294-10.37-1.465c5.995-4.758,3.918-4.297-0.461-7.755
				c-4.381-3.457-20.743,0.923-20.743,0.923s-16.364-1.614,11.983-9.679c28.35-8.066,43.562,9.679,43.562,9.679l52.776,51.624
				l18.44,16.366L151.829,141.724z"/>
		</g>
		<g>
			<path fill="#27140E" d="M143.789,148.594c-1.592,0-3.8-0.641-5.274-3.688c-2.744-5.673-39.719-47.762-53.738-63.5l0,0
				c-0.01,0-2.643-2.401-7.081-2.401c-1.678,0-3.418,0.351-5.171,1.043c-5.032,1.987-9.055,3.037-11.626,3.037
				c-2.537,0.001-3.45-1.088-3.768-2.003c-0.757-2.164,1.472-4.252,3.215-5.636c1.687-1.339,2.478-2.08,2.828-2.489
				c-0.299-0.239-0.75-0.552-1.134-0.82c-0.62-0.433-1.348-0.942-2.152-1.576c-0.44-0.348-1.657-0.935-4.819-0.935
				c-6.054,0-14.232,2.167-14.315,2.189c-0.213,0.057-0.433,0.076-0.652,0.053c-2.262-0.223-6.096-1.003-6.34-3.714
				c-0.236-2.664,2.689-5.19,18.004-9.548c5.063-1.442,10.075-2.173,14.885-2.173c19.691,0,30.132,11.916,30.564,12.422
				l52.666,51.507l18.378,16.303c0.509,0.454,0.723,1.152,0.557,1.812c-0.164,0.662-0.68,1.178-1.34,1.337l-14.666,3.555
				C151.513,144.77,147.61,148.594,143.789,148.594z M77.695,75.343c5.971,0,9.566,3.38,9.716,3.524
				c2.171,2.431,50.869,57.153,54.401,64.443c0.782,1.622,1.617,1.622,1.977,1.622c2.069,0,5.179-2.702,6.655-4.405
				c0.246-0.289,0.583-0.493,0.955-0.583l11.805-2.862l-15.819-14.041L94.547,71.356c-0.206-0.226-9.956-11.258-27.897-11.258
				c-4.473,0-9.145,0.684-13.885,2.032c-10.103,2.875-13.613,4.711-14.817,5.569c0.585,0.199,1.417,0.388,2.201,0.491
				c1.685-0.432,9.042-2.224,14.92-2.224c3.301,0,5.62,0.564,7.089,1.722c0.734,0.583,1.409,1.049,1.979,1.446
				c1.521,1.062,2.839,1.98,2.894,3.625c0.054,1.727-1.258,3.053-4.406,5.557c-0.55,0.436-0.949,0.798-1.244,1.092
				c1.312-0.091,4.266-0.579,9.804-2.766C73.362,75.78,75.558,75.343,77.695,75.343z"/>
		</g>
	</g>
	<g>
		<g>
			<path fill="#F4BE78" d="M206.912,121.671c0,0,2.303,7.604-2.538,14.291c-4.84,6.685,13.146,22.586,13.146,22.586l14.974-8.756
				v-9.68c0,0-4.378-6.683,4.606-15.212c8.991-8.527-10.141-24.663-10.141-24.663L206.912,121.671z"/>
		</g>
		<g>
			<path fill="#27140E" d="M217.521,160.989c-0.584,0-1.163-0.207-1.62-0.612c-3.278-2.899-19.344-17.776-13.503-25.846
				c4.036-5.576,2.194-12.097,2.177-12.161c-0.245-0.829-0.034-1.734,0.557-2.366L225.18,98.57c0.887-0.945,2.365-1.035,3.354-0.198
				c1.345,1.133,13.133,11.338,13.408,20.666c0.086,2.951-1.007,5.589-3.16,7.634c-7.273,6.899-4.351,11.923-4.225,12.135
				c0.23,0.381,0.378,0.858,0.378,1.305v9.68c0,0.867-0.46,1.669-1.21,2.108l-14.975,8.756
				C218.366,160.881,217.939,160.989,217.521,160.989z M209.572,122.399c0.505,2.792,1,9.163-3.217,14.996
				c-2.166,2.985,4.946,12.034,11.481,18.14l12.214-7.143v-7.675c-1.068-2.249-3.331-9.331,5.369-17.587
				c1.163-1.104,1.685-2.358,1.641-3.944c-0.147-5.164-6.191-11.96-9.952-15.528L209.572,122.399z"/>
		</g>
	</g>
	<g>
		<path fill="#F58020" d="M204.374,135.962c0,0,10.142,22.586,29.503,3.687c0,0,39.641,8.758,54.854,4.61
			c13.828,15.673,0,26.735,0,26.735h-34.113c0,0,8.299,60.385,12.908,65.456c4.609,5.067-27.66,20.739-53.932,22.122
			c-26.274,1.382-29.503-96.797-29.503-96.797s-25.348-3.226-41.944-15.67c-6.91-19.36,6.455-24.433,6.455-24.433
			S190.548,134.116,204.374,135.962z"/>
		<path fill="#27140E" d="M213.048,261.029c-26.01,0-30.641-80.531-31.32-97.138c-6.487-1.063-26.711-5.086-41.047-15.836
			c-0.377-0.287-0.674-0.681-0.832-1.131c-7.632-21.365,7.73-27.474,7.887-27.534c0.501-0.186,1.049-0.21,1.561-0.057
			c0.419,0.124,41.919,12.412,55.401,14.21c0.84,0.111,1.561,0.648,1.905,1.419c0.042,0.093,4.541,9.785,12.575,9.788
			c3.966,0,8.34-2.303,12.994-6.847c0.588-0.578,1.434-0.814,2.231-0.638c0.254,0.059,25.865,5.669,43.353,5.669
			c4.35,0,7.828-0.348,10.334-1.029c0.895-0.243,1.855,0.042,2.473,0.739c4.934,5.593,7.185,11.328,6.687,17.041
			c-0.698,8.095-6.737,13.012-6.992,13.217c-0.434,0.347-0.971,0.534-1.526,0.534h-31.308c3.968,28.298,9.386,58.343,11.915,61.379
			c1.124,1.234,1.381,2.901,0.698,4.562c-3.242,7.882-32.913,20.402-56.31,21.637C213.499,261.023,213.271,261.029,213.048,261.029z
			 M144.208,144.587c15.882,11.544,39.949,14.734,40.194,14.765c1.188,0.153,2.093,1.145,2.131,2.343
			c1.202,36.517,9.463,94.45,26.511,94.45l0,0l0.42-0.011c23.662-1.243,49.922-13.868,51.974-18.395
			c-4.732-6.7-11.305-52.349-13.235-66.413c-0.099-0.697,0.11-1.404,0.575-1.936c0.465-0.532,1.136-0.836,1.84-0.836h33.168
			c1.27-1.255,4.218-4.641,4.605-9.346c0.326-3.964-1.205-8.072-4.559-12.23c-2.706,0.555-6.089,0.837-10.076,0.837
			c-15.962,0-37.637-4.349-43.133-5.509c-5.271,4.861-10.462,7.324-15.445,7.324l0,0c-9.23-0.001-14.646-8.237-16.405-11.435
			c-13.844-2.184-47.853-12.114-53.972-13.917C146.519,125.525,139.509,130.641,144.208,144.587z"/>
	</g>
	<g>
		<path fill="#7D421F" d="M255.998,419.443c0,0,5.996,5.53,17.059,2.764c0,0,13.827,20.279,0,22.586
			c-13.83,2.307-64.058,11.987-55.536-3.686c9.63-10.27,36.178-21.664,36.178-21.664H255.998z"/>
		<path fill="#27140E" d="M231.295,452.303c-9.162,0-14.358-1.558-16.349-4.909c-0.863-1.452-1.489-3.925,0.429-7.452
			c0.097-0.182,0.22-0.354,0.365-0.504c9.866-10.521,35.889-21.762,36.992-22.235c0.307-0.136,0.633-0.199,0.966-0.199h2.3
			c0.616,0,1.207,0.229,1.658,0.646c0.115,0.104,3.32,2.896,9.377,2.896c1.738,0,3.568-0.235,5.432-0.7
			c0.988-0.254,2.032,0.146,2.605,0.989c0.936,1.368,9.027,13.594,5.808,21.142c-0.836,1.96-2.806,4.455-7.422,5.227l-3.25,0.558
			C260.977,449.345,243.794,452.303,231.295,452.303z M219.521,442.541c-0.399,0.798-0.729,1.767-0.378,2.358
			s2.269,2.522,12.151,2.522c12.084,0,28.998-2.912,38.083-4.479l3.275-0.558c2.646-0.443,3.396-1.541,3.733-2.329
			c1.485-3.479-1.671-10.572-4.463-15.104c-1.659,0.312-3.3,0.471-4.892,0.471l0,0c-6.18,0-10.234-2.361-11.873-3.541h-0.953
			C250.727,423.417,228.191,433.541,219.521,442.541z"/>
	</g>
	<g>
		<path fill="#7D421F" d="M409.035,252.119c0,0,6.913,11.062,0,16.595c-6.913,5.534,42.405,13.83,50.243,12.444
			c7.837-1.383,8.293-10.448,0-14.442c-8.3-3.993-30.886-25.654-30.886-25.654S413.19,242.448,409.035,252.119z"/>
		<path fill="#27140E" d="M456.851,283.753L456.851,283.753c-7.688,0-48.094-5.276-50.713-12.744
			c-0.534-1.517-0.021-3.086,1.371-4.2c5.13-4.102-0.487-13.308-0.547-13.399c-0.419-0.679-0.484-1.521-0.171-2.252
			c4.675-10.88,20.701-12.469,21.382-12.531c0.694-0.068,1.399,0.179,1.911,0.671c0.22,0.217,22.396,21.438,30.249,25.219
			c5.091,2.451,7.979,6.955,7.355,11.473c-0.54,3.898-3.6,6.804-7.987,7.574C458.975,283.691,458.043,283.753,456.851,283.753z
			 M411.425,269.855c5.589,3.562,34.119,9.017,45.426,9.017l0,0c1.11,0,1.701-0.062,2-0.114c2.298-0.404,3.755-1.66,4.002-3.438
			c0.247-1.805-0.813-4.565-4.635-6.403c-7.713-3.713-26.39-21.229-30.663-25.286c-3.132,0.486-12.305,2.386-15.759,8.416
			C413.49,255.289,417.268,264.148,411.425,269.855z"/>
	</g>
	<g>
		<g>
			<path fill="#F4BE78" d="M193.312,84.106c0,0-6.222-3.458-6.917,2.996c-0.687,6.452,6.917,6.452,6.917,6.452
				s-4.84,21.896,13.601,28.117c18.436,6.224,38.952,8.297,51.854-18.206c7.373-1.614,6.455-7.834,6.455-7.834
				s-0.925-3.919-3.691-2.998c-2.764,0.921-21.666-37.797-21.666-37.797h-21.43L193.312,84.106z"/>
		</g>
		<g>
			<path fill="#27140E" d="M227.328,128.081c-6.185,0-12.919-1.301-21.197-4.095c-14.682-4.956-16.744-19.487-15.645-28.363
				c-1.522-0.38-3.354-1.138-4.724-2.658c-0.997-1.11-2.117-3.075-1.791-6.123c0.408-3.821,2.644-6.102,5.972-6.102
				c0.969,0,1.897,0.199,2.661,0.44l23.979-27.935c0.463-0.54,1.137-0.851,1.852-0.851h21.43c0.932,0,1.789,0.532,2.195,1.371
				c7.713,15.801,16.954,33.078,19.889,36.301c3.365-0.263,5.191,3.064,5.648,5.003c0.447,2.966-0.591,8.483-7.136,10.475
				C252.771,120.706,241.924,128.081,227.328,128.081z M189.943,85.622c-0.413,0-0.932,0-1.121,1.74
				c-0.145,1.359,0.255,1.982,0.564,2.331c1.011,1.138,3.237,1.415,3.939,1.422c0.731,0.008,1.43,0.349,1.887,0.921
				c0.458,0.573,0.64,1.325,0.485,2.042c-0.18,0.808-4.115,19.846,11.994,25.281c7.759,2.622,14.002,3.841,19.636,3.841
				c12.864,0,22.427-6.805,29.245-20.803c0.326-0.672,0.941-1.157,1.674-1.316c5.001-1.096,4.615-4.687,4.559-5.092
				c-0.086-0.295-0.43-0.962-0.637-1.1c-0.261,0.086-0.525,0.207-0.775,0.203c-1.604,0-4.662-0.278-23.051-37.813h-18.787
				l-24.391,28.417c-0.752,0.877-2.024,1.107-3.039,0.543C191.841,86.085,190.792,85.622,189.943,85.622z"/>
		</g>
	</g>
	<g>
		<path fill="#4C230D" d="M250.01,77.422c-2.768,4.149,8.299,17.286,11.984,16.596c3.686-0.691,3.919-3.917,3.263-25.123
			c-0.657-21.204-23.546-26.503-36.22-24.428c-19.822-7.836-35.952,7.605-37.568,20.511c-10.142,8.527-1.351,18.207-1.351,18.207
			s3.886,6.224,6.883,2.536c2.994-3.688,5.297-12.443,3.455-14.98c7.146,1.153,11.062-2.306,11.295-5.762
			c5.763,4.148,12.002,5.061,21.201-0.23C232.952,64.747,245.631,79.267,250.01,77.422z"/>
		<path fill="#27140E" d="M261.698,96.484c-4.229,0-10.259-6.895-12.809-11.659c-1.035-1.932-1.616-3.654-1.739-5.156
			c-4.906-1.603-11.431-8.232-14.728-11.854c-7.322,3.763-13.41,4.05-19.392,0.842c-1.609,2.602-4.842,4.643-9.509,4.744
			c0.078,4.615-2.196,10.866-4.628,13.855c-1.39,1.712-2.959,2.071-4.033,2.071c-3.393,0-5.992-3.589-6.706-4.681
			c-0.804-0.956-4.369-5.519-3.984-11.253c0.24-3.58,1.929-6.827,5.016-9.66c1.995-11.685,13.888-23.832,29.142-23.832
			c3.641,0,7.333,0.689,10.979,2.054c1.63-0.232,3.358-0.349,5.153-0.349c15.604,0,32.659,8.516,33.235,27.211
			c0.645,20.853,0.818,26.458-5.252,27.598C262.203,96.459,261.956,96.484,261.698,96.484z M250.065,74.956
			c0.705,0,1.389,0.319,1.867,0.897c0.684,0.83,0.709,2.028,0.109,2.924c-0.104,0.227-0.104,1.48,1.281,3.984
			c2.566,4.634,6.957,8.51,8.33,8.829c1.586-0.535,1.678-6.011,1.162-22.621c-0.551-17.744-18.083-22.479-28.354-22.479
			c-1.78,0-3.473,0.131-5.033,0.386c-0.429,0.07-0.88,0.023-1.289-0.138c-3.275-1.296-6.575-1.952-9.811-1.952
			c-12.891,0-23.226,10.803-24.438,20.496c-0.076,0.61-0.379,1.17-0.849,1.566c-2.476,2.082-3.82,4.383-3.994,6.842
			c-0.307,4.234,2.855,7.826,2.887,7.862c0.093,0.105,0.183,0.224,0.259,0.342c0.852,1.354,2.186,2.539,2.673,2.554
			c-0.021-0.003,0.091-0.077,0.241-0.268c2.668-3.28,4.235-10.55,3.37-12.019c-0.485-0.816-0.509-1.925,0.022-2.707
			c0.533-0.782,1.407-1.274,2.349-1.124c0.801,0.131,1.575,0.196,2.307,0.196c3.881,0,6.039-1.867,6.163-3.711
			c0.056-0.883,0.592-1.667,1.396-2.046c0.798-0.376,1.742-0.291,2.461,0.229c5.841,4.203,11.028,3.966,18.564-0.366
			c1.006-0.579,2.286-0.366,3.052,0.51c5.064,5.795,12.039,12.001,14.35,12.001C249.443,75.016,249.755,74.956,250.065,74.956z"/>
	</g>
</g>
</svg>
