<?xml version="1.0" encoding="utf-8"?>
<!-- Generator: Adobe Illustrator 16.0.0, SVG Export Plug-In . SVG Version: 6.00 Build 0)  -->
<!DOCTYPE svg PUBLIC "-//W3C//DTD SVG 1.1//EN" "http://www.w3.org/Graphics/SVG/1.1/DTD/svg11.dtd">
<svg version="1.1" id="Layer_1" xmlns="http://www.w3.org/2000/svg" xmlns:xlink="http://www.w3.org/1999/xlink" x="0px" y="0px"
	 width="500px" height="500px" viewBox="0 0 500 500" enable-background="new 0 0 500 500" xml:space="preserve">
<g id="Layer_1_copy_74">
	<g>
		<g>
			<rect x="74.915" y="158.688" fill="#5DB2AB" width="43.306" height="77.807"/>
			<path fill="#3A140F" d="M120.78,239.049H72.354v-82.917h48.426V239.049z M77.466,233.938h38.203v-72.696H77.466V233.938z"/>
		</g>
		<g>
			<rect x="189.924" y="159.739" fill="#726866" width="43.311" height="77.802"/>
			<path fill="#3A140F" d="M235.786,240.101h-48.421v-82.912h48.421V240.101z M192.48,234.991h38.199v-72.697H192.48V234.991z"/>
		</g>
		<g>
			<rect x="122.685" y="172.08" fill="#D54F28" width="31.248" height="64.414"/>
			<path fill="#3A140F" d="M156.488,239.049h-36.359v-69.525h36.359V239.049z M125.239,233.938h26.139v-59.299h-26.139V233.938z"/>
		</g>
		<g>
			<rect x="158.663" y="160.791" fill="#E1A62D" width="23.364" height="75.704"/>
			<path fill="#3A140F" d="M184.582,239.049h-28.478v-80.814h28.478V239.049z M161.214,233.938h18.262V163.35h-18.262V233.938z"/>
		</g>
		<g>
			<rect x="76.094" y="261.314" fill="#5DB2AB" width="34.397" height="63.549"/>
			<path fill="#3A140F" d="M113.047,327.422H73.538v-68.663h39.509V327.422z M78.648,322.309h29.292v-58.442H78.648V322.309z"/>
		</g>
		<g>
			<rect x="170.345" y="262.172" fill="#726866" width="34.403" height="63.553"/>
			<path fill="#3A140F" d="M207.304,328.275h-39.515v-68.662h39.515V328.275z M172.899,323.169h29.293v-58.442h-29.293V323.169z"/>
		</g>
		<g>
			<rect x="114.04" y="272.253" fill="#D54F28" width="24.82" height="52.608"/>
			<path fill="#3A140F" d="M141.416,327.422h-29.932v-57.727h29.932V327.422z M116.595,322.309h19.71v-47.504h-19.71V322.309z"/>
		</g>
		<g>
			<rect x="142.619" y="263.029" fill="#E1A62D" width="18.562" height="61.834"/>
			<path fill="#3A140F" d="M163.735,327.422H140.06v-66.943h23.676L163.735,327.422L163.735,327.422z M145.174,322.309h13.448
				v-56.726h-13.448V322.309z"/>
		</g>
		<g>
			<rect x="211.582" y="263.029" fill="#E1A62D" width="18.562" height="61.834"/>
			<path fill="#3A140F" d="M232.698,327.422h-23.672v-66.943h23.672V327.422z M214.132,322.309h13.457v-56.726h-13.457V322.309z"/>
		</g>
		<g>
			<rect x="375.05" y="161.53" fill="#D54F28" width="43.308" height="77.802"/>
			<path fill="#3A140F" d="M420.911,241.887h-48.42v-82.913h48.42V241.887z M377.605,236.773h38.189v-72.692h-38.189V236.773z"/>
		</g>
		<g>
			<rect x="260.035" y="162.577" fill="#5DB2AB" width="43.311" height="77.807"/>
			<path fill="#3A140F" d="M305.897,242.935H257.48v-82.913h48.417V242.935z M262.592,237.829h38.199v-72.697h-38.199V237.829z"/>
		</g>
		<g>
			<rect x="339.334" y="174.922" fill="#726866" width="31.248" height="64.41"/>
			<path fill="#3A140F" d="M373.137,241.887h-36.357v-69.525h36.357V241.887z M341.889,236.773h26.14v-59.295h-26.14V236.773z"/>
		</g>
		<g>
			<rect x="311.239" y="163.628" fill="#E1A62D" width="23.367" height="75.704"/>
			<path fill="#3A140F" d="M337.167,241.887h-28.483v-80.813h28.483V241.887z M313.795,236.773h18.257v-70.589h-18.257V236.773z"/>
		</g>
		<g>
			<rect x="77.689" y="72.823" fill="#D54F28" width="43.307" height="68.051"/>
			<path fill="#3A140F" d="M123.555,143.424H75.139V70.268h48.416V143.424z M80.244,138.318h38.2v-62.94h-38.2V138.318z"/>
		</g>
		<g>
			<rect x="192.703" y="73.744" fill="#5DB2AB" width="43.307" height="68.046"/>
			<path fill="#3A140F" d="M238.568,144.345h-48.42V71.188h48.42V144.345z M195.258,139.239h38.201V76.294h-38.201V139.239z"/>
		</g>
		<g>
			<rect x="125.463" y="84.538" fill="#E1A62D" width="31.249" height="56.335"/>
			<path fill="#3A140F" d="M159.263,143.424h-36.354V81.979h36.354V143.424z M128.019,138.318h26.138V87.089h-26.138V138.318z"/>
		</g>
		<g>
			<rect x="161.434" y="74.66" fill="#726866" width="23.371" height="66.213"/>
			<path fill="#3A140F" d="M187.36,143.424h-28.477V72.109h28.477V143.424z M163.993,138.318h18.257V77.215h-18.257V138.318z"/>
		</g>
		<g>
			<rect x="377.825" y="75.307" fill="#726866" width="43.311" height="68.05"/>
			<path fill="#3A140F" d="M423.69,145.912H375.27V72.751h48.422L423.69,145.912L423.69,145.912z M380.38,140.802h38.2v-62.94h-38.2
				V140.802z"/>
		</g>
		<g>
			<rect x="262.811" y="76.227" fill="#726866" width="43.312" height="68.046"/>
			<path fill="#3A140F" d="M308.671,146.828h-48.415V73.672h48.415V146.828z M265.366,141.722h38.2V78.778h-38.2V141.722z"/>
		</g>
		<g>
			<rect x="342.111" y="87.022" fill="#5DB2AB" width="31.249" height="56.334"/>
			<path fill="#3A140F" d="M375.916,145.912h-36.359v-61.45h36.359V145.912z M344.668,140.802h26.133V89.572h-26.133V140.802z"/>
		</g>
		<g>
			<rect x="314.015" y="77.143" fill="#D54F28" width="23.375" height="66.213"/>
			<path fill="#3A140F" d="M339.941,145.912h-28.482V74.593h28.482V145.912z M316.569,140.802h18.266V79.699h-18.266V140.802z"/>
		</g>
		<g>
			<rect x="77.689" y="359.57" fill="#726866" width="43.307" height="68.042"/>
			<path fill="#3A140F" d="M123.555,430.172H75.139v-73.161h48.416V430.172z M80.244,425.062h38.2v-62.941h-38.2V425.062z"/>
		</g>
		<g>
			<rect x="192.703" y="360.482" fill="#5DB2AB" width="43.307" height="68.051"/>
			<path fill="#3A140F" d="M238.568,431.088h-48.42v-73.156h48.42V431.088z M195.258,425.978h38.201v-62.937h-38.201V425.978z"/>
		</g>
		<g>
			<rect x="125.463" y="371.277" fill="#D54F28" width="31.249" height="56.335"/>
			<path fill="#3A140F" d="M159.263,430.172h-36.354v-61.445h36.354V430.172z M128.019,425.062h26.138v-51.229h-26.138V425.062z"/>
		</g>
		<g>
			<rect x="161.434" y="361.402" fill="#E1A62D" width="23.371" height="66.21"/>
			<path fill="#3A140F" d="M187.36,430.172h-28.477v-71.324h28.477V430.172z M163.993,425.062h18.257v-61.104h-18.257V425.062z"/>
		</g>
		<g>
			<rect x="377.825" y="362.053" fill="#5DB2AB" width="43.311" height="68.046"/>
			<path fill="#3A140F" d="M423.69,432.656H375.27v-73.157h48.422L423.69,432.656L423.69,432.656z M380.38,427.549h38.2v-62.945
				h-38.2V427.549z"/>
		</g>
		<g>
			<rect x="262.811" y="362.971" fill="#D54F28" width="43.312" height="68.045"/>
			<path fill="#3A140F" d="M308.671,433.577h-48.415v-73.162h48.415V433.577z M265.366,428.465h38.2v-62.939h-38.2V428.465z"/>
		</g>
		<g>
			<rect x="342.111" y="373.766" fill="#D54F28" width="31.249" height="56.333"/>
			<path fill="#3A140F" d="M375.916,432.656h-36.359V371.21h36.359V432.656z M344.668,427.549h26.133v-51.232h-26.133V427.549z"/>
		</g>
		<g>
			<rect x="314.015" y="363.886" fill="#E1A62D" width="23.375" height="66.213"/>
			<path fill="#3A140F" d="M339.941,432.656h-28.482v-71.32h28.482V432.656z M316.569,427.549h18.266v-61.104h-18.266V427.549z"/>
		</g>
		<g>
			<rect x="382.774" y="264.148" fill="#726866" width="34.402" height="63.557"/>
			<path fill="#3A140F" d="M419.732,330.26h-39.51v-68.667h39.51V330.26z M385.329,325.146h29.294v-58.442h-29.294V325.146z"/>
		</g>
		<g>
			<rect x="288.521" y="265.005" fill="#D54F28" width="34.403" height="63.558"/>
			<path fill="#3A140F" d="M325.48,331.118h-39.515v-68.662h39.515V331.118z M291.073,326.008h29.293v-58.443h-29.293V326.008z"/>
		</g>
		<g>
			<rect x="354.41" y="275.091" fill="#5DB2AB" width="24.821" height="52.613"/>
			<path fill="#3A140F" d="M381.781,330.26h-29.926v-57.724h29.926V330.26z M356.962,325.146h19.709v-47.5h-19.709V325.146
				L356.962,325.146z"/>
		</g>
		<g>
			<rect x="332.09" y="265.867" fill="#E1A62D" width="18.565" height="61.838"/>
			<path fill="#3A140F" d="M353.207,330.26h-23.673v-66.947h23.673V330.26z M334.641,325.146h13.456v-56.729h-13.456V325.146z"/>
		</g>
		<g>
			<rect x="263.128" y="265.867" fill="#726866" width="18.562" height="61.838"/>
			<path fill="#3A140F" d="M284.244,330.26h-23.671v-66.947h23.671V330.26z M265.684,325.146h13.45v-56.729h-13.45V325.146z"/>
		</g>
	</g>
	<g>
		<path fill="#886126" d="M259.343,48.83h-19.857H56.306v8.455v6.618v71.101v15.077v86.414v2.032v8.459v4.583v2.031v71.104v15.072
			v86.414v15.072h18.609h164.22h0.351h18.604h1.254H422.31h20.205v-15.072v-86.414v-15.072V253.6v-2.031v-4.583v-8.459v-2.032
			V150.08v-15.077v-71.1v-6.618V48.83H259.343z M259.343,63.903h162.966v71.101H259.343V63.903z M259.343,150.08h162.966v86.414
			H259.343V150.08z M74.915,63.903h164.22v71.101H74.915V63.903z M74.915,150.08h164.22v86.414H74.915V150.08z M239.135,426.189
			H74.915v-86.414h164.22V426.189L239.135,426.189z M239.135,324.703H74.915V253.6h164.22V324.703L239.135,324.703z
			 M422.309,426.189H259.343v-86.414h162.966V426.189z M422.309,324.703H259.343V253.6h162.966V324.703z"/>
		<path fill="#281912" d="M442.514,443.818H56.306c-1.41,0-2.555-1.146-2.555-2.557V48.83c0-1.411,1.145-2.555,2.555-2.555h386.208
			c1.415,0,2.56,1.145,2.56,2.555v392.432C445.072,442.672,443.929,443.818,442.514,443.818z M58.862,438.708h381.1V51.385h-381.1
			V438.708z M422.309,428.745H259.343c-1.413,0-2.559-1.146-2.559-2.556v-86.414c0-1.414,1.146-2.555,2.559-2.555h162.966
			c1.416,0,2.557,1.141,2.557,2.555v86.414C424.864,427.599,423.725,428.745,422.309,428.745z M261.896,423.634h157.856v-81.309
			H261.896V423.634z M239.135,428.745H74.915c-1.412,0-2.561-1.146-2.561-2.556v-86.414c0-1.414,1.148-2.555,2.561-2.555h164.22
			c1.415,0,2.555,1.141,2.555,2.555v86.414C241.689,427.599,240.55,428.745,239.135,428.745z M77.466,423.634H236.58v-81.309H77.466
			V423.634z M422.309,327.252H259.343c-1.413,0-2.559-1.141-2.559-2.55v-71.104c0-1.41,1.146-2.555,2.559-2.555h162.966
			c1.416,0,2.557,1.145,2.557,2.555v71.104C424.864,326.113,423.725,327.252,422.309,327.252z M261.896,322.143h157.856v-65.99
			H261.896V322.143z M239.135,327.252H74.915c-1.412,0-2.561-1.141-2.561-2.55v-71.104c0-1.41,1.148-2.555,2.561-2.555h164.22
			c1.415,0,2.555,1.145,2.555,2.555v71.104C241.689,326.113,240.55,327.252,239.135,327.252z M77.466,322.143H236.58v-65.99H77.466
			V322.143z M422.309,239.049H259.343c-1.413,0-2.559-1.145-2.559-2.555V150.08c0-1.41,1.146-2.559,2.559-2.559h162.966
			c1.416,0,2.557,1.149,2.557,2.559v86.414C424.864,237.904,423.725,239.049,422.309,239.049z M261.896,233.938h157.856v-81.303
			H261.896V233.938z M239.135,239.049H74.915c-1.412,0-2.561-1.145-2.561-2.555V150.08c0-1.41,1.148-2.559,2.561-2.559h164.22
			c1.415,0,2.555,1.149,2.555,2.559v86.414C241.689,237.904,240.55,239.049,239.135,239.049z M77.466,233.938H236.58v-81.303H77.466
			V233.938z M422.309,137.558H259.343c-1.413,0-2.559-1.145-2.559-2.555v-71.1c0-1.41,1.146-2.55,2.559-2.55h162.966
			c1.416,0,2.557,1.14,2.557,2.55v71.101C424.864,136.414,423.725,137.558,422.309,137.558z M261.896,132.448h157.856V66.462
			H261.896V132.448z M239.135,137.558H74.915c-1.412,0-2.561-1.145-2.561-2.555v-71.1c0-1.41,1.148-2.55,2.561-2.55h164.22
			c1.415,0,2.555,1.14,2.555,2.55v71.101C241.689,136.414,240.55,137.558,239.135,137.558z M77.466,132.448H236.58V66.462H77.466
			V132.448z"/>
	</g>
</g>
</svg>
