<?xml version="1.0" encoding="utf-8"?>
<!-- Generator: Adobe Illustrator 16.0.0, SVG Export Plug-In . SVG Version: 6.00 Build 0)  -->
<!DOCTYPE svg PUBLIC "-//W3C//DTD SVG 1.1//EN" "http://www.w3.org/Graphics/SVG/1.1/DTD/svg11.dtd">
<svg version="1.1" id="Layer_1" xmlns="http://www.w3.org/2000/svg" xmlns:xlink="http://www.w3.org/1999/xlink" x="0px" y="0px"
	 width="500px" height="500px" viewBox="0 0 500 500" enable-background="new 0 0 500 500" xml:space="preserve">
<g id="Layer_1_copy_29">
	<g>
		<g>
			<path fill="#FFF3EA" d="M313.215,391.939c0,0,1.686,10.338,1.577,13.428c-0.109,3.082,6.112,4.32,11.351,4.32
				c5.235,0,6.107-7.662,5.122-16.431C330.287,384.491,319.057,383.213,313.215,391.939z"/>
			<path fill="#3C2517" d="M326.143,412.309c-2.774,0-9.55-0.332-12.519-3.4c-0.998-1.038-1.498-2.289-1.45-3.635
				c0.079-2.322-1.086-10.11-1.545-12.914c-0.104-0.652,0.044-1.324,0.409-1.877c2.976-4.447,7.538-7.104,12.205-7.104
				c5.716,0,9.984,3.854,10.628,9.585c0.936,8.375,0.08,14.113-2.55,17.05C329.98,411.518,328.188,412.309,326.143,412.309z
				 M315.975,392.6c0.445,2.849,1.531,10.11,1.435,12.854c0.363,0.393,3.462,1.617,8.733,1.617c0.557,0,0.93-0.159,1.274-0.547
				c0.562-0.633,2.317-3.428,1.245-12.975c-0.405-3.634-3.065-4.933-5.419-4.933C320.601,388.618,317.938,390.089,315.975,392.6z"/>
		</g>
		<g>
			<path fill="#FFF3EA" d="M71.961,396.232c0,0,1.684,9.135,1.574,11.863c-0.107,2.723,6.114,3.814,11.351,3.814
				c5.237,0,6.11-6.764,5.128-14.512S77.806,388.518,71.961,396.232z"/>
			<path fill="#3C2517" d="M84.886,414.533c-2.87,0-9.85-0.318-12.659-3.241c-0.902-0.938-1.354-2.084-1.305-3.302
				c0.069-1.771-0.905-7.862-1.537-11.284c-0.134-0.726,0.043-1.472,0.488-2.056c2.983-3.937,7.51-6.285,12.116-6.285
				c5.695,0,9.962,3.494,10.624,8.701c0.915,7.229,0.14,12.309-2.306,15.076C88.933,413.708,87.059,414.533,84.886,414.533z
				 M76.161,407.796c0.829,0.586,3.863,1.498,8.725,1.498c0.841,0,1.228-0.308,1.49-0.612c1.328-1.505,1.717-5.604,1.038-10.957
				c-0.386-3.035-3.056-4.121-5.425-4.121c-2.643,0-5.279,1.238-7.236,3.361C75.202,399.521,76.145,405.182,76.161,407.796z"/>
		</g>
		<g>
			<path fill="#FFF3EA" d="M137.034,380.77c0,0,1.685,9.133,1.575,11.862c-0.107,2.724,6.114,3.813,11.35,3.813
				c5.238,0,6.111-6.764,5.129-14.512S142.879,373.055,137.034,380.77z"/>
			<path fill="#3C2517" d="M149.959,399.068c-2.869,0-9.852-0.318-12.658-3.24c-0.902-0.939-1.354-2.077-1.305-3.303
				c0.07-1.771-0.905-7.861-1.538-11.282c-0.133-0.728,0.044-1.472,0.49-2.058c2.981-3.935,7.508-6.285,12.114-6.285
				c5.696,0,9.963,3.502,10.625,8.701c0.916,7.235,0.14,12.309-2.307,15.084C154.007,398.244,152.136,399.068,149.959,399.068z
				 M141.235,392.333c0.828,0.586,3.864,1.498,8.724,1.498c0.842,0,1.228-0.308,1.49-0.613c1.329-1.504,1.718-5.598,1.039-10.948
				c-0.387-3.043-3.056-4.129-5.426-4.129c-2.642,0-5.277,1.245-7.235,3.361C140.277,384.059,141.218,389.716,141.235,392.333z"/>
		</g>
		<g>
			<path fill="#FFF3EA" d="M278.912,398.85c0,0,1.681,10.338,1.574,13.42c-0.106,3.088,6.113,4.328,11.351,4.328
				c5.238,0,6.107-7.662,5.126-16.431C295.98,391.4,284.754,390.116,278.912,398.85z"/>
			<path fill="#3C2517" d="M291.837,419.213c-2.776,0-9.553-0.333-12.515-3.4c-0.995-1.025-1.502-2.285-1.452-3.637
				c0.073-2.07-0.886-8.854-1.544-12.906c-0.105-0.652,0.04-1.326,0.41-1.879c2.972-4.445,7.535-7.103,12.201-7.103
				c5.715,0,9.983,3.854,10.627,9.586c0.938,8.375,0.079,14.106-2.547,17.049C295.678,418.42,293.883,419.213,291.837,419.213z
				 M281.668,399.501c0.45,2.863,1.531,10.119,1.436,12.86c0.362,0.395,3.465,1.619,8.733,1.619c0.56,0,0.929-0.16,1.277-0.554
				c0.562-0.626,2.312-3.422,1.245-12.968c-0.406-3.635-3.065-4.934-5.422-4.934C286.291,395.527,283.632,396.999,281.668,399.501z"
				/>
		</g>
		<g>
			<path fill="#C7B7AB" d="M348.434,332.589c0,0-7.658,10.796-6.511,13.737c1.146,2.949-1.215,4.746-0.119,7.201
				c1.102,2.459,0.27,8.184-0.297,10.154c-0.565,1.963,0.416,3.269-1.548,7.194c-1.967,3.935-3.768,4.753-3.768,7.694
				c0,2.949,0.166,9.986,0,10.805c0,0-4.092,14.564-11.949,12.275c-7.854-2.291-11.526-1.864-15.009-12.715
				c-3.484-10.857-10.034-32.951-10.034-32.951l18.662-38.957C317.861,317.029,344.795,323.761,348.434,332.589z"/>
			<path fill="#3C2517" d="M325.899,404.514c-0.789,0-1.595-0.113-2.391-0.346c-0.952-0.279-1.841-0.514-2.676-0.738
				c-6.97-1.856-10.761-3.309-14.093-13.693c-3.455-10.758-9.985-32.784-10.053-33.004c-0.187-0.627-0.129-1.293,0.146-1.879
				l18.662-38.957c0.539-1.121,1.78-1.711,2.995-1.408c2.894,0.723,28.335,7.337,32.362,17.103c0.344,0.832,0.232,1.781-0.286,2.515
				c-3.349,4.721-6.218,10.1-6.147,11.511c0.843,2.084,0.313,4.008-0.04,5.278c-0.267,0.965-0.319,1.271-0.187,1.564
				c1.642,3.668,0.184,10.711-0.174,11.941c-0.096,0.34-0.104,0.666-0.115,1.266c-0.023,1.391-0.058,3.288-1.607,6.384
				c-0.822,1.65-1.618,2.802-2.253,3.722c-0.959,1.385-1.235,1.83-1.235,2.803c0,0.912,0.018,2.217,0.033,3.601
				c0.069,5.659,0.054,7.03-0.083,7.716C338.301,391.561,334.414,404.514,325.899,404.514z M301.998,356.207
				c1.298,4.38,6.707,22.514,9.729,31.932c2.613,8.144,4.751,8.715,10.451,10.232c0.872,0.232,1.806,0.479,2.8,0.766
				c0.323,0.1,0.626,0.146,0.923,0.146c3.555,0,6.684-6.891,7.716-10.418c0.06-0.905,0.017-4.461-0.007-6.623
				c-0.021-1.411-0.033-2.743-0.033-3.668c0-2.649,1.049-4.174,2.159-5.778c0.572-0.832,1.219-1.765,1.881-3.088
				c1.019-2.031,1.035-3.049,1.056-4.128c0.013-0.76,0.029-1.611,0.319-2.63c0.615-2.13,1.067-6.916,0.423-8.349
				c-0.918-2.056-0.433-3.819-0.08-5.099c0.293-1.06,0.41-1.551,0.15-2.224c-1.26-3.235,2.282-9.6,5.86-14.84
				c-3.589-4.826-16.796-9.797-26.059-12.33L301.998,356.207z"/>
		</g>
		<g>
			<path fill="#E0D5CC" d="M374.588,89.001c0,0,2.185-19.332,15.493-29.027c9.29,5.505,3.835,27.792,3.835,27.792"/>
			<path fill="#3C2517" d="M374.588,91.621c-0.097,0-0.197-0.007-0.296-0.02c-1.438-0.16-2.47-1.458-2.311-2.893
				c0.098-0.838,2.477-20.596,16.559-30.851c0.846-0.616,1.979-0.669,2.876-0.137c10.654,6.314,5.649,28.191,5.046,30.668
				c-0.35,1.404-1.768,2.26-3.168,1.92c-1.405-0.343-2.264-1.761-1.921-3.166c1.188-4.876,3.222-18.782-1.308-23.825
				c-10.868,9.243-12.858,25.802-12.875,25.975C377.038,90.632,375.902,91.621,374.588,91.621z"/>
		</g>
		<g>
			<path fill="#FFF3EA" d="M386.261,81.133c0,0,46.016,12.798,58.616,40.46c12.605,27.659-10.148,31.26-29.3,29.79
				c-19.148-1.475-38.463-18.66-38.463-18.66l-7.528-32.575C369.586,100.148,376.961,77.991,386.261,81.133z"/>
			<path fill="#3C2517" d="M422.491,154.278c-2.255,0-4.646-0.097-7.114-0.286c-19.804-1.521-39.188-18.586-40.004-19.315
				c-0.405-0.36-0.688-0.835-0.812-1.368l-7.527-32.572c-0.106-0.469-0.087-0.956,0.065-1.418
				c1.172-3.521,7.526-21.112,17.346-21.112c0.893,0,1.788,0.146,2.655,0.443c1.79,0.492,47.2,13.41,60.161,41.858
				c4.646,10.195,5.1,18.323,1.346,24.161C444.501,151.043,435.718,154.278,422.491,154.278z M379.471,131.292
				c3.389,2.846,20.127,16.233,36.311,17.478c2.333,0.18,4.59,0.272,6.711,0.272c7.788,0,17.876-1.251,21.707-7.209
				c2.729-4.24,2.157-10.688-1.704-19.159c-11.945-26.214-56.487-38.896-56.937-39.022c-0.47-0.153-0.789-0.21-1.114-0.21
				c-4.371,0-9.612,9.626-12.14,16.846L379.471,131.292z"/>
		</g>
		<g>
			<path fill="#FFFFFF" d="M399.847,103.62c0,0,2.66-5.792,7.825,1.88c5.166,7.669,0.521,12.968-5.478,10.488
				C397.653,114.108,396.402,110.04,399.847,103.62z"/>
			<path fill="#3C2517" d="M405.086,119.223c-1.275,0-2.583-0.272-3.892-0.812c-3.428-1.425-4.846-3.675-5.433-5.315
				c-1.055-2.953-0.455-6.554,1.778-10.715c0.097-0.226,1.69-3.478,5.159-3.478c2.484,0,4.818,1.681,7.146,5.132
				c2.785,4.141,3.437,8.304,1.771,11.427C410.365,117.815,407.922,119.223,405.086,119.223z M402.7,104.142
				c-0.127,0.057-0.42,0.456-0.474,0.569c-1.556,2.906-2.058,5.146-1.53,6.624c0.339,0.948,1.154,1.677,2.503,2.233
				c0.669,0.276,1.304,0.416,1.887,0.416c0.63,0,1.475-0.167,1.907-0.982c0.549-1.032,0.446-3.162-1.49-6.041
				C403.975,104.695,402.942,104.156,402.7,104.142z"/>
		</g>
		<g>
			<ellipse fill="#3C2517" cx="406.048" cy="111.997" rx="3.854" ry="3.991"/>
		</g>
		<g>
			<path fill="#C7B7AB" d="M184.022,311.146c0,0,6.494,14.886,1.91,17.994c-4.583,3.112-10.312,10.149-10.641,10.969
				c-0.327,0.818-2.128,2.615-2.128,5.564c0,2.942-1.144,6.059-3.274,6.711c-2.127,0.651-4.254,0.651-4.746,4.094
				c-0.49,3.436-8.674,10.638-8.348,12.602c0.329,1.965,1.475,6.877,1.475,7.529c0,0.651,1.801,5.072,0.163,6.55
				c-1.638,1.473-6.059,4.088-8.186,3.602c-2.126-0.491-10.801-0.817-11.948-2.129c-1.146-1.312-6.711-6.552-6.711-13.754
				c0-7.194-1.308-11.948-3.271-15.058c-1.967-3.109-5.401-9.985-5.401-9.985l-6.059-41.41
				C116.857,304.424,185.383,282.346,184.022,311.146z"/>
			<path fill="#3C2517" d="M150.831,389.436c-0.41,0-0.806-0.039-1.172-0.125c-0.529-0.119-1.944-0.268-3.314-0.412
				c-5.955-0.612-8.698-1.039-10.016-2.543l-0.38-0.414c-1.906-2.058-6.979-7.508-6.979-15.063c0-6.051-0.966-10.646-2.87-13.66
				c-2.011-3.182-5.385-9.926-5.528-10.211c-0.127-0.247-0.21-0.513-0.249-0.793l-6.055-41.409
				c-0.188-1.266,0.568-2.478,1.787-2.873c1.038-0.332,25.722-8.215,45.424-8.215c10.121,0,17.304,2.15,21.345,6.385
				c2.619,2.746,3.907,6.289,3.831,10.547c1.91,4.511,6.42,16.812,0.748,20.66c-3.961,2.688-9.116,8.861-9.778,9.979
				c-0.027,0.106-0.27,0.532-0.6,1.039c-0.553,0.846-1.241,1.903-1.241,3.348c0,3.802-1.585,8.122-5.123,9.214
				c-0.342,0.105-0.686,0.199-1.024,0.286c-1.661,0.433-1.725,0.452-1.9,1.671c-0.337,2.362-2.34,4.906-5.356,8.516
				c-0.998,1.197-2.463,2.941-2.915,3.767c0.156,0.84,0.402,1.998,0.64,3.129c0.542,2.576,0.735,3.535,0.775,4.114
				c0.032,0.133,0.079,0.307,0.137,0.505c0.571,2.104,1.631,6.013-0.833,8.229C158.506,386.615,154.036,389.436,150.831,389.436z
				 M140.04,382.654c1.128,0.445,4.959,0.838,6.84,1.037c1.741,0.174,3.112,0.319,3.961,0.514l-0.01-0.007
				c1.201,0,4.193-1.591,5.665-2.829c0.073-0.493-0.106-1.538-0.536-3.116c-0.192-0.711-0.31-1.144-0.31-1.644
				c-0.036-0.26-0.402-2.004-0.673-3.275c-0.303-1.438-0.612-2.93-0.765-3.82c-0.356-2.123,1.342-4.152,4.147-7.51
				c1.404-1.686,4.027-4.818,4.193-5.896c0.666-4.66,3.848-5.5,5.751-5.998c0.271-0.073,0.543-0.146,0.815-0.227
				c0.482-0.146,1.425-1.771,1.425-4.208c0-2.995,1.358-5.085,2.091-6.211c0.105-0.159,0.203-0.3,0.266-0.419
				c0.6-1.512,6.81-8.846,11.56-12.07c1.252-0.85,0.189-7.839-2.839-14.781c-0.163-0.369-0.236-0.767-0.216-1.168
				c0.146-3.092-0.63-5.481-2.37-7.311c-2.972-3.111-9.043-4.76-17.557-4.76c-15.647,0-35.305,5.423-41.702,7.32l5.668,38.768
				c0.735,1.458,3.468,6.822,5.086,9.379c2.439,3.868,3.677,9.4,3.677,16.456c0,5.499,4.055,9.858,5.579,11.496L140.04,382.654z"/>
		</g>
		<g>
			<path fill="#E0D5CC" d="M384.644,91.311c0,0,5.564-8.84,0-11.46c-5.565-2.616-4.584-4.909-7.528-6.873
				c-2.946-1.964-14.076-1.309-20.626,0c-6.547,1.308-10.148,1.308-9.493,5.891c0.656,4.583-4.909,9.496-7.202,12.441
				c-2.29,2.946-4.584,3.928-4.909,8.185c-0.327,4.254-5.238,14.402-4.584,18.985c0.655,4.583,2.293,10.804,2.619,14.732
				c0.327,3.928-4.583,13.094-7.858,19.971c-3.271,6.873-9.492,10.8-8.511,16.04c0.981,5.239-0.981,9.822-2.62,16.695
				c-1.634,6.876-3.271,8.185-5.891,10.148s-1.308,4.909-1.638,9.822c-0.325,4.909-5.893,11.786-2.945,13.42
				c2.945,1.638,5.484,6.877-0.855,7.529c-6.348,0.656-6.672-3.928-11.256-7.529c-4.584-3.602-7.529-7.199-14.731-7.199
				c-7.203,0-0.656,8.181-6.222,5.891c-5.563-2.293-9.492-1.308-11.785-6.547c-2.291-5.239-0.326-6.876-6.873-5.895
				c-6.547,0.985-1.638,5.239-14.405,5.239c-12.766,0-14.402-5.891-20.623-6.873c-6.221-0.982-20.297,1.634-26.188,2.619
				c-5.896,0.982-7.859-2.949-14.732-5.895c-6.877-2.946-13.094-3.272-20.626-4.254c-7.529-0.985-9.819-4.913-18.985-2.619
				c-9.167,2.29-15.058,6.873-15.058,6.873s-12.113,4.257-18.989,4.257c-6.873,0-7.202,1.637-7.854,4.253
				c-0.657,2.62,0.325,7.858-3.275,7.858c-3.602,0-6.221,0-8.837,0.327c-2.62,0.329-10.152,0.655-9.822,5.238
				c0.325,4.583-2.946,16.04,0.982,16.04c3.927,0-8.841,32.738-6.222,33.72c2.62,0.982,6.222,8.513,7.202,11.783
				c0.982,3.274,1.309,5.237,0.982,6.55c-0.325,1.309-1.308,12.766-1.308,12.766s0.982,3.602-0.33,7.531
				c-1.308,3.928-6.902,15.713-6.902,15.713l-3.571,14.4c0,0,1.308,8.841,1.963,11.464c0.656,2.616,8.511,8.183,4.909,14.399
				c-3.601,6.223-4.583,12.441-3.928,15.716c0.656,3.274-0.325,4.254,1.965,7.528c2.293,3.274,4.912,8.515,6.877,9.166
				c1.963,0.652,13.093,2.291,15.057-1.963c1.964-4.262,6.547-0.326,6.547-7.203s-2.946-6.217-0.981-11.782
				c1.964-5.564,2.619-6.876,3.928-8.841c1.312-1.963,3.601-1.637,5.238-10.151c1.638-8.507,1.309-9.166,0.982-11.456
				s10.475-3.273,14.731-5.238c4.258-1.964,7.202,2.622,10.804-4.906c3.599-7.533,1.965-9.168,6.219-10.479
				c4.256-1.308,14.73-3.927,17.677-4.253c2.948-0.33,5.564,1.635,6.55-3.932c0.982-5.564,0.982-5.235,3.272-7.198
				c2.293-1.968,8.184-2.62,8.184-2.62l13.75,2.29c0,0,7.529,1.964,9.167,2.946c1.638,0.984,11.13,3.273,11.13,3.273l8.511,0.656
				c0,0,3.275-0.33,4.91,2.619c1.637,2.945,0,2.615,2.293,4.583c2.29,1.964,5.686,2.616,8.571,1.309
				c2.886-1.309,0.921-0.981,5.831-1.309c4.912-0.329,10.804,2.616,10.804,2.616s0.981,5.564,0.656,7.203
				c-0.327,1.635,4.582,4.258,5.892,3.926c1.312-0.327,5.237-0.979,6.221,1.312c0.981,2.29,1.638,5.238,1.638,8.515
				c0,3.274-0.655,0.979,0,7.528c0.653,6.544,7.854,13.421,10.476,16.044c2.619,2.614,4.256,2.941,4.256,5.891
				c0,2.941-0.328,5.893-0.328,5.893s-1.635,0.979-1.309,5.564c0.325,4.58,2.945,8.268,3.928,10.024
				c0.981,1.757,0.981,5.032,6.222,5.032c5.237,0,11.155,5.239,12.288,0c1.132-5.239,2.117-4.579,3.425-6.217
				c1.309-1.639,5.239-2.949,6.873-10.805c1.638-7.854,9.166-13.754,9.822-16.369c0.655-2.616,3.602-1.639,2.618-7.855
				c-0.98-6.225-2.618-3.927-0.98-6.225c1.635-2.289,5.891-5.564,4.253-9.491c-1.634-3.929,9.168-2.942,13.425-5.892
				c4.253-2.949,11.456-0.653,15.059-9.166c3.601-8.514,12.767-18.988,14.404-25.535c1.639-6.547,1.639-8.512,3.272-9.492
				c1.637-0.982,5.895-4.584,6.547-5.564c0.655-0.981,4.583-12.769,4.912-15.715c0.326-2.945,0.651-4.257,3.271-6.547
				c2.62-2.293,2.946-4.912,5.239-7.203c2.29-2.293,1.964-11.785,1.964-15.713s2.293-6.767,4.583-7.805
				c2.291-1.035,5.565-4.636,6.548-6.927c0.981-2.293,3.928-10.804,2.945-16.369s0.723-2.62,0.199-7.855
				c-0.526-5.239-0.908-11.46,0.1-14.08c1.014-2.616,2.593-7.855,0-16.696c-2.589-8.836-3.899-5.891-1.937-11.782
				c1.967-5.896,3.602-6.221,1.967-9.497c-1.637-3.271,1.309,0.33-2.293-5.236c-3.603-5.564-6.378-5.895-5.152-7.532
				c1.226-1.634-0.739-8.181-3.685-10.8c-2.949-2.62-0.33,0.326-5.896-7.529c-5.564-7.859-9.166-4.257-5.892-10.479
				c3.271-6.217,4.909-7.529,2.29-12.112C383.335,98.185,384.644,91.311,384.644,91.311z"/>
			<path fill="#3C2517" d="M295.544,410.2h-0.003c-1.57,0-3.199-0.56-4.923-1.159c-1.664-0.57-3.386-1.171-4.839-1.171
				c-6.02,0-7.409-3.608-8.155-5.545c-0.117-0.293-0.217-0.579-0.353-0.825c-0.131-0.234-0.297-0.507-0.479-0.818
				c-1.291-2.15-3.451-5.759-3.774-10.3c-0.263-3.674,0.576-5.75,1.401-6.876c0.09-1.045,0.229-2.922,0.229-4.766
				c0-0.92-0.053-1.006-1.465-2.204c-0.594-0.507-1.271-1.085-2.023-1.837l-0.393-0.393c-3.283-3.27-10.119-10.066-10.838-17.242
				c-0.433-4.32-0.332-5.18-0.134-6.225c0.063-0.333,0.119-0.619,0.119-1.562c0-2.685-0.505-5.34-1.424-7.482
				c0.011,0.079-0.351-0.066-1.103-0.066c-0.748,0-1.563,0.14-2.076,0.266c-0.283,0.074-0.582,0.107-0.896,0.107
				c-2.095,0-5.666-1.852-7.213-3.742c-1.103-1.346-1.146-2.562-0.989-3.346c0.1-0.621-0.133-2.816-0.442-4.878
				c-1.801-0.747-5.319-2.022-8.271-1.817l-1.87,0.115c-0.732,0.043-1.096,0.049-1.352,0.1l-0.156,0.105
				c-0.33,0.17-0.782,0.412-1.548,0.762c-3.664,1.664-8.251,0.953-11.359-1.707c-1.729-1.48-2.134-2.434-2.307-3.771
				c-0.047-0.346-0.09-0.669-0.566-1.53c-0.619-1.115-1.724-1.281-2.329-1.281c-0.188,0.022-0.311,0.021-0.497,0.004l-8.511-0.652
				c-0.136-0.014-0.275-0.033-0.412-0.066c-2.969-0.72-10.076-2.502-11.862-3.574c-0.803-0.477-5.033-1.762-8.48-2.656
				l-13.145-2.184c-2.091,0.275-5.349,1.043-6.42,1.963l-0.43,0.367c-1.219,1.027-1.219,1.027-1.971,5.303
				c-0.27,1.527-1.088,6.174-5.995,6.174c-0.416,0-0.848-0.029-1.302-0.066c-0.491-0.037-1.005-0.09-1.544-0.029
				c-2.619,0.289-12.787,2.799-17.194,4.156c-1.414,0.434-1.414,0.434-2.124,2.666c-0.476,1.506-1.131,3.563-2.502,6.432
				c-2.001,4.175-4.368,6.039-7.683,6.039c-0.526,0-1.062-0.047-1.614-0.101c-0.976-0.094-1.98-0.14-2.772,0.228
				c-1.91,0.879-4.727,1.529-7.449,2.162c-1.794,0.414-4.337,1.006-5.615,1.513c0.256,2.044,0.2,3.993-1.178,11.13
				c-1.285,6.689-3.059,8.732-4.916,10.393c-0.363,0.318-0.576,0.512-0.713,0.719c-1.138,1.711-1.711,2.795-3.638,8.261
				c-0.778,2.204-0.589,2.724-0.08,4.106c0.51,1.393,1.212,3.295,1.212,6.805c0,5.265-2.48,6.617-5.152,7.289
				c-1.159,0.293-1.345,0.379-1.638,1.012c-1.332,2.883-4.776,4.347-10.241,4.347c-3.436,0-6.817-0.599-8.022-0.997
				c-2.183-0.727-3.787-3.17-6.224-7.091c-0.666-1.077-1.328-2.144-1.967-3.062c-1.98-2.823-2.063-4.582-2.147-6.277
				c-0.033-0.699-0.066-1.365-0.24-2.236c-0.758-3.787,0.257-10.678,4.231-17.541c1.545-2.67-0.26-5.32-2.776-8.508
				c-1.165-1.479-2.083-2.643-2.41-3.947c-0.679-2.709-1.956-11.344-2.014-11.709c-0.053-0.341-0.032-0.687,0.047-1.013
				l3.575-14.403c0.039-0.172,0.1-0.336,0.173-0.496c0.057-0.117,5.541-11.687,6.786-15.416c1.029-3.094,0.293-5.984,0.287-6.016
				c-0.08-0.297-0.114-0.605-0.087-0.908c0.303-3.513,1.038-11.815,1.381-13.182c0.18-0.723-0.14-2.456-0.951-5.162
				c-1.099-3.665-4.316-9.423-5.646-10.1c-3.444-1.287-2.199-5.625,1.498-18.502c1.465-5.112,3.595-12.542,3.811-15.458
				c-0.473-0.233-0.896-0.559-1.258-0.965c-2.047-2.313-1.514-6.63-0.905-11.629c0.253-2.08,0.52-4.23,0.433-5.455
				c-0.476-6.681,8.082-7.592,11.307-7.935l0.803-0.086c2.778-0.35,5.458-0.35,9.163-0.35c0.196-0.283,0.31-1.974,0.366-2.886
				c0.066-1.008,0.133-2.057,0.369-2.985c1.058-4.257,2.879-6.241,10.395-6.241c5.708,0,15.717-3.292,17.751-3.981
				c1.494-1.085,7.275-4.976,15.659-7.073c2.113-0.526,4.015-0.782,5.812-0.782c3.303,0,5.732,0.873,8.082,1.718
				c1.801,0.646,3.661,1.314,6.071,1.627c1.222,0.16,2.413,0.304,3.575,0.443c5.987,0.716,11.645,1.395,17.736,4.004
				c2.663,1.142,4.674,2.437,6.287,3.475c2.933,1.887,4.334,2.683,6.983,2.24l1.904-0.32c6.88-1.171,19.472-3.191,25.123-2.303
				c2.875,0.456,4.926,1.748,6.906,2.996c3.006,1.891,6.111,3.848,13.311,3.848c6.443,0,7.329-1.038,8.184-2.043
				c1.179-1.381,2.517-2.666,5.833-3.162c1.36-0.206,2.372-0.303,3.188-0.303c4.156,0,4.902,2.72,5.449,4.7
				c0.234,0.862,0.502,1.837,1.024,3.036c1.091,2.496,2.462,2.849,5.468,3.625c1.146,0.293,2.406,0.619,3.801,1.118
				c0.047-1.228,0.317-2.732,1.488-3.941c1.105-1.142,2.736-1.717,4.85-1.717c6.996,0,10.715,3.095,14.306,6.091
				c0.657,0.546,1.329,1.111,2.045,1.67c1.743,1.368,2.905,2.806,3.931,4.071c2.026,2.5,2.8,3.175,5.438,2.912
				c1.295-0.133,1.638-0.466,1.641-0.469c0-0.296-0.712-1.571-1.787-2.167c-3.808-2.114-1.863-6.587-0.304-10.175
				c0.848-1.94,1.802-4.137,1.908-5.708c0.093-1.368,0.043-2.556-0.003-3.711c-0.113-2.872-0.233-5.845,2.682-8.031
				c2.314-1.737,3.477-2.606,4.916-8.661c0.388-1.627,0.793-3.129,1.176-4.54c1.194-4.43,2.061-7.636,1.419-11.067
				c-0.819-4.354,1.862-7.832,4.455-11.193c1.528-1.984,3.112-4.034,4.265-6.454c0.533-1.122,1.111-2.303,1.701-3.511
				c2.439-4.996,6.124-12.542,5.91-15.118c-0.173-2.064-0.771-4.999-1.351-7.838c-0.47-2.296-0.955-4.67-1.252-6.737
				c-0.469-3.298,1.115-8.071,2.646-12.685c0.894-2.669,1.812-5.435,1.919-6.873c0.312-4.041,2.09-5.918,3.811-7.735
				c0.526-0.553,1.086-1.142,1.646-1.857c0.496-0.642,1.146-1.378,1.852-2.177c2.061-2.326,5.173-5.841,4.823-8.284
				c-0.93-6.503,4.272-7.465,9.306-8.401c0.71-0.13,1.469-0.273,2.268-0.433c3.98-0.795,9.083-1.288,13.32-1.288
				c6.75,0,8.647,1.265,9.271,1.677c1.604,1.069,2.393,2.264,3.031,3.215c0.782,1.179,1.458,2.197,4.161,3.472
				c1.848,0.866,3.111,2.323,3.664,4.21c1.175,4.021-1.352,8.931-2.279,10.535c-0.286,1.97-0.522,6.427,1.081,9.24
				c2.956,5.172,1.501,7.805-0.911,12.172c-0.403,0.729-0.854,1.542-1.335,2.459c-0.39,0.739-0.619,1.229-0.757,1.551
				c0.062,0.04,0.123,0.077,0.189,0.123c1.375,0.893,3.675,2.393,6.282,6.068c2.006,2.833,2.961,4.28,3.497,5.089
				c0.247,0.373,0.358,0.565,0.477,0.706c0.053,0.05,0.136,0.113,0.256,0.213c0.271,0.223,0.655,0.539,1.263,1.075
				c3.015,2.679,5.915,9.506,4.608,13.247c0.063,0.063,0.131,0.13,0.2,0.196c1.068,1.049,2.683,2.633,4.489,5.425
				c1.545,2.39,2.514,3.884,2.312,5.242c0.034,0.073,0.077,0.156,0.12,0.246c1.671,3.335,0.836,5.173-0.22,7.496
				c-0.453,0.992-1.012,2.223-1.602,4c-0.923,2.763-0.923,2.763-0.393,3.897c0.542,1.166,1.36,2.926,2.359,6.321
				c3.028,10.338,0.692,16.389-0.073,18.373c-0.363,0.945-0.839,3.875,0.06,12.874c0.29,2.879-0.01,3.941-0.397,4.933
				c-0.087,0.213-0.21,0.533,0.176,2.729c1.285,7.289-3.071,17.753-3.119,17.857c-1.16,2.706-4.852,6.917-7.875,8.281
				c-1.465,0.663-3.041,2.64-3.041,5.419l0.006,1.318c0.055,7.066-0.12,13.626-2.739,16.246c-0.809,0.812-1.324,1.721-1.921,2.775
				c-0.798,1.418-1.702,3.024-3.443,4.547c-1.984,1.736-2.114,2.332-2.394,4.865c-0.35,3.155-4.32,15.354-5.336,16.875
				c-0.987,1.481-5.603,5.297-7.38,6.357c-0.314,0.306-0.726,2.105-1.124,3.848c-0.253,1.112-0.557,2.436-0.955,4.038
				c-0.984,3.938-4.134,8.743-7.466,13.822c-2.7,4.114-5.492,8.37-7.066,12.095c-2.912,6.882-8.071,8.047-11.843,8.893
				c-1.675,0.381-3.122,0.705-4.138,1.412c-2.228,1.537-5.479,2.149-8.344,2.688c-1.212,0.228-2.902,0.546-3.855,0.879
				c1.216,4.214-1.82,7.668-3.677,9.792c-0.359,0.406-0.699,0.786-0.979,1.145c0.421,0.887,0.896,2.258,1.256,4.533
				c0.793,5.014-0.633,6.844-2.16,8.295c-0.445,0.426-0.47,0.473-0.506,0.605c-0.375,1.512-1.595,2.988-3.275,5.04
				c-2.362,2.875-5.601,6.815-6.522,11.229c-1.45,6.977-4.634,9.586-6.536,11.149c-0.341,0.28-0.729,0.601-0.854,0.76
				c-0.496,0.618-0.966,1.011-1.309,1.304c-0.532,0.453-0.951,0.812-1.604,3.828C300.024,408.602,298.171,410.2,295.544,410.2z
				 M278.616,386.641c-0.12,0.207-0.536,1.1-0.378,3.368c0.238,3.296,1.929,6.117,3.047,7.981c0.213,0.359,0.406,0.679,0.559,0.951
				c0.247,0.447,0.457,0.959,0.667,1.498c0.599,1.552,0.845,2.196,3.269,2.196c2.332,0,4.576,0.772,6.551,1.458
				c1.182,0.406,2.396,0.825,3.107,0.865c0.023-0.066,0.047-0.152,0.07-0.26c0.955-4.406,1.98-5.559,3.324-6.711
				c0.194-0.158,0.4-0.325,0.613-0.592c0.473-0.586,1.031-1.045,1.624-1.531c1.544-1.271,3.656-3.002,4.731-8.168
				c1.184-5.678,4.895-10.191,7.604-13.486c0.876-1.064,2.069-2.521,2.254-3.021c0.398-1.604,1.345-2.504,1.97-3.096
				c0.613-0.586,1.019-0.972,0.593-3.681c-0.401-2.544-0.868-3.243-1.067-3.543c-1.328-1.989-0.337-3.382,0.543-4.606
				c0.393-0.552,0.915-1.158,1.482-1.804c1.841-2.097,3.097-3.694,2.483-5.159c-0.522-1.258-0.485-2.549,0.106-3.642
				c1.244-2.31,4.333-2.89,7.908-3.562c2.354-0.445,5.021-0.945,6.334-1.851c1.852-1.285,3.947-1.759,5.968-2.211
				c3.525-0.798,6.305-1.425,8.173-5.825c1.756-4.161,4.679-8.618,7.508-12.93c2.949-4.488,5.995-9.139,6.768-12.221
				c0.391-1.555,0.683-2.85,0.928-3.932c0.862-3.773,1.339-5.852,3.534-7.173c1.375-0.821,5.142-4.024,5.746-4.812
				c0.578-1.148,4.185-12.033,4.46-14.51c0.388-3.462,0.918-5.402,4.15-8.23c1.064-0.933,1.653-1.971,2.333-3.176
				c0.683-1.211,1.461-2.59,2.779-3.903c0.849-0.988,1.258-5.199,1.201-12.506l-0.007-1.357c0-5.126,3.075-8.814,6.124-10.188
				c1.574-0.713,4.453-3.788,5.22-5.579c1.197-2.793,3.562-10.425,2.775-14.878c-0.55-3.105-0.406-4.267,0.103-5.562
				c0.11-0.279,0.254-0.632,0.063-2.49c-0.803-8.012-0.719-12.725,0.267-15.277c1.06-2.743,2.196-7.279-0.068-15.018
				c-0.883-3.019-1.605-4.563-2.081-5.582c-1.306-2.802-1.168-3.744,0.173-7.768c0.676-2.03,1.325-3.465,1.801-4.507
				c0.855-1.887,0.855-1.887,0.308-2.989c-0.381-0.755-0.886-1.771-0.816-2.839c-0.219-0.382-0.612-1.035-1.334-2.146
				c-1.49-2.307-2.803-3.595-3.758-4.534c-1.132-1.112-3.212-3.155-1.448-5.769c0.163-1.244-1.121-5.674-3.172-7.495
				c-0.535-0.476-0.879-0.755-1.115-0.952c-0.862-0.713-1.027-0.945-1.771-2.071c-0.521-0.789-1.45-2.193-3.405-4.949
				c-2.026-2.862-3.664-3.931-4.862-4.707c-3.621-2.363-3.302-4.533-1.208-8.504c0.499-0.956,0.965-1.797,1.381-2.55
				c2.219-4.01,2.446-4.43,0.952-7.042c-3.062-5.362-1.668-12.928-1.606-13.251c0.06-0.316,0.18-0.622,0.353-0.898
				c1.118-1.791,2.466-5.069,1.971-6.76c-0.093-0.319-0.263-0.652-0.864-0.938c-4.024-1.894-5.286-3.784-6.295-5.309
				c-0.525-0.792-0.846-1.268-1.573-1.754c-0.047-0.033-1.259-0.799-6.364-0.799c-3.857,0-8.681,0.466-12.292,1.185
				c-0.825,0.167-1.606,0.313-2.34,0.446c-5.296,0.982-5.271,1.155-5.077,2.51c0.693,4.839-3.224,9.266-6.087,12.498
				c-0.622,0.706-1.198,1.351-1.641,1.917c-0.674,0.869-1.342,1.581-1.975,2.247c-1.479,1.561-2.224,2.346-2.391,4.533
				c-0.162,2.081-1.091,4.883-2.169,8.128c-1.215,3.658-2.73,8.215-2.435,10.289c0.276,1.914,0.743,4.21,1.198,6.431
				c0.636,3.125,1.241,6.077,1.438,8.454c0.309,3.731-2.342,9.489-6.426,17.847c-0.581,1.195-1.149,2.36-1.678,3.465
				c-1.394,2.926-3.225,5.303-4.845,7.402c-2.381,3.089-3.825,5.08-3.459,7.033c0.865,4.607-0.232,8.681-1.508,13.394
				c-0.37,1.368-0.764,2.819-1.136,4.387c-1.787,7.516-3.773,9.32-6.869,11.636c-0.615,0.466-0.699,0.972-0.594,3.635
				c0.054,1.232,0.11,2.626,0,4.267c-0.166,2.479-1.313,5.119-2.33,7.452c-0.521,1.202-1.277,2.933-1.439,3.821
				c2.398,1.587,4.396,4.7,3.804,7.585c-0.303,1.484-1.511,4.041-6.185,4.523c-5.765,0.592-8.005-2.307-10.041-4.823
				c-0.896-1.105-1.821-2.247-3.099-3.252c-0.757-0.593-1.47-1.185-2.162-1.764c-3.397-2.833-5.854-4.879-10.953-4.879
				c-0.86,0-1.129,0.16-1.131,0.163c0,0.114,0.021,0.853,0.032,1.295c0.037,1.122,0.087,2.656-1.032,3.812
				c-0.455,0.469-1.264,1.028-2.539,1.028l0,0c-0.737,0-1.551-0.19-2.545-0.599c-1.506-0.623-2.894-0.979-4.231-1.325
				c-3.364-0.865-6.843-1.764-8.956-6.597c-0.675-1.541-1.025-2.812-1.277-3.745c-0.08-0.283-0.166-0.602-0.246-0.845
				c-0.463-0.014-1.365,0.057-2.563,0.236c-1.653,0.25-1.959,0.603-2.622,1.385c-1.877,2.2-3.964,3.884-12.172,3.884
				c-8.711,0-12.809-2.583-16.1-4.657c-1.745-1.098-3.119-1.964-4.93-2.25c-0.779-0.124-1.771-0.184-2.956-0.184
				c-5.971,0-15.047,1.548-20.474,2.47l-1.92,0.33c-0.759,0.123-1.494,0.187-2.196,0.187c-3.534,0-5.941-1.548-8.491-3.192
				c-1.524-0.982-3.251-2.097-5.509-3.065c-5.401-2.313-10.448-2.919-16.296-3.618c-1.181-0.14-2.393-0.283-3.638-0.446
				c-2.965-0.39-5.195-1.188-7.159-1.897c-2.19-0.789-3.918-1.408-6.312-1.408c-1.36,0-2.849,0.207-4.539,0.629
				c-8.468,2.117-14.037,6.36-14.093,6.407c-0.22,0.166-0.47,0.306-0.735,0.396c-0.513,0.18-12.615,4.407-19.854,4.407
				c-4.75,0-4.85,0.42-5.292,2.177c-0.144,0.569-0.193,1.372-0.243,2.15c-0.166,2.526-0.506,7.785-5.595,7.785
				c-3.519,0-6.055,0-8.514,0.307l-0.896,0.103c-4.48,0.476-6.717,1.268-6.641,2.35c0.123,1.731-0.156,4.034-0.453,6.467
				c-0.256,2.081-0.709,5.772-0.419,7.23c0.713,0.173,1.348,0.585,1.804,1.191c1.688,2.24,0.836,6.368-3.201,20.436
				c-1.306,4.544-3.033,10.581-3.289,12.944c3.812,2.88,6.916,11.021,7.423,12.711c1.175,3.921,1.461,6.145,1.011,7.934
				c-0.179,0.831-0.745,6.655-1.204,11.955c0.259,1.28,0.766,4.782-0.489,8.536c-1.251,3.767-6.082,14.022-6.907,15.769
				l-3.384,13.645c0.412,2.749,1.357,8.779,1.836,10.698c0.12,0.299,0.886,1.264,1.442,1.971c2.486,3.147,6.646,8.42,3.194,14.378
				c-3.491,6.037-4.08,11.616-3.624,13.893c0.253,1.259,0.3,2.23,0.333,3.01c0.066,1.332,0.097,1.943,1.208,3.527
				c0.689,0.985,1.407,2.139,2.127,3.304c1.038,1.671,2.779,4.473,3.555,4.933c0.495,0.159,3.302,0.678,6.241,0.678
				c3.584,0,5.242-0.777,5.484-1.304c1.361-2.95,3.709-3.534,5.112-3.896c0.323-0.078,0.81-0.198,0.933-0.293l0,0
				c-0.004,0,0.263-0.385,0.263-1.916c0-2.576-0.452-3.801-0.886-4.993c-0.795-2.149-1.255-3.96,0.054-7.661
				c2.015-5.712,2.75-7.217,4.221-9.42c0.513-0.778,1.081-1.285,1.581-1.73c1.035-0.918,2.206-1.964,3.266-7.463
				c1.431-7.447,1.28-8.447,1.031-10.099l-0.07-0.492c-0.543-3.774,4.014-4.833,9.785-6.171c2.471-0.572,5.017-1.158,6.438-1.816
				c1.655-0.767,3.611-0.858,5.455-0.68c0.384,0.033,0.76,0.073,1.129,0.073c0.629,0,1.494,0,2.956-3.056
				c1.214-2.545,1.78-4.326,2.236-5.761c0.858-2.706,1.541-4.85,5.575-6.092c4.366-1.341,14.987-4.004,18.16-4.356
				c0.861-0.093,1.718-0.047,2.519,0.018c0.516,0.04,1.133,0.051,1.226,0.029c-0.017-0.033,0.272-0.467,0.51-1.823
				c0.961-5.445,1.181-6.222,3.744-8.392l0.405-0.343c2.767-2.374,8.481-3.112,9.601-3.235c0.239-0.025,0.482-0.021,0.721,0.021
				l13.75,2.29c2.08,0.532,8.262,2.193,10.082,3.285c0.909,0.499,5.958,1.895,10.195,2.922l8.121,0.626
				c0.076,0,0.17-0.003,0.271-0.003c1.104,0,4.855,0.287,6.905,3.979c0.883,1.584,1.075,2.571,1.179,3.375
				c0.087,0.092,0.249,0.246,0.529,0.488c1.57,1.35,3.957,1.744,5.784,0.911c0.616-0.278,0.985-0.476,1.253-0.614
				c1.251-0.666,1.713-0.693,3.661-0.807l1.826-0.115c5.516-0.354,11.896,2.762,12.149,2.889c0.742,0.373,1.266,1.072,1.407,1.892
				c0.283,1.601,0.862,5.229,0.739,7.378c0.642,0.602,2.177,1.428,2.898,1.593c0.637-0.14,1.783-0.346,3.043-0.346
				c3.938,0,5.396,2.022,5.913,3.235c1.212,2.821,1.851,6.123,1.851,9.547c0,1.33-0.1,1.943-0.213,2.549
				c-0.086,0.46-0.18,0.932,0.201,4.72c0.528,5.306,6.689,11.431,9.318,14.046l0.398,0.398c0.641,0.64,1.216,1.133,1.719,1.559
				c1.628,1.385,3.309,2.815,3.309,6.191c0,3.056-0.333,6.05-0.343,6.177C279.468,385.596,279.132,386.214,278.616,386.641z"/>
		</g>
		<g>
			<path fill="#E0D5CC" d="M81.88,206.278c0,0-5.729-0.799-8.393-2.13c-2.661-1.335-4.792-1.202-7.721,0
				c-2.933,1.198-7.06,3.864-8.258,6.127c-1.202,2.263-4.93,3.728-4.664,6.657c0.268,2.929-0.665,5.196-2.263,7.992
				c-1.598,2.796-5.861,4.127-4.396,7.326c1.468,3.195,6.526,5.192,8.793,10.118c2.261,4.933,7.189,10.92,10.118,8.396
				c2.93-2.534-0.398-6.129,5.329-4.667c5.725,1.471,9.19,4.13,13.188,2c3.994-2.131,4.128-4.395,5.589-7.323
				c1.468-2.932,3.997-2.799,3.198-5.195c-0.799-2.396,1.904-1.198,0.153-5.062c-1.751-3.861,0.38-5.459,1.311-7.988
				c0.936-2.533,2.53-5.462,0.803-7.459c-1.733-2-3.065-3.998-4.264-4.929C89.202,209.208,87.607,204.015,81.88,206.278z"/>
			<path fill="#3C2517" d="M63.523,253.982c-4.813,0-9.134-6.614-10.928-10.52c-1.016-2.213-2.829-3.784-4.583-5.305
				c-1.705-1.478-3.315-2.873-4.208-4.816c-1.746-3.818,1.035-6.308,2.697-7.795c0.712-0.64,1.447-1.298,1.807-1.92
				c1.405-2.463,2.134-4.224,1.928-6.454c-0.28-3.119,1.856-5.066,3.418-6.487c0.639-0.582,1.298-1.185,1.537-1.634
				c1.691-3.192,6.657-6.131,9.583-7.326c3.898-1.598,6.654-1.534,9.886,0.08c1.501,0.749,4.816,1.448,6.957,1.787
				c1.008-0.333,1.989-0.499,2.925-0.499c4.037,0,6.134,3.019,7.144,4.473c0.165,0.246,0.309,0.462,0.445,0.612
				c0.896,0.683,1.808,1.831,2.863,3.156c0.505,0.642,1.055,1.331,1.65,2.02c2.52,2.906,1.062,6.577,0.093,9.007
				c-0.143,0.36-0.287,0.719-0.412,1.072c-0.276,0.746-0.636,1.431-0.993,2.104c-0.831,1.544-1.171,2.183-0.396,3.897
				c1.103,2.43,1.125,4.101,0.047,5.651c0.746,2.873-1.079,4.414-1.975,5.176c-0.578,0.492-1.078,0.916-1.464,1.684
				c-0.279,0.566-0.509,1.105-0.732,1.624c-0.938,2.211-2,4.721-5.967,6.84c-1.396,0.742-2.823,1.102-4.368,1.102h-0.003
				c-2.2,0-4.287-0.742-6.5-1.531c-1.315-0.469-2.673-0.955-4.198-1.344c-0.266-0.066-0.485-0.12-0.676-0.153
				c-0.199,1.159-0.625,2.825-2.293,4.264C65.872,253.552,64.738,253.982,63.523,253.982z M69.823,205.815
				c-0.845,0-1.79,0.233-3.065,0.756c-2.839,1.162-6.21,3.558-6.936,4.93c-0.666,1.258-1.718,2.213-2.644,3.059
				c-0.872,0.792-1.773,1.611-1.724,2.137c0.326,3.575-0.752,6.297-2.6,9.526c-0.778,1.365-1.884,2.354-2.862,3.225
				c-0.522,0.473-1.397,1.255-1.495,1.578c0.486,1.042,1.682,2.081,2.946,3.175c1.971,1.708,4.42,3.835,5.911,7.077
				c2.02,4.4,5.046,7.282,6.084,7.455c0.354-0.326,0.43-0.654,0.557-1.494c0.159-1.012,0.636-4.097,4.313-4.097
				c0.762,0,1.641,0.133,2.766,0.419c1.757,0.449,3.298,1.002,4.66,1.488c1.851,0.655,3.444,1.228,4.742,1.228l0,0
				c0.677,0,1.278-0.156,1.9-0.489c2.333-1.244,2.79-2.316,3.618-4.264c0.257-0.612,0.533-1.251,0.865-1.92
				c0.863-1.728,2.004-2.696,2.761-3.335c0.065-0.06,0.136-0.113,0.198-0.167c-0.476-1.794,0.047-2.929,0.652-3.734
				c-0.056-0.167-0.146-0.416-0.303-0.769c-1.851-4.074-0.465-6.653,0.543-8.534c0.246-0.466,0.506-0.929,0.695-1.441
				c0.144-0.393,0.3-0.792,0.466-1.198c0.497-1.248,1.249-3.139,0.812-3.642c-0.648-0.745-1.241-1.494-1.794-2.19
				c-0.81-1.015-1.577-1.977-2.098-2.386c-0.575-0.446-0.98-1.032-1.413-1.654c-1.306-1.881-2.298-2.72-4.541-1.837
				c-0.419,0.167-0.871,0.223-1.324,0.157c-0.629-0.086-6.238-0.902-9.197-2.38C71.389,206.025,70.616,205.815,69.823,205.815z"/>
		</g>
		<g>
			<path fill="#E0D5CC" d="M360.09,94.42c0,0-3.436-19.152,6.547-32.246c10.479,2.62,11.622,25.536,11.622,25.536"/>
			<path fill="#3C2517" d="M360.09,97.04c-1.249,0-2.351-0.889-2.576-2.157c-0.149-0.829-3.521-20.443,7.043-34.295
				c0.632-0.833,1.71-1.205,2.717-0.956c12.012,3.005,13.477,25.402,13.603,27.949c0.073,1.444-1.041,2.673-2.483,2.742
				c-1.421,0.08-2.676-1.038-2.749-2.479c-0.257-5.012-2.279-18.922-8.063-22.457c-7.738,11.929-4.939,28.401-4.909,28.575
				c0.253,1.421-0.695,2.782-2.117,3.039C360.396,97.023,360.239,97.04,360.09,97.04z"/>
		</g>
	</g>
</g>
</svg>
