<?xml version="1.0" encoding="utf-8"?>
<!-- Generator: Adobe Illustrator 16.0.0, SVG Export Plug-In . SVG Version: 6.00 Build 0)  -->
<!DOCTYPE svg PUBLIC "-//W3C//DTD SVG 1.1//EN" "http://www.w3.org/Graphics/SVG/1.1/DTD/svg11.dtd">
<svg version="1.1" id="Layer_1" xmlns="http://www.w3.org/2000/svg" xmlns:xlink="http://www.w3.org/1999/xlink" x="0px" y="0px"
	 width="500px" height="500px" viewBox="0 0 500 500" enable-background="new 0 0 500 500" xml:space="preserve">
<g id="Layer_1_copy_21">
	<g>
		<path fill="#DDD4CB" d="M33.547,201.589c0,0-0.718,140.104,125.915,191.988c105.05,39.215,190.673-4.438,190.673-4.438
			s105.056-37.315,120.162-184.702l-207.224-25.301L33.547,201.589z"/>
		<path fill="#2C2010" d="M249.583,412.951h-0.004c-31.103,0-61.776-5.564-91.174-16.543
			C31.262,344.32,30.516,202.998,30.522,201.576c0.006-1.55,1.187-2.846,2.731-2.994l229.526-22.456
			c0.214-0.026,0.441-0.021,0.658,0.007l207.225,25.305c1.637,0.197,2.811,1.671,2.645,3.308
			c-7.899,77.033-40.594,123.799-66.635,149.465c-27.377,26.99-52.708,36.75-55.337,37.713
			C347.987,393.602,308.062,412.951,249.583,412.951z M36.645,204.327c0.804,19.648,10.401,139.922,123.965,186.45
			c28.633,10.688,58.593,16.123,88.97,16.123c58.289,0.004,98.78-20.25,99.181-20.453c0.114-0.059,0.239-0.111,0.359-0.156
			c1.026-0.365,102.037-38.018,117.849-179.211L263.04,182.181L36.645,204.327z"/>
	</g>
	<g>
		<path fill="#CEC4BC" d="M470.297,201.589c0,30.926-97.769,55.981-218.376,55.981c-120.602,0-218.374-25.055-218.374-55.981
			c0-30.919,97.772-55.982,218.374-55.982C372.528,145.607,470.297,170.67,470.297,201.589z"/>
		<path fill="#2C2010" d="M251.921,260.598c-108.83,0-221.398-22.075-221.398-59.009c0-36.935,112.568-59.007,221.398-59.007
			c108.828,0,221.401,22.072,221.401,59.007C473.322,238.523,360.749,260.598,251.921,260.598z M251.921,148.634
			c-128.813,0-215.346,27.383-215.346,52.956c0,25.578,86.532,52.957,215.346,52.957c128.815,0,215.348-27.379,215.348-52.957
			C467.269,176.017,380.736,148.634,251.921,148.634z"/>
	</g>
	<g>
		<path fill="#E8E15C" d="M40.64,208.088c0,0-9.447-24.623,47.464-37.068s78.918-29.533,78.918-29.533s62.599-12.454,76.767-4.152
			c14.168,8.3,42.602,6.753,57.388,2.272c14.79-4.482,53.414-2.776,66.249,0.91s35.76,20.218,40.562,24.811
			c4.803,4.593,53.62,15.792,57.196,24.186c3.581,8.395,22.723,58.548-216.798,65.621C67.857,242.536,60.72,224.094,40.64,208.088z"
			/>
	</g>
	<g>
		<g>
			<path fill="#F2EF8B" d="M456.45,209.532c0,0-25.028-14.693-21.354,14.369l-9.032,11.419l-5,4.666c0,0-19.474-31.399,8.104-52.992
				c18.396-15.391,41.673,6.554,41.673,6.554L456.45,209.532z"/>
		</g>
		<g>
			<path fill="#DDD769" d="M467.248,205.747c-4.42,4.123-9.982,5.349-12.421,2.738c-2.436-2.617-0.825-8.077,3.595-12.204
				c4.42-4.123,9.979-5.345,12.418-2.735C473.277,196.158,471.668,201.627,467.248,205.747z"/>
		</g>
	</g>
	<g>
		<g>
			<path fill="#F2EF8B" d="M138.961,176.088c0,0-27.815,8.281-4.058,25.415l2.187,14.396v6.84c0,0-36.237-7.183-33.22-42.076
				c1.295-23.948,33.22-25.999,33.22-25.999L138.961,176.088z"/>
		</g>
		<g>
			<ellipse fill="#DDD769" cx="137.09" cy="165.611" rx="6.471" ry="10.948"/>
		</g>
	</g>
	<g>
		<path fill="#DDD769" d="M143.561,211.797c0,6.042-2.896,10.942-6.471,10.942c-3.571,0-6.471-4.9-6.471-10.942
			c0-6.047,2.899-10.95,6.471-10.95C140.664,200.847,143.561,205.75,143.561,211.797z"/>
	</g>
	<g>
		<path fill="#F2EF8B" d="M192.823,194.594c0,0-16.3-24.016-25.453,3.812l-13.06,6.432l-6.527,2.069c0,0-4.105-36.713,30.07-44.383
			c23.219-6.005,34.825,23.808,34.825,23.808L192.823,194.594z"/>
	</g>
	<g>
		<path fill="#DCDABA" d="M204.197,195.809c-5.763,1.827-11.309,0.545-12.394-2.859c-1.073-3.405,2.722-7.649,8.482-9.477
			c5.762-1.827,11.312-0.546,12.393,2.859C213.759,189.736,209.961,193.982,204.197,195.809z"/>
	</g>
	<g>
		<path fill="#D7CA29" d="M160.177,209.77c-5.76,1.827-11.309,0.542-12.394-2.863c-1.08-3.4,2.722-7.648,8.481-9.475
			c5.764-1.827,11.312-0.545,12.394,2.859C169.732,203.696,165.94,207.943,160.177,209.77z"/>
	</g>
	<g>
		<path fill="#F2EF8B" d="M231.191,160.55c0,0-16.303-24.015-25.45,3.812l-13.066,6.437l-6.523,2.066
			c0,0-4.103-36.716,30.074-44.385c23.219-6.003,34.825,23.809,34.825,23.809L231.191,160.55z"/>
	</g>
	<g>
		<path fill="#DCDABA" d="M242.569,161.768c-5.763,1.827-11.312,0.543-12.394-2.859c-1.081-3.405,2.718-7.65,8.481-9.477
			c5.763-1.829,11.312-0.548,12.394,2.859C252.124,155.695,248.333,159.939,242.569,161.768z"/>
	</g>
	<g>
		<path fill="#DDD769" d="M198.542,175.727c-5.761,1.827-11.31,0.545-12.391-2.861c-1.077-3.405,2.718-7.649,8.478-9.477
			c5.764-1.825,11.312-0.546,12.394,2.861C208.104,169.655,204.305,173.899,198.542,175.727z"/>
	</g>
	<g>
		<path fill="#F2EF8B" d="M210.887,184.94c0,0,26.285,12.312,19.936-16.282l7.941-12.21l4.548-5.111c0,0,22.293,29.464-3.166,53.522
			c-16.89,17.024-42.099-2.672-42.099-2.672L210.887,184.94z"/>
	</g>
	<g>
		<path fill="#C7BC43" d="M200.492,189.707c4.021-4.515,9.444-6.247,12.11-3.875c2.669,2.377,1.571,7.963-2.448,12.48
			c-4.02,4.516-9.444,6.251-12.107,3.875C195.375,199.811,196.474,194.224,200.492,189.707z"/>
	</g>
	<g>
		<path fill="#DCDABA" d="M231.197,155.212c4.021-4.515,9.444-6.249,12.114-3.875c2.666,2.376,1.574,7.964-2.444,12.479
			c-4.021,4.515-9.444,6.25-12.113,3.875C226.088,165.316,227.179,159.727,231.197,155.212z"/>
	</g>
	<g>
		<path fill="#F2EF8B" d="M184.832,213.295c0,0,2.294,28.938,24.003,9.275l14.539,0.859l6.694,1.434
			c0,0-14.582,33.946-48.084,23.714c-23.147-6.265-18.495-37.917-18.495-37.917L184.832,213.295z"/>
	</g>
	<g>
		<path fill="#DDD769" d="M172.104,200.273c5.908,1.257,10.098,5.119,9.362,8.609c-0.753,3.491-6.147,5.307-12.062,4.047
			c-5.912-1.261-10.101-5.117-9.354-8.613C160.792,200.823,166.192,199.014,172.104,200.273z"/>
	</g>
	<g>
		<path fill="#DDD769" d="M217.271,209.904c5.915,1.261,10.104,5.117,9.357,8.613c-0.742,3.49-6.143,5.303-12.055,4.046
			c-5.915-1.264-10.104-5.121-9.36-8.615C205.959,210.453,211.36,208.644,217.271,209.904z"/>
	</g>
	<g>
		<path fill="#DDD769" d="M192.036,150.1c0,0-20.314-20.731-24.369,8.281l-11.705,8.657l-6.051,3.196c0,0-10.577-35.4,21.689-49.03
			c21.778-10.038,38.505,17.233,38.505,17.233L192.036,150.1z"/>
	</g>
	<g>
		<path fill="#C7BC43" d="M211.087,143.057c-5.339,2.823-11.032,2.548-12.704-0.608c-1.665-3.159,1.315-8.011,6.661-10.836
			c5.345-2.823,11.033-2.55,12.7,0.608C219.416,135.38,216.433,140.232,211.087,143.057z"/>
	</g>
	<g>
		<path fill="#C7BC43" d="M173.779,164.918c-5.346,2.827-11.033,2.55-12.705-0.609c-1.667-3.158,1.312-8.011,6.654-10.834
			c5.347-2.823,11.037-2.55,12.704,0.608C182.102,157.242,179.125,162.096,173.779,164.918z"/>
	</g>
	<g>
		<g>
			<path fill="#E8E15C" d="M166.68,211.417c0,0-16.006-24.212-25.495,3.499l-13.143,6.276l-6.547,1.986
				c0,0-3.653-36.766,30.615-44.012c23.292-5.717,34.524,24.239,34.524,24.239L166.68,211.417z"/>
		</g>
		<g>
			<path fill="#D7CA29" d="M178.044,212.778c-5.787,1.754-11.319,0.4-12.359-3.015c-1.032-3.418,2.814-7.618,8.599-9.372
				c5.787-1.754,11.319-0.408,12.352,3.015C187.675,206.821,183.827,211.02,178.044,212.778z"/>
		</g>
		<g>
			<path fill="#D7CA29" d="M133.851,226.192c-5.784,1.755-11.316,0.405-12.355-3.014c-1.039-3.42,2.811-7.617,8.599-9.372
				c5.776-1.757,11.315-0.412,12.349,3.011C143.484,220.236,139.638,224.432,133.851,226.192z"/>
		</g>
	</g>
	<g>
		<g>
			<path fill="#E8E15C" d="M85.996,211.062c0,0-16.005-24.216-25.501,3.494l-13.142,6.274l-6.542,1.986
				c0,0-3.652-36.763,30.609-44.009c23.292-5.717,34.531,24.235,34.531,24.235L85.996,211.062z"/>
		</g>
		<g>
			<path fill="#D7CA29" d="M97.354,212.416c-5.788,1.757-11.316,0.407-12.352-3.011c-1.041-3.419,2.808-7.615,8.591-9.373
				c5.787-1.754,11.319-0.407,12.358,3.011C106.985,206.462,103.139,210.661,97.354,212.416z"/>
		</g>
		<g>
			<path fill="#D7CA29" d="M53.16,225.83c-5.783,1.755-11.315,0.407-12.349-3.014c-1.042-3.416,2.805-7.614,8.592-9.368
				c5.785-1.758,11.316-0.408,12.355,3.011C62.795,219.877,58.948,224.076,53.16,225.83z"/>
		</g>
	</g>
	<g>
		<path fill="#E8E15C" d="M221.118,199.096c0,0-27.38-9.634-18.208,18.184l-6.687,12.943l-4.016,5.534
			c0,0-25.114-27.092-2.182-53.566c15.107-18.625,42.152-1.539,42.152-1.539L221.118,199.096z"/>
	</g>
	<g>
		<path fill="#D7CA29" d="M230.991,193.312c-3.55,4.893-8.775,7.162-11.665,5.062c-2.891-2.099-2.358-7.766,1.188-12.661
			c3.552-4.895,8.777-7.158,11.664-5.061C235.076,182.751,234.545,188.419,230.991,193.312z"/>
	</g>
	<g>
		<path fill="#D7CA29" d="M203.873,230.696c-3.553,4.893-8.773,7.162-11.665,5.062c-2.896-2.096-2.358-7.766,1.191-12.659
			c3.547-4.893,8.771-7.161,11.661-5.062C207.958,220.133,207.427,225.803,203.873,230.696z"/>
	</g>
	<g>
		<path fill="#DDD769" d="M256.458,215.626c0,0-16.005-24.213-25.494,3.498l-13.144,6.274l-6.547,1.986
			c0,0-3.653-36.763,30.615-44.01c23.288-5.719,34.532,24.236,34.532,24.236L256.458,215.626z"/>
	</g>
	<g>
		<path fill="#C1BF9F" d="M267.822,216.984c-5.787,1.757-11.319,0.403-12.359-3.016c-1.031-3.418,2.814-7.614,8.6-9.372
			c5.783-1.754,11.314-0.407,12.358,3.014C277.453,211.027,273.605,215.226,267.822,216.984z"/>
	</g>
	<g>
		<path fill="#C7BC43" d="M223.628,230.398c-5.784,1.755-11.315,0.404-12.354-3.014c-1.044-3.42,2.811-7.617,8.599-9.372
			c5.776-1.754,11.315-0.407,12.348,3.015C233.263,224.441,229.413,228.642,223.628,230.398z"/>
	</g>
	<g>
		<g>
			<path fill="#F2EF8B" d="M198.583,167.918c0,0-16.009-24.215-25.498,3.496l-13.143,6.274l-6.547,1.987
				c0,0-3.65-36.764,30.615-44.01c23.295-5.718,34.527,24.236,34.527,24.236L198.583,167.918z"/>
		</g>
		<g>
			<path fill="#DDD769" d="M209.947,169.273c-5.784,1.756-11.323,0.405-12.355-3.011c-1.039-3.419,2.808-7.616,8.599-9.374
				c5.784-1.755,11.315-0.406,12.348,3.013C219.582,163.32,215.735,167.517,209.947,169.273z"/>
		</g>
		<g>
			<path fill="#C1BF9F" d="M165.75,182.688c-5.784,1.754-11.315,0.406-12.354-3.013c-1.04-3.418,2.811-7.616,8.599-9.37
				c5.779-1.758,11.315-0.41,12.352,3.011C175.382,176.735,171.535,180.933,165.75,182.688z"/>
		</g>
	</g>
	<g>
		<g>
			<path fill="#DDD769" d="M150.25,175.796c0,0,16.506-23.875-12.746-22.356l-10.722-9.857l-4.282-5.333
				c0,0,32.756-17.091,52.25,12.003c13.988,19.481-9.621,41.074-9.621,41.074L150.25,175.796z"/>
		</g>
		<g>
			<path fill="#C7BC43" d="M153.229,186.844c-3.785-4.715-4.593-10.351-1.809-12.586c2.782-2.238,8.113-0.231,11.902,4.482
				c3.78,4.715,4.589,10.35,1.806,12.586C162.342,193.564,157.019,191.558,153.229,186.844z"/>
		</g>
		<g>
			<path fill="#C7BC43" d="M124.306,150.837c-3.781-4.715-4.589-10.349-1.806-12.587c2.782-2.239,8.111-0.229,11.899,4.484
				c3.785,4.71,4.6,10.349,1.81,12.587C133.425,157.557,128.095,155.55,124.306,150.837z"/>
		</g>
	</g>
	<g>
		<path fill="#E8E15C" d="M218.387,139.134c0,0-27.815,8.281-4.061,25.416l2.188,14.398v6.84c0,0-36.236-7.184-33.219-42.078
			c1.295-23.947,33.219-25.999,33.219-25.999L218.387,139.134z"/>
	</g>
	<g>
		<path fill="#D7CA29" d="M222.987,128.657c0,6.047-2.897,10.948-6.473,10.948c-3.57,0-6.471-4.901-6.471-10.948
			c0-6.045,2.9-10.946,6.471-10.946C220.09,117.711,222.987,122.612,222.987,128.657z"/>
	</g>
	<g>
		<path fill="#DCDABA" d="M222.987,174.841c0,6.044-2.897,10.946-6.473,10.946c-3.57,0-6.471-4.902-6.471-10.946
			c0-6.046,2.9-10.948,6.471-10.948C220.09,163.893,222.987,168.795,222.987,174.841z"/>
	</g>
	<g>
		<path fill="#E8E15C" d="M272.245,157.64c0,0-16.3-24.015-25.453,3.812l-13.06,6.437l-6.523,2.067c0,0-4.105-36.715,30.066-44.385
			c23.227-6.005,34.832,23.808,34.832,23.808L272.245,157.64z"/>
	</g>
	<g>
		<path fill="#DCDABA" d="M283.627,158.855c-5.76,1.828-11.314,0.546-12.396-2.859c-1.073-3.404,2.722-7.649,8.484-9.477
			c5.764-1.827,11.312-0.545,12.395,2.859C293.191,152.782,289.391,157.028,283.627,158.855z"/>
	</g>
	<g>
		<path fill="#D7CA29" d="M239.603,172.814c-5.763,1.829-11.312,0.546-12.394-2.859c-1.082-3.405,2.718-7.65,8.481-9.477
			c5.76-1.827,11.31-0.545,12.394,2.859C249.158,166.744,245.363,170.987,239.603,172.814z"/>
	</g>
	<g>
		<path fill="#DDD769" d="M310.236,154.886c0,0-16.303-24.015-25.452,3.812l-13.07,6.437l-6.522,2.066
			c0,0-4.103-36.716,30.076-44.385c23.22-6.005,34.825,23.808,34.825,23.808L310.236,154.886z"/>
	</g>
	<g>
		
			<ellipse transform="matrix(0.9532 -0.3023 0.3023 0.9532 -20.8915 102.3021)" fill="#DCDABA" cx="320.046" cy="118.642" rx="10.946" ry="6.471"/>
	</g>
	<g>
		<path fill="#D7CA29" d="M277.975,138.773c-5.771,1.827-11.32,0.546-12.4-2.861c-1.072-3.404,2.718-7.649,8.484-9.477
			c5.764-1.825,11.312-0.545,12.394,2.861C287.532,132.701,283.732,136.945,277.975,138.773z"/>
	</g>
	<g>
		<path fill="#DDD769" d="M260.818,170c0,0,2.293,28.934,24.011,9.27l14.537,0.863l6.691,1.428c0,0-14.585,33.944-48.088,23.716
			c-23.15-6.261-18.499-37.914-18.499-37.914L260.818,170z"/>
	</g>
	<g>
		<path fill="#D7CA29" d="M251.527,163.318c5.91,1.26,10.1,5.118,9.359,8.612c-0.748,3.493-6.146,5.306-12.062,4.045
			c-5.908-1.261-10.1-5.118-9.354-8.612C240.218,163.869,245.618,162.058,251.527,163.318z"/>
	</g>
	<g>
		<path fill="#DCDABA" d="M296.7,172.949c5.912,1.258,10.101,5.118,9.357,8.612c-0.745,3.495-6.146,5.307-12.055,4.047
			c-5.916-1.263-10.104-5.12-9.358-8.614C285.389,173.5,290.789,171.689,296.7,172.949z"/>
	</g>
	<g>
		<g>
			<path fill="#E8E15C" d="M126.398,177.428c0,0,12.321-26.278-16.275-19.937l-12.202-7.944l-5.11-4.553
				c0,0,29.468-22.279,53.516,3.188c17.024,16.897-2.683,42.099-2.683,42.099L126.398,177.428z"/>
		</g>
		<g>
			<path fill="#D7CA29" d="M131.16,187.83c-4.514-4.019-6.243-9.446-3.867-12.115c2.376-2.666,7.963-1.569,12.479,2.454
				c4.51,4.02,6.239,9.446,3.871,12.112C141.261,192.95,135.67,191.848,131.16,187.83z"/>
		</g>
		<g>
			<path fill="#D7CA29" d="M96.681,157.109c-4.517-4.021-6.246-9.446-3.87-12.115c2.375-2.667,7.966-1.571,12.479,2.45
				c4.511,4.021,6.24,9.446,3.864,12.114C106.777,162.227,101.194,161.129,96.681,157.109z"/>
		</g>
	</g>
	<g>
		<path fill="#D7CA29" d="M411.877,176.086c0,0-14.441,25.175,14.579,21.204l11.513,8.923l4.717,4.954
			c0,0-31.201,19.784-53.074-7.571c-15.573-18.24,6.137-41.737,6.137-41.737L411.877,176.086z"/>
	</g>
	<g>
		<path fill="#DDD769" d="M407.985,165.328c4.165,4.375,5.444,9.926,2.857,12.392c-2.585,2.46-8.065,0.908-12.232-3.469
			c-4.165-4.379-5.45-9.928-2.863-12.392C398.338,159.396,403.817,160.95,407.985,165.328z"/>
	</g>
	<g>
		<path fill="#DDD769" d="M439.827,198.778c4.167,4.378,5.444,9.928,2.857,12.389c-2.586,2.466-8.068,0.912-12.233-3.466
			c-4.168-4.375-5.448-9.928-2.859-12.39C430.179,192.846,435.658,194.4,439.827,198.778z"/>
	</g>
	<g>
		<path fill="#F2EF8B" d="M246.103,174.465c0,0-16.002-24.213-25.491,3.498l-13.143,6.274l-6.551,1.987
			c0,0-3.65-36.766,30.618-44.012c23.288-5.719,34.524,24.235,34.524,24.235L246.103,174.465z"/>
	</g>
	<g>
		
			<ellipse transform="matrix(0.9569 -0.2904 0.2904 0.9569 -38.2473 81.541)" fill="#DDD769" cx="255.604" cy="169.633" rx="10.949" ry="6.471"/>
	</g>
	<g>
		<path fill="#DDD769" d="M213.275,189.235c-5.787,1.756-11.318,0.408-12.357-3.011c-1.04-3.419,2.813-7.616,8.598-9.372
			c5.78-1.756,11.316-0.408,12.352,3.011C222.907,183.283,219.06,187.479,213.275,189.235z"/>
	</g>
	<g>
		<path fill="#F2EF8B" d="M300.548,162.141c0,0-27.384-9.632-18.212,18.188l-6.686,12.938l-4.021,5.536
			c0,0-25.115-27.094-2.179-53.565c15.111-18.625,42.159-1.539,42.159-1.539L300.548,162.141z"/>
	</g>
	<g>
		<path fill="#C1BF9F" d="M310.42,156.36c-3.55,4.893-8.773,7.158-11.665,5.061c-2.89-2.098-2.358-7.768,1.188-12.661
			c3.553-4.895,8.773-7.158,11.668-5.061C314.502,145.797,313.97,151.465,310.42,156.36z"/>
	</g>
	<g>
		<path fill="#C1BF9F" d="M283.302,193.744c-3.55,4.893-8.776,7.158-11.671,5.059c-2.895-2.096-2.357-7.767,1.194-12.659
			c3.547-4.893,8.774-7.16,11.665-5.062C287.384,183.179,286.854,188.847,283.302,193.744z"/>
	</g>
	<g>
		<path fill="#DDD769" d="M335.887,178.672c0,0-16.005-24.213-25.497,3.498l-13.144,6.275l-6.544,1.987
			c0,0-3.653-36.766,30.616-44.012c23.287-5.719,34.523,24.236,34.523,24.236L335.887,178.672z"/>
	</g>
	<g>
		<path fill="#E8E15C" d="M347.248,180.03c-5.784,1.754-11.316,0.404-12.355-3.013c-1.034-3.418,2.812-7.616,8.595-9.372
			c5.788-1.756,11.319-0.408,12.355,3.011C356.879,174.075,353.032,178.272,347.248,180.03z"/>
	</g>
	<g>
		<path fill="#C1BF9F" d="M303.054,193.443c-5.782,1.754-11.315,0.408-12.352-3.011c-1.039-3.42,2.812-7.616,8.596-9.372
			s11.315-0.408,12.354,3.011C312.688,187.49,308.842,191.686,303.054,193.443z"/>
	</g>
	<g>
		<path fill="#DDD769" d="M416.072,205.744c0,0,16.506-23.877-12.746-22.356l-10.723-9.857l-4.28-5.333
			c0,0,32.753-17.093,52.249,12.003c13.984,19.479-9.624,41.075-9.624,41.075L416.072,205.744z"/>
	</g>
	<g>
		<path fill="#C7BC43" d="M419.053,216.791c-3.785-4.714-4.596-10.351-1.812-12.588c2.786-2.234,8.115-0.231,11.902,4.486
			c3.784,4.714,4.597,10.345,1.807,12.586C428.165,223.509,422.837,221.504,419.053,216.791z"/>
	</g>
	<g>
		<path fill="#C7BC43" d="M390.129,180.784c-3.785-4.715-4.593-10.351-1.806-12.587c2.783-2.241,8.109-0.231,11.898,4.484
			c3.785,4.708,4.597,10.349,1.81,12.585C399.245,187.504,393.917,185.498,390.129,180.784z"/>
	</g>
	<g>
		<path fill="#D7CA29" d="M340.704,154.989c0,0,16.502-23.876-12.749-22.356l-10.719-9.856l-4.285-5.333
			c0,0,32.753-17.093,52.249,12.003c13.989,19.48-9.62,41.073-9.62,41.073L340.704,154.989z"/>
	</g>
	<g>
		<path fill="#C7BC43" d="M344.758,159.944c-3.784-4.715-4.596-10.351-1.812-12.588c2.787-2.236,8.114-0.229,11.901,4.484
			c3.785,4.715,4.595,10.349,1.807,12.587C353.868,166.663,348.543,164.656,344.758,159.944z"/>
	</g>
	<g>
		<path fill="#DDD769" d="M362.192,199.172c0,0-27.818,8.28-4.062,25.417l2.187,14.397v6.841c0,0-36.236-7.187-33.22-42.081
			c1.295-23.945,33.22-25.998,33.22-25.998L362.192,199.172z"/>
	</g>
	<g>
		<path fill="#D7CA29" d="M366.789,188.697c0,6.044-2.896,10.948-6.472,10.948c-3.57,0-6.472-4.903-6.472-10.948
			c0-6.045,2.9-10.948,6.472-10.948C363.893,177.749,366.789,182.652,366.789,188.697z"/>
	</g>
	<g>
		<path fill="#DCDABA" d="M366.789,234.878c0,6.046-2.896,10.95-6.472,10.95c-3.57,0-6.472-4.904-6.472-10.95
			c0-6.043,2.9-10.943,6.472-10.943C363.893,223.935,366.789,228.835,366.789,234.878z"/>
	</g>
	<g>
		<path fill="#E8E15C" d="M357.963,158.705c0,0-16.303-24.016-25.454,3.812l-13.062,6.437l-6.523,2.067
			c0,0-4.105-36.716,30.069-44.385c23.219-6.005,34.824,23.808,34.824,23.808L357.963,158.705z"/>
	</g>
	<g>
		<path fill="#E8E15C" d="M369.337,159.92c-5.763,1.828-11.312,0.545-12.393-2.859c-1.077-3.405,2.718-7.649,8.48-9.477
			c5.763-1.827,11.312-0.546,12.393,2.859C378.896,153.848,375.097,158.094,369.337,159.92z"/>
	</g>
	<g>
		
			<ellipse transform="matrix(0.9532 -0.3023 0.3023 0.9532 -35.5697 105.605)" fill="#DCDABA" cx="323.362" cy="167.707" rx="10.946" ry="6.471"/>
	</g>
	<g>
		<path fill="#D7CA29" d="M312.105,173.379c0,0-16.299-24.015-25.451,3.812l-13.065,6.437l-6.526,2.067
			c0,0-4.105-36.716,30.076-44.385c23.218-6.003,34.822,23.808,34.822,23.808L312.105,173.379z"/>
	</g>
	<g>
		<path fill="#D7CA29" d="M323.483,174.596c-5.765,1.827-11.312,0.544-12.395-2.859c-1.077-3.407,2.718-7.651,8.481-9.478
			c5.76-1.829,11.309-0.547,12.39,2.858C333.042,168.524,329.243,172.768,323.483,174.596z"/>
	</g>
	<g>
		<path fill="#D7CA29" d="M279.459,188.556c-5.764,1.828-11.312,0.545-12.396-2.861c-1.08-3.405,2.722-7.649,8.48-9.477
			c5.768-1.827,11.314-0.546,12.396,2.861C289.018,182.483,285.223,186.727,279.459,188.556z"/>
	</g>
	<g>
		<path fill="#E8E15C" d="M291.805,197.767c0,0,26.284,12.313,19.932-16.282l7.941-12.208l4.548-5.111
			c0,0,22.294,29.464-3.166,53.519c-16.89,17.024-42.102-2.669-42.102-2.669L291.805,197.767z"/>
	</g>
	<g>
		<path fill="#DCDABA" d="M281.406,202.536c4.021-4.513,9.443-6.247,12.109-3.875c2.67,2.376,1.571,7.962-2.443,12.48
			c-4.021,4.513-9.445,6.25-12.114,3.875S277.389,207.052,281.406,202.536z"/>
	</g>
	<g>
		<path fill="#DDD769" d="M312.111,168.041c4.022-4.515,9.448-6.249,12.113-3.875c2.67,2.376,1.574,7.965-2.443,12.48
			c-4.021,4.515-9.444,6.25-12.114,3.875C307.002,178.144,308.093,172.556,312.111,168.041z"/>
	</g>
	<g>
		<path fill="#F2EF8B" d="M262.301,219.78c0,0,2.301,28.934,24.014,9.272l14.537,0.863l6.691,1.43c0,0-14.582,33.945-48.084,23.715
			c-23.153-6.265-18.502-37.916-18.502-37.916L262.301,219.78z"/>
	</g>
	<g>
		<path fill="#DDD769" d="M253.02,213.102c5.907,1.258,10.097,5.118,9.354,8.61c-0.746,3.493-6.146,5.308-12.059,4.046
			c-5.908-1.264-10.097-5.117-9.357-8.611C241.706,213.651,247.103,211.841,253.02,213.102z"/>
	</g>
	<g>
		<path fill="#DDD769" d="M298.186,222.733c5.915,1.256,10.104,5.117,9.357,8.612c-0.742,3.491-6.146,5.308-12.055,4.043
			c-5.912-1.261-10.104-5.12-9.357-8.612C286.877,223.285,292.273,221.469,298.186,222.733z"/>
	</g>
	<g>
		<path fill="#D7CA29" d="M233.015,218.476c0,0,2.292,28.933,24.002,9.271l14.545,0.863l6.694,1.43c0,0-14.592,33.944-48.088,23.711
			c-23.153-6.263-18.502-37.915-18.502-37.915L233.015,218.476z"/>
	</g>
	<g>
		<path fill="#C7BC43" d="M226.056,204.421c5.912,1.257,10.102,5.118,9.362,8.608c-0.749,3.495-6.146,5.308-12.062,4.048
			c-5.908-1.264-10.096-5.118-9.354-8.613C214.748,204.97,220.147,203.161,226.056,204.421z"/>
	</g>
	<g>
		<path fill="#DCDABA" d="M271.223,214.053c5.916,1.256,10.108,5.116,9.365,8.611c-0.746,3.491-6.15,5.308-12.059,4.044
			c-5.916-1.261-10.106-5.122-9.36-8.612C259.915,214.604,265.314,212.788,271.223,214.053z"/>
	</g>
	<g>
		<path fill="#C7BC43" d="M357.749,163.384c0,0,29.006,1.031,11.958-22.789l2.521-14.343l2.188-6.485
			c0,0,32.052,18.373,18.056,50.48c-8.871,22.281-39.778,14.041-39.778,14.041L357.749,163.384z"/>
	</g>
	<g>
		<path fill="#DDD769" d="M350.052,171.846c1.927-5.725,6.236-9.448,9.624-8.312c3.384,1.143,4.569,6.713,2.639,12.443
			c-1.928,5.725-6.235,9.448-9.623,8.31C349.302,183.144,348.121,177.575,350.052,171.846z"/>
	</g>
	<g>
		<path fill="#DDD769" d="M364.786,128.077c1.927-5.729,6.24-9.45,9.628-8.31c3.388,1.138,4.568,6.713,2.639,12.438
			c-1.932,5.73-6.239,9.451-9.628,8.312C364.04,139.378,362.859,133.806,364.786,128.077z"/>
	</g>
	<g>
		<g>
			<path fill="#D7CA29" d="M235.708,142.836c0,0,17.3,23.304,25.267-4.884l12.783-6.984l6.432-2.341c0,0,5.654,36.51-28.168,45.62
				c-22.942,6.979-35.803-22.314-35.803-22.314L235.708,142.836z"/>
		</g>
		<g>
			<path fill="#C7BC43" d="M224.292,142.103c5.677-2.069,11.274-1.023,12.503,2.333c1.216,3.356-2.393,7.757-8.073,9.827
				c-5.677,2.068-11.28,1.024-12.503-2.331C214.996,148.573,218.611,144.172,224.292,142.103z"/>
		</g>
		<g>
			<path fill="#C7BC43" d="M267.684,126.293c5.686-2.072,11.282-1.024,12.506,2.333c1.226,3.356-2.392,7.759-8.07,9.828
				c-5.686,2.068-11.278,1.023-12.504-2.333C258.393,132.765,262.004,128.364,267.684,126.293z"/>
		</g>
	</g>
	<g>
		<g>
			<path fill="#D7CA29" d="M66.7,175.604c0,0,17.301,23.305,25.268-4.884l12.783-6.984l6.429-2.341c0,0,5.657,36.51-28.166,45.62
				C60.07,213.993,47.211,184.7,47.211,184.7L66.7,175.604z"/>
		</g>
		<g>
			<path fill="#C7BC43" d="M55.285,174.871c5.676-2.069,11.273-1.023,12.503,2.333c1.216,3.356-2.393,7.757-8.073,9.827
				c-5.677,2.068-11.281,1.024-12.504-2.331C45.989,181.342,49.604,176.939,55.285,174.871z"/>
		</g>
		<g>
			<path fill="#C7BC43" d="M98.677,159.062c5.685-2.072,11.282-1.024,12.503,2.333c1.228,3.356-2.389,7.759-8.065,9.828
				c-5.688,2.068-11.281,1.023-12.508-2.333C89.384,165.533,92.997,161.132,98.677,159.062z"/>
		</g>
	</g>
	<g>
		<g>
			<path fill="#F2EF8B" d="M368.626,235.431c0,0-16.005-24.214-25.498,3.498l-13.143,6.274l-6.544,1.985
				c0,0-3.653-36.762,30.611-44.008c23.292-5.721,34.528,24.235,34.528,24.235L368.626,235.431z"/>
		</g>
		<g>
			<path fill="#DDD769" d="M379.987,236.787c-5.788,1.755-11.316,0.404-12.356-3.015c-1.035-3.415,2.812-7.614,8.596-9.371
				c5.787-1.756,11.319-0.404,12.355,3.015C389.618,230.834,385.771,235.033,379.987,236.787z"/>
		</g>
		<g>
			<path fill="#DDD769" d="M335.793,250.204c-5.784,1.752-11.315,0.407-12.352-3.016c-1.039-3.416,2.808-7.614,8.596-9.369
				c5.779-1.757,11.314-0.407,12.354,3.011C345.428,244.249,341.581,248.449,335.793,250.204z"/>
		</g>
	</g>
	<g>
		<path fill="#F2EF8B" d="M302.032,211.925c0,0-27.38-9.635-18.208,18.185l-6.686,12.938l-4.018,5.539
			c0,0-25.121-27.098-2.189-53.569c15.114-18.623,42.163-1.537,42.163-1.537L302.032,211.925z"/>
	</g>
	<g>
		<path fill="#DDD769" d="M311.905,206.141c-3.55,4.892-8.771,7.158-11.665,5.065c-2.891-2.103-2.358-7.773,1.19-12.663
			c3.551-4.896,8.771-7.162,11.664-5.062C315.99,195.577,315.458,201.247,311.905,206.141z"/>
	</g>
	<g>
		<path fill="#DDD769" d="M284.79,243.524c-3.554,4.894-8.78,7.158-11.668,5.062c-2.896-2.097-2.365-7.77,1.188-12.663
			c3.549-4.893,8.776-7.158,11.668-5.062C288.869,232.962,288.337,238.632,284.79,243.524z"/>
	</g>
	<g>
		<path fill="#DDD769" d="M342.062,237.506c0,0-16.003-24.214-25.495,3.493l-13.144,6.279l-6.547,1.984
			c0,0-3.65-36.765,30.616-44.009c23.287-5.719,34.523,24.237,34.523,24.237L342.062,237.506z"/>
	</g>
	<g>
		<path fill="#D7CA29" d="M356.778,245.419c-5.784,1.76-11.315,0.409-12.353-3.011c-1.04-3.418,2.812-7.616,8.596-9.375
			c5.783-1.753,11.314-0.403,12.353,3.015C366.413,239.467,362.566,243.666,356.778,245.419z"/>
	</g>
	<g>
		<path fill="#D7CA29" d="M310.088,253.27c-5.787,1.754-11.314,0.403-12.354-3.015c-1.039-3.419,2.811-7.618,8.599-9.371
			c5.779-1.755,11.315-0.408,12.352,3.013C319.723,247.312,315.872,251.511,310.088,253.27z"/>
	</g>
	<g>
		<g>
			<path fill="#D7CA29" d="M384.228,219.885c0,0,16.507-23.879-12.749-22.356l-10.719-9.858l-4.285-5.333
				c0,0,32.753-17.091,52.249,12.005c13.989,19.483-9.621,41.072-9.621,41.072L384.228,219.885z"/>
		</g>
		<g>
			<path fill="#C7BC43" d="M387.204,230.93c-3.784-4.716-4.593-10.348-1.811-12.586c2.787-2.237,8.112-0.231,11.899,4.482
				c3.785,4.717,4.596,10.35,1.809,12.587C396.317,237.65,390.989,235.645,387.204,230.93z"/>
		</g>
		<g>
			<path fill="#C7BC43" d="M358.283,194.925c-3.784-4.717-4.597-10.351-1.81-12.588c2.783-2.239,8.115-0.229,11.899,4.484
				c3.785,4.71,4.597,10.349,1.812,12.586C367.4,201.645,362.072,199.639,358.283,194.925z"/>
		</g>
	</g>
	<g>
		<path fill="#F2EF8B" d="M290.318,147.986c0,0,26.285,12.312,19.933-16.281l7.938-12.21l4.552-5.11c0,0,22.29,29.464-3.167,53.518
			c-16.891,17.026-42.104-2.667-42.104-2.667L290.318,147.986z"/>
	</g>
	<g>
		<path fill="#DDD769" d="M279.923,152.753c4.017-4.515,9.438-6.247,12.109-3.875c2.669,2.377,1.571,7.965-2.448,12.48
			c-4.018,4.515-9.441,6.25-12.113,3.875C274.805,162.857,275.898,157.268,279.923,152.753z"/>
	</g>
	<g>
		<path fill="#DDD769" d="M310.628,118.258c4.02-4.515,9.444-6.248,12.113-3.874c2.669,2.376,1.569,7.965-2.445,12.479
			c-4.02,4.515-9.444,6.25-12.117,3.875C305.514,128.362,306.607,122.773,310.628,118.258z"/>
	</g>
	<g>
		<g>
			<path fill="#F2EF8B" d="M78.275,197.335c0,0-1.813,28.968,22.46,12.569l14.269,2.908l6.422,2.357
				c0,0-19.234,31.544-50.947,16.687c-22.038-9.469-12.96-40.147-12.96-40.147L78.275,197.335z"/>
		</g>
		<g>
			<path fill="#DDD769" d="M70.025,189.409c5.675,2.083,9.275,6.493,8.046,9.847c-1.229,3.353-6.833,4.386-12.507,2.303
				c-5.673-2.082-9.274-6.495-8.046-9.849C58.748,188.357,64.349,187.326,70.025,189.409z"/>
		</g>
	</g>
	<g>
		<g>
			<path fill="#E8E15C" d="M434.878,202.121c0,0-26.906-10.884-19.029,17.328l-7.275,12.618l-4.266,5.345
				c0,0-23.841-28.222,0.29-53.612c15.95-17.906,42.181,0.408,42.181,0.408L434.878,202.121z"/>
		</g>
		<g>
			<path fill="#D7CA29" d="M445.006,196.8c-3.773,4.724-9.095,6.748-11.886,4.517c-2.793-2.227-2.003-7.866,1.771-12.592
				c3.774-4.722,9.097-6.748,11.887-4.517C449.567,186.437,448.776,192.076,445.006,196.8z"/>
		</g>
		<g>
			<path fill="#D7CA29" d="M416.193,232.893c-3.771,4.728-9.094,6.751-11.887,4.52c-2.794-2.228-1.999-7.866,1.771-12.59
				c3.771-4.728,9.096-6.751,11.889-4.523C420.755,222.53,419.968,228.168,416.193,232.893z"/>
		</g>
	</g>
	<g>
		<g>
			<path fill="#D7CA29" d="M398.89,183.838c0,0,27.455,9.401,18.051-18.341l6.577-13l3.972-5.571c0,0,25.35,26.879,2.639,53.551
				c-14.952,18.75-42.143,1.9-42.143,1.9L398.89,183.838z"/>
		</g>
		<g>
			<path fill="#C7BC43" d="M389.065,189.702c3.505-4.92,8.712-7.232,11.627-5.162c2.906,2.073,2.42,7.75-1.084,12.671
				c-3.511,4.924-8.717,7.235-11.624,5.167C385.073,200.301,385.561,194.625,389.065,189.702z"/>
		</g>
		<g>
			<path fill="#C7BC43" d="M415.865,152.088c3.505-4.926,8.716-7.236,11.623-5.162c2.911,2.072,2.428,7.749-1.084,12.671
				c-3.51,4.926-8.713,7.236-11.623,5.163C411.87,162.688,412.354,157.015,415.865,152.088z"/>
		</g>
	</g>
	<g>
		<g>
			<path fill="#E8E15C" d="M133.454,224.587c0,0-16.002-24.213-25.491,3.495l-13.144,6.278l-6.547,1.985
				c0,0-3.653-36.766,30.615-44.011c23.289-5.718,34.524,24.239,34.524,24.239L133.454,224.587z"/>
		</g>
		<g>
			<path fill="#D7CA29" d="M144.818,225.944c-5.785,1.755-11.316,0.404-12.356-3.015c-1.032-3.415,2.814-7.614,8.599-9.372
				c5.784-1.757,11.315-0.407,12.352,3.016C154.452,219.991,150.605,224.188,144.818,225.944z"/>
		</g>
		<g>
			<path fill="#D7CA29" d="M100.628,239.356c-5.788,1.757-11.316,0.411-12.355-3.011c-1.042-3.415,2.811-7.614,8.599-9.372
				c5.776-1.759,11.315-0.407,12.349,3.012C110.259,233.403,106.412,237.602,100.628,239.356z"/>
		</g>
	</g>
	<g>
		<g>
			<path fill="#DDD769" d="M138.053,212.074c0,0,1.962,28.958,23.899,9.544l14.523,1.032l6.675,1.505
				c0,0-14.973,33.771-48.347,23.157c-23.078-6.522-18.063-38.123-18.063-38.123L138.053,212.074z"/>
		</g>
		<g>
			<path fill="#C7BC43" d="M128.844,205.284c5.897,1.329,10.042,5.235,9.258,8.72c-0.788,3.483-6.202,5.23-12.104,3.908
				c-5.897-1.333-10.042-5.235-9.258-8.722C117.527,205.706,122.945,203.955,128.844,205.284z"/>
		</g>
		<g>
			<path fill="#C7BC43" d="M173.894,215.437c5.901,1.33,10.048,5.231,9.257,8.719c-0.783,3.484-6.201,5.231-12.099,3.902
				c-5.896-1.325-10.042-5.229-9.259-8.716C162.584,215.858,167.995,214.107,173.894,215.437z"/>
		</g>
	</g>
</g>
</svg>
