<?xml version="1.0" encoding="utf-8"?>
<!-- Generator: Adobe Illustrator 16.0.0, SVG Export Plug-In . SVG Version: 6.00 Build 0)  -->
<!DOCTYPE svg PUBLIC "-//W3C//DTD SVG 1.1//EN" "http://www.w3.org/Graphics/SVG/1.1/DTD/svg11.dtd">
<svg version="1.1" id="Layer_1" xmlns="http://www.w3.org/2000/svg" xmlns:xlink="http://www.w3.org/1999/xlink" x="0px" y="0px"
	 width="500px" height="500px" viewBox="0 0 500 500" enable-background="new 0 0 500 500" xml:space="preserve">
<g id="Layer_1_copy_5">
	<g>
		<g>
			<path fill="#AE83A8" d="M284.657,331.043c0,23.368-56.334,42.316-125.818,42.316c-69.48,0-125.813-18.948-125.813-42.316"/>
			<path fill="#3C2517" d="M158.839,375.876c-71.96,0-128.331-19.694-128.331-44.833c0-1.393,1.129-2.518,2.518-2.518
				c1.391,0,2.519,1.125,2.519,2.518c0,21.57,56.464,39.798,123.295,39.798c66.835,0,123.299-18.228,123.299-39.798
				c0-1.393,1.125-2.518,2.521-2.518c1.391,0,2.516,1.125,2.516,2.518C287.173,356.182,230.804,375.876,158.839,375.876z"/>
		</g>
		<g>
			<path fill="#82637E" d="M44.407,312.783c0,0-8.197,1.234-9.219,4.104c-1.025,2.863-5.329,2.656-3.076,6.965
				c2.261,4.303,4.72-1.436,2.261,4.303c-2.463,5.738,0.785,5.738,3.564,8.811c2.783,3.076,1.968,5.326,7.289,5.941
				c5.328,0.615,5.122-0.405,7.788-3.274c2.666-2.873,8.401-0.207,11.064,1.021c2.666,1.229,2.663,0.959,6.763,2.432
				c4.101,1.468,5.941,2.484,9.22-1.202c3.279-3.688,4.304-5.94,9.431-2.25c5.118,3.688,5.531,3.418,9.216,4.782
				c3.691,1.365,5.329,6.075,9.629,1.98c4.307-4.104,0.619-3.688,11.889-3.895c11.271-0.21,12.502,0.206,13.73,3.068
				c1.228,2.869,0.406,6.508,2.865,6.634c2.46,0.13,6.967-0.283,9.43-2.532c2.46-2.258,5.532-2.051,9.22-2.666
				c3.688-0.609,4.507,6.912,9.63,5.198c5.125-1.714,2.459-0.692,9.219-3.558c6.76-2.867,8.4,4.717,13.317-0.41
				c4.919-5.123,2.666-4.504,7.177-6.764c4.502-2.254,6.147,1.234,13.933,4.098c7.785,2.869,11.679,4.311,14.139,1.436
				c2.456-2.87,0.406,4.303,9.217-1.841c8.817-6.147,9.633-6.353,13.12-6.353c3.481,0,1.638,2.051,9.009,2.66
				c7.377,0.615,10.658,3.079,12.908-1.432c2.254-4.514,7.174-2.051,7.991-5.325c0.825-3.278-0.495-4.267,3.032-3.671
				c3.525,0.6,7.829,5.35,8.035,0c0.209-5.354-1.639-10.064-4.92-10.881c-3.278-0.818-2.256-2.663-5.734-5.735
				c-3.484-3.071-15.613-4.713-16.619-4.915c-1.002-0.211-112.471-11.273-112.471-11.273L64.29,311.555L44.407,312.783z"/>
			<path fill="#3C2517" d="M163.648,354.977c-3.162,0-4.973-2.264-6.293-3.914c-0.44-0.553-1.183-1.478-1.505-1.584
				c-0.846,0.153-1.691,0.256-2.507,0.356c-2.612,0.315-4.153,0.549-5.392,1.688c-3.176,2.904-8.248,3.219-10.282,3.219
				c-0.349,0-0.679-0.008-0.979-0.023c-3.614-0.189-4.153-3.675-4.443-5.549c-0.139-0.915-0.289-1.863-0.608-2.605
				c-0.483-1.129-0.683-1.596-7.266-1.596c-1.195,0-2.554,0.018-4.105,0.047l-2.476,0.043c-2.622,0.037-4.696,0.07-5.143,0.243
				c-0.057,0.077-0.18,0.255-0.355,0.478c-0.439,0.543-1.1,1.367-2.221,2.437c-1.647,1.57-3.262,2.333-4.932,2.333
				c-2.125,0-3.648-1.205-4.991-2.271c-0.791-0.621-1.54-1.215-2.315-1.504c-0.636-0.231-1.172-0.416-1.648-0.582
				c-2.602-0.901-3.827-1.393-8.168-4.517c-1.771-1.274-2.522-1.411-2.762-1.411c-0.47,0-1.438,1.125-2.373,2.206l-0.942,1.081
				c-2.077,2.342-4.007,3.383-6.257,3.383c-1.621,0-3.149-0.557-4.917-1.201l-0.778-0.279c-1.62-0.583-2.58-0.883-3.328-1.118
				c-1.148-0.36-1.908-0.599-3.635-1.396c-1.602-0.735-4.503-2.076-6.637-2.076c-1.085,0-1.422,0.361-1.532,0.481
				c-0.389,0.421-0.715,0.8-1.001,1.136c-1.438,1.674-2.676,3.115-6.182,3.115c-0.738,0-1.631-0.06-2.735-0.189
				c-4.59-0.529-5.94-2.24-7.349-4.596c-0.433-0.721-0.843-1.406-1.522-2.154c-0.559-0.619-1.181-1.114-1.783-1.592
				c-2.599-2.065-4.569-4.225-2.344-9.629c-0.712-0.466-1.435-1.222-2.06-2.416c-2.403-4.584,0.422-6.773,1.784-7.824
				c0.636-0.493,1.028-0.812,1.151-1.155c1.378-3.864,8.301-5.306,11.214-5.748l20.097-1.249l81.919-13.29
				c0.217-0.037,0.434-0.037,0.649-0.021c41.685,4.138,111.758,11.106,112.746,11.316l0.61,0.1
				c9.22,1.484,14.673,3.199,17.154,5.393c1.8,1.591,2.606,2.929,3.194,3.908c0.601,0.998,0.641,1.059,1.484,1.269
				c4.354,1.085,7.096,6.479,6.823,13.427c-0.176,4.58-3.142,4.937-4.047,4.937c-1.423,0-2.767-0.687-4.188-1.411
				c-0.871-0.441-1.843-0.941-2.578-1.111c-0.061,0.504-0.152,1.103-0.322,1.771c-0.764,3.049-3.448,3.632-5.053,3.98
				c-1.664,0.358-2.498,0.588-3.129,1.854c-1.358,2.729-3.402,4.054-6.233,4.054c-1.263,0-2.597-0.243-4.142-0.521
				c-1.44-0.26-3.078-0.555-4.996-0.715c-4.561-0.379-6.194-1.291-7.591-2.272c-0.504-0.356-0.537-0.376-1.209-0.376
				c-2.796,0-3.225,0-11.683,5.895c-2.956,2.066-5.206,3.028-7.076,3.028c-1.114,0-1.957-0.337-2.579-0.735
				c-1.312,1.068-2.826,1.568-4.581,1.568c-2.858,0-6.243-1.249-11.369-3.133c-2.986-1.1-5.076-2.246-6.753-3.169
				c-1.602-0.882-2.764-1.519-3.669-1.519c-0.282,0-0.755,0.047-1.57,0.457c-2.224,1.113-2.283,1.19-2.983,2.14
				c-0.595,0.803-1.49,2.015-3.504,4.114c-1.681,1.75-3.386,2.603-5.206,2.603c-1.551,0-2.832-0.618-3.96-1.165
				c-1.645-0.795-3.013-1.301-4.99-0.455l-3.068,1.309c-2.304,0.992-2.384,1.021-4.2,1.617l-2.131,0.705
				C165.134,354.848,164.378,354.977,163.648,354.977z M155.891,344.45c2.618,0,4.16,1.921,5.395,3.469
				c1.278,1.595,1.845,2.283,3.019,1.896l2.154-0.711c1.641-0.539,1.641-0.539,3.791-1.461l3.085-1.318
				c1.382-0.586,2.693-0.868,4.008-0.868c2.193,0,3.831,0.791,5.143,1.428c0.702,0.339,1.368,0.661,1.764,0.661
				c0.489,0,1.192-0.661,1.571-1.054c1.794-1.865,2.543-2.884,3.089-3.621c1.194-1.615,1.781-2.147,4.772-3.646
				c1.335-0.67,2.586-0.992,3.831-0.992c2.201,0,4.005,0.992,6.095,2.141c1.611,0.882,3.432,1.887,6.008,2.832
				c4.511,1.664,7.729,2.848,9.688,2.848c0.905,0,1.295-0.25,1.668-0.687c0.373-0.438,1.362-1.591,2.896-1.591
				c1.378,0,2.171,0.885,2.554,1.311c0.06,0.066,0.116,0.143,0.196,0.206c0.039-0.073,1.151-0.176,4.044-2.196
				c8.844-6.164,10.201-6.8,14.562-6.8c2.098,0,3.1,0.582,4.104,1.288c0.683,0.482,1.538,1.085,5.115,1.381
				c2.154,0.18,3.994,0.51,5.473,0.775c1.307,0.236,2.438,0.439,3.246,0.439c0.686,0,1.098,0,1.73-1.266
				c1.737-3.484,4.76-4.141,6.562-4.53c0.459-0.1,1.15-0.25,1.335-0.372c0.083-0.636,0.133-1.229,0.181-1.748
				c0.076-0.965,0.321-3.904,3.713-3.904c0.467,0,1.086,0.063,1.905,0.201c1.504,0.256,2.922,0.979,4.177,1.617
				c0.272,0.141,0.608,0.311,0.928,0.465c0.107-4.543-1.43-7.645-3.019-8.037c-2.873-0.719-3.784-2.227-4.584-3.562
				c-0.487-0.812-0.998-1.655-2.213-2.729c-0.951-0.838-4.117-2.5-14.625-4.197c-0.413-0.064-0.694-0.112-0.821-0.137
				c-1.979-0.272-73.875-7.432-111.899-11.207l-81.839,13.268l-20.13,1.255c-2.97,0.464-6.501,1.695-7.037,2.515
				c-0.589,1.678-1.854,2.652-2.775,3.364c-0.263,0.203-0.652,0.507-0.779,0.666c0.033,0.022,0.094,0.31,0.373,0.843
				c0.07,0.129,0.13,0.229,0.184,0.309c0.814-0.229,2.323,0.107,2.955,1.061c0.839,1.28,0.496,2.086-0.792,5.092
				c-1.088,2.533-0.985,2.615,0.729,3.978c0.692,0.55,1.552,1.231,2.387,2.157c1.012,1.115,1.621,2.13,2.106,2.949
				c0.896,1.49,1.133,1.891,3.608,2.18c0.872,0.102,1.574,0.152,2.156,0.152c1.188,0,1.188,0,2.36-1.36
				c0.323-0.38,0.692-0.808,1.131-1.282c0.886-0.952,2.511-2.09,5.224-2.09c3.238,0,6.66,1.581,8.703,2.521
				c1.472,0.676,2.007,0.847,3.076,1.184c0.788,0.246,1.804,0.564,3.524,1.178l0.798,0.293c1.375,0.5,2.461,0.896,3.193,0.896
				c0.319,0,0.992,0,2.493-1.688l0.891-1.024c1.755-2.033,3.413-3.957,6.188-3.957c1.677,0,3.435,0.729,5.701,2.358
				c3.918,2.822,4.724,3.099,6.877,3.845c0.505,0.177,1.075,0.369,1.747,0.623c1.528,0.565,2.729,1.515,3.691,2.276
				c0.669,0.528,1.494,1.181,1.868,1.181c0.219,0,0.728-0.246,1.46-0.94c0.876-0.835,1.368-1.452,1.761-1.944
				c2.001-2.488,2.982-2.506,9.35-2.603l2.463-0.044c1.588-0.029,2.976-0.047,4.198-0.047c7.035,0,10.084,0.42,11.895,4.644
				c0.57,1.332,0.786,2.713,0.96,3.821c0.056,0.396,0.139,0.933,0.229,1.309c2.228,0.104,5.512-0.449,7.094-1.895
				c2.492-2.286,5.388-2.637,8.188-2.977c0.742-0.09,1.515-0.183,2.316-0.314C155.345,344.473,155.62,344.45,155.891,344.45z"/>
		</g>
		<g>
			<path fill="#DFCEDD" d="M45.237,294.667c0,0-10.166,1.317-9.554,9.103c0.62,7.785,2.461,13.317,17.216,14.959
				c16.595,4.304,143.228,16.192,221.296-4.301c0,0,8.943-3.392,7.709-11.908c-0.188-1.303-1.598-6.131-2.359-7.869
				c-0.806-1.813-2.174-3.494-4.427-2.76c-4.4,1.428-19.361-3.693-19.361-3.693l-74.584,8.4l-88.52-2.254l-41.187-5.119
				L45.237,294.667z"/>
			<path fill="#3C2517" d="M158.859,328.598c-0.003,0-0.003,0-0.003,0c-50.865,0-96.059-4.785-106.411-7.388
				c-15.106-1.722-18.509-7.633-19.268-17.241c-0.6-7.582,6.497-10.854,10.947-11.676l5.685-4.966
				c0.539-0.474,1.249-0.688,1.971-0.603l41.186,5.118l88.098,2.233l74.411-8.385c0.373-0.037,0.748,0,1.099,0.119
				c3.095,1.062,12.099,3.809,16.502,3.809c0.786,0,1.146-0.087,1.265-0.127c0.609-0.199,1.225-0.301,1.824-0.301
				c1.384,0,3.971,0.576,5.686,4.436c0.817,1.87,2.315,6.891,2.549,8.54c1.205,8.308-5.562,13.194-9.31,14.612
				c-0.084,0.033-0.167,0.06-0.253,0.08C237.893,326.562,191.375,328.598,158.859,328.598z M52.276,291.859l-5.386,4.705
				c-0.376,0.33-0.838,0.537-1.334,0.603c-0.31,0.043-7.779,1.115-7.359,6.403c0.546,6.898,1.827,11.193,14.978,12.654
				c0.12,0.014,0.24,0.037,0.355,0.066c9.517,2.466,55.319,7.27,105.326,7.27c46.121,0,85.727-3.983,114.546-11.528
				c0.891-0.373,6.885-3.126,6.01-9.15c-0.141-0.998-1.479-5.635-2.176-7.22c-0.436-0.984-0.896-1.432-1.073-1.432
				c-0.04,0-0.124,0.008-0.265,0.051c-0.78,0.256-1.703,0.375-2.824,0.375c-5.467,0-15.168-3.096-17.592-3.895l-74.026,8.338
				c-0.117,0.014-0.229,0.021-0.35,0.018l-88.52-2.258L52.276,291.859z"/>
		</g>
		<g>
			<path fill="#82637E" d="M45.923,262.318c0,0-15.019,3.548-11.943,9.695c3.072,6.145,5.731,7.991,4.095,11.065
				c-1.638,3.073-6.764,3.278-1.435,7.989c5.329,4.713,9.629,2.662,14.139,3.688c4.51,1.026,2.869,5.319,9.835,3.275
				c6.967-2.049,9.221-4.094,10.448-2.049c1.232,2.049-1.021,5.332,3.691,6.147c4.714,0.819,9.633,1.845,12.908,0
				c3.281-1.84,8.201-2.259,10.86,2.048c2.663,4.305,4.72,4.305,9.835,2.456c5.123-1.841,16.396,1.849,25.203,3.278
				c8.811,1.441,11.88-0.402,12.498-2.456c0.616-2.047,2.457-4.713,6.761-1.845c4.307,2.869,11.066,5.322,13.732,4.812
				c2.666-0.513,7.991-2.559,10.039-3.791c2.046-1.225,9.223-0.814,13.11,1.232c3.897,2.046,11.683,2.253,12.292-2.254
				c0.619-4.512,4.517-3.688,6.154-0.612c1.642,3.071,5.119,4.511,9.217,3.071c4.104-1.438,19.67,0.41,21.108-1.84
				c1.435-2.258,4.713-3.282,6.351-5.131c1.639-1.843,4.098-3.483,8.191,0.616c4.106,4.104,18.24-0.608,19.059-4.507
				c0.826-3.895,1.231-3.277,3.688-3.895c2.462-0.615,6.767-1.221,7.585-5.938c0.818-4.716,1.229-10.856,0-12.911
				c-1.228-2.05-4.572-7.552-4.572-7.552s-35.994-12.531-37.022-12.938c-1.025-0.41-132.983-1.438-132.983-1.438L45.923,262.318z"/>
			<path fill="#3C2517" d="M165.743,313.009c-3.932,0-10.492-2.749-14.323-5.302c-1.129-0.749-1.751-0.832-1.964-0.832
				c-0.549,0-0.896,1.002-0.988,1.309c-0.652,2.174-2.806,4.76-9.363,4.76c-1.737,0-3.737-0.18-5.951-0.543
				c-2.626-0.426-5.475-1.051-8.228-1.656c-4.697-1.029-9.553-2.096-12.987-2.096c-1.155,0-2.074,0.121-2.729,0.356
				c-2.196,0.793-4.011,1.321-5.719,1.321c-3.637,0-5.635-2.439-7.109-4.822c-0.905-1.465-2.173-2.178-3.877-2.178
				c-1.179,0-2.464,0.355-3.611,1.002c-1.621,0.913-3.582,1.355-5.998,1.355c-2.486,0-5.139-0.468-7.699-0.92l-0.875-0.149
				c-5.169-0.896-5.272-4.503-5.319-6.237c-0.006-0.173-0.013-0.383-0.022-0.574c-0.562,0.17-1.352,0.465-2.074,0.737
				c-1.44,0.542-3.238,1.218-5.581,1.903c-1.485,0.437-2.736,0.648-3.824,0.648l0,0c-2.903,0-4.307-1.514-5.236-2.519
				c-0.658-0.71-1.056-1.14-2.047-1.362c-1.147-0.263-2.38-0.279-3.681-0.299c-3.209-0.044-7.203-0.1-11.566-3.961
				c-1.515-1.342-3.252-3.166-3.209-5.393c0.043-2.091,1.551-3.318,2.649-4.213c0.605-0.498,1.182-0.964,1.444-1.451
				c0.394-0.74,0.32-1.104-1.444-4.002c-0.759-1.242-1.701-2.793-2.683-4.756c-0.872-1.744-0.909-3.572-0.109-5.285
				c2.372-5.076,11.853-7.543,13.729-7.988l63.033-9.809c0.134-0.021,0.264-0.018,0.406-0.031
				c132.432,1.032,133.313,1.383,133.896,1.611c0.948,0.366,22.6,7.919,36.917,12.904c0.553,0.188,1.022,0.569,1.325,1.067
				c0,0,3.353,5.514,4.576,7.566c2.063,3.447,0.769,12.075,0.323,14.639c-1.038,5.967-6.311,7.205-8.848,7.803l-0.605,0.143
				c-0.434,0.113-0.809,0.186-1.139,0.253c-0.101,0.021-0.189,0.033-0.272,0.05c-0.093,0.264-0.229,0.756-0.423,1.674
				c-0.988,4.69-10.469,8.088-16.378,8.088c-3.054,0-5.384-0.78-6.927-2.322c-1.64-1.641-2.57-1.816-2.896-1.816
				c-0.285,0-0.763,0.113-1.631,1.092c-0.952,1.074-2.163,1.841-3.335,2.582c-1.118,0.707-2.273,1.433-2.776,2.229
				c-1.378,2.152-4.763,2.391-11.639,2.391l-3.116-0.004c-2.036,0-6.277,0-7.642,0.479c-4.999,1.758-10.016-0.03-12.275-4.265
				c-0.423-0.799-0.981-1.129-1.218-1.193c0.007,0.086-0.137,0.367-0.216,0.961c-0.49,3.596-3.806,5.824-8.655,5.824
				c-2.568,0-5.298-0.629-7.306-1.684c-1.851-0.976-5.036-1.631-7.922-1.631c-1.714,0-2.553,0.245-2.735,0.34
				c-2.38,1.432-7.966,3.545-10.848,4.098C166.645,312.973,166.219,313.009,165.743,313.009z M149.456,301.839
				c1.484,0,3.089,0.562,4.76,1.679c3.828,2.553,9.243,4.459,11.527,4.459c0.126,0,0.235-0.004,0.335-0.022
				c2.437-0.47,7.493-2.438,9.214-3.476c1.165-0.699,2.955-1.049,5.314-1.049c2.937,0,7.174,0.579,10.269,2.211
				c1.272,0.668,3.219,1.103,4.959,1.103c0.357,0,3.472-0.04,3.666-1.47c0.535-3.931,3.004-5.328,5.135-5.328
				c2.228,0,4.48,1.519,5.731,3.871c1.122,2.097,3.475,2.822,6.165,1.881c1.82-0.641,4.792-0.762,9.309-0.762l3.116,0.002
				c1.595,0,6.267,0,7.655-0.445c1.107-1.521,2.676-2.514,4.07-3.395c0.915-0.576,1.781-1.123,2.261-1.662
				c0.608-0.69,2.469-2.789,5.395-2.789c2.134,0,4.247,1.078,6.46,3.295c0.537,0.537,1.766,0.847,3.363,0.847
				c5.055,0,10.869-2.833,11.472-4.175c0.746-3.545,1.562-4.937,4.624-5.541c0.256-0.053,0.553-0.109,0.893-0.196l0.679-0.163
				c2.761-0.648,4.604-1.258,5.036-3.762c1.027-5.904,0.846-10.291,0.32-11.193c-0.939-1.566-3.127-5.176-4.092-6.76
				c-5.965-2.077-32.366-11.273-35.904-12.545c-6.027-0.344-96.903-1.115-132.238-1.391l-62.637,9.741
				c-3.386,0.812-9.141,3.06-10.136,5.183c-0.123,0.267-0.153,0.488,0.053,0.898c0.886,1.777,1.73,3.165,2.48,4.391
				c1.823,2.994,3.401,5.582,1.588,8.99c-0.739,1.385-1.831,2.271-2.71,2.984c-0.19,0.156-0.436,0.355-0.629,0.529
				c0.193,0.27,0.583,0.726,1.348,1.4c2.962,2.623,5.315,2.653,8.298,2.699c1.504,0.02,3.062,0.04,4.729,0.423
				c2.511,0.569,3.781,1.94,4.624,2.853c0.726,0.783,0.838,0.902,1.541,0.902l0,0c0.596,0,1.403-0.148,2.403-0.441
				c2.163-0.637,3.863-1.275,5.231-1.788c1.934-0.729,3.209-1.212,4.494-1.212c1.537,0,2.778,0.717,3.591,2.07
				c0.753,1.248,0.789,2.58,0.815,3.549c0.01,0.375,0.026,0.938,0.101,1.104h0.003c0.013,0,0.263,0.176,1.042,0.312l0.885,0.152
				c4.101,0.723,8.374,1.252,10.357,0.133c1.895-1.063,4.056-1.646,6.082-1.646c3.445,0,6.344,1.621,8.157,4.562
				c1.508,2.438,2.24,2.438,2.829,2.438c1.039,0,2.61-0.516,4.014-1.023c1.223-0.439,2.674-0.652,4.435-0.652
				c3.98,0,9.106,1.125,14.066,2.213c2.688,0.586,5.468,1.197,7.961,1.602c1.947,0.322,3.674,0.482,5.139,0.482
				c3.419,0,4.451-0.873,4.544-1.18C144.566,303.669,146.737,301.839,149.456,301.839z"/>
		</g>
		<g>
			<path fill="#AE83A8" d="M284.657,248.753c0,23.37-56.334,42.315-125.818,42.315c-69.48,0-125.813-18.945-125.813-42.315
				c0-23.368,56.333-42.314,125.813-42.314C228.323,206.439,284.657,225.385,284.657,248.753z"/>
			<path fill="#3C2517" d="M158.839,293.585c-71.96,0-128.331-19.69-128.331-44.832c0-25.139,56.371-44.833,128.331-44.833
				c71.965,0,128.334,19.694,128.334,44.833C287.173,273.895,230.804,293.585,158.839,293.585z M158.839,208.957
				c-66.831,0-123.295,18.226-123.295,39.797c0,21.572,56.464,39.795,123.295,39.795c66.835,0,123.3-18.223,123.3-39.795
				C282.139,227.183,225.674,208.957,158.839,208.957z"/>
		</g>
	</g>
	<g>
		<g>
			<path fill="#F47C55" d="M426.401,345.924c-10.787,16.217-63.775-0.076-118.355-36.38c-54.58-36.31-90.074-78.887-79.29-95.1
				c10.788-16.216,63.773,0.073,118.354,36.383C401.685,287.134,437.186,329.711,426.401,345.924z"/>
			<path fill="#3C2517" d="M409.899,354.718c-23.381,0-63.906-16.907-103.248-43.077c-49.604-33-93.089-78.904-79.992-98.594
				c3.266-4.906,9.523-7.396,18.597-7.396c23.381,0,63.909,16.909,103.247,43.077c49.607,33.004,93.093,78.903,79.995,98.588
				C425.229,352.229,418.973,354.718,409.899,354.718z M245.256,210.684c-5.007,0-11.571,0.895-14.405,5.152
				c-8.755,13.167,20.732,53.122,78.59,91.612c38.572,25.655,78.005,42.233,100.459,42.233c5.005,0,11.571-0.896,14.404-5.152
				c8.757-13.166-20.731-53.117-78.592-91.607C307.145,227.266,267.712,210.684,245.256,210.684z"/>
		</g>
		<g>
			<path fill="#F8B099" d="M251.271,196.401c0,0-10.808-3.149-12.527,1.062c-1.717,4.211-0.835,12.535-1.271,14.266
				c-0.433,1.728-6.324-5.042-3.705,2.054c2.616,7.096,7.16,12.608,11.439,11.533c4.284-1.075,14.216,4.61,13.602,6.91
				c-1.672,6.268,8.051,15.251,12.23,12.188c4.178-3.059,6.327,3.365,8.225,5.34c1.897,1.977,9.986,14.494,12.535,13.34
				c2.557-1.162,11.783-4.297,12.864,5.338c1.082,9.645,10.191,15.258,14.286,13.389c4.097-1.863,14.072,1.91,12.595,6.279
				c-1.478,4.371,4.463,8.317,11.05,9.137c6.595,0.82,8.242,2.634,11.46,7.986c3.223,5.348,15.171,9.375,17.891,7.971
				c2.721-1.4,5.105-3.381,9.232,4.361c4.128,7.744,12.206,11.686,16.326,9.788c4.117-1.897,9.03-0.772,15.397,6.319
				c6.366,7.093,14.108,8.863,19.016,4.714c4.899-4.149,11.486-17.155,9.502-19.056"/>
			<path fill="#3C2517" d="M425.812,343.098c-4.863,0-10.231-2.682-14.785-7.755c-6.524-7.269-10.245-6.743-12.473-5.715
				c-5.788,2.673-15.138-2.521-19.602-10.892c-1.938-3.635-3.071-4.221-3.371-4.312c-0.35-0.117-0.985,0.209-1.914,0.706l-0.569,0.3
				c-4.161,2.146-17.529-2.816-21.201-8.908c-3.038-5.056-4.113-6.104-9.612-6.785c-5.452-0.676-10.298-3.226-12.345-6.487
				c-1.188-1.894-1.458-3.954-0.783-5.955c0.077-0.224-0.278-0.675-0.665-1.024c-2.199-1.994-6.8-2.941-8.501-2.156
				c-2.32,1.062-5.436,0.662-8.543-1.098c-3.97-2.248-8.488-7.184-9.287-14.304c-0.23-2.044-0.898-3.396-1.986-4.015
				c-2.041-1.154-5.571-0.109-7.329,0.688c-3.361,1.521-6.714-2.315-13.041-10.834c-0.966-1.302-1.968-2.649-2.354-3.053
				c-0.633-0.658-1.182-1.51-1.758-2.416c-0.59-0.918-1.823-2.836-2.49-2.962c-0.064-0.017-0.318,0.063-0.676,0.323
				c-2.415,1.773-5.795,1.42-9.275-0.956c-4.15-2.835-7.885-8.344-7.02-13.247c-1.432-1.764-7.995-5.096-10.411-4.483
				c-5.326,1.341-10.987-3.811-14.416-13.107c-0.609-1.65-1.63-4.42,0.271-6.018c1.108-0.932,2.352-0.775,3.424-0.355
				c0-0.034,0-0.067,0-0.1c-0.007-3.548-0.017-8.408,1.315-11.663c2.394-5.858,12.521-3.418,15.563-2.533
				c1.334,0.39,2.101,1.788,1.711,3.122c-0.387,1.332-1.777,2.097-3.116,1.714c-4.772-1.378-9.156-1.231-9.496-0.4
				c-0.955,2.337-0.948,6.8-0.945,9.753c0.004,2.164-0.003,3.328-0.216,4.173c-0.227,0.902-0.835,1.621-1.67,1.971
				c-0.51,0.213-1.006,0.263-1.469,0.213c2.507,5.861,5.818,8.84,7.818,8.344c4.707-1.185,12.415,3.005,15.051,5.681
				c1.436,1.458,1.975,2.913,1.595,4.324c-0.625,2.353,1.595,6.228,4.853,8.451c1.647,1.128,3.01,1.384,3.459,1.055
				c1.491-1.092,3.032-1.501,4.573-1.211c2.812,0.522,4.472,3.111,5.806,5.198c0.422,0.659,0.857,1.338,1.147,1.642
				c0.582,0.603,1.392,1.684,2.771,3.538c1.616,2.181,5.752,7.741,7.584,8.96c2.207-0.892,7.236-2.456,11.228-0.193
				c1.768,1.004,3.98,3.18,4.507,7.836c0.583,5.234,3.877,8.848,6.763,10.479c1.821,1.035,3.339,1.191,3.977,0.898
				c3.986-1.813,10.778,0.123,13.963,3.002c2.053,1.856,2.802,4.181,2.06,6.378c-0.124,0.368-0.206,0.892,0.279,1.663
				c1.235,1.968,4.813,3.682,8.697,4.168c7.651,0.943,9.826,3.396,13.308,9.184c2.572,4.268,12.657,7.571,14.675,6.988l0.412-0.227
				c1.43-0.763,3.382-1.812,5.77-1.072c2.26,0.697,4.21,2.777,6.334,6.755c3.588,6.733,10.395,9.905,13.047,8.687
				c5.774-2.654,11.761-0.389,18.326,6.928c5.286,5.885,11.66,7.729,15.518,4.474c4.171-3.538,8.943-13.394,8.98-15.822
				c-0.583-0.952-0.479-2.211,0.33-3.057c0.961-0.998,2.556-1.032,3.561-0.072c0.796,0.761,1.176,1.845,1.136,3.215
				c-0.149,4.819-6.077,15.614-10.754,19.578C431.314,342.184,428.648,343.096,425.812,343.098z"/>
		</g>
		<g>
			<path fill="#B85D3F" d="M261.805,180.811c0,0-10.82-4.104-13.364,5.618c-2.547,9.726,5.243,29.363,84.762,81.483
				c85.688,57.361,106.061,57.697,112.027,49.074c5.371-10.701,3.379-11.902,3.379-11.902"/>
			<path fill="#3C2517" d="M436.124,323.624c-13.64,0-41.829-11.782-104.323-53.617c-63.652-41.722-90.121-67.697-85.797-84.213
				c0.878-3.355,2.676-5.754,5.339-7.129c4.992-2.566,11.097-0.306,11.354-0.207c1.298,0.493,1.953,1.947,1.461,3.249
				c-0.492,1.298-1.94,1.947-3.238,1.461c-1.191-0.442-4.816-1.305-7.283-0.02c-1.351,0.706-2.253,1.984-2.759,3.921
				c-3.541,13.522,24.62,40.014,83.704,78.74c64.58,43.229,101.073,60.002,108.485,49.877c3.133-6.273,3.389-8.668,3.386-9.297
				c-0.467-0.774-0.5-1.777,0-2.604c0.715-1.192,2.259-1.578,3.454-0.854c3.578,2.155,0.33,9.697-2.427,15.187
				c-0.05,0.106-0.112,0.207-0.18,0.307C445.25,321.383,442.068,323.624,436.124,323.624z"/>
		</g>
		<g>
			<path fill="#F8B099" d="M279.055,153.205c0,0-5.844,6.523-8.154,3.561c-2.312-2.966-5.935-1.807-8.07,3.555
				c-2.141,5.355,0.173,9.386-2.796,10.631c-2.964,1.238-10.458,4.457-4.106,8.324c6.348,3.864,10.291,1.158,9.643,6.424
				c-0.648,5.269-0.236,7.33,3.556,8.065c3.791,0.739,8.653,0.403,8.735,4.027c0.091,3.631,0.582,6.101,3.549,8.075
				c2.973,1.974,7.34,0.239,8.826,3.368c1.484,3.132-2.629,8.245,2.15,9.639c4.78,1.398,9.146-2.483,11.37,0.073
				c2.228,2.55,2.093,5.056,1.823,6.917c-0.522,3.542,3.059,8.274,8.701,7.838c5.642-0.433,9.593-2.087,8.859,2.776
				c-0.738,4.86,4.594,11.328,8.729,10.482c4.14-0.853,6.85-3.326,9.249,3.262c2.393,6.59,5.854,7.821,11.13,9.545
				c5.276,1.729,9.976,3.78,14.103,8.312c4.124,4.525,7.17,5.844,17.729,11.434c10.551,5.59,11.703,6.008,17.475,6.988
				c5.769,0.982,10.464,0.896,14.1,7.232c3.632,6.345,9.479,7.738,15.497,7.815c6.015,0.079,7.42,1.724,11.211,3.534
				c3.791,1.809,7.252,3.042,10.794-0.673c3.541-3.711,13.666-22.695,3.102-33.638"/>
			<path fill="#3C2517" d="M448.109,309.352c-2.655,0-5.073-1.151-6.837-1.996c-0.869-0.414-1.614-0.819-2.32-1.198
				c-2.259-1.226-3.754-2.034-7.838-2.089c-5.387-0.071-13.074-1.09-17.65-9.082c-2.586-4.518-5.635-4.978-10.248-5.676
				c-0.679-0.1-1.374-0.207-2.091-0.326c-6.21-1.059-7.575-1.604-18.227-7.245l-3.154-1.664c-8.208-4.32-11.276-5.935-15.258-10.3
				c-3.621-3.978-7.665-5.859-13.021-7.613c-5.292-1.729-9.857-3.223-12.714-11.08c-1.146-3.133-1.306-3.086-3.997-2.281
				c-0.743,0.221-1.535,0.453-2.381,0.623c-2.409,0.499-5.139-0.496-7.482-2.72c-2.543-2.42-4.842-6.634-4.238-10.601
				c0.028-0.207,0.046-0.373,0.053-0.506c-0.723-0.036-2.021,0.143-3.022,0.27c-0.987,0.123-2.065,0.259-3.209,0.343
				c-3.367,0.266-6.59-0.959-8.822-3.352c-1.975-2.11-2.933-4.863-2.563-7.359c0.22-1.511,0.311-3.139-1.228-4.893
				c-0.356-0.143-1.654,0.176-2.518,0.386c-2.11,0.513-4.739,1.155-7.661,0.299c-5.086-1.484-4.273-6.071-3.881-8.278
				c0.176-0.981,0.396-2.206,0.158-2.699c-0.197-0.423-0.686-0.57-2.586-0.779c-1.594-0.169-3.578-0.386-5.354-1.571
				c-4.154-2.762-4.588-6.506-4.674-10.108c-0.018-0.652-1.854-0.942-4.074-1.221c-0.889-0.113-1.783-0.233-2.629-0.396
				c-6.75-1.315-6.068-6.823-5.568-10.847c0.053-0.439,0.053-0.713,0.043-0.873c-0.333-0.12-0.951-0.263-1.428-0.373
				c-1.768-0.406-4.185-0.962-7.073-2.719c-2.599-1.584-3.834-3.462-3.675-5.582c0.301-3.948,5.586-6.158,8.125-7.216
				c0.127-0.223,0.156-1.285,0.177-2.057c0.05-1.837,0.112-4.347,1.248-7.186c1.558-3.904,3.958-6.277,6.757-6.677
				c2.021-0.293,3.99,0.54,5.455,2.28c0.939-0.247,3.025-1.844,4.48-3.465c0.928-1.039,2.522-1.122,3.555-0.197
				c1.035,0.929,1.125,2.52,0.195,3.555c-1.115,1.245-5.132,5.222-8.613,5.172c-1.358-0.05-2.566-0.666-3.404-1.741
				c-0.243-0.312-0.641-0.652-0.956-0.619c-0.505,0.073-1.733,0.905-2.793,3.555c-0.798,2.007-0.849,3.837-0.892,5.455
				c-0.061,2.22-0.14,5.259-3.266,6.567c-3.715,1.551-4.714,2.5-4.982,2.896c0.134,0.17,0.464,0.502,1.209,0.955
				c2.193,1.334,4.07,1.767,5.578,2.113c2.359,0.539,5.92,1.358,5.256,6.77c-0.604,4.873-0.146,4.959,1.537,5.289
				c0.738,0.143,1.523,0.243,2.304,0.34c3.325,0.426,8.354,1.068,8.471,6.098c0.087,3.531,0.604,4.829,2.425,6.037
				c0.758,0.506,1.902,0.626,3.117,0.759c2.167,0.24,5.133,0.566,6.588,3.625c0.926,1.947,0.549,4.054,0.248,5.742
				c-0.133,0.752-0.357,2.003-0.197,2.333l0,0c0,0,0.136,0.113,0.531,0.226c1.635,0.479,3.371,0.057,5.061-0.359
				c2.376-0.573,5.335-1.298,7.501,1.201c2.823,3.226,2.774,6.467,2.417,8.931c-0.144,0.968,0.353,2.223,1.261,3.195
				c0.696,0.746,2.237,1.967,4.757,1.768c1.057-0.08,2.051-0.206,2.963-0.319c3.042-0.389,5.676-0.719,7.437,1.085
				c1.631,1.674,1.264,4.104,1.145,4.899c-0.278,1.824,0.872,4.43,2.732,6.197c1.078,1.025,2.271,1.592,2.999,1.441
				c0.691-0.143,1.342-0.34,1.954-0.522c2.952-0.872,7.404-2.204,10.164,5.389c2.021,5.556,4.696,6.427,9.551,8.019
				c5.964,1.947,10.83,4.227,15.181,9.006c3.381,3.708,6.027,5.1,13.876,9.233l3.169,1.672c10.447,5.537,11.383,5.819,16.72,6.731
				c0.678,0.113,1.345,0.213,1.992,0.311c4.952,0.749,10.068,1.523,13.866,8.15c2.576,4.504,6.57,6.461,13.344,6.551
				c5.329,0.066,7.683,1.346,10.176,2.693c0.633,0.346,1.309,0.711,2.091,1.084c3.934,1.879,5.715,2.137,7.888-0.137
				c2.717-2.849,12.502-20.426,3.112-30.152c-0.966-0.998-0.938-2.592,0.062-3.558c0.995-0.965,2.593-0.938,3.562,0.062
				c12.015,12.445,0.846,32.996-3.097,37.123C452.677,308.559,450.31,309.352,448.109,309.352z"/>
		</g>
		<g>
			<path fill="#F47C55" d="M475.585,271.99c-10.787,16.217-63.775-0.073-118.354-36.379c-54.579-36.307-90.073-78.891-79.289-95.104
				c10.787-16.213,63.771,0.074,118.354,36.383C450.869,213.197,486.373,255.773,475.585,271.99z"/>
			<path fill="#3C2517" d="M459.084,280.784c-23.386,0-63.914-16.908-103.248-43.076c-49.607-33.002-93.09-78.901-79.992-98.592
				c3.27-4.913,9.521-7.402,18.596-7.402c23.383,0,63.909,16.912,103.252,43.08c49.604,33.001,93.09,78.903,79.991,98.591
				C474.417,278.293,468.16,280.784,459.084,280.784z M294.439,136.75c-5.006,0-11.57,0.895-14.402,5.152
				c-8.758,13.167,20.729,53.122,78.585,91.612c38.568,25.656,78.001,42.234,100.462,42.234c5.009,0,11.572-0.893,14.405-5.152
				c8.757-13.164-20.729-53.115-78.588-91.608C356.331,153.328,316.896,136.75,294.439,136.75z"/>
		</g>
	</g>
</g>
</svg>
