<?xml version="1.0" encoding="utf-8"?>
<!-- Generator: Adobe Illustrator 16.0.0, SVG Export Plug-In . SVG Version: 6.00 Build 0)  -->
<!DOCTYPE svg PUBLIC "-//W3C//DTD SVG 1.1//EN" "http://www.w3.org/Graphics/SVG/1.1/DTD/svg11.dtd">
<svg version="1.1" id="Layer_1" xmlns="http://www.w3.org/2000/svg" xmlns:xlink="http://www.w3.org/1999/xlink" x="0px" y="0px"
	 width="500px" height="500px" viewBox="0 0 500 500" enable-background="new 0 0 500 500" xml:space="preserve">
<g id="Layer_1_copy_70">
	<g>
		<polygon fill="#FFC62F" points="364.858,163.494 229.903,298.448 94.954,163.494 229.903,28.542 		"/>
		<path fill="#27140E" d="M229.903,302.009c-0.91,0-1.821-0.349-2.517-1.042L92.435,166.012c-0.67-0.668-1.045-1.573-1.045-2.518
			c0-0.947,0.375-1.852,1.045-2.521L227.387,26.021c1.392-1.392,3.646-1.392,5.04,0l134.952,134.952
			c0.667,0.668,1.042,1.574,1.042,2.521c0,0.945-0.375,1.85-1.042,2.518L232.427,300.967
			C231.728,301.661,230.817,302.009,229.903,302.009z M99.99,163.494l129.913,129.915l129.916-129.915L229.903,33.58L99.99,163.494z
			"/>
	</g>
	<g>
		<polygon fill="#D25631" points="229.738,238.583 159.859,309.634 299.95,309.634 		"/>
		<path fill="#27140E" d="M299.95,313.205H159.859c-1.435,0-2.731-0.866-3.284-2.188c-0.559-1.324-0.264-2.854,0.742-3.875
			l69.88-71.059c0.67-0.685,1.649-1.056,2.541-1.063c0.951,0,1.865,0.378,2.535,1.056l70.211,71.059
			c1.009,1.021,1.309,2.552,0.755,3.875C302.688,312.338,301.389,313.205,299.95,313.205z M168.359,306.073h123.062l-61.678-62.413
			L168.359,306.073z"/>
	</g>
	<g>
		<path fill="#27140E" d="M229.903,244.195c-1.968,0-3.562-1.6-3.562-3.566V28.542c0-1.969,1.594-3.563,3.562-3.563
			c1.97,0,3.565,1.595,3.565,3.563V240.63C233.469,242.596,231.873,244.195,229.903,244.195z"/>
	</g>
	<g>
		<path fill="#27140E" d="M95.734,166.72c-0.868,0-1.734-0.313-2.419-0.949c-1.442-1.333-1.529-3.589-0.196-5.035
			c38.589-41.724,75.452-76.266,135.943-76.266c58.288,0,100.743,36.315,137.938,75.558c1.351,1.427,1.289,3.684-0.135,5.038
			c-1.429,1.354-3.687,1.297-5.04-0.136c-36.099-38.086-77.171-73.333-132.763-73.333c-52.371,0-86.342,25.999-130.71,73.98
			C97.649,166.336,96.695,166.72,95.734,166.72z"/>
	</g>
	<g>
		<path fill="#27140E" d="M410.061,471.188c-1.248,0-2.465-0.661-3.119-1.828c-3.795-6.841-6.748-12.936-8.911-17.394
			c-0.729-1.5-1.373-2.841-1.952-3.984c-2.651-6.258-27.501-59.573-110.53-68.097c-25.981-2.664-44.233-11.652-54.246-26.701
			c-13.748-20.67-6.639-44.873-6.325-45.894c0.567-1.888,2.549-2.959,4.442-2.375c1.88,0.567,2.943,2.55,2.376,4.437l0,0
			c-0.066,0.217-6.425,22.111,5.479,39.938c8.788,13.16,25.271,21.07,48.998,23.512c33.514,3.438,61.832,14.239,84.179,32.1
			c21.225,16.979,29.937,34.982,32.103,40.096c0.488,0.962,1.15,2.331,1.895,3.861c2.12,4.384,5.024,10.38,8.729,17.034
			c0.954,1.728,0.335,3.892-1.384,4.853C411.241,471.049,410.647,471.188,410.061,471.188z"/>
	</g>
	<g>
		<polygon fill="#E1B866" points="236.356,353.956 254.484,329.993 265.17,347.912 		"/>
		<path fill="#27140E" d="M236.356,357.52c-1.205,0-2.35-0.605-3.008-1.646c-0.799-1.262-0.732-2.878,0.167-4.064l18.125-23.972
			c0.715-0.944,1.836-1.463,3.041-1.405c1.184,0.065,2.254,0.715,2.861,1.734l10.686,17.917c0.59,0.991,0.668,2.199,0.205,3.257
			c-0.463,1.055-1.406,1.82-2.531,2.053l-28.813,6.054C236.844,357.498,236.601,357.52,236.356,357.52z M254.137,336.368
			l-9.196,12.146l14.611-3.072L254.137,336.368z"/>
	</g>
	<g>
		<polygon fill="#6773B7" points="288.896,376.471 297.795,347.764 313.936,360.993 		"/>
		<path fill="#27140E" d="M288.896,380.033c-0.771,0-1.545-0.248-2.186-0.743c-1.173-0.91-1.661-2.454-1.216-3.875l8.897-28.705
			c0.349-1.129,1.236-2.019,2.377-2.358c1.129-0.344,2.363-0.096,3.281,0.662l16.142,13.219c0.892,0.729,1.372,1.843,1.299,2.994
			c-0.075,1.145-0.701,2.192-1.679,2.789L290.77,379.5C290.189,379.857,289.546,380.033,288.896,380.033z M299.63,353.876
			l-4.513,14.56l12.699-7.856L299.63,353.876z"/>
	</g>
	<g>
		<polygon fill="#75C7A9" points="336.22,388.837 350.634,362.464 363.832,378.626 		"/>
		<path fill="#27140E" d="M336.22,392.398c-1.017,0-2.007-0.437-2.697-1.235c-0.974-1.123-1.145-2.733-0.432-4.035l14.419-26.376
			c0.567-1.033,1.616-1.727,2.796-1.836c1.165-0.122,2.339,0.373,3.089,1.29l13.197,16.169c0.729,0.891,0.98,2.077,0.678,3.186
			c-0.298,1.113-1.121,2.01-2.198,2.41l-27.617,10.203C337.05,392.327,336.634,392.398,336.22,392.398z M351.22,368.814
			l-7.31,13.373l14.004-5.17L351.22,368.814z"/>
	</g>
	<g>
		<polygon fill="#E1B866" points="376.556,413.24 396.434,390.695 405.741,409.371 		"/>
		<path fill="#27140E" d="M376.556,416.8c-1.304,0-2.52-0.715-3.143-1.888c-0.699-1.311-0.513-2.919,0.471-4.035l19.873-22.535
			c0.786-0.889,1.966-1.34,3.136-1.181c1.177,0.153,2.195,0.882,2.729,1.944l9.312,18.67c0.514,1.033,0.494,2.25-0.041,3.264
			c-0.542,1.018-1.54,1.711-2.684,1.863l-29.182,3.867C376.869,416.792,376.713,416.8,376.556,416.8z M395.604,397.023
			l-10.076,11.429l14.797-1.958L395.604,397.023z"/>
	</g>
	<g>
		<polygon fill="#D25631" points="398.105,444.63 422.562,427.171 427.407,447.472 		"/>
		<path fill="#27140E" d="M427.407,451.034c-0.112,0-0.227-0.009-0.343-0.017l-29.303-2.833c-1.48-0.145-2.717-1.194-3.103-2.629
			c-0.379-1.435,0.164-2.957,1.373-3.824l24.462-17.46c0.965-0.684,2.214-0.851,3.321-0.43c1.106,0.417,1.94,1.35,2.214,2.507
			l4.71,19.746c0.182,0.423,0.275,0.889,0.275,1.377c0,1.965-1.596,3.562-3.562,3.562
			C427.439,451.034,427.425,451.034,427.407,451.034z M407.924,442l14.858,1.443l-2.455-10.292L407.924,442z"/>
	</g>
	<g>
		
			<path fill="none" stroke="#27140E" stroke-width="7.1268" stroke-linecap="round" stroke-linejoin="round" stroke-miterlimit="10" d="
			M359.064,407.404"/>
	</g>
	<g>
		<polygon fill="#75C7A9" points="235.854,353.432 210.594,369.719 227.663,381.708 		"/>
		<path fill="#27140E" d="M227.663,385.27c-0.721,0-1.438-0.22-2.046-0.648l-17.074-11.989c-0.968-0.685-1.536-1.805-1.515-2.993
			c0.025-1.181,0.638-2.271,1.636-2.922l25.256-16.277c1.253-0.809,2.869-0.75,4.06,0.138c1.192,0.882,1.709,2.419,1.294,3.847
			l-8.183,28.274c-0.321,1.106-1.155,1.989-2.24,2.375C228.465,385.204,228.064,385.27,227.663,385.27z M216.974,369.841
			l8.657,6.084l4.151-14.343L216.974,369.841z"/>
	</g>
	<g>
		<polygon fill="#D25631" points="288.686,376.527 269.479,399.646 289.359,405.969 		"/>
		<path fill="#27140E" d="M289.359,409.531c-0.36,0-0.726-0.059-1.073-0.166l-19.886-6.323c-1.129-0.356-2.008-1.261-2.338-2.396
			c-0.334-1.137-0.08-2.366,0.678-3.278l19.207-23.117c0.949-1.146,2.513-1.565,3.91-1.086c1.402,0.487,2.356,1.799,2.39,3.285
			l0.683,29.433c0.021,1.151-0.511,2.25-1.429,2.938C290.878,409.29,290.124,409.531,289.359,409.531z M275.602,397.855
			l10.084,3.203l-0.347-14.93L275.602,397.855z"/>
	</g>
	<g>
		<polygon fill="#E1B866" points="336.157,388.27 317.062,411.482 336.984,417.705 		"/>
		<path fill="#27140E" d="M336.984,421.266c-0.356,0-0.715-0.053-1.064-0.159l-19.917-6.223c-1.133-0.356-2.018-1.245-2.353-2.382
			c-0.338-1.143-0.096-2.366,0.663-3.285l19.094-23.213c0.943-1.143,2.507-1.581,3.903-1.1c1.406,0.48,2.363,1.783,2.407,3.271
			l0.827,29.427c0.032,1.15-0.492,2.242-1.413,2.942C338.506,421.018,337.753,421.266,336.984,421.266z M323.181,409.663
			l10.101,3.153l-0.419-14.933L323.181,409.663z"/>
	</g>
	<g>
		<polygon fill="#6773B7" points="376.195,414.57 350.332,429.867 366.923,442.518 		"/>
		<path fill="#27140E" d="M366.923,446.08c-0.768,0-1.533-0.254-2.159-0.729l-16.592-12.646c-0.943-0.719-1.468-1.864-1.397-3.05
			c0.068-1.182,0.721-2.253,1.739-2.855l25.868-15.297c1.275-0.75,2.896-0.634,4.05,0.292c1.158,0.933,1.616,2.491,1.145,3.896
			l-9.27,27.939c-0.359,1.102-1.23,1.945-2.334,2.287C367.634,446.023,367.277,446.08,366.923,446.08z M356.697,430.238l8.42,6.419
			l4.698-14.167L356.697,430.238z"/>
	</g>
	<g>
		<polygon fill="#F79533" points="398.262,443.88 373.501,460.917 390.924,472.396 		"/>
		<path fill="#27140E" d="M390.924,475.958c-0.688,0-1.373-0.195-1.96-0.59l-17.426-11.479c-0.988-0.648-1.592-1.757-1.604-2.941
			c-0.015-1.188,0.567-2.294,1.545-2.973l24.765-17.028c1.224-0.848,2.841-0.838,4.057,0.014c1.222,0.854,1.785,2.368,1.413,3.81
			l-7.339,28.517c-0.287,1.116-1.092,2.026-2.166,2.434C391.794,475.878,391.356,475.958,390.924,475.958z M379.882,460.852
			l8.834,5.82l3.724-14.459L379.882,460.852z"/>
	</g>
</g>
</svg>
