<?xml version="1.0" encoding="utf-8"?>
<!-- Generator: Adobe Illustrator 16.0.0, SVG Export Plug-In . SVG Version: 6.00 Build 0)  -->
<!DOCTYPE svg PUBLIC "-//W3C//DTD SVG 1.1//EN" "http://www.w3.org/Graphics/SVG/1.1/DTD/svg11.dtd">
<svg version="1.1" id="Layer_1" xmlns="http://www.w3.org/2000/svg" xmlns:xlink="http://www.w3.org/1999/xlink" x="0px" y="0px"
	 width="500px" height="500px" viewBox="0 0 500 500" enable-background="new 0 0 500 500" xml:space="preserve">
<g id="Layer_1_copy_32">
	<g>
		<path fill="#FBAA19" d="M260.799,128.804c0,0,114.691,17.479,89.543,167.749C325.194,446.81,211.729,477.477,172.477,474.406
			c-39.252-3.064-71.758-25.757-50.904-94.447c11.922-30.281-3.603-65.02-12.182-80.607c-2.884-5.25-6.522-15.162-7.265-26.11
			c-2.558-38.019,4.525-125.566,118.804-148.422C234.978,122.046,260.799,128.804,260.799,128.804z"/>
		<path fill="#27140E" d="M177.952,478.568c-2.021,0-3.97-0.075-5.782-0.212c-23.736-1.854-41.533-10.52-51.456-25.055
			c-11.732-17.184-12.716-42.243-2.929-74.493c0.03-0.099,0.064-0.195,0.106-0.303c11.498-29.208-4.536-63.749-11.968-77.24
			c-3.237-5.895-6.968-16.283-7.744-27.762c-2.561-38.028,4.203-129.013,121.979-152.568c2.504-0.494,5.455-0.744,8.777-0.744
			c13.794,0,30.576,4.196,32.672,4.733c3.686,0.603,44.258,8.022,71.784,46.026c22.628,31.241,29.643,73.716,20.854,126.252
			c-10.532,62.915-38.348,113.203-80.445,145.438C239.207,469.132,201.604,478.568,177.952,478.568z M125.313,381.26
			c-9.008,29.76-8.357,52.497,1.938,67.578c8.646,12.666,23.968,19.938,45.532,21.625c1.611,0.121,3.352,0.189,5.169,0.189
			c38.725,0,144.495-31.396,168.485-174.76c8.429-50.363,1.884-90.836-19.459-120.3c-26.318-36.339-66.377-42.816-66.777-42.877
			c-0.137-0.021-0.273-0.049-0.401-0.085c-0.174-0.045-17.472-4.522-30.864-4.522c-2.812,0-5.247,0.196-7.241,0.59
			c-37.175,7.434-122.875,36.382-115.618,144.273c0.688,10.2,4.086,19.562,6.783,24.471
			C122.738,315.393,137.474,350.131,125.313,381.26z"/>
	</g>
	<g>
		<path fill="#24B34B" d="M280.422,83.726c0,0,90.16-111.012,173.571,23.307C381.622,167.136,280.422,83.726,280.422,83.726z"/>
		<path fill="#27140E" d="M392.837,132.761c-58.476,0-112.655-44.104-114.935-45.982c-1.676-1.383-1.926-3.861-0.553-5.55
			c1.477-1.818,36.739-44.558,84.638-44.558c35.149,0,67.235,22.972,95.37,68.274c1.044,1.68,0.685,3.868-0.838,5.132
			C438.399,125.128,416.971,132.761,392.837,132.761z M286.182,83.185c12.454,9.363,58.878,41.662,106.655,41.662
			c21.046,0,39.845-6.288,55.924-18.695c-26.114-40.854-55.296-61.563-86.772-61.563C324.938,44.587,295.049,73.59,286.182,83.185z"
			/>
	</g>
	<g>
		<path fill="#27140E" d="M161.433,255.117c-1.985,0-3.699-1.49-3.926-3.512c-5.819-51.045,53.598-71.463,54.199-71.664
			c2.065-0.694,4.306,0.426,5.002,2.499c0.695,2.073-0.424,4.315-2.497,5.009c-0.137,0.045-13.923,4.737-26.786,15.041
			c-16.752,13.415-24.172,29.64-22.057,48.222c0.25,2.171-1.309,4.131-3.48,4.381C161.736,255.111,161.581,255.117,161.433,255.117z
			"/>
	</g>
	<g>
		<path fill="#683614" d="M216.329,19.939c0,0,51.828,2.453,64.093,10.428c-18.095,36.492-25.146,125.117-25.146,125.117
			s-35.57-1.841-39.864-3.066c-19.012-46.614,0-132.479,0-132.479"/>
		<path fill="#27140E" d="M255.277,159.441c-0.067,0-0.139,0-0.207-0.003c-6.016-0.312-36.249-1.932-40.747-3.216
			c-1.168-0.333-2.117-1.184-2.58-2.31c-19.257-47.214-0.983-131.271-0.196-134.828c0.439-2.001,2.33-3.323,4.32-3.074
			c0.212-0.026,0.428-0.034,0.651-0.024c5.41,0.257,53.266,2.745,66.061,11.064c1.685,1.093,2.276,3.276,1.389,5.075
			c-17.547,35.387-24.676,122.795-24.747,123.673C259.059,157.865,257.329,159.441,255.277,159.441z M218.289,148.914
			c5.213,0.671,19.507,1.657,33.373,2.414c1.536-17.055,8.438-84.936,23.547-119.154c-12.047-4.767-42.336-7.356-56.598-8.153
			C215.508,39.691,203.209,108.671,218.289,148.914z"/>
	</g>
</g>
</svg>
