<?xml version="1.0" encoding="utf-8"?>
<!-- Generator: Adobe Illustrator 16.0.0, SVG Export Plug-In . SVG Version: 6.00 Build 0)  -->
<!DOCTYPE svg PUBLIC "-//W3C//DTD SVG 1.1//EN" "http://www.w3.org/Graphics/SVG/1.1/DTD/svg11.dtd">
<svg version="1.1" id="Layer_1" xmlns="http://www.w3.org/2000/svg" xmlns:xlink="http://www.w3.org/1999/xlink" x="0px" y="0px"
	 width="500px" height="500px" viewBox="0 0 500 500" enable-background="new 0 0 500 500" xml:space="preserve">
<g id="Layer_1_copy_100">
	<g>
		<path fill="#BBE6FB" d="M106.229,117.423l5.79,299.413c0,0-2.263,47.596,44.429,47.596c46.688,0,119.217,0,119.217,0
			s41.705-0.451,42.155-52.582c0.457-52.132,3.56-290.631,3.56-290.631l-111.896-12.184L106.229,117.423z"/>
		<path fill="#27140E" d="M275.664,467.152H156.447c-14.383,0-25.809-4.336-33.971-12.895
			c-14.088-14.776-13.215-36.625-13.173-37.553l-5.795-299.229c-0.031-1.436,1.065-2.647,2.497-2.762l103.259-8.388
			c0.168-0.016,0.345-0.016,0.513,0.004l111.896,12.184c1.396,0.153,2.444,1.341,2.425,2.742
			c-0.029,2.383-3.108,239.089-3.559,290.614c-0.47,54.17-44.4,55.28-44.846,55.28C275.682,467.152,275.675,467.152,275.664,467.152
			z M108.993,119.924l5.745,296.858c-0.007,0.382-0.777,20.69,11.706,33.744c7.091,7.424,17.184,11.186,30.003,11.186h119.198
			c1.776-0.03,39.033-1.287,39.455-49.887c0.427-48.69,3.194-262.668,3.527-288.17l-109.18-11.89L108.993,119.924z"/>
	</g>
	<g>
		<path fill="#BBE6FB" d="M321.379,119.327c0,13.391-48.163,24.25-107.579,24.25c-59.409,0-107.571-10.859-107.571-24.25
			c0-13.391,48.162-24.25,107.571-24.25C273.216,95.077,321.379,105.936,321.379,119.327z"/>
		<path fill="#27140E" d="M213.8,146.297c-53.469,0-110.291-9.45-110.291-26.97S160.331,92.354,213.8,92.354
			c53.472,0,110.298,9.453,110.298,26.973S267.271,146.297,213.8,146.297z M213.8,97.797c-64.964,0-104.852,12.541-104.852,21.53
			c0,8.994,39.888,21.53,104.852,21.53c64.97,0,104.859-12.537,104.859-21.53C318.659,110.337,278.77,97.797,213.8,97.797z"/>
	</g>
	<g>
		<path fill="#E99123" d="M123.557,243.423l3.056,174.409c0,0,1.36,32.642,35.358,31.279c38.078,0,102.132,0.045,102.132,0.045
			s35.221,0,35.765-26.903c0.532-26.177,2.438-178.83,2.438-178.83H123.557L123.557,243.423z"/>
		<path fill="#27140E" d="M264.104,451.875H264.1c0,0-64.051-0.046-102.128-0.046c-0.625,0.031-1.337,0.046-2.041,0.046
			c-34.22,0-36.021-33.592-36.032-33.93l-3.061-174.474c-0.016-0.728,0.268-1.436,0.777-1.953c0.51-0.521,1.21-0.816,1.942-0.816
			h178.75c0.729,0,1.426,0.291,1.936,0.812c0.514,0.517,0.793,1.217,0.785,1.945c-0.021,1.525-1.911,152.958-2.439,178.845
			C302.112,445.695,277.203,451.875,264.104,451.875z M164.771,446.391c38.261,0,98.776,0.045,99.329,0.045
			c0.117,0,8.545-0.061,16.842-3.23c10.553-4.046,16.008-11.108,16.205-21.006c0.486-23.932,2.146-155.288,2.406-176.052H126.321
			l3.011,171.639c0.054,1.126,1.725,29.814,32.528,28.604C162.813,446.391,163.791,446.391,164.771,446.391z"/>
	</g>
	<g>
		<path fill="#BBE6FB" d="M237.991,266.574c-11.452-19.711-129.369-222.72-129.369-222.72L80.289,54.05
			c0,0-10.878,6.121-16.091-3.854c-6.118-11.56,7.48-15.413,7.48-15.413l29.463-10.196c0,0,16.095-8.159,22.668,3.854
			c5.339,13.027,116.151,206.609,128.902,228.874c0.777,1.36,1.77,2.721,1.223,3.312c-2.3,2.455-9.577,8.5-13.958,7.821
			C239.593,268.389,238.544,267.527,237.991,266.574z"/>
		<path fill="#27140E" d="M240.685,271.219c-0.384,0-0.758-0.025-1.122-0.085c-1.654-0.252-3.287-2.094-3.927-3.196L107.407,47.179
			l-26.015,9.365c-0.904,0.472-4.313,2.083-8.243,2.083c-3.475,0-8.267-1.245-11.36-7.167c-2.123-4.006-2.471-7.749-1.034-11.108
			c2.547-5.96,9.87-8.097,10.181-8.182l29.156-10.1c1.057-0.51,6.362-2.912,12.173-2.912c6.259,0,11.077,2.754,13.932,7.975
			c0.049,0.088,0.091,0.18,0.13,0.271c5.228,12.759,116.12,206.506,128.745,228.557l0.359,0.612c0.877,1.464,2.35,3.915,0.494,5.901
			C253.803,264.75,246.453,271.219,240.685,271.219z M108.622,41.135c0.945,0,1.854,0.49,2.352,1.348L240.34,265.206
			c0.119,0.2,0.311,0.418,0.475,0.573c2.739-0.109,7.512-3.572,10.162-6.051c-0.072-0.127-0.146-0.248-0.209-0.355l-0.415-0.705
			c-20.555-35.89-123.02-215.005-128.995-229.039c-1.9-3.387-4.872-5.029-9.093-5.029c-5.029,0-9.848,2.394-9.897,2.417
			c-0.107,0.054-0.223,0.103-0.337,0.142l-29.464,10.2c-1.569,0.459-5.564,2.191-6.818,5.148c-0.758,1.8-0.481,3.899,0.851,6.42
			c1.502,2.873,3.646,4.263,6.551,4.263c3.041,0,5.792-1.498,5.817-1.513c0.127-0.069,0.266-0.134,0.402-0.184l28.329-10.2
			C108.005,41.184,108.312,41.135,108.622,41.135z"/>
	</g>
	<g>
		<g>
			<path fill="#DBF1FB" d="M223.59,298.492c2.463,7.062-1.303,14.854-8.365,17.316l-24.4,8.504
				c-7.062,2.463-14.854-1.303-17.316-8.365l-8.507-24.399c-2.459-7.063,1.303-14.854,8.365-17.315l24.399-8.504
				c7.063-2.465,14.854,1.302,17.317,8.363L223.59,298.492z"/>
		</g>
		<g>
			<path fill="#27140E" d="M186.382,327.786c-6.956,0-13.16-4.396-15.444-10.943l-8.503-24.397
				c-1.432-4.104-1.172-8.526,0.729-12.465c1.899-3.934,5.208-6.888,9.307-8.319l24.399-8.503c1.724-0.602,3.524-0.904,5.34-0.904
				c6.956,0,13.16,4.396,15.443,10.944l8.504,24.397c1.429,4.104,1.171,8.526-0.729,12.465c-1.899,3.934-5.208,6.888-9.308,8.314
				l-24.398,8.507C189.998,327.484,188.197,327.786,186.382,327.786z M202.209,267.691c-1.207,0-2.398,0.203-3.548,0.604
				l-24.398,8.506c-5.665,1.973-8.665,8.186-6.691,13.852l8.507,24.398c1.521,4.367,5.661,7.297,10.304,7.297
				c1.207,0,2.401-0.203,3.548-0.601l24.398-8.509c2.73-0.949,4.934-2.918,6.202-5.545c1.267-2.629,1.442-5.577,0.489-8.31
				l-8.507-24.396C210.995,270.623,206.851,267.691,202.209,267.691z"/>
		</g>
	</g>
	<g>
		<g>
			<path fill="#DBF1FB" d="M251.119,413.596c-2.464,7.062-10.259,10.824-17.321,8.365l-24.396-8.512
				c-7.06-2.459-10.824-10.249-8.362-17.312l8.508-24.398c2.463-7.063,10.258-10.824,17.32-8.365l24.394,8.502
				c7.062,2.468,10.823,10.259,8.364,17.321L251.119,413.596z"/>
		</g>
		<g>
			<path fill="#27140E" d="M238.245,425.431c-1.82,0-3.616-0.298-5.34-0.902l-24.396-8.505
				c-8.499-2.965-12.996-12.287-10.039-20.782l8.511-24.399c2.279-6.542,8.488-10.939,15.44-10.939c1.818,0,3.615,0.307,5.34,0.904
				l24.396,8.504c4.098,1.432,7.407,4.381,9.304,8.318c1.903,3.938,2.16,8.366,0.73,12.464l-8.504,24.399
				C251.404,421.035,245.2,425.431,238.245,425.431z M222.422,365.34c-4.647,0-8.783,2.928-10.308,7.294l-8.504,24.398
				c-1.977,5.661,1.026,11.882,6.688,13.851l24.396,8.512c1.148,0.398,2.344,0.598,3.551,0.598c4.642,0,8.782-2.926,10.308-7.292
				l8.503-24.4c1.977-5.659-1.027-11.882-6.691-13.85l-24.392-8.513C224.822,365.54,223.629,365.34,222.422,365.34z"/>
		</g>
	</g>
	<g>
		<path fill="#27140E" d="M213.85,146.297c-53.468,0-110.295-9.45-110.295-26.97c0-1.501,1.218-2.719,2.719-2.719
			c1.502,0,2.72,1.218,2.72,2.719c0,8.994,39.89,21.53,104.856,21.53c1.501,0,2.72,1.218,2.72,2.72S215.351,146.297,213.85,146.297z
			"/>
	</g>
	<g>
		<path fill="#3ABA92" d="M254.141,298.952c-12.863-22.32-145.296-252.195-145.296-252.195L77.025,58.31
			c0,0-12.219,6.926-18.071-4.367c-6.872-13.088,8.399-17.451,8.399-17.451l33.091-11.548c0,0,18.071-9.239,25.456,4.362
			c5.998,14.755,130.45,233.954,144.771,259.167c0.874,1.534,1.988,3.082,1.376,3.745c-2.582,2.784-10.76,9.625-15.678,8.859
			C255.939,301.016,254.758,300.036,254.141,298.952z"/>
		<path fill="#27140E" d="M257.17,303.857c-0.421,0-0.822-0.03-1.218-0.092c-1.742-0.257-3.489-2.264-4.175-3.463L107.63,50.094
			L78.141,60.795c-0.963,0.502-4.754,2.333-9.136,2.333c-3.808,0-9.066-1.372-12.465-7.929c-2.336-4.451-2.72-8.588-1.134-12.295
			c2.812-6.565,10.859-8.929,11.2-9.024l32.78-11.449c1.126-0.547,7.056-3.275,13.552-3.275c6.902,0,12.212,3.063,15.353,8.856
			c0.049,0.084,0.091,0.176,0.13,0.272c4.459,10.958,80.69,146.289,144.614,258.843l0.406,0.693c0.992,1.67,2.496,4.193,0.602,6.244
			C271.684,296.607,263.527,303.857,257.17,303.857z M108.844,44.038c0.95,0,1.857,0.498,2.355,1.364l145.297,252.194
			c0.173,0.305,0.471,0.625,0.693,0.819c3.205-0.021,8.959-4.256,11.97-7.146c-0.134-0.229-0.275-0.472-0.394-0.67l-0.457-0.781
			C245.216,249.161,130.045,46.171,123.449,30.486c-2.199-3.961-5.639-5.892-10.511-5.892c-5.729,0-11.208,2.743-11.261,2.773
			c-0.107,0.054-0.222,0.107-0.337,0.146L68.25,39.062c-0.203,0.061-6.079,1.819-7.849,6.002c-0.904,2.122-0.582,4.685,0.958,7.615
			c1.754,3.378,4.252,5.01,7.646,5.01c3.5,0,6.657-1.735,6.688-1.754c0.131-0.068,0.268-0.137,0.405-0.184l31.819-11.549
			C108.22,44.092,108.533,44.038,108.844,44.038z"/>
	</g>
	<g>
		<g>
			<path fill="#FBAA19" d="M371.23,295.461c0,0,61.028,8.959,47.646,85.959c-13.38,77.005-73.757,92.718-94.647,91.146
				c-20.884-1.569-38.181-13.199-27.088-48.399c6.347-15.513-1.912-33.315-6.48-41.308c-1.532-2.688-3.467-7.774-3.865-13.383
				c-1.359-19.481,2.409-64.345,63.22-76.058C357.491,292.003,371.23,295.461,371.23,295.461z"/>
			<path fill="#27140E" d="M327.144,475.394c-1.11,0-2.151-0.037-3.117-0.113c-13.069-0.98-22.795-5.67-28.134-13.553
				c-6.086-8.984-6.539-21.895-1.346-38.372c6.075-14.886-2.348-32.328-6.248-39.139c-1.761-3.096-3.791-8.543-4.216-14.548
				c-1.376-19.674,2.251-66.754,65.414-78.922c1.367-0.257,2.973-0.388,4.776-0.388c7.351,0,16.271,2.133,17.492,2.433
				c2.185,0.349,24.479,4.354,39.203,24.702c11.652,16.099,15.215,37.765,10.587,64.395
				C408.228,458.594,348.889,475.394,327.144,475.394z M354.273,295.799c-1.464,0-2.729,0.1-3.755,0.295
				c-19.61,3.776-64.833,18.475-61.009,73.199c0.359,5.104,2.118,9.775,3.512,12.227c5.336,9.315,13.291,27.396,6.639,43.683
				c-4.594,14.602-4.37,25.938,0.734,33.478c4.437,6.55,12.525,10.312,24.039,11.178c0.836,0.068,1.744,0.099,2.709,0.099
				c20.471,0,76.369-15.987,89.052-88.994c4.362-25.096,1.139-45.353-9.583-60.211c-13.778-19.101-35.562-22.563-35.779-22.595
				C370.477,298.079,361.329,295.799,354.273,295.799z"/>
		</g>
		<g>
			<path fill="#24B34B" d="M381.669,272.366c0,0,47.981-56.889,92.364,11.942C435.522,315.107,381.669,272.366,381.669,272.366z"/>
			<path fill="#27140E" d="M441.49,298.182c-31.311,0-60.293-22.723-61.513-23.688c-0.573-0.46-0.94-1.131-1.015-1.862
				c-0.072-0.729,0.152-1.462,0.628-2.021c0.793-0.942,19.734-23.051,45.481-23.051c18.91,0,36.154,11.872,51.246,35.273
				c0.755,1.173,0.503,2.728-0.585,3.603C465.981,294.232,454.464,298.182,441.49,298.182z M385.736,271.986
				c7.449,5.297,31.281,20.756,55.754,20.756c10.84,0,20.542-3.045,28.877-9.062c-13.674-20.361-28.903-30.682-45.294-30.682
				C406.31,252.999,391.026,266.627,385.736,271.986z"/>
		</g>
		<g>
			<path fill="#27140E" d="M318.356,360.891c-1.36,0-2.536-1.021-2.7-2.406c-3.164-26.74,28.961-37.379,29.283-37.48
				c1.433-0.449,2.956,0.328,3.42,1.758c0.459,1.43-0.325,2.961-1.756,3.42c-0.07,0.023-7.334,2.41-14.103,7.635
				c-8.687,6.709-12.537,14.795-11.44,24.033c0.172,1.486-0.894,2.842-2.383,3.02C318.567,360.882,318.46,360.891,318.356,360.891z"
				/>
		</g>
		<g>
			<path fill="#683614" d="M347.562,239.677c0,0,27.581,1.256,34.105,5.343c-9.623,18.701-13.377,64.116-13.377,64.116
				s-18.929-0.942-21.216-1.569c-10.115-23.887,0-67.89,0-67.89"/>
			<path fill="#27140E" d="M368.292,311.855c-0.041,0-0.092,0-0.137-0.004c-4.509-0.226-19.413-1.006-21.804-1.666
				c-0.801-0.223-1.459-0.793-1.78-1.562c-10.343-24.415-0.567-67.725-0.146-69.556c0.308-1.344,1.562-2.236,2.893-2.102
				c0.123-0.008,0.244-0.008,0.372-0.008c2.896,0.134,28.493,1.417,35.427,5.757c1.194,0.75,1.62,2.294,0.973,3.551
				c-9.272,18.009-13.05,62.645-13.084,63.093C370.882,310.779,369.698,311.855,368.292,311.855z M349.026,305.126
				c2.901,0.325,9.903,0.792,16.791,1.16c0.92-9.591,4.527-42.476,12.204-59.922c-6.063-2.019-19.593-3.37-28.763-3.88
				C347.467,251.378,341.473,285.098,349.026,305.126z"/>
		</g>
	</g>
	<g>
		<line fill="none" x1="210.709" y1="243.423" x2="249.961" y2="243.423"/>
		<path fill="#27140E" d="M249.961,246.146h-39.252c-1.506,0-2.725-1.218-2.725-2.724c0-1.501,1.219-2.72,2.725-2.72h39.252
			c1.503,0,2.721,1.218,2.721,2.72C252.682,244.928,251.464,246.146,249.961,246.146z"/>
	</g>
</g>
</svg>
