<?xml version="1.0" encoding="utf-8"?>
<!-- Generator: Adobe Illustrator 16.0.0, SVG Export Plug-In . SVG Version: 6.00 Build 0)  -->
<!DOCTYPE svg PUBLIC "-//W3C//DTD SVG 1.1//EN" "http://www.w3.org/Graphics/SVG/1.1/DTD/svg11.dtd">
<svg version="1.1" id="Layer_1" xmlns="http://www.w3.org/2000/svg" xmlns:xlink="http://www.w3.org/1999/xlink" x="0px" y="0px"
	 width="500px" height="500px" viewBox="0 0 500 500" enable-background="new 0 0 500 500" xml:space="preserve">
<g id="Layer_1_copy_79">
	<g>
		<path fill="#CDEAE9" d="M337.16,81.273c0,0-5.963,36.798,18.029,36.798c28.868,0,26.043,43.971,26.043,43.971
			c0.368,5.282,0.293,240.081,0.293,240.081s-1.389,51.277-57.896,54.05h-89.802h-6.662h-89.802
			c-56.513-2.771-57.896-54.05-57.896-54.05s-0.076-234.799,0.288-240.081c0,0-2.822-43.971,26.048-43.971
			c23.989,0,18.025-36.798,18.025-36.798"/>
		<path fill="#3C2517" d="M233.827,459.062h-96.464c-58.651-2.867-60.778-56.324-60.791-56.864
			c-0.004-9.571-0.073-230.604,0.284-240.137c-0.136-2.434-1.154-26.582,10.733-39.257c4.745-5.062,10.875-7.627,18.213-7.627
			c4.516,0,7.954-1.46,10.509-4.463c7.771-9.13,4.694-28.781,4.664-28.979c-0.254-1.577,0.816-3.062,2.394-3.319
			c1.566-0.252,3.065,0.819,3.319,2.396c0.149,0.912,3.519,22.51-5.972,33.653c-3.671,4.312-8.688,6.499-14.914,6.499
			c-5.751,0-10.327,1.895-13.985,5.789c-10.547,11.234-9.188,34.867-9.176,35.104c0.013,0.127,0.009,0.257,0,0.384
			c-0.28,4.263-0.311,158.784-0.28,239.881c0.055,1.901,2.063,48.558,55.143,51.155h186.125
			c52.939-2.599,54.942-49.254,55.002-51.24c0.025-81.012,0-235.524-0.285-239.796c-0.007-0.125-0.007-0.259,0-0.384
			c0.015-0.238,1.376-23.87-9.176-35.104c-3.653-3.894-8.229-5.789-13.979-5.789c-6.231,0-11.247-2.186-14.92-6.499
			c-9.484-11.146-6.115-32.741-5.972-33.653c0.259-1.577,1.745-2.657,3.319-2.394c1.579,0.255,2.651,1.738,2.397,3.315
			c-0.033,0.2-3.086,19.887,4.668,28.988c2.556,2.999,5.989,4.455,10.506,4.455c7.339,0,13.462,2.565,18.212,7.627
			c11.889,12.677,10.865,36.821,10.729,39.257c0.357,9.537,0.289,230.562,0.289,240.062c-0.018,0.614-2.139,54.072-60.651,56.94
			H233.827L233.827,459.062z"/>
	</g>
	<g>
		<path fill="#F08627" d="M81.56,191.101v206.445c0,0-5.226,47.489,47.714,55.772c12.673,1.908,100.841,1.264,100.841,1.264h1.124
			l95.23-0.245c55.209-5.098,53.721-55.843,53.721-55.843l-1.273-207.393c0,0-2.411-13.793-39.319-5.56
			c-36.907,8.246-95.688,2.169-100.705,0.87c-5.007-1.299-52.849-22.554-89.299-9.978C108.069,190.761,89.997,143.732,81.56,191.101
			z"/>
	</g>
	<g opacity="0.63">
		<path fill="#C94827" d="M170.134,299.602c-1.371,2.104-4.189,2.697-6.299,1.332l0,0c-2.109-1.375-2.708-4.189-1.342-6.3
			l2.009-3.09c1.371-2.104,4.185-2.703,6.298-1.331l0,0c2.109,1.371,2.708,4.188,1.338,6.298L170.134,299.602z"/>
	</g>
	<g>
		<path fill="#C94827" d="M271.225,422.492c0,0-3.035,0.465-5.014-1.747c-1.988-2.22-5.372-2.427-5.372,1.062
			c0,3.49,2.216,8.509,6.185,9.443c3.969,0.931,8.638-1.752,8.638-4.787S274.96,420.975,271.225,422.492z"/>
	</g>
	<g opacity="0.63">
		<path fill="#C94827" d="M206.443,337.549c0.819-2.174,4.436,0.861,5.603-3.107c1.171-3.963,6.541-3.963,6.651,0
			c0.076,2.679-1.617,7.729-3.664,9.408c-2.054,1.678-3.594-0.012-4.43-0.305C207.364,342.41,205.629,339.716,206.443,337.549z"/>
	</g>
	<g opacity="0.63">
		<path fill="#C94827" d="M294.326,284.198c0,0-6.315,1.532-1.536-4.952c4.779-6.48,9.384-5.624,12.453,0
			c3.072,5.633-1.359,7.342-3.923,5.977C298.762,283.859,294.326,284.198,294.326,284.198z"/>
	</g>
	<g opacity="0.63">
		<path fill="#C94827" d="M218.947,264.021c0,0,8.441-9.504,11.867-5.808c3.434,3.697,4.223-8.124-8.438-8.545
			c-12.661-0.427-17.406-1.228-15.563,9.865C208.664,270.611,213.149,271.143,218.947,264.021z"/>
	</g>
	<g opacity="0.63">
		<path fill="#C94827" d="M133.794,383.167c-0.348-7.356,0.463-8.285,6.299-3.035c5.835,5.255,4.554,7.113,5.017,7.47
			C144.881,390.398,134.142,390.52,133.794,383.167z"/>
	</g>
	<g>
		<path fill="#01A79D" d="M364.246,65.051c0,8.959-9.137,16.222-20.406,16.222H117.152c-11.273,0-20.406-7.262-20.406-16.222l0,0
			c0-8.96,9.133-16.224,20.406-16.224H343.84C355.109,48.827,364.246,56.091,364.246,65.051L364.246,65.051z"/>
		<path fill="#3C2517" d="M343.84,84.167H117.152c-12.852,0-23.302-8.575-23.302-19.116s10.45-19.119,23.302-19.119H343.84
			c12.85,0,23.302,8.578,23.302,19.119S356.688,84.167,343.84,84.167z M117.152,51.722c-9.656,0-17.513,5.98-17.513,13.33
			c0,7.35,7.856,13.329,17.513,13.329H343.84c9.656,0,17.513-5.98,17.513-13.329c0-7.349-7.855-13.33-17.513-13.33H117.152z"/>
	</g>
	<g opacity="0.63">
		<path fill="#AD3424" d="M360.703,247.229c0,0-9.562-25.153-11.99,1.201c-2.432,26.351,13.326-16.782,10.313,28.597
			c-3.01,45.35,0.984,35.971-3.158,43.363c-4.144,7.397-14.281,32.116-14.058,33.799c0.227,1.679-3.001,27.613,18.28-25.808
			c8.307-20.856,0.42-41.799,2.614-45.35C364.9,279.482,364.824,247.625,360.703,247.229z"/>
	</g>
	<g opacity="0.63">
		<path fill="#C94827" d="M249.388,273.24c0,0-12.278,5.353-4.096,18.89c8.188,13.535,3.777,26.132,14.172,44.079
			c10.39,17.949,29.595,38.096,25.185,22.357c-4.408-15.746,0-6.242-11.646-23.746c-11.655-17.5-11.655-13.312-13.539-27.059
			c-1.894-13.742-4.097-4.294-3.149-20.041C257.257,271.979,256.284,262.836,249.388,273.24z"/>
	</g>
	<g opacity="0.63">
		<path fill="#C94827" d="M112.866,201.351c0,0-7.557,12.907-10.392,28.021c-2.835,15.115-1.573,27.103,0,29.776
			c1.575,2.679,7.241,6.774,7.241,6.774s1.041-6.928,1.465-25.843c0.424-18.896-4.151-16.663,5.691-27.38
			c9.847-10.722,12.453-12.198,13.195-16.341C130.811,192.222,126.086,184.662,112.866,201.351z"/>
	</g>
	<g opacity="0.63">
		<path fill="#C94827" d="M152.618,218.116c0,0,1.892,17.907,16.374,36.211c14.48,18.28,15.114,23.633,20.465,10.093
			c5.353-13.537-11.335,1.852-13.539-10.093c-2.202-11.967-10.39-7.868-11.65-17.32c-1.256-9.443-11.965-15.747-11.649-22.354
			C152.932,208.04,154.51,202.369,152.618,218.116z"/>
	</g>
	<g opacity="0.63">
		<path fill="#AD3424" d="M138.327,313.225c0,0-24.223-12.593-13.519,0c10.705,12.594,24.872,26.137,33.377,31.172
			c8.498,5.037,16.057,19.522,14.478,3.775c-1.574-15.742-7.555-19.52-13.222-19.834c-5.665-0.312-11.335,0-14.799-4.725
			C141.179,318.891,142.715,312.912,138.327,313.225z"/>
	</g>
	<g opacity="0.63">
		<path fill="#C94827" d="M335.008,417.452c-5.255,1.664-4.282,3.284-24.361-7.066c-20.08-10.353-24.767-14.086-31.242-19.103
			c-6.478-5.018-18.772-11.096-21.48-8.389s-9.235,7.504-6.191,11.91c3.039,4.414,0.699-4.229,17.02,7.055
			c16.324,11.275-8.354,14.927,29.859,19.403c38.21,4.479,44.798,3.384,45.167,0.165
			C344.146,418.203,353.195,411.695,335.008,417.452z"/>
	</g>
	<g opacity="0.63">
		<path fill="#C94827" d="M110.849,379.657c0,0-1.888,23.517,2.518,30.024c4.409,6.502,3.875,11.227,9.966,13.114
			c6.095,1.887,4.091,4.092,21.777,5.666c17.694,1.573,29.654,9.128,39.731,6.926c10.075-2.202,22.668-8.5-6.299-10.077
			c-28.968-1.572-31.484,4.412-36.522-3.143c-5.039-7.561-9.762-7.705-13.854-9.203c-4.092-1.507-2.742-0.559-4.834-10.007
			c-2.094-9.449-7.444-5.878-4.296-17.737C122.186,373.363,113.681,362.346,110.849,379.657z"/>
	</g>
	<g opacity="0.63">
		<path fill="#C94827" d="M282.761,209.301c-16.743,5.525-24.872,7.24-48.173,0c-23.302-7.246-29.554-8.192-28.157-4.411
			c1.396,3.778,13.672,15.742,24.062,17.003c10.395,1.26,8.331-2.521,21.483,0c13.148,2.517,7.856,9.028,26.719,0.268
			c18.865-8.769,18.549-10.657,36.811-13.179c18.264-2.521,22.983-2.461,21.729-6.269
			C335.972,198.91,314.249,198.91,282.761,209.301z"/>
	</g>
	<g>
		<g>
			<path fill="#F58423" d="M463,391.375c0,44.172-36.786,79.975-82.175,79.975c-45.394,0-82.184-35.803-82.184-79.975
				c0-44.166,36.79-79.975,82.184-79.975C426.214,311.4,463,347.208,463,391.375z"/>
			<path fill="#3C2517" d="M380.825,474.245c-46.912,0-85.072-37.175-85.072-82.87c0-45.691,38.16-82.869,85.072-82.869
				c46.903,0,85.067,37.178,85.067,82.869C465.894,437.07,427.729,474.245,380.825,474.245z M380.825,314.295
				c-43.722,0-79.288,34.577-79.288,77.079c0,42.503,35.566,77.082,79.288,77.082c43.716,0,79.278-34.579,79.278-77.082
				C460.104,348.873,424.541,314.295,380.825,314.295z"/>
		</g>
		<g>
			<path fill="#683614" d="M384.433,337.85l-18.263-6.299c0,0,0-40.928-23.302-51.002c0.292-10.785,33.377-20.154,33.377-20.154
				S398.286,301.329,384.433,337.85z"/>
			<path fill="#3C2517" d="M384.433,340.746c-0.312,0-0.632-0.051-0.941-0.163l-18.263-6.293c-1.169-0.403-1.953-1.502-1.953-2.738
				c0-0.385-0.279-39.147-21.554-48.348c-1.086-0.465-1.776-1.55-1.743-2.731c0.331-12.291,29.611-21.199,35.479-22.859
				c1.307-0.36,2.694,0.216,3.34,1.412c0.921,1.719,22.504,42.523,8.341,79.854C386.704,340.027,385.604,340.746,384.433,340.746z
				 M369.018,329.473l13.646,4.707c9.733-29.607-3.935-61.904-7.927-70.32c-11.177,3.445-25.684,9.82-28.493,15.113
				C366.105,289.66,368.682,320.992,369.018,329.473z"/>
		</g>
		<g>
			<path fill="#3C2517" d="M320.059,391.752c-0.155,0-0.312-0.013-0.475-0.042c-1.579-0.263-2.645-1.749-2.382-3.328
				c5.302-31.827,35.354-38.198,35.661-38.259c1.579-0.322,3.091,0.706,3.403,2.271c0.314,1.566-0.699,3.092-2.262,3.403l0,0
				c-1.082,0.22-26.46,5.718-31.094,33.533C322.678,390.747,321.451,391.752,320.059,391.752z"/>
		</g>
		<g>
			<path fill="#24B34B" d="M381.372,291.879c0,0,39.039-71.812,90.676-21.406C438.675,334.074,381.372,291.879,381.372,291.879z"/>
			<path fill="#3C2517" d="M422.207,308.493c-22.895,0-41.759-13.698-42.549-14.278c-1.167-0.861-1.521-2.445-0.828-3.714
				c0.904-1.669,22.601-40.856,55.996-40.856c13.283,0,26.488,6.312,39.241,18.755c0.917,0.894,1.139,2.285,0.545,3.418
				C461.84,296.154,444.21,308.493,422.207,308.493z M385.26,291.001c5.407,3.418,20.237,11.701,36.947,11.701
				c19.107,0,34.659-10.647,46.245-31.662c-11.124-10.356-22.431-15.603-33.626-15.603
				C409.22,255.438,390.324,282.832,385.26,291.001z"/>
		</g>
	</g>
</g>
</svg>
