<?xml version="1.0" encoding="utf-8"?>
<!-- Generator: Adobe Illustrator 16.0.0, SVG Export Plug-In . SVG Version: 6.00 Build 0)  -->
<!DOCTYPE svg PUBLIC "-//W3C//DTD SVG 1.1//EN" "http://www.w3.org/Graphics/SVG/1.1/DTD/svg11.dtd">
<svg version="1.1" id="Layer_1" xmlns="http://www.w3.org/2000/svg" xmlns:xlink="http://www.w3.org/1999/xlink" x="0px" y="0px"
	 width="500px" height="500px" viewBox="0 0 500 500" enable-background="new 0 0 500 500" xml:space="preserve">
<g id="Layer_1_copy_74">
	<g>
		<g>
			<path fill="#FFE2B6" d="M361.589,43.528c0,0-12.434-1.522-27.089,11.343c-11.446,10.052-18.862,6.76-21.551,4.841
				c-0.764-0.54-1.54-0.952-2.123-0.83c-2.161,0.441-6.973,2.23-4.756,9.268c1.781,5.694-4.396,7.467-4.396,7.467
				s-37.141,22.604,16.634,63.793c2.165,3.382-9.085,13.206-12.471,16.045c-0.376,0.31,5.759,5.547,5.629,5.988
				c-0.887,3.022-3.382,14.562,13.174,6.912c0.307-0.144,13.273,4.856,13.273,4.856s-4.137-19.337,10.865-16.576
				c17.879,3.292,33.069-13.377,33.069-13.377l25.994-43.179l-23.833-44.032L361.589,43.528z"/>
			<path fill="#3C2517" d="M337.914,176.516c-0.4,0-0.804-0.074-1.188-0.22c-4.601-1.773-9.727-3.701-11.842-4.432
				c-3.667,1.593-6.688,2.369-9.193,2.369c-3.595,0-5.552-1.605-6.564-2.957c-1.997-2.663-1.812-6.298-1.273-8.969
				c-0.441-0.438-0.965-0.936-1.378-1.328c-3.078-2.941-4.015-3.828-3.959-5.592c0.034-0.939,0.476-1.858,1.194-2.463
				c7.006-5.869,10.415-10.036,11.321-11.866c-20.078-15.685-29.875-30.785-29.118-44.898c0.81-15.142,13.504-23.033,14.043-23.36
				c0.254-0.155,0.521-0.274,0.804-0.356c0.39-0.122,1.696-0.689,2.157-1.572c0.145-0.282,0.304-0.76,0-1.728
				c-1.114-3.534-0.947-6.568,0.498-9.023c1.337-2.268,3.729-3.86,6.748-4.473c0.217-0.045,0.658-0.094,0.883-0.094
				c1.573,0,2.934,0.837,3.815,1.466c0.945,0.674,2.558,1.479,4.858,1.479c3.688,0,8.048-2.116,12.599-6.111
				c15.833-13.9,29.666-12.144,29.671-12.139c0.412,0.057,0.85,0.196,1.209,0.392l22.421,12.524
				c0.546,0.306,0.997,0.759,1.294,1.314l23.838,44.029c0.557,1.033,0.527,2.274-0.076,3.275l-25.995,43.179
				c-0.109,0.188-0.24,0.359-0.388,0.519c-0.557,0.608-13.758,14.888-30.766,14.888l0,0c-1.799,0-3.601-0.167-5.348-0.49
				c-0.771-0.14-1.5-0.213-2.151-0.213c-2.243,0-3.188,0.846-3.7,1.479c-2.149,2.659-1.713,8.34-1.289,10.812
				c0.156,0.389,0.246,0.809,0.246,1.254c0,1.833-1.494,3.374-3.333,3.304C337.936,176.516,337.926,176.516,337.914,176.516z
				 M324.661,165.046c0.599,0,1.09,0,9.417,3.157c-0.047-3.545,0.522-8.01,3.113-11.212c1.449-1.793,4.157-3.93,8.836-3.93
				c1.054,0,2.18,0.106,3.349,0.322c1.352,0.25,2.753,0.376,4.15,0.376c13.029,0,24.051-10.837,25.675-12.516l24.839-41.25
				l-22.481-41.528L360.638,46.78c-2.334-0.045-12.259,0.302-23.957,10.571c-5.855,5.146-11.562,7.757-16.96,7.757
				c-4.051,0-6.964-1.475-8.69-2.704c-0.062-0.045-0.123-0.086-0.172-0.119c-0.611,0.196-1.382,0.56-1.748,1.188
				c-0.566,0.961-0.253,2.537,0.109,3.689c0.974,3.1,0.271,5.44-0.493,6.854c-1.521,2.831-4.363,4.146-5.589,4.595
				c-1.601,1.09-10.101,7.381-10.628,17.972c-0.597,11.911,9.02,25.811,27.81,40.201c0.301,0.236,0.562,0.519,0.768,0.841
				c1.107,1.72,3.61,5.629-10.521,18.12c0.168,0.159,0.326,0.314,0.475,0.449c3.079,2.936,4.231,4.04,3.598,6.18
				c-0.719,2.443-0.647,4.367-0.22,4.938c0.216,0.294,1.028,0.311,1.274,0.311c1.209,0,3.499-0.392,7.563-2.271
				C323.688,165.152,324.183,165.046,324.661,165.046z"/>
		</g>
		<g>
			<path fill="#4C230D" d="M363.418,108.829c0,0,16.776-2.659,9.314,11.638c-7.469,14.304-15.846,5.632-15.846,5.632
				s-21.423,25.211-6.82,34.319c14.598,9.109,69.25,16.286,74.199-42.667c4.956-58.95-50.41-81.558-50.41-81.558
				s-15.478-12.005-18.766-15.407c-2.732-2.839-6.295,22.849,9.668,29.356c1.176,7.896,12.106,20.546,12.106,20.546
				S354.936,87.36,363.418,108.829z"/>
			<path fill="#28140F" d="M376.053,169.825c-12.662,0-22.854-3.557-27.734-6.601c-3.595-2.243-5.828-5.576-6.461-9.636
				c-1.904-12.246,11.036-27.886,12.515-29.63c0.604-0.71,1.483-1.131,2.411-1.164c0.918-0.069,1.832,0.335,2.485,1.009l0,0
				c0,0,1.636,1.597,3.641,1.597c2.913,0,5.354-3.517,6.895-6.466c1.626-3.108,1.754-4.963,1.333-5.657
				c-0.377-0.622-1.862-1.34-4.833-1.34c-1.296,0-2.282,0.143-2.373,0.155c-1.54,0.253-3.019-0.617-3.582-2.047
				c-7.4-18.724,6.024-34.131,11.936-39.727c-3.129-3.941-8.688-11.555-10.403-17.866c-12.159-6.229-13.394-22.314-11.996-29.45
				c0.747-3.812,2.353-5.739,4.778-5.739c1.046,0,2.042,0.433,2.812,1.229c2.495,2.582,13.594,11.348,18.082,14.839
				c5.396,2.398,56.862,26.911,52.007,84.695C423.635,164.776,390.23,169.825,376.053,169.825z M357.533,130.608
				c-4.017,5.351-10.188,15.293-9.146,21.976c0.341,2.186,1.434,3.787,3.425,5.032c4.47,2.785,13.697,5.6,24.239,5.6
				c15.342,0,41.576-5.943,44.922-45.744c4.702-55.882-47.839-78.003-48.368-78.221c-0.278-0.114-0.54-0.265-0.775-0.449
				c-1.263-0.977-10.29-7.998-15.718-12.642c-0.246,2.855-0.086,7.091,1.392,11.307c1.675,4.763,4.538,7.998,8.504,9.615
				c1.08,0.442,1.848,1.422,2.021,2.578c0.85,5.693,8.47,15.55,11.338,18.867c0.593,0.69,0.878,1.593,0.784,2.495
				c-0.095,0.907-0.56,1.736-1.282,2.292c-0.78,0.593-18.309,14.276-13.157,32.024c0.192-0.003,0.393-0.008,0.593-0.008
				c5.064,0,8.692,1.569,10.486,4.522c1.856,3.063,1.474,7.151-1.129,12.143c-4.321,8.275-9.317,10.011-12.752,10.011
				C360.771,132.005,358.938,131.36,357.533,130.608z"/>
		</g>
		<g>
			<polyline fill="#FFE2B6" points="73.295,85.775 57.194,96.784 61.568,128.934 83.274,142.279 110.155,128.983 			"/>
			<path fill="#3C2517" d="M83.274,145.583c-0.601,0-1.195-0.163-1.727-0.486L59.84,131.753c-0.85-0.523-1.413-1.389-1.544-2.373
				l-4.379-32.151c-0.172-1.237,0.376-2.466,1.41-3.174l16.104-11.007c1.513-1.026,3.562-0.641,4.592,0.862
				c1.029,1.507,0.646,3.562-0.862,4.595L60.743,98.36l3.885,28.576l18.823,11.572l25.242-12.486
				c1.634-0.813,3.609-0.143,4.424,1.499c0.812,1.63,0.139,3.611-1.496,4.423l-26.88,13.3
				C84.279,145.473,83.781,145.583,83.274,145.583z"/>
		</g>
		<g>
			<path fill="#FFE2B6" d="M102.098,120.152c0,0-18.546-10.044-26.269-29.352c-7.725-19.316-27.037-20.86-30.904,8.496
				c-3.861,29.356,19.427,38.191,28.588,20.856c3.835-10.048-0.218-17.311-0.218-17.311"/>
			<path fill="#3C2517" d="M60.785,132.299c-1.598,0.005-3.22-0.249-4.837-0.764c-8.888-2.83-16.751-14.03-14.292-32.668
				c2.803-21.317,12.812-24.842,16.988-25.366c8.009-1.012,15.946,5.306,20.255,16.069c7.197,17.997,24.594,27.583,24.771,27.677
				c1.604,0.87,2.196,2.875,1.335,4.477c-0.869,1.606-2.872,2.21-4.481,1.336c-0.8-0.437-19.688-10.849-27.763-31.031
				c-3.108-7.769-8.463-12.56-13.292-11.972c-5.444,0.686-9.758,8.222-11.265,19.667c-1.956,14.856,3.484,23.523,9.749,25.517
				c4.755,1.515,9.56-0.947,12.54-6.458c3.08-8.275-0.049-14.275-0.086-14.333c-0.886-1.593-0.314-3.607,1.28-4.497
				c1.596-0.887,3.609-0.311,4.496,1.278c0.193,0.351,4.751,8.741,0.413,20.101c-0.045,0.122-0.103,0.245-0.164,0.368
				C72.851,128.472,67.021,132.299,60.785,132.299z"/>
		</g>
		<g>
			<path fill="#FFE2B6" d="M223.39,426.556c0,0,0,32.751,0,41.247c0,8.5,10.815,13.142,40.168,13.907
				c29.364,0.77,36.001,1.54,40.405-10.039c4.406-11.594-11.041-23.18-45.813-23.18c-11.977-1.396-8.263-21.937-8.263-21.937"/>
			<path fill="#3C2517" d="M281.371,485.391c-3.941,0-8.503-0.126-13.803-0.265l-4.092-0.11
				c-22.539-0.592-43.394-3.085-43.394-17.213v-41.247c0-1.825,1.479-3.304,3.306-3.304c1.822,0,3.305,1.479,3.305,3.304v41.247
				c0,6.487,12.087,9.954,36.955,10.604l4.101,0.109c26.378,0.719,29.892,0.481,33.126-8.021c0.923-2.431,0.621-4.696-0.919-6.933
				c-3.925-5.688-16.964-11.769-41.806-11.769c-0.125,0-0.25-0.008-0.381-0.024c-3.365-0.387-6.191-2.013-8.178-4.685
				c-5.294-7.14-3.21-19.704-2.957-21.117c0.327-1.793,2.033-2.981,3.835-2.659c1.797,0.323,2.99,2.038,2.667,3.831
				c-0.544,3.061-1.291,11.899,1.77,16.013c0.871,1.176,1.974,1.825,3.461,2.033c23.502,0.033,40.638,5.355,47.025,14.623
				c2.789,4.044,3.365,8.55,1.657,13.033C303.036,483.415,297.117,485.391,281.371,485.391z"/>
		</g>
		<g>
			<path fill="#FFE2B6" d="M144.715,92.883c0,0-15.189-40.328-39.526-18.312c-24.341,22.02,23.41,40.818,27.542,41.075
				c4.131,0.257,22.287,3.349,22.287,3.349L144.715,92.883z"/>
			<path fill="#3C2517" d="M155.018,122.301c-0.185,0-0.371-0.017-0.556-0.049c-5-0.85-18.691-3.108-21.936-3.309
				c-4.24-0.262-31.214-10.816-36.557-26.084c-1.749-4.987-1.952-12.638,7-20.738c5.45-4.93,11.018-7.43,16.552-7.43
				c17.898,0,27.869,25.926,28.286,27.029l10.285,26.063c0.433,1.107,0.241,2.369-0.511,3.296
				C156.948,121.855,156.002,122.301,155.018,122.301z M119.521,71.3c-3.844,0-7.924,1.924-12.12,5.727
				c-4.953,4.485-6.698,8.814-5.329,13.243c3.607,11.686,27.129,21.562,30.934,22.085c2.707,0.167,11.044,1.482,16.795,2.422
				l-8.157-20.68C139.229,87.724,130.591,71.3,119.521,71.3z"/>
		</g>
		<g>
			<path fill="#FFFFFF" d="M258.926,140.628c0,0-49.829-11.204-112.021-49.828c0,0-16.226,12.744-16.226,41.711
				c2.705,2.32,90.773,50.605,90.773,50.605s-9.268,15.836-22.016,23.56c-12.744,7.725-97.34-86.524-97.34-86.524
				s-33.614,37.472-33.997,45.197c-0.385,7.724,96.185,82.665,117.045,138.67c20.86,56.006,11.592,113.566,11.592,113.566
				s33.221,18.541,57.558,2.314c10.419-20.854-8.504-138.284-8.504-138.284l43.651-8.112l56.004-54.08l-13.227-48.967
				l-17.993-18.087C314.228,152.371,287.9,127.112,258.926,140.628z"/>
			<path fill="#3C2517" d="M230.791,429.866L230.791,429.866c-18.621-0.005-34.977-9.013-35.667-9.396
				c-1.213-0.675-1.87-2.039-1.651-3.412c0.092-0.562,8.872-57.392-11.42-111.886c-13.895-37.305-62.979-84.09-92.312-112.041
				c-20.695-19.721-25.12-24.3-24.94-27.947c0.417-8.255,26.767-38.245,34.834-47.234c1.258-1.401,3.668-1.401,4.922-0.005
				c29.801,33.204,81.41,85.879,93.048,85.879l0,0c8.814-5.265,15.947-14.766,19.161-19.512
				c-23.655-12.977-85.605-47.039-88.232-49.293c-0.734-0.629-1.155-1.541-1.155-2.509c0-30.226,16.775-43.75,17.485-44.31
				c1.099-0.857,2.606-0.943,3.787-0.212c56.105,34.846,102.472,47.3,109.953,49.163c5.78-2.528,11.862-3.807,18.097-3.807
				c22.217,0,39.104,15.967,39.816,16.645l18.051,18.136c0.407,0.409,0.696,0.915,0.85,1.47l13.225,48.966
				c0.312,1.165-0.03,2.406-0.897,3.239l-56.004,54.081c-0.467,0.449-1.055,0.753-1.691,0.87l-40.49,7.523
				c3.378,21.519,17.649,117.185,7.691,137.104c-0.257,0.517-0.646,0.951-1.124,1.271
				C248.951,427.439,240.427,429.866,230.791,429.866z M200.34,415.711c4.719,2.264,17.139,7.541,30.451,7.545l0,0
				c7.956,0,14.982-1.883,20.896-5.602c7.463-18.135-4.022-103.621-9.156-135.512c-0.287-1.772,0.894-3.445,2.657-3.777
				l42.673-7.928l53.889-52.036l-12.491-46.238l-17.371-17.461c-0.099-0.09-15.682-14.75-35.188-14.75
				c-5.646,0-11.159,1.234-16.371,3.669c-0.666,0.306-1.414,0.384-2.123,0.229c-0.496-0.11-49.936-11.502-110.903-48.926
				c-3.794,3.876-12.805,15.207-13.295,35.827c8.495,5.13,56.643,31.709,89.041,49.469c0.783,0.429,1.355,1.156,1.593,2.018
				c0.236,0.862,0.118,1.777-0.336,2.553c-0.392,0.674-9.843,16.645-23.15,24.712c-1.021,0.617-2.206,0.931-3.541,0.931h-0.009
				c-17.07,0-77.972-65.95-95.49-85.328c-14.492,16.379-29.451,35.25-30.644,40.038c1.65,3.019,12.41,13.275,22.829,23.209
				c29.74,28.339,79.52,75.782,93.943,114.517C207.011,353.266,201.875,404.066,200.34,415.711z"/>
		</g>
		<g>
			<path fill="#3C2517" d="M281.784,195.62c-1.05,0-2.06-0.506-2.691-1.389c-0.806-1.123-0.821-2.634-0.042-3.774l29.083-42.765
				c1.025-1.503,3.088-1.896,4.591-0.87c1.512,1.025,1.899,3.075,0.873,4.587l-24.053,35.369l48.93-13.328
				c1.761-0.474,3.576,0.56,4.057,2.32c0.481,1.76-0.557,3.574-2.32,4.056L282.648,195.5
				C282.364,195.578,282.068,195.62,281.784,195.62z"/>
		</g>
		<g>
			<path fill="#BE202E" d="M199.438,206.676c0,0,44.563,63.219,46.354,74.94c2.707-1.155,16.999-2.699,16.999-2.699
				s-31.992-69.778-52.308-81.436C205.229,203.205,199.438,206.676,199.438,206.676z"/>
			<path fill="#3C2517" d="M245.803,284.913c-0.564,0-1.119-0.142-1.623-0.421c-0.882-0.497-1.502-1.372-1.657-2.381
				c-1.217-7.978-28.728-49.334-45.785-73.531c-0.527-0.747-0.724-1.683-0.53-2.582c0.191-0.895,0.746-1.674,1.531-2.148
				c0.053-0.033,5.473-3.329,10.309-8.603c1.047-1.139,2.737-1.405,4.077-0.629c20.994,12.042,52.344,80.03,53.668,82.919
				c0.445,0.967,0.393,2.086-0.13,3.01c-0.521,0.922-1.459,1.539-2.517,1.654c-6.609,0.716-14.627,1.857-16.062,2.456
				C246.671,284.828,246.235,284.913,245.803,284.913z M204.078,207.534c8.573,12.258,37.868,54.646,43.938,70.114
				c2.873-0.568,6.714-1.097,9.845-1.482c-9.755-20.57-31.979-63.133-46.917-74.411
				C208.399,204.242,205.911,206.207,204.078,207.534z"/>
		</g>
		<g>
			<path fill="#FFE2B6" d="M181.67,190.456"/>
		</g>
		<g>
			<path fill="#BE202E" d="M218.961,239.549c0,0-2.915,6.915-8.708,16.575c-5.792,9.655-8.111,12.748,0,18.54
				c8.112,5.797,21.393-24.049,20.738-29.984C230.342,238.742,220.657,235.882,218.961,239.549z"/>
			<path fill="#3C2517" d="M212.496,278.713L212.496,278.713c-1.503,0-2.904-0.458-4.162-1.359
				c-10.294-7.349-6.813-13.119-1.553-21.861l0.643-1.069c5.582-9.31,8.466-16.09,8.496-16.155c1.089-2.361,3.385-3.655,6.347-3.655
				c5.285,0,11.375,3.9,12.008,9.71c0.584,5.333-6.211,21.762-13.099,29.44C218.19,277.091,215.352,278.713,212.496,278.713z
				 M221.824,241.256c-0.648,1.483-3.557,7.929-8.735,16.568l-0.649,1.072c-5.376,8.931-5.585,9.281-0.267,13.08
				c0.181,0.127,0.267,0.127,0.323,0.127c0.13,0,1.352-0.078,3.729-2.722c6.326-7.028,11.771-21.599,11.481-24.344
				c-0.242-2.182-3.464-3.819-5.44-3.819C222.078,241.22,221.931,241.237,221.824,241.256z"/>
		</g>
		<g>
			<path fill="#BE202E" d="M218.729,230.857c0,0-7.513-0.04-18.652-1.682c-11.142-1.646-14.883-2.599-17.117,7.114
				c-2.238,9.717,30.414,10.519,35.647,7.644C223.844,241.052,222.764,231.012,218.729,230.857z"/>
			<path fill="#3C2517" d="M207.259,248.695h-0.004c-4.82,0-20.95-0.497-26.076-6.94c-1.458-1.829-1.953-3.974-1.441-6.208
				c1.281-5.568,3.533-10.718,11.261-10.718c2.309,0,4.967,0.393,8.333,0.891l1.23,0.183c10.742,1.589,18.111,1.65,18.184,1.65
				c3.089,0.114,5.485,2.483,6.36,6.179c1.082,4.572-0.258,10.539-4.901,13.091C217.239,248.454,210.821,248.695,207.259,248.695z
				 M190.998,231.434c-2.279,0-3.533,0-4.818,5.599c-0.05,0.201-0.062,0.319,0.17,0.609c1.716,2.157,9.628,4.449,20.905,4.449
				c5.92,0,9.134-0.711,9.758-1.054c1.345-0.739,1.7-2.585,1.785-3.346c0.205-1.744-0.235-3.06-0.543-3.537
				c-1.614-0.029-8.68-0.237-18.658-1.711l-1.237-0.185C195.263,231.797,192.816,231.434,190.998,231.434z"/>
		</g>
		<g>
			<line fill="none" x1="237.354" y1="228.128" x2="271.082" y2="200.778"/>
			<path fill="#3C2517" d="M237.354,231.434c-0.965,0-1.916-0.417-2.569-1.225c-1.147-1.419-0.931-3.498,0.482-4.645l33.73-27.351
				c1.427-1.151,3.502-0.931,4.647,0.487c1.152,1.417,0.933,3.496-0.485,4.648l-33.727,27.347
				C238.816,231.189,238.082,231.434,237.354,231.434z"/>
		</g>
		<g>
			<path fill="#BE202E" d="M237.322,230.611c0,0-21.833-7.85-17.883,5.356C223.39,249.168,238.123,248.369,237.322,230.611z"/>
			<path fill="#3C2517" d="M228.929,248.32L228.929,248.32c-5.616,0-10.583-4.478-12.654-11.404
				c-1.046-3.502-0.76-6.374,0.849-8.542c1.675-2.243,4.538-3.382,8.505-3.382c5.764,0,12.527,2.41,12.809,2.508
				c1.259,0.457,2.124,1.625,2.183,2.965c0.362,7.994-2.107,12.339-4.245,14.574C234.353,247.155,231.707,248.32,228.929,248.32z
				 M225.628,231.602c-2.104,0-3.002,0.453-3.202,0.723c-0.163,0.224-0.313,1.042,0.179,2.7c1.387,4.619,4.171,6.688,6.324,6.688
				c0.985,0,1.888-0.417,2.671-1.234c0.874-0.923,2.242-3.048,2.427-7.442C231.878,232.414,228.496,231.602,225.628,231.602z"/>
		</g>
		<g>
			<path fill="#FFE2B6" d="M294.074,198.953c0,0,3.479-26.648-16.221-34.761c-19.703-8.116-35.848,17.376-27.967,28.969
				c7.883,11.588,21.791,8.496,25.651,30.128c3.855,21.636,18.777-2.316,18.777-2.316L294.074,198.953z"/>
			<path fill="#3C2517" d="M281.572,235.64h-0.006c-4.768,0-7.887-3.962-9.283-11.771c-2.152-12.09-7.459-15.289-13.604-18.994
				c-4.019-2.426-8.177-4.938-11.527-9.856c-3.644-5.359-3.438-13.352,0.537-20.863c3.798-7.169,11.705-14.836,22.525-14.836
				c2.979,0,5.973,0.613,8.896,1.813c20.976,8.639,18.619,34.964,18.271,38l0.237,21.804c0.004,0.629-0.169,1.25-0.503,1.781
				C295.777,224.874,288.708,235.64,281.572,235.64z M270.216,165.929c-7.896,0-13.92,6.098-16.687,11.318
				c-2.785,5.257-3.141,10.775-0.91,14.055c2.531,3.726,5.906,5.76,9.479,7.916c6.566,3.962,14.01,8.456,16.691,23.491
				c0.831,4.641,2.117,6.327,2.777,6.327c2.121,0,6.507-4.603,9.437-9.018l-0.231-21.028c0-0.152,0.008-0.307,0.026-0.458
				c0.033-0.241,2.88-24.254-14.2-31.288C274.477,166.374,272.327,165.929,270.216,165.929z"/>
		</g>
		<g>
			<path fill="#FFFFFF" d="M321.503,229.874l-23.181-32.392c0,0-32.44,13.063-40.172,31.214l42.88,59.101
				c0,0,24.328,17.764,36.691-15.068c12.364-32.832,17.694-84.687,3.868-94.249l-14.611-11.997l-7.854-9.398"/>
			<path fill="#3C2517" d="M315.653,295.906c-9.002,0-16.204-5.172-16.572-5.441c-0.276-0.199-0.522-0.445-0.722-0.727
				l-42.881-59.104c-0.683-0.936-0.816-2.165-0.369-3.231c8.171-19.194,40.602-32.429,41.979-32.984
				c1.411-0.568,3.034-0.098,3.921,1.14l23.18,32.39c1.062,1.487,0.721,3.55-0.768,4.611c-1.487,1.062-3.547,0.719-4.607-0.763
				l-21.629-30.222c-7.123,3.206-28.283,13.593-35.209,26.767l41.389,57.045c1.759,1.137,9.262,5.522,16.757,3.264
				c6.045-1.824,10.93-7.571,14.513-17.086c13.364-35.502,16.024-82.794,5.077-90.368l-14.827-12.16
				c-0.159-0.126-0.311-0.278-0.44-0.433l-7.854-9.399c-1.168-1.401-0.983-3.484,0.416-4.651c1.409-1.173,3.485-0.985,4.656,0.416
				l7.655,9.159l14.368,11.8c16.145,11.146,9.023,66.391-2.87,97.969c-4.354,11.563-10.697,18.666-18.852,21.097
				C319.807,295.641,317.684,295.906,315.653,295.906z"/>
		</g>
		<g>
			<path fill="#3C2517" d="M309.502,188.039c-1.454,0-2.785-0.969-3.187-2.435c-0.479-1.764,0.561-3.578,2.318-4.06l29.84-8.124
				c1.761-0.478,3.576,0.559,4.057,2.315c0.481,1.76-0.557,3.579-2.32,4.06l-29.838,8.125
				C310.082,188.001,309.788,188.039,309.502,188.039z"/>
		</g>
	</g>
</g>
</svg>
