<svg id="math_class" data-name="math class" xmlns="http://www.w3.org/2000/svg" viewBox="0 0 300 300"><defs><style>.cls-1{fill:#871719;}.cls-2{fill:#26140e;}.cls-3{fill:#200f10;}.cls-4{fill:#fff;}.cls-5{fill:#b22026;}.cls-6{fill:#c3c3c6;}.cls-7{fill:#3a61ad;}</style></defs><title>math class</title><path class="cls-1" d="M223.24,208.22v-19.9L184.42,85.47l-71.8-24.26s-21.11-3.64-24.51,16.5V222.05s.49,17,24.51,17.22"/><path class="cls-2" d="M112.62,241h0c-25.39-.26-26.21-18.71-26.22-18.91V77.71a1.36,1.36,0,0,1,0-.29c1-6.25,3.82-11,8.22-14.12,7.8-5.53,17.85-3.87,18.28-3.8l.26.07L185,83.83a1.69,1.69,0,0,1,1.06,1l38.82,102.85a1.87,1.87,0,0,1,.11.61v19.9a1.73,1.73,0,1,1-3.46,0V188.64L183.09,86.85,112.2,62.9a26.21,26.21,0,0,0-10.2.7c-6.76,1.95-10.85,6.74-12.15,14.25v144.2c0,.56.82,15.27,22.78,15.49a1.73,1.73,0,0,1,0,3.46"/><path class="cls-1" d="M112.62,239.27H217.47a5.79,5.79,0,0,0,5.77-5.77V208.22"/><path class="cls-3" d="M217.47,241H112.62a1.73,1.73,0,1,1,0-3.46H217.47a4,4,0,0,0,4-4V208.22a1.73,1.73,0,1,1,3.46,0V233.5a7.52,7.52,0,0,1-7.5,7.5"/><path class="cls-4" d="M109.46,206.14l113.78.24v24.5H110.41s-12,.24-12.28-14.07c.47-9.95,11.33-10.67,11.33-10.67"/><path class="cls-2" d="M110.37,232.61c-.56,0-13.71-.18-14-15.78.43-9.19,8.66-12.13,12.95-12.42h.12l113.77.25a1.73,1.73,0,0,1,1.73,1.73v24.5a1.74,1.74,0,0,1-1.73,1.73M109.53,207.87c-.81.07-9.28,1-9.67,9,.2,11.91,9.45,12.26,10.51,12.26v0H221.51v-21Z"/><path class="cls-5" d="M223.48,191.54a5.79,5.79,0,0,1-5.77,5.78H112.32a5.79,5.79,0,0,1-5.77-5.78v-125a5.79,5.79,0,0,1,5.77-5.77H217.71a5.79,5.79,0,0,1,5.77,5.77"/><path class="cls-2" d="M217.71,199.05H112.32a7.51,7.51,0,0,1-7.5-7.51V66.5a7.51,7.51,0,0,1,7.5-7.51H217.71a7.52,7.52,0,0,1,7.5,7.51v125a7.52,7.52,0,0,1-7.5,7.51M112.32,62.46a4,4,0,0,0-4,4v125a4.05,4.05,0,0,0,4,4.05H217.71a4.06,4.06,0,0,0,4-4.05V66.5a4,4,0,0,0-4-4Z"/><path class="cls-6" d="M213.53,170.41a5.78,5.78,0,0,1-5.77,5.77H122.27a5.78,5.78,0,0,1-5.77-5.77v-87a5.79,5.79,0,0,1,5.77-5.77h85.49a5.79,5.79,0,0,1,5.77,5.77"/><path class="cls-2" d="M207.76,177.92H122.27a7.52,7.52,0,0,1-7.51-7.51v-87a7.52,7.52,0,0,1,7.51-7.5h85.49a7.51,7.51,0,0,1,7.5,7.5v87a7.51,7.51,0,0,1-7.5,7.51M122.27,79.4a4,4,0,0,0-4,4v87a4,4,0,0,0,4,4h85.49a4,4,0,0,0,4-4v-87a4,4,0,0,0-4-4Z"/><path class="cls-7" d="M137.06,115.71a2.9,2.9,0,0,1-.3,1.22l-.07.2-.24.61L128.7,136.2a1.77,1.77,0,0,1-1.73,1.22,2.06,2.06,0,0,1-1.44-.54,1.78,1.78,0,0,1-.6-1.36,2.19,2.19,0,0,1,.17-.82l6.49-15.49a29.92,29.92,0,0,1-8.25.71,2,2,0,0,1-1.38-.56,1.83,1.83,0,0,1-.53-1.38,2,2,0,0,1,.56-1.44,1.86,1.86,0,0,1,1.45-.53,32.84,32.84,0,0,0,10.91-1.7,5.28,5.28,0,0,1,1.56,0,1.32,1.32,0,0,1,1.15,1.4"/><path class="cls-7" d="M154.06,126.55a1.88,1.88,0,0,1-2,2l-3.1,0v3.74a2.32,2.32,0,0,1-.71,1.73,2.36,2.36,0,0,1-1.73.72c-1,0-1.46-.52-1.46-1.57v-4.62l-3.1,0a1.75,1.75,0,0,1-1.94-2,1.92,1.92,0,0,1,.55-1.4,1.89,1.89,0,0,1,1.39-.54h3.1v-3.3a2.49,2.49,0,0,1,2.44-2.44c1,0,1.46.52,1.46,1.56v4.18h3.1a2,2,0,0,1,1.41.54,1.89,1.89,0,0,1,.56,1.4"/><path class="cls-7" d="M174,131.92a1.74,1.74,0,0,1-.74,1.46,4.44,4.44,0,0,1-3.61,1.63h-8c-1.43,0-2.15-.41-2.15-1.22q0-1.53,3-4.83c1.27-1.52,3.11-3.65,5.54-6.39a3.66,3.66,0,0,0,.75-2.21,2.11,2.11,0,0,0-.51-1.46,2,2,0,0,0-1-.24q-1.83,0-4.21,2.82a1.79,1.79,0,0,1-1.46.72,2,2,0,0,1-1.41-.6,1.82,1.82,0,0,1-.63-1.38,1.77,1.77,0,0,1,.51-1.25c.09-.09.26-.29.51-.58q3.33-3.54,6.08-3.57a6.12,6.12,0,0,1,4.33,1.38,5,5,0,0,1,1.69,4.06,8.41,8.41,0,0,1-1.77,5.17l-4.92,5.67h3.56a2.37,2.37,0,0,0,.41,0,5.28,5.28,0,0,1,1.36-1.09,2.29,2.29,0,0,1,.68-.1,1.74,1.74,0,0,1,1.36.61,2.09,2.09,0,0,1,.54,1.43"/><path class="cls-7" d="M189.23,124.3a1.85,1.85,0,0,1-1.94,1.94h-7.61a1.94,1.94,0,0,1-1.41-.54,1.89,1.89,0,0,1-.56-1.4,2,2,0,0,1,.56-1.41,1.91,1.91,0,0,1,1.41-.56h7.61a1.89,1.89,0,0,1,1.4.56,2,2,0,0,1,.54,1.41m.07,6.12a2,2,0,0,1-.55,1.43,1.92,1.92,0,0,1-1.43.54h-7.67a1.86,1.86,0,0,1-1.41-.54,2,2,0,0,1-.53-1.43,1.87,1.87,0,0,1,1.94-1.94h7.67a2,2,0,0,1,1.43.53,1.88,1.88,0,0,1,.55,1.41"/><path class="cls-7" d="M202.38,136.5a1.79,1.79,0,0,1-1.83,1,2.07,2.07,0,0,1-1.35-.73,1.82,1.82,0,0,1-.42-1.45,2.33,2.33,0,0,1,.27-.82,55.8,55.8,0,0,0,3.84-7.68,8.29,8.29,0,0,1-3.33.79c-2.67,0-4.37-1.46-5.1-4.35a9.53,9.53,0,0,1-.3-2.32,8.29,8.29,0,0,1,1.32-4.48,5.78,5.78,0,0,1,5.1-2.82,8.56,8.56,0,0,1,1.32.1q6.33.94,6.33,7,0,6.22-5.85,15.8m2-15a5.08,5.08,0,0,0-.34-2.85,2.7,2.7,0,0,0-2.27-1.53,4,4,0,0,0-2.74.69,3.3,3.3,0,0,0-1.48,2.3,4,4,0,0,0,.72,2.62,2.43,2.43,0,0,0,1.83,1.12,4.67,4.67,0,0,0,2.57-.56,3,3,0,0,0,1.71-1.79"/></svg>