<svg id="meat_shop" data-name="meat shop" xmlns="http://www.w3.org/2000/svg" viewBox="0 0 300 300"><defs><style>.cls-1{fill:#efedee;}.cls-2{fill:#3a2d24;}.cls-3{fill:#c86e2f;}.cls-4{fill:#8c481a;}.cls-5{fill:#211c1c;}</style></defs><title>eat shop</title><path class="cls-1" d="M210.26,79.51c-2.94,1.56-2.31-3.17-2.31-3.17.18-4.47-3.56-5.13-5.66-5-1.95.1-7.73.85-6,7.09s1.41,8.38.38,12.3c-1.08,4.14-8.7,13.68-8.7,13.68l-.15,11.32L200,108.35s4-11,7.09-13.83a22.21,22.21,0,0,1,10.69-5.66c6.34-1.32,3.22-6.1,2.56-7.15,0,0-2.94-5.19-5-4.77s-2.23,1-5.16,2.57"/><path class="cls-2" d="M187.8,117.15a1.51,1.51,0,0,1-.71-.19,1.45,1.45,0,0,1-.73-1.27l.16-11.32a1.41,1.41,0,0,1,.31-.88c2.06-2.59,7.6-10,8.43-13.15.94-3.59,1.29-5.44-.38-11.55a6.79,6.79,0,0,1,.7-6c1.69-2.33,4.88-2.84,6.64-2.94h.49a7.15,7.15,0,0,1,5.13,1.91,6,6,0,0,1,1.55,4.63,6.14,6.14,0,0,0,0,1.91l.15-.08c1-.53,1.67-1,2.21-1.28a8.9,8.9,0,0,1,3.34-1.42,2.33,2.33,0,0,1,.53-.06c2.56,0,5,3.87,6,5.53.56.88,2.26,3.59,1.2,6.1-.68,1.6-2.26,2.66-4.71,3.18a20.65,20.65,0,0,0-9.89,5.18l-.13.12c-2.3,2.1-5.62,10.29-6.71,13.27a1.47,1.47,0,0,1-.61.74l-12.22,7.35a1.44,1.44,0,0,1-.75.21m1.59-12.25-.11,8.24,9.57-5.76c.89-2.37,4.34-11.23,7.3-13.93a23.63,23.63,0,0,1,11.37-6c1-.21,2.29-.64,2.64-1.47s0-1.92-1-3.46c-1.2-2.11-2.89-4.08-3.54-4.17a6.32,6.32,0,0,0-2.34,1.06c-.57.35-1.29.8-2.37,1.37a2.76,2.76,0,0,1-3.59-.36c-1.12-1.27-.91-3.59-.82-4.27a3.13,3.13,0,0,0-.76-2.38,4.45,4.45,0,0,0-3-1l-.34,0c-1,0-3.43.32-4.45,1.74a4.08,4.08,0,0,0-.26,3.53c1.76,6.47,1.49,8.83.39,13-1,4-7.07,11.81-8.66,13.83"/><path class="cls-3" d="M193.7,96.64s-12.46,10-23.7,15c0,0-27.35,10.71-27.24,37.82S166,173,173.63,168.62s20.52-14.16,22.1-27.9,1.8-25.14,2.94-28.61c.9-2.78,3.62-9.56,3.62-9.56s-6.36,1.58-7.36,1.46-1.23-7.37-1.23-7.37"/><path class="cls-2" d="M161.33,173.05c-6,0-19.92-2.3-20-23.63-.13-27.77,27.87-39,28.15-39.15,10.87-4.81,23.19-14.66,23.31-14.76a1.45,1.45,0,0,1,1.51-.18,1.43,1.43,0,0,1,.84,1.27,35.85,35.85,0,0,0,.56,5.91c1.26-.19,3.93-.79,6.25-1.36a1.42,1.42,0,0,1,1.43.45,1.46,1.46,0,0,1,.26,1.48c0,.07-2.72,6.78-3.6,9.47-.59,1.8-.95,6.37-1.4,12.15-.35,4.54-.79,10.19-1.48,16.18-1.82,15.83-17.92,26.19-22.81,29a27.69,27.69,0,0,1-13,3.18m31-73.57c-4.1,3.1-13.22,9.65-21.79,13.44-.32.13-26.5,10.71-26.38,36.49,0,7.76,2.3,20.76,17.12,20.76a24.94,24.94,0,0,0,11.59-2.81c4.59-2.63,19.71-12.32,21.38-26.8.68-5.95,1.12-11.57,1.47-16.08.48-6.21.83-10.69,1.53-12.82.56-1.71,1.76-4.84,2.64-7.07a33.44,33.44,0,0,1-4.89.87h-.28c-.85-.1-2-.23-2.39-6"/><path class="cls-4" d="M147,154.65s-.69-19.94,16.21-31.16"/><path class="cls-5" d="M147,156.09a1.45,1.45,0,0,1-1.44-1.39c0-.85-.51-20.88,16.86-32.41a1.44,1.44,0,1,1,1.59,2.4c-16,10.65-15.57,29.72-15.56,29.91a1.46,1.46,0,0,1-1.4,1.49H147"/><path class="cls-3" d="M72.11,176.08s30-81.35,95.12-69.51,67.17,56,67.17,56,8.87,65-97.69,53.95c-25.53-6.89-62.38-17.54-62.38-17.54s-13.1-.89-16-6.66-4.44-15.73,13.76-16.19"/><path class="cls-2" d="M159.76,219.18a225.89,225.89,0,0,1-23.2-1.28l-.22,0c-24.45-6.59-59.69-16.76-62.26-17.5-2-.15-13.95-1.31-17-7.45-1.34-2.68-3.21-7.82-.62-12.14,2.23-3.71,7.16-5.76,14.67-6.1,3.35-8.32,30.25-70.71,83.34-70.71a72.9,72.9,0,0,1,13,1.2C233,117.08,235.82,162,235.84,162.45a47.11,47.11,0,0,1-11.42,34.85c-12.67,14.52-34.43,21.88-64.66,21.88M137,215.05a223.32,223.32,0,0,0,22.79,1.25c29.33,0,50.35-7,62.46-20.86A45,45,0,0,0,233,162.71c0-.55-2.9-43.22-66-54.72a70.69,70.69,0,0,0-12.52-1.15c-15.69,0-39,6-61.07,34.71a150.65,150.65,0,0,0-19.92,35,1.45,1.45,0,0,1-1.31.94c-6.91.18-11.49,1.81-13.24,4.74-1.88,3.13-.35,7.21.73,9.36,2.06,4.13,11.37,5.64,14.78,5.87a1.54,1.54,0,0,1,.31,0c.37.11,37,10.71,62.24,17.51"/><path class="cls-1" d="M243.4,93.11c2.49-1.91,6.43,2.43,7.76,4.07s4.09,6.31-2.76,7.74A24.17,24.17,0,0,0,236.83,111c-3.31,3-7.66,15-7.66,15L215.94,134l.17-12.23s8.75-10.47,9.4-14.8,1.43-6.55-.41-13.3,3.56-6.43,5.63-6,7.73,2,7.17,5.06c0,0-.85,3.81,2.32,2.11l3.18-1.69"/><path class="cls-2" d="M215.94,135.39a1.54,1.54,0,0,1-.72-.18,1.46,1.46,0,0,1-.72-1.27l.17-12.24a1.45,1.45,0,0,1,.33-.91c2.36-2.83,8.6-10.87,9.09-14.09.08-.54.16-1,.24-1.52.55-3.35.91-5.56-.63-11.18-.71-2.62-.52-4.67.56-6.09A5.49,5.49,0,0,1,228.85,86a10.43,10.43,0,0,1,2.18.23c5.82,1.23,8.84,3.68,8.28,6.73a3.75,3.75,0,0,0-.07.73l.3-.15,3.09-1.64a3.68,3.68,0,0,1,2.18-.7c2.92,0,5.94,3.19,7.47,5.08.84,1,2.7,3.73,1.76,6.38-.66,1.84-2.45,3.08-5.34,3.69A22.4,22.4,0,0,0,238,112l-.15.14c-2.5,2.28-6.1,11.17-7.28,14.39a1.42,1.42,0,0,1-.61.75l-13.23,8a1.37,1.37,0,0,1-.74.2m1.6-13.14-.12,9.13L228,125c.93-2.5,4.68-12.15,7.87-15.06l.12-.11a25.44,25.44,0,0,1,12.13-6.35c1.26-.26,2.84-.79,3.21-1.82s-.46-2.59-1.28-3.6c-1.94-2.4-4-4-5.23-4a.83.83,0,0,0-.53.18l-.2.13-3.18,1.69a4.35,4.35,0,0,1-2,.61,2.35,2.35,0,0,1-1.87-.87,4.33,4.33,0,0,1-.5-3.43c.23-1.27-3-2.68-6.05-3.34a8.28,8.28,0,0,0-1.59-.17,2.94,2.94,0,0,0-2.3.79c-.5.66-.52,1.89-.06,3.58,1.7,6.23,1.25,9,.68,12.41-.07.47-.16,1-.23,1.48-.65,4.25-7.61,13-9.4,15.12"/><path class="cls-3" d="M222.32,113.33s-13.48,10.82-25.62,16.19c0,0-29.6,11.58-29.47,40.9s25.16,25.46,33.38,20.76S222.8,175.87,224.52,161s1.95-27.19,3.17-30.95c1-3,3.93-10.34,3.93-10.34s-6.88,1.71-8,1.59-1.33-8-1.33-8"/><path class="cls-2" d="M187.31,195.86c-19.32,0-21.49-17.78-21.52-25.44-.14-30,30.07-42.12,30.38-42.24,11.78-5.21,25.11-15.87,25.24-16a1.45,1.45,0,0,1,2.35,1.09,37.47,37.47,0,0,0,.63,6.51c1.44-.21,4.68-.94,6.88-1.49a1.44,1.44,0,0,1,1.69,1.94c0,.07-2.94,7.33-3.9,10.25-.64,2-1,6.89-1.51,13.14-.38,4.91-.86,11-1.6,17.52-2,17.07-19.35,28.24-24.62,31.26a30.3,30.3,0,0,1-14,3.43M221,116.18c-4.35,3.3-14.34,10.51-23.72,14.66-.35.14-28.74,11.61-28.61,39.57.09,19.64,11.72,22.57,18.64,22.57a27.12,27.12,0,0,0,12.59-3c5-2.85,21.38-13.36,23.18-29.09.75-6.44,1.22-12.52,1.6-17.41.52-6.7.89-11.53,1.64-13.82.62-1.89,2-5.42,2.94-7.84a38.76,38.76,0,0,1-5.48,1l-.29,0c-.84-.09-2.06-.23-2.49-6.56"/><path class="cls-3" d="M124,196.45s32.21-2.78,23,25.18c-5.49,16.59-42.36,2.09-49.25-3.89-5-4.34-15.62-22.81,9.69-43.9s40.84-11.51,31.52,2.24S124,196.45,124,196.45"/><path class="cls-2" d="M132.85,230.77c-13.63,0-31.35-7.84-36.08-11.94-2.65-2.3-7.1-8.54-7-17.36.1-9.89,5.73-19.56,16.73-28.74,9.79-8.15,19.21-12.64,26.53-12.64,4.36,0,7.61,1.62,9.17,4.55,1.74,3.29,1,7.75-2.06,12.25-6.08,9-10.63,15-13.05,18.05,4.92.09,15.18,1.15,20.17,8,3.38,4.68,3.75,11.1,1.1,19.1-1.31,4-5.06,8.69-15.49,8.69M133,163c-6.55,0-15.55,4.37-24.68,12-10.18,8.48-15.61,17.66-15.69,26.55-.08,7.78,3.9,13.31,6,15.15,4.55,3.95,21.71,11.24,34.19,11.24,7,0,11.28-2.26,12.75-6.72,2.34-7.06,2.11-12.61-.7-16.5-4.47-6.19-14.48-6.85-18.57-6.85-1.35,0-2.19.06-2.2.06a1.44,1.44,0,0,1-1.22-2.36c0-.07,5.66-6.74,14.83-20.25,2.42-3.58,3.11-7,1.89-9.28-1-1.94-3.38-3-6.62-3"/><path class="cls-2" d="M112.56,202.18a1.43,1.43,0,0,1-1.22-.68,1.44,1.44,0,0,1,.46-2c6.62-4.11,15.39-4.54,15.76-4.56a1.45,1.45,0,0,1,1.5,1.38,1.43,1.43,0,0,1-1.37,1.5c-.08,0-8.4.42-14.37,4.13a1.42,1.42,0,0,1-.76.22"/></svg>