<svg id="medical_shop" data-name="medical shop" xmlns="http://www.w3.org/2000/svg" viewBox="0 0 300 300"><defs><style>.cls-1{fill:#27aae1;}.cls-2{fill:#3c2415;}.cls-3{fill:#f15a29;}.cls-4{fill:#a7a9ac;}.cls-5{fill:#3b2416;}.cls-6{fill:#e6e7e8;}</style></defs><title>medical shop</title><g id="Layer_1_copy_104" data-name="Layer 1 copy 104"><path class="cls-1" d="M169.59,114.79a23.37,23.37,0,0,1,29.17-15.55h0a23.37,23.37,0,0,1,15.55,29.17l-20.76,68.17a23.37,23.37,0,0,1-29.17,15.55h0A23.38,23.38,0,0,1,148.83,183Z"/><path class="cls-2" d="M199.41,97.11a25.64,25.64,0,0,1,17,32l-20.76,68.17a25.6,25.6,0,1,1-49-14.94l20.76-68.15A25.64,25.64,0,0,1,199.41,97.11ZM165,210a21.17,21.17,0,0,0,26.39-14.07l20.76-68.17a21.15,21.15,0,1,0-40.46-12.32L151,183.6A21.17,21.17,0,0,0,165,210Z"/><path class="cls-3" d="M203.93,162.48l-10.38,34.1a23.37,23.37,0,0,1-29.17,15.55h0A23.38,23.38,0,0,1,148.83,183l10.38-34.09Z"/><path class="cls-2" d="M157.73,146.08l49,14.92-11,36.23a25.6,25.6,0,1,1-49-14.94ZM201.15,164l-40.46-12.33-9.73,32a21.15,21.15,0,1,0,40.46,12.33Z"/><path class="cls-1" d="M218.31,220.44a23.38,23.38,0,0,1-33-1.9h0a23.39,23.39,0,0,1,1.9-33l53.18-47.41a23.39,23.39,0,0,1,33,1.89h0a23.4,23.4,0,0,1-1.9,33Z"/><path class="cls-2" d="M183.64,220a25.66,25.66,0,0,1,2.08-36.17l53.18-47.4A25.6,25.6,0,0,1,273,174.68l-53.19,47.43A25.63,25.63,0,0,1,183.64,220Zm88.08-78.53a21.17,21.17,0,0,0-29.86-1.72l-53.18,47.41a21.16,21.16,0,0,0,28.15,31.59L270,171.36A21.18,21.18,0,0,0,271.72,141.5Z"/><path class="cls-3" d="M213.79,161.82l26.59-23.7a23.38,23.38,0,0,1,33,1.9h0a23.39,23.39,0,0,1-1.9,33l-26.6,23.72Z"/><path class="cls-2" d="M244.72,199.88l-34.07-38.25,28.25-25.17A25.6,25.6,0,0,1,273,174.68ZM216.94,162l28.14,31.59L270,171.36a21.15,21.15,0,0,0-28.15-31.58Z"/><path class="cls-4" d="M26.89,162.51c0,11.21,25,20.3,55.93,20.3s55.93-9.09,55.93-20.3V148.83H26.89Z"/><path class="cls-5" d="M82.82,185c-15.19,0-29.51-2.16-40.31-6.08-11.51-4.18-17.85-10-17.85-16.45v-15.9H141v15.9c0,6.43-6.34,12.27-17.85,16.45C112.32,182.88,98,185,82.82,185Zm-53.71-34v11.45c0,4.36,5.44,8.82,14.92,12.26,10.32,3.75,24.1,5.82,38.79,5.82s28.46-2.07,38.79-5.82c9.48-3.44,14.91-7.9,14.91-12.26V151.06Z"/><path class="cls-6" d="M138.75,148.83c0,11.21-25,20.29-55.93,20.29S26.89,160,26.89,148.83s25-20.28,55.93-20.28S138.75,137.63,138.75,148.83Z"/><path class="cls-5" d="M82.82,171.35c-15.19,0-29.51-2.16-40.31-6.08-11.51-4.18-17.85-10-17.85-16.44S31,136.57,42.51,132.39c10.8-3.91,25.12-6.07,40.31-6.07s29.51,2.16,40.31,6.07c11.51,4.18,17.85,10,17.85,16.44s-6.34,12.26-17.85,16.44C112.33,169.19,98,171.35,82.82,171.35Zm0-40.58c-14.69,0-28.47,2.07-38.79,5.81-9.48,3.44-14.92,7.9-14.92,12.25s5.44,8.82,14.92,12.25c10.32,3.75,24.1,5.81,38.79,5.81s28.46-2.06,38.79-5.81c9.48-3.43,14.91-7.9,14.91-12.25s-5.43-8.81-14.91-12.25C111.28,132.84,97.5,130.77,82.82,130.77Z"/><rect class="cls-5" x="26.89" y="146.6" width="111.86" height="4.45"/><path class="cls-4" d="M48,118.53c0,11.2,25,20.28,55.94,20.28s55.93-9.08,55.93-20.28V104.84H48Z"/><path class="cls-5" d="M104,141c-15.2,0-29.51-2.16-40.31-6.08-11.51-4.17-17.85-10-17.85-16.43V102.62H162.12v15.91c0,6.42-6.34,12.26-17.85,16.43C133.47,138.88,119.16,141,104,141Zm-53.71-34v11.46c0,4.34,5.44,8.81,14.92,12.25,10.32,3.74,24.1,5.81,38.79,5.81s28.46-2.07,38.79-5.81c9.48-3.44,14.91-7.9,14.91-12.25V107.07Z"/><path class="cls-6" d="M104,84.56c30.89,0,55.93,9.08,55.93,20.28s-25,20.29-55.93,20.29S48,116.05,48,104.84,73.08,84.56,104,84.56Z"/><path class="cls-5" d="M104,127.36c-15.2,0-29.51-2.16-40.31-6.08-11.51-4.17-17.85-10-17.85-16.44s6.34-12.26,17.85-16.43c10.8-3.92,25.11-6.08,40.31-6.08s29.5,2.16,40.3,6.08c11.52,4.17,17.85,10,17.85,16.43s-6.33,12.27-17.85,16.44C133.47,125.2,119.16,127.36,104,127.36Zm0-40.58c-14.69,0-28.47,2.07-38.79,5.81-9.48,3.44-14.92,7.9-14.92,12.25s5.44,8.82,14.92,12.26c10.32,3.74,24.1,5.8,38.79,5.8s28.46-2.06,38.79-5.8c9.48-3.44,14.91-7.91,14.91-12.26S152.24,96,142.76,92.59C132.43,88.85,118.65,86.78,104,86.78Z"/><rect class="cls-5" x="48.03" y="102.62" width="111.86" height="4.45"/></g></svg>