<svg id="menu" xmlns="http://www.w3.org/2000/svg" viewBox="0 0 300 300"><defs><style>.cls-1{fill:#c6b344;}.cls-1,.cls-2{stroke:#3c2415;stroke-miterlimit:10;stroke-width:4.68px;}.cls-2{fill:#f2e479;}.cls-3{fill:#26140e;}.cls-4{fill:#00a651;}.cls-5{fill:#a7a9ac;}.cls-6{font-size:26.99px;fill:#3c2415;font-family:EkMukta-Regular, Ek Mukta;}</style></defs><title>menu</title><polygon class="cls-1" points="216.55 227.15 84.84 227.15 84.84 68.88 216.55 50.4 216.55 227.15"/><rect class="cls-2" x="84.85" y="68.88" width="139.5" height="168.33"/><path class="cls-3" d="M136.47,143.83a.85.85,0,0,1-.84-.85V121.92a.84.84,0,1,1,1.68,0V143a.85.85,0,0,1-.84.85"/><path class="cls-4" d="M142.19,175.37a5.72,5.72,0,1,1-11.44,0V149.11a5.72,5.72,0,1,1,11.44,0"/><path class="cls-3" d="M136.47,181.93a6.56,6.56,0,0,1-6.56-6.56V149.11a6.57,6.57,0,1,1,13.13,0v26.26a6.57,6.57,0,0,1-6.57,6.56m0-37.7a4.89,4.89,0,0,0-4.88,4.88v26.26a4.88,4.88,0,0,0,9.76,0V149.11a4.89,4.89,0,0,0-4.88-4.88"/><path class="cls-5" d="M150.12,102.88c0,10.51-6.11,19-13.65,19s-13.65-8.53-13.65-19,6.11-19,13.65-19,13.65,8.52,13.65,19"/><path class="cls-3" d="M136.47,122.76c-8,0-14.49-8.92-14.49-19.88S128.48,83,136.47,83,151,91.92,151,102.88s-6.5,19.88-14.5,19.88m0-38.08c-7.06,0-12.81,8.16-12.81,18.2s5.75,18.2,12.81,18.2,12.81-8.17,12.81-18.2-5.75-18.2-12.81-18.2"/><path class="cls-3" d="M145.44,103.72a.85.85,0,0,1-.84-.84c0-6.44-3.65-11.67-8.13-11.67a.84.84,0,1,1,0-1.68c5.41,0,9.82,6,9.82,13.35a.85.85,0,0,1-.85.84"/><path class="cls-3" d="M164.31,108.75a.86.86,0,0,1-.86-.87v-24a.87.87,0,1,1,1.73,0v24a.87.87,0,0,1-.87.87"/><path class="cls-3" d="M173.39,108.75a.87.87,0,0,1-.87-.87v-24a.87.87,0,1,1,1.73,0v24a.86.86,0,0,1-.86.87"/><path class="cls-3" d="M182.2,108.75a.86.86,0,0,1-.86-.87v-24a.87.87,0,1,1,1.73,0v24a.87.87,0,0,1-.87.87"/><path class="cls-3" d="M173.39,142.78a.87.87,0,0,1-.87-.86V120.28a.87.87,0,0,1,1.73,0v21.64a.86.86,0,0,1-.86.86"/><path class="cls-4" d="M179.27,175.18a5.88,5.88,0,0,1-11.75,0v-27a5.88,5.88,0,1,1,11.75,0"/><path class="cls-3" d="M173.39,181.92a6.75,6.75,0,0,1-6.74-6.74v-27a6.74,6.74,0,0,1,13.48,0v27a6.75,6.75,0,0,1-6.74,6.74m0-38.72a5,5,0,0,0-5,5v27a5,5,0,0,0,10,0v-27a5,5,0,0,0-5-5"/><polygon class="cls-5" points="164.31 108.59 182.2 108.59 182.2 119.36 164.35 119.36 164.31 108.59"/><path class="cls-3" d="M182.2,120.23H164.35a.87.87,0,0,1-.87-.86l0-10.78a.88.88,0,0,1,.25-.61.86.86,0,0,1,.61-.25H182.2a.86.86,0,0,1,.87.86v10.77a.87.87,0,0,1-.87.87m-17-1.73h16.13v-9H165.18Z"/><text class="cls-6" transform="translate(118.35 220.5)">MENU</text></svg>