<svg id="merry_go_round" data-name="merry go round" xmlns="http://www.w3.org/2000/svg" viewBox="0 0 300 300"><defs><style>.cls-1{fill:#2bb8ac;}.cls-1,.cls-3,.cls-4{fill-rule:evenodd;}.cls-2{fill:#26140e;}.cls-3{fill:#148e7e;}.cls-4{fill:#ebc01d;}</style></defs><title>merry go round</title><path class="cls-1" d="M260.45,183.35c0,14.91-49.45,27-110.45,27s-110.46-12.08-110.46-27,49.46-27,110.46-27,110.45,12.08,110.45,27"/><path class="cls-2" d="M150,211.75c-55,0-111.86-10.63-111.86-28.4S95,155,150,155s111.86,10.61,111.86,28.39S205,211.75,150,211.75m0-54c-65.24,0-109.06,13.23-109.06,25.59S84.76,208.94,150,208.94s109.05-13.23,109.05-25.59-43.82-25.59-109-25.59"/><path class="cls-3" d="M145.34,222.25c-18.43-.82-36.45-2.15-53.42-5.18a263.51,263.51,0,0,1-35.3-8.47c-2.66-.88-7.86-3.26-9.41-5.18-1-1.24-1.31-3.28-1.65-5.18-3.38-3.11-8.49-5.28-6.59-13.41.3-1.1.82.57,1.18.94a44.32,44.32,0,0,0,4.7,4.47c5.29,3.91,13.37,6.33,22.12,8.71,24,6.54,52.54,9.18,82.6,9.18h.85c30.06,0,58.56-2.64,82.6-9.18,8.76-2.38,16.84-4.8,22.13-8.71a44.32,44.32,0,0,0,4.7-4.47c.36-.37.87-2,1.18-.94,1.9,8.13-3.21,10.3-6.59,13.41-.34,1.9-.64,3.94-1.65,5.18-1.55,1.92-6.75,4.3-9.41,5.18a263.88,263.88,0,0,1-35.3,8.47c-17,3-35,4.36-53.42,5.18"/><path class="cls-2" d="M154.66,223.65h-9.32c-15.18-.67-34.93-1.86-53.67-5.2a263.39,263.39,0,0,1-35.49-8.52c-2.35-.78-8.16-3.28-10.06-5.63-1.15-1.41-1.51-3.4-1.86-5.34-.43-.38-.9-.75-1.38-1.15-3.15-2.53-7.06-5.68-5.28-13.3a1.7,1.7,0,0,1,1.62-1.45c1,0,1.5.9,1.81,1.49.07.12.13.23.19.32l.16.16a42.31,42.31,0,0,0,4.31,4.08c5.11,3.79,13.16,6.18,21.65,8.49,22.26,6.05,49.93,9.13,82.23,9.13h.85c32.31,0,60-3.08,82.24-9.13,8.49-2.31,16.54-4.7,21.65-8.49a40.84,40.84,0,0,0,4.29-4.06l.24-.25a2.14,2.14,0,0,1,.12-.25c.32-.59.8-1.49,1.82-1.49a1.67,1.67,0,0,1,1.6,1.4c1.8,7.67-2.11,10.82-5.25,13.35-.5.4-1,.77-1.4,1.15-.34,1.94-.7,3.93-1.85,5.34-1.9,2.35-7.71,4.85-10.06,5.63a263.39,263.39,0,0,1-35.49,8.52c-18.74,3.34-38.49,4.53-53.61,5.2M40,187.6c-.2,4.11,2.08,6,4.67,8,.63.51,1.28,1,1.88,1.58a1.47,1.47,0,0,1,.43.78l.07.43c.29,1.6.58,3.25,1.28,4.12,1.24,1.52,6,3.82,8.77,4.73a259.19,259.19,0,0,0,35.1,8.42c18.58,3.31,38.21,4.5,53.24,5.16h9.23c15-.67,34.64-1.85,53.2-5.16a259.74,259.74,0,0,0,35.11-8.42c2.74-.91,7.53-3.21,8.76-4.73.71-.87,1-2.52,1.28-4.12l.08-.43a1.35,1.35,0,0,1,.43-.78c.6-.55,1.25-1.07,1.88-1.58,2.58-2.08,4.86-3.92,4.66-8a37.94,37.94,0,0,1-4,3.76c-5.51,4.07-13.83,6.55-22.59,8.93-22.5,6.12-50.42,9.23-83,9.23h-.85c-32.55,0-60.46-3.11-83-9.23-8.76-2.38-17.08-4.86-22.59-8.93A37.12,37.12,0,0,1,40,187.6"/><path class="cls-4" d="M231.5,115.65c0-8.52.84-20-2.36-24.71-5.45-8-18.42-5.45-28.94-4.24-15.08,1.73-29.52,3-44.82,4.6V86.43c0-4.79-3.13-8.68-7-8.68s-7,3.89-7,8.68v1.69l-1.89-.48c-4.75-1.56-10.38-3.21-16.24-4.94-5.59-1.65-11.45-3.82-16.71-4.71a15.5,15.5,0,0,0-2.59-.23c-8.86.5-10,10.41-10.11,20.7-3.54.63-7.15,1.05-10.6,1.65s-7.25,1-10.11,2.12a16.29,16.29,0,0,0-9.89,13.65c-.2,2.91.24,6.2.24,9.41,0,22.09-.19,47.51.23,68.25,1.56,1.22,4.65,2,6.12.47,1-1,.71-5.82.71-9.42V132.83c0-6.9-1-15.47.47-20.24,2.55-8.27,13.86-7.1,23.06-8.71V154c0,5.35-1.14,13.69,3.06,13.88,2.56.12,3.41-1.89,3.53-4.93.72-18.5,0-33.82,0-51.54,0-2.82-.3-7.26.47-8.24.53-.66,2.77-.94,4.47-1.18,12.27-1.68,22.84-3.37,34.36-4.7l1.42.14V178c0,4.8,3.14,8.68,7,8.68s7-3.88,7-8.68V99.16c12.86,5.47,24.22,10.49,36.82,16.25,4.09,1.87,9,3.5,11.76,6.59,4.08,4.56,3.77,12.32,3.77,21.65,0,14.95-.24,25.55-.24,40.24,0,5.11-1.75,17.19,4.24,16,2.39-.47,2.12-4.26,2.12-8.47v-32c0-12.21,1.87-32.19-3.06-39.76-2.62-4-8.66-5.64-13.42-7.77-11.84-5.32-23.61-10.21-34.83-15.53,14.16-1.69,28.31-3.64,42.83-4.95,4.06-.36,10.95-1.63,14.83-.23,6.69,2.4,5.18,12.11,5.18,21.42v36.94c0,3.92-1.06,16.05.94,17.65a3.49,3.49,0,0,0,4.94-.94c.75-1.13.69-2,.7-4,.18-16.24-.46-31.56-.46-46.59M100.88,97.29c.13-6.37-1.68-15.78,5.89-14.12,8.56,1.87,20.45,7.22,28,9.18-11,1.94-22.49,3.38-33.89,4.94"/><path class="cls-2" d="M210.94,201.37a4.09,4.09,0,0,1-3-1.27c-2.43-2.56-2.16-8.47-1.94-13.23,0-1.12.1-2.14.1-3,0-7.32.06-13.74.12-19.95s.12-12.78.12-20.29v-1.87c0-8.38,0-15-3.41-18.85-2-2.24-5.45-3.71-8.77-5.14-.86-.37-1.71-.73-2.54-1.11-12.39-5.65-23.22-10.45-34.82-15.4V178c0,5.56-3.78,10.08-8.41,10.08S140,183.6,140,178V98.7c-7.64.89-14.84,1.93-22.46,3-3.79.55-7.66,1.1-11.72,1.66l-.25,0a16,16,0,0,0-3.33.67,28.17,28.17,0,0,0-.18,5.32c0,.71,0,1.39,0,2,0,6,.08,11.72.16,17.28.17,11.32.32,22-.16,34.31-.17,4.3-1.82,6.39-5,6.29-4.87-.23-4.65-7-4.47-12.39,0-1,.07-2,.07-2.9V105.52c-1.61.22-3.25.39-4.86.56-7.07.72-13.76,1.4-15.46,6.92-1,3.17-.78,8.44-.58,13.54.08,2.11.17,4.28.17,6.29v51.76c0,.64,0,1.32,0,2,.06,4.42,0,7.19-1.12,8.38a4.44,4.44,0,0,1-3.31,1.28,8,8,0,0,1-4.68-1.63,1.37,1.37,0,0,1-.54-1.07C62,177.64,62,159.1,62,141.17c0-5.41,0-10.73,0-15.88,0-1.28-.08-2.61-.15-3.9a45.86,45.86,0,0,1-.08-5.61,17.68,17.68,0,0,1,10.77-14.86,39.61,39.61,0,0,1,7.87-1.78c.84-.13,1.68-.26,2.51-.41,1.71-.3,3.48-.56,5.2-.81,1.4-.2,2.83-.41,4.25-.64.12-7.69.79-20.32,11.42-20.92a17.08,17.08,0,0,1,2.91.25,93.11,93.11,0,0,1,12.06,3.25c1.61.52,3.22,1,4.81,1.49l.52.16c5.72,1.68,11.12,3.27,15.76,4.8H140c.05-5.51,3.8-10,8.41-10s8.41,4.52,8.41,10.08v3.32L169,88.53c10.56-1,20.53-2,31-3.22l3.15-.39a99.5,99.5,0,0,1,11.84-1c4.74,0,11.48.64,15.27,6.22,2.91,4.27,2.78,12.78,2.64,21,0,1.55,0,3.06,0,4.49,0,6.51.12,12.95.24,19.77.16,8.67.32,17.63.23,26.83v.49c0,1.75,0,2.89-.94,4.27a5,5,0,0,1-4.17,2.23h0a4.44,4.44,0,0,1-2.81-1c-1.8-1.44-1.94-6.08-1.57-15.28,0-1.4.11-2.62.11-3.46V112.59c0-1.48,0-3,.07-4.44.19-7.5.36-14-4.33-15.66a13,13,0,0,0-4.27-.56,63.89,63.89,0,0,0-7.22.57c-1,.12-1.92.23-2.73.3-10.46.94-20.88,2.24-31,3.49l-7,.86c5.64,2.6,11.36,5.09,17.34,7.71,4.32,1.88,8.67,3.78,13,5.74,1,.45,2.07.88,3.15,1.31,4.21,1.7,8.57,3.45,10.86,7,4.17,6.39,3.78,20.16,3.45,32.29-.09,3-.16,5.77-.16,8.24V192.6c0,4.12.05,8-3.25,8.67a5.58,5.58,0,0,1-1.06.1M155.38,97.76a1.46,1.46,0,0,1,.55.11c12.38,5.26,23.74,10.28,36.85,16.26.8.37,1.63.73,2.47,1.09,3.6,1.54,7.33,3.14,9.75,5.85,4.17,4.64,4.15,12.1,4.13,20.72v1.86c0,7.52-.06,14-.12,20.32s-.12,12.62-.12,19.92c0,.87,0,1.94-.1,3.11-.18,3.78-.44,9.47,1.17,11.17a1.46,1.46,0,0,0,1.49.34c1-.2,1-3.22,1-5.9v-33.2c0-2.51.07-5.33.16-8.31.3-11.15.69-25-3-30.69-1.81-2.78-5.75-4.36-9.55-5.9-1.12-.44-2.22-.88-3.26-1.35-4.36-2-8.7-3.86-13-5.74-7.58-3.31-14.74-6.43-21.85-9.81a1.4,1.4,0,0,1,.44-2.65q5.9-.7,11.82-1.45c10.1-1.26,20.54-2.56,31.05-3.5.79-.07,1.69-.18,2.66-.29a65.42,65.42,0,0,1,7.54-.59,15.73,15.73,0,0,1,5.22.72c6.59,2.37,6.38,10.5,6.18,18.37,0,1.45-.07,2.91-.07,4.37v36.94c0,.87-.05,2.12-.11,3.58-.13,3.22-.48,11.77.56,13a1.68,1.68,0,0,0,1,.32,2.27,2.27,0,0,0,1.84-1c.44-.65.46-1.11.47-2.73v-.51c.09-9.16-.07-18.1-.23-26.75-.13-6.83-.25-13.28-.25-19.82,0-1.45,0-3,0-4.54.12-7.43.25-15.85-2.15-19.39s-6.44-5-13-5a95.12,95.12,0,0,0-11.49,1l-3.18.38c-10.5,1.21-20.49,2.19-31.06,3.23l-13.78,1.37A1.41,1.41,0,0,1,154,91.3V86.43c0-4-2.51-7.28-5.6-7.28s-5.61,3.27-5.61,7.28v1.69A1.4,1.4,0,0,1,141,89.48L139.13,89c-4.68-1.54-10.06-3.12-15.76-4.8l-.52-.16c-1.61-.47-3.24-1-4.87-1.5a89.73,89.73,0,0,0-11.68-3.17,16.59,16.59,0,0,0-2.16-.22H104c-7.12.4-8.66,8-8.79,19.32a1.42,1.42,0,0,1-1.16,1.37c-1.83.32-3.68.59-5.48.85s-3.45.5-5.11.79c-.85.15-1.71.29-2.57.42a36.53,36.53,0,0,0-7.28,1.63,14.78,14.78,0,0,0-9,12.43,44.8,44.8,0,0,0,.09,5.26c.07,1.33.15,2.7.15,4.06,0,5.15,0,10.48,0,15.88,0,17.65-.07,35.88.24,51.61a5.26,5.26,0,0,0,2.43.67,1.8,1.8,0,0,0,1.29-.42c.41-.67.37-4.26.34-6.4,0-.7,0-1.39,0-2V132.83c0-2-.09-4.1-.17-6.18-.21-5.33-.42-10.85.7-14.48,2.26-7.29,10.19-8.1,17.86-8.88,2.11-.22,4.28-.44,6.3-.79a1.39,1.39,0,0,1,1.64,1.38V154c0,.93,0,1.95-.07,3-.13,4-.31,9.4,1.8,9.49h.14c.62,0,1.78,0,1.92-3.6.48-12.23.32-22.88.16-34.15-.08-5.58-.16-11.35-.16-17.33,0-.59,0-1.25,0-1.94-.08-4.08,0-6.12.8-7.17s2.54-1.3,5.13-1.66l.25,0c4-.56,7.92-1.12,11.69-1.66,7.7-1.11,15-2.15,22.7-3a1.5,1.5,0,0,1,.3,0l1.42.14a1.4,1.4,0,0,1,1.26,1.39V178c0,4,2.52,7.28,5.61,7.28s5.6-3.26,5.6-7.28V99.16a1.41,1.41,0,0,1,.63-1.17,1.44,1.44,0,0,1,.77-.23m-54.5.93a1.35,1.35,0,0,1-.92-.35,1.4,1.4,0,0,1-.47-1.08c0-1,0-2.15,0-3.34-.13-4.22-.26-8.58,2-10.88,1.31-1.35,3.21-1.78,5.66-1.24A135.09,135.09,0,0,1,123.29,87c4.39,1.6,8.54,3.12,11.84,4a1.41,1.41,0,0,1-.11,2.74c-9,1.59-18.54,2.87-27.73,4.11l-6.21.84h-.2m4.27-14.31a2.19,2.19,0,0,0-1.73.62c-1.4,1.44-1.29,5.37-1.18,8.84,0,.61,0,1.23,0,1.85l4.64-.63c7.21-1,14.61-2,21.81-3.12-2-.69-4.18-1.48-6.4-2.29a135,135,0,0,0-15.86-5.11,6.06,6.06,0,0,0-1.32-.16"/></svg>