<?xml version="1.0" encoding="utf-8"?>
<!-- Generator: Adobe Illustrator 16.0.0, SVG Export Plug-In . SVG Version: 6.00 Build 0)  -->
<!DOCTYPE svg PUBLIC "-//W3C//DTD SVG 1.1//EN" "http://www.w3.org/Graphics/SVG/1.1/DTD/svg11.dtd">
<svg version="1.1" id="Layer_1" xmlns="http://www.w3.org/2000/svg" xmlns:xlink="http://www.w3.org/1999/xlink" x="0px" y="0px"
	 width="500px" height="500px" viewBox="0 0 500 500" enable-background="new 0 0 500 500" xml:space="preserve">
<g id="Layer_1_copy_65">
	<g>
		<path fill="#986166" d="M465.455,361.591c0,14.366-10.816,26.015-24.158,26.015H70.125c-13.343,0-24.162-11.647-24.162-26.015
			V132.486c0-14.369,10.819-26.019,24.162-26.019h371.172c13.342,0,24.158,11.649,24.158,26.019V361.591z"/>
		<path fill="#3C2517" d="M441.297,390.668H70.125c-15.012,0-27.222-13.047-27.222-29.077V132.486
			c0-16.034,12.21-29.081,27.222-29.081h371.172c15.008,0,27.218,13.047,27.218,29.081v229.105
			C468.515,377.622,456.305,390.668,441.297,390.668z M70.125,109.53c-11.635,0-21.102,10.295-21.102,22.956v229.105
			c0,12.658,9.467,22.96,21.102,22.96h371.172c11.631,0,21.102-10.302,21.102-22.96V132.486c0-12.661-9.471-22.956-21.102-22.956
			L70.125,109.53L70.125,109.53z"/>
	</g>
	<g>
		<path fill="#604554" d="M356.936,340.014c0,12.615-9.917,22.848-22.155,22.848H94.141c-12.236,0-22.157-10.231-22.157-22.848
			V152.793c0-12.619,9.921-22.847,22.157-22.847H334.78c12.238,0,22.155,10.228,22.155,22.847V340.014z"/>
		<path fill="#3C2517" d="M334.779,365.924H94.141c-13.904,0-25.218-11.629-25.218-25.91V152.793
			c0-14.284,11.313-25.906,25.218-25.906H334.78c13.907,0,25.216,11.622,25.216,25.906v187.221
			C359.995,354.295,348.688,365.924,334.779,365.924z M94.141,133.008c-10.528,0-19.095,8.873-19.095,19.785v187.221
			c0,10.908,8.566,19.785,19.095,19.785H334.78c10.527,0,19.098-8.877,19.098-19.785V152.793c0-10.912-8.569-19.785-19.098-19.785
			H94.141z"/>
	</g>
	<g>
		<path fill="#F2DB7D" d="M446.123,194.046c0,12.616-10.232,22.847-22.848,22.847h-23.482c-12.619,0-22.847-10.231-22.847-22.847
			v-22.847c0-12.616,10.228-22.847,22.847-22.847h23.482c12.614,0,22.848,10.231,22.848,22.847V194.046L446.123,194.046z"/>
		<path fill="#3C2517" d="M423.275,219.956h-23.482c-14.285,0-25.906-11.625-25.906-25.91v-22.847
			c0-14.285,11.621-25.91,25.906-25.91h23.482c14.284,0,25.909,11.625,25.909,25.91v22.847
			C449.186,208.331,437.561,219.956,423.275,219.956z M399.793,151.414c-10.911,0-19.784,8.876-19.784,19.785v22.847
			c0,10.909,8.873,19.785,19.784,19.785h23.482c10.908,0,19.784-8.876,19.784-19.785v-22.847c0-10.908-8.876-19.785-19.784-19.785
			H399.793z"/>
	</g>
	<g>
		<g>
			<path fill="#BDBEC0" d="M406.663,248.306c0,3.331-2.696,6.033-6.026,6.033h-22.529c-3.326,0-6.033-2.702-6.033-6.033l0,0
				c0-3.33,2.707-6.026,6.033-6.026h22.529C403.967,242.28,406.663,244.976,406.663,248.306L406.663,248.306z"/>
			<path fill="#3C2517" d="M400.637,256.173h-22.529c-4.34,0-7.866-3.526-7.866-7.867c0-4.339,3.526-7.864,7.866-7.864h22.529
				c4.335,0,7.863,3.525,7.863,7.864C408.5,252.646,404.972,256.173,400.637,256.173z M378.106,244.115
				c-2.314,0-4.191,1.88-4.191,4.191c0,2.314,1.877,4.198,4.191,4.198h22.529c2.312,0,4.19-1.884,4.19-4.198
				c0-2.311-1.88-4.191-4.19-4.191H378.106z"/>
		</g>
		<g>
			<path fill="#BDBEC0" d="M449.661,247.036c0,3.331-2.703,6.034-6.032,6.034h-22.526c-3.334,0-6.029-2.703-6.029-6.034l0,0
				c0-3.33,2.695-6.029,6.029-6.029h22.526C446.958,241.007,449.661,243.706,449.661,247.036L449.661,247.036z"/>
			<path fill="#3C2517" d="M443.629,254.904h-22.526c-4.34,0-7.866-3.528-7.866-7.868c0-4.336,3.526-7.868,7.866-7.868h22.526
				c4.339,0,7.866,3.532,7.866,7.868C451.495,251.375,447.968,254.904,443.629,254.904z M421.103,242.845
				c-2.313,0-4.194,1.88-4.194,4.191s1.881,4.19,4.194,4.19h22.526c2.313,0,4.194-1.88,4.194-4.19c0-2.311-1.881-4.191-4.194-4.191
				H421.103z"/>
		</g>
		<g>
			<path fill="#BDBEC0" d="M406.663,273.376c0,3.33-2.696,6.028-6.026,6.028h-22.529c-3.326,0-6.033-2.698-6.033-6.028l0,0
				c0-3.334,2.707-6.028,6.033-6.028h22.529C403.967,267.348,406.663,270.042,406.663,273.376L406.663,273.376z"/>
			<path fill="#3C2517" d="M400.637,281.244h-22.529c-4.34,0-7.866-3.531-7.866-7.867c0-4.34,3.526-7.868,7.866-7.868h22.529
				c4.335,0,7.863,3.528,7.863,7.868C408.5,277.712,404.972,281.244,400.637,281.244z M378.106,269.182
				c-2.314,0-4.191,1.879-4.191,4.194c0,2.312,1.877,4.194,4.191,4.194h22.529c2.312,0,4.19-1.885,4.19-4.194
				c0-2.315-1.88-4.194-4.19-4.194H378.106z"/>
		</g>
		<g>
			<path fill="#BDBEC0" d="M449.661,272.107c0,3.328-2.703,6.027-6.032,6.027h-22.526c-3.334,0-6.029-2.699-6.029-6.027l0,0
				c0-3.332,2.695-6.03,6.029-6.03h22.526C446.958,266.077,449.661,268.775,449.661,272.107L449.661,272.107z"/>
			<path fill="#3C2517" d="M443.629,279.973h-22.526c-4.34,0-7.866-3.527-7.866-7.865c0-4.342,3.526-7.869,7.866-7.869h22.526
				c4.339,0,7.866,3.527,7.866,7.869C451.495,276.445,447.968,279.973,443.629,279.973z M421.103,267.912
				c-2.313,0-4.194,1.884-4.194,4.195c0,2.31,1.881,4.193,4.194,4.193h22.526c2.313,0,4.194-1.885,4.194-4.193
				c0-2.312-1.881-4.195-4.194-4.195H421.103z"/>
		</g>
		<g>
			<path fill="#BDBEC0" d="M406.663,298.125c0,3.331-2.696,6.029-6.026,6.029h-22.529c-3.326,0-6.033-2.698-6.033-6.029l0,0
				c0-3.326,2.707-6.025,6.033-6.025h22.529C403.967,292.1,406.663,294.798,406.663,298.125L406.663,298.125z"/>
			<path fill="#3C2517" d="M400.637,305.993h-22.529c-4.34,0-7.866-3.529-7.866-7.868c0-4.336,3.526-7.863,7.866-7.863h22.529
				c4.335,0,7.863,3.527,7.863,7.863C408.5,302.463,404.972,305.993,400.637,305.993z M378.106,293.934
				c-2.314,0-4.191,1.881-4.191,4.19c0,2.313,1.877,4.194,4.191,4.194h22.529c2.312,0,4.19-1.881,4.19-4.194
				c0-2.312-1.88-4.19-4.19-4.19H378.106z"/>
		</g>
		<g>
			<path fill="#BDBEC0" d="M449.661,296.857c0,3.33-2.703,6.029-6.032,6.029h-22.526c-3.334,0-6.029-2.699-6.029-6.029l0,0
				c0-3.33,2.695-6.027,6.029-6.027h22.526C446.958,290.83,449.661,293.527,449.661,296.857L449.661,296.857z"/>
			<path fill="#3C2517" d="M443.629,304.723h-22.526c-4.34,0-7.866-3.524-7.866-7.865c0-4.336,3.526-7.862,7.866-7.862h22.526
				c4.339,0,7.866,3.526,7.866,7.862C451.495,301.198,447.968,304.723,443.629,304.723z M421.103,292.667
				c-2.313,0-4.194,1.878-4.194,4.19c0,2.314,1.881,4.191,4.194,4.191h22.526c2.313,0,4.194-1.877,4.194-4.191
				c0-2.312-1.881-4.19-4.194-4.19H421.103z"/>
		</g>
		<g>
			<path fill="#BDBEC0" d="M406.663,324.15c0,3.328-2.696,6.025-6.026,6.025h-22.529c-3.326,0-6.033-2.697-6.033-6.025l0,0
				c0-3.33,2.707-6.032,6.033-6.032h22.529C403.967,318.118,406.663,320.82,406.663,324.15L406.663,324.15z"/>
			<path fill="#3C2517" d="M400.637,332.016h-22.529c-4.34,0-7.866-3.529-7.866-7.865c0-4.34,3.526-7.866,7.866-7.866h22.529
				c4.335,0,7.863,3.526,7.863,7.866C408.5,328.486,404.972,332.016,400.637,332.016z M378.106,319.956
				c-2.314,0-4.191,1.877-4.191,4.194c0,2.312,1.877,4.188,4.191,4.188h22.529c2.312,0,4.19-1.877,4.19-4.188
				c0-2.317-1.88-4.194-4.19-4.194H378.106z"/>
		</g>
		<g>
			<path fill="#BDBEC0" d="M449.661,322.877c0,3.33-2.703,6.032-6.032,6.032h-22.526c-3.334,0-6.029-2.702-6.029-6.032l0,0
				c0-3.327,2.695-6.029,6.029-6.029h22.526C446.958,316.848,449.661,319.55,449.661,322.877L449.661,322.877z"/>
			<path fill="#3C2517" d="M443.629,330.745h-22.526c-4.34,0-7.866-3.528-7.866-7.867c0-4.336,3.526-7.864,7.866-7.864h22.526
				c4.339,0,7.866,3.528,7.866,7.864C451.495,327.216,447.968,330.745,443.629,330.745z M421.103,318.686
				c-2.313,0-4.194,1.881-4.194,4.191c0,2.314,1.881,4.193,4.194,4.193h22.526c2.313,0,4.194-1.879,4.194-4.193
				c0-2.311-1.881-4.191-4.194-4.191H421.103z"/>
		</g>
	</g>
	<g>
		<path fill="#C7956D" d="M340.436,289.104c0,8.66-6.541,15.687-14.609,15.687l0,0c-8.068,0-14.604-7.024-14.604-15.687v-90.795
			c0-8.665,6.536-15.685,14.604-15.685l0,0c8.068,0,14.609,7.021,14.609,15.685V289.104z"/>
		<path fill="#3C2517" d="M325.825,307.852c-9.737,0-17.667-8.41-17.667-18.748v-90.795c0-10.337,7.93-18.748,17.667-18.748
			c9.744,0,17.672,8.411,17.672,18.748v90.795C343.497,299.441,335.569,307.852,325.825,307.852z M325.825,185.685
			c-6.363,0-11.542,5.663-11.542,12.623v90.795c0,6.961,5.179,12.623,11.542,12.623c6.369,0,11.548-5.662,11.548-12.623v-90.795
			C337.373,191.347,332.194,185.685,325.825,185.685z"/>
	</g>
</g>
</svg>
