<?xml version="1.0" encoding="utf-8"?>
<!-- Generator: Adobe Illustrator 16.0.0, SVG Export Plug-In . SVG Version: 6.00 Build 0)  -->
<!DOCTYPE svg PUBLIC "-//W3C//DTD SVG 1.1//EN" "http://www.w3.org/Graphics/SVG/1.1/DTD/svg11.dtd">
<svg version="1.1" id="Layer_1" xmlns="http://www.w3.org/2000/svg" xmlns:xlink="http://www.w3.org/1999/xlink" x="0px" y="0px"
	 width="500px" height="500px" viewBox="0 0 500 500" enable-background="new 0 0 500 500" xml:space="preserve">
<g id="Layer_1_copy_47">
	<g>
		<path fill="#BBE6FB" d="M292.08,24.335c0,3.566-2.895,6.46-6.46,6.46h-87.716c-3.571,0-6.465-2.895-6.465-6.46l0,0
			c0-3.568,2.894-6.46,6.465-6.46h87.716C289.188,17.875,292.08,20.768,292.08,24.335L292.08,24.335z"/>
		<path fill="#27140E" d="M285.62,33.289h-87.716c-4.94,0-8.958-4.017-8.958-8.953c0-4.938,4.018-8.955,8.958-8.955h87.716
			c4.937,0,8.953,4.017,8.953,8.955C294.573,29.271,290.557,33.289,285.62,33.289z M197.904,20.37c-2.187,0-3.968,1.78-3.968,3.965
			c0,2.188,1.781,3.965,3.968,3.965h87.716c2.187,0,3.963-1.778,3.963-3.965c0-2.186-1.776-3.965-3.963-3.965H197.904z"/>
	</g>
	<g>
		<path fill="#BBE6FB" d="M196.329,55.502c-3.569,0-6.464-2.892-6.464-6.459l0,0c0-3.566,2.895-6.459,6.464-6.459h87.713
			c3.569,0,6.46,2.894,6.46,6.459l0,0c0,3.567-2.891,6.459-6.46,6.459l-1.229,0.253c0,0,2.446,34.774,13.256,50.998
			c10.817,16.222,42.844,66.977,39.102,113.553l0.305,206.728c0,0,2.743,47.332-54.359,49.635l-39.91-0.222l-38.757-0.043
			c-58.474,1.694-54.36-49.636-54.36-49.636l0.304-206.714c-3.741-46.577,28.285-97.331,39.098-113.555
			c10.816-16.222,13.26-50.998,13.26-50.998L196.329,55.502L196.329,55.502z"/>
		<path fill="#27140E" d="M281.116,479.167c-0.009,0-0.015,0-0.019,0l-39.909-0.229l-38.747-0.034
			c-0.897,0.021-1.859,0.034-2.804,0.034c-18.143,0-32.108-5.156-41.502-15.33c-14.106-15.287-12.604-36.156-12.533-37.036
			l0.293-206.52c-3.477-43.175,23.266-90.554,39.513-114.934c8.635-12.945,11.793-38.77,12.612-47.12h-1.692
			c-4.939,0-8.956-4.017-8.956-8.954c0-4.938,4.017-8.955,8.956-8.955h87.713c4.938,0,8.957,4.017,8.957,8.955
			c0,4.441-3.252,8.138-7.501,8.835c0.766,7.929,3.896,34.359,12.645,47.493c16.256,24.37,42.996,71.737,39.513,115.136
			l0.314,206.521c0.039,0.657,0.966,19.509-12.647,34.524c-9.88,10.902-24.722,16.826-44.108,17.605
			C281.182,479.167,281.145,479.167,281.116,479.167z M202.375,473.909l38.832,0.043l39.863,0.222
			c17.97-0.729,31.615-6.108,40.556-15.968c12.224-13.485,11.368-30.849,11.357-31.028l-0.312-206.866
			c3.373-42.101-22.786-88.339-38.683-112.175c-11.047-16.583-13.567-50.758-13.668-52.205c-0.09-1.249,0.763-2.367,1.984-2.619
			l1.235-0.254c0.164-0.034,0.332-0.052,0.5-0.052c2.188,0,3.967-1.778,3.967-3.964c0-2.187-1.778-3.967-3.967-3.967h-87.713
			c-2.185,0-3.967,1.78-3.967,3.967c0,2.186,1.782,3.964,3.967,3.964h4.418c0.694,0,1.353,0.288,1.825,0.794
			c0.472,0.506,0.715,1.186,0.665,1.876c-0.104,1.447-2.619,35.625-13.676,52.207c-15.893,23.843-42.049,70.094-38.686,111.972
			L150.58,426.77c-0.024,0.395-1.373,19.839,11.254,33.488c8.409,9.086,21.129,13.693,37.802,13.693
			C200.532,473.952,201.448,473.938,202.375,473.909z"/>
	</g>
	<g>
		<path fill="#F3F3F3" d="M166.232,230.028h151.016v188.595c0,0,3.337,45.328-51.788,45.328c-55.129,0-47.564,0-47.564,0
			s-51.728,3.176-51.663-42.839L166.232,230.028L166.232,230.028z"/>
		<path fill="#27140E" d="M215.8,466.489c-7.866,0-27.551-1.401-40.507-14.371c-7.684-7.698-11.575-18.129-11.554-31.015V230.028
			c0-1.377,1.116-2.493,2.493-2.493h151.016c1.381,0,2.493,1.116,2.493,2.493v188.595c0.05,0.57,1.22,18.621-11.693,32.521
			c-9.43,10.151-23.759,15.297-42.588,15.297h-47.493C217.724,466.454,216.966,466.489,215.8,466.489z M168.726,232.523v188.589
			c-0.014,11.511,3.385,20.754,10.102,27.479c11.958,11.977,31.32,12.905,36.973,12.905c0.579,0,1.045-0.007,1.373-0.014
			c0.121-0.021,0.244-0.028,0.372-0.028h47.915c17.389,0,30.486-4.615,38.932-13.708c11.447-12.318,10.382-28.78,10.37-28.945
			l-0.008-186.277L168.726,232.523L168.726,232.523z"/>
	</g>
</g>
</svg>
