<?xml version="1.0" encoding="utf-8"?>
<!-- Generator: Adobe Illustrator 16.0.0, SVG Export Plug-In . SVG Version: 6.00 Build 0)  -->
<!DOCTYPE svg PUBLIC "-//W3C//DTD SVG 1.1//EN" "http://www.w3.org/Graphics/SVG/1.1/DTD/svg11.dtd">
<svg version="1.1" id="Layer_1" xmlns="http://www.w3.org/2000/svg" xmlns:xlink="http://www.w3.org/1999/xlink" x="0px" y="0px"
	 width="500px" height="500px" viewBox="0 0 500 500" enable-background="new 0 0 500 500" xml:space="preserve">
<g id="Layer_1_copy_92">
	<g>
		<path fill="#2C1D13" d="M343.731,110.706c-11.444-34.698-39.725-53.802-80.949-56.047c-14.792-0.796-29.64-1.315-44.445-1.106
			c-66.629,0.901-106.426,58.386-87.42,126.082c10.969,39.088,22.017,78.166,33.271,117.19c1.606,5.562,4.555,10.823,6.886,16.229
			c24.535-12.232,57.751-35.647,60.373-45.568c-1.173-2.076-57.134-23.234-58.12-25.436c-7.214-9.65-12.344-20.885-14.718-33.081
			c-1.628,1.144-3.462,1.85-5.428,1.85c-6.575,0-11.904-7.185-11.904-16.04s5.329-16.036,11.904-16.036
			c1.827,0,3.538,0.598,5.089,1.588c3.041-18.404,12.304-34.769,25.619-46.956c5.059-7.077,11-12.797,17.691-16.511
			c0.545,1.083,1.091,2.182,1.632,3.265c11.452-5.709,24.408-8.944,38.158-8.944c40.866,0,74.919,28.421,82.634,66.131
			c0.9-0.295,1.838-0.497,2.811-0.497c6.575,0,11.91,7.181,11.91,16.036c0,8.851-5.335,16.036-11.91,16.036
			c-0.9,0-1.771-0.161-2.611-0.415c-3.277,17.407-64.273,48.521-76.851,60.253c4.251,3.254,36.111,38.867,58.191,29.875
			c10.765-21.477,19.507-37.102,25.854-58.958c6.382-21.954,13.75-49.669,17.652-71.803
			C352.31,149.409,349.697,128.8,343.731,110.706z"/>
		<path fill="#281912" d="M169.672,316.884l-1.173-2.725c-0.725-1.679-1.51-3.345-2.294-5.011c-1.745-3.701-3.55-7.527-4.704-11.549
			c-9.83-34.074-20.094-70.226-33.282-117.208c-9.661-34.414-4.613-68.316,13.851-93.02c17.325-23.188,44.397-36.193,76.229-36.623
			c2.23-0.03,4.461-0.045,6.695-0.045c11.212,0,23.266,0.366,37.941,1.158c42.856,2.331,71.716,22.376,83.455,57.963
			c6.616,20.06,8.54,40.837,5.42,58.505c-4.14,23.441-11.922,52.143-17.725,72.101c-5.492,18.906-12.886,33.477-21.449,50.344
			c-1.485,2.931-3.015,5.944-4.591,9.082l-0.472,0.947l-0.976,0.398c-2.706,1.099-5.646,1.65-8.754,1.65c-0.004,0-0.004,0-0.004,0
			c-18.891,0-40.024-20.306-49.054-28.978c-1.427-1.371-2.658-2.558-3.141-2.922l-2.627-2.015l2.421-2.261
			c4.354-4.062,13.906-10.125,24.97-17.142c19.54-12.396,49.071-31.134,51.036-41.583l0.579-3.068l2.983,0.904
			c0.658,0.198,1.249,0.295,1.802,0.295c4.936,0,9.108-6.061,9.108-13.234c0-7.169-4.174-13.233-9.108-13.233
			c-0.57,0-1.206,0.116-1.936,0.355l-2.989,0.982l-0.627-3.082c-7.573-37.019-41.178-63.889-79.892-63.889
			c-12.977,0-25.395,2.911-36.906,8.649l-2.507,1.248l-1.524-3.052c-5.148,3.367-9.938,8.123-14.265,14.171l-0.39,0.441
			c-13.105,11.994-21.894,28.1-24.744,45.347l-0.694,4.192l-3.584-2.29c-6.168-3.95-12.681,3.194-12.681,12.086
			c0,9.016,6.718,16.249,12.932,11.899l3.53-2.477l0.826,4.237c2.238,11.522,6.975,22.208,14.081,31.761
			c2.44,1.61,17.859,7.905,29.188,12.537c27.174,11.096,28.406,11.873,29.254,13.373l0.558,0.992l-0.291,1.1
			c-3.068,11.621-38.67,35.811-61.828,47.357L169.672,316.884z M141.109,205.53c9.729,34.526,17.893,63.191,25.771,90.516
			c1.035,3.588,2.665,7.052,4.39,10.718c0.39,0.819,0.773,1.639,1.155,2.461c24.013-12.396,50.237-31.672,55.486-40.598
			c-4.371-2.118-15.867-6.814-25.398-10.705c-27.808-11.354-30.667-12.792-31.575-14.387c-6.863-9.24-11.668-19.47-14.302-30.458
			c-1.133,0.362-2.282,0.542-3.456,0.542C148.189,213.619,143.77,210.417,141.109,205.53z M251.6,268.811
			c0.33,0.312,0.688,0.656,1.072,1.03c7.805,7.495,28.537,27.416,45.171,27.416h0.004c2.011,0,3.919-0.299,5.687-0.89
			c1.405-2.799,2.776-5.495,4.11-8.121c8.782-17.307,15.722-30.975,21.063-49.375c2.821-9.695,6.109-21.468,9.214-33.678
			c-2.84,4.184-7.096,6.759-11.784,6.479c-4.744,11.448-25.889,25.574-52.721,42.602C264.34,260.029,256.305,265.126,251.6,268.811z
			 M224.994,56.306c-2.208,0-4.413,0.015-6.616,0.048c-30.054,0.408-55.561,12.614-71.825,34.374
			c-17.407,23.298-22.126,55.423-12.938,88.148c1.682,5.993,3.313,11.814,4.906,17.471c-0.03-0.516-0.049-1.039-0.049-1.565
			c0-10.391,6.603-18.838,14.709-18.838c1.009,0,2.007,0.134,2.988,0.403c3.595-17.045,12.599-32.845,25.612-44.838
			c5.47-7.588,11.673-13.334,18.442-17.089l2.552-1.416l1.711,3.411c11.582-5.328,23.972-8.025,36.884-8.025
			c40.414,0,75.621,27.446,84.774,65.652c7.929-0.493,14.454,7.05,15.291,16.734c1.868-8.04,3.551-16.002,4.857-23.415
			c2.963-16.776,1.105-36.585-5.228-55.778c-10.95-33.215-38.075-51.93-78.435-54.126C248.062,56.672,236.102,56.306,224.994,56.306
			z"/>
	</g>
	<g>
		<g>
			<path fill="#FCC393" d="M208.779,268.523c0,0,1.419,17.918-8.272,23.604c-9.695,5.689-15.407,75.251-15.407,75.251
				l116.689,21.158l-12.732-76.335l-13.981-23.426c0,0-4.621-7.528-2.021-20.254C275.652,255.796,208.687,258.296,208.779,268.523z"
				/>
		</g>
		<g>
			<path fill="#281912" d="M305.207,392L182.1,369.68l0.209-2.533c1.367-16.654,6.62-71.47,16.779-77.437
				c6.684-3.919,7.248-16.462,6.896-20.968l-0.006-0.194c-0.008-1.03,0.299-2.581,1.812-4.108
				c5.747-5.803,25.787-7.351,36.716-7.351c9.137,0,25.167,0.871,29.942,6.726c1.27,1.556,1.737,3.379,1.348,5.271
				c-2.315,11.348,1.511,17.969,1.679,18.243l14.258,23.892l0.086,0.519L305.207,392z M188.104,365.077l110.266,19.991
				l-11.989-71.883L272.67,290.21c-0.195-0.315-5.148-8.597-2.361-22.248c0.028-0.149,0.06-0.284-0.197-0.603
				c-1.838-2.254-10.631-4.67-25.604-4.67c-19.679,0-31.761,3.791-32.912,5.889c0.152,2.5,0.825,19.812-9.67,25.967
				C196.85,297.527,190.895,332.961,188.104,365.077z"/>
		</g>
	</g>
	<g>
		<g>
			<path fill="#FCC393" d="M326.812,177.209c-0.972,0-1.908,0.202-2.81,0.497c-7.715-37.709-41.769-66.131-82.634-66.131
				c-41.943,0-76.622,29.957-83.101,69.149c-1.551-0.997-3.262-1.591-5.089-1.591c-6.575,0-11.904,7.181-11.904,16.036
				s5.329,16.036,11.904,16.036c1.966,0,3.8-0.702,5.428-1.845c7.409,38.087,41.623,66.904,82.762,66.904
				c41.314,0,75.624-29.068,82.832-67.401c0.84,0.258,1.711,0.418,2.61,0.418c6.576,0,11.911-7.185,11.911-16.036
				C338.725,184.387,333.39,177.209,326.812,177.209z"/>
		</g>
		<g>
			<path fill="#281912" d="M241.37,279.066c-40.504,0-75.554-27.375-84.733-65.604c-1.133,0.362-2.282,0.545-3.456,0.545
				c-8.106,0-14.709-8.451-14.709-18.838c0-10.39,6.603-18.838,14.709-18.838c1.009,0,2.002,0.135,2.985,0.4
				c8.261-39.588,43.526-67.958,85.204-67.958c40.414,0,75.621,27.45,84.773,65.66c8.472-0.549,15.38,8.145,15.38,18.812
				c0,10.562-6.875,19.159-15.121,18.831C317.749,251.059,282.432,279.066,241.37,279.066z M160.537,204.592l0.821,4.233
				c7.286,37.452,40.935,64.639,80.012,64.639c39.305,0,72.982-27.386,80.078-65.117l0.579-3.067l2.983,0.904
				c0.658,0.199,1.249,0.295,1.803,0.295c4.935,0,9.107-6.06,9.107-13.233c0-7.174-4.174-13.234-9.107-13.234
				c-0.571,0-1.207,0.116-1.937,0.359l-2.989,0.979l-0.627-3.083c-7.573-37.022-41.178-63.889-79.892-63.889
				c-40.152,0-73.939,28.093-80.336,66.803l-0.694,4.192l-3.584-2.294c-6.168-3.941-12.681,3.198-12.681,12.09
				c0,9.016,6.718,16.249,12.932,11.896L160.537,204.592z"/>
		</g>
	</g>
	<g>
		<path fill="#141211" d="M211.032,193.238c0,6.407-4.158,11.601-9.281,11.601c-5.114,0-9.269-5.193-9.269-11.601
			c0-6.404,4.154-11.601,9.269-11.601C206.874,181.637,211.032,186.834,211.032,193.238z"/>
	</g>
	<g>
		<path fill="#FFFFFA" d="M203.672,193.246c0,2.227-1.675,4.035-3.744,4.035c-2.065,0-3.739-1.808-3.739-4.035
			c0-2.234,1.674-4.042,3.739-4.042C201.997,189.203,203.672,191.011,203.672,193.246z"/>
	</g>
	<g>
		<path fill="#141211" d="M286.602,193.238c0,6.407-4.156,11.601-9.274,11.601c-5.122,0-9.274-5.193-9.274-11.601
			c0-6.404,4.152-11.601,9.274-11.601C282.445,181.637,286.602,186.834,286.602,193.238z"/>
	</g>
	<g>
		<path fill="#FFFFFA" d="M279.248,193.246c0,2.227-1.682,4.035-3.744,4.035c-2.068,0-3.744-1.808-3.744-4.035
			c0-2.234,1.676-4.042,3.744-4.042C277.566,189.203,279.248,191.011,279.248,193.246z"/>
	</g>
	<g>
		<path fill="#834C1F" d="M232.519,214.388c0,0,12.222,1.82,13.906-5.006c1.688-6.822,0-20.179,0-20.179s7.581,10.173,3.793,22.458
			C246.425,223.938,226.679,214.284,232.519,214.388z"/>
	</g>
	<g opacity="0.7">
		<g>
			<path fill="#F9A880" d="M203.672,218.715c0,4.147-5.234,7.502-11.71,7.502c-6.456,0-11.701-3.355-11.701-7.502
				c0-4.151,5.245-7.51,11.701-7.51C198.438,211.205,203.672,214.564,203.672,218.715z"/>
		</g>
	</g>
	<g opacity="0.7">
		<g>
			<ellipse fill="#F9A880" cx="293.205" cy="217.901" rx="11.708" ry="7.506"/>
		</g>
	</g>
	<g>
		<path fill="#FFFFFF" d="M216.505,229.4c0,0,5.481,21.382,24.865,20.471c19.38-0.908,26.681-20.471,26.681-20.471
			s-8.561,10.249-26.681,10.249C222.752,239.649,216.505,229.4,216.505,229.4z"/>
	</g>
	<g>
		<path fill="#301E12" d="M188.45,179.93c0,0,4.215-5.915,12.226-5.231c8.006,0.68,8.847,2.275,9.272-2.051
			c0.419-4.319-3.374-5.227-9.272-4.542C194.78,168.785,183.398,181.301,188.45,179.93z"/>
	</g>
	<g>
		<path fill="#301E12" d="M291.626,179.93c0,0-4.211-5.915-12.218-5.231c-8.008,0.68-8.852,2.275-9.27-2.051
			c-0.427-4.319,3.373-5.227,9.27-4.542C285.309,168.785,296.686,181.301,291.626,179.93z"/>
	</g>
	<g>
		<path fill="#FAC441" d="M198.583,295.945c0,0-10.405,44.971,36.914,43.453c53.321-1.703,40.467-28.422,41.829-46.85
			c0,0-4.883-0.918,39.475,9.318c44.355,10.238,58.688,22.521,65.506,107.82c3.419,24.568-33.431,18.427-33.431,18.427
			l-221.098,1.468c0,0-31.396,7.401-24.569-27.4C110.036,367.379,105.757,296.809,198.583,295.945z"/>
		<path fill="#281912" d="M121.24,433.042c-7.537,0-13.499-2.409-17.25-6.968c-4.461-5.414-5.646-13.637-3.531-24.432
			c0.879-4.457,1.576-9.599,2.321-15.039c5.024-36.91,12.627-92.688,95.78-93.457c0.008,0,0.011,0,0.022,0
			c0.849,0,1.651,0.386,2.183,1.047c0.537,0.664,0.738,1.547,0.549,2.38c-0.042,0.18-4.023,18.214,5.26,29.86
			c5.396,6.77,14.352,10.202,26.617,10.202c0.725,0,1.46-0.011,2.212-0.036c17.587-0.562,28.899-3.859,34.598-10.084
			c5.672-6.203,5.174-15.018,4.688-23.543c-0.184-3.246-0.373-6.594-0.213-9.752c-0.102-0.347-0.136-0.717-0.084-1.087
			c0.198-1.383,1.396-2.405,2.789-2.405c0.172,0,0.488,0.037,0.664,0.066c0.229,0.044,0.444,0.112,0.646,0.205
			c1.722,0.456,9.033,2.238,38.935,9.135c47.183,10.893,60.919,25.848,67.674,110.326c0.812,5.811-0.418,10.739-3.68,14.486
			c-5.507,6.32-15.609,7.647-23.119,7.647c-4.812,0-8.635-0.527-9.637-0.681l-220.581,1.465
			C127.177,432.567,124.543,433.042,121.24,433.042z M195.258,298.812c-75.15,2.129-81.95,51.996-86.93,88.552
			c-0.752,5.522-1.465,10.741-2.369,15.354c-1.782,9.076-0.986,15.733,2.357,19.799c3.348,4.068,8.877,4.922,12.924,4.922
			c3.336,0,5.873-0.58,5.898-0.589c0.203-0.041,0.416-0.066,0.621-0.069l221.098-1.469c0.119-0.004,0.317,0.012,0.479,0.037
			c0.037,0.008,3.957,0.644,8.968,0.644c6.344,0,14.772-0.99,18.894-5.724c2.179-2.504,2.944-5.838,2.339-10.197
			c-6.833-85.395-21.075-95.717-63.365-105.473c-18.17-4.197-30.432-7.059-36.152-8.444c0.021,2.073,0.14,4.247,0.271,6.502
			c0.521,9.235,1.112,19.7-6.153,27.64c-6.771,7.398-19.376,11.287-38.551,11.904c-0.814,0.025-1.606,0.037-2.391,0.037
			c-14.07,0-24.51-4.151-31.018-12.34C193.812,319.387,194.413,305.287,195.258,298.812z"/>
	</g>
	<g>
		<path fill="#5C2818" d="M162.864,300.822c-57.118,16.162-54.844,72.012-60.675,101.748c-6.826,34.803,24.565,27.4,24.565,27.4
			l45.869-0.307L162.864,300.822z"/>
		<path fill="#281912" d="M120.22,433.43L120.22,433.43c-7.535,0-13.499-2.408-17.25-6.968c-4.458-5.417-5.648-13.637-3.53-24.435
			c0.874-4.453,1.576-9.594,2.316-15.034c4.293-31.511,10.174-74.673,60.347-88.87c0.808-0.23,1.674-0.082,2.365,0.4
			c0.691,0.481,1.128,1.244,1.192,2.084l9.755,128.849c0.06,0.771-0.205,1.538-0.729,2.11c-0.53,0.57-1.271,0.896-2.047,0.898
			l-45.575,0.307C126.157,432.957,123.522,433.43,120.22,433.43z M160.335,304.514c-43.615,14.168-49.045,53.977-53.027,83.234
			c-0.755,5.525-1.465,10.745-2.369,15.363c-1.778,9.066-0.986,15.729,2.357,19.794c3.349,4.067,8.874,4.925,12.924,4.925l0,0
			c3.337,0,5.873-0.579,5.899-0.587c0.202-0.049,0.411-0.074,0.616-0.074l42.866-0.284L160.335,304.514z"/>
	</g>
	<g>
		<path fill="#5C2818" d="M323.847,428.664l24.005-0.16c0,0,36.852,6.143,33.437-18.427c-6.818-85.298-21.151-97.587-65.51-107.82
			L323.847,428.664z"/>
		<path fill="#281912" d="M357.282,431.985c-4.812,0-8.64-0.53-9.641-0.681l-23.776,0.156c-0.008,0-0.012,0-0.02,0
			c-1.479,0-2.702-1.146-2.798-2.622l-8.066-126.403c-0.057-0.881,0.311-1.74,0.981-2.315c0.678-0.575,1.585-0.792,2.443-0.595
			c47.182,10.888,60.919,25.848,67.671,110.33c0.813,5.807-0.415,10.737-3.682,14.481
			C374.895,430.659,364.788,431.985,357.282,431.985z M347.852,425.702c0.157,0,0.312,0.011,0.46,0.036
			c0.036,0.005,3.96,0.643,8.972,0.643c6.344,0,14.771-0.989,18.89-5.724c2.184-2.503,2.948-5.839,2.344-10.196
			c-6.633-82.876-20.248-95.041-59.701-104.605l7.659,119.988l21.359-0.142C347.841,425.702,347.844,425.702,347.852,425.702z"/>
	</g>
	<g>
		<path fill="#2C1D13" d="M130.917,181.607c-19.006-67.692,20.791-125.178,87.42-126.082c14.806-0.209,29.653,0.314,44.445,1.109
			c41.226,2.242,69.505,21.345,80.949,56.043c5.966,18.098,6.594,45.656,5.318,57.141c-22.79-10.502-27.079,12.512-27.079,12.512
			c-24.163-15.845-70.914-41.606-97.997-59.196c5.5,18.793,32.717,30.114,32.717,32.916c-2.402,0.953-42.683-12.482-53.021-33.159
			c-17.041,9.449-39.111,37.328-44.099,62.574C159.573,185.467,151.749,162.339,130.917,181.607z"/>
	</g>
	<g>
		<path fill="#B77329" d="M248.861,361.46c0,3.64-2.951,6.584-6.587,6.584l0,0c-3.632,0-6.58-2.944-6.58-6.584l0,0
			c0-3.635,2.948-6.584,6.58-6.584l0,0C245.91,354.876,248.861,357.826,248.861,361.46L248.861,361.46z"/>
		<path fill="#281912" d="M242.274,369.913c-4.659,0-8.448-3.793-8.448-8.452s3.789-8.447,8.448-8.447
			c4.663,0,8.455,3.788,8.455,8.447S246.938,369.913,242.274,369.913z M242.274,356.745c-2.597,0-4.712,2.114-4.712,4.716
			s2.115,4.716,4.712,4.716c2.604,0,4.718-2.114,4.718-4.716S244.878,356.745,242.274,356.745z"/>
	</g>
	<g>
		<path fill="#B77329" d="M248.861,415.605c0,3.644-2.951,6.584-6.587,6.584l0,0c-3.632,0-6.58-2.94-6.58-6.584l0,0
			c0-3.631,2.948-6.58,6.58-6.58l0,0C245.91,409.025,248.861,411.975,248.861,415.605L248.861,415.605z"/>
		<path fill="#281912" d="M242.274,424.057c-4.659,0-8.448-3.793-8.448-8.451c0-4.654,3.789-8.447,8.448-8.447
			c4.663,0,8.455,3.793,8.455,8.447C250.729,420.264,246.938,424.057,242.274,424.057z M242.274,410.895
			c-2.597,0-4.712,2.114-4.712,4.711c0,2.601,2.115,4.719,4.712,4.719c2.604,0,4.718-2.118,4.718-4.719
			C246.992,413.009,244.878,410.895,242.274,410.895z"/>
	</g>
	<g>
		<path fill="#FFFFFF" d="M213.711,310.977c0,3.353-2.586,6.071-5.78,6.071c-3.197,0-5.784-2.72-5.784-6.071
			c0-3.351,2.587-6.066,5.784-6.066C211.125,304.91,213.711,307.626,213.711,310.977z"/>
	</g>
	<g>
		<ellipse fill="#FFFFFF" cx="219.493" cy="315.89" rx="5.782" ry="6.071"/>
	</g>
	<g>
		<ellipse fill="#FFFFFF" cx="198.585" cy="302.256" rx="5.781" ry="6.067"/>
	</g>
	<g>
		<path fill="#FFFFFF" d="M236.838,318.936c0,3.352-2.59,6.066-5.784,6.066c-3.194,0-5.778-2.716-5.778-6.066
			c0-3.354,2.584-6.072,5.778-6.072C234.248,312.863,236.838,315.581,236.838,318.936z"/>
	</g>
	<g>
		<path fill="#FFFFFF" d="M248.401,318.936c0,3.352-2.589,6.066-5.78,6.066c-3.194,0-5.783-2.716-5.783-6.066
			c0-3.354,2.589-6.072,5.783-6.072C245.812,312.864,248.401,315.581,248.401,318.936z"/>
	</g>
	<g>
		<ellipse fill="#FFFFFF" cx="254.184" cy="317.048" rx="5.781" ry="6.071"/>
	</g>
	<g>
		<path fill="#FFFFFF" d="M271.527,313.797c0,3.352-2.588,6.072-5.782,6.072c-3.19,0-5.78-2.721-5.78-6.072s2.59-6.07,5.78-6.07
			C268.939,307.727,271.527,310.447,271.527,313.797z"/>
	</g>
	<g>
		<ellipse fill="#FFFFFF" cx="276.133" cy="307.727" rx="5.782" ry="6.07"/>
	</g>
	<g>
		<ellipse fill="#FFFFFF" cx="284.107" cy="298.599" rx="5.781" ry="6.07"/>
	</g>
	<g>
		<g>
			<g>
				<ellipse fill="#FAA625" cx="308.383" cy="291.863" rx="8.971" ry="15.919"/>
			</g>
			<g>
				<path fill="#27140E" d="M308.382,308.014c-5.073,0-9.201-7.244-9.201-16.15c0-8.907,4.128-16.155,9.201-16.155
					c5.075,0,9.207,7.248,9.207,16.155C317.589,300.77,313.457,308.014,308.382,308.014z M308.382,276.17
					c-4.819,0-8.738,7.039-8.738,15.691c0,8.648,3.919,15.686,8.738,15.686c4.82,0,8.74-7.036,8.74-15.686
					C317.122,283.209,313.202,276.17,308.382,276.17z"/>
			</g>
		</g>
		<g>
			<g>
				<path fill="#6D7EBE" d="M299.094,336.432c0-11.348,0-22.689,0-34.033c6.371,0,12.749,0,19.123,0c0,10.925,0,22.852,0,33.775
					L299.094,336.432z"/>
			</g>
			<g>
				<path fill="#27140E" d="M299.094,338.053c-0.425,0-0.836-0.168-1.144-0.468c-0.311-0.306-0.481-0.72-0.481-1.153v-34.033
					c0-0.896,0.729-1.625,1.625-1.625h19.123c0.893,0,1.621,0.729,1.621,1.625v33.775c0,0.885-0.714,1.613-1.599,1.621
					l-19.123,0.258C299.109,338.053,299.102,338.053,299.094,338.053z M300.716,304.021v30.763l15.875-0.214v-30.549H300.716z"/>
			</g>
		</g>
		<g>
			<g>
				<rect x="223.716" y="360.044" fill="#894620" width="169.977" height="61.091"/>
			</g>
			<g>
				<path fill="#27140E" d="M393.691,422.76H223.716c-0.896,0-1.624-0.729-1.624-1.625v-61.091c0-0.896,0.728-1.622,1.624-1.622
					h169.977c0.896,0,1.625,0.727,1.625,1.622v61.091C395.316,422.032,394.588,422.76,393.691,422.76z M225.342,419.514h166.725
					v-57.849H225.342V419.514z"/>
			</g>
		</g>
		<g>
			<g>
				<path fill="#F0516C" d="M241.621,336.327c-11.833-0.504-23.603-0.941-26.558,7.435c0,5.631,0,12.465,0,19.118
					c0,6.367-1.479,14.031,3.146,16.499c6.531,2.5,17.258-10.756,21.286-11.186c16.222-1.723,22.499,12.759,33.995,12.748
					c7.203-0.008,15.953-9.4,25.495-11.684c21.517-5.156,30.654,12.475,45.684,11.684c10.606-0.553,19.585-12.685,29.743-12.748
					c11.16-0.066,20.736,14.877,27.622,12.748c6.886-2.127,6.19-39.967-7.436-44.614
					C389.383,334.544,241.621,336.327,241.621,336.327z"/>
			</g>
			<g>
				<path fill="#27140E" d="M400.626,382.775L400.626,382.775c-3.546,0-7.125-2.672-11.27-5.762
					c-4.523-3.373-9.653-7.195-14.869-7.195h-0.063c-4.65,0.025-9.169,2.93-13.959,6.004c-4.928,3.169-10.022,6.441-15.714,6.74
					c-6.804,0.354-12.307-2.705-18.136-5.955c-5.889-3.28-11.975-6.674-19.94-6.674c-2.354,0-4.812,0.303-7.312,0.9
					c-4.268,1.023-8.444,3.6-12.475,6.087c-4.705,2.897-9.146,5.638-13.398,5.646c-5.567,0-9.834-2.948-14.348-6.071
					c-4.854-3.353-9.871-6.821-17.008-6.821c-0.803,0-1.636,0.044-2.47,0.135c-1.039,0.11-3.766,2.297-5.955,4.051
					c-4.356,3.496-9.299,7.455-13.727,7.455c-0.833,0-1.625-0.142-2.354-0.416c-0.063-0.027-0.126-0.058-0.187-0.088
					c-4.625-2.47-4.367-8.425-4.117-14.182c0.056-1.249,0.112-2.541,0.112-3.749v-19.118c0-0.186,0.03-0.365,0.093-0.541
					c2.721-7.707,11.624-8.746,19.974-8.746c2.717,0,5.598,0.119,8.142,0.229c2.025-0.026,66.64-0.792,110.973-0.792
					c39.929,0,41.729,0.616,42.504,0.882c9.074,3.094,13.001,18.674,12.811,31.844c-0.062,4.282-0.714,14.403-5.421,15.855
					C401.911,382.678,401.275,382.775,400.626,382.775z M374.487,366.572c6.291,0,11.878,4.166,16.81,7.839
					c3.526,2.63,6.859,5.118,9.329,5.118l0,0c0.332,0,0.635-0.045,0.93-0.139c1.229-0.381,3.017-4.606,3.132-12.805
					c0.093-6.277-0.842-12.845-2.561-18.012c-1.359-4.1-3.862-9.285-8.055-10.713c-0.945-0.262-7.63-0.705-41.453-0.705
					c-44.801,0-110.322,0.779-110.98,0.791c-0.025,0-0.056,0-0.09-0.004c-2.518-0.104-5.379-0.229-8.044-0.229
					c-10.039,0-15.098,1.898-16.82,6.333v18.83c0,1.279-0.056,2.604-0.115,3.892c-0.213,4.92-0.415,9.567,2.315,11.125
					c0.333,0.115,0.696,0.172,1.1,0.172c3.287,0,7.951-3.735,11.698-6.738c3.159-2.538,5.652-4.536,7.644-4.749
					c0.945-0.101,1.891-0.149,2.81-0.149c8.148,0,13.835,3.93,18.853,7.397c4.264,2.946,7.943,5.487,12.486,5.487
					c3.344,0,7.404-2.502,11.709-5.16c4.252-2.622,8.653-5.334,13.425-6.479c2.746-0.656,5.458-0.988,8.065-0.988
					c8.812,0,15.562,3.762,21.521,7.086c5.141,2.861,9.994,5.567,15.485,5.567c0.299,0,0.598-0.008,0.899-0.022
					c4.832-0.25,9.558-3.291,14.131-6.225c4.962-3.189,10.099-6.494,15.691-6.523h0.083V366.572z"/>
			</g>
		</g>
		<g>
			<g>
				<path fill="#623214" d="M393.691,389.512c0,12.747,0,25.496,0,38.243c5.555,1.528,12.399,1.76,15.935,5.311
					c2.051,3.968,2.533,9.505,2.126,15.935c-68.697,0-137.398,0-206.096,0c-1.958-14.706,3.956-21.539,18.06-20.183
					c0-13.458,0-26.913,0-40.369c8.71-4.118,13.683-6.531,22.31-5.314c8.922,1.265,15.755,9.054,24.436,9.562
					c13.638,0.808,25.884-10.883,40.369-9.562c14.261,1.31,19.036,10.89,35.057,9.562
					C360.898,391.458,377.159,374.312,393.691,389.512z"/>
			</g>
			<g>
				<path fill="#27140E" d="M411.752,450.621H205.656c-0.814,0-1.498-0.603-1.607-1.405c-1.039-7.789,0.09-13.624,3.348-17.346
					c2.813-3.214,7.181-4.842,12.98-4.842c0.553,0,1.128,0.011,1.715,0.044v-38.624c0-0.628,0.365-1.197,0.934-1.466l0.313-0.148
					c7.178-3.396,11.919-5.639,18.427-5.639c1.436,0,2.903,0.111,4.487,0.332c4.584,0.649,8.567,2.861,12.415,4.998
					c3.982,2.218,7.75,4.306,11.887,4.549c0.418,0.025,0.84,0.041,1.266,0.041c5.791,0,11.365-2.258,17.27-4.645
					c6.153-2.488,12.521-5.066,19.421-5.066c0.829,0,1.655,0.041,2.466,0.111c6.583,0.606,11.201,2.873,15.666,5.066
					c4.834,2.372,9.403,4.613,16.286,4.613h0.004c0.911,0,1.86-0.04,2.82-0.114c4.577-0.382,9.329-2.339,14.358-4.417
					c5.996-2.473,12.198-5.029,18.617-5.029c5.918,0,11.176,2.188,16.062,6.682c0.333,0.307,0.526,0.74,0.526,1.195v36.98
					c1.157,0.275,2.377,0.516,3.563,0.751c4.428,0.871,9.005,1.771,11.896,4.678c0.114,0.116,0.216,0.25,0.291,0.4
					c2.021,3.907,2.774,9.396,2.305,16.782C413.318,449.96,412.607,450.621,411.752,450.621z M207.102,447.375h203.111
					c0.243-5.854-0.385-10.233-1.913-13.335c-2.227-2.072-6.198-2.854-10.047-3.613c-1.659-0.324-3.374-0.664-4.991-1.104
					c-0.703-0.193-1.195-0.833-1.195-1.565v-37.522c-4.105-3.598-8.478-5.35-13.339-5.35c-5.774,0-11.676,2.432-17.381,4.785
					c-5.036,2.077-10.244,4.227-15.325,4.645c-1.051,0.086-2.089,0.131-3.09,0.131h-0.004c-7.634,0-12.76-2.514-17.718-4.949
					c-4.393-2.156-8.545-4.196-14.53-4.741c-0.71-0.063-1.44-0.103-2.17-0.103c-6.27,0-12.338,2.455-18.205,4.828
					c-5.932,2.397-12.062,4.879-18.484,4.879c-0.489,0-0.976-0.015-1.457-0.041c-4.877-0.287-9.143-2.659-13.271-4.953
					c-3.755-2.086-7.301-4.059-11.29-4.618c-1.436-0.206-2.754-0.304-4.036-0.304c-5.604,0-9.982,1.988-16.424,5.033v39.343
					c0,0.455-0.197,0.893-0.534,1.202c-0.341,0.307-0.793,0.455-1.244,0.414c-6.471-0.627-11.104,0.58-13.728,3.576
					C207.407,436.782,206.489,441.277,207.102,447.375z"/>
			</g>
		</g>
		<g>
			<g>
				<path fill="#4E4E4E" d="M223.844,428.817c-14.104-1.356-20.015,5.477-18.057,20.183c68.695,0,137.395,0,206.092,0
					c0.411-6.43-0.071-11.967-2.122-15.935c-3.534-3.551-10.383-3.781-15.938-5.311L223.844,428.817z"/>
			</g>
			<g>
				<path fill="#27140E" d="M411.879,450.621H205.787c-0.814,0-1.506-0.603-1.615-1.405c-1.034-7.789,0.094-13.629,3.355-17.346
					c3.336-3.815,8.833-5.389,16.387-4.675l169.894-1.062c0.156-0.008,0.299,0.016,0.439,0.057c1.503,0.41,3.161,0.735,4.761,1.054
					c4.433,0.871,9.009,1.771,11.896,4.678c0.12,0.116,0.214,0.25,0.292,0.4c2.024,3.906,2.775,9.396,2.302,16.781
					C413.444,449.96,412.735,450.621,411.879,450.621z M207.229,447.375h203.11c0.242-5.854-0.385-10.233-1.909-13.335
					c-2.229-2.072-6.202-2.854-10.046-3.613c-1.589-0.31-3.226-0.631-4.774-1.049l-169.758,1.064c-0.053,0-0.104-0.005-0.161-0.009
					c-6.472-0.627-11.104,0.58-13.727,3.576C207.535,436.782,206.615,441.277,207.229,447.375z"/>
			</g>
		</g>
		<g>
			<g>
				<path fill="#FDD71E" d="M306.245,255.727c13.642,6.475,31.354,37.254,7.438,44.621c7.162-6-0.069-16.906-5.312-20.187
					c-1.139,5.233-5.693,7.053-7.436,11.687c-0.817,5.065,1.498,6.997,4.248,8.5c-8.611,0.055-14.598-8.763-13.812-17
					C292.384,272.783,308.39,267.454,306.245,255.727z"/>
			</g>
			<g>
				<path fill="#27140E" d="M305.105,301.968c-4.023,0-7.832-1.745-10.719-4.924c-3.371-3.702-5.102-8.885-4.63-13.851
					c0.511-5.336,4.285-9.312,7.937-13.155c4.105-4.322,7.983-8.406,6.957-14.019c-0.113-0.598,0.123-1.209,0.607-1.58
					c0.482-0.373,1.133-0.44,1.687-0.18c9.833,4.667,20.988,20.354,20.09,32.831c-0.362,5.058-2.893,11.729-12.872,14.806
					c-0.739,0.229-1.535-0.098-1.9-0.776c-0.37-0.677-0.21-1.521,0.381-2.019c1.778-1.49,2.562-3.361,2.397-5.72
					c-0.275-3.989-3.187-8.164-5.847-10.555c-0.919,2.047-2.294,3.579-3.542,4.973c-1.26,1.404-2.451,2.735-3.139,4.468
					c-0.608,4.084,1.124,5.385,3.447,6.655c0.65,0.354,0.977,1.103,0.796,1.819c-0.183,0.718-0.821,1.222-1.562,1.225
					L305.105,301.968L305.105,301.968z M308.042,258.622c-0.347,5.601-4.374,9.842-7.995,13.651
					c-3.423,3.605-6.654,7.01-7.059,11.23c-0.387,4.069,1.031,8.316,3.801,11.357c0.916,1.01,1.938,1.832,3.045,2.455
					c-0.639-1.457-0.89-3.312-0.501-5.731c0.02-0.104,0.045-0.209,0.082-0.31c0.894-2.377,2.38-4.035,3.818-5.639
					c1.551-1.734,3.02-3.369,3.554-5.82c0.112-0.521,0.467-0.945,0.952-1.151c0.489-0.205,1.048-0.159,1.49,0.12
					c4.141,2.593,8.657,8.675,9.05,14.373c0.087,1.24-0.026,2.418-0.328,3.52c3.575-2.261,5.537-5.548,5.843-9.818
					C324.512,276.934,316.214,264.064,308.042,258.622z"/>
			</g>
		</g>
	</g>
</g>
</svg>
