<?xml version="1.0" encoding="utf-8"?>
<!-- Generator: Adobe Illustrator 16.0.0, SVG Export Plug-In . SVG Version: 6.00 Build 0)  -->
<!DOCTYPE svg PUBLIC "-//W3C//DTD SVG 1.1//EN" "http://www.w3.org/Graphics/SVG/1.1/DTD/svg11.dtd">
<svg version="1.1" id="Layer_1" xmlns="http://www.w3.org/2000/svg" xmlns:xlink="http://www.w3.org/1999/xlink" x="0px" y="0px"
	 width="500px" height="500px" viewBox="0 0 500 500" enable-background="new 0 0 500 500" xml:space="preserve">
<g id="Layer_1_copy_27">
	<path fill="#603913" stroke="#3C2415" stroke-width="3.2236" stroke-miterlimit="10" d="M201.658,288.466
		c0,0-46.475,28.208-42.177,42.983c4.299,14.773,23.469,55.107,23.469,55.107l13.604,4.262l15.85-5.375l5.616-6.728
		c0,0-30.6-34.911-20.66-41.626c9.939-6.716,20.66-19.611,20.66-19.611s3.341,10.209,19.815,9.402
		c16.476-0.807,36.354-6.715,36.354-6.715s17.729,21.223,13.969,29.818s-23.842,36.463-23.842,36.463l2.17,15.922l24.357,5.104
		l4.09-3.761c0,0,34.059-41.907,34.325-66.622c0.27-24.715-2.418-31.431-9.133-47.012c-6.716-15.582-42.177-69.846-10.746-103.695
		c31.43-33.848,39.221-41.949,40.833-46.764s30.894-44.304,30.894-44.304l-31.161-4.299c0,0-13.164,18.805-18.806,30.356
		s-33.462,29.366-36.206,30.667c-2.746,1.302-4.787-17.992-4.787-17.992s10.102-16.435-0.107-39
		c-8.061-15.312-33.85-15.581-39.759-15.85c-5.91-0.269-50.168,0.806-41.471,47.817c8.697,47.012-4.886,17.073-4.886,17.073
		s-31.011-25.401-31.816-27.013c-0.807-1.611-26.596-40.564-26.596-40.564l-34.386-6.985l-3.492,11.551
		c0,0,74.95,73.338,80.591,87.308C193.867,182.355,161.148,250.373,201.658,288.466z"/>
	
		<ellipse fill="#FBD8B4" stroke="#3C2415" stroke-width="3.2236" stroke-linecap="round" stroke-linejoin="round" stroke-miterlimit="10" cx="245.887" cy="234.209" rx="37.072" ry="52.109"/>
	
		<path fill="#FBD8B4" stroke="#3C2415" stroke-width="3.2236" stroke-linecap="round" stroke-linejoin="round" stroke-miterlimit="10" d="
		M208.823,134.049c0,0-31.767,50.546,23.695,63.082c55.46,12.536,63.705-23.281,62.27-37.609c-1.437-14.328-5.017-19.9-5.017-19.9
		s4.658-36.335-17.551-35.261c-22.208,1.074-22.564,11.463-22.564,11.463s-2.927-14.328-26.15-8.956
		C200.281,112.241,208.823,134.049,208.823,134.049z"/>
	
		<ellipse fill="#FFFFFF" stroke="#3C2415" stroke-width="2.5324" stroke-miterlimit="10" cx="232.519" cy="138.714" rx="10.502" ry="13.004"/>
	<ellipse fill="#3C2415" cx="230.345" cy="139.619" rx="4.288" ry="5.574"/>
	
		<ellipse fill="#FFFFFF" stroke="#3C2415" stroke-width="2.5324" stroke-miterlimit="10" cx="266.488" cy="136.597" rx="10.502" ry="13.003"/>
	<path fill="#3C2415" d="M268.604,137.501c0,3.082-1.922,5.575-4.289,5.575s-4.287-2.493-4.287-5.575c0-3.076,1.92-5.57,4.287-5.57
		S268.604,134.425,268.604,137.501z"/>
	<path fill="#603913" stroke="#3C2415" stroke-width="3.2236" stroke-miterlimit="10" d="M257.534,166.506
		c0,3.857-4.411,6.984-9.847,6.984c-5.44,0-9.852-3.127-9.852-6.984s4.411-6.985,9.852-6.985
		C253.123,159.521,257.534,162.648,257.534,166.506z"/>
	<path fill="none" stroke="#3C2415" stroke-width="3.2236" stroke-miterlimit="10" d="M218.851,172.057
		c0,0,10.432,12.177,27.96,12.895c17.528,0.718,30.18-12.895,30.18-12.895"/>
	
		<path fill="#FBD8B4" stroke="#3C2415" stroke-width="3.2236" stroke-linecap="round" stroke-linejoin="round" stroke-miterlimit="10" d="
		M182.048,388.4c0,0-44.594,25.521-40.296,31.699c4.299,6.18,25.521,6.983,31.968,0c6.447-6.984,12.627-20.953,15.044-14.507
		c2.417,6.447,2.417,12.357,8.059,9.673c5.642-2.688,3.224-13.164,8.06-16.389c4.836-3.225,11.283-5.643,13.969-10.479
		c2.687-4.834,3.493-6.445-2.148-10.744c-5.643-4.299-15.044-10.745-14.775-2.954c0.27,7.789,0.27,13.698-4.566,11.282
		c-4.836-2.418-9.402-10.479-11.283-6.18C184.196,384.102,182.048,388.4,182.048,388.4z"/>
	<path fill="#754C29" stroke="#3C2415" stroke-width="3.2236" stroke-miterlimit="10" d="M73.249,50.186
		c0,0,0.046,0.407,0.126,1.117c0.525,4.809,2.594,23.537,2.829,24.941c0.269,1.612,31.448,5.024,36.275,3.855
		s61.24-4.124,74.136-2.512c12.894,1.612,14.505,5.91,25.521,8.06c11.014,2.149,72.264-0.537,81.129,2.418
		c8.862,2.954,19.878,4.566,33.848,5.909c13.969,1.344,34.385-2.417,53.995,1.344c19.61,3.761,30.625,17.73,39.222,11.283
		c8.597-6.447,19.879,1.675,21.222-27.37c1.346-29.044,10.479-34.148-11.817-22.597c-22.299,11.551-25.253,17.999-40.834,16.119
		c-15.581-1.881-36.535-5.638-63.398-6.848c-26.863-1.211-10.251-5.509-48.51-5.509c-38.261,0-45.245,1.343-52.767-0.537
		c-7.521-1.881-16.949-5.373-24.459-8.06c-7.508-2.686-23.627-6.716-40.819-3.492c-17.193,3.224-85.65,2.288-85.65,2.288"/>
	
		<path fill="#FBD8B4" stroke="#3C2415" stroke-width="3.2236" stroke-linecap="round" stroke-linejoin="round" stroke-miterlimit="10" d="
		M265.596,385.445c0,0-18.806,14.238-12.628,17.729c6.179,3.493,13.97,5.642,16.388,10.746s5.642,16.924,10.746,17.193
		c5.104,0.268,1.344-17.73,8.059-12.358c6.716,5.372,11.82,20.417,26.327,21.491s23.907,0.537,19.072-5.104
		c-4.836-5.642-14.774-20.147-24.715-23.371c-9.939-3.225-13.313-6.984-13.909-8.06c-0.597-1.075-3.283-2.688-10-1.075
		c-6.715,1.611-6.445-3.492-6.445-7.789c0-4.299,1.879-6.718-3.493-6.18C269.624,389.207,262.907,393.773,265.596,385.445z"/>
	
		<path fill="#FBD8B4" stroke="#3C2415" stroke-width="3.2236" stroke-linecap="round" stroke-linejoin="round" stroke-miterlimit="10" d="
		M368.481,64.692c0,0-29.55,2.418-26.863,12.357c2.687,9.939,0.806,22.834,11.819,22.834c11.015,0,26.326,0.537,30.089-9.67
		C387.287,80.004,389.704,66.841,368.481,64.692z"/>
	
		<path fill="#FBD8B4" stroke="#3C2415" stroke-width="3.2236" stroke-linecap="round" stroke-linejoin="round" stroke-miterlimit="10" d="
		M134.671,48.305c0,0-29.551,2.417-26.863,12.357c2.687,9.939,0.806,22.834,11.819,22.834c11.015,0,26.326,0.537,30.088-9.671
		C153.476,63.618,155.893,50.455,134.671,48.305z"/>
</g>
</svg>
