<svg id="mosque" xmlns="http://www.w3.org/2000/svg" viewBox="0 0 300 300"><defs><style>.cls-1{fill:#fff;}.cls-1,.cls-2,.cls-3,.cls-4,.cls-5,.cls-6{stroke:#3c2415;stroke-width:2.34px;}.cls-1,.cls-2{stroke-miterlimit:10;}.cls-2{fill:#e6e7e8;}.cls-3{fill:#00a79d;}.cls-3,.cls-4,.cls-5,.cls-6{stroke-linecap:round;stroke-linejoin:round;}.cls-4{fill:#6d6e71;}.cls-5{fill:#939598;}.cls-6{fill:#fbb040;}</style></defs><title>mosque</title><rect class="cls-1" x="130.51" y="150.93" width="50.78" height="68.68"/><polygon class="cls-2" points="130.51 151.96 130.51 219.61 79.73 219.61 79.73 151.96 88.17 151.96 88.17 159.55 98 159.55 98 151.96 108.08 151.96 108.08 159.84 119.04 159.84 119.04 151.96 130.51 151.96"/><path class="cls-3" d="M80.5,121.67c-3.86-4.15-10.23-3.79-12.27-12.85l-.11.32-.11-.32c-2.05,9.06-8.42,8.7-12.28,12.85-5,7.9,4.39,13.45,4.39,13.45h16S85.47,129.57,80.5,121.67Z"/><path class="cls-3" d="M255.26,121.67c-3.85-4.15-10.22-3.79-12.27-12.85l-.11.32-.11-.32c-2.05,9.06-8.42,8.7-12.27,12.85-5,7.9,4.38,13.45,4.38,13.45h16S260.23,129.57,255.26,121.67Z"/><path class="cls-3" d="M186.72,114.76c-9.64-11-25.56-10-30.67-34h-.56c-5.11,24-21,23-30.67,34-12.42,20.87,5.69,36.17,5.69,36.17h50.78S199.14,135.63,186.72,114.76Z"/><path class="cls-4" d="M159.8,196.62a6.35,6.35,0,0,1-3.08-3.18l-.82-2.56h0l-.82,2.56a6.35,6.35,0,0,1-3.08,3.18,9.83,9.83,0,0,0-5.74,9.35v13.64h19.28V206A9.83,9.83,0,0,0,159.8,196.62Z"/><path class="cls-5" d="M108.33,196.62a6.31,6.31,0,0,1-3.08-3.18l-.82-2.56h0l-.82,2.56a6.39,6.39,0,0,1-3.08,3.18A9.83,9.83,0,0,0,94.78,206v13.64h19.29V206A9.83,9.83,0,0,0,108.33,196.62Z"/><polygon class="cls-2" points="232.07 151.96 232.07 219.61 181.29 219.61 181.29 151.96 189.73 151.96 189.73 159.55 199.56 159.55 199.56 151.96 209.64 151.96 209.64 159.84 220.6 159.84 220.6 151.96 232.07 151.96"/><path class="cls-5" d="M209.88,196.62a6.33,6.33,0,0,1-3.07-3.18l-.82-2.56h0l-.81,2.56a6.39,6.39,0,0,1-3.08,3.18,9.83,9.83,0,0,0-5.75,9.35v13.64h19.29V206A9.82,9.82,0,0,0,209.88,196.62Z"/><rect class="cls-1" x="56.5" y="135.12" width="23.23" height="84.5"/><rect class="cls-1" x="231.26" y="135.12" width="23.23" height="84.5"/><path class="cls-6" d="M165.92,73.28A18.24,18.24,0,0,1,149.2,47.75,18.42,18.42,0,1,0,177.61,69,18.13,18.13,0,0,1,165.92,73.28Z"/><rect class="cls-6" x="56.5" y="135.12" width="23.23" height="9.06"/><rect class="cls-6" x="231.26" y="135.12" width="23.23" height="9.06"/><rect class="cls-6" x="130.41" y="150.94" width="50.88" height="9.06"/></svg>