<?xml version="1.0" encoding="utf-8"?>
<!-- Generator: Adobe Illustrator 16.0.0, SVG Export Plug-In . SVG Version: 6.00 Build 0)  -->
<!DOCTYPE svg PUBLIC "-//W3C//DTD SVG 1.1//EN" "http://www.w3.org/Graphics/SVG/1.1/DTD/svg11.dtd">
<svg version="1.1" id="Layer_1" xmlns="http://www.w3.org/2000/svg" xmlns:xlink="http://www.w3.org/1999/xlink" x="0px" y="0px"
	 width="500px" height="500px" viewBox="0 0 500 500" enable-background="new 0 0 500 500" xml:space="preserve">
<g id="Layer_1_copy_19">
	<path fill="none" stroke="#3C2415" stroke-width="4.3012" stroke-miterlimit="10" d="M104.316,181.901
		c0,0,0.713,22.938,15.411,29.75"/>
	<path fill="none" stroke="#3C2415" stroke-width="4.3012" stroke-miterlimit="10" d="M125.465,113.798
		c0,0-14.692,49.823,15.055,88.535"/>
	<path fill="#6D6E71" stroke="#3C2415" stroke-width="4.3012" stroke-miterlimit="10" d="M263.756,190.187
		c0,0,81.79,79.53,138.062,89.208s42.651-2.863,36.918-8.959s-40.865-45.52-66.312-73.659
		c-25.445-28.138-32.915-49.97-77.212-51.241C250.914,144.266,232.865,165.497,263.756,190.187z"/>
	<polyline fill="none" stroke="#3C2415" stroke-width="4.3012" stroke-miterlimit="10" points="138.368,238.174 89.618,295.166 
		55.57,297.316 	"/>
	
		<ellipse fill="#6D6E71" stroke="#3C2415" stroke-width="4.3012" stroke-miterlimit="10" cx="145.356" cy="216.7" rx="31.005" ry="25.118"/>
	<path fill="none" stroke="#3C2415" stroke-width="4.3012" stroke-miterlimit="10" d="M55.57,375.812c0,0,23.295-29.39,34.767-33.69
		c11.472-4.302,19.717-19.713,25.45-27.958s12.189-16.49,22.581-22.225c10.393-5.733,37.636-44.801,45.521-65.951"/>
	<path fill="none" stroke="#3C2415" stroke-width="4.3012" stroke-miterlimit="10" d="M208.621,213.085
		c0,0-3.945,77.778-31.185,121.866c-27.24,44.088-65.593,78.855-97.853,86.383"/>
	<path fill="none" stroke="#3C2415" stroke-width="4.3012" stroke-miterlimit="10" d="M245.899,195.162
		c0,0,1.428,78.498,5.015,92.835c3.588,14.339,12.902,34.052,19.355,50.897c6.451,16.847,3.226,37.994,37.278,51.614
		c34.052,13.62,61.288,40.143,85.305,37.634c24.02-2.508,28.32-8.959,28.32-8.959"/>
	<path fill="#B2D6F1" stroke="#3C2415" stroke-width="4.3012" stroke-miterlimit="10" d="M212.333,147.878
		c0,0-14.033-47.481,26.068-78.419c40.102-30.936,85.974-35.945,95.257-24.026c9.286,11.919-29.819,81.551-75.481,108.328
		C212.514,180.536,205.873,180.618,212.333,147.878z"/>
	<path fill="#B2D6F1" stroke="#3C2415" stroke-width="4.3012" stroke-miterlimit="10" d="M211.506,146.099
		c0,0-0.731-49.506,46.221-68.502c46.953-18.997,92.478-11.469,98.21,2.509c5.734,13.979-50.678,70.51-101.862,84.002
		C202.888,177.6,196.469,175.891,211.506,146.099z"/>
	
		<ellipse fill="#939598" stroke="#3C2415" stroke-width="4.3012" stroke-miterlimit="10" cx="209.515" cy="188.174" rx="54.303" ry="42.116"/>
</g>
</svg>
