<?xml version="1.0" encoding="utf-8"?>
<!-- Generator: Adobe Illustrator 16.0.0, SVG Export Plug-In . SVG Version: 6.00 Build 0)  -->
<!DOCTYPE svg PUBLIC "-//W3C//DTD SVG 1.1//EN" "http://www.w3.org/Graphics/SVG/1.1/DTD/svg11.dtd">
<svg version="1.1" id="Layer_1" xmlns="http://www.w3.org/2000/svg" xmlns:xlink="http://www.w3.org/1999/xlink" x="0px" y="0px"
	 width="500px" height="500px" viewBox="0 0 500 500" enable-background="new 0 0 500 500" xml:space="preserve">
<g id="Layer_1_copy_47">
	<g>
		<g>
			<g>
				<path fill="#241810" d="M338.721,217.777c0,0,43.213,63.385-35.981,72.016s-16.173-53.901-16.173-53.901
					S313.573,197.196,338.721,217.777z"/>
			</g>
			<g>
				<path fill="#281912" d="M289.123,291.439c-14.518,0-23.316-3.49-26.155-10.381c-6.627-16.084,21.798-44.554,23.015-45.753
					c0.604-0.89,17.231-24.389,36.917-24.389c5.805,0,11.304,2.093,16.348,6.217l0.162,0.175c0.771,1.138,18.872,28.098,9.001,49.51
					c-6.063,13.158-21.401,21.164-45.576,23.799C297.82,291.162,293.207,291.439,289.123,291.439z M322.898,212.573
					c-18.825,0-35.485,23.556-35.65,23.795c-0.389,0.402-28.948,28.995-22.747,44.062c3.304,8.018,16.252,10.926,38.148,8.536
					c23.56-2.563,38.444-10.252,44.249-22.837c9.195-19.933-7.608-45.985-8.799-47.788
					C333.387,214.515,328.272,212.573,322.898,212.573z"/>
			</g>
		</g>
		<g>
			<path fill="#FFFFFF" d="M340.64,220.891c0,0,19.491,1.628,13.043,7.979c-6.452,6.353-10.964,2.361-13.043,7.526
				c-2.079,5.164-0.604,6.64-5.396,10.696c-4.794,4.057-10.481,2.271-12.431,4.086c-1.95,1.814-2.728,9.559-7.502,11.03
				c-4.772,1.478-10.634,0-13.788,2.95c-3.155,2.951-6.792,7.747-10.872,5.166C286.564,267.742,296.988,216.451,340.64,220.891z"/>
			<path fill="#281912" d="M293.042,272.168c-1.026,0-2.032-0.309-2.985-0.91c-2.502-1.581-0.93-9.736,0.397-14.308
				c5.239-18.099,19.797-37.437,44.929-37.437c1.75,0,3.554,0.095,5.366,0.276c2.248,0.186,13.619,1.346,15.161,5.6
				c0.35,0.956,0.373,2.47-1.451,4.27c-3.511,3.456-6.582,4.076-8.822,4.523c-2.047,0.412-3.174,0.639-3.969,2.626
				c-0.64,1.583-0.927,2.809-1.182,3.888c-0.562,2.375-1,4.256-4.531,7.241c-3.121,2.644-6.617,3.012-9.162,3.286
				c-1.46,0.153-2.714,0.286-3.233,0.764c-0.497,0.468-1.043,1.845-1.567,3.181c-1.226,3.112-2.749,6.985-6.354,8.101
				c-2.023,0.623-4.157,0.75-6.217,0.868c-2.849,0.169-5.533,0.324-7.14,1.83c-0.46,0.431-0.931,0.897-1.409,1.377
				C298.612,269.609,296.044,272.168,293.042,272.168z M335.383,221.725c-23.421,0-34.872,17.13-39.611,27.34
				c-5.047,10.869-5.303,19.392-4.479,20.369c0.55,0.338,1.139,0.52,1.75,0.52c2.087,0,4.303-2.217,6.265-4.174
				c0.498-0.495,0.984-0.98,1.459-1.426c2.197-2.056,5.413-2.242,8.521-2.424c1.934-0.115,3.934-0.23,5.7-0.777
				c2.585-0.797,3.894-4.123,4.947-6.795c0.673-1.709,1.254-3.182,2.119-3.989c1.056-0.98,2.656-1.149,4.503-1.345
				c2.39-0.253,5.366-0.572,7.973-2.778c2.97-2.512,3.287-3.846,3.805-6.054c0.259-1.101,0.581-2.47,1.282-4.208
				c1.243-3.094,3.354-3.521,5.586-3.967c2.186-0.439,4.661-0.938,7.705-3.935c0.796-0.783,1.104-1.436,0.926-1.936
				c-0.785-2.161-8.242-3.729-13.286-4.152C338.787,221.813,337.054,221.725,335.383,221.725z"/>
		</g>
		<g>
			<path fill="#FCC393" d="M222.034,260.114c0,0-0.534,23.524-11.031,29.679c-10.488,6.158-14.597,77.314-14.597,77.314L322.692,390
				l-13.775-82.613l-15.134-25.35c0,0-4.998-8.152-2.188-21.924C294.414,246.345,221.94,249.046,222.034,260.114z"/>
			<path fill="#281912" d="M326.741,394.102L192.923,369.85l0.17-2.935c0.984-17.106,5.076-73.438,16.232-79.985
				c7.28-4.271,9.249-20.859,9.394-26.896c-0.01-1.062,0.333-2.821,2.04-4.546c6.293-6.343,28.066-8.036,39.941-8.036
				c9.937,0,27.384,0.959,32.629,7.384c1.432,1.754,1.956,3.807,1.519,5.943c-2.477,12.144,1.723,19.449,1.764,19.52l15.476,25.92
				L326.741,394.102z M199.894,364.363l118.753,21.525l-12.899-77.341l-14.816-24.812c-0.211-0.346-5.621-9.403-2.584-24.286
				c0.021-0.111,0.034-0.181-0.16-0.416c-1.942-2.384-11.371-4.946-27.485-4.946c-19.336,0-33.703,3.643-35.352,6.202
				c-0.099,3.481-1.169,25.625-12.662,32.362C207.309,295.807,201.966,331.74,199.894,364.363z"/>
		</g>
		<g>
			<g>
				<path fill="#FCC393" d="M349.776,161.294c-1.05,0-2.062,0.216-3.041,0.529c-8.349-40.805-45.197-71.561-89.431-71.561
					c-45.384,0-82.919,32.42-89.934,74.832c-1.676-1.075-3.527-1.722-5.503-1.722c-7.117,0-12.883,7.771-12.883,17.36
					c0,9.579,5.766,17.354,12.883,17.354c2.129,0,4.11-0.762,5.88-2.001c8.009,41.216,45.031,72.407,89.557,72.407
					c44.717,0,81.845-31.455,89.646-72.943c0.909,0.282,1.851,0.451,2.825,0.451c7.123,0,12.89-7.769,12.89-17.354
					C362.666,169.063,356.899,161.294,349.776,161.294z"/>
			</g>
			<g>
				<path fill="#281912" d="M257.307,271.811c-43.864,0-81.834-29.577-91.903-70.92c-1.161,0.343-2.339,0.516-3.534,0.516
					c-8.937,0-16.205-9.273-16.205-20.673c0-11.401,7.269-20.678,16.205-20.678c1.011,0,2.02,0.122,3.008,0.369
					c9.085-42.826,47.294-73.479,92.429-73.479c43.797,0,81.953,29.685,91.972,71.039c0.17-0.008,0.334-0.009,0.5-0.009
					c8.938,0,16.21,9.273,16.21,20.672c0,11.49-7.366,20.802-16.423,20.671C340.083,241.514,301.797,271.811,257.307,271.811z
					 M170.031,190.446l0.974,5.009c7.853,40.396,44.153,69.719,86.302,69.719c42.4,0,78.731-29.539,86.381-70.238l0.689-3.65
					l3.551,1.092c0.663,0.203,1.268,0.302,1.85,0.302c5.188,0,9.572-6.425,9.572-14.034c0-7.61-4.386-14.035-9.572-14.035
					c-0.59,0-1.245,0.122-2.015,0.371l-3.528,1.151l-0.749-3.642c-8.168-39.928-44.409-68.907-86.179-68.907
					c-43.31,0-79.756,30.302-86.66,72.051l-0.819,4.97l-4.244-2.715c-6.5-4.16-13.278,3.435-13.278,12.843
					c0,9.53,6.943,17.244,13.541,12.631L170.031,190.446z"/>
			</g>
		</g>
		<g>
			<path fill="#141211" d="M224.469,178.641c0,6.935-4.49,12.555-10.028,12.555c-5.547,0-10.038-5.62-10.038-12.555
				c0-6.936,4.491-12.554,10.038-12.554C219.979,166.086,224.469,171.705,224.469,178.641z"/>
		</g>
		<g>
			<path fill="#FFFFFA" d="M216.507,178.646c0,2.417-1.808,4.37-4.044,4.37c-2.241,0-4.056-1.953-4.056-4.37
				c0-2.416,1.814-4.373,4.056-4.373C214.699,174.273,216.507,176.23,216.507,178.646z"/>
		</g>
		<g>
			<path fill="#141211" d="M306.258,178.641c0,6.935-4.496,12.555-10.033,12.555c-5.548,0-10.035-5.62-10.035-12.555
				c0-6.936,4.487-12.554,10.035-12.554C301.762,166.086,306.258,171.705,306.258,178.641z"/>
		</g>
		<g>
			<path fill="#FFFFFA" d="M298.303,178.646c0,2.417-1.816,4.37-4.052,4.37s-4.053-1.953-4.053-4.37
				c0-2.416,1.815-4.373,4.053-4.373C296.486,174.273,298.303,176.23,298.303,178.646z"/>
		</g>
		<g>
			<path fill="#834C1F" d="M247.732,201.527c0,0,13.227,1.971,15.045-5.413c1.824-7.388,0-21.841,0-21.841s8.207,11.01,4.106,24.301
				C262.777,211.867,241.417,201.419,247.732,201.527z"/>
		</g>
		<g opacity="0.7">
			<g>
				<path fill="#F9A880" d="M216.511,206.207c0,4.489-5.668,8.126-12.666,8.126c-7.003,0-12.67-3.637-12.67-8.126
					c0-4.49,5.667-8.121,12.67-8.121C210.843,198.086,216.511,201.717,216.511,206.207z"/>
			</g>
		</g>
		<g opacity="0.7">
			<g>
				<ellipse fill="#F9A880" cx="313.407" cy="205.33" rx="12.668" ry="8.125"/>
			</g>
		</g>
		<g>
			<path fill="#FFFFFF" d="M230.397,217.777c0,0,5.93,23.138,26.908,22.159c20.979-0.993,28.883-22.159,28.883-22.159
				s-9.269,11.095-28.883,11.095C237.159,228.872,230.397,217.777,230.397,217.777z"/>
		</g>
		<g>
			<path fill="#301E12" d="M200.033,164.236c0,0,4.568-6.398,13.233-5.663c8.67,0.74,9.579,2.466,10.034-2.218
				c0.448-4.676-3.647-5.658-10.034-4.917C206.881,152.174,194.563,165.721,200.033,164.236z"/>
		</g>
		<g>
			<path fill="#301E12" d="M311.694,164.236c0,0-4.559-6.398-13.222-5.663c-8.668,0.74-9.572,2.466-10.027-2.218
				c-0.461-4.676,3.646-5.658,10.027-4.917C304.861,152.174,317.174,165.721,311.694,164.236z"/>
		</g>
		<g>
			<path fill="#FAA65A" d="M211.003,289.792c0,0-11.262,48.67,39.944,47.028c57.714-1.844,43.797-30.764,45.275-50.702
				c0,0-5.283-0.996,42.718,10.086c48.006,11.082,63.513,24.366,70.897,116.682c3.691,26.59-36.187,19.943-36.187,19.943
				l-239.281,1.592c0,0-33.971,8.01-26.583-29.662C115.169,367.107,110.54,290.725,211.003,289.792z"/>
			<path fill="#281912" d="M127.298,438.453c-8.241,0-14.772-2.641-18.888-7.644c-4.884-5.934-6.193-14.915-3.883-26.688
				c0.945-4.812,1.702-10.367,2.502-16.252c5.456-40.047,13.706-100.562,103.943-101.397l4.217-0.037l-0.949,4.104
				c-0.047,0.188-4.327,19.58,5.633,32.076c5.786,7.247,15.399,10.93,28.575,10.93c0.785,0,1.581-0.019,2.394-0.039
				c18.951-0.606,31.131-4.149,37.237-10.821c6.062-6.623,5.547-15.679,5.001-25.267c-0.163-2.922-0.333-5.914-0.285-8.808
				l-0.271-0.079l0.242-2.906l0.44-3.812l3.628,1.045l2.915,0.545l-0.017,0.227c4.136,1.01,14.45,3.453,39.957,9.338
				c51.218,11.826,66.128,28.051,73.455,119.656c0.89,6.355-0.468,11.766-4.056,15.883c-9.852,11.314-32.783,8.082-35.688,7.646
				l-238.67,1.586C133.711,437.947,130.859,438.453,127.298,438.453z M207.081,293.188c-80.787,2.438-88.104,56.176-93.474,95.582
				c-0.818,5.981-1.587,11.629-2.565,16.635c-1.906,9.727-1.071,16.858,2.496,21.186c3.549,4.318,9.442,5.224,13.76,5.224
				c3.574,0,6.289-0.617,6.315-0.628l0.736-0.086l239.562-1.592l0.283,0.049c0.043,0.007,4.26,0.693,9.655,0.693
				c9.622,0,16.813-2.166,20.237-6.1c2.303-2.646,3.107-6.18,2.464-10.808c-7.382-92.233-22.747-103.377-68.353-113.905
				c-19.291-4.453-32.434-7.521-38.774-9.052c0.026,2.125,0.152,4.351,0.282,6.654c0.572,10.049,1.216,21.438-6.731,30.127
				c-7.379,8.062-21.093,12.306-41.923,12.972c-0.886,0.028-1.753,0.041-2.604,0.041c-15.316,0-26.685-4.527-33.788-13.462
				C205.688,315.439,206.186,300.384,207.081,293.188z"/>
		</g>
		<g>
			<g>
				<path fill="#241810" d="M359.386,174.273c0,0,7.876,2.541,6.397-19.122c-1.476-21.665-2.455-114.221-82.219-118.162
					c-79.759-3.942-115.327,21.279-124.16,68.686c-7.477,40.137,0.089,50.458,0,60.526c0,0,6.378,11.105,14.675-1.85
					c8.296-12.957,52.645-72.629,85.23-74.045c32.584-1.414,82.37,79.896,82.37,79.896S349.992,176.683,359.386,174.273z"/>
			</g>
			<g>
				<path fill="#281912" d="M355.075,178.126c-8.528,0-15.157-5.087-15.432-5.303l-0.479-0.37l-0.315-0.514
					c-13.34-21.789-53.488-78.332-78.688-78.332c-0.239,0-0.475,0.005-0.701,0.015c-30.562,1.328-73.579,58.452-82.588,72.521
					c-3.318,5.182-7.007,7.808-10.961,7.808c-5.723,0-9.029-5.472-9.391-6.096l-0.446-0.782l0.008-0.903
					c0.023-2.363-0.464-4.875-1.075-8.053c-1.776-9.177-4.457-23.046,1.133-53.048c9.003-48.315,45.551-71.8,111.729-71.8
					c5.075,0,10.407,0.137,15.858,0.406c78.627,3.885,83.525,89.316,85.136,117.389c0.085,1.459,0.155,2.754,0.233,3.86
					c0.701,10.288-0.506,16.942-3.688,20.349c-1.447,1.554-3.327,2.411-5.283,2.411c-0.228,0-0.433-0.012-0.62-0.031
					C358.067,177.972,356.577,178.126,355.075,178.126z M344.15,167.89c1.356,0.916,5.767,3.6,10.925,3.6
					c1.192,0,2.369-0.146,3.486-0.434l0.93-0.237l0.68,0.218c0.074-0.024,0.212-0.104,0.389-0.292
					c0.65-0.694,2.702-3.852,1.917-15.367c-0.077-1.127-0.155-2.446-0.241-3.932c-1.527-26.602-6.162-107.55-78.835-111.141
					c-73.427-3.625-111.635,17.144-120.735,65.979c-5.357,28.765-2.82,41.89-1.145,50.577c0.58,3.003,1.095,5.645,1.185,8.305
					c0.686,0.884,1.934,2.149,3.208,2.149c1.48,0,3.437-1.732,5.375-4.754c0.471-0.735,49.648-73.907,87.879-75.568
					c14.805-0.625,33.737,13.213,56.545,41.157C330.428,146.178,341.993,164.435,344.15,167.89z"/>
			</g>
		</g>
		<g>
			<circle fill="#EAA526" cx="352.083" cy="194.042" r="5.649"/>
		</g>
		<g>
			<path fill="#EAA526" d="M168.91,194.042c0,3.12-2.535,5.649-5.652,5.649c-3.119,0-5.654-2.529-5.654-5.649
				c0-3.123,2.535-5.647,5.654-5.647C166.375,188.396,168.91,190.92,168.91,194.042z"/>
		</g>
		<g>
			<path fill="#C42529" d="M263.189,142.726c0,1.981-1.6,3.578-3.58,3.578c-1.979,0-3.578-1.597-3.578-3.578
				c0-1.975,1.601-3.579,3.578-3.579C261.591,139.147,263.189,140.751,263.189,142.726z"/>
		</g>
		<g>
			<path fill="#EA5728" d="M153.8,435.136c0,0,1.682-49.866,55.313-74.521c53.631-24.65,90.142-11.869,87.11-74.496
				c0,0,88.43,12.594,95.065,40.621c0,0-7.072,90.779-39.679,106.24L153.8,435.136z"/>
			<path fill="#281912" d="M150.363,438.486l0.117-3.461c0.02-0.539,0.529-13.32,7.846-29.287
				c6.734-14.697,20.775-34.975,49.398-48.139c14.741-6.777,28.058-10.722,39.807-14.201c30.605-9.062,47.46-14.056,45.371-57.117
				l-0.188-4.016l3.978,0.565c0.223,0.033,22.602,3.26,45.499,9.899c31.676,9.185,49.278,20.369,52.326,33.246l0.117,0.504
				l-0.043,0.52c-0.29,3.787-7.602,92.879-41.56,108.977l-0.659,0.31l-0.726,0.012L150.363,438.486z M299.679,290
				c0.993,44.582-19.577,50.678-50.261,59.766c-11.537,3.416-24.61,7.289-38.921,13.865c-43.095,19.811-51.453,56.703-53.03,68.146
				l193.354-2.111c12.104-6.225,22.332-25.66,29.611-56.289c5.229-22.028,7.189-42.776,7.504-46.354
				C382.381,307.18,325.773,294.171,299.679,290z"/>
		</g>
		<g>
			<path fill="#E4BE21" d="M248.006,412.771h-0.011c-0.871,0-1.763-0.025-2.66-0.066c-13.883-0.691-25.227-6.305-33.707-16.688
				c-14.149-17.316-17.821-45.132-18.417-65.416c-0.637-21.894,2.074-39.979,2.102-40.154l2.201,0.223
				c-0.04,0.637-3.138,63.982,21.5,90.936c6.959,7.609,15.568,11.654,25.592,12.017c0.376,0.008,0.844-0.006,1.153,0.015
				c58.942-0.013,70.64-102.675,70.748-103.716l2.209,0.17C318.663,291.314,312.781,412.771,248.006,412.771z M195.588,313.197
				c-0.961,23.74,0.741,60.602,17.754,81.422c8.068,9.877,18.872,15.217,32.107,15.877c0.854,0.039,1.714,0.061,2.546,0.061
				c43.356,0.008,59.489-57.1,65.331-92.715c-8.053,31.316-26.883,77.998-67.567,78.002c-0.009,0-0.009,0-0.009,0
				c-0.407,0-0.804,0-1.209-0.012c-10.656-0.385-19.789-4.666-27.163-12.738c-13.235-14.48-18.53-38.902-20.642-56.84
				C196.196,321.664,195.831,317.255,195.588,313.197z"/>
		</g>
		<g>
			<path fill="#E4BE21" d="M243.903,425.341c-2.067,0-4.174-0.065-6.319-0.197c-12.58-0.752-22.807-6.081-30.404-15.844
				c-11.521-14.795-17.01-39.321-16.327-72.903c0.507-24.906,4.426-45.787,4.464-45.99l2.179,0.412
				c-0.157,0.822-15.336,82.74,11.435,117.127c7.185,9.234,16.87,14.274,28.788,14.996c23.83,1.416,42.67-5.299,55.969-19.998
				c33.259-36.783,21.539-111.971,21.418-112.728l2.181-0.354c0.125,0.769,12.007,77-21.959,114.564
				C282.762,418.322,265.48,425.337,243.903,425.341z"/>
		</g>
	</g>
</g>
</svg>
