<?xml version="1.0" encoding="utf-8"?>
<!-- Generator: Adobe Illustrator 16.0.0, SVG Export Plug-In . SVG Version: 6.00 Build 0)  -->
<!DOCTYPE svg PUBLIC "-//W3C//DTD SVG 1.1//EN" "http://www.w3.org/Graphics/SVG/1.1/DTD/svg11.dtd">
<svg version="1.1" id="Layer_1" xmlns="http://www.w3.org/2000/svg" xmlns:xlink="http://www.w3.org/1999/xlink" x="0px" y="0px"
	 width="500px" height="500px" viewBox="0 0 500 500" enable-background="new 0 0 500 500" xml:space="preserve">
<g id="Layer_1_copy_53">
	<g>
		<path fill="#FFFFFF" d="M397.91,261.248c0,20.88-62.016,37.804-138.51,37.804c-76.49,0-138.505-16.924-138.505-37.804
			S182.91,223.44,259.4,223.44C335.896,223.439,397.91,240.368,397.91,261.248z"/>
		<path fill="#27140E" d="M259.4,300.257c-78.345,0-139.712-17.135-139.712-39.01c0-21.877,61.367-39.015,139.712-39.015
			c78.346,0,139.714,17.138,139.714,39.015C399.114,283.123,337.746,300.257,259.4,300.257z M259.4,224.644
			c-74.421,0-137.302,16.763-137.302,36.604c0,19.838,62.881,36.602,137.302,36.602c74.43,0,137.304-16.764,137.304-36.602
			C396.704,241.407,333.83,224.644,259.4,224.644z"/>
	</g>
	<g>
		<path fill="#C12026" d="M16.906,245.229c27.915-1.297,50.913-12.756,72.373-27.301c20.993-14.228,40.94-29.986,61.752-44.497
			c11.057-7.709,22.439-15.318,34.603-20.978c20.587-9.576,42.797-1.775,54.047,17.998c3.747,6.578,6.063,13.972,8.875,20.608
			c0.386-2.07,0.853-4.945,1.482-7.784c5.166-23.421,23.295-36.939,46.536-34.417c9.528,1.03,18.052,5.301,25.73,10.637
			c17.416,12.094,34.406,24.81,51.66,37.141c11.531,8.243,22.989,16.643,34.919,24.284c24.007,15.376,34.552,19.045,67.588,25.011
			c-3.727,1.806-6.897,3.344-10.068,4.868c-32.617,15.701-59.994,38.225-84.604,64.453c-12.64,13.479-25.272,26.999-40.225,38.061
			c-19.005,14.058-40.543,21.559-63.803,24.263c-24.929,2.905-49.858,2.376-74.59-2.337c-27.22-5.184-49.95-18.719-69.36-38.141
			c-14.356-14.357-28.317-29.127-42.999-43.143c-20.496-19.58-44.002-34.87-69.79-46.648
			C20.001,246.835,18.998,246.282,16.906,245.229z M132.494,248.242c2.999,1.102,5.084,1.723,7.051,2.615
			c14.9,6.772,29.682,13.793,44.679,20.347c18.324,8.005,37.323,13.799,57.409,15.012c25.156,1.522,49.079-3.435,71.716-14.7
			c17.327-8.623,34.488-17.672,53.328-22.759c0.109-0.031,0.131-0.369,0.173-0.515C289.084,248.242,211.343,248.242,132.494,248.242
			z"/>
		<path fill="#27140E" d="M247.503,384.184c-15.339,0-30.555-1.418-45.228-4.211c-26.558-5.058-50.744-18.336-71.866-39.467
			c-5.074-5.078-10.103-10.208-15.13-15.338c-9.016-9.197-18.34-18.715-27.782-27.729c-19.271-18.404-42.305-33.799-68.463-45.748
			c-0.707-0.321-1.406-0.68-2.383-1.187l-1.913-0.975c-1.957-0.986-2.995-3.167-2.539-5.309c0.458-2.142,2.302-3.705,4.488-3.807
			c29.329-1.363,52.757-14.864,69.888-26.477c11.466-7.768,22.85-16.167,33.851-24.288c9.06-6.688,18.433-13.603,27.853-20.17
			c10.344-7.212,22.455-15.406,35.324-21.394c6.461-3.007,13.173-4.529,19.951-4.529c16.513,0,31.583,9.163,40.313,24.511
			c1.314,2.309,2.454,4.677,3.489,7.058c6.921-19.543,23.142-31.384,43.75-31.384c1.963,0,3.979,0.111,5.983,0.328
			c9.13,0.984,18.275,4.736,27.962,11.468c10.777,7.482,21.545,15.315,31.961,22.888c6.573,4.782,13.141,9.562,19.761,14.289
			l5.501,3.943c9.479,6.809,19.283,13.845,29.213,20.204c22.99,14.73,32.841,18.37,65.843,24.328
			c2.059,0.371,3.642,2.021,3.924,4.087c0.28,2.069-0.802,4.083-2.682,4.993l-2.287,1.107c-2.777,1.349-5.286,2.56-7.799,3.765
			c-29.057,13.984-56.262,34.728-83.167,63.401l-0.42,0.446c-12.448,13.271-25.324,26.992-40.458,38.193
			c-18.616,13.771-40.856,22.243-66.106,25.18C267.957,383.57,257.587,384.184,247.503,384.184z M33.704,248.064
			c22.777,11.573,43.068,25.803,60.448,42.402c9.559,9.13,18.938,18.698,28.011,27.956c5.005,5.107,10.013,10.219,15.064,15.27
			c20.012,20.019,41.88,32.057,66.852,36.812c23.361,4.449,47.95,5.218,73.139,2.287c23.892-2.778,44.005-10.419,61.491-23.353
			c14.435-10.681,27.001-24.082,39.155-37.041l0.424-0.445c26.817-28.581,54.014-49.555,83.039-64.032
			c-23.633-4.952-34.655-9.883-55.044-22.94c-10.139-6.497-20.047-13.611-29.634-20.49l-5.484-3.932
			c-6.633-4.741-13.226-9.537-19.823-14.335c-10.372-7.545-21.097-15.345-31.787-22.769c-8.328-5.787-16.016-8.993-23.496-9.802
			c-1.675-0.183-3.332-0.272-4.951-0.272c-18.496,0-32.09,11.563-36.362,30.932c-0.44,1.973-0.79,3.962-1.097,5.667l-0.355,1.971
			c-0.395,2.089-2.105,3.672-4.218,3.9c-2.122,0.229-4.127-0.953-4.955-2.911c-0.895-2.105-1.737-4.29-2.595-6.497
			c-1.784-4.612-3.628-9.382-6.031-13.605c-7-12.3-18.938-19.643-31.939-19.643c-5.365,0-10.711,1.224-15.891,3.632
			c-12.167,5.661-23.861,13.58-33.873,20.562c-9.315,6.492-18.632,13.368-27.645,20.018c-11.075,8.177-22.537,16.632-34.161,24.511
			C77.097,232.006,57.682,243.445,33.704,248.064z M250.461,291.303c0,0,0,0-0.007,0c-3.012,0-6.073-0.097-9.115-0.277
			c-18.579-1.123-37.888-6.166-59.045-15.4c-9.82-4.292-19.688-8.848-29.229-13.259c-5.167-2.382-10.337-4.769-15.517-7.122
			c-1.089-0.494-2.298-0.917-3.833-1.453c-0.873-0.305-1.825-0.635-2.89-1.027c-2.185-0.807-3.486-3.068-3.075-5.369
			c0.407-2.297,2.409-3.972,4.743-3.972H366.85c1.517,0,2.945,0.713,3.856,1.925c0.859,1.144,1.162,2.608,0.841,3.993
			c-0.583,2.899-2.665,3.796-3.532,4.046c-16.647,4.497-32.344,12.35-47.526,19.944l-4.99,2.501
			C294.867,286.098,272.979,291.303,250.461,291.303z M155.892,253.059c0.404,0.187,0.808,0.375,1.211,0.561
			c9.5,4.382,19.322,8.92,29.05,13.171c20.099,8.782,38.343,13.562,55.772,14.617c2.844,0.176,5.717,0.257,8.529,0.257h0.007
			c21.018,0,41.452-4.866,60.735-14.467l4.981-2.482c7.944-3.979,16.022-8.02,24.354-11.654h-184.64V253.059z"/>
	</g>
</g>
</svg>
