<?xml version="1.0" encoding="utf-8"?>
<!-- Generator: Adobe Illustrator 16.0.0, SVG Export Plug-In . SVG Version: 6.00 Build 0)  -->
<!DOCTYPE svg PUBLIC "-//W3C//DTD SVG 1.1//EN" "http://www.w3.org/Graphics/SVG/1.1/DTD/svg11.dtd">
<svg version="1.1" id="Layer_1" xmlns="http://www.w3.org/2000/svg" xmlns:xlink="http://www.w3.org/1999/xlink" x="0px" y="0px"
	 width="500px" height="500px" viewBox="0 0 500 500" enable-background="new 0 0 500 500" xml:space="preserve">
<g id="Layer_1_copy_69">
	<g>
		<path fill="#D08C29" d="M103.578,247.268c0,0-5.835-4.107-3.154-10.27c2.677-6.165,5.98-7.283,7.461-9.953
			c1.48-2.667,5.041-11.025,5.486-13.396c0.444-2.371,2.569-2.332,10.667-4.481c8.106-2.15,14.364-6.056,20.801-10.409
			c6.436-4.347,9.583-6.087,19.247-6.667c9.661-0.581,15.709-1.922,19.507-4.781c3.799-2.858,10.43-9.981,19.671-8.615
			c9.241,1.367,11.841-0.526,15.146-1.655c3.307-1.128,10.981-0.694,14.068,3.297c3.086,3.994,6.386-2.328,8.263-5.398
			c1.868-3.072,16.196-9.551,20.286-6.276c4.087,3.273,12.267-3.125,15.713-5.108c3.445-1.979,6.119-3.047,15.025-3.138
			c8.905-0.094,15.021-0.594,19.187-4.118c4.173-3.526,8.19-1.095,14.752-6.517c6.561-5.417,11.957-6.921,20.319-8.454
			c8.364-1.534,16.051-6.195,27.027-4.335c10.979,1.862,5.507-5.333,14.104-9.219c8.596-3.89,13.619-4.725,15.899-0.241
			c2.275,4.483,7.271,3.227,12.943,2.548c5.675-0.678,10.255,0.858,12.903,4.674c2.647,3.818,4.293,8.353,6.711,11.976
			c2.424,3.622,8.793,8.832,11.558,14.123c2.768,5.292,3.549,1.833,2.005,11.511c-1.545,9.679-1.562,8.618,2.573,15.495
			c4.137,6.877,8.665,10.331,6.497,17.511c-2.176,7.184-4.251,10.327-2.187,14.823c2.071,4.503,6.908-1.2,0.852,7.789
			c-6.056,8.981-18.009,23.741-18.009,23.741l-100.271,6.737l-21.661-0.132c0,0-20.607-0.234-29.363,4.309
			c-8.754,4.543-14.32,1.389-27.308,6.058c-12.989,4.674-27.509,8.833-42.456,7.722c-14.951-1.109-16.396-1.844-22.633,0.367
			c-6.24,2.21-37.562,3.289-47.821,2.432c-10.259-0.857-39.841-1.834-41.183-10.43C104.866,260.193,103.578,247.268,103.578,247.268
			z"/>
		<path fill="#3C2517" d="M157.396,281.654c-4.299,0-7.824-0.103-10.184-0.301c-1.164-0.098-2.573-0.197-4.165-0.308
			c-18.98-1.328-37.623-3.344-38.961-11.933c-1.129-7.237-2.231-17.631-2.553-20.729c-2.463-2.158-5.478-6.729-3.082-12.246
			c1.857-4.271,4.061-6.411,5.666-7.978c0.837-0.808,1.496-1.445,1.891-2.157c1.492-2.684,4.877-10.761,5.247-12.751
			c0.612-3.253,3.111-3.873,8.091-5.107c1.168-0.289,2.538-0.626,4.145-1.054c7.88-2.089,14.028-5.977,20.145-10.113
			c6.859-4.631,10.391-6.436,20.321-7.031c9.565-0.573,15.055-1.875,18.347-4.354c0.549-0.417,1.168-0.929,1.849-1.491
			c3.708-3.076,9.312-7.727,16.783-7.727c0.876,0,1.766,0.065,2.642,0.196c2.064,0.304,3.842,0.454,5.436,0.454
			c3.453,0,5.248-0.698,7.148-1.438c0.519-0.201,1.029-0.4,1.556-0.581c1.238-0.421,2.887-0.655,4.648-0.655
			c1.923,0,8.461,0.338,11.815,4.67c0.245,0.324,0.423,0.438,0.47,0.459c0.96-0.149,3.079-3.696,3.772-4.864l0.48-0.797
			c1.977-3.242,12.389-8.207,18.774-8.207c1.976,0,3.554,0.46,4.688,1.372c0.242,0.19,0.654,0.443,1.494,0.443
			c2.795,0,6.938-2.655,9.684-4.414c0.812-0.521,1.534-0.982,2.125-1.322c4.072-2.341,7.208-3.334,16.075-3.425
			c9.102-0.096,14.355-0.682,17.823-3.611c2.278-1.926,4.523-2.397,6.691-2.853c2.389-0.502,4.859-1.02,8.077-3.677
			c7.233-5.973,13.393-7.461,21.298-8.914c2.449-0.449,4.85-1.18,7.391-1.958c4.57-1.397,9.295-2.844,14.934-2.844
			c1.812,0,3.646,0.156,5.453,0.464c1.063,0.18,1.985,0.271,2.733,0.271c2.187,0,2.438-0.52,3.367-2.449
			c0.993-2.063,2.356-4.891,6.761-6.883c5.364-2.428,8.863-3.462,11.693-3.462c3.226,0,5.584,1.416,7.005,4.206
			c0.646,1.278,1.581,2.066,4.223,2.066c1.371,0,2.969-0.21,4.668-0.436l1.882-0.241c6.643-0.793,11.876,1.186,14.927,5.583
			c1.474,2.125,2.631,4.41,3.744,6.619c0.983,1.94,1.908,3.773,2.987,5.386c0.872,1.303,2.438,2.972,4.1,4.742
			c2.71,2.879,5.778,6.146,7.575,9.581c0.677,1.297,1.207,1.981,1.631,2.529c1.783,2.311,1.709,3.296,0.588,10.314l-0.153,0.964
			c-1.149,7.173-1.149,7.173,1.549,11.601l0.9,1.484c0.926,1.538,1.872,2.898,2.755,4.168c3.184,4.585,5.928,8.547,3.955,15.072
			c-0.479,1.594-0.957,2.99-1.389,4.25c-1.534,4.493-2.111,6.422-0.9,9.056c0.331,0.723,0.591,0.762,1.271,0.861
			c0.624,0.096,1.926,0.292,2.503,1.616c0.712,1.623-0.239,3.168-3.094,7.404c-6.038,8.959-17.628,23.287-18.119,23.895
			c-0.376,0.462-0.93,0.75-1.526,0.793l-100.271,6.729l-22.32-0.128c-9.233,0-22.068,1.068-27.857,4.073
			c-4.83,2.502-8.834,2.854-13.078,3.231c-3.922,0.346-8.369,0.737-14.492,2.94c-12.373,4.449-27.513,9.006-43.342,7.841
			c-2.752-0.201-5.048-0.395-7.003-0.559c-8.208-0.684-9.7-0.981-14.751,0.809C190.442,280.75,169.692,281.654,157.396,281.654z
			 M200.936,180.672c-5.923,0-10.614,3.895-14.043,6.739c-0.736,0.612-1.405,1.164-2.007,1.616
			c-4.02,3.026-10.199,4.582-20.668,5.208c-9.327,0.559-12.146,2.235-18.18,6.308c-6.433,4.347-12.914,8.437-21.447,10.701
			c-1.631,0.431-3.025,0.779-4.212,1.071c-2.225,0.552-4.527,1.122-4.837,1.517c-0.588,3.019-4.311,11.615-5.778,14.257
			c-0.7,1.263-1.651,2.185-2.651,3.157c-1.498,1.459-3.2,3.115-4.72,6.607c-1.901,4.375,1.986,7.343,2.431,7.667
			c0.499,0.36,0.834,0.926,0.891,1.538c0.018,0.128,1.299,12.961,2.62,21.399c0.921,5.918,26.58,7.712,35.013,8.304
			c1.613,0.114,3.043,0.214,4.222,0.313c2.242,0.188,5.646,0.285,9.828,0.285c14.047,0,32.893-1.111,37.096-2.601
			c5.629-1.997,7.614-1.786,16.547-1.043c1.943,0.164,4.229,0.353,6.962,0.56c15.058,1.125,29.605-3.299,41.57-7.604
			c6.646-2.389,11.388-2.809,15.569-3.176c4.137-0.363,7.4-0.651,11.478-2.771c8.353-4.33,26.32-4.548,29.837-4.548l22.192,0.132
			l99.174-6.667c2.474-3.076,12.139-15.189,17.307-22.864c0.79-1.171,1.403-2.111,1.841-2.816c-1.015-0.417-2.101-1.224-2.857-2.869
			c-1.977-4.3-0.836-7.628,0.735-12.238c0.414-1.218,0.877-2.566,1.344-4.104c1.369-4.539-0.417-7.116-3.375-11.38
			c-0.934-1.342-1.927-2.78-2.904-4.403l-0.887-1.463c-3.393-5.567-3.472-6.108-2.121-14.517l0.151-0.961
			c0.973-6.082,0.931-6.135,0.253-7.011c-0.474-0.612-1.182-1.533-2.038-3.165c-1.521-2.914-4.377-5.952-6.896-8.632
			c-1.787-1.901-3.475-3.697-4.543-5.295c-1.225-1.832-2.253-3.866-3.249-5.834c-1.051-2.079-2.136-4.229-3.439-6.11
			c-2.135-3.072-5.915-4.35-10.889-3.765l-1.834,0.235c-1.836,0.244-3.573,0.473-5.226,0.473c-1.438,0-5.811,0-8.056-4.417
			c-0.68-1.334-1.565-1.854-3.172-1.854c-2.125,0-5.278,0.977-9.925,3.079c-2.979,1.349-3.798,3.042-4.659,4.834
			c-1.265,2.622-2.955,5.863-10.689,4.546c-1.593-0.269-3.145-0.4-4.734-0.4c-4.998,0-9.408,1.351-13.677,2.655
			c-2.545,0.78-5.181,1.583-7.866,2.078c-8.586,1.573-13.413,3.1-19.345,7.999c-4.032,3.332-7.3,4.019-9.929,4.569
			c-1.945,0.409-3.35,0.703-4.802,1.929c-4.891,4.137-11.898,4.535-20.554,4.625c-8.729,0.091-10.999,1.143-13.976,2.855
			c-0.545,0.31-1.203,0.735-1.951,1.216c-3.356,2.148-7.948,5.092-12,5.092c-1.623,0-3.028-0.466-4.176-1.387
			c-0.164-0.129-0.684-0.431-2.008-0.431c-5.453,0-14.168,4.608-15.104,6.146l-0.46,0.764c-1.751,2.935-4.143,6.95-7.515,6.95
			c-0.996,0-2.467-0.367-3.822-2.118c-1.713-2.214-5.6-3-8.412-3c-1.281,0-2.47,0.153-3.261,0.423
			c-0.47,0.16-0.922,0.338-1.388,0.52c-2.086,0.808-4.446,1.73-8.704,1.73c-1.804,0-3.79-0.164-6.062-0.502
			C202.264,180.722,201.591,180.672,200.936,180.672z"/>
	</g>
	<g>
		<path fill="#EAAE48" d="M202.93,267.057c0,0,0.015-9.953-13.95-13.759c-13.962-3.81-25.171-4.02-28.767-7.401
			c-3.603-3.388-6.138-5.507-12.908-6.564s-14.385-1.057-16.502-4.862c-2.114-3.805-8.886-6.557-15.229-6.137
			c-6.348,0.423-9.942-2.749-9.942-2.749s-7.618-4.232-13.118-4.232s-7.827,0.637-10.79,0c-2.961-0.633-3.171-2.961-10.789-3.172
			c-7.614-0.21-8.885,1.268-10.151,5.29c-1.271,4.015-5.714,5.92-9.519,6.767c-3.81,0.847-12.061,3.599-13.332,11.213
			c-1.271,7.614-0.423,13.921-3.809,16.904c-3.385,2.979-5.5,6.787-5.919,12.926c-0.429,6.134-0.211,8.461,1.267,12.271
			c1.48,3.806,1.69,4.019,1.48,8.458c-0.213,4.444,1.058,7.618,4.442,11.637c3.386,4.021,8.251,2.752,13.755,5.924
			c5.496,3.171,8.458,8.464,12.057,12.482c3.592,4.02,12.481,10.787,18.827,12.905c6.344,2.112,10.577,3.171,15.019,6.979
			c4.443,3.806,9.31,7.828,15.655,9.097c6.344,1.269,5.5,0.21,8.253,2.751c2.747,2.537,8.671,6.557,15.861,6.343
			c7.193-0.21,5.503,5.169,11.217,6.077c5.71,0.902,11.455,1.23,14.608-0.833c3.158-2.069,9.929,0.471,13.948-5.664
			c4.018-6.138,20.73-52.042,20.945-53.31C195.753,305.127,202.93,267.057,202.93,267.057z"/>
		<path fill="#3C2517" d="M153.624,369.061L153.624,369.061c-2.222,0-4.816-0.242-7.925-0.732c-3.392-0.539-4.919-2.428-6.037-3.803
			c-1.135-1.406-1.825-2.254-4.431-2.254l-0.959,0.015c-8.606,0-15.015-5.3-16.772-6.925c-1.417-1.31-1.417-1.31-2.994-1.522
			c-0.93-0.124-2.231-0.298-4.222-0.696c-7.119-1.426-12.616-6.135-16.628-9.572c-3.588-3.072-6.966-4.176-12.081-5.846
			l-2.222-0.729c-7.03-2.347-16.144-9.476-19.753-13.509c-1.031-1.157-2.022-2.42-3.025-3.705c-2.41-3.088-4.906-6.272-8.501-8.35
			c-2.107-1.213-4.154-1.703-6.134-2.183c-2.854-0.687-5.809-1.394-8.187-4.218c-3.799-4.502-5.18-8.184-4.944-13.119
			c0.174-3.715,0.103-3.896-1.082-6.922l-0.257-0.661c-1.687-4.343-1.833-7.106-1.41-13.196c0.428-6.201,2.539-10.771,6.646-14.392
			c1.698-1.492,1.976-4.753,2.328-8.881c0.178-2.03,0.373-4.336,0.779-6.764c1.503-9.017,10.979-12.063,14.979-12.954
			c2.517-0.559,6.889-1.99,7.938-5.318c1.541-4.888,3.556-7.044,12.26-6.792c5.603,0.157,7.785,1.453,9.379,2.399
			c0.688,0.409,1.147,0.684,1.802,0.822c1.41,0.303,2.951,0.253,5.062,0.132c1.427-0.082,3.114-0.178,5.278-0.178
			c5.984,0,13.826,4.318,14.161,4.5c0.136,0.078,0.259,0.167,0.377,0.271c0.1,0.088,3.104,2.584,8.38,2.214
			c7.282-0.484,14.74,2.716,17.25,7.237c1.146,2.065,6.198,2.677,10.647,3.218c1.435,0.17,2.887,0.345,4.308,0.569
			c7.251,1.129,10.141,3.446,14.047,7.117c1.683,1.584,6.666,2.498,12.437,3.555c4.546,0.833,9.7,1.781,15.425,3.338
			c15.371,4.19,15.534,15.36,15.534,15.834c0,0.133-0.015,0.264-0.035,0.392c-2.485,13.165-7.223,38.313-7.387,39.301
			c-0.327,1.96-17.215,47.949-21.266,54.138c-3.154,4.808-7.729,5.241-11.074,5.564c-1.445,0.137-2.809,0.27-3.492,0.714
			C159.882,368.441,157.197,369.061,153.624,369.061z M135.231,357.975c4.651,0,6.453,2.224,7.77,3.842
			c0.965,1.195,1.606,1.986,3.372,2.269c6.741,1.07,10.995,0.871,13.1-0.511c1.569-1.028,3.445-1.206,5.438-1.396
			c3.016-0.291,5.867-0.562,7.885-3.646c3.728-5.682,20.062-50.395,20.65-52.608c0.182-1.123,6.663-35.509,7.33-39.024
			c-0.086-1.193-1.068-8.447-12.364-11.526c-5.549-1.515-10.604-2.442-15.067-3.263c-6.967-1.272-12-2.195-14.606-4.645
			c-3.484-3.286-5.592-5.041-11.769-6.006c-1.366-0.214-2.772-0.384-4.157-0.552c-6.006-0.726-11.676-1.409-13.886-5.393
			c-1.698-3.058-7.657-5.415-13.211-5.033c-6.325,0.42-10.316-2.342-11.283-3.101c-1.068-0.573-7.447-3.877-11.919-3.877
			c-2.064,0-3.673,0.093-5.033,0.171c-2.595,0.146-4.396,0.167-6.204-0.221c-1.346-0.285-2.282-0.84-3.104-1.331
			c-1.381-0.822-2.812-1.669-7.297-1.794c-0.445-0.01-0.869-0.018-1.265-0.018c-5.577,0-5.909,1.036-6.781,3.805
			c-1.281,4.047-5.118,6.892-11.102,8.22c-3.15,0.701-10.603,3.029-11.674,9.472c-0.376,2.254-0.558,4.372-0.736,6.422
			c-0.42,4.884-0.779,9.102-3.773,11.736c-3.289,2.902-4.845,6.327-5.196,11.469c-0.409,5.887-0.207,7.9,1.125,11.342l0.259,0.654
			c1.357,3.478,1.577,4.182,1.367,8.68c-0.182,3.828,0.852,6.488,3.94,10.154c1.467,1.743,3.329,2.192,5.906,2.809
			c2.171,0.521,4.631,1.113,7.276,2.642c4.321,2.491,7.2,6.173,9.738,9.421c0.947,1.213,1.869,2.397,2.849,3.486
			c3.288,3.677,11.896,10.294,17.905,12.299l2.188,0.723c5.205,1.697,9.316,3.036,13.549,6.668
			c3.855,3.303,8.657,7.414,14.677,8.621c1.862,0.371,3.082,0.536,3.954,0.654c2.514,0.338,3.083,0.545,5.333,2.623
			c1.47,1.357,6.813,5.782,13.857,5.782L135.231,357.975z"/>
	</g>
	<g>
		<path fill="#F3C067" d="M205.269,294.127c0,0,4.231-11.213,1.904-17.346c-2.325-6.137-1.478-11.639-13.962-13.961
			c-12.484-2.328-23.693-6.981-30.884-2.752c-7.194,4.229-7.408,2.324-11.637,5.285c-4.232,2.965-5.29,4.125-5.923,7.035
			c-0.638,2.91,0,15.807-3.81,18.879c-3.809,3.072-4.229,4.551-4.019,11.744c0.21,7.194,1.48,5.924,0.847,10.79
			c-0.637,4.862-3.264,10.999-0.89,16.923c2.37,5.924,4.699,3.594,4.489,10.789c-0.215,7.194,6.98,19.461,11.846,21.154
			c4.863,1.691,16.5,6.861,19.672,3.536c3.172-3.322,4.229-2.688,8.672-3.536c4.445-0.846,6.346-0.846,8.675-4.23
			c2.324-3.386,4.713-5.789,4.713-5.789"/>
		<path fill="#3C2517" d="M169.497,369.434c-3.881,0-9.046-1.772-14.453-3.806c-0.951-0.358-1.812-0.685-2.521-0.935
			c-5.944-2.062-13.523-15.315-13.288-23.242c0.1-3.467-0.332-3.952-1.281-5.016c-0.833-0.927-1.969-2.197-3.055-4.914
			c-2.008-5.017-0.883-10.113,0.025-14.211c0.291-1.324,0.577-2.598,0.733-3.787c0.284-2.182,0.148-2.778-0.118-3.965
			c-0.271-1.211-0.641-2.869-0.743-6.482c-0.225-7.477,0.22-9.778,4.812-13.48c2.051-1.65,2.468-9.481,2.67-13.244
			c0.107-2.02,0.186-3.476,0.389-4.422c0.797-3.638,2.316-5.197,6.788-8.334c2.3-1.607,3.671-1.996,5.119-2.406
			c1.459-0.416,3.107-0.883,6.664-2.973c6.144-3.607,14.146-1.705,23.42,0.514c2.893,0.69,5.891,1.406,8.944,1.976
			c11.62,2.165,13.146,7.344,14.624,12.353c0.284,0.957,0.573,1.95,0.954,2.963c2.544,6.699-1.439,17.642-1.901,18.865
			c-0.42,1.111-1.662,1.674-2.77,1.25c-1.107-0.418-1.67-1.656-1.253-2.767c1.097-2.913,3.574-11.431,1.907-15.83
			c-0.423-1.11-0.747-2.207-1.06-3.269c-1.359-4.612-2.257-7.655-11.285-9.34c-3.164-0.592-6.212-1.316-9.162-2.022
			c-8.361-1.996-15.588-3.729-20.24-0.989c-4.034,2.371-6.049,2.943-7.672,3.403c-1.277,0.358-2.121,0.603-3.823,1.79
			c-4.08,2.857-4.6,3.64-5.058,5.736c-0.133,0.604-0.21,2.119-0.299,3.729c-0.378,7.117-0.99,13.729-4.258,16.363
			c-3.044,2.459-3.425,3.037-3.222,10.008c0.093,3.203,0.402,4.574,0.647,5.675c0.349,1.562,0.545,2.663,0.182,5.457
			c-0.171,1.31-0.473,2.705-0.797,4.161c-0.858,3.881-1.744,7.898-0.229,11.686c0.806,2.014,1.549,2.842,2.264,3.646
			c1.574,1.755,2.518,3.176,2.375,8.007c-0.189,6.296,6.571,17.728,10.408,19.062c0.737,0.256,1.631,0.59,2.624,0.965
			c3.231,1.217,13.064,4.912,14.787,3.113c2.876-3.008,4.539-3.363,7.476-3.783c0.669-0.092,1.435-0.201,2.349-0.377l1.339-0.248
			c3.375-0.613,4.393-0.795,5.97-3.09c2.406-3.504,4.855-5.981,4.958-6.084c0.837-0.838,2.189-0.854,3.033-0.012
			c0.848,0.833,0.851,2.193,0.018,3.037c-0.021,0.021-2.292,2.322-4.467,5.492c-2.592,3.766-5.04,4.21-8.742,4.884l-1.304,0.237
			c-0.992,0.193-1.822,0.311-2.545,0.412c-2.36,0.338-3.001,0.43-4.973,2.496C173.273,368.928,171.565,369.434,169.497,369.434z"/>
	</g>
	<g>
		<path fill="#EAAE48" d="M310.622,258.357c0,0,2.961-6.75,11.422-6.537c8.462,0.207,16.08-2.751,19.038-5.079
			c2.962-2.328,8.675-8.038,15.869-8.038c7.19,0,19.251-1.057,22.423-3.385c3.172-2.328,10.365-3.175,14.385-5.503
			s7.614-4.015,12.48-4.652c4.869-0.634,17.14-4.656,24.331-1.057c7.193,3.595,12.479,3.809,17.136,6.561
			c4.653,2.748,2.114,1.901,10.152,5.923c8.038,4.016,12.509,6.133,15.245,10.786c2.734,4.651,2.948,5.489,3.796,9.517
			c0.844,4.021,1.058,5.078,3.596,10.795c2.538,5.711,4.866,5.926,4.442,10.363c-0.425,4.443,0.214,7.194-5.5,9.731
			c-5.715,2.538-7.618,1.694-10.365,5.713c-2.752,4.021-0.634,6.135-7.404,10.79c-6.771,4.652-8.038,4.861-10.999,10.152
			c-2.963,5.289-9.522,9.89-14.6,12.771c-5.076,2.884-8.462,4.15-12.479,7.111c-4.02,2.965-15.656,12.486-18.832,15.867
			c-3.171,3.385-11.422,8.887-19.25,11c-7.829,2.117-13.114,6.983-18.403,10.584c-5.29,3.595-14.386,11.633-19.462,12.053
			c-5.075,0.424-5.075,5.308-12.061,2.972c-6.98-2.336-27.498-18.624-27.498-18.624s4.229-82.715,4.229-83.984
			C312.312,282.915,310.622,258.357,310.622,258.357z"/>
		<path fill="#3C2517" d="M338.91,389.57c-1.21,0-2.521-0.24-4.011-0.739c-7.257-2.427-27.305-18.304-28.15-18.978
			c-0.545-0.435-0.848-1.101-0.812-1.791c1.451-28.354,4.199-82.371,4.229-83.897c-0.01-0.99-1.014-15.892-1.688-25.663
			c-0.023-0.344,0.035-0.693,0.179-1.01c0.139-0.32,3.542-7.824,13.001-7.824l1.242,0.014c7.994,0,14.58-2.84,16.854-4.631
			c0.389-0.303,0.823-0.667,1.3-1.067c3.328-2.776,8.899-7.43,15.897-7.43c8.077,0,18.838-1.267,21.152-2.968
			c1.968-1.442,4.869-2.292,7.938-3.197c2.438-0.712,4.955-1.453,6.642-2.431c4.272-2.471,8.167-4.254,13.281-4.92
			c1.016-0.135,2.364-0.427,3.927-0.758c3.593-0.758,8.509-1.797,13.118-1.797c3.441,0,6.229,0.559,8.521,1.705
			c3.479,1.737,6.57,2.673,9.298,3.496c2.805,0.844,5.453,1.645,7.971,3.133c1.766,1.046,2.545,1.594,3.223,2.075
			c1.061,0.748,1.821,1.289,6.799,3.773l0.811,0.409c7.708,3.848,12.356,6.17,15.325,11.217c2.869,4.879,3.157,5.943,4.047,10.159
			c0.834,3.973,1.025,4.897,3.454,10.362c0.9,2.028,1.754,3.273,2.513,4.377c1.308,1.912,2.438,3.563,2.107,7.066
			c-0.054,0.549-0.089,1.074-0.125,1.577c-0.249,3.69-0.483,7.176-6.644,9.913c-1.926,0.852-3.44,1.345-4.658,1.742
			c-2.438,0.789-3.348,1.085-4.807,3.221c-0.771,1.125-1.063,2.043-1.398,3.104c-0.895,2.793-1.883,5.022-6.564,8.24
			c-1.103,0.762-2.063,1.403-2.911,1.969c-4.199,2.812-5.196,3.478-7.43,7.465c-3.459,6.177-11.138,11.162-15.409,13.588
			c-1.809,1.027-3.411,1.854-4.897,2.623c-2.627,1.359-4.898,2.531-7.369,4.354c-3.944,2.907-15.488,12.352-18.539,15.606
			c-3.697,3.946-12.497,9.507-20.254,11.604c-5.75,1.551-10.063,4.709-14.239,7.764c-1.188,0.873-2.354,1.727-3.521,2.517
			c-1.321,0.899-2.885,2.084-4.563,3.354c-5.403,4.08-11.523,8.703-15.927,9.069c-1.432,0.117-2.271,0.728-3.336,1.492
			C343.179,388.4,341.552,389.57,338.91,389.57z M310.283,367.173c6.232,4.896,20.807,15.856,25.982,17.585
			c1.028,0.346,1.918,0.518,2.645,0.518c1.253,0,1.972-0.518,3.062-1.303c1.282-0.923,2.873-2.072,5.489-2.291
			c3.165-0.259,9.252-4.857,13.698-8.219c1.741-1.312,3.367-2.542,4.738-3.472c1.124-0.769,2.249-1.591,3.398-2.431
			c4.281-3.134,9.134-6.685,15.648-8.446c7.429-2.009,15.371-7.327,18.247-10.396c3.257-3.471,14.973-13.065,19.122-16.124
			c2.744-2.025,5.153-3.271,7.945-4.714c1.444-0.743,2.993-1.545,4.748-2.542c3.884-2.199,10.833-6.684,13.783-11.949
			c2.733-4.884,4.383-5.988,8.793-8.938c0.833-0.559,1.776-1.188,2.865-1.939c3.826-2.632,4.297-4.119,4.896-6.002
			c0.39-1.212,0.823-2.582,1.951-4.229c2.29-3.345,4.376-4.021,7.023-4.88c1.186-0.387,2.522-0.82,4.243-1.582
			c3.792-1.688,3.877-2.938,4.102-6.275c0.038-0.541,0.074-1.104,0.131-1.697c0.188-1.951-0.238-2.57-1.377-4.229
			c-0.812-1.191-1.827-2.674-2.891-5.059c-2.613-5.885-2.866-7.105-3.713-11.146c-0.826-3.912-0.951-4.503-3.563-8.949
			c-2.321-3.944-6.308-5.933-13.541-9.547l-0.812-0.409c-5.27-2.634-6.148-3.253-7.362-4.111c-0.611-0.435-1.319-0.936-2.93-1.887
			c-2.067-1.221-4.363-1.912-7.02-2.716c-2.895-0.873-6.17-1.862-9.981-3.767c-1.658-0.833-3.881-1.253-6.6-1.253
			c-4.158,0-8.629,0.947-12.229,1.709c-1.694,0.363-3.161,0.666-4.266,0.808c-4.421,0.577-7.745,2.104-11.68,4.382
			c-2.135,1.239-4.908,2.05-7.586,2.837c-2.577,0.758-5.246,1.542-6.609,2.538c-4.244,3.119-18.543,3.802-23.689,3.802
			c-5.443,0-10.077,3.873-13.144,6.433c-0.516,0.43-0.981,0.818-1.397,1.146c-3.5,2.76-11.328,5.549-19.512,5.549l-1.241-0.018
			c-5.555,0-8.12,3.592-8.854,4.852c0.302,4.336,1.659,24.139,1.659,25.375C314.463,285.428,310.917,354.761,310.283,367.173z"/>
	</g>
	<g>
		<path fill="#F3C067" d="M279.788,300.896c0,0,4.81-7.828,5.235-13.326c0.422-5.502,0.826-8.209,2.539-11.639
			c2.112-4.229,8.037-8.035,10.787-9.943c2.748-1.9,12.694-10.575,18.618-8.885c5.924,1.693,8.038,2.961,10.789,2.543
			c2.748-0.424,11.847,2.322,13.114,5.707c1.271,3.391,7.194,8.258,10.365,8.887c3.176,0.634,4.232,1.273,5.501,6.557
			c1.271,5.291,7.192,9.307,9.098,11.74c1.901,2.436,1.691,3.918,2.114,8.359c0.424,4.444,1.059,5.293,2.749,8.25
			c1.693,2.961,4.371,3.592,2.257,10.152c-2.114,6.553-4.372,1.908-5.006,8.676c-0.634,6.77-1.48,10.998-3.385,15.867
			c-1.904,4.867-2.101,4.652-5.912,10.787c-3.807,6.137-4.029,13.327-6.358,17.346c-2.327,4.021-6.771,8.038-12.27,9.522
			c-5.5,1.481-5.519,8.248-13.651,3.81c-8.138-4.445-10.043-4.867-13.425-4.867c-3.386,0-6.771-3.386-12.484-6.137
			c-5.709-2.746-11.633-6.133-11.209-13.117c0.425-6.979-1.057-10.922-2.751-18.746c-1.689-7.828,5.286-22.08,6.557-26.522
			C294.328,311.473,279.788,300.896,279.788,300.896z"/>
		<path fill="#3C2517" d="M331.025,388.941c-1.662,0-3.523-0.572-5.682-1.752c-8.104-4.424-9.575-4.604-12.396-4.604
			c-2.712,0-5.154-1.513-7.98-3.264c-1.577-0.979-3.364-2.09-5.433-3.084c-4.852-2.336-12.969-6.242-12.424-15.187
			c0.316-5.182-0.473-8.53-1.67-13.604c-0.326-1.385-0.676-2.883-1.039-4.557c-1.424-6.605,2.436-16.582,4.99-23.178
			c0.713-1.845,1.328-3.436,1.604-4.389c0.206-1.731-5.735-7.793-12.475-12.695c-0.908-0.659-1.152-1.902-0.564-2.859
			c0.046-0.072,4.545-7.455,4.923-12.369c0.431-5.555,0.84-8.596,2.759-12.431c2.192-4.384,7.562-8.059,10.768-10.254l0.724-0.495
			c0.396-0.271,0.94-0.689,1.609-1.195c3.799-2.897,10.868-8.287,16.577-8.287c0.791,0,1.545,0.1,2.238,0.303
			c1.826,0.52,3.3,1,4.539,1.408c2.592,0.849,3.881,1.294,5.336,1.072c0.281-0.045,0.611-0.067,0.976-0.067
			c3.605,0,12.809,2.698,14.479,7.146c1.016,2.697,6.391,7.059,8.774,7.535c4.399,0.876,5.806,2.479,7.169,8.163
			c0.766,3.175,3.728,5.989,6.11,8.25c1.049,0.99,1.955,1.851,2.59,2.663c1.992,2.552,2.144,4.438,2.398,7.568l0.163,1.912
			c0.349,3.692,0.771,4.42,2.158,6.832l0.315,0.557c0.331,0.576,0.713,1.048,1.071,1.503c1.897,2.396,3.2,4.681,1.366,10.372
			c-1.174,3.646-2.595,4.674-3.95,5.415c-0.445,0.245-0.737,0.407-0.962,2.806c-0.68,7.227-1.598,11.532-3.523,16.45
			c-1.562,3.993-2.09,4.826-4.062,7.92c-0.541,0.851-1.197,1.879-2.025,3.213c-1.989,3.212-2.959,6.882-3.81,10.118
			c-0.701,2.666-1.367,5.188-2.517,7.176c-2.274,3.932-7.033,8.758-13.57,10.52c-1.436,0.384-2.384,1.289-3.488,2.338
			C335.671,387.26,333.902,388.941,331.025,388.941z M282.6,300.311c5.196,3.947,13.896,11.406,12.526,16.197
			c-0.327,1.143-0.942,2.736-1.728,4.76c-2.225,5.744-5.95,15.367-4.795,20.722c0.356,1.644,0.703,3.114,1.021,4.479
			c1.234,5.247,2.125,9.033,1.777,14.851c-0.311,5.068,3.431,7.893,9.995,11.051c2.273,1.096,4.165,2.271,5.834,3.304
			c2.363,1.464,4.229,2.619,5.717,2.619c3.982,0,6.232,0.64,14.453,5.129c1.49,0.815,2.708,1.226,3.623,1.226
			c1.11,0,1.829-0.633,3.107-1.851c1.271-1.2,2.844-2.703,5.332-3.373c5.271-1.418,9.124-5.33,10.971-8.521
			c0.861-1.483,1.425-3.635,2.079-6.115c0.931-3.532,1.983-7.528,4.314-11.289c0.837-1.352,1.502-2.396,2.051-3.258
			c1.929-3.028,2.274-3.572,3.688-7.18c1.759-4.5,2.608-8.5,3.241-15.289c0.375-3.939,1.36-5.168,3.177-6.162
			c0.604-0.334,1.179-0.646,1.927-2.973c1.278-3.957,0.594-4.818-0.646-6.386c-0.483-0.61-0.985-1.256-1.436-2.04l-0.31-0.54
			c-1.616-2.81-2.288-4.126-2.714-8.567l-0.166-1.975c-0.23-2.867-0.303-3.736-1.499-5.268c-0.44-0.562-1.277-1.355-2.159-2.197
			c-2.649-2.508-6.276-5.947-7.333-10.365c-1.062-4.396-1.482-4.48-3.838-4.951c-4.099-0.817-10.466-6.271-11.953-10.236
			c-0.675-1.799-7.342-4.361-10.456-4.361c-0.12,0-0.23,0.004-0.323,0.018c-2.388,0.367-4.364-0.267-7.326-1.229
			c-1.195-0.396-2.616-0.862-4.378-1.367c-0.313-0.09-0.67-0.132-1.062-0.132c-4.258,0-10.821,5.002-13.976,7.404
			c-0.732,0.559-1.335,1.019-1.767,1.316l-0.739,0.506c-2.679,1.832-7.657,5.239-9.353,8.629c-1.498,2.998-1.894,5.336-2.316,10.843
			C286.829,292.102,284.105,297.578,282.6,300.311z"/>
	</g>
	<g>
		<path fill="#FEE994" d="M199.135,350.825c-7.23,3.049-10.252,5.073-16.076,5.073c-18.46,0-33.425-18.471-33.425-41.252
			c0-22.783,14.965-41.25,33.425-41.25c8.59,0,16.425,3.998,22.349,10.576c0,0,10.65,14.385,40.267,15.231
			c29.617,0.848,40.616-1.69,45.696-7.194c5.076-5.501,14.385-24.113,39.77-18.613c25.39,5.496,27.73,34.691,27.502,38.926
			c-0.17,3.215,2.964,57.115-38.077,53.73c-11.341-0.301-24.964-11.424-30.46-13.539c-5.504-2.113-37.553-9.994-68.123-6.807
			C213.359,346.393,206.36,347.773,199.135,350.825z"/>
		<path fill="#3C2517" d="M324.181,368.355c-1.225,0-2.483-0.054-3.795-0.164c-8.372-0.215-17.69-5.881-24.497-10.018
			c-2.727-1.656-5.08-3.085-6.559-3.656c-4.253-1.633-27.186-7.41-52.256-7.41c-5.172,0-10.173,0.25-14.872,0.736
			c-9.074,0.723-15.709,2.204-22.234,4.959c-1.474,0.619-2.773,1.203-3.959,1.729c-4.738,2.112-7.87,3.514-12.95,3.514
			c-19.613,0-35.572-19.468-35.572-43.399c0-23.931,15.959-43.396,35.572-43.396c8.89,0,17.394,4.004,23.943,11.285
			c0.224,0.287,10.672,13.719,38.732,14.521c3.713,0.104,7.131,0.157,10.282,0.157c19.363,0,29.467-1.989,33.776-6.661
			c0.698-0.753,1.478-1.775,2.378-2.945c4.995-6.498,13.354-17.365,30.091-17.365c2.965,0,6.108,0.354,9.334,1.054
			c29.214,6.33,29.211,40.795,29.193,41.14c-0.011,0.188-0.008,0.557-0.004,1.088c0.157,26.396-7.322,39.49-13.619,45.826
			c-5.938,5.975-13.67,9.002-22.982,9.006H324.181L324.181,368.355z M237.074,342.812c25.451,0,48.665,5.723,53.798,7.696
			c1.841,0.71,4.226,2.158,7.248,3.994c6.394,3.89,15.148,9.209,22.501,9.401c1.303,0.107,2.448,0.154,3.56,0.154h0.003
			c8.128-0.004,14.834-2.606,19.938-7.74c5.724-5.756,12.517-17.853,12.366-42.771c0-0.657,0-1.116,0.011-1.346
			c0.018-0.306-0.402-31.203-25.814-36.707c-2.927-0.634-5.76-0.958-8.423-0.958c-14.623,0-21.882,9.441-26.684,15.686
			c-0.993,1.291-1.858,2.409-2.631,3.244c-5.344,5.789-15.698,8.043-36.932,8.043c-3.189,0-6.646-0.053-10.405-0.16
			c-30.312-0.863-41.472-15.478-41.935-16.101c-5.593-6.202-12.964-9.707-20.618-9.707c-17.25,0-31.275,17.541-31.275,39.104
			s14.025,39.104,31.275,39.104c4.165,0,6.665-1.115,11.199-3.141c1.211-0.541,2.535-1.129,4.041-1.766
			c6.973-2.943,14.003-4.521,23.512-5.279C226.602,343.068,231.752,342.812,237.074,342.812z"/>
	</g>
	<g>
		<path fill="#D08C29" d="M394.606,141.811c0,0-6.349,11.847,0,26.232c6.347,14.384,11.422,33.849,16.502,35.963
			c5.076,2.115,17.771,14.77,23.692,14.154"/>
		<path fill="#3C2517" d="M434.386,220.328c-4.53,0-10.649-4.656-16.581-9.166c-3.037-2.314-5.905-4.499-7.521-5.172
			c-4.076-1.698-6.991-9.138-11.793-22.145c-1.861-5.044-3.784-10.259-5.851-14.933c-6.69-15.168-0.206-27.595,0.071-28.114
			c0.56-1.047,1.853-1.446,2.908-0.879c1.043,0.559,1.438,1.856,0.884,2.903l0,0c-0.062,0.109-5.753,11.167,0.067,24.356
			c2.113,4.796,4.063,10.075,5.95,15.18c3.06,8.291,6.867,18.606,9.409,19.667c2.129,0.887,5.072,3.125,8.479,5.72
			c4.489,3.417,11.355,8.572,14.172,8.28c1.16-0.1,2.23,0.733,2.355,1.915c0.121,1.182-0.736,2.235-1.914,2.356
			C434.816,220.317,434.603,220.328,434.386,220.328z"/>
	</g>
	<g opacity="0.69">
		<path fill="#D08C29" d="M65.862,246.901c-0.104,0-0.199-0.011-0.3-0.028c-0.771-0.164-1.267-0.926-1.106-1.698
			c0.175-0.818,0.029-1.836-0.106-2.827c-0.245-1.749-0.521-3.734,0.875-5.247c1.325-1.435,3.771-1.968,7.906-1.733
			c11.192,0.645,19.906,5.257,20.272,5.457c0.695,0.374,0.958,1.239,0.58,1.94c-0.37,0.691-1.234,0.954-1.933,0.587
			c-0.085-0.049-8.547-4.517-19.079-5.126c-4.034-0.224-5.27,0.417-5.646,0.819c-0.442,0.481-0.35,1.42-0.14,2.912
			c0.163,1.171,0.35,2.503,0.075,3.809C67.119,246.438,66.521,246.901,65.862,246.901z"/>
	</g>
	<g>
		<path fill="#D08C29" d="M51.2,281.916c-0.381,0-0.766-0.102-1.146-0.35c-0.619-0.412-2.506-1.659,0.694-11.366
			c0.245-0.755,1.054-1.168,1.808-0.911c0.748,0.245,1.157,1.053,0.911,1.805c-0.961,2.918-1.634,6.012-1.683,7.524
			c0.071-0.052,0.146-0.117,0.228-0.188c0.595-0.52,1.498-0.462,2.018,0.137c0.523,0.59,0.463,1.498-0.131,2.018
			C53.467,280.956,52.378,281.916,51.2,281.916z"/>
	</g>
	<g opacity="0.69">
		<path fill="#D08C29" d="M82.362,268.057c-0.051,0-0.107-0.004-0.161-0.008c-0.782-0.089-1.349-0.794-1.268-1.581
			c0.019-0.155,0.457-3.801,3.269-5.11c1.99-0.934,4.485-0.409,7.411,1.541c0.659,0.438,0.841,1.328,0.398,1.983
			c-0.438,0.657-1.331,0.833-1.986,0.398c-2.007-1.339-3.603-1.806-4.612-1.328c-1.329,0.614-1.628,2.808-1.631,2.83
			C83.703,267.516,83.084,268.057,82.362,268.057z"/>
	</g>
	<g>
		<path fill="#D08C29" d="M124.473,271.68c-3.779,0-7.824-1.779-8.439-2.062c-0.716-0.327-1.033-1.179-0.704-1.897
			c0.33-0.716,1.182-1.027,1.896-0.707c1.812,0.829,7.521,2.818,9.91,1.172c0.338-0.229,1.349-0.926,1.182-3.613
			c-0.1-1.596-0.455-2.666-1-3.016c-0.762-0.49-2.413,0.146-3.62,0.608c-1.467,0.562-2.851,1.097-3.898,0.178
			c-1.007-0.882-0.657-2.343-0.544-2.819c0.186-0.771,0.958-1.26,1.73-1.061c0.608,0.146,1.032,0.662,1.089,1.254
			c0.202-0.076,0.412-0.152,0.602-0.225c1.772-0.682,4.211-1.616,6.189-0.348c1.389,0.896,2.147,2.61,2.311,5.248
			c0.179,2.857-0.634,4.931-2.417,6.154C127.546,271.377,126.032,271.68,124.473,271.68z"/>
	</g>
	<g opacity="0.69">
		<path fill="#D08C29" d="M91.997,300.631c-2.335,0-4.456-2.271-7.083-5.102c-0.605-0.646-1.231-1.322-1.887-1.992
			c-0.854-0.879-1.413-0.77-1.616-0.721c-1.958,0.41-4.151,4.682-4.905,6.684c-0.277,0.738-1.107,1.116-1.844,0.833
			c-0.741-0.278-1.114-1.104-0.837-1.845c0.3-0.778,2.987-7.633,6.999-8.473c1.05-0.215,2.634-0.135,4.249,1.52
			c0.674,0.688,1.318,1.379,1.938,2.049c1.895,2.031,4.025,4.357,5.104,4.178c0.416-0.063,0.939-0.689,1.436-1.717
			c0.344-0.711,1.202-1.009,1.91-0.667c0.713,0.341,1.011,1.194,0.673,1.91c-0.968,2.004-2.143,3.083-3.591,3.303
			C92.36,300.621,92.18,300.631,91.997,300.631z"/>
	</g>
	<g>
		<path fill="#D08C29" d="M98.583,324.343c-0.392,0-0.801-0.005-1.235-0.015c-0.79-0.016-1.416-0.67-1.398-1.463
			c0.018-0.787,0.693-1.387,1.463-1.398c2.484,0.053,5.091-0.136,6.361-0.432c-0.452-0.979-0.502-2.118-0.128-3.289
			c0.569-1.784,2.071-3.436,3.495-3.842c0.363-0.103,0.986-0.194,1.751-0.291c2.002-0.264,5.728-0.752,6.412-2.459
			c0.292-0.737,1.128-1.094,1.861-0.799c0.733,0.297,1.09,1.129,0.798,1.861c-1.307,3.264-5.935,3.872-8.703,4.232
			c-0.581,0.074-1.054,0.129-1.332,0.207c-0.299,0.088-1.21,0.875-1.552,1.957c-0.296,0.916,0.049,1.342,0.159,1.483
			c0.784,0.98,0.48,1.866,0.313,2.204C106.593,322.818,105.842,324.343,98.583,324.343z"/>
	</g>
	<g opacity="0.69">
		<path fill="#D08C29" d="M382.34,275.461c-0.024,0-0.047,0-0.067,0c-5.375-0.254-10.812-8.072-11.712-13.021
			c-0.07-0.401-0.231-0.56-0.451-0.67c-1.502-0.769-5.646,0.53-8.1,1.707c-0.72,0.348-1.565,0.034-1.908-0.675
			c-0.341-0.716-0.038-1.569,0.674-1.911c1.199-0.574,7.348-3.351,10.636-1.674c1.062,0.547,1.745,1.48,1.969,2.71
			c0.787,4.325,5.483,10.509,9.024,10.677c0.793,0.035,1.401,0.707,1.362,1.494C383.73,274.864,383.097,275.461,382.34,275.461z"/>
	</g>
	<g>
		<path fill="#D08C29" d="M394.57,306.466c-5.738,0-7.352-9.835-7.52-10.979c-0.113-0.778,0.428-1.508,1.211-1.621
			c0.801-0.127,1.511,0.424,1.627,1.205c0.42,2.859,2.196,8.75,4.83,8.525c1.305-0.086,1.876-0.812,2.855-2.207
			c1.384-1.955,3.25-4.635,8.725-3.596c0.776,0.148,1.285,0.896,1.141,1.677c-0.15,0.772-0.888,1.278-1.679,1.136
			c-3.646-0.694-4.562,0.623-5.849,2.438c-1.014,1.438-2.281,3.231-5.001,3.41C394.799,306.461,394.681,306.466,394.57,306.466z"/>
	</g>
	<g opacity="0.69">
		<path fill="#D08C29" d="M415.972,275.461c-0.548,0-1.075-0.316-1.31-0.857c-0.677-1.541-1.6-2.5-2.82-2.924
			c-2.353-0.811-5.104,0.635-5.129,0.648c-0.698,0.377-1.566,0.113-1.939-0.581c-0.373-0.692-0.12-1.556,0.572-1.937
			c0.153-0.086,3.846-2.062,7.411-0.844c2,0.688,3.524,2.196,4.528,4.489c0.316,0.726-0.016,1.569-0.736,1.887
			C416.359,275.421,416.168,275.461,415.972,275.461z"/>
	</g>
	<g opacity="0.69">
		<path fill="#D08C29" d="M422.108,253.671c-0.471,0-0.93-0.228-1.203-0.651c-0.432-0.66-0.242-1.549,0.42-1.979l0.46-0.296
			c0.872-0.564,2.335-1.509,2.354-1.829c0.022-0.32-0.529-1.363-4.438-4.681c-6.037-5.119-12.521-0.174-12.794,0.04
			c-0.619,0.484-1.521,0.374-2.008-0.254c-0.487-0.622-0.373-1.52,0.253-2.006c2.95-2.296,10.177-5.24,16.398,0.039
			c3.788,3.218,5.571,5.09,5.446,7.052c-0.117,1.751-1.602,2.716-3.659,4.046l-0.452,0.289
			C422.646,253.598,422.376,253.671,422.108,253.671z"/>
	</g>
	<g>
		<path fill="#D08C29" d="M439.241,289.848c-0.385,0-0.77-0.15-1.05-0.462c-0.537-0.581-0.503-1.487,0.082-2.021
			c1.12-1.125,0.326-9.776-1.698-18.512c-0.178-0.772,0.303-1.543,1.071-1.72c0.782-0.176,1.542,0.302,1.72,1.071
			c1.268,5.461,3.883,18.464,0.847,21.262C439.938,289.725,439.591,289.848,439.241,289.848z"/>
	</g>
	<g>
		<path fill="#D08C29" d="M391.345,340.373c-4.04,0-7.995-5.005-8.45-5.604c-0.479-0.625-0.362-1.523,0.265-2.004
			c0.623-0.48,1.522-0.367,2.007,0.264c1.432,1.863,4.464,4.71,6.419,4.465c0.826-0.107,1.542-0.863,2.125-2.248
			c0.231-0.548,0.815-0.84,1.374-0.875c8.301,0.382,10.707-4.721,11.747-6.873c0.323-0.663,0.517-1.062,0.943-1.346
			c0.657-0.438,1.548-0.266,1.985,0.395c0.374,0.562,0.299,1.289-0.139,1.764c-0.059,0.104-0.125,0.258-0.214,0.437
			c-1.029,2.126-4.093,8.454-13.48,8.502c-0.984,1.837-2.316,2.871-3.979,3.09C391.744,340.363,391.544,340.373,391.345,340.373z"/>
	</g>
	<g>
		<path fill="#BF7A2A" d="M171.896,216.441c-0.136,0-0.271-0.021-0.409-0.061c-0.758-0.228-1.188-1.025-0.961-1.783
			c0.381-1.271,0.291-2.307-0.267-3.161c-1.371-2.104-5.112-2.62-5.148-2.624c-0.786-0.096-1.341-0.812-1.245-1.594
			c0.1-0.784,0.836-1.339,1.595-1.247c0.207,0.025,5.083,0.659,7.197,3.898c1.033,1.581,1.242,3.446,0.613,5.546
			C173.081,216.039,172.515,216.441,171.896,216.441z"/>
	</g>
	<g>
		<path fill="#BF7A2A" d="M201.669,213.689c-0.202,0-0.412-0.046-0.608-0.139c-0.716-0.338-1.021-1.189-0.684-1.904
			c0.136-0.285,3.357-7.013,8.319-8.472c1.972-0.577,3.923-0.281,5.795,0.89c3.382,2.115,4.022,1.606,5.19,0.68
			c0.9-0.719,2.14-1.705,4.317-1.851c0.787-0.011,1.474,0.544,1.527,1.331c0.054,0.79-0.545,1.474-1.331,1.527
			c-1.288,0.085-1.958,0.616-2.73,1.231c-1.919,1.531-3.76,2.471-8.497-0.491c-1.156-0.726-2.286-0.915-3.46-0.573
			c-3.094,0.908-5.771,5.325-6.54,6.952C202.723,213.387,202.206,213.689,201.669,213.689z"/>
	</g>
	<g>
		<path fill="#BF7A2A" d="M227.121,247.88c-3.242,0-7.768-3.488-9.227-4.685c-0.609-0.506-0.698-1.406-0.192-2.019
			c0.495-0.608,1.398-0.701,2.012-0.199c3.032,2.492,6.667,4.386,7.635,4.013c0.079-0.033,0.156-0.254,0.189-0.538
			c0.271-2.222,1.082-4.557,1.801-6.618c0.808-2.321,1.812-5.211,1.101-5.998c-0.531-0.584-0.488-1.492,0.099-2.022
			c0.588-0.53,1.492-0.487,2.022,0.096c1.858,2.047,0.705,5.361-0.52,8.871c-0.701,2.011-1.428,4.101-1.659,6.012
			c-0.224,1.886-1.328,2.595-1.965,2.851C228.021,247.805,227.584,247.88,227.121,247.88z"/>
	</g>
	<g>
		<path fill="#BF7A2A" d="M268.521,254.939c-0.729,0-1.355-0.56-1.424-1.303c-0.32-3.461-1.652-9.595-3.873-11.313
			c-0.463-0.359-0.918-0.487-1.449-0.398c-3.118,0.513-4.301-0.466-5.321-1.606c-0.627-0.697-1.075-1.195-4.243-0.28
			c-0.775,0.223-1.557-0.217-1.776-0.973c-0.217-0.762,0.217-1.556,0.977-1.776c4.521-1.317,5.927-0.274,7.169,1.111
			c0.579,0.644,0.899,1,2.729,0.697c1.303-0.22,2.576,0.118,3.67,0.964c3.926,3.037,4.873,12.271,4.97,13.318
			c0.075,0.785-0.511,1.479-1.296,1.556C268.609,254.939,268.562,254.939,268.521,254.939z"/>
	</g>
	<g>
		<path fill="#BF7A2A" d="M275.291,214.746c-0.156,0-0.316-0.021-0.475-0.078c-0.746-0.263-1.143-1.079-0.879-1.823
			c0.535-1.53-0.166-2.435-1.801-4.332c-1.287-1.491-2.887-3.346-3.717-6.094c-0.188-0.633-0.488-0.808-0.758-0.897
			c-1.915-0.637-6.586,1.929-9.288,3.944c-0.634,0.473-1.528,0.349-2-0.289c-0.474-0.633-0.345-1.531,0.285-2.004
			c1.284-0.961,7.892-5.671,11.899-4.368c0.891,0.289,2.064,1.011,2.603,2.784c0.653,2.167,1.919,3.638,3.144,5.051
			c1.69,1.965,3.442,3.994,2.336,7.147C276.438,214.376,275.882,214.746,275.291,214.746z"/>
	</g>
	<g>
		<path fill="#BF7A2A" d="M305.966,232.303c-0.168,0-0.335-0.029-0.498-0.089c-0.741-0.274-1.119-1.097-0.844-1.837
			c0.405-1.104,2.616-6.635,6.15-7.408c0.985-0.214,2.487-0.153,4.028,1.392c1.446,1.449,2.686,0.961,4.757-0.024
			c1.658-0.791,4.436-2.111,6.075,1.003c0.371,0.702,0.102,1.566-0.601,1.937c-0.695,0.363-1.561,0.1-1.935-0.602
			c-0.306-0.581-0.361-0.68-2.311,0.249c-2.021,0.958-5.065,2.403-8.013-0.537c-0.759-0.766-1.214-0.655-1.393-0.624
			c-1.495,0.328-3.288,3.475-4.08,5.607C307.091,231.947,306.545,232.303,305.966,232.303z"/>
	</g>
	<g>
		<path fill="#BF7A2A" d="M315.167,195.706c-0.462,0-0.891-0.225-1.152-0.588c-0.3-0.245-1.199-0.861-2.004-1.41
			c-6.54-4.471-10.07-7.375-10.007-9.913c0.024-0.894,0.487-1.663,1.311-2.165c2.273-1.388,3.659-1.637,4.884-1.854
			c0.925-0.167,1.727-0.313,2.986-1.025c0.039-0.021,0.105-0.061,0.159-0.271c0.428-1.714-1.735-6.19-3.413-8.821
			c-0.424-0.667-0.225-1.552,0.438-1.978c0.666-0.418,1.552-0.226,1.979,0.44c0.784,1.232,4.65,7.55,3.773,11.049
			c-0.229,0.918-0.754,1.637-1.526,2.072c-1.68,0.954-2.854,1.164-3.891,1.349c-1.072,0.192-2.082,0.374-3.896,1.484
			c0.153,0.84,3.102,3.36,8.817,7.269c2.506,1.712,2.826,1.933,2.954,2.694c0.133,0.776-0.396,1.517-1.174,1.648
			C315.324,195.702,315.245,195.706,315.167,195.706z"/>
	</g>
	<g>
		<path fill="#BF7A2A" d="M375.354,190.843c-0.793,0-1.434-0.641-1.434-1.435c0-0.566-0.186-0.762-2.019-1.36
			c-1.858-0.605-4.399-1.438-5.511-4.496c-0.064-0.182-0.143-0.256-0.329-0.312c-2.085-0.662-8.328,2.784-12.096,5.436
			c-0.646,0.456-1.54,0.307-1.992-0.345c-0.457-0.645-0.304-1.538,0.342-1.993c1.709-1.203,10.437-7.127,14.604-5.831
			c1.039,0.328,1.79,1.043,2.161,2.068c0.637,1.749,2.058,2.214,3.709,2.752c1.684,0.552,3.994,1.307,3.994,4.083
			C376.786,190.202,376.146,190.843,375.354,190.843z"/>
	</g>
	<g>
		<path fill="#BF7A2A" d="M415.972,175.821c-0.67,0-1.264-0.47-1.402-1.15c-0.954-4.771,0.565-9.132,1.908-12.982
			c0.854-2.449,1.658-4.763,1.658-6.762c0-3.732-5.55-6.879-7.688-7.776c-0.729-0.306-1.074-1.144-0.766-1.874
			c0.303-0.729,1.14-1.08,1.872-0.765c0.389,0.161,9.444,4.036,9.444,10.415c0,2.483-0.883,5.019-1.815,7.705
			c-1.28,3.674-2.604,7.472-1.805,11.477c0.152,0.776-0.346,1.529-1.125,1.685C416.157,175.814,416.062,175.821,415.972,175.821z"/>
	</g>
	<g>
		<path fill="#BF7A2A" d="M438.202,196.563c-0.117,0-0.238-0.004-0.36-0.014c-0.786-0.075-1.37-0.769-1.296-1.56
			c0.071-0.79,0.776-1.374,1.558-1.296c0.397-0.238,0.52-2.121-2.36-6.211c-0.313-0.445-0.544-0.68-0.69-0.805
			c-0.591,0.83-1.214,3.788-1.358,6.614c-0.04,0.79-0.698,1.392-1.506,1.353c-0.791-0.039-1.396-0.712-1.354-1.502
			c0.16-3.158,0.834-8.572,3.485-9.337c1.302-0.367,2.56,0.31,3.77,2.029c2.904,4.129,3.842,7.344,2.717,9.298
			C440.271,196.055,439.33,196.563,438.202,196.563z"/>
	</g>
</g>
</svg>
