<svg id="music_therapy" data-name="music therapy" xmlns="http://www.w3.org/2000/svg" viewBox="0 0 300 300"><defs><style>.cls-1{fill:#ef1443;}.cls-2{fill:#251f1e;}.cls-3{fill:#fcf7af;}.cls-4{fill:#583a17;}.cls-5{fill:#f0df13;}</style></defs><title>music therapy</title><path class="cls-1" d="M40.39,220.5c0,19.34,48,35,107.2,35s107.19-15.7,107.19-35V150.43l-166-5-48.39,5Z"/><path class="cls-2" d="M147.59,257.83c-53.82,0-109.49-14-109.49-37.33V148.36l50.59-5.24h.16l168.23,5.08v72.3c0,23.37-55.67,37.33-109.49,37.33M42.69,152.5v68c0,15.81,42.15,32.74,104.9,32.74s104.9-16.93,104.9-32.74V152.66L88.86,147.72Z"/><path class="cls-3" d="M254.78,150.43c0,19.34-48,35-107.19,35s-107.2-15.7-107.2-35,48-35,107.2-35,107.19,15.7,107.19,35"/><path class="cls-2" d="M147.59,187.76c-53.82,0-109.49-14-109.49-37.33s55.67-37.34,109.49-37.34,109.49,14,109.49,37.34-55.67,37.33-109.49,37.33m0-70.07c-62.75,0-104.9,16.93-104.9,32.74s42.15,32.74,104.9,32.74,104.9-16.93,104.9-32.74-42.16-32.74-104.9-32.74"/><path class="cls-1" d="M123.08,123.1c2.23,2.3,2.59,5.56.82,7.28s-5,1.26-7.25-1L42.34,52.79c-2.23-2.3-2.6-5.56-.82-7.28s5-1.26,7.25,1Z"/><path class="cls-2" d="M121.16,133.72A8.75,8.75,0,0,1,115,131L40.69,54.39c-3.11-3.2-3.45-7.93-.77-10.53a6.15,6.15,0,0,1,4.33-1.69A8.72,8.72,0,0,1,50.41,45l74.32,76.55a9,9,0,0,1,2.54,5.2A6.32,6.32,0,0,1,125.5,132a6.18,6.18,0,0,1-4.34,1.69m-76.91-87a1.59,1.59,0,0,0-1.13.4c-.74.72-.57,2.55.87,4l74.31,76.55a4.18,4.18,0,0,0,2.86,1.38,1.6,1.6,0,0,0,1.14-.39,1.87,1.87,0,0,0,.41-1.51,4.52,4.52,0,0,0-1.28-2.52L47.12,48.15a4.2,4.2,0,0,0-2.87-1.39"/><path class="cls-4" d="M196.56,150.43c0,5.68-21.93,10.28-49,10.28s-49-4.6-49-10.28,21.93-10.29,49-10.29,49,4.61,49,10.29"/><path class="cls-2" d="M147.59,163c-13.24,0-25.7-1.09-35.1-3.06-10.88-2.29-16.17-5.4-16.17-9.52s5.29-7.24,16.17-9.52c9.4-2,21.86-3.06,35.1-3.06s25.7,1.08,35.1,3.06c10.88,2.28,16.17,5.39,16.17,9.52s-5.29,7.23-16.17,9.52c-9.4,2-21.87,3.06-35.1,3.06m0-20.56c-29.24,0-46.17,5.28-46.68,8,.51,2.69,17.44,8,46.68,8s46.17-5.28,46.67-8c-.5-2.68-17.43-8-46.67-8"/><path class="cls-5" d="M115.42,136.39a10.4,10.4,0,1,0,.56-14.7,10.39,10.39,0,0,0-.56,14.7"/><path class="cls-2" d="M123,142h0a12.7,12.7,0,1,1,9.31-21.32A12.7,12.7,0,0,1,123,142m0-20.79a8.12,8.12,0,1,0,5.94,2.6,8,8,0,0,0-5.94-2.6"/><path class="cls-1" d="M180.68,135.37c-2.32,2.22-2.8,5.46-1.08,7.25s5,1.44,7.28-.78l77-73.83c2.31-2.22,2.8-5.46,1.08-7.25s-5-1.43-7.28.78Z"/><path class="cls-2" d="M182.47,146.06h0a6.19,6.19,0,0,1-4.53-1.85,6.35,6.35,0,0,1-1.58-5.39,9,9,0,0,1,2.73-5.11l77-73.83a8.81,8.81,0,0,1,6-2.56,6.18,6.18,0,0,1,4.52,1.85c2.59,2.7,2.07,7.41-1.14,10.49l-77,73.84a8.88,8.88,0,0,1-6,2.56m79.64-84.14a4.33,4.33,0,0,0-2.83,1.28l-77,73.83a4.5,4.5,0,0,0-1.37,2.46,1.88,1.88,0,0,0,.35,1.54,1.71,1.71,0,0,0,1.22.43,4.28,4.28,0,0,0,2.82-1.28l77-73.83c1.48-1.43,1.72-3.25,1-4a1.65,1.65,0,0,0-1.21-.43"/><path class="cls-5" d="M187.85,148.92a10.39,10.39,0,1,1,0-14.7,10.38,10.38,0,0,1,0,14.7"/><path class="cls-2" d="M180.49,154.28a12.7,12.7,0,1,1,9-3.74,12.62,12.62,0,0,1-9,3.74m0-20.8a8.1,8.1,0,0,0,0,16.2,8,8,0,0,0,5.73-2.39,8.09,8.09,0,0,0-5.73-13.81"/><path class="cls-2" d="M130.57,257.39h-.06a2.29,2.29,0,0,1-2-1.19l-39.4-71.92-35.32,53.3a2.3,2.3,0,0,1-4.17-.79L38.15,183.08a2.3,2.3,0,1,1,4.49-1L53,230.48l34.41-51.91a2.3,2.3,0,0,1,3.93.16l39.35,71.81L172,184.25a2.32,2.32,0,0,1,1.92-1.08,2.35,2.35,0,0,1,1.95,1l38.74,58.05,21.22-73.63a2.3,2.3,0,0,1,4.32-.28l16.79,38.13a2.3,2.3,0,0,1-4.21,1.85L238.44,176l-20.83,72.28a2.32,2.32,0,0,1-1.86,1.64,2.29,2.29,0,0,1-2.26-1L174,189.71l-41.45,66.6a2.3,2.3,0,0,1-2,1.08"/></svg>