<?xml version="1.0" encoding="utf-8"?>
<!-- Generator: Adobe Illustrator 16.0.0, SVG Export Plug-In . SVG Version: 6.00 Build 0)  -->
<!DOCTYPE svg PUBLIC "-//W3C//DTD SVG 1.1//EN" "http://www.w3.org/Graphics/SVG/1.1/DTD/svg11.dtd">
<svg version="1.1" id="Layer_1" xmlns="http://www.w3.org/2000/svg" xmlns:xlink="http://www.w3.org/1999/xlink" x="0px" y="0px"
	 width="500px" height="500px" viewBox="0 0 500 500" enable-background="new 0 0 500 500" xml:space="preserve">
<g id="Layer_1_copy_48">
	<g>
		<path fill="#E8DFBA" d="M450.438,265.926c0,103.651-92.123,187.675-205.752,187.675c-113.637,0-205.757-84.022-205.757-187.675
			c0-103.648,92.12-187.672,205.757-187.672C358.312,78.254,450.438,162.278,450.438,265.926z"/>
		<path fill="#3C2517" d="M244.685,455.939c-114.749,0-208.097-85.237-208.097-190.014c0-104.77,93.348-190.009,208.097-190.009
			c114.738,0,208.089,85.239,208.089,190.009C452.773,370.702,359.423,455.939,244.685,455.939z M244.685,80.591
			c-112.17,0-203.419,83.142-203.419,185.335c0,102.196,91.249,185.338,203.419,185.338c112.161,0,203.415-83.142,203.415-185.338
			C448.1,163.732,356.846,80.591,244.685,80.591z"/>
	</g>
	<g>
		<path fill="#CCBF8B" d="M215.462,124.014c0,0-3.506-4.674-15.194,1.95c-11.685,6.62-30.388,8.57-33.506,15.971
			c-3.111,7.402-8.566,18.309-11.685,29.61c-3.119,11.298-20.648,20.258-20.648,26.101s-8.571,29.998-8.571,34.674
			c0,4.674-3.896,12.857-4.678,17.531c-0.774,4.676-3.892,40.125-3.892,44.022s-7.792,16.753-7.792,21.816
			c0,5.062-9.739,39.737-9.739,43.638c0,3.893-4.287,8.565,0,17.522c4.284,8.965,3.505,21.432,3.505,21.432l8.571,7.402
			c0,0-0.779-15.195,1.945-28.437c2.728-13.247,1.95-30.003,3.9-37.795c1.946-7.791,5.451-29.604,11.294-41.294
			c5.846-11.688,4.677-30.774,4.677-44.025c0-13.244,10.13-45.191,11.688-45.191c1.556,0,25.323-37.011,29.997-43.245
			c4.674-6.232,23.377-20.258,31.166-22.986c7.792-2.728,12.375-11.294,12.375-11.294s9.052-3.119,9.052-4.291
			C227.928,125.964,215.462,124.014,215.462,124.014z"/>
	</g>
	<g>
		<path fill="#CCBF8B" d="M240.007,136.817c0,0-7.015,28.882-8.18,31.609c-1.172,2.728-2.337,34.288-3.899,37.012
			c-1.557,2.724-6.229,10.907-6.229,14.025c0,0-9.354,27.656-9.354,33.111c0,5.459,0,19.871,0,24.546c0,4.678-1.165,17.534,0,27.661
			c1.171,10.131-0.519,37.009-0.519,37.009s-2.206,27.666-2.206,34.677c0,7.012-1.95,19.868,0,25.707
			c1.95,5.846-1.734,16.758-0.865,20.649c0.865,3.898-0.357,8.572-0.135,13.638c0.223,5.065-0.027,11.301-0.027,11.301
			s9.598,1.947,11.935,1.947c2.337,0-0.186-22.986-1.65-27.271c-1.465-4.289-0.481,5.841,0-12.082
			c0.482-17.914,0.872-20.647,2.041-30.388c1.172-9.737,0-14.411,7.011-39.345c7.015-24.934-1.165-55.321-1.557-58.439
			c-0.39-3.115,1.17-23.765,4.675-33.894c3.505-10.125,4.287-21.04,5.064-24.936c0.782-3.893,4.284-17.527,3.896-26.488
			c-0.387-8.964,1.229-14.807,0.03-19.093c-1.199-4.284,0.357-12.854,2.306-17.141c1.95-4.283,7.015-23.817,7.015-23.817h-9.352
			V136.817z"/>
	</g>
	<g>
		<path fill="#CCBF8B" d="M271.562,139.208l13.803,18.699c0,0-0.168,19.868,2.169,25.713c2.337,5.846,11.302,34.281,11.302,39.736
			s-1.169,26.104,0,33.119c1.165,7.01,5.062,40.127,5.062,44.412c0,4.283,9.352,13.635,3.898,38.956
			c-5.455,25.323-1.259,42.472,1.703,46.753c2.971,4.284,7.254,5.449,4.918,14.805c-2.337,9.348-0.22,26.487,0.67,29.216
			c0.889,2.733,0,8.964,0,8.964l12.184-5.064c0,0-4.283-48.31-4.283-56.102s-5.842-12.082-3.505-37.008
			c2.336-24.938,0.391-44.471-1.169-48.146c-1.561-3.67-5.455,0.613-5.455-20.812c0-21.428-1.947-28.441-1.558-42.076
			c0.393-13.635-1.947-26.882-4.677-33.502c-2.728-6.627-6.627-8.964-7.209-19.48c-0.579-10.52-9.931-25.323-11.101-26.883
			c-1.168-1.555-1.948-19.867-7.014-21.813c-5.064-1.95-14.412-8.964-14.412-3.9S271.562,139.208,271.562,139.208z"/>
	</g>
	<g>
		<path fill="#CCBF8B" d="M284.8,120.649c0,0,24.553,3.364,25.725,8.819c1.169,5.452,26.098,33.894,28.827,35.84
			c2.729,1.946,27.66,22.986,29.607,24.545c1.949,1.559,33.893,29.61,33.893,37.011c0,7.402,1.172,24.889,4.287,37.183
			c3.114,12.295,7.405,20.861,9.742,36.45c2.333,15.584,1.168,42.854,0,47.919c-1.173,5.064-0.395,16.75-0.395,16.75l8.964-15.968
			c0,0-1.343-8.966-4.287-17.925c-2.942-8.961,4.287-32.336,4.287-40.129c0-7.789-5.455-24.541-7.401-34.283
			c-1.95-9.738-3.118-25.323-5.846-34.671c-2.729-9.352,1.168-13.638-11.298-22.208c-12.468-8.57-31.946-29.61-34.675-36.23
			c-2.728-6.621-7.404-1.559-14.021-9.351c-6.623-7.789-17.145-10.517-19.48-13.244c-2.337-2.728-15.972-3.119-16.362-12.466
			c-0.391-9.352-4.673-7.402-13.247-10.129c-8.569-2.728-33.643-6.637-25.71,0C285.339,125.196,284.8,120.649,284.8,120.649z"/>
	</g>
	<g>
		<path fill="#CCBF8B" d="M270.454,109.979c0,0,18.245-8.563,26.624-4.664c8.381,3.896,17.339,5.593,20.457,1.825
			c3.117-3.772,10.126-3.469,13.244-2.842c3.117,0.626,12.079-0.381,12.079-0.381l-15.59-7.563c0,0-33.503,2.725-38.173,2.725
			c-4.677,0-17.8,0.771-18.643,4.088c-0.838,3.317-5.516,13.446-5.516,13.446L270.454,109.979z"/>
	</g>
	<g>
		<path fill="#CCBF8B" d="M233.383,114.905c0,0-21.147-4.135-24.791-3.745c-3.646,0.391-21.181,2.725-26.633,5.452
			s-13.635,2.34-26.101,8.96c-12.47,6.621-22.212,2.337-30.001,12.857s-12.854,12.075-20.646,19.868
			c-7.792,7.792-9.354,3.118-14.803,12.466c-5.456,9.352-11.691,10.52-17.146,12.079c-5.452,1.559-12.467,16.362-13.244,18.699
			c-0.778,2.337-8.571,6.233-8.571,6.233l9.739-21.817c0,0,11.297-11.685,21.039-22.986c9.739-11.294,18.696-8.96,22.205-16.75
			c3.509-7.792,12.079-13.247,20.649-17.14c8.569-3.899,18.309-6.626,24.15-8.573c5.847-1.946,7.793-5.119,19.481-9.375
			c11.688-4.26,11.297-6.991,23.764-6.991c12.47,0,21.817,0,23.376,0c1.56,0,7.052-0.485,13.123,2.34
			c6.067,2.826,7.729-2.259,8.792,2.96C238.838,114.662,233.383,114.905,233.383,114.905z"/>
	</g>
	<g>
		<path fill="#CCBF8B" d="M222.476,81.938c0,0,2.479,7.26,6.499,9.671c4.018,2.404,6.449,3.967,8.935,6.304
			c2.486,2.337,1.703,4.041,3.656,6.199c1.953,2.158,5.847,10.792,5.847,10.792s5.524,0.148,4.707-8.422
			c-0.815-8.57-0.088-12.217-5.517-14.874c-5.428-2.657-8.034-2.657-9.263-4.997c-1.229-2.337-2.789-4.674-2.789-4.674
			S232.605,78.432,222.476,81.938z"/>
	</g>
	<g>
		<path fill="#9B9E37" d="M265.798,60.831c0,0,5.149-16.019-12.012-14.301c-17.157,1.714-8.011,20.02-8.011,20.02
			s5.196,45.534-8.009,42.895c-11.435-2.287-28.596,17.732-12.008,21.736c16.584,4.003,54.909,11.439,58.913-2.287
			c4.004-13.729-10.297-18.877-17.733-19.45C259.508,108.874,265.798,60.831,265.798,60.831z"/>
		<path fill="#3C2517" d="M264.68,139.154c-0.003,0,0,0-0.003,0c-13.79,0-30.647-3.573-39.467-5.701
			c-8.617-2.081-8.887-7.859-8.604-10.25c0.942-7.913,10.85-16.278,19.275-16.278c0.805,0,1.596,0.081,2.347,0.229
			c0.717,0.142,1.4,0.307,2.451-0.872c4.65-5.213,4.206-26.562,2.819-39.085c-0.903-1.959-4.466-10.54-1.011-16.803
			c1.97-3.569,5.69-5.654,11.065-6.189c0.956-0.094,1.847-0.142,2.681-0.142c4.815,0,8.345,1.489,10.49,4.432
			c3.454,4.742,1.754,11.489,1.366,12.827c-2.923,22.437-3.26,43.208-0.761,45.813c4.688,0.407,13.493,2.741,17.852,9.038
			c2.629,3.806,3.213,8.304,1.736,13.376C285.057,135.921,277.573,139.154,264.68,139.154z M235.882,111.602
			c-6.364,0-14.032,7.132-14.628,12.153c-0.115,0.943-0.458,3.822,5.051,5.152c8.621,2.081,25.067,5.57,38.372,5.573h0.003
			c7.268,0,16.244-1.085,17.75-6.247c1.081-3.697,0.721-6.775-1.095-9.402c-2.979-4.307-9.646-6.677-14.574-7.058
			c-0.812-0.061-1.995-0.401-3.022-1.67c-0.975-1.192-5.543-9.2-0.258-49.579c0.018-0.138,0.045-0.279,0.092-0.414
			c0.49-1.553,1.334-6.189-0.633-8.876c-1.476-2.007-4.412-2.825-8.92-2.377c-3.752,0.371-6.254,1.65-7.437,3.788
			c-2.209,4.018,0.175,10.645,1.283,12.86c0.125,0.242,0.202,0.505,0.232,0.778c0.396,3.512,3.694,34.566-3.927,43.11
			c-1.461,1.633-3.307,2.499-5.327,2.502h-0.004c-0.491,0-1-0.054-1.531-0.158C236.857,111.645,236.38,111.602,235.882,111.602z"/>
	</g>
</g>
</svg>
