<?xml version="1.0" encoding="utf-8"?>
<!-- Generator: Adobe Illustrator 16.0.0, SVG Export Plug-In . SVG Version: 6.00 Build 0)  -->
<!DOCTYPE svg PUBLIC "-//W3C//DTD SVG 1.1//EN" "http://www.w3.org/Graphics/SVG/1.1/DTD/svg11.dtd">
<svg version="1.1" id="Layer_1" xmlns="http://www.w3.org/2000/svg" xmlns:xlink="http://www.w3.org/1999/xlink" x="0px" y="0px"
	 width="500px" height="500px" viewBox="0 0 500 500" enable-background="new 0 0 500 500" xml:space="preserve">
<g id="Layer_1_copy_60">
	<g>
		<path fill="#F9CCA0" d="M44.544,192.983c0,0-10.651,70.789,8.933,90.787c20.178,20.606,75.191,71.989,353.548,32.395
			c0,0,49.19-7.193,51.192-33.193c1.998-25.996-3.815-53.631-3.815-53.631l-73.373-7.163l-182.771-27.593L44.544,192.983z"/>
		<path fill="#3C2517" d="M229.618,333.743c-0.004,0-0.008,0-0.019,0c-116.46-0.003-156.442-25.585-178.267-47.872
			c-20.393-20.828-10.201-90.381-9.759-93.333c0.221-1.479,1.496-2.676,3.001-2.551l153.713,1.597c0.141,0,0.28,0.013,0.414,0.034
			l182.774,27.593l73.219,7.146c1.304,0.124,2.376,1.082,2.645,2.368c0.243,1.141,5.877,28.354,3.868,54.475
			c-2.16,28.069-51.643,35.627-53.748,35.935C339.31,328.83,279.479,333.743,229.618,333.743z M47.157,196.007
			c-1.643,12.76-7.823,69.035,8.463,85.663c21.001,21.447,59.756,46.066,173.979,46.07h0.019c49.582,0,109.121-4.893,176.983-14.542
			c0.453-0.069,46.831-7.153,48.626-30.459c1.624-21.164-2.066-43.7-3.344-50.631l-71.146-6.945L198.013,197.58L47.157,196.007z"/>
	</g>
	<g>
		<path fill="#B8272E" d="M214.255,141.79c0,0-119.983-50.79-157.181,11.999c-37.189,62.789,13.199,121.583,87.987,133.579
			c74.79,12,235.621,13.6,291.562-27.593c55.936-41.196-34.794-68.793-37.197-68.793C397.03,190.981,244.613,155.886,214.255,141.79
			z"/>
		<path fill="#3C2517" d="M252.771,297.777c0,0-0.01,0-0.018,0c-39.254,0-78.681-2.715-108.168-7.446
			c-44.435-7.128-81.18-31.047-95.891-62.426c-11.277-24.043-9.272-50.202,5.8-75.645c12.918-21.81,36.519-32.865,70.145-32.865
			c43.893,0,88.889,18.833,90.782,19.635c29.378,13.641,177.622,48.096,184.273,48.968l-0.004,0.018
			c4.399,0.705,49.2,14.443,56.963,38.071c3.977,12.11-2.168,24.257-18.256,36.104C394.79,294.311,294.075,297.777,252.771,297.777z
			 M124.641,125.393c-31.357,0-53.219,10.067-64.979,29.927c-14.015,23.653-15.93,47.875-5.538,70.042
			c13.887,29.603,48.911,52.228,91.415,59.047c29.187,4.681,68.268,7.37,107.217,7.37c0.004,0,0.014,0,0.021,0
			c86.006,0,152.363-12.545,182.069-34.422c13.093-9.64,18.646-19.057,16.512-27.981c-4.97-20.763-48.557-34.798-52.249-35.414
			l0.004-0.038c-7.774-1.593-155.486-35.184-186.121-49.41C212.63,144.361,167.289,125.393,124.641,125.393z"/>
	</g>
	<g>
		<path fill="#FFE8D4" d="M216.868,173.185c0,0-21.398-21.198-34.196,3.799c-11.184,21.845-6.397,19.999-31.194,22.398
			c-24.801,2.399-54.191,22.794-18.599,39.997c39.84,19.248,55.395-15.598,84.589-4.003c29.192,11.598,71.996,26.647,79.589,7.201
			c3.2-8.2-8-18.62-39.994-29.419C225.068,202.362,234.865,189.585,216.868,173.185z"/>
		<path fill="#3C2517" d="M278.337,254.945h-0.004c-17.487,0-42.306-8.967-61.977-16.78c-3.74-1.486-7.391-2.212-11.145-2.212
			c-7.204,0-13.955,2.703-21.102,5.562c-8.338,3.335-16.956,6.782-27.601,6.782c-8.116,0-16.271-2.033-24.938-6.219
			c-16.753-8.096-19.026-16.738-17.99-22.563c2.188-12.244,21.227-21.533,37.604-23.12l4.359-0.408
			c15.218-1.417,15.218-1.417,20.51-12.383c1.079-2.236,2.352-4.875,3.948-7.985c5.849-11.422,13.521-13.821,18.929-13.821
			c10.579,0,19.664,8.877,20.045,9.257c7.128,6.489,10.155,12.563,12.825,17.921c4.183,8.393,7.487,15.017,26.218,21.34
			c23.584,7.961,37.512,16.22,41.399,24.554c1.375,2.948,1.525,5.987,0.429,8.795C296.928,251.15,289.688,254.945,278.337,254.945z
			 M205.212,229.955c4.528,0,8.898,0.861,13.364,2.634c19.169,7.616,43.283,16.355,59.757,16.355h0.004
			c8.759,0,13.962-2.437,15.925-7.457c0.502-1.296,0.42-2.592-0.277-4.079c-1.781-3.823-9.076-11.684-37.879-21.405
			c-21.081-7.114-25.253-15.487-29.67-24.35c-2.555-5.126-5.203-10.43-11.588-16.248c-0.163-0.159-7.827-7.605-15.914-7.605
			c-5.433,0-10.004,3.551-13.591,10.551c-1.57,3.066-2.822,5.662-3.886,7.865c-6.511,13.492-7.457,14.08-25.354,15.747l-4.334,0.408
			c-15.736,1.521-30.819,10.028-32.281,18.204c-1.224,6.852,7.318,12.538,14.699,16.102c7.833,3.786,15.135,5.625,22.324,5.625
			c9.486,0,17.562-3.229,25.368-6.357C189.58,232.862,196.854,229.955,205.212,229.955z"/>
	</g>
</g>
</svg>
