<?xml version="1.0" encoding="utf-8"?>
<!-- Generator: Adobe Illustrator 16.0.0, SVG Export Plug-In . SVG Version: 6.00 Build 0)  -->
<!DOCTYPE svg PUBLIC "-//W3C//DTD SVG 1.1//EN" "http://www.w3.org/Graphics/SVG/1.1/DTD/svg11.dtd">
<svg version="1.1" id="Layer_1" xmlns="http://www.w3.org/2000/svg" xmlns:xlink="http://www.w3.org/1999/xlink" x="0px" y="0px"
	 width="500px" height="500px" viewBox="0 0 500 500" enable-background="new 0 0 500 500" xml:space="preserve">
<g id="Layer_1_copy_2">
	<g>
		<path fill="#3059A7" d="M168.499,372.773l-22.211,78.012c10.83,13.793,74.486,11.457,74.486,11.457s13.868-43.793,18.841-28.984
			c4.966,14.816,2.3,31.32,2.3,31.32l70.691-3.519l-9.357-91.833l-35.497-39.33L168.499,372.773z"/>
		<path fill="#27140E" d="M241.915,466.691c-0.601,0-1.174-0.252-1.576-0.707c-0.429-0.474-0.616-1.115-0.513-1.744
			c0.025-0.162,2.517-16.187-2.219-30.314c-0.331-0.979-0.619-1.406-0.766-1.567c-2.686,0.998-9.075,14.813-14.051,30.526
			c-0.272,0.851-1.044,1.439-1.939,1.474c-0.042,0-4.178,0.147-10.398,0.147c-25.584,0-57.772-2.146-65.829-12.416
			c-0.418-0.531-0.555-1.231-0.37-1.881l22.212-78.012c0.175-0.609,0.612-1.115,1.193-1.363l99.253-42.877
			c0.83-0.363,1.8-0.15,2.406,0.518l35.503,39.33c0.299,0.338,0.486,0.76,0.531,1.201l9.357,91.842
			c0.059,0.576-0.12,1.148-0.499,1.591c-0.38,0.438-0.925,0.707-1.499,0.731l-70.694,3.521
			C241.983,466.691,241.947,466.691,241.915,466.691z M236.969,428.087c2.085,0,3.648,1.512,4.654,4.496
			c3.954,11.799,3.257,24.436,2.705,29.756l65.946-3.283l-9.062-88.93l-34.015-37.688l-96.938,41.879l-21.618,75.931
			c6.426,6.299,29.278,10.029,61.811,10.029c3.954,0,7.052-0.06,8.761-0.105C228.195,432.298,234.179,428.087,236.969,428.087z"/>
	</g>
	<g>
		<g>
			<path fill="#F4BE78" d="M298.737,337.408c0,0,1.818,20.512,5.539,36.189c-61.084,21.381-135.777-0.824-135.777-0.824l8.235-36.17
				l37.163-57.961L298.737,337.408z"/>
		</g>
		<g>
			<path fill="#27140E" d="M243.439,385.007c-40.744,0-75.2-10.104-75.544-10.202c-1.066-0.318-1.706-1.414-1.459-2.505
				l8.235-36.172c0.052-0.231,0.148-0.467,0.278-0.668l37.167-57.967c0.308-0.479,0.801-0.816,1.365-0.929
				c0.567-0.108,1.148,0.008,1.622,0.332l84.836,58.771c0.516,0.355,0.847,0.928,0.903,1.549c0.021,0.209,1.854,20.545,5.488,35.893
				c0.25,1.052-0.334,2.129-1.359,2.484C287.132,381.835,266.43,385.007,243.439,385.007z M171.013,371.275
				c7.7,2.07,37.741,9.498,72.427,9.498c21.748,0,41.36-2.881,58.347-8.562c-2.976-13.363-4.664-29.504-5.062-33.623l-82.229-56.961
				l-35.782,55.807L171.013,371.275z"/>
		</g>
	</g>
	<g>
		<g>
			<path fill="#F4BE78" d="M215.52,169.23c0,0-1.206,22.777-15.367,19.863c-10.567-2.176,22.97,55.174,22.97,55.174l34.627-26.749
				l25.617-19.143L273.05,185.99c0,0-18.866-1.012-14.565-11.652c4.304-10.642-7.207-25.794-7.207-25.794L215.52,169.23z"/>
		</g>
		<g>
			<path fill="#27140E" d="M223.122,246.383c-0.133,0-0.27-0.013-0.402-0.045c-0.597-0.11-1.115-0.48-1.424-1.005
				c-8.689-14.862-28.493-50.128-24.728-56.696c0.774-1.351,2.267-1.979,4.012-1.615c0.69,0.143,1.362,0.216,1.991,0.216
				c9.737,0,10.827-17.937,10.837-18.12c0.039-0.712,0.435-1.361,1.054-1.717l35.753-20.685c0.926-0.537,2.102-0.295,2.744,0.551
				c0.499,0.658,12.184,16.243,7.482,27.866c-0.877,2.17-0.383,3.349,0.059,4.048c2.16,3.396,10.064,4.559,12.665,4.698
				c0.584,0.029,1.133,0.307,1.509,0.758l10.32,12.387c0.373,0.446,0.545,1.026,0.479,1.604c-0.068,0.576-0.373,1.098-0.838,1.447
				l-25.619,19.143l-34.6,26.719C224.043,246.227,223.589,246.383,223.122,246.383z M200.158,191.249
				c-0.312,5.198,11.495,28.979,23.58,49.866l32.717-25.271l23.859-17.826l-8.316-9.985c-3.046-0.276-11.836-1.505-15.068-6.583
				c-1.002-1.581-1.892-4.236-0.408-7.904c3.063-7.575-3.254-18.264-5.869-22.195l-33.111,19.156
				c-0.454,4.606-2.912,20.961-14.969,20.961C201.79,191.468,200.979,191.393,200.158,191.249z"/>
		</g>
	</g>
	<g>
		<path fill="#F58020" d="M176.484,336.604l-0.95-81.853l-15.419,33.043l-42.658-27.765c0,0,15.841-33.114,32.636-52.795
			c16.801-19.675,52.316-23.997,52.316-23.997s2.744,33.344,33.6,35.516c30.857,2.175,36.804-34.708,36.804-34.708
			s35.517,4.322,52.313,23.995c16.798,19.683,32.639,52.795,32.639,52.795l-42.653,27.771l-15.42-33.052l-0.953,81.853
			L176.484,336.604z"/>
		<path fill="#27140E" d="M298.737,339.523c-0.004,0-0.011,0-0.011,0l-122.255-0.806c-1.154-0.008-2.089-0.94-2.102-2.09
			l-0.847-72.567l-11.488,24.631c-0.26,0.557-0.746,0.973-1.337,1.141c-0.59,0.162-1.226,0.072-1.738-0.266l-42.658-27.764
			c-0.889-0.578-1.213-1.727-0.752-2.687c0.652-1.362,16.152-33.589,32.934-53.254c17.139-20.072,52.188-24.543,53.673-24.725
			c0.564-0.073,1.142,0.095,1.59,0.46c0.447,0.361,0.727,0.892,0.771,1.464c0.007,0.081,0.729,8.12,5.054,16.251
			c5.669,10.656,14.615,16.486,26.586,17.328c0.831,0.06,1.645,0.087,2.439,0.087c11.012,0,19.743-5.462,25.941-16.233
			c4.762-8.271,6.176-16.706,6.188-16.788c0.182-1.121,1.211-1.895,2.346-1.763c1.481,0.18,36.527,4.651,53.666,24.72
			c16.784,19.67,32.285,51.894,32.938,53.256c0.457,0.959,0.133,2.106-0.752,2.687l-42.661,27.77
			c-0.513,0.338-1.147,0.422-1.734,0.26c-0.592-0.168-1.077-0.584-1.338-1.141l-11.49-24.631l-0.848,72.568
			C300.835,338.596,299.895,339.523,298.737,339.523z M178.576,334.501l118.072,0.776l0.924-79.75
			c0.017-0.984,0.707-1.827,1.671-2.043c0.97-0.207,1.945,0.279,2.364,1.175l14.388,30.84l39.045-25.416
			c-3.438-6.937-17.232-33.927-31.523-50.671c-13.868-16.241-41.534-21.752-49.044-22.981c-1.881,7.98-10.576,36.45-38.613,34.433
			c-13.386-0.94-23.791-7.752-30.096-19.694c-3.309-6.271-4.651-12.353-5.167-15.518c-7.729,1.278-35.117,6.824-48.893,22.958
			c-14.293,16.75-28.085,43.735-31.522,50.669l39.044,25.416l14.392-30.84c0.419-0.896,1.404-1.381,2.364-1.174
			c0.964,0.207,1.654,1.059,1.668,2.043L178.576,334.501z"/>
	</g>
	<g>
		<g>
			<path fill="#F4BE78" d="M184.83,75.957c0,0-11.645,18.248-11.793,30.928c-0.149,12.676,14.641,11.271,14.641,11.271
				s-5.349,43.467,31.653,52.145c37.008,8.692,77.274,8.91,97.469-45.006c14.034-4.505,11.09-16.432,11.09-16.432
				s-2.514-7.45-7.731-5.147c-5.196,2.31-49.123-69.481-49.123-69.481l-41.685,3.971L184.83,75.957z"/>
		</g>
		<g>
			<path fill="#27140E" d="M251.616,176.727c-9.539,0-20.259-1.429-32.769-4.368c-33.249-7.799-33.907-42.569-33.446-52.064
				c-3.075-0.126-7.837-0.911-11.106-4.223c-2.283-2.31-3.418-5.409-3.373-9.213c0.152-13.131,11.635-31.275,12.124-32.041
				c0.113-0.178,0.253-0.339,0.415-0.477l44.521-37.749c0.33-0.281,0.739-0.453,1.167-0.493l41.685-3.973
				c0.792-0.083,1.583,0.314,2.005,1.002c19.425,31.745,42.013,65.51,47.036,68.422c0.75-0.263,1.496-0.396,2.232-0.396
				c4.273,0,6.904,4.419,7.79,7.03c0.08,0.302,3.148,13.493-11.473,18.788C305.601,160.449,283.736,176.727,251.616,176.727z
				 M187.671,116.038c0.571,0,1.123,0.232,1.524,0.642c0.441,0.46,0.659,1.096,0.584,1.73c-0.013,0.105-1.252,10.699,1.92,22.122
				c4.165,14.985,13.623,24.308,28.114,27.707c12.189,2.864,22.595,4.255,31.803,4.255c30.446,0,51.12-15.684,63.202-47.945
				c0.224-0.606,0.717-1.075,1.329-1.273c12.021-3.856,9.788-13.501,9.688-13.908c-0.317-0.903-1.81-3.983-3.729-3.983
				c-0.331,0-0.704,0.089-1.098,0.263c-0.355,0.157-0.685,0.232-1.161,0.233c-1.906,0-5.191-0.219-28.522-35.719
				c-9.658-14.699-18.857-29.562-21.403-33.699l-39.71,3.783l-43.764,37.108c-1.397,2.254-11.167,18.426-11.297,29.553
				c-0.032,2.669,0.675,4.693,2.15,6.19c2.663,2.693,7.243,2.985,9.092,2.985c0.639,0,1.044-0.034,1.09-0.039
				C187.545,116.041,187.613,116.038,187.671,116.038z"/>
		</g>
	</g>
	<g>
		<path fill="#4C230D" d="M294.936,76.273c-4.604,8.579,19.342,32.074,26.383,30.049c7.039-2.03,6.896-8.344,1.689-49.459
			c-5.209-41.109-50.695-47.173-74.956-40.792C208.06,4.51,179.543,37.525,178.797,62.92c-18.138,18.46,0.749,35.654,0.749,35.654
			s8.709,11.384,13.854,3.655c5.141-7.728,7.998-25.181,3.943-29.77c14.109,0.921,21.086-6.534,20.895-13.296
			c11.975,6.996,24.281,7.615,41.183-4.38C259.42,54.782,286.766,80.667,294.936,76.273z"/>
		<path fill="#27140E" d="M320.371,108.562c-6.799,0-19.444-11.406-25.033-20.744c-2.054-3.433-3.095-6.425-3.107-8.939
			c-9.651-0.508-27.725-16.519-33.004-21.386c-8.707,5.91-16.656,8.788-24.246,8.788c-4.985,0-9.925-1.242-15.021-3.78
			c-0.581,2.225-1.794,4.335-3.552,6.148c-3.577,3.68-9.127,5.79-15.705,5.987c2.135,7.841-1.238,22.292-5.546,28.765
			c-1.998,3.002-4.45,3.631-6.156,3.631c-5.222,0-10.08-5.832-11.021-7.029c-1.193-1.135-8.867-8.829-9.159-19.438
			c-0.182-6.555,2.472-12.786,7.895-18.533c1.2-24.039,23.858-50.455,55.106-50.455c5.326,0,10.794,0.773,16.256,2.301
			c5.424-1.367,11.605-2.089,17.914-2.089c25.834,0,54.931,11.771,59.118,44.807c5.125,40.475,5.887,49.135-3.204,51.759
			C321.429,108.492,320.912,108.562,320.371,108.562z M294.936,74.157c0.545,0,1.09,0.214,1.496,0.62
			c0.657,0.66,0.811,1.675,0.366,2.498c-0.851,1.589-0.059,4.641,2.173,8.373c5.546,9.268,17.125,18.682,21.4,18.682
			c0.185,0,0.298-0.021,0.363-0.039c5.209-1.503,5.229-7.233,0.175-47.161c-3.84-30.309-30.888-41.108-54.918-41.108
			c-6.173,0-12.189,0.725-17.404,2.097c-0.367,0.096-0.763,0.091-1.123-0.016c-5.271-1.521-10.531-2.293-15.643-2.293
			c-20.681,0-50.053,17.948-50.909,47.173c-0.013,0.534-0.228,1.041-0.604,1.422c-4.963,5.05-7.405,10.438-7.259,16.013
			c0.246,9.445,7.85,16.523,7.92,16.593c0.092,0.084,0.182,0.177,0.254,0.274c1.103,1.431,4.891,5.517,7.777,5.517
			c0.633,0,1.596-0.18,2.634-1.745c5.222-7.843,7.08-23.849,4.126-27.196c-0.571-0.644-0.694-1.563-0.318-2.335
			c0.38-0.769,1.197-1.237,2.037-1.177c6.986,0.463,12.578-1.236,15.893-4.65c1.836-1.888,2.815-4.189,2.751-6.476
			c-0.022-0.769,0.373-1.487,1.031-1.881c0.668-0.388,1.485-0.393,2.147-0.005c5.43,3.172,10.557,4.712,15.679,4.712
			c7.093,0,14.689-2.941,23.217-8.991c0.822-0.583,1.945-0.509,2.679,0.188c6.292,5.955,24.276,21.414,31.815,21.414l0,0
			c0.516,0,0.934-0.084,1.242-0.25C294.251,74.241,294.592,74.157,294.936,74.157z"/>
	</g>
</g>
</svg>
