<?xml version="1.0" encoding="utf-8"?>
<!-- Generator: Adobe Illustrator 16.0.0, SVG Export Plug-In . SVG Version: 6.00 Build 0)  -->
<!DOCTYPE svg PUBLIC "-//W3C//DTD SVG 1.1//EN" "http://www.w3.org/Graphics/SVG/1.1/DTD/svg11.dtd">
<svg version="1.1" id="Layer_1" xmlns="http://www.w3.org/2000/svg" xmlns:xlink="http://www.w3.org/1999/xlink" x="0px" y="0px"
	 width="500px" height="500px" viewBox="0 0 500 500" enable-background="new 0 0 500 500" xml:space="preserve">
<g id="Layer_1_copy_8">
	<g>
		<path fill="#EBD2A2" d="M31.168,253.573c0,0,255.589-157.048,270.006-179.97l4.229,124.798l-224.99,153.16L31.168,253.573z"/>
		<path fill="#3C2517" d="M80.412,354.986c-0.292,0-0.578-0.034-0.858-0.106c-0.962-0.252-1.766-0.897-2.204-1.778l-49.241-97.987
			c-0.804-1.593-0.252-3.533,1.268-4.462c70.899-43.565,257.417-160.627,268.892-178.875c0.806-1.275,2.343-1.877,3.802-1.485
			c1.45,0.391,2.479,1.687,2.528,3.194l4.233,124.798c0.035,1.176-0.526,2.287-1.502,2.951L82.341,354.395
			C81.77,354.791,81.096,354.986,80.412,354.986z M35.652,254.846l46.062,91.674l220.191-149.894L298.02,81.878
			C258.967,116.942,62.441,238.349,35.652,254.846z"/>
	</g>
	<g>
		<path fill="#F49A23" d="M131.393,163.075c0,0,2.627,13.07,8.656,18.492c6.029,5.423,11.893,12.144,18.411,20.55
			c6.527,8.405,5.805,16.484,13.384,21.089c7.571,4.6,16.493-10.858,19.075-20.042c2.584-9.183,4.533-23.51,11.794-30.047
			c7.247-6.533,16.951-23.057,1.792-24.647c-15.153-1.6-53.696,5.966-66.813,6.501C124.571,155.5,130.516,159.584,131.393,163.075z"
			/>
		<path fill="#D77E28" d="M174.728,226.616L174.728,226.616c-1.479,0-2.902-0.41-4.223-1.213c-5.096-3.097-6.928-7.459-8.864-12.073
			c-1.312-3.126-2.668-6.357-5.211-9.637c-6.973-8.985-12.553-15.221-18.102-20.212c-6.59-5.931-9.346-19.328-9.462-19.898
			c-0.081-0.319-0.436-0.966-0.777-1.586c-0.89-1.636-2.107-3.873-0.822-6.142c1.254-2.211,4.242-3.212,10.319-3.46
			c4.745-0.188,13.312-1.383,22.384-2.65c13.693-1.904,29.216-4.07,39.615-4.07c1.964,0,3.712,0.076,5.194,0.233
			c6.601,0.697,8.989,3.949,9.84,6.555c2.317,7.139-4.557,17.495-10.186,22.567c-5.162,4.65-7.534,14.543-9.439,22.495
			c-0.543,2.256-1.062,4.408-1.6,6.334C191.39,210.985,183.91,226.616,174.728,226.616z M132.003,158.353
			c0.157,0.355,0.417,0.827,0.605,1.177c0.476,0.863,1.007,1.842,1.276,2.92c0.719,3.522,3.472,13.231,7.88,17.203
			c5.792,5.207,11.564,11.645,18.73,20.887c2.956,3.81,4.516,7.525,5.89,10.8c1.743,4.156,3.122,7.435,6.793,9.663
			c0.512,0.315,1.02,0.463,1.55,0.463c4.51,0,11.309-10.449,13.717-19c0.525-1.868,1.024-3.953,1.545-6.141
			c2.179-9.093,4.649-19.399,10.998-25.123c5.225-4.705,10.073-13.043,8.738-17.149c-0.201-0.629-0.827-2.539-5.489-3.028
			c-1.304-0.135-2.866-0.207-4.651-0.207c-10.044,0-25.374,2.138-38.901,4.025c-9.605,1.334-17.89,2.493-22.89,2.696
			C134.177,157.688,132.626,158.097,132.003,158.353z"/>
	</g>
	<g>
		<path fill="#F49A23" d="M330.835,73.493c0,0,2.628,13.064,8.657,18.489c6.029,5.427,11.892,12.144,18.411,20.552
			c6.523,8.406,5.805,16.482,13.38,21.087c7.57,4.602,16.497-10.86,19.081-20.044c2.582-9.183,4.532-23.508,11.783-30.042
			c7.256-6.533,16.954-23.057,1.797-24.649c-15.148-1.597-53.691,5.966-66.814,6.5C324.012,65.916,329.955,70,330.835,73.493z"/>
		<path fill="#D77E28" d="M374.172,137.03L374.172,137.03c-1.482,0-2.903-0.408-4.223-1.213c-5.101-3.095-6.93-7.453-8.865-12.072
			c-1.312-3.127-2.669-6.362-5.211-9.634c-6.982-9.001-12.565-15.232-18.101-20.215c-6.587-5.929-9.346-19.328-9.457-19.896
			c-0.087-0.316-0.437-0.963-0.777-1.588c-0.896-1.633-2.116-3.869-0.832-6.139c1.254-2.21,4.245-3.212,10.321-3.459
			c4.747-0.191,13.314-1.385,22.391-2.65c13.689-1.91,29.211-4.073,39.607-4.073c1.962,0,3.711,0.079,5.186,0.236
			c6.604,0.694,9.003,3.949,9.852,6.557c2.322,7.144-4.564,17.494-10.192,22.564c-5.154,4.646-7.526,14.538-9.433,22.486
			c-0.538,2.26-1.056,4.411-1.598,6.338C390.835,121.403,383.351,137.03,374.172,137.03z M331.446,68.769
			c0.157,0.356,0.412,0.827,0.605,1.176c0.473,0.865,1.007,1.845,1.28,2.918c0.71,3.527,3.469,13.235,7.88,17.208
			c5.772,5.193,11.552,11.633,18.727,20.884c2.955,3.811,4.515,7.525,5.89,10.8c1.749,4.154,3.123,7.436,6.789,9.664
			c0.517,0.312,1.02,0.464,1.555,0.464c4.506,0,11.309-10.449,13.715-19.003c0.526-1.869,1.026-3.956,1.547-6.146
			c2.18-9.089,4.649-19.393,10.993-25.112c5.226-4.707,10.073-13.039,8.738-17.149c-0.201-0.628-0.822-2.541-5.49-3.03
			c-1.303-0.137-2.864-0.207-4.648-0.207c-10.042,0-25.37,2.136-38.899,4.021c-9.6,1.338-17.889,2.495-22.893,2.7
			C333.621,68.104,332.071,68.513,331.446,68.769z"/>
	</g>
	<g>
		<path fill="#F49A23" d="M360.114,134.83c0,0,2.628,13.064,8.657,18.487c6.028,5.427,11.888,12.144,18.41,20.554
			c6.527,8.401,5.806,16.483,13.381,21.083c7.573,4.605,16.496-10.859,19.075-20.041c2.588-9.184,4.537-23.511,11.792-30.043
			c7.256-6.535,16.951-23.057,1.793-24.649c-15.148-1.597-53.69,5.966-66.811,6.5C353.294,127.252,359.233,131.334,360.114,134.83z"
			/>
		<path fill="#D77E28" d="M403.446,198.37L403.446,198.37c-1.479,0-2.897-0.409-4.224-1.213c-5.09-3.096-6.92-7.458-8.858-12.067
			c-1.312-3.131-2.669-6.366-5.212-9.642c-6.987-9-12.566-15.234-18.105-20.217c-6.582-5.925-9.341-19.325-9.457-19.894
			c-0.082-0.318-0.436-0.963-0.778-1.587c-0.89-1.633-2.109-3.871-0.82-6.142c1.249-2.208,4.241-3.21,10.317-3.458
			c4.745-0.193,13.312-1.385,22.385-2.65c13.692-1.909,29.216-4.073,39.616-4.073c1.962,0,3.705,0.078,5.184,0.234
			c6.604,0.696,9,3.951,9.849,6.559c2.318,7.146-4.56,17.497-10.188,22.564c-5.157,4.646-7.529,14.538-9.436,22.486
			c-0.544,2.265-1.06,4.413-1.6,6.339C420.114,182.739,412.63,198.37,403.446,198.37z M360.726,130.103
			c0.156,0.359,0.413,0.829,0.606,1.179c0.472,0.865,1.006,1.845,1.275,2.918c0.719,3.524,3.472,13.236,7.884,17.207
			c5.773,5.193,11.547,11.636,18.728,20.882c2.955,3.814,4.52,7.53,5.89,10.81c1.747,4.151,3.122,7.431,6.788,9.66
			c0.513,0.31,1.021,0.462,1.551,0.462c4.637,0,11.294-10.396,13.716-19.004c0.524-1.869,1.028-3.958,1.55-6.142
			c2.18-9.093,4.646-19.399,10.994-25.119c5.229-4.703,10.078-13.038,8.739-17.148c-0.204-0.626-0.823-2.538-5.486-3.027
			c-1.304-0.137-2.872-0.208-4.649-0.208c-10.046,0-25.376,2.137-38.906,4.024c-9.598,1.336-17.891,2.491-22.888,2.696
			C362.895,129.438,361.349,129.851,360.726,130.103z"/>
	</g>
	<g>
		<path fill="#F49A23" d="M266.684,89.862c0,0,2.629,13.065,8.659,18.49c6.028,5.428,11.888,12.142,18.41,20.55
			c6.523,8.408,5.805,16.486,13.379,21.086c7.569,4.605,16.492-10.858,19.076-20.042c2.588-9.184,4.537-23.511,11.788-30.042
			c7.257-6.536,16.957-23.057,1.797-24.649c-15.153-1.597-53.691,5.966-66.812,6.499C259.859,82.285,265.799,86.369,266.684,89.862z
			"/>
		<path fill="#D77E28" d="M310.016,153.397L310.016,153.397c-1.478,0-2.9-0.409-4.224-1.213c-5.093-3.095-6.922-7.453-8.858-12.069
			c-1.315-3.129-2.674-6.361-5.217-9.636c-6.977-8.995-12.557-15.231-18.101-20.213c-6.582-5.928-9.345-19.328-9.457-19.896
			c-0.085-0.317-0.437-0.964-0.777-1.589c-0.889-1.633-2.11-3.868-0.827-6.139c1.254-2.21,4.241-3.212,10.324-3.459
			c4.745-0.193,13.316-1.388,22.395-2.653c13.688-1.907,29.2-4.07,39.601-4.07c1.965,0,3.708,0.079,5.19,0.236
			c6.604,0.694,8.997,3.947,9.844,6.555c2.322,7.141-4.562,17.494-10.187,22.563c-5.162,4.648-7.534,14.542-9.435,22.491
			c-0.543,2.26-1.062,4.409-1.604,6.337C326.68,137.77,319.199,153.397,310.016,153.397z M267.289,85.138
			c0.158,0.357,0.42,0.829,0.607,1.18c0.474,0.863,1.012,1.842,1.28,2.915c0.72,3.527,3.474,13.236,7.886,17.208
			c5.772,5.196,11.545,11.639,18.726,20.882c2.951,3.813,4.516,7.525,5.89,10.8c1.738,4.156,3.117,7.435,6.788,9.663
			c0.514,0.315,1.021,0.468,1.55,0.468c4.509,0,11.31-10.45,13.718-19.004c0.525-1.869,1.022-3.956,1.55-6.144
			c2.175-9.09,4.646-19.397,10.994-25.114c5.225-4.708,10.075-13.045,8.736-17.151c-0.206-0.627-0.824-2.539-5.487-3.028
			c-1.305-0.137-2.872-0.207-4.652-0.207c-10.039,0-25.37,2.136-38.892,4.021c-9.603,1.339-17.896,2.496-22.896,2.698
			C269.465,84.471,267.919,84.881,267.289,85.138z"/>
	</g>
	<g>
		<path fill="#D48628" d="M243.722,169.49c0,0-6.123-30.945-9.286-38.183c-3.168-7.231-8.308-15.34-9.26-24.692
			c-0.952-9.354-5.768-20.879-18.774-9.428c-13.011,11.45-19.462,13.054-28.88,23.996c-9.42,10.941-16.105,15.536-21.789,23.4
			c-5.675,7.867,4.637,12.346,14.448,17.148c9.803,4.802,15.194,10.365,26.795,14.7c11.595,4.331,32.36,6.806,38.479,8.608
			C241.578,186.846,247.932,189.181,243.722,169.49z"/>
		<path fill="#BC7229" d="M240.852,188.773L240.852,188.773c-1.855,0-3.806-0.575-5.688-1.132l-0.436-0.13
			c-2.057-0.606-6.138-1.343-10.859-2.188c-8.972-1.617-20.136-3.621-27.796-6.483c-7.121-2.664-12.022-5.791-16.762-8.824
			c-3.294-2.093-6.394-4.079-10.261-5.97l-1.43-0.702c-7.435-3.616-14.453-7.035-15.846-12.561c-0.63-2.516,0-5.112,1.873-7.705
			c3.183-4.405,6.613-7.772,10.586-11.672c3.307-3.246,7.058-6.923,11.338-11.901c5.692-6.618,10.379-9.965,15.797-13.84
			c3.752-2.683,8.011-5.726,13.335-10.41c4.143-3.648,7.821-5.422,11.25-5.422c6.325,0,10.732,6.175,11.783,16.521
			c0.675,6.623,3.604,12.602,6.443,18.389c0.925,1.9,1.828,3.742,2.614,5.53c3.24,7.411,9.201,37.446,9.453,38.719
			c2.017,9.443,1.896,14.708-0.427,17.575C245.008,187.573,243.484,188.773,240.852,188.773z M215.953,94.979
			c-1.438,0-3.967,0.716-7.854,4.137c-5.517,4.856-9.879,7.979-13.738,10.736c-5.365,3.832-9.597,6.86-14.889,13.01
			c-4.426,5.142-8.258,8.9-11.637,12.216c-3.806,3.736-7.089,6.961-10.015,11.014c-1.42,1.963-1.146,3.067-1.051,3.432
			c0.805,3.203,7.337,6.389,13.105,9.196l1.437,0.701c4.125,2.022,7.499,4.179,10.766,6.263c4.721,3.015,9.184,5.863,15.795,8.333
			c7.225,2.701,18.138,4.664,26.903,6.236c5.071,0.913,9.079,1.631,11.406,2.318l0.445,0.13c1.531,0.454,3.113,0.921,4.224,0.921
			c0.727,0,0.884-0.188,0.971-0.292c0.407-0.508,1.589-2.983-0.616-13.303c-0.067-0.346-6.114-30.791-9.125-37.691
			c-0.759-1.723-1.627-3.497-2.524-5.33c-2.897-5.903-6.173-12.596-6.941-20.132C222.058,101.388,219.982,94.979,215.953,94.979z"/>
	</g>
	<g>
		<path fill="#D48628" d="M193.104,145.248c0,0-9.764,0.854-6.799,10.194c2.979,9.34,6.659,13.586,3.119,31.005
			c-3.542,17.417-8.208,27.19-6.084,35.258c2.125,8.068,1.271,11.937,16.979,1.72c15.705-10.22,25.045-13.189,33.536-16.165
			c8.486-2.978,21.233-0.426,25.479-9.345c4.251-8.922,16.991-13.59,2.125-22.512c-14.866-8.918-26.754-9.771-32.702-13.168
			C222.813,158.834,198.476,142.975,193.104,145.248z"/>
		<path fill="#BC7229" d="M187.743,232.15L187.743,232.15c-4.511,0-5.514-4.139-6.39-7.786c-0.156-0.629-0.312-1.298-0.503-2.004
			c-1.59-6.051,0.122-12.562,2.484-21.565c1.128-4.295,2.408-9.169,3.563-14.862c2.771-13.635,1.016-18.42-1.41-25.047
			c-0.54-1.46-1.097-2.983-1.633-4.668c-1.123-3.536-0.866-6.562,0.752-8.998c2.317-3.478,6.56-4.312,7.902-4.493
			c0.57-0.179,1.207-0.274,1.899-0.274c6.161,0,19.473,7.772,31.46,15.055c1.769,1.069,3.201,1.945,4.163,2.494
			c1.978,1.127,4.861,1.989,8.519,3.077c6.191,1.851,14.669,4.38,24.232,10.112c5.047,3.029,7.644,5.944,8.164,9.161
			c0.664,4.079-2.16,7.372-4.893,10.562c-1.648,1.928-3.355,3.917-4.398,6.105c-3.473,7.292-11.344,8.231-18.284,9.058
			c-3.173,0.377-6.169,0.737-8.667,1.608l-1.442,0.508c-7.961,2.771-16.981,5.912-31.538,15.392
			C194.361,230.372,190.573,232.15,187.743,232.15z M194.409,147.602l-0.372,0.158l-0.711,0.053
			c-0.865,0.085-3.382,0.665-4.446,2.278c-0.701,1.07-0.746,2.606-0.121,4.569c0.512,1.604,1.046,3.06,1.56,4.453
			c2.511,6.86,4.686,12.782,1.63,27.846c-1.187,5.836-2.489,10.778-3.634,15.14c-2.171,8.249-3.733,14.206-2.484,18.95
			c0.192,0.741,0.358,1.448,0.52,2.108c0.36,1.479,0.85,3.505,1.277,3.86l0.116-0.009c2.354,0,8.99-4.318,11.173-5.737
			c15.082-9.818,24.413-13.065,32.648-15.936l1.438-0.503c3.032-1.06,6.45-1.469,9.758-1.864c6.441-0.764,12-1.424,14.254-6.159
			c1.33-2.799,3.353-5.158,5.137-7.238c2.057-2.404,3.994-4.668,3.715-6.389c-0.172-1.078-1.312-2.916-5.729-5.571
			c-9.01-5.405-16.799-7.727-23.058-9.592c-3.975-1.19-7.111-2.125-9.605-3.549c-0.983-0.562-2.462-1.46-4.272-2.561
			C216.155,157.625,199.645,147.602,194.409,147.602z"/>
	</g>
	<g>
		<path fill="#D48628" d="M227.247,68.995c0,0-6.478,7.369,2.117,12.066c8.603,4.695,14.2,5.216,23.671,20.248
			c9.472,15.032,12.835,25.328,19.945,29.697c7.112,4.361,9.172,7.75,13.477-10.497c4.299-18.243,9.003-26.841,13.081-34.856
			c4.089-8.016,15.057-14.973,11.966-24.35c-3.091-9.376,2.893-21.549-14.009-17.731c-16.897,3.816-26.08,11.412-32.72,13.062
			C258.13,58.287,229.561,63.638,227.247,68.995z"/>
		<path fill="#BC7229" d="M279.745,137.029L279.745,137.029c-2.111,0-3.985-1.202-6.356-2.723c-0.55-0.353-1.13-0.725-1.748-1.107
			c-5.339-3.275-8.591-9.158-13.094-17.301c-2.15-3.888-4.591-8.296-7.686-13.218c-7.418-11.764-11.987-14.006-18.326-17.112
			c-1.394-0.686-2.853-1.402-4.403-2.249c-3.253-1.777-5.161-4.138-5.674-7.02c-0.723-4.134,1.788-7.678,2.629-8.727
			c2.551-4.554,14.577-8.004,34.292-12.354c2.035-0.447,3.696-0.815,4.775-1.083c2.205-0.547,4.889-1.92,8.285-3.654
			c5.75-2.94,13.621-6.966,24.488-9.419c2.332-0.528,4.305-0.785,6.039-0.785c9.245,0,9.649,7.38,9.941,12.769
			c0.136,2.534,0.279,5.151,1.038,7.449c2.527,7.673-2.513,13.785-6.958,19.177c-2.032,2.462-3.954,4.79-5.154,7.148l-0.696,1.355
			c-3.837,7.501-8.189,16.006-12.175,32.921C286.416,131.891,284.391,137.029,279.745,137.029z M302.968,45.424
			c-1.331,0-2.979,0.221-4.906,0.657c-10.229,2.311-17.464,6.008-23.275,8.98c-3.694,1.886-6.609,3.378-9.39,4.07
			c-1.106,0.274-2.817,0.652-4.906,1.114c-19.202,4.235-29.599,7.53-30.893,9.795l-0.417,0.653
			c-0.571,0.665-1.995,2.825-1.649,4.729c0.233,1.258,1.263,2.395,3.069,3.379c1.478,0.809,2.869,1.489,4.204,2.145
			c6.56,3.217,12.221,5.993,20.411,18.991c3.176,5.045,5.652,9.522,7.835,13.471c4.123,7.454,7.103,12.838,11.276,15.403
			c0.65,0.402,1.267,0.792,1.843,1.161c1.324,0.851,2.974,1.909,3.576,1.909v2.575l0.008-2.575
			c0.437-0.224,1.819-1.874,4.206-11.963c4.124-17.524,8.626-26.323,12.602-34.084l0.688-1.348c1.462-2.864,3.648-5.519,5.77-8.089
			c4.124-4.998,7.684-9.316,6.047-14.292c-0.975-2.945-1.141-6.042-1.29-8.777C307.419,46.923,306.938,45.424,302.968,45.424z"/>
	</g>
	<g>
		<path fill="#F49A23" d="M273.697,143.249c0,0-28.893,12.746-35.259,17.414c-6.366,4.672-13.164,11.461-22.072,14.435
			c-8.919,2.969-19.104,10.185-5.09,20.375c13.998,10.184,16.977,16.127,29.705,22.921c12.75,6.793,18.699,12.309,27.621,16.128
			c8.922,3.824,11.043-7.209,13.592-17.826c2.547-10.612,6.802-17.082,8.496-29.343c1.696-12.256-0.422-33.062,0-39.432
			C291.109,141.548,292.01,134.836,273.697,143.249z"/>
		<path fill="#D77E28" d="M271.938,237.87L271.938,237.87c-1.365,0-2.832-0.334-4.345-0.98c-4.995-2.139-9.032-4.743-13.704-7.769
			c-3.896-2.51-8.307-5.363-14.115-8.458c-7.705-4.111-11.991-7.948-16.96-12.386c-3.438-3.074-7.328-6.56-13.057-10.725
			c-5.903-4.295-8.549-8.707-7.866-13.124c1.064-6.874,9.91-10.526,13.662-11.775c6.303-2.103,11.497-6.268,16.524-10.292
			c1.652-1.33,3.262-2.615,4.834-3.77c6.523-4.784,34.558-17.173,35.748-17.699c10.473-4.807,15.94-5.373,18.919-2.192
			c2.161,2.314,1.922,5.83,1.712,8.929l-0.031,0.463c-0.145,2.143,0.031,6.281,0.233,11.074c0.387,9.112,0.869,20.446-0.253,28.542
			c-1.041,7.525-3.026,12.988-4.95,18.271c-1.329,3.666-2.588,7.129-3.594,11.317l-0.369,1.545
			C282.104,228.197,279.803,237.87,271.938,237.87z M286.389,141.876c-2.354,0-6.263,1.247-11.613,3.709
			c-0.322,0.144-28.743,12.701-34.817,17.152c-1.519,1.115-3.064,2.359-4.663,3.635c-5.131,4.11-10.94,8.77-18.115,11.165
			c-5.863,1.954-9.771,4.897-10.202,7.682c-0.455,2.93,2.906,6.061,5.809,8.168c5.936,4.322,9.938,7.894,13.461,11.052
			c4.909,4.394,8.791,7.866,15.948,11.684c5.993,3.19,10.504,6.107,14.49,8.676c4.475,2.894,8.342,5.392,12.93,7.359
			c0.876,0.374,1.656,0.566,2.322,0.566c3.802,0,5.705-8.006,7.383-15.067l0.371-1.561c1.074-4.474,2.445-8.234,3.767-11.878
			c1.913-5.261,3.72-10.229,4.687-17.216c1.055-7.638,0.588-18.717,0.211-27.617c-0.222-5.148-0.393-9.214-0.23-11.636l0.032-0.467
			c0.125-1.855,0.297-4.39-0.337-5.072C287.62,142,287.1,141.876,286.389,141.876z"/>
	</g>
	<g>
		<path fill="#F49A23" d="M287.736,62.604c0,0-28.879,12.746-35.25,17.418c-6.369,4.667-13.167,11.458-22.086,14.43
			c-8.908,2.974-19.104,10.189-5.089,20.377c14.008,10.187,16.978,16.128,29.723,22.921c12.741,6.796,18.687,12.312,27.606,16.131
			c8.924,3.824,11.043-7.215,13.592-17.826c2.548-10.612,6.803-17.082,8.501-29.342c1.693-12.261-0.424-33.063,0-39.435
			C305.155,60.909,306.049,54.197,287.736,62.604z"/>
		<path fill="#D77E28" d="M285.977,157.23L285.977,157.23c-1.361,0-2.826-0.329-4.345-0.979c-4.997-2.139-9.03-4.75-13.702-7.769
			c-3.893-2.516-8.305-5.369-14.104-8.459c-7.714-4.111-12.001-7.948-16.969-12.391c-3.438-3.074-7.332-6.555-13.057-10.722
			c-5.902-4.291-8.554-8.705-7.875-13.114c1.063-6.875,9.91-10.531,13.661-11.782c6.309-2.1,11.503-6.263,16.521-10.286
			c1.662-1.331,3.275-2.62,4.86-3.781c6.52-4.782,34.547-17.17,35.73-17.696c10.473-4.807,15.939-5.371,18.919-2.19
			c2.162,2.314,1.919,5.83,1.712,8.931l-0.031,0.461c-0.139,2.143,0.031,6.283,0.238,11.079c0.387,9.106,0.863,20.44-0.256,28.536
			c-1.043,7.53-3.028,12.99-4.947,18.274c-1.333,3.666-2.591,7.125-3.594,11.315l-0.372,1.55
			C296.143,147.557,293.843,157.23,285.977,157.23z M300.429,61.236c-2.35,0-6.263,1.249-11.618,3.708
			c-0.317,0.144-28.729,12.7-34.8,17.154c-1.526,1.12-3.083,2.364-4.683,3.646c-5.125,4.106-10.935,8.761-18.109,11.151
			c-5.863,1.957-9.776,4.901-10.207,7.689c-0.45,2.927,2.911,6.056,5.81,8.166c5.939,4.317,9.938,7.894,13.464,11.047
			c4.915,4.395,8.797,7.867,15.958,11.686c5.992,3.192,10.504,6.108,14.479,8.678c4.477,2.893,8.344,5.392,12.932,7.359
			c0.88,0.374,1.66,0.566,2.322,0.566c3.806,0,5.705-8.011,7.387-15.073l0.373-1.559c1.067-4.471,2.438-8.233,3.765-11.872
			c1.908-5.264,3.716-10.232,4.681-17.221c1.058-7.633,0.588-18.712,0.211-27.612c-0.215-5.149-0.386-9.217-0.229-11.641
			l0.032-0.465c0.126-1.854,0.301-4.39-0.336-5.07C301.659,61.358,301.139,61.236,300.429,61.236z"/>
	</g>
	<g>
		<path fill="#F49A23" d="M324.033,104.193c0,0-28.885,12.746-35.25,17.416c-6.37,4.67-13.159,11.461-22.072,14.433
			c-8.918,2.972-19.115,10.189-5.095,20.375c14.008,10.189,16.979,16.128,29.716,22.921c12.74,6.793,18.684,12.311,27.602,16.134
			c8.924,3.819,11.044-7.215,13.597-17.827c2.543-10.616,6.797-17.086,8.496-29.342c1.696-12.261-0.423-33.064,0-39.435
			C341.447,102.495,342.346,95.783,324.033,104.193z"/>
		<path fill="#D77E28" d="M322.268,198.818L322.268,198.818c-1.359,0-2.824-0.332-4.344-0.979
			c-4.996-2.143-9.031-4.753-13.703-7.772c-3.892-2.516-8.303-5.369-14.099-8.455c-7.709-4.111-11.995-7.948-16.96-12.391
			c-3.438-3.074-7.332-6.555-13.061-10.725c-5.903-4.29-8.554-8.702-7.871-13.114c1.061-6.876,9.91-10.531,13.662-11.782
			c6.309-2.101,11.496-6.263,16.521-10.288c1.657-1.33,3.267-2.617,4.853-3.779c6.514-4.78,34.539-17.171,35.727-17.694
			c10.472-4.812,15.938-5.374,18.918-2.193c2.161,2.314,1.924,5.832,1.711,8.934l-0.03,0.458c-0.14,2.143,0.03,6.281,0.238,11.075
			c0.387,9.109,0.867,20.446-0.256,28.54c-1.042,7.53-3.028,12.988-4.947,18.268c-1.329,3.67-2.591,7.134-3.594,11.321l-0.372,1.55
			C332.439,189.146,330.136,198.818,322.268,198.818z M336.722,102.826c-2.351,0-6.26,1.244-11.613,3.707
			c-0.323,0.141-28.735,12.7-34.802,17.15c-1.527,1.119-3.076,2.363-4.677,3.646c-5.127,4.106-10.931,8.76-18.104,11.153
			c-5.867,1.956-9.776,4.902-10.207,7.687c-0.455,2.93,2.91,6.057,5.812,8.164c5.938,4.321,9.938,7.897,13.46,11.056
			c4.916,4.394,8.793,7.862,15.95,11.676c5.992,3.199,10.499,6.115,14.475,8.685c4.477,2.889,8.344,5.387,12.936,7.359
			c0.877,0.373,1.657,0.562,2.317,0.562c3.803,0,5.706-8.006,7.388-15.068l0.372-1.564c1.068-4.466,2.438-8.231,3.766-11.87
			c1.913-5.261,3.719-10.234,4.681-17.216c1.061-7.64,0.595-18.718,0.211-27.621c-0.216-5.146-0.386-9.209-0.225-11.634l0.027-0.465
			c0.13-1.853,0.301-4.392-0.336-5.072C337.951,102.947,337.431,102.826,336.722,102.826z"/>
	</g>
	<g>
		<path fill="#F49A23" d="M278.589,106.896c0,0-31.367-3.628-39.229-2.821c-7.85,0.801-17.153,3.221-26.337,1.271
			c-9.197-1.948-21.637-0.883-14.709,14.994c6.923,15.875,6.479,22.504,14.018,34.81c7.551,12.305,9.883,20.073,15.647,27.886
			c5.76,7.812,13.173-0.634,20.747-8.496c7.579-7.862,14.521-11.29,22.186-21.003c7.669-9.714,16.376-28.727,19.965-34.007
			C294.467,114.249,298.636,108.911,278.589,106.896z"/>
		<path fill="#D77E28" d="M233.2,188.715h-0.006c-2.802,0-5.254-1.397-7.286-4.151c-3.225-4.376-5.386-8.667-7.889-13.635
			c-2.08-4.143-4.443-8.833-7.882-14.436c-4.56-7.444-6.315-12.92-8.351-19.262c-1.406-4.392-3.001-9.367-5.831-15.864
			c-2.71-6.213-2.943-11.113-0.688-14.556c2.039-3.116,5.957-4.762,11.326-4.762c2.146,0,4.556,0.269,6.959,0.779
			c5.755,1.223,12.961,0.436,19.449-0.51c2.106-0.307,4.142-0.604,6.097-0.803c7.938-0.816,38.614,2.688,39.783,2.825
			c10.278,1.034,15.383,2.986,17.031,6.528c1.617,3.47-0.745,6.939-2.646,9.727l-0.261,0.38c-1.213,1.781-3.159,5.443-5.414,9.684
			c-4.276,8.049-9.597,18.063-14.659,24.474c-4.707,5.972-9.19,9.677-13.526,13.268c-3.003,2.48-5.837,4.829-8.824,7.93
			l-1.118,1.159C243.924,183.265,238.695,188.715,233.2,188.715z M206.595,107.195c-2.026,0-5.634,0.316-7.018,2.435
			c-1.231,1.873-0.85,5.223,1.096,9.682c2.934,6.732,4.573,11.843,6.017,16.349c2.017,6.274,3.603,11.231,7.84,18.146
			c3.549,5.782,5.96,10.576,8.086,14.808c2.398,4.762,4.467,8.873,7.431,12.893c1.366,1.852,2.454,2.062,3.154,2.062l0,0
			c3.302,0,8.217-5.121,12.553-9.641l1.123-1.172c3.188-3.307,6.271-5.863,9.251-8.325c4.315-3.572,8.396-6.946,12.769-12.49
			c4.771-6.047,9.979-15.834,14.156-23.697c2.422-4.556,4.331-8.154,5.699-10.165l0.268-0.387c1.037-1.527,2.614-3.836,2.232-4.652
			c-0.189-0.402-1.689-2.458-12.917-3.587c-0.323-0.036-31.107-3.612-38.709-2.821c-1.883,0.193-3.85,0.481-5.876,0.777
			c-4.22,0.613-8.577,1.251-13.16,1.251c-2.92,0-5.574-0.263-8.1-0.797C210.432,107.426,208.387,107.195,206.595,107.195z"/>
	</g>
	<g>
		<path fill="#F49A23" d="M398.748,201.744c0,0,10.539-29.755,11.51-37.595c0.97-7.835,0.688-17.436,4.646-25.961
			c3.948-8.524,5.688-20.886-11.33-17.684c-17.027,3.202-23.386,1.29-37.064,5.893c-13.676,4.609-21.775,5.148-30.673,9.017
			c-8.903,3.871-2.331,12.983,3.64,22.122c5.979,9.134,7.77,16.668,15.522,26.314c7.755,9.642,24.342,22.374,28.69,27.051
			C388.036,215.577,392.304,220.833,398.748,201.744z"/>
		<path fill="#D77E28" d="M389.815,217.868L389.815,217.868c-3.182,0-5.58-2.587-7.701-4.875l-0.313-0.342
			c-1.465-1.576-4.602-4.294-8.23-7.439c-6.894-5.966-15.46-13.393-20.576-19.755c-4.762-5.917-7.377-11.11-9.901-16.133
			c-1.753-3.481-3.411-6.775-5.77-10.383l-0.876-1.334c-4.533-6.901-8.81-13.419-7.184-18.878c0.739-2.489,2.604-4.398,5.543-5.674
			c4.983-2.165,9.646-3.311,15.052-4.639c4.502-1.105,9.601-2.358,15.832-4.459c8.275-2.783,14.004-3.272,20.64-3.836
			c4.597-0.394,9.803-0.833,16.767-2.145c1.986-0.374,3.819-0.562,5.453-0.562c5.851,0,8.646,2.451,9.957,4.506
			c3.414,5.345,0.675,13.164-1.268,17.351c-2.798,6.032-3.333,12.663-3.851,19.078c-0.171,2.116-0.337,4.169-0.58,6.115
			c-0.992,8.028-11.204,36.912-11.641,38.138C397.561,213.295,394.159,217.868,389.815,217.868z M408.549,122.56
			c-1.318,0-2.834,0.16-4.5,0.474c-7.221,1.357-12.566,1.812-17.277,2.215c-6.569,0.559-11.756,1-19.442,3.587
			c-6.432,2.168-11.645,3.446-16.243,4.578c-5.176,1.269-9.646,2.367-14.225,4.36c-2.233,0.97-2.562,2.064-2.669,2.426
			c-0.939,3.165,3.042,9.23,6.56,14.586l0.88,1.339c2.517,3.85,4.316,7.426,6.056,10.885c2.518,5.005,4.896,9.727,9.314,15.222
			c4.829,6.006,13.209,13.263,19.938,19.089c3.899,3.378,6.979,6.047,8.631,7.827l0.318,0.346c1.264,1.366,2.991,3.229,3.928,3.229
			c0.256,0,2.618-0.331,6.49-11.801c0.118-0.328,10.474-29.616,11.399-37.087c0.229-1.878,0.391-3.859,0.552-5.899
			c0.526-6.546,1.129-13.968,4.31-20.831c2.475-5.335,3.086-10.093,1.604-12.416C413.267,123.276,411.375,122.56,408.549,122.56z"/>
	</g>
	<g>
		<path fill="#D48628" d="M324.298,170.546c0,0-9.773,0.854-6.796,10.194c2.974,9.332,6.657,13.577,3.117,30.981
			c-3.54,17.411-8.222,27.182-6.096,35.244c2.129,8.066,1.273,11.934,16.993,1.723c15.711-10.216,25.048-13.191,33.538-16.16
			c8.487-2.975,21.229-0.426,25.471-9.345c4.24-8.913,16.978-13.582,2.119-22.495c-14.855-8.914-26.739-9.763-32.685-13.164
			C354.017,184.132,329.671,168.278,324.298,170.546z"/>
		<path fill="#BC7229" d="M318.934,257.413L318.934,257.413c-4.515-0.006-5.517-4.138-6.396-7.786
			c-0.152-0.63-0.313-1.299-0.504-2.004c-1.59-6.052,0.123-12.552,2.491-21.555c1.13-4.297,2.417-9.162,3.569-14.857
			c2.776-13.623,1.017-18.403-1.41-25.025c-0.54-1.46-1.102-2.979-1.637-4.668c-1.126-3.531-0.875-6.56,0.751-8.995
			c2.318-3.481,6.564-4.312,7.907-4.492c0.57-0.185,1.209-0.278,1.909-0.278c6.15,0,19.458,7.759,31.444,15.037
			c1.771,1.074,3.217,1.959,4.179,2.502c1.977,1.128,4.86,1.99,8.518,3.077c6.188,1.852,14.66,4.376,24.217,10.113
			c5.044,3.024,7.633,5.936,8.158,9.151c0.661,4.075-2.162,7.368-4.889,10.554c-1.648,1.923-3.356,3.917-4.398,6.1
			c-3.468,7.292-11.33,8.231-18.275,9.059c-3.167,0.376-6.163,0.736-8.661,1.607l-1.416,0.494
			c-7.955,2.772-16.981,5.913-31.569,15.396C325.553,255.629,321.765,257.413,318.934,257.413z M325.614,172.9l-0.377,0.161
			l-0.714,0.05c-0.871,0.085-3.393,0.665-4.457,2.283c-0.702,1.064-0.741,2.601-0.117,4.56c0.513,1.608,1.048,3.064,1.558,4.461
			c2.522,6.851,4.697,12.768,1.633,27.818c-1.19,5.841-2.487,10.782-3.64,15.145c-2.169,8.24-3.737,14.192-2.488,18.934
			c0.196,0.736,0.367,1.44,0.525,2.105c0.357,1.475,0.849,3.501,1.271,3.854l0.125-0.008c2.354,0,9-4.319,11.184-5.732
			c15.107-9.828,24.444-13.075,32.685-15.945l1.401-0.49c3.033-1.059,6.452-1.468,9.759-1.86c6.433-0.768,11.99-1.428,14.238-6.158
			c1.337-2.805,3.354-5.159,5.134-7.243c2.054-2.395,3.995-4.663,3.715-6.375c-0.175-1.078-1.308-2.916-5.724-5.571
			c-8.997-5.391-16.784-7.718-23.041-9.587c-3.973-1.182-7.109-2.117-9.599-3.54c-0.988-0.566-2.477-1.469-4.3-2.575
			C347.341,182.915,330.845,172.9,325.614,172.9z"/>
	</g>
	<g>
		<path fill="#D48628" d="M249.773,112.606c0,0-9.776,0.851-6.802,10.189c2.979,9.336,6.662,13.58,3.122,30.984
			c-3.549,17.409-8.222,27.181-6.097,35.25c2.126,8.064,1.271,11.937,17.001,1.721c15.711-10.221,25.051-13.195,33.543-16.165
			c8.486-2.974,21.228-0.426,25.468-9.345c4.242-8.913,16.979-13.581,2.121-22.495c-14.857-8.913-26.74-9.765-32.686-13.161
			C279.502,126.19,255.156,110.333,249.773,112.606z"/>
		<path fill="#BC7229" d="M244.405,199.475L244.405,199.475c-4.516,0-5.519-4.138-6.394-7.786c-0.153-0.634-0.314-1.302-0.503-2.003
			c-1.595-6.061,0.122-12.58,2.498-21.597c1.127-4.286,2.408-9.143,3.567-14.821c2.772-13.62,1.015-18.4-1.42-25.018
			c-0.539-1.465-1.093-2.988-1.632-4.675c-1.127-3.531-0.875-6.559,0.746-8.992c2.322-3.484,6.568-4.318,7.912-4.497
			c0.57-0.182,1.209-0.274,1.903-0.274c6.157,0,19.459,7.757,31.445,15.027c1.779,1.081,3.229,1.961,4.191,2.509
			c1.977,1.13,4.865,1.99,8.514,3.083c6.191,1.846,14.665,4.376,24.216,10.108c5.045,3.028,7.639,5.935,8.164,9.156
			c0.66,4.075-2.161,7.363-4.886,10.548c-1.651,1.928-3.358,3.917-4.4,6.106c-3.465,7.292-11.331,8.226-18.273,9.057
			c-3.17,0.373-6.167,0.728-8.664,1.604l-1.43,0.503c-7.961,2.767-16.986,5.912-31.562,15.392
			C251.032,197.695,247.24,199.475,244.405,199.475z M251.084,114.958l-0.372,0.159l-0.713,0.052
			c-0.872,0.085-3.394,0.665-4.458,2.28c-0.701,1.069-0.741,2.603-0.121,4.564c0.517,1.609,1.056,3.064,1.569,4.461
			c2.514,6.851,4.688,12.771,1.63,27.821c-1.191,5.823-2.488,10.751-3.635,15.104c-2.174,8.258-3.752,14.224-2.498,18.968
			c0.194,0.742,0.364,1.452,0.526,2.112c0.355,1.479,0.844,3.505,1.271,3.859l0.122-0.009c2.358,0,9.003-4.317,11.191-5.736
			c15.096-9.821,24.437-13.075,32.666-15.94l1.424-0.499c3.033-1.06,6.457-1.465,9.76-1.86c6.433-0.764,11.989-1.428,14.235-6.16
			c1.339-2.798,3.356-5.157,5.136-7.238c2.054-2.398,3.993-4.663,3.717-6.379c-0.171-1.074-1.309-2.916-5.729-5.566
			c-8.999-5.4-16.784-7.723-23.038-9.589c-3.973-1.186-7.106-2.121-9.598-3.543c-0.986-0.563-2.479-1.471-4.309-2.579
			C272.816,124.965,256.318,114.958,251.084,114.958z"/>
	</g>
	<g>
		<path fill="#D48628" d="M391.132,77.95c0,0-9.771,0.852-6.798,10.187c2.975,9.338,6.663,13.582,3.118,30.986
			c-3.54,17.407-8.218,27.176-6.093,35.246c2.129,8.069,1.275,11.941,16.991,1.725c15.716-10.221,25.051-13.195,33.543-16.167
			c8.486-2.975,21.224-0.424,25.465-9.343c4.244-8.914,16.981-13.583,2.126-22.495c-14.858-8.916-26.741-9.767-32.686-13.161
			C420.852,91.533,396.509,75.674,391.132,77.95z"/>
		<path fill="#BC7229" d="M385.768,164.818L385.768,164.818c-4.512,0-5.513-4.138-6.394-7.786c-0.151-0.629-0.314-1.302-0.503-2.008
			c-1.59-6.051,0.122-12.561,2.494-21.572c1.127-4.292,2.412-9.153,3.565-14.841c2.771-13.622,1.017-18.404-1.415-25.022
			c-0.538-1.462-1.097-2.985-1.635-4.67c-1.124-3.534-0.872-6.56,0.749-8.997c2.322-3.481,6.564-4.314,7.908-4.492
			c0.57-0.184,1.208-0.276,1.909-0.276c6.149,0,19.443,7.757,31.43,15.025c1.779,1.081,3.231,1.963,4.196,2.514
			c1.978,1.127,4.861,1.991,8.516,3.08c6.187,1.849,14.662,4.378,24.22,10.108c5.045,3.026,7.634,5.936,8.152,9.156
			c0.665,4.073-2.156,7.366-4.882,10.551c-1.649,1.925-3.356,3.918-4.398,6.101c-3.47,7.294-11.336,8.231-18.275,9.058
			c-3.168,0.377-6.164,0.732-8.662,1.608l-1.429,0.499c-7.962,2.772-16.983,5.912-31.558,15.397
			C392.395,163.034,388.603,164.818,385.768,164.818z M392.448,80.299l-0.377,0.16l-0.715,0.053
			c-0.867,0.085-3.389,0.666-4.453,2.28c-0.7,1.067-0.74,2.604-0.116,4.565c0.512,1.608,1.048,3.059,1.56,4.457
			c2.52,6.851,4.694,12.771,1.631,27.821c-1.189,5.832-2.487,10.771-3.636,15.127c-2.173,8.248-3.741,14.21-2.493,18.95
			c0.194,0.742,0.364,1.447,0.526,2.111c0.359,1.479,0.849,3.505,1.271,3.859l0.12-0.009c2.358,0,8.999-4.318,11.184-5.742
			c15.1-9.821,24.435-13.071,32.675-15.938l1.415-0.496c3.033-1.063,6.452-1.469,9.758-1.862c6.436-0.766,11.987-1.427,14.238-6.157
			c1.334-2.801,3.352-5.16,5.136-7.238c2.052-2.399,3.998-4.664,3.714-6.38c-0.175-1.076-1.311-2.918-5.723-5.566
			c-8.999-5.4-16.785-7.725-23.044-9.592c-3.971-1.184-7.106-2.12-9.598-3.542c-0.987-0.566-2.482-1.472-4.312-2.583
			C414.166,90.307,397.674,80.299,392.448,80.299z"/>
	</g>
	<g>
		<path fill="#D48628" d="M388.8,77.952c0,0-9.775,0.85-6.802,10.187c2.979,9.338,6.663,13.58,3.123,30.984
			c-3.546,17.41-8.219,27.181-6.098,35.25c2.135,8.069,1.276,11.942,16.991,1.721c15.716-10.221,25.057-13.19,33.543-16.165
			c8.49-2.974,21.224-0.426,25.47-9.345c4.239-8.914,16.98-13.581,2.119-22.495c-14.854-8.913-26.735-9.764-32.685-13.161
			C418.52,91.533,394.173,75.674,388.8,77.952z"/>
		<path fill="#BC7229" d="M383.438,164.818L383.438,164.818c-4.513,0-5.515-4.133-6.398-7.776c-0.148-0.634-0.313-1.308-0.503-2.013
			c-1.591-6.056,0.121-12.557,2.488-21.56c1.132-4.295,2.418-9.163,3.57-14.857c2.777-13.622,1.018-18.402-1.414-25.022
			c-0.539-1.462-1.096-2.983-1.632-4.67c-1.127-3.531-0.876-6.56,0.752-8.992c2.317-3.484,6.561-4.313,7.905-4.497
			c0.571-0.182,1.214-0.274,1.91-0.274c6.154,0,19.462,7.764,31.453,15.042c1.771,1.074,3.213,1.95,4.169,2.498
			c1.977,1.128,4.861,1.988,8.519,3.08c6.188,1.846,14.665,4.376,24.217,10.106c5.046,3.028,7.638,5.937,8.158,9.156
			c0.659,4.075-2.155,7.368-4.889,10.551c-1.645,1.925-3.353,3.918-4.394,6.101c-3.47,7.294-11.336,8.231-18.276,9.06
			c-3.168,0.375-6.163,0.732-8.662,1.611l-1.438,0.499c-7.961,2.771-16.981,5.917-31.553,15.392
			C390.058,163.039,386.267,164.818,383.438,164.818z M390.116,80.302l-0.377,0.159l-0.715,0.055
			c-0.871,0.085-3.394,0.665-4.458,2.277c-0.699,1.069-0.739,2.604-0.116,4.565c0.513,1.608,1.048,3.061,1.561,4.458
			c2.521,6.852,4.693,12.769,1.63,27.819c-1.186,5.838-2.487,10.782-3.639,15.146c-2.17,8.24-3.738,14.197-2.489,18.937
			c0.198,0.741,0.369,1.447,0.525,2.112c0.358,1.479,0.851,3.5,1.276,3.854l0.121-0.009c2.358,0,8.998-4.318,11.179-5.737
			c15.095-9.821,24.431-13.071,32.666-15.938l1.428-0.499c3.033-1.062,6.452-1.469,9.759-1.864
			c6.429-0.764,11.986-1.427,14.242-6.157c1.329-2.801,3.346-5.16,5.131-7.238c2.053-2.397,3.993-4.662,3.715-6.38
			c-0.176-1.076-1.312-2.916-5.728-5.566c-8.999-5.4-16.785-7.722-23.044-9.592c-3.972-1.184-7.106-2.119-9.599-3.541
			c-0.981-0.561-2.465-1.464-4.284-2.565C411.853,90.318,395.347,80.302,390.116,80.302z"/>
	</g>
	<g>
		<path fill="#D48628" d="M338.603,31.677c0,0-7.462-6.365-12.025,2.305c-4.565,8.673-5.001,14.275-19.881,23.971
			c-14.888,9.693-25.132,13.219-29.388,20.397c-4.248,7.177-7.608,9.288,10.703,13.312c18.304,4.019,26.975,8.588,35.05,12.546
			c8.079,3.96,15.2,14.821,24.531,11.584c9.326-3.232,21.591,2.563,17.519-14.277c-4.08-16.836-11.816-25.901-13.568-32.517
			C349.79,62.38,343.999,33.908,338.603,31.677z"/>
		<path fill="#BC7229" d="M344.146,118.958L344.146,118.958c-5.731-0.002-10.437-3.762-14.992-7.399
			c-2.488-1.992-4.845-3.875-7.225-5.041l-1.375-0.676c-7.562-3.723-16.129-7.943-33.098-11.668
			c-10.585-2.325-14.395-4.048-15.675-7.087c-1.177-2.786,0.403-5.331,2.233-8.28c0.34-0.553,0.703-1.142,1.077-1.77
			c3.193-5.385,9.029-8.729,17.108-13.362c3.85-2.206,8.221-4.71,13.086-7.88c11.642-7.585,13.816-12.191,16.825-18.566
			c0.665-1.41,1.36-2.879,2.184-4.447c2.584-4.902,6.084-5.93,8.563-5.93c3.415,0,6.223,1.934,7.135,2.64
			c4.592,2.481,8.226,14.457,12.88,34.099c0.481,2.024,0.867,3.678,1.154,4.747c0.581,2.202,1.995,4.861,3.777,8.231
			c3.033,5.704,7.182,13.514,9.801,24.341c1.388,5.717,1.133,9.605-0.798,12.238c-2.438,3.331-6.761,3.632-10.942,3.924
			c-2.529,0.174-5.146,0.355-7.431,1.15C347.027,118.711,345.585,118.958,344.146,118.958z M332.861,31.998
			c-0.574,0-2.332,0-4.009,3.183c-0.785,1.494-1.45,2.898-2.079,4.244c-3.117,6.602-5.81,12.303-18.676,20.682
			c-4.987,3.25-9.426,5.793-13.34,8.035c-7.39,4.239-12.736,7.301-15.234,11.52c-0.392,0.66-0.771,1.278-1.137,1.86
			c-0.799,1.291-1.9,3.057-1.851,3.61c0.233,0.434,1.899,1.792,12.026,4.019c17.579,3.859,26.442,8.224,34.266,12.074l1.365,0.674
			c2.885,1.415,5.575,3.562,8.178,5.643c4.034,3.223,7.848,6.272,11.773,6.272l0,0c0.872,0,1.729-0.148,2.603-0.451
			c2.935-1.018,6.029-1.234,8.761-1.422c3.149-0.22,6.124-0.427,7.153-1.831c0.646-0.88,1.158-2.981-0.056-7.988
			c-2.467-10.196-6.279-17.375-9.341-23.142c-1.939-3.659-3.477-6.55-4.209-9.322c-0.297-1.101-0.695-2.799-1.189-4.879
			c-4.534-19.137-7.983-29.477-10.271-30.735l-0.658-0.409C336.396,33.185,334.591,31.998,332.861,31.998z"/>
	</g>
	<g>
		<path fill="#F49A23" d="M349.525,239.271c0,0-6.124-30.946-9.287-38.184c-3.162-7.233-8.308-15.343-9.26-24.692
			c-0.952-9.354-5.769-20.882-18.778-9.43c-13.003,11.452-19.458,13.052-28.874,24c-9.424,10.939-16.108,15.531-21.786,23.397
			c-5.685,7.863,4.633,12.347,14.438,17.148c9.808,4.804,15.194,10.361,26.8,14.696c11.596,4.332,32.36,6.81,38.479,8.604
			C347.377,256.613,353.73,258.953,349.525,239.271z"/>
		<path fill="#D77E28" d="M346.653,258.544L346.653,258.544c-1.855,0-3.802-0.575-5.684-1.132l-0.44-0.13
			c-2.053-0.604-6.118-1.335-10.822-2.181c-8.98-1.612-20.163-3.621-27.832-6.482c-7.126-2.664-12.027-5.795-16.768-8.819
			c-3.289-2.103-6.393-4.085-10.262-5.979l-1.424-0.693c-7.436-3.62-14.451-7.04-15.841-12.569c-0.633-2.517,0-5.104,1.868-7.706
			c3.186-4.403,6.613-7.772,10.591-11.671c3.306-3.244,7.052-6.923,11.334-11.897c5.692-6.618,10.374-9.96,15.791-13.837
			c3.757-2.682,8.013-5.724,13.336-10.415c4.146-3.648,7.826-5.422,11.254-5.422c6.32,0,10.729,6.177,11.783,16.52
			c0.675,6.618,3.604,12.593,6.435,18.375c0.935,1.905,1.836,3.756,2.623,5.549c3.24,7.413,9.201,37.442,9.453,38.718
			c2.018,9.435,1.887,14.7-0.431,17.566C350.806,257.346,349.286,258.544,346.653,258.544z M321.756,164.759
			c-1.438,0-3.967,0.715-7.854,4.138c-5.521,4.861-9.888,7.983-13.742,10.737c-5.36,3.833-9.592,6.861-14.885,13.007
			c-4.426,5.144-8.254,8.9-11.633,12.211c-3.805,3.738-7.088,6.964-10.013,11.018c-1.426,1.97-1.146,3.076-1.057,3.435
			c0.804,3.204,7.342,6.389,13.104,9.192l1.434,0.707c4.13,2.021,7.503,4.173,10.77,6.257c4.723,3.016,9.184,5.87,15.796,8.339
			c7.233,2.695,18.159,4.659,26.938,6.24c5.054,0.907,9.043,1.623,11.366,2.306l0.453,0.131c1.527,0.453,3.108,0.924,4.219,0.924
			c0.724,0,0.882-0.196,0.967-0.301c0.412-0.507,1.59-2.979-0.611-13.292c-0.066-0.342-6.108-30.79-9.129-37.686
			c-0.755-1.734-1.63-3.513-2.53-5.354c-2.888-5.896-6.161-12.584-6.932-20.114C327.86,171.166,325.776,164.759,321.756,164.759z"/>
	</g>
	<g>
		<path fill="#D48628" d="M324.28,170.546c0,0-9.776,0.854-6.803,10.194c2.975,9.332,6.661,13.577,3.118,30.981
			c-3.54,17.411-8.219,27.182-6.093,35.244c2.13,8.066,1.275,11.934,16.992,1.723c15.71-10.216,25.052-13.191,33.538-16.16
			c8.49-2.975,21.227-0.426,25.473-9.345c4.242-8.913,16.975-13.582,2.12-22.495c-14.856-8.914-26.739-9.763-32.683-13.164
			C354,184.132,329.654,168.278,324.28,170.546z"/>
		<path fill="#BC7229" d="M318.912,257.413L318.912,257.413c-4.511-0.006-5.508-4.134-6.395-7.782
			c-0.151-0.634-0.317-1.303-0.503-2.008c-1.59-6.052,0.121-12.552,2.488-21.555c1.133-4.297,2.413-9.162,3.572-14.857
			c2.771-13.623,1.016-18.403-1.416-25.025c-0.538-1.46-1.101-2.979-1.634-4.668c-1.125-3.531-0.877-6.56,0.75-8.995
			c2.316-3.481,6.567-4.312,7.91-4.492c0.571-0.185,1.208-0.278,1.905-0.278c6.149,0,19.457,7.759,31.443,15.037
			c1.774,1.074,3.223,1.959,4.183,2.502c1.979,1.128,4.86,1.99,8.516,3.077c6.189,1.852,14.665,4.376,24.216,10.113
			c5.045,3.024,7.637,5.936,8.161,9.151c0.662,4.075-2.159,7.368-4.887,10.554c-1.648,1.923-3.356,3.912-4.395,6.1
			c-3.472,7.292-11.34,8.231-18.28,9.059c-3.169,0.376-6.164,0.736-8.662,1.607l-1.425,0.499
			c-7.961,2.768-16.981,5.911-31.562,15.392C325.533,255.629,321.742,257.413,318.912,257.413z M325.593,172.9l-0.375,0.161
			l-0.713,0.05c-0.872,0.085-3.396,0.665-4.456,2.283c-0.705,1.064-0.746,2.601-0.117,4.56c0.512,1.608,1.047,3.064,1.56,4.461
			c2.517,6.851,4.688,12.768,1.631,27.818c-1.19,5.841-2.488,10.782-3.638,15.145c-2.172,8.24-3.74,14.192-2.491,18.934
			c0.193,0.736,0.365,1.446,0.525,2.105c0.36,1.478,0.85,3.505,1.271,3.854l0.122-0.008c2.354,0,8.998-4.319,11.182-5.732
			c15.104-9.821,24.439-13.075,32.675-15.94l1.417-0.496c3.032-1.059,6.446-1.468,9.752-1.86c6.439-0.768,11.991-1.428,14.247-6.158
			c1.335-2.805,3.353-5.159,5.137-7.243c2.053-2.395,3.988-4.663,3.711-6.375c-0.177-1.078-1.312-2.916-5.729-5.571
			c-8.999-5.391-16.785-7.718-23.043-9.587c-3.968-1.182-7.104-2.117-9.592-3.54c-0.989-0.566-2.476-1.469-4.3-2.575
			C347.323,182.915,330.822,172.9,325.593,172.9z"/>
	</g>
	<g>
		<path fill="#EBD2A2" d="M123.713,239.998c0,0-14.004-21.475-13.159-27.413c0.849-5.945-5.521-21.857,67.493-13.371
			c73.012,8.496,174.174,40.784,174.174,40.784l-10.313,42.438L123.713,239.998z"/>
		<path fill="#3C2517" d="M341.909,285.869c-0.219,0-0.44-0.021-0.66-0.062l-218.191-42.438c-0.907-0.18-1.712-0.72-2.216-1.496
			c-4.425-6.78-14.609-23.254-13.688-29.774c0.059-0.404,0.066-0.867,0.086-1.366c0.305-9.03,4.811-17.391,35.438-17.391
			c9.668,0,21.704,0.832,35.767,2.467c72.508,8.428,173.809,40.601,174.819,40.924c1.717,0.548,2.72,2.332,2.291,4.079
			L345.24,283.25C344.862,284.809,343.459,285.869,341.909,285.869z M125.797,236.912l213.548,41.529l8.783-36.129
			c-17.419-5.403-105.682-32.153-170.48-39.688c-13.796-1.604-25.563-2.421-34.971-2.421c-28.215,0-28.443,6.739-28.583,10.76
			c-0.022,0.777-0.059,1.487-0.148,2.107C113.623,215.828,119.683,227.352,125.797,236.912z"/>
	</g>
	<g>
		<path fill="#FFE9BB" d="M292.626,285.082c0,0,30.604,10.945,158.794-172.428c0,0,12.736-28.863,12.736,7.642
			c0,36.508-11.884,139.222-39.051,170.634c-27.168,31.411-155.265,147.02-155.265,147.02l-65.484-56.186L292.626,285.082z"/>
		<path fill="#3C2517" d="M269.842,441.38c-0.794,0-1.591-0.277-2.236-0.826l-65.479-56.186c-0.706-0.603-1.133-1.466-1.192-2.399
			c-0.053-0.925,0.267-1.834,0.89-2.515l88.268-96.681c0.932-1.023,2.393-1.394,3.686-0.916
			c3.582-0.082,38.549-4.877,154.644-170.899c2.17-4.838,6.429-12.567,11.483-12.567c6.757,0,7.687,10.526,7.687,21.904
			c0,36.077-11.864,140.473-39.886,172.878C400.709,324.384,277.38,435.766,272.143,440.49
			C271.486,441.084,270.664,441.38,269.842,441.38z M209.28,381.465l60.5,51.91c17.207-15.572,127.979-116.076,152.729-144.693
			c26.467-30.601,38.219-134.179,38.219-168.387c0-8.871-0.774-12.726-1.323-14.341c-1.38,1.51-3.41,4.844-4.844,8.087
			c-0.09,0.202-0.202,0.396-0.327,0.577C342.468,274.495,303.627,288.376,294.025,288.637L209.28,381.465z"/>
	</g>
	<g>
		<path fill="#FFE9BB" d="M31.168,253.573c0,0-6.787,104.425,42.457,169.794c57.727,33.954,195.27,33.12,202.059,7.636
			c6.797-25.465,32.267-106.119,23.774-140.073C290.967,256.968,199.267,387.711,31.168,253.573z"/>
		<path fill="#3C2517" d="M201.01,452.982L201.01,452.982c-38.665,0-95.681-6.992-129.13-26.659
			c-0.391-0.227-0.732-0.53-0.997-0.892C21.447,359.803,27.466,257.668,27.745,253.35c0.09-1.273,0.871-2.397,2.034-2.915
			c1.168-0.512,2.529-0.347,3.532,0.459c50.88,40.595,100.676,61.181,148.017,61.181c38.339-0.007,67.735-13.331,87.189-22.147
			c10.614-4.81,18.284-8.287,24.066-8.287c3.688,0,8.454,1.465,10.198,8.455c7.614,30.447-10.567,94.82-20.334,129.397
			c-1.384,4.905-2.574,9.108-3.45,12.398C273.787,451.455,217.992,452.982,201.01,452.982z M75.946,420.751
			c32.343,18.717,87.491,25.366,125.063,25.366c44.051,0,69.241-8.053,71.362-15.994c0.88-3.309,2.074-7.549,3.472-12.492
			c8.914-31.547,27.456-97.195,20.286-125.872c-0.755-3.024-1.945-3.258-3.545-3.258c-4.299,0-11.775,3.394-21.236,7.679
			c-19.988,9.062-50.193,22.752-90.021,22.756c-47.269,0-96.674-19.676-146.961-58.49C33.918,284.238,35.526,366.55,75.946,420.751z
			"/>
	</g>
	<g>
		<path fill="#E74825" d="M57.701,269.88c0,0-7.638-7.71,4.781-8.024c12.414-0.323,7.638-3.506,14.003-5.737
			c6.372-2.224,7.009-4.134,14.327-7.318c7.323-3.176,4.458-5.269,10.187-12.341c5.737-7.072,7.645-12.74,14.008-15.153
			c6.366-2.421,4.143-11.974,20.378-7.835c16.237,4.137,29.922,7.003,43.298,7.323c13.368,0.313,20.054-3.824,27.692-3.824
			c7.645,0,20.378,3.824,30.568,6.691c10.193,2.86,16.561,5.726,32.481,9.869c15.918,4.138,23.061,9.229,31.749,7.634
			c8.681-1.586,16.961-0.953,21.736,2.872c4.774,3.818,14.327,7.313,14.327,7.313s-21.014,24.936-42.344,31.088
			c-21.332,6.162-64.14,30.119-121.946,30.353C148.121,312.893,100.153,298.996,57.701,269.88z"/>
	</g>
	<g>
		<path fill="#F49A23" d="M302.181,131.59c0,0,2.634,13.065,8.657,18.492c6.029,5.422,11.893,12.144,18.411,20.544
			c6.528,8.411,5.805,16.488,13.381,21.089c7.573,4.605,16.496-10.854,19.08-20.042c2.588-9.183,4.537-23.506,11.787-30.042
			c7.256-6.533,16.951-23.057,1.798-24.649c-15.154-1.595-53.697,5.966-66.814,6.501
			C295.361,124.015,301.301,128.097,302.181,131.59z"/>
		<path fill="#D77E28" d="M345.518,195.125L345.518,195.125c-1.482,0-2.9-0.404-4.223-1.208c-5.1-3.095-6.924-7.458-8.861-12.067
			c-1.311-3.132-2.673-6.367-5.215-9.642c-6.981-9.003-12.564-15.234-18.101-20.212c-6.586-5.931-9.345-19.33-9.457-19.898
			c-0.087-0.317-0.437-0.961-0.777-1.586c-0.895-1.635-2.11-3.87-0.827-6.142c1.249-2.211,4.24-3.212,10.319-3.459
			c4.748-0.193,13.321-1.388,22.396-2.652c13.688-1.908,29.201-4.071,39.603-4.071c1.964,0,3.707,0.079,5.186,0.235
			c6.604,0.694,8.999,3.95,9.849,6.557c2.322,7.146-4.561,17.497-10.19,22.565c-5.157,4.646-7.528,14.539-9.435,22.486
			c-0.543,2.26-1.057,4.412-1.599,6.339C362.181,179.5,354.696,195.125,345.518,195.125z M302.792,126.866
			c0.161,0.358,0.412,0.83,0.611,1.179c0.467,0.865,1.001,1.842,1.274,2.916c0.714,3.526,3.469,13.236,7.88,17.207
			c5.771,5.194,11.546,11.631,18.727,20.887c2.956,3.81,4.515,7.525,5.895,10.8c1.744,4.155,3.118,7.435,6.784,9.659
			c0.518,0.319,1.021,0.467,1.555,0.467c4.638,0,11.294-10.396,13.717-19.004c0.524-1.869,1.024-3.953,1.545-6.141
			c2.18-9.093,4.648-19.395,10.999-25.116c5.225-4.704,10.071-13.038,8.732-17.149c-0.201-0.629-0.821-2.541-5.484-3.028
			c-1.304-0.137-2.867-0.208-4.65-0.208c-10.04,0-25.37,2.137-38.894,4.023c-9.604,1.337-17.899,2.494-22.898,2.696
			C304.966,126.199,303.416,126.612,302.792,126.866z"/>
	</g>
	<g>
		<path fill="#CE3D27" d="M86.784,271.619c0,3.863-1.803,7-4.036,7c-2.223,0-4.033-3.137-4.033-7c0-3.867,1.811-7.01,4.033-7.01
			C84.981,264.609,86.784,267.751,86.784,271.619z"/>
	</g>
	<g>
		<path fill="#CE3D27" d="M112.49,253.719c-3.392,1.855-7.009,1.774-8.081-0.175c-1.064-1.954,0.817-5.037,4.209-6.892
			c3.396-1.855,7.012-1.784,8.077,0.171C117.77,248.773,115.887,251.864,112.49,253.719z"/>
	</g>
	<g>
		<path fill="#CE3D27" d="M163.41,258.6c-3.396,1.854-7.013,1.781-8.077-0.177c-1.074-1.954,0.81-5.036,4.205-6.896
			c3.392-1.856,7.009-1.781,8.082,0.175C168.685,253.65,166.802,256.743,163.41,258.6z"/>
	</g>
	<g>
		<path fill="#CE3D27" d="M183.264,280.025c-3.387,1.854-7.008,1.783-8.079-0.172c-1.063-1.959,0.819-5.047,4.207-6.905
			c3.399-1.854,7.017-1.774,8.081,0.176C188.547,275.083,186.665,278.169,183.264,280.025z"/>
	</g>
	<g>
		<path fill="#CE3D27" d="M184.759,306.77c-3.392,1.854-7.008,1.777-8.081-0.178c-1.064-1.957,0.817-5.043,4.209-6.898
			c3.397-1.855,7.015-1.782,8.083,0.17C190.038,301.823,188.157,304.908,184.759,306.77z"/>
	</g>
	<g>
		<path fill="#CE3D27" d="M234.026,273.412c-3.388,1.863-7.009,1.783-8.077-0.172c-1.074-1.95,0.817-5.041,4.205-6.896
			c3.391-1.855,7.009-1.785,8.083,0.176C239.31,268.475,237.419,271.564,234.026,273.412z"/>
	</g>
	<g>
		<path fill="#CE3D27" d="M232.661,248.167c-3.392,1.856-7.008,1.78-8.083-0.175c-1.064-1.95,0.819-5.041,4.211-6.896
			c3.396-1.861,7.017-1.779,8.081,0.175C237.94,243.224,236.057,246.312,232.661,248.167z"/>
	</g>
	<g>
		<path fill="#CE3D27" d="M199.854,244.873c-3.396,1.86-7.012,1.783-8.077-0.17c-1.074-1.953,0.81-5.045,4.205-6.901
			c3.393-1.854,7.008-1.779,8.083,0.175C205.13,239.937,203.248,243.022,199.854,244.873z"/>
	</g>
	<g>
		<path fill="#CE3D27" d="M130.92,227.936c-0.234,3.86-2.229,6.883-4.448,6.748c-2.224-0.138-3.837-3.378-3.599-7.238
			c0.239-3.863,2.233-6.882,4.457-6.747C129.549,220.833,131.161,224.073,130.92,227.936z"/>
	</g>
	<g>
		<path fill="#CE3D27" d="M113.271,279.925c-0.242,3.858-2.228,6.884-4.457,6.748c-2.223-0.135-3.831-3.379-3.593-7.237
			c0.232-3.859,2.228-6.883,4.451-6.748C111.897,272.824,113.507,276.064,113.271,279.925z"/>
	</g>
	<g>
		<path fill="#CE3D27" d="M161.447,250.43c-0.233,3.852-2.229,6.882-4.446,6.739c-2.234-0.135-3.843-3.378-3.604-7.237
			c0.239-3.852,2.228-6.874,4.453-6.736C160.077,243.332,161.687,246.572,161.447,250.43z"/>
	</g>
	<g>
		<path fill="#CE3D27" d="M171.942,267.178c-0.233,3.86-2.232,6.895-4.447,6.749c-2.233-0.135-3.843-3.374-3.599-7.237
			c0.232-3.859,2.228-6.877,4.447-6.744C170.567,260.085,172.177,263.32,171.942,267.178z"/>
	</g>
	<g>
		<path fill="#CE3D27" d="M145.322,291.598c-0.237,3.859-2.232,6.881-4.456,6.746c-2.223-0.136-3.832-3.377-3.599-7.236
			c0.233-3.858,2.231-6.883,4.457-6.748C143.948,284.504,145.557,287.739,145.322,291.598z"/>
	</g>
	<g>
		<path fill="#CE3D27" d="M131.948,257.426c-0.238,3.858-2.233,6.873-4.453,6.737c-2.223-0.134-3.836-3.373-3.594-7.235
			c0.234-3.852,2.229-6.875,4.448-6.74C130.574,250.322,132.181,253.566,131.948,257.426z"/>
	</g>
	<g>
		<path fill="#CE3D27" d="M103.878,264.855c-0.233,3.859-2.228,6.879-4.447,6.75c-2.224-0.136-3.843-3.381-3.599-7.238
			c0.232-3.859,2.233-6.883,4.447-6.748C102.508,257.754,104.112,260.997,103.878,264.855z"/>
	</g>
	<g>
		<path fill="#CE3D27" d="M141.267,236.704c-0.234,3.86-2.225,6.885-4.448,6.75c-2.225-0.135-3.832-3.379-3.599-7.238
			c0.233-3.859,2.232-6.882,4.457-6.744C139.899,229.607,141.509,232.845,141.267,236.704z"/>
	</g>
	<g>
		<path fill="#CE3D27" d="M151.767,235.052c3.121,2.283,4.595,5.594,3.283,7.387c-1.321,1.806-4.919,1.41-8.042-0.872
			c-3.123-2.277-4.586-5.589-3.275-7.391C145.045,232.379,148.643,232.774,151.767,235.052z"/>
	</g>
	<g>
		<path fill="#CE3D27" d="M203.983,273.626c3.114,2.288,4.587,5.595,3.275,7.39c-1.32,1.805-4.91,1.406-8.041-0.871
			c-3.114-2.28-4.588-5.592-3.267-7.391C197.263,270.954,200.854,271.348,203.983,273.626z"/>
	</g>
	<g>
		<path fill="#CE3D27" d="M228.024,290.604c3.123,2.287,4.596,5.599,3.284,7.392c-1.321,1.802-4.92,1.405-8.041-0.877
			c-3.124-2.277-4.589-5.589-3.275-7.386C221.303,287.932,224.901,288.327,228.024,290.604z"/>
	</g>
	<g>
		<path fill="#CE3D27" d="M270.861,259.354c3.123,2.278,4.592,5.598,3.281,7.392c-1.317,1.807-4.916,1.409-8.039-0.877
			c-3.123-2.278-4.596-5.589-3.278-7.39C264.141,256.68,267.74,257.076,270.861,259.354z"/>
	</g>
	<g>
		<path fill="#CE3D27" d="M132.767,255.068c3.45,1.742,5.432,4.771,4.435,6.761c-1.007,1.991-4.62,2.183-8.074,0.438
			c-3.451-1.742-5.437-4.771-4.43-6.76C125.694,253.516,129.315,253.323,132.767,255.068z"/>
	</g>
	<g>
		<path fill="#CE3D27" d="M145.322,278.866c-0.237,3.858-2.232,6.882-4.456,6.747c-2.223-0.135-3.832-3.373-3.599-7.237
			c0.233-3.86,2.231-6.88,4.457-6.744C143.948,271.761,145.557,275.005,145.322,278.866z"/>
	</g>
	<g>
		<path fill="#CE3D27" d="M157.463,278.866c-0.235,3.858-2.233,6.882-4.449,6.747c-2.224-0.135-3.831-3.373-3.599-7.237
			c0.234-3.86,2.233-6.88,4.457-6.744C156.088,271.761,157.705,275.005,157.463,278.866z"/>
	</g>
	<g>
		<path fill="#CE3D27" d="M174.239,244.518c3.404,1.839,5.309,4.915,4.259,6.878c-1.062,1.963-4.683,2.054-8.083,0.226
			c-3.405-1.833-5.307-4.91-4.255-6.874C167.22,242.783,170.838,242.686,174.239,244.518z"/>
	</g>
	<g>
		<path fill="#CE3D27" d="M185.358,238.557c-0.239,3.864-2.233,6.883-4.453,6.748c-2.229-0.135-3.837-3.38-3.604-7.243
			c0.242-3.859,2.233-6.877,4.457-6.742C183.983,231.457,185.591,234.697,185.358,238.557z"/>
	</g>
	<g>
		<path fill="#CE3D27" d="M193.296,261.119c-0.233,3.859-2.232,6.887-4.457,6.744c-2.225-0.131-3.831-3.375-3.599-7.234
			c0.243-3.859,2.232-6.882,4.457-6.747C191.921,254.02,193.529,257.259,193.296,261.119z"/>
	</g>
	<g>
		<path fill="#CE3D27" d="M234.749,238.557c-0.232,3.859-2.228,6.883-4.446,6.738c-2.232-0.13-3.841-3.37-3.604-7.232
			c0.239-3.859,2.229-6.877,4.453-6.742C233.38,231.453,234.988,234.692,234.749,238.557z"/>
	</g>
	<g>
		<path fill="#CE3D27" d="M216.541,228.546c-0.233,3.859-2.233,6.884-4.452,6.749c-2.229-0.134-3.837-3.379-3.599-7.239
			c0.237-3.859,2.232-6.881,4.451-6.744C215.166,221.448,216.775,224.687,216.541,228.546z"/>
	</g>
	<g>
		<path fill="#CE3D27" d="M235.811,282.391c-0.234,3.864-2.232,6.885-4.448,6.75c-2.224-0.137-3.842-3.382-3.599-7.24
			c0.234-3.855,2.229-6.881,4.449-6.746C234.436,275.29,236.044,278.532,235.811,282.391z"/>
	</g>
	<g>
		<path fill="#CE3D27" d="M262.322,250.605c-0.234,3.858-2.229,6.879-4.453,6.74c-2.223-0.136-3.837-3.38-3.604-7.23
			c0.237-3.859,2.232-6.877,4.461-6.742C260.952,243.507,262.559,246.747,262.322,250.605z"/>
	</g>
	<g>
		<path fill="#CE3D27" d="M302.001,254.123c-0.237,3.865-2.233,6.889-4.451,6.744c-2.226-0.131-3.839-3.375-3.6-7.232
			c0.233-3.86,2.231-6.875,4.452-6.744C300.626,247.035,302.239,250.269,302.001,254.123z"/>
	</g>
	<g>
		<path fill="#CE3D27" d="M282.691,275.396c-0.237,3.857-2.229,6.877-4.451,6.748c-2.229-0.136-3.833-3.377-3.6-7.235
			c0.237-3.86,2.229-6.886,4.457-6.75C281.32,268.299,282.93,271.539,282.691,275.396z"/>
	</g>
</g>
</svg>
