<svg id="nachos" xmlns="http://www.w3.org/2000/svg" viewBox="0 0 300 300"><defs><style>.cls-1{fill:#f3d7a5;}.cls-2{fill:#3a2d24;}.cls-3{fill:#f89c23;}.cls-4{fill:#de8126;}.cls-5{fill:#da8926;}.cls-6{fill:#c27626;}.cls-7{fill:#feeebe;}.cls-8{fill:#ed4923;}.cls-9{fill:#d53f26;}</style></defs><title>nachos</title><path class="cls-1" d="M56.74,153.15S174.22,81,180.85,70.43l1.94,57.36L79.38,198.19Z"/><path class="cls-2" d="M79.38,199.77a1.75,1.75,0,0,1-.4-.05,1.6,1.6,0,0,1-1-.82l-22.63-45a1.57,1.57,0,0,1,.58-2.05c32.59-20,118.32-73.83,123.59-82.22a1.58,1.58,0,0,1,1.75-.68,1.56,1.56,0,0,1,1.16,1.46l2,57.37a1.58,1.58,0,0,1-.69,1.36L80.26,199.5a1.55,1.55,0,0,1-.88.27m-20.58-46L80,195.88,181.19,127,179.4,74.23c-18,16.12-108.28,71.93-120.6,79.51"/><path class="cls-3" d="M102.81,111.55s1.21,6,4,8.5a72.68,72.68,0,0,1,8.46,9.45c3,3.87,2.67,7.58,6.15,9.69s7.58-5,8.77-9.21,2.08-10.8,5.42-13.81,7.79-10.6.82-11.33-24.68,2.74-30.71,3-3.3,2.12-2.89,3.72"/><path class="cls-4" d="M122.73,140.76h0a3.67,3.67,0,0,1-1.94-.56c-2.34-1.42-3.19-3.42-4.08-5.55a18,18,0,0,0-2.39-4.42,70.57,70.57,0,0,0-8.32-9.3c-3-2.72-4.3-8.88-4.35-9.14a4.31,4.31,0,0,0-.36-.73,2.81,2.81,0,0,1-.38-2.82c.58-1,2-1.48,4.74-1.59,2.19-.09,6.12-.64,10.3-1.22,6.29-.88,13.42-1.88,18.2-1.88a23.6,23.6,0,0,1,2.39.11c3,.32,4.13,1.82,4.52,3,1.07,3.28-2.09,8-4.68,10.37-2.37,2.14-3.46,6.68-4.34,10.34-.25,1-.48,2-.73,2.91-.92,3.28-4.36,10.46-8.58,10.46m-19.64-31.38a5.52,5.52,0,0,0,.28.54,5.5,5.5,0,0,1,.58,1.35c.34,1.62,1.6,6.08,3.63,7.91a71.76,71.76,0,0,1,8.61,9.6,20.36,20.36,0,0,1,2.7,5c.81,1.91,1.44,3.42,3.13,4.44a1.26,1.26,0,0,0,.71.22c2.07,0,5.2-4.81,6.3-8.74.24-.86.47-1.82.71-2.82,1-4.18,2.14-8.92,5.06-11.55,2.4-2.16,4.63-6,4-7.88-.1-.29-.38-1.17-2.53-1.39-.6-.06-1.32-.1-2.14-.1-4.61,0-11.66,1-17.88,1.85-4.41.62-8.22,1.15-10.52,1.24a9.09,9.09,0,0,0-2.66.37"/><path class="cls-3" d="M194.48,70.38s1.21,6,4,8.5a71.89,71.89,0,0,1,8.47,9.44c3,3.87,2.67,7.58,6.15,9.7s7.58-5,8.77-9.22S223.93,78,227.27,75s7.79-10.6.82-11.33-24.68,2.75-30.71,3-3.3,2.12-2.9,3.73"/><path class="cls-4" d="M214.41,99.58h0a3.69,3.69,0,0,1-1.95-.55c-2.34-1.43-3.18-3.43-4.07-5.55a18,18,0,0,0-2.4-4.43,69.12,69.12,0,0,0-8.32-9.29c-3-2.73-4.29-8.89-4.34-9.15a4.71,4.71,0,0,0-.36-.73,2.81,2.81,0,0,1-.38-2.82c.58-1,1.95-1.48,4.74-1.59,2.18-.09,6.12-.64,10.29-1.22,6.3-.88,13.43-1.87,18.21-1.87a23.39,23.39,0,0,1,2.38.11c3,.32,4.14,1.81,4.53,3,1.07,3.28-2.1,8-4.68,10.37-2.37,2.14-3.46,6.69-4.34,10.34-.25,1-.48,2-.74,2.91-.92,3.28-4.36,10.46-8.57,10.46M194.77,68.21c.07.16.19.38.27.54a5.61,5.61,0,0,1,.59,1.34c.33,1.62,1.6,6.08,3.63,7.91a72.48,72.48,0,0,1,8.6,9.6,20.43,20.43,0,0,1,2.71,5c.8,1.91,1.43,3.42,3.12,4.44a1.32,1.32,0,0,0,.72.22c2.06,0,5.19-4.81,6.3-8.74.24-.86.47-1.82.71-2.82,1-4.18,2.14-8.92,5.05-11.55,2.41-2.16,4.64-6,4-7.88-.09-.29-.38-1.17-2.52-1.39a19,19,0,0,0-2.14-.1c-4.62,0-11.66,1-17.88,1.85-4.41.62-8.22,1.15-10.53,1.24a8.45,8.45,0,0,0-2.65.38"/><path class="cls-3" d="M207.94,98.57s1.21,6,4,8.5a71.39,71.39,0,0,1,8.47,9.45c3,3.86,2.66,7.57,6.15,9.69s7.58-5,8.76-9.21,2.09-10.81,5.42-13.81,7.8-10.6.83-11.34-24.68,2.75-30.71,3-3.3,2.12-2.9,3.73"/><path class="cls-4" d="M227.86,127.78h0a3.69,3.69,0,0,1-1.94-.56c-2.34-1.42-3.18-3.43-4.07-5.55a18.48,18.48,0,0,0-2.4-4.43,69.75,69.75,0,0,0-8.32-9.29c-3-2.73-4.3-8.88-4.35-9.14a4.48,4.48,0,0,0-.35-.74,2.79,2.79,0,0,1-.38-2.82c.57-1,1.95-1.47,4.74-1.59,2.18-.09,6.12-.63,10.29-1.22,6.29-.87,13.43-1.87,18.21-1.87a23.53,23.53,0,0,1,2.38.11c3,.32,4.14,1.82,4.53,3,1.06,3.29-2.1,8-4.69,10.38-2.37,2.13-3.46,6.68-4.33,10.33-.25,1-.49,2-.74,2.92-.92,3.27-4.36,10.46-8.58,10.46M208.22,96.4c.07.16.19.38.28.54a6,6,0,0,1,.59,1.34c.33,1.62,1.59,6.09,3.62,7.91a71.76,71.76,0,0,1,8.61,9.6,20.29,20.29,0,0,1,2.71,5c.8,1.91,1.43,3.41,3.12,4.44a1.36,1.36,0,0,0,.71.21c2.13,0,5.19-4.78,6.31-8.73.24-.86.47-1.82.71-2.83,1-4.18,2.13-8.91,5.05-11.54,2.4-2.17,4.63-6,4-7.88-.1-.3-.38-1.17-2.52-1.4-.6-.06-1.32-.09-2.14-.09-4.62,0-11.66,1-17.88,1.85-4.42.61-8.23,1.14-10.52,1.24a8.4,8.4,0,0,0-2.67.37"/><path class="cls-3" d="M165,77.9s1.21,6,4,8.5a72,72,0,0,1,8.46,9.45c3,3.86,2.67,7.58,6.15,9.69s7.58-5,8.77-9.21,2.08-10.81,5.42-13.81,7.79-10.6.82-11.33-24.68,2.74-30.71,3-3.3,2.13-2.89,3.73"/><path class="cls-4" d="M184.91,107.11h0a3.72,3.72,0,0,1-1.94-.56c-2.34-1.42-3.18-3.43-4.07-5.55a18.13,18.13,0,0,0-2.4-4.43,69.06,69.06,0,0,0-8.32-9.29c-3-2.73-4.29-8.88-4.34-9.14a4.31,4.31,0,0,0-.36-.73,2.83,2.83,0,0,1-.38-2.83c.57-1,2-1.48,4.74-1.59,2.18-.09,6.13-.64,10.3-1.22,6.29-.87,13.42-1.87,18.2-1.87a23.89,23.89,0,0,1,2.39.11c3,.32,4.13,1.81,4.52,3,1.07,3.28-2.1,8-4.68,10.37-2.38,2.13-3.46,6.68-4.34,10.33-.25,1-.48,2-.73,2.92-.93,3.27-4.36,10.46-8.59,10.46M165.28,75.73c.07.17.19.38.27.54a5.61,5.61,0,0,1,.59,1.34c.33,1.62,1.6,6.09,3.63,7.91a72.48,72.48,0,0,1,8.6,9.6,20.48,20.48,0,0,1,2.71,5c.8,1.9,1.43,3.41,3.12,4.44a1.38,1.38,0,0,0,.71.21c2.08,0,5.2-4.8,6.31-8.73.24-.86.47-1.82.71-2.83,1-4.18,2.14-8.91,5.06-11.54,2.4-2.17,4.63-6,4-7.88-.09-.29-.38-1.17-2.52-1.4-.6-.06-1.32-.09-2.14-.09-4.61,0-11.66,1-17.88,1.85-4.41.61-8.22,1.14-10.52,1.24a8.31,8.31,0,0,0-2.66.37"/><path class="cls-5" d="M154.44,114.5s-2.81-14.22-4.27-17.55-3.81-7-4.25-11.35-2.65-9.6-8.63-4.33-8.95,6-13.28,11-7.4,7.14-10,10.76,2.13,5.67,6.64,7.88,7,4.76,12.32,6.75,14.87,3.13,17.68,4,5.74,1.9,3.8-7.15"/><path class="cls-6" d="M153.12,123.37h0a9.83,9.83,0,0,1-2.61-.52l-.2-.07c-.95-.27-2.82-.61-5-1a81.69,81.69,0,0,1-12.78-3,38.36,38.36,0,0,1-7.71-4,44.58,44.58,0,0,0-4.71-2.75l-.66-.32c-3.42-1.67-6.64-3.24-7.28-5.77a4.2,4.2,0,0,1,.86-3.55A41.51,41.51,0,0,1,117.9,97c1.52-1.49,3.25-3.18,5.22-5.47a35.81,35.81,0,0,1,7.26-6.37,72,72,0,0,0,6.13-4.78c1.9-1.68,3.59-2.49,5.17-2.49,2.91,0,4.93,2.84,5.41,7.59a25.47,25.47,0,0,0,3,8.45c.43.88.85,1.72,1.21,2.55,1.49,3.41,4.23,17.21,4.34,17.79.93,4.35.87,6.76-.19,8.08a2.82,2.82,0,0,1-2.29,1M141.68,80.25c-.66,0-1.83.33-3.61,1.91a73.12,73.12,0,0,1-6.32,4.93,33.39,33.39,0,0,0-6.84,6c-2,2.36-3.8,4.09-5.35,5.62a38.62,38.62,0,0,0-4.6,5.06c-.65.9-.53,1.41-.48,1.58.37,1.47,3.37,2.93,6,4.22l.66.33a49.21,49.21,0,0,1,5,2.87,35.81,35.81,0,0,0,7.26,3.84,80.64,80.64,0,0,0,12.37,2.86c2.33.42,4.17.75,5.24,1.07l.2.06a8,8,0,0,0,1.94.42c.34,0,.41-.09.45-.13.19-.24.73-1.37-.28-6.12,0-.16-2.81-14.15-4.2-17.32-.35-.8-.75-1.61-1.16-2.45-1.33-2.72-2.84-5.79-3.19-9.26-.26-2.52-1.21-5.47-3.06-5.47"/><path class="cls-5" d="M131.18,103.36s-4.49.39-3.13,4.69,3.06,6.24,1.43,14.25-3.77,12.5-2.79,16.2.58,5.49,7.8.8a60.1,60.1,0,0,1,15.42-7.43c3.9-1.38,9.76-.2,11.71-4.3s7.81-6.25,1-10.35-12.29-4.49-15-6-13.91-8.85-16.38-7.81"/><path class="cls-6" d="M128.71,143.31h0c-2.07,0-2.53-1.91-2.93-3.58-.08-.29-.15-.6-.23-.93-.74-2.78,0-5.77,1.14-9.91.51-2,1.1-4.21,1.63-6.83,1.28-6.27.47-8.47-.65-11.51-.25-.67-.5-1.37-.75-2.15a4.67,4.67,0,0,1,.35-4.13,5.3,5.3,0,0,1,3.63-2.07,3,3,0,0,1,.88-.12c2.83,0,8.95,3.57,14.46,6.92.81.49,1.47.89,1.91,1.14a19.62,19.62,0,0,0,3.91,1.41,46.31,46.31,0,0,1,11.15,4.65c2.31,1.39,3.51,2.74,3.75,4.22.3,1.87-1,3.38-2.25,4.85a13.48,13.48,0,0,0-2,2.81c-1.6,3.35-5.22,3.78-8.41,4.16a19.32,19.32,0,0,0-4,.74l-.66.23a58.31,58.31,0,0,0-14.5,7.08c-3.39,2.2-5.13,3-6.43,3m3.07-38.87-.18.07-.32,0a3.1,3.1,0,0,0-2.05,1,2.43,2.43,0,0,0,0,2.09c.23.74.48,1.41.72,2,1.15,3.16,2.15,5.88.74,12.8-.54,2.68-1.14,5-1.67,7-1,3.79-1.71,6.53-1.14,8.71.09.34.17.66.24,1a5.83,5.83,0,0,0,.59,1.77h.05c1.08,0,4.13-2,5.14-2.63a60.32,60.32,0,0,1,15-7.33l.67-.23a21.15,21.15,0,0,1,4.48-.86c3-.35,5.52-.65,6.55-2.83a15.74,15.74,0,0,1,2.36-3.33c1-1.1,1.84-2.14,1.71-2.93-.08-.5-.6-1.35-2.63-2.56a42.26,42.26,0,0,0-10.6-4.41,21.34,21.34,0,0,1-4.41-1.64c-.46-.25-1.14-.67-2-1.17-3.24-2-10.83-6.58-13.23-6.58"/><path class="cls-5" d="M146.87,68.31s-3,3.39,1,5.55,6.53,2.4,10.88,9.3,5.9,11.65,9.17,13.66,4.22,3.56,6.19-4.83a60.4,60.4,0,0,1,6-16c1.88-3.69,6.92-6.88,5.5-11.19s1.33-9.91-6.44-8.16-12,5.25-15,6-16.19,3.22-17.25,5.68"/><path class="cls-6" d="M171,99.58h0a5.71,5.71,0,0,1-2.92-1.25l-.81-.51c-2.45-1.5-3.94-4.21-6-7.95-1-1.79-2.11-3.81-3.53-6.08-3.41-5.4-5.52-6.43-8.43-7.86-.64-.32-1.31-.64-2-1a4.58,4.58,0,0,1-2.61-3.22,5.32,5.32,0,0,1,1.21-4c1.17-2.1,6.7-3.68,15.76-5.68.94-.21,1.7-.37,2.2-.5a20.21,20.21,0,0,0,3.8-1.68,45.66,45.66,0,0,1,11.26-4.33,12.83,12.83,0,0,1,2.77-.36c4.25,0,4.44,3.39,4.58,5.87a13.14,13.14,0,0,0,.47,3.42c1.17,3.53-1.15,6.34-3.2,8.82a20.18,20.18,0,0,0-2.37,3.28l-.32.63a58.54,58.54,0,0,0-5.59,15.13c-1.17,5-2.1,7.32-4.24,7.32m10.67-42.1a10.5,10.5,0,0,0-2.25.3,42.59,42.59,0,0,0-10.7,4.13,22.54,22.54,0,0,1-4.31,1.87c-.51.13-1.3.3-2.26.51-8.83,1.95-13.61,3.46-14.2,4.5l-.19.3a3.1,3.1,0,0,0-.76,2.18,2.46,2.46,0,0,0,1.41,1.55c.68.37,1.32.68,1.93,1,3,1.48,5.62,2.76,9.39,8.73,1.46,2.32,2.59,4.38,3.6,6.2,1.89,3.42,3.26,5.9,5.18,7.08l.85.53a5.83,5.83,0,0,0,1.64.88v0c.21-.11.84-.86,1.94-5.5a60.08,60.08,0,0,1,5.79-15.67l.32-.62a20.83,20.83,0,0,1,2.65-3.71c1.89-2.3,3.53-4.29,2.78-6.57a15.45,15.45,0,0,1-.6-4c-.16-2.94-.38-3.63-2.21-3.63"/><path class="cls-3" d="M168.22,102.44s-13.28,5.86-16.21,8-6,5.27-10.14,6.64-8.78,4.68-2.34,9.37,7.8,7.41,13.65,10.53,8.6,5.66,12.7,7.42,5.07-3.32,6.25-8.2,3.12-7.85,3.9-13.49-.19-15.19,0-18.12.61-6-7.81-2.15"/><path class="cls-4" d="M167.41,145.93h0a5,5,0,0,1-2-.45,40.21,40.21,0,0,1-6.3-3.57c-1.79-1.15-3.82-2.46-6.49-3.88a36.21,36.21,0,0,1-7.8-5.7,72.92,72.92,0,0,0-6-4.93c-2.71-2-3.93-4-3.61-6,.48-3.16,4.55-4.84,6.27-5.41,2.9-1,5.29-2.88,7.6-4.73.76-.61,1.5-1.2,2.22-1.73,3-2.21,15.89-7.9,16.43-8.14,4.82-2.21,7.33-2.47,8.7-1,1,1.06.88,2.68.79,4.11l0,.21c-.07,1,0,2.89.11,5.09a81.55,81.55,0,0,1-.12,13.12,38.44,38.44,0,0,1-2.27,8.4,48.14,48.14,0,0,0-1.66,5.2l-.16.71c-1,4.3-2.08,8.74-5.7,8.74m6.64-44.12a15.09,15.09,0,0,0-5.33,1.71c-.15.06-13.22,5.83-16,7.88-.7.51-1.41,1.08-2.14,1.67-2.36,1.89-5,4-8.33,5.13-2.69.9-4.49,2.25-4.69,3.53s1.34,2.79,2.67,3.76a71.73,71.73,0,0,1,6.19,5.08,33.35,33.35,0,0,0,7.33,5.37c2.76,1.46,4.83,2.81,6.66,4a39.62,39.62,0,0,0,5.94,3.38,2.9,2.9,0,0,0,1.07.26c1.75,0,2.62-3.68,3.39-6.93l.18-.71a47,47,0,0,1,1.73-5.46,35.39,35.39,0,0,0,2.15-7.92,82,82,0,0,0,.1-12.69c-.1-2.37-.18-4.24-.11-5.35l0-.21c0-.86.13-2-.16-2.34a1.05,1.05,0,0,0-.66-.15"/><path class="cls-3" d="M174.67,65.37s-13.27,5.86-16.2,8-6.05,5.27-10.15,6.63-8.78,4.69-2.34,9.37,7.8,7.41,13.66,10.53,8.59,5.66,12.69,7.42,5.08-3.32,6.25-8.19,3.13-7.86,3.91-13.49-.2-15.2,0-18.13.6-6-7.82-2.15"/><path class="cls-4" d="M173.86,108.87h0a5.08,5.08,0,0,1-2-.45,41.5,41.5,0,0,1-6.3-3.57c-1.79-1.16-3.82-2.47-6.48-3.89a35.72,35.72,0,0,1-7.8-5.7,72.92,72.92,0,0,0-6-4.93c-2.72-2-3.94-4-3.63-6,.49-3.16,4.56-4.84,6.29-5.42,2.89-1,5.28-2.88,7.59-4.73.76-.61,1.5-1.2,2.23-1.74,3-2.19,15.88-7.89,16.43-8.13,4.81-2.21,7.32-2.47,8.69-1,1,1.06.89,2.68.79,4.1v.21c-.07,1,0,2.89.11,5.09a83.93,83.93,0,0,1-.12,13.12,38.4,38.4,0,0,1-2.28,8.4,46,46,0,0,0-1.65,5.2l-.17.72c-1,4.29-2.08,8.74-5.7,8.74m6.65-44.13a15.34,15.34,0,0,0-5.34,1.71c-.15.06-13.21,5.84-16,7.88-.7.52-1.42,1.09-2.15,1.68-2.36,1.89-5,4-8.33,5.13-2.69.9-4.49,2.25-4.69,3.53s1.34,2.78,2.67,3.75a73.65,73.65,0,0,1,6.19,5.08,33.19,33.19,0,0,0,7.34,5.37c2.75,1.47,4.83,2.81,6.65,4a39.22,39.22,0,0,0,6,3.38,2.85,2.85,0,0,0,1.06.27c1.75,0,2.63-3.69,3.4-6.94l.17-.71a47.67,47.67,0,0,1,1.73-5.46,35.44,35.44,0,0,0,2.15-7.91,80.93,80.93,0,0,0,.1-12.7c-.1-2.36-.18-4.23-.11-5.35l0-.21c.06-.85.14-2-.16-2.33a1,1,0,0,0-.65-.16"/><path class="cls-3" d="M191.36,84.49s-13.28,5.86-16.2,8-6,5.27-10.15,6.63-8.79,4.68-2.34,9.36,7.8,7.42,13.66,10.54,8.59,5.66,12.68,7.42,5.08-3.32,6.25-8.2,3.13-7.85,3.91-13.48-.19-15.2,0-18.13.61-6-7.81-2.15"/><path class="cls-4" d="M190.55,128h0a5.11,5.11,0,0,1-2-.46,40.66,40.66,0,0,1-6.3-3.57c-1.79-1.15-3.82-2.46-6.48-3.88a35.88,35.88,0,0,1-7.79-5.7,73.32,73.32,0,0,0-6-4.93c-2.71-2-3.93-4-3.62-6,.49-3.16,4.56-4.84,6.28-5.41,2.9-1,5.29-2.88,7.6-4.73.76-.61,1.5-1.21,2.23-1.74,3-2.2,15.87-7.89,16.42-8.13,4.81-2.21,7.32-2.47,8.69-1,1,1.06.89,2.68.79,4.11v.21c-.07,1,0,2.88.11,5.09.17,4.19.4,9.4-.12,13.12a38.74,38.74,0,0,1-2.27,8.39,46.2,46.2,0,0,0-1.66,5.21l-.17.71c-1,4.3-2.08,8.75-5.69,8.75m6.64-44.13a15.12,15.12,0,0,0-5.34,1.71c-.15.06-13.21,5.83-16,7.88-.71.51-1.42,1.08-2.15,1.67-2.36,1.89-5,4-8.33,5.13-2.69.9-4.49,2.26-4.69,3.53s1.34,2.79,2.67,3.76a71.73,71.73,0,0,1,6.19,5.08,33.68,33.68,0,0,0,7.33,5.37c2.76,1.47,4.83,2.81,6.65,4a41,41,0,0,0,5.95,3.38,2.81,2.81,0,0,0,1.07.26c1.74,0,2.62-3.68,3.39-6.93l.17-.72a49.53,49.53,0,0,1,1.73-5.45A36.07,36.07,0,0,0,198,104.6a80.87,80.87,0,0,0,.09-12.69c-.1-2.37-.18-4.23-.1-5.35v-.21c.06-.85.14-2-.15-2.34a1.07,1.07,0,0,0-.66-.15"/><path class="cls-3" d="M170.47,85.73s-14.42-1.66-18-1.29-7.89,1.48-12.11.58-9.94-.41-6.76,6.89,3,10.35,6.44,16,4.55,9.23,7.2,12.82,6-.29,9.53-3.91,6.68-5.18,10.2-9.65,7.53-13.2,9.18-15.63,3.56-4.88-5.65-5.81"/><path class="cls-4" d="M149.61,123.34h0a4.08,4.08,0,0,1-3.34-1.91,40.34,40.34,0,0,1-3.63-6.27c-1-1.9-2-4.06-3.62-6.63a35.62,35.62,0,0,1-3.84-8.85,74.79,74.79,0,0,0-2.68-7.3c-1.25-2.85-1.36-5.11-.32-6.69.94-1.43,2.74-2.19,5.21-2.19a16.17,16.17,0,0,1,3.2.36c2.64.56,5.95.2,8.93-.23,1-.14,1.91-.28,2.81-.37,3.65-.38,17.75,1.23,18.28,1.3,4.73.47,7.07,1.37,7.83,3s-.34,3.19-1.21,4.47l-.12.17c-.56.82-1.46,2.5-2.49,4.45-2,3.7-4.41,8.31-6.74,11.25a37.87,37.87,0,0,1-6.22,6.1,44.62,44.62,0,0,0-4.05,3.65l-.52.53c-2.55,2.66-5,5.16-7.47,5.16M137.38,85.87c-.93,0-2.59.15-3.23,1.12s-.39,2.4.51,4.45A73.63,73.63,0,0,1,137.42,99a33.75,33.75,0,0,0,3.6,8.34c1.64,2.66,2.74,4.87,3.72,6.81a38.75,38.75,0,0,0,3.42,5.93c.62.85,1.12,1,1.45,1,1.51,0,3.77-2.36,5.77-4.43l.51-.55a50.21,50.21,0,0,1,4.25-3.82,35.29,35.29,0,0,0,5.87-5.74,80.58,80.58,0,0,0,6.51-10.89c1.11-2.1,2-3.75,2.62-4.68l.12-.18c.48-.7,1.2-1.76,1-2.13-.09-.19-.78-1.13-5.94-1.65-.15,0-14.3-1.66-17.79-1.3-.87.09-1.77.22-2.71.36a41.67,41.67,0,0,1-6,.57,18.2,18.2,0,0,1-3.72-.36,13.49,13.49,0,0,0-2.71-.31"/><path class="cls-3" d="M225.7,129.33s4.84-13.68,5.29-17.28.32-8,2.14-11.93,2.61-9.6-5.21-8.13-10.75.59-17,2.7-10,2.37-14.1,4.15-1.07,6,1.68,10.17,3.57,7.66,7.13,12.09,11.19,10.29,13.19,12.44,4,4.56,6.92-4.21"/><path class="cls-4" d="M221.59,136.74h0c-1.46,0-2.56-1.19-3.54-2.24l-.14-.16c-.67-.72-2.11-2-3.79-3.42-3.16-2.74-7.1-6.15-9.45-9.08a37.91,37.91,0,0,1-4.55-7.41,46.89,46.89,0,0,0-2.65-4.77l-.41-.62c-2.08-3.17-4.05-6.17-3.3-8.68a4.17,4.17,0,0,1,2.55-2.6,40.87,40.87,0,0,1,6.92-2.14c2.07-.5,4.41-1.08,7.28-2.05A35.77,35.77,0,0,1,220,91.81a68.94,68.94,0,0,0,7.71-1,13.74,13.74,0,0,1,2.51-.25c2.68,0,4,1.12,4.57,2.07,1.57,2.45.31,6-.58,8-1.29,2.78-1.53,5.82-1.77,8.77-.08,1-.16,1.92-.27,2.81-.45,3.69-5.15,17-5.35,17.53-1.65,4.92-3.22,7-5.22,7m8.62-43.81a11.69,11.69,0,0,0-2.07.22,75.72,75.72,0,0,1-7.94,1,33.5,33.5,0,0,0-8.94,1.65c-3,1-5.35,1.58-7.47,2.1a38.66,38.66,0,0,0-6.54,2c-1,.44-1.17.94-1.22,1.11-.44,1.45,1.39,4.24,3,6.7l.41.62a49.89,49.89,0,0,1,2.78,5,35.47,35.47,0,0,0,4.28,7,80.44,80.44,0,0,0,9.16,8.77c1.8,1.56,3.21,2.78,4,3.6l.15.16c.58.63,1.38,1.49,1.8,1.49.12,0,1.21-.16,3-5.43,0-.15,4.81-13.61,5.24-17,.1-.86.18-1.77.25-2.71.24-3,.52-6.42,2-9.57,1.14-2.46,1.42-4.64.74-5.71a2.87,2.87,0,0,0-2.58-1"/><path class="cls-5" d="M191.48,115s-4.49.39-3.12,4.68,3.06,6.24,1.43,14.25-3.78,12.49-2.8,16.2.58,5.48,7.81.79a60.58,60.58,0,0,1,15.41-7.43c3.91-1.37,9.76-.2,11.71-4.3s7.81-6.24,1-10.33-12.3-4.5-15-6.06S194,114,191.48,115"/><path class="cls-6" d="M189,154.92h0c-2.07,0-2.53-1.91-2.94-3.58-.07-.29-.14-.6-.23-.92-.73-2.78.06-5.77,1.15-9.91.52-2,1.11-4.21,1.64-6.83,1.27-6.26.46-8.46-.65-11.5-.25-.67-.51-1.37-.75-2.15a4.64,4.64,0,0,1,.34-4.13,5.36,5.36,0,0,1,3.64-2.07,3,3,0,0,1,.87-.12c2.83,0,8.95,3.56,14.46,6.91.81.49,1.48.9,1.92,1.15a21,21,0,0,0,3.91,1.41,45.46,45.46,0,0,1,11.14,4.65c2.32,1.39,3.5,2.73,3.75,4.21.3,1.87-1,3.38-2.25,4.85a13.42,13.42,0,0,0-2,2.8c-1.6,3.35-5.21,3.78-8.4,4.16a20.26,20.26,0,0,0-4,.74l-.65.23a58.63,58.63,0,0,0-14.51,7.08c-3.39,2.2-5.13,3-6.43,3m3.07-38.85-.17.08-.33,0a3.08,3.08,0,0,0-2.05,1,2.42,2.42,0,0,0-.05,2.09c.24.74.48,1.41.72,2,1.16,3.15,2.16,5.87.75,12.79-.55,2.69-1.15,5-1.67,7-1,3.79-1.73,6.53-1.15,8.7.09.34.17.67.24,1a5.83,5.83,0,0,0,.59,1.77h0c1.09,0,4.14-2,5.14-2.63a60.55,60.55,0,0,1,15-7.33l.64-.23a21.35,21.35,0,0,1,4.49-.85c3-.36,5.51-.66,6.54-2.83a15.84,15.84,0,0,1,2.36-3.33c.95-1.11,1.84-2.15,1.71-2.93-.08-.5-.6-1.34-2.63-2.56a43,43,0,0,0-10.59-4.41,20.82,20.82,0,0,1-4.41-1.63c-.46-.26-1.14-.67-2-1.18-3.24-2-10.82-6.57-13.23-6.57"/><path class="cls-5" d="M157.22,88.36s-4.49.39-3.12,4.68,3.06,6.24,1.43,14.24-3.78,12.49-2.8,16.21.59,5.48,7.81.79A60.88,60.88,0,0,1,176,116.84c3.9-1.36,9.76-.19,11.71-4.29s7.8-6.24,1-10.34-12.29-4.49-15-6-13.92-8.85-16.4-7.8"/><path class="cls-6" d="M154.76,128.29h0c-2.08,0-2.54-1.9-2.94-3.58-.07-.29-.15-.6-.23-.92-.74-2.79,0-5.79,1.14-9.93.52-2,1.11-4.2,1.64-6.81,1.28-6.27.47-8.46-.65-11.5-.25-.68-.5-1.38-.75-2.15a4.6,4.6,0,0,1,.35-4.13A5.24,5.24,0,0,1,157,87.2a2.71,2.71,0,0,1,.88-.13c2.83,0,8.94,3.57,14.45,6.91.82.49,1.49.9,1.93,1.15a20.19,20.19,0,0,0,3.91,1.42,45.26,45.26,0,0,1,11.13,4.65c2.32,1.39,3.51,2.72,3.75,4.2.31,1.88-1,3.39-2.24,4.85a13.37,13.37,0,0,0-2,2.81c-1.6,3.35-5.21,3.78-8.4,4.16a19.43,19.43,0,0,0-4,.74l-.65.23a58.3,58.3,0,0,0-14.51,7.08c-3.39,2.2-5.13,3-6.43,3m3.07-38.85-.17.07-.33,0a3,3,0,0,0-2.05,1,2.48,2.48,0,0,0-.06,2.1c.24.74.49,1.41.72,2,1.16,3.15,2.16,5.87.75,12.79-.54,2.68-1.14,4.94-1.66,6.94-1,3.8-1.73,6.54-1.16,8.72.09.34.17.67.25,1a5.88,5.88,0,0,0,.58,1.77h.06c1.08,0,4.14-2,5.14-2.64a60.24,60.24,0,0,1,15-7.32l.65-.23a21.89,21.89,0,0,1,4.49-.86c2.95-.35,5.51-.65,6.54-2.83a15.08,15.08,0,0,1,2.36-3.32c.94-1.11,1.84-2.15,1.71-2.94-.08-.49-.6-1.34-2.64-2.56a42.85,42.85,0,0,0-10.58-4.4A22,22,0,0,1,173,97.19c-.46-.26-1.15-.68-2-1.19-3.23-2-10.82-6.56-13.22-6.56"/><path class="cls-5" d="M222.2,72.43s-4.49.39-3.12,4.68,3.06,6.24,1.43,14.24-3.78,12.49-2.8,16.2.58,5.49,7.81.8a60.56,60.56,0,0,1,15.42-7.44c3.9-1.36,9.75-.19,11.7-4.29s7.81-6.24,1-10.34-12.29-4.49-15-6-13.92-8.85-16.39-7.8"/><path class="cls-6" d="M219.74,112.36h0c-2.08,0-2.54-1.91-2.94-3.58q-.11-.44-.24-.93c-.73-2.78.06-5.77,1.15-9.91.52-2,1.11-4.21,1.64-6.82,1.27-6.27.47-8.46-.65-11.51-.25-.67-.5-1.37-.75-2.14a4.65,4.65,0,0,1,.34-4.14,5.3,5.3,0,0,1,3.64-2.06,2.65,2.65,0,0,1,.87-.13c2.83,0,8.94,3.57,14.45,6.91.82.49,1.49.9,1.93,1.15a20.45,20.45,0,0,0,3.91,1.42,45.3,45.3,0,0,1,11.14,4.65c2.32,1.39,3.51,2.72,3.74,4.2.31,1.88-1,3.39-2.24,4.85a13.48,13.48,0,0,0-2,2.81c-1.59,3.35-5.21,3.78-8.4,4.16a20,20,0,0,0-4,.74l-.66.23a58.11,58.11,0,0,0-14.5,7.08c-3.39,2.2-5.13,3-6.43,3m3.06-38.85-.17.07-.33,0a3.08,3.08,0,0,0-2,1.05,2.44,2.44,0,0,0-.06,2.1c.24.74.48,1.41.72,2,1.16,3.15,2.16,5.87.75,12.79-.55,2.68-1.14,5-1.67,7-1,3.79-1.72,6.53-1.15,8.71.09.34.17.66.24,1a6,6,0,0,0,.59,1.78h.06c1.08,0,4.13-2,5.14-2.64a60.22,60.22,0,0,1,15-7.32l.65-.23a21.36,21.36,0,0,1,4.49-.86c3-.35,5.51-.65,6.54-2.83a15.42,15.42,0,0,1,2.36-3.32c.95-1.11,1.84-2.15,1.71-2.94-.08-.49-.6-1.34-2.63-2.56a42.66,42.66,0,0,0-10.59-4.4A22,22,0,0,1,238,81.26c-.46-.26-1.14-.68-2-1.19-3.24-2-10.82-6.56-13.23-6.56"/><path class="cls-5" d="M221.13,72.43s-4.5.39-3.13,4.68,3.06,6.24,1.44,14.24-3.78,12.5-2.81,16.21.59,5.48,7.81.79a60.41,60.41,0,0,1,15.42-7.43c3.91-1.37,9.76-.2,11.71-4.3s7.81-6.24,1-10.34-12.29-4.49-15-6-13.92-8.85-16.39-7.8"/><path class="cls-6" d="M218.66,112.36h0c-2.07,0-2.53-1.91-2.94-3.58-.07-.29-.14-.6-.23-.92-.73-2.79,0-5.78,1.14-9.91.53-2,1.12-4.22,1.65-6.83,1.27-6.27.46-8.46-.66-11.51-.24-.67-.5-1.37-.75-2.14a4.63,4.63,0,0,1,.35-4.13,5.28,5.28,0,0,1,3.64-2.07,2.65,2.65,0,0,1,.87-.13c2.83,0,9,3.57,14.46,6.92.81.49,1.48.89,1.92,1.14A20.19,20.19,0,0,0,242,80.62a45.26,45.26,0,0,1,11.13,4.65c2.32,1.39,3.51,2.72,3.75,4.2.31,1.88-1,3.39-2.24,4.85a13.12,13.12,0,0,0-2,2.81c-1.6,3.35-5.21,3.78-8.4,4.16a20.12,20.12,0,0,0-4,.74l-.66.23a58.64,58.64,0,0,0-14.5,7.08c-3.39,2.2-5.13,3-6.43,3m3.07-38.85-.17.07-.33,0a3.08,3.08,0,0,0-2,1,2.45,2.45,0,0,0-.05,2.1c.24.74.48,1.41.71,2,1.16,3.15,2.16,5.87.75,12.79-.54,2.68-1.14,5-1.67,7-1,3.79-1.72,6.53-1.14,8.7.09.34.17.67.24,1a6,6,0,0,0,.59,1.78h0c1.09,0,4.14-2,5.14-2.64a60.75,60.75,0,0,1,15-7.32l.66-.23a21.36,21.36,0,0,1,4.49-.86c2.95-.35,5.51-.65,6.54-2.83a15.08,15.08,0,0,1,2.36-3.32c.95-1.11,1.84-2.15,1.71-2.94-.08-.49-.6-1.34-2.63-2.56a42.56,42.56,0,0,0-10.6-4.4,22.46,22.46,0,0,1-4.41-1.63l-2-1.18c-3.24-2-10.82-6.57-13.23-6.57"/><path class="cls-5" d="M198.05,51.16s-3.43-2.93-5.53,1.06-2.29,6.56-9.13,11-11.56,6.08-13.51,9.38-3.5,4.27,4.92,6.12a61.09,61.09,0,0,1,16.11,5.76c3.71,1.83,7,6.82,11.28,5.33s9.92,1.18,8.05-6.56-5.43-11.91-6.24-15-3.46-16.13-5.95-17.15"/><path class="cls-6" d="M200.6,91.28h0c-2.63,0-4.79-1.73-6.89-3.41a18.88,18.88,0,0,0-3.32-2.31l-.63-.31a58.77,58.77,0,0,0-15.22-5.37c-4.86-1.06-6.61-1.86-7.2-3.25s.19-2.45,1-3.81l.49-.81c1.47-2.48,4.15-4,7.87-6.14,1.77-1,3.78-2.17,6-3.63,5.35-3.48,6.35-5.6,7.74-8.53.3-.65.62-1.33,1-2.05,1.19-2.25,2.8-2.72,3.94-2.72a5.73,5.73,0,0,1,3.28,1.21c2.11,1.14,3.78,6.65,5.92,15.68.22.92.39,1.69.53,2.18a20,20,0,0,0,1.73,3.78A45.25,45.25,0,0,1,211.39,83c.64,2.63.52,4.41-.37,5.63-1.12,1.53-3.11,1.66-5,1.8a13.57,13.57,0,0,0-3.41.53,6.2,6.2,0,0,1-2,.34m-5.18-40c-.27,0-1.08,0-1.85,1.47-.36.69-.66,1.33-.95,1.95-1.43,3-2.67,5.65-8.59,9.5-2.29,1.5-4.33,2.67-6.13,3.7-3.39,2-5.85,3.35-7,5.29-.18.31-.36.59-.52.86a5.47,5.47,0,0,0-.85,1.66c.1.2.87.82,5.52,1.84a60.57,60.57,0,0,1,15.75,5.55l.63.31a21.24,21.24,0,0,1,3.76,2.6c1.85,1.48,3.61,2.88,5.41,2.88a3.61,3.61,0,0,0,1.2-.21,15.88,15.88,0,0,1,4-.65c1.44-.1,2.81-.2,3.28-.84.3-.41.54-1.37,0-3.67A42.9,42.9,0,0,0,204.8,72.9a21.26,21.26,0,0,1-1.94-4.29c-.14-.5-.32-1.28-.55-2.24-2.08-8.79-3.67-13.55-4.72-14.13l-.3-.18a3.41,3.41,0,0,0-1.87-.76"/><path class="cls-3" d="M203.08,146.58s-2.82-14.23-4.27-17.55-3.82-7-4.26-11.35-2.65-9.6-8.63-4.34-8.94,6-13.27,11-7.41,7.14-10,10.76,2.13,5.68,6.64,7.88,7,4.76,12.32,6.76,14.87,3.13,17.69,3.95,5.73,1.91,3.8-7.14"/><path class="cls-4" d="M201.76,155.44h0a9.82,9.82,0,0,1-2.62-.52l-.2-.06c-.94-.28-2.81-.61-5-1a83,83,0,0,1-12.79-3,38.31,38.31,0,0,1-7.71-4.06,44.75,44.75,0,0,0-4.72-2.75l-.65-.31c-3.42-1.67-6.65-3.24-7.29-5.78a4.18,4.18,0,0,1,.86-3.54,41,41,0,0,1,4.87-5.37c1.52-1.49,3.24-3.18,5.21-5.47a36,36,0,0,1,7.26-6.36,68.9,68.9,0,0,0,6.13-4.79c1.91-1.67,3.6-2.49,5.17-2.49,2.91,0,4.93,2.84,5.42,7.6.31,3,1.65,5.78,3,8.44.44.88.85,1.73,1.21,2.55,1.49,3.41,4.23,17.21,4.35,17.8.92,4.34.86,6.76-.2,8.07a2.79,2.79,0,0,1-2.28,1m-11.45-43.11c-.66,0-1.82.33-3.61,1.9a71.17,71.17,0,0,1-6.32,4.93,34,34,0,0,0-6.84,6c-2,2.36-3.79,4.09-5.35,5.61a40.79,40.79,0,0,0-4.6,5.06c-.65.91-.52,1.41-.48,1.58.37,1.47,3.37,2.94,6,4.23l.66.32a48.09,48.09,0,0,1,5,2.88,36.31,36.31,0,0,0,7.26,3.83,82.23,82.23,0,0,0,12.38,2.87c2.33.42,4.16.74,5.23,1.06l.21.06a7.93,7.93,0,0,0,1.94.42c.33,0,.4-.09.44-.14.19-.23.73-1.36-.28-6.11,0-.15-2.81-14.15-4.2-17.32-.34-.79-.75-1.61-1.16-2.46-1.33-2.71-2.83-5.78-3.18-9.24-.26-2.53-1.22-5.47-3.07-5.47"/><path class="cls-5" d="M191.47,115s-4.49.39-3.13,4.68,3.07,6.24,1.44,14.25-3.78,12.49-2.8,16.2.58,5.48,7.81.79a60.58,60.58,0,0,1,15.41-7.43c3.91-1.37,9.76-.2,11.71-4.3s7.8-6.24,1-10.33-12.29-4.5-15-6.06S193.94,114,191.47,115"/><path class="cls-6" d="M189,154.92h0c-2.07,0-2.53-1.9-2.93-3.58-.08-.29-.15-.6-.24-.92-.73-2.78.06-5.77,1.15-9.91.52-2,1.11-4.21,1.64-6.83,1.27-6.26.47-8.46-.65-11.5-.25-.67-.51-1.37-.75-2.15a4.61,4.61,0,0,1,.34-4.13,5.36,5.36,0,0,1,3.64-2.07,3,3,0,0,1,.87-.12c2.83,0,9,3.56,14.46,6.91.81.49,1.48.9,1.92,1.15a21,21,0,0,0,3.91,1.41,45.3,45.3,0,0,1,11.14,4.65c2.31,1.39,3.51,2.73,3.75,4.21.3,1.87-1,3.38-2.25,4.85a13.42,13.42,0,0,0-2,2.8c-1.6,3.35-5.21,3.78-8.4,4.16a20,20,0,0,0-4,.74l-.66.24a58,58,0,0,0-14.51,7.07c-3.38,2.2-5.13,3-6.43,3m3.07-38.85-.17.08-.32,0a3,3,0,0,0-2.05,1,2.38,2.38,0,0,0-.06,2.09c.24.74.49,1.41.72,2,1.15,3.15,2.15,5.87.75,12.79-.55,2.69-1.15,5-1.67,7-1,3.79-1.72,6.53-1.15,8.7.09.34.17.67.24,1a5.83,5.83,0,0,0,.59,1.77H189c1.09,0,4.14-2,5.14-2.63a60.69,60.69,0,0,1,15-7.33l.65-.23a21.35,21.35,0,0,1,4.49-.85c3-.36,5.51-.66,6.55-2.83a15.15,15.15,0,0,1,2.36-3.33c.94-1.11,1.83-2.15,1.7-2.93-.08-.5-.6-1.34-2.63-2.56a43.14,43.14,0,0,0-10.59-4.41,20.82,20.82,0,0,1-4.41-1.63c-.46-.26-1.14-.67-2-1.18-3.24-2-10.82-6.57-13.23-6.57"/><path class="cls-1" d="M99.28,146.91s-6.44-9.87-6-12.6-2.54-10,31-6.14,80.06,18.74,80.06,18.74l-4.74,19.51Z"/><path class="cls-2" d="M199.57,168a1.6,1.6,0,0,1-.3,0L99,148.46a1.56,1.56,0,0,1-1-.69c-2-3.11-6.72-10.69-6.29-13.68,0-.19,0-.4,0-.63.14-4.15,2.21-8,16.29-8a147.41,147.41,0,0,1,16.44,1.13c33.32,3.87,79.89,18.66,80.35,18.81a1.59,1.59,0,0,1,1.06,1.88l-4.74,19.5a1.59,1.59,0,0,1-1.54,1.21m-99.33-22.51,98.16,19.09,4-16.6c-8-2.49-48.57-14.79-78.36-18.25A145.58,145.58,0,0,0,108,128.62c-13,0-13.08,3.1-13.14,4.94a8.81,8.81,0,0,1-.07,1c-.15,1.27,2.64,6.57,5.45,11"/><path class="cls-7" d="M176.92,167.64s14.07,5,73-79.26c0,0,5.86-13.27,5.86,3.51s-5.47,64-18,78.43-71.37,67.58-71.37,67.58l-30.1-25.82Z"/><path class="cls-2" d="M166.45,239.48a1.6,1.6,0,0,1-1-.38l-30.1-25.83a1.54,1.54,0,0,1-.54-1.1,1.6,1.6,0,0,1,.4-1.16l40.58-44.44a1.55,1.55,0,0,1,1.69-.42c1.65,0,17.72-2.24,71.08-78.55,1-2.22,3-5.78,5.28-5.78,3.11,0,3.53,4.84,3.53,10.07,0,16.58-5.45,64.57-18.33,79.47-12.41,14.34-69.1,65.54-71.51,67.71a1.54,1.54,0,0,1-1.05.41m-27.84-27.54,27.81,23.86c7.91-7.16,58.83-53.35,70.2-66.51,12.17-14.07,17.57-61.68,17.57-77.4,0-4.08-.36-5.85-.61-6.59A16.1,16.1,0,0,0,251.35,89a1,1,0,0,1-.15.26c-51.37,73.49-69.22,79.87-73.64,80Z"/><path class="cls-7" d="M56.74,153.15s-3.12,48,19.52,78c26.53,15.61,89.75,15.22,92.87,3.51s14.84-48.78,10.93-64.39S134,214.81,56.74,153.15"/><path class="cls-2" d="M134.81,244.81h0c-17.77,0-44-3.21-59.35-12.25a1.52,1.52,0,0,1-.46-.41C52.27,202,55,155,55.17,153.05a1.58,1.58,0,0,1,2.56-1.13C81.11,170.58,104,180,125.76,180c17.62,0,31.14-6.12,40.08-10.18,4.88-2.21,8.4-3.8,11.06-3.8,1.7,0,3.89.67,4.69,3.88,3.5,14-4.86,43.58-9.35,59.48-.63,2.25-1.18,4.19-1.58,5.7-2.4,9-28,9.69-35.85,9.69M77.32,230c14.87,8.6,40.22,11.65,57.49,11.65,20.25,0,31.83-3.69,32.8-7.35.41-1.52.95-3.47,1.6-5.74,4.1-14.5,12.62-44.67,9.32-57.85-.35-1.39-.89-1.5-1.63-1.5-2,0-5.41,1.56-9.76,3.53-9.19,4.16-23.07,10.45-41.38,10.46-21.72,0-44.43-9-67.55-26.89-.21,10.94.53,48.77,19.11,73.69"/><path class="cls-8" d="M68.94,160.65s-3.51-3.55,2.19-3.69,3.51-1.61,6.44-2.64,3.22-1.9,6.59-3.36,2-2.42,4.68-5.67,3.51-5.86,6.44-7,1.9-5.5,9.37-3.6,13.75,3.22,19.9,3.37,9.22-1.76,12.73-1.76,9.36,1.76,14.05,3.07,7.61,2.64,14.93,4.54,10.6,4.24,14.59,3.51,7.8-.44,10,1.32a30.17,30.17,0,0,0,6.59,3.36s-9.66,11.46-19.47,14.29-29.48,13.84-56.05,14c-11.41,0-33.46-6.34-53-19.72"/><path class="cls-3" d="M181.31,97.08s1.22,6,4,8.5a72,72,0,0,1,8.47,9.45c3,3.86,2.67,7.57,6.15,9.69s7.58-5,8.77-9.21,2.08-10.81,5.41-13.81,7.8-10.6.83-11.33-24.68,2.74-30.71,3-3.3,2.13-2.9,3.73"/><path class="cls-4" d="M201.23,126.29h0a3.69,3.69,0,0,1-1.94-.56c-2.34-1.42-3.18-3.43-4.07-5.55a18.31,18.31,0,0,0-2.4-4.43,69.12,69.12,0,0,0-8.32-9.29c-3-2.73-4.29-8.88-4.34-9.14a5.86,5.86,0,0,0-.36-.73,2.83,2.83,0,0,1-.38-2.83c.57-1,2-1.47,4.74-1.59,2.18-.08,6.12-.64,10.3-1.21,6.29-.88,13.42-1.88,18.2-1.88a23.39,23.39,0,0,1,2.38.11c3,.32,4.14,1.82,4.53,3,1.07,3.28-2.1,8-4.68,10.37-2.38,2.13-3.47,6.68-4.34,10.33-.25,1-.49,2-.74,2.92-.92,3.27-4.36,10.46-8.58,10.46M181.59,94.91c.08.16.19.38.28.54a5.61,5.61,0,0,1,.59,1.34c.33,1.62,1.6,6.09,3.62,7.91a71.76,71.76,0,0,1,8.61,9.6,20.29,20.29,0,0,1,2.71,5c.8,1.91,1.43,3.42,3.12,4.44a1.38,1.38,0,0,0,.71.21c2.14,0,5.2-4.78,6.31-8.73.24-.86.47-1.82.71-2.83,1-4.18,2.14-8.91,5.05-11.54,2.41-2.16,4.63-6,4-7.88-.1-.29-.38-1.17-2.52-1.4-.6-.06-1.32-.09-2.14-.09-4.62,0-11.66,1-17.88,1.85-4.41.61-8.23,1.14-10.52,1.24a8.74,8.74,0,0,0-2.67.37"/><path class="cls-9" d="M82.3,161.45c0,1.77-.82,3.22-1.85,3.22s-1.85-1.45-1.85-3.22.83-3.23,1.85-3.23,1.85,1.45,1.85,3.23"/><path class="cls-9" d="M94.12,153.22c-1.56.85-3.22.82-3.71-.08s.37-2.31,1.93-3.17,3.23-.82,3.71.08-.37,2.32-1.93,3.17"/><path class="cls-9" d="M117.53,155.46c-1.57.86-3.23.82-3.72-.08s.38-2.31,1.94-3.17,3.22-.82,3.71.08-.37,2.32-1.93,3.17"/><path class="cls-9" d="M126.65,165.31c-1.55.86-3.22.82-3.71-.08s.37-2.32,1.93-3.17,3.23-.82,3.72.08-.37,2.32-1.94,3.17"/><path class="cls-9" d="M127.34,177.6c-1.56.86-3.22.82-3.72-.08s.38-2.31,1.94-3.17,3.23-.82,3.71.08-.37,2.32-1.93,3.17"/><path class="cls-9" d="M150,162.27c-1.56.86-3.23.82-3.72-.08s.38-2.31,1.94-3.17,3.22-.82,3.71.09-.37,2.31-1.93,3.16"/><path class="cls-9" d="M149.36,150.67c-1.56.85-3.22.82-3.72-.08s.38-2.32,1.94-3.17,3.22-.82,3.71.08-.37,2.31-1.93,3.17"/><path class="cls-9" d="M134.28,149.15c-1.56.86-3.23.82-3.71-.07s.37-2.32,1.93-3.18,3.22-.81,3.71.08-.37,2.32-1.93,3.17"/><path class="cls-9" d="M102.59,141.37c-.11,1.77-1,3.16-2,3.1s-1.77-1.55-1.66-3.33,1-3.16,2-3.1,1.76,1.55,1.65,3.33"/><path class="cls-9" d="M94.48,165.27c-.11,1.77-1,3.16-2,3.1s-1.76-1.55-1.65-3.33,1-3.16,2-3.1,1.76,1.55,1.65,3.33"/><path class="cls-9" d="M116.62,151.71c-.1,1.77-1,3.16-2,3.1s-1.77-1.56-1.66-3.33,1-3.16,2-3.1,1.76,1.55,1.65,3.33"/><path class="cls-9" d="M121.45,159.41c-.11,1.77-1,3.16-2,3.1s-1.76-1.55-1.65-3.33,1-3.16,2-3.1,1.77,1.55,1.66,3.33"/><path class="cls-9" d="M109.21,170.63c-.11,1.77-1,3.16-2,3.1s-1.76-1.55-1.65-3.32,1-3.17,2-3.11,1.76,1.56,1.65,3.33"/><path class="cls-9" d="M103.06,154.92c-.1,1.78-1,3.16-2,3.1s-1.76-1.55-1.65-3.32,1-3.17,2-3.1,1.77,1.55,1.65,3.32"/><path class="cls-9" d="M90.16,158.34c-.1,1.77-1,3.16-2,3.1s-1.77-1.55-1.65-3.33,1-3.16,2-3.1,1.76,1.56,1.65,3.33"/><path class="cls-9" d="M107.35,145.4c-.11,1.77-1,3.16-2,3.1s-1.76-1.55-1.65-3.33,1-3.16,2-3.09,1.76,1.54,1.65,3.32"/><path class="cls-9" d="M112.17,144.64c1.44,1.05,2.12,2.57,1.52,3.39s-2.27.65-3.7-.4-2.11-2.56-1.51-3.4,2.26-.64,3.69.41"/><path class="cls-9" d="M136.18,162.37c1.43,1,2.11,2.57,1.5,3.4s-2.26.64-3.7-.4-2.1-2.57-1.5-3.4,2.26-.65,3.7.4"/><path class="cls-9" d="M147.23,170.17c1.43,1.06,2.11,2.58,1.51,3.4s-2.27.65-3.7-.4-2.11-2.57-1.5-3.4,2.25-.64,3.69.4"/><path class="cls-9" d="M166.92,155.81c1.43,1.05,2.11,2.57,1.5,3.4s-2.25.65-3.69-.41-2.11-2.56-1.51-3.39,2.26-.65,3.7.4"/><path class="cls-9" d="M103.44,153.84c1.59.8,2.5,2.19,2,3.11s-2.12,1-3.71.2-2.5-2.19-2-3.11,2.12-1,3.71-.2"/><path class="cls-9" d="M109.21,164.78c-.11,1.77-1,3.16-2,3.1s-1.76-1.55-1.65-3.33,1-3.16,2-3.1,1.76,1.55,1.65,3.33"/><path class="cls-9" d="M114.79,164.78c-.11,1.77-1,3.16-2,3.1s-1.76-1.55-1.66-3.33,1-3.16,2-3.1,1.76,1.55,1.65,3.33"/><path class="cls-9" d="M122.5,149c1.57.85,2.45,2.26,2,3.16s-2.15.95-3.71.1-2.44-2.25-2-3.15,2.15-.95,3.71-.11"/><path class="cls-9" d="M127.62,146.25c-.11,1.78-1,3.16-2.05,3.1s-1.76-1.55-1.66-3.33,1-3.16,2-3.1,1.76,1.56,1.66,3.33"/><path class="cls-9" d="M131.26,156.62c-.11,1.77-1,3.17-2,3.1s-1.76-1.55-1.65-3.32,1-3.17,2.05-3.11,1.76,1.56,1.65,3.33"/><path class="cls-9" d="M150.32,146.25c-.11,1.77-1,3.16-2,3.1s-1.76-1.55-1.65-3.33,1-3.16,2-3.1,1.77,1.55,1.66,3.33"/><path class="cls-9" d="M142,141.65c-.11,1.77-1,3.16-2,3.1s-1.76-1.55-1.65-3.33,1-3.16,2-3.09,1.77,1.55,1.66,3.32"/><path class="cls-9" d="M150.81,166.4c-.11,1.77-1,3.16-2.05,3.1s-1.76-1.55-1.65-3.33,1-3.16,2-3.1,1.76,1.56,1.66,3.33"/><path class="cls-9" d="M163,151.79c-.11,1.77-1,3.16-2.05,3.1s-1.76-1.56-1.65-3.33,1-3.16,2.05-3.1,1.76,1.56,1.65,3.33"/><path class="cls-9" d="M181.23,153.41c-.11,1.77-1,3.16-2,3.1s-1.76-1.56-1.65-3.33,1-3.16,2.05-3.1,1.76,1.55,1.65,3.33"/><path class="cls-9" d="M172.35,163.18c-.1,1.78-1,3.17-2,3.11s-1.76-1.56-1.66-3.33,1-3.17,2-3.1,1.77,1.55,1.65,3.32"/></svg>