<?xml version="1.0" encoding="utf-8"?>
<!-- Generator: Adobe Illustrator 16.0.0, SVG Export Plug-In . SVG Version: 6.00 Build 0)  -->
<!DOCTYPE svg PUBLIC "-//W3C//DTD SVG 1.1//EN" "http://www.w3.org/Graphics/SVG/1.1/DTD/svg11.dtd">
<svg version="1.1" id="Layer_1" xmlns="http://www.w3.org/2000/svg" xmlns:xlink="http://www.w3.org/1999/xlink" x="0px" y="0px"
	 width="500px" height="500px" viewBox="0 0 500 500" enable-background="new 0 0 500 500" xml:space="preserve">
<g id="Layer_1_copy_70">
	<g>
		<path fill="#FEBC11" d="M285.124,75.213c0,14.46-11.726,26.182-26.151,26.182c-14.465,0-26.183-11.722-26.183-26.182
			c0-14.456,11.718-26.176,26.183-26.176C273.398,49.037,285.124,60.757,285.124,75.213z"/>
		<path fill="#27140E" d="M258.973,105.179c-16.523,0-29.97-13.443-29.97-29.966c0-16.519,13.445-29.96,29.97-29.96
			c16.51,0,29.936,13.441,29.936,29.96C288.907,91.736,275.482,105.179,258.973,105.179z M258.973,52.821
			c-12.353,0-22.399,10.046-22.399,22.392c0,12.351,10.048,22.397,22.399,22.397c12.334,0,22.366-10.046,22.366-22.397
			C281.339,62.868,271.307,52.821,258.973,52.821z"/>
	</g>
	<g>
		<path fill="#FEBC11" d="M345.603,93.265c0,14.458,11.727,26.181,26.182,26.181c14.457,0,26.177-11.723,26.177-26.181
			c0-14.456-11.72-26.177-26.177-26.177C357.328,67.087,345.603,78.809,345.603,93.265z"/>
		<path fill="#27140E" d="M371.783,123.23c-16.525,0-29.961-13.443-29.961-29.965s13.436-29.962,29.961-29.962
			c16.521,0,29.958,13.44,29.958,29.962S388.306,123.23,371.783,123.23z M371.783,70.872c-12.351,0-22.396,10.045-22.396,22.393
			c0,12.351,10.046,22.396,22.396,22.396c12.347,0,22.39-10.046,22.39-22.396C394.173,80.917,384.13,70.872,371.783,70.872z"/>
	</g>
	<g>
		<path fill="#FEBC11" d="M289.632,81.53c0,14.458,11.72,26.18,26.18,26.18c14.464,0,26.183-11.722,26.183-26.18
			c0-14.456-11.719-26.177-26.183-26.177C301.352,55.353,289.632,67.074,289.632,81.53z"/>
		<path fill="#27140E" d="M315.812,111.495c-16.521,0-29.961-13.443-29.961-29.965s13.438-29.962,29.961-29.962
			s29.965,13.441,29.965,29.962C345.776,98.052,332.335,111.495,315.812,111.495z M315.812,59.137
			c-12.353,0-22.394,10.046-22.394,22.393c0,12.348,10.041,22.394,22.394,22.394c12.348,0,22.396-10.045,22.396-22.394
			C338.208,69.183,328.159,59.137,315.812,59.137z"/>
	</g>
	<g>
		<path fill="#283C97" d="M214.731,423.478c0,25.42,16.773,46.034,37.46,46.034c20.678,0,37.443-20.614,37.443-46.034
			c0-25.43-16.767-46.046-37.443-46.046C231.505,377.432,214.731,398.048,214.731,423.478z"/>
		<path fill="#27140E" d="M252.191,473.295c-22.742,0-41.242-22.349-41.242-49.816c0-27.476,18.5-49.832,41.242-49.832
			c22.73,0,41.23,22.356,41.23,49.832C293.423,450.947,274.923,473.295,252.191,473.295z M252.191,381.221
			c-18.569,0-33.673,18.954-33.673,42.257c0,23.297,15.104,42.248,33.673,42.248c18.559,0,33.662-18.951,33.662-42.247
			C285.854,400.175,270.75,381.221,252.191,381.221z"/>
	</g>
	<g>
		<path fill="#FEBC11" d="M398.861,114.027c0,14.457,11.719,26.179,26.176,26.179c14.46,0,26.178-11.722,26.178-26.179
			c0-14.458-11.718-26.177-26.178-26.177C410.58,87.851,398.861,99.57,398.861,114.027z"/>
		<path fill="#27140E" d="M425.037,143.99c-16.525,0-29.961-13.439-29.961-29.962c0-16.521,13.436-29.962,29.961-29.962
			c16.522,0,29.961,13.441,29.961,29.962C454.998,130.55,441.561,143.99,425.037,143.99z M425.037,91.635
			c-12.35,0-22.395,10.045-22.395,22.393c0,12.348,10.045,22.393,22.395,22.393s22.392-10.045,22.392-22.393
			C447.429,101.68,437.387,91.635,425.037,91.635z"/>
	</g>
	<g>
		<path fill="#FEBC11" d="M416.012,167.286c0,14.459,11.723,26.179,26.175,26.179c14.451,0,26.179-11.72,26.179-26.179
			c0-14.456-11.728-26.179-26.179-26.179C427.733,141.107,416.012,152.83,416.012,167.286z"/>
		<path fill="#27140E" d="M442.188,197.249c-16.524,0-29.962-13.44-29.962-29.963c0-16.522,13.438-29.963,29.962-29.963
			c16.523,0,29.961,13.44,29.961,29.963C472.147,183.809,458.711,197.249,442.188,197.249z M442.188,144.894
			c-12.35,0-22.395,10.044-22.395,22.392c0,12.348,10.045,22.395,22.395,22.395c12.349,0,22.393-10.047,22.393-22.395
			C464.579,154.938,454.535,144.894,442.188,144.894z"/>
	</g>
	<g>
		<path fill="#FEBC11" d="M398.861,220.545c0,14.458,11.719,26.181,26.176,26.181c14.46,0,26.178-11.723,26.178-26.181
			c0-14.456-11.718-26.177-26.178-26.177C410.58,194.368,398.861,206.089,398.861,220.545z"/>
		<path fill="#27140E" d="M425.037,250.51c-16.525,0-29.961-13.443-29.961-29.965c0-16.519,13.436-29.96,29.961-29.96
			c16.52,0,29.961,13.441,29.961,29.96C454.998,237.067,441.557,250.51,425.037,250.51z M425.037,198.152
			c-12.35,0-22.395,10.047-22.395,22.393c0,12.348,10.045,22.394,22.395,22.394c12.344,0,22.392-10.046,22.392-22.394
			C447.429,208.199,437.381,198.152,425.037,198.152z"/>
	</g>
	<g>
		<path fill="#FEBC11" d="M360.979,270.309c0,15.887,12.879,28.762,28.755,28.762c15.895,0,28.77-12.875,28.77-28.762
			c0-15.877-12.875-28.757-28.77-28.757C373.856,241.552,360.979,254.432,360.979,270.309z"/>
		<path fill="#27140E" d="M389.732,302.854c-17.94,0-32.54-14.601-32.54-32.545c0-17.939,14.6-32.542,32.54-32.542
			c17.951,0,32.556,14.601,32.556,32.542C422.288,288.253,407.685,302.854,389.732,302.854z M389.732,245.338
			c-13.768,0-24.969,11.202-24.969,24.971c0,13.771,11.201,24.976,24.969,24.976c13.778,0,24.986-11.203,24.986-24.976
			C414.72,256.541,403.512,245.338,389.732,245.338z"/>
	</g>
	<g>
		<path fill="#FEBC11" d="M313.173,315.396c0,16.35,13.261,29.606,29.611,29.606c16.362,0,29.612-13.258,29.612-29.606
			c0-16.355-13.25-29.612-29.612-29.612C326.434,285.784,313.173,299.041,313.173,315.396z"/>
		<path fill="#27140E" d="M342.784,348.79c-18.414,0-33.396-14.981-33.396-33.394c0-18.416,14.98-33.398,33.396-33.398
			c18.416,0,33.396,14.982,33.396,33.398C376.182,333.807,361.2,348.79,342.784,348.79z M342.784,289.568
			c-14.24,0-25.826,11.584-25.826,25.828c0,14.233,11.586,25.82,25.826,25.82c14.243,0,25.829-11.587,25.829-25.82
			C368.613,301.152,357.027,289.568,342.784,289.568z"/>
	</g>
	<g>
		<path fill="#FEBC11" d="M255.793,349.309c0,16.623,13.459,30.098,30.09,30.098c16.62,0,30.104-13.475,30.104-30.098
			c0-16.621-13.484-30.105-30.104-30.105C269.252,319.203,255.793,332.688,255.793,349.309z"/>
		<path fill="#27140E" d="M285.883,383.189c-18.683,0-33.875-15.196-33.875-33.881s15.192-33.889,33.875-33.889
			c18.688,0,33.892,15.204,33.892,33.889C319.773,367.993,304.571,383.189,285.883,383.189z M285.883,322.989
			c-14.509,0-26.305,11.808-26.305,26.319c0,14.508,11.796,26.311,26.305,26.311c14.512,0,26.319-11.803,26.319-26.311
			C312.202,334.796,300.395,322.989,285.883,322.989z"/>
	</g>
	<g>
		<circle fill="#FEBC11" cx="144.32" cy="94.168" r="26.178"/>
		<path fill="#27140E" d="M144.318,124.132c-16.519,0-29.965-13.441-29.965-29.964c0-16.522,13.446-29.963,29.965-29.963
			c16.522,0,29.961,13.441,29.961,29.963S160.841,124.132,144.318,124.132z M144.318,71.773c-12.347,0-22.392,10.046-22.392,22.395
			c0,12.348,10.045,22.395,22.392,22.395c12.35,0,22.394-10.047,22.394-22.395S156.668,71.773,144.318,71.773z"/>
	</g>
	<g>
		<circle fill="#FEBC11" cx="200.289" cy="82.431" r="26.177"/>
		<path fill="#27140E" d="M200.29,112.395c-16.521,0-29.966-13.441-29.966-29.963c0-16.521,13.445-29.961,29.966-29.961
			c16.524,0,29.961,13.44,29.961,29.961S216.814,112.395,200.29,112.395z M200.29,60.039c-12.347,0-22.396,10.046-22.396,22.392
			c0,12.349,10.05,22.395,22.396,22.395c12.349,0,22.393-10.046,22.393-22.395C222.683,70.085,212.639,60.039,200.29,60.039z"/>
	</g>
	<g>
		<circle fill="#FEBC11" cx="91.064" cy="114.929" r="26.179"/>
		<path fill="#27140E" d="M91.066,144.891c-16.521,0-29.967-13.439-29.967-29.962c0-16.52,13.445-29.961,29.967-29.961
			s29.961,13.441,29.961,29.961C121.027,131.452,107.589,144.891,91.066,144.891z M91.066,92.536
			c-12.35,0-22.398,10.045-22.398,22.393c0,12.348,10.049,22.395,22.398,22.395c12.346,0,22.394-10.046,22.394-22.395
			C113.46,102.581,103.412,92.536,91.066,92.536z"/>
	</g>
	<g>
		<path fill="#FEBC11" d="M100.094,168.188c0,14.458-11.724,26.178-26.182,26.178c-14.453,0-26.176-11.72-26.176-26.178
			c0-14.456,11.723-26.177,26.176-26.177C88.37,142.011,100.094,153.732,100.094,168.188z"/>
		<path fill="#27140E" d="M73.912,198.152c-16.518,0-29.958-13.442-29.958-29.964c0-16.521,13.44-29.963,29.958-29.963
			c16.522,0,29.968,13.442,29.968,29.963C103.88,184.71,90.435,198.152,73.912,198.152z M73.912,145.795
			c-12.346,0-22.39,10.045-22.39,22.393c0,12.35,10.044,22.395,22.39,22.395c12.351,0,22.399-10.045,22.399-22.395
			C96.312,155.84,86.263,145.795,73.912,145.795z"/>
	</g>
	<g>
		<path fill="#FEBC11" d="M117.243,221.446c0,14.46-11.718,26.182-26.177,26.182c-14.457,0-26.177-11.721-26.177-26.182
			c0-14.456,11.72-26.177,26.177-26.177C105.525,195.27,117.243,206.991,117.243,221.446z"/>
		<path fill="#27140E" d="M91.066,251.412c-16.521,0-29.964-13.442-29.964-29.965c0-16.521,13.442-29.961,29.964-29.961
			s29.961,13.441,29.961,29.961C121.027,237.97,107.589,251.412,91.066,251.412z M91.066,199.054
			c-12.35,0-22.392,10.046-22.392,22.393c0,12.35,10.042,22.396,22.392,22.396c12.346,0,22.394-10.047,22.394-22.396
			C113.46,209.1,103.412,199.054,91.066,199.054z"/>
	</g>
	<g>
		<path fill="#FEBC11" d="M153.492,270.482c0,15.096-12.237,27.33-27.326,27.33c-15.096,0-27.327-12.234-27.327-27.33
			c0-15.094,12.231-27.329,27.327-27.329C141.255,243.154,153.492,255.389,153.492,270.482z"/>
		<path fill="#27140E" d="M126.166,301.598c-17.158,0-31.113-13.957-31.113-31.115c0-17.156,13.955-31.112,31.113-31.112
			c17.153,0,31.109,13.956,31.109,31.112C157.275,287.641,143.319,301.598,126.166,301.598z M126.166,246.939
			c-12.982,0-23.544,10.565-23.544,23.542c0,12.983,10.562,23.549,23.544,23.549c12.98,0,23.541-10.564,23.541-23.549
			C149.707,257.504,139.146,246.939,126.166,246.939z"/>
	</g>
	<g>
		<path fill="#FEBC11" d="M197.939,314.062c0,15.416-12.493,27.903-27.901,27.903c-15.41,0-27.905-12.487-27.905-27.903
			c0-15.41,12.495-27.896,27.905-27.896C185.446,286.167,197.939,298.652,197.939,314.062z"/>
		<path fill="#27140E" d="M170.038,345.75c-17.469,0-31.687-14.217-31.687-31.688c0-17.47,14.218-31.68,31.687-31.68
			c17.47,0,31.688,14.21,31.688,31.68C201.726,331.534,187.508,345.75,170.038,345.75z M170.038,289.953
			c-13.295,0-24.119,10.818-24.119,24.109c0,13.301,10.824,24.119,24.119,24.119c13.297,0,24.114-10.817,24.114-24.119
			C194.152,300.771,183.335,289.953,170.038,289.953z"/>
	</g>
	<g>
		<path fill="#FEBC11" d="M250.773,349.014c0,15.707-12.733,28.435-28.434,28.435c-15.704,0-28.438-12.728-28.438-28.435
			c0-15.699,12.733-28.431,28.438-28.431C238.04,320.583,250.773,333.314,250.773,349.014z"/>
		<path fill="#27140E" d="M222.341,381.234c-17.768,0-32.225-14.457-32.225-32.221c0-17.765,14.457-32.213,32.225-32.213
			c17.764,0,32.218,14.448,32.218,32.213C254.559,366.777,240.104,381.234,222.341,381.234z M222.341,324.37
			c-13.596,0-24.651,11.054-24.651,24.646s11.056,24.647,24.651,24.647c13.591,0,24.648-11.058,24.648-24.647
			C246.989,335.423,235.932,324.37,222.341,324.37z"/>
	</g>
</g>
</svg>
