<?xml version="1.0" encoding="utf-8"?>
<!-- Generator: Adobe Illustrator 16.0.0, SVG Export Plug-In . SVG Version: 6.00 Build 0)  -->
<!DOCTYPE svg PUBLIC "-//W3C//DTD SVG 1.1//EN" "http://www.w3.org/Graphics/SVG/1.1/DTD/svg11.dtd">
<svg version="1.1" id="Layer_1" xmlns="http://www.w3.org/2000/svg" xmlns:xlink="http://www.w3.org/1999/xlink" x="0px" y="0px"
	 width="500px" height="500px" viewBox="0 0 500 500" enable-background="new 0 0 500 500" xml:space="preserve">
<g id="Layer_1_copy_12">
	<g>
		<g>
			<path fill="#FFFFFF" d="M371.614,424.906c0,9.473-7.751,17.22-17.223,17.22h-32.954c-9.473,0-24.975,0-34.443,0H71.659
				c-9.469,0-17.219-7.747-17.219-17.22V168.848c0-9.472,7.75-17.221,17.219-17.221h282.732c9.472,0,17.223,7.749,17.223,17.221
				v187.933c0,9.477,0,24.977,0,34.449V424.906z"/>
		</g>
		<g>
			<path fill="#2C2010" d="M354.393,445.814H71.659c-11.529,0-20.912-9.383-20.912-20.908V168.848
				c0-11.53,9.383-20.912,20.912-20.912h282.732c11.53,0,20.909,9.382,20.909,20.912v256.058
				C375.302,436.432,365.923,445.814,354.393,445.814z M71.659,155.318c-7.46,0-13.528,6.07-13.528,13.53v256.058
				c0,7.458,6.068,13.531,13.528,13.531h282.732c7.461,0,13.53-6.073,13.53-13.531V168.848c0-7.46-6.069-13.53-13.53-13.53H71.659z"
				/>
		</g>
	</g>
	<g>
		<g>
			<path fill="#458AC9" d="M390.355,198.923c0,9.473-7.752,17.221-17.222,17.221H50.754c-9.467,0-17.221-7.749-17.221-17.221
				v-93.866c0-9.474,7.754-17.224,17.221-17.224h322.381c9.471,0,17.222,7.75,17.222,17.224L390.355,198.923L390.355,198.923z"/>
		</g>
		<g>
			<path fill="#2C2010" d="M373.135,219.835H50.754c-11.53,0-20.91-9.38-20.91-20.912v-93.866c0-11.532,9.38-20.916,20.91-20.916
				h322.381c11.533,0,20.913,9.384,20.913,20.916v93.866C394.048,210.455,384.668,219.835,373.135,219.835z M50.754,91.524
				c-7.46,0-13.532,6.07-13.532,13.533v93.866c0,7.462,6.072,13.531,13.532,13.531h322.381c7.464,0,13.532-6.069,13.532-13.531
				v-93.866c0-7.462-6.068-13.533-13.532-13.533H50.754z"/>
		</g>
	</g>
	<g>
		<path fill="#424143" d="M133.014,142.33c0,10.111-7.905,18.308-17.659,18.308l0,0c-9.754,0-17.658-8.197-17.658-18.308V77.311
			c0-10.115,7.904-18.313,17.658-18.313l0,0c9.754,0,17.659,8.198,17.659,18.313V142.33z"/>
		<path fill="#2C2010" d="M115.354,164.33c-11.774,0-21.352-9.87-21.352-22V77.311c0-12.133,9.577-22.003,21.352-22.003
			s21.348,9.87,21.348,22.003v65.019C136.702,154.46,127.13,164.33,115.354,164.33z M115.354,62.688
			c-7.702,0-13.97,6.561-13.97,14.623v65.019c0,8.06,6.268,14.618,13.97,14.618c7.701,0,13.971-6.558,13.971-14.618V77.311
			C129.325,69.249,123.056,62.688,115.354,62.688z"/>
	</g>
	<g>
		<path fill="#424143" d="M325.12,142.33c0,10.111-7.904,18.308-17.662,18.308l0,0c-9.753,0-17.658-8.197-17.658-18.308V77.311
			c0-10.115,7.905-18.313,17.658-18.313l0,0c9.758,0,17.662,8.198,17.662,18.313V142.33z"/>
		<path fill="#2C2010" d="M307.458,164.33c-11.771,0-21.351-9.87-21.351-22V77.311c0-12.133,9.58-22.003,21.351-22.003
			c11.776,0,21.352,9.87,21.352,22.003v65.019C328.81,154.46,319.234,164.33,307.458,164.33z M307.458,62.688
			c-7.701,0-13.969,6.561-13.969,14.623v65.019c0,8.06,6.268,14.618,13.969,14.618c7.706,0,13.975-6.558,13.975-14.618V77.311
			C321.433,69.249,315.164,62.688,307.458,62.688z"/>
	</g>
	<g>
		<g>
			<path fill="#E5E5E5" d="M371.46,372.27v52.703c0,9.468-7.75,17.221-17.222,17.221h-51.973"/>
		</g>
		<g>
			<path fill="#2C2010" d="M354.238,445.882h-51.973c-2.041,0-3.692-1.65-3.692-3.688c0-2.037,1.651-3.688,3.692-3.688h51.973
				c7.46,0,13.532-6.073,13.532-13.531V372.27c0-2.043,1.65-3.696,3.688-3.696c2.037,0,3.692,1.653,3.692,3.696v52.704
				C375.152,436.498,365.769,445.882,354.238,445.882z"/>
		</g>
	</g>
	<g>
		<path fill="#D2D3D4" d="M371.72,372.457l-52.696,0.264c-9.476,0.053-17.019,7.829-16.766,17.305l1.422,53.188"/>
	</g>
	<g>
		<path fill="#2C2010" d="M291.962,445.882c-2.032,0-3.683-1.645-3.69-3.683c-0.006-2.027,1.643-3.688,3.68-3.695l20.906-0.067
			c0.003,0,0.003,0,0.012,0c2.032,0,3.683,1.639,3.689,3.676c0.01,2.044-1.64,3.694-3.68,3.702l-20.902,0.067
			C291.969,445.882,291.969,445.882,291.962,445.882z"/>
	</g>
	<g>
		<path fill="#1D1D1D" d="M370.234,387.105c-1.358,0-2.46-1.102-2.46-2.465v-19.826c0-1.357,1.102-2.459,2.46-2.459
			c1.36,0,2.462,1.102,2.462,2.459v19.826C372.696,386.004,371.596,387.105,370.234,387.105z"/>
	</g>
	<g>
		<path fill="#333333" d="M155.598,271.748h22.178v73.751h-14.363v-49.886c0-1.438,0.016-3.444,0.053-6.033
			c0.031-2.58,0.046-4.579,0.046-5.98l-13.979,61.899h-14.972l-13.88-61.899c0,1.401,0.015,3.4,0.052,5.98
			c0.03,2.589,0.046,4.595,0.046,6.033v49.886h-14.355v-73.751h22.426l13.424,57.993L155.598,271.748z"/>
		<path fill="#333333" d="M213.127,271.748h17.436l26.096,73.751h-16.711l-4.87-15.163h-27.159l-5.001,15.163h-16.12
			L213.127,271.748z M212.112,317.626h18.889l-9.316-29.021L212.112,317.626z"/>
		<path fill="#333333" d="M298.716,271.748h17.463l-24.67,46.097v27.654h-15.411v-27.654l-25.52-46.097h18.165l15.312,32.12
			L298.716,271.748z"/>
	</g>
	<g>
		<path fill="#42A648" d="M469.42,171.296c-14.261-11.788-29.481-24.352-43.729-36.628c-3.248-2.803-6.303-5.541-10.786-5.111
			c-9.186,0.88-7.95,10.413-7.95,20.727c0,5.29,0,10.65,0,15.614c-15.28,0-77.157-0.999-81.087,0.568
			c-1.705,0.682-4.843,4.013-4.843,4.013c0,0.417,0,0.892-0.006,1.335c-0.204,0.484-1.234,75.813,0.317,79.747
			c1.015,2.558,3.916,4.549,6.801,5.416c7.191,0.023,14.394,0.045,21.585,0.068c2.855-0.867,5.806-2.844,6.83-5.371
			c1.593-3.915,0.604-10.794,0.622-16.467c0.028-8.263,0.064-20.695,0.104-32.958c16.896,0,38.231,0,49.677,0
			c1.688,14.055-5.563,37.036,9.654,36.346c3.634-0.163,6.316-3.07,9.082-5.394c13.269-11.13,26.425-22.111,39.47-32.936
			c5.27-4.376,11.723-7.86,14.482-14.198c0-1.328,0-2.659,0-3.985C478.072,177.31,473.007,174.264,469.42,171.296z"/>
		<path fill="#27140E" d="M349.724,259.505c0,0-0.004,0-0.007,0l-21.586-0.067c-0.236,0-0.472-0.03-0.702-0.099
			c-3.103-0.937-6.936-3.229-8.375-6.872c-1.207-3.047-1.507-71.363-0.465-80.667h-0.024l0.003-1.337
			c0.005-0.62,0.245-1.218,0.668-1.67c0.824-0.875,3.669-3.791,5.726-4.611c0.924-0.37,2.646-1.056,30.779-1.056
			c11.688,0,24.745,0.113,35.163,0.204c5.442,0.049,10.164,0.088,13.593,0.106v-13.15c0-1.1-0.015-2.19-0.029-3.259
			c-0.117-8.867-0.246-18.917,10.201-19.917c5.443-0.517,8.992,2.553,12.409,5.501l0.226,0.194
			c13.72,11.826,28.184,23.782,42.171,35.346l1.514,1.249c0.675,0.56,1.402,1.118,2.149,1.691c3.443,2.651,7.342,5.657,8.845,10.225
			c0.078,0.249,0.125,0.509,0.125,0.769v3.985c0,0.335-0.071,0.669-0.208,0.98c-2.354,5.41-6.91,8.826-11.318,12.131
			c-1.304,0.975-2.609,1.95-3.844,2.98c-13.046,10.823-26.193,21.8-39.458,32.928c-0.415,0.347-0.83,0.713-1.253,1.079
			c-2.52,2.21-5.375,4.714-9.305,4.888c-0.261,0.015-0.518,0.019-0.767,0.019l0,0c-3.329-0.004-6.004-1.037-7.946-3.088
			c-4.436-4.67-3.994-13.29-3.516-22.412c0.188-3.709,0.389-7.519,0.204-10.862h-44.962l-0.099,30.505
			c-0.004,1.555,0.068,3.206,0.141,4.854c0.199,4.53,0.406,9.218-0.937,12.534c-1.456,3.567-5.292,5.846-8.399,6.795
			C350.211,259.467,349.966,259.505,349.724,259.505z M328.522,254.52l20.819,0.066c2.323-0.791,4.327-2.338,4.935-3.839
			c0.941-2.315,0.761-6.457,0.584-10.462c-0.074-1.728-0.151-3.455-0.144-5.084l0.102-32.958c0.005-1.356,1.104-2.454,2.46-2.454
			h49.677c1.244,0,2.297,0.932,2.443,2.168c0.509,4.219,0.249,9.126,0.003,13.871c-0.396,7.685-0.808,15.629,2.178,18.77
			c0.987,1.048,2.42,1.553,4.374,1.553l0,0c0.182,0,0.357-0.003,0.544-0.011c2.207-0.098,4.186-1.837,6.287-3.674
			c0.444-0.391,0.887-0.777,1.326-1.15c13.271-11.132,26.429-22.113,39.479-32.944c1.301-1.079,2.671-2.104,4.039-3.132
			c3.927-2.944,7.649-5.733,9.554-9.71v-3.025c-1.139-2.961-4.14-5.276-7.049-7.517c-0.796-0.611-1.567-1.205-2.282-1.799
			l-1.512-1.25c-14.004-11.577-28.491-23.548-42.249-35.409l-0.228-0.196c-2.923-2.519-5.382-4.66-8.721-4.328
			c-5.403,0.519-5.891,4.732-5.759,14.953c0.019,1.094,0.033,2.205,0.033,3.325v15.614c0,1.36-1.102,2.459-2.462,2.459
			c-3.422,0-9.177-0.049-16.103-0.109c-10.397-0.088-23.437-0.204-35.113-0.204c-23.049,0-28.08,0.46-29.03,0.731
			c-0.532,0.217-1.995,1.484-3.228,2.706v0.344c0,0.109-0.009,0.217-0.023,0.325c-0.328,4.573-1.041,73.965,0.203,78.612
			C324.243,252.218,326.188,253.734,328.522,254.52z"/>
	</g>
</g>
</svg>
