<?xml version="1.0" encoding="utf-8"?>
<!-- Generator: Adobe Illustrator 16.0.0, SVG Export Plug-In . SVG Version: 6.00 Build 0)  -->
<!DOCTYPE svg PUBLIC "-//W3C//DTD SVG 1.1//EN" "http://www.w3.org/Graphics/SVG/1.1/DTD/svg11.dtd">
<svg version="1.1" id="Layer_1" xmlns="http://www.w3.org/2000/svg" xmlns:xlink="http://www.w3.org/1999/xlink" x="0px" y="0px"
	 width="500px" height="500px" viewBox="0 0 500 500" enable-background="new 0 0 500 500" xml:space="preserve">
<g id="Layer_1_copy_34">
	<g>
		<polygon fill="#F4BE78" points="165.511,240.643 171.975,294.759 236.147,285.331 201.507,216.647 		"/>
		<path fill="#27140E" d="M170.979,296.055l-6.686-55.973l37.656-25.104l35.934,71.254L170.979,296.055z M166.726,241.204
			l6.24,52.251l61.442-9.021l-33.339-66.12L166.726,241.204z"/>
	</g>
	<g>
		<g>
			<path fill="#E5A661" d="M469.567,160.725c0,0-157.121,5.434-159.39,6.338c-2.262,0.906-34.861,0-34.861,0l-10.418-9.056
				c0,0-20.826-4.98-37.13,13.133c-16.3,18.113-4.528,33.96-4.528,33.96l-16.3,44.824c0,0-39.843,53.438-17.205,61.585
				c8.206,2.468,13.133-3.171,13.133-3.171s-6.795,17.205,14.943,15.396c2.717,16.748,22.185,8.154,22.185,8.154
				s14.035,14.482,38.037-2.266c23.998-16.756,34.863-55.702,34.863-55.702s14.037,5.435,48.9-32.6
				c14.039,0.456,107.771-7.698,107.771-7.698V160.725L469.567,160.725z"/>
		</g>
		<g>
			<path fill="#27140E" d="M255.869,341.134c-8.189,0-13.847-3.308-16.542-5.334c-2.17,0.737-5.802,1.726-9.615,1.726
				c-7.417,0-12.504-3.604-14.583-10.229c-6.997,0.162-11.853-1.905-14.555-5.881c-1.43-2.097-1.997-4.404-2.127-6.535
				c-2.689,0.82-6.258,0.953-9.699-0.085c-4.462-1.604-7.396-4.648-8.667-8.861c-5.211-17.33,19.646-52.013,23.811-57.649
				l15.562-42.811c-2.744-4.94-9.047-20.168,5.768-36.629c11.662-12.958,25.648-14.895,32.946-14.895
				c4.463,0,7.407,0.694,7.53,0.722c0.538,0.13,1.034,0.385,1.454,0.749l9.486,8.246c3.709,0.099,15.064,0.37,23.494,0.37
				c7.418,0,8.877-0.217,9.094-0.261c-0.137,0.029-0.244,0.074-0.321,0.106c0.7-0.281,2.821-1.131,160.548-6.583
				c0.911-0.041,1.825,0.313,2.494,0.96c0.674,0.646,1.053,1.537,1.053,2.467v72.9c0,1.781-1.363,3.264-3.138,3.418
				c-3.614,0.315-88.52,7.681-106.574,7.729c-26.061,28.121-41.097,32.72-47.929,32.853c-3.026,9.423-14.156,39.997-35.366,54.811
				C271.725,338.206,263.607,341.134,255.869,341.134z M239.996,328.461c0.907,0,1.802,0.355,2.462,1.036
				c0.179,0.176,4.875,4.774,13.411,4.774c6.306,0,13.104-2.51,20.197-7.461c22.688-15.844,33.422-53.43,33.528-53.807
				c0.261-0.934,0.901-1.711,1.768-2.146c0.852-0.428,1.845-0.482,2.741-0.146c-0.063-0.027,0.295,0.049,0.945,0.049
				c3.549,0,17.209-2.285,44.221-31.755c0.679-0.736,1.574-1.164,2.642-1.112c0.346,0.014,0.749,0.018,1.202,0.018
				c15.501,0,87.11-6.067,103.025-7.434v-66.205c-60.64,2.105-148.843,5.358-155.063,6.114c-0.841,0.259-2.706,0.507-10.941,0.507
				c-10.259,0-24.768-0.4-24.915-0.403c-0.789-0.021-1.554-0.32-2.152-0.84l-9.717-8.45c-0.964-0.158-2.793-0.393-5.182-0.393
				c-7.521,0-18.459,2.192-27.847,12.623c-14.134,15.701-4.722,29.075-4.312,29.638c0.666,0.92,0.845,2.131,0.456,3.202
				l-16.3,44.824c-0.117,0.315-0.273,0.609-0.478,0.883c-7.662,10.276-26.746,39.668-23.038,51.979
				c0.646,2.146,1.992,3.512,4.249,4.323c0.881,0.261,1.924,0.421,2.927,0.421c4.007,0,6.384-2.546,6.482-2.648
				c1.118-1.22,2.958-1.485,4.36-0.608c1.401,0.875,1.995,2.615,1.388,4.156c-0.521,1.36-1.515,5.475,0.196,7.973
				c1.634,2.367,5.526,2.865,8.505,2.865c0.862,0,1.78-0.041,2.769-0.127c1.768-0.117,3.379,1.108,3.666,2.875
				c0.843,5.168,3.472,7.48,8.52,7.48c4.461,0,8.862-1.908,8.902-1.92C239.061,328.552,239.529,328.461,239.996,328.461z"/>
		</g>
	</g>
	<g>
		<path fill="#F4BE78" d="M279.221,333.698c0,0-18.105-13.132-4.523-23.552c13.587-10.41,22.637,6.346,21.732,11.779
			S279.221,333.698,279.221,333.698z"/>
		<path fill="#27140E" d="M279.221,337.125c-0.711,0-1.414-0.225-2.012-0.652c-1.109-0.806-10.874-8.146-10.992-17.344
			c-0.042-3.072,1.034-7.594,6.395-11.701c3.506-2.693,7.08-4.053,10.63-4.053c4.331,0,8.503,2.111,11.745,5.938
			c3.399,4.011,5.434,9.556,4.831,13.174c-1.112,6.646-13.902,12.289-19.347,14.406
			C280.066,337.048,279.643,337.125,279.221,337.125z M283.24,310.238c-2.004,0-4.18,0.885-6.458,2.631
			c-2.524,1.941-3.737,3.953-3.71,6.17c0.054,4.037,4.119,8.434,6.73,10.719c6.678-2.833,12.764-6.652,13.25-8.421
			c0.176-1.058-0.796-4.633-3.303-7.593C288.396,312.146,286.166,310.238,283.24,310.238z"/>
	</g>
	<g>
		<path fill="#F4BE78" d="M314.254,299.919c0,0-33.514-12.101-35.548,4.815c3.092,10.923,18.344,18.277,27.396,8.771
			C315.162,304,314.254,299.919,314.254,299.919z"/>
		<path fill="#27140E" d="M296.012,321.322L296.012,321.322c-9.074,0-18.121-6.877-20.604-15.654
			c-0.123-0.436-0.159-0.891-0.102-1.338c0.535-4.493,3.508-12.032,17.367-12.032c10.447,0,22.249,4.222,22.746,4.397
			c1.103,0.398,1.926,1.338,2.182,2.479c0.393,1.768,0.299,6.924-9.013,16.701C305.196,319.438,300.847,321.322,296.012,321.322z
			 M282.212,304.454c1.925,5.575,7.968,10.006,13.8,10.006l0,0c2.952,0,5.516-1.114,7.611-3.315c4.048-4.256,5.829-7.18,6.611-8.918
			c-3.909-1.18-11.174-3.072-17.561-3.072C284.01,299.154,282.568,302.533,282.212,304.454z"/>
	</g>
	<g>
		<path fill="#F4BE78" d="M322.859,270.754c0,0-40.846-4.271-38.162,24.131c28.606,9.346,40.88,5.18,46.312-4.494
			C336.443,280.715,322.859,270.754,322.859,270.754z"/>
		<path fill="#27140E" d="M311.342,303.564C311.337,303.564,311.342,303.564,311.342,303.564c-7.498,0-16.556-1.78-27.71-5.42
			c-1.297-0.42-2.223-1.576-2.349-2.937c-0.688-7.285,1.117-13.351,5.374-18.024c7.987-8.771,22.658-10.082,30.694-10.082
			c3.462,0,5.769,0.23,5.865,0.246c0.604,0.062,1.178,0.279,1.669,0.644c0.658,0.478,15.953,11.899,9.113,24.083
			C329.717,299.693,322.096,303.564,311.342,303.564z M287.999,292.34c9.319,2.896,17.162,4.36,23.343,4.36
			c10.927,0,14.75-4.558,16.68-7.985c3.257-5.798-4.105-12.633-6.481-14.624c-0.896-0.062-2.363-0.133-4.188-0.133
			c-6.899,0-19.407,1.022-25.624,7.844C289.212,284.572,287.98,288.029,287.999,292.34z"/>
	</g>
	<g>
		<g>
			<path fill="#F4BE78" d="M184.303,257.167c35.621,11.478,65.804-60.969,68.825-54.331c3.021,6.641,39.238,28.981,50.109,8.455
				c18.111-27.169-51.923-31.394-64.598-35.02c-12.679-3.623-41.662,8.453-46.492,13.885c-4.83,5.434-20.527,10.268-20.527,10.268
				H30.346v79.69h122.562c0,0,2.426,20.052,25.365,13.409"/>
		</g>
		<g>
			<path fill="#27140E" d="M169.663,298.309c-4.311,0-8.083-1.062-11.287-3.178c-4.995-3.311-7.234-8.373-8.194-11.583H30.346
				c-1.893,0-3.428-1.54-3.428-3.435v-79.69c0-1.895,1.535-3.43,3.428-3.43h140.755c5.792-1.834,15.52-5.782,18.481-9.116
				c5.328-5.994,35.595-19.021,50-14.905c2.181,0.623,6.651,1.337,11.828,2.161c25.736,4.104,51.351,9.211,57.089,22.343
				c2.106,4.808,1.324,10.046-2.313,15.572c-3.72,6.894-10.254,10.38-18.988,10.136c-13.223-0.395-28.873-9.491-34.938-15.865
				c-1.454,1.935-3.502,5.018-5.378,7.845c-12.573,18.933-35.979,54.179-63.63,45.27c-1.801-0.574-2.798-2.51-2.215-4.318
				c0.581-1.795,2.521-2.783,4.318-2.208c22.722,7.312,44.244-25.117,55.812-42.537c6.282-9.463,8.412-12.661,11.723-12.385
				c1.465,0.118,2.721,1.025,3.357,2.43c1.333,2.879,17.342,14.533,31.216,14.915c6.163,0.195,10.284-2.007,12.745-6.648
				c0.053-0.101,0.113-0.199,0.176-0.296c2.374-3.558,2.974-6.555,1.83-9.159c-4.722-10.797-35.4-15.69-51.885-18.317
				c-5.618-0.897-10.057-1.604-12.633-2.34c-11.183-3.201-38.867,8.238-42.986,12.867c-5.311,5.976-20.377,10.74-22.076,11.265
				c-0.326,0.101-0.67,0.152-1.014,0.152H33.777v72.832h119.131c1.735,0,3.197,1.297,3.407,3.021
				c0.003,0.048,0.902,6.464,5.896,9.73c3.631,2.377,8.714,2.643,15.107,0.791c1.822-0.537,3.723,0.528,4.249,2.345
				c0.529,1.815-0.519,3.722-2.342,4.247C175.799,297.814,172.604,298.309,169.663,298.309z"/>
		</g>
	</g>
	<g>
		<g>
			<path fill="#E5A661" d="M264.277,281.411c0,0-3.479,13.412-6.375,17.507c-2.883,4.086-18.265,31.057-18.265,31.057"/>
		</g>
		<g>
			<path fill="#27140E" d="M239.638,332.835c-0.482,0-0.967-0.127-1.416-0.379c-1.369-0.778-1.846-2.524-1.064-3.897
				c0.632-1.108,15.48-27.132,18.406-31.289c1.893-2.68,4.654-11.59,5.947-16.582c0.397-1.526,1.965-2.439,3.489-2.047
				c1.524,0.4,2.438,1.957,2.043,3.49c-0.368,1.426-3.702,14.044-6.812,18.434c-2.213,3.146-12.812,21.537-18.108,30.826
				C241.594,332.314,240.628,332.835,239.638,332.835z"/>
		</g>
	</g>
	<g>
		<g>
			<path fill="#E5A661" d="M245.22,270.923c0,0-3.485,13.403-6.384,17.499c-2.896,4.087-20.034,34.01-20.034,34.01"/>
		</g>
		<g>
			<path fill="#27140E" d="M218.802,325.285c-0.482,0-0.971-0.119-1.419-0.372c-1.37-0.791-1.844-2.538-1.062-3.905
				c0.705-1.226,17.242-30.083,20.181-34.232c1.893-2.68,4.654-11.582,5.948-16.572c0.399-1.53,1.956-2.439,3.483-2.049
				c1.528,0.398,2.447,1.964,2.051,3.482c-0.371,1.426-3.704,14.045-6.817,18.438c-2.227,3.142-13.979,23.467-19.883,33.772
				C220.755,324.773,219.791,325.285,218.802,325.285z"/>
		</g>
	</g>
	<g>
		<g>
			<path fill="#E5A661" d="M227.896,259.67c0,0-3.483,13.412-6.38,17.499c-2.892,4.097-18.273,31.063-18.273,31.063"/>
		</g>
		<g>
			<path fill="#27140E" d="M203.239,311.096c-0.478,0-0.968-0.121-1.417-0.381c-1.366-0.777-1.844-2.531-1.066-3.896
				c0.632-1.108,15.488-27.139,18.425-31.297c1.895-2.664,4.656-11.582,5.953-16.572c0.396-1.522,1.959-2.44,3.483-2.049
				c1.528,0.398,2.444,1.964,2.048,3.484c-0.371,1.43-3.708,14.051-6.814,18.438c-2.227,3.147-12.83,21.544-18.126,30.825
				C205.199,310.576,204.234,311.096,203.239,311.096z"/>
		</g>
	</g>
</g>
</svg>
