<svg id="dont_hit" data-name="dont hit" xmlns="http://www.w3.org/2000/svg" viewBox="0 0 300 300"><defs><style>.cls-1,.cls-13,.cls-3,.cls-7{fill:#f1ba85;}.cls-1,.cls-10,.cls-11,.cls-12,.cls-13,.cls-14,.cls-2,.cls-3,.cls-4,.cls-7,.cls-9{stroke:#3c2415;stroke-miterlimit:10;}.cls-1{stroke-width:1.6px;}.cls-2{fill:#f15a29;}.cls-10,.cls-11,.cls-12,.cls-2,.cls-3,.cls-4,.cls-9{stroke-width:1.75px;}.cls-4{fill:#754c29;}.cls-5{fill:#81441e;}.cls-6{fill:#3c2415;}.cls-7{stroke-width:1.35px;}.cls-8{fill:#4b2718;}.cls-9{fill:#2bb673;}.cls-10{fill:#f7941e;}.cls-11{fill:#5a631e;}.cls-12{fill:#8b5e3c;}.cls-13{stroke-width:1.72px;}.cls-14{fill:#ed1c24;stroke-width:2.71px;}</style></defs><title>dont hit</title><path class="cls-1" d="M130.4,105.34s-3.15-9.18,4.89-8,7.46,6.8,4.86,9.63a36,36,0,0,1-5.94,5S129.83,109.83,130.4,105.34Z"/><path class="cls-2" d="M109.73,90.93s5-1.06,3.6,5.76-5.55,20.12,3.36,21.38,13.57-11.4,13.57-11.4l6.73,2.92s-5.35,22.94-24.27,18.48a16.94,16.94,0,0,1-12.62-13.92S102.67,92.18,109.73,90.93Z"/><path class="cls-3" d="M176.39,96.48s.91-.28.57-3.1,11.38,3.1,11.38,3.1l1.06,4.22-6.89,9.45S171.43,102.84,176.39,96.48Z"/><path class="cls-4" d="M192.16,236.91s-3.8,11.62,2.27,12.75,23.4,3.82,23.4-.91-7.65-7-12.78-10.6Z"/><path class="cls-5" d="M67.07,221l8.23,1.79s10.59,11.88,14.06,13.33,2.77,7.44-3.92,5.35S63.14,232,63.14,232s-4.38-3.81,3.93-11"/><path class="cls-6" d="M84.39,242.23c-7-2.35-21.1-9-21.7-9.28a1,1,0,0,1-.24-.16A5.14,5.14,0,0,1,60.94,229c0-2.73,1.84-5.71,5.45-8.83a1,1,0,0,1,.9-.23l8.23,1.79a1,1,0,0,1,.56.32c2.9,3.26,11,11.95,13.68,13.07a4.25,4.25,0,0,1,2.46,5.24c-.68,1.86-2.9,3.38-7.09,2.06l-.74-.23m-20.64-11.1c1.69.8,15.82,7.4,22,9.34,2.33.73,4.06.43,4.5-.79a2.13,2.13,0,0,0-1.3-2.6c-3.4-1.42-12.37-11.3-14.2-13.35l-7.39-1.59c-3.56,3.19-4.33,5.51-4.33,6.91a3.13,3.13,0,0,0,.72,2.08"/><path class="cls-5" d="M92.36,231.26l8.42.21s12.64,9.68,16.31,10.46,4.12,6.79-2.84,6-23.68-5.1-23.68-5.1-5-2.92,1.79-11.55"/><path class="cls-6" d="M113.36,248.85c-7.31-1-22.42-4.87-23-5a1.09,1.09,0,0,1-.27-.11,5.13,5.13,0,0,1-2.19-3.4c-.51-2.69.74-5.95,3.69-9.69a1,1,0,0,1,.85-.4l8.42.21a1,1,0,0,1,.61.21c3.46,2.65,13.07,9.67,15.88,10.27a4.23,4.23,0,0,1,3.4,4.68c-.31,1.95-2.21,3.86-6.57,3.36l-.77-.1m-22.36-7c1.82.46,16.93,4.29,23.37,5,2.42.28,4.07-.34,4.27-1.62a2.13,2.13,0,0,0-1.77-2.3c-3.6-.76-14.27-8.78-16.46-10.45l-7.55-.18c-2.9,3.81-3.21,6.23-3,7.6A3.23,3.23,0,0,0,91,241.84"/><path class="cls-7" d="M110,51.71s3.17,2,4,7.87c.7,4.54,3,5.22,4,5.3a.9.9,0,0,1,.65.22c.42.52,1.18,1.86-.7,3.06a1.81,1.81,0,0,0-.43,2.58s8,11-16.47,11.19c-1.16.36-.61,5.81-2.42,6.17-.14,0,0,.45,0,.57-.39.87-2,4-4.39-1,0-.09.54-4.23.54-4.23s.86-1.14-3.14-3.41C87,77.36,86,70.82,86,70.82l2.36-15,14-5.56Z"/><path class="cls-6" d="M97.06,91.21c-1.24.13-2.36-.91-3.42-3.17-.13-.26-.14-.3.47-4.67a.57.57,0,0,1,.07-.22c0-.15-.28-1-2.83-2.42-5-2.86-6.09-9.51-6.13-9.79a1,1,0,0,1,0-.24l2.37-15a.77.77,0,0,1,.47-.59l14-5.55a.75.75,0,0,1,.42,0L110.14,51a.81.81,0,0,1,.27.11c.14.1,3.47,2.32,4.4,8.4.62,4,2.55,4.59,3.35,4.66a1.57,1.57,0,0,1,1.19.5,2.78,2.78,0,0,1,.64,2.16,3,3,0,0,1-1.52,2,.89.89,0,0,0-.44.54,1.52,1.52,0,0,0,.22,1c.09.11,2.34,3.28.9,6.5-1.69,3.79-7.66,5.77-17.72,5.88a10,10,0,0,0-.41,1.94c-.24,1.56-.51,3.3-1.53,4a.88.88,0,0,1-.08.37c-.34.78-1.09,2.1-2.35,2.23m-2-3.65c.79,1.62,1.46,2.17,1.8,2.13s.72-.51,1-1.17c-.15-.93.45-1.13.64-1.17.49-.09.78-2,.92-2.95.25-1.62.45-2.9,1.42-3.2a.78.78,0,0,1,.22,0c9.39-.07,15.2-1.82,16.61-5,1.08-2.41-.73-5-.75-5a3,3,0,0,1-.47-2.14,2.38,2.38,0,0,1,1.11-1.53,1.78,1.78,0,0,0,.85-1,1.26,1.26,0,0,0-.27-.87l-.18,0c-1.17-.09-4-.86-4.74-6-.73-4.76-3.09-6.85-3.62-7.27L102.46,51,89,56.36,86.75,70.82c.16.83,1.3,6.28,5.36,8.58,2.17,1.24,3.34,2.36,3.56,3.42a1.45,1.45,0,0,1-.07.89c-.21,1.59-.44,3.32-.5,3.85"/><path class="cls-8" d="M96.91,66.44s-3.36-3.87-4.41.88,2.57,4.38,2.57,4.38.06,10-5.07,9.25S70.83,71.28,81.12,56.7s27.46-9.07,27.46-9.07,5.91.23,7.33.08c1.18-.13-3,6.5-7.93,4.91-1.8,1.6-6.78,2.4-6.78,2.4s1.84,8.1-4.29,11.42"/><path class="cls-6" d="M90.94,81.73a4.12,4.12,0,0,1-1,0c-3.54-.5-9.72-4.16-12.13-9.74-1.45-3.35-2.15-8.79,2.74-15.71A23.84,23.84,0,0,1,98,46a29.1,29.1,0,0,1,10.75.87c1.71.07,6,.19,7.12.08a.92.92,0,0,1,1,.84c.14,1.38-3,5.42-6.71,5.81h0a5.91,5.91,0,0,1-2-.14c-1.63,1.18-4.65,1.89-6.07,2.17.31,2.22.66,8.52-4.8,11.48a.76.76,0,0,1-.94-.17c-.38-.42-1.36-1.28-2-1.22s-.93,1.14-1.07,1.77c-.3,1.36-.21,2.37.27,2.91a2,2,0,0,0,1.48.54.77.77,0,0,1,.58.19.76.76,0,0,1,.26.56c0,.39,0,9.53-4.9,10m7.18-34.21a22.09,22.09,0,0,0-16.37,9.62c-3.6,5.09-4.46,9.88-2.59,14.22A16.3,16.3,0,0,0,90.1,80.19a2.62,2.62,0,0,0,.68,0c2.66-.28,3.41-5.19,3.51-7.79a3.18,3.18,0,0,1-1.9-1c-.84-.94-1-2.37-.64-4.27s1.22-2.83,2.41-3A4.07,4.07,0,0,1,97,65.48c5-3.17,3.43-10.22,3.41-10.29a.8.8,0,0,1,.12-.6.78.78,0,0,1,.51-.33c1.32-.21,5.06-1,6.39-2.21a.79.79,0,0,1,.75-.16,4.31,4.31,0,0,0,1.78.19h0c2.39-.25,4.37-2.39,5.07-3.56-2.14,0-6.31-.11-6.52-.12a.79.79,0,0,1-.2,0,28,28,0,0,0-10.23-.84"/><path class="cls-9" d="M77.34,132.16s.62,21.42,3.92,32.31c3.59,11.85-10,49-15.88,56.91l14.26,6.16s21.23-30.69,22.75-50.39,1.36-33.1,1.36-33.1S81.13,127.72,77.34,132.16Z"/><path class="cls-3" d="M92.52,86a5.94,5.94,0,0,0,.58-4.24l11,.13.92,5.81S94.6,93.35,94.54,92.88,92.52,86,92.52,86Z"/><path class="cls-9" d="M78,142.84s2.43,18.46,12.48,30c8.11,9.36,3.56,49.91,0,59.09l15.39,2.09s12.18-35.27,8.34-54.65-7.61-32.25-7.61-32.25S80.47,137.54,78,142.84Z"/><path class="cls-2" d="M91.63,85.9s9.74,3.6,13.83,1.88c0,0,12.4,1.57,9.31,19.33s-7.37,40-7.37,40S83.62,149,75.62,141C75.62,141,81.72,86.94,91.63,85.9Z"/><path class="cls-10" d="M152.08,152.83a104.67,104.67,0,0,0,9.21,34.27c8.36,18.19-9.21,52.51-9.21,52.51L165,240.85s14.13-25.65,13-49.29.06-22.29.06-22.29,14.13,32.42,14.8,45.48a106.47,106.47,0,0,1-1.35,23.42l12.83-.9s11.94-55.17-17.79-82.64Z"/><path class="cls-11" d="M176.68,96s-16.63-5.18-21.6,29-2.26,27.7-2.26,27.7l34.45,1.8s17.46-51.58,1.35-55.12c0,0-1.46,6.48-8.5,3.78S176.68,96,176.68,96Z"/><path class="cls-3" d="M159.13,112.41s-4.91,23.32,7.76,27.59S191,123.55,191,123.55s6.53-8.55-1.13-11.14-6.53,6-4.28,7.54-13.51,12.39-13.51,12.39-7.2-.45.23-17.57C171.45,105.09,159.13,112.41,159.13,112.41Z"/><path class="cls-11" d="M169.87,97.88S158,97.76,158,112.07c3.75,1.35,15.68,2.7,15.68,2.7S180.28,96.09,169.87,97.88Z"/><path class="cls-3" d="M195.09,111.62s-5.59-9.92.36-10.81,8.87,4,6.85,9.34,4.06,31-8.67,30.43c-8.22-.14-1.92-12.07-1.92-12.07S196.29,118.23,195.09,111.62Z"/><path class="cls-4" d="M152.08,239.61s-3.8,11.62,2.27,12.75,23.4,3.82,23.4-.9-7.65-7-12.78-10.61Z"/><path class="cls-3" d="M173.77,79.32s-4.57-3.82-6-.58,1.42,6,3,6-2.56,10,11.51,11.94S201,91.08,200.72,85.87s2.22-13.43,2.22-13.43,1.27-7.64-14.27-6.4-13.55-2.19-13.55-2.19Z"/><path class="cls-12" d="M176.29,57.59s-11,.24-10.36,7.5a39.6,39.6,0,0,0,3.19,12.42s4.26.38,4.65,2.38,1.35,1.62,1.35,1.62l.8-4.39s-.19-9.55,2.28-9.36,14.58,2.85,17.25.9,5.2,2.85,6.06,4.35,5.63-1.81,5.18-5S204.66,53.33,176.29,57.59Z"/><path class="cls-13" d="M152.9,108.11s9.56,4.16,9-4.56-6.64-8.57-9.9-6a39.13,39.13,0,0,0-5.89,5.93S148,108.34,152.9,108.11Z"/><path class="cls-2" d="M96.11,107.9s-6.84-4.64-1.63-11.52,9.37-2.85,9.37-2.85,14.52,14.46,27.57,11.8S148,99.79,148,99.79l2.84,9.27s-10.92,8.44-25.57,7.79S96.11,107.9,96.11,107.9Z"/><path class="cls-14" d="M224,51.8,241.73,34a7.21,7.21,0,0,0-10.19-10.2L213.76,41.61,196,23.83A7.21,7.21,0,1,0,185.79,34L203.57,51.8,185.79,69.57A7.21,7.21,0,0,0,196,79.77L213.76,62l17.77,17.78a7.21,7.21,0,0,0,10.2-10.2Z"/></svg>