<?xml version="1.0" encoding="utf-8"?>
<!-- Generator: Adobe Illustrator 16.0.0, SVG Export Plug-In . SVG Version: 6.00 Build 0)  -->
<!DOCTYPE svg PUBLIC "-//W3C//DTD SVG 1.1//EN" "http://www.w3.org/Graphics/SVG/1.1/DTD/svg11.dtd">
<svg version="1.1" id="Layer_1" xmlns="http://www.w3.org/2000/svg" xmlns:xlink="http://www.w3.org/1999/xlink" x="0px" y="0px"
	 width="500px" height="500px" viewBox="0 0 500 500" enable-background="new 0 0 500 500" xml:space="preserve">
<g id="Layer_1_copy_103">
	<g>
		<g>
			<path fill="#F4BE78" d="M302.572,66.87"/>
		</g>
		<g>
			
				<path fill="none" stroke="#27140E" stroke-width="12.2104" stroke-linecap="round" stroke-linejoin="round" stroke-miterlimit="10" d="
				M302.572,66.87"/>
		</g>
	</g>
	<g>
		
			<path fill="#F4BE78" stroke="#27140E" stroke-width="12.2104" stroke-linecap="round" stroke-linejoin="round" stroke-miterlimit="10" d="
			M334.779,438.316"/>
	</g>
	<g>
		<g>
			<g>
				<path fill="#F4BE78" d="M341.081,275.58L309.145,95.598c0,0-2.988-11.451-5.684-15.5c-13.434-20.195-58.29-74.312-113.514,1.806
					c-1.15,1.586-4.247,8.296-4.647,10.04c-15,65.341-39.179,188.344-39.179,188.344s-101.857,43.646-44.537,120.504
					c0,0,29.542,47.954,89.238,10.862c0,0,53.005,64.015,116.76,2.203l2.836-2.203c59.686,37.092,89.236-10.862,89.236-10.862
					c57.32-76.858-55.349-119.55-55.349-119.55s-22.398-127.759-37.398-193.1"/>
			</g>
			<g>
				<path fill="#27140E" d="M250.228,446.879c-1.297,0-2.585-0.038-3.881-0.11c-28.055-1.529-48.678-19.29-56.646-27.341
					c-19.739,11.243-38.471,14.889-55.762,10.801c-23.498-5.53-35.775-23.478-37.386-25.978
					C79.988,381.966,74.461,360,80.116,338.948c9.703-36.099,49.274-57.443,60.618-62.897
					c3.844-19.449,25.078-126.515,38.611-185.469c0.59-2.566,4.025-10.012,5.659-12.26c20.485-28.245,41.991-42.305,64.097-41.886
					c28.805,0.589,49.608,25.493,59.439,40.285c3.107,4.661,5.968,15.262,6.509,17.343c0.038,0.152,0.072,0.313,0.105,0.471
					l2.414,13.604c12.99,60.998,28.933,150.436,32.164,168.724c12.862,5.466,58.932,27.389,69.931,65.089
					c5.859,20.077,0.823,41.041-14.976,62.301c-1.617,2.5-13.9,20.446-37.389,25.978c-17.458,4.12-36.402,0.366-56.352-11.142
					C291.602,437.542,271.191,446.879,250.228,446.879z M190.816,405.548c1.769,0,3.508,0.771,4.709,2.209
					c0.2,0.248,21.368,25.229,51.59,26.824c19.083,1.002,37.994-7.432,56.218-25.104c0.156-0.156,0.323-0.299,0.499-0.437
					l2.837-2.205c2.015-1.567,4.804-1.711,6.971-0.364c53.558,33.28,79.743-7.162,80.826-8.9c0.091-0.143,0.19-0.301,0.295-0.43
					c13.485-18.084,17.918-35.49,13.188-51.74c-10.815-37.153-65.256-58.237-65.804-58.445c-2.015-0.77-3.478-2.534-3.848-4.656
					c-0.016-0.072-0.101-0.561-0.248-1.422c-1.515-0.869-2.646-2.376-2.975-4.229l-29.499-166.183
					c-1.567-7.366-3.093-14.294-4.542-20.632c-0.921-2.732-1.905-5.228-2.656-6.348c-6.855-10.316-25.408-34.351-49.522-34.845
					c-17.843-0.352-35.965,12.031-53.97,36.845c-0.756,1.131-3.275,6.543-3.659,7.907c-14.782,64.415-38.874,186.843-39.111,188.069
					c-0.39,1.981-1.734,3.64-3.583,4.438c-0.471,0.203-47.089,20.627-56.631,56.255c-4.639,17.307,0.271,35.8,14.578,54.985
					c0.109,0.144,0.208,0.291,0.305,0.447c1.073,1.717,27.261,42.157,80.812,8.883C188.597,405.848,189.71,405.548,190.816,405.548z
					"/>
			</g>
		</g>
	</g>
	<g>
		<line fill="none" x1="213.212" y1="103.239" x2="177.982" y2="271.203"/>
		<path fill="#27140E" d="M177.987,275.784c-0.309,0-0.622-0.033-0.945-0.095c-2.472-0.522-4.058-2.946-3.541-5.422l35.229-167.965
			c0.519-2.475,2.947-4.053,5.423-3.544c2.475,0.522,4.057,2.946,3.54,5.421l-35.226,167.964
			C182.013,274.301,180.111,275.784,177.987,275.784z"/>
	</g>
</g>
</svg>
