<svg id="nurse" xmlns="http://www.w3.org/2000/svg" viewBox="0 0 300 300"><defs><style>.cls-1{fill:#2c1c11;}.cls-2{fill:#281810;}.cls-3{fill:#fbc293;}.cls-4{fill:#130f0d;}.cls-5{fill:#fffff9;}.cls-6{fill:#834b1f;}.cls-7{opacity:0.7;}.cls-8{fill:#f8a780;}.cls-9{fill:#fff;}.cls-10{fill:#301d11;}.cls-11,.cls-12{fill:#f5f9f1;}.cls-12{fill-rule:evenodd;}.cls-13{fill:#ea2227;}.cls-14{fill:#9cc496;}</style></defs><title>nurse</title><path class="cls-1" d="M153,50.7S105.12,43.62,98.53,89s4.39,93.28,4.39,93.28-2.44,4.63,16.36,1.95,80.08.84,80.08.84,9.77-64.81-3.66-110.47C189.36,54.12,153,50.7,153,50.7Z"/><path class="cls-2" d="M200.65,186.68l-1.37-.08c-.32,0-32.37-1.85-56.9-1.85-10.57,0-18.27.34-22.89,1a73.77,73.77,0,0,1-9.93.85c-4.37,0-6.86-.76-7.84-2.38a2.69,2.69,0,0,1-.35-2c-1-4.72-10.57-50.44-4.33-93.43,5.24-36.12,36-40,49-40a52.55,52.55,0,0,1,7.14.42c1.44.13,37.37,3.74,43.94,25,13.37,45.47,3.81,110.48,3.71,111.13Zm-96.26-3.93c.31.23,1.49.84,5.17.84a69.29,69.29,0,0,0,9.51-.82c4.76-.68,12.6-1,23.31-1,21.71,0,49.25,1.42,55.69,1.77,1.28-9.54,8.31-67.27-3.81-108.46-6-19.29-41.07-22.83-41.43-22.86a52.79,52.79,0,0,0-6.77-.39c-35.33,0-44,23.46-46,37.44-6.47,44.62,4.27,92.25,4.38,92.72l.12.55Z"/><path class="cls-3" d="M132.85,164.33s.76,9.62-4.44,12.67-8.27,40.39-8.27,40.39l62.63,11.35-6.83-41-7.51-12.57s-2.48-4-1.08-10.87S132.8,158.84,132.85,164.33Z"/><path class="cls-2" d="M183.23,229.21,119.74,217.7l0-.34c.12-1.53,3.14-37.57,8.45-40.68,4.94-2.9,4.26-12.22,4.26-12.32a2,2,0,0,1,.64-1.43c2.35-2.37,11.29-3.61,18.91-3.61,2.95,0,12.77.23,15.19,3.2a2.16,2.16,0,0,1,.49,1.89c-1.34,6.61,1,10.56,1,10.6l7.56,12.7Zm-62.68-12.13,61.76,11.2-6.73-40.37-7.47-12.51c-.1-.17-2.54-4.25-1.13-11.14a1.45,1.45,0,0,0-.34-1.26c-1.47-1.81-7.07-2.93-14.61-2.93-8.56,0-16.46,1.46-18.37,3.39a1.26,1.26,0,0,0-.43.87c0,.38.72,9.86-4.63,13C124.52,179.72,121.43,206.5,120.55,217.08Z"/><path class="cls-3" d="M196.2,115.32a4.85,4.85,0,0,0-1.51.27c-4.14-20.24-22.41-35.49-44.35-35.49-22.51,0-41.12,16.07-44.6,37.11a5,5,0,0,0-2.73-.85c-3.53,0-6.39,3.85-6.39,8.6s2.86,8.61,6.39,8.61a5.11,5.11,0,0,0,2.92-1c4,20.44,22.33,35.91,44.41,35.91s40.59-15.61,44.46-36.18a4.72,4.72,0,0,0,1.4.23c3.53,0,6.39-3.86,6.39-8.61S199.73,115.32,196.2,115.32Z"/><path class="cls-2" d="M150.34,170c-21.73,0-40.55-14.69-45.47-35.21a6.23,6.23,0,0,1-1.86.29c-4.35,0-7.89-4.53-7.89-10.11s3.54-10.11,7.89-10.11a6.16,6.16,0,0,1,1.6.21c4.44-21.24,23.36-36.47,45.73-36.47,21.69,0,40.59,14.73,45.5,35.24h.36c4.36,0,7.9,4.53,7.9,10.11S200.41,134.21,196,134C191.34,155,172.38,170,150.34,170ZM107,130l.44,2.27c3.91,20.1,22,34.69,42.94,34.69s39.17-14.7,43-34.94l.31-1.65,1.6.48a3.27,3.27,0,0,0,1,.16c2.65,0,4.89-3.25,4.89-7.1s-2.24-7.1-4.89-7.1a3.34,3.34,0,0,0-1,.19l-1.6.52-.34-1.65C189.15,96,171.12,81.6,150.34,81.6c-21.55,0-39.68,15.08-43.11,35.85l-.38,2.25-1.92-1.22c-3.3-2.12-6.81,1.71-6.81,6.48s3.61,8.72,6.94,6.39Z"/><path class="cls-4" d="M134.06,123.92c0,3.45-2.23,6.23-5,6.23s-5-2.78-5-6.23,2.23-6.22,5-6.22S134.06,120.49,134.06,123.92Z"/><path class="cls-5" d="M130.11,123.93a2,2,0,1,1-2-2.17A2.09,2.09,0,0,1,130.11,123.93Z"/><path class="cls-4" d="M174.62,123.92c0,3.45-2.23,6.23-5,6.23s-5-2.78-5-6.23,2.23-6.22,5-6.22S174.62,120.49,174.62,123.92Z"/><path class="cls-5" d="M170.67,123.93a2,2,0,1,1-2-2.17A2.09,2.09,0,0,1,170.67,123.93Z"/><path class="cls-6" d="M145.59,135.28s6.56,1,7.47-2.69,0-10.83,0-10.83,4.07,5.46,2,12S142.46,135.22,145.59,135.28Z"/><g class="cls-7"><path class="cls-8" d="M130.11,137.6c0,2.22-2.81,4-6.28,4s-6.28-1.81-6.28-4,2.81-4,6.28-4S130.11,135.37,130.11,137.6Z"/></g><g class="cls-7"><path class="cls-8" d="M184.45,137.16c0,2.23-2.82,4-6.29,4s-6.28-1.8-6.28-4,2.81-4,6.28-4S184.45,134.94,184.45,137.16Z"/></g><path class="cls-9" d="M137,143.33s2.94,11.48,13.34,11,14.32-11,14.32-11-4.59,5.51-14.32,5.51C140.35,148.84,137,143.33,137,143.33Z"/><path class="cls-10" d="M121.94,116.78A7.58,7.58,0,0,1,128.5,114c4.3.37,4.75,1.23,5-1.09s-1.81-2.81-5-2.44S119.23,117.52,121.94,116.78Z"/><path class="cls-10" d="M177.32,116.78a7.58,7.58,0,0,0-6.56-2.81c-4.3.37-4.75,1.23-5-1.09s1.81-2.81,5-2.44S180,117.52,177.32,116.78Z"/><path class="cls-11" d="M127.38,179.05s-5.58,24.13,19.81,23.32c28.62-.91,21.72-15.25,22.45-25.14,0,0-2.62-.5,21.19,5S222.32,194.32,226,240.1c1.83,13.18-18,9.88-18,9.88l-118.66.79s-16.85,4-13.19-14.7S77.56,179.51,127.38,179.05Z"/><path class="cls-2" d="M85.87,252.63c-4,0-7.25-1.29-9.26-3.74-2.39-2.9-3-7.32-1.89-13.11.47-2.39.84-5.15,1.24-8.07,2.7-19.81,6.78-49.75,51.41-50.16a1.41,1.41,0,0,1,1.18.56,1.48,1.48,0,0,1,.29,1.28c0,.09-2.16,9.77,2.83,16,2.9,3.63,7.7,5.47,14.28,5.47l1.19,0c9.44-.3,15.51-2.07,18.57-5.41s2.78-8.06,2.52-12.64a48.29,48.29,0,0,1-.12-5.23,1.46,1.46,0,0,1,0-.59,1.51,1.51,0,0,1,1.49-1.29,2.2,2.2,0,0,1,.36,0,1.42,1.42,0,0,1,.35.11c.92.25,4.85,1.2,20.9,4.9,25.32,5.85,32.69,13.88,36.31,59.22a9.38,9.38,0,0,1-2,7.77c-3,3.39-8.38,4.11-12.41,4.11a36.35,36.35,0,0,1-5.17-.37l-118.39.79A19.08,19.08,0,0,1,85.87,252.63Zm39.72-72c-40.33,1.14-44,27.91-46.65,47.52-.4,3-.79,5.77-1.27,8.25-1,4.87-.53,8.44,1.27,10.62s4.76,2.64,6.93,2.64a15.42,15.42,0,0,0,3.17-.31,1.75,1.75,0,0,1,.33,0L208,248.48l.26,0a31.58,31.58,0,0,0,4.81.35c3.41,0,7.93-.53,10.14-3.08a6.54,6.54,0,0,0,1.26-5.47c-3.67-45.83-11.32-51.37-34-56.6-9.75-2.25-16.33-3.79-19.4-4.53,0,1.1.07,2.27.14,3.48.28,5,.6,10.58-3.3,14.84-3.64,4-10.4,6.06-20.69,6.39l-1.29,0c-7.55,0-13.15-2.23-16.64-6.63C124.82,191.63,125.14,184.06,125.59,180.59Z"/><path class="cls-1" d="M105,118.58s24.69-22.71,26.86-34.92c0,0,28.65,27.07,62.77,27.33,0,0-3.61-42.22-42.14-38.56S101.72,91,105,118.58Z"/><path class="cls-12" d="M121.71,81.5s24.55-11.07,57.12,1l4.51-20.26s-32.83-23.52-70.13,0Z"/><path class="cls-2" d="M178.83,84a1.58,1.58,0,0,1-.52-.09,86.86,86.86,0,0,0-30.17-5.52c-15.57,0-25.71,4.47-25.81,4.52a1.46,1.46,0,0,1-1.16,0,1.5,1.5,0,0,1-.84-.8l-8.49-19.3a1.5,1.5,0,0,1,.57-1.88A66,66,0,0,1,148,50.24,66.85,66.85,0,0,1,184.21,61a1.49,1.49,0,0,1,.6,1.55L180.3,82.78a1.53,1.53,0,0,1-.75,1A1.51,1.51,0,0,1,178.83,84Zm-30.69-8.61a89.69,89.69,0,0,1,29.59,5.11l3.92-17.58A65.62,65.62,0,0,0,148,53.25a62.65,62.65,0,0,0-32.85,9.54l7.38,16.77A74.78,74.78,0,0,1,148.14,75.35Z"/><polygon class="cls-13" points="155.93 61.73 150.54 61.73 150.54 56.34 146.01 56.34 146.01 61.73 140.62 61.73 140.62 66.26 146.01 66.26 146.01 71.65 150.54 71.65 150.54 66.26 155.93 66.26 155.93 61.73"/><path class="cls-14" d="M153.9,218a3.53,3.53,0,0,1-3.54,3.53h0a3.53,3.53,0,0,1-3.53-3.53h0a3.54,3.54,0,0,1,3.53-3.53h0A3.53,3.53,0,0,1,153.9,218Z"/><path class="cls-2" d="M150.36,222.76a4.79,4.79,0,1,1,4.79-4.79A4.79,4.79,0,0,1,150.36,222.76Zm0-7.07a2.28,2.28,0,1,0,2.29,2.28A2.28,2.28,0,0,0,150.36,215.69Z"/><path class="cls-14" d="M153.9,247a3.53,3.53,0,0,1-3.54,3.54h0a3.54,3.54,0,0,1-3.53-3.54h0a3.54,3.54,0,0,1,3.53-3.53h0A3.53,3.53,0,0,1,153.9,247Z"/><path class="cls-2" d="M150.36,251.82a4.79,4.79,0,1,1,4.79-4.79A4.79,4.79,0,0,1,150.36,251.82Zm0-7.07a2.28,2.28,0,1,0,2.29,2.28A2.28,2.28,0,0,0,150.36,244.75Z"/><rect class="cls-14" x="178.16" y="226.32" width="20.19" height="4.85"/><path class="cls-2" d="M198.35,232.42H178.16a1.25,1.25,0,0,1-1.25-1.25v-4.85a1.25,1.25,0,0,1,1.25-1.25h20.19a1.25,1.25,0,0,1,1.25,1.25v4.85A1.25,1.25,0,0,1,198.35,232.42Zm-18.94-2.51H197.1v-2.34H179.41Z"/></svg>