<?xml version="1.0" encoding="utf-8"?>
<!-- Generator: Adobe Illustrator 16.0.0, SVG Export Plug-In . SVG Version: 6.00 Build 0)  -->
<!DOCTYPE svg PUBLIC "-//W3C//DTD SVG 1.1//EN" "http://www.w3.org/Graphics/SVG/1.1/DTD/svg11.dtd">
<svg version="1.1" id="Layer_1" xmlns="http://www.w3.org/2000/svg" xmlns:xlink="http://www.w3.org/1999/xlink" x="0px" y="0px"
	 width="500px" height="500px" viewBox="0 0 500 500" enable-background="new 0 0 500 500" xml:space="preserve">
<g id="Layer_1_copy_35">
	<g>
		<path fill="#DDD4CB" d="M30.804,213.828c0,0-0.714,138.367,124.35,189.604c103.735,38.729,188.292-4.382,188.292-4.382
			S447.19,362.197,462.11,216.635L257.47,191.653L30.804,213.828z"/>
		<path fill="#2C2010" d="M244.147,422.564c-0.003,0-0.003,0-0.003,0c-30.715,0-61.011-5.494-90.034-16.334
			C28.542,354.789,27.808,215.216,27.816,213.812c0.009-1.532,1.172-2.812,2.699-2.958L257.18,188.68
			c0.217-0.025,0.438-0.025,0.654,0.003l204.636,24.991c1.618,0.196,2.778,1.648,2.61,3.27
			c-7.796,76.072-40.086,122.264-65.802,147.613c-27.033,26.655-52.054,36.293-54.646,37.243
			C341.323,403.455,301.896,422.564,244.147,422.564z M33.865,216.531c0.792,19.4,10.273,138.186,122.418,184.133
			c28.273,10.553,57.86,15.928,87.855,15.928c57.568,0,97.556-19.998,97.951-20.201c0.112-0.059,0.234-0.108,0.352-0.156
			c1.018-0.356,100.77-37.545,116.384-176.986l-201.387-24.59L33.865,216.531z"/>
	</g>
	<g>
		<path fill="#CEC4BC" d="M462.11,213.828c0,30.533-96.55,55.287-215.656,55.287c-119.098,0-215.65-24.753-215.65-55.287
			c0-30.538,96.553-55.289,215.65-55.289C365.562,158.54,462.11,183.29,462.11,213.828z"/>
		<path fill="#2C2010" d="M246.454,272.1c-107.473,0-218.638-21.798-218.638-58.271c0-36.478,111.165-58.275,218.638-58.275
			c107.474,0,218.644,21.797,218.644,58.275C465.098,250.302,353.928,272.1,246.454,272.1z M246.454,161.528
			c-127.207,0-212.66,27.042-212.66,52.3c0,25.253,85.453,52.296,212.66,52.296c127.212,0,212.666-27.043,212.666-52.296
			C459.12,188.571,373.666,161.528,246.454,161.528z"/>
	</g>
	<g>
		<path fill="#D6B564" d="M44.981,230.221c0,0-24.657-20.706,5.989-24.426c26.955-20.515,52.062-14.141,52.062-14.141
			s32.174-13.265,37.393-2.048c5.218,11.216,24.344-14.116,32.165-4.509c7.824,9.61,13.043,2.732,21.74,6.557
			c8.693,3.821,22.608-16.823,37.393-6.849c31.3-3.095,27.821,1.497,37.382,6.849c9.568,5.343,25.215-16.143,33.911,0
			c8.694,16.135,17.987-18.174,26.084,0c11.305-13.001,33.908-14.524,34.78,0c0.872,14.521,35.539-4.805,39.999,7.638
			c4.459,12.447,9.01-6.35,12.33,9.823c22.449-13.64,44.979-12.952,41.5,8.462c-14.671,27.515-75.551,36.336-75.551,36.336
			s-46.224,14.588-157.396,11.821C73.797,261.982,44.981,230.221,44.981,230.221z"/>
	</g>
	<g>
		<path fill="#CB4B58" d="M238.462,198.423c0,0-7.558,23.792,7.446,16.969c15-6.828,28.02-13.102,26.5-18.821
			c-1.516-5.719-6.729-15.88-17.957-14.804C243.222,182.844,242.183,179.189,238.462,198.423z"/>
	</g>
	<g opacity="0.98">
		<path fill="#E2BF60" d="M166.782,239.478c0,0-30.979-14.846-15.649-31.373c15.325-16.531,1.301-26.851,15.649-17.678
			c14.345,9.173,5.541-26.25,16.627-13.694c11.088,12.551,26.084-0.638,31.306,3.663c5.215,4.3,23.794-21.589,33.575,0.1
			c9.786,21.687,21.521,25.987,18.588,34.013c-2.93,8.029,11.091,3.834-9.452,10.949c6.522,3.959,11.43,7.976-13.37,11.872
			C213.743,238.117,166.782,239.478,166.782,239.478z"/>
	</g>
	<g>
		<path fill="#461044" d="M163.825,211.146c-3.399,6.832-11.17,9.876-17.356,6.802c-6.19-3.074-8.451-11.112-5.052-17.944
			c3.4-6.833,11.167-9.882,17.353-6.804C164.96,196.275,167.222,204.309,163.825,211.146z"/>
	</g>
	<g opacity="0.98">
		<path fill="#E2BF60" d="M319.54,247.707c0,0-30.978-14.851-15.646-31.38c15.325-16.527,1.302-26.847,15.646-17.673
			c14.35,9.172,5.544-26.25,16.631-13.699c11.088,12.552,26.083-0.634,31.306,3.667c5.216,4.301,23.788-21.589,33.575,0.1
			c9.785,21.687,21.52,25.987,18.587,34.014c-2.929,8.029,11.093,3.833-9.451,10.949c6.522,3.963,11.43,7.976-13.37,11.876
			C366.505,246.348,319.54,247.707,319.54,247.707z"/>
	</g>
	<g opacity="0.46">
		<path fill="#F7E8BA" d="M69.404,244.457c0,0-22.116-23.901-2.224-29.928c7.5-9.177,10.757-20.648,19.238-12.335
			c12.713-7.45,25.178-11.062,31.952-1.147c6.778,9.915,9.789-8.526,15.651,4.876c5.863,13.402,30.649-10.878,28.367,8.606
			c-2.28,19.488,5.219,29.52-12.389,32.103C132.396,249.214,100.726,259.391,69.404,244.457z"/>
	</g>
	<g>
		<path fill="#BE202E" d="M138.835,218.158c0,0-23.843,10.492-11.229,15.751c12.614,5.263,23.865,9.602,28.094,4.934
			c4.23-4.668,10.612-14.586,4.635-21.128C154.36,211.18,157.03,208.146,138.835,218.158z"/>
	</g>
	<g>
		<path fill="#6C3E6A" d="M333.271,189.592c8.543,2.445,13.777,10.337,11.695,17.633c-2.081,7.3-10.699,11.238-19.242,8.797
			c-8.547-2.436-13.78-10.332-11.695-17.627C316.111,191.095,324.726,187.157,333.271,189.592z"/>
	</g>
	<g opacity="0.76">
		<g>
			<path fill="#F7E8BA" d="M82.928,243.92c1.301,7.533,47.23,21.246,183.265,21.816c129.99-2.324,166.168-22.675,156.041-39.302
				c0,0-4.367-33.195-27.694-1.139c-10.798-11.475-38.592-9.16-42.062,0c0.389-20.652-23.538-28.123-28.17-17.506
				c-4.629,10.616-23.921,9.088-23.921,12.146s-3.863,2.311-4.631,5.36c-0.775,3.049-0.008-23.693-15.438-11.466
				c-15.438,12.222-32.419,1.543-33.191,11.466c-0.771,9.928-16.205-9.923-16.977,0c-0.775,9.928-16.21-16.064-26.242-6.891
				c-10.036,9.176-16.21-12.998-23.926,1.531c-7.721,14.524-7.059,15.709-18.524,1.526c-6.175-7.632-12.353,8.185-19.297-0.762
				c-6.95-8.943-7.718-16.818-10.804-10.703c-3.092,6.114-19.297-13.745-23.155,3.833C104.339,231.397,78.644,219.122,82.928,243.92
				z"/>
		</g>
	</g>
	<g opacity="0.46">
		<path fill="#F7E8BA" d="M243.348,265.736c0,0-30.977-14.851-15.647-31.376c15.326-16.526,1.302-26.847,15.647-17.678
			c14.349,9.176,5.543-26.246,16.63-13.694c11.082,12.552,26.084-0.638,31.301,3.663c5.216,4.305,23.794-21.587,33.58,0.1
			c9.785,21.687,21.52,25.987,18.587,34.017c-2.929,8.026,11.091,3.834-9.456,10.947c6.527,3.961,11.434,7.975-13.365,11.875
			C290.312,264.375,243.348,265.736,243.348,265.736z"/>
	</g>
	<g>
		<path fill="#331232" d="M214.61,205.961c1.698,7.442-2.389,14.725-9.121,16.26c-6.737,1.544-13.574-3.245-15.272-10.687
			c-1.702-7.438,2.382-14.72,9.119-16.255C206.072,193.735,212.908,198.523,214.61,205.961z"/>
	</g>
	<g>
		<path fill="#461044" d="M105.173,220.919c1.702,7.437-2.387,14.72-9.118,16.256c-6.737,1.538-13.578-3.247-15.276-10.688
			c-1.702-7.437,2.387-14.72,9.123-16.256C96.639,208.693,103.476,213.478,105.173,220.919z"/>
	</g>
	<g>
		<path fill="#461044" d="M289.902,227.718c1.697,7.442-2.385,14.721-9.117,16.26c-6.741,1.54-13.578-3.245-15.276-10.687
			c-1.7-7.44,2.386-14.72,9.118-16.26C281.364,215.492,288.201,220.278,289.902,227.718z"/>
	</g>
	<g>
		<path fill="#BE202E" d="M385.246,211c0,0-25.09-7.855-18.646,5.781c6.448,13.641,12.423,25.488,18.646,24.419
			c6.228-1.068,17.433-5.205,16.936-15.212C401.681,215.977,405.665,215.229,385.246,211z"/>
	</g>
	<g>
		<path fill="#A8AAAD" d="M417.278,92.293c5.464-7.137,11.36-16.921,26.262-10.72c1.943,0.809,10.829,6.064,12.343,7.51
			c10.57,10.132-0.843,19.479-6.318,27.719c-5.265,6.363-81.304,107.534-81.304,107.534s-23.239,2.891-27.567-3.303
			C341.26,219.159,411.809,99.435,417.278,92.293z"/>
		<path fill="#3C2517" d="M356.753,227.997c-9.981,0-16.04-1.718-18.509-5.255c-0.525-0.755-0.677-1.697-0.408-2.577
			c1.084-3.588,72.393-123.579,77.067-129.688l1.127-1.485c4.138-5.515,9.289-12.376,18.792-12.376c3.04,0,6.36,0.738,9.863,2.199
			c2.024,0.842,11.318,6.252,13.262,8.109c10.582,10.142,2.971,19.928-2.586,27.072c-1.22,1.566-2.369,3.042-3.312,4.461
			c-0.059,0.087-0.117,0.171-0.185,0.252c-5.159,6.234-80.455,106.407-81.214,107.42c-0.488,0.647-1.22,1.072-2.023,1.169
			C368.398,227.326,362.958,227.997,356.753,227.997z M344.48,220.293c1.938,0.926,5.844,1.728,12.271,1.728
			c4.146,0,7.996-0.327,9.898-0.519c8.434-11.219,74.757-99.435,80.505-106.482c1.051-1.562,2.29-3.154,3.486-4.695
			c6.116-7.859,9.535-12.985,3.172-19.084c-1.159-1.097-9.687-6.188-11.427-6.912c-2.773-1.155-5.317-1.739-7.565-1.739
			c-6.517,0-10.329,5.077-14.013,9.99l-1.158,1.529C414.983,100.206,353.448,204.351,344.48,220.293z"/>
	</g>
</g>
</svg>
