<?xml version="1.0" encoding="utf-8"?>
<!-- Generator: Adobe Illustrator 16.0.0, SVG Export Plug-In . SVG Version: 6.00 Build 0)  -->
<!DOCTYPE svg PUBLIC "-//W3C//DTD SVG 1.1//EN" "http://www.w3.org/Graphics/SVG/1.1/DTD/svg11.dtd">
<svg version="1.1" id="Layer_1" xmlns="http://www.w3.org/2000/svg" xmlns:xlink="http://www.w3.org/1999/xlink" x="0px" y="0px"
	 width="500px" height="500px" viewBox="0 0 500 500" enable-background="new 0 0 500 500" xml:space="preserve">
<g id="Layer_1_copy_61">
	<g>
		<g>
			<path fill="#FFFFFF" d="M415.651,431.188c0,10.375-8.487,18.86-18.863,18.86h-36.09c-10.375,0-27.354,0-37.726,0H87.141
				c-10.371,0-18.858-8.485-18.858-18.86V150.754c0-10.374,8.487-18.861,18.858-18.861h309.647c10.376,0,18.863,8.487,18.863,18.861
				v205.83c0,10.371,0,27.35,0,37.721V431.188z"/>
		</g>
		<g>
			<path fill="#27140E" d="M396.788,454.091H87.141c-12.628,0-22.902-10.274-22.902-22.903V150.754
				c0-12.63,10.274-22.904,22.902-22.904h309.647c12.629,0,22.903,10.273,22.903,22.904v280.434
				C419.691,443.816,409.417,454.091,396.788,454.091z M87.141,135.934c-8.17,0-14.816,6.648-14.816,14.82v280.434
				c0,8.172,6.646,14.821,14.816,14.821h309.647c8.176,0,14.822-6.649,14.822-14.821V150.754c0-8.172-6.646-14.82-14.822-14.82
				H87.141L87.141,135.934z"/>
		</g>
	</g>
	<g>
		<g>
			<path fill="#458AC9" d="M436.179,183.69c0,10.374-8.492,18.862-18.862,18.862H64.245c-10.37,0-18.861-8.488-18.861-18.862V80.886
				c0-10.373,8.491-18.86,18.861-18.86h353.07c10.37,0,18.862,8.487,18.862,18.86L436.179,183.69L436.179,183.69z"/>
		</g>
		<g>
			<path fill="#27140E" d="M417.315,206.593H64.245c-12.629,0-22.902-10.273-22.902-22.902V80.886
				c0-12.629,10.273-22.903,22.902-22.903h353.07c12.631,0,22.902,10.274,22.902,22.903V183.69
				C440.219,196.319,429.946,206.593,417.315,206.593z M64.245,66.066c-8.171,0-14.817,6.648-14.817,14.82V183.69
				c0,8.171,6.646,14.819,14.817,14.819h353.07c8.173,0,14.818-6.648,14.818-14.819V80.886c0-8.171-6.646-14.82-14.818-14.82H64.245
				z"/>
		</g>
	</g>
	<g>
		<path fill="#424143" d="M154.334,121.711c0,11.071-8.66,20.05-19.339,20.05l0,0c-10.688,0-19.342-8.979-19.342-20.05V50.5
			c0-11.077,8.654-20.057,19.342-20.057l0,0c10.679,0,19.339,8.979,19.339,20.057V121.711z"/>
		<path fill="#27140E" d="M134.995,145.803c-12.895,0-23.387-10.81-23.387-24.092V50.5c0-13.289,10.492-24.097,23.387-24.097
			s23.379,10.809,23.379,24.097v71.211C158.374,134.994,147.89,145.803,134.995,145.803z M134.995,34.486
			c-8.438,0-15.302,7.183-15.302,16.014v71.211c0,8.826,6.864,16.009,15.302,16.009c8.432,0,15.297-7.183,15.297-16.009V50.5
			C150.292,41.669,143.427,34.486,134.995,34.486z"/>
	</g>
	<g>
		<path fill="#424143" d="M364.731,121.711c0,11.071-8.659,20.05-19.344,20.05l0,0c-10.683,0-19.341-8.979-19.341-20.05V50.5
			c0-11.077,8.658-20.057,19.341-20.057l0,0c10.685,0,19.344,8.979,19.344,20.057V121.711z"/>
		<path fill="#27140E" d="M345.389,145.803c-12.89,0-23.383-10.81-23.383-24.092V50.5c0-13.289,10.493-24.097,23.383-24.097
			c12.896,0,23.384,10.809,23.384,24.097v71.211C368.771,134.994,358.284,145.803,345.389,145.803z M345.389,34.486
			c-8.437,0-15.3,7.183-15.3,16.014v71.211c0,8.826,6.863,16.009,15.3,16.009c8.438,0,15.303-7.183,15.303-16.009V50.5
			C360.69,41.669,353.825,34.486,345.389,34.486z"/>
	</g>
	<g>
		<g>
			<path fill="#E5E5E5" d="M415.483,373.541v57.721c0,10.375-8.491,18.861-18.863,18.861h-56.925"/>
		</g>
		<g>
			<path fill="#27140E" d="M396.62,454.164h-56.925c-2.231,0-4.041-1.812-4.041-4.041c0-2.23,1.81-4.041,4.041-4.041h56.925
				c8.173,0,14.819-6.648,14.819-14.82v-57.721c0-2.238,1.812-4.047,4.044-4.047c2.23,0,4.041,1.809,4.041,4.047v57.721
				C419.524,443.89,409.248,454.164,396.62,454.164z"/>
		</g>
	</g>
	<g>
		<path fill="#D2D3D4" d="M415.769,373.75l-57.719,0.289c-10.37,0.051-18.636,8.576-18.357,18.949l1.556,58.246"/>
	</g>
	<g>
		<path fill="#27140E" d="M328.415,454.164c-2.227,0-4.033-1.799-4.04-4.029c-0.01-2.229,1.797-4.045,4.027-4.053l22.896-0.072
			c0.004,0,0.007,0,0.011,0c2.229,0,4.033,1.797,4.042,4.027c0.012,2.231-1.796,4.045-4.025,4.055l-22.896,0.072
			C328.423,454.164,328.423,454.164,328.415,454.164z"/>
	</g>
	<g>
		<path fill="#27140E" d="M414.141,389.787c-1.488,0-2.693-1.203-2.693-2.693V365.38c0-1.489,1.205-2.694,2.693-2.694
			c1.487,0,2.691,1.205,2.691,2.694v21.713C416.832,388.583,415.628,389.787,414.141,389.787z"/>
	</g>
	<g>
		<path fill="#333333" d="M191.491,337.042c-6.103,6.283-14.926,9.424-26.472,9.424c-11.545,0-20.367-3.141-26.468-9.424
			c-8.182-7.711-12.273-18.813-12.273-33.319c0-14.8,4.092-25.902,12.273-33.316c6.101-6.283,14.923-9.428,26.468-9.428
			c11.546,0,20.369,3.145,26.472,9.428c8.147,7.414,12.221,18.518,12.221,33.316C203.712,318.229,199.639,329.332,191.491,337.042z
			 M180.94,324.77c3.93-4.935,5.891-11.947,5.891-21.047c0-9.062-1.961-16.066-5.891-21.017c-3.927-4.949-9.234-7.426-15.921-7.426
			c-6.685,0-12.021,2.469-15.999,7.397c-3.982,4.93-5.976,11.947-5.976,21.043c0,9.101,1.993,16.113,5.976,21.047
			c3.978,4.931,9.314,7.396,15.999,7.396C171.706,332.164,177.014,329.699,180.94,324.77z"/>
		<path fill="#333333" d="M224.306,271.884c6.507-6.649,14.782-9.975,24.833-9.975c13.441,0,23.275,4.459,29.492,13.37
			c3.434,5.009,5.277,10.031,5.53,15.072h-16.882c-1.071-3.873-2.449-6.795-4.135-8.77c-3.002-3.506-7.461-5.262-13.365-5.262
			c-6.012,0-10.754,2.477-14.226,7.426c-3.471,4.951-5.212,11.955-5.212,21.016c0,9.064,1.835,15.848,5.497,20.359
			c3.666,4.514,8.319,6.768,13.963,6.768c5.792,0,10.207-1.938,13.242-5.811c1.681-2.078,3.072-5.203,4.183-9.369h16.77
			c-1.446,8.803-5.145,15.967-11.088,21.482c-5.944,5.515-13.561,8.272-22.849,8.272c-11.494,0-20.531-3.725-27.111-11.178
			c-6.576-7.488-9.864-17.754-9.864-30.8C213.084,290.393,216.825,279.521,224.306,271.884z"/>
		<path fill="#333333" d="M356.334,263.443v14.307h-24.168v66.471h-16.989V277.75h-24.274v-14.307H356.334z"/>
	</g>
</g>
</svg>
