<?xml version="1.0" encoding="utf-8"?>
<!-- Generator: Adobe Illustrator 16.0.0, SVG Export Plug-In . SVG Version: 6.00 Build 0)  -->
<!DOCTYPE svg PUBLIC "-//W3C//DTD SVG 1.1//EN" "http://www.w3.org/Graphics/SVG/1.1/DTD/svg11.dtd">
<svg version="1.1" id="Layer_1" xmlns="http://www.w3.org/2000/svg" xmlns:xlink="http://www.w3.org/1999/xlink" x="0px" y="0px"
	 width="500px" height="500px" viewBox="0 0 500 500" enable-background="new 0 0 500 500" xml:space="preserve">
<g id="Layer_1_copy_23">
	<path fill="#754C29" stroke="#3C2415" stroke-width="4.0639" stroke-miterlimit="10" d="M127.541,327.654
		c0,0-26.416,28.787-24.892,45.721c1.524,16.932-1.021,23.539,22.011,19.643c23.029-3.897,55.536-8.127,83.816-9.822
		c28.281-1.694,98.553-5.584,110.573-5.418c12.021,0.168,20.315,11.348,38.773,8.129s40.979-9.314,40.979-9.314l3.386-52.658
		c0,0-51.478,16.762-71.118,15.916c-19.641-0.849-24.378-2.879-60.786-3.557c-36.409-0.677-67.225-0.848-90.929,0.678
		C155.65,338.492,133.124,321.08,127.541,327.654z"/>
	<path fill="#A97C51" stroke="#3C2415" stroke-width="4.0639" stroke-miterlimit="10" d="M152.939,147.49
		c0,0-47.433,81.222,17.938,190.126c0,0,10.847,125.16,62.323,128.887c21.038,0.396,15.489-10.16,15.489-10.16
		s6.857,9.481,22.438,7.112s28.11-86.693,28.11-86.693l37.507-161.879l-29.697-102.362
		C307.049,112.521,157.683,131.235,152.939,147.49z"/>
	<g>
		<path fill="none" stroke="#3C2415" stroke-width="4.0639" stroke-miterlimit="10" d="M182.402,225.72
			c0,0,1.691,19.641,10.498,18.287c18.286,1.355,15.917-18.287,15.917-18.287"/>
		<path fill="none" stroke="#3C2415" stroke-width="4.0639" stroke-miterlimit="10" d="M208.917,225.72
			c0,0,1.69,19.641,10.496,18.287c18.288,1.355,15.919-18.287,15.919-18.287"/>
		<path fill="none" stroke="#3C2415" stroke-width="4.0639" stroke-miterlimit="10" d="M235.431,225.72
			c0,0,1.691,19.641,10.498,18.287c18.287,1.355,15.918-18.287,15.918-18.287"/>
		<path fill="none" stroke="#3C2415" stroke-width="4.0639" stroke-miterlimit="10" d="M261.945,225.72
			c0,0,1.691,19.641,10.496,18.287c18.289,1.355,15.92-18.287,15.92-18.287"/>
	</g>
	<g>
		<path fill="none" stroke="#3C2415" stroke-width="4.0639" stroke-miterlimit="10" d="M185.343,269.373
			c0,0,1.691,19.641,10.497,18.287c18.288,1.355,15.919-18.287,15.919-18.287"/>
		<path fill="none" stroke="#3C2415" stroke-width="4.0639" stroke-miterlimit="10" d="M211.857,269.373
			c0,0,1.691,19.641,10.497,18.287c18.288,1.355,15.919-18.287,15.919-18.287"/>
		<path fill="none" stroke="#3C2415" stroke-width="4.0639" stroke-miterlimit="10" d="M238.372,269.373
			c0,0,1.691,19.641,10.497,18.287c18.288,1.355,15.919-18.287,15.919-18.287"/>
		<path fill="none" stroke="#3C2415" stroke-width="4.0639" stroke-miterlimit="10" d="M264.887,269.373
			c0,0,1.689,19.641,10.497,18.287c18.287,1.355,15.917-18.287,15.917-18.287"/>
	</g>
	<path fill="#754C29" stroke="#3C2415" stroke-width="4.0639" stroke-miterlimit="10" d="M172.628,336.535
		c23.704-1.523,54.521-1.354,90.929-0.678c36.408,0.678,41.146,2.711,60.787,3.556l77.789-14.628l-3.329,51.806
		c0,0-29.25,5.664-47.707,8.882c-18.458,3.219-26.753-7.961-38.773-8.127c-12.021-0.166-82.292,3.723-110.573,5.416
		c-28.279,1.694-60.787,5.926-83.816,9.822"/>
	<path fill="#FBB040" stroke="#3C2415" stroke-width="4.0639" stroke-miterlimit="10" d="M185.812,315.293
		c0,0-13.374,2.539-13.882,13.547c-0.508,11.008,10.159,10.836,9.144,24.553c-1.016,13.715-0.683,29.631,9.818,29.803
		c10.501,0.17,10.834-11.178,11.176-22.859C202.408,348.65,208.329,311.738,185.812,315.293z"/>
	<path fill="#FBB040" stroke="#3C2415" stroke-width="4.0639" stroke-miterlimit="10" d="M201.364,315.293
		c0,0-13.374,2.539-13.882,13.547c-0.508,11.008,10.159,10.836,9.144,24.553c-1.016,13.715-0.683,29.631,9.819,29.803
		c10.5,0.17,10.833-11.178,11.175-22.859C217.961,348.65,223.883,311.738,201.364,315.293z"/>
	<path fill="#FBB040" stroke="#3C2415" stroke-width="4.0639" stroke-miterlimit="10" d="M297.646,315.293
		c0,0,13.373,2.539,13.883,13.547c0.509,11.008-10.159,10.836-9.145,24.553c1.017,13.715,0.684,29.631-9.818,29.803
		c-10.5,0.17-10.834-11.178-11.176-22.859C281.05,348.65,275.129,311.738,297.646,315.293z"/>
	<path fill="#FBB040" stroke="#3C2415" stroke-width="4.0639" stroke-miterlimit="10" d="M282.094,315.293
		c0,0,13.374,2.539,13.883,13.547c0.508,11.008-10.16,10.836-9.144,24.553c1.017,13.715,0.683,29.631-9.817,29.803
		c-10.502,0.17-10.836-11.178-11.177-22.859C265.497,348.65,259.576,311.738,282.094,315.293z"/>
	<path fill="#A47268" stroke="#3C2415" stroke-width="4.0639" stroke-miterlimit="10" d="M152.939,147.49
		c0,0-37.587,56.555-37.928,134.785c-0.342,78.229,37.25,86.355,41.312,85.341c4.065-1.017,26.078-5.417,20.662-194.387
		C177.322,26.251,159.698,135.785,152.939,147.49z"/>
	<path fill="#A47268" stroke="#3C2415" stroke-width="4.0639" stroke-miterlimit="10" d="M330.229,134.959
		c0,0,37.587,56.555,37.929,134.784c0.342,78.229-37.249,86.356-41.312,85.341s-26.078-5.417-20.661-194.386
		C305.847,13.72,323.472,123.254,330.229,134.959z"/>
	<path fill="#A97C51" stroke="#3C2415" stroke-width="4.0639" stroke-miterlimit="10" d="M286.71,54.701
		c0,0-55.239-15.885-93.488-3.032c-38.25,12.852-86.676,94.808,8.147,127.996c17.608,2.708,34.062-6.436,34.062-6.436
		s14.006,9.821,45.342,5.08c31.336-4.74,61.141-26.754,59.783-62.99C339.198,79.083,311.435,53.347,286.71,54.701z"/>
	<path fill="#FBB040" stroke="#3C2415" stroke-width="4.0639" stroke-miterlimit="10" d="M239.634,149.862
		c0,0-27.43-0.338-25.736,10.16c1.694,10.497,18.962,34.542,33.864,19.979C262.664,165.439,275.867,150.877,239.634,149.862z"/>
	<path fill="#A97C51" stroke="#3C2415" stroke-width="4.0639" stroke-miterlimit="10" d="M169.6,75.359
		c0,0-17.271-30.479-1.694-37.93c15.577-7.451,35.504,24.044,35.504,24.044"/>
	<path fill="#A97C51" stroke="#3C2415" stroke-width="4.0639" stroke-miterlimit="10" d="M312.784,76.712
		c0,0,10.497-30.818,0-36.914c-10.498-6.096-34.64,24.722-34.64,24.722"/>
	<path fill="#F1F2F2" stroke="#3C2415" stroke-width="4.0639" stroke-miterlimit="10" d="M170.212,83.147
		c0,0,50.456-0.678,57.23,29.124s-20.994,33.188-35.218,27.092C178.002,133.267,170.212,83.147,170.212,83.147z"/>
	<path fill="#3C2415" stroke="#3B2416" stroke-width="4.0639" stroke-miterlimit="10" d="M195.662,86.374
		c0,0-10.322,19.464,2.94,30.3c13.264,10.836,26.514-10.755,26.514-10.755S214.62,89.354,195.662,86.374z"/>
	<path fill="#F1F2F2" stroke="#3C2415" stroke-width="4.0639" stroke-miterlimit="10" d="M309.91,83.147
		c0,0-50.456-0.678-57.23,29.124c-6.775,29.802,20.993,33.188,35.217,27.092C302.121,133.267,309.91,83.147,309.91,83.147z"/>
	<path fill="#3C2415" stroke="#3B2416" stroke-width="4.0639" stroke-miterlimit="10" d="M284.46,86.374
		c0,0,10.322,19.464-2.94,30.3c-13.264,10.836-26.516-10.755-26.516-10.755S265.502,89.354,284.46,86.374z"/>
	<path fill="#A97C51" stroke="#3C2415" stroke-width="4.0639" stroke-miterlimit="10" d="M249.088,457.408
		c0,0-14.537,5.032-21.308-11.562s-20.657-63.161-20.657-63.161l61.799-3.627C268.922,379.059,289.698,464.567,249.088,457.408z"/>
	
		<line fill="none" stroke="#3C2415" stroke-width="4.0639" stroke-miterlimit="10" x1="249.088" y1="457.408" x2="242.508" y2="380.448"/>
</g>
</svg>
