<?xml version="1.0" encoding="utf-8"?>
<!-- Generator: Adobe Illustrator 16.0.0, SVG Export Plug-In . SVG Version: 6.00 Build 0)  -->
<!DOCTYPE svg PUBLIC "-//W3C//DTD SVG 1.1//EN" "http://www.w3.org/Graphics/SVG/1.1/DTD/svg11.dtd">
<svg version="1.1" id="Layer_1" xmlns="http://www.w3.org/2000/svg" xmlns:xlink="http://www.w3.org/1999/xlink" x="0px" y="0px"
	 width="500px" height="500px" viewBox="0 0 500 500" enable-background="new 0 0 500 500" xml:space="preserve">
<g id="Layer_1_copy_83">
	<g>
		<path fill="#3C2517" d="M257.355,472.37c-0.338,0-0.672,0-1.016-0.004c-36.196-0.186-62.592-9.179-78.451-26.718
			c-15.658-17.321-15.174-36.938-14.963-40.319V79.193c0-8.897,3.886-27.672,18.449-41.605
			c11.835-11.324,27.498-16.637,46.654-15.794c46.167,2.036,63.588,32.974,63.73,51.999l2.005,274.357
			c0,0.238-0.009,0.48-0.031,0.724c-1.135,13.688-10.459,39.377-37.551,38.719c-26.592-0.67-36.347-23.237-37.792-35.077
			c-0.038-0.322-0.057-0.646-0.057-0.973V151.285c0-4.423,3.588-8.008,8.008-8.008c4.428,0,8.013,3.585,8.013,8.008v199.688
			c0.538,3.361,4.139,20.152,22.226,20.604c17.909,0.488,20.849-20.727,21.159-23.719l-1.999-273.949
			c-0.066-8.816-9.099-34.376-48.417-36.112c-14.587-0.653-26.318,3.185-34.874,11.367c-9.905,9.482-13.501,23.153-13.501,30.031
			v326.423c0,0.255-0.012,0.509-0.039,0.759c-0.042,0.572-1.1,15.494,11.087,28.772c12.759,13.903,35.111,21.035,66.426,21.201
			c0.319,0,0.632,0,0.946,0c29.172,0,50.456-7.073,63.284-21.021c14.87-16.179,13.216-36.763,13.2-36.974
			c-0.026-0.234-0.038-0.512-0.038-0.752V94.548c0-4.428,3.585-8.013,8.013-8.013c4.424,0,8.009,3.585,8.009,8.013v302.731
			c0.277,3.806,1.271,28.39-17.183,48.661C316.688,463.481,291.355,472.37,257.355,472.37z"/>
	</g>
</g>
</svg>
