<?xml version="1.0" encoding="utf-8"?>
<!-- Generator: Adobe Illustrator 16.0.0, SVG Export Plug-In . SVG Version: 6.00 Build 0)  -->
<!DOCTYPE svg PUBLIC "-//W3C//DTD SVG 1.1//EN" "http://www.w3.org/Graphics/SVG/1.1/DTD/svg11.dtd">
<svg version="1.1" id="Layer_1" xmlns="http://www.w3.org/2000/svg" xmlns:xlink="http://www.w3.org/1999/xlink" x="0px" y="0px"
	 width="500px" height="500px" viewBox="0 0 500 500" enable-background="new 0 0 500 500" xml:space="preserve">
<g id="Layer_1_copy_47">
	<g>
		<path fill="#DEA663" d="M27.834,145.832c0-4.618,6.928-21.553,61.955-11.931c55.026,9.62,91.965,11.931,143.532-0.769
			c51.568-12.698,55.031-5.771,105.821,12.7c50.798,18.469,114.673,5.002,114.673,5.002s32.036-11.255,7.314,17.318
			c-19.587,22.631,6.925,124.674-103.896,185.088c-110.828,60.42-264.367,0.775-299-73.881
			C23.603,204.706,27.834,150.448,27.834,145.832z"/>
		<path fill="#3C2517" d="M254.762,380.794c-85.5,0-172.902-44.055-198.993-100.293c-28.54-61.515-31.479-109.968-30.687-133.376
			c0.018-0.598,0.036-1.032,0.036-1.293c0-17.36,33.995-17.559,35.441-17.559c8.51,0,18.5,0.994,29.696,2.951
			c32.316,5.65,54.026,7.953,74.918,7.953c21.992,0,43.437-2.76,67.5-8.686c18.884-4.649,30.782-6.546,41.074-6.546
			c15.442,0,27.209,4.502,46.7,11.962c5.722,2.189,12.161,4.652,19.627,7.368c17.477,6.356,38.464,9.58,62.374,9.58
			c27.032,0,48.602-4.233,50.651-4.649c1.121-0.381,6.957-2.275,11.781-2.275c4.981,0,6.979,2.077,7.774,3.819
			c1.909,4.178-1.013,10.402-9.477,20.179c-5.068,5.863-6.869,18.567-9.139,34.648c-6.042,42.707-15.167,107.249-95.513,151.05
			C327.898,372.325,292.988,380.794,254.762,380.794z M60.56,133.71c-24.616,0-30.007,8.75-30.007,12.122
			c0,0.298-0.015,0.793-0.041,1.475c-0.772,22.926,2.124,70.412,30.188,130.906c25.267,54.477,110.513,97.143,194.062,97.143
			c37.303,0,71.346-8.24,101.171-24.5c77.942-42.49,86.842-105.407,92.728-147.041c2.398-16.965,4.29-30.368,10.417-37.442
			c9.832-11.368,8.689-14.246,8.64-14.363c-0.078-0.166-0.762-0.642-2.833-0.642c-4.312,0-10.107,2.011-10.167,2.033
			c-0.109,0.039-0.225,0.07-0.338,0.094c-0.229,0.048-23.085,4.798-51.929,4.798c-24.546,0-46.155-3.334-64.233-9.908
			c-7.495-2.726-13.968-5.202-19.711-7.399c-19.549-7.482-30.318-11.604-44.757-11.604c-9.824,0-21.349,1.851-39.775,6.39
			c-24.501,6.032-46.358,8.842-68.799,8.842c-21.227,0-43.208-2.327-75.853-8.036C78.435,134.674,68.757,133.71,60.56,133.71z"/>
	</g>
	<g>
		<path fill="#F3BE84" d="M185.68,246.5c-2.461,3.137-7.599,3.209-11.48,0.163l0,0c-3.881-3.046-5.026-8.055-2.564-11.189
			l33.329-42.446c2.458-3.136,7.603-3.208,11.479-0.162l0,0c3.878,3.046,5.026,8.055,2.565,11.185L185.68,246.5z"/>
		<path fill="#3C2517" d="M180.355,251.62c-2.737,0-5.52-1.002-7.834-2.818c-5.048-3.963-6.405-10.696-3.024-15.005l33.329-42.447
			c1.715-2.186,4.434-3.44,7.466-3.44c2.734,0,5.515,1.001,7.83,2.819c5.048,3.967,6.405,10.696,3.023,15l-33.328,42.451
			C186.1,250.364,183.38,251.62,180.355,251.62z M210.292,193.347c-0.791,0-2.263,0.177-3.19,1.358l-33.333,42.447
			c-1.501,1.92-0.532,5.294,2.113,7.374c1.361,1.067,2.947,1.655,4.474,1.655c0.788,0,2.256-0.174,3.187-1.358l33.328-42.449
			c1.506-1.918,0.538-5.292-2.104-7.372C213.404,193.936,211.815,193.347,210.292,193.347z"/>
	</g>
	<g>
		<path fill="#F3BE84" d="M230.588,273.784c-2.458,3.135-7.599,3.208-11.473,0.161l0,0c-3.882-3.045-5.029-8.049-2.571-11.185
			l33.331-42.452c2.463-3.134,7.604-3.208,11.48-0.16l0,0c3.879,3.05,5.025,8.055,2.561,11.186L230.588,273.784z"/>
		<path fill="#3C2517" d="M225.26,278.902c-2.734,0-5.516-1.002-7.826-2.819c-5.049-3.961-6.41-10.692-3.028-15l33.332-42.45
			c1.715-2.186,4.438-3.44,7.466-3.44c2.733,0,5.517,1.005,7.83,2.818c2.362,1.859,4.007,4.375,4.63,7.095
			c0.661,2.884,0.076,5.77-1.609,7.915l-33.328,42.442C231.011,277.646,228.292,278.902,225.26,278.902z M255.203,220.626
			c-0.794,0-2.264,0.18-3.189,1.365l-33.329,42.446c-1.504,1.918-0.541,5.291,2.108,7.373c1.357,1.066,2.943,1.652,4.467,1.652
			c0.795,0,2.263-0.178,3.194-1.357l33.329-42.446c0.904-1.159,0.753-2.595,0.58-3.341c-0.342-1.486-1.32-2.958-2.689-4.036
			C258.316,221.215,256.727,220.626,255.203,220.626z"/>
	</g>
	<g>
		<path fill="#F3BE84" d="M284.271,275.634c-2.463,3.138-7.6,3.21-11.478,0.162l0,0c-3.879-3.043-5.03-8.055-2.567-11.188
			l33.328-42.446c2.465-3.131,7.603-3.205,11.479-0.161l0,0c3.879,3.046,5.025,8.055,2.564,11.189L284.271,275.634z"/>
		<path fill="#3C2517" d="M278.943,280.753c-2.733,0-5.517-1.002-7.83-2.817c-5.049-3.963-6.405-10.697-3.024-15.006l33.328-42.447
			c1.719-2.186,4.442-3.44,7.466-3.44c2.738,0,5.517,1.001,7.83,2.822c2.363,1.851,4.012,4.371,4.633,7.087
			c0.663,2.888,0.074,5.772-1.604,7.914l-33.333,42.446C284.693,279.501,281.973,280.753,278.943,280.753z M308.883,222.481
			c-0.79,0-2.259,0.177-3.188,1.362l-33.329,42.443c-1.504,1.92-0.536,5.297,2.109,7.373c1.36,1.067,2.945,1.659,4.469,1.659
			c0.796,0,2.264-0.178,3.189-1.362l33.333-42.447c0.904-1.153,0.751-2.59,0.581-3.34c-0.342-1.491-1.324-2.955-2.688-4.033
			C311.996,223.07,310.407,222.481,308.883,222.481z"/>
	</g>
	<g>
		<path fill="#CE904C" d="M443.722,191.827c0,0,8.275,22.828,23.196,8.11c14.931-14.722,12.102-38.346,7.311-49.194
			C469.43,139.896,432.809,161.034,443.722,191.827z"/>
		<path fill="#3C2517" d="M457.211,207.602L457.211,207.602c-10.542-0.005-15.825-14.24-16.047-14.847
			c-4.014-11.326-2.406-22.946,4.512-32.736c6.089-8.618,15.884-14.873,23.291-14.873c3.657,0,6.482,1.638,7.748,4.497
			c5.288,11.975,7.82,36.741-7.892,52.226C464.971,205.669,461.066,207.602,457.211,207.602z M468.967,150.58
			c-4.899,0-13.291,4.705-18.851,12.575c-4.153,5.878-8.193,15.467-3.833,27.764c1.137,3.113,5.339,11.245,10.928,11.245l0,0
			c2.373,0,4.997-1.398,7.797-4.161c13.767-13.572,11.437-35.517,6.733-46.164C471.604,151.53,471.186,150.58,468.967,150.58z"/>
	</g>
	<g>
		<path fill="#CE904C" d="M443.722,232.809c0,0,8.275,22.832,23.196,8.109c14.931-14.722,12.102-38.343,7.311-49.194
			C469.43,180.875,432.809,202.015,443.722,232.809z"/>
		<path fill="#3C2517" d="M457.214,248.583c-0.003,0-0.003,0-0.003,0c-10.542,0-15.825-14.242-16.047-14.845
			c-4.014-11.326-2.406-22.946,4.512-32.737c6.089-8.617,15.884-14.875,23.291-14.875c3.657,0,6.482,1.64,7.748,4.499
			c5.288,11.973,7.82,36.739-7.892,52.23C464.971,246.656,461.066,248.583,457.214,248.583z M468.967,191.562
			c-4.899,0-13.291,4.702-18.851,12.577c-4.153,5.876-8.193,15.466-3.833,27.761c1.137,3.113,5.339,11.246,10.928,11.246h0.003
			c2.37,0,4.994-1.399,7.794-4.163c13.761-13.573,11.437-35.518,6.733-46.162C471.604,192.512,471.186,191.562,468.967,191.562z"/>
	</g>
	<g>
		<path fill="#CE904C" d="M426.697,272.26c0,0,3.576,24.021,21.127,12.559c17.556-11.457,19.479-35.17,16.942-46.755
			C462.222,226.477,422.126,239.912,426.697,272.26z"/>
		<path fill="#3C2517" d="M439.163,290.637L439.163,290.637c-12.334-0.005-15.045-17.242-15.152-17.976
			c-1.897-13.44,3.434-22.855,8.242-28.394c7.774-8.949,18.618-13.025,25.402-13.025c5.259,0,8.909,2.332,9.766,6.237
			c2.801,12.788,0.356,37.562-18.114,49.617C445.708,289.443,442.298,290.637,439.163,290.637z M457.655,236.677
			c-5.766,0-14.936,3.833-21.296,11.154c-4.069,4.687-8.577,12.658-6.97,24.05c0.015,0.11,2.111,13.317,9.772,13.317l0,0
			c2.06,0,4.475-0.894,7.175-2.657c16.178-10.557,18.265-32.529,15.778-43.896C461.726,236.873,458.866,236.677,457.655,236.677z"/>
	</g>
	<g>
		<path fill="#CE904C" d="M401.935,303.594c0,0-3.613,24.014,16.523,18.192c20.138-5.816,28.925-27.929,29.889-39.747
			C449.307,270.215,407.033,271.326,401.935,303.594z"/>
		<path fill="#3C2517" d="M412.729,325.416c-0.004,0-0.004,0-0.004,0c-4.072,0-7.345-1.405-9.73-4.182
			c-5.438-6.317-3.82-17.568-3.746-18.043c3.564-22.574,23.99-30.762,36.85-30.762c5.857,0,10.47,1.496,12.981,4.225
			c1.464,1.586,2.146,3.523,1.979,5.606c-1.063,13.044-10.651,36.017-31.846,42.138C416.88,325.073,414.697,325.416,412.729,325.416
			z M436.098,277.864c-10.989,0-28.445,6.966-31.478,26.155c-0.376,2.543-0.666,10.012,2.502,13.681
			c1.324,1.532,3.156,2.276,5.604,2.276h0.005c1.457,0,3.131-0.269,4.975-0.803c18.57-5.359,26.988-25.761,27.935-37.354
			c0.029-0.375-0.008-0.883-0.556-1.479C443.979,279.146,441.04,277.864,436.098,277.864z"/>
	</g>
	<g>
		<path fill="#CE904C" d="M366.982,327.596c0,0-10.146,22.062,10.812,22.066c20.966,0.016,35.548-18.784,39.765-29.87
			C421.77,308.703,380.854,298.018,366.982,327.596z"/>
		<path fill="#3C2517" d="M377.819,352.382L377.819,352.382c0,0-0.023,0-0.026,0c-6.642-0.004-11.314-2.043-13.891-6.065
			c-4.904-7.654,0.383-19.36,0.61-19.856c8.786-18.731,26.239-20.757,33.336-20.757c9.408,0,17.949,3.22,21.253,8.012
			c1.527,2.215,1.881,4.715,0.997,7.042C415.452,332.984,399.862,352.382,377.819,352.382z M397.85,311.141
			c-6.061,0-20.955,1.719-28.404,17.611c-1.192,2.609-3.705,10.369-0.961,14.645c1.513,2.354,4.646,3.547,9.312,3.547l0.023,2.72
			v-2.72c19.312,0.002,33.065-17.246,37.198-28.117c0.165-0.438,0.271-1.062-0.391-2.024
			C412.736,314.059,406.213,311.141,397.85,311.141z"/>
	</g>
	<g>
		<path fill="#CE904C" d="M328.355,349.398c0,0-13.732,20.021,6.925,23.578c20.66,3.562,38.215-12.5,44.241-22.713
			C385.545,340.043,347.032,322.589,328.355,349.398z"/>
		<path fill="#3C2517" d="M341.189,376.2c-0.005,0-0.005,0-0.005,0c-2.127,0-4.271-0.185-6.368-0.546
			c-6.547-1.125-10.808-3.93-12.664-8.327c-3.541-8.373,3.648-19.019,3.959-19.468c6.929-9.938,17.398-15.401,29.506-15.401
			c11.171,0,22.371,4.853,26.05,11.291c1.538,2.698,1.612,5.497,0.199,7.896C376.038,361.514,360.399,376.2,341.189,376.2z
			 M355.617,337.891c-7.271,0-17.517,2.269-25.032,13.061c-1.615,2.369-5.404,9.595-3.422,14.268
			c1.093,2.579,3.978,4.287,8.577,5.078c1.792,0.311,3.624,0.467,5.444,0.467h0.005c16.812,0,30.998-13.422,35.992-21.88
			c0.158-0.272,0.59-0.997-0.234-2.437C374.596,342.332,365.771,337.891,355.617,337.891z"/>
	</g>
	<g>
		<path fill="#CE904C" d="M283.966,354.917c0,0-18.448,15.781,0.577,24.571c19.031,8.791,40.151-2.172,48.618-10.471
			C341.627,360.708,308.953,333.87,283.966,354.917z"/>
		<path fill="#3C2517" d="M299.63,385.452c0,0,0,0-0.004,0c-5.744,0-11.2-1.177-16.22-3.495c-6.033-2.789-9.422-6.602-10.077-11.328
			c-1.247-9.007,8.458-17.424,8.87-17.775c6.635-5.59,14.505-8.535,22.765-8.535c14.546,0,28.002,9.027,31.449,17.459
			c1.458,3.563,0.968,6.908-1.352,9.181C327.707,378.171,313.896,385.452,299.63,385.452z M304.964,349.755
			c-7.063,0-13.539,2.435-19.246,7.241c-2.175,1.872-7.704,7.865-7.002,12.895c0.39,2.774,2.733,5.172,6.97,7.129
			c4.301,1.986,8.992,2.996,13.94,2.996c12.664,0,25.274-6.709,31.633-12.942c0.254-0.245,1.033-1.011,0.121-3.24
			C328.977,357.954,317.77,349.755,304.964,349.755z"/>
	</g>
	<g>
		<path fill="#CE904C" d="M233.437,356.559c0,0-20.915,12.336-3.699,24.295c17.217,11.961,39.911,4.84,49.7-1.869
			C289.217,372.273,261.693,340.169,233.437,356.559z"/>
		<path fill="#3C2517" d="M251.393,390.016L251.393,390.016c-8.78,0-16.592-2.334-23.207-6.934c-5.457-3.789-8.136-8.13-7.955-12.9
			c0.334-9.088,11.354-15.688,11.821-15.964c5.707-3.312,11.724-4.983,17.897-4.983c17.265,0,30.841,12.981,33.623,21.957
			c1.339,4.326,0.39,7.979-2.598,10.035C275.055,385.281,263.758,390.016,251.393,390.016z M249.949,354.671
			c-5.203,0-10.303,1.427-15.152,4.238c-2.465,1.465-8.956,6.403-9.136,11.481c-0.1,2.797,1.792,5.564,5.626,8.229
			c5.691,3.955,12.454,5.959,20.104,5.959c11.127,0,21.234-4.224,26.508-7.84c1.16-0.794,0.9-2.579,0.48-3.938
			C276.033,365.229,264.079,354.671,249.949,354.671z"/>
	</g>
	<g>
		<path fill="#CE904C" d="M186.964,349.869c0,0-22.065,10.133-6.159,23.788c15.906,13.657,39.212,8.888,49.628,3.216
			C240.847,371.195,216.753,336.449,186.964,349.869z"/>
		<path fill="#3C2517" d="M206.594,385.244L206.594,385.244c-10.773,0-20.304-3.293-27.559-9.527
			c-5.042-4.326-7.26-8.919-6.599-13.646c1.266-9.004,12.896-14.446,13.394-14.674c4.876-2.195,9.868-3.305,14.857-3.305
			c18.151,0,31.901,14.561,34.47,24.626c1.233,4.845-0.014,8.685-3.425,10.543C226.423,382.152,217.028,385.244,206.594,385.244z
			 M200.688,349.525c-4.213,0-8.454,0.951-12.605,2.82c-2.604,1.201-9.565,5.461-10.266,10.488
			c-0.383,2.771,1.219,5.718,4.758,8.758c7.907,6.787,17.426,8.213,24.02,8.213c9.416,0,17.815-2.744,22.541-5.316
			c1.435-0.783,1.089-3.108,0.753-4.426C228.009,362.691,216.646,349.525,200.688,349.525z"/>
	</g>
	<g>
		<path fill="#CE904C" d="M146.275,331.07c0,0-24.118,2.818-13.22,20.719c10.905,17.909,34.547,20.584,46.207,18.408
			C190.92,368.02,178.751,327.521,146.275,331.07z"/>
		<path fill="#3C2517" d="M171.635,373.557L171.635,373.557c-6.688,0-29.398-1.469-40.896-20.354
			c-3.456-5.676-4.147-10.729-2.058-15.021c3.989-8.172,16.738-9.746,17.275-9.81c1.456-0.161,2.896-0.238,4.297-0.238
			c21.496,0,34.697,18.907,35.96,32.56c0.618,6.648-1.854,11.316-6.45,12.177C177.342,373.318,174.534,373.557,171.635,373.557z
			 M150.253,333.568c-1.206,0-2.442,0.068-3.687,0.205c-2.844,0.34-10.78,2.234-13,6.802c-1.225,2.517-0.613,5.813,1.815,9.797
			c7.966,13.09,23.949,17.752,36.253,17.752l0,0c2.572,0,5.033-0.211,7.131-0.603c1.902-0.354,2.289-3.627,2.035-6.326
			C179.91,351.561,170.034,333.568,150.253,333.568z"/>
	</g>
	<g>
		<path fill="#CE904C" d="M110.011,305.792c0,0-24.093-2.995-17.757,16.987c6.332,19.979,28.659,28.199,40.5,28.859
			C144.598,352.293,142.401,310.068,110.011,305.792z"/>
		<path fill="#3C2517" d="M133.026,354.366L133.026,354.366c-0.048,0-0.372-0.013-0.42-0.017
			c-13.065-0.725-36.275-9.713-42.942-30.752c-1.906-6.002-1.524-10.886,1.134-14.514c3.729-5.1,10.776-6.169,16.034-6.169
			c2.038,0,3.455,0.171,3.515,0.18c23.394,3.087,32.585,24.572,31.646,38.845C141.492,349.6,138.052,354.366,133.026,354.366z
			 M106.832,308.354c-2.635,0-9.041,0.383-11.649,3.943c-1.575,2.152-1.688,5.402-0.338,9.662
			c5.839,18.427,26.448,26.316,38.063,26.963l0.118,2.723v-2.718c1.803,0,3.26-3.022,3.544-7.346
			c0.798-12.163-7.021-30.47-26.916-33.097l0,0C109.654,308.486,108.502,308.354,106.832,308.354z"/>
	</g>
	<g>
		<path fill="#CE904C" d="M82.896,272.408c0,0-22.312-9.577-21.782,11.381c0.529,20.955,19.693,35.054,30.89,38.98
			C103.197,326.691,112.822,285.516,82.896,272.408z"/>
		<path fill="#3C2517" d="M93.505,325.75L93.505,325.75c-0.81,0-1.615-0.141-2.402-0.416c-12.349-4.33-32.147-19.42-32.704-41.479
			c-0.139-5.521,1.178-9.744,3.919-12.557c2.458-2.52,5.898-3.796,10.232-3.796c5.751,0,11.187,2.308,11.419,2.405
			c18.72,8.201,23.941,26.904,20.817,41.808C102.998,320.242,98.571,325.75,93.505,325.75z M72.55,272.941
			c-2.811,0-4.944,0.726-6.34,2.151c-1.681,1.728-2.483,4.625-2.38,8.626c0.489,19.324,18.092,32.633,29.071,36.485
			c0.21,0.069,0.408,0.106,0.604,0.106l0,0c1.929,0,4.685-3.632,5.957-9.711c1.998-9.515,0.52-27.742-17.657-35.701
			C81.781,274.887,77.156,272.941,72.55,272.941z"/>
	</g>
	<g>
		<path fill="#CE904C" d="M59.536,232.818c0,0-20.354-13.236-23.409,7.502c-3.047,20.741,13.431,37.897,23.796,43.675
			C70.284,289.768,86.786,250.838,59.536,232.818z"/>
		<path fill="#3C2517" d="M62.104,287.292L62.104,287.292c-1.232,0-2.409-0.312-3.506-0.919
			c-11.432-6.378-28.369-24.62-25.156-46.45c1.787-12.168,9.247-13.985,13.533-13.985c6.884,0,13.749,4.414,14.04,4.604
			c16.617,10.985,18.155,29.351,14.424,41.742C72.701,281.4,67.462,287.292,62.104,287.292z M46.975,231.375
			c-2.914,0-6.926,0.968-8.154,9.337c-2.814,19.127,12.265,35.242,22.423,40.909c0.283,0.158,0.563,0.23,0.86,0.23l0,0
			c2.301,0,6.064-4.256,8.133-11.137c3.344-11.113,1.894-26.31-12.205-35.634C57.998,235.061,52.229,231.375,46.975,231.375z"/>
	</g>
	<g>
		<path fill="#CE904C" d="M56.449,191.481c0,0-14.574-19.417-24.558-0.983c-9.978,18.435-0.39,40.206,7.362,49.186
			C47.004,248.665,75.866,217.76,56.449,191.481z"/>
		<path fill="#3C2517" d="M42.864,243.988H42.86c-2.277,0-4.238-0.877-5.663-2.527c-8.551-9.905-18.198-32.852-7.696-52.252
			c3.366-6.221,7.683-9.372,12.818-9.372c8.688,0,15.999,9.604,16.305,10.012c8.385,11.354,9.452,25.26,2.932,38.171
			C56.887,237.274,49.023,243.988,42.864,243.988z M42.319,185.273c-2.987,0-5.692,2.193-8.035,6.521
			c-9.202,16.997-0.57,37.306,7.027,46.116c0.257,0.297,0.674,0.644,1.553,0.644l0,0c3.503,0,9.795-4.963,13.842-12.98
			c2.627-5.215,7.653-18.811-2.442-32.475C52.629,190.937,47.269,185.273,42.319,185.273z"/>
	</g>
	<g>
		<path fill="#CE904C" d="M52.074,147.083c0,0-13.021-20.492-24.402-2.887c-11.385,17.605-3.507,40.053,3.524,49.606
			C38.225,203.359,69.394,174.788,52.074,147.083z"/>
		<path fill="#3C2517" d="M35.17,198.406h-0.003c-2.558-0.003-4.746-1.063-6.163-2.991c-7.753-10.539-15.594-34.167-3.617-52.694
			c3.595-5.563,7.83-8.383,12.591-8.383c9.114,0,16.099,10.827,16.393,11.287c7.153,11.441,7.426,24.888,0.762,36.909
			C50.031,191.729,41.64,198.406,35.17,198.406z M37.978,139.774c-2.796,0-5.493,1.983-8.024,5.898
			c-10.494,16.232-3.462,37.149,3.429,46.52c0.266,0.363,0.71,0.775,1.785,0.775h0.003c3.83,0,10.73-4.996,15.207-13.071
			c3.338-6.018,7.695-18.095-0.605-31.373C48.226,146.104,43.06,139.774,37.978,139.774z"/>
	</g>
</g>
</svg>
