<?xml version="1.0" encoding="utf-8"?>
<!-- Generator: Adobe Illustrator 16.0.0, SVG Export Plug-In . SVG Version: 6.00 Build 0)  -->
<!DOCTYPE svg PUBLIC "-//W3C//DTD SVG 1.1//EN" "http://www.w3.org/Graphics/SVG/1.1/DTD/svg11.dtd">
<svg version="1.1" id="Layer_1" xmlns="http://www.w3.org/2000/svg" xmlns:xlink="http://www.w3.org/1999/xlink" x="0px" y="0px"
	 width="500px" height="500px" viewBox="0 0 500 500" enable-background="new 0 0 500 500" xml:space="preserve">
<g id="Layer_1_copy_13">
	<g>
		<path fill="#8B5F3D" d="M82.534,383.441c0,0,121.466,10.783,140.647,16.605c19.179,5.824,63.023,7.193,79.808,15.412
			c16.782,8.221,45.215,5.482,61.995,10.281c16.783,4.79,46.581,0.678,54.117,4.79c7.533,4.11,17.125,6.853,15.41-3.425
			c-1.712-10.273,0-18.838-2.054-27.402c-2.058-8.561-0.684-18.838,0.342-25.686c1.031-6.853,4.748-3.416,1.916-15.416
			c-2.827-11.994-2.036-3.095-2.827-11.994c-0.802-8.901-2.169-14.381,0.228-21.229c2.396-6.847,4.209-11.645,3.646-20.205
			c-0.562-8.568,2.179-2.061,2.859-16.443c0.688-14.388-4.79-22.266-10.272-28.771c-5.483-6.506-136.661-44.181-151.73-43.5
			c-15.075,0.686-137.354-28.77-137.354-28.77l-65.766-9.936L57.745,222.28l12.672,113.376L82.534,383.441z"/>
		<path fill="#3C2517" d="M430.05,437.099L430.05,437.099c-4.074,0-8.952-2.194-12.33-4.038c-3.002-1.638-12.219-1.714-21.139-1.782
			c-10.93-0.083-23.326-0.182-32.388-2.769c-6.695-1.917-15.452-2.589-24.721-3.303c-13.492-1.038-27.448-2.116-37.752-7.16
			c-9.224-4.515-27.43-6.928-45.045-9.261c-13.339-1.769-25.95-3.437-34.333-5.981c-18.681-5.671-138.854-16.388-140.067-16.492
			c-1.22-0.108-2.236-0.976-2.536-2.162l-12.114-47.785c-0.035-0.131-0.058-0.258-0.071-0.389L54.883,222.603
			c-0.047-0.435,0.003-0.871,0.148-1.28l15.753-44.531c0.456-1.302,1.771-2.104,3.149-1.887l65.762,9.936
			c1.435,0.334,119.595,28.752,136.36,28.752l0.998-0.022c15.247,0,146.588,36.333,153.498,44.531
			c5.688,6.752,11.691,15.252,10.952,30.767c-0.379,7.843-1.333,10.077-2.453,12.004c-0.385,0.661-0.613,1.058-0.415,4.116
			c0.581,8.843-1.24,14.047-3.549,20.629l-0.249,0.715c-1.718,4.896-1.268,8.959-0.586,15.107c0.168,1.531,0.349,3.152,0.506,4.908
			c0.173,1.957,0.29,3.254,0.362,3.789c0.519,0.889,1.139,2.465,2.401,7.807c1.944,8.257,1.085,10.426-0.562,13.017
			c-0.551,0.871-1.03,1.624-1.31,3.488c-0.846,5.636-2.421,16.134-0.39,24.585c1.155,4.816,1.199,9.461,1.243,14.378
			c0.035,4.21,0.074,8.563,0.852,13.225c0.58,3.497,0.083,6.211-1.483,8.062C434.941,435.789,433.18,437.099,430.05,437.099z
			 M84.824,380.753c16.526,1.487,121.095,11.043,139.197,16.538c7.929,2.407,20.31,4.048,33.413,5.783
			c18.069,2.395,36.754,4.865,46.82,9.798c9.316,4.562,22.706,5.592,35.662,6.591c9.568,0.734,18.604,1.432,25.858,3.504
			c8.307,2.37,20.285,2.468,30.854,2.549c10.939,0.088,19.582,0.155,23.854,2.485c3.887,2.12,7.369,3.335,9.567,3.335
			c0.338,0,1.147-0.036,1.426-0.364c0.106-0.126,0.613-0.878,0.195-3.392c-0.851-5.106-0.892-9.689-0.931-14.12
			c-0.04-4.579-0.08-8.909-1.08-13.082c-2.016-8.386-1.05-17.833,0.289-26.788c0.465-3.074,1.438-4.605,2.15-5.723
			c0.78-1.227,1.344-2.112-0.188-8.604c-1.233-5.236-1.699-6.111-1.778-6.234c-0.652-0.993-0.66-1.09-1.114-6.168
			c-0.155-1.711-0.329-3.293-0.497-4.789c-0.712-6.43-1.27-11.51,0.877-17.644l0.252-0.715c2.251-6.435,3.741-10.68,3.236-18.353
			c-0.271-4.144,0.128-5.569,1.182-7.383c0.535-0.922,1.342-2.312,1.679-9.386c0.64-13.431-4.395-20.595-9.603-26.776
			c-6.18-5.515-130.393-42.484-149.092-42.484l-0.309,0.004c-0.211,0.011-0.443,0.015-0.689,0.015
			c-17.443,0.003-132.575-27.685-137.466-28.865l-63.168-9.529l-14.741,41.66l12.577,112.525L84.824,380.753z"/>
	</g>
	<g>
		<path fill="#603A17" d="M75.901,213.375c0,0-5.821-27.743,20.55-27.743c26.372,0,27.401,11.646,35.621,15.757
			c8.218,4.108,37.333,19.865,55.488,14.73c18.152-5.143,21.232,1.712,29.453,7.537c8.222,5.821,43.842,16.784,67.479,13.354
			c23.631-3.426,43.158,7.537,63.021,15.413c19.864,7.882,54.8,30.826,84.603,26.378c0,0,46.584-3.086,12.327-27.402
			c-34.247-24.32-46.919-24.32-50.688-31.513c-3.767-7.192-49.984-42.167-63.698-48.141c-13.71-5.976-131.682-33.291-131.682-33.291
			s-0.886,10.872-44.04,9.845c-43.159-1.031-42.129-1.368-57.198,8.906c-15.074,10.276-49.669-7.879-51.726,37.333
			c-0.187,26.65,3.77,37.679,3.77,37.679s1.03,15.07-1.713,21.922c-2.735,6.848,1.713,12.672,4.111,31.51
			c2.399,18.842-1.712,24.319-4.796,39.731c-3.081,15.413-8.906,52.408,18.15,58.912c27.064,6.509,22.953-14.386,22.607-20.547
			c-0.34-6.169-11.985-35.284-8.9-54.812c3.081-19.52,15.411-27.738,27.738-23.287c12.335,4.453,42.817,14.388,64.395,14.729
			c21.582,0.345,43.844,0,62.341,10.274s55.833,5.142,70.216,5.822c14.385,0.684,27.396,7.538,38.702,12.331
			c11.304,4.794,66.105,21.581,80.496,21.581c14.384,0,21.58-23.293,13.357-28.432c-8.224-5.135-20.207-10.959-48.981-12.672
			c-28.771-1.713-77.408-6.17-87.343-10.963c-9.936-4.793-55.147-9.59-70.898-13.016c-15.755-3.422-33.568-11.988-48.298-13.701
			c-14.726-1.714-25.348-6.852-41.441-7.537c-16.101-0.683-60.97-8.562-62-21.575C75.901,229.476,75.901,213.375,75.901,213.375z"/>
		<path fill="#3C2517" d="M74.118,388.413c-2.893,0-6.205-0.444-9.855-1.319c-14.258-3.431-29.357-17.018-20.303-62.275
			c0.839-4.189,1.763-7.711,2.575-10.814c2.251-8.549,3.875-14.723,2.185-27.993c-0.961-7.577-2.257-12.956-3.291-17.28
			c-1.561-6.487-2.588-10.772-0.636-15.656c1.99-4.983,1.801-16.005,1.536-20.305c-0.729-2.3-3.967-13.895-3.8-38.249
			c1.538-33.785,20.746-35.062,36.184-36.088c6.549-0.432,12.745-0.843,16.798-3.604l0.529-0.363
			c14.306-9.757,14.963-10.091,54.213-9.141l4.151,0.099c1.923,0.043,3.755,0.065,5.509,0.065c31.727,0,35.396-7.008,35.623-7.534
			c0.128-0.726,0.535-1.382,1.138-1.826c0.674-0.49,1.526-0.675,2.348-0.479c4.826,1.114,118.389,27.441,132.186,33.458
			c12.977,5.646,60.747,41.13,65.098,49.443c1.302,2.472,4.672,4.141,10.789,7.171c8.093,3.999,20.319,10.052,39.019,23.331
			c10.733,7.62,15.134,14.222,13.447,20.181c-2.921,10.32-23.214,12.179-27.252,12.442c-2.424,0.374-5.225,0.574-8.076,0.574
			c-21.327,0-43.676-10.917-61.631-19.685c-5.939-2.898-11.555-5.639-16.148-7.465c-3.331-1.32-6.658-2.729-9.993-4.144
			c-13.59-5.758-27.646-11.71-43.002-11.71c-2.856,0-5.733,0.206-8.551,0.621c-3.109,0.451-6.542,0.674-10.199,0.674
			c-22.533,0-51.092-8.683-59.354-14.537c-1.517-1.07-2.867-2.18-4.166-3.244c-3.935-3.233-6.775-5.57-12.606-5.57
			c-2.846,0-6.191,0.559-10.234,1.699c-2.645,0.751-5.613,1.128-8.824,1.128c-17.125,0-38.024-10.614-46.955-15.146l-1.782-0.904
			c-2.766-1.382-4.713-3.353-6.774-5.443c-4.638-4.692-9.886-10.009-27.558-10.009c-6.535,0-11.362,1.858-14.35,5.527
			c-5.715,7.019-3.407,18.631-3.382,18.751c0.041,0.188,0.058,0.388,0.058,0.584c0,0.163,0.017,16.141,1.021,28.89
			c0.74,9.344,39.922,18.104,59.249,18.924c9.402,0.397,17.023,2.281,24.387,4.101c5.69,1.403,11.06,2.731,17.266,3.451
			c8.647,1.005,18.311,4.29,27.655,7.461c7.007,2.381,14.247,4.84,20.922,6.288c5.638,1.228,15.339,2.664,25.607,4.188
			c19.279,2.854,39.217,5.807,45.928,9.051c9.052,4.366,55.893,8.873,86.261,10.676c28.524,1.699,41.052,7.306,50.337,13.107
			c4.498,2.812,6.006,9.497,3.844,17.037c-2.388,8.322-9.102,16.719-18.725,16.719c-15.209,0-70.435-17.065-81.621-21.809
			c-1.833-0.782-3.716-1.611-5.637-2.462c-9.635-4.269-20.55-9.097-32.079-9.644c-3.523-0.172-8.396,0.017-14.289,0.248
			c-5.351,0.207-11.418,0.442-17.634,0.442c-18.545,0-31.11-2.185-39.551-6.876c-16.733-9.295-37.212-9.577-57.01-9.857
			l-3.979-0.054c-23.361-0.37-55.909-11.5-65.326-14.903c-1.854-0.668-3.717-1.009-5.53-1.009c-9.196,0-16.239,8.444-18.391,22.038
			c-2.099,13.296,3.196,32.112,6.355,43.357c1.489,5.27,2.468,8.753,2.581,10.84c0.026,0.465,0.077,1.017,0.127,1.636
			c0.4,4.56,1.145,13.047-3.84,18.486C83.841,386.829,79.605,388.413,74.118,388.413z M128.57,150.689
			c-16.773,0-18.686,1.307-29.285,8.536l-0.53,0.359c-5.35,3.651-12.306,4.108-19.665,4.598
			c-15.173,1.009-29.503,1.96-30.799,30.487c-0.178,25.525,3.567,36.474,3.605,36.583c0.087,0.247,0.144,0.508,0.157,0.77
			c0.044,0.642,1.039,15.811-1.91,23.188c-1.221,3.056-0.614,5.94,0.885,12.175c1.073,4.459,2.406,10.01,3.407,17.901
			c1.831,14.378-0.003,21.354-2.321,30.187c-0.839,3.174-1.699,6.453-2.506,10.476c-6.542,32.729-1.161,51.419,16,55.545
			c8.212,1.979,14.012,1.414,16.85-1.681c3.272-3.568,2.695-10.154,2.352-14.088c-0.061-0.689-0.113-1.304-0.142-1.818
			c-0.08-1.459-1.195-5.413-2.373-9.605c-3.501-12.451-8.796-31.273-6.5-45.814c2.616-16.59,11.845-26.899,24.078-26.899
			c2.485,0,5.001,0.457,7.486,1.353c6.554,2.367,40.415,14.193,63.462,14.561l3.967,0.059c20.514,0.286,41.725,0.58,59.724,10.578
			c7.56,4.198,19.237,6.15,36.757,6.15c6.104,0,12.109-0.233,17.412-0.436c6.049-0.236,11.073-0.429,14.785-0.25
			c12.604,0.599,24.043,5.66,34.134,10.131c1.896,0.84,3.749,1.658,5.562,2.426c11.923,5.057,66.109,21.352,79.367,21.352
			c6.622,0,11.395-6.3,13.188-12.542c1.39-4.853,0.83-9.194-1.359-10.565c-8.638-5.4-20.389-10.619-47.626-12.24
			c-20.66-1.227-76.816-5.645-88.42-11.243c-5.921-2.858-27.188-6.005-44.271-8.538c-10.364-1.535-20.158-2.986-25.989-4.253
			c-6.99-1.521-14.39-4.035-21.55-6.464c-9.061-3.08-18.427-6.26-26.47-7.196c-6.562-0.762-12.366-2.19-17.977-3.58
			c-7.417-1.829-14.424-3.561-23.254-3.938c-8.263-0.353-63.36-6.692-64.748-24.226c-0.945-12.041-1.024-26.857-1.033-29.063
			c-0.402-2.188-2.325-14.705,4.595-23.225c4.137-5.091,10.477-7.679,18.838-7.679c20.078,0,26.498,6.5,31.653,11.722
			c1.793,1.815,3.344,3.385,5.255,4.34l1.818,0.918c8.559,4.347,28.599,14.526,44.343,14.526c2.684,0,5.123-0.308,7.258-0.911
			c4.558-1.292,8.418-1.919,11.801-1.919c7.893,0,12.148,3.498,16.264,6.88c1.198,0.98,2.442,2.007,3.837,2.994
			c6.684,4.735,34.281,13.481,56.026,13.481c3.382,0,6.534-0.21,9.373-0.625c3.088-0.443,6.245-0.675,9.377-0.675
			c16.529,0,31.129,6.186,45.249,12.171c3.295,1.396,6.582,2.783,9.873,4.089c4.797,1.906,10.506,4.691,16.548,7.646
			c17.426,8.506,39.108,19.096,59.104,19.096c2.571,0,5.079-0.184,7.461-0.533c8.596-0.59,20.978-3.521,22.327-8.292
			c0.887-3.14-3.212-8.213-11.241-13.913c-18.326-13.017-30.31-18.94-38.238-22.862c-7.203-3.568-11.17-5.527-13.336-9.661
			c-3.16-6.038-48.309-40.745-62.297-46.837c-12.272-5.353-112.375-28.748-128.89-32.592c-2.814,3.956-11.816,9.45-40.104,9.45
			c-1.797,0-3.678-0.018-5.647-0.065l-4.15-0.102C141.133,150.863,134.039,150.689,128.57,150.689z"/>
	</g>
	<g>
		<path fill="#EFEAD3" d="M249.897,133.909c0,0-48.292-6.503-58.57,10.967c-10.276,17.465-15.07,33.563,13.7,46.58
			c28.773,13.017,43.841-4.453,65.42,11.645c21.582,16.098,60.279,5.821,59.599-21.578c-0.688-27.401-7.418-49.668-36.42-43.499"/>
		<path fill="#3C2517" d="M294.93,213.672c-9.476,0.004-18.878-2.798-26.201-8.259c-10.346-7.718-19.111-7.076-29.264-6.329
			c-9.903,0.73-21.135,1.553-35.624-5.004c-12.498-5.654-19.813-12.313-22.361-20.354c-3.227-10.157,1.637-20.572,7.363-30.312
			c11.118-18.899,59.393-12.625,61.439-12.356c1.579,0.211,2.682,1.663,2.473,3.241c-0.211,1.575-1.67,2.678-3.242,2.472
			c-12.903-1.734-48.078-3.396-55.702,9.565c-5.052,8.589-9.377,17.644-6.841,25.646c2.025,6.398,8.321,11.91,19.244,16.852
			c13.159,5.952,23.163,5.219,32.831,4.504c10.828-0.798,21.055-1.55,33.128,7.458c11.021,8.22,28.267,9.406,41.009,2.819
			c5.357-2.775,14.302-9.322,13.982-22.016c-0.496-19.918-4.148-31.89-11.487-37.685c-5.126-4.044-12.144-5.049-21.452-3.07
			c-1.541,0.34-3.084-0.661-3.418-2.221c-0.33-1.557,0.663-3.085,2.221-3.415c10.928-2.326,19.754-0.918,26.22,4.184
			c8.789,6.936,13.137,20.304,13.683,42.062c0.285,11.564-5.944,21.508-17.098,27.275
			C309.416,212.046,302.15,213.672,294.93,213.672z"/>
	</g>
	<g>
		<path fill="#BE202E" d="M293.626,143.159c0,14.123-11.446,25.573-25.575,25.573c-14.124,0-25.569-11.45-25.569-25.573
			c0-14.12,11.445-25.572,25.569-25.572C282.18,117.587,293.626,129.039,293.626,143.159z"/>
		<path fill="#3C2517" d="M268.051,171.613c-15.688,0-28.452-12.762-28.452-28.454c0-15.687,12.764-28.45,28.452-28.45
			c15.691,0,28.457,12.763,28.457,28.45C296.508,158.851,283.742,171.613,268.051,171.613z M268.051,120.468
			c-12.51,0-22.688,10.179-22.688,22.691c0,12.516,10.179,22.691,22.688,22.691c12.512,0,22.694-10.175,22.694-22.691
			C290.745,130.647,280.562,120.468,268.051,120.468z"/>
	</g>
	<g>
		<path fill="#3C2517" d="M268.055,132.683c-0.168,0-0.335-0.015-0.503-0.043c-1.562-0.275-2.61-1.767-2.34-3.332
			c0.095-0.548,10.222-55.021,68.75-73.837c1.516-0.482,3.139,0.349,3.625,1.862c0.485,1.513-0.349,3.139-1.865,3.625
			c-55.122,17.72-64.743,68.829-64.835,69.341C270.641,131.696,269.425,132.683,268.055,132.683z"/>
	</g>
</g>
</svg>
