<?xml version="1.0" encoding="utf-8"?>
<!-- Generator: Adobe Illustrator 16.0.0, SVG Export Plug-In . SVG Version: 6.00 Build 0)  -->
<!DOCTYPE svg PUBLIC "-//W3C//DTD SVG 1.1//EN" "http://www.w3.org/Graphics/SVG/1.1/DTD/svg11.dtd">
<svg version="1.1" id="Layer_1" xmlns="http://www.w3.org/2000/svg" xmlns:xlink="http://www.w3.org/1999/xlink" x="0px" y="0px"
	 width="500px" height="500px" viewBox="0 0 500 500" enable-background="new 0 0 500 500" xml:space="preserve">
<g id="Layer_1_copy_33">
	<g>
		<g>
			<path fill="#F8A41D" d="M188.952,374.438l2.364,29.277c0,0,7.806,9.393-3.526,10.653c-13.588,1.511-19.519,5.819-14.169,10.074
				c5.355,4.247,17.632-0.16,22.673-2.676c5.037-2.524,14.007,5.978,16.839,8.97c2.835,2.995,8.343,14.01,13.068,8.343
				c4.723-5.666-4.25-16.526-7.396-16.526c-3.151,0,2.517-6.613,23.296,11.806c20.778,18.418,16.215,2.99,16.215,2.99
				s-9.448-17.892-28.808-21.306c-11.649-5.932,26.287,6.979,26.287,6.979s5.571,2.048,2.938-3.779
				c-2.627-5.819-12.595-13.059-47.756-12.907l1.429-36.937l-12.812,1.731L188.952,374.438z"/>
			<path fill="#3C2517" d="M256.338,445.912c-2.143,0-6.126-0.997-15.909-9.671c-5.784-5.126-10.219-8.128-13.47-9.879
				c0.635,0.939,1.192,1.93,1.645,2.895c2.102,4.487,1.935,8.547-0.467,11.438c-1.728,2.065-3.573,2.501-4.826,2.501
				c-4.146,0-7.41-4.522-10.034-8.156c-0.754-1.052-1.469-2.042-1.975-2.572c-3.94-4.164-9.671-8.646-12.935-8.646
				c-0.378,0-0.688,0.072-0.949,0.194c-0.965,0.483-9.659,4.716-17.479,4.716l0,0c-3.294,0-5.947-0.776-7.885-2.316
				c-3.239-2.572-3.087-5.157-2.709-6.474c1.488-5.172,10.701-7.248,18.164-8.073c2.097-0.233,3.521-0.812,3.82-1.552
				c0.462-1.144-0.861-3.676-1.954-4.983c-0.328-0.401-0.531-0.892-0.571-1.416l-2.36-29.274c-0.096-1.172,0.633-2.265,1.763-2.608
				l10.645-3.31c0.131-0.041,0.271-0.067,0.407-0.088l12.81-1.729c0.737-0.093,1.484,0.131,2.03,0.633
				c0.554,0.495,0.854,1.213,0.826,1.959l-1.328,34.323c27.252,0.172,43.204,5.014,47.436,14.39
				c0.415,0.925,1.684,3.727,0.287,5.884c-0.43,0.675-1.479,1.799-3.646,1.799c-1.312,0-2.517-0.424-2.747-0.504
				c-1.412-0.479-2.844-0.962-4.279-1.443c6.43,5.795,9.662,11.795,9.896,12.229c0.075,0.152,0.138,0.304,0.187,0.459
				c0.332,1.124,1.276,4.993-0.569,7.462C259.284,445.274,257.93,445.912,256.338,445.912z M219.933,418.878
				c3.17,0,10.493,1.765,23.837,13.597c8.266,7.322,11.457,8.309,12.412,8.399c0.101-0.554,0.012-1.663-0.215-2.565
				c-1.137-1.98-10.15-16.829-26.896-19.779c-0.248-0.045-0.483-0.129-0.707-0.236c-1.997-1.021-4.063-2.068-3.525-4.291
				c0.224-0.938,1.085-2.034,2.759-2.034c3.268,0,23.001,6.63,28.992,8.671c-0.044-0.111-0.092-0.228-0.146-0.354
				c-1.926-4.268-10.25-11.432-44.337-11.432l-1.114,0.008c-0.625-0.045-1.344-0.274-1.822-0.772
				c-0.474-0.489-0.733-1.155-0.705-1.848l1.312-33.944l-9.632,1.301l-8.523,2.648l2.143,26.525c1.188,1.636,3.721,5.75,2.237,9.424
				c-1.061,2.637-3.729,4.209-7.934,4.681c-10.907,1.211-13.759,3.872-13.883,4.465c0.017,0.077,0.224,0.512,1.005,1.129
				c1.025,0.813,2.624,1.229,4.751,1.229c4.714,0,11.198-2.169,15.227-4.184c0.962-0.482,2.043-0.727,3.202-0.727
				c6.414,0,14.326,7.82,16.596,10.218c0.731,0.773,1.504,1.843,2.401,3.083c1.416,1.976,4.375,6.071,5.946,6.071
				c0.331,0,0.738-0.437,0.957-0.691c0.87-1.049,0.997-2.588,0.368-4.574c-1.249-3.937-4.862-7.533-6.012-7.837
				c-0.008,0-0.02,0-0.031,0c-1.99,0-3.123-1.468-3.123-2.92c0-1.191,0.737-2.232,1.962-2.791
				C218.119,419.039,218.96,418.878,219.933,418.878z"/>
		</g>
		<g>
			<path fill="#F8A41D" d="M177.146,398.363c2.202,5.193,4.742,18.467,4.742,18.467s1.812,9.137-9.523,10.393
				c-13.588,1.509-19.519,5.823-14.166,10.071c5.352,4.255,17.632-0.152,22.666-2.673c5.036-2.517,14.009,5.983,16.841,8.978
				c2.835,2.984,8.344,14.005,13.066,8.345c4.726-5.671-4.253-16.536-7.399-16.536s2.521-6.604,23.302,11.81
				c20.778,18.418,16.212,2.987,16.212,2.987s-9.445-17.887-28.809-21.301c-11.649-5.928,26.287,6.979,26.287,6.979
				s5.575,2.05,2.947-3.776c-2.629-5.826-12.604-13.065-47.755-12.91l0.163-48.062l-31.324,6.295
				C164.396,377.425,174.94,393.167,177.146,398.363z"/>
			<path fill="#3C2517" d="M240.911,458.774c-2.146,0-6.126-1.001-15.906-9.677c-5.79-5.129-10.225-8.128-13.476-9.879
				c0.638,0.946,1.196,1.932,1.647,2.896c2.101,4.485,1.938,8.55-0.47,11.438c-1.721,2.062-3.57,2.497-4.819,2.497
				c-4.156,0-7.417-4.521-10.039-8.155c-0.758-1.05-1.474-2.043-1.969-2.563c-3.949-4.169-9.677-8.647-12.938-8.647
				c-0.378,0-0.689,0.061-0.95,0.191c-0.968,0.482-9.655,4.718-17.48,4.718l0,0c-3.294,0-5.945-0.789-7.885-2.325
				c-3.234-2.571-3.091-5.155-2.711-6.469c1.495-5.178,10.699-7.246,18.169-8.079c2.987-0.333,5.094-1.289,6.263-2.855
				c1.499-2.007,1.07-4.536,1.07-4.562c-0.025-0.124-2.518-13.065-4.588-17.946c-2.09-4.926-12.425-20.369-12.527-20.521
				c-0.467-0.704-0.559-1.585-0.231-2.364c0.315-0.772,1.001-1.344,1.83-1.511l31.324-6.293c0.743-0.141,1.513,0.048,2.095,0.521
				c0.586,0.481,0.922,1.199,0.917,1.957l-0.155,45.535c27.305,0.159,43.289,5.001,47.524,14.39
				c0.415,0.918,1.684,3.725,0.292,5.884c-0.436,0.669-1.488,1.799-3.65,1.799c-1.312,0-2.517-0.419-2.748-0.504
				c-1.408-0.481-2.848-0.964-4.279-1.438c6.429,5.782,9.663,11.78,9.895,12.226c0.076,0.143,0.14,0.302,0.188,0.462
				c0.332,1.125,1.276,4.984-0.566,7.457C243.857,458.124,242.503,458.774,240.911,458.774z M204.505,431.738
				c3.176,0,10.494,1.767,23.835,13.593c8.268,7.326,11.459,8.307,12.412,8.395c0.104-0.55,0.019-1.654-0.212-2.557
				c-1.136-1.986-10.146-16.831-26.896-19.79c-0.248-0.04-0.487-0.115-0.706-0.228c-1.995-1.021-4.061-2.069-3.526-4.296
				c0.224-0.938,1.082-2.025,2.76-2.025c3.267,0,23.005,6.625,28.995,8.667c-0.043-0.111-0.096-0.229-0.15-0.353
				c-1.928-4.274-10.247-11.435-44.339-11.435h-1.113c0,0-0.003,0-0.007,0c-0.671,0-1.31-0.259-1.779-0.737
				c-0.479-0.467-0.741-1.117-0.741-1.781l0.159-44.98l-24.636,4.954c3.227,4.92,9.232,14.278,10.904,18.213
				c2.281,5.382,4.793,18.431,4.896,18.985c0.092,0.453,0.825,4.687-1.918,8.438c-2.03,2.771-5.327,4.427-9.804,4.922
				c-10.903,1.211-13.759,3.876-13.882,4.467c0.016,0.083,0.223,0.511,1.005,1.133c1.024,0.812,2.619,1.228,4.749,1.228
				c4.715,0,11.196-2.165,15.228-4.179c0.966-0.481,2.042-0.73,3.203-0.73c6.417,0,14.326,7.825,16.592,10.22
				c0.733,0.772,1.502,1.846,2.399,3.087c1.421,1.975,4.379,6.069,5.955,6.069c0.327,0,0.737-0.434,0.954-0.689
				c0.872-1.05,0.997-2.584,0.367-4.57c-1.25-3.936-4.863-7.537-6.011-7.849c-1.982,0.123-3.155-1.452-3.155-2.908
				c0-1.192,0.733-2.24,1.954-2.792C202.691,431.897,203.534,431.738,204.505,431.738z"/>
		</g>
		<g>
			<path fill="#EC9422" d="M328.318,147.766c0,0,23.925,8.648,35.68,23.764c11.754,15.11,30.228,31.481,49.535,28.124
				c19.31-3.356,28.124-23.926,30.645-31.481c2.518-7.558,13.055-22.123,23.739-23.654c10.68-1.534-43.05-9.508-53.547-9.087
				c-10.493,0.42-52.052-7.837-53.73-6.438c-1.679,1.401-33.637,0.95-31.3,6.42C331.677,140.887,328.318,147.766,328.318,147.766z"
				/>
			<path fill="#3C2517" d="M408.388,202.616c-0.005,0-0.005,0-0.005,0c-20.358-0.004-37.792-18.512-46.371-29.543
				c-11.163-14.346-34.318-22.854-34.552-22.94c-0.669-0.244-1.207-0.763-1.474-1.427c-0.269-0.657-0.244-1.408,0.07-2.043
				c0.024-0.056,2.812-5.937,0.966-10.26c-0.508-1.187-0.42-2.439,0.242-3.521c1.998-3.275,9.104-4.301,24.28-5.364
				c3.067-0.214,6.854-0.479,7.878-0.734c0.705-0.403,1.52-0.469,2.31-0.469c3.158,0,11.434,1.278,21.021,2.754
				c12.233,1.891,26.24,4.031,31.517,3.845c5.464-0.231,21.042,1.665,32.518,3.42c24.779,3.785,24.887,5.316,25.038,7.432
				c0.071,1.011-0.295,2.779-3.554,3.244c-9.372,1.345-19.379,14.98-21.709,21.958c-2.281,6.847-11.375,29.478-32.601,33.168
				C412.131,202.456,410.254,202.616,408.388,202.616z M331.572,146.332c6.493,2.658,24.442,10.832,34.411,23.652
				c8.018,10.302,24.185,27.591,42.396,27.595c0,0,0.003,0,0.008,0c1.579,0,3.167-0.135,4.714-0.407
				c18.476-3.214,26.626-23.62,28.688-29.798c2.189-6.573,10.242-18.486,19.732-23.35c-12.092-2.526-37.843-6.097-46.264-6.097
				c-0.286,0-0.551,0.008-0.789,0.015c-5.671,0.235-19.962-1.961-32.484-3.896c-9.148-1.409-17.885-2.781-20.396-2.695
				c-1.158,0.55-3.309,0.744-9.69,1.192c-5.193,0.363-16.885,1.178-19.915,2.74C333.344,139.318,332.431,143.665,331.572,146.332z"
				/>
		</g>
		<g>
			<path fill="#EC9422" d="M340.067,108.77c0,0,21.407,11.546,74.725,17.004c53.312,5.457,57.093,5.457,59.188,11.334
				c2.101,5.875-7.56,10.075-24.347,8.816c-16.791-1.259-53.954,4.527-77.659,0.22c-23.708-4.301-43.655-8.198-43.655-8.198
				L340.067,108.77z"/>
			<path fill="#3C2517" d="M394.28,150.281c-9.165,0-16.607-0.542-22.758-1.659c-23.451-4.257-43.482-8.164-43.688-8.204
				c-0.738-0.142-1.373-0.611-1.728-1.271c-0.362-0.658-0.407-1.444-0.127-2.144l11.754-29.176c0.267-0.666,0.804-1.179,1.475-1.424
				c0.679-0.245,1.421-0.189,2.05,0.147c0.216,0.114,21.77,11.39,73.787,16.714l9.589,0.979c46.437,4.73,49.215,5.011,51.717,12.015
				c0.776,2.182,0.485,4.409-0.83,6.268c-2.786,3.956-9.938,6.136-20.141,6.136c-1.895,0-3.894-0.076-5.938-0.231
				c-5.823-0.436-15.709,0.083-26.255,0.708C414.158,149.677,403.917,150.281,394.28,150.281z M331.796,136.057
				c6.446,1.245,22.514,4.323,40.629,7.612c5.847,1.059,12.997,1.575,21.855,1.575c9.488,0,19.649-0.6,28.607-1.13
				c10.749-0.634,20.771-1.164,26.935-0.704c1.922,0.145,3.788,0.217,5.56,0.217c9.747,0,14.727-2.153,16.024-4.002
				c0.375-0.531,0.436-1.017,0.203-1.671c-1.392-3.896-5.332-4.403-47.485-8.697l-9.587-0.979
				c-43.675-4.47-66.025-12.927-73.13-16.083L331.796,136.057z"/>
		</g>
		<g>
			<path fill="#E2E0DC" d="M266.191,248.348c-3.357,17.63-15.114,42.398-51.212,73.46c-36.099,31.063-56.252,19.307-56.252,19.307
				s-9.651,14.273-18.887,18.609c-9.239,4.332-10.494-12.312-10.494-12.312s-10.498,16.373-22.251,17.63
				c-11.753,1.261-5.874-10.907-5.874-10.907s-7.982,12.168-25.19,15.948c-17.21,3.776-7.554-19.308-7.554-19.308
				c-15.535,10.492-24.768,7.135-24.768,7.135s-50.372-7.553,29.385-86.055c94.448-76.399,152.8-53.312,180.086-54.57
				c27.282-1.259-4.62-36.942-4.62-36.942s-22.246-21.826-16.792-60.415c5.457-38.588,54.568-34.875,54.568-34.875
				s69.688-4.616,60.875,39.462c-8.818,44.077-49.433,28.183-49.433,28.183s-18.573-13.073-11.02,9.598
				c7.558,22.667,53.308,57.506,52.052,88.988c0,0,7.972,42.819-66.744,91.515c-74.722,48.692-100.746,37.357-100.746,37.357
				s-51.636,19.312-73.459,4.617c0,0-68.428,22.252-57.512-8.812c3.358-18.052,5.875-22.67,5.875-22.67"/>
			<path fill="#3C2517" d="M57.159,395.001c-7.367,0-13.816-1.312-17.41-4.985c-3.386-3.471-4-8.412-1.837-14.699
				c1.282-6.89,2.447-11.846,3.405-15.373c-3.801-1.053-11.874-4.307-14.789-13.264c-5.312-16.353,9.759-42.135,44.797-76.619
				c79.063-63.972,132.904-59.089,165.075-56.18c6.492,0.59,12.096,1.093,16.659,0.887c4.531-0.211,7.295-1.427,8.211-3.621
				c2.666-6.346-7.528-21.232-14.587-29.129c-0.83-0.806-22.973-23.048-17.405-62.444c5.535-39.196,53.59-37.247,57.06-37.043
				c3.239-0.194,41.499-2.094,57.384,16.021c6.079,6.93,8.085,15.833,5.96,26.456c-2.802,13.993-9.002,23.705-18.44,28.859
				c-15.429,8.429-33.61,1.472-34.372,1.174c-0.188-0.072-0.367-0.171-0.531-0.281c-3.282-2.304-7.438-3.863-8.399-3.145
				c-0.463,0.345-1.147,2.792,1.213,9.881c2.795,8.387,11.511,19.034,20.735,30.308c15.052,18.39,32.102,39.222,31.456,59.318
				c0.653,4.286,4.96,46.302-67.896,93.787c-67.86,44.217-96.44,39.557-102.088,37.917c-6.979,2.516-52.08,17.898-73.852,4.705
				C91.908,389.29,72.545,395.001,57.159,395.001z M46.299,360.878c-0.946,3.397-2.139,8.396-3.475,15.542
				c-0.02,0.127-0.055,0.254-0.1,0.371c-2.34,6.667-0.107,8.949,0.626,9.699c8.121,8.314,41.539-0.145,53.73-4.108
				c0.742-0.235,1.549-0.131,2.187,0.304c20.515,13.812,70.664-4.693,71.174-4.891c0.606-0.227,1.285-0.211,1.883,0.048
				c8.799,3.574,40.728,0.407,98.367-37.153c72.472-47.231,65.72-88.529,65.644-88.943c-0.031-0.186-0.048-0.373-0.04-0.562
				c0.73-18.268-15.757-38.411-30.306-56.189c-9.529-11.638-18.527-22.634-21.618-31.9c-1.73-5.199-3.559-12.459,0.559-15.521
				c4.368-3.258,11.93,1.443,14.023,2.872c2.152,0.762,17.468,5.795,29.898-1.009c8.055-4.417,13.396-12.968,15.888-25.416
				c1.802-9.001,0.183-16.456-4.809-22.146c-14.615-16.673-53.036-14.332-53.423-14.305c-0.119,0.01-0.234,0.01-0.357,0
				c-0.115-0.008-12.078-0.845-24.453,2.902c-16.096,4.88-25.329,14.909-27.436,29.812c-5.2,36.773,15.854,58.056,16.064,58.267
				c2.193,2.452,20.349,23.229,15.591,34.55c-1.739,4.139-5.987,6.396-12.623,6.704c-4.895,0.231-10.669-0.298-17.35-0.9
				c-31.407-2.848-83.978-7.614-161.267,54.911C33.1,314.755,28.126,335.184,31.3,345.082c2.21,6.869,8.68,9.302,11.482,10.046
				c0.689-1.993,1.125-2.847,1.229-3.039c0.671-1.219,2.198-1.67,3.422-1.008c1.221,0.67,1.672,2.2,1.005,3.422
				c-0.003,0.004-0.207,0.406-0.569,1.383c3.677-0.026,10.302-1.184,19.198-7.198c0.921-0.619,2.139-0.563,3.004,0.142
				c0.861,0.702,1.156,1.886,0.73,2.914c-1.528,3.67-3.893,12.185-1.459,15.092c1.244,1.5,4.031,1.257,6.149,0.79
				c16.021-3.518,23.547-14.757,23.618-14.876c0.729-1.101,2.194-1.459,3.351-0.808c1.152,0.654,1.603,2.091,1.024,3.283
				c-0.881,1.848-1.755,5.2-0.821,6.519c0.709,1.004,2.915,0.937,4.164,0.797c10.401-1.108,20.3-16.332,20.396-16.483
				c0.587-0.91,1.695-1.347,2.736-1.078c1.045,0.265,1.807,1.168,1.895,2.248c0.215,2.758,1.476,8.937,3.992,10.404
				c0.485,0.282,1.312,0.574,2.92-0.184c8.495-3.984,17.784-17.604,17.875-17.742c0.742-1.098,2.208-1.434,3.354-0.76
				c0.173,0.092,19.295,10.246,53.34-19.041c29.098-25.039,46.049-49.276,50.38-72.026c0.264-1.362,1.561-2.269,2.948-2.004
				c1.366,0.264,2.26,1.58,2.001,2.949c-4.551,23.9-22.059,49.099-52.042,74.898c-30.83,26.527-50.713,22.819-57.025,20.529
				c-2.964,4.046-10.819,14.066-18.688,17.756c-3.463,1.627-6.043,0.881-7.602-0.023c-2.868-1.676-4.491-5.231-5.389-8.396
				c-4.284,5.252-11.977,13.047-20.557,13.967c-4.175,0.455-7.146-0.537-8.822-2.914c-0.569-0.813-0.921-1.703-1.112-2.633
				c-4.371,3.872-11.246,8.43-20.858,10.541c-5.065,1.109-8.794,0.275-11.096-2.48c-2.911-3.49-2.44-9.222-1.399-13.715
				C55.958,360.585,49.832,361.105,46.299,360.878z"/>
		</g>
		<g>
			<path fill="#FFFFFF" d="M297.668,111.584c0,0,3.565-7.768,10.49,2.516c6.927,10.288,0.692,17.389-7.344,14.065
				C294.729,125.646,293.051,120.192,297.668,111.584z"/>
			<path fill="#3C2517" d="M304.692,131.509c-1.58,0-3.204-0.34-4.843-1.018c-3.418-1.411-5.681-3.615-6.721-6.538
				c-1.316-3.679-0.535-8.244,2.316-13.564c0.658-1.448,2.77-4.136,6.047-4.136c2.975,0,5.839,2.106,8.754,6.439
				c3.524,5.237,4.372,10.449,2.321,14.304C311.065,129.824,308.117,131.509,304.692,131.509z M301.493,111.292
				c-0.821,0-1.532,1.329-1.539,1.342c-2.193,4.092-2.884,7.375-2.083,9.63c0.552,1.543,1.832,2.712,3.909,3.574
				c2.779,1.152,5.345,0.666,6.346-1.207c1.129-2.126,0.359-5.536-2.055-9.125C303.368,111.494,301.784,111.292,301.493,111.292z"/>
		</g>
		<g>
			<ellipse fill="#3C2517" cx="305.982" cy="122.812" rx="5.167" ry="5.353"/>
		</g>
	</g>
</g>
</svg>
