<?xml version="1.0" encoding="utf-8"?>
<!-- Generator: Adobe Illustrator 16.0.0, SVG Export Plug-In . SVG Version: 6.00 Build 0)  -->
<!DOCTYPE svg PUBLIC "-//W3C//DTD SVG 1.1//EN" "http://www.w3.org/Graphics/SVG/1.1/DTD/svg11.dtd">
<svg version="1.1" id="Layer_1" xmlns="http://www.w3.org/2000/svg" xmlns:xlink="http://www.w3.org/1999/xlink" x="0px" y="0px"
	 width="500px" height="500px" viewBox="0 0 500 500" enable-background="new 0 0 500 500" xml:space="preserve">
<g id="Layer_1_copy_79">
	<g>
		<polygon fill="#FFF7D8" points="198.948,54.097 204.433,380.559 147.989,356.607 145.466,36.829 		"/>
		<path fill="#3C2517" d="M204.433,382.66c-0.274,0-0.557-0.057-0.824-0.165l-56.445-23.946c-0.771-0.331-1.276-1.083-1.284-1.92
			l-2.52-319.784c-0.003-0.675,0.315-1.312,0.861-1.713c0.542-0.396,1.245-0.513,1.892-0.308l53.481,17.269
			c0.862,0.275,1.444,1.067,1.459,1.965l5.478,325.979c0.045,0.166,0.065,0.344,0.065,0.521c-0.004,1.172-0.942,2.09-2.131,2.102
			C204.453,382.66,204.441,382.66,204.433,382.66z M150.081,355.214l52.194,22.144l-5.404-321.725l-49.278-15.91L150.081,355.214z"
			/>
	</g>
	<g>
		<polygon fill="#F5E19E" points="224.127,42.953 228.156,366.512 204.433,380.559 198.948,54.097 		"/>
		<path fill="#3C2517" d="M204.433,382.66c-0.354,0-0.702-0.09-1.026-0.266c-0.654-0.369-1.067-1.053-1.075-1.799l-5.49-326.466
			c-0.009-0.845,0.485-1.617,1.253-1.961l25.183-11.144c0.643-0.288,1.39-0.227,1.988,0.157c0.591,0.384,0.955,1.039,0.962,1.743
			l4.035,323.558c0.007,0.758-0.388,1.457-1.035,1.841l-23.72,14.046C205.177,382.562,204.806,382.66,204.433,382.66z
			 M201.078,55.455l5.4,321.445l19.557-11.582L222.06,46.166L201.078,55.455z"/>
	</g>
	<g>
		<polygon fill="#EF4237" points="145.466,36.829 170.648,24.133 224.127,42.953 198.745,55.463 		"/>
		<path fill="#3C2517" d="M198.745,57.565c-0.233,0-0.468-0.04-0.695-0.121l-53.278-18.626c-0.801-0.283-1.352-1.01-1.408-1.851
			c-0.056-0.841,0.4-1.633,1.157-2.017l25.182-12.696c0.51-0.255,1.101-0.295,1.642-0.105l53.481,18.82
			c0.797,0.278,1.355,1.011,1.402,1.859c0.05,0.84-0.411,1.637-1.171,2.013l-25.381,12.506
			C199.385,57.492,199.064,57.565,198.745,57.565z M150.834,36.481l47.771,16.703l20.105-9.908l-47.916-16.859L150.834,36.481z"/>
	</g>
	<g>
		<path fill="#3C2517" d="M187.589,472.048c-0.873,0-1.733-0.408-2.283-1.173c-0.905-1.252-0.614-3.007,0.646-3.912l250.565-180.136
			c1.262-0.904,3.008-0.618,3.916,0.64c0.906,1.262,0.618,3.012-0.639,3.917L189.225,471.52
			C188.729,471.875,188.154,472.048,187.589,472.048z"/>
	</g>
	<g>
		<path fill="#3C2517" d="M183.567,441.83c-0.873,0-1.73-0.405-2.279-1.164c-0.906-1.257-0.619-3.016,0.638-3.918l250.565-180.135
			c1.257-0.908,3.012-0.613,3.913,0.635c0.908,1.262,0.623,3.012-0.635,3.918L185.2,441.304
			C184.707,441.659,184.133,441.83,183.567,441.83z"/>
	</g>
	<g>
		<path fill="#3C2517" d="M175.563,422.757c-0.993,0-1.965-0.532-2.474-1.475c-0.735-1.362-0.226-3.063,1.14-3.8L445.904,271.12
			c1.37-0.748,3.066-0.228,3.804,1.136c0.734,1.362,0.226,3.068-1.141,3.801L176.894,422.423
			C176.469,422.654,176.013,422.757,175.563,422.757z"/>
	</g>
	<g>
		<polygon fill="#FBB041" points="145.39,37.342 145.203,72.436 198.855,91.928 198.745,55.463 		"/>
		<path fill="#3C2517" d="M198.855,94.034c-0.243,0-0.485-0.041-0.724-0.13l-53.648-19.491c-0.836-0.303-1.386-1.099-1.386-1.988
			l0.186-35.094c0.008-0.676,0.335-1.31,0.885-1.702c0.551-0.393,1.258-0.497,1.896-0.279l53.356,18.117
			c0.852,0.291,1.427,1.091,1.431,1.988l0.105,36.464c0,0.691-0.332,1.334-0.897,1.73C199.703,93.904,199.279,94.034,198.855,94.034
			z M147.317,70.965l49.419,17.955l-0.093-31.949l-49.164-16.698L147.317,70.965z"/>
	</g>
	<g>
		<polygon fill="#F89521" points="224.127,42.953 198.745,55.463 198.855,91.928 224.127,80.84 		"/>
		<path fill="#3C2517" d="M198.855,94.034c-0.405,0-0.806-0.117-1.149-0.344c-0.597-0.384-0.953-1.047-0.957-1.759l-0.109-36.463
			c0-0.805,0.453-1.541,1.176-1.896l25.382-12.506c0.654-0.323,1.423-0.283,2.041,0.097c0.618,0.388,0.989,1.063,0.989,1.791V80.84
			c0,0.833-0.492,1.593-1.257,1.928l-25.274,11.088C199.429,93.973,199.138,94.034,198.855,94.034z M200.854,56.765l0.095,31.945
			l21.075-9.244v-33.13L200.854,56.765z"/>
	</g>
	<g>
		<polygon fill="#BE202E" points="158.732,36.829 172.027,29.294 193.737,37.342 181.935,44.715 		"/>
		<path fill="#3C2517" d="M181.935,46.821c-0.227,0-0.461-0.041-0.68-0.113l-23.201-7.886c-0.784-0.267-1.343-0.966-1.419-1.795
			c-0.078-0.829,0.335-1.621,1.059-2.025l13.295-7.543c0.542-0.307,1.188-0.356,1.771-0.138l21.706,8.048
			c0.756,0.279,1.285,0.962,1.366,1.758c0.081,0.8-0.299,1.577-0.978,1.997l-11.804,7.377
			C182.71,46.712,182.322,46.821,181.935,46.821z M163.85,36.348l17.818,6.055l7.319-4.576l-16.771-6.221L163.85,36.348z"/>
	</g>
</g>
</svg>
