<?xml version="1.0" encoding="utf-8"?>
<!-- Generator: Adobe Illustrator 16.0.0, SVG Export Plug-In . SVG Version: 6.00 Build 0)  -->
<!DOCTYPE svg PUBLIC "-//W3C//DTD SVG 1.1//EN" "http://www.w3.org/Graphics/SVG/1.1/DTD/svg11.dtd">
<svg version="1.1" id="Layer_1" xmlns="http://www.w3.org/2000/svg" xmlns:xlink="http://www.w3.org/1999/xlink" x="0px" y="0px"
	 width="500px" height="500px" viewBox="0 0 500 500" enable-background="new 0 0 500 500" xml:space="preserve">
<g id="Layer_1_copy_22">
	<path fill="#F7941E" stroke="#3C2415" stroke-width="3.0815" stroke-miterlimit="10" d="M162.853,426.249
		c0,0-19.172,12.326-7.531,30.813c11.64,18.489,43.823,5.478,43.823,0S182.71,413.236,162.853,426.249z"/>
	<path fill="#F7941E" stroke="#3C2415" stroke-width="3.0815" stroke-miterlimit="10" d="M267.266,454.258
		c0,0,4.977,22.241,26.342,17.68c21.364-4.562,20.226-39.262,15.087-41.144C303.549,428.909,261.885,431.135,267.266,454.258z"/>
	<path fill="#6D6E71" stroke="#3C2415" stroke-width="4.1086" stroke-miterlimit="10" d="M168.475,139.666
		c0,0-32-117.429,70.211-111.952c102.21,5.477,67.969,99.809,67.969,99.809s71.9,36.46,84.228,112.47
		c12.326,76.01-6.163,107.511-22.598,101.349c-16.436-6.164-25.339-139.696-36.979-111.62c-11.64,28.076,0,150.651,0,150.651
		s7.535,71.243-85.314,71.042c-115.423-0.249-93.053-66.007-94.422-100.488c-1.368-34.479-3.778-130.791-3.778-130.791
		s-6.834,10.065-9.591,23.288c-9.043,43.357-13.008,110.243-38.346,112.98c-25.338,2.74-47.935-117.097-2.054-171.193
		C143.681,131.113,168.475,139.666,168.475,139.666z"/>
	
		<ellipse fill="#FFFFFF" stroke="#3C2415" stroke-width="3.0815" stroke-miterlimit="10" cx="215.939" cy="92.721" rx="12.779" ry="15.822"/>
	<path fill="#3C2415" d="M218.516,93.823c0,3.747-2.34,6.783-5.221,6.783c-2.88,0-5.216-3.036-5.216-6.783
		c0-3.744,2.336-6.779,5.216-6.779C216.176,87.044,218.516,90.079,218.516,93.823z"/>
	
		<ellipse fill="#FFFFFF" stroke="#3C2415" stroke-width="3.0815" stroke-miterlimit="10" cx="258.771" cy="93.824" rx="12.779" ry="15.823"/>
	<path fill="#3C2415" d="M261.348,94.926c0,3.748-2.34,6.783-5.221,6.783s-5.215-3.035-5.215-6.783c0-3.744,2.334-6.779,5.215-6.779
		S261.348,91.182,261.348,94.926z"/>
	<path fill="#F7941E" stroke="#3C2415" stroke-width="3.0815" stroke-miterlimit="10" d="M215.939,133.852
		c0,0,8.189-7.533,22.746-6.163c14.558,1.37,33.045-1.37,26.883,16.435c-6.164,17.805-23.966,19.175-32.185,15.066
		C225.168,155.081,210.82,150.97,215.939,133.852z"/>
	<path fill="#FFFFFF" stroke="#3C2415" stroke-width="3.0815" stroke-miterlimit="10" d="M309.748,308.468
		c0,54.837-30.663,99.291-68.491,99.291c-37.823,0-68.486-44.454-68.486-99.291c0-54.836,30.663-99.291,68.486-99.291
		C279.085,209.177,309.748,253.632,309.748,308.468z"/>
</g>
</svg>
