<?xml version="1.0" encoding="utf-8"?>
<!-- Generator: Adobe Illustrator 16.0.0, SVG Export Plug-In . SVG Version: 6.00 Build 0)  -->
<!DOCTYPE svg PUBLIC "-//W3C//DTD SVG 1.1//EN" "http://www.w3.org/Graphics/SVG/1.1/DTD/svg11.dtd">
<svg version="1.1" id="Layer_1" xmlns="http://www.w3.org/2000/svg" xmlns:xlink="http://www.w3.org/1999/xlink" x="0px" y="0px"
	 width="500px" height="500px" viewBox="0 0 500 500" enable-background="new 0 0 500 500" xml:space="preserve">
<g id="Layer_1_copy_85">
	<g>
		<polygon fill="#931A4D" points="249.192,42.896 46.222,190.413 124.287,429.455 376.784,429.455 453.777,190.413 		"/>
		<path fill="#27140E" d="M376.784,434.458H124.287c-2.166,0-4.085-1.393-4.76-3.448L41.464,191.969
			c-0.676-2.064,0.06-4.329,1.814-5.604l202.97-147.517c1.747-1.273,4.116-1.277,5.872-0.012l204.589,147.517
			c1.759,1.269,2.501,3.529,1.83,5.596l-76.992,239.04C380.884,433.058,378.956,434.458,376.784,434.458z M127.922,424.448h245.217
			l74.758-232.103L249.204,49.077L52.109,192.323L127.922,424.448z"/>
	</g>
</g>
</svg>
