<svg id="pt_class" data-name="pt class" xmlns="http://www.w3.org/2000/svg" viewBox="0 0 300 300"><defs><style>.cls-1{fill:#fac279;}.cls-2{fill:#3a2d24;}.cls-3{fill:#4b2718;}.cls-4{fill:#3858a8;}.cls-5{fill:#f8801e;}.cls-6{fill:#81441e;}</style></defs><title>pt class</title><path class="cls-1" d="M170.49,81.35V69.4l-8.34-25.32s-3.46-5.51-8-7-11.94-3.8-9.1-6.46,9.26,5.7,7.39-.95-9.9-6.84-9.9-6.84,2.12-8.35,14.29-1.51c8.57,4.56,8.35,12.91,10.82,18S183.37,60.49,183,69.17s-.72,18-.72,18l-4.09,9.6Z"/><path class="cls-2" d="M178.19,98A1.29,1.29,0,0,1,177,97.3l-7.7-15.38a1.23,1.23,0,0,1-.14-.57V69.61l-8.22-25c-.52-.8-3.54-5.14-7.23-6.37l-.68-.23c-5.45-1.81-9.34-3.28-9.88-5.72a2.75,2.75,0,0,1,1-2.68,3.3,3.3,0,0,1,2.32-.89,9.49,9.49,0,0,1,4.26,1.51l.6.32c0-.17-.09-.37-.16-.6-1.59-5.62-8.39-5.88-8.68-5.89a1.29,1.29,0,0,1-1.22-1.61,7.28,7.28,0,0,1,7.29-5.19c2.53,0,5.52,1,8.89,2.85,6.73,3.58,8.43,9.43,9.8,14.12a29.46,29.46,0,0,0,1.55,4.5,70.51,70.51,0,0,0,4.06,6.43c4.94,7.34,11.7,17.39,11.41,24-.38,8.68-.72,17.94-.72,17.94a1.19,1.19,0,0,1-.1.46l-4.09,9.61a1.29,1.29,0,0,1-1.15.78h0m-6.4-17,6.3,12.6,2.9-6.81c.06-1.5.37-9.86.71-17.72.26-5.78-6.49-15.82-11-22.46a69.22,69.22,0,0,1-4.25-6.76A31.47,31.47,0,0,1,164.78,35c-1.36-4.67-2.77-9.49-8.55-12.57-3-1.69-5.57-2.54-7.65-2.54a4.81,4.81,0,0,0-4.07,1.85c2.76.51,7.65,2.17,9.17,7.55.44,1.56.61,2.76,0,3.59a1.76,1.76,0,0,1-1.45.69,6.29,6.29,0,0,1-2.7-1,7.86,7.86,0,0,0-3-1.2.73.73,0,0,0-.55.19.94.94,0,0,0-.23.28c.29,1.15,6,3.06,8.17,3.77l.68.23c4.93,1.65,8.54,7.33,8.69,7.57a2.39,2.39,0,0,1,.13.28L171.72,69a1.4,1.4,0,0,1,.07.4Z"/><path class="cls-1" d="M140.65,102.74s7.66,1.13,10.61,8,11.42,4,11.42,4l5-10.52-4.8-4.74s-5.47-7.62-5.17-11.43-11.87,5.13-11.87,5.13Z"/><path class="cls-2" d="M158.77,116.64h0c-4.11,0-7.2-1.91-8.7-5.39-2.64-6.14-9.54-7.22-9.61-7.23a1.29,1.29,0,0,1-1-1.9l5.16-9.54a1.3,1.3,0,0,1,.38-.43c1.43-1.05,8.76-6.33,11.77-6.33a2.14,2.14,0,0,1,1.63.65,2.17,2.17,0,0,1,.52,1.69c-.19,2.41,2.86,7.68,4.87,10.5l4.72,4.65a1.32,1.32,0,0,1,.27,1.48l-5,10.53a1.32,1.32,0,0,1-.76.67,14.87,14.87,0,0,1-4.33.65m-16.18-14.77a15.3,15.3,0,0,1,9.86,8.36c1.1,2.53,3.22,3.82,6.32,3.82a12.9,12.9,0,0,0,3-.37l4.32-9.16-4.16-4.1-.14-.16c-.56-.79-5.32-7.55-5.41-11.78-2,.48-6.54,3.39-9.57,5.59Z"/><path class="cls-1" d="M119.5,95.48s-4.51,1.22-1.89,4.57,6.2-.12,6.2-.12,7.73,12.52,19.25,7,22.13-13.88,16.1-32.26c2.74-4.12-.54-6.63-.54-6.63s-2.22-1.42-3.11.27-27.46-7.9-27.46-7.9L118,70.23Z"/><path class="cls-2" d="M137.24,109.65c-7,0-11.87-5.42-13.71-7.87a6.14,6.14,0,0,1-3.21,1,4.64,4.64,0,0,1-3.73-2,3.94,3.94,0,0,1-.93-3.76,4.57,4.57,0,0,1,2.49-2.48l-1.48-24.3a1.3,1.3,0,0,1,.39-1l10.09-9.79a1.3,1.3,0,0,1,1.34-.29c8.81,3.18,22.92,7.89,26.19,8a2.68,2.68,0,0,1,2.2-1,5,5,0,0,1,2.44.77,5.89,5.89,0,0,1,1.25,7.9c6.09,19.39-5.84,28-16.95,33.25a14.8,14.8,0,0,1-6.38,1.52m-13.43-11H124a1.31,1.31,0,0,1,.94.6c0,.08,4.93,7.81,12.32,7.81a12.2,12.2,0,0,0,5.26-1.27c10.91-5.19,21.27-12.9,15.43-30.68a1.3,1.3,0,0,1,.15-1.12c2-3.08-.15-4.82-.24-4.89a2.64,2.64,0,0,0-1-.3c-.13,0-.15,0-.22.14a1.9,1.9,0,0,1-1.84.9c-4.11,0-22-6.33-26.45-7.91l-9.08,8.82,1.5,24.65a1.29,1.29,0,0,1-1,1.33c-.59.17-1.55.66-1.72,1.18s.26,1,.51,1.34a2,2,0,0,0,1.69,1,4.49,4.49,0,0,0,2.6-1.22,1.29,1.29,0,0,1,.89-.36"/><path class="cls-1" d="M142.62,194s-2.85,14-4.21,16.43S128,229.27,124.56,237.82s1.31,10.06,1.31,10.06l12.54-6.65a62.62,62.62,0,0,1,5.71-13.1c2.89-4.18,6.64-8.84,7.76-11.87S158.32,199,158.32,199l-1.72-14.32Z"/><path class="cls-2" d="M125.87,249.18a1.32,1.32,0,0,1-.39-.06,5.06,5.06,0,0,1-2.81-2.69c-1.06-2.26-.83-5.32.69-9.1,2.18-5.41,6.92-14.79,13.71-27.12l.21-.37c.92-1.67,3-10.74,4.07-16.06a1.35,1.35,0,0,1,.55-.82l14-9.4a1.29,1.29,0,0,1,2,.92l1.71,14.31a1.26,1.26,0,0,1-.07.61l-6.44,17.31c-.88,2.41-3.16,5.55-5.58,8.89-.79,1.09-1.59,2.2-2.33,3.27a61.58,61.58,0,0,0-5.52,12.73,1.31,1.31,0,0,1-.64.78L126.48,249a1.31,1.31,0,0,1-.61.15m17.92-54.37c-.59,2.82-2.94,13.91-4.24,16.28l-.21.37C132.6,223.71,127.9,233,125.76,238.3c-1.51,3.78-1.26,5.87-.78,7a2.76,2.76,0,0,0,.9,1.15l11.45-6.07A63.22,63.22,0,0,1,143,227.46c.8-1.15,1.61-2.27,2.42-3.38,2.2-3,4.48-6.19,5.24-8.27,1-2.76,5.57-15,6.33-17l-1.42-11.9Z"/><path class="cls-3" d="M143.14,66.44c.6,3.22,11.81,4.35,13.22,2.34s.06-3.63-9.93-13.32-23.19-1.72-28.21,5c-12.91,5.37-13.46,20-8.33,26.82-.87,8.64,7.68,9.19,7.68,9.19s4.68,1.16,4.4-2-3.18-8.28-5.21-8.63c3.89-2.72,4.15-6.14,2.69-7.87,4.6-.68,8-3.1,9.88-9.8,0,0,12.59,1,13.81-1.82"/><path class="cls-2" d="M119.38,98a9.56,9.56,0,0,1-2-.22,10.78,10.78,0,0,1-6.84-3.38,9.1,9.1,0,0,1-2-6.72c-2.87-4.12-3.77-10.2-2.29-15.66a19.06,19.06,0,0,1,11.11-12.59c3.67-4.76,10.88-9.77,18.38-9.77a16.19,16.19,0,0,1,11.56,4.86c9.68,9.39,12.28,11.91,10.09,15-.72,1-2.43,1.55-5.08,1.55-2.17,0-7.24-.52-9.45-2.62-1.33.73-3.82,1.28-8.64,1.28-1.62,0-3.06-.06-4-.11-1.72,5.24-4.52,8.2-8.89,9.35a5.51,5.51,0,0,1,.15,2.19,8,8,0,0,1-2.52,4.6,15.9,15.9,0,0,1,4.26,8.68,3.07,3.07,0,0,1-.74,2.44A4.05,4.05,0,0,1,119.38,98m16.39-45.75c-6.45,0-13.19,4.53-16.51,9a1.33,1.33,0,0,1-.54.43,16.28,16.28,0,0,0-9.94,11c-1.33,4.9-.49,10.32,2.15,13.83a1.23,1.23,0,0,1,.25.91,6.86,6.86,0,0,0,1.32,5.28,8.25,8.25,0,0,0,5.16,2.48l.22,0a7.65,7.65,0,0,0,1.5.17,2,2,0,0,0,1.23-.27.79.79,0,0,0,.07-.48c-.26-2.94-3-7.28-4.14-7.47a1.3,1.3,0,0,1-.52-2.34,6.25,6.25,0,0,0,2.93-4,2.5,2.5,0,0,0-.49-2,1.29,1.29,0,0,1-.23-1.29,1.31,1.31,0,0,1,1-.83c4.66-.68,7.21-3.25,8.82-8.86a1.3,1.3,0,0,1,1.35-.94s2.23.18,4.82.18c6.84,0,7.7-1.21,7.7-1.22a1.29,1.29,0,0,1,1.34-.78,1.32,1.32,0,0,1,1.13,1.06c.16.9,3.78,2.28,7.92,2.28,2,0,2.86-.36,3-.49.74-1-.82-2.89-9.8-11.61a13.71,13.71,0,0,0-9.76-4.13"/><path class="cls-4" d="M148,166.1s-4.29,19.27-7.71,23.69,25.07,10.13,25.07,10.13,6.26-15.69,7.69-10.13a27.43,27.43,0,0,1,0,11.56l25.16-4L198.14,168l-12-15.38Z"/><path class="cls-2" d="M173.07,202.64a1.28,1.28,0,0,1-.95-.41,1.31,1.31,0,0,1-.31-1.18,26.57,26.57,0,0,0,0-10.89c-1.06,1.15-3.37,5.52-5.25,10.24a1.29,1.29,0,0,1-1.46.79c-5.72-1.14-24.54-5.23-26.23-9.75a2.44,2.44,0,0,1,.39-2.43c2.66-3.45,6.3-17.91,7.47-23.19a1.29,1.29,0,0,1,.84-.94l38.16-13.47a1.28,1.28,0,0,1,1.45.42l12,15.39a1.3,1.3,0,0,1,.27.79l.09,29.35a1.3,1.3,0,0,1-1.09,1.28l-25.17,4h-.2m-.93-15.34c.6,0,1.7.29,2.19,2.17a27.43,27.43,0,0,1,.34,10.31l22.27-3.53-.09-27.79-11.12-14.3-36.61,12.92c-.82,3.59-4.58,19.35-7.79,23.5.46,1.76,11,5.33,23.25,7.86,3-7.39,5.58-11.14,7.56-11.14"/><path class="cls-5" d="M149.91,108.35s8.06,6.67,12.62,3S162,98.18,162,98.18s7.7-7.66,5.14-18.2c7.41,2.56,19.09,10,19.09,10s-8.08,15.19-3,24.6,12,24.46,14.91,53.46c-3.7,2.57-51.85-2.07-51.85-2.07s8.83-21,2-33.54l-5.69,5.87-13.68-10.91c1.57-4.62,8.83-13.19,8.83-13.19Z"/><path class="cls-2" d="M190.42,170.08c-14.47,0-44-2.82-44.25-2.85a1.29,1.29,0,0,1-1-.63,1.25,1.25,0,0,1-.08-1.16c.08-.2,7.78-18.82,2.82-30.8l-4.41,4.53a1.28,1.28,0,0,1-1.73.11l-13.68-10.9a1.32,1.32,0,0,1-.42-1.43c1.63-4.81,8.77-13.26,9.07-13.62a1.37,1.37,0,0,1,.43-.33l12.17-5.82a1.33,1.33,0,0,1,1.38.17c.05,0,4.64,3.79,8.45,3.79a3.85,3.85,0,0,0,2.53-.83c3-2.47.38-9.15-.9-11.52a1.3,1.3,0,0,1,.22-1.53c.08-.07,7.15-7.3,4.8-17a1.29,1.29,0,0,1,.38-1.26,1.32,1.32,0,0,1,1.3-.27c7.46,2.59,18.88,9.8,19.36,10.11a1.29,1.29,0,0,1,.45,1.7c-.08.14-7.68,14.69-2.95,23.37,5.52,10.13,12.23,25.41,15.06,53.95a1.29,1.29,0,0,1-.55,1.2c-.72.49-2.28,1-8.46,1m-42.3-5.27c6.5.6,30,2.68,42.3,2.68a35.3,35.3,0,0,0,6.33-.36c-2.84-27.42-9.31-42.17-14.66-52-4.64-8.51.62-21,2.4-24.74A131.83,131.83,0,0,0,168.77,82c1,8.22-3.53,14.36-5.26,16.38,1.22,2.56,4.34,10.27-.17,13.93a6.39,6.39,0,0,1-4.16,1.41c-3.81,0-7.87-2.7-9.44-3.86l-11.19,5.34c-1,1.24-6.3,7.67-8.09,11.74l12,9.57,4.87-5a1.31,1.31,0,0,1,1.11-.38,1.28,1.28,0,0,1,1,.66c6,11,.65,27.74-1.3,33"/><path class="cls-6" d="M124.56,237.82s-12,10.54-8.57,21.36,21.1,4.56,20.85-1.42,1.48-16.53,1.48-16.53-10.78,2.57-13.76-3.41"/><path class="cls-2" d="M124.8,266.38c-5,0-8.66-2.48-10-6.8-3.7-11.51,8.44-22.28,8.95-22.74a1.28,1.28,0,0,1,2,.4c1.34,2.68,4.84,3.25,7.54,3.25A22.91,22.91,0,0,0,138,240a1.29,1.29,0,0,1,1.18.32,1.31,1.31,0,0,1,.39,1.16c0,.1-1.71,10.48-1.47,16.26a5.78,5.78,0,0,1-1.86,4.19c-2.53,2.63-7.24,4.48-11.47,4.48m-.45-26.55c-2.77,2.82-9.7,10.93-7.13,19,1.33,4.13,4.86,5,7.58,5,3.52,0,7.56-1.55,9.61-3.69a3.45,3.45,0,0,0,1.13-2.28,96.09,96.09,0,0,1,1.23-15,24.39,24.39,0,0,1-3.51.26c-4.09,0-7.13-1.12-8.91-3.25"/><path class="cls-1" d="M178.19,200.54s2.95,16.84,2.57,20.7,2,23.13,2,23.13l8.07,6,3.43-7.49,1.4-25.91-1.4-19Z"/><path class="cls-2" d="M190.83,251.65a1.3,1.3,0,0,1-.77-.26l-8.07-6a1.27,1.27,0,0,1-.52-.88c-.1-.79-2.39-19.47-2-23.42.3-3-1.74-15.71-2.56-20.35a1.28,1.28,0,0,1,.22-1,1.26,1.26,0,0,1,.86-.53l16.06-2.55a1.27,1.27,0,0,1,1,.27,1.3,1.3,0,0,1,.49.92L197,216.85l-1.41,26.08a1.26,1.26,0,0,1-.12.47L192,250.89a1.3,1.3,0,0,1-.85.72,1.24,1.24,0,0,1-.33,0m-6.86-8,6.35,4.7,2.65-5.82,1.4-25.66-1.3-17.39-13.38,2.12c.69,4.07,2.69,16.37,2.36,19.75-.29,2.94,1.23,16.59,1.92,22.3"/><path class="cls-6" d="M182.76,244.37s-1,14.1.24,14.6c2.15.89,30.22,1.44,31.67-2.35,2.85-7.45-15.1-13.1-19.38-13.68s-12.53,1.43-12.53,1.43"/><path class="cls-2" d="M194.41,260.91h0c-3.75,0-10.48-.15-11.91-.75-.88-.36-2.08-.85-1-15.88a1.28,1.28,0,0,1,1-1.17,58.64,58.64,0,0,1,11.08-1.56,14.31,14.31,0,0,1,1.94.11c3.05.41,16.28,4.14,19.87,10.17a5.89,5.89,0,0,1,.54,5.25c-.37.95-1.47,3.83-21.47,3.83m-10.53-3.06a86.29,86.29,0,0,0,10.53.47c12.71,0,18.44-1.36,19.08-2.21a3.3,3.3,0,0,0-.38-3c-2.9-4.88-14.78-8.5-18-8.93a12.32,12.32,0,0,0-1.59-.09,51.92,51.92,0,0,0-9.54,1.28c-.33,5.11-.44,10.78-.11,12.43"/><path class="cls-1" d="M130.48,128.62s-10.08,7.44-6.3,13.11,19.36,10.9,19.36,10.9-4.74,2.45-1,7.88c0,0-2-.19-1.09,2.28s7.4,4.18,9.87-.95.57-11-3-12.92-12.53-9.87-12.53-9.87l3.1-3.76Z"/><path class="cls-2" d="M146.11,166.47h0c-2.64,0-5.17-1.39-5.87-3.21a3.17,3.17,0,0,1,.07-3,2.05,2.05,0,0,1,.34-.38,6.58,6.58,0,0,1-.68-4.61,5.73,5.73,0,0,1,1.07-2.14c-4.48-1.68-14.79-5.93-17.94-10.65-4.41-6.63,6.16-14.55,6.61-14.88a1.29,1.29,0,0,1,1.58,0l8.37,6.67a1.3,1.3,0,0,1,.48.87,1.27,1.27,0,0,1-.29,1l-2.3,2.8c2.36,2.07,8.58,7.42,11.34,8.87,4,2.11,6.48,8.64,3.6,14.62a6.87,6.87,0,0,1-6.38,4.07m-3.61-4.67a2.83,2.83,0,0,0,.15.53c.26.64,1.69,1.55,3.46,1.55a4.25,4.25,0,0,0,4-2.6c2.18-4.52.49-9.65-2.47-11.21-3.71-1.95-12.43-9.73-12.8-10.06a1.3,1.3,0,0,1-.13-1.79l2.26-2.74-6.52-5.2c-2.11,1.78-7.7,7-5.23,10.74,2.9,4.35,14.47,9,18.69,10.38a1.29,1.29,0,0,1,.18,2.38,3.62,3.62,0,0,0-1.65,2.12,4.94,4.94,0,0,0,1.13,3.88,1.29,1.29,0,0,1,0,1.39,1.27,1.27,0,0,1-1.16.63"/></svg>