<?xml version="1.0" encoding="utf-8"?>
<!-- Generator: Adobe Illustrator 16.0.0, SVG Export Plug-In . SVG Version: 6.00 Build 0)  -->
<!DOCTYPE svg PUBLIC "-//W3C//DTD SVG 1.1//EN" "http://www.w3.org/Graphics/SVG/1.1/DTD/svg11.dtd">
<svg version="1.1" id="Layer_1" xmlns="http://www.w3.org/2000/svg" xmlns:xlink="http://www.w3.org/1999/xlink" x="0px" y="0px"
	 width="500px" height="500px" viewBox="0 0 500 500" enable-background="new 0 0 500 500" xml:space="preserve">
<g id="Layer_1_copy_41">
	<g>
		<path fill="#FFEDE1" d="M279.572,169.63l135.327,23.766l-7.33,178.174c0,0-0.578,67.123-94.405,85.96
			c-18.109,3.375-31.001,5.114-40.012,5.974c-14.622,1.403-21.459,1.201-31.307,0.42c-8.244-0.665-21.705-2.361-43.351-6.394
			c-93.824-18.837-94.406-85.96-94.406-85.96l-8.107-178.98l136.107-22.96H279.572z"/>
		<path fill="#27140E" d="M255.025,468.07c-4.646,0-8.735-0.246-13.461-0.628c-10.632-0.854-25.339-3.015-43.713-6.438
			c-27.489-5.52-64.449-18.953-84.746-51.654c-12.254-19.752-12.543-37.021-12.55-37.752l-8.106-178.847
			c-0.08-1.785,1.185-3.349,2.948-3.644L231.5,166.146c0.194-0.032,0.394-0.051,0.589-0.051h47.483c0.205,0,0.408,0.021,0.611,0.055
			l135.325,23.764c1.744,0.307,2.991,1.857,2.923,3.627l-7.331,178.173c-0.003,0.615-0.29,17.884-12.55,37.638
			c-20.292,32.7-57.253,46.135-84.69,51.646c-15.862,2.954-29.433,4.977-40.371,6.025C265.957,467.746,260.26,468.07,255.025,468.07
			z M99.656,195.556l7.965,175.854c0.037,2.744,1.871,64.646,91.57,82.658c18.089,3.358,32.55,5.497,42.94,6.328
			c9.715,0.771,16.95,0.91,30.678-0.411c10.738-1.026,24.098-3.028,39.707-5.934c89.928-18.057,91.517-81.87,91.521-82.512
			l7.203-175.2l-131.974-23.175h-46.882L99.656,195.556z"/>
	</g>
	<g>
		<path fill="#AD6E29" d="M235.936,51.61L108.793,77.531l10.979,37.116c0,0-24.853,17.084-23.697,34.759l-0.038,46.544
			c0,0,40.588,54.567,147.327,53.346c3.612-0.043,26.699,0.303,33.578,0.072c97.285-3.281,137.902-54.009,137.902-54.009
			l-0.043-46.542c1.159-17.673-23.69-34.759-23.69-34.759l10.978-37.117L274.945,51.02L235.936,51.61z"/>
		<path fill="#27140E" d="M269.078,252.98c-5.289,0-11.777-0.058-16.979-0.102c-3.462-0.027-6.353-0.057-7.928-0.057l-0.773,0.006
			c-1.192,0.015-2.369,0.021-3.548,0.021c0,0-0.006,0-0.014,0C135.164,252.842,94.865,200.295,93.2,198.059
			c-0.456-0.611-0.702-1.354-0.702-2.114l0.044-46.542c-1.069-16.221,16.856-31.359,23.136-36.139L105.4,78.533
			c-0.278-0.95-0.148-1.972,0.357-2.821c0.513-0.849,1.358-1.447,2.327-1.644l127.143-25.922c0.216-0.043,0.435-0.067,0.654-0.071
			l39.01-0.59c0.264,0.012,0.514,0.02,0.762,0.072l127.144,25.921c0.974,0.201,1.814,0.795,2.324,1.646
			c0.509,0.847,0.643,1.874,0.361,2.824l-10.278,34.729c6.273,4.785,24.2,19.955,23.123,36.372l0.052,46.308
			c0,0.804-0.271,1.584-0.776,2.211c-1.697,2.125-42.752,52.031-140.537,55.326C275.273,252.959,272.412,252.98,269.078,252.98z
			 M244.173,245.756c1.59,0,4.498,0.021,7.984,0.057c8.366,0.065,20.114,0.167,24.666,0.021c49.31-1.669,83.457-15.9,103.42-27.551
			c18.261-10.658,28.315-21.15,31.063-24.232l-0.044-45.229c0.854-13.089-15.708-27.415-22.16-31.849
			c-1.26-0.867-1.817-2.449-1.386-3.917l9.893-33.419L274.616,54.562l-38.297,0.578L113.273,80.226l9.89,33.419
			c0.435,1.467-0.13,3.046-1.387,3.915c-0.232,0.159-23.183,16.168-22.174,31.617l-0.03,45.523
			c5.709,6.775,46.644,51.078,140.266,51.078c0.008,0,0.011,0,0.011,0c1.159,0,2.305,0,3.472-0.014L244.173,245.756z"/>
	</g>
	<g>
		<ellipse fill="#7D421F" cx="255.416" cy="74.193" rx="146.623" ry="39.668"/>
		<path fill="#27140E" d="M255.415,117.397c-39.464,0-76.617-4.169-104.601-11.742c-20.784-5.623-45.559-15.646-45.559-31.462
			c0-15.816,24.774-25.839,45.559-31.462c27.983-7.57,65.137-11.741,104.601-11.741c39.465,0,76.613,4.171,104.601,11.741
			c20.784,5.623,45.556,15.646,45.556,31.462c0,15.818-24.771,25.839-45.556,31.462C332.028,113.228,294.88,117.397,255.415,117.397
			z M255.415,38.059c-84.326,0-143.09,19.044-143.09,36.134c0,17.092,58.764,36.136,143.09,36.136
			c84.327,0,143.086-19.044,143.086-36.136C398.501,57.103,339.742,38.059,255.415,38.059z"/>
	</g>
	<g>
		<path fill="#DF4026" d="M113.749,78.708c0,0,14.291-10.408,30.639-9.228c16.348,1.178,58.03-8.591,58.03-8.591
			s16.644-6.335,31.372-9.87c14.726-3.535,43.298,2.357,55.968,9.133c12.665,6.775,39.175,5.742,47.867,3.241
			c8.688-2.503,21.946,3.665,25.039,8.1c3.041,4.365,17.529,5.155,22.827,4.566c5.304-0.589,13.696,0.146,7.808,7.069
			c-5.889,6.922-44.919,27.249-135.65,27.101C166.92,110.083,122.882,92.114,113.749,78.708z"/>
	</g>
	<g opacity="0.84">
		<path fill="#E0E091" d="M153.774,77.392c0.689,0.955,0.137,2.543-1.244,3.538c-1.376,0.995-3.059,1.028-3.749,0.071
			c-0.697-0.959-0.142-2.547,1.239-3.544C151.4,76.462,153.076,76.431,153.774,77.392z"/>
	</g>
	<g opacity="0.84">
		<path fill="#E0E091" d="M268.441,62.571c0.694,0.957,0.138,2.542-1.241,3.539c-1.378,0.997-3.056,1.028-3.751,0.07
			c-0.693-0.961-0.137-2.545,1.244-3.542C266.068,61.641,267.748,61.61,268.441,62.571z"/>
	</g>
	<g opacity="0.84">
		<path fill="#E0E091" d="M182.754,91.898c1.127-0.814,2.742-0.503,3.606,0.692c0.863,1.194,0.652,2.825-0.478,3.64
			c-1.127,0.815-2.743,0.506-3.608-0.688C181.414,94.348,181.624,92.717,182.754,91.898z"/>
	</g>
	<g opacity="0.84">
		<path fill="#E0E091" d="M275.379,88.773c1.127-0.814,2.742-0.504,3.605,0.69c0.861,1.198,0.652,2.826-0.478,3.642
			c-1.128,0.816-2.741,0.506-3.608-0.688C274.038,91.221,274.252,89.59,275.379,88.773z"/>
	</g>
	<g opacity="0.84">
		<path fill="#E0E091" d="M234.96,76.975c1.431-1.037,3.403-0.757,4.401,0.62c0.996,1.378,0.643,3.338-0.795,4.375
			c-1.436,1.04-3.404,0.763-4.399-0.618C233.169,79.973,233.521,78.015,234.96,76.975z"/>
	</g>
	<g opacity="0.84">
		<path fill="#E0E091" d="M299.298,95.949c1.431-1.035,3.403-0.759,4.4,0.621c0.997,1.378,0.643,3.337-0.794,4.372
			c-1.438,1.042-3.407,0.762-4.405-0.616C297.503,98.947,297.856,96.989,299.298,95.949z"/>
	</g>
	<g opacity="0.84">
		<path fill="#E0E091" d="M190.515,72.121c1.17-0.159,2.308,1.081,2.539,2.765c0.229,1.684-0.534,3.181-1.706,3.342
			c-1.176,0.161-2.311-1.077-2.542-2.764C188.575,73.781,189.34,72.284,190.515,72.121z"/>
	</g>
	<g opacity="0.84">
		<path fill="#E0E091" d="M321.169,71.075c0.636,0.995-0.015,2.545-1.448,3.459c-1.435,0.914-3.118,0.845-3.754-0.152
			c-0.636-1.002,0.019-2.549,1.452-3.462C318.85,70.006,320.529,70.075,321.169,71.075z"/>
	</g>
	<g opacity="0.67">
		<path fill="#F69177" d="M172.521,86.353c-1.057,0-2.078-0.303-2.964-0.877c-2.514-1.631-3.229-5.006-1.604-7.52l1.886-2.89
			c1.575-2.434,5.072-3.184,7.518-1.593c1.217,0.789,2.056,2.004,2.359,3.426c0.3,1.42,0.029,2.874-0.759,4.09l-1.879,2.894
			C176.068,85.43,174.365,86.353,172.521,86.353z M174.398,74.948c-1.048,0-2.016,0.524-2.587,1.404l-1.879,2.885
			c-0.924,1.425-0.513,3.338,0.907,4.261c1.388,0.901,3.371,0.473,4.264-0.901l1.874-2.89c0.447-0.688,0.604-1.512,0.43-2.318
			c-0.169-0.804-0.646-1.492-1.333-1.94C175.568,75.121,174.991,74.948,174.398,74.948z"/>
	</g>
	<g opacity="0.67">
		<path fill="#F69177" d="M253.682,104.188c-0.882,0-1.551-0.397-1.994-0.661c-0.086-0.052-0.162-0.103-0.23-0.134
			c-1.575-0.551-2.833-1.609-3.432-2.894c-0.435-0.926-0.488-1.921-0.159-2.803c0.524-1.382,1.879-1.382,2.323-1.382l0.588,0.008
			c0.55,0,0.752,0,0.961-0.702c0.596-2.016,2.298-2.917,3.726-2.917c1.81,0,3.164,1.352,3.22,3.215
			c0.057,2.232-1.259,6.073-2.984,7.492C255.064,103.927,254.387,104.188,253.682,104.188z M250.032,98.676
			c-0.064,0.312,0.025,0.616,0.127,0.828c0.328,0.704,1.108,1.329,2.094,1.674c0.187,0.062,0.399,0.181,0.64,0.325
			c0.262,0.155,0.559,0.329,0.789,0.329c0.055,0,0.225,0,0.521-0.243c1.077-0.882,2.167-4.043,2.12-5.602
			c-0.018-0.766-0.48-0.924-0.858-0.924c-0.546,0-1.214,0.379-1.464,1.225c-0.701,2.396-2.602,2.396-3.223,2.396l-0.588-0.009
			C250.123,98.672,250.068,98.674,250.032,98.676z"/>
	</g>
	<g opacity="0.67">
		<path fill="#F69177" d="M309.294,89.935c-0.799,0-1.578-0.19-2.265-0.555c-1.393-0.746-3.624-0.856-4.83-0.856
			c-0.592,0-0.997,0.025-1.061,0.031l0,0c0.06,0-0.616,0.152-1.389,0.152c-1.7,0-2.428-0.739-2.742-1.36
			c-0.627-1.236-0.104-2.917,1.646-5.293c2.314-3.141,4.725-4.734,7.163-4.734c1.74,0,4.277,0.844,6.475,4.868
			c1.6,2.937,1.194,4.805,0.574,5.856C312.158,89.227,310.826,89.935,309.294,89.935z M302.199,86.167
			c1.745,0,4.188,0.197,5.942,1.134c0.905,0.482,2.262,0.273,2.694-0.46c0.433-0.73,0.21-2.012-0.613-3.524
			c-0.907-1.66-2.406-3.641-4.404-3.641c-1.625,0-3.446,1.307-5.268,3.776c-1.597,2.171-1.438,2.841-1.438,2.847
			c-0.003-0.036,0.205,0.05,0.637,0.05c0.519,0,1.011-0.114,1.018-0.115C300.953,86.205,301.447,86.167,302.199,86.167z"/>
	</g>
	<g opacity="0.67">
		<path fill="#F69177" d="M220.914,75.833c-3.8,0-7.998-2.167-8.222-6.929c-0.167-3.544-0.079-5.529,0.889-6.542
			c0.4-0.419,0.925-0.643,1.518-0.643c1.214,0,2.688,0.927,5.454,3.416c4.577,4.123,4.83,6.338,4.936,7.284
			c0.003,0.007,0.003,0.011,0.008,0.013c0.107,0.202,0.158,0.431,0.137,0.666C225.496,74.758,223.643,75.833,220.914,75.833z
			 M215.099,64.076c-0.011,0.166-0.217,1.212-0.052,4.719c0.175,3.695,3.772,4.683,5.867,4.683c1.264,0,2.001-0.314,2.276-0.515
			c-0.021-0.101-0.032-0.195-0.043-0.277c-0.068-0.62-0.257-2.274-4.169-5.799C216.16,64.353,215.322,64.078,215.099,64.076z"/>
	</g>
	<g opacity="0.67">
		<g>
			<path fill="#F69177" d="M195.362,101.165c-0.601,0-1.112-0.455-1.171-1.064c-0.411-4.272,1.005-8.452,3.985-11.774
				c2.955-3.294,7.103-5.352,11.684-5.791c9.613-0.927,17.882,5.529,18.724,14.259c0.029,0.311-0.064,0.622-0.263,0.863
				c-0.203,0.242-0.484,0.393-0.796,0.423l-32.051,3.078C195.438,101.165,195.401,101.165,195.362,101.165z M211.667,84.805
				c-0.521,0-1.049,0.025-1.583,0.076c-3.988,0.385-7.594,2.166-10.152,5.02c-2.26,2.517-3.464,5.604-3.453,8.794l29.596-2.841
				C224.852,89.48,218.87,84.805,211.667,84.805z"/>
		</g>
		<g>
			<path fill="#F69177" d="M211.384,99.625c-0.375,0-0.733-0.179-0.952-0.488l-8.859-12.241c-0.383-0.525-0.264-1.263,0.264-1.646
				c0.524-0.379,1.261-0.264,1.646,0.266l7.889,10.897l7.803-11.192c0.372-0.532,1.106-0.665,1.641-0.292
				c0.535,0.373,0.665,1.107,0.292,1.642l-8.752,12.55c-0.222,0.312-0.579,0.5-0.958,0.504H211.384z"/>
		</g>
	</g>
	<g opacity="0.67">
		<g>
			<path fill="#F69177" d="M254.548,82.885L254.548,82.885c-4.631,0-8.938-1.928-11.826-5.291c-0.203-0.236-0.306-0.544-0.283-0.854
				c0.021-0.313,0.174-0.602,0.408-0.806l24.418-20.98c0.498-0.423,1.238-0.365,1.661,0.125c2.796,3.255,4.05,7.487,3.526,11.92
				c-0.518,4.396-2.725,8.466-6.212,11.462C262.927,81.313,258.771,82.885,254.548,82.885z M245.318,76.918
				c2.413,2.335,5.646,3.609,9.229,3.609c3.66,0,7.27-1.367,10.156-3.853c3.038-2.61,4.96-6.146,5.411-9.952
				c0.394-3.359-0.401-6.575-2.251-9.177L245.318,76.918z"/>
		</g>
		<g>
			<path fill="#F69177" d="M255.902,82.818c-0.646,0-1.174-0.524-1.178-1.172l-0.076-15.303c0-0.381,0.181-0.739,0.492-0.963
				c0.311-0.222,0.707-0.282,1.068-0.159l14.292,4.904c0.618,0.212,0.942,0.88,0.729,1.496c-0.209,0.616-0.877,0.941-1.49,0.732
				l-12.729-4.365l0.072,13.646c0,0.65-0.523,1.179-1.175,1.183C255.906,82.818,255.906,82.818,255.902,82.818z"/>
		</g>
	</g>
	<g opacity="0.67">
		<g>
			<path fill="#F69177" d="M341.667,91.943L341.667,91.943c-0.823,0-1.658-0.056-2.484-0.164c-4.553-0.604-8.624-2.811-11.461-6.212
				c-2.856-3.429-4.121-7.659-3.555-11.911c0.087-0.647,0.723-1.1,1.323-1.014l31.91,4.243c0.646,0.085,1.098,0.678,1.015,1.324
				C357.379,86.039,350.175,91.943,341.667,91.943z M326.403,75.142c-0.126,3.191,0.965,6.318,3.129,8.917
				c2.457,2.946,5.993,4.857,9.964,5.383c7.81,1.049,14.818-3.676,16.373-10.383L326.403,75.142z"/>
		</g>
		<g>
			<path fill="#F69177" d="M347.155,91.039c-0.459,0-0.9-0.271-1.088-0.721l-5.215-12.396l-10.136,9.138
				c-0.483,0.437-1.229,0.397-1.662-0.087c-0.439-0.483-0.397-1.228,0.083-1.662l11.365-10.251c0.281-0.256,0.664-0.365,1.045-0.274
				c0.371,0.081,0.683,0.339,0.83,0.691l5.859,13.929c0.253,0.598-0.024,1.288-0.628,1.542
				C347.462,91.01,347.306,91.039,347.155,91.039z"/>
		</g>
	</g>
	<g opacity="0.32">
		<path fill="#AE2924" d="M139.674,80.094c-3.093-5.213,1.618-8.354,10.899-5.901c9.281,2.455,20.473,16.371,29.75,14.125
			c9.28-2.243,51.4,5.66,52.138,5.243c0.736-0.416,26.122-1.153,7.463,5.623c-18.655,6.775-45.312,0.441-63.431,0
			C158.379,98.741,142.766,85.311,139.674,80.094z"/>
	</g>
	<g opacity="0.32">
		<path fill="#AE2924" d="M349.289,68.772c0,0-8.709-4.178-11.779,3.917c-3.069,8.092-5.969,14.743-19.09,17.975
			c-13.118,3.233-37.666-1.23-37.666-1.23s-12.766,10.943,36.528,13.104c49.291,2.16,39.865-25.802,39.865-25.802L349.289,68.772z"
			/>
	</g>
</g>
</svg>
