<?xml version="1.0" encoding="utf-8"?>
<!-- Generator: Adobe Illustrator 16.0.0, SVG Export Plug-In . SVG Version: 6.00 Build 0)  -->
<!DOCTYPE svg PUBLIC "-//W3C//DTD SVG 1.1//EN" "http://www.w3.org/Graphics/SVG/1.1/DTD/svg11.dtd">
<svg version="1.1" id="Layer_1" xmlns="http://www.w3.org/2000/svg" xmlns:xlink="http://www.w3.org/1999/xlink" x="0px" y="0px"
	 width="500px" height="500px" viewBox="0 0 500 500" enable-background="new 0 0 500 500" xml:space="preserve">
<g id="Layer_1_copy_8">
	<g>
		<path fill="#F7A6A9" d="M414.235,388.533v-47.969L320.626,92.5L147.449,33.993c0,0-50.902-8.775-59.086,39.785v348.108
			c0,0,1.164,40.943,59.086,41.533"/>
		<path fill="#27140E" d="M147.449,467.595c-0.014,0-0.03,0-0.043,0c-61.229-0.617-63.208-45.146-63.221-45.592V73.778
			c0-0.232,0.017-0.465,0.055-0.696c2.544-15.058,9.217-26.511,19.842-34.04c18.811-13.333,43.051-9.343,44.074-9.164
			c0.21,0.037,0.423,0.09,0.627,0.16l173.178,58.505c1.187,0.399,2.13,1.31,2.569,2.482l93.604,248.059
			c0.181,0.471,0.273,0.975,0.273,1.479v47.97c0,2.307-1.874,4.174-4.174,4.174c-2.309,0-4.178-1.867-4.178-4.174v-47.209
			l-92.64-245.501L146.454,38.066c-1.895-0.273-12.984-1.639-24.595,1.7c-16.309,4.686-26.171,16.247-29.323,34.366v347.754
			c0.052,1.371,1.988,36.822,54.955,37.359c2.304,0.024,4.152,1.912,4.134,4.217C151.6,465.759,149.735,467.595,147.449,467.595z"/>
	</g>
	<g>
		<g>
			<path fill="#F7A6A9" d="M147.449,463.419h252.867c7.654,0,13.919-6.262,13.919-13.91v-60.977"/>
		</g>
		<g>
			<path fill="#27140E" d="M400.316,467.595H147.449c-2.31,0-4.179-1.871-4.179-4.176c0-2.303,1.869-4.174,4.179-4.174h252.867
				c5.366,0,9.741-4.367,9.741-9.736v-60.977c0-2.306,1.869-4.173,4.178-4.173c2.3,0,4.174,1.867,4.174,4.173v60.977
				C418.409,459.478,410.288,467.595,400.316,467.595z"/>
		</g>
	</g>
	<g>
		<path fill="#FFFFFF" d="M139.845,383.516l274.391,0.58v59.092H142.123c0,0-29.037,0.588-29.601-33.935
			C113.657,385.273,139.845,383.516,139.845,383.516z"/>
		<path fill="#27140E" d="M142.033,447.367c-1.353,0-33.069-0.435-33.684-38.043c1.041-22.18,20.874-29.283,31.217-29.98
			c0.094,0,0.133,0.018,0.291,0l274.383,0.58c2.3,0.008,4.169,1.879,4.169,4.172v59.092c0,2.304-1.874,4.181-4.174,4.181
			L142.033,447.367L142.033,447.367z M140.002,387.689c-1.954,0.172-22.393,2.397-23.307,21.771
			c0.479,28.715,22.794,29.553,25.338,29.553v4.175l0.026-4.175h267.999V388.27L140.002,387.689z"/>
	</g>
	<g>
		<g>
			<path fill="#FAC1C0" d="M414.816,348.322c0,7.664-6.261,13.918-13.919,13.918H146.739c-7.65,0-13.913-6.254-13.913-13.918V46.74
				c0-7.652,6.263-13.915,13.913-13.915h254.159c7.658,0,13.919,6.262,13.919,13.915V348.322z"/>
		</g>
		<g>
			<path fill="#27140E" d="M400.897,366.423H146.739c-9.971,0-18.088-8.125-18.088-18.103V46.74c0-9.974,8.117-18.09,18.088-18.09
				h254.159c9.979,0,18.097,8.116,18.097,18.09v301.582C418.994,358.298,410.877,366.423,400.897,366.423z M146.739,37.001
				c-5.371,0-9.74,4.369-9.74,9.739v301.582c0,5.377,4.369,9.746,9.74,9.746h254.159c5.376,0,9.745-4.369,9.745-9.746V46.74
				c0-5.37-4.369-9.739-9.745-9.739H146.739z"/>
		</g>
	</g>
	<g>
		<g>
			<path fill="#C3C3C6" d="M390.827,297.355c0,7.656-6.261,13.92-13.915,13.92H170.725c-7.654,0-13.919-6.264-13.919-13.92V87.612
				c0-7.652,6.265-13.915,13.919-13.915h206.188c7.654,0,13.915,6.262,13.915,13.915L390.827,297.355L390.827,297.355z"/>
		</g>
		<g>
			<path fill="#27140E" d="M376.912,315.457H170.725c-9.977,0-18.092-8.125-18.092-18.102V87.612c0-9.974,8.115-18.09,18.092-18.09
				h206.188c9.977,0,18.092,8.116,18.092,18.09v209.744C395.004,307.332,386.889,315.457,376.912,315.457z M170.725,77.873
				c-5.368,0-9.741,4.369-9.741,9.739v209.744c0,5.379,4.373,9.746,9.741,9.746h206.188c5.371,0,9.742-4.367,9.742-9.746V87.612
				c0-5.37-4.371-9.739-9.742-9.739H170.725z"/>
		</g>
	</g>
	<g>
		<g>
			<path fill="#5ABA48" d="M289.682,191.195c0,0,0.086-0.256,0.248-0.691c0.887-2.326,4.055-9.819,8.647-11.306
				c5.467-1.769,14.487,7.958,17.099,11.997c2.612,4.039-28.013,14.96-28.013,14.96"/>
		</g>
		<g>
			<path fill="#5ABA48" d="M273.064,153.683c0,0,0.261-0.017,0.713-0.032c2.402-0.064,10.207-0.064,12.521,2.56
				c2.752,3.118-4.848,11.803-8.228,14.66c-3.371,2.856-19.756-14.346-19.756-14.346"/>
		</g>
		<g>
			<path fill="#5ABA48" d="M323.863,151.556c3.623-4.452,16.484-1.199,20.871,0.768c4.392,1.969-15.365,27.793-15.365,27.793
				S316.013,158.652,323.863,151.556z"/>
		</g>
		<g>
			<path fill="#5ABA48" d="M342.861,127.101c3.617-4.454,16.479-1.199,20.87,0.769c4.387,1.971-15.365,27.795-15.365,27.795
				S335.01,134.199,342.861,127.101z"/>
		</g>
		<g>
			<path fill="#5ABA48" d="M242.317,135.405c0,0,6.409-14.244,18.281-18.043c11.87-3.798,6.646,6.229,6.646,7.505
				c0,1.28-3.559,12.912-0.473,18.611C269.854,149.175,242.317,135.405,242.317,135.405z"/>
		</g>
	</g>
	<g>
		<path fill="#55803A" d="M266.523,215.094c0,0,5.304,9.854,0.795,23.061c-16.938-4.067-14.069,12.178-14.069,12.178
			s11.026,17.043,33.534,9.354c15.771-16.472,5.748-33.562,5.748-33.562"/>
	</g>
	<g>
		<path fill="#55803A" d="M307.799,221.77c0,0,7.51,8.299,6.302,22.206c-17.421,0.107-10.738,15.19-10.738,15.19
			s14.785,13.902,34.802,1.041c11.359-19.765-2.467-33.958-2.467-33.958"/>
	</g>
	<g>
		<path fill="#6D9F41" d="M367.195,113.328c-15.194,4.984-35.373,42.258-36.324,43.445c-0.951,1.188-12.345,37.75-33.954,35.614
			c-21.599-2.138-21.129-12.346-19.704-18.994c-7.117-4.75-11.632,9.496-11.632,9.496s7.838,5.459,3.09,15.434
			c-3.338,6.992-7.097,25.54,14.46,34.115c1.055,3.277,1.792,7.245,1.52,11.943c-17.404,0.631-10.287,15.512-10.287,15.512
			s15.199,13.449,34.828,0c4.958-9.269,4.587-17.17,2.765-23.017c3.899,0.017,8.116-0.128,12.673-0.457
			c0.294,2.069,0.479,4.258,0.342,6.695c-17.408,0.636-10.283,15.515-10.283,15.515s15.198,13.449,34.818,0
			c8.261-15.43,1.805-27.096-1.646-31.705c4.403-7.985-0.133-18.158-0.133-18.158s-4.982-30.625,10.686-56.504
			C374.083,126.384,382.387,108.341,367.195,113.328z"/>
	</g>
	<g>
		<path fill="#66A057" d="M273.812,142.928c0,0-1.188-22.316-33.95-17.093c-18.045,2.374-21.369,21.71-21.369,21.71
			s-18.229-5.727-31.546,9.428c-13.321,15.154,20.865,22.517,20.865,22.517l49.382-14.482l18.755-4.988L273.812,142.928z"/>
	</g>
	<g>
		<path fill="#D8E9B9" d="M242.949,159.785c0,0-9.733,14.007-19.944,1.662c-10.208-12.347-26.588-11.161-32.05-7.124
			c-5.457,4.037-27.301,12.82-12.345,52.943c10.207,21.843,30.628,1.901,32.284-1.66c1.664-3.563,4.515-5.936,7.6,0.71
			c3.086,6.648,7.601-0.237,9.499-4.274c1.899,1.425,8.546,0.476,8.546,0.476s15.43-3.324,22.316-14.245
			c12.349,1.662,27.306-9.26,24.455-22.317c-2.852-13.057-9.021-21.13-25.164-17.569
			C248.649,149.813,242.949,159.785,242.949,159.785z"/>
	</g>
	<g>
		<path fill="#FFFFFF" d="M252.161,144.824c0,4.592-3.717,8.311-8.308,8.311c-4.588,0-8.312-3.719-8.312-8.311
			c0-4.586,3.725-8.31,8.312-8.31C248.444,136.515,252.161,140.238,252.161,144.824z"/>
	</g>
	<g>
		<path fill="#241D1C" d="M250.31,146.728c0,2.752-2.228,4.984-4.983,4.984c-2.762,0-4.989-2.232-4.989-4.984
			c0-2.756,2.228-4.986,4.989-4.986C248.082,141.742,250.31,143.971,250.31,146.728z"/>
	</g>
	<g>
		<path fill="#FFFFFF" d="M234.168,144.824c0,4.592-3.722,8.311-8.312,8.311c-4.588,0-8.312-3.719-8.312-8.311
			c0-4.586,3.725-8.31,8.312-8.31C230.446,136.515,234.168,140.238,234.168,144.824z"/>
	</g>
	<g>
		<path fill="#241D1C" d="M232.315,146.728c0,2.752-2.235,4.984-4.987,4.984c-2.754,0-4.985-2.232-4.985-4.984
			c0-2.756,2.231-4.986,4.985-4.986C230.08,141.742,232.315,143.971,232.315,146.728z"/>
	</g>
	<g>
		<g>
			<path fill="#241D1C" d="M221.648,208.602c-0.504,0-0.999-0.081-1.485-0.241c-3.559-1.195-4.899-6.403-4.954-6.625l1.353-0.337
				c0.008,0.047,1.212,4.694,4.045,5.642c1.374,0.458,3.005-0.041,4.813-1.502c3.537-2.853,4.996-6.388,6.289-9.507
				c1.307-3.167,2.44-5.899,5.444-6.311c2.224-0.31,3.32,1.339,4.191,2.663c0.694,1.05,1.297,1.956,2.3,2.055
				c1.601,0.158,4.297-1.684,8.021-5.464c2.292-2.887,3.204-5.882,2.667-8.852c-1.079-5.97-7.638-9.968-7.706-10.006l0.717-1.195
				c0.291,0.177,7.169,4.372,8.359,10.954c0.612,3.379-0.397,6.75-3,10.021c-4.25,4.321-7.07,6.129-9.191,5.927
				c-1.669-0.161-2.552-1.496-3.329-2.673c-0.912-1.385-1.526-2.217-2.842-2.051c-2.213,0.305-3.104,2.467-4.348,5.464
				c-1.284,3.113-2.888,6.983-6.703,10.061C224.661,207.94,223.099,208.602,221.648,208.602z"/>
		</g>
		<g>
			<path fill="#241D1C" d="M243.346,173.606l-1.268-0.578c3.781-8.317,13.23-5.153,13.33-5.117l-0.452,1.314
				C254.613,169.11,246.602,166.448,243.346,173.606z"/>
		</g>
	</g>
</g>
</svg>
