<?xml version="1.0" encoding="utf-8"?>
<!-- Generator: Adobe Illustrator 16.0.0, SVG Export Plug-In . SVG Version: 6.00 Build 0)  -->
<!DOCTYPE svg PUBLIC "-//W3C//DTD SVG 1.1//EN" "http://www.w3.org/Graphics/SVG/1.1/DTD/svg11.dtd">
<svg version="1.1" id="Layer_1" xmlns="http://www.w3.org/2000/svg" xmlns:xlink="http://www.w3.org/1999/xlink" x="0px" y="0px"
	 width="500px" height="500px" viewBox="0 0 500 500" enable-background="new 0 0 500 500" xml:space="preserve">
<g id="Layer_1_copy_92">
	<g>
		<path fill="#D82457" d="M462.59,273.723c0,0-8.812,0.514-3.657,14.637c4.953,13.559-3.659,10.332-5.811,19.797
			c-2.153,9.471,1.771,5.107-2.153,14.205c-4.729,10.975,3.661,9.897,2.369,24.965c-1.292,15.062-3.661,6.885-5.38,15.062
			c-1.72,8.18,4.307,7.317-3.876,9.897c-8.176,2.584-80.915-3.441-85.218-3.871c-4.308-0.433-93.4-12.481-93.4-12.481L131.316,365.4
			l-13.056-26.25l-6.453-47.779l-18.078-66.713l89.524-14.633L367.04,261.67L462.59,273.723z"/>
		<path fill="#3C2517" d="M434.544,375.421c-22.155,0-72.841-4.217-75.929-4.528c-4.228-0.42-86.977-11.611-93.231-12.455
			l-133.892,9.446c-1.007,0.087-1.958-0.467-2.408-1.375l-13.053-26.254c-0.119-0.239-0.202-0.502-0.238-0.772l-6.434-47.615
			L91.324,225.31c-0.185-0.682-0.072-1.408,0.309-2.001c0.384-0.593,1-0.997,1.696-1.11l89.524-14.636
			c0.36-0.056,0.726-0.036,1.076,0.063l183.607,51.597l95.364,12.028c1.278,0.158,2.223,1.271,2.18,2.558
			c-0.039,1.285-1.061,2.33-2.345,2.401c-0.015,0.004-1.405,0.156-2.221,1.447c-1.155,1.839-0.888,5.338,0.76,9.846
			c3.324,9.113,1.198,12.146-2.167,15.435c-1.484,1.448-2.886,2.819-3.556,5.771c-0.867,3.803-0.639,4.957-0.46,5.883
			c0.41,2.104,0.364,3.654-1.836,8.757c-2.034,4.721-1.292,6.36,0.061,9.336c1.342,2.959,3.174,7.01,2.505,14.854
			c-0.739,8.604-1.807,10.68-4.064,12.317c-0.458,0.332-0.852,0.617-1.361,3.045c-0.569,2.711-0.137,4.025,0.209,5.082
			c0.295,0.892,0.694,2.113,0.017,3.441c-0.782,1.525-2.365,2.16-5.787,3.238C443.807,374.99,441.62,375.421,434.544,375.421z
			 M265.464,353.441c0.112,0,0.226,0.006,0.334,0.022c0.892,0.119,89.099,12.052,93.312,12.47
			c3.073,0.309,53.458,4.502,75.435,4.502c6.431,0,8.289-0.367,8.789-0.523c1.153-0.363,1.908-0.625,2.396-0.818
			c-0.426-1.352-0.965-3.627-0.21-7.219c0.839-3.984,1.994-5.098,3.312-6.051c0.507-0.369,1.362-0.988,2.024-8.713
			c0.56-6.547-0.843-9.641-2.08-12.367c-1.544-3.408-3.006-6.625-0.094-13.371c1.828-4.242,1.699-4.908,1.518-5.826
			c-0.317-1.641-0.523-3.482,0.49-7.941c0.998-4.385,3.272-6.61,4.937-8.233c2.223-2.17,3.445-3.367,0.967-10.158
			c-2.159-5.911-2.339-10.554-0.536-13.801l-89.328-11.267c-0.122-0.018-0.241-0.043-0.361-0.073l-183.256-51.5l-86.255,14.099
			l17.356,64.049c0.029,0.104,0.046,0.209,0.062,0.318l6.4,47.365l12.132,24.393l132.48-9.35
			C265.348,353.445,265.407,353.441,265.464,353.441z"/>
	</g>
	<g>
		<path fill="#F3C178" d="M76.94,225.088c0,0,2.156-9.899-17.644-11.191c-19.801-1.292-30.558-7.318-29.269-37.444
			c1.289-30.13,44.332-27.115,49.5-16.786c6.453-11.19,27.114-12.482,27.114-12.482s24.962-2.584,28.407,7.745
			c6.884-13.771,37.444-15.924,37.444-15.924s21.089-2.581,24.104,11.621c8.606,5.165,12.482-18.078,25.396-20.658
			c12.91-2.584,19.798,3.869,18.506,20.658c0.431-18.078,15.09-18.412,18.938-18.505c11.623-0.289,37.732,9.037,24.819,42.175
			c-7.317,5.599-8.896-0.427-8.896-0.427s42.183,71.015,45.193,71.015c3.015,0,141.174,24.107,141.174,24.107
			s4.307,7.314-3.012,18.936c-2.041,3.24-8.196,2.932-14.205,3.443c-20.229,1.725-140.743-18.078-157.102-20.659
			c-16.352-2.584-45.189-8.18-46.481-8.18c-1.292,0-55.522-6.456-93.4-16.352c-37.875-9.902-40.744,2.581-40.316,3.869
			c0.431,1.292,10.763,34.438,7.748,44.766c-3.011,10.33,6.745,57.246,20.947,60.258c14.205,3.014,69.869,0.287,78.906,0.287
			c9.041,0,52.941-1.291,67.147,0.856c14.201,2.154,36.582,2.013,56.813,3.734c20.228,1.723,39.312,7.887,58.249,8.317
			s36.73-3.512,42.754-3.08c6.028,0.431,8.609,0.644,9.041,7.959c0.431,7.318,4.732,15.066-25.394,14.205
			c-30.133-0.86-58.968-7.748-75.753-9.899c-16.786-2.149-19.801-1.722-40.028-1.289c-20.233,0.43-26.257-3.877-46.484-5.164
			c-20.23-1.293-19.369-3.877-38.739-0.86c-19.366,3.01-32.71,3.01-52.938,2.579c-20.231-0.432-57.248,9.041-64.563-18.936
			c-7.317-27.98-5.595-44.767-8.609-61.117c-3.012-16.358-6.026-19.801-9.468-30.995C83.4,250.484,76.94,235.42,76.94,225.088z"/>
		<path fill="#3C2517" d="M427.803,389.912c-1.395,0-2.872-0.023-4.449-0.066c-21.394-0.613-41.869-4.188-58.32-7.061
			c-6.849-1.199-12.765-2.229-17.677-2.857c-14.328-1.84-18.467-1.766-32.894-1.428l-6.765,0.154
			c-11.733,0.24-18.81-1.06-26.366-2.457c-5.755-1.064-11.704-2.16-20.331-2.711c-6.722-0.43-11.16-1.004-14.725-1.463
			c-3.595-0.461-6.191-0.799-9.472-0.799c-3.571,0-7.891,0.424-13.999,1.375c-15.023,2.338-26.042,2.815-37.961,2.815
			c-4.801,0-9.846-0.084-15.415-0.203c-3.929-0.086-8.537,0.22-13.47,0.541c-5.025,0.324-10.22,0.662-15.457,0.662
			c-13.841,0-32.836-2.279-37.991-22.004c-4.681-17.89-5.698-31.109-6.596-42.775c-0.497-6.491-0.971-12.627-2.054-18.521
			c-1.951-10.576-3.906-15.652-5.973-21.025c-1.101-2.854-2.236-5.805-3.429-9.684c-0.875-2.846-1.945-5.926-3.074-9.192
			c-3.254-9.392-6.938-20.039-6.938-28.125c0-0.179,0.021-0.354,0.06-0.527c0-0.017,0.242-1.577-1.106-3.283
			c-1.507-1.908-5.208-4.303-14.268-4.893c-21.04-1.372-32.956-8.365-31.598-40.042c0.835-19.493,17.786-26.406,32.041-26.406
			c8.345,0,15.802,2.226,19.801,5.678c8.385-9.634,26.283-10.869,27.108-10.919c0.017-0.003,2.846-0.292,6.755-0.292
			c7.817,0,17.246,1.133,21.877,5.97c10.031-11.804,36.004-13.771,37.199-13.854l0,0c-0.026,0,1.574-0.188,3.933-0.188
			c12.002,0,20.099,4.542,22.464,12.512c0.112,0.026,0.219,0.037,0.324,0.037c1.862,0,4.47-3.916,6.769-7.364
			c3.72-5.579,8.348-12.522,15.692-13.993c7.341-1.471,13.02-0.212,16.759,3.667c1.577,1.64,2.78,3.724,3.595,6.241
			c3.064-4.316,8.404-7.583,17.512-7.801l0.596-0.01c6.317,0,18.856,2.707,25.794,12.851c5.737,8.396,6.016,19.409,0.824,32.733
			c-0.165,0.424-0.443,0.798-0.809,1.073c-1.629,1.249-3.141,2.083-4.562,2.524c21.09,35.264,36.908,60.302,40.24,63.685
			c11.247,1.488,118.523,20.178,140.71,24.047c0.72,0.126,1.349,0.562,1.72,1.189c0.209,0.357,4.982,8.771-3.051,21.531
			c-2.355,3.744-7.5,4.053-12.946,4.381c-1.041,0.062-2.101,0.129-3.157,0.219c-0.896,0.076-1.983,0.115-3.239,0.115
			c-24.844,0-117.666-14.896-148.17-19.791l-6.291-1.007c-9.342-1.478-22.871-3.952-32.75-5.765
			c-6.507-1.188-12.648-2.314-13.463-2.385c-0.004,0-0.004,0-0.004,0c-1.342,0-55.728-6.457-93.907-16.433
			c-9.411-2.461-17.368-3.71-23.643-3.71c-10.26,0-13.225,3.359-13.562,4.757c1.195,3.777,10.832,35.005,7.658,45.875
			c-2.1,7.205,2.933,35.558,11.387,49.695c2.597,4.34,5.254,6.907,7.688,7.424c4.264,0.908,13.155,1.365,26.437,1.365
			c13.694,0,29.467-0.494,39.905-0.818c5.804-0.182,10.001-0.311,12.045-0.311c1.782,0,4.927-0.056,8.932-0.117
			c7.096-0.11,16.815-0.269,26.525-0.269c15.925,0,26.409,0.414,32.061,1.271c8.04,1.217,18.903,1.693,30.398,2.199
			c8.658,0.381,17.609,0.775,26.257,1.516c9.22,0.785,18.224,2.48,26.93,4.123c10.771,2.035,20.943,3.953,31.163,4.184
			c11.297,0.263,21.993-1.043,30.411-2.065c5.632-0.683,9.908-1.192,12.466-1.009c6.029,0.433,10.79,0.771,11.35,10.302
			c0.04,0.705,0.123,1.418,0.202,2.119c0.335,2.987,0.756,6.702-1.918,9.692C446.438,388.337,439.722,389.912,427.803,389.912z
			 M325.925,373.318c6.972,0,12.125,0.391,22.063,1.662c5.021,0.646,10.99,1.688,17.901,2.893
			c16.296,2.846,36.573,6.387,57.605,6.99c1.527,0.043,2.958,0.062,4.307,0.062c9.955,0,16.034-1.155,18.071-3.432
			c1.13-1.263,0.994-3.031,0.683-5.813c-0.09-0.791-0.179-1.591-0.226-2.386c-0.305-5.162-0.788-5.196-6.729-5.621
			c-2.191-0.146-6.442,0.371-11.508,0.981c-8.123,0.992-19.528,2.363-31.127,2.107c-10.628-0.244-21-2.199-31.979-4.273
			c-8.583-1.616-17.458-3.293-26.427-4.055c-8.544-0.729-17.44-1.119-26.052-1.498c-11.635-0.512-22.623-0.996-30.925-2.256
			c-5.327-0.805-15.861-1.215-31.315-1.215c-9.67,0-19.366,0.156-26.442,0.268c-4.042,0.066-7.216,0.117-9.015,0.117
			c-1.968,0-6.347,0.135-11.89,0.312c-10.468,0.327-26.29,0.821-40.061,0.821c-13.814,0-22.802-0.479-27.473-1.475
			c-3.88-0.822-7.557-4.098-10.93-9.742c-8.762-14.652-14.566-44.479-11.896-53.649c2.558-8.765-6.029-38.222-7.719-43.279
			c-0.444-1.338,0.053-3.293,1.269-4.975c1.961-2.721,6.529-5.967,17.141-5.967c6.701,0,15.079,1.302,24.905,3.873
			c37.321,9.751,90.398,16.136,92.851,16.275c0.003,0,0.003,0,0.003,0c0.6,0,2.613,0.352,14.155,2.461
			c9.853,1.809,23.347,4.28,32.631,5.744l6.306,1.008c87.064,13.973,137.808,20.664,150.196,19.631
			c1.097-0.096,2.196-0.158,3.279-0.225c3.764-0.229,8.03-0.484,9.023-2.061c4.938-7.839,4.053-13.266,3.359-15.393
			c-38.789-6.762-135.655-23.57-139.498-23.835c-0.01,0-0.02,0-0.033,0c-1.812,0-4.386-0.401-45.979-70.162
			c-1.059-1.169-1.436-2.455-1.506-2.716c-0.313-1.199,0.306-2.448,1.451-2.929c1.149-0.483,2.473-0.043,3.104,1.027l0.874,1.468
			c0.143,0.086,0.305,0.123,0.514,0.123c0.48,0,1.514-0.202,3.301-1.461c4.293-11.389,4.11-20.619-0.558-27.443
			c-5.016-7.334-14.752-10.677-21.676-10.677l-0.46,0.003c-10.181,0.249-15.537,4.87-16.398,14.125
			c-0.02,0.583-0.06,1.322-0.119,2.081c-0.103,1.348-1.285,2.389-2.61,2.299c-1.349-0.066-2.398-1.196-2.365-2.544
			c0.02-0.798,0.062-1.563,0.132-2.299c0.232-6.36-0.934-10.992-3.472-13.622c-2.527-2.624-6.599-3.356-12.188-2.239
			c-5.327,1.062-9.149,6.804-12.525,11.87c-3.426,5.142-6.384,9.584-10.916,9.584c-1.252,0-2.508-0.368-3.724-1.1
			c-0.596-0.354-1.014-0.944-1.156-1.62c-1.814-8.554-11.998-9.829-17.908-9.829c-2.054,0-3.442,0.166-3.459,0.166
			c-8.232,0.586-30.395,4.327-35.513,14.566c-0.454,0.904-1.408,1.438-2.408,1.372c-1.004-0.073-1.868-0.742-2.187-1.7
			c-1.342-4.021-8.428-6.331-19.442-6.331c-3.635,0-6.317,0.271-6.345,0.275c-0.294,0.02-19.509,1.358-25.217,11.25
			c-0.457,0.792-1.345,1.295-2.229,1.246c-0.918-0.03-1.746-0.557-2.157-1.378c-1.438-2.882-8.457-5.857-17.717-5.857
			c-12.632,0-26.376,5.681-27.059,21.636c-1.202,28.062,7.726,33.598,26.939,34.85c8.895,0.583,14.957,2.932,18.012,6.983
			c2.249,2.985,2.104,5.883,1.964,6.887c0.063,7.238,3.568,17.362,6.662,26.3c1.144,3.31,2.227,6.434,3.124,9.359
			c1.146,3.713,2.25,6.586,3.319,9.36c2.157,5.593,4.191,10.875,6.222,21.914c1.137,6.147,1.616,12.41,2.127,19.041
			c0.878,11.457,1.875,24.438,6.44,41.897c3.355,12.812,13.273,18.279,33.174,18.279c5.071,0,10.187-0.336,15.133-0.656
			c5.045-0.328,9.792-0.637,13.9-0.551c5.528,0.119,10.544,0.207,15.309,0.207c11.69,0,22.486-0.471,37.191-2.76
			c6.461-1.004,10.876-1.432,14.769-1.432c3.598,0,6.47,0.371,10.107,0.838c3.495,0.451,7.849,1.014,14.407,1.432
			c8.922,0.57,15.021,1.695,20.918,2.785c7.312,1.35,14.139,2.598,25.355,2.375l6.754-0.154
			C319.058,373.408,322.679,373.318,325.925,373.318z"/>
	</g>
	<g>
		<path fill="#D69D51" d="M302.05,187.786c0,0-11.192-24.386-62.555-16.355c-51.364,8.034-68.293,16.07-83.787,16.932
			c-15.493,0.858-32.422,4.876-41.32,9.756c-8.895,4.879-28.695,10.038-25.826,18.936s9.472,12.34,30.13,10.906
			c20.662-1.438,43.612,0.858,57.103,6.884c13.486,6.026,72.022,17.792,90.102,17.792c18.078,0,68.861,9.465,79.769,11.191
			c10.902,1.719,43.9,12.912,65.42,14.059c21.52,1.147,49.344,7.562,50.788-0.576c2.296-12.91-3.153-18.361-45.05-31.561
			c-41.895-13.202-87.803-40.171-92.968-42.47C318.69,200.987,302.05,187.786,302.05,187.786z"/>
		<path fill="#3C2517" d="M450.843,283.863c-0.013,0-0.025,0-0.039,0c-5.831,0-13.194-0.832-20.989-1.713
			c-6.32-0.713-12.856-1.455-18.862-1.771c-14.518-0.775-34.229-6.057-48.625-9.912c-7.245-1.945-13.5-3.617-17.055-4.178
			c-2.015-0.321-5.387-0.9-9.66-1.641c-17.912-3.09-55.181-9.521-69.718-9.521c-18.052,0-76.807-11.611-91.118-18.005
			c-9.928-4.436-26.373-7.086-43.99-7.086c-4.012,0-8.023,0.136-11.923,0.407c-3.106,0.219-5.84,0.321-8.345,0.321
			c-14.503,0-21.324-3.627-24.329-12.946c-2.858-8.875,9.359-14.099,19.182-18.293c2.951-1.262,5.741-2.455,7.817-3.594
			c9.207-5.049,26.632-9.183,42.384-10.061c6.609-0.364,13.427-2.07,23.756-4.651c13.082-3.273,31.001-7.749,59.782-12.251
			c7.014-1.096,13.688-1.653,19.844-1.653c32.908,0,43.242,15.55,45.061,18.85c4.869,3.843,16.969,13.112,20.854,14.841
			c1.051,0.464,3.286,1.673,7,3.677c15.511,8.384,51.832,28.016,85.705,38.686c41.174,12.973,49.477,19.078,46.753,34.377
			C463.243,283.839,454.278,283.863,450.843,283.863z M130.786,225.051c18.555,0,35.331,2.74,46.021,7.52
			c13.599,6.076,71.88,17.571,89.087,17.571c14.959,0,51.136,6.241,70.567,9.594c4.24,0.734,7.59,1.312,9.587,1.627
			c3.813,0.603,9.879,2.229,17.564,4.289c14.183,3.797,33.607,9.002,47.602,9.746c6.155,0.328,12.764,1.078,19.158,1.8
			c7.652,0.864,14.877,1.679,20.43,1.679l0,0c7.861,0,8.555-1.669,8.613-2c1.885-10.592-1.213-15.48-43.345-28.752
			c-34.323-10.812-70.939-30.603-86.572-39.054c-3.359-1.812-5.784-3.124-6.655-3.515c-5.305-2.355-20.616-14.447-22.342-15.815
			c-0.312-0.245-0.553-0.556-0.719-0.914c-0.314-0.659-8.246-16.527-40.83-16.527c-5.896,0-12.313,0.54-19.075,1.593
			c-28.56,4.469-46.352,8.915-59.341,12.165c-10.224,2.554-17.607,4.403-24.69,4.797c-15.087,0.835-31.644,4.721-40.261,9.448
			c-2.295,1.259-5.19,2.494-8.258,3.806c-7.537,3.223-17.859,7.636-16.393,12.181c2.273,7.053,7.309,10.598,27.583,9.186
			C122.534,225.194,126.662,225.051,130.786,225.051z"/>
	</g>
	<g>
		<path fill="#B51E4A" d="M142.958,265.593c0,0-4.721,4.621,1.533,14.248c6.251,9.623,10.846,13.089,12.632,8.084
			c1.789-5.004-8.04-25.028-10.976-19.639C143.22,273.68,145.893,260.207,142.958,265.593z"/>
	</g>
	<g>
		<path fill="#B51E4A" d="M218.85,329.294c0,0-7.649,4.783-2.551,6.258c5.099,1.478,13.722,7.732,14.312,1.105
			c0.586-6.63,3.134-6.996,2.349-10.865c-0.778-3.864-13.52,0.371-14.503,2.58C217.475,330.583,218.85,329.294,218.85,329.294z"/>
	</g>
	<g>
		<path fill="#B51E4A" d="M334.678,299.434c0,0-12.891,4.319-10.638,10.428c2.25,6.109,7.978,7.908,10.638,7.908
			s5.118-1.793,8.807-1.435c3.68,0.356,12.279,1.438,7.362-5.396c-4.908-6.838-6.135-5.758-10.026-6.114
			C336.934,304.468,338.364,298.357,334.678,299.434z"/>
	</g>
	<g>
		<path fill="#B51E4A" d="M422.851,337.857c0,0-18.938,10.621-28.122,10.045c-9.184-0.572-6.025,5.449,14.633,1.436
			c20.657-4.016,23.249-1.721,23.818-5.738c0.573-4.02,2.292-2.293-0.288-6.024C430.308,333.839,423.712,332.982,422.851,337.857z"
			/>
	</g>
	<g>
		<path fill="#91193B" d="M164.609,320.253c-7.191,0-13.711-5.812-14.016-6.082c-1.021-0.924-1.097-2.494-0.176-3.519
			c0.917-1.018,2.494-1.104,3.515-0.186c0.066,0.059,6.51,5.793,12.138,4.66c2.598-0.514,4.668-2.441,6.331-5.896
			c0.288-0.604,0.809-1.065,1.444-1.278c0.64-0.211,1.328-0.164,1.925,0.141c6.025,3.052,11.343,3.746,15.812,2.066
			c6.404-2.408,9.13-9.023,9.153-9.095c0.517-1.271,1.961-1.891,3.24-1.389c1.271,0.508,1.901,1.949,1.395,3.225
			c-0.136,0.354-3.498,8.683-11.973,11.898c-5.257,1.998-11.2,1.584-17.693-1.234c-2.242,3.599-5.154,5.765-8.686,6.459
			C166.21,320.182,165.405,320.253,164.609,320.253z"/>
	</g>
	<g>
		<path fill="#D82457" d="M348.531,347.902c0,0,17.793-3.441,13.49-16.355c17.501-5.164,9.753-19.797,9.753-19.797"/>
		<path fill="#91193B" d="M348.528,350.395c-1.166,0-2.21-0.826-2.441-2.017c-0.262-1.348,0.619-2.655,1.968-2.922
			c0.083-0.017,8.361-1.694,11.218-6.597c1.097-1.881,1.219-4.014,0.385-6.524c-0.216-0.644-0.159-1.342,0.151-1.94
			c0.314-0.601,0.857-1.047,1.505-1.236c4.703-1.387,7.729-3.604,8.983-6.586c1.893-4.492-0.699-9.605-0.726-9.656
			c-0.646-1.219-0.181-2.723,1.037-3.369c1.222-0.648,2.723-0.178,3.367,1.037c0.152,0.289,3.74,7.203,0.911,13.92
			c-1.623,3.867-4.948,6.775-9.895,8.67c0.506,2.969,0.029,5.725-1.425,8.213c-4.005,6.851-14.137,8.877-14.566,8.961
			C348.847,350.38,348.684,350.395,348.528,350.395z"/>
	</g>
	<g>
		<path fill="#D82457" d="M234.903,288.216c0,0,5.168,26.406,16.932,30.421"/>
		<path fill="#91193B" d="M251.835,321.128c-0.269,0-0.537-0.039-0.806-0.133c-12.76-4.354-18.015-29.451-18.57-32.3
			c-0.262-1.352,0.616-2.659,1.968-2.926c1.357-0.262,2.656,0.619,2.925,1.969c1.365,6.953,6.771,25.632,15.289,28.539
			c1.305,0.443,2,1.861,1.553,3.164C253.843,320.477,252.872,321.128,251.835,321.128z"/>
	</g>
</g>
</svg>
