<?xml version="1.0" encoding="utf-8"?>
<!-- Generator: Adobe Illustrator 16.0.0, SVG Export Plug-In . SVG Version: 6.00 Build 0)  -->
<!DOCTYPE svg PUBLIC "-//W3C//DTD SVG 1.1//EN" "http://www.w3.org/Graphics/SVG/1.1/DTD/svg11.dtd">
<svg version="1.1" id="Layer_1" xmlns="http://www.w3.org/2000/svg" xmlns:xlink="http://www.w3.org/1999/xlink" x="0px" y="0px"
	 width="500px" height="500px" viewBox="0 0 500 500" enable-background="new 0 0 500 500" xml:space="preserve">
<g id="Layer_1_copy_20">
	<path fill="#928BC3" stroke="#3C2415" stroke-width="3.6382" stroke-miterlimit="10" d="M368.978,326.208
		c0,0,63.02,40.155,84.849,28.972c21.829-11.185-1.802-38.923-18.776-49.632C411.232,290.525,369.862,313.954,368.978,326.208z"/>
	<path fill="#F6AB1E" stroke="#3C2415" stroke-width="2.7286" stroke-miterlimit="10" d="M250.061,290.199l-34.662,39.963
		c0,0-39.466-3.881-43.104-2.493c-3.639,1.386-5.56,4.435,28.584,9.147c0,0-30.261,14.688-22.427,18.015
		c7.838,3.328,42.824-18.291,42.824-18.291s24.462,0.276,33.639-0.278c9.185-0.555,3.694-6.375,0-6.375s-27.763,0.275-27.763,0.275
		l41.136-38.98L250.061,290.199z"/>
	<path fill="#F6AB1E" stroke="#3C2415" stroke-width="2.7286" stroke-miterlimit="10" d="M189.192,335.039
		c0,0-25.017-3.491-24.455,4.271c0.562,7.764,25.446,3.205,25.446,3.205l10.694-5.699L189.192,335.039z"/>
	<path fill="#F6AB1E" stroke="#3C2415" stroke-width="2.7286" stroke-miterlimit="10" d="M203.884,316.256l-34.666,39.963
		c0,0-39.467-3.879-43.104-2.494c-3.639,1.387-5.56,4.435,28.583,9.146c0,0-30.261,14.695-22.426,18.021
		c7.838,3.324,42.824-18.297,42.824-18.297s24.461,0.275,33.643-0.277c9.18-0.557,3.694-6.375,0-6.375
		c-3.695,0-27.764,0.277-27.764,0.277l41.136-38.981L203.884,316.256z"/>
	<path fill="#F6AB1E" stroke="#3C2415" stroke-width="2.7286" stroke-miterlimit="10" d="M143.012,361.098
		c0,0-25.01-3.492-24.455,4.268c0.561,7.764,25.442,3.208,25.442,3.208l10.697-5.702L143.012,361.098z"/>
	<path fill="#92A0D1" stroke="#3C2415" stroke-width="3.6382" stroke-miterlimit="10" d="M318.473,236.947
		c0,0-57.908-68.094-98.111-40.115c-40.204,27.976-1.642,84.654,40.537,104.532c54.645,25.743,111.284,28.562,151.27,21.632
		c39.988-6.924,16.564-26.413,16.564-26.413S349.761,234.553,318.473,236.947z"/>
	<path fill="#CDBCDC" stroke="#3C2415" stroke-width="3.6382" stroke-miterlimit="10" d="M195.634,143.34
		c0,0-40.162-78.229-94.529-69.048c-35.708,4.788-39.442,34.149-39.442,34.149l12.674,28.338c0,0,26.516,26.519,21.289,50.068
		c-5.226,23.547-22.021,84.217,39.559,116.147c61.572,31.957,178.372,19.557,222.783-2.795
		c20.899-11.975-77.247-53.084-77.247-53.084l-84.337-69.847L195.634,143.34z"/>
	<path fill="#F7941E" stroke="#3C2415" stroke-width="2.7286" stroke-miterlimit="10" d="M69.131,107.598l15.3,17.924
		c0,0-44.408,7.021-45.527,8.872C37.78,136.241,47.109,113.324,69.131,107.598z"/>
	<polygon fill="#F7941E" stroke="#3C2415" stroke-width="2.7286" stroke-linejoin="round" stroke-miterlimit="10" points="
		84.431,125.522 84.431,138.46 38.903,134.394 	"/>
	<path fill="#ABBCDB" stroke="#3C2415" stroke-width="3.6382" stroke-miterlimit="10" d="M270.645,194.195
		c0,0-49.263-74.589-92.547-51.67c-43.29,22.917-11.856,83.837,27.613,108.663c51.134,32.154,107.021,41.789,147.55,39.744
		c40.532-2.045,19.633-24.221,19.633-24.221S301.991,195.596,270.645,194.195z"/>
	
		<ellipse fill="#FFFFFF" stroke="#3C2415" stroke-width="2.7286" stroke-miterlimit="10" cx="110.349" cy="104.648" rx="10.197" ry="12.625"/>
	<path fill="#3C2415" d="M112.402,105.527c0,2.99-1.861,5.412-4.164,5.412c-2.295,0-4.161-2.422-4.161-5.412
		c0-2.988,1.866-5.409,4.161-5.409C110.541,100.118,112.402,102.54,112.402,105.527z"/>
</g>
</svg>
