<?xml version="1.0" encoding="utf-8"?>
<!-- Generator: Adobe Illustrator 16.0.0, SVG Export Plug-In . SVG Version: 6.00 Build 0)  -->
<!DOCTYPE svg PUBLIC "-//W3C//DTD SVG 1.1//EN" "http://www.w3.org/Graphics/SVG/1.1/DTD/svg11.dtd">
<svg version="1.1" id="Layer_1" xmlns="http://www.w3.org/2000/svg" xmlns:xlink="http://www.w3.org/1999/xlink" x="0px" y="0px"
	 width="500px" height="500px" viewBox="0 0 500 500" enable-background="new 0 0 500 500" xml:space="preserve">
<g id="Layer_1_copy_30">
	<g>
		<path fill="#33AF4A" d="M159.293,179.165c0,0-2.614-38.726-63.379-23.698c0-54.231,68.604-43.775,68.604-43.775
			s2.614-31.363-30.057-40.512c37.243-47.697,71.876-4.572,81.796-6.533c19.729-79.714,79.522-45.738,79.522-45.738
			s-11.693,30.71-5.354,36.59c55.733-20.908,94.285,28.094,65.538,24.176c-28.755-3.921-44.729,18.948-52.93,42.468
			c33.805-29.953,116.961,7.188,84.943,24.176c-47.048-8.494-66.236,32.845-66.236,32.845l-85.848,71.695L159.293,179.165z"/>
		<path fill="#27140E" d="M235.896,254.532c-0.906,0-1.808-0.33-2.513-0.99l-76.598-71.697c-0.682-0.636-1.093-1.504-1.155-2.432
			c-0.074-0.951-2.229-23.738-34.46-23.738c-7.166,0-15.367,1.13-24.375,3.356c-1.096,0.274-2.256,0.021-3.145-0.672
			c-0.888-0.697-1.406-1.761-1.406-2.892c0-30.667,21.608-48.256,59.291-48.256c3.754,0,6.954,0.186,9.299,0.384
			c-0.513-8.027-4.271-26.414-27.361-32.879c-1.179-0.33-2.116-1.227-2.499-2.39c-0.382-1.163-0.158-2.438,0.593-3.404
			c12.416-15.895,26.2-23.954,40.981-23.954c13.692,0,25.321,6.727,33.814,11.64c2.505,1.45,5.242,3.033,7.187,3.859
			c11.741-43.22,35.709-52.424,53.975-52.424c16.377,0,29.52,7.362,30.07,7.674c1.576,0.895,2.262,2.806,1.618,4.499
			c-4.721,12.407-7.636,25.711-6.979,30.749c8.623-2.886,17.324-4.348,25.907-4.348c29.25,0,51.261,17.404,51.264,28.689
			c0,3.994-2.73,8.263-10.396,8.265h-0.004c-1.091,0-2.28-0.088-3.533-0.258c-1.985-0.271-3.946-0.409-5.843-0.409
			c-19.459,0-31.488,14.472-38.776,29.784c7.679-3.635,16.9-5.521,27.26-5.521c27.562,0,56.904,13.208,60.383,27.177
			c0.866,3.481,0.874,10.089-8.794,15.221c-0.728,0.383-1.562,0.517-2.372,0.369c-4.014-0.725-7.978-1.092-11.78-1.092
			c-35.276,0-50.328,31.549-50.476,31.867c-0.229,0.492-0.562,0.927-0.978,1.272l-85.848,71.701
			C237.566,254.251,236.728,254.532,235.896,254.532z M162.758,177.382l73.274,68.58l82.758-69.115
			c2.736-5.379,19.636-35.348,56.757-35.348c3.821,0,7.772,0.332,11.766,0.983c4.906-2.957,4.271-5.494,4.058-6.366
			c-2.122-8.533-26.827-21.606-53.259-21.606c-9.545,0-22.957,1.8-32.643,10.382c-1.25,1.107-3.092,1.228-4.478,0.302
			c-1.386-0.93-1.974-2.679-1.422-4.256c7.219-20.699,21.761-45.374,50.059-45.374c2.225,0,4.523,0.162,6.832,0.476
			c0.93,0.126,1.782,0.191,2.544,0.191h0.004c0.312,0,3.054-0.026,3.054-0.923c0-5.146-16.062-21.348-43.922-21.348
			c-8.728,0-17.615,1.674-26.424,4.978c-1.305,0.489-2.769,0.2-3.786-0.746c-6.666-6.187-0.727-26.332,3.26-37.45
			c-4.364-1.961-13.396-5.356-23.666-5.356c-23.417,0-39.467,16.872-47.699,50.145c-0.344,1.382-1.456,2.444-2.853,2.72
			c-0.449,0.087-0.923,0.135-1.422,0.135c-3.491,0-7.421-2.274-12.864-5.422c-7.77-4.495-18.413-10.652-30.137-10.652
			c-11.32,0-21.778,5.601-31.854,17.091c23.61,9.291,28.407,31.481,27.48,42.595c-0.084,1.014-0.583,1.946-1.382,2.576
			c-0.8,0.63-1.825,0.9-2.825,0.749c-0.053-0.007-5.17-0.768-12.433-0.768c-18.521,0-49.024,4.848-51.754,36.26
			c7.755-1.648,14.928-2.481,21.389-2.481c20.279,0,30.568,8.199,35.625,15.077C160.945,169.053,162.322,174.729,162.758,177.382z"
			/>
	</g>
	<g>
		<path fill="#FBAF54" d="M377.849,310.328c0,88.943-59.823,161.051-133.615,161.051c-73.791,0-133.616-72.107-133.616-161.051
			c0-88.957,59.825-161.066,133.616-161.066C318.025,149.262,377.849,221.371,377.849,310.328z"/>
		<path fill="#27140E" d="M244.233,475.048c-75.7,0-137.286-73.889-137.286-164.721c0-90.837,61.586-164.737,137.286-164.737
			c75.699,0,137.286,73.9,137.286,164.737C381.52,401.16,319.933,475.048,244.233,475.048z M244.233,152.932
			c-71.654,0-129.945,70.605-129.945,157.396c0,86.781,58.291,157.38,129.945,157.38c71.65,0,129.945-70.599,129.945-157.38
			C374.179,223.537,315.884,152.932,244.233,152.932z"/>
	</g>
	<g>
		<path fill="#27140E" d="M290.428,465.16c-0.361,0-0.723-0.057-1.088-0.161c-30.271-9.363-77.278-35.155-129.327-104.938
			c-30.986-41.541-49.402-79.664-49.584-80.045c-0.878-1.824-0.106-4.021,1.719-4.897c1.828-0.878,4.021-0.104,4.898,1.726
			c0.716,1.496,72.872,149.745,174.468,181.139c1.934,0.597,3.018,2.652,2.42,4.59C293.445,464.149,291.993,465.16,290.428,465.16z"
			/>
	</g>
	<g>
		<path fill="#27140E" d="M346.045,418.256c-0.471,0-0.947-0.092-1.406-0.279c-113.643-47.248-205.667-206.843-206.583-208.449
			c-1.007-1.761-0.39-4.002,1.369-5.008c1.765-1.003,4.004-0.389,5.007,1.371c0.905,1.584,91.71,159.018,203.023,205.304
			c1.871,0.779,2.76,2.928,1.979,4.802C348.849,417.407,347.483,418.256,346.045,418.256z"/>
	</g>
	<g>
		<path fill="#27140E" d="M375.512,344.043c-0.414,0-0.839-0.07-1.253-0.225c-107.837-39.204-190.672-175.176-191.5-176.543
			c-1.042-1.738-0.484-3.993,1.253-5.039c1.741-1.044,3.994-0.482,5.04,1.251c0.81,1.346,82.339,135.121,187.717,173.433
			c1.905,0.693,2.889,2.8,2.196,4.702C378.421,343.118,377.01,344.043,375.512,344.043z"/>
	</g>
	<g>
		<path fill="#27140E" d="M115.376,356.648c-1.354,0-2.652-0.75-3.292-2.049c-0.898-1.817-0.15-4.021,1.667-4.912
			C221.052,296.783,291.993,161.45,292.695,160.09c0.933-1.802,3.146-2.505,4.946-1.574c1.802,0.932,2.508,3.147,1.572,4.948
			c-0.712,1.381-72.773,138.849-182.218,192.806C116.478,356.529,115.923,356.648,115.376,356.648z"/>
	</g>
	<g>
		<path fill="#27140E" d="M146.801,424.194c-1.292,0-2.544-0.682-3.215-1.889c-0.982-1.776-0.344-4.009,1.429-4.997
			c37.809-20.992,85.013-63.031,136.514-121.564c39.008-44.328,66.979-82.812,67.258-83.194c1.188-1.646,3.488-2.009,5.127-0.817
			c1.643,1.188,2.006,3.485,0.817,5.125c-0.28,0.386-28.457,39.148-67.692,83.736c-36.291,41.254-89.778,96.104-138.458,123.139
			C148.016,424.046,147.4,424.194,146.801,424.194z"/>
	</g>
	<g>
		<path fill="#27140E" d="M213.71,470.795c-1.431,0-2.793-0.842-3.383-2.246c-0.79-1.867,0.085-4.021,1.952-4.808
			c70.833-29.926,161.099-168.398,162.004-169.796c1.103-1.698,3.379-2.184,5.075-1.08c1.7,1.102,2.186,3.376,1.083,5.074
			c-0.225,0.351-23.209,35.729-54.799,74.395c-42.619,52.168-79.796,85.196-110.509,98.166
			C214.672,470.697,214.187,470.795,213.71,470.795z"/>
	</g>
	<g>
		<path fill="#27140E" d="M119.538,261.052c-1.526,0-2.955-0.963-3.474-2.491c-0.653-1.916,0.371-4.009,2.295-4.66
			c63.901-21.758,94.158-101.568,94.456-102.375c0.705-1.898,2.824-2.867,4.72-2.165c1.898,0.706,2.87,2.816,2.165,4.716
			c-0.315,0.854-7.928,21.183-23.88,44.604c-14.809,21.738-39.857,50.173-75.097,62.174
			C120.331,260.989,119.932,261.052,119.538,261.052z"/>
	</g>
	<g>
		<path fill="#27140E" d="M371.304,264.098c-0.55,0-1.11-0.127-1.642-0.387c-72.514-36.325-127.843-111.534-128.397-112.289
			c-1.193-1.639-0.832-3.934,0.807-5.128c1.636-1.195,3.931-0.835,5.131,0.805c0.536,0.74,54.858,74.535,125.748,110.049
			c1.812,0.904,2.547,3.109,1.639,4.92C373.946,263.361,372.648,264.098,371.304,264.098z"/>
	</g>
</g>
</svg>
