<?xml version="1.0" encoding="utf-8"?>
<!-- Generator: Adobe Illustrator 16.0.0, SVG Export Plug-In . SVG Version: 6.00 Build 0)  -->
<!DOCTYPE svg PUBLIC "-//W3C//DTD SVG 1.1//EN" "http://www.w3.org/Graphics/SVG/1.1/DTD/svg11.dtd">
<svg version="1.1" id="Layer_1" xmlns="http://www.w3.org/2000/svg" xmlns:xlink="http://www.w3.org/1999/xlink" x="0px" y="0px"
	 width="500px" height="500px" viewBox="0 0 500 500" enable-background="new 0 0 500 500" xml:space="preserve">
<g id="Layer_1_copy_68">
	<g>
		<g>
			<path fill="#F4BE78" d="M221.371,222.878c0,0,6.836,28.774-7.858,34.333c-7.984,3.021,19.126,50.812,19.126,50.812l28.786,2.025
				l27.345-26.697l-1.672-24.759c0,0-15.182-16.103-6.107-37.463c9.076-21.36-35.828-31.672-35.828-31.672L221.371,222.878z"/>
		</g>
		<g>
			<path fill="#3C2415" d="M261.425,313.363c-0.077,0-0.151,0-0.231-0.008l-28.786-2.025c-1.106-0.078-2.103-0.703-2.652-1.67
				c-22.355-39.414-21.393-49.962-20.562-52.256c0.568-1.569,1.686-2.736,3.15-3.293c9.789-3.705,7.512-23.25,5.806-30.469
				c-0.221-0.928-0.028-1.908,0.523-2.682l23.79-33.422c0.777-1.091,2.141-1.608,3.438-1.309
				c1.233,0.283,30.249,7.094,37.771,21.841c2.343,4.59,2.464,9.423,0.37,14.353c-8.083,19.031,4.914,33.304,5.473,33.902
				c0.52,0.559,0.838,1.282,0.889,2.043l1.673,24.76c0.067,0.97-0.296,1.918-0.989,2.595l-27.344,26.696
				C263.118,313.025,262.288,313.363,261.425,313.363z M234.647,304.843l25.527,1.796l25.186-24.589l-1.496-22.127
				c-3.275-3.964-14.565-19.751-5.924-40.088c1.312-3.089,1.254-5.95-0.172-8.75c-4.653-9.13-22.471-15.525-31.218-17.864
				l-21.632,30.389c1.248,6.327,4.912,30.228-9.588,36.44C214.57,264.986,224.367,286.494,234.647,304.843z"/>
		</g>
	</g>
	<g>
		<g>
			<path fill="#F4BE78" d="M173.244,176.13c6.757,30.934,38.425,54.344,76.473,54.344c37.077,0,65.673-20.324,73.49-50.08
				l0.536-4.627c-0.082,0.101,19.864,6.758,23.766-10.436c4.019-17.708-10.1-22.35-10.1-22.35l-3.434-5.071l-57.438-74.285
				L200.865,80.47l-43.631,68.488c0,0-12.719-1.178-8.137,17.631c4.421,18.163,24.071,9.278,23.994,9.177"/>
		</g>
		<g>
			<path fill="#3C2415" d="M249.717,233.785c-37.657,0-70.224-22.356-78.89-53.624c-3.362,0.949-7.663,1.43-10.881,0.976
				c-5.064-0.72-11.617-3.688-14.069-13.764c-1.949-8.013-1.27-14.007,2.028-17.827c2.205-2.558,5.184-3.561,7.469-3.836
				l42.698-67.021c0.472-0.74,1.22-1.263,2.074-1.454l75.67-16.847c1.248-0.277,2.557,0.193,3.342,1.208l57.439,74.287l2.965,4.372
				c5.939,2.514,14.656,10.473,11.18,25.809c-1.809,7.959-7.113,12.97-14.945,14.114c-2.077,0.299-5.906,0.292-9.2-0.252
				l-0.099,0.848c-0.018,0.155-0.047,0.31-0.084,0.461C318.024,213.159,287.918,233.785,249.717,233.785z M173.244,172.814
				c1.526,0,2.897,1.057,3.233,2.608c6.552,29.979,37.353,51.735,73.239,51.735c35.009,0,62.543-18.59,70.228-47.384l0.508-4.389
				c0.182-1.578,1.463-2.806,3.049-2.925c0.562-0.043,1.123,0.065,1.618,0.293c1.729,0.606,8.901,2.235,13.89-0.451
				c2.699-1.46,4.425-3.978,5.271-7.707c3.217-14.182-6.778-18.079-7.928-18.476c-0.679-0.232-1.284-0.69-1.688-1.282l-3.431-5.072
				l-56.028-72.451l-72.278,16.09l-42.895,67.333c-0.667,1.046-1.857,1.646-3.1,1.517c-0.061,0.004-2.527-0.141-4.049,1.667
				c-1.73,2.06-1.932,6.28-0.565,11.883c0.982,4.035,2.811,6.623,5.594,7.918c5.03,2.345,12.108-0.118,13.589-0.855l0.169,0.343
				c0.266-0.145,0.555-0.252,0.864-0.319C172.772,172.841,173.011,172.814,173.244,172.814z"/>
		</g>
	</g>
	<g>
		<path fill="#F58020" d="M287.79,257.251c26.644,11.287,82.219,28.541,83.876,61.403c0,0,4.455,30.796,0,30.863
			c-18.363,0.281-96.459-0.498-111.795-0.285c-21.798,0.295-111.608,0.425-137.711,0.068c-4.188-0.057,2.66-31.197,2.618-31.326
			c8.472-37.062,60.772-47.998,88.554-61.166c0,0,7.507,29.824,35.558,29.898C279.757,286.792,287.79,257.251,287.79,257.251z"/>
		<path fill="#3C2415" d="M359.146,352.896c-12.781,0-31.287-0.109-49.035-0.205c-22.088-0.127-43.019-0.24-50.195-0.144
			c-12.064,0.162-45.527,0.283-79.566,0.283c-26.907,0-48.132-0.078-58.229-0.218c-1.248-0.016-2.379-0.573-3.188-1.573
			c-1.265-1.576-3.389-4.207,2.384-32.623c0.091-0.449,0.154-0.763,0.182-0.912c0.014-0.09,0.03-0.18,0.05-0.269
			c7.059-30.872,42.023-44.317,70.125-55.118c7.417-2.853,14.426-5.543,20.241-8.304c0.896-0.428,1.937-0.428,2.835,0
			c0.898,0.42,1.558,1.226,1.801,2.188c0.281,1.108,7.271,27.326,32.351,27.396c27.903,0,35.39-25.922,35.696-27.021
			c0.252-0.922,0.891-1.689,1.75-2.104c0.857-0.418,1.854-0.447,2.735-0.074c3.437,1.453,7.351,3.01,11.569,4.686
			c28.93,11.479,72.625,28.816,74.314,59.449c1.857,12.887,3.354,28.996-0.004,32.93c-0.849,0.992-2.002,1.551-3.251,1.568
			C368.834,352.875,364.486,352.896,359.146,352.896z M268.105,345.882c9.99,0,25.691,0.091,42.041,0.183
			c23.859,0.135,49.105,0.274,59.916,0.162c0.772-4.021-0.158-16.578-1.68-27.093c-0.014-0.104-0.022-0.204-0.025-0.309
			c-1.338-26.478-42.748-42.906-70.148-53.783c-3.006-1.19-5.854-2.321-8.491-3.401c-3.432,8.299-14.45,28.383-40.696,28.383h-0.004
			c-24.096-0.064-34.376-20.166-37.648-28.674c-5.249,2.316-11.146,4.586-17.321,6.957c-26.626,10.237-59.766,22.975-66.038,50.405
			c-0.048,0.276-0.114,0.604-0.198,1.021c-3.523,17.354-3.834,23.891-3.686,26.281c10.702,0.12,30.949,0.19,56.223,0.19
			c34.014,0,67.438-0.121,79.475-0.285C261.715,345.895,264.549,345.882,268.105,345.882z"/>
	</g>
	<g>
		<circle fill="#25111A" cx="215.839" cy="154.941" r="8.838"/>
	</g>
	<g>
		<circle fill="#25111A" cx="281.584" cy="154.941" r="8.837"/>
	</g>
	<g>
		<path fill="#3C2415" d="M247.123,209.191c-23.003,0-30.521-19.496-30.59-19.694c-0.641-1.716,0.234-3.625,1.95-4.264
			c1.707-0.643,3.621,0.235,4.261,1.956c0.236,0.615,6.078,15.376,24.39,15.376c0.063,0,0.128,0,0.191,0l3.547-0.011
			c17.284-0.609,22.892-14.767,23.121-15.37c0.651-1.706,2.563-2.568,4.267-1.925c1.706,0.643,2.578,2.541,1.942,4.25
			c-0.29,0.771-7.286,18.903-29.205,19.67l-3.642,0.01C247.278,209.191,247.197,209.191,247.123,209.191z"/>
	</g>
	<g>
		<path fill="#4C230D" d="M339.573,86.914c-20.529-49.698-60.903-61.041-92.345-54.438l-0.111,0.145
			c-31.238-5.99-70.737,5.721-90.97,54.699c-6.809,16.482-14.656,57.708-0.026,63.381c0.022,0.068,0.043,0.132,0.058,0.169
			c0.274,0.05,0.551,0.07,0.83,0.118c0.124,0.034,0.239,0.087,0.368,0.117c0.375,0.084,0.793,0.122,1.238,0.108
			c40.427,5.256,77.14-46.819,77.14-46.819l-7.154,33.811c0,0,20.461-2.826,34.127-49.496c8.01,25.959,18.918,41.332,18.918,41.332
			s-2.979-16.948,0.996-26.152c3.07,2.1,25.734,33.222,42.281,41c5.425,4.15,10.485,6.486,13.42,5.809
			C354.673,146.932,346.569,103.852,339.573,86.914z"/>
		<path fill="#3C2415" d="M164.41,154.901c-2.006,0-4.021-0.125-5.994-0.37c-0.626-0.003-1.225-0.071-1.781-0.195
			c-0.074-0.02-0.234-0.063-0.373-0.107l-0.05-0.007c-0.213-0.027-0.428-0.054-0.644-0.094c-0.562-0.104-1.073-0.35-1.5-0.703
			c-3.006-1.434-5.335-4.049-6.934-7.785c-6.63-15.494,0.73-46.953,5.947-59.585c15.274-36.977,44.049-58.186,78.938-58.186
			c4.927,0,9.885,0.442,14.75,1.316c5.56-1.151,11.25-1.735,16.918-1.735c34.896,0,63.673,21.213,78.95,58.199
			c5.866,14.202,12.661,46.714,5.321,60.946c-2.026,3.924-5.093,6.461-8.871,7.333c-0.576,0.131-1.195,0.198-1.838,0.198l0,0
			c-4.6,0-10.134-3.426-14.064-6.391c-12.743-6.175-27.895-24.126-36.979-34.89c-0.643-0.762-1.291-1.531-1.911-2.26
			c-0.915,6.546-0.075,14.66,0.529,18.378c0.112,0.336,0.177,0.701,0.177,1.077c0,1.831-1.482,3.314-3.311,3.314
			c-0.018,0-0.03,0-0.045,0c-1.051,0-2.069-0.498-2.705-1.396c-0.4-0.562-8.685-12.369-16.15-32.703
			c-13.987,39.05-32.883,42.113-33.741,42.234c-1.072,0.147-2.144-0.236-2.876-1.027c-0.738-0.787-1.041-1.887-0.819-2.944
			l4.284-20.246C216.993,131.629,192.208,154.901,164.41,154.901z M158.23,147.894c0.07,0,0.56,0,0.811,0.034
			c1.762,0.229,3.568,0.343,5.369,0.343c35.892,0,68.309-45.33,68.632-45.788c0.909-1.286,2.595-1.756,4.035-1.126
			c1.444,0.628,2.242,2.184,1.92,3.722l-5.819,27.492c6.425-4.14,17.737-15.308,26.369-44.793c0.412-1.405,1.694-2.372,3.158-2.384
			c1.541-0.041,2.761,0.94,3.189,2.337c3.621,11.739,7.871,21.305,11.383,28.176c0.086-4.622,0.67-9.511,2.32-13.333
			c0.391-0.909,1.168-1.595,2.121-1.87c0.945-0.277,1.975-0.113,2.793,0.447c1.141,0.78,2.793,2.718,6.762,7.419
			c8.234,9.756,23.558,27.914,35.057,33.319c0.216,0.101,0.417,0.225,0.605,0.367c5.059,3.863,8.646,5.244,10.314,5.244
			c0.185,0,0.296-0.021,0.35-0.031c1.872-0.434,3.332-1.713,4.467-3.914c5.784-11.21,0.483-40.753-5.557-55.377
			c-14.203-34.382-40.744-54.102-72.822-54.102c-5.111,0-10.242,0.516-15.263,1.535c-0.612,0.274-1.292,0.389-1.936,0.262
			c-4.766-0.913-9.635-1.377-14.471-1.377c-32.072,0-58.611,19.714-72.812,54.087c-5.863,14.196-11.106,42.463-5.98,54.447
			c1.032,2.417,2.372,3.914,4.092,4.581c0.085,0.033,0.166,0.07,0.249,0.107l0,0c0.108,0.02,0.216,0.043,0.323,0.074
			c0.061,0.018,0.232,0.071,0.326,0.104C158.217,147.897,158.224,147.894,158.23,147.894z"/>
	</g>
	<g>
		<rect x="202.74" y="366.037" fill="#754C29" width="88.99" height="102.533"/>
		<path fill="#3C2415" d="M291.73,471.884h-88.99c-1.83,0-3.313-1.483-3.313-3.313V366.037c0-1.83,1.483-3.314,3.313-3.314h88.99
			c1.832,0,3.314,1.484,3.314,3.314V468.57C295.046,470.4,293.562,471.884,291.73,471.884z M206.052,465.257h82.367v-95.905h-82.367
			V465.257z"/>
	</g>
	<g>
		<g>
			<path fill="#F8B1B3" d="M338.236,362.136c0,25.662,0,53.283,0,80.707c0,8.213,1.146,21.205-2.523,24.211
				c-4.597,3.769-23.531,1.517-30.771,1.517c-11.834,0-21.352,0-31.776,0c0-28.42,0-56.828,0-85.256c-17.658,0-35.312,0-52.967,0
				c-1.179,27.418-0.169,57.008-0.505,85.256c-15.76,0-31.998,0-49.434,0c-4.95,0-11.823,0.344-14.122-2.017
				c-3.254-3.332-2.019-17.02-2.019-24.719c0-26.226,0-53.726,0-79.196c-7.394,6.725-21.871,2.934-22.194-8.576
				c-0.191-6.56,6.077-10.832,11.092-15.133c28.549-24.468,56.666-48.224,84.747-72.138c3.954-3.358,11.788-11.385,17.153-11.599
				c6.154-0.256,11.859,5.177,17.152,9.586c28.912,24.093,58.031,48.48,86.756,73.138c4.771,4.104,11.232,9.094,11.606,14.631
				C361.296,365.25,346.143,370.378,338.236,362.136z"/>
			<path fill="#3C2415" d="M322.961,472.55c-3.859,0-7.889-0.213-11.441-0.403c-2.655-0.138-4.953-0.263-6.578-0.263h-31.776
				c-1.83,0-3.313-1.483-3.313-3.313v-81.943h-46.466c-0.59,15.971-0.485,32.875-0.385,49.258
				c0.068,10.787,0.138,21.939,0.008,32.726c-0.021,1.813-1.499,3.274-3.315,3.274l-52.981,0.019
				c-6.168,0-10.482-0.506-12.946-3.037c-3.325-3.402-3.369-10.855-3.062-21.84c0.05-1.882,0.101-3.658,0.101-5.189v-73.494
				c-1.783,0.613-3.708,0.933-5.69,0.933c-7.79,0-16.225-5.297-16.503-15.117c-0.212-7.359,5.425-12.051,10.398-16.182
				c0.626-0.525,1.248-1.041,1.852-1.56c18.66-15.996,37.405-31.91,55.528-47.306c9.76-8.284,19.495-16.555,29.228-24.84
				c0.663-0.563,1.439-1.265,2.295-2.035c4.742-4.272,11.236-10.127,16.873-10.352c0.18-0.008,0.364-0.011,0.55-0.011
				c6.597,0,12.271,4.796,17.272,9.028l1.582,1.33c27.719,23.1,57.41,47.951,86.796,73.174l1.267,1.076
				c4.924,4.184,11.052,9.393,11.489,15.846c0.31,4.596-1.138,8.865-4.082,12.02c-3.028,3.24-7.4,5.104-11.998,5.104
				c-2.133,0-4.196-0.397-6.107-1.162v74.555c0,1.488,0.037,3.14,0.077,4.857c0.26,11.139,0.134,18.682-3.815,21.916
				C335.335,471.648,330.757,472.55,322.961,472.55z M276.479,465.257h28.463c1.801,0,4.18,0.129,6.932,0.273
				c3.471,0.186,7.404,0.393,11.089,0.393c8.259,0,10.241-1.096,10.651-1.432c1.74-1.58,1.504-11.75,1.391-16.64
				c-0.041-1.771-0.081-3.471-0.081-5.01v-80.707c0-1.354,0.824-2.568,2.08-3.072c1.251-0.506,2.689-0.199,3.624,0.781
				c1.845,1.918,4.341,2.979,7.033,2.979c2.768,0,5.376-1.095,7.155-3.003c1.702-1.819,2.501-4.258,2.312-7.045
				c-0.25-3.664-5.192-7.866-9.167-11.239l-1.294-1.104c-29.351-25.197-59.023-50.029-86.717-73.109l-1.623-1.358
				c-4.338-3.672-8.824-7.464-12.993-7.464l-0.279,0.007c-3.247,0.127-9.403,5.675-12.708,8.649
				c-0.908,0.82-1.729,1.562-2.434,2.158c-9.735,8.289-19.475,16.56-29.234,24.849c-18.118,15.385-36.857,31.297-55.504,47.282
				c-0.627,0.537-1.276,1.076-1.929,1.621c-4.181,3.478-8.131,6.763-8.01,10.9c0.161,5.697,5.087,8.68,9.874,8.68
				c2.628,0,5.034-0.875,6.777-2.461c0.973-0.885,2.369-1.111,3.573-0.58c1.199,0.531,1.974,1.719,1.974,3.031v79.197
				c0,1.588-0.051,3.426-0.107,5.373c-0.139,4.951-0.428,15.248,1.184,17.033c0.407,0.383,2.017,1.03,8.201,1.03l3.548-0.016h46.155
				c0.081-9.705,0.017-19.668-0.04-29.332c-0.108-17.551-0.219-35.696,0.511-52.756c0.078-1.772,1.538-3.17,3.312-3.17h52.967
				c1.832,0,3.314,1.483,3.314,3.313V465.257L276.479,465.257z"/>
		</g>
	</g>
	<g>
		<path fill="#F4BE78" d="M145.84,335.346c-8.211-0.802-32.082-4.871-31.928,37.915c1.267,33.384,33.007,29.896,33.007,29.896
			s28.943-5.558,10.292-22.773c13.455-13.797-4.934-23.643-4.934-23.643S173.237,342.199,145.84,335.346z"/>
		<path fill="#3C2415" d="M144.396,406.576L144.396,406.576c-7.633,0-32.627-2.396-33.795-33.186
			c-0.061-16.386,3.331-28.074,10.083-34.845c4.617-4.639,10.802-6.987,18.384-6.987c2.403,0,4.588,0.229,6.181,0.395l0.911,0.092
			c0.161,0.02,0.323,0.045,0.485,0.084c10.075,2.523,15.46,6.406,16.46,11.871c0.925,5.064-2.484,9.625-5.379,12.477
			c2.995,2.42,6.747,6.42,7.562,11.693c0.633,4.104-0.562,8.148-3.554,12.057c4.313,4.74,5.883,9.312,4.657,13.611
			c-2.629,9.209-17.197,12.258-18.851,12.574c-0.086,0.018-0.171,0.031-0.258,0.039
			C147.169,406.464,146.105,406.576,144.396,406.576z M139.067,338.186c-5.838,0-10.314,1.647-13.689,5.037
			c-5.462,5.479-8.204,15.582-8.15,30.03c0.911,24.082,19.304,26.692,27.168,26.692l0,0c1.04,0,1.764-0.049,2.047-0.069
			c4.028-0.817,12.404-3.74,13.575-7.862c0.844-2.966-2.282-6.636-5.056-9.193c-0.655-0.609-1.039-1.453-1.062-2.348
			c-0.023-0.896,0.313-1.763,0.938-2.404c3.022-3.092,4.335-6.084,3.901-8.885c-0.854-5.539-7.956-9.479-8.023-9.521
			c-1.02-0.543-1.68-1.578-1.747-2.732c-0.067-1.15,0.472-2.254,1.421-2.91c2.257-1.578,6.751-5.821,6.192-8.834
			c-0.455-2.463-4.574-4.85-11.321-6.569l-0.7-0.068C143.029,338.389,141.127,338.186,139.067,338.186z"/>
	</g>
	<g>
		<path fill="#F4BE78" d="M349.49,339.167c8.211-0.801,32.085-4.869,31.928,37.918c-1.267,33.381-33.007,29.896-33.007,29.896
			s-28.946-5.558-10.292-22.773c-13.458-13.795,4.933-23.643,4.933-23.643S322.093,346.023,349.49,339.167z"/>
		<path fill="#3C2415" d="M350.935,410.398c-1.707,0-2.771-0.111-2.885-0.123c-0.09-0.01-0.175-0.023-0.267-0.041
			c-1.651-0.316-16.216-3.365-18.841-12.572c-1.229-4.301,0.34-8.871,4.656-13.613c-2.995-3.908-4.189-7.953-3.558-12.055
			c0.815-5.273,4.567-9.275,7.562-11.695c-2.895-2.85-6.3-7.41-5.379-12.475c1-5.465,6.386-9.35,16.461-11.873
			c0.161-0.037,0.323-0.064,0.484-0.084l0.911-0.092c1.593-0.164,3.777-0.394,6.184-0.394c7.579,0,13.768,2.349,18.385,6.986
			c6.752,6.771,10.141,18.459,10.079,34.729C383.562,408.005,358.567,410.398,350.935,410.398z M348.888,403.699
			c0.272,0.023,0.997,0.07,2.047,0.07c7.864,0,26.255-2.611,27.173-26.81c0.05-14.332-2.692-24.437-8.15-29.916
			c-3.379-3.387-7.859-5.037-13.69-5.037c-2.061,0-3.968,0.203-5.495,0.361l-0.7,0.069c-6.744,1.72-10.866,4.105-11.321,6.57
			c-0.559,3.012,3.935,7.254,6.199,8.836c0.941,0.66,1.48,1.768,1.409,2.914c-0.069,1.148-0.724,2.182-1.739,2.727
			c-1.992,1.08-7.325,4.906-8.029,9.537c-0.424,2.797,0.894,5.781,3.904,8.867c0.625,0.644,0.962,1.508,0.938,2.404
			c-0.021,0.895-0.403,1.738-1.062,2.348c-2.774,2.56-5.899,6.232-5.057,9.199C336.497,399.986,344.862,402.891,348.888,403.699z"/>
	</g>
</g>
</svg>
