<?xml version="1.0" encoding="utf-8"?>
<!-- Generator: Adobe Illustrator 16.0.0, SVG Export Plug-In . SVG Version: 6.00 Build 0)  -->
<!DOCTYPE svg PUBLIC "-//W3C//DTD SVG 1.1//EN" "http://www.w3.org/Graphics/SVG/1.1/DTD/svg11.dtd">
<svg version="1.1" id="Layer_1" xmlns="http://www.w3.org/2000/svg" xmlns:xlink="http://www.w3.org/1999/xlink" x="0px" y="0px"
	 width="500px" height="500px" viewBox="0 0 500 500" enable-background="new 0 0 500 500" xml:space="preserve">
<g id="Layer_1_copy_72">
	<g>
		<path fill="#F9EDD5" d="M477.897,246.122c0,122.382-99.218,221.602-221.608,221.602c-122.391,0-221.611-99.22-221.611-221.602
			c0-122.392,99.22-221.608,221.611-221.608C378.68,24.514,477.897,123.73,477.897,246.122z"/>
	</g>
	<g>
		<path fill="#D1EBE7" d="M478.132,247.958c0,122.382-99.22,221.602-221.612,221.602c-122.388,0-221.607-99.22-221.607-221.602"/>
	</g>
	<g>
		<rect x="281.471" y="91.109" fill="#95D6D8" width="95.525" height="92.588"/>
		<path fill="#3C2517" d="M378.076,184.785h-97.694v-94.76h97.694V184.785z M282.559,182.609h93.348V92.197h-93.348V182.609z"/>
	</g>
	<g>
		<rect x="325.898" y="88.167" fill="#DDD2B5" width="5.586" height="98.571"/>
		<path fill="#3C2517" d="M331.484,187.553h-5.586c-0.45,0-0.816-0.367-0.816-0.816v-98.57c0-0.449,0.366-0.812,0.816-0.812h5.586
			c0.448,0,0.815,0.363,0.815,0.812v98.571C332.301,187.187,331.934,187.553,331.484,187.553z M326.711,185.925h3.962V88.979h-3.962
			V185.925z"/>
	</g>
	<g>
		<rect x="279.404" y="134.657" fill="#DDD2B5" width="98.573" height="5.59"/>
		<path fill="#3C2517" d="M377.979,141.059h-98.574c-0.445,0-0.812-0.367-0.812-0.812v-5.59c0-0.45,0.366-0.812,0.812-0.812h98.574
			c0.449,0,0.812,0.363,0.812,0.812v5.59C378.791,140.692,378.428,141.059,377.979,141.059z M280.221,139.431h96.942v-3.958h-96.942
			V139.431z"/>
	</g>
	<g>
		<path fill="#FACF52" d="M278.006,88.167v98.571h101.37V88.167H278.006z M372.581,180.135h-87.78V94.772h87.78V180.135z"/>
		<path fill="#3C2517" d="M379.376,187.553h-101.37c-0.449,0-0.814-0.367-0.814-0.816v-98.57c0-0.449,0.365-0.812,0.814-0.812
			h101.37c0.449,0,0.815,0.363,0.815,0.812v98.571C380.191,187.187,379.825,187.553,379.376,187.553z M278.818,185.925h99.744
			V88.979h-99.744V185.925z M372.581,180.947h-87.78c-0.447,0-0.814-0.362-0.814-0.812V94.772c0-0.45,0.367-0.816,0.814-0.816h87.78
			c0.45,0,0.815,0.366,0.815,0.816v85.363C373.396,180.585,373.031,180.947,372.581,180.947z M285.617,179.319h86.15V95.588h-86.15
			V179.319z"/>
	</g>
	<g>
		<path fill="#2075BC" d="M270.135,156.488c0,1.661,1.205,3.013,2.693,3.013h19.41c1.484,0,2.688-1.352,2.688-3.013l0,0
			c0-1.673-1.204-3.022-2.688-3.022h-19.41C271.34,153.466,270.135,154.815,270.135,156.488L270.135,156.488z"/>
		<path fill="#3C2517" d="M292.238,160.314h-19.41c-1.938,0-3.508-1.719-3.508-3.826c0-2.115,1.57-3.838,3.508-3.838h19.41
			c1.93,0,3.505,1.723,3.505,3.838C295.743,158.595,294.168,160.314,292.238,160.314z M272.828,154.282
			c-1.038,0-1.881,0.986-1.881,2.206c0,1.208,0.843,2.198,1.881,2.198h19.41c1.035,0,1.877-0.989,1.877-2.198
			c0-1.22-0.842-2.206-1.877-2.206H272.828z"/>
	</g>
	<g>
		<path fill="#2075BC" d="M383.591,156.322c0,1.661-1.208,3.01-2.7,3.01h-19.405c-1.488,0-2.692-1.349-2.692-3.01l0,0
			c0-1.666,1.204-3.014,2.692-3.014h19.405C382.383,153.308,383.591,154.656,383.591,156.322L383.591,156.322z"/>
		<path fill="#3C2517" d="M380.891,160.144h-19.405c-1.935,0-3.505-1.715-3.505-3.822c0-2.108,1.57-3.823,3.505-3.823h19.405
			c1.938,0,3.514,1.715,3.514,3.823C384.403,158.429,382.828,160.144,380.891,160.144z M361.484,154.123
			c-1.035,0-1.882,0.99-1.882,2.199s0.847,2.198,1.882,2.198h19.405c1.042,0,1.886-0.99,1.886-2.198s-0.844-2.199-1.886-2.199
			H361.484z"/>
	</g>
	<g>
		<g>
			<path fill="#01A79D" d="M272.292,89.968v63.676h20.219c0,0,11.047-9.356,10.238-65.485h-30.457V89.968z"/>
			<path fill="#3C2517" d="M292.511,154.456h-20.219c-0.453,0-0.819-0.362-0.819-0.812V88.159c0-0.45,0.366-0.812,0.819-0.812
				h30.457c0.445,0,0.809,0.355,0.816,0.801c0.804,55.868-10.069,65.726-10.53,66.119
				C292.889,154.392,292.699,154.456,292.511,154.456z M273.104,152.832h19.059c1.424-1.617,10.405-13.85,9.786-63.856h-28.845
				V152.832L273.104,152.832z"/>
		</g>
		<g>
			<path fill="#01A79D" d="M272.828,159.501l-0.536,37.717c0,0,4.31,1.511,6.467-1.809c2.156-3.32,7.16-0.612,7.16-0.612
				s4.688,3.713,7.11,0.396c2.427-3.324,4.646-0.809,5.138,0c1.443,2.364,5.475,2.364,4.623-2.198
				c-0.932-5.054-12.173-33.494-12.173-33.494H272.828L272.828,159.501z"/>
			<path fill="#3C2517" d="M274.527,198.374c-1.379,0-2.463-0.37-2.508-0.386c-0.328-0.116-0.547-0.43-0.547-0.782l0.543-37.716
				c0.004-0.446,0.366-0.805,0.812-0.805h17.789c0.333,0,0.632,0.204,0.756,0.514c0.461,1.167,11.286,28.576,12.223,33.645
				c0.37,2.017-0.14,3.15-0.639,3.747c-0.525,0.635-1.299,0.982-2.164,0.982l0,0c-1.295,0-2.599-0.768-3.324-1.957
				c-0.199-0.333-0.978-1.284-1.873-1.284c-0.619,0-1.262,0.454-1.91,1.341c-0.815,1.122-1.976,1.711-3.34,1.711
				c-2.414,0-4.773-1.828-4.93-1.949l0,0c-0.025,0-1.723-0.865-3.395-0.865c-1.174,0-2.018,0.42-2.58,1.281
				C278.373,197.505,276.67,198.374,274.527,198.374z M273.111,196.595c0.354,0.076,0.856,0.151,1.416,0.151
				c1.586,0,2.785-0.6,3.552-1.779c0.86-1.326,2.22-2.024,3.942-2.024c2.156,0,4.199,1.091,4.287,1.137
				c0.139,0.095,2.166,1.681,4.036,1.681c0.851,0,1.511-0.348,2.024-1.05c0.972-1.33,2.059-2.002,3.226-2.002
				c1.591,0,2.799,1.296,3.271,2.062c0.423,0.702,1.2,1.178,1.926,1.178l0,0c0.265,0,0.643-0.068,0.914-0.4
				c0.385-0.461,0.486-1.318,0.287-2.406c-0.843-4.547-10.41-28.958-11.933-32.829h-16.43L273.111,196.595z"/>
		</g>
		<g>
			<path fill="#01A79D" d="M381.435,90.052v63.524h-20.218c0,0-11.053-9.333-10.243-65.33h30.461V90.052z"/>
			<path fill="#3C2517" d="M381.435,154.392h-20.218c-0.192,0-0.374-0.068-0.521-0.193c-0.465-0.393-11.339-10.228-10.538-65.96
				c0.007-0.445,0.374-0.808,0.815-0.808h30.461c0.445,0,0.815,0.366,0.815,0.816v65.33
				C382.25,154.025,381.88,154.392,381.435,154.392z M361.552,152.764h19.07V89.062h-28.845
				C351.151,139.28,360.129,151.192,361.552,152.764z"/>
		</g>
		<g>
			<path fill="#01A79D" d="M380.891,159.332l0.544,37.63c0,0-4.316,1.502-6.475-1.81c-2.151-3.309-6.27,0.435-6.27,0.435
				s-4.39,2.931-6.119-0.982c-1.669-3.758-5.631-1.382-6.865,0.831c-1.039,1.866-5.085,2.429-4.773-2.689
				c0.31-5.118,12.168-33.415,12.168-33.415H380.891z"/>
			<path fill="#3C2517" d="M379.199,198.118c-2.146,0-3.848-0.873-4.919-2.523c-0.441-0.676-0.979-0.99-1.673-0.99
				c-1.33,0-2.883,1.145-3.37,1.586c-0.165,0.121-1.896,1.261-3.762,1.261c-1.155,0-2.727-0.438-3.651-2.523
				c-0.442-0.997-1.059-1.48-1.877-1.48c-1.312,0-2.887,1.231-3.532,2.387c-0.97,1.752-3.836,2.312-5.234,0.823
				c-0.814-0.861-1.171-2.194-1.061-3.966c0.312-5.189,11.742-32.52,12.231-33.675c0.129-0.302,0.42-0.498,0.748-0.498h17.79
				c0.445,0,0.81,0.354,0.815,0.801l0.544,37.625c0.004,0.355-0.216,0.665-0.548,0.782
				C381.657,197.747,380.577,198.118,379.199,198.118z M372.607,192.973c1.242,0,2.297,0.601,3.035,1.738
				c0.771,1.178,1.966,1.775,3.557,1.775c0.554,0,1.057-0.076,1.412-0.151l-0.52-36.19h-16.448
				c-4.132,9.896-11.667,28.78-11.9,32.647c-0.099,1.624,0.284,2.395,0.62,2.75c0.684,0.729,2.156,0.355,2.633-0.498
				c0.872-1.564,2.904-3.226,4.951-3.226c1.469,0,2.663,0.869,3.364,2.455c0.474,1.058,1.159,1.553,2.164,1.553
				c1.363,0,2.75-0.907,2.766-0.918C368.234,194.903,370.38,192.973,372.607,192.973z"/>
		</g>
	</g>
	<g>
		<path fill="#F37E7B" stroke="#3C2517" stroke-width="1.6286" stroke-linejoin="round" stroke-miterlimit="10" d="M325.898,130.994
			"/>
	</g>
	<g>
		<polygon fill="#DDD2B5" points="330.646,144.054 326.677,143.979 326.677,130.298 330.646,130.374 		"/>
	</g>
	<g>
		<g>
			<path fill="#8A181A" d="M395.39,234.844c0,0-1.419-1.972-5.352-1.451c-3.937,0.529-8.067,0.68-8.067,0.68
				s-3.215-0.087-4.789,3.979l-5.771,11.739c0,0-1.308,1.64-0.913,7.015c0.396,5.379,0.721,14.162,0.721,14.162l28.588-1.311
				l2.561-21.245L395.39,234.844z"/>
			<path fill="#3C2517" d="M371.218,271.791c-0.204,0-0.4-0.08-0.553-0.221c-0.158-0.146-0.256-0.351-0.26-0.569
				c-0.004-0.087-0.332-8.83-0.722-14.133c-0.407-5.541,0.938-7.392,1.092-7.588l5.677-11.587c1.666-4.306,5.118-4.431,5.504-4.431
				c0.021-0.003,4.123-0.158,7.973-0.672c4.426-0.592,6.059,1.692,6.122,1.779l7.04,13.672c0.072,0.144,0.104,0.31,0.084,0.472
				l-2.559,21.25c-0.044,0.389-0.372,0.693-0.773,0.717l-28.588,1.312C371.244,271.791,371.229,271.791,371.218,271.791z
				 M391.319,234.123c-0.363,0-0.753,0.026-1.177,0.08c-3.928,0.525-8.098,0.687-8.144,0.687c-0.154,0-2.729,0.038-4.056,3.46
				l-5.803,11.799c-0.091,0.151-1.192,1.733-0.835,6.603c0.318,4.366,0.598,11.055,0.691,13.371l27.081-1.243l2.447-20.313
				l-6.863-13.352v0.004C394.65,235.218,393.713,234.123,391.319,234.123z"/>
		</g>
		<g>
			<path fill="#4E4E4E" d="M383.024,265.467h-4.117h-0.155h-4.116c-0.021,0-0.041,0.004-0.067,0.004s-0.046-0.004-0.071-0.004
				h-4.269c-2.023,0-3.668,1.235-3.668,2.754s1.645,2.75,3.668,2.75h4.269c0.024,0,0.045,0,0.071,0s0.046,0,0.067,0h4.116h0.155
				h4.117c2.023,0,3.667-1.231,3.667-2.75C386.691,266.703,385.049,265.467,383.024,265.467z"/>
			<path fill="#3C2517" d="M383.024,271.791h-12.797c-2.467,0-4.482-1.602-4.482-3.568c0-1.965,2.017-3.57,4.482-3.57h12.797
				c2.474,0,4.481,1.605,4.481,3.57C387.507,270.189,385.498,271.791,383.024,271.791z M370.229,266.284
				c-1.545,0-2.853,0.887-2.853,1.938c0,1.049,1.308,1.938,2.853,1.938h12.797c1.549,0,2.854-0.889,2.854-1.938
				c0-1.052-1.307-1.938-2.854-1.938H370.229z"/>
		</g>
		<g>
			<path fill="#B3D180" d="M395.325,230.909c0,0-0.785-3.584,3.763-3.762c4.544-0.173,25.49-2.447,43.54,0
				c4.374,0.521,3.672,4.374,3.672,4.374l-0.735,35.456c0,0,0.78,5.365-6.289,5.31c-7.406-0.056-43.313-0.636-43.313-0.636
				L395.325,230.909z"/>
			<path fill="#3C2517" d="M439.384,273.102c0,0-0.114,0-0.117,0c-7.326-0.058-42.962-0.627-43.32-0.639
				c-0.438-0.005-0.793-0.363-0.802-0.802l-0.635-40.742c0,0.003,0,0.003,0,0.003c-0.011,0-0.315-1.631,0.714-2.968
				c0.778-1.008,2.07-1.556,3.829-1.624c0.756-0.026,1.978-0.113,3.56-0.23c4.639-0.336,12.398-0.895,21.066-0.895
				c7.09,0,13.504,0.381,19.063,1.133c1.593,0.196,2.798,0.816,3.561,1.851c1.137,1.537,0.812,3.395,0.801,3.475l-0.725,35.325l0,0
				c0.007,0,0.298,2.229-1.251,4.017C443.927,272.395,441.994,273.102,439.384,273.102z M396.762,270.85
				c5.313,0.082,35.812,0.569,42.518,0.623l0.104,0.812v-0.812c2.119,0,3.634-0.514,4.519-1.537c1.057-1.224,0.86-2.83,0.855-2.849
				l0.729-35.586c0.012-0.14,0.216-1.394-0.502-2.36c-0.487-0.65-1.315-1.05-2.456-1.186c-5.495-0.748-11.836-1.125-18.852-1.125
				c-8.606,0-16.331,0.562-20.945,0.895c-1.609,0.117-2.845,0.208-3.615,0.238c-1.261,0.045-2.133,0.378-2.605,0.99
				c-0.593,0.762-0.39,1.771-0.39,1.782L396.762,270.85z"/>
		</g>
		<g>
			<g>
				<path fill="#4E4E4E" d="M395.961,273.758c0,4.581-3.714,8.29-8.291,8.29c-4.582,0-8.294-3.709-8.294-8.29
					c0-4.574,3.712-8.291,8.294-8.291C392.247,265.467,395.961,269.184,395.961,273.758z"/>
				<path fill="#3C2517" d="M387.67,282.864c-5.022,0-9.105-4.087-9.105-9.105c0-5.021,4.083-9.106,9.105-9.106
					c5.021,0,9.106,4.087,9.106,9.106C396.776,278.777,392.689,282.864,387.67,282.864z M387.67,266.284
					c-4.125,0-7.479,3.354-7.479,7.475s3.354,7.474,7.479,7.474c4.12,0,7.475-3.354,7.475-7.474
					C395.145,269.637,391.79,266.284,387.67,266.284z"/>
			</g>
			<g>
				<path fill="#818181" d="M388.074,264.202c-5.438,0-9.843,4.407-9.843,9.848c0,5.435,4.403,9.843,9.843,9.843
					c5.435,0,9.84-4.408,9.84-9.843C397.914,268.609,393.509,264.202,388.074,264.202z M388.074,278.837
					c-2.792,0-5.055-2.258-5.055-5.054c0-2.787,2.263-5.049,5.055-5.049c2.788,0,5.05,2.262,5.05,5.049
					C393.124,276.58,390.862,278.837,388.074,278.837z"/>
				<path fill="#3C2517" d="M388.074,284.708c-5.881,0-10.658-4.782-10.658-10.658c0-5.878,4.777-10.659,10.658-10.659
					c5.873,0,10.654,4.781,10.654,10.659C398.729,279.925,393.947,284.708,388.074,284.708z M388.074,265.018
					c-4.979,0-9.031,4.049-9.031,9.031c0,4.979,4.054,9.03,9.031,9.03c4.974,0,9.026-4.054,9.026-9.03
					C397.102,269.066,393.048,265.018,388.074,265.018z M388.074,279.652c-3.237,0-5.865-2.631-5.865-5.868
					c0-3.231,2.628-5.865,5.865-5.865c3.232,0,5.866,2.634,5.866,5.865C393.94,277.021,391.308,279.652,388.074,279.652z
					 M388.074,269.55c-2.338,0-4.242,1.896-4.242,4.233c0,2.339,1.904,4.242,4.242,4.242c2.334,0,4.236-1.903,4.236-4.242
					C392.312,271.445,390.408,269.55,388.074,269.55z"/>
			</g>
		</g>
		<g>
			<g>
				<path fill="#4E4E4E" d="M436.79,273.758c0,4.581-3.714,8.29-8.291,8.29c-4.574,0-8.291-3.709-8.291-8.29
					c0-4.574,3.717-8.291,8.291-8.291C433.076,265.467,436.79,269.184,436.79,273.758z"/>
				<path fill="#3C2517" d="M428.499,282.864c-5.021,0-9.104-4.087-9.104-9.105c0-5.021,4.083-9.106,9.104-9.106
					c5.02,0,9.106,4.087,9.106,9.106C437.605,278.777,433.519,282.864,428.499,282.864z M428.499,266.284
					c-4.121,0-7.475,3.354-7.475,7.475s3.354,7.474,7.475,7.474c4.12,0,7.479-3.354,7.479-7.474
					C435.978,269.637,432.619,266.284,428.499,266.284z"/>
			</g>
			<g>
				<path fill="#818181" d="M428.907,264.202c-5.439,0-9.849,4.407-9.849,9.848c0,5.435,4.408,9.843,9.849,9.843
					c5.435,0,9.842-4.408,9.842-9.843C438.749,268.609,434.342,264.202,428.907,264.202z M428.907,278.837
					c-2.796,0-5.06-2.258-5.06-5.054c0-2.787,2.264-5.049,5.06-5.049c2.787,0,5.049,2.262,5.049,5.049
					C433.956,276.58,431.694,278.837,428.907,278.837z"/>
				<path fill="#3C2517" d="M428.907,284.708c-5.878,0-10.664-4.782-10.664-10.658c0-5.878,4.786-10.659,10.664-10.659
					c5.872,0,10.653,4.781,10.653,10.659C439.562,279.925,434.779,284.708,428.907,284.708z M428.907,265.018
					c-4.982,0-9.032,4.049-9.032,9.031c0,4.979,4.05,9.03,9.032,9.03c4.978,0,9.025-4.054,9.025-9.03
					C437.934,269.066,433.885,265.018,428.907,265.018z M428.907,279.652c-3.238,0-5.869-2.631-5.869-5.868
					c0-3.231,2.631-5.865,5.869-5.865c3.231,0,5.868,2.634,5.868,5.865C434.775,277.021,432.14,279.652,428.907,279.652z
					 M428.907,269.55c-2.339,0-4.242,1.896-4.242,4.233c0,2.339,1.903,4.242,4.242,4.242c2.337,0,4.232-1.903,4.232-4.242
					C433.141,271.445,431.244,269.55,428.907,269.55z"/>
			</g>
		</g>
		<g>
			<path fill="#FFEEC0" d="M377.643,248.811h14.594v-12.313C392.235,236.498,378.82,234.451,377.643,248.811z"/>
			<path fill="#3C2517" d="M392.235,249.624h-14.594c-0.227,0-0.441-0.095-0.601-0.261c-0.151-0.17-0.23-0.393-0.212-0.62
				c0.979-11.879,9.91-13.163,13.702-13.163c1.097,0,1.799,0.109,1.825,0.109c0.398,0.064,0.689,0.408,0.689,0.808v12.313
				C393.048,249.261,392.686,249.624,392.235,249.624z M378.545,247.996h12.875v-10.757c-0.241-0.015-0.539-0.026-0.888-0.026
				C386.506,237.212,379.712,238.636,378.545,247.996z"/>
		</g>
		<g>
			<path fill="#F5803E" d="M391.341,252.396c0,0.68-0.547,1.227-1.227,1.227h-1.875c-0.671,0-1.225-0.547-1.225-1.227l0,0
				c0-0.674,0.554-1.222,1.225-1.222h1.875C390.794,251.175,391.341,251.723,391.341,252.396L391.341,252.396z"/>
			<path fill="#3C2517" d="M390.114,254.436h-1.875c-1.121,0-2.039-0.914-2.039-2.039c0-1.123,0.918-2.038,2.039-2.038h1.875
				c1.129,0,2.039,0.915,2.039,2.038C392.153,253.521,391.243,254.436,390.114,254.436z M388.239,251.988
				c-0.22,0-0.407,0.186-0.407,0.408c0,0.226,0.188,0.41,0.407,0.41h1.875c0.229,0,0.415-0.186,0.415-0.41
				c0-0.224-0.187-0.408-0.415-0.408H388.239z"/>
		</g>
	</g>
	<g>
		<g>
			<polygon fill="#F58020" points="83.702,281.771 104.482,276.889 104.482,257.529 90.716,251.936 83.966,253.087 78.018,263.48 
							"/>
			<path fill="#3C2517" d="M83.702,282.588c-0.355,0-0.673-0.227-0.778-0.574l-5.684-18.291c-0.068-0.22-0.042-0.449,0.071-0.649
				l5.944-10.39c0.122-0.209,0.333-0.355,0.574-0.397l6.749-1.155c0.148-0.023,0.303-0.008,0.442,0.049l13.764,5.598
				c0.31,0.121,0.506,0.422,0.506,0.752v19.359c0,0.379-0.257,0.707-0.627,0.793l-20.776,4.885
				C83.823,282.582,83.762,282.588,83.702,282.588z M78.897,263.58l5.355,17.227l19.41-4.562v-18.168l-13.042-5.303l-6.142,1.054
				L78.897,263.58z"/>
		</g>
		<g>
			<polygon fill="#43AB53" points="90.27,248.116 72.065,251.493 75.264,262.68 83.702,259.398 99.15,256.555 93.379,247.232 			"/>
			<path fill="#3C2517" d="M75.264,263.496c-0.128,0-0.248-0.03-0.362-0.086c-0.204-0.1-0.358-0.287-0.423-0.51l-3.195-11.186
				c-0.06-0.219-0.03-0.457,0.092-0.652c0.12-0.193,0.316-0.334,0.544-0.371l18.203-3.376l3.033-0.869
				c0.353-0.098,0.722,0.045,0.915,0.355l5.773,9.321c0.145,0.229,0.16,0.513,0.055,0.763c-0.114,0.245-0.337,0.42-0.599,0.469
				l-15.454,2.84l-8.286,3.246C75.461,263.477,75.362,263.496,75.264,263.496z M73.097,252.127l2.704,9.469l7.603-2.957
				l14.428-2.671l-4.823-7.788l-2.516,0.721L73.097,252.127z"/>
		</g>
		<g>
			<polygon fill="#F6EB16" points="101.902,259.75 89.027,250.514 88.403,228.03 105.011,229.115 109.362,238.795 106.7,252.204 			
				"/>
			<path fill="#3C2517" d="M101.902,260.566c-0.169,0-0.335-0.055-0.471-0.155l-12.88-9.235c-0.204-0.15-0.333-0.385-0.34-0.638
				l-0.619-22.484c-0.008-0.23,0.082-0.454,0.248-0.608c0.163-0.162,0.393-0.238,0.617-0.226l16.607,1.083
				c0.301,0.019,0.565,0.204,0.689,0.476l4.348,9.68c0.068,0.155,0.091,0.329,0.062,0.495l-2.667,13.405
				c-0.02,0.101-0.058,0.195-0.113,0.279l-4.793,7.551c-0.117,0.188-0.313,0.315-0.532,0.36
				C102.006,260.561,101.956,260.566,101.902,260.566z M89.828,250.088l11.848,8.495l4.253-6.687l2.584-13.003l-4.046-8.997
				l-15.224-0.998L89.828,250.088z"/>
		</g>
		<g>
			<polygon fill="#3059A7" points="110.254,223.857 125.347,231.513 113.178,244.301 101.37,235.154 88.403,227.335 			"/>
			<path fill="#3C2517" d="M113.178,245.114c-0.175,0-0.349-0.057-0.495-0.17l-11.811-9.148l-12.887-7.758
				c-0.295-0.181-0.446-0.521-0.379-0.854c0.062-0.34,0.333-0.597,0.673-0.65l21.846-3.482c0.167-0.03,0.34,0,0.491,0.076l15.1,7.66
				c0.228,0.113,0.39,0.333,0.432,0.585c0.045,0.253-0.034,0.514-0.212,0.699l-12.165,12.788
				C113.607,245.027,113.396,245.114,113.178,245.114z M90.734,227.792l11.06,6.663l11.301,8.751l10.908-11.463l-13.885-7.04
				L90.734,227.792z"/>
		</g>
		<g>
			<polygon fill="#E01D42" points="72.065,251.493 83.702,259.398 83.702,281.771 72.243,272.718 			"/>
			<path fill="#3C2517" d="M83.702,282.588c-0.182,0-0.363-0.061-0.506-0.177l-11.459-9.058c-0.189-0.155-0.303-0.387-0.31-0.637
				l-0.175-21.222c-0.004-0.302,0.163-0.578,0.432-0.722c0.264-0.145,0.588-0.129,0.838,0.041l11.637,7.906
				c0.223,0.149,0.359,0.403,0.359,0.676v22.373c0,0.311-0.182,0.598-0.461,0.733C83.943,282.559,83.823,282.588,83.702,282.588z
				 M73.059,272.318l9.828,7.772v-20.267l-9.994-6.787L73.059,272.318z"/>
		</g>
		<g>
			<polygon fill="#4FA0CA" points="115.768,318.934 138.868,314.05 138.868,291.68 123.567,289.096 116.067,290.255 
				109.453,300.643 			"/>
			<path fill="#3C2517" d="M115.768,319.75c-0.34,0-0.657-0.215-0.77-0.551l-6.315-18.292c-0.082-0.234-0.053-0.491,0.083-0.698
				l6.613-10.396c0.125-0.194,0.333-0.33,0.562-0.364l7.502-1.152c0.083-0.019,0.174-0.015,0.26,0l15.301,2.58
				c0.389,0.063,0.676,0.408,0.676,0.804v22.371c0,0.387-0.268,0.719-0.646,0.797l-23.1,4.887
				C115.882,319.743,115.82,319.75,115.768,319.75z M110.348,300.748l5.957,17.242l21.747-4.598v-21.025l-14.491-2.443l-7.007,1.08
				L110.348,300.748z"/>
		</g>
		<g>
			<polygon fill="#CBDB2A" points="124.818,285.107 103.501,288.654 106.945,299.841 116.04,296.061 138.868,291.68 			"/>
			<path fill="#3C2517" d="M106.945,300.657c-0.117,0-0.234-0.025-0.344-0.074c-0.207-0.099-0.367-0.284-0.435-0.503l-3.444-11.184
				c-0.067-0.228-0.037-0.474,0.087-0.67c0.124-0.199,0.325-0.336,0.56-0.373l21.313-3.551c0.165-0.019,0.328-0.004,0.479,0.068
				l14.046,6.566c0.324,0.151,0.51,0.487,0.469,0.834c-0.046,0.355-0.31,0.641-0.658,0.707l-22.827,4.383l-8.933,3.729
				C107.157,300.635,107.051,300.657,106.945,300.657z M104.551,289.303l2.908,9.443l8.264-3.438l20.524-3.953l-11.546-5.401
				L104.551,289.303z"/>
		</g>
		<g>
			<polygon fill="#C12026" points="103.501,288.654 115.134,296.559 115.134,318.934 103.682,309.876 			"/>
			<path fill="#3C2517" d="M115.134,319.75c-0.182,0-0.358-0.061-0.506-0.177l-11.452-9.058c-0.196-0.152-0.31-0.382-0.31-0.632
				l-0.181-21.227c0-0.304,0.165-0.578,0.43-0.726c0.269-0.141,0.59-0.125,0.847,0.049l11.633,7.901
				c0.219,0.15,0.354,0.407,0.354,0.677v22.373c0,0.311-0.182,0.598-0.46,0.733C115.375,319.719,115.255,319.75,115.134,319.75z
				 M104.49,309.48l9.828,7.771v-20.268l-9.987-6.786L104.49,309.48z"/>
		</g>
		<g>
			<polygon fill="#F6EB16" points="133.958,281.992 147.468,273.018 147.468,251.085 130.233,249.982 123.836,261.352 			"/>
			<path fill="#3C2517" d="M133.958,282.811c-0.068,0-0.14-0.011-0.211-0.029c-0.227-0.061-0.417-0.215-0.519-0.428l-10.125-20.648
				c-0.114-0.236-0.106-0.523,0.022-0.755l6.397-11.368c0.151-0.272,0.441-0.454,0.76-0.412l17.234,1.103
				c0.43,0.026,0.763,0.381,0.763,0.812v21.933c0,0.275-0.136,0.528-0.363,0.681l-13.506,8.974
				C134.275,282.762,134.117,282.811,133.958,282.811z M124.757,261.374l9.525,19.433l12.37-8.226v-20.735l-15.962-1.017
				L124.757,261.374z"/>
		</g>
		<g>
			<polygon fill="#E01D42" points="124.104,247.232 147.468,251.085 133.516,259.398 127.299,267.742 114.511,257.268 
				110.691,249.004 			"/>
			<path fill="#3C2517" d="M127.299,268.557c-0.185,0-0.366-0.063-0.518-0.185l-12.784-10.481c-0.099-0.072-0.17-0.174-0.223-0.283
				l-3.819-8.259c-0.108-0.238-0.102-0.506,0.027-0.737c0.124-0.223,0.347-0.381,0.604-0.412l13.408-1.775
				c0.083-0.016,0.163-0.011,0.241,0l23.365,3.856c0.336,0.057,0.604,0.317,0.668,0.653s-0.09,0.672-0.385,0.851l-13.812,8.229
				l-6.119,8.215c-0.132,0.178-0.332,0.293-0.551,0.32C127.366,268.553,127.334,268.557,127.299,268.557z M115.171,256.753
				l11.988,9.82l5.704-7.663c0.064-0.092,0.143-0.162,0.234-0.217l12.04-7.168l-21.045-3.475l-12.191,1.612L115.171,256.753z"/>
		</g>
		<g>
			<polygon fill="#43AB53" points="113.892,255.666 113.805,277.245 133.958,281.863 133.784,259.221 			"/>
			<path fill="#3C2517" d="M133.958,282.675c-0.061,0-0.121-0.004-0.181-0.022l-20.158-4.615c-0.37-0.087-0.63-0.415-0.63-0.801
				l0.09-21.577c0-0.237,0.105-0.464,0.291-0.618c0.185-0.155,0.427-0.216,0.664-0.175l19.895,3.55
				c0.384,0.068,0.664,0.404,0.668,0.798l0.177,22.644c0.004,0.244-0.109,0.481-0.301,0.642
				C134.324,282.611,134.146,282.675,133.958,282.675z M114.62,276.598l18.515,4.241l-0.163-20.938l-18.27-3.265L114.62,276.598z"/>
		</g>
		<g>
			<polygon fill="#C12026" points="101.37,235.373 125.347,231.513 125.347,254.102 101.902,259.75 			"/>
			<path fill="#3C2517" d="M101.902,260.566c-0.177,0-0.351-0.062-0.494-0.174c-0.196-0.147-0.313-0.375-0.317-0.623l-0.536-24.381
				c-0.007-0.408,0.283-0.755,0.688-0.82l23.976-3.86c0.231-0.042,0.477,0.026,0.658,0.185c0.18,0.151,0.287,0.377,0.287,0.62
				v22.588c0,0.379-0.262,0.703-0.628,0.795l-23.439,5.643C102.031,260.555,101.967,260.566,101.902,260.566z M102.201,236.064
				l0.491,22.659l21.839-5.263v-20.996L102.201,236.064z"/>
		</g>
	</g>
	<g>
		<g>
			<polygon fill="#C12026" points="392.062,360.255 381.672,364.41 366.48,351.289 389.075,343.637 407.903,351.682 
				403.103,359.341 			"/>
			<path fill="#3C2517" d="M381.672,364.947c-0.124,0-0.253-0.039-0.352-0.129l-15.193-13.113c-0.146-0.129-0.216-0.325-0.179-0.516
				c0.034-0.194,0.174-0.347,0.358-0.414l22.595-7.651c0.12-0.046,0.265-0.046,0.389,0.007l18.828,8.053
				c0.144,0.061,0.257,0.183,0.303,0.34c0.053,0.151,0.025,0.311-0.054,0.445l-4.804,7.66c-0.096,0.145-0.246,0.234-0.416,0.257
				l-10.96,0.899l-10.312,4.123C381.808,364.939,381.74,364.947,381.672,364.947z M367.558,351.5l14.218,12.282l10.089-4.033
				c0.048-0.022,0.104-0.03,0.153-0.037l10.769-0.894l4.325-6.889l-18.06-7.72L367.558,351.5z"/>
		</g>
		<g>
			<polygon fill="#ECE82D" points="329.085,356.093 312.335,360.641 297.665,347.005 315.062,341.423 343.763,340.646 
				344.537,355.314 			"/>
			<path fill="#3C2517" d="M312.335,361.184c-0.132,0-0.264-0.053-0.367-0.143l-14.676-13.635c-0.14-0.129-0.204-0.334-0.158-0.514
				c0.041-0.189,0.181-0.341,0.361-0.4l17.404-5.592c0.046-0.006,0.099-0.015,0.146-0.021l28.698-0.778
				c0.283,0.021,0.541,0.219,0.56,0.514l0.777,14.67c0.008,0.15-0.038,0.287-0.14,0.393c-0.095,0.114-0.229,0.176-0.374,0.182
				l-15.455,0.785l-16.634,4.519C312.434,361.177,312.388,361.184,312.335,361.184z M298.711,347.24l13.775,12.797l16.46-4.465
				l15.023-0.771l-0.721-13.597l-28.094,0.755L298.711,347.24z"/>
		</g>
		<g>
			<polygon fill="#C12026" points="339.472,335.193 327.526,339.734 320.256,329.475 351.423,319.221 351.158,314.152 
				358.301,311.945 377.132,319.996 366.875,335.322 			"/>
			<path fill="#3C2517" d="M327.526,340.275c-0.17,0-0.341-0.084-0.441-0.227l-7.271-10.261c-0.103-0.144-0.13-0.324-0.071-0.487
				c0.053-0.158,0.181-0.291,0.344-0.344l30.771-10.126l-0.238-4.647c-0.017-0.25,0.144-0.478,0.382-0.549l7.142-2.205
				c0.125-0.037,0.258-0.027,0.374,0.019l18.828,8.049c0.147,0.063,0.266,0.188,0.312,0.349c0.041,0.15,0.019,0.32-0.073,0.456
				l-10.254,15.319c-0.105,0.15-0.275,0.24-0.452,0.24h-0.005l-27.3-0.127l-11.853,4.512
				C327.654,340.268,327.59,340.275,327.526,340.275z M321.124,329.758l6.598,9.317l11.559-4.392
				c0.063-0.023,0.129-0.039,0.191-0.039h0.005l27.111,0.133l9.729-14.541l-18.043-7.713l-6.55,2.023l0.242,4.643
				c0.011,0.246-0.144,0.469-0.378,0.543L321.124,329.758z"/>
		</g>
		<g>
			<polygon fill="#495DAA" points="312.203,317.141 298.439,327.529 286.104,310.129 332.333,296.102 351.423,304.025 
				338.306,317.4 			"/>
			<path fill="#3C2517" d="M298.439,328.074c-0.026,0-0.053-0.004-0.079-0.012c-0.147-0.021-0.28-0.098-0.362-0.22l-12.336-17.399
				c-0.102-0.145-0.129-0.324-0.071-0.49c0.058-0.163,0.192-0.291,0.359-0.344l46.225-14.028c0.121-0.034,0.25-0.024,0.367,0.022
				l19.089,7.925c0.165,0.067,0.282,0.216,0.321,0.396c0.037,0.17-0.021,0.354-0.146,0.483l-13.115,13.37
				c-0.104,0.104-0.284,0.113-0.395,0.162l-25.91-0.252l-13.623,10.271C298.674,328.033,298.562,328.074,298.439,328.074z
				 M286.984,310.432l11.576,16.328l13.316-10.052c0.099-0.071,0.193-0.128,0.337-0.112l25.864,0.262l12.393-12.635l-18.164-7.543
				L286.984,310.432z"/>
		</g>
		<g>
			<path fill="#861719" d="M390.594,354.846c0,0.59-1.862,1.065-4.154,1.065c-2.298,0-4.154-0.476-4.154-1.065v-3.218l4.771-0.323
				l3.463,0.377L390.594,354.846z"/>
			<path fill="#3C2517" d="M386.438,356.456c-0.785,0-4.697-0.083-4.697-1.608v-3.219c0-0.287,0.223-0.521,0.51-0.544l4.771-0.315
				l3.555,0.369c0.268,0.037,0.479,0.266,0.485,0.536l0.076,3.158C391.138,356.373,387.225,356.456,386.438,356.456z
				 M382.828,352.135v2.711c0.143,0.092,1.431,0.521,3.609,0.521c2.066,0,3.337-0.387,3.607-0.611l-0.061-2.584l-2.988-0.324
				L382.828,352.135z"/>
		</g>
		<g>
			<path fill="#C12026" d="M390.495,351.628c0,0.59-1.854,1.065-4.15,1.065c-2.297,0-4.153-0.477-4.153-1.065
				s1.856-1.071,4.153-1.071C388.641,350.557,390.495,351.04,390.495,351.628z"/>
			<path fill="#3C2517" d="M386.345,353.238c-0.786,0-4.697-0.076-4.697-1.609s3.911-1.607,4.697-1.607
				c0.785,0,4.697,0.074,4.697,1.607S387.13,353.238,386.345,353.238z M382.877,351.628c0.452,0.22,1.65,0.529,3.468,0.529
				c1.816,0,3.018-0.31,3.463-0.529c-0.445-0.226-1.646-0.528-3.463-0.528C384.524,351.1,383.326,351.402,382.877,351.628z"/>
		</g>
		<g>
			<path fill="#861719" d="M400.807,351.909c0,0.589-1.858,1.071-4.154,1.071c-2.293,0-4.154-0.482-4.154-1.071v-3.22l4.774-0.315
				l3.462,0.378L400.807,351.909z"/>
			<path fill="#3C2517" d="M396.651,353.518c-0.782,0-4.698-0.084-4.698-1.608v-3.22c0-0.287,0.223-0.521,0.51-0.543l4.771-0.316
				l3.558,0.378c0.272,0.03,0.479,0.256,0.486,0.528l0.072,3.158C401.351,353.434,397.438,353.518,396.651,353.518z
				 M393.041,349.197v2.712c0.14,0.098,1.435,0.521,3.61,0.521c2.065,0,3.335-0.377,3.61-0.611l-0.058-2.584l-2.995-0.323
				L393.041,349.197z"/>
		</g>
		<g>
			<ellipse fill="#C12026" cx="396.562" cy="348.69" rx="4.151" ry="1.065"/>
			<path fill="#3C2517" d="M396.564,350.299c-0.785,0-4.701-0.074-4.701-1.609c0-1.532,3.916-1.615,4.701-1.615
				c0.781,0,4.693,0.083,4.693,1.615C401.259,350.225,397.347,350.299,396.564,350.299z M393.094,348.689
				c0.449,0.229,1.646,0.521,3.472,0.521c1.812,0,3.01-0.294,3.464-0.521c-0.454-0.227-1.65-0.527-3.464-0.527
				C394.744,348.162,393.547,348.463,393.094,348.689z"/>
		</g>
		<g>
			<path fill="#861719" d="M392.164,348.169c0,0.582-1.857,1.063-4.154,1.063c-2.292,0-4.154-0.481-4.154-1.063v-3.226l4.771-0.311
				l3.464,0.369L392.164,348.169z"/>
			<path fill="#3C2517" d="M388.01,349.777c-0.781,0-4.693-0.074-4.693-1.607v-3.227c0-0.279,0.223-0.521,0.507-0.536l4.766-0.316
				l3.559,0.378c0.271,0.03,0.479,0.258,0.483,0.521l0.074,3.164C392.704,349.703,388.795,349.777,388.01,349.777z M384.398,345.458
				v2.712c0.141,0.092,1.437,0.521,3.61,0.521c2.07,0,3.331-0.385,3.607-0.611l-0.062-2.584l-2.985-0.324L384.398,345.458z"/>
		</g>
		<g>
			<path fill="#C12026" d="M392.07,344.943c0,0.591-1.859,1.072-4.15,1.072c-2.301,0-4.155-0.481-4.155-1.072
				c0-0.58,1.854-1.064,4.155-1.064C390.211,343.878,392.07,344.363,392.07,344.943z"/>
			<path fill="#3C2517" d="M387.92,346.561c-0.79,0-4.703-0.084-4.703-1.617c0-1.525,3.913-1.602,4.703-1.602
				c0.78,0,4.69,0.075,4.69,1.602C392.61,346.477,388.7,346.561,387.92,346.561z M384.452,344.943
				c0.449,0.228,1.649,0.529,3.468,0.529c1.812,0,3.014-0.303,3.462-0.529c-0.448-0.219-1.646-0.521-3.462-0.521
				C386.103,344.422,384.901,344.725,384.452,344.943z"/>
		</g>
		<g>
			<path fill="#861719" d="M381.876,351.175c0,0.591-1.866,1.065-4.154,1.065c-2.297,0-4.154-0.477-4.154-1.065v-3.218l4.771-0.316
				l3.464,0.369L381.876,351.175z"/>
			<path fill="#3C2517" d="M377.722,352.785c-0.786,0-4.698-0.075-4.698-1.609v-3.218c0-0.287,0.223-0.521,0.51-0.536l4.768-0.316
				l3.559,0.369c0.269,0.031,0.479,0.258,0.481,0.529l0.08,3.165C382.42,352.709,378.507,352.785,377.722,352.785z M374.11,348.463
				v2.712c0.14,0.099,1.432,0.529,3.61,0.529c2.065,0,3.332-0.386,3.607-0.611l-0.064-2.592l-2.987-0.315L374.11,348.463z"/>
		</g>
		<g>
			<path fill="#C12026" d="M381.777,347.958c0,0.597-1.857,1.071-4.15,1.071s-4.154-0.475-4.154-1.071
				c0-0.589,1.861-1.063,4.154-1.063S381.777,347.369,381.777,347.958z"/>
			<path fill="#3C2517" d="M377.627,349.574c-0.785,0-4.694-0.083-4.694-1.616s3.909-1.608,4.694-1.608s4.694,0.075,4.694,1.608
				S378.412,349.574,377.627,349.574z M374.16,347.958c0.448,0.228,1.646,0.521,3.467,0.521s3.014-0.293,3.468-0.521
				c-0.454-0.228-1.649-0.521-3.468-0.521C375.807,347.438,374.608,347.73,374.16,347.958z"/>
		</g>
		<g>
			<path fill="#CDAD2C" d="M320.792,350.209c0,0.588-1.862,1.064-4.155,1.064c-2.292,0-4.153-0.478-4.153-1.064v-3.219l4.773-0.316
				l3.459,0.377L320.792,350.209z"/>
			<path fill="#3C2517" d="M316.637,351.818c-0.78,0-4.693-0.075-4.693-1.608v-3.219c0-0.287,0.223-0.521,0.507-0.536l4.77-0.324
				l3.555,0.377c0.271,0.03,0.479,0.258,0.483,0.529l0.079,3.164C321.336,351.743,317.422,351.818,316.637,351.818z
				 M313.026,347.497v2.713c0.144,0.09,1.432,0.528,3.609,0.528c2.07,0,3.335-0.393,3.611-0.611l-0.064-2.592l-2.986-0.316
				L313.026,347.497z"/>
		</g>
		<g>
			<path fill="#ECE82D" d="M320.701,346.991c0,0.589-1.866,1.071-4.154,1.071c-2.301,0-4.152-0.482-4.152-1.071
				s1.853-1.064,4.152-1.064C318.835,345.926,320.701,346.402,320.701,346.991z"/>
			<path fill="#3C2517" d="M316.547,348.6c-0.785,0-4.699-0.074-4.699-1.608c0-1.533,3.914-1.608,4.699-1.608
				s4.694,0.075,4.694,1.608C321.241,348.525,317.332,348.6,316.547,348.6z M313.079,346.991c0.453,0.228,1.649,0.528,3.468,0.528
				c1.816,0,3.018-0.302,3.462-0.528c-0.448-0.228-1.646-0.521-3.462-0.521C314.729,346.471,313.532,346.764,313.079,346.991z"/>
		</g>
		<g>
			<path fill="#CDAD2C" d="M312.558,346.545c0,0.589-1.856,1.064-4.153,1.064c-2.292,0-4.15-0.477-4.15-1.064v-3.218l4.771-0.318
				l3.46,0.378L312.558,346.545z"/>
			<path fill="#3C2517" d="M308.403,348.154c-0.781,0-4.694-0.075-4.694-1.608v-3.218c0-0.287,0.223-0.529,0.505-0.544l4.774-0.317
				l3.555,0.377c0.27,0.03,0.479,0.258,0.483,0.528l0.074,3.158C313.102,348.079,309.189,348.154,308.403,348.154z M304.792,343.833
				v2.712c0.145,0.098,1.437,0.528,3.611,0.528c2.068,0,3.332-0.394,3.609-0.612l-0.063-2.59l-2.986-0.325L304.792,343.833z"/>
		</g>
		<g>
			<path fill="#ECE82D" d="M312.463,343.328c0,0.588-1.854,1.064-4.154,1.064c-2.287,0-4.153-0.478-4.153-1.064
				c0-0.59,1.866-1.064,4.153-1.064C310.608,342.262,312.463,342.738,312.463,343.328z"/>
			<path fill="#3C2517" d="M308.309,344.936c-0.784,0-4.693-0.082-4.693-1.607c0-1.533,3.909-1.609,4.693-1.609
				c0.785,0,4.698,0.076,4.698,1.609C313.007,344.854,309.094,344.936,308.309,344.936z M304.845,343.328
				c0.454,0.227,1.652,0.521,3.464,0.521c1.817,0,3.02-0.295,3.469-0.521c-0.449-0.229-1.65-0.529-3.469-0.529
				C306.497,342.798,305.299,343.1,304.845,343.328z"/>
		</g>
		<g>
			<path fill="#861719" d="M339.635,328.489c0,0.602-1.907,1.093-4.265,1.093c-2.354,0-4.261-0.491-4.261-1.093v-3.304l4.896-0.326
				l3.555,0.382L339.635,328.489z"/>
			<path fill="#3C2517" d="M335.37,330.125c-0.8,0-4.805-0.08-4.805-1.637v-3.305c0-0.287,0.22-0.521,0.507-0.541l4.895-0.324
				l3.652,0.383c0.269,0.029,0.477,0.261,0.479,0.531l0.08,3.242C340.179,330.045,336.176,330.125,335.37,330.125z M331.653,325.691
				v2.798c0.145,0.106,1.467,0.553,3.717,0.553c2.252,0,3.573-0.446,3.755-0.673l-0.091-2.637l-3.089-0.332L331.653,325.691z"/>
		</g>
		<g>
			<path fill="#C12026" d="M339.54,325.186c0,0.604-1.907,1.09-4.268,1.09c-2.354,0-4.261-0.485-4.261-1.09
				c0-0.605,1.907-1.096,4.261-1.096C337.633,324.09,339.54,324.58,339.54,325.186z"/>
			<path fill="#3C2517" d="M335.272,326.82c-0.802,0-4.805-0.075-4.805-1.635c0-1.558,4.003-1.64,4.805-1.64
				c0.809,0,4.808,0.082,4.808,1.64C340.08,326.745,336.081,326.82,335.272,326.82z M331.688,325.182
				c0.445,0.237,1.686,0.555,3.585,0.555c1.907,0,3.146-0.316,3.592-0.555c-0.445-0.23-1.685-0.549-3.592-0.549
				C333.373,324.633,332.134,324.951,331.688,325.182z"/>
		</g>
		<g>
			<path fill="#861719" d="M349.848,325.109c0,0.601-1.906,1.092-4.261,1.092c-2.356,0-4.261-0.491-4.261-1.092v-3.301l4.892-0.33
				l3.56,0.383L349.848,325.109z"/>
			<path fill="#3C2517" d="M345.587,326.749c-0.804,0-4.805-0.083-4.805-1.64v-3.301c0-0.289,0.221-0.525,0.507-0.545l4.892-0.328
				l3.652,0.385c0.271,0.029,0.479,0.255,0.487,0.529l0.07,3.244C350.392,326.666,346.388,326.749,345.587,326.749z
				 M341.866,322.314v2.795c0.147,0.105,1.471,0.548,3.721,0.548c2.247,0,3.577-0.441,3.751-0.669l-0.087-2.637l-3.09-0.332
				L341.866,322.314z"/>
		</g>
		<g>
			<path fill="#C12026" d="M349.749,321.809c0,0.604-1.903,1.096-4.261,1.096c-2.354,0-4.261-0.491-4.261-1.096
				c0-0.607,1.907-1.1,4.261-1.1C347.846,320.709,349.749,321.201,349.749,321.809z"/>
			<path fill="#3C2517" d="M345.488,323.443c-0.8,0-4.805-0.078-4.805-1.635c0-1.564,4.005-1.644,4.805-1.644
				c0.801,0,4.805,0.078,4.805,1.644C350.293,323.365,346.289,323.443,345.488,323.443z M341.905,321.809
				c0.439,0.229,1.685,0.551,3.583,0.551c1.908,0,3.146-0.32,3.588-0.551c-0.44-0.238-1.68-0.556-3.588-0.556
				C343.59,321.253,342.346,321.57,341.905,321.809z"/>
		</g>
		<g>
			<path fill="#861719" d="M360.064,322.344c0,0.602-1.907,1.092-4.266,1.092c-2.353,0-4.261-0.49-4.261-1.092v-3.301l4.896-0.329
				l3.551,0.382L360.064,322.344z"/>
			<path fill="#3C2517" d="M355.8,323.98c-0.8,0-4.805-0.076-4.805-1.637v-3.301c0-0.29,0.225-0.523,0.507-0.544l4.895-0.329
				l3.646,0.382c0.276,0.031,0.484,0.261,0.491,0.529l0.071,3.248C360.604,323.904,356.604,323.98,355.8,323.98z M352.08,319.545
				v2.799c0.146,0.105,1.477,0.549,3.72,0.549c2.256,0,3.576-0.442,3.755-0.668l-0.095-2.638l-3.082-0.333L352.08,319.545z"/>
		</g>
		<g>
			<path fill="#C12026" d="M359.97,319.043c0,0.602-1.911,1.092-4.264,1.092c-2.354,0-4.264-0.49-4.264-1.092
				c0-0.607,1.909-1.1,4.264-1.1C358.059,317.943,359.97,318.436,359.97,319.043z"/>
			<path fill="#3C2517" d="M355.706,320.68c-0.805,0-4.805-0.076-4.805-1.637c0-1.562,4-1.641,4.805-1.641
				c0.8,0,4.808,0.076,4.808,1.641C360.514,320.604,356.506,320.68,355.706,320.68z M352.113,319.043
				c0.445,0.232,1.685,0.551,3.593,0.551c1.902,0,3.146-0.316,3.587-0.551c-0.437-0.236-1.68-0.559-3.587-0.559
				C353.798,318.484,352.56,318.807,352.113,319.043z"/>
		</g>
		<g>
			<path fill="#861719" d="M370.433,319.656c0,0.607-1.906,1.095-4.261,1.095c-2.353,0-4.265-0.487-4.265-1.095v-3.307l4.898-0.324
				l3.551,0.386L370.433,319.656z"/>
			<path fill="#3C2517" d="M366.172,321.294c-0.805,0-4.809-0.08-4.809-1.64v-3.305c0-0.283,0.223-0.521,0.507-0.539l4.901-0.322
				l3.642,0.382c0.271,0.03,0.479,0.257,0.483,0.528l0.079,3.244C370.977,321.214,366.976,321.294,366.172,321.294z
				 M362.447,316.857v2.799c0.146,0.107,1.474,0.551,3.725,0.551c2.247,0,3.572-0.441,3.751-0.668l-0.096-2.641l-3.081-0.332
				L362.447,316.857z"/>
		</g>
		<g>
			<path fill="#C12026" d="M370.337,316.35c0,0.604-1.906,1.096-4.264,1.096c-2.354,0-4.261-0.49-4.261-1.096
				c0-0.601,1.907-1.095,4.261-1.095C368.431,315.255,370.337,315.75,370.337,316.35z"/>
			<path fill="#3C2517" d="M366.073,317.99c-0.801,0-4.805-0.079-4.805-1.641c0-1.556,4.004-1.635,4.805-1.635
				c0.802,0,4.805,0.079,4.805,1.635C370.878,317.911,366.875,317.99,366.073,317.99z M362.488,316.35
				c0.446,0.238,1.686,0.553,3.585,0.553c1.902,0,3.143-0.313,3.589-0.553c-0.446-0.233-1.687-0.551-3.589-0.551
				C364.174,315.799,362.936,316.116,362.488,316.35z"/>
		</g>
		<g>
			<path fill="#861719" d="M361.828,315.432c0,0.604-1.903,1.092-4.257,1.092c-2.36,0-4.261-0.486-4.261-1.092v-3.304l4.892-0.329
				l3.554,0.389L361.828,315.432z"/>
			<path fill="#3C2517" d="M357.571,317.068c-0.802,0-4.805-0.08-4.805-1.637v-3.304c0-0.288,0.221-0.522,0.506-0.541l4.892-0.323
				l3.649,0.385c0.268,0.029,0.479,0.254,0.481,0.529l0.08,3.239C362.376,316.989,358.372,317.068,357.571,317.068z
				 M353.851,312.634v2.798c0.148,0.106,1.471,0.549,3.722,0.549c2.252,0,3.571-0.441,3.747-0.668l-0.091-2.638l-3.082-0.336
				L353.851,312.634z"/>
		</g>
		<g>
			<path fill="#C12026" d="M361.733,312.128c0,0.604-1.907,1.095-4.265,1.095c-2.35,0-4.26-0.49-4.26-1.095s1.91-1.097,4.26-1.097
				C359.826,311.032,361.733,311.523,361.733,312.128z"/>
			<path fill="#3C2517" d="M357.47,313.764c-0.798,0-4.804-0.076-4.804-1.636c0-1.558,4.006-1.642,4.804-1.642
				c0.805,0,4.809,0.084,4.809,1.642C362.277,313.688,358.273,313.764,357.47,313.764z M353.885,312.128
				c0.45,0.233,1.689,0.552,3.585,0.552c1.906,0,3.146-0.316,3.588-0.552c-0.441-0.237-1.685-0.553-3.588-0.553
				C355.574,311.576,354.335,311.891,353.885,312.128z"/>
		</g>
		<g>
			<path fill="#29337A" d="M311.603,313.129c0,0.618-1.948,1.121-4.354,1.121c-2.406,0-4.363-0.503-4.363-1.121v-3.374l5.014-0.332
				l3.634,0.39L311.603,313.129z"/>
			<path fill="#3C2517" d="M307.248,314.798c-0.819,0-4.903-0.083-4.903-1.669v-3.374c0-0.287,0.224-0.524,0.507-0.544l5.009-0.328
				l3.725,0.393c0.271,0.027,0.479,0.254,0.487,0.525l0.079,3.319C312.15,314.715,308.067,314.798,307.248,314.798z
				 M303.433,310.262v2.867c0.147,0.12,1.5,0.577,3.815,0.577c2.312,0,3.663-0.457,3.845-0.688l-0.091-2.715l-3.166-0.34
				L303.433,310.262z"/>
		</g>
		<g>
			<path fill="#495DAA" d="M311.508,309.755c0,0.62-1.952,1.115-4.357,1.115c-2.41,0-4.362-0.495-4.362-1.115
				c0-0.618,1.952-1.122,4.362-1.122C309.556,308.633,311.508,309.136,311.508,309.755z"/>
			<path fill="#3C2517" d="M307.149,311.415c-0.815,0-4.903-0.076-4.903-1.659c0-1.582,4.088-1.66,4.903-1.66
				c0.818,0,4.901,0.078,4.901,1.66C312.052,311.338,307.969,311.415,307.149,311.415z M303.456,309.755
				c0.438,0.243,1.714,0.574,3.693,0.574c1.979,0,3.252-0.331,3.697-0.574c-0.445-0.241-1.72-0.581-3.697-0.581
				C305.175,309.174,303.897,309.514,303.456,309.755z"/>
		</g>
		<g>
			<path fill="#29337A" d="M322.442,310.225c0,0.618-1.949,1.117-4.355,1.117c-2.409,0-4.358-0.499-4.358-1.117v-3.377l5.005-0.332
				l3.634,0.396L322.442,310.225z"/>
			<path fill="#3C2517" d="M318.087,311.886c-0.819,0-4.902-0.075-4.902-1.661v-3.377c0-0.283,0.224-0.521,0.508-0.535l5.008-0.338
				l3.729,0.394c0.27,0.03,0.477,0.261,0.482,0.528l0.076,3.312C322.986,311.811,318.902,311.886,318.087,311.886z M314.27,307.354
				v2.871c0.151,0.121,1.503,0.577,3.817,0.577c2.312,0,3.664-0.456,3.846-0.688l-0.091-2.712l-3.169-0.348L314.27,307.354z"/>
		</g>
		<g>
			<path fill="#495DAA" d="M322.348,306.848c0,0.619-1.953,1.121-4.361,1.121c-2.405,0-4.355-0.502-4.355-1.121
				c0-0.615,1.95-1.119,4.355-1.119C320.395,305.729,322.348,306.232,322.348,306.848z"/>
			<path fill="#3C2517" d="M317.985,308.514c-0.819,0-4.902-0.084-4.902-1.666s4.083-1.662,4.902-1.662s4.901,0.08,4.901,1.662
				C322.888,308.43,318.806,308.514,317.985,308.514z M314.292,306.848c0.438,0.245,1.715,0.573,3.693,0.573
				c1.981,0,3.256-0.328,3.693-0.573c-0.438-0.242-1.715-0.574-3.693-0.574S314.729,306.605,314.292,306.848z"/>
		</g>
		<g>
			<path fill="#29337A" d="M332.965,306.848c0,0.619-1.949,1.121-4.362,1.121c-2.401,0-4.354-0.502-4.354-1.121v-3.373l5.007-0.336
				l3.634,0.394L332.965,306.848z"/>
			<path fill="#3C2517" d="M328.603,308.514c-0.815,0-4.896-0.084-4.896-1.666v-3.373c0-0.287,0.224-0.521,0.503-0.543l5.008-0.336
				l3.732,0.399c0.267,0.024,0.476,0.252,0.481,0.524l0.076,3.315C333.509,308.43,329.422,308.514,328.603,308.514z
				 M324.792,303.977v2.871c0.147,0.12,1.502,0.573,3.811,0.573c2.318,0,3.672-0.453,3.849-0.683l-0.086-2.717l-3.165-0.344
				L324.792,303.977z"/>
		</g>
		<g>
			<path fill="#495DAA" d="M332.87,303.475c0,0.615-1.956,1.118-4.362,1.118c-2.405,0-4.354-0.503-4.354-1.118
				c0-0.619,1.948-1.117,4.354-1.117C330.914,302.357,332.87,302.855,332.87,303.475z"/>
			<path fill="#3C2517" d="M328.508,305.137c-0.818,0-4.897-0.082-4.897-1.662c0-1.578,4.079-1.662,4.897-1.662
				c0.82,0,4.903,0.084,4.903,1.662C333.411,305.055,329.328,305.137,328.508,305.137z M324.812,303.475
				c0.442,0.241,1.72,0.578,3.694,0.578c1.979,0,3.256-0.337,3.698-0.578c-0.442-0.246-1.715-0.578-3.698-0.578
				C326.532,302.896,325.256,303.229,324.812,303.475z"/>
		</g>
		<g>
			<path fill="#29337A" d="M343.016,303.868c0,0.614-1.953,1.118-4.358,1.118c-2.402,0-4.354-0.504-4.354-1.118v-3.377l5.009-0.341
				l3.63,0.4L343.016,303.868z"/>
			<path fill="#3C2517" d="M338.656,305.525c-0.819,0-4.898-0.078-4.898-1.657v-3.377c0-0.287,0.224-0.521,0.506-0.544l5.01-0.336
				l3.728,0.396c0.269,0.031,0.476,0.258,0.483,0.529l0.075,3.314C343.56,305.447,339.477,305.525,338.656,305.525z
				 M334.846,300.998v2.87c0.147,0.116,1.504,0.573,3.812,0.573c2.315,0,3.668-0.453,3.846-0.69l-0.088-2.711l-3.165-0.34
				L334.846,300.998z"/>
		</g>
		<g>
			<path fill="#495DAA" d="M342.917,300.491c0,0.616-1.949,1.118-4.354,1.118c-2.409,0-4.357-0.502-4.357-1.118
				c0-0.619,1.948-1.122,4.357-1.122C340.968,299.369,342.917,299.872,342.917,300.491z"/>
			<path fill="#3C2517" d="M338.562,302.152c-0.819,0-4.898-0.082-4.898-1.661c0-1.582,4.079-1.666,4.898-1.666
				c0.814,0,4.9,0.084,4.9,1.666C343.464,302.07,339.378,302.152,338.562,302.152z M334.864,300.491
				c0.44,0.237,1.72,0.573,3.698,0.573c1.978,0,3.251-0.336,3.692-0.573c-0.441-0.241-1.71-0.578-3.692-0.578
				C336.579,299.913,335.306,300.25,334.864,300.491z"/>
		</g>
		<g>
			<path fill="#29337A" d="M334.227,300.333c0,0.615-1.955,1.118-4.358,1.118c-2.413,0-4.358-0.503-4.358-1.118v-3.377l5.001-0.335
				l3.634,0.396L334.227,300.333z"/>
			<path fill="#3C2517" d="M329.867,301.991c-0.823,0-4.905-0.079-4.905-1.658v-3.377c0-0.282,0.223-0.517,0.51-0.539l5.004-0.337
				l3.729,0.393c0.268,0.031,0.476,0.258,0.483,0.529l0.083,3.314C334.771,301.912,330.683,301.991,329.867,301.991z
				 M326.05,297.461v2.871c0.146,0.121,1.502,0.574,3.817,0.574c2.312,0,3.668-0.453,3.846-0.691l-0.095-2.711l-3.165-0.345
				L326.05,297.461z"/>
		</g>
		<g>
			<path fill="#495DAA" d="M334.124,296.956c0,0.616-1.952,1.122-4.358,1.122c-2.404,0-4.357-0.506-4.357-1.122
				c0-0.619,1.953-1.122,4.357-1.122C332.172,295.833,334.124,296.336,334.124,296.956z"/>
			<path fill="#3C2517" d="M329.766,298.618c-0.818,0-4.901-0.083-4.901-1.662c0-1.583,4.083-1.661,4.901-1.661
				c0.82,0,4.899,0.078,4.899,1.661C334.665,298.535,330.586,298.618,329.766,298.618z M326.068,296.952
				c0.44,0.246,1.718,0.577,3.696,0.577c1.979,0,3.257-0.331,3.694-0.577c-0.438-0.241-1.711-0.569-3.694-0.569
				C327.783,296.382,326.507,296.71,326.068,296.952z"/>
		</g>
		<g>
			<path fill="#29337A" d="M323.858,303.236c0,0.615-1.952,1.119-4.362,1.119c-2.402,0-4.358-0.504-4.358-1.119v-3.377l5.009-0.33
				l3.634,0.389L323.858,303.236z"/>
			<path fill="#3C2517" d="M319.496,304.898c-0.819,0-4.902-0.082-4.902-1.662v-3.377c0-0.289,0.228-0.524,0.51-0.539l5.005-0.332
				l3.729,0.39c0.267,0.03,0.479,0.257,0.482,0.528l0.08,3.316C324.399,304.816,320.316,304.898,319.496,304.898z M315.682,300.367
				v2.869c0.147,0.121,1.499,0.578,3.814,0.578c2.316,0,3.671-0.457,3.85-0.69l-0.096-2.716l-3.161-0.34L315.682,300.367z"/>
		</g>
		<g>
			<path fill="#495DAA" d="M323.757,299.859c0,0.621-1.949,1.119-4.358,1.119c-2.401,0-4.354-0.498-4.354-1.119
				c0-0.618,1.953-1.121,4.354-1.121C321.808,298.739,323.757,299.241,323.757,299.859z"/>
			<path fill="#3C2517" d="M319.397,301.52c-0.819,0-4.898-0.076-4.898-1.66c0-1.582,4.079-1.661,4.898-1.661
				s4.902,0.079,4.902,1.661C324.301,301.443,320.218,301.52,319.397,301.52z M315.707,299.859c0.436,0.242,1.712,0.578,3.69,0.578
				c1.985,0,3.264-0.336,3.697-0.578c-0.438-0.24-1.715-0.573-3.697-0.573C317.419,299.286,316.146,299.619,315.707,299.859z"/>
		</g>
		<g>
			<path fill="#29337A" d="M313.022,306.455c0,0.62-1.952,1.122-4.362,1.122s-4.359-0.502-4.359-1.122v-3.376l5.009-0.333
				l3.63,0.393L313.022,306.455z"/>
			<path fill="#3C2517" d="M308.66,308.117c-0.819,0-4.903-0.076-4.903-1.662v-3.376c0-0.287,0.229-0.521,0.507-0.54l5.01-0.333
				l3.728,0.39c0.269,0.033,0.479,0.256,0.482,0.528l0.079,3.319C313.562,308.041,309.477,308.117,308.66,308.117z M304.845,303.584
				v2.87c0.148,0.124,1.504,0.581,3.815,0.581c2.314,0,3.667-0.457,3.845-0.689l-0.09-2.717l-3.161-0.343L304.845,303.584z"/>
		</g>
		<g>
			<ellipse fill="#495DAA" cx="308.562" cy="303.079" rx="4.357" ry="1.117"/>
			<path fill="#3C2517" d="M308.562,304.744c-0.815,0-4.901-0.079-4.901-1.665c0-1.579,4.086-1.662,4.901-1.662
				c0.818,0,4.897,0.083,4.897,1.662C313.46,304.665,309.381,304.744,308.562,304.744z M304.868,303.079
				c0.438,0.245,1.715,0.577,3.692,0.577c1.983,0,3.258-0.332,3.697-0.577c-0.439-0.242-1.714-0.574-3.697-0.574
				C306.587,302.504,305.306,302.836,304.868,303.079z"/>
		</g>
		<g>
			<path fill="#29337A" d="M302.262,309.205c0,0.619-1.952,1.122-4.357,1.122c-2.41,0-4.358-0.503-4.358-1.122v-3.377l5.008-0.332
				l3.63,0.393L302.262,309.205z"/>
			<path fill="#3C2517" d="M297.903,310.867c-0.819,0-4.902-0.076-4.902-1.662v-3.377c0-0.287,0.224-0.521,0.511-0.54l5.004-0.336
				l3.725,0.396c0.271,0.03,0.476,0.258,0.482,0.528l0.083,3.315C302.806,310.791,298.723,310.867,297.903,310.867z
				 M294.089,306.331v2.874c0.146,0.121,1.503,0.578,3.814,0.578c2.314,0,3.668-0.457,3.845-0.688l-0.09-2.716l-3.17-0.345
				L294.089,306.331z"/>
		</g>
		<g>
			<ellipse fill="#495DAA" cx="297.804" cy="305.828" rx="4.36" ry="1.118"/>
			<path fill="#3C2517" d="M297.805,307.494c-0.818,0-4.904-0.087-4.904-1.666s4.086-1.661,4.904-1.661
				c0.819,0,4.903,0.082,4.903,1.661S298.624,307.494,297.805,307.494z M294.107,305.828c0.438,0.246,1.719,0.574,3.696,0.574
				c1.98,0,3.257-0.328,3.693-0.574c-0.44-0.245-1.713-0.574-3.693-0.574C295.826,305.253,294.55,305.583,294.107,305.828z"/>
		</g>
		<g>
			<polygon fill="#861719" points="366.48,351.289 387.647,360.641 387.519,372.719 384.792,375.182 365.96,367.65 			"/>
			<path fill="#3C2517" d="M384.792,375.727c-0.067,0-0.136-0.017-0.203-0.037l-18.829-7.531c-0.212-0.084-0.348-0.297-0.34-0.521
				l0.521-16.361c0.004-0.182,0.098-0.348,0.254-0.446c0.146-0.09,0.34-0.104,0.505-0.037l21.166,9.353
				c0.2,0.09,0.329,0.287,0.325,0.506l-0.133,12.078c-0.004,0.145-0.063,0.295-0.175,0.393l-2.727,2.472
				C385.053,375.68,384.924,375.727,384.792,375.727z M366.52,367.288l18.159,7.269l2.3-2.078l0.121-11.488l-20.101-8.877
				L366.52,367.288z"/>
		</g>
		<g>
			<polygon fill="#B11F24" points="384.924,359.084 384.792,375.182 407.903,368.3 407.903,351.682 			"/>
			<path fill="#3C2517" d="M384.792,375.727c-0.117,0-0.234-0.037-0.325-0.105c-0.144-0.105-0.218-0.271-0.218-0.438l0.127-16.105
				c0.004-0.232,0.155-0.438,0.381-0.514l22.979-7.402c0.163-0.055,0.345-0.023,0.486,0.082c0.145,0.099,0.224,0.266,0.224,0.438
				V368.3c0,0.241-0.154,0.454-0.39,0.521l-23.114,6.882C384.897,375.718,384.841,375.727,384.792,375.727z M385.461,359.477
				l-0.117,14.979l22.02-6.558v-15.471L385.461,359.477z"/>
		</g>
		<g>
			<polygon fill="#861719" points="320.256,329.475 332.984,334.544 335.446,341.423 330.386,350.126 311.812,342.852 
				311.946,331.941 			"/>
			<path fill="#3C2517" d="M330.386,350.669c-0.067,0-0.137-0.015-0.201-0.037l-18.562-7.274c-0.216-0.082-0.353-0.286-0.347-0.515
				l0.128-10.905c0-0.237,0.163-0.445,0.386-0.514l8.312-2.47c0.117-0.038,0.241-0.03,0.355,0.015l12.729,5.065
				c0.144,0.06,0.258,0.177,0.311,0.323l2.463,6.884c0.056,0.151,0.041,0.317-0.039,0.454l-5.064,8.701
				C330.756,350.572,330.574,350.669,330.386,350.669z M312.362,342.48l17.785,6.965l4.7-8.074l-2.3-6.415l-12.32-4.91l-7.745,2.306
				L312.362,342.48z"/>
		</g>
		<g>
			<polygon fill="#C12026" points="377.132,319.996 377.132,335.575 330.386,350.126 330.518,333.63 			"/>
			<path fill="#3C2517" d="M330.386,350.669c-0.114,0-0.23-0.037-0.325-0.104c-0.136-0.106-0.223-0.266-0.223-0.446l0.131-16.491
				c0.005-0.242,0.167-0.45,0.395-0.521l46.619-13.631c0.161-0.05,0.34-0.012,0.476,0.088c0.136,0.102,0.216,0.265,0.216,0.435
				v15.579c0,0.24-0.155,0.445-0.382,0.52l-46.744,14.553C330.494,350.662,330.438,350.669,330.386,350.669z M331.057,334.035
				l-0.128,15.352l45.663-14.207v-14.459L331.057,334.035z"/>
		</g>
		<g>
			<polygon fill="#CDAD2C" points="297.665,347.005 319.866,356.623 318.828,368.43 316.102,370.77 297.4,363.239 			"/>
			<path fill="#3C2517" d="M316.102,371.307c-0.067,0-0.141-0.009-0.203-0.037l-18.701-7.523c-0.207-0.092-0.344-0.295-0.336-0.514
				l0.262-16.233c0-0.183,0.094-0.349,0.246-0.444c0.154-0.093,0.34-0.113,0.509-0.047l22.209,9.608
				c0.207,0.09,0.34,0.317,0.32,0.544l-1.038,11.822c-0.008,0.144-0.08,0.271-0.188,0.361l-2.728,2.334
				C316.354,371.27,316.229,371.307,316.102,371.307z M297.953,362.869l18.045,7.273l2.308-1.979l0.986-11.202l-21.098-9.133
				L297.953,362.869z"/>
		</g>
		<g>
			<polygon fill="#F2D21F" points="316.102,354.666 316.102,370.77 362.844,356.479 362.716,339.734 			"/>
			<path fill="#3C2517" d="M316.102,371.307c-0.113,0-0.23-0.029-0.325-0.099c-0.141-0.104-0.219-0.265-0.219-0.438v-16.104
				c0-0.234,0.149-0.445,0.377-0.521l46.618-14.929c0.159-0.048,0.345-0.024,0.479,0.08c0.141,0.099,0.228,0.261,0.23,0.435
				l0.129,16.748c0,0.242-0.155,0.453-0.386,0.521l-46.747,14.284C316.207,371.307,316.154,371.307,316.102,371.307z
				 M316.646,355.066v14.972l45.653-13.959l-0.121-15.601L316.646,355.066z"/>
		</g>
		<g>
			<polygon fill="#29337A" points="308.181,320.904 304.672,317.529 286.104,310.129 285.843,326.88 304.544,334.279 
				310.391,326.62 			"/>
			<path fill="#3C2517" d="M304.544,334.82c-0.068,0-0.136-0.008-0.197-0.037l-18.702-7.396c-0.209-0.088-0.346-0.291-0.346-0.515
				l0.262-16.75c0.004-0.183,0.094-0.345,0.246-0.442c0.146-0.099,0.332-0.119,0.498-0.056l18.571,7.401
				c0.064,0.027,0.125,0.067,0.173,0.113l3.51,3.377c0.057,0.058,0.1,0.119,0.128,0.192l2.206,5.718
				c0.071,0.174,0.042,0.374-0.071,0.521l-5.848,7.658C304.872,334.744,304.709,334.82,304.544,334.82z M286.393,326.51
				l17.971,7.111l5.412-7.089l-2.055-5.318l-3.347-3.218l-17.737-7.07L286.393,326.51z"/>
		</g>
		<g>
			<polygon fill="#32469D" points="304.672,317.529 351.423,304.025 351.423,319.221 304.544,334.279 			"/>
			<path fill="#3C2517" d="M304.544,334.82c-0.114,0-0.228-0.037-0.317-0.105c-0.145-0.099-0.227-0.265-0.224-0.441l0.128-16.748
				c0.005-0.237,0.163-0.448,0.396-0.518l46.747-13.498c0.157-0.05,0.34-0.016,0.476,0.088c0.131,0.102,0.219,0.26,0.219,0.43
				v15.193c0,0.235-0.159,0.442-0.378,0.514l-46.88,15.062C304.656,334.816,304.6,334.82,304.544,334.82z M305.216,317.941
				l-0.121,15.591l45.78-14.707v-14.077L305.216,317.941z"/>
		</g>
	</g>
	<g>
		<g>
			<path fill="#FBAE61" d="M217.277,248.108c0,0-6.928,3.052-21.212-3.641c-12.403-5.813-14.487,6.598-10.968,11.739
				c0.536,0.78,3.482,2.837,4.661,3.396c3.671,1.727,10.771,3.265,27.56,1.916c-0.729,0.582-5.362,3.363-5.362,3.363
				s-5.617-3.936-11.622,0.945c-6.005,4.876-9.457,18.382-2.807,25.717c4.752,5.395,10.851,1.885,10.851,1.885
				s3.736-0.363,8.574-5.744c2.142-2.47,9.563-4.131,9.563-4.131s16.884-2.271,25.374,0.633c8.486,2.908,13.928,7.517,19.221-1.262
				c5.3-8.773-0.483-23.111-6.575-25.24c-2.911-1.729-6.479-0.449-6.479-0.449l-6.369-3.985l-2.093-9.468L217.277,248.108z"/>
			<path fill="#3C2517" d="M203.872,295.363c-2.658,0-5.064-1.131-6.953-3.279c-2.806-3.093-4.144-7.559-3.761-12.559
				c0.438-5.774,3.056-11.402,6.662-14.33c1.462-1.188,3.01-1.979,4.63-2.36c-6.749-0.099-11.678-0.917-15.035-2.5
				c-1.141-0.532-4.299-2.662-4.986-3.663c-1.982-2.895-2.231-7.615-0.573-10.757c2.107-3.992,6.769-4.895,12.554-2.187
				c7.516,3.523,12.902,4.26,16.094,4.26c2.946,0,4.435-0.62,4.449-0.627c0.068-0.026,0.14-0.049,0.212-0.057l32.315-4.328
				c0.423-0.064,0.815,0.215,0.907,0.631l2.015,9.129l5.77,3.605c0.535-0.145,1.57-0.381,2.799-0.381
				c1.504,0,2.84,0.344,3.979,1.023c2.86,0.979,5.812,4.66,7.565,9.527c2.217,6.139,1.944,12.436-0.703,16.836
				c-2.263,3.745-4.773,5.49-7.912,5.49c-2.459,0-5.026-1.043-8-2.242c-1.338-0.545-2.756-1.119-4.274-1.637
				c-2.783-0.951-6.829-1.439-12.02-1.439c-6.676,0-12.917,0.828-12.977,0.836c-1.926,0.435-7.448,1.998-9.064,3.858
				c-4.456,4.964-8.078,5.851-8.921,5.998C208.114,294.486,206.241,295.363,203.872,295.363z M206.762,264.195
				c-2.077,0-4.07,0.763-5.915,2.262c-3.226,2.618-5.665,7.924-6.064,13.193c-0.348,4.551,0.842,8.584,3.346,11.347
				c1.605,1.819,3.535,2.737,5.744,2.737c2.293,0,4.083-1.002,4.103-1.014c0.103-0.056,0.212-0.094,0.329-0.104
				c0.026-0.003,3.523-0.448,8.044-5.479c2.281-2.633,9.678-4.31,9.99-4.382c0.133-0.019,6.478-0.86,13.268-0.86
				c5.371,0,9.595,0.514,12.549,1.525c1.543,0.525,2.99,1.109,4.357,1.666c2.813,1.137,5.246,2.122,7.389,2.122
				c2.545,0,4.55-1.446,6.515-4.702c2.401-3.984,2.617-9.752,0.565-15.439c-1.566-4.352-4.202-7.734-6.711-8.611
				c-1.03-0.598-2.094-0.859-3.301-0.859c-1.47,0-2.63,0.402-2.641,0.406c-0.234,0.08-0.495,0.057-0.707-0.076l-6.372-3.982
				c-0.185-0.117-0.312-0.307-0.364-0.52l-1.927-8.735l-31.478,4.219c-0.445,0.17-2.104,0.714-4.979,0.714
				c-3.356,0-8.996-0.771-16.784-4.419c-2.039-0.952-3.871-1.435-5.45-1.435c-2.841,0-4.271,1.583-4.975,2.909
				c-1.397,2.655-1.19,6.643,0.476,9.076c0.401,0.574,3.154,2.558,4.341,3.116c4.921,2.314,13.826,2.906,27.145,1.838
				c0.351-0.032,0.69,0.186,0.823,0.516c0.129,0.336,0.025,0.717-0.253,0.937c-0.752,0.597-4.975,3.135-5.451,3.423
				c-0.275,0.169-0.622,0.155-0.884-0.029C211.468,265.536,209.5,264.195,206.762,264.195z M208.949,262.801
				c1.386,0.299,2.44,0.809,3.007,1.125c0.698-0.419,1.499-0.906,2.247-1.369C212.367,262.673,210.611,262.755,208.949,262.801z"/>
		</g>
		<g>
			<path fill="#FDCD9C" d="M211.441,224.744c-2.848-0.234-5.385-1.544-6.893-3.848c-2.912-4.453-0.884-10.935,4.54-14.477
				c5.416-3.55,12.166-2.817,15.081,1.639c0,0,17.533-5.431,28.505,7.286c11.195-7.037,17.026,1.968,18.271,3.833
				c1.242,1.87,5.084,17.14-12.697,17.144l-0.887,1.359c0,0,4.517,10.87-6.316,15.595c-10.828,4.718-36.163,3.75-42.078-19.395
				C207.646,228.087,211.441,224.744,211.441,224.744z"/>
			<path fill="#3C2517" d="M238.715,256.357c-5.828,0-25.253-1.605-30.54-22.276c-0.959-4.204,0.552-7.207,1.684-8.755
				c-2.537-0.559-4.667-1.964-5.989-3.988c-1.545-2.357-1.885-5.295-0.952-8.264c0.914-2.916,2.946-5.521,5.723-7.342
				c2.375-1.556,5.038-2.375,7.696-2.375c3.415,0,6.358,1.363,8.17,3.761c1.251-0.325,4.427-1.027,8.468-1.027
				c5.692,0,13.695,1.439,19.86,8.204c7.356-4.34,13.993-2.769,18.749,4.37c1.038,1.564,2.541,7.607,0.02,12.321
				c-2.143,3.988-6.482,6.058-12.91,6.148l-0.428,0.649c0.717,2.13,3.301,11.792-6.889,16.238
				C247.968,255.504,243.354,256.357,238.715,256.357z M216.336,204.983c-2.307,0-4.724,0.748-6.802,2.115
				c-2.467,1.609-4.264,3.906-5.065,6.458c-0.781,2.5-0.51,4.948,0.764,6.89c1.318,2.024,3.547,3.259,6.276,3.486
				c0.326,0.026,0.602,0.246,0.704,0.555c0.102,0.306,0.012,0.65-0.231,0.865c-0.14,0.125-3.414,3.124-2.22,8.344
				c4.992,19.51,23.424,21.033,28.953,21.033c4.423,0,8.801-0.804,12.008-2.201c9.982-4.352,6.062-14.121,5.889-14.533
				c-0.106-0.249-0.08-0.536,0.068-0.755l0.887-1.359c0.147-0.234,0.403-0.37,0.684-0.37c6.025,0,10.035-1.783,11.916-5.295
				c2.32-4.329,0.627-9.798,0.105-10.583c-4.461-6.701-10.354-7.879-17.158-3.6c-0.344,0.215-0.788,0.147-1.051-0.155
				c-5.818-6.746-13.593-8.158-19.088-8.158c-4.887,0-8.527,1.104-8.566,1.118c-0.34,0.105-0.721-0.031-0.921-0.333
				C222.024,206.268,219.419,204.983,216.336,204.983z"/>
		</g>
		<g>
			<path fill="#EDA9CB" d="M213.637,219.589c0,0,1.352-3.69,6.27-7.173c-2.561-4.676-6.451-3.093-8.287-1.964
				c-0.634,0.389-1.304,1.088-1.601,1.677C209.126,213.886,208.038,217.651,213.637,219.589z"/>
			<path fill="#3C2517" d="M213.637,220.405c-0.092,0-0.182-0.015-0.269-0.045c-2.364-0.819-3.894-2.051-4.543-3.664
				c-0.748-1.851-0.16-3.705,0.468-4.936c0.366-0.726,1.13-1.53,1.896-2.002c0.98-0.604,2.495-1.318,4.146-1.318
				c1.515,0,3.66,0.623,5.283,3.588c0.2,0.363,0.095,0.816-0.245,1.054c-4.614,3.271-5.964,6.757-5.975,6.791
				C214.274,220.201,213.961,220.405,213.637,220.405z M215.336,210.068c-1.27,0-2.493,0.584-3.294,1.076
				c-0.506,0.313-1.065,0.896-1.3,1.349c-0.471,0.937-0.925,2.312-0.407,3.596c0.407,1.004,1.375,1.835,2.879,2.47
				c0.634-1.238,2.243-3.814,5.612-6.356C217.881,210.77,216.733,210.068,215.336,210.068z"/>
		</g>
		<g>
			<path fill="#EDA9CB" d="M257.773,229.171c0,0,0.543-3.897-2.153-9.283c4.465-2.92,7.149,0.309,8.237,2.167
				c0.377,0.643,0.631,1.575,0.623,2.232C264.439,226.263,263.628,230.093,257.773,229.171z"/>
			<path fill="#3C2517" d="M259.454,230.123c-0.562,0-1.175-0.053-1.81-0.151c-0.435-0.068-0.736-0.476-0.68-0.914
				c0.008-0.034,0.461-3.743-2.074-8.808c-0.185-0.367-0.063-0.816,0.283-1.043c1.322-0.869,2.629-1.307,3.868-1.307
				c2.896,0,4.698,2.342,5.519,3.743c0.448,0.767,0.744,1.835,0.736,2.655C265.223,227.947,263.035,230.123,259.454,230.123z
				 M258.635,228.457c3.316,0.298,4.963-1.114,5.031-4.188c0.007-0.517-0.213-1.292-0.51-1.802
				c-0.643-1.099-2.029-2.935-4.113-2.935c-0.741,0-1.533,0.223-2.363,0.672C258.453,224.035,258.657,227.067,258.635,228.457z"/>
		</g>
		<g>
			<path fill="#3C2517" d="M248.906,232.174c-0.016,0-0.023,0-0.035,0c-0.449-0.02-0.805-0.397-0.781-0.843
				c0.169-4.506-5.202-6.489-5.258-6.512c-0.42-0.15-0.638-0.615-0.491-1.042c0.154-0.419,0.615-0.642,1.043-0.488
				c0.271,0.095,6.549,2.418,6.33,8.102C249.698,231.83,249.336,232.174,248.906,232.174z"/>
		</g>
		<g>
			<path fill="#3C2517" d="M221.499,224.397c-0.177,0-0.354-0.061-0.505-0.178c-0.355-0.279-0.408-0.793-0.129-1.145
				c3.645-4.562,9.499-3.388,9.748-3.335c0.441,0.094,0.722,0.525,0.627,0.963c-0.094,0.438-0.51,0.725-0.962,0.635
				c-0.204-0.045-5.13-1.013-8.14,2.757C221.976,224.292,221.742,224.397,221.499,224.397z"/>
		</g>
		<g>
			<path fill="#678CC8" d="M230.534,232.125c0.438,2.084-1.059,4.162-3.339,4.638c-2.281,0.483-4.487-0.823-4.925-2.904
				c-0.438-2.085,1.058-4.162,3.339-4.642C227.894,228.741,230.096,230.04,230.534,232.125z"/>
			<path fill="#3C2517" d="M226.243,237.677c-2.355,0-4.317-1.499-4.77-3.652c-0.528-2.519,1.253-5.035,3.969-5.601
				c2.709-0.57,5.367,1.046,5.89,3.535c0.26,1.235-0.021,2.5-0.787,3.565c-0.751,1.042-1.885,1.768-3.184,2.04
				C226.991,237.639,226.617,237.677,226.243,237.677z M226.561,229.934c-0.26,0-0.524,0.026-0.781,0.083
				c-1.839,0.382-3.056,2.032-2.713,3.671c0.337,1.62,2.127,2.666,3.959,2.281c0.907-0.188,1.685-0.688,2.198-1.396
				c0.495-0.688,0.676-1.496,0.511-2.282C229.446,230.901,228.14,229.934,226.561,229.934z"/>
		</g>
		<g>
			<path fill="#678CC8" d="M245.85,236.362c0.442,2.085-1.058,4.162-3.334,4.646c-2.286,0.476-4.487-0.824-4.926-2.908
				c-0.438-2.085,1.058-4.163,3.338-4.642C243.209,232.978,245.415,234.277,245.85,236.362z"/>
			<path fill="#3C2517" d="M241.563,241.922c-2.357,0-4.322-1.503-4.771-3.657c-0.529-2.523,1.249-5.034,3.969-5.604
				c2.705-0.559,5.367,1.046,5.886,3.539c0.26,1.236-0.021,2.497-0.787,3.562c-0.748,1.042-1.876,1.768-3.18,2.04
				C242.312,241.881,241.937,241.922,241.563,241.922z M241.876,234.172c-0.26,0-0.517,0.03-0.781,0.083
				c-1.836,0.385-3.053,2.036-2.708,3.679c0.34,1.616,2.142,2.659,3.962,2.274c0.899-0.189,1.681-0.684,2.191-1.394
				c0.498-0.692,0.68-1.5,0.513-2.282C244.763,235.143,243.459,234.172,241.876,234.172z"/>
		</g>
		<g>
			<path fill="#333333" d="M228.88,233.001c0.256,1.224-0.619,2.44-1.957,2.719c-1.336,0.28-2.628-0.483-2.885-1.699
				c-0.253-1.22,0.619-2.44,1.957-2.72C227.331,231.022,228.623,231.785,228.88,233.001z"/>
			<path fill="#3C2517" d="M226.368,236.597c-1.545,0-2.829-0.994-3.123-2.41c-0.348-1.658,0.809-3.308,2.583-3.682
				s3.501,0.691,3.845,2.33c0.352,1.658-0.809,3.309-2.583,3.687C226.852,236.57,226.61,236.597,226.368,236.597z M226.549,232.057
				c-0.124,0-0.257,0.016-0.388,0.042c-0.892,0.188-1.488,0.978-1.322,1.752c0.158,0.759,1.034,1.261,1.918,1.076
				c0.892-0.188,1.488-0.974,1.322-1.756C227.942,232.518,227.315,232.057,226.549,232.057z"/>
		</g>
		<g>
			<path fill="#333333" d="M243.671,237.246c0.248,1.201-0.608,2.395-1.919,2.671c-1.312,0.275-2.576-0.473-2.829-1.67
				c-0.254-1.201,0.608-2.391,1.922-2.67C242.151,235.305,243.418,236.053,243.671,237.246z"/>
			<path fill="#3C2517" d="M241.208,240.789c-1.519,0-2.787-0.979-3.083-2.375c-0.343-1.636,0.801-3.268,2.546-3.634
				c1.741-0.363,3.452,0.684,3.792,2.304c0.163,0.756,0.009,1.538-0.426,2.202c-0.473,0.726-1.243,1.247-2.12,1.428
				C241.685,240.763,241.446,240.789,241.208,240.789z M241.386,236.336c-0.125,0-0.254,0.012-0.374,0.038
				c-0.872,0.185-1.45,0.948-1.292,1.703c0.151,0.737,1.013,1.228,1.866,1.042c0.453-0.098,0.854-0.358,1.088-0.721
				c0.195-0.303,0.269-0.65,0.195-0.979C242.741,236.782,242.13,236.336,241.386,236.336z"/>
		</g>
		<g>
			<path fill="#F389AF" d="M196.772,246.821c4.404,1.598,7.097,5.307,6.016,8.283c-1.079,2.987-5.529,4.109-9.93,2.513
				c-4.407-1.599-7.1-5.312-6.02-8.291C187.919,246.341,192.364,245.223,196.772,246.821z"/>
			<path fill="#3C2517" d="M196.852,259.157c-1.394,0-2.871-0.272-4.269-0.774c-2.284-0.83-4.222-2.217-5.45-3.917
				c-1.303-1.791-1.68-3.713-1.061-5.42c0.846-2.327,3.414-3.77,6.708-3.77c1.394,0,2.871,0.269,4.268,0.778
				c2.281,0.827,4.216,2.213,5.449,3.913c1.304,1.791,1.674,3.717,1.059,5.416C202.713,257.71,200.146,259.157,196.852,259.157z
				 M192.78,246.908c-2.592,0-4.57,1.035-5.175,2.696c-0.431,1.179-0.128,2.569,0.846,3.905c1.042,1.437,2.704,2.626,4.685,3.343
				c1.224,0.438,2.507,0.678,3.716,0.678c2.587,0,4.57-1.035,5.175-2.697c0.427-1.182,0.128-2.568-0.847-3.909
				c-1.043-1.435-2.704-2.618-4.684-3.335C195.269,247.142,193.985,246.908,192.78,246.908z"/>
		</g>
		<g>
			<path fill="#3C2517" d="M208.436,294.241c-0.269,0-0.528-0.134-0.685-0.37c-0.241-0.374-0.136-0.877,0.239-1.126
				c0.313-0.203,7.584-5.117,5.087-17.026c-2.463-11.73-10.153-10.421-10.478-10.371c-0.445,0.09-0.868-0.203-0.952-0.646
				c-0.083-0.445,0.209-0.872,0.65-0.951c0.098-0.019,9.586-1.64,12.374,11.632c2.733,13.051-5.447,18.504-5.794,18.73
				C208.741,294.199,208.587,294.241,208.436,294.241z"/>
		</g>
		<g>
			<path fill="#3C2517" d="M257.615,287.26c-0.151,0-0.299-0.041-0.432-0.123c-0.252-0.156-6.127-3.914-7.327-11.722
				c-4.186-15.209,7.848-18.926,7.969-18.964c0.435-0.133,0.88,0.122,1.009,0.552c0.125,0.435-0.117,0.884-0.548,1.013
				c-0.438,0.129-10.613,3.34-6.84,17.058c1.105,7.172,6.545,10.651,6.598,10.685c0.383,0.238,0.498,0.74,0.257,1.122
				C258.15,287.128,257.887,287.26,257.615,287.26z"/>
		</g>
		<g>
			<path fill="#FBAE61" d="M239.138,258.439c0,0-1.669,9.287-10.907,16.021c0,0-8.098,8.619,4.445,14.08
				c12.539,5.462,16.562-14.447,16.562-14.447l3.786-15.893"/>
			<path fill="#3C2517" d="M236.854,290.301c-1.442,0-2.943-0.337-4.507-1.017c-4.268-1.861-6.746-4.31-7.357-7.277
				c-0.883-4.286,2.505-7.95,2.647-8.106c8.956-6.541,10.686-15.519,10.701-15.608c0.083-0.444,0.513-0.733,0.943-0.657
				c0.446,0.079,0.737,0.504,0.657,0.943c-0.067,0.395-1.835,9.691-11.225,16.54l0,0c0.02,0-2.833,3.153-2.122,6.567
				c0.498,2.418,2.658,4.473,6.409,6.106c2.64,1.151,5.071,1.168,7.225,0.046c5.961-3.102,8.196-13.794,8.219-13.902l3.785-15.92
				c0.104-0.438,0.541-0.71,0.981-0.607c0.438,0.104,0.706,0.548,0.604,0.982l-3.784,15.896c-0.087,0.442-2.398,11.53-9.051,14.997
				C239.674,289.961,238.296,290.301,236.854,290.301z"/>
		</g>
		<g>
			
				<ellipse transform="matrix(0.0464 -0.9989 0.9989 0.0464 -85.8518 470.0793)" fill="#E46B91" cx="203.288" cy="280.006" rx="10.415" ry="7.048"/>
			<path fill="#3C2517" d="M203.046,291.227l-0.258-0.004c-2.16-0.105-4.111-1.406-5.498-3.672c-1.319-2.16-1.972-4.975-1.836-7.908
				c0.28-6.092,3.845-10.858,8.112-10.858l0.262,0.004c4.331,0.2,7.618,5.397,7.33,11.579
				C210.879,286.457,207.313,291.227,203.046,291.227z M203.748,270.416c-3.523,0-6.428,4.173-6.671,9.299
				c-0.119,2.617,0.45,5.1,1.606,6.99c1.091,1.791,2.58,2.814,4.178,2.891l0.185,0.004c3.339,0,6.25-4.178,6.488-9.308
				C209.776,275.008,207.185,270.574,203.748,270.416L203.748,270.416z"/>
		</g>
		<g>
			<path fill="#E46B91" d="M270.895,270.725c1.375,6.534-1.104,12.586-5.528,13.51c-4.419,0.926-9.113-3.617-10.485-10.147
				c-1.365-6.535,1.104-12.588,5.526-13.519C264.828,259.639,269.523,264.195,270.895,270.725z"/>
			<path fill="#3C2517" d="M264.21,285.171c-4.54,0-8.801-4.592-10.127-10.923c-1.461-6.957,1.3-13.453,6.153-14.473
				c0.438-0.094,0.884-0.137,1.328-0.137c4.545,0,8.802,4.59,10.127,10.916c0.697,3.323,0.473,6.637-0.631,9.336
				c-1.151,2.811-3.111,4.635-5.521,5.141C265.102,285.123,264.654,285.171,264.21,285.171z M261.564,261.264
				c-0.332,0-0.668,0.038-0.988,0.105c-3.98,0.838-6.176,6.466-4.898,12.547c1.258,5.982,5.608,10.35,9.524,9.521
				c1.866-0.39,3.411-1.867,4.348-4.162c0.986-2.402,1.175-5.379,0.552-8.381C268.95,265.402,265.282,261.264,261.564,261.264z"/>
		</g>
		<g>
			<path fill="#EEF2BE" d="M244.222,254.967c0.964-0.129,1.134-1.574,1.489-2.492c2.262-5.93-2.604-13.294-10.871-16.453
				c-8.264-3.157-16.804-0.906-19.066,5.02c-0.649,1.696-0.709,3.517-0.279,5.314C215.494,246.356,224.898,257.471,244.222,254.967z
				"/>
			<path fill="#3C2517" d="M238.662,256.146h-0.003c-15.762,0-23.467-8.888-23.783-9.266c-0.088-0.095-0.145-0.212-0.175-0.336
				c-0.483-2.001-0.378-4.003,0.311-5.793c1.646-4.298,6.367-6.973,12.327-6.973c2.561,0,5.254,0.514,7.795,1.481
				c4.155,1.586,7.623,4.252,9.768,7.5c2.201,3.332,2.758,6.882,1.567,10.006c-0.067,0.182-0.132,0.394-0.192,0.607
				c-0.287,0.943-0.676,2.236-1.949,2.402C242.408,256.021,240.505,256.146,238.662,256.146z M216.242,245.963
				c1.035,1.118,8.498,8.559,22.417,8.559h0.003c1.771,0,3.606-0.123,5.454-0.365c0.227-0.026,0.468-0.823,0.597-1.25
				c0.075-0.258,0.151-0.504,0.234-0.721c1-2.62,0.498-5.647-1.405-8.529c-1.956-2.965-5.151-5.405-8.989-6.871
				c-2.357-0.902-4.85-1.378-7.214-1.378c-5.272,0-9.412,2.27-10.803,5.926C215.982,242.776,215.88,244.332,216.242,245.963z"/>
		</g>
		<g>
			<path fill="#F389AF" d="M237.865,243.924c-0.503,1.888-3.69,2.674-7.12,1.76c-3.433-0.914-5.808-3.18-5.31-5.061
				c0.502-1.889,3.69-2.674,7.123-1.76C235.988,239.777,238.368,242.043,237.865,243.924z"/>
			<path fill="#3C2517" d="M233.541,246.877c-0.982,0-1.99-0.135-3.007-0.407c-3.924-1.042-6.511-3.702-5.884-6.058
				c0.449-1.692,2.409-2.743,5.105-2.743c0.982,0,1.994,0.136,3.014,0.408c3.921,1.042,6.508,3.705,5.881,6.058
				C238.202,245.828,236.245,246.877,233.541,246.877z M229.756,239.297c-1.869,0-3.29,0.615-3.535,1.53
				c-0.328,1.242,1.533,3.217,4.729,4.071c2.849,0.755,5.772,0.144,6.127-1.182c0.332-1.239-1.529-3.215-4.729-4.068
				C231.463,239.414,230.595,239.297,229.756,239.297z"/>
		</g>
		<g>
			<path fill="#3C2517" d="M232.34,250.16c-4.756,0-7.913-3.588-8.06-3.758c-0.295-0.34-0.257-0.85,0.083-1.149
				c0.34-0.291,0.856-0.256,1.151,0.083c0.035,0.038,3.426,3.867,8.15,3.082c0.434-0.087,0.862,0.223,0.937,0.668
				c0.08,0.442-0.223,0.865-0.668,0.941C233.387,250.118,232.854,250.16,232.34,250.16z"/>
		</g>
		<g>
			<path fill="#3C2517" d="M228.989,249.449c-0.125,0-0.253-0.03-0.374-0.094c-0.4-0.204-0.556-0.695-0.348-1.095l1.526-2.942
				c0.212-0.396,0.702-0.551,1.096-0.347c0.399,0.208,0.558,0.698,0.351,1.099l-1.525,2.938
				C229.567,249.287,229.287,249.449,228.989,249.449z"/>
		</g>
	</g>
	<g>
		<g>
			<circle fill="#F3BC4A" cx="157.873" cy="116.823" r="33.116"/>
			<path fill="#3C2517" d="M157.873,151.026c-18.862,0-34.203-15.342-34.203-34.204c0-18.863,15.341-34.205,34.203-34.205
				s34.204,15.342,34.204,34.205C192.077,135.685,176.735,151.026,157.873,151.026z M157.873,84.786
				c-17.661,0-32.035,14.375-32.035,32.037c0,17.66,14.374,32.028,32.035,32.028s32.033-14.368,32.033-32.028
				C189.906,99.162,175.534,84.786,157.873,84.786z"/>
		</g>
		<g>
			<g>
				<path fill="#EF3F54" d="M160.373,149.81c0,1.382-1.116,2.5-2.5,2.5l0,0c-1.382,0-2.5-1.118-2.5-2.5v-5.998
					c0-1.383,1.118-2.5,2.5-2.5l0,0c1.384,0,2.5,1.118,2.5,2.5V149.81z"/>
				<path fill="#3C2517" d="M157.873,153.126c-1.827,0-3.315-1.488-3.315-3.316v-5.998c0-1.828,1.488-3.316,3.315-3.316
					c1.829,0,3.312,1.488,3.312,3.316v5.998C161.186,151.638,159.702,153.126,157.873,153.126z M157.873,142.128
					c-0.928,0-1.685,0.755-1.685,1.685v5.998c0,0.929,0.757,1.685,1.685,1.685c0.93,0,1.685-0.755,1.685-1.685v-5.998
					C159.558,142.883,158.803,142.128,157.873,142.128z"/>
			</g>
			<g>
				<path fill="#EF3F54" d="M160.373,89.825c0,1.383-1.116,2.5-2.5,2.5l0,0c-1.382,0-2.5-1.118-2.5-2.5v-5.994
					c0-1.386,1.118-2.5,2.5-2.5l0,0c1.384,0,2.5,1.114,2.5,2.5V89.825z"/>
				<path fill="#3C2517" d="M157.873,93.141c-1.827,0-3.315-1.488-3.315-3.316v-5.994c0-1.828,1.488-3.316,3.315-3.316
					c1.829,0,3.312,1.488,3.312,3.316v5.994C161.186,91.653,159.702,93.141,157.873,93.141z M157.873,82.146
					c-0.928,0-1.685,0.755-1.685,1.685v5.994c0,0.933,0.757,1.688,1.685,1.688c0.93,0,1.685-0.755,1.685-1.688v-5.994
					C159.558,82.902,158.803,82.146,157.873,82.146z"/>
			</g>
			<g>
				<path fill="#EF3F54" d="M190.865,114.322c1.378,0,2.5,1.118,2.5,2.501l0,0c0,1.374-1.122,2.493-2.5,2.493h-5.998
					c-1.382,0-2.497-1.119-2.497-2.493l0,0c0-1.383,1.115-2.501,2.497-2.501H190.865z"/>
				<path fill="#3C2517" d="M190.865,120.131h-5.998c-1.827,0-3.312-1.484-3.312-3.308c0-1.829,1.485-3.317,3.312-3.317h5.998
					c1.828,0,3.312,1.488,3.312,3.317C194.178,118.646,192.693,120.131,190.865,120.131z M184.867,115.138
					c-0.93,0-1.685,0.755-1.685,1.685c0,0.929,0.755,1.68,1.685,1.68h5.998c0.933,0,1.688-0.751,1.688-1.68
					c0-0.93-0.755-1.685-1.688-1.685H184.867z"/>
			</g>
			<g>
				<path fill="#EF3F54" d="M130.876,114.322c1.382,0,2.5,1.118,2.5,2.501l0,0c0,1.374-1.118,2.493-2.5,2.493h-5.998
					c-1.378,0-2.5-1.119-2.5-2.493l0,0c0-1.383,1.122-2.501,2.5-2.501H130.876z"/>
				<path fill="#3C2517" d="M130.876,120.131h-5.998c-1.827,0-3.312-1.484-3.312-3.308c0-1.829,1.485-3.317,3.312-3.317h5.998
					c1.828,0,3.316,1.488,3.316,3.317C134.192,118.646,132.704,120.131,130.876,120.131z M124.878,115.138
					c-0.93,0-1.685,0.755-1.685,1.685c0,0.929,0.755,1.68,1.685,1.68h5.998c0.93,0,1.685-0.751,1.685-1.68
					c0-0.93-0.755-1.685-1.685-1.685H124.878z"/>
			</g>
		</g>
		<g>
			<path fill="#14BCD8" d="M157.873,95.826c-1.382,0-2.5,1.054-2.5,2.361v3.263v2.391v11.108c0,3.101,1.118,5.62,2.5,5.62
				c1.384,0,2.5-2.519,2.5-5.62v-11.108v-2.391v-3.263C160.373,96.88,159.257,95.826,157.873,95.826z"/>
			<path fill="#3C2517" d="M157.873,121.385c-1.888,0-3.315-2.768-3.315-6.436V98.187c0-1.752,1.488-3.172,3.315-3.172
				c1.829,0,3.312,1.42,3.312,3.172v16.762C161.186,118.617,159.762,121.385,157.873,121.385z M157.873,96.639
				c-0.928,0-1.685,0.695-1.685,1.548v16.762c0,3.109,1.11,4.804,1.685,4.804c0.571,0,1.685-1.695,1.685-4.804V98.187
				C159.558,97.333,158.803,96.639,157.873,96.639z"/>
		</g>
		<g>
			<path fill="#14BCD8" d="M168.834,114.322c1.779,0,3.226,1.118,3.226,2.501l0,0c0,1.374-1.446,2.493-3.226,2.493h-7.738
				c-1.779,0-3.223-1.119-3.223-2.493l0,0c0-1.383,1.443-2.501,3.223-2.501H168.834z"/>
			<path fill="#3C2517" d="M168.834,120.131h-7.738c-2.225,0-4.038-1.484-4.038-3.308c0-1.829,1.813-3.317,4.038-3.317h7.738
				c2.229,0,4.038,1.488,4.038,3.317C172.872,118.646,171.062,120.131,168.834,120.131z M161.096,115.138
				c-1.304,0-2.406,0.771-2.406,1.685c0,0.91,1.103,1.68,2.406,1.68h7.738c1.308,0,2.41-0.77,2.41-1.68
				c0-0.915-1.103-1.685-2.41-1.685H161.096z"/>
		</g>
		<g>
			<path fill="#0D8E9B" d="M161.621,116.823c0,2.066-1.678,3.746-3.748,3.746c-2.069,0-3.751-1.68-3.751-3.746
				c0-2.07,1.682-3.747,3.751-3.747C159.943,113.076,161.621,114.752,161.621,116.823z"/>
			<path fill="#3C2517" d="M157.873,121.385c-2.516,0-4.562-2.047-4.562-4.562c0-2.516,2.046-4.563,4.562-4.563
				s4.563,2.047,4.563,4.563C162.437,119.337,160.389,121.385,157.873,121.385z M157.873,113.888c-1.616,0-2.938,1.318-2.938,2.935
				c0,1.616,1.322,2.93,2.938,2.93c1.616,0,2.932-1.314,2.932-2.93C160.805,115.206,159.489,113.888,157.873,113.888z"/>
		</g>
		<g>
			<path fill="#EF3F54" d="M157.873,79.703c-20.327,0-36.806,16.482-36.806,36.807c0,20.323,16.479,36.798,36.806,36.798
				c20.324,0,36.803-16.475,36.803-36.798C194.676,96.185,178.197,79.703,157.873,79.703z M157.873,147.812
				c-17.29,0-31.307-14.016-31.307-31.303c0-17.287,14.017-31.308,31.307-31.308c17.291,0,31.304,14.021,31.304,31.308
				C189.177,133.796,175.164,147.812,157.873,147.812z"/>
			<path fill="#3C2517" d="M157.873,154.123c-20.742,0-37.618-16.875-37.618-37.614c0-20.743,16.876-37.619,37.618-37.619
				c20.743,0,37.618,16.875,37.618,37.619C195.491,137.248,178.616,154.123,157.873,154.123z M157.873,80.519
				c-19.847,0-35.99,16.146-35.99,35.991c0,19.843,16.144,35.99,35.99,35.99c19.845,0,35.99-16.146,35.99-35.99
				C193.863,96.665,177.718,80.519,157.873,80.519z M157.873,148.624c-17.714,0-32.118-14.405-32.118-32.115
				s14.404-32.119,32.118-32.119c17.71,0,32.12,14.409,32.12,32.119S175.583,148.624,157.873,148.624z M157.873,86.018
				c-16.814,0-30.495,13.68-30.495,30.492c0,16.811,13.681,30.487,30.495,30.487s30.492-13.676,30.492-30.487
				C188.365,99.698,174.688,86.018,157.873,86.018z"/>
		</g>
	</g>
	<g>
		<path fill="#6A2B84" d="M168.831,384.382c-2.226-1.669-1.885-6.11-1.832-6.685c0.739-0.732,1.204-1.754,1.204-2.879
			c0-2.235-1.809-4.049-4.045-4.049c-2.236,0-4.049,1.812-4.049,4.049c0,1.23,0.555,2.334,1.424,3.082
			c0.072,0.996,0.224,4.955-1.847,6.504c-2.383,1.775-4.291,2.478-4.313,5.234c-0.022,2.758,2.255,3.361,6.164,3.762
			c2.047,0.068,2.938,0.009,3.036,0c0.491,0.017,1.27,0.017,2.403-0.022c3.912-0.407,6.19-1.004,6.168-3.761
			C173.117,386.861,171.214,386.157,168.831,384.382z"/>
		<path fill="#3C2517" d="M163.305,393.975c-0.46,0-1.05-0.007-1.782-0.029c-3.693-0.377-6.724-0.967-6.693-4.307
			c0.022-2.537,1.465-3.535,3.297-4.796c0.39-0.272,0.805-0.551,1.231-0.876c1.738-1.292,1.704-4.714,1.646-5.816
			c-0.918-0.868-1.438-2.068-1.438-3.332c0-2.528,2.062-4.592,4.593-4.592c2.531,0,4.589,2.062,4.589,4.592
			c0,1.172-0.435,2.268-1.227,3.121c-0.129,1.768,0.074,4.843,1.639,6.004c0.427,0.318,0.838,0.605,1.23,0.878
			c1.828,1.262,3.271,2.259,3.294,4.788c0.03,3.347-2.991,3.93-6.647,4.307c-1.212,0.046-1.979,0.046-2.47,0.03
			C164.514,393.945,164.112,393.975,163.305,393.975z M164.158,371.307c-1.934,0-3.505,1.58-3.505,3.512
			c0,1.021,0.449,1.996,1.231,2.668c0.113,0.091,0.182,0.227,0.188,0.369c0.092,1.209,0.204,5.287-2.065,6.98
			c-0.442,0.331-0.865,0.627-1.266,0.898c-1.753,1.209-2.81,1.94-2.825,3.912c-0.019,2.039,1.254,2.758,5.677,3.211
			c1.854,0.067,2.806,0.016,2.938,0.008c0.634,0,1.304,0.008,2.429-0.031c4.381-0.452,5.658-1.171,5.64-3.21
			c-0.021-1.972-1.077-2.704-2.83-3.913c-0.4-0.271-0.822-0.564-1.261-0.898c-2.417-1.806-2.139-6.283-2.055-7.168
			c0.015-0.121,0.067-0.242,0.158-0.324c0.676-0.674,1.05-1.557,1.05-2.502C167.663,372.886,166.088,371.307,164.158,371.307z"/>
	</g>
	<g>
		<g>
			<polygon fill="#F5803E" points="198.528,406.212 205.07,420.951 219.128,419.977 222.659,406.139 217.621,398.545 
				211.759,393.432 			"/>
			<path fill="#3C2517" d="M205.07,421.495c-0.216,0-0.408-0.128-0.499-0.325l-6.542-14.736c-0.09-0.205-0.045-0.445,0.122-0.604
				l13.23-12.79c0.203-0.188,0.524-0.204,0.732-0.016l5.865,5.115c0.037,0.029,0.068,0.066,0.099,0.104l5.034,7.6
				c0.087,0.128,0.11,0.279,0.071,0.431l-3.53,13.832c-0.058,0.227-0.253,0.399-0.487,0.408l-14.058,0.98
				C205.093,421.495,205.081,421.495,205.07,421.495z M199.178,406.341l6.232,14.043l13.287-0.921l3.377-13.22l-4.865-7.335
				l-5.432-4.736L199.178,406.341z"/>
		</g>
		<g>
			<polygon fill="#F7AC3D" points="211.759,393.432 220.782,410.58 225.217,417.121 231.909,414.484 224.616,401.4 			"/>
			<path fill="#3C2517" d="M225.217,417.658c-0.174,0-0.348-0.083-0.45-0.234l-4.434-6.542l-9.054-17.192
				c-0.113-0.219-0.067-0.482,0.11-0.649c0.177-0.165,0.449-0.188,0.656-0.067l12.853,7.971c0.084,0.053,0.145,0.119,0.189,0.203
				l7.293,13.076c0.079,0.144,0.091,0.301,0.038,0.445c-0.053,0.15-0.166,0.264-0.313,0.324l-6.692,2.629
				C225.353,417.65,225.284,417.658,225.217,417.658z M213.168,394.951l8.094,15.372l4.158,6.134l5.711-2.252l-6.919-12.411
				L213.168,394.951z"/>
		</g>
		<g>
			<polygon fill="#F04B2A" points="219.203,407.271 205.07,420.951 219.653,426.51 231.909,414.484 			"/>
			<path fill="#3C2517" d="M219.653,427.062c-0.064,0-0.129-0.017-0.193-0.037l-14.587-5.568c-0.173-0.06-0.297-0.211-0.34-0.399
				c-0.037-0.175,0.022-0.37,0.158-0.499l14.135-13.681c0.17-0.165,0.434-0.194,0.642-0.082l12.705,7.222
				c0.151,0.082,0.25,0.228,0.272,0.399c0.022,0.174-0.038,0.332-0.158,0.461l-12.253,12.025
				C219.929,427.001,219.793,427.062,219.653,427.062z M206.06,420.747l13.461,5.138l11.493-11.277l-11.728-6.664L206.06,420.747z"
				/>
		</g>
		<g>
			<path fill="#F5F5E6" d="M221.062,418.163c-0.68,0.81-1.754,1.028-2.388,0.491c-0.635-0.535-0.59-1.623,0.095-2.432
				c0.684-0.809,1.752-1.035,2.383-0.492C221.79,416.268,221.749,417.355,221.062,418.163z"/>
			<path fill="#3C2517" d="M219.518,420.038c-0.586,0-1.118-0.19-1.542-0.554c-0.562-0.476-0.864-1.2-0.834-1.985
				c0.03-0.702,0.312-1.403,0.801-1.979c1.034-1.224,2.855-1.52,3.916-0.611c0.556,0.468,0.861,1.193,0.827,1.979
				c-0.022,0.703-0.31,1.406-0.793,1.98C221.273,419.6,220.383,420.038,219.518,420.038z M220.337,416.555
				c-0.272,0-0.521,0.105-0.741,0.369c-0.173,0.204-0.271,0.446-0.278,0.657c-0.009,0.114,0.015,0.212,0.06,0.25l0.141,0.03
				c0.177,0,0.468-0.106,0.717-0.395c0.174-0.203,0.275-0.445,0.284-0.665c0.007-0.112-0.021-0.211-0.064-0.247
				C220.415,416.555,220.374,416.555,220.337,416.555z"/>
		</g>
		<g>
			<path fill="#F5F5E6" d="M221.885,404.837c0.711,0.894,0.847,1.972,0.291,2.41c-0.551,0.444-1.575,0.076-2.293-0.822
				c-0.71-0.893-0.838-1.972-0.287-2.409C220.148,403.577,221.175,403.939,221.885,404.837z"/>
			<path fill="#3C2517" d="M221.606,408.523c-0.899,0-1.859-0.527-2.569-1.418c-1.103-1.383-1.156-3.112-0.121-3.938
				c1.02-0.814,2.743-0.37,3.819,0.989c1.103,1.375,1.152,3.112,0.117,3.942C222.509,408.374,222.074,408.523,221.606,408.523z
				 M220.352,404.959c0.031,0.189,0.137,0.477,0.385,0.793c0.25,0.311,0.507,0.477,0.685,0.553c-0.03-0.188-0.133-0.477-0.382-0.795
				C220.79,405.202,220.529,405.035,220.352,404.959z"/>
		</g>
		<g>
			<path fill="#F5F5E6" d="M224.03,402.43c0.71,0.891,0.839,1.971,0.287,2.416c-0.551,0.438-1.579,0.067-2.289-0.824
				c-0.709-0.891-0.838-1.979-0.286-2.416C222.293,401.167,223.316,401.537,224.03,402.43z"/>
			<path fill="#3C2517" d="M223.746,406.116c-0.897,0-1.857-0.53-2.563-1.414c-1.121-1.412-1.176-3.104-0.12-3.943
				c1.012-0.808,2.738-0.36,3.813,0.991c0.639,0.801,0.949,1.729,0.854,2.561c-0.064,0.566-0.324,1.059-0.735,1.383
				C224.65,405.971,224.216,406.116,223.746,406.116z M222.493,402.557c0.034,0.188,0.137,0.477,0.385,0.793
				c0.253,0.311,0.51,0.478,0.685,0.545c-0.03-0.183-0.133-0.477-0.386-0.793C222.931,402.792,222.671,402.625,222.493,402.557z"/>
		</g>
		<g>
			<path fill="#F5F5E6" d="M210.033,406.311c0,1.028-0.819,1.858-1.828,1.858c-1.005,0-1.82-0.83-1.82-1.858
				c0-1.025,0.815-1.865,1.82-1.865C209.214,404.445,210.033,405.285,210.033,406.311z"/>
			<path fill="#3C2517" d="M208.205,409.257c-1.602,0-2.908-1.321-2.908-2.946c0-1.631,1.307-2.944,2.908-2.944
				s2.908,1.312,2.908,2.944C211.113,407.936,209.806,409.257,208.205,409.257z M208.205,405.533c-0.404,0-0.736,0.349-0.736,0.777
				c0,0.424,0.332,0.771,0.736,0.771c0.407,0,0.74-0.348,0.74-0.771C208.945,405.881,208.612,405.533,208.205,405.533z"/>
		</g>
		<g>
			<path fill="#F5F5E6" d="M215.744,406.5c0,1.027-0.815,1.859-1.82,1.859c-1.013,0-1.829-0.832-1.829-1.859
				c0-1.025,0.816-1.857,1.829-1.857C214.929,404.643,215.744,405.473,215.744,406.5z"/>
			<path fill="#3C2517" d="M213.924,409.445c-1.609,0-2.916-1.328-2.916-2.945c0-1.623,1.307-2.953,2.916-2.953
				c1.602,0,2.903,1.33,2.903,2.953C216.827,408.117,215.525,409.445,213.924,409.445z M213.924,405.723
				c-0.408,0-0.741,0.348-0.741,0.776c0,0.424,0.333,0.771,0.741,0.771c0.399,0,0.732-0.348,0.732-0.771
				C214.656,406.07,214.323,405.723,213.924,405.723z"/>
		</g>
		<g>
			<path fill="#F5F5E6" d="M211.798,399.997c0,1.026-0.821,1.858-1.825,1.858c-1.005,0-1.824-0.832-1.824-1.858
				s0.819-1.858,1.824-1.858C210.977,398.139,211.798,398.969,211.798,399.997z"/>
			<path fill="#3C2517" d="M209.973,402.943c-1.604,0-2.908-1.322-2.908-2.946s1.304-2.946,2.908-2.946
				c1.601,0,2.908,1.322,2.908,2.946S211.573,402.943,209.973,402.943z M209.973,399.218c-0.408,0-0.736,0.349-0.736,0.778
				c0,0.422,0.328,0.771,0.736,0.771c0.407,0,0.737-0.35,0.737-0.771C210.71,399.566,210.38,399.218,209.973,399.218z"/>
		</g>
		<g>
			<path fill="#F5F5E6" d="M204.542,406.719c0,1.035-0.816,1.866-1.821,1.866c-1.012,0-1.828-0.831-1.828-1.866
				c0-1.02,0.816-1.857,1.828-1.857C203.726,404.861,204.542,405.7,204.542,406.719z"/>
			<path fill="#3C2517" d="M202.721,409.665c-1.608,0-2.912-1.313-2.912-2.944c0-1.623,1.304-2.938,2.912-2.938
				c1.602,0,2.909,1.315,2.909,2.938C205.63,408.352,204.322,409.665,202.721,409.665z M202.721,405.949
				c-0.408,0-0.74,0.348-0.74,0.771c0,0.43,0.332,0.777,0.74,0.777c0.404,0,0.737-0.35,0.737-0.777
				C203.458,406.296,203.125,405.949,202.721,405.949z"/>
		</g>
		<g>
			<path fill="#F5F5E6" d="M208.228,413.336c0,1.034-0.819,1.866-1.828,1.866c-1.004,0-1.82-0.832-1.82-1.866
				c0-1.027,0.816-1.857,1.82-1.857C207.408,411.479,208.228,412.309,208.228,413.336z"/>
			<path fill="#3C2517" d="M206.399,416.283c-1.601,0-2.908-1.322-2.908-2.946s1.308-2.938,2.908-2.938
				c1.609,0,2.912,1.314,2.912,2.938S208.009,416.283,206.399,416.283z M206.399,412.566c-0.404,0-0.736,0.347-0.736,0.771
				c0,0.431,0.332,0.778,0.736,0.778c0.408,0,0.74-0.348,0.74-0.778C207.14,412.913,206.808,412.566,206.399,412.566z"/>
		</g>
	</g>
	<g>
		<g>
			<polygon fill="#E2E55A" points="201.443,311.318 186.631,312.975 174.379,321.616 186.556,329.626 201.969,321.501 			"/>
			<path fill="#3C2517" d="M186.556,330.169c-0.103,0-0.208-0.03-0.295-0.086l-12.185-8.015c-0.146-0.096-0.241-0.262-0.241-0.441
				c-0.004-0.179,0.083-0.35,0.226-0.454l12.257-8.646c0.076-0.053,0.162-0.088,0.253-0.094l14.813-1.654
				c0.144-0.021,0.294,0.025,0.408,0.121c0.117,0.097,0.188,0.236,0.192,0.389l0.524,10.188c0.016,0.211-0.098,0.407-0.287,0.506
				l-15.413,8.125C186.729,330.15,186.646,330.169,186.556,330.169z M175.342,321.6l11.243,7.396l14.821-7.807l-0.476-9.27
				l-14.099,1.574L175.342,321.6z"/>
		</g>
		<g>
			<polygon fill="#86B13F" points="174.379,321.616 196.482,319.743 201.293,328.124 197.082,338.607 180.694,338.948 			"/>
			<path fill="#3C2517" d="M180.694,339.492c-0.231,0-0.436-0.141-0.515-0.354l-6.314-17.334c-0.057-0.158-0.038-0.34,0.053-0.479
				c0.09-0.141,0.241-0.234,0.411-0.246l22.107-1.88c0.219-0.021,0.411,0.09,0.517,0.274l4.809,8.381
				c0.083,0.146,0.099,0.314,0.034,0.474l-4.212,10.479c-0.079,0.203-0.272,0.34-0.49,0.344l-16.393,0.341L180.694,339.492
				L180.694,339.492z M175.13,322.098l5.941,16.299l15.641-0.316l3.977-9.915l-4.509-7.853L175.13,322.098z"/>
		</g>
		<g>
			<polygon fill="#C0D13D" points="190.204,320.301 201.443,311.318 207.608,327.443 197.082,338.607 			"/>
			<path fill="#3C2517" d="M197.082,339.152c-0.034,0-0.072-0.004-0.11-0.008c-0.181-0.037-0.331-0.17-0.399-0.345l-6.878-18.307
				c-0.079-0.224-0.016-0.47,0.17-0.612l11.239-8.988c0.137-0.105,0.314-0.144,0.484-0.103c0.167,0.049,0.303,0.166,0.362,0.333
				l6.164,16.128c0.075,0.192,0.031,0.415-0.113,0.565l-10.522,11.164C197.373,339.091,197.229,339.152,197.082,339.152z
				 M190.85,320.482l6.432,17.121l9.7-10.285l-5.779-15.11L190.85,320.482z"/>
		</g>
		<g>
			<path fill="#F5F5E6" d="M200.847,322.682c0.481,1.014,0.193,2.155-0.634,2.541c-0.827,0.389-1.885-0.121-2.36-1.142
				c-0.479-1.017-0.192-2.16,0.634-2.546C199.313,321.15,200.371,321.662,200.847,322.682z"/>
			<path fill="#3C2517" d="M199.623,326.439c-1.132,0-2.213-0.744-2.757-1.896c-0.377-0.818-0.438-1.736-0.151-2.521
				c0.243-0.666,0.707-1.188,1.314-1.467c1.33-0.623,3.09,0.141,3.8,1.666c0.386,0.819,0.442,1.737,0.155,2.522
				c-0.238,0.665-0.706,1.187-1.311,1.465C200.341,326.363,199.994,326.439,199.623,326.439z M199.076,322.496
				c-0.231,0.07-0.291,0.181-0.321,0.264c-0.087,0.246-0.06,0.562,0.08,0.861c0.237,0.507,0.676,0.729,0.917,0.619
				c0.105-0.049,0.162-0.158,0.189-0.237c0.09-0.242,0.06-0.569-0.076-0.86C199.669,322.715,199.317,322.496,199.076,322.496z"/>
		</g>
		<g>
			<path fill="#F5F5E6" d="M189.736,314.507c0.215,0.601-0.54,1.412-1.685,1.82c-1.148,0.403-2.243,0.253-2.459-0.345
				c-0.212-0.596,0.544-1.407,1.688-1.815C188.421,313.759,189.524,313.911,189.736,314.507z"/>
			<path fill="#3C2517" d="M186.82,317.643c-1.122,0-1.96-0.483-2.251-1.293c-0.238-0.68-0.039-1.442,0.562-2.08
				c0.438-0.473,1.069-0.873,1.786-1.125c1.691-0.604,3.422-0.183,3.845,1c0.431,1.221-0.559,2.568-2.349,3.203
				C187.877,317.54,187.326,317.643,186.82,317.643z M188.232,315.043c-0.188,0.025-0.39,0.076-0.585,0.145
				c-0.22,0.084-0.401,0.17-0.548,0.264c0.189-0.029,0.394-0.074,0.585-0.146C187.907,315.225,188.089,315.134,188.232,315.043z"/>
		</g>
		<g>
			<path fill="#F5F5E6" d="M191.148,317.607c0.211,0.598-0.544,1.412-1.692,1.816c-1.141,0.412-2.24,0.258-2.454-0.34
				c-0.213-0.598,0.544-1.408,1.691-1.82C189.833,316.857,190.937,317.011,191.148,317.607z"/>
			<path fill="#3C2517" d="M188.226,320.744c-1.118,0-1.957-0.484-2.244-1.297c-0.438-1.213,0.551-2.563,2.342-3.202
				c1.707-0.612,3.426-0.183,3.845,0.997c0.435,1.221-0.552,2.572-2.345,3.206C189.29,320.641,188.738,320.744,188.226,320.744z
				 M189.645,318.145c-0.192,0.021-0.393,0.074-0.588,0.144c-0.22,0.08-0.404,0.17-0.553,0.265c0.189-0.025,0.393-0.076,0.59-0.146
				C189.313,318.327,189.498,318.234,189.645,318.145z"/>
		</g>
		<g>
			<path fill="#F5F5E6" d="M189.227,325.135c0,1.028-0.797,1.854-1.786,1.854c-0.987,0-1.783-0.826-1.783-1.854
				c0-1.025,0.796-1.861,1.783-1.861C188.43,323.273,189.227,324.109,189.227,325.135z"/>
			<path fill="#3C2517" d="M187.44,328.078c-1.584,0-2.871-1.322-2.871-2.941c0-1.629,1.287-2.949,2.871-2.949
				c1.582,0,2.869,1.32,2.869,2.949C190.31,326.755,189.022,328.078,187.44,328.078z M187.44,324.361c-0.386,0-0.7,0.348-0.7,0.773
				c0,0.424,0.314,0.775,0.7,0.775c0.384,0,0.698-0.354,0.698-0.775C188.139,324.708,187.824,324.361,187.44,324.361z"/>
		</g>
		<g>
			<path fill="#F5F5E6" d="M186.692,329.925c0,1.03-0.802,1.865-1.791,1.865c-0.986,0-1.783-0.835-1.783-1.865
				c0-1.028,0.797-1.862,1.783-1.862C185.891,328.062,186.692,328.896,186.692,329.925z"/>
			<path fill="#3C2517" d="M184.901,332.871c-1.583,0-2.871-1.316-2.871-2.945c0-1.625,1.288-2.945,2.871-2.945
				c1.582,0,2.87,1.32,2.87,2.945C187.771,331.553,186.483,332.871,184.901,332.871z M184.901,329.15
				c-0.385,0-0.699,0.349-0.699,0.774c0,0.431,0.314,0.778,0.699,0.778c0.386,0,0.703-0.35,0.703-0.778
				C185.604,329.499,185.287,329.15,184.901,329.15z"/>
		</g>
		<g>
			<path fill="#F5F5E6" d="M192.629,334.623c0,1.031-0.801,1.863-1.786,1.863c-0.986,0-1.786-0.832-1.786-1.863
				c0-1.025,0.8-1.857,1.786-1.857C191.828,332.766,192.629,333.596,192.629,334.623z"/>
			<path fill="#3C2517" d="M190.843,337.57c-1.582,0-2.871-1.318-2.871-2.947c0-1.623,1.289-2.941,2.871-2.941
				c1.582,0,2.87,1.318,2.87,2.941C193.713,336.251,192.425,337.57,190.843,337.57z M190.843,333.854
				c-0.39,0-0.698,0.347-0.698,0.77c0,0.432,0.309,0.777,0.698,0.777c0.385,0,0.698-0.346,0.698-0.777
				C191.541,334.2,191.228,333.854,190.843,333.854z"/>
		</g>
		<g>
			<path fill="#F5F5E6" d="M184.886,335.299c0,1.031-0.801,1.862-1.79,1.862c-0.985,0-1.782-0.831-1.782-1.862
				c0-1.025,0.797-1.854,1.782-1.854C184.085,333.445,184.886,334.273,184.886,335.299z"/>
			<path fill="#3C2517" d="M183.096,338.25c-1.579,0-2.87-1.322-2.87-2.95c0-1.62,1.291-2.942,2.87-2.942
				c1.586,0,2.871,1.322,2.871,2.942C185.967,336.927,184.682,338.25,183.096,338.25z M183.096,334.525
				c-0.386,0-0.698,0.352-0.698,0.773c0,0.43,0.312,0.773,0.698,0.773c0.386,0,0.702-0.344,0.702-0.773
				C183.798,334.876,183.481,334.525,183.096,334.525z"/>
		</g>
		<g>
			<ellipse fill="#F5F5E6" cx="179.603" cy="325.755" rx="1.787" ry="1.858"/>
			<path fill="#3C2517" d="M179.603,328.701c-1.583,0-2.87-1.325-2.87-2.945c0-1.628,1.287-2.949,2.87-2.949s2.87,1.321,2.87,2.949
				C182.473,327.375,181.186,328.701,179.603,328.701z M179.603,324.98c-0.389,0-0.699,0.348-0.699,0.774s0.311,0.772,0.699,0.772
				c0.385,0,0.699-0.346,0.699-0.772S179.987,324.98,179.603,324.98z"/>
		</g>
	</g>
	<g>
		<path fill="#ED1F6C" d="M213.001,366.684c-2.228-1.662-1.888-6.11-1.835-6.678c0.744-0.732,1.208-1.753,1.208-2.886
			c0-2.229-1.812-4.05-4.049-4.05c-2.235,0-4.048,1.82-4.048,4.05c0,1.237,0.555,2.342,1.427,3.082
			c0.072,0.997,0.224,4.955-1.851,6.512c-2.379,1.774-4.286,2.478-4.313,5.235c-0.022,2.757,2.259,3.354,6.168,3.753
			c2.052,0.067,2.936,0.008,3.037,0.008c0.491,0.008,1.265,0.008,2.401-0.03c3.909-0.398,6.19-1.005,6.165-3.754
			C217.288,369.162,215.381,368.467,213.001,366.684z"/>
		<path fill="#3C2517" d="M207.473,376.285c-0.458,0-1.046-0.008-1.783-0.038c-3.693-0.369-6.719-0.959-6.688-4.306
			c0.022-2.537,1.469-3.535,3.297-4.789c0.385-0.272,0.801-0.56,1.231-0.877c1.733-1.299,1.706-4.713,1.646-5.815
			c-0.914-0.868-1.439-2.069-1.439-3.339c0-2.531,2.059-4.586,4.589-4.586c2.531,0,4.593,2.055,4.593,4.586
			c0,1.171-0.434,2.273-1.228,3.127c-0.132,1.768,0.072,4.835,1.636,6.006c0.431,0.316,0.846,0.604,1.239,0.876
			c1.828,1.261,3.267,2.251,3.293,4.789c0.027,3.339-2.998,3.929-6.654,4.306c-0.767,0.022-1.349,0.03-1.806,0.03h-0.665
			C208.688,376.254,208.281,376.285,207.473,376.285z M208.325,353.616c-1.934,0-3.505,1.569-3.505,3.505
			c0,1.027,0.454,1.995,1.236,2.666c0.108,0.099,0.177,0.227,0.188,0.371c0.087,1.215,0.2,5.287-2.066,6.986
			c-0.438,0.324-0.865,0.627-1.265,0.898c-1.753,1.209-2.811,1.936-2.83,3.906c-0.016,2.039,1.258,2.764,5.682,3.217
			c1.857,0.061,2.81,0.008,2.938,0l0.695,0.008c0.446,0,1.016-0.008,1.729-0.037c4.389-0.445,5.658-1.172,5.643-3.211
			c-0.015-1.972-1.072-2.695-2.824-3.904c-0.401-0.279-0.824-0.574-1.27-0.898c-2.417-1.807-2.134-6.285-2.052-7.169
			c0.012-0.129,0.068-0.25,0.16-0.34c0.676-0.658,1.045-1.55,1.045-2.493C211.83,355.186,210.26,353.616,208.325,353.616z"/>
	</g>
	<g>
		<path fill="#4FA0CA" d="M159.947,350.964c-2.226-1.662-1.893-6.104-1.84-6.678c0.748-0.733,1.212-1.753,1.212-2.878
			c0-2.237-1.812-4.055-4.045-4.055c-2.235,0-4.049,1.816-4.049,4.055c0,1.23,0.553,2.334,1.425,3.074
			c0.071,0.996,0.223,4.963-1.854,6.504c-2.38,1.781-4.283,2.484-4.307,5.234c-0.025,2.766,2.255,3.36,6.164,3.762
			c2.048,0.076,2.936,0.008,3.037,0.008c0.491,0.009,1.265,0.009,2.402-0.03c3.912-0.399,6.189-1.005,6.164-3.755
			C164.233,353.449,162.33,352.739,159.947,350.964z"/>
		<path fill="#3C2517" d="M154.414,360.564c-0.457,0-1.043-0.008-1.779-0.037c-3.693-0.369-6.719-0.959-6.689-4.307
			c0.023-2.537,1.47-3.535,3.302-4.787c0.385-0.272,0.801-0.561,1.228-0.877c1.733-1.293,1.703-4.714,1.646-5.816
			c-0.917-0.868-1.439-2.07-1.439-3.331c0-2.537,2.062-4.599,4.593-4.599c2.531,0,4.586,2.062,4.586,4.599
			c0,1.163-0.431,2.266-1.224,3.118c-0.137,1.762,0.067,4.828,1.635,5.998c0.432,0.324,0.843,0.611,1.235,0.877
			c1.829,1.269,3.271,2.267,3.294,4.797c0.03,3.339-2.996,3.928-6.655,4.306c-0.785,0.022-1.382,0.03-1.843,0.03h-0.627
			C155.623,360.535,155.222,360.564,154.414,360.564z M155.274,337.898c-1.933,0-3.505,1.569-3.505,3.511
			c0,1.021,0.445,1.993,1.232,2.657c0.112,0.1,0.181,0.229,0.188,0.379c0.09,1.209,0.195,5.287-2.066,6.979
			c-0.442,0.325-0.865,0.628-1.265,0.899c-1.753,1.201-2.812,1.935-2.826,3.904c-0.022,2.041,1.254,2.766,5.673,3.219
			c1.852,0.062,2.803,0.009,2.938,0h0.658c0.449,0,1.035-0.008,1.771-0.03c4.386-0.444,5.662-1.171,5.64-3.211
			c-0.015-1.972-1.072-2.695-2.825-3.904c-0.4-0.28-0.823-0.573-1.27-0.907c-2.421-1.805-2.129-6.275-2.047-7.16
			c0.012-0.127,0.067-0.241,0.159-0.332c0.672-0.666,1.05-1.557,1.05-2.492C158.78,339.468,157.205,337.898,155.274,337.898z"/>
	</g>
</g>
</svg>
