<?xml version="1.0" encoding="utf-8"?>
<!-- Generator: Adobe Illustrator 16.0.0, SVG Export Plug-In . SVG Version: 6.00 Build 0)  -->
<!DOCTYPE svg PUBLIC "-//W3C//DTD SVG 1.1//EN" "http://www.w3.org/Graphics/SVG/1.1/DTD/svg11.dtd">
<svg version="1.1" id="Layer_1" xmlns="http://www.w3.org/2000/svg" xmlns:xlink="http://www.w3.org/1999/xlink" x="0px" y="0px"
	 width="500px" height="500px" viewBox="0 0 500 500" enable-background="new 0 0 500 500" xml:space="preserve">
<g id="Layer_1_copy_36">
	<g>
		<polygon fill="#F58020" points="281.732,344.957 343.752,330.373 343.752,272.589 302.67,255.891 282.525,259.341 
			264.764,290.346 		"/>
		<path fill="#27140E" d="M281.729,347.257c-0.986,0-1.892-0.635-2.193-1.616l-16.971-54.611c-0.189-0.613-0.116-1.271,0.201-1.826
			l17.76-31.012c0.343-0.594,0.936-1.01,1.613-1.121l20.14-3.45c0.432-0.071,0.857-0.021,1.26,0.142l41.083,16.697
			c0.867,0.352,1.435,1.193,1.435,2.131v57.783c0,1.066-0.732,1.998-1.772,2.236l-62.027,14.584
			C282.082,347.236,281.9,347.257,281.729,347.257z M267.256,290.623l16.036,51.605l58.161-13.683v-54.403l-39.04-15.873
			l-18.427,3.152L267.256,290.623z"/>
	</g>
	<g>
		<polygon fill="#43AB53" points="301.344,244.491 247.003,254.564 256.548,287.96 281.732,278.156 327.852,269.675 
			310.621,241.842 		"/>
		<path fill="#27140E" d="M256.548,291.417c-0.524,0-1.052-0.127-1.534-0.358c-0.867-0.437-1.517-1.214-1.785-2.146l-9.542-33.403
			c-0.268-0.931-0.126-1.939,0.385-2.765c0.512-0.826,1.351-1.397,2.304-1.574l54.176-10.042l9.125-2.606
			c1.485-0.42,3.069,0.19,3.88,1.503l17.23,27.832c0.597,0.973,0.686,2.172,0.219,3.215c-0.458,1.037-1.41,1.793-2.533,1.996
			l-45.797,8.426l-24.875,9.686C257.396,291.333,256.971,291.417,256.548,291.417z M251.366,257.268l7.461,26.108l21.649-8.438
			c0.205-0.076,0.416-0.133,0.629-0.176l41.147-7.568l-13.192-21.312l-6.771,1.933c-0.105,0.029-0.211,0.057-0.32,0.078
			L251.366,257.268z"/>
	</g>
	<g>
		<polygon fill="#E01D42" points="247.003,254.564 281.732,278.156 281.732,344.957 247.535,317.916 		"/>
		<path fill="#27140E" d="M281.732,347.257c-0.508,0-1.016-0.17-1.428-0.502l-34.198-27.035c-0.544-0.43-0.868-1.086-0.875-1.782
			l-0.529-63.353c-0.007-0.86,0.462-1.644,1.221-2.053c0.752-0.402,1.665-0.353,2.373,0.127l34.723,23.592
			c0.637,0.431,1.015,1.144,1.015,1.903v66.802c0,0.881-0.509,1.688-1.304,2.065C282.413,347.18,282.07,347.257,281.732,347.257z
			 M249.828,316.794L279.43,340.2v-60.832l-30.083-20.438L249.828,316.794z"/>
	</g>
	<g>
		<polygon fill="#F6EB16" points="431.756,345.613 466.743,318.712 466.743,253.239 420.619,250.057 401.537,283.988 		"/>
		<path fill="#27140E" d="M431.756,347.914c-0.174,0-0.354-0.016-0.521-0.057c-0.675-0.156-1.238-0.607-1.542-1.229l-30.222-61.631
			c-0.336-0.685-0.313-1.479,0.06-2.138l19.087-33.933c0.434-0.769,1.284-1.213,2.162-1.164l46.119,3.182
			c1.21,0.078,2.145,1.087,2.145,2.293v65.474c0,0.711-0.331,1.39-0.896,1.82l-34.986,26.905
			C432.754,347.75,432.256,347.914,431.756,347.914z M404.137,284.061l28.444,58.02l31.858-24.504v-62.186l-42.525-2.936
			L404.137,284.061z"/>
	</g>
	<g>
		<polygon fill="#E01D42" points="402.333,241.842 466.743,253.239 430.425,278.156 411.876,303.074 373.707,271.792 
			362.311,247.143 		"/>
		<path fill="#27140E" d="M411.876,305.371c-0.53,0-1.049-0.182-1.461-0.52l-38.169-31.275c-0.269-0.225-0.482-0.5-0.627-0.816
			l-11.396-24.649c-0.308-0.663-0.282-1.432,0.069-2.074c0.356-0.642,0.988-1.079,1.715-1.171l40.024-5.305
			c0.231-0.028,0.472-0.028,0.701,0.014l64.407,11.399c0.921,0.164,1.654,0.867,1.85,1.777c0.196,0.918-0.175,1.855-0.945,2.385
			l-35.996,24.697l-18.332,24.613c-0.374,0.502-0.935,0.834-1.562,0.912C412.062,305.365,411.967,305.371,411.876,305.371z
			 M375.572,270.354l35.894,29.41l17.114-22.984c0.152-0.203,0.339-0.379,0.547-0.521l31.675-21.729l-58.521-10.358l-36.575,4.85
			L375.572,270.354z"/>
	</g>
	<g>
		<polygon fill="#43AB53" points="371.847,267.023 371.584,331.432 431.756,345.218 431.223,277.626 		"/>
		<path fill="#27140E" d="M431.756,347.52c-0.17,0-0.347-0.021-0.516-0.06l-60.168-13.787c-1.053-0.239-1.792-1.176-1.789-2.248
			l0.265-64.407c0-0.679,0.304-1.328,0.825-1.758c0.525-0.438,1.211-0.621,1.88-0.5l59.375,10.602
			c1.087,0.191,1.888,1.137,1.898,2.244l0.527,67.592c0.003,0.705-0.313,1.377-0.859,1.812
			C432.785,347.341,432.273,347.52,431.756,347.52z M373.894,329.605l55.54,12.721l-0.495-62.766l-54.802-9.793L373.894,329.605z"/>
	</g>
	<g>
		<path fill="none" stroke="#27140E" stroke-width="2.3009" stroke-miterlimit="10" d="M77.842,301.889"/>
	</g>
	<g>
		<g>
			<path fill="#F4BE78" d="M182.588,407.671c0,0,74.518-13.545,95.364-48.465c20.842-34.914,0.534-58.888-31.521-57.317
				c-32.057,1.559-25.022,9.895-25.022,9.895l-35.175,51.594l-19.802,16.156v22.41L182.588,407.671z"/>
		</g>
		<g>
			<path fill="#27140E" d="M182.588,409.973c-0.262,0-0.522-0.043-0.769-0.136l-16.159-5.729c-0.917-0.323-1.531-1.198-1.531-2.166
				v-22.409c0-0.693,0.314-1.351,0.848-1.787l19.544-15.943l34.226-50.194c-0.356-1.058-0.469-2.412,0.155-3.836
				c2.049-4.713,11.016-7.388,27.417-8.185c17.63-0.858,31.751,5.58,38.426,17.332c6.644,11.697,4.928,27.136-4.821,43.468
				c-8.917,14.948-27.992,27.838-56.683,38.305c-21.175,7.729-40.053,11.211-40.243,11.244
				C182.863,409.964,182.722,409.973,182.588,409.973z M168.732,400.314l14.035,4.979c7.033-1.377,74.105-15.272,93.206-47.267
				c8.863-14.85,10.557-28.643,4.77-38.836c-5.793-10.202-18.402-15.803-34.197-15.008c-20.289,0.982-23.062,4.656-23.408,5.385
				c-0.172,0.354-0.027,0.644,0.079,0.791c0.563,0.781,0.641,1.918,0.091,2.716l-35.174,51.598
				c-0.123,0.185-0.275,0.339-0.444,0.488l-18.956,15.463L168.732,400.314L168.732,400.314z"/>
		</g>
	</g>
	<g>
		<path fill="#60421F" d="M60.12,348.266c0,0-32.825,10.045-13.544,35.506c19.28,25.459,52.111,17.649,52.111,17.649l6.251-36.479
			L60.12,348.266z"/>
		<path fill="#27140E" d="M86.991,404.852h-0.003c-12.47,0-29.926-3.416-42.247-19.691c-5.93-7.83-7.838-15.18-5.679-21.854
			c3.9-12.07,19.718-17.037,20.388-17.242c0.483-0.146,1.002-0.135,1.475,0.041l44.817,16.68c1.038,0.389,1.65,1.451,1.464,2.539
			l-6.253,36.484c-0.156,0.903-0.841,1.633-1.736,1.852C99.013,403.708,94.127,404.852,86.991,404.852z M60.088,350.707
			c-2.909,1.051-13.914,5.516-16.651,14.031c-1.665,5.158,0.007,11.09,4.974,17.643c11.181,14.766,27.149,17.869,38.578,17.869
			h0.003c4.359,0,7.841-0.471,9.693-0.789l5.665-33.029L60.088,350.707z"/>
	</g>
	<g>
		<path fill="#3059A7" d="M227.402,359.207c0,0-37.521,21.369-59.411,12.51c-20.323,20.844-66.7,8.336-66.7,8.336
			s-32.311-5.734-41.171-31.787c-8.853-26.055,17.722-46.377,17.722-46.377l129.236-26.061l-1.986,21.445l40.027-1.123
			C245.119,296.15,255.542,324.292,227.402,359.207z"/>
		<path fill="#27140E" d="M130.931,386.072c-15.96,0-29.665-3.641-30.239-3.795c-1.178-0.197-33.556-6.236-42.747-33.271
			c-3.858-11.359-1.855-23.449,5.798-34.977c5.684-8.559,12.417-13.758,12.702-13.978c0.275-0.213,0.601-0.358,0.942-0.422
			l129.235-26.062c0.721-0.133,1.454,0.064,1.994,0.546c0.539,0.491,0.821,1.204,0.751,1.924l-1.742,18.856l37.431-1.043
			c0.98,0.013,1.877,0.578,2.219,1.494c0.448,1.207,10.55,29.777-18.081,65.307c-0.18,0.226-0.405,0.41-0.652,0.55
			c-1.072,0.614-26.519,14.963-48.158,14.963c-4.377,0-8.349-0.601-11.823-1.791C160.271,382.143,147.625,386.072,130.931,386.072z
			 M78.844,304.031c-3.175,2.619-24.181,21.023-16.543,43.494c8.324,24.485,39.082,30.207,39.392,30.264
			c0.332,0.078,13.908,3.682,29.238,3.682c16.147,0,28.063-3.822,35.418-11.365c0.652-0.662,1.643-0.873,2.508-0.52
			c3.251,1.311,7.128,1.98,11.526,1.98c19.051,0,42.289-12.387,45.506-14.152c22.92-28.67,19.062-52.705,17.517-58.914
			l-38.251,1.072c-0.645,0.016-1.29-0.246-1.741-0.727c-0.448-0.479-0.67-1.128-0.61-1.783l1.696-18.363L78.844,304.031z"/>
	</g>
	<g>
		<path fill="#7D4D1F" d="M186.496,394.643c1.301,17.977-4.398,22.963-18.486,22.42c-14.085-0.529-13.562-20.07-13.562-20.07
			l-0.004-13.221C154.443,383.771,185.19,376.66,186.496,394.643z"/>
		<path fill="#27140E" d="M169.939,419.404c-0.649,0-1.323-0.014-2.018-0.041c-12.939-0.488-15.979-14.896-15.774-22.437
			l-0.003-13.155c0-1.072,0.736-1.996,1.78-2.242c0.254-0.059,6.335-1.447,13.322-1.447c13.221,0,20.872,5.115,21.542,14.398
			c0.713,9.812-0.643,16.196-4.265,20.084C181.451,417.873,176.816,419.404,169.939,419.404z M156.747,385.662v11.33
			c-0.021,0.762-0.282,17.332,11.351,17.777c6.466,0.239,10.688-0.789,13.058-3.336c2.688-2.894,3.654-8.17,3.045-16.621
			c-0.487-6.718-6.19-10.123-16.953-10.123C162.954,384.689,158.955,385.273,156.747,385.662z"/>
	</g>
	<g>
		<path fill="#60421F" d="M172.422,395.947c-0.205,10.773,2.35,25.276-19.76,26.836c-18.539-2.604-14.893,2.604-29.484,5.735
			c-14.593,3.123-45.336,3.123-45.336-26.646c8.856-32.762,42.207-23.385,42.207-23.385s19.026,8.465,29.153,5.785
			C159.322,381.6,172.631,385.167,172.422,395.947z"/>
		<path fill="#27140E" d="M110.251,432.166c-6.47,0-15.726-1.037-23.062-5.963c-7.731-5.176-11.646-13.365-11.646-24.33
			c0-0.197,0.024-0.402,0.077-0.6c6.193-22.904,23.937-26.326,33.961-26.326c6.296,0,10.903,1.27,11.093,1.324
			c0.109,0.028,0.212,0.069,0.314,0.112c0.134,0.064,13.869,6.117,23.64,6.117l0,0c1.524,0,2.864-0.153,3.986-0.453
			c2.327-0.612,4.768-0.924,7.259-0.924c6.265,0,11.791,1.978,15.175,5.418c2.476,2.524,3.746,5.793,3.679,9.446
			c-0.025,1.058-0.015,2.16-0.007,3.271c0.061,10.238,0.147,24.256-21.894,25.814c-0.163,0.016-0.321,0.006-0.483-0.017
			c-3.277-0.459-5.923-0.684-8.1-0.684c-4.54,0-6.409,0.938-9.241,2.35c-2.508,1.257-5.626,2.814-11.34,4.041
			C119.464,431.664,114.701,432.16,110.251,432.166z M80.142,402.184c0.071,9.178,3.302,15.979,9.607,20.204
			c6.378,4.273,14.667,5.17,20.502,5.17c4.138,0,8.557-0.459,12.443-1.291c5.144-1.1,7.855-2.461,10.251-3.653
			c3.04-1.523,5.672-2.834,11.297-2.834c2.339,0,5.118,0.225,8.498,0.688c17.495-1.317,17.438-10.969,17.375-21.176
			c-0.007-1.158-0.014-2.295,0.007-3.396c0.05-2.42-0.748-4.485-2.363-6.131c-2.482-2.531-6.928-4.041-11.887-4.041
			c-2.06,0-4.166,0.269-6.081,0.775c-1.506,0.395-3.245,0.598-5.164,0.598l0,0c-10.25,0-23.583-5.67-25.34-6.434
			c-0.776-0.197-4.663-1.121-9.707-1.121C98.998,379.544,85.33,383.482,80.142,402.184z"/>
	</g>
	<g>
		<g>
			<path fill="#F4BE78" d="M134.744,243.877c0,0,58.524-6.793,74.51-11.583c15.996-4.79,46.031-29.733,46.031-29.733
				s11.456,12.344,22.189,8.651c10.733-3.696,16.404-0.758,18.846-0.455c2.438,0.307,15.229-1.375,2.055-12.435
				c-1.969-2.943-12.105-2.46-12.105-2.46s5.174-10.901,13.39-4.894c8.212,6.01,18.536,12.733,18.536,12.733
				s7.529-5.966-11.362-24.026c-11.81-13.974-29.541-4.559-34.274-3.704c-4.723,0.855-39.967,11.145-60.375,18.053
				c-20.402,6.917-64.627,3.2-64.627,3.2L134.744,243.877z"/>
		</g>
		<g>
			<path fill="#27140E" d="M134.744,246.184c-0.67,0-1.306-0.289-1.746-0.804c-0.498-0.582-0.675-1.372-0.473-2.109l12.807-46.659
				c0.297-1.068,1.299-1.79,2.413-1.684c0.12,0.01,11.946,0.991,25.957,0.991c16.828,0,29.88-1.409,37.738-4.076
				c19.958-6.755,55.774-17.243,60.705-18.138c0.631-0.112,1.746-0.481,3.037-0.908c3.645-1.203,9.149-3.021,15.114-3.021
				c7.379,0,13.506,2.798,18.211,8.317c9.199,8.813,13.729,16.226,13.457,22.035c-0.165,3.552-2.124,5.199-2.343,5.375
				c-0.782,0.612-1.858,0.662-2.688,0.123c-0.103-0.065-10.469-6.824-18.638-12.801c-1.234-0.905-2.416-1.364-3.513-1.364
				c-1.638,0-3.06,1.004-4.148,2.144c6.853,0.391,8.754,2.215,9.453,3.153c5.31,4.519,7.319,8.301,6.13,11.561
				c-1.368,3.768-6.469,4.773-9.267,4.773c-0.363,0-0.673-0.021-0.913-0.049c-0.529-0.067-1.186-0.227-1.98-0.434
				c-1.535-0.398-3.627-0.942-6.467-0.942c-2.893,0-6.049,0.578-9.369,1.722c-1.568,0.54-3.238,0.814-4.951,0.814
				c-7.862,0-15.055-5.732-18.123-8.556c-6.528,5.293-30.938,24.573-45.23,28.848c-15.999,4.797-72.511,11.394-74.908,11.668
				C134.92,246.177,134.832,246.184,134.744,246.184z M149.27,199.657l-11.401,41.532c12.692-1.527,57.315-7.083,70.729-11.101
				c15.365-4.603,44.919-29.052,45.22-29.297c0.938-0.78,2.32-0.69,3.152,0.203c0.078,0.084,8.117,8.604,16.301,8.604
				c1.205,0,2.367-0.19,3.457-0.564c3.799-1.309,7.455-1.975,10.863-1.975c3.428,0,5.95,0.656,7.622,1.093
				c0.563,0.148,1.022,0.275,1.394,0.325c0.092,0.007,0.205,0.014,0.346,0.014c1.951,0,4.594-0.78,4.941-1.746
				c0.259-0.702-0.508-2.895-4.998-6.662c-0.168-0.139-0.312-0.303-0.438-0.485c-0.286-0.379-2.482-1.467-8.607-1.467
				c-0.873,0-1.449,0.026-1.474,0.028c-0.801,0.027-1.575-0.35-2.024-1.024c-0.447-0.674-0.508-1.532-0.164-2.261
				c0.154-0.328,3.882-8.014,10.596-8.014c2.095,0,4.188,0.758,6.231,2.25c5.853,4.284,12.863,8.982,16.311,11.264
				c0.028-0.224,0.05-0.474,0.05-0.753c-0.011-2.506-1.599-8.213-12.135-18.285c-0.061-0.059-0.112-0.119-0.165-0.178
				c-3.855-4.564-8.69-6.781-14.779-6.781c-5.228,0-10.312,1.677-13.672,2.79c-1.517,0.5-2.712,0.896-3.657,1.065
				c-4.35,0.789-39.041,10.859-60.049,17.968c-8.451,2.866-21.646,4.317-39.217,4.317
				C162.814,200.518,153.22,199.935,149.27,199.657z"/>
		</g>
	</g>
	<g>
		<polygon fill="#F6EB16" points="336.066,279.214 297.633,251.652 295.777,184.533 345.344,187.771 358.331,216.661 
			350.381,256.688 		"/>
		<path fill="#27140E" d="M336.066,281.514c-0.477,0-0.948-0.148-1.345-0.431l-38.43-27.562c-0.585-0.416-0.938-1.088-0.959-1.808
			l-1.858-67.117c-0.019-0.647,0.239-1.271,0.705-1.721c0.465-0.45,1.068-0.689,1.746-0.641l49.568,3.238
			c0.851,0.055,1.599,0.575,1.946,1.353l12.988,28.888c0.193,0.437,0.254,0.924,0.158,1.394l-7.955,40.023
			c-0.056,0.283-0.158,0.543-0.312,0.783l-14.313,22.531c-0.339,0.539-0.882,0.912-1.503,1.025
			C336.359,281.505,336.212,281.514,336.066,281.514z M299.905,250.445l35.522,25.48l12.775-20.104l7.729-38.884l-12.119-26.962
			l-45.668-2.979L299.905,250.445z"/>
	</g>
	<g>
		<polygon fill="#3059A7" points="360.983,172.076 406.045,194.925 369.728,233.098 334.476,205.794 295.777,182.469 		"/>
		<path fill="#27140E" d="M369.728,235.397c-0.496,0-0.99-0.162-1.409-0.483l-35.146-27.22l-38.585-23.255
			c-0.825-0.498-1.256-1.462-1.069-2.411c0.185-0.946,0.942-1.679,1.898-1.831l65.209-10.393c0.476-0.078,0.971,0,1.403,0.221
			l45.055,22.85c0.652,0.328,1.107,0.945,1.228,1.661c0.123,0.716-0.099,1.45-0.601,1.976l-36.312,38.17
			C370.944,235.15,370.338,235.397,369.728,235.397z M302.357,183.749l33.308,20.074c0.073,0.046,0.152,0.097,0.219,0.152
			L369.491,230l32.755-34.421l-41.637-21.112L302.357,183.749z"/>
	</g>
	<g>
		<g>
			<path fill="#F4BE78" d="M262.283,62.15c0,0,11.04,8.938,12.095,31.022c0.819,17.252,9.345,20.707,13.03,21.393
				c1.035,0.192,1.988,0.503,2.349,1.076c1.341,2.109,3.677,7.444-3.812,11.185c-6.047,3.024-2.629,9.463-2.629,9.463
				s10.83,48.093-65.116,36.691c-4.473,0.896-3.611,17.806-3.259,22.806c0.035,0.552-9.059-0.324-9.319,0.127
				c-1.764,3.106-9.213,14.229-16.018-5.298c-0.123-0.358-15.453-8.069-15.453-8.069s20.06-10.788,5.993-20.844
				c-16.766-11.99-15.14-37.505-15.14-37.505l14.728-55.213l54.679-15.25L262.283,62.15z"/>
		</g>
		<g>
			<path fill="#27140E" d="M198.446,204.186c-4.278,0-7.799-3.948-10.748-12.061c-1.964-1.109-8.627-4.527-14.581-7.521
				c-0.766-0.386-1.253-1.167-1.267-2.022c-0.014-0.859,0.452-1.651,1.207-2.06c2.624-1.417,9.487-6.108,9.781-10.744
				c0.13-2.109-1.225-4.196-4.033-6.205c-17.604-12.587-16.168-38.43-16.098-39.523c0.011-0.151,0.035-0.299,0.07-0.447
				l14.727-55.213c0.208-0.785,0.822-1.404,1.604-1.623l54.684-15.25c0.42-0.116,0.868-0.111,1.281,0.015l27.872,8.416
				c0.289,0.086,0.551,0.226,0.783,0.414c0.485,0.392,11.857,9.85,12.943,32.702c0.745,15.629,8.051,18.663,11.153,19.241
				c1.235,0.228,2.983,0.695,3.874,2.109c0.951,1.494,2.419,4.511,1.492,7.858c-0.748,2.7-2.84,4.926-6.221,6.614
				c-1.146,0.571-1.848,1.302-2.145,2.231c-0.596,1.861,0.505,4.072,0.52,4.093c0.096,0.181,0.17,0.374,0.213,0.573
				c0.137,0.61,3.252,15.075-6.188,26.88c-10.208,12.756-30.817,17.088-60.842,12.691c-1.03,1.215-2.159,8.062-1.292,20.269
				c0.043,0.639-0.197,1.311-0.634,1.778c-0.763,0.813-1.785,0.875-3.14,0.875c-0.946,0-2.223-0.052-3.478-0.103
				c-1.094-0.046-2.181-0.09-2.984-0.095C205.324,200.721,202.372,204.186,198.446,204.186z M178.806,182.315
				c12.544,6.33,12.607,6.51,12.968,7.54c3.146,9.026,5.903,9.729,6.673,9.729c1.806,0,3.915-2.589,5.171-4.808
				c0.748-1.298,2.145-1.298,3.264-1.298c0.87,0,2.074,0.047,3.294,0.099c0.801,0.034,1.612,0.065,2.325,0.085
				c-1.214-21.644,3.625-22.614,5.248-22.938c0.261-0.053,0.532-0.056,0.797-0.018c28.479,4.275,48.03,0.536,57.198-10.875
				c7.468-9.291,5.699-20.993,5.372-22.802c-0.487-1.047-1.687-4.14-0.671-7.315c0.678-2.109,2.223-3.82,4.47-4.945
				c2.166-1.081,3.461-2.333,3.845-3.723c0.42-1.51-0.277-3.063-0.816-3.965c-0.139-0.058-0.422-0.154-0.949-0.25
				c-4.188-0.782-14.018-4.635-14.913-23.548c-0.89-18.628-9.249-27.464-10.953-29.078l-26.74-8.073l-52.771,14.715l-14.32,53.705
				c-0.099,2.413-0.544,24.744,14.187,35.28c4.19,2.994,6.193,6.44,5.95,10.245C187.089,175.411,182.306,179.797,178.806,182.315z"
				/>
		</g>
	</g>
	<g>
		<path fill="#4C230D" d="M207.597,112.104c0,0-11.048-15.778-16.826,1.575c-5.784,17.353,7.888,17.353,7.888,17.353
			s-3.683,37.334-22.61,32.602c-18.927-4.731-67.829-43.645-23.66-94.122c44.161-50.48,106.212-23.137,106.212-23.137
			s21.981,3.157,27.344,3.155c4.474-0.004-13.668,23.135-31.547,15.249c-7.365,5.257-26.293,6.311-26.293,6.311
			S231.786,102.112,207.597,112.104z"/>
		<path fill="#27140E" d="M179.272,166.349c-1.228,0-2.501-0.162-3.782-0.483c-12.895-3.222-34.348-19.181-41.109-40.763
			c-4.05-12.939-4.519-33.349,16.271-57.108c17.926-20.486,41.734-31.317,68.853-31.317c21.184,0,37.274,6.428,39.724,7.46
			c2.646,0.375,21.901,3.092,26.717,3.092c1.729,0,2.986,1.259,2.986,2.995c0,5.035-13.019,18.49-26.774,18.494h-0.007
			c-2.58,0-5.102-0.457-7.508-1.358c-6.645,3.951-18.94,5.4-24.083,5.854c0.135,3.084,0.085,8.804-1.396,15.158
			c-2.928,12.536-10.081,21.476-20.688,25.857c-0.998,0.407-2.141,0.076-2.763-0.805c-1.022-1.447-4.6-5.587-7.53-5.587
			c-2.515,0-4.229,3.571-5.23,6.569c-1.729,5.184-1.735,9.175-0.024,11.547c1.946,2.704,5.692,2.778,5.731,2.778
			c0.649,0,1.27,0.273,1.707,0.756c0.435,0.479,0.646,1.124,0.582,1.771C200.803,132.69,197.279,166.346,179.272,166.349
			L179.272,166.349z M219.505,41.28c-26.12,0-48.12,10.007-65.39,29.744c-15.562,17.786-20.727,35.516-15.343,52.703
			c6.775,21.633,27.985,35.211,37.833,37.674c0.918,0.229,1.812,0.347,2.667,0.347l0,0c10.624-0.001,15.478-19.058,16.828-28.75
			c-2.06-0.47-4.928-1.61-6.91-4.353c-2.646-3.674-2.85-8.954-0.606-15.696c2.151-6.446,5.376-9.716,9.598-9.716
			c4.378,0,8.232,3.8,10.12,6.035c20.578-9.91,17.549-37.624,17.517-37.91c-0.074-0.63,0.112-1.264,0.521-1.75
			c0.41-0.486,1.003-0.783,1.634-0.818c5.082-0.286,19.495-1.898,25.086-5.889c0.658-0.471,1.521-0.561,2.264-0.233
			c2.17,0.959,4.47,1.444,6.826,1.444h0.004c10.062,0,18.785-8.417,21.398-12.391c-7.607-0.542-24.477-2.958-25.277-3.074
			c-0.207-0.029-0.407-0.087-0.599-0.169C257.516,48.408,241.035,41.28,219.505,41.28z"/>
	</g>
	<g>
		<polygon fill="#C12026" points="334.476,206.446 406.045,194.925 406.045,262.359 336.066,279.214 		"/>
		<path fill="#27140E" d="M336.066,281.514c-0.504,0-0.998-0.162-1.407-0.474c-0.55-0.431-0.878-1.08-0.893-1.776l-1.595-72.769
			c-0.024-1.146,0.805-2.137,1.938-2.321l71.567-11.52c0.667-0.104,1.346,0.081,1.855,0.521c0.512,0.438,0.812,1.077,0.812,1.751
			v67.436c0,1.064-0.727,1.988-1.765,2.236l-69.979,16.859C336.43,281.5,336.243,281.514,336.066,281.514z M336.818,208.4
			l1.483,67.907l65.438-15.761v-62.918L336.818,208.4z"/>
	</g>
	<g>
		<g>
			<path fill="#F4BE78" d="M269.273,230.135c0,0,10.502,3.742,13.625,9.474c1.824-16.677,25.539-28.402,25.539-28.402
				s-6.779-17.458,1.302-26.835c8.073-9.381,22.928-27.36,21.363-7.818c0.522,7.557-3.91,10.684-3.91,10.684
				s10.684-0.522,14.855-5.211c4.166-4.691,12.767-21.663,21.888-14.22c5.209,2.495-4.431,16.305-4.431,16.305
				s7.295,14.07-10.685,29.181c-17.979,15.115-23.191,12.504-23.191,12.504s-18.497,55.766-38.038,52.113
				c-19.541-3.648-42.698-10.625-42.698-10.625l-6.55-25.591L269.273,230.135z"/>
		</g>
		<g>
			<path fill="#27140E" d="M289.447,280.384c-0.764,0-1.527-0.069-2.279-0.211c-19.439-3.627-42.708-10.616-42.94-10.682
				c-0.773-0.232-1.366-0.854-1.563-1.636l-6.546-25.59c-0.297-1.14,0.317-2.318,1.421-2.727l30.928-11.562
				c0.509-0.19,1.068-0.19,1.576-0.007c0.896,0.317,7.213,2.656,11.642,6.614c4.268-12.625,18.792-21.626,23.938-24.487
				c-1.591-5.068-4.91-18.771,2.37-27.225l0.921-1.072c7.926-9.231,14.381-16.292,19.298-16.292c1.34,0,2.522,0.511,3.418,1.478
				c1.58,1.714,2.148,4.76,1.78,9.585c0.193,3.203-0.397,5.735-1.233,7.66c3.04-0.649,6.44-1.808,8.15-3.732
				c0.724-0.817,1.658-2.129,2.741-3.649c3.962-5.571,9.387-13.205,16.13-13.205c2.103,0,4.115,0.75,5.997,2.226
				c1.194,0.658,2.014,1.723,2.377,3.095c1.203,4.583-3.414,12.291-5.468,15.407c1.495,4.113,4.363,17.089-11.803,30.68
				c-12.485,10.494-19.401,13.022-23.078,13.206C323.665,238.516,307.99,280.384,289.447,280.384z M246.799,265.451
				c5.051,1.48,24.578,7.096,41.217,10.193c0.473,0.092,0.944,0.141,1.433,0.141c14.091,0,29.321-36.606,33.999-50.708
				c0.212-0.635,0.685-1.146,1.302-1.404c0.543-0.226,1.149-0.233,1.7-0.024c0.424,0.074,5.815,0.554,20.892-12.116
				c16.236-13.646,10.371-25.862,10.117-26.375c-0.385-0.755-0.325-1.672,0.161-2.363c3.083-4.423,6.063-10.522,5.499-12.658
				c-0.049-0.19-0.091-0.213-0.172-0.254c-0.166-0.078-0.322-0.176-0.463-0.291c-1.111-0.905-2.184-1.344-3.284-1.344
				c-4.373,0-9.188,6.781-12.38,11.268c-1.16,1.629-2.159,3.037-3.052,4.039c-4.674,5.261-15.27,5.924-16.463,5.982
				c-1.074,0.03-1.951-0.583-2.285-1.55c-0.33-0.967,0.015-2.039,0.848-2.628c0.116-0.087,3.356-2.589,2.94-8.646
				c-0.007-0.115-0.007-0.228,0-0.342c0.428-5.312-0.562-6.271-0.579-6.28c-3.212,0.016-11.728,9.938-15.821,14.707l-0.924,1.074
				c-7.069,8.213-0.965,24.345-0.9,24.504c0.428,1.115-0.062,2.367-1.125,2.893c-0.226,0.112-22.606,11.379-24.269,26.589
				c-0.111,1.001-0.854,1.812-1.842,2.01c-0.998,0.19-1.984-0.275-2.469-1.157c-2.035-3.728-8.477-6.878-11.607-8.12l-28.188,10.536
				L246.799,265.451z"/>
		</g>
	</g>
	<g>
		<g>
			<path fill="#F58020" d="M233.656,193.49c20.847-2.605,23.971,23.449,37.519,35.438c-32.831,20.324-27.275,40.3-23.452,39.083
				c-7.294,3.646-17.715-0.521-17.715,1.565c0,2.08-33.875,37.516-41.691,44.287c-7.816,6.78-27.098,23.448-45.037,8.346
				c-17.936-15.117-62.834-17.721-65.438-20.321c-2.607-2.611-6.257-21.892,15.11-37.524c21.368-15.633,39.083-42.214,39.083-42.214
				s0-14.067,8.86-34.391c5.735-15.633,58.789-15.113,69.829-8.339C221.769,186.194,233.656,193.49,233.656,193.49z"/>
			<path fill="#27140E" d="M159.16,330.656c-6.25,0-12.093-2.252-17.362-6.689c-12.12-10.213-37.474-14.566-52.62-17.162
				c-9.058-1.553-11.725-2.061-12.963-3.293c-1.929-1.928-2.994-6.936-2.592-12.172c0.479-6.207,3.45-18.207,17.976-28.83
				c19.128-13.997,35.519-37.252,38.157-41.094c0.12-3.21,1.115-16.413,9.03-34.576c4.832-13.184,34.447-14.217,43.406-14.217
				c13.276,0,24.945,1.898,29.736,4.834l22.256,13.661c0.783-0.074,1.552-0.112,2.3-0.112c12.903,0,19.077,10.566,25.045,20.783
				c3.289,5.629,6.689,11.453,11.17,15.411c0.547,0.487,0.832,1.2,0.77,1.919c-0.061,0.727-0.463,1.379-1.08,1.764
				c-21.611,13.375-24.855,25.553-25.245,30.166c-0.225,2.645,0.325,4.119,0.649,4.662c0.889,0.021,1.711,0.572,2.06,1.434
				c0.459,1.113-0.024,2.392-1.1,2.927c-2.43,1.215-5.33,1.807-8.865,1.807c-2.168,0-4.221-0.226-5.865-0.401
				c-0.994-0.105-1.862-0.205-2.469-0.22c-5.429,8.578-38.44,41.505-41.729,44.354C184.189,320.49,172.465,330.656,159.16,330.656z
				 M79.386,300.139c1.239,0.526,5.982,1.34,10.572,2.129c15.608,2.682,41.724,7.159,54.808,18.18
				c4.412,3.719,9.255,5.602,14.395,5.602c11.586,0,22.437-9.402,27.649-13.918c8.162-7.076,38.558-39.117,40.966-43.152
				c0.194-0.891,0.929-2.321,3.63-2.321c0.854,0,1.901,0.112,3.111,0.247c2.674,0.281,6.18,0.55,8.801,0.105
				c-0.128-0.311-0.244-0.648-0.342-0.994c-1.94-6.822,1.199-22.152,24.515-37.468c-3.94-4.18-6.98-9.382-9.935-14.437
				c-5.803-9.927-10.813-18.5-21.072-18.5c-0.817,0-1.672,0.055-2.547,0.163c-0.514,0.064-1.04-0.05-1.488-0.321l-22.928-14.07
				c-3.985-2.446-15.227-4.155-27.329-4.155c-20.924,0-36.655,4.548-39.135,11.325c-8.62,19.786-8.72,33.464-8.72,33.599
				c0,0.458-0.138,0.902-0.384,1.276c-0.734,1.101-18.193,27.098-39.644,42.795c-11.976,8.76-15.326,18.247-16.024,24.653
				C77.736,295.962,78.833,299.291,79.386,300.139z M232.309,269.578c0,0.268-0.166,0.678-0.476,1.221
				C232.097,270.501,232.309,270.085,232.309,269.578z"/>
		</g>
		<g>
			<line fill="none" x1="152.881" y1="200.264" x2="132.035" y2="222.149"/>
			<path fill="#27140E" d="M132.035,224.452c-0.572,0-1.14-0.208-1.584-0.634c-0.921-0.878-0.956-2.332-0.082-3.252l20.847-21.887
				c0.875-0.922,2.335-0.958,3.253-0.079c0.92,0.875,0.956,2.331,0.081,3.252l-20.847,21.885
				C133.252,224.216,132.646,224.452,132.035,224.452z"/>
		</g>
		<g>
			<path fill="#F58020" d="M230.008,269.578c0,0-13.028-13.553-17.198-26.06"/>
			<path fill="#27140E" d="M230.008,271.876c-0.606,0-1.206-0.239-1.657-0.705c-0.551-0.569-13.439-14.073-17.721-26.927
				c-0.406-1.207,0.247-2.504,1.453-2.906c1.21-0.406,2.508,0.247,2.913,1.453c3.951,11.859,16.543,25.057,16.671,25.186
				c0.882,0.916,0.85,2.377-0.063,3.258C231.158,271.658,230.579,271.876,230.008,271.876z"/>
		</g>
	</g>
</g>
</svg>
