<svg id="play_therapy" data-name="play therapy" xmlns="http://www.w3.org/2000/svg" viewBox="0 0 300 300"><defs><style>.cls-1{fill:#f48020;}.cls-2{fill:#27140e;}.cls-3{fill:#42a953;}.cls-4{fill:#e01d42;}.cls-5{fill:#f5ea14;}.cls-6{fill:#f3be79;}.cls-7{fill:#60411f;}.cls-8{fill:#3059a6;}.cls-9{fill:#7d4d1f;}.cls-10{fill:#4b220d;}.cls-11{fill:#c12026;}</style></defs><title>play therapy</title><polygon class="cls-1" points="169.28 212.12 204.96 203.73 204.96 170.49 181.33 160.89 169.74 162.87 159.53 180.71 169.28 212.12"/><path class="cls-2" d="M169.29,213.44a1.33,1.33,0,0,1-1.27-.92l-9.76-31.42a1.29,1.29,0,0,1,.12-1l10.21-17.84a1.36,1.36,0,0,1,.93-.65l11.59-2a1.37,1.37,0,0,1,.72.08l23.63,9.61a1.31,1.31,0,0,1,.83,1.22v33.24a1.32,1.32,0,0,1-1,1.29l-35.68,8.39A1.6,1.6,0,0,1,169.29,213.44ZM161,180.87l9.22,29.68,33.46-7.87V171.39l-22.46-9.13-10.6,1.81Z"/><polygon class="cls-3" points="180.57 154.33 149.31 160.13 154.8 179.34 169.28 173.69 195.81 168.82 185.9 152.81 180.57 154.33"/><path class="cls-2" d="M154.8,181.33a2.11,2.11,0,0,1-.88-.21,2,2,0,0,1-1-1.23l-5.49-19.22a2,2,0,0,1,1.55-2.5l31.16-5.77,5.25-1.5a2,2,0,0,1,2.23.86l9.91,16a2,2,0,0,1-1.33,3l-26.34,4.84-14.31,5.58A2,2,0,0,1,154.8,181.33Zm-3-19.65,4.29,15,12.45-4.86.36-.1,23.67-4.35L185,155.13l-3.9,1.11-.18,0Z"/><polygon class="cls-4" points="149.31 160.13 169.28 173.69 169.28 212.12 149.62 196.57 149.31 160.13"/><path class="cls-2" d="M169.29,213.44a1.32,1.32,0,0,1-.83-.28l-19.67-15.55a1.33,1.33,0,0,1-.5-1l-.3-36.44a1.32,1.32,0,0,1,2.06-1.11l20,13.57a1.34,1.34,0,0,1,.58,1.09v38.43a1.31,1.31,0,0,1-.75,1.19A1.28,1.28,0,0,1,169.29,213.44Zm-18.35-17.52,17,13.47v-35l-17.3-11.75Z"/><polygon class="cls-5" points="255.58 212.5 275.71 197.03 275.71 159.36 249.18 157.53 238.2 177.05 255.58 212.5"/><path class="cls-2" d="M255.58,213.82a1.53,1.53,0,0,1-.3,0,1.29,1.29,0,0,1-.88-.71L237,177.63a1.31,1.31,0,0,1,0-1.23l11-19.52a1.33,1.33,0,0,1,1.24-.67L275.8,158a1.33,1.33,0,0,1,1.23,1.32V197a1.3,1.3,0,0,1-.51,1l-20.13,15.48A1.32,1.32,0,0,1,255.58,213.82ZM239.7,177.09l16.36,33.38,18.32-14.1V160.6l-24.46-1.69Z"/><polygon class="cls-4" points="238.66 152.81 275.71 159.36 254.82 173.69 244.15 188.03 222.19 170.03 215.64 155.86 238.66 152.81"/><path class="cls-2" d="M244.15,189.35a1.27,1.27,0,0,1-.84-.3l-22-18a1.38,1.38,0,0,1-.36-.47l-6.55-14.18a1.28,1.28,0,0,1,0-1.19,1.32,1.32,0,0,1,1-.68l23-3a1.79,1.79,0,0,1,.4,0l37.05,6.56a1.32,1.32,0,0,1,.52,2.39l-20.71,14.21-10.54,14.16a1.31,1.31,0,0,1-.9.52Zm-20.88-20.14,20.64,16.92,9.85-13.23a1.27,1.27,0,0,1,.31-.3l18.22-12.5-33.66-5.95-21,2.79Z"/><polygon class="cls-3" points="221.12 167.29 220.97 204.34 255.58 212.27 255.28 173.39 221.12 167.29"/><path class="cls-2" d="M255.58,213.59a1.36,1.36,0,0,1-.29,0l-34.61-7.93a1.31,1.31,0,0,1-1-1.29l.15-37.05a1.27,1.27,0,0,1,.48-1,1.32,1.32,0,0,1,1.08-.29l34.15,6.1a1.32,1.32,0,0,1,1.09,1.29l.31,38.88a1.34,1.34,0,0,1-.5,1A1.31,1.31,0,0,1,255.58,213.59Zm-33.28-10.3,31.95,7.32L254,174.5l-31.52-5.63Z"/><path class="cls-6" d="M112.26,248.2s42.86-7.79,54.85-27.88.31-33.87-18.13-33S134.59,193,134.59,193l-20.24,29.68L103,232V244.9Z"/><path class="cls-2" d="M112.26,249.52a1.19,1.19,0,0,1-.45-.08l-9.29-3.29a1.33,1.33,0,0,1-.88-1.25V232a1.32,1.32,0,0,1,.49-1l11.24-9.17,19.69-28.87a3,3,0,0,1,.08-2.21c1.18-2.71,6.34-4.25,15.78-4.71,10.14-.49,18.26,3.22,22.1,10s2.83,15.6-2.77,25c-5.13,8.6-16.11,16-32.61,22a159.25,159.25,0,0,1-23.15,6.47A.93.93,0,0,1,112.26,249.52Zm-8-5.56,8.07,2.87c4-.79,42.63-8.79,53.61-27.19,5.1-8.54,6.08-16.47,2.75-22.34s-10.59-9.09-19.67-8.63c-11.67.57-13.27,2.68-13.47,3.1a.42.42,0,0,0,0,.45,1.39,1.39,0,0,1,.05,1.56l-20.23,29.68a1.39,1.39,0,0,1-.26.28l-10.9,8.9Z"/><path class="cls-7" d="M41.81,214S22.93,219.8,34,234.45,64,244.6,64,244.6l3.6-21Z"/><path class="cls-2" d="M57.27,246.57h0c-7.17,0-17.21-2-24.3-11.32-3.41-4.51-4.5-8.74-3.26-12.57,2.24-7,11.34-9.8,11.72-9.92a1.3,1.3,0,0,1,.85,0l25.78,9.6a1.31,1.31,0,0,1,.84,1.46l-3.59,21a1.35,1.35,0,0,1-1,1.07A33.25,33.25,0,0,1,57.27,246.57ZM41.79,215.43c-1.67.6-8,3.17-9.58,8.07-.95,3,0,6.38,2.86,10.15,6.44,8.49,15.62,10.28,22.19,10.28h0a32.65,32.65,0,0,0,5.57-.46l3.26-19Z"/><path class="cls-8" d="M138,220.32s-21.58,12.29-34.17,7.19c-11.69,12-38.37,4.8-38.37,4.8S46.91,229,41.81,214,52,187.35,52,187.35l74.34-15-1.14,12.33,23-.64S154.22,200.24,138,220.32Z"/><path class="cls-2" d="M82.54,235.77a74.21,74.21,0,0,1-17.39-2.18c-.68-.12-19.3-3.59-24.59-19.14-2.22-6.53-1.07-13.49,3.33-20.12a36.49,36.49,0,0,1,7.31-8,1.2,1.2,0,0,1,.54-.24l74.34-15a1.32,1.32,0,0,1,1.58,1.42l-1,10.85,21.53-.6a1.36,1.36,0,0,1,1.28.86c.25.69,6.07,17.12-10.41,37.56a1.26,1.26,0,0,1-.37.32c-.62.35-15.25,8.6-27.7,8.6a20.84,20.84,0,0,1-6.8-1C99.42,233.51,92.14,235.77,82.54,235.77Zm-30-47.19c-1.83,1.51-13.91,12.09-9.52,25C47.85,227.68,65.54,231,65.72,231a73.63,73.63,0,0,0,16.82,2.12c9.29,0,16.14-2.2,20.37-6.54a1.34,1.34,0,0,1,1.45-.3,17.83,17.83,0,0,0,6.63,1.14c11,0,24.32-7.13,26.17-8.14,13.19-16.49,11-30.32,10.08-33.89l-22,.62a1.34,1.34,0,0,1-1.36-1.45l1-10.56Z"/><path class="cls-9" d="M114.5,240.7c.75,10.34-2.53,13.21-10.63,12.9s-7.8-11.55-7.8-11.55v-7.6S113.75,230.36,114.5,240.7Z"/><path class="cls-2" d="M105,255l-1.16,0c-7.44-.28-9.19-8.57-9.07-12.9v-7.57a1.33,1.33,0,0,1,1-1.29,38.08,38.08,0,0,1,7.66-.83c7.61,0,12,2.94,12.39,8.28.41,5.64-.37,9.31-2.45,11.55C111.6,254.07,108.94,255,105,255Zm-7.59-19.41v6.51c0,.44-.16,10,6.53,10.23,3.72.14,6.15-.45,7.51-1.92,1.55-1.66,2.1-4.7,1.75-9.56-.28-3.86-3.56-5.82-9.75-5.82A35.4,35.4,0,0,0,97.39,235.54Z"/><path class="cls-7" d="M106.41,241.45c-.12,6.2,1.35,14.54-11.37,15.44-10.66-1.5-8.56,1.5-17,3.3S52,262,52,244.86c5.1-18.84,24.28-13.45,24.28-13.45s11,4.87,16.77,3.33S106.53,235.25,106.41,241.45Z"/><path class="cls-2" d="M70.65,262.29c-3.73,0-9.05-.6-13.27-3.43-4.45-3-6.7-7.69-6.7-14a1,1,0,0,1,0-.34c3.56-13.18,13.76-15.15,19.53-15.15a25.09,25.09,0,0,1,6.38.77l.18.06c.08,0,8,3.52,13.6,3.52h0a9,9,0,0,0,2.29-.26,16.57,16.57,0,0,1,4.18-.53c3.6,0,6.78,1.13,8.73,3.11a7.42,7.42,0,0,1,2.11,5.44c0,.6,0,1.24,0,1.88,0,5.89.08,13.95-12.59,14.85a1.29,1.29,0,0,1-.28,0,35.08,35.08,0,0,0-4.66-.39,9.88,9.88,0,0,0-5.32,1.35,24.23,24.23,0,0,1-6.52,2.32A38.41,38.41,0,0,1,70.65,262.29ZM53.33,245c0,5.28,1.9,9.19,5.52,11.62s8.44,3,11.8,3a35,35,0,0,0,7.15-.75,21.72,21.72,0,0,0,5.9-2.1,12.41,12.41,0,0,1,6.5-1.63,36.28,36.28,0,0,1,4.89.4c10.06-.76,10-6.31,10-12.18,0-.67,0-1.32,0-2a4.72,4.72,0,0,0-1.36-3.52c-1.43-1.46-4-2.33-6.84-2.33a13.93,13.93,0,0,0-3.5.45,11.71,11.71,0,0,1-3,.34h0c-5.9,0-13.57-3.26-14.58-3.7a24.24,24.24,0,0,0-5.58-.64C64.17,232,56.31,234.28,53.33,245Z"/><path class="cls-6" d="M84.73,154s33.67-3.91,42.87-6.67,26.47-17.1,26.47-17.1,6.59,7.1,12.77,5,9.43-.44,10.84-.27,8.76-.79,1.18-7.15c-1.13-1.69-7-1.41-7-1.41s3-6.27,7.71-2.82,10.66,7.33,10.66,7.33,4.33-3.44-6.54-13.82c-6.79-8-17-2.63-19.71-2.13s-23,6.41-34.73,10.38-37.18,1.84-37.18,1.84Z"/><path class="cls-2" d="M84.73,155.3a1.32,1.32,0,0,1-1.27-1.67l7.37-26.84a1.31,1.31,0,0,1,1.38-1c.07,0,6.88.57,14.94.57,9.68,0,17.18-.81,21.7-2.35,11.48-3.88,32.09-9.91,34.92-10.43a14.61,14.61,0,0,0,1.75-.52,27.83,27.83,0,0,1,8.69-1.74,13.19,13.19,0,0,1,10.48,4.79c5.29,5.07,7.89,9.33,7.74,12.67a4.25,4.25,0,0,1-1.35,3.1,1.32,1.32,0,0,1-1.54.07c-.06,0-6-3.93-10.73-7.37a3,3,0,0,0-4.4.45c3.94.23,5,1.27,5.44,1.81,3.05,2.6,4.21,4.78,3.52,6.65-.79,2.17-3.72,2.75-5.33,2.75a3.64,3.64,0,0,1-.52,0,9.35,9.35,0,0,1-1.14-.25,13.9,13.9,0,0,0-3.72-.54,16.6,16.6,0,0,0-5.39,1,8.78,8.78,0,0,1-2.85.47c-4.52,0-8.66-3.3-10.43-4.92-3.75,3-17.79,14.13-26,16.59-9.21,2.76-41.71,6.55-43.09,6.71Zm8.36-26.76-6.56,23.89c7.3-.88,33-4.07,40.69-6.38,8.84-2.65,25.84-16.71,26-16.86a1.32,1.32,0,0,1,1.81.12c.05.05,4.67,4.95,9.38,4.95a6,6,0,0,0,2-.33,19.34,19.34,0,0,1,6.25-1.13,16.31,16.31,0,0,1,4.38.63,6.87,6.87,0,0,0,.8.18h.2c1.12,0,2.64-.44,2.84-1,.15-.41-.29-1.67-2.87-3.83a1.32,1.32,0,0,1-.25-.28c-.17-.22-1.43-.85-4.95-.85-.51,0-.84,0-.85,0a1.32,1.32,0,0,1-1.26-1.89c.09-.19,2.23-4.61,6.09-4.61a6.05,6.05,0,0,1,3.59,1.3c3.36,2.46,7.4,5.16,9.38,6.48a2.94,2.94,0,0,0,0-.44c0-1.44-.92-4.72-7-10.52l-.1-.1a10.53,10.53,0,0,0-8.5-3.9,25.48,25.48,0,0,0-7.86,1.6,17.26,17.26,0,0,1-2.11.62c-2.5.45-22.45,6.24-34.54,10.33-4.86,1.65-12.45,2.49-22.55,2.49C100.88,129,95.36,128.7,93.09,128.54Z"/><polygon class="cls-5" points="200.54 174.3 178.43 158.45 177.37 119.84 205.88 121.7 213.35 138.32 208.78 161.35 200.54 174.3"/><path class="cls-2" d="M200.54,175.63a1.33,1.33,0,0,1-.77-.25l-22.11-15.86a1.31,1.31,0,0,1-.55-1L176,119.88a1.33,1.33,0,0,1,.41-1,1.25,1.25,0,0,1,1-.37L206,120.38a1.31,1.31,0,0,1,1.12.78l7.47,16.62a1.3,1.3,0,0,1,.1.8l-4.58,23a1.25,1.25,0,0,1-.18.45l-8.23,13a1.3,1.3,0,0,1-.87.59A1.07,1.07,0,0,1,200.54,175.63Zm-20.8-17.88,20.43,14.66,7.35-11.56L212,138.48,205,123l-26.27-1.71Z"/><polygon class="cls-8" points="214.87 112.67 240.79 125.82 219.9 147.78 199.63 132.07 177.37 118.66 214.87 112.67"/><path class="cls-2" d="M219.9,149.1a1.31,1.31,0,0,1-.81-.28l-20.21-15.66-22.2-13.37a1.33,1.33,0,0,1,.48-2.44l37.51-6a1.24,1.24,0,0,1,.8.13l25.92,13.14a1.32,1.32,0,0,1,.36,2.09l-20.89,22A1.32,1.32,0,0,1,219.9,149.1Zm-38.75-29.71,19.16,11.55a.51.51,0,0,1,.13.09l19.33,15,18.84-19.79-24-12.15Z"/><path class="cls-6" d="M158.1,49.44s6.35,5.15,7,17.85c.48,9.92,5.38,11.91,7.5,12.3a2,2,0,0,1,1.35.62c.77,1.22,2.12,4.29-2.19,6.44-3.48,1.74-1.51,5.44-1.51,5.44s6.23,27.67-37.46,21.11c-2.57.51-2.08,10.24-1.87,13.11,0,.32-5.21-.18-5.36.08-1,1.78-5.3,8.18-9.22-3-.07-.21-8.89-4.64-8.89-4.64s11.54-6.21,3.45-12c-9.64-6.9-8.71-21.58-8.71-21.58l8.47-31.75,31.46-8.78Z"/><path class="cls-2" d="M121.38,131.15c-2.46,0-4.49-2.28-6.18-6.94-1.13-.64-5-2.61-8.39-4.33a1.33,1.33,0,0,1,0-2.35c1.51-.81,5.46-3.51,5.63-6.18.08-1.21-.7-2.41-2.32-3.56-10.13-7.24-9.3-22.11-9.26-22.74a2.34,2.34,0,0,1,0-.26L109.33,53a1.32,1.32,0,0,1,.93-.93l31.45-8.77a1.25,1.25,0,0,1,.74,0l16,4.84a1.22,1.22,0,0,1,.45.24c.28.22,6.82,5.66,7.45,18.81.43,9,4.63,10.73,6.41,11.06A3.23,3.23,0,0,1,175,79.51a5.73,5.73,0,0,1,.86,4.52,6.28,6.28,0,0,1-3.58,3.8,2.21,2.21,0,0,0-1.23,1.28,3.55,3.55,0,0,0,.3,2.36,1.85,1.85,0,0,1,.12.33c.08.35,1.87,8.67-3.56,15.46-5.87,7.34-17.73,9.83-35,7.3-.59.7-1.24,4.64-.74,11.66a1.4,1.4,0,0,1-.37,1,2.22,2.22,0,0,1-1.8.51c-.55,0-1.28,0-2-.06l-1.72-.06C125.34,129.15,123.64,131.15,121.38,131.15Zm-11.3-12.58c7.22,3.64,7.25,3.74,7.46,4.33,1.81,5.2,3.4,5.6,3.84,5.6,1,0,2.25-1.49,3-2.77a1.92,1.92,0,0,1,1.88-.74c.5,0,1.19,0,1.89.05l1.34,0c-.7-12.45,2.09-13,3-13.19a1.42,1.42,0,0,1,.46,0c16.38,2.46,27.63.31,32.9-6.26,4.3-5.34,3.28-12.07,3.09-13.11a6.05,6.05,0,0,1-.38-4.21,4.83,4.83,0,0,1,2.57-2.85,3.84,3.84,0,0,0,2.21-2.14,3.06,3.06,0,0,0-.47-2.28,2.62,2.62,0,0,0-.55-.14c-2.41-.45-8.06-2.67-8.58-13.55-.51-10.71-5.32-15.8-6.3-16.73L142.05,46,111.7,54.45l-8.24,30.89c-.06,1.39-.31,14.23,8.16,20.29,2.41,1.73,3.56,3.71,3.42,5.9C114.84,114.59,112.09,117.12,110.08,118.57Z"/><path class="cls-10" d="M126.64,78.18s-6.35-9.08-9.68.9,4.54,10,4.54,10-2.12,21.47-13,18.75-39-25.1-13.61-54.14S156,40.37,156,40.37s12.64,1.81,15.73,1.81c2.57,0-7.86,13.31-18.15,8.78-4.23,3-15.12,3.63-15.12,3.63S140.56,72.43,126.64,78.18Z"/><path class="cls-2" d="M110.35,109.38a8.75,8.75,0,0,1-2.18-.28c-7.41-1.85-19.75-11-23.64-23.44-2.33-7.45-2.6-19.19,9.36-32.85a51.25,51.25,0,0,1,39.6-18,62.71,62.71,0,0,1,22.85,4.29c1.52.22,12.6,1.78,15.37,1.78a1.67,1.67,0,0,1,1.72,1.72c0,2.9-7.49,10.64-15.4,10.64h0a12.27,12.27,0,0,1-4.32-.78c-3.82,2.27-10.89,3.11-13.85,3.37a33.11,33.11,0,0,1-.8,8.72c-1.69,7.21-5.8,12.35-11.9,14.87a1.32,1.32,0,0,1-1.59-.46c-.59-.84-2.65-3.22-4.33-3.22-1.45,0-2.44,2.06-3,3.78-1,3-1,5.28,0,6.64a4.5,4.5,0,0,0,3.3,1.6,1.32,1.32,0,0,1,1,.44,1.34,1.34,0,0,1,.34,1c-.09.82-2.11,20.18-12.47,20.18Zm23.14-71.94c-15,0-27.68,5.76-37.61,17.11C86.93,64.78,84,75,87.05,84.87c3.9,12.44,16.1,20.25,21.76,21.67a6.48,6.48,0,0,0,1.54.19h0c6.11,0,8.9-11,9.68-16.53a6.65,6.65,0,0,1-4-2.51c-1.52-2.11-1.64-5.15-.34-9,1.23-3.71,3.09-5.59,5.52-5.59s4.73,2.18,5.82,3.47c11.83-5.7,10.09-21.64,10.07-21.81a1.32,1.32,0,0,1,1.24-1.47c2.93-.17,11.22-1.1,14.43-3.39a1.34,1.34,0,0,1,1.31-.14,9.49,9.49,0,0,0,3.92.83h0c5.79,0,10.81-4.84,12.31-7.12-4.37-.32-14.08-1.7-14.54-1.77a1.33,1.33,0,0,1-.34-.1A60.61,60.61,0,0,0,133.49,37.44Z"/><polygon class="cls-11" points="199.63 132.44 240.79 125.82 240.79 164.61 200.54 174.3 199.63 132.44"/><path class="cls-2" d="M200.54,175.63a1.35,1.35,0,0,1-.81-.28,1.31,1.31,0,0,1-.51-1l-.92-41.86a1.33,1.33,0,0,1,1.11-1.33l41.17-6.63a1.33,1.33,0,0,1,1.07.3,1.31,1.31,0,0,1,.47,1v38.79a1.33,1.33,0,0,1-1,1.29l-40.25,9.69A1.1,1.1,0,0,1,200.54,175.63Zm.43-42.06.86,39.06,37.64-9.06v-36.2Z"/><path class="cls-6" d="M162.12,146.07s6,2.16,7.84,5.45c1-9.59,14.69-16.34,14.69-16.34s-3.9-10,.75-15.43,13.19-15.74,12.29-4.5c.3,4.35-2.25,6.15-2.25,6.15s6.14-.3,8.54-3,7.34-12.46,12.59-8.18c3,1.44-2.55,9.38-2.55,9.38s4.2,8.09-6.14,16.79-13.34,7.19-13.34,7.19-10.64,32.08-21.88,30-24.56-6.11-24.56-6.11l-3.77-14.72Z"/><path class="cls-2" d="M173.72,175a7.34,7.34,0,0,1-1.31-.12c-11.18-2.09-24.56-6.11-24.7-6.15a1.33,1.33,0,0,1-.9-.94l-3.76-14.72a1.32,1.32,0,0,1,.82-1.57l17.79-6.65a1.27,1.27,0,0,1,.9,0,22.6,22.6,0,0,1,6.7,3.8c2.45-7.26,10.81-12.44,13.77-14.08-.92-2.92-2.82-10.8,1.36-15.66l.53-.62c4.56-5.31,8.27-9.37,11.1-9.37a2.62,2.62,0,0,1,2,.85c.91,1,1.23,2.73,1,5.51a9.55,9.55,0,0,1-.71,4.41c1.75-.38,3.71-1,4.69-2.15.42-.47,1-1.23,1.58-2.1,2.28-3.2,5.4-7.59,9.28-7.59a5.53,5.53,0,0,1,3.45,1.28,2.77,2.77,0,0,1,1.36,1.78c.7,2.63-2,7.07-3.14,8.86.86,2.36,2.51,9.83-6.79,17.65-7.18,6-11.16,7.49-13.28,7.59C193.41,150.89,184.39,175,173.72,175Zm-24.53-8.59c2.91.85,14.14,4.08,23.71,5.86a4.56,4.56,0,0,0,.82.08c8.11,0,16.87-21.06,19.56-29.17a1.35,1.35,0,0,1,.75-.8,1.33,1.33,0,0,1,1,0c.24,0,3.34.32,12-7,9.34-7.85,6-14.87,5.82-15.17a1.31,1.31,0,0,1,.09-1.36c1.77-2.54,3.49-6,3.16-7.28,0-.11,0-.12-.1-.15a1.4,1.4,0,0,1-.26-.16,3,3,0,0,0-1.89-.78c-2.52,0-5.29,3.91-7.12,6.49-.67.93-1.25,1.74-1.76,2.32-2.69,3-8.78,3.41-9.47,3.44a1.32,1.32,0,0,1-.83-2.4c.07,0,1.94-1.49,1.7-5a.61.61,0,0,1,0-.19c.24-3.06-.33-3.61-.34-3.61-1.85,0-6.74,5.71-9.1,8.45l-.53.62c-4.07,4.73-.55,14-.52,14.1a1.31,1.31,0,0,1-.65,1.66c-.13.06-13,6.54-13.95,15.29a1.34,1.34,0,0,1-1.07,1.16,1.31,1.31,0,0,1-1.41-.67c-1.18-2.14-4.88-4-6.68-4.67l-16.22,6.07Z"/><path class="cls-1" d="M141.63,125c12-1.5,13.79,13.48,21.58,20.38-18.88,11.69-15.69,23.18-13.49,22.48-4.19,2.1-10.19-.3-10.19.9s-19.48,21.58-24,25.48S100,207.73,89.65,199,53.5,188.85,52,187.35s-3.6-12.6,8.7-21.59,22.48-24.28,22.48-24.28,0-8.09,5.09-19.78c3.3-9,33.82-8.7,40.17-4.8Z"/><path class="cls-2" d="M98.78,203.9a15.26,15.26,0,0,1-10-3.85c-7-5.88-21.55-8.38-30.27-9.87-5.21-.9-6.74-1.19-7.45-1.9-1.11-1.11-1.72-4-1.49-7,.27-3.57,2-10.47,10.34-16.59,11-8.05,20.43-21.42,22-23.63.07-1.85.64-9.44,5.19-19.89,2.78-7.59,19.82-8.18,25-8.18,7.64,0,14.35,1.09,17.1,2.78l12.81,7.86q.67-.06,1.32-.06c7.42,0,11,6.07,14.4,12,1.9,3.24,3.85,6.59,6.43,8.86a1.33,1.33,0,0,1,.44,1.11,1.29,1.29,0,0,1-.62,1c-12.43,7.7-14.3,14.7-14.52,17.35a4.78,4.78,0,0,0,.37,2.69,1.32,1.32,0,0,1,.56,2.5,11.23,11.23,0,0,1-5.1,1,31.73,31.73,0,0,1-3.38-.23c-.57-.06-1.07-.12-1.42-.12-3.12,4.93-22.11,23.87-24,25.51C113.18,198.05,106.43,203.9,98.78,203.9ZM52.89,186.34A51.54,51.54,0,0,0,59,187.57c9,1.54,24,4.12,31.53,10.45a12.66,12.66,0,0,0,8.28,3.23c6.66,0,12.91-5.41,15.9-8,4.7-4.07,22.18-22.5,23.57-24.82.11-.52.53-1.34,2.09-1.34.49,0,1.09.07,1.79.14a20.42,20.42,0,0,0,5.06.06c-.07-.18-.14-.37-.2-.57-1.11-3.92.69-12.74,14.1-21.55a45.56,45.56,0,0,1-5.71-8.3c-3.34-5.72-6.22-10.65-12.12-10.65a12.67,12.67,0,0,0-1.47.1,1.35,1.35,0,0,1-.85-.19L127.75,118c-2.29-1.41-8.76-2.39-15.72-2.39-12,0-21.09,2.61-22.51,6.51-5,11.38-5,19.25-5,19.33a1.33,1.33,0,0,1-.22.73c-.42.64-10.46,15.59-22.8,24.62-6.89,5-8.82,10.5-9.22,14.18A9.51,9.51,0,0,0,52.89,186.34Zm88-17.58a1.7,1.7,0,0,1-.28.7A1.06,1.06,0,0,0,140.86,168.76Z"/><line class="cls-1" x1="95.17" y1="128.89" x2="83.18" y2="141.48"/><path class="cls-2" d="M83.18,142.81a1.33,1.33,0,0,1-1-2.24l12-12.59a1.32,1.32,0,1,1,1.92,1.82l-12,12.59A1.31,1.31,0,0,1,83.18,142.81Z"/><path class="cls-1" d="M139.53,168.76s-7.49-7.8-9.89-15"/><path class="cls-2" d="M139.53,170.08a1.32,1.32,0,0,1-.95-.4c-.32-.33-7.73-8.1-10.19-15.49a1.31,1.31,0,0,1,.83-1.67,1.33,1.33,0,0,1,1.68.83c2.27,6.82,9.51,14.42,9.59,14.49a1.33,1.33,0,0,1-1,2.24Z"/></svg>