<svg id="playroom" xmlns="http://www.w3.org/2000/svg" viewBox="0 0 300 300"><defs><style>.cls-1{fill:#f9edd5;}.cls-2{fill:#d1ebe7;}.cls-3{fill:#95d6d8;}.cls-4{fill:#3c2517;}.cls-5{fill:#ddd2b5;}.cls-6{fill:#fad052;}.cls-7{fill:#1c75bc;}.cls-8{fill:#0fa79d;}.cls-9{fill:#8a171a;}.cls-10{fill:#4e4e4e;}.cls-11{fill:#b3d280;}.cls-12{fill:#808181;}.cls-13{fill:#ffeec0;}.cls-14{fill:#f5803e;}.cls-15{fill:#f58020;}.cls-16{fill:#42ab54;}.cls-17{fill:#f6eb16;}.cls-18{fill:#2f59a7;}.cls-19{fill:#e01d42;}.cls-20{fill:#4ea0ca;}.cls-21{fill:#cbdb2a;}.cls-22{fill:#c12026;}.cls-23{fill:#ece82c;}.cls-24{fill:#485daa;}.cls-25{fill:#861619;}.cls-26{fill:#cdad2c;}.cls-27{fill:#29337a;}.cls-28{fill:#b01f24;}.cls-29{fill:#f2d21e;}.cls-30{fill:#31469d;}.cls-31{fill:#fbae61;}.cls-32{fill:#fdcd9c;}.cls-33{fill:#eea9cb;}.cls-34{fill:#678cc8;}.cls-35{fill:#333;}.cls-36{fill:#f389af;}.cls-37{fill:#e46b91;}.cls-38{fill:#eff2be;}.cls-39{fill:#f3bc4a;}.cls-40{fill:#ef3f54;}.cls-41{fill:#17bdd9;}.cls-42{fill:#128f9c;}.cls-43{fill:#6a2b85;}.cls-44{fill:#f8ac3d;}.cls-45{fill:#f04b2a;}.cls-46{fill:#f6f6e7;}.cls-47{fill:#e2e55a;}.cls-48{fill:#86b23f;}.cls-49{fill:#c0d23d;}.cls-50{fill:#ed1c6c;}</style></defs><title>playroom</title><path class="cls-1" d="M272.85,147A122.92,122.92,0,1,1,149.93,24.08,122.92,122.92,0,0,1,272.85,147"/><path class="cls-2" d="M273,148a122.92,122.92,0,0,1-245.84,0"/><rect class="cls-3" x="163.9" y="61.01" width="52.99" height="51.36"/><path class="cls-4" d="M217.48,113H163.29V60.41h54.19Zm-53-1.2h51.78V61.62H164.5Z"/><rect class="cls-5" x="188.54" y="59.38" width="3.1" height="54.67"/><path class="cls-4" d="M191.64,114.51h-3.1a.45.45,0,0,1-.45-.45V59.38a.45.45,0,0,1,.45-.45h3.1a.45.45,0,0,1,.45.45v54.68a.45.45,0,0,1-.45.45m-2.65-.9h2.2V59.83H189Z"/><rect class="cls-5" x="162.75" y="85.17" width="54.68" height="3.1"/><path class="cls-4" d="M217.43,88.72H162.75a.45.45,0,0,1-.45-.45v-3.1a.45.45,0,0,1,.45-.45h54.68a.45.45,0,0,1,.45.45v3.1a.45.45,0,0,1-.45.45m-54.23-.9H217v-2.2H163.2Z"/><path class="cls-6" d="M162,114.06H218.2V59.38H162Zm52.46-3.66H165.75V63.05h48.69Z"/><path class="cls-4" d="M218.21,114.51H162a.45.45,0,0,1-.45-.45V59.38a.45.45,0,0,1,.45-.45h56.23a.45.45,0,0,1,.45.45v54.68a.45.45,0,0,1-.45.45m-55.78-.9h55.32V59.83H162.43Zm52-2.76H165.75a.46.46,0,0,1-.46-.45V63.05a.47.47,0,0,1,.46-.46h48.69a.46.46,0,0,1,.45.46V110.4a.45.45,0,0,1-.45.45m-48.24-.91H214V63.5H166.2Z"/><path class="cls-7" d="M157.61,97.28a1.59,1.59,0,0,0,1.5,1.67h10.76a1.69,1.69,0,0,0,0-3.35H159.11a1.6,1.6,0,0,0-1.5,1.68"/><path class="cls-4" d="M169.87,99.4H159.11a2.13,2.13,0,0,1,0-4.25h10.76a2.13,2.13,0,0,1,0,4.25m-10.76-3.35a1.24,1.24,0,0,0,0,2.45h10.76a1.24,1.24,0,0,0,0-2.45Z"/><path class="cls-7" d="M220.54,97.19a1.59,1.59,0,0,1-1.5,1.67H208.28a1.68,1.68,0,0,1,0-3.34H219a1.59,1.59,0,0,1,1.5,1.67"/><path class="cls-4" d="M219,99.31H208.28a2.13,2.13,0,0,1,0-4.24H219a2.13,2.13,0,0,1,0,4.24M208.28,96a1.24,1.24,0,0,0,0,2.44H219A1.23,1.23,0,0,0,219,96Z"/><path class="cls-8" d="M158.81,60.38V95.7H170s6.13-5.19,5.68-36.32H158.81"/><path class="cls-4" d="M170,96.15H158.81a.46.46,0,0,1-.46-.45V59.38a.46.46,0,0,1,.46-.45H175.7a.46.46,0,0,1,.46.44c.44,31-5.59,36.46-5.85,36.68a.45.45,0,0,1-.29.1m-10.76-.9h10.57c.79-.9,5.77-7.68,5.43-35.42h-16Z"/><path class="cls-8" d="M159.11,99l-.3,20.92s2.39.84,3.59-1,4-.34,4-.34,2.59,2.06,3.94.22,2.58-.45,2.85,0c.8,1.31,3,1.31,2.57-1.22C175.21,114.72,169,99,169,99"/><path class="cls-4" d="M160.05,120.51a4.59,4.59,0,0,1-1.39-.21.46.46,0,0,1-.31-.44l.3-20.92a.46.46,0,0,1,.46-.44H169a.45.45,0,0,1,.42.28c.26.65,6.26,15.85,6.78,18.67a2.41,2.41,0,0,1-.35,2.07,1.51,1.51,0,0,1-1.2.55,2.24,2.24,0,0,1-1.85-1.09,1.48,1.48,0,0,0-1-.71c-.34,0-.69.25-1.06.74a2.19,2.19,0,0,1-1.85.95,5.09,5.09,0,0,1-2.73-1.08,5,5,0,0,0-1.88-.48,1.6,1.6,0,0,0-1.44.71,3.06,3.06,0,0,1-2.72,1.4m-.79-1a3.37,3.37,0,0,0,.79.09,2.21,2.21,0,0,0,2-1,2.48,2.48,0,0,1,2.19-1.12,5.61,5.61,0,0,1,2.37.63,4.53,4.53,0,0,0,2.24.93,1.3,1.3,0,0,0,1.12-.58,2.26,2.26,0,0,1,1.79-1.11,2.33,2.33,0,0,1,1.82,1.14,1.33,1.33,0,0,0,1.07.66.62.62,0,0,0,.5-.23,1.64,1.64,0,0,0,.16-1.33c-.47-2.52-5.77-16.06-6.61-18.21h-9.12Z"/><path class="cls-8" d="M219.35,60.43V95.66H208.13s-6.13-5.17-5.68-36.23h16.9"/><path class="cls-4" d="M219.35,96.12H208.13a.48.48,0,0,1-.29-.11c-.26-.22-6.29-5.67-5.84-36.59a.46.46,0,0,1,.45-.45h16.9a.46.46,0,0,1,.45.46V95.66a.46.46,0,0,1-.45.46m-11-.91H218.9V59.88h-16c-.35,27.85,4.63,34.46,5.42,35.33"/><path class="cls-8" d="M219,98.86l.31,20.87s-2.4.83-3.59-1-3.48.24-3.48.24-2.44,1.62-3.4-.55-3.12-.77-3.8.46c-.58,1-2.83,1.35-2.65-1.49s6.75-18.53,6.75-18.53"/><path class="cls-4" d="M218.11,120.37a3.11,3.11,0,0,1-2.73-1.4,1.06,1.06,0,0,0-.93-.55,3.45,3.45,0,0,0-1.87.88,4.08,4.08,0,0,1-2.08.7,2.11,2.11,0,0,1-2-1.4,1.14,1.14,0,0,0-1-.82,2.66,2.66,0,0,0-2,1.32,1.92,1.92,0,0,1-2.9.46,2.81,2.81,0,0,1-.59-2.2c.17-2.88,6.51-18,6.78-18.68a.45.45,0,0,1,.42-.27H219a.45.45,0,0,1,.46.44l.3,20.87a.44.44,0,0,1-.31.43,4.08,4.08,0,0,1-1.38.22m-3.66-2.85a2,2,0,0,1,1.69,1,2.19,2.19,0,0,0,2,1,4,4,0,0,0,.78-.09l-.29-20.07h-9.12c-2.29,5.49-6.47,16-6.6,18.1a2.06,2.06,0,0,0,.34,1.53,1,1,0,0,0,1.46-.28,3.53,3.53,0,0,1,2.75-1.78,2,2,0,0,1,1.86,1.36,1.26,1.26,0,0,0,1.21.86,3.36,3.36,0,0,0,1.53-.51,4.25,4.25,0,0,1,2.42-1.07"/><polygon class="cls-5" points="191.18 90.38 188.97 90.34 188.97 82.75 191.18 82.79 191.18 90.38"/><path class="cls-9" d="M227.09,140.74s-.79-1.09-3-.8-4.48.37-4.48.37a3,3,0,0,0-2.65,2.21l-3.2,6.51s-.73.91-.51,3.89.4,7.86.4,7.86l15.86-.73L231,148.27"/><path class="cls-4" d="M213.68,161.24a.48.48,0,0,1-.31-.13.45.45,0,0,1-.14-.31c0-.05-.19-4.9-.4-7.84s.52-4.1.6-4.21l3.15-6.43a3.4,3.4,0,0,1,3-2.45s2.29-.09,4.43-.38c2.45-.33,3.36.94,3.39,1l3.91,7.58a.47.47,0,0,1,0,.26L230,160.11a.46.46,0,0,1-.43.4l-15.86.73m11.13-20.9c-.2,0-.42,0-.65,0-2.18.3-4.49.39-4.52.39a2.58,2.58,0,0,0-2.25,1.92l-3.22,6.54c-.05.08-.66,1-.46,3.66.18,2.42.33,6.14.38,7.42l15-.69,1.36-11.27-3.8-7.4h0a2.51,2.51,0,0,0-1.86-.61"/><path class="cls-10" d="M220.23,157.73h-7.1c-1.12,0-2,.68-2,1.52s.91,1.53,2,1.53h7.1c1.12,0,2-.68,2-1.53s-.91-1.52-2-1.52"/><path class="cls-4" d="M220.23,161.24h-7.1a2,2,0,1,1,0-4h7.1a2,2,0,1,1,0,4m-7.1-3.06c-.86,0-1.58.49-1.58,1.07s.72,1.08,1.58,1.08h7.1c.86,0,1.58-.49,1.58-1.08s-.72-1.07-1.58-1.07Z"/><path class="cls-11" d="M227.05,138.56s-.44-2,2.09-2.09,14.14-1.36,24.15,0a2.07,2.07,0,0,1,2,2.43l-.4,19.66s.43,3-3.49,2.95c-4.11,0-24-.36-24-.36"/><path class="cls-4" d="M251.49,162h-.06c-4.07,0-23.84-.35-24-.35a.45.45,0,0,1-.45-.45l-.35-22.6h0a2.16,2.16,0,0,1,.4-1.65,2.66,2.66,0,0,1,2.12-.9l2-.13c2.58-.19,6.88-.5,11.69-.5a81.08,81.08,0,0,1,10.57.63,2.78,2.78,0,0,1,2,1,2.68,2.68,0,0,1,.44,1.93l-.4,19.59a3.06,3.06,0,0,1-.69,2.23,4,4,0,0,1-3.19,1.16m-23.64-1.25c3,0,19.86.32,23.58.35l.06.45v-.45a3.2,3.2,0,0,0,2.51-.85,2.24,2.24,0,0,0,.47-1.58l.4-19.74a1.61,1.61,0,0,0-1.63-2,77.75,77.75,0,0,0-10.46-.63c-4.78,0-9.06.32-11.62.5-.89.07-1.58.12-2,.13a1.85,1.85,0,0,0-1.45.55,1.36,1.36,0,0,0-.22,1Z"/><path class="cls-10" d="M227.4,162.33a4.6,4.6,0,1,1-4.59-4.6,4.59,4.59,0,0,1,4.59,4.6"/><path class="cls-4" d="M222.81,167.38a5.05,5.05,0,1,1,5-5,5.06,5.06,0,0,1-5,5m0-9.2a4.15,4.15,0,1,0,4.14,4.15,4.15,4.15,0,0,0-4.14-4.15"/><path class="cls-12" d="M223,157a5.46,5.46,0,1,0,5.46,5.46A5.45,5.45,0,0,0,223,157m0,8.11a2.8,2.8,0,1,1,2.8-2.8,2.8,2.8,0,0,1-2.8,2.8"/><path class="cls-4" d="M223,168.4a5.91,5.91,0,1,1,5.91-5.91A5.92,5.92,0,0,1,223,168.4m0-10.92a5,5,0,1,0,5,5,5,5,0,0,0-5-5m0,8.11a3.25,3.25,0,1,1,3.25-3.25,3.25,3.25,0,0,1-3.25,3.25m0-5.6a2.35,2.35,0,1,0,2.35,2.35A2.35,2.35,0,0,0,223,160"/><path class="cls-10" d="M250.05,162.33a4.6,4.6,0,1,1-4.6-4.6,4.59,4.59,0,0,1,4.6,4.6"/><path class="cls-4" d="M245.45,167.38a5.05,5.05,0,1,1,5.05-5,5.06,5.06,0,0,1-5.05,5m0-9.2a4.15,4.15,0,1,0,4.15,4.15,4.15,4.15,0,0,0-4.15-4.15"/><path class="cls-12" d="M245.68,157a5.46,5.46,0,1,0,5.46,5.46,5.45,5.45,0,0,0-5.46-5.46m0,8.11a2.8,2.8,0,1,1,2.8-2.8,2.8,2.8,0,0,1-2.8,2.8"/><path class="cls-4" d="M245.68,168.4a5.91,5.91,0,1,1,5.91-5.91,5.92,5.92,0,0,1-5.91,5.91m0-10.92a5,5,0,1,0,5,5,5,5,0,0,0-5-5m0,8.11a3.25,3.25,0,1,1,3.25-3.25,3.25,3.25,0,0,1-3.25,3.25m0-5.6a2.35,2.35,0,1,0,2.35,2.35,2.35,2.35,0,0,0-2.35-2.35"/><path class="cls-13" d="M217.24,148.49h8.1v-6.83s-7.44-1.14-8.1,6.83"/><path class="cls-4" d="M225.34,148.94h-8.1a.44.44,0,0,1-.33-.15.46.46,0,0,1-.12-.34c.55-6.59,5.5-7.3,7.6-7.3a7.71,7.71,0,0,1,1,.06.46.46,0,0,1,.39.45v6.83a.45.45,0,0,1-.45.45m-7.6-.9h7.14v-6l-.49,0c-2.23,0-6,.79-6.65,6"/><path class="cls-14" d="M224.84,150.48a.68.68,0,0,1-.68.68h-1a.68.68,0,1,1,0-1.36h1a.67.67,0,0,1,.68.68"/><path class="cls-4" d="M224.16,151.61h-1a1.13,1.13,0,1,1,0-2.26h1a1.13,1.13,0,1,1,0,2.26m-1-1.36a.22.22,0,0,0-.22.23.22.22,0,0,0,.22.22h1a.23.23,0,1,0,0-.45Z"/><polyline class="cls-15" points="54.2 166.77 65.73 164.06 65.73 153.33 58.09 150.22 54.35 150.86 51.05 156.63"/><path class="cls-4" d="M54.2,167.22a.44.44,0,0,1-.43-.31l-3.16-10.15a.46.46,0,0,1,0-.36L54,150.64a.45.45,0,0,1,.32-.22l3.75-.64a.4.4,0,0,1,.24,0l7.63,3.1a.46.46,0,0,1,.28.42v10.74a.44.44,0,0,1-.34.44L54.3,167.21h-.1m-2.66-10.54,3,9.56,10.76-2.54V153.63L58,150.69l-3.41.58Z"/><polyline class="cls-16" points="57.84 148.1 47.75 149.98 49.52 156.18 54.2 154.36 62.77 152.78 59.57 147.61"/><path class="cls-4" d="M49.52,156.63a.45.45,0,0,1-.2,0,.5.5,0,0,1-.24-.29l-1.77-6.2a.46.46,0,0,1,.35-.57l10.1-1.87,1.68-.48a.44.44,0,0,1,.51.2l3.2,5.16a.46.46,0,0,1-.3.69l-8.57,1.57-4.6,1.8a.41.41,0,0,1-.16,0m-1.2-6.3,1.5,5.25L54,153.94l8-1.48-2.68-4.32-1.39.4Z"/><polyline class="cls-17" points="64.3 154.56 57.16 149.43 56.81 136.96 66.02 137.56 68.43 142.93 66.96 150.37"/><path class="cls-4" d="M64.3,155a.44.44,0,0,1-.27-.09l-7.14-5.12a.48.48,0,0,1-.19-.36L56.36,137a.41.41,0,0,1,.14-.34.47.47,0,0,1,.34-.13l9.21.6a.45.45,0,0,1,.38.27l2.41,5.37a.5.5,0,0,1,0,.27l-1.48,7.44a.47.47,0,0,1-.06.15l-2.66,4.19a.52.52,0,0,1-.3.2H64.3m-6.7-5.81,6.57,4.71,2.36-3.71L68,143l-2.24-5-8.45-.56Z"/><polyline class="cls-18" points="68.93 134.65 77.3 138.89 70.55 145.99 64 140.91 56.81 136.57"/><path class="cls-4" d="M70.55,146.44a.39.39,0,0,1-.27-.1l-6.56-5.07L56.58,137a.43.43,0,0,1-.21-.47.44.44,0,0,1,.37-.36l12.12-1.93a.51.51,0,0,1,.27,0l8.37,4.25a.45.45,0,0,1,.13.71l-6.75,7.1a.47.47,0,0,1-.33.14M58.1,136.83l6.14,3.7,6.26,4.85,6-6.36-7.7-3.9Z"/><polygon class="cls-19" points="47.75 149.98 54.2 154.36 54.2 166.77 47.84 161.75 47.75 149.98"/><path class="cls-4" d="M54.2,167.22a.42.42,0,0,1-.28-.1l-6.36-5a.49.49,0,0,1-.17-.35L47.29,150a.45.45,0,0,1,.24-.4.47.47,0,0,1,.47,0L54.45,154a.46.46,0,0,1,.2.38v12.41a.43.43,0,0,1-.45.45m-5.9-5.69,5.45,4.31V154.6l-5.55-3.77Z"/><polyline class="cls-20" points="71.99 187.38 84.8 184.68 84.8 172.27 76.31 170.84 72.15 171.48 68.48 177.24"/><path class="cls-4" d="M72,187.84a.45.45,0,0,1-.43-.31l-3.5-10.15a.42.42,0,0,1,0-.38l3.67-5.77a.46.46,0,0,1,.31-.2l4.16-.64h.15l8.49,1.43a.46.46,0,0,1,.37.44v12.41a.46.46,0,0,1-.36.45l-12.81,2.71H72M69,177.3l3.3,9.56,12.07-2.55V172.65l-8-1.36-3.89.6Z"/><polyline class="cls-21" points="77 168.62 65.18 170.59 67.09 176.79 72.14 174.7 84.8 172.27"/><path class="cls-4" d="M67.09,177.25a.65.65,0,0,1-.19,0,.51.51,0,0,1-.24-.28l-1.91-6.21a.44.44,0,0,1,.36-.57l11.82-2a.63.63,0,0,1,.27,0L85,171.86a.45.45,0,0,1,.26.46.46.46,0,0,1-.37.39l-12.66,2.43-5,2.07a.58.58,0,0,1-.18,0M65.77,171l1.61,5.24L72,174.28l11.39-2.19-6.41-3Z"/><polygon class="cls-22" points="65.18 170.59 71.63 174.97 71.63 187.38 65.28 182.36 65.18 170.59"/><path class="cls-4" d="M71.63,187.84a.53.53,0,0,1-.28-.1l-6.35-5a.42.42,0,0,1-.17-.34l-.1-11.78a.45.45,0,0,1,.71-.37l6.45,4.38a.46.46,0,0,1,.2.37v12.41a.47.47,0,0,1-.46.46m-5.9-5.7,5.45,4.31V175.21l-5.54-3.76Z"/><polyline class="cls-17" points="82.08 166.89 89.57 161.92 89.57 149.75 80.01 149.14 76.46 155.44"/><path class="cls-4" d="M82.08,167.35l-.12,0a.44.44,0,0,1-.29-.24l-5.61-11.45a.45.45,0,0,1,0-.42l3.55-6.3a.41.41,0,0,1,.42-.23l9.56.61a.44.44,0,0,1,.42.45v12.17a.45.45,0,0,1-.2.37l-7.49,5a.46.46,0,0,1-.25.08M77,155.46l5.29,10.77,6.86-4.56v-11.5l-8.86-.56Z"/><polyline class="cls-19" points="76.61 147.61 89.57 149.75 81.83 154.36 78.38 158.99 71.29 153.18 69.17 148.59"/><path class="cls-4" d="M78.38,159.44a.42.42,0,0,1-.28-.1L71,153.53a.48.48,0,0,1-.12-.16l-2.12-4.58a.45.45,0,0,1,0-.41.46.46,0,0,1,.33-.23l7.44-1h.14l13,2.14a.48.48,0,0,1,.38.37.47.47,0,0,1-.22.47l-7.66,4.56-3.39,4.56a.5.5,0,0,1-.31.18h-.06m-6.72-6.54,6.64,5.44,3.17-4.25a.37.37,0,0,1,.13-.12l6.68-4L76.6,148.07l-6.76.89Z"/><polygon class="cls-16" points="70.95 152.29 70.9 164.26 82.08 166.82 81.98 154.26 70.95 152.29"/><path class="cls-4" d="M82.08,167.27H82L70.79,164.7a.46.46,0,0,1-.35-.44l.06-12a.44.44,0,0,1,.16-.35.44.44,0,0,1,.37-.09l11,2a.44.44,0,0,1,.37.44l.1,12.56a.44.44,0,0,1-.17.35.42.42,0,0,1-.28.1M71.35,163.9l10.27,2.35-.09-11.61L71.4,152.83Z"/><polygon class="cls-22" points="64 141.03 77.3 138.9 77.3 151.43 64.3 154.56 64 141.03"/><path class="cls-4" d="M64.3,155a.48.48,0,0,1-.28-.1.45.45,0,0,1-.18-.34L63.55,141a.45.45,0,0,1,.38-.45l13.3-2.14a.4.4,0,0,1,.36.1.44.44,0,0,1,.16.34v12.53a.45.45,0,0,1-.35.44L64.4,155l-.1,0m.16-13.59L64.73,154l12.12-2.91V139.42Z"/><polyline class="cls-22" points="225.24 210.3 219.48 212.61 211.05 205.33 223.59 201.09 234.03 205.55 231.36 209.79"/><path class="cls-4" d="M219.48,212.9a.26.26,0,0,1-.2-.07l-8.42-7.27a.3.3,0,0,1-.1-.28A.31.31,0,0,1,211,205l12.54-4.24a.37.37,0,0,1,.21,0l10.45,4.47a.29.29,0,0,1,.17.19.37.37,0,0,1,0,.25L231.62,210a.3.3,0,0,1-.23.14l-6.08.5-5.72,2.29h-.11m-7.83-7.45,7.88,6.81,5.6-2.24.09,0,6-.49,2.4-3.82-10-4.29Z"/><polyline class="cls-23" points="190.31 208 181.02 210.52 172.88 202.96 182.53 199.86 198.45 199.43 198.88 207.56"/><path class="cls-4" d="M181,210.82a.3.3,0,0,1-.2-.08l-8.15-7.56a.32.32,0,0,1-.09-.29.33.33,0,0,1,.21-.22l9.65-3.1.08,0,15.92-.42a.31.31,0,0,1,.31.28l.43,8.14a.27.27,0,0,1-.07.21.33.33,0,0,1-.22.11l-8.57.43-9.22,2.51H181m-7.56-7.74,7.64,7.1,9.13-2.48,8.34-.42-.4-7.54-15.59.42Z"/><polyline class="cls-22" points="196.07 196.4 189.44 198.92 185.41 193.23 202.7 187.54 202.55 184.73 206.51 183.51 216.96 187.97 211.27 196.47"/><path class="cls-4" d="M189.45,199.22a.31.31,0,0,1-.25-.13l-4-5.68a.31.31,0,0,1,0-.28.29.29,0,0,1,.19-.18l17.07-5.62-.14-2.58a.33.33,0,0,1,.21-.31l4-1.22a.34.34,0,0,1,.2,0l10.45,4.47a.27.27,0,0,1,.17.19.32.32,0,0,1,0,.25l-5.69,8.5a.31.31,0,0,1-.25.13h0l-15.15-.07-6.57,2.51h-.1m-3.56-5.83,3.66,5.17,6.41-2.44.11,0h0l15,.07,5.4-8.06-10-4.28L202.87,185l.13,2.58a.3.3,0,0,1-.21.3Z"/><polyline class="cls-24" points="180.95 186.39 173.31 192.15 166.47 182.5 192.11 174.72 202.7 179.12 195.43 186.53"/><path class="cls-4" d="M173.31,192.46h0a.3.3,0,0,1-.2-.12l-6.85-9.65a.3.3,0,0,1,.16-.47L192,174.43a.38.38,0,0,1,.21,0l10.59,4.4a.3.3,0,0,1,.1.49l-7.29,7.41c0,.06-.15.07-.21.09l-14.37-.14-7.56,5.7a.29.29,0,0,1-.18.07M167,182.67l6.42,9.05,7.38-5.57a.26.26,0,0,1,.19-.06l14.35.14,6.87-7L192.1,175Z"/><path class="cls-25" d="M224.43,207.3c0,.33-1,.59-2.31.59s-2.3-.26-2.3-.59v-1.78l2.64-.18,1.93.21"/><path class="cls-4" d="M222.12,208.2c-.43,0-2.6,0-2.6-.9v-1.78a.3.3,0,0,1,.28-.3l2.64-.18,2,.21a.3.3,0,0,1,.27.29l0,1.75c0,.86-2.17.91-2.61.91m-2-2.4v1.5a5.39,5.39,0,0,0,2,.29,4.12,4.12,0,0,0,2-.34l0-1.43-1.66-.18Z"/><path class="cls-22" d="M224.37,205.52c0,.32-1,.59-2.3.59s-2.3-.27-2.3-.59,1-.6,2.3-.6,2.3.27,2.3.6"/><path class="cls-4" d="M222.07,206.41c-.44,0-2.61,0-2.61-.89s2.17-.9,2.61-.9,2.61,0,2.61.9-2.17.89-2.61.89m-1.92-.89a6.5,6.5,0,0,0,3.84,0,6.5,6.5,0,0,0-3.84,0"/><path class="cls-25" d="M230.09,205.67c0,.33-1,.6-2.3.6s-2.31-.27-2.31-.6v-1.78l2.65-.18,1.92.21"/><path class="cls-4" d="M227.79,206.57c-.44,0-2.61,0-2.61-.9v-1.78a.31.31,0,0,1,.29-.3l2.64-.18,2,.21a.3.3,0,0,1,.27.29l.05,1.76c0,.85-2.18.9-2.61.9m-2-2.4v1.5a5.24,5.24,0,0,0,2,.29,4.15,4.15,0,0,0,2-.34l0-1.43L228.1,204Z"/><path class="cls-22" d="M230,203.89c0,.32-1,.59-2.3.59s-2.31-.27-2.31-.59,1-.59,2.31-.59,2.3.26,2.3.59"/><path class="cls-4" d="M227.74,204.78c-.44,0-2.61,0-2.61-.89s2.17-.9,2.61-.9,2.6,0,2.6.9-2.17.89-2.6.89m-1.93-.89a5.1,5.1,0,0,0,1.93.29,5,5,0,0,0,1.92-.29,4.83,4.83,0,0,0-1.92-.29,4.94,4.94,0,0,0-1.93.29"/><path class="cls-25" d="M225.3,203.6c0,.32-1,.59-2.31.59s-2.3-.27-2.3-.59v-1.79l2.65-.17,1.92.2"/><path class="cls-4" d="M223,204.49c-.43,0-2.6,0-2.6-.89v-1.79a.3.3,0,0,1,.28-.3l2.65-.17,2,.21a.3.3,0,0,1,.27.29l0,1.75c0,.86-2.17.9-2.61.9m-2-2.39v1.5a5.39,5.39,0,0,0,2,.29,4.26,4.26,0,0,0,2-.34l0-1.43-1.66-.18Z"/><path class="cls-22" d="M225.25,201.81c0,.33-1,.6-2.31.6s-2.3-.27-2.3-.6,1-.59,2.3-.59,2.31.27,2.31.59"/><path class="cls-4" d="M222.94,202.71c-.43,0-2.61-.05-2.61-.9s2.18-.89,2.61-.89,2.61,0,2.61.89-2.17.9-2.61.9m-1.92-.9a5.07,5.07,0,0,0,1.92.29,5,5,0,0,0,1.92-.29,5,5,0,0,0-1.92-.29,5.07,5.07,0,0,0-1.92.29"/><path class="cls-25" d="M219.59,205.27c0,.32-1,.59-2.3.59s-2.31-.27-2.31-.59v-1.79l2.65-.17,1.92.2"/><path class="cls-4" d="M217.29,206.16c-.44,0-2.61,0-2.61-.89v-1.79a.3.3,0,0,1,.28-.3l2.65-.17,2,.2a.31.31,0,0,1,.27.3l0,1.75c0,.86-2.16.9-2.6.9m-2-2.4v1.51a5.48,5.48,0,0,0,2,.29,4.15,4.15,0,0,0,2-.34l0-1.43-1.66-.18Z"/><path class="cls-22" d="M219.54,203.48c0,.33-1,.6-2.3.6s-2.31-.27-2.31-.6,1-.59,2.31-.59,2.3.27,2.3.59"/><path class="cls-4" d="M217.24,204.38c-.44,0-2.61,0-2.61-.9s2.17-.89,2.61-.89,2.6,0,2.6.89-2.17.9-2.6.9m-1.93-.9a6.53,6.53,0,0,0,3.85,0,6.53,6.53,0,0,0-3.85,0"/><path class="cls-26" d="M185.71,204.73c0,.33-1,.59-2.3.59s-2.31-.26-2.31-.59v-1.79l2.65-.17,1.92.21"/><path class="cls-4" d="M183.41,205.62c-.44,0-2.61,0-2.61-.89V203a.3.3,0,0,1,.28-.3l2.65-.18,2,.21a.31.31,0,0,1,.27.29l0,1.76c0,.85-2.17.89-2.6.89m-2-2.39v1.5a5.48,5.48,0,0,0,2,.29,4.19,4.19,0,0,0,2-.34l0-1.43-1.66-.18Z"/><path class="cls-23" d="M185.66,203c0,.32-1,.59-2.3.59s-2.31-.27-2.31-.59,1-.59,2.31-.59,2.3.26,2.3.59"/><path class="cls-4" d="M183.36,203.84c-.44,0-2.61,0-2.61-.89s2.17-.9,2.61-.9,2.6,0,2.6.9-2.17.89-2.6.89m-1.93-.89a6.53,6.53,0,0,0,3.85,0,6.53,6.53,0,0,0-3.85,0"/><path class="cls-26" d="M181.14,202.7c0,.33-1,.59-2.3.59s-2.3-.26-2.3-.59v-1.79l2.64-.17,1.92.21"/><path class="cls-4" d="M178.84,203.59c-.44,0-2.6,0-2.6-.89v-1.79a.3.3,0,0,1,.27-.3l2.65-.17,2,.2a.31.31,0,0,1,.27.3l0,1.75c0,.86-2.17.9-2.61.9m-2-2.39v1.5a5.53,5.53,0,0,0,2,.29,4.26,4.26,0,0,0,2-.34l0-1.43-1.65-.18Z"/><path class="cls-23" d="M181.09,200.92c0,.32-1,.58-2.3.58s-2.31-.26-2.31-.58,1-.6,2.31-.6,2.3.27,2.3.6"/><path class="cls-4" d="M178.79,201.81c-.44,0-2.61-.05-2.61-.89s2.17-.9,2.61-.9,2.6,0,2.6.9-2.17.89-2.6.89m-1.92-.89a6.5,6.5,0,0,0,3.84,0,6.29,6.29,0,0,0-3.84,0"/><path class="cls-25" d="M196.16,192.69c0,.33-1,.6-2.36.6s-2.37-.27-2.37-.6v-1.84l2.72-.18,2,.21"/><path class="cls-4" d="M193.8,193.59c-.45,0-2.67,0-2.67-.9v-1.84a.3.3,0,0,1,.28-.3l2.72-.18,2,.21a.31.31,0,0,1,.27.3l0,1.79c0,.88-2.22.92-2.66.92m-2.06-2.46v1.56a5.54,5.54,0,0,0,2.06.3,4,4,0,0,0,2.08-.37l0-1.46-1.72-.19Z"/><path class="cls-22" d="M196.11,190.85c0,.34-1.06.61-2.37.61s-2.36-.27-2.36-.61,1.06-.61,2.36-.61,2.37.28,2.37.61"/><path class="cls-4" d="M193.74,191.76c-.44,0-2.66,0-2.66-.91s2.22-.91,2.66-.91,2.67.05,2.67.91-2.22.91-2.67.91m-2-.91a6.57,6.57,0,0,0,4,0,6.78,6.78,0,0,0-4,0"/><path class="cls-25" d="M201.83,190.81c0,.33-1.06.61-2.37.61s-2.36-.28-2.36-.61V189l2.71-.18,2,.21"/><path class="cls-4" d="M199.46,191.72c-.44,0-2.66-.05-2.66-.91V189a.3.3,0,0,1,.28-.3l2.71-.19,2,.22a.31.31,0,0,1,.27.29l0,1.8c0,.87-2.22.92-2.67.92m-2.06-2.46v1.55a5.31,5.31,0,0,0,2.06.3,3.87,3.87,0,0,0,2.08-.37l0-1.46-1.72-.18Z"/><path class="cls-22" d="M201.77,189c0,.33-1.05.61-2.36.61S197,189.31,197,189s1.06-.61,2.37-.61,2.36.27,2.36.61"/><path class="cls-4" d="M199.41,189.89c-.45,0-2.67,0-2.67-.91s2.22-.91,2.67-.91,2.66,0,2.66.91-2.22.91-2.66.91m-2-.91a6.75,6.75,0,0,0,4,0,6.54,6.54,0,0,0-4,0"/><path class="cls-25" d="M207.49,189.28c0,.33-1.06.6-2.37.6s-2.36-.27-2.36-.6v-1.84l2.72-.18,2,.21"/><path class="cls-4" d="M205.13,190.18c-.44,0-2.67,0-2.67-.9v-1.84a.31.31,0,0,1,.29-.3l2.71-.18,2,.21a.31.31,0,0,1,.27.3l0,1.8c0,.87-2.21.91-2.66.91m-2.07-2.46v1.56a5.68,5.68,0,0,0,2.07.3,4,4,0,0,0,2.08-.37l-.05-1.46-1.71-.19Z"/><path class="cls-22" d="M207.44,187.44c0,.34-1.06.61-2.36.61s-2.37-.27-2.37-.61,1.06-.6,2.37-.6,2.36.27,2.36.6"/><path class="cls-4" d="M205.08,188.35c-.45,0-2.67,0-2.67-.91s2.22-.9,2.67-.9,2.66,0,2.66.9-2.22.91-2.66.91m-2-.91a6.57,6.57,0,0,0,4,0,6.57,6.57,0,0,0-4,0"/><path class="cls-25" d="M213.24,187.78c0,.34-1.05.61-2.36.61s-2.36-.27-2.36-.61V186l2.71-.18,2,.22"/><path class="cls-4" d="M210.88,188.7c-.44,0-2.67,0-2.67-.92V186a.3.3,0,0,1,.28-.3l2.72-.17,2,.2a.31.31,0,0,1,.27.3l.05,1.8c0,.87-2.22.92-2.67.92m-2.07-2.47v1.55a5.33,5.33,0,0,0,2.07.31,4,4,0,0,0,2.08-.37l-.05-1.47-1.71-.18Z"/><path class="cls-22" d="M213.19,186c0,.34-1.06.61-2.36.61s-2.37-.27-2.37-.61,1.06-.61,2.37-.61,2.36.28,2.36.61"/><path class="cls-4" d="M210.83,186.86c-.45,0-2.67,0-2.67-.91s2.22-.91,2.67-.91,2.66.05,2.66.91-2.22.91-2.66.91m-2-.91a4.91,4.91,0,0,0,2,.31,5,5,0,0,0,2-.31,5.05,5.05,0,0,0-2-.3,5,5,0,0,0-2,.3"/><path class="cls-25" d="M208.47,185.44c0,.34-1.05.61-2.36.61s-2.36-.27-2.36-.61v-1.83l2.71-.18,2,.21"/><path class="cls-4" d="M206.11,186.35c-.44,0-2.67,0-2.67-.91v-1.83a.31.31,0,0,1,.29-.3l2.71-.18,2,.21a.3.3,0,0,1,.27.3l.05,1.79c0,.88-2.23.92-2.67.92m-2.06-2.46v1.55a5.2,5.2,0,0,0,2.06.31,4,4,0,0,0,2.08-.37l-.05-1.47-1.71-.18Z"/><path class="cls-22" d="M208.42,183.61c0,.33-1.06.61-2.37.61s-2.36-.28-2.36-.61,1.06-.61,2.36-.61,2.37.27,2.37.61"/><path class="cls-4" d="M206.05,184.52c-.44,0-2.66-.05-2.66-.91s2.22-.91,2.66-.91,2.67.05,2.67.91-2.22.91-2.67.91m-2-.91a6.75,6.75,0,0,0,4,0,6.54,6.54,0,0,0-4,0"/><path class="cls-27" d="M180.61,184.16c0,.35-1.08.63-2.41.63s-2.42-.28-2.42-.63v-1.87l2.78-.18,2,.21"/><path class="cls-4" d="M178.2,185.09c-.46,0-2.72-.05-2.72-.93v-1.87a.3.3,0,0,1,.28-.3l2.78-.18,2.06.22a.29.29,0,0,1,.27.29l0,1.84c0,.88-2.27.93-2.72.93m-2.12-2.52v1.59a5,5,0,0,0,2.12.33,4,4,0,0,0,2.13-.39l-.05-1.5-1.75-.19Z"/><path class="cls-24" d="M180.56,182.29c0,.35-1.08.62-2.42.62s-2.42-.27-2.42-.62,1.09-.62,2.42-.62,2.42.28,2.42.62"/><path class="cls-4" d="M178.14,183.21c-.45,0-2.72,0-2.72-.92s2.27-.92,2.72-.92,2.72,0,2.72.92-2.26.92-2.72.92m-2-.92a4.88,4.88,0,0,0,2,.32,5,5,0,0,0,2.06-.32,6.76,6.76,0,0,0-4.11,0"/><path class="cls-27" d="M186.62,182.55c0,.35-1.08.62-2.41.62s-2.42-.27-2.42-.62v-1.87l2.78-.18,2,.22"/><path class="cls-4" d="M184.21,183.47c-.46,0-2.72,0-2.72-.92v-1.87a.3.3,0,0,1,.28-.3l2.78-.18,2.07.22a.28.28,0,0,1,.26.29l.05,1.84c0,.88-2.27.92-2.72.92M182.09,181v1.59a5,5,0,0,0,2.12.33,4,4,0,0,0,2.13-.39l-.05-1.5-1.76-.19Z"/><path class="cls-24" d="M186.57,180.68c0,.34-1.08.62-2.42.62s-2.41-.28-2.41-.62,1.08-.62,2.41-.62,2.42.28,2.42.62"/><path class="cls-4" d="M184.15,181.6c-.45,0-2.72,0-2.72-.92s2.27-.92,2.72-.92,2.72,0,2.72.92-2.26.92-2.72.92m-2.05-.92a5.14,5.14,0,0,0,2.05.32,5.06,5.06,0,0,0,2-.32,4.88,4.88,0,0,0-2-.32,5,5,0,0,0-2.05.32"/><path class="cls-27" d="M192.46,180.68c0,.34-1.08.62-2.42.62s-2.41-.28-2.41-.62v-1.87l2.77-.19,2,.22"/><path class="cls-4" d="M190,181.6c-.45,0-2.72,0-2.72-.92v-1.87a.31.31,0,0,1,.29-.3l2.77-.19,2.08.22a.3.3,0,0,1,.26.29l0,1.84c0,.89-2.26.93-2.72.93m-2.11-2.51v1.59A5.12,5.12,0,0,0,190,181a4,4,0,0,0,2.14-.38l-.05-1.5-1.75-.2Z"/><path class="cls-24" d="M192.41,178.81c0,.34-1.09.62-2.42.62s-2.42-.28-2.42-.62,1.09-.62,2.42-.62,2.42.28,2.42.62"/><path class="cls-4" d="M190,179.73c-.46,0-2.72,0-2.72-.92s2.26-.92,2.72-.92,2.72.05,2.72.92-2.27.92-2.72.92m-2.05-.92a6.73,6.73,0,0,0,4.1,0,6.73,6.73,0,0,0-4.1,0"/><path class="cls-27" d="M198,179c0,.34-1.09.62-2.42.62s-2.42-.28-2.42-.62v-1.87L196,177l2,.22"/><path class="cls-4" d="M195.62,180c-.46,0-2.72,0-2.72-.92v-1.88a.32.32,0,0,1,.28-.3l2.78-.18,2.07.22a.28.28,0,0,1,.26.29l.05,1.84c0,.88-2.27.93-2.72.93m-2.12-2.52V179a5.45,5.45,0,0,0,2.12.32,4,4,0,0,0,2.13-.39l0-1.5-1.76-.19Z"/><path class="cls-24" d="M198,177.16c0,.34-1.08.62-2.41.62s-2.42-.28-2.42-.62,1.08-.63,2.42-.63,2.41.28,2.41.63"/><path class="cls-4" d="M195.57,178.08c-.46,0-2.72-.05-2.72-.92s2.26-.93,2.72-.93,2.72.05,2.72.93-2.27.92-2.72.92m-2-.92a6.9,6.9,0,0,0,4.09,0,4.76,4.76,0,0,0-2-.33,4.82,4.82,0,0,0-2,.33"/><path class="cls-27" d="M193.16,177.07c0,.34-1.08.62-2.42.62s-2.42-.28-2.42-.62v-1.88l2.78-.18,2,.22"/><path class="cls-4" d="M190.74,178c-.45,0-2.72-.05-2.72-.92v-1.88a.32.32,0,0,1,.29-.3l2.77-.18,2.07.21a.32.32,0,0,1,.27.3l0,1.84c0,.88-2.26.93-2.72.93m-2.11-2.52v1.6a5.43,5.43,0,0,0,2.11.31,4,4,0,0,0,2.14-.38l-.06-1.5-1.75-.19Z"/><path class="cls-24" d="M193.11,175.19c0,.35-1.09.63-2.42.63s-2.42-.28-2.42-.63,1.08-.62,2.42-.62,2.42.28,2.42.62"/><path class="cls-4" d="M190.69,176.12c-.46,0-2.72-.05-2.72-.93s2.26-.92,2.72-.92,2.71,0,2.71.92-2.26.93-2.71.93m-2.06-.93a5,5,0,0,0,2.06.32,4.92,4.92,0,0,0,2.05-.32,5.17,5.17,0,0,0-2.05-.31,5.23,5.23,0,0,0-2.06.31"/><path class="cls-27" d="M187.41,178.68c0,.34-1.08.62-2.42.62s-2.42-.28-2.42-.62V176.8l2.78-.18,2,.22"/><path class="cls-4" d="M185,179.6c-.45,0-2.72,0-2.72-.92V176.8a.3.3,0,0,1,.28-.3l2.78-.18,2.07.22a.28.28,0,0,1,.26.29l.05,1.84c0,.88-2.26.93-2.72.93m-2.11-2.52v1.6A5.32,5.32,0,0,0,185,179a4.15,4.15,0,0,0,2.14-.38l-.06-1.51-1.75-.19Z"/><path class="cls-24" d="M187.36,176.8c0,.35-1.08.63-2.42.63s-2.42-.28-2.42-.63,1.08-.62,2.42-.62,2.42.28,2.42.62"/><path class="cls-4" d="M184.94,177.72c-.46,0-2.72,0-2.72-.92s2.26-.92,2.72-.92,2.72.05,2.72.92-2.27.92-2.72.92m-2.05-.92a6.73,6.73,0,0,0,4.1,0,6.93,6.93,0,0,0-4.1,0"/><path class="cls-27" d="M181.4,180.46c0,.35-1.08.62-2.42.62s-2.42-.27-2.42-.62v-1.87l2.78-.19,2,.22"/><path class="cls-4" d="M179,181.38c-.45,0-2.72,0-2.72-.92v-1.87a.3.3,0,0,1,.28-.3l2.78-.19,2.07.22a.29.29,0,0,1,.26.3l0,1.84c0,.88-2.27.92-2.72.92m-2.11-2.51v1.59a5,5,0,0,0,2.11.33,4.05,4.05,0,0,0,2.14-.39l-.06-1.51-1.75-.18Z"/><path class="cls-24" d="M181.34,178.59c0,.34-1.08.62-2.41.62s-2.42-.28-2.42-.62,1.08-.62,2.42-.62,2.41.28,2.41.62"/><path class="cls-4" d="M178.92,179.51c-.45,0-2.71,0-2.71-.92s2.26-.92,2.71-.92,2.72,0,2.72.92-2.26.92-2.72.92m-2-.92a4.86,4.86,0,0,0,2,.32,4.94,4.94,0,0,0,2.06-.32,5.12,5.12,0,0,0-2.06-.32,5,5,0,0,0-2,.32"/><path class="cls-27" d="M175.43,182c0,.34-1.08.62-2.42.62s-2.41-.28-2.41-.62v-1.87l2.78-.19,2,.22"/><path class="cls-4" d="M173,182.91c-.45,0-2.72,0-2.72-.92v-1.88a.32.32,0,0,1,.29-.3l2.77-.18,2.07.22a.29.29,0,0,1,.26.29l0,1.84c0,.89-2.26.93-2.72.93m-2.11-2.52V182a5.32,5.32,0,0,0,2.11.32,4.15,4.15,0,0,0,2.14-.38l-.05-1.51-1.76-.19Z"/><path class="cls-24" d="M175.38,180.11c0,.35-1.09.63-2.42.63s-2.42-.28-2.42-.63,1.08-.62,2.42-.62,2.42.28,2.42.62"/><path class="cls-4" d="M173,181c-.46,0-2.72,0-2.72-.93s2.26-.92,2.72-.92,2.72.05,2.72.92-2.27.93-2.72.93m-2.05-.93a6.73,6.73,0,0,0,4.1,0,6.93,6.93,0,0,0-4.1,0"/><polyline class="cls-25" points="211.05 205.33 222.79 210.52 222.72 217.22 221.21 218.58 210.76 214.41"/><path class="cls-4" d="M221.21,218.88a.2.2,0,0,1-.11,0l-10.45-4.17a.31.31,0,0,1-.19-.29l.29-9.08a.29.29,0,0,1,.14-.24.33.33,0,0,1,.29,0l11.73,5.19a.29.29,0,0,1,.18.28l-.07,6.7a.28.28,0,0,1-.1.22l-1.51,1.37a.31.31,0,0,1-.2.07m-10.14-4.68,10.08,4,1.27-1.16.07-6.37-11.15-4.92Z"/><polygon class="cls-28" points="221.28 209.65 221.21 218.58 234.03 214.77 234.03 205.55 221.28 209.65"/><path class="cls-4" d="M221.21,218.88a.37.37,0,0,1-.18,0,.32.32,0,0,1-.12-.25l.07-8.93a.3.3,0,0,1,.21-.28l12.75-4.11a.32.32,0,0,1,.27,0,.3.3,0,0,1,.12.25v9.21a.29.29,0,0,1-.22.29l-12.82,3.82h-.08m.37-9-.06,8.31,12.21-3.64V206Z"/><polyline class="cls-25" points="185.41 193.23 192.47 196.04 193.84 199.86 191.03 204.69 180.73 200.65 180.8 194.6"/><path class="cls-4" d="M191,205a.2.2,0,0,1-.11,0l-10.3-4a.3.3,0,0,1-.19-.28l.07-6.05a.31.31,0,0,1,.21-.29l4.61-1.37a.27.27,0,0,1,.2,0l7.06,2.81a.3.3,0,0,1,.17.18l1.37,3.82a.31.31,0,0,1,0,.25l-2.81,4.83a.31.31,0,0,1-.26.15m-10-4.55,9.87,3.87,2.61-4.48-1.28-3.56-6.83-2.72-4.3,1.28Z"/><polygon class="cls-22" points="216.96 187.97 216.96 196.62 191.03 204.69 191.11 195.54 216.96 187.97"/><path class="cls-4" d="M191,205a.39.39,0,0,1-.18-.06.33.33,0,0,1-.12-.25l.07-9.14a.32.32,0,0,1,.22-.3l25.86-7.56a.34.34,0,0,1,.26,0,.3.3,0,0,1,.12.24v8.65a.3.3,0,0,1-.21.28L191.12,205l-.09,0m.37-9.23-.07,8.51,25.33-7.88v-8Z"/><polyline class="cls-26" points="172.88 202.96 185.2 208.29 184.62 214.84 183.11 216.14 172.74 211.96"/><path class="cls-4" d="M183.11,216.43a.25.25,0,0,1-.12,0l-10.37-4.17a.3.3,0,0,1-.19-.28l.15-9a.3.3,0,0,1,.14-.25.31.31,0,0,1,.28,0L185.32,208a.3.3,0,0,1,.17.3l-.57,6.56a.35.35,0,0,1-.1.2l-1.52,1.29a.26.26,0,0,1-.19.07M173,211.75l10,4,1.28-1.1.55-6.21-11.71-5.07Z"/><polygon class="cls-29" points="183.11 207.21 183.11 216.14 209.03 208.21 208.96 198.92 183.11 207.21"/><path class="cls-4" d="M183.11,216.43a.27.27,0,0,1-.18-.05.3.3,0,0,1-.12-.24v-8.93a.31.31,0,0,1,.21-.3l25.85-8.28a.32.32,0,0,1,.27.05.31.31,0,0,1,.13.24l.07,9.29a.31.31,0,0,1-.22.29l-25.92,7.92h-.09m.3-9v8.31L208.74,208l-.07-8.66Z"/><polyline class="cls-27" points="178.71 188.48 176.77 186.61 166.47 182.5 166.32 191.79 176.7 195.9 179.94 191.65"/><path class="cls-4" d="M176.7,196.2a.2.2,0,0,1-.11,0l-10.38-4.1a.32.32,0,0,1-.19-.28l.15-9.29a.29.29,0,0,1,.13-.25.31.31,0,0,1,.28,0l10.3,4.11a.21.21,0,0,1,.1.06l1.94,1.87a.19.19,0,0,1,.07.11l1.23,3.17a.3.3,0,0,1,0,.29l-3.25,4.25a.27.27,0,0,1-.23.12m-10.07-4.61,10,3.94,3-3.93-1.14-2.95-1.86-1.78-9.84-3.93Z"/><polygon class="cls-30" points="176.77 186.6 202.7 179.12 202.7 187.54 176.7 195.9 176.77 186.6"/><path class="cls-4" d="M176.7,196.2a.35.35,0,0,1-.18-.06.28.28,0,0,1-.12-.25l.07-9.29a.29.29,0,0,1,.22-.28l25.93-7.49a.28.28,0,0,1,.26,0,.3.3,0,0,1,.12.24v8.42a.31.31,0,0,1-.21.29l-26,8.35a.15.15,0,0,1-.09,0m.37-9.37-.07,8.65,25.4-8.16v-7.8Z"/><path class="cls-31" d="M128.29,148.1s-3.84,1.69-11.76-2c-6.88-3.22-8,3.66-6.09,6.51a11.41,11.41,0,0,0,2.59,1.89c2,1,6,1.81,15.29,1.06-.41.32-3,1.86-3,1.86a5.39,5.39,0,0,0-6.44.53c-3.34,2.7-5.25,10.19-1.56,14.26a4.88,4.88,0,0,0,6,1.05s2.07-.2,4.75-3.19c1.19-1.37,5.3-2.29,5.3-2.29s9.37-1.26,14.08.35,7.73,4.17,10.66-.7-.27-12.82-3.65-14a4.68,4.68,0,0,0-3.59-.25L147.38,151l-1.16-5.25"/><path class="cls-4" d="M120.86,174.31a5.05,5.05,0,0,1-3.86-1.82,9.15,9.15,0,0,1-2.09-7,11.74,11.74,0,0,1,3.7-7.95,6.35,6.35,0,0,1,2.57-1.31c-3.75-.06-6.48-.51-8.34-1.39a10.88,10.88,0,0,1-2.77-2,6.26,6.26,0,0,1-.32-6c1.17-2.22,3.76-2.71,7-1.21a21.42,21.42,0,0,0,8.92,2.36,7.19,7.19,0,0,0,2.47-.34l.12,0,17.92-2.4a.46.46,0,0,1,.51.35l1.12,5.07,3.2,2a5.93,5.93,0,0,1,1.55-.22,4.35,4.35,0,0,1,2.21.57c1.58.54,3.22,2.59,4.19,5.29,1.23,3.4,1.08,6.9-.39,9.34-1.25,2.07-2.65,3-4.39,3a12.62,12.62,0,0,1-4.44-1.25c-.74-.29-1.53-.61-2.37-.9a21.56,21.56,0,0,0-6.66-.8,59.44,59.44,0,0,0-7.2.47c-1.07.24-4.13,1.1-5,2.14-2.47,2.75-4.48,3.24-4.95,3.32a6,6,0,0,1-2.64.64m1.6-17.29a5.16,5.16,0,0,0-3.28,1.26,10.92,10.92,0,0,0-3.36,7.31,8.27,8.27,0,0,0,1.85,6.3,4.13,4.13,0,0,0,3.19,1.52,5.19,5.19,0,0,0,2.27-.56.32.32,0,0,1,.18-.06s2-.25,4.47-3c1.26-1.46,5.36-2.39,5.54-2.43a62.18,62.18,0,0,1,7.36-.48,22.24,22.24,0,0,1,7,.85c.85.29,1.65.61,2.41.92a12.11,12.11,0,0,0,4.1,1.18c1.42,0,2.53-.81,3.62-2.61,1.33-2.21,1.45-5.41.31-8.57-.87-2.41-2.33-4.29-3.72-4.77a3.53,3.53,0,0,0-1.83-.48,4.61,4.61,0,0,0-1.47.23.45.45,0,0,1-.39-.05l-3.53-2.21a.43.43,0,0,1-.21-.28l-1.06-4.85-17.46,2.34a8.16,8.16,0,0,1-2.77.4,22.37,22.37,0,0,1-9.31-2.45,7.28,7.28,0,0,0-3-.8,2.94,2.94,0,0,0-2.76,1.61,5.3,5.3,0,0,0,.27,5,11.76,11.76,0,0,0,2.41,1.73c2.72,1.28,7.66,1.61,15,1a.45.45,0,0,1,.32.8c-.42.33-2.76,1.74-3,1.9a.44.44,0,0,1-.49,0,5.11,5.11,0,0,0-2.62-.75m1.21-.77a6.07,6.07,0,0,1,1.67.62l1.25-.76c-1,.07-2,.11-2.92.14"/><path class="cls-32" d="M125.06,135.14a5,5,0,0,1-3.83-2.13c-1.61-2.48-.49-6.07,2.52-8s6.75-1.57,8.36.9c0,0,9.73-3,15.82,4.05,6.21-3.91,9.44,1.09,10.13,2.12s2.82,9.51-7,9.51l-.49.76s2.5,6-3.51,8.64-20.06,2.09-23.34-10.75a5.31,5.31,0,0,1,1.38-5.07"/><path class="cls-4" d="M140.18,152.67c-3.23,0-14-.89-16.94-12.35a5.85,5.85,0,0,1,.94-4.86,5.29,5.29,0,0,1-3.33-2.21,5.38,5.38,0,0,1-.53-4.59,8.05,8.05,0,0,1,7.45-5.39,5.55,5.55,0,0,1,4.53,2.09,19.43,19.43,0,0,1,4.7-.57,14.54,14.54,0,0,1,11,4.55c4.08-2.41,7.77-1.53,10.4,2.43a8,8,0,0,1,0,6.83c-1.18,2.21-3.59,3.36-7.16,3.41l-.23.36c.39,1.18,1.83,6.54-3.83,9a18.32,18.32,0,0,1-7,1.29m-12.41-28.49a6.94,6.94,0,0,0-3.77,1.17,6.75,6.75,0,0,0-2.81,3.58,4.26,4.26,0,0,0,3.9,5.76.43.43,0,0,1,.39.31.44.44,0,0,1-.13.48,4.83,4.83,0,0,0-1.23,4.62c2.77,10.83,13,11.67,16.06,11.67a17.25,17.25,0,0,0,6.66-1.22c5.54-2.41,3.36-7.84,3.27-8.06a.45.45,0,0,1,0-.42l.49-.75a.44.44,0,0,1,.38-.21c3.34,0,5.56-1,6.61-2.94a7.23,7.23,0,0,0,.06-5.87c-2.48-3.71-5.74-4.37-9.52-2a.46.46,0,0,1-.58-.09A13.61,13.61,0,0,0,137,125.7a17.73,17.73,0,0,0-4.75.62.47.47,0,0,1-.52-.19,4.58,4.58,0,0,0-4-1.95"/><path class="cls-33" d="M126.27,132.28a9.57,9.57,0,0,1,3.48-4c-1.42-2.59-3.58-1.71-4.6-1.09a2.68,2.68,0,0,0-.88.93c-.5,1-1.1,3.06,2,4.14"/><path class="cls-4" d="M126.27,132.73a.39.39,0,0,1-.15,0,3.87,3.87,0,0,1-2.52-2,3.35,3.35,0,0,1,.26-2.73,3.09,3.09,0,0,1,1-1.11,4.54,4.54,0,0,1,2.3-.74,3.29,3.29,0,0,1,2.94,2,.45.45,0,0,1-.14.58,9.18,9.18,0,0,0-3.31,3.77.46.46,0,0,1-.43.29m.94-5.73a3.58,3.58,0,0,0-1.82.6,2.2,2.2,0,0,0-.72.74,2.47,2.47,0,0,0-.23,2,2.73,2.73,0,0,0,1.6,1.37,10.57,10.57,0,0,1,3.11-3.53,2.27,2.27,0,0,0-1.94-1.18"/><path class="cls-33" d="M150.75,137.59a9.49,9.49,0,0,0-1.19-5.14c2.48-1.62,4,.17,4.57,1.2a2.7,2.7,0,0,1,.35,1.24c0,1.09-.48,3.21-3.73,2.7"/><path class="cls-4" d="M151.69,138.12a7.33,7.33,0,0,1-1-.08.45.45,0,0,1-.37-.51,9.41,9.41,0,0,0-1.15-4.88.44.44,0,0,1,.15-.58,4,4,0,0,1,2.15-.73,3.73,3.73,0,0,1,3.06,2.08,3.2,3.2,0,0,1,.41,1.47,3,3,0,0,1-3.24,3.23m-.46-.92c1.84.16,2.76-.62,2.79-2.32a2.19,2.19,0,0,0-.28-1,2.89,2.89,0,0,0-2.28-1.63,2.75,2.75,0,0,0-1.31.37,10.78,10.78,0,0,1,1.08,4.58"/><path class="cls-4" d="M145.84,139.26h0a.46.46,0,0,1-.44-.47c.1-2.5-2.88-3.59-2.92-3.61a.46.46,0,0,1-.27-.58.46.46,0,0,1,.58-.27c.15.06,3.64,1.34,3.51,4.5a.45.45,0,0,1-.44.43"/><path class="cls-4" d="M130.63,135a.5.5,0,0,1-.28-.1.47.47,0,0,1-.07-.64,5.73,5.73,0,0,1,5.41-1.85.46.46,0,0,1-.19.89,4.82,4.82,0,0,0-4.51,1.53.46.46,0,0,1-.36.17"/><path class="cls-34" d="M135.65,139.23a2.35,2.35,0,1,1-2.74-1.61,2.26,2.26,0,0,1,2.74,1.61"/><path class="cls-4" d="M133.27,142.31a2.63,2.63,0,0,1-2.65-2,2.8,2.8,0,0,1,5.47-1.15,2.49,2.49,0,0,1-.44,2,2.88,2.88,0,0,1-1.77,1.13,3.15,3.15,0,0,1-.61.06m.17-4.29a2.09,2.09,0,0,0-.43,0,1.7,1.7,0,1,0,.69,3.31,2.07,2.07,0,0,0,1.22-.78,1.6,1.6,0,0,0,.28-1.26,1.72,1.72,0,0,0-1.76-1.31"/><path class="cls-34" d="M144.14,141.58a2.35,2.35,0,1,1-2.73-1.61,2.25,2.25,0,0,1,2.73,1.61"/><path class="cls-4" d="M141.76,144.66a2.61,2.61,0,0,1-2.64-2,2.8,2.8,0,0,1,5.46-1.15,2.47,2.47,0,0,1-.43,2,2.88,2.88,0,0,1-1.77,1.13,2.56,2.56,0,0,1-.62.06m.18-4.29a2.18,2.18,0,0,0-.44,0,1.81,1.81,0,0,0-1.5,2.05,1.83,1.83,0,0,0,2.2,1.26,2,2,0,0,0,1.21-.78,1.57,1.57,0,0,0,.29-1.26,1.73,1.73,0,0,0-1.76-1.31"/><path class="cls-35" d="M134.73,139.72a1.38,1.38,0,1,1-1.6-.94,1.33,1.33,0,0,1,1.6.94"/><path class="cls-4" d="M133.34,141.71a1.73,1.73,0,0,1-1.74-1.33,1.83,1.83,0,1,1,2.14,1.29,1.87,1.87,0,0,1-.4,0m.1-2.51-.22,0a.87.87,0,0,0-.74,1,.89.89,0,0,0,1.07.6.87.87,0,0,0,.73-1,.81.81,0,0,0-.84-.61"/><path class="cls-35" d="M142.93,142.07a1.35,1.35,0,1,1-1.56-.92,1.29,1.29,0,0,1,1.56.92"/><path class="cls-4" d="M141.57,144a1.69,1.69,0,0,1-1.71-1.32,1.8,1.8,0,0,1,3.51-.74,1.63,1.63,0,0,1-.24,1.23A1.83,1.83,0,0,1,142,144a2.58,2.58,0,0,1-.39,0m.09-2.47-.2,0a.83.83,0,0,0-.72.94.86.86,0,0,0,1,.58.94.94,0,0,0,.6-.4.71.71,0,0,0,.11-.54.8.8,0,0,0-.83-.6"/><path class="cls-36" d="M116.92,147.39c2.44.88,3.93,2.94,3.34,4.59s-3.07,2.28-5.51,1.39-3.94-2.94-3.34-4.6,3.06-2.27,5.51-1.38"/><path class="cls-4" d="M117,154.23a7.11,7.11,0,0,1-2.37-.43,6.46,6.46,0,0,1-3-2.17,3.23,3.23,0,0,1-.59-3c.47-1.29,1.9-2.09,3.72-2.09a6.79,6.79,0,0,1,2.37.43,6.41,6.41,0,0,1,3,2.17,3.18,3.18,0,0,1,.59,3c-.47,1.29-1.89,2.1-3.72,2.1m-2.26-6.8a2.86,2.86,0,0,0-2.87,1.5,2.32,2.32,0,0,0,.47,2.16,5.53,5.53,0,0,0,2.6,1.86,6.27,6.27,0,0,0,2.06.37c1.44,0,2.54-.57,2.87-1.49a2.33,2.33,0,0,0-.47-2.17,5.49,5.49,0,0,0-2.59-1.85,6.14,6.14,0,0,0-2.07-.38"/><path class="cls-4" d="M123.39,173.69a.43.43,0,0,1-.38-.21.44.44,0,0,1,.13-.62c.17-.12,4.21-2.84,2.82-9.45s-5.63-5.78-5.81-5.75a.45.45,0,1,1-.17-.88c.06,0,5.32-.91,6.87,6.45s-3,10.26-3.22,10.39a.42.42,0,0,1-.24.07"/><path class="cls-4" d="M150.67,169.82a.48.48,0,0,1-.24-.07,9.77,9.77,0,0,1-4.07-6.5c-2.32-8.44,4.35-10.5,4.43-10.52a.44.44,0,0,1,.55.3.46.46,0,0,1-.3.57c-.25.07-5.89,1.85-3.79,9.45a9,9,0,0,0,3.66,5.93.46.46,0,0,1,.14.63.47.47,0,0,1-.38.21"/><path class="cls-31" d="M140.42,153.83a15.49,15.49,0,0,1-6,8.88s-4.49,4.79,2.46,7.82,9.19-8,9.19-8l2.1-8.81"/><path class="cls-4" d="M139.15,171.5a6.21,6.21,0,0,1-2.5-.56c-2.37-1-3.74-2.39-4.08-4a5.6,5.6,0,0,1,1.47-4.49,15.34,15.34,0,0,0,5.93-8.66.47.47,0,0,1,.53-.37.45.45,0,0,1,.36.53,15.8,15.8,0,0,1-6.22,9.17,4.78,4.78,0,0,0-1.18,3.64c.28,1.35,1.47,2.48,3.55,3.39a4.45,4.45,0,0,0,4,0c3.31-1.71,4.55-7.65,4.56-7.71l2.1-8.82a.45.45,0,1,1,.88.2l-2.1,8.82c-.05.25-1.33,6.4-5,8.32a4.87,4.87,0,0,1-2.29.56"/><path class="cls-37" d="M124.45,166c-.15,3.19-2,5.69-4.18,5.59s-3.78-2.77-3.63-5.95,2-5.69,4.17-5.59,3.79,2.77,3.64,5.95"/><path class="cls-4" d="M120.4,172h-.14a3.84,3.84,0,0,1-3.05-2,7.71,7.71,0,0,1-1-4.39c.15-3.38,2.13-6,4.5-6h.14c2.4.11,4.23,3,4.07,6.42s-2.14,6-4.5,6m.39-11.55c-2,0-3.57,2.32-3.7,5.16a6.89,6.89,0,0,0,.89,3.88,3,3,0,0,0,2.31,1.6h.11c1.85,0,3.46-2.32,3.6-5.16s-1.31-5.39-3.21-5.48"/><path class="cls-37" d="M158,160.64c.76,3.63-.61,7-3.07,7.5s-5.05-2-5.81-5.63.61-7,3.06-7.5,5.06,2,5.82,5.63"/><path class="cls-4" d="M154.32,168.66c-2.51,0-4.88-2.55-5.61-6.06-.81-3.86.72-7.46,3.41-8a3.65,3.65,0,0,1,.74-.08c2.52,0,4.88,2.55,5.61,6.06a8.9,8.9,0,0,1-.35,5.18,4.36,4.36,0,0,1-3.06,2.85,3.65,3.65,0,0,1-.74.08m-1.46-13.26a3.31,3.31,0,0,0-.55,0c-2.21.47-3.43,3.59-2.72,7s3.11,5.74,5.29,5.28a3.53,3.53,0,0,0,2.41-2.31,8.11,8.11,0,0,0,.3-4.65c-.64-3.05-2.67-5.34-4.73-5.34"/><path class="cls-38" d="M143.24,151.9c.53-.07.63-.87.82-1.38,1.26-3.29-1.44-7.37-6-9.12s-9.32-.51-10.57,2.78a5,5,0,0,0-.16,2.95s5.22,6.16,15.94,4.77"/><path class="cls-4" d="M140.16,152.56h0c-8.74,0-13-4.93-13.19-5.14a.44.44,0,0,1-.1-.19A5.38,5.38,0,0,1,127,144c.91-2.39,3.53-3.87,6.83-3.87a12.48,12.48,0,0,1,4.33.82,11.29,11.29,0,0,1,5.41,4.16,6,6,0,0,1,.88,5.55,2.72,2.72,0,0,0-.11.34c-.16.52-.38,1.24-1.08,1.34a26.09,26.09,0,0,1-3.14.2m-12.44-5.65c.57.62,4.71,4.75,12.43,4.75h0a22.34,22.34,0,0,0,3-.21c.12,0,.26-.45.33-.69a3.14,3.14,0,0,1,.13-.4,5.14,5.14,0,0,0-.78-4.73,10.3,10.3,0,0,0-5-3.81,11.31,11.31,0,0,0-4-.77c-2.92,0-5.22,1.26-6,3.29a4.38,4.38,0,0,0-.16,2.57"/><path class="cls-36" d="M139.71,145.78c-.28,1.05-2,1.48-4,1s-3.22-1.76-2.94-2.8,2-1.49,4-1,3.22,1.77,2.94,2.81"/><path class="cls-4" d="M137.31,147.42a6.44,6.44,0,0,1-1.66-.23c-2.18-.58-3.62-2.05-3.27-3.36.25-.94,1.34-1.52,2.83-1.52a6.44,6.44,0,0,1,1.67.22c2.18.58,3.62,2.06,3.27,3.37-.25.93-1.34,1.52-2.84,1.52m-2.1-4.21c-1,0-1.82.34-2,.85-.19.69.84,1.78,2.61,2.26,1.58.42,3.21.08,3.4-.66s-.85-1.78-2.62-2.25a5.61,5.61,0,0,0-1.44-.2"/><path class="cls-4" d="M136.65,149.24a6.36,6.36,0,0,1-4.47-2.09.44.44,0,0,1,0-.63.46.46,0,0,1,.64,0,5.37,5.37,0,0,0,4.52,1.71.45.45,0,0,1,.52.37.44.44,0,0,1-.37.52,5.43,5.43,0,0,1-.88.08"/><path class="cls-4" d="M134.79,148.84a.41.41,0,0,1-.21-.05.45.45,0,0,1-.19-.61l.85-1.63a.44.44,0,0,1,.6-.19.46.46,0,0,1,.2.61l-.85,1.63a.46.46,0,0,1-.4.24"/><path class="cls-39" d="M113.71,75.28A18.37,18.37,0,1,1,95.34,56.91a18.36,18.36,0,0,1,18.37,18.37"/><path class="cls-4" d="M95.34,94.25a19,19,0,1,1,19-19,19,19,0,0,1-19,19m0-36.74a17.77,17.77,0,1,0,17.77,17.76A17.79,17.79,0,0,0,95.34,57.51"/><path class="cls-40" d="M96.73,93.57a1.39,1.39,0,0,1-2.78,0V90.25a1.39,1.39,0,0,1,2.78,0"/><path class="cls-4" d="M95.34,95.41a1.84,1.84,0,0,1-1.84-1.83V90.25a1.84,1.84,0,0,1,3.68,0v3.33a1.83,1.83,0,0,1-1.84,1.83m0-6.1a.94.94,0,0,0-.93.94v3.33a.94.94,0,0,0,1.87,0V90.25a.94.94,0,0,0-.94-.94"/><path class="cls-40" d="M96.73,60.3a1.39,1.39,0,1,1-2.78,0V57a1.39,1.39,0,0,1,2.78,0"/><path class="cls-4" d="M95.34,62.14A1.84,1.84,0,0,1,93.5,60.3V57a1.84,1.84,0,0,1,3.68,0V60.3a1.84,1.84,0,0,1-1.84,1.84m0-6.1a.94.94,0,0,0-.93.94V60.3a.94.94,0,1,0,1.87,0V57a.94.94,0,0,0-.94-.94"/><path class="cls-40" d="M113.64,73.89a1.39,1.39,0,1,1,0,2.77h-3.32a1.39,1.39,0,1,1,0-2.77"/><path class="cls-4" d="M113.64,77.11h-3.32a1.84,1.84,0,1,1,0-3.67h3.32a1.84,1.84,0,1,1,0,3.67m-3.32-2.77a.94.94,0,1,0,0,1.87h3.32a.94.94,0,1,0,0-1.87Z"/><path class="cls-40" d="M80.37,73.89a1.39,1.39,0,0,1,0,2.77H77a1.39,1.39,0,1,1,0-2.77"/><path class="cls-4" d="M80.37,77.11H77a1.84,1.84,0,1,1,0-3.67h3.33a1.84,1.84,0,1,1,0,3.67M77,74.34a.94.94,0,0,0,0,1.87h3.33a.94.94,0,0,0,0-1.87Z"/><path class="cls-41" d="M95.34,63.63A1.36,1.36,0,0,0,94,64.94v9.3c0,1.72.63,3.11,1.39,3.11s1.39-1.39,1.39-3.11v-9.3a1.35,1.35,0,0,0-1.39-1.31"/><path class="cls-4" d="M95.34,77.81c-1,0-1.84-1.54-1.84-3.57v-9.3a1.84,1.84,0,0,1,3.68,0v9.3c0,2-.79,3.57-1.84,3.57m0-13.73a.9.9,0,0,0-.93.86v9.3c0,1.72.61,2.66.93,2.66s.94-.94.94-2.66v-9.3a.91.91,0,0,0-.94-.86"/><path class="cls-41" d="M101.42,73.89a1.43,1.43,0,1,1,0,2.77H97.13a1.43,1.43,0,1,1,0-2.77"/><path class="cls-4" d="M101.42,77.11H97.13a1.87,1.87,0,1,1,0-3.67h4.29a1.87,1.87,0,1,1,0,3.67m-4.29-2.77c-.72,0-1.34.43-1.34.94s.62.93,1.34.93h4.29c.73,0,1.34-.43,1.34-.93s-.61-.94-1.34-.94Z"/><path class="cls-42" d="M97.42,75.28a2.08,2.08,0,1,1-2.08-2.08,2.08,2.08,0,0,1,2.08,2.08"/><path class="cls-4" d="M95.34,77.81a2.53,2.53,0,1,1,2.53-2.54,2.54,2.54,0,0,1-2.53,2.54m0-4.16A1.63,1.63,0,1,0,97,75.27a1.63,1.63,0,0,0-1.63-1.62"/><path class="cls-40" d="M95.34,54.69a20.41,20.41,0,1,0,20.41,20.42A20.41,20.41,0,0,0,95.34,54.69m0,37.77a17.37,17.37,0,1,1,17.37-17.35A17.35,17.35,0,0,1,95.34,92.46"/><path class="cls-4" d="M95.34,96a20.87,20.87,0,1,1,20.87-20.86A20.89,20.89,0,0,1,95.34,96m0-40.83a20,20,0,1,0,20,20,20,20,0,0,0-20-20m0,37.78a17.82,17.82,0,1,1,17.82-17.81A17.83,17.83,0,0,1,95.34,92.92m0-34.73a16.91,16.91,0,1,0,16.91,16.92A16.94,16.94,0,0,0,95.34,58.19"/><path class="cls-43" d="M101.42,223.69c-1.23-.93-1-3.39-1-3.71a2.24,2.24,0,1,0-3,.11c0,.55.12,2.75-1,3.61-1.32,1-2.38,1.37-2.4,2.9s1.25,1.87,3.42,2.09c1.14,0,1.63,0,1.69,0,.27,0,.7,0,1.33,0,2.17-.23,3.43-.56,3.42-2.09s-1.07-1.92-2.39-2.9"/><path class="cls-4" d="M98.36,229l-1,0c-2.05-.21-3.73-.53-3.72-2.39,0-1.4.82-2,1.83-2.66l.68-.48c1-.72,1-2.62.92-3.23a2.55,2.55,0,1,1,4.29-1.85,2.51,2.51,0,0,1-.68,1.73c-.07,1,0,2.69.91,3.33l.68.49c1,.7,1.82,1.25,1.83,2.66,0,1.85-1.66,2.17-3.69,2.38-.67,0-1.09,0-1.37,0,0,0-.25,0-.69,0m.47-12.58a2,2,0,0,0-2,1.95,1.93,1.93,0,0,0,.69,1.48.28.28,0,0,1,.1.21c0,.67.12,2.93-1.14,3.87l-.71.5c-1,.67-1.55,1.07-1.56,2.17s.69,1.52,3.15,1.78c1,0,1.55,0,1.62,0h1.35c2.43-.26,3.14-.65,3.13-1.79s-.6-1.5-1.57-2.17c-.22-.15-.46-.31-.7-.5-1.34-1-1.18-3.48-1.14-4a.31.31,0,0,1,.09-.18,2,2,0,0,0-1.36-3.34"/><polyline class="cls-14" points="117.89 235.79 121.52 243.97 129.32 243.43 131.28 235.75 128.48 231.54 125.23 228.71"/><path class="cls-4" d="M121.52,244.27a.28.28,0,0,1-.27-.18l-3.63-8.17a.29.29,0,0,1,.06-.34l7.34-7.09a.31.31,0,0,1,.41,0l3.25,2.84.06.06,2.79,4.21a.29.29,0,0,1,0,.24l-2,7.67a.3.3,0,0,1-.27.23l-7.8.54m-3.29-8.4,3.46,7.78,7.37-.5,1.87-7.34-2.7-4.07-3-2.62Z"/><polyline class="cls-44" points="125.23 228.71 130.24 238.22 132.7 241.85 136.41 240.38 132.36 233.13"/><path class="cls-4" d="M132.7,242.14a.28.28,0,0,1-.25-.13L130,238.38l-5-9.54a.28.28,0,0,1,.06-.35.29.29,0,0,1,.36,0l7.13,4.42a.26.26,0,0,1,.1.11l4,7.26a.31.31,0,0,1,0,.25.33.33,0,0,1-.17.18l-3.72,1.45a.18.18,0,0,1-.1,0M126,229.55l4.49,8.53,2.31,3.4,3.17-1.25-3.84-6.89Z"/><polygon class="cls-45" points="129.36 236.38 121.52 243.97 129.61 247.06 136.41 240.38 129.36 236.38"/><path class="cls-4" d="M129.61,247.36l-.11,0-8.09-3.09a.33.33,0,0,1-.19-.22.32.32,0,0,1,.09-.28l7.84-7.59a.3.3,0,0,1,.36,0l7,4a.32.32,0,0,1,.16.23.34.34,0,0,1-.09.25l-6.8,6.67a.29.29,0,0,1-.21.09m-7.54-3.5,7.47,2.85,6.37-6.26-6.5-3.7Z"/><path class="cls-46" d="M130.39,242.42a.86.86,0,1,1-1.27-1.07.85.85,0,1,1,1.27,1.07"/><path class="cls-4" d="M129.53,243.46a1.28,1.28,0,0,1-.85-.3,1.4,1.4,0,0,1-.47-1.1,1.85,1.85,0,0,1,.45-1.1,1.59,1.59,0,0,1,2.17-.34,1.34,1.34,0,0,1,.46,1.1,1.86,1.86,0,0,1-1.76,1.74m.46-1.93a.51.51,0,0,0-.41.21.61.61,0,0,0-.16.36c0,.06,0,.12,0,.14l.07,0a.66.66,0,0,0,.56-.59c0-.06,0-.12,0-.14Z"/><path class="cls-46" d="M130.85,235c.39.5.47,1.1.16,1.34s-.88,0-1.27-.46-.47-1.09-.16-1.33.87,0,1.27.45"/><path class="cls-4" d="M130.69,237.08a1.88,1.88,0,0,1-1.42-.79,1.55,1.55,0,0,1-.07-2.18,1.58,1.58,0,0,1,2.12.55,1.55,1.55,0,0,1,.06,2.18,1,1,0,0,1-.69.24m-.69-2a.9.9,0,0,0,.21.44,1,1,0,0,0,.38.3,1,1,0,0,0-.21-.43,1,1,0,0,0-.38-.31"/><path class="cls-46" d="M132,233.7c.39.49.46,1.09.16,1.34s-.88,0-1.27-.46-.47-1.1-.16-1.34.87,0,1.27.46"/><path class="cls-4" d="M131.88,235.74a1.9,1.9,0,0,1-1.42-.78,1.55,1.55,0,0,1-.07-2.19,1.59,1.59,0,0,1,2.12.55,2,2,0,0,1,.47,1.42,1.09,1.09,0,0,1-.41.77,1.1,1.1,0,0,1-.69.23m-.7-2a1.1,1.1,0,0,0,.22.44,1,1,0,0,0,.38.3,1,1,0,0,0-.22-.44.93.93,0,0,0-.38-.3"/><path class="cls-46" d="M124.27,235.85a1,1,0,1,1-1-1,1,1,0,0,1,1,1"/><path class="cls-4" d="M123.26,237.48a1.64,1.64,0,1,1,1.61-1.63,1.62,1.62,0,0,1-1.61,1.63m0-2.06a.42.42,0,0,0-.41.43.43.43,0,0,0,.41.43.42.42,0,0,0,.41-.43.42.42,0,0,0-.41-.43"/><path class="cls-46" d="M127.44,236a1,1,0,1,1-1-1,1,1,0,0,1,1,1"/><path class="cls-4" d="M126.43,237.59A1.64,1.64,0,1,1,128,236a1.63,1.63,0,0,1-1.61,1.63m0-2.07a.42.42,0,0,0-.41.44.41.41,0,0,0,.41.42.42.42,0,0,0,.41-.42.43.43,0,0,0-.41-.44"/><path class="cls-46" d="M125.25,232.35a1,1,0,1,1-1-1,1,1,0,0,1,1,1"/><path class="cls-4" d="M124.24,234a1.64,1.64,0,0,1,0-3.27,1.64,1.64,0,0,1,0,3.27m0-2.06a.43.43,0,1,0,.41.43.42.42,0,0,0-.41-.43"/><path class="cls-46" d="M121.23,236.08a1,1,0,1,1-1-1,1,1,0,0,1,1,1"/><path class="cls-4" d="M120.22,237.71a1.63,1.63,0,1,1,1.61-1.63,1.63,1.63,0,0,1-1.61,1.63m0-2.06a.43.43,0,0,0,0,.86.43.43,0,0,0,0-.86"/><path class="cls-46" d="M123.27,239.75a1,1,0,1,1-1-1,1,1,0,0,1,1,1"/><path class="cls-4" d="M122.26,241.38a1.64,1.64,0,1,1,1.61-1.63,1.62,1.62,0,0,1-1.61,1.63m0-2.06a.43.43,0,0,0,0,.86.43.43,0,0,0,0-.86"/><polyline class="cls-47" points="119.51 183.16 111.29 184.08 104.5 188.87 111.25 193.32 119.8 188.81"/><path class="cls-4" d="M111.25,193.62a.3.3,0,0,1-.16-.05l-6.76-4.45a.29.29,0,0,1-.14-.24.3.3,0,0,1,.13-.25l6.8-4.8a.24.24,0,0,1,.14-.05l8.21-.92a.3.3,0,0,1,.23.07.26.26,0,0,1,.11.21l.29,5.65a.28.28,0,0,1-.16.28l-8.55,4.51a.23.23,0,0,1-.14,0M105,188.87l6.24,4.1,8.22-4.34-.27-5.13-7.82.87Z"/><polyline class="cls-48" points="104.5 188.87 116.76 187.83 119.42 192.48 117.09 198.3 108 198.49"/><path class="cls-4" d="M108,198.79a.31.31,0,0,1-.29-.2l-3.5-9.61a.32.32,0,0,1,0-.27.3.3,0,0,1,.23-.14l12.26-1a.31.31,0,0,1,.29.15l2.67,4.65a.3.3,0,0,1,0,.26l-2.33,5.82a.3.3,0,0,1-.27.19l-9.1.19m-3.09-9.65,3.3,9,8.67-.18,2.21-5.49-2.5-4.36Z"/><polygon class="cls-49" points="113.28 188.14 119.51 183.16 122.93 192.1 117.09 198.3 113.28 188.14"/><path class="cls-4" d="M117.09,198.6H117a.28.28,0,0,1-.22-.19L113,188.25a.3.3,0,0,1,.1-.34l6.23-5a.33.33,0,0,1,.27,0,.3.3,0,0,1,.2.18l3.42,8.95a.3.3,0,0,1-.06.31l-5.84,6.19a.28.28,0,0,1-.22.1m-3.46-10.36,3.57,9.5,5.38-5.71-3.2-8.38Z"/><path class="cls-46" d="M119.18,189.46a.94.94,0,1,1-1.31-.63,1,1,0,0,1,1.31.63"/><path class="cls-4" d="M118.5,191.55a1.75,1.75,0,0,1-1.53-1.06,1.82,1.82,0,0,1-.08-1.39,1.41,1.41,0,0,1,.73-.82,1.66,1.66,0,0,1,2.1.93,1.8,1.8,0,0,1,.09,1.4,1.42,1.42,0,0,1-.73.81,1.41,1.41,0,0,1-.58.13m-.3-2.19c-.13,0-.17.1-.18.15a.61.61,0,0,0,0,.47c.13.28.38.41.51.35a.27.27,0,0,0,.11-.13.63.63,0,0,0-.05-.48.55.55,0,0,0-.43-.36"/><path class="cls-46" d="M113,184.93c.11.33-.31.78-.94,1s-1.24.14-1.36-.19.3-.78.93-1,1.25-.14,1.37.19"/><path class="cls-4" d="M111.4,186.67a1.23,1.23,0,0,1-1.25-.72,1.13,1.13,0,0,1,.31-1.15,2.45,2.45,0,0,1,1-.63c.94-.33,1.9-.1,2.14.56s-.31,1.42-1.31,1.77a2.59,2.59,0,0,1-.88.17m.78-1.44a1.25,1.25,0,0,0-.32.08,1.2,1.2,0,0,0-.3.14,2.14,2.14,0,0,0,.32-.08,1.4,1.4,0,0,0,.3-.14"/><path class="cls-46" d="M113.8,186.65c.11.33-.3.79-.94,1s-1.24.14-1.36-.19.3-.78.94-1,1.24-.14,1.36.19"/><path class="cls-4" d="M112.18,188.39a1.23,1.23,0,0,1-1.25-.72c-.24-.68.31-1.42,1.3-1.78s1.9-.1,2.13.56-.3,1.42-1.3,1.78a2.78,2.78,0,0,1-.88.16M113,187a1.36,1.36,0,0,0-.32.08,1.51,1.51,0,0,0-.31.14,1.32,1.32,0,0,0,.33-.08,2.15,2.15,0,0,0,.3-.14"/><path class="cls-46" d="M112.73,190.83a1,1,0,1,1-1-1,1,1,0,0,1,1,1"/><path class="cls-4" d="M111.74,192.46a1.64,1.64,0,1,1,1.59-1.63,1.62,1.62,0,0,1-1.59,1.63m0-2.06a.43.43,0,1,0,.39.43.41.41,0,0,0-.39-.43"/><path class="cls-46" d="M111.33,193.48a1,1,0,1,1-2,0,1,1,0,1,1,2,0"/><path class="cls-4" d="M110.33,195.12a1.64,1.64,0,1,1,1.6-1.64,1.62,1.62,0,0,1-1.6,1.64m0-2.07a.41.41,0,0,0-.38.43.41.41,0,0,0,.38.43.41.41,0,0,0,.39-.43.42.42,0,0,0-.39-.43"/><path class="cls-46" d="M114.62,196.09a1,1,0,1,1-1-1,1,1,0,0,1,1,1"/><path class="cls-4" d="M113.63,197.72a1.64,1.64,0,1,1,1.59-1.63,1.61,1.61,0,0,1-1.59,1.63m0-2.06a.43.43,0,1,0,.39.43.41.41,0,0,0-.39-.43"/><path class="cls-46" d="M110.32,196.46a1,1,0,1,1-1-1,1,1,0,0,1,1,1"/><path class="cls-4" d="M109.33,198.1a1.64,1.64,0,1,1,1.59-1.64,1.62,1.62,0,0,1-1.59,1.64m0-2.07a.42.42,0,0,0-.39.43.41.41,0,0,0,.39.43.41.41,0,0,0,.39-.43.41.41,0,0,0-.39-.43"/><path class="cls-46" d="M108.39,191.17a1,1,0,1,1-2,0,1,1,0,1,1,2,0"/><path class="cls-4" d="M107.4,192.8a1.64,1.64,0,1,1,1.59-1.63,1.62,1.62,0,0,1-1.59,1.63m0-2.06a.41.41,0,0,0-.39.43.39.39,0,1,0,.77,0,.41.41,0,0,0-.38-.43"/><path class="cls-50" d="M125.92,213.87c-1.24-.92-1-3.39-1-3.7a2.25,2.25,0,0,0-1.57-3.85,2.25,2.25,0,0,0-2.25,2.25,2.22,2.22,0,0,0,.79,1.7c0,.56.13,2.75-1,3.62-1.32,1-2.38,1.37-2.4,2.9s1.26,1.86,3.43,2.08c1.13,0,1.62,0,1.68,0,.27,0,.7,0,1.33,0,2.17-.22,3.44-.56,3.42-2.08s-1.07-1.92-2.39-2.91"/><path class="cls-4" d="M122.85,219.2l-1,0c-2.05-.2-3.73-.53-3.72-2.38,0-1.41.82-2,1.83-2.66.22-.15.45-.31.68-.49,1-.72,1-2.61.92-3.22a2.56,2.56,0,1,1,3.61-.12c-.07,1,0,2.68.91,3.33l.69.49c1,.7,1.81,1.25,1.83,2.65,0,1.85-1.67,2.18-3.7,2.39l-1,0h-.37s-.25,0-.7,0m.48-12.58a2,2,0,0,0-2,1.95,1.92,1.92,0,0,0,.69,1.47.35.35,0,0,1,.1.21c0,.67.11,2.93-1.14,3.87-.24.18-.48.35-.71.5-1,.67-1.55,1.08-1.56,2.17s.69,1.53,3.15,1.79c1,0,1.55,0,1.62,0h.39c.25,0,.56,0,1,0,2.44-.25,3.14-.65,3.13-1.78s-.59-1.5-1.57-2.17l-.7-.5c-1.34-1-1.18-3.48-1.14-4a.34.34,0,0,1,.09-.19,1.91,1.91,0,0,0,.58-1.38,1.94,1.94,0,0,0-1.94-1.95"/><path class="cls-20" d="M96.49,205.15c-1.23-.92-1-3.39-1-3.7a2.24,2.24,0,1,0-3,.11c0,.55.12,2.75-1,3.6-1.33,1-2.38,1.38-2.39,2.91s1.25,1.86,3.42,2.08c1.13,0,1.62,0,1.68,0,.27,0,.7,0,1.33,0,2.17-.22,3.44-.56,3.42-2.08s-1.07-1.92-2.39-2.91"/><path class="cls-4" d="M93.42,210.47h-1c-2-.21-3.73-.54-3.71-2.39,0-1.41.81-2,1.83-2.66l.68-.49c1-.71.94-2.61.91-3.22a2.55,2.55,0,1,1,4.29-1.85,2.47,2.47,0,0,1-.68,1.73c-.07,1,0,2.68.91,3.33q.36.27.69.48c1,.71,1.81,1.26,1.83,2.66,0,1.86-1.67,2.18-3.7,2.39-.43,0-.76,0-1,0h-1m.48-12.57A1.94,1.94,0,0,0,92,199.85a1.89,1.89,0,0,0,.68,1.47.3.3,0,0,1,.1.22c.05.67.12,2.93-1.14,3.87l-.7.5c-1,.66-1.56,1.07-1.57,2.16s.7,1.53,3.15,1.78a14.41,14.41,0,0,0,1.63,0h1.34c2.43-.25,3.14-.65,3.13-1.78s-.59-1.5-1.57-2.17l-.7-.5c-1.34-1-1.18-3.48-1.14-4a.31.31,0,0,1,.09-.19,1.94,1.94,0,0,0-1.36-3.33"/></svg>