<?xml version="1.0" encoding="utf-8"?>
<!-- Generator: Adobe Illustrator 16.0.0, SVG Export Plug-In . SVG Version: 6.00 Build 0)  -->
<!DOCTYPE svg PUBLIC "-//W3C//DTD SVG 1.1//EN" "http://www.w3.org/Graphics/SVG/1.1/DTD/svg11.dtd">
<svg version="1.1" id="Layer_1" xmlns="http://www.w3.org/2000/svg" xmlns:xlink="http://www.w3.org/1999/xlink" x="0px" y="0px"
	 width="500px" height="500px" viewBox="0 0 500 500" enable-background="new 0 0 500 500" xml:space="preserve">
<g id="Layer_1_copy_23">
	<g>
		<g>
			<path fill="#F3BD78" d="M32.423,192.016c0,0,53.903,1.902,90.506-8.555s21.611-21.722,91.265-10.934
				c55.427,8.587,69.63,7.549,80.808,6.758c48.713-10.021,65.258,26.567,30.261,35.794c-5.029,1.594-12.859,2.778-15.261,3.007
				c-28.918,2.742-52.553,1.025-52.553,1.025s9.982,11.409,8.082,17.111c19.014-5.702,37.55,3.328,37.55,3.328l45.155-2.851
				l75.104,5.705c0,0,18.205-13.952,37.131-10.365c2.044,0.386,8.147,4.41,8.832,5.604c10.345,17.936-25.049,29.001-25.049,29.001
				s-103.146,42.781-144.979,42.301c0,0-15.687,4.75-22.341,9.511c0,0-16.16,25.188-74.626-5.229
				c-13.077-6.604-30.896-6.182-30.896-6.182s-36.6-0.953-54.662-9.982c-18.063-9.028-44.014,3.808-64.169,9.982
				C32.423,313.229,32.423,192.016,32.423,192.016z"/>
		</g>
		<g>
			<path fill="#27140E" d="M251.749,331.423c-14.161,0-31.29-5.178-50.902-15.379c-10.982-5.547-25.896-5.832-28.77-5.832
				l-0.591,0.006c-1.68-0.038-37.676-1.075-56.157-10.313c-3.749-1.873-8.044-2.789-13.139-2.789
				c-11.265,0-23.953,4.457-36.221,8.771c-4.355,1.53-8.472,2.977-12.461,4.196c-0.795,0.246-1.603,0.369-2.394,0.369
				c-6.805,0-15.17-6.884-19.52-60.549c-2.322-28.612-2.348-57.598-2.348-57.888c0-0.861,0.351-1.684,0.97-2.282
				c0.619-0.599,1.466-0.897,2.315-0.887c0.039,0,3.863,0.133,10.035,0.133c18.484,0,53.391-1.116,79.487-8.571
				c10.405-2.973,16.419-5.957,21.719-8.587c7.706-3.826,13.798-6.849,28.102-6.849c9.746,0,23.346,1.404,42.804,4.417
				c41.852,6.484,58.826,7.233,67.953,7.233c4.953,0,8.512-0.248,11.938-0.49c5.688-1.158,11.198-1.745,16.383-1.745
				c22.854,0,34.688,11.005,36.015,21.228c1.032,7.958-3.918,18.055-20.894,22.533c-5.368,1.703-13.564,2.885-15.771,3.096
				c-10.984,1.041-22.457,1.571-34.089,1.571c-4.858,0-8.961-0.094-12.098-0.203c1.888,2.819,3.798,6.281,4.515,9.559
				c3.289-0.673,6.725-1.012,10.256-1.012c12.092,0,21.969,3.93,24.79,5.172l44.357-2.801c0.146-0.011,0.299-0.008,0.44,0.001
				l73.944,5.615c3.675-2.569,16.697-10.872,31.64-10.872c2.392,0,4.748,0.217,7.007,0.646c2.595,0.491,9.714,4.915,10.991,7.145
				c2.582,4.482,3.018,9.01,1.281,13.454c-4.846,12.402-25.87,19.428-27.998,20.109c-5.733,2.375-103.311,42.496-145.365,42.496
				h-0.229c-2.5,0.785-14.817,4.754-20.565,8.633C277.372,323.102,269.669,331.423,251.749,331.423z M172.077,303.869
				c4.397,0,19.674,0.473,31.662,6.531c18.737,9.742,34.877,14.672,48.01,14.672c16.704,0,22.461-8.242,22.513-8.326
				c0.219-0.338,0.5-0.637,0.827-0.869c6.996-5.002,22.607-9.764,23.27-9.965c0.309-0.09,0.707-0.123,0.954-0.137l0.663,0.008
				c41.153,0,142.052-41.646,143.062-42.068c0.088-0.039,0.179-0.072,0.27-0.098c5.614-1.764,20.9-8.146,24.121-16.412
				c0.99-2.543,0.736-5.099-0.777-7.81c-1.024-1.048-5.487-3.92-6.795-4.241c-1.843-0.352-3.802-0.53-5.797-0.53
				c-15.17,0-28.655,10.194-28.788,10.298c-0.619,0.473-1.389,0.707-2.171,0.645l-74.888-5.686l-44.932,2.835
				c-0.553,0.039-1.098-0.072-1.594-0.312c-0.098-0.045-10.266-4.897-22.802-4.897c-4.378,0-8.562,0.59-12.444,1.758
				c-1.133,0.344-2.367,0.02-3.188-0.831c-0.827-0.853-1.105-2.092-0.736-3.214c0.784-2.345-3.302-9.27-7.457-14.019
				c-0.847-0.968-1.027-2.353-0.453-3.506c0.574-1.152,1.787-1.842,3.07-1.75c0.071,0.005,7.344,0.521,18.536,0.521
				c11.435,0,22.701-0.517,33.489-1.541c2.329-0.224,9.847-1.365,14.603-2.874c11.027-2.911,17.238-8.881,16.369-15.621
				c-1.012-7.799-11.547-15.697-29.723-15.697c-4.82,0-9.971,0.556-15.312,1.656c-0.138,0.028-0.275,0.047-0.416,0.059
				c-3.492,0.247-7.354,0.521-12.592,0.521c-9.338,0-26.642-0.757-68.923-7.306c-19.13-2.964-32.422-4.343-41.834-4.343
				c-12.818,0-17.774,2.46-25.28,6.185c-5.273,2.618-11.832,5.873-22.795,9.006c-26.839,7.666-62.413,8.814-81.232,8.814
				c-2.88,0-5.237-0.029-6.964-0.059c0.254,65.249,8.139,108.84,15.511,108.84c0.162,0,0.341-0.033,0.535-0.092
				c3.866-1.188,7.924-2.613,12.218-4.119c12.173-4.281,25.974-9.127,38.322-9.127c6.101,0,11.329,1.135,15.98,3.457
				c17.216,8.608,52.965,9.641,53.325,9.646L172.077,303.869z"/>
		</g>
	</g>
	<g>
		<g>
			<path fill="#F3BD78" d="M333.436,304.037c0,0,88.006-46.42,103.211-79.221c9.032-28.995-26.616-12.834-26.616-12.834
				l-10.048,5.761"/>
		</g>
		<g>
			<path fill="#27140E" d="M333.438,307.208c-1.142,0-2.237-0.608-2.809-1.692c-0.816-1.55-0.224-3.47,1.326-4.287
				c0.866-0.453,86.883-46.109,101.729-77.559c1.256-4.108,2.187-9.362-0.281-11.545c-4.067-3.592-16.433,0.226-21.931,2.686
				l-9.911,5.684c-1.524,0.869-3.465,0.346-4.334-1.176c-0.872-1.521-0.347-3.46,1.175-4.332l10.052-5.759
				c0.085-0.05,0.176-0.096,0.267-0.138c2.085-0.946,20.615-9.027,28.883-1.722c4.062,3.585,4.763,9.774,2.079,18.39
				c-0.046,0.135-0.095,0.263-0.155,0.391c-15.48,33.386-100.976,78.775-104.607,80.695
				C334.444,307.091,333.938,307.208,333.438,307.208z"/>
		</g>
	</g>
	<g>
		<g>
			<path fill="#F3BD78" d="M145.746,203.425c0,0,57.99,14.26,96.49,50.384c29.946-9.03,48.009,0,48.009,0
				s39.454,0.953,59.891-13.782c20.44-14.737,34.339-42.887,51.338-20.44c16.995,22.448-66.071,62.745-69.399,64.172
				c-3.324,1.421-81.281,36.599-104.572,25.668"/>
		</g>
		<g>
			<path fill="#27140E" d="M239.521,314.669c-5.287,0-9.854-0.721-13.37-2.375c-1.586-0.737-2.267-2.633-1.524-4.217
				c0.746-1.582,2.641-2.275,4.224-1.522c15.529,7.276,62.461-8.337,101.208-25.378l0.767-0.338
				c7.45-3.187,64.137-32.149,69.407-52.023c0.756-2.836,0.347-5.161-1.288-7.314c-3.436-4.535-6.704-6.857-10.003-7.097
				c-6.289-0.458-13.555,6.696-21.262,14.272c-4.899,4.82-9.97,9.802-15.686,13.921c-21.062,15.186-60.172,14.427-61.826,14.388
				c-0.468-0.014-0.925-0.131-1.343-0.338c-0.162-0.078-17.457-8.315-45.672,0.201c-1.083,0.324-2.264,0.053-3.087-0.727
				c-37.462-35.149-94.508-49.479-95.079-49.618c-1.703-0.418-2.744-2.138-2.325-3.84c0.418-1.701,2.137-2.743,3.843-2.322
				c2.371,0.582,57.948,14.552,96.568,49.917c26.858-7.609,44.194-1.213,47.883,0.383c5.069,0.033,39.365-0.247,57.328-13.19
				c5.322-3.837,10.214-8.647,14.945-13.3c8.761-8.611,17.04-16.715,26.172-16.078c5.225,0.381,10.003,3.521,14.604,9.596
				c2.782,3.68,3.601,8.096,2.361,12.773c-2.726,10.262-15.562,22.704-38.166,36.982c-16.781,10.593-33.266,18.56-34.877,19.246
				l-0.707,0.312C311.817,296.136,266.374,314.669,239.521,314.669z"/>
		</g>
	</g>
</g>
</svg>
