<?xml version="1.0" encoding="utf-8"?>
<!-- Generator: Adobe Illustrator 16.0.0, SVG Export Plug-In . SVG Version: 6.00 Build 0)  -->
<!DOCTYPE svg PUBLIC "-//W3C//DTD SVG 1.1//EN" "http://www.w3.org/Graphics/SVG/1.1/DTD/svg11.dtd">
<svg version="1.1" id="Layer_1" xmlns="http://www.w3.org/2000/svg" xmlns:xlink="http://www.w3.org/1999/xlink" x="0px" y="0px"
	 width="500px" height="500px" viewBox="0 0 500 500" enable-background="new 0 0 500 500" xml:space="preserve">
<g id="Layer_1_copy_20">
	<g>
		<path fill="#F58146" d="M61.456,72.293v289.975h137.782c0,0,10.423,0,24.445,16.866c8.527,12.507,27.104,10.99,27.104,10.99
			s16.292,1.517,25.207-11.185c6.126-8.729,14.133-13.338,18.536-15.366c2-0.927,6.438-1.308,6.438-1.308h139.718V72.293H61.456z"/>
		<path fill="#27140E" d="M248.875,393.988c-5.884,0-20.376-1.229-28.223-12.553c-12.366-14.814-21.407-15.367-21.496-15.367h-137.7
			c-2.106,0-3.806-1.711-3.806-3.801V72.293c0-2.101,1.699-3.803,3.806-3.803h379.229c2.1,0,3.806,1.703,3.806,3.803v289.975
			c0,2.09-1.706,3.801-3.806,3.801H301.145c-1.818,0.17-4.217,0.582-5.024,0.955c-3.931,1.812-11.368,6.057-17.011,14.101
			c-8.146,11.604-21.373,12.864-26.682,12.864c-0.759,0-1.326-0.03-1.656-0.047C250.41,393.958,249.761,393.988,248.875,393.988z
			 M65.257,358.458h133.981c1.251,0,12.631,0.513,27.367,18.243c0.079,0.093,0.156,0.188,0.218,0.287
			c5.783,8.473,17.349,9.39,22.052,9.39c0.956,0,1.539-0.037,1.609-0.047c0.217-0.015,0.439-0.015,0.653,0.01
			c0.062,0.007,0.528,0.037,1.29,0.037c4.12,0,14.356-0.94,20.45-9.621c6.673-9.506,15.434-14.505,20.062-16.642
			c2.477-1.145,6.853-1.562,7.702-1.641c0.109-0.008,0.219-0.018,0.326-0.018h135.916V76.096H65.257V358.458z"/>
	</g>
	<g>
		<path fill="#EBD575" d="M250.787,84.081c0,0-4.551-21.604-28.433-23.878H85.901v283.113h147.825c0,0,15.28,1.711,17.021,11.371
			c5.726-13.64,21.644-11.938,21.644-11.938h142.145V60.203h-139.87C274.665,60.203,253.632,64.181,250.787,84.081z"/>
		<path fill="#27140E" d="M250.753,358.498c-0.137,0-0.276-0.018-0.416-0.03c-1.675-0.181-3.031-1.446-3.327-3.104
			c-1.12-6.201-12.017-8.021-13.536-8.237H85.901c-2.103,0-3.801-1.711-3.801-3.81V60.203c0-2.103,1.698-3.803,3.801-3.803h136.453
			c0.124,0,0.241,0.006,0.361,0.016c14.22,1.354,22.911,9.275,27.605,16.873c7.268-13.558,22.837-16.673,23.634-16.824
			c0.235-0.043,0.474-0.064,0.71-0.064h139.87c2.099,0,3.801,1.7,3.801,3.803V342.75c0,2.1-1.702,3.801-3.801,3.801H272.393
			c-0.137,0-0.271-0.008-0.404-0.023c-0.064,0-0.547-0.039-1.295-0.039c-3.723,0-12.771,0.934-16.438,9.67
			C253.66,357.587,252.271,358.498,250.753,358.498z M89.702,339.516h144.024c0.139,0,0.283,0.008,0.423,0.022
			c0.571,0.063,11.072,1.321,16.849,7.563c6.521-7.533,16.346-8.225,19.695-8.225c0.895,0,1.547,0.037,1.873,0.07h138.168V64.006
			H275.059c-2.5,0.562-18.238,4.737-20.51,20.613c-0.265,1.827-1.795,3.203-3.637,3.263c-1.847,0.056-3.467-1.213-3.848-3.018
			c-0.163-0.754-4.35-18.805-24.889-20.858H89.702V339.516z"/>
	</g>
	<g>
		<path fill="#F8F5E5" d="M250.787,58.648c0,0-4.551-21.605-28.433-23.878H85.901v283.144h147.825c0,0,15.28,1.704,17.021,11.372
			c5.726-13.647,21.644-11.938,21.644-11.938h142.145V34.77h-139.87C274.665,34.77,253.632,38.748,250.787,58.648z"/>
		<path fill="#27140E" d="M250.753,333.088c-0.137,0-0.276-0.009-0.416-0.018c-1.675-0.187-3.031-1.452-3.327-3.109
			c-0.995-5.502-10.104-7.812-13.505-8.247H85.901c-2.103,0-3.801-1.7-3.801-3.801V34.77c0-2.103,1.698-3.805,3.801-3.805h136.453
			c0.124,0,0.241,0.007,0.361,0.018c14.22,1.354,22.911,9.274,27.605,16.871c7.268-13.556,22.837-16.67,23.634-16.822
			c0.235-0.042,0.474-0.066,0.71-0.066h139.87c2.099,0,3.801,1.702,3.801,3.805v282.577c0,2.101-1.702,3.801-3.801,3.801H272.393
			c-0.137,0-0.275-0.006-0.408-0.016c-0.062-0.008-0.543-0.055-1.299-0.055c-3.719,0-12.767,0.947-16.432,9.686
			C253.66,332.178,252.271,333.088,250.753,333.088z M89.702,314.113h144.024c0.139,0,0.279,0.01,0.42,0.023
			c0.574,0.062,11.075,1.312,16.852,7.563c6.521-7.533,16.346-8.224,19.688-8.224c0.902,0,1.553,0.037,1.883,0.069h138.167V38.571
			H275.059c-2.5,0.564-18.238,4.74-20.51,20.616c-0.265,1.827-1.795,3.203-3.637,3.263c-1.847,0.021-3.467-1.213-3.848-3.018
			c-0.163-0.754-4.35-18.807-24.889-20.861H89.702V314.113z"/>
	</g>
	<g>
		<path fill="#E2DECF" d="M250.216,62.362l0.854,257.675c0,0,9.697-10.236,35.095-6.467h125.141l-1.843-274.758H275.085
			C275.085,38.812,259.99,40.66,250.216,62.362z"/>
		<path fill="#27140E" d="M249.815,323.161l-0.015-3.117l-0.855-257.952l0.117-0.25c9.948-22.098,25.223-24.208,25.872-24.287
			l135.792-0.012l0.009,1.26l1.849,276.034H286.165c-3.851-0.56-7.403-0.831-10.738-0.831c-16.59,0-23.372,6.84-23.442,6.909
			L249.815,323.161z M251.486,62.632l0.841,254.771c3.317-2.277,10.59-5.932,23.1-5.932c3.46,0,7.134,0.28,10.927,0.848
			l123.683-0.017l-1.832-272.223H275.085C275.098,40.088,260.814,42.154,251.486,62.632z"/>
	</g>
	<g>
		<path fill="#F8F5E5" d="M246.571,57.692c0,0,3.167,3.274,6.128-0.105c2.953-3.379,1.688,5.705,1.688,5.705l-10.035,1.477
			L246.571,57.692z"/>
		<path fill="#27140E" d="M242.541,66.318L246,55.279l1.483,1.531c0.005,0.006,1.042,1.04,2.255,1.04
			c0.703,0,1.36-0.359,2.005-1.098c0.442-0.51,1.144-1.188,2.056-1.188c0.514,0,0.991,0.223,1.342,0.626
			c1.139,1.308,0.801,5.12,0.506,7.277l-0.133,0.938L242.541,66.318z M247.259,59.741l-1.093,3.48l7.077-1.043
			c0.141-1.316,0.179-2.594,0.12-3.445c-1.332,1.358-2.692,1.653-3.625,1.653C248.778,60.385,247.927,60.092,247.259,59.741z"/>
	</g>
	<g>
		<path fill="#E2DECF" d="M252.854,57.166c0,0-0.101,1.269-2.797,2.005l0.21,4.648l2.907,1.374l5.86-4.172l-3.592-4.278
			C255.443,56.742,255.078,55.263,252.854,57.166z"/>
		<path fill="#27140E" d="M253.302,66.656l-4.263-2.017l-0.296-6.423l0.979-0.269c1.645-0.45,1.894-1.035,1.897-1.041l0.043-0.521
			l0.369-0.184c2.169-1.853,3.979-1.25,4.517-0.117l4.341,5.171L253.302,66.656z M251.498,62.999l1.544,0.73l4.14-2.946
			l-2.705-3.224c-0.125,0.062-0.3,0.171-0.533,0.35c-0.26,0.612-0.92,1.506-2.576,2.161L251.498,62.999z"/>
	</g>
	<g>
		<path fill="#EBD575" d="M246.784,329.115c0,0,4.959,2.434,8.239,0c3.271-2.426,5.97,3.746,5.97,3.746l-11.045,6.554l-8.659-7.29
			L246.784,329.115z"/>
		<path fill="#27140E" d="M249.824,340.961l-10.766-9.064l7.687-4.211l0.591,0.287c0.021,0.008,1.989,0.957,4.094,0.957
			c1.137,0,2.096-0.281,2.836-0.834c0.728-0.543,1.51-0.816,2.312-0.816c3.27,0,5.348,4.558,5.572,5.076l0.451,1.027
			L249.824,340.961z M243.52,332.35l6.561,5.512l9.237-5.473c-0.733-1.26-1.834-2.574-2.739-2.574c-0.253,0-0.513,0.102-0.802,0.317
			c-1.188,0.88-2.652,1.33-4.348,1.33c-1.917,0-3.682-0.583-4.579-0.94L243.52,332.35z"/>
	</g>
	<g>
		<path fill="#EBD575" d="M244.087,325.734c0,0,2.853,3.854,4.758,4.119c0,0,4.379,0.901,6.334-1.211
			c1.959-2.117,1.53-2.59,4.068-3.959c2.534-1.375,2.219,6.918,2.219,6.918l-12.622,7.283l-8.928-8.395L244.087,325.734z"/>
		<path fill="#27140E" d="M248.657,340.456l-10.501-9.878l6.016-6.857l0.934,1.26c1.228,1.656,3.093,3.506,3.91,3.623
			c0.085,0.017,0.909,0.181,1.947,0.181c1.526,0,2.691-0.358,3.288-1.005c0.617-0.67,0.979-1.158,1.276-1.57
			c0.76-1.018,1.275-1.646,3.115-2.643c0.95-0.512,1.961-0.364,2.668,0.373c1.531,1.586,1.479,6.305,1.424,7.711l-0.031,0.692
			L248.657,340.456z M241.678,330.407l7.346,6.907l11.192-6.459c0.017-2.119-0.239-4.235-0.599-4.965
			c-1.221,0.705-1.488,1.07-2.049,1.824c-0.342,0.469-0.758,1.027-1.457,1.788c-1.096,1.183-2.875,1.812-5.148,1.812
			c-1.307,0-2.332-0.209-2.375-0.217c-1.586-0.226-3.394-2.029-4.547-3.39L241.678,330.407z"/>
	</g>
	<g>
		<path fill="#F58146" d="M244.036,351.137c0,0,2.85,3.854,4.754,4.119c0,0,4.384,0.9,6.335-1.213
			c1.959-2.115,1.535-2.581,4.073-3.957c2.532-1.376,2.215,6.918,2.215,6.918l-12.623,7.283l-8.924-8.396L244.036,351.137z"/>
		<path fill="#27140E" d="M248.607,365.857l-10.505-9.879l6.016-6.856l0.937,1.26c1.229,1.656,3.09,3.507,3.905,3.622
			c0.091,0.018,0.914,0.182,1.952,0.182c1.523,0,2.689-0.358,3.283-1.004c0.617-0.66,0.982-1.149,1.287-1.563
			c0.754-1.024,1.271-1.654,3.107-2.649c0.949-0.505,1.965-0.365,2.667,0.372c1.531,1.587,1.478,6.306,1.423,7.712l-0.022,0.699
			L248.607,365.857z M241.624,355.809l7.348,6.918l11.189-6.47c0.021-2.12-0.231-4.227-0.599-4.966
			c-1.221,0.716-1.484,1.081-2.045,1.825c-0.342,0.469-0.762,1.026-1.461,1.788c-1.097,1.182-2.877,1.812-5.146,1.812
			c-1.306,0-2.332-0.208-2.379-0.218c-1.582-0.218-3.389-2.029-4.547-3.389L241.624,355.809z"/>
	</g>
	<g>
		<g>
			<g>
				<path fill="#F3BD78" d="M304.276,470.635c0,0-31.337,14.07-43.617-0.589c-12.288-14.653-62.047-76.034-66.56-87.594
					c-4.5-11.56-17.869-58.498-17.869-58.498s-6.468-42.044-11.559-51.86c-5.088-9.818-2.029-24.998,22.572-11.474
					c0,0-14.415-80.539-16.19-91.415c-4.144-20.015,22.797-26.34,28.362-11.476c6.079,18.602,17.874,64.301,17.874,64.301
					s19.778-6.661,30.634,13.144c26.218-8.096,36.127,19.004,36.127,19.004s27.618-14.854,42.122,32.162
					c14.5,47.02,15.79,91.822,12.452,102.876c-3.335,11.044,0.765,23.669,6.156,30.517
					C350.179,426.586,348.938,451.344,304.276,470.635z"/>
			</g>
			<g>
				<path fill="#27140E" d="M277.957,480.524c-8.946,0-15.747-2.706-20.217-8.03c-7.995-9.536-62.125-75.692-67.181-88.665
					c-4.521-11.589-17.435-56.904-17.982-58.833c-0.047-0.154-0.078-0.312-0.102-0.467c-1.771-11.519-7.24-43.094-11.178-50.687
					c-3.073-5.933-3.335-12.593-0.661-16.993c2.114-3.474,5.877-5.394,10.588-5.394c3.156,0,6.828,0.847,10.967,2.519
					c-3.595-20.11-13.446-75.323-14.893-84.157c-1.286-6.199,0.012-12.184,3.688-16.698c3.758-4.617,9.697-7.373,15.884-7.373
					c7.477,0,13.645,4.079,16.105,10.647c5.177,15.817,14.163,49.962,17.073,61.129c1.388-0.208,3.073-0.373,4.971-0.373
					c10.232,0,18.9,4.805,24.687,13.608c2.604-0.597,5.161-0.898,7.625-0.898c16.603,0,25.362,13.006,28.688,19.473
					c2.054-0.614,4.828-1.181,8.086-1.181c11.067,0,26.248,6.427,35.699,37.069c14.865,48.209,16.001,93.359,12.456,105.09
					c-2.873,9.529,0.599,20.823,5.507,27.065c3.044,3.871,3.867,10.103,2.196,16.679c-2.223,8.801-10.929,25.706-44.182,40.071
					C305.248,474.366,291.389,480.524,277.957,480.524z M179.953,323.137c1.015,3.547,13.462,47.08,17.691,57.934
					c4.03,10.33,51.425,69.239,65.924,86.535c2.955,3.52,7.793,5.308,14.389,5.308c11.822,0,24.633-5.689,24.762-5.743
					c30.307-13.096,37.989-27.538,39.874-34.985c1.376-5.418,0.147-8.899-0.797-10.104c-5.938-7.54-10.602-21.383-6.812-33.96
					c3.214-10.642,1.765-54.581-12.444-100.659c-6.401-20.736-16.229-31.704-28.433-31.704c-4.801,0-8.244,1.765-8.279,1.788
					c-0.969,0.505-2.118,0.574-3.145,0.171c-1.019-0.389-1.83-1.198-2.207-2.229c-0.269-0.725-6.875-18.02-23.145-18.02
					c-2.619,0-5.406,0.451-8.286,1.345c-1.722,0.528-3.587-0.225-4.454-1.803c-4.457-8.131-11.045-12.252-19.571-12.252
					c-3.781,0-6.507,0.876-6.533,0.884c-0.999,0.327-2.095,0.228-3.012-0.276c-0.925-0.505-1.602-1.366-1.865-2.382
					c-0.117-0.457-11.835-45.796-17.808-64.07c-1.878-5.002-6.871-5.558-8.932-5.558c-3.863,0-7.691,1.75-9.987,4.571
					c-2.231,2.743-2.962,6.377-2.107,10.511c1.779,10.88,16.067,90.709,16.206,91.51c0.261,1.445-0.333,2.906-1.523,3.763
					c-1.188,0.854-2.768,0.948-4.05,0.248c-7.345-4.042-11.767-4.89-14.185-4.89c-3.032,0-3.829,1.307-4.089,1.742
					c-1.259,2.075-0.879,6.078,0.913,9.537C173.19,280.264,179.125,317.775,179.953,323.137z"/>
			</g>
		</g>
		<g>
			<g>
				<path fill="#F3BD78" d="M201.647,341.156c0,0-9.518-68.152-15.938-81.352"/>
			</g>
			<g>
				<path fill="#27140E" d="M201.644,344.957c-1.869,0-3.494-1.376-3.758-3.279c-2.627-18.787-10.548-69.832-15.593-80.209
					c-0.921-1.889-0.132-4.166,1.757-5.084c1.881-0.917,4.158-0.132,5.083,1.758c6.603,13.586,15.889,79.68,16.284,82.484
					c0.287,2.083-1.166,4.005-3.242,4.292C201.997,344.939,201.818,344.957,201.644,344.957z"/>
			</g>
		</g>
		<g>
			<g>
				<path fill="#F3BD78" d="M234.036,282.718c0,0-14.431-51.827-16.746-60.688"/>
			</g>
			<g>
				<path fill="#27140E" d="M234.036,286.521c-1.663,0-3.194-1.104-3.66-2.783c-0.144-0.516-14.466-51.956-16.766-60.746
					c-0.529-2.033,0.688-4.11,2.721-4.641c2.039-0.524,4.106,0.687,4.64,2.715c2.281,8.735,16.588,60.114,16.735,60.633
					c0.56,2.021-0.623,4.121-2.647,4.681C234.721,286.475,234.376,286.521,234.036,286.521z"/>
			</g>
		</g>
		<g>
			<g>
				<line fill="none" x1="261.964" y1="276.493" x2="247.924" y2="235.174"/>
			</g>
			<g>
				<path fill="#27140E" d="M261.964,280.293c-1.58,0-3.062-0.995-3.598-2.579L244.32,236.4c-0.676-1.992,0.389-4.152,2.378-4.829
					c1.998-0.672,4.149,0.393,4.827,2.378l14.041,41.322c0.677,1.982-0.389,4.144-2.373,4.819
					C262.784,280.232,262.373,280.293,261.964,280.293z"/>
			</g>
		</g>
		<g>
			<g>
				<line fill="none" x1="295.939" y1="283.209" x2="283.188" y2="252.521"/>
			</g>
			<g>
				<path fill="#27140E" d="M295.943,287.01c-1.487,0-2.906-0.887-3.51-2.348l-12.754-30.688c-0.807-1.937,0.107-4.167,2.051-4.967
					c1.937-0.809,4.166,0.108,4.972,2.053l12.752,30.686c0.809,1.936-0.113,4.168-2.058,4.969
					C296.928,286.917,296.43,287.01,295.943,287.01z"/>
			</g>
		</g>
	</g>
</g>
</svg>
