<?xml version="1.0" encoding="utf-8"?>
<!-- Generator: Adobe Illustrator 16.0.0, SVG Export Plug-In . SVG Version: 6.00 Build 0)  -->
<!DOCTYPE svg PUBLIC "-//W3C//DTD SVG 1.1//EN" "http://www.w3.org/Graphics/SVG/1.1/DTD/svg11.dtd">
<svg version="1.1" id="Layer_1" xmlns="http://www.w3.org/2000/svg" xmlns:xlink="http://www.w3.org/1999/xlink" x="0px" y="0px"
	 width="500px" height="500px" viewBox="0 0 500 500" enable-background="new 0 0 500 500" xml:space="preserve">
<g id="Layer_1_copy_21">
	<g>
		<g>
			<g>
				<path fill="#F4BE78" d="M205.831,325.982c0,0-7.891,21.855,17.339,45.836c25.229,23.986,6.95,67.82,6.95,67.82l97.489-4.545
					l-2.646-49.673c0,0,52.456-32.841,78.809-131.044c26.348-98.193,32.679-176.064-15.404-139.229
					c-6.946-47.898-35.342-16.173-35.342-16.173s-6.188-42.692-36.397-16.125c-19.317-32.123-41.149,5.587-41.149,5.587
					l-6.795,86.937l-71.461,74.931L205.831,325.982z"/>
			</g>
			<g>
				<path fill="#27140E" d="M230.12,443.362c-1.211,0-2.349-0.585-3.045-1.584c-0.738-1.043-0.883-2.39-0.396-3.568
					c0.174-0.42,16.972-41.771-6.075-63.688c-24.08-22.892-19.878-44.215-18.561-48.889l-8.525-74.91
					c-0.123-1.096,0.242-2.191,1.008-2.992l70.544-73.968l6.695-85.615c0.041-0.554,0.209-1.095,0.49-1.576
					c0.48-0.833,11.982-20.406,27.041-20.406c6.719,0,12.815,3.756,18.168,11.179c6.025-4.6,11.686-6.928,16.853-6.928
					c12.686,0,18.498,13.168,20.906,21.462c4.017-3.216,10.008-6.93,16.238-6.93c9.665,0,16.229,7.979,19.55,23.739
					c6.715-4.416,12.5-6.572,17.59-6.572c4.976,0,9.249,2.143,12.355,6.197c15.835,20.644,1.351,91.352-13.589,147.029
					c-23.957,89.274-68.773,125.055-78.576,131.98l2.535,47.572c0.054,0.99-0.293,1.957-0.955,2.695
					c-0.67,0.738-1.599,1.179-2.589,1.226l-97.489,4.537C230.234,443.362,230.177,443.362,230.12,443.362z M201.119,251.614
					l8.412,73.942c0.065,0.57-0.004,1.147-0.197,1.688c-0.271,0.784-6.582,20.028,16.401,41.877
					c21.612,20.547,13.942,53.571,9.767,66.535l88.188-4.104l-2.447-45.937c-0.068-1.348,0.598-2.635,1.747-3.357
					c0.503-0.318,51.585-33.441,77.183-128.845c19.911-74.207,25.473-126.754,14.876-140.569c-1.717-2.238-3.766-3.283-6.444-3.283
					c-3.109,0-8.755,1.482-17.966,8.542c-1.051,0.803-2.447,0.987-3.67,0.493c-1.227-0.497-2.094-1.608-2.284-2.916
					c-1.541-10.622-5.081-23.286-13.22-23.286c-6.192,0-13.41,6.54-15.663,9.061c-0.963,1.078-2.466,1.496-3.849,1.079
					c-1.386-0.415-2.401-1.597-2.61-3.025c-0.034-0.216-3.514-21.646-15.022-21.646c-4.233,0-9.356,2.617-15.23,7.781
					c-0.826,0.725-1.93,1.05-3.03,0.883c-1.092-0.17-2.051-0.815-2.617-1.763c-4.449-7.4-9.208-11.152-14.142-11.152
					c-8.546,0-17.063,10.938-20.174,15.984l-6.729,86.065c-0.064,0.854-0.427,1.661-1.017,2.28L201.119,251.614z"/>
			</g>
		</g>
		<g>
			<line fill="none" x1="366.096" y1="244.609" x2="388.367" y2="115.148"/>
			<path fill="#27140E" d="M366.104,248.332c-0.214,0-0.423-0.023-0.637-0.061c-2.023-0.35-3.391-2.269-3.041-4.301l22.271-129.452
				c0.354-2.031,2.296-3.384,4.307-3.041c2.024,0.348,3.386,2.276,3.04,4.303L369.77,245.234
				C369.457,247.053,367.885,248.332,366.104,248.332z"/>
		</g>
		<g>
			<line fill="none" x1="353.025" y1="98.975" x2="336.536" y2="228.82"/>
			<path fill="#27140E" d="M336.539,232.543c-0.155,0-0.315-0.007-0.477-0.026c-2.039-0.263-3.481-2.124-3.224-4.164l16.489-129.848
				c0.258-2.042,2.12-3.479,4.164-3.226c2.04,0.259,3.485,2.124,3.229,4.164l-16.489,129.849
				C339.987,231.173,338.386,232.543,336.539,232.543z"/>
		</g>
		<g>
			<line fill="none" x1="316.628" y1="82.849" x2="303.706" y2="220.256"/>
			<path fill="#27140E" d="M303.709,223.982c-0.114,0-0.232-0.004-0.354-0.019c-2.046-0.19-3.553-2.01-3.357-4.058L312.92,82.5
				c0.195-2.046,1.999-3.549,4.059-3.361c2.049,0.192,3.553,2.012,3.361,4.06l-12.928,137.407
				C307.233,222.532,305.608,223.982,303.709,223.982z"/>
		</g>
		<g>
			<path fill="#F4BE78" d="M293.15,298.844c0,0-53.031,31.828-31.498,66.465"/>
			<path fill="#27140E" d="M261.656,369.031c-1.245,0-2.463-0.623-3.167-1.758c-5.421-8.717-6.992-18.021-4.667-27.644
				c6.011-24.894,36.131-43.209,37.412-43.978c1.761-1.049,4.048-0.487,5.104,1.279c1.062,1.758,0.491,4.051-1.271,5.106
				c-0.291,0.176-28.748,17.509-34.012,39.356c-1.856,7.711-0.633,14.891,3.758,21.947c1.084,1.744,0.553,4.043-1.195,5.123
				C263.007,368.848,262.33,369.031,261.656,369.031z"/>
		</g>
	</g>
	<g>
		<g>
			<g>
				<path fill="#F4BE78" d="M145.458,59.591l37.904,172.495c0,0,6.075-64.111,66.239-62.387c0,0,51.915,3.627,54.899,67.697
					c-1.647,37.52-32.841,57.099-32.841,57.099s-23.657,19.231-22.945,42.614c0.719,23.388-22.747,30.521-22.747,30.521
					s-28.001,7.728-37.44-24.694c0,0,8.751,87.676-40.588,108.848"/>
			</g>
			<g>
				<path fill="#27140E" d="M147.939,455.505c-1.438,0-2.815-0.846-3.421-2.253c-0.812-1.896,0.064-4.082,1.956-4.896
					c46.244-19.839,38.434-104.197,38.35-105.05c-0.19-1.918,1.107-3.66,2.999-4.027c1.885-0.357,3.742,0.771,4.282,2.619
					c8.316,28.562,31.871,22.42,32.872,22.146c0.742-0.236,20.635-6.641,20.019-26.82c-0.762-24.938,23.287-44.785,24.314-45.615
					c0.117-0.098,0.239-0.18,0.368-0.266c0.29-0.184,29.471-19.018,31.096-53.944c-1.21-25.238-10.267-43.669-26.911-54.782
					c-12.387-8.269-24.399-9.194-24.519-9.202c-23.345-0.662-40.93,8.982-52.193,28.678c-8.541,14.942-10.067,30.19-10.083,30.343
					c-0.174,1.827-1.651,3.254-3.479,3.365c-1.831,0.106-3.471-1.126-3.867-2.916L141.819,60.391
					c-0.442-2.008,0.825-3.995,2.839-4.437c2.002-0.449,3.989,0.83,4.436,2.84l34.368,156.396
					c6.485-19.881,23.432-50.422,66.246-49.213c0.707,0.047,55.41,4.635,58.516,71.245c0.004,0.11,0.004,0.225,0.004,0.338
					c-1.662,37.745-31.221,57.911-34.359,59.952c-1.923,1.622-22.048,19.168-21.427,39.485c0.636,20.753-16.33,31.44-25.39,34.205
					c-0.331,0.082-20.866,5.464-34.196-11.238c-0.068,8.313-0.632,18.88-2.444,30.058c-5.42,33.458-19.599,55.998-41.002,65.188
					C148.93,455.407,148.435,455.505,147.939,455.505z"/>
			</g>
		</g>
		<g>
			<g>
				<path fill="#F4BE78" d="M214.11,292.266c0,0,27.102-2.771,24.825-27.24c-3.068-17.256-23.592-19.319-23.592-19.319
					s-10.601-41.056,27.011-45.078c31.554-3.734,33.104,29.433,33.104,29.433"/>
			</g>
			<g>
				<path fill="#27140E" d="M214.107,295.988c-1.885,0-3.506-1.424-3.697-3.342c-0.213-2.047,1.272-3.877,3.32-4.08
					c0.981-0.107,23.279-2.748,21.514-23.039c-2.627-14.082-19.558-16.038-20.281-16.114c-1.546-0.167-2.831-1.271-3.22-2.771
					c-0.229-0.875-5.382-21.46,4.78-36.134c5.395-7.784,13.95-12.356,25.436-13.583c10.102-1.197,18.514,0.976,24.977,6.458
					c11.328,9.603,12.211,25.819,12.241,26.504c0.101,2.056-1.491,3.799-3.547,3.894c-2.079,0.095-3.796-1.492-3.892-3.544
					c-0.006-0.129-0.799-13.729-9.652-21.201c-4.822-4.069-11.316-5.653-19.294-4.707c-9.262,0.99-16.021,4.486-20.125,10.396
					c-6.471,9.312-5.093,22.448-4.18,27.731c6.304,1.294,21.289,6.029,24.118,21.917c0.015,0.105,0.03,0.204,0.037,0.312
					c2.071,22.258-17.509,30.197-28.151,31.287C214.361,295.98,214.235,295.988,214.107,295.988z"/>
			</g>
		</g>
	</g>
	<g>
		<path fill="#4C230D" d="M197.222,239.014c0,0-57.366-3.388-41.228-81.992c-5.558,24.897-10.536,22.855-10.536,22.855v-74.763
			V26.488l35.956,5.89c0,0,63.262,7.835,80.404,28.602c17.146,20.768-13.801,12.325-7.973,12.055
			c5.826-0.272,21.322,23.718,22.252,34.008c0.933,10.292,8.918,27.44-9.057,8.06c11.469,34.062,1.827,87.526-19.755,87.185
			c-21.582-0.342-21.582-0.342-21.582-0.342s9.203,41.895-32.438,36.558c-52.791-6.76-37.272-81.481-37.272-81.481"/>
		<path fill="#27140E" d="M197.226,242.736c-0.076,0-0.148,0-0.225,0c-0.201-0.015-1.466-0.106-3.456-0.449
			c-0.248-0.03-0.499-0.053-0.75-0.091c-13.486-1.729-24.004-7.761-31.259-17.936c-1.743-2.451-3.238-5.051-4.518-7.759
			c-5.146-9.39-7.693-20.821-7.625-34.176c-0.357,0.265-0.691,0.468-1.017,0.636c-2.07,1.083-3.719,0.613-4.335,0.362
			c-1.4-0.573-2.311-1.937-2.311-3.445V26.488c0-1.095,0.477-2.134,1.313-2.84c0.83-0.706,1.927-1.016,3.015-0.837l35.956,5.894
			c2.496,0.307,64.799,8.243,82.679,29.903c2.232,2.705,9.022,10.934,4.658,16.689c-0.965,1.264-2.272,2.099-3.758,2.623
			c7.125,8.92,13.639,22.433,14.213,28.788c0.198,2.196,0.776,4.844,1.334,7.403c1.338,6.152,2.396,11.01-1.418,13.001
			c-1.801,0.942-3.695,0.659-5.982-0.759c4.625,25.115,0.633,55.404-10.217,70.26c-4.561,6.249-10.182,9.465-16.294,9.4
			l-17.202-0.272c0.686,6.81,0.674,19.677-7.301,28.397c-5.595,6.109-13.896,8.964-24.695,8.515
			C197.766,242.706,197.5,242.736,197.226,242.736z M194.876,234.941c10.267,1.119,17.773-0.837,22.341-5.812
			c8.449-9.208,4.888-26.218,4.854-26.39c-0.241-1.11,0.037-2.273,0.757-3.15c0.724-0.88,1.759-1.38,2.938-1.369l21.582,0.343
			c3.625,0.129,7.042-2.077,10.164-6.346c11.309-15.482,14.166-51.673,6-75.926c-0.564-1.663,0.112-3.492,1.627-4.388
			c1.508-0.897,3.438-0.621,4.629,0.667c1.815,1.953,3.256,3.415,4.394,4.505c-0.103-0.485-0.206-0.952-0.297-1.378
			c-0.578-2.653-1.233-5.66-1.478-8.318c-0.724-8.039-11.043-24.203-16.523-29.197c-1.613-0.316-2.93-0.725-3.65-1.045
			c-3.105-1.376-2.9-3.846-2.768-4.571c0.135-0.723,0.842-3.097,4.229-3.252c1.549-0.08,3.251,0.594,5.024,1.806
			c1.872,0.209,3.858,0.187,4.632-0.281c-0.02-0.529-0.387-2.647-4.38-7.487c-16.003-19.384-77.377-27.199-77.997-27.275
			l-31.772-5.205v137.066c0.968-2.855,2.045-6.659,3.175-11.716c0.084-0.379,0.221-0.732,0.403-1.05c0-0.004,0.004-0.004,0.008-0.01
			c0,0,0-0.002,0-0.006c0,0,0.004,0,0.004-0.001c0.788-1.357,2.383-2.115,4.004-1.774c1.991,0.428,3.27,2.379,2.87,4.375
			c0,0.005-0.004,0.015-0.004,0.023c-0.075,0.358-6.551,32.644,4.027,55.354c1.043,1.878,2.207,3.658,3.486,5.336
			C176.32,230.473,189.392,233.974,194.876,234.941z"/>
	</g>
</g>
</svg>
