<?xml version="1.0" encoding="utf-8"?>
<!-- Generator: Adobe Illustrator 16.0.0, SVG Export Plug-In . SVG Version: 6.00 Build 0)  -->
<!DOCTYPE svg PUBLIC "-//W3C//DTD SVG 1.1//EN" "http://www.w3.org/Graphics/SVG/1.1/DTD/svg11.dtd">
<svg version="1.1" id="Layer_1" xmlns="http://www.w3.org/2000/svg" xmlns:xlink="http://www.w3.org/1999/xlink" x="0px" y="0px"
	 width="500px" height="500px" viewBox="0 0 500 500" enable-background="new 0 0 500 500" xml:space="preserve">
<g id="Layer_1_copy_47">
	<path fill="#82153E" stroke="#3C2415" stroke-width="5.0465" stroke-miterlimit="10" d="M367.215,194.427
		c0,70.491-60.91,127.638-136.045,127.638c-75.136,0-136.046-57.146-136.046-127.638c0-70.489,60.91-127.635,136.046-127.635
		C306.305,66.792,367.215,123.938,367.215,194.427z"/>
	<path fill="#82153E" stroke="#3C2415" stroke-width="5.0465" stroke-miterlimit="10" d="M212.033,116.419
		c0,0,38.689-0.422,50.046-20.607"/>
	<path fill="#603913" stroke="#3C2415" stroke-width="5.0465" stroke-miterlimit="10" d="M231.17,112.842
		c0,0-35.538-17.872-25.863-62.03c2.94-20.185,22.707-13.038,22.707-13.038s23.554-5.887,21.028,13.878
		c-2.521,19.765-4.798,47.075,2.017,54.446C251.059,106.1,238.521,112.998,231.17,112.842z"/>
	<path fill="#82153E" stroke="#3C2415" stroke-width="5.0465" stroke-miterlimit="10" d="M384.05,248.083
		c0,0,22.434,19.14,23.354,38.097c0.921,18.954,35.431,18.401,35.431,18.401s45.604,88.237-54.38,135.549
		c-99.984,47.312-194.35-1.252-202.522-86.417C177.763,268.548,384.05,248.083,384.05,248.083z"/>
	<path fill="#F5BC5E" stroke="#3C2415" stroke-width="5.0465" stroke-miterlimit="10" d="M381.513,287.157
		c0,0,44.475-7.253,58.982,12.931c14.511,20.188,0.631,108.503-164.644,111.654c-135.938-12.93-80.745-112.6-73.489-122.378
		c15.991-21.552,107.871-94.621,175.366-47.31C407.695,266.656,381.513,287.157,381.513,287.157z"/>
	<path fill="#B17C2D" stroke="#3C2415" stroke-width="5.4356" stroke-miterlimit="10" d="M348.368,311.259
		c4.061,21.854-16.386,43.989-45.672,49.435c-29.281,5.445-56.319-7.855-60.385-29.711c-4.061-21.854,16.387-43.987,45.671-49.433
		C317.266,276.104,344.303,289.404,348.368,311.259z"/>
</g>
</svg>
