<?xml version="1.0" encoding="utf-8"?>
<!-- Generator: Adobe Illustrator 16.0.0, SVG Export Plug-In . SVG Version: 6.00 Build 0)  -->
<!DOCTYPE svg PUBLIC "-//W3C//DTD SVG 1.1//EN" "http://www.w3.org/Graphics/SVG/1.1/DTD/svg11.dtd">
<svg version="1.1" id="Layer_1" xmlns="http://www.w3.org/2000/svg" xmlns:xlink="http://www.w3.org/1999/xlink" x="0px" y="0px"
	 width="500px" height="500px" viewBox="0 0 500 500" enable-background="new 0 0 500 500" xml:space="preserve">
<g id="Layer_1_copy_31">
	<g>
		<g>
			<path fill="#4E4E4E" d="M455.22,285.623c0,48.822-89.929,88.41-200.86,88.41c-110.927,0-200.854-39.588-200.854-88.41
				c0-48.833,89.926-88.42,200.854-88.42C365.291,197.203,455.22,236.79,455.22,285.623z"/>
			<path fill="#3C2517" d="M254.359,376.602c-112.165,0-203.417-40.812-203.417-90.979c0-50.169,91.253-90.986,203.417-90.986
				c112.167,0,203.424,40.817,203.424,90.986C457.783,335.789,366.526,376.602,254.359,376.602z M254.359,199.77
				c-109.335,0-198.286,38.514-198.286,85.853c0,47.336,88.951,85.844,198.286,85.844c109.338,0,198.293-38.508,198.293-85.844
				C452.652,238.284,363.697,199.77,254.359,199.77z"/>
		</g>
		<g>
			<path fill="#818181" d="M237.895,161.337c77.354-3.684,146.193,12.559,191.505,44.893c25.567,18.248,55.453,55.049,36.651,98.963
				c-3.561,8.317-8.328,17.496-14.662,24.738c-59.961,68.547-228.74,83.557-328.945,40.315
				c-34.402-14.851-63.283-34.651-76.051-63.226c-22.63-50.648,17.349-89.626,48.568-108.121
				c23.806-14.099,53.312-25.594,87.04-32.067C198.996,163.566,218.416,162.261,237.895,161.337z M182.916,203.482
				c-33.678,6.743-62.042,17.379-85.208,35.733c-8.951,7.105-22.944,23.279-22.907,38.486c0.043,17.932,13.977,30.438,25.657,39.396
				c60.58,46.483,185.614,55.264,268.467,23.829c25.363-9.629,68.722-31.42,68.722-63.227c0-18.312-14.627-32.25-28.404-42.149
				c-42.046-30.209-104.021-41.645-170.426-38.483C218.39,198.042,200.371,199.99,182.916,203.482z"/>
			<path fill="#3C2517" d="M255.479,397.132c-49.785,0-97.393-8.711-134.052-24.528c-40.462-17.468-65.775-38.574-77.376-64.533
				c-10.455-23.406-9.034-46.449,4.233-68.489c13.032-21.654,34.019-36.164,45.368-42.887
				c25.359-15.017,55.744-26.214,87.865-32.379c17.422-3.351,37.335-4.645,56.257-5.542c7.199-0.343,14.44-0.517,21.531-0.517
				c69.184,0,130.118,16.295,171.584,45.885c30.076,21.467,55.725,59.548,37.521,102.06c-4.608,10.766-9.545,19.078-15.087,25.42
				C417.974,372.033,342.164,397.132,255.479,397.132z M259.307,163.389c-7.008,0-14.169,0.17-21.289,0.51
				c-18.73,0.89-38.425,2.165-55.528,5.455c-31.555,6.054-61.366,17.038-86.222,31.756c-69.247,41.021-53.89,90.634-47.532,104.865
				c11.052,24.731,35.496,44.985,74.729,61.918c36.026,15.547,82.912,24.108,132.016,24.108c85.246,0,159.575-24.433,193.979-63.76
				c5.185-5.931,9.84-13.802,14.235-24.062c17.001-39.711-7.339-75.557-35.784-95.863
				C387.304,179.345,327.429,163.389,259.307,163.389z M257.367,362.074c-0.008,0-0.008,0-0.008,0
				c-64.188-0.002-123.426-16.057-158.465-42.943c-13.158-10.088-26.615-22.898-26.661-41.424
				c-0.04-17.02,15.603-33.935,23.878-40.499c21.852-17.314,49.271-28.826,86.305-36.24c16.898-3.384,34.784-5.438,56.277-6.463
				c7.129-0.341,14.262-0.512,21.206-0.512c62.736,0,114.896,13.652,150.841,39.477c19.833,14.255,29.477,28.719,29.477,44.231
				c0,35.119-49.221,57.594-70.383,65.625C337.507,355.591,298.614,362.074,257.367,362.074z M259.898,199.125
				c-6.864,0-13.915,0.169-20.96,0.507c-21.231,1.012-38.875,3.035-55.519,6.367c-36.206,7.247-62.937,18.442-84.118,35.228
				c-8.835,7.012-21.967,22.505-21.934,36.466c0.039,16.298,12.482,28.033,24.65,37.363c34.178,26.226,92.244,41.881,155.338,41.885
				h0.008c40.058,0,79.351-6.539,110.648-18.411c20.165-7.658,67.067-28.906,67.067-60.83c0-13.739-8.941-26.849-27.34-40.066
				C372.679,212.441,321.553,199.125,259.898,199.125z"/>
		</g>
	</g>
	<g>
		<g>
			<path fill="#CDA96A" d="M396.633,267.58l-38.644-5.418l-7.208,0.12c-11.797-3.587-26.834-6.892-46.243-10.233
				c-39.224-4.566-52.688-5.689-52.688-5.689s-50.566-0.919-74.229,6.351c-3.171,0.973-6.47,1.989-9.806,3.043
				c-14.143-1.857-29.318-3.761-43.885-5.398c-1.932,14.938-2.18,26.156-1.888,33.962c-0.378,4.285-0.054,8.873,1.397,13.533v0.004
				l0,0c3.548,11.397,13.828,23.271,37.186,32.487c33.135,13.074,56.255,19.179,83.711,19.218
				c27.453,0.043,108.234-10.611,118.727-13.527c9.379-2.605,32.786-14.676,31.85-33.158
				C395.864,292.691,396.633,267.58,396.633,267.58z"/>
			<path fill="#BA844F" d="M244.497,352.123h-0.007h-0.158c-29.656-0.039-54.38-7.451-84.651-19.391
				c-21.238-8.383-34.254-19.863-38.69-34.117c-1.424-4.574-1.938-9.406-1.521-14.361c-0.364-10.084,0.282-21.598,1.915-34.23
				l0.324-2.503l2.505,0.285c12.807,1.438,27.396,3.231,43.374,5.329c3.157-0.996,6.274-1.959,9.279-2.879
				c19.102-5.865,54.929-6.497,69.445-6.497c3.509,0,5.584,0.036,5.584,0.036c0.303,0.021,14.123,1.185,52.937,5.707
				c19.575,3.362,34.682,6.701,46.306,10.211l7.011-0.122l41.12,5.769l-0.071,2.299c-0.033,1.025-0.772,25.025-1.716,35.273
				c0.834,19.555-22.335,32.406-33.734,35.572C352.321,341.684,272.079,352.123,244.497,352.123z M126.162,253.191
				c-1.372,11.434-1.898,21.86-1.558,31.029l0.007,0.161l-0.017,0.154c-0.381,4.348,0.053,8.565,1.295,12.549
				c3.949,12.701,15.958,23.088,35.676,30.869c35.086,13.838,57.52,19,82.776,19.039l0.148,2.563v-2.563
				c27.951,0,108.275-10.763,117.882-13.435c9.74-2.707,30.806-14.16,29.975-30.559l-0.007-0.186l0.013-0.185
				c0.77-8.188,1.426-26.401,1.642-32.83l-36.159-5.073l-7.414,0.125l-0.388-0.113c-11.466-3.49-26.489-6.814-45.936-10.162
				c-38.177-4.443-52.047-5.625-52.448-5.66c-0.01,0.012-2.007-0.027-5.336-0.027c-14.284,0-49.503,0.611-67.938,6.274
				c-3.167,0.969-6.456,1.983-9.785,3.034l-0.544,0.171l-0.56-0.073C152.359,256.307,138.472,254.593,126.162,253.191z"/>
		</g>
		<g>
			<path fill="#EBD1A0" d="M253.717,212.7c0,0-50.566-0.916-74.229,6.344c-23.66,7.271-54.144,16.488-55.559,31.311
				c-1.418,14.827,5.43,33.249,38.564,46.321c33.127,13.074,56.254,19.189,83.707,19.225
				c27.452,0.037,108.241-10.612,118.729-13.528c10.491-2.918,38.548-17.66,30.448-39.998
				c-8.113-22.334-24.667-32.907-88.979-43.987C267.184,213.819,253.717,212.7,253.717,212.7z"/>
			<path fill="#BA844F" d="M246.339,318.468c0,0,0,0-0.003,0h-0.14c-29.636-0.043-54.362-7.457-84.647-19.401
				c-35.725-14.097-41.562-34.402-40.178-48.956c1.563-16.378,32.104-25.76,56.646-33.298l0.716-0.22
				c19.101-5.864,54.936-6.497,69.448-6.497c3.508,0,5.586,0.038,5.586,0.038c0.297,0.02,14.121,1.185,52.928,5.703
				c68.03,11.717,83.067,23.555,91.095,45.662c2.508,6.913,2.084,13.716-1.266,20.212c-6.37,12.363-22.339,20.748-30.908,23.133
				C354.188,308.02,273.932,318.468,246.339,318.468z M248.181,215.229c-14.284,0-49.506,0.611-67.938,6.27l-0.719,0.218
				c-21.861,6.715-51.803,15.915-53.038,28.881c-1.756,18.355,11.021,33.461,36.944,43.688
				c35.105,13.851,57.539,19.012,82.776,19.051l0.129,2.562v-2.562c27.95,0.002,108.294-10.771,117.908-13.44
				c6.521-1.814,21.888-9.226,27.718-20.537c2.667-5.174,3.002-10.592,1-16.109c-7.32-20.17-21.622-31.069-87-42.336
				c-38.176-4.439-52.047-5.622-52.447-5.655C253.508,215.252,251.507,215.229,248.181,215.229z"/>
		</g>
		<g opacity="0.5">
			<path fill="#046938" d="M207.222,247.751l-2.76,3.108c0,0,0.475,2.123,2.578,0.144
				C209.137,249.023,209.782,248.13,207.222,247.751z"/>
		</g>
		<g opacity="0.5">
			<path fill="#046938" d="M226.463,241.426c0,0-4.485,0.275-0.997,1.865C228.957,244.886,232.771,243.346,226.463,241.426z"/>
		</g>
		<g opacity="0.5">
			<path fill="#046938" d="M235.791,253.531c0,0-1.358,0.213-1.026,2.322c0.328,2.114,1.702,1.609,2.365-2.25
				C237.792,249.736,236.795,252.428,235.791,253.531z"/>
		</g>
		<g opacity="0.5">
			<path fill="#046938" d="M221.371,265.656c0,0-1.352,0.213-1.024,2.324c0.332,2.117,1.703,1.608,2.366-2.248
				C223.372,261.861,222.385,264.548,221.371,265.656z"/>
		</g>
		<g opacity="0.5">
			<path fill="#046938" d="M290.214,269.52c0,0-0.223,1.58,1.609,1.758c1.836,0.178,1.821-1.496-1.159-3.246
				C287.684,266.285,289.604,268.102,290.214,269.52z"/>
		</g>
		<g opacity="0.5">
			<path fill="#046938" d="M260.475,292.846c0,0,0.709,1.348,2.221,0.088c1.511-1.267,0.576-2.504-2.696-1.547
				C256.729,292.355,259.213,292.251,260.475,292.846z"/>
		</g>
		<g opacity="0.5">
			<path fill="#046938" d="M345.573,250.779c0,0-1.355,0.211-1.027,2.334c0.328,2.111,1.703,1.604,2.359-2.264
				C347.574,246.988,346.577,249.678,345.573,250.779z"/>
		</g>
		<g opacity="0.5">
			<path fill="#046938" d="M251.468,245.24c-0.676-0.025-2.19-0.896-1.551,1.018c0.64,1.922,0.896,2.769,1.414,1.434
				C251.85,246.359,252.404,245.286,251.468,245.24z"/>
		</g>
		<g opacity="0.5">
			<path fill="#046938" d="M312.913,248.262c-0.676-0.028-2.188-0.899-1.548,1.015c0.64,1.924,0.888,2.766,1.408,1.438
				C313.3,249.385,313.856,248.3,312.913,248.262z"/>
		</g>
		<g opacity="0.5">
			<path fill="#046938" d="M333.922,275.625c-0.672-0.023-2.183-0.9-1.547,1.016c0.636,1.922,0.888,2.769,1.411,1.438
				C334.31,276.746,334.866,275.671,333.922,275.625z"/>
		</g>
		<g opacity="0.5">
			<path fill="#046938" d="M278.273,232.581c-0.676-0.031-2.187-0.899-1.543,1.016c0.64,1.917,0.885,2.766,1.408,1.438
				C278.662,233.706,279.219,232.624,278.273,232.581z"/>
		</g>
		<g opacity="0.5">
			<path fill="#046938" d="M247.095,232.494c-0.673-0.027-2.189-0.896-1.551,1.019c0.64,1.919,0.892,2.764,1.411,1.433
				C247.479,233.616,248.038,232.54,247.095,232.494z"/>
		</g>
		<g opacity="0.5">
			<path fill="#046938" d="M196.21,270.367c-0.669-0.026-2.189-0.899-1.547,1.016c0.64,1.922,0.888,2.768,1.411,1.442
				C196.602,271.494,197.154,270.414,196.21,270.367z"/>
		</g>
		<g opacity="0.5">
			<path fill="#046938" d="M164.017,245.612c-0.669-0.032-2.189-0.902-1.547,1.016c0.64,1.911,0.888,2.758,1.408,1.427
				C164.404,246.734,164.961,245.652,164.017,245.612z"/>
		</g>
		<g opacity="0.5">
			<path fill="#046938" d="M244.716,259.378c0,0-2.299,1.097-0.98,1.515c1.318,0.428,2.58,1.895,2.829,0.156
				C246.807,259.32,245.537,258.895,244.716,259.378z"/>
		</g>
		<g opacity="0.5">
			<path fill="#046938" d="M254.48,255.348c0,0-2.529,2.629-1.635,2.705c0.887,0.077,0.062,1.549,1.486,0.086
				C255.754,256.669,257.871,256.197,254.48,255.348z"/>
		</g>
		<g opacity="0.5">
			<path fill="#046938" d="M328.529,233.462c0,0-2.538,2.632-1.645,2.713c0.893,0.078,0.066,1.545,1.487,0.083
				C329.795,234.791,331.908,234.315,328.529,233.462z"/>
		</g>
		<g opacity="0.5">
			<path fill="#046938" d="M183.87,261.641c0,0-2.531,2.625-1.64,2.713c0.892,0.076,0.062,1.543,1.484,0.078
				C185.139,262.969,187.253,262.491,183.87,261.641z"/>
		</g>
		<g opacity="0.5">
			<path fill="#046938" d="M270.824,251.277c0,0-0.282-0.248-0.045,0.813c0.236,1.06,1.408,1.476,2.23,0.123
				S274.646,249.625,270.824,251.277z"/>
		</g>
	</g>
	<g>
		<g>
			<path fill="#EFCF6C" d="M201.332,300.91c0,0-15.097,10.896-9.644,23.057c5.449,12.154,18.233,18.443,38.57,13.83
				c20.334-4.609,33.326-10.062,43.6-7.754c10.271,2.307,22.22,6.912,29.767,1.051c7.543-5.871,7.334-13.549,16.348-15.475
				c9.016-1.928,28.094-12.615,31.862-24.354c3.773-11.744,2.724-27.255-11.528-32.072c-14.255-4.82-86.571-31.654-87.407-31.442
				c-0.844,0.209-47.375,33.748-47.375,34.375C205.522,262.755,201.332,300.91,201.332,300.91z"/>
			<path fill="#3C2517" d="M217.783,341.878c0,0,0,0-0.003,0c-13.46,0-23.558-5.989-28.434-16.862
				c-5.44-12.136,6.075-22.656,9.554-25.47c1.637-14.887,3.985-36.433,4.062-37.551c-0.007-1.622-0.007-1.622,24.432-19.297
				c23.709-17.147,24.362-17.309,24.881-17.438c0.203-0.049,0.426-0.079,0.634-0.079c0.95,0,2.901,0.624,44.169,15.679
				c18.436,6.729,37.501,13.687,44.054,15.904c15.259,5.158,17.598,21.438,13.148,35.286c-4.207,13.097-24.516,24.099-33.771,26.078
				c-4.323,0.922-5.967,3.399-8.242,6.826c-1.72,2.586-3.667,5.514-7.065,8.162c-2.945,2.286-6.575,3.399-11.104,3.399
				c-5.033,0-10.412-1.373-15.617-2.697c-1.756-0.448-3.494-0.891-5.181-1.271c-1.458-0.328-3.002-0.485-4.725-0.485
				c-5.896,0-13.003,1.889-22.007,4.28c-4.65,1.236-9.922,2.638-15.742,3.957C226.207,341.348,221.821,341.878,217.783,341.878z
				 M207.98,263.376c-0.388,3.863-1.763,16.537-4.098,37.812c-0.079,0.72-0.461,1.375-1.047,1.799
				c-0.136,0.095-13.327,9.837-8.806,19.929c4.059,9.047,12.271,13.83,23.75,13.83c0.003,0,0.003,0,0.003,0
				c3.657,0,7.662-0.486,11.909-1.451c5.728-1.297,10.952-2.688,15.557-3.912c9.365-2.487,16.76-4.45,23.325-4.45
				c2.11,0,4.019,0.198,5.848,0.608c1.735,0.388,3.521,0.847,5.323,1.306c4.896,1.248,9.962,2.541,14.352,2.541
				c3.342,0,5.945-0.761,7.953-2.32c2.74-2.133,4.366-4.584,5.94-6.951c2.497-3.76,5.078-7.646,11.444-9.004
				c8.361-1.793,26.538-11.998,29.957-22.629c3.412-10.614,2.862-24.541-9.907-28.857c-6.605-2.236-25.7-9.205-44.167-15.943
				c-17.646-6.437-37.453-13.667-42.021-15.157C247.19,234.614,213.086,259.335,207.98,263.376z"/>
		</g>
		<g>
			<path fill="#F2F2F2" d="M344.079,245.776c-2.097-3.773-3.776-9.642-1.468-16.561c1.836-5.506,1.392-14.722-5.625-21.639
				c-12.578-15.431-44.008-23.131-81.732-23.131c-49.142,0-88.981,21.25-88.981,47.462l-1.266,10.743
				c-0.334,1.005-0.327,3.074,0.898,7.739c2.094,7.962,0,14.671,0.838,18.237c0.842,3.562,4.611,24.731,41.923,42.34
				c40.873,13.42,54.919-6.286,54.919-7.963c0-1.681-1.464-2.094,0.843-8.174c2.303-6.086,2.932-8.599,0-12.787
				c-2.936-4.192-14.468-17.819-12.373-25.367c2.101-7.545,7.762,2.306,12.582,6.498c4.815,4.192,14.25,10.062,14.672,16.144
				c0.42,6.08-1.468,10.27,0,12.787c1.467,2.516,9.854,5.655,14.047,5.235c4.187-0.416,13.203,7.34,28.085-1.883
				c14.885-9.226,18.445-7.754,20.751-16.979c2.31-9.228,2.729-6.922,5.874-16.771C351.205,251.857,346.176,249.55,344.079,245.776z
				"/>
			<path fill="#3C2517" d="M234.603,318.186c-8.077,0-17.078-1.609-26.734-4.779c-0.1-0.031-0.202-0.072-0.295-0.119
				c-24.419-11.521-39.372-26.643-43.245-43.727l-0.083-0.346c-0.414-1.767-0.281-3.845-0.129-6.251
				c0.219-3.327,0.48-7.471-0.689-11.923c-1.421-5.386-1.295-7.632-0.943-8.915l1.226-10.372
				c0.152-27.516,41.161-49.875,91.545-49.875c40.641,0,71.108,8.734,83.639,23.969c7.366,7.35,8.406,17.427,6.154,24.18
				c-2.213,6.634-0.151,11.934,1.275,14.5c0.367,0.659,0.911,1.344,1.49,2.065c2.343,2.934,5.553,6.942,2.695,15.896
				c-1.461,4.57-2.375,6.656-3.112,8.332c-0.868,1.988-1.501,3.425-2.714,8.277c-1.907,7.623-4.942,9.219-11.592,12.717
				c-2.67,1.404-5.993,3.152-10.303,5.818c-5.344,3.316-10.488,4.926-15.729,4.926l0,0c-4.232,0-7.675-1.082-10.188-1.873
				c-1.299-0.41-2.523-0.799-3.174-0.799c-0.424,0.039-0.778,0.055-1.156,0.055c-4.596,0-13.341-2.936-15.447-6.549
				c-1.246-2.135-0.968-4.565-0.64-7.375c0.219-1.903,0.467-4.062,0.295-6.528c-0.252-3.657-5.979-8.154-10.164-11.437
				c-1.331-1.05-2.587-2.035-3.63-2.947c-1.382-1.196-2.76-2.746-4.096-4.25c-1.176-1.32-3.027-3.401-4.117-4.139
				c-0.062,0.162-0.137,0.374-0.213,0.645c-1.453,5.25,6.734,16.15,10.229,20.805c0.726,0.971,1.339,1.786,1.771,2.404
				c3.74,5.341,2.613,9.058,0.298,15.166c-1.425,3.755-1.166,4.691-0.964,5.439c0.121,0.445,0.291,1.055,0.291,1.826
				C266.152,306.541,256.316,318.186,234.603,318.186z M209.617,308.58c9.087,2.971,17.495,4.475,24.985,4.475
				c17.279,0,24.984-8.045,26.353-10.363c-0.014-0.049-0.025-0.102-0.043-0.157c-0.479-1.736-0.749-3.703,1.115-8.613
				c2.224-5.877,2.473-7.299,0.296-10.405c-0.407-0.58-0.987-1.353-1.671-2.263c-6.387-8.503-13.038-18.172-11.07-25.261
				c1.07-3.838,3.189-4.645,4.784-4.645c2.897,0,5.416,2.825,8.327,6.101c1.227,1.381,2.492,2.805,3.627,3.795
				c0.988,0.854,2.175,1.784,3.434,2.774c5.214,4.094,11.707,9.188,12.114,15.121c0.206,2.935-0.089,5.451-0.321,7.467
				c-0.208,1.822-0.406,3.543-0.021,4.205c0.802,1.222,6.916,4.002,11.015,4.002c0.194,0,0.381-0.008,0.56-0.024
				c1.58-0.156,3.308,0.371,5.312,1.004c2.319,0.729,5.204,1.64,8.648,1.64c4.258,0,8.519-1.361,13.029-4.154
				c4.459-2.766,7.871-4.557,10.618-6.002c6.33-3.33,7.648-4.025,8.997-9.42c1.318-5.271,2.058-6.961,2.995-9.094
				c0.722-1.647,1.543-3.517,2.922-7.832c2.017-6.332,0.241-8.555-1.819-11.128c-0.679-0.859-1.392-1.744-1.964-2.779
				c-1.839-3.304-4.496-10.122-1.657-18.617c1.31-3.934,1.733-12.363-4.991-19c-0.066-0.064-0.13-0.134-0.187-0.205
				c-11.495-14.101-40.563-22.188-79.748-22.188c-47.647,0-86.414,20.142-86.414,44.896c0,0.103-0.007,0.2-0.017,0.303
				l-1.266,10.742c-0.022,0.171-0.059,0.34-0.112,0.504c-0.043,0.122-0.361,1.339,0.941,6.28c1.385,5.26,1.079,10.055,0.851,13.56
				c-0.122,1.995-0.234,3.724,0.004,4.739l0.089,0.389C172.786,283.66,187.09,297.916,209.617,308.58z"/>
		</g>
		<g>
			<path fill="#424143" d="M215.349,229.341c0,0-3.383,3.861-2.286,6.253c1.097,2.4,1.918,0.308,2.286-1.905
				C215.713,231.466,217.355,229.474,215.349,229.341z"/>
		</g>
		<g>
			<path fill="#595A5C" d="M299.237,236.609c0,0-2.984,1.941-2.019,3.139c0.968,1.208,1.696,0.157,2.019-0.958
				C299.562,237.678,301.017,236.677,299.237,236.609z"/>
		</g>
		<g>
			<path fill="#595A5C" d="M226.827,237.257c0,0-2.677,2.831-1.57,4.089c1.097,1.257,4.088-0.159,3.61-2.044
				C228.397,237.413,228.069,235.609,226.827,237.257z"/>
		</g>
		<g>
			<path fill="#D2D3D4" d="M266.35,240.691c0,0-2.675,2.832-1.574,4.088c1.104,1.259,4.092-0.154,3.617-2.042
				C267.919,240.852,267.587,239.046,266.35,240.691z"/>
		</g>
		<g>
			<path fill="#A8AAAD" d="M234.765,253.744c0,0-2.359-0.945-2.048,1.41c0.318,2.363,1.104,3.305,2.048,0.945
				C235.705,253.744,236.809,252.328,234.765,253.744z"/>
		</g>
		<g>
			<path fill="#424143" d="M293.434,260.188c0,0-2.354-0.941-2.043,1.414c0.313,2.359,1.104,3.305,2.043,0.944
				C294.374,260.188,295.479,258.771,293.434,260.188z"/>
		</g>
		<g>
			<path fill="#424143" d="M250.986,233.517c0,0-3.689-0.522-3.196,0.787c0.49,1.309,1.723,1.831,3.196,0.522
				C252.468,233.517,254.188,232.735,250.986,233.517z"/>
		</g>
		<g>
			<path fill="#A8AAAD" d="M218.571,257.463c-0.471,0.523-2.044,0.68,0,2.251c2.044,1.574,3.459,0.269,3.459-1.125
				C222.03,257.201,219.575,256.354,218.571,257.463z"/>
		</g>
		<g>
			<path fill="#D2D3D4" d="M309.752,253.145c-0.467,0.522-2.04,0.676,0,2.252c2.044,1.571,3.459,0.264,3.459-1.127
				C313.211,252.88,310.759,252.031,309.752,253.145z"/>
		</g>
		<g>
			<path fill="#A8AAAD" d="M287.904,230.034c-0.475,0.522-2.047,0.679,0,2.251c2.041,1.572,3.455,0.265,3.455-1.123
				C291.359,229.767,288.904,228.92,287.904,230.034z"/>
		</g>
		<g>
			<path fill="#424143" d="M234.304,266.947c-1.109-0.469-3.843-3.457-1.609,0c2.229,3.457,2.18,3.773,3.227,2.672
				c1.047-1.1,1.361-2.828,0.731-2.985C236.023,266.479,234.304,266.947,234.304,266.947z"/>
		</g>
		<g>
			<path fill="#595A5C" d="M219.787,271.038c0,0,0.984,2.198,2.243,3.302c1.255,1.098,1.199-0.16,0.994-0.791
				C222.815,272.919,220.536,268.204,219.787,271.038z"/>
		</g>
		<g>
			<path fill="#595A5C" d="M240.111,277.166c0,0-5.479,0-5.808,1.572c-0.328,1.57,1.72-0.314,3.604,0
				C239.796,279.055,243.411,279.521,240.111,277.166z"/>
		</g>
		<g>
			<path fill="#A8AAAD" d="M222.03,291c0,0-1.889,2.205,0,2.047C223.918,292.889,223.601,289.748,222.03,291z"/>
		</g>
		<g>
			<path fill="#595A5C" d="M278.294,246.685c0,0-1.888,2.198,0,2.045C280.184,248.57,279.864,245.426,278.294,246.685z"/>
		</g>
		<g>
			<path fill="#595A5C" d="M301.722,271.578c0,0-1.888,2.201,0,2.044C303.604,273.462,303.292,270.32,301.722,271.578z"/>
		</g>
		<g>
			<path fill="#424143" d="M321.705,233.297c0,0-1.889,2.203,0,2.045C323.587,235.185,323.271,232.038,321.705,233.297z"/>
		</g>
		<g>
			<path fill="#A8AAAD" d="M285.579,212.171c0,0-1.886,2.201,0,2.042C287.467,214.058,287.154,210.913,285.579,212.171z"/>
		</g>
		<g>
			<path fill="#D2D3D4" d="M227.794,224.006c0,0-1.888,2.198,0,2.042C229.679,225.891,229.364,222.747,227.794,224.006z"/>
		</g>
		<g>
			<path fill="#595A5C" d="M243.521,218.242c0,0-0.239,0.032-0.537,0.095c-0.895,0.187-2.332,0.657,0.537,1.408
				c3.822,1.002,7.5,0.302,5.052-0.75C246.12,217.94,247.959,216.94,243.521,218.242z"/>
		</g>
		<g>
			<path fill="#424143" d="M269.73,220.215c0,0-2.504,0.652-1.879,1.608c0.627,0.958,2.037,2.392,2.699,1.794
				C271.215,223.017,271.846,219.964,269.73,220.215z"/>
		</g>
	</g>
</g>
</svg>
