<?xml version="1.0" encoding="utf-8"?>
<!-- Generator: Adobe Illustrator 16.0.0, SVG Export Plug-In . SVG Version: 6.00 Build 0)  -->
<!DOCTYPE svg PUBLIC "-//W3C//DTD SVG 1.1//EN" "http://www.w3.org/Graphics/SVG/1.1/DTD/svg11.dtd">
<svg version="1.1" id="Layer_1" xmlns="http://www.w3.org/2000/svg" xmlns:xlink="http://www.w3.org/1999/xlink" x="0px" y="0px"
	 width="500px" height="500px" viewBox="0 0 500 500" enable-background="new 0 0 500 500" xml:space="preserve">
<g id="Layer_1_copy_70">
	<g>
		<path fill="#FEE994" d="M250.326,57.187c0,0-15.666-9.937-7.837-23.695c7.837-13.756,22.931-8.216,24.65,2.292
			c1.719,10.509-1.524,15.287-1.524,15.287s13.185-13.95,24.053-10.573c23.355,7.261,25.269,30.188,25.269,30.188l-63.08,30.445
			L226.388,76.53c0,0-6.439-16.096,3.492-21.065C235.229,51.835,240.389,51.645,250.326,57.187z"/>
		<path fill="#3C2517" d="M251.854,104.159c-0.767,0-1.524-0.292-2.104-0.849l-25.467-24.6c-0.308-0.297-0.546-0.657-0.707-1.054
			c-0.305-0.758-7.266-18.572,4.769-24.804c3.701-2.474,7.195-3.368,11.223-2.903c-2.646-4.959-3.559-11.187,0.29-17.955
			c3.52-6.175,8.947-9.713,14.908-9.713c7.543,0,14.147,5.595,15.361,13.015c0.473,2.889,0.602,5.399,0.523,7.547
			c4.227-2.971,9.814-5.901,15.431-5.901c1.562,0,3.069,0.224,4.483,0.663c25.021,7.778,27.304,31.811,27.385,32.829
			c0.104,1.25-0.568,2.434-1.701,2.978l-63.078,30.445C252.749,104.06,252.302,104.159,251.854,104.159z M228.989,74.837
			l23.451,22.65l59.176-28.561c-1.048-5.416-5.45-20.129-22.848-25.537c-0.836-0.26-1.74-0.392-2.688-0.392
			c-7.113,0-15.6,7.329-18.268,10.153c-1.086,1.149-2.871,1.267-4.099,0.279c-1.231-0.988-1.495-2.755-0.608-4.062l0,0
			c0,0,2.508-4.147,1.041-13.094c-0.727-4.452-4.85-7.938-9.383-7.938c-3.775,0-7.203,2.362-9.645,6.653
			c-6.33,11.122,6.285,19.298,6.824,19.639c1.386,0.878,1.818,2.698,0.981,4.107c-0.839,1.408-2.646,1.892-4.078,1.096
			c-4.817-2.689-8.398-3.94-11.265-3.94c-2.034,0-3.886,0.641-6.004,2.08c-0.109,0.075-0.228,0.143-0.344,0.203
			C224.785,61.398,228.081,72.216,228.989,74.837z"/>
	</g>
	<g>
		<path fill="#FEE994" d="M174.111,90.976c0,0-10.509-13.375-20.255-5.923c2.489-5.35,3.361-27.132-18.668-21.59
			c-17.249,3.247-5.975,27.673-5.975,27.673s-17.715-12.611-25.357-0.764c-7.642,11.847-0.059,21.048,3.57,28.5
			c3.633,7.454,35.922,20.827,36.688,20.827c0.767,0,29.234-21.782,29.997-25.22C174.878,111.039,174.111,90.976,174.111,90.976z"/>
		<path fill="#3C2517" d="M144.114,142.726c-2.804,0-35.331-14.159-39.407-22.527c-0.531-1.092-1.15-2.225-1.796-3.398
			c-3.819-6.968-9.057-16.511-1.598-28.069c2.727-4.228,6.895-6.462,12.052-6.462c3.673,0,7.39,1.143,10.449,2.463
			c-1.319-5.156-2.129-11.92,0.539-17.095c1.951-3.779,5.502-6.251,10.274-7.151c2.423-0.614,4.871-0.945,7.097-0.945
			c7.498,0,11.428,3.698,13.411,6.803c2.683,4.206,3.256,9.391,2.917,13.604c0.716-0.121,1.434-0.18,2.171-0.18
			c8.833,0,15.97,8.957,16.273,9.339c0.393,0.502,0.62,1.116,0.646,1.754c0.128,3.416,0.736,20.638-0.072,24.273
			C176.102,119.489,146.819,142.726,144.114,142.726z M113.365,88.326c-3.127,0-5.341,1.169-6.964,3.688
			c-5.502,8.528-1.782,15.312,1.82,21.875c0.689,1.262,1.36,2.481,1.929,3.656c2.499,5.133,26.922,16.353,33.583,18.838
			c5.128-3.539,25.14-19.261,27.472-22.813c0.355-2.395,0.245-12.385-0.077-21.439c-2.016-2.252-6.547-6.308-10.904-6.308
			c-1.605,0-3.083,0.533-4.527,1.635c-1.104,0.847-2.643,0.827-3.73-0.043c-1.09-0.873-1.438-2.374-0.851-3.638
			c1.137-2.449,1.785-9.675-1.085-14.174c-2.489-3.9-7.236-4.934-14.101-3.204c-3.131,0.596-5.096,1.895-6.191,4.008
			c-2.914,5.643,0.619,15.963,2.225,19.465c0.568,1.244,0.231,2.717-0.821,3.594c-1.056,0.87-2.565,0.931-3.684,0.139
			C127.385,93.551,119.926,88.326,113.365,88.326z"/>
	</g>
	<g>
		<path fill="#FEE994" d="M333.658,95.715c4.589-6.558,3.062-20.086,3.062-20.086c0-17.66-12.837-31.977-28.664-31.977
			c-15.829,0-28.659,14.316-28.659,31.977c0,0-19.106-13.938-22.164,11.067c-8.79-20.086-23.312,0-23.312,0
			c0-23.771-15.743-43.044-35.159-43.044c-19.415,0-35.158,19.272-35.158,43.044c0,2.98,0.249,5.889,0.723,8.697
			c0,0-18.859,0.322-16.861,22.053c-14.05-15.988-26.658,5.33-26.658,5.33s-14.525-21.729-30.191-4.919
			c-15.667,16.808,3.929,30.336,3.929,30.336s-11.868-7.38-16.688,4.1c-4.816,11.479,3.208,26.646,3.208,26.646l87.129,107.411
			l163.558,3.687l74.616-82.243l12.513-30.493l2.433-22.289c0,0,8.896-20.757-7.658-24.036c-10.633-2.461-13.499,6.557-13.499,6.557
			s8.412-22.75-11.176-25.416c-19.585-2.665-25.894,5.33-30.094,17.013c-4.208,11.684,13.946-25.868-4.208-33.82
			C343.401,88.747,333.658,95.715,333.658,95.715z"/>
		<path fill="#3C2517" d="M331.749,293.066c-0.022,0-0.044,0-0.065,0l-163.562-3.69c-0.887-0.021-1.723-0.429-2.283-1.121
			L78.712,180.848c-0.124-0.154-0.234-0.319-0.326-0.491c-0.355-0.674-8.636-16.583-3.323-29.237
			c2.052-4.886,5.666-7.765,10.258-8.225c-1.785-2.672-3.291-5.949-3.701-9.695c-0.653-6.023,1.627-11.881,6.781-17.407
			c4.541-4.873,9.512-7.342,14.768-7.342c7.833,0,14.138,5.553,17.503,9.305c3.049-3.783,8.712-9.285,15.849-9.285
			c2.749,0,5.41,0.801,7.957,2.39c0.536-4.703,2.203-8.636,4.985-11.74c3.633-4.054,8.327-5.676,11.447-6.323
			c-0.221-2.016-0.334-4.059-0.334-6.101c0-25.403,17.136-46.072,38.186-46.072c19.031,0,34.858,16.888,37.725,38.894
			c2.84-2.443,6.642-4.778,10.795-4.778c3.276,0,6.161,1.371,8.62,4.087c2.896-8.16,8.267-10.099,12.716-10.099
			c2.962,0,5.823,0.918,8.071,1.923c2.19-16.953,15.425-30.027,31.367-30.027c17.422,0,31.607,15.613,31.691,34.836
			c0.156,1.514,0.759,8.322-0.639,14.682c1.629-0.401,3.472-0.676,5.482-0.676c3.971,0,7.826,1.056,11.462,3.141
			c7.01,3.156,10.39,10.413,9.843,20.57c5.671-4.191,13.25-5.458,23.49-4.062c5.986,0.814,10.345,3.382,12.958,7.628
			c2.239,3.64,2.771,7.916,2.605,11.722c2.444-0.968,5.766-1.279,9.384-0.442c4.919,0.974,8.5,3.443,10.546,7.324
			c4.021,7.624,0.3,18.103-0.607,20.412l-2.384,21.87c-0.029,0.282-0.1,0.557-0.21,0.821l-12.513,30.489
			c-0.132,0.326-0.323,0.626-0.562,0.887l-74.612,82.243C333.417,292.704,332.603,293.066,331.749,293.066z M169.662,283.352
			l160.773,3.627l73.33-80.829l12.151-29.602l2.382-21.866c0.033-0.293,0.109-0.586,0.226-0.859
			c1.149-2.705,3.568-10.793,0.991-15.662c-1.166-2.208-3.276-3.588-6.455-4.215c-7.37-1.704-9.657,3.53-10.014,4.483
			c-0.575,1.537-2.309,2.423-3.854,1.882c-1.552-0.537-2.425-2.127-1.925-3.695c0.015-0.047,0.091-0.262,0.109-0.312
			c1.305-3.777,2.768-11.575-0.19-16.388c-1.639-2.663-4.458-4.233-8.616-4.8c-2.375-0.323-4.598-0.486-6.613-0.486
			c-9.162,0-14.459,3.105-18.213,10.701c-2.532,8.989-3.834,9.059-5.454,9.059c-0.015,0-0.026,0-0.037,0
			c-0.989,0-1.924-0.487-2.491-1.294c-1.009-1.435-0.499-2.85,0.271-4.994c0.668-1.847,1.327-3.46,2.023-4.92
			c1.756-6.404,4.611-21.069-4.593-25.101c-0.105-0.046-0.209-0.099-0.308-0.155c-2.742-1.594-5.62-2.403-8.563-2.403
			c-5.308,0-9.144,2.639-9.185,2.665c-1.202,0.845-2.841,0.708-3.882-0.337c-1.037-1.037-1.188-2.667-0.346-3.871
			c3.224-4.609,2.918-14.564,2.525-18.011c-0.011-0.112-0.02-0.226-0.02-0.339c0-15.962-11.497-28.949-25.632-28.949
			c-14.134,0-25.632,12.987-25.632,28.949c0,1.138-0.643,2.181-1.656,2.7c-1.013,0.519-2.24,0.416-3.156-0.253
			c-0.039-0.031-4.606-3.292-8.994-3.292c-1.701,0-6.877,0-8.381,12.281c-0.164,1.354-1.215,2.43-2.563,2.628
			c-1.331,0.214-2.665-0.533-3.212-1.782c-2.066-4.721-4.482-7.114-7.18-7.114c-4.365,0-9.358,5.542-10.909,7.677
			c-0.773,1.059-2.137,1.51-3.386,1.099c-1.247-0.405-2.093-1.565-2.093-2.877c0-22.065-14.413-40.017-32.132-40.017
			c-17.718,0-32.126,17.951-32.126,40.017c0,2.762,0.227,5.521,0.674,8.198c0.146,0.869-0.095,1.76-0.66,2.436
			c-0.561,0.678-1.393,1.078-2.275,1.093c-0.048,0-6.386,0.222-10.443,4.785c-2.844,3.208-4.007,7.903-3.449,13.96
			c0.121,1.305-0.615,2.542-1.818,3.059c-1.209,0.524-2.606,0.204-3.471-0.782c-2.866-3.263-5.787-4.917-8.672-4.917
			c-5.965,0-11.483,7.07-13.111,9.796c-0.531,0.889-1.484,1.446-2.519,1.476c-1.056,0.077-2.02-0.475-2.599-1.336
			c-0.069-0.1-6.807-9.956-15.123-9.956c-3.511,0-6.986,1.822-10.337,5.414c-3.899,4.182-5.645,8.43-5.189,12.625
			c0.821,7.576,8.544,13.102,8.62,13.157c1.353,0.933,1.713,2.776,0.811,4.151c-0.901,1.372-2.73,1.781-4.131,0.911
			c-0.019-0.013-3.104-1.88-6.301-1.88c-1.745,0-4.27,0.476-5.996,4.582c-3.904,9.308,2.026,21.914,2.969,23.815L169.662,283.352z"
			/>
	</g>
	<g>
		<path fill="#F7F7F5" d="M85.504,200.611l43.992,211.163c0,0,20.856,50.837,122.525,54.096
			c101.669,3.259,114.702-59.637,114.702-59.637l46.928-208.879l-147.245,36.258L85.504,200.611z"/>
		<path fill="#3C2517" d="M259.555,469.017c-2.479,0-5.031-0.036-7.63-0.125c-102.455-3.28-124.349-53.817-125.229-55.967
			c-0.069-0.173-0.124-0.352-0.164-0.534l-43.993-211.16c-0.202-0.986,0.091-2.009,0.796-2.731c0.703-0.726,1.711-1.048,2.716-0.865
			l180.26,32.882l146.616-36.104c1.019-0.245,2.092,0.048,2.845,0.777c0.747,0.736,1.062,1.803,0.836,2.826l-46.929,208.878
			C369.562,407.467,355.702,469.017,259.555,469.017z M132.396,410.835c1.651,3.522,24.873,48.967,119.723,52.01
			c2.527,0.075,5.018,0.117,7.436,0.117c90.994,0,103.71-55.007,104.208-57.351l45.861-204.15L267.128,236.55
			c-0.413,0.098-0.843,0.118-1.269,0.04L89.386,204.398L132.396,410.835z"/>
	</g>
	<g>
		<path fill="#AA1F23" d="M220.159,226.661l4.883,235.632c0,0-17.322-2.358-20.731-3.638c-0.065-1.612-9.746-232.701-9.746-232.701
			l15.915,0.498L220.159,226.661z"/>
	</g>
	<g>
		<path fill="#AA1F23" d="M170.736,213.609l13.821,238.935c0,0-13.434-4.994-15.493-6.753
			c-0.202-2.222-21.601-234.417-21.601-234.417l13.603,1.063L170.736,213.609z"/>
	</g>
	<g>
		<path fill="#AA1F23" d="M128.961,209.5c0,0,24.519,225.576,24.565,226.715c0.048,1.142-11.538-9.582-11.538-9.582l-28.572-217.61
			l8.771-0.374L128.961,209.5z"/>
	</g>
	<g>
		<polygon fill="#AA1F23" points="101.445,206.601 133.664,416.248 130.387,410.495 94.543,205.076 98.128,203.25 		"/>
	</g>
	<g>
		<path fill="#AA1F23" d="M247.404,226.475v237.651c0,0,12.023,0.91,19.985,0.089c0.014-0.729,5.508-237.737,5.508-237.737
			l-3.438-0.003H247.404L247.404,226.475z"/>
	</g>
	<g>
		<path fill="#AA1F23" d="M297.862,221.475c0,0-8.372,239.464-8.192,240.818c9.98-1.485,19.302-4.569,19.302-4.569l13.332-237.292
			l-9.28,0.824L297.862,221.475z"/>
	</g>
	<g>
		<path fill="#AA1F23" d="M342.515,212.077l-17.881,239.106c0,0,8.071-3.318,15.333-9.44c0.132-1.356,22.355-230.784,22.355-230.784
			h-6.544L342.515,212.077z"/>
	</g>
	<g>
		<path fill="#AA1F23" d="M378.179,208.418c0,0-26.85,221.508-26.465,222.115c3.059-2.829,9.578-13.717,9.578-13.717l29.672-210.425
			l-5.092,0.88L378.179,208.418z"/>
	</g>
	<g>
		<polygon fill="#AA1F23" points="400.938,204.255 369.708,386.721 395.955,276.116 408.249,202.001 403.877,202.569 		"/>
	</g>
	<g>
		<path fill="#F7F7F5" d="M421.302,182.838c0,1.122-0.582,4.677-0.775,5.344c-8.268,28.363-81.647,50.55-170.946,50.55
			c-94.839,0-171.725-25.028-171.725-55.895l0.011-18.664c0,30.87,76.886,55.894,171.72,55.894
			c94.843,0,171.725-25.024,171.725-55.894L421.302,182.838z"/>
		<path fill="#3C2517" d="M249.579,241.76c-97.991,0-174.753-25.882-174.753-58.922l0.012-18.668c0-1.671,1.353-3.023,3.027-3.023
			l0,0c1.676,0,3.028,1.356,3.028,3.027c0,28.656,77.251,52.866,168.691,52.866c91.438,0,168.689-24.207,168.697-52.862v-0.008
			c0-1.671,1.354-3.023,3.026-3.023l0,0c1.676,0,3.027,1.356,3.027,3.027l-0.008,18.668c0,1.455-0.637,5.304-0.897,6.191
			C414.671,219.092,339.93,241.76,249.579,241.76z M80.886,179.895l-0.004,2.947c0,28.652,77.252,52.863,168.697,52.863
			c96.358,0,161.106-24.592,168.039-48.37c0.169-0.637,0.656-3.757,0.656-4.497v-2.925c-19.939,25.163-86.926,43.182-168.689,43.182
			C167.804,223.095,100.811,205.064,80.886,179.895z"/>
	</g>
	<g>
		<path fill="#3C2517" d="M264.867,162.829c-1.653,0-3.002-1.331-3.028-2.987c-0.022-1.672,1.315-3.046,2.987-3.07l1.564-0.013
			c8.467-0.059,14.582-0.103,15.453-11.893c0.012-0.188,0.045-0.375,0.092-0.557c0.381-1.431,0.041-2.124-0.299-2.565
			c-1.734-2.26-7.457-2.991-9.953-2.991c-1.213,0-2.31-0.724-2.781-1.839c-0.478-1.114-0.246-2.406,0.594-3.282
			c2.536-2.656,9.357-11.427,7.503-16.722c-1.272-3.63-6.776-5.102-11.176-5.7c-4.966-0.672-11.433-0.74-14.015,2.775
			c-2.949,4.012-0.34,11.896,0.803,14.341c0.664,1.413,0.146,3.099-1.197,3.893c-1.349,0.794-3.071,0.433-3.991-0.828
			c-0.582-0.777-6.092-7.578-15.259-0.865c-1.921,1.407-4.186,3.541-4.091,5.72c0.105,2.34,2.819,4.472,3.852,5.094
			c1.427,0.86,1.9,2.716,1.045,4.147c-0.85,1.432-2.696,1.905-4.131,1.063c-0.666-0.392-6.513-4.006-6.813-9.99
			c-0.194-3.915,2.012-7.589,6.562-10.921c4.53-3.321,9.09-4.652,13.536-3.955c0.894,0.142,1.737,0.359,2.525,0.629
			c-0.547-3.878-0.319-8.372,2.283-11.913c3.486-4.745,10.116-6.498,19.705-5.19c8.846,1.199,14.256,4.465,16.08,9.709
			c2.247,6.435-1.785,13.788-5.143,18.417c3.145,0.661,6.777,2,8.861,4.716c1.135,1.475,2.28,3.964,1.424,7.527
			c-1.379,17.095-12.957,17.176-21.422,17.234l-1.527,0.015C264.893,162.829,264.878,162.829,264.867,162.829z"/>
	</g>
	<g>
		<path fill="#FEE994" d="M179.727,189.986c0,0-18.847-6.884-24.583,3.819c-5.733,10.699,1.337,12.038,4.589,13.375
			c0,0-11.811,13.484,1.447,20.307c13.266,6.825,34.729-4.641,26.637-21.073"/>
		<path fill="#3C2517" d="M169.962,232.533c-3.562,0-7.078-0.762-10.167-2.353c-4.37-2.247-6.965-5.392-7.72-9.354
			c-0.891-4.67,1.162-9.299,2.987-12.297c-1.789-0.92-3.654-2.335-4.571-4.765c-1.143-3.035-0.494-6.759,1.983-11.392
			c6.895-12.865,27.421-5.553,28.293-5.23c1.565,0.572,2.376,2.305,1.803,3.874c-0.566,1.573-2.298,2.383-3.881,1.815
			c-0.157-0.059-16.527-5.718-20.874,2.404c-2.078,3.874-1.933,5.667-1.661,6.385c0.437,1.15,2.148,1.785,3.659,2.35
			c0.377,0.139,0.743,0.275,1.066,0.411c0.9,0.37,1.576,1.154,1.796,2.107c0.224,0.949-0.022,1.95-0.667,2.687
			c-1.368,1.572-4.751,6.546-3.98,10.535c0.396,2.055,1.88,3.719,4.537,5.083c6.242,3.216,15.237,1.705,20.476-3.441
			c2.693-2.646,5.237-7.151,2.06-13.599c-0.737-1.499-0.121-3.313,1.377-4.054c1.503-0.741,3.317-0.125,4.055,1.378
			c3.669,7.452,2.489,14.959-3.247,20.592C182.739,230.132,176.271,232.533,169.962,232.533z"/>
	</g>
	<g>
		<path fill="#3C2517" d="M366.867,190.924c-1.235,0-2.395-0.755-2.841-1.979c-0.579-1.572,0.227-3.313,1.796-3.889
			c7.086-2.606,10.886-6.752,10.984-11.994c0.11-5.538-4.063-11.468-9.706-13.796c-8.797-3.626-12.908,5.246-13.343,6.272
			c-0.501,1.165-1.711,1.891-2.946,1.836c-1.269-0.066-2.359-0.913-2.733-2.126c-0.976-3.156-3.251-5.72-6.403-7.217
			c-3.231-1.538-7.001-1.774-10.604-0.664c-3.591,1.112-6.571,3.431-8.375,6.528c-1.76,3.017-2.188,6.418-1.213,9.578
			c0.494,1.598-0.396,3.292-1.994,3.787c-1.603,0.495-3.292-0.403-3.79-1.998c-1.48-4.798-0.857-9.915,1.764-14.414
			c2.572-4.415,6.772-7.705,11.824-9.266c5.051-1.56,10.377-1.213,14.987,0.979c2.837,1.349,5.204,3.292,6.957,5.674
			c3.629-4.342,9.782-8.031,18.18-4.566c7.95,3.279,13.609,11.484,13.452,19.511c-0.087,4.538-2.147,12.854-14.95,17.558
			C367.567,190.865,367.212,190.924,366.867,190.924z"/>
	</g>
	<g>
		<path fill="#FEE994" d="M127.301,170.771c0,0-12.608-14.101,1.913-19.833c14.52-5.732,20.251,4.968,20.251,4.968
			s-8.562-27.897,16.546-30.19c25.112-2.292,36.97,13.905,28.554,34.083"/>
		<path fill="#3C2517" d="M127.301,173.803c-0.828,0-1.656-0.341-2.258-1.012c-0.755-0.843-7.32-8.459-5.546-15.944
			c0.921-3.902,3.815-6.836,8.604-8.726c7.216-2.848,12.9-2.119,16.999-0.134c-0.297-4.996,0.279-11.247,3.71-16.36
			c3.5-5.216,9.195-8.22,16.927-8.927c13.518-1.224,24.195,2.498,30.074,10.507c5.399,7.349,5.949,17.207,1.55,27.758
			c-0.645,1.545-2.427,2.274-3.962,1.629c-1.543-0.644-2.272-2.416-1.627-3.959c3.548-8.516,3.254-16.272-0.84-21.844
			c-4.573-6.231-13.334-9.101-24.646-8.059c-5.827,0.532-10.013,2.641-12.45,6.268c-5.168,7.703-1.514,19.894-1.475,20.017
			c0.455,1.49-0.292,3.083-1.729,3.682c-1.443,0.601-3.101,0.007-3.834-1.364c-0.462-0.823-4.956-8.127-16.472-3.581
			c-2.878,1.135-4.494,2.603-4.938,4.486c-0.895,3.775,2.803,8.986,4.171,10.515c1.114,1.246,1.004,3.159-0.238,4.273
			C128.741,173.546,128.02,173.803,127.301,173.803z"/>
	</g>
</g>
</svg>
