<?xml version="1.0" encoding="utf-8"?>
<!-- Generator: Adobe Illustrator 16.0.0, SVG Export Plug-In . SVG Version: 6.00 Build 0)  -->
<!DOCTYPE svg PUBLIC "-//W3C//DTD SVG 1.1//EN" "http://www.w3.org/Graphics/SVG/1.1/DTD/svg11.dtd">
<svg version="1.1" id="Layer_1" xmlns="http://www.w3.org/2000/svg" xmlns:xlink="http://www.w3.org/1999/xlink" x="0px" y="0px"
	 width="500px" height="500px" viewBox="0 0 500 500" enable-background="new 0 0 500 500" xml:space="preserve">
<g id="Layer_1_copy_38">
	<g>
		<path fill="#097A70" d="M165.81,371.508v36.663c0,0,32.431,19.026,83.893,22.56c51.469,3.522,102.935-21.153,102.935-21.153
			v-38.068l-81.073-57.614L165.81,371.508z"/>
		<path fill="#2C2010" d="M259.989,434.954h-0.005c-3.571,0-7.12-0.12-10.543-0.352c-51.782-3.553-84.243-22.286-85.6-23.079
			c-1.187-0.696-1.918-1.973-1.918-3.353v-36.663c0-1.421,0.78-2.729,2.028-3.408l105.75-57.617c1.306-0.707,2.9-0.611,4.109,0.246
			l81.072,57.614c1.025,0.728,1.639,1.909,1.639,3.165v38.068c0,1.494-0.861,2.854-2.209,3.502
			C352.454,413.973,308.141,434.954,259.989,434.954z M169.688,405.859c7.614,3.968,37.338,18.054,80.283,20.996
			c3.251,0.221,6.619,0.336,10.015,0.336c40.504,0,79.27-15.922,88.771-20.116v-33.562l-77.465-55.053l-101.604,55.352V405.859
			L169.688,405.859z"/>
	</g>
	<g>
		<path fill="#00B1A6" d="M42.432,170.926c0,0-0.713,156.164,123.378,213.982c102.932,43.702,186.827-4.94,186.827-4.94
			s102.939-41.592,117.741-205.865L267.331,145.9L42.432,170.926z"/>
		<path fill="#2C2010" d="M254.116,407.011c-0.007,0-0.007,0-0.007,0c-30.646,0-60.865-6.233-89.821-18.526
			C128.095,371.62,79.683,335.255,53.9,257.458c-15.358-46.339-15.361-84.929-15.354-86.547c0.007-1.969,1.495-3.624,3.453-3.841
			l224.903-25.025c0.324-0.038,0.642-0.03,0.961,0.014l203.052,28.196c2.051,0.287,3.516,2.133,3.329,4.195
			c-7.74,85.917-39.831,138.112-65.393,166.774c-26.716,29.951-51.535,40.987-54.501,42.233
			C350.646,385.561,311.392,407.011,254.116,407.011z M46.398,174.394c0.888,23.095,10.824,155.635,121.052,206.995
			c27.867,11.831,57.062,17.856,86.659,17.861c56.757,0,96.192-22.417,96.581-22.643c0.156-0.092,0.324-0.17,0.487-0.237
			c1-0.406,99.394-42.222,114.986-198.934l-198.887-27.621L46.398,174.394z"/>
	</g>
	<g>
		<path fill="#097A70" d="M470.378,170.926c0,34.467-95.795,62.397-213.976,62.397c-118.174,0-213.971-27.931-213.971-62.397
			c0-34.456,95.797-62.394,213.971-62.394C374.583,108.532,470.378,136.47,470.378,170.926z"/>
		<path fill="#2C2010" d="M256.402,237.205c-122.162,0-217.856-29.113-217.856-66.279c0-37.159,95.694-66.272,217.856-66.272
			c122.164,0,217.859,29.113,217.859,66.272C474.263,208.092,378.566,237.205,256.402,237.205z M256.402,112.417
			c-125.671,0-210.093,30.253-210.093,58.509c0,28.259,84.422,58.516,210.093,58.516c125.676,0,210.094-30.257,210.094-58.516
			C466.496,142.671,382.078,112.417,256.402,112.417z"/>
	</g>
	<g>
		<path fill="#2C2010" d="M331.81,359.111c-1.474,0-2.875-0.836-3.526-2.252c-0.899-1.95-0.053-4.256,1.895-5.153
			c64.406-29.75,90.724-105.876,90.98-106.641c0.688-2.032,2.9-3.128,4.922-2.442c2.028,0.69,3.121,2.886,2.438,4.918
			c-1.092,3.255-27.584,80.033-95.085,111.208C332.905,358.996,332.35,359.111,331.81,359.111z"/>
	</g>
	<g>
		<path fill="#E7C971" d="M56.496,189.431c0,0-24.467-23.367,5.942-27.568c26.746-23.151,51.655-15.962,51.655-15.962
			s31.924-14.967,37.1-2.304c5.175,12.658,24.153-15.932,31.92-5.086c7.768,10.843,12.938,3.08,21.569,7.39
			c8.629,4.314,22.432-18.979,37.1-7.726c31.056-3.49,27.604,1.693,37.097,7.726c9.488,6.04,25.02-18.21,33.646,0
			c8.624,18.218,17.849-20.507,25.88,0c11.216-14.668,33.646-16.387,34.508,0c0.865,16.391,35.261-5.414,39.689,8.627
			c4.428,14.042,8.941-7.166,12.233,11.082c22.274-15.395,44.627-14.612,41.179,9.553c-14.561,31.051-74.963,41.01-74.963,41.01
			s-45.866,16.461-156.175,13.337C85.087,225.273,56.496,189.431,56.496,189.431z"/>
	</g>
	<g opacity="0.46">
		<path fill="#F7E8BA" d="M81.47,204.704c0,0-21.943-26.973-2.208-33.777c7.442-10.358,10.679-23.304,19.087-13.916
			c12.621-8.416,24.985-12.49,31.707-1.297c6.724,11.193,9.71-9.623,15.53,5.5c5.816,15.127,30.41-12.278,28.146,9.713
			c-2.267,21.991,5.176,33.318-12.292,36.227C143.967,210.065,112.544,221.556,81.47,204.704z"/>
	</g>
	<g opacity="0.76">
		<g>
			<path fill="#F7E8BA" d="M94.146,204.89c1.291,8.504,46.861,23.979,181.838,24.62c128.983-2.618,164.879-25.589,154.83-44.355
				c0,0-4.332-37.458-27.476-1.283c-10.724-12.953-38.297-10.339-41.742,0c0.389-23.304-23.352-31.733-27.948-19.754
				c-4.595,11.976-23.736,10.254-23.736,13.703c0,3.453-3.832,2.614-4.598,6.051c-0.765,3.441,0-26.738-15.315-12.945
				c-15.313,13.795-32.167,1.745-32.933,12.945c-0.765,11.208-16.077-11.201-16.845,0c-0.768,11.208-16.085-18.128-26.036-7.778
				c-9.956,10.358-16.086-14.665-23.744,1.727c-7.659,16.394-6.998,17.733-18.378,1.726c-6.126-8.62-12.256,9.232-19.146-0.865
				c-6.892-10.089-7.659-18.978-10.725-12.073c-3.058,6.897-19.142-15.511-22.968,4.318
				C115.392,190.762,89.896,176.907,94.146,204.89z"/>
		</g>
	</g>
	<g opacity="0.46">
		<path fill="#F7E8BA" d="M253.318,229.509c0,0-30.734-16.756-15.529-35.407c15.205-18.654,1.294-30.298,15.529-19.947
			c14.236,10.354,5.5-29.627,16.5-15.459c11.002,14.165,25.884-0.716,31.059,4.135s23.606-24.366,33.318,0.112
			c9.71,24.479,21.351,29.329,18.44,38.386c-2.908,9.061,11.003,4.329-9.378,12.356c6.47,4.467,11.339,9.001-13.266,13.4
			C299.914,227.973,253.318,229.509,253.318,229.509z"/>
	</g>
</g>
</svg>
