<?xml version="1.0" encoding="utf-8"?>
<!-- Generator: Adobe Illustrator 16.0.0, SVG Export Plug-In . SVG Version: 6.00 Build 0)  -->
<!DOCTYPE svg PUBLIC "-//W3C//DTD SVG 1.1//EN" "http://www.w3.org/Graphics/SVG/1.1/DTD/svg11.dtd">
<svg version="1.1" id="Layer_1" xmlns="http://www.w3.org/2000/svg" xmlns:xlink="http://www.w3.org/1999/xlink" x="0px" y="0px"
	 width="500px" height="500px" viewBox="0 0 500 500" enable-background="new 0 0 500 500" xml:space="preserve">
<g id="Layer_1_copy_54">
	<g>
		<g>
			<ellipse fill="#28479D" cx="244.38" cy="398.305" rx="188.58" ry="56.708"/>
			<path fill="#3C2517" d="M244.38,458.023c-107.437,0-191.591-26.232-191.591-59.719c0-33.494,84.154-59.723,191.591-59.723
				c107.437,0,191.59,26.229,191.59,59.723C435.97,431.791,351.815,458.023,244.38,458.023z M244.38,344.605
				c-100.59,0-185.569,24.594-185.569,53.699c0,29.106,84.979,53.693,185.569,53.693c100.589,0,185.569-24.587,185.569-53.693
				C429.949,369.199,344.969,344.605,244.38,344.605z"/>
		</g>
		<g>
			<path fill="#3F5BA9" d="M358.233,381.508c1.271,14.987-50.976,27.23-113.854,27.23c-62.88,0-113.854-12.189-113.854-27.23
				c0,0,2.06-86.341-20.525-219.59c-5.037-28.648-22.618-75.68-22.618-75.68l146.08-13.907l168.635,10.917
				C402.098,83.249,359.718,248.718,358.233,381.508z"/>
			<path fill="#3C2517" d="M244.38,411.75c-56.649,0-116.864-10.598-116.864-30.242c0.021-0.934,1.784-87.695-20.483-219.086
				c-4.929-28.028-22.293-74.663-22.468-75.132c-0.329-0.875-0.229-1.855,0.271-2.65c0.495-0.794,1.335-1.312,2.265-1.401
				l146.078-13.903c0.158-0.015,0.321-0.019,0.479-0.006L402.29,80.245c0.896,0.06,1.718,0.511,2.243,1.234
				c0.523,0.729,0.705,1.651,0.479,2.519c-0.426,1.651-42.305,166.646-43.77,297.545c0.238,2.643-0.866,5.475-3.297,8.119
				C345.999,402.667,299.304,411.75,244.38,411.75z M91.558,88.862c4.254,11.712,17.144,48.272,21.408,72.535
				c22.381,132.027,20.591,219.316,20.571,220.183c0,4.23,8.151,10.779,31.041,16.254c21.275,5.088,49.618,7.891,79.802,7.891
				c58.868,0,100.163-10.375,109.13-20.142c1.264-1.367,1.82-2.62,1.723-3.819c1.347-121.244,36.979-271.004,43.07-295.745
				L233.512,75.355L91.558,88.862z"/>
		</g>
		<g>
			<path fill="#E71F51" d="M361.364,329.335c-0.416,5.647-2.218,35.176-2.409,52.173c1.275,14.987-50.974,27.23-113.854,27.23
				c-62.876,0-113.85-12.189-113.85-27.23c0,0,0.396-16.593-1.06-46.451C130.192,335.057,245.856,382.066,361.364,329.335z"/>
			<path fill="#3C2517" d="M245.102,411.75c-56.65,0-116.864-10.598-116.864-30.242c0.009-0.24,0.379-16.926-1.056-46.306
				c-0.05-1.026,0.43-2.011,1.269-2.603c0.837-0.596,1.921-0.725,2.873-0.336c0.471,0.191,47.75,19.07,110.839,19.074
				c0.007,0,0.012,0,0.02,0c42.288,0,81.961-8.324,117.933-24.742c0.959-0.437,2.093-0.343,2.973,0.264
				c0.872,0.613,1.36,1.633,1.279,2.697c-0.438,5.942-2.213,35.146-2.4,51.984c0.241,2.643-0.868,5.475-3.299,8.119
				C346.724,402.667,300.023,411.75,245.102,411.75z M133.408,339.456c1.196,26.798,0.858,41.966,0.854,42.124
				c0,4.23,8.149,10.779,31.037,16.254c21.28,5.088,49.623,7.891,79.803,7.891c58.867,0,100.163-10.375,109.138-20.142
				c1.254-1.367,1.816-2.62,1.717-3.819c0.147-14.287,1.397-36.888,2.073-47.645c-35.532,15.425-74.48,23.244-115.848,23.244
				c-0.008,0-0.013,0-0.02,0C188.931,357.359,146.677,344.129,133.408,339.456z"/>
		</g>
		<g>
			<path fill="#28479D" d="M402.098,83.249c0,17.256-70.613,31.244-157.718,31.244c-87.102,0-157.718-13.988-157.718-31.244
				c0-17.254,70.616-31.239,157.718-31.239C331.483,52.01,402.098,65.994,402.098,83.249z"/>
			<path fill="#3C2517" d="M244.38,117.504c-77.916,0-160.729-12.004-160.729-34.255c0-22.25,82.812-34.25,160.729-34.25
				s160.729,12,160.729,34.25C405.107,105.5,322.296,117.504,244.38,117.504z M244.38,55.021
				c-99.613,0-154.703,16.69-154.703,28.228c0,11.54,55.09,28.233,154.703,28.233c99.612,0,154.702-16.694,154.702-28.233
				S343.992,55.021,244.38,55.021z"/>
		</g>
		<g>
			<polygon fill="#FFFFFF" points="178.51,237.935 172.86,265.791 140.488,265.791 164.958,294.4 165.333,327.145 190.933,311.335 
				218.404,333.545 207.872,298.539 228.947,276.264 195.823,271.814 			"/>
			<path fill="#3C2517" d="M218.404,336.557c-0.671,0-1.339-0.225-1.893-0.673l-25.815-20.864l-23.777,14.686
				c-0.928,0.576-2.086,0.602-3.037,0.078c-0.951-0.523-1.547-1.518-1.56-2.602l-0.367-31.656l-23.751-27.778
				c-0.769-0.89-0.943-2.146-0.447-3.214c0.487-1.068,1.56-1.752,2.731-1.752h29.911l5.158-25.446
				c0.251-1.253,1.271-2.21,2.54-2.381c1.254-0.169,2.511,0.473,3.093,1.614l16.597,32.475l31.56,4.24
				c1.122,0.146,2.063,0.912,2.438,1.979c0.376,1.065,0.123,2.256-0.649,3.076l-19.883,21.003l10.037,33.335
				c0.381,1.27-0.107,2.633-1.205,3.371C219.576,336.385,218.993,336.557,218.404,336.557z M190.933,308.323
				c0.668,0,1.338,0.227,1.894,0.672l19.887,16.075l-7.728-25.663c-0.309-1.034-0.046-2.152,0.693-2.939l17.038-18.002
				l-27.298-3.667c-0.976-0.135-1.825-0.738-2.275-1.613L179.75,246.98l-3.938,19.407c-0.284,1.406-1.519,2.415-2.952,2.415h-25.834
				l20.222,23.638c0.458,0.535,0.712,1.219,0.721,1.922l0.313,27.426l21.066-13.012
				C189.836,308.475,190.383,308.323,190.933,308.323z"/>
		</g>
		<g>
			<polygon fill="#FFFFFF" points="300.086,240.538 287.664,271.814 254.167,280.094 279.012,303.43 273.365,333.545 
				300.086,312.087 328.318,323.381 322.672,291.096 339.99,259.768 313.64,263.909 			"/>
			<path fill="#3C2517" d="M273.365,336.557c-0.538,0-1.075-0.144-1.549-0.431c-1.084-0.647-1.646-1.899-1.412-3.138l5.342-28.494
				l-23.639-22.207c-0.806-0.755-1.135-1.887-0.855-2.957c0.279-1.064,1.122-1.896,2.191-2.162l31.998-7.908l11.847-29.833
				c0.426-1.074,1.428-1.808,2.578-1.894c1.146-0.094,2.247,0.492,2.826,1.491l12.515,21.59l24.311-3.82
				c1.128-0.175,2.273,0.304,2.938,1.25c0.659,0.938,0.726,2.179,0.172,3.181l-16.802,30.402l5.357,30.655
				c0.139,0.342,0.208,0.711,0.208,1.1c0,1.664-1.351,3.011-3.01,3.011c-0.023,0-0.043,0-0.062,0c-0.376,0-0.755-0.07-1.118-0.213
				l-26.598-10.64l-25.356,20.354C274.704,336.333,274.033,336.557,273.365,336.557z M260.264,281.688l20.809,19.551
				c0.751,0.701,1.089,1.736,0.896,2.751l-4.144,22.116l20.382-16.365c0.847-0.68,1.989-0.85,2.998-0.447l23.22,9.288l-4.718-26.965
				c-0.12-0.677,0-1.373,0.329-1.974l14.337-25.946l-20.266,3.188c-1.231,0.193-2.452-0.389-3.073-1.463L300.6,247.416
				l-10.133,25.507c-0.359,0.902-1.131,1.58-2.078,1.812L260.264,281.688z"/>
		</g>
		<g>
			<polygon fill="#FFFFFF" points="370.477,112.126 357.679,141.2 329.071,151.364 345.636,171.686 334.72,200.672 355.044,182.229 
				370.477,192.016 373.111,159.642 387.04,134.801 372.356,134.801 			"/>
			<path fill="#3C2517" d="M334.72,203.683c-0.589,0-1.181-0.17-1.697-0.521c-1.146-0.782-1.614-2.248-1.121-3.551l10.308-27.364
				l-15.471-18.981c-0.618-0.761-0.831-1.774-0.562-2.714c0.262-0.943,0.967-1.7,1.889-2.027l27.387-9.729l12.271-27.881
				c0.555-1.259,1.875-1.986,3.257-1.759c1.355,0.232,2.385,1.353,2.497,2.725l1.655,19.909h11.91c1.067,0,2.056,0.563,2.598,1.487
				c0.537,0.924,0.551,2.064,0.029,2.995l-13.607,24.273l-2.579,31.713c-0.085,1.051-0.715,1.978-1.66,2.452
				c-0.946,0.469-2.068,0.411-2.951-0.152L355.364,186l-18.624,16.901C336.171,203.42,335.443,203.683,334.72,203.683z
				 M334.105,152.77l13.86,17.018c0.681,0.83,0.863,1.959,0.488,2.963l-6.525,17.307L353.021,180
				c0.998-0.913,2.496-1.037,3.635-0.313l11.226,7.118l2.229-27.405c0.032-0.431,0.167-0.851,0.38-1.226l11.41-20.36h-9.543
				c-1.564,0-2.868-1.201-2.998-2.767l-0.904-10.856l-8.02,18.221c-0.334,0.757-0.964,1.347-1.746,1.626L334.105,152.77z"/>
		</g>
		<g>
			<polygon fill="#FFFFFF" points="241.369,127.649 224.431,158.889 191.308,162.652 216.337,187.122 207.872,215.353 
				244.38,200.672 271.105,212.342 264.329,183.356 291.43,156.399 257.555,156.399 			"/>
			<path fill="#3C2517" d="M207.872,218.366c-0.742,0-1.469-0.273-2.031-0.79c-0.855-0.78-1.192-1.983-0.855-3.086l7.94-26.49
				l-23.724-23.192c-0.833-0.813-1.122-2.028-0.742-3.131c0.375-1.099,1.351-1.883,2.507-2.016l31.566-3.586l16.188-29.86
				c0.521-0.966,1.525-1.57,2.623-1.577c0.992-0.069,2.109,0.578,2.647,1.535l15.319,27.215h32.116c1.224,0,2.318,0.734,2.786,1.862
				c0.464,1.13,0.205,2.422-0.662,3.284l-25.908,25.773l6.394,27.349c0.258,1.107-0.13,2.271-1.011,3
				c-0.873,0.728-2.088,0.899-3.127,0.445l-25.569-11.164l-35.337,14.208C208.626,218.294,208.247,218.366,207.872,218.366z
				 M197.942,164.931l20.5,20.035c0.801,0.784,1.101,1.95,0.779,3.019l-6.672,22.241l30.708-12.35
				c0.747-0.298,1.59-0.29,2.332,0.038l21.216,9.262l-5.408-23.133c-0.236-1.014,0.066-2.083,0.81-2.821l21.926-21.811h-26.577
				c-1.086,0-2.091-0.584-2.625-1.53l-13.516-24.002l-14.34,26.446c-0.463,0.865-1.326,1.451-2.302,1.562L197.942,164.931z"/>
		</g>
		<g>
			<path fill="#FFFFFF" d="M98.854,119.695l16.418,26.775l29.357,3.764l-15.431,23.334l15.431,32.374l-25.971-16.188l-4.175,0.064
				C114.484,189.819,105.023,132.074,98.854,119.695z"/>
			<path fill="#3C2517" d="M144.63,208.954c-0.547,0-1.102-0.152-1.59-0.459l-25.225-15.717l-3.286,0.052
				c-1.472-0.01-2.775-1.055-3.019-2.527c-0.091-0.569-9.452-57.433-15.35-69.259c-0.722-1.444-0.175-3.2,1.234-3.98
				c1.405-0.782,3.186-0.312,4.024,1.059l15.663,25.542l27.93,3.583c1.033,0.133,1.923,0.785,2.356,1.732
				c0.435,0.946,0.346,2.049-0.227,2.915l-14.489,21.917l14.695,30.837c0.574,1.205,0.292,2.648-0.714,3.542
				C146.072,208.693,145.354,208.954,144.63,208.954z M118.659,186.744c0.562,0,1.118,0.161,1.592,0.455l17.227,10.738
				l-10.996-23.075c-0.454-0.949-0.375-2.071,0.208-2.955l12.765-19.307l-24.564-3.145c-0.906-0.116-1.707-0.633-2.187-1.413
				l-4.619-7.54c3.986,17.406,7.697,38.877,8.949,46.264l1.584-0.023C118.63,186.744,118.646,186.744,118.659,186.744z"/>
		</g>
		<g>
			<polygon fill="#FFFFFF" points="174.745,88.862 192.813,99.331 177.381,109.869 212.008,101.776 240.238,112.126 243.249,99.331 
				263.011,96.23 235.723,91.426 233.089,85.403 212.758,89.559 			"/>
			<path fill="#3C2517" d="M240.238,115.137c-0.35,0-0.701-0.056-1.033-0.181l-27.39-10.037l-33.752,7.885
				c-1.409,0.34-2.852-0.39-3.444-1.722c-0.578-1.327-0.137-2.879,1.06-3.697l11.489-7.845l-13.936-8.071
				c-1.185-0.691-1.757-2.092-1.391-3.416c0.369-1.322,1.465-2.202,2.958-2.202l37.684,0.692l19.998-4.089
				c1.39-0.293,2.795,0.44,3.362,1.742l1.994,4.543l25.699,4.528c1.45,0.251,2.501,1.521,2.485,2.992
				c-0.014,1.471-1.094,2.717-2.539,2.945l-17.766,2.789l-2.548,10.825c-0.196,0.84-0.742,1.552-1.506,1.962
				C241.224,115.022,240.735,115.137,240.238,115.137z M212.008,98.766c0.354,0,0.705,0.063,1.035,0.186l25.043,9.182l2.232-9.491
				c0.278-1.193,1.255-2.096,2.465-2.286l1.893-0.298l-9.475-1.666c-0.992-0.175-1.83-0.836-2.238-1.76l-1.656-3.791l-17.944,3.671
				c-0.215,0.042-0.437,0.052-0.658,0.056l-26.387-0.485l8.005,4.637c0.894,0.521,1.46,1.463,1.501,2.498
				c0.035,1.032-0.458,2.016-1.312,2.599l-2.131,1.455l18.945-4.427C211.549,98.795,211.779,98.766,212.008,98.766z"/>
		</g>
		<g>
			<polygon fill="#FFFFFF" points="269.788,66.743 287.855,77.211 272.424,87.749 307.054,79.657 335.281,90.006 338.292,77.211 
				358.054,74.11 330.765,69.307 328.131,63.283 307.806,67.439 			"/>
			<path fill="#3C2517" d="M335.281,93.018c-0.352,0-0.7-0.056-1.034-0.182l-27.388-10.041l-33.754,7.885
				c-1.422,0.336-2.854-0.39-3.438-1.72c-0.584-1.324-0.142-2.882,1.06-3.699l11.483-7.842l-13.933-8.071
				c-1.185-0.689-1.76-2.095-1.393-3.415c0.362-1.304,1.553-2.202,2.902-2.202c0.016,0,0.037,0,0.054,0l37.686,0.692l20.003-4.091
				c1.389-0.296,2.789,0.441,3.357,1.743l1.993,4.539l25.699,4.529c1.45,0.255,2.502,1.52,2.484,2.994
				c-0.013,1.473-1.089,2.719-2.539,2.947l-17.766,2.79l-2.547,10.823c-0.197,0.842-0.743,1.554-1.502,1.964
				C336.271,92.899,335.779,93.018,335.281,93.018z M307.054,76.646c0.353,0,0.701,0.063,1.035,0.182l25.041,9.185l2.235-9.488
				c0.278-1.192,1.251-2.1,2.459-2.29l1.895-0.294l-9.475-1.67c-0.992-0.176-1.834-0.834-2.239-1.76l-1.654-3.791l-17.945,3.672
				c-0.21,0.046-0.438,0.063-0.653,0.06l-26.393-0.488l8.008,4.64c0.892,0.517,1.458,1.461,1.496,2.498
				c0.037,1.032-0.455,2.012-1.313,2.598l-2.127,1.454l18.945-4.429C306.593,76.67,306.821,76.646,307.054,76.646z"/>
		</g>
		<g>
			<polygon fill="#FFFFFF" points="144.63,59.051 155.737,65.934 140.306,76.473 174.933,68.383 203.163,78.733 206.175,65.934 
				225.937,62.837 198.647,58.033 196.011,53.817 175.683,56.165 			"/>
			<path fill="#3C2517" d="M203.163,81.745c-0.35,0-0.701-0.062-1.037-0.185L174.74,71.521l-33.752,7.886
				c-1.405,0.339-2.856-0.393-3.444-1.723c-0.578-1.322-0.137-2.879,1.06-3.697l11.618-7.927l-7.182-4.447
				c-1.096-0.682-1.638-1.994-1.34-3.252c0.294-1.26,1.366-2.188,2.654-2.308l31.053-2.884l20.259-2.344
				c1.138-0.154,2.28,0.405,2.898,1.393l1.922,3.08l25.976,4.573c1.445,0.252,2.497,1.52,2.485,2.992
				c-0.013,1.471-1.088,2.721-2.549,2.948l-17.755,2.788l-2.549,10.823c-0.195,0.843-0.746,1.551-1.505,1.964
				C204.147,81.625,203.659,81.745,203.163,81.745z M174.933,65.371c0.35,0,0.7,0.06,1.034,0.184l25.045,9.182l2.231-9.489
				c0.278-1.197,1.255-2.098,2.464-2.288l1.891-0.293l-9.475-1.67c-0.844-0.15-1.577-0.646-2.031-1.368l-1.622-2.602l-18.436,2.131
				l-22.189,2.062l3.478,2.158c0.868,0.537,1.4,1.472,1.427,2.494c0.021,1.018-0.476,1.975-1.314,2.552l-2.13,1.454l18.944-4.426
				C174.474,65.397,174.703,65.371,174.933,65.371z"/>
		</g>
	</g>
</g>
</svg>
