<?xml version="1.0" encoding="utf-8"?>
<!-- Generator: Adobe Illustrator 16.0.0, SVG Export Plug-In . SVG Version: 6.00 Build 0)  -->
<!DOCTYPE svg PUBLIC "-//W3C//DTD SVG 1.1//EN" "http://www.w3.org/Graphics/SVG/1.1/DTD/svg11.dtd">
<svg version="1.1" id="Layer_1" xmlns="http://www.w3.org/2000/svg" xmlns:xlink="http://www.w3.org/1999/xlink" x="0px" y="0px"
	 width="500px" height="500px" viewBox="0 0 500 500" enable-background="new 0 0 500 500" xml:space="preserve">
<g id="Layer_1_copy_98">
	<g>
		<path fill="#BDBEC0" d="M471.918,347.775c0,31.309-97.14,56.689-216.963,56.689c-119.828,0-216.963-25.382-216.963-56.689
			c0-31.317,97.135-56.696,216.963-56.696C374.778,291.079,471.918,316.458,471.918,347.775z"/>
		<path fill="#3C2517" d="M254.955,407.021C131.859,407.021,35.44,381,35.44,347.775c0-33.229,96.419-59.254,219.515-59.254
			c123.096,0,219.515,26.025,219.515,59.254C474.47,381,378.051,407.021,254.955,407.021z M254.955,293.635
			c-57.744,0-112,5.868-152.769,16.521c-39.172,10.234-61.637,23.945-61.637,37.619c0,13.668,22.465,27.377,61.637,37.613
			c40.769,10.653,95.028,16.523,152.769,16.523s111.996-5.87,152.769-16.523c39.173-10.236,61.638-23.945,61.638-37.613
			c0-13.674-22.465-27.385-61.638-37.619C366.955,299.503,312.695,293.635,254.955,293.635z"/>
	</g>
	<g>
		<path fill="#F2D1A1" d="M108.579,252.339L78.871,332.5c0,34.184,81.347,47.105,177.121,47.105
			c95.775,0,175.471-16.336,175.471-50.514l-26.493-76.754l-230.743-10.922L108.579,252.339z"/>
		<path fill="#3C2517" d="M255.992,382.163c-67.097,0-179.676-6.455-179.676-49.662c0-0.302,0.057-0.604,0.161-0.89l29.708-80.163
			c0.314-0.855,1.067-1.482,1.973-1.627l65.648-10.926c0.183-0.028,0.36-0.039,0.542-0.028l230.743,10.919
			c1.041,0.049,1.95,0.729,2.295,1.719l26.491,76.759c0.091,0.269,0.141,0.549,0.141,0.83
			C434.019,368.223,342.058,382.163,255.992,382.163z M81.437,332.945c0.688,27.627,65.833,44.104,174.556,44.104
			c104.543,0,172.271-18.645,172.914-47.542l-25.787-74.701l-228.741-10.824l-63.916,10.63L81.437,332.945z"/>
	</g>
	<g>
		<path fill="#DBC2A7" d="M404.97,252.339c0,21.397-66.348,38.739-148.196,38.739c-81.845,0-148.193-17.342-148.193-38.739
			c0-21.396,66.349-38.737,148.193-38.737C338.622,213.602,404.97,230.943,404.97,252.339z"/>
		<path fill="#3C2517" d="M256.771,293.635c-74.101,0-150.746-15.447-150.746-41.296c0-25.85,76.646-41.293,150.746-41.293
			c74.104,0,150.751,15.443,150.751,41.293C407.522,278.188,330.877,293.635,256.771,293.635z M256.771,216.155
			c-87.115,0-145.638,18.709-145.638,36.185c0,17.475,58.521,36.184,145.638,36.184c87.117,0,145.644-18.709,145.644-36.184
			C402.415,234.864,343.89,216.155,256.771,216.155z"/>
	</g>
	<g>
		<path fill="#AA602D" d="M405.202,252.339c0-21.396-66.35-38.737-148.198-38.737c-81.853,0-148.205,17.341-148.205,38.737
			c0,0,3.984,10.806,3.026,16.871c-0.959,6.069,5.585,6.71,11.975,8.308c6.39,1.596,15.384-1.443,20.345,0
			c4.955,1.44,16.065,5.906,23.73,8.623c7.665,2.715,22.834,10.856,41.356,7.822c18.524-3.033,18.364,0.639,27.466,1.596
			c9.104,0.961,44.712,2.236,50.784,0c6.064-2.233,32.892,0,43.271-3.193c10.381-3.191,23.474,0,31.616-5.109
			c8.149-5.107,8.083-8.486,15.334-11.975c7.25-3.489,14.12-8.852,20.15-11.053C403.893,262.023,405.202,252.339,405.202,252.339z"
			/>
		<path fill="#3C2517" d="M268.994,299.357L268.994,299.357c-12.156,0-26.92-0.662-32.563-1.26
			c-3.024-0.312-5.149-0.927-7.028-1.464c-2.416-0.694-4.503-1.293-8.327-1.293c-2.989,0-6.727,0.373-11.427,1.146
			c-2.844,0.464-5.76,0.699-8.676,0.699c-12.438,0-22.89-4.226-29.806-7.021c-1.561-0.629-2.946-1.192-4.147-1.617
			c-3.014-1.071-6.556-2.405-10.055-3.726c-5.219-1.969-10.615-4.004-13.536-4.852c-1.665-0.49-4.851-0.252-8.26,0.104
			c-4.177,0.434-8.764,0.726-11.99-0.078c-0.761-0.193-1.53-0.372-2.284-0.544c-5.404-1.249-12.809-2.959-11.596-10.64
			c0.7-4.428-1.853-12.758-2.897-15.59c-0.098-0.283-0.154-0.585-0.154-0.885c0-25.85,76.648-41.293,150.757-41.293
			c74.105,0,150.754,15.443,150.754,41.293c0,0.112-0.009,0.229-0.021,0.34c-0.065,0.46-1.605,11.248-9.006,13.947
			c-3.121,1.139-6.621,3.273-10.324,5.533c-3.079,1.878-6.27,3.822-9.598,5.422c-3.42,1.645-4.966,3.206-6.928,5.184
			c-1.896,1.908-4.044,4.076-8.151,6.654c-5.192,3.262-11.949,3.51-18.482,3.75c-4.703,0.176-9.565,0.354-13.74,1.641
			c-5.995,1.842-16.759,1.977-26.253,2.098c-7.143,0.091-14.53,0.183-16.891,1.052C287.423,298.307,284.562,299.357,268.994,299.357
			z M221.075,290.23c4.548,0,7.184,0.762,9.736,1.492c1.837,0.525,3.571,1.025,6.155,1.301c5.517,0.574,20.026,1.226,32.027,1.226
			c13.596,0,16.909-0.829,17.604-1.087c3.024-1.116,9.039-1.246,18.595-1.364c9.148-0.112,19.519-0.245,24.81-1.875
			c4.821-1.483,10.021-1.672,15.055-1.856c6.127-0.228,11.917-0.44,15.954-2.971c3.609-2.267,5.459-4.131,7.241-5.934
			c2.121-2.141,4.129-4.157,8.344-6.186c3.099-1.488,6.173-3.367,9.149-5.182c3.925-2.391,7.633-4.656,11.232-5.971
			c3.642-1.325,5.295-7.26,5.666-9.659c-0.383-17.425-58.809-36.011-145.642-36.011c-86.432,0-144.721,18.414-145.642,35.767
			c0.853,2.392,3.932,11.688,2.988,17.688c-0.395,2.478,0.902,3.295,7.695,4.861c0.785,0.182,1.58,0.367,2.374,0.564
			c2.497,0.628,6.484,0.342,10.219-0.045c3.98-0.413,7.715-0.653,10.218,0.07c3.113,0.907,8.359,2.885,13.914,4.979
			c3.462,1.31,6.973,2.63,9.958,3.688c1.26,0.448,2.715,1.033,4.355,1.696c6.547,2.648,16.44,6.646,27.889,6.646
			c2.639,0,5.283-0.211,7.847-0.633C213.799,290.629,217.806,290.23,221.075,290.23z"/>
	</g>
	<g>
		<path fill="#A8AAAD" d="M404.485,109.425c6.188-8.082,12.868-19.165,29.74-12.142c2.201,0.92,12.265,6.866,13.972,8.506
			c11.976,11.471-0.945,22.055-7.153,31.385c-5.961,7.208-92.062,121.771-92.062,121.771s-26.313,3.269-31.216-3.745
			C318.406,253.084,398.294,117.509,404.485,109.425z"/>
		<path fill="#3C2517" d="M335.956,262.26c-11.017,0-17.656-1.83-20.288-5.594c-0.442-0.645-0.572-1.454-0.344-2.2
			c1.062-3.539,82.5-140.543,87.137-146.593l1.271-1.691c4.578-6.098,10.278-13.686,20.621-13.686c3.335,0,6.984,0.816,10.854,2.428
			c2.206,0.917,12.677,7.026,14.759,9.018c11.446,10.97,3.091,21.708-3.011,29.546c-1.386,1.788-2.696,3.473-3.783,5.104
			c-0.049,0.072-0.102,0.146-0.158,0.214c-5.854,7.076-91.129,120.532-91.99,121.672c-0.417,0.556-1.038,0.918-1.728,1
			C349.037,261.512,342.928,262.26,335.956,262.26z M320.925,254.676c1.689,1.069,5.686,2.475,15.031,2.475
			c4.996,0,9.628-0.41,11.646-0.623c8.561-11.395,85.023-113.092,91.39-120.876c1.176-1.752,2.576-3.553,3.936-5.299
			c7.23-9.297,11.074-15.464,3.507-22.719c-1.371-1.307-11.093-7.119-13.189-7.993c-3.245-1.346-6.234-2.033-8.889-2.033
			c-7.79,0-12.235,5.92-16.534,11.644l-1.304,1.729C400.877,118.344,329.545,239.142,320.925,254.676z"/>
	</g>
	<g>
		<path fill="#3C2517" d="M339.418,262.635c-22.52,0-30.946-9.832-31.396-10.373c-0.896-1.091-0.741-2.702,0.349-3.6
			c1.087-0.89,2.685-0.741,3.583,0.333c0.193,0.226,13.3,14.835,51.606,5.228c1.368-0.326,2.756,0.488,3.1,1.856
			c0.345,1.369-0.488,2.76-1.859,3.101C354.851,261.677,346.447,262.635,339.418,262.635z"/>
	</g>
</g>
</svg>
