<?xml version="1.0" encoding="utf-8"?>
<!-- Generator: Adobe Illustrator 16.0.0, SVG Export Plug-In . SVG Version: 6.00 Build 0)  -->
<!DOCTYPE svg PUBLIC "-//W3C//DTD SVG 1.1//EN" "http://www.w3.org/Graphics/SVG/1.1/DTD/svg11.dtd">
<svg version="1.1" id="Layer_1" xmlns="http://www.w3.org/2000/svg" xmlns:xlink="http://www.w3.org/1999/xlink" x="0px" y="0px"
	 width="500px" height="500px" viewBox="0 0 500 500" enable-background="new 0 0 500 500" xml:space="preserve">
<g id="Layer_1_copy_60">
	<g>
		<path fill="#F8F2F8" d="M316.616,116.513c0,0-30.859-79.462-71.573-53.192c-40.718,26.266,19.795,50.267,35.784,57.131
			c20.437,8.774,56.81,48.599-16.083,59.762c0,0-181.375,14.743-176.12,154.617c1.342,51.235,27.046,85.737,27.046,85.737
			s-30.268-35.211-45.272,6.403c-0.464,1.292-1.291,7.808-0.98,9.42c5.589,29.021,65.169,7.354,71.211,1.248
			c0,0,5.061,8.516,7.881,9.194c2.818,0.679,139.873,0,139.873,0s2.635-28.702-33.748-25.523c-0.738,0.064-3.259,0.445-4.771,1.068
			c-4.963,2.048-16.611,5.021-25.18-7.068c38.75-16.412,40.712-47.935,40.712-47.935s40.222,63.562,45.318,78.806h42.679
			c0,0,0-16.419-21.671-26.922c-21.668-10.514-20.354-39.404-11.817-62.391c8.539-22.993,50.567-72.899,41.377-106.384
			c-9.201-33.496,10.685-31.938,19.699-33.496c9.858-1.704,70.267-3.284,45.97-44.656c-24.299-41.374-90.625-46.625-90.625-46.625
			s13.359-125.944-38.808-87.991c-0.839,0.611-3.083,2.455-3.755,3.564c-2.281,3.759-6.418,14.586,1.184,37.235"/>
		<path fill="#27140E" d="M93.337,455.145c-4.49,0-8.748-0.485-12.486-1.623c-8.5-2.581-13.813-8.242-15.378-16.371
			c-0.486-2.542,0.508-9.771,1.146-11.542c4.82-13.367,11.823-20.984,20.814-22.642c5.104-0.943,10.132,0.233,14.612,2.278
			c-7.58-15.365-16.643-39.873-17.438-70.312c-2.209-58.877,28.353-105.056,88.389-133.497
			c44.01-20.849,87.895-24.929,91.277-25.217c24.384-3.754,38.511-11.336,39.79-21.354c1.478-11.615-13.708-25.955-24.818-30.721
			l-1.995-0.851c-23.908-10.164-48.542-22.846-50.002-39.867c-0.721-8.432,4.533-16.333,15.617-23.483
			c9.365-6.047,19.051-7.514,28.771-4.36c5.635,1.828,10.887,5.114,15.704,9.238c-2.225-13.884,0.646-21.764,2.986-25.627
			c1.305-2.153,4.789-4.702,4.823-4.727c11.233-8.167,20.888-10.021,28.706-5.505c22.23,12.841,18.418,75.334,16.85,93.181
			c6.2,0.791,18.8,2.827,33.08,7.545c26.61,8.795,46.192,22.837,56.628,40.607c6.689,11.395,8.033,21.266,3.99,29.34
			c-8.153,16.282-35.317,19.314-48.368,20.77c-1.887,0.211-3.396,0.373-4.372,0.543c-0.991,0.173-2.104,0.309-3.292,0.452
			c-4.951,0.608-10.562,1.291-13.357,5.458c-2.85,4.254-2.801,11.841,0.142,22.559c6.924,25.219-12.216,57.314-27.591,83.109
			c-6.166,10.341-11.491,19.271-13.895,25.742c-7.64,20.566-9.657,47.932,9.807,57.375c23.663,11.467,23.936,29.761,23.936,30.537
			c0,2.218-1.803,4.017-4.021,4.017h-42.679c-1.73,0-3.262-1.105-3.812-2.744c-3.81-11.394-28.74-52.021-39.723-69.661
			c-3.537,10.673-12.637,27.428-35.89,38.911c5.728,4.928,12.236,3.938,17.046,1.96c2.081-0.859,5.064-1.273,5.941-1.354
			c13.494-1.186,23.69,1.625,30.357,8.317c8.807,8.844,7.797,21.06,7.747,21.572c-0.188,2.062-1.911,3.643-3.979,3.653
			c-62.75,0.31-138.117,0.542-140.837-0.113c-2.757-0.663-5.684-3.959-8.115-7.479C130.381,448.323,110.18,455.141,93.337,455.145z
			 M91.063,410.68c-0.739,0-1.471,0.061-2.191,0.195c-5.97,1.105-10.917,6.98-14.692,17.461c-0.323,1.094-0.929,6.203-0.8,7.392
			c0.993,5.133,4.111,8.376,9.801,10.104c18.4,5.589,51.435-7.825,54.592-11.016c0.871-0.888,2.109-1.313,3.341-1.163
			c1.237,0.152,2.33,0.864,2.969,1.938c1.84,3.088,4.336,6.393,5.502,7.309c7.825,0.396,82.512,0.19,134.638-0.062
			c-0.398-3.202-1.645-7.916-5.341-11.597c-4.913-4.889-12.946-6.876-23.897-5.93c-0.625,0.058-2.662,0.4-3.586,0.78
			c-11.633,4.798-22.847,1.629-29.996-8.458c-0.7-0.994-0.916-2.255-0.584-3.425c0.331-1.168,1.177-2.127,2.297-2.599
			c36.045-15.266,38.255-44.196,38.274-44.488c0.104-1.736,1.321-3.204,3.012-3.643c1.674-0.422,3.461,0.274,4.39,1.746
			c1.569,2.479,36.645,57.984,44.674,76.935h35.151c-1.482-4.837-5.835-13.081-18.646-19.288
			c-24.312-11.793-22.645-43.682-13.828-67.402c2.655-7.156,8.154-16.382,14.52-27.062c14.599-24.479,32.76-54.946,26.746-76.863
			c-3.641-13.252-3.335-22.793,0.935-29.159c4.848-7.225,13.399-8.27,19.061-8.96c1.045-0.126,2.024-0.245,2.896-0.396
			c1.086-0.187,2.756-0.377,4.846-0.611c10.737-1.199,35.88-4.005,42.078-16.382c2.745-5.481,1.49-12.773-3.736-21.669
			c-22.971-39.114-86.833-44.603-87.476-44.654c-1.079-0.085-2.083-0.605-2.775-1.437c-0.69-0.835-1.019-1.914-0.9-2.993
			c2.277-21.531,4.479-79.562-12.494-89.362c-4.815-2.777-11.532-1.081-19.953,5.045c-0.868,0.632-2.365,1.953-2.715,2.443
			c-1.442,2.38-5.649,11.9,1.414,33.299c13.301,16.82,21.272,37.041,21.781,38.349c0.803,2.066-0.222,4.394-2.293,5.198
			c-2.06,0.802-4.395-0.221-5.2-2.289c-0.182-0.464-18.357-46.521-43.725-54.74c-7.414-2.402-14.59-1.269-21.928,3.469
			c-8.386,5.412-12.414,10.81-11.966,16.042c1.241,14.5,34.284,28.542,45.137,33.158l2.025,0.861
			c13.754,5.905,31.697,22.788,29.614,39.124c-1.821,14.315-17.527,23.84-46.675,28.303c-0.094,0.014-0.188,0.025-0.282,0.034
			c-0.449,0.036-45.308,3.903-88.826,24.569c-57.59,27.346-85.719,69.705-83.606,125.89c1.294,49.438,26.003,83.15,26.254,83.486
			c1.291,1.734,0.978,4.178-0.708,5.532c-1.689,1.353-4.145,1.13-5.559-0.506C109.433,419.497,99.812,410.68,91.063,410.68z"/>
	</g>
	<g>
		<path fill="#818181" d="M380.544,167.08c0,5.198-4.219,9.413-9.417,9.413c-5.196,0-9.415-4.215-9.415-9.413
			c0-5.2,4.219-9.416,9.415-9.416C376.325,157.664,380.544,161.879,380.544,167.08z"/>
		<path fill="#27140E" d="M371.127,179.171c-6.671,0-12.094-5.425-12.094-12.092c0-6.669,5.423-12.094,12.094-12.094
			c6.667,0,12.095,5.425,12.095,12.094C383.222,173.747,377.794,179.171,371.127,179.171z M371.127,160.342
			c-3.714,0-6.737,3.023-6.737,6.737c0,3.713,3.023,6.735,6.737,6.735c3.715,0,6.736-3.022,6.736-6.735
			S374.842,160.342,371.127,160.342z"/>
	</g>
	<g>
		<path fill="#27140E" d="M432.571,193.352c-0.128,0-0.262-0.006-0.394-0.019c-19.979-1.931-21.275-11.23-20.902-15.137
			c-0.011-2.17-0.011-2.423,12.609-10.654c1.86-1.212,4.347-0.688,5.562,1.171c1.211,1.859,0.687,4.351-1.172,5.561
			c-3.164,2.066-6.812,4.513-8.77,5.91c1.012,2.161,5.243,4.357,13.447,5.151c2.207,0.213,3.825,2.178,3.614,4.386
			C436.365,191.798,434.615,193.352,432.571,193.352z"/>
	</g>
	<g>
		<path fill="#CDA3CB" d="M424.751,176.455c0,0,3.411,6.575,3.453,8.293c0.042,1.721-8.478-3.223-9.11-4.428
			C418.467,179.117,424.751,176.455,424.751,176.455z"/>
	</g>
</g>
</svg>
