<svg id="remidial_therapy" data-name="remidial therapy" xmlns="http://www.w3.org/2000/svg" viewBox="0 0 300 300"><defs><style>.cls-1,.cls-4{fill:#f0a985;}.cls-1,.cls-19{stroke:#200f0f;stroke-miterlimit:10;}.cls-1,.cls-15,.cls-17,.cls-19,.cls-8{stroke-width:1.17px;}.cls-15,.cls-2{fill:#d6df27;}.cls-3{fill:#200f0f;}.cls-5{fill:#1e75bb;}.cls-6{fill:#3c2417;}.cls-7{fill:#603b17;}.cls-8{fill:#8c930b;}.cls-15,.cls-17,.cls-8{stroke:#3c2415;stroke-linejoin:round;}.cls-9{fill:#2f368f;}.cls-10{fill:#ee4237;}.cls-11{fill:#e9b68b;}.cls-12{fill:#006938;}.cls-13{fill:#8cc640;}.cls-14{fill:#f1f2f2;}.cls-16{fill:#ce382d;}.cls-17{fill:#a3a83c;}.cls-18{fill:#d1d3d4;}.cls-19{fill:#2b3990;}</style></defs><title>remidal therapy</title><path class="cls-1" d="M103.08,137.44s.37,8.78,4.66,8.78c3.36,0,15.83-10.67,15.83-10.67l1.81,11.16s-17.44,17.83-24.07,7.4a68.55,68.55,0,0,1-8.63-19.05Z"/><path class="cls-2" d="M184,124.68s10.88,2.1,11.64,12.22v4.68h-4.77s2.68,6.48-.67,11.45-12.5,9.73-12.78,9.54S165.88,157,165.88,157s-1.23-12.12,0-17.09,2.17-14.7,12-16A15.82,15.82,0,0,1,184,124.68Z"/><path class="cls-3" d="M177.46,163.16a.6.6,0,0,1-.34-.11c-.36-.2-7.06-3.4-11.48-5.49a.56.56,0,0,1-.32-.46c-.06-.5-1.24-12.28,0-17.28.14-.56.27-1.17.42-1.83,1.16-5.33,2.93-13.4,12-14.64a15.85,15.85,0,0,1,6.44.79h0s11.24,2.28,12,12.72v4.72a.58.58,0,0,1-.58.57h-3.95c.61,1.94,1.8,7-1,11.2C187.35,158.33,178.38,163.16,177.46,163.16Zm-11-6.5c3.22,1.53,9.75,4.64,11.09,5.31,1.37-.48,9.25-4.83,12.23-9.26,3.12-4.65.64-10.85.61-10.92a.58.58,0,0,1,.53-.79h4.2v-4.1c-.72-9.51-10.75-11.57-11.18-11.65a15.3,15.3,0,0,0-6-.76c-8.28,1.13-9.88,8.42-11,13.75-.15.66-.28,1.29-.43,1.85C165.35,144.46,166.24,154.71,166.43,156.66Z"/><path class="cls-4" d="M184.55,121.6a11.81,11.81,0,0,0-1.2,4.14c-.19,2.28-2.93,2.28-4.71,1s0-4.7,0-4.7S184.4,114.79,184.55,121.6Z"/><path class="cls-3" d="M181.21,128.17a5,5,0,0,1-2.91-1c-2.15-1.61-.25-5.27-.17-5.42.35-.46,3-3.63,4.91-3.63.92,0,2,.6,2.08,3.48a.53.53,0,0,1-.07.28,11.72,11.72,0,0,0-1.13,3.93A2.5,2.5,0,0,1,181.21,128.17Zm-2.12-5.82s-1.43,2.88-.1,3.88a3.88,3.88,0,0,0,2.22.79,1.38,1.38,0,0,0,1.57-1.32,12.25,12.25,0,0,1,1.19-4.23c0-.89-.2-2.23-.93-2.23-1.07,0-3,1.91-3.95,3.11Z"/><path class="cls-4" d="M165.22,92.52s-.38,6.81-2.29,8.18-10.31,15.49,3.82,19.11S187.91,121,187.91,121s14.34,6.3,9.76-12.22-7.83-22.52-7.83-22.52S165.48,90,165.22,92.52Z"/><path class="cls-3" d="M192.75,122.57a14.13,14.13,0,0,1-4.87-1,25.46,25.46,0,0,1-7,.79h0a58,58,0,0,1-14.25-2c-4.81-1.23-7.6-3.76-8.3-7.5-1-5.36,2.88-11.63,4.29-12.64,1.23-.88,1.91-5.22,2.06-7.75.11-1.13,3.53-3.49,25.1-6.83a.59.59,0,0,1,.54.21c.13.16,3.38,4.32,7.94,22.75,1.38,5.6,1.19,9.59-.57,11.85A5.89,5.89,0,0,1,192.75,122.57Zm-4.84-2.18a.67.67,0,0,1,.24,0,13.08,13.08,0,0,0,4.6,1,4.77,4.77,0,0,0,4-1.67c1.54-2,1.66-5.62.36-10.87-3.89-15.73-6.8-20.9-7.53-22-11.28,1.76-23.18,4.38-23.8,5.77,0,.66-.45,7.07-2.52,8.55-1.13.81-4.75,6.59-3.83,11.5.61,3.26,3.12,5.48,7.46,6.6a56.64,56.64,0,0,0,14,2h0a23.08,23.08,0,0,0,6.87-.8A.63.63,0,0,1,187.91,120.39Z"/><path class="cls-5" d="M187,153.7s11.87-4.58,13.68,2.48-9.35,10.5-17.28,11.45a69,69,0,0,1-15.27,0s-17.47-4.77-14.7-17,12.79,1.24,12.79,1.24S182.9,154.18,187,153.7Z"/><path class="cls-3" d="M175.87,168.63a66.43,66.43,0,0,1-7.86-.43c-.26-.06-18-5.08-15.19-17.68.84-3.7,2.44-5.58,4.75-5.58,3.75,0,8.05,5.3,8.91,6.41,1.84.25,13.91,1.84,19,1.84a11.85,11.85,0,0,0,1.32-.06,24.45,24.45,0,0,1,7.54-1.47c3.74,0,6.1,1.52,6.83,4.38a6,6,0,0,1-.89,5.08c-3.48,5.11-13.79,6.71-16.87,7.08A62.3,62.3,0,0,1,175.87,168.63Zm-7.64-1.55a70.75,70.75,0,0,0,7.64.4,62.22,62.22,0,0,0,7.42-.42c6.08-.73,13.5-2.85,16.06-6.59a4.86,4.86,0,0,0,.72-4.15c-.59-2.33-2.52-3.51-5.72-3.51a23.67,23.67,0,0,0-7.2,1.42l-.14,0a12.6,12.6,0,0,1-1.52.07c-5.57,0-18.83-1.81-19.39-1.89a.57.57,0,0,1-.39-.22c0-.06-4.61-6.14-8.14-6.14-1.7,0-2.92,1.58-3.63,4.68-2.61,11.53,14.11,16.26,14.29,16.31Z"/><path class="cls-6" d="M188.89,96.14s-20.43-.38-23.67-3.62,2.67-12.52,20-13.9S216.19,90,209.88,103.26s-12.63,23-22,18.47c3.08-1.92,6.71-4.59,6.71-4.59s-1.15-5.91-4.4-4.39S185.26,104.16,188.89,96.14Z"/><path class="cls-3" d="M192.45,123.45a10.89,10.89,0,0,1-4.79-1.21.57.57,0,0,1-.32-.49.58.58,0,0,1,.27-.52c2.51-1.55,5.43-3.65,6.36-4.33-.32-1.33-1.23-3.83-2.71-3.83a1.88,1.88,0,0,0-.79.2,2.07,2.07,0,0,1-.89.21,2.33,2.33,0,0,1-1.94-1.26c-1.77-2.74-2-9.64.39-15.52-4.25-.11-20.18-.74-23.22-3.78a4,4,0,0,1-.66-4.41C165.81,84,173,79,185.21,78.05c.88-.07,1.76-.1,2.63-.1,9.34,0,17.67,4,21.75,10.43a15.26,15.26,0,0,1,.82,15.13c-5.67,12-10.89,19.93-18,19.94Zm-3.32-1.82a9.23,9.23,0,0,0,3.32.67h0c6.85,0,12.18-9.27,16.92-19.29a14.14,14.14,0,0,0-.75-14c-3.87-6.1-11.83-9.89-20.78-9.89-.83,0-1.69,0-2.53.1-11.75.93-18.55,5.54-20.08,9.7a2.92,2.92,0,0,0,.39,3.21c2.53,2.53,17.66,3.35,23.28,3.46a.57.57,0,0,1,.51.81c-2.71,6-2.3,12.91-.8,15.22.28.43.76.92,1.37.63a3,3,0,0,1,1.28-.31c2.9,0,3.88,4.91,3.92,5.11a.59.59,0,0,1-.22.57S192,119.81,189.13,121.63Z"/><path class="cls-4" d="M195.72,137.19s2.67,10.69,2,12.21-12.69,8.1-15,8.78c-2.68.8-3.63,1.34-6.11.48s-1.63-2.77,1.65-4.1c2.54-1,13.24-5.63,13.24-5.63L190,138Z"/><path class="cls-3" d="M178.86,159.67a7.53,7.53,0,0,1-2.42-.46c-1.55-.54-1.81-1.43-1.82-1.9,0-1.18,1.22-2.38,3.45-3.28s10.85-4.61,12.82-5.46L189.42,138a.57.57,0,0,1,.49-.65l5.73-.76a.56.56,0,0,1,.63.43c.64,2.55,2.67,11,2,12.58-.84,1.91-13.3,8.5-15.35,9.1l-1,.3A10.22,10.22,0,0,1,178.86,159.67Zm11.78-21.23,1.44,10.41a.56.56,0,0,1-.33.6c-.11.05-10.74,4.61-13.25,5.64-1.9.77-2.74,1.67-2.73,2.19,0,.3.39.61,1,.84,1.92.66,2.79.43,4.77-.19l1-.3c2.57-.76,14-7.22,14.63-8.46.35-.81-.68-6.31-1.92-11.35Z"/><path class="cls-4" d="M166.42,137.84s-2.67,10.69-2,12.22,12.69,8.1,15,8.78c2.68.79,3.63,1.34,6.11.48s1.62-2.77-1.66-4.11c-2.53-1-13.23-5.63-13.23-5.63l1.53-11Z"/><path class="cls-3" d="M183.28,160.33a10.22,10.22,0,0,1-3.08-.64l-1-.3c-2.05-.61-14.51-7.19-15.35-9.1-.69-1.58,1.34-10,2-12.59a.58.58,0,0,1,.64-.43l5.72.77a.6.6,0,0,1,.39.22.57.57,0,0,1,.11.42l-1.47,10.55c2,.84,10.6,4.55,12.82,5.45s3.48,2.1,3.45,3.28c0,.48-.27,1.36-1.82,1.9A7.35,7.35,0,0,1,183.28,160.33Zm-16.42-21.85c-1.24,5-2.27,10.53-1.92,11.35.6,1.23,12.06,7.7,14.62,8.46l1,.3c2,.62,2.87.85,4.78.18.66-.22,1-.53,1.05-.84,0-.51-.84-1.41-2.73-2.19-2.52-1-13.14-5.59-13.25-5.63a.59.59,0,0,1-.34-.61l1.45-10.4Z"/><path class="cls-5" d="M160.26,150.83s10.12,5.91,13.93,8.92l5.73,4.06L177.85,168"/><path class="cls-3" d="M177.85,168.6a.44.44,0,0,1-.25-.06.57.57,0,0,1-.27-.76l1.86-3.78-5.33-3.78c-3.77-3-13.79-8.83-13.89-8.89a.57.57,0,0,1,.57-1c.42.24,10.2,6,14,9l5.71,4a.58.58,0,0,1,.18.73l-2.06,4.21A.59.59,0,0,1,177.85,168.6Z"/><path class="cls-7" d="M179.92,163.81s5.48.81,5.34,4.25-9.16,5.77-8.3.72A9.67,9.67,0,0,1,179.92,163.81Z"/><path class="cls-3" d="M179.65,172.28a3.44,3.44,0,0,1-2.72-1.05,3,3,0,0,1-.54-2.55,10.22,10.22,0,0,1,3.15-5.3.6.6,0,0,1,.46-.13c.24,0,6,.92,5.84,4.83C185.74,170.4,182.37,172.28,179.65,172.28Zm.45-7.85a8.85,8.85,0,0,0-2.58,4.44,1.94,1.94,0,0,0,.29,1.62,2.37,2.37,0,0,0,1.84.63c2.17,0,5-1.45,5-3.09C184.79,165.54,181.12,164.63,180.1,164.43Z"/><path class="cls-4" d="M87.49,106.31s-3.23,3.35,1.74,7.36c.19,2.28-4.93,1.53-4.93,1.53s-6.15.58-6.91-4.39,2.9-3.66,1.35-9.94S89.58,95.51,87.49,106.31Z"/><path class="cls-3" d="M86.07,115.89a14,14,0,0,1-1.79-.12l-.56,0c-1.44,0-6.2-.35-6.9-4.89a5.89,5.89,0,0,1,.88-4.58c.65-1.09,1.27-2.13.48-5.32a3.71,3.71,0,0,1,.54-3.27,3.92,3.92,0,0,1,3.12-1.35,6.27,6.27,0,0,1,4.75,2.33c1.09,1.32,2.23,3.73,1.47,7.71a.59.59,0,0,1-.15.28,3.7,3.7,0,0,0-.87,2.57c.09,1.33.95,2.66,2.55,4a.59.59,0,0,1,.21.4,1.7,1.7,0,0,1-.44,1.33C88.79,115.58,87.68,115.89,86.07,115.89Zm-1.77-1.27h.08a14,14,0,0,0,1.69.11,3.7,3.7,0,0,0,2.44-.56.56.56,0,0,0,.14-.25,6.7,6.7,0,0,1-2.75-4.61A4.8,4.8,0,0,1,87,106c.62-3.43-.33-5.48-1.26-6.6a5.09,5.09,0,0,0-3.86-1.91,2.78,2.78,0,0,0-2.22.91,2.62,2.62,0,0,0-.32,2.29c.89,3.65.09,5-.61,6.18a4.73,4.73,0,0,0-.73,3.81c.54,3.54,4.21,3.92,5.76,3.92h.58Z"/><path class="cls-4" d="M110.67,79.75a18.16,18.16,0,0,0-3.88,7.7c-.76,4.2,1.4,11.71-5.73,15.53s-18,7.71-25.43-7,2.78-23.65,2.78-23.65S113,61.35,110.67,79.75Z"/><path class="cls-3" d="M89.65,107.05c-6,0-10.92-3.65-14.53-10.84-3.92-7.8-2.93-14-1.41-17.82A17.91,17.91,0,0,1,78,71.88a.72.72,0,0,1,.21-.12c.1,0,10.42-3.26,19.36-3.26,5.63,0,9.59,1.26,11.77,3.74,1.65,1.88,2.28,4.42,1.87,7.58a.52.52,0,0,1-.14.31,17.79,17.79,0,0,0-3.75,7.43,21.94,21.94,0,0,0-.2,3.42c-.05,4.21-.11,9.45-5.82,12.51C98.48,105,94.16,107.05,89.65,107.05Zm-11-34.23c-1,1-9.38,9.29-2.55,22.88,3.4,6.77,7.94,10.2,13.5,10.2,4.25,0,8.4-2,11.14-3.43C105.9,99.74,106,95.08,106,91a23.56,23.56,0,0,1,.22-3.61,18.61,18.61,0,0,1,3.9-7.85c.32-2.73-.22-4.92-1.61-6.5-2-2.23-5.63-3.35-10.91-3.35C89.35,69.65,79.86,72.47,78.7,72.82Z"/><path class="cls-6" d="M103.35,63.08s5.16,11.07-4.77,15.66-16.22,3.05-16.22,3.05-7.64,10.12-7.64,21-17.56-1.72-17.94-9.35-3.63-38.76,26-42.57S113.66,74,111.37,79,103.35,66,103.35,63.08Z"/><path class="cls-3" d="M71.38,107.61c-5.24,0-14.88-8.18-15.18-14.15l-.06-1.17c-.56-9.47-2.25-38.28,26.52-42a43.27,43.27,0,0,1,5.55-.38c11.63,0,17.56,5.47,20.49,10,4.6,7.21,4.52,16.35,3.19,19.22-.45,1-1,1.19-1.48,1.19-1.94,0-4-4.88-5.37-8.65a10.2,10.2,0,0,1-6.22,7.53,32.7,32.7,0,0,1-13.61,3.35,15.79,15.79,0,0,1-2.6-.19c-1.22,1.72-7.32,10.81-7.32,20.37C75.29,107,72.84,107.61,71.38,107.61ZM88.21,51.07a41,41,0,0,0-5.4.37C55.1,55,56.74,83,57.28,92.22l.07,1.19c.23,4.61,8.51,13,14,13h0c1.86,0,2.77-1.2,2.77-3.67,0-11,7.43-20.92,7.75-21.35a.58.58,0,0,1,.59-.21,13.26,13.26,0,0,0,2.72.23,31.49,31.49,0,0,0,13.13-3.25,9.16,9.16,0,0,0,5.77-9.32,28.36,28.36,0,0,1-1.33-5.81.57.57,0,0,1,1.09-.24,17.28,17.28,0,0,1,1.38,5.85c2,6.51,4.25,10.54,5.16,10.54.12,0,.29-.21.44-.52,1.21-2.61,1.2-11.36-3.12-18.12C103.7,54.27,97.13,51.07,88.21,51.07Z"/><polygon class="cls-8" points="139.5 128.78 129.28 119.83 129.06 129.24 132.51 135.06 139.5 128.78"/><path class="cls-9" d="M44.75,177.62s-10.2,27.67,18.09,24.8,33.07-5.73,33.07-5.73l16.42-11.25V169.79l-58.07-1.91Z"/><path class="cls-3" d="M58.94,203.2h0c-6.58,0-11.29-1.95-14-5.81-5.25-7.53-.94-19.47-.75-20a.46.46,0,0,1,.13-.2l9.51-9.74a.64.64,0,0,1,.43-.17l58.06,1.91a.57.57,0,0,1,.56.57v15.65a.57.57,0,0,1-.25.47L96.23,197.17c-.23.13-5.23,3-33.33,5.82A39.44,39.44,0,0,1,58.94,203.2ZM45.25,177.93c-.43,1.22-4,12.14.66,18.81,2.46,3.53,6.85,5.32,13,5.32h0a37.15,37.15,0,0,0,3.84-.21c27.61-2.8,32.79-5.62,32.84-5.65l16.13-11.06V170.35l-57.26-1.89Z"/><path class="cls-10" d="M87.48,111.88s5.56,2.22-1.31,3.44-9.56-4.16-8.88-6.23-18.42,9.54-20.81,12.41c0,0-10.78,53.25-11.73,56.12s16-6.68,30.35-1.15,20.43,1.7,20.43,1.7l9.16-4.18s-2.29-12.79-3.06-25-1.9-11.27-1.9-11.27l3.62-.38S106.74,117.49,87.48,111.88Z"/><path class="cls-3" d="M88.92,180a39.54,39.54,0,0,1-14-3,27.62,27.62,0,0,0-10-1.71c-6,0-11.7,1.53-15.46,2.54a20.79,20.79,0,0,1-4.16.91,1.18,1.18,0,0,1-1-.41.93.93,0,0,1-.1-.89c.94-2.8,11.62-55.53,11.72-56.06a.58.58,0,0,1,.12-.25c2-2.43,18.57-12.86,21-12.86a.76.76,0,0,1,.66.3.77.77,0,0,1,.09.7,3.86,3.86,0,0,0,.88,3.06,6.54,6.54,0,0,0,5.53,2.59,10.65,10.65,0,0,0,1.83-.17c2.83-.5,3-1.08,3-1.08,0-.24-.8-.87-1.76-1.25a.58.58,0,0,1,.37-1.09c19.52,5.68,16.31,25.9,16.28,26.11a.57.57,0,0,1-.51.47l-2.6.28c.46,1.24,1,4.1,1.4,10.76.75,12,3,24.81,3.05,24.94a.57.57,0,0,1-.33.62l-9.17,4.18S93.58,180,88.92,180Zm-24-5.9a28.64,28.64,0,0,1,10.39,1.8,38.76,38.76,0,0,0,13.61,2.95c4.29,0,6.28-1.2,6.3-1.21l8.83-4c-.41-2.36-2.31-13.78-3-24.63-.55-8.88-1.31-10.51-1.49-10.79a.54.54,0,0,1-.32-.29.55.55,0,0,1,.11-.66.73.73,0,0,1,.48-.15l3-.31c.36-2.78,1.53-17.5-12.69-23.39a1.4,1.4,0,0,1,0,.36c-.11,1-1.31,1.63-3.91,2.09a12.08,12.08,0,0,1-2,.19A7.63,7.63,0,0,1,77.78,113a5.42,5.42,0,0,1-1.16-3.48c-3.08,1-17.15,9.52-19.6,12.24-.74,3.64-10.41,51.38-11.66,55.83a23.61,23.61,0,0,0,3.81-.86A60.26,60.26,0,0,1,64.92,174.14Z"/><path class="cls-7" d="M100.3,204.14s-8.78,6.11-14.7,4.2-9.55-13.64,1.34-12.41l10.88,1.23S106.45,200.9,100.3,204.14Z"/><path class="cls-3" d="M88.13,209.28a9,9,0,0,1-2.71-.39c-3.59-1.16-6.55-5.85-6-9.46.48-3,3.26-4.55,7.56-4.07l10.88,1.22.17,0c.5.22,4.93,2.22,5,4.84,0,1.2-.8,2.27-2.51,3.18C100.35,204.8,93.85,209.28,88.13,209.28Zm-2.71-12.86c-2.84,0-4.52,1.1-4.85,3.19-.48,3.07,2.15,7.19,5.21,8.18a7.54,7.54,0,0,0,2.35.34c5.36,0,11.78-4.42,11.84-4.46,1.35-.72,2-1.43,2-2.16-.07-1.58-3.1-3.27-4.27-3.79l-10.8-1.22A12.3,12.3,0,0,0,85.42,196.42Z"/><path class="cls-11" d="M214.7,207.69s-6.32,10.17-11.47,12.26-13,5.35-14.68,2.68-.45-4.21,2.67-4.2,16.51-11.61,16.68-13.56S218.29,202.6,214.7,207.69Z"/><path class="cls-3" d="M191.09,224.21a3.36,3.36,0,0,1-3-1.27c-1.13-1.76-.94-2.9-.58-3.55s1.34-1.54,3.73-1.54c2.74,0,15.82-11.22,16.12-13,.11-1.26,2.23-1.83,4.16-1.83,2.13,0,3.73.65,4.31,1.76.47.91.25,2-.63,3.27-.25.39-6.46,10.32-11.72,12.47l-.23.09C199.47,222.11,194.33,224.21,191.09,224.21Zm.13-5.21c-1.42,0-2.41.35-2.74.94s.09,1.67.55,2.37c.32.5,1,.75,2.06.75,3,0,8-2.05,11.7-3.54l.23-.1c4.91-2,11.12-11.94,11.19-12,.45-.63.89-1.48.57-2.1s-1.66-1.14-3.29-1.14c-1.85,0-3,.56-3,.78-.2,2.27-13.87,14.08-17.25,14.08Z"/><path class="cls-12" d="M241.8,221.67s5.92,7.83-3.62,9.74a53.27,53.27,0,0,1-18.81,0v3.05s-25.1-1.71-27.77-6.39-1.72-11,8.21-10a129,129,0,0,0,17.18.57l16.41-3.82Z"/><path class="cls-3" d="M219.37,235h0c-2.6-.18-25.49-1.88-28.23-6.69-1.58-2.76-1.8-5.66-.58-7.75.85-1.47,2.82-3.22,7.37-3.22a19.54,19.54,0,0,1,2,.1c5.55.53,10.25.64,13.22.64,2.42,0,3.86-.07,3.88-.07l16.31-3.81a.57.57,0,0,1,.5.12l8.4,6.87.09.1c.12.15,2.82,3.79,1.63,6.93-.71,1.86-2.59,3.11-5.6,3.71a47.3,47.3,0,0,1-9.23.86,56.1,56.1,0,0,1-9.12-.73v2.36a.6.6,0,0,1-.18.42A.59.59,0,0,1,219.37,235Zm-21.48-16.52c-3.17,0-5.38.92-6.38,2.66s-.77,4.23.59,6.6c2,3.52,19.39,5.52,26.69,6.07v-2.44A.6.6,0,0,1,219,231a.56.56,0,0,1,.48-.11,54.61,54.61,0,0,0,9.58.83,46.44,46.44,0,0,0,9-.83c2.6-.52,4.19-1.53,4.75-3,.91-2.38-1.12-5.36-1.43-5.79l-8.12-6.64-16.14,3.75c-.16,0-1.58.09-4,.09-3,0-7.74-.11-13.33-.65C199.1,218.56,198.48,218.52,197.89,218.52Z"/><path class="cls-13" d="M239.43,190.76s6.38,24.61,2.37,30.91-23.09,1.15-24.81-3,1.33-17.75,1.33-17.75l-3.62,6.82-6.8-2.82s1.22-22.94,12.7-19.77,11.86.5,11.86.5Z"/><path class="cls-3" d="M233.88,225.19c-7.21,0-16.16-3.27-17.42-6.36-1.2-2.91-.24-9.86.54-14.26L215.2,208a.57.57,0,0,1-.72.26l-6.8-2.82a.56.56,0,0,1-.35-.56c0-.84,1.21-20.61,11.17-20.61a8.6,8.6,0,0,1,2.25.32,35.32,35.32,0,0,0,8.61,1.53c2.21,0,2.54-.62,2.55-.62a.5.5,0,0,1,.33-.42.58.58,0,0,1,.56.1l7,5.16a.55.55,0,0,1,.22.32c.26,1,6.39,24.93,2.3,31.36C241,224.08,238,225.19,233.88,225.19Zm-15.56-24.9a.45.45,0,0,1,.2,0,.56.56,0,0,1,.36.66c0,.13-3,13.43-1.36,17.41,1,2.36,9.39,5.64,16.36,5.64,2.62,0,6-.46,7.44-2.68,3.64-5.72-1.81-27.93-2.39-30.26l-6.35-4.69a4.78,4.78,0,0,1-3.22.82,36.28,36.28,0,0,1-8.92-1.57,7.13,7.13,0,0,0-1.94-.29c-8.17,0-9.78,16.34-10,19.13l5.93,2.45,3.39-6.35A.56.56,0,0,1,218.32,200.29Z"/><path class="cls-11" d="M209.94,154.45s.7,2.72-2,5.77-10,14.32,2.12,18.9,11,.95,11,.95l14.51-2.67-12.4-25.77S216.26,147.14,209.94,154.45Z"/><path class="cls-3" d="M219,182h0c-1.94,0-5-.79-9.15-2.35-3.86-1.46-6.19-3.72-6.92-6.71-1.21-5,2.46-10.76,4.57-13.1,2.51-2.79,1.92-5.23,1.92-5.26a.56.56,0,0,1,.12-.51c2.51-2.91,5.4-4.38,8.58-4.38a10.43,10.43,0,0,1,5.32,1.46.55.55,0,0,1,.2.23L236,177.15a.57.57,0,0,1,0,.51.56.56,0,0,1-.41.3l-14,2.58a1.38,1.38,0,0,1-.26.62A2.76,2.76,0,0,1,219,182Zm-8.41-27.38a7.63,7.63,0,0,1-2.23,6c-2,2.18-5.41,7.53-4.31,12,.63,2.61,2.72,4.6,6.21,5.92,4,1.51,6.94,2.28,8.74,2.28,1,0,1.33-.26,1.41-.37a.29.29,0,0,0,.06-.27.6.6,0,0,1,.08-.45.62.62,0,0,1,.37-.27L234.66,177l-12-24.93a9.49,9.49,0,0,0-4.56-1.2A10,10,0,0,0,210.56,154.62Z"/><path class="cls-7" d="M219.47,138.27s20.24-6.68,27.11,3.25S262.8,164,252.3,180.83s-31.31,10.49-31.88,3.44a86.18,86.18,0,0,0-.95-8.78s5.35.57,4-7.06-6.3-1.34-6.3-1.34S211.26,166,212,155.83c-1.33-.38-4-3.24-4-3.24S205.92,136.74,219.47,138.27Z"/><path class="cls-3" d="M233.81,192.09c-7.23,0-13.62-3.56-14-7.78-.56-6.89-.94-8.68-.94-8.7a.57.57,0,0,1,.62-.69,3.38,3.38,0,0,0,2.68-1.08c.89-1.07,1.13-2.85.7-5.31-.26-1.51-.83-3.3-2-3.3s-2.76,1.6-3.25,2.22a.57.57,0,0,1-.56.21c-.26,0-6.25-1.33-5.65-11.45a19,19,0,0,1-3.83-3.23.63.63,0,0,1-.15-.32c0-.31-1-7.68,2.85-12,2.08-2.37,5.14-3.37,9.12-2.94a49.45,49.45,0,0,1,13.7-2.19c6.63,0,11.32,1.91,13.94,5.69l.55.8c7,10,15.61,22.48,5.19,39.14C246.83,190.67,238.33,192.09,233.81,192.09Zm-13.66-16c.15,1,.46,3.37.84,8.17.26,3.18,5.59,6.73,12.82,6.73,4.29,0,12.34-1.36,18-10.42,10-16,1.6-28.15-5.16-37.88l-.55-.81c-2.39-3.45-6.77-5.19-13-5.19a49.59,49.59,0,0,0-13.46,2.16.5.5,0,0,1-.24,0c-3.63-.41-6.42.45-8.26,2.55-3.16,3.61-2.7,9.81-2.58,10.94,1,1.08,2.79,2.71,3.61,2.95a.57.57,0,0,1,.42.59C212,164,215.84,166,217,166.44c.62-.72,2.24-2.36,3.9-2.36s2.67,1.43,3.16,4.25.17,4.91-.95,6.25A4.32,4.32,0,0,1,220.15,176.05Z"/><path class="cls-11" d="M232.46,232.15s3.25,1,0,3.46-13.09.95-13.09-1.15S217.19,223.72,232.46,232.15Z"/><path class="cls-3" d="M227,237.46c-3.32,0-8.23-1-8.23-3,0-.18,0-.43,0-.7-.1-1.28-.27-3.42,1-4.73,1.88-2,6.08-1.22,13,2.59.33.11,1.57.59,1.77,1.7.16.87-.39,1.79-1.64,2.74C231.21,237.28,228.5,237.46,227,237.46Zm-4.43-8.36a2.62,2.62,0,0,0-2,.71c-.87.94-.74,2.7-.65,3.86,0,.31,0,.58,0,.79,0,.62,3.06,1.86,7.08,1.86a9,9,0,0,0,5.09-1.17c.84-.64,1.28-1.24,1.21-1.63s-.83-.76-1-.82l-.11,0C227.91,230.29,224.69,229.1,222.59,229.1Z"/><path class="cls-11" d="M243.13,228.53s8,4,3.06,5.93-7.25-1.16-7.06-3S243.13,228.53,243.13,228.53Z"/><path class="cls-3" d="M243.27,235.64a4.94,4.94,0,0,1-3.73-1.53,3.57,3.57,0,0,1-1-2.67c.23-2.12,4-3.33,4.4-3.46a.59.59,0,0,1,.43,0c.85.43,5.11,2.67,5,4.9,0,.89-.72,1.59-2,2.08A8.7,8.7,0,0,1,243.27,235.64Zm-.19-6.49c-1.18.4-3.27,1.4-3.38,2.41a2.44,2.44,0,0,0,.69,1.78,3.7,3.7,0,0,0,2.88,1.15,7.77,7.77,0,0,0,2.72-.56c.56-.22,1.23-.57,1.25-1.06C247.29,231.81,244.91,230.11,243.08,229.15Z"/><polygon class="cls-14" points="126.22 129.36 127.1 122.63 137.28 128.46 126.22 129.36"/><polygon class="cls-15" points="117.75 129.72 139.5 128.78 138.47 152.86 118.2 157.85 117.75 129.72"/><path class="cls-4" d="M68.4,123.27s5.9,18.26,8.69,22.15,27.78,4.75,33.45,1.18,7.54-11.2,8-7.2-3.49,4.66,9.7,2.4,4,9.49-2.41,9.7-9.65-.84-19.56,3.24-32.41,9.33-38.55,1.68S54.3,128.07,54.3,128.07,59.82,112.43,68.4,123.27Z"/><path class="cls-3" d="M93.15,159.31c-7.59,1.63-21,3.48-25.85-2.53-6.14-7.65-13.24-27.67-13.54-28.52a.62.62,0,0,1,0-.38c.11-.32,2.83-7.87,7.59-8.89,2.49-.54,5,.78,7.5,3.93a.4.4,0,0,1,.1.18c.06.18,5.9,18.21,8.61,22,2.08,2.9,19.79,4.28,29.15,2.26a11.31,11.31,0,0,0,3.52-1.24,20.68,20.68,0,0,0,5.84-6.33c.86-1.29,1.29-1.94,1.85-2.06a.78.78,0,0,1,.63.13c.32.23.48.64.58,1.49a7.94,7.94,0,0,1-.12,2.4,2.93,2.93,0,0,0-.08.74c.42.27,3.48-.26,9-1.21l.19,0c5.56-1,7.06.57,7.34,2,.57,3-4.07,7.72-8.42,8.66h0a7.41,7.41,0,0,1-1.21.15c-1.28,0-2.43,0-3.54,0a33.86,33.86,0,0,0-8,.64,46,46,0,0,0-7.77,2.54A83,83,0,0,1,93.15,159.31ZM54.91,128.08c.77,2.12,7.59,20.88,13.28,28,3.24,4,12.25,4.81,24.71,2.12a80,80,0,0,0,13.17-4,47.71,47.71,0,0,1,8-2.61,35.11,35.11,0,0,1,8.31-.65c1.09,0,2.23,0,3.5,0a5.18,5.18,0,0,0,1-.13h0c3.9-.84,7.94-5.2,7.53-7.3-.25-1.33-2.45-1.73-6-1.12l-.19,0c-7.9,1.35-9.32,1.6-10.06.86-.44-.44-.34-1.06-.22-1.71a7,7,0,0,0,.11-2.08c0-.15,0-.27-.06-.37-.23.3-.59.83-.91,1.32a21.64,21.64,0,0,1-6.17,6.67,12.64,12.64,0,0,1-3.9,1.38c-8.54,1.85-27.62,1.06-30.33-2.71s-8.21-20.6-8.73-22.21c-2.17-2.72-4.29-3.87-6.3-3.44C57.83,120.92,55.35,126.94,54.91,128.08Z"/><path class="cls-16" d="M54.58,117.53s12.64-6.57,16.6,12.93l-15.26,6.47S45.52,120.2,54.58,117.53Z"/><path class="cls-3" d="M56.08,137.48a.59.59,0,0,1-.68-.25c-.29-.46-7-11.38-4.61-17.15A5.35,5.35,0,0,1,54.36,117a11.65,11.65,0,0,1,1.6-.6,10.72,10.72,0,0,1,8.29.76c3.63,2,6.16,6.48,7.52,13.18a.59.59,0,0,1-.36.65l-15.26,6.47S56.1,137.47,56.08,137.48Zm.2-20a9.77,9.77,0,0,0-1.43.54,4.23,4.23,0,0,0-2.94,2.45C50,125.12,55,134.12,56.18,136.19l14.31-6.07c-1.31-6.11-3.62-10.14-6.88-12A9.37,9.37,0,0,0,56.28,117.49Z"/><path class="cls-17" d="M136.71,153.3l.31-24.41s1.23-.61.77-1.6l1.7,1.49-1,24.08Z"/><polygon class="cls-18" points="127.1 122.63 129.78 121.14 137.18 127.87 136.92 128.25 127.1 122.63"/><path class="cls-19" d="M104.69,174s5.29-13.07,23.93-4c23.08,11.24-26.68,31.52-26.68,31.52l-12.71-5.32a39.12,39.12,0,0,1,16-18"/></svg>