<?xml version="1.0" encoding="utf-8"?>
<!-- Generator: Adobe Illustrator 16.0.0, SVG Export Plug-In . SVG Version: 6.00 Build 0)  -->
<!DOCTYPE svg PUBLIC "-//W3C//DTD SVG 1.1//EN" "http://www.w3.org/Graphics/SVG/1.1/DTD/svg11.dtd">
<svg version="1.1" id="Layer_1" xmlns="http://www.w3.org/2000/svg" xmlns:xlink="http://www.w3.org/1999/xlink" x="0px" y="0px"
	 width="500px" height="500px" viewBox="0 0 500 500" enable-background="new 0 0 500 500" xml:space="preserve">
<g id="Layer_1_copy_18">
	<path fill="#808285" stroke="#3B2416" stroke-width="4.1955" stroke-miterlimit="10" d="M40.353,212.782
		c0,0,2.557,13.64,24.23,14.688c21.675,1.049,41.049-13.877,41.049-13.877s-15.835-28.778-32.638-21.437
		C56.191,199.5,37.451,201.591,40.353,212.782z"/>
	<path fill="#808285" stroke="#3B2416" stroke-width="4.1955" stroke-miterlimit="10" d="M214.92,262.083
		c0,0,20.978,28.319,20.978,40.207s-16.085,13.637-12.238,23.774c3.847,10.139,6.99,16.783,33.564,15.733
		c26.572-1.05,28.318-15.385,25.172-21.329c-3.146-5.941-13.979-34.961-13.282-41.604c0.696-6.645-1.048-32.516-1.048-32.516
		S189.747,224.674,214.92,262.083z"/>
	<path fill="#808285" stroke="#3B2416" stroke-width="4.1955" stroke-miterlimit="10" d="M326.101,240.389
		c0,0,20.979,28.318,20.979,40.207c0,11.887-16.085,13.637-12.238,23.774s6.99,16.782,33.564,15.733
		c26.572-1.051,28.318-15.387,25.173-21.33c-3.147-5.941-13.98-34.961-13.283-41.604c0.696-6.645-1.05-32.516-1.05-32.516
		S300.928,202.98,326.101,240.389z"/>
	<path fill="#939598" stroke="#3B2416" stroke-width="4.1955" stroke-miterlimit="10" d="M105.01,141.463
		c0,0-19.884-24.825-8.543-31.817c11.342-6.992,26.374,7.692,29.172,22.376"/>
	<path fill="#939598" stroke="#3B2416" stroke-width="4.1955" stroke-miterlimit="10" d="M171.567,113.842
		c0,0-6.645,18.877-33.916,15.383c-27.27-3.495-48.944,7.264-60.134,20.938c-11.189,13.674-19.228,12.065-33.563,16.716
		c-14.336,4.65-20.276,8.497-16.082,25.978c4.196,17.48,7.342,22.724,28.319,20.277c20.979-2.446,16.43-10.486,29.718-8.739
		c13.287,1.747,5.248,9.173,17.482,9.306c12.234,0.134,23.074-12.104,27.619-3.364c4.544,8.742,9.791,33.562,23.775,37.41
		c13.983,3.849,12.938,8.394,14.336,16.435c1.397,8.039,2.795,42.303,0.696,47.896c-2.098,5.595-23.078,20.977-11.189,34.263
		c11.891,13.287,43.009-1.396,46.503-6.642c3.495-5.244,3.844-15.734,2.794-24.824c-1.048-9.09,3.151-23.423,4.548-29.02
		c1.397-5.595,5.246-31.114,5.246-31.114s39.855,13.282,80.763,7.34c40.906-5.942,51.396-29.018,80.763-25.872
		c29.37,3.146,40.556,27.971,38.457,46.5c-2.1,18.529-25.525,37.061-27.271,45.8c-1.744,8.741-3.498,17.136,20.979,17.483
		s33.564,0,32.168-20.279c-1.397-20.279,1.052-33.213,6.993-38.809c5.939-5.594,11.886-16.432,3.146-37.759
		c-8.74-21.328-3.5-33.912-0.701-38.809c2.799-4.896,1.75-36.362,1.75-38.109c0-1.748,8.396,17.833,9.093,26.572
		c0.695,8.739-3.147,22.375,4.193,37.409c7.342,15.034,7.69,3.148,4.544-10.139c-3.146-13.287-6.298-15.384-2.798-20.629
		c3.499-5.244,6.646-5.943,2.798-17.481c-3.847-11.537-9.436-46.152-26.569-54.892c-17.135-8.739-22.025-8.039-28.319-17.13
		c-6.293-9.092-8.039-17.48-29.368-14.684c-21.33,2.796-54.542,11.091-70.975,9.39c-16.436-1.7-79.021-10.091-89.856-12.189
		C216.67,96.359,189.051,96.362,171.567,113.842z"/>
	
		<ellipse fill="#FFFFFF" stroke="#3C2415" stroke-width="3.1466" stroke-miterlimit="10" cx="107.517" cy="161.314" rx="9.005" ry="11.15"/>
	<ellipse fill="#3C2415" cx="105.655" cy="162.09" rx="3.677" ry="4.779"/>
	<path fill="#939598" stroke="#3B2416" stroke-width="4.1955" stroke-miterlimit="10" d="M125.065,144.259
		c0,0-19.884-24.824-8.543-31.816c11.341-6.992,26.373,7.692,29.173,22.376"/>
	
		<path fill="#D1D3D4" stroke="#3C2415" stroke-width="3.1466" stroke-linecap="round" stroke-linejoin="round" stroke-miterlimit="10" d="
		M37.312,121.184c0,0-20.63,19.929-5.945,43.004c9.189,12.901,16.782,17.48,16.782,17.48l12.936-9.205
		C61.085,172.464,37.665,155.797,37.312,121.184z"/>
	
		<path fill="#D1D3D4" stroke="#3C2415" stroke-width="3.1466" stroke-linecap="round" stroke-linejoin="round" stroke-miterlimit="10" d="
		M58.29,139.366c0,0-0.705,24.82,11.186,29.716c11.889,4.896,13.635-9.44,13.635-9.44S61.437,151.603,58.29,139.366z"/>
</g>
</svg>
