<?xml version="1.0" encoding="utf-8"?>
<!-- Generator: Adobe Illustrator 16.0.0, SVG Export Plug-In . SVG Version: 6.00 Build 0)  -->
<!DOCTYPE svg PUBLIC "-//W3C//DTD SVG 1.1//EN" "http://www.w3.org/Graphics/SVG/1.1/DTD/svg11.dtd">
<svg version="1.1" id="Layer_1" xmlns="http://www.w3.org/2000/svg" xmlns:xlink="http://www.w3.org/1999/xlink" x="0px" y="0px"
	 width="500px" height="500px" viewBox="0 0 500 500" enable-background="new 0 0 500 500" xml:space="preserve">
<g id="Layer_1_copy_7">
	<g>
		<path fill="#CDBB95" d="M415.946,384.115v-47.971L322.337,88.08L149.159,29.572c0,0-50.9-8.775-59.086,39.785v348.107
			c0,0,1.165,40.947,59.086,41.535"/>
		<path fill="#27140E" d="M149.159,463.171c-0.012,0-0.03,0-0.043,0c-61.228-0.613-63.207-45.146-63.22-45.588V69.357
			c0-0.232,0.017-0.465,0.056-0.695c2.543-15.059,9.217-26.511,19.841-34.041c18.81-13.332,43.051-9.343,44.075-9.164
			c0.209,0.037,0.423,0.09,0.627,0.16l173.177,58.505c1.188,0.399,2.129,1.31,2.568,2.481l93.605,248.062
			c0.18,0.469,0.272,0.974,0.272,1.478v47.971c0,2.301-1.873,4.172-4.173,4.172c-2.31,0-4.178-1.871-4.178-4.172V336.9L319.126,91.4
			l-170.96-57.755c-1.896-0.273-12.985-1.639-24.596,1.7c-16.309,4.687-26.17,16.247-29.323,34.367v347.752
			c0.052,1.373,1.988,36.824,54.955,37.361c2.304,0.026,4.151,1.912,4.135,4.217C153.311,461.337,151.447,463.171,149.159,463.171z"
			/>
	</g>
	<g>
		<g>
			<path fill="#CDBB95" d="M149.159,459h252.868c7.653,0,13.919-6.264,13.919-13.912v-60.973"/>
		</g>
		<g>
			<path fill="#27140E" d="M402.027,463.171H149.159c-2.308,0-4.177-1.867-4.177-4.172s1.869-4.174,4.177-4.174h252.868
				c5.367,0,9.741-4.369,9.741-9.738v-60.974c0-2.305,1.868-4.174,4.178-4.174c2.3,0,4.173,1.869,4.173,4.174v60.974
				C420.119,455.058,412,463.171,402.027,463.171z"/>
		</g>
	</g>
	<g>
		<path fill="#FFFFFF" d="M141.556,379.096l274.391,0.581v59.088H143.835c0,0-29.038,0.589-29.601-33.932
			C115.368,380.854,141.556,379.096,141.556,379.096z"/>
		<path fill="#27140E" d="M143.745,442.947c-1.354,0-33.069-0.437-33.684-38.045c1.04-22.18,20.873-29.279,31.217-29.979
			c0.094,0,0.132,0.017,0.29,0l274.383,0.578c2.3,0.01,4.168,1.877,4.168,4.176v59.088c0,2.306-1.873,4.183-4.173,4.183H143.745z
			 M141.714,383.27c-1.954,0.17-22.394,2.396-23.307,21.768c0.478,28.721,22.794,29.555,25.338,29.555v4.174l0.025-4.174h268V383.85
			L141.714,383.27z"/>
	</g>
	<g>
		<g>
			<path fill="#FBC59A" d="M416.527,343.902c0,7.662-6.261,13.918-13.919,13.918H148.451c-7.651,0-13.915-6.256-13.915-13.918V42.32
				c0-7.653,6.264-13.915,13.915-13.915h254.157c7.658,0,13.919,6.262,13.919,13.915V343.902z"/>
		</g>
		<g>
			<path fill="#27140E" d="M402.608,362.001H148.451c-9.973,0-18.088-8.125-18.088-18.101V42.32c0-9.974,8.115-18.091,18.088-18.091
				h254.157c9.979,0,18.097,8.117,18.097,18.091v301.583C420.705,353.876,412.588,362.001,402.608,362.001z M148.451,32.581
				c-5.372,0-9.741,4.369-9.741,9.74v301.582c0,5.375,4.369,9.746,9.741,9.746h254.157c5.377,0,9.745-4.371,9.745-9.746V42.32
				c0-5.371-4.368-9.74-9.745-9.74L148.451,32.581L148.451,32.581z"/>
		</g>
	</g>
	<g>
		<g>
			<path fill="#C3C3C6" d="M392.538,292.936c0,7.653-6.26,13.92-13.915,13.92H172.436c-7.654,0-13.919-6.267-13.919-13.92V83.192
				c0-7.653,6.265-13.915,13.919-13.915h206.188c7.655,0,13.915,6.262,13.915,13.915L392.538,292.936L392.538,292.936z"/>
		</g>
		<g>
			<path fill="#27140E" d="M378.623,311.035H172.436c-9.976,0-18.092-8.125-18.092-18.1V83.192c0-9.974,8.116-18.091,18.092-18.091
				h206.188c9.977,0,18.092,8.117,18.092,18.091v209.744C396.715,302.91,388.6,311.035,378.623,311.035z M172.436,73.452
				c-5.367,0-9.74,4.369-9.74,9.74v209.744c0,5.375,4.373,9.746,9.74,9.746h206.188c5.372,0,9.741-4.371,9.741-9.746V83.192
				c0-5.371-4.369-9.74-9.741-9.74H172.436z"/>
		</g>
	</g>
	<g>
		<path fill="#F9DA9C" d="M338.999,175.27c1.677,42.803-36.705,58.994-64.765,58.994c-28.056,0-66.622-21.587-60.485-65.881
			c5.564-40.112,34.657-78.535,62.722-78.535C306.434,89.848,337.416,134.803,338.999,175.27z"/>
	</g>
	<g>
		<path fill="#232020" d="M264.373,136.374c0,3.288-2.671,5.954-5.957,5.954c-3.285,0-5.956-2.667-5.956-5.954
			c0-3.291,2.671-5.957,5.956-5.957C261.702,130.417,264.373,133.083,264.373,136.374z"/>
	</g>
	<g>
		<circle fill="#232020" cx="294.706" cy="136.374" r="5.954"/>
	</g>
	<g>
		<path fill="#F09835" d="M338.966,176.053l-0.115-0.375l-0.067,0.156c-0.005-0.099,0-0.189-0.005-0.284
			c0,0-63.646,35.359-125.25-6.887l-0.102,0.377l-12.417,44.659l6.255,8.003l4.535-3.165l6.056-17.919v-0.027
			c10.692,22.092,36.209,33.95,56.159,33.95c20.416,0,46.274-8.597,58.21-29.758l8.358,20.772l4.532,3.162l6.264-8.001
			L338.966,176.053z"/>
	</g>
	<g>
		<path fill="#BD5635" d="M246.46,254.686c0,0-7.398,6.562-1.63,14.567c5.77,7.996,10.236,21.396,25.124,15.636
			c14.888-5.779-1.117-29.281-1.117-29.281l-14.329-7.204L246.46,254.686z"/>
	</g>
	<g>
		<path fill="#BD5635" d="M306.898,254.686c0,0,7.396,6.562,1.625,14.567c-5.77,7.996-10.235,21.396-25.119,15.636
			c-14.893-5.779,1.113-29.281,1.113-29.281l14.332-7.204L306.898,254.686z"/>
	</g>
	<g>
		<path fill="#3B3C3D" d="M249.114,246.177c0,0-6.888,9.679,1.114,12.468c8,2.793,17.307,6.889,19.354-6.237
			c2.044-13.121,9.865-31.356-3.537-34.149C256.368,215.094,249.114,246.177,249.114,246.177z"/>
	</g>
	<g>
		<path fill="#3B3C3D" d="M301.069,247.099c0,0,6.883,9.686-1.117,12.477c-8.007,2.791-17.308,6.887-19.356-6.238
			c-2.048-13.117-9.859-31.356,3.538-34.147C293.812,216.024,301.069,247.099,301.069,247.099z"/>
	</g>
	<g>
		<path fill="#FFFFFF" d="M199.233,212.677l15.45,7.441l-5.21,4.656c0,0,11.538,5.026,6.888,8.747
			c-4.656,3.721-11.726-2.979-11.726-2.979s-22.146,8.931-27.915,1.673c-5.771-7.258,22.145-10.234,22.145-10.234L199.233,212.677z"
			/>
	</g>
	<g>
		<path fill="#FFFFFF" d="M351.822,213.792l-15.446,7.444l5.21,4.651c0,0-11.535,5.023-6.883,8.748
			c4.649,3.725,11.726-2.979,11.726-2.979s22.146,8.936,27.915,1.677c5.77-7.258-22.149-10.237-22.149-10.237L351.822,213.792z"/>
	</g>
	<g>
		<path fill="#292011" d="M277.307,178.521c-7.078,0-12.836-5.257-12.836-11.721h2.779c0,4.928,4.51,8.938,10.057,8.938
			c5.543,0,10.055-4.009,10.055-8.938h2.785C290.146,173.264,284.386,178.521,277.307,178.521z"/>
	</g>
</g>
</svg>
