<?xml version="1.0" encoding="utf-8"?>
<!-- Generator: Adobe Illustrator 16.0.0, SVG Export Plug-In . SVG Version: 6.00 Build 0)  -->
<!DOCTYPE svg PUBLIC "-//W3C//DTD SVG 1.1//EN" "http://www.w3.org/Graphics/SVG/1.1/DTD/svg11.dtd">
<svg version="1.1" id="Layer_1" xmlns="http://www.w3.org/2000/svg" xmlns:xlink="http://www.w3.org/1999/xlink" x="0px" y="0px"
	 width="500px" height="500px" viewBox="0 0 500 500" enable-background="new 0 0 500 500" xml:space="preserve">
<g id="Layer_1_copy_53">
	<g>
		<g>
			<path fill="#4E4E4E" d="M454.146,291.955c0,48.639-89.577,88.068-200.078,88.068c-110.498,0-200.074-39.431-200.074-88.068
				c0-48.645,89.577-88.077,200.074-88.077C364.568,203.878,454.146,243.31,454.146,291.955z"/>
			<path fill="#3C2517" d="M254.066,382.58c-111.729,0-202.631-40.652-202.631-90.625c0-49.974,90.902-90.633,202.631-90.633
				c111.733,0,202.637,40.659,202.637,90.633C456.703,341.927,365.801,382.58,254.066,382.58z M254.066,206.435
				c-108.909,0-197.517,38.361-197.517,85.52c0,47.15,88.606,85.51,197.517,85.51c108.915,0,197.524-38.359,197.524-85.51
				C451.592,244.796,362.981,206.435,254.066,206.435z"/>
		</g>
		<g>
			<path fill="#818181" d="M237.666,168.149c77.056-3.67,145.626,12.514,190.763,44.723c25.47,18.177,55.237,54.836,36.511,98.579
				c-3.552,8.285-8.299,17.424-14.605,24.641c-59.729,68.281-227.853,83.234-327.666,40.154
				c-34.271-14.787-63.039-34.514-75.76-62.973c-22.54-50.455,17.279-89.283,48.38-107.704
				c23.712-14.046,53.106-25.495,86.705-31.945C198.92,170.372,218.264,169.07,237.666,168.149z M182.903,210.132
				c-33.549,6.718-61.807,17.312-84.88,35.596c-8.915,7.072-22.855,23.186-22.818,38.336c0.043,17.86,13.923,30.317,25.558,39.242
				c60.346,46.309,184.896,55.047,267.424,23.739c25.267-9.594,68.454-31.299,68.454-62.981c0-18.24-14.569-32.125-28.295-41.987
				c-41.883-30.093-103.615-41.484-169.763-38.332C218.237,204.716,200.288,206.654,182.903,210.132z"/>
			<path fill="#3C2517" d="M255.182,403.033c-49.593,0-97.012-8.68-133.528-24.434c-40.307-17.4-65.521-38.425-77.078-64.283
				c-10.419-23.318-8.998-46.273,4.217-68.225c12.982-21.569,33.887-36.026,45.189-42.723c25.26-14.957,55.525-26.109,87.526-32.253
				c17.356-3.336,37.192-4.625,56.039-5.521c7.169-0.341,14.385-0.515,21.443-0.515c68.913,0,129.616,16.234,170.923,45.711
				c29.957,21.38,55.506,59.314,37.375,101.663c-4.592,10.719-9.508,19.002-15.027,25.317
				C417.046,378.029,341.531,403.033,255.182,403.033z M258.99,170.193c-6.979,0-14.112,0.171-21.205,0.509
				c-18.657,0.886-38.272,2.16-55.312,5.435c-31.432,6.032-61.131,16.971-85.884,31.63c-68.979,40.866-53.681,90.285-47.347,104.461
				c11.009,24.635,35.357,44.811,74.435,61.672c35.891,15.492,82.595,24.024,131.505,24.024c84.919,0,158.959-24.342,193.229-63.518
				c5.165-5.91,9.803-13.748,14.179-23.966c16.937-39.561-7.311-75.266-35.646-95.49
				C386.496,186.088,326.847,170.193,258.99,170.193z M257.064,368.111c-0.002,0-0.006,0-0.013,0
				c-63.937,0-122.943-15.994-157.847-42.777c-13.109-10.055-26.513-22.818-26.559-41.264c-0.04-16.955,15.543-33.803,23.785-40.346
				c21.759-17.24,49.076-28.709,85.967-36.096c16.849-3.373,34.661-5.418,56.062-6.437c7.102-0.338,14.211-0.51,21.132-0.51
				c62.488,0,114.442,13.596,150.247,39.323c19.754,14.195,29.357,28.609,29.357,44.061c0,34.979-49.025,57.369-70.104,65.369
				C336.894,361.65,298.154,368.111,257.064,368.111z M259.594,205.792c-6.838,0-13.867,0.172-20.888,0.507
				c-21.139,1.007-38.713,3.021-55.303,6.341c-36.069,7.222-62.694,18.373-83.793,35.096c-8.799,6.977-21.881,22.415-21.848,36.321
				c0.039,16.231,12.436,27.924,24.557,37.219c34.043,26.125,91.887,41.721,154.733,41.721c0.007,0,0.013,0,0.013,0
				c39.899,0,79.041-6.514,110.218-18.338c20.085-7.629,66.805-28.801,66.805-60.594c0-13.689-8.908-26.741-27.229-39.911
				C371.93,219.057,321.006,205.792,259.594,205.792z"/>
		</g>
	</g>
	<g>
		<path fill="#8C441F" d="M321.97,303.832c-21.431-2.182-24.825,1.963-49.651-14.041c-24.825-16.01-36.91-25.809-25.806-51.616
			c11.107-25.807,14.698-39.525,14.698-47.692c0-8.166-26.048-33.469,0.411-46.861c26.459-13.395,51.854-10.632,85.503-6.057
			c33.645,4.573,57.817,24.827,61.736,41.813c3.922,16.985,5.499,31.317,5.228,40.176c-0.269,8.865-0.978,20.258,4.247,33.323
			c6.953,17.387,14.046,56.182-31.034,60.102C342.224,316.9,343.396,306.014,321.97,303.832z"/>
		<path fill="#3C2517" d="M369.876,316.38c-16.898,0-24.455-2.905-31.767-5.713c-4.771-1.834-9.282-3.565-16.398-4.293
			c-4.721-0.479-8.569-0.647-11.966-0.801c-12.224-0.537-18.959-0.837-38.812-13.634c-24.437-15.756-38.801-26.834-26.771-54.775
			c9.885-22.971,14.492-37.804,14.492-46.682c0-1.524-1.907-5.021-3.75-8.401c-4.157-7.629-9.854-18.078-6.877-27.654
			c1.667-5.35,5.851-9.752,12.439-13.087c13.609-6.892,27.97-10.101,45.196-10.101c12.867,0,26.546,1.718,41.804,3.792
			c34.755,4.724,59.776,25.965,63.884,43.771c3.675,15.901,5.6,30.782,5.29,40.833l-0.049,1.521
			c-0.271,8.434-0.616,18.932,4.114,30.771c2.653,6.627,10.491,29.566,0.069,46.506c-6.13,9.953-17.315,15.705-33.255,17.09
			C381.01,316.091,375.073,316.38,369.876,316.38z M305.664,136.354c-16.616,0-29.846,2.943-42.891,9.547
			c-5.381,2.723-8.606,6.011-9.861,10.046c-2.336,7.508,2.554,16.479,6.482,23.688c2.44,4.482,4.373,8.021,4.373,10.848
			c0,9.597-4.738,25.073-14.908,48.703c-9.984,23.203-1.116,31.716,24.846,48.458c18.688,12.049,24.563,12.308,36.265,12.824
			c3.467,0.152,7.396,0.324,12.258,0.822c7.799,0.791,12.841,2.729,17.717,4.604c6.875,2.642,13.979,5.373,29.932,5.373
			c5.049,0,10.839-0.281,17.203-0.834c14.238-1.238,24.11-6.176,29.345-14.68c7.288-11.842,4.538-29.42-0.464-41.93
			c-5.129-12.83-4.768-23.921-4.476-32.832l0.046-1.511c0.292-9.488-1.638-24.266-5.161-39.528
			c-3.717-16.115-27.025-35.428-59.59-39.856C331.709,138.05,318.213,136.354,305.664,136.354z"/>
	</g>
	<g>
		<path fill="#8C441F" d="M300.665,307.669c-21.427-2.187-24.826,1.959-49.651-14.043c-24.823-16.01-36.911-25.81-25.807-51.615
			c11.107-25.807,14.702-39.526,14.702-47.692s-26.052-33.469,0.404-46.863c26.462-13.394,51.861-10.63,85.506-6.056
			c33.645,4.573,57.816,24.828,61.735,41.812c3.923,16.986,5.5,31.319,5.229,40.181c-0.269,8.858-0.978,20.251,4.247,33.317
			c6.954,17.386,14.047,56.188-31.034,60.104C320.92,320.736,322.093,309.85,300.665,307.669z"/>
		<path fill="#3C2517" d="M348.564,320.212c-16.893,0-24.448-2.901-31.757-5.709c-4.772-1.834-9.286-3.565-16.4-4.289
			c-4.722-0.483-8.57-0.651-11.97-0.801c-12.222-0.545-18.955-0.843-38.81-13.638c-24.432-15.754-38.796-26.832-26.771-54.779
			c9.889-22.967,14.493-37.804,14.493-46.678c0-1.524-1.905-5.021-3.747-8.403c-4.16-7.628-9.858-18.078-6.877-27.653
			c1.663-5.349,5.847-9.753,12.433-13.087c13.612-6.891,27.974-10.099,45.2-10.099c12.865,0,26.545,1.718,41.804,3.792
			c34.757,4.724,59.775,25.964,63.883,43.772c3.674,15.899,5.599,30.782,5.294,40.83l-0.05,1.524
			c-0.274,8.438-0.619,18.932,4.111,30.77c2.652,6.629,10.495,29.572,0.072,46.508c-6.129,9.955-17.318,15.701-33.257,17.09
			C359.702,319.927,353.763,320.212,348.564,320.212z M284.359,140.188c-16.616,0-29.846,2.945-42.891,9.549
			c-5.38,2.723-8.607,6.009-9.862,10.044c-2.336,7.51,2.554,16.481,6.483,23.69c2.441,4.48,4.376,8.02,4.376,10.848
			c0,9.595-4.741,25.069-14.911,48.703c-9.984,23.199-1.116,31.72,24.845,48.457c18.69,12.051,24.562,12.308,36.263,12.826
			c3.469,0.152,7.397,0.328,12.261,0.822c7.795,0.791,12.84,2.729,17.717,4.604c6.874,2.642,13.979,5.371,29.925,5.371
			c5.052,0,10.843-0.278,17.21-0.836c14.241-1.233,24.109-6.174,29.345-14.678c7.291-11.84,4.538-29.422-0.464-41.927
			c-5.128-12.831-4.769-23.922-4.477-32.833l0.046-1.514c0.296-9.487-1.636-24.263-5.16-39.524
			c-3.718-16.115-27.025-35.428-59.591-39.856C310.405,141.884,296.908,140.188,284.359,140.188z"/>
	</g>
	<g>
		<path fill="#8C441F" d="M281.395,309.628c-21.434-2.185-24.828,1.965-49.654-14.043c-24.825-16.008-36.91-25.812-25.806-51.617
			c11.107-25.803,14.702-39.524,14.702-47.688c0-8.167-20.589-32.952,5.866-46.344c26.463-13.396,46.393-11.149,80.044-6.576
			c33.647,4.573,57.817,24.826,61.736,41.812c3.922,16.986,5.499,31.32,5.229,40.179c-0.271,8.862-0.982,20.251,4.244,33.323
			c6.953,17.383,14.046,56.182-31.034,60.102C301.646,322.693,302.818,311.814,281.395,309.628z"/>
		<path fill="#3C2517" d="M329.294,322.177c-16.892,0-24.451-2.905-31.759-5.715c-4.773-1.832-9.283-3.563-16.402-4.291
			c-4.721-0.479-8.568-0.651-11.969-0.801c-12.225-0.541-18.956-0.838-38.81-13.636c-24.432-15.756-38.795-26.83-26.767-54.773
			c9.886-22.971,14.49-37.806,14.49-46.682c0-1.496-1.223-4.464-2.518-7.608c-4.599-11.159-12.298-29.836,9.789-41.017
			c14.403-7.291,27.343-10.402,43.268-10.402c11.114,0,22.875,1.481,38.271,3.574c34.755,4.723,59.776,25.964,63.885,43.772
			c3.671,15.895,5.599,30.777,5.294,40.832l-0.051,1.53c-0.273,8.435-0.618,18.929,4.111,30.763
			c2.65,6.625,10.495,29.568,0.069,46.504c-6.129,9.955-17.315,15.709-33.254,17.094
			C340.429,321.889,334.492,322.177,329.294,322.177z M268.617,142.364c-15.069,0-27.316,2.947-40.959,9.851
			c-16.521,8.365-13.111,20.578-7.371,34.509c1.624,3.939,2.902,7.048,2.902,9.556c0,9.592-4.733,25.066-14.907,48.702
			c-9.984,23.204-1.116,31.713,24.846,48.454c18.69,12.053,24.562,12.311,36.263,12.828c3.465,0.151,7.396,0.325,12.264,0.819
			c7.795,0.799,12.837,2.731,17.713,4.606c6.875,2.642,13.982,5.371,29.928,5.371c5.053,0,10.843-0.278,17.207-0.832
			c14.238-1.237,24.11-6.178,29.345-14.682c7.291-11.84,4.538-29.421-0.464-41.927c-5.129-12.827-4.768-23.915-4.473-32.826
			l0.047-1.521c0.288-9.491-1.641-24.268-5.165-39.526c-3.717-16.115-27.022-35.428-59.59-39.856
			C291.005,143.827,279.41,142.364,268.617,142.364z"/>
	</g>
	<g>
		<path fill="#8C441F" d="M260.979,310.052c-21.431-2.188-24.829,1.962-49.651-14.047c-24.825-16.01-36.911-25.81-25.806-51.612
			c11.104-25.807,14.698-39.528,14.698-47.694s-4.406-30.981,22.057-44.373c26.456-13.396,30.208-13.119,63.854-8.545
			c33.647,4.575,57.821,24.828,61.737,41.812c3.922,16.986,5.499,31.321,5.227,40.182c-0.268,8.858-0.977,20.251,4.251,33.316
			c6.95,17.386,14.043,56.187-31.034,60.107C281.229,323.115,282.408,312.236,260.979,310.052z"/>
		<path fill="#3C2517" d="M308.884,322.598c-16.897,0-24.454-2.902-31.763-5.712c-4.773-1.836-9.285-3.567-16.4-4.293
			c-4.722-0.479-8.574-0.649-11.97-0.799c-12.225-0.539-18.956-0.842-38.81-13.64c-24.432-15.756-38.796-26.829-26.771-54.775
			c9.886-22.971,14.49-37.802,14.49-46.681c0-0.848-0.05-1.86-0.105-3.008c-0.49-10.048-1.511-30.953,23.563-43.646
			c16.014-8.106,24.342-11.659,36.881-11.659c7.065,0,15.425,1.087,28.474,2.862c34.762,4.726,59.778,25.965,63.884,43.771
			c3.671,15.89,5.599,30.774,5.294,40.832l-0.051,1.524c-0.273,8.435-0.618,18.933,4.115,30.769
			c2.653,6.629,10.488,29.576,0.066,46.508c-6.129,9.955-17.316,15.707-33.251,17.093
			C320.019,322.311,314.082,322.598,308.884,322.598z M258,143.499c-10.806,0-18.107,2.773-34.572,11.108
			c-22.116,11.194-21.238,29.174-20.768,38.834c0.063,1.242,0.112,2.34,0.112,3.258c0,9.597-4.733,25.075-14.907,48.705
			c-9.984,23.2-1.113,31.716,24.846,48.452c18.69,12.053,24.562,12.313,36.265,12.832c3.465,0.151,7.395,0.323,12.26,0.819
			c7.8,0.795,12.842,2.734,17.718,4.604c6.874,2.642,13.979,5.373,29.931,5.373c5.049,0,10.837-0.28,17.2-0.834
			c14.238-1.239,24.11-6.18,29.345-14.68c7.288-11.84,4.539-29.424-0.461-41.93c-5.131-12.834-4.77-23.921-4.479-32.836l0.05-1.51
			c0.288-9.495-1.644-24.273-5.165-39.526c-3.713-16.115-27.019-35.427-59.59-39.856C272.947,144.567,264.734,143.499,258,143.499z"
			/>
	</g>
	<g>
		<path fill="#EDAF98" d="M241.704,312.014c-21.43-2.189-24.825,1.957-49.651-14.048c-24.829-16.006-36.914-25.809-25.807-51.612
			c11.104-25.81,14.699-39.528,14.699-47.694s2.285-26.131,28.745-39.526c26.459-13.392,23.517-17.965,57.166-13.392
			c33.646,4.572,57.82,24.826,61.735,41.812c3.923,16.986,5.499,31.317,5.231,40.179c-0.272,8.862-0.98,20.251,4.246,33.324
			c6.95,17.383,14.043,56.178-31.033,60.1C261.956,325.076,263.132,314.193,241.704,312.014z"/>
		<path fill="#3C2517" d="M289.609,324.557c-16.895,0-24.455-2.902-31.762-5.709c-4.773-1.837-9.283-3.568-16.402-4.289
			c-4.728-0.484-8.58-0.656-11.976-0.808c-12.225-0.539-18.952-0.84-38.806-13.64c-24.432-15.752-38.796-26.825-26.768-54.77
			c9.889-22.974,14.49-37.808,14.49-46.683c0-17.366,10.425-31.823,30.146-41.806c5.466-2.766,9.58-5.105,13.211-7.169
			c9.325-5.3,14.464-8.221,25.638-8.221c4.833,0,10.945,0.539,19.816,1.745c34.758,4.722,59.778,25.963,63.884,43.771
			c3.671,15.895,5.599,30.777,5.294,40.828l-0.05,1.524c-0.271,8.435-0.616,18.936,4.114,30.772
			c2.649,6.625,10.491,29.573,0.069,46.506c-6.129,9.953-17.318,15.709-33.254,17.094
			C300.745,324.271,294.805,324.557,289.609,324.557z M247.383,146.578c-9.819,0-13.983,2.366-23.11,7.552
			c-3.501,1.989-7.854,4.464-13.427,7.285c-17.889,9.056-27.343,21.936-27.343,37.246c0,9.594-4.741,25.068-14.911,48.705
			c-9.984,23.202-1.116,31.713,24.846,48.452c18.688,12.048,24.558,12.31,36.259,12.826c3.468,0.152,7.396,0.328,12.267,0.824
			c7.798,0.795,12.845,2.73,17.72,4.605c6.871,2.641,13.98,5.369,29.928,5.369c5.05,0,10.841-0.277,17.204-0.834
			c14.237-1.236,24.106-6.178,29.342-14.68c7.288-11.841,4.541-29.421-0.461-41.927c-5.131-12.83-4.768-23.925-4.477-32.836
			l0.047-1.514c0.291-9.488-1.64-24.264-5.165-39.523c-3.714-16.117-27.019-35.43-59.59-39.856
			C257.878,147.1,251.979,146.578,247.383,146.578z"/>
	</g>
	<g>
		<path fill="#EDAF98" d="M133.729,256.492c0,0-33.87,4.048-39.995,11.886c-6.126,7.841-15.68,27.442-7.975,49.88
			c5.079,14.785,25.678,38.43,39.823,45.176c14.603,6.978,52.673,24.746,67.865,12.256c15.186-12.496,23.763-23.52,34.788-23.766
			c11.024-0.244,27.949-1.77,24.511-17.545c-3.442-15.775-44.354-33.098-52.683-34.6c-8.332-1.51-59.783-30.176-59.289-31.889
			C141.265,266.174,133.729,256.492,133.729,256.492z"/>
		<path fill="#3C2517" d="M178.619,382.58h-0.003c-18.873,0-44.494-12.23-54.134-16.834c-14.597-6.965-35.741-30.943-41.139-46.656
			c-9.64-28.062,6.503-49.887,8.375-52.281c6.589-8.436,38.13-12.428,41.704-12.856c0.901-0.097,1.772,0.262,2.319,0.967
			c5.437,6.985,7.093,10.235,7.504,11.938c5.804,4.734,50.473,29.177,57.271,30.404c7.633,1.379,50.852,18.797,54.724,36.572
			c1.14,5.225,0.375,9.582-2.27,12.943c-5.086,6.453-15.858,7.506-24.681,7.705c-7.255,0.157-13.698,5.942-22.616,13.953
			c-3.127,2.809-6.672,5.987-10.604,9.229C191.103,380.923,185.566,382.58,178.619,382.58z M132.592,259.208
			c-12.823,1.656-33.009,5.837-36.841,10.747c-1.7,2.173-16.336,21.963-7.577,47.471c4.963,14.445,25.118,37.314,38.512,43.701
			c9.354,4.473,34.218,16.338,51.934,16.338l0,0c5.731,0,10.174-1.258,13.202-3.75c3.846-3.166,7.348-6.307,10.438-9.082
			c9.371-8.416,16.769-15.061,25.919-15.266c4.521-0.1,16.534-0.365,20.771-5.754c1.684-2.133,2.106-4.975,1.299-8.691
			c-3.001-13.758-41.473-30.975-50.639-32.627c-7.683-1.393-58.388-28.76-60.962-32.896c-0.271-0.44-0.428-1.022-0.421-1.576
			C137.819,266.552,135.179,262.636,132.592,259.208z"/>
	</g>
	<g>
		<path fill="#EDAF98" d="M172.623,260.785c0,0-13.722-16.415-37.242-9.799c-23.517,6.615-32.355,24.945-34.545,30.623
			c-1.408,3.66-5.142,17.885,8.086,36.506c13.231,18.619,38.955,32.338,45.812,34.545c6.864,2.205,38.832,6.367,55.552-3.432
			c16.723-9.801,24.564-17.644,40.729-16.662c16.174,0.983,30.631-2.449,28.666-12.982c-1.955-10.535-1.955-15.607-19.599-19.559
			c-17.638-3.963-49.049-11.978-59.289-19.639C190.556,272.717,172.623,260.785,172.623,260.785z"/>
		<path fill="#3C2517" d="M179.806,358.005c-11.578,0-22.086-1.7-25.85-2.914c-8.076-2.598-33.946-16.967-47.117-35.498
			c-14.421-20.297-9.518-35.967-8.389-38.901c2.233-5.781,11.43-25.188,36.238-32.167c3.933-1.103,7.861-1.663,11.682-1.663
			c16.391,0,26.224,10.061,27.949,11.987c2.342,1.56,18.532,12.397,28.01,19.491c10.8,8.086,47.366,16.729,58.313,19.188
			c17.607,3.947,19.323,9.279,21.27,20.019l0.283,1.57c0.641,3.428-0.121,6.563-2.209,9.075c-4.869,5.857-15.637,7.091-23.812,7.091
			l0,0c-1.735,0-3.515-0.058-5.312-0.166c-12.008-0.736-18.954,3.646-29.87,10.534c-2.783,1.759-5.937,3.748-9.412,5.781
			C202.312,356.867,189.188,358.005,179.806,358.005z M146.37,251.973c-3.35,0-6.814,0.493-10.293,1.475
			c-22.523,6.334-30.842,23.861-32.854,29.082c-0.967,2.506-5.128,15.936,7.782,34.104c12.297,17.308,37.146,31.222,44.511,33.587
			c3.353,1.079,13.387,2.672,24.289,2.672c8.749,0,20.91-1.017,29.188-5.869c3.405-1.994,6.388-3.877,9.27-5.695
			c11.293-7.125,19.23-12.17,32.909-11.312c1.691,0.103,3.365,0.152,5.002,0.152c9.862,0.004,17.11-1.912,19.881-5.244
			c1.112-1.338,1.478-2.93,1.115-4.869l-0.295-1.598c-1.648-9.141-2.27-12.559-17.352-15.941
			c-14.353-3.219-48.963-11.627-60.26-20.082c-10.07-7.539-27.88-19.401-28.06-19.521c-0.205-0.138-0.388-0.299-0.546-0.49
			C170.576,262.325,161.645,251.973,146.37,251.973z"/>
	</g>
</g>
</svg>
