<?xml version="1.0" encoding="utf-8"?>
<!-- Generator: Adobe Illustrator 16.0.0, SVG Export Plug-In . SVG Version: 6.00 Build 0)  -->
<!DOCTYPE svg PUBLIC "-//W3C//DTD SVG 1.1//EN" "http://www.w3.org/Graphics/SVG/1.1/DTD/svg11.dtd">
<svg version="1.1" id="Layer_1" xmlns="http://www.w3.org/2000/svg" xmlns:xlink="http://www.w3.org/1999/xlink" x="0px" y="0px"
	 width="500px" height="500px" viewBox="0 0 500 500" enable-background="new 0 0 500 500" xml:space="preserve">
<g id="Layer_1_copy_55">
	<g>
		<path fill="#4E4E4E" d="M453.286,268.246c0,49.807-91.723,90.179-204.864,90.179c-113.145,0-204.863-40.372-204.863-90.179
			c0-49.807,91.719-90.182,204.863-90.182C361.562,178.063,453.286,218.438,453.286,268.246z"/>
		<path fill="#211010" d="M248.422,361.852c-55.188,0-107.123-9.481-146.245-26.701c-40.009-17.615-62.045-41.375-62.045-66.904
			c0-25.532,22.036-49.291,62.045-66.904c39.122-17.222,91.057-26.705,146.245-26.705c55.187,0,107.12,9.483,146.242,26.705
			c40.009,17.613,62.049,41.373,62.049,66.904c0,25.529-22.04,49.289-62.049,66.904C355.542,352.37,303.607,361.852,248.422,361.852
			z M248.422,181.491c-111.074,0-201.437,38.918-201.437,86.755c0,47.835,90.362,86.752,201.437,86.752
			c111.071,0,201.438-38.917,201.438-86.752C449.858,220.409,359.493,181.491,248.422,181.491z"/>
	</g>
	<g>
		<path fill="#818181" d="M231.628,141.479c78.894-3.758,149.108,12.813,195.323,45.792c26.079,18.611,56.558,56.15,37.382,100.935
			c-3.633,8.485-8.495,17.849-14.953,25.233c-61.157,69.916-233.305,85.223-335.507,41.117
			c-35.092-15.143-64.548-35.346-77.568-64.483c-23.084-51.662,17.692-91.416,49.53-110.278
			c24.284-14.383,54.383-26.105,88.786-32.708C191.946,143.758,211.761,142.425,231.628,141.479z M175.552,184.467
			c-34.348,6.876-63.284,17.723-86.912,36.448c-9.131,7.24-23.398,23.734-23.363,39.251c0.043,18.289,14.256,31.047,26.168,40.188
			c61.79,47.41,189.327,56.366,273.825,24.297c25.869-9.814,70.093-32.041,70.093-64.483c0-18.675-14.917-32.891-28.973-42.988
			c-42.883-30.815-106.098-42.477-173.824-39.252C211.729,178.919,193.349,180.906,175.552,184.467z"/>
		<path fill="#27140E" d="M249.562,382.792c-50.887,0-99.559-8.911-137.046-25.089c-41.471-17.896-67.425-39.561-79.341-66.234
			c-10.782-24.128-9.313-47.881,4.361-70.602c13.387-22.236,34.911-37.125,46.556-44.021c25.938-15.362,57.02-26.818,89.88-33.126
			c17.804-3.42,38.152-4.744,57.491-5.665c7.353-0.351,14.757-0.527,21.994-0.527c70.729,0,133.051,16.676,175.48,46.954
			c30.933,22.072,57.303,61.266,38.547,105.075c-4.744,11.065-9.822,19.617-15.526,26.137
			C415.756,357.087,338.204,382.792,249.562,382.792z M253.458,144.382c-7.133,0-14.422,0.175-21.67,0.519
			c-19.084,0.909-39.141,2.211-56.521,5.55c-32.098,6.163-62.416,17.328-87.682,32.292c-70.053,41.5-54.566,91.571-48.151,105.928
			c11.182,25.03,35.977,45.556,75.796,62.741c36.654,15.818,84.357,24.525,134.333,24.525c86.722,0,162.298-24.808,197.239-64.752
			c5.227-5.978,9.929-13.932,14.38-24.33c17.157-40.066-7.464-76.272-36.223-96.795
			C383.682,160.604,322.773,144.382,253.458,144.382z M251.477,347.036h-0.004c-65.634,0-126.237-16.435-162.115-43.962
			c-13.577-10.42-27.465-23.661-27.508-42.897c-0.042-17.675,16.112-35.166,24.66-41.946c22.384-17.739,50.461-29.536,88.37-37.123
			c17.289-3.461,35.567-5.56,57.521-6.605c7.279-0.346,14.566-0.522,21.66-0.522c64.168,0,117.534,13.976,154.326,40.416
			c20.457,14.697,30.4,29.668,30.4,45.771c0,36.328-50.562,59.439-72.303,67.689C333.424,340.404,293.654,347.036,251.477,347.036z
			 M254.061,180.833c-6.98,0-14.163,0.174-21.334,0.515c-21.601,1.03-39.554,3.089-56.499,6.479
			c-36.805,7.369-63.959,18.735-85.457,35.775c-8.889,7.047-22.102,22.601-22.065,36.555c0.035,16.274,12.57,28.075,24.824,37.479
			c34.721,26.644,93.766,42.548,157.944,42.548c40.767,0,80.749-6.65,112.581-18.729c61.267-23.255,67.881-50.604,67.881-61.287
			c0-13.734-9.01-26.885-27.544-40.205C368.769,194.365,316.784,180.833,254.061,180.833z"/>
	</g>
	<g opacity="0.62">
		<g>
			<path fill="#E6E8CD" d="M226.445,180.154c0,0-101.977,34.763-112.808,44.411c-10.832,9.65-44.551,15.187-30.843,31.467
				c13.708,16.278-1.999,37.698,17.705,39.127c19.706,1.428,38.27,11.709,46.837,16.276c8.567,4.572,26.943,19.422,47.886,13.426
				c20.941-5.996,54.071,1.709,67.493,3.429c13.424,1.71,32.842,3.997,45.694-2.57c12.853-6.571,68.257-14.625,78.538-20.45
				c10.281-5.824,41.98-40.097,21.417-58.375c-20.562-18.278-21.132-32.105-25.417-34.759c-4.282-2.654-14.563-16.361-35.983-15.792
				c-21.42,0.572-40.838-10.565-58.546-10.281C270.714,186.348,239.013,168.818,226.445,180.154z"/>
		</g>
	</g>
	<g>
		<g>
			<path fill="#E5E5E5" d="M254.932,126.933c0,0-36.625-7.965-56.396,37.279c-16.326,37.355,11.103,70.803,36.487,77.021
				c5.359,1.314,29.98,0.062,37.663-1.062c20.056-2.949,39.353-12.853,38.647-44.417
				C311.333,195.754,312.951,131.713,254.932,126.933z"/>
		</g>
		<g>
			<path fill="#CDCCCC" d="M244.271,244.08c-0.004,0,0,0-0.004,0c-4.861,0-8.065-0.207-9.789-0.626
				c-14.973-3.669-29.571-15.995-37.192-31.404c-5.366-10.848-9.867-28.112-0.845-48.752c5.15-11.783,20.522-39.189,51.984-39.189
				c3.683,0,6.179,0.433,6.827,0.559c59.354,4.985,58.38,70.483,58.363,71.144c0.603,26.851-13.061,42.572-40.6,46.621
				C267.699,243.208,254.275,244.08,244.271,244.08z M248.426,128.678c-11.903,0-33.938,4.736-47.798,36.448
				c-8.314,19.03-4.18,34.921,0.754,44.899c7.051,14.25,20.463,25.628,34.185,28.987c0.757,0.19,2.896,0.498,8.701,0.498h0.004
				c9.658,0,23.028-0.858,28.083-1.599c25.236-3.708,37.24-17.482,36.693-42.106c0.003-0.264,0.302-15.951-6.326-31.931
				c-8.748-21.099-24.89-32.762-47.978-34.664l-0.298-0.044C254.428,129.163,252.111,128.678,248.426,128.678z"/>
		</g>
	</g>
	<g>
		<g>
			<path fill="#E5E5E5" d="M336.71,204.349c0,0-36.362-6.854-59.667,24.275c-18.814,25.133-6.578,56.783,3.816,71.646
				c2.48,3.551,12.25,11.086,17.395,13.576c21.397,10.354,66.396,23.545,89.927-22.96
				C388.181,290.886,414.302,220.342,336.71,204.349z"/>
		</g>
		<g>
			<path fill="#CDCCCC" d="M337.854,326.139L337.854,326.139c-16.928,0-32.699-6.416-40.596-10.234
				c-5.223-2.529-15.4-10.223-18.27-14.324c-10.659-15.241-23.447-48.045-3.773-74.323c16.824-22.477,40.246-25.832,52.712-25.832
				c5.533,0,9.06,0.652,9.206,0.678c24.297,5.008,41.166,15.78,50.18,32.027c14.419,25.994,3.482,56.271,3.012,57.55l-0.103,0.234
				C378.731,314.619,361.112,326.139,337.854,326.139z M327.927,205.994c-11.61,0-33.421,3.119-49.052,24
				c-18.111,24.189-6.098,54.732,3.859,68.972c2.19,3.14,11.606,10.444,16.516,12.823c7.542,3.648,22.59,9.775,38.604,9.775
				c21.353,0,37.575-10.627,48.225-31.582c0.711-2.024,10.208-30.287-2.778-53.667c-8.342-15.01-24.169-25.013-47.051-29.729l0,0
				C336.245,206.586,332.988,205.994,327.927,205.994z"/>
		</g>
	</g>
	<g>
		<g>
			<path fill="#E5E5E5" d="M100.447,248.863c0,0,0.013,37.003,34.928,54.125c28.186,13.824,57.017-4.076,69.696-17.051
				c3.023-3.092,8.616-14.095,10.104-19.608c6.209-22.947,10.818-69.611-39.249-84.104
				C175.926,182.226,101.765,169.652,100.447,248.863z"/>
		</g>
		<g>
			<path fill="#CDCCCC" d="M156.841,310.268h-0.003c-7.837,0-15.396-1.763-22.469-5.229c-35.779-17.548-36.205-55.79-36.205-56.176
				c1.042-62.868,47.132-69.651,66.897-69.651c6.67,0,11.061,0.73,11.244,0.762l0.255,0.058
				c55.35,16.022,45.239,70.562,40.822,86.894c-1.514,5.602-7.178,17.028-10.681,20.612
				C195.966,298.525,177.229,310.268,156.841,310.268z M165.062,183.781c-22.875,0-61.391,8.459-62.327,65.122
				c0,0.314,0.478,35.771,33.646,52.035c6.441,3.158,13.325,4.765,20.457,4.765c18.992,0,36.97-11.507,46.599-21.361
				c2.676-2.739,8.111-13.348,9.537-18.606c5.301-19.615,12.249-66.77-37.546-81.274C174.7,184.348,170.729,183.781,165.062,183.781
				z"/>
		</g>
	</g>
	<g>
		<path fill="#B6A632" d="M342.716,223.243c0,0-11.994-5.999-20.276-1.999c-8.282,3.997-11.137,3.243-11.137,3.243
			s-9.992,4.467,4.57,9.606c14.562,5.14,25.414,0.573,26.843-1.141C344.145,231.239,349.334,225.63,342.716,223.243z"/>
	</g>
	<g>
		<path fill="#8D8030" d="M267.066,147.994c-2.322,4.57-20.236-1.428-23.953,2.57c-3.708,3.999-13.134-1.428-9.134-5.712
			c3.997-4.284,13.708-3.712,13.708-3.712S269.391,143.426,267.066,147.994z"/>
	</g>
	<g>
		<path fill="#667030" d="M164.733,200.518c0,0-19.706-9.139-19.991,0c-0.288,9.139,5.995,10.567,9.992,11.711
			c4.001,1.142,18.852,3.332,24.565-3.617C185.007,201.659,183.874,203.019,164.733,200.518z"/>
	</g>
</g>
</svg>
