<?xml version="1.0" encoding="utf-8"?>
<!-- Generator: Adobe Illustrator 16.0.0, SVG Export Plug-In . SVG Version: 6.00 Build 0)  -->
<!DOCTYPE svg PUBLIC "-//W3C//DTD SVG 1.1//EN" "http://www.w3.org/Graphics/SVG/1.1/DTD/svg11.dtd">
<svg version="1.1" id="Layer_1" xmlns="http://www.w3.org/2000/svg" xmlns:xlink="http://www.w3.org/1999/xlink" x="0px" y="0px"
	 width="500px" height="500px" viewBox="0 0 500 500" enable-background="new 0 0 500 500" xml:space="preserve">
<g id="Layer_1_copy_84">
	<g>
		<g>
			<path fill="#FDDC1F" d="M475.934,248.187c0,127.437-103.302,230.738-230.734,230.738c-127.429,0-230.733-103.301-230.733-230.738
				c0-127.43,103.305-230.734,230.733-230.734C372.632,17.452,475.934,120.757,475.934,248.187z"/>
		</g>
		<g>
			<path fill="#FCB022" d="M245.198,482.385c-129.135,0-234.199-105.062-234.199-234.199S116.063,13.989,245.198,13.989
				c129.14,0,234.199,105.062,234.199,234.197C479.397,377.322,374.338,482.385,245.198,482.385z M245.198,20.915
				c-125.316,0-227.27,101.953-227.27,227.271c0,125.321,101.953,227.277,227.27,227.277c125.316,0,227.272-101.956,227.272-227.277
				C472.472,122.868,370.516,20.915,245.198,20.915z"/>
		</g>
	</g>
	<g>
		<path fill="#4C230D" d="M249.403,268.557c-4.396,0-7.596-1.515-9.719-3.078c-5.146-3.772-8.093-10.836-8.093-19.379
			c0-15.242,15.539-19.27,23.753-19.27c1.911,0,3.461,1.55,3.461,3.465c0,1.911-1.547,3.46-3.457,3.46
			c-0.746,0-16.832,0.241-16.832,12.344c0,6.313,1.919,11.345,5.263,13.794c2.665,1.959,6.211,2.265,10.528,0.905
			c1.823-0.573,3.77,0.438,4.34,2.265c0.572,1.826-0.439,3.771-2.267,4.34C253.784,268.223,251.463,268.557,249.403,268.557z"/>
	</g>
	<g>
		<path fill="#27140E" d="M106.239,119.202c0,0,32.962-1.915,70.707-27.742c37.754-25.829,4.258,13.871,4.258,13.871
			s-30.308,38.535-72.842,25.725C89.323,121.272,106.239,119.202,106.239,119.202z"/>
		<path fill="#27140E" d="M125.753,135.973c-6.017,0-12.089-0.912-18.057-2.708c-0.134-0.041-0.261-0.094-0.389-0.156
			c-7.687-3.953-10.843-7.241-10.234-10.663c0.754-4.22,6.993-5.303,8.883-5.537c0.474-0.034,32.968-2.235,69.688-27.354
			c11.834-8.098,15.716-9.136,17.775-9.136c2.263,0,3.161,1.41,3.441,2.015c1.574,3.39-3.098,11.594-13.892,24.385
			C182.078,107.951,159.648,135.973,125.753,135.973z M109.233,128.907c5.464,1.624,11.02,2.447,16.52,2.447
			c31.616,0,53.424-27.177,53.64-27.451c5.735-6.804,11.724-15.182,12.97-18.652c-1.73,0.527-5.627,2.311-14.106,8.114
			c-37.845,25.891-70.509,28.062-71.883,28.14c-2.161,0.277-4.483,1.223-4.767,1.792l0,0
			C101.632,123.297,101.985,125.154,109.233,128.907z"/>
	</g>
	<g>
		<path fill="#27140E" d="M385.224,119.202c0,0-32.963-1.915-70.712-27.742c-37.748-25.829-4.257,13.871-4.257,13.871
			s30.312,38.535,72.845,25.725C402.14,121.272,385.224,119.202,385.224,119.202z"/>
		<path fill="#27140E" d="M365.717,135.973h-0.008c-33.892-0.004-56.332-28.021-57.267-29.216
			c-10.743-12.728-15.417-20.931-13.841-24.321c0.279-0.605,1.183-2.015,3.439-2.015c2.06,0,5.941,1.038,17.771,9.136
			c36.803,25.172,69.219,27.322,69.544,27.34c2.042,0.248,8.277,1.331,9.03,5.551c0.608,3.422-2.544,6.709-10.233,10.663
			c-0.124,0.062-0.255,0.115-0.39,0.156C377.802,135.061,371.729,135.973,365.717,135.973z M299.093,85.244
			c1.245,3.466,7.23,11.844,12.929,18.599c0.266,0.334,22.071,27.508,53.688,27.511h0.008c5.492,0,11.045-0.823,16.517-2.447
			c7.368-3.817,7.604-5.671,7.607-5.689c-0.265-0.489-2.586-1.436-4.9-1.725c-1.221-0.065-33.886-2.237-71.729-28.128
			C304.698,87.541,300.799,85.764,299.093,85.244z"/>
	</g>
	<g>
		<path fill="#4C230D" d="M156.45,212.114c-18.63,0-35.978-9.224-46.418-24.677c-1.426-2.113-0.87-4.983,1.242-6.411
			c2.113-1.426,4.983-0.87,6.409,1.242c8.721,12.907,23.209,20.611,38.767,20.611c15.918,0,30.598-7.989,39.26-21.37
			c1.388-2.141,4.247-2.753,6.385-1.366c2.141,1.387,2.753,4.245,1.366,6.384C193.088,202.548,175.51,212.114,156.45,212.114z"/>
	</g>
	<g>
		<path fill="#4C230D" d="M339.143,212.114c-18.626,0-35.974-9.224-46.412-24.677c-1.426-2.113-0.875-4.983,1.242-6.411
			c2.116-1.43,4.982-0.87,6.408,1.242c8.72,12.907,23.208,20.611,38.762,20.611c15.923,0,30.599-7.989,39.266-21.37
			c1.384-2.14,4.242-2.755,6.385-1.366c2.141,1.387,2.753,4.245,1.365,6.384C375.784,202.548,358.207,212.114,339.143,212.114z"/>
	</g>
	<g>
		<path fill="#4C230D" d="M355.429,399.114c-2.552,0-4.613-2.066-4.613-4.622c0-41.318-47.384-74.946-105.616-74.946
			s-105.611,33.628-105.611,74.946c0,2.556-2.07,4.622-4.619,4.622c-2.548,0-4.615-2.066-4.615-4.622
			c0-46.416,51.521-84.184,114.846-84.184c63.329,0,114.849,37.768,114.849,84.184C360.047,397.047,357.977,399.114,355.429,399.114
			z"/>
	</g>
</g>
</svg>
