<?xml version="1.0" encoding="utf-8"?>
<!-- Generator: Adobe Illustrator 16.0.0, SVG Export Plug-In . SVG Version: 6.00 Build 0)  -->
<!DOCTYPE svg PUBLIC "-//W3C//DTD SVG 1.1//EN" "http://www.w3.org/Graphics/SVG/1.1/DTD/svg11.dtd">
<svg version="1.1" id="Layer_1" xmlns="http://www.w3.org/2000/svg" xmlns:xlink="http://www.w3.org/1999/xlink" x="0px" y="0px"
	 width="500px" height="500px" viewBox="0 0 500 500" enable-background="new 0 0 500 500" xml:space="preserve">
<g id="Layer_1_copy_17">
	<g>
		<path fill="#C6DCE5" d="M257.909,464.257c81.271,2.241,106.583-17.559,106.583-17.559L347.688,180.4
			c0,0-5.229-0.747-17.185-10.828c-10.442-8.815-4.633-25.422-2.995-29.475c0.232-0.583,0.381-0.908,0.381-0.908H188.802
			c0,0,9.338,20.298-2.611,30.383c-11.954,10.082-17.182,10.828-17.182,10.828l-16.806,266.298c0,0,25.312,19.8,106.59,17.559
			H257.909z"/>
		<path fill="#27140E" d="M270.495,467.96c-3.951,0-8.038-0.057-12.144-0.163c-4.104,0.106-8.189,0.163-12.136,0.163
			c-0.004,0-0.004,0-0.004,0c-71.725,0-95.22-17.725-96.183-18.479c-0.916-0.721-1.425-1.841-1.352-3l16.813-266.3
			c0.104-1.669,1.364-3.035,3.02-3.269l0,0c-0.026,0,4.825-1.111,15.401-10.036c9.791-8.258,1.769-26.032,1.688-26.209
			c-0.502-1.092-0.411-2.364,0.237-3.377c0.644-1.012,1.766-1.624,2.964-1.624h139.09c1.199,0,2.314,0.61,2.964,1.616
			c0.647,1.008,0.741,2.278,0.248,3.368c-0.019,0.033-0.133,0.304-0.325,0.771c-1.194,2.958-6.713,18.102,2.006,25.455
			c10.615,8.96,15.466,10.043,15.519,10.054c1.549,0.323,2.805,1.664,2.903,3.25l16.812,266.299c0.075,1.16-0.434,2.28-1.349,3
			C365.701,450.236,342.212,467.96,270.495,467.96z M259.289,460.761c3.791,0.102,7.557,0.146,11.206,0.146
			c59.127,0,84.31-12.439,90.35-16.034l-16.528-261.864c-2.964-1.218-8.174-4.071-16.084-10.745
			c-9.947-8.389-7.688-22.019-5.386-29.547H193.849c2.247,7.367,4.599,21.124-5.386,29.547c-7.91,6.673-13.124,9.526-16.085,10.745
			l-16.529,261.864c6.014,3.58,31.197,16.034,90.359,16.034c0,0,0.005,0,0.009,0c3.643,0,7.409-0.045,11.196-0.146
			c0.163-0.021,0.329-0.029,0.496-0.029h0.884C258.962,460.731,259.125,460.74,259.289,460.761z"/>
	</g>
	<g>
		<path fill="#7F8080" d="M188.356,110.307h142.912c0,0,47.812-62.747-27.389-73.205c-34.354-5.975-91.169,0.124-96.598,0
			C201.853,36.982,147.522,57.521,188.356,110.307z"/>
		<path fill="#27140E" d="M331.269,113.832H188.356c-1.092,0-2.122-0.504-2.784-1.368c-15.697-20.283-19.791-38.434-12.177-53.947
			c8.422-17.168,28.803-24.941,33.833-24.941c0.01,0,0.016,0,0.016,0c1.331,0,4.471-0.223,8.434-0.505
			c10.468-0.742,29.94-2.124,49.517-2.124c15.843,0,29.061,0.902,39.294,2.682c22.89,3.18,37.35,11.576,42.851,24.934
			c9.645,23.404-12.323,52.647-13.266,53.88C333.408,113.319,332.37,113.832,331.269,113.832z M190.103,106.78h139.354
			c4.005-5.789,18.417-28.448,11.355-45.543c-4.484-10.866-17.07-17.812-37.418-20.641C293.448,38.867,280.632,38,265.195,38
			c-19.327,0-37.912,1.318-49.015,2.106c-4.45,0.315-7.389,0.524-8.719,0.524c-0.031,0-0.235-0.001-0.265-0.001
			c-2.663,0.146-20.951,6.709-27.812,21.715C173.7,74.772,177.305,89.718,190.103,106.78z"/>
	</g>
	<g>
		<path fill="#5E5F5F" d="M342.738,124.747c0,7.978-7.067,14.442-15.783,14.442H192.551c-8.713,0-15.775-6.464-15.775-14.442l0,0
			c0-7.974,7.062-14.44,15.775-14.44h134.404C335.671,110.307,342.738,116.773,342.738,124.747L342.738,124.747z"/>
		<path fill="#27140E" d="M326.955,142.717H192.551c-10.645,0-19.306-8.06-19.306-17.97c0-9.906,8.661-17.967,19.306-17.967h134.404
			c10.651,0,19.308,8.061,19.308,17.967C346.263,134.657,337.606,142.717,326.955,142.717z M192.551,113.832
			c-6.758,0-12.249,4.898-12.249,10.915c0,6.021,5.491,10.917,12.249,10.917h134.404c6.761,0,12.257-4.897,12.257-10.917
			c0-6.017-5.496-10.915-12.257-10.915H192.551z"/>
	</g>
	<g>
		<g>
			<path fill="#211010" d="M239.312,51.921c0,2.062-6.944,3.735-15.5,3.735c-8.56,0-15.499-1.673-15.499-3.735
				s6.939-3.735,15.499-3.735C232.367,48.186,239.312,49.858,239.312,51.921z"/>
			<path fill="#27140E" d="M223.812,56.831c-6.193,0-16.678-1.035-16.678-4.91c0-3.877,10.484-4.911,16.678-4.911
				s16.67,1.033,16.67,4.911C240.481,55.796,230.005,56.831,223.812,56.831z M223.812,49.362c-8.746,0-13.907,1.687-14.342,2.635
				c0.435,0.794,5.596,2.483,14.342,2.483c8.745,0,13.904-1.689,14.335-2.636C237.716,51.049,232.557,49.362,223.812,49.362z"/>
		</g>
		<g>
			<path fill="#211010" d="M276.464,51.921c0,2.062-6.938,3.735-15.489,3.735c-8.562,0-15.5-1.673-15.5-3.735
				s6.938-3.735,15.5-3.735C269.525,48.186,276.464,49.858,276.464,51.921z"/>
			<path fill="#27140E" d="M260.975,56.831c-6.195,0-16.68-1.035-16.68-4.91c0-3.877,10.482-4.911,16.68-4.911
				c6.189,0,16.666,1.033,16.666,4.911C277.641,55.796,267.164,56.831,260.975,56.831z M260.975,49.362
				c-8.748,0-13.909,1.687-14.34,2.635c0.431,0.794,5.592,2.483,14.34,2.483c8.74,0,13.896-1.689,14.321-2.636
				C274.87,51.049,269.715,49.362,260.975,49.362z"/>
		</g>
		<g>
			<ellipse fill="#211010" cx="295.701" cy="51.921" rx="15.501" ry="3.735"/>
			<path fill="#27140E" d="M295.699,56.831c-6.194,0-16.68-1.035-16.68-4.91c0-3.877,10.484-4.911,16.68-4.911
				c6.194,0,16.673,1.033,16.673,4.911C312.372,55.796,301.894,56.831,295.699,56.831z M295.699,49.362
				c-8.747,0-13.908,1.687-14.335,2.633c0.427,0.796,5.588,2.485,14.335,2.485c8.748,0,13.906-1.689,14.333-2.636
				C309.605,51.049,304.447,49.362,295.699,49.362z"/>
		</g>
	</g>
	<g>
		<path fill="#27140E" d="M257.725,203.485c-9.586,0.002-20.176-2.355-30.267-9.498c-32.089,18.736-56.303-7.289-56.548-7.56
			c-1.309-1.443-1.198-3.672,0.242-4.979c1.441-1.31,3.667-1.2,4.977,0.234c0.894,0.978,21.601,22.974,49.62,5.085
			c1.252-0.803,2.884-0.729,4.06,0.188c26.082,20.246,56.359,2.405,57.63,1.635c0.843-0.505,1.858-0.643,2.801-0.371
			c0.353,0.103,35.293,9.902,51.149-6.969c1.332-1.419,3.562-1.49,4.981-0.154c1.421,1.335,1.487,3.566,0.155,4.984
			c-16.989,18.073-49.481,11.151-56.804,9.298C285.648,197.526,272.96,203.485,257.725,203.485z"/>
	</g>
	<g>
		<path fill="#F5F7F7" d="M172.26,308.855c0,0,6.234-23.965,23.673-23.914c17.435,0.051,24.842,17.996,24.842,17.996
			s8.685,8.972,31.724,5.213c23.021-3.758,32.887-0.461,37.317,1.177c4.433,1.631,42.698-2.372,46.13-2.697
			c3.427-0.331,9.156-5.589,8.547,0.271c0.05,1.392,8.42,130.917,8.662,133.814c-5.03,9.97-133.151,23.07-190.01-0.859
			L172.26,308.855z"/>
	</g>
	<g>
		<line fill="none" x1="211.959" y1="428.775" x2="227.646" y2="189.737"/>
		<path fill="#27140E" d="M211.966,432.301c-0.08,0-0.155-0.005-0.236-0.008c-1.944-0.13-3.412-1.807-3.287-3.754l15.688-239.031
			c0.125-1.944,1.814-3.43,3.744-3.289c1.947,0.13,3.417,1.807,3.291,3.75l-15.688,239.034
			C215.359,430.869,213.806,432.301,211.966,432.301z"/>
	</g>
	<g>
		<line fill="none" x1="301.962" y1="428.775" x2="289.268" y2="191.608"/>
		<path fill="#27140E" d="M301.962,432.301c-1.866,0-3.424-1.461-3.521-3.339l-12.693-237.166c-0.111-1.945,1.383-3.607,3.33-3.708
			c2.003-0.099,3.602,1.388,3.713,3.332l12.693,237.167c0.104,1.939-1.39,3.604-3.337,3.709
			C302.084,432.296,302.021,432.301,301.962,432.301z"/>
	</g>
</g>
</svg>
