<?xml version="1.0" encoding="utf-8"?>
<!-- Generator: Adobe Illustrator 16.0.0, SVG Export Plug-In . SVG Version: 6.00 Build 0)  -->
<!DOCTYPE svg PUBLIC "-//W3C//DTD SVG 1.1//EN" "http://www.w3.org/Graphics/SVG/1.1/DTD/svg11.dtd">
<svg version="1.1" id="Layer_1" xmlns="http://www.w3.org/2000/svg" xmlns:xlink="http://www.w3.org/1999/xlink" x="0px" y="0px"
	 width="500px" height="500px" viewBox="0 0 500 500" enable-background="new 0 0 500 500" xml:space="preserve">
<g id="Layer_1_copy_96">
	<g>
		<g>
			<g>
				<path fill="#84D4EF" d="M331.951,52.142c-3.443-2.105-7.985-1.009-10.087,2.434L113.623,395.432
					c-2.101,3.439-1.008,7.982,2.436,10.082l73.255,44.756c3.441,2.098,7.978,1.006,10.083-2.44l208.235-340.853
					c2.105-3.444,1.011-7.981-2.433-10.084L331.951,52.142z M352.528,110.555c-6.171,0-11.17-5.001-11.17-11.168
					c0-6.167,4.999-11.168,11.17-11.168c6.167,0,11.166,5.001,11.166,11.168C363.694,105.554,358.695,110.555,352.528,110.555z"/>
			</g>
		</g>
		<g>
			<g>
				<path fill="#27140E" d="M193.117,455.003L193.117,455.003c-2.02,0-3.996-0.56-5.719-1.609l-73.249-44.749
					c-2.502-1.522-4.261-3.949-4.953-6.81c-0.692-2.867-0.228-5.817,1.301-8.319L318.731,52.664
					c1.986-3.246,5.592-5.261,9.411-5.261c2.021,0,3.996,0.558,5.717,1.608l73.248,44.751c2.504,1.528,4.262,3.947,4.953,6.808
					c0.691,2.862,0.229,5.818-1.3,8.319L202.525,449.738C200.543,452.99,196.939,455.003,193.117,455.003z M328.144,54.739
					c-1.282,0-2.491,0.671-3.149,1.75L116.759,397.34c-0.511,0.831-0.662,1.816-0.431,2.775c0.234,0.957,0.815,1.762,1.646,2.271
					l73.249,44.742c0.572,0.349,1.226,0.538,1.894,0.538l0,0c1.302,0,2.479-0.657,3.147-1.756L404.5,105.062
					c0.507-0.828,0.659-1.811,0.43-2.769c-0.234-0.959-0.813-1.766-1.646-2.272l-73.246-44.75
					C329.469,54.923,328.811,54.739,328.144,54.739z M352.528,114.222c-8.182,0-14.838-6.654-14.838-14.835
					c0-8.181,6.656-14.835,14.838-14.835c8.177,0,14.833,6.655,14.833,14.835C367.361,107.567,360.705,114.222,352.528,114.222z
					 M352.528,91.888c-4.138,0-7.503,3.363-7.503,7.499c0,4.136,3.365,7.499,7.503,7.499c4.131,0,7.498-3.363,7.498-7.499
					C360.026,95.251,356.659,91.888,352.528,91.888z"/>
			</g>
		</g>
	</g>
	<g>
		<line fill="none" x1="291.686" y1="111.895" x2="336.285" y2="139.145"/>
		<path fill="#27140E" d="M336.282,142.812c-0.649,0-1.314-0.173-1.913-0.539l-44.598-27.249c-1.728-1.056-2.271-3.314-1.217-5.043
			c1.055-1.727,3.313-2.272,5.041-1.216l44.602,27.25c1.729,1.056,2.271,3.314,1.218,5.043
			C338.722,142.188,337.52,142.812,336.282,142.812z"/>
	</g>
	<g>
		<line fill="none" x1="272.823" y1="142.772" x2="303.271" y2="161.374"/>
		<path fill="#27140E" d="M303.271,165.042c-0.659,0-1.315-0.173-1.912-0.539l-30.451-18.602c-1.729-1.054-2.271-3.313-1.217-5.041
			c1.06-1.729,3.317-2.277,5.045-1.217l30.446,18.603c1.729,1.055,2.275,3.312,1.22,5.041
			C305.71,164.417,304.5,165.042,303.271,165.042z"/>
	</g>
	<g>
		<line fill="none" x1="255.788" y1="170.649" x2="300.389" y2="197.896"/>
		<path fill="#27140E" d="M300.389,201.564c-0.652,0-1.313-0.173-1.913-0.539l-44.597-27.248c-1.729-1.056-2.273-3.312-1.218-5.042
			c1.057-1.729,3.315-2.273,5.042-1.217l44.603,27.247c1.727,1.056,2.271,3.314,1.216,5.042
			C302.829,200.938,301.62,201.564,300.389,201.564z"/>
	</g>
	<g>
		<line fill="none" x1="236.927" y1="201.525" x2="267.372" y2="220.127"/>
		<path fill="#27140E" d="M267.369,223.795c-0.65,0-1.311-0.173-1.91-0.538l-30.445-18.601c-1.727-1.056-2.271-3.314-1.216-5.043
			c1.055-1.725,3.31-2.274,5.041-1.216l30.445,18.602c1.729,1.054,2.272,3.312,1.218,5.042
			C269.811,223.171,268.605,223.795,267.369,223.795z"/>
	</g>
	<g>
		<line fill="none" x1="219.896" y1="229.401" x2="264.495" y2="256.648"/>
		<path fill="#27140E" d="M264.489,260.316c-0.647,0-1.312-0.172-1.909-0.534l-44.598-27.25c-1.729-1.056-2.273-3.314-1.218-5.043
			c1.06-1.727,3.314-2.274,5.041-1.216l44.599,27.249c1.729,1.055,2.271,3.312,1.22,5.045
			C266.93,259.697,265.727,260.316,264.489,260.316z"/>
	</g>
	<g>
		<line fill="none" x1="201.033" y1="260.277" x2="231.483" y2="278.88"/>
		<path fill="#27140E" d="M231.476,282.547c-0.65,0-1.314-0.172-1.909-0.535l-30.445-18.604c-1.729-1.058-2.272-3.314-1.218-5.046
			c1.056-1.727,3.314-2.266,5.046-1.217l30.441,18.606c1.729,1.056,2.272,3.313,1.218,5.044
			C233.916,281.924,232.713,282.547,231.476,282.547z"/>
	</g>
	<g>
		<line fill="none" x1="183.476" y1="289.014" x2="228.077" y2="316.264"/>
		<path fill="#27140E" d="M228.074,319.93c-0.653,0-1.311-0.176-1.908-0.539l-44.6-27.25c-1.73-1.057-2.272-3.314-1.216-5.041
			c1.052-1.73,3.313-2.271,5.041-1.222l44.599,27.252c1.727,1.06,2.276,3.313,1.217,5.041
			C230.519,319.303,229.308,319.93,228.074,319.93z"/>
	</g>
	<g>
		<line fill="none" x1="164.614" y1="319.889" x2="195.062" y2="338.486"/>
		<path fill="#27140E" d="M195.062,342.157c-0.654,0-1.311-0.175-1.909-0.534l-30.45-18.605c-1.727-1.057-2.272-3.313-1.216-5.045
			c1.056-1.728,3.314-2.262,5.04-1.218l30.451,18.606c1.727,1.056,2.272,3.312,1.217,5.041
			C197.502,341.535,196.296,342.157,195.062,342.157z"/>
	</g>
	<g>
		<line fill="none" x1="147.062" y1="348.62" x2="191.664" y2="375.868"/>
		<path fill="#27140E" d="M191.656,379.532c-0.65,0-1.308-0.175-1.905-0.54l-44.602-27.24c-1.73-1.057-2.276-3.314-1.221-5.047
			c1.061-1.729,3.315-2.266,5.045-1.219l44.599,27.248c1.727,1.056,2.276,3.314,1.22,5.043
			C194.1,378.909,192.894,379.532,191.656,379.532z"/>
	</g>
	<g>
		<line fill="none" x1="128.194" y1="379.497" x2="158.643" y2="398.102"/>
		<path fill="#27140E" d="M158.64,401.773c-0.649,0-1.312-0.183-1.905-0.547l-30.449-18.598c-1.731-1.062-2.272-3.314-1.221-5.042
			c1.056-1.728,3.313-2.272,5.046-1.217l30.449,18.599c1.728,1.063,2.273,3.314,1.213,5.041
			C161.084,401.145,159.874,401.773,158.64,401.773z"/>
	</g>
</g>
</svg>
