<?xml version="1.0" encoding="utf-8"?>
<!-- Generator: Adobe Illustrator 16.0.0, SVG Export Plug-In . SVG Version: 6.00 Build 0)  -->
<!DOCTYPE svg PUBLIC "-//W3C//DTD SVG 1.1//EN" "http://www.w3.org/Graphics/SVG/1.1/DTD/svg11.dtd">
<svg version="1.1" id="Layer_1" xmlns="http://www.w3.org/2000/svg" xmlns:xlink="http://www.w3.org/1999/xlink" x="0px" y="0px"
	 width="500px" height="500px" viewBox="0 0 500 500" enable-background="new 0 0 500 500" xml:space="preserve">
<g id="Layer_1_copy_75">
	<g>
		<path fill="#D7684E" d="M162.684,32.833c0,0,60.483,40.948,173.257,2.519c35.272,35.91-30.874,63.63-30.874,63.63l-131.044-3.779
			L162.684,32.833z"/>
		<path fill="#27140E" d="M305.066,102.983c-0.035,0-0.077,0-0.116,0l-131.044-3.782c-1.886-0.054-3.479-1.423-3.819-3.282
			l-11.336-62.371c-0.294-1.584,0.4-3.187,1.748-4.068c1.352-0.88,3.091-0.864,4.43,0.04c0.266,0.177,27.832,18.281,79.23,18.281
			c28.428,0,58.873-5.462,90.491-16.238c1.448-0.495,3.064-0.115,4.144,0.984c9.313,9.485,13.005,19.436,10.963,29.579
			c-4.882,24.259-41.586,39.894-43.144,40.547C306.122,102.878,305.596,102.983,305.066,102.983z M177.382,91.296l126.9,3.659
			c5.089-2.289,33.933-16.007,37.631-34.42c1.383-6.885-0.949-13.631-7.131-20.571c-31.578,10.511-62.052,15.838-90.623,15.838
			c-38.584,0-64.128-9.604-76.031-15.394L177.382,91.296z"/>
	</g>
	<g>
		<path fill="#047C7E" d="M108.503,372.072c0,4.349-3.526,7.879-7.874,7.879l0,0c-4.348,0-7.874-3.53-7.874-7.879v-44.1
			c0-4.356,3.526-7.877,7.874-7.877l0,0c4.348,0,7.874,3.521,7.874,7.877V372.072z"/>
		<path fill="#27140E" d="M100.629,383.948c-6.547,0-11.876-5.33-11.876-11.876v-44.1c0-6.551,5.329-11.88,11.876-11.88
			c6.55,0,11.877,5.329,11.877,11.88v44.1C112.506,378.618,107.179,383.948,100.629,383.948z M100.629,324.094
			c-2.135,0-3.873,1.743-3.873,3.879v44.1c0,2.136,1.738,3.873,3.873,3.873c2.135,0,3.873-1.737,3.873-3.873v-44.1
			C104.502,325.837,102.764,324.094,100.629,324.094z"/>
	</g>
	<g>
		<path fill="#047C7E" d="M143.784,373.014c0,4.352-3.525,7.879-7.87,7.879l0,0c-4.353,0-7.878-3.527-7.878-7.879v-44.099
			c0-4.356,3.525-7.878,7.878-7.878l0,0c4.345,0,7.87,3.521,7.87,7.878V373.014z"/>
		<path fill="#27140E" d="M135.914,384.891c-6.55,0-11.88-5.33-11.88-11.877v-44.099c0-6.55,5.33-11.88,11.88-11.88
			c6.55,0,11.872,5.33,11.872,11.88v44.099C147.786,379.561,142.464,384.891,135.914,384.891z M135.914,325.039
			c-2.14,0-3.876,1.742-3.876,3.877v44.1c0,2.137,1.736,3.873,3.876,3.873c2.135,0,3.868-1.736,3.868-3.873v-44.1
			C139.782,326.781,138.049,325.039,135.914,325.039z"/>
	</g>
	<g>
		<path fill="#047C7E" d="M176.544,373.646c0,4.349-3.522,7.877-7.875,7.877l0,0c-4.348,0-7.87-3.528-7.87-7.877v-44.104
			c0-4.348,3.522-7.875,7.87-7.875l0,0c4.353,0,7.875,3.527,7.875,7.875V373.646z"/>
		<path fill="#27140E" d="M168.669,385.521c-6.549,0-11.871-5.328-11.871-11.875v-44.104c0-6.546,5.322-11.875,11.871-11.875
			c6.551,0,11.876,5.329,11.876,11.875v44.104C180.545,380.193,175.22,385.521,168.669,385.521z M168.669,325.669
			c-2.134,0-3.868,1.741-3.868,3.873v44.104c0,2.133,1.734,3.871,3.868,3.871c2.14,0,3.873-1.738,3.873-3.871v-44.104
			C172.542,327.411,170.809,325.669,168.669,325.669z"/>
	</g>
	<g>
		<path fill="#047C7E" d="M209.308,373.646c0,4.349-3.525,7.877-7.875,7.877l0,0c-4.349,0-7.876-3.528-7.876-7.877v-44.104
			c0-4.348,3.527-7.875,7.876-7.875l0,0c4.35,0,7.875,3.527,7.875,7.875V373.646z"/>
		<path fill="#27140E" d="M201.433,385.521c-6.549,0-11.878-5.328-11.878-11.875v-44.104c0-6.546,5.329-11.875,11.878-11.875
			c6.551,0,11.878,5.329,11.878,11.875v44.104C213.311,380.193,207.983,385.521,201.433,385.521z M201.433,325.669
			c-2.139,0-3.876,1.741-3.876,3.873v44.104c0,2.133,1.737,3.871,3.876,3.871c2.137,0,3.872-1.738,3.872-3.871v-44.104
			C205.305,327.411,203.569,325.669,201.433,325.669z"/>
	</g>
	<g>
		<path fill="#047C7E" d="M303.181,468.777c0,4.35-3.53,7.871-7.874,7.871l0,0c-4.353,0-7.88-3.521-7.88-7.871v-44.105
			c0-4.339,3.527-7.869,7.88-7.869l0,0c4.344,0,7.874,3.53,7.874,7.869V468.777z"/>
		<path fill="#27140E" d="M295.307,480.654c-6.55,0-11.88-5.332-11.88-11.877v-44.105c0-6.545,5.33-11.875,11.88-11.875
			c6.545,0,11.875,5.33,11.875,11.875v44.105C307.182,475.322,301.852,480.654,295.307,480.654z M295.307,420.799
			c-2.137,0-3.877,1.737-3.877,3.872v44.105c0,2.137,1.74,3.872,3.877,3.872c2.131,0,3.872-1.735,3.872-3.872v-44.105
			C299.179,422.537,297.438,420.799,295.307,420.799z"/>
	</g>
	<g>
		<path fill="#047C7E" d="M335.31,466.884c0,4.349-3.521,7.878-7.874,7.878l0,0c-4.353,0-7.879-3.529-7.879-7.878v-44.099
			c0-4.348,3.526-7.878,7.879-7.878l0,0c4.353,0,7.874,3.53,7.874,7.878V466.884z"/>
		<path fill="#27140E" d="M327.436,478.767c-6.552,0-11.881-5.329-11.881-11.883v-44.099c0-6.545,5.329-11.875,11.881-11.875
			c6.55,0,11.875,5.33,11.875,11.875v44.099C339.311,473.438,333.984,478.767,327.436,478.767z M327.436,418.913
			c-2.136,0-3.876,1.737-3.876,3.873v44.099c0,2.135,1.74,3.881,3.876,3.881c2.135,0,3.873-1.746,3.873-3.881v-44.099
			C331.309,420.65,329.569,418.913,327.436,418.913z"/>
	</g>
	<g>
		<path fill="#047C7E" d="M369.332,468.777c0,4.35-3.527,7.871-7.878,7.871l0,0c-4.349,0-7.879-3.521-7.879-7.871v-44.105
			c0-4.339,3.53-7.869,7.879-7.869l0,0c4.351,0,7.878,3.53,7.878,7.869V468.777z"/>
		<path fill="#27140E" d="M361.454,480.654c-6.551,0-11.881-5.332-11.881-11.877v-44.105c0-6.545,5.33-11.875,11.881-11.875
			c6.548,0,11.878,5.33,11.878,11.875v44.105C373.332,475.322,368.002,480.654,361.454,480.654z M361.454,420.799
			c-2.136,0-3.878,1.737-3.878,3.872v44.105c0,2.137,1.742,3.872,3.878,3.872c2.138,0,3.876-1.735,3.876-3.872v-44.105
			C365.33,422.537,363.592,420.799,361.454,420.799z"/>
	</g>
	<g>
		<path fill="#047C7E" d="M404.607,466.86c0,5.059-3.523,9.155-7.874,9.155l0,0c-4.354,0-7.878-4.098-7.878-9.155v-51.298
			c0-5.058,3.524-9.156,7.878-9.156l0,0c4.351,0,7.874,4.1,7.874,9.156V466.86z"/>
		<path fill="#27140E" d="M396.733,480.023c-6.552,0-11.881-5.907-11.881-13.163v-51.298c0-7.256,5.329-13.16,11.881-13.16
			c6.55,0,11.876,5.904,11.876,13.16v51.298C408.609,474.116,403.283,480.023,396.733,480.023z M396.733,410.412
			c-2.101,0-3.877,2.354-3.877,5.15v51.298c0,2.798,1.776,5.158,3.877,5.158c2.1,0,3.873-2.36,3.873-5.158v-51.298
			C400.606,412.764,398.833,410.412,396.733,410.412z"/>
	</g>
	<g>
		<path fill="#F8A589" d="M99.055,121.661L81.416,308.755c0,0-7.562,26.458,36.541,23.938h74.967c0,0,27.095,5.675,27.095-27.717
			c0-33.395,0-132.286,0-132.286l-22.054-65.519L99.055,121.661z"/>
		<path fill="#27140E" d="M197.269,337.059c-2.22,0-3.919-0.229-4.703-0.363h-74.608c-1.856,0.115-3.831,0.171-5.694,0.171
			c-15.145,0-25.641-3.738-31.2-11.106c-5.549-7.357-4.063-15.689-3.601-17.675l17.611-186.797c0.172-1.837,1.578-3.318,3.401-3.586
			l98.91-14.488c1.917-0.28,3.757,0.851,4.376,2.683l22.049,65.52c0.139,0.413,0.21,0.844,0.21,1.277V304.98
			C224.02,312.503,222.088,337.059,197.269,337.059z M193.742,328.779c0,0,1.432,0.277,3.526,0.277
			c8.553,0,18.748-4.178,18.748-24.078V173.347l-20.778-61.73l-92.493,13.549L85.397,309.13c-0.021,0.246-0.064,0.491-0.135,0.726
			c-0.059,0.225-1.595,6.146,2.248,11.154c3.935,5.141,12.494,7.854,24.752,7.854c1.724,0,3.541-0.056,5.464-0.166l75.197-0.005
			C193.2,328.693,193.477,328.725,193.742,328.779L193.742,328.779z"/>
	</g>
	<g>
		<path fill="#F8A589" d="M394.034,114.081l17.646,276.328c0,0,7.56,39.069-36.544,35.354h-74.968c0,0-27.091,8.377-27.091-40.94
			c0-49.313,0-218.055,0-218.055l22.053-74.085L394.034,114.081z"/>
		<path fill="#27140E" d="M295.827,430.298c-4.769,0.008-11.646-1.449-17.343-8.393c-6.239-7.613-9.408-20.089-9.408-37.085V166.767
			c0-0.388,0.056-0.771,0.168-1.142l22.049-74.085c0.596-2.007,2.648-3.208,4.68-2.771l98.909,21.4
			c1.747,0.379,3.036,1.872,3.149,3.656l17.624,276.101c0.399,2.338,2.612,17.807-6.609,28.979
			c-6.986,8.471-18.476,12.146-34.076,10.861h-74.295C299.771,429.978,298.036,430.298,295.827,430.298z M277.08,167.349v217.473
			c0,14.883,2.625,25.947,7.6,32.013c3.707,4.519,8.109,5.47,11.147,5.461c1.891,0,3.181-0.358,3.195-0.358
			c0.359-0.108,0.771-0.173,1.146-0.173h74.968c0.114,0,0.228,0,0.34,0.019c12.852,1.082,22.118-1.607,27.364-7.934
			c7.395-8.914,4.934-22.552,4.905-22.692c-0.029-0.155-0.051-0.334-0.063-0.499L390.24,117.356l-92.335-19.978L277.08,167.349z"/>
	</g>
	<g>
		<path fill="#F8A589" d="M162.684,32.833l-70.56,71.819c0,0,11.974,72.45,165.062,69.302
			c131.038-6.93,144.905-68.042,144.905-68.042l-66.149-70.56c0,0-23.314,42.842-90.094,42.21
			C179.064,76.93,162.684,32.833,162.684,32.833z"/>
		<path fill="#27140E" d="M247.611,178.054c-145.724,0-158.943-69.778-159.438-72.748c-0.207-1.262,0.197-2.548,1.093-3.459
			l70.566-71.82c0.958-0.976,2.346-1.396,3.689-1.109c1.341,0.288,2.439,1.238,2.915,2.52c0.635,1.685,16.449,41.528,79.448,42.123
			l1.418,0.005c62.562,0,84.905-39.726,85.122-40.127c0.615-1.128,1.73-1.893,3.009-2.057c1.27-0.161,2.546,0.296,3.429,1.233
			l66.146,70.561c0.907,0.969,1.274,2.326,0.985,3.622c-0.597,2.617-16.062,64.142-148.601,71.152
			C253.979,178.021,250.771,178.054,247.611,178.054z M96.546,105.858c1.42,4.752,6.546,17.89,22.47,30.906
			c19.376,15.836,59.31,34.79,138.087,33.188c112.656-5.959,136.589-52.905,140.447-63.031l-61.045-65.114
			c-8.189,11.35-34.202,39.761-89.202,39.761l-1.496-0.006c-55.194-0.521-77.306-29.495-84.245-41.881L96.546,105.858z"/>
	</g>
	<g>
		<g>
			<polygon fill="#D62B57" points="402.403,304.739 406.653,374.434 386.892,359.471 341.552,390.025 301.116,361.045 
				276.012,379.951 276.012,309.387 300.577,291.115 340.27,319.783 382.166,288.277 			"/>
		</g>
		<g>
			<path fill="#27140E" d="M341.528,391.648l-40.39-28.949l-26.459,19.925v-73.91l25.891-19.252l39.683,28.666l41.942-31.54
				l21.501,17.485l4.47,73.175l-21.321-16.139L341.528,391.648z M301.099,359.396l40.477,29.002l45.359-30.57l18.216,13.794
				l-4.045-66.222l-18.971-15.428l-41.85,31.465l-39.695-28.666l-23.242,17.281v67.227L301.099,359.396z"/>
		</g>
	</g>
	<g>
		<path fill="#27140E" d="M342.867,358.748c-0.825,0-1.655-0.258-2.36-0.764l-37.28-27.229l-26.61,20.246l-4.843-6.372l28.983-22.05
			c1.406-1.065,3.354-1.091,4.785-0.046l37.329,27.262l41.737-30.414c1.483-1.074,3.504-1.018,4.913,0.151l22.054,18.266
			l-5.108,6.165l-19.652-16.281l-41.584,30.303C344.524,358.49,343.698,358.748,342.867,358.748z"/>
	</g>
	<g>
		<path fill="#27140E" d="M342.896,393.393c-0.817,0-1.639-0.248-2.335-0.748l-38.056-27.273l-27.173,20.3l-4.787-6.412
			l29.519-22.047c1.396-1.044,3.309-1.065,4.726-0.046l38.106,27.305l42.594-30.469c1.466-1.045,3.455-0.988,4.852,0.156
			l22.461,18.271l-5.047,6.213l-20.092-16.351l-42.438,30.353C344.524,393.145,343.706,393.393,342.896,393.393z"/>
	</g>
	<g>
		<path fill="#27140E" d="M340.946,322.207c-0.849,0-1.695-0.271-2.407-0.805l-36.126-27.137l-25.751,20.159l-4.934-6.301
			l28.167-22.058c1.431-1.113,3.426-1.137,4.872-0.045l36.179,27.181l40.46-30.331c1.487-1.12,3.568-1.064,4.994,0.154
			l21.435,18.269l-5.19,6.09l-18.999-16.19l-40.303,30.209C342.634,321.938,341.789,322.207,340.946,322.207z"/>
	</g>
	<g>
		<g>
			<polygon fill="#D62B57" points="93.697,218.369 86.139,293.635 105.671,276.311 151.007,306.859 191.439,277.884 
				216.551,296.783 216.551,226.243 191.981,207.974 152.289,236.638 110.393,205.138 			"/>
		</g>
		<g>
			<path fill="#27140E" d="M151.032,308.482l-45.252-30.487l-21.312,18.901l7.954-79.222l17.95-14.22l41.932,31.527l39.689-28.663
				l25.89,19.253v73.882l-26.461-19.92L151.032,308.482z M105.554,274.627l45.431,30.609l40.478-29.012l23.752,17.883v-67.195
				l-23.249-17.285l-39.689,28.668l-41.858-31.472L94.97,219.061l-7.157,71.312L105.554,274.627z"/>
		</g>
	</g>
	<g>
		<path fill="#27140E" d="M151.032,276.217c-0.822,0-1.649-0.257-2.354-0.766l-41.585-30.287L87.436,261.45l-5.104-6.164
			l22.051-18.265c1.409-1.167,3.433-1.233,4.908-0.154l41.742,30.395l37.334-27.241c1.429-1.042,3.372-1.023,4.779,0.046
			l28.982,22.031l-4.845,6.373l-26.606-20.229l-37.284,27.204C152.691,275.96,151.861,276.217,151.032,276.217z"/>
	</g>
	<g>
		<path fill="#27140E" d="M151.007,310.861c-0.813,0-1.631-0.252-2.324-0.745l-42.442-30.351l-20.094,16.342l-5.05-6.209
			l22.462-18.271c1.4-1.137,3.382-1.2,4.853-0.148l42.596,30.463l38.106-27.308c1.417-1.016,3.328-0.997,4.723,0.041l29.525,22.052
			l-4.788,6.41l-27.181-20.296l-38.052,27.271C152.644,310.609,151.827,310.861,151.007,310.861z"/>
	</g>
	<g>
		<path fill="#27140E" d="M152.959,239.691c-0.845,0-1.691-0.267-2.399-0.798l-40.303-30.21l-18.998,16.196l-5.19-6.093
			l21.43-18.271c1.426-1.214,3.499-1.278,4.999-0.156l40.459,30.328l36.178-27.174c1.448-1.087,3.443-1.067,4.869,0.048
			l28.171,22.049l-4.938,6.302l-25.751-20.157l-36.12,27.134C154.651,239.424,153.807,239.691,152.959,239.691z"/>
	</g>
</g>
</svg>
