<?xml version="1.0" encoding="utf-8"?>
<!-- Generator: Adobe Illustrator 16.0.0, SVG Export Plug-In . SVG Version: 6.00 Build 0)  -->
<!DOCTYPE svg PUBLIC "-//W3C//DTD SVG 1.1//EN" "http://www.w3.org/Graphics/SVG/1.1/DTD/svg11.dtd">
<svg version="1.1" id="Layer_1" xmlns="http://www.w3.org/2000/svg" xmlns:xlink="http://www.w3.org/1999/xlink" x="0px" y="0px"
	 width="500px" height="500px" viewBox="0 0 500 500" enable-background="new 0 0 500 500" xml:space="preserve">
<g id="Layer_1_copy_11">
	<g>
		<path fill="#EEB11E" d="M47.728,347.438c0,0,0.666-171.736,0-169.729c-0.675,2.008-2.351-31.466,35.812-37.159h288.722
			c0,0,37.827-3.014,41.848,41.176v78.335c0,0,17.237-0.168,22.093,0c4.862,0.168,31.809,6.357,35.826,33.146v28.788l0.522,25.494
			l-26.639-0.053c0,0-1.671-39.836-39.165-40.841c-37.495-1.009-42.854,40.841-42.854,40.841H181.298c0,0,0-40.17-40.176-41.511
			c-40.168-1.345-42.849,41.511-42.849,41.511H47.728V347.438z"/>
		<path fill="#27140E" d="M472.551,350.432h-0.004l-26.638-0.053c-1.572-0.003-2.865-1.245-2.934-2.811
			c-0.068-1.518-2.059-37.113-36.309-38.028c-14.65-0.427-25.669,5.983-33.074,18.931c-5.485,9.596-6.768,19.243-6.783,19.34
			c-0.187,1.467-1.438,2.568-2.917,2.568H181.298c-1.622,0-2.939-1.316-2.942-2.936c-0.003-1.526-0.539-37.352-37.332-38.58
			c-36.978-1.15-39.716,37.148-39.814,38.762c-0.096,1.546-1.384,2.754-2.936,2.754H47.728c-0.783,0-1.532-0.312-2.085-0.867
			c-0.553-0.554-0.863-1.304-0.857-2.086c0.173-44.292,0.514-158.297,0.097-168.659c-0.146-0.389-0.252-0.854-0.295-1.409
			c-0.651-8.716,5.021-34.721,38.52-39.719c0.143-0.021,0.289-0.033,0.434-0.033h288.675c0.036-0.005,0.632-0.043,1.559-0.043
			c6.562,0,39.467,2.116,43.269,43.894c0.007,0.089,0.01,0.179,0.01,0.268v75.369c5.184-0.039,15.636-0.1,19.25,0.028
			c6.644,0.229,34.38,7.293,38.637,35.646c0.023,0.149,0.032,0.289,0.032,0.438v28.788l0.523,25.434
			c0.016,0.792-0.284,1.561-0.845,2.123C474.099,350.115,473.341,350.432,472.551,350.432z M448.562,344.501l20.984,0.042
			l-0.463-22.488v-28.623c-3.786-24.322-28.296-30.27-32.987-30.429c-4.821-0.169-21.964,0-21.964,0
			c-0.833,0.031-1.539-0.301-2.091-0.851c-0.56-0.555-0.878-1.307-0.878-2.092V181.86c-3.303-35.641-29.447-38.413-37.393-38.413
			c-0.771,0-1.228,0.031-1.279,0.035L83.763,143.49c-34.053,5.196-33.342,33.274-33.295,33.554
			c-0.017-0.085-0.037-0.175-0.064-0.263c0.66,3.159,0.65,16.349,0.515,86.031c-0.073,35.722-0.199,71.381-0.238,81.685h44.988
			c1.488-9.867,9.112-42.791,45.554-41.513c35.918,1.197,41.85,31.779,42.826,41.513h177.375c0.775-3.827,2.723-11.353,7.064-18.949
			c8.439-14.746,21.593-22.317,38.334-21.892C440.534,304.564,447.283,334.984,448.562,344.501z"/>
	</g>
	<g>
		<path fill="#C38A2B" d="M51.025,179.661l359.888-1.309c0,0-2.522-15.723-10.577-23.944c-8.467-8.634-18.449-11.087-35.979-10.893
			c-17.531,0.197-273.527-0.005-273.527-0.005s-19.519-1.022-29.584,9.328C51.272,163.09,48.655,177.546,51.025,179.661z"/>
		<path fill="#27140E" d="M50.574,180.839l-0.334-0.3c-0.731-0.658-1.139-1.852-1.198-3.546
			c-0.176-4.962,2.751-16.129,11.363-24.977c8.761-9.011,24.383-9.711,28.961-9.711c0.969,0,1.526,0.03,1.526,0.03
			c-0.196,0.029,115.865,0.09,197.069,0.09c45.604,0,71.305-0.028,76.383-0.084l1.89-0.011c17.427,0,26.898,3.05,34.941,11.255
			c8.227,8.394,10.793,23.924,10.899,24.581l0.219,1.358L50.574,180.839z M89.366,144.659c-4.347,0-19.154,0.648-27.277,9
			c-7.666,7.879-10.869,18.34-10.696,23.251c0.028,0.79,0.146,1.29,0.252,1.571l357.85-1.302c-0.818-3.934-3.65-15.472-9.999-21.946
			c-7.537-7.69-16.557-10.55-33.262-10.55l-1.863,0.011c-5.086,0.057-30.795,0.085-76.408,0.085
			c-81.174,0-197.133-0.091-197.133-0.091C90.75,144.685,90.243,144.659,89.366,144.659z"/>
	</g>
	<g>
		<path fill="#434143" d="M375.613,349.025c0,16.08,13.039,29.123,29.121,29.123c16.085,0,29.127-13.043,29.127-29.123
			c0-16.088-13.042-29.127-29.127-29.127C388.652,319.898,375.613,332.938,375.613,349.025z"/>
		<path fill="#27140E" d="M404.734,381.682c-18.007,0-32.648-14.65-32.648-32.656c0-18.008,14.643-32.653,32.648-32.653
			c18.012,0,32.657,14.646,32.657,32.653C437.393,367.031,422.746,381.682,404.734,381.682z M404.734,323.432
			c-14.113,0-25.593,11.479-25.593,25.594c0,14.113,11.479,25.597,25.593,25.597c14.115,0,25.599-11.483,25.599-25.597
			C430.333,334.91,418.851,323.432,404.734,323.432z"/>
	</g>
	<g>
		<path fill="#434143" d="M110.92,349.098c0,16.094,13.041,29.131,29.125,29.131c16.085,0,29.123-13.037,29.123-29.131
			c0-16.084-13.038-29.125-29.123-29.125C123.961,319.973,110.92,333.014,110.92,349.098z"/>
		<path fill="#27140E" d="M140.045,381.756c-18.007,0-32.652-14.648-32.652-32.658s14.646-32.652,32.652-32.652
			c18.004,0,32.654,14.644,32.654,32.652C172.699,367.107,158.049,381.756,140.045,381.756z M140.045,323.504
			c-14.115,0-25.596,11.48-25.596,25.594c0,14.117,11.48,25.6,25.596,25.6c14.112,0,25.594-11.481,25.594-25.6
			C165.639,334.984,154.157,323.504,140.045,323.504z"/>
	</g>
	<g>
		<path fill="#27140E" d="M138.078,367.902c-0.974,0-1.765-0.791-1.765-1.766c0-0.977,0.791-1.767,1.765-1.767
			c9.912,0,17.975-8.063,17.975-17.979c0-0.977,0.792-1.764,1.765-1.764c0.978,0,1.765,0.787,1.765,1.764
			C159.582,358.253,149.939,367.902,138.078,367.902z"/>
	</g>
	<g>
		<path fill="#27140E" d="M404.238,368.948c-0.978,0-1.769-0.788-1.769-1.765c0-0.978,0.791-1.765,1.769-1.765
			c9.917,0,17.981-8.065,17.981-17.981c0-0.97,0.791-1.765,1.766-1.765c0.976,0,1.763,0.795,1.763,1.765
			C425.748,359.295,416.097,368.948,404.238,368.948z"/>
	</g>
	<g>
		<g>
			<path fill="#5BC6CB" d="M286.525,234.439c0,1.941,1.586,3.528,3.527,3.528h29.765c1.944,0,3.529-1.586,3.529-3.528v-29.097
				c0-1.941-1.585-3.53-3.529-3.53h-29.765c-1.941,0-3.527,1.588-3.527,3.53V234.439z"/>
		</g>
		<g>
			<path fill="#27140E" d="M319.817,240.908h-29.765c-3.57,0-6.471-2.901-6.471-6.469v-29.097c0-3.57,2.898-6.473,6.471-6.473
				h29.765c3.573,0,6.471,2.903,6.471,6.473v29.097C326.288,238.007,323.392,240.908,319.817,240.908z M290.055,204.753
				c-0.32,0-0.586,0.27-0.586,0.589v29.097c0,0.319,0.266,0.587,0.586,0.587h29.764c0.323,0,0.592-0.268,0.592-0.587v-29.097
				c0-0.319-0.269-0.589-0.592-0.589H290.055z"/>
		</g>
	</g>
	<g>
		<g>
			<path fill="#5BC6CB" d="M233.964,234.439c0,1.941,1.586,3.528,3.532,3.528h29.77c1.937,0,3.527-1.586,3.527-3.528v-29.097
				c0-1.941-1.592-3.53-3.527-3.53h-29.77c-1.946,0-3.532,1.588-3.532,3.53V234.439L233.964,234.439z"/>
		</g>
		<g>
			<path fill="#27140E" d="M267.266,240.908h-29.77c-3.574,0-6.471-2.901-6.471-6.469v-29.097c0-3.57,2.896-6.473,6.471-6.473h29.77
				c3.564,0,6.467,2.903,6.467,6.473v29.097C273.732,238.007,270.83,240.908,267.266,240.908z M237.496,204.753
				c-0.324,0-0.589,0.27-0.589,0.589v29.097c0,0.319,0.265,0.587,0.589,0.587h29.77c0.314,0,0.586-0.268,0.586-0.587v-29.097
				c0-0.319-0.271-0.589-0.586-0.589H237.496z"/>
		</g>
	</g>
	<g>
		<g>
			<path fill="#5BC6CB" d="M181.404,234.439c0,1.941,1.588,3.528,3.531,3.528h29.766c1.942,0,3.528-1.586,3.528-3.528v-29.097
				c0-1.941-1.586-3.53-3.528-3.53h-29.766c-1.943,0-3.531,1.588-3.531,3.53V234.439z"/>
		</g>
		<g>
			<path fill="#27140E" d="M214.701,240.908h-29.766c-3.567,0-6.471-2.901-6.471-6.469v-29.097c0-3.57,2.903-6.473,6.471-6.473
				h29.766c3.567,0,6.472,2.903,6.472,6.473v29.097C221.173,238.007,218.269,240.908,214.701,240.908z M184.936,204.753
				c-0.321,0-0.587,0.27-0.587,0.589v29.097c0,0.319,0.266,0.587,0.587,0.587h29.766c0.321,0,0.59-0.268,0.59-0.587v-29.097
				c0-0.319-0.269-0.589-0.59-0.589H184.936z"/>
		</g>
	</g>
	<g>
		<g>
			<path fill="#5BC6CB" d="M128.847,234.439c0,1.941,1.589,3.528,3.532,3.528h29.766c1.939,0,3.527-1.586,3.527-3.528v-29.097
				c0-1.941-1.588-3.53-3.527-3.53h-29.766c-1.943,0-3.532,1.588-3.532,3.53V234.439z"/>
		</g>
		<g>
			<path fill="#27140E" d="M162.145,240.908h-29.766c-3.569,0-6.471-2.901-6.471-6.469v-29.097c0-3.57,2.901-6.473,6.471-6.473
				h29.766c3.567,0,6.467,2.903,6.467,6.473v29.097C168.611,238.007,165.712,240.908,162.145,240.908z M132.379,204.753
				c-0.318,0-0.59,0.27-0.59,0.589v29.097c0,0.319,0.271,0.587,0.59,0.587h29.766c0.316,0,0.585-0.268,0.585-0.587v-29.097
				c0-0.319-0.269-0.589-0.585-0.589H132.379z"/>
		</g>
	</g>
	<g>
		<g>
			<path fill="#5BC6CB" d="M74.098,235.151c0,1.945,1.586,3.528,3.529,3.528h29.766c1.938,0,3.531-1.583,3.531-3.528v-29.095
				c0-1.941-1.593-3.528-3.531-3.528H77.627c-1.943,0-3.529,1.587-3.529,3.528V235.151z"/>
		</g>
		<g>
			<path fill="#27140E" d="M107.393,241.62H77.627c-3.569,0-6.468-2.897-6.468-6.469v-29.095c0-3.568,2.898-6.471,6.468-6.471
				h29.766c3.567,0,6.471,2.903,6.471,6.471v29.095C113.863,238.723,110.96,241.62,107.393,241.62z M77.627,205.468
				c-0.318,0-0.586,0.268-0.586,0.587v29.095c0,0.323,0.268,0.586,0.586,0.586h29.766c0.317,0,0.589-0.264,0.589-0.586v-29.095
				c0-0.319-0.271-0.587-0.589-0.587H77.627z"/>
		</g>
	</g>
	<g>
		<path fill="#B2E1E7" d="M353.015,181.726v67.786c0,0,0.165,11.384,17.913,10.378l43.182,0.135"/>
		<path fill="#27140E" d="M414.108,262.966c0,0-0.005,0-0.011,0l-43.182-0.133c-7.268,0.422-12.935-1.132-16.665-4.608
			c-3.995-3.718-4.174-8.17-4.178-8.665v-67.834c0-1.625,1.314-2.942,2.939-2.942c1.621,0,2.941,1.317,2.941,2.942v67.786
			c0,0.02,0.137,2.454,2.395,4.492c2.488,2.252,6.781,3.271,12.408,2.949l43.359,0.128c1.625,0.004,2.938,1.328,2.933,2.951
			C417.048,261.654,415.732,262.966,414.108,262.966z"/>
	</g>
	<g>
		<polygon fill="#B2E1E7" points="355.682,184.027 411.112,184.027 411.112,257.096 363.993,209.709 		"/>
	</g>
	<g>
		<polygon fill="#211010" points="411.301,229.476 411.301,258.962 414.426,258.962 414.426,233.178 		"/>
		<path fill="#27140E" d="M415.602,260.139h-5.479v-33.882l5.479,6.489V260.139z M412.476,257.786h0.775v-24.179l-0.775-0.917
			V257.786z"/>
	</g>
	<g>
		<path fill="#EEB11E" d="M467.668,310.562c-10.79,0-19.534-8.402-19.534-18.766c0-7.977,5.181-14.785,12.48-17.507"/>
		<path fill="#27140E" d="M467.668,313.502c-12.395,0-22.477-9.738-22.477-21.705c0-8.91,5.784-17.055,14.394-20.265
			c1.523-0.556,3.218,0.206,3.79,1.733c0.566,1.52-0.215,3.215-1.734,3.778c-6.418,2.394-10.567,8.183-10.567,14.752
			c0,8.722,7.443,15.824,16.596,15.824c1.622,0,2.937,1.313,2.937,2.94C470.604,312.184,469.29,313.502,467.668,313.502z"/>
	</g>
	<g>
		<path fill="#D34544" d="M461.824,276.891c0,0-16.29,6.576-9.083,21.918c6.479,11.121,16.509,8.973,16.509,8.973v-14.313
			C469.25,293.467,467.881,284.012,461.824,276.891z"/>
		<path fill="#27140E" d="M467.209,309.126L467.209,309.126c-3.672,0-10.556-1.265-15.48-9.728
			c-2.272-4.828-2.603-9.267-1.021-13.289c2.761-7.047,10.354-10.18,10.676-10.31l0.789-0.317l0.547,0.645
			c6.209,7.299,7.641,16.773,7.692,17.17l0.017,15.436l-0.937,0.203C469.402,308.953,468.556,309.126,467.209,309.126z
			 M461.491,278.346c-1.883,0.942-6.696,3.762-8.604,8.637c-1.326,3.398-1.018,7.203,0.916,11.326
			c4.293,7.354,10.24,8.467,13.405,8.467c0.323,0,0.618-0.017,0.866-0.035v-13.272l0,0
			C468.062,293.467,466.754,284.995,461.491,278.346z"/>
	</g>
	<g>
		<path fill="#27140E" d="M414.108,184.667H47.93c-1.628,0-2.942-1.317-2.942-2.941c0-1.625,1.314-2.942,2.942-2.942h366.179
			c1.627,0,2.941,1.317,2.941,2.942C417.051,183.35,415.735,184.667,414.108,184.667z"/>
	</g>
</g>
</svg>
