<svg id="science_museum" data-name="science museum" xmlns="http://www.w3.org/2000/svg" viewBox="0 0 300 300"><defs><style>.cls-1{fill:#939598;}.cls-2{fill:#3c2415;}.cls-3{fill:#fff;}.cls-4{fill:#d1d3d4;}.cls-5{fill:#86eae3;}.cls-6{fill:#ffffae;}.cls-7{fill:#808285;}</style></defs><title>science museum</title><path class="cls-1" d="M138.51,158.31a6,6,0,0,1-7.75,3.45h0a6,6,0,0,1-3.45-7.76l3.72-9.7a6,6,0,0,1,7.76-3.45h0a6,6,0,0,1,3.45,7.75Z"/><path class="cls-2" d="M132.91,163.72a7.7,7.7,0,0,1-2.72-.5,7.57,7.57,0,0,1-4.34-9.77l3.72-9.71a7.64,7.64,0,0,1,7.07-4.86,7.6,7.6,0,0,1,6.91,4.5,7.52,7.52,0,0,1,.15,5.78L140,158.87A7.6,7.6,0,0,1,132.91,163.72Zm3.73-21.7a4.45,4.45,0,0,0-4.14,2.84l-3.73,9.71a4.43,4.43,0,0,0,2.55,5.72,4.32,4.32,0,0,0,1.59.3,4.47,4.47,0,0,0,4.14-2.84l3.72-9.71a4.38,4.38,0,0,0-.08-3.39,4.45,4.45,0,0,0-2.46-2.34A4.61,4.61,0,0,0,136.64,142Z"/><path class="cls-3" d="M154,143.36a13.44,13.44,0,0,1-17.45,7.58l-2.42-1a13.46,13.46,0,0,1-7.39-17.54l28.09-70.12a13.46,13.46,0,0,1,17.46-7.58l2.42,1a13.47,13.47,0,0,1,7.39,17.54Z"/><path class="cls-2" d="M141.52,153.46a14.74,14.74,0,0,1-5.52-1.07l-2.41-1a15,15,0,0,1-8.27-19.57l28.1-70.12a15,15,0,0,1,19.49-8.46l2.42,1a15,15,0,0,1,8.26,19.58L155.5,143.94A15,15,0,0,1,141.52,153.46ZM167.4,55.34a11.88,11.88,0,0,0-11.07,7.55L128.23,133a11.91,11.91,0,0,0,6.52,15.5l2.42,1a11.61,11.61,0,0,0,4.35.84,11.91,11.91,0,0,0,11.07-7.55l28.1-70.13a11.91,11.91,0,0,0-6.53-15.5l-2.41-1A11.65,11.65,0,0,0,167.4,55.34Z"/><path class="cls-1" d="M183.45,131.53s33.7,31.89,0,69.86c-12.59,22.74,10.11,13.74,10.11,13.74s49-20.43,34.43-75.83c-5.2-25.62-26-38.41-26-38.41l-29.88-3.41Z"/><path class="cls-2" d="M185.27,218.45h0c-3.82,0-5.56-1.58-6.34-2.91-1.77-3-.74-7.87,3.16-14.91a1.73,1.73,0,0,1,.19-.28C195.86,185.05,200,169,194.6,152.71a53.64,53.64,0,0,0-12.23-20.05A1.44,1.44,0,0,1,182,132L170.6,98a1.57,1.57,0,0,1,1.67-2.06l29.87,3.41a1.67,1.67,0,0,1,.65.22c.87.54,21.44,13.44,26.72,39.4,7.67,29.25-2.35,48.81-12.1,60.07a69.31,69.31,0,0,1-23.25,17.55A28,28,0,0,1,185.27,218.45Zm-.54-16.15c-4.19,7.62-3.75,10.57-3.12,11.65.54.91,1.77,1.37,3.65,1.37h0a25.16,25.16,0,0,0,7.71-1.65,67.33,67.33,0,0,0,22.14-16.8c13.41-15.54,17.23-34.77,11.35-57.17,0,0,0-.06,0-.09-4.67-23-22.57-35.58-25-37.21l-27.07-3.09,10.46,31.36a56.5,56.5,0,0,1,12.76,21.06C201.54,163.7,202.52,182.18,184.73,202.3Z"/><path class="cls-4" d="M202.91,107.6a24.44,24.44,0,1,1-24.43-24.43A24.43,24.43,0,0,1,202.91,107.6Z"/><path class="cls-2" d="M178.48,133.6a26,26,0,1,1,26-26A26,26,0,0,1,178.48,133.6Zm0-48.87a22.87,22.87,0,1,0,22.86,22.87A22.9,22.9,0,0,0,178.48,84.73Z"/><path class="cls-3" d="M190.44,107.6a12,12,0,1,1-12-12A12,12,0,0,1,190.44,107.6Z"/><path class="cls-2" d="M178.48,121.13A13.53,13.53,0,1,1,192,107.6,13.55,13.55,0,0,1,178.48,121.13Zm0-23.93a10.4,10.4,0,1,0,10.4,10.4A10.41,10.41,0,0,0,178.48,97.2Z"/><path class="cls-5" d="M132.83,208.7a4.49,4.49,0,0,1-4.5,4.5h0a4.5,4.5,0,0,1-4.5-4.5v-8.31a4.51,4.51,0,0,1,4.5-4.5h0a4.5,4.5,0,0,1,4.5,4.5Z"/><path class="cls-2" d="M128.33,214.77a6.09,6.09,0,0,1-6.07-6.07v-8.31a6.07,6.07,0,0,1,12.14,0v8.31A6.08,6.08,0,0,1,128.33,214.77Zm0-17.31a2.93,2.93,0,0,0-2.93,2.93v8.31a2.94,2.94,0,0,0,5.87,0v-8.31A2.94,2.94,0,0,0,128.33,197.46Z"/><path class="cls-6" d="M92.58,210.43h87.79a12.46,12.46,0,0,1,12.46,12.46v5.89a12.47,12.47,0,0,1-12.47,12.47H92.58a12.47,12.47,0,0,1-12.47-12.47V222.9a12.47,12.47,0,0,1,12.47-12.47Z"/><path class="cls-2" d="M180.37,242.81H92.58a14,14,0,0,1-14-14v-5.89a14,14,0,0,1,14-14h87.79a14,14,0,0,1,14,14v5.89A14,14,0,0,1,180.37,242.81ZM92.58,212a10.9,10.9,0,0,0-10.9,10.89v5.89a10.91,10.91,0,0,0,10.9,10.9h87.79a10.91,10.91,0,0,0,10.9-10.9v-5.89A10.9,10.9,0,0,0,180.37,212Z"/><path class="cls-5" d="M193.56,213.2a12,12,0,1,1-12-12A12,12,0,0,1,193.56,213.2Z"/><path class="cls-2" d="M181.59,226.74a13.54,13.54,0,1,1,13.53-13.54A13.55,13.55,0,0,1,181.59,226.74Zm0-23.94A10.4,10.4,0,1,0,192,213.2,10.41,10.41,0,0,0,181.59,202.8Z"/><path class="cls-5" d="M155.77,195.89c0,3-2,5.34-4.5,5.34H105.39c-2.48,0-4.5-2.39-4.5-5.34h0c0-2.95,2-5.35,4.5-5.35h45.88c2.48,0,4.5,2.4,4.5,5.35Z"/><path class="cls-2" d="M151.27,202.8H105.39c-3.34,0-6.06-3.1-6.06-6.91s2.72-6.91,6.06-6.91h45.88c3.34,0,6.06,3.1,6.06,6.91S154.61,202.8,151.27,202.8Zm-45.88-10.69c-1.62,0-2.93,1.69-2.93,3.78s1.31,3.78,2.93,3.78h45.88c1.62,0,2.93-1.7,2.93-3.78s-1.31-3.78-2.93-3.78Z"/><path class="cls-5" d="M198,68.89a6.93,6.93,0,0,1-8.92,4L150.24,58.16a6.91,6.91,0,0,1-4-8.92h0a6.91,6.91,0,0,1,8.92-4L193.94,60a6.92,6.92,0,0,1,4,8.92Z"/><path class="cls-2" d="M191.48,74.92a8.41,8.41,0,0,1-3-.56L149.68,59.62a8.48,8.48,0,1,1,6-15.85L194.49,58.5a8.49,8.49,0,0,1-3,16.42ZM152.7,46.34a5.35,5.35,0,0,0-1.91,10.35l38.79,14.74a5.17,5.17,0,0,0,1.9.36,5.36,5.36,0,0,0,1.9-10.36L154.59,46.69A5.36,5.36,0,0,0,152.7,46.34Z"/><path class="cls-5" d="M194.07,55a4.68,4.68,0,0,1-6,2.71l-26.21-10a4.67,4.67,0,0,1-2.7-6h0a4.66,4.66,0,0,1,6-2.7l26.21,10a4.69,4.69,0,0,1,2.71,6Z"/><path class="cls-2" d="M189.7,59.53a6.28,6.28,0,0,1-2.22-.41l-26.2-10a6.24,6.24,0,1,1,4.43-11.66l26.2,10a6.24,6.24,0,0,1-2.21,12.07Zm-26.2-19.3a3.11,3.11,0,0,0-1.11,6l26.2,10a3.25,3.25,0,0,0,1.11.2,3.11,3.11,0,0,0,1.1-6l-26.2-10A3,3,0,0,0,163.5,40.23Z"/><path class="cls-7" d="M192,44.71c-.78,2.07-2.74,3.25-4.36,2.63L170,40.64c-1.63-.62-2.31-2.8-1.52-4.87h0c.78-2.06,2.74-3.24,4.36-2.62l17.65,6.7c1.62.62,2.3,2.8,1.51,4.86Z"/><path class="cls-2" d="M188.54,49.07a4.28,4.28,0,0,1-1.46-.26L169.44,42.1c-2.43-.92-3.52-4-2.43-6.88a5.54,5.54,0,0,1,4.93-3.8,4.28,4.28,0,0,1,1.46.26L191,38.39c2.43.92,3.52,4,2.43,6.88A5.56,5.56,0,0,1,188.54,49.07Zm-16.6-14.52a2.49,2.49,0,0,0-2,1.78c-.51,1.34-.09,2.58.61,2.84l17.65,6.71a1,1,0,0,0,.34.06,2.47,2.47,0,0,0,2-1.78c.51-1.35.09-2.58-.61-2.84l-17.64-6.71A1,1,0,0,0,171.94,34.55Z"/></svg>