<?xml version="1.0" encoding="utf-8"?>
<!-- Generator: Adobe Illustrator 16.0.0, SVG Export Plug-In . SVG Version: 6.00 Build 0)  -->
<!DOCTYPE svg PUBLIC "-//W3C//DTD SVG 1.1//EN" "http://www.w3.org/Graphics/SVG/1.1/DTD/svg11.dtd">
<svg version="1.1" id="Layer_1" xmlns="http://www.w3.org/2000/svg" xmlns:xlink="http://www.w3.org/1999/xlink" x="0px" y="0px"
	 width="500px" height="500px" viewBox="0 0 500 500" enable-background="new 0 0 500 500" xml:space="preserve">
<g id="Layer_1_copy_81">
	<g>
		<path fill="#F58020" d="M387.493,380.738v-44.039l-85.931-227.703L142.601,55.291c0,0-46.724-8.058-54.243,36.52v319.535
			c0,0,1.076,37.592,54.243,38.132"/>
		<path fill="#27140E" d="M142.601,453.31c-0.019,0-0.025,0-0.041,0c-56.204-0.571-58.021-41.438-58.033-41.852V91.811
			c0-0.215,0.016-0.427,0.053-0.639c2.331-13.822,8.456-24.335,18.21-31.246c17.269-12.239,39.52-8.577,40.456-8.412
			c0.199,0.034,0.394,0.081,0.577,0.146l158.97,53.705c1.086,0.368,1.951,1.203,2.354,2.277l85.927,227.701
			c0.166,0.438,0.253,0.896,0.253,1.355v44.038c0,2.113-1.718,3.835-3.832,3.835c-2.121,0-3.839-1.722-3.839-3.835v-43.344
			l-85.035-225.349L141.686,59.026c-1.743-0.25-11.92-1.503-22.576,1.561c-14.972,4.306-24.021,14.915-26.918,31.548v319.211
			c0.053,1.264,1.829,33.807,50.446,34.303c2.118,0.021,3.816,1.752,3.793,3.868C146.408,451.623,144.695,453.31,142.601,453.31z"/>
	</g>
	<g>
		<g>
			<path fill="#F58020" d="M142.601,449.478h232.114c7.028,0,12.778-5.75,12.778-12.774v-55.965"/>
		</g>
		<g>
			<path fill="#211010" d="M374.715,453.31H142.601c-2.118,0-3.831-1.719-3.831-3.832c0-2.116,1.713-3.829,3.831-3.829h232.114
				c4.929,0,8.939-4.021,8.939-8.945v-55.965c0-2.119,1.718-3.832,3.839-3.832c2.114,0,3.832,1.713,3.832,3.832v55.965
				C391.325,445.857,383.873,453.31,374.715,453.31z"/>
		</g>
	</g>
	<g>
		<path fill="#FFFFFF" d="M135.617,376.126l251.876,0.535v54.24H137.709c0,0-26.651,0.543-27.172-31.144
			C111.582,377.738,135.617,376.126,135.617,376.126z"/>
		<path fill="#27140E" d="M137.622,434.732c-1.237,0-30.35-0.39-30.916-34.914c0.96-20.359,19.165-26.875,28.656-27.517
			c0.087-0.004,0.143,0.013,0.267-0.01l251.867,0.539c2.116,0.004,3.829,1.719,3.829,3.83v54.24c0,2.116-1.718,3.829-3.832,3.829
			H137.622V434.732z M135.768,379.957c-1.8,0.154-20.56,2.207-21.404,19.982c0.443,26.362,20.928,27.131,23.259,27.131v3.832
			l0.023-3.832h246.009v-46.578L135.768,379.957z"/>
	</g>
	<g>
		<g>
			<path fill="#FAA625" d="M388.026,343.83c0,7.025-5.75,12.77-12.779,12.77H141.949c-7.026,0-12.775-5.744-12.775-12.77V66.992
				c0-7.027,5.749-12.775,12.775-12.775h233.298c7.029,0,12.779,5.748,12.779,12.775V343.83z"/>
		</g>
		<g>
			<path fill="#27140E" d="M375.247,360.439H141.949c-9.158,0-16.61-7.453-16.61-16.609V66.992c0-9.158,7.452-16.608,16.61-16.608
				h233.298c9.158,0,16.61,7.45,16.61,16.608V343.83C391.857,352.986,384.405,360.439,375.247,360.439z M141.949,58.049
				c-4.93,0-8.94,4.013-8.94,8.943V343.83c0,4.93,4.011,8.941,8.94,8.941h233.298c4.93,0,8.943-4.013,8.943-8.941V66.992
				c0-4.93-4.015-8.943-8.943-8.943H141.949z"/>
		</g>
	</g>
	<g>
		<g>
			<path fill="#C3C3C6" d="M366.008,297.046c0,7.024-5.751,12.772-12.774,12.772H163.963c-7.025,0-12.771-5.748-12.771-12.772
				V104.511c0-7.027,5.746-12.774,12.771-12.774h189.271c7.023,0,12.774,5.748,12.774,12.774V297.046z"/>
		</g>
		<g>
			<path fill="#27140E" d="M353.232,313.652H163.962c-9.158,0-16.605-7.447-16.605-16.605V104.511
				c0-9.157,7.447-16.609,16.605-16.609h189.271c9.157,0,16.608,7.452,16.608,16.609v192.536
				C369.842,306.205,362.391,313.652,353.232,313.652z M163.963,95.567c-4.929,0-8.939,4.013-8.939,8.944v192.536
				c0,4.93,4.011,8.939,8.939,8.939h189.271c4.93,0,8.939-4.01,8.939-8.939V104.511c0-4.931-4.011-8.944-8.939-8.944H163.963z"/>
		</g>
	</g>
	<g>
		<g>
			<path fill="#FFFFFF" d="M221.706,134.903v49.962l0.758,0.114c20.458,5.102,35.612,23.6,35.612,45.637
				c0,25.975-21.058,47.034-47.03,47.034c-25.976,0-47.035-21.061-47.035-47.034c0-21.78,14.807-40.102,34.91-45.453l0.866-0.124
				v-50.136"/>
			<path fill="#068083" d="M211.046,278.923c-26.64,0-48.312-21.67-48.312-48.308c0-21.842,14.709-41.021,35.778-46.665v-49.048
				c0-0.707,0.57-1.279,1.275-1.279c0.707,0,1.276,0.572,1.276,1.279v50.136c0,0.637-0.468,1.177-1.099,1.267l-0.864,0.122
				c-19.849,5.293-33.811,23.477-33.811,44.188c0,25.229,20.522,45.757,45.756,45.757c25.227,0,45.756-20.528,45.756-45.757
				c0-21.055-14.247-39.31-34.649-44.396l-0.638-0.092c-0.626-0.096-1.083-0.632-1.083-1.263v-49.962
				c0-0.707,0.566-1.279,1.274-1.279c0.706,0,1.282,0.572,1.282,1.279v48.896c21.475,5.508,36.367,24.702,36.367,46.817
				C259.354,257.253,237.683,278.923,211.046,278.923z"/>
		</g>
		<g>
			
				<path fill="none" stroke="#40C2CE" stroke-width="3.285" stroke-linecap="round" stroke-linejoin="round" stroke-miterlimit="10" d="
				M211.046,153.491"/>
		</g>
		<g>
			<path fill="#068083" d="M173.192,230.589c-0.118,20.931,16.96,37.886,37.888,37.886c20.924,0,37.889-16.955,37.889-37.886
				c0,0-2.633-11.708-23.391-5.18c-14.532,4.573-20.026,4.356-27,0C191.614,221.056,173.276,214.873,173.192,230.589z"/>
		</g>
		<g>
			
				<path fill="none" stroke="#40C2CE" stroke-width="3.285" stroke-linecap="round" stroke-linejoin="round" stroke-miterlimit="10" d="
				M221.909,153.491"/>
		</g>
		<g>
			<circle fill="#FFFFFF" cx="227.5" cy="210.986" r="2.922"/>
			<path fill="#068083" d="M227.497,215.184c-2.316,0-4.197-1.884-4.197-4.198c0-2.317,1.881-4.202,4.197-4.202
				c2.317,0,4.203,1.885,4.203,4.202C231.7,213.3,229.814,215.184,227.497,215.184z M227.497,209.34
				c-0.907,0-1.642,0.738-1.642,1.646c0,0.907,0.734,1.644,1.642,1.644c0.908,0,1.646-0.737,1.646-1.644
				C229.143,210.078,228.404,209.34,227.497,209.34z"/>
		</g>
		<g>
			<path fill="#FFFFFF" d="M212.444,194.6c0,2.481-2.018,4.498-4.503,4.498c-2.483,0-4.496-2.017-4.496-4.498
				c0-2.484,2.013-4.501,4.496-4.501C210.427,190.098,212.444,192.116,212.444,194.6z"/>
			<path fill="#068083" d="M207.941,200.376c-3.186,0-5.774-2.592-5.774-5.776c0-3.188,2.589-5.778,5.774-5.778
				c3.188,0,5.776,2.59,5.776,5.778C213.718,197.784,211.129,200.376,207.941,200.376z M207.941,191.376
				c-1.776,0-3.219,1.447-3.219,3.224c0,1.776,1.442,3.222,3.219,3.222c1.778,0,3.226-1.445,3.226-3.222
				S209.72,191.376,207.941,191.376z"/>
		</g>
		<g>
			<path fill="#FFFFFF" d="M229.949,242.599c-2.057,0-3.729-1.671-3.729-3.718c0-2.056,1.673-3.729,3.729-3.729
				c2.055,0,3.723,1.673,3.723,3.729C233.672,240.928,232.004,242.599,229.949,242.599z M229.949,237.708
				c-0.649,0-1.173,0.526-1.173,1.173c0,0.641,0.523,1.167,1.173,1.167c0.642,0,1.169-0.526,1.169-1.167
				C231.118,238.234,230.591,237.708,229.949,237.708z"/>
		</g>
		<g>
			<path fill="#FFFFFF" d="M209.903,258.884c-3.015,0-5.466-2.448-5.466-5.463c0-3.016,2.451-5.471,5.466-5.471
				c3.014,0,5.465,2.455,5.465,5.471C215.368,256.436,212.917,258.884,209.903,258.884z M209.903,250.507
				c-1.604,0-2.909,1.308-2.909,2.915c0,1.604,1.305,2.91,2.909,2.91s2.915-1.307,2.915-2.91
				C212.818,251.814,211.507,250.507,209.903,250.507z"/>
		</g>
		<g>
			<path fill="#FFFFFF" d="M229.949,131.418c0,1.924-1.735,3.485-3.886,3.485h-30.031c-2.15,0-3.886-1.561-3.886-3.485l0,0
				c0-1.924,1.735-3.484,3.886-3.484h30.031C228.214,127.934,229.949,129.494,229.949,131.418L229.949,131.418z"/>
			<path fill="#068083" d="M226.063,136.181h-30.031c-2.848,0-5.16-2.137-5.16-4.763c0-2.627,2.312-4.762,5.16-4.762h30.031
				c2.848,0,5.159,2.135,5.159,4.762C231.223,134.044,228.911,136.181,226.063,136.181z M196.032,129.21
				c-1.438,0-2.608,0.993-2.608,2.208c0,1.217,1.171,2.206,2.608,2.206h30.031c1.434,0,2.608-0.989,2.608-2.206
				c0-1.214-1.175-2.208-2.608-2.208H196.032z"/>
		</g>
		<g>
			<path fill="#FFFFFF" d="M318.472,157.491v42.969l31.646,54.333c0,0,1.755,2.734,2.389,3.837c1.89,3.29,4.07,9.767-8.783,8.896
				h-71.53c-13.152,0.886-10.559-5.92-8.646-9.129c0.577-0.973,1.871-2.948,1.871-2.948l32.033-54.987v-42.969"/>
			<path fill="#068083" d="M269.926,268.886c-4.408,0-7.216-1.036-8.51-3.143c-1.236-2.023-0.881-4.789,1.032-8.003
				c0.589-0.987,1.903-2.995,1.903-2.995l31.823-54.628v-42.626c0-0.707,0.569-1.278,1.274-1.278c0.708,0,1.278,0.572,1.278,1.278
				v42.969c0,0.227-0.062,0.448-0.174,0.645l-32.032,54.985c-0.039,0.059-1.31,2.002-1.879,2.959
				c-0.645,1.078-2.028,3.76-1.053,5.355c0.926,1.496,3.953,2.15,8.516,1.848l71.616-0.01c4.642,0.322,7.662-0.33,8.596-1.818
				c0.931-1.484-0.18-3.867-0.918-5.16c-0.625-1.08-2.357-3.779-2.357-3.779l-31.677-54.378c-0.113-0.197-0.174-0.418-0.174-0.645
				v-42.969c0-0.707,0.568-1.278,1.278-1.278c0.7,0,1.278,0.572,1.278,1.278v42.626l31.47,54.032l0,0c0,0,1.763,2.74,2.396,3.841
				c1.798,3.139,2.099,5.827,0.866,7.791c-1.512,2.426-5.068,3.401-10.841,3.018h-71.448
				C271.398,268.854,270.639,268.886,269.926,268.886z"/>
		</g>
		<g>
			
				<path fill="none" stroke="#40C2CE" stroke-width="3.285" stroke-linecap="round" stroke-linejoin="round" stroke-miterlimit="10" d="
				M299.564,173.215"/>
		</g>
		<g>
			<path fill="#068083" d="M284.96,233.135l-11.597,19.916c0,0-7.655,9.508,6.021,8.578h57.146c13.68,0.93,6.026-8.578,6.026-8.578
				l-10.002-17.168c0,0-3.291-4.708-13.088,0.734c-9.796,5.445-16.396,1.851-18.162-0.542
				C299.55,233.676,291.279,217.89,284.96,233.135z"/>
		</g>
		<g>
			
				<path fill="none" stroke="#40C2CE" stroke-width="3.285" stroke-linecap="round" stroke-linejoin="round" stroke-miterlimit="10" d="
				M316.353,173.215"/>
		</g>
		<g>
			<path fill="#FFFFFF" d="M303.571,212.546c0,1.925-1.556,3.484-3.483,3.484c-1.919,0-3.479-1.56-3.479-3.484
				c0-1.922,1.56-3.486,3.479-3.486C302.017,209.061,303.571,210.624,303.571,212.546z"/>
			<path fill="#068083" d="M300.088,217.31c-2.62,0-4.761-2.137-4.761-4.763c0-2.627,2.141-4.762,4.761-4.762
				c2.628,0,4.766,2.135,4.766,4.762C304.854,215.172,302.716,217.31,300.088,217.31z M300.088,210.339
				c-1.209,0-2.203,0.989-2.203,2.207c0,1.217,0.994,2.207,2.203,2.207c1.219,0,2.209-0.99,2.209-2.207
				C302.297,211.329,301.307,210.339,300.088,210.339z"/>
		</g>
		<g>
			<path fill="#FFFFFF" d="M309.423,230.572c0,1.616-1.312,2.928-2.925,2.928c-1.615,0-2.927-1.312-2.927-2.928
				c0-1.609,1.312-2.92,2.927-2.92C308.111,227.652,309.423,228.963,309.423,230.572z"/>
			<path fill="#068083" d="M306.498,234.776c-2.315,0-4.201-1.884-4.201-4.204c0-2.312,1.886-4.198,4.201-4.198
				c2.316,0,4.199,1.886,4.199,4.198C310.697,232.893,308.814,234.776,306.498,234.776z M306.498,228.931
				c-0.906,0-1.646,0.739-1.646,1.642c0,0.911,0.738,1.647,1.646,1.647s1.65-0.736,1.65-1.647
				C308.148,229.669,307.405,228.931,306.498,228.931z"/>
		</g>
		<g>
			<path fill="#FFFFFF" d="M321.78,249.35c-2.365,0-4.292-1.931-4.292-4.293c0-2.37,1.927-4.3,4.292-4.3c2.373,0,4.3,1.93,4.3,4.3
				C326.08,247.419,324.153,249.35,321.78,249.35z M321.78,242.674c-1.309,0-2.38,1.068-2.38,2.382c0,1.308,1.071,2.376,2.38,2.376
				c1.315,0,2.384-1.068,2.384-2.376C324.164,243.743,323.097,242.674,321.78,242.674z"/>
		</g>
		<g>
			<path fill="#FFFFFF" d="M326.856,154.008c0,1.923-1.732,3.483-3.881,3.483h-30.032c-2.145,0-3.883-1.56-3.883-3.483l0,0
				c0-1.922,1.738-3.483,3.883-3.483h30.032C325.124,150.524,326.856,152.085,326.856,154.008L326.856,154.008z"/>
			<path fill="#068083" d="M322.977,158.769h-30.031c-2.846,0-5.158-2.137-5.158-4.761c0-2.625,2.312-4.762,5.158-4.762h30.031
				c2.842,0,5.161,2.137,5.161,4.762C328.138,156.632,325.817,158.769,322.977,158.769z M292.943,151.802
				c-1.435,0-2.603,0.989-2.603,2.206c0,1.217,1.168,2.205,2.603,2.205h30.032c1.437,0,2.605-0.988,2.605-2.205
				c0-1.216-1.17-2.206-2.605-2.206H292.943z"/>
		</g>
	</g>
</g>
</svg>
