<?xml version="1.0" encoding="utf-8"?>
<!-- Generator: Adobe Illustrator 16.0.0, SVG Export Plug-In . SVG Version: 6.00 Build 0)  -->
<!DOCTYPE svg PUBLIC "-//W3C//DTD SVG 1.1//EN" "http://www.w3.org/Graphics/SVG/1.1/DTD/svg11.dtd">
<svg version="1.1" id="Layer_1" xmlns="http://www.w3.org/2000/svg" xmlns:xlink="http://www.w3.org/1999/xlink" x="0px" y="0px"
	 width="500px" height="500px" viewBox="0 0 500 500" enable-background="new 0 0 500 500" xml:space="preserve">
<g id="Layer_1_copy_27">
	<g>
		<g>
			<path fill="#4E4E4E" d="M452.632,283.434c0,48.961-90.18,88.657-201.42,88.657c-111.236,0-201.413-39.696-201.413-88.657
				c0-48.971,90.177-88.667,201.413-88.667C362.452,194.768,452.632,234.463,452.632,283.434z"/>
			<path fill="#3C2517" d="M251.212,374.666c-112.479,0-203.987-40.926-203.987-91.232c0-50.309,91.509-91.24,203.987-91.24
				c112.482,0,203.994,40.931,203.994,91.24C455.206,333.74,363.694,374.666,251.212,374.666z M251.212,197.34
				c-109.639,0-198.842,38.621-198.842,86.094c0,47.469,89.203,86.084,198.842,86.084c109.645,0,198.846-38.615,198.846-86.084
				C450.058,235.96,360.855,197.34,251.212,197.34z"/>
		</g>
		<g>
			<path fill="#818181" d="M234.701,158.801c77.567-3.695,146.601,12.595,192.042,45.019c25.637,18.3,55.604,55.204,36.752,99.237
				c-3.571,8.346-8.353,17.545-14.702,24.811c-60.131,68.74-229.38,83.793-329.863,40.426c-34.499-14.891-63.459-34.748-76.263-63.4
				c-22.693-50.791,17.395-89.875,48.701-108.419c23.871-14.139,53.461-25.667,87.284-32.159
				C195.693,161.037,215.169,159.727,234.701,158.801z M179.57,201.065c-33.773,6.76-62.218,17.427-85.446,35.833
				c-8.975,7.122-23.008,23.342-22.975,38.594c0.043,17.982,14.017,30.52,25.73,39.504c60.75,46.615,186.135,55.416,269.216,23.898
				c25.437-9.656,68.912-31.508,68.912-63.402c0-18.366-14.665-32.339-28.482-42.268c-42.161-30.293-104.312-41.764-170.898-38.592
				C215.14,195.609,197.071,197.562,179.57,201.065z"/>
			<path fill="#3C2517" d="M252.335,395.257c-49.927,0-97.663-8.737-134.426-24.604c-40.581-17.512-65.96-38.68-77.595-64.711
				c-10.481-23.471-9.057-46.578,4.247-68.681c13.069-21.712,34.115-36.263,45.494-43.005c25.433-15.06,55.9-26.289,88.113-32.47
				c17.472-3.361,37.438-4.658,56.413-5.557c7.219-0.344,14.483-0.519,21.59-0.519c69.376,0,130.479,16.342,172.065,46.013
				c30.154,21.524,55.876,59.716,37.623,102.347c-4.622,10.793-9.571,19.127-15.131,25.488
				C415.28,370.082,339.263,395.257,252.335,395.257z M256.172,160.858c-7.026,0-14.209,0.172-21.348,0.514
				c-18.784,0.891-38.531,2.171-55.685,5.469c-31.637,6.072-61.538,17.084-86.46,31.844
				c-69.442,41.135-54.041,90.889-47.664,105.156c11.081,24.802,35.592,45.107,74.935,62.091
				c36.129,15.592,83.145,24.18,132.385,24.18c85.486,0,160.021-24.498,194.523-63.941c5.196-5.945,9.864-13.836,14.271-24.123
				c17.051-39.826-7.358-75.773-35.885-96.133C384.528,176.859,324.484,160.858,256.172,160.858z M254.23,360.1
				c-0.004,0-0.008,0-0.012,0c-64.366-0.002-123.771-16.101-158.906-43.062c-13.195-10.121-26.691-22.971-26.734-41.542
				c-0.04-17.067,15.646-34.025,23.944-40.611c21.908-17.362,49.407-28.907,86.543-36.341c16.948-3.392,34.881-5.453,56.437-6.481
				c7.146-0.341,14.302-0.514,21.265-0.514c62.909,0,115.216,13.69,151.259,39.586c19.89,14.295,29.557,28.806,29.557,44.358
				c0,35.211-49.354,57.752-70.575,65.809C334.592,353.6,295.594,360.1,254.23,360.1z M256.768,196.696
				c-6.884,0-13.956,0.17-21.02,0.507c-21.291,1.015-38.984,3.044-55.675,6.385c-36.304,7.268-63.107,18.495-84.353,35.327
				c-8.858,7.03-22.03,22.567-21.997,36.569c0.04,16.34,12.522,28.108,24.724,37.469c34.271,26.297,92.502,42,155.772,42.002h0.012
				c40.164,0,79.568-6.559,110.953-18.465c20.219-7.68,67.253-28.994,67.253-60.998c0-13.777-8.968-26.923-27.412-40.181
				C369.859,210.048,318.594,196.696,256.768,196.696z"/>
		</g>
	</g>
	<g>
		<g>
			<path fill="#CDA96A" d="M442.455,273.523l-30.03-4.211l-5.604,0.098c-9.166-2.789-20.854-5.36-35.946-7.957
				c-30.479-3.549-40.942-4.42-40.942-4.42s-39.303-0.713-57.691,4.933c-2.465,0.759-5.028,1.544-7.619,2.365
				c-10.995-1.447-22.789-2.925-34.111-4.197c-1.505,11.611-1.693,20.334-1.472,26.399c-0.291,3.332-0.039,6.895,1.09,10.516
				l0.004,0.002l0,0c2.753,8.859,10.743,18.092,28.897,25.254c25.752,10.156,43.725,14.908,65.062,14.938
				s84.121-8.248,92.274-10.517c7.288-2.026,25.479-11.404,24.753-25.772C441.855,293.042,442.455,273.523,442.455,273.523z"/>
			<path fill="#BA844F" d="M324.209,339.816h-0.003h-0.119c-23.13-0.033-42.403-5.808-66.004-15.117
				c-16.677-6.582-26.91-15.625-30.411-26.883c-1.127-3.611-1.534-7.428-1.213-11.346c-0.274-7.875,0.226-16.847,1.497-26.664
				l0.322-2.513l2.518,0.285c9.898,1.112,21.195,2.501,33.591,4.124c2.297-0.727,4.562-1.421,6.762-2.098l0.332-0.1
				c14.92-4.582,42.834-5.078,54.145-5.078c2.732,0,4.354,0.033,4.354,0.033c0.271,0.016,11.024,0.92,41.193,4.436
				c15.229,2.617,26.97,5.207,36.01,7.932l5.403-0.089l32.515,4.558l-0.068,2.307c-0.026,0.795-0.604,19.405-1.335,27.41
				c0.633,15.526-17.647,25.692-26.643,28.194C408.151,331.68,345.676,339.816,324.209,339.816z M232.75,262.979
				c-1.014,8.621-1.395,16.498-1.143,23.459l0.007,0.162l-0.014,0.155c-0.288,3.308,0.04,6.513,0.98,9.522
				c3.021,9.703,12.234,17.65,27.391,23.632c27.207,10.729,44.583,14.729,64.121,14.758l0.113,2.574v-2.574
				c21.688,0,84.015-8.349,91.472-10.422c6.328-1.761,23.508-10.519,22.868-23.162l-0.01-0.187l0.017-0.184
				c0.576-6.141,1.07-19.57,1.256-24.965l-27.543-3.859l-5.807,0.098l-0.388-0.12c-8.886-2.699-20.539-5.276-35.637-7.877
				c-29.51-3.433-40.315-4.356-40.707-4.39c-0.004-0.004-1.554-0.022-4.104-0.022c-11.075,0-38.379,0.473-52.63,4.85l-0.335,0.101
				c-2.355,0.725-4.797,1.477-7.266,2.259l-0.547,0.169l-0.562-0.072C252.743,265.368,242.151,264.057,232.75,262.979z"/>
		</g>
		<g>
			<path fill="#EBD1A0" d="M331.382,230.872c0,0-39.303-0.715-57.694,4.933c-18.388,5.645-42.08,12.814-43.18,24.329
				c-1.104,11.525,4.22,25.847,29.967,36.003c25.758,10.164,43.727,14.914,65.066,14.945c21.334,0.029,84.121-8.254,92.273-10.516
				c8.155-2.267,29.964-13.729,23.662-31.088c-6.301-17.361-19.167-25.578-69.149-34.188
				C341.843,231.74,331.382,230.872,331.382,230.872z"/>
			<path fill="#BA844F" d="M325.66,313.654h-0.003h-0.119c-23.137-0.033-42.407-5.812-66.008-15.121
				c-28.099-11.086-32.684-27.137-31.584-38.641c1.253-13.12,24.201-20.168,44.451-26.388l0.533-0.166
				c14.914-4.575,42.814-5.072,54.121-5.072c2.749,0,4.376,0.03,4.376,0.03c0.27,0.02,11.021,0.921,41.194,4.436
				c48.234,8.309,64.188,16.348,71.277,35.869c2.004,5.531,1.666,10.972-1.011,16.17c-5.039,9.774-17.631,16.397-24.386,18.274
				C409.583,305.521,347.091,313.654,325.66,313.654z M327.052,233.416c-11.075,0-38.362,0.474-52.606,4.847l-0.536,0.166
				c-16.847,5.171-39.916,12.256-40.84,21.954c-1.335,13.982,8.471,25.518,28.354,33.359c27.201,10.736,44.58,14.738,64.122,14.766
				l0.113,2.574v-2.574c21.651,0,83.998-8.35,91.469-10.422c4.995-1.389,16.739-7.043,21.186-15.674
				c2.023-3.922,2.267-7.867,0.748-12.055c-5.61-15.457-16.644-23.826-67.17-32.532c-29.517-3.435-40.321-4.353-40.714-4.386
				C331.199,233.426,329.619,233.416,327.052,233.416z"/>
		</g>
		<g opacity="0.5">
			<path fill="#046938" d="M295.242,258.117l-2.145,2.414c0,0,0.368,1.65,2.002,0.113
				C296.732,259.1,297.236,258.408,295.242,258.117z"/>
		</g>
		<g opacity="0.5">
			<path fill="#046938" d="M310.199,253.2c0,0-3.491,0.209-0.774,1.448C312.138,255.883,315.103,254.691,310.199,253.2z"/>
		</g>
		<g opacity="0.5">
			<path fill="#046938" d="M317.444,262.602c0,0-1.055,0.166-0.792,1.812c0.256,1.644,1.318,1.249,1.836-1.749
				C319.001,259.656,318.229,261.748,317.444,262.602z"/>
		</g>
		<g opacity="0.5">
			<path fill="#046938" d="M306.241,272.027c0,0-1.051,0.164-0.796,1.809c0.255,1.643,1.321,1.252,1.839-1.75
				C307.794,269.082,307.026,271.168,306.241,272.027z"/>
		</g>
		<g opacity="0.5">
			<path fill="#046938" d="M359.745,275.031c0,0-0.172,1.229,1.252,1.369c1.425,0.135,1.418-1.168-0.9-2.525
				C357.78,272.514,359.271,273.927,359.745,275.031z"/>
		</g>
		<g opacity="0.5">
			<path fill="#046938" d="M336.632,293.162c0,0,0.55,1.047,1.728,0.066c1.176-0.98,0.446-1.945-2.099-1.203
				C333.72,292.781,335.651,292.699,336.632,293.162z"/>
		</g>
		<g opacity="0.5">
			<path fill="#046938" d="M402.771,260.468c0,0-1.055,0.166-0.799,1.812c0.259,1.64,1.324,1.248,1.835-1.76
				C404.325,257.523,403.554,259.609,402.771,260.468z"/>
		</g>
		<g opacity="0.5">
			<path fill="#046938" d="M329.632,256.166c-0.522-0.027-1.702-0.703-1.205,0.784c0.496,1.493,0.695,2.153,1.101,1.12
				C329.931,257.033,330.361,256.198,329.632,256.166z"/>
		</g>
		<g opacity="0.5">
			<path fill="#046938" d="M377.386,258.51c-0.52-0.021-1.695-0.695-1.202,0.792c0.497,1.487,0.692,2.144,1.101,1.113
				C377.688,259.384,378.118,258.543,377.386,258.51z"/>
		</g>
		<g opacity="0.5">
			<path fill="#046938" d="M393.718,279.779c-0.522-0.021-1.703-0.699-1.202,0.787c0.493,1.492,0.688,2.149,1.097,1.117
				C394.016,280.652,394.446,279.812,393.718,279.779z"/>
		</g>
		<g opacity="0.5">
			<path fill="#046938" d="M350.466,246.323c-0.52-0.023-1.699-0.699-1.202,0.788c0.497,1.488,0.692,2.153,1.098,1.117
				C350.768,247.194,351.198,246.355,350.466,246.323z"/>
		</g>
		<g opacity="0.5">
			<path fill="#046938" d="M326.229,246.256c-0.52-0.023-1.698-0.699-1.198,0.788c0.494,1.494,0.688,2.15,1.097,1.117
				C326.531,247.127,326.966,246.292,326.229,246.256z"/>
		</g>
		<g opacity="0.5">
			<path fill="#046938" d="M286.686,275.691c-0.521-0.021-1.703-0.699-1.201,0.787c0.496,1.494,0.69,2.153,1.096,1.123
				C286.986,276.564,287.417,275.727,286.686,275.691z"/>
		</g>
		<g opacity="0.5">
			<path fill="#046938" d="M261.664,256.45c-0.521-0.022-1.703-0.702-1.202,0.792c0.493,1.486,0.692,2.143,1.097,1.109
				C261.966,257.32,262.396,256.48,261.664,256.45z"/>
		</g>
		<g opacity="0.5">
			<path fill="#046938" d="M324.385,267.15c0,0-1.789,0.852-0.762,1.18c1.023,0.324,2.004,1.471,2.196,0.119
				C326.012,267.1,325.021,266.775,324.385,267.15z"/>
		</g>
		<g opacity="0.5">
			<path fill="#046938" d="M331.978,264.016c0,0-1.968,2.045-1.274,2.104c0.691,0.063,0.05,1.202,1.153,0.065
				C332.965,265.046,334.608,264.68,331.978,264.016z"/>
		</g>
		<g opacity="0.5">
			<path fill="#046938" d="M389.523,247.008c0,0-1.969,2.044-1.278,2.11c0.695,0.057,0.05,1.199,1.156,0.062
				C390.511,248.042,392.154,247.671,389.523,247.008z"/>
		</g>
		<g opacity="0.5">
			<path fill="#046938" d="M277.096,268.906c0,0-1.969,2.044-1.275,2.109c0.691,0.061,0.05,1.196,1.156,0.061
				C278.079,269.943,279.727,269.568,277.096,268.906z"/>
		</g>
		<g opacity="0.5">
			<path fill="#046938" d="M344.679,260.854c0,0-0.222-0.193-0.036,0.635c0.187,0.822,1.094,1.144,1.732,0.094
				C347.011,260.531,347.644,259.574,344.679,260.854z"/>
		</g>
	</g>
	<g>
		<g>
			<path fill="#CDA96A" d="M427.346,221.288l-30.029-4.21l-5.603,0.096c-9.17-2.792-20.854-5.356-35.947-7.956
				c-30.479-3.549-40.944-4.419-40.944-4.419s-39.301-0.714-57.692,4.931c-2.465,0.759-5.028,1.545-7.619,2.364
				c-10.992-1.442-22.789-2.92-34.108-4.192c-1.501,11.611-1.696,20.327-1.471,26.393c-0.292,3.333-0.04,6.897,1.086,10.518
				l0.004,0.006l0,0c2.753,8.859,10.746,18.085,28.9,25.248c25.75,10.164,43.723,14.906,65.061,14.939
				c21.337,0.029,84.124-8.248,92.276-10.514c7.288-2.027,25.479-11.406,24.753-25.773
				C426.746,240.804,427.346,221.288,427.346,221.288z"/>
			<path fill="#BA844F" d="M309.103,287.576c-0.003,0-0.003,0-0.003,0h-0.118c-23.149-0.029-42.421-5.811-66.004-15.115
				c-16.677-6.579-26.913-15.623-30.414-26.877c-1.127-3.614-1.534-7.434-1.213-11.353c-0.274-7.861,0.229-16.832,1.501-26.661
				l0.321-2.509l2.518,0.283c9.865,1.108,21.165,2.496,33.588,4.124c2.289-0.72,4.556-1.416,6.746-2.088l0.352-0.109
				c14.92-4.58,42.83-5.074,54.141-5.074c2.736,0,4.355,0.028,4.355,0.028c0.271,0.018,11.021,0.923,41.194,4.438
				c15.226,2.617,26.966,5.206,36.007,7.931l5.402-0.093l32.516,4.562l-0.069,2.306c-0.022,0.795-0.604,19.406-1.332,27.409
				c0.633,15.523-17.646,25.695-26.645,28.193C393.045,279.443,330.569,287.576,309.103,287.576z M217.641,210.745
				c-1.014,8.628-1.395,16.506-1.14,23.456l0.007,0.159l-0.017,0.155c-0.288,3.31,0.043,6.517,0.98,9.531
				c3.021,9.7,12.234,17.647,27.394,23.627c27.188,10.729,44.566,14.729,64.118,14.759l0.112,2.573v-2.573
				c21.688,0,84.016-8.349,91.473-10.423c6.331-1.756,23.511-10.518,22.872-23.162l-0.008-0.183l0.014-0.186
				c0.572-6.142,1.069-19.572,1.252-24.965l-27.542-3.859l-5.809,0.096l-0.387-0.116c-8.882-2.703-20.539-5.28-35.633-7.881
				c-29.514-3.434-40.319-4.356-40.711-4.39c-0.006-0.011-1.553-0.021-4.104-0.021c-11.074,0-38.379,0.472-52.631,4.848
				l-0.351,0.108c-2.35,0.724-4.787,1.469-7.249,2.248l-0.543,0.172l-0.569-0.073C237.613,213.125,227.016,211.817,217.641,210.745z
				"/>
		</g>
		<g>
			<path fill="#EBD1A0" d="M316.271,178.638c0,0-39.304-0.717-57.691,4.929c-18.39,5.648-42.082,12.814-43.179,24.334
				c-1.106,11.522,4.217,25.843,29.967,36.003c25.754,10.161,43.726,14.911,65.062,14.942c21.334,0.028,84.124-8.25,92.273-10.517
				c8.156-2.269,29.964-13.724,23.663-31.086c-6.301-17.362-19.168-25.576-69.15-34.189
				C326.737,179.504,316.271,178.638,316.271,178.638z"/>
			<path fill="#BA844F" d="M310.534,261.419C310.53,261.419,310.534,261.419,310.534,261.419h-0.106
				c-23.133-0.032-42.402-5.812-66.003-15.12c-28.1-11.091-32.688-27.135-31.588-38.644c1.252-13.117,24.196-20.165,44.444-26.383
				l0.539-0.167c14.914-4.576,42.817-5.07,54.122-5.07c2.749,0,4.376,0.028,4.376,0.028c0.271,0.019,11.021,0.919,41.193,4.434
				c48.233,8.307,64.191,16.349,71.277,35.868c2.008,5.532,1.666,10.975-1.014,16.173c-5.039,9.776-17.627,16.395-24.383,18.271
				C394.489,253.283,332.004,261.419,310.534,261.419z M311.942,181.182c-11.071,0-38.362,0.47-52.607,4.845l-0.543,0.166
				c-16.842,5.173-39.906,12.257-40.833,21.954c-1.335,13.98,8.471,25.515,28.354,33.363c27.205,10.733,44.583,14.734,64.122,14.762
				l0.101,2.574v-2.574c21.688,0,84.027-8.348,91.481-10.421c4.992-1.385,16.739-7.04,21.186-15.667
				c2.023-3.929,2.27-7.875,0.749-12.062c-5.612-15.459-16.645-23.826-67.17-32.532c-29.518-3.432-40.323-4.353-40.711-4.386
				C316.086,181.198,314.51,181.18,311.942,181.182z"/>
		</g>
		<g opacity="0.5">
			<path fill="#046938" d="M280.133,205.878l-2.145,2.415c0,0,0.371,1.65,2.005,0.113
				C281.624,206.866,282.127,206.17,280.133,205.878z"/>
		</g>
		<g opacity="0.5">
			<path fill="#046938" d="M295.09,200.961c0,0-3.488,0.215-0.775,1.449C297.027,203.649,299.993,202.453,295.09,200.961z"/>
		</g>
		<g opacity="0.5">
			<path fill="#046938" d="M302.338,210.369c0,0-1.053,0.166-0.795,1.807c0.255,1.645,1.322,1.25,1.835-1.749
				C303.892,207.422,303.12,209.511,302.338,210.369z"/>
		</g>
		<g opacity="0.5">
			<path fill="#046938" d="M291.131,219.794c0,0-1.05,0.166-0.795,1.805c0.26,1.646,1.322,1.252,1.839-1.749
				C292.688,216.846,291.916,218.933,291.131,219.794z"/>
		</g>
		<g opacity="0.5">
			<path fill="#046938" d="M344.636,222.795c0,0-0.169,1.226,1.252,1.365c1.425,0.139,1.418-1.16-0.899-2.521
				C342.671,220.281,344.162,221.692,344.636,222.795z"/>
		</g>
		<g opacity="0.5">
			<path fill="#046938" d="M321.522,240.926c0,0,0.554,1.047,1.729,0.062c1.173-0.977,0.443-1.941-2.101-1.196
				C318.61,240.542,320.545,240.462,321.522,240.926z"/>
		</g>
		<g opacity="0.5">
			<path fill="#046938" d="M387.662,208.229c0,0-1.054,0.167-0.799,1.814c0.259,1.643,1.324,1.249,1.839-1.756
				C389.219,205.284,388.444,207.375,387.662,208.229z"/>
		</g>
		<g opacity="0.5">
			<path fill="#046938" d="M314.522,203.929c-0.523-0.025-1.703-0.701-1.202,0.787c0.493,1.492,0.691,2.152,1.097,1.118
				C314.821,204.799,315.255,203.962,314.522,203.929z"/>
		</g>
		<g opacity="0.5">
			<path fill="#046938" d="M362.279,206.276c-0.523-0.023-1.699-0.701-1.206,0.788c0.501,1.491,0.692,2.148,1.101,1.117
				C362.577,207.147,363.012,206.306,362.279,206.276z"/>
		</g>
		<g opacity="0.5">
			<path fill="#046938" d="M378.608,227.542c-0.523-0.02-1.699-0.699-1.203,0.789c0.494,1.491,0.688,2.15,1.097,1.116
				C378.906,228.414,379.341,227.579,378.608,227.542z"/>
		</g>
		<g opacity="0.5">
			<path fill="#046938" d="M335.36,194.087c-0.523-0.023-1.7-0.701-1.206,0.79c0.497,1.489,0.691,2.15,1.1,1.116
				C335.658,194.959,336.089,194.12,335.36,194.087z"/>
		</g>
		<g opacity="0.5">
			<path fill="#046938" d="M311.124,194.022c-0.521-0.023-1.703-0.7-1.203,0.787c0.497,1.492,0.692,2.15,1.097,1.118
				C311.425,194.892,311.855,194.055,311.124,194.022z"/>
		</g>
		<g opacity="0.5">
			<path fill="#046938" d="M271.576,223.455c-0.521-0.02-1.7-0.699-1.199,0.789c0.493,1.491,0.688,2.15,1.093,1.12
				C271.877,224.329,272.309,223.491,271.576,223.455z"/>
		</g>
		<g opacity="0.5">
			<path fill="#046938" d="M246.555,204.214c-0.517-0.023-1.7-0.701-1.203,0.789c0.497,1.487,0.692,2.148,1.097,1.113
				C246.856,205.087,247.286,204.247,246.555,204.214z"/>
		</g>
		<g opacity="0.5">
			<path fill="#046938" d="M309.275,214.914c0,0-1.786,0.852-0.763,1.18c1.026,0.328,2.007,1.467,2.196,0.119
				C310.901,214.868,309.915,214.54,309.275,214.914z"/>
		</g>
		<g opacity="0.5">
			<path fill="#046938" d="M316.868,211.78c0,0-1.968,2.044-1.275,2.104c0.692,0.063,0.05,1.203,1.156,0.063
				C317.855,212.811,319.498,212.443,316.868,211.78z"/>
		</g>
		<g opacity="0.5">
			<path fill="#046938" d="M374.414,194.772c0,0-1.968,2.044-1.275,2.109c0.692,0.06,0.051,1.201,1.156,0.064
				C375.401,195.806,377.045,195.435,374.414,194.772z"/>
		</g>
		<g opacity="0.5">
			<path fill="#046938" d="M261.984,216.673c0,0-1.967,2.041-1.274,2.107c0.692,0.06,0.05,1.199,1.156,0.063
				C262.973,217.707,264.616,217.333,261.984,216.673z"/>
		</g>
		<g opacity="0.5">
			<path fill="#046938" d="M329.569,208.618c0,0-0.223-0.194-0.036,0.633c0.185,0.823,1.093,1.145,1.734,0.096
				C331.905,208.295,332.537,207.334,329.569,208.618z"/>
		</g>
	</g>
	<g>
		<path fill="#FEDF8F" d="M41.288,289.807c4.648-5.98,4.97-12.755,4.97-12.755s3.724-5.522,8.636-4.854
			c4.917,0.669,0.994-10.455,6.176-12.496c5.188-2.041,8.547,1.446,11.581-3.819c3.034-5.273-4.761-16.037,3.992-18.495
			c8.752-2.458,10.869-2.001,14.649-6.321c3.779-4.323,3.965-6.652,9.381-3.902c5.417,2.75,11.476-1.872,12.672-5.96
			c1.195-4.084,10.441-8.807,12.43-4.823c1.987,3.985,5.761,9.938,11.624,3.299c5.86-6.639,5.225-19.812,11.734-19.196
			c6.509,0.615,11.131-19.328,13.999-13.574c2.869,5.758,8.656-0.542,10.744,1.511c2.09,2.051,9.666,3.588,13.953,2.783
			c4.283-0.803,3.807-4.462,10.644-5.356c6.838-0.896,9.263,3.974,11.111,7.137c1.849,3.166,4.847,5.396,4.23,11.189
			c-0.623,5.792-0.587,8.567,2.084,12.304c2.677,3.737,5.525,0.795,9.882-1.822c4.363-2.612,12.3-1.295,14.45,1.935
			c2.149,3.23,8.901,12.983,12.273,10.551c3.373-2.435,4.589,2.173,2.767,7.706c-1.828,5.536-0.521,14.115,1.676,14.195
			c2.203,0.08,12.035,1.411,13.731-0.594c1.696-2.004,3.118-5.647,8.421-5.293c5.299,0.352,8.645-0.507,10.247,3.789
			c1.61,4.301,7.152,3.521,7.705,6.802c0.562,3.279,0.921,4.545,1.613,8.646c0.699,4.101,6.119,6.851,10.979,6.316
			c4.854-0.533,8.988-7.941,14.436-2.412c5.449,5.516-0.742,9.316,3.357,13.762c4.103,4.437,5.312,3.228,10.419,4.474
			c5.105,1.243,7.54,6.114,8.232,10.217c0.699,4.101,0.036,2.771-0.14,9.453c-0.176,6.68,1.692,8.266-0.821,14.043
			c-2.511,5.78-2.074,2.321-4.893,8.032c-2.816,5.714-4.848,4.882-10.581,7.988c-5.734,3.107-6.144,4.998-9.501,11.777
			c-3.363,6.781-14.26,10.355-16.57,7.883c-2.308-2.477-6.928-3.096-12.168-2.242c-5.244,0.855-1.527,5.609-7.908,1.465
			c-6.38-4.141-4.923-5.016-7.622-7.18c-2.7-2.156-7.425-5.158-10.901-0.771c-3.479,4.383-1.106,8.053-6.713,7.639
			c-5.602-0.416-6.69-8.557-9.739-7.633c-3.045,0.922-7.385,1.965-9.104,5.543c-1.72,3.574,2.604,8.465-5.165,10.735
			c-7.766,2.273-9.693-0.51-14.391-0.733c-4.694-0.228-8.775,4.031-12.437,0.478c-3.663-3.562-5.985-10.384-10.18-8.521
			c-4.197,1.856-7.662,5.063-15.915,2.097c-8.255-2.966-8.477-3.408-14.172-7.8c-5.694-4.394-7.6-8.752-15.04-7.989
			c-7.437,0.766-8.59,1.702-5.645-7.539c2.941-9.242-6.543-13.658-9.637-9.584c-3.095,4.071-6.993,1.649-8.335,4.92
			c-1.339,3.264,0.507,6.426-8.673,2.073c-9.18-4.354-9.8,1.439-11.522,5.019c-1.719,3.582-11.797,3.387-14.96,1.912
			c-3.16-1.479-16.146,0.065-18.028-5.871c-1.885-5.932-2.408-6.443-0.662-11.598c1.749-5.154-3.098-10.546-8.806-9.015
			c-5.711,1.537-11.999,1.36-12.37-4.246c-0.371-5.612-2.604-8.465-6.718-6.983C42.657,299.585,37.347,294.88,41.288,289.807z"/>
		<path fill="#3C2517" d="M210.81,365.223c-1.961,0-3.7-0.724-5.168-2.148c-1.318-1.281-2.401-2.812-3.448-4.289
			c-1.077-1.521-2.703-3.82-3.548-3.82c-0.113,0-0.256,0.051-0.352,0.094c-0.656,0.291-1.292,0.615-1.932,0.943
			c-2.368,1.209-5.049,2.584-8.875,2.584c-2.176,0-4.475-0.447-7.02-1.361c-7.805-2.803-8.835-3.508-13.698-7.274l-1.173-0.906
			c-1.533-1.185-2.806-2.358-3.929-3.399c-3.141-2.904-4.936-4.513-9.275-4.068l-1.703,0.186c-1.408,0.16-2.521,0.285-3.488,0.285
			c-0.683,0-2.77,0-3.995-1.676c-1.418-1.938-0.805-4.559,0.825-9.676c0.934-2.932,0.205-4.814-0.57-5.871
			c-0.831-1.143-2.14-1.881-3.329-1.881c-0.566,0-0.98,0.168-1.239,0.504c-2.187,2.881-4.794,3.412-6.52,3.76
			c-1.354,0.273-1.385,0.34-1.48,0.582c-0.183,0.443-0.288,0.932-0.401,1.451c-0.281,1.303-0.94,4.344-4.455,4.346
			c-1.627,0-3.744-0.688-7.302-2.377c-2.275-1.08-3.644-1.307-4.39-1.307c-1.395,0-1.888,0.729-2.978,3.412
			c-0.239,0.59-0.474,1.174-0.729,1.707c-1.828,3.799-7.632,4.362-10.932,4.362c-2.991,0-5.774-0.461-7.438-1.235
			c-0.579-0.271-2.766-0.453-4.366-0.59c-5.578-0.474-13.218-1.123-15.026-6.834l-0.497-1.541c-1.62-5.009-1.938-6.392-0.152-11.66
			c0.447-1.316,0.222-2.74-0.619-3.916c-1.14-1.586-3.131-2.312-5.082-1.789c-2.256,0.608-4.37,0.918-6.281,0.918
			c-5.525,0-9.011-2.797-9.322-7.48c-0.076-1.166-0.457-4.965-2.144-4.965c-0.317,0-0.698,0.078-1.136,0.234
			c-3.531,1.281-7.925-0.576-9.584-3.963c-1.295-2.646-0.858-5.685,1.196-8.33c4.058-5.226,4.429-11.248,4.432-11.308
			c0.027-0.465,0.18-0.922,0.438-1.309c0.438-0.65,4.688-6.58,10.787-6.007c0.198-0.67,0.32-1.969,0.407-2.883
			c0.317-3.299,0.745-7.817,4.81-9.414c2.624-1.037,4.682-0.932,6.317-0.896l0.885,0.017c1.411,0,2.077-0.072,3.091-1.836
			c0.739-1.281,0.312-3.814-0.093-6.268c-0.759-4.505-1.895-11.309,5.618-13.419c2.001-0.563,3.664-0.978,5.076-1.329
			c4.681-1.159,5.936-1.471,8.331-4.21c0.646-0.735,1.183-1.415,1.656-2.014c2.369-2.995,4.618-5.638,10.826-2.488
			c0.723,0.364,1.494,0.55,2.286,0.55c2.991,0,6.089-2.653,6.755-4.936c1.292-4.406,7.702-8.183,12.045-8.183
			c2.346,0,4.228,1.07,5.154,2.932c2.11,4.227,3.578,4.856,4.264,4.856c0.815,0,1.929-0.749,3.131-2.11
			c2.14-2.428,3.333-6.051,4.482-9.556c1.775-5.393,3.594-11.033,9.425-10.5l0,0c1.766,0,4.681-5.257,6.082-7.782
			c2.203-3.975,3.797-6.847,6.5-6.847c0.838,0,2.404,0.321,3.479,2.47c0.529,1.068,0.943,1.068,1.275,1.068
			c0.705,0,1.659-0.327,2.584-0.643c1.105-0.377,2.246-0.769,3.408-0.769c1.478,0,2.432,0.635,2.975,1.167
			c0.928,0.911,5.317,2.262,9.479,2.262c0.841,0,1.58-0.06,2.192-0.175c1.137-0.212,1.657-0.691,2.604-1.559
			c1.478-1.354,3.498-3.205,8.183-3.82c8.262-1.07,11.498,4.641,13.394,7.921l0.274,0.472c0.381,0.654,0.821,1.262,1.259,1.875
			c1.732,2.423,3.886,5.439,3.307,10.882c-0.606,5.658-0.474,7.608,1.623,10.535c0.238,0.338,0.563,0.696,0.749,0.696
			c0.692,0,2.226-1,3.584-1.878c0.669-0.438,1.378-0.898,2.13-1.348c2.422-1.451,5.201-1.756,7.109-1.756
			c3.611,0,8.606,1.171,10.807,4.472c4.985,7.494,7.914,9.538,8.799,9.766c2.358-1.61,4.919-1.246,6.334,0.712
			c1.508,2.087,1.583,5.831,0.205,10.008c-1.292,3.919-0.619,9.232,0.126,10.866c0.354,0.026,0.769,0.063,1.231,0.103
			c1.74,0.149,4.125,0.354,6.269,0.354c2.336,0,3.243-0.251,3.513-0.354c0.207-0.262,0.414-0.553,0.633-0.854
			c1.478-2.054,3.938-5.546,9.785-5.181c0.928,0.063,1.795,0.083,2.601,0.106c3.916,0.103,7.971,0.215,9.889,5.357
			c0.441,1.172,1.466,1.689,3.104,2.428c1.785,0.812,4.236,1.918,4.728,4.839c0.255,1.509,0.472,2.578,0.695,3.707
			c0.266,1.326,0.543,2.728,0.918,4.937c0.421,2.469,4.416,4.604,8.162,4.194c1.09-0.119,2.397-0.95,3.783-1.832
			c1.947-1.235,4.157-2.637,6.777-2.637c2.138,0,4.147,0.943,5.982,2.801c3.833,3.888,3.224,7.548,2.815,9.97
			c-0.338,2.019-0.403,2.772,0.601,3.854c2.396,2.596,3.184,2.707,5.532,3.051c0.95,0.138,2.134,0.312,3.606,0.671
			c5.277,1.288,9.077,5.883,10.16,12.291c0.454,2.655,0.397,3.422,0.216,5.045c-0.105,0.95-0.252,2.256-0.321,4.901
			c-0.057,2.16,0.122,3.771,0.278,5.188c0.317,2.916,0.596,5.431-1.309,9.815c-1.385,3.181-2.051,3.992-2.905,4.869
			c-0.404,0.412-0.861,0.879-2.044,3.277c-2.349,4.76-4.423,5.836-7.895,7.328c-1.077,0.461-2.297,0.986-3.768,1.781
			c-4.387,2.379-4.97,3.574-7.418,8.607l-1,2.051c-3.227,6.502-11.717,10.098-16.354,10.098c-1.929,0-3.412-0.537-4.402-1.602
			c-1.523-1.638-5.32-2.205-9.875-1.457c-1.019,0.166-1.14,0.381-1.476,0.957c-0.381,0.662-1.274,2.213-3.343,2.213
			c-1.231,0-2.561-0.568-4.905-2.09c-4.117-2.675-5.356-4.197-6.449-5.777c-0.426-0.617-0.68-0.988-1.385-1.551
			c-2.039-1.629-3.729-2.457-5.017-2.457c-0.58,0-1.358,0.145-2.26,1.276c-1.015,1.283-1.386,2.484-1.739,3.648
			c-0.611,1.985-1.533,4.995-6.175,4.995c-0.308,0-0.644-0.012-1.001-0.041c-4.303-0.317-6.607-3.727-8.139-5.981
			c-0.345-0.508-0.825-1.223-1.166-1.604l-0.206,0.062c-2.683,0.799-5.724,1.697-6.824,3.986c-0.278,0.572-0.205,1.537-0.132,2.564
			c0.208,2.774,0.543,7.426-6.629,9.526c-2.276,0.666-4.29,0.989-6.162,0.989c-2.312,0-4.045-0.493-5.572-0.932
			c-1.202-0.342-2.239-0.637-3.502-0.695c-0.006,0-0.02,0-0.026,0c-1.464,0-2.756,0.429-4.127,0.877
			C214.069,364.701,212.496,365.223,210.81,365.223z M198.646,349.816c3.501,0,5.661,3.045,7.748,5.994
			c0.914,1.289,1.858,2.623,2.833,3.569c0.593,0.576,1.063,0.695,1.583,0.695c0.861,0,1.981-0.371,3.17-0.763
			c1.624-0.539,3.469-1.146,5.529-1.146l0.484,0.013c1.858,0.088,3.349,0.512,4.664,0.887c1.381,0.395,2.57,0.731,4.164,0.731
			c1.371,0,2.915-0.256,4.717-0.784c3.184-0.929,3.131-1.689,2.942-4.212c-0.109-1.495-0.245-3.358,0.626-5.168
			c2.09-4.342,6.851-5.758,10.001-6.69l0.676-0.201c0.401-0.121,0.812-0.184,1.223-0.184c2.508,0,3.936,2.112,5.198,3.977
			c1.474,2.176,2.563,3.609,4.257,3.736c0.957,0.067,1.457-0.072,1.461-0.072c0.057-0.107,0.262-0.773,0.41-1.264
			c0.428-1.388,1.011-3.293,2.634-5.336c1.673-2.107,3.847-3.228,6.288-3.228c2.521,0,5.214,1.172,8.234,3.588
			c1.293,1.037,1.883,1.892,2.406,2.644c0.694,1.012,1.414,2.051,5.012,4.387c0.636,0.414,1.104,0.691,1.447,0.881
			c0.688-0.996,1.969-2.289,4.646-2.727c6.383-1.037,11.611,0.02,14.41,2.973c0-0.043,0.231,0.021,0.694,0.021l0,0
			c3.247,0,9.584-2.89,11.744-7.24l0.984-2.017c2.577-5.293,3.753-7.711,9.594-10.875c1.676-0.909,3.07-1.508,4.188-1.987
			c2.757-1.187,3.688-1.586,5.308-4.879c1.438-2.902,2.17-3.769,2.981-4.597c0.391-0.399,0.755-0.776,1.864-3.321
			c1.358-3.132,1.202-4.578,0.911-7.201c-0.166-1.504-0.371-3.373-0.305-5.887c0.072-2.865,0.241-4.354,0.351-5.339
			c0.141-1.262,0.177-1.562-0.172-3.612c-0.274-1.621-1.541-6.986-6.308-8.15c-1.259-0.311-2.267-0.453-3.134-0.58
			c-3.062-0.447-5.112-0.906-8.567-4.646c-2.766-2.998-2.263-6.004-1.895-8.199c0.363-2.176,0.583-3.487-1.404-5.502
			c-1.123-1.141-1.862-1.272-2.319-1.272c-1.126,0-2.531,0.892-4.019,1.839c-1.735,1.102-3.703,2.35-5.982,2.598
			c-5.773,0.641-12.805-2.604-13.795-8.443c-0.363-2.15-0.636-3.508-0.891-4.794c-0.235-1.173-0.461-2.289-0.727-3.853
			c-0.158-0.279-1.17-0.736-1.775-1.015c-1.938-0.875-4.588-2.077-5.801-5.314c-0.633-1.695-1.17-1.904-5.207-2.014
			c-0.869-0.02-1.803-0.047-2.804-0.115c-2.727-0.16-3.803,1.014-5.261,3.047c-0.348,0.48-0.68,0.938-1.021,1.342
			c-1.194,1.413-3.381,2.014-7.308,2.014c-2.364,0-4.876-0.215-6.708-0.377c-0.775-0.062-1.395-0.119-1.775-0.133
			c-0.68-0.026-1.988-0.295-3.049-1.814c-2.156-3.098-2.633-10.754-0.98-15.756c0.674-2.037,0.773-3.587,0.697-4.505
			c-0.681,0.371-1.438,0.563-2.228,0.563c-2.22,0-6.003-1.252-13.204-12.085c-0.699-1.044-3.39-2.173-6.523-2.173
			c-1.779,0-3.365,0.361-4.462,1.021c-0.696,0.417-1.352,0.845-1.972,1.249c-2.239,1.455-4.174,2.71-6.39,2.71
			c-1.925,0-3.585-0.958-4.937-2.846c-3.184-4.449-3.217-7.864-2.554-14.076c0.374-3.497-0.842-5.195-2.376-7.343
			c-0.533-0.744-1.057-1.484-1.517-2.274l-0.285-0.492c-2.058-3.565-3.862-5.963-8.272-5.392c-3.07,0.402-4.134,1.379-5.373,2.511
			c-1.136,1.043-2.551,2.341-5.131,2.824c-0.925,0.172-1.981,0.262-3.141,0.262c-4.333,0-10.098-1.262-12.705-3.396
			c-0.388,0.081-1.007,0.293-1.487,0.459c-1.262,0.431-2.696,0.921-4.253,0.921c-1.479,0-3.423-0.464-4.963-2.441
			c-0.59,0.932-1.269,2.16-1.792,3.099c-2.816,5.073-6.116,10.842-11.068,10.409h-0.003c-1.746,0-2.912,3.551-4.042,6.985
			c-1.252,3.813-2.673,8.133-5.519,11.353c-2.257,2.558-4.608,3.853-6.987,3.853c-4.505,0-7.218-4.396-8.868-7.706h0.004
			c0.003,0-0.146-0.083-0.554-0.083c-2.558,0-6.605,2.78-7.109,4.482c-1.212,4.151-6.029,8.636-11.69,8.636
			c-1.613,0-3.164-0.374-4.615-1.11c-1.55-0.785-2.239-0.908-2.511-0.908c-0.345,0-0.968,0.759-1.951,2.001
			c-0.523,0.659-1.11,1.401-1.815,2.21c-3.462,3.955-5.97,4.578-10.965,5.817c-1.372,0.341-2.985,0.739-4.927,1.289
			c-2.58,0.722-2.889,1.935-1.938,7.612c0.56,3.35,1.14,6.805-0.521,9.69c-2.239,3.886-5.071,4.413-7.55,4.413l-1.997-0.033
			c-0.998,0-2.091,0.062-3.32,0.553c-1.126,0.441-1.371,3.031-1.569,5.111c-0.269,2.84-0.723,7.59-5.142,7.59
			c-0.238,0-0.49-0.02-0.756-0.053c-2.418-0.332-4.76,1.971-5.79,3.256c-0.249,2.145-1.279,8.031-5.434,13.381
			c-0.841,1.084-1.057,2.062-0.639,2.916c0.536,1.092,2.087,1.789,3.216,1.381c0.994-0.36,1.965-0.543,2.879-0.543
			c1.991,0,6.695,0.953,7.278,9.771c0.06,0.871,0.179,2.674,4.188,2.674c1.438,0,3.147-0.254,4.946-0.738
			c3.995-1.074,8.232,0.463,10.601,3.756c1.818,2.541,2.296,5.666,1.312,8.57c-1.309,3.854-1.222,4.111,0.173,8.422l0.507,1.57
			c0.769,2.432,6.894,2.951,10.555,3.26c2.627,0.226,4.697,0.396,6.105,1.058c0.778,0.362,2.763,0.756,5.264,0.756
			c4.217,0,6.112-1.078,6.291-1.449c0.212-0.438,0.404-0.92,0.603-1.403c1.001-2.48,2.681-6.631,7.745-6.631
			c1.879,0,4.035,0.592,6.596,1.805c2.452,1.162,3.78,1.617,4.479,1.785c0.013-0.066,0.029-0.134,0.04-0.189
			c0.139-0.652,0.314-1.457,0.669-2.318c1.169-2.852,3.607-3.346,5.221-3.674c1.411-0.287,2.432-0.494,3.448-1.828
			c1.242-1.641,3.138-2.537,5.334-2.537c2.819,0,5.688,1.527,7.486,3.988c2.088,2.855,2.555,6.576,1.315,10.471
			c-0.285,0.902-1.033,3.246-1.292,4.629c0.649-0.033,1.511-0.129,2.475-0.237l1.749-0.193c6.771-0.682,9.902,2.271,13.301,5.414
			c1.094,1.011,2.22,2.058,3.571,3.101l1.187,0.914c4.452,3.448,5.021,3.891,12.287,6.5c1.974,0.709,3.703,1.057,5.276,1.057
			c2.588,0,4.413-0.934,6.533-2.018c0.723-0.371,1.447-0.738,2.187-1.066C197.012,349.996,197.83,349.816,198.646,349.816z"/>
	</g>
	<g opacity="0.8">
		<path fill="#F7C961" d="M140.569,308.671c-0.537,0-1.077-0.168-1.541-0.512c-2.451-1.841-5.442-3.964-6.201-4.345
			c-2.326-1.143-2.577-4.354-2.85-7.756c-0.069-0.891-0.132-1.735-0.241-2.381c-0.464-2.736-2.266-6.344-3.71-6.656
			c-0.468,0.256-1.865,2.472-2.459,3.42c-1.129,1.8-2.842,4.513-5.416,3.058c-0.891-0.5-7.112-3.019-13.284-5.14
			c-0.143-0.045-0.278-0.092-0.4-0.129c0.01,1.246-0.087,2.883-0.845,4.664c-1.037,2.437-2.73,3.359-3.966,3.707
			c-3.704,1.031-8.159-1.666-12.42-4.735c-0.785-0.57-1.238-0.681-1.338-0.644c-0.338,0.152-0.935,1.432-1.106,2.637
			c-0.202,1.404-1.48,2.371-2.902,2.189c-1.404-0.191-2.385-1.477-2.199-2.881c0.115-0.865,0.861-5.244,4.181-6.676
			c1.349-0.58,3.544-0.842,6.374,1.195c5.393,3.887,7.338,4.145,8.026,3.955c0.083-0.023,0.328-0.093,0.613-0.759
			c0.483-1.146,0.453-2.231,0.424-3.278c-0.04-1.293-0.093-3.06,1.438-4.187c1.627-1.205,3.753-0.625,5.791,0.074
			c4.704,1.612,9.67,3.53,12.366,4.692c0.106-0.166,0.212-0.334,0.309-0.485c1.633-2.603,4.104-6.548,7.897-5.712
			c4.995,1.076,7.251,8.181,7.702,10.826c0.129,0.769,0.212,1.775,0.298,2.838c0.086,1.089,0.242,3.017,0.494,3.82
			c1.864,1.101,5.697,3.955,6.513,4.564c1.136,0.852,1.368,2.465,0.514,3.602C142.126,308.318,141.351,308.671,140.569,308.671z"/>
	</g>
	<g opacity="0.8">
		<path fill="#F7C961" d="M181.396,310.949c-0.738,0-1.378-0.242-1.938-0.793c-0.802-0.791-1.018-2.162-0.504-3.166
			c0.537-1.043,1.687-1.561,2.776-1.355c0.477-0.191,1.325-0.58,2.759-1.346c1.435-0.764,2.624-1.838,3.777-2.877
			c1.732-1.568,3.534-3.211,5.88-3.029c1.431,0.094,2.753,0.848,3.929,2.24c1.196,1.404,1.951,1.529,2.087,1.551
			c0.106-0.023,0.61-0.404,1.008-1.754c1.871-6.4,4.171-10.064,6.824-10.902c1.352-0.426,2.743-0.147,3.902,0.783
			c0.4,0.168,1.978-0.445,2.739-0.736c1.918-0.746,4.287-1.662,6.566-0.676c0.51-0.104,1.613-0.688,2.295-1.047
			c2.055-1.08,4.615-2.424,6.98-1.223c1.491,0.76,2.422,2.297,2.756,4.576c0.68,4.559-0.053,7.738-0.543,9.842
			c-0.169,0.752-0.41,1.781-0.331,2.053c0.388,1.346-0.348,2.811-1.683,3.227c-1.336,0.412-2.743-0.248-3.19-1.571
			c-0.554-1.632-0.192-3.203,0.192-4.867c0.443-1.933,1-4.332,0.463-7.924c-0.032-0.242-0.072-0.429-0.108-0.565
			c-0.6,0.198-1.527,0.688-2.141,1.01c-2.087,1.094-4.449,2.34-6.722,1.219c-0.407-0.145-1.882,0.438-2.677,0.746
			c-2.04,0.795-4.776,1.85-7.225,0.367c-0.769,0.916-2.064,3.387-3.167,7.141c-1.17,3.99-3.555,5.059-4.873,5.336
			c-1.67,0.361-4.254,0.076-7.076-3.256c-0.321-0.379-0.49-0.461-0.494-0.465c-0.155,0.129-1.232,1.104-1.944,1.75
			c-1.252,1.127-2.81,2.531-4.797,3.594C184.586,310.074,182.804,310.949,181.396,310.949z"/>
	</g>
	<g opacity="0.8">
		<path fill="#F7C961" d="M168.224,284.619c-0.179,0-0.36-0.02-0.546-0.061c-1.199-0.259-2.024-1.318-2.031-2.5
			c-0.155-0.326-0.53-0.929-0.814-1.386c-1.226-1.965-3.055-4.909-3.257-8.598c-1.104,0.014-3.355,0.666-4.78,1.079
			c-2.548,0.736-4.942,1.429-6.934,1.181c-2.641-0.345-4.899-1.879-6.198-4.211c-1.392-2.504-1.478-5.502-0.235-8.224
			c1.149-2.526-0.424-6.89-5.608-10.008c-4.052-2.424-7.609,2.568-7.762,2.78c-0.812,1.163-2.418,1.45-3.584,0.636
			c-1.163-0.813-1.448-2.418-0.633-3.584c2.216-3.171,8.126-8.143,14.629-4.24c6.907,4.146,10.12,11.11,7.643,16.553
			c-0.557,1.217-0.537,2.524,0.05,3.585c0.503,0.904,1.338,1.475,2.358,1.604c0.908,0.109,3.094-0.507,4.844-1.014
			c3.674-1.066,7.139-2.07,9.523-0.335c0.799,0.584,1.76,1.699,1.815,3.728c0.069,2.448,1.418,4.61,2.498,6.348
			c1.011,1.619,1.882,3.025,1.537,4.631C170.477,283.792,169.41,284.619,168.224,284.619z"/>
	</g>
	<g opacity="0.8">
		<path fill="#F7C961" d="M183.989,264.314c-0.388,0-0.781-0.09-1.152-0.275c-1.272-0.632-1.782-2.18-1.146-3.451
			c4.538-9.066,6.963-8.979,7.997-8.941c0.831,0.029,1.583,0.379,2.156,0.972c0.544-0.312,1.216-0.763,1.689-1.076
			c1.898-1.275,3.697-2.469,5.569-1.786c0.421,0.153,0.798,0.395,1.109,0.699c2.018-0.709,6.072-2.048,9.773,2.127
			c1.066,1.206,4.312,4.88,10.64,1.202c0.716-0.42,1.468-0.925,2.24-1.441c3.018-2.018,6.439-4.299,9.905-3.379
			c1.891,0.508,3.408,1.872,4.502,4.062c0.633,1.271,0.112,2.818-1.156,3.451c-1.272,0.641-2.819,0.116-3.455-1.156
			c-0.275-0.557-0.713-1.245-1.216-1.381c-1.216-0.317-3.82,1.418-5.718,2.685c-0.865,0.576-1.713,1.14-2.515,1.604
			c-6.338,3.691-12.562,2.877-17.084-2.234c-1.392-1.577-2.435-1.307-4.304-0.646c-1.146,0.4-2.577,0.904-3.988,0.168
			c-0.156-0.078-0.328-0.186-0.5-0.317c-0.321,0.202-0.663,0.435-0.941,0.616c-2.023,1.354-4.114,2.761-6.241,2.109
			c-0.251-0.078-0.49-0.182-0.712-0.308c-0.904,1.216-2.146,3.271-3.15,5.276C185.838,263.794,184.931,264.314,183.989,264.314z"/>
	</g>
	<g opacity="0.8">
		<path fill="#F7C961" d="M311.544,321.078c-0.146,0-0.294-0.01-0.443-0.035c-1.403-0.246-2.339-1.578-2.094-2.979
			c0.162-0.924,0.129-1.66-0.09-1.972c-0.374-0.53-1.878-0.793-3.084-1c-1.987-0.346-4.233-0.735-5.539-2.62
			c-0.479-0.695-3.451-1.326-5.228-1.703c-2.641-0.562-5.371-1.144-7.51-2.47c-0.382-0.233-0.555-0.243-0.555-0.243
			c-0.406,0.123-1.302,1.465-1.732,2.108c-0.578,0.869-1.176,1.767-1.931,2.469c-3.257,3.041-6.388-0.036-7.896-1.51
			c-0.525-0.519-1.09-1.074-1.729-1.588l-0.229-0.183c-2.445-1.959-3.92-3.145-7.994-3.69c-2.59-0.351-6.708,3.524-8.182,5.353
			c-0.896,1.108-2.508,1.276-3.619,0.387c-1.105-0.892-1.277-2.515-0.387-3.617c0.666-0.832,6.686-8.066,12.879-7.223
			c5.486,0.741,7.818,2.61,10.521,4.776l0.227,0.183c0.774,0.623,1.471,1.297,2.112,1.922c0.345,0.342,0.774,0.762,1.117,1.051
			c0.262-0.334,0.546-0.762,0.823-1.18c1.289-1.937,4.32-6.472,9.283-3.386c1.377,0.851,3.656,1.335,5.867,1.806
			c3.469,0.738,6.744,1.434,8.388,3.811c0.223,0.135,1.404,0.34,2.187,0.477c2.146,0.373,4.817,0.838,6.417,3.113
			c1.047,1.488,1.365,3.441,0.951,5.814C313.86,320.201,312.771,321.078,311.544,321.078z"/>
	</g>
	<g opacity="0.8">
		<path fill="#F7C961" d="M297.326,288.773c-0.828,0-1.645-0.398-2.141-1.137c-0.683-1.019-0.543-2.351,0.269-3.203
			c-0.021-0.642-0.396-2.771-3.591-8.371c-0.838-1.465-1.354-1.646-1.451-1.664c-0.1-0.014-0.655-0.092-2.077,0.918
			c-4.074,2.893-8.252,2.352-12.416-1.598c-0.81,0.782-2.054,2.898-2.819,4.87c-0.514,1.324-2,1.979-3.328,1.472
			c-1.326-0.519-1.984-2.008-1.472-3.33c0.867-2.242,3.272-7.537,6.827-8.289c1.475-0.316,2.926,0.146,4.078,1.3
			c3.113,3.087,4.686,2.418,6.15,1.378c2.244-1.594,4.269-2.166,6.162-1.746c1.883,0.411,3.459,1.766,4.813,4.131
			c3.528,6.182,6.262,12.258,2.425,14.836C298.319,288.632,297.819,288.773,297.326,288.773z"/>
	</g>
	<g>
		<path fill="#52B368" d="M179.242,221.639c0,0-11.711-2.127-5.691-4.29c6.02-2.167-11.104-8.728-1.58-9.358
			c3.671-2.47-2.846-12.607,0.785-8.527c3.631,4.08,5.301,3.712,5.568,5.4c0.272,1.688,3.956-10.742,4.142-4.038
			c0.186,6.702-0.066,7.354-0.299,10.357c-0.229,3.003,5.003-8.681,2.2,1.446c-2.806,10.127-0.076,10.243-3.771,8.289
			L179.242,221.639z"/>
	</g>
	<g>
		<path fill="#3E874F" d="M179.418,219.721c0,0-2.266-14.161,1.335-8.502c3.598,5.66,2.859-16.772,6.47-6.428
			c3.055,2.878,8.48-9.46,6.629-3.366c-1.855,6.094-1.027,7.778-2.199,8.923c-1.17,1.143,9.328-0.926,4.382,2.622
			c-4.949,3.544-5.519,3.587-7.838,4.823c-2.318,1.239,8.13,1.275-0.357,3.177c-8.49,1.905-7.676,5.016-7.431-0.093L179.418,219.721
			z"/>
	</g>
</g>
</svg>
