<?xml version="1.0" encoding="utf-8"?>
<!-- Generator: Adobe Illustrator 16.0.0, SVG Export Plug-In . SVG Version: 6.00 Build 0)  -->
<!DOCTYPE svg PUBLIC "-//W3C//DTD SVG 1.1//EN" "http://www.w3.org/Graphics/SVG/1.1/DTD/svg11.dtd">
<svg version="1.1" id="Layer_1" xmlns="http://www.w3.org/2000/svg" xmlns:xlink="http://www.w3.org/1999/xlink" x="0px" y="0px"
	 width="500px" height="500px" viewBox="0 0 500 500" enable-background="new 0 0 500 500" xml:space="preserve">
<g id="Layer_1_copy_82">
	<g>
		<path fill="#E3E5B2" d="M363.202,229.673c0,0,20.561,5.793,37.062,2.029c16.511-3.764,22.882-7.529,30.121-20.852
			c7.234-13.316,27.509-23.455,40.252-6.658l-3.766,95.271c0,0-8.109-13.609-19.984-10.713c-11.87,2.895-15.636,25.771-55.6,28.088
			c-39.959,2.314-44.413,2.706-44.413,2.706l-4.812-68.733l8.105-27.22L363.202,229.673z"/>
		<path fill="#3C2517" d="M346.876,321.859c-0.552,0-1.086-0.192-1.506-0.553c-0.474-0.404-0.765-0.984-0.809-1.603l-4.812-68.729
			c-0.02-0.276,0.01-0.558,0.093-0.824l8.11-27.22c0.192-0.644,0.654-1.175,1.269-1.449c0.617-0.273,1.321-0.273,1.93,0.01
			l12.853,5.997c1.481,0.401,12.23,3.167,23.748,3.167h0.003c4.429,0,8.468-0.411,11.998-1.215
			c16.607-3.788,21.949-7.466,28.598-19.697c5.327-9.809,15.999-16.657,25.941-16.657c7.086,0,13.373,3.357,18.192,9.702
			c0.323,0.43,0.489,0.958,0.467,1.492l-3.765,95.271c-0.041,1.024-0.748,1.898-1.738,2.152c-1.005,0.261-2.035-0.177-2.563-1.052
			c-0.061-0.104-6.098-9.994-14.678-9.994c-0.914,0-1.85,0.117-2.768,0.341c-3.257,0.79-6.033,3.646-9.548,7.263
			c-7.912,8.139-18.749,19.279-46.466,20.889c-39.471,2.289-44.304,2.695-44.351,2.699
			C347.008,321.859,346.942,321.859,346.876,321.859z M344.402,251.072l4.622,65.992c4.056-0.271,14.761-0.955,42.135-2.539
			c25.917-1.502,36.024-11.897,43.411-19.49c3.872-3.984,7.22-7.426,11.769-8.537c1.281-0.311,2.583-0.471,3.867-0.471
			c6.335,0,11.364,3.742,14.598,7.084l3.484-88.161c-3.868-4.799-8.577-7.229-13.997-7.229c-9.277,0-18.028,7.162-21.873,14.237
			c-7.785,14.327-15.059,18.222-31.634,22c-3.869,0.884-8.251,1.332-13.03,1.332h-0.003c-13.009,0-24.687-3.247-25.177-3.388
			c-0.12-0.033-0.24-0.073-0.354-0.126l-10.596-4.946L344.402,251.072z"/>
	</g>
	<g>
		<path fill="#859958" d="M37.717,306.993c0-35.343,69.877-63.997,156.081-63.997c86.2,0,156.085,28.654,156.085,63.997
			l-2.609-86.585l-98.456-35.909l-89.188-1.449L96.5,198.108l-42.858,24.036L44.664,276.3L37.717,306.993z"/>
		<path fill="#3C2517" d="M37.717,309.312c-0.087,0-0.175-0.008-0.262-0.015c-1.171-0.133-2.059-1.124-2.059-2.306
			c0-4.26,0.944-8.51,2.807-12.646l4.202-18.559l8.951-54.022c0.112-0.694,0.536-1.298,1.15-1.638l42.859-24.039
			c0.186-0.104,0.386-0.184,0.593-0.23l63.13-15.058c0.188-0.047,0.367-0.077,0.574-0.066l89.194,1.448
			c0.254,0.006,0.511,0.053,0.754,0.14l98.458,35.91c0.888,0.324,1.492,1.158,1.521,2.105l2.559,84.938
			c0.032,0.574,0.05,1.143,0.05,1.717c0,1.27-1.015,2.299-2.283,2.318c-1.354-0.014-2.312-0.98-2.354-2.248l-0.043-1.572
			c-2.053-33.184-70.992-60.179-153.722-60.179c-73.986,0-137.479,21.239-151.183,50.531l-2.643,11.66
			C39.732,308.57,38.784,309.312,37.717,309.312z M193.798,240.68c73.985,0,135.523,20.695,153.251,49.294l-2.043-67.928
			l-96.615-35.239l-88.508-1.435l-62.531,14.918l-41.607,23.332l-8.797,53.051l-1.555,6.878
			C68.076,258.173,126.854,240.68,193.798,240.68z"/>
	</g>
	<g>
		<path fill="#A4D286" d="M37.717,306.989c0,35.346,69.877,64.001,156.081,64.001c86.2,0,165.883-28.65,165.883-63.997l1.724-66.227
			l-30.345,8.02l-38.804,24.905l-116.7,9.847l-92.665-13.61l-35.619-33.884l-9.421-1.952L37.717,306.989z"/>
		<path fill="#3C2517" d="M193.798,373.305c-88.82,0-158.401-29.128-158.401-66.316l0.137-72.9c0.003-0.697,0.313-1.355,0.857-1.792
			c0.538-0.44,1.252-0.613,1.93-0.47l9.421,1.952c0.421,0.086,0.814,0.29,1.128,0.587l35.083,33.373l91.673,13.471l115.863-9.779
			l38.318-24.593c0.204-0.13,0.429-0.23,0.658-0.29l30.343-8.023c0.707-0.19,1.455-0.027,2.028,0.424
			c0.575,0.451,0.898,1.148,0.879,1.875l-1.723,66.231c0,17.84-18.506,34.68-52.112,47.357
			C278.059,366.421,235.748,373.305,193.798,373.305z M40.162,236.938l-0.13,70.058c0,34.008,68.977,61.675,153.766,61.675
			c87.132,0,163.566-28.821,163.566-61.678l1.642-63.2L332,250.932l-38.496,24.709c-0.316,0.205-0.681,0.327-1.055,0.357
			l-116.7,9.845c-0.177,0.017-0.354,0.011-0.534-0.017l-92.664-13.609c-0.472-0.068-0.912-0.279-1.259-0.609l-35.14-33.427
			L40.162,236.938z"/>
	</g>
	<g>
		<path fill="#AABB8A" d="M200.459,170.889c-89.881,0-162.742,27.229-162.742,60.813c0,33.583,72.861,60.812,162.742,60.812
			c89.882,0,162.743-27.229,162.743-60.812C363.202,198.118,290.341,170.889,200.459,170.889z M197.562,274.491
			C124.901,274.491,66,255.838,66,232.823c0-23.007,58.9-41.663,131.562-41.663c72.661,0,131.562,18.656,131.562,41.663
			C329.124,255.837,270.223,274.491,197.562,274.491z"/>
		<path fill="#3C2517" d="M200.459,294.832c-92.559,0-165.062-27.729-165.062-63.13c0-35.399,72.504-63.129,165.062-63.129
			c92.559,0,165.059,27.729,165.059,63.129S293.018,294.832,200.459,294.832z M200.459,173.205
			c-88.46,0-160.427,26.245-160.427,58.497c0,32.256,71.967,58.493,160.427,58.493s160.426-26.237,160.426-58.493
			C360.885,199.45,288.919,173.205,200.459,173.205z M197.562,276.811c-75.07,0-133.882-19.324-133.882-43.987
			c0-24.659,58.812-43.979,133.882-43.979s133.881,19.32,133.881,43.979C331.443,257.486,272.633,276.811,197.562,276.811z
			 M197.562,193.476c-70.059,0-129.246,18.022-129.246,39.347c0,21.333,59.188,39.351,129.246,39.351s129.246-18.018,129.246-39.351
			C326.809,211.498,267.62,193.476,197.562,193.476z"/>
	</g>
</g>
</svg>
