<svg id="sensory_therapy" data-name="sensory therapy" xmlns="http://www.w3.org/2000/svg" viewBox="0 0 300 300"><defs><style>.cls-1{fill:#ed1c24;}.cls-2{fill:#3c2415;}.cls-3{fill:#5b280c;}.cls-3,.cls-4,.cls-5{fill-rule:evenodd;}.cls-4{fill:#9d1c24;}.cls-5,.cls-6{fill:#f7a811;stroke:#3c2415;stroke-linecap:round;stroke-linejoin:round;stroke-width:1.87px;}</style></defs><title>sensory therapy</title><path class="cls-1" d="M277.34,117a24.38,24.38,0,0,0-22.15,1.92c0-.13-10.71,7.52-18.88,3.55-6.93-3.37-10.56-7.5-11.93-14.92,0-.32.91-12.64-15-19.15a24.45,24.45,0,0,0-20.68,44.24s12.32,4.65,13.46,13.65c.93,7.36-.4,12.54-5.37,17.55a24,24,0,0,0-3.9,3.37s-4.32,5.3-4.8,7.51a24.45,24.45,0,1,0,47,7.45h0a23.34,23.34,0,0,0-.39-2.89,16.86,16.86,0,0,1,4.17-12.06c5.66-7.44,19.14-5.27,20-4.91a24.45,24.45,0,1,0,18.4-45.3Zm-82.57,7.39a14.39,14.39,0,1,1,18.76-7.92A14.38,14.38,0,0,1,194.77,124.38Zm10.57,72.86a14.39,14.39,0,1,1,18.75-7.92A14.39,14.39,0,0,1,205.34,197.24Zm57.74-45.12a14.39,14.39,0,1,1,18.75-7.92A14.38,14.38,0,0,1,263.08,152.12Z"/><path class="cls-2" d="M201.24,207.33a25.32,25.32,0,0,1-13.94-32.88c.54-2.22,4.2-6.95,5-7.81h0a25.6,25.6,0,0,1,4-3.44c4.54-4.6,6-9.48,5.09-16.8s-10-11.74-12.8-12.92l-.23-.1h0A25.28,25.28,0,0,1,209.7,87.62c14.47,5.92,15.53,16.63,15.51,19.78v.06c1.27,6.86,4.49,10.87,11.45,14.26l.61.26h0c3.06,1.25,8.51,1.64,17.06-3.55a4.88,4.88,0,0,1,.46-.26,25.28,25.28,0,1,1,3.83,44.89c-1.18-.41-13.81-2.24-19,4.65l0,0a16,16,0,0,0-4,11.41,24.51,24.51,0,0,1,.39,2.93h0a25.28,25.28,0,0,1-34.73,25.23Zm-7.72-39.58c-1.37,1.67-4.27,5.58-4.61,7.13a.74.74,0,0,1,0,.14,23.62,23.62,0,0,0,43.76,17.77,23.35,23.35,0,0,0,1.68-10.57h0a24.44,24.44,0,0,0-.38-2.8s0-.08,0-.12a17.58,17.58,0,0,1,4.35-12.63c6-7.79,19.93-5.58,21-5.15a23.62,23.62,0,1,0-3.63-41.91l-.14.08a2.86,2.86,0,0,0-.29.17c-9.13,5.55-15.13,5.06-18.55,3.67h0l-.7-.31c-7.43-3.61-11-8.11-12.39-15.53a2.2,2.2,0,0,1,0-.3c.06-11.39-11.06-16.83-14.48-18.23a23.62,23.62,0,0,0-20,42.73l.11.05c11.44,4.86,13.46,11.58,13.8,14.24,1,7.92-.62,13.21-5.61,18.24l-.12.1A23.59,23.59,0,0,0,193.52,167.75ZM205,198a15.23,15.23,0,1,1,19.84-8.38A15.24,15.24,0,0,1,205,198Zm10.83-26.67A13.56,13.56,0,1,0,223.32,189,13.57,13.57,0,0,0,215.85,171.34Zm46.91-18.45a15.23,15.23,0,1,1,19.84-8.38A15.25,15.25,0,0,1,262.76,152.89Zm10.83-26.67a13.56,13.56,0,1,0,7.46,17.66A13.56,13.56,0,0,0,273.59,126.22Zm-79.13-1.07a15.22,15.22,0,1,1,19.84-8.38A15.23,15.23,0,0,1,194.46,125.15Zm10.83-26.67a13.56,13.56,0,1,0,7.46,17.67A13.58,13.58,0,0,0,205.29,98.48Z"/><path class="cls-3" d="M243.12,151.47a17.78,17.78,0,1,1-9.79-23.17A17.79,17.79,0,0,1,243.12,151.47Z"/><path class="cls-2" d="M219.64,162a18.61,18.61,0,1,1,24.25-10.24A18.64,18.64,0,0,1,219.64,162Zm13.38-33a17,17,0,1,0,9.32,22.08A17,17,0,0,0,233,129.07Z"/><path class="cls-4" d="M206.6,95.26a17,17,0,1,0,9.38,22.2A17,17,0,0,0,206.6,95.26Zm-10.17,25a10,10,0,1,1,13-5.5A10,10,0,0,1,196.43,120.31Z"/><path class="cls-2" d="M193.46,127.61a17.87,17.87,0,1,1,23.29-9.84A17.9,17.9,0,0,1,193.46,127.61ZM206.29,96a16.21,16.21,0,1,0,8.92,21.11A16.24,16.24,0,0,0,206.29,96Zm-10.18,25.06a10.84,10.84,0,1,1,14.12-6A10.86,10.86,0,0,1,196.11,121.09Zm7.53-18.54a9.17,9.17,0,1,0,5,12A9.19,9.19,0,0,0,203.64,102.55Z"/><path class="cls-4" d="M274.9,123a17,17,0,1,0,9.38,22.2A17,17,0,0,0,274.9,123Zm-10.17,25.06a10,10,0,1,1,13-5.51A10,10,0,0,1,264.73,148.05Z"/><path class="cls-2" d="M261.77,155.34a17.87,17.87,0,1,1,23.28-9.83A17.88,17.88,0,0,1,261.77,155.34Zm12.82-31.57a16.21,16.21,0,1,0,8.92,21.11A16.22,16.22,0,0,0,274.59,123.77Zm-10.18,25a10.84,10.84,0,1,1,14.12-6A10.85,10.85,0,0,1,264.41,148.82Zm7.53-18.53a9.17,9.17,0,1,0,5,11.94A9.17,9.17,0,0,0,271.94,130.29Z"/><path class="cls-4" d="M217.16,168.11a17,17,0,1,0,9.38,22.2A17,17,0,0,0,217.16,168.11ZM207,193.17a10,10,0,1,1,13-5.5A10,10,0,0,1,207,193.17Z"/><path class="cls-2" d="M204,200.46a17.87,17.87,0,1,1,23.28-9.83A17.9,17.9,0,0,1,204,200.46Zm12.82-31.57A16.21,16.21,0,1,0,225.77,190,16.22,16.22,0,0,0,216.85,168.89Zm-10.17,25.05a10.84,10.84,0,1,1,14.11-6A10.85,10.85,0,0,1,206.68,193.94Zm7.52-18.53a9.17,9.17,0,1,0,5.05,11.94A9.18,9.18,0,0,0,214.2,175.41Z"/><path class="cls-5" d="M115.23,199.41s3.62,9.31,8.86,8-1.6-10.67-1.6-10.67"/><path class="cls-5" d="M155.78,154.15s13.45,2.08,12.83-4.14-12.83-4.15-12.83-4.15"/><path class="cls-6" d="M74.8,186.62s-7,10.26-3.37,11.91,9.48-7.68,9.48-7.68"/><path class="cls-5" d="M58.45,161.22c-7.9-.11-7.45-4.41-7.45-4.41s.44-3.77,7.45-4.07"/><path class="cls-5" d="M60.22,133.27s-15.35-3.52-16,1.36,13.49,7,13.49,7"/><path class="cls-5" d="M61.71,124.14s-9-5.46-5.62-9.47,11.85,1.94,11.85,1.94"/><circle class="cls-6" cx="107.08" cy="148.14" r="51.15" transform="translate(-73.38 119.11) rotate(-45)"/><path class="cls-5" d="M104.63,160.05s2.07,8.62,6.43,8.25,5.6-8.25,5.6-8.25"/><path class="cls-5" d="M104.63,175.81S105,186,109.5,186.6s5.09-10.79,5.09-10.79"/><path class="cls-5" d="M120,175.81s3.94,11.2,10,8.51-2.08-12.24-2.08-12.24"/><path class="cls-5" d="M121.22,161.29s8.09,7.64,11.83,2.89-5.91-8.49-5.91-8.49"/><path class="cls-5" d="M133.91,170.63s12.83,9.12,15.11,3.73-8.92-8.62-8.92-8.62"/><path class="cls-5" d="M133.91,152.58s13.45,2.07,12.83-4.15-12.83-4.15-12.83-4.15"/><path class="cls-5" d="M135.33,133.08s12-7.05,14-3.94-3.29,10.16-7.71,10.78"/><path class="cls-5" d="M120,141.17c.41-.62,3.76-8.92,7.59-7.88S129.73,144,129.73,144"/><path class="cls-5" d="M106.29,151.64s0-9.64,3.79-9.23,6.31,6,6.31,6"/><path class="cls-5" d="M107.12,133.2s-.62-9.46,3.53-9.87,6,9.87,6,9.87"/><path class="cls-5" d="M107.09,116.69s.2-11.2,4.78-10.16,4,10.16,4,10.16"/><path class="cls-5" d="M98.87,101.43s-2.54-10.91,2.16-11,6.32,8.89,6.32,8.89"/><path class="cls-5" d="M121.22,120.63s2.32-6.43,6.35-5.6,1.54,9.75,1.54,9.75"/><path class="cls-5" d="M115.75,99.15s1.69-6.63,5.78-6.19,2.46,9.56,2.46,9.56"/><path class="cls-5" d="M143.66,115.09s7.88-6.57,9.63-3-4.07,11.12-4.07,11.12"/><path class="cls-5" d="M121.22,108.81s4.64-11,8.65-10,.22,12.72.22,12.72"/><path class="cls-5" d="M131,107.19s5.66-10.5,9.56-9.09-1,12.69-1,12.69"/><path class="cls-5" d="M107.09,101.55s-.8-9.75,2.52-9.75,6.25,9.75,6.25,9.75"/><path class="cls-5" d="M91.35,111.57s-5.39-13.76,0-14.9,9.34,8.51,9.34,8.51"/><path class="cls-5" d="M92.6,127.06s-3.94-9.12,0-10.37,8.09,6.63,8.09,6.63"/><path class="cls-5" d="M93.22,142.4s-5.37-5.76-2.37-8.27,9.84,4.14,9.84,4.14"/><path class="cls-5" d="M84.92,152.91S76,152.67,76.83,147,84.92,144,84.92,144"/><path class="cls-5" d="M77.66,136.81s-8.92-5.39-6.64-9.75,11.83,2.28,11.83,2.28"/><path class="cls-5" d="M79.32,119.87s-7.26-7.33-4.36-10.44,7.89,3.94,7.89,3.94"/><path class="cls-5" d="M79.32,107.16S72.06,99.84,75,96.72s9.7,7.36,9.7,7.36"/><path class="cls-5" d="M90.85,158.59s-2.61,5.36.92,5.59,8.09-4.13,8.09-4.13"/><path class="cls-5" d="M89,175.81s-4.27,7.47,0,8.09,9.86-7.84,9.86-7.84"/><path class="cls-5" d="M106.29,191.37s-.62,11.41,4.36,11.2,3.94-11.2,3.94-11.2"/><path class="cls-5" d="M121.22,191.37s3.62,9.31,8.87,8-1.61-10.67-1.61-10.67"/><path class="cls-5" d="M136.57,184.73s7.06,9.13,11,6.64-2.71-11.5-2.71-11.5"/><path class="cls-5" d="M148.82,176.23c.62.21,9.54,2.28,10.78-1.45s-7.88-5.36-7.88-5.36"/><path class="cls-5" d="M148.82,160.71s13.3,1.82,13.39-3-12.46-4.85-12.46-4.85"/><path class="cls-5" d="M151.54,168.86s13.3,1.82,13.39-3-12.45-4.86-12.45-4.86"/><path class="cls-5" d="M153.38,147s12.65-1.91,12.44-7.1-16.07-1.35-16.07-1.35"/><path class="cls-5" d="M153.3,134s12.1-4.17,11-9.23-16,1.57-16,1.57"/><path class="cls-5" d="M77.66,164.19s-8.5,4.77-6,7.89,11.2-1.18,11.2-1.18"/><path class="cls-5" d="M75.17,181.22s-6.93,6.41-4,8.9,9.66-4.45,9.66-4.45"/><path class="cls-5" d="M73.31,151.64s-13.7-.72-13.07,4.05,15.42,4.36,15.42,4.36"/><path class="cls-5" d="M66.45,128.89s-15.35-3.51-16,1.36,13.49,7,13.49,7"/><path class="cls-5" d="M63.34,140.4s-15.35-3.51-16,1.37,13.48,6.95,13.48,6.95"/><path class="cls-5" d="M66.52,131s-9-5.46-5.62-9.47,11.84,1.94,11.84,1.94"/><path class="cls-5" d="M68,120.39s-9-5.47-5.62-9.48,11.84,1.94,11.84,1.94"/><path class="cls-5" d="M61.69,168.7s-10.17,1.69-8.71,5.54,11.08,0,11.08,0"/><path class="cls-5" d="M59.85,160.05s-10.16,1.69-8.71,5.54,11.09,0,11.09,0"/><path class="cls-5" d="M67.3,176.24s-10.16,1.69-8.71,5.55,11.09,0,11.09,0"/><path class="cls-6" d="M99.86,197s-4.57,9.75-1,12.24,7.44-7.68,7.44-12.24"/><path class="cls-6" d="M82.85,190.66s-7,10.26-3.38,11.91S89,194.89,89,194.89"/><path class="cls-5" d="M89,188.67s-3.65,9.34,0,10.58,9.86-10.58,9.86-10.58"/><path class="cls-5" d="M72.06,137.21s-15.35-3.52-16,1.36,13.48,7,13.48,7"/><path class="cls-5" d="M66,169.73s-8.5,4.78-6,7.89,11.2-1.18,11.2-1.18"/><path class="cls-5" d="M58.45,157.15c-7.9-.11-7.45-4.41-7.45-4.41s.44-3.77,7.45-4.07"/><path class="cls-5" d="M135.33,116.69s6.22-8.16,8.71-5.12-1.5,11.75-1.5,11.75"/></svg>