<?xml version="1.0" encoding="utf-8"?>
<!-- Generator: Adobe Illustrator 16.0.0, SVG Export Plug-In . SVG Version: 6.00 Build 0)  -->
<!DOCTYPE svg PUBLIC "-//W3C//DTD SVG 1.1//EN" "http://www.w3.org/Graphics/SVG/1.1/DTD/svg11.dtd">
<svg version="1.1" id="Layer_1" xmlns="http://www.w3.org/2000/svg" xmlns:xlink="http://www.w3.org/1999/xlink" x="0px" y="0px"
	 width="500px" height="500px" viewBox="0 0 500 500" enable-background="new 0 0 500 500" xml:space="preserve">
<g id="Layer_1_copy_55">
	<g>
		<g>
			<path fill="#A2C63A" d="M295.886,294.239c0,73.764-59.801,133.553-133.56,133.553c-73.757,0-133.551-59.789-133.551-133.553
				c0-73.762,59.794-133.554,133.551-133.554C236.085,160.685,295.886,220.477,295.886,294.239z"/>
			<path fill="#27140E" d="M162.326,432.162c-76.05,0-137.92-61.872-137.92-137.924c0-76.052,61.87-137.924,137.92-137.924
				c76.056,0,137.932,61.872,137.932,137.924C300.258,370.29,238.382,432.162,162.326,432.162z M162.326,165.055
				c-71.229,0-129.181,57.951-129.181,129.184c0,71.231,57.951,129.183,129.181,129.183c71.236,0,129.186-57.951,129.186-129.183
				C291.512,223.005,233.562,165.055,162.326,165.055z"/>
		</g>
		<g>
			<polygon fill="#F6851F" points="247.928,25.981 99.368,261.335 392.188,261.335 			"/>
			<path fill="#27140E" d="M392.188,266.453H99.368c-1.866,0-3.584-1.016-4.483-2.645c-0.898-1.638-0.842-3.629,0.152-5.207
				L243.603,23.25c0.938-1.487,2.575-2.386,4.325-2.386c0.017,0,0.024,0,0.037,0c1.77,0.01,3.407,0.936,4.33,2.442l144.254,235.351
				c0.968,1.577,1.004,3.561,0.103,5.174C395.742,265.45,394.037,266.453,392.188,266.453z M108.646,256.214h274.398L247.868,35.672
				L108.646,256.214z"/>
		</g>
		<g>
			<rect x="219.596" y="189.877" fill="#DE0888" width="237.913" height="237.915"/>
			<path fill="#27140E" d="M457.509,433.055H219.596c-2.91,0-5.263-2.357-5.263-5.264V189.877c0-2.91,2.353-5.266,5.263-5.266
				h237.913c2.911,0,5.268,2.355,5.268,5.266v237.915C462.775,430.697,460.42,433.055,457.509,433.055z M224.857,422.524h227.387
				V195.138H224.857V422.524z"/>
		</g>
	</g>
</g>
</svg>
