<?xml version="1.0" encoding="utf-8"?>
<!-- Generator: Adobe Illustrator 16.0.0, SVG Export Plug-In . SVG Version: 6.00 Build 0)  -->
<!DOCTYPE svg PUBLIC "-//W3C//DTD SVG 1.1//EN" "http://www.w3.org/Graphics/SVG/1.1/DTD/svg11.dtd">
<svg version="1.1" id="Layer_1" xmlns="http://www.w3.org/2000/svg" xmlns:xlink="http://www.w3.org/1999/xlink" x="0px" y="0px"
	 width="500px" height="500px" viewBox="0 0 500 500" enable-background="new 0 0 500 500" xml:space="preserve">
<g id="Layer_1_copy_13">
	<path fill="#2E3192" stroke="#3C2415" stroke-width="3.0748" stroke-miterlimit="10" d="M105.682,286.165
		c0,0-26.648,15.374-26.137,30.235c0,0,56.886-0.514,71.747,0S118.562,276.943,105.682,286.165z"/>
	<path fill="#FFFFFF" stroke="#3C2415" stroke-width="3.0748" stroke-miterlimit="10" d="M79.537,270.986
		c0,0,16.912,46.781,94.64,52.932c77.729,6.148,189.791-45.128,193.892-63.221c4.1-18.092-151.011-56.196-151.011-56.196
		S73.212,246.754,79.537,270.986z"/>
	<path fill="#FFFFFF" stroke="#3C2415" stroke-width="3.0748" stroke-miterlimit="10" d="M75.649,275.677c0,0,2.699,11,11.243,13.05
		c8.544,2.051,5.477-13.612,5.477-13.612L75.649,275.677z"/>
	<path fill="#FFFFFF" stroke="#3C2415" stroke-width="3.0748" stroke-miterlimit="10" d="M102.623,273.407
		c0,0,1.004,9.143,9.548,11.192c8.544,2.049,5.478-13.613,5.478-13.613L102.623,273.407z"/>
	<path fill="#FFFFFF" stroke="#3C2415" stroke-width="3.0748" stroke-miterlimit="10" d="M125.968,266.984
		c0,0,1.919,8.664,10.463,10.715c8.543,2.05,4.744-15.965,4.744-15.965L125.968,266.984z"/>
	<path fill="#FFFFFF" stroke="#3C2415" stroke-width="3.0748" stroke-miterlimit="10" d="M148.076,257.75
		c0,0,2.699,11.001,11.243,13.051c8.544,2.051,6.014-18.279,6.014-18.279L148.076,257.75z"/>
	<path fill="#FFFFFF" stroke="#3C2415" stroke-width="3.0748" stroke-miterlimit="10" d="M174.177,249.024
		c0,0,2.222,9.476,10.766,11.526c8.544,2.052,6.014-18.034,6.014-18.034L174.177,249.024z"/>
	<path fill="#2E3192" stroke="#3C2415" stroke-width="3.0748" stroke-miterlimit="10" d="M248.313,154.459
		c0,0-48.336-17.424-104.708-6.662c-56.372,10.762-123.507,29.723-124.019,37.41c-0.514,7.687-0.514,19.474,14.861,37.923
		c15.374,18.449,14.861,27.161,18.449,35.36c3.587,8.199,7.174,22.035,44.584,15.888c37.411-6.149,100.445-37.411,108.132-35.874
		c7.688,1.537,18.777,38.436,42.7,44.073c23.922,5.637,8.547-30.749,8.547-30.749s28.188,24.087,81.483,19.475
		c53.297-4.613,81.483-11.787,81.483-11.787s3.073,46.637,48.684,56.885c0,0-21.522-62.01-27.16-67.646
		c-5.638-5.638,42.535-68.671,39.974-77.896c-2.562-9.225-56.886,39.537-60.984,59.485c-8.712,2.011-26.648-4.651-29.724-8.238
		s4.611-8.367,10.762-9.308c6.15-0.941-26.136-7.543-35.873,4.213l-66.108-37.28c0,0,11.787-28.347,34.335-32.958
		C333.731,146.772,278.713,125.248,248.313,154.459z"/>
	
		<ellipse fill="#FFFFFF" stroke="#3C2415" stroke-width="3.0748" stroke-miterlimit="10" cx="115.976" cy="196.264" rx="13.353" ry="16.533"/>
	<path fill="#3C2415" d="M118.666,197.415c0,3.916-2.442,7.086-5.453,7.086c-3.007,0-5.449-3.171-5.449-7.086
		c0-3.912,2.442-7.082,5.449-7.082C116.224,190.333,118.666,193.503,118.666,197.415z"/>
</g>
</svg>
