<?xml version="1.0" encoding="utf-8"?>
<!-- Generator: Adobe Illustrator 16.0.0, SVG Export Plug-In . SVG Version: 6.00 Build 0)  -->
<!DOCTYPE svg PUBLIC "-//W3C//DTD SVG 1.1//EN" "http://www.w3.org/Graphics/SVG/1.1/DTD/svg11.dtd">
<svg version="1.1" id="Layer_1" xmlns="http://www.w3.org/2000/svg" xmlns:xlink="http://www.w3.org/1999/xlink" x="0px" y="0px"
	 width="500px" height="500px" viewBox="0 0 500 500" enable-background="new 0 0 500 500" xml:space="preserve">
<g id="Layer_1_copy_51">
	<g>
		<path fill="#4E4E4E" d="M453.286,284.543c0,49.807-91.723,90.178-204.864,90.178c-113.145,0-204.863-40.371-204.863-90.178
			c0-49.809,91.719-90.184,204.863-90.184C361.562,194.36,453.286,234.734,453.286,284.543z"/>
		<path fill="#27140E" d="M248.422,378.146c-55.188,0-107.123-9.48-146.245-26.701c-40.009-17.612-62.045-41.373-62.045-66.901
			c0-25.534,22.036-49.293,62.045-66.906c39.122-17.221,91.057-26.705,146.245-26.705c55.187,0,107.12,9.483,146.242,26.705
			c40.009,17.613,62.049,41.372,62.049,66.906c0,25.528-22.04,49.289-62.049,66.901
			C355.542,368.666,303.607,378.146,248.422,378.146z M248.422,197.787c-111.074,0-201.437,38.918-201.437,86.757
			c0,47.835,90.362,86.75,201.437,86.75c111.071,0,201.438-38.915,201.438-86.75C449.858,236.705,359.493,197.787,248.422,197.787z"
			/>
	</g>
	<g>
		<path fill="#818181" d="M231.628,157.775c78.894-3.758,149.108,12.813,195.323,45.792c26.079,18.611,56.558,56.15,37.382,100.935
			c-3.633,8.484-8.495,17.85-14.953,25.234c-61.157,69.916-233.305,85.223-335.507,41.117
			c-35.092-15.144-64.548-35.345-77.568-64.484c-23.084-51.661,17.692-91.416,49.53-110.278
			c24.284-14.383,54.383-26.105,88.786-32.708C191.946,160.054,211.761,158.721,231.628,157.775z M175.552,200.763
			c-34.348,6.877-63.284,17.723-86.912,36.448c-9.131,7.24-23.398,23.734-23.363,39.253c0.043,18.288,14.256,31.045,26.168,40.187
			c61.79,47.408,189.327,56.365,273.825,24.299c25.869-9.815,70.093-32.043,70.093-64.484c0-18.677-14.917-32.892-28.973-42.99
			c-42.883-30.814-106.098-42.477-173.824-39.252C211.729,195.215,193.349,197.202,175.552,200.763z"/>
		<path fill="#27140E" d="M249.562,399.089c-50.887,0-99.559-8.912-137.046-25.09c-41.471-17.896-67.425-39.558-79.341-66.233
			c-10.782-24.127-9.313-47.882,4.361-70.603c13.387-22.236,34.911-37.125,46.556-44.021c25.938-15.362,57.02-26.818,89.88-33.126
			c17.804-3.42,38.152-4.744,57.491-5.665c7.353-0.351,14.757-0.528,21.994-0.528c70.729,0,133.051,16.676,175.48,46.954
			c30.933,22.072,57.303,61.266,38.547,105.075c-4.744,11.066-9.822,19.617-15.526,26.14
			C415.756,373.383,338.204,399.089,249.562,399.089z M253.458,160.678c-7.133,0-14.422,0.175-21.67,0.521
			c-19.084,0.909-39.141,2.211-56.521,5.55c-32.098,6.163-62.416,17.328-87.682,32.292c-70.053,41.5-54.566,91.571-48.151,105.927
			C50.615,330,75.41,350.521,115.229,367.709c36.654,15.816,84.357,24.525,134.333,24.525c86.722,0,162.298-24.809,197.239-64.754
			c5.227-5.977,9.928-13.931,14.38-24.33c17.157-40.065-7.464-76.271-36.223-96.793C383.682,176.9,322.773,160.678,253.458,160.678z
			 M251.477,363.332h-0.004c-65.634,0-126.237-16.434-162.115-43.962c-13.578-10.418-27.465-23.662-27.508-42.899
			c-0.042-17.675,16.112-35.165,24.66-41.945c22.384-17.739,50.461-29.535,88.37-37.123c17.289-3.461,35.567-5.56,57.521-6.605
			c7.279-0.346,14.566-0.522,21.66-0.522c64.168,0,117.534,13.977,154.326,40.416c20.457,14.697,30.4,29.667,30.4,45.773
			c0,36.326-50.562,59.438-72.303,67.688C333.424,356.701,293.654,363.332,251.477,363.332z M254.061,197.13
			c-6.98,0-14.163,0.173-21.334,0.514c-21.601,1.03-39.554,3.09-56.499,6.479c-36.805,7.368-63.959,18.735-85.457,35.775
			c-8.889,7.047-22.102,22.602-22.065,36.553c0.035,16.275,12.57,28.078,24.824,37.48c34.721,26.645,93.766,42.547,157.944,42.547
			c40.767,0,80.749-6.65,112.581-18.728c61.267-23.257,67.881-50.606,67.881-61.287c0-13.735-9.01-26.887-27.544-40.207
			C368.769,210.661,316.784,197.13,254.061,197.13z"/>
	</g>
	<g>
		<g>
			<path fill="#E3C273" d="M313.508,109.808c0,0-32.994-17.177-89.867-8.443c-11.798,3.909-24.271,6.508-30.577,7.699
				c-2.618,0.495-5.396,1.263-7.503,2.257c-10.795,5.099-44.714,22.691-55.191,46.816c-12.519,28.828-16.011,30.282-16.594,32.903
				s-13.394,36.104-13.686,52.7c-0.291,16.597-10.775,29.119,11.936,47.755c22.711,18.629,33.483,23.287,38.142,28.233
				c4.659,4.955,30.279,15.146,41.93,16.605c11.645,1.455,45.127,2.909,49.498-1.461c4.363-4.364,17.39,8.734,30.679,6.12
				c13.285-2.628,85.492-22.136,93.642-35.234c8.154-13.104,36.104-28.241,36.104-38.726c0-10.482,16.89-11.938,5.824-41.346
				c-11.065-29.406-19.798-61.433-40.18-80.65C347.284,125.82,332.9,116.355,313.508,109.808z"/>
		</g>
		<g>
			<path fill="#D1AF5F" d="M268.607,344.77L268.607,344.77c-6.59,0-12.707-2.713-17.623-4.896c-2.739-1.213-5.573-2.472-6.972-2.472
				c-1.167,1.068-3.912,3.813-24.451,3.813c-10.529,0-22-0.747-27.891-1.479c-11.522-1.448-38.41-11.717-44-17.661
				c-1.69-1.796-4.593-3.729-8.98-6.657c-6.195-4.135-15.562-10.386-28.837-21.275c-18.776-15.404-16.614-27.68-14.523-39.545
				c0.622-3.529,1.268-7.18,1.333-10.917c0.246-13.895,8.702-38.522,12.315-49.039c0.662-1.933,1.347-3.93,1.455-4.361
				c0.301-1.363,0.95-2.375,1.933-3.907c2.015-3.142,6.209-9.68,14.861-29.603c10.991-25.311,46.307-43.558,56.869-48.547
				c2.168-1.025,5.13-1.922,8.331-2.528c6.287-1.186,18.56-3.75,30.135-7.583l0.561-0.134c10.87-1.671,21.666-2.518,32.084-2.518
				c35.988,0,57.004,9.87,59.631,11.179c19.468,6.609,34.45,16.363,55.176,35.906c17.563,16.558,26.74,42.223,35.619,67.045
				c1.785,4.988,3.571,9.976,5.419,14.891c8.103,21.537,2.019,29.839-2.425,35.905c-2.031,2.777-3.181,4.452-3.181,6.648
				c0,7.51-8.938,14.952-19.287,23.569c-6.913,5.752-14.062,11.709-17.335,16.965c-9.619,15.471-88.846,35.392-95.891,36.787
				C271.539,344.631,270.085,344.77,268.607,344.77z M244.013,330.55c2.85,0,6.048,1.415,9.752,3.06
				c4.549,2.02,9.705,4.306,14.842,4.306l0,0c1.035,0,2.041-0.099,3.002-0.288c16.627-3.275,84.478-22.549,91.396-33.675
				c3.855-6.198,11.438-12.509,18.767-18.615c7.492-6.237,16.819-14.003,16.819-18.302c0-4.542,2.29-7.671,4.509-10.698
				c3.904-5.334,8.331-11.377,1.536-29.44c-1.86-4.95-3.658-9.973-5.455-14.997c-8.605-24.059-17.505-48.937-33.869-64.367
				c-20.273-19.112-34.115-28.135-52.897-34.476l-0.488-0.208c-0.195-0.103-20.811-10.531-56.719-10.531
				c-9.982,0-20.329,0.804-30.764,2.393c-11.873,3.909-24.339,6.513-30.744,7.722c-2.608,0.492-5.042,1.217-6.674,1.989
				c-10.016,4.732-43.476,21.966-53.515,45.081c-8.868,20.429-13.262,27.28-15.375,30.572c-0.455,0.711-0.973,1.519-1.019,1.71
				c-0.147,0.671-0.59,1.964-1.658,5.082c-3.506,10.212-11.716,34.122-11.942,46.934c-0.075,4.277-0.766,8.196-1.435,11.989
				c-1.988,11.278-3.562,20.19,12.119,33.06c13.013,10.674,22.21,16.809,28.294,20.871c4.783,3.189,7.941,5.293,10.169,7.666
				c3.876,4.12,28.353,14.108,39.858,15.551c5.678,0.707,16.788,1.429,27.039,1.429c16.804,0,19.569-1.894,19.678-1.974
				C240.038,331.585,241.581,330.55,244.013,330.55z"/>
		</g>
	</g>
	<g>
		<g>
			<path fill="#9A5223" d="M267.617,114.76c6.363,3.956,13.146,8.721,18.701,14.139c2.545,2.485,4.914,5.176,7.182,7.976
				c3.25,4.014,6.386,7.211,7.047,11.973c0.007,0.077-0.085,0.257-0.114,0.33c-1.54,3.717-12.103,2.539-17.528,1.695
				c-7.442-1.163-16.16-3.845-21.521-5.923c-5.707-2.213-14.33-5.86-16.506-9.709c-1.435-2.555-0.904-6.906,0.092-9.889
				c2.009-5.992,7.261-9.536,11.398-11.516C256.367,113.834,262.02,111.122,267.617,114.76z"/>
		</g>
	</g>
	<g>
		<g>
			<path fill="#753016" d="M245.739,140.439c-14.131,1.336-33.778,4.778-35.879,12.528c1.238,5.239,9.861,8.764,17.315,12.278
				c12.217,5.758,38.987,16.103,48.853,7.502c7.539-6.571,8.455-25.176,1.393-30.191
				C272.794,139.279,245.739,140.439,245.739,140.439z"/>
		</g>
	</g>
	<g>
		<path fill="#D23D27" d="M215.68,232.364c-0.633,0-1.144-0.511-1.144-1.142c0-1.292,0.053-2.565,0.107-3.874
			c0.164-4.031,0.335-8.204-0.956-14.23c-0.924-4.316-1.022-4.767,0.259-5.791c0.573-0.458,1.913-1.53,3.846-7.606
			c4.318-13.57,15.412-12.151,15.52-12.14c0.623,0.09,1.059,0.668,0.971,1.294c-0.092,0.622-0.662,1.056-1.291,0.968l0,0
			c-0.374-0.042-9.305-1.115-13.02,10.569c-2.144,6.736-3.742,8.012-4.601,8.698c-0.068,0.056-0.131,0.1-0.177,0.149
			c0.033,0.143,0.312,1.43,0.728,3.377c1.353,6.31,1.166,10.825,1.003,14.806c-0.053,1.276-0.105,2.518-0.105,3.779
			C216.819,231.853,216.309,232.364,215.68,232.364z"/>
	</g>
	<g>
		<path fill="#D23D27" d="M203.629,126.871c-5.327,0-6.991-2.09-7.233-2.438c-0.357-0.519-0.227-1.23,0.291-1.589
			c0.508-0.352,1.206-0.232,1.569,0.262c0.102,0.118,3.172,3.505,15.53-0.411c14.284-4.53,23.896-6.181,36.731-6.318h0.01
			c0.627,0,1.138,0.503,1.145,1.13c0.008,0.63-0.501,1.148-1.134,1.155c-12.737,0.136-21.839,1.702-36.064,6.21
			C209.788,126.36,206.26,126.871,203.629,126.871z"/>
	</g>
	<g>
		<path fill="#D23D27" d="M312.558,262.703c-5.322,0-6.99-2.094-7.229-2.438c-0.36-0.521-0.229-1.229,0.288-1.591
			c0.508-0.354,1.206-0.231,1.568,0.263c0.103,0.115,3.176,3.506,15.533-0.412c14.287-4.524,23.9-6.18,36.729-6.316
			c0.003,0,0.007,0,0.014,0c0.622,0,1.133,0.504,1.14,1.131c0.008,0.633-0.497,1.149-1.13,1.156
			c-12.737,0.134-21.837,1.699-36.062,6.208C318.717,262.191,315.192,262.703,312.558,262.703z"/>
	</g>
	<g>
		<path fill="#D23D27" d="M323.697,164.524c-0.354,0-0.708-0.166-0.932-0.478c-1.226-1.72-1.379-4.482-0.451-8.214
			c0.949-3.828,3.285-9.091,4.658-9.778c0.06-0.029,6.038-3.068,10.333-9.511c4.652-6.985,9.974-3.557,10.028-3.521
			c0.524,0.349,0.669,1.06,0.318,1.584c-0.352,0.526-1.06,0.664-1.576,0.323c-0.367-0.229-3.568-2.069-6.87,2.88
			c-4.63,6.944-10.946,10.155-11.212,10.289c-1.074,1.012-5.646,11.433-3.367,14.62c0.366,0.513,0.249,1.227-0.266,1.592
			C324.159,164.456,323.927,164.524,323.697,164.524z"/>
	</g>
	<g>
		<path fill="#D23D27" d="M121.064,246.968c-0.632,0-1.144-0.511-1.144-1.143c0-3.539,1.75-11.175,3.296-17.913
			c0.895-3.903,1.74-7.591,1.956-9.329c0.633-5.107,8.181-22.804,13.868-31.331c6.048-9.072,13.81-10.065,14.138-10.103
			c0.609-0.085,1.189,0.375,1.261,1c0.075,0.625-0.373,1.192-0.996,1.27c-0.071,0.01-7.073,0.957-12.502,9.1
			c-5.812,8.722-12.964,26.01-13.501,30.346c-0.232,1.853-1.052,5.424-1.995,9.559c-1.442,6.292-3.237,14.122-3.237,17.402
			C122.208,246.457,121.697,246.968,121.064,246.968z"/>
	</g>
</g>
</svg>
