<?xml version="1.0" encoding="utf-8"?>
<!-- Generator: Adobe Illustrator 16.0.0, SVG Export Plug-In . SVG Version: 6.00 Build 0)  -->
<!DOCTYPE svg PUBLIC "-//W3C//DTD SVG 1.1//EN" "http://www.w3.org/Graphics/SVG/1.1/DTD/svg11.dtd">
<svg version="1.1" id="Layer_1" xmlns="http://www.w3.org/2000/svg" xmlns:xlink="http://www.w3.org/1999/xlink" x="0px" y="0px"
	 width="500px" height="500px" viewBox="0 0 500 500" enable-background="new 0 0 500 500" xml:space="preserve">
<g id="Layer_1_copy_97">
	<g>
		<g>
			<path fill="#4E4E4E" d="M460.106,300.952c0,50.132-92.335,90.778-206.237,90.778c-113.932,0-206.262-40.646-206.262-90.778
				c0-50.154,92.33-90.808,206.262-90.808C367.771,210.144,460.106,250.797,460.106,300.952z"/>
			<path fill="#3C2517" d="M253.869,394.471c-115.246,0-209.002-41.951-209.002-93.52c0-51.58,93.756-93.548,209.002-93.548
				c115.229,0,208.976,41.968,208.976,93.548C462.845,352.52,369.098,394.471,253.869,394.471z M253.869,212.883
				c-112.22,0-203.521,39.51-203.521,88.069c0,48.545,91.302,88.038,203.521,88.038c112.208,0,203.495-39.493,203.495-88.038
				C457.364,252.393,366.077,212.883,253.869,212.883z"/>
		</g>
		<g>
			<path fill="#818181" d="M236.947,173.312c79.447-3.78,150.125,12.899,196.648,46.097c26.252,18.736,56.937,56.552,37.63,101.64
				c-3.659,8.537-8.554,17.96-15.056,25.395c-61.562,70.38-234.887,85.796-337.779,41.393
				c-35.324-15.242-64.973-35.572-78.083-64.911c-23.236-52.012,17.812-92.052,49.865-111.04
				c24.44-14.475,54.739-26.277,89.362-32.926C196.989,175.611,216.931,174.267,236.947,173.312z M180.483,216.591
				c-34.587,6.923-63.706,17.84-87.495,36.701c-9.188,7.293-23.552,23.911-23.515,39.537c0.042,18.407,14.347,31.241,26.343,40.438
				c62.195,47.727,190.624,56.74,275.687,24.472c26.037-9.89,70.555-32.263,70.555-64.909c0-18.814-15.018-33.137-29.155-43.305
				c-43.171-31.025-106.81-42.77-175.015-39.521C216.9,211.002,198.397,213.002,180.483,216.591z"/>
			<path fill="#3C2517" d="M255.001,415.549c-51.144,0-100.043-8.947-137.694-25.197c-41.575-17.936-67.577-39.625-79.506-66.307
				c-10.75-24.07-9.286-47.768,4.355-70.438c13.399-22.264,34.958-37.173,46.621-44.08c26.033-15.422,57.241-26.923,90.242-33.263
				c17.903-3.436,38.358-4.763,57.799-5.687c7.391-0.353,14.831-0.53,22.107-0.53c71.071,0,133.667,16.736,176.264,47.126
				c30.911,22.07,57.273,61.227,38.552,104.951c-4.735,11.062-9.811,19.605-15.506,26.125
				C421.922,389.76,344.047,415.549,255.001,415.549z M258.926,175.53c-7.191,0-14.544,0.176-21.851,0.523
				c-19.235,0.913-39.456,2.224-57.024,5.599c-32.388,6.221-62.981,17.49-88.479,32.59c-71.037,42.08-55.286,92.972-48.766,107.566
				c11.341,25.371,36.417,46.144,76.666,63.512c36.983,15.963,85.115,24.75,135.528,24.75c87.51,0,163.804-25.069,199.107-65.428
				c5.311-6.078,10.088-14.147,14.598-24.67c17.441-40.734-7.521-77.507-36.703-98.332
				C390.331,191.902,328.866,175.53,258.926,175.53z M256.949,379.555L256.949,379.555c-65.942,0-126.805-16.492-162.804-44.115
				c-13.529-10.375-27.37-23.551-27.411-42.606c-0.041-17.526,16.044-34.933,24.553-41.687
				c22.438-17.792,50.608-29.625,88.655-37.245c17.358-3.476,35.729-5.585,57.815-6.638c7.32-0.35,14.652-0.526,21.778-0.526
				c64.457,0,118.042,14.03,154.964,40.563c20.39,14.665,30.301,29.555,30.301,45.529c0,36.104-50.579,59.212-72.321,67.472
				C339.276,372.896,299.324,379.555,256.949,379.555z M259.536,212.221c-7.041,0-14.283,0.177-21.521,0.516
				c-21.802,1.039-39.913,3.117-56.996,6.54c-37.163,7.443-64.596,18.934-86.326,36.163c-9.053,7.185-22.513,23.071-22.478,37.384
				c0.033,16.675,12.793,28.702,25.264,38.268c35.072,26.914,94.688,42.979,159.47,42.979c41.123,0,81.465-6.705,113.582-18.893
				c20.683-7.854,68.786-29.652,68.786-62.349c0-14.084-9.163-27.521-28.021-41.078
				C375.316,225.888,322.839,212.221,259.536,212.221z"/>
		</g>
	</g>
	<g>
		<path fill="#A94F25" d="M106.768,243.701c0,0-5.82,4-3.878,8.367c1.938,4.369,5.323,6.312,3.878,10.195
			c-1.45,3.879-3.703,2.912-4.279,6.791c-0.57,3.881-3.307,5.823,0,8.737c3.315,2.909,8.167,5.822,8.167,5.822s0.971,2.432,0,6.797
			c-0.969,4.372-1.939,9.228-1.939,9.228l12.618,6.793c0,0-9.223,3.402-6.312,9.709c2.916,6.309,8.735,8.25,14.081,9.707
			c5.34,1.453,7.762,0.485,13.102,0c5.342-0.484,7.283,2.909,9.715,5.338c2.421,2.433,13.104,0.485,16.014,0
			c2.912-0.48,5.341,0.935,13.105,1.198c7.77,0.259,8.741-3.146,20.869-2.651c12.136,0.481,22.332,0.481,25.731,0.481
			c3.393,0,7.28,0.476,11.65,2.179c4.37,1.709,0.964,5.092,12.617,0c11.649-5.092,10.196-3.154,18.45-2.66
			c8.252,0.481,6.31,0.973,16.988-0.482c10.677-1.459,20.388-1.948,29.126,0.965c8.736,2.914,8.732,4.859,18.438,0.49
			c9.712-4.371,17.479-3.396,23.305-2.914c5.822,0.484,21.357,3.395,19.417-4.855c-1.947-8.248,0-5.826,10.677-9.223
			c10.677-3.398,10.812-3.398,13.174-12.131c2.364-8.738,4.305,0.868,4.305-12.188c0-13.06-11.033-0.92-4.305-20.34
			c6.73-19.415,11.583-7.766,4.305-22.81c-7.284-15.049-6.802-12.625-7.284-15.049c-0.482-2.424,1.785,0.733-1.457-6.795
			c-3.242-7.521,20.872,4.853-5.34-13.096c-26.215-17.958-23.783-18.929-33.002-18.929c-9.229,0-51.94-12.132-72.327-11.65
			c-20.388,0.482-116.018-6.346-118.931-5.354c-2.91,0.984-45.621,61.648-45.621,61.648L106.768,243.701z"/>
		<path fill="#3C2517" d="M243.762,337.828c-2.226,0-3.369-1.176-4.051-1.875c-0.432-0.438-0.714-0.73-1.42-1.005
			c-3.439-1.343-6.923-1.992-10.651-1.992c-3.38,0-13.65,0-25.84-0.485c-6.305-0.263-9.296,0.59-12.146,1.401
			c-2.385,0.675-4.853,1.385-8.703,1.248c-4.139-0.14-6.857-0.597-8.845-0.929c-1.682-0.278-2.679-0.469-3.726-0.305l-0.453,0.079
			c-2.225,0.378-6.851,1.157-10.778,1.157c-3.532,0-5.812-0.639-7.176-2.002c-0.427-0.43-0.845-0.889-1.265-1.354
			c-2.059-2.264-3.322-3.467-6.251-3.19c-1.217,0.108-2.272,0.243-3.247,0.37c-3.539,0.455-6.812,0.632-10.828-0.455
			c-5.912-1.613-12.492-3.939-15.848-11.205c-1.012-2.188-1.089-4.445-0.224-6.531c0.731-1.767,2.037-3.173,3.392-4.244
			l-8.292-4.459c-1.059-0.574-1.619-1.772-1.384-2.955c0,0,0.98-4.883,1.952-9.274c0.469-2.106,0.393-3.624,0.276-4.47
			c-1.652-1.043-5.011-3.25-7.573-5.504c-3.706-3.265-2.479-6.484-1.671-8.621c0.325-0.853,0.632-1.662,0.771-2.573
			c0.452-3.058,1.843-4.288,2.862-5.192c0.676-0.596,1.117-0.982,1.552-2.156c0.425-1.141,0.123-1.765-1.371-3.955
			c-0.791-1.162-1.688-2.479-2.438-4.17c-2.264-5.089,1.97-9.771,4.828-11.739c0.139-0.095,0.286-0.176,0.438-0.244l14.366-6.377
			c42.807-60.782,45.521-61.699,46.541-62.049c0.479-0.16,1.022-0.245,2.7-0.245c5.79,0,23.608,1.015,44.243,2.194
			c28.811,1.644,61.814,3.511,72.807,3.264c12.705-0.309,33.602,4.119,50.232,7.65c10.114,2.146,18.852,3.997,22.159,3.997
			c7.438,0,8.647,0.885,18.058,7.73c3.77,2.744,8.926,6.496,16.491,11.684c13.008,8.907,14.224,10.537,13.422,13.127
			c-0.329,1.066-1.285,2.336-3.966,2.336c-0.457,0-0.987-0.031-1.542-0.061c-0.369-0.024-0.756-0.048-1.137-0.058
			c1.433,3.443,1.923,5.175,1.231,6.601c0.115,0.523,0.217,0.713,0.743,1.694c0.841,1.552,2.581,4.788,6.249,12.367l0.961,1.982
			c3.287,6.757,4.067,8.363,1.021,11.562c-1.223,1.282-3.502,3.674-6.162,11.354c-2.612,7.534-1.997,8.954-1.922,9.089
			c0.099,0.1,0.58,0.314,0.898,0.464c2.649,1.197,5.473,3.044,5.473,9.89c0,6.772-0.299,9.431-3.479,10.431
			c-0.048,0.067-0.426,0.655-0.914,2.47c-2.666,9.852-3.766,10.458-14.817,13.977c-2.928,0.931-5.165,1.444-6.798,1.818
			c-1.079,0.249-2.281,0.523-2.817,0.748c-0.006,0.441,0.115,1.405,0.602,3.467c0.676,2.877-0.214,4.774-1.077,5.868
			c-1.755,2.218-4.946,3.253-10.04,3.253c-2.99,0-6.126-0.354-8.642-0.636c-0.968-0.11-1.837-0.207-2.555-0.269l-1.001-0.082
			c-1.992-0.174-4.055-0.351-6.34-0.351c-5.242,0-9.888,0.992-14.609,3.117c-4.537,2.038-7.138,2.797-9.599,2.797
			c-2.357,0-4.291-0.746-6.729-1.688c-1.137-0.438-2.46-0.951-4.105-1.502c-4.006-1.336-8.516-1.982-13.774-1.982
			c-3.949,0-8.435,0.359-14.106,1.139c-5.142,0.695-7.638,0.991-9.768,0.991c-1.133,0-2.162-0.082-3.633-0.198
			c-1.053-0.089-2.35-0.189-4.121-0.295c-2.105-0.121-3.617-0.339-4.83-0.513c-3.316-0.466-3.385-0.972-12.364,2.95
			C248.132,337.033,245.625,337.828,243.762,337.828z M199.607,326.941c0.756,0,1.554,0.018,2.414,0.052
			c12.077,0.481,22.268,0.481,25.618,0.481c4.421,0,8.556,0.773,12.646,2.365c1.81,0.707,2.736,1.659,3.347,2.286
			c0.076,0.074,0.143,0.147,0.208,0.217c0.991-0.047,3.331-0.872,6.971-2.461c6.42-2.805,9.231-3.665,12.026-3.665
			c1.124,0,2.138,0.145,3.308,0.312c1.168,0.168,2.496,0.354,4.377,0.467c1.823,0.107,3.154,0.214,4.24,0.299
			c3.438,0.275,3.508,0.428,12.217-0.762c5.924-0.809,10.646-1.186,14.85-1.186c5.861,0,10.935,0.74,15.511,2.27
			c1.738,0.576,3.142,1.117,4.343,1.582c2.132,0.826,3.419,1.324,4.756,1.324c1.564,0,3.691-0.672,7.351-2.318
			c5.453-2.451,10.812-3.598,16.857-3.598c2.52,0,4.799,0.197,6.809,0.369l0.985,0.08c0.764,0.064,1.684,0.17,2.71,0.285
			c2.386,0.268,5.35,0.598,8.032,0.598c4.583,0,5.589-0.978,5.749-1.176c0.2-0.254,0.128-0.793,0.032-1.203
			c-0.742-3.14-1.207-5.701,0.031-7.695c1.22-1.955,3.348-2.444,6.296-3.121c1.626-0.368,3.651-0.835,6.188-1.643
			c9.399-2.992,9.399-2.992,11.361-10.237c0.943-3.505,2.05-5.226,3.963-6.052c0.111-0.683,0.241-2.174,0.241-5.42
			c0-3.877-0.849-4.264-2.251-4.898c-5.009-2.262-5.455-6.08-1.902-16.335c3.057-8.806,5.868-11.759,7.379-13.345
			c0.118-0.125,0.231-0.237,0.329-0.336c-0.269-0.838-1.188-2.729-2.312-5.042l-0.973-1.997c-3.61-7.474-5.314-10.635-6.134-12.153
			c-0.928-1.722-1.057-2-1.366-3.559c-0.202-1.015-0.154-1.844,0.16-2.567c-0.167-0.537-0.555-1.603-1.445-3.674
			c-0.941-2.179-0.455-3.673,0.118-4.542c0.809-1.233,2.095-1.718,3.204-1.912c-1.703-1.284-4.163-3.045-7.7-5.466
			c-7.631-5.227-12.824-9.012-16.613-11.773c-9.183-6.679-9.183-6.679-14.835-6.679c-3.885,0-12.451-1.82-23.296-4.119
			c-15.836-3.362-35.548-7.545-47.812-7.545l-1.153,0.014c-11.146,0.271-44.281-1.62-73.251-3.274
			c-20.549-1.171-38.298-2.183-43.928-2.183c-0.289,0-0.54,0-0.75,0.007c-4.421,4.428-29.3,39.068-44.447,60.583
			c-0.289,0.404-0.68,0.723-1.13,0.924l-14.791,6.566c-0.995,0.761-3.527,3.117-2.747,4.869c0.547,1.235,1.264,2.289,1.959,3.304
			c1.531,2.252,3.437,5.045,1.979,8.956c-0.917,2.46-2.152,3.552-3.057,4.351c-0.739,0.656-0.915,0.812-1.071,1.893
			c-0.229,1.5-0.693,2.729-1.07,3.717c-0.69,1.809-0.69,1.809,0.166,2.559c3.087,2.717,7.714,5.505,7.762,5.531
			c0.517,0.309,0.91,0.776,1.134,1.33c0.133,0.33,1.254,3.361,0.13,8.414c-0.571,2.598-1.15,5.371-1.521,7.178l10.832,5.83
			c0.943,0.511,1.508,1.53,1.433,2.609c-0.075,1.07-0.777,2.001-1.787,2.376c-1.012,0.38-4.114,1.918-4.912,3.856
			c-0.184,0.451-0.335,1.104,0.135,2.132c2.376,5.131,7.179,6.813,12.316,8.212c3.229,0.882,5.348,0.736,8.689,0.312
			c1.032-0.138,2.155-0.279,3.446-0.397c5.903-0.547,8.729,2.68,10.808,4.972c0.363,0.395,0.716,0.787,1.087,1.157
			c-0.028-0.048,0.655,0.397,3.297,0.397c3.473,0,7.786-0.733,9.864-1.08l0.471-0.082c1.816-0.299,3.488-0.041,5.533,0.304
			c1.935,0.325,4.346,0.729,8.113,0.858l0.74,0.01c2.571,0,4.208-0.465,6.283-1.057
			C190.882,327.824,193.966,326.941,199.607,326.941z"/>
	</g>
	<g>
		<path fill="#FCF2BB" d="M220.295,103.297c-15.175,12.387-4.432,1.242-27.81,2.302c-23.375,1.06-39.933,11.926-51.23,19.398
			c-11.297,7.478-17.595,2.068-29.065,13.181c-11.47,11.107-17.989,25.372-13.423,36.529c4.564,11.154,9.202,20.852,7.186,32.419
			c-2.014,11.552-11.866,34.4,6.424,33.097c18.284-1.308,21.474-6.985,26.356-2.374c4.878,4.611,18.022,4.067,26.723,5.076
			c8.698,1.005,35.425,21.245,54.543,17.792c19.121-3.447,37.761-12.026,46.968-6.48c9.21,5.545,25.002,10.683,39.238,2.617
			c14.238-8.062,38.809-33.839,58.161-27.076c19.354,6.757,43.081-1.569,42.298-15.45c-0.79-13.884,1.638-31.266,1.746-34.905
			c0.107-3.637-2.271-14.686-7.882-19.331c-5.609-4.645-3.415-19.846-7.568-24.417c-4.155-4.577-16.347-8.811-23.653-8.431
			c-7.303,0.374-26.974,0.156-47.918-19.076c-20.938-19.234-44.738-9.446-52.804-8.375
			C260.509,100.863,235.473,90.907,220.295,103.297z"/>
		<path fill="#3C2517" d="M215.369,263.854c-12.432,0-26.737-7.254-37.182-12.547c-5.45-2.768-10.601-5.375-13.045-5.661
			c-2.081-0.241-4.425-0.388-6.846-0.544c-8.373-0.54-17.039-1.096-21.45-5.259c-0.905-0.859-1.49-1.029-2.183-1.029
			c-1.073,0-2.645,0.445-4.641,1.002c-3.604,1.012-9.05,2.543-17.457,3.141c-5.297,0.37-8.965-0.975-11.297-3.97
			c-4.566-5.871-1.959-16.148,0.339-25.221c0.663-2.611,1.288-5.083,1.641-7.11c1.711-9.82-1.804-18.309-5.878-28.142l-1.137-2.768
			c-4.688-11.453,0.692-26.604,14.047-39.538c7.067-6.845,12.473-7.958,17.701-9.038c3.752-0.774,7.297-1.504,11.758-4.458
			c11.284-7.467,28.339-18.75,52.62-19.851c11.423-0.512,15.426,1.77,17.776,3.08c0.386,0.214,0.868,0.483,1.028,0.516
			c1.024-0.084,5.49-3.728,7.399-5.283c5.682-4.642,13.045-6.9,22.505-6.9c6.278,0,12.505,1.002,17.511,1.81
			c4.15,0.665,7.615,1.253,9.643,0.988c1.104-0.143,2.665-0.503,4.479-0.92c4.673-1.07,11.07-2.537,18.432-2.537
			c12.255,0,23.059,4.217,32.11,12.536c16.591,15.233,32.595,18.428,43.097,18.428c1.086,0,2.033-0.034,2.828-0.071
			c7.467-0.404,20.801,3.796,25.823,9.324c2.475,2.727,3.097,7.427,3.755,12.397c0.614,4.652,1.312,9.918,3.531,11.752
			c6.524,5.402,8.991,17.589,8.873,21.526c-0.032,0.955-0.207,2.819-0.452,5.304c-0.699,7.181-1.878,19.199-1.302,29.361
			c0.234,4.142-1.309,8.091-4.451,11.425c-5.429,5.746-15.438,9.311-26.131,9.311c-5.353,0-10.518-0.859-15.353-2.543
			c-1.833-0.642-3.812-0.968-5.891-0.968c-11.852,0-25.726,10.373-36.871,18.709c-4.788,3.582-9.312,6.96-13.146,9.13
			c-5.312,3.009-11.198,4.537-17.497,4.537c-10.935,0-20.045-4.506-24.502-7.189c-1.597-0.961-3.712-1.428-6.47-1.428
			c-5.612,0-13.048,1.979-20.923,4.074c-5.708,1.518-11.609,3.09-17.677,4.183C218.873,263.707,217.147,263.854,215.369,263.854z
			 M134.664,233.334c2.234,0,4.126,0.804,5.949,2.522c2.968,2.805,11.327,3.345,18.036,3.776c2.52,0.162,4.955,0.318,7.12,0.57
			c3.42,0.394,8.486,2.964,14.897,6.214c9.948,5.046,23.581,11.957,34.702,11.957c1.452,0,2.849-0.12,4.142-0.354
			c5.847-1.054,11.642-2.596,17.238-4.086c8.231-2.189,16.007-4.258,22.336-4.258c3.782,0,6.822,0.723,9.297,2.213
			c3.195,1.922,11.707,6.401,21.674,6.401c5.342,0,10.319-1.283,14.797-3.819c3.532-2.004,7.92-5.281,12.567-8.75
			c11.796-8.825,26.48-19.802,40.151-19.802c2.692,0,5.281,0.428,7.701,1.271c4.189,1.466,8.87,2.237,13.541,2.237
			c9.231,0,17.718-2.907,22.146-7.589c2.115-2.242,3.114-4.716,2.967-7.355c-0.6-10.58,0.6-22.865,1.317-30.203
			c0.229-2.315,0.396-4.047,0.426-4.937c0.099-3.236-2.194-13.252-6.89-17.141c-3.872-3.206-4.684-9.331-5.469-15.249
			c-0.493-3.741-1.055-7.98-2.38-9.437c-3.47-3.823-14.854-7.874-21.481-7.538c-0.877,0.047-1.915,0.082-3.11,0.082
			c-11.479,0-28.916-3.446-46.808-19.874c-8.121-7.459-17.412-11.089-28.399-11.089c-6.742,0-12.791,1.385-17.209,2.399
			c-1.941,0.449-3.621,0.833-4.984,1.009c-2.594,0.35-6.531-0.255-11.23-1.012c-5.062-0.812-10.798-1.738-16.638-1.738
			c-8.146,0-14.373,1.85-19.039,5.664c-6.088,4.967-8.383,6.513-10.893,6.516c-1.501,0-2.601-0.615-3.668-1.206
			c-1.976-1.1-5.185-2.845-14.858-2.391c-22.77,1.03-39.063,11.814-49.846,18.944c-5.342,3.538-9.77,4.451-13.674,5.256
			c-4.872,1.005-9.075,1.875-14.992,7.606c-11.536,11.171-16.559,24.332-12.8,33.524l1.135,2.75c4.22,10.18,8.2,19.792,6.217,31.177
			c-0.39,2.231-1.039,4.802-1.728,7.518c-1.797,7.073-4.248,16.754-1.329,20.509c1.155,1.483,3.322,2.095,6.582,1.864
			c7.853-0.557,12.77-1.936,16.369-2.948C130.943,233.868,132.838,233.334,134.664,233.334z"/>
	</g>
	<g>
		<path fill="#A94F25" d="M149.126,301.82c0,0-5.827-12.014,0-13.836c5.823-1.82,1.091-9.467,9.463-11.285"/>
		<path fill="#3C2517" d="M149.126,304.561c-1.019,0-1.993-0.564-2.469-1.545c-0.733-1.518-4.298-9.334-2.202-14.187
			c0.735-1.707,2.069-2.902,3.853-3.459c0.995-0.31,1.222-0.699,1.763-2.978c0.662-2.787,1.659-7.01,7.938-8.375
			c1.477-0.319,2.941,0.623,3.261,2.099c0.322,1.479-0.621,2.938-2.1,3.26c-2.899,0.633-3.191,1.853-3.765,4.282
			c-0.536,2.252-1.341,5.652-5.46,6.939c-0.259,0.082-0.354,0.17-0.459,0.404c-0.817,1.893,0.774,6.861,2.104,9.623
			c0.659,1.361,0.089,3.001-1.271,3.66C149.934,304.473,149.526,304.561,149.126,304.561z"/>
	</g>
	<g>
		<path fill="#539F44" d="M265.624,278.518c5.461,3.28,9.465,2.551,11.649,6.189c0.416,0.693,0.91,1.128,1.435,1.475
			c2.457-2.144,4.026-5.216,4.026-8.662c0-6.484-5.461-11.742-12.196-11.742c-6.654,0-12.043,5.136-12.172,11.516
			C260.298,276.889,262.904,276.893,265.624,278.518z"/>
		<path fill="#3C2517" d="M278.708,288.922c-0.524,0-1.046-0.15-1.507-0.451c-0.979-0.646-1.706-1.394-2.28-2.354
			c-0.726-1.208-1.796-1.605-4.149-2.392c-1.795-0.598-4.037-1.344-6.56-2.857c-1.637-0.98-3.437-1.279-5.286-0.896
			c-0.814,0.178-1.666-0.037-2.309-0.57c-0.643-0.532-1.006-1.33-0.991-2.166c0.162-7.827,6.851-14.196,14.912-14.196
			c8.237,0,14.938,6.496,14.938,14.481c0,4.062-1.812,7.974-4.972,10.728C279.998,288.693,279.354,288.922,278.708,288.922z
			 M261.7,274.386c1.862,0.181,3.653,0.777,5.329,1.782c2.008,1.206,3.77,1.792,5.472,2.359c2.203,0.729,4.465,1.484,6.2,3.49
			c0.845-1.354,1.294-2.893,1.294-4.5c0-4.963-4.242-9-9.457-9C266.523,268.518,263.052,270.971,261.7,274.386z"/>
	</g>
	<g>
		<path fill="#539F44" d="M366.892,284.65c-2.076,6.021-0.542,9.789-3.648,12.676c-0.596,0.553-0.917,1.127-1.148,1.709
			c2.611,1.958,5.938,2.863,9.312,2.152c6.347-1.336,10.357-7.765,8.968-14.356c-1.372-6.506-7.505-10.724-13.771-9.531
			C367.395,279.107,367.929,281.652,366.892,284.65z"/>
		<path fill="#3C2517" d="M369.095,304.17L369.095,304.17c-3.092,0-6.08-1.02-8.644-2.949c-0.988-0.74-1.359-2.048-0.902-3.199
			c0.427-1.076,1.004-1.932,1.819-2.695c1.042-0.969,1.212-2.104,1.493-4.566c0.214-1.882,0.481-4.225,1.439-7.001
			c0.624-1.813,0.558-3.612-0.212-5.358c-0.332-0.765-0.302-1.637,0.09-2.377c0.387-0.74,1.089-1.26,1.911-1.416
			c0.869-0.166,1.759-0.248,2.638-0.248c6.847,0,12.869,5.004,14.326,11.908c0.817,3.885,0.133,7.851-1.938,11.164
			c-2.096,3.354-5.341,5.637-9.146,6.438C371.023,304.068,370.058,304.17,369.095,304.17z M366.165,298.167
			c0.944,0.345,1.933,0.522,2.93,0.522l0,0c0.582,0,1.166-0.062,1.738-0.188c2.337-0.488,4.337-1.9,5.634-3.977
			c1.314-2.104,1.752-4.643,1.227-7.129c-0.82-3.896-3.892-6.84-7.564-7.443c0.207,1.859-0.007,3.745-0.646,5.592
			c-0.766,2.204-0.973,4.053-1.176,5.833C368.042,293.686,367.771,296.055,366.165,298.167z"/>
	</g>
	<g>
		<path fill="#539F44" d="M130.176,266.807c6.054-1.982,8.122-5.498,12.306-4.764c0.795,0.139,1.441,0.051,2.049-0.122
			c-0.016-3.259-1.31-6.456-3.917-8.714c-4.907-4.24-12.454-3.544-16.858,1.546c-4.354,5.031-3.992,12.472,0.743,16.733
			C125.463,269.764,127.171,267.799,130.176,266.807z"/>
		<path fill="#3C2517" d="M124.498,274.225c-0.67,0-1.323-0.242-1.83-0.701c-5.82-5.235-6.262-14.461-0.983-20.562
			c2.896-3.349,7.05-5.267,11.411-5.267c3.433,0,6.739,1.223,9.311,3.44c3.07,2.663,4.842,6.587,4.865,10.771
			c0.008,1.235-0.809,2.321-1.996,2.655c-1.113,0.312-2.092,0.396-3.273,0.18c-1.352-0.237-2.381,0.31-4.519,1.578
			c-1.626,0.969-3.654,2.179-6.455,3.096c-1.814,0.596-3.205,1.744-4.137,3.407c-0.406,0.729-1.12,1.231-1.945,1.368
			C124.797,274.212,124.648,274.225,124.498,274.225z M133.096,253.174c-2.765,0-5.412,1.227-7.269,3.374
			c-2.629,3.037-3.047,7.271-1.34,10.522c1.352-1.286,2.981-2.258,4.833-2.868c2.22-0.728,3.816-1.677,5.364-2.595
			c2.075-1.235,4.04-2.406,6.691-2.406h0.006c-0.476-1.525-1.346-2.865-2.562-3.924
			C137.247,253.921,135.214,253.174,133.096,253.174z"/>
	</g>
	<g>
		<path fill="#A94F25" d="M197.912,300.889c0,0,3.046-5.162,9.389-4.648c6.347,0.512,9.613-1.92,13.188,0.377
			c3.573,2.291,6.194-1.447,10.173,0.029"/>
		<path fill="#3C2517" d="M197.912,303.627c-0.479,0-0.954-0.121-1.393-0.38c-1.305-0.769-1.734-2.448-0.967-3.753
			c0.159-0.271,4.022-6.604,11.969-5.988c2.333,0.188,4.166-0.066,5.945-0.312c2.733-0.383,5.559-0.774,8.502,1.113
			c0.757,0.482,1.267,0.414,2.962-0.08c1.671-0.494,3.958-1.158,6.685-0.146c1.419,0.525,2.14,2.102,1.616,3.521
			c-0.525,1.418-2.108,2.143-3.521,1.614c-0.98-0.362-1.781-0.159-3.238,0.269c-1.906,0.559-4.516,1.322-7.46-0.562
			c-1.191-0.761-2.329-0.639-4.788-0.302c-1.877,0.261-4.209,0.587-7.143,0.351c-4.596-0.367-6.784,3.272-6.81,3.312
			C199.763,303.145,198.849,303.627,197.912,303.627z"/>
	</g>
	<g>
		<path fill="#A94F25" d="M312.585,307.277c0,0,5.097-10.557,9.467-8.736c4.365,1.82,6.915-0.783,10.922-0.209
			c4.004,0.576,5.824-0.018,9.461-0.086"/>
		<path fill="#3C2517" d="M312.585,310.018c-0.4,0-0.81-0.088-1.188-0.271c-1.361-0.659-1.936-2.299-1.276-3.662
			c1.035-2.151,6.558-12.771,12.989-10.069c1.725,0.719,2.993,0.441,4.74,0.037c1.561-0.349,3.325-0.742,5.514-0.434
			c2.373,0.343,3.833,0.221,5.682,0.076c1.003-0.08,2.066-0.165,3.34-0.189c0.018,0,0.036,0,0.051,0
			c1.493,0,2.714,1.192,2.743,2.688c0.027,1.513-1.176,2.765-2.688,2.793c-1.146,0.021-2.103,0.1-3.005,0.171
			c-2.02,0.161-3.921,0.312-6.903-0.11c-1.163-0.174-2.261,0.072-3.528,0.354c-2.098,0.477-4.716,1.07-8.057-0.328
			c-0.007,0-0.013,0-0.024,0c-1.038,0-4.01,3.447-5.917,7.398C314.581,309.448,313.604,310.018,312.585,310.018z"/>
	</g>
	<g>
		<path fill="#A94F25" d="M330.421,259.514c0,0,5.101-11.208,12.014-9.753c6.925,1.458,14.931,0.465,19.659-0.135"/>
		<path fill="#3C2517" d="M330.421,262.25c-0.381,0-0.768-0.076-1.134-0.244c-1.379-0.631-1.986-2.251-1.358-3.626
			c0.611-1.354,6.244-13.174,15.073-11.301c6.543,1.375,14.481,0.374,18.749-0.169c1.478-0.19,2.872,0.873,3.063,2.377
			c0.188,1.5-0.873,2.872-2.379,3.061c-4.586,0.579-13.131,1.658-20.565,0.098c-3.837-0.817-7.86,5.814-8.957,8.207
			C332.455,261.657,331.46,262.25,330.421,262.25z"/>
	</g>
	<g>
		<path fill="#662911" d="M259.366,298.782c0,0-9.285-3.3-11.602,3.409c-2.319,6.714-2.689,2.32-7.92,8.092
			c-5.231,5.775-5.979,5.775,0,6.602c5.988,0.82,10.236,3.023,15.264,0c5.033-3.029,1.963-7.703,11.035-10.18
			C275.217,304.23,266.715,297.461,259.366,298.782z"/>
		<path fill="#3C2517" d="M249.562,321.168h-0.004c-2.081,0-4.065-0.411-6.161-0.85c-1.238-0.258-2.53-0.527-3.924-0.723
			c-3.372-0.465-5.591-0.771-6.379-2.957c-0.792-2.193,0.661-3.777,3.303-6.648l1.416-1.545c2.517-2.778,4.17-3.609,5.652-4.225
			c0.187-0.078,0.439-0.184,0.496-0.224c0.038-0.038,0.418-0.412,1.213-2.701c1.353-3.911,4.661-6.067,9.324-6.067
			c2.156,0,4.082,0.459,5.083,0.748c5.501-0.672,12.563,2.244,13.19,6.934c0.188,1.402-0.014,4.832-5.907,6.439
			c-4.214,1.146-4.89,2.559-5.826,4.515c-0.795,1.657-1.791,3.726-4.517,5.364C254.352,320.534,252.076,321.168,249.562,321.168z
			 M240.029,314.141c0.064,0.01,0.13,0.017,0.189,0.026c1.525,0.209,2.944,0.506,4.294,0.785c3.812,0.798,6.548,1.168,9.183-0.419
			c1.32-0.794,1.75-1.691,2.4-3.042c1.475-3.076,3.196-5.759,9.328-7.431c0.896-0.242,1.415-0.496,1.704-0.668
			c-0.884-0.94-4.067-2.496-7.276-1.912c-0.472,0.09-0.957,0.041-1.406-0.114c-0.01-0.007-1.899-0.656-3.947-0.656
			c-2.943,0-3.762,1.271-4.143,2.378c-1.44,4.169-2.506,5.246-4.787,6.193c-0.84,0.349-1.794,0.746-3.69,2.841l-1.447,1.576
			C240.298,313.848,240.163,313.995,240.029,314.141z"/>
	</g>
	<g>
		<path fill="#662911" d="M197.939,279.955c0,0,0.245-9.848-6.86-9.962c-7.1-0.119-3.026-1.83-10.142-5.005
			c-7.122-3.172-7.354-3.887-6.278,2.049c1.081,5.943-4.912,15.309-0.471,19.146c4.437,3.84,13.154-5.168,18.329,2.678
			C197.688,296.718,201.478,286.521,197.939,279.955z"/>
		<path fill="#3C2517" d="M196.136,294.445L196.136,294.445c-2.139,0-4.125-1.37-5.91-4.077c-1.216-1.843-2.473-2.099-3.65-2.099
			c-1.305,0-2.852,0.4-4.343,0.783c-1.66,0.43-3.379,0.87-5.069,0.87c-1.886,0-3.489-0.563-4.768-1.671
			c-3.905-3.368-2.581-8.76-1.413-13.513c0.648-2.64,1.317-5.369,0.985-7.214c-0.588-3.23-0.914-5.015,0.322-6.49
			c0.643-0.771,1.578-1.196,2.631-1.196c1.306,0,2.608,0.595,5.216,1.779l1.919,0.866c3.418,1.527,4.723,2.842,5.768,4.058
			c0.131,0.149,0.31,0.354,0.367,0.399c0.044,0.027,0.521,0.269,2.94,0.31c2.429,0.04,4.561,0.944,6.17,2.622
			c2.868,2.99,3.315,7.591,3.368,9.42c1.857,3.962,1.861,9.148-0.05,12.352C199.539,293.456,197.949,294.445,196.136,294.445z
			 M186.575,282.789c3.462,0,6.231,1.535,8.227,4.561c0.513,0.781,0.91,1.196,1.169,1.414c0.613-1.148,1.126-4.591-0.446-7.508
			c-0.225-0.422-0.339-0.895-0.325-1.372c0.021-1.165-0.268-4.573-1.86-6.225c-0.598-0.614-1.324-0.909-2.3-0.927
			c-4.411-0.074-5.766-0.752-7.371-2.617c-0.595-0.693-1.267-1.471-3.847-2.625l-1.953-0.883c-0.183-0.082-0.366-0.166-0.542-0.244
			c0.013,0.063,0.022,0.125,0.034,0.187c0.542,2.995-0.27,6.3-1.059,9.493c-0.827,3.387-1.688,6.887-0.325,8.064
			c0.194,0.166,0.482,0.336,1.187,0.336c0.998,0,2.309-0.34,3.7-0.696C182.606,283.299,184.574,282.789,186.575,282.789z"/>
	</g>
	<g>
		<path fill="#662911" d="M338.471,283.736c0,0,6.53-2.047,5.546-6.355c-0.988-4.309,0.755-2.236,1.779-7.238
			c1.029-5.002,1.463-5.305-2.293-3.328c-3.751,1.976-10.82,0.445-12.688,3.978c-1.86,3.534,5.382,6.784,0.979,11.656
			C327.393,287.318,334.677,287.33,338.471,283.736z"/>
		<path fill="#3C2517" d="M332.481,289.027h-0.004c-3.034,0-4.132-1.731-4.461-2.477c-0.795-1.781-0.208-3.781,1.744-5.941
			c1.102-1.223,0.958-1.713-0.353-3.947c-1.002-1.712-2.517-4.303-1.02-7.152c1.793-3.384,5.708-3.803,9.165-4.173
			c1.772-0.188,3.606-0.387,4.672-0.946c1.719-0.906,2.758-1.451,3.886-1.451c0.953,0,1.836,0.416,2.424,1.139
			c1.071,1.329,0.77,2.729,0.228,5.279l-0.28,1.34c-0.527,2.562-1.276,3.766-1.94,4.688l-0.114,0.167
			c0.04,0.033,0.073,0.407,0.263,1.216c1.15,5.045-3.491,8.168-6.809,9.385C337.793,287.914,334.958,289.027,332.481,289.027z
			 M343.035,269.948c-1.559,0.479-3.25,0.663-4.896,0.838c-1.889,0.2-4.475,0.479-4.898,1.287c0,0.282,0.565,1.243,0.903,1.819
			c1.109,1.898,3.075,5.258,0.736,9.01c0.606-0.293,1.205-0.68,1.708-1.154c0.302-0.285,0.668-0.5,1.062-0.624
			c1.09-0.351,4.01-1.753,3.696-3.135c-0.634-2.765-0.461-4.119,0.737-5.798C342.397,271.757,342.723,271.303,343.035,269.948z"/>
	</g>
	<g>
		<path fill="#387639" d="M215.708,122.475c-0.802,0.286-7.402,2.676-7.812,3.287c-0.414,0.618-0.825,3.498,0,3.912
			c0.821,0.41,0.618,6.991,5.145,1.233C217.559,125.15,218.8,121.361,215.708,122.475z"/>
	</g>
	<g>
		<path fill="#387639" d="M264.124,127.962c-0.797,0.289-7.405,2.676-7.813,3.294c-0.414,0.614-0.824,3.494,0,3.904
			c0.822,0.415,0.619,6.991,5.146,1.232C265.979,130.638,267.221,126.849,264.124,127.962z"/>
	</g>
	<g>
		<path fill="#387639" d="M246.35,116.723c0,0-2.771-2.118-3.45,2.007c-0.679,4.125,1.216,3.64,1.725,3.395
			C245.137,121.88,251.927,116.417,246.35,116.723z"/>
	</g>
	<g>
		<path fill="#387639" d="M271.251,112.102c0,0-2.767-2.122-3.444,2.003c-0.682,4.125,1.215,3.64,1.723,3.396
			C270.036,117.26,276.834,111.793,271.251,112.102z"/>
	</g>
	<g>
		<path fill="#387639" d="M205.229,143.195c0,0-2.768-2.12-3.45,2.006c-0.678,4.129,1.216,3.64,1.725,3.399
			C204.017,148.355,210.812,142.892,205.229,143.195z"/>
	</g>
	<g>
		<path fill="#387639" d="M151.448,205.604c0,0-2.764-2.126-3.447,2.003c-0.675,4.125,1.216,3.64,1.729,3.399
			C150.239,210.761,157.033,205.294,151.448,205.604z"/>
	</g>
	<g>
		<path fill="#387639" d="M229.608,135.843c-3.181,4.054-9.981,5.697-3.467,7.527c6.516,1.837,10.388-1.419,9.165-3.765
			C234.085,137.266,232.266,132.444,229.608,135.843z"/>
	</g>
	<g>
		<path fill="#387639" d="M254.335,117.355c-3.176,4.057-9.976,5.7-3.464,7.531c6.52,1.834,10.391-1.423,9.171-3.766
			C258.82,118.777,256.998,113.956,254.335,117.355z"/>
	</g>
	<g>
		<path fill="#387639" d="M247.713,131.219c-3.177,4.054-9.978,5.701-3.463,7.531c6.518,1.837,10.389-1.419,9.165-3.766
			C252.188,132.645,250.37,127.82,247.713,131.219z"/>
	</g>
	<g>
		<path fill="#387639" d="M229.608,111.161c-3.181,4.054-9.981,5.701-3.467,7.531c6.516,1.834,10.388-1.423,9.165-3.769
			C234.085,112.584,232.266,107.759,229.608,111.161z"/>
	</g>
	<g>
		<path fill="#387639" d="M330.557,155.136c-3.174,4.058-9.978,5.701-3.467,7.532c6.521,1.836,10.392-1.423,9.166-3.766
			C335.031,156.559,333.212,151.737,330.557,155.136z"/>
	</g>
	<g>
		<path fill="#387639" d="M288.921,181.356c-3.171,4.058-9.976,5.698-3.46,7.532c6.518,1.833,10.385-1.423,9.158-3.766
			C293.396,182.775,291.581,177.961,288.921,181.356z"/>
	</g>
	<g>
		<path fill="#387639" d="M229.608,207.712c-3.181,4.054-9.981,5.694-3.467,7.531c6.516,1.83,10.388-1.423,9.165-3.766
			C234.085,209.135,232.266,204.313,229.608,207.712z"/>
	</g>
	<g>
		<path fill="#387639" d="M254.805,144.742c-0.218,0.004-0.563,0.01-0.988,0.017c-2.873,0.044-9.408,0.197-4.411,2.401
			c5.735,2.532,11.13,1.857,10.628,0c-0.507-1.854,4.454-7.694-5.446-2.415"/>
	</g>
	<g>
		<path fill="#387639" d="M230.067,122.954c-0.213,0.003-0.558,0.011-0.982,0.014c-2.871,0.048-9.411,0.2-4.409,2.403
			c5.731,2.534,11.128,1.858,10.622,0c-0.508-1.853,4.453-7.69-5.443-2.414"/>
	</g>
	<g>
		<path fill="#387639" d="M141.829,165.354c-0.217,0.007-0.561,0.01-0.981,0.017c-2.872,0.047-9.412,0.2-4.415,2.403
			c5.735,2.53,11.127,1.857,10.622,0c-0.506-1.854,4.458-7.691-5.442-2.414"/>
	</g>
	<g>
		<path fill="#387639" d="M292.198,216.275c-0.214,0.007-0.562,0.015-0.985,0.018c-2.872,0.048-9.404,0.2-4.41,2.4
			c5.735,2.53,11.131,1.857,10.622,0c-0.504-1.851,4.458-7.688-5.44-2.411"/>
	</g>
</g>
</svg>
