<?xml version="1.0" encoding="utf-8"?>
<!-- Generator: Adobe Illustrator 16.0.0, SVG Export Plug-In . SVG Version: 6.00 Build 0)  -->
<!DOCTYPE svg PUBLIC "-//W3C//DTD SVG 1.1//EN" "http://www.w3.org/Graphics/SVG/1.1/DTD/svg11.dtd">
<svg version="1.1" id="Layer_1" xmlns="http://www.w3.org/2000/svg" xmlns:xlink="http://www.w3.org/1999/xlink" x="0px" y="0px"
	 width="500px" height="500px" viewBox="0 0 500 500" enable-background="new 0 0 500 500" xml:space="preserve">
<g id="Layer_1_copy_91">
	<g>
		<path fill="#F4BE78" d="M473.035,343.247c-6.713-36.576-24.417-135.738-38.179-169.327
			c-17.342-42.312-68.673-38.149-109.602-50.639c-40.919-12.485-33.641-57.569-33.641-57.569h-81.201c0,0,6.108,45.084-34.82,57.569
			c-40.926,12.489-92.259,8.327-109.595,50.639C51.595,209.056,32.894,308.275,26.96,340.934l77.062,0.646l11.914-34.479
			c0,0,4.528,41.305,9.292,81.617l249.711,0.004c5.006-42.676,9.978-81.621,9.978-81.621l12.457,36.067L473.035,343.247z"/>
		<path fill="#3C2517" d="M374.94,391.264l-249.711-0.004c-1.287,0-2.373-0.965-2.526-2.246c-3.15-26.654-6.205-53.806-8.053-70.396
			l-8.218,23.791c-0.359,1.033-1.367,1.664-2.431,1.716l-77.059-0.646c-0.751-0.008-1.463-0.345-1.939-0.92
			c-0.48-0.578-0.679-1.343-0.543-2.078c5.5-30.301,24.59-131.922,39.18-167.524c13.352-32.58,46.316-38.74,78.188-44.694
			c11.065-2.068,22.507-4.203,33.023-7.415c16.09-4.906,26.533-15.58,31.052-31.718c3.402-12.185,2.001-22.969,1.986-23.075
			c-0.096-0.73,0.124-1.463,0.609-2.017c0.483-0.554,1.18-0.869,1.914-0.869h81.201c0.748,0,1.451,0.326,1.939,0.895
			c0.48,0.565,0.693,1.313,0.576,2.05c-0.279,1.756-6.402,43.06,31.868,54.734c10.516,3.212,21.956,5.347,33.019,7.415
			c31.876,5.954,64.843,12.115,78.192,44.694c13.116,32.015,29.346,120.724,37.141,163.362l1.188,6.472
			c0.136,0.741-0.066,1.507-0.55,2.09c-0.483,0.579-1.199,0.914-1.955,0.914h-0.003l-75.661-0.081c-1.082,0-2.046-0.689-2.402-1.713
			l-8.896-25.748c-1.826,14.546-5.222,41.922-8.606,70.766C377.316,390.3,376.231,391.264,374.94,391.264z M127.491,386.17
			l245.184,0.005c4.862-41.329,9.669-79.017,9.714-79.397c0.15-1.17,1.089-2.088,2.267-2.209c1.157-0.094,2.279,0.584,2.67,1.703
			l11.865,34.354l70.792,0.073l-0.636-3.466c-7.161-39.15-23.933-130.825-36.848-162.35c-12.299-30.013-42.469-35.653-74.415-41.619
			c-11.198-2.094-22.777-4.257-33.569-7.55c-36.315-11.081-36.487-46.899-35.715-57.459h-75.637
			c0.514,10.473-0.483,46.371-36.825,57.459c-10.792,3.293-22.372,5.456-33.57,7.55c-31.945,5.966-62.116,11.605-74.415,41.622
			C54.389,208.945,36.11,305.061,30.009,338.415l72.211,0.604l11.312-32.748c0.355-1.027,1.323-1.717,2.405-1.717
			c2.284,0,2.526,2.219,2.614,3.051C119.976,320.471,123.639,353.458,127.491,386.17z"/>
	</g>
	<g>
		<g>
			<g>
				<path fill="#F4BE78" d="M277.566,251.605c0,0,8.32,54.805,39.528,74.221"/>
				<path fill="#3C2517" d="M317.093,328.371c-0.459,0-0.924-0.125-1.342-0.382c-31.84-19.812-40.354-73.714-40.698-75.998
					c-0.213-1.39,0.74-2.688,2.135-2.901c1.385-0.213,2.685,0.744,2.896,2.135c0.084,0.534,8.515,53.877,38.359,72.44
					c1.19,0.745,1.558,2.313,0.812,3.506C318.772,327.949,317.944,328.371,317.093,328.371z"/>
			</g>
			<g>
				<path fill="#F4BE78" d="M220.681,232.186c0,0,2.083,63.822-43.698,104.054"/>
				<path fill="#3C2517" d="M176.982,338.781c-0.707,0-1.407-0.29-1.91-0.861c-0.931-1.061-0.828-2.666,0.23-3.594
					c44.366-38.99,42.855-101.428,42.837-102.052c-0.048-1.409,1.053-2.585,2.46-2.629c1.445-0.069,2.581,1.056,2.626,2.461
					c0.021,0.648,1.584,65.486-44.56,106.044C178.183,338.575,177.58,338.781,176.982,338.781z"/>
			</g>
		</g>
		<g>
			<g>
				<path fill="#F4BE78" d="M109.773,241.631c0,0,4.991,56.165,6.164,65.469"/>
				<path fill="#3C2517" d="M115.935,309.646c-1.263,0-2.358-0.941-2.523-2.229c-1.166-9.244-5.97-63.267-6.175-65.562
					c-0.125-1.401,0.909-2.636,2.311-2.761c1.414-0.114,2.632,0.909,2.757,2.31c0.052,0.561,5.002,56.223,6.16,65.379
					c0.177,1.394-0.813,2.661-2.208,2.842C116.15,309.641,116.043,309.646,115.935,309.646z"/>
			</g>
			<g>
				<line fill="none" x1="389.703" y1="241.631" x2="384.918" y2="307.1"/>
				<path fill="#3C2517" d="M384.918,309.646c-0.062,0-0.125-0.002-0.19-0.006c-1.4-0.105-2.456-1.324-2.351-2.729l4.789-65.468
					c0.099-1.4,1.28-2.438,2.724-2.354c1.401,0.106,2.454,1.324,2.353,2.724l-4.785,65.471
					C387.356,308.625,386.241,309.646,384.918,309.646z"/>
			</g>
		</g>
	</g>
</g>
</svg>
