<?xml version="1.0" encoding="utf-8"?>
<!-- Generator: Adobe Illustrator 16.0.0, SVG Export Plug-In . SVG Version: 6.00 Build 0)  -->
<!DOCTYPE svg PUBLIC "-//W3C//DTD SVG 1.1//EN" "http://www.w3.org/Graphics/SVG/1.1/DTD/svg11.dtd">
<svg version="1.1" id="Layer_1" xmlns="http://www.w3.org/2000/svg" xmlns:xlink="http://www.w3.org/1999/xlink" x="0px" y="0px"
	 width="500px" height="500px" viewBox="0 0 500 500" enable-background="new 0 0 500 500" xml:space="preserve">
<g id="Layer_1_copy_83">
	<g>
		<g>
			<path fill="#FDDC1F" d="M475.938,248.187c0,127.437-103.306,230.738-230.738,230.738c-127.429,0-230.733-103.301-230.733-230.738
				c0-127.43,103.305-230.734,230.733-230.734C372.632,17.452,475.938,120.757,475.938,248.187z"/>
		</g>
		<g>
			<path fill="#FCB022" d="M245.198,482.385c-129.135,0-234.199-105.062-234.199-234.199S116.063,13.989,245.198,13.989
				c129.14,0,234.199,105.062,234.199,234.197C479.397,377.322,374.338,482.385,245.198,482.385z M245.198,20.915
				c-125.316,0-227.27,101.953-227.27,227.271c0,125.321,101.953,227.277,227.27,227.277c125.319,0,227.276-101.956,227.276-227.277
				C472.476,122.868,370.519,20.915,245.198,20.915z"/>
		</g>
	</g>
	<g>
		<path fill="#4C230D" d="M242.48,283.477c-4.398,0-7.595-1.515-9.721-3.072c-5.143-3.771-8.091-10.844-8.091-19.385
			c0-15.24,15.536-19.271,23.75-19.271c1.911,0,3.461,1.554,3.461,3.465s-1.547,3.46-3.454,3.46
			c-0.75,0.008-16.831,0.241-16.831,12.346c0,6.312,1.918,11.344,5.26,13.801c2.668,1.953,6.206,2.258,10.523,0.899
			c1.838-0.588,3.773,0.445,4.348,2.263c0.572,1.828-0.443,3.774-2.27,4.34C246.861,283.145,244.537,283.477,242.48,283.477z"/>
	</g>
	<g>
		<g>
			<path fill="#DEF2FD" d="M221.749,187.11c-0.622,41.977-26.832,75.637-58.551,75.162c-31.716-0.467-56.92-34.877-56.305-76.858
				c0.62-41.977,26.833-75.626,58.552-75.158C197.161,110.721,222.365,145.133,221.749,187.11z"/>
		</g>
		<g>
			<path fill="#C3E5F2" d="M163.856,264.585l-0.69-0.007c-32.937-0.487-59.214-36.018-58.583-79.199
				c0.633-42.699,27.643-77.438,60.203-77.438l0.69,0.005c16.081,0.236,31.034,8.69,42.106,23.805
				c10.932,14.918,16.778,34.593,16.475,55.393C223.427,229.848,196.418,264.585,163.856,264.585z M164.786,112.559
				c-30.052,0-54.99,32.696-55.582,72.89c-0.601,40.637,23.64,74.062,54.029,74.516l0.623,0.008
				c30.056,0,54.991-32.703,55.586-72.896c0.29-19.804-5.245-38.483-15.585-52.596c-10.193-13.919-23.854-21.703-38.447-21.917
				L164.786,112.559z"/>
		</g>
	</g>
	<g>
		<path fill="#010101" d="M184.697,194.703c-0.507,16.702-9.641,29.979-20.392,29.651c-10.759-0.326-19.067-14.126-18.565-30.827
			c0.506-16.705,9.637-29.979,20.396-29.655C176.89,164.195,185.2,177.999,184.697,194.703z"/>
	</g>
	<g>
		<g>
			<path fill="#DEF2FD" d="M260.559,181.331c-3.604,43.136,19.896,80.325,52.495,83.043c32.591,2.718,61.937-30.038,65.537-73.18
				c3.604-43.139-19.896-80.318-52.492-83.041C293.505,105.43,264.164,138.195,260.559,181.331z"/>
		</g>
		<g>
			<path fill="#C3E5F2" d="M316.833,266.844L316.833,266.844c-1.316,0-2.653-0.058-3.974-0.17
				c-16.502-1.374-31.271-11.119-41.58-27.435c-10.18-16.104-14.807-36.739-13.02-58.098c3.532-42.313,31.666-75.455,64.051-75.455
				c1.32,0,2.658,0.055,3.979,0.164c33.812,2.828,58.308,41.199,54.603,85.535C377.359,233.694,349.218,266.844,316.833,266.844z
				 M322.312,110.303c-30.004,0-56.117,31.284-59.455,71.221c-1.697,20.367,2.677,39.988,12.326,55.253
				c9.518,15.062,23.032,24.043,38.062,25.296c1.188,0.106,2.396,0.155,3.588,0.155c30.004,0,56.124-31.291,59.461-71.228
				c3.486-41.8-19.113-77.933-50.387-80.548C324.714,110.354,323.508,110.303,322.312,110.303z"/>
		</g>
	</g>
	<g>
		<path fill="#010101" d="M297.815,192.864c-1.169,17.191,6.865,31.74,17.932,32.486c11.069,0.758,20.992-12.567,22.16-29.758
			c1.168-17.192-6.861-31.736-17.933-32.49C308.909,162.35,298.982,175.674,297.815,192.864z"/>
	</g>
	<g>
		<g>
			<path fill="#010101" d="M332.639,49.74c0,0-15.005-0.384-12.854,11.02c1.822,9.638,10.237,6.163,19.488,6.871
				c9.751,0.747,26.259,6.54,33.217,14.041C361.715,52.362,332.639,49.74,332.639,49.74z"/>
		</g>
		<g>
			<path fill="#010101" d="M372.49,83.979c-0.627,0-1.242-0.253-1.695-0.738c-6.214-6.703-21.86-12.556-31.698-13.308
				c-2.189-0.169-4.331-0.086-6.346-0.014c-1.111,0.039-2.19,0.078-3.217,0.078c-5.117,0-10.549-1.045-12.016-8.806
				c-0.668-3.541-0.017-6.531,1.934-8.887c3.751-4.522,10.91-4.873,13.016-4.873c0.017,0,0.213,0.002,0.229,0.004
				c0.452,0.035,30.81,3.11,41.957,33.439c0.382,1.034-0.021,2.191-0.959,2.766C373.322,83.867,372.904,83.979,372.49,83.979z
				 M336.276,65.217c1.044,0,2.102,0.03,3.174,0.111c7.737,0.593,18.707,4.033,26.89,8.793
				c-11.962-19.857-33.663-22.06-33.91-22.082c-2.49,0.007-7.324,0.682-9.425,3.21c-1.043,1.265-1.354,2.927-0.951,5.082
				c0.817,4.319,2.966,5.046,7.48,5.046c0.978,0,1.996-0.035,3.055-0.074C333.782,65.261,335.017,65.217,336.276,65.217z"/>
		</g>
	</g>
	<g>
		<g>
			<path fill="#010101" d="M155.939,53.97c0,0,18.853-1.345,13.718,10.328c-3.95,8.98-11.987,4.925-21.22,5.832
				c-12.507,1.23-23.442,8.819-30.761,16.811C127.477,57.293,155.939,53.97,155.939,53.97z"/>
		</g>
		<g>
			<path fill="#010101" d="M117.677,89.25c-0.403,0-0.807-0.104-1.168-0.317c-0.941-0.552-1.366-1.683-1.026-2.716
				c10.146-30.691,39.892-34.504,40.188-34.538c0.105-0.01,0.828-0.064,1.975-0.064c4.919,0,11.346,0.865,14.042,4.99
				c1.536,2.357,1.564,5.257,0.086,8.623c-2.853,6.489-7.762,7.363-12.185,7.363c-1.218,0-2.495-0.071-3.818-0.142
				c-2.336-0.131-4.977-0.23-7.106-0.021c-10.172,1-20.845,6.859-29.288,16.074C118.93,88.991,118.308,89.25,117.677,89.25z
				 M157.646,56.232c-0.913,0-1.504,0.041-1.543,0.042c-0.863,0.106-20.498,2.693-31.726,21.46c7.448-5.606,15.758-9.108,23.834-9.9
				c2.39-0.237,5.256-0.138,7.813,0.003c1.239,0.067,2.428,0.137,3.564,0.137c3.847,0,6.253-0.735,7.955-4.604
				c0.814-1.848,0.906-3.275,0.276-4.243C166.652,57.343,162.756,56.232,157.646,56.232z"/>
		</g>
	</g>
	<g>
		<ellipse fill="#F3F3F3" cx="166.423" cy="180.042" rx="6.06" ry="6.222"/>
	</g>
	<g>
		<path fill="#E5E5E5" d="M337.73,361.482c0,0,83.519-174.64,124.298-134.624c40.786,40.013-103.106,144.518-103.106,144.518"/>
		<path fill="#4C230D" d="M358.922,374.837c-1.072,0-2.127-0.494-2.807-1.43c-1.122-1.55-0.778-3.718,0.769-4.843
			c0.266-0.188,26.894-19.59,53.572-44.44c34.83-32.444,53.958-59.298,55.312-77.651c0.514-6.958-1.501-12.57-6.165-17.144
			c-4.208-4.132-8.957-5.663-14.56-4.677c-41.065,7.233-103.562,137.013-104.188,138.323c-0.827,1.727-2.893,2.455-4.622,1.627
			c-1.724-0.82-2.451-2.889-1.628-4.615c2.622-5.484,64.697-134.306,109.235-142.155c7.835-1.373,14.775,0.826,20.614,6.554
			c6.123,6.007,8.886,13.609,8.221,22.605c-3.56,48.116-107.308,123.975-111.72,127.182
			C360.341,374.618,359.629,374.837,358.922,374.837z"/>
	</g>
	<g>
		<path fill="#ED2024" d="M345.905,363.117c0,0,80.476-135.371,104.582-126.254c30.781,11.643-98.063,130.422-98.063,130.422"/>
	</g>
	<g>
		<path fill="#F3F3F3" d="M321.091,180.042c0,3.435-2.715,6.222-6.059,6.222c-3.35,0-6.062-2.787-6.062-6.222
			c0-3.438,2.714-6.223,6.062-6.223C318.376,173.819,321.091,176.604,321.091,180.042z"/>
	</g>
	<g>
		<g>
			<path fill="#4C230D" d="M235.551,388.9c-15.457,0-29.79-5.521-42.339-22.019c-29.776-39.12-57.211-46.692-101.228-27.915
				c-1.756,0.75-3.79-0.07-4.54-1.826c-0.751-1.763,0.067-3.793,1.825-4.543c47.022-20.054,77.704-11.623,109.452,30.096
				c21.91,28.791,48.823,19.972,82.902,8.803c8.54-2.796,17.366-5.689,26.489-8.062c47.224-12.301,58.541,11.553,58.998,12.571
				c0.781,1.747,0.003,3.793-1.742,4.579c-1.733,0.777-3.771,0.016-4.562-1.713c-0.406-0.85-9.852-19.436-50.948-8.742
				c-8.915,2.323-17.64,5.184-26.076,7.949C267.041,383.564,250.748,388.9,235.551,388.9z"/>
		</g>
		<g>
			<path fill="#4C230D" d="M98.036,352.244c-0.496,0-0.998-0.104-1.473-0.332c-7.343-3.452-11.438-8.294-12.166-14.367
				c-1.65-13.738,15.143-27.73,17.063-29.281c1.487-1.195,3.667-0.97,4.866,0.524c1.2,1.479,0.97,3.659-0.517,4.868
				c-4.392,3.554-15.557,14.625-14.538,23.066c0.437,3.603,3.132,6.521,8.242,8.926c1.728,0.813,2.471,2.873,1.657,4.606
				C100.58,351.508,99.335,352.244,98.036,352.244z"/>
		</g>
		<g>
			<path fill="#4C230D" d="M304.964,394.407c-1.23,0-2.428-0.665-3.054-1.833c-0.903-1.684-0.271-3.778,1.419-4.684
				c24.39-13.067,35.141-2.11,35.588-1.645c1.312,1.395,1.248,3.589-0.143,4.906c-1.381,1.287-3.538,1.238-4.858-0.106
				c-0.403-0.391-8.083-7.354-27.317,2.951C306.079,394.273,305.52,394.407,304.964,394.407z"/>
		</g>
	</g>
	<g>
		<g>
			<path fill="#FDDC1F" d="M106.884,194.227l114.547-16.559c0,0-2.777-66.286-61.067-67.193
				C102.077,109.565,106.884,194.227,106.884,194.227z"/>
		</g>
		<g>
			<path fill="#FCB022" d="M106.884,197.69c-0.793,0-1.571-0.273-2.195-0.781c-0.75-0.616-1.21-1.516-1.264-2.486
				c-0.112-1.96-2.462-48.308,20.687-72.81c9.158-9.693,21.042-14.61,35.325-14.61l0.983,0.009
				c60.853,0.947,64.44,69.814,64.473,70.509c0.07,1.775-1.21,3.32-2.966,3.573l-114.549,16.559
				C107.212,197.677,107.046,197.69,106.884,197.69z M159.437,113.931c-12.295,0-22.487,4.181-30.279,12.427
				c-17.497,18.5-18.933,52.533-18.897,63.883l107.438-15.532c-0.611-5.452-2.516-17.279-8.153-28.989
				c-9.99-20.734-26.553-31.429-49.233-31.781L159.437,113.931z"/>
		</g>
	</g>
	<g>
		<g>
			<path fill="#FDDC1F" d="M377.938,191.755l-114.549-16.561c0,0,2.781-66.286,61.067-67.192
				C382.75,107.093,377.938,191.755,377.938,191.755z"/>
		</g>
		<g>
			<path fill="#FCB022" d="M377.938,195.218c-0.162,0-0.329-0.013-0.495-0.037L262.895,178.62c-1.76-0.253-3.041-1.798-2.968-3.571
				c0.032-0.696,3.621-69.563,64.478-70.511l0.979-0.007c14.279,0,26.167,4.915,35.329,14.61
				c23.146,24.5,20.795,70.849,20.686,72.81c-0.057,0.968-0.518,1.87-1.268,2.484C379.508,194.943,378.733,195.218,377.938,195.218z
				 M267.118,172.234l107.441,15.533c0.035-11.35-1.4-45.382-18.897-63.881c-7.796-8.247-17.985-12.427-30.278-12.427l-0.871,0.005
				c-22.751,0.354-39.346,11.11-49.321,31.969C269.6,155.12,267.721,166.823,267.118,172.234z"/>
		</g>
	</g>
	<g>
		<g>
			<path fill="#FDDC1F" d="M94.206,149.272c0,0,36.934-26.165,60.788-62.331"/>
		</g>
		<g>
			<path fill="#FCB022" d="M94.21,152.735c-1.086,0-2.152-0.51-2.827-1.462c-1.104-1.561-0.736-3.721,0.821-4.827
				c0.367-0.26,36.699-26.234,59.899-61.411c1.055-1.596,3.206-2.035,4.799-0.984c1.6,1.053,2.039,3.199,0.983,4.797
				c-23.937,36.292-60.147,62.165-61.677,63.248C95.601,152.527,94.901,152.735,94.21,152.735z"/>
		</g>
	</g>
	<g>
		<g>
			<path fill="#FDDC1F" d="M394.318,152.347c0,0-36.934-26.163-60.788-62.33"/>
		</g>
		<g>
			<path fill="#FCB022" d="M394.315,155.81c-0.695,0-1.393-0.208-2-0.639c-1.526-1.083-37.735-26.954-61.678-63.246
				c-1.051-1.598-0.611-3.744,0.984-4.799c1.6-1.049,3.743-0.613,4.798,0.984c23.228,35.216,59.535,61.152,59.9,61.411
				c1.557,1.106,1.929,3.267,0.819,4.829C396.47,155.301,395.401,155.81,394.315,155.81z"/>
		</g>
	</g>
	<g>
		<g>
			<path fill="#4C230D" d="M454.911,276.285c-0.484,0-0.978-0.155-1.395-0.473l-13.022-9.903c-1.021-0.771-1.214-2.224-0.442-3.233
				c0.77-1.013,2.224-1.211,3.234-0.439l13.026,9.902c1.016,0.771,1.211,2.223,0.438,3.234
				C456.299,275.975,455.612,276.285,454.911,276.285z"/>
		</g>
		<g>
			<path fill="#4C230D" d="M444.772,293.491c-0.507,0-1.021-0.168-1.447-0.517l-11.03-8.869c-0.995-0.799-1.151-2.25-0.351-3.248
				c0.796-0.989,2.254-1.146,3.24-0.346l11.038,8.868c0.99,0.8,1.146,2.257,0.352,3.247
				C446.121,293.195,445.448,293.491,444.772,293.491z"/>
		</g>
		<g>
			<path fill="#4C230D" d="M431.002,309.486c-0.573,0-1.148-0.211-1.595-0.644l-11.813-11.315c-0.921-0.887-0.951-2.344-0.066-3.266
				c0.881-0.918,2.342-0.953,3.26-0.07l11.812,11.324c0.925,0.879,0.955,2.336,0.071,3.258
				C432.217,309.248,431.607,309.486,431.002,309.486z"/>
		</g>
		<g>
			<path fill="#4C230D" d="M417.049,323.587c-0.574,0-1.146-0.213-1.596-0.646l-9.279-8.89c-0.92-0.884-0.952-2.344-0.066-3.263
				c0.881-0.92,2.343-0.956,3.263-0.072l9.279,8.891c0.92,0.886,0.951,2.343,0.069,3.264
				C418.263,323.348,417.657,323.587,417.049,323.587z"/>
		</g>
		<g>
			<path fill="#4C230D" d="M403.52,334.904c-0.576,0-1.146-0.211-1.597-0.645l-11.812-11.318c-0.92-0.883-0.955-2.342-0.071-3.262
				c0.886-0.921,2.347-0.955,3.267-0.07l11.811,11.317c0.924,0.884,0.953,2.343,0.069,3.263
				C404.732,334.663,404.124,334.904,403.52,334.904z"/>
		</g>
		<g>
			<path fill="#4C230D" d="M375.764,360.32c-0.572,0-1.149-0.213-1.597-0.644l-11.812-11.317c-0.921-0.885-0.952-2.342-0.066-3.264
				c0.881-0.92,2.342-0.953,3.259-0.07l11.815,11.318c0.921,0.885,0.953,2.342,0.067,3.264
				C376.978,360.08,376.372,360.32,375.764,360.32z"/>
		</g>
		<g>
			<path fill="#4C230D" d="M389.565,348.997c-0.569,0-1.146-0.214-1.593-0.638l-9.279-8.896c-0.925-0.879-0.956-2.336-0.07-3.257
				c0.885-0.927,2.343-0.954,3.26-0.069l9.278,8.891c0.924,0.885,0.956,2.342,0.074,3.263
				C390.783,348.762,390.175,348.997,389.565,348.997z"/>
		</g>
	</g>
</g>
</svg>
