<?xml version="1.0" encoding="utf-8"?>
<!-- Generator: Adobe Illustrator 16.0.0, SVG Export Plug-In . SVG Version: 6.00 Build 0)  -->
<!DOCTYPE svg PUBLIC "-//W3C//DTD SVG 1.1//EN" "http://www.w3.org/Graphics/SVG/1.1/DTD/svg11.dtd">
<svg version="1.1" id="Layer_1" xmlns="http://www.w3.org/2000/svg" xmlns:xlink="http://www.w3.org/1999/xlink" x="0px" y="0px"
	 width="500px" height="500px" viewBox="0 0 500 500" enable-background="new 0 0 500 500" xml:space="preserve">
<g id="Layer_1_copy_10">
	<g>
		<path fill="#241810" d="M125.668,87.465c-8.743,6.782-12.5,14.017-14.774,24.245c-1.891,8.329,0.38,26.515-7.958,32.575
			c-8.327,6.059-15.151-6.44-18.936-12.5c-5.687,25.755,22.729,40.91,43.941,39.395c12.88-0.756,41.855-7.565,40.529-54.17
			C172.382,80.431,135.484,79.847,125.668,87.465z"/>
	</g>
	<g>
		<path fill="#F15A25" d="M182.762,95.864c0,0-9.819-15.511-26.049-8.001c-16.225,7.51-1.571,42.852,5.61,37.682
			C169.508,120.371,191.126,132.847,182.762,95.864z"/>
	</g>
	<g>
		<path fill="#241810" d="M364.679,88.896c8.738,6.784,12.495,14.017,14.774,24.246c1.89,8.33-0.381,26.514,7.952,32.577
			c8.331,6.058,15.154-6.438,18.938-12.499c5.685,25.754-22.727,40.904-43.94,39.395c-12.879-0.761-41.854-7.566-40.533-54.172
			C317.962,81.863,354.857,81.279,364.679,88.896z"/>
	</g>
	<g>
		<path fill="#F15A25" d="M307.585,97.299c0,0,9.816-15.514,26.043-8.003c16.226,7.51,1.575,42.852-5.61,37.681
			C320.836,121.804,299.22,134.282,307.585,97.299z"/>
	</g>
	<g>
		<path fill="#241810" d="M351.741,202.565c-4.319-36.46-17.045-70.279-39.351-99.75c-5.849-7.732-14.183-13.848-22.147-19.652
			c-11.111-8.101-23.245-10.005-36.56-4.228c-4.542,1.971-10.778,2.33-15.556,0.997c-14.147-3.944-26.131-0.882-37.913,7.357
			c-35.037,24.507-54.803,49.886-54.672,100.628c-2.879,114.162,98.488-4.33,95.202-21.214
			c-1.503,1.053-71.722,62.442-73.532,62.442c-6.073,0-10.991-6.632-10.991-14.805c0-8.172,4.918-14.805,10.991-14.805
			c1.684,0,3.263,0.554,4.692,1.472c5.979-36.181,37.994-63.832,76.708-63.832c37.726,0,69.166,26.233,76.284,61.046
			c0.829-0.273,1.694-0.461,2.591-0.461c6.07,0,10.996,6.628,10.996,14.805c0,8.173-4.926,14.801-10.996,14.801
			c-0.834,0-1.634-0.149-2.408-0.384c-3.044,16.18-15.882,18.785-27.612,29.639c-0.66,5.684,14.586-10.773,24.334-11.887
			C351.767,241.316,352.789,211.441,351.741,202.565z"/>
	</g>
	<g>
		<g>
			<path fill="#FCC393" d="M215.862,276.934c0,0,1.53,19.267-8.894,25.381c-10.421,6.115-16.565,80.904-16.565,80.904l125.46,22.745
				l-13.692-82.067l-15.03-25.188c0,0-4.966-8.096-2.173-21.775C287.766,263.251,215.763,265.938,215.862,276.934z"/>
		</g>
		<g>
			<path fill="#281912" d="M319.538,409.691l-132.362-24l0.223-2.719c1.472-17.91,7.124-76.845,18.045-83.259
				c7.189-4.217,7.792-17.704,7.414-22.546l-0.007-0.207c-0.013-1.111,0.318-2.777,1.948-4.423
				c6.179-6.231,27.723-7.899,39.479-7.899c9.813,0,27.053,0.94,32.188,7.235c1.365,1.672,1.868,3.63,1.454,5.662
				c-2.495,12.204,1.621,19.321,1.798,19.614l15.33,25.688l0.096,0.562L319.538,409.691z M193.635,380.743l118.553,21.497
				l-12.891-77.287l-14.744-24.699c-0.207-0.342-5.531-9.244-2.535-23.919c0.029-0.165,0.062-0.312-0.22-0.651
				c-1.971-2.423-11.424-5.02-27.521-5.02c-21.157,0-34.153,4.08-35.391,6.329c0.166,2.685,0.891,21.302-10.396,27.917
				C203.034,308.116,196.637,346.216,193.635,380.743z"/>
		</g>
	</g>
	<g>
		<g>
			<path fill="#FCC393" d="M328.964,196.556c-0.896,0-1.76,0.188-2.593,0.46c-7.121-34.811-38.557-61.045-76.28-61.045
				c-38.716,0-70.73,27.652-76.709,63.828c-1.43-0.915-3.009-1.468-4.691-1.468c-6.076,0-10.997,6.632-10.997,14.805
				c0,8.176,4.921,14.805,10.997,14.805c1.81,0,3.503-0.653,5.011-1.703c6.835,35.155,38.416,61.755,76.39,61.755
				c38.141,0,69.81-26.831,76.463-62.212c0.775,0.229,1.576,0.384,2.41,0.384c6.07,0,10.991-6.632,10.991-14.805
				C339.955,203.184,335.034,196.556,328.964,196.556z"/>
		</g>
		<g>
			<path fill="#281912" d="M250.091,291.009c-37.429,0-69.843-25.202-78.523-60.448c-0.94,0.261-1.904,0.392-2.877,0.392
				c-7.723,0-14.009-7.992-14.009-17.817c0-9.825,6.286-17.817,14.009-17.817c0.817,0,1.625,0.093,2.428,0.277
				c7.831-36.518,40.453-62.637,78.973-62.637c37.387,0,69.967,25.308,78.588,60.588c0.098,0,0.188-0.003,0.285-0.003
				c7.723,0,14.006,7.996,14.006,17.817c0,9.821-6.282,17.813-14.006,17.813c-0.012,0-0.027,0-0.035,0
				C320.765,265.169,288.073,291.009,250.091,291.009z M175.771,221.113l0.887,4.549c6.684,34.373,37.567,59.32,73.433,59.32
				c36.076,0,66.992-25.131,73.5-59.758l0.623-3.301l3.217,0.973c0.559,0.173,1.062,0.253,1.533,0.253
				c4.326,0,7.979-5.395,7.979-11.788c0-6.39-3.653-11.792-7.979-11.792c-0.48,0-1.02,0.104-1.657,0.311l-3.207,1.053l-0.682-3.312
				c-6.949-33.978-37.786-58.637-73.327-58.637c-36.853,0-67.863,25.785-73.736,61.307l-0.744,4.512l-3.851-2.463
				c-5.456-3.493-11.05,2.92-11.055,10.797c0,7.988,5.753,14.489,11.27,10.631L175.771,221.113z"/>
		</g>
	</g>
	<g>
		<path fill="#141211" d="M222.084,211.353c0,5.917-3.832,10.712-8.561,10.712c-4.723,0-8.562-4.795-8.562-10.712
			c0-5.914,3.839-10.709,8.562-10.709C218.252,200.644,222.084,205.439,222.084,211.353z"/>
	</g>
	<g>
		<path fill="#FFFFFA" d="M215.295,211.36c0,2.056-1.549,3.723-3.459,3.723c-1.906,0-3.45-1.667-3.45-3.723
			c0-2.063,1.544-3.73,3.45-3.73C213.746,207.63,215.295,209.297,215.295,211.36z"/>
	</g>
	<g>
		<path fill="#141211" d="M291.846,211.353c0,5.917-3.839,10.712-8.561,10.712c-4.729,0-8.564-4.795-8.564-10.712
			c0-5.914,3.836-10.709,8.564-10.709C288.007,200.644,291.846,205.439,291.846,211.353z"/>
	</g>
	<g>
		<path fill="#FFFFFA" d="M285.057,211.36c0,2.056-1.549,3.723-3.457,3.723c-1.906,0-3.451-1.667-3.451-3.723
			c0-2.063,1.545-3.73,3.451-3.73C283.508,207.63,285.057,209.297,285.057,211.36z"/>
	</g>
	<g>
		<path fill="#834C1F" d="M241.922,230.876c0,0,11.285,1.683,12.842-4.619c1.553-6.301,0-18.627,0-18.627s6.996,9.391,3.5,20.725
			C254.764,239.694,236.535,230.78,241.922,230.876z"/>
	</g>
	<g opacity="0.7">
		<g>
			<path fill="#F9A880" d="M215.295,234.872c0,3.827-4.834,6.924-10.812,6.924c-5.959,0-10.798-3.097-10.798-6.924
				c0-3.835,4.839-6.931,10.798-6.931C210.461,227.94,215.295,231.037,215.295,234.872z"/>
		</g>
	</g>
	<g opacity="0.7">
		<g>
			<path fill="#F9A880" d="M308.748,234.119c0,3.827-4.841,6.928-10.804,6.928c-5.972,0-10.81-3.101-10.81-6.928
				c0-3.831,4.838-6.928,10.81-6.928C303.907,227.191,308.748,230.288,308.748,234.119z"/>
		</g>
	</g>
	<g>
		<path fill="#FFFFFF" d="M227.14,244.735c0,0,5.058,19.74,22.951,18.893c17.89-0.838,24.63-18.893,24.63-18.893
			s-7.904,9.458-24.63,9.458C232.908,254.195,227.14,244.735,227.14,244.735z"/>
	</g>
	<g>
		<path fill="#301E12" d="M201.243,199.069c0,0,3.893-5.46,11.285-4.83c7.392,0.63,8.165,2.102,8.556-1.89
			c0.388-3.989-3.116-4.827-8.556-4.2C207.087,188.778,196.582,200.337,201.243,199.069z"/>
	</g>
	<g>
		<path fill="#301E12" d="M296.484,199.069c0,0-3.889-5.46-11.277-4.83c-7.395,0.63-8.173,2.102-8.562-1.89
			c-0.388-3.989,3.115-4.827,8.562-4.2C290.65,188.778,301.155,200.337,296.484,199.069z"/>
	</g>
	<g>
		<path fill="#F89720" d="M204.9,306.42c0,0-11.185,48.348,39.685,46.719c57.336-1.832,43.511-30.56,44.979-50.373
			c0,0-5.254-0.986,42.438,10.018c47.688,11.004,63.101,24.216,70.434,115.925c3.672,26.414-35.947,19.812-35.947,19.812
			l-237.717,1.579c0,0-33.751,7.958-26.413-29.464C109.698,383.219,105.099,307.342,204.9,306.42z"/>
		<path fill="#281912" d="M121.744,453.819c-8.1,0-14.513-2.593-18.547-7.489c-4.796-5.825-6.067-14.666-3.797-26.273
			c0.945-4.789,1.698-10.317,2.493-16.166c5.407-39.685,13.577-99.652,102.979-100.48c0.837-0.02,1.795,0.406,2.375,1.125
			c0.577,0.72,0.792,1.66,0.588,2.559c-0.046,0.196-4.326,19.586,5.656,32.104c5.802,7.283,15.431,10.972,28.617,10.972
			c0.78,0,1.568-0.017,2.379-0.039c18.908-0.606,31.07-4.153,37.195-10.843c6.103-6.666,5.563-16.143,5.045-25.311
			c-0.195-3.488-0.399-7.091-0.228-10.481c-0.11-0.376-0.146-0.774-0.092-1.177c0.215-1.482,1.498-2.584,2.997-2.584
			c0.185,0,0.529,0.041,0.715,0.076c0.246,0.047,0.48,0.123,0.699,0.219c1.848,0.488,9.709,2.404,41.858,9.82
			c50.728,11.709,65.493,27.789,72.76,118.622c0.871,6.244-0.454,11.542-3.957,15.567c-5.918,6.798-16.784,8.229-24.857,8.229
			c-5.172,0-9.286-0.572-10.362-0.734l-237.155,1.576C128.126,453.306,125.294,453.819,121.744,453.819z M201.327,309.499
			c-80.801,2.289-88.108,55.901-93.466,95.207c-0.81,5.938-1.575,11.545-2.547,16.515c-1.914,9.751-1.061,16.912,2.535,21.283
			c3.601,4.376,9.541,5.289,13.895,5.289c3.585,0,6.317-0.619,6.343-0.626c0.215-0.049,0.446-0.08,0.666-0.08l237.716-1.584
			c0.131,0.021,0.342,0.015,0.516,0.045c0.039,0.007,4.253,0.693,9.641,0.693c6.821,0,15.885-1.069,20.312-6.155
			c2.343-2.692,3.17-6.277,2.516-10.963c-7.347-91.812-22.661-102.913-68.125-113.404c-19.538-4.506-32.721-7.584-38.87-9.074
			c0.017,2.224,0.147,4.563,0.286,6.987c0.562,9.933,1.197,21.183-6.614,29.724c-7.276,7.949-20.833,12.133-41.447,12.789
			c-0.876,0.032-1.729,0.047-2.571,0.047c-15.13,0-26.351-4.465-33.351-13.271C199.771,331.62,200.421,316.46,201.327,309.499z"/>
	</g>
	<g>
		<path fill="#241810" d="M145.544,187.918c-0.131-50.742,19.635-76.122,54.672-100.628c11.782-8.24,23.766-11.302,37.913-7.357
			c4.777,1.333,11.013,0.974,15.555-0.997c13.314-5.777,25.448-3.873,36.561,4.228c7.966,5.804,16.3,11.919,22.147,19.652
			c22.306,29.471,40.934,80.169,39.351,99.75c-24.572-19.208-28.309,0.615-28.309,0.615c-1.417-15.219-23.583-24.668-40.338-38.5
			c4.047,8.13,10.461,14.056,15.058,23.281c-31.19-14.209-56.572-10.982-81.095-31.458c7.781,9.576,15.562,19.143,23.343,28.714
			c-0.453,0.699-0.903,1.402-1.355,2.106c-12.661-8.054-25.323-16.111-36.631-23.316c0,0-25.017,37.091-26.958,39.465
			C177.828,192.049,145.544,187.918,145.544,187.918z"/>
	</g>
	<g>
		<path fill="#F15A25" d="M179.634,308.539c0,0-0.447,62.322,60.382,62.986c60.836,0.673,66.194-15.774,68.867-64.443l-19.318-4.314
			c0,0,16.563,54.385-44.979,50.373c-48.149,4.685-39.685-46.72-39.685-46.72L179.634,308.539z"/>
		<path fill="#281912" d="M243.497,374.562c-0.007,0,0,0-0.007,0c-1.146,0-2.313-0.011-3.504-0.02
			c-63.104-0.695-63.37-65.372-63.365-66.023c0.012-1.562,1.207-2.854,2.758-2.983l25.272-2.12c0.926-0.064,1.828,0.277,2.463,0.96
			c0.626,0.683,0.906,1.615,0.761,2.528c-0.034,0.216-3.382,21.675,7.327,34.265c6.145,7.224,15.977,10.255,29.09,8.972
			c0.166-0.015,0.327-0.015,0.493-0.008c2.089,0.133,4.13,0.203,6.074,0.203c0.004,0,0.007,0,0.007,0
			c15.159,0,25.899-4.119,31.916-12.24c10.081-13.605,3.965-34.244,3.897-34.449c-0.311-1.024-0.057-2.14,0.674-2.929
			c0.728-0.778,1.807-1.124,2.867-0.887l19.318,4.31c1.438,0.325,2.433,1.637,2.351,3.107
			C309.205,356.098,302.605,374.562,243.497,374.562z M182.762,311.302c0.346,5.035,1.701,16.259,7.054,27.359
			c9.426,19.547,26.328,29.591,50.239,29.854c1.164,0.018,2.313,0.02,3.436,0.02c55.088,0,59.71-15.246,62.246-59.076l-12.162-2.707
			c1.438,7.744,2.76,23.165-5.951,34.932c-7.22,9.739-19.585,14.676-36.757,14.676h-0.003c-1.999,0-4.092-0.067-6.229-0.197
			c-15.116,1.421-26.601-2.352-34.039-11.113c-9.66-11.379-9.668-27.923-9.091-35.32L182.762,311.302z"/>
	</g>
	<g>
		<polygon fill="#364A9B" points="181.912,401.15 160.979,401.15 160.979,312.587 181.912,308.438 		"/>
		<path fill="#281912" d="M184.924,404.163h-26.953v-94.046l26.953-5.348V404.163z M163.995,398.139h14.904v-86.033l-14.904,2.957
			V398.139z"/>
	</g>
	<g>
		<polygon fill="#364A9B" points="323.961,403.83 344.886,403.83 344.886,315.201 323.961,311.047 		"/>
		<path fill="#281912" d="M347.902,406.841h-26.955v-99.463l26.955,5.353V406.841z M326.974,400.816h14.904v-83.144l-14.904-2.96
			V400.816z"/>
	</g>
	<g>
		<path fill="#364A9B" d="M341.598,409.202c-0.378-8.485-175.809-14.203-177.318,3.684c-1.307,15.508-1.453,34.593-1.453,34.593
			h178.771C341.598,447.478,341.97,417.682,341.598,409.202z"/>
		<path fill="#281912" d="M344.571,450.49H159.795l0.022-3.033c0-0.188,0.158-19.383,1.461-34.825
			c0.304-3.587,1.226-14.505,87.064-14.505c22.416,0,45.721,0.874,63.945,2.391c32.057,2.67,32.194,5.793,32.318,8.549
			c0.375,8.474,0.019,37.233,0.003,38.451L344.571,450.49z M165.882,444.469h172.737c0.077-7.35,0.247-26.322,0.013-33.994
			c-6.637-3-45.964-6.324-90.289-6.324c-57.113,0-79.771,5.398-81.071,9.035C166.304,424.731,165.978,438.483,165.882,444.469z"/>
	</g>
	<g>
		<circle fill="#EBE016" cx="171.447" cy="409.633" r="14.734"/>
		<path fill="#281912" d="M171.449,427.375c-9.787,0-17.745-7.958-17.745-17.742c0-9.783,7.958-17.744,17.745-17.744
			c9.781,0,17.743,7.961,17.743,17.744C189.192,419.417,181.23,427.375,171.449,427.375z M171.449,397.912
			c-6.462,0-11.723,5.261-11.723,11.722c0,6.459,5.261,11.718,11.723,11.718c6.459,0,11.715-5.259,11.715-11.718
			C183.164,403.172,177.908,397.912,171.449,397.912z"/>
	</g>
	<g>
		<circle fill="#EBE016" cx="334.424" cy="409.633" r="14.731"/>
		<path fill="#281912" d="M334.423,427.375c-9.782,0-17.747-7.958-17.747-17.742c0-9.783,7.965-17.744,17.747-17.744
			c9.783,0,17.744,7.961,17.744,17.744C352.167,419.417,344.206,427.375,334.423,427.375z M334.423,397.912
			c-6.462,0-11.723,5.261-11.723,11.722c0,6.459,5.261,11.718,11.723,11.718c6.464,0,11.719-5.259,11.719-11.718
			C346.142,403.172,340.887,397.912,334.423,397.912z"/>
	</g>
	<g>
		<g>
			<g>
				<ellipse fill="#FAA625" cx="318.124" cy="304.093" rx="9.645" ry="17.117"/>
			</g>
			<g>
				<path fill="#27140E" d="M318.125,321.46c-5.453,0-9.896-7.79-9.896-17.367c0-9.575,4.442-17.37,9.896-17.37
					c5.456,0,9.897,7.795,9.897,17.37C328.022,313.67,323.581,321.46,318.125,321.46z M318.125,287.225
					c-5.181,0-9.396,7.564-9.396,16.868c0,9.302,4.217,16.866,9.396,16.866c5.183,0,9.394-7.564,9.394-16.866
					C327.519,294.79,323.308,287.225,318.125,287.225z"/>
			</g>
		</g>
		<g>
			<g>
				<path fill="#6D7EBE" d="M308.139,352.011c0-12.196,0-24.393,0-36.593c6.852,0,13.705,0,20.557,0c0,11.746,0,24.572,0,36.316
					L308.139,352.011z"/>
			</g>
			<g>
				<path fill="#27140E" d="M308.139,353.758c-0.458,0-0.898-0.179-1.229-0.503c-0.33-0.331-0.517-0.776-0.517-1.243v-36.594
					c0-0.96,0.781-1.742,1.746-1.742h20.557c0.965,0,1.748,0.782,1.748,1.742v36.316c0,0.955-0.769,1.734-1.722,1.742l-20.561,0.28
					C308.152,353.758,308.146,353.758,308.139,353.758z M309.882,317.165v33.079l17.072-0.232v-32.847H309.882L309.882,317.165z"/>
			</g>
		</g>
		<g>
			<g>
				<rect x="227.098" y="377.4" fill="#894620" width="182.747" height="65.684"/>
			</g>
			<g>
				<path fill="#27140E" d="M409.845,444.831H227.098c-0.965,0-1.748-0.782-1.748-1.747V377.4c0-0.965,0.783-1.743,1.748-1.743
					h182.747c0.966,0,1.749,0.778,1.749,1.743v65.684C411.594,444.048,410.811,444.831,409.845,444.831z M228.844,441.337h179.257
					v-62.192H228.844V441.337z"/>
			</g>
		</g>
		<g>
			<g>
				<path fill="#F0516C" d="M246.346,351.9c-12.719-0.541-25.376-1.012-28.554,7.992c0,6.06,0,13.405,0,20.559
					c0,6.842-1.591,15.083,3.381,17.736c7.024,2.69,18.555-11.561,22.885-12.026c17.445-1.853,24.192,13.721,36.555,13.707
					c7.744-0.009,17.149-10.104,27.41-12.562c23.136-5.546,32.96,13.414,49.113,12.562c11.403-0.595,21.056-13.642,31.982-13.707
					c11.997-0.067,22.294,15.996,29.698,13.707c7.399-2.287,6.653-42.97-7.996-47.968C405.211,349.984,246.346,351.9,246.346,351.9z
					"/>
			</g>
			<g>
				<path fill="#27140E" d="M417.299,401.838L417.299,401.838c-3.811,0-7.657-2.87-12.114-6.193
					c-4.863-3.625-10.382-7.737-15.983-7.737h-0.073c-4.998,0.03-9.855,3.153-15.004,6.459c-5.299,3.403-10.777,6.929-16.896,7.247
					c-7.315,0.38-13.232-2.91-19.5-6.403c-6.327-3.528-12.876-7.177-21.44-7.177c-2.528,0-5.172,0.324-7.857,0.969
					c-4.587,1.098-9.079,3.865-13.413,6.543c-5.058,3.117-9.836,6.062-14.403,6.07c-5.987,0-10.575-3.168-15.429-6.526
					c-5.215-3.604-10.608-7.337-18.282-7.337c-0.869,0-1.761,0.053-2.659,0.148c-1.114,0.117-4.045,2.466-6.4,4.354
					c-4.689,3.762-9.999,8.02-14.76,8.02c-0.896,0-1.748-0.155-2.532-0.455c-0.069-0.026-0.136-0.059-0.2-0.088
					c-4.972-2.655-4.695-9.061-4.427-15.252c0.062-1.344,0.124-2.73,0.124-4.026v-20.56c0-0.196,0.029-0.393,0.1-0.576
					c2.919-8.291,12.494-9.41,21.471-9.41c2.926,0,6.018,0.131,8.753,0.246c2.179-0.025,71.653-0.852,119.313-0.852
					c42.932,0,44.866,0.662,45.7,0.945c9.752,3.329,13.979,20.081,13.775,34.24c-0.069,4.606-0.77,15.484-5.829,17.05
					C418.683,401.732,418.003,401.838,417.299,401.838z M389.2,384.418c6.76,0,12.768,4.479,18.069,8.43
					c3.794,2.827,7.374,5.502,10.028,5.502l0,0c0.358,0,0.686-0.052,1-0.146c1.322-0.41,3.242-4.953,3.37-13.767
					c0.099-6.752-0.907-13.815-2.752-19.371c-1.465-4.406-4.156-9.98-8.661-11.516c-1.021-0.281-8.203-0.76-44.571-0.76
					c-48.165,0-118.613,0.841-119.315,0.854c-0.032,0-0.066,0-0.097-0.006c-2.709-0.111-5.786-0.24-8.653-0.24
					c-10.792,0-16.233,2.039-18.082,6.806v20.247c0,1.373-0.062,2.797-0.124,4.183c-0.229,5.286-0.444,10.286,2.486,11.962
					c0.358,0.125,0.75,0.184,1.185,0.184c3.534,0,8.549-4.021,12.575-7.247c3.396-2.726,6.079-4.876,8.22-5.103
					c1.014-0.106,2.031-0.166,3.024-0.166c8.757,0,14.872,4.227,20.269,7.954c4.583,3.171,8.54,5.905,13.425,5.905
					c3.596-0.003,7.963-2.698,12.588-5.549c4.568-2.82,9.302-5.735,14.433-6.967c2.952-0.707,5.871-1.062,8.672-1.062
					c9.472,0,16.733,4.047,23.14,7.619c5.528,3.077,10.747,5.984,16.652,5.984c0.318,0,0.641-0.008,0.968-0.025
					c5.192-0.27,10.274-3.534,15.189-6.693c5.337-3.431,10.857-6.978,16.873-7.011L389.2,384.418L389.2,384.418z"/>
			</g>
		</g>
		<g>
			<g>
				<path fill="#623214" d="M409.845,409.081c0,13.707,0,27.413,0,41.117c5.978,1.646,13.333,1.895,17.133,5.71
					c2.207,4.266,2.727,10.22,2.287,17.134c-73.86,0-147.724,0-221.584,0c-2.106-15.812,4.252-23.157,19.418-21.703
					c0-14.465,0-28.931,0-43.401c9.36-4.426,14.708-7.021,23.983-5.709c9.592,1.354,16.938,9.731,26.271,10.277
					c14.664,0.868,27.83-11.705,43.403-10.277c15.335,1.401,20.464,11.701,37.69,10.277
					C374.587,411.175,392.069,392.739,409.845,409.081z"/>
			</g>
			<g>
				<path fill="#27140E" d="M429.265,474.786H207.68c-0.877,0-1.614-0.646-1.729-1.514c-1.114-8.378,0.096-14.647,3.6-18.647
					c3.024-3.458,7.72-5.21,13.952-5.21c0.6,0,1.215,0.017,1.848,0.051v-41.528c0-0.672,0.393-1.289,1.003-1.576l0.339-0.161
					c7.715-3.65,12.813-6.058,19.811-6.058c1.545,0,3.12,0.117,4.826,0.356c4.93,0.699,9.207,3.077,13.35,5.374
					c4.279,2.384,8.329,4.631,12.779,4.893c0.443,0.026,0.902,0.041,1.355,0.041c6.229,0,12.223-2.427,18.564-4.994
					c6.622-2.674,13.461-5.442,20.885-5.442c0.888,0,1.778,0.041,2.65,0.12c7.078,0.65,12.042,3.087,16.842,5.445
					c5.198,2.545,10.113,4.961,17.514,4.961h0.005c0.976,0,2.002-0.043,3.03-0.129c4.922-0.404,10.029-2.511,15.436-4.744
					c6.451-2.659,13.119-5.405,20.02-5.405c6.362,0,12.016,2.348,17.269,7.183c0.359,0.326,0.567,0.795,0.567,1.281v39.762
					c1.245,0.299,2.557,0.558,3.834,0.812c4.759,0.933,9.68,1.898,12.789,5.024c0.126,0.124,0.234,0.27,0.314,0.432
					c2.172,4.198,2.98,10.104,2.474,18.044C430.944,474.075,430.188,474.786,429.265,474.786z M209.23,471.297h218.378
					c0.263-6.298-0.414-11.004-2.056-14.34c-2.396-2.229-6.667-3.071-10.802-3.886c-1.782-0.349-3.63-0.713-5.367-1.189
					c-0.759-0.208-1.284-0.896-1.284-1.685v-40.338c-4.418-3.867-9.117-5.756-14.343-5.756c-6.209,0-12.555,2.619-18.688,5.149
					c-5.415,2.229-11.013,4.542-16.479,4.992c-1.128,0.091-2.242,0.144-3.317,0.144h-0.006c-8.21,0-13.721-2.705-19.05-5.324
					c-4.722-2.32-9.188-4.516-15.623-5.099c-0.765-0.071-1.548-0.108-2.332-0.108c-6.739,0-13.265,2.641-19.578,5.188
					c-6.369,2.58-12.968,5.246-19.871,5.246c-0.521,0-1.049-0.013-1.563-0.044c-5.241-0.309-9.833-2.862-14.271-5.326
					c-4.035-2.242-7.852-4.361-12.14-4.967c-1.544-0.221-2.963-0.326-4.338-0.326c-6.024,0-10.735,2.141-17.658,5.415v42.294
					c0,0.494-0.212,0.963-0.577,1.296c-0.361,0.331-0.85,0.493-1.339,0.446c-6.953-0.674-11.933,0.623-14.754,3.843
					C209.562,459.909,208.574,464.738,209.23,471.297z"/>
			</g>
		</g>
		<g>
			<g>
				<path fill="#4E4E4E" d="M227.233,451.338c-15.167-1.454-21.523,5.893-19.417,21.703c73.859,0,147.721,0,221.583,0
					c0.441-6.914-0.073-12.868-2.281-17.134c-3.802-3.815-11.164-4.064-17.137-5.71L227.233,451.338z"/>
			</g>
			<g>
				<path fill="#27140E" d="M429.399,474.786H207.816c-0.875,0-1.617-0.646-1.731-1.514c-1.115-8.378,0.099-14.649,3.604-18.647
					c3.589-4.103,9.499-5.793,17.621-5.028l182.662-1.142c0.166-0.005,0.32,0.019,0.475,0.064c1.611,0.442,3.396,0.791,5.116,1.135
					c4.762,0.933,9.686,1.898,12.788,5.024c0.126,0.126,0.23,0.27,0.315,0.432c2.175,4.198,2.985,10.1,2.474,18.044
					C431.081,474.075,430.321,474.786,429.399,474.786z M209.366,471.297h218.381c0.262-6.298-0.414-11.004-2.056-14.34
					c-2.398-2.229-6.666-3.071-10.803-3.886c-1.705-0.333-3.465-0.68-5.133-1.124l-182.518,1.142c-0.058,0-0.113-0.005-0.173-0.009
					c-6.953-0.674-11.938,0.623-14.757,3.843C209.699,459.909,208.709,464.738,209.366,471.297z"/>
			</g>
		</g>
		<g>
			<g>
				<path fill="#FDD71E" d="M315.831,265.242c14.666,6.963,33.705,40.053,7.995,47.973c7.696-6.447-0.076-18.175-5.714-21.701
					c-1.226,5.629-6.12,7.584-7.996,12.563c-0.875,5.448,1.614,7.524,4.573,9.138c-9.266,0.062-15.696-9.414-14.854-18.273
					C300.922,283.578,318.135,277.85,315.831,265.242z"/>
			</g>
			<g>
				<path fill="#27140E" d="M314.6,314.961c-4.324,0-8.417-1.878-11.521-5.294c-3.627-3.983-5.483-9.556-4.979-14.894
					c0.554-5.731,4.611-10.008,8.533-14.146c4.416-4.647,8.585-9.036,7.479-15.071c-0.115-0.643,0.139-1.3,0.655-1.695
					c0.52-0.403,1.221-0.477,1.811-0.194c10.575,5.019,22.57,21.881,21.603,35.299c-0.392,5.438-3.11,12.615-13.836,15.921
					c-0.795,0.241-1.651-0.109-2.048-0.84c-0.396-0.727-0.224-1.637,0.411-2.171c1.914-1.599,2.754-3.61,2.578-6.147
					c-0.296-4.291-3.428-8.775-6.286-11.347c-0.987,2.202-2.463,3.847-3.808,5.345c-1.354,1.515-2.637,2.94-3.374,4.804
					c-0.652,4.393,1.207,5.79,3.709,7.153c0.697,0.381,1.048,1.188,0.854,1.959c-0.195,0.774-0.888,1.312-1.683,1.318H314.6
					L314.6,314.961z M317.76,268.354c-0.374,6.021-4.703,10.582-8.597,14.68c-3.681,3.876-7.153,7.535-7.588,12.074
					c-0.42,4.373,1.11,8.941,4.084,12.213c0.982,1.082,2.086,1.968,3.273,2.641c-0.688-1.568-0.958-3.561-0.539-6.16
					c0.021-0.115,0.052-0.227,0.091-0.333c0.959-2.561,2.558-4.343,4.106-6.067c1.667-1.859,3.242-3.621,3.819-6.256
					c0.118-0.557,0.502-1.019,1.024-1.238c0.522-0.223,1.121-0.172,1.603,0.129c4.45,2.79,9.307,9.324,9.729,15.453
					c0.088,1.332-0.029,2.603-0.353,3.783c3.843-2.428,5.951-5.961,6.282-10.554C335.464,288.042,326.544,274.206,317.76,268.354z"
					/>
			</g>
		</g>
	</g>
</g>
</svg>
