<?xml version="1.0" encoding="utf-8"?>
<!-- Generator: Adobe Illustrator 16.0.0, SVG Export Plug-In . SVG Version: 6.00 Build 0)  -->
<!DOCTYPE svg PUBLIC "-//W3C//DTD SVG 1.1//EN" "http://www.w3.org/Graphics/SVG/1.1/DTD/svg11.dtd">
<svg version="1.1" id="Layer_1" xmlns="http://www.w3.org/2000/svg" xmlns:xlink="http://www.w3.org/1999/xlink" x="0px" y="0px"
	 width="500px" height="500px" viewBox="0 0 500 500" enable-background="new 0 0 500 500" xml:space="preserve">
<g id="Layer_1_copy_68">
	<g>
		<g>
			<path fill="#EE2E7C" d="M375.979,151.541l-23.515-1.862l3.938,19.275c0,0,63.033,13.788,78.931,148.407
				c15.898,134.62-121.455,109.867-121.455,109.867c-155.739-41.567-168.439-206.8-172.636-246.917
				c-4.028-38.562,35.247-97.729,114.893-68.869c90.654,48.82,49.751,245.006-33.581,286.62
				c-83.336,41.618-108.674-6.24-126.792-64.815c-18.123-58.567,17.026-175.885,17.026-175.885l5.117-27.632l-21.268,22.613
				c0,0-30.684,122.009-21.479,177.522c9.204,55.507,33.754,90.793,86.557,97.203c52.8,6.404,93.951-31.112,95.712-35.685
				c1.767-4.571,96.438-96.446,54.076-240.259c-27.187-56.559-70.843-64.351-99.583-64.521
				c-28.743-0.169-91.928,19.565-88.473,91.352c3.46,71.788,31.042,184.97,131.397,242.724c0,0,109.009,67.626,172.82-8.511
				c60.65-72.358,2.959-195.595-6.901-212.491C410.902,182.788,375.979,151.541,375.979,151.541z"/>
			<path fill="#3C2517" d="M348.33,452.443c-49.45,0-93.775-27.145-95.637-28.303c-5.548-3.188-11.1-6.689-16.438-10.377
				c-14.371,8.58-36.229,18.115-62.369,18.115c-4.229,0-8.484-0.253-12.665-0.766c-51.11-6.202-79.738-38.168-90.088-100.582
				c-9.231-55.707,20.293-174.168,21.554-179.186c0.165-0.673,0.503-1.292,0.988-1.798l21.259-22.613
				c1.239-1.318,3.199-1.66,4.814-0.845c1.612,0.821,2.497,2.604,2.166,4.385l-5.116,27.628c-0.025,0.145-0.059,0.288-0.1,0.427
				c-0.352,1.161-34.584,116.805-17.039,173.511c14.419,46.604,31.541,77.645,68.242,77.645c0,0,0.004,0,0.012,0
				c13.338,0,29.141-4.195,47.04-12.49c-79.987-69.871-93.51-176.037-95.581-219.043c-1.298-26.922,6.254-49.19,22.45-66.18
				c19.387-20.342,48.992-29.448,69.729-29.448h0.393c47.322,0.279,82.055,22.762,103.236,66.834
				c0.096,0.201,0.173,0.405,0.235,0.614c25.322,85.954,7.436,168.949-51.72,240.008c-1.111,1.338-2.262,2.72-2.611,3.22
				c-0.73,1.536-2.496,3.505-4.372,5.327c17.411,10.752,36.91,19.061,58.037,24.715c1.29,0.22,10.567,1.701,23.265,1.701
				c23.21-0.004,55.111-4.766,75.285-27.459c16.039-18.047,22.095-44.849,17.982-79.645
				c-15.379-130.228-75.148-144.768-75.749-144.902c-1.578-0.345-2.801-1.584-3.127-3.167l-3.938-19.276
				c-0.258-1.256,0.094-2.556,0.941-3.517c0.851-0.961,2.096-1.483,3.376-1.368l23.516,1.866c0.896,0.07,1.737,0.43,2.402,1.023
				c1.445,1.298,35.514,31.876,45.582,49.124c16.349,28.008,65.365,146.945,6.505,217.166
				C409.853,439.773,382.104,452.443,348.33,452.443z M243.719,408.969c4.286,2.865,8.691,5.598,13.164,8.172
				c0.553,0.34,44.375,27.146,91.447,27.146c31.25,0,56.891-11.688,76.211-34.737c63.253-75.467-6.555-206.535-7.303-207.811
				c-8.497-14.569-37.192-40.992-42.962-46.241l-16.729-1.325l2.363,11.561c12.577,4.26,65.068,29.179,79.475,151.15
				c4.396,37.212-2.329,66.152-19.989,86.021c-22.181,24.958-56.501,30.192-81.381,30.197c-14.411,0-24.441-1.78-24.862-1.855
				c-0.107-0.021-0.222-0.045-0.327-0.073c-22.839-6.093-43.861-15.19-62.547-27.051
				C248.22,405.758,246.017,407.389,243.719,408.969z M100.344,154.358c-2.912,11.882-29.678,123.458-21.155,174.839
				c9.661,58.303,36.043,88.119,83.021,93.819c3.848,0.47,7.783,0.702,11.677,0.702c22.512,0,41.701-7.66,55.099-15.176
				c-2.422-1.811-4.815-3.674-7.166-5.574c-20.627,10.006-38.288,14.874-53.905,14.879h-0.012c-44.151,0-62.634-40.08-76.033-83.396
				c-7.712-24.917-7.175-62.539,1.596-111.827c6.195-34.814,14.535-63.446,15.353-66.219l2.55-13.764L100.344,154.358z
				 M229.705,398.82c2.243,1.761,4.525,3.479,6.831,5.15c2.521-1.65,4.719-3.214,6.571-4.613c-2.267-1.573-4.501-3.198-6.691-4.856
				C234.205,396.05,231.965,397.498,229.705,398.82z M243.152,389.352c2.137,1.582,4.31,3.119,6.509,4.608
				c2.491-2.272,3.795-3.812,4.067-4.278c0.313-0.854,1.099-1.799,3.697-4.922c57.258-68.781,74.633-149.055,50.256-232.163
				c-20-41.402-51.338-61.653-95.788-61.913h-0.343c-14.176,0-43.576,5.668-63.823,26.916
				c-14.594,15.312-21.393,35.555-20.21,60.163c2.046,42.412,15.453,147.764,95.387,215.514c2.314-1.243,4.574-2.603,6.803-4.073
				c-77.831-64.213-88.593-169.901-92.168-205.047l-0.352-3.425c-1.958-18.744,5.538-40.062,19.574-55.639
				c10.436-11.582,29.203-25.394,59.32-25.394c13.015,0,26.958,2.66,41.439,7.908c0.188,0.072,0.373,0.149,0.545,0.244
				c30.703,16.535,49.5,51.126,52.922,97.396C316.081,274.025,286.525,353.45,243.152,389.352z M216.083,107.858
				c-27.113,0-43.931,12.345-53.263,22.694c-12.529,13.913-19.246,32.815-17.522,49.336l0.359,3.441
				c3.514,34.551,14.143,138.968,90.861,200.901c42.313-33.713,71.31-111.197,66.333-178.381
				c-3.197-43.263-20.378-75.448-48.392-90.671C240.975,110.319,228.06,107.858,216.083,107.858z"/>
		</g>
		<g>
			<path fill="#9E2064" d="M162.652,77.378c1.141-9.58-21.016-27.57-37.214-12.116c-17.685,38.961-33.562,86.208-33.562,86.208
				s25.728,9.679,26.752,9.181C132.267,154.053,161.511,86.954,162.652,77.378z"/>
			<path fill="#3C2517" d="M118.505,164.748L118.505,164.748c-0.798,0-2.918,0-28.062-9.463c-2.06-0.769-3.134-3.033-2.436-5.114
				c0.162-0.473,16.148-47.89,33.722-86.597c0.214-0.477,0.521-0.904,0.897-1.264c4.913-4.685,10.855-7.16,17.188-7.16
				c9.405,0,17.47,5.302,21.878,10.264c3.69,4.157,5.473,8.578,5.01,12.443c-1.202,10.075-30.86,78.993-46.297,86.465
				C119.853,164.591,119.12,164.748,118.505,164.748z M97.025,149.036c8.745,3.25,17.615,6.402,20.84,7.328
				c11.84-8.479,39.519-69.27,40.735-79.47c0.137-1.174-0.738-3.504-3.012-6.064c-3.079-3.47-9.063-7.52-15.774-7.52
				c-4.026,0-7.725,1.475-10.994,4.387C114.396,99.597,101.101,137.233,97.025,149.036z"/>
		</g>
		<g>
			<path fill="#D91F5D" d="M101.414,161.225c-7.695-3.206-11.839-9.141-9.258-13.255c2.588-4.119,10.916-4.864,18.611-1.663
				c7.7,3.203,11.841,9.138,9.258,13.255C117.446,163.68,109.115,164.427,101.414,161.225z"/>
			<path fill="#3C2517" d="M110.946,167.287c-3.639,0-7.478-0.794-11.098-2.298c-6.104-2.54-10.604-6.743-12.039-11.243
				c-0.889-2.792-0.57-5.611,0.896-7.942c2.215-3.536,6.786-5.563,12.535-5.563c3.637,0,7.473,0.796,11.093,2.3
				c6.108,2.539,10.609,6.743,12.044,11.243c0.888,2.786,0.573,5.613-0.893,7.948C121.269,165.264,116.698,167.287,110.946,167.287z
				 M101.241,148.401c-3.12,0-5.1,0.897-5.625,1.738c-0.087,0.13-0.265,0.414-0.033,1.13c0.57,1.784,3.075,4.387,7.398,6.187
				c2.599,1.079,5.425,1.671,7.965,1.671c3.118,0,5.104-0.896,5.624-1.731c0.087-0.136,0.264-0.419,0.033-1.136
				c-0.571-1.784-3.076-4.388-7.399-6.186C106.606,148.995,103.779,148.401,101.241,148.401z"/>
		</g>
		<g>
			<path fill="#9E2064" d="M319.954,81.242c-9.278-5.952-39.833-0.483-32.617,18.962c30.711,33.166,70.95,69.571,70.95,69.571
				s23.896-12.409,23.94-13.38C382.772,143.481,329.237,87.194,319.954,81.242z"/>
			<path fill="#3C2517" d="M358.287,173.854c-0.984,0-1.972-0.36-2.732-1.056c-0.404-0.363-40.729-36.905-71.209-69.826
				c-0.365-0.388-0.65-0.851-0.834-1.353c-2.804-7.551-0.717-12.984,1.531-16.215c5.405-7.772,16.693-10.526,24.72-10.526
				c5.047,0,9.451,1.042,12.395,2.93c7.75,4.974,64.824,62.667,64.15,78.756c-0.129,2.829-0.148,3.335-26.137,16.827
				C359.572,173.704,358.927,173.854,358.287,173.854z M290.911,98.055c26.183,28.204,59.432,58.922,68.02,66.785
				c7.686-4.024,15.564-8.286,18.93-10.313c-4.056-12.872-48.982-62.713-60.108-69.852c-1.595-1.027-4.583-1.639-7.988-1.639
				c-6.327,0-14.664,2.196-18.02,7.026C290.184,92.298,289.911,94.917,290.911,98.055z"/>
		</g>
		<g>
			<path fill="#D91F5D" d="M373.524,168.5c-7.47,3.55-15.843,3.182-18.697-0.81c-2.86-3.995,0.872-10.105,8.332-13.655
				c7.469-3.546,15.838-3.178,18.697,0.812C384.717,158.841,380.989,164.954,373.524,168.5z"/>
			<path fill="#3C2517" d="M363.246,175.02c-5.278,0-9.447-1.763-11.737-4.951c-1.634-2.286-2.128-5.124-1.389-7.983
				c1.178-4.549,5.394-8.931,11.29-11.73c3.845-1.833,8.114-2.837,12.022-2.837c5.282,0,9.447,1.761,11.736,4.957
				c1.639,2.277,2.133,5.115,1.39,7.983c-1.174,4.542-5.39,8.925-11.282,11.729C371.429,174.014,367.156,175.02,363.246,175.02z
				 M373.434,155.674c-2.724,0-5.749,0.727-8.521,2.05c-4.124,1.959-6.432,4.627-6.889,6.4c-0.199,0.756,0.016,1.05,0.118,1.19
				c0.51,0.717,2.158,1.548,5.104,1.548c2.724,0,5.753-0.725,8.525-2.045c4.121-1.961,6.431-4.627,6.89-6.404
				c0.195-0.749-0.017-1.045-0.124-1.186C378.03,156.508,376.385,155.674,373.434,155.674z"/>
		</g>
		<g>
			<path fill="#EE2E7C" d="M229.451,389.049c0,0,17.322,13.438,23.253,16.424c5.931,2.989-4.901,6.406-4.901,6.406
				s-21.268-14.727-26.63-20.398C215.81,385.811,229.451,389.049,229.451,389.049z"/>
		</g>
	</g>
</g>
</svg>
