<?xml version="1.0" encoding="utf-8"?>
<!-- Generator: Adobe Illustrator 16.0.0, SVG Export Plug-In . SVG Version: 6.00 Build 0)  -->
<!DOCTYPE svg PUBLIC "-//W3C//DTD SVG 1.1//EN" "http://www.w3.org/Graphics/SVG/1.1/DTD/svg11.dtd">
<svg version="1.1" id="Layer_1" xmlns="http://www.w3.org/2000/svg" xmlns:xlink="http://www.w3.org/1999/xlink" x="0px" y="0px"
	 width="500px" height="500px" viewBox="0 0 500 500" enable-background="new 0 0 500 500" xml:space="preserve">
<g id="Layer_1_copy_89">
	<g>
		<g>
			<path fill="#29AAE1" d="M191.426,267.715c0,0-98.603,54.036-122.917,61.469c-24.314,7.43-39.173-2.703-41.195,17.558
				c0,0,0.671,61.461,82.056,49.309c70.582-22.29,213.77-101.987,213.77-101.987s104.687-44.583,129-91.184
				c24.315-46.604-37.819-63.492-54.032-58.765c-16.207,4.729-36.187,29.922-48.631,38.502
				C339.093,189.777,191.426,267.715,191.426,267.715z"/>
			<path fill="#3C2517" d="M89.303,401.23c0,0,0,0-0.007,0c-64.238,0-65.575-53.899-65.579-54.446
				c-0.003-0.136,0.004-0.265,0.015-0.398c1.622-16.155,11.289-16.726,22.487-17.381c6.122-0.354,13.062-0.761,21.24-3.261
				c23.687-7.235,121.264-60.643,122.248-61.18c51.054-26.949,149.654-79.333,157.732-84.911c4.21-2.899,9.584-8.055,15.267-13.512
				c10.849-10.401,23.14-22.188,34.396-25.475c2.069-0.601,4.64-0.908,7.644-0.908c15.032,0,41.011,7.923,51.692,25.543
				c4.746,7.833,8.407,20.997-1.109,39.235c-10.399,19.942-35.637,41.648-75.002,64.514c-27.815,16.163-53.236,27.219-55.602,28.242
				c-5.599,3.104-145.222,80.381-214.271,102.184c-0.184,0.053-0.367,0.097-0.552,0.121
				C102.652,400.684,95.723,401.23,89.303,401.23z M30.906,346.887c0.111,3.672,2.609,47.158,58.39,47.158h0.007
				c5.983,0,12.461-0.509,19.252-1.513c69.527-22.036,211.409-100.819,212.833-101.613c0.112-0.062,0.224-0.114,0.343-0.166
				c1.033-0.438,103.784-44.613,127.224-89.539c6.399-12.265,6.844-23.09,1.336-32.182c-9.135-15.069-32.575-22.085-45.545-22.085
				c-2.894,0-4.653,0.334-5.631,0.62c-9.563,2.792-21.178,13.931-31.429,23.763c-5.901,5.661-11.479,11.012-16.164,14.247
				c-10.439,7.199-152.374,82.129-158.409,85.319c-3.995,2.184-99.163,54.271-123.551,61.722c-9.005,2.751-16.719,3.2-22.92,3.565
				C35.687,336.826,31.944,337.044,30.906,346.887z"/>
		</g>
		<g>
			<path fill="#3C2517" d="M208.909,357.152c-0.782,0-1.561-0.256-2.204-0.76l-72.625-56.431c-1.571-1.219-1.859-3.479-0.633-5.043
				c1.214-1.565,3.467-1.854,5.037-0.635l70.83,55.03l67.002-34.18l-71.782-52.564c-1-0.729-1.556-1.924-1.464-3.158
				c0.089-1.234,0.809-2.335,1.896-2.915l63.032-33.484c1.163-0.621,2.572-0.554,3.676,0.18l81.896,54.384
				c1.652,1.097,2.102,3.33,1.008,4.983c-1.101,1.652-3.329,2.101-4.984,1.006l-80.113-53.202l-56.079,29.792l71.872,52.629
				c1.006,0.734,1.559,1.941,1.457,3.189c-0.1,1.242-0.838,2.346-1.947,2.909l-74.239,37.873
				C210.026,357.021,209.468,357.152,208.909,357.152z"/>
		</g>
		<g>
			<path fill="#2075BC" d="M194.379,323.466l15.687,11.417c0,0,7.056-20.438,34.659-18.224l-17.209-13.576
				C227.516,303.083,206.756,300.062,194.379,323.466z"/>
			<path fill="#3C2517" d="M210.054,338.473c-0.75,0-1.49-0.232-2.104-0.684l-15.685-11.418c-1.448-1.055-1.899-3.01-1.064-4.585
				c13.452-25.435,36.269-22.339,36.835-22.261c0.621,0.088,1.212,0.344,1.709,0.731l17.209,13.578
				c1.242,0.981,1.697,2.66,1.118,4.138c-0.582,1.475-2.055,2.389-3.634,2.266c-1.296-0.104-2.574-0.152-3.803-0.152
				c-21.21,0-26.948,15.336-27.181,15.989c-0.379,1.065-1.245,1.901-2.333,2.233C210.773,338.417,210.409,338.473,210.054,338.473z
				 M199.098,322.452l9.642,7.022c3.244-5.422,10.768-14.312,25.878-16.211l-8.477-6.693c-0.275-0.012-0.608-0.021-0.988-0.021
				C220.111,306.55,207.917,308.165,199.098,322.452z"/>
		</g>
		<g>
			<path fill="#2075BC" d="M300.337,269.805l16.547,10.137c0,0,5.405-20.939,33.094-20.939l-18.233-12.162
				C331.743,246.839,310.806,245.491,300.337,269.805z"/>
			<path fill="#3C2517" d="M316.884,283.534c-0.649,0-1.302-0.177-1.876-0.525l-16.548-10.141c-1.522-0.933-2.133-2.843-1.425-4.484
				c10.309-23.938,30.226-25.148,34.118-25.148c0.531,0,0.825,0.021,0.825,0.021c0.617,0.041,1.241,0.25,1.756,0.591l18.239,12.164
				c1.316,0.877,1.903,2.516,1.447,4.027c-0.464,1.518-1.861,2.555-3.444,2.555c-24.619,0-29.564,18.063-29.614,18.246
				c-0.283,1.102-1.072,2.008-2.13,2.432C317.8,283.448,317.345,283.534,316.884,283.534z M304.952,268.421l10.239,6.265
				c2.863-5.645,9.743-15.134,24.46-18.248l-9.004-6.006C326.831,250.547,313.292,252.148,304.952,268.421z"/>
		</g>
		<g>
			<path fill="#2075BC" d="M269.684,247.12l16.547,10.133c0,0,5.404-20.939,33.099-20.939l-18.236-12.152
				C301.092,224.162,280.152,222.81,269.684,247.12z"/>
			<path fill="#3C2517" d="M286.221,260.842c-0.647,0-1.296-0.18-1.863-0.525l-16.553-10.13c-1.521-0.932-2.128-2.847-1.423-4.491
				c10.312-23.929,30.226-25.146,34.112-25.146c0.536,0,0.827,0.023,0.827,0.023c0.621,0.046,1.245,0.251,1.764,0.597l18.234,12.153
				c1.317,0.882,1.904,2.519,1.443,4.038c-0.455,1.515-1.854,2.546-3.436,2.546c-24.406,0-29.422,17.515-29.62,18.262
				c-0.295,1.092-1.096,1.994-2.145,2.412C287.131,260.753,286.675,260.842,286.221,260.842z M274.307,245.736l10.229,6.262
				c2.872-5.644,9.747-15.128,24.464-18.249l-9.005-6C296.178,227.864,282.634,229.461,274.307,245.736z"/>
		</g>
		<g>
			<path fill="#2075BC" d="M166.563,303.549l16.552,10.131c0,0,5.401-20.937,33.093-20.937l-18.239-12.157
				C197.969,280.586,177.036,279.234,166.563,303.549z"/>
			<path fill="#3C2517" d="M183.115,317.273c-0.66,0-1.307-0.18-1.877-0.529l-16.552-10.128c-1.524-0.937-2.133-2.849-1.428-4.488
				c10.315-23.94,30.225-25.149,34.113-25.149c0.539,0,0.83,0.02,0.83,0.02c0.617,0.045,1.245,0.253,1.766,0.6l18.231,12.156
				c1.315,0.88,1.905,2.516,1.445,4.028c-0.456,1.521-1.854,2.556-3.437,2.556c-24.624,0-29.568,18.061-29.619,18.239
				c-0.283,1.106-1.076,2.008-2.13,2.437C184.026,317.189,183.571,317.273,183.115,317.273z M171.188,302.165l10.226,6.262
				c2.869-5.642,9.749-15.132,24.465-18.249l-9.011-6.003C193.054,284.29,179.515,285.893,171.188,302.165z"/>
		</g>
	</g>
</g>
</svg>
