<?xml version="1.0" encoding="utf-8"?>
<!-- Generator: Adobe Illustrator 16.0.0, SVG Export Plug-In . SVG Version: 6.00 Build 0)  -->
<!DOCTYPE svg PUBLIC "-//W3C//DTD SVG 1.1//EN" "http://www.w3.org/Graphics/SVG/1.1/DTD/svg11.dtd">
<svg version="1.1" id="Layer_1" xmlns="http://www.w3.org/2000/svg" xmlns:xlink="http://www.w3.org/1999/xlink" x="0px" y="0px"
	 width="500px" height="500px" viewBox="0 0 500 500" enable-background="new 0 0 500 500" xml:space="preserve">
<g id="Layer_1_copy_3">
	<g>
		<g>
			<path fill="#2252A4" d="M244.23,474.729c-5.34,0-9.669-4.325-9.669-9.666V29.487c0-5.339,4.329-9.668,9.669-9.668
				c5.338,0,9.672,4.33,9.672,9.668v435.576C253.902,470.403,249.568,474.729,244.23,474.729z"/>
		</g>
		<g>
			<path fill="#2252A4" d="M244.23,122.539c-0.087,0-0.174,0-0.264-0.003c-2.655-0.071-5.163-1.234-6.934-3.21l-57.057-63.63
				c-3.564-3.977-3.23-10.09,0.742-13.656c3.98-3.569,10.092-3.233,13.659,0.744l50.236,56.028L301.027,42.4
				c3.778-3.773,9.899-3.775,13.677,0.002c3.773,3.777,3.773,9.899,0,13.676l-63.642,63.629
				C249.253,121.523,246.792,122.539,244.23,122.539z"/>
		</g>
		<g>
			<path fill="#2252A4" d="M187.174,453.338c-2.298,0-4.606-0.818-6.455-2.469c-3.973-3.57-4.307-9.687-0.742-13.658l57.057-63.629
				c1.771-1.982,4.278-3.143,6.934-3.211c2.628-0.104,5.224,0.943,7.099,2.83l63.642,63.628c3.774,3.771,3.774,9.901,0,13.674
				c-3.776,3.778-9.897,3.778-13.677,0l-56.415-56.412l-50.236,56.03C192.465,452.25,189.826,453.338,187.174,453.338z"/>
		</g>
		<g>
			<path fill="#2252A4" d="M428.471,378.166c-1.799,0-3.622-0.507-5.248-1.553L57.715,139.69c-4.483-2.905-5.758-8.892-2.854-13.375
				c2.905-4.48,8.889-5.762,13.375-2.854l365.504,236.92c4.482,2.905,5.763,8.896,2.855,13.375
				C434.746,376.613,431.64,378.166,428.471,378.166z"/>
		</g>
		<g>
			<path fill="#2252A4" d="M48.503,199.863c-4.68,0-8.791-3.402-9.541-8.171c-0.827-5.274,2.778-10.225,8.055-11.054l74.344-11.676
				l-16.654-78.028c-1.116-5.224,2.213-10.362,7.44-11.477c5.228-1.107,10.358,2.219,11.475,7.44l18.783,88.016
				c0.555,2.598,0.018,5.308-1.49,7.499c-1.505,2.188-3.841,3.661-6.466,4.073l-84.434,13.261
				C49.509,199.825,49.002,199.863,48.503,199.863z"/>
		</g>
		<g>
			<path fill="#2252A4" d="M379.488,414.4c-4.256,0-8.16-2.836-9.324-7.143l-22.364-82.48c-0.697-2.565-0.309-5.305,1.078-7.571
				c1.383-2.267,3.641-3.86,6.236-4.416l88.007-18.791c5.229-1.108,10.362,2.213,11.476,7.435
				c1.116,5.228-2.212,10.364-7.436,11.481l-78.023,16.653l19.69,72.629c1.396,5.15-1.649,10.463-6.802,11.863
				C381.177,414.29,380.325,414.4,379.488,414.4z"/>
		</g>
		<g>
			<path fill="#2252A4" d="M73.645,386.95c-2.981,0-5.922-1.372-7.814-3.959c-3.151-4.312-2.212-10.365,2.102-13.513
				l351.661-257.031c4.311-3.149,10.361-2.212,13.515,2.101c3.149,4.312,2.211,10.362-2.102,13.515L79.344,385.092
				C77.624,386.348,75.628,386.95,73.645,386.95z"/>
		</g>
		<g>
			<path fill="#2252A4" d="M123.254,421.362c-0.666,0-1.338-0.069-2.014-0.215c-5.225-1.104-8.563-6.241-7.458-11.462l15.598-73.621
				l-78.835-12.258c-5.279-0.817-8.892-5.762-8.07-11.037c0.822-5.276,5.752-8.918,11.041-8.07l88.931,13.824
				c2.62,0.401,4.964,1.871,6.469,4.062c1.511,2.184,2.052,4.896,1.505,7.495l-17.716,83.61
				C131.74,418.241,127.727,421.362,123.254,421.362z"/>
		</g>
		<g>
			<path fill="#2252A4" d="M441.69,188.613c-0.322,0-0.646-0.016-0.976-0.049l-85.029-8.511c-2.643-0.263-5.062-1.603-6.688-3.704
				s-2.312-4.777-1.907-7.402l13.819-88.931c0.816-5.276,5.751-8.892,11.038-8.07c5.275,0.821,8.893,5.764,8.069,11.042
				l-12.248,78.839l74.871,7.493c5.315,0.531,9.191,5.272,8.661,10.586C450.8,184.892,446.599,188.613,441.69,188.613z"/>
		</g>
	</g>
</g>
</svg>
