<?xml version="1.0" encoding="utf-8"?>
<!-- Generator: Adobe Illustrator 16.0.0, SVG Export Plug-In . SVG Version: 6.00 Build 0)  -->
<!DOCTYPE svg PUBLIC "-//W3C//DTD SVG 1.1//EN" "http://www.w3.org/Graphics/SVG/1.1/DTD/svg11.dtd">
<svg version="1.1" id="Layer_1" xmlns="http://www.w3.org/2000/svg" xmlns:xlink="http://www.w3.org/1999/xlink" x="0px" y="0px"
	 width="500px" height="500px" viewBox="0 0 500 500" enable-background="new 0 0 500 500" xml:space="preserve">
<g id="Layer_1_copy_32">
	<g>
		<path fill="#CB9376" d="M405.624,387.727v-47.506L312.938,94.604l-171.48-57.932c0,0-50.395-8.69-58.507,39.394V420.74
			c0,0,1.156,40.553,58.507,41.127"/>
		<path fill="#27140E" d="M141.457,466.003c-0.016,0-0.026,0-0.043,0c-60.622-0.613-62.582-44.705-62.595-45.146L78.815,76.066
			c0-0.23,0.021-0.461,0.06-0.689c2.516-14.91,9.12-26.249,19.644-33.703c18.626-13.201,42.629-9.249,43.638-9.075
			c0.213,0.037,0.419,0.089,0.62,0.157l171.485,57.931c1.178,0.396,2.107,1.296,2.542,2.455l92.69,245.619
			c0.175,0.466,0.263,0.957,0.263,1.46v47.506c0,2.282-1.851,4.129-4.133,4.129c-2.281,0-4.133-1.847-4.133-4.129v-46.754
			l-91.728-243.08L140.472,40.704c-1.879-0.271-12.855-1.623-24.352,1.684c-16.146,4.642-25.912,16.09-29.036,34.029V420.74
			c0.053,1.358,1.972,36.469,54.412,36.998c2.286,0.022,4.113,1.893,4.094,4.176C145.567,464.179,143.724,466.003,141.457,466.003z"
			/>
	</g>
	<g>
		<g>
			<path fill="#CB9376" d="M141.457,461.867h250.39c7.579,0,13.777-6.193,13.777-13.779v-60.361"/>
		</g>
		<g>
			<path fill="#27140E" d="M391.847,466.003h-250.39c-2.282,0-4.137-1.854-4.137-4.137s1.854-4.129,4.137-4.129h250.39
				c5.316,0,9.646-4.332,9.646-9.65v-60.36c0-2.283,1.852-4.14,4.133-4.14c2.282,0,4.133,1.854,4.133,4.14v60.36
				C409.757,457.97,401.723,466.003,391.847,466.003z"/>
		</g>
	</g>
	<g>
		<path fill="#FFFFFF" d="M133.927,382.75l271.697,0.584v58.506H136.188c0,0-28.751,0.574-29.312-33.598
			C107.999,384.488,133.927,382.75,133.927,382.75z"/>
		<path fill="#27140E" d="M136.094,445.968c-1.335,0-32.739-0.426-33.354-37.663c1.037-21.962,20.669-28.994,30.911-29.687
			c0.097,0,0.133,0.018,0.284-0.007l271.697,0.58c2.281,0.011,4.124,1.857,4.124,4.142v58.506c0,2.281-1.851,4.129-4.133,4.129
			H136.094L136.094,445.968z M134.086,386.88c-1.938,0.17-22.173,2.384-23.081,21.556c0.473,28.436,22.57,29.268,25.089,29.268
			v4.137l0.022-4.137h265.375v-50.248L134.086,386.88z"/>
	</g>
	<g>
		<g>
			<path fill="#F2A277" d="M406.202,347.91c0,7.576-6.198,13.779-13.778,13.779H140.759c-7.581,0-13.783-6.203-13.783-13.779V49.295
				c0-7.579,6.202-13.779,13.783-13.779h251.665c7.58,0,13.778,6.201,13.778,13.779V347.91L406.202,347.91z"/>
		</g>
		<g>
			<path fill="#27140E" d="M392.424,365.82H140.759c-9.882,0-17.916-8.035-17.916-17.91V49.295c0-9.876,8.034-17.914,17.916-17.914
				h251.665c9.878,0,17.913,8.038,17.913,17.914V347.91C410.337,357.785,402.302,365.82,392.424,365.82z M140.759,39.649
				c-5.322,0-9.649,4.328-9.649,9.646V347.91c0,5.318,4.327,9.643,9.649,9.643h251.665c5.317,0,9.646-4.324,9.646-9.643V49.295
				c0-5.317-4.328-9.646-9.646-9.646H140.759z"/>
		</g>
	</g>
	<g>
		<g>
			<path fill="#C3C3C6" d="M382.445,297.443c0,7.582-6.198,13.779-13.779,13.779H164.512c-7.584,0-13.782-6.197-13.782-13.779
				V89.763c0-7.578,6.198-13.78,13.782-13.78h204.154c7.581,0,13.779,6.202,13.779,13.78V297.443z"/>
		</g>
		<g>
			<path fill="#27140E" d="M368.666,315.355H164.512c-9.881,0-17.915-8.033-17.915-17.912V89.763
				c0-9.877,8.034-17.914,17.915-17.914h204.154c9.879,0,17.917,8.037,17.917,17.914v207.68
				C386.583,307.322,378.545,315.355,368.666,315.355z M164.512,80.116c-5.32,0-9.649,4.33-9.649,9.647v207.68
				c0,5.317,4.329,9.646,9.649,9.646h204.154c5.317,0,9.646-4.328,9.646-9.646V89.763c0-5.317-4.328-9.647-9.646-9.647H164.512z"/>
		</g>
	</g>
	<g>
		<g>
			<path fill="#38B7DD" d="M331.413,167.201c0,39.563-32.078,71.638-71.638,71.638c-39.559,0-71.633-32.075-71.633-71.638
				c0-39.567,32.075-71.64,71.633-71.64C299.335,95.561,331.413,127.634,331.413,167.201z"/>
			<path fill="#211010" d="M259.775,240.905c-40.637,0-73.698-33.062-73.698-73.704c0-40.643,33.062-73.706,73.698-73.706
				c40.641,0,73.701,33.063,73.701,73.706C333.478,207.843,300.416,240.905,259.775,240.905z M259.775,97.629
				c-38.355,0-69.565,31.209-69.565,69.572c0,38.363,31.21,69.572,69.565,69.572c38.361,0,69.568-31.209,69.568-69.572
				C329.344,128.838,298.138,97.629,259.775,97.629z"/>
		</g>
		<g>
			<path fill="#211010" d="M257.729,260.4c-23.111,0-45.396-8.387-62.731-23.618c-0.179-0.165-3.641-3.388-3.68-7.902
				c-0.025-2.764,1.194-5.33,3.62-7.627l8.066-9.702l3.175,2.646l-8.233,9.881c-1.723,1.653-2.507,3.196-2.495,4.769
				c0.023,2.692,2.286,4.838,2.306,4.857c16.554,14.54,37.861,22.562,59.975,22.562c50.186,0,91.014-40.831,91.014-91.016
				c0-20.271-6.518-39.444-18.848-55.466c-0.591-0.51-3.617-3.023-6.937-2.812c-1.775,0.11-3.334,1.003-4.77,2.725l-6.521,7.831
				l-3.175-2.646l6.521-7.833c2.178-2.616,4.773-4.03,7.721-4.206c5.423-0.339,9.914,3.849,10.1,4.027l0.217,0.238
				c12.973,16.782,19.826,36.887,19.826,58.141C352.877,217.715,310.193,260.4,257.729,260.4z"/>
		</g>
		<g>
			<rect x="254.527" y="258.195" fill="#324BA0" width="8.226" height="18.473"/>
			<path fill="#211010" d="M264.816,278.732h-12.357v-22.605h12.357V278.732z M256.592,274.598h4.092v-14.337h-4.092V274.598z"/>
		</g>
		<g>
			<g>
				<path fill="#536AB2" d="M300.665,289.18c1.207,2.78-0.29,5.059-3.322,5.059h-77.409c-3.03,0-4.561-2.289-3.389-5.084
					l4.266-10.24c1.169-2.795,4.604-5.084,7.634-5.084h60.058c3.031,0,6.497,2.277,7.7,5.057L300.665,289.18z"/>
			</g>
			<g>
				<path fill="#211010" d="M297.343,296.307h-77.409c-2.146,0-3.966-0.882-4.991-2.418c-1.021-1.533-1.134-3.552-0.307-5.533
					l4.27-10.236c1.486-3.564,5.678-6.357,9.539-6.357h60.058c3.849,0,8.063,2.769,9.599,6.303l4.464,10.297
					c0.854,1.974,0.769,3.986-0.24,5.523S299.497,296.307,297.343,296.307z M228.444,275.895c-2.2,0-4.878,1.787-5.728,3.819
					l-4.262,10.234c-0.287,0.684-0.314,1.284-0.07,1.649c0.241,0.361,0.808,0.574,1.549,0.574h77.409
					c0.737,0,1.293-0.203,1.522-0.555c0.231-0.352,0.196-0.939-0.099-1.615l-4.465-10.297c-0.875-2.031-3.589-3.812-5.801-3.812
					h-60.056V275.895z"/>
			</g>
		</g>
		<g>
			<path fill="#08A04D" d="M205.32,124.773c0,0,12.832-18.849,41.182-25.658c28.35-6.81,20.214,14.256,13.273,19.956
				c-6.943,5.702-21.037,13.624-19.135,18.211c1.901,4.597,2.693,46.564-14.415,38.33c-17.105-8.236-29.459-6.175-25.815-22.808
				C204.056,136.176,197.97,136.324,205.32,124.773z"/>
		</g>
		<g>
			<path fill="#08A04D" d="M285.184,128.258c0,0-29.779-4.751-14.257,17.579c15.521,22.333,14.097,51.315,25.656,41.657
				c11.562-9.663,25.183-30.094,13.778-40.232C298.958,137.129,295.157,117.806,285.184,128.258z"/>
		</g>
		<g>
			<path fill="#08A04D" d="M224.75,226.555c0,0-14.041-27.555,11.402-26.923c25.448,0.633,26.398,2.327,28.618-4.327
				c2.213-6.653,18.158,1.372,14.35,17.212c-3.792,15.835,0.745,17.528-19.85,23.756
				C244.802,237.266,225.444,228.071,224.75,226.555z"/>
		</g>
	</g>
</g>
</svg>
