<?xml version="1.0" encoding="utf-8"?>
<!-- Generator: Adobe Illustrator 16.0.0, SVG Export Plug-In . SVG Version: 6.00 Build 0)  -->
<!DOCTYPE svg PUBLIC "-//W3C//DTD SVG 1.1//EN" "http://www.w3.org/Graphics/SVG/1.1/DTD/svg11.dtd">
<svg version="1.1" id="Layer_1" xmlns="http://www.w3.org/2000/svg" xmlns:xlink="http://www.w3.org/1999/xlink" x="0px" y="0px"
	 width="500px" height="500px" viewBox="0 0 500 500" enable-background="new 0 0 500 500" xml:space="preserve">
<g id="Layer_1_copy_12">
	<g>
		<path fill="#FBAE61" d="M185.889,255.43c0,0-33.092,14.58-101.411-17.424c-59.312-27.787-69.268,31.555-52.432,56.141
			c2.558,3.737,16.636,13.559,22.29,16.223c17.536,8.266,51.498,15.613,131.762,9.17c-3.493,2.771-25.646,16.072-25.646,16.072
			s-26.858-18.801-55.571,4.529C76.173,363.47,59.672,428.031,91.47,463.115c22.717,25.783,51.889,9.006,51.889,9.006
			s17.86-1.742,40.978-27.467c10.252-11.82,45.752-19.779,45.752-19.779s80.723-10.824,121.315,3.066
			c40.587,13.893,66.597,35.932,91.904-6.033c25.312-41.971-2.305-110.518-31.424-120.699c-13.958-8.279-31-2.156-31-2.156
			l-30.479-19.068l-9.996-45.25L185.889,255.43z"/>
		<path fill="#27140E" d="M121.815,480.087c-12.517,0-23.381-5.129-32.296-15.25c-13.177-14.535-19.454-35.527-17.661-59.086
			c2.051-26.86,14.66-54.045,31.38-67.631c10.025-8.144,20.923-12.271,32.403-12.271c12.161,0,21.389,4.668,24.84,6.709
			c3.983-2.4,10.494-6.361,15.792-9.679c-16.459,1.142-31.593,1.718-45.1,1.718c-35.499,0-60.994-3.886-77.944-11.877
			c-5.395-2.539-20.257-12.611-23.331-17.103c-9.209-13.447-10.381-35.447-2.663-50.08c5.906-11.209,16.394-17.384,29.519-17.384
			c8.516,0,18.211,2.521,28.826,7.494c36.155,16.939,62.104,20.495,77.509,20.495c14.416,0,21.69-3.067,21.759-3.1
			c0.22-0.096,0.462-0.16,0.696-0.193l154.518-20.698c1.355-0.176,2.595,0.698,2.889,2.017l9.761,44.187l28.533,17.854
			c2.26-0.672,7.377-1.938,13.568-1.938c6.853,0,12.969,1.535,18.174,4.563c13.902,5.011,27.606,22.213,35.817,45.002
			c10.45,29.007,9.229,58.688-3.269,79.41c-10.545,17.49-22.208,25.633-36.708,25.633c-11.501,0-23.667-4.926-37.752-10.627
			c-6.517-2.635-13.254-5.365-20.518-7.85c-13.463-4.605-32.952-6.943-57.932-6.943c-32.028,0-61.896,3.953-62.195,3.994
			c-0.122,0.037-34.559,7.867-44.133,18.902c-21.538,23.973-38.745,27.745-42.113,28.278
			C142.061,475.759,133.159,480.087,121.815,480.087z M135.642,331.052c-10.253,0-20.048,3.738-29.12,11.107
			c-15.683,12.745-27.525,38.459-29.476,63.987c-1.685,22.117,4.122,41.728,16.351,55.22c7.911,8.977,17.463,13.518,28.419,13.518
			c11.389,0,20.158-4.969,20.245-5.021c0.319-0.183,0.679-0.295,1.044-0.332c0.157-0.019,17.285-2.125,39.295-26.617
			c10.66-12.289,45.635-20.244,47.118-20.576c0.524-0.082,30.722-4.08,63.109-4.08c25.556,0,45.609,2.43,59.618,7.224
			c7.401,2.534,14.207,5.286,20.783,7.95c13.579,5.496,25.309,10.244,35.799,10.244c12.664,0,22.612-7.129,32.253-23.113
			c11.696-19.395,12.752-47.414,2.829-74.963c-7.625-21.154-20.531-37.615-32.887-41.936c-0.16-0.061-0.319-0.133-0.466-0.217
			c-4.44-2.635-9.739-3.973-15.744-3.973c-7.321,0-12.99,2.008-13.05,2.026c-0.743,0.271-1.58,0.181-2.261-0.242l-30.476-19.067
			c-0.596-0.371-1.013-0.965-1.161-1.646l-9.483-42.915l-151.819,20.333c-1.76,0.689-9.531,3.385-23.475,3.385
			c-15.931,0-42.695-3.642-79.718-20.983c-9.915-4.648-18.871-7.004-26.617-7.004c-14.231,0-21.406,7.942-24.916,14.606
			c-6.896,13.076-5.859,32.718,2.355,44.714c2.165,3.161,15.786,12.762,21.253,15.338c16.242,7.655,41.013,11.377,75.728,11.377
			c16.072,0,34.48-0.824,54.715-2.447c1.121-0.098,2.21,0.574,2.63,1.641c0.419,1.064,0.097,2.281-0.806,2.992
			c-3.583,2.844-25.011,15.719-25.925,16.264c-0.883,0.531-1.988,0.492-2.832-0.098
			C158.865,337.682,149.162,331.052,135.642,331.052z"/>
	</g>
	<g>
		<path fill="#FDCD9C" d="M157.999,143.697c-13.616-1.12-25.747-7.376-32.954-18.393c-13.929-21.285-4.222-52.283,21.684-69.235
			c25.91-16.953,58.199-13.443,72.128,7.843c0,0,83.84-25.95,136.305,34.836c53.538-33.632,81.404,9.4,87.352,18.338
			c5.946,8.938,24.319,81.962-60.706,81.979l-4.242,6.489c0,0,21.599,51.982-30.186,74.555
			c-51.774,22.574-172.916,17.938-201.218-92.72C139.845,159.693,157.999,143.697,157.999,143.697z"/>
		<path fill="#27140E" d="M288.402,293.564c-27.629,0-119.718-7.611-144.762-105.53c-4.845-21.229,3.796-35.849,9.059-42.406
			c-12.654-2.271-23.35-8.992-29.832-18.9c-7.171-10.956-8.731-24.611-4.4-38.443c4.272-13.651,13.806-25.866,26.837-34.395
			c11.154-7.299,23.642-11.155,36.106-11.155c16.237,0,30.161,6.594,38.526,18.164c5.214-1.405,20.817-5.094,41.018-5.094
			c27.181,0,65.469,6.92,94.713,39.578c13.118-7.893,25.796-11.895,37.716-11.895c19.854,0,37.053,10.729,51.116,31.887l0.18,0.269
			c3.441,5.172,12.446,33.729-0.173,57.281c-10.058,18.779-30.674,28.441-61.288,28.734l-2.759,4.222
			c2.972,8.481,16.768,55.344-32.044,76.613C332.282,289.531,310.406,293.564,288.402,293.564z M181.41,47.938
			c-11.285,0-23.099,3.66-33.256,10.307c-12.025,7.868-20.805,19.091-24.723,31.593c-3.858,12.32-2.514,24.411,3.793,34.04
			c6.544,10.001,17.551,16.119,30.987,17.226c1.041,0.084,1.932,0.782,2.258,1.773c0.326,0.99,0.032,2.081-0.75,2.772
			c-0.69,0.612-16.9,15.394-11.023,41.16c24.101,94.223,113.027,101.55,139.707,101.55c21.314,0,42.433-3.877,57.935-10.637
			c48.783-21.261,29.662-69.146,28.824-71.175c-0.327-0.793-0.242-1.7,0.228-2.418l4.238-6.489c0.479-0.735,1.302-1.178,2.18-1.178
			c29.321-0.005,48.879-8.751,58.114-25.995c10.741-20.047,3.963-46.627,0.423-51.941l-0.18-0.271
			c-13.037-19.616-28.778-29.565-46.781-29.565c-11.495,0-23.887,4.126-36.836,12.259c-1.097,0.687-2.514,0.467-3.354-0.502
			C325.06,67.851,287.504,61.01,260.954,61.01c-23.59,0-41.156,5.333-41.332,5.388c-1.111,0.336-2.31-0.092-2.946-1.062
			C209.442,54.279,196.588,47.938,181.41,47.938z"/>
	</g>
	<g>
		<path fill="#EDA9CB" d="M168.491,119.062c0,0,6.478-17.652,29.973-34.292c-12.253-22.374-30.845-14.801-39.618-9.416
			c-3.04,1.872-6.229,5.221-7.649,8.025C146.923,91.795,141.724,109.783,168.491,119.062z"/>
		<path fill="#27140E" d="M168.491,121.666c-0.285,0-0.572-0.048-0.854-0.145c-10.938-3.792-17.987-9.439-20.956-16.782
			c-3.382-8.393-0.674-16.888,2.195-22.537c1.639-3.227,5.178-6.955,8.608-9.063c4.531-2.783,11.526-6.099,19.126-6.099
			c10.029,0,18.146,5.545,24.136,16.482c0.635,1.158,0.302,2.609-0.776,3.373c-22.575,15.987-28.977,32.897-29.038,33.065
			C170.546,121.01,169.55,121.666,168.491,121.666z M176.61,72.243c-6.383,0-12.443,2.899-16.4,5.33
			c-2.61,1.604-5.489,4.606-6.691,6.984c-2.382,4.688-4.66,11.656-2.008,18.235c2.181,5.405,7.417,9.767,15.58,12.982
			c2.564-5.332,10.253-18.664,27.943-31.73C190.184,76.211,183.998,72.243,176.61,72.243z"/>
	</g>
	<g>
		<path fill="#EDA9CB" d="M379.544,164.857c0,0,2.593-18.625-10.302-44.366c21.346-13.966,34.181,1.465,39.384,10.351
			c1.807,3.082,3.034,7.536,2.971,10.68C411.41,150.958,407.53,169.277,379.544,164.857z"/>
		<path fill="#27140E" d="M387.571,168.135c-2.62,0-5.457-0.236-8.436-0.707c-1.399-0.222-2.367-1.524-2.17-2.93
			c0.021-0.172,2.275-18.235-10.051-42.842c-0.589-1.182-0.201-2.618,0.901-3.341c6.122-4.006,12.105-6.036,17.791-6.036
			c13.193,0,21.492,10.806,25.264,17.25c2.031,3.464,3.4,8.417,3.327,12.044C414.038,149.559,411.128,168.135,387.571,168.135z
			 M382.324,162.614c1.84,0.212,3.594,0.318,5.247,0.318c17.354,0,21.23-11.672,21.424-21.463c0.052-2.673-1.069-6.677-2.61-9.309
			c-3.211-5.482-10.177-14.677-20.775-14.677c-4.076,0-8.439,1.339-12.994,3.983C382.067,141.323,382.574,156.705,382.324,162.614z"
			/>
	</g>
	<g>
		<path fill="#27140E" d="M337.119,177.943c-0.037,0-0.07,0-0.104-0.002c-1.438-0.055-2.559-1.262-2.499-2.699
			c0.854-22.41-25.71-32.28-25.977-32.376c-1.352-0.49-2.049-1.979-1.564-3.329c0.487-1.353,1.979-2.054,3.327-1.567
			c1.242,0.445,30.414,11.231,29.408,37.471C339.662,176.843,338.508,177.943,337.119,177.943z"/>
	</g>
	<g>
		<path fill="#27140E" d="M206.101,140.76c-0.572,0-1.144-0.187-1.623-0.57c-1.124-0.897-1.309-2.533-0.406-3.657
			c16.936-21.194,44.183-15.734,45.329-15.49c1.404,0.295,2.305,1.673,2.012,3.078c-0.296,1.405-1.678,2.305-3.082,2.015
			c-0.252-0.059-25.294-5.007-40.195,13.646C207.621,140.424,206.862,140.76,206.101,140.76z"/>
	</g>
	<g>
		<path fill="#678CC8" d="M249.287,178.998c2.089,9.967-5.057,19.898-15.966,22.187c-10.907,2.288-21.449-3.935-23.542-13.9
			c-2.088-9.966,5.064-19.902,15.973-22.19C236.661,162.807,247.199,169.032,249.287,178.998z"/>
		<path fill="#27140E" d="M228.786,204.262c-10.66,0-19.521-6.763-21.55-16.444c-1.166-5.544,0.096-11.236,3.543-16.027
			c3.396-4.722,8.523-8.003,14.438-9.241c1.676-0.354,3.379-0.531,5.067-0.531c10.659,0,19.516,6.764,21.55,16.447
			c1.162,5.544-0.096,11.234-3.543,16.025c-3.394,4.72-8.523,8.001-14.438,9.242C232.183,204.083,230.475,204.262,228.786,204.262z
			 M230.284,167.223c-1.329,0-2.675,0.142-4.001,0.418c-4.639,0.973-8.645,3.526-11.279,7.189c-2.587,3.591-3.536,7.823-2.675,11.92
			c1.517,7.245,8.289,12.308,16.457,12.308c1.333,0,2.679-0.141,4-0.419c4.64-0.973,8.645-3.525,11.283-7.188
			c2.58-3.589,3.532-7.821,2.671-11.918C245.22,172.284,238.455,167.223,230.284,167.223z"/>
	</g>
	<g>
		<path fill="#678CC8" d="M322.531,199.275c2.093,9.968-5.062,19.901-15.962,22.188c-10.915,2.29-21.45-3.936-23.546-13.902
			c-2.09-9.966,5.063-19.898,15.973-22.187C309.901,183.085,320.443,189.309,322.531,199.275z"/>
		<path fill="#27140E" d="M302.03,224.539c-10.655,0-19.52-6.762-21.554-16.443c-2.379-11.355,5.689-22.689,17.987-25.269
			c1.671-0.35,3.374-0.527,5.063-0.527c10.655,0,19.52,6.761,21.545,16.442c1.166,5.543-0.092,11.235-3.539,16.028
			c-3.396,4.718-8.521,8-14.434,9.24C305.427,224.361,303.72,224.539,302.03,224.539z M303.528,187.502
			c-1.33,0-2.679,0.14-3.996,0.417c-9.488,1.991-15.755,10.562-13.962,19.106c1.52,7.249,8.293,12.31,16.46,12.31
			c1.333,0,2.683-0.141,4.005-0.417c4.636-0.973,8.64-3.525,11.273-7.189c2.589-3.59,3.533-7.823,2.676-11.918
			C318.463,192.563,311.7,187.502,303.528,187.502z"/>
	</g>
	<g>
		<path fill="#333333" d="M241.373,183.201c1.224,5.837-2.962,11.654-9.352,12.993c-6.388,1.341-12.558-2.305-13.777-8.142
			c-1.224-5.833,2.956-11.653,9.343-12.994C233.978,173.721,240.148,177.367,241.373,183.201z"/>
		<path fill="#27140E" d="M229.368,199.074c-6.756,0-12.378-4.313-13.675-10.488c-1.518-7.23,3.58-14.439,11.359-16.072
			c1.056-0.222,2.125-0.333,3.191-0.333c6.753,0,12.378,4.312,13.672,10.487c0.746,3.544-0.053,7.182-2.251,10.236
			c-2.147,2.983-5.379,5.054-9.109,5.837C231.505,198.963,230.432,199.074,229.368,199.074z M230.244,177.384
			c-0.707,0-1.418,0.075-2.121,0.222c-4.969,1.044-8.264,5.491-7.336,9.914c0.783,3.739,4.312,6.35,8.581,6.35
			c0.704,0,1.418-0.073,2.117-0.22c2.455-0.515,4.57-1.859,5.956-3.785c1.333-1.854,1.823-4.031,1.385-6.128
			C238.038,179.995,234.513,177.384,230.244,177.384z"/>
	</g>
	<g>
		<path fill="#333333" d="M312.1,203.5c1.206,5.728-2.904,11.438-9.171,12.753c-6.271,1.314-12.327-2.264-13.528-7.991
			c-1.201-5.729,2.904-11.439,9.176-12.755C304.844,194.192,310.9,197.773,312.1,203.5z"/>
		<path fill="#27140E" d="M300.321,219.127c-6.653,0-12.193-4.249-13.47-10.33c-0.731-3.496,0.06-7.077,2.221-10.087
			c2.115-2.938,5.3-4.98,8.967-5.747c1.037-0.218,2.093-0.328,3.142-0.328c6.652,0,12.192,4.248,13.467,10.333
			c0.73,3.492-0.056,7.073-2.219,10.084c-2.112,2.937-5.297,4.978-8.971,5.747C302.426,219.017,301.37,219.127,300.321,219.127z
			 M301.181,197.838c-0.688,0-1.386,0.071-2.07,0.216c-2.397,0.502-4.46,1.815-5.812,3.695c-1.301,1.809-1.78,3.932-1.353,5.979
			c0.767,3.649,4.211,6.195,8.376,6.195c0.689,0,1.386-0.071,2.07-0.216c2.395-0.501,4.459-1.815,5.81-3.695
			c1.301-1.809,1.784-3.932,1.352-5.977C308.79,200.386,305.347,197.838,301.181,197.838z"/>
	</g>
	<g>
		<path fill="#F389AF" d="M87.856,249.254c21.062,7.639,33.944,25.389,28.771,39.639c-5.162,14.256-26.426,19.616-47.485,11.979
			c-21.065-7.637-33.948-25.383-28.782-39.633C45.53,246.982,66.794,241.618,87.856,249.254z"/>
		<path fill="#27140E" d="M88.234,306.953c-6.516,0-13.424-1.262-19.979-3.635c-10.674-3.869-19.71-10.353-25.443-18.256
			c-5.963-8.203-7.7-16.982-4.896-24.711c3.844-10.596,15.665-17.175,30.854-17.175c6.511,0,13.421,1.255,19.974,3.63
			c10.67,3.87,19.706,10.356,25.442,18.255c5.959,8.207,7.697,16.982,4.89,24.715C115.239,300.373,103.422,306.953,88.234,306.953z
			 M68.77,248.38c-12.938,0-22.888,5.267-25.962,13.744c-2.193,6.053-0.699,13.118,4.215,19.883
			c5.133,7.068,13.305,12.902,23.007,16.416c5.991,2.177,12.286,3.322,18.205,3.322c12.934,0,22.879-5.267,25.948-13.74
			c2.199-6.058,0.704-13.118-4.21-19.885c-5.13-7.07-13.302-12.901-23.003-16.421C80.979,249.527,74.683,248.38,68.77,248.38z"/>
	</g>
	<g>
		<path fill="#27140E" d="M143.621,474.724c-0.854,0-1.688-0.422-2.183-1.188c-0.781-1.205-0.439-2.814,0.762-3.601
			c1.517-0.987,37.02-24.877,24.875-82.768c-11.978-57.105-49.993-50.869-51.606-50.58c-1.398,0.256-2.767-0.678-3.026-2.09
			c-0.26-1.406,0.667-2.762,2.075-3.025c0.446-0.088,44.6-7.619,57.651,54.629c6.725,32.056-0.938,54.275-8.545,67.271
			c-8.307,14.182-18.182,20.664-18.592,20.93C144.593,474.587,144.105,474.724,143.621,474.724z"/>
	</g>
	<g>
		<path fill="#27140E" d="M378.772,441.337c-0.473,0-0.947-0.127-1.376-0.395c-1.175-0.732-28.732-18.349-34.42-55.015
			c-19.65-71.795,36.604-89.207,37.174-89.375c1.379-0.404,2.822,0.383,3.225,1.762c0.408,1.375-0.377,2.822-1.755,3.232
			c-2.131,0.631-51.969,16.266-33.587,83.148c0.029,0.096,0.048,0.193,0.066,0.293c5.263,34.338,31.79,51.373,32.059,51.541
			c1.214,0.766,1.584,2.371,0.82,3.588C380.485,440.906,379.635,441.337,378.772,441.337z"/>
	</g>
	<g>
		<path fill="#FBAE61" d="M290.434,304.785c0,0-7.988,44.443-52.153,76.617c0,0-38.71,41.217,21.252,67.338
			c59.957,26.119,79.202-69.053,79.202-69.053l18.074-76.004"/>
		<path fill="#27140E" d="M279.502,455.878c-6.716,0-13.732-1.584-21.011-4.754c-20.018-8.723-31.607-20.121-34.436-33.888
			c-4.09-19.858,11.652-36.897,12.325-37.616c0.109-0.115,0.234-0.224,0.363-0.32c42.831-31.198,51.05-74.543,51.128-74.975
			c0.256-1.418,1.607-2.363,3.021-2.104c1.414,0.252,2.356,1.609,2.1,3.021c-0.332,1.855-8.658,45.701-52.966,78.105
			c-1.535,1.725-14.235,16.62-10.872,32.87c2.485,11.996,13.056,22.135,31.413,30.135c13.014,5.669,25.011,5.732,35.658,0.191
			c29.063-15.135,39.853-66.854,39.954-67.377l18.098-76.09c0.335-1.396,1.745-2.254,3.134-1.929
			c1.396,0.334,2.261,1.738,1.928,3.134l-18.076,76.004c-0.428,2.137-11.354,54.578-42.622,70.867
			C292.594,454.302,286.197,455.878,279.502,455.878z"/>
	</g>
	<g>
		<path fill="#E46B91" d="M152.76,409.492c-1.274,27.469-17.379,49.039-35.964,48.18c-18.592-0.867-32.631-23.834-31.358-51.305
			c1.279-27.471,17.383-49.037,35.976-48.174C139.997,359.055,154.036,382.025,152.76,409.492z"/>
		<path fill="#27140E" d="M117.866,460.296c-0.396,0-0.792-0.01-1.195-0.027c-19.99-0.932-35.168-25.168-33.831-54.022
			c1.349-28.994,18.424-51.551,38.693-50.654c9.88,0.459,18.839,6.469,25.223,16.918c6.188,10.127,9.245,23.305,8.603,37.105
			C154.04,438.033,137.572,460.296,117.866,460.296z M120.335,360.77c-16.634,0-31.124,20.508-32.296,45.719
			c-1.206,25.989,11.748,47.785,28.874,48.58c17.061,0.803,32.055-20.002,33.249-45.697c0.594-12.77-2.194-24.896-7.848-34.148
			c-5.457-8.932-12.921-14.055-21.019-14.432C120.973,360.779,120.654,360.77,120.335,360.77z"/>
	</g>
	<g>
		<path fill="#E46B91" d="M442.274,363.566c6.556,31.248-5.272,60.17-26.419,64.604c-21.145,4.434-43.598-17.299-50.152-48.545
			c-6.552-31.244,5.275-60.164,26.423-64.6C413.269,310.591,435.723,332.32,442.274,363.566z"/>
		<path fill="#27140E" d="M410.308,431.345c-21.099,0-40.929-21.526-47.146-51.186c-3.275-15.615-2.226-31.197,2.957-43.875
			c5.327-13.025,14.374-21.479,25.474-23.808c1.994-0.42,4.038-0.631,6.08-0.631c21.103,0,40.932,21.523,47.15,51.184
			c3.274,15.617,2.225,31.197-2.96,43.875c-5.329,13.025-14.372,21.48-25.472,23.812
			C414.397,431.132,412.353,431.345,410.308,431.345z M397.671,317.052c-1.683,0-3.372,0.177-5.014,0.517
			c-9.354,1.965-17.068,9.309-21.723,20.688c-4.793,11.727-5.749,26.23-2.686,40.834c5.625,26.824,23.707,47.051,42.058,47.051
			c1.687,0,3.375-0.172,5.019-0.518c9.354-1.961,17.065-9.307,21.721-20.684c4.793-11.728,5.75-26.229,2.687-40.842
			C434.103,337.277,416.024,317.052,397.671,317.052z"/>
	</g>
	<g>
		<path fill="#EEF2BE" d="M314.744,288.21c4.603-0.599,5.425-7.512,7.107-11.916c10.826-28.351-12.441-63.575-51.969-78.667
			c-39.533-15.093-80.354-4.342-91.178,24.008c-3.1,8.12-3.403,16.799-1.333,25.411C177.373,247.046,222.337,300.189,314.744,288.21
			z"/>
		<path fill="#27140E" d="M288.128,292.572c-0.004,0-0.008,0-0.008,0c-74.772-0.006-111.216-42.057-112.732-43.845
			c-0.264-0.31-0.448-0.676-0.543-1.072c-2.271-9.444-1.788-18.511,1.433-26.948c7.655-20.055,29.779-32.515,57.733-32.515
			c12.074,0,24.803,2.424,36.801,7.004c40.804,15.582,64.789,52.378,53.472,82.025c-0.354,0.92-0.66,1.957-0.982,3.02
			c-1.318,4.398-2.965,9.869-8.219,10.551C305.966,291.971,296.896,292.572,288.128,292.572z M179.755,245.81
			c4.134,4.509,40.175,41.557,108.365,41.557c0,0,0.004,0,0.008,0c8.545,0,17.391-0.584,26.28-1.74
			c1.915-0.246,2.974-3.773,3.912-6.889c0.355-1.184,0.708-2.346,1.1-3.371c10.297-26.968-12.34-60.75-50.463-75.311
			c-11.414-4.357-23.496-6.66-34.946-6.66c-25.741,0-46.004,11.176-52.871,29.166C178.369,229.814,177.904,237.633,179.755,245.81z"
			/>
	</g>
	<g>
		<path fill="#F389AF" d="M284.34,235.425c-2.395,9.005-17.645,12.77-34.053,8.404c-16.411-4.365-27.763-15.208-25.368-24.213
			c2.391-9.008,17.641-12.769,34.045-8.404C275.373,215.578,286.734,226.418,284.34,235.425z"/>
		<path fill="#27140E" d="M263.663,248.25c-4.567,0-9.29-0.643-14.046-1.907c-18.064-4.806-30.021-16.841-27.215-27.394
			c1.993-7.499,10.88-12.158,23.191-12.158c4.561,0,9.285,0.641,14.04,1.905c18.073,4.809,30.03,16.844,27.223,27.397
			C284.859,243.591,275.975,248.25,263.663,248.25z M245.594,211.995c-9.695,0-16.825,3.253-18.159,8.29
			c-1.991,7.479,8.781,17.108,23.523,21.029c4.315,1.149,8.593,1.732,12.705,1.732c9.694,0,16.825-3.254,18.162-8.291
			c1.989-7.475-8.786-17.106-23.527-21.029C253.98,212.577,249.704,211.995,245.594,211.995z"/>
	</g>
	<g>
		<path fill="#27140E" d="M257.906,263.943c-22.133,0-36.853-16.729-37.529-17.517c-0.941-1.086-0.822-2.726,0.264-3.664
			c1.088-0.941,2.726-0.823,3.672,0.262c0.164,0.19,16.892,19.086,40.16,15.159c1.437-0.25,2.76,0.717,3,2.131
			c0.238,1.414-0.718,2.76-2.132,2.998C262.782,263.745,260.298,263.943,257.906,263.943z"/>
	</g>
	<g>
		<path fill="#27140E" d="M241.915,260.535c-0.402,0-0.813-0.096-1.194-0.293c-1.275-0.66-1.775-2.23-1.114-3.508l7.295-14.066
			c0.66-1.275,2.229-1.773,3.507-1.112c1.274,0.662,1.774,2.231,1.114,3.508l-7.3,14.067
			C243.761,260.021,242.854,260.535,241.915,260.535z"/>
	</g>
</g>
</svg>
