<?xml version="1.0" encoding="utf-8"?>
<!-- Generator: Adobe Illustrator 16.0.0, SVG Export Plug-In . SVG Version: 6.00 Build 0)  -->
<!DOCTYPE svg PUBLIC "-//W3C//DTD SVG 1.1//EN" "http://www.w3.org/Graphics/SVG/1.1/DTD/svg11.dtd">
<svg version="1.1" id="Layer_1" xmlns="http://www.w3.org/2000/svg" xmlns:xlink="http://www.w3.org/1999/xlink" x="0px" y="0px"
	 width="500px" height="500px" viewBox="0 0 500 500" enable-background="new 0 0 500 500" xml:space="preserve">
<g id="Layer_1_copy_64">
	<g>
		<g>
			<path fill="#603A17" d="M357.553,101.772c-0.585,10.957-9.935,19.36-20.887,18.774l-106.075-5.666
				c-10.959-0.583-19.361-9.937-18.771-20.888l0,0c0.577-10.958,9.936-19.36,20.888-18.777l106.071,5.668
				C349.736,81.467,358.139,90.82,357.553,101.772L357.553,101.772z"/>
			<path fill="#3C2517" d="M337.733,125.376c-0.438,0-0.878-0.014-1.325-0.034l-106.075-5.666
				c-6.578-0.352-12.625-3.247-17.031-8.146c-4.401-4.899-6.632-11.219-6.28-17.794c0.721-13.537,12.204-24.067,25.938-23.314
				l106.075,5.665c13.58,0.723,24.041,12.362,23.315,25.941C361.649,115.124,350.835,125.376,337.733,125.376z M231.626,79.987
				c-7.997,0-14.594,6.265-15.014,14.258c-0.216,4.023,1.145,7.878,3.831,10.873c2.685,2.989,6.385,4.755,10.403,4.969
				l106.074,5.666c8.286,0.464,15.396-5.963,15.839-14.237c0.445-8.291-5.942-15.396-14.232-15.837L232.45,80.011
				C232.172,79.991,231.9,79.987,231.626,79.987z"/>
		</g>
		<g>
			<path fill="#603A17" d="M327.488,156.514c-0.582,10.954-9.938,19.361-20.886,18.771l-106.084-5.661
				c-10.952-0.588-19.359-9.937-18.769-20.892l0,0c0.586-10.953,9.933-19.357,20.887-18.771l106.081,5.662
				C319.67,136.21,328.073,145.563,327.488,156.514L327.488,156.514z"/>
			<path fill="#3C2517" d="M307.677,180.115c-0.441,0-0.89-0.009-1.333-0.034l-106.081-5.667
				c-6.578-0.351-12.625-3.241-17.023-8.141c-4.405-4.899-6.636-11.219-6.284-17.799c0.715-13.531,12.256-24.062,25.939-23.31
				l106.079,5.661c6.574,0.356,12.629,3.246,17.025,8.146c4.408,4.904,6.638,11.223,6.282,17.799
				C331.587,169.863,320.779,180.115,307.677,180.115z M201.564,134.73c-7.992,0-14.595,6.261-15.021,14.258
				c-0.217,4.02,1.146,7.874,3.83,10.872c2.69,2.986,6.384,4.756,10.402,4.97l106.082,5.662c8.34,0.475,15.398-5.968,15.838-14.229
				c0.215-4.02-1.146-7.883-3.835-10.869c-2.691-2.994-6.386-4.76-10.403-4.979l-106.072-5.661
				C202.109,134.734,201.84,134.73,201.564,134.73z"/>
		</g>
		<g>
			<path fill="#603A17" d="M300.201,212.253c-0.581,10.951-9.934,19.354-20.889,18.771l-106.075-5.661
				c-10.958-0.588-19.36-9.938-18.774-20.893l0,0c0.585-10.953,9.939-19.356,20.892-18.772l106.076,5.661
				C292.384,191.953,300.787,201.303,300.201,212.253L300.201,212.253z"/>
			<path fill="#3C2517" d="M280.391,235.854c-0.445,0-0.888-0.013-1.328-0.034l-106.081-5.666
				c-13.58-0.728-24.038-12.368-23.318-25.943c0.731-13.531,12.248-24.011,25.949-23.308l106.075,5.662
				c13.576,0.732,24.037,12.372,23.312,25.945C304.303,225.601,293.486,235.854,280.391,235.854z M174.274,190.469
				c-7.988,0-14.589,6.265-15.018,14.258c-0.445,8.292,5.942,15.396,14.233,15.839l106.08,5.663
				c8.272,0.494,15.399-5.965,15.843-14.232c0.44-8.29-5.943-15.396-14.238-15.842l-106.076-5.661
				C174.82,190.478,174.553,190.469,174.274,190.469z"/>
		</g>
		<g>
			<path fill="#764E2A" d="M157.994,355.001c0,0-50.962-71.465-21.76-134.109c29.208-62.637,65.89-126.159,65.89-126.159
				s8.821-18.618,30.321-8.888c33.911,15.351-5.609,68.431-9.654,74.609c-12.967,19.766-27.165,51.307-12.089,57.05
				c21.86,8.324,37.518-24.2,54.437-44.326c13.11-15.585,74.577-86.873,74.577-86.873s18.521-12.266,37.641,11.759
				c19.116,24.031-64.231,115.965-68.014,121.215c-3.774,5.243,67.48-85.729,91.316-95.881
				c23.825-10.151,37.09,26.738,26.826,40.981c-10.266,14.233-88.446,91.107-88.446,91.107s101.382-115.381,113.087-77.904
				c6.749,29.34-6.885,41.147-6.885,41.147l-88.04,83.437c0,0,94.536-96.403,106.293-70.842
				c11.759,25.55-31.399,98.064-116.214,156.496C262.463,446.245,194.996,391.354,157.994,355.001z"/>
			<path fill="#3C2517" d="M272.52,418.225c-51.106,0-91.761-34.125-117.89-59.795c-0.199-0.195-0.383-0.408-0.546-0.637
				c-0.535-0.752-13.236-18.718-22.446-44.752c-12.318-34.835-12.236-67.399,0.248-94.176
				c28.336-60.771,64.137-123.151,66.002-126.402c0.951-1.866,7.81-14.233,22.794-14.233c4.366,0,8.985,1.095,13.742,3.245
				c8.034,3.639,13.197,9.399,15.351,17.133c4.086,14.684-3.271,35.835-21.875,62.86c-0.478,0.703-0.854,1.248-1.099,1.613
				c-12.58,19.182-19.843,38.863-17.274,46.798c0.522,1.626,1.393,2.568,2.884,3.14c1.806,0.684,3.532,1.015,5.271,1.015
				c11.304,0,22.019-14.733,32.381-28.979c3.701-5.087,7.524-10.354,11.399-14.965c12.981-15.432,74-86.204,74.623-86.915
				c0.282-0.338,0.615-0.629,0.98-0.867c0.604-0.406,6.179-3.934,14.526-3.934c7.402,0,18.534,2.899,29.525,16.702
				c6.501,8.18,4.726,21.996-5.477,41.797c10.025-9.62,17.752-15.599,23.139-17.89c3.307-1.415,6.626-2.127,9.865-2.127
				c9.179,0,17.389,5.745,22.521,15.772c5.188,10.124,6.925,25.243,0.217,34.556c-0.217,0.293-0.451,0.615-0.723,0.966
				c4.496-1.911,8.431-2.86,11.832-2.86c6.979,0,12.031,3.858,14.216,10.858c0.04,0.117,0.073,0.236,0.1,0.355
				c7.309,31.796-7.78,45.294-8.425,45.856l-1.987,1.886c5.309-2.029,8.189-2.029,9.854-2.029c5.375,0,9.502,2.518,11.606,7.1
				c13.432,29.188-31.671,103.088-117.854,162.454C324.526,409.326,298.457,418.225,272.52,418.225z M161.682,351.889
				c24.937,24.452,63.452,56.734,110.837,56.734c23.955,0,48.192-8.336,72.035-24.754c85.215-58.706,124.779-128.368,114.577-150.54
				c-0.383-0.831-0.858-1.514-2.884-1.514c-4.515,0-19.49,3.983-60.988,40.895l-34.751,32.94c-1.9,1.801-4.889,1.746-6.726-0.119
				c-1.835-1.865-1.835-4.859-0.005-6.725c0.151-0.164,15.904-16.199,35.097-33.268l53.064-50.294
				c0.575-0.529,11.39-10.755,5.55-36.398c-1.067-3.287-2.712-3.958-4.997-3.958c-4.546,0-16.018,3.339-41.848,25.648
				c-25.556,26.225-57.91,58.05-58.234,58.368c-1.848,1.815-4.794,1.84-6.664,0.067c-1.884-1.775-2.016-4.717-0.306-6.662
				c0.297-0.33,29.804-33.829,58.61-58.767c20.605-21.151,27.441-29.063,29.54-31.979c3.809-5.28,3.379-16.069-0.978-24.564
				c-1.622-3.174-6.228-10.548-13.969-10.548c-1.937,0-3.985,0.462-6.108,1.36c-5.876,2.505-22.189,14.329-65.354,65.375
				c-8.17,10.269-15.546,18.944-19.951,24.13l-1.254,1.5c-4.208,5.166-4.459,5.479-6.779,5.479c-1.802,0-3.451-1.009-4.271-2.618
				c-0.818-1.6-0.53-3.747,0.522-5.21c0.46-0.635,1.36-1.715,3.672-4.436c3.641-4.474,11.354-13.96,20.729-25.04
				c52.019-65.37,46.64-82.309,43.745-85.942c-6.902-8.673-14.311-13.078-22.005-13.078c-4.341,0-7.587,1.46-8.778,2.082
				c-6.055,7.034-61.703,71.601-74.004,86.215c-3.652,4.348-7.379,9.476-10.984,14.429c-11.771,16.193-23.951,32.94-40.144,32.94
				c-2.889,0-5.812-0.561-8.693-1.653c-4.202-1.6-7.181-4.771-8.599-9.151c-5.569-17.203,14.336-48.85,18.387-55.015
				c0.261-0.406,0.676-1.014,1.216-1.795c21.068-30.609,22.795-46.716,20.533-54.843c-1.374-4.936-4.668-8.518-10.062-10.962
				c-3.501-1.584-6.794-2.39-9.782-2.39c-9.858,0-14.179,8.874-14.225,8.961c-0.053,0.115-0.112,0.232-0.175,0.347
				c-0.368,0.633-36.915,64.067-65.691,125.783c-14.368,30.812-7.922,64.142,0.018,86.677
				C148.701,332.573,159.951,349.37,161.682,351.889z"/>
		</g>
		<g>
			<path fill="#A97D51" d="M394.306,125.471l-15.534,2.518l-2.52-15.528c-0.55-3.399-3.755-5.706-7.15-5.157
				c-3.397,0.55-5.708,3.756-5.158,7.15l2.518,15.536l-15.53,2.519c-3.396,0.549-5.704,3.755-5.158,7.149
				c0.554,3.399,3.764,5.711,7.154,5.156l15.536-2.518l2.519,15.536c0.556,3.399,3.763,5.71,7.149,5.157
				c3.406-0.55,5.714-3.758,5.164-7.153l-2.52-15.533l15.526-2.525c3.401-0.548,5.708-3.751,5.153-7.155
				C400.906,127.228,397.703,124.921,394.306,125.471z"/>
			<path fill="#3C2517" d="M377.131,166.273c-4.646,0-8.561-3.334-9.312-7.928l-2.006-12.376l-12.367,2.005
				c-5.249,0.865-10.003-2.712-10.831-7.799c-0.824-5.139,2.672-9.994,7.799-10.83l12.376-2.003l-2-12.373
				c-0.833-5.131,2.667-9.993,7.799-10.825c5.24-0.86,10,2.712,10.827,7.806l2.005,12.365l12.378-2.009
				c5.234-0.84,9.998,2.717,10.822,7.806c0.401,2.49-0.186,4.984-1.658,7.027c-1.479,2.043-3.658,3.395-6.141,3.8l-12.374,2.009
				l2.006,12.373c0.829,5.136-2.672,9.991-7.804,10.827C378.135,166.229,377.625,166.273,377.131,166.273z M368.462,139.1
				c0.666,0,1.319,0.203,1.869,0.6c0.688,0.5,1.154,1.246,1.289,2.088l2.518,15.533c0.263,1.613,1.794,2.777,3.479,2.51
				c1.659-0.268,2.785-1.832,2.515-3.483l-2.519-15.536c-0.284-1.741,0.905-3.385,2.648-3.671l15.526-2.519
				c0.802-0.128,1.505-0.565,1.98-1.224c0.47-0.657,0.658-1.459,0.527-2.254c-0.257-1.624-1.812-2.778-3.479-2.514l-15.534,2.519
				c-0.839,0.138-1.689-0.065-2.383-0.565c-0.69-0.493-1.15-1.242-1.289-2.077l-2.521-15.531c-0.261-1.638-1.787-2.805-3.482-2.508
				c-1.648,0.261-2.775,1.825-2.506,3.479l2.521,15.533c0.135,0.837-0.067,1.693-0.563,2.38c-0.493,0.688-1.247,1.154-2.082,1.287
				l-15.534,2.518c-1.653,0.269-2.775,1.832-2.511,3.485c0.259,1.613,1.826,2.787,3.479,2.51l15.535-2.526
				C368.119,139.109,368.29,139.1,368.462,139.1z"/>
		</g>
		<g>
			<path fill="#A97D51" d="M437.13,179.151l-15.444-3.023l3.027-15.437c0.658-3.383-1.54-6.661-4.924-7.324
				c-3.38-0.663-6.655,1.543-7.317,4.92l-3.022,15.446l-15.439-3.025c-3.375-0.659-6.65,1.545-7.316,4.924
				c-0.657,3.381,1.544,6.657,4.919,7.315l15.446,3.023l-3.028,15.441c-0.658,3.379,1.546,6.661,4.925,7.319
				c3.379,0.662,6.655-1.539,7.316-4.92l3.02-15.445l15.444,3.026c3.385,0.662,6.659-1.546,7.321-4.926
				C442.718,183.084,440.511,179.813,437.13,179.151z"/>
			<path fill="#3C2517" d="M410.16,212.051c-0.598,0-1.213-0.059-1.819-0.179c-2.47-0.479-4.608-1.901-6.021-3.994
				c-1.405-2.093-1.915-4.607-1.429-7.076l2.401-12.31l-12.296-2.404c-5.1-1-8.443-5.962-7.447-11.07
				c0.979-5.008,5.87-8.453,11.075-7.448l12.299,2.408l2.402-12.303c0.977-5.008,5.865-8.466,11.079-7.448
				c5.102,1.001,8.442,5.963,7.448,11.071l-2.41,12.297l12.305,2.411c2.468,0.484,4.608,1.906,6.019,3.994
				c1.406,2.093,1.916,4.608,1.43,7.081c-0.869,4.419-4.764,7.621-9.255,7.621l0,0c-0.6,0-1.212-0.059-1.824-0.179l-12.297-2.403
				l-2.405,12.302C418.55,208.842,414.657,212.051,410.16,212.051z M392.806,173.795c-1.445,0-2.693,1.03-2.97,2.456
				c-0.321,1.639,0.753,3.235,2.388,3.553l15.444,3.029c0.835,0.164,1.569,0.648,2.042,1.351s0.648,1.568,0.487,2.407l-3.023,15.44
				c-0.163,0.791,0.009,1.602,0.46,2.275c0.453,0.674,1.134,1.129,1.934,1.287c1.686,0.327,3.253-0.787,3.566-2.399l3.021-15.44
				c0.156-0.832,0.647-1.568,1.352-2.039c0.707-0.475,1.563-0.648,2.407-0.491l15.439,3.025c1.661,0.331,3.248-0.782,3.56-2.402
				c0.162-0.791-0.004-1.597-0.455-2.271c-0.456-0.673-1.14-1.129-1.938-1.286l-15.445-3.02c-0.833-0.165-1.566-0.652-2.045-1.355
				c-0.47-0.708-0.649-1.568-0.482-2.401l3.028-15.446c0.319-1.631-0.757-3.235-2.401-3.557c-1.663-0.331-3.239,0.782-3.559,2.39
				l-3.023,15.45c-0.343,1.732-2.006,2.861-3.755,2.525l-15.44-3.019C393.198,173.816,392.998,173.795,392.806,173.795z"/>
		</g>
		<g>
			<path fill="#A97D51" d="M450.868,237.165l-14.943-4.939l4.942-14.94c1.076-3.267-0.7-6.794-3.971-7.874
				c-3.271-1.084-6.795,0.694-7.875,3.965l-4.938,14.933l-14.936-4.934c-3.272-1.079-6.796,0.69-7.883,3.966
				c-1.075,3.271,0.699,6.794,3.966,7.873l14.937,4.939l-4.934,14.944c-1.08,3.268,0.698,6.795,3.965,7.875
				c3.271,1.084,6.8-0.691,7.877-3.965l4.938-14.94l14.941,4.935c3.266,1.079,6.798-0.694,7.874-3.965
				C455.911,241.771,454.14,238.239,450.868,237.165z"/>
			<path fill="#3C2517" d="M421.154,266.492c-1.001,0-2-0.161-2.96-0.479c-2.39-0.787-4.334-2.467-5.471-4.717
				c-1.131-2.253-1.32-4.804-0.53-7.201l3.927-11.906l-11.895-3.934c-4.938-1.634-7.629-6.979-5.997-11.918
				c1.279-3.875,4.886-6.478,8.957-6.478c1.01,0,2,0.159,2.96,0.479l11.9,3.931l3.933-11.904c1.289-3.868,4.882-6.472,8.958-6.472
				c1.005,0,2.006,0.157,2.966,0.48c4.941,1.628,7.633,6.973,6.002,11.914l-3.939,11.905l11.909,3.934
				c2.393,0.789,4.329,2.46,5.47,4.713c1.131,2.25,1.319,4.814,0.521,7.205c-1.271,3.869-4.874,6.477-8.951,6.477l0,0
				c-1.01,0-2.006-0.162-2.969-0.479l-11.896-3.937l-3.933,11.903C428.836,263.891,425.24,266.492,421.154,266.492z
				 M407.188,226.264c-1.307,0-2.469,0.835-2.88,2.083c-0.526,1.589,0.339,3.305,1.93,3.83l14.936,4.938
				c1.676,0.555,2.592,2.366,2.033,4.044l-4.937,14.94c-0.251,0.771-0.191,1.594,0.178,2.314c0.36,0.729,0.986,1.261,1.754,1.52
				c1.604,0.537,3.328-0.381,3.832-1.924l4.942-14.946c0.556-1.677,2.366-2.604,4.042-2.034l14.94,4.934
				c1.591,0.523,3.319-0.376,3.83-1.925c0.258-0.777,0.197-1.599-0.167-2.322c-0.36-0.727-0.987-1.261-1.757-1.519l-14.945-4.933
				c-0.807-0.269-1.473-0.843-1.856-1.6c-0.378-0.757-0.444-1.638-0.176-2.444l4.942-14.94c0.519-1.588-0.348-3.305-1.938-3.831
				c-1.589-0.529-3.319,0.372-3.834,1.924l-4.938,14.94c-0.549,1.678-2.365,2.604-4.036,2.035l-14.941-4.938
				C407.831,226.313,407.507,226.264,407.188,226.264z"/>
		</g>
		<g>
			<g>
				<path fill="#A97D51" d="M140.814,277.087c-2.384-1.476-3.125-4.606-1.648-6.989l0,0c1.473-2.391,4.597-3.131,6.993-1.662
					l20.965,12.938c2.392,1.471,3.136,4.604,1.659,6.995l0,0c-1.475,2.382-4.606,3.125-6.993,1.657L140.814,277.087z"/>
				<path fill="#3C2517" d="M164.451,293.979c-1.531,0-3.031-0.422-4.342-1.229l-20.974-12.941c-1.88-1.158-3.199-2.982-3.708-5.137
					c-0.505-2.152-0.149-4.376,1.009-6.255c1.526-2.465,4.158-3.937,7.055-3.937c1.533,0,3.033,0.422,4.34,1.229l20.973,12.937
					c1.884,1.162,3.199,2.987,3.71,5.142c0.517,2.151,0.153,4.376-1.01,6.261C169.984,292.511,167.349,293.979,164.451,293.979z
					 M143.491,270.882c-0.657,0-1.261,0.337-1.604,0.896c-0.266,0.426-0.346,0.931-0.229,1.423c0.113,0.487,0.415,0.903,0.838,1.165
					l20.974,12.932c0.87,0.539,2.055,0.243,2.586-0.611c0.262-0.428,0.348-0.932,0.235-1.422c-0.122-0.49-0.419-0.906-0.842-1.168
					l-20.976-12.932C144.172,270.977,143.839,270.882,143.491,270.882z"/>
			</g>
			<g>
				<path fill="#A97D51" d="M137.639,304.404c-2.387-1.473-3.127-4.607-1.658-6.992l0,0c1.479-2.391,4.605-3.131,6.989-1.658
					l20.974,12.938c2.396,1.469,3.13,4.597,1.657,6.992l0,0c-1.469,2.381-4.596,3.129-6.987,1.651L137.639,304.404z"/>
				<path fill="#3C2517" d="M161.271,321.295c-1.533,0-3.028-0.426-4.34-1.23l-20.973-12.933c-3.88-2.405-5.091-7.513-2.699-11.396
					c1.522-2.471,4.158-3.94,7.057-3.94c1.53,0,3.031,0.427,4.337,1.233l20.97,12.935c1.884,1.162,3.205,2.989,3.712,5.136
					c0.511,2.154,0.154,4.375-1.008,6.262C166.808,319.82,164.173,321.295,161.271,321.295z M140.316,298.193
					c-0.664,0-1.267,0.338-1.614,0.902c-0.535,0.875-0.261,2.041,0.622,2.586l20.965,12.932c0.87,0.541,2.059,0.24,2.586-0.611
					c0.266-0.43,0.351-0.938,0.229-1.427c-0.112-0.483-0.409-0.9-0.833-1.163l-20.977-12.936
					C140.99,298.289,140.662,298.193,140.316,298.193z"/>
			</g>
			<g>
				<path fill="#A97D51" d="M147.003,339.648c-2.768-0.424-4.674-3.021-4.245-5.789l0,0c0.419-2.775,3.009-4.682,5.789-4.256
					l24.357,3.73c2.766,0.421,4.672,3.016,4.255,5.785l0,0c-0.43,2.777-3.023,4.688-5.792,4.263L147.003,339.648z"/>
				<path fill="#3C2517" d="M172.138,346.639c-0.415,0-0.838-0.031-1.261-0.096l-24.358-3.73c-4.513-0.693-7.617-4.93-6.924-9.438
					c0.685-4.482,4.82-7.633,9.435-6.934l24.358,3.731c2.184,0.33,4.108,1.493,5.42,3.279c1.306,1.782,1.847,3.97,1.514,6.157
					C179.698,343.62,176.185,346.639,172.138,346.639z M148.002,332.766c-1.171,0-1.942,0.68-2.077,1.573
					c-0.162,1.029,0.546,1.988,1.559,2.144l24.654,3.759c0.915,0,1.708-0.69,1.853-1.603c0.078-0.498-0.045-0.992-0.343-1.395
					c-0.297-0.405-0.733-0.674-1.226-0.748l-24.36-3.73C148.043,332.766,148.024,332.766,148.002,332.766z"/>
			</g>
			<g>
				<path fill="#A97D51" d="M167.098,364.493c-2.799,0.228-5.25-1.853-5.479-4.647l0,0c-0.23-2.796,1.843-5.25,4.64-5.482
					l24.561-2.026c2.793-0.239,5.244,1.845,5.484,4.646l0,0c0.228,2.791-1.852,5.25-4.646,5.479L167.098,364.493z"/>
				<path fill="#3C2517" d="M166.675,367.709c-4.277,0-7.899-3.341-8.247-7.602c-0.375-4.553,3.02-8.558,7.569-8.938l24.561-2.024
					c4.438-0.354,8.556,3.076,8.934,7.569c0.375,4.554-3.019,8.562-7.569,8.937l-24.564,2.035
					C167.124,367.706,166.903,367.709,166.675,367.709z M191.252,355.516l-24.727,2.039c-1.033,0.082-1.798,0.994-1.716,2.029
					c0.08,0.969,0.899,1.721,1.865,1.721l0.155-0.005l24.564-2.028c1.028-0.084,1.798-0.994,1.718-2.026
					C193.026,356.277,192.21,355.516,191.252,355.516z"/>
			</g>
			<g>
				<path fill="#A97D51" d="M188.188,384.639c-2.798,0.239-5.245-1.837-5.479-4.635l0,0c-0.237-2.798,1.849-5.26,4.642-5.484
					l24.557-2.029c2.797-0.23,5.257,1.845,5.482,4.646l0,0c0.235,2.789-1.843,5.252-4.642,5.485L188.188,384.639z"/>
				<path fill="#3C2517" d="M187.769,387.857c-4.276,0-7.895-3.334-8.25-7.592c-0.186-2.205,0.505-4.354,1.938-6.039
					c1.432-1.689,3.428-2.716,5.632-2.9l24.551-2.027c4.476-0.343,8.569,3.083,8.944,7.578c0.18,2.195-0.505,4.339-1.938,6.023
					c-1.428,1.689-3.43,2.722-5.637,2.91l-24.56,2.027C188.216,387.857,187.993,387.857,187.769,387.857z M212.337,375.674
					l-24.727,2.035c-0.495,0.041-0.945,0.275-1.274,0.652c-0.324,0.39-0.478,0.871-0.437,1.371c0.075,0.97,0.9,1.73,1.869,1.73
					l0.157-0.01l24.561-2.027c0.496-0.045,0.956-0.275,1.274-0.658c0.325-0.383,0.482-0.869,0.441-1.363
					C214.118,376.43,213.302,375.674,212.337,375.674z"/>
			</g>
			<g>
				<path fill="#A97D51" d="M216.636,400.203c-2.789,0.225-5.244-1.852-5.478-4.646l0,0c-0.23-2.798,1.845-5.252,4.649-5.482
					l24.55-2.027c2.802-0.238,5.249,1.852,5.483,4.641l0,0c0.24,2.793-1.847,5.258-4.641,5.483L216.636,400.203z"/>
				<path fill="#3C2517" d="M216.227,403.419c-4.276,0-7.903-3.338-8.26-7.603c-0.176-2.207,0.51-4.346,1.942-6.035
					c1.429-1.686,3.429-2.713,5.637-2.895l24.551-2.035c4.505-0.338,8.564,3.086,8.934,7.576c0.186,2.2-0.504,4.336-1.928,6.03
					c-1.432,1.685-3.433,2.72-5.642,2.899l-24.56,2.037C216.672,403.406,216.451,403.419,216.227,403.419z M240.787,391.223
					l-24.72,2.041c-0.499,0.049-0.954,0.274-1.279,0.652c-0.322,0.384-0.481,0.87-0.437,1.374c0.081,0.97,0.9,1.724,1.875,1.724
					h0.151l24.557-2.037c0.5-0.041,0.956-0.267,1.284-0.654c0.319-0.387,0.473-0.873,0.434-1.364
					C242.574,391.984,241.755,391.223,240.787,391.223z"/>
			</g>
		</g>
		<g>
			<g>
				<path fill="#8EC641" d="M217.411,284.893c0,53.326-43.227,96.553-96.556,96.553c-53.319,0-96.546-43.227-96.546-96.553
					c0-53.32,43.227-96.553,96.546-96.553C174.185,188.34,217.411,231.573,217.411,284.893z"/>
				<path fill="#3C2517" d="M120.855,384.639c-55.003,0-99.75-44.742-99.75-99.746c0-55.002,44.747-99.754,99.75-99.754
					c55.004,0,99.75,44.752,99.75,99.754C220.605,339.896,175.859,384.639,120.855,384.639z M120.855,191.543
					c-51.473,0-93.352,41.875-93.352,93.35c0,51.477,41.879,93.354,93.352,93.354s93.353-41.878,93.353-93.354
					C214.208,233.418,172.328,191.543,120.855,191.543z"/>
			</g>
			<g>
				<g>
					<path fill="#D72F27" d="M65.591,367.27c-0.628,0-1.258-0.18-1.812-0.561c-1.454-1.004-1.823-2.994-0.824-4.453
						c14.395-20.93,22.32-47.281,22.32-74.197c0-28.832-8.962-56.619-25.23-78.241c-1.06-1.41-0.779-3.42,0.64-4.479
						c1.401-1.068,3.42-0.777,4.479,0.632c17.096,22.72,26.516,51.875,26.516,82.085c0,28.61-8.11,55.522-23.447,77.825
						C67.609,366.79,66.608,367.27,65.591,367.27z"/>
				</g>
				<g>
					<path fill="#D72F27" d="M176.54,366.971c-1.04,0-2.062-0.505-2.681-1.438c-14.341-21.873-21.914-48.005-21.914-75.563
						c0-30.351,9.489-59.602,26.718-82.362c1.068-1.411,3.067-1.688,4.482-0.618c1.411,1.068,1.685,3.073,0.622,4.483
						c-16.396,21.651-25.42,49.532-25.42,78.497c0,26.313,7.207,51.227,20.869,72.053c0.97,1.473,0.56,3.461-0.928,4.43
						C177.758,366.805,177.139,366.971,176.54,366.971z"/>
				</g>
				<g>
					<path fill="#D72F27" d="M71.732,225.165H59.078c-1.773,0-3.203-1.431-3.203-3.201c0-1.767,1.43-3.202,3.203-3.202h10.315
						l3.013-9.542c0.527-1.688,2.321-2.623,4.011-2.089c1.689,0.537,2.627,2.331,2.09,4.019l-3.721,11.778
						C74.367,224.259,73.134,225.165,71.732,225.165z"/>
				</g>
				<g>
					<path fill="#D72F27" d="M79.53,241.92c-0.157,0-0.311-0.013-0.468-0.034l-12.266-1.811c-1.753-0.261-2.959-1.886-2.701-3.638
						c0.264-1.746,1.908-2.938,3.639-2.696l9.908,1.464l4.681-10.005c0.754-1.6,2.659-2.287,4.259-1.534
						c1.599,0.746,2.288,2.651,1.545,4.25l-5.7,12.159C81.892,241.213,80.756,241.92,79.53,241.92z"/>
				</g>
				<g>
					<path fill="#D72F27" d="M84.96,259.866c-0.32,0-0.653-0.05-0.974-0.153l-11.517-3.661c-1.686-0.54-2.612-2.343-2.077-4.024
						c0.532-1.687,2.343-2.616,4.024-2.081l9.158,2.922l5.558-8.766c0.945-1.494,2.919-1.944,4.414-0.994
						c1.487,0.949,1.934,2.924,0.997,4.418l-6.881,10.848C87.064,259.322,86.026,259.866,84.96,259.866z"/>
				</g>
				<g>
					<path fill="#D72F27" d="M87.771,277.098c-0.441,0-0.875-0.095-1.298-0.271l-11.525-5.094c-1.614-0.717-2.342-2.606-1.631-4.221
						c0.711-1.623,2.596-2.352,4.221-1.641l9.5,4.197l7.109-7.244c1.234-1.268,3.261-1.275,4.527-0.04
						c1.261,1.237,1.274,3.269,0.04,4.524l-8.664,8.826C89.438,276.764,88.609,277.098,87.771,277.098z"/>
				</g>
				<g>
					<path fill="#D72F27" d="M88.415,295.284c-0.653,0-1.302-0.193-1.861-0.595L76.466,287.5c-1.437-1.031-1.77-3.025-0.748-4.463
						c1.028-1.441,3.028-1.773,4.466-0.749l8.228,5.864l8.163-5.86c1.442-1.033,3.433-0.703,4.47,0.731
						c1.028,1.442,0.703,3.44-0.738,4.471l-10.025,7.189C89.723,295.086,89.069,295.284,88.415,295.284z"/>
				</g>
				<g>
					<path fill="#D72F27" d="M86.834,312.836c-0.666,0-1.33-0.213-1.892-0.622l-10.597-7.784c-1.421-1.052-1.727-3.054-0.677-4.475
						c1.04-1.426,3.046-1.732,4.475-0.684l8.831,6.492l7.745-4.897c1.489-0.941,3.473-0.499,4.414,0.993
						c0.951,1.494,0.501,3.471-0.996,4.42l-9.592,6.062C88.023,312.67,87.428,312.836,86.834,312.836z"/>
				</g>
				<g>
					<path fill="#D72F27" d="M82.64,331.457c-0.893,0-1.767-0.373-2.389-1.071l-9.195-10.317c-1.181-1.316-1.06-3.34,0.258-4.514
						c1.319-1.178,3.338-1.064,4.518,0.258l7.583,8.508l8.462-4.098c1.595-0.773,3.501-0.109,4.275,1.479
						c0.771,1.588,0.108,3.502-1.486,4.276l-10.63,5.154C83.585,331.35,83.107,331.457,82.64,331.457z"/>
				</g>
				<g>
					<path fill="#D72F27" d="M76.245,348.439c-0.941,0-1.855-0.416-2.474-1.174l-8.979-10.916c-1.123-1.363-0.928-3.379,0.44-4.504
						c1.361-1.125,3.379-0.932,4.505,0.441l7.615,9.263l10.094-3.106c1.681-0.525,3.477,0.43,3.995,2.123
						c0.519,1.688-0.423,3.479-2.116,3.998l-12.14,3.73C76.872,348.391,76.562,348.439,76.245,348.439z"/>
				</g>
				<g>
					<path fill="#D72F27" d="M79.477,363.795h-11.58c-1.154,0-2.212-0.618-2.78-1.618l-5.957-10.47
						c-0.864-1.542-0.329-3.49,1.203-4.367c1.546-0.871,3.495-0.331,4.372,1.203l5.023,8.854h9.718c1.766,0,3.204,1.431,3.204,3.196
						C82.681,362.365,81.242,363.795,79.477,363.795z"/>
				</g>
				<g>
					<path fill="#D72F27" d="M168.134,370.625c-0.321,0-0.64-0.051-0.965-0.148c-1.686-0.533-2.623-2.33-2.086-4.019l3.717-11.781
						c0.418-1.331,1.648-2.237,3.052-2.237h12.66c1.77,0,3.199,1.432,3.199,3.201c0,1.766-1.43,3.196-3.199,3.196h-10.314
						l-3.014,9.547C170.751,369.748,169.489,370.625,168.134,370.625z"/>
				</g>
				<g>
					<path fill="#D72F27" d="M158.36,354.243c-0.454,0-0.914-0.099-1.357-0.302c-1.598-0.752-2.288-2.651-1.544-4.256l5.704-12.158
						c0.599-1.286,1.969-2.02,3.366-1.812l12.258,1.816c1.753,0.258,2.961,1.885,2.701,3.634c-0.258,1.751-1.876,2.944-3.633,2.701
						l-9.908-1.47l-4.685,10C160.717,353.561,159.562,354.243,158.36,354.243z"/>
				</g>
				<g>
					<path fill="#D72F27" d="M151.751,334.986c-0.586,0-1.181-0.154-1.708-0.497c-1.496-0.944-1.937-2.921-0.995-4.414l6.879-10.851
						c0.771-1.225,2.288-1.771,3.673-1.34l11.517,3.668c1.68,0.538,2.609,2.34,2.077,4.022c-0.537,1.684-2.345,2.614-4.024,2.077
						l-9.16-2.92l-5.555,8.767C153.847,334.462,152.815,334.986,151.751,334.986z"/>
				</g>
				<g>
					<path fill="#D72F27" d="M147.154,315.738c-0.811,0-1.622-0.307-2.243-0.918c-1.257-1.235-1.279-3.266-0.041-4.526l8.66-8.821
						c0.938-0.963,2.355-1.225,3.581-0.689l11.522,5.094c1.616,0.712,2.352,2.602,1.635,4.221c-0.712,1.619-2.608,2.336-4.221,1.633
						l-9.498-4.193l-7.109,7.244C148.81,315.416,147.984,315.738,147.154,315.738z"/>
				</g>
				<g>
					<path fill="#D72F27" d="M145.146,295.907c-0.997,0-1.979-0.46-2.605-1.337c-1.027-1.436-0.698-3.434,0.735-4.463l10.033-7.19
						c1.113-0.802,2.604-0.802,3.721-0.009l10.084,7.195c1.442,1.022,1.775,3.022,0.748,4.463c-1.022,1.438-3.022,1.773-4.465,0.748
						l-8.219-5.864l-8.172,5.86C146.443,295.716,145.79,295.907,145.146,295.907z"/>
				</g>
				<g>
					<path fill="#D72F27" d="M167.335,278.953c-0.656,0-1.324-0.204-1.886-0.617l-8.836-6.494l-7.749,4.898
						c-1.497,0.938-3.476,0.49-4.413-0.998c-0.945-1.495-0.5-3.473,0.991-4.414l9.598-6.068c1.113-0.691,2.541-0.648,3.604,0.129
						l10.593,7.791c1.423,1.043,1.729,3.047,0.684,4.473C169.292,278.504,168.323,278.953,167.335,278.953z"/>
				</g>
				<g>
					<path fill="#D72F27" d="M170.147,262.865c-0.884,0-1.763-0.36-2.393-1.074l-7.583-8.508l-8.461,4.104
						c-1.587,0.777-3.503,0.108-4.276-1.479c-0.767-1.593-0.104-3.509,1.483-4.28l10.631-5.156c1.293-0.629,2.836-0.323,3.79,0.752
						l9.195,10.313c1.177,1.321,1.06,3.342-0.26,4.521C171.661,262.598,170.899,262.865,170.147,262.865z"/>
				</g>
				<g>
					<path fill="#D72F27" d="M176.323,246.488c-0.922,0-1.838-0.399-2.468-1.168l-7.618-9.259l-10.098,3.101
						c-1.686,0.529-3.478-0.433-3.992-2.121c-0.523-1.691,0.423-3.482,2.116-4.003l12.14-3.726c1.229-0.376,2.586,0.025,3.411,1.025
						l8.975,10.917c1.131,1.365,0.937,3.379-0.438,4.503C177.762,246.25,177.041,246.488,176.323,246.488z"/>
				</g>
				<g>
					<path fill="#D72F27" d="M181.642,230.684c-1.113,0-2.2-0.586-2.789-1.624l-5.02-8.849h-9.729c-1.766,0-3.199-1.436-3.199-3.201
						c0-1.766,1.434-3.201,3.199-3.201h11.59c1.144,0,2.211,0.617,2.778,1.622l5.947,10.473c0.87,1.535,0.339,3.488-1.201,4.359
						C182.718,230.544,182.173,230.684,181.642,230.684z"/>
				</g>
			</g>
			<g>
				<path fill="#3C2517" d="M120.855,384.639c-55.003,0-99.754-44.742-99.754-99.746c0-55.002,44.751-99.754,99.754-99.754
					c55.004,0,99.75,44.752,99.75,99.754C220.605,339.896,175.859,384.639,120.855,384.639z M120.855,191.543
					c-51.473,0-93.352,41.875-93.352,93.35c0,51.477,41.879,93.354,93.352,93.354s93.353-41.878,93.353-93.354
					C214.208,233.418,172.328,191.543,120.855,191.543z"/>
			</g>
		</g>
	</g>
</g>
</svg>
