<?xml version="1.0" encoding="utf-8"?>
<!-- Generator: Adobe Illustrator 16.0.0, SVG Export Plug-In . SVG Version: 6.00 Build 0)  -->
<!DOCTYPE svg PUBLIC "-//W3C//DTD SVG 1.1//EN" "http://www.w3.org/Graphics/SVG/1.1/DTD/svg11.dtd">
<svg version="1.1" id="Layer_1" xmlns="http://www.w3.org/2000/svg" xmlns:xlink="http://www.w3.org/1999/xlink" x="0px" y="0px"
	 width="500px" height="500px" viewBox="0 0 500 500" enable-background="new 0 0 500 500" xml:space="preserve">
<g id="Layer_1_copy_12">
	<path fill="#785936" stroke="#3C2415" stroke-width="4.3726" stroke-miterlimit="10" d="M228.44,280.273l-33.848,39.398
		c0,0-38.534-3.824-42.086-2.459c-3.554,1.366-5.433,4.372,27.909,9.02c0,0-29.549,14.483-21.898,17.763
		c7.652,3.278,41.813-18.036,41.813-18.036s23.887,0.273,32.85-0.273c8.963-0.545,3.609-6.285,0-6.285
		c-3.607,0-27.11,0.272-27.11,0.272l40.168-38.431L228.44,280.273z"/>
	<path fill="#785936" stroke="#3C2415" stroke-width="4.3726" stroke-miterlimit="10" d="M169.006,324.48
		c0,0-24.425-3.441-23.878,4.211c0.546,7.651,24.843,3.158,24.843,3.158l10.445-5.617L169.006,324.48z"/>
	<path fill="#785936" stroke="#3C2415" stroke-width="4.3726" stroke-miterlimit="10" d="M324.041,289.152
		c0,0,97.289,38.537,136.642,42.91c39.354,4.371,14.579-10.932,14.579-10.932l-128.063-54.527
		C347.197,266.604,311.285,276.484,324.041,289.152z"/>
	<path fill="#D9BD9D" stroke="#3C2415" stroke-width="4.3726" stroke-miterlimit="10" d="M172.819,143.676
		c0,0-39.218-71.417-92.302-63.037c-34.865,4.373-38.513,31.176-38.513,31.176l12.374,25.873c0,0,25.89,24.209,20.787,45.707
		s-21.5,76.884,38.623,106.035c60.123,29.151,174.173,17.854,217.535-2.552c20.408-10.931-75.427-48.461-75.427-48.461
		l-82.35-63.767L172.819,143.676z"/>
	
		<ellipse fill="#FFFFFF" stroke="#3C2415" stroke-width="3.2794" stroke-miterlimit="10" cx="89.903" cy="108.149" rx="9.385" ry="11.621"/>
	<path fill="#3C2415" d="M91.794,108.958c0,2.752-1.716,4.981-3.835,4.981c-2.113,0-3.83-2.229-3.83-4.981
		c0-2.75,1.717-4.979,3.83-4.979C90.078,103.979,91.794,106.208,91.794,108.958z"/>
	<path fill="#414042" stroke="#3C2415" stroke-width="3.2794" stroke-miterlimit="10" d="M49.294,108.149l14.941,17.672
		c0,0-43.363,6.921-44.457,8.745C18.686,136.389,27.795,113.796,49.294,108.149z"/>
	<polygon fill="#58595B" stroke="#3C2415" stroke-width="3.2794" stroke-linejoin="round" stroke-miterlimit="10" points="
		64.235,125.821 64.235,138.575 19.778,134.566 	"/>
	<path fill="#8D7052" stroke="#3C2415" stroke-width="4.3726" stroke-miterlimit="10" d="M246.061,193.523
		c0,0-48.104-73.533-90.369-50.94c-42.266,22.593-11.576,82.654,26.966,107.128c49.926,31.701,104.498,41.198,144.073,39.182
		c39.574-2.016,19.168-23.877,19.168-23.877S276.668,194.907,246.061,193.523z"/>
	<path fill="#785936" stroke="#3C2415" stroke-width="4.3726" stroke-miterlimit="10" d="M183.349,305.96l-33.848,39.401
		c0,0-38.534-3.827-42.088-2.461c-3.552,1.367-5.431,4.373,27.91,9.02c0,0-29.55,14.482-21.897,17.764
		c7.652,3.279,41.813-18.037,41.813-18.037s23.887,0.273,32.85-0.273c8.963-0.545,3.608-6.284,0-6.284
		c-3.607,0-27.11,0.273-27.11,0.273l40.168-38.431L183.349,305.96z"/>
	<path fill="#785936" stroke="#3C2415" stroke-width="4.3726" stroke-miterlimit="10" d="M123.913,350.168
		c0,0-24.424-3.439-23.878,4.211c0.547,7.652,24.844,3.16,24.844,3.16l10.444-5.619L123.913,350.168z"/>
</g>
</svg>
