<svg id="speech_theraphy" data-name="speech theraphy" xmlns="http://www.w3.org/2000/svg" viewBox="0 0 300 300"><defs><style>.cls-1{fill:#f0a985;}.cls-2{fill:#3c2417;}.cls-3{fill:#603b17;}.cls-4{fill:#be202e;}.cls-5{fill:#9f1e2a;}.cls-6{fill:#27a8e0;}</style></defs><title>speech therapy</title><path class="cls-1" d="M107.37,168.12s7.4,19.7,11.56,19,25.65-6.4,28-15.48c2.1-8.06,7.82-12.49,7.21-5.6s.52,6.08,4.78,5.36,13.09-6,14.82,2.92-18.61,9.85-22.1,9-5-.08-11.12,4.72-22,16.83-28.45,11.75a124.62,124.62,0,0,1-12.68-12S94.67,161.91,107.37,168.12Z"/><path class="cls-2" d="M116.05,202a7.09,7.09,0,0,1-4.56-1.44,126.63,126.63,0,0,1-12.8-12.1l-.18-.2-.05-.28c-.11-.6-2.67-14.91,1.51-19.92,1.76-2.12,4.45-2.42,7.82-.77l.35.17.13.36c3.33,8.84,8.26,18.39,10.44,18.39,5.46-.92,25.2-6.71,27.3-14.77,1.4-5.37,4.51-9.73,6.93-9.73a1.92,1.92,0,0,1,1.44.63c.66.73.9,2,.74,3.83-.09,1-.36,4.09.17,4.66.19.21,1.22.07,2.48-.16l1-.18a26.6,26.6,0,0,0,3-.83,22.48,22.48,0,0,1,6.51-1.39c3.51,0,5.68,2,6.44,5.91a5.76,5.76,0,0,1-1.26,5c-3.54,4.28-13.24,5.43-18.42,5.43a16.66,16.66,0,0,1-3.61-.29,8,8,0,0,0-1.91-.28c-1.94,0-3.79,1.2-8.38,4.81C130,197.52,121.59,202,116.05,202Zm-15.74-14.64A124.34,124.34,0,0,0,112.69,199a5.22,5.22,0,0,0,3.36,1c3.5,0,10.49-2.21,23.89-12.77,4.71-3.71,6.9-5.22,9.57-5.22a9.78,9.78,0,0,1,2.38.33,16.06,16.06,0,0,0,3.14.23c6.27,0,14.25-1.48,16.93-4.73a3.86,3.86,0,0,0,.85-3.36c-.75-3.84-2.82-4.33-4.54-4.33a21,21,0,0,0-5.92,1.29,25.1,25.1,0,0,1-3.25.9l-1,.17c-2.15.39-3.45.45-4.26-.43s-1-2.45-.66-6.14c.17-2-.26-2.36-.26-2.36-.84,0-3.65,2.91-5.06,8.29-2.54,9.76-24.55,15.46-28.78,16.18a2.58,2.58,0,0,1-.39,0c-4.4,0-10.22-14.3-12.11-19.28-2.32-1.05-4-1-5.15.43C98.53,172.77,99.6,183.23,100.31,187.32Z"/><path class="cls-1" d="M70.65,138.58s3.43,6.32,2,9.34-3.3,16.48,3.58,16.75S86.17,154,86.17,154v-6.53S81.79,129.26,70.65,138.58Z"/><path class="cls-2" d="M76.53,165.65h-.29a5.15,5.15,0,0,1-4.33-2.58c-2.68-4.36-1.26-13-.09-15.54.86-1.87-.79-6.19-2-8.48l-.38-.69.61-.51c2.29-1.91,4.52-2.89,6.62-2.89,7.42,0,10.34,11.74,10.46,12.24l0,.23,0,6.79C87,154.67,83.88,165.65,76.53,165.65Zm-4.66-26.8c.92,1.87,3,6.65,1.71,9.47-1,2.28-2.17,10.22,0,13.72a3.22,3.22,0,0,0,2.75,1.67h.22c5.52,0,8.34-8.77,8.68-9.9v-6.27c-.3-1.12-3-10.65-8.56-10.65A8.13,8.13,0,0,0,71.87,138.85Z"/><path class="cls-1" d="M120.27,107.13s-6.89,5.59-6.34,10.81,4.95,29.42-20.06,30-26.39-17.31-26.39-17.31,6-41,19-38.76S123.31,85.05,120.27,107.13Z"/><path class="cls-2" d="M92.75,148.88c-24.55,0-26.22-18-26.24-18.22v-.21c.24-1.62,6-39.67,18.93-39.67a6.57,6.57,0,0,1,1.16.1,32.36,32.36,0,0,0,5.38.37h0c2,0,4.14-.1,6.23-.2s4.39-.21,6.53-.21c4.82,0,10.78.49,14.09,4.29,2.36,2.7,3.14,6.67,2.39,12.13l0,.38-.3.24c-.06.06-6.47,5.33-6,10,0,.28.07.62.12,1,.58,4.8,1.94,16-4.46,23.42-3.65,4.22-9.26,6.44-16.67,6.6ZM68.46,130.62c.15,1.53,2.37,16.81,25.39,16.32,6.83-.15,12-2.15,15.25-5.94,5.84-6.74,4.55-17.38,4-21.92,0-.4-.09-.74-.12-1-.54-5.07,5-10.21,6.39-11.4.59-4.68-.06-8-2-10.25-2.8-3.2-8.22-3.61-12.63-3.61-2.1,0-4.31.1-6.44.2s-4.28.2-6.32.2h0a34.19,34.19,0,0,1-5.71-.4,5.93,5.93,0,0,0-.83-.07C76.13,92.71,70,120,68.46,130.62Z"/><path class="cls-3" d="M109.81,83s8.8,19-5,24.47-18.69,1.1-25,4.67-8.52,13.74-8.8,20.62-.55,14.57-8.24,13.74S40,146.26,38.62,130.59s-5.77-54.43,36-64.6,48.92,23.37,49.2,27.21S123,128.11,109.81,83Z"/><path class="cls-2" d="M63.9,147.56a10.12,10.12,0,0,1-1.2-.07c-.78-.08-1.64-.15-2.55-.22-7.92-.65-21.19-1.72-22.5-16.6l-.09-1C36.11,113.34,32.71,75.2,74.4,65.05a63.86,63.86,0,0,1,14.89-1.94c27.69,0,35.05,23.68,35.5,30,.1,1.28.1,11.53-2.42,14.24a2.28,2.28,0,0,1-1.69.8c-1.5,0-3.63-1.39-7.23-10.9a12.54,12.54,0,0,1-8.23,11.12,40.35,40.35,0,0,1-16.82,3.13c-3.17,0-5.47,0-8.08,1.48-5.67,3.21-8,12.68-8.3,19.81C71.76,139.44,71.43,147.56,63.9,147.56ZM89.29,65.05a61.6,61.6,0,0,0-14.44,1.88c-40.06,9.76-36.77,46.73-35.36,62.53l.09,1c1.16,13.24,12.47,14.16,20.73,14.83.93.07,1.8.14,2.6.23,6.15.65,6.85-4.8,7.17-12.74s2.93-17.91,9.29-21.5c3-1.72,5.82-1.73,9-1.73a38.89,38.89,0,0,0,16.1-3c7.41-3,7.72-10.27,6.67-15.88-.71-2.15-1.49-4.69-2.29-7.41a1,1,0,0,1,1.81-.68,36.14,36.14,0,0,1,2.38,7.74c5,15.42,7.37,15.87,7.61,15.87s.21-.11.28-.18c1.66-1.78,2.07-10.38,1.9-12.78C122.84,93,119,65.05,89.29,65.05Z"/><path class="cls-4" d="M46.59,228.17h56.35c2.75-9.07-1.38-45.63-1.38-45.63l8.8-10c-9.93-24.59-24.19-19.93-24.19-19.93C77.79,161.24,72,150.3,72,150.3s-18.81,3.26-24.78,8.86C40.47,165.48,46.59,228.17,46.59,228.17Z"/><path class="cls-2" d="M102.94,229.14H46.59a1,1,0,0,1-1-.88c-.62-6.46-5.95-63.34.93-69.8,6.11-5.74,24.5-9,25.28-9.11a1,1,0,0,1,1,.49c0,.06,2.77,5.1,6.89,5.1h0c1.85,0,3.78-1,5.74-3a.9.9,0,0,1,.39-.25,10.87,10.87,0,0,1,3.15-.4c5.15,0,14.9,2.71,22.24,20.89a1,1,0,0,1-.17,1l-8.52,9.71c.48,4.32,3.94,36.86,1.29,45.59A1,1,0,0,1,102.94,229.14ZM47.47,227.2h54.72c2.29-9.82-1.55-44.2-1.59-44.55a1,1,0,0,1,.24-.75l8.4-9.58C102.36,155.7,93.63,153.19,89,153.19a10.72,10.72,0,0,0-2.34.25c-2.27,2.28-4.61,3.44-6.94,3.44h0c-4.34,0-7.25-3.94-8.24-5.51-3.34.63-18.55,3.73-23.63,8.5C43.24,164.22,45.07,202.17,47.47,227.2Z"/><path class="cls-4" d="M102.73,194.7s-2.13-18.76-4.6-25.77"/><path class="cls-2" d="M102.73,195.67a1,1,0,0,1-1-.86c0-.19-2.15-18.73-4.55-25.55a1,1,0,1,1,1.82-.65c2.48,7,4.57,25.2,4.65,26a1,1,0,0,1-.85,1.08Z"/><path class="cls-1" d="M57.66,166.86l13.46,11.86s10.49,8.63,16.73,4.83,28.29-15.4,27.06-23.61-.75-13.57,3.64-4.29c0,0,1.15,2.65,6.79-3.58s6.58-6.37,9-4.23,3.67,11-4.23,15.33S120,171.78,116.76,175,90.63,209.43,75.5,200A191.29,191.29,0,0,1,48.93,180S47.29,165.14,57.66,166.86Z"/><path class="cls-2" d="M81.72,202.76A12.66,12.66,0,0,1,75,200.87a192.88,192.88,0,0,1-26.72-20.21l-.26-.24,0-.36c0-.33-.85-8,2.71-12,1.71-1.91,4.13-2.64,7.14-2.14l.27,0,.21.19L71.76,178s6.83,5.55,12.39,5.55a6.05,6.05,0,0,0,3.2-.83c.75-.45,1.73-1,2.87-1.68,7.4-4.31,24.71-14.38,23.73-21-1.23-8.2-.22-9.38.11-9.76a1.43,1.43,0,0,1,1.1-.52c1,0,2.13.92,4.27,5.44,0,0,0,0,.17,0,.37,0,1.81-.27,5-3.82,3.71-4.09,5.55-5.8,7.38-5.8a4.62,4.62,0,0,1,3,1.5c1.58,1.39,2.44,4.49,2.11,7.55a12,12,0,0,1-6.5,9.35A34.26,34.26,0,0,0,119.9,173c-.82,1-1.6,1.87-2.46,2.72-.4.4-1.19,1.33-2.18,2.51C109,185.54,94.49,202.76,81.72,202.76ZM49.86,179.5A193,193,0,0,0,76,199.22a10.64,10.64,0,0,0,5.71,1.61c11.88,0,26.54-17.36,32.06-23.89,1.07-1.27,1.84-2.18,2.29-2.63.81-.8,1.57-1.68,2.37-2.61a35.86,35.86,0,0,1,11.23-9.38,10.07,10.07,0,0,0,5.5-7.86c.31-2.73-.52-5.07-1.46-5.89s-1.29-1-1.7-1c-1.06,0-3,1.89-5.95,5.16-2.72,3-4.83,4.46-6.46,4.46a2.06,2.06,0,0,1-1.93-1.14,20,20,0,0,0-2.28-4c-.17,1-.19,3.28.48,7.74,1.17,7.87-15.64,17.65-24.68,22.91l-2.84,1.67a8,8,0,0,1-4.2,1.1c-6.25,0-13.34-5.76-13.64-6l-13.28-11.7a5.4,5.4,0,0,0-5.11,1.57C49.53,172.23,49.75,178,49.86,179.5Z"/><path class="cls-5" d="M53.72,189.06l16.8-15.75S52.05,150.75,42.38,162.2,53.72,189.06,53.72,189.06Z"/><path class="cls-2" d="M53.72,190a.93.93,0,0,1-.57-.19c-.54-.39-13-9.67-14.2-19.49a11.1,11.1,0,0,1,2.69-8.78A9.45,9.45,0,0,1,49.1,158c10,0,21.68,14.11,22.17,14.71a1,1,0,0,1-.09,1.31l-16.8,15.75A.93.93,0,0,1,53.72,190ZM49.1,159.92a7.51,7.51,0,0,0-6,2.9,9.16,9.16,0,0,0-2.24,7.3c.93,7.8,10.25,15.66,12.79,17.67l15.52-14.55C66.72,170.42,57,159.92,49.1,159.92Z"/><path class="cls-2" d="M127.83,138.32a.93.93,0,0,1-.5-.14,1,1,0,0,1-.33-1.32,8.24,8.24,0,0,0,.45-6.94,8,8,0,0,0-5.46-5.27,1,1,0,0,1,.42-1.89,9.93,9.93,0,0,1,6.87,6.51,10.17,10.17,0,0,1-.62,8.58A1,1,0,0,1,127.83,138.32Z"/><path class="cls-2" d="M136,139.52a.87.87,0,0,1-.49-.14,1,1,0,0,1-.34-1.32,14.6,14.6,0,0,0,.83-12.29c-1.72-4.81-5.45-8.39-9.72-9.34a1,1,0,0,1-.74-1.16,1,1,0,0,1,1.16-.73c4.91,1.09,9.18,5.15,11.12,10.58a16.49,16.49,0,0,1-1,13.93A1,1,0,0,1,136,139.52Z"/><path class="cls-1" d="M214.89,200.59s-2.42,4.19-4.79,2.26-8.81-4.57-8-9.84-1.22-11-3.6-4.85c-1.83,4.73-4.19,2.79-6.56,1.08-5.4-3.93-14.6.7-8.6,5.75,5.16,4.34,10.54,2,13.23,4.88,3.76,4.07,11.88,13,16.5,9.72a63.77,63.77,0,0,0,5.86-4.49Z"/><path class="cls-2" d="M210.76,211.28h0c-5,0-11.28-6.82-14.66-10.48l-.25-.27c-1-1.06-2.53-1.26-4.48-1.52-2.51-.32-5.63-.73-8.66-3.27-2.68-2.26-2.46-4.31-2.08-5.33.77-2.13,3.49-3.61,6.62-3.61a8.88,8.88,0,0,1,5.25,1.65l.24.18c1,.75,2.1,1.53,2.89,1.53s1.36-.79,2-2.35c.54-1.41,1.44-3.29,2.93-3.29a1.81,1.81,0,0,1,1.41.71c1.13,1.31,1.61,4.72,1.12,7.93-.54,3.54,2.9,5.76,5.66,7.55a23.61,23.61,0,0,1,2,1.39,1.14,1.14,0,0,0,.71.29c1,0,2.19-1.54,2.62-2.28l.67-1.16,5.54,6.21-.67.64a64,64,0,0,1-6,4.58A4.77,4.77,0,0,1,210.76,211.28Zm-23.51-22.54c-2.25,0-4.32,1-4.8,2.33s.57,2.4,1.5,3.18c2.6,2.18,5.29,2.53,7.67,2.85,2.15.28,4.19.54,5.65,2.12l.25.27c3,3.2,9.11,9.85,13.24,9.85a2.86,2.86,0,0,0,1.74-.54c2.71-1.94,4.25-3.14,5-3.79L215,202.15c-.76.95-2,2.18-3.55,2.18a3,3,0,0,1-1.94-.73,21.85,21.85,0,0,0-1.83-1.27c-2.89-1.86-7.25-4.68-6.52-9.46.48-3.17-.16-5.79-.64-6.35a5.19,5.19,0,0,0-1.11,2c-.34.89-1.38,3.59-3.76,3.59-1.42,0-2.75-1-4-1.9l-.23-.17A7,7,0,0,0,187.25,188.74Z"/><path class="cls-2" d="M146.33,138a1,1,0,0,1-.5-.14,1,1,0,0,1-.34-1.33c2.64-4.39,3-10.29,1.07-15.78-2.21-6.17-7-10.76-12.49-12a1,1,0,1,1,.42-1.88c6.13,1.36,11.46,6.43,13.89,13.22,2.16,6,1.7,12.54-1.22,17.42A1,1,0,0,1,146.33,138Z"/><path class="cls-2" d="M194.83,173.86a1,1,0,0,1-.93-.7,8.54,8.54,0,0,1,2.1-7.89,8.83,8.83,0,0,1,6.74-3.06,1,1,0,0,1,.93,1,1,1,0,0,1-1,.93,6.84,6.84,0,0,0-5.23,2.42,6.59,6.59,0,0,0-1.68,6.06,1,1,0,0,1-.66,1.2A1.26,1.26,0,0,1,194.83,173.86Z"/><path class="cls-2" d="M187,174a1,1,0,0,1-.93-.71c-1.19-4.14.11-9,3.39-12.69a14.2,14.2,0,0,1,10.89-5,1,1,0,0,1,.93,1,1,1,0,0,1-1,.92,12.18,12.18,0,0,0-9.36,4.31c-2.85,3.2-4,7.36-3,10.88a1,1,0,0,1-.66,1.2A1.26,1.26,0,0,1,187,174Z"/><path class="cls-2" d="M178.11,171.32a1,1,0,0,1-.93-.7c-1.49-5.17.14-11.24,4.24-15.84A17.67,17.67,0,0,1,195,148.59a1,1,0,0,1,.93,1,1,1,0,0,1-1,.93,15.74,15.74,0,0,0-12,5.55c-3.66,4.11-5.13,9.48-3.82,14a1,1,0,0,1-.67,1.2A1.17,1.17,0,0,1,178.11,171.32Z"/><path class="cls-6" d="M224.34,191.83l-10.9,8.06,5.45,6.67,3.15-3.07-4.63,23.71s-1.34,6.28,7.8,7.41,30.42,1.83,29.83-4.13-5.48-16.34-5.48-16.34l2.09-.81s-2.42-11.4-4.89-16.34a7.32,7.32,0,0,0-9.57-3.44C235.64,194.52,224.34,191.83,224.34,191.83Z"/><path class="cls-2" d="M238.29,236.34a115.07,115.07,0,0,1-13.2-.77c-3.55-.43-6.07-1.67-7.49-3.67a6.65,6.65,0,0,1-1.13-4.91l4-20.65L218.81,208,212,199.72l12.09-8.93.44.1c.08,0,8,1.9,11.3,1.9a2.68,2.68,0,0,0,.84-.08,6.83,6.83,0,0,1,3.39-.77,8.21,8.21,0,0,1,7.53,4.62c2.5,5,4.87,16.1,5,16.57l.17.8-1.9.74c1.22,2.73,4.63,10.65,5.13,15.71a3.27,3.27,0,0,1-.88,2.58C253.08,235.2,247.42,236.34,238.29,236.34Zm-14.71-35.7-5.22,26.74a4.71,4.71,0,0,0,.83,3.42c1.1,1.53,3.17,2.49,6.14,2.85a113.12,113.12,0,0,0,13,.76c8.2,0,13.81-1,15.39-2.75a1.35,1.35,0,0,0,.4-1.09c-.57-5.73-5.35-15.92-5.4-16l-.44-1,2.29-.88c-.6-2.66-2.62-11.27-4.63-15.3a6.22,6.22,0,0,0-5.8-3.54,5,5,0,0,0-2.39.49,3.46,3.46,0,0,1-1.84.36c-3.07,0-9.55-1.45-11.31-1.85l-9.73,7.19,4.14,5.06Z"/><path class="cls-1" d="M242.42,213.53l-.71,1.9s-11.5-3.93-12.52-5.22-1.86-4.84-1.84-6.24-2.14-3.17-2.95,0,1.88,4.47-7.47,8.23-2.63,4.94-1,5,9.78-2.1,12-.65,14.9,10.16,19.18,4.79C252,215.23,250,213,250,213Z"/><path class="cls-2" d="M243,224c-3.69,0-8.86-2.19-15.37-6.51l-.26-.17a4,4,0,0,0-2.08-.34,41.55,41.55,0,0,0-6.36.75,23,23,0,0,1-2.95.4c-.14,0-4.46-.18-4.85-2.35-.27-1.52,1.36-2.88,5.45-4.52,6.65-2.67,6.66-3.77,6.68-5.43a8.09,8.09,0,0,1,.21-2.13c.56-2.18,1.73-2.5,2.37-2.5a2.3,2.3,0,0,1,1.62.72,2.9,2.9,0,0,1,.86,2,13.46,13.46,0,0,0,1.63,5.63c.65.68,6.14,2.84,11.19,4.59l.59-1.59,8.68-.63.32.36c.25.29,2.34,3-2.88,9.6A5.87,5.87,0,0,1,243,224Zm-17.71-9a5.65,5.65,0,0,1,3.15.67l.26.17c6.19,4.1,11,6.18,14.3,6.18a4,4,0,0,0,3.34-1.37c3.08-3.87,3.19-5.93,3-6.74l-6.27.46-.81,2.19-.89-.3c-3.54-1.2-11.89-4.16-13-5.53-1.23-1.55-2.06-5.36-2.05-6.84a1,1,0,0,0-.55-.8s-.26.15-.49,1a6.51,6.51,0,0,0-.16,1.67c0,2.52-.41,4.21-7.89,7.22-3.32,1.33-4.06,2.15-4.22,2.39a6.37,6.37,0,0,0,2.87.74h0a24.07,24.07,0,0,0,2.65-.37A43.42,43.42,0,0,1,225.28,215.08Z"/><path class="cls-1" d="M227.52,192.63s-1.08,4.2,2.15,5.33,7.12-1.22,7.59-4.1-9.15-3.1-9.53-1.23"/><path class="cls-2" d="M231.4,199.21a6.12,6.12,0,0,1-2.05-.34c-3.21-1.13-3.22-4.73-2.77-6.48l1.88.49-.94-.25.94.24c0,.14-.81,3.35,1.53,4.17a5,5,0,0,0,4.16-.55,4.27,4.27,0,0,0,2.16-2.79c0-.26-.5-.55-.66-.62-2.2-1.07-6.45-.75-7-.12a.22.22,0,0,0,.06-.13l-1.89-.38c.45-2.27,5.38-2.16,7.55-1.77,3.88.7,4,2.56,3.88,3.33a6.18,6.18,0,0,1-3.07,4.15A7.44,7.44,0,0,1,231.4,199.21Z"/><path class="cls-3" d="M218.4,133.54s-8.55,1.45-6.61,6.13,33.32,24.42,33.32,24.42L239,183.21l5.48,6.93A4.66,4.66,0,0,0,249,195c4.68.32,21.28-5.32,23.54-17.41s3.87-37.26-9.67-44S218.4,133.54,218.4,133.54Z"/><path class="cls-2" d="M249.44,196H249a5.5,5.5,0,0,1-5.41-5.47l-5.6-7.07,6-18.9c-5.27-3.33-31.16-19.88-33.06-24.47a3.9,3.9,0,0,1,.12-3.53c1.59-2.89,6.65-3.83,7.22-3.92a147.71,147.71,0,0,1,27.11-3c7.81,0,13.86,1.05,18,3.11,16.54,8.27,10.89,41.33,10.19,45.07C271.16,190.48,254.43,196,249.44,196Zm-9.32-13,5.38,6.81v.36A3.65,3.65,0,0,0,249.1,194c4,.28,20.34-4.87,22.53-16.63a86.18,86.18,0,0,0,1.08-23.72c-1.16-10-4.61-16.45-10.24-19.26-3.85-1.93-9.62-2.91-17.12-2.91a145.64,145.64,0,0,0-26.74,3c-1.35.23-4.93,1.19-5.9,2.95a2,2,0,0,0,0,1.86c1.33,3.2,20.91,16.4,32.94,24l.64.4Z"/><path class="cls-1" d="M216.34,144s-2.9,9.35-6.77,14.67-4.52,10.33-2.76,18.06c1.09,4.78,7.23,16,30.45,17.14a11.47,11.47,0,0,0,7.14-3s12.89-1.23,12.73-8.19-8.06-4.06-11.45-1.48c0,0-.64-1.77.81-12.25,1.13-4.84-1.77-5.81-6.28-9.36S216.34,144,216.34,144Z"/><path class="cls-2" d="M237.28,194.82h0c-26.29-1.28-30.76-15.12-31.39-17.88-1.85-8.13-1-13.41,2.91-18.85,3.74-5.13,6.61-14.3,6.63-14.39l.38-1.2,1.06.67c.79.49,19.45,12.16,24,15.7.76.6,1.47,1.12,2.13,1.6,3.24,2.38,5.58,4.1,4.51,8.74a73.76,73.76,0,0,0-.93,10.32,14.08,14.08,0,0,1,6.62-2.12c3.08,0,4.89,1.93,5,5.29.17,7.2-11.16,8.89-13.29,9.14A12.22,12.22,0,0,1,237.28,194.82Zm-20.41-49.35c-.92,2.72-3.39,9.46-6.52,13.76-3.62,5-4.33,9.67-2.6,17.28.58,2.52,4.7,15.17,29.54,16.38a10.35,10.35,0,0,0,6.43-2.67L244,190l.33,0c.12,0,12-1.22,11.87-7.21-.06-2.31-1-3.39-3-3.39a13.15,13.15,0,0,0-6.86,2.66l-1,.8-.45-1.24c-.12-.33-.66-2.51.75-12.71.81-3.49-.52-4.47-3.75-6.83-.67-.49-1.4-1-2.17-1.64C235.79,157.39,221,148,216.87,145.47Z"/><polyline class="cls-6" points="238.59 205.59 241.49 213.6 251.06 212.9"/><polygon class="cls-2" points="240.83 214.62 237.68 205.92 239.5 205.26 242.16 212.58 250.99 211.93 251.13 213.86 240.83 214.62"/></svg>