<?xml version="1.0" encoding="utf-8"?>
<!-- Generator: Adobe Illustrator 16.0.0, SVG Export Plug-In . SVG Version: 6.00 Build 0)  -->
<!DOCTYPE svg PUBLIC "-//W3C//DTD SVG 1.1//EN" "http://www.w3.org/Graphics/SVG/1.1/DTD/svg11.dtd">
<svg version="1.1" id="Layer_1" xmlns="http://www.w3.org/2000/svg" xmlns:xlink="http://www.w3.org/1999/xlink" x="0px" y="0px"
	 width="500px" height="500px" viewBox="0 0 500 500" enable-background="new 0 0 500 500" xml:space="preserve">
<g id="Layer_1_copy_70">
	<g>
		<g>
			<path fill="#26A26B" d="M387.501,203.041c0,0-19.848-2.744-20.458-31.223l2.431-79.254c0,0,2.181-6.749-8.86-7.486
				c-11.046-0.743-20.128-0.542-20.128-0.542s-11.809-1.842-11.311,10.854l-0.016,72.311c0,0-1.008,31.26-13.862,33.278
				c-19.38,3.059,42.286,23.77,42.286,23.77L387.501,203.041z"/>
			<path fill="#2C2010" d="M356.191,228.889c-49.81-16.73-49.272-23.157-49.012-26.251c0.186-2.214,1.626-5.05,7.433-5.969
				c6.316-0.99,9.812-17.958,10.182-28.967l0.022-72.138c-0.191-4.832,1.058-8.68,3.707-11.438c2.508-2.611,6.218-4.047,10.44-4.047
				c0.746,0,1.354,0.047,1.741,0.088c0.469-0.009,1.444-0.021,2.82-0.021c4.018,0,10.293,0.1,17.379,0.576
				c5.521,0.37,9.396,2.143,11.518,5.269c1.657,2.444,1.814,5.239,1.402,7.178l-2.421,78.669
				c0.566,24.05,16.069,26.779,16.697,26.878l10.742,1.484l-40.522,29.405L356.191,228.889z M362.677,171.912V171.8l2.453-79.988
				l0.19-0.591c0,0-0.058-0.227-0.127-0.332c-0.296-0.44-1.658-1.24-4.873-1.455c-7.209-0.484-13.616-0.555-16.794-0.555
				c-1.843,0-2.927,0.021-2.948,0.023l-0.391,0.001l-0.337-0.047c-0.31-0.042-3.393-0.389-5.034,1.32
				c-1.17,1.22-1.34,3.416-1.272,5.216l-0.021,72.452c-0.177,5.407-1.678,30.949-14.412,36.536
				c7.139,4.1,23.104,10.501,37.732,15.511l21.748-15.78C371.742,200.047,363.09,191.125,362.677,171.912z"/>
		</g>
		<g>
			<path fill="#F15B68" d="M345.575,196.807l41.851,0.566c0,0,13.979-1.382,14.771,15.305c0.791,16.685-2.623,228.656-2.623,228.656
				s1.013,14.339-19.46,24.119c-20.472,9.787-65.717-0.438-65.717-0.438s-22.887-7.478-21.424-28.472
				c1.459-20.994,3.121-225.939,3.121-225.939s1.555-16.098,19.116-14.876C332.825,196.945,345.575,196.807,345.575,196.807z"/>
			<path fill="#2C2010" d="M313.436,469.271l-0.395-0.108c-9.032-2.948-25.764-13.629-24.423-32.925
				c1.437-20.624,3.093-223.622,3.108-225.667l0.021-0.385c0.654-6.829,6.328-20.055,23.761-18.819
				c14.452,1.003,25.736,1.077,28.847,1.077l1.275-0.002l41.663,0.564c0.203-0.013,0.511-0.026,0.903-0.026
				c8.043,0,17.677,5.103,18.358,19.487c0.784,16.573-2.457,218.666-2.623,228.824c0.068,2.296-0.328,17.778-21.937,28.1
				c-6.474,3.101-15.614,4.666-27.165,4.666C334.843,474.057,314.294,469.467,313.436,469.271z M387.854,201.717l-0.239,0.024
				l-41.995-0.566l-1.264,0.002c-4.078,0-15.12-0.104-29.45-1.1c-0.54-0.035-1.055-0.054-1.561-0.054
				c-10.954,0-12.673,9.222-12.89,10.854c-0.091,11.274-1.687,205.245-3.128,225.97c-1.152,16.6,16.182,23.229,18.248,23.954
				c2.244,0.491,21.293,4.524,39.257,4.524c10.236,0,18.11-1.279,23.398-3.812c17.248-8.241,17.002-19.459,16.981-19.868
				l-0.012-0.191l0.004-0.188c0.033-2.118,3.401-212.022,2.626-228.385c-0.436-9.231-5.48-11.17-9.634-11.17
				C388,201.709,387.869,201.717,387.854,201.717z"/>
		</g>
	</g>
	<g>
		<g>
			<path fill="#FFFFFF" d="M340.552,398.754c0,40.117-32.541,72.662-72.659,72.662c-40.138,0-72.679-32.545-72.679-72.662
				c0-40.141,32.541-72.683,72.679-72.683C308.011,326.072,340.552,358.614,340.552,398.754z"/>
			<path fill="#0C0A08" d="M267.893,474.057c-41.53,0-75.319-33.777-75.319-75.303c0-41.538,33.79-75.331,75.319-75.331
				c41.519,0,75.301,33.793,75.301,75.331C343.192,440.279,309.41,474.057,267.893,474.057z M267.893,328.716
				c-38.618,0-70.035,31.419-70.035,70.038c0,38.609,31.417,70.014,70.035,70.014c38.606,0,70.012-31.403,70.012-70.014
				C337.903,360.135,306.499,328.716,267.893,328.716z"/>
		</g>
		<g>
			<g>
				<path fill="#060508" d="M280.811,404.82l23.394-21.443l22.001,15.455c0,0,4.178,17.128-9.188,32.724l-28.963,2.22
					L280.811,404.82z"/>
			</g>
			<g>
				<path fill="#060508" d="M240.989,363.33l7.799,29.513l-23.111,19.216l-22-14.76c0,0,2.225-25.34,9.746-31.188L240.989,363.33z"
					/>
			</g>
			<g>
				<path fill="#060508" d="M311.376,342.02l-15.245,10.655l-29.236-10.655l-3.59-15.803l26.37,3.178
					C289.675,329.395,309.913,337.012,311.376,342.02z"/>
			</g>
			<g>
				<path fill="#060508" d="M221.115,454.356l12.146-9.156l31.956,11.069l5.639,15.146c0,0-22.961-0.729-27.875-4.385
					C238.066,463.374,221.115,454.356,221.115,454.356z"/>
			</g>
		</g>
		<g>
			<polygon fill="#0C0A08" points="325.552,402.354 303.048,390.165 289.902,339.238 270.837,339.238 238.769,368.391 
				213.235,370.604 203.578,360.562 207.39,356.898 215.29,365.118 236.532,363.275 268.789,333.951 294.001,333.951 
				307.591,386.609 325.188,396.141 338.05,387.066 341.096,391.389 			"/>
		</g>
		<g>
			<polygon fill="#0C0A08" points="264.01,458.962 232.949,452.013 222.672,408.346 212.277,394.721 195.889,403.661 
				193.357,399.018 213.73,387.906 227.563,406.031 237.34,447.576 262.25,453.15 288.471,425.755 288.471,408.365 280.523,407.704 
				280.195,407.583 241.973,393.801 243.765,388.823 281.659,402.493 293.76,403.498 293.76,427.876 			"/>
		</g>
		<g>
			<polygon fill="#0C0A08" points="319.076,447.623 313.229,427.993 318.297,426.487 324.146,446.115 			"/>
		</g>
	</g>
	<g>
		<g>
			<polygon fill="#9FDCF3" points="238.332,84.928 247.452,33.472 264.257,29.216 267.494,41.989 283.729,38.309 287.746,54.175 
				300.419,51.108 304.725,68.114 263.425,101.655 242.058,95.216 			"/>
			<path fill="#2C2010" d="M285.49,35.546c0.678,0.436,1.197,1.118,1.412,1.96l3.22,12.722l9.527-2.304
				c1.74-0.422,3.503,0.636,3.941,2.378l4.308,17.006c0.312,1.234-0.12,2.541-1.11,3.346l-41.296,33.541
				c-0.846,0.683-1.975,0.905-3.01,0.594l-21.37-6.439c-0.991-0.298-1.786-1.046-2.138-2.02l-3.719-10.293
				c-0.199-0.537-0.246-1.12-0.15-1.684l9.12-51.451c0.229-1.27,1.174-2.289,2.423-2.603l16.81-4.26
				c0.836-0.21,1.732-0.08,2.475,0.363c0.762,0.405,1.287,1.168,1.498,2.01l2.452,9.676l13.121-2.973
				C283.887,34.914,284.777,35.094,285.49,35.546z M285.988,56.937c-0.684-0.433-1.205-1.115-1.418-1.959l-3.228-12.769
				l-13.129,2.973c-1.733,0.397-3.458-0.67-3.894-2.392l-2.432-9.595l-11.583,2.933l-8.598,48.506l2.866,7.92l18.133,5.466
				l38.329-31.131l-2.992-11.838l-9.529,2.305C287.615,57.573,286.711,57.397,285.988,56.937z"/>
		</g>
		<g>
			<path fill="#9FDCF3" d="M232.103,102.82c-1.781-7.039,0.911-14.099,6.229-17.892c1.505-1.073,25.381,14.573,25.093,16.728
				c-0.862,6.458-5.319,11.959-11.723,13.585C243.165,117.402,234.388,111.839,232.103,102.82z"/>
			<path fill="#2C2010" d="M250.758,87.661c16.439,10.458,16.137,12.752,15.911,14.421c-1.071,8.014-6.631,14.423-14.16,16.333
				c-5.022,1.269-10.256,0.402-14.73-2.446c-4.396-2.797-7.537-7.182-8.85-12.343c-2.051-8.11,0.965-16.701,7.502-21.367
				C238.188,81.006,239.717,80.641,250.758,87.661z M259.975,102.38c-1.617-1.543-6.254-5.067-12.731-9.192
				c-4.01-2.555-6.721-4.035-8.129-4.691c-3.571,3.249-5.104,8.5-3.838,13.517c0.897,3.54,3.031,6.533,6.013,8.431
				c2.942,1.866,6.354,2.442,9.615,1.617C255.457,110.909,258.919,107.171,259.975,102.38z"/>
		</g>
		<g>
			<line fill="none" x1="280.908" y1="87.457" x2="242.145" y2="63.414"/>
			<path fill="#2C2010" d="M282.668,84.693c1.512,0.96,1.969,2.96,1.023,4.487c-0.953,1.538-2.971,2.011-4.51,1.058l-38.761-24.039
				c-0.014-0.008-0.021-0.013-0.037-0.022c-1.508-0.96-1.966-2.962-1.021-4.489c0.95-1.538,2.971-2.01,4.51-1.058l38.761,24.04
				C282.646,84.679,282.657,84.687,282.668,84.693z"/>
		</g>
		<g>
			<line fill="none" x1="292.039" y1="78.416" x2="244.863" y2="48.073"/>
			<path fill="#2C2010" d="M246.619,45.312c0.005,0,0.011,0.003,0.016,0.007l47.176,30.343c1.521,0.977,1.961,3,0.985,4.526
				c-0.978,1.515-2.994,1.958-4.514,0.99c-0.005-0.006-0.011-0.006-0.015-0.009l-47.18-30.341c-1.519-0.977-1.957-3.005-0.982-4.524
				C243.083,44.786,245.101,44.345,246.619,45.312z"/>
		</g>
		<g>
			<line fill="none" x1="287.746" y1="54.175" x2="254.089" y2="93.792"/>
			<path fill="#2C2010" d="M289.499,51.41c0.127,0.077,0.248,0.17,0.367,0.27c1.376,1.168,1.545,3.235,0.375,4.612l-33.659,39.617
				c-1.17,1.383-3.227,1.563-4.613,0.375c-1.377-1.17-1.546-3.233-0.371-4.61l33.654-39.621
				C286.32,50.793,288.141,50.545,289.499,51.41z"/>
		</g>
		<g>
			<line fill="none" x1="267.494" y1="41.989" x2="247.175" y2="89.283"/>
			<path fill="#2C2010" d="M269.254,39.229c1.333,0.846,1.887,2.556,1.249,4.051l-20.316,47.297
				c-0.713,1.661-2.641,2.43-4.303,1.716c-1.657-0.704-2.431-2.639-1.719-4.299l20.321-47.296c0.709-1.662,2.642-2.429,4.299-1.718
				C268.951,39.05,269.107,39.135,269.254,39.229z"/>
		</g>
	</g>
	<g>
		<g>
			<path fill="#62CBE7" d="M220.706,156.363c0,49.866-34.634,90.283-77.379,90.283c-42.728,0-77.363-40.417-77.363-90.283
				c0-49.865,34.636-90.29,77.363-90.29C186.072,66.073,220.706,106.498,220.706,156.363z"/>
			<path fill="#2C2010" d="M143.327,249.756c-44.369,0-80.465-41.895-80.465-93.393c0-51.5,36.096-93.396,80.465-93.396
				c44.381,0,80.485,41.897,80.485,93.396C223.812,207.862,187.708,249.756,143.327,249.756z M143.327,69.181
				c-40.947,0-74.257,39.108-74.257,87.183c0,48.071,33.31,87.187,74.257,87.187c40.953,0,74.273-39.115,74.273-87.187
				C217.601,108.289,184.28,69.181,143.327,69.181z"/>
		</g>
		<g>
			<line fill="none" x1="96.607" y1="82.999" x2="96.607" y2="229.239"/>
			<rect x="93.501" y="82.999" fill="#2C2010" width="6.211" height="146.24"/>
		</g>
		<g>
			<line fill="none" x1="193.668" y1="87.794" x2="193.668" y2="224.905"/>
			<rect x="190.566" y="87.794" fill="#2C2010" width="6.208" height="137.11"/>
		</g>
		<g>
			<line fill="none" x1="128.66" y1="65.83" x2="128.66" y2="246.408"/>
			<rect x="125.558" y="65.83" fill="#2C2010" width="6.213" height="180.579"/>
		</g>
		<g>
			<line fill="none" x1="164.604" y1="69.327" x2="164.604" y2="243.398"/>
			<rect x="161.502" y="69.327" fill="#2C2010" width="6.211" height="174.071"/>
		</g>
		<g>
			<line fill="none" x1="81.16" y1="210.204" x2="206.043" y2="210.204"/>
			<rect x="81.16" y="207.096" fill="#2C2010" width="124.883" height="6.209"/>
		</g>
		<g>
			<line fill="none" x1="71.419" y1="124.88" x2="216.464" y2="124.88"/>
			<rect x="71.419" y="121.772" fill="#2C2010" width="145.045" height="6.214"/>
		</g>
		<g>
			<line fill="none" x1="85.827" y1="95.966" x2="200.845" y2="95.966"/>
			<rect x="85.827" y="92.86" fill="#2C2010" width="115.018" height="6.212"/>
		</g>
		<g>
			<line fill="none" x1="67.446" y1="181.599" x2="218.682" y2="181.599"/>
			<rect x="67.446" y="178.491" fill="#2C2010" width="151.235" height="6.21"/>
		</g>
		<g>
			<line fill="none" x1="66.593" y1="152.685" x2="220.805" y2="152.685"/>
			<rect x="66.593" y="149.578" fill="#2C2010" width="154.212" height="6.21"/>
		</g>
		<g>
			<line fill="none" x1="143.121" y1="246.646" x2="143.121" y2="388.682"/>
			<rect x="140.015" y="246.646" fill="#2C2010" width="6.213" height="142.036"/>
		</g>
		<g>
			<path fill="#522626" d="M159.346,442.5c-0.125,6.974-5.128,12.548-11.179,12.435l-11.269-0.197
				c-6.047-0.113-10.856-5.849-10.729-12.821l1.156-65.259c0.123-6.978,5.126-12.544,11.175-12.441l11.278,0.204
				c6.043,0.105,10.849,5.846,10.721,12.822L159.346,442.5z"/>
			<path fill="#2C2010" d="M148.336,458.044h-0.226l-11.268-0.197c-7.75-0.145-13.933-7.315-13.779-15.988l1.156-65.259
				c0.15-8.539,6.486-15.492,14.115-15.492l0.221,0.008l11.276,0.197c3.837,0.068,7.391,1.824,10.001,4.948
				c2.513,2.998,3.849,6.919,3.777,11.044l-1.156,65.246C162.298,451.097,155.966,458.044,148.336,458.044z M138.447,367.322
				c-4.382,0-7.926,4.213-8.016,9.386l-1.159,65.259c-0.09,5.249,3.354,9.588,7.683,9.664l11.269,0.203l0.112,3.107v-3.105
				c4.264,0,7.811-4.213,7.903-9.393l1.155-65.254c0.049-2.627-0.776-5.097-2.326-6.941c-1.436-1.721-3.338-2.688-5.346-2.727
				L138.447,367.322L138.447,367.322z"/>
		</g>
	</g>
</g>
</svg>
