<?xml version="1.0" encoding="utf-8"?>
<!-- Generator: Adobe Illustrator 16.0.0, SVG Export Plug-In . SVG Version: 6.00 Build 0)  -->
<!DOCTYPE svg PUBLIC "-//W3C//DTD SVG 1.1//EN" "http://www.w3.org/Graphics/SVG/1.1/DTD/svg11.dtd">
<svg version="1.1" id="Layer_1" xmlns="http://www.w3.org/2000/svg" xmlns:xlink="http://www.w3.org/1999/xlink" x="0px" y="0px"
	 width="500px" height="500px" viewBox="0 0 500 500" enable-background="new 0 0 500 500" xml:space="preserve">
<g id="Layer_1_copy_26">
	<g>
		<path fill="#61BB4C" d="M315.066,398.079c-10.062-28.586,4.396-86.858,4.396-86.858l-0.159-119.083c0,0,1.992-22.695-7.94-35.736
			c-31.238-36.792-29.587-90.966-29.587-90.966l-24.062-15.71l-24.067,15.71c0,0,1.654,54.174-29.581,90.966
			c-9.933,13.041-7.941,35.736-7.941,35.736l-0.165,119.083c0,0,14.458,58.272,4.398,86.858
			c-10.057,28.589-9.531,59.215,1.061,71.169c10.585,11.95,23.198,11.95,32.247,3.48c7.722,13.497,24.049,12.439,24.049,12.439
			s17.024,1.723,24.047-12.439c9.045,8.47,21.659,8.47,32.244-3.48C324.594,457.293,325.123,426.667,315.066,398.079z"/>
		<path fill="#3C2517" d="M259.462,487.485c-0.876,0-1.498-0.039-1.79-0.062c-0.162,0.01-0.436,0.018-0.799,0.018
			c-3.821,0-16.226-0.86-23.713-11.331c-4.127,3.179-8.782,4.846-13.605,4.846c-7.052,0-13.903-3.532-19.82-10.215
			c-11.153-12.584-11.796-44.145-1.503-73.407c9.724-27.632-4.316-84.995-4.459-85.571c-0.046-0.183-0.064-0.361-0.064-0.541
			l0.162-119.083c-0.072-0.766-1.94-23.522,8.4-37.102c30.37-35.774,29.144-88.998,29.128-89.533
			c-0.022-0.782,0.363-1.525,1.021-1.953l24.064-15.711c0.744-0.486,1.709-0.486,2.459,0l24.062,15.711
			c0.658,0.428,1.04,1.171,1.021,1.953c-0.021,0.535-1.245,53.759,29.05,89.438c10.416,13.673,8.547,36.43,8.467,37.394
			l0.171,118.884c0,0.182-0.021,0.359-0.063,0.541c-0.144,0.577-14.183,57.95-4.46,85.572c10.296,29.26,9.649,60.82-1.496,73.407
			c-5.92,6.683-12.777,10.215-19.823,10.215c-0.004,0-0.004,0-0.004,0c-4.777,0-9.394-1.638-13.491-4.759
			C275.837,486.327,264.354,487.485,259.462,487.485z M257.71,482.915c0.078,0,0.156,0.006,0.229,0.013
			c0.049,0.003,0.606,0.057,1.521,0.057c4.421,0,15.243-1.102,20.284-11.258c0.313-0.639,0.911-1.09,1.612-1.217
			c0.688-0.126,1.425,0.084,1.942,0.574c3.747,3.51,8.095,5.365,12.566,5.365c0,0,0,0,0.004,0c5.722,0,11.409-3.004,16.453-8.693
			c9.975-11.27,10.25-41.549,0.616-68.927c-9.921-28.19,3.077-83,4.27-87.884l-0.162-118.801c0.029-0.419,1.797-22.198-7.48-34.379
			c-29.078-34.243-30.123-82.487-30.064-91.123l-21.789-14.228L235.92,66.642c0.055,8.635-0.993,56.886-30.14,91.213
			c-9.226,12.116-7.436,33.867-7.415,34.088l-0.156,119.002c1.193,4.884,14.188,59.693,4.272,87.884
			c-9.635,27.382-9.362,57.657,0.622,68.927c5.038,5.689,10.729,8.693,16.45,8.693c4.478,0,8.82-1.855,12.567-5.365
			c0.502-0.471,1.19-0.688,1.875-0.588c0.682,0.104,1.278,0.517,1.621,1.114c6.015,10.51,17.791,11.327,21.255,11.327
			C257.837,482.938,257.629,482.915,257.71,482.915z"/>
	</g>
	<g>
		<path fill="#1966B1" d="M229.125,65.078c0,0,34.943,3.176,57.178,0V29.431c0,0-30-14.822-57.178,0V65.078z"/>
		<path fill="#3C2517" d="M261.598,68.741c0,0,0,0-0.005,0c-16.845,0-32.517-1.405-32.673-1.418
			c-1.161-0.107-2.047-1.081-2.047-2.245V29.431c0-0.824,0.448-1.583,1.171-1.976c8.35-4.555,17.764-6.864,27.979-6.864
			c17.271,0,30.709,6.543,31.273,6.819c0.77,0.382,1.253,1.161,1.253,2.021v35.647c0,1.123-0.819,2.069-1.931,2.229
			C279.957,68.257,271.535,68.741,261.598,68.741z M231.376,63.002c4.752,0.376,17.128,1.236,30.217,1.236c0.005,0,0.005,0,0.005,0
			c8.783,0,16.318-0.379,22.449-1.132V30.887c-3.632-1.557-14.753-5.794-28.023-5.794c-8.974,0-17.26,1.915-24.646,5.693
			L231.376,63.002L231.376,63.002z"/>
	</g>
	<g>
		<polygon fill="#1966B1" points="196.484,178.182 318.943,178.182 319.462,311.219 195.959,311.219 		"/>
		<path fill="#3C2517" d="M319.507,313.471c-0.01,0-0.025,0-0.045,0H195.959c-0.598,0-1.175-0.236-1.597-0.662
			c-0.421-0.425-0.654-1-0.654-1.601l0.525-133.037c0.003-1.243,1.009-2.242,2.251-2.242h122.459c1.237,0,2.247,1,2.251,2.242
			l0.519,132.586c0.029,0.147,0.05,0.302,0.05,0.461C321.763,312.464,320.753,313.471,319.507,313.471z M198.22,308.968h118.984
			l-0.503-128.536H198.726L198.22,308.968z"/>
	</g>
	<g>
		<line fill="none" x1="303.647" y1="189.84" x2="303.647" y2="291.92"/>
		<path fill="#3C2517" d="M303.647,294.171c-1.245,0-2.251-1.006-2.251-2.251V189.84c0-1.246,1.006-2.251,2.251-2.251
			c1.241,0,2.251,1.005,2.251,2.251v102.08C305.898,293.166,304.89,294.171,303.647,294.171z"/>
	</g>
</g>
</svg>
