<svg id="staff_room" data-name="staff room" xmlns="http://www.w3.org/2000/svg" viewBox="0 0 300 300"><defs><style>.cls-1{fill:#bbefe0;}.cls-2{fill:#fff0cf;}.cls-3{fill:#edd69d;}.cls-10,.cls-13,.cls-14,.cls-15,.cls-16,.cls-17,.cls-18,.cls-19,.cls-20,.cls-22,.cls-23,.cls-3,.cls-4,.cls-5,.cls-6,.cls-7,.cls-8,.cls-9{stroke:#3c2415;}.cls-13,.cls-14,.cls-15,.cls-17,.cls-19,.cls-23,.cls-3{stroke-linecap:round;stroke-linejoin:round;}.cls-13,.cls-14,.cls-15,.cls-16,.cls-17,.cls-19,.cls-23,.cls-3{stroke-width:2.26px;}.cls-4{fill:#e8a6a8;}.cls-10,.cls-16,.cls-18,.cls-20,.cls-22,.cls-4,.cls-5,.cls-6,.cls-7,.cls-8,.cls-9{stroke-miterlimit:10;}.cls-4,.cls-5,.cls-6,.cls-7,.cls-9{stroke-width:1.13px;}.cls-5{fill:#f1f2f2;}.cls-19,.cls-6{fill:#27aae1;}.cls-7{fill:#00a79d;}.cls-10,.cls-8{fill:#f1ba85;}.cls-18,.cls-20,.cls-22,.cls-8{stroke-width:1.69px;}.cls-9{fill:#d7df23;}.cls-10{stroke-width:1.31px;}.cls-11{fill:#3c2415;}.cls-12{fill:#4b2718;}.cls-13{fill:#f15a29;}.cls-14,.cls-22{fill:#8b5e3c;}.cls-15{fill:#754c29;}.cls-16{fill:#e6e7e8;}.cls-17{fill:#c49a6c;}.cls-18{fill:#efc786;}.cls-20{fill:#8dc63f;}.cls-21{fill:#fff;}.cls-23{fill:none;}</style></defs><title>staff room</title><path class="cls-1" d="M276.19,151.46a125.26,125.26,0,0,1-250.52,0"/><path class="cls-2" d="M25.67,151.46a125.26,125.26,0,1,1,250.52,0"/><rect class="cls-3" x="88.19" y="50.12" width="97.24" height="69.15"/><rect class="cls-4" x="96.35" y="58.87" width="25.97" height="31.41"/><rect class="cls-5" x="112.05" y="79.11" width="24.76" height="31.41"/><rect class="cls-6" x="153.72" y="58.87" width="15.1" height="17.82"/><rect class="cls-7" x="151" y="86.96" width="20.54" height="23.55"/><path class="cls-8" d="M102.05,127.12a8.85,8.85,0,0,0,2.18,3.38c1.63,1.57-2,7.61-2,7.61l-10.57-6.72-3.48-3.26s2.77-2.48,2.92-4.19S101.78,124.35,102.05,127.12Z"/><path class="cls-9" d="M163.08,94.81a3.93,3.93,0,1,1-3.92-3.93A3.91,3.91,0,0,1,163.08,94.81Z"/><path class="cls-10" d="M90.82,122.68c-3.43-3.33-2.83-9.05-2.83-9.05l5.27-12.13,13-1.61,6.09,2.89s2.22,2.43,1.7,7.52c-.4,4,1.43,5.06,2.25,5.35.23.08.44.18.5.32.23.53.59,1.83-1.26,2.43a1.58,1.58,0,0,0-.93,2.08s4.32,11-16.32,5.83"/><path class="cls-11" d="M92.87,133.23m-2.52-10.08c-3.61-3.5-3-9.34-3-9.59a.67.67,0,0,1,0-.19l5.27-12.14a.69.69,0,0,1,.53-.39l13-1.61a.8.8,0,0,1,.37.06l6.09,2.89a.59.59,0,0,1,.2.15c.1.11,2.42,2.71,1.87,8-.35,3.51,1.14,4.42,1.81,4.65a1.41,1.41,0,0,1,.89.69,2.43,2.43,0,0,1,.07,2A2.68,2.68,0,0,1,115.8,119a.77.77,0,0,0-.49.36,1.33,1.33,0,0,0,0,.86c0,.11,1.25,3.28-.66,5.68-2.25,2.82-7.72,3.18-16.22,1.07m-.1-1.37.19,0c7.93,2,13.21,1.79,15.08-.55,1.44-1.79.47-4.36.46-4.39a2.66,2.66,0,0,1,.07-1.91,2.05,2.05,0,0,1,1.28-1,1.48,1.48,0,0,0,.92-.65,1.07,1.07,0,0,0,0-.79l-.15,0c-1-.34-3.15-1.59-2.69-6,.43-4.17-1.1-6.45-1.46-6.91l-5.78-2.74-12.48,1.53L88.65,113.8c-.06.74-.29,5.57,2.63,8.4"/><path class="cls-8" d="M112,127.23s-11.68,1.93-20.11-3.36-1.59-6.11-1.59-6.11"/><path class="cls-11" d="M89.79,123.91a4,4,0,0,1-.88-.25c-2.87-1.2-7.28-5.63-8.09-10.86-.49-3.13.11-7.87,5.74-12.63a20.75,20.75,0,0,1,16.94-4.83,25.45,25.45,0,0,1,8.88,3.09c1.42.42,5,1.47,6,1.62a.8.8,0,0,1,.69.94c-.17,1.19-3.7,3.9-6.92,3.42h0a5.15,5.15,0,0,1-1.66-.55,15.84,15.84,0,0,1-5.58.5c-.22,1.94-1.31,7.32-6.56,8.62a.68.68,0,0,1-.76-.35c-.22-.44-.86-1.38-1.43-1.47s-1,.75-1.28,1.25a3,3,0,0,0-.41,2.52,1.67,1.67,0,0,0,1.12.77.66.66,0,0,1,.55.82c-.09.33-2.08,8-6.32,7.39m13.52-27.25a19.22,19.22,0,0,0-15.89,4.52c-4.14,3.51-5.92,7.35-5.29,11.42a14.23,14.23,0,0,0,7.28,9.83,2.74,2.74,0,0,0,.57.16c2.31.35,4-3.63,4.67-5.79a2.8,2.8,0,0,1-1.39-1.26c-.5-1-.37-2.22.4-3.73s1.64-2.12,2.67-2a3.55,3.55,0,0,1,2.15,1.7c4.87-1.59,5.12-7.86,5.12-7.92a.67.67,0,0,1,.23-.48.71.71,0,0,1,.5-.17c1.16.12,4.49.24,5.87-.46a.65.65,0,0,1,.66,0,3.85,3.85,0,0,0,1.46.54h0a6.7,6.7,0,0,0,5.05-1.89c-1.81-.43-5.29-1.47-5.46-1.52a.48.48,0,0,1-.16-.08,24.46,24.46,0,0,0-8.44-2.94"/><path class="cls-12" d="M98.16,112.33s-2-4-3.91-.22,1.21,4.25,1.21,4.25-2.13,8.42-6.3,6.68-14-12.33-2.17-22.36S112.1,99,112.1,99s4.93,1.48,6.15,1.67c1,.15-3.92,4.82-7.75,2.4-1.86,1-6.23.54-6.23.54s-.23,7.23-6.11,8.68"/><path class="cls-13" d="M104.41,136.05s-2.32-5.5,2.43-4.94,4.39,6.67,4.39,6.67-2.23,14.81-.93,17.4,5,10,22.22,10.55L129.9,173s-21.08,2.34-29.23-13C94.93,147.4,104.41,136.05,104.41,136.05Z"/><path class="cls-13" d="M86.72,127.12S99,137.24,103,133.61c.79.31.59-3.15.59-3.15s1.22-2.58,3,8.44,2.72,19.85,0,29.59l-11.47,11.1s-9.56,11.73-14.78,5.24c-3.62-4.51-4.05-23.38-2.29-37.85C80.83,123.65,86.72,127.12,86.72,127.12Z"/><polygon class="cls-14" points="190.3 166.07 105.44 166.07 48.98 208.35 250.69 208.35 190.3 166.07"/><rect class="cls-15" x="48.97" y="208.35" width="201.72" height="12.68"/><polygon class="cls-16" points="92.74 189.59 140.47 189.59 142.28 169.17 108.37 169.17 92.74 189.59"/><polygon class="cls-16" points="94.86 192.96 142.6 192.96 144.41 172.54 110.49 172.54 94.86 192.96"/><polygon class="cls-16" points="96.68 196.99 144.41 196.99 146.22 176.58 112.3 176.58 96.68 196.99"/><path class="cls-17" d="M73.48,133.92s-19,1.13-17.9,13.81-2.71,27.18,10,26.27c6.81-1.58,10.87-8.38,10.87-8.38S87.74,138.67,73.48,133.92Z"/><path class="cls-17" d="M232.08,132.05s19,1.13,17.89,13.81,2.72,27.18-10,26.27c-6.81-1.58-10.87-8.38-10.87-8.38S217.81,136.8,232.08,132.05Z"/><path class="cls-8" d="M106.9,179.88a25.38,25.38,0,0,1,7.5,2.8c3.38,2,11.9,4.25,13.51-1.74s-5.48-6.66-9.33-5.6,5.15-.57,4.73-2.25-4.18-1.66-8.46.1c-1.44.48-5.17-.4-5.17-.4Z"/><path class="cls-13" d="M73.13,133.84a6.94,6.94,0,0,1,7.55-4.3c5.81.68,5.36,8.15,5.36,8.15S83.32,155.81,84.91,159s6.12,12.23,27.18,12.91L108.37,181s-25.27,2.72-35.24-16.08C66.11,149.47,73.13,133.84,73.13,133.84Z"/><path class="cls-18" d="M180.27,171.8a25.27,25.27,0,0,0-7.49,2.8c-3.39,2.05-11.91,4.25-13.52-1.74s5.48-6.65,9.33-5.6-5.16-.56-4.73-2.24,4.18-1.66,8.46.09c1.44.48,5.16-.39,5.16-.39Z"/><path class="cls-19" d="M206.79,134a5.66,5.66,0,0,0-6.17-3.52c-4.76.55-4.39,6.66-4.39,6.66s2.23,14.81.93,17.41-5,10-22.22,10.55l2.61,7.29s21.09,2.34,29.24-13C212.53,146.8,206.79,134,206.79,134Z"/><path class="cls-20" d="M149.84,145.16s6.41,11.78,6.64,24l10,22,42.9-6.31-19.4-16.68-7.42-23S156.78,146.07,149.84,145.16Z"/><line class="cls-20" x1="189.94" y1="168.15" x2="156.48" y2="169.17"/><path class="cls-21" d="M154.66,147.65s5.76,8.16,4.92,21.52l8.67,18,35.56-4.45-16.53-14.53-7-20.58Z"/><path class="cls-8" d="M203.81,127.5a2.57,2.57,0,0,1-.64,3.19c-1.62,1.56,2,7.6,2,7.6l10.57-6.72,3.47-3.25s-.6-.28-.75-2S204.08,124.73,203.81,127.5Z"/><path class="cls-18" d="M200.56,179.27a25.71,25.71,0,0,0-7.5,2.8c-3.38,2.05-11.9,4.26-13.52-1.74s5.49-6.65,9.34-5.6-5.16-.56-4.74-2.24,4.19-1.66,8.47.09c1.44.49,5.16-.39,5.16-.39Z"/><path class="cls-19" d="M220.74,126.52s-12.23,10.11-16.31,6.49c-1.53-1.83-.73-3.18-.73-3.18s-1.08-2.56-2.89,8.46-5.75,24.16-3,33.9c0,0,24.12,21.06,28.77,16.84,4.83-4.4,9.38-21.83,2.8-42.66C226.63,123,220.74,126.52,220.74,126.52Z"/><path class="cls-19" d="M234.33,133.24a6.94,6.94,0,0,0-7.55-4.31c-5.82.68-5.36,8.16-5.36,8.16s2.71,18.12,1.13,21.29-6.12,12.23-27.18,12.91l3.72,9.05s25.27,2.72,35.24-16.08C241.35,148.86,234.33,133.24,234.33,133.24Z"/><path class="cls-8" d="M219.6,113.86s3.74-3.13,4.93-.47-1.15,4.92-2.46,4.92,2.09,8.2-9.42,9.76-15.28-4.59-15.1-8.85-1.81-11-1.81-11-1-6.25,11.67-5.23,11.09-1.8,11.09-1.8Z"/><path class="cls-22" d="M217.54,96.08s9,.2,8.47,6.14a32.61,32.61,0,0,1-2.61,10.16s-3.48.3-3.8,2-1.1,1.32-1.1,1.32l-.66-3.59s.16-7.81-1.87-7.65-11.92,2.33-14.1.73-4.25,2.33-5,3.56-4.61-1.48-4.24-4.06S194.33,92.6,217.54,96.08Z"/><path class="cls-23" d="M68.06,173.15s-2.64,14.44,2,19.45"/><path class="cls-23" d="M242.1,172.54s2.13,16.36-9.47,23.16"/><rect class="cls-14" x="81.35" y="221.04" width="17.48" height="34.17"/><rect class="cls-14" x="196.85" y="221.04" width="17.48" height="34.17"/></svg>