<?xml version="1.0" encoding="utf-8"?>
<!-- Generator: Adobe Illustrator 16.0.0, SVG Export Plug-In . SVG Version: 6.00 Build 0)  -->
<!DOCTYPE svg PUBLIC "-//W3C//DTD SVG 1.1//EN" "http://www.w3.org/Graphics/SVG/1.1/DTD/svg11.dtd">
<svg version="1.1" id="Layer_1" xmlns="http://www.w3.org/2000/svg" xmlns:xlink="http://www.w3.org/1999/xlink" x="0px" y="0px"
	 width="500px" height="500px" viewBox="0 0 500 500" enable-background="new 0 0 500 500" xml:space="preserve">
<g id="Layer_1_copy_42">
	<g>
		<polygon fill="#FDEB07" points="260.327,33.58 311.798,191.98 478.342,191.98 343.602,289.877 395.065,448.276 260.327,350.387 
			125.584,448.276 177.051,289.877 42.305,191.98 208.862,191.98 		"/>
		<path fill="#27140E" d="M395.065,455.052c-1.396,0-2.789-0.437-3.979-1.3l-130.761-95.004l-130.764,95.004
			c-2.372,1.723-5.586,1.723-7.962,0c-2.372-1.729-3.364-4.78-2.462-7.572l49.955-153.715L38.327,197.459
			c-2.372-1.726-3.369-4.783-2.455-7.573c0.906-2.791,3.503-4.678,6.433-4.678h161.632l49.95-153.718
			c0.905-2.792,3.502-4.681,6.44-4.681c2.933,0,5.53,1.889,6.435,4.681l49.948,153.718h161.632c2.936,0,5.531,1.887,6.442,4.678
			c0.905,2.79-0.09,5.847-2.461,7.573l-130.767,95.006L401.51,446.18c0.901,2.792-0.089,5.844-2.457,7.572
			C397.86,454.616,396.462,455.052,395.065,455.052z M260.327,343.611c1.396,0,2.793,0.428,3.978,1.289l117.887,85.645
			L337.16,291.968c-0.903-2.792,0.089-5.849,2.461-7.573l117.881-85.643H311.798c-2.938,0-5.537-1.889-6.446-4.681L260.327,55.492
			l-45.031,138.579c-0.905,2.792-3.506,4.681-6.434,4.681H63.15l117.882,85.643c2.37,1.726,3.363,4.781,2.461,7.573l-45.028,138.577
			L256.346,344.9C257.532,344.039,258.928,343.611,260.327,343.611z"/>
	</g>
</g>
</svg>
