<?xml version="1.0" encoding="utf-8"?>
<!-- Generator: Adobe Illustrator 16.0.0, SVG Export Plug-In . SVG Version: 6.00 Build 0)  -->
<!DOCTYPE svg PUBLIC "-//W3C//DTD SVG 1.1//EN" "http://www.w3.org/Graphics/SVG/1.1/DTD/svg11.dtd">
<svg version="1.1" id="Layer_1" xmlns="http://www.w3.org/2000/svg" xmlns:xlink="http://www.w3.org/1999/xlink" x="0px" y="0px"
	 width="500px" height="500px" viewBox="0 0 500 500" enable-background="new 0 0 500 500" xml:space="preserve">
<g id="Layer_1_copy_54">
	<g>
		<g>
			<g>
				<path fill="#27140E" d="M241.483,348.663c-0.203,0-0.403-0.015-0.602-0.048c-1.351-0.215-2.477-1.139-2.958-2.422
					l-23.669-63.426c-0.685-1.832,0.139-3.888,1.901-4.744l42.732-20.664c0.83-0.4,1.776-0.484,2.664-0.241l39.619,10.942
					c1.229,0.342,2.205,1.28,2.6,2.496c0.393,1.209,0.147,2.545-0.651,3.537l-58.679,73.145
					C243.715,348.152,242.621,348.663,241.483,348.663z M222.571,283.354l20.13,53.931l50.893-63.438l-32.687-9.029L222.571,283.354
					z"/>
			</g>
			<g>
				<g>
					<path fill="#A0D7C5" d="M87.713,56.906c0.005-4.174,3.42-7.589,7.596-7.584l197.548,0.093c4.177,0.002,7.587,3.419,7.587,7.594
						l-0.101,210.14c0,4.178-3.419,7.644-7.594,7.709l-40.143,0.633c-4.17,0.066-7.683,3.537-7.797,7.709l-1.18,42.273
						c-0.114,4.178-0.074,10.288,0.089,13.579c0.163,3.296-3.117,5.987-7.292,5.98l-141.26-0.23c-4.174,0-7.586-3.421-7.586-7.596
						L87.713,56.906z"/>
				</g>
				<g>
					<path fill="#27140E" d="M236.445,348.831h-0.023l-141.261-0.233c-6.277-0.007-11.376-5.127-11.376-11.396L83.92,56.906
						c0.004-6.275,5.112-11.38,11.385-11.38l197.556,0.094c6.272,0.003,11.377,5.113,11.377,11.389l-0.102,210.14
						c0,6.244-5.082,11.404-11.324,11.504l-40.144,0.631c-2.147,0.035-4.005,1.879-4.065,4.023l-1.179,42.279
						c-0.114,4.1-0.074,10.061,0.084,13.278c0.119,2.384-0.765,4.688-2.487,6.503C242.931,347.562,239.803,348.831,236.445,348.831z
						 M95.309,53.115c-2.094,0-3.798,1.703-3.801,3.793l-0.133,280.297c0,2.097,1.705,3.801,3.798,3.804l141.263,0.229l0.01,3.794
						v-3.794c1.498,0,2.572-0.571,3.079-1.105c0.283-0.292,0.422-0.596,0.405-0.891c-0.172-3.387-0.211-9.604-0.092-13.872
						l1.179-42.278c0.176-6.188,5.346-11.298,11.532-11.396l40.141-0.633c2.092-0.033,3.856-1.824,3.856-3.914l0.104-210.144
						c0-2.092-1.705-3.795-3.799-3.795L95.309,53.115z"/>
				</g>
			</g>
			<g>
				<polygon fill="#DD9050" points="187.795,78.21 129.151,151.383 168.771,162.313 211.496,141.626 				"/>
				<path fill="#27140E" d="M168.771,166.107c-0.339,0-0.677-0.043-1.007-0.135l-39.619-10.93c-1.23-0.339-2.209-1.274-2.607-2.488
					c-0.39-1.214-0.147-2.548,0.652-3.543l58.644-73.172c0.856-1.065,2.214-1.584,3.562-1.374c1.35,0.215,2.476,1.138,2.957,2.416
					l23.701,63.416c0.685,1.835-0.136,3.889-1.902,4.745l-42.725,20.687C169.906,165.98,169.342,166.107,168.771,166.107z
					 M135.72,149.257l32.687,9.02l38.329-18.561l-20.158-53.92L135.72,149.257z"/>
			</g>
			<g>
				<g>
					<path fill="#F6AF63" d="M341.7,366.105c0,4.172-3.415,7.586-7.592,7.586H136.56c-4.171,0-7.591-3.414-7.591-7.586V155.961
						c0-4.172,3.415-7.643,7.591-7.71l40.137-0.657c4.176-0.068,7.684-3.539,7.799-7.711l1.159-42.276
						c0.114-4.174,0.076-10.284-0.093-13.578c-0.162-3.294,3.117-5.987,7.289-5.981l141.258,0.155
						c4.177,0.005,7.592,3.424,7.592,7.597L341.7,366.105L341.7,366.105z"/>
				</g>
				<g>
					<path fill="#27140E" d="M334.108,377.491H136.56c-6.276,0-11.385-5.111-11.385-11.386V155.961
						c0-6.242,5.08-11.404,11.326-11.508l40.137-0.653c2.146-0.036,4.009-1.875,4.068-4.021l1.155-42.279
						c0.115-4.098,0.075-10.057-0.089-13.283c-0.12-2.38,0.765-4.691,2.484-6.502c2.095-2.202,5.222-3.463,8.582-3.463
						l141.274,0.155c6.275,0.008,11.379,5.119,11.379,11.393v280.308C345.492,372.379,340.386,377.491,334.108,377.491z
						 M192.848,81.841c-1.505,0-2.579,0.571-3.09,1.105c-0.283,0.297-0.422,0.599-0.406,0.891c0.171,3.39,0.216,9.611,0.1,13.872
						l-1.161,42.277c-0.169,6.185-5.343,11.301-11.53,11.4l-40.137,0.656c-2.089,0.033-3.856,1.827-3.856,3.917v210.145
						c0,2.088,1.703,3.789,3.793,3.789H334.11c2.094,0,3.799-1.701,3.799-3.789V85.799c0-2.093-1.709-3.799-3.803-3.804
						L192.848,81.841z"/>
				</g>
			</g>
		</g>
		<g>
			<g>
				<g>
					<path fill="#84D4EF" d="M72.417,249.589c-3.439-2.36-8.188-1.48-10.555,1.958L27.49,301.602
						c-2.365,3.439-1.477,8.188,1.962,10.553l245.262,168.435c3.438,2.356,8.188,1.474,10.552-1.965l34.369-50.054
						c2.364-3.438,1.481-8.191-1.959-10.555L72.417,249.589z"/>
				</g>
				<g>
					<path fill="#27140E" d="M278.988,485.708L278.988,485.708c-2.305,0-4.527-0.691-6.426-1.989L27.303,315.279
						c-2.495-1.713-4.183-4.307-4.74-7.301c-0.554-3.002,0.083-6.022,1.803-8.526l34.37-50.053c2.121-3.085,5.636-4.928,9.4-4.928
						c2.31,0,4.53,0.688,6.429,1.994l245.262,168.42c5.174,3.559,6.492,10.652,2.938,15.835l-34.374,50.054
						C286.271,483.862,282.758,485.708,278.988,485.708z M68.136,252.061c-1.266,0-2.439,0.614-3.144,1.638L30.62,303.751
						c-0.57,0.827-0.776,1.833-0.594,2.837c0.186,1.003,0.744,1.866,1.576,2.438l245.259,168.437
						c1.662,1.137,4.146,0.668,5.274-0.987l34.374-50.052c1.183-1.729,0.739-4.093-0.983-5.28L70.27,252.719
						C69.642,252.289,68.905,252.061,68.136,252.061z"/>
				</g>
			</g>
			<g>
				<line fill="none" x1="244.364" y1="459.748" x2="266.708" y2="427.208"/>
				<path fill="#27140E" d="M244.364,463.537c-0.744,0-1.493-0.208-2.146-0.661c-1.731-1.187-2.169-3.552-0.979-5.279l22.338-32.537
					c1.19-1.721,3.552-2.166,5.28-0.979c1.727,1.188,2.164,3.552,0.979,5.28l-22.345,32.536
					C246.757,462.963,245.57,463.537,244.364,463.537z"/>
			</g>
			<g>
				<line fill="none" x1="221.842" y1="444.278" x2="237.096" y2="422.067"/>
				<path fill="#27140E" d="M221.842,448.075c-0.744,0-1.493-0.224-2.145-0.668c-1.732-1.187-2.17-3.55-0.979-5.278l15.252-22.213
					c1.184-1.718,3.548-2.165,5.275-0.979c1.728,1.187,2.17,3.552,0.979,5.278l-15.253,22.212
					C224.238,447.494,223.047,448.075,221.842,448.075z"/>
			</g>
			<g>
				<line fill="none" x1="201.509" y1="430.314" x2="223.849" y2="397.784"/>
				<path fill="#27140E" d="M201.5,434.113c-0.74,0-1.483-0.226-2.142-0.672c-1.731-1.185-2.169-3.549-0.979-5.276l22.344-32.528
					c1.182-1.729,3.547-2.175,5.274-0.979c1.728,1.185,2.169,3.541,0.979,5.276l-22.344,32.529
					C203.896,433.53,202.711,434.113,201.5,434.113z"/>
			</g>
			<g>
				<line fill="none" x1="178.985" y1="414.844" x2="194.24" y2="392.632"/>
				<path fill="#27140E" d="M178.978,418.636c-0.736,0-1.484-0.209-2.141-0.661c-1.728-1.188-2.166-3.552-0.979-5.279l15.254-22.211
					c1.186-1.721,3.551-2.168,5.278-0.974c1.728,1.188,2.165,3.546,0.976,5.272l-15.255,22.212
					C181.374,418.062,180.192,418.636,178.978,418.636z"/>
			</g>
			<g>
				<line fill="none" x1="158.648" y1="400.882" x2="180.987" y2="368.342"/>
				<path fill="#27140E" d="M158.645,404.68c-0.739,0-1.484-0.217-2.141-0.671c-1.732-1.187-2.171-3.543-0.984-5.278l22.34-32.528
					c1.187-1.729,3.547-2.175,5.274-0.987c1.731,1.188,2.169,3.551,0.983,5.279l-22.339,32.537
					C161.041,404.098,159.851,404.68,158.645,404.68z"/>
			</g>
			<g>
				<line fill="none" x1="136.131" y1="385.413" x2="151.376" y2="363.202"/>
				<path fill="#27140E" d="M136.123,389.208c-0.741,0-1.485-0.215-2.143-0.668c-1.732-1.187-2.169-3.551-0.979-5.271l15.251-22.213
					c1.186-1.727,3.549-2.173,5.274-0.986c1.73,1.187,2.168,3.551,0.979,5.277l-15.251,22.213
					C138.519,388.635,137.333,389.208,136.123,389.208z"/>
			</g>
			<g>
				<line fill="none" x1="115.169" y1="371.018" x2="137.509" y2="338.484"/>
				<path fill="#27140E" d="M115.164,374.816c-0.744,0-1.488-0.224-2.146-0.668c-1.732-1.188-2.165-3.553-0.979-5.28l22.34-32.531
					c1.186-1.723,3.548-2.169,5.274-0.979c1.729,1.188,2.17,3.547,0.982,5.281l-22.34,32.53
					C117.561,374.234,116.371,374.816,115.164,374.816z"/>
			</g>
			<g>
				<line fill="none" x1="92.646" y1="355.549" x2="107.9" y2="333.343"/>
				<path fill="#27140E" d="M92.643,359.348c-0.74,0-1.49-0.217-2.147-0.67c-1.729-1.187-2.164-3.544-0.979-5.27l15.254-22.217
					c1.182-1.73,3.548-2.168,5.274-0.979c1.729,1.188,2.17,3.548,0.983,5.271l-15.253,22.213
					C95.039,358.773,93.848,359.348,92.643,359.348z"/>
			</g>
			<g>
				<line fill="none" x1="71.684" y1="341.158" x2="94.023" y2="308.623"/>
				<path fill="#27140E" d="M71.68,344.952c-0.741,0-1.489-0.214-2.146-0.669c-1.728-1.186-2.164-3.543-0.979-5.274L90.9,306.475
					c1.183-1.724,3.547-2.166,5.273-0.977c1.728,1.188,2.166,3.548,0.98,5.273l-22.34,32.531
					C74.075,344.37,72.886,344.952,71.68,344.952z"/>
			</g>
			<g>
				<line fill="none" x1="49.157" y1="325.688" x2="64.415" y2="303.477"/>
				<path fill="#27140E" d="M49.153,329.482c-0.74,0-1.489-0.211-2.146-0.67c-1.727-1.183-2.165-3.545-0.979-5.273l15.258-22.211
					c1.185-1.727,3.552-2.172,5.276-0.979c1.727,1.185,2.168,3.545,0.979,5.275L52.286,327.84
					C51.55,328.908,50.362,329.482,49.153,329.482z"/>
			</g>
		</g>
		<g>
			<g>
				<polygon fill="#F7E4BC" points="251.291,415.091 256.721,374.775 264.893,314.172 322.855,317.834 341.266,370.541 				"/>
				<path fill="#27140E" d="M251.291,418.889c-0.779,0-1.557-0.238-2.214-0.709c-1.139-0.818-1.735-2.203-1.547-3.597
					l13.601-100.912c0.264-1.972,1.962-3.413,4.001-3.28l57.963,3.653c1.523,0.101,2.837,1.101,3.344,2.537l18.41,52.71
					c0.634,1.807-0.184,3.805-1.896,4.656l-89.979,44.542C252.441,418.753,251.863,418.889,251.291,418.889z M268.182,318.184
					l-12.177,90.338l80.572-39.893l-16.474-47.17L268.182,318.184z"/>
			</g>
			<g>
				<line fill="none" x1="286.643" y1="397.148" x2="256.553" y2="375.006"/>
				
					<rect x="252.941" y="382.282" transform="matrix(-0.8055 -0.5926 0.5926 -0.8055 261.6164 858.0249)" fill="#27140E" width="37.358" height="7.593"/>
			</g>
			<g>
				<path fill="#279DD8" d="M431.992,162.433l-15.184-11.161c-23.76-18.355-41.479,12.801-41.479,12.801L264.893,314.172
					l16.592,26.952l12.352,9.084l4.34,3.19l12.35,9.093l30.658,7.825l110.443-150.101c0,0,24.468-26.188-0.12-43.414l-15.174-11.182
					L431.992,162.433z"/>
				<path fill="#27140E" d="M341.183,374.115c-0.311,0-0.625-0.04-0.938-0.12l-30.656-7.826c-0.473-0.125-0.92-0.334-1.312-0.628
					l-29.04-21.359c-0.389-0.285-0.726-0.654-0.982-1.066l-16.592-26.948c-0.812-1.319-0.74-2.997,0.176-4.239L372.15,161.989
					c1.346-2.277,12.515-20.301,29.521-20.301c5.93,0,11.807,2.217,17.459,6.58l34.632,25.48
					c7.379,5.171,11.563,11.696,12.363,19.354c1.517,14.513-9.968,27.769-11.563,29.528L344.242,372.564
					C343.51,373.549,342.372,374.115,341.183,374.115z M312.179,358.996l27.464,7.016l108.927-148.044
					c0.087-0.12,0.183-0.234,0.286-0.342c0.104-0.111,10.967-11.966,9.718-23.761c-0.577-5.437-3.604-10.003-9.243-13.956
					l-34.769-25.579c-4.362-3.372-8.678-5.052-12.893-5.052c-13.403,0-22.949,16.504-23.045,16.671
					c-0.071,0.131-0.151,0.255-0.242,0.375l-108.919,148.04l14.863,24.143L312.179,358.996z"/>
			</g>
			<g>
				<line fill="none" x1="281.484" y1="341.125" x2="390.507" y2="192.937"/>
				<polygon fill="#27140E" points="284.541,343.368 278.428,338.875 387.45,190.688 393.564,195.187 				"/>
			</g>
			<g>
				<line fill="none" x1="309.954" y1="362.068" x2="418.98" y2="213.883"/>
				<polygon fill="#27140E" points="313.011,364.314 306.897,359.825 415.924,211.639 422.033,216.136 				"/>
			</g>
			<g>
				<line fill="none" x1="443.175" y1="231.693" x2="366.882" y2="175.549"/>
				
					<rect x="357.668" y="199.818" transform="matrix(-0.8054 -0.5927 0.5927 -0.8054 610.5654 607.6721)" fill="#27140E" width="94.726" height="7.59"/>
			</g>
			<g>
				<polygon fill="#484747" points="259.376,381.639 279.932,396.75 255.605,408.857 				"/>
				<path fill="#27140E" d="M254.021,411.055l4.392-31.693l23.935,17.594L254.021,411.055z M260.335,383.915l-3.147,22.737
					l20.323-10.11L260.335,383.915z"/>
			</g>
			<g>
				<path fill="#F16667" d="M371.22,174.196l71.936,52.911c0,0,9.132-11.652,10.907-14.693c1.775-3.045,7.479-11.206,5.32-19.302
					c-1.354-9.629-11.539-14.952-11.539-14.952l-34.891-25.508c0,0-8.195-6.584-17.305-3.519
					C383.567,153.369,374.377,169.865,371.22,174.196z"/>
				<path fill="#27140E" d="M443.398,228.851l-73.941-54.384l0.74-1.015c0.478-0.653,1.09-1.585,1.835-2.711
					c4.39-6.667,12.565-19.071,23.2-22.797c1.75-0.589,3.572-0.888,5.434-0.888c7.256,0,12.848,4.422,13.084,4.61l34.842,25.472
					c0.279,0.131,10.618,5.641,12.046,15.795c2.062,7.703-2.636,15.429-4.893,19.139l-0.594,0.979
					c-1.795,3.082-10.623,14.358-11.002,14.836L443.398,228.851z M372.963,173.906l69.953,51.454
					c2.218-2.851,8.634-11.154,10.055-13.586l0.614-1.015c2.073-3.415,6.392-10.513,4.576-17.319
					c-1.277-9.004-10.808-14.108-10.902-14.16l-35.049-25.607c-0.097-0.072-5.2-4.084-11.544-4.084
					c-1.585,0-3.138,0.251-4.615,0.745c-9.809,3.444-17.681,15.382-21.909,21.798C373.709,172.795,373.312,173.392,372.963,173.906z
					"/>
			</g>
		</g>
	</g>
</g>
</svg>
