<?xml version="1.0" encoding="utf-8"?>
<!-- Generator: Adobe Illustrator 16.0.0, SVG Export Plug-In . SVG Version: 6.00 Build 0)  -->
<!DOCTYPE svg PUBLIC "-//W3C//DTD SVG 1.1//EN" "http://www.w3.org/Graphics/SVG/1.1/DTD/svg11.dtd">
<svg version="1.1" id="Layer_1" xmlns="http://www.w3.org/2000/svg" xmlns:xlink="http://www.w3.org/1999/xlink" x="0px" y="0px"
	 width="500px" height="500px" viewBox="0 0 500 500" enable-background="new 0 0 500 500" xml:space="preserve">
<g id="Layer_1_copy_12">
	<g>
		<path fill="#FBEA86" d="M370.816,192.447c4.279-4.018,6.568-9.957,15.904-0.005c9.328,9.95,13.427,21.276,9.146,25.296
			c-4.287,4.012-23.001-1.461-32.336-11.417C354.196,196.371,366.533,196.462,370.816,192.447z"/>
		<path fill="#3C2517" d="M391.055,221.488c-7.997,0-21.471-5.161-29.295-13.504c-3.227-3.437-4.481-6.241-3.949-8.817
			c0.692-3.386,4.139-4.893,7.177-6.22c1.605-0.702,3.27-1.431,4.171-2.272c0.59-0.553,1.136-1.146,1.673-1.726
			c1.904-2.059,4.063-4.391,7.414-4.391c3.051,0,6.211,1.92,10.249,6.225c10.581,11.282,14.464,23.632,9.037,28.724
			C396.123,220.826,393.946,221.488,391.055,221.488z M378.244,189.416c-1.167,0-2.228,1.077-3.854,2.834
			c-0.611,0.661-1.237,1.333-1.911,1.966c-1.511,1.418-3.562,2.314-5.549,3.181c-1.766,0.773-4.178,1.825-4.362,2.746
			c-0.047,0.219-0.125,1.467,2.732,4.519c6.619,7.056,18.883,11.969,25.754,11.969c2.322,0,3.034-0.555,3.153-0.666
			c2.498-2.342,0.179-11.792-9.259-21.861C381.314,190.229,379.297,189.416,378.244,189.416z"/>
	</g>
	<g>
		<path fill="#FBEA86" d="M329.771,211.247c4.585,7.089,10.896,12.817,1.802,18.694c-9.095,5.875-20.183,4.893-24.761-2.203
			c-4.58-7.089-1.115-26.289,7.984-32.162C323.888,189.701,325.193,204.154,329.771,211.247z"/>
		<path fill="#3C2517" d="M319.171,236.202c-6.219,0-11.466-2.602-14.396-7.147c-2.556-3.95-3.114-10.993-1.469-18.381
			c1.749-7.846,5.459-14.091,10.178-17.135c1.832-1.188,3.523-1.764,5.178-1.764c5.46,0,7.788,5.831,10.041,11.465
			c0.958,2.405,1.951,4.895,3.11,6.687c0.659,1.022,1.354,2.014,2.037,2.98c2.807,4.007,5.464,7.785,4.646,12
			c-0.523,2.662-2.354,4.976-5.599,7.074C328.678,234.705,323.805,236.202,319.171,236.202z M318.66,196.631
			c-0.666,0-1.547,0.341-2.544,0.986c-3.603,2.327-6.619,7.603-8.07,14.112c-1.331,5.978-1.01,11.881,0.81,14.692
			c2.021,3.131,5.78,4.926,10.315,4.926c3.71,0,7.646-1.224,11.084-3.443c2.054-1.327,3.22-2.646,3.469-3.922
			c0.428-2.195-1.652-5.148-3.85-8.28c-0.716-1.021-1.444-2.064-2.144-3.141c-1.411-2.188-2.494-4.898-3.541-7.52
			C322.616,201.1,320.833,196.631,318.66,196.631z"/>
	</g>
	<g>
		<path fill="#FBEA86" d="M345.54,211.257c-6.556,5.312-11.574,12.209-18.393,3.796c-6.817-8.409-7.033-19.539-0.472-24.853
			c6.558-5.315,26.017-3.932,32.833,4.482C366.331,203.093,352.1,205.94,345.54,211.257z"/>
		<path fill="#3C2517" d="M333.564,221.419c-2.952,0-5.668-1.583-8.303-4.838c-3.638-4.484-5.693-9.833-5.801-15.066
			c-0.103-5.459,1.918-10.147,5.682-13.2c2.936-2.377,7.796-3.686,13.688-3.686c7.222,0,17.465,2.233,22.566,8.525
			c1.928,2.378,2.673,4.732,2.213,6.992c-0.858,4.214-5.622,6.74-10.228,9.18c-2.289,1.216-4.657,2.475-6.316,3.814
			c-0.941,0.769-1.855,1.565-2.743,2.346C340.846,218.537,337.56,221.419,333.564,221.419z M338.832,189.487
			c-4.645,0-8.617,0.973-10.628,2.601c-2.577,2.089-3.959,5.403-3.883,9.332c0.08,4.156,1.753,8.456,4.711,12.105
			c2.465,3.035,4.021,3.035,4.532,3.035c2.17,0,4.786-2.296,7.557-4.726c0.938-0.82,1.895-1.66,2.889-2.465
			c2.027-1.642,4.604-3.011,7.1-4.333c3.441-1.824,7.342-3.893,7.746-5.86c0.151-0.767-0.26-1.764-1.232-2.965
			C353.855,191.566,345.471,189.487,338.832,189.487z"/>
	</g>
	<g>
		<path fill="#DDBC6B" d="M458.784,268.688c0,14.52-66.325,26.283-148.147,26.283c-81.846,0-148.174-11.765-148.174-26.283
			s66.328-26.286,148.174-26.286C392.459,242.402,458.784,254.169,458.784,268.688z"/>
		<path fill="#3C2517" d="M310.637,297.398c-73.007,0-150.602-10.062-150.602-28.711c0-18.648,77.595-28.712,150.602-28.712
			c72.993,0,150.575,10.063,150.575,28.712S383.63,297.398,310.637,297.398z M310.637,244.83
			c-93.844,0-145.745,14.109-145.745,23.857c0,9.752,51.901,23.856,145.745,23.856c93.827,0,145.72-14.104,145.72-23.856
			C456.355,258.939,404.464,244.83,310.637,244.83z"/>
	</g>
	<g>
		<path fill="#FEE394" d="M221.514,246.759c0,0,14.662,9.233,13.399,20.929c-1.269,11.688-4.743,25.713-4.743,25.713
			s0.632,5.192,9.484,4.936c8.852-0.262,3.163-4.416,13.92-1.301c10.753,3.117,14.234,0.26,10.753-2.855
			c-3.476-3.115-10.44-8.051-9.49-14.541c0.947-6.498-1.729-19.393,5.379-23.465c7.106-4.074,18.399-14.467,19.479-17.583
			c1.08-3.115-19.801-4.156-19.801-4.156s-9.562,15.887-13.623,19.738c-2.106,2.001-1.583,4.533-8.222-6.878
			c-6.643-11.409-16.537-15.457-16.537-15.457L221.514,246.759L221.514,246.759z"/>
		<path fill="#3C2517" d="M261.402,300.812c-2.34,0-5.201-0.488-8.504-1.441c-2.425-0.705-4.125-1.061-5.06-1.061
			c-0.428,0-0.428,0-0.921,0.362c-1.382,1.031-2.972,1.964-7.195,2.091l-0.702,0.008c-10.283,0-11.224-6.791-11.264-7.076
			c-0.033-0.295-0.017-0.592,0.053-0.877c0.037-0.144,3.455-14.006,4.688-25.394c1.087-10.069-12.141-18.525-12.276-18.608
			c-0.709-0.442-1.137-1.222-1.137-2.058v-14.922c0-0.807,0.404-1.565,1.076-2.016c0.666-0.447,1.524-0.537,2.273-0.23
			c0.437,0.179,10.739,4.497,17.717,16.48c1.881,3.236,3.263,5.462,4.134,6.658c0.103-0.105,0.209-0.215,0.318-0.317
			c3.134-2.975,10.601-14.89,13.211-19.229c0.463-0.767,1.309-1.216,2.205-1.173c12.705,0.633,19.974,2.173,21.59,4.573
			c0.57,0.838,0.705,1.863,0.379,2.803c-1.426,4.11-13.659,14.934-20.566,18.896c-3.962,2.271-3.938,9.029-3.919,14.99
			c0.015,2.461,0.017,4.785-0.265,6.715c-0.641,4.371,3.922,8.269,7.248,11.117c0.529,0.449,1.021,0.871,1.461,1.265
			c2.631,2.354,2.177,4.528,1.861,5.354C267.271,299.132,265.723,300.812,261.402,300.812z M247.84,293.455
			c1.451,0,3.426,0.385,6.41,1.246c4.896,1.418,7.191,1.338,8.335,1.18c-0.385-0.338-0.806-0.705-1.252-1.084
			c-3.952-3.379-9.926-8.49-8.901-15.512c0.231-1.572,0.223-3.721,0.215-5.994c-0.021-6.928-0.056-15.545,6.36-19.227
			c6.367-3.652,14.954-11.634,17.621-15.057c-2.786-0.878-9.392-1.698-15.411-2.065c-2.462,4.027-9.634,15.545-13.271,18.993
			c-0.223,0.209-0.401,0.433-0.566,0.633c-0.59,0.701-1.481,1.765-3.048,1.768l0,0c-2.353,0-3.816-1.977-8.382-9.819
			c-3.793-6.516-8.766-10.489-12.009-12.573v9.536c3.647,2.584,14.586,11.334,13.387,22.469c-1.136,10.47-3.958,22.555-4.647,25.422
			c0.314,0.701,1.597,2.547,6.344,2.547l0.557-0.01c3.045-0.088,3.75-0.615,4.439-1.127
			C244.772,294.216,245.803,293.455,247.84,293.455z"/>
	</g>
	<g>
		<path fill="#FBEA86" d="M308.255,231.085c6.155-5.772,10.667-13.013,18.074-5.113c7.407,7.895,8.418,18.977,2.263,24.752
			c-6.158,5.779-25.664,5.805-33.07-2.104C288.113,240.729,302.097,236.863,308.255,231.085z"/>
		<path fill="#3C2517" d="M314.032,257.264c-8.604,0-16.189-2.609-20.284-6.979c-2.098-2.234-3.008-4.525-2.713-6.811
			c0.55-4.268,5.117-7.128,9.534-9.899c2.195-1.375,4.469-2.799,6.028-4.26c0.881-0.828,1.732-1.695,2.564-2.534
			c3.408-3.454,6.625-6.715,10.879-6.715c2.746,0,5.383,1.39,8.057,4.247c3.952,4.207,6.391,9.398,6.867,14.609
			c0.497,5.438-1.18,10.259-4.711,13.578C327.071,255.482,321.009,257.264,314.032,257.264z M320.042,224.924
			c-2.22,0-4.751,2.562-7.424,5.269c-0.875,0.884-1.767,1.789-2.7,2.667c-1.901,1.784-4.376,3.334-6.769,4.832
			c-3.304,2.069-7.044,4.416-7.302,6.405c-0.096,0.776,0.385,1.741,1.444,2.864c3.147,3.361,9.561,5.447,16.739,5.447
			c5.599,0,10.66-1.355,12.896-3.449c2.422-2.271,3.556-5.679,3.2-9.594c-0.378-4.138-2.358-8.305-5.572-11.734
			C322.871,225.835,321.354,224.924,320.042,224.924z"/>
	</g>
	<g>
		<path fill="#FBEA86" d="M391.382,208.095c6.159-5.776,10.668-13.016,18.075-5.117c7.403,7.895,8.421,18.981,2.263,24.756
			c-6.162,5.773-25.668,5.794-33.071-2.105C371.24,217.735,385.228,213.866,391.382,208.095z"/>
		<path fill="#3C2517" d="M397.153,234.269c-8.602,0-16.185-2.609-20.277-6.98c-2.098-2.234-3.008-4.523-2.714-6.81
			c0.554-4.267,5.118-7.127,9.534-9.895c2.195-1.378,4.469-2.803,6.025-4.264c0.889-0.832,1.735-1.694,2.57-2.538
			c3.405-3.45,6.626-6.71,10.876-6.71c2.743,0,5.38,1.388,8.062,4.242c8.312,8.863,9.274,21.505,2.148,28.19
			C410.198,232.488,404.133,234.269,397.153,234.269z M403.169,201.93c-2.223,0-4.744,2.559-7.417,5.266
			c-0.875,0.888-1.771,1.795-2.707,2.67c-1.901,1.784-4.376,3.331-6.765,4.835c-3.304,2.065-7.046,4.413-7.302,6.402
			c-0.1,0.777,0.382,1.739,1.44,2.865c3.147,3.359,9.558,5.443,16.733,5.443c5.604,0,10.67-1.352,12.905-3.45
			c5.168-4.846,4.104-14.412-2.375-21.321C405.998,202.841,404.481,201.93,403.169,201.93z"/>
	</g>
	<g>
		<path fill="#1F6935" d="M217.21,212.1c0,0-20.549,3.119-11.064,13.508c-7.901,3.116-2.85,15.318,11.064,16.358
			c0,0,2.531,9.61,18.019,4.416c0,0,12.337,5.714,19.292-5.718c24.359-0.515,19.608-14.797,19.608-14.797
			s14.235-15.323-2.842-18.438c-1.897-7.79-9.177-20.254-21.195-5.193c-5.691-11.686-15.18-9.609-22.451-0.262
			C218.472,197.562,209.938,197.562,217.21,212.1z"/>
		<path fill="#3C2517" d="M227.003,250.351c-7.156,0-10.247-3.83-11.456-6.113c-9.134-1.2-14.669-6.881-15.468-12.15
			c-0.43-2.849,0.508-5.399,2.515-7.149c-1.712-2.821-1.54-5.131-0.987-6.693c1.646-4.648,8.044-6.922,12.125-7.919
			c-1.958-4.729-2.189-8.201-0.735-10.558c0.788-1.277,2.438-2.799,5.794-2.799c2.674,0,5.691,0.976,8.163,2.026
			c4.071-4.669,8.646-7.22,13.019-7.22c2.995,0,7.06,1.179,10.535,6.309c3.455-3.56,6.885-5.358,10.227-5.358
			c6.468,0,10.654,6.506,12.51,12.638c4.545,1.123,7.384,3.306,8.443,6.498c1.875,5.647-2.842,12.169-4.922,14.679
			c0.313,1.964,0.424,5.626-2.012,9.079c-3.203,4.543-9.559,7.041-18.89,7.437c-4.118,5.902-9.61,7.182-13.596,7.182
			c-3.13,0-5.784-0.788-7.126-1.276C232.177,249.882,229.44,250.351,227.003,250.351z M218.79,201.825
			c-0.507,0-1.395,0.063-1.663,0.497c-0.119,0.192-1.06,2.062,2.256,8.694c0.352,0.697,0.342,1.514-0.017,2.202
			c-0.354,0.69-1.02,1.169-1.789,1.285c-4.17,0.638-10.461,2.725-11.396,5.362c-0.457,1.302,0.702,2.953,1.759,4.103
			c0.537,0.593,0.749,1.41,0.573,2.19c-0.182,0.775-0.731,1.418-1.478,1.709c-1.68,0.663-2.404,1.838-2.153,3.488
			c0.54,3.558,5.105,7.638,12.51,8.192c1.033,0.073,1.904,0.798,2.166,1.802c0.119,0.393,1.411,4.143,7.444,4.143
			c2.146,0,4.654-0.476,7.453-1.415c0.59-0.197,1.229-0.158,1.792,0.098c0.017,0.011,2.69,1.207,6.02,1.207
			c4.34,0,7.766-2.014,10.181-5.979c0.434-0.706,1.192-1.148,2.021-1.166c8.252-0.172,13.877-2.029,16.279-5.365
			c2.087-2.903,1.116-6.124,1.076-6.261c-0.266-0.829-0.066-1.759,0.525-2.394c1.592-1.723,5.871-7.401,4.729-10.83
			c-0.719-2.142-3.783-3.124-6.229-3.569c-0.94-0.171-1.695-0.883-1.925-1.814c-1.018-4.189-4.045-10.422-8.192-10.422
			c-2.5,0-5.521,2.13-8.741,6.165c-0.521,0.651-1.319,0.996-2.167,0.903c-0.825-0.095-1.551-0.602-1.915-1.354
			c-1.48-3.041-4.062-6.667-7.938-6.667c-3.236,0-7.033,2.493-10.415,6.836c-0.702,0.903-1.941,1.191-2.968,0.696
			C223.458,202.657,220.688,201.825,218.79,201.825z"/>
	</g>
	<g>
		<path fill="#327D3D" d="M264.327,243.783c0,0-5.691,8.572,7.274,8.834c13.287,8.834,20.873-1.562,20.873-1.562
			s22.761-3.633,14.855-16.62c11.697-7.528,15.176-17.395-1.898-21.294c4.114-12.721-2.839-12.983-12.642-10.647
			c0,0-15.573-12.687-22.964,0.669c-17.012-3.949-12.774,11.798-12.774,11.798s-12.34,3.825-6.01,11.651
			c-9.176,2.112-3.233,10.668,2.213,12.239C253.256,238.851,253.574,247.677,264.327,243.783z"/>
		<path fill="#3C2517" d="M281.922,258.602c-3.595,0-7.314-1.205-11.07-3.582c-4.903-0.218-8.088-1.672-9.479-4.33
			c-0.622-1.191-0.781-2.416-0.702-3.545c-0.414,0.04-0.818,0.062-1.209,0.062l0,0c-5.146,0-7.659-3.502-8.396-6.593
			c-3.745-1.73-7.321-5.739-7.212-9.766c0.029-1.216,0.497-3.797,3.604-5.491c-0.875-2.083-0.723-3.843-0.342-5.095
			c1.09-3.582,4.794-5.768,7.182-6.834c-0.319-2.49-0.354-6.566,2.009-9.644c2.436-3.184,6.568-4.328,12.35-3.336
			c2.638-3.821,6.33-5.827,10.768-5.827c5.946,0,11.689,3.647,13.93,5.256c2.896-0.645,5.154-0.946,7.054-0.946
			c3.358,0,5.794,1.007,7.242,2.993c1.583,2.178,1.852,5.229,0.809,9.496c6.582,1.936,10.292,5.039,11.027,9.241
			c0.827,4.708-2.361,9.837-9.008,14.578c1.515,3.589,0.944,6.403,0.097,8.239c-3.067,6.647-13.471,9.167-16.809,9.817
			C292.244,254.958,288.195,258.602,281.922,258.602z M264.327,241.355c0.731,0,1.44,0.332,1.911,0.928
			c0.646,0.825,0.693,1.973,0.113,2.846c-0.432,0.666-1.177,2.375-0.677,3.314c0.205,0.386,1.242,1.648,5.978,1.742
			c0.464,0.01,0.91,0.15,1.298,0.406c3.145,2.095,6.166,3.152,8.972,3.152c5.439,0,8.475-3.963,8.604-4.131
			c0.377-0.504,0.943-0.854,1.563-0.953c3.229-0.521,12.052-2.839,14.076-7.224c0.748-1.625,0.45-3.503-0.908-5.737
			c-0.686-1.126-0.348-2.592,0.762-3.305c5.87-3.782,9.196-7.956,8.681-10.889c-0.44-2.526-3.926-4.653-9.807-5.995
			c-0.666-0.154-1.231-0.578-1.569-1.169c-0.338-0.59-0.407-1.299-0.199-1.946c1.703-5.268,0.98-7.078,0.593-7.611
			c-0.97-1.335-4.279-1.375-10.357,0.073c-0.739,0.176-1.508-0.003-2.098-0.475c-0.061-0.05-6.119-4.905-11.84-4.905
			c-3.214,0-5.658,1.59-7.471,4.862c-0.526,0.952-1.613,1.439-2.674,1.191c-4.551-1.054-7.68-0.66-9.113,1.197
			c-1.689,2.196-1.126,6.24-0.766,7.608c0.332,1.259-0.385,2.559-1.629,2.943c-1.34,0.424-5.328,2.14-6.011,4.401
			c-0.104,0.353-0.428,1.425,1.17,3.407c0.526,0.648,0.683,1.526,0.41,2.317c-0.274,0.792-0.938,1.386-1.752,1.574
			c-1.296,0.301-2.85,0.888-2.879,2.002c-0.057,1.905,2.68,4.805,5.221,5.536c1.007,0.292,1.716,1.201,1.753,2.25
			c0.047,0.82,0.461,3.583,3.779,3.583c1.13,0,2.488-0.285,4.038-0.848C263.771,241.401,264.049,241.355,264.327,241.355z"/>
	</g>
	<g>
		<g>
			<path fill="#5EAE46" d="M172.905,268.716c0,0,14.658,9.229,13.394,20.914c-1.263,11.688-4.741,25.707-4.741,25.707
				s0.633,5.195,9.484,4.937c8.852-0.258,3.157-4.414,13.907-1.299c10.747,3.116,14.226,0.26,10.747-2.855
				c-3.476-3.117-10.429-8.051-9.479-14.543c0.948-6.49-1.729-19.375,5.374-23.449c7.099-4.074,18.382-14.473,19.466-17.589
				c1.083-3.117-19.787-4.155-19.787-4.155s-9.558,15.889-13.609,19.747c-2.11,1.997-1.583,4.53-8.226-6.884
				c-6.636-11.414-16.53-15.469-16.53-15.469V268.716L172.905,268.716z"/>
			<path fill="#3C2517" d="M212.771,322.75c-2.335,0-5.194-0.482-8.494-1.441c-2.425-0.699-4.121-1.057-5.052-1.057
				c-0.427,0-0.427,0-0.917,0.359c-1.379,1.031-2.972,1.969-7.195,2.092l-0.706,0.008c-10.276,0-11.221-6.787-11.257-7.078
				c-0.033-0.295-0.02-0.588,0.053-0.877c0.037-0.139,3.452-14.002,4.685-25.385c1.087-10.059-12.142-18.514-12.273-18.598
				c-0.709-0.447-1.14-1.222-1.14-2.058v-14.938c0-0.808,0.404-1.566,1.076-2.018c0.676-0.447,1.527-0.533,2.276-0.229
				c0.434,0.177,10.733,4.505,17.706,16.496c1.886,3.231,3.271,5.461,4.142,6.654c0.1-0.104,0.202-0.212,0.317-0.312
				c3.124-2.979,10.592-14.899,13.202-19.239c0.46-0.771,1.302-1.214,2.202-1.175c12.695,0.632,19.953,2.17,21.58,4.574
				c0.566,0.84,0.705,1.861,0.378,2.804c-1.429,4.112-13.652,14.94-20.553,18.901c-3.962,2.272-3.938,9.024-3.912,14.983
				c0.003,2.457,0.01,4.779-0.269,6.711c-0.64,4.373,3.919,8.271,7.248,11.119c0.523,0.449,1.018,0.869,1.451,1.261
				c2.627,2.354,2.173,4.528,1.858,5.356C218.638,321.072,217.091,322.75,212.771,322.75z M199.225,315.395
				c1.444,0,3.419,0.383,6.404,1.248c4.899,1.422,7.195,1.336,8.328,1.178c-0.381-0.34-0.802-0.699-1.246-1.082
				c-3.952-3.379-9.925-8.49-8.895-15.512c0.229-1.57,0.222-3.72,0.212-5.994c-0.023-6.922-0.057-15.533,6.354-19.211
				c6.364-3.655,14.951-11.646,17.607-15.066c-2.779-0.877-9.378-1.699-15.395-2.068c-2.461,4.029-9.633,15.553-13.264,19.002
				c-0.219,0.215-0.401,0.437-0.566,0.633c-0.59,0.703-1.48,1.765-3.045,1.765c-2.358,0-3.819-1.974-8.381-9.817
				c-3.793-6.519-8.763-10.496-12.009-12.585v9.546c3.65,2.584,14.589,11.338,13.384,22.465c-1.13,10.469-3.952,22.549-4.645,25.416
				c0.317,0.698,1.6,2.547,6.337,2.547l0.563-0.015c3.044-0.084,3.753-0.61,4.438-1.125
				C196.157,316.158,197.185,315.395,199.225,315.395z"/>
		</g>
		<g>
			<path fill="#327D3D" d="M168.595,234.045c0,0-20.549,3.114-11.061,13.505c-7.908,3.11-2.846,15.322,11.061,16.363
				c0,0,2.528,9.616,18.021,4.421c0,0,12.327,5.718,19.28-5.718c24.346-0.521,19.603-14.813,19.603-14.813
				s14.225-15.32-2.846-18.432c-1.898-7.793-9.167-20.258-21.183-5.194c-5.688-11.688-15.172-9.609-22.443-0.26
				C169.86,219.5,161.323,219.5,168.595,234.045z"/>
			<path fill="#3C2517" d="M178.391,272.3c-7.158,0-10.253-3.832-11.459-6.116c-9.133-1.201-14.669-6.886-15.464-12.154
				c-0.431-2.844,0.507-5.394,2.515-7.144c-1.418-2.305-1.753-4.552-0.99-6.701c1.643-4.646,8.043-6.917,12.121-7.917
				c-1.954-4.73-2.187-8.197-0.729-10.554c0.785-1.284,2.435-2.806,5.797-2.806c2.67,0,5.688,0.979,8.153,2.029
				c4.078-4.671,8.649-7.222,13.025-7.222c2.995,0,7.053,1.181,10.524,6.308c3.456-3.558,6.881-5.357,10.224-5.357
				c6.46,0,10.647,6.505,12.499,12.64c4.542,1.123,7.381,3.301,8.444,6.493c1.878,5.648-2.839,12.172-4.92,14.683
				c0.312,1.965,0.421,5.629-2.018,9.086c-3.199,4.539-9.547,7.039-18.872,7.436c-4.115,5.904-9.604,7.188-13.589,7.188
				c-3.128,0-5.781-0.787-7.123-1.279C183.565,271.835,180.832,272.3,178.391,272.3z M170.182,223.766
				c-0.51,0-1.401,0.064-1.666,0.497c-0.116,0.194-1.063,2.064,2.253,8.696c0.348,0.692,0.344,1.512-0.014,2.2
				c-0.357,0.69-1.023,1.166-1.792,1.287c-4.171,0.641-10.459,2.725-11.39,5.362c-0.46,1.299,0.699,2.948,1.753,4.103
				c0.543,0.59,0.755,1.406,0.576,2.186c-0.183,0.779-0.729,1.421-1.478,1.713c-1.683,0.664-2.408,1.838-2.156,3.49
				c0.54,3.562,5.107,7.642,12.509,8.191c1.033,0.079,1.905,0.801,2.17,1.805c0.116,0.394,1.411,4.147,7.443,4.147
				c2.15,0,4.658-0.475,7.457-1.414c0.587-0.194,1.229-0.158,1.796,0.102c0.014,0.012,2.68,1.204,6.01,1.204
				c4.336,0,7.758-2.011,10.173-5.979c0.431-0.709,1.192-1.151,2.018-1.166c8.289-0.178,13.927-2.051,16.302-5.42
				c2.058-2.914,1.061-6.167,1.047-6.196c-0.277-0.842-0.076-1.77,0.523-2.416c1.591-1.719,5.871-7.399,4.721-10.825
				c-0.712-2.145-3.776-3.127-6.221-3.573c-0.941-0.172-1.696-0.881-1.922-1.81c-1.021-4.192-4.041-10.425-8.186-10.425
				c-2.498,0-5.516,2.131-8.736,6.168c-0.52,0.651-1.338,0.989-2.163,0.899c-0.835-0.093-1.554-0.601-1.918-1.35
				c-1.48-3.043-4.058-6.667-7.931-6.667c-3.24,0-7.036,2.493-10.415,6.836c-0.702,0.904-1.941,1.189-2.972,0.695
				C174.843,224.594,172.073,223.766,170.182,223.766z"/>
		</g>
		<g>
			<path fill="#327D3D" d="M215.696,265.734c0,0-5.685,8.572,7.271,8.834c13.277,8.83,20.867-1.56,20.867-1.56
				s22.775-3.639,14.867-16.627c11.708-7.537,15.183-17.406-1.898-21.3c4.111-12.725-2.846-12.983-12.647-10.647
				c0,0-15.57-12.688-22.961,0.669c-17.001-3.951-12.768,11.795-12.768,11.795s-12.33,3.825-6.009,11.651
				c-9.167,2.11-3.228,10.675,2.216,12.249C204.635,260.799,204.949,269.631,215.696,265.734z"/>
			<path fill="#3C2517" d="M233.28,280.555c-3.591,0-7.308-1.205-11.064-3.58c-4.896-0.22-8.077-1.674-9.472-4.332
				c-0.622-1.188-0.785-2.414-0.702-3.547c-0.414,0.043-0.814,0.061-1.209,0.061l0,0c-5.145,0-7.652-3.506-8.388-6.6
				c-3.747-1.73-7.325-5.74-7.216-9.771c0.033-1.212,0.5-3.794,3.604-5.487c-0.871-2.086-0.716-3.846-0.338-5.099
				c1.087-3.579,4.79-5.764,7.179-6.836c-0.318-2.484-0.354-6.564,2.004-9.644c2.441-3.182,6.566-4.33,12.347-3.333
				c2.638-3.821,6.324-5.829,10.761-5.829c5.946,0,11.684,3.65,13.92,5.259c2.902-0.647,5.168-0.949,7.06-0.949
				c3.362,0,5.797,1.011,7.252,2.995c1.58,2.18,1.85,5.228,0.806,9.494c6.589,1.94,10.3,5.042,11.038,9.248
				c0.824,4.708-2.365,9.833-9.019,14.582c1.519,3.584,0.951,6.402,0.101,8.236c-3.071,6.65-13.479,9.172-16.819,9.823
				C243.603,276.913,239.558,280.555,233.28,280.555z M215.696,263.305c0.731,0,1.44,0.33,1.914,0.926
				c0.644,0.826,0.693,1.971,0.113,2.846c-0.435,0.666-1.173,2.375-0.673,3.32c0.206,0.387,1.242,1.647,5.97,1.742
				c0.461,0.01,0.911,0.15,1.295,0.409c3.145,2.091,6.159,3.147,8.965,3.147c5.522,0,8.566-4.079,8.597-4.118
				c0.374-0.517,0.944-0.865,1.573-0.966c3.233-0.522,12.062-2.838,14.086-7.229c0.749-1.623,0.45-3.505-0.911-5.739
				c-0.686-1.123-0.346-2.594,0.766-3.307c5.875-3.781,9.203-7.955,8.684-10.896c-0.44-2.519-3.926-4.649-9.809-5.991
				c-0.666-0.152-1.236-0.573-1.57-1.169c-0.338-0.591-0.411-1.297-0.199-1.948c1.699-5.264,0.98-7.078,0.593-7.609
				c-0.971-1.332-4.276-1.378-10.372,0.071c-0.729,0.177-1.511,0-2.097-0.476c-0.06-0.049-6.115-4.901-11.833-4.901
				c-3.214,0-5.655,1.588-7.464,4.861c-0.523,0.947-1.617,1.433-2.674,1.191c-4.555-1.06-7.679-0.664-9.11,1.203
				c-1.699,2.213-1.103,6.329-0.765,7.596c0.338,1.262-0.381,2.566-1.627,2.95c-1.338,0.422-5.32,2.138-6.006,4.397
				c-0.103,0.356-0.431,1.428,1.169,3.407c0.53,0.652,0.683,1.527,0.408,2.317c-0.275,0.792-0.935,1.386-1.753,1.573
				c-1.295,0.302-2.846,0.891-2.879,2.001c-0.05,1.913,2.681,4.813,5.222,5.548c1.014,0.287,1.719,1.195,1.756,2.246
				c0.049,0.822,0.46,3.588,3.77,3.588l0,0c1.126,0,2.488-0.285,4.038-0.848C215.143,263.352,215.425,263.305,215.696,263.305z"/>
		</g>
	</g>
	<g>
		<g>
			<path fill="#319244" d="M228.802,288.396c0,0,14.662,9.227,13.396,20.91c-1.266,11.688-4.744,25.709-4.744,25.709
				s0.633,5.196,9.488,4.932c8.858-0.258,3.163-4.412,13.919-1.295c10.758,3.115,14.236,0.258,10.758-2.857
				c-3.479-3.117-10.442-8.051-9.495-14.541c0.951-6.492-1.726-19.377,5.381-23.449c7.104-4.076,18.396-14.465,19.479-17.58
				c1.08-3.115-19.795-4.156-19.795-4.156s-9.562,15.884-13.625,19.734c-2.104,2.002-1.584,4.529-8.231-6.877
				c-6.639-11.408-16.53-15.455-16.53-15.455v14.926H228.802z"/>
			<path fill="#3C2517" d="M268.693,342.425c-2.34,0-5.205-0.481-8.508-1.438c-2.422-0.705-4.123-1.057-5.052-1.057
				c-0.435,0-0.435,0-0.921,0.36c-1.385,1.028-2.975,1.963-7.199,2.086l-0.709,0.01c-10.282,0-11.224-6.786-11.26-7.075
				c-0.033-0.295-0.02-0.59,0.053-0.877c0.037-0.144,3.452-14.004,4.685-25.388c1.087-10.021-12.147-18.51-12.277-18.596
				c-0.705-0.445-1.136-1.224-1.136-2.056v-14.927c0-0.809,0.404-1.565,1.076-2.018c0.669-0.45,1.524-0.54,2.272-0.23
				c0.438,0.179,10.74,4.501,17.714,16.483c1.888,3.234,3.272,5.459,4.145,6.656c0.099-0.107,0.205-0.211,0.313-0.32
				c3.137-2.975,10.602-14.885,13.219-19.225c0.459-0.765,1.314-1.23,2.199-1.174c12.705,0.633,19.969,2.17,21.586,4.573
				c0.569,0.843,0.709,1.863,0.381,2.806c-1.424,4.11-13.658,14.928-20.565,18.889c-3.962,2.271-3.937,9.025-3.915,14.984
				c0.01,2.457,0.018,4.776-0.266,6.707c-0.639,4.373,3.923,8.27,7.252,11.114c0.523,0.451,1.017,0.875,1.458,1.269
				c2.627,2.354,2.176,4.526,1.858,5.354C274.561,340.748,273.011,342.425,268.693,342.425z M255.135,335.07
				c1.447,0,3.426,0.385,6.407,1.246c4.905,1.424,7.201,1.334,8.334,1.18c-0.381-0.342-0.806-0.705-1.255-1.084
				c-3.949-3.383-9.926-8.49-8.896-15.508c0.229-1.576,0.219-3.721,0.213-5.992c-0.022-6.924-0.054-15.539,6.36-19.213
				c6.367-3.652,14.95-11.639,17.614-15.059c-2.783-0.877-9.389-1.697-15.408-2.064c-2.458,4.023-9.634,15.539-13.268,18.988
				c-0.227,0.213-0.404,0.436-0.57,0.633c-0.586,0.703-1.48,1.764-3.041,1.764c-2.358,0.004-3.822-1.969-8.388-9.812
				c-3.819-6.557-8.775-10.519-12.012-12.588v9.547c3.65,2.588,14.593,11.336,13.387,22.461c-1.133,10.466-3.959,22.55-4.647,25.416
				c0.317,0.701,1.6,2.545,6.34,2.545l0.566-0.01c3.045-0.086,3.754-0.617,4.443-1.125
				C252.062,335.833,253.091,335.07,255.135,335.07z"/>
		</g>
		<g>
			<path fill="#1F6935" d="M224.498,253.723c0,0-20.549,3.114-11.068,13.512c-7.9,3.115-2.845,15.326,11.068,16.363
				c0,0,2.527,9.608,18.015,4.416c0,0,12.34,5.711,19.301-5.714c24.352-0.521,19.613-14.812,19.613-14.812
				s14.227-15.329-2.853-18.444c-1.897-7.791-9.173-20.255-21.191-5.193c-5.694-11.684-15.186-9.607-22.454-0.258
				C225.757,239.177,217.227,239.177,224.498,253.723z"/>
			<path fill="#3C2517" d="M234.287,291.982c-7.155,0-10.246-3.83-11.455-6.113c-9.134-1.201-14.666-6.883-15.468-12.15
				c-0.434-2.85,0.51-5.402,2.521-7.154c-1.717-2.82-1.547-5.135-0.994-6.699c1.63-4.608,8.126-6.904,12.128-7.904
				c-1.954-4.739-2.196-8.212-0.735-10.573c0.788-1.281,2.432-2.803,5.794-2.803c2.674,0,5.688,0.976,8.159,2.029
				c4.075-4.674,8.65-7.222,13.026-7.222c2.994,0,7.055,1.179,10.534,6.308c3.452-3.558,6.889-5.358,10.227-5.358
				c6.463,0,10.654,6.506,12.506,12.642c4.546,1.123,7.385,3.303,8.447,6.497c1.883,5.651-2.836,12.176-4.916,14.688
				c0.31,1.968,0.422,5.629-2.021,9.087c-3.204,4.54-9.554,7.038-18.886,7.435c-4.118,5.9-9.611,7.183-13.6,7.183
				c-3.134,0-5.784-0.785-7.126-1.272C239.462,291.511,236.732,291.982,234.287,291.982z M226.078,243.442
				c-0.507,0-1.397,0.065-1.663,0.499c-0.119,0.188-1.06,2.062,2.256,8.694c0.348,0.69,0.338,1.514-0.017,2.2
				c-0.357,0.688-1.026,1.167-1.788,1.286c-4.171,0.638-10.466,2.727-11.393,5.365c-0.461,1.304,0.698,2.951,1.752,4.111
				c0.54,0.588,0.752,1.403,0.573,2.182c-0.183,0.781-0.732,1.419-1.478,1.71c-1.677,0.665-2.405,1.843-2.153,3.497
				c0.543,3.56,5.111,7.636,12.509,8.188c1.034,0.076,1.908,0.802,2.17,1.802c0.116,0.396,1.411,4.146,7.44,4.146
				c2.15,0,4.658-0.474,7.454-1.414c0.59-0.192,1.232-0.16,1.792,0.103c0.017,0.006,2.693,1.203,6.022,1.203
				c4.344,0,7.769-2.011,10.18-5.978c0.435-0.705,1.199-1.146,2.027-1.162c8.242-0.176,13.87-2.033,16.272-5.372
				c2.094-2.908,1.123-6.128,1.08-6.268c-0.259-0.828-0.062-1.754,0.528-2.395c1.588-1.719,5.867-7.406,4.722-10.838
				c-0.72-2.143-3.779-3.123-6.228-3.568c-0.941-0.172-1.693-0.884-1.926-1.813c-1.018-4.192-4.042-10.425-8.189-10.425
				c-2.498,0-5.521,2.137-8.746,6.171c-0.512,0.65-1.313,0.988-2.162,0.896c-0.828-0.09-1.555-0.598-1.918-1.35
				c-1.479-3.039-4.062-6.667-7.934-6.667c-3.243,0-7.036,2.493-10.419,6.835c-0.702,0.908-1.944,1.195-2.969,0.699
				C230.746,244.272,227.974,243.442,226.078,243.442z"/>
		</g>
		<g>
			<path fill="#1F6935" d="M271.619,285.417c0,0-5.694,8.567,7.273,8.83c13.281,8.825,20.864-1.56,20.864-1.56
				s22.762-3.639,14.857-16.621c11.696-7.534,15.176-17.407-1.896-21.309c4.111-12.725-2.843-12.987-12.642-10.651
				c0,0-15.566-12.685-22.964,0.669c-17.012-3.949-12.774,11.805-12.774,11.805s-12.337,3.821-6.01,11.655
				c-9.173,2.113-3.229,10.677,2.217,12.244C260.548,280.482,260.861,289.312,271.619,285.417z"/>
			<path fill="#3C2517" d="M289.206,300.232c-3.591,0-7.312-1.203-11.067-3.582c-4.896-0.219-8.087-1.672-9.478-4.332
				c-0.623-1.188-0.782-2.41-0.699-3.541c-0.418,0.041-0.817,0.062-1.213,0.062l0,0c-5.146,0-7.659-3.506-8.397-6.594
				c-3.744-1.733-7.32-5.742-7.216-9.769c0.037-1.219,0.5-3.801,3.607-5.494c-0.871-2.084-0.72-3.85-0.341-5.102
				c1.093-3.582,4.793-5.768,7.183-6.839c-0.312-2.487-0.353-6.564,2.011-9.648c2.438-3.177,6.569-4.332,12.348-3.331
				c2.64-3.821,6.326-5.827,10.767-5.827c5.946,0,11.684,3.646,13.927,5.254c2.896-0.644,5.158-0.949,7.054-0.949
				c3.358,0,5.797,1.01,7.24,3c1.584,2.175,1.854,5.226,0.81,9.493c6.586,1.938,10.29,5.045,11.027,9.247
				c0.832,4.714-2.354,9.843-9.008,14.591c1.519,3.585,0.948,6.401,0.101,8.233c-3.07,6.646-13.474,9.168-16.81,9.818
				C299.529,296.589,295.48,300.232,289.206,300.232z M271.619,282.986c0.729,0,1.438,0.332,1.908,0.93
				c0.646,0.824,0.695,1.971,0.111,2.846c-0.428,0.662-1.173,2.369-0.673,3.312c0.206,0.389,1.243,1.647,5.978,1.743
				c0.461,0.011,0.91,0.15,1.295,0.404c3.146,2.094,6.162,3.152,8.968,3.152c5.522,0,8.561-4.078,8.59-4.119
				c0.378-0.516,0.948-0.861,1.581-0.963c3.227-0.521,12.052-2.838,14.072-7.221c0.749-1.627,0.454-3.504-0.907-5.74
				c-0.683-1.124-0.345-2.587,0.758-3.303c5.871-3.784,9.203-7.963,8.685-10.902c-0.441-2.525-3.927-4.656-9.804-5.999
				c-0.666-0.151-1.235-0.575-1.569-1.166c-0.339-0.593-0.414-1.299-0.202-1.946c1.703-5.271,0.982-7.081,0.593-7.617
				c-0.971-1.327-4.273-1.375-10.359,0.076c-0.734,0.176-1.51-0.004-2.093-0.477c-0.06-0.049-6.119-4.9-11.84-4.9
				c-3.214,0-5.655,1.59-7.468,4.861c-0.526,0.951-1.613,1.436-2.676,1.191c-4.56-1.065-7.684-0.666-9.114,1.202
				c-1.696,2.216-1.106,6.332-0.765,7.6c0.34,1.259-0.379,2.562-1.627,2.95c-1.336,0.422-5.328,2.139-6.011,4.403
				c-0.104,0.351-0.43,1.427,1.173,3.408c0.523,0.651,0.676,1.524,0.404,2.317c-0.271,0.791-0.934,1.388-1.749,1.574
				c-1.302,0.299-2.854,0.891-2.882,2.002c-0.055,1.907,2.683,4.81,5.224,5.541c1.011,0.293,1.718,1.197,1.753,2.248
				c0.051,0.822,0.46,3.584,3.776,3.584l0,0c1.13,0,2.491-0.285,4.042-0.846C271.061,283.035,271.341,282.986,271.619,282.986z"/>
		</g>
	</g>
	<g>
		<path fill="#FBEA86" d="M347.362,233.017c-6.558,5.312-11.578,12.209-18.391,3.8c-6.823-8.413-7.036-19.539-0.477-24.857
			c6.56-5.313,26.019-3.929,32.833,4.484C368.153,224.853,353.921,227.702,347.362,233.017z"/>
		<path fill="#3C2517" d="M335.39,243.179c-2.95,0-5.668-1.583-8.309-4.836c-3.634-4.482-5.694-9.834-5.794-15.07
			c-0.105-5.461,1.915-10.147,5.682-13.198c2.933-2.378,7.792-3.686,13.686-3.686c7.223,0,17.465,2.234,22.562,8.525
			c1.933,2.382,2.677,4.734,2.217,6.992c-0.857,4.212-5.621,6.74-10.227,9.18c-2.289,1.216-4.654,2.471-6.317,3.818
			c-0.943,0.766-1.854,1.565-2.745,2.346C342.668,240.297,339.378,243.179,335.39,243.179z M340.653,211.247
			c-4.647,0-8.619,0.972-10.627,2.599c-2.577,2.09-3.959,5.405-3.887,9.334c0.083,4.159,1.757,8.456,4.714,12.102
			c2.463,3.04,4.021,3.04,4.535,3.04c2.16,0,4.78-2.296,7.554-4.724c0.935-0.822,1.893-1.663,2.89-2.47
			c2.027-1.64,4.604-3.005,7.103-4.332c3.438-1.825,7.339-3.891,7.738-5.858c0.155-0.767-0.255-1.766-1.229-2.962
			C355.681,213.324,347.296,211.247,340.653,211.247z"/>
	</g>
	<g>
		<path fill="#FBEA86" d="M372.407,207.904c4.581,7.093,10.896,12.82,1.802,18.697c-9.094,5.875-20.185,4.89-24.76-2.203
			c-4.582-7.089-1.116-26.288,7.982-32.16C366.523,186.361,367.828,200.815,372.407,207.904z"/>
		<path fill="#3C2517" d="M361.806,232.863c-6.218,0-11.465-2.602-14.396-7.147c-2.554-3.95-3.113-10.993-1.468-18.381
			c1.746-7.846,5.457-14.091,10.174-17.135c1.832-1.188,3.527-1.764,5.178-1.764c5.46,0,7.792,5.829,10.041,11.466
			c0.961,2.405,1.955,4.895,3.111,6.687c0.659,1.022,1.356,2.014,2.037,2.98c2.81,4.007,5.463,7.785,4.641,12
			c-0.517,2.662-2.349,4.976-5.595,7.074C371.311,231.365,366.44,232.863,361.806,232.863z M361.292,193.292
			c-0.666,0-1.547,0.341-2.544,0.986c-3.602,2.327-6.615,7.603-8.069,14.112c-1.332,5.976-1.008,11.881,0.809,14.692
			c2.021,3.13,5.784,4.926,10.318,4.926c3.707,0,7.646-1.224,11.081-3.443c2.055-1.327,3.222-2.646,3.466-3.922
			c0.432-2.195-1.646-5.146-3.843-8.28c-0.716-1.021-1.447-2.064-2.144-3.137c-1.411-2.191-2.495-4.901-3.541-7.523
			C365.248,197.761,363.462,193.292,361.292,193.292z"/>
	</g>
	<g>
		<path fill="#FBEA86" d="M335.38,229.969c6.158-5.776,10.664-13.013,18.071-5.117c7.404,7.897,8.418,18.984,2.263,24.756
			c-6.162,5.772-25.668,5.796-33.071-2.102C315.235,239.609,329.225,235.742,335.38,229.969z"/>
		<path fill="#3C2517" d="M341.15,256.143c-8.606,0-16.187-2.607-20.277-6.977c-2.097-2.234-3.011-4.523-2.716-6.811
			c0.55-4.265,5.118-7.129,9.533-9.897c2.199-1.375,4.47-2.802,6.028-4.263c0.885-0.829,1.733-1.691,2.567-2.536
			c3.406-3.449,6.626-6.712,10.876-6.712c2.746,0,5.38,1.388,8.061,4.246c8.312,8.86,9.272,21.505,2.153,28.189
			C354.189,254.363,348.128,256.143,341.15,256.143z M347.163,223.802c-2.223,0-4.747,2.564-7.417,5.268
			c-0.878,0.888-1.772,1.795-2.706,2.67c-1.898,1.784-4.377,3.333-6.769,4.833c-3.301,2.069-7.04,4.414-7.303,6.403
			c-0.096,0.779,0.389,1.74,1.445,2.866c3.144,3.357,9.557,5.444,16.735,5.444c5.603,0,10.667-1.354,12.902-3.448
			c5.168-4.85,4.104-14.416-2.372-21.325C349.992,224.718,348.472,223.802,347.163,223.802z"/>
	</g>
	<g>
		<path fill="#FBEA86" d="M359.745,217.975c4.28-4.018,6.569-9.957,15.904-0.006c9.332,9.953,13.431,21.276,9.146,25.293
			c-4.287,4.018-23.004-1.458-32.337-11.414C343.125,221.901,355.462,221.989,359.745,217.975z"/>
		<path fill="#3C2517" d="M379.983,247.018c-8.001,0-21.475-5.165-29.296-13.508c-3.224-3.437-4.479-6.239-3.951-8.817
			c0.694-3.386,4.141-4.89,7.179-6.218c1.605-0.706,3.271-1.431,4.171-2.271c0.589-0.553,1.136-1.148,1.673-1.726
			c1.904-2.059,4.068-4.391,7.41-4.391c3.055,0,6.219,1.921,10.253,6.222c10.578,11.285,14.464,23.631,9.034,28.727
			C385.052,246.349,382.872,247.018,379.983,247.018z M367.169,214.942c-1.162,0-2.22,1.077-3.85,2.836
			c-0.612,0.659-1.238,1.335-1.914,1.964c-1.508,1.418-3.56,2.314-5.549,3.182c-1.761,0.772-4.176,1.827-4.363,2.745
			c-0.043,0.22-0.123,1.471,2.735,4.519c6.615,7.055,18.884,11.973,25.755,11.973c2.317,0,3.033-0.558,3.152-0.669
			c2.494-2.342,0.184-11.792-9.256-21.859C370.243,215.756,368.223,214.942,367.169,214.942z"/>
	</g>
	<g>
		<path fill="#D06128" d="M362.962,306.248c0,0,42.612-82.334,48.9-87.8c6.284-5.463,10.756-9.567,24.407-1.029
			c13.658,8.539,18.509,16.276,8.709,29.035c-9.799,12.767-69.181,67.353-69.797,68.487c-0.608,1.133-11.021,11.863-15.406,4.621
			C355.382,312.324,360.358,311.255,362.962,306.248z"/>
		<path fill="#3C2517" d="M363.93,324.48c-2.628,0-4.779-1.265-6.234-3.66c-4.059-6.691-1.303-9.979,0.911-12.623
			c0.784-0.936,1.591-1.9,2.199-3.068c4.384-8.471,43.014-82.903,49.464-88.513l0.194-0.169c3.765-3.271,7.312-6.359,12.787-6.359
			c4.009,0,8.554,1.671,14.308,5.272c9.329,5.832,13.756,10.776,14.792,16.527c0.882,4.88-0.9,10.132-5.445,16.046
			c-7.129,9.293-38.832,39.182-57.771,57.038c-6.111,5.764-11.398,10.743-12.032,11.463
			C375.759,318.248,369.681,324.48,363.93,324.48z M423.251,214.942c-3.66,0-6.151,2.17-9.597,5.168l-0.199,0.172
			c-4.323,3.76-31.941,55.407-48.337,87.079c-0.854,1.646-1.881,2.875-2.792,3.955c-2.044,2.443-2.733,3.265-0.479,6.984
			c0.709,1.166,1.448,1.324,2.081,1.324c3.339,0,8.392-4.818,9.189-5.959c0.248-0.471,0.291-0.547,12.681-12.23
			c17.598-16.594,50.357-47.477,57.252-56.458c3.667-4.771,5.143-8.77,4.52-12.228c-0.763-4.21-4.646-8.305-12.585-13.271
			C430.105,216.425,426.269,214.942,423.251,214.942z"/>
	</g>
	<g>
		<path fill="#EE7923" d="M319.147,299.544c0,0,64.46-66.624,72.049-70.054c7.587-3.429,13.053-6.074,23.677,6.024
			c10.624,12.102,13.056,20.911,0,30.323c-13.056,9.42-85.605,44.638-86.52,45.55c-0.911,0.905-13.965,8.192-16.091,0
			C310.14,303.188,315.208,303.596,319.147,299.544z"/>
		<path fill="#3C2517" d="M317.573,317.667c-3.933,0-6.726-2.067-7.658-5.674c-1.969-7.582,1.616-9.938,4.495-11.832
			c1.022-0.67,2.077-1.363,2.998-2.312c6.625-6.851,64.996-67.056,72.785-70.573l0.234-0.104c3.405-1.538,6.622-2.993,10.227-2.993
			c5.185,0,10.131,3.001,16.044,9.733c7.259,8.265,10.074,14.272,9.418,20.083c-0.558,4.929-3.771,9.449-9.818,13.812
			c-9.501,6.854-48.442,26.366-71.712,38.028c-7.443,3.729-13.887,6.955-14.802,7.511
			C328.247,314.531,322.553,317.667,317.573,317.667z M400.654,229.04c-2.562,0-5.188,1.184-8.227,2.556l-0.23,0.107
			c-5.226,2.36-46.508,43.898-71.305,69.529c-1.296,1.332-2.631,2.209-3.811,2.985c-2.663,1.753-3.558,2.347-2.468,6.558
			c0.317,1.223,0.939,2.035,2.958,2.035c3.487,0,8.321-2.572,9.164-3.234c0.377-0.385,0.437-0.445,15.676-8.082
			c21.615-10.834,61.859-31,71.042-37.621c4.877-3.521,7.439-6.932,7.838-10.421c0.478-4.257-2.062-9.294-8.245-16.335
			C406.76,229.958,403.123,229.04,400.654,229.04z"/>
	</g>
	<g>
		<path fill="#EE7923" d="M291.512,293.732c0,0,64.46-66.627,72.047-70.057c7.59-3.423,13.057-6.074,23.681,6.029
			c10.624,12.098,13.056,20.902,0,30.32c-13.057,9.412-85.609,44.634-86.521,45.545c-0.91,0.908-13.963,8.195-16.09,0
			C282.505,297.375,287.573,297.781,291.512,293.732z"/>
		<path fill="#3C2517" d="M289.938,311.855c-3.936,0-6.725-2.07-7.658-5.676c-1.969-7.58,1.615-9.938,4.498-11.834
			c1.021-0.671,2.074-1.361,2.994-2.31c6.627-6.851,65-67.055,72.785-70.573l0.235-0.104c3.405-1.541,6.622-2.992,10.227-2.992
			c5.186,0,10.135,3.001,16.044,9.733c7.259,8.267,10.077,14.275,9.418,20.081c-0.557,4.926-3.767,9.447-9.821,13.812
			c-9.498,6.853-48.437,26.366-71.701,38.024c-7.447,3.734-13.896,6.963-14.809,7.515
			C300.612,308.718,294.918,311.855,289.938,311.855z M373.02,223.226c-2.561,0-5.185,1.184-8.226,2.559l-0.232,0.104
			c-5.224,2.357-46.508,43.903-71.304,69.53c-1.295,1.332-2.63,2.209-3.81,2.981c-2.663,1.754-3.558,2.347-2.468,6.562
			c0.316,1.222,0.939,2.033,2.957,2.033c3.488,0,8.322-2.572,9.163-3.234c0.374-0.383,0.438-0.444,15.681-8.084
			c21.619-10.834,61.854-30.997,71.039-37.626c4.876-3.517,7.437-6.927,7.838-10.417c0.477-4.257-2.063-9.287-8.245-16.33
			C379.125,224.144,375.487,223.226,373.02,223.226z"/>
	</g>
	<g>
		<path fill="#EE7923" d="M350.808,311.602c0,0,64.46-66.627,72.05-70.06c7.587-3.422,13.053-6.071,23.68,6.031
			c10.625,12.104,13.053,20.913,0,30.329c-13.052,9.41-85.608,44.625-86.521,45.533c-0.909,0.912-13.967,8.199-16.09,0
			C341.8,315.244,346.872,315.65,350.808,311.602z"/>
		<path fill="#3C2517" d="M349.233,329.721c-3.933,0-6.726-2.066-7.655-5.673c-1.968-7.582,1.62-9.94,4.502-11.834
			c1.014-0.67,2.067-1.362,2.988-2.31c6.625-6.85,65.003-67.054,72.788-70.572l0.237-0.107c3.402-1.537,6.616-2.988,10.225-2.988
			c5.181,0,10.13,3.001,16.04,9.731c7.259,8.271,10.077,14.277,9.422,20.093c-0.562,4.928-3.773,9.445-9.822,13.813
			c-9.498,6.844-48.427,26.353-71.688,38.006c-7.449,3.734-13.906,6.972-14.82,7.519
			C359.907,326.585,354.216,329.721,349.233,329.721z M432.318,241.095c-2.562,0-5.188,1.184-8.227,2.556l-0.238,0.107
			c-5.222,2.357-46.502,43.899-71.298,69.53c-1.296,1.332-2.63,2.207-3.81,2.981c-2.664,1.754-3.562,2.344-2.472,6.56
			c0.317,1.223,0.939,2.034,2.958,2.034c3.491,0,8.324-2.571,9.17-3.233c0.375-0.385,0.431-0.448,15.692-8.094
			c21.612-10.828,61.839-30.986,71.02-37.604c4.88-3.521,7.443-6.929,7.838-10.418c0.483-4.258-2.062-9.298-8.242-16.341
			C438.42,242.013,434.783,241.095,432.318,241.095z"/>
	</g>
	<g>
		<path fill="#D06128" d="M291.512,324.305c0,0,64.46-66.621,72.047-70.05c7.59-3.435,13.057-6.079,23.681,6.024
			c10.624,12.109,13.056,20.916,0,30.326c-13.057,9.41-85.609,44.625-86.521,45.539c-0.91,0.91-13.963,8.195-16.09,0
			C282.505,327.947,287.573,328.355,291.512,324.305z"/>
		<path fill="#3C2517" d="M289.938,342.425c-3.936,0-6.725-2.065-7.658-5.67c-1.969-7.582,1.615-9.938,4.494-11.836
			c1.024-0.668,2.078-1.36,2.998-2.308c6.627-6.852,65-67.053,72.785-70.569l0.232-0.104c3.408-1.543,6.622-2.995,10.229-2.995
			c5.186,0,10.135,3.004,16.048,9.739c7.259,8.274,10.073,14.28,9.415,20.088c-0.558,4.928-3.771,9.446-9.822,13.809
			c-9.498,6.848-48.426,26.352-71.687,38.008c-7.453,3.736-13.91,6.971-14.823,7.521
			C300.612,339.291,294.918,342.425,289.938,342.425z M373.02,253.798c-2.561,0-5.185,1.188-8.229,2.565l-0.229,0.104
			c-5.224,2.357-46.508,43.896-71.304,69.527c-1.295,1.328-2.63,2.209-3.81,2.986c-2.663,1.752-3.558,2.342-2.468,6.553
			c0.316,1.221,0.939,2.033,2.957,2.033c3.488,0,8.322-2.568,9.163-3.234c0.374-0.383,0.438-0.445,15.696-8.09
			c21.612-10.832,61.839-30.986,71.022-37.607c4.876-3.514,7.437-6.924,7.838-10.41c0.477-4.257-2.063-9.297-8.245-16.344
			C379.122,254.715,375.487,253.798,373.02,253.798z"/>
	</g>
	<g>
		<path fill="#FEE394" d="M310.637,294.971c-81.846,0-148.174-11.765-148.174-26.283v83.735c0,14.515,66.328,26.277,148.174,26.277
			c81.822,0,148.147-11.765,148.147-26.277v-83.735C458.784,283.207,392.459,294.971,310.637,294.971z"/>
		<path fill="#3C2517" d="M310.637,381.128c-73.007,0-150.602-10.062-150.602-28.705v-83.735c0-1.338,1.09-2.429,2.428-2.429
			c1.342,0,2.429,1.091,2.429,2.429c0,9.752,51.901,23.856,145.745,23.856c93.827,0,145.719-14.104,145.719-23.856
			c0-1.338,1.088-2.429,2.43-2.429s2.428,1.091,2.428,2.429v83.735C461.212,371.068,383.63,381.128,310.637,381.128z
			 M164.892,276.417v76.006c0,9.746,51.901,23.851,145.745,23.851c39.433,0,76.485-2.722,104.332-7.66
			c30.548-5.416,41.388-12.107,41.388-16.189v-76.002c-18.064,13.684-83.556,20.977-145.72,20.977
			C248.459,297.398,182.963,290.105,164.892,276.417z"/>
	</g>
	<g>
		<path fill="#FEE394" d="M202.524,157.156c4.973,5.462-31.889,47.092-82.326,92.986c-50.437,45.91-95.354,78.682-100.327,73.223
			l28.673,31.51c0.092,0.1,0.222,0.156,0.334,0.232c0.123,0.184,0.223,0.381,0.368,0.541c8.143,8.946,55.628-21.002,106.068-66.896
			c50.443-45.909,84.73-90.367,76.588-99.313c-0.146-0.161-0.335-0.283-0.504-0.416c-0.06-0.123-0.109-0.258-0.198-0.356
			L202.524,157.156z"/>
		<path fill="#3C2517" d="M53.777,359.656h-0.003c-2.763,0-4.89-0.795-6.327-2.371c-0.123-0.137-0.235-0.289-0.342-0.441
			c-0.109-0.09-0.225-0.195-0.341-0.318l-28.688-31.526c-0.901-0.992-0.832-2.528,0.162-3.429c0.911-0.836,2.286-0.836,3.2-0.059
			c8.392-0.176,47.635-28.121,97.124-73.164c53.855-49.006,82.498-83.981,81.994-89.77c-0.716-0.989-0.59-2.377,0.338-3.218
			c0.99-0.904,2.527-0.827,3.429,0.162l28.676,31.515c0.122,0.131,0.222,0.265,0.301,0.393c0.146,0.124,0.275,0.243,0.388,0.369
			c4.973,5.459-0.477,18.555-16.189,38.925c-14.543,18.859-36.046,41.529-60.548,63.826
			C112.229,331.238,69.805,359.656,53.777,359.656z M50.167,353.05c0.029,0.017,0.053,0.033,0.06,0.039
			c0.262,0.177,0.49,0.402,0.669,0.666l0.166,0.263c0.572,0.646,1.795,0.78,2.713,0.78c12.28,0.004,51.471-23.772,99.906-67.842
			c24.296-22.112,45.598-44.558,59.975-63.202c16.727-21.687,18.21-30.746,16.451-32.679c-0.013-0.012-0.192-0.131-0.209-0.143
			c-0.277-0.219-0.507-0.497-0.669-0.815c0-0.003,0-0.005-0.003-0.008l-24.896-27.365c-2.127,4.812-7.649,12.984-20.37,27.354
			c-15.604,17.625-37.666,39.588-62.128,61.839c-37.325,33.973-80.421,68.336-96.591,73.721L50.167,353.05z"/>
	</g>
	<g>
		<path fill="#DDBC6B" d="M202.524,157.156c8.14,8.946-26.151,53.403-76.585,99.296c-50.44,45.901-97.929,75.854-106.068,66.907
			c-8.136-8.944,26.151-53.402,76.589-99.31C146.896,178.159,194.385,148.208,202.524,157.156z"/>
		<path fill="#3C2517" d="M24.4,327.369c-2.763,0-4.89-0.797-6.324-2.375c-12.009-13.201,39.319-68.674,76.75-102.737
			c44.719-40.692,87.146-69.111,103.173-69.111c2.76,0,4.89,0.8,6.324,2.375c12.009,13.203-39.319,68.666-76.747,102.73
			C82.854,298.947,40.427,327.369,24.4,327.369z M197.999,158.002c-12.283,0-51.474,23.779-99.903,67.844
			c-59.614,54.251-81.126,90.714-76.426,95.878c0.59,0.651,1.812,0.786,2.73,0.786c12.287,0,51.477-23.78,99.906-67.854
			c59.61-54.242,81.126-90.699,76.422-95.867C200.14,158.14,198.92,158.002,197.999,158.002z"/>
	</g>
</g>
</svg>
