<svg id="story_book" data-name="story book" xmlns="http://www.w3.org/2000/svg" viewBox="0 0 300 300"><defs><style>.cls-1{fill:#f48020;}.cls-2{fill:#27140e;}.cls-3{fill:#fff;}.cls-4{fill:#f9a425;}.cls-5{fill:#c2c2c5;}.cls-6{fill:#921e1e;}.cls-7{fill:#c14227;}.cls-8{fill:#a43091;}.cls-8,.cls-9{fill-rule:evenodd;}.cls-9{fill:#924d22;}.cls-10{fill:#ffead4;}.cls-11{fill:#e61e25;}.cls-12{fill:#593325;}.cls-13{fill:#040509;}</style></defs><title>story book</title><path class="cls-1" d="M233.57,235.18V208.59L181.68,71.1l-96-32.43S57.48,33.8,53,60.72v193s.64,22.69,32.75,23"/><path class="cls-2" d="M85.7,279h0c-33.94-.34-35-25-35-25.27v-193a2.34,2.34,0,0,1,0-.38c1.41-8.35,5.11-14.7,11-18.87,10.42-7.39,23.86-5.18,24.43-5.08l.35.09,96,32.43a2.32,2.32,0,0,1,1.42,1.37l51.88,137.5a2.24,2.24,0,0,1,.15.81v26.59a2.31,2.31,0,1,1-4.62,0V209L179.91,72.94l-94.77-32a35,35,0,0,0-13.63.94c-9,2.59-14.5,9-16.25,19.05V253.67c0,.76,1.1,20.41,30.46,20.71a2.31,2.31,0,0,1,0,4.62Z"/><path class="cls-1" d="M85.7,276.69H225.86a7.73,7.73,0,0,0,7.71-7.71v-33.8"/><path class="cls-2" d="M225.86,279H85.7a2.31,2.31,0,1,1,0-4.62H225.86a5.42,5.42,0,0,0,5.4-5.4v-33.8a2.31,2.31,0,0,1,4.62,0V269A10,10,0,0,1,225.86,279Z"/><path class="cls-3" d="M81.48,232.4l152.09.32v32.76H82.75s-16.1.32-16.41-18.81C67,233.38,81.48,232.4,81.48,232.4Z"/><path class="cls-2" d="M82.69,267.79c-.74,0-18.33-.24-18.67-21.08.58-12.3,11.57-16.23,17.31-16.62h.16l152.08.32a2.31,2.31,0,0,1,2.31,2.31v32.76a2.31,2.31,0,0,1-2.31,2.31Zm-1.12-33.08c-1.08.1-12.41,1.33-12.92,12.07.27,15.92,12.64,16.38,14,16.38v2.32l0-2.32H231.26V235Z"/><rect class="cls-4" x="77.59" y="38.02" width="156.3" height="182.59" rx="7.71" ry="7.71"/><path class="cls-2" d="M226.18,222.92H85.3a10,10,0,0,1-10-10V45.74a10,10,0,0,1,10-10H226.18a10,10,0,0,1,10,10V212.89A10,10,0,0,1,226.18,222.92ZM85.3,40.34a5.4,5.4,0,0,0-5.4,5.4V212.89a5.41,5.41,0,0,0,5.4,5.41H226.18a5.41,5.41,0,0,0,5.4-5.41V45.74a5.4,5.4,0,0,0-5.4-5.4Z"/><path class="cls-5" d="M98.6,60.67H212.88a7.72,7.72,0,0,1,7.72,7.72V184.65a7.71,7.71,0,0,1-7.71,7.71H98.6a7.71,7.71,0,0,1-7.71-7.71V68.39a7.71,7.71,0,0,1,7.71-7.71Z"/><path class="cls-2" d="M212.88,194.68H98.6a10.05,10.05,0,0,1-10-10V68.39a10,10,0,0,1,10-10H212.88a10,10,0,0,1,10,10V184.64A10.05,10.05,0,0,1,212.88,194.68ZM98.6,63a5.4,5.4,0,0,0-5.4,5.4V184.64a5.41,5.41,0,0,0,5.4,5.41H212.88a5.41,5.41,0,0,0,5.4-5.41V68.39a5.4,5.4,0,0,0-5.4-5.4Z"/><path class="cls-6" d="M126.47,152.27s6.87,6,14.13,6.87,7.88-15.27,7.88-15.27Z"/><path class="cls-6" d="M190,152.27s-6.87,6-14.12,6.87S168,143.87,168,143.87Z"/><path class="cls-7" d="M130.67,178h54.72s-2.9-20.15-9.93-27.22-10.84-16.93-10.84-16.93l-6.4-.89-12.41,4.2S130,169.58,130.67,178Z"/><path class="cls-8" d="M158.59,158.44c.87-1,2.87-1,3.25.27.54,1.85-1.78,4.37-3.25,4.33-1.15,0-3.68-2.37-3.11-4.33A1.82,1.82,0,0,1,158.59,158.44Z"/><path class="cls-9" d="M170.64,171.17c-.11,2.23-1.12,4.31-1.76,6.36s-.72,4.41-2.57,5.42H150.74c-1.64-.67-1.94-3.77-2.57-6s-1.52-4.09-1.49-6a1.6,1.6,0,0,1,1.62-.54c.67-5.11,2.85-8.7,6.91-10.42,0,.62.38.88.54,1.35a14.31,14.31,0,0,1-1.9,1.35,11.27,11.27,0,0,0-3.92,7.59c5.59.31,11.78,0,17.6.13-.55-4.41-2.59-7.34-6-8.93a4.88,4.88,0,0,1,.81-1.63c4,1.77,6.3,5.26,7.05,10.29C169.69,170.67,170.54,170.55,170.64,171.17Z"/><path class="cls-10" d="M151,146.55s-2.67,9.16,3.82,15.52-1.19,6.44-2.18,4.07c-1.17-2.78-3.93-5.09-5.08-8.4s-.89-4.33-.89-8c0-4.5,1.78-5.86,1.78-5.86Z"/><path class="cls-10" d="M167.45,147.06s2.67,9.16-3.82,15.52,1.19,6.44,2.18,4.07c1.17-2.78,3.93-5.09,5.08-8.39s.89-4.34.89-8c0-4.5-1.79-5.86-1.79-5.86Z"/><path class="cls-11" d="M159.56,134.46C154.47,147.06,177,157,190,152.27c-2.92-16.92-18.83-19.21-18.83-19.21s20-5.85,17.18-27.36S158,70.78,158,70.78,130.92,84.2,128.12,105.7s17.19,27.36,17.19,27.36-15.91,2.29-18.84,19.21c13,4.71,35.5-5.21,30.41-17.81Z"/><path class="cls-10" d="M134.49,114s-.14,12.2,9.67,15.77A101.9,101.9,0,0,0,158,131.91a38.51,38.51,0,0,0,17.3-3.78c5.85-2.32,5.35-12.5,5.35-12.5L158.22,95.9l-21.06,9.29Z"/><path class="cls-12" d="M134.49,114s1.27-1.66,6.87-1.15a12.37,12.37,0,0,0,12.6-7.25c2-4.71,6.74,7.12,13.23,6.49s12.47,1.52,13.49,3.56,3-13.36-1.91-21.51-14.51-14.37-35-7.63C129.53,94.76,134.49,114,134.49,114Z"/><path class="cls-13" d="M149.37,119.57a1.78,1.78,0,1,1-1.78-1.78A1.77,1.77,0,0,1,149.37,119.57Z"/><path class="cls-13" d="M170,119.57a1.79,1.79,0,1,1-1.78-1.78A1.78,1.78,0,0,1,170,119.57Z"/><path class="cls-13" d="M157.82,128.9h0c-2.58,0-4.39-2.54-4.46-2.65l1.25-.89s1.44,2,3.22,2a4.18,4.18,0,0,0,3-2l1.25.91C160.8,128,159.37,128.9,157.82,128.9Z"/></svg>