<svg id="store" xmlns="http://www.w3.org/2000/svg" viewBox="0 0 300 300"><defs><style>.cls-1{fill:#ffefc8;}.cls-2{fill:#3c2517;}.cls-3{fill:#a97d51;}.cls-4{fill:#acdee2;}.cls-5{fill:#764d2a;}.cls-6{fill:#fff;}</style></defs><title>store</title><rect class="cls-1" x="49.02" y="100.21" width="215" height="99.95"/><path class="cls-2" d="M264,201.49H49a1.33,1.33,0,0,1-1.33-1.34V100.21A1.33,1.33,0,0,1,49,98.87H264a1.33,1.33,0,0,1,1.33,1.34v99.94a1.33,1.33,0,0,1-1.33,1.34M50.35,198.82H262.69V101.54H50.35Z"/><rect class="cls-3" x="65.75" y="115.97" width="180.3" height="84.19"/><path class="cls-2" d="M246.05,201.39H65.75a1.23,1.23,0,0,1-1.24-1.24V116a1.23,1.23,0,0,1,1.24-1.24h180.3a1.23,1.23,0,0,1,1.24,1.24v84.18a1.23,1.23,0,0,1-1.24,1.24M67,198.92H244.81V117.21H67Z"/><rect class="cls-4" x="71.32" y="136.65" width="37.18" height="63.5"/><path class="cls-2" d="M108.5,201.48H71.32A1.32,1.32,0,0,1,70,200.15v-63.5a1.33,1.33,0,0,1,1.32-1.33H108.5a1.34,1.34,0,0,1,1.33,1.33v63.5a1.33,1.33,0,0,1-1.33,1.33m-35.85-2.65h34.52V138H72.65Z"/><rect class="cls-4" x="108.5" y="136.65" width="37.18" height="63.5"/><path class="cls-2" d="M145.68,201.48H108.5a1.33,1.33,0,0,1-1.33-1.33v-63.5a1.34,1.34,0,0,1,1.33-1.33h37.18a1.33,1.33,0,0,1,1.32,1.33v63.5a1.32,1.32,0,0,1-1.32,1.33m-35.85-2.65h34.52V138H109.83Z"/><rect class="cls-4" x="162.1" y="136.65" width="37.18" height="63.5"/><path class="cls-2" d="M199.27,201.48H162.1a1.32,1.32,0,0,1-1.33-1.33v-63.5a1.33,1.33,0,0,1,1.33-1.33h37.17a1.33,1.33,0,0,1,1.33,1.33v63.5a1.32,1.32,0,0,1-1.33,1.33m-35.85-2.65H198V138H163.42Z"/><rect class="cls-4" x="199.27" y="136.65" width="37.18" height="63.5"/><path class="cls-2" d="M236.45,201.48H199.27a1.32,1.32,0,0,1-1.32-1.33v-63.5a1.33,1.33,0,0,1,1.32-1.33h37.18a1.33,1.33,0,0,1,1.32,1.33v63.5a1.32,1.32,0,0,1-1.32,1.33m-35.85-2.65h34.52V138H200.6Z"/><rect class="cls-1" x="100.15" y="66.55" width="109.05" height="24.9"/><path class="cls-2" d="M209.2,92.53h-109a1.07,1.07,0,0,1-1.08-1.07V66.55a1.07,1.07,0,0,1,1.08-1.07h109a1.07,1.07,0,0,1,1.07,1.07V91.46a1.07,1.07,0,0,1-1.07,1.07m-108-2.15h106.9V67.63H101.22Z"/><path class="cls-5" d="M142.38,77.3H139.3v-.87a1.57,1.57,0,0,0-.12-.78.45.45,0,0,0-.39-.17.51.51,0,0,0-.45.23,1.14,1.14,0,0,0-.16.68,1.77,1.77,0,0,0,.18.89,2.45,2.45,0,0,0,.93.72,9.57,9.57,0,0,1,2.79,2,4.27,4.27,0,0,1,.57,2.5,4.14,4.14,0,0,1-.31,1.85,2.48,2.48,0,0,1-1.24,1,5.14,5.14,0,0,1-2.12.4,5,5,0,0,1-2.27-.46,2.34,2.34,0,0,1-1.23-1.19,5.45,5.45,0,0,1-.3-2v-.77h3.08v1.43a1.83,1.83,0,0,0,.13.85.51.51,0,0,0,.46.19.54.54,0,0,0,.49-.24,1.24,1.24,0,0,0,.17-.71,2.12,2.12,0,0,0-.31-1.36,10.43,10.43,0,0,0-1.55-1.06,16.67,16.67,0,0,1-1.64-1.1,2.48,2.48,0,0,1-.66-.94,3.83,3.83,0,0,1-.27-1.54,4,4,0,0,1,.38-2,2.48,2.48,0,0,1,1.2-1,5.29,5.29,0,0,1,2-.35,5.58,5.58,0,0,1,2.2.39,2.17,2.17,0,0,1,1.2,1,4.68,4.68,0,0,1,.3,2"/><polyline class="cls-5" points="150.37 73.74 150.37 76.09 148.4 76.09 148.4 85.49 145.09 85.49 145.09 76.09 143.13 76.09 143.13 73.74"/><path class="cls-5" d="M158.7,80.62a23.8,23.8,0,0,1-.09,2.51,2.7,2.7,0,0,1-.57,1.35,3,3,0,0,1-1.29.94,5.19,5.19,0,0,1-1.89.32,5.11,5.11,0,0,1-1.84-.31,3,3,0,0,1-1.31-.92,2.73,2.73,0,0,1-.59-1.35,24,24,0,0,1-.09-2.54v-2a23.45,23.45,0,0,1,.09-2.5,2.7,2.7,0,0,1,.56-1.35,3,3,0,0,1,1.29-.94,5,5,0,0,1,1.89-.33,5.07,5.07,0,0,1,1.84.31,3.07,3.07,0,0,1,1.31.93,2.65,2.65,0,0,1,.59,1.34,21,21,0,0,1,.1,2.54m-3.32-1.85a3.2,3.2,0,0,0-.1-1.05.39.39,0,0,0-.4-.23.46.46,0,0,0-.4.19,2.41,2.41,0,0,0-.14,1.09v5.49a4.38,4.38,0,0,0,.1,1.26q.08.24.42.24a.41.41,0,0,0,.43-.27,5.75,5.75,0,0,0,.09-1.32Z"/><path class="cls-5" d="M159.93,73.74h2.35a18.27,18.27,0,0,1,3.17.17,2.2,2.2,0,0,1,1.36.85,3.64,3.64,0,0,1,.52,2.19,3.13,3.13,0,0,1-.37,1.84,2,2,0,0,1-1.46.57,2.62,2.62,0,0,1,1.33.6,1.91,1.91,0,0,1,.42.7,10.86,10.86,0,0,1,.08,1.74v3.09h-3.08v-3.9a2.48,2.48,0,0,0-.16-1.17c-.11-.15-.39-.23-.84-.23v5.3h-3.32m3.32-9.74v2.62a1.61,1.61,0,0,0,.78-.14c.15-.1.22-.41.22-.93v-.64c0-.37-.07-.62-.22-.73a1.24,1.24,0,0,0-.78-.18"/><polyline class="cls-5" points="168.62 73.74 174.14 73.74 174.14 76.09 171.93 76.09 171.93 78.33 174 78.33 174 80.56 171.93 80.56 171.93 83.14 174.36 83.14 174.36 85.49 168.62 85.49"/><rect class="cls-3" x="123.68" y="91.72" width="6.82" height="8.49"/><path class="cls-2" d="M130.5,101.45h-6.82a1.24,1.24,0,0,1-1.24-1.24V91.72a1.24,1.24,0,0,1,1.24-1.24h6.82a1.25,1.25,0,0,1,1.24,1.24v8.49a1.25,1.25,0,0,1-1.24,1.24M124.92,99h4.34V93h-4.34Z"/><rect class="cls-3" x="173.87" y="91.72" width="6.82" height="8.49"/><path class="cls-2" d="M180.68,101.45h-6.81a1.24,1.24,0,0,1-1.24-1.24V91.72a1.24,1.24,0,0,1,1.24-1.24h6.81a1.24,1.24,0,0,1,1.24,1.24v8.49a1.24,1.24,0,0,1-1.24,1.24M175.11,99h4.34V93h-4.34Z"/><path class="cls-6" d="M210.72,168.33a.53.53,0,0,1-.27-.08.55.55,0,0,1-.2-.75l12.88-21.92a.55.55,0,0,1,.75-.19.54.54,0,0,1,.19.75L211.2,168.06a.56.56,0,0,1-.48.27"/><path class="cls-6" d="M217.16,168.11a.45.45,0,0,1-.27-.08.54.54,0,0,1-.2-.75l9.08-15.44a.54.54,0,0,1,.74-.19.55.55,0,0,1,.2.75l-9.07,15.44a.57.57,0,0,1-.48.27"/><path class="cls-6" d="M84.64,169.57a.54.54,0,0,1-.47-.83L97,146.82a.55.55,0,0,1,.95.56L85.11,169.3a.56.56,0,0,1-.47.27"/><path class="cls-6" d="M91.08,169.35a.55.55,0,0,1-.28-.07.54.54,0,0,1-.19-.75l9.07-15.44a.54.54,0,0,1,.75-.2.55.55,0,0,1,.19.75l-9.07,15.44a.56.56,0,0,1-.47.27"/><path class="cls-2" d="M99.8,206.88H45.07a.65.65,0,0,1-.6-.39L28.19,168.44H18.52a.66.66,0,1,1,0-1.31h10.1a.66.66,0,0,1,.6.4l2.11,4.94,71.45,5.09a.68.68,0,0,1,.46.23.72.72,0,0,1,.15.49l-2.93,28a.66.66,0,0,1-.66.58m-54.3-1.3H99.21L102,178.82l-70.11-5Z"/><path class="cls-2" d="M50.23,206.89a.67.67,0,0,1-.61-.41L36.29,173.77a.64.64,0,0,1,.36-.85.65.65,0,0,1,.85.35L50.83,206a.64.64,0,0,1-.35.85.61.61,0,0,1-.25.06"/><path class="cls-2" d="M57.07,206.89a.66.66,0,0,1-.62-.45L45.59,174.39a.64.64,0,0,1,.4-.82.66.66,0,0,1,.84.4L57.69,206a.66.66,0,0,1-.41.83.78.78,0,0,1-.21,0"/><path class="cls-2" d="M63.26,206.89a.67.67,0,0,1-.64-.51L55.2,175a.65.65,0,0,1,.48-.79.66.66,0,0,1,.79.49l7.43,31.36a.67.67,0,0,1-.49.79l-.15,0"/><path class="cls-2" d="M69.45,206.89a.66.66,0,0,1-.65-.56l-4.36-30.71a.66.66,0,1,1,1.3-.18l4.36,30.7a.65.65,0,0,1-.56.74h-.09"/><path class="cls-2" d="M76.07,206.89a.64.64,0,0,1-.64-.6l-2.62-30.11a.63.63,0,0,1,.59-.7.65.65,0,0,1,.71.59l2.62,30.1a.66.66,0,0,1-.6.71h-.06"/><path class="cls-2" d="M82.05,206.89a.67.67,0,0,1-.66-.64l-1.07-29.56a.66.66,0,0,1,1.31-.05l1.07,29.57a.66.66,0,0,1-.63.68"/><path class="cls-2" d="M88.35,206.89h0a.67.67,0,0,1-.64-.68l.67-29a.66.66,0,0,1,1.31,0l-.67,29a.66.66,0,0,1-.65.64"/><path class="cls-2" d="M93.78,206.89h-.07a.64.64,0,0,1-.58-.71l2.71-28.46a.65.65,0,0,1,1.3.12l-2.71,28.46a.66.66,0,0,1-.65.6"/><path class="cls-2" d="M102,186.16h0l-67.5-4a.66.66,0,1,1,.08-1.31l67.49,4a.66.66,0,0,1,0,1.31"/><path class="cls-2" d="M101.17,193.85h0l-62.3-1.46a.66.66,0,0,1-.64-.67.65.65,0,0,1,.67-.64l62.3,1.46a.66.66,0,0,1,0,1.31"/><path class="cls-2" d="M100.38,201.34H42.7a.65.65,0,1,1,0-1.3h57.68a.65.65,0,1,1,0,1.3"/><path class="cls-2" d="M99,225.52A3.47,3.47,0,1,1,95.51,222,3.47,3.47,0,0,1,99,225.52"/><path class="cls-2" d="M46.9,225.52A3.48,3.48,0,1,1,43.42,222a3.48,3.48,0,0,1,3.48,3.48"/><polyline class="cls-2" points="44.43 223.88 43.13 223.75 44.02 215.34 58.46 203.18 62.58 203.21 95.48 213.33 96.16 223.33 94.86 223.42 94.24 214.31 62.29 204.48 58.93 204.48 45.27 216"/></svg>