<?xml version="1.0" encoding="utf-8"?>
<!-- Generator: Adobe Illustrator 16.0.0, SVG Export Plug-In . SVG Version: 6.00 Build 0)  -->
<!DOCTYPE svg PUBLIC "-//W3C//DTD SVG 1.1//EN" "http://www.w3.org/Graphics/SVG/1.1/DTD/svg11.dtd">
<svg version="1.1" id="Layer_1" xmlns="http://www.w3.org/2000/svg" xmlns:xlink="http://www.w3.org/1999/xlink" x="0px" y="0px"
	 width="500px" height="500px" viewBox="0 0 500 500" enable-background="new 0 0 500 500" xml:space="preserve">
<g id="Layer_1_copy_38">
	<g>
		<path fill="#FCC393" d="M221.379,272.607c0,0,1.69,19.623-9.774,25.846c-11.459,6.232,24.178,69.807,24.178,69.807l80.509-47.83
			l-16.526-25.641c0,0-5.459-8.246-2.393-22.182C300.449,258.673,221.277,261.411,221.379,272.607z"/>
		<path fill="#281912" d="M234.587,372.707l-1.612-2.875c-3.139-5.598-30.558-55.152-26.377-69.639
			c0.762-2.623,2.307-3.928,3.474-4.566c9.459-5.135,8.118-22.566,8.107-22.748l-0.013-0.24c-0.016-1.117,0.313-2.803,1.953-4.451
			c6.449-6.512,30.381-8.248,43.507-8.248c10.968,0,30.165,0.992,35.492,7.621c1.364,1.703,1.848,3.688,1.399,5.742
			c-2.744,12.457,1.88,19.639,1.928,19.711l18.356,28.482L234.587,372.707z M224.615,272.768c0.2,3.182,0.809,21.84-11.478,28.514
			c-0.114,0.062-0.255,0.338-0.361,0.693c-2.471,8.563,12.93,41.252,24.211,61.827l74.798-44.432l-14.727-22.841
			c-0.236-0.354-6.15-9.522-2.82-24.61c0.016-0.092,0.021-0.132-0.139-0.334c-2.016-2.507-12.414-5.217-30.475-5.217
			C242.346,266.369,226.537,270.115,224.615,272.768z"/>
	</g>
	<g>
		<g>
			<path fill="#FCC393" d="M360.913,172.625c-1.151,0-2.253,0.226-3.32,0.546c-9.116-41.287-49.366-72.407-97.67-72.407
				c-49.59,0-90.581,32.802-98.243,75.712c-1.827-1.087-3.852-1.74-6.013-1.74c-7.771,0-14.07,7.861-14.07,17.56
				c0,9.697,6.299,17.558,14.07,17.558c2.326,0,4.495-0.775,6.425-2.018c8.751,41.696,49.187,73.25,97.831,73.25
				c48.833,0,89.386-31.826,97.906-73.796c0.991,0.282,2.02,0.455,3.084,0.455c7.772,0,14.08-7.867,14.08-17.56
				S368.688,172.625,360.913,172.625z"/>
		</g>
		<g>
			<path fill="#281912" d="M259.923,284.302c-47.81,0-89.197-29.997-100.06-71.878c-1.372,0.427-2.777,0.649-4.196,0.649
				c-9.536,0-17.284-9.324-17.284-20.778c0-11.457,7.748-20.778,17.284-20.778c1.228,0,2.443,0.161,3.641,0.48
				c9.786-43.377,51.429-74.451,100.615-74.451c47.686,0,89.236,30.054,100.082,71.895c0.311-0.021,0.608-0.031,0.908-0.031
				c9.535,0,17.293,9.318,17.293,20.774c0,11.694-8.001,21.192-17.892,20.761C350.054,253.633,308.364,284.302,259.923,284.302z
				 M164.277,202.592l0.96,4.58c8.6,40.966,48.425,70.699,94.686,70.699c46.53,0,86.381-29.954,94.756-71.217l0.688-3.401
				l3.337,0.943c0.788,0.22,1.511,0.333,2.21,0.333c5.988,0,10.86-6.434,10.86-14.345c0-7.908-4.872-14.341-10.86-14.341
				c-0.703,0-1.465,0.128-2.398,0.406l-3.313,0.997l-0.749-3.382c-8.939-40.498-48.696-69.886-94.528-69.886
				c-47.535,0-87.522,30.728-95.078,73.06l-0.815,4.568l-3.989-2.367c-1.443-0.852-2.918-1.289-4.373-1.289
				c-5.985,0-10.854,6.437-10.854,14.345c0,7.906,4.869,14.339,10.854,14.339c1.561,0,3.134-0.504,4.68-1.504L164.277,202.592z"/>
		</g>
	</g>
	<g>
		<g>
			<path fill="#3657A5" d="M209.446,294.789c0,0,16.439,32.127,45.597,32.127c42.593-2.99,47.816-32.127,47.816-32.127
				s80.696,4.477,92.652,32.127c11.958,27.645,53.052,102.547,0,105.441H126.51c0,0-66.497,12.608-7.473-106.939
				C143.036,285.572,209.446,294.789,209.446,294.789z"/>
		</g>
		<g>
			<path fill="#281912" d="M121.47,435.953c-6.414,0-18.194-1.631-25.001-12.594c-10.864-17.479-4.239-50.912,19.685-99.361
				l0.129-0.238c17.352-28.809,55.496-33.109,76.684-33.109c9.949,0,16.642,0.912,16.923,0.951l1.652,0.229l0.769,1.489
				c0.153,0.302,15.887,30.293,42.619,30.378c39.532-2.824,44.72-29.212,44.767-29.478l0.503-2.803l2.845,0.156
				c3.373,0.189,82.826,4.928,95.425,34.061c1.275,2.957,2.885,6.455,4.686,10.346c12.108,26.267,30.412,65.963,17.84,86.828
				c-4.703,7.806-13.215,12.099-25.302,12.757l-268.917,0.008C126.027,435.689,124.069,435.953,121.47,435.953z M121.862,326.964
				c-28.425,57.613-26.534,82.373-19.933,92.99c4.913,7.91,13.333,9.567,19.54,9.567c2.636,0,4.429-0.325,4.448-0.334l0.592-0.055
				h269.003c9.792-0.529,16.388-3.692,19.969-9.646c10.81-17.952-7.332-57.301-18.176-80.811c-1.818-3.951-3.452-7.492-4.745-10.488
				c-8.821-20.399-63.743-28.381-87.336-30.033c-2.674,7.814-13.352,29.398-49.958,31.964l-0.224,0.01
				c-27.337,0-43.788-25.647-47.621-32.342c-2.479-0.257-7.719-0.703-14.456-0.703C173.165,297.083,137.614,300.971,121.862,326.964
				z"/>
		</g>
	</g>
	<g>
		<g>
			<g>
				<path fill="#EB2627" d="M252.141,264.973c3.1,0,6.202,0,9.309,0c6.131,0.684,12.525,1.774,17.703,3.629
					c5.244,1.883,10.164,4.48,13.844,7.489c7.845,6.418,14.964,19.955,11.349,34.734c-2.221,9.088-8.315,15.118-14.526,20.42
					c-2.987,2.553-6.549,5.002-9.982,7.491c-3.173,2.312-7.486,5.203-9.54,8.177c-2.944,4.271-3.282,9.397-5.896,12.485
					c-1.01,1.181-2.598,2.229-3.858,2.72c-13.436,5.266-21.183-7.502-17.026-19.291c2.802-7.941,9.769-12.688,16.569-18.162
					c6.466-5.197,13.213-10.197,15.205-16.562c0.147-0.476,0.394-1.367,0.451-1.824c1.799-12.658-7.159-19.596-18.382-19.514
					c-7.198,0.047-12.752,3.168-15.655,7.034c-4.786,6.359-5.136,14.188-11.808,17.248c-7.17,3.295-15.67-0.571-17.703-5.676
					c-2.267-5.677,0.138-13.117,2.724-17.933C221.886,274.457,235.782,267.337,252.141,264.973z"/>
			</g>
			<g>
				<path fill="#2C2012" d="M254.566,365.205c-4.479,0-8.384-2.021-10.98-5.686c-3.269-4.617-3.972-11.254-1.829-17.308
					c2.652-7.521,8.532-12.174,14.767-17.096c0.795-0.634,1.598-1.261,2.393-1.898l1.486-1.192
					c5.885-4.705,11.438-9.148,13.104-14.482c0.169-0.514,0.354-1.254,0.388-1.514c0.696-4.889-0.34-9.086-2.996-12.137
					c-2.934-3.396-7.676-5.263-13.334-5.263h-0.189c-5.948,0.045-11.255,2.396-14.186,6.285c-1.674,2.229-2.789,4.715-3.879,7.112
					c-1.887,4.185-3.837,8.511-8.638,10.716c-2.008,0.926-4.182,1.389-6.449,1.389c-6.014,0-11.928-3.465-13.761-8.067
					c-3.032-7.592,1.389-16.851,2.812-19.508c6.795-12.654,20.135-20.757,38.595-23.435c0.096-0.008,0.186-0.019,0.271-0.019h9.308
					c0.071,0,0.134,0.011,0.208,0.015c7.56,0.848,13.486,2.069,18.123,3.729c5.66,2.036,10.639,4.731,14.4,7.803
					c8.397,6.871,15.726,21.262,11.977,36.617c-2.421,9.895-9.078,16.231-15.131,21.399c-2.396,2.058-5.184,4.047-7.868,5.978
					c-0.745,0.53-1.491,1.067-2.231,1.604c-0.378,0.271-0.771,0.556-1.171,0.844c-2.81,2.015-6.295,4.525-7.923,6.873
					c-1.312,1.902-2.075,4.066-2.821,6.154c-0.843,2.399-1.643,4.657-3.19,6.481c-1.123,1.322-2.928,2.596-4.603,3.252
					C258.936,364.753,256.695,365.205,254.566,365.205L254.566,365.205z M257.564,284.896c6.75,0,12.486,2.328,16.153,6.549
					c3.382,3.895,4.724,9.119,3.868,15.098c-0.09,0.666-0.404,1.752-0.518,2.113c-2.01,6.424-8.277,11.439-14.342,16.283
					l-1.479,1.178c-0.8,0.652-1.607,1.295-2.416,1.924c-5.798,4.58-11.267,8.908-13.562,15.408
					c-1.738,4.934-1.219,10.268,1.357,13.91c1.33,1.879,3.789,4.117,7.938,4.117c1.66,0,3.441-0.369,5.293-1.095
					c1.105-0.432,2.39-1.334,3.11-2.19c1.105-1.308,1.771-3.16,2.53-5.312c0.785-2.211,1.671-4.717,3.264-7.023
					c1.989-2.887,5.613-5.494,8.813-7.793c0.399-0.283,0.784-0.562,1.157-0.828c0.746-0.541,1.494-1.075,2.248-1.618
					c2.623-1.886,5.343-3.832,7.621-5.779c5.609-4.791,11.771-10.642,13.928-19.453c3.372-13.791-3.189-26.692-10.719-32.842
					c-3.381-2.772-8.104-5.315-13.295-7.183c-4.341-1.557-9.959-2.709-17.177-3.521h-9.073c-12,1.765-27.894,6.921-35.712,21.481
					c-2.54,4.738-4.565,11.521-2.636,16.369c1.118,2.81,5.281,5.722,10.302,5.722c1.727,0,3.373-0.359,4.896-1.052
					c3.53-1.621,5.039-4.977,6.794-8.86c1.168-2.59,2.373-5.267,4.29-7.817c3.637-4.824,10.042-7.728,17.143-7.783h0.223V284.896z"
					/>
			</g>
		</g>
		<g>
			<g>
				<path fill="#EB2627" d="M257.589,407.062c-1.438,0-2.876,0-4.313,0c-9.548-1.496-17.081-11.972-12.263-22.47
					c2.205-4.786,7.43-9.135,14.53-9.079c6.457,0.049,11.076,3.821,13.396,7.719C274.837,393.134,268.529,405.333,257.589,407.062z"
					/>
			</g>
			<g>
				<path fill="#2C2012" d="M257.589,408.921h-4.313c-0.1,0-0.191,0-0.282-0.021c-5.583-0.86-10.541-4.416-13.263-9.491
					c-2.637-4.896-2.777-10.441-0.408-15.603c2.157-4.688,7.666-10.166,16.091-10.166h0.147c6.19,0.055,11.783,3.277,14.979,8.639
					c3.048,5.111,3.355,11.115,0.852,16.464c-2.539,5.426-7.591,9.219-13.51,10.157
					C257.785,408.921,257.684,408.921,257.589,408.921z M253.423,405.199h4.013c4.633-0.783,8.58-3.779,10.576-8.031
					c1.979-4.215,1.727-8.949-0.675-12.977c-0.94-1.59-4.585-6.756-11.808-6.814h-0.117c-6.657,0-11.003,4.307-12.702,7.994
					c-1.871,4.066-1.761,8.43,0.303,12.27C245.135,401.591,249.113,404.477,253.423,405.199z"/>
			</g>
		</g>
	</g>
	<g>
		<g>
			<path fill="#25100D" d="M159.581,179.422c0,0,65.391-9.714,73.864-49.815c0,0,9.656,27.243,72.099,26.143
				c44.419-0.779,46.961,23.791,46.961,23.791s0.11,3.958,11.761-6.649c11.653-10.617,5.527-43.906-28.467-74.917
				c-34.062-31.059-76.357-32.381-113.525-28.147C185.117,74.057,143.239,114.997,159.581,179.422z"/>
		</g>
		<g>
			<path fill="#281912" d="M353.459,183.477c-2.452,0-3.997-1.809-4.154-3.634c-0.152-1.149-3.345-20.892-41.706-20.892
				c-0.653,0-1.324,0.006-1.994,0.014c-45.392,0.816-63.958-13.117-71.114-21.733c-5.709,14.394-19.34,26.495-39.891,35.276
				c-17.59,7.521-33.864,9.995-34.551,10.1l-2.87,0.427l-0.719-2.823c-9.649-38.067,1.005-64.412,11.64-79.812
				c12.976-18.786,33.096-31.409,53.81-33.767c10.492-1.194,19.885-1.777,28.71-1.777c36.089,0,64.661,10.056,87.351,30.744
				c16.892,15.408,34.941,39.836,34.933,62.18c-0.005,7.593-2.241,13.638-6.471,17.487
				C358.483,182.502,355.409,183.477,353.459,183.477z M307.599,152.518c36.18,0,45.222,16.671,47.421,23.683
				c1.327-0.833,3.551-2.475,7.081-5.69c2.812-2.561,4.365-7.082,4.365-12.73c0.004-13.282-8.617-35.336-32.836-57.425
				c-21.445-19.558-48.599-29.067-83.012-29.067c-8.579,0-17.734,0.569-27.98,1.736c-18.902,2.151-37.309,13.752-49.245,31.032
				c-9.61,13.91-19.213,37.518-11.394,71.667c12.478-2.434,61.377-14.002,68.295-46.781l2.367-11.174l3.816,10.764
				c0.008,0.032,2.334,5.973,11.36,11.871c8.845,5.77,26.147,12.7,57.65,12.137C306.202,152.523,306.905,152.518,307.599,152.518z"
				/>
		</g>
	</g>
</g>
</svg>
