<svg id="dont_go_with_strangers" data-name="dont go with strangers" xmlns="http://www.w3.org/2000/svg" viewBox="0 0 300 300"><defs><style>.cls-1{fill:#58595b;}.cls-2{fill:#d1d3d4;}.cls-3{fill:#c5ecff;}.cls-4,.cls-8{fill:none;}.cls-10,.cls-17,.cls-18,.cls-4,.cls-5,.cls-6,.cls-7{stroke:#3c2415;}.cls-10,.cls-17,.cls-18,.cls-4,.cls-6,.cls-7{stroke-miterlimit:10;}.cls-4,.cls-6,.cls-7{stroke-width:1.8px;}.cls-10,.cls-14,.cls-5{fill:#fcc393;}.cls-11,.cls-12,.cls-13,.cls-19,.cls-20,.cls-5{stroke-linecap:round;stroke-linejoin:round;}.cls-5{stroke-width:0.75px;}.cls-6{fill:#efefed;}.cls-7{fill:#9b9b9d;}.cls-9{fill:#f1f2f2;}.cls-11{fill:#7c411e;}.cls-11,.cls-12,.cls-13,.cls-19,.cls-20{stroke:#28110b;}.cls-12{fill:#8b5e3c;}.cls-13{fill:#39b54a;}.cls-15{fill:#281912;}.cls-16{fill:#552011;}.cls-17,.cls-18{fill:#ed1c24;}.cls-17{stroke-width:2.32px;}.cls-18{fill-rule:evenodd;}.cls-19{fill:#2e58a6;}.cls-20{fill:#ff8000;}.cls-21{fill:#141211;}.cls-22{fill:#fffffa;}.cls-23{opacity:0.7;}.cls-24{fill:#f9a880;}.cls-25{fill:#834c1f;}.cls-26{fill:#fff;}</style></defs><title>dont go out with strangers</title><path class="cls-1" d="M266.46,146.4a110.93,110.93,0,0,1-221.86,0"/><path class="cls-2" d="M44.6,146.4s-.06,24.5,6.06,24.5l213.12-.17s4.49-20.27,2.67-25.11C259.45,146.68,44.6,146.4,44.6,146.4Z"/><path class="cls-3" d="M44.6,146.4a110.93,110.93,0,1,1,221.86,0"/><line class="cls-4" x1="44.6" y1="146.4" x2="266.45" y2="145.62"/><path class="cls-5" d="M154.81,120.07s1.82-9.59,6.34-12.47.76-6.2.76-6.2a20.92,20.92,0,0,0-11.12,18.38,13.48,13.48,0,0,1-.77,1.79c-.42.78-.9,3,1.6,3.29s3-1.44,3-1.44.89.6,1.18-.08a3.32,3.32,0,0,0-.89-3.26"/><path class="cls-5" d="M150.54,116.66s-.52-10.79-4.61-14.57.08-6.91.08-6.91,10,6.85,8.55,21.71a18.1,18.1,0,0,0,.52,2.07c.32.92.49,3.42-2,3.4a2.57,2.57,0,0,1-2.81-2s-1,.54-1.17-.25.29-2.88,1.33-3.46"/><rect class="cls-6" x="50.66" y="170.9" width="13.17" height="10.33"/><rect class="cls-7" x="63.82" y="170.9" width="13.17" height="10.33"/><rect class="cls-6" x="76.99" y="170.9" width="13.17" height="10.33"/><rect class="cls-7" x="90.16" y="170.9" width="13.17" height="10.33"/><rect class="cls-6" x="103.32" y="170.9" width="13.17" height="10.33"/><rect class="cls-7" x="116.49" y="170.9" width="13.17" height="10.33"/><rect class="cls-6" x="129.66" y="170.9" width="13.17" height="10.33"/><rect class="cls-7" x="142.82" y="170.9" width="13.17" height="10.33"/><rect class="cls-6" x="155.99" y="170.9" width="13.17" height="10.33"/><rect class="cls-7" x="169.16" y="170.9" width="13.17" height="10.33"/><rect class="cls-6" x="182.33" y="170.9" width="13.16" height="10.33"/><rect class="cls-7" x="195.49" y="170.9" width="13.17" height="10.33"/><rect class="cls-6" x="208.66" y="170.9" width="13.17" height="10.33"/><rect class="cls-7" x="221.83" y="170.9" width="13.16" height="10.33"/><rect class="cls-6" x="234.99" y="170.9" width="13.17" height="10.33"/><polygon class="cls-7" points="260.61 181.23 248.16 181.23 248.16 170.9 261.32 170.9 260.61 181.23"/><path class="cls-8" d="M266.46,146.4A110.93,110.93,0,1,0,155.53,257.33"/><rect class="cls-9" x="83.57" y="212.49" width="36.26" height="4.92"/><rect class="cls-9" x="143.63" y="212.49" width="36.26" height="4.92"/><rect class="cls-9" x="203.69" y="212.49" width="36.26" height="4.92"/><path class="cls-10" d="M125.65,81.9a6.31,6.31,0,0,1,1.29,5.55c-.92,3.06,2.64,4.46,2.64,4.46l4.52-2.09-.27-2.88s.3-4,1.45-5.17S130,80.19,130,80.19Z"/><path class="cls-10" d="M112.41,95.85s-5.21,3.84-3.26,6.78,10,5.63,10,5.63-2.45,1.27-.51,4.07c0,0-1.06-.1-.57,1.18s3.83,2.16,5.1-.49.3-5.69-1.57-6.68-6.48-5.1-6.48-5.1l1.61-1.95Z"/><path class="cls-10" d="M132.8,130.61s1,6,.88,7.21-1.22,9.12-1.26,13.06,2.1,3.82,2.1,3.82l4-4.61a26.63,26.63,0,0,1,.23-6.12c.5-2.11,1.27-4.56,1.25-5.94s-.14-7.91-.14-7.91l-2.91-5.44Z"/><path class="cls-11" d="M132.42,150.88s-3.16,6.09-.09,9.86,9.13-1.47,8.1-3.82a46.93,46.93,0,0,1-2-6.82S134.54,152.81,132.42,150.88Z"/><path class="cls-10" d="M119.45,130.46s.6,6.07.36,7.26-1.87,9-2.2,12.94,1.81,4,1.81,4l4.29-4.31a26.81,26.81,0,0,1,.67-6.08c.65-2.08,1.6-4.46,1.67-5.84s.44-7.9.44-7.9L124,124.84Z"/><path class="cls-12" d="M120.41,117.62s-2,11-3.43,12.87,10.86,1.61,10.86,1.61,2.68-6.72,3.29-4.34a11.78,11.78,0,0,1,0,5l10.78-.48,0-13.79-5.13-6.59Z"/><path class="cls-11" d="M117.61,150.66s-3.59,5.84-.8,9.82,9.21-.81,8.35-3.22a46.91,46.91,0,0,1-1.49-6.95S119.59,152.73,117.61,150.66Z"/><path class="cls-13" d="M126.49,86.36s-4.92-.91-7.23,0-6,6.54-7.17,7.91,4.46,6.4,5.49,5.34,2.91-3,2.91-3l-.08,21,21.46.82V96.62s1,3.95,2,4.3,6.91-4.29,5.58-5.57-6.46-9-9-9h-5.91s-.45,4.49-3.64,4.32S126.49,86.36,126.49,86.36Z"/><path class="cls-14" d="M142.13,72.61a1.59,1.59,0,0,0-.38.06c-1-4.53-5.58-8-11-8s-10.23,3.6-11.1,8.32a1.32,1.32,0,0,0-.68-.2,2,2,0,0,0,0,3.86,1.33,1.33,0,0,0,.73-.22c1,4.58,5.56,8,11.05,8s10.11-3.49,11.07-8.1a1.34,1.34,0,0,0,.35,0,2,2,0,0,0,0-3.86Z"/><path class="cls-15" d="M130.71,84.87c-5.4,0-10.08-3.29-11.3-7.89a1.59,1.59,0,0,1-.48.07,2.31,2.31,0,0,1,0-4.56,1.84,1.84,0,0,1,.41.05c1.11-4.76,5.82-8.17,11.37-8.17,5.39,0,10.09,3.3,11.32,7.89h.1a2.31,2.31,0,0,1,0,4.56h-.07C140.9,81.51,136.19,84.87,130.71,84.87Zm-10.8-9,.1.51c1,4.49,5.48,7.76,10.7,7.76s9.77-3.29,10.71-7.82l.08-.37.38.1a1.18,1.18,0,0,0,.25,0,1.63,1.63,0,0,0,0-3.15.93.93,0,0,0-.27,0l-.38.11-.08-.37c-1-4.45-5.51-7.67-10.69-7.67-5.37,0-9.89,3.37-10.74,8l-.09.5-.45-.26a1.05,1.05,0,0,0-.5-.14,1.63,1.63,0,0,0,0,3.15,1,1,0,0,0,.53-.17Z"/><path class="cls-16" d="M119.58,72.54s7.39-1.06,8.35-5.47c0,0,1.09,3,8.15,2.87,5-.08,5.3,2.62,5.3,2.62s0,.43,1.33-.73.63-4.82-3.22-8.23-8.63-3.55-12.83-3.09S117.73,65.47,119.58,72.54Z"/><path class="cls-15" d="M141.49,73a.45.45,0,0,1-.47-.4c0-.13-.38-2.29-4.71-2.29h-.23c-5.13.08-7.23-1.44-8-2.39-.64,1.58-2.18,2.91-4.5,3.87a17.69,17.69,0,0,1-3.91,1.11l-.32,0-.08-.31a10.14,10.14,0,0,1,1.31-8.76,8.83,8.83,0,0,1,6.08-3.71,29.89,29.89,0,0,1,3.25-.2,14.22,14.22,0,0,1,9.87,3.38c1.91,1.69,3.95,4.37,3.95,6.83a2.52,2.52,0,0,1-.73,1.92C142.06,72.88,141.71,73,141.49,73Zm-5.18-3.4c4.09,0,5.11,1.83,5.36,2.6a5.6,5.6,0,0,0,.8-.63,1.84,1.84,0,0,0,.49-1.39c0-1.46-1-3.88-3.71-6.31a13.48,13.48,0,0,0-9.38-3.19,28,28,0,0,0-3.16.19,8.12,8.12,0,0,0-5.57,3.41,9.38,9.38,0,0,0-1.29,7.87c1.41-.27,6.94-1.54,7.72-5.14l.27-1.23.43,1.19a3.22,3.22,0,0,0,1.28,1.3c1,.63,3,1.4,6.52,1.33Z"/><path class="cls-17" d="M220.24,76.24,235.45,61a6.17,6.17,0,0,0-8.73-8.72l-15.2,15.2-15.2-15.2A6.17,6.17,0,1,0,187.6,61l15.2,15.2L187.6,91.45a6.17,6.17,0,1,0,8.72,8.72L211.52,85l15.2,15.21a6.17,6.17,0,0,0,8.72-8.73Z"/><path class="cls-18" d="M131.75,72.51c.7.15,1.42.25,2.1.45a5.37,5.37,0,0,1,3.06,2.11,4.74,4.74,0,0,1-.9,6.33,19.58,19.58,0,0,1-1.91,1.49,4.26,4.26,0,0,0-1.75,2.19,1.62,1.62,0,0,1-2,1.12,1.78,1.78,0,0,1-1.36-2,3.48,3.48,0,0,1,1.24-2.36c.71-.64,1.48-1.21,2.21-1.83a3.05,3.05,0,0,0,1.19-1.75c.3-1.65-.82-2.8-2.62-2.75a2.62,2.62,0,0,0-2.5,1.63,8.8,8.8,0,0,1-.57,1.1,1.79,1.79,0,0,1-2.25.69,1.53,1.53,0,0,1-1-1.8,4.76,4.76,0,0,1,2.42-3.55,6.8,6.8,0,0,1,3-1,1.18,1.18,0,0,0,.2-.07Z"/><path class="cls-18" d="M130.43,92.38a2.32,2.32,0,0,1-1.7-1.44,2.19,2.19,0,1,1,2.85,1.28l-.44.16Z"/><path class="cls-10" d="M164.44,96.75a5.1,5.1,0,0,1,1.05,4.52c-.75,2.5,2.16,3.64,2.16,3.64l3.69-1.71-.23-2.34s.25-3.27,1.18-4.23S168,95.35,168,95.35Z"/><path class="cls-10" d="M184.67,108.12s4.25,3.14,2.66,5.53-8.16,4.59-8.16,4.59,2,1,.41,3.32c0,0,.87-.08.47,1s-3.13,1.77-4.17-.4-.24-4.64,1.29-5.44a47.32,47.32,0,0,0,5.28-4.17l-1.31-1.58Z"/><path class="cls-10" d="M170.27,136.47a46.5,46.5,0,0,1,.72,5.88c-.12,1-1,7.44-1,10.66s1.7,3.1,1.7,3.1l3.24-3.75a21.73,21.73,0,0,1,.18-5,27.31,27.31,0,0,0,1-4.85c0-1.12-.11-6.45-.11-6.45l-2.38-4.44Z"/><path class="cls-11" d="M170,153s-2.58,5-.08,8,7.44-1.2,6.6-3.12a37.67,37.67,0,0,1-1.61-5.56S171.7,154.57,170,153Z"/><path class="cls-10" d="M159.38,136.35a46.42,46.42,0,0,1,.3,5.92c-.2,1-1.53,7.34-1.79,10.55s1.47,3.22,1.47,3.22l3.5-3.51a22,22,0,0,1,.54-5,26.71,26.71,0,0,0,1.37-4.76c.06-1.12.36-6.44.36-6.44l-2-4.6Z"/><path class="cls-19" d="M160.17,125.88s-1.6,9-2.8,10.49,8.86,1.32,8.86,1.32,2.19-5.48,2.68-3.54a9.52,9.52,0,0,1,0,4l8.79-.39,0-11.25-4.18-5.37Z"/><path class="cls-11" d="M157.89,152.82s-2.93,4.76-.65,8,7.5-.66,6.8-2.63a38.09,38.09,0,0,1-1.21-5.67S159.5,154.51,157.89,152.82Z"/><path class="cls-20" d="M165.13,100.38s-4-.74-5.9,0-4.11,6-5.08,7.12,3.87,5.21,4.71,4.35a8.9,8.9,0,0,0,1.38-3.1l-.07,17.13,17.5.66V108.75s2,2.81,2.87,3.09,5.05-4.53,4-5.58-5.87-5.88-7.91-5.88h-4.83s-.36,3.66-3,3.52S165.13,100.38,165.13,100.38Z"/><path class="cls-14" d="M177.88,89.17a1.06,1.06,0,0,0-.31,0c-.84-3.7-4.55-6.49-9-6.49s-8.35,2.94-9,6.78a1.2,1.2,0,0,0-.56-.15,1.6,1.6,0,0,0,0,3.14,1.14,1.14,0,0,0,.6-.18c.8,3.74,4.53,6.56,9,6.56s8.24-2.85,9-6.61a.86.86,0,0,0,.28,0,1.6,1.6,0,0,0,0-3.14Z"/><path class="cls-15" d="M168.57,99.17c-4.4,0-8.22-2.69-9.22-6.44a1.32,1.32,0,0,1-.39.06,1.88,1.88,0,0,1,0-3.72,1.27,1.27,0,0,1,.34,0c.9-3.88,4.74-6.66,9.27-6.66s8.23,2.69,9.23,6.43h.08a1.88,1.88,0,0,1,0,3.72h0C176.88,96.42,173,99.17,168.57,99.17Zm-8.81-7.32.08.41c.8,3.67,4.47,6.33,8.73,6.33s8-2.68,8.74-6.37l.06-.31.31.09.2,0a1.33,1.33,0,0,0,0-2.57l-.22,0-.31.09-.06-.3c-.83-3.63-4.5-6.26-8.72-6.26-4.38,0-8.06,2.75-8.76,6.54l-.08.41-.36-.21a.79.79,0,0,0-.41-.11,1.32,1.32,0,0,0,0,2.56.77.77,0,0,0,.43-.13Z"/><path class="cls-21" d="M165.26,90.74a1,1,0,1,1-1-1.14A1.08,1.08,0,0,1,165.26,90.74Z"/><path class="cls-22" d="M164.46,90.74a.41.41,0,1,1-.4-.4A.4.4,0,0,1,164.46,90.74Z"/><path class="cls-21" d="M173.5,90.74a1,1,0,1,1-1-1.14A1.08,1.08,0,0,1,173.5,90.74Z"/><path class="cls-22" d="M172.7,90.74a.41.41,0,1,1-.41-.4A.4.4,0,0,1,172.7,90.74Z"/><g class="cls-23"><path class="cls-24" d="M164.46,93.24c0,.4-.57.73-1.27.73s-1.28-.33-1.28-.73.57-.74,1.28-.74S164.46,92.83,164.46,93.24Z"/></g><g class="cls-23"><path class="cls-24" d="M175.49,93.16c0,.41-.57.73-1.27.73s-1.28-.32-1.28-.73.57-.74,1.28-.74S175.49,92.75,175.49,93.16Z"/></g><path class="cls-25" d="M162.92,89.6a1.58,1.58,0,0,1,1.33-.51c.88.07,1,.22,1-.2s-.36-.51-1-.45S162.37,89.74,162.92,89.6Z"/><path class="cls-25" d="M174.05,89.59a1.58,1.58,0,0,0-1.33-.51c-.88.07-1,.22-1-.2s.36-.51,1-.45S174.6,89.73,174.05,89.59Z"/><path class="cls-16" d="M159.49,89.11s6-.87,6.81-4.46c0,0,.89,2.44,6.64,2.34,4.1-.07,4.33,2.13,4.33,2.13s0,.36,1.09-.59.51-3.93-2.63-6.71-7-2.9-10.46-2.52S158,83.34,159.49,89.11Z"/><path class="cls-15" d="M177.36,89.48a.37.37,0,0,1-.38-.33c0-.1-.31-1.87-3.85-1.87H173c-4.19.07-5.9-1.18-6.56-2a6.28,6.28,0,0,1-3.67,3.16,14.4,14.4,0,0,1-3.19.91l-.26,0-.07-.26A8.2,8.2,0,0,1,160.28,82a7.18,7.18,0,0,1,4.95-3,26,26,0,0,1,2.65-.16,11.55,11.55,0,0,1,8.05,2.76c1.56,1.38,3.22,3.56,3.22,5.56a2,2,0,0,1-.59,1.57C177.82,89.39,177.54,89.48,177.36,89.48Zm-4.23-2.78c3.34,0,4.17,1.5,4.37,2.12a4.18,4.18,0,0,0,.66-.51,1.49,1.49,0,0,0,.4-1.14c0-1.19-.79-3.16-3-5.14a11,11,0,0,0-7.65-2.6,24.55,24.55,0,0,0-2.58.15,6.67,6.67,0,0,0-4.54,2.78,7.68,7.68,0,0,0-1,6.42c1.15-.22,5.66-1.25,6.3-4.19l.22-1,.35,1a2.61,2.61,0,0,0,1,1.06,9.6,9.6,0,0,0,5.32,1.08Z"/><path class="cls-25" d="M167.87,93.73s1.34.18,1.52-.49a6.83,6.83,0,0,0,0-2,2.43,2.43,0,0,1,.41,2.2C169.39,94.67,167.24,93.72,167.87,93.73Z"/><path class="cls-26" d="M166.12,94.8a2.68,2.68,0,0,0,2.58,2,3.31,3.31,0,0,0,2.78-2,3.82,3.82,0,0,1-2.78,1A3,3,0,0,1,166.12,94.8Z"/></svg>