<svg id="swiss_ball" data-name="swiss ball" xmlns="http://www.w3.org/2000/svg" viewBox="0 0 300 300"><defs><style>.cls-1{fill:#43b5e7;}.cls-2{fill:#27140e;}</style></defs><title>swiss ball</title><path class="cls-1" d="M255.86,150A105.87,105.87,0,1,1,150,44.13,105.86,105.86,0,0,1,255.86,150Z"/><path class="cls-2" d="M150,257.72A107.72,107.72,0,1,1,257.71,150,107.84,107.84,0,0,1,150,257.72ZM150,46A104,104,0,1,0,254,150,104.15,104.15,0,0,0,150,46Z"/><path class="cls-2" d="M150,91.14c-31.9,0-64.9-9.37-64.9-25.07a1.85,1.85,0,0,1,3.69,0c0,10.33,24.59,21.39,61.21,21.39s61.22-11.06,61.22-21.39a1.84,1.84,0,1,1,3.68,0C214.89,81.77,181.89,91.14,150,91.14Z"/><path class="cls-2" d="M149.83,129.47c-25.5,0-49.49-2.44-67.56-6.86-13.33-3.26-29.21-9.07-29.21-18.22a1.85,1.85,0,0,1,3.69,0c0,5.13,9.87,10.6,26.4,14.64,17.79,4.36,41.46,6.75,66.68,6.75s48.89-2.39,66.68-6.75c16.53-4,26.39-9.51,26.39-14.64a1.85,1.85,0,0,1,3.69,0c0,9.15-15.88,15-29.21,18.22C199.32,127,175.32,129.47,149.83,129.47Z"/><path class="cls-2" d="M151.17,217.15c-51.23,0-95.2-10.74-100.09-24.46a1.84,1.84,0,1,1,3.47-1.23c3.79,10.62,43.52,22,96.62,22,51.39,0,88.35-11.32,94.39-22.27a1.84,1.84,0,1,1,3.22,1.77C241.18,206.75,199.22,217.15,151.17,217.15Z"/><path class="cls-2" d="M149.61,175c-52.07,0-107.4-8.75-107.4-25a1.84,1.84,0,1,1,3.68,0c0,10.06,42.6,21.27,103.72,21.27,61.58,0,104.5-11.21,104.5-21.27a1.84,1.84,0,1,1,3.68,0c0,9.13-17.82,14.91-32.76,18.15C204.76,172.6,178,175,149.61,175Z"/><path class="cls-2" d="M151.29,246.84c-33.2,0-57.38-5.14-57.75-5.22a1.84,1.84,0,0,1,.79-3.6c.53.12,54.22,11.51,111.37,0a1.84,1.84,0,0,1,.73,3.61A281.15,281.15,0,0,1,151.29,246.84Z"/></svg>