<svg id="switch_on" data-name="switch on" xmlns="http://www.w3.org/2000/svg" viewBox="0 0 300 300"><defs><style>.cls-1{fill:#39b54a;}.cls-1,.cls-2{stroke:#3c2415;stroke-miterlimit:10;stroke-width:4.68px;}.cls-2{fill:#fff;fill-rule:evenodd;}</style></defs><title>switch on</title><circle class="cls-1" cx="149.14" cy="150.32" r="121.26" transform="translate(-62.61 149.49) rotate(-45)"/><path class="cls-2" d="M142.39,243.84c-7-1.7-14.27-2.57-20.84-5.25C92.62,226.77,75.76,205.23,72.08,174c-4.19-35.47,18.45-70.45,52.13-81.2.6-.19,1.23-.32,2.5-.65,0,7.6.09,14.87-.12,22.13,0,.87-1.56,1.91-2.61,2.49C103.74,128,93.34,145.09,93.72,168.16c.45,28.07,23.8,51.92,51.63,53.46,29.32,1.63,54.7-19,58.57-47.6,3.25-23.92-8.16-45.91-29.78-57.13a4.34,4.34,0,0,1-2.76-4.54c.15-6.55.06-13.11.06-20.19A65.93,65.93,0,0,1,193.88,103c20.33,14.85,31.27,35,32.71,60.09,2.27,39.74-28.59,75.86-68.19,80.12a17.24,17.24,0,0,0-2.61.67Z"/><path class="cls-2" d="M161.8,145.05a12.66,12.66,0,0,1-12.66,12.66h0a12.66,12.66,0,0,1-12.66-12.66V69.46a12.66,12.66,0,0,1,12.66-12.67h0A12.66,12.66,0,0,1,161.8,69.46Z"/></svg>