<?xml version="1.0" encoding="utf-8"?>
<!-- Generator: Adobe Illustrator 16.0.0, SVG Export Plug-In . SVG Version: 6.00 Build 0)  -->
<!DOCTYPE svg PUBLIC "-//W3C//DTD SVG 1.1//EN" "http://www.w3.org/Graphics/SVG/1.1/DTD/svg11.dtd">
<svg version="1.1" id="Layer_1" xmlns="http://www.w3.org/2000/svg" xmlns:xlink="http://www.w3.org/1999/xlink" x="0px" y="0px"
	 width="500px" height="500px" viewBox="0 0 500 500" enable-background="new 0 0 500 500" xml:space="preserve">
<g id="Layer_1_copy_90">
	<g>
		<path fill="#C62127" d="M309.515,248.335c0.334-7.826,0.339-28.24-12.929-32.664c-18.717-8.167-19.738-33.685-19.738-33.685
			V69.705l-15.576-4.004l-0.301-5.181l-9.924,2.55l-9.927-2.55l-0.299,5.181l-15.579,4.004v112.282c0,0-1.021,25.518-19.733,33.685
			c-13.271,4.424-13.268,24.837-12.931,32.664c0.339,7.825-0.086,201.426-0.086,201.426s1.446,13.952,56.907,12.595
			c0.571-0.017,1.09-0.057,1.647-0.076c0.554,0.021,1.072,0.061,1.644,0.076c55.462,1.357,56.91-12.595,56.91-12.595
			S309.173,256.161,309.515,248.335z"/>
		<path fill="#3C2517" d="M260.085,464.414C260.085,464.414,260.088,464.414,260.085,464.414c-2.367,0-4.845-0.032-7.44-0.096
			l-1.672-0.076l-1.52,0.076c-2.604,0.062-5.078,0.096-7.444,0.096c-48.56,0-51.317-12.969-51.469-14.446
			c-0.008-2.144,0.41-193.854,0.075-201.546c-0.582-13.426,1.42-30.329,14.271-34.613c17.181-7.506,18.382-31.66,18.393-31.901
			V68.182l15.662-4.028l0.36-6.132l11.746,3.019l11.742-3.019l0.359,6.132l15.662,4.028v113.805
			c0.008,0.162,1.213,24.316,18.559,31.883c10.002,3.327,14.936,15.296,14.104,34.552c-0.331,7.691,0.086,199.402,0.092,201.338
			C311.398,451.441,308.645,464.414,260.085,464.414z M250.975,460.319l1.771,0.069c2.558,0.062,5.007,0.097,7.341,0.097
			c42.669,0,47.203-9.938,47.549-10.941c-0.021-10.646-0.418-193.573-0.083-201.291c0.425-9.888-0.511-27.024-11.588-30.718
			c-19.784-8.621-21.034-34.375-21.078-35.468L274.88,71.229l-15.485-3.983l-0.248-4.229l-8.1,2.082l-8.103-2.082l-0.245,4.229
			l-15.489,3.983v110.758c-0.047,1.173-1.299,26.927-20.914,35.483c-11.249,3.758-12.182,20.895-11.75,30.783
			c0.331,7.718-0.064,190.626-0.086,201.291c0.345,1.003,4.891,10.941,47.549,10.941c2.338,0,4.776-0.034,7.341-0.097
			L250.975,460.319z"/>
	</g>
	<g>
		<path fill="#E7E7E7" d="M250.669,252.42c0,0-52.06,39.811-57.504,78.598c-5.441,38.789,57.504,96.631,57.504,96.631
			s60.902-51.043,58.522-91.526C306.81,295.632,256.109,255.48,250.669,252.42z"/>
		<path fill="#3C2517" d="M250.607,430.262l-1.271-1.168c-0.158-0.145-16.029-14.789-31.012-34.009
			c-20.32-26.06-29.44-47.711-27.107-64.347c5.496-39.131,56.105-78.235,58.256-79.879l1.025-0.789l1.133,0.636
			c5.488,3.086,57.094,44.093,59.521,85.297c1.019,17.307-8.683,38.279-28.825,62.324c-14.868,17.748-30.246,30.693-30.401,30.824
			L250.607,430.262z M250.787,254.826c-7.419,5.936-50.832,41.979-55.673,76.466c-4.815,34.31,46.779,85.271,55.613,93.713
			c8.821-7.729,58.606-53.008,56.5-88.769C305.015,298.609,259.77,260.979,250.787,254.826z"/>
	</g>
	<g>
		<polyline fill="#DCECEA" points="276.848,141.196 276.848,63.62 261.271,59.615 260.971,54.433 251.043,56.985 241.12,54.433 
			240.821,59.615 225.242,63.62 225.242,141.196 		"/>
		<polygon fill="#010101" points="279.466,141.196 274.227,141.196 274.227,65.652 258.764,61.676 258.538,57.763 251.043,59.691 
			243.552,57.763 243.321,61.676 227.863,65.652 227.863,141.196 222.624,141.196 222.624,61.588 238.312,57.552 238.692,51.104 
			251.043,54.278 263.4,51.104 263.773,57.552 279.466,61.588 		"/>
	</g>
	<g>
		<path fill="#961B1E" d="M223.656,39.083v30.622c0,0,15.526,3.382,27.391,3.402c13.049,0.021,27.391-3.402,27.391-3.402V37.722
			C278.438,37.722,244.073,31.597,223.656,39.083z"/>
		<path fill="#3C2517" d="M251.173,75.073L251.173,75.073h-0.13c-11.933-0.021-27.16-3.307-27.804-3.447l-1.547-0.338V37.711
			l1.291-0.473c6.949-2.548,16.13-3.841,27.286-3.841c14.929,0,27.963,2.292,28.514,2.39l1.617,0.29v35.179l-1.51,0.361
			C278.301,71.757,264.271,75.073,251.173,75.073z M225.624,68.103c4.189,0.834,16.064,3.024,25.426,3.039l0.123,1.965v-1.965
			c10.199,0,21.327-2.165,25.298-3.012V39.394c-3.953-0.61-14.619-2.068-26.201-2.068c-10.002,0-18.288,1.061-24.646,3.154V68.103
			L225.624,68.103z"/>
	</g>
	<g>
		<line fill="none" x1="240.319" y1="35.758" x2="240.319" y2="73.107"/>
		<rect x="238.354" y="35.758" fill="#3C2517" width="3.928" height="37.35"/>
	</g>
	<g>
		<line fill="none" x1="261.289" y1="35.758" x2="261.289" y2="73.107"/>
		<rect x="259.322" y="35.758" fill="#3C2517" width="3.931" height="37.35"/>
	</g>
	<g>
		<path fill="#08A650" d="M225.242,93.947c0,0,21.744,4.593,51.605,0V158c0,0-28.445,7.399-51.605,0V93.947L225.242,93.947z"/>
		<path fill="#3C2517" d="M248.914,163.253c-9.081,0-17.245-1.137-24.27-3.383l-1.366-0.435V91.527l2.369,0.498
			c0.098,0.022,9.676,2,24.547,2c8.779,0,17.648-0.68,26.354-2.018l2.263-0.35v67.862l-1.471,0.381
			C276.814,160.04,264.277,163.253,248.914,163.253z M227.21,156.545c6.326,1.845,13.619,2.778,21.704,2.778
			c11.879,0,22.24-2.046,25.966-2.879v-60.22c-8.171,1.149-16.464,1.732-24.686,1.732c-11.084,0-19.197-1.048-22.984-1.658V156.545z
			"/>
	</g>
</g>
</svg>
