<?xml version="1.0" encoding="utf-8"?>
<!-- Generator: Adobe Illustrator 16.0.0, SVG Export Plug-In . SVG Version: 6.00 Build 0)  -->
<!DOCTYPE svg PUBLIC "-//W3C//DTD SVG 1.1//EN" "http://www.w3.org/Graphics/SVG/1.1/DTD/svg11.dtd">
<svg version="1.1" id="Layer_1" xmlns="http://www.w3.org/2000/svg" xmlns:xlink="http://www.w3.org/1999/xlink" x="0px" y="0px"
	 width="500px" height="500px" viewBox="0 0 500 500" enable-background="new 0 0 500 500" xml:space="preserve">
<g id="Layer_1_copy">
	<g>
		<path fill="#F4C88A" d="M472.618,262.109c-3.091,29.904-36.01,83.578-36.01,83.578c-6.834,9.276-13.223,10.071-27.907,15.696
			c-8.219,3.142-16.411,12.843-28.223,15.365c-9.378,1.994-20.985-3.261-32.21-1.742c-9.828,1.324-19.531,9.548-30.517,10.441
			c-10.074,0.821-21.003-5.679-31.85-5.261c-10.223,0.396-20.608,7.738-31.355,7.738c-10.739,0-21.125-7.342-31.339-7.738
			c-10.846-0.412-21.768,6.082-31.839,5.261c-10.988-0.896-20.688-9.117-30.527-10.437c-11.246-1.523-22.874,3.73-32.266,1.723
			c-11.817-2.51-20.003-12.223-28.222-15.371c-14.659-5.61-22.742-7.168-27.881-15.678c0,0-39.465-63.42-36.626-81.979
			l171.182-13.407L472.618,262.109z"/>
		<path fill="#3C2517" d="M254.548,390.412c-6.029,0-11.786-2.088-17.358-4.102c-4.923-1.781-9.567-3.465-14.079-3.646
			c-4.906-0.172-10.181,1.246-15.229,2.64c-5.492,1.51-11.214,3.061-16.713,2.622c-6.291-0.518-11.999-3.168-17.515-5.737
			c-4.585-2.133-8.914-4.146-13.142-4.717c-4.767-0.644-10.548,0.151-15.875,1c-3.915,0.622-7.612,1.213-11.257,1.213
			c-1.944,0-3.687-0.172-5.323-0.523c-7.55-1.604-13.625-5.891-18.982-9.674c-3.389-2.385-6.586-4.65-9.606-5.803
			c-2.508-0.961-4.824-1.804-6.961-2.578c-10.508-3.816-17.451-6.34-22.158-14.135c-1.613-2.595-39.896-64.396-36.954-83.642
			c0.175-1.144,1.112-2.011,2.259-2.104l171.185-13.406c0.099-0.004,0.205-0.01,0.302-0.004l265.588,11.814
			c0.683,0.029,1.324,0.34,1.769,0.857c0.451,0.52,0.663,1.199,0.593,1.879c-3.117,30.115-35.009,82.408-36.363,84.617
			c-6.158,8.383-12.104,10.522-21.961,14.074c-2.155,0.774-4.531,1.623-7.176,2.637c-3.026,1.16-6.233,3.426-9.63,5.817
			c-5.354,3.771-11.419,8.05-18.962,9.66c-1.624,0.345-3.356,0.517-5.287,0.517c-3.646,0-7.345-0.59-11.264-1.22
			c-5.313-0.848-11.088-1.649-15.847-1.008c-4.217,0.569-8.543,2.584-13.12,4.72c-5.521,2.569-11.23,5.227-17.528,5.743
			c-5.496,0.438-11.22-1.112-16.713-2.623c-5.05-1.393-10.214-2.844-15.238-2.639c-4.517,0.18-9.167,1.862-14.09,3.646
			C266.339,388.324,260.577,390.412,254.548,390.412z M222.209,377.684c0.364,0,0.729,0.008,1.093,0.021
			c5.284,0.211,10.519,2.101,15.58,3.937c5.165,1.866,10.512,3.803,15.666,3.803c5.158,0,10.502-1.937,15.673-3.803
			c5.065-1.836,10.301-3.726,15.588-3.937c5.711-0.213,11.34,1.317,16.748,2.81c5.32,1.465,10.29,2.85,14.994,2.457
			c5.409-0.437,10.706-2.908,15.831-5.294c4.715-2.192,9.591-4.459,14.558-5.135c1.496-0.199,3.033-0.299,4.693-0.299
			c4.3,0,8.521,0.676,12.6,1.325c5.524,0.882,10.815,1.584,14.73,0.748c6.546-1.397,11.93-5.192,17.134-8.864
			c3.657-2.576,7.112-5.009,10.718-6.394c2.68-1.027,5.085-1.889,7.269-2.678c9.573-3.445,14.381-5.182,19.525-12.166
			c0.201-0.348,30.67-50.295,35.2-79.744l-262.734-11.685L38.178,266.012c0.136,16.438,26.005,61.651,36.404,78.364
			c3.819,6.321,9.432,8.36,19.621,12.06c2.163,0.789,4.506,1.637,7.04,2.61c3.601,1.379,7.046,3.81,10.693,6.388
			c5.211,3.678,10.598,7.479,17.157,8.87c3.936,0.843,9.229,0.146,14.765-0.733c4.078-0.65,8.292-1.318,12.592-1.318
			c1.67,0,3.221,0.1,4.728,0.297c4.969,0.67,9.849,2.943,14.569,5.135c5.122,2.387,10.416,4.853,15.825,5.287
			c4.701,0.393,9.674-0.992,14.997-2.457C211.628,379.123,216.858,377.684,222.209,377.684z"/>
	</g>
	<g>
		<path fill="#D9A561" d="M472.658,262.766c0,7.155-15.984,9.84-34.738,15.59c-9.965,3.055-20.198,14.156-34.264,16.598
			c-11.182,1.941-24.733-4.814-38.044-3.346c-11.671,1.291-23.322,10.916-36.324,11.787c-11.943,0.795-24.79-7.15-37.623-6.742
			c-12.099,0.385-24.412,9.146-37.117,9.146c-12.704,0-25.004-8.762-37.105-9.146c-12.817-0.4-25.678,7.539-37.607,6.742
			c-13.006-0.871-24.656-10.496-36.321-11.781c-13.317-1.471-26.873,5.287-38.066,3.344c-14.079-2.445-24.339-13.553-34.311-16.607
			c-18.74-5.748-35.029-8.352-35.029-15.5c0-7.156,16.299-9.76,35.059-15.512c9.959-3.051,20.202-14.152,34.265-16.597
			c11.184-1.941,24.736,4.817,38.044,3.346c11.674-1.289,23.331-10.912,36.327-11.784c11.939-0.798,24.797,7.149,37.62,6.742
			c12.102-0.384,24.422-9.15,37.126-9.15c12.705,0,25.009,8.766,37.101,9.15c12.826,0.401,25.678-7.543,37.606-6.742
			c13.002,0.872,24.653,10.495,36.317,11.78c13.32,1.468,26.866-5.287,38.061-3.346c14.089,2.448,24.339,13.553,34.312,16.609
			C456.69,253.096,472.658,255.617,472.658,262.766z"/>
		<path fill="#3C2517" d="M254.548,308.283c-7.013,0-13.754-2.447-20.277-4.812c-5.894-2.145-11.465-4.162-16.905-4.338
			c-5.952-0.154-12.194,1.627-18.213,3.379c-6.41,1.865-13.069,3.787-19.486,3.359c-7.314-0.49-14.036-3.498-20.535-6.406
			c-5.539-2.479-10.776-4.82-15.889-5.383c-1.179-0.129-2.432-0.195-3.714-0.195c-5.078,0-10.275,1.016-15.305,2
			c-5.012,0.98-9.749,1.908-14.387,1.908c-1.727,0-3.3-0.129-4.814-0.391c-8.722-1.519-15.983-6.121-22.391-10.185
			c-4.323-2.739-8.401-5.325-12.221-6.5c-3.972-1.215-7.838-2.292-11.452-3.303c-14.709-4.099-25.336-7.06-25.336-14.569
			c0-7.517,10.641-10.48,25.365-14.583c3.618-1.007,7.478-2.084,11.449-3.299c3.816-1.17,7.888-3.754,12.198-6.493
			c6.403-4.062,13.654-8.663,22.371-10.177c1.51-0.262,3.084-0.391,4.81-0.391c4.635,0,9.368,0.928,14.381,1.908
			c5.022,0.984,10.22,2.001,15.295,2.001c1.282,0,2.531-0.063,3.707-0.196c5.122-0.566,10.359-2.908,15.908-5.39
			c6.496-2.909,13.218-5.914,20.529-6.4c6.413-0.434,13.079,1.494,19.485,3.359c6.026,1.752,12.228,3.578,18.224,3.372
			c5.443-0.169,11.019-2.193,16.922-4.333c6.522-2.369,13.271-4.813,20.28-4.813c7.014,0,13.755,2.445,20.277,4.817
			c5.896,2.137,11.463,4.161,16.902,4.33c5.979,0.212,12.188-1.623,18.206-3.375c6.41-1.862,13.05-3.793,19.489-3.356
			c7.314,0.49,14.036,3.495,20.532,6.4c5.542,2.481,10.776,4.823,15.888,5.387c1.18,0.129,2.429,0.195,3.711,0.195
			c5.078,0,10.279-1.017,15.306-2.001c5.013-0.98,9.749-1.908,14.384-1.908c1.727,0,3.3,0.129,4.812,0.391
			c8.732,1.514,15.998,6.122,22.408,10.19c4.312,2.733,8.388,5.32,12.207,6.493c3.962,1.213,7.802,2.282,11.393,3.283
			c14.561,4.058,25.078,6.99,25.078,14.507c0,7.586-10.729,10.606-25.585,14.795c-3.447,0.971-7.122,2.008-10.907,3.17
			c-3.82,1.17-7.896,3.758-12.208,6.494c-6.397,4.059-13.648,8.661-22.361,10.176c-1.511,0.262-3.084,0.389-4.808,0.389
			c-4.635,0-9.367-0.924-14.381-1.908c-5.027-0.984-10.224-2.002-15.299-2.002c-1.281,0-2.53,0.066-3.71,0.199
			c-5.115,0.562-10.349,2.906-15.892,5.387c-6.499,2.908-13.222,5.916-20.539,6.406c-6.443,0.418-13.075-1.494-19.479-3.359
			c-6.028-1.754-12.244-3.51-18.233-3.379c-5.439,0.176-11.012,2.193-16.911,4.338C268.307,305.835,261.559,308.283,254.548,308.283
			z M216.491,294.154c0.341,0,0.686,0.008,1.027,0.018c6.234,0.197,12.445,2.451,18.451,4.631
			c6.116,2.217,12.439,4.516,18.578,4.516s12.467-2.299,18.588-4.516c6.008-2.18,12.215-4.434,18.449-4.631
			c6.695-0.219,13.384,1.709,19.777,3.57c6.271,1.826,12.168,3.541,17.76,3.174c6.43-0.432,12.741-3.254,18.843-5.986
			c5.648-2.522,11.485-5.139,17.376-5.791c1.357-0.147,2.789-0.225,4.253-0.225c5.557,0,10.992,1.066,16.249,2.094
			c4.771,0.934,9.276,1.814,13.432,1.814c1.438,0,2.732-0.102,3.959-0.318c7.734-1.342,14.248-5.475,20.546-9.475
			c4.604-2.922,8.957-5.682,13.416-7.049c3.822-1.172,7.532-2.217,11.016-3.201c11.296-3.182,21.967-6.19,21.967-10.014
			c0-3.744-10.419-6.648-21.446-9.724c-3.624-1.01-7.508-2.09-11.516-3.319c-4.456-1.368-8.806-4.128-13.41-7.05
			c-6.313-4.001-12.841-8.143-20.596-9.488c-1.229-0.215-2.524-0.318-3.966-0.318c-4.154,0-8.659,0.881-13.43,1.815
			c-5.262,1.03-10.697,2.094-16.26,2.094c-1.465,0-2.896-0.076-4.254-0.225c-5.887-0.649-11.724-3.26-17.372-5.788
			c-6.099-2.73-12.41-5.552-18.84-5.983c-5.645-0.371-11.492,1.348-17.763,3.17c-6.388,1.862-13.065,3.77-19.755,3.574
			c-6.234-0.199-12.439-2.451-18.438-4.631c-6.118-2.22-12.446-4.516-18.585-4.516s-12.469,2.296-18.588,4.516
			c-6.009,2.176-12.224,4.432-18.459,4.631c-6.761,0.206-13.373-1.712-19.764-3.568c-6.277-1.829-12.154-3.535-17.772-3.177
			c-6.421,0.431-12.731,3.253-18.83,5.983c-5.651,2.528-11.495,5.142-17.389,5.791c-1.358,0.152-2.79,0.226-4.254,0.226
			c-5.559,0-10.991-1.063-16.249-2.09c-4.771-0.938-9.272-1.819-13.427-1.819c-1.438,0-2.729,0.106-3.962,0.318
			c-7.735,1.345-14.255,5.479-20.556,9.478c-4.602,2.918-8.948,5.678-13.403,7.046c-4.016,1.229-7.918,2.319-11.575,3.336
			c-10.684,2.976-21.731,6.056-21.731,9.8c0,3.739,11.034,6.813,21.702,9.785c3.657,1.021,7.56,2.107,11.574,3.34
			c4.459,1.367,8.815,4.127,13.424,7.053c6.311,4.002,12.837,8.14,20.582,9.484c1.232,0.211,2.527,0.318,3.966,0.318
			c4.153,0,8.662-0.885,13.433-1.82c5.261-1.025,10.7-2.09,16.259-2.09c1.465,0,2.899,0.074,4.261,0.227
			c5.884,0.648,11.724,3.26,17.372,5.787c6.099,2.729,12.406,5.551,18.84,5.982c5.605,0.387,11.485-1.346,17.763-3.174
			C203.826,295.98,210.094,294.154,216.491,294.154z"/>
	</g>
	<g>
		<path fill="#FFF2EB" d="M469.58,261.033c3.684,6.133-12.121,8.958-30.875,14.713c-9.965,3.051-20.198,14.152-34.269,16.594
			c-11.181,1.941-24.731-4.814-38.04-3.344c-11.671,1.289-23.321,10.912-36.327,11.781c-11.937,0.797-24.786-7.146-37.62-6.738
			c-12.102,0.385-24.411,9.146-37.116,9.146c-12.704,0-25.011-8.763-37.109-9.146c-12.82-0.404-25.678,7.543-37.606,6.738
			c-13.003-0.869-24.653-10.492-36.321-11.777c-13.314-1.471-26.877,5.287-38.063,3.346c-14.086-2.447-24.339-13.553-34.313-16.609
			c-18.737-5.747-33.586-7.146-33.586-14.288c0,0,2.69-7.242,49.731-10.316c8.116,0.13,27.198-17.534,54.654-13.019
			c27.456,4.512,33.175-13.665,48.257-14.308c16.534-0.706,33.546-8.739,53.704-10.316c37.385-2.919,47.519,11.733,56.801,11.346
			c9.277-0.388,66.367,5.098,83.061,15.854c11.602,7.477,29.649,5.413,40.218,12.245c10.57,6.83,20.883,2.965,25.521,6.059
			S467.646,257.812,469.58,261.033z"/>
	</g>
	<g opacity="0.41">
		<path fill="#EFCFBE" d="M323.302,291.033c0,0,18.048-4.123,40.988-6.959c22.948-2.84,25.525-2.32,31.455-1.293
			c5.927,1.037,26.555-8.5,29.904-11.084c3.353-2.577,27.326-0.771,7.734-8.766c-19.595-7.99-30.421-14.696-39.703-14.696
			c-9.278,0-23.975-7.219-32.739-7.732c-8.767-0.514-27.845,3.866-27.845,3.866s-17.272,3.353,37.897,13.665
			c55.17,10.312,26.811,10.055,26.811,10.055s-13.917,3.094-20.884,3.094c-6.957,0-32.224,10.051-57.486,10.051
			c-25.267,0-40.732,3.611-32.484,5.162C295.202,287.943,310.67,292.322,323.302,291.033z"/>
	</g>
	<g>
		<path fill="#BE202E" d="M354.498,252.234c0,8.609-7.679,15.597-17.147,15.597c-9.464,0-17.144-6.985-17.144-15.597
			c0-8.613,7.68-15.596,17.144-15.596C346.819,236.638,354.498,243.621,354.498,252.234z"/>
		<path fill="#3C2517" d="M337.351,270.316c-10.821,0-19.628-8.113-19.628-18.082c0-9.968,8.807-18.078,19.628-18.078
			c10.823,0,19.63,8.11,19.63,18.078C356.979,262.203,348.174,270.316,337.351,270.316z M337.351,239.122
			c-8.083,0-14.657,5.883-14.657,13.112c0,7.231,6.574,13.115,14.657,13.115c8.088,0,14.663-5.884,14.663-13.115
			C352.014,245.005,345.438,239.122,337.351,239.122z"/>
	</g>
	<g>
		<line fill="none" x1="217.862" y1="316.814" x2="218.207" y2="358.755"/>
		<path fill="#3C2517" d="M218.207,361.24c-1.364,0-2.472-1.1-2.484-2.465l-0.345-41.941c-0.014-1.371,1.09-2.492,2.461-2.504
			c0.011,0,0.014,0,0.023,0c1.361,0,2.472,1.1,2.481,2.465l0.345,41.939c0.014,1.373-1.09,2.492-2.462,2.506
			C218.217,361.24,218.214,361.24,218.207,361.24z"/>
	</g>
	<g>
		<line fill="none" x1="289.016" y1="317.589" x2="284.891" y2="356.609"/>
		<path fill="#3C2517" d="M284.895,359.085c-0.09,0-0.177,0-0.267-0.012c-1.36-0.142-2.353-1.365-2.206-2.73l4.121-39.02
			c0.146-1.361,1.342-2.369,2.732-2.207c1.361,0.146,2.353,1.364,2.207,2.733l-4.125,39.017
			C287.227,358.139,286.146,359.085,284.895,359.085z"/>
	</g>
	<g>
		<line fill="none" x1="363.773" y1="311.656" x2="353.12" y2="354.626"/>
		<path fill="#3C2517" d="M353.123,357.111c-0.198,0-0.401-0.025-0.6-0.072c-1.332-0.332-2.145-1.676-1.815-3.008l10.657-42.971
			c0.328-1.336,1.688-2.138,3.008-1.816c1.329,0.332,2.144,1.68,1.812,3.008l-10.653,42.973
			C355.25,356.357,354.236,357.111,353.123,357.111z"/>
	</g>
	<g>
		<line fill="none" x1="425.392" y1="302.634" x2="407.343" y2="343.027"/>
		<path fill="#3C2517" d="M407.343,345.511c-0.338,0-0.682-0.067-1.01-0.219c-1.252-0.56-1.815-2.022-1.256-3.278l18.048-40.394
			c0.557-1.248,2.018-1.813,3.28-1.252c1.252,0.562,1.813,2.022,1.255,3.278l-18.048,40.394
			C409.198,344.962,408.294,345.511,407.343,345.511z"/>
	</g>
	<g>
		<line fill="none" x1="146.963" y1="316.555" x2="153.664" y2="352.136"/>
		<path fill="#3C2517" d="M153.664,354.613c-1.173,0-2.213-0.828-2.438-2.021l-6.705-35.573c-0.252-1.353,0.632-2.65,1.98-2.902
			c1.352-0.258,2.647,0.637,2.902,1.979l6.701,35.576c0.256,1.352-0.632,2.65-1.98,2.902
			C153.969,354.602,153.813,354.613,153.664,354.613z"/>
	</g>
	<g>
		<line fill="none" x1="78.901" y1="303.666" x2="91.109" y2="337.529"/>
		<path fill="#3C2517" d="M91.109,340.009c-1.017,0-1.975-0.627-2.339-1.641l-12.204-33.861c-0.464-1.289,0.205-2.715,1.497-3.178
			c1.285-0.476,2.71,0.2,3.177,1.494l12.204,33.862c0.464,1.289-0.205,2.713-1.497,3.176
			C91.673,339.966,91.388,340.009,91.109,340.009z"/>
	</g>
	<g>
		<path fill="#BE202E" d="M284.1,230.32c0,14.451-11.654,26.167-26.022,26.167c-14.36,0-26.021-11.716-26.021-26.167
			c0-14.45,11.661-26.167,26.021-26.167C272.443,204.153,284.1,215.87,284.1,230.32z"/>
		<path fill="#3C2517" d="M258.076,258.969c-15.716,0-28.506-12.851-28.506-28.649c0-15.799,12.79-28.649,28.506-28.649
			c15.72,0,28.507,12.85,28.507,28.649C286.583,246.119,273.796,258.969,258.076,258.969z M258.076,206.637
			c-12.976,0-23.537,10.624-23.537,23.683s10.562,23.683,23.537,23.683c12.979,0,23.541-10.624,23.541-23.683
			S271.057,206.637,258.076,206.637z"/>
	</g>
	<g>
		<path fill="#BE202E" d="M251.374,220.137c0,0,6.259,5.158,14.954,0.258"/>
		<path fill="#3C2517" d="M258.814,225.006c-5.348,0-8.812-2.783-9.021-2.952c-1.057-0.875-1.209-2.438-0.338-3.498
			c0.868-1.054,2.422-1.209,3.481-0.348c0.246,0.196,5.186,3.962,12.168,0.023c1.199-0.676,2.713-0.252,3.383,0.944
			c0.676,1.196,0.252,2.709-0.94,3.382C264.311,224.384,261.35,225.006,258.814,225.006z"/>
	</g>
	<g>
		<path fill="#3C2517" d="M257.305,223.652c-0.234,0-0.478-0.037-0.716-0.103c-1.312-0.394-2.058-1.779-1.663-3.094
			c0.143-0.474,14.023-47.598-1.375-65.168c-4.853-5.536-12.39-7.527-22.407-5.914c-1.355,0.219-2.631-0.702-2.846-2.057
			c-0.219-1.355,0.702-2.627,2.061-2.846c11.82-1.897,20.877,0.636,26.93,7.543c17.199,19.635,3.005,67.826,2.395,69.867
			C259.357,222.956,258.371,223.652,257.305,223.652z"/>
	</g>
	<g>
		<path fill="#901A22" d="M208.136,270.925c0,8.252-6.599,14.953-14.734,14.953c-8.13,0-14.729-6.701-14.729-14.953
			c0-8.256,6.599-14.954,14.729-14.954C201.537,255.971,208.136,262.669,208.136,270.925z"/>
		<path fill="#3C2517" d="M193.401,288.363c-9.491,0-17.214-7.82-17.214-17.438c0-9.614,7.723-17.438,17.214-17.438
			c9.491,0,17.216,7.824,17.216,17.438C210.617,280.542,202.893,288.363,193.401,288.363z M193.401,258.453
			c-6.752,0-12.248,5.595-12.248,12.473c0,6.877,5.496,12.473,12.248,12.473c6.754,0,12.25-5.596,12.25-12.473
			C205.651,264.047,200.155,258.453,193.401,258.453z"/>
	</g>
	<g>
		<path fill="#BE202E" d="M245.441,264.866c0,9.606-7.384,17.401-16.494,17.401c-9.113,0-16.501-7.795-16.501-17.401
			s7.388-17.401,16.501-17.401C238.058,247.464,245.441,255.259,245.441,264.866z"/>
		<path fill="#3C2517" d="M228.947,284.75c-10.469,0-18.985-8.922-18.985-19.884c0-10.966,8.517-19.887,18.985-19.887
			c10.465,0,18.979,8.921,18.979,19.887C247.926,275.828,239.412,284.75,228.947,284.75z M228.947,249.949
			c-7.732,0-14.017,6.691-14.017,14.917s6.284,14.917,14.017,14.917c7.726,0,14.013-6.691,14.013-14.917
			S236.673,249.949,228.947,249.949z"/>
	</g>
	<g>
		<ellipse fill="#BE202E" cx="214.894" cy="236.638" rx="19.721" ry="17.273"/>
		<path fill="#3C2517" d="M214.895,256.393c-12.244,0-22.206-8.861-22.206-19.754c0-10.896,9.962-19.757,22.206-19.757
			s22.205,8.862,22.205,19.757C237.1,247.531,227.139,256.393,214.895,256.393z M214.895,221.846c-9.505,0-17.24,6.635-17.24,14.792
			c0,8.153,7.735,14.788,17.24,14.788c9.508,0,17.236-6.635,17.236-14.788C232.131,228.481,224.402,221.846,214.895,221.846z"/>
	</g>
	<g opacity="0.28">
		<path fill="#EFCFBE" d="M159.257,240.159c0,0-30.936,0.176-50.183,12.032c-19.243,11.863-37.978,14.266-37.812,14.781
			c0.169,0.518,13.924,7.395,22.345,10.312c8.421,2.922,22,7.391,23.547,6.36c1.547-1.033-3.79-4.645-8.08-9.631
			c-4.293-4.979-3.104-7.73,3.264-10.826c6.363-3.09,27.844-11.512,37.122-12.545C158.743,249.617,187.782,235.693,159.257,240.159z
			"/>
	</g>
	<g>
		<path fill="#C93346" d="M200.845,248.11c0,8.613-7.679,15.597-17.144,15.597c-9.468,0-17.146-6.982-17.146-15.597
			c0-8.614,7.679-15.6,17.146-15.6C193.166,232.51,200.845,239.497,200.845,248.11z"/>
		<path fill="#3C2517" d="M183.701,266.188c-10.819,0-19.628-8.109-19.628-18.078c0-9.972,8.809-18.081,19.628-18.081
			c10.823,0,19.628,8.109,19.628,18.081C203.329,258.078,194.524,266.188,183.701,266.188z M183.701,234.995
			c-8.087,0-14.662,5.883-14.662,13.115c0,7.231,6.575,13.113,14.662,13.113c8.083,0,14.659-5.882,14.659-13.113
			C198.36,240.878,191.784,234.995,183.701,234.995z"/>
	</g>
	<g>
		<path fill="#901A22" d="M311.958,259.195c0,9.039-10.044,16.367-22.431,16.367c-12.383,0-22.428-7.328-22.428-16.367
			c0-9.042,10.045-16.369,22.428-16.369C301.914,242.826,311.958,250.154,311.958,259.195z"/>
		<path fill="#3C2517" d="M289.527,278.047c-13.734,0-24.908-8.458-24.908-18.854s11.174-18.854,24.908-18.854
			c13.737,0,24.912,8.457,24.912,18.854C314.439,269.589,303.266,278.047,289.527,278.047z M289.527,245.307
			c-10.995,0-19.942,6.231-19.942,13.888c0,7.654,8.947,13.887,19.942,13.887c10.999,0,19.945-6.23,19.945-13.887
			C309.474,251.539,300.526,245.307,289.527,245.307z"/>
	</g>
	<g>
		<path fill="#DE2D4B" d="M331.062,273.625c-1.422,8.494-10.144,14.119-19.481,12.557c-9.339-1.567-15.759-9.721-14.345-18.211
			c1.421-8.498,10.144-14.123,19.481-12.559C326.058,256.975,332.478,265.127,331.062,273.625z"/>
		<path fill="#3C2517" d="M314.698,288.923c-1.173,0-2.358-0.096-3.528-0.291c-10.674-1.793-18.021-11.243-16.382-21.069
			c1.44-8.629,9.353-14.896,18.811-14.896c1.177,0,2.361,0.104,3.531,0.295c10.674,1.786,18.021,11.237,16.382,21.07
			C332.067,282.662,324.156,288.923,314.698,288.923z M313.599,257.634c-7.022,0-12.87,4.519-13.909,10.746
			c-1.189,7.126,4.328,14.019,12.3,15.353c0.896,0.147,1.809,0.225,2.71,0.225c7.02,0,12.873-4.518,13.914-10.742
			c1.188-7.133-4.33-14.02-12.302-15.352C315.41,257.71,314.499,257.634,313.599,257.634z"/>
	</g>
	<g>
		<path fill="#C93346" d="M396.938,273.891c-6.089,5.131-16.231,3.123-22.673-4.49c-6.409-7.611-6.688-17.955-0.596-23.096
			c6.092-5.135,16.242-3.127,22.673,4.486C402.755,258.406,403.026,268.751,396.938,273.891z"/>
		<path fill="#3C2517" d="M388.798,279.216c-5.938,0-12.081-3.069-16.428-8.212c-7.295-8.656-7.427-20.585-0.302-26.595
			c2.659-2.246,6.028-3.432,9.742-3.432c5.943,0,12.086,3.071,16.429,8.212c7.289,8.657,7.421,20.584,0.299,26.602
			C395.878,278.031,392.509,279.216,388.798,279.216z M381.812,245.943c-2.527,0-4.79,0.782-6.544,2.26
			c-5.03,4.247-4.628,13.035,0.896,19.598c3.416,4.035,8.14,6.451,12.635,6.451c2.524,0,4.784-0.782,6.536-2.26
			c5.032-4.247,4.635-13.039-0.891-19.602C391.034,248.355,386.311,245.943,381.812,245.943z"/>
	</g>
	<g>
		<path fill="#BE202E" d="M169.394,259.453c0,8.613-9.644,15.597-21.53,15.597c-11.883,0-21.522-6.983-21.522-15.597
			c0-8.614,9.64-15.596,21.522-15.596C159.75,243.857,169.394,250.839,169.394,259.453z"/>
		<path fill="#3C2517" d="M147.863,277.534c-13.237,0-24.007-8.112-24.007-18.081c0-9.969,10.77-18.081,24.007-18.081
			c13.241,0,24.012,8.112,24.012,18.081C171.875,269.422,161.104,277.534,147.863,277.534z M147.863,246.337
			c-10.501,0-19.041,5.884-19.041,13.115s8.54,13.114,19.041,13.114c10.502,0,19.046-5.883,19.046-13.114
			S158.365,246.337,147.863,246.337z"/>
	</g>
	<g>
		<path fill="#BE202E" d="M273.547,273.628c0,8.613-7.679,15.601-17.146,15.601c-9.464,0-17.144-6.986-17.144-15.601
			c0-8.606,7.679-15.594,17.144-15.594C265.868,258.035,273.547,265.021,273.547,273.628z"/>
		<path fill="#3C2517" d="M256.4,291.712c-10.823,0-19.629-8.112-19.629-18.084c0-9.965,8.806-18.078,19.629-18.078
			c10.822,0,19.627,8.113,19.627,18.078C276.027,283.6,267.223,291.712,256.4,291.712z M256.4,260.516
			c-8.083,0-14.659,5.885-14.659,13.112c0,7.233,6.576,13.119,14.659,13.119c8.086,0,14.662-5.886,14.662-13.119
			C271.062,266.4,264.486,260.516,256.4,260.516z"/>
	</g>
</g>
</svg>
