<?xml version="1.0" encoding="utf-8"?>
<!-- Generator: Adobe Illustrator 16.0.0, SVG Export Plug-In . SVG Version: 6.00 Build 0)  -->
<!DOCTYPE svg PUBLIC "-//W3C//DTD SVG 1.1//EN" "http://www.w3.org/Graphics/SVG/1.1/DTD/svg11.dtd">
<svg version="1.1" id="Layer_1" xmlns="http://www.w3.org/2000/svg" xmlns:xlink="http://www.w3.org/1999/xlink" x="0px" y="0px"
	 width="500px" height="500px" viewBox="0 0 500 500" enable-background="new 0 0 500 500" xml:space="preserve">
<g id="Layer_1_copy_59">
	<g>
		<g>
			<rect x="240.568" y="112.852" fill="#F2F2F2" width="57.992" height="29.97"/>
			<path fill="#2C2010" d="M298.561,145.157h-57.992c-1.286,0-2.336-1.048-2.336-2.335v-29.97c0-1.292,1.05-2.337,2.336-2.337
				h57.992c1.292,0,2.339,1.045,2.339,2.337v29.97C300.898,144.109,299.853,145.157,298.561,145.157z M242.906,140.485h53.322v-25.3
				h-53.322V140.485z"/>
		</g>
		<g>
			<path fill="#FBB041" d="M444.312,275.023c0,0,21.166-5.518,20.243,11.043c-0.919,16.564-8.739,16.104-8.739,16.104
				l-18.862-11.962L444.312,275.023z"/>
			<path fill="#2C2010" d="M455.878,304.511c-0.043,0-0.155-0.008-0.197-0.008c-0.397-0.022-0.781-0.147-1.112-0.358L435.7,292.18
				c-1.002-0.636-1.365-1.923-0.853-2.99l7.362-15.185c0.294-0.614,0.849-1.067,1.512-1.239c0.148-0.041,3.725-0.961,7.979-0.961
				c5.348,0,9.393,1.41,12.021,4.188c2.345,2.479,3.405,5.91,3.17,10.203C465.919,303.625,457.547,304.511,455.878,304.511z
				 M439.962,289.352l16.427,10.42c2.021-0.496,5.278-3.797,5.835-13.834c0.169-2.965-0.473-5.229-1.897-6.736
				c-2.13-2.25-5.869-2.723-8.625-2.723c-2.401,0-4.566,0.342-5.78,0.58L439.962,289.352z"/>
		</g>
		<g>
			<path fill="#FBB041" d="M42.173,272.719c0,0-20.248-1.376-18.406,17.028c1.838,18.405,14.727,12.884,14.727,12.884l18.859-7.365
				L42.173,272.719z"/>
			<path fill="#2C2010" d="M34.318,305.744L34.318,305.744c-4.22,0-11.503-2.051-12.878-15.764
				c-0.566-5.644,0.707-10.225,3.775-13.617c4.905-5.416,12.834-6,16.018-6c0.693,0,1.092,0.025,1.092,0.025
				c0.719,0.053,1.379,0.432,1.78,1.027l15.184,22.546c0.398,0.588,0.502,1.325,0.291,2c-0.21,0.677-0.716,1.224-1.379,1.479
				l-18.862,7.365C39.179,304.878,37.081,305.744,34.318,305.744z M40.911,275.037c-2.325,0.035-8.659,0.516-12.231,4.461
				c-2.148,2.374-3.02,5.743-2.588,10.016c0.764,7.674,3.53,11.561,8.227,11.561l0,0c1.813,0,3.251-0.586,3.266-0.592l16.204-6.332
				L40.911,275.037z"/>
		</g>
		<g>
			<path fill="#F9EF60" d="M64.257,331.617l-22.084-0.458c0,0-23.932-5.063-13.348-23.007c3.221-4.141,9.668-5.521,9.668-5.521
				S25.604,246.496,89.1,225.329c46.931-6.897,58.896-30.367,58.896-30.367c28.676-63.591,110.488-59.296,122.852-58.951
				c101.542,2.826,134.813,46.529,160.119,94.382c12.883,29.906,13.344,48.312,13.344,48.312s3.223,22.54,17.026,24.383
				c13.803,1.844,13.344,28.993-7.82,27.148L64.257,331.617z"/>
			<path fill="#2C2010" d="M64.257,333.956c-0.02,0-0.034,0-0.053,0l-22.084-0.464c-0.145-0.003-0.29-0.02-0.436-0.051
				c-0.524-0.111-12.982-2.836-16.799-11.51c-1.959-4.443-1.304-9.479,1.929-14.965c0.048-0.089,0.108-0.169,0.167-0.25
				c2.469-3.174,6.408-4.917,8.856-5.749c-1.576-10.801-5.043-58.663,52.521-77.854c0.134-0.042,0.264-0.076,0.401-0.095
				c44.97-6.613,57.042-28.903,57.158-29.128c23.686-52.536,82.65-60.396,115.687-60.396c3.526,0,6.336,0.089,8.22,0.148l1.092,0.03
				c104.47,2.912,137.372,48.836,162.115,95.628c12.513,29.018,13.534,47.182,13.605,49.186c0.271,1.668,3.588,20.764,15.009,22.287
				c8.095,1.082,11.85,8.894,11.371,16.056c-0.521,7.879-6.135,15.83-17.484,15.83c0,0-0.004,0-0.008,0
				c-0.711,0-1.448-0.03-2.217-0.097l-389.043,1.393C64.26,333.956,64.257,333.956,64.257,333.956z M42.444,328.827l21.831,0.457
				l389.231-1.382c0.834,0.062,1.438,0.086,2.025,0.086c8.903,0,12.475-6.176,12.826-11.469c0.332-4.992-2.082-10.416-7.333-11.115
				c-15.378-2.055-18.886-25.377-19.026-26.368c-0.012-0.089-0.022-0.183-0.022-0.269c-0.009-0.187-0.637-18.397-13.153-47.453
				c-24.021-45.403-56.084-90.131-158.036-92.971l-1.11-0.034c-1.848-0.056-4.604-0.146-8.07-0.146
				c-31.908,0-88.819,7.504-111.481,57.756c-0.558,1.104-13.071,24.655-60.477,31.688c-60.453,20.267-49.385,72.296-48.881,74.503
				c0.137,0.607,0.025,1.25-0.311,1.775c-0.335,0.524-0.867,0.896-1.479,1.027c-0.052,0.01-5.537,1.24-8.214,4.555
				c-2.365,4.067-2.906,7.624-1.604,10.581C31.484,325.328,39.342,328.12,42.444,328.827z"/>
		</g>
		<g>
			<path fill="#4E4E4E" d="M167.561,317.209c0,24.184-19.604,43.788-43.784,43.788c-24.186,0-43.789-19.604-43.789-43.788
				s19.604-43.786,43.789-43.786C147.956,273.423,167.561,293.027,167.561,317.209z"/>
			<path fill="#2C2010" d="M123.776,363.332c-25.433,0-46.125-20.689-46.125-46.122s20.692-46.125,46.125-46.125
				c25.432,0,46.122,20.692,46.122,46.125C169.898,342.641,149.208,363.332,123.776,363.332z M123.776,275.761
				c-22.858,0-41.455,18.593-41.455,41.448c0,22.857,18.597,41.451,41.455,41.451c22.855,0,41.449-18.594,41.449-41.451
				C165.226,294.354,146.632,275.761,123.776,275.761z"/>
		</g>
		<g>
			<path fill="#4E4E4E" d="M398.602,319.369c0,18.92-15.34,34.259-34.259,34.259c-18.922,0-34.258-15.339-34.258-34.259
				c0-18.917,15.336-34.26,34.258-34.26C383.262,285.109,398.602,300.452,398.602,319.369z"/>
			<path fill="#2C2010" d="M364.343,355.961c-20.177,0-36.593-16.418-36.593-36.593c0-20.179,16.416-36.597,36.593-36.597
				c20.173,0,36.591,16.418,36.591,36.597C400.934,339.543,384.516,355.961,364.343,355.961z M364.343,287.447
				c-17.601,0-31.918,14.318-31.918,31.922c0,17.6,14.317,31.923,31.918,31.923c17.602,0,31.92-14.323,31.92-31.923
				C396.263,301.766,381.943,287.447,364.343,287.447z"/>
		</g>
		<g>
			<path fill="#ABDDF3" d="M156.276,221.187h93.404v-69.474C249.681,151.713,194.009,143.887,156.276,221.187z"/>
			<path fill="#2C2010" d="M249.681,223.524h-93.404c-0.801,0-1.553-0.417-1.978-1.101c-0.429-0.683-0.47-1.536-0.119-2.26
				c13.663-27.994,31.167-48.167,52.033-59.968c16.989-9.604,31.781-11.04,39.085-11.04c2.935,0,4.637,0.236,4.707,0.245
				c1.155,0.159,2.015,1.147,2.015,2.312v69.474C252.02,222.476,250.973,223.524,249.681,223.524z M160.071,218.854h87.275V153.87
				c-0.57-0.026-1.259-0.043-2.049-0.043C198.678,153.827,169.909,199.913,160.071,218.854z"/>
		</g>
		<g>
			<path fill="#ABDDF3" d="M270.85,151.251v68.562h133.433C404.281,219.813,356.887,145.269,270.85,151.251z"/>
			<path fill="#2C2010" d="M404.281,222.146H270.85c-1.293,0-2.34-1.048-2.34-2.333v-68.562c0-1.227,0.95-2.243,2.18-2.331
				c3.314-0.227,6.658-0.346,9.943-0.346c80.19,0,125.175,69.282,125.618,69.981c0.463,0.721,0.487,1.629,0.082,2.376
				C405.919,221.681,405.134,222.146,404.281,222.146z M273.186,217.476h126.604c-10.338-14.016-52.066-64.231-119.156-64.231
				c-2.459,0-4.953,0.07-7.447,0.203V217.476z"/>
		</g>
		<g>
			<path fill="#6E6F72" d="M244.62,241.437c0,3.81-3.088,6.9-6.896,6.9h-10.588c-3.814,0-6.901-3.09-6.901-6.9l0,0
				c0-3.815,3.087-6.902,6.901-6.902h10.588C241.532,234.535,244.62,237.622,244.62,241.437L244.62,241.437z"/>
			<path fill="#2C2010" d="M237.724,250.671h-10.588c-5.096,0-9.236-4.146-9.236-9.234c0-5.098,4.141-9.24,9.236-9.24h10.588
				c5.091,0,9.234,4.142,9.234,9.24C246.958,246.525,242.814,250.671,237.724,250.671z M227.136,236.868
				c-2.519,0-4.566,2.05-4.566,4.569c0,2.514,2.048,4.564,4.566,4.564h10.588c2.513,0,4.566-2.05,4.566-4.564
				c0-2.519-2.054-4.569-4.566-4.569H227.136z"/>
		</g>
		<g>
			<path fill="#6E6F72" d="M304.173,241.437c0,3.81-3.087,6.9-6.901,6.9h-10.588c-3.812,0-6.899-3.09-6.899-6.9l0,0
				c0-3.815,3.087-6.902,6.899-6.902h10.588C301.086,234.535,304.173,237.622,304.173,241.437L304.173,241.437z"/>
			<path fill="#2C2010" d="M297.271,250.671h-10.588c-5.092,0-9.235-4.146-9.235-9.234c0-5.098,4.145-9.24,9.235-9.24h10.588
				c5.091,0,9.235,4.142,9.235,9.24C306.508,246.525,302.362,250.671,297.271,250.671z M286.684,236.868
				c-2.517,0-4.562,2.05-4.562,4.569c0,2.514,2.046,4.564,4.562,4.564h10.588c2.52,0,4.566-2.05,4.566-4.564
				c0-2.519-2.048-4.569-4.566-4.569H286.684z"/>
		</g>
		<g>
			<path fill="#818181" d="M125.909,273.746c-24.848,0-44.987,20.145-44.987,44.988c0,24.847,20.14,44.983,44.987,44.983
				c24.847,0,44.988-20.138,44.988-44.983S150.756,273.746,125.909,273.746z M125.909,340.627
				c-12.747,0-23.086-10.334-23.086-23.088s10.339-23.091,23.086-23.091c12.751,0,23.094,10.337,23.094,23.091
				S138.66,340.627,125.909,340.627z"/>
			<path fill="#2C2010" d="M125.909,366.055c-26.088,0-47.318-21.229-47.318-47.32c0-26.094,21.23-47.325,47.318-47.325
				c26.095,0,47.322,21.231,47.322,47.325C173.231,344.827,152.004,366.055,125.909,366.055z M125.909,276.081
				c-23.518,0-42.647,19.135-42.647,42.653c0,23.517,19.13,42.649,42.647,42.649c23.521,0,42.652-19.134,42.652-42.649
				C168.562,295.215,149.431,276.081,125.909,276.081z M125.909,342.964c-14.017,0-25.424-11.405-25.424-25.425
				c0-14.021,11.407-25.425,25.424-25.425c14.021,0,25.43,11.403,25.43,25.425C151.339,331.559,139.93,342.964,125.909,342.964z
				 M125.909,296.785c-11.444,0-20.754,9.312-20.754,20.755c0,11.444,9.31,20.754,20.754,20.754c11.449,0,20.758-9.31,20.758-20.754
				C146.667,306.098,137.358,296.785,125.909,296.785z"/>
		</g>
		<g>
			<path fill="#818181" d="M366.552,278.057c-22.465,0-40.675,18.213-40.675,40.678c0,22.467,18.21,40.677,40.675,40.677
				c22.464,0,40.68-18.21,40.68-40.677C407.23,296.27,389.016,278.057,366.552,278.057z M366.552,338.529
				c-11.529,0-20.878-9.344-20.878-20.875c0-11.53,9.349-20.879,20.878-20.879c11.53,0,20.877,9.349,20.877,20.879
				C387.429,329.186,378.082,338.529,366.552,338.529z"/>
			<path fill="#2C2010" d="M366.552,361.742c-23.719,0-43.011-19.291-43.011-43.008s19.292-43.016,43.011-43.016
				c23.715,0,43.015,19.299,43.015,43.016S390.267,361.742,366.552,361.742z M366.552,280.391c-21.143,0-38.341,17.2-38.341,38.344
				c0,21.141,17.198,38.336,38.341,38.336s38.34-17.195,38.34-38.336C404.892,297.591,387.693,280.391,366.552,280.391z
				 M366.552,340.866c-12.8,0-23.213-10.411-23.213-23.212c0-12.797,10.413-23.211,23.213-23.211
				c12.796,0,23.208,10.414,23.208,23.211C389.76,330.455,379.348,340.866,366.552,340.866z M366.552,299.113
				c-10.227,0-18.542,8.32-18.542,18.541c0,10.226,8.315,18.541,18.542,18.541c10.224,0,18.538-8.315,18.538-18.541
				C385.09,307.434,376.774,299.113,366.552,299.113z"/>
		</g>
		<g>
			<polygon fill="#FBB041" points="443.126,268.302 41.439,268.302 47.285,255.212 440.121,255.848 			"/>
			<path fill="#2C2010" d="M443.171,270.639c-0.011,0-0.024,0-0.045,0H41.439c-0.791,0-1.527-0.402-1.956-1.065
				c-0.432-0.663-0.494-1.501-0.176-2.222l5.849-13.086c0.372-0.845,1.206-1.387,2.129-1.387h0.005l392.839,0.635
				c1.072,0,2.012,0.737,2.265,1.788l2.897,12.017c0.141,0.298,0.216,0.635,0.216,0.983
				C445.507,269.596,444.46,270.639,443.171,270.639z M45.04,265.969h395.123l-1.877-7.789l-389.488-0.628L45.04,265.969z"/>
		</g>
		<g>
			<path fill="#010101" stroke="#010101" stroke-width="1.1676" d="M254.639,119.695h-4.201v-1.514h10.227v1.514h-4.224v12.292
				h-1.803V119.695L254.639,119.695z"/>
			<path fill="#010101" stroke="#010101" stroke-width="1.1676" d="M262.9,127.645l-1.434,4.342h-1.84l4.688-13.806h2.149
				l4.718,13.806h-1.904l-1.479-4.342H262.9z M267.43,126.253l-1.352-3.977c-0.305-0.902-0.512-1.719-0.715-2.52h-0.045
				c-0.205,0.818-0.426,1.662-0.692,2.499l-1.353,3.998H267.43z"/>
			<path fill="#010101" stroke="#010101" stroke-width="1.1676" d="M280.494,131.987l-1.766-3.054
				c-0.715-1.165-1.166-1.923-1.597-2.72h-0.039c-0.391,0.797-0.78,1.534-1.497,2.744l-1.66,3.03h-2.045l4.217-6.983l-4.061-6.823
				h2.074l1.824,3.237c0.508,0.897,0.897,1.595,1.267,2.336h0.062c0.391-0.821,0.74-1.454,1.254-2.336l1.885-3.237h2.048l-4.2,6.717
				l4.303,7.089H280.494z"/>
			<path fill="#010101" stroke="#010101" stroke-width="1.1676" d="M286.42,118.181v13.806h-1.779v-13.806H286.42z"/>
		</g>
	</g>
</g>
</svg>
