<?xml version="1.0" encoding="utf-8"?>
<!-- Generator: Adobe Illustrator 16.0.0, SVG Export Plug-In . SVG Version: 6.00 Build 0)  -->
<!DOCTYPE svg PUBLIC "-//W3C//DTD SVG 1.1//EN" "http://www.w3.org/Graphics/SVG/1.1/DTD/svg11.dtd">
<svg version="1.1" id="Layer_1" xmlns="http://www.w3.org/2000/svg" xmlns:xlink="http://www.w3.org/1999/xlink" x="0px" y="0px"
	 width="500px" height="500px" viewBox="0 0 500 500" enable-background="new 0 0 500 500" xml:space="preserve">
<g id="Layer_1_copy_42">
	<g>
		<g>
			<path fill="#FFEEAD" d="M404.805,307.055c-5.763,0-11.457-0.894-16.923-2.66c-16.196-5.211-28.954-17.429-35.908-34.401
				c-6.704-16.354-7.192-35.28-1.381-53.293c9.898-30.675,36.492-52.101,64.676-52.101c5.761,0,11.445,0.891,16.903,2.657
				c16.203,5.226,28.963,17.473,35.918,34.477c6.704,16.383,7.194,35.321,1.377,53.337
				C459.56,285.68,432.972,307.055,404.805,307.055z M415.269,185.687c-19.144,0-37.482,15.417-44.605,37.488
				c-4.283,13.283-3.99,27.067,0.824,38.817c4.558,11.119,12.679,19.053,22.867,22.334c3.375,1.088,6.89,1.641,10.45,1.641
				c19.135,0,37.472-15.373,44.598-37.386c4.283-13.277,3.989-27.083-0.826-38.862c-4.568-11.153-12.69-19.107-22.878-22.395
				C422.328,186.237,418.82,185.687,415.269,185.687z"/>
			<path fill="#3C2517" d="M404.805,309.984c-6.069,0-12.063-0.94-17.819-2.801c-17.038-5.479-30.434-18.293-37.722-36.084
				c-6.969-16.992-7.483-36.634-1.455-55.301c10.279-31.871,38.021-54.13,67.46-54.13c6.064,0,12.054,0.942,17.802,2.798
				c17.041,5.499,30.442,18.337,37.733,36.158c6.961,17.021,7.479,36.674,1.451,55.343
				C461.963,287.773,434.228,309.984,404.805,309.984z M415.269,167.525c-26.928,0-52.377,20.592-61.887,50.073
				c-5.601,17.354-5.141,35.57,1.299,51.284c6.628,16.156,18.736,27.783,34.101,32.726c5.175,1.67,10.568,2.519,16.023,2.519
				c26.911,0,52.357-20.546,61.874-49.958c5.604-17.355,5.143-35.581-1.3-51.325c-6.623-16.193-18.739-27.843-34.104-32.798
				C426.105,168.376,420.721,167.525,415.269,167.525z M404.805,288.895c-3.865,0-7.684-0.599-11.349-1.779
				c-11.026-3.553-19.79-12.078-24.682-24.014c-5.076-12.391-5.397-26.887-0.9-40.825c7.508-23.27,26.999-39.52,47.395-39.52
				c3.859,0,7.674,0.601,11.326,1.783c11.025,3.555,19.793,12.102,24.69,24.068c5.081,12.423,5.4,26.938,0.9,40.87
				C444.676,272.691,425.19,288.895,404.805,288.895z M415.269,188.617c-17.885,0-35.078,14.58-41.817,35.458
				c-4.07,12.622-3.809,25.693,0.746,36.81c4.227,10.307,11.7,17.641,21.052,20.653c3.089,0.995,6.299,1.499,9.557,1.499
				c17.877,0,35.07-14.54,41.809-35.358c4.075-12.622,3.809-25.71-0.752-36.85c-4.229-10.343-11.714-17.703-21.062-20.72
				C421.724,189.12,418.517,188.617,415.269,188.617z"/>
		</g>
	</g>
	<g>
		<path fill="#F1E585" d="M395.625,148.25c0,0,2.958,151.561-66.97,196.871c-69.935,45.309-196.004,0-196.004,0
			S68.638,283.111,69.62,148.25"/>
		<path fill="#3C2517" d="M246.374,368.747c-12.677,0-26.777-0.952-42.437-3.156c-40.151-5.646-72.157-17.047-72.475-17.166
			c-0.469-0.164-0.897-0.432-1.255-0.778c-2.657-2.576-65.085-64.604-64.103-199.419c0.014-1.941,1.604-3.453,3.537-3.487
			c1.945,0.014,3.505,1.597,3.491,3.538c-0.5,68.98,16.467,118.25,30.786,147.433c13.852,28.219,27.824,43.423,30.659,46.359
			c10.421,3.574,127.246,42.166,192.168,0.102c67.471-43.72,65.395-192.354,65.364-193.853c-0.036-1.938,1.506-3.542,3.446-3.579
			c1.885-0.141,3.544,1.502,3.581,3.444c0.007,0.384,0.655,38.747-7.317,82.145c-10.804,58.789-31.408,98.405-61.253,117.743
			C314.861,358.246,288.449,368.747,246.374,368.747z"/>
	</g>
	<g>
		<ellipse fill="#E1B465" cx="232.632" cy="147.987" rx="163.012" ry="16.004"/>
		<path fill="#3C2517" d="M232.631,167.505c-43.654,0-84.711-1.667-115.613-4.706c-50.912-4.996-50.912-11.143-50.912-14.812
			c0-3.673,0-9.817,50.912-14.816c30.902-3.035,71.959-4.703,115.613-4.703c43.656,0,84.712,1.667,115.61,4.703
			c50.916,4.999,50.916,11.143,50.916,14.816c0,3.669,0,9.816-50.916,14.812C317.343,165.837,276.287,167.505,232.631,167.505z
			 M74.1,147.987c9.908,5.516,66.906,12.49,158.531,12.49c91.622,0,148.625-6.974,158.529-12.49
			c-9.912-5.516-66.915-12.49-158.529-12.49C141.014,135.497,84.011,142.471,74.1,147.987z"/>
	</g>
	<g>
		<path fill="#3C2517" d="M158.871,305.361c-0.722,0-1.451-0.269-2.02-0.805c-14.164-13.451-25.358-36.664-33.264-68.982
			c-5.841-23.883-7.615-44.182-7.637-44.384c-0.135-1.614,1.061-3.032,2.674-3.17c1.613-0.131,3.024,1.057,3.167,2.67
			c0.067,0.79,7.126,79.267,39.098,109.619c1.171,1.116,1.219,2.971,0.104,4.143C160.417,305.055,159.647,305.361,158.871,305.361z"
			/>
	</g>
	<g>
		<path fill="#E48B69" d="M176.962,346.359c-46.086-0.916-93.748-3.277-139.111-7.93c0,0,24.025,61.098,142.362,75.156
			c54.34,5.227,104.827-0.445,104.827-0.445c122.914-16.11,142.361-75.16,142.361-75.16c-45.366,4.654-93.025,7.016-139.11,7.934
			L176.962,346.359z"/>
		<path fill="#3C2517" d="M229.013,419.312c-17.23,0-33.761-0.746-49.135-2.225c-119.134-14.158-144.289-74.8-145.299-77.373
			c-0.448-1.145-0.27-2.438,0.47-3.412c0.742-0.977,1.938-1.482,3.159-1.371c41.373,4.239,88.081,6.903,138.825,7.914l111.24-0.445
			c50.715-1.012,97.418-3.674,138.767-7.914c1.206-0.11,2.355,0.365,3.104,1.293c0.741,0.929,0.969,2.171,0.598,3.302
			c-0.82,2.495-21.562,61.334-145.244,77.544C285.188,416.66,261.2,419.312,229.013,419.312z M44.055,342.579
			c9.23,14.968,42.825,56.374,136.577,67.521c15.068,1.448,31.374,2.186,48.381,2.186c31.799,0,55.396-2.61,55.631-2.635
			c97.304-12.756,128.619-53.072,136.866-67.549c-39.968,3.899-84.729,6.36-133.149,7.325l-111.385,0.446
			C128.624,348.915,83.97,346.46,44.055,342.579z"/>
	</g>
</g>
</svg>
