<?xml version="1.0" encoding="utf-8"?>
<!-- Generator: Adobe Illustrator 16.0.0, SVG Export Plug-In . SVG Version: 6.00 Build 0)  -->
<!DOCTYPE svg PUBLIC "-//W3C//DTD SVG 1.1//EN" "http://www.w3.org/Graphics/SVG/1.1/DTD/svg11.dtd">
<svg version="1.1" id="Layer_1" xmlns="http://www.w3.org/2000/svg" xmlns:xlink="http://www.w3.org/1999/xlink" x="0px" y="0px"
	 width="500px" height="500px" viewBox="0 0 500 500" enable-background="new 0 0 500 500" xml:space="preserve">
<g id="Layer_1_copy_6">
	<g>
		<path fill="#58605E" d="M450,297.366c0,2.979-2.666,5.397-5.955,5.397H67.396c-3.294,0-5.959-2.42-5.959-5.397V61.38
			c0-2.985,2.665-5.403,5.959-5.403h376.648c3.289,0,5.955,2.418,5.955,5.403L450,297.366L450,297.366z"/>
		<path fill="#010101" d="M444.045,305.918H67.396c-5.023,0-9.105-3.841-9.105-8.553V61.38c0-4.716,4.082-8.551,9.105-8.551h376.648
			c5.021,0,9.105,3.835,9.105,8.551v235.985C453.15,302.078,449.064,305.918,444.045,305.918z M67.396,59.128
			c-1.55,0-2.804,1.011-2.804,2.252v235.985c0,1.218,1.284,2.252,2.804,2.252h376.648c1.524,0,2.806-1.034,2.806-2.252V61.38
			c0-1.22-1.28-2.252-2.806-2.252H67.396z"/>
	</g>
	<g>
		<path fill="#FFFFFF" d="M401.694,117.937H111.848c-1.74,0-3.149-1.411-3.149-3.15c0-1.741,1.409-3.151,3.149-3.151h289.847
			c1.738,0,3.149,1.41,3.149,3.151C404.845,116.526,403.434,117.937,401.694,117.937z"/>
	</g>
	<g>
		<path fill="#FFFFFF" d="M384.892,141.716H129.7c-1.529,0-2.773-1.244-2.773-2.774c0-1.534,1.244-2.777,2.773-2.777h255.19
			c1.535,0,2.772,1.243,2.772,2.777C387.664,140.472,386.427,141.716,384.892,141.716z"/>
	</g>
	<g>
		<path fill="#2C1D13" d="M249.979,30.485c0,0,100.27-14.841,114.086,80.321c13.812,95.156-9.21,195.437-9.21,195.437
			s5.118,9.715-34.275,4.088c-39.396-5.623-167.806,1.753-167.806,1.753s-20.465-135.787,7.671-231.463
			C173.744,37.648,249.979,30.485,249.979,30.485z"/>
	</g>
	<g>
		<path fill="#FCC393" d="M223.4,268.577c0,0,1.6,20.149-9.305,26.546c-10.898,6.396-17.325,84.625-17.325,84.625l131.229,23.789
			l-14.319-85.84l-15.724-26.346c0,0-5.197-8.468-2.276-22.774C298.607,254.26,223.298,257.074,223.4,268.577z"/>
		<path fill="#281912" d="M328.959,404.511l-1.103-0.194l-131.928-23.92l0.059-0.715c0.261-3.214,6.587-78.712,17.711-85.238
			c10.351-6.069,8.936-25.611,8.919-25.809c-0.013-1.089,0.441-2.076,1.349-2.996c4.924-4.964,23.654-7.56,39.615-7.56
			c6.187,0,26.767,0.483,31.836,6.694c0.979,1.192,1.329,2.531,1.037,3.959c-2.825,13.844,2.121,22.125,2.172,22.205l15.828,26.629
			L328.959,404.511z M197.615,379.1l129.419,23.463l-14.108-84.594l-15.646-26.215c-0.213-0.352-5.319-8.893-2.37-23.338
			c0.196-0.951-0.034-1.82-0.709-2.646c-3.077-3.772-14.81-6.121-30.618-6.121c-17.935,0-34.486,3.059-38.494,7.103
			c-0.612,0.614-0.903,1.21-0.898,1.817c0.065,0.787,1.504,20.662-9.694,27.229C205.938,300.828,199.478,356.936,197.615,379.1z"/>
	</g>
	<g>
		<g>
			<path fill="#FCC393" d="M356.14,165.885c-1.091,0-2.146,0.226-3.157,0.558c-8.676-42.408-46.97-74.368-92.934-74.368
				c-47.165,0-86.166,33.688-93.454,77.764c-1.739-1.119-3.663-1.792-5.714-1.792c-7.396,0-13.394,8.081-13.394,18.033
				c0,9.96,5.997,18.041,13.394,18.041c2.202,0,4.27-0.795,6.103-2.079c8.332,42.83,46.802,75.24,93.065,75.24
				c46.468,0,85.048-32.689,93.154-75.798c0.948,0.291,1.925,0.468,2.937,0.468c7.396,0,13.396-8.077,13.396-18.029
				C369.534,173.958,363.536,165.885,356.14,165.885z"/>
		</g>
		<g>
			<path fill="#281912" d="M260.049,280.432c-45.547,0-84.963-30.788-95.288-73.777c-1.268,0.407-2.565,0.612-3.88,0.612
				c-9.124,0-16.544-9.505-16.544-21.188c0-11.679,7.42-21.183,16.544-21.183c1.133,0,2.248,0.151,3.35,0.451
				c9.297-44.52,48.951-76.421,95.818-76.421c45.454,0,85.044,30.868,95.34,73.833c0.25-0.017,0.505-0.025,0.751-0.025
				c9.123,0,16.544,9.501,16.544,21.188c0,11.875-7.748,21.544-17.003,21.175C345.946,248.936,306.225,280.432,260.049,280.432z
				 M169.149,196.68l0.927,4.762c8.194,42.116,46.035,72.688,89.973,72.688c44.204,0,82.079-30.798,90.058-73.23l0.647-3.446
				l3.359,1.017c0.738,0.217,1.402,0.329,2.025,0.329c5.551,0,10.245-6.813,10.245-14.878c0-8.069-4.694-14.887-10.245-14.887
				c-0.639,0-1.353,0.132-2.178,0.402l-3.359,1.1l-0.704-3.462c-8.521-41.631-46.306-71.847-89.85-71.847
				c-45.152,0-83.149,31.594-90.34,75.121l-0.78,4.717l-4.028-2.576c-6.939-4.434-14.263,3.594-14.263,13.59
				c0,10.14,7.549,18.279,14.537,13.386L169.149,196.68z"/>
		</g>
	</g>
	<g>
		<path fill="#141211" d="M225.932,183.91c0,7.207-4.672,13.048-10.432,13.048c-5.756,0-10.428-5.842-10.428-13.048
			c0-7.2,4.672-13.045,10.428-13.045C221.26,170.865,225.932,176.71,225.932,183.91z"/>
	</g>
	<g>
		<path fill="#FFFFFA" d="M217.657,183.922c0,2.502-1.883,4.532-4.21,4.532c-2.324,0-4.206-2.03-4.206-4.532
			c0-2.519,1.882-4.545,4.206-4.545C215.774,179.376,217.657,181.403,217.657,183.922z"/>
	</g>
	<g>
		<path fill="#141211" d="M310.914,183.91c0,7.207-4.668,13.048-10.424,13.048c-5.764,0-10.436-5.842-10.436-13.048
			c0-7.2,4.672-13.045,10.436-13.045C306.246,170.865,310.914,176.71,310.914,183.91z"/>
	</g>
	<g>
		<path fill="#FFFFFA" d="M302.645,183.922c0,2.502-1.887,4.532-4.202,4.532c-2.333,0-4.21-2.03-4.21-4.532
			c0-2.519,1.877-4.545,4.21-4.545C300.758,179.376,302.645,181.403,302.645,183.922z"/>
	</g>
	<g>
		<path fill="#834C1F" d="M250.096,207.697c0,0,13.748,2.042,15.642-5.632c1.9-7.671,0-22.689,0-22.689s8.525,11.437,4.263,25.252
			C265.736,218.437,243.538,207.579,250.096,207.697z"/>
	</g>
	<g opacity="0.7">
		<g>
			<path fill="#F9A880" d="M217.657,212.559c0,4.668-5.886,8.442-13.167,8.442c-7.264,0-13.161-3.774-13.161-8.442
				c0-4.664,5.897-8.438,13.161-8.438C211.771,204.12,217.657,207.895,217.657,212.559z"/>
		</g>
	</g>
	<g opacity="0.7">
		<g>
			<path fill="#F9A880" d="M331.512,211.644c0,4.665-5.896,8.446-13.165,8.446c-7.269,0-13.168-3.781-13.168-8.446
				c0-4.66,5.899-8.434,13.168-8.434C325.616,203.21,331.512,206.984,331.512,211.644z"/>
		</g>
	</g>
	<g>
		<path fill="#FFFFFF" d="M232.088,224.578c0,0,6.161,24.051,27.961,23.025c21.803-1.025,30.006-23.025,30.006-23.025
			s-9.623,11.527-30.006,11.527C239.115,236.105,232.088,224.578,232.088,224.578z"/>
	</g>
	<g>
		<path fill="#301E12" d="M200.543,168.945c0,0,4.738-6.653,13.743-5.886c9.009,0.768,9.952,2.56,10.428-2.301
			c0.471-4.861-3.795-5.882-10.428-5.115C207.657,156.41,194.857,170.487,200.543,168.945z"/>
	</g>
	<g>
		<path fill="#301E12" d="M316.571,168.945c0,0-4.738-6.653-13.742-5.886c-9.006,0.768-9.952,2.56-10.429-2.301
			c-0.471-4.861,3.8-5.882,10.429-5.115C309.468,156.41,322.261,170.487,316.571,168.945z"/>
	</g>
	<g>
		<path fill="#E474AD" d="M211.938,299.417c0,0-11.702,50.563,41.505,48.864c59.972-1.918,45.51-31.967,47.047-52.686
			c0,0-5.492-1.033,44.39,10.479c49.883,11.512,65.999,25.324,73.674,121.249c3.839,27.633-37.604,20.722-37.604,20.722
			L132.31,449.7c0,0-35.303,8.324-27.629-30.813C112.353,379.748,107.545,300.384,211.938,299.417z"/>
		<path fill="#281912" d="M124.958,453.59c-8.475,0-15.182-2.706-19.402-7.832c-5.014-6.097-6.346-15.341-3.967-27.482
			c0.98-5.01,1.769-10.791,2.604-16.91c5.657-41.504,14.202-104.234,107.712-105.1c0.01,0,0.021,0,0.033,0
			c0.948,0,1.851,0.432,2.449,1.178c0.607,0.75,0.833,1.738,0.619,2.679c-0.049,0.2-4.524,20.479,5.915,33.581
			c6.067,7.613,16.142,11.471,29.938,11.471c0.812,0,1.638-0.015,2.486-0.044c19.771-0.626,32.495-4.34,38.903-11.337
			c6.379-6.977,5.817-16.885,5.274-26.477c-0.209-3.649-0.422-7.418-0.242-10.965c-0.114-0.394-0.15-0.81-0.094-1.222
			c0.226-1.556,1.566-2.707,3.135-2.707c0.194,0,0.557,0.041,0.751,0.077c0.254,0.049,0.501,0.126,0.725,0.229
			c1.938,0.515,10.157,2.515,43.786,10.276c53.061,12.243,68.506,29.063,76.105,124.071c0.91,6.529-0.472,12.072-4.139,16.279
			c-6.193,7.115-17.557,8.606-25.999,8.606c-5.41,0-9.713-0.599-10.838-0.764l-248.062,1.646
			C131.632,453.055,128.671,453.59,124.958,453.59z M208.197,302.637c-84.515,2.396-92.157,58.471-97.761,99.584
			c-0.849,6.215-1.648,12.08-2.666,17.272c-1.999,10.197-1.107,17.688,2.65,22.262c3.769,4.572,9.983,5.533,14.537,5.533
			c3.75,0,6.604-0.648,6.633-0.656c0.226-0.055,0.465-0.082,0.697-0.082l248.641-1.653c0.152,0.012,0.361,0.012,0.539,0.04
			c0.045,0.012,4.45,0.729,10.086,0.729c7.133,0,16.613-1.116,21.245-6.441c2.451-2.812,3.311-6.566,2.632-11.464
			c-7.686-96.033-23.705-107.639-71.26-118.613c-20.434-4.717-34.224-7.938-40.653-9.496c0.018,2.33,0.153,4.775,0.297,7.312
			c0.587,10.386,1.255,22.156-6.915,31.086c-7.614,8.313-21.791,12.694-43.354,13.384c-0.919,0.028-1.809,0.047-2.688,0.047
			c-15.829,0-27.563-4.674-34.892-13.883C206.569,325.771,207.251,309.917,208.197,302.637z"/>
	</g>
	<g>
		<path fill="#2C1D13" d="M350.556,172.711c0,0-51.751-47.576-56.294-73.161c0,0-60.036,56.699-131.521,57.257
			c0,0,7.551-88.463,88.297-80.787C331.79,83.695,357.379,114.904,350.556,172.711z"/>
	</g>
	<g>
		<path fill="#F6FAF2" d="M200.052,95.013c0,0,51.437-23.197,119.694,2.004l9.446-42.453c0,0-68.796-49.262-146.945,0
			L200.052,95.013z"/>
		<path fill="#281912" d="M319.746,100.169c-0.373,0-0.738-0.065-1.091-0.194c-20.763-7.665-42.034-11.552-63.23-11.552
			c-32.61,0-53.873,9.367-54.081,9.464c-0.767,0.344-1.642,0.367-2.426,0.065c-0.779-0.301-1.409-0.902-1.75-1.669l-17.804-40.449
			c-0.628-1.428-0.119-3.101,1.206-3.934c23.559-14.85,48.622-22.379,74.506-22.379c44.04,0,74.666,21.564,75.95,22.481
			c1.025,0.736,1.514,2.014,1.239,3.247l-9.448,42.453c-0.195,0.889-0.771,1.646-1.566,2.081
			C320.784,100.041,320.263,100.169,319.746,100.169z M255.425,82.122c20.789,0,41.642,3.606,62.021,10.724l8.2-36.85
			c-6.942-4.408-34.314-20.174-70.569-20.174c-23.833,0-46.98,6.719-68.841,19.98l15.473,35.146
			C208.797,88.285,228.151,82.122,255.425,82.122z"/>
	</g>
	<g>
		<polygon fill="#E92629" points="271.757,53.58 260.471,53.58 260.471,42.295 250.968,42.295 250.968,53.58 239.682,53.58 
			239.682,63.084 250.968,63.084 250.968,74.37 260.471,74.37 260.471,63.084 271.757,63.084 		"/>
	</g>
	<g>
		<path fill="#9DC495" d="M267.505,380.967c0,4.094-3.321,7.407-7.407,7.407l0,0c-4.084,0-7.396-3.313-7.396-7.407l0,0
			c0-4.084,3.312-7.396,7.396-7.396l0,0C264.184,373.57,267.505,376.883,267.505,380.967L267.505,380.967z"/>
		<path fill="#281912" d="M260.098,390.996c-5.529,0-10.024-4.5-10.024-10.028c0-5.526,4.495-10.024,10.024-10.024
			s10.034,4.498,10.034,10.024C270.132,386.496,265.627,390.996,260.098,390.996z M260.098,376.189c-2.63,0-4.774,2.144-4.774,4.777
			c0,2.639,2.146,4.776,4.774,4.776c2.637,0,4.78-2.14,4.78-4.776C264.878,378.333,262.734,376.189,260.098,376.189z"/>
	</g>
	<g>
		<rect x="318.34" y="398.458" fill="#9DC495" width="42.311" height="10.157"/>
		<path fill="#281912" d="M360.649,411.243h-42.311c-1.448,0-2.623-1.179-2.623-2.628v-10.157c0-1.454,1.175-2.631,2.623-2.631
			h42.311c1.45,0,2.624,1.177,2.624,2.631v10.157C363.273,410.064,362.101,411.243,360.649,411.243z M320.969,405.988h37.056v-4.908
			h-37.056V405.988z"/>
	</g>
	<g>
		<path fill="#B8E3EA" d="M163.936,449.955c0,0,0.657-61.18,51.564-86.258c50.914-25.08,89.072-2.249,86.197-65.969
			c0,0,81.381,4.953,87.674,33.471c0,0-6.71,100.834-37.662,116.562L163.936,449.955z"/>
		<path fill="#281912" d="M160.749,453.141l0.033-3.223c0.007-0.628,1.283-63.406,53.326-89.048
			c16.804-8.279,32.513-11.509,45.136-14.097c26.521-5.448,41.129-8.449,39.307-48.906l-0.16-3.497l3.495,0.212
			c8.573,0.521,83.945,5.968,90.566,35.939l0.094,0.439l-0.027,0.451c-0.021,0.252-1.758,25.729-7.281,52.801
			c-7.565,37.051-18.366,59.373-32.1,66.353l-0.656,0.336L160.749,453.141z M304.962,301.118
			c0.918,42.511-18.222,46.442-44.45,51.827c-12.909,2.652-27.541,5.656-43.622,13.576c-42.018,20.705-48.605,67.543-49.622,80.242
			l183.639-2.146c23.495-13.11,33.394-85.483,35.294-113.154C381.062,311.325,328.848,303.027,304.962,301.118z"/>
	</g>
	<g>
		<path fill="#2C1D13" d="M338.55,121.459c9.563-39.177,32.896-4.713,11.828-41.983c-17.067-30.177-44.854-51.309-93.599-50.728
			c-42.802,0.517-81.088,21.418-98.742,54.08c-16.474,30.466-21.34,62.46-17.466,94.583c6.916,57.314-0.397,113.746-10.719,170.459
			c-7.352,40.394,2.419,80.204,21.407,118.51c3.652,7.364,2.959,21.896,15.654,22.613c12.705,0.723,20.912-46.947,30.814-69.198
			c0.907-0.012-0.123,22.571,11.188,23.493c11.31,0.918,46.405-31.331,55.349-54.979c8.205-21.726,4.495-42.562-8.007-62.483
			c-10.711-17.074-23.392-33.466-35.017-50.228c-29.998-43.23-49.847-88.182-42.67-140.064c21.512,0,95.973-31.379,112.225-43.459"
			/>
	</g>
	<g>
		<g>
			<g>
				<ellipse fill="#FAA625" cx="330.513" cy="287.957" rx="10.089" ry="17.904"/>
			</g>
			<g>
				<path fill="#27140E" d="M330.514,306.125c-5.706,0-10.351-8.152-10.351-18.168s4.645-18.165,10.351-18.165
					c5.707,0,10.352,8.149,10.352,18.165S336.221,306.125,330.514,306.125z M330.514,270.312c-5.418,0-9.828,7.912-9.828,17.645
					c0,9.729,4.41,17.641,9.828,17.641c5.419,0,9.824-7.912,9.824-17.641C340.338,278.225,335.933,270.312,330.514,270.312z"/>
			</g>
		</g>
		<g>
			<g>
				<path fill="#6D7EBE" d="M320.066,338.08c0-12.76,0-25.516,0-38.271c7.166,0,14.336,0,21.503,0c0,12.283,0,25.692,0,37.979
					L320.066,338.08z"/>
			</g>
			<g>
				<path fill="#27140E" d="M320.066,339.904c-0.481,0-0.939-0.188-1.285-0.528c-0.344-0.341-0.54-0.81-0.54-1.296v-38.271
					c0-1.011,0.814-1.83,1.825-1.83h21.503c1.009,0,1.824,0.819,1.824,1.83v37.979c0,0.997-0.801,1.812-1.797,1.825l-21.507,0.291
					C320.082,339.904,320.074,339.904,320.066,339.904z M321.892,301.628v34.601l17.856-0.242v-34.357L321.892,301.628
					L321.892,301.628z"/>
			</g>
		</g>
		<g>
			<g>
				<rect x="235.3" y="364.631" fill="#894620" width="191.15" height="68.703"/>
			</g>
			<g>
				<path fill="#27140E" d="M426.45,435.164H235.3c-1.009,0-1.825-0.82-1.825-1.829v-68.703c0-1.005,0.816-1.825,1.825-1.825h191.15
					c1.009,0,1.83,0.82,1.83,1.825v68.703C428.28,434.343,427.459,435.164,426.45,435.164z M237.126,431.512h187.498v-65.054
					H237.126V431.512z"/>
			</g>
		</g>
		<g>
			<g>
				<path fill="#F0516C" d="M255.434,337.96c-13.304-0.567-26.543-1.062-29.864,8.358c0,6.339,0,14.022,0,21.505
					c0,7.155-1.666,15.774,3.536,18.553c7.345,2.812,19.408-12.094,23.936-12.576c18.246-1.94,25.304,14.349,38.231,14.331
					c8.103-0.007,17.942-10.57,28.675-13.139c24.199-5.797,34.474,14.027,51.37,13.139c11.929-0.622,22.023-14.261,33.451-14.331
					c12.554-0.077,23.316,16.731,31.062,14.331c7.745-2.39,6.966-44.947-8.36-50.171C421.605,335.959,255.434,337.96,255.434,337.96
					z"/>
			</g>
			<g>
				<path fill="#27140E" d="M434.249,390.195L434.249,390.195c-3.988,0-8.013-3.004-12.673-6.478
					c-5.091-3.794-10.857-8.094-16.725-8.094h-0.068c-5.234,0.028-10.313,3.293-15.695,6.751
					c-5.547,3.562-11.276,7.245-17.676,7.584c-7.65,0.396-13.842-3.046-20.396-6.701c-6.619-3.688-13.467-7.501-22.421-7.501
					c-2.646,0-5.414,0.341-8.22,1.009c-4.802,1.153-9.498,4.045-14.033,6.847c-5.288,3.261-10.287,6.342-15.068,6.35
					c-6.26,0-11.059-3.313-16.133-6.827c-5.457-3.771-11.102-7.675-19.125-7.675c-0.906,0-1.842,0.056-2.779,0.153
					c-1.17,0.129-4.234,2.58-6.698,4.557c-4.899,3.932-10.453,8.387-15.438,8.387c-0.936,0-1.825-0.162-2.645-0.474
					c-0.073-0.028-0.14-0.062-0.21-0.093c-5.201-2.777-4.91-9.477-4.627-15.949c0.061-1.406,0.122-2.865,0.122-4.217V346.32
					c0-0.206,0.037-0.41,0.108-0.606c3.055-8.669,13.068-9.838,22.459-9.838c3.059,0,6.292,0.138,9.154,0.258
					c2.277-0.028,74.945-0.89,124.798-0.89c44.906,0,46.934,0.693,47.802,0.988c10.202,3.479,14.62,20.998,14.408,35.811
					c-0.069,4.821-0.806,16.199-6.097,17.833C435.695,390.085,434.981,390.195,434.249,390.195z M404.853,371.975
					c7.076,0,13.36,4.686,18.902,8.813c3.972,2.958,7.717,5.756,10.494,5.756l0,0c0.373,0,0.712-0.049,1.045-0.153
					c1.383-0.427,3.389-5.178,3.525-14.398c0.101-7.062-0.949-14.445-2.882-20.258c-1.53-4.612-4.345-10.443-9.057-12.047
					c-1.066-0.291-8.584-0.793-46.622-0.793c-50.378,0-124.065,0.879-124.805,0.893c-0.03,0-0.067,0-0.101-0.007
					c-2.834-0.117-6.051-0.253-9.047-0.253c-11.291,0-16.979,2.133-18.915,7.121v21.176c0,1.435-0.065,2.928-0.128,4.372
					c-0.243,5.532-0.468,10.759,2.601,12.511c0.374,0.132,0.784,0.195,1.234,0.195c3.701,0,8.947-4.203,13.155-7.584
					c3.557-2.848,6.362-5.098,8.599-5.336c1.062-0.109,2.127-0.17,3.162-0.17c9.16,0,15.557,4.425,21.2,8.32
					c4.794,3.312,8.935,6.174,14.041,6.174c3.763-0.004,8.328-2.818,13.169-5.799c4.778-2.955,9.729-6.003,15.094-7.292
					c3.09-0.737,6.142-1.112,9.075-1.112c9.905,0,17.5,4.236,24.202,7.975c5.78,3.218,11.238,6.258,17.414,6.258
					c0.335,0,0.672-0.009,1.013-0.023c5.433-0.282,10.747-3.7,15.893-7.004c5.579-3.586,11.354-7.302,17.645-7.334H404.853
					L404.853,371.975z"/>
			</g>
		</g>
		<g>
			<g>
				<path fill="#623214" d="M426.45,397.773c0,14.33,0,28.668,0,43.008c6.251,1.718,13.944,1.979,17.923,5.971
					c2.304,4.463,2.85,10.689,2.391,17.922c-77.259,0-154.517,0-231.771,0c-2.203-16.539,4.447-24.228,20.309-22.701
					c0-15.132,0-30.26,0-45.397c9.796-4.632,15.385-7.347,25.09-5.974c10.033,1.418,17.717,10.18,27.479,10.752
					c15.333,0.906,29.105-12.242,45.394-10.752c16.045,1.465,21.408,12.241,39.426,10.752
					C389.571,399.959,407.859,380.678,426.45,397.773z"/>
			</g>
			<g>
				<path fill="#27140E" d="M446.764,466.495H214.991c-0.918,0-1.689-0.677-1.81-1.583c-1.163-8.759,0.103-15.321,3.766-19.502
					c3.163-3.618,8.077-5.451,14.598-5.451c0.622,0,1.266,0.015,1.93,0.05v-43.435c0-0.705,0.407-1.346,1.045-1.647l0.354-0.17
					c8.074-3.815,13.407-6.336,20.726-6.336c1.611,0,3.265,0.121,5.045,0.371c5.155,0.729,9.633,3.215,13.963,5.621
					c4.479,2.493,8.713,4.846,13.369,5.114c0.463,0.029,0.942,0.045,1.42,0.045c6.514,0,12.781-2.533,19.419-5.223
					c6.924-2.797,14.077-5.691,21.844-5.691c0.933,0,1.863,0.044,2.772,0.121c7.4,0.682,12.599,3.228,17.618,5.697
					c5.438,2.668,10.575,5.19,18.316,5.19l0,0c1.024,0,2.096-0.047,3.175-0.132c5.145-0.432,10.489-2.631,16.146-4.963
					c6.743-2.782,13.717-5.657,20.937-5.657c6.657,0,12.565,2.457,18.062,7.511c0.376,0.346,0.595,0.834,0.595,1.348v41.588
					c1.304,0.31,2.669,0.58,4.007,0.843c4.979,0.976,10.124,1.989,13.377,5.26c0.132,0.133,0.245,0.282,0.328,0.452
					c2.272,4.393,3.122,10.566,2.593,18.872C448.52,465.749,447.724,466.495,446.764,466.495z M216.615,462.843h228.413
					c0.273-6.587-0.431-11.506-2.149-14.997c-2.507-2.33-6.975-3.212-11.297-4.06c-1.868-0.366-3.8-0.749-5.612-1.247
					c-0.796-0.221-1.346-0.938-1.346-1.759v-42.197c-4.619-4.048-9.533-6.017-15.001-6.017c-6.493,0-13.13,2.735-19.547,5.382
					c-5.665,2.338-11.521,4.751-17.237,5.221c-1.18,0.103-2.346,0.149-3.474,0.149l0,0c-8.59,0-14.354-2.827-19.928-5.565
					c-4.938-2.429-9.611-4.719-16.339-5.336c-0.801-0.071-1.621-0.11-2.441-0.11c-7.051,0-13.876,2.762-20.478,5.428
					c-6.668,2.697-13.562,5.488-20.785,5.488c-0.552,0-1.097-0.015-1.637-0.048c-5.484-0.325-10.285-2.991-14.928-5.573
					c-4.221-2.346-8.209-4.559-12.696-5.19c-1.612-0.229-3.097-0.345-4.536-0.345c-6.303,0-11.229,2.24-18.473,5.666v44.239
					c0,0.515-0.221,1.006-0.599,1.354c-0.383,0.343-0.89,0.511-1.398,0.463c-7.277-0.7-12.488,0.652-15.437,4.026
					C216.96,450.932,215.927,455.986,216.615,462.843z"/>
			</g>
		</g>
		<g>
			<g>
				<path fill="#4E4E4E" d="M235.44,441.972c-15.859-1.525-22.505,6.162-20.306,22.701c77.255,0,154.514,0,231.77,0
					c0.463-7.231-0.078-13.459-2.389-17.922c-3.976-3.992-11.675-4.253-17.922-5.971L235.44,441.972z"/>
			</g>
			<g>
				<path fill="#27140E" d="M446.903,466.495H215.135c-0.915,0-1.69-0.677-1.813-1.583c-1.165-8.759,0.103-15.321,3.769-19.502
					c3.756-4.295,9.937-6.062,18.432-5.262l191.06-1.195c0.177-0.003,0.332,0.021,0.496,0.065c1.688,0.464,3.553,0.828,5.354,1.186
					c4.98,0.976,10.128,1.989,13.376,5.26c0.133,0.135,0.243,0.282,0.329,0.452c2.273,4.393,3.122,10.566,2.589,18.872
					C448.662,465.749,447.865,466.495,446.903,466.495z M216.755,462.843h228.422c0.271-6.587-0.435-11.511-2.149-14.997
					c-2.508-2.33-6.976-3.212-11.302-4.065c-1.785-0.348-3.622-0.709-5.369-1.177l-190.902,1.192c-0.062,0-0.12,0-0.185-0.007
					c-7.274-0.7-12.482,0.652-15.432,4.026C217.104,450.932,216.064,455.986,216.755,462.843z"/>
			</g>
		</g>
		<g>
			<g>
				<path fill="#FDD71E" d="M328.11,247.32c15.342,7.28,35.257,41.891,8.362,50.177c8.054-6.743-0.075-19.009-5.971-22.696
					c-1.286,5.885-6.404,7.93-8.365,13.139c-0.918,5.697,1.687,7.873,4.779,9.559c-9.685,0.064-16.416-9.848-15.534-19.116
					C312.519,266.497,330.522,260.504,328.11,247.32z"/>
			</g>
			<g>
				<path fill="#27140E" d="M326.829,299.327c-4.527,0-8.811-1.97-12.057-5.538c-3.792-4.169-5.736-9.998-5.203-15.58
					c0.571-5.996,4.818-10.469,8.926-14.792c4.615-4.864,8.975-9.455,7.819-15.769c-0.124-0.673,0.143-1.357,0.686-1.772
					c0.544-0.423,1.273-0.497,1.894-0.205c11.061,5.25,23.608,22.89,22.596,36.923c-0.41,5.686-3.253,13.19-14.473,16.648
					c-0.833,0.257-1.728-0.11-2.146-0.871c-0.413-0.764-0.229-1.711,0.432-2.273c2.001-1.675,2.883-3.777,2.697-6.432
					c-0.307-4.488-3.584-9.182-6.573-11.869c-1.035,2.303-2.578,4.025-3.983,5.594c-1.416,1.582-2.753,3.075-3.527,5.023
					c-0.686,4.594,1.26,6.057,3.876,7.482c0.731,0.396,1.1,1.242,0.894,2.045c-0.199,0.809-0.921,1.377-1.754,1.385L326.829,299.327
					L326.829,299.327z M330.129,250.573c-0.39,6.301-4.918,11.065-8.988,15.353c-3.851,4.057-7.484,7.885-7.937,12.631
					c-0.439,4.578,1.155,9.353,4.271,12.774c1.028,1.134,2.187,2.062,3.426,2.762c-0.72-1.638-1.002-3.722-0.562-6.442
					c0.021-0.121,0.053-0.236,0.094-0.351c1.006-2.675,2.676-4.541,4.292-6.342c1.747-1.95,3.396-3.792,3.996-6.548
					c0.126-0.581,0.528-1.062,1.073-1.29c0.551-0.236,1.173-0.183,1.679,0.129c4.652,2.918,9.733,9.754,10.173,16.168
					c0.096,1.39-0.028,2.72-0.369,3.956c4.021-2.543,6.224-6.238,6.571-11.041C348.65,271.169,339.317,256.693,330.129,250.573z"/>
			</g>
		</g>
	</g>
</g>
</svg>
