<?xml version="1.0" encoding="utf-8"?>
<!-- Generator: Adobe Illustrator 16.0.0, SVG Export Plug-In . SVG Version: 6.00 Build 0)  -->
<!DOCTYPE svg PUBLIC "-//W3C//DTD SVG 1.1//EN" "http://www.w3.org/Graphics/SVG/1.1/DTD/svg11.dtd">
<svg version="1.1" id="Layer_1" xmlns="http://www.w3.org/2000/svg" xmlns:xlink="http://www.w3.org/1999/xlink" x="0px" y="0px"
	 width="500px" height="500px" viewBox="0 0 500 500" enable-background="new 0 0 500 500" xml:space="preserve">
<g>
	<path fill="#58605E" d="M425.3,301.549c0,2.764-2.471,5.01-5.521,5.01H70.606c-3.053,0-5.518-2.246-5.518-5.01V82.779
		c0-2.767,2.465-5.009,5.518-5.009h349.171c3.053,0,5.521,2.242,5.521,5.009L425.3,301.549L425.3,301.549z"/>
	<path fill="#010101" d="M419.777,309.479H70.606c-4.653,0-8.438-3.56-8.438-7.931V82.779c0-4.37,3.785-7.929,8.438-7.929h349.171
		c4.655,0,8.443,3.559,8.443,7.929v218.77C428.222,305.92,424.434,309.479,419.777,309.479z M70.606,80.691
		c-1.431,0-2.604,0.94-2.604,2.088v218.77c0,1.131,1.194,2.085,2.604,2.085h349.171c1.413,0,2.604-0.954,2.604-2.085V82.779
		c0-1.13-1.189-2.088-2.604-2.088H70.606z"/>
</g>
<g>
	<path fill="#FFFFFF" d="M380.518,135.211H111.813c-1.609,0-2.917-1.31-2.917-2.92c0-1.616,1.308-2.922,2.917-2.922h268.704
		c1.61,0,2.923,1.306,2.923,2.922C383.439,133.901,382.128,135.211,380.518,135.211z"/>
</g>
<g>
	<path fill="#FFFFFF" d="M364.938,157.256H128.365c-1.421,0-2.57-1.155-2.57-2.571c0-1.422,1.149-2.573,2.57-2.573h236.569
		c1.425,0,2.571,1.15,2.571,2.573C367.508,156.101,366.36,157.256,364.938,157.256z"/>
</g>
<g>
	<path fill="#2C1D13" d="M239.868,54.139c0,0,92.957-13.759,105.765,74.459c12.804,88.215-8.537,181.181-8.537,181.181
		s4.749,9.007-31.779,3.793c-36.521-5.213-155.562,1.623-155.562,1.623s-18.973-125.883,7.11-214.575
		C169.194,60.779,239.868,54.139,239.868,54.139z"/>
</g>
<g>
	<path fill="#FCC393" d="M215.231,274.861c0,0,0.882,22.66-9.225,28.594c-10.106,5.936-15.464,74.465-15.464,74.465l121.653,22.062
		l-13.277-79.586l-14.127-20.504c0,0-5.266-11.767-2.553-25.031C284.953,261.591,215.135,264.198,215.231,274.861z"/>
	<path fill="#281912" d="M313.09,400.882l-1.022-0.184l-122.301-22.177l0.045-0.66c0.229-2.812,5.507-68.981,15.826-75.035
		c9.621-5.645,8.874-27.713,8.866-27.938c-0.011-0.979,0.411-1.9,1.251-2.748c4.562-4.604,21.928-7.013,36.725-7.013
		c5.734,0,24.814,0.448,29.517,6.204c0.907,1.111,1.231,2.348,0.961,3.675c-2.63,12.886,2.454,24.466,2.507,24.585l14.184,20.686
		L313.09,400.882z M191.319,377.32l119.984,21.757l-13.076-78.399l-14.033-20.371c-0.285-0.606-5.391-12.252-2.674-25.593
		c0.184-0.885-0.029-1.688-0.653-2.452c-2.858-3.498-13.734-5.67-28.388-5.67c-16.63,0-31.968,2.826-35.687,6.579
		c-0.568,0.567-0.836,1.121-0.829,1.685c0.034,0.922,0.771,23.149-9.587,29.229C198.445,308.734,192.878,357.889,191.319,377.32z"/>
</g>
<g>
	<g>
		<path fill="#FCC393" d="M338.283,179.665c-1.009,0-1.987,0.207-2.926,0.517c-8.045-39.314-43.543-68.944-86.149-68.944
			c-43.729,0-79.88,31.231-86.639,72.088c-1.614-1.033-3.399-1.656-5.299-1.656c-6.858,0-12.415,7.486-12.415,16.714
			c0,9.236,5.557,16.725,12.415,16.725c2.044,0,3.957-0.732,5.653-1.926c7.729,39.708,43.396,69.75,86.283,69.75
			c43.075,0,78.839-30.306,86.352-70.266c0.878,0.263,1.786,0.431,2.726,0.431c6.857,0,12.42-7.487,12.42-16.717
			C350.703,187.148,345.143,179.665,338.283,179.665z"/>
	</g>
	<g>
		<path fill="#281912" d="M249.208,285.852c-42.227,0-78.771-28.539-88.338-68.396c-1.182,0.381-2.381,0.571-3.6,0.571
			c-8.458,0-15.34-8.813-15.34-19.646c0-10.824,6.882-19.637,15.34-19.637c1.047,0,2.085,0.141,3.105,0.42
			c8.619-41.273,45.383-70.846,88.831-70.846c42.134,0,78.834,28.614,88.381,68.445c0.233-0.016,0.471-0.022,0.694-0.022
			c8.463,0,15.341,8.808,15.341,19.638c0,11.009-7.173,19.975-15.764,19.63C328.839,256.652,292.014,285.852,249.208,285.852z
			 M164.936,208.209l0.862,4.415c7.592,39.048,42.671,67.387,83.41,67.387c40.976,0,76.089-28.552,83.481-67.886l0.603-3.2
			l3.114,0.943c0.685,0.208,1.302,0.312,1.877,0.312c5.146,0,9.497-6.321,9.497-13.8s-4.351-13.796-9.497-13.796
			c-0.592,0-1.253,0.121-2.02,0.37l-3.111,1.022l-0.656-3.211c-7.896-38.594-42.926-66.607-83.288-66.607
			c-41.863,0-77.081,29.288-83.758,69.644l-0.722,4.373l-3.732-2.39c-6.438-4.116-13.222,3.334-13.222,12.598
			c0,9.401,6.996,16.942,13.479,12.406L164.936,208.209z"/>
	</g>
</g>
<g>
	<path fill="#141211" d="M217.578,196.373c0,6.682-4.33,12.101-9.674,12.101c-5.336,0-9.666-5.419-9.666-12.101
		c0-6.677,4.33-12.094,9.666-12.094C213.248,184.278,217.578,189.696,217.578,196.373z"/>
</g>
<g>
	<path fill="#FFFFFA" d="M209.907,196.38c0,2.326-1.745,4.208-3.9,4.208c-2.159,0-3.904-1.883-3.904-4.208
		c0-2.332,1.745-4.213,3.904-4.213C208.162,192.167,209.907,194.049,209.907,196.38z"/>
</g>
<g>
	<path fill="#141211" d="M296.359,196.373c0,6.682-4.33,12.101-9.666,12.101c-5.338,0-9.67-5.419-9.67-12.101
		c0-6.677,4.332-12.094,9.67-12.094C292.029,184.278,296.359,189.696,296.359,196.373z"/>
</g>
<g>
	<path fill="#FFFFFA" d="M288.691,196.38c0,2.326-1.743,4.208-3.898,4.208c-2.156,0-3.898-1.883-3.898-4.208
		c0-2.332,1.742-4.213,3.898-4.213C286.948,192.167,288.691,194.049,288.691,196.38z"/>
</g>
<g>
	<path fill="#834C1F" d="M239.983,218.422c0,0,12.74,1.898,14.498-5.218c1.758-7.116,0-21.037,0-21.037s7.905,10.604,3.953,23.409
		C254.48,228.381,233.897,218.313,239.983,218.422z"/>
</g>
<g opacity="0.7">
	<g>
		<path fill="#F9A880" d="M209.907,222.932c0,4.323-5.458,7.821-12.205,7.821c-6.737,0-12.199-3.498-12.199-7.821
			c0-4.327,5.462-7.826,12.199-7.826C204.449,215.106,209.907,218.605,209.907,222.932z"/>
	</g>
</g>
<g opacity="0.7">
	<g>
		<ellipse fill="#F9A880" cx="303.247" cy="222.085" rx="12.205" ry="7.826"/>
	</g>
</g>
<g>
	<path fill="#FFFFFF" d="M223.283,234.077c0,0,5.717,22.288,25.925,21.341c20.205-0.951,27.815-21.341,27.815-21.341
		s-8.926,10.685-27.815,10.685C229.799,244.76,223.283,234.077,223.283,234.077z"/>
</g>
<g>
	<path fill="#301E12" d="M194.032,182.502c0,0,4.4-6.172,12.747-5.46c8.351,0.714,9.229,2.375,9.671-2.131
		c0.433-4.508-3.517-5.455-9.671-4.744C200.635,170.877,188.771,183.929,194.032,182.502z"/>
</g>
<g>
	<path fill="#301E12" d="M301.602,182.502c0,0-4.39-6.172-12.74-5.46c-8.344,0.714-9.226,2.375-9.66-2.131
		c-0.441-4.508,3.516-5.455,9.66-4.744C295.016,170.877,306.877,183.929,301.602,182.502z"/>
</g>
<g>
	<path fill="#CFCFCE" d="M204.603,303.45c0,0-10.847,46.877,38.479,45.3c55.599-1.773,42.191-29.629,43.611-48.841
		c0,0-5.088-0.957,41.149,9.714c46.247,10.672,61.188,23.482,68.304,112.409c3.558,25.611-34.858,19.208-34.858,19.208
		l-230.505,1.535c0,0-32.729,7.712-25.611-28.574C112.287,377.919,107.823,304.348,204.603,303.45z"/>
	<path fill="#281912" d="M123.971,446.381c-7.857,0-14.077-2.512-17.985-7.264c-4.651-5.648-5.889-14.22-3.684-25.475
		c0.915-4.646,1.644-10.01,2.421-15.677c5.238-38.483,13.162-96.63,99.854-97.438c0.008,0,0.016,0,0.026,0
		c0.885,0,1.723,0.4,2.278,1.093c0.554,0.696,0.766,1.612,0.563,2.481c-0.038,0.188-4.19,18.99,5.489,31.131
		c5.626,7.06,14.958,10.639,27.748,10.639c0.759,0,1.521-0.016,2.306-0.042c18.332-0.583,30.128-4.024,36.07-10.513
		c5.908-6.463,5.392-15.653,4.891-24.543c-0.194-3.383-0.393-6.875-0.225-10.164c-0.109-0.361-0.139-0.752-0.087-1.139
		c0.21-1.438,1.449-2.509,2.903-2.509c0.179,0,0.516,0.041,0.693,0.073c0.238,0.046,0.463,0.117,0.678,0.215
		c1.793,0.473,9.415,2.329,40.59,9.521c49.19,11.354,63.509,26.946,70.551,115.021c0.849,6.06-0.438,11.196-3.834,15.104
		c-5.742,6.59-16.273,7.973-24.103,7.973c-5.019,0-9.005-0.55-10.052-0.71L131.1,445.686
		C130.155,445.885,127.412,446.381,123.971,446.381z M201.136,306.436c-78.349,2.222-85.44,54.211-90.63,92.319
		c-0.784,5.757-1.524,11.196-2.467,16.009c-1.856,9.465-1.03,16.406,2.459,20.641c3.484,4.245,9.252,5.13,13.473,5.13
		c3.472,0,6.12-0.6,6.146-0.605c0.213-0.047,0.43-0.073,0.646-0.077l230.501-1.531c0.139,0.02,0.333,0.017,0.505,0.041
		c0.033,0.004,4.12,0.673,9.35,0.673c6.607,0,15.398-1.035,19.691-5.972c2.271-2.61,3.071-6.087,2.439-10.63
		c-7.124-89.028-21.977-99.788-66.061-109.96c-18.941-4.375-31.729-7.354-37.688-8.802c0.017,2.156,0.144,4.427,0.272,6.776
		c0.545,9.627,1.162,20.535-6.412,28.814c-7.057,7.713-20.203,11.77-40.189,12.409c-0.847,0.024-1.673,0.041-2.491,0.041
		c-14.672,0-25.553-4.33-32.341-12.866C199.63,327.889,200.257,313.189,201.136,306.436z"/>
</g>
<g>
	<path fill="#5A5658" d="M129.714,442.775c0,0-32.727,7.715-25.615-28.57c7.121-36.282,2.66-109.854,99.436-110.75
		c0,0-2.237,20.98,5.429,31.236c7.674,10.26,42.41,107.28,42.41,107.28L129.714,442.775z"/>
	<path fill="#281912" d="M122.903,446.381c-7.857,0-14.077-2.512-17.986-7.264c-4.647-5.648-5.886-14.22-3.681-25.475
		c0.915-4.646,1.645-10.006,2.413-15.674c5.247-38.48,13.171-96.633,99.858-97.438c0.841,0.031,1.629,0.34,2.192,0.957
		c0.553,0.619,0.825,1.443,0.736,2.271c-0.016,0.197-2.015,19.979,4.867,29.181c7.839,10.486,41.39,104.064,42.813,108.038
		c0.32,0.897,0.187,1.889-0.354,2.66c-0.548,0.778-1.429,1.241-2.373,1.249l-121.354,0.799
		C129.09,445.887,126.347,446.381,122.903,446.381z M200.396,306.432c-78.662,2.077-85.758,54.162-90.954,92.323
		c-0.784,5.757-1.531,11.196-2.47,16.015c-1.857,9.459-1.032,16.4,2.458,20.638c3.489,4.242,9.251,5.13,13.474,5.13
		c3.476,0,6.122-0.603,6.149-0.608c0.205-0.044,0.43-0.069,0.646-0.073l117.529-0.78c-10.547-29.28-34.8-94.873-40.604-102.632
		C200.193,327.846,200.085,313.018,200.396,306.432z"/>
</g>
<g>
	<path fill="#5A5658" d="M369.432,440.989c0,0,32.728,7.721,25.612-28.562c-7.117-36.286,1.016-108.973-108.353-112.519
		c0,0,0.144,29.085-7.525,39.34c-7.671,10.261-27.794,100.965-27.794,100.965L369.432,440.989z"/>
	<path fill="#281912" d="M376.247,444.599L376.247,444.599c-3.444,0-6.191-0.493-7.138-0.688l-117.762-0.78
		c-0.877-0.003-1.715-0.411-2.265-1.099c-0.549-0.693-0.759-1.597-0.568-2.454c2.074-9.345,20.49-91.619,28.312-102.076
		c5.81-7.77,6.981-29.76,6.948-37.577c-0.006-0.792,0.312-1.556,0.882-2.104c0.569-0.553,1.329-0.881,2.131-0.825
		c97.063,3.144,104.114,60.594,108.774,98.612c0.722,5.889,1.403,11.449,2.347,16.252c2.208,11.258,0.968,19.828-3.682,25.481
		C390.32,442.084,384.101,444.599,376.247,444.599z M255.012,437.316l114.442,0.759c0.217,0,0.434,0.026,0.646,0.074
		c0.021,0.008,2.672,0.608,6.146,0.608c4.218,0,9.981-0.891,13.477-5.13c3.482-4.24,4.31-11.187,2.454-20.644
		c-0.98-5.01-1.678-10.674-2.413-16.672c-4.629-37.775-10.955-89.365-100.188-93.367c-0.197,7.941-1.364,29.086-8.066,38.054
		C276.326,347.925,263.137,401.076,255.012,437.316z"/>
</g>
<g>
	<path fill="#2C1D13" d="M333.109,185.99c0,0-47.975-44.104-52.19-67.825c0,0-55.655,52.564-121.924,53.082
		c0,0,6.998-82.009,81.855-74.894C315.713,103.469,339.43,132.398,333.109,185.99z"/>
</g>
<g>
	<path fill="#434042" d="M202.103,303.494l-24.872,91.104l32.587,6.489l25.64,40.977l15.916-0.091L212.089,340.08
		C212.089,340.08,201.06,331.641,202.103,303.494z"/>
	<path fill="#281912" d="M235.456,444.98c-1.006,0-1.943-0.518-2.479-1.372l-24.97-39.905l-31.347-6.243
		c-0.8-0.157-1.49-0.636-1.912-1.326c-0.431-0.688-0.55-1.521-0.34-2.307l24.875-91.103c0.389-1.435,1.797-2.338,3.259-2.115
		c1.468,0.222,2.532,1.512,2.479,2.996c-0.969,25.947,8.77,34.097,8.866,34.179c0.403,0.319,0.74,0.766,0.923,1.247l39.282,101.889
		c0.348,0.894,0.229,1.904-0.312,2.696c-0.538,0.796-1.436,1.268-2.396,1.273l-15.916,0.091
		C235.467,444.98,235.463,444.98,235.456,444.98z M180.874,392.344l29.516,5.881c0.788,0.153,1.477,0.631,1.905,1.312l24.771,39.593
		l10.059-0.057l-37.508-97.287c-1.884-1.805-7.003-7.729-9.329-20.557L180.874,392.344z"/>
</g>
<g>
	<path fill="#434042" d="M286.693,299.909l30.474,89.429l-32.267,7.921L265.3,440.722l-15.902,0.617l29.131-100.743
		C278.529,340.594,288.988,327.986,286.693,299.909z"/>
	<path fill="#281912" d="M249.398,444.255c-0.898,0-1.744-0.406-2.301-1.117c-0.579-0.739-0.77-1.711-0.504-2.613l29.132-100.74
		c0.107-0.386,0.299-0.747,0.557-1.056c0.08-0.106,9.654-12.237,7.504-38.578c-0.12-1.471,0.872-2.799,2.318-3.096
		c1.436-0.301,2.879,0.521,3.354,1.914l30.472,89.426c0.267,0.773,0.19,1.627-0.201,2.344c-0.393,0.718-1.066,1.236-1.867,1.436
		l-30.883,7.581l-19.019,42.167c-0.452,1.013-1.442,1.678-2.549,1.722l-15.901,0.613
		C249.475,444.255,249.437,444.255,249.398,444.255z M281.18,341.93l-27.854,96.328l10.059-0.382l18.853-41.819
		c0.371-0.82,1.098-1.418,1.971-1.64l29.165-7.159l-23.915-70.191C287.842,331.864,282.695,339.861,281.18,341.93z"/>
</g>
<g>
	<path fill="#2C1D13" d="M321.979,138.476c8.866-36.317,30.494-4.369,10.963-38.92c-15.817-27.976-41.577-47.565-86.767-47.027
		c-39.679,0.476-75.172,19.856-91.54,50.136c-15.273,28.24-19.784,57.904-16.193,87.685c13.289,87.75-18.514,194.841,9.912,267.888
		c3.382,6.821,2.746,20.298,14.517,20.968c11.771,0.668,19.383-43.526,28.562-64.153c0.841-0.013-0.115,20.926,10.372,21.777
		c10.488,0.854,46.631-65.268,11.425-155.454c-27.808-40.079-46.212-81.75-39.555-129.85c19.939,0,88.97-29.088,104.038-40.288"/>
</g>
<g>
	<rect x="296.359" y="408.23" fill="#CFCFCE" width="48.459" height="10.707"/>
	<path fill="#281912" d="M344.818,421.86h-48.459c-1.61,0-2.918-1.309-2.918-2.923V408.23c0-1.613,1.308-2.922,2.918-2.922h48.459
		c1.613,0,2.922,1.309,2.922,2.922v10.707C347.74,420.552,346.433,421.86,344.818,421.86z M299.281,416.016h42.615v-4.867h-42.615
		V416.016z"/>
</g>
</svg>
