<?xml version="1.0" encoding="utf-8"?>
<!-- Generator: Adobe Illustrator 16.0.0, SVG Export Plug-In . SVG Version: 6.00 Build 0)  -->
<!DOCTYPE svg PUBLIC "-//W3C//DTD SVG 1.1//EN" "http://www.w3.org/Graphics/SVG/1.1/DTD/svg11.dtd">
<svg version="1.1" id="Layer_1" xmlns="http://www.w3.org/2000/svg" xmlns:xlink="http://www.w3.org/1999/xlink" x="0px" y="0px"
	 width="500px" height="500px" viewBox="0 0 500 500" enable-background="new 0 0 500 500" xml:space="preserve">
<g id="Layer_1_copy_76">
	<g>
		<path fill="#F5EEB7" d="M191.965,78.051c0,0,13.208-12.887,53.319-20.217c39.245,8.831,91.626,51.585,91.626,51.585l45.433,36.288
			l4.17,22.374l-42.848,33.754l-82.874-23.671L191.965,78.051z"/>
		<path fill="#27140E" d="M343.665,204.992c-0.292,0-0.582-0.041-0.865-0.122l-82.875-23.67c-0.706-0.202-1.315-0.642-1.737-1.248
			L189.362,79.839c-0.869-1.266-0.701-2.975,0.398-4.047c0.565-0.553,14.366-13.645,54.957-21.063
			c0.415-0.074,0.843-0.069,1.257,0.025c39.521,8.891,90.765,50.454,92.927,52.218l45.413,36.27c0.593,0.472,0.99,1.141,1.133,1.886
			l4.171,22.373c0.216,1.155-0.228,2.332-1.153,3.058l-42.847,33.755C345.056,204.758,344.363,204.992,343.665,204.992z
			 M262.752,175.441l80.227,22.915l40.081-31.574l-3.6-19.341l-44.521-35.558c-0.541-0.44-51.724-41.952-89.725-50.828
			c-29.57,5.489-44.008,14.072-48.984,17.634L262.752,175.441z"/>
	</g>
	<g>
		<path fill="#E5784E" d="M392.08,153.338c0,0-1.839-13.802-23.994-29.313L257.984,49.547c0,0-16.634-0.375-24.403,10.906
			c7.363-1.62,10.277,0.099,10.277,0.099s145.779,84.802,137.104,99.085c-10.584,17.404-1.564,13.473-1.564,13.473l12.997-18.861"/>
		<path fill="#27140E" d="M377.669,175.594c-1.096,0-2.195-0.336-2.991-1.25c-2.115-2.423-0.774-7.148,4.484-15.802
			c0.132-0.215,0.036-0.677-0.014-0.865c-3.499-13.768-83.459-64.54-136.35-95.306l0,0c0,0-2.562-1.226-8.767,0.137
			c-0.844,0.18-1.716-0.164-2.198-0.88c-0.481-0.716-0.479-1.655,0.014-2.369c8.321-12.082,25.449-11.831,26.179-11.816
			c0.408,0.008,0.798,0.135,1.135,0.361l110.104,74.48c22.679,15.877,24.819,30.176,24.896,30.776
			c0.003,0.021,0.003,0.04,0.009,0.059c0.439,0.691,0.451,1.607-0.045,2.323l-12.994,18.861c-0.223,0.324-0.533,0.578-0.894,0.735
			C379.489,175.366,378.579,175.594,377.669,175.594z M239.315,57.66c3.633,0,5.356,0.93,5.611,1.08
			c13.611,7.918,133.24,77.998,138.299,97.901c0.396,1.551,0.238,2.927-0.469,4.088c-4.242,6.976-4.805,9.73-4.842,10.63
			c0.053-0.01,0.104-0.02,0.154-0.03l11.985-17.399c-0.025-0.098-0.05-0.199-0.061-0.302c-0.034-0.216-2.226-13.252-23.111-27.878
			L257.35,51.658c-2.412,0.064-11.658,0.663-18.306,6.002C239.134,57.66,239.226,57.66,239.315,57.66z"/>
	</g>
	<g>
		<path fill="#FBBA61" d="M389.082,147.919c0,0,7.053,2.966,3.108,72.653c-4.279,75.5-11.164,174.724-11.164,174.724
			s-11.636,21.032-48.399,18.248c-36.766-2.796,5.405-245.087,5.405-245.087S367.654,174.023,389.082,147.919z"/>
		<path fill="#27140E" d="M339.194,416.957c-2.212,0-4.5-0.091-6.808-0.264c-3.416-0.264-6.386-1.985-8.83-5.125
			c-25.078-32.223,9.865-235.034,11.365-243.652c0.146-0.831,0.617-1.571,1.312-2.051c0.691-0.481,1.542-0.666,2.38-0.51
			c0.017,0.004,2.462,0.444,6.349,0.444c9.469,0.001,27.48-2.583,41.677-19.881c0.893-1.081,2.389-1.447,3.662-0.907
			c7.53,3.165,6.898,42.938,5.041,75.741c-4.229,74.658-11.097,173.773-11.167,174.762c-0.033,0.461-0.165,0.909-0.387,1.312
			C383.333,397.646,372.274,416.957,339.194,416.957z M340.632,171.941c-10.287,60.098-31.171,211.234-12.094,235.75
			c1.32,1.699,2.741,2.586,4.325,2.703c2.148,0.166,4.277,0.246,6.331,0.246c26.498,0,36.792-13.385,38.737-16.339
			c0.653-9.46,7.076-102.795,11.105-173.909c2.465-43.498,0.547-60.373-0.888-66.667c-15.235,15.891-33.334,18.384-43.184,18.384
			h-0.005C343.271,172.11,341.808,172.038,340.632,171.941z"/>
	</g>
	<g>
		<path fill="#FCCA8B" d="M181.422,88.341l7.869,195.832c0,0-2.063,27,23.298,42.771c25.355,15.77,117.506,86.115,117.506,86.115
			l7.289-244.107L199.237,79.5C199.237,79.5,178.222,64.505,181.422,88.341z"/>
		<path fill="#27140E" d="M330.095,416.214c-0.679,0-1.352-0.223-1.915-0.647c-0.92-0.703-92.319-70.434-117.256-85.946
			c-25.807-16.042-24.957-42.69-24.796-45.486l-7.855-195.521c-0.863-6.6-0.077-11.188,2.404-14.024
			c1.659-1.896,4.016-2.899,6.811-2.899c6.06,0,12.833,4.705,13.582,5.241l138.036,89.373c0.923,0.598,1.47,1.64,1.436,2.742
			l-7.29,244.108c-0.036,1.18-0.729,2.244-1.8,2.755C331.019,416.113,330.56,416.214,330.095,416.214z M187.487,78
			c-1.247,0-1.757,0.398-2.061,0.744c-0.549,0.628-1.732,2.78-0.876,9.176c0.013,0.098,0.023,0.196,0.027,0.295l7.865,195.834
			c0.004,0.12,0.004,0.241-0.006,0.363c-0.071,1.02-1.53,25.329,21.818,39.852c22.128,13.76,93.316,67.691,112.867,82.562
			l7.055-236.192L197.521,82.149C195.812,80.94,190.92,78,187.487,78z"/>
	</g>
	<g>
		<path fill="#27140E" d="M346.417,158.107c-0.398,0-0.803-0.113-1.159-0.351L223.206,76.83c-0.967-0.643-1.234-1.948-0.589-2.918
			c0.645-0.966,1.947-1.232,2.915-0.589l122.051,80.928c0.968,0.641,1.229,1.947,0.592,2.917
			C347.766,157.777,347.102,158.107,346.417,158.107z"/>
	</g>
	<g>
		<path fill="#27140E" d="M359.62,153.572c-0.397,0-0.808-0.113-1.162-0.349l-122.052-80.93c-0.967-0.641-1.233-1.947-0.589-2.917
			c0.64-0.967,1.952-1.233,2.915-0.59l122.051,80.928c0.968,0.643,1.23,1.948,0.591,2.917
			C360.97,153.242,360.302,153.572,359.62,153.572z"/>
	</g>
	<g>
		<path fill="#F5EEB7" d="M112.69,120.618c0,0,13.207-12.887,53.319-20.22c39.247,8.834,91.625,51.588,91.625,51.588l45.434,36.286
			l4.171,22.374l-42.848,33.749l-82.875-23.663L112.69,120.618z"/>
		<path fill="#27140E" d="M264.393,247.554c-0.291,0-0.58-0.044-0.867-0.122l-82.875-23.666c-0.707-0.203-1.318-0.642-1.736-1.248
			l-68.822-100.115c-0.873-1.266-0.705-2.974,0.395-4.046c0.57-0.555,14.367-13.644,54.958-21.066
			c0.415-0.078,0.844-0.069,1.262,0.025c39.516,8.896,90.762,50.457,92.922,52.222l45.413,36.267
			c0.594,0.472,0.991,1.141,1.133,1.887l4.17,22.374c0.213,1.153-0.23,2.332-1.151,3.058l-42.848,33.747
			C265.779,247.318,265.093,247.554,264.393,247.554z M183.472,218.008l80.239,22.91l40.075-31.571l-3.602-19.341l-44.522-35.554
			c-0.539-0.441-51.721-41.954-89.723-50.833c-29.569,5.491-44.006,14.075-48.98,17.636L183.472,218.008z"/>
	</g>
	<g>
		<path fill="#593160" d="M312.168,196.142c0,0-1.204-14.038-23.355-29.547l-108.686-73.91c0,0-18.052-0.944-25.819,10.335
			c7.363-1.622,10.278,0.096,10.278,0.096s145.782,84.801,137.097,99.086c-10.577,17.406-1.562,13.473-1.562,13.473l12.047-19.007"
			/>
		<path fill="#27140E" d="M298.396,218.162c-1.101,0-2.195-0.337-2.994-1.251c-2.115-2.423-0.773-7.148,4.486-15.803
			c0.131-0.215,0.034-0.677-0.014-0.866c-3.501-13.771-83.455-64.54-136.343-95.306l0,0c-0.007-0.002-2.579-1.226-8.773,0.14
			c-0.846,0.182-1.72-0.165-2.198-0.88c-0.482-0.718-0.479-1.657,0.01-2.369c8.342-12.11,26.876-11.292,27.664-11.245
			c0.385,0.021,0.756,0.146,1.076,0.361l108.685,73.91c22.719,15.909,24.216,30.495,24.27,31.109c0.012,0.151,0.009,0.3-0.01,0.443
			c0.059,0.468-0.041,0.958-0.312,1.389l-12.04,19.008c-0.228,0.356-0.55,0.635-0.938,0.802
			C300.215,217.931,299.306,218.162,298.396,218.162z M160.046,100.225c3.631,0,5.357,0.928,5.61,1.078
			c13.61,7.919,133.236,77.995,138.295,97.901c0.394,1.552,0.24,2.928-0.47,4.09c-4.24,6.974-4.805,9.73-4.842,10.63
			c0.037-0.004,0.074-0.012,0.11-0.02l11.283-17.807c-0.309-1.853-3.062-14.218-22.426-27.781L179.452,94.772
			c-2.444-0.015-12.573,0.221-19.542,5.453C159.955,100.225,159.998,100.225,160.046,100.225z"/>
	</g>
	<g>
		<path fill="#874994" d="M309.659,193.384c0,0,7.202,0.067,3.257,69.755c-4.274,75.5-11.167,174.729-11.167,174.729
			s-11.625,21.027-48.394,18.239c-36.769-2.787,5.401-245.083,5.401-245.083S288.234,219.488,309.659,193.384z"/>
		<path fill="#27140E" d="M259.925,459.519c-2.212,0-4.502-0.091-6.809-0.262c-3.415-0.263-6.389-1.985-8.834-5.126
			c-25.077-32.226,9.862-235.029,11.362-243.647c0.155-0.883,0.676-1.659,1.434-2.134c0.762-0.475,1.688-0.607,2.549-0.359
			c0.034,0.01,4.279,1.187,10.525,1.187c10.25,0,24.994-3.086,37.07-17.795c0.605-0.74,1.517-1.228,2.467-1.155
			c0.584,0.005,1.727,0.189,2.814,1.354c4.771,5.095,5.969,29.231,3.563,71.736c-4.23,74.654-11.104,173.771-11.17,174.767
			c-0.034,0.462-0.165,0.902-0.389,1.309C304.056,440.214,293.003,459.519,259.925,459.519z M261.311,214.784
			c-10.301,60.276-31.098,210.992-12.044,235.467c1.326,1.703,2.738,2.59,4.33,2.712c2.147,0.161,4.278,0.245,6.329,0.245
			c26.409,0,36.816-13.479,38.73-16.342c0.652-9.492,7.086-102.806,11.107-173.906c2.418-42.628,0.604-58.374-0.771-64.057
			c-13.001,13.601-28.097,16.588-38.834,16.588h-0.005C266.509,215.491,263.458,215.139,261.311,214.784z"/>
	</g>
	<g>
		<path fill="#AEB4DB" d="M102.146,130.905l7.867,195.835c0,0-2.061,26.996,23.301,42.767
			c25.358,15.769,117.506,86.119,117.506,86.119l7.289-244.107l-138.146-89.454C119.964,122.066,98.95,107.072,102.146,130.905z"/>
		<path fill="#27140E" d="M250.82,458.781c-0.677,0-1.355-0.219-1.914-0.646c-0.922-0.701-92.316-70.438-117.256-85.945
			c-25.808-16.051-24.961-42.692-24.796-45.488l-7.855-195.523c-0.863-6.598-0.078-11.186,2.403-14.023
			c1.658-1.896,4.016-2.899,6.812-2.899c6.062,0,12.832,4.707,13.58,5.243l138.032,89.373c0.928,0.6,1.47,1.64,1.436,2.745
			l-7.285,244.105c-0.037,1.185-0.73,2.246-1.801,2.759C251.744,458.68,251.285,458.781,250.82,458.781z M108.214,120.568
			c-1.248,0-1.758,0.396-2.057,0.743c-0.554,0.628-1.738,2.78-0.881,9.174c0.01,0.096,0.021,0.194,0.026,0.293l7.866,195.833
			c0.003,0.125,0,0.244-0.006,0.367c-0.075,1.021-1.531,25.328,21.817,39.847c22.131,13.76,93.317,67.691,112.87,82.568
			l7.049-236.192l-136.652-88.486C116.537,123.506,111.645,120.568,108.214,120.568z"/>
	</g>
	<g>
		
			<path fill="none" stroke="#27140E" stroke-width="9.855" stroke-linecap="round" stroke-linejoin="round" stroke-miterlimit="10" d="
			M312.161,453.327"/>
	</g>
	<g>
		<path fill="#27140E" d="M267.143,200.674c-0.396,0-0.802-0.113-1.158-0.351l-122.048-80.93c-0.968-0.643-1.233-1.949-0.59-2.917
			c0.641-0.969,1.946-1.233,2.916-0.592l122.048,80.932c0.967,0.642,1.23,1.946,0.59,2.917
			C268.491,200.344,267.827,200.674,267.143,200.674z"/>
	</g>
	<g>
		<path fill="#27140E" d="M280.339,196.14c-0.396,0-0.798-0.113-1.155-0.35l-122.048-80.927c-0.968-0.642-1.233-1.949-0.59-2.918
			c0.641-0.968,1.949-1.234,2.917-0.59l122.046,80.928c0.964,0.641,1.231,1.947,0.589,2.917
			C281.695,195.81,281.023,196.14,280.339,196.14z"/>
	</g>
	<g>
		<path fill="#CDCCCC" d="M297.792,298.945l-24.384-0.918l0.219-5.803l16.464,0.613l-16.38-2.929l0.158-4.114l16.174-1.834
			l-16.083-0.613l0.216-5.804l24.385,0.918l-0.319,8.593c-1.478,0.192-3.214,0.396-5.216,0.588l-6.235,0.711l11.326,1.953
			L297.792,298.945z"/>
		<path fill="#CDCCCC" d="M297.171,315.503l-24.524,2.883l0.252-6.78l4.396-0.195l0.087-2.374l-4.366-0.562l0.256-6.865
			l24.262,4.303L297.171,315.503z M281.624,311.4c2.774-0.233,6.2-0.441,10.283-0.627c-4.649-0.852-8.046-1.406-10.199-1.66
			L281.624,311.4z"/>
		<path fill="#CDCCCC" d="M296.458,334.441l-4.877-0.187l0.147-3.94l-19.506-0.731l0.246-6.64l19.506,0.736l0.147-3.929l4.883,0.183
			L296.458,334.441z"/>
		<path fill="#CDCCCC" d="M295.741,353.641l-24.388-0.918l0.25-6.64l10.246,0.39l0.073-1.99l-10.246-0.381l0.249-6.643l24.385,0.916
			l-0.246,6.637l-8.719-0.324l-0.074,1.986l8.719,0.327L295.741,353.641z"/>
		<path fill="#CDCCCC" d="M287.646,372.511l0.229-6.163l1.802,0.066c0.848,0.029,1.387-0.025,1.623-0.176
			c0.236-0.148,0.361-0.407,0.374-0.774c0.013-0.401-0.125-0.709-0.432-0.92c-0.304-0.22-0.771-0.345-1.403-0.364
			c-0.814-0.031-1.438,0.064-1.852,0.275c-0.424,0.207-0.942,0.811-1.562,1.82c-1.786,2.89-3.235,4.699-4.336,5.43
			c-1.103,0.729-2.851,1.045-5.239,0.953c-1.734-0.061-3.011-0.323-3.818-0.782c-0.807-0.454-1.467-1.306-1.977-2.542
			c-0.514-1.241-0.734-2.671-0.675-4.291c0.068-1.773,0.44-3.277,1.132-4.514c0.688-1.232,1.538-2.024,2.547-2.377
			c1.012-0.35,2.428-0.491,4.258-0.42l1.596,0.058l-0.236,6.162l-2.966-0.11c-0.91-0.029-1.502,0.035-1.769,0.195
			c-0.27,0.162-0.41,0.469-0.428,0.908c-0.018,0.443,0.139,0.773,0.463,1.008c0.323,0.227,0.81,0.354,1.463,0.377
			c1.434,0.055,2.384-0.115,2.84-0.51c0.455-0.404,1.232-1.416,2.328-3.023c1.105-1.611,1.908-2.678,2.398-3.195
			c0.49-0.517,1.162-0.935,2.008-1.259c0.848-0.319,1.92-0.458,3.215-0.407c1.863,0.067,3.223,0.373,4.068,0.902
			c0.844,0.53,1.487,1.362,1.932,2.495c0.441,1.134,0.642,2.487,0.58,4.063c-0.062,1.727-0.388,3.187-0.965,4.377
			c-0.574,1.195-1.277,1.979-2.103,2.338c-0.82,0.365-2.198,0.51-4.138,0.438L287.646,372.511z"/>
	</g>
	<g>
		<path fill="#B8454E" d="M376.28,230.888l-0.477,11.066l-4.88-0.208l0.19-4.431l-4.624-0.199l-0.179,4.147l-4.636-0.199
			l0.177-4.146l-5.362-0.231l-0.208,4.87l-4.88-0.209l0.499-11.507L376.28,230.888z"/>
		<path fill="#B8454E" d="M374.961,261.543l-24.38-1.049l0.253-5.816l11.23-2.974l-11.082-0.479l0.235-5.55l24.381,1.052
			l-0.239,5.546l-11.138,3.246l10.979,0.474L374.961,261.543z"/>
		<path fill="#B8454E" d="M365.109,281.469l0.291-6.636l2.208,0.095c1.397,0.062,2.271,0.038,2.629-0.074
			c0.36-0.109,0.544-0.403,0.562-0.875c0.021-0.412-0.118-0.699-0.411-0.856c-0.294-0.159-1.064-0.265-2.307-0.317l-11.703-0.506
			c-1.095-0.047-1.817-0.007-2.167,0.129c-0.354,0.131-0.543,0.418-0.561,0.859c-0.021,0.48,0.158,0.818,0.543,1.012
			c0.384,0.188,1.146,0.311,2.278,0.354l2.891,0.13l0.058-1.341l3.708,0.16l-0.337,7.771l-13.085-0.562l0.179-4.172l1.773-0.539
			c-0.731-0.485-1.271-1.08-1.622-1.783c-0.344-0.705-0.495-1.526-0.459-2.461c0.048-1.117,0.354-2.148,0.911-3.101
			c0.557-0.954,1.229-1.665,2.016-2.137c0.786-0.47,1.599-0.752,2.44-0.845c0.847-0.09,2.104-0.097,3.779-0.021l7.246,0.312
			c2.326,0.098,4.014,0.305,5.06,0.61c1.04,0.304,1.976,1.103,2.798,2.384c0.826,1.287,1.199,2.912,1.112,4.893
			c-0.081,1.941-0.536,3.54-1.353,4.787c-0.823,1.248-1.761,2.047-2.83,2.391c-1.064,0.341-2.596,0.473-4.592,0.389L365.109,281.469
			z"/>
		<path fill="#B8454E" d="M373.59,293.482l-19.503-0.836l-0.175,4.035l-4.879-0.211l0.459-10.673l24.381,1.05L373.59,293.482z"/>
		<path fill="#B8454E" d="M372.956,308.184l-24.381-1.045l0.286-6.64l24.377,1.048L372.956,308.184z"/>
		<path fill="#B8454E" d="M364.753,327.018l0.263-6.168l1.807,0.078c0.844,0.037,1.387-0.021,1.626-0.162
			c0.234-0.147,0.36-0.406,0.378-0.779c0.017-0.396-0.128-0.703-0.428-0.924c-0.305-0.217-0.772-0.34-1.407-0.371
			c-0.809-0.032-1.43,0.057-1.849,0.268c-0.424,0.203-0.943,0.807-1.569,1.814c-1.806,2.883-3.257,4.68-4.363,5.403
			c-1.109,0.72-2.855,1.032-5.247,0.929c-1.735-0.078-3.01-0.344-3.812-0.808c-0.808-0.458-1.465-1.307-1.965-2.556
			c-0.505-1.24-0.725-2.67-0.652-4.288c0.078-1.776,0.465-3.28,1.159-4.509c0.694-1.229,1.548-2.016,2.56-2.362
			s2.427-0.479,4.258-0.401l1.595,0.071l-0.263,6.16l-2.967-0.126c-0.913-0.036-1.504,0.023-1.776,0.184
			c-0.266,0.164-0.412,0.465-0.432,0.909c-0.018,0.438,0.135,0.776,0.455,1.001c0.327,0.229,0.809,0.361,1.463,0.393
			c1.437,0.06,2.381-0.102,2.846-0.492c0.455-0.404,1.238-1.406,2.349-3.014c1.111-1.605,1.918-2.664,2.408-3.182
			c0.496-0.52,1.173-0.934,2.019-1.25c0.85-0.316,1.918-0.441,3.216-0.393c1.864,0.084,3.221,0.393,4.066,0.929
			c0.836,0.535,1.477,1.372,1.918,2.505c0.438,1.137,0.624,2.491,0.554,4.068c-0.074,1.725-0.401,3.18-0.985,4.373
			c-0.584,1.188-1.291,1.966-2.113,2.324c-0.826,0.36-2.205,0.496-4.146,0.414L364.753,327.018z"/>
		<path fill="#B8454E" d="M371.259,347.648l-24.38-1.049l0.283-6.639l10.242,0.439l0.085-1.984l-10.239-0.441l0.283-6.635
			l24.38,1.049l-0.286,6.635l-8.716-0.377l-0.087,1.988l8.719,0.374L371.259,347.648z"/>
	</g>
</g>
</svg>
