<svg id="study_ook" data-name="study ook" xmlns="http://www.w3.org/2000/svg" viewBox="0 0 300 300"><defs><style>.cls-1{fill:#4a3b49;}.cls-2{fill:#27140e;}.cls-3{fill:#fff;}.cls-4{fill:#797075;}.cls-5{fill:#c2c2c5;}.cls-6{fill:#ec1c6c;}</style></defs><title>study book</title><path class="cls-1" d="M233.33,228.25V201.86L181.84,65.39,86.56,33.21s-28-4.83-32.5,21.88V246.6s.64,22.53,32.5,22.85"/><path class="cls-2" d="M86.56,271.75h0c-33.68-.34-34.77-24.84-34.78-25.08V55.09a2.43,2.43,0,0,1,0-.38c1.4-8.28,5.07-14.58,10.92-18.73,10.34-7.33,23.68-5.13,24.24-5a2,2,0,0,1,.35.09l95.27,32.19A2.29,2.29,0,0,1,184,64.58l51.5,136.47a2.28,2.28,0,0,1,.15.81v26.39a2.3,2.3,0,1,1-4.59,0v-26l-51-135.06L86,35.45a34.56,34.56,0,0,0-13.53.93c-9,2.58-14.4,8.94-16.14,18.91V246.6c0,.76,1.1,20.26,30.24,20.56a2.3,2.3,0,0,1,0,4.59Z"/><path class="cls-1" d="M86.56,269.45H225.68a7.67,7.67,0,0,0,7.65-7.65V228.25"/><path class="cls-2" d="M225.68,271.75H86.56a2.3,2.3,0,1,1,0-4.59H225.68A5.37,5.37,0,0,0,231,261.8V228.25a2.3,2.3,0,0,1,4.59,0V261.8A10,10,0,0,1,225.68,271.75Z"/><path class="cls-3" d="M82.38,225.49l151,.32v32.51H83.63s-16,.33-16.28-18.67C68,226.46,82.38,225.49,82.38,225.49Z"/><path class="cls-2" d="M83.58,260.62c-.74,0-18.19-.24-18.53-20.93.57-12.2,11.49-16.11,17.18-16.49a.83.83,0,0,0,.16,0l151,.32a2.3,2.3,0,0,1,2.29,2.29v32.51a2.3,2.3,0,0,1-2.3,2.3Zm-1.11-32.83c-1.08.09-12.32,1.32-12.82,12C69.91,255.57,82.19,256,83.58,256v2.29l0-2.29H231V228.11Z"/><rect class="cls-4" x="78.52" y="32.56" width="155.14" height="181.23" rx="7.66" ry="7.66"/><path class="cls-2" d="M226,216.09H86.17a10,10,0,0,1-10-10V40.22a10,10,0,0,1,10-9.95H226a10,10,0,0,1,9.95,10V206.13A10,10,0,0,1,226,216.09ZM86.17,34.86a5.37,5.37,0,0,0-5.36,5.36V206.13a5.37,5.37,0,0,0,5.36,5.36H226a5.36,5.36,0,0,0,5.36-5.36V40.22A5.36,5.36,0,0,0,226,34.86Z"/><rect class="cls-5" x="91.71" y="55.05" width="128.75" height="130.7" rx="7.66" ry="7.66"/><path class="cls-2" d="M212.8,188.05H99.37a10,10,0,0,1-10-10V62.7a10,10,0,0,1,10-10H212.8a10,10,0,0,1,9.95,10V178.09A10,10,0,0,1,212.8,188.05ZM99.37,57.34A5.37,5.37,0,0,0,94,62.7V178.09a5.37,5.37,0,0,0,5.36,5.36H212.8a5.36,5.36,0,0,0,5.36-5.36V62.7a5.37,5.37,0,0,0-5.36-5.36Z"/><path class="cls-6" d="M133.92,82.29a2,2,0,0,1-1.87-1.46,3.36,3.36,0,0,0-1-1.52,5.6,5.6,0,0,0-2-.22c-1.88,0-4,1.44-6.28,4.33q-4.68,5.81-4.68,11a6.25,6.25,0,0,0,1.62,4.32,5.17,5.17,0,0,0,4,1.88,8.79,8.79,0,0,0,4-1,29.89,29.89,0,0,0,3.47-2.3,3.4,3.4,0,0,1,1.68-.81,1.81,1.81,0,0,1,1.4.63,2.09,2.09,0,0,1,.56,1.41,2,2,0,0,1-.74,1.54q-5.15,4.56-10.4,4.56a8.8,8.8,0,0,1-6.82-3.1,10.28,10.28,0,0,1-2.69-7.09q0-6.62,5.53-13.55,4.62-5.79,9.32-5.78a14.76,14.76,0,0,1,1.71.08,6.78,6.78,0,0,1,1.35.29,2.07,2.07,0,0,1,1.77-1c.9,0,1.46.59,1.7,1.77a21.21,21.21,0,0,1,.31,3.88,2.43,2.43,0,0,1-.43,1.41A1.73,1.73,0,0,1,133.92,82.29Z"/><path class="cls-6" d="M160.81,104.74c-1.2,0-2.24-1.54-3.12-4.6q-.51-1.76-1.27-6.14-2,.27-5.2,1L146,96c-.65,1.71-1.76,4.19-3.33,7.47a1.91,1.91,0,0,1-1.7,1.09,2,2,0,0,1-1.39-.57,1.81,1.81,0,0,1-.62-1.4c0-.62,1-3,2.95-7.11a2.11,2.11,0,0,1-.33-1.17c0-1,.63-1.73,1.9-2q2.22-4.17,5.62-9.58,4.62-7.39,5.75-7.39c1,0,1.73.72,2.1,2.14L158.22,84l2.9,13.55,1.11,3.07a8.17,8.17,0,0,1,.57,2.11,1.82,1.82,0,0,1-.61,1.4A2,2,0,0,1,160.81,104.74Zm-6.88-22.28-5.57,9q2.35-.61,7.15-1.47Z"/><path class="cls-6" d="M192.18,79.54c-1,0-2.44-.08-4.44-.23s-3.43-.21-4.44-.2h-1.39q.06,2.69.53,8.73c.28,3.76.43,6.67.43,8.75a20.47,20.47,0,0,0,.14,2.07c.09.92.13,1.61.13,2.08a5.43,5.43,0,0,1-.43,2.28,1.78,1.78,0,0,1-1.69,1.29,2,2,0,0,1-1.4-.55,1.76,1.76,0,0,1-.63-1.4,5.29,5.29,0,0,1,.1-.88,6.74,6.74,0,0,0,.1-.87c0-.64,0-1.6-.13-2.87s-.13-2.23-.13-2.89c0-1.85-.14-4.47-.44-7.83-.32-3.63-.49-6.25-.53-7.83l-1.77,0a28,28,0,0,1-6.71-.63,1.85,1.85,0,0,1-1.58-1.93,2.1,2.1,0,0,1,.51-1.4,1.74,1.74,0,0,1,1.5-.62c.45,0,1.5.14,3.12.35a26.63,26.63,0,0,0,3.16.23c.78,0,2,0,3.54,0s2.77,0,3.55,0c1,0,2.48.08,4.45.22s3.45.21,4.45.21a1.92,1.92,0,0,1,1.41.58,2,2,0,0,1,.56,1.43,2,2,0,0,1-.56,1.41A1.89,1.89,0,0,1,192.18,79.54Z"/><path class="cls-6" d="M132.84,155q-3,2.07-8.67,2.07a13.77,13.77,0,0,1-3.25-.45,9.22,9.22,0,0,1-3.32-1.37h-.19a1.85,1.85,0,0,1-1.4-.58,2,2,0,0,1-.57-1.42q0-2.05.19-6.13c.12-2.72.18-4.77.18-6.13q0-2.28-.09-6.81c-.06-3-.08-5.29-.08-6.81a2.57,2.57,0,0,1,.81-1.68,2.29,2.29,0,0,1,1.64-.88,13.93,13.93,0,0,1,3.12,1.31c2,1,3.16,1.51,3.47,1.62a24.06,24.06,0,0,1,9.43,5.8q4.57,4.62,4.58,10.15a13.79,13.79,0,0,1-1.57,6.4A13,13,0,0,1,132.84,155Zm-4.09-20.62a80.13,80.13,0,0,0-9.18-4.48l.1,5.61.06,5.6-.31,10.63a4.06,4.06,0,0,1,.4.26,7.61,7.61,0,0,0,4.33,1.15c3,0,5.12-.46,6.47-1.36a9.29,9.29,0,0,0,3-3.46,9.8,9.8,0,0,0,1.13-4.53Q134.76,138.25,128.75,134.33Z"/><path class="cls-6" d="M156.3,156.28A13.76,13.76,0,0,1,147,153a11.41,11.41,0,0,1-4.05-9,20.43,20.43,0,0,1,4-12.26q4.47-6.12,11.13-6.12,6.41,0,9.53,2.89t3.25,9.47a21.24,21.24,0,0,1-3.66,12.16Q163,156.28,156.3,156.28Zm1.76-26.72q-4.77,0-8.09,4.75a16.41,16.41,0,0,0-3.06,9.63,7.63,7.63,0,0,0,2.79,6.12,10,10,0,0,0,6.6,2.22q4.74,0,7.82-4.78a17.24,17.24,0,0,0,2.75-9.58c0-3.11-.69-5.29-2.09-6.55S161.21,129.56,158.06,129.56Z"/><path class="cls-6" d="M197.87,143.29a17.13,17.13,0,0,1-5.08,9.56,13,13,0,0,1-9.13,3.58q-4.78,0-7.19-2.68t-2.39-8a25.26,25.26,0,0,1,2.39-10.39,24.77,24.77,0,0,1,6.12-8.65,7.9,7.9,0,0,1,5.28-2.2,13.33,13.33,0,0,1,4.68,1.17q3.55,1.41,3.55,3.1a2,2,0,0,1-.59,1.42,1.83,1.83,0,0,1-1.4.63,2.69,2.69,0,0,1-1.21-.49,10.21,10.21,0,0,0-5-1.81,4.57,4.57,0,0,0-3.05,1.51,23.47,23.47,0,0,0-2.3,2.77A21.09,21.09,0,0,0,178,145.71q0,3.66,1.14,5.13c.81,1.07,2.32,1.6,4.51,1.6a9,9,0,0,0,6.07-2.21,12.53,12.53,0,0,0,3.78-6.68,24.53,24.53,0,0,0-9.26,2.09,2.06,2.06,0,0,1-.88.21,1.78,1.78,0,0,1-1.42-.67,2.07,2.07,0,0,1-.53-1.4,2,2,0,0,1,1-1.71q4.2-2.58,14.51-2.57a1.89,1.89,0,0,1,1.41.56,2,2,0,0,1,.56,1.42A1.86,1.86,0,0,1,197.87,143.29Z"/></svg>