<svg id="therapist" xmlns="http://www.w3.org/2000/svg" xmlns:xlink="http://www.w3.org/1999/xlink" viewBox="0 0 300 300"><defs><style>.cls-1{fill:none;}.cls-2{fill:#fcc393;}.cls-3{fill:#281912;}.cls-4{fill:#141211;}.cls-5{fill:#fffffb;}.cls-6{fill:#834c1f;}.cls-7{clip-path:url(#clip-path);}.cls-8{opacity:0.7;}.cls-9{fill:#f9a880;}.cls-10{clip-path:url(#clip-path-4);}.cls-11{clip-path:url(#clip-path-5);}.cls-12{fill:#fff;}.cls-13{fill:#301e12;}.cls-14{fill:#ec5e90;}.cls-15{fill:#231f20;fill-rule:evenodd;}.cls-16{fill:#a65e90;}.cls-17{fill:#775e90;}</style><clipPath id="clip-path"><rect class="cls-1" x="113.93" y="125.65" width="13.93" height="8.93"/></clipPath><clipPath id="clip-path-4"><rect class="cls-1" x="174.15" y="125.17" width="13.93" height="8.93"/></clipPath><clipPath id="clip-path-5"><rect class="cls-1" x="174.15" y="125.17" width="13.93" height="8.93"/></clipPath></defs><title>therapist</title><path class="cls-2" d="M130.89,159.75s.85,10.65-4.92,14-9.16,44.76-9.16,44.76l69.41,12.58-7.57-45.41-8.32-13.93s-2.74-4.48-1.2-12-38.29-6.09-38.24,0"/><path class="cls-3" d="M188.26,233.2,115,219.92l.13-1.51c.81-9.91,3.94-42.51,10-46.06,4-2.34,4.31-9.8,4.1-12.48v-.11a3.41,3.41,0,0,1,1.07-2.45c3.43-3.45,15.35-4.37,21.85-4.37,5.43,0,15,.52,17.81,4a3.66,3.66,0,0,1,.8,3.14c-1.38,6.75.9,10.69,1,10.85l8.48,14.21,0,.31M118.6,217.18l65.59,11.89-7.13-42.76-8.16-13.66c-.11-.19-3.06-5.12-1.4-13.24,0-.09,0-.17-.12-.36-1.09-1.33-6.32-2.77-15.23-2.77-11.71,0-18.9,2.25-19.58,3.5.09,1.48.49,11.78-5.75,15.44-3,1.78-6.56,22.86-8.22,42"/><path class="cls-2" d="M201.11,105.43a5.23,5.23,0,0,0-1.67.29c-4.59-22.43-24.85-39.34-49.16-39.34-25,0-45.58,17.82-49.43,41.13a5.58,5.58,0,0,0-3-.94c-3.91,0-7.08,4.27-7.08,9.54s3.17,9.54,7.08,9.54a5.61,5.61,0,0,0,3.23-1.1c4.41,22.66,24.76,39.8,49.23,39.8s45-17.29,49.28-40.1a5.08,5.08,0,0,0,1.55.25c3.91,0,7.09-4.27,7.09-9.54s-3.18-9.53-7.09-9.53"/><path class="cls-3" d="M150.28,166c-24.09,0-44.94-16.28-50.4-39a6.61,6.61,0,0,1-2.06.32c-4.82,0-8.75-5-8.75-11.2S93,104.9,97.82,104.9a6.75,6.75,0,0,1,1.78.24c4.91-23.55,25.89-40.43,50.68-40.43,24.05,0,45,16.33,50.44,39.06,5-.32,9.14,4.85,9.14,11.19s-4.08,11.39-9,11.2C195.72,149.35,174.71,166,150.28,166m-48.08-44.3.49,2.52c4.33,22.28,24.35,38.45,47.59,38.45S193.7,146.39,197.92,124l.34-1.83,1.78.54a3.63,3.63,0,0,0,1.07.18c2.94,0,5.42-3.61,5.42-7.88s-2.48-7.87-5.42-7.87a3.51,3.51,0,0,0-1.15.22l-1.78.58-.37-1.83c-4.51-22-24.5-38-47.53-38-23.88,0-44,16.72-47.79,39.75l-.41,2.49L100,108.92c-3.67-2.35-7.55,1.9-7.54,7.19s4,9.66,7.69,7.08Z"/><path class="cls-4" d="M132.23,115c0,3.81-2.47,6.9-5.52,6.9s-5.51-3.09-5.51-6.9,2.47-6.9,5.51-6.9,5.52,3.09,5.52,6.9"/><path class="cls-5" d="M127.86,115a2.23,2.23,0,1,1-2.23-2.4,2.32,2.32,0,0,1,2.23,2.4"/><path class="cls-4" d="M177.19,115c0,3.81-2.47,6.9-5.52,6.9s-5.52-3.09-5.52-6.9,2.48-6.9,5.52-6.9,5.52,3.09,5.52,6.9"/><path class="cls-5" d="M172.81,115a2.23,2.23,0,1,1-2.22-2.4,2.32,2.32,0,0,1,2.22,2.4"/><path class="cls-6" d="M145,127.54s7.27,1.08,8.27-3,0-12,0-12,4.51,6,2.26,13.36-14,1.56-10.53,1.62"/><g class="cls-7"><g class="cls-8"><g class="cls-7"><g class="cls-7"><path class="cls-9" d="M127.86,130.11c0,2.47-3.12,4.47-7,4.47s-7-2-7-4.47,3.12-4.46,7-4.46,7,2,7,4.46"/></g></g></g></g><g class="cls-10"><g class="cls-8"><g class="cls-11"><g class="cls-10"><path class="cls-9" d="M188.08,129.63c0,2.47-3.11,4.47-7,4.47s-7-2-7-4.47,3.12-4.46,7-4.46,7,2,7,4.46"/></g></g></g></g><path class="cls-12" d="M135.49,136.47s3.26,12.72,14.79,12.18,15.87-12.18,15.87-12.18-5.09,6.1-15.87,6.1c-11.07,0-14.79-6.1-14.79-6.1"/><path class="cls-13" d="M118.8,107a8.36,8.36,0,0,1,7.27-3.11c4.77.41,5.27,1.35,5.52-1.22s-2-3.11-5.52-2.7-10.27,7.85-7.27,7"/><path class="cls-13" d="M180.18,107a8.36,8.36,0,0,0-7.27-3.11c-4.76.41-5.26,1.35-5.52-1.22s2-3.11,5.52-2.7,10.28,7.85,7.27,7"/><path class="cls-14" d="M124.83,176.06s-6.19,26.74,22,25.85c31.72-1,24.07-16.91,24.88-27.87,0,0-2.91-.55,23.48,5.54s34.92,13.4,39,64.14c2,14.61-19.89,11-19.89,11l-131.52.87S64,260,68.1,239.25s1.51-62.68,56.73-63.19"/><path class="cls-3" d="M78.82,257.61c-4.48,0-8-1.43-10.26-4.14-2.65-3.22-3.36-8.12-2.1-14.54.52-2.65.94-5.71,1.38-8.94,3-22,7.51-55.14,57-55.6a1.68,1.68,0,0,1,1.32.62,1.65,1.65,0,0,1,.32,1.42c0,.11-2.39,10.83,3.13,17.77,3.21,4,8.54,6.06,15.84,6.06l1.32,0c10.46-.34,17.19-2.3,20.57-6s3.08-8.93,2.79-14a56.43,56.43,0,0,1-.12-5.8,1.58,1.58,0,0,1,0-.65,1.68,1.68,0,0,1,1.66-1.43,2.58,2.58,0,0,1,.39,0,1.61,1.61,0,0,1,.39.12c1,.27,5.37,1.33,23.16,5.44,28.06,6.47,36.24,15.37,40.26,65.63a10.42,10.42,0,0,1-2.19,8.61c-3.28,3.76-9.29,4.55-13.76,4.55a40.72,40.72,0,0,1-5.73-.4l-131.22.87a21.19,21.19,0,0,1-4.07.39m44-79.85C78.15,179,74.1,208.69,71.14,230.44c-.45,3.29-.87,6.39-1.41,9.14-1.06,5.39-.59,9.35,1.4,11.77s5.28,2.93,7.69,2.93a17.58,17.58,0,0,0,3.51-.35,1.55,1.55,0,0,1,.37,0L214.22,253l.29,0a37.51,37.51,0,0,0,5.33.38c3.78,0,8.79-.59,11.24-3.41,1.3-1.49,1.75-3.47,1.39-6.06-4.06-50.8-12.53-56.94-37.69-62.75-10.81-2.49-18.1-4.19-21.5-5,0,1.24.08,2.53.15,3.87.31,5.49.67,11.72-3.66,16.44-4,4.4-11.53,6.72-22.93,7.08l-1.42,0c-8.37,0-14.58-2.47-18.46-7.35-5-6.25-4.61-14.63-4.11-18.49"/><path class="cls-15" d="M216.3,109.94c-2.79-23.5-11-45.29-25.36-64.29-3.77-5-9.14-8.92-14.27-12.66-7.17-5.22-15-6.45-23.57-2.73a16.21,16.21,0,0,1-10,.65c-9.12-2.55-16.84-.57-24.43,4.74-22.58,15.79-37,32.19-35.23,64.85,2.06,38.69,16.13,42.56,21.8,38.57,1.32-.93-2.49-2.22-4.61-13.1a5.6,5.6,0,0,1-3.23,1.09c-3.91,0-7.08-4.27-7.08-9.54S93.47,108,97.38,108a5.56,5.56,0,0,1,3,1c3.86-23.31,24.49-41.13,49.44-41.13,24.31,0,44.57,16.9,49.16,39.34a5.19,5.19,0,0,1,1.67-.3c3.91,0,7.08,4.27,7.08,9.54s-3.17,9.54-7.08,9.54a5,5,0,0,1-1.55-.25c-2,10.43-6.25,15.12-13.81,22.12-.42,3.66-6.45,10.83-2.45,14.17s23.23-3.36,22-9.78c-.76-4.12-2.43-3.3.6-4.52s4.41-13.72,6.19-19.78,5.28-12.22,4.6-17.94"/><path class="cls-15" d="M83.42,100.5c-.09-32.7,12.65-49.06,35.23-64.85,7.59-5.31,15.31-7.29,24.43-4.74a16.21,16.21,0,0,0,10-.65c8.59-3.72,16.4-2.5,23.57,2.73,5.13,3.74,10.5,7.68,14.27,12.66,14.37,19,26.38,51.67,25.36,64.29-15.84-12.39-18.25.39-18.25.39-.91-9.81-15.19-15.89-26-24.81,2.61,5.24,6.74,9.06,9.7,15-20.1-9.15-36.45-7.07-52.25-20.27l15,18.51c-.3.45-.59.9-.88,1.35l-23.6-15s-18.26,23.66-17.38,25.43c-3.46-6.94-19.27-10-19.27-10"/><path class="cls-16" d="M125.1,175.33s-5.62,29.13,21.69,26.58c0-1.67-17.65,27.58-33.83,1.61C96.67,177.35,125.1,175.33,125.1,175.33Z"/><path class="cls-3" d="M127.86,216.24c-6.13,0-11.69-3.94-16.53-11.7-5.41-8.69-6.71-15.91-3.87-21.48,4.39-8.62,17-9.61,17.5-9.64l2.49-.18-.47,2.45c0,.13-2.25,12.26,3.59,19.32,3.19,3.85,8.29,5.54,15.26,5.05l.06-.05,6.63-.54-3.79,3.17,0,1-1.29.12-.59.69C143.85,208,136.75,216.24,127.86,216.24Zm-5-38.64c-3.42.66-9.57,2.48-12,7.22-2.18,4.28-.93,10.23,3.71,17.68,4.09,6.57,8.56,9.9,13.27,9.9,5.68,0,10.84-4.66,14.06-8.13l-1.26.11.56-.47c-5.86-.44-10.44-2.61-13.62-6.47C122.38,191.12,122.45,182,122.86,177.6Z"/><path class="cls-16" d="M171.17,175.33s5.62,29.13-21.69,26.58c.05-1.67,17.65,27.58,33.82,1.61C199.6,177.35,171.17,175.33,171.17,175.33Z"/><path class="cls-3" d="M168.41,216.24h0c-8.89,0-16-8.26-19-11.78l-.58-.69-1.3-.12,0-1.07-3.35-3,4.76.39.58,0a2,2,0,0,1,.69.12c.87.07,1.72.11,2.53.11h0c5.78,0,10.13-1.74,12.95-5.16,5.85-7.08,3.61-19.17,3.59-19.29l-.48-2.46,2.5.18c.53,0,13.11,1,17.5,9.64,2.84,5.57,1.53,12.79-3.88,21.48C180.1,212.3,174.54,216.24,168.41,216.24Zm-14.06-12c3.22,3.47,8.37,8.13,14.06,8.13h0c4.71,0,9.17-3.33,13.26-9.9,4.65-7.45,5.9-13.4,3.72-17.68-2.41-4.74-8.56-6.56-12-7.22.41,4.44.47,13.52-4.74,19.84-3.18,3.86-7.76,6-13.63,6.47l.57.47Z"/><path class="cls-15" d="M76.53,193.74c-1.38.42-3.21,2.53-3.06,3.67A135.35,135.35,0,0,0,77,214.49c.38,1.41,2.54,3.43,3.93,3.46,32-3.86,38.59-23.56,42.82-31.12a26.47,26.47,0,0,0,2.58-8.36c1.43-8.29,9.06-12.72,1.78-19.63-23.31-5.53-47.81-72.55-43.1-7.07-6.48,7.26-6.3,16-3.86,24.46C82.56,181.26,80.21,192.62,76.53,193.74Z"/><path class="cls-17" d="M174.42,170.6s3.85,75.17,2.65,83.83h46.08s-.41-57.89-2.29-60.52S203.8,177.8,174.42,170.6Z"/><path class="cls-3" d="M223.15,256.35H177.07a1.91,1.91,0,0,1-1.45-.66,1.94,1.94,0,0,1-.46-1.53c.94-6.7-1.33-57.53-2.66-83.46a1.92,1.92,0,0,1,2.38-2c30.44,7.46,45.79,21.59,47.55,24.06s2.45,34.94,2.65,61.62a1.93,1.93,0,0,1-1.93,1.94Zm-44-3.85h42.08c-.18-21.29-.86-54-2-57.6-1.89-2.41-15.93-14.7-42.74-21.8C177.1,185.77,179.7,239.13,179.14,252.5Z"/><path class="cls-15" d="M224.3,192.54c1.38.42,3.21,2.53,3,3.67a135.31,135.31,0,0,1-3.47,17.08c-.38,1.41-2.54,3.43-3.94,3.46-12,.27-33.75-4.34-42.82-31.12-1.42-2.54-7.49-14.82-8-17.67-1.44-8.29,4.34-6.46,11.62-13.38,6.92-6.57,26.37-22.32,31.75-29.16,5.51,5.4-2.33,18.76,3.37,25.14,6.48,7.27,6.3,16,3.85,24.46C218.27,180.06,220.62,191.42,224.3,192.54Z"/></svg>