<svg id="therapist" xmlns="http://www.w3.org/2000/svg" xmlns:xlink="http://www.w3.org/1999/xlink" viewBox="0 0 300 300"><defs><style>.cls-1{fill:none;}.cls-2{fill:#fcc393;}.cls-3{fill:#281912;}.cls-4{fill:#141211;}.cls-5{fill:#fffffb;}.cls-6{fill:#834c1f;}.cls-7{clip-path:url(#clip-path);}.cls-8{opacity:0.7;}.cls-9{fill:#f9a880;}.cls-10{clip-path:url(#clip-path-4);}.cls-11{clip-path:url(#clip-path-5);}.cls-12{fill:#fff;}.cls-13{fill:#301e12;}.cls-14{fill:#ec5e90;}.cls-15{fill:#231f20;fill-rule:evenodd;}.cls-16{fill:#a65e90;}.cls-17{fill:#775e90;}</style><clipPath id="clip-path"><rect class="cls-1" x="113.86" y="123.73" width="13.29" height="8.53"/></clipPath><clipPath id="clip-path-4"><rect class="cls-1" x="171.35" y="123.27" width="13.29" height="8.53"/></clipPath><clipPath id="clip-path-5"><rect class="cls-1" x="171.35" y="123.27" width="13.3" height="8.53"/></clipPath></defs><title>therapists</title><path class="cls-2" d="M130.05,156.28s.81,10.17-4.69,13.4-8.76,42.73-8.76,42.73l66.27,12-7.23-43.35-7.94-13.3s-2.62-4.28-1.14-11.5-36.56-5.81-36.51,0"/><path class="cls-3" d="M184.82,226.4,114.9,213.72l.12-1.43c.78-9.47,3.76-40.59,9.53-44,3.8-2.23,4.12-9.35,3.92-11.91v-.1a3.26,3.26,0,0,1,1-2.34c3.27-3.3,14.64-4.18,20.85-4.18,5.19,0,14.29.5,17,3.82a3.51,3.51,0,0,1,.76,3c-1.31,6.44.86,10.2.95,10.36l8.1,13.57.05.29m-58.9,30.29,62.62,11.35-6.81-40.82-7.78-13c-.11-.18-2.92-4.89-1.34-12.64,0-.08,0-.16-.12-.34-1-1.28-6-2.65-14.54-2.65-11.17,0-18,2.15-18.69,3.34.09,1.42.47,11.25-5.49,14.75-2.88,1.69-6.26,21.81-7.85,40.05"/><path class="cls-2" d="M197.08,104.42a5.31,5.31,0,0,0-1.59.28c-4.38-21.41-23.72-37.55-46.93-37.55-23.82,0-43.51,17-47.19,39.27a5.28,5.28,0,0,0-2.89-.91c-3.73,0-6.76,4.08-6.76,9.11s3,9.11,6.76,9.11a5.37,5.37,0,0,0,3.09-1c4.2,21.63,23.63,38,47,38s42.95-16.5,47-38.27a5.31,5.31,0,0,0,1.48.23c3.74,0,6.77-4.07,6.77-9.1s-3-9.11-6.77-9.11"/><path class="cls-3" d="M148.56,162.26c-23,0-42.91-15.54-48.12-37.25a6.53,6.53,0,0,1-2,.31c-4.6,0-8.35-4.8-8.35-10.7s3.75-10.7,8.35-10.7a6.57,6.57,0,0,1,1.7.23c4.69-22.48,24.71-38.59,48.38-38.59,22.95,0,42.95,15.59,48.15,37.29,4.8-.31,8.73,4.62,8.73,10.68s-3.9,10.87-8.59,10.69c-4.91,22.14-25,38-48.29,38M102.66,120l.46,2.41c4.14,21.26,23.25,36.7,45.44,36.7S190,143.53,194,122.1l.33-1.74,1.69.52a3.64,3.64,0,0,0,1,.16c2.81,0,5.18-3.44,5.18-7.51s-2.37-7.52-5.18-7.52a3.41,3.41,0,0,0-1.09.21l-1.7.55-.36-1.74c-4.3-21-23.38-36.29-45.37-36.29-22.8,0-42,16-45.62,37.94l-.4,2.38-2-1.3c-3.5-2.24-7.2,1.82-7.2,6.86s3.81,9.23,7.34,6.76Z"/><path class="cls-4" d="M131.33,113.52c0,3.64-2.36,6.6-5.27,6.6s-5.26-3-5.26-6.6,2.36-6.58,5.26-6.58,5.27,3,5.27,6.58"/><path class="cls-5" d="M127.15,113.53a2.13,2.13,0,1,1-2.12-2.3,2.21,2.21,0,0,1,2.12,2.3"/><path class="cls-4" d="M174.25,113.52c0,3.64-2.36,6.6-5.27,6.6s-5.27-3-5.27-6.6,2.37-6.58,5.27-6.58,5.27,3,5.27,6.58"/><path class="cls-5" d="M170.07,113.53a2.13,2.13,0,1,1-2.12-2.3,2.21,2.21,0,0,1,2.12,2.3"/><path class="cls-6" d="M143.53,125.54s6.95,1,7.91-2.85,0-11.46,0-11.46,4.3,5.78,2.15,12.76-13.37,1.49-10.06,1.55"/><g class="cls-7"><g class="cls-8"><g class="cls-7"><g class="cls-7"><path class="cls-9" d="M127.15,128c0,2.36-3,4.26-6.65,4.26s-6.64-1.9-6.64-4.26,3-4.26,6.64-4.26,6.65,1.9,6.65,4.26"/></g></g></g></g><g class="cls-10"><g class="cls-8"><g class="cls-11"><g class="cls-10"><path class="cls-9" d="M184.65,127.53c0,2.35-3,4.26-6.65,4.26s-6.65-1.91-6.65-4.26,3-4.26,6.65-4.26,6.65,1.91,6.65,4.26"/></g></g></g></g><path class="cls-12" d="M134.44,134.06s3.11,12.15,14.12,11.63,15.15-11.63,15.15-11.63-4.86,5.82-15.15,5.82c-10.57,0-14.12-5.82-14.12-5.82"/><path class="cls-13" d="M118.51,106a8,8,0,0,1,6.94-3c4.55.38,5,1.29,5.27-1.17s-1.92-3-5.27-2.58-9.81,7.5-6.94,6.72"/><path class="cls-13" d="M177.1,106a8,8,0,0,0-6.94-3c-4.54.38-5,1.29-5.26-1.17s1.92-3,5.26-2.58,9.82,7.5,6.94,6.72"/><path class="cls-14" d="M124.26,171.85s-5.91,25.54,21,24.68c30.29-1,23-16.14,23.76-26.61,0,0-2.77-.52,22.42,5.29s33.33,12.79,37.2,61.23c1.94,13.95-19,10.47-19,10.47l-125.56.83s-17.83,4.21-14-15.56,1.45-59.84,54.16-60.33"/><path class="cls-3" d="M80.34,249.71c-4.28,0-7.67-1.37-9.8-4-2.53-3.07-3.2-7.74-2-13.88.5-2.53.9-5.45,1.32-8.53,2.85-21,7.17-52.64,54.39-53.08a1.59,1.59,0,0,1,1.56,2c0,.1-2.28,10.34,3,17C131.87,193,137,195,143.92,195l1.26,0c10-.33,16.41-2.2,19.64-5.73s2.94-8.52,2.66-13.37a54,54,0,0,1-.12-5.53,1.61,1.61,0,0,1,0-.62,1.59,1.59,0,0,1,1.58-1.37,2.45,2.45,0,0,1,.38,0,1.23,1.23,0,0,1,.37.12c1,.25,5.12,1.27,22.11,5.18,26.79,6.19,34.59,14.68,38.43,62.66a9.93,9.93,0,0,1-2.09,8.22c-3.13,3.59-8.87,4.35-13.13,4.35a37.54,37.54,0,0,1-5.47-.39l-125.27.83a19.72,19.72,0,0,1-3.89.38m42-76.23C79.7,174.69,75.84,203,73,223.76c-.43,3.15-.83,6.11-1.35,8.73-1,5.15-.56,8.93,1.34,11.24s5,2.8,7.34,2.8a15.69,15.69,0,0,0,3.35-.34,2.21,2.21,0,0,1,.35,0l125.56-.83a1.42,1.42,0,0,1,.28,0,36,36,0,0,0,5.09.36c3.6,0,8.39-.56,10.73-3.25,1.23-1.42,1.67-3.31,1.33-5.79-3.88-48.49-12-54.35-36-59.9-10.32-2.38-17.28-4-20.53-4.79,0,1.18.08,2.41.15,3.7.3,5.24.63,11.18-3.49,15.69-3.85,4.2-11,6.41-21.9,6.76l-1.35,0c-8,0-13.92-2.36-17.62-7-4.74-6-4.4-14-3.92-17.65"/><path class="cls-15" d="M211.58,108.73c-2.65-22.43-10.48-43.24-24.2-61.37-3.6-4.76-8.73-8.52-13.63-12.09-6.84-5-14.3-6.15-22.5-2.6a15.41,15.41,0,0,1-9.56.61c-8.71-2.42-16.08-.54-23.33,4.53C96.81,52.89,83.07,68.54,84.73,99.72c2,36.93,15.4,40.63,20.81,36.82,1.26-.89-2.38-2.12-4.4-12.5a5.38,5.38,0,0,1-3.08,1c-3.73,0-6.76-4.08-6.76-9.11s3-9.1,6.76-9.1a5.27,5.27,0,0,1,2.89.9c3.68-22.26,23.37-39.27,47.19-39.27,23.21,0,42.54,16.14,46.93,37.56a5,5,0,0,1,1.59-.29c3.74,0,6.77,4.08,6.77,9.11s-3,9.11-6.77,9.11a4.93,4.93,0,0,1-1.48-.24c-1.87,10-6,14.44-13.18,21.11-.4,3.5-6.15,10.34-2.34,13.53s22.17-3.21,21.05-9.33c-.73-3.94-2.32-3.15.57-4.32s4.21-13.1,5.91-18.88,5-11.67,4.39-17.13"/><path class="cls-15" d="M84.73,99.72c-.08-31.22,12.08-46.83,33.63-61.91,7.25-5.07,14.62-7,23.33-4.53a15.41,15.41,0,0,0,9.56-.61c8.2-3.55,15.66-2.39,22.5,2.6,4.9,3.57,10,7.33,13.63,12.09,13.72,18.13,25.18,49.32,24.2,61.37-15.12-11.82-17.41.38-17.41.38-.88-9.36-14.51-15.18-24.82-23.69,2.49,5,6.44,8.65,9.27,14.33C159.43,91,143.81,93,128.73,80.39q7.17,8.83,14.36,17.66l-.84,1.3L119.72,85s-17.43,22.59-16.59,24.27c-3.31-6.61-18.4-9.56-18.4-9.56"/><path class="cls-16" d="M124.52,171.16s-5.37,27.81,20.7,25.37c0-1.59-16.84,26.33-32.28,1.54C97.38,173.09,124.52,171.16,124.52,171.16Z"/><path class="cls-3" d="M127.16,210.21c-5.86,0-11.16-3.76-15.78-11.17-5.16-8.29-6.41-15.19-3.7-20.5,4.19-8.23,16.2-9.17,16.71-9.21l2.38-.17-.45,2.34c0,.12-2.15,11.7,3.43,18.44,3,3.68,7.91,5.3,14.56,4.82l.06,0,6.33-.51-3.62,3,0,1-1.23.11-.56.65C142.42,202.33,135.64,210.21,127.16,210.21Zm-4.78-36.89c-3.26.63-9.14,2.37-11.44,6.89-2.07,4.09-.88,9.77,3.55,16.89,3.91,6.27,8.17,9.44,12.67,9.44,5.42,0,10.34-4.44,13.42-7.76l-1.21.11.54-.45c-5.6-.42-10-2.49-13-6.17C121.93,186.24,122,177.56,122.38,173.32Z"/><path class="cls-16" d="M168.5,171.16s5.37,27.81-20.7,25.37c0-1.59,16.85,26.33,32.29,1.54C195.64,173.09,168.5,171.16,168.5,171.16Z"/><path class="cls-3" d="M165.87,210.21h0c-8.48,0-15.26-7.88-18.16-11.25l-.56-.65-1.23-.11,0-1-3.2-2.89,4.55.37.55,0a1.93,1.93,0,0,1,.67.12c.82.06,1.63.1,2.4.1h0c5.51,0,9.67-1.66,12.36-4.92,5.59-6.77,3.45-18.31,3.42-18.42l-.45-2.35,2.39.17c.5,0,12.51,1,16.7,9.21,2.71,5.31,1.47,12.21-3.7,20.5C177,206.45,171.72,210.21,165.87,210.21Zm-13.43-11.43c3.08,3.32,8,7.76,13.43,7.76h0c4.5,0,8.75-3.17,12.66-9.44,4.43-7.12,5.62-12.8,3.55-16.89-2.3-4.52-8.18-6.26-11.44-6.89.39,4.24.45,12.91-4.53,19-3,3.68-7.4,5.75-13,6.17l.54.45Z"/><path class="cls-15" d="M78.15,188.73c-1.31.4-3.06,2.42-2.91,3.51a130,130,0,0,0,3.31,16.3c.37,1.35,2.43,3.27,3.76,3.3,30.59-3.68,36.84-22.48,40.88-29.71a25.17,25.17,0,0,0,2.45-8c1.38-7.91,8.65-12.14,1.7-18.74-22.24-5.27-45.63-69.26-41.14-6.75-6.19,6.93-6,15.25-3.68,23.35C83.91,176.82,81.66,187.66,78.15,188.73Z"/><path class="cls-17" d="M171.6,166.64s3.68,71.76,2.53,80h44s-.4-55.26-2.19-57.78S199.65,173.51,171.6,166.64Z"/><path class="cls-3" d="M218.13,248.5h-44a1.84,1.84,0,0,1-1.82-2.09c.9-6.4-1.27-54.91-2.54-79.68a1.84,1.84,0,0,1,.66-1.5,1.87,1.87,0,0,1,1.61-.37c29.07,7.12,43.72,20.61,45.39,23s2.35,33.35,2.53,58.82a1.83,1.83,0,0,1-1.83,1.85Zm-42-3.67h40.17c-.17-20.33-.82-51.56-1.92-55-1.8-2.3-15.2-14-40.8-20.81C174.17,181.12,176.65,232.07,176.11,244.83Z"/><path class="cls-15" d="M219.22,187.58c1.32.4,3.06,2.42,2.92,3.51a128.81,128.81,0,0,1-3.32,16.31c-.36,1.34-2.43,3.27-3.76,3.29-11.47.27-32.22-4.14-40.87-29.7-1.36-2.42-7.16-14.15-7.63-16.87-1.38-7.91,4.14-6.17,11.09-12.77,6.61-6.28,25.17-21.31,30.31-27.84,5.26,5.15-2.23,17.91,3.21,24,6.19,6.94,6,15.26,3.68,23.35C213.47,175.68,215.71,186.52,219.22,187.58Z"/></svg>