<?xml version="1.0" encoding="utf-8"?>
<!-- Generator: Adobe Illustrator 16.0.0, SVG Export Plug-In . SVG Version: 6.00 Build 0)  -->
<!DOCTYPE svg PUBLIC "-//W3C//DTD SVG 1.1//EN" "http://www.w3.org/Graphics/SVG/1.1/DTD/svg11.dtd">
<svg version="1.1" id="Layer_1" xmlns="http://www.w3.org/2000/svg" xmlns:xlink="http://www.w3.org/1999/xlink" x="0px" y="0px"
	 width="500px" height="500px" viewBox="0 0 500 500" enable-background="new 0 0 500 500" xml:space="preserve">
<g id="Layer_1_copy_11">
	<path fill="#F7941E" stroke="#3C2415" stroke-width="4.0693" stroke-miterlimit="10" d="M278.591,237.032
		c0,0,30.274,34.726,35.434,41.602c5.157,6.875,12.537,26.374,10.503,35.53c0,0-21.026,1.018-18.991,12.208
		c2.034,11.188,9.509,15.601,19.336,13.905c9.829-1.699,14.812-9.824,15.709-28.821c0.897-18.996,0-48.836,0-48.836
		s-6.898-9.867-7.577-16.972c-0.68-7.106-1.598-19.939-1.598-19.939s-20.784-16.671-31.976-7.853
		C288.24,226.675,269.141,226.146,278.591,237.032z"/>
	<path fill="#F7941E" stroke="#3C2415" stroke-width="4.0693" stroke-miterlimit="10" d="M157.502,220.876
		c4.896,12.855,18.55,27.192,20.975,37.363c2.42,10.167,7.26,52.14,9.474,60.776c2.218,8.633-0.349,8.116-2.619,9.373
		c-2.269,1.256-21.578,13.543-13.674,24.104c7.9,10.562,23.538-4.021,27.834-6.461c4.295-2.433,13.614-13.408,12.883-24.917
		c-0.728-11.514,1.713-73.418,1.054-78.01c-0.664-4.594-4.006-25.151,0.564-30.075"/>
	<path fill="#FFFFFF" stroke="#3C2415" stroke-width="3.052" stroke-miterlimit="10" d="M174.185,252.673
		c0,0,5.548,10.871,36.068,11.212c30.519,0.34,92.91-38.997,99.354-39.336c6.445-0.34,28.822,3.052,28.822,3.052
		s13.424-16.263-4.307-24.579C316.391,194.706,138.117,210.944,174.185,252.673z"/>
	<path fill="#F7941E" stroke="#3C2415" stroke-width="4.0693" stroke-miterlimit="10" d="M89.694,149.944
		c0,0,10.174-11.7,3.562-16.787c-6.612-5.086-12.248-13.733-18.586-7.375c-6.339,6.358-8.628,16.786-16.257,20.093
		c-7.631,3.306-20.093,18.24-28.231,36.079c-8.138,17.839-5.596,19.11-5.851,22.162c-0.253,3.052,6.359,9.919,14.498,8.139
		c8.139-1.78,9.41,8.902,9.41,8.902s4.697,9.665,8.961,6.358c4.264-3.307,7.825-13.479,15.455-12.462
		c7.629,1.018,19.837-3.306,21.617-6.613c1.781-3.306,8.139-4.578,13.479-2.289c5.341,2.289,17.041,5.85,17.804,19.584
		c0.764,13.734,9.427,31.539,8.647,41.964c-0.779,10.426-8.902,51.884-9.41,60.785c-0.509,8.9-2.798,7.63-5.341,8.14
		c-2.544,0.509-24.67,6.356-20.347,18.819s23.652,3.308,28.485,2.289c4.832-1.018,17.039-8.646,19.837-19.838
		c2.798-11.19,23.908-69.433,24.671-74.01c0.764-4.58,3.814-25.179,9.664-28.486c5.851-3.306,26.451-0.079,34.843-5.762
		c8.394-5.683,27.978-9.752,38.914-8.48c10.937,1.272,27.722-3.561,33.825-9.919c6.104-6.358,34.08-17.549,47.561,17.04
		c13.479,34.589,20.801,41.201,32.271,55.699c11.474,14.496,21.394,18.312,22.664,25.688c1.271,7.375,0,25.687,0,25.687
		s-16.021-2.797-16.276,5.088c-0.256,7.884-1.671,22.127,16.842,19.584c18.51-2.543,19.78-11.445,18.51-24.416
		c-1.271-12.973,0.357-48.832,0.357-48.832s-1.119-11.836-6.971-19.65c-5.85-7.818-13.987-47.747-12.462-58.175
		c1.525-10.427-3.561-39.421-3.561-39.421s11.953,4.578,13.731,15.514c1.781,10.936,15.771,64.938,40.694,84.1
		c24.924,19.158,34.843,14.328,34.843,13.564s7.63-3.479-8.139-13.564c-15.769-10.088-33.062-29.417-39.166-48.493
		c-6.104-19.075-36.29-89.751-61.509-89.129c-2.583-4.21-31.441-27.672-65.464-17.467c-34.021,10.205-68.608,22.44-110.064,17.467
		C151.752,126.545,113.455,117.934,89.694,149.944z"/>
	
		<ellipse fill="#FFFFFF" stroke="#3C2415" stroke-width="3.052" stroke-miterlimit="10" cx="65.935" cy="171.139" rx="8.735" ry="10.815"/>
	<path fill="#3C2415" d="M67.695,171.892c0,2.562-1.598,4.636-3.569,4.636c-1.967,0-3.563-2.074-3.563-4.636
		c0-2.559,1.597-4.634,3.563-4.634C66.098,167.258,67.695,169.333,67.695,171.892z"/>
	<path fill="#3C2415" d="M129.37,245.318l4.324,14.75c0,0,4.069-1.271,9.41-2.289c5.341-1.019,16.531-8.392,16.531-8.392
		s-15.768-4.578-21.618-4.069C132.168,245.827,129.37,245.318,129.37,245.318z"/>
	<path fill="#3C2415" d="M134.203,273.548l-2.289,13.479c0,0,4.323,2.798,9.919,2.035c5.595-0.765,16.022-3.685,16.022-7.691
		c0-4.008,0-6.805,0-6.805L134.203,273.548z"/>
	<path fill="#3C2415" d="M131.914,302.542l-2.544,11.19c0,0,5.088,4.832,6.104,5.086c1.018,0.256,7.122-0.762,9.028-4.577
		c1.908-3.814,4.451-7.12,4.96-9.664c0.508-2.544,0.508-4.323,0-4.323C148.954,300.254,140.561,306.867,131.914,302.542z"/>
	<path fill="#3C2415" d="M181.763,269.479v10.174c0,0,10.428,3.307,12.463,4.07c2.034,0.762,6.357,3.053,6.357,3.053
		s3.814-3.562,1.271-8.647c-2.543-5.087-3.814-7.886-7.375-8.647C190.919,268.717,181.763,269.479,181.763,269.479z"/>
	<path fill="#3C2415" d="M186.087,301.781v10.936c0,0,11.698,0.29,13.733-3.162c2.034-3.451,7.121-7.772,7.121-7.772
		s-9.156-1.273-11.699,0C192.699,303.052,186.087,301.781,186.087,301.781z"/>
	<path fill="#3C2415" d="M292.906,252.693l10.173,12.972c0,0,17.549-10.427,17.294-12.972c-0.253-2.542-2.288-7.629-6.104-5.085
		c-3.813,2.544-14.496,6.357-16.276,5.085C296.212,251.421,292.906,252.693,292.906,252.693z"/>
	<path fill="#3C2415" d="M314.27,276.602l7.631,10.174c0,0,12.717-10.174,12.208-12.973c-0.51-2.798-1.019-4.662-1.019-4.662
		S323.171,279.398,314.27,276.602z"/>
	<path fill="#3C2415" d="M338.431,230.567c0,0,4.069,15.398,6.358,16.347c2.289,0.947,22.891-13.549,23.907-16.347
		c1.018-2.798-17.549,1.78-22.127,0C344.666,230.017,338.431,230.567,338.431,230.567z"/>
	<path fill="#3C2415" d="M356.997,265.665l8.901,12.292c0,0,13.988-10.766,15.006-13.818c1.017-3.051,0-7.847,0-7.847
		s-9.665,10.646-15.771,9.373C359.032,264.393,356.997,265.665,356.997,265.665z"/>
	<path fill="#3C2415" d="M373.273,288.809l11.19,10.428c0,0,13.479-14.074,9.919-21.279
		C391.586,281.18,374.546,290.589,373.273,288.809z"/>
	<path fill="#3C2415" d="M111.059,133.413c0,0,21.364,24.416,20.602,54.427c-0.51,1.271,3.306-7.884,8.393-9.919
		c5.087-2.035,1.78-14.632,0-17.235c-1.78-2.603-15.005-31.851-15.005-31.851S112.84,130.615,111.059,133.413z"/>
	<path fill="#3C2415" d="M148.191,128.834c0,0,21.109,30.011,23.397,54.427c2.29,24.416,4.579,17.295,4.579,17.295
		s11.445-19.552,8.393-24.019c-3.052-4.467-10.937-28.628-10.937-33.46s-1.78-14.243-1.78-14.243S151.243,127.054,148.191,128.834z"
		/>
	<path fill="#3C2415" d="M199.82,133.158c0,0,3.053,33.827,7.885,41.965c4.831,8.138,2.034,22.278,1.78,26.398
		c-0.255,4.121,10.937-0.457,11.189-11.139c0.255-10.682-6.612-32.045-5.341-39.167s1.271-18.058,1.271-18.058L199.82,133.158
		L199.82,133.158z"/>
	<path fill="#3C2415" d="M235.427,133.158c0,0,11.699,38.404,16.023,49.849c4.323,11.445,6.356,15.26,6.356,15.26
		s8.395-9.156,4.578-25.688c-3.814-16.532-4.578-23.398-5.086-27.722c-0.509-4.323-5.85-16.023-5.85-16.023L235.427,133.158z"/>
	<path fill="#3C2415" d="M272.305,123.494c0,0,11.699,18.566,13.227,26.196c1.525,7.63,4.068,35.352,4.068,35.352
		s13.226-0.508,10.428-13.988c-2.799-13.48-5.58-21.618,0.391-26.451c5.969-4.832,1.136-8.393-1.407-9.665
		s-16.022-17.04-16.022-17.04S270.783,121.018,272.305,123.494z"/>
	<path fill="#3C2415" d="M315.796,115.101c0,0,4.324,26.196,3.051,38.658c-1.271,12.462,1.531,26.196,1.531,26.196
		s11.44-1.271,12.457-16.404c1.018-15.133,2.798-26.069,5.596-30.393c2.798-4.323,2.543-16.531,2.543-16.531
		S319.61,112.048,315.796,115.101z"/>
	<path fill="#3C2415" d="M366.661,131.632c0,0-11.698,24.416-11.953,33.572c-0.255,9.156-6.104,23.398-7.121,27.467
		c-1.017,4.069,20.681-3.561,21.149-9.41c0.47-5.849,1.23-19.329,3.266-22.381c2.035-3.052,8.14-11.191,8.14-11.191
		S372.257,129.852,366.661,131.632z"/>
</g>
</svg>
