<?xml version="1.0" encoding="utf-8"?>
<!-- Generator: Adobe Illustrator 16.0.0, SVG Export Plug-In . SVG Version: 6.00 Build 0)  -->
<!DOCTYPE svg PUBLIC "-//W3C//DTD SVG 1.1//EN" "http://www.w3.org/Graphics/SVG/1.1/DTD/svg11.dtd">
<svg version="1.1" id="Layer_1" xmlns="http://www.w3.org/2000/svg" xmlns:xlink="http://www.w3.org/1999/xlink" x="0px" y="0px"
	 width="500px" height="500px" viewBox="0 0 500 500" enable-background="new 0 0 500 500" xml:space="preserve">
<g id="Layer_1_copy_75">
	<g>
		<g>
			<g>
				<path fill="#FAA625" d="M235.728,261.762c0,45.205-36.648,81.856-81.855,81.856c-45.211,0-81.862-36.651-81.862-81.856
					c0-45.206,36.651-81.856,81.862-81.856C199.079,179.906,235.728,216.557,235.728,261.762z"/>
				<path fill="#27140E" d="M153.872,344.719c-45.747,0-82.962-37.217-82.962-82.957c0-45.743,37.215-82.957,82.962-82.957
					c45.743,0,82.959,37.214,82.959,82.957C236.831,307.502,199.615,344.719,153.872,344.719z M153.872,181.008
					c-44.531,0-80.76,36.224-80.76,80.754c0,44.529,36.229,80.756,80.76,80.756c44.529,0,80.757-36.227,80.757-80.756
					C234.629,217.232,198.401,181.008,153.872,181.008z"/>
			</g>
			<g>
				<path fill="#2C2010" d="M153.872,345.923c-46.407,0-84.162-37.754-84.162-84.161c0-46.404,37.755-84.153,84.162-84.153
					c46.404,0,84.161,37.749,84.161,84.153C238.033,308.169,200.276,345.923,153.872,345.923z M153.872,182.207
					c-43.867,0-79.559,35.687-79.559,79.555c0,43.879,35.691,79.566,79.559,79.566s79.562-35.688,79.562-79.566
					C233.434,217.894,197.74,182.207,153.872,182.207z"/>
				<path fill="#27140E" d="M153.872,347.021c-47.015,0-85.261-38.25-85.261-85.26c0-47.011,38.246-85.257,85.261-85.257
					c47.016,0,85.261,38.246,85.261,85.257C239.133,308.771,200.888,347.021,153.872,347.021z M153.872,178.711
					c-45.8,0-83.054,37.256-83.054,83.051c0,45.797,37.254,83.059,83.054,83.059c45.8,0,83.056-37.262,83.056-83.059
					C236.928,215.967,199.672,178.711,153.872,178.711z M153.872,342.432c-44.478,0-80.662-36.189-80.662-80.67
					c0-44.475,36.185-80.66,80.662-80.66c44.476,0,80.66,36.185,80.66,80.66C234.532,306.242,198.348,342.432,153.872,342.432z
					 M153.872,183.308c-43.264,0-78.46,35.194-78.46,78.456c0,43.269,35.196,78.463,78.46,78.463
					c43.261,0,78.455-35.194,78.455-78.463C232.327,218.501,197.133,183.308,153.872,183.308z"/>
			</g>
		</g>
		<g>
			<g>
				<polygon fill="#FDD71E" points="212.012,180.514 234.866,203.105 249.407,168.05 				"/>
				<path fill="#27140E" d="M235.258,205.044l-25.294-25.009l41.386-13.796L235.258,205.044z M214.062,180.991l20.413,20.183
					l12.983-31.317L214.062,180.991z"/>
			</g>
			<g>
				<path fill="#2C2010" d="M234.866,205.405c-0.604,0-1.186-0.235-1.616-0.661l-22.856-22.597
					c-0.566-0.558-0.804-1.376-0.624-2.155c0.184-0.782,0.755-1.406,1.512-1.656l37.395-12.471c0.856-0.287,1.798-0.043,2.41,0.618
					c0.615,0.655,0.792,1.615,0.442,2.448l-14.541,35.054c-0.298,0.707-0.919,1.222-1.673,1.377
					C235.164,205.393,235.014,205.405,234.866,205.405z M216.285,181.512l17.763,17.555l11.307-27.246L216.285,181.512z"/>
				<path fill="#27140E" d="M234.866,206.506c-0.901,0-1.753-0.344-2.39-0.977l-22.858-22.599c-0.829-0.819-1.186-2.044-0.922-3.184
					c0.269-1.164,1.109-2.082,2.241-2.455l37.392-12.467c1.239-0.414,2.669-0.051,3.563,0.907c0.91,0.974,1.162,2.396,0.648,3.625
					l-14.533,35.052c-0.441,1.05-1.368,1.811-2.474,2.033C235.312,206.485,235.085,206.506,234.866,206.506z M249.407,166.85
					c-0.131,0-0.257,0.021-0.378,0.062l-37.399,12.467c-0.398,0.133-0.692,0.455-0.786,0.864c-0.094,0.404,0.028,0.834,0.319,1.122
					l22.862,22.597c0.276,0.271,0.676,0.399,1.075,0.318c0.391-0.078,0.714-0.348,0.873-0.718l14.536-35.052
					c0.183-0.435,0.093-0.932-0.228-1.273C250.053,166.992,249.733,166.85,249.407,166.85z M234.439,201.005l-20.206-19.97
					l33.065-11.024L234.439,201.005z M218.336,181.992l15.318,15.144l9.757-23.504L218.336,181.992z"/>
			</g>
		</g>
		<g>
			<g>
				<polygon fill="#FDD71E" points="251.693,244.587 252.029,276.718 287.034,262.044 				"/>
				<path fill="#27140E" d="M250.945,278.369l-0.375-35.565l39.117,19.32L250.945,278.369z M252.814,246.373l0.303,28.7
					l31.263-13.113L252.814,246.373z"/>
			</g>
			<g>
				<path fill="#2C2010" d="M252.029,279.02c-0.437,0-0.879-0.129-1.262-0.379c-0.637-0.425-1.023-1.131-1.035-1.896l-0.339-32.135
					c-0.01-0.797,0.394-1.54,1.07-1.967c0.683-0.421,1.527-0.468,2.242-0.116l35.344,17.458c0.812,0.396,1.312,1.23,1.284,2.133
					c-0.037,0.896-0.586,1.701-1.413,2.048l-34.999,14.672C252.639,278.958,252.334,279.02,252.029,279.02z M254.032,248.305
					l0.262,24.972l27.207-11.406L254.032,248.305z"/>
				<path fill="#27140E" d="M252.029,280.121c-0.658,0-1.301-0.195-1.861-0.559c-0.948-0.629-1.521-1.674-1.537-2.805l-0.338-32.135
					c-0.016-1.175,0.596-2.288,1.591-2.913c0.991-0.615,2.277-0.686,3.312-0.17l35.346,17.457c1.188,0.58,1.938,1.819,1.896,3.146
					c-0.051,1.34-0.873,2.529-2.09,3.037l-34.998,14.674C252.923,280.029,252.48,280.121,252.029,280.121z M251.698,243.394
					c-0.23,0-0.453,0.064-0.65,0.184c-0.349,0.22-0.557,0.602-0.551,1.02l0.339,32.138c0.006,0.394,0.207,0.764,0.542,0.981
					c0.326,0.216,0.743,0.259,1.131,0.099l34.984-14.666c0.432-0.182,0.719-0.604,0.737-1.075c0.015-0.464-0.244-0.896-0.666-1.095
					l-35.347-17.462C252.055,243.433,251.878,243.394,251.698,243.394z M253.206,274.925l-0.299-28.402l31.247,15.431
					L253.206,274.925z M255.152,250.088l0.227,21.539l23.467-9.836L255.152,250.088z"/>
			</g>
		</g>
		<g>
			<g>
				<polygon fill="#FDD71E" points="234.413,320.841 211.774,343.652 246.799,358.264 				"/>
				<path fill="#27140E" d="M248.608,360.208l-38.771-16.166l25.058-25.254L248.608,360.208z M213.709,343.266l31.286,13.047
					l-11.062-33.424L213.709,343.266z"/>
			</g>
			<g>
				<path fill="#2C2010" d="M246.799,360.564c-0.299,0-0.597-0.062-0.88-0.176l-35.032-14.619c-0.703-0.295-1.218-0.924-1.369-1.67
					c-0.146-0.755,0.083-1.521,0.621-2.074l22.646-22.801c0.562-0.58,1.378-0.812,2.154-0.617c0.779,0.177,1.4,0.756,1.66,1.5
					l12.384,37.431c0.28,0.856,0.043,1.803-0.617,2.413C247.933,360.348,247.374,360.564,246.799,360.564z M215.809,342.841
					l27.229,11.358l-9.625-29.085L215.809,342.841z"/>
				<path fill="#27140E" d="M246.799,361.669c-0.442,0-0.877-0.086-1.297-0.257l-35.036-14.624
					c-1.048-0.438-1.806-1.364-2.028-2.474c-0.219-1.11,0.126-2.254,0.915-3.062L232,318.445c0.812-0.83,2.068-1.191,3.203-0.908
					c1.122,0.252,2.063,1.104,2.435,2.221l12.391,37.428c0.417,1.277,0.058,2.674-0.92,3.572
					C248.479,361.344,247.661,361.669,246.799,361.669z M234.395,319.641c-0.312,0-0.605,0.127-0.824,0.354l-22.647,22.809
					c-0.28,0.282-0.398,0.686-0.327,1.08c0.079,0.383,0.355,0.715,0.723,0.877l35.02,14.606c0.432,0.182,0.938,0.087,1.272-0.226
					c0.344-0.324,0.474-0.815,0.322-1.264l-12.385-37.425c-0.129-0.379-0.455-0.685-0.854-0.772
					C234.579,319.654,234.484,319.641,234.395,319.641z M244.845,356.148l-30.969-12.926l20.018-20.154L244.845,356.148z
					 M217.748,342.456l23.487,9.798l-8.309-25.091L217.748,342.456z"/>
			</g>
		</g>
		<g>
			<g>
				<polygon fill="#FDD71E" points="170.26,360.391 138.122,360.675 152.729,395.707 				"/>
				<path fill="#27140E" d="M152.641,398.354l-16.166-38.763l35.57-0.312L152.641,398.354z M139.768,361.764l13.05,31.286
					l15.656-31.541L139.768,361.764z"/>
			</g>
			<g>
				<path fill="#2C2010" d="M152.729,397.996c-0.028,0-0.053,0-0.077,0c-0.901-0.02-1.703-0.578-2.044-1.405L136,361.552
					c-0.296-0.704-0.223-1.511,0.204-2.151c0.421-0.637,1.136-1.022,1.896-1.032l32.141-0.274c0.754,0.006,1.545,0.401,1.968,1.084
					c0.425,0.672,0.467,1.522,0.11,2.237l-17.534,35.31C154.396,397.516,153.6,397.996,152.729,397.996z M141.556,362.936
					l11.354,27.232l13.624-27.445L141.556,362.936z"/>
				<path fill="#27140E" d="M152.729,399.1h-0.077c-1.355-0.029-2.548-0.853-3.062-2.095l-14.608-35.032
					c-0.438-1.041-0.326-2.234,0.303-3.185c0.621-0.937,1.666-1.513,2.802-1.521l32.146-0.277c1.197,0.011,2.304,0.628,2.911,1.602
					c0.62,0.993,0.686,2.264,0.161,3.32l-17.531,35.301C155.198,398.381,154.033,399.1,152.729,399.1z M170.229,359.191
					l-32.118,0.279c-0.398,0-0.769,0.198-0.987,0.534c-0.224,0.341-0.26,0.752-0.107,1.122l14.604,35.027
					c0.185,0.44,0.598,0.729,1.06,0.74l0.05,1.101v-1.101c0.457,0,0.87-0.252,1.068-0.656l17.534-35.309
					c0.185-0.369,0.162-0.822-0.058-1.171C171.067,359.426,170.646,359.195,170.229,359.191z M152.823,392.82l-12.911-30.971
					l28.409-0.24L152.823,392.82z M143.204,364.027L153,387.51l11.752-23.67L143.204,364.027z"/>
			</g>
		</g>
		<g>
			<g>
				<polygon fill="#FDD71E" points="171.589,164.39 139.473,163.655 154.581,128.834 				"/>
				<path fill="#27140E" d="M173.358,165.53l-35.549-0.812l16.717-38.537L173.358,165.53z M141.136,162.591l28.684,0.654
					l-15.193-31.754L141.136,162.591z"/>
			</g>
			<g>
				<path fill="#2C2010" d="M171.589,166.687c-0.016,0-0.033,0-0.052,0l-32.118-0.734c-0.765-0.015-1.469-0.413-1.882-1.058
					c-0.413-0.646-0.479-1.451-0.174-2.155l15.104-34.821c0.359-0.825,1.167-1.362,2.065-1.382c0.898-0.057,1.729,0.494,2.116,1.306
					l16.867,35.242c0.256,0.373,0.398,0.821,0.398,1.306c0.004,1.276-0.98,2.324-2.309,2.297
					C171.602,166.687,171.598,166.687,171.589,166.687z M142.943,161.435l24.955,0.569l-13.222-27.629L142.943,161.435z"/>
				<path fill="#27140E" d="M171.655,167.791h-0.071l-32.19-0.738c-1.131-0.021-2.173-0.607-2.784-1.562
					c-0.614-0.959-0.707-2.15-0.259-3.19l15.107-34.82c0.525-1.216,1.729-2.018,3.054-2.045h0.011c1.395,0,2.562,0.759,3.122,1.93
					l16.864,35.244c0.306,0.42,0.513,1.085,0.513,1.78c0,0.921-0.352,1.785-0.991,2.426
					C173.405,167.444,172.565,167.791,171.655,167.791z M154.662,127.634c-0.574,0.014-0.997,0.296-1.185,0.724l-15.104,34.819
					c-0.159,0.367-0.126,0.788,0.089,1.126c0.216,0.333,0.583,0.539,0.977,0.546l32.123,0.732l0.093,1.105v-1.101
					c0.402,0,0.664-0.18,0.816-0.327c0.223-0.222,0.345-0.529,0.345-0.869c0-0.248-0.076-0.481-0.209-0.683l-16.953-35.389
					C155.459,127.908,155.062,127.634,154.662,127.634z M169.669,163.148l-28.393-0.65l13.354-30.778L169.669,163.148z
					 M144.603,160.371l21.529,0.494l-11.4-23.834L144.603,160.371z"/>
			</g>
		</g>
		<g>
			<g>
				<polygon fill="#FDD71E" points="97.946,180.384 74.606,202.469 60.835,167.103 				"/>
				<path fill="#27140E" d="M74.172,204.396l-15.24-39.144l41.077,14.703L74.172,204.396z M62.739,168.957l12.299,31.589
					l20.851-19.727L62.739,168.957z"/>
			</g>
			<g>
				<path fill="#2C2010" d="M74.606,204.768c-0.164,0-0.339-0.016-0.503-0.054c-0.747-0.169-1.36-0.697-1.641-1.408l-13.769-35.368
					c-0.327-0.839-0.137-1.794,0.492-2.439c0.628-0.645,1.572-0.864,2.422-0.559l37.114,13.28c0.75,0.27,1.307,0.908,1.473,1.69
					c0.161,0.784-0.09,1.591-0.668,2.144l-23.34,22.081C75.754,204.549,75.188,204.768,74.606,204.768z M64.808,170.963l10.7,27.492
					l18.14-17.167L64.808,170.963z"/>
				<path fill="#27140E" d="M74.606,205.87c-0.251,0-0.491-0.027-0.732-0.079c-1.117-0.253-2.025-1.035-2.436-2.088l-13.771-35.366
					c-0.485-1.241-0.194-2.656,0.732-3.606c0.905-0.935,2.355-1.27,3.584-0.826l37.108,13.279c1.12,0.4,1.937,1.338,2.181,2.5
					c0.244,1.147-0.138,2.362-0.988,3.17L76.946,204.94C76.31,205.538,75.483,205.87,74.606,205.87z M60.828,165.905
					c-0.316,0-0.624,0.133-0.851,0.361c-0.327,0.338-0.424,0.833-0.259,1.271l13.774,35.366c0.144,0.374,0.467,0.645,0.859,0.738
					c0.326,0.068,0.789-0.03,1.077-0.302l23.34-22.086c0.302-0.288,0.435-0.706,0.347-1.114c-0.084-0.409-0.371-0.741-0.764-0.881
					l-37.114-13.281C61.106,165.931,60.972,165.905,60.828,165.905z M75.077,200.378l-12.173-31.266l32.806,11.739L75.077,200.378z
					 M66.709,172.816l9.234,23.711l15.646-14.808L66.709,172.816z"/>
			</g>
		</g>
		<g>
			<g>
				<polygon fill="#FDD71E" points="55.128,245.805 54.467,277.924 19.607,262.9 				"/>
				<path fill="#27140E" d="M55.534,279.588l-38.581-16.632l39.313-18.926L55.534,279.588z M22.266,262.842L53.4,276.268
					l0.593-28.693L22.266,262.842z"/>
			</g>
			<g>
				<path fill="#2C2010" d="M54.467,280.225c-0.312,0-0.618-0.062-0.908-0.186l-34.856-15.031c-0.825-0.354-1.368-1.16-1.387-2.062
					c-0.021-0.9,0.489-1.728,1.302-2.117l35.516-17.096c0.719-0.349,1.565-0.292,2.238,0.135c0.671,0.433,1.069,1.181,1.051,1.983
					l-0.659,32.123c-0.014,0.769-0.41,1.469-1.053,1.887C55.329,280.105,54.901,280.225,54.467,280.225z M25.146,262.786
					L52.24,274.46l0.514-24.965L25.146,262.786z"/>
				<path fill="#27140E" d="M54.467,281.325c-0.467,0-0.92-0.095-1.343-0.273l-34.856-15.028c-1.224-0.521-2.028-1.725-2.055-3.055
					c-0.027-1.324,0.725-2.554,1.919-3.135l35.523-17.094c1.041-0.499,2.332-0.422,3.308,0.201c0.989,0.634,1.589,1.76,1.566,2.933
					l-0.664,32.124c-0.021,1.13-0.604,2.172-1.555,2.787C55.76,281.137,55.125,281.325,54.467,281.325z M55.125,244.608
					c-0.18,0-0.356,0.037-0.515,0.113l-35.516,17.097c-0.423,0.207-0.69,0.64-0.68,1.104c0.012,0.471,0.291,0.891,0.722,1.069
					l34.856,15.038c0.353,0.145,0.79,0.117,1.117-0.098c0.338-0.22,0.542-0.584,0.548-0.988l0.664-32.118
					c0.01-0.42-0.196-0.804-0.552-1.03C55.58,244.673,55.354,244.608,55.125,244.608z M53.307,276.117l-30.814-13.274l31.396-15.114
					L53.307,276.117z M27.806,262.73L51.17,272.8l0.445-21.532L27.806,262.73z"/>
			</g>
		</g>
		<g>
			<g>
				<polygon fill="#FDD71E" points="71.267,319.412 93.403,342.712 58.06,356.551 				"/>
				<path fill="#27140E" d="M56.213,358.462l14.619-41.112l24.497,25.789L56.213,358.462z M71.704,321.471l-11.799,33.174
					l31.568-12.365L71.704,321.471z"/>
			</g>
			<g>
				<path fill="#2C2010" d="M58.062,358.857c-0.589,0-1.164-0.229-1.602-0.653c-0.646-0.624-0.866-1.565-0.564-2.413l13.207-37.15
					c0.266-0.75,0.905-1.313,1.685-1.479c0.779-0.172,1.596,0.085,2.145,0.669l22.138,23.294c0.527,0.56,0.743,1.34,0.578,2.081
					c-0.168,0.751-0.697,1.367-1.404,1.646L58.9,358.689C58.626,358.8,58.343,358.857,58.062,358.857z M72.178,323.708
					l-10.265,28.87l27.471-10.762L72.178,323.708z"/>
				<path fill="#27140E" d="M58.062,359.96c-0.887,0-1.728-0.345-2.364-0.961c-0.958-0.921-1.285-2.332-0.84-3.578l13.203-37.153
					c0.396-1.108,1.355-1.945,2.504-2.186c1.082-0.236,2.367,0.131,3.172,0.99l22.13,23.295c0.781,0.814,1.105,1.967,0.854,3.076
					c-0.244,1.109-1.023,2.022-2.079,2.431l-35.34,13.839C58.921,359.874,58.497,359.96,58.062,359.96z M71.276,318.207
					c-0.082,0-0.168,0.016-0.246,0.029c-0.418,0.086-0.751,0.381-0.889,0.771l-13.207,37.148c-0.159,0.438-0.043,0.932,0.29,1.251
					c0.339,0.327,0.849,0.428,1.255,0.266l35.362-13.85c0.37-0.144,0.643-0.464,0.729-0.859c0.085-0.38-0.025-0.793-0.295-1.073
					l-22.141-23.306C71.909,318.346,71.597,318.207,71.276,318.207z M60.067,354.484l11.674-32.836l19.571,20.594L60.067,354.484z
					 M72.616,325.762l-8.854,24.908l23.692-9.287L72.616,325.762z"/>
			</g>
		</g>
	</g>
	<g>
		<g>
			<path fill="#23326B" d="M280.591,62.924c1.925,0.37,4.63-0.458,6.015-1.842l6.242-6.236c1.385-1.386,2.908-0.966,3.383,0.932
				l1.828,7.333c0.479,1.9,2.3,4.174,4.052,5.05l9.052,4.524c1.754,0.875,1.742,2.277-0.032,3.108l-8.688,4.09
				c-1.769,0.834-3.228,3.121-3.228,5.075v11.276c0,1.952-1.206,2.509-2.693,1.229l-9.736-8.4c-1.479-1.281-4.221-1.834-6.085-1.238
				l-11.619,3.749c-1.86,0.604-2.519-0.25-1.462-1.896l6.836-10.621c1.055-1.649,1.029-4.334-0.053-5.961l-6.734-10.095
				c-1.08-1.627-0.4-2.656,1.523-2.288L280.591,62.924z"/>
			<path fill="#27140E" d="M297.99,99.254c-0.717,0-1.451-0.322-2.188-0.957l-9.738-8.4c-1.14-0.982-3.586-1.48-5.029-1.021
				l-11.615,3.746c-0.506,0.164-0.975,0.25-1.382,0.25c-1.118,0-1.61-0.6-1.806-0.954c-0.285-0.524-0.438-1.44,0.461-2.834
				l6.828-10.623c0.818-1.271,0.801-3.495-0.039-4.753l-6.731-10.095c-0.983-1.48-0.711-2.486-0.462-2.957
				c0.268-0.502,1.084-1.407,3.109-1.023l11.4,2.209c1.645,0.312,3.93-0.443,5.023-1.539l6.244-6.237
				c0.746-0.744,1.582-1.139,2.424-1.139c1.337,0,2.41,0.992,2.807,2.586l1.831,7.333c0.396,1.579,2.021,3.604,3.474,4.331
				l9.056,4.523c1.682,0.841,1.922,1.973,1.911,2.573c-0.008,0.598-0.272,1.722-1.974,2.521l-8.688,4.089
				c-1.381,0.65-2.59,2.557-2.59,4.077v11.276C300.317,98.462,299.065,99.254,297.99,99.254z M282.381,86.485
				c1.914,0,3.878,0.67,5.124,1.744l9.734,8.402c0.389,0.332,0.653,0.419,0.751,0.419v1.104l0.003-1.104
				c-0.006-0.018,0.122-0.264,0.122-0.815V84.958c0-2.385,1.692-5.052,3.854-6.071l8.688-4.091c0.554-0.259,0.696-0.506,0.704-0.553
				c-0.003-0.047-0.145-0.301-0.692-0.575l-9.056-4.522c-2.033-1.019-4.07-3.552-4.623-5.766l-1.831-7.334
				c-0.111-0.444-0.347-0.915-0.669-0.915c-0.233,0-0.557,0.185-0.864,0.493l-6.249,6.236c-1.347,1.347-3.677,2.253-5.803,2.253l0,0
				c-0.413,0-0.814-0.035-1.192-0.108l-11.399-2.21c-0.323-0.062-0.629-0.06-0.748-0.034c0.053,0.064,0.123,0.286,0.353,0.63
				l6.731,10.093c1.332,1.999,1.355,5.147,0.057,7.167l-6.828,10.625c-0.089,0.139-0.152,0.255-0.201,0.352
				c0.112-0.02,0.241-0.052,0.396-0.103l11.621-3.748C280.971,86.582,281.646,86.485,282.381,86.485z"/>
		</g>
		<g>
			<path fill="#23326B" d="M280.591,62.924c1.925,0.37,4.63-0.458,6.015-1.842l6.242-6.236c1.385-1.386,2.908-0.966,3.383,0.932
				l1.828,7.333c0.479,1.9,2.3,4.174,4.052,5.05l9.052,4.524c1.754,0.875,1.742,2.277-0.032,3.108l-8.688,4.09
				c-1.769,0.834-3.228,3.121-3.228,5.075v11.276c0,1.952-1.206,2.509-2.693,1.229l-9.736-8.4c-1.479-1.281-4.221-1.834-6.085-1.238
				l-11.619,3.749c-1.86,0.604-2.519-0.25-1.462-1.896l6.836-10.621c1.055-1.649,1.029-4.334-0.053-5.961l-6.734-10.095
				c-1.08-1.627-0.4-2.656,1.523-2.288L280.591,62.924z"/>
			<path fill="#27140E" d="M297.99,100.357c-0.988,0-1.967-0.414-2.91-1.225l-9.737-8.398c-0.862-0.75-2.905-1.151-3.972-0.808
				l-11.612,3.745c-2.047,0.661-3.735,0.16-4.489-1.225c-0.43-0.785-0.689-2.111,0.498-3.958l6.832-10.623
				c0.584-0.916,0.57-2.64-0.031-3.547l-6.732-10.095c-1.307-1.958-0.884-3.401-0.516-4.087c0.576-1.079,1.727-1.701,3.148-1.701
				c0.34,0,0.717,0.035,1.139,0.115l11.404,2.209c1.274,0.25,3.196-0.4,4.033-1.235l6.242-6.237c1.21-1.207,2.415-1.46,3.204-1.46
				c1.868,0,3.352,1.312,3.873,3.423l1.831,7.33c0.318,1.271,1.729,3.028,2.897,3.611l9.052,4.524
				c1.624,0.812,2.543,2.112,2.522,3.571c-0.016,1.457-0.967,2.736-2.604,3.504l-8.686,4.087c-1.002,0.476-1.958,1.974-1.958,3.082
				v11.276C301.42,99.067,299.644,100.357,297.99,100.357z M282.381,85.384c2.168,0,4.408,0.771,5.848,2.014l8.785,7.579V84.958
				c0-2.822,1.93-5.862,4.486-7.069l7.802-3.672l-8.18-4.084c-2.328-1.166-4.565-3.952-5.201-6.483l-1.753-7.013l-6.004,6.004
				c-1.542,1.539-4.189,2.573-6.589,2.573l0,0c-0.485,0-0.955-0.042-1.397-0.127l-9.727-1.884l5.783,8.671
				c1.578,2.374,1.611,5.973,0.072,8.374l-5.426,8.428l9.143-2.945C280.742,85.499,281.535,85.384,282.381,85.384z"/>
		</g>
	</g>
	<g>
		<g>
			<path fill="#23326B" d="M373.751,253.65c1.68-0.993,3.163-3.406,3.285-5.359l0.555-8.811c0.121-1.949,1.536-2.646,3.149-1.532
				l6.225,4.289c1.612,1.101,4.486,1.601,6.383,1.096l9.78-2.594c1.894-0.506,2.806,0.548,2.032,2.35l-3.812,8.812
				c-0.771,1.803-0.352,4.477,0.945,5.943l7.46,8.45c1.297,1.464,0.758,2.685-1.203,2.704l-12.857,0.15
				c-1.955,0.021-4.374,1.42-5.377,3.097l-6.233,10.504c-0.996,1.687-2.054,1.481-2.352-0.456l-1.91-12.484
				c-0.296-1.934-2.087-3.929-3.979-4.428l-11.729-3.121c-1.89-0.498-2.062-1.725-0.372-2.717L373.751,253.65z"/>
			<path fill="#27140E" d="M382.764,286.096c-0.627,0-2.721-0.252-3.209-3.477l-1.91-12.48c-0.166-1.07-1.317-2.354-2.368-2.629
				l-11.727-3.121c-2.562-0.677-3.054-2.324-3.146-2.998c-0.094-0.684-0.065-2.402,2.217-3.748l10.015-5.89
				c1.057-0.627,2.127-2.375,2.202-3.6l0.553-8.808c0.153-2.434,1.749-4.133,3.884-4.133c0.908,0,1.85,0.318,2.722,0.917
				l6.225,4.287c1.038,0.716,3.367,1.104,4.563,0.787l9.778-2.593c1.917-0.521,3.64,0.019,4.509,1.338
				c0.417,0.636,0.983,1.995,0.113,4.008l-3.808,8.819c-0.437,1.021-0.161,2.774,0.572,3.604l7.461,8.45
				c1.725,1.954,1.26,3.627,0.979,4.253c-0.277,0.627-1.21,2.092-3.814,2.116l-12.852,0.152c-1.195,0.012-2.901,0.992-3.517,2.022
				l-6.225,10.494C384.893,285.71,383.631,286.096,382.764,286.096z M366.336,260.573l10.068,2.676
				c2.759,0.731,5.163,3.408,5.592,6.228l1.522,9.905l4.899-8.26c1.408-2.354,4.526-4.147,7.252-4.175l11.604-0.141l-6.633-7.506
				c-1.865-2.117-2.431-5.673-1.315-8.27l3.419-7.913l-8.829,2.344c-2.479,0.66-6.109,0.018-8.197-1.41l-5.951-4.101l-0.53,8.477
				c-0.165,2.686-2.041,5.75-4.368,7.121L366.336,260.573z"/>
		</g>
		<g>
			<path fill="#23326B" d="M373.751,253.65c1.68-0.993,3.163-3.406,3.285-5.359l0.555-8.811c0.121-1.949,1.536-2.646,3.149-1.532
				l6.225,4.289c1.612,1.101,4.486,1.601,6.383,1.096l9.78-2.594c1.894-0.506,2.806,0.548,2.032,2.35l-3.812,8.812
				c-0.771,1.803-0.352,4.477,0.945,5.943l7.46,8.45c1.297,1.464,0.758,2.685-1.203,2.704l-12.857,0.15
				c-1.955,0.021-4.374,1.42-5.377,3.097l-6.233,10.504c-0.996,1.687-2.054,1.481-2.352-0.456l-1.91-12.484
				c-0.296-1.934-2.087-3.929-3.979-4.428l-11.729-3.121c-1.89-0.498-2.062-1.725-0.372-2.717L373.751,253.65z"/>
			<path fill="#27140E" d="M382.764,286.096c-0.627,0-2.721-0.252-3.209-3.477l-1.91-12.48c-0.166-1.07-1.317-2.354-2.368-2.629
				l-11.727-3.121c-2.562-0.677-3.054-2.324-3.146-2.998c-0.094-0.684-0.065-2.402,2.217-3.748l10.015-5.89
				c1.057-0.627,2.127-2.375,2.202-3.6l0.553-8.808c0.153-2.434,1.749-4.133,3.884-4.133c0.908,0,1.85,0.318,2.722,0.917
				l6.225,4.287c1.038,0.716,3.367,1.104,4.563,0.787l9.778-2.593c1.917-0.521,3.64,0.019,4.509,1.338
				c0.417,0.636,0.983,1.995,0.113,4.008l-3.808,8.819c-0.437,1.021-0.161,2.774,0.572,3.604l7.461,8.45
				c1.725,1.954,1.26,3.627,0.979,4.253c-0.277,0.627-1.21,2.092-3.814,2.116l-12.852,0.152c-1.195,0.012-2.901,0.992-3.517,2.022
				l-6.225,10.494C384.893,285.71,383.631,286.096,382.764,286.096z M366.336,260.573l10.068,2.676
				c2.759,0.731,5.163,3.408,5.592,6.228l1.522,9.905l4.899-8.26c1.408-2.354,4.526-4.147,7.252-4.175l11.604-0.141l-6.633-7.506
				c-1.865-2.117-2.431-5.673-1.315-8.27l3.419-7.913l-8.829,2.344c-2.479,0.66-6.109,0.018-8.197-1.41l-5.951-4.101l-0.53,8.477
				c-0.165,2.686-2.041,5.75-4.368,7.121L366.336,260.573z"/>
		</g>
	</g>
	<g>
		<g>
			<path fill="#23326B" d="M454.001,171.706c1.351-0.585,2.675-2.262,2.941-3.708l1.21-6.55c0.271-1.457,1.395-1.84,2.504-0.86
				l4.272,3.768c1.104,0.98,3.212,1.612,4.671,1.402l7.568-1.063c1.456-0.205,2.047,0.671,1.307,1.948l-3.647,6.257
				c-0.748,1.277-0.674,3.315,0.172,4.529l4.812,7.002c0.845,1.212,0.331,2.085-1.143,1.918l-9.646-1.05
				c-1.466-0.158-3.402,0.659-4.3,1.837l-5.618,7.293c-0.901,1.178-1.678,0.924-1.721-0.558l-0.305-9.517
				c-0.048-1.473-1.206-3.127-2.576-3.682L446,177.283c-1.368-0.551-1.387-1.48-0.029-2.074L454.001,171.706z"/>
			<path fill="#27140E" d="M458.073,197.378c-1.034,0-2.806-0.725-2.894-3.434l-0.305-9.518c-0.018-0.605-0.631-1.479-1.199-1.708
				l-8.492-3.387c-2.159-0.87-2.412-2.414-2.428-3.034c-0.003-0.623,0.202-2.175,2.331-3.105l8.024-3.505
				c0.68-0.294,1.526-1.367,1.664-2.092l1.211-6.546c0.36-1.952,1.719-3.209,3.462-3.209c0.933,0,1.856,0.379,2.666,1.098
				l4.27,3.763c0.546,0.483,1.961,1.007,2.902,0.878l7.576-1.063c1.749-0.248,3.038,0.363,3.724,1.548
				c0.61,1.063,0.539,2.408-0.204,3.687l-3.653,6.261c-0.319,0.542-0.275,1.652,0.08,2.164l4.816,7.01
				c1.235,1.772,0.729,3.188,0.451,3.712c-0.631,1.208-1.871,1.852-3.656,1.645l-9.637-1.049c0,0-0.012,0-0.02,0
				c-0.876,0-1.898,0.468-2.294,0.982l-5.618,7.301C459.838,197.097,458.778,197.378,458.073,197.378z M449.227,176.194l6.09,2.436
				c2.189,0.882,3.893,3.311,3.965,5.654l0.192,6.048l3.499-4.537c1.344-1.751,4.062-2.929,6.286-2.686l7.528,0.821l-3.604-5.253
				c-1.327-1.915-1.438-4.877-0.259-6.895l2.708-4.641l-5.729,0.799c-2.02,0.293-4.877-0.553-6.439-1.943l-3.356-2.96l-1,5.359
				c-0.398,2.165-2.221,4.456-4.231,5.329L449.227,176.194z"/>
		</g>
		<g>
			<path fill="#23326B" d="M454.001,171.706c1.351-0.585,2.675-2.262,2.941-3.708l1.21-6.55c0.271-1.457,1.395-1.84,2.504-0.86
				l4.272,3.768c1.104,0.98,3.212,1.612,4.671,1.402l7.568-1.063c1.456-0.205,2.047,0.671,1.307,1.948l-3.647,6.257
				c-0.748,1.277-0.674,3.315,0.172,4.529l4.812,7.002c0.845,1.212,0.331,2.085-1.143,1.918l-9.646-1.05
				c-1.466-0.158-3.402,0.659-4.3,1.837l-5.618,7.293c-0.901,1.178-1.678,0.924-1.721-0.558l-0.305-9.517
				c-0.048-1.473-1.206-3.127-2.576-3.682L446,177.283c-1.368-0.551-1.387-1.48-0.029-2.074L454.001,171.706z"/>
			<path fill="#27140E" d="M458.073,197.378c-1.034,0-2.806-0.725-2.894-3.434l-0.305-9.518c-0.018-0.605-0.631-1.479-1.199-1.708
				l-8.492-3.387c-2.159-0.87-2.412-2.414-2.428-3.034c-0.003-0.623,0.202-2.175,2.331-3.105l8.024-3.505
				c0.68-0.294,1.526-1.367,1.664-2.092l1.211-6.546c0.36-1.952,1.719-3.209,3.462-3.209c0.933,0,1.856,0.379,2.666,1.098
				l4.27,3.763c0.546,0.483,1.961,1.007,2.902,0.878l7.576-1.063c1.749-0.248,3.038,0.363,3.724,1.548
				c0.61,1.063,0.539,2.408-0.204,3.687l-3.653,6.261c-0.319,0.542-0.275,1.652,0.08,2.164l4.816,7.01
				c1.235,1.772,0.729,3.188,0.451,3.712c-0.631,1.208-1.871,1.852-3.656,1.645l-9.637-1.049c0,0-0.012,0-0.02,0
				c-0.876,0-1.898,0.468-2.294,0.982l-5.618,7.301C459.838,197.097,458.778,197.378,458.073,197.378z M449.227,176.194l6.09,2.436
				c2.189,0.882,3.893,3.311,3.965,5.654l0.192,6.048l3.499-4.537c1.344-1.751,4.062-2.929,6.286-2.686l7.528,0.821l-3.604-5.253
				c-1.327-1.915-1.438-4.877-0.259-6.895l2.708-4.641l-5.729,0.799c-2.02,0.293-4.877-0.553-6.439-1.943l-3.356-2.96l-1,5.359
				c-0.398,2.165-2.221,4.456-4.231,5.329L449.227,176.194z"/>
		</g>
	</g>
	<g>
		<path fill="#FFEFD3" d="M354.103,74.94c0,0,51.803,15.791,33.31,56.044c-15.507,33.753-39.167,41.113-93.85,16.894
			c2.801,17.784,49.546,74.102,96.649,44.926c47.111-29.166,51.256-88.644,26.235-113.085
			C397.41,61.125,369.807,62.82,354.103,74.94z"/>
		<path fill="#27140E" d="M362.421,203.308c0,0-0.003,0-0.01,0c-37.893-0.001-68.856-40.917-71.088-55.075
			c-0.128-0.821,0.198-1.646,0.858-2.151c0.655-0.507,1.541-0.61,2.295-0.275c21.34,9.452,37.991,14.046,50.91,14.046
			c18.414-0.003,30.366-8.919,39.965-29.814c4.535-9.877,4.981-19.028,1.318-27.194c-7.996-17.835-32.978-25.66-33.229-25.738
			c-0.811-0.248-1.417-0.926-1.566-1.76c-0.155-0.833,0.171-1.683,0.845-2.2c7.928-6.121,18.716-9.63,29.6-9.63
			c13.401,0,26.082,5.18,35.712,14.583c11.874,11.601,17.61,30.839,15.341,51.454c-2.946,26.73-18.24,50.492-41.965,65.182
			C382.217,200.425,372.464,203.308,362.421,203.308z M297.143,151.901c6.473,15.488,33.754,46.874,65.272,46.877h0.006
			c9.189,0,18.142-2.658,26.603-7.896c22.531-13.955,37.059-36.487,39.845-61.824c2.124-19.243-3.114-37.082-14.003-47.717
			c-8.775-8.573-20.335-13.292-32.545-13.292c-8.348,0-16.611,2.251-23.282,6.265c8,3.195,24.962,11.514,31.761,26.661
			c4.231,9.415,3.782,19.831-1.33,30.956c-10.308,22.443-23.906,32.452-44.08,32.452
			C332.763,164.382,316.948,160.294,297.143,151.901z"/>
	</g>
	<g>
		<g>
			<g>
				<path fill="#C9DE7C" d="M339.663,343.195c0,53.787-43.613,97.402-97.416,97.402c-53.8,0-97.415-43.615-97.415-97.402
					c0-53.803,43.615-97.419,97.415-97.419C296.05,245.776,339.663,289.393,339.663,343.195z"/>
				<path fill="#27140E" d="M242.247,441.706c-54.32,0-98.519-44.19-98.519-98.511c0-54.322,44.198-98.521,98.519-98.521
					c54.323,0,98.516,44.197,98.516,98.521C340.763,397.516,296.57,441.706,242.247,441.706z M242.247,246.881
					c-53.105,0-96.312,43.208-96.312,96.314c0,53.104,43.207,96.307,96.312,96.307c53.11,0,96.312-43.202,96.312-96.307
					C338.56,290.088,295.357,246.881,242.247,246.881z"/>
			</g>
		</g>
		<g>
			<g>
				<g>
					<path fill="#EF3F54" d="M249.6,440.23c0,4.064-3.289,7.357-7.353,7.357l0,0c-4.055,0-7.349-3.293-7.349-7.357v-17.64
						c0-4.063,3.294-7.352,7.349-7.352l0,0c4.063,0,7.353,3.286,7.353,7.352V440.23z"/>
					<path fill="#27140E" d="M242.247,448.691c-4.658,0-8.451-3.793-8.451-8.461v-17.64c0-4.661,3.793-8.454,8.451-8.454
						c4.662,0,8.452,3.793,8.452,8.454v17.64C250.699,444.898,246.909,448.691,242.247,448.691z M242.247,416.338
						c-3.444,0-6.245,2.805-6.245,6.253v17.64c0,3.445,2.801,6.252,6.245,6.252c3.445,0,6.25-2.807,6.25-6.252v-17.64
						C248.497,419.143,245.692,416.338,242.247,416.338z"/>
				</g>
				<g>
					<path fill="#211010" d="M242.247,449.51c-5.109,0-9.278-4.162-9.278-9.279v-17.64c0-5.12,4.169-9.284,9.278-9.284
						c5.118,0,9.282,4.164,9.282,9.284v17.64C251.529,445.348,247.365,449.51,242.247,449.51z M242.247,417.166
						c-2.988,0-5.424,2.434-5.424,5.426v17.64c0,2.99,2.436,5.425,5.424,5.425c2.992,0,5.423-2.435,5.423-5.425v-17.64
						C247.67,419.6,245.239,417.166,242.247,417.166z"/>
					<path fill="#27140E" d="M242.247,450.616c-5.721,0-10.377-4.661-10.377-10.386v-17.64c0-5.731,4.656-10.388,10.377-10.388
						c5.726,0,10.381,4.654,10.381,10.388v17.64C252.628,445.955,247.973,450.616,242.247,450.616z M242.247,414.415
						c-4.507,0-8.175,3.666-8.175,8.177v17.64c0,4.515,3.668,8.178,8.175,8.178c4.508,0,8.175-3.663,8.175-8.178v-17.64
						C250.422,418.081,246.755,414.415,242.247,414.415z M242.247,446.762c-3.598,0-6.523-2.931-6.523-6.531v-17.64
						c0-3.603,2.926-6.532,6.523-6.532c3.599,0,6.525,2.932,6.525,6.532v17.64C248.772,443.832,245.846,446.762,242.247,446.762z
						 M242.247,418.26c-2.381,0-4.32,1.943-4.32,4.331v17.64c0,2.389,1.939,4.329,4.32,4.329c2.386,0,4.321-1.94,4.321-4.329v-17.64
						C246.568,420.204,244.633,418.26,242.247,418.26z"/>
				</g>
			</g>
			<g>
				<g>
					<path fill="#EF3F54" d="M249.6,263.795c0,4.059-3.289,7.352-7.353,7.352l0,0c-4.055,0-7.349-3.293-7.349-7.352v-17.649
						c0-4.061,3.294-7.351,7.349-7.351l0,0c4.063,0,7.353,3.29,7.353,7.351V263.795z"/>
					<path fill="#27140E" d="M242.247,272.248c-4.658,0-8.451-3.789-8.451-8.452v-17.649c0-4.659,3.793-8.455,8.451-8.455
						c4.662,0,8.452,3.796,8.452,8.455v17.649C250.699,268.458,246.909,272.248,242.247,272.248z M242.247,239.896
						c-3.444,0-6.245,2.805-6.245,6.25v17.649c0,3.447,2.801,6.248,6.245,6.248c3.445,0,6.25-2.801,6.25-6.248v-17.649
						C248.497,242.7,245.692,239.896,242.247,239.896z"/>
				</g>
				<g>
					<path fill="#211010" d="M242.247,273.07c-5.109,0-9.278-4.162-9.278-9.274v-17.649c0-5.115,4.169-9.278,9.278-9.278
						c5.118,0,9.282,4.163,9.282,9.278v17.649C251.529,268.908,247.365,273.07,242.247,273.07z M242.247,240.719
						c-2.988,0-5.424,2.434-5.424,5.427v17.649c0,2.99,2.436,5.424,5.424,5.424c2.992,0,5.423-2.434,5.423-5.424v-17.649
						C247.67,243.153,245.239,240.719,242.247,240.719z"/>
					<path fill="#27140E" d="M242.247,274.172c-5.721,0-10.377-4.656-10.377-10.377v-17.649c0-5.722,4.656-10.378,10.377-10.378
						c5.726,0,10.381,4.657,10.381,10.378v17.649C252.628,269.516,247.973,274.172,242.247,274.172z M242.247,237.969
						c-4.507,0-8.175,3.666-8.175,8.177v17.649c0,4.504,3.668,8.175,8.175,8.175c4.508,0,8.175-3.671,8.175-8.175v-17.649
						C250.422,241.635,246.755,237.969,242.247,237.969z M242.247,270.32c-3.598,0-6.523-2.926-6.523-6.524v-17.649
						c0-3.601,2.926-6.528,6.523-6.528c3.599,0,6.525,2.927,6.525,6.528v17.649C248.772,267.395,245.846,270.32,242.247,270.32z
						 M242.247,241.823c-2.381,0-4.32,1.936-4.32,4.323v17.649c0,2.382,1.939,4.318,4.32,4.318c2.386,0,4.321-1.938,4.321-4.318
						v-17.649C246.568,243.759,244.633,241.823,242.247,241.823z"/>
				</g>
			</g>
			<g>
				<g>
					<path fill="#EF3F54" d="M339.297,335.848c4.06,0,7.35,3.288,7.35,7.348l0,0c0,4.051-3.29,7.344-7.35,7.344h-17.649
						c-4.057,0-7.35-3.293-7.35-7.344l0,0c0-4.06,3.293-7.348,7.35-7.348H339.297z"/>
					<path fill="#27140E" d="M339.297,351.641h-17.649c-4.659,0-8.448-3.791-8.448-8.445c0-4.661,3.789-8.452,8.448-8.452h17.649
						c4.661,0,8.455,3.791,8.455,8.452C347.752,347.85,343.958,351.641,339.297,351.641z M321.646,336.95
						c-3.445,0-6.243,2.801-6.243,6.245c0,3.443,2.798,6.238,6.243,6.238h17.649c3.445,0,6.249-2.795,6.249-6.238
						c0-3.444-2.804-6.245-6.249-6.245H321.646z"/>
				</g>
				<g>
					<path fill="#211010" d="M339.297,352.461h-17.649c-5.112,0-9.274-4.156-9.274-9.268c0-5.114,4.162-9.279,9.274-9.279h17.649
						c5.118,0,9.273,4.165,9.273,9.279C348.57,348.305,344.415,352.461,339.297,352.461z M321.646,337.771
						c-2.989,0-5.425,2.436-5.425,5.424c0,2.986,2.436,5.41,5.425,5.41h17.649c2.988,0,5.427-2.424,5.427-5.41
						c0-2.988-2.438-5.424-5.427-5.424H321.646z"/>
					<path fill="#27140E" d="M339.297,353.559h-17.649c-5.724,0-10.378-4.644-10.378-10.363c0-5.719,4.654-10.373,10.378-10.373
						h17.649c5.722,0,10.376,4.654,10.376,10.373C349.673,348.916,345.019,353.559,339.297,353.559z M321.646,335.018
						c-4.506,0-8.177,3.672-8.177,8.178c0,4.5,3.671,8.164,8.177,8.164h17.649c4.509,0,8.174-3.664,8.174-8.164
						c0-4.506-3.665-8.178-8.174-8.178H321.646z M339.297,349.708h-17.649c-3.602,0-6.522-2.92-6.522-6.515
						c0-3.596,2.922-6.525,6.522-6.525h17.649c3.595,0,6.526,2.93,6.526,6.525S342.892,349.708,339.297,349.708z M321.646,338.875
						c-2.383,0-4.318,1.938-4.318,4.318c0,2.377,1.937,4.312,4.318,4.312h17.649c2.385,0,4.32-1.936,4.32-4.312
						c0-2.383-1.937-4.318-4.32-4.318H321.646z"/>
				</g>
			</g>
			<g>
				<g>
					<path fill="#EF3F54" d="M162.842,335.848c4.063,0,7.355,3.288,7.355,7.348l0,0c0,4.051-3.292,7.344-7.355,7.344h-17.64
						c-4.062,0-7.354-3.293-7.354-7.344l0,0c0-4.06,3.291-7.348,7.354-7.348H162.842z"/>
					<path fill="#27140E" d="M162.842,351.641h-17.64c-4.663,0-8.455-3.791-8.455-8.445c0-4.661,3.792-8.452,8.455-8.452h17.64
						c4.665,0,8.459,3.791,8.459,8.452C171.301,347.85,167.507,351.641,162.842,351.641z M145.202,336.95
						c-3.448,0-6.251,2.801-6.251,6.245c0,3.443,2.803,6.238,6.251,6.238h17.64c3.448,0,6.256-2.795,6.256-6.238
						c0-3.444-2.808-6.245-6.256-6.245H145.202z"/>
				</g>
				<g>
					<path fill="#211010" d="M162.842,352.461h-17.64c-5.119,0-9.282-4.156-9.282-9.268c0-5.114,4.163-9.279,9.282-9.279h17.64
						c5.12,0,9.28,4.165,9.28,9.279C172.122,348.305,167.962,352.461,162.842,352.461z M145.202,337.771
						c-2.993,0-5.427,2.436-5.427,5.424c0,2.986,2.434,5.41,5.427,5.41h17.64c2.994,0,5.432-2.424,5.432-5.41
						c0-2.988-2.438-5.424-5.432-5.424H145.202z"/>
					<path fill="#27140E" d="M162.842,353.559h-17.64c-5.727,0-10.385-4.644-10.385-10.363c0-5.719,4.658-10.373,10.385-10.373
						h17.64c5.725,0,10.383,4.654,10.383,10.373C173.225,348.916,168.566,353.559,162.842,353.559z M145.202,335.018
						c-4.508,0-8.179,3.672-8.179,8.178c0,4.5,3.671,8.164,8.179,8.164h17.64c4.512,0,8.179-3.664,8.179-8.164
						c0-4.506-3.667-8.178-8.179-8.178H145.202z M162.842,349.708h-17.64c-3.6,0-6.53-2.92-6.53-6.515
						c0-3.596,2.931-6.525,6.53-6.525h17.64c3.603,0,6.531,2.93,6.531,6.525S166.444,349.708,162.842,349.708z M145.202,338.875
						c-2.389,0-4.329,1.938-4.329,4.318c0,2.377,1.94,4.312,4.329,4.312h17.64c2.388,0,4.328-1.936,4.328-4.312
						c0-2.383-1.94-4.318-4.328-4.318H145.202z"/>
				</g>
			</g>
		</g>
		<g>
			<g>
				<path fill="#EF3F54" d="M242.247,234.017c-59.786,0-108.258,48.465-108.258,108.262c0,59.783,48.472,108.251,108.258,108.251
					c59.794,0,108.26-48.468,108.26-108.251C350.507,282.482,302.041,234.017,242.247,234.017z M242.247,434.352
					c-50.853,0-92.086-41.228-92.086-92.072c0-50.861,41.233-92.09,92.086-92.09c50.858,0,92.086,41.229,92.086,92.09
					C334.333,393.125,293.105,434.352,242.247,434.352z"/>
				<path fill="#27140E" d="M242.247,451.626c-60.305,0-109.361-49.054-109.361-109.349c0-60.303,49.057-109.363,109.361-109.363
					c60.304,0,109.362,49.061,109.362,109.363C351.609,402.573,302.551,451.626,242.247,451.626z M242.247,235.119
					c-59.085,0-107.155,48.066-107.155,107.16c0,59.084,48.07,107.146,107.155,107.146c59.088,0,107.161-48.062,107.161-107.146
					C349.408,283.186,301.335,235.119,242.247,235.119z M242.247,435.455c-51.381,0-93.185-41.803-93.185-93.176
					c0-51.387,41.804-93.19,93.185-93.19c51.386,0,93.188,41.806,93.188,93.19C335.436,393.652,293.633,435.455,242.247,435.455z
					 M242.247,251.291c-50.167,0-90.982,40.814-90.982,90.988c0,50.166,40.815,90.971,90.982,90.971
					c50.169,0,90.986-40.805,90.986-90.971C333.233,292.105,292.416,251.291,242.247,251.291z"/>
			</g>
			<g>
				<path fill="#211010" d="M242.247,452.453c-60.754,0-110.185-49.426-110.185-110.174c0-60.76,49.431-110.188,110.185-110.188
					c60.761,0,110.188,49.428,110.188,110.188C352.438,403.027,303.008,452.453,242.247,452.453z M242.247,235.944
					c-58.633,0-106.333,47.697-106.333,106.335c0,58.63,47.7,106.318,106.333,106.318c58.635,0,106.336-47.688,106.336-106.318
					C348.583,283.641,300.882,235.944,242.247,235.944z M242.247,436.282c-51.834,0-94.006-42.173-94.006-94.003
					c0-51.84,42.172-94.017,94.006-94.017c51.839,0,94.015,42.177,94.015,94.017C336.262,394.109,294.086,436.282,242.247,436.282z
					 M242.247,252.118c-49.712,0-90.16,40.446-90.16,90.161c0,49.711,40.448,90.146,90.16,90.146c49.72,0,90.16-40.435,90.16-90.146
					C332.407,292.564,291.967,252.118,242.247,252.118z"/>
				<path fill="#27140E" d="M242.247,453.551c-61.362,0-111.286-49.912-111.286-111.271c0-61.368,49.924-111.292,111.286-111.292
					c61.367,0,111.288,49.924,111.288,111.292C353.535,403.639,303.614,453.551,242.247,453.551z M242.247,233.192
					c-60.146,0-109.086,48.936-109.086,109.087c0,60.138,48.94,109.071,109.086,109.071c60.15,0,109.087-48.935,109.087-109.071
					C351.334,282.127,302.397,233.192,242.247,233.192z M242.247,449.705c-59.241,0-107.433-48.191-107.433-107.426
					c0-59.245,48.191-107.437,107.433-107.437s107.434,48.191,107.434,107.437C349.681,401.512,301.488,449.705,242.247,449.705z
					 M242.247,237.044c-58.023,0-105.23,47.206-105.23,105.233c0,58.02,47.207,105.218,105.23,105.218
					c58.027,0,105.233-47.198,105.233-105.218C347.48,284.25,300.274,237.044,242.247,237.044z M242.247,437.38
					c-52.444,0-95.108-42.661-95.108-95.103c0-52.447,42.664-95.119,95.108-95.119c52.448,0,95.117,42.671,95.117,95.119
					C337.364,394.719,294.695,437.38,242.247,437.38z M242.247,249.364c-51.228,0-92.907,41.68-92.907,92.915
					c0,51.228,41.68,92.899,92.907,92.899c51.235,0,92.912-41.673,92.912-92.899C335.159,291.043,293.482,249.364,242.247,249.364z
					 M242.247,433.526c-50.322,0-91.259-40.934-91.259-91.247c0-50.319,40.937-91.262,91.259-91.262
					c50.321,0,91.263,40.942,91.263,91.262C333.51,392.593,292.568,433.526,242.247,433.526z M242.247,253.221
					c-49.106,0-89.061,39.946-89.061,89.059c0,49.101,39.954,89.045,89.061,89.045c49.108,0,89.058-39.944,89.058-89.045
					C331.305,293.167,291.355,253.221,242.247,253.221z"/>
			</g>
		</g>
		<g>
			<g>
				<g>
					<path fill="#27140E" d="M234.521,280.48v-1.459c0.68-0.031,1.149-0.07,1.423-0.135c0.428-0.096,0.776-0.287,1.049-0.574
						c0.184-0.193,0.323-0.455,0.417-0.781c0.058-0.195,0.082-0.34,0.082-0.438h1.793v10.918h-2.195v-7.531H234.521L234.521,280.48z
						"/>
				</g>
			</g>
			<g>
				<g>
					<path fill="#27140E" d="M243.009,285.861c0.305-0.728,1.031-1.498,2.17-2.305c0.987-0.711,1.627-1.222,1.918-1.525
						c0.444-0.479,0.667-0.998,0.667-1.565c0-0.462-0.129-0.845-0.38-1.149c-0.259-0.305-0.625-0.461-1.1-0.461
						c-0.652,0-1.099,0.246-1.332,0.733c-0.136,0.278-0.216,0.728-0.241,1.337h-2.087c0.036-0.93,0.206-1.675,0.504-2.251
						c0.574-1.09,1.591-1.632,3.057-1.632c1.156,0,2.072,0.316,2.755,0.958c0.678,0.644,1.024,1.487,1.024,2.542
						c0,0.807-0.242,1.521-0.724,2.152c-0.315,0.414-0.836,0.883-1.561,1.39l-0.86,0.612c-0.538,0.382-0.904,0.658-1.105,0.828
						c-0.2,0.172-0.362,0.367-0.499,0.592h4.765v1.896h-7.473C242.527,287.221,242.695,286.512,243.009,285.861z"/>
				</g>
			</g>
		</g>
		<g>
			<g>
				<g>
					<path fill="#27140E" d="M299.251,344.555c0,0.438,0.071,0.803,0.208,1.084c0.259,0.524,0.736,0.791,1.419,0.791
						c0.424,0,0.787-0.146,1.099-0.433c0.312-0.289,0.472-0.703,0.472-1.244c0-0.724-0.291-1.205-0.869-1.438
						c-0.334-0.145-0.848-0.207-1.559-0.207v-1.537c0.696-0.01,1.178-0.077,1.453-0.197c0.472-0.209,0.713-0.643,0.713-1.282
						c0-0.413-0.122-0.755-0.362-1.019c-0.245-0.26-0.586-0.383-1.027-0.383c-0.503,0-0.877,0.152-1.114,0.475
						c-0.239,0.322-0.353,0.746-0.342,1.288h-1.999c0.018-0.542,0.109-1.054,0.274-1.541c0.177-0.429,0.45-0.817,0.828-1.185
						c0.278-0.252,0.612-0.449,0.998-0.584c0.388-0.141,0.857-0.207,1.421-0.207c1.046,0,1.887,0.267,2.521,0.809
						c0.641,0.546,0.96,1.264,0.96,2.173c0,0.64-0.19,1.181-0.57,1.627c-0.241,0.276-0.491,0.463-0.756,0.56
						c0.196,0,0.479,0.176,0.845,0.508c0.549,0.509,0.823,1.197,0.823,2.082c0,0.918-0.322,1.729-0.964,2.426
						c-0.636,0.706-1.585,1.058-2.838,1.058c-1.538,0-2.614-0.509-3.215-1.515c-0.32-0.532-0.49-1.237-0.527-2.107H299.251
						L299.251,344.555z"/>
				</g>
			</g>
		</g>
		<g>
			<g>
				<g>
					<path fill="#27140E" d="M243.648,399.32c0-0.172-0.072-0.37-0.205-0.577c-0.23-0.343-0.577-0.515-1.049-0.515
						c-0.692,0-1.192,0.396-1.487,1.179c-0.162,0.426-0.272,1.065-0.326,1.913c0.261-0.322,0.571-0.549,0.923-0.695
						c0.347-0.15,0.752-0.221,1.204-0.221c0.97,0,1.759,0.328,2.381,0.98c0.617,0.66,0.927,1.502,0.927,2.525
						c0,1.021-0.302,1.923-0.908,2.695c-0.608,0.783-1.553,1.166-2.827,1.166c-1.376,0-2.394-0.573-3.046-1.721
						c-0.5-0.9-0.758-2.055-0.758-3.479c0-0.828,0.039-1.516,0.104-2.031c0.13-0.93,0.373-1.702,0.729-2.316
						c0.315-0.523,0.723-0.951,1.228-1.271c0.504-0.319,1.104-0.48,1.809-0.48c1.012,0,1.821,0.258,2.423,0.775
						c0.604,0.52,0.938,1.211,1.017,2.072H243.648L243.648,399.32z M241.105,405.469c0.312,0.371,0.716,0.559,1.204,0.559
						c0.474,0,0.85-0.182,1.123-0.533c0.273-0.361,0.409-0.824,0.409-1.4c0-0.638-0.157-1.117-0.467-1.465
						c-0.308-0.341-0.693-0.506-1.146-0.506c-0.359,0-0.686,0.111-0.965,0.33c-0.422,0.328-0.632,0.852-0.632,1.579
						C240.632,404.626,240.785,405.102,241.105,405.469z"/>
				</g>
			</g>
		</g>
		<g>
			<g>
				<g>
					<path fill="#27140E" d="M178.753,336.934c0.676-0.724,1.552-1.086,2.633-1.086c1.655,0,2.794,0.733,3.413,2.202
						c0.353,0.829,0.527,1.929,0.527,3.287c0,1.317-0.165,2.423-0.503,3.306c-0.644,1.685-1.824,2.521-3.537,2.521
						c-0.815,0-1.552-0.245-2.207-0.728c-0.652-0.479-1.021-1.188-1.12-2.121h2.139c0.05,0.328,0.186,0.584,0.405,0.781
						c0.22,0.207,0.515,0.305,0.883,0.305c0.704,0,1.2-0.39,1.487-1.172c0.155-0.433,0.253-1.065,0.295-1.895
						c-0.193,0.249-0.404,0.443-0.624,0.568c-0.403,0.24-0.898,0.355-1.484,0.355c-0.87,0-1.634-0.296-2.31-0.895
						c-0.672-0.598-1.01-1.461-1.01-2.596C177.74,338.605,178.078,337.654,178.753,336.934z M182.364,341.262
						c0.484-0.311,0.729-0.853,0.729-1.621c0-0.608-0.147-1.106-0.436-1.469c-0.287-0.354-0.683-0.535-1.182-0.535
						c-0.369,0-0.683,0.104-0.94,0.305c-0.414,0.324-0.617,0.865-0.617,1.633c0,0.652,0.128,1.139,0.394,1.462
						c0.263,0.319,0.667,0.483,1.211,0.483C181.825,341.52,182.102,341.434,182.364,341.262z"/>
				</g>
			</g>
		</g>
		<g>
			<g>
				<g>
					<path fill="#F3F3F3" d="M239.657,299.266c1.93,0,3.854,0,5.787,0c3.811,0.426,7.783,1.104,11.005,2.256
						c3.259,1.174,6.318,2.787,8.604,4.655c4.879,3.992,9.299,12.405,7.055,21.591c-1.379,5.647-5.166,9.398-9.026,12.701
						c-1.856,1.583-4.073,3.104-6.214,4.652c-1.969,1.431-4.646,3.232-5.92,5.074c-1.835,2.652-2.04,5.844-3.666,7.768
						c-0.629,0.732-1.617,1.379-2.4,1.686c-8.354,3.271-13.164-4.666-10.585-11.986c1.743-4.945,6.073-7.887,10.302-11.288
						c4.015-3.231,8.214-6.343,9.454-10.296c0.095-0.303,0.24-0.852,0.279-1.135c1.118-7.87-4.453-12.185-11.425-12.133
						c-4.477,0.033-7.931,1.97-9.738,4.373c-2.974,3.955-3.189,8.826-7.335,10.722c-4.46,2.054-9.745-0.353-11.009-3.523
						c-1.401-3.53,0.089-8.157,1.7-11.149C220.852,305.154,229.492,300.736,239.657,299.266z"/>
					<path fill="#27140E" d="M241.17,361.509c-2.774,0-5.18-1.247-6.781-3.509c-2.019-2.857-2.453-6.959-1.133-10.707
						c1.643-4.654,5.292-7.537,9.153-10.59l2.425-1.938c3.66-2.924,7.119-5.685,8.16-9.017c0.083-0.252,0.212-0.717,0.244-0.955
						c0.431-3.062-0.217-5.681-1.875-7.593c-1.843-2.118-4.802-3.291-8.336-3.291c-3.833,0.027-7.147,1.504-8.979,3.934
						c-1.043,1.389-1.739,2.937-2.415,4.428c-1.168,2.598-2.377,5.279-5.345,6.638c-1.241,0.571-2.586,0.862-3.987,0.862
						c-3.714,0-7.366-2.141-8.501-4.984c-1.868-4.701,0.865-10.434,1.746-12.076c4.216-7.852,12.496-12.877,23.954-14.538
						l5.944-0.01c4.816,0.532,8.498,1.292,11.376,2.319c3.52,1.269,6.604,2.942,8.929,4.843c5.213,4.263,9.756,13.183,7.426,22.706
						c-1.495,6.133-5.625,10.064-9.38,13.273c-1.512,1.289-3.266,2.545-4.959,3.764l-2.052,1.472
						c-1.746,1.258-3.921,2.819-4.929,4.286c-0.826,1.191-1.305,2.536-1.764,3.843c-0.524,1.479-1.021,2.881-1.973,4.009
						c-0.7,0.82-1.818,1.603-2.848,1.997C243.868,361.225,242.481,361.509,241.17,361.509z M242.897,311.708
						c4.313,0,7.867,1.442,10.132,4.052c2.092,2.409,2.919,5.637,2.394,9.338c-0.048,0.328-0.212,0.961-0.323,1.31
						c-1.242,3.978-5.133,7.079-8.89,10.09l-2.436,1.935c-3.603,2.852-7.009,5.547-8.44,9.598c-1.085,3.082-0.762,6.421,0.854,8.697
						c0.834,1.181,2.375,2.582,4.982,2.582c1.037,0,2.152-0.232,3.305-0.684c0.701-0.266,1.501-0.831,1.965-1.374
						c0.689-0.815,1.12-2.03,1.575-3.317c0.482-1.371,1.036-2.933,2.026-4.355c1.229-1.785,3.47-3.396,5.453-4.814l2.054-1.488
						c1.66-1.187,3.374-2.418,4.817-3.645c3.492-2.979,7.332-6.625,8.671-12.12c2.103-8.596-1.989-16.638-6.681-20.478
						c-2.104-1.719-5.045-3.305-8.283-4.477c-2.713-0.969-6.229-1.688-10.751-2.189l-5.664,0.004
						c-7.33,1.076-17.28,4.273-22.169,13.385c-1.583,2.951-2.845,7.186-1.638,10.221c0.704,1.766,3.309,3.59,6.45,3.59
						c1.085,0,2.116-0.221,3.072-0.657c2.212-1.013,3.16-3.11,4.253-5.54c0.722-1.605,1.468-3.264,2.657-4.846
						C234.529,313.541,238.494,311.745,242.897,311.708L242.897,311.708z"/>
				</g>
				<g>
					<path fill="#2C2010" d="M241.17,362.334c-3.046,0-5.688-1.368-7.453-3.859c-2.177-3.063-2.647-7.457-1.235-11.459
						c1.72-4.877,5.639-7.974,9.428-10.97c0.493-0.392,0.984-0.778,1.477-1.175l0.93-0.743c3.561-2.846,6.925-5.532,7.896-8.63
						c0.089-0.29,0.193-0.693,0.212-0.814c0.397-2.817-0.184-5.216-1.682-6.939c-1.681-1.936-4.425-3.008-7.715-3.008
						c-3.571,0.022-6.638,1.377-8.322,3.604c-0.988,1.314-1.663,2.823-2.317,4.271c-1.237,2.732-2.508,5.558-5.751,7.041
						c-1.351,0.625-2.812,0.945-4.332,0.945c-4.102,0-8.003-2.318-9.271-5.5c-2-5.033,0.859-11.052,1.786-12.775
						c4.342-8.092,12.836-13.262,24.56-14.965c0.091-0.012,0.184-0.016,0.277-0.016h5.787c0.069,0,0.139,0,0.216,0.008
						c4.762,0.534,8.497,1.311,11.437,2.355c3.605,1.3,6.773,3.02,9.178,4.982c5.401,4.422,10.117,13.67,7.703,23.541
						c-1.555,6.373-5.797,10.41-9.644,13.699c-1.522,1.301-3.269,2.547-4.961,3.762l-2.108,1.515
						c-1.691,1.229-3.799,2.741-4.736,4.094c-0.76,1.095-1.215,2.39-1.658,3.638c-0.525,1.491-1.068,3.027-2.124,4.267
						c-0.938,1.11-2.252,1.888-3.168,2.247C244.076,362.041,242.588,362.334,241.17,362.334z M243.027,310.882
						c4.425,0,8.196,1.543,10.62,4.341c2.258,2.59,3.15,6.045,2.588,9.992c-0.071,0.555-0.336,1.398-0.35,1.438
						c-1.32,4.209-5.305,7.408-9.167,10.481l-0.915,0.74c-0.503,0.401-1.003,0.798-1.506,1.198
						c-3.516,2.773-6.831,5.402-8.185,9.231c-0.995,2.837-0.716,5.884,0.746,7.941c0.718,1.021,2.052,2.241,4.311,2.241
						c0.937,0,1.945-0.215,3.006-0.627c0.479-0.195,1.212-0.656,1.632-1.151c0.595-0.696,0.982-1.792,1.429-3.058
						c0.507-1.416,1.074-3.026,2.119-4.555c1.319-1.894,3.622-3.552,5.661-5.017l2.112-1.521c1.703-1.225,3.306-2.373,4.699-3.563
						c3.389-2.896,7.125-6.433,8.407-11.692c2.019-8.24-1.903-15.953-6.396-19.632c-2.042-1.669-4.897-3.203-8.044-4.338
						c-2.63-0.942-6.052-1.644-10.459-2.144h-5.54c-7.284,1.076-16.885,4.201-21.578,12.953c-1.499,2.787-2.706,6.758-1.607,9.521
						c0.594,1.48,2.938,3.076,5.693,3.076c0.964,0,1.876-0.194,2.719-0.586c1.933-0.889,2.776-2.758,3.851-5.123
						c0.705-1.571,1.507-3.352,2.756-5.008c2.396-3.188,6.602-5.104,11.26-5.145C242.894,310.882,243.027,310.882,243.027,310.882z"
						/>
					<path fill="#27140E" d="M241.17,363.441c-3.412,0-6.38-1.537-8.354-4.325c-2.374-3.354-2.902-8.136-1.376-12.462
						c1.829-5.184,5.869-8.379,9.78-11.469l2.407-1.918c3.426-2.738,6.659-5.313,7.532-8.095c0.067-0.219,0.149-0.521,0.172-0.644
						c0.353-2.485-0.136-4.586-1.418-6.065c-1.473-1.69-3.919-2.622-6.886-2.622c-3.176,0.021-5.963,1.204-7.443,3.162
						c-0.905,1.203-1.552,2.633-2.176,4.02c-1.272,2.819-2.69,5.977-6.312,7.636c-1.506,0.69-3.118,1.036-4.792,1.036
						c-4.532,0-8.86-2.604-10.29-6.19c-2.188-5.478,0.852-11.871,1.834-13.698c4.516-8.414,13.291-13.785,25.371-15.537
						c0.147-0.021,0.295-0.029,0.438-0.029l6.133,0.019c4.819,0.543,8.642,1.329,11.677,2.415c3.717,1.339,7.004,3.122,9.504,5.164
						c5.661,4.631,10.604,14.321,8.078,24.653c-1.638,6.69-6.021,10.878-10,14.276c-1.521,1.297-3.232,2.527-4.895,3.725
						l-2.243,1.615c-1.677,1.211-3.663,2.643-4.479,3.818c-0.656,0.949-1.084,2.145-1.496,3.299
						c-0.559,1.588-1.158,3.293-2.351,4.694c-1.344,1.591-3.101,2.362-3.607,2.562C244.341,363.119,242.722,363.441,241.17,363.441z
						 M243.023,313.635c3.62,0,6.655,1.205,8.549,3.385c1.716,1.979,2.385,4.687,1.938,7.817c-0.019,0.136-0.139,0.636-0.246,0.992
						c-1.076,3.424-4.567,6.202-8.26,9.151l-2.413,1.926c-3.671,2.906-7.456,5.896-9.073,10.472
						c-1.293,3.677-0.876,7.681,1.097,10.464c2.288,3.243,6.296,4.253,10.563,2.583c0.755-0.299,1.925-0.981,2.727-1.931
						c0.93-1.092,1.437-2.528,1.925-3.926c0.491-1.381,0.97-2.705,1.788-3.898c1.032-1.488,3.187-3.045,4.921-4.289l2.189-1.579
						c1.763-1.272,3.439-2.474,4.891-3.712c3.718-3.174,7.811-7.07,9.293-13.125c2.295-9.404-2.196-18.214-7.336-22.424
						c-2.311-1.889-5.369-3.544-8.85-4.796c-2.875-1.022-6.535-1.778-11.191-2.3l-5.878-0.004
						c-11.479,1.654-19.694,6.634-23.864,14.401c-0.869,1.618-3.562,7.253-1.734,11.839c1.112,2.793,4.58,4.812,8.246,4.812
						c1.355,0,2.658-0.283,3.868-0.837c2.879-1.321,4.01-3.834,5.21-6.495c0.689-1.544,1.389-3.087,2.446-4.483
						C235.718,315.172,239.155,313.662,243.023,313.635z M241.17,359.591c-2.723,0-4.339-1.47-5.212-2.71
						c-1.663-2.341-2.001-5.771-0.884-8.947c1.458-4.138,4.9-6.854,8.541-9.731l2.414-1.923c3.733-2.98,7.583-6.057,8.805-9.955
						c0.042-0.129,0.248-0.801,0.312-1.258c0.514-3.627-0.291-6.777-2.326-9.123c-2.215-2.549-5.69-3.959-9.792-3.959l-0.138-1.103
						l0.008,1.103c-4.317,0.039-8.196,1.793-10.391,4.705c-1.182,1.569-1.947,3.285-2.627,4.793
						c-1.127,2.484-2.09,4.617-4.396,5.681c-0.987,0.457-2.059,0.687-3.18,0.687c-3.262,0-5.976-1.92-6.716-3.773
						c-1.565-3.924,0.876-8.99,1.66-10.45c4.92-9.168,14.887-12.415,22.387-13.519l5.701-0.015c4.622,0.517,8.12,1.238,10.83,2.208
						c3.271,1.176,6.241,2.777,8.367,4.518c4.756,3.895,8.904,12.048,6.771,20.755c-1.357,5.575-5.238,9.25-8.762,12.263
						c-1.43,1.221-3.045,2.385-4.764,3.609l-2.122,1.529c-1.968,1.42-4.191,3.016-5.396,4.758c-0.951,1.379-1.494,2.901-1.975,4.248
						c-0.496,1.405-0.915,2.59-1.643,3.444c-0.567,0.669-1.468,1.222-2.068,1.46C243.383,359.348,242.232,359.591,241.17,359.591z
						 M242.887,309.782h0.141c4.752,0,8.818,1.678,11.455,4.721c2.467,2.836,3.455,6.593,2.844,10.866
						c-0.088,0.652-0.372,1.579-0.412,1.684c-1.396,4.473-5.52,7.766-9.505,10.949l-2.423,1.934
						c-3.388,2.67-6.585,5.195-7.835,8.732c-0.881,2.51-0.65,5.17,0.603,6.946c1.301,1.825,3.386,2.249,6.021,1.223
						c0.347-0.139,0.916-0.506,1.195-0.842c0.461-0.541,0.815-1.547,1.229-2.708c0.538-1.516,1.13-3.186,2.25-4.811
						c1.423-2.054,3.812-3.768,5.917-5.281l2.118-1.53c1.688-1.212,3.27-2.347,4.631-3.506c3.262-2.788,6.846-6.179,8.049-11.114
						c1.908-7.775-1.788-15.052-6.025-18.52c-1.937-1.586-4.678-3.057-7.716-4.152c-2.543-0.913-5.884-1.594-10.211-2.081
						l-5.415,0.003c-6.838,1.021-16.124,4.014-20.609,12.371c-1.314,2.453-2.512,6.176-1.548,8.593
						c0.389,0.976,2.273,2.382,4.665,2.382c0.801,0,1.563-0.16,2.263-0.48c1.553-0.715,2.285-2.325,3.294-4.562
						c0.698-1.556,1.559-3.47,2.888-5.232c2.598-3.454,7.134-5.543,12.131-5.581h0.006V309.782z"/>
				</g>
			</g>
			<g>
				<g>
					<path fill="#F3F3F3" d="M243.041,387.585c-0.888,0-1.785,0-2.676,0c-5.941-0.927-10.622-7.438-7.626-13.967
						c1.374-2.976,4.62-5.679,9.038-5.642c4.008,0.033,6.878,2.375,8.318,4.799C253.771,378.932,249.848,386.512,243.041,387.585z"
						/>
					<path fill="#27140E" d="M243.128,388.689h-2.763c-3.621-0.551-6.688-2.746-8.373-5.883c-1.627-3.029-1.716-6.459-0.25-9.646
						c1.335-2.898,4.74-6.286,9.948-6.286c3.923,0.034,7.385,2.028,9.353,5.335c1.887,3.164,2.081,6.879,0.529,10.189
						c-1.57,3.347-4.695,5.696-8.359,6.276L243.128,388.689z M241.767,369.078c-4.243,0-6.962,2.693-8.025,4.999
						c-1.168,2.551-1.099,5.274,0.191,7.681c1.34,2.501,3.872,4.316,6.604,4.742l2.413-0.012c2.908-0.489,5.379-2.365,6.625-5.026
						c1.235-2.64,1.081-5.596-0.425-8.123C248.562,372.352,246.293,369.114,241.767,369.078z"/>
				</g>
				<g>
					<path fill="#2C2010" d="M243.041,389.516h-2.676c-0.101,0-0.2-0.008-0.302-0.025c-3.702-0.577-6.989-2.936-8.796-6.297
						c-1.753-3.262-1.851-6.949-0.272-10.373c1.433-3.124,5.096-6.771,10.695-6.771c4.216,0.037,7.945,2.178,10.062,5.737
						c2.025,3.405,2.234,7.397,0.566,10.959c-1.688,3.603-5.039,6.124-8.973,6.745C243.246,389.508,243.143,389.516,243.041,389.516
						z M240.52,385.661h2.364c2.606-0.464,4.823-2.152,5.943-4.552c1.117-2.391,0.979-5.064-0.384-7.346
						c-0.535-0.902-2.594-3.828-6.681-3.861c-3.851,0-6.312,2.437-7.27,4.521c-1.057,2.307-1,4.775,0.167,6.951
						C235.858,383.604,238.096,385.238,240.52,385.661z"/>
					<path fill="#27140E" d="M243.041,390.621h-2.676c-0.147,0-0.302-0.014-0.442-0.032c-4.064-0.642-7.657-3.207-9.626-6.871
						c-1.918-3.579-2.024-7.614-0.306-11.36c1.57-3.416,5.583-7.409,11.699-7.409c4.585,0.042,8.696,2.384,11.009,6.274
						c2.22,3.727,2.445,8.092,0.619,11.988c-1.852,3.946-5.52,6.691-9.803,7.364C243.375,390.607,243.206,390.621,243.041,390.621z
						 M241.684,367.15c-5.073,0-8.392,3.302-9.688,6.125c-1.428,3.109-1.342,6.447,0.246,9.399c1.64,3.062,4.632,5.206,7.995,5.729
						l2.805,0.007l0.118-0.007c3.578-0.565,6.623-2.855,8.165-6.133c1.509-3.225,1.317-6.838-0.519-9.92
						C248.889,369.127,245.48,367.184,241.684,367.15z M240.52,386.762c-2.934-0.498-5.478-2.354-6.828-4.867
						c-1.337-2.48-1.408-5.302-0.201-7.935c1.096-2.372,3.919-5.161,8.272-5.161h0.004c4.665,0.036,7.016,3.383,7.625,4.396
						c1.549,2.602,1.706,5.662,0.438,8.381c-1.275,2.716-3.793,4.645-6.753,5.168L240.52,386.762z M241.757,371.002
						c-3.306,0.003-5.439,2.091-6.258,3.883c-0.913,1.986-0.865,4.109,0.136,5.967c1.03,1.93,2.981,3.361,5.08,3.724l2.169-0.013
						c2.062-0.383,3.979-1.854,4.945-3.918c0.959-2.055,0.841-4.353-0.334-6.318C247.039,373.552,245.27,371.039,241.757,371.002z"
						/>
				</g>
			</g>
		</g>
	</g>
</g>
</svg>
