<?xml version="1.0" encoding="utf-8"?>
<!-- Generator: Adobe Illustrator 16.0.0, SVG Export Plug-In . SVG Version: 6.00 Build 0)  -->
<!DOCTYPE svg PUBLIC "-//W3C//DTD SVG 1.1//EN" "http://www.w3.org/Graphics/SVG/1.1/DTD/svg11.dtd">
<svg version="1.1" id="Layer_1" xmlns="http://www.w3.org/2000/svg" xmlns:xlink="http://www.w3.org/1999/xlink" x="0px" y="0px"
	 width="500px" height="500px" viewBox="0 0 500 500" enable-background="new 0 0 500 500" xml:space="preserve">
<g id="Layer_1_copy_86">
	<g>
		<g>
			<path fill="#FDDC1F" d="M475.938,248.187c0,127.437-103.306,230.738-230.738,230.738c-127.429,0-230.733-103.301-230.733-230.738
				c0-127.43,103.305-230.734,230.733-230.734C372.632,17.452,475.938,120.757,475.938,248.187z"/>
		</g>
		<g>
			<path fill="#FCB022" d="M245.198,482.385c-129.135,0-234.199-105.062-234.199-234.199S116.063,13.989,245.198,13.989
				c129.14,0,234.199,105.062,234.199,234.197C479.397,377.322,374.338,482.385,245.198,482.385z M245.198,20.915
				c-125.316,0-227.27,101.953-227.27,227.271c0,125.321,101.953,227.277,227.27,227.277c125.319,0,227.276-101.956,227.276-227.277
				C472.476,122.868,370.519,20.915,245.198,20.915z"/>
		</g>
	</g>
	<g>
		<path fill="#4C230D" d="M242.48,283.477c-4.398,0-7.595-1.515-9.721-3.072c-5.143-3.771-8.091-10.844-8.091-19.385
			c0-15.24,15.536-19.271,23.75-19.271c1.911,0,3.461,1.554,3.461,3.465s-1.547,3.46-3.454,3.46
			c-0.75,0.008-16.831,0.241-16.831,12.346c0,6.312,1.918,11.344,5.26,13.801c2.668,1.953,6.206,2.258,10.523,0.899
			c1.838-0.588,3.773,0.445,4.348,2.263c0.572,1.828-0.443,3.774-2.27,4.34C246.861,283.145,244.537,283.477,242.48,283.477z"/>
	</g>
	<g>
		<g>
			<path fill="#DEF2FD" d="M221.749,187.11c-0.622,41.977-26.832,75.637-58.551,75.162c-31.716-0.467-56.92-34.877-56.305-76.858
				c0.62-41.977,26.833-75.626,58.552-75.158C197.161,110.721,222.365,145.133,221.749,187.11z"/>
		</g>
		<g>
			<path fill="#C3E5F2" d="M163.856,264.585l-0.69-0.007c-32.937-0.487-59.214-36.018-58.583-79.199
				c0.633-42.699,27.643-77.438,60.203-77.438l0.69,0.005c16.081,0.236,31.034,8.69,42.106,23.805
				c10.932,14.918,16.778,34.593,16.475,55.393C223.427,229.848,196.418,264.585,163.856,264.585z M164.786,112.559
				c-30.052,0-54.99,32.696-55.582,72.89c-0.601,40.637,23.64,74.062,54.029,74.516l0.623,0.008
				c30.056,0,54.991-32.703,55.586-72.896c0.29-19.804-5.245-38.483-15.585-52.596c-10.193-13.919-23.854-21.703-38.447-21.917
				L164.786,112.559z"/>
		</g>
	</g>
	<g>
		<path fill="#010101" d="M184.697,194.703c-0.507,16.702-9.641,29.979-20.392,29.651c-10.759-0.326-19.067-14.126-18.565-30.827
			c0.506-16.705,9.637-29.979,20.396-29.655C176.89,164.195,185.2,177.999,184.697,194.703z"/>
	</g>
	<g>
		<g>
			<path fill="#DEF2FD" d="M260.559,181.331c-3.604,43.136,19.896,80.325,52.495,83.043c32.591,2.718,61.937-30.038,65.537-73.18
				c3.604-43.139-19.896-80.318-52.492-83.041C293.505,105.43,264.164,138.195,260.559,181.331z"/>
		</g>
		<g>
			<path fill="#C3E5F2" d="M316.833,266.844L316.833,266.844c-1.316,0-2.653-0.058-3.974-0.17
				c-16.502-1.374-31.271-11.119-41.58-27.435c-10.18-16.104-14.807-36.739-13.02-58.098c3.532-42.313,31.666-75.455,64.051-75.455
				c1.32,0,2.658,0.055,3.979,0.164c33.812,2.828,58.308,41.199,54.603,85.535C377.359,233.694,349.218,266.844,316.833,266.844z
				 M322.312,110.303c-30.004,0-56.117,31.284-59.455,71.221c-1.697,20.367,2.677,39.988,12.326,55.253
				c9.518,15.062,23.032,24.043,38.062,25.296c1.188,0.106,2.396,0.155,3.588,0.155c30.004,0,56.124-31.291,59.461-71.228
				c3.486-41.8-19.113-77.933-50.387-80.548C324.714,110.354,323.508,110.303,322.312,110.303z"/>
		</g>
	</g>
	<g>
		<path fill="#010101" d="M297.815,192.864c-1.169,17.191,6.865,31.74,17.932,32.486c11.069,0.758,20.992-12.567,22.16-29.758
			c1.168-17.192-6.861-31.736-17.933-32.49C308.909,162.35,298.982,175.674,297.815,192.864z"/>
	</g>
	<g>
		<path fill="#4C230D" d="M237.52,441.305c-3.872,0-7.188-0.629-9.867-1.465c-7.722-2.385-11.997-6.908-12.177-7.092
			c-1.307-1.402-1.229-3.595,0.169-4.897c1.398-1.304,3.578-1.23,4.884,0.156c0.57,0.602,13.572,13.729,36.274,0.537
			c1.653-0.955,3.772-0.396,4.735,1.253c0.959,1.655,0.399,3.78-1.257,4.734C251.458,439.664,243.762,441.305,237.52,441.305z"/>
	</g>
	<g>
		<ellipse fill="#F3F3F3" cx="166.423" cy="180.042" rx="6.06" ry="6.222"/>
	</g>
	<g>
		<path fill="#F3F3F3" d="M321.091,180.042c0,3.435-2.715,6.222-6.059,6.222c-3.35,0-6.062-2.787-6.062-6.222
			c0-3.438,2.714-6.223,6.062-6.223C318.376,173.819,321.091,176.604,321.091,180.042z"/>
	</g>
	<g>
		<g>
			<path fill="#FDDC1F" d="M105.977,192.839l114.552-16.56c0,0-2.778-66.283-61.064-67.192
				C101.172,108.179,105.977,192.839,105.977,192.839z"/>
		</g>
		<g>
			<path fill="#FCB022" d="M105.977,196.302c-0.792,0-1.563-0.272-2.186-0.78c-0.755-0.614-1.215-1.516-1.268-2.486
				c-0.114-1.96-2.463-48.308,20.681-72.81c9.163-9.693,21.05-14.607,35.33-14.607l0.98,0.005
				c60.854,0.949,64.443,69.814,64.472,70.51c0.077,1.775-1.203,3.318-2.963,3.573l-114.551,16.56
				C106.31,196.292,106.144,196.302,105.977,196.302z M158.534,112.543c-12.302,0-22.493,4.186-30.293,12.441
				c-17.508,18.531-18.93,52.528-18.888,63.869l107.441-15.532c-0.612-5.452-2.513-17.279-8.153-28.988
				c-9.987-20.736-26.553-31.431-49.234-31.783L158.534,112.543z"/>
		</g>
	</g>
	<g>
		<g>
			<path fill="#FDDC1F" d="M377.501,191.756L262.95,175.194c0,0,2.78-66.288,61.069-67.192
				C382.307,107.095,377.501,191.756,377.501,191.756z"/>
		</g>
		<g>
			<path fill="#FCB022" d="M377.501,195.218c-0.166,0-0.332-0.011-0.495-0.036L262.454,178.62c-1.759-0.253-3.039-1.796-2.962-3.571
				c0.023-0.696,3.615-69.564,64.476-70.511l0.98-0.007c14.278,0,26.163,4.915,35.321,14.61c23.147,24.5,20.799,70.849,20.688,72.81
				c-0.057,0.97-0.514,1.873-1.267,2.486C379.068,194.945,378.291,195.218,377.501,195.218z M266.68,172.236l107.445,15.532
				c0.031-11.349-1.408-45.383-18.897-63.883c-7.797-8.247-17.984-12.427-30.278-12.427l-0.875,0.005
				c-22.747,0.354-39.346,11.11-49.325,31.969C269.161,155.12,267.284,166.823,266.68,172.236z"/>
		</g>
	</g>
	<g>
		<path fill="#27140E" d="M304.631,69.121c0,0,32.958,1.911,70.708,27.741c37.75,25.827,4.257-13.873,4.257-13.873
			s-30.308-38.534-72.841-25.721C287.712,67.052,304.631,69.121,304.631,69.121z"/>
		<path fill="#27140E" d="M391.812,107.902c-0.004,0-0.004,0-0.004,0c-2.061,0-5.938-1.039-17.77-9.134
			c-36.801-25.176-69.222-27.324-69.543-27.341c-2.046-0.246-8.281-1.331-9.031-5.549c-0.613-3.424,2.541-6.712,10.23-10.663
			c0.127-0.064,0.255-0.117,0.393-0.158c5.964-1.796,12.039-2.707,18.052-2.707c33.899,0,56.333,28.021,57.271,29.212
			c10.74,12.731,15.416,20.935,13.841,24.323C394.97,106.492,394.07,107.902,391.812,107.902z M307.622,59.417
			c-7.372,3.817-7.609,5.671-7.612,5.689c0.293,0.55,2.778,1.465,4.901,1.724c1.228,0.067,33.885,2.233,71.732,28.129
			c8.513,5.821,12.408,7.598,14.109,8.12c-1.237-3.466-7.226-11.847-12.924-18.599c-0.262-0.334-22.072-27.514-53.689-27.514
			C318.645,56.966,313.089,57.791,307.622,59.417z"/>
	</g>
	<g>
		<path fill="#27140E" d="M177.792,71.521c0,0-32.957,1.913-70.711,27.744c-37.746,25.825-4.257-13.875-4.257-13.875
			s30.311-38.534,72.841-25.723C194.709,69.451,177.792,71.521,177.792,71.521z"/>
		<path fill="#27140E" d="M90.611,110.303c-2.258,0-3.156-1.41-3.439-2.017c-1.575-3.389,3.1-11.592,13.887-24.385
			c0.892-1.131,23.321-29.15,57.217-29.15c6.02,0,12.097,0.909,18.06,2.707c0.134,0.041,0.265,0.094,0.389,0.155
			c7.689,3.953,10.847,7.243,10.238,10.663c-0.758,4.22-6.993,5.305-8.89,5.537c-0.468,0.034-32.968,2.233-69.688,27.356
			C96.549,109.264,92.671,110.303,90.611,110.303z M158.275,59.367c-31.613,0-53.42,27.177-53.636,27.452
			c-5.74,6.809-11.729,15.194-12.974,18.661c1.706-0.522,5.599-2.297,14.113-8.12c37.845-25.894,70.506-28.063,71.879-28.144
			c2.163-0.276,4.483-1.219,4.767-1.792l0,0c-0.024,0-0.379-1.853-7.622-5.606C169.339,60.193,163.778,59.367,158.275,59.367z"/>
	</g>
	<g>
		<g>
			<path fill="#FDDC1F" d="M133.237,269.618c0,0,34.052-34.625,80.798-10.384"/>
		</g>
		<g>
			<path fill="#FCB022" d="M133.237,273.086c-0.874,0-1.752-0.333-2.424-0.998c-1.366-1.338-1.383-3.531-0.043-4.891
				c0.358-0.368,36.398-36.161,84.86-11.042c1.695,0.885,2.36,2.973,1.479,4.672c-0.882,1.698-2.97,2.364-4.668,1.479
				c-43.968-22.799-76.412,9.412-76.735,9.744C135.032,272.739,134.134,273.086,133.237,273.086z"/>
		</g>
	</g>
	<g>
		<g>
			<path fill="#FDDC1F" d="M355.433,274.035c0,0-34.052-34.628-80.802-10.391"/>
		</g>
		<g>
			<path fill="#FCB022" d="M355.433,277.496c-0.897,0-1.791-0.348-2.471-1.034c-1.362-1.372-32.926-32.458-76.733-9.737
				c-1.699,0.877-3.791,0.213-4.672-1.485c-0.873-1.7-0.213-3.787,1.482-4.665c48.458-25.126,84.499,10.666,84.859,11.033
				c1.342,1.36,1.322,3.554-0.042,4.897C357.181,277.163,356.31,277.496,355.433,277.496z"/>
		</g>
	</g>
	<g>
		<g>
			<path fill="#C12026" d="M190.183,399.667c-16.467,6.54-35.376,3.856-28.948-18.358c6.423-22.226,18.13-61.231,76.285-61.451
				c43.464-0.17,94.991,45.603,75.782,72.117C294.064,418.521,270.286,376.579,190.183,399.667z"/>
		</g>
		<g>
			<path fill="#4C230D" d="M175.306,406.243c-7.043,0-12.473-2.267-15.692-6.55c-3.5-4.655-4.076-11.168-1.706-19.35
				c6.438-22.273,18.424-63.723,79.598-63.955h0.248c32.969,0,67.363,23.993,78.797,46.41c5.906,11.571,5.748,22.655-0.444,31.205
				c-5.31,7.326-11.354,10.596-19.595,10.596c-5.49,0-11.611-1.465-18.697-3.156c-10.357-2.471-23.244-5.549-40.074-5.549
				c-14.729,0-29.922,2.308-46.438,7.049C185.815,405.102,180.288,406.243,175.306,406.243z M237.753,323.316
				c-56.206,0.213-66.844,36.982-73.195,58.945c-1.189,4.119-2.054,9.754,0.59,13.271c2.357,3.129,6.824,3.785,10.158,3.785
				c4.104,0,8.931-1.02,13.599-2.873c0.104-0.043,0.209-0.078,0.315-0.112c17.214-4.955,33.082-7.369,48.519-7.369
				c17.646,0,30.977,3.187,41.685,5.741c6.661,1.592,12.414,2.966,17.088,2.966c5.951,0,10.006-2.237,13.988-7.729
				c5.882-8.118,3.182-17.531-0.113-23.992C300.094,345.783,267.73,323.316,237.753,323.316z"/>
		</g>
	</g>
	<g>
		<path fill="#F3F3F3" d="M282.715,337.581c0,0-25.363-16.252-49.492-14.142c-23.081,2.023-36.932,5.914-51.505,22.074h111.323
			L282.715,337.581z"/>
	</g>
</g>
</svg>
