<svg id="toilet" xmlns="http://www.w3.org/2000/svg" viewBox="0 0 300 300"><defs><style>.cls-1{fill:#cdcccb;}.cls-2{fill:#3c2417;}.cls-3{fill:#fff;}.cls-4{fill:#c9eaf8;}.cls-5{fill:#9fdbf0;}.cls-6{fill:gray;}.cls-7{fill:#f1f1f1;}.cls-8{fill:#ee3e54;}.cls-9{fill:#d1d2d3;}.cls-10{fill:#929497;}</style></defs><title>toilet</title><path class="cls-1" d="M58.94,116.33a115.74,115.74,0,0,1,8.59,12.26c4.27,7,25.62,5.23,25.62,5.23l19.83-2.2v-4.41s4.69-9.37,7.85-10.88S85,106.55,85,106.55Z"/><path class="cls-2" d="M87.32,135.16h0c-7.81,0-17.76-1-20.76-6a115.39,115.39,0,0,0-8.5-12.13,1.14,1.14,0,0,1,.48-1.79l26.08-9.78a1.16,1.16,0,0,1,.64,0c.08,0,9,1.92,17.93,4,18.71,4.47,18.83,5.45,19,6.48a1.34,1.34,0,0,1-.82,1.39c-2,1-5.42,6.62-7.2,10.13v4.14a1.14,1.14,0,0,1-1,1.13L93.27,135C93.14,135,90.72,135.16,87.32,135.16ZM60.8,116.84A124.55,124.55,0,0,1,68.5,128c1.89,3.11,8.75,4.89,18.82,4.89,3.3,0,5.71-.2,5.73-.2l18.8-2.09v-3.39a1.13,1.13,0,0,1,.12-.51c.43-.87,3.93-7.75,7.09-10.52-4.31-1.72-19.81-5.45-33.95-8.45Z"/><rect class="cls-3" x="52.6" y="67.7" width="74.75" height="52.16"/><path class="cls-2" d="M127.35,121H52.6a1.14,1.14,0,0,1-1.13-1.14V67.7a1.13,1.13,0,0,1,1.13-1.13h74.75a1.13,1.13,0,0,1,1.14,1.13v52.16A1.14,1.14,0,0,1,127.35,121Zm-73.61-2.27h72.48V68.84H53.74Z"/><rect class="cls-4" x="50.03" y="59.62" width="79.89" height="13.4" rx="4.41" ry="4.41"/><path class="cls-2" d="M125.52,74.16H54.44a5.54,5.54,0,0,1-5.54-5.54V64a5.54,5.54,0,0,1,5.54-5.54h71.08A5.55,5.55,0,0,1,131.06,64v4.59A5.55,5.55,0,0,1,125.52,74.16ZM54.44,60.76A3.27,3.27,0,0,0,51.17,64v4.59a3.27,3.27,0,0,0,3.27,3.27h71.08a3.28,3.28,0,0,0,3.27-3.27V64a3.28,3.28,0,0,0-3.27-3.27Z"/><path class="cls-1" d="M65.24,190.56s6.06-2.62,4.14-22.31,16.25-14.73,16.25-14.73l21.76,6.19,1.52,9.92s-2.48,14.87,5,20.93S77,197.17,77,197.17Z"/><path class="cls-2" d="M77,198.3a1.09,1.09,0,0,1-.56-.15l-11.71-6.61a1.13,1.13,0,0,1-.58-1,1.15,1.15,0,0,1,.69-1s5.23-2.89,3.45-21.14c-.56-5.69.46-10,3-12.83,2.21-2.43,5.55-3.71,9.68-3.71a21.25,21.25,0,0,1,5,.59l21.78,6.2a1.16,1.16,0,0,1,.81.92l1.51,9.92a1.09,1.09,0,0,1,0,.36c0,.14-2.28,14.29,4.56,19.86,1.38,1.12,1.38,2.18,1.14,2.87-1.67,4.78-27.66,5.62-38.76,5.75Zm-9.73-7.92,10,5.65c16.6-.23,35.06-1.89,36.32-4.2a5.6,5.6,0,0,0-.42-.39c-7.49-6.1-5.67-20-5.39-21.81l-1.38-9-21.06-6A19,19,0,0,0,81,154.1c-2.42,0-5.77.51-8,3s-2.94,6.06-2.45,11.08C71.92,182.54,69.15,188.22,67.23,190.38Z"/><path class="cls-5" d="M123.4,198.07a3.69,3.69,0,0,1-3.68,3.68H60.24a3.69,3.69,0,0,1-3.69-3.68v-3.83a3.7,3.7,0,0,1,3.69-3.68h59.48a3.7,3.7,0,0,1,3.68,3.68Z"/><path class="cls-2" d="M119.72,202.89H60.24a4.82,4.82,0,0,1-4.82-4.82v-3.83a4.82,4.82,0,0,1,4.82-4.82h59.48a4.82,4.82,0,0,1,4.82,4.82v3.83A4.82,4.82,0,0,1,119.72,202.89Zm-59.48-11.2a2.55,2.55,0,0,0-2.55,2.55v3.83a2.55,2.55,0,0,0,2.55,2.55h59.48a2.55,2.55,0,0,0,2.55-2.55v-3.83a2.55,2.55,0,0,0-2.55-2.55Z"/><path class="cls-3" d="M55,142.55C55,161,70.67,176,90,176s35-15,35-33.42L98,130.89Z"/><path class="cls-2" d="M90,177.1c-19.91,0-36.1-15.49-36.1-34.55a1.14,1.14,0,0,1,.84-1.1l43-11.66a1.21,1.21,0,0,1,.75.06l27,11.66a1.14,1.14,0,0,1,.68,1C126.08,161.61,109.89,177.1,90,177.1ZM56.16,143.42c.48,17.4,15.47,31.41,33.82,31.41s33.4-14.08,33.82-31.54l-25.9-11.2Z"/><rect class="cls-4" x="52.6" y="130.51" width="74.75" height="14.66"/><path class="cls-2" d="M127.35,146.31H52.6a1.14,1.14,0,0,1-1.13-1.14V130.51a1.14,1.14,0,0,1,1.13-1.14h74.75a1.14,1.14,0,0,1,1.14,1.14v14.66A1.14,1.14,0,0,1,127.35,146.31ZM53.74,144h72.48V131.65H53.74Z"/><rect class="cls-5" x="51.18" y="127.21" width="77.59" height="7.33"/><path class="cls-2" d="M128.77,135.67H51.18A1.14,1.14,0,0,1,50,134.54v-7.33a1.14,1.14,0,0,1,1.14-1.14h77.59a1.14,1.14,0,0,1,1.14,1.14v7.33A1.14,1.14,0,0,1,128.77,135.67ZM52.32,133.4h75.32v-5.06H52.32Z"/><path class="cls-6" d="M62.79,76.7a4.2,4.2,0,0,0-3.7,2.36h0a11.58,11.58,0,0,0-11.65,2c-4.45,3.76,0,8.06,2.89,5.34,2-1.85,5.73-4,8.93-2.46h0a4.16,4.16,0,0,0,3.54,2,4.67,4.67,0,0,0,0-9.3Z"/><path class="cls-2" d="M48.29,88.4a3.91,3.91,0,0,1-3.65-2.57c-.68-1.86.09-4,2-5.62a12.57,12.57,0,0,1,8.2-3.06,13.39,13.39,0,0,1,3.73.54,5.27,5.27,0,0,1,4.17-2.13,5.8,5.8,0,0,1,0,11.57,5.28,5.28,0,0,1-4.31-2.28,4.31,4.31,0,0,0-1.61-.3c-2.12,0-4.37,1.39-5.78,2.69A4.06,4.06,0,0,1,48.29,88.4Zm6.6-9a10.19,10.19,0,0,0-6.73,2.51c-1.22,1-1.72,2.17-1.38,3.11a1.67,1.67,0,0,0,2.77.53c.83-.78,3.82-3.31,7.32-3.31a6.44,6.44,0,0,1,2.88.66,1.16,1.16,0,0,1,.46.42,3.07,3.07,0,0,0,2.58,1.51,3.53,3.53,0,0,0,0-7,3,3,0,0,0-2.69,1.75,1.15,1.15,0,0,1-.86.6,1.1,1.1,0,0,1-.69-.13A10.78,10.78,0,0,0,54.89,79.43Z"/><path class="cls-7" d="M169.69,123.69h61.05s18.48,1.09,22.65,16.13c2.74,9.86,3,45.15,2.82,68.25-.09,12.11-1.91,33.74-34,33.74s-48.56-1.63-48.56-1.63-29.89,4-30.08-34.43S135.08,123.69,169.69,123.69Z"/><path class="cls-2" d="M222.23,243c-30.32,0-46.95-1.48-48.55-1.63-.31,0-1.15.11-2.35.11-6.74,0-28.72-2.57-28.87-35.68,0-6.18-.28-12.58-.51-18.77-.91-23.81-1.77-46.32,8.93-57.44,4.53-4.7,10.68-7,18.81-7h61.05c.26,0,19.41,1.32,23.75,16.95,2.68,9.69,3,42.64,2.85,68.57C257.28,217.62,257.1,243,222.23,243ZM173.67,239h.11c.17,0,16.82,1.63,48.45,1.63,28.91,0,32.74-17.43,32.84-32.6.15-21.12,0-58-2.77-67.95-3.9-14.06-21.45-15.28-21.63-15.29h-61c-7.48,0-13.1,2.06-17.17,6.29-10,10.42-9.19,32.46-8.3,55.77.24,6.21.48,12.63.51,18.85.14,30.16,18.64,33.42,26.6,33.42a18.87,18.87,0,0,0,2.19-.11Z"/><path class="cls-8" d="M211.36,169.71c0,4-4.67,7.25-10.42,7.25s-10.42-3.25-10.42-7.25,4.67-7.25,10.42-7.25S211.36,165.71,211.36,169.71Z"/><path class="cls-2" d="M200.94,178.09c-6.37,0-11.55-3.76-11.55-8.38s5.18-8.38,11.55-8.38,11.56,3.76,11.56,8.38S207.31,178.09,200.94,178.09Zm0-14.49c-5.12,0-9.28,2.74-9.28,6.11s4.16,6.11,9.28,6.11,9.28-2.74,9.28-6.11S206.06,163.6,200.94,163.6Z"/><path class="cls-9" d="M200.94,132s-24.73-2-27.63,12.32-10.51,87.31,27.63,86c33.79-.72,27.55-62.18,26.91-69.73S229.39,130.94,200.94,132Z"/><path class="cls-2" d="M200,231.55a23.5,23.5,0,0,1-19-9c-16.25-19.89-11-67.68-8.78-78.45,2.43-12,18.78-13.33,25.7-13.33,1.66,0,2.78.08,3.06.1,26.79-1,27.52,18.08,27.89,27.13,0,1,.07,1.82.13,2.54l.06.66c2.59,29.62-1.26,51.82-10.84,62.5A23,23,0,0,1,201,231.53Zm-2.07-98.48c-6.36,0-21.37,1.12-23.48,11.5-2.13,10.56-7.38,57.36,8.32,76.56a21.45,21.45,0,0,0,18.16,8.13,20.78,20.78,0,0,0,15.6-7c9.16-10.22,12.81-31.8,10.27-60.79l-.06-.67c-.06-.75-.1-1.64-.14-2.64-.36-9-1-25.88-25.59-25h-.13S199.69,133.07,197.9,133.07Z"/><path class="cls-2" d="M228.54,171.93a1.14,1.14,0,0,1-1.13-1.06,39.33,39.33,0,0,0-4.59-14.57c-5.3-9.41-13.81-14-25.37-13.53-10.46.39-17.82,3.06-21.86,7.93a14,14,0,0,0-3.22,10.13,1.14,1.14,0,0,1-2.25.34,16.08,16.08,0,0,1,3.68-11.88c4.48-5.42,12.4-8.38,23.56-8.79,29.76-1.1,32.29,29.9,32.31,30.21a1.13,1.13,0,0,1-1,1.22Z"/><path class="cls-2" d="M165.72,157.34H147.6a1.14,1.14,0,0,1,0-2.28h18.12a1.14,1.14,0,1,1,0,2.28Z"/><path class="cls-2" d="M165.18,166h-17a1.14,1.14,0,1,1,0-2.27h17a1.14,1.14,0,1,1,0,2.27Z"/><path class="cls-2" d="M165.72,173.78H147.6a1.14,1.14,0,0,1,0-2.27h18.12a1.14,1.14,0,1,1,0,2.27Z"/><path class="cls-2" d="M165.18,182.4h-17a1.14,1.14,0,1,1,0-2.27h17a1.14,1.14,0,1,1,0,2.27Z"/><path class="cls-2" d="M165.72,189H147.6a1.14,1.14,0,0,1,0-2.27h18.12a1.14,1.14,0,1,1,0,2.27Z"/><path class="cls-2" d="M165.18,197.65h-17a1.14,1.14,0,1,1,0-2.28h17a1.14,1.14,0,1,1,0,2.28Z"/><path class="cls-2" d="M165.18,206h-17a1.14,1.14,0,1,1,0-2.27h17a1.14,1.14,0,1,1,0,2.27Z"/><path class="cls-2" d="M251.6,158.08H233.49a1.14,1.14,0,1,1,0-2.27H251.6a1.14,1.14,0,1,1,0,2.27Z"/><path class="cls-2" d="M251.06,166.7H234a1.14,1.14,0,1,1,0-2.27h17a1.14,1.14,0,1,1,0,2.27Z"/><path class="cls-2" d="M251.6,174.52H233.49a1.14,1.14,0,1,1,0-2.27H251.6a1.14,1.14,0,1,1,0,2.27Z"/><path class="cls-2" d="M251.06,183.14H234a1.13,1.13,0,1,1,0-2.26h17a1.13,1.13,0,1,1,0,2.26Z"/><path class="cls-2" d="M251.6,189.77H233.49a1.14,1.14,0,1,1,0-2.27H251.6a1.14,1.14,0,1,1,0,2.27Z"/><path class="cls-2" d="M251.06,198.39H234a1.14,1.14,0,1,1,0-2.27h17a1.14,1.14,0,1,1,0,2.27Z"/><path class="cls-2" d="M251.06,206.72H234a1.14,1.14,0,1,1,0-2.27h17a1.14,1.14,0,1,1,0,2.27Z"/><ellipse class="cls-10" cx="199.96" cy="164.79" rx="11.4" ry="7.85"/><path class="cls-2" d="M200,173.78c-6.91,0-12.54-4-12.54-9s5.63-9,12.54-9,12.54,4,12.54,9S206.87,173.78,200,173.78Zm0-15.7c-5.66,0-10.27,3-10.27,6.71s4.61,6.72,10.27,6.72,10.26-3,10.26-6.72S205.62,158.08,200,158.08Z"/></svg>