<svg id="toilet" xmlns="http://www.w3.org/2000/svg" viewBox="0 0 300 300"><defs><style>.cls-1{fill:#cdcccb;}.cls-2{fill:#3c2417;}.cls-3{fill:#fff;}.cls-4{fill:#c9eaf8;}.cls-5{fill:#9fdbf0;}.cls-6{fill:gray;}.cls-7{fill:#f1f1f1;}.cls-8{fill:#ee3e54;}.cls-9{fill:#d1d2d3;}.cls-10{fill:#929497;}</style></defs><title>toilets</title><path class="cls-1" d="M62.21,117.48a111.82,111.82,0,0,1,8.2,11.71c4.08,6.71,24.46,5,24.46,5l18.93-2.11v-4.21s4.48-8.94,7.5-10.39-34.19-9.33-34.19-9.33Z"/><path class="cls-2" d="M89.31,135.47h0c-7.46,0-17-1-19.83-5.72a110.2,110.2,0,0,0-8.1-11.57,1.08,1.08,0,0,1,.45-1.71l24.9-9.34a1,1,0,0,1,.6,0c.09,0,8.65,1.83,17.13,3.86,17.86,4.26,18,5.2,18.09,6.19a1.29,1.29,0,0,1-.79,1.32c-1.91.92-5.17,6.32-6.87,9.67v4a1.08,1.08,0,0,1-1,1.08L95,135.26C94.86,135.27,92.55,135.47,89.31,135.47ZM64,118a119.45,119.45,0,0,1,7.35,10.65c1.8,3,8.35,4.67,18,4.67,3.15,0,5.44-.19,5.47-.19l17.94-2v-3.24a1.16,1.16,0,0,1,.11-.48c.42-.84,3.76-7.4,6.77-10-4.1-1.65-18.9-5.2-32.4-8.08Z"/><rect class="cls-3" x="56.16" y="71.07" width="71.36" height="49.79"/><path class="cls-2" d="M127.52,122H56.16a1.09,1.09,0,0,1-1.08-1.09V71.07A1.09,1.09,0,0,1,56.16,70h71.36a1.09,1.09,0,0,1,1.09,1.09v49.79A1.09,1.09,0,0,1,127.52,122Zm-70.27-2.17h69.19V72.15H57.25Z"/><rect class="cls-4" x="53.71" y="63.35" width="76.27" height="12.8" rx="4.21" ry="4.21"/><path class="cls-2" d="M125.77,77.24H57.92a5.31,5.31,0,0,1-5.3-5.3V67.56a5.3,5.3,0,0,1,5.3-5.29h67.85a5.29,5.29,0,0,1,5.29,5.29v4.38A5.3,5.3,0,0,1,125.77,77.24ZM57.92,64.44a3.13,3.13,0,0,0-3.13,3.12v4.38a3.13,3.13,0,0,0,3.13,3.13h67.85a3.13,3.13,0,0,0,3.12-3.13V67.56a3.12,3.12,0,0,0-3.12-3.12Z"/><path class="cls-1" d="M68.23,188.35s5.79-2.5,4-21.29S87.69,153,87.69,153l20.78,5.92,1.45,9.47s-2.37,14.19,4.73,20-35.24,6.31-35.24,6.31Z"/><path class="cls-2" d="M79.41,195.75a1,1,0,0,1-.53-.15L67.7,189.29a1.09,1.09,0,0,1,.1-1.94s5-2.76,3.3-20.18c-.53-5.43.44-9.55,2.89-12.25,2.1-2.32,5.29-3.54,9.23-3.54a20.4,20.4,0,0,1,4.76.56l20.79,5.92a1.09,1.09,0,0,1,.77.88l1.45,9.47a1.29,1.29,0,0,1,0,.34c0,.14-2.18,13.65,4.35,19,1.31,1.07,1.32,2.08,1.09,2.74-1.59,4.56-26.41,5.36-37,5.5Zm-9.28-7.57,9.56,5.39c15.85-.21,33.47-1.79,34.68-4,0,0-.13-.15-.4-.37-7.15-5.82-5.42-19.05-5.15-20.81l-1.32-8.62L87.4,154a17.19,17.19,0,0,0-4.18-.5c-2.3,0-5.51.5-7.63,2.84s-2.8,5.78-2.33,10.57C74.6,180.7,72,186.12,70.13,188.18Z"/><path class="cls-5" d="M123.75,195.53a3.52,3.52,0,0,1-3.51,3.51H63.45a3.53,3.53,0,0,1-3.52-3.51v-3.67a3.53,3.53,0,0,1,3.52-3.51h56.79a3.52,3.52,0,0,1,3.51,3.51Z"/><path class="cls-2" d="M120.24,200.12H63.45a4.6,4.6,0,0,1-4.6-4.59v-3.67a4.6,4.6,0,0,1,4.6-4.59h56.79a4.6,4.6,0,0,1,4.6,4.59v3.67A4.6,4.6,0,0,1,120.24,200.12ZM63.45,189.43A2.44,2.44,0,0,0,61,191.86v3.67A2.44,2.44,0,0,0,63.45,198h56.79a2.44,2.44,0,0,0,2.43-2.43v-3.67a2.44,2.44,0,0,0-2.43-2.43Z"/><path class="cls-3" d="M58.46,142.52c0,17.62,14.95,31.9,33.38,31.9s33.38-14.28,33.38-31.9L99.49,131.39Z"/><path class="cls-2" d="M91.84,175.5c-19,0-34.46-14.79-34.46-33a1.09,1.09,0,0,1,.8-1.05l41-11.13a1.15,1.15,0,0,1,.71,0l25.73,11.14a1.08,1.08,0,0,1,.66,1C126.31,160.71,110.85,175.5,91.84,175.5ZM59.56,143.35c.46,16.61,14.77,30,32.28,30s31.89-13.44,32.29-30.11l-24.72-10.7Z"/><rect class="cls-4" x="56.16" y="131.03" width="71.36" height="14"/><path class="cls-2" d="M127.52,146.11H56.16A1.09,1.09,0,0,1,55.08,145V131a1.09,1.09,0,0,1,1.08-1.09h71.36a1.09,1.09,0,0,1,1.09,1.09v14A1.09,1.09,0,0,1,127.52,146.11Zm-70.27-2.17h69.19V132.11H57.25Z"/><rect class="cls-5" x="54.81" y="127.87" width="74.08" height="7"/><path class="cls-2" d="M128.88,136H54.81a1.09,1.09,0,0,1-1.09-1.09v-7a1.08,1.08,0,0,1,1.09-1.08h74.07a1.08,1.08,0,0,1,1.08,1.08v7A1.08,1.08,0,0,1,128.88,136Zm-73-2.17H127.8V129H55.89Z"/><path class="cls-6" d="M65.88,79.66a4,4,0,0,0-3.53,2.25h0a11,11,0,0,0-11.12,1.93c-4.24,3.58,0,7.69,2.76,5.09,1.91-1.76,5.47-3.84,8.52-2.34h0a4,4,0,0,0,3.38,2,4.45,4.45,0,0,0,0-8.87Z"/><path class="cls-2" d="M52,90.83a3.72,3.72,0,0,1-3.47-2.46c-.66-1.77.08-3.78,2-5.37a12,12,0,0,1,7.83-2.91,12.81,12.81,0,0,1,3.56.51,5,5,0,0,1,4-2,5.54,5.54,0,0,1,0,11.05,5,5,0,0,1-4.1-2.18,4.17,4.17,0,0,0-1.54-.29,9,9,0,0,0-5.52,2.57A3.92,3.92,0,0,1,52,90.83Zm6.31-8.57a9.76,9.76,0,0,0-6.43,2.4c-1.17,1-1.64,2.07-1.32,3a1.6,1.6,0,0,0,2.65.5c.79-.74,3.65-3.15,7-3.15A6.22,6.22,0,0,1,63,85.6a1.16,1.16,0,0,1,.45.4,2.91,2.91,0,0,0,2.45,1.45,3.38,3.38,0,0,0,0-6.71,2.9,2.9,0,0,0-2.56,1.68,1.11,1.11,0,0,1-.82.57,1.07,1.07,0,0,1-.66-.12A10,10,0,0,0,58.35,82.26Z"/><path class="cls-7" d="M167.94,124.52h58.29s17.64,1,21.62,15.39c2.61,9.42,2.84,43.11,2.69,65.16-.09,11.56-1.83,32.21-32.44,32.21s-46.36-1.56-46.36-1.56S143.2,239.53,143,202.85,134.9,124.52,167.94,124.52Z"/><path class="cls-2" d="M218.1,238.36c-28.94,0-44.83-1.41-46.35-1.55a21.8,21.8,0,0,1-2.25.11c-6.43,0-27.41-2.46-27.56-34.06,0-5.91-.26-12-.49-17.92-.86-22.74-1.68-44.22,8.53-54.84,4.32-4.48,10.2-6.67,18-6.67h58.29c.24,0,18.53,1.26,22.66,16.19,2.57,9.25,2.9,40.71,2.73,65.46C251.56,214.18,251.39,238.36,218.1,238.36Zm-46.36-3.72h.11c.15,0,16.05,1.55,46.25,1.55,27.6,0,31.25-16.64,31.35-31.13.14-20.15,0-55.38-2.65-64.86-3.72-13.42-20.47-14.59-20.64-14.6H167.94c-7.14,0-12.5,2-16.39,6-9.58,9.95-8.78,31-7.93,53.24.23,5.93.47,12.06.49,18,.14,28.79,17.8,31.9,25.39,31.9a17.46,17.46,0,0,0,2.1-.11Z"/><path class="cls-8" d="M207.72,168.45c0,3.82-4.45,6.92-9.95,6.92s-9.94-3.1-9.94-6.92,4.45-6.92,9.94-6.92S207.72,164.63,207.72,168.45Z"/><path class="cls-2" d="M197.77,176.45c-6.08,0-11-3.59-11-8s4.95-8,11-8,11,3.59,11,8S203.85,176.45,197.77,176.45Zm0-13.83c-4.88,0-8.86,2.62-8.86,5.83s4,5.83,8.86,5.83,8.86-2.61,8.86-5.83S202.66,162.62,197.77,162.62Z"/><path class="cls-9" d="M197.77,132.47s-23.61-1.9-26.38,11.77-10,83.35,26.38,82.14c32.26-.69,26.3-59.36,25.69-66.58S224.93,131.44,197.77,132.47Z"/><path class="cls-2" d="M196.84,227.48a22.42,22.42,0,0,1-18.12-8.57c-15.52-19-10.47-64.61-8.39-74.89,2.33-11.48,17.94-12.72,24.54-12.72,1.58,0,2.65.07,2.92.09,25.57-1,26.27,17.26,26.62,25.9,0,.91.07,1.73.13,2.42l.05.64c2.48,28.27-1.19,49.46-10.34,59.66a21.93,21.93,0,0,1-16.45,7.46Zm-2-94c-6.07,0-20.4,1.07-22.41,11-2,10.08-7,54.76,7.94,73.09a20.48,20.48,0,0,0,17.34,7.76,19.86,19.86,0,0,0,14.89-6.74c8.75-9.75,12.23-30.35,9.8-58l-.05-.63c-.06-.72-.1-1.57-.14-2.52-.34-8.57-1-24.71-24.43-23.82h-.12S196.58,133.47,194.87,133.47Z"/><path class="cls-2" d="M224.12,170.57a1.09,1.09,0,0,1-1.08-1,37.29,37.29,0,0,0-4.38-13.92c-5.06-9-13.18-13.32-24.22-12.91-10,.37-17,2.92-20.87,7.57A13.36,13.36,0,0,0,170.5,160a1.09,1.09,0,0,1-2.15.33A15.31,15.31,0,0,1,171.87,149c4.27-5.18,11.83-8,22.49-8.4,28.4-1,30.82,28.55,30.84,28.85a1.09,1.09,0,0,1-1,1.16Z"/><path class="cls-2" d="M164.15,156.64H146.86a1.09,1.09,0,0,1,0-2.18h17.29a1.09,1.09,0,1,1,0,2.18Z"/><path class="cls-2" d="M163.63,164.87H147.38a1.09,1.09,0,1,1,0-2.17h16.25a1.09,1.09,0,1,1,0,2.17Z"/><path class="cls-2" d="M164.15,172.34H146.86a1.09,1.09,0,1,1,0-2.17h17.29a1.09,1.09,0,1,1,0,2.17Z"/><path class="cls-2" d="M163.63,180.57H147.38a1.09,1.09,0,1,1,0-2.17h16.25a1.09,1.09,0,1,1,0,2.17Z"/><path class="cls-2" d="M164.15,186.89H146.86a1.08,1.08,0,1,1,0-2.16h17.29a1.08,1.08,0,1,1,0,2.16Z"/><path class="cls-2" d="M163.63,195.12H147.38a1.09,1.09,0,1,1,0-2.17h16.25a1.09,1.09,0,1,1,0,2.17Z"/><path class="cls-2" d="M163.63,203.07H147.38a1.09,1.09,0,1,1,0-2.17h16.25a1.09,1.09,0,1,1,0,2.17Z"/><path class="cls-2" d="M246.14,157.34h-17.3a1.09,1.09,0,0,1,0-2.17h17.3a1.09,1.09,0,0,1,0,2.17Z"/><path class="cls-2" d="M245.62,165.58H229.36a1.09,1.09,0,0,1,0-2.17h16.26a1.09,1.09,0,1,1,0,2.17Z"/><path class="cls-2" d="M246.14,173h-17.3a1.08,1.08,0,0,1,0-2.16h17.3a1.08,1.08,0,0,1,0,2.16Z"/><path class="cls-2" d="M245.62,181.27H229.36a1.08,1.08,0,1,1,0-2.16h16.26a1.08,1.08,0,1,1,0,2.16Z"/><path class="cls-2" d="M246.14,187.6h-17.3a1.09,1.09,0,0,1,0-2.17h17.3a1.09,1.09,0,0,1,0,2.17Z"/><path class="cls-2" d="M245.62,195.83H229.36a1.09,1.09,0,0,1,0-2.17h16.26a1.09,1.09,0,1,1,0,2.17Z"/><path class="cls-2" d="M245.62,203.79H229.36a1.09,1.09,0,0,1,0-2.17h16.26a1.09,1.09,0,1,1,0,2.17Z"/><path class="cls-10" d="M207.72,163.76c0,4.14-4.87,7.49-10.88,7.49S186,167.9,186,163.76s4.88-7.5,10.89-7.5S207.72,159.61,207.72,163.76Z"/><path class="cls-2" d="M196.84,172.34c-6.6,0-12-3.85-12-8.58s5.37-8.59,12-8.59,12,3.85,12,8.59S203.43,172.34,196.84,172.34Zm0-15c-5.41,0-9.8,2.88-9.8,6.42s4.39,6.41,9.8,6.41,9.79-2.88,9.79-6.41S202.24,157.34,196.84,157.34Z"/></svg>