<?xml version="1.0" encoding="utf-8"?>
<!-- Generator: Adobe Illustrator 16.0.0, SVG Export Plug-In . SVG Version: 6.00 Build 0)  -->
<!DOCTYPE svg PUBLIC "-//W3C//DTD SVG 1.1//EN" "http://www.w3.org/Graphics/SVG/1.1/DTD/svg11.dtd">
<svg version="1.1" id="Layer_1" xmlns="http://www.w3.org/2000/svg" xmlns:xlink="http://www.w3.org/1999/xlink" x="0px" y="0px"
	 width="500px" height="500px" viewBox="0 0 500 500" enable-background="new 0 0 500 500" xml:space="preserve">
<g id="Layer_1_copy_61">
	<g>
		<g>
			<path fill="#FFFFFF" d="M370.467,425.599c0,9.368-7.664,17.029-17.033,17.029h-32.592c-9.36,0-24.691,0-34.061,0H73.841
				c-9.37,0-17.031-7.661-17.031-17.029V172.38c0-9.367,7.661-17.03,17.031-17.03h279.593c9.369,0,17.033,7.663,17.033,17.03V358.23
				c0,9.371,0,24.699,0,34.069V425.599L370.467,425.599z"/>
		</g>
		<g>
			<path fill="#27140E" d="M353.434,446.278H73.841c-11.406,0-20.682-9.28-20.682-20.68V172.38c0-11.402,9.275-20.68,20.682-20.68
				h279.593c11.401,0,20.682,9.277,20.682,20.68v253.219C374.114,436.998,364.835,446.278,353.434,446.278z M73.841,158.999
				c-7.382,0-13.383,6.003-13.383,13.381v253.219c0,7.379,6.001,13.383,13.383,13.383h279.593c7.377,0,13.384-6.004,13.384-13.383
				V172.38c0-7.377-6.007-13.381-13.384-13.381H73.841z"/>
		</g>
	</g>
	<g>
		<g>
			<path fill="#D95241" d="M388.996,202.121c0,9.368-7.664,17.03-17.025,17.03H53.167c-9.366,0-17.035-7.663-17.035-17.03v-92.825
				c0-9.369,7.669-17.032,17.035-17.032h318.804c9.361,0,17.025,7.663,17.025,17.032V202.121L388.996,202.121z"/>
		</g>
		<g>
			<path fill="#27140E" d="M371.971,222.801H53.167c-11.403,0-20.683-9.276-20.683-20.68v-92.825
				c0-11.404,9.279-20.683,20.683-20.683h318.804c11.401,0,20.679,9.279,20.679,20.683v92.825
				C392.648,213.525,383.372,222.801,371.971,222.801z M53.167,95.913c-7.382,0-13.383,6.003-13.383,13.383v92.825
				c0,7.379,6.001,13.38,13.383,13.38h318.804c7.377,0,13.378-6.001,13.378-13.38v-92.825c0-7.379-6.001-13.383-13.378-13.383
				H53.167z"/>
		</g>
	</g>
	<g>
		<path fill="#424143" d="M134.51,146.156c0,9.998-7.818,18.104-17.464,18.104l0,0c-9.646,0-17.463-8.107-17.463-18.104V81.858
			c0-10.004,7.817-18.11,17.463-18.11l0,0c9.646,0,17.464,8.106,17.464,18.11V146.156z"/>
		<path fill="#27140E" d="M117.046,167.912c-11.645,0-21.11-9.761-21.11-21.756V81.858c0-11.999,9.466-21.76,21.11-21.76
			s21.111,9.761,21.111,21.76v64.298C138.157,158.15,128.69,167.912,117.046,167.912z M117.046,67.397
			c-7.616,0-13.815,6.488-13.815,14.461v64.298c0,7.971,6.199,14.455,13.815,14.455c7.617,0,13.816-6.484,13.816-14.455V81.858
			C130.862,73.885,124.663,67.397,117.046,67.397z"/>
	</g>
	<g>
		<path fill="#424143" d="M324.486,146.156c0,9.998-7.814,18.104-17.463,18.104l0,0c-9.648,0-17.463-8.107-17.463-18.104V81.858
			c0-10.004,7.813-18.11,17.463-18.11l0,0c9.647,0,17.463,8.106,17.463,18.11V146.156z"/>
		<path fill="#27140E" d="M307.023,167.912c-11.642,0-21.114-9.761-21.114-21.756V81.858c0-11.999,9.474-21.76,21.114-21.76
			c11.645,0,21.109,9.761,21.109,21.76v64.298C328.134,158.15,318.668,167.912,307.023,167.912z M307.023,67.397
			c-7.621,0-13.815,6.488-13.815,14.461v64.298c0,7.971,6.194,14.455,13.815,14.455c7.615,0,13.814-6.484,13.814-14.455V81.858
			C320.839,73.885,314.64,67.397,307.023,67.397z"/>
	</g>
	<g>
		<g>
			<path fill="#E5E5E5" d="M370.311,373.546v52.12c0,9.361-7.664,17.029-17.029,17.029h-51.396"/>
		</g>
		<g>
			<path fill="#2C2010" d="M353.28,446.343h-51.396c-2.014,0-3.65-1.633-3.65-3.646s1.638-3.647,3.65-3.647h51.396
				c7.377,0,13.383-6.004,13.383-13.382v-52.12c0-2.021,1.633-3.656,3.646-3.656c2.018,0,3.651,1.635,3.651,3.656v52.12
				C373.962,437.065,364.686,446.343,353.28,446.343z"/>
		</g>
	</g>
	<g>
		<path fill="#D2D3D4" d="M370.571,373.732l-52.116,0.262c-9.365,0.052-16.829,7.744-16.575,17.111l1.402,52.6"/>
	</g>
	<g>
		<path fill="#2C2010" d="M291.698,446.343c-2.015,0-3.642-1.626-3.652-3.639c-0.008-2.008,1.626-3.647,3.638-3.656l20.679-0.066
			c0,0,0.003,0,0.007,0c2.011,0,3.644,1.618,3.65,3.634c0.009,2.021-1.621,3.653-3.641,3.663l-20.67,0.064
			C291.705,446.343,291.701,446.343,291.698,446.343z"/>
	</g>
	<g>
		<path fill="#1D1D1D" d="M369.103,388.219c-1.347,0-2.436-1.089-2.436-2.438v-19.605c0-1.341,1.089-2.431,2.436-2.431
			c1.343,0,2.432,1.09,2.432,2.431v19.605C371.533,387.13,370.444,388.219,369.103,388.219z"/>
	</g>
	<g>
		
			<path fill="#676767" stroke="#27140E" stroke-width="7.2989" stroke-linecap="round" stroke-linejoin="round" stroke-miterlimit="10" d="
			M254.725,276.674c-4.039,3.969-9.649,11.033-16.836,21.191c-7.184,10.16-13.203,20.656-18.061,31.473
			c-3.845,8.497-7.31,18.873-10.397,31.146c-3.093,12.271-4.637,22.334-4.637,30.203H176.86
			c0.821-24.541,8.881-50.057,24.181-76.543c9.884-16.42,18.164-27.871,24.841-34.353h-68.181l0.38-24.162h96.644V276.674z"/>
	</g>
	<g>
		<path fill="#42A648" d="M464.752,174.801c-14.103-11.658-29.155-24.082-43.243-36.222c-3.21-2.771-6.231-5.479-10.667-5.054
			c-9.082,0.872-7.861,10.298-7.861,20.498c0,5.231,0,10.531,0,15.441c-15.109,0-76.302-0.986-80.188,0.563
			c-1.686,0.675-4.788,3.967-4.788,3.967c0,0.412,0,0.884-0.005,1.322c-0.204,0.479-1.223,74.97,0.312,78.861
			c1.005,2.528,3.872,4.498,6.727,5.355c7.113,0.022,14.233,0.045,21.346,0.067c2.823-0.857,5.74-2.806,6.754-5.312
			c1.574-3.872,0.599-10.675,0.615-16.285c0.027-8.173,0.064-20.467,0.103-32.591c16.71,0,37.809,0,49.125,0
			c1.671,13.899-5.502,36.619,9.549,35.94c3.592-0.161,6.247-3.04,8.979-5.333c13.122-11.008,26.131-21.866,39.033-32.573
			c5.21-4.326,11.592-7.772,14.321-14.041c0-1.313,0-2.625,0-3.937C473.309,180.748,468.3,177.736,464.752,174.801z"/>
		<path fill="#27140E" d="M346.384,262.031h-0.008l-21.346-0.067c-0.234,0-0.466-0.028-0.693-0.097
			c-3.069-0.926-6.858-3.192-8.283-6.795c-1.193-3.016-1.487-70.57-0.46-79.771h-0.024l0.003-1.322
			c0.005-0.615,0.243-1.205,0.66-1.654c0.817-0.865,3.63-3.746,5.661-4.559c0.915-0.364,2.618-1.044,30.439-1.044
			c11.559,0,24.471,0.113,34.773,0.203c5.381,0.046,10.051,0.085,13.441,0.102v-13.003c0-1.087-0.017-2.165-0.03-3.223
			c-0.115-8.769-0.242-18.707,10.09-19.697c5.382-0.511,8.892,2.525,12.271,5.44l0.224,0.192
			c13.597,11.721,27.93,23.569,41.789,35.027l1.41,1.164c0.667,0.549,1.384,1.1,2.118,1.667c3.406,2.622,7.266,5.596,8.754,10.119
			c0.078,0.244,0.123,0.5,0.123,0.759v3.937c0,0.334-0.07,0.664-0.205,0.97c-2.327,5.354-6.837,8.733-11.201,12.002
			c-1.286,0.966-2.571,1.928-3.792,2.943c-12.901,10.703-25.903,21.556-39.021,32.563c-0.413,0.351-0.827,0.709-1.241,1.07
			c-2.487,2.182-5.315,4.659-9.197,4.83c-0.258,0.011-0.512,0.015-0.757,0.015l0,0c-3.294,0-5.938-1.026-7.858-3.051
			c-4.388-4.618-3.95-13.142-3.478-22.163c0.188-3.667,0.384-7.434,0.202-10.74h-44.464l-0.097,30.165
			c-0.004,1.537,0.066,3.17,0.139,4.8c0.197,4.48,0.402,9.117-0.926,12.395c-1.438,3.528-5.233,5.781-8.307,6.722
			C346.865,261.994,346.622,262.031,346.384,262.031z M325.418,257.1l20.589,0.067c2.298-0.783,4.278-2.312,4.878-3.797
			c0.935-2.29,0.754-6.386,0.579-10.347c-0.074-1.708-0.148-3.417-0.142-5.027l0.101-32.591c0.004-1.341,1.093-2.426,2.433-2.426
			h49.125c1.229,0,2.271,0.919,2.417,2.145c0.504,4.17,0.245,9.024,0.003,13.714c-0.392,7.6-0.798,15.457,2.148,18.562
			c0.98,1.033,2.397,1.537,4.331,1.537l0,0c0.178,0,0.354-0.004,0.536-0.015c2.179-0.097,4.14-1.813,6.214-3.627
			c0.44-0.384,0.88-0.768,1.317-1.138c13.121-11.012,26.134-21.872,39.039-32.582c1.282-1.062,2.633-2.077,3.986-3.09
			c3.891-2.913,7.571-5.673,9.455-9.608v-2.989c-1.127-2.933-4.096-5.222-6.979-7.439c-0.782-0.601-1.544-1.188-2.248-1.772
			l-1.407-1.166c-13.881-11.475-28.237-23.337-41.869-35.089l-0.225-0.194c-2.892-2.491-5.322-4.608-8.623-4.28
			c-5.345,0.513-5.826,4.679-5.695,14.787c0.019,1.082,0.033,2.18,0.033,3.288v15.441c0,1.347-1.089,2.434-2.437,2.434
			c-3.384,0-9.073-0.05-15.923-0.11c-10.282-0.088-23.176-0.2-34.724-0.2c-22.794,0-27.77,0.453-28.708,0.724
			c-0.526,0.214-1.974,1.465-3.193,2.676v0.339c0,0.106-0.008,0.214-0.021,0.319c-0.324,4.523-1.029,73.145,0.201,77.741
			C321.186,254.825,323.11,256.325,325.418,257.1z"/>
	</g>
</g>
</svg>
