<?xml version="1.0" encoding="utf-8"?>
<!-- Generator: Adobe Illustrator 16.0.0, SVG Export Plug-In . SVG Version: 6.00 Build 0)  -->
<!DOCTYPE svg PUBLIC "-//W3C//DTD SVG 1.1//EN" "http://www.w3.org/Graphics/SVG/1.1/DTD/svg11.dtd">
<svg version="1.1" id="Layer_1" xmlns="http://www.w3.org/2000/svg" xmlns:xlink="http://www.w3.org/1999/xlink" x="0px" y="0px"
	 width="500px" height="500px" viewBox="0 0 500 500" enable-background="new 0 0 500 500" xml:space="preserve">
<g id="Layer_1_copy_57">
	<g>
		<g>
			<path fill="#235B6E" d="M182.347,30.488c0,0,34.962,36.29,73.48,35.666c38.524-0.626,71.689-35.666,71.689-35.666l16.896,51.869
				c0,0-54.438,113.952-56.942,114.579c-2.504,0.623-105.123-41.298-105.123-41.298L171.706,76.18L182.347,30.488z"/>
			<path fill="#2C2010" d="M287.398,200.12c-3.977,0-68.278-26.027-106.257-41.541c-1.058-0.435-1.799-1.394-1.951-2.521
				l-10.637-79.457c-0.053-0.382-0.031-0.767,0.054-1.14l10.641-45.696c0.263-1.136,1.132-2.033,2.25-2.344
				c1.123-0.303,2.328,0.021,3.135,0.856c0.332,0.348,33.909,34.704,70.215,34.704l0.93-0.008
				c36.759-0.594,69.109-34.331,69.434-34.675c0.771-0.812,1.91-1.164,3.009-0.914c1.09,0.245,1.978,1.053,2.325,2.119
				l16.896,51.865c0.249,0.778,0.19,1.623-0.157,2.356c-55.086,115.309-57.188,115.833-59.041,116.292
				C287.991,200.083,287.657,200.12,287.398,200.12z M185.252,153.387c36.767,15.014,90.339,36.552,100.906,39.958
				c6.154-10.296,35.294-70.326,54.835-111.21l-14.914-45.791c-9.887,9.227-37.949,32.467-70.197,32.991l-1.034,0.004
				c-31.689,0-60.271-23.165-70.678-32.687l-9.234,39.684L185.252,153.387z"/>
		</g>
		<g>
			<path fill="#DFEBE5" d="M117.26,318.682l-30.653,72.233c0,0-13.653,24.716,19.768,29.092c33.42,4.387,19.964-6.565,41.872,3.443
				c21.894,10.009,24.715,0.632,39.416,0c14.707-0.622,20.649-1.254,44.119,6.255c23.464,7.508,24.801,7.828,30.392,1.254
				c5.588-6.565,17.473-13.771,36.87-6.886c19.4,6.886,27.853,5.321,41.615-1.245c13.764-6.576,16.891-5.944,36.289-2.189
				c19.398,3.756,42.551,0.623,45.993-5.951c3.44-6.565,6.572-10.01,11.262-8.764c4.694,1.256,2.193-51.306-21.896-85.721
				c-24.096-34.417-152.309-37.859-152.309-37.859S136.65,289.32,117.26,318.682z"/>
			<path fill="#2C2010" d="M254.324,438.812c-4.345,0-10.351-1.868-23.514-6.081c-22.863-7.313-28.614-6.73-41.23-6.183
				l-1.781,0.082c-4.42,0.189-7.589,1.221-10.945,2.319c-3.426,1.115-6.967,2.271-11.524,2.271c-5.274,0-11.124-1.549-18.407-4.876
				c-6.34-2.902-9.799-4.083-11.933-4.083c-0.941,0-1.771,0.223-3.011,0.549c-2.301,0.624-5.438,1.469-11.506,1.469h-0.005
				c-4.04,0-8.791-0.369-14.504-1.114c-11.993-1.574-19.846-5.886-23.346-12.806c-4.641-9.18,0.348-19.354,1.118-20.82
				l30.598-72.098c0.073-0.178,0.164-0.351,0.274-0.51c20.033-30.351,140.109-37.475,145.212-37.761
				c5.564,0.136,130.361,3.886,155.09,39.211c22.73,32.474,26.949,80.919,23.071,88.362c-1.118,2.156-2.901,2.386-3.614,2.386
				c-0.279,0-0.715-0.058-0.984-0.132c-0.359-0.098-0.704-0.146-1.013-0.146c-1.927,0-3.967,2.254-6.61,7.312
				c-3.583,6.827-18.519,9.262-31.306,9.262c-6.198,0-12.46-0.573-18.108-1.673c-8.887-1.721-14.169-2.738-18.506-2.738
				c-4.604,0-8.3,1.093-15.812,4.683c-13.957,6.657-23.441,8.688-44.045,1.377c-4.886-1.738-9.546-2.615-13.845-2.615
				c-10.675,0-16.826,5.362-19.544,8.559C261.805,436.304,259.277,438.812,254.324,438.812z M198.451,419.925
				c8.554,0,16.554,1.074,34.296,6.755c11.251,3.6,18.039,5.771,21.577,5.771c2.023,0,2.885-0.565,5.426-3.55
				c3.427-4.034,11.156-10.804,24.389-10.804c5.027,0,10.396,1,15.973,2.983c18.615,6.604,26.465,4.943,39.179-1.124
				c7.36-3.518,12.252-5.303,18.551-5.303c4.947,0,10.456,1.063,19.575,2.826c5.398,1.051,11.243,1.592,17.039,1.592
				c15.418,0,24.432-3.5,25.67-5.862c2.971-5.672,6.636-10.837,12.579-10.714c1.532-9.007-2.687-51.445-23.001-80.471
				c-22.904-32.717-148.521-36.471-149.784-36.502c-33.495,1.904-124.215,11.855-139.851,34.679l-30.53,71.948
				c-0.047,0.107-0.096,0.197-0.144,0.297c-0.046,0.072-4.487,8.386-1.083,15.074c2.501,4.908,8.718,8.051,18.477,9.338
				c5.365,0.695,9.968,1.057,13.681,1.057h0.005c5.226,0,7.797-0.688,9.863-1.246c1.474-0.395,2.871-0.771,4.653-0.771
				c3.24,0,7.055,1.223,14.576,4.658c6.423,2.934,11.432,4.304,15.764,4.304c3.545,0,6.329-0.902,9.554-1.959
				c3.447-1.123,7.354-2.402,12.645-2.626l1.774-0.082C192.667,420.048,195.603,419.925,198.451,419.925z"/>
		</g>
		<g>
			<path fill="#93C7A4" d="M116.968,241.701c0,0-12.528,42.523-21.287,65.675c-8.76,23.151,16.578,4.067,37.857,15.017
				c11.903,6.127,36.602-6.882,47.87,6.574c11.259,13.454,19.084,10.006,38.794,1.873c19.711-8.129,16.35-4.83,37.854,2.51
				c27.534,9.383,31.606,3.438,53.817-1.884c22.209-5.319,27.525-11.573,47.554-8.763c20.024,2.816,34.73,8.763,52.88-2.499
				c18.143-11.265,20.646-13.453,16.264-20.649c-4.382-7.193-16.325-30.142-30.063-74.519
				c-13.738-44.372-111.037-39.056-111.037-39.056l-138.29,31.605C149.18,217.584,151.713,235.475,116.968,241.701z"/>
			<path fill="#2C2010" d="M281.662,341.46c-6.678,0-14.271-1.575-24.629-5.104c-4.911-1.676-8.526-3.133-11.432-4.308
				c-4.431-1.791-6.87-2.774-9.484-2.774c-3.196,0-7.459,1.521-14.702,4.509l-0.693,0.284c-10.017,4.136-17.254,7.121-23.709,7.121
				c-6.673,0-12.071-3.043-18.043-10.184c-3.033-3.622-7.529-5.234-14.57-5.234c-3.522,0-7.301,0.4-10.953,0.787
				c-3.586,0.377-7.295,0.771-10.696,0.771c-4.488,0-7.878-0.667-10.67-2.103c-4.467-2.305-9.524-3.373-15.916-3.373
				c-3.176,0-6.29,0.266-9.033,0.502c-2.344,0.197-4.562,0.387-6.507,0.387l0,0c-2.936,0-6.565-0.373-8.604-3.323
				c-1.918-2.778-1.709-6.84,0.689-13.166c8.615-22.776,21.083-65.025,21.21-65.447c0.341-1.152,1.303-2.021,2.488-2.229
				c31.362-5.625,29.646-20.396,29.625-20.548c-0.233-1.631,0.829-3.172,2.443-3.545l138.285-31.601
				c0.177-0.037,0.357-0.065,0.536-0.074c0.151-0.003,3.792-0.205,9.78-0.205c27.547,0,92.872,4.046,104.467,41.496
				c14.963,48.335,27.404,69.96,29.743,73.802c6.3,10.353-0.126,14.344-17.304,25.004c-7.786,4.834-15.592,7.089-24.552,7.089
				c-6.513,0-13-1.161-19.869-2.392c-3.383-0.604-6.891-1.229-10.579-1.748c-3.193-0.447-6.041-0.666-8.714-0.666
				c-7.573,0-12.878,1.771-20.216,4.228c-4.778,1.603-10.192,3.407-17.438,5.147c-4.636,1.105-8.509,2.258-11.933,3.273
				C293.869,339.861,288.482,341.46,281.662,341.46z M236.117,322.917c3.853,0,7.042,1.287,11.869,3.233
				c2.833,1.145,6.358,2.57,11.102,4.186c9.663,3.295,16.627,4.766,22.574,4.766c5.896,0,10.643-1.408,17.211-3.359
				c3.495-1.041,7.463-2.217,12.263-3.365c6.973-1.673,12.247-3.436,16.904-4.992c7.609-2.544,13.622-4.558,22.229-4.558
				c2.973,0,6.112,0.237,9.6,0.729c3.771,0.529,7.354,1.174,10.812,1.786c6.583,1.179,12.806,2.286,18.752,2.286
				c7.833,0,14.369-1.889,21.193-6.126c18.252-11.329,17.851-11.989,15.229-16.296c-2.408-3.952-15.198-26.175-30.385-75.229
				c-10.633-34.347-78-37.015-98.394-37.015c-4.911,0-8.242,0.139-9.174,0.18l-135.609,30.991
				c-0.679,5.906-5.393,18.871-32.83,24.333c-2.526,8.481-13.152,43.797-20.809,64.035c-2.253,5.959-1.438,7.247-1.4,7.3
				c0.015,0.021,0.434,0.582,3.369,0.582l0,0c1.675,0,3.664-0.169,5.967-0.37c2.873-0.244,6.128-0.522,9.573-0.522
				c7.342,0,13.497,1.332,18.825,4.077c1.833,0.943,4.366,1.397,7.761,1.397c3.069,0,6.451-0.356,10.029-0.737
				c3.82-0.4,7.767-0.819,11.62-0.819c5.643,0,13.808,0.778,19.442,7.518c4.702,5.616,8.518,7.902,13.171,7.902
				c5.196,0,11.938-2.788,21.279-6.64l0.697-0.289C227.177,324.523,231.83,322.917,236.117,322.917z"/>
		</g>
		<g>
			<path fill="#3CA2A2" d="M182.347,30.488c0,0,1.876,66.952,64.452,67.579c62.569,0.624,80.719-67.579,80.719-67.579l52.562,14.927
				c0,0-36.916,55.779,3.755,102.085l21.273,72.084c0,0,0.938,28.035-40.36,17.396c-41.298-10.637-44.356,0.491-53.185,5.323
				c-14.396,7.873-17.834,8.013-34.104,3.438c-11.069-3.11-33.79-15.652-49.433-4.697c-15.643,10.953-21.906,9.387-26.283,8.509
				c-14.793-2.958-16.584-9.763-52.879-3.188c-36.285,6.577-44.113-0.623-42.231-17.517c1.876-16.899,25.032-41.931,16.268-74.465
				c0,0,31.289-16.896,11.891-113.886L182.347,30.488z"/>
			<path fill="#2C2010" d="M206.673,253.357c-2.168,0-3.894-0.349-5.28-0.627c-4.135-0.832-7.111-1.832-9.983-2.809
				c-5.006-1.688-9.324-3.147-17.56-3.147c-6.327,0-14.316,0.89-24.415,2.721c-9.152,1.661-16.538,2.464-22.584,2.464
				c-9.418,0-15.824-2.046-19.593-6.26c-3.458-3.865-4.663-9.332-3.786-17.206c0.676-6.115,3.713-12.767,7.223-20.464
				c6.545-14.341,14.688-32.191,9.135-52.824c-0.385-1.422,0.263-2.922,1.562-3.619c0.254-0.151,28.81-17.801,10.278-110.464
				c-0.34-1.713,0.754-3.377,2.464-3.737l47.552-10.01c0.936-0.192,1.888,0.029,2.629,0.615c0.738,0.582,1.18,1.463,1.209,2.402
				c0.004,0.16,0.573,16.415,8.524,32.42c10.445,21.039,28.203,31.826,52.783,32.072l0.82,0.004
				c58.768,0,76.625-64.566,76.792-65.222c0.222-0.82,0.763-1.524,1.505-1.946c0.736-0.422,1.618-0.525,2.438-0.295l52.562,14.927
				c0.976,0.278,1.758,1.003,2.11,1.955c0.353,0.951,0.229,2.012-0.327,2.861c-1.448,2.197-35.062,54.336,3.49,98.233
				c0.305,0.349,0.528,0.754,0.66,1.197l21.273,72.088c0.077,0.258,0.123,0.525,0.126,0.795c0.016,0.365,0.226,9.03-6.234,15.706
				c-4.731,4.898-11.66,7.381-20.587,7.381c-0.005,0-0.005,0-0.005,0c-5.147,0-11.033-0.844-17.501-2.508
				c-11.378-2.935-20.37-4.356-27.498-4.356c-10.488,0-14.646,3.147-18.666,6.188c-1.459,1.103-2.962,2.247-4.706,3.197
				c-8.515,4.661-13.673,6.878-19.959,6.878c-4.432,0-9.229-1.11-16.529-3.165c-2.304-0.646-4.932-1.622-7.979-2.758
				c-7.468-2.774-16.765-6.23-25.466-6.23c-5.271,0-9.623,1.257-13.3,3.833C220.39,250.271,213.026,253.357,206.673,253.357z
				 M173.85,240.414c9.284,0,14.521,1.775,19.593,3.484c2.684,0.911,5.463,1.849,8.927,2.541c1.503,0.303,2.771,0.558,4.304,0.558
				c4.918,0,11.303-2.799,19.525-8.559c4.722-3.303,10.428-4.98,16.952-4.98c9.849,0,19.735,3.673,27.684,6.627
				c2.914,1.082,5.429,2.021,7.481,2.594c15.763,4.432,18.231,4.21,31.718-3.167c1.327-0.726,2.586-1.682,3.918-2.688
				c4.406-3.331,9.882-7.476,22.506-7.476c7.669,0,17.181,1.489,29.084,4.549c5.946,1.537,11.301,2.311,15.911,2.311
				c0,0,0.004,0,0.009,0c7.099,0,12.473-1.811,15.963-5.385c3.975-4.061,4.444-9.39,4.497-10.796l-20.938-70.96
				c-35.039-40.532-13.125-88.252-5.723-101.717L329.625,34.39c-4.575,13.529-26.162,66.862-81.974,66.862l-0.882-0.003
				c-33.941-0.34-50.552-19.654-58.517-35.803c-6.218-12.611-8.193-25.051-8.809-31.101l-40.934,8.619
				c15.793,82.122-5.017,106.935-12.006,112.735c5.071,21.887-3.274,40.183-10.02,54.971c-3.287,7.202-6.128,13.428-6.696,18.527
				c-0.661,5.946,0.043,9.844,2.211,12.263c4.373,4.89,15.908,5.472,36.3,1.778C158.779,241.34,167.138,240.414,173.85,240.414z"/>
		</g>
	</g>
</g>
</svg>
