<?xml version="1.0" encoding="utf-8"?>
<!-- Generator: Adobe Illustrator 16.0.0, SVG Export Plug-In . SVG Version: 6.00 Build 0)  -->
<!DOCTYPE svg PUBLIC "-//W3C//DTD SVG 1.1//EN" "http://www.w3.org/Graphics/SVG/1.1/DTD/svg11.dtd">
<svg version="1.1" id="Layer_1" xmlns="http://www.w3.org/2000/svg" xmlns:xlink="http://www.w3.org/1999/xlink" x="0px" y="0px"
	 width="500px" height="500px" viewBox="0 0 500 500" enable-background="new 0 0 500 500" xml:space="preserve">
<g>
	<path fill="#4E4E4E" d="M467.976,284.652c0,53.296-98.211,96.521-219.357,96.521c-121.151,0-219.359-43.226-219.359-96.521
		c0-53.326,98.208-96.557,219.359-96.557C369.765,188.096,467.976,231.326,467.976,284.652z"/>
	<path fill="#200F0F" d="M248.617,384.839c-59.091,0-114.702-10.151-156.589-28.591c-42.841-18.846-66.442-44.275-66.442-71.596
		c0-27.332,23.601-52.773,66.442-71.635c41.887-18.438,97.499-28.589,156.589-28.589c59.09,0,114.702,10.151,156.586,28.589
		c42.848,18.862,66.44,44.303,66.44,71.635c0,27.318-23.594,52.75-66.44,71.596C363.319,374.688,307.707,384.839,248.617,384.839z
		 M248.617,191.765c-118.932,0-215.687,41.674-215.687,92.889c0,51.191,96.755,92.848,215.687,92.848
		c118.932,0,215.688-41.654,215.688-92.848C464.307,233.439,367.549,191.765,248.617,191.765z"/>
</g>
<g>
	<path fill="#808080" d="M230.635,148.925c84.473-4.025,159.657,13.719,209.145,49.029c27.927,19.928,60.561,60.121,40.025,108.056
		c-3.894,9.08-9.098,19.108-16.014,27c-65.484,74.852-249.811,91.257-359.243,44.021c-37.571-16.213-69.112-37.838-83.054-69.016
		c-24.722-55.301,18.939-97.871,53.035-118.066c26.004-15.398,58.229-27.949,95.064-35.023
		C188.15,151.363,209.362,149.935,230.635,148.925z M170.594,194.953c-36.783,7.362-67.763,18.976-93.065,39.029
		c-9.772,7.749-25.053,25.415-25.012,42.013c0.042,19.586,15.257,33.237,28.017,43.019c66.159,50.741,202.718,60.327,293.198,26.004
		c27.697-10.506,75.053-34.291,75.053-69.021c0-19.98-15.973-35.203-31.022-46.016c-45.915-32.995-113.603-45.483-186.124-42.032
		C209.331,189.01,189.644,191.142,170.594,194.953z"/>
	<path fill="#3C2417" d="M249.841,407.268c-54.488,0-106.604-9.551-146.741-26.86c-44.408-19.165-72.196-42.361-84.957-70.89
		c-11.542-25.838-9.973-51.263,4.665-75.588c14.337-23.81,37.388-39.751,49.851-47.138c27.775-16.444,61.058-28.71,96.243-35.465
		c19.057-3.665,40.85-5.078,61.553-6.068c7.877-0.372,15.803-0.565,23.557-0.565c75.732,0,142.467,17.857,187.896,50.277
		c33.117,23.636,61.354,65.604,41.271,112.488c-5.08,11.847-10.516,20.997-16.626,27.976
		C427.794,379.734,344.75,407.268,249.841,407.268z M254.012,152.034c-7.639,0-15.444,0.185-23.204,0.555
		c-20.437,0.972-41.915,2.367-60.522,5.941c-34.369,6.6-66.833,18.554-93.888,34.578C1.39,237.547,17.971,291.154,24.842,306.516
		c11.975,26.778,38.526,48.744,81.16,67.147c39.245,16.944,90.323,26.267,143.839,26.267c92.858,0,173.782-26.57,211.191-69.326
		c5.595-6.396,10.634-14.903,15.397-26.03c18.376-42.888-7.987-81.653-38.78-103.626
		C393.445,169.402,328.23,152.034,254.012,152.034z M251.893,368.98h-0.008c-70.28-0.008-135.173-17.608-173.585-47.063
		c-14.541-11.142-29.407-25.306-29.452-45.901C48.8,257.094,66.1,238.363,75.253,231.103c23.964-18.99,54.028-31.624,94.618-39.748
		c18.518-3.704,38.083-5.953,61.591-7.07c7.794-0.375,15.599-0.561,23.196-0.561c68.707,0,125.848,14.965,165.244,43.277
		c21.905,15.735,32.551,31.765,32.551,48.993c0,38.889-54.144,63.62-77.422,72.445C339.632,361.878,297.05,368.98,251.893,368.98z
		 M254.658,191.064c-7.483,0-15.164,0.185-22.851,0.548c-23.127,1.105-42.35,3.308-60.494,6.938
		c-39.408,7.888-68.482,20.06-91.506,38.305c-9.513,7.547-23.66,24.202-23.622,39.133c0.038,17.421,13.459,30.057,26.582,40.104
		c37.177,28.509,100.396,45.542,169.117,45.542c43.65,0,86.464-7.115,120.543-20.05c65.605-24.877,72.688-54.151,72.688-65.591
		c0-14.697-9.648-28.772-29.494-43.037C377.477,205.55,321.816,191.064,254.658,191.064z"/>
</g>
<g>
	<path fill="#D28C35" d="M90.123,276.805c0,0-13.918,23.549,15.039,45.161c28.95,21.626,79.375,16.806,79.375,16.806
		s27.702,0.804,49.073,6.433c21.363,5.637,112.292,34.248,161.779-53.827c-1.518-77.228-57.41-36.579-57.41-36.579L90.123,276.805z"
		/>
</g>
<g>
	<path fill="#ECD696" d="M212.557,190.829c0,0-21.522,22.33-72.473,40.377c-50.964,18.046-61.1,55.958-41.845,78.013
		c19.244,22.055,78.5,24.448,78.5,24.448s35.676-1.147,71.543,10.483c35.87,11.634,132.313-4.502,148.897-57.646
		c16.574-53.154,3.41-109.944-64.374-118.084C265.02,160.285,212.557,190.829,212.557,190.829z"/>
</g>
<g>
	<path fill="#150F0B" d="M168.958,254.209c-0.727-0.607-1.719-0.83-2.978,0.135c-3.133,2.381-2.849,4.741,0.007,5.405
		c2.846,0.664,7.127,0.803,7.127,0.803s2.991,0.663-0.968-2.489C171.714,257.695,170.027,255.107,168.958,254.209z"/>
</g>
<g opacity="0.24">
	<path fill="#DAC389" d="M275.986,324.469c0,0-5.041,11.924,20.047,11.842c25.095-0.09,74.963-19.455,84.146-31.24
		c9.217-11.777,16.373-20.928,14.755-26.107c-1.62-5.181-2.504-24.281-19.393,3.617c-16.889,27.878-24.438,28.146-30.717,29.075
		c-6.283,0.934-31.9,11.674-38.706,11.231C299.339,322.415,280.33,318.169,275.986,324.469z"/>
</g>
<g>
	<path fill="#150F0B" d="M275.932,250.782c0.129,0.622-1.274,1.407-3.149,1.761c-1.867,0.346-3.479,0.121-3.603-0.504
		c-0.133-0.613,1.274-1.402,3.139-1.748C274.191,249.94,275.805,250.167,275.932,250.782z"/>
</g>
<g>
	<path fill="#150F0B" d="M188.966,220.532c0.128,0.617-1.269,1.402-3.14,1.75c-1.875,0.351-3.479,0.123-3.607-0.493
		c-0.128-0.621,1.272-1.402,3.147-1.75C187.23,219.69,188.838,219.911,188.966,220.532z"/>
</g>
<g>
	<path fill="#150F0B" d="M346.019,262.938c0.273,1.336-0.124,2.539-0.904,2.685c-0.778,0.146-1.626-0.823-1.902-2.158
		c-0.276-1.342,0.128-2.538,0.896-2.69C344.892,260.627,345.742,261.604,346.019,262.938z"/>
</g>
<g>
	<path fill="#150F0B" d="M277.467,226.689c0,0-5.768,0.413-3.074,2.104c2.69,1.688,3.901,1.902,5.91,3.169
		c2.026,1.26,5.48,5.216,5.646,3.216c0.177-2.004-4.709-7.222-4.709-7.222L277.467,226.689z"/>
</g>
<g opacity="0.24">
	<path fill="#DAC389" d="M115.498,290.2c0,0-8.054,17.608,29.687,25.687c37.72,8.084,69.278,1.051,79.14,6.196
		c9.862,5.151,6.736,9.793,22.964,13.293c16.232,3.499,2.244-12.821-7.614-21.06c-9.859-8.23-44.774-5.396-66.633-11.392
		c-21.837-6.003-45.016-8.825-43.045-17.346C131.975,277.039,117.465,272.198,115.498,290.2z"/>
</g>
<g opacity="0.24">
	<path fill="#DAC389" d="M215.147,211.724c0,0-10.492,10.2-24.777,15.608c-14.261,5.41-30.053,12.909-9.983,13.31
		c20.077,0.382,43.813-18.824,49.778-26.624c4.112-5.358,17.819-14.084,27.392-18.052c4.329-1.8,14.396-1.432,19.383-2.526
		c11.047-2.419,27.4-7.056,32.69-1.866c7.667,7.528,12.226,3.474,23.2,7.383c10.965,3.911,36.167,1.047,31.924-5.948
		c-4.242-6.997-15.737-12.26-27.018-16.534c-11.293-4.272-69.896-3.425-74.654,0.209
		C258.33,180.317,218.384,208.896,215.147,211.724z"/>
</g>
<g>
	<path fill="#150F0B" d="M225.58,203.44c0,0,0.263-3.052,2.988-1.129c2.739,1.926,6.266,3.109,7.57,3.919
		c1.3,0.799,5.315,2.9,0.861,4.167C232.544,211.666,227.796,204.236,225.58,203.44z"/>
</g>
<g>
	<path fill="#150F0B" d="M335.914,203.259c0,0,2.847-0.81,1.577,1.241c-1.267,2.056-1.708,4.305-2.217,5.246
		c-0.506,0.942-1.69,3.731-3.677,1.748C329.635,209.511,335.59,204.689,335.914,203.259z"/>
</g>
<g>
	<path fill="#150F0B" d="M266.816,288.948c0,0,2.85-0.802,1.58,1.252s-1.715,4.302-2.221,5.241c-0.494,0.94-1.693,3.729-3.68,1.744
		C260.533,295.207,266.488,290.373,266.816,288.948z"/>
</g>
<g>
	<path fill="#150F0B" d="M217.519,278.471c0,0,2.846-0.81,1.581,1.252c-1.272,2.047-1.712,4.289-2.22,5.242
		c-0.505,0.947-1.701,3.729-3.669,1.743C211.246,284.723,217.198,279.896,217.519,278.471z"/>
</g>
<g>
	<path fill="#1D1D10" d="M194.247,280.041c0.297,1.466-0.691,2.877-2.213,3.167c-1.521,0.276-2.995-0.679-3.299-2.138
		c-0.301-1.459,0.685-2.869,2.209-3.16C192.466,277.634,193.939,278.581,194.247,280.041z"/>
</g>
<g>
	<path fill="#1D1D10" d="M316.238,185.028c0.294,1.461-0.679,2.875-2.203,3.159c-1.511,0.28-2.998-0.674-3.299-2.134
		c-0.302-1.463,0.691-2.882,2.21-3.166C314.468,182.609,315.934,183.569,316.238,185.028z"/>
</g>
<g>
	<path fill="#D28C35" d="M303.537,182.848c0.803,3.882-3.676,7.981-10.012,9.16c-6.334,1.179-12.123-1.004-12.93-4.886
		c-0.791-3.878,3.693-7.979,10.035-9.162C296.967,176.783,302.738,178.97,303.537,182.848z"/>
</g>
<g>
	<g>
		<path fill="#E3AD57" d="M263.459,266.333c1.104,5.317-3.413,10.644-10.094,11.89c-6.667,1.244-12.975-2.067-14.074-7.387
			c-1.1-5.326,3.423-10.65,10.087-11.902C256.062,257.695,262.361,261.008,263.459,266.333z"/>
	</g>
	<g opacity="0.6">
		<g>
			<path fill="#D28C35" d="M246.968,277.178c0,0,10.484-1.279,11.871-6.418c1.384-5.139,1.421-9.447,1.421-9.447
				s8.137,6.984,0.149,13.39C252.4,281.119,250.578,277.902,246.968,277.178z"/>
		</g>
	</g>
</g>
<g>
	<g>
		<path fill="#E3AD57" d="M229.982,224.761c0.726,3.531-3.915,7.369-10.377,8.569c-6.449,1.203-12.283-0.682-13.013-4.212
			c-0.729-3.531,3.925-7.369,10.374-8.576C223.422,219.342,229.252,221.23,229.982,224.761z"/>
	</g>
	<g opacity="0.6">
		<g>
			<path fill="#D28C35" d="M221.413,220.207c0,0,10.927,6.024-2.079,11.806c-12.999,5.784,9.555-3.553,9.555-3.553
				S235.573,222.287,221.413,220.207z"/>
		</g>
	</g>
</g>
<g>
	<g>
		<path fill="#EAC27B" d="M326.284,233.717c1.196,5.794-1.263,11.126-5.502,11.919c-4.227,0.787-8.631-3.27-9.824-9.065
			c-1.196-5.794,1.263-11.129,5.498-11.918C320.695,223.862,325.088,227.925,326.284,233.717z"/>
	</g>
	<g>
		<path fill="#E3AD57" d="M324.07,228.554c0,0,3.707,15.625-6.539,16.771C320.782,245.637,332.353,243.329,324.07,228.554z"/>
	</g>
</g>
<g>
	<g>
		<path fill="#D28C35" d="M144.082,267.385c1.002,4.854-2.026,9.495-6.768,10.381c-4.751,0.885-9.409-2.324-10.412-7.186
			c-1.002-4.842,2.037-9.489,6.785-10.375C138.428,259.32,143.082,262.536,144.082,267.385z"/>
	</g>
	<g>
		<path fill="#BB7629" d="M131.086,276.548c0,0,9.143,0.981,10.181-6.01c1.041-6.999,0.145-7.946,0.145-7.946
			S152.45,277.156,131.086,276.548z"/>
	</g>
</g>
<g>
	<path fill="#D28C35" d="M46.984,232.503c0,0-14.686,25.399,10.263,43.955c20.641,15.367,95.244,26.435,126.567,30.763
		c6.529,0.899,20.022-0.09,26.533-1.279c25.797-4.688,78.129-9.619,93.121-11.604c18.777-2.496,33.716-7.108,38.37-12.677
		c4.661-5.567,23.331-3.444,24.715-25.734c1.379-22.31-87.488,12.282-92.246,15.084c-4.766,2.801-125.18-56.897-125.18-56.897
		L46.984,232.503z"/>
</g>
<g>
	<path fill="#FDEAA4" d="M169.595,154.926c0,0-23.255,6.358-36.116,18.76c-12.857,12.397-32.941,9.747-34.352,11.866
		c-1.404,2.128-60.024,30.946-55.678,48.914c4.357,17.974-19.219,45.644,87.73,59.856c106.946,14.185,122.119-1.072,130.201-1.639
		c8.093-0.567,68.907-11.564,80.861-15.105c11.931-3.541,28.823-13.521,22.848-31.367c-5.986-17.857-11.388-37.113-44-68
		c-32.612-30.892-54.396-54.509-66.373-68.1c-12.266-13.92-48.101-29.573-63.229-3.828
		C176.369,132.026,181.521,131.758,169.595,154.926z"/>
</g>
<g opacity="0.6">
	<path fill="#D28C35" d="M176.628,139.326c0,0-8.161,13.761-1.314,34.276c6.844,20.502,25.904,81.316,58.271,89.218
		c32.363,7.892,91.669,13.908,102.163,9.115c3.569-1.293,24.093-4.144,24.093-4.144s13.482-29.599-19.946-33.371
		c-20.849-2.341-29.454,6.444-32.992,13.377c-2.134,4.187-4.775,8.61-8.824,9.572c-7.639,1.833-21.312,3.907-36.579,0.629
		c-32.118-6.905-57.808-17.743-73.465-63.629C173.104,150.621,176.628,139.326,176.628,139.326z"/>
</g>
<g>
	<path fill="#D28C35" d="M305.404,250.542c0,0,25.687-6.53,37.906,1.247c12.214,7.773,18.304,10.498,18.304,10.498
		s4.16-13.382-5.218-21.713c-9.383-8.34-32.801-6.608-37.623-3.838C310.924,238.814,305.404,250.542,305.404,250.542z"/>
</g>
<g>
	<path fill="#B66128" d="M140.502,252.425c0,0-3.565-0.317-6.283-3.503c-2.718-3.178-9.8-11.423-11.806-12.89
		c-2.006-1.471-5.664-8.064-8.814-10.623c-3.147-2.559-2.552-1.274-3.959-1.458c-1.407-0.183-4.654-2.393-7.124-4.794
		c-2.455-2.396-5.252-3.674-5.252-3.674s1.168,3.486,1.864,5.267c0.688,1.783,0.273,0.712,1.124,3.631
		c0.847,2.912,1.069,2.993-1.611,2.136c-2.669-0.849,3.517,7.931,5.318,10.099c1.798,2.168,2.805,2.056,6.833,8.235
		c4.032,6.183,9.136,13.661,14.282,19.379c5.139,5.721,2.493,0.638,8.627,7.934c6.138,7.304,9.651,11.917,8.348,8.07
		c-1.3-3.846-1.366-5.151,1.293-2.233c2.652,2.912,12.978,14.213,4.834,2.131c-8.137-12.075-2.341-5.291,2.967-0.969
		c5.312,4.315,5.941,3.839,4.011-0.373c-1.926-4.212-6.083-6.667-3.053-7.006C155.123,271.451,144.386,252.467,140.502,252.425z"/>
	<path fill="#984C22" d="M151.125,286.818c-0.702,0-1.363,0-8.009-7.248c0.031,0.082,0.055,0.173,0.093,0.263
		c0.37,1.086,0.495,1.833,0.059,2.44l-0.366,0.513l-0.737,0.056c-1.068,0-1.943-0.947-6.864-6.854l-2.539-3.036
		c-3.116-3.7-3.779-4.013-4.422-4.316c-0.955-0.442-1.816-0.954-4.181-3.589c-5.412-6.023-10.81-14.031-14.392-19.527
		c-2.704-4.155-3.977-5.352-5.097-6.408c-0.55-0.521-1.062-1.001-1.653-1.719c-0.069-0.086-7.21-8.917-6.097-11.287
		c0.343-0.733,1.134-1.06,2.092-0.754c0.09,0.028,0.18,0.057,0.273,0.085c-0.007-0.033-0.017-0.067-0.027-0.099l-0.184-0.617
		c-0.325-1.11-0.463-1.649-0.553-1.988c-0.135-0.514-0.138-0.512-0.536-1.537c-0.702-1.798-1.881-5.325-1.881-5.325l-0.896-2.677
		l2.566,1.176c0.117,0.057,3.015,1.397,5.595,3.913c2.621,2.55,5.557,4.343,6.425,4.456l0.359-0.043
		c0.169-0.052,0.436-0.128,0.764-0.128c0.837,0,1.712,0.477,3.451,1.893c1.826,1.48,3.738,4.127,5.422,6.461
		c1.269,1.75,2.58,3.56,3.347,4.12c1.477,1.081,5.401,5.36,12.006,13.087c2.341,2.739,5.439,3.075,5.467,3.078
		c4.374,0.043,13.033,15.493,13.233,19.512c0.076,1.508-0.719,2.02-1.234,2.199c0.218,0.291,0.484,0.623,0.723,0.92
		c0.885,1.105,2.103,2.621,2.933,4.439c1.155,2.531,1.362,3.611,0.84,4.42c-0.291,0.457-0.778,0.713-1.335,0.713l0,0
		c-0.854,0-2.006-0.547-5.401-3.301c-0.574-0.469-1.145-0.953-1.712-1.444c0.169,0.242,0.346,0.505,0.529,0.782
		c3.562,5.283,3.517,5.927,3.119,6.667l-0.346,0.649L151.125,286.818z M144.223,272.087c0.782,0,1.411,0.547,3.942,2.851
		c1.142,1.029,2.459,2.228,3.752,3.277c1.107,0.893,1.909,1.508,2.497,1.916c-0.104-0.242-0.225-0.52-0.37-0.83
		c-0.706-1.549-1.764-2.869-2.614-3.936c-1.145-1.418-1.968-2.448-1.494-3.582c0.294-0.713,0.958-0.996,1.47-1.121
		c-0.19-2.025-3.558-8.907-7.438-13.811c-2.068-2.607-3.212-3.199-3.479-3.203c-0.259-0.021-4.191-0.407-7.203-3.928
		c-7.96-9.312-10.699-12.049-11.595-12.703c-1.076-0.791-2.376-2.587-3.88-4.665c-1.598-2.211-3.41-4.717-4.983-5.995
		c-1.442-1.168-1.86-1.33-1.951-1.352c-0.283,0.123-0.698,0.248-1.397,0.157c-1.912-0.247-5.453-2.827-7.812-5.128
		c-0.719-0.693-1.466-1.292-2.158-1.786c0.263,0.747,0.532,1.489,0.754,2.056c0.47,1.204,0.463,1.204,0.619,1.802
		c0.09,0.33,0.229,0.856,0.543,1.933l0.176,0.604c0.425,1.452,0.667,2.251,0.131,2.969c-0.218,0.293-0.83,0.778-2.03,0.496
		c1.089,2.103,3.676,5.903,5.198,7.725c0.515,0.624,0.961,1.042,1.442,1.497c1.224,1.15,2.607,2.457,5.474,6.852
		c3.541,5.433,8.856,13.333,14.164,19.231c2.216,2.463,2.808,2.739,3.389,3.009c1.089,0.498,2.043,1.12,5.267,4.959l2.545,3.036
		c1.003,1.203,2.013,2.414,2.891,3.444c-0.222-1.059-0.146-1.625,0.183-2.082l0.367-0.512l0.802-0.076
		c0.75,0,1.462,0.49,2.818,1.979c0.643,0.712,1.234,1.35,1.774,1.93c-3.503-5.283-3.341-5.603-2.953-6.313l0.349-0.649
		L144.223,272.087z"/>
</g>
<g>
	<path fill="#E79F23" d="M71.038,208.738c0,0,15,17.778,20.807,26.575c5.806,8.806,24.604,31.989,29.635,40.087
		c5.031,8.092,8.033,12.738,13.51,14.06c5.471,1.335,11.899,5.603,13.867-0.339c1.957-5.947,4.458-0.408-0.574-12.047
		c-5.035-11.647,2.448-5.665-7.075-17.465c-9.53-11.806-9.949-14.499-20.689-23.193c-10.741-8.69-27.872-24.645-36.454-32.899
		c-8.583-8.263-19.963-16.146-19.835-15.796C64.357,188.077,51.95,184.66,71.038,208.738z"/>
</g>
<g>
	<path fill="#B66128" d="M125.315,193.635c0,0-8.005-12.232-10.862-15.532c-2.856-3.299-5.923-6.233-8.14-5.827
		c-2.213,0.399-4.841-1.359-6.332-3.65c-1.49-2.287-3.306,0.242-4.16,3.142c-0.854,2.901-5.08,4.238,1.338,12.208
		c6.418,7.97,7.4,5.144,14.282,16.993c6.888,11.842,5.194,8.738,10.886,19.584c5.692,10.848,8.119,18.205,13.223,20.774
		c5.115,2.568,2.072-0.188,7.829,4.912c5.758,5.099,13.652,20.059,7.743,0.965C145.212,228.108,162.596,244.961,125.315,193.635z"/>
	<path fill="#88401E" d="M152.837,257.861L152.837,257.861c-1.238,0-2.382-1.377-5.073-4.779c-1.663-2.089-3.544-4.462-5.194-5.923
		c-3.524-3.126-3.569-3.138-4.264-3.353c-0.557-0.169-1.408-0.431-3.303-1.382c-4.271-2.154-6.639-6.973-10.222-14.271
		c-1.051-2.139-2.206-4.489-3.541-7.034l-1.428-2.721c-3.337-6.368-3.337-6.368-6.84-12.378l-2.586-4.437
		c-4.112-7.073-5.979-8.714-8.348-10.792c-1.536-1.345-3.271-2.865-5.83-6.048c-5.097-6.325-4.084-9.089-2.362-11.799
		c0.35-0.55,0.654-1.027,0.795-1.516c0.346-1.155,1.636-4.914,4.081-4.914c0.616,0,1.508,0.252,2.289,1.445
		c1.297,2.002,3.476,3.405,5.087,3.114c2.372-0.427,5.094,1.392,9.285,6.231c2.874,3.325,10.623,15.158,10.948,15.659
		c26.115,35.941,25.679,38.803,24.887,43.995c-0.308,2.014-0.653,4.298,1.075,9.883c2.583,8.37,2.365,9.587,1.764,10.403
		C153.771,257.641,153.325,257.861,152.837,257.861z M98.657,168.949c-0.208,0.097-1.069,1.139-1.664,3.167
		c-0.246,0.823-0.671,1.494-1.083,2.139c-1.138,1.79-2.209,3.477,2.203,8.955c2.427,3.014,4.008,4.398,5.536,5.744
		c2.435,2.135,4.541,3.982,8.849,11.398l2.583,4.44c3.534,6.053,3.534,6.053,6.899,12.473l1.424,2.721
		c1.345,2.564,2.511,4.931,3.572,7.089c3.365,6.854,5.585,11.379,9.129,13.16c1.708,0.861,2.434,1.086,2.918,1.234
		c1.248,0.38,1.462,0.576,5.163,3.857c1.812,1.603,3.766,4.063,5.491,6.236c0.644,0.814,1.415,1.789,2.082,2.558
		c-0.267-1.244-0.789-3.265-1.805-6.551c-1.898-6.126-1.483-8.814-1.155-10.978c0.65-4.25,1.072-7.06-24.476-42.236
		c-0.118-0.171-8.022-12.25-10.792-15.45c-3.129-3.614-5.418-5.443-6.792-5.443c-0.491,0.069-0.785,0.097-1.079,0.097
		c-2.352,0-5.049-1.715-6.705-4.264C98.771,169.007,98.657,168.949,98.657,168.949z"/>
</g>
<g>
	<path fill="#D79277" d="M207.46,241.664c-12.093-16.059-29.037-23.696-37.865-17.058c-8.818,6.641-6.166,25.043,5.923,41.099
		c12.093,16.059,29.047,23.693,37.869,17.055C222.205,276.119,219.552,257.729,207.46,241.664z M182.064,261.027
		c-7.033-9.352-9.049-19.704-4.502-23.128c4.543-3.428,13.939,1.375,20.973,10.724c7.037,9.35,9.057,19.695,4.509,23.111
		C198.49,275.158,189.098,270.365,182.064,261.027z"/>
</g>
<g>
	<path fill="#F2B59A" d="M114.564,210.146c-9.894-13.137-25.6-17.992-35.085-10.853c-9.492,7.141-9.164,23.577,0.729,36.712
		c9.89,13.135,25.6,17.997,35.082,10.854C124.775,239.72,124.447,223.279,114.564,210.146z M87.221,230.928
		c-5.757-7.646-6.459-16.83-1.566-20.513c4.89-3.681,13.528-0.469,19.282,7.177c5.751,7.643,6.449,16.827,1.563,20.508
		C101.603,241.783,92.976,238.57,87.221,230.928z"/>
</g>
<g>
	<path fill="#4BB649" d="M75.547,226.67c0,0,0.429,15.256,8.842,17.62c8.417,2.364,16.54,4.447,21.706,4.833
		c5.163,0.384,8.932,2.374,9.821-0.876c0.885-3.246-0.771-1.917-8.365-3.448c-7.59-1.528-23.539-6.781-24.306-8.975
		c-0.768-2.192,1.352,0.301-1.746-7.39C78.4,220.746,76.484,208.723,75.547,226.67z"/>
	<path fill="#0EA24A" d="M113.271,251.301L113.271,251.301c-0.996,0-2.106-0.195-3.396-0.42c-1.166-0.206-2.479-0.436-3.873-0.541
		c-5.484-0.406-14.171-2.687-21.938-4.876c-9.181-2.571-9.721-18.101-9.741-18.76c0.474-9.098,1.1-10.618,2.749-10.618
		c1.549,0,2.168,1.883,3.651,6.439c0.571,1.755,1.217,3.738,1.913,5.453c2.061,5.123,1.992,6.121,1.66,7.063
		c-0.01-0.014-0.018,0.038,0.097,0.377c1.121,1.572,15.139,6.519,23.4,8.18c2.31,0.465,4.074,0.66,5.356,0.807
		c2.054,0.23,3.178,0.353,3.838,1.321c0.584,0.859,0.36,1.919,0.107,2.842C116.601,250.379,115.314,251.301,113.271,251.301z
		 M77.321,220.103c-0.177,1.247-0.377,3.29-0.55,6.629c0.003,0.05,0.498,14.292,7.95,16.379c7.656,2.151,16.194,4.398,21.464,4.793
		c1.508,0.112,2.887,0.353,4.108,0.567c1.176,0.204,2.196,0.384,2.978,0.384h0.003c1.041,0,1.283-0.275,1.459-0.928
		c0.114-0.414,0.155-0.659,0.169-0.792c-0.37-0.114-1.21-0.208-2.02-0.297c-1.332-0.152-3.157-0.351-5.574-0.842
		c-4.641-0.934-24.02-6.336-25.219-9.767c-0.339-0.968-0.291-1.468-0.097-2.014c0.156-0.442-0.401-2.281-1.632-5.32
		c-0.716-1.793-1.38-3.819-1.961-5.607C78.071,222.282,77.677,221.08,77.321,220.103z"/>
</g>
<g>
	<path fill="#4BB649" d="M96.762,234.772c0,0,21.581,21.828,26.768,20.796c5.198-1.034,10.896-0.094,16.955-3.228
		c6.062-3.134,13.833-9.81,8.393-10.045c-5.443-0.235-12.093,5.167-18.048,3.349c-5.948-1.813-6.311,4.169-12.583-2.505
		c-6.276-6.676-10.862-8.678-13.545-10.369C102.018,231.075,92.927,223.253,96.762,234.772z"/>
	<path fill="#0EA24A" d="M123.146,256.823c-6.127,0-25.108-19.021-27.249-21.188l-0.204-0.211l-0.093-0.268
		c-1.166-3.496-1.297-5.593-0.425-6.798c0.453-0.633,1.176-0.979,2.023-0.979c1.836,0,4.177,1.554,6.826,3.438
		c0.525,0.373,0.985,0.698,1.328,0.915c0.46,0.292,0.975,0.591,1.549,0.921c2.767,1.598,6.94,4.017,12.234,9.648
		c2.414,2.564,3.634,2.863,4.34,2.863c0.553,0,1.121-0.199,1.777-0.425c1.4-0.488,3.534-0.998,5.938-0.259
		c2.797,0.851,6.408-0.32,9.772-1.553c2.514-0.917,5.114-1.862,7.556-1.862l0.412,0.012c2.123,0.09,2.78,1.063,2.957,1.862
		c0.723,3.277-7.141,8.576-10.834,10.488c-4.278,2.213-8.431,2.504-12.1,2.76c-1.815,0.131-3.531,0.252-5.18,0.578
		C123.575,256.811,123.372,256.823,123.146,256.823z M97.834,234.117c7.86,7.924,21.499,20.265,25.312,20.265
		c0.052,0,0.104-0.003,0.146-0.014c1.802-0.359,3.589-0.483,5.488-0.615c3.596-0.256,7.324-0.519,11.148-2.497
		c4.89-2.531,9.105-6.321,9.53-7.652c-0.121-0.033-0.321-0.072-0.636-0.084l-0.304-0.007c-2.009,0-4.295,0.833-6.715,1.715
		c-2.715,0.989-5.522,2.018-8.358,2.018c-1.044,0-2.04-0.146-2.97-0.431c-1.771-0.54-3.119-0.213-4.423,0.24
		c-0.789,0.271-1.611,0.553-2.576,0.553c-1.898,0-3.724-1.084-6.121-3.629c-5.052-5.374-8.884-7.587-11.678-9.207
		c-0.598-0.348-1.145-0.664-1.625-0.967c-0.377-0.235-0.878-0.591-1.439-0.989c-1.477-1.049-4.208-2.989-5.415-2.989
		C97.167,229.749,96.676,230.52,97.834,234.117z"/>
</g>
<g>
	<path fill="#4BB649" d="M127.684,202.522c0,0-5.592,6.956,0.857,10.908c6.449,3.952,10.174,7.85,13.327,12.821
		c3.161,4.967,9.115,19.145,14.084,15.909c4.973-3.239-2.808-8.315-7.317-13.856c-4.509-5.548-8.735-11.631-11.384-14.954
		c-2.649-3.329-3.112-7.148-3.303-10.689C133.752,199.115,129.803,197.958,127.684,202.522z"/>
	<path fill="#0EA24A" d="M154.428,243.856h-0.003c-4.281,0-8.195-7.203-11.342-12.99c-0.844-1.555-1.604-2.95-2.244-3.961
		c-3.323-5.239-7.072-8.837-12.937-12.43c-2.033-1.245-3.24-2.893-3.589-4.898c-0.619-3.568,1.794-6.997,2.327-7.697
		c1.086-2.272,2.759-3.57,4.592-3.57c2.147,0,3.8,1.8,3.942,4.286c0.169,3.206,0.567,6.89,3.032,9.994
		c1.083,1.357,2.424,3.167,3.939,5.213c2.241,3.026,4.779,6.451,7.438,9.729c1.114,1.364,2.445,2.723,3.742,4.036
		c3.074,3.123,5.727,5.818,5.436,8.522c-0.139,1.214-0.854,2.258-2.137,3.095C155.932,243.633,155.199,243.856,154.428,243.856z
		 M131.231,200.752c-0.861,0-1.774,0.856-2.431,2.286l-0.155,0.249c-0.024,0.028-2.417,3.062-1.919,5.882
		c0.229,1.293,1.031,2.346,2.452,3.219c6.204,3.802,10.184,7.632,13.725,13.205c0.667,1.046,1.456,2.493,2.331,4.103
		c2.382,4.38,6.366,11.714,9.195,11.714l0,0c0.291,0,0.571-0.09,0.857-0.277c0.965-0.626,1.021-1.139,1.038-1.312
		c0.166-1.551-2.331-4.087-4.741-6.536c-1.335-1.353-2.708-2.754-3.894-4.212c-2.701-3.318-5.256-6.771-7.511-9.814
		c-1.49-2.021-2.815-3.806-3.88-5.147c-2.922-3.664-3.375-7.803-3.565-11.384C132.663,201.566,132.051,200.752,131.231,200.752z"/>
</g>
<g>
	<path fill="#4BB649" d="M124.665,183.339c0,0,15.692,16.832,21.104,18.312c5.422,1.482,6.304-1.767,0.228-10.339
		c-6.069-8.574-12.49-12.635-17.404-12.857C123.683,178.232,116.085,164.754,124.665,183.339z"/>
	<path fill="#0EA24A" d="M147.954,203.221h-0.003c-0.72-0.003-1.56-0.13-2.504-0.388c-5.588-1.528-20.049-16.911-21.682-18.661
		l-0.211-0.323c-4.302-9.312-4.326-10.033-3.762-10.915l0.359-0.565l0.799-0.067c0.782,0,1.428,0.578,2.722,1.726
		c1.328,1.174,3.541,3.145,4.979,3.206c5.827,0.268,12.515,5.14,18.341,13.374c3.849,5.433,5.146,8.931,4.073,11.002
		C150.686,202.346,149.839,203.221,147.954,203.221z M125.692,182.647c4.412,4.715,16.28,16.701,20.402,17.826
		c0.733,0.199,1.359,0.301,1.86,0.301l0,0c0.298,0,0.81-0.038,0.941-0.291c0.093-0.174,0.75-1.905-3.894-8.463
		c-5.314-7.502-11.466-12.115-16.463-12.345c-1.892-0.083-3.863-1.549-5.484-2.943C123.918,178.799,125.104,181.363,125.692,182.647
		z"/>
</g>
<g>
	<path fill="#4BB649" d="M106.742,244.252c0,0,2.466,18.838,8.362,23.318c5.885,4.476,22.733,18.742,22.733,18.742
		s11.059,4.869,7.618,0.166c-3.437-4.709-12.037-9.828-15.191-14.785c-3.164-4.945-11.833-8.957-12.338-13.86
		c-0.508-4.903-0.176-11.698-5.035-13.443C108.025,242.647,107.547,237.198,106.742,244.252z"/>
	<path fill="#0EA24A" d="M145.084,289.751L145.084,289.751c-2.41,0-7.206-2.082-7.742-2.324l-0.297-0.18
		c-0.169-0.146-16.882-14.288-22.681-18.708c-6.228-4.737-8.735-23.333-8.835-24.125l-0.024-0.149l0.021-0.154
		c0.294-2.566,0.526-4.597,2.22-4.597c0.799,0,1.355,0.559,2.058,1.262c0.792,0.793,1.874,1.877,3.496,2.462
		c4.89,1.751,5.315,7.552,5.657,12.208c0.055,0.781,0.114,1.547,0.187,2.263c0.246,2.358,3.192,4.813,6.048,7.199
		c2.299,1.915,4.682,3.899,6.104,6.135c1.566,2.455,4.72,5.09,7.763,7.635c2.918,2.441,5.678,4.738,7.386,7.075
		c0.56,0.77,1.241,1.909,0.705,2.953C146.91,289.184,146.357,289.751,145.084,289.751z M138.49,285.256
		c1.66,0.719,4.43,1.756,6.017,1.998c-0.011-0.021-0.024-0.041-0.042-0.055c-1.528-2.096-4.298-4.406-6.975-6.646
		c-3.191-2.662-6.49-5.416-8.261-8.203c-1.221-1.908-3.448-3.769-5.609-5.566c-3.375-2.814-6.566-5.479-6.909-8.824
		c-0.08-0.74-0.139-1.527-0.197-2.331c-0.318-4.36-0.654-8.872-4.042-10.087c-2.047-0.731-3.378-2.014-4.281-2.915
		c-0.062,0.386-0.139,0.906-0.222,1.62c0.706,5.215,3.42,18.969,7.877,22.352C121.411,270.836,136.868,283.886,138.49,285.256z"/>
</g>
<g>
	<path fill="#4BB649" d="M114.623,191.998c0,0,3.825,18.73,6.041,22.645c2.213,3.917,4.585,7.511,6.902,11.961
		c2.317,4.452,1.747,16.004,4.997,7.608c3.247-8.4,2.441-12.449-3.109-19.538c-5.561-7.092-5.422-3.411-7.251-10.273
		c-1.833-6.861,0.384-6.61-1.39-9.236c-1.781-2.623,3.008-14.892-3.935-14.728C109.927,180.604,112.666,183.182,114.623,191.998z"/>
	<path fill="#0EA24A" d="M130.713,238.413L130.713,238.413c-1.691,0-2.054-1.99-2.659-5.296c-0.388-2.113-0.83-4.513-1.57-5.944
		c-1.424-2.74-2.887-5.177-4.298-7.53c-0.878-1.464-1.743-2.908-2.587-4.4c-2.289-4.028-6.024-22.228-6.179-22.999
		c-0.425-1.916-0.892-3.546-1.283-4.911c-0.864-3.029-1.435-5.033-0.359-6.494c0.989-1.341,3.019-1.575,5.073-1.624
		c0,0,0.003,0,0.01,0c1.625,0,2.794,0.471,3.645,1.394c1.912,2.089,1.583,5.931,1.283,9.318c-0.138,1.686-0.342,3.994,0.038,4.556
		c1.086,1.61,0.996,2.559,0.892,3.659c-0.1,1.079-0.238,2.549,0.661,5.941c1.002,3.738,1.245,3.949,2.427,4.948
		c0.917,0.775,2.3,1.943,4.61,4.886c5.941,7.582,6.653,12.041,3.285,20.738C132.781,237.035,131.996,238.413,130.713,238.413z
		 M117.019,181.662c-2.507,0.055-3.119,0.417-3.275,0.626c-0.363,0.494,0.18,2.377,0.747,4.369c0.397,1.404,0.885,3.084,1.321,5.078
		c1.055,5.178,4.177,19.233,5.917,22.306c0.836,1.473,1.691,2.899,2.552,4.345c1.432,2.386,2.915,4.853,4.371,7.654
		c0.913,1.76,1.387,4.35,1.809,6.636c0.131,0.726,0.294,1.6,0.457,2.307c0.142-0.316,0.308-0.709,0.501-1.212
		c3.04-7.86,2.466-11.458-2.929-18.343c-2.158-2.749-3.423-3.823-4.264-4.532c-1.56-1.319-2.061-1.895-3.206-6.179
		c-1.023-3.819-0.851-5.618-0.74-6.804c0.09-0.929,0.111-1.179-0.48-2.061c-0.868-1.278-0.678-3.42-0.45-6.138
		c0.242-2.744,0.54-6.157-0.653-7.452C118.461,182.004,118.032,181.662,117.019,181.662z"/>
</g>
<g>
	<path fill="#E79F23" d="M122.991,189.065c0,0,14.959,13.602,20.983,20.511c6.024,6.908,24.88,24.733,30.157,31.125
		c5.281,6.397,8.403,10.04,13.234,10.582c4.828,0.537,10.834,3.503,11.778-1.806c0.954-5.306,3.759-0.835-1.954-10.265
		c-5.712-9.436,1.407-5.12-8.164-14.197c-9.565-9.077-10.243-11.349-20.461-17.629c-10.218-6.274-26.772-18.078-35.095-24.221
		c-8.33-6.135-18.995-11.659-18.846-11.367C114.771,172.082,103.785,170.513,122.991,189.065z"/>
</g>
<g>
	<path fill="#984C22" d="M178.89,240.711c0,0-3.613-5.789-6.179-12.745c-2.569-6.958-4.458-13.963-7.456-15.149
		c-2.995-1.189-5.502-10.327-7.369-6.266c-1.867,4.061,1.556,13.958-0.678,10.519c-2.237-3.436-3.676-10.374-4.82-12.537
		c-1.145-2.168-3.876-5.033-4.381-4.767c-0.501,0.266,1.445,6.319-2.348,1.241c-3.797-5.076-6.612-10.669-7.435-11.155
		c-0.812-0.495-8.766-5.528-6.836,2.071c1.937,7.601,2.116,10.582,5.865,20.302c3.749,9.721,3.44,13.886,6.643,22.045
		c3.199,8.159,5.439,15.293,8.133,20.641c2.684,5.35,4.395,11.215,11.463,18.255c7.058,7.041,3.133-0.109,12.504,9.71
		c9.365,9.821,6.937,8.646,11.872,10.354c4.935,1.693-0.602-4.31,0.827-10.291c1.421-5.989,0.996-3.922,1.805-8.957
		C191.308,268.934,190.54,261.948,178.89,240.711z"/>
	<path fill="#7E3C1B" d="M189.198,294.744L189.198,294.744c-0.467,0-1.017-0.125-1.729-0.359l-0.688-0.242
		c-3.026-1.029-3.199-1.154-6.093-4.385c-1.193-1.328-2.905-3.229-5.578-6.038c-4.862-5.097-5.914-5.388-6.84-5.644
		c-1.321-0.366-2.438-0.844-5.647-4.039c-5.806-5.788-8.119-10.857-10.159-15.325c-0.505-1.106-1-2.187-1.532-3.251
		c-1.791-3.562-3.351-7.803-5.152-12.708c-0.93-2.538-1.919-5.227-3.022-8.037c-1.58-4.028-2.317-7.071-3.098-10.286
		c-0.809-3.359-1.646-6.83-3.548-11.768c-2.829-7.333-3.655-10.888-4.693-15.386c-0.349-1.511-0.729-3.135-1.213-5.054
		c-0.54-2.123-0.429-3.632,0.328-4.616c0.384-0.486,1.11-1.067,2.407-1.067c1.463,0,3.42,0.742,5.834,2.211
		c0.691,0.415,1.221,1.255,2.815,3.868c1.283,2.101,3.046,4.976,5.048,7.656c0.021,0.031,0.042,0.062,0.066,0.091
		c-0.031-0.733,0.08-1.34,0.729-1.682l0.266-0.144l0.384-0.016c1.635,0,4.55,3.857,5.384,5.435c0.498,0.942,1.003,2.545,1.584,4.407
		c0.335,1.055,0.698,2.216,1.093,3.351c-0.138-2.033-0.073-4.145,0.629-5.674c0.532-1.159,1.269-1.75,2.182-1.75
		c1.525,0,2.549,1.663,3.853,3.766c0.851,1.38,2.026,3.275,2.901,3.619c2.974,1.184,4.675,6.029,6.826,12.16
		c0.425,1.215,0.861,2.458,1.321,3.705c2.497,6.76,6.034,12.462,6.069,12.52c11.121,20.274,12.75,28.076,11.778,34.106l-0.325,2.109
		c-0.325,2.047-0.335,2.096-0.985,4.807l-0.508,2.137c-0.584,2.436,0.176,5.002,0.733,6.875c0.508,1.729,0.878,2.98,0.18,3.914
		C190.547,294.343,190.066,294.744,189.198,294.744z M189.198,292.296v1.224l0.017-1.224
		C189.215,292.296,189.202,292.296,189.198,292.296z M132.939,188.986c-0.138,0-0.387,0.012-0.47,0.124
		c-0.045,0.052-0.387,0.567,0.107,2.513c0.491,1.935,0.875,3.575,1.228,5.101c1.017,4.407,1.822,7.888,4.589,15.063
		c1.96,5.086,2.818,8.634,3.648,12.065c0.757,3.138,1.466,6.095,2.995,9.971c1.11,2.83,2.103,5.535,3.04,8.086
		c1.778,4.834,3.313,9.014,5.042,12.452c0.546,1.093,1.055,2.199,1.57,3.334c2.054,4.488,4.17,9.136,9.665,14.6
		c2.991,2.994,3.797,3.216,4.568,3.423c1.594,0.437,3.001,1.114,7.957,6.314c2.701,2.836,4.43,4.759,5.633,6.101
		c2.548,2.835,2.548,2.835,5.062,3.699l0.692,0.234c0.152,0.05,0.28,0.091,0.391,0.125c-0.094-0.414-0.256-0.961-0.388-1.396
		c-0.629-2.137-1.497-5.076-0.764-8.146l0.512-2.131c0.629-2.647,0.629-2.647,0.94-4.619l0.335-2.108
		c0.688-4.33,0.436-10.769-11.477-32.492c-0.114-0.18-3.672-5.912-6.252-12.907c-0.463-1.255-0.906-2.516-1.334-3.74
		c-1.712-4.883-3.482-9.928-5.422-10.697c-1.625-0.648-2.874-2.659-4.081-4.608c-0.491-0.795-1.196-1.931-1.663-2.419
		c-0.018,0.042-0.042,0.088-0.062,0.133c-0.857,1.871-0.335,5.697-0.021,7.986c0.287,2.113,0.394,2.899-0.135,3.508l-0.367,0.418
		l-0.623,0.035l0,0c-0.851,0-1.345-0.766-1.67-1.269c-1.463-2.243-2.573-5.791-3.469-8.64c-0.522-1.675-1.02-3.25-1.411-3.994
		c-0.491-0.929-1.283-1.968-2.013-2.779c-0.014,0.561-0.128,1.058-0.47,1.438l-0.363,0.403l-0.74,0.086
		c-0.861,0-1.66-0.657-3.043-2.512c-2.075-2.772-3.863-5.709-5.173-7.848c-0.799-1.307-1.701-2.786-1.992-3.059
		C134.849,189.227,133.51,188.986,132.939,188.986z"/>
</g>
<g>
	<path fill="#984C22" d="M132.701,231.758c0,0-2.507-4.115-9.067-14.247c-6.553-10.139-5.522-9.281-9.427-14.536
		c-3.907-5.256-4.748-9.121-6.708-7.162c-1.964,1.96-3.911-0.397-5.474-1.416c-1.566-1.02-3.209-6.617-5.387-4.852
		c-2.179,1.769-3.687-0.626-2.625,4.104c1.062,4.729,1.117,4.375,1.954,6.866c0.84,2.492-0.626,4.185,0.308,6.771
		c0.93,2.588-1.141-0.939,3.178,6.017c4.316,6.958,5.45,7.282,7.068,10.123c1.625,2.836,2.649,5.229,5.052,9.108
		c2.414,3.876,0.819,4.717,7.034,9.904c6.214,5.18,6.017,7.75,9.572,5.868C131.74,246.425,150.144,261.645,132.701,231.758z"/>
	<path fill="#7E3C1B" d="M138.099,251.768c-1.525,0-3.423-0.679-5.256-1.337c-1.466-0.521-2.984-1.062-3.845-1.062
		c-0.183,0-0.252,0.028-0.252,0.028c-0.982,0.52-1.753,0.753-2.486,0.753l0,0c-1.598,0-2.604-1.055-4.115-2.657
		c-1.037-1.089-2.32-2.448-4.319-4.113c-4.492-3.749-5.159-5.436-5.931-7.396c-0.321-0.821-0.653-1.669-1.355-2.798
		c-1.525-2.457-2.486-4.292-3.413-6.065c-0.546-1.034-1.065-2.024-1.667-3.083c-0.636-1.117-1.193-1.815-1.954-2.779
		c-1.075-1.357-2.552-3.216-5.086-7.307l-1.649-2.642c-1.477-2.362-1.48-2.369-1.435-2.95l0,0c0,0-0.042-0.18-0.211-0.659
		c-0.578-1.604-0.395-2.915-0.239-4.072c0.131-0.954,0.242-1.775-0.076-2.721c-0.183-0.557-0.332-0.965-0.46-1.325
		c-0.459-1.285-0.685-1.928-1.528-5.664c-0.432-1.947-0.56-3.084-0.014-3.887c0.467-0.688,1.193-0.804,1.677-0.882
		c0.453-0.074,0.878-0.142,1.386-0.553c0.501-0.41,1.051-0.616,1.625-0.616c1.736,0,2.829,1.795,3.88,3.536
		c0.425,0.693,1.003,1.649,1.317,1.854c0.332,0.214,0.678,0.484,1.038,0.766c0.726,0.569,1.549,1.208,2.147,1.208
		c0.152,0,0.401-0.04,0.754-0.396c0.581-0.579,1.203-0.873,1.843-0.873c1.532,0,2.441,1.498,3.818,3.764
		c0.747,1.229,1.67,2.756,2.898,4.407c2.296,3.083,2.925,4.12,4.309,6.392c1.002,1.643,2.414,3.954,5.163,8.208
		c6.491,10.03,9.06,14.237,9.084,14.276c8.074,13.832,8.136,17.48,7.134,19.227C140.513,250.995,139.728,251.768,138.099,251.768z
		 M128.998,246.92c1.287,0,2.925,0.586,4.668,1.208c1.563,0.559,3.33,1.191,4.433,1.191c0.363,0,0.588-0.064,0.661-0.188
		c0.401-0.692,0.498-3.712-7.117-16.756c-0.01-0.019-2.566-4.207-9.033-14.2c-2.77-4.285-4.188-6.608-5.197-8.261
		c-1.383-2.274-1.957-3.211-4.188-6.207c-1.293-1.743-2.255-3.329-3.029-4.598c-0.595-0.984-1.328-2.19-1.726-2.535
		c-0.027,0.028-0.062,0.059-0.107,0.104c-0.744,0.738-1.581,1.112-2.486,1.112c-1.435,0-2.663-0.956-3.652-1.728
		c-0.304-0.233-0.591-0.459-0.864-0.643c-0.789-0.512-1.38-1.496-2.079-2.637c-0.442-0.731-1.366-2.251-1.812-2.36
		c-1.068,0.887-2.009,1.046-2.576,1.136c0.021,0.292,0.094,0.83,0.315,1.822c0.806,3.586,1.006,4.151,1.442,5.379
		c0.135,0.369,0.287,0.794,0.477,1.368c0.498,1.489,0.329,2.734,0.18,3.833c-0.142,1.004-0.256,1.869,0.117,2.912
		c0.252,0.714,0.335,1.104,0.353,1.417c0.135,0.246,0.436,0.712,1.065,1.721l1.649,2.648c2.462,3.97,3.887,5.77,4.928,7.077
		c0.802,1.011,1.435,1.81,2.165,3.084c0.616,1.079,1.148,2.104,1.708,3.164c0.902,1.734,1.847,3.529,3.316,5.904
		c0.823,1.318,1.214,2.317,1.563,3.194c0.675,1.715,1.204,3.067,5.218,6.418c2.106,1.755,3.51,3.228,4.527,4.307
		c1.213,1.277,1.819,1.893,2.341,1.893l0,0c0.308,0,0.75-0.156,1.352-0.474C127.998,247.025,128.465,246.92,128.998,246.92z"/>
</g>
<g>
	<path fill="#BE3426" d="M171.659,222.154c0,0,1.898-9.5-2.978-12.152c-4.872-2.652-9.6-5.09-12.743-6.062
		c-3.144-0.967-5.19-2.732-6.197-0.849c-1.01,1.885,0.208,1.298,4.686,3.32c4.475,2.016,13.604,7.524,13.767,8.993
		c0.166,1.464-0.795-0.375,0.034,4.822C169.059,225.42,168.54,233.129,171.659,222.154z"/>
</g>
<g>
	<path fill="#BE3426" d="M152.298,226.182c0,0-10.26-16.559-13.625-16.65c-3.357-0.104-6.75-1.489-10.948-0.406
		c-4.188,1.079-9.942,4.11-6.608,5.028c3.33,0.915,8.213-1.487,11.643,0.481c3.423,1.96,4.492-1.684,7.428,3.33
		c2.933,5.016,5.495,6.909,6.909,8.332C148.521,227.726,153.031,233.855,152.298,226.182z"/>
</g>
<g>
	<path fill="#BE3426" d="M126.86,249.346c0,0,4.447-3.512,1.017-6.866c-3.43-3.358-5.184-6.295-6.432-9.819
		c-1.252-3.523-2.929-13.14-6.459-11.84c-3.534,1.304,0.557,5.545,2.566,9.61c2.002,4.068,3.755,8.431,4.928,10.865
		c1.162,2.433,0.913,4.858,0.525,7.082C122.625,250.596,124.907,251.872,126.86,249.346z"/>
</g>
<g>
	<path fill="#BE3426" d="M110.158,250.585c0,0-7.327-12.64-10.471-14.321c-3.136-1.681-4.143,0.2-1.601,6.371
		c2.545,6.157,5.941,9.576,8.949,10.413C110.044,253.885,112.832,263.29,110.158,250.585z"/>
</g>
<g>
	<path fill="#BE3426" d="M124.63,190.72c0,0-2.275-13.581-4.454-14.84c-2.172-1.259-5.778-1.1-4.15,3.052
		c1.619,4.149,1.667,4.698,3.413,10.481C121.186,195.198,122.666,209.824,124.63,190.72z"/>
</g>
<g>
	<path fill="#BE3426" d="M147.47,218.907c0,0,1.127-12.005-1.881-15.615c-3.005-3.608-11.404-14.812-11.404-14.812
		s-6.155-4.58-4.692-1.179c1.456,3.396,6.055,7.782,7.307,11.294c1.259,3.51,6.048,7.219,5.667,10.326
		c-0.376,3.105-1.549,7.265,1.214,9.032C146.44,219.719,145.966,223.158,147.47,218.907z"/>
</g>
<g>
	<path fill="#BE3426" d="M145.347,256.702c0,0,3.651-11.574,3.634-14.43c-0.021-2.855-0.229-5.58-0.138-8.759
		c0.09-3.188,3.966-9.416-0.422-5.765c-4.392,3.655-5.198,6.15-4.302,11.797c0.892,5.648,1.95,3.562,0.847,7.933
		c-1.104,4.375-2.251,3.547-2.082,5.547c0.177,2.007-6.266,7.332-2.358,9.387C144.431,264.459,143.705,262.184,145.347,256.702z"/>
</g>
<g>
	<path fill="#BE3426" d="M175.103,247.894c0,0-1.435-11.797-2.832-12.631c-1.39-0.833-2.085,1.292-3.621-3.999
		c-1.535-5.286-3.357-9.287-5.076-8.832c-1.719,0.46-3.458-1.195-1.916,3.351c1.549,4.542,4.928,3.788,5.291,8.711
		c0.359,4.919,1.902,2.528,2.701,9.07c0.802,6.537-1.1,7.202,0.823,8.756C172.396,253.87,175.145,258.878,175.103,247.894z"/>
</g>
<g>
	<path fill="#BE3426" d="M188.569,251.301c0,0,1.895-9.497-2.981-12.151c-4.869-2.656-9.596-5.097-12.743-6.065
		c-3.137-0.967-5.187-2.734-6.197-0.849c-1.013,1.883,0.208,1.3,4.686,3.318c4.478,2.021,13.601,7.53,13.77,8.995
		c0.163,1.468-0.795-0.379,0.031,4.82C185.965,254.562,185.45,262.268,188.569,251.301z"/>
</g>
<g>
	<path fill="#BE3426" d="M169.204,255.33c0,0-10.26-16.564-13.618-16.656c-3.364-0.097-6.757-1.489-10.944-0.406
		c-4.191,1.082-9.942,4.111-6.612,5.028c3.33,0.917,8.209-1.485,11.636,0.48c3.423,1.968,4.492-1.682,7.428,3.333
		c2.939,5.018,5.491,6.907,6.916,8.331C165.428,256.872,169.944,262.992,169.204,255.33z"/>
</g>
<g>
	<path fill="#BE3426" d="M143.767,278.479c0,0,4.444-3.506,1.023-6.867c-3.437-3.354-5.187-6.287-6.438-9.809
		c-1.252-3.52-2.929-13.137-6.459-11.834c-3.534,1.301,0.56,5.535,2.566,9.608c2.002,4.06,3.759,8.424,4.927,10.852
		c1.169,2.435,0.91,4.868,0.526,7.082C139.531,279.729,141.81,281.009,143.767,278.479z"/>
</g>
<g>
	<path fill="#BE3426" d="M127.064,279.723c0,0-7.328-12.636-10.464-14.315c-3.144-1.681-4.149,0.2-1.604,6.362
		c2.542,6.155,5.938,9.578,8.949,10.408C126.943,283.016,129.741,292.428,127.064,279.723z"/>
</g>
<g>
	<path fill="#BE3426" d="M95.534,216.093c0,0-2.278-13.583-4.457-14.843c-2.172-1.257-5.778-1.1-4.15,3.053
		c1.619,4.151,1.667,4.698,3.413,10.485C92.087,220.572,93.567,235.197,95.534,216.093z"/>
</g>
<g>
	<path fill="#BE3426" d="M109.225,225.952c0,0,1.138-12.001-1.874-15.609c-3.009-3.612-11.408-14.814-11.408-14.814
		s-6.155-4.58-4.692-1.185c1.459,3.401,6.055,7.786,7.307,11.299c1.255,3.51,6.052,7.218,5.668,10.324
		c-0.381,3.107-1.549,7.265,1.217,9.034C108.201,226.765,107.731,230.204,109.225,225.952z"/>
</g>
<g>
	<path fill="#BE3426" d="M162.253,285.829c0,0,3.658-11.563,3.634-14.42c-0.021-2.856-0.225-5.581-0.135-8.763
		c0.09-3.174,3.966-9.405-0.426-5.754c-4.392,3.658-5.197,6.142-4.305,11.791c0.892,5.637,1.954,3.562,0.847,7.926
		c-1.096,4.379-2.248,3.549-2.071,5.555c0.173,1.998-6.272,7.331-2.372,9.378C161.34,293.596,160.611,291.32,162.253,285.829z"/>
</g>
<g>
	<path fill="#BE3426" d="M192.013,277.025c0,0-1.438-11.793-2.832-12.623c-1.39-0.836-2.085,1.287-3.624-3.989
		c-1.539-5.291-3.357-9.295-5.076-8.834c-1.715,0.459-3.461-1.194-1.916,3.351c1.546,4.543,4.928,3.789,5.291,8.706
		c0.363,4.91,1.902,2.524,2.697,9.062c0.806,6.541-1.1,7.205,0.826,8.762C189.302,283.008,192.051,288.016,192.013,277.025z"/>
</g>
<g opacity="0.15">
	<path fill="#D28C35" d="M223.003,143.61c0,9.649-5.329,17.475-11.899,17.475s-11.899-7.825-11.899-17.475
		c0-9.655,5.329-17.479,11.899-17.479S223.003,133.956,223.003,143.61z"/>
</g>
<g opacity="0.15">
	<path fill="#D28C35" d="M309.751,206.11c0,9.651-5.321,17.479-11.898,17.479c-6.573,0-11.902-7.828-11.902-17.479
		c0-9.653,5.329-17.477,11.903-17.477C304.43,188.633,309.751,196.457,309.751,206.11z"/>
</g>
<g opacity="0.05">
	<path fill="#D28C35" d="M277.488,157.695c0,7.78-6.463,14.093-14.434,14.093c-7.976,0-14.438-6.312-14.438-14.093
		c0-7.781,6.463-14.084,14.438-14.084C271.025,143.61,277.488,149.914,277.488,157.695z"/>
</g>
<g opacity="0.05">
	<path fill="#D28C35" d="M264.688,215.483c0,7.781-6.467,14.088-14.441,14.088c-7.971,0-14.434-6.307-14.434-14.088
		c0-7.782,6.463-14.089,14.434-14.089C258.221,201.394,264.688,207.701,264.688,215.483z"/>
</g>
</svg>
