<?xml version="1.0" encoding="utf-8"?>
<!-- Generator: Adobe Illustrator 16.0.0, SVG Export Plug-In . SVG Version: 6.00 Build 0)  -->
<!DOCTYPE svg PUBLIC "-//W3C//DTD SVG 1.1//EN" "http://www.w3.org/Graphics/SVG/1.1/DTD/svg11.dtd">
<svg version="1.1" id="Layer_1" xmlns="http://www.w3.org/2000/svg" xmlns:xlink="http://www.w3.org/1999/xlink" x="0px" y="0px"
	 width="500px" height="500px" viewBox="0 0 500 500" enable-background="new 0 0 500 500" xml:space="preserve">
<g id="Layer_1_copy_10">
	<path fill="#009444" stroke="#3C2415" stroke-width="4.0808" stroke-miterlimit="10" d="M166.366,228.744
		c0,0-23.974-10.469-29.074-34.821c-5.103-24.351-20.405-32.512-39.279-32.512c-18.873,0-71.414-5.611-77.534,43.869
		c-6.121,49.479,63.252,55.601,94.879,42.338c0,0,11.732,36.217,51.009,31.626C205.646,274.652,166.366,228.744,166.366,228.744z"/>
	
		<ellipse fill="#FFFFFF" stroke="#3C2415" stroke-width="4.0808" stroke-miterlimit="10" cx="63.693" cy="193.923" rx="12.498" ry="15.475"/>
	<ellipse fill="#3C2415" cx="62.53" cy="194.434" rx="5.101" ry="6.631"/>
	<path fill="#009444" stroke="#3C2415" stroke-width="4.0808" stroke-miterlimit="10" d="M239.312,279.646l2.551,38.768
		c0,0-19.894,2.552-22.955,9.184c-3.061,6.629-1.53,31.115,34.178,33.666c35.707,2.551,42.848-17.854,43.357-34.177
		c0.511-16.323,0-37.237,0-37.237L239.312,279.646z"/>
	<path fill="#009444" stroke="#3C2415" stroke-width="4.0808" stroke-miterlimit="10" d="M342.22,272.812l10.438,37.422
		c0,0-18.953,6.572-20.592,13.689c-1.634,7.117,4.882,30.766,40.354,25.953c35.469-4.818,38.281-26.253,35.438-42.335
		c-2.847-16.082-7.629-36.446-7.629-36.446L342.22,272.812z"/>
	<path fill="#009444" stroke="#3C2415" stroke-width="4.0808" stroke-miterlimit="10" d="M192.382,287.916l2.55,38.768
		c0,0-19.893,2.551-22.954,9.183c-3.061,6.633-1.53,31.116,34.177,33.668c35.708,2.55,42.85-17.854,43.359-34.177
		c0.51-16.324,0-37.238,0-37.238L192.382,287.916z"/>
	<path fill="#009444" stroke="#3C2415" stroke-width="4.0808" stroke-miterlimit="10" d="M391.229,294.25l21.725,32.21
		c0,0-15.904,12.222-15.212,19.491c0.696,7.271,14.348,27.652,46.482,11.879c32.133-15.771,28.032-36.997,20.253-51.357
		c-7.778-14.359-18.75-32.173-18.75-32.173L391.229,294.25z"/>
	<path fill="#006838" stroke="#3C2415" stroke-width="4.0808" stroke-miterlimit="10" d="M144.433,265.471
		c0,0,30.606,47.439,167.312,48.971c136.708,1.531,163.232-46.42,163.232-46.42S435.19,104.79,305.624,116.012
		C176.059,127.234,144.433,265.471,144.433,265.471z"/>
	
		<ellipse fill="#009444" stroke="#3C2415" stroke-width="4.0808" stroke-miterlimit="10" cx="244.922" cy="211.16" rx="38.768" ry="30.367"/>
	
		<ellipse fill="#009444" stroke="#3C2415" stroke-width="4.0808" stroke-miterlimit="10" cx="352.299" cy="162.176" rx="26.781" ry="18.619"/>
	
		<ellipse fill="#009444" stroke="#3C2415" stroke-width="4.0808" stroke-miterlimit="10" cx="387.24" cy="239.966" rx="43.358" ry="33.667"/>
</g>
</svg>
