<?xml version="1.0" encoding="utf-8"?>
<!-- Generator: Adobe Illustrator 16.0.0, SVG Export Plug-In . SVG Version: 6.00 Build 0)  -->
<!DOCTYPE svg PUBLIC "-//W3C//DTD SVG 1.1//EN" "http://www.w3.org/Graphics/SVG/1.1/DTD/svg11.dtd">
<svg version="1.1" id="Layer_1" xmlns="http://www.w3.org/2000/svg" xmlns:xlink="http://www.w3.org/1999/xlink" x="0px" y="0px"
	 width="500px" height="500px" viewBox="0 0 500 500" enable-background="new 0 0 500 500" xml:space="preserve">
<g id="Layer_1_copy_89">
	<g>
		<g>
			<g>
				<path fill="#FBEEC2" d="M307.761,282.057c-2.617-0.839-6.381,3.062-8.355,8.67l-17.589,49.918
					c-1.977,5.607-7.44,10.19-12.142,10.19c-4.709,0-10.391-4.505-12.628-10.005l-20.002-49.172
					c-2.239-5.508-6.346-9.577-9.131-9.047c-2.779,0.524-3.178,5.439-0.874,10.922l24.586,58.564
					c2.301,5.476,9.046,9.959,14.988,9.959h6.479c5.946,0,12.475-4.565,14.512-10.147l21.226-58.189
					C310.864,288.137,310.386,282.887,307.761,282.057z"/>
				<path fill="#27140E" d="M273.096,363.958h-6.48c-6.652,0-14.164-4.994-16.739-11.125l-24.59-58.563
					c-1.869-4.459-2.168-8.64-0.799-11.189c0.674-1.26,1.77-2.086,3.074-2.336c0.278-0.051,0.563-0.078,0.859-0.078
					c4.07,0,8.308,5.168,10.383,10.271l20.003,49.178c1.943,4.777,6.92,8.824,10.868,8.824c3.905,0,8.648-4.088,10.351-8.926
					l17.59-49.918c2.359-6.691,7.076-10.996,10.729-9.852c1.181,0.374,2.145,1.252,2.775,2.531c1.314,2.68,1.127,7.119-0.5,11.593
					l-21.227,58.19C287.096,358.843,279.787,363.958,273.096,363.958z M228.42,284.464c-0.231,0.028-0.396,0.062-0.588,0.416
					c-0.642,1.192-0.613,4.175,0.956,7.919l24.589,58.564c2.001,4.766,8.064,8.796,13.237,8.796h6.479
					c5.141,0,10.965-4.077,12.727-8.899l21.228-58.193c1.43-3.931,1.345-7.219,0.66-8.612c-0.089-0.187-0.281-0.515-0.518-0.589
					c-1.404,0.039-4.284,2.652-5.995,7.494l-17.59,49.914c-2.26,6.432-8.381,11.465-13.932,11.465
					c-5.518,0-11.839-4.92-14.39-11.193l-19.999-49.173C233.211,287.282,229.912,284.464,228.42,284.464z"/>
			</g>
			<g>
				<path fill="#FBEEC2" d="M307.761,282.057c-2.617-0.839-6.381,3.062-8.355,8.67l-17.589,49.918
					c-1.977,5.607-7.44,10.19-12.142,10.19c-4.709,0-10.391-4.505-12.628-10.005l-20.002-49.172
					c-2.239-5.508-6.346-9.577-9.131-9.047c-2.779,0.524-3.178,5.439-0.874,10.922l24.586,58.564
					c2.301,5.476,9.046,9.959,14.988,9.959h6.479c5.946,0,12.475-4.565,14.512-10.147l21.226-58.189
					C310.864,288.137,310.386,282.887,307.761,282.057z"/>
				<path fill="#27140E" d="M273.096,363.958h-6.48c-6.652,0-14.164-4.994-16.739-11.125l-24.59-58.563
					c-1.869-4.459-2.168-8.64-0.799-11.189c0.674-1.26,1.77-2.086,3.074-2.336c0.278-0.051,0.563-0.078,0.859-0.078
					c4.07,0,8.308,5.168,10.383,10.271l20.003,49.178c1.943,4.777,6.92,8.824,10.868,8.824c3.905,0,8.648-4.088,10.351-8.926
					l17.59-49.918c2.359-6.691,7.076-10.996,10.729-9.852c1.181,0.374,2.145,1.252,2.775,2.531c1.314,2.68,1.127,7.119-0.5,11.593
					l-21.227,58.19C287.096,358.843,279.787,363.958,273.096,363.958z M228.42,284.464c-0.231,0.028-0.396,0.062-0.588,0.416
					c-0.642,1.192-0.613,4.175,0.956,7.919l24.589,58.564c2.001,4.766,8.064,8.796,13.237,8.796h6.479
					c5.141,0,10.965-4.077,12.727-8.899l21.228-58.193c1.43-3.931,1.345-7.219,0.66-8.612c-0.089-0.187-0.281-0.515-0.518-0.589
					c-1.404,0.039-4.284,2.652-5.995,7.494l-17.59,49.914c-2.26,6.432-8.381,11.465-13.932,11.465
					c-5.518,0-11.839-4.92-14.39-11.193l-19.999-49.173C233.211,287.282,229.912,284.464,228.42,284.464z"/>
			</g>
		</g>
		<g>
			<g>
				<path fill="#FBEEC2" d="M42.737,243.499c-5.226-2.835-10.044-0.324-10.711,5.583l-7.829,68.982
					c-0.671,5.899,2.064,12.498,6.074,14.666c4.009,2.162,9.844-0.207,12.958-5.268l32.965-53.514
					c3.114-5.062,1.395-11.521-3.827-14.36L42.737,243.499z M42.716,314.395c-2.978,5.139-6.759,8.655-8.393,7.813
					c-1.633-0.838-2.404-6.353-1.705-12.256l5.87-49.812c0.692-5.904,5.68-8.703,11.08-6.217l12.483,5.745
					c5.4,2.481,7.377,8.722,4.392,13.856L42.716,314.395z"/>
				<path fill="#27140E" d="M33.574,335.432H33.57c-1.522,0-2.936-0.348-4.201-1.031c-4.727-2.551-7.822-9.82-7.059-16.555
					l7.829-68.979c0.566-5.047,3.944-8.436,8.396-8.436c1.68,0,3.399,0.471,5.107,1.398l29.63,16.09
					c2.99,1.624,5.109,4.299,5.972,7.526c0.859,3.228,0.35,6.598-1.434,9.498l-32.965,53.514
					C42.241,332.691,37.812,335.432,33.574,335.432z M38.535,244.233c-2.535,0-4.262,1.891-4.622,5.058l-7.83,68.986
					c-0.58,5.121,1.748,10.975,5.094,12.779c0.703,0.383,1.509,0.574,2.397,0.574l0,0c2.903,0,6.135-2.076,8.039-5.168
					l32.965-53.515c1.228-1.997,1.584-4.315,0.992-6.526c-0.589-2.212-2.048-4.046-4.109-5.165l-29.633-16.091
					C40.687,244.547,39.577,244.233,38.535,244.233z M34.873,324.234c-0.511,0-0.989-0.114-1.42-0.336
					c-3.268-1.676-3.25-9.693-2.722-14.166l5.871-49.814c0.621-5.262,4.27-8.8,9.085-8.8c1.54,0,3.117,0.364,4.673,1.081
					l12.483,5.744c3.103,1.428,5.361,3.942,6.356,7.084c0.998,3.144,0.6,6.5-1.113,9.457L44.36,315.35
					C41.984,319.447,38.068,324.234,34.873,324.234z M45.688,254.917c-2.882,0-4.915,2.09-5.314,5.446l-5.871,49.813
					c-0.61,5.179,0.028,9.015,0.642,10.169c1.013-0.459,3.481-2.679,5.929-6.904L64.8,272.576c1.174-2.016,1.448-4.291,0.782-6.398
					c-0.667-2.109-2.201-3.807-4.32-4.779l-12.487-5.746C47.713,255.166,46.679,254.917,45.688,254.917z"/>
			</g>
			<g>
				<path fill="#FBEEC2" d="M42.737,243.499c-5.226-2.835-10.044-0.324-10.711,5.583l-7.829,68.982
					c-0.671,5.899,2.064,12.498,6.074,14.666c4.009,2.162,9.844-0.207,12.958-5.268l32.965-53.514
					c3.114-5.062,1.395-11.521-3.827-14.36L42.737,243.499z M42.716,314.395c-2.978,5.139-6.759,8.655-8.393,7.813
					c-1.633-0.838-2.404-6.353-1.705-12.256l5.87-49.812c0.692-5.904,5.68-8.703,11.08-6.217l12.483,5.745
					c5.4,2.481,7.377,8.722,4.392,13.856L42.716,314.395z"/>
				<path fill="#27140E" d="M33.574,335.432H33.57c-1.522,0-2.936-0.348-4.201-1.031c-4.727-2.551-7.822-9.82-7.059-16.555
					l7.829-68.979c0.566-5.047,3.944-8.436,8.396-8.436c1.68,0,3.399,0.471,5.107,1.398l29.63,16.09
					c2.99,1.624,5.109,4.299,5.972,7.526c0.859,3.228,0.35,6.598-1.434,9.498l-32.965,53.514
					C42.241,332.691,37.812,335.432,33.574,335.432z M38.535,244.233c-2.535,0-4.262,1.891-4.622,5.058l-7.83,68.986
					c-0.58,5.121,1.748,10.975,5.094,12.779c0.703,0.383,1.509,0.574,2.397,0.574l0,0c2.903,0,6.135-2.076,8.039-5.168
					l32.965-53.515c1.228-1.997,1.584-4.315,0.992-6.526c-0.589-2.212-2.048-4.046-4.109-5.165l-29.633-16.091
					C40.687,244.547,39.577,244.233,38.535,244.233z M34.873,324.234c-0.511,0-0.989-0.114-1.42-0.336
					c-3.268-1.676-3.25-9.693-2.722-14.166l5.871-49.814c0.621-5.262,4.27-8.8,9.085-8.8c1.54,0,3.117,0.364,4.673,1.081
					l12.483,5.744c3.103,1.428,5.361,3.942,6.356,7.084c0.998,3.144,0.6,6.5-1.113,9.457L44.36,315.35
					C41.984,319.447,38.068,324.234,34.873,324.234z M45.688,254.917c-2.882,0-4.915,2.09-5.314,5.446l-5.871,49.813
					c-0.61,5.179,0.028,9.015,0.642,10.169c1.013-0.459,3.481-2.679,5.929-6.904L64.8,272.576c1.174-2.016,1.448-4.291,0.782-6.398
					c-0.667-2.109-2.201-3.807-4.32-4.779l-12.487-5.746C47.713,255.166,46.679,254.917,45.688,254.917z"/>
			</g>
		</g>
		<g>
			<g>
				<path fill="#FBEEC2" d="M426.155,255.921c-5.218,2.837-6.945,9.296-3.823,14.356l32.961,53.515
					c3.117,5.062,8.945,7.431,12.959,5.265c4.009-2.162,6.745-8.761,6.077-14.67l-7.829-68.979
					c-0.674-5.903-5.492-8.414-10.711-5.578L426.155,255.921z M432.08,269.857c-2.982-5.14-1.01-11.375,4.392-13.856l12.483-5.745
					c5.4-2.483,10.383,0.312,11.078,6.213l5.874,49.814c0.7,5.906-0.074,11.418-1.704,12.263c-1.637,0.838-5.415-2.679-8.4-7.817
					L432.08,269.857z"/>
				<path fill="#27140E" d="M464.952,331.761L464.952,331.761c-4.241,0-8.667-2.737-11.278-6.971l-32.961-53.517
					c-1.784-2.894-2.294-6.265-1.43-9.492c0.854-3.231,2.978-5.906,5.966-7.529l29.63-16.097c1.709-0.924,3.428-1.394,5.107-1.394
					c4.448,0,7.826,3.388,8.399,8.432l7.829,68.979c0.761,6.737-2.34,14.012-7.058,16.559
					C467.888,331.415,466.476,331.761,464.952,331.761z M459.986,240.559c-1.04,0-2.15,0.314-3.291,0.938l-29.63,16.094
					c-2.066,1.12-3.524,2.957-4.112,5.169c-0.589,2.207-0.236,4.522,0.995,6.52l32.961,53.519c1.905,3.089,5.136,5.165,8.043,5.165
					l0,0c0.889,0,1.694-0.193,2.399-0.574c3.335-1.803,5.668-7.658,5.086-12.787l-7.824-68.979
					C464.249,242.454,462.523,240.559,459.986,240.559z M463.653,320.568c-3.199,0-7.112-4.791-9.49-8.889l-23.724-40.865
					c-1.721-2.957-2.115-6.316-1.116-9.459c0.995-3.14,3.253-5.654,6.352-7.082l12.485-5.746c1.562-0.718,3.135-1.081,4.676-1.081
					c4.815,0,8.464,3.536,9.085,8.8l5.874,49.81c0.528,4.471,0.55,12.484-2.722,14.176
					C464.638,320.458,464.164,320.568,463.653,320.568z M452.836,251.246c-0.992,0-2.03,0.25-3.089,0.734l-12.48,5.746
					c-2.118,0.975-3.655,2.672-4.322,4.775c-0.667,2.111-0.39,4.384,0.779,6.402l23.726,40.865c2.481,4.28,4.979,6.502,5.992,6.928
					c0.521-0.963,1.208-4.873,0.581-10.194l-5.875-49.812C457.751,253.332,455.714,251.246,452.836,251.246z"/>
			</g>
			<g>
				<path fill="#FBEEC2" d="M426.155,255.921c-5.218,2.837-6.945,9.296-3.823,14.356l32.961,53.515
					c3.117,5.062,8.945,7.431,12.959,5.265c4.009-2.162,6.745-8.761,6.077-14.67l-7.829-68.979
					c-0.674-5.903-5.492-8.414-10.711-5.578L426.155,255.921z M432.08,269.857c-2.982-5.14-1.01-11.375,4.392-13.856l12.483-5.745
					c5.4-2.483,10.383,0.312,11.078,6.213l5.874,49.814c0.7,5.906-0.074,11.418-1.704,12.263c-1.637,0.838-5.415-2.679-8.4-7.817
					L432.08,269.857z"/>
				<path fill="#27140E" d="M464.952,331.761L464.952,331.761c-4.241,0-8.667-2.737-11.278-6.971l-32.961-53.517
					c-1.784-2.894-2.294-6.265-1.43-9.492c0.854-3.231,2.978-5.906,5.966-7.529l29.63-16.097c1.709-0.924,3.428-1.394,5.107-1.394
					c4.448,0,7.826,3.388,8.399,8.432l7.829,68.979c0.761,6.737-2.34,14.012-7.058,16.559
					C467.888,331.415,466.476,331.761,464.952,331.761z M459.986,240.559c-1.04,0-2.15,0.314-3.291,0.938l-29.63,16.094
					c-2.066,1.12-3.524,2.957-4.112,5.169c-0.589,2.207-0.236,4.522,0.995,6.52l32.961,53.519c1.905,3.089,5.136,5.165,8.043,5.165
					l0,0c0.889,0,1.694-0.193,2.399-0.574c3.335-1.803,5.668-7.658,5.086-12.787l-7.824-68.979
					C464.249,242.454,462.523,240.559,459.986,240.559z M463.653,320.568c-3.199,0-7.112-4.791-9.49-8.889l-23.724-40.865
					c-1.721-2.957-2.115-6.316-1.116-9.459c0.995-3.14,3.253-5.654,6.352-7.082l12.485-5.746c1.562-0.718,3.135-1.081,4.676-1.081
					c4.815,0,8.464,3.536,9.085,8.8l5.874,49.81c0.528,4.471,0.55,12.484-2.722,14.176
					C464.638,320.458,464.164,320.568,463.653,320.568z M452.836,251.246c-0.992,0-2.03,0.25-3.089,0.734l-12.48,5.746
					c-2.118,0.975-3.655,2.672-4.322,4.775c-0.667,2.111-0.39,4.384,0.779,6.402l23.726,40.865c2.481,4.28,4.979,6.502,5.992,6.928
					c0.521-0.963,1.208-4.873,0.581-10.194l-5.875-49.812C457.751,253.332,455.714,251.246,452.836,251.246z"/>
			</g>
		</g>
	</g>
	<g>
		<g>
			<polygon fill="#FBB041" points="302.988,242.122 318.833,272.736 327.475,270.214 310.915,240.324 			"/>
			<path fill="#27140E" d="M317.862,274.998l-17.688-34.181l11.709-2.661l18.402,33.217L317.862,274.998z M305.803,243.431
				l13.997,27.043l4.865-1.416l-14.721-26.569L305.803,243.431z"/>
		</g>
		<g>
			<polygon fill="#FBB041" points="246.979,236.665 246.953,271.135 255.785,272.875 254.84,238.712 			"/>
			<path fill="#27140E" d="M257.75,275.198l-12.697-2.501l0.028-38.493l11.621,3.032L257.75,275.198z M248.854,269.576l4.97,0.979
				l-0.844-30.362l-4.104-1.07L248.854,269.576z"/>
		</g>
		<g>
			<polygon fill="#FBB041" points="185.115,236.201 175.802,269.398 183.842,273.445 192.135,240.289 			"/>
			<path fill="#27140E" d="M185.108,276.21l-11.557-5.821l10.394-37.062l10.376,6.042L185.108,276.21z M178.053,268.406l4.522,2.275
				l7.369-29.466l-3.667-2.136L178.053,268.406z"/>
		</g>
		<g>
			<polygon fill="#FBB041" points="138.769,234.674 111.231,255.416 115.165,263.516 141.864,242.182 			"/>
			<path fill="#27140E" d="M114.496,266.484l-5.654-11.646l30.743-23.159l4.579,11.1L114.496,266.484z M113.625,255.99l2.215,4.559
				l23.727-18.958l-1.619-3.92L113.625,255.99z"/>
		</g>
		<g>
			<polygon fill="#FBB041" points="103.171,221.009 44.253,239.204 45.124,248.171 103.471,229.131 			"/>
			<path fill="#27140E" d="M43.466,250.71l-1.253-12.862l62.77-19.385l0.435,12.027L43.466,250.71z M46.294,240.567l0.492,5.065
				l54.732-17.863l-0.153-4.216L46.294,240.567z"/>
		</g>
		<g>
			<polygon fill="#FBB041" points="123.056,207.103 62.01,198.378 58.97,206.853 119.856,214.571 			"/>
			<path fill="#27140E" d="M121.036,216.64l-64.652-8.204l4.362-12.156l65.031,9.292L121.036,216.64z M61.56,205.265l57.112,7.245
				l1.663-3.877l-57.056-8.157L61.56,205.265z"/>
		</g>
		<g>
			<polygon fill="#FBB041" points="470.438,217.604 409.398,208.879 406.356,217.35 467.242,225.072 			"/>
			<path fill="#27140E" d="M468.423,227.138l-64.653-8.2l4.362-12.16l65.027,9.295L468.423,227.138z M408.945,215.763l57.111,7.245
				l1.663-3.877l-57.06-8.154L408.945,215.763z"/>
		</g>
		<g>
			<polygon fill="#FBB041" points="420.007,189.411 359.402,200.8 359.249,209.806 419.379,197.512 			"/>
			<path fill="#27140E" d="M357.312,212.139l0.219-12.918l64.56-12.135l-0.928,11.999L357.312,212.139z M361.274,202.38
				l-0.085,5.086l56.405-11.528l0.324-4.202L361.274,202.38z"/>
		</g>
		<g>
			<polygon fill="#FBB041" points="356.081,234.713 382.283,265.762 389.624,260.264 363.001,230.266 			"/>
			<path fill="#27140E" d="M381.987,268.355l-28.753-34.069l10.104-6.495l29.077,32.754L381.987,268.355z M358.928,235.138
				l23.651,28.032l4.255-3.189l-24.175-27.235L358.928,235.138z"/>
		</g>
		<g>
			<polygon fill="#FBB041" points="299.604,202.715 315.451,172.104 324.097,174.623 307.529,204.513 			"/>
			<path fill="#27140E" d="M308.496,206.682l-11.71-2.661l17.695-34.178l12.43,3.62L308.496,206.682z M302.422,201.407l4.138,0.941
				l14.725-26.566l-4.861-1.42L302.422,201.407z"/>
		</g>
		<g>
			<polygon fill="#FBB041" points="243.597,208.176 243.568,173.703 252.4,171.969 251.463,206.125 			"/>
			<path fill="#27140E" d="M241.699,210.634l-0.027-38.494l12.694-2.497l-1.046,37.958L241.699,210.634z M245.47,175.265
				l0.025,30.454l4.108-1.07l0.835-30.361L245.47,175.265z"/>
		</g>
		<g>
			<polygon fill="#FBB041" points="181.73,208.64 172.417,175.443 180.457,171.391 188.749,204.542 			"/>
			<path fill="#27140E" d="M180.564,211.519l-10.395-37.067l11.558-5.825l9.209,36.842L180.564,211.519z M174.672,176.435
				l8.225,29.326l3.664-2.14l-7.366-29.462L174.672,176.435z"/>
		</g>
		<g>
			<polygon fill="#FBB041" points="135.383,210.167 107.851,189.425 111.784,181.321 138.482,202.658 			"/>
			<path fill="#27140E" d="M136.199,213.159L105.461,190l5.649-11.646l29.669,23.709L136.199,213.159z M110.243,188.848
				l24.319,18.323l1.619-3.92l-23.727-18.962L110.243,188.848z"/>
		</g>
		<g>
			<polygon fill="#FBB041" points="352.696,210.127 378.898,179.078 386.246,184.574 359.612,214.571 			"/>
			<path fill="#27140E" d="M359.955,217.051l-10.104-6.496l28.752-34.07l10.438,7.808L359.955,217.051z M355.543,209.699l3.73,2.397
				l24.18-27.236l-4.259-3.188L355.543,209.699z"/>
		</g>
		<g>
			<polygon fill="#FBB041" points="395.21,226.121 440.298,251.792 442.113,243.916 397.475,219.486 			"/>
			<path fill="#27140E" d="M441.575,254.706l-48.67-27.714l3.503-10.259l47.878,26.209L441.575,254.706z M397.514,225.247
				l41.504,23.63l0.922-3.987l-41.396-22.653L397.514,225.247z"/>
		</g>
	</g>
	<g>
		<g>
			<path fill="#62A6AB" d="M251.216,167.561c-122.436,0-221.694,25.767-221.694,57.54c0,30.829,93.381,55.993,210.716,57.479
				c-112.299-1.443-201.592-24.932-201.592-53.694c0-29.69,95.172-53.763,212.57-53.763c117.403,0,212.574,24.073,212.574,53.763
				c0,28.762-89.297,52.25-201.595,53.694c117.338-1.486,210.722-26.65,210.722-57.479
				C472.917,193.328,373.655,167.561,251.216,167.561z"/>
			<path fill="#27140E" d="M262.221,284.479L262.221,284.479l-0.048-3.799c110.124-1.416,199.716-24.65,199.716-51.795
				c0-28.11-96.477-51.862-210.673-51.862c-114.195,0-210.672,23.751-210.672,51.862c0,27.145,89.592,50.379,199.718,51.795
				l-0.049,3.799c-0.008,0-0.019,0-0.019,0C119,282.941,27.621,257.417,27.621,225.101c0-33.328,98.214-59.438,223.595-59.438
				c125.382,0,223.601,26.11,223.601,59.438c0,32.316-91.384,57.84-212.571,59.377C262.236,284.479,262.229,284.479,262.221,284.479
				z M251.216,173.225c120.265,0,214.472,24.447,214.472,55.661c0,4.797-2.213,9.441-6.393,13.857
				c7.594-5.572,11.722-11.514,11.722-17.642c0-30.161-100.656-55.643-219.801-55.643c-119.14,0-219.796,25.482-219.796,55.643
				c0,6.128,4.127,12.063,11.71,17.635c-4.181-4.416-6.385-9.053-6.385-13.85C36.745,197.671,130.949,173.225,251.216,173.225z"/>
		</g>
		<g>
			<path fill="#62A6AB" d="M241.321,282.587c1.441,0.019,2.883,0.032,4.331,0.039C244.204,282.62,242.763,282.605,241.321,282.587z"
				/>
			<polygon fill="#27140E" points="245.642,284.527 241.301,284.484 241.343,280.688 245.666,280.729 			"/>
		</g>
		<g>
			<path fill="#62A6AB" d="M261.114,282.587c-1.44,0.019-2.886,0.032-4.335,0.039C258.229,282.62,259.674,282.605,261.114,282.587z"
				/>
			<polygon fill="#27140E" points="256.791,284.527 256.766,280.729 261.093,280.688 261.139,284.484 			"/>
		</g>
	</g>
	<g>
		<path fill="#B6DFCC" d="M472.432,238.883c0,27.001-99.643,48.889-222.563,48.889c-122.921,0-222.567-21.888-222.567-48.889
			c0,0-0.538-5.739,0-14.653c0.539-8.913,7.895-17.756,25.117-24.625c0,0-14.969,10.201-15.746,17.371
			c0,27.001,97.867,49.997,215.494,49.997c117.623,0,212.976-21.886,212.976-48.888c0-4.273-2.082-9.427-6.568-13.375
			c0,0,12.512,5.81,13.859,13.643C474.373,229.588,472.432,238.883,472.432,238.883z"/>
		<path fill="#27140E" d="M249.867,289.671c-125.866,0-224.469-22.312-224.469-50.788c-0.014-0.064-0.534-5.811,0.008-14.767
			c0.445-7.376,5.371-17.924,26.309-26.273c0.906-0.356,1.927,0.014,2.384,0.87c0.452,0.856,0.192,1.919-0.61,2.461
			c-5.512,3.756-14.435,11.421-14.928,16.004c0.007,11.739,22.671,23.866,62.178,33.072c41.04,9.561,94.813,14.824,151.427,14.824
			c56.752,0,110.083-5.068,150.175-14.271c38.704-8.888,60.903-20.809,60.903-32.719c0-4.216-2.218-8.685-5.927-11.952
			c-0.711-0.62-0.854-1.669-0.336-2.461s1.533-1.083,2.39-0.685c0.55,0.253,13.433,6.328,14.935,15.045
			c1.849,10.7,0.307,19.596,0.024,21.044C473.887,267.463,375.45,289.671,249.867,289.671z M38.768,209.128
			c-5.978,4.537-9.238,9.677-9.573,15.216c-0.521,8.639-0.008,14.303-0.004,14.36c0.01,12.078,23.224,24.001,63.708,32.894
			c41.903,9.202,97.653,14.274,156.969,14.274s115.062-5.072,156.97-14.274c40.48-8.893,63.697-20.814,63.697-32.715
			c0-0.129,0.011-0.261,0.04-0.385c0.017-0.093,1.836-9.11-0.016-19.821c-0.436-2.543-2.437-4.986-4.795-7.037
			c0.832,2.111,1.277,4.294,1.277,6.445c0,28.482-94.385,50.789-214.877,50.789c-119.872,0-217.393-23.281-217.393-51.898
			C35.044,214.429,36.649,211.704,38.768,209.128z"/>
	</g>
	<g>
		<path fill="#FBEEC2" d="M418.412,214.568c0,18.501-75.34,33.5-168.276,33.5c-92.935,0-168.273-14.999-168.273-33.5
			c0-18.498,75.339-33.493,168.273-33.493C343.072,181.075,418.412,196.07,418.412,214.568z"/>
		<path fill="#27140E" d="M250.136,249.966c-83.65,0-170.175-13.241-170.175-35.398c0-22.154,86.524-35.394,170.175-35.394
			c83.653,0,170.178,13.24,170.178,35.394C420.312,236.725,333.789,249.966,250.136,249.966z M250.136,182.976
			c-99.522,0-166.376,16.336-166.376,31.592c0,15.259,66.854,31.598,166.376,31.598c99.521,0,166.378-16.339,166.378-31.598
			C416.515,199.312,349.657,182.976,250.136,182.976z"/>
	</g>
	<g>
		
			<path fill="#638A3C" stroke="#27140E" stroke-width="3.7991" stroke-linecap="round" stroke-linejoin="round" stroke-miterlimit="10" d="
			M27.3,218.353"/>
	</g>
</g>
</svg>
