<?xml version="1.0" encoding="utf-8"?>
<!-- Generator: Adobe Illustrator 16.0.0, SVG Export Plug-In . SVG Version: 6.00 Build 0)  -->
<!DOCTYPE svg PUBLIC "-//W3C//DTD SVG 1.1//EN" "http://www.w3.org/Graphics/SVG/1.1/DTD/svg11.dtd">
<svg version="1.1" id="Layer_1" xmlns="http://www.w3.org/2000/svg" xmlns:xlink="http://www.w3.org/1999/xlink" x="0px" y="0px"
	 width="500px" height="500px" viewBox="0 0 500 500" enable-background="new 0 0 500 500" xml:space="preserve">
<g id="Layer_1_copy_51">
	<g>
		<g>
			<path fill="#C1E6E7" d="M396.929,51.159c0,4.792-17.396,14.944-27.021,21.617c-25.735,17.844-52.242,35.805-79.102,54.039
				c-8.922,6.063-16.144,15.905-23.582,24.568c-5.566,6.491-10.203,14.037-14.724,21.124c-6.979,10.925-13.993,21.345-21.614,32.922
				c-2.531,3.837-5.161,8.185-9.334,8.347c-3.312,0.126-7.194-2.29-7.861-5.405c-0.963-4.477,2.617-13.492,3.929-18.176
				c1.926-6.903,4.073-12.676,4.912-17.194c-3.682,0.589-6.982,2.77-10.316,4.416c-10.004,4.953-20.202,9.411-30.95,14.747
				c-5.804,2.874-13.982,6.613-20.145,10.312c-5.175,3.115-14,9.921-20.061,9.323c-5.091-0.504-10.987-9.567-13.837-13.248
				c-12.793-16.541-32.705-41.102-37.338-49.626c-4.415-8.114,0-12.083,0-12.28c9.588-13.388,33.81-0.314,44.709,4.914
				c11.362,5.45,21.941,10.568,31.439,14.737c13.409-9.794,28.988-18.688,42.745-28.983c0.399-0.298,2.322-0.843,1.467-1.969
				c-7.97-0.643-18.941-1.912-29.473-2.945c-9.148-0.897-22.817,0.292-22.603-9.336c0.125-5.306,4.261-6.497,10.319-7.858
				c33.358-7.496,72.032-15.015,104.634-22.108c1.552-0.338,5.468-3.267,7.857-4.914c13.873-9.537,30.324-21.127,44.709-30.949
				c14.336-9.789,44.645-19.652,65.975-8.125c0.447,0.242,2.155,2.062,2.575,2.823C395.606,44.364,396.929,47.503,396.929,51.159z"
				/>
		</g>
		<g>
			<path fill="#211010" d="M221.301,216.955c-4.336,0-9.668-3.027-10.719-7.914c-0.928-4.315,1.184-10.882,2.882-16.151
				c0.424-1.328,0.814-2.541,1.098-3.549c0.744-2.681,1.523-5.186,2.252-7.522c0.42-1.345,0.813-2.624,1.175-3.831
				c-0.632,0.32-1.268,0.658-1.919,1.008c-0.815,0.436-1.631,0.869-2.45,1.273c-4.884,2.418-9.7,4.662-14.801,7.043
				c-5.231,2.444-10.643,4.969-16.138,7.699c-1.38,0.68-2.878,1.409-4.461,2.17c-5.092,2.466-10.867,5.264-15.464,8.02
				c-0.955,0.579-2.043,1.283-3.213,2.046c-5.669,3.681-12.878,8.297-18.793,7.714c-5.328-0.527-9.985-6.285-14.682-12.652
				c-0.507-0.684-0.963-1.305-1.358-1.814c-2.984-3.861-6.357-8.16-9.84-12.59c-11.848-15.09-24.097-30.695-27.778-37.46
				c-3.174-5.841-3.13-11.351,0.129-15.532c0.027-0.04,0.051-0.08,0.079-0.122c3.409-4.758,8.565-7.172,15.316-7.172
				c10.64,0,22.945,6.005,31.087,9.974l5.347,2.58c9.479,4.546,18.454,8.857,26.6,12.478c5.979-4.288,12.411-8.463,18.649-12.514
				c6.106-3.967,12.387-8.041,18.361-12.294c-3.205-0.317-6.635-0.681-10.184-1.049c-3.941-0.414-8.01-0.843-12.01-1.237
				c-1.495-0.146-3.11-0.234-4.766-0.326c-8.845-0.483-20.963-1.155-20.708-12.242c0.189-8.053,7.183-9.625,12.803-10.888
				c18.853-4.238,39.557-8.509,59.573-12.646c15.891-3.279,30.896-6.378,45.08-9.466c0.827-0.273,3.819-2.38,5.264-3.397
				l1.466-1.027c6.12-4.208,12.743-8.815,19.465-13.491c8.524-5.93,17.211-11.975,25.258-17.466
				c10.118-6.909,28.032-13.877,45.259-13.877c9.085,0,17.166,1.875,24.018,5.58c1.166,0.629,3.245,3,3.846,4.075
				c2.073,3.713,3.085,7.24,3.085,10.775c0,4.952-6.901,10.03-21.551,19.66c-2.467,1.621-4.824,3.172-6.839,4.568
				c-23.729,16.451-47.57,32.634-72.802,49.769l-6.322,4.286c-6.783,4.611-12.75,11.784-18.518,18.724
				c-1.48,1.781-2.954,3.555-4.438,5.286c-4.873,5.676-9.057,12.27-13.113,18.647l-1.348,2.12
				c-4.881,7.63-9.729,14.953-14.864,22.703c-2.215,3.339-4.465,6.745-6.774,10.253l-0.396,0.6c-2.617,3.993-5.879,8.96-11.47,9.178
				H221.301z M222.532,169.822c0.848,0,1.674,0.34,2.274,0.959c0.723,0.738,1.038,1.781,0.852,2.798
				c-0.553,2.974-1.583,6.285-2.778,10.125c-0.707,2.278-1.467,4.729-2.202,7.346c-0.295,1.073-0.711,2.366-1.167,3.784
				c-1.311,4.07-3.285,10.214-2.714,12.869c0.304,1.409,2.613,2.898,4.504,2.898h0.129c2.317-0.092,4.392-3.254,6.401-6.315
				l0.4-0.609c2.315-3.509,4.569-6.917,6.787-10.266c5.119-7.726,9.956-15.026,14.808-22.616l1.336-2.104
				c4.173-6.566,8.484-13.354,13.652-19.38c1.463-1.705,2.918-3.451,4.377-5.21c6.051-7.278,12.306-14.8,19.832-19.915l6.322-4.29
				c25.225-17.123,49.045-33.3,72.749-49.733c2.053-1.423,4.458-3.004,6.968-4.654c6.256-4.109,17.894-11.764,18.709-14.551
				c-0.022-2.254-0.747-4.696-2.302-7.482c-0.221-0.338-1.11-1.319-1.52-1.687c-5.863-3.124-12.861-4.707-20.792-4.707
				c-15.867,0-32.365,6.414-41.68,12.769c-8.028,5.484-16.697,11.517-25.207,17.438c-6.734,4.682-13.365,9.294-19.487,13.51
				l-1.421,0.989c-3.428,2.414-5.803,4.026-7.565,4.411c-14.212,3.093-29.236,6.195-45.144,9.478
				c-19.992,4.129-40.663,8.397-59.468,12.624c-6.8,1.529-7.783,2.403-7.839,4.835c-0.1,4.225,4.456,5.186,14.7,5.751
				c1.751,0.096,3.458,0.189,5.032,0.346c4.024,0.394,8.102,0.824,12.059,1.239c6.411,0.671,12.47,1.308,17.367,1.706
				c0.906,0.073,1.734,0.531,2.281,1.253c0.76,1.008,1.027,2.194,0.747,3.345c-0.464,1.948-2.21,2.804-2.957,3.169
				c-7.254,5.412-15.168,10.554-22.822,15.522c-6.995,4.539-13.598,8.829-19.849,13.396c-0.915,0.665-2.113,0.801-3.149,0.341
				c-8.681-3.811-18.29-8.419-28.457-13.3l-5.388-2.597c-7.614-3.719-19.125-9.335-28.297-9.335c-4.598,0-7.891,1.447-10.073,4.413
				c-0.111,0.18-0.22,0.32-0.295,0.414c-1.671,2.124-1.527,5.02,0.428,8.609c3.426,6.297,16.052,22.382,27.194,36.577
				c3.489,4.441,6.87,8.751,9.863,12.622c0.424,0.542,0.912,1.204,1.447,1.931c2.167,2.936,7.238,9.808,10.192,10.1
				c3.88,0.387,10.155-3.757,14.704-6.717c1.242-0.805,2.39-1.555,3.408-2.165c4.838-2.905,10.754-5.767,15.969-8.292
				c1.558-0.755,3.046-1.473,4.399-2.145c5.564-2.764,11.012-5.304,16.279-7.762c5.065-2.364,9.852-4.601,14.673-6.985
				c0.76-0.377,1.52-0.777,2.278-1.185c2.758-1.469,5.607-2.989,8.944-3.521C222.2,169.836,222.365,169.822,222.532,169.822z
				 M87.167,134.994c-0.163,0.253-0.455,0.839-0.463,1.633C86.712,136.047,86.871,135.486,87.167,134.994z"/>
		</g>
	</g>
	<g>
		<g>
			<line fill="none" x1="107.883" y1="148.893" x2="142.141" y2="191.711"/>
		</g>
		<g>
			<path fill="#211010" d="M142.141,194.889c-0.936,0-1.854-0.41-2.487-1.195l-34.248-42.816c-1.095-1.371-0.875-3.374,0.495-4.467
				c1.372-1.093,3.374-0.873,4.465,0.498l34.258,42.818c1.095,1.369,0.87,3.367-0.496,4.463
				C143.535,194.659,142.84,194.889,142.141,194.889z"/>
		</g>
	</g>
	<g>
		<g>
			<path fill="#FFFFFF" d="M325.634,76.47c0,2.536-2.062,4.589-4.593,4.589l0,0c-2.533,0-4.592-2.053-4.592-4.589v-0.859
				c0-2.536,2.059-4.59,4.592-4.59l0,0c2.53,0,4.593,2.055,4.593,4.59V76.47z"/>
		</g>
		<g>
			<path fill="#211010" d="M321.041,82.12c-3.116,0-5.65-2.534-5.65-5.65v-0.859c0-3.115,2.534-5.647,5.65-5.647
				c3.115,0,5.648,2.532,5.648,5.647v0.859C326.689,79.586,324.156,82.12,321.041,82.12z M321.041,72.082
				c-1.949,0-3.528,1.583-3.528,3.529v0.859c0,1.946,1.579,3.531,3.528,3.531c1.947,0,3.53-1.585,3.53-3.531v-0.859
				C324.571,73.665,322.988,72.082,321.041,72.082z"/>
		</g>
	</g>
	<g>
		<g>
			<path fill="#FFFFFF" d="M309.744,86.508c0,2.536-2.057,4.59-4.59,4.59l0,0c-2.532,0-4.592-2.054-4.592-4.59v-0.859
				c0-2.536,2.06-4.59,4.592-4.59l0,0c2.533,0,4.59,2.054,4.59,4.59V86.508z"/>
		</g>
		<g>
			<path fill="#211010" d="M305.154,92.16c-3.117,0-5.651-2.536-5.651-5.652v-0.859c0-3.114,2.534-5.648,5.651-5.648
				c3.113,0,5.651,2.534,5.651,5.648v0.859C310.807,89.624,308.269,92.16,305.154,92.16z M305.154,82.12
				c-1.946,0-3.529,1.585-3.529,3.529v0.859c0,1.947,1.583,3.533,3.529,3.533c1.945,0,3.528-1.586,3.528-3.533v-0.859
				C308.684,83.705,307.101,82.12,305.154,82.12z"/>
		</g>
	</g>
	<g>
		<g>
			<path fill="#FFFFFF" d="M292.266,100.147c0,2.536-2.055,4.59-4.589,4.59l0,0c-2.53,0-4.593-2.054-4.593-4.59v-0.859
				c0-2.536,2.062-4.59,4.593-4.59l0,0c2.534,0,4.589,2.054,4.589,4.59V100.147z"/>
		</g>
		<g>
			<path fill="#211010" d="M287.677,105.795c-3.114,0-5.647-2.533-5.647-5.647v-0.859c0-3.115,2.533-5.651,5.647-5.651
				c3.117,0,5.651,2.536,5.651,5.651v0.859C293.328,103.262,290.794,105.795,287.677,105.795z M287.677,95.755
				c-1.946,0-3.528,1.585-3.528,3.533v0.859c0,1.944,1.582,3.529,3.528,3.529c1.95,0,3.533-1.585,3.533-3.529v-0.859
				C291.21,97.34,289.627,95.755,287.677,95.755z"/>
		</g>
	</g>
	<g>
		<g>
			<path fill="#FFFFFF" d="M276.382,110.186c0,2.536-2.055,4.59-4.588,4.59l0,0c-2.535,0-4.593-2.054-4.593-4.59v-0.859
				c0-2.536,2.058-4.589,4.593-4.589l0,0c2.533,0,4.588,2.053,4.588,4.589V110.186z"/>
		</g>
		<g>
			<path fill="#211010" d="M271.794,115.835c-3.119,0-5.651-2.534-5.651-5.65v-0.859c0-3.116,2.532-5.65,5.651-5.65
				c3.112,0,5.646,2.534,5.646,5.65v0.859C277.439,113.301,274.906,115.835,271.794,115.835z M271.794,105.795
				c-1.946,0-3.534,1.585-3.534,3.532v0.859c0,1.947,1.588,3.529,3.534,3.529s3.529-1.583,3.529-3.529v-0.859
				C275.323,107.38,273.74,105.795,271.794,105.795z"/>
		</g>
	</g>
	<g>
		<path fill="#434143" d="M408.752,417.475c0,12.823-10.395,23.218-23.217,23.218c-12.83,0-23.227-10.395-23.227-23.218
			c0-12.822,10.396-23.224,23.227-23.224C398.357,394.251,408.752,404.652,408.752,417.475z"/>
		<path fill="#27140E" d="M385.535,444.524c-14.92,0-27.054-12.132-27.054-27.05c0-14.916,12.134-27.053,27.054-27.053
			c14.912,0,27.046,12.137,27.046,27.053C412.581,432.393,400.447,444.524,385.535,444.524z M385.535,398.083
			c-10.692,0-19.394,8.698-19.394,19.392c0,10.694,8.7,19.388,19.394,19.388c10.69,0,19.388-8.693,19.388-19.388
			C404.923,406.781,396.227,398.083,385.535,398.083z"/>
	</g>
	<g>
		<path fill="#434143" d="M229.679,258.592c0,5.397-4.38,9.779-9.781,9.779h-71.29c-5.401,0-9.776-4.382-9.776-9.779l0,0
			c0-5.396,4.375-9.774,9.776-9.774h71.29C225.299,248.818,229.679,253.195,229.679,258.592L229.679,258.592z"/>
		<path fill="#27140E" d="M219.897,272.199h-71.29c-7.507,0-13.609-6.104-13.609-13.606c0-7.502,6.103-13.607,13.609-13.607h71.29
			c7.507,0,13.609,6.105,13.609,13.607C233.507,266.096,227.404,272.199,219.897,272.199z M148.607,252.648
			c-3.278,0-5.944,2.668-5.944,5.943c0,3.285,2.666,5.947,5.944,5.947h71.29c3.282,0,5.947-2.662,5.947-5.947
			c0-3.275-2.665-5.943-5.947-5.943H148.607L148.607,252.648z"/>
	</g>
	<g>
		<path fill="#434143" d="M370.022,258.592c0,5.397-4.381,9.779-9.778,9.779h-71.288c-5.403,0-9.781-4.382-9.781-9.779l0,0
			c0-5.396,4.378-9.774,9.781-9.774h71.288C365.643,248.818,370.022,253.195,370.022,258.592L370.022,258.592z"/>
		<path fill="#27140E" d="M360.244,272.199h-71.288c-7.507,0-13.608-6.104-13.608-13.606c0-7.502,6.103-13.607,13.608-13.607h71.288
			c7.501,0,13.606,6.105,13.606,13.607C373.852,266.096,367.745,272.199,360.244,272.199z M288.956,252.648
			c-3.282,0-5.947,2.668-5.947,5.943c0,3.285,2.665,5.947,5.947,5.947h71.288c3.28,0,5.946-2.662,5.946-5.947
			c0-3.275-2.666-5.943-5.946-5.943H288.956L288.956,252.648z"/>
	</g>
	<g>
		<path fill="#F15E5D" d="M89.13,419.104H37.147l2.035-157.655l415.488,0.243l-2.034,157.656l-33.933-0.244
			c0,0,1.631-35.041-36.667-35.85c-31.773,1.629-30.552,35.85-30.552,35.85h-195.14c0,0,0.411-35.238-35.237-35.238
			C88.314,385.296,89.13,419.104,89.13,419.104z"/>
		<path fill="#27140E" d="M452.637,422.541c-0.007,0-0.015,0-0.02,0l-33.938-0.246c-0.866-0.005-1.696-0.359-2.294-0.996
			c-0.6-0.631-0.91-1.477-0.871-2.344c0.01-0.125,0.46-13.527-8.385-22.947c-5.736-6.107-14.204-9.326-25.161-9.561
			c-27.973,1.441-27.333,31.279-27.294,32.555c0.028,0.861-0.292,1.696-0.896,2.319c-0.604,0.621-1.432,0.974-2.294,0.974H156.344
			c-0.856,0-1.672-0.339-2.271-0.942c-0.6-0.607-0.931-1.435-0.919-2.278c0-0.146,0-14.418-9.252-23.742
			c-5.448-5.486-13.118-8.273-22.795-8.273c-27.349,1.195-28.74,27.321-28.793,31.469c0.037,0.191,0.058,0.38,0.058,0.578
			c0,1.764-1.432,3.19-3.194,3.19c-0.016,0-0.032,0-0.049,0H37.147c-0.86,0-1.678-0.339-2.274-0.942
			c-0.6-0.613-0.936-1.437-0.919-2.287l2.039-157.658c0.02-1.743,1.446-3.151,3.189-3.151c0,0,0,0,0.003,0l415.491,0.244
			c0.854,0,1.669,0.343,2.271,0.952c0.604,0.607,0.931,1.427,0.919,2.285l-2.035,157.652
			C455.811,421.135,454.384,422.541,452.637,422.541z M421.814,415.938l27.673,0.194l1.95-151.247l-409.104-0.242l-1.953,151.269
			h45.716c0.813-9.073,5.714-33.964,34.875-35.237c0,0,0.009,0,0.013,0c11.598,0,20.799,3.438,27.494,10.202
			c8.293,8.388,10.372,19.588,10.891,25.035h189.01c0.236-3.515,1.018-9.367,3.522-15.353c3.699-8.836,11.9-19.562,29.971-20.49
			c13.002,0.267,23.007,4.177,29.965,11.627C419.672,400.079,421.438,410.643,421.814,415.938z"/>
	</g>
	<g>
		<path fill="#434143" d="M145.51,417.475c0,12.823-10.392,23.218-23.218,23.218S99.07,430.298,99.07,417.475
			c0-12.822,10.396-23.224,23.222-23.224S145.51,404.652,145.51,417.475z"/>
		<path fill="#27140E" d="M122.292,444.524c-14.92,0-27.054-12.132-27.054-27.05c0-14.916,12.134-27.053,27.054-27.053
			c14.916,0,27.05,12.137,27.05,27.053C149.342,432.393,137.208,444.524,122.292,444.524z M122.292,398.083
			c-10.691,0-19.393,8.698-19.393,19.392c0,10.694,8.701,19.388,19.393,19.388c10.688,0,19.389-8.693,19.389-19.388
			C141.681,406.781,132.979,398.083,122.292,398.083z"/>
	</g>
	<g>
		<path fill="#211010" d="M383.27,433.513c-1.061,0-1.919-0.854-1.919-1.915c0-1.056,0.858-1.913,1.919-1.913
			c8.229,0,14.918-6.695,14.918-14.921c0-1.059,0.86-1.914,1.92-1.914c1.057,0,1.91,0.855,1.91,1.914
			C402.018,425.098,393.609,433.513,383.27,433.513z"/>
	</g>
	<g>
		<g>
			<path fill="#5BC6CB" d="M233.224,337.271c0,4.215-3.446,7.662-7.661,7.662h-29.226c-4.217,0-7.662-3.447-7.662-7.662v-38.809
				c0-4.214,3.445-7.662,7.662-7.662h29.226c4.215,0,7.661,3.448,7.661,7.662V337.271z"/>
		</g>
		<g>
			<path fill="#27140E" d="M225.562,348.128h-29.226c-5.986,0-10.852-4.869-10.852-10.856v-38.809
				c0-5.984,4.865-10.854,10.852-10.854h29.226c5.987,0,10.854,4.869,10.854,10.854v38.809
				C236.417,343.259,231.55,348.128,225.562,348.128z M196.337,293.995c-2.462,0-4.469,2.007-4.469,4.469v38.81
				c0,2.465,2.007,4.469,4.469,4.469h29.226c2.466,0,4.472-2.004,4.472-4.469v-38.81c0-2.462-2.006-4.469-4.472-4.469H196.337z"/>
		</g>
	</g>
	<g>
		<g>
			<path fill="#5BC6CB" d="M309.375,337.271c0,4.215-3.444,7.662-7.658,7.662h-29.22c-4.218,0-7.666-3.447-7.666-7.662v-38.809
				c0-4.214,3.449-7.662,7.666-7.662h29.22c4.214,0,7.658,3.448,7.658,7.662V337.271z"/>
		</g>
		<g>
			<path fill="#27140E" d="M301.717,348.128h-29.22c-5.988,0-10.854-4.869-10.854-10.856v-38.809
				c0-5.984,4.866-10.854,10.854-10.854h29.22c5.983,0,10.854,4.869,10.854,10.854v38.809
				C312.569,343.259,307.7,348.128,301.717,348.128z M272.497,293.995c-2.466,0-4.474,2.007-4.474,4.469v38.81
				c0,2.465,2.008,4.469,4.474,4.469h29.22c2.462,0,4.468-2.004,4.468-4.469v-38.81c0-2.462-2.006-4.469-4.468-4.469H272.497z"/>
		</g>
	</g>
	<g>
		<g>
			<path fill="#5BC6CB" d="M385.531,337.271c0,4.215-3.45,7.662-7.662,7.662h-29.221c-4.218,0-7.662-3.447-7.662-7.662v-38.809
				c0-4.214,3.444-7.662,7.662-7.662h29.221c4.212,0,7.662,3.448,7.662,7.662V337.271z"/>
		</g>
		<g>
			<path fill="#27140E" d="M377.869,348.128h-29.221c-5.986,0-10.854-4.869-10.854-10.856v-38.809
				c0-5.984,4.868-10.854,10.854-10.854h29.221c5.982,0,10.854,4.869,10.854,10.854v38.809
				C388.725,343.259,383.853,348.128,377.869,348.128z M348.648,293.995c-2.468,0-4.471,2.007-4.471,4.469v38.81
				c0,2.465,2.003,4.469,4.471,4.469h29.221c2.462,0,4.469-2.004,4.469-4.469v-38.81c0-2.462-2.007-4.469-4.469-4.469H348.648z"/>
		</g>
	</g>
	<g>
		<g>
			<path fill="#5BC6CB" d="M157.068,337.271c0,4.215-3.444,7.662-7.658,7.662h-29.225c-4.213,0-7.665-3.447-7.665-7.662v-38.809
				c0-4.214,3.452-7.662,7.665-7.662h29.225c4.214,0,7.658,3.448,7.658,7.662V337.271z"/>
		</g>
		<g>
			<path fill="#27140E" d="M149.41,348.128h-29.225c-5.982,0-10.854-4.869-10.854-10.856v-38.809
				c0-5.984,4.872-10.854,10.854-10.854h29.225c5.983,0,10.852,4.869,10.852,10.854v38.809
				C160.262,343.259,155.394,348.128,149.41,348.128z M120.186,293.995c-2.467,0-4.473,2.007-4.473,4.469v38.81
				c0,2.465,2.006,4.469,4.473,4.469h29.225c2.461,0,4.464-2.004,4.464-4.469v-38.81c0-2.462-2.003-4.469-4.464-4.469H120.186z"/>
		</g>
	</g>
	<g>
		<path fill="#B2E1E7" d="M74.382,261.468v86.343c0,0,0,10.405-20.779,9.773l-15.72-0.291"/>
		<path fill="#27140E" d="M55.401,360.805c-0.619,0-1.256-0.015-1.895-0.033l-15.688-0.285c-1.759-0.031-3.161-1.49-3.129-3.248
			c0.03-1.764,1.511-3.127,3.253-3.133l15.719,0.285c13.51,0.394,17.366-4.185,17.53-6.674l-0.004-86.249
			c0-1.761,1.432-3.192,3.193-3.192c1.763,0,3.194,1.433,3.194,3.192v86.343c0,0.404-0.1,4.051-3.569,7.42
			C70.188,358.927,63.934,360.805,55.401,360.805z"/>
	</g>
	<g>
		<path fill="#B2E1E7" d="M416.71,261.468v86.343c0,0-0.003,10.405,20.779,9.773l15.724-0.291"/>
		<path fill="#27140E" d="M435.668,360.807c-8.515,0-14.766-1.88-18.581-5.576c-3.471-3.369-3.569-7.016-3.569-7.424v-86.339
			c0-1.761,1.431-3.192,3.192-3.192c1.767,0,3.193,1.433,3.193,3.192v86.343c0.159,2.396,3.987,6.987,17.485,6.58l15.765-0.285
			c0.02,0,0.043,0,0.06,0c1.734,0,3.157,1.391,3.193,3.133c0.031,1.758-1.375,3.217-3.139,3.248l-15.723,0.287
			C436.909,360.793,436.278,360.807,435.668,360.807z"/>
	</g>
	<g>
		<polyline fill="#B2E1E7" points="71.028,271.488 71.028,264.624 42.295,264.624 40.86,353.852 		"/>
	</g>
	<g>
		<polygon fill="#B2E1E7" points="419.691,271.789 419.691,264.921 451.007,264.921 452.573,354.152 448.057,352.257 		"/>
	</g>
	<g>
		<polygon fill="#211010" points="41.076,340.395 41.076,355.93 38.619,357.305 38.11,344.434 		"/>
	</g>
	<g>
		<polygon fill="#211010" points="451.007,264.921 451.007,360.395 453.213,362.154 453.8,264.921 		"/>
	</g>
	<g>
		<path fill="#211010" d="M120.09,433.513c-1.06,0-1.914-0.854-1.914-1.915c0-1.056,0.854-1.913,1.914-1.913
			c8.225,0,14.925-6.695,14.925-14.921c0-1.059,0.854-1.914,1.909-1.914c1.064,0,1.919,0.855,1.919,1.914
			C138.843,425.098,130.429,433.513,120.09,433.513z"/>
	</g>
</g>
</svg>
