<?xml version="1.0" encoding="utf-8"?>
<!-- Generator: Adobe Illustrator 16.0.0, SVG Export Plug-In . SVG Version: 6.00 Build 0)  -->
<!DOCTYPE svg PUBLIC "-//W3C//DTD SVG 1.1//EN" "http://www.w3.org/Graphics/SVG/1.1/DTD/svg11.dtd">
<svg version="1.1" id="Layer_1" xmlns="http://www.w3.org/2000/svg" xmlns:xlink="http://www.w3.org/1999/xlink" x="0px" y="0px"
	 width="500px" height="500px" viewBox="0 0 500 500" enable-background="new 0 0 500 500" xml:space="preserve">
<g id="Layer_1_copy_28">
	<g>
		<polygon fill="#80522A" points="459.613,375.456 31.981,375.456 130.669,106.918 354.951,106.918 		"/>
		<path fill="#27140E" d="M459.664,380.973c-0.01,0-0.027,0-0.051,0H31.981c-1.8,0-3.491-0.884-4.522-2.356
			c-1.033-1.483-1.275-3.372-0.656-5.063l98.688-268.539c0.796-2.172,2.865-3.614,5.179-3.614h224.282
			c2.271,0,4.313,1.396,5.14,3.513l104.397,267.848c0.442,0.8,0.694,1.714,0.694,2.694
			C465.184,378.5,462.716,380.973,459.664,380.973z M39.89,369.938h411.649L351.181,112.436H134.522L39.89,369.938z"/>
	</g>
</g>
</svg>
