<?xml version="1.0" encoding="utf-8"?>
<!-- Generator: Adobe Illustrator 16.0.0, SVG Export Plug-In . SVG Version: 6.00 Build 0)  -->
<!DOCTYPE svg PUBLIC "-//W3C//DTD SVG 1.1//EN" "http://www.w3.org/Graphics/SVG/1.1/DTD/svg11.dtd">
<svg version="1.1" id="Layer_1" xmlns="http://www.w3.org/2000/svg" xmlns:xlink="http://www.w3.org/1999/xlink" x="0px" y="0px"
	 width="500px" height="500px" viewBox="0 0 500 500" enable-background="new 0 0 500 500" xml:space="preserve">
<g id="Layer_1_copy_30">
	<g>
		<polygon fill="#F6851F" points="249.696,59.42 33.137,405.443 459.967,405.443 		"/>
		<path fill="#27140E" d="M459.967,412.506H33.137c-2.57,0-4.936-1.395-6.181-3.645c-1.243-2.243-1.166-4.993,0.196-7.163
			L243.71,55.673c1.289-2.064,3.55-3.316,5.986-3.316c0.014,0,0.028,0,0.044,0c2.447,0.017,4.717,1.301,5.988,3.395l210.275,346.023
			c1.321,2.179,1.371,4.902,0.119,7.127C464.872,411.128,462.522,412.506,459.967,412.506z M45.887,398.38h401.529L249.606,72.87
			L45.887,398.38z"/>
	</g>
</g>
</svg>
