<?xml version="1.0" encoding="utf-8"?>
<!-- Generator: Adobe Illustrator 16.0.0, SVG Export Plug-In . SVG Version: 6.00 Build 0)  -->
<!DOCTYPE svg PUBLIC "-//W3C//DTD SVG 1.1//EN" "http://www.w3.org/Graphics/SVG/1.1/DTD/svg11.dtd">
<svg version="1.1" id="Layer_1" xmlns="http://www.w3.org/2000/svg" xmlns:xlink="http://www.w3.org/1999/xlink" x="0px" y="0px"
	 width="500px" height="500px" viewBox="0 0 500 500" enable-background="new 0 0 500 500" xml:space="preserve">
<g id="Layer_1_copy_71">
	<g>
		<g>
			<path fill="#FFFFFF" d="M415.497,438.515c0,10.357-8.471,18.825-18.825,18.825H360.65c-10.352,0-27.294,0-37.648,0H87.639
				c-10.354,0-18.822-8.468-18.822-18.825V158.655c0-10.35,8.469-18.822,18.822-18.822h309.033c10.354,0,18.825,8.472,18.825,18.822
				v205.403c0,10.357,0,27.301,0,37.651V438.515z"/>
		</g>
		<g>
			<path fill="#27140E" d="M396.672,461.374H87.639c-12.606,0-22.856-10.258-22.856-22.858V158.656
				c0-12.602,10.25-22.855,22.856-22.855h309.033c12.604,0,22.858,10.253,22.858,22.855v279.859
				C419.53,451.116,409.274,461.374,396.672,461.374z M87.639,143.867c-8.156,0-14.788,6.637-14.788,14.789v279.859
				c0,8.158,6.632,14.792,14.788,14.792h309.033c8.155,0,14.792-6.634,14.792-14.792V158.656c0-8.152-6.637-14.789-14.792-14.789
				H87.639z"/>
		</g>
	</g>
	<g>
		<g>
			<path fill="#D95241" d="M435.986,191.53c0,10.354-8.474,18.822-18.827,18.822H64.786c-10.354,0-18.822-8.468-18.822-18.822
				V88.928c0-10.35,8.469-18.826,18.822-18.826h352.373c10.354,0,18.827,8.476,18.827,18.826V191.53z"/>
		</g>
		<g>
			<path fill="#27140E" d="M417.159,214.386H64.786c-12.605,0-22.855-10.25-22.855-22.856V88.928c0-12.603,10.25-22.86,22.855-22.86
				h352.373c12.605,0,22.859,10.258,22.859,22.86V191.53C440.02,204.136,429.766,214.386,417.159,214.386z M64.786,74.135
				c-8.155,0-14.787,6.641-14.787,14.793V191.53c0,8.156,6.632,14.789,14.787,14.789h352.373c8.16,0,14.793-6.633,14.793-14.789
				V88.928c0-8.152-6.633-14.793-14.793-14.793H64.786z"/>
		</g>
	</g>
	<g>
		<path fill="#424143" d="M154.698,129.672c0,11.048-8.643,20.01-19.3,20.01l0,0c-10.667,0-19.305-8.962-19.305-20.01v-71.07
			c0-11.056,8.638-20.018,19.305-20.018l0,0c10.657,0,19.3,8.962,19.3,20.018V129.672z"/>
		<path fill="#27140E" d="M135.398,153.715c-12.873,0-23.339-10.786-23.339-24.043v-71.07c0-13.262,10.466-24.051,23.339-24.051
			c12.864,0,23.333,10.789,23.333,24.051v71.07C158.731,142.93,148.263,153.715,135.398,153.715z M135.398,42.618
			c-8.423,0-15.271,7.169-15.271,15.984v71.07c0,8.808,6.849,15.976,15.271,15.976c8.417,0,15.267-7.168,15.267-15.976v-71.07
			C150.665,49.787,143.815,42.618,135.398,42.618z"/>
	</g>
	<g>
		<path fill="#424143" d="M364.681,129.672c0,11.048-8.643,20.01-19.305,20.01l0,0c-10.666,0-19.304-8.962-19.304-20.01v-71.07
			c0-11.056,8.638-20.018,19.304-20.018l0,0c10.662,0,19.305,8.962,19.305,20.018V129.672L364.681,129.672z"/>
		<path fill="#27140E" d="M345.376,153.715c-12.868,0-23.337-10.786-23.337-24.043v-71.07c0-13.262,10.469-24.051,23.337-24.051
			s23.338,10.789,23.338,24.051v71.07C368.714,142.93,358.244,153.715,345.376,153.715z M345.376,42.618
			c-8.422,0-15.271,7.169-15.271,15.984v71.07c0,8.808,6.849,15.976,15.271,15.976s15.271-7.168,15.271-15.976v-71.07
			C360.646,49.787,353.798,42.618,345.376,42.618z"/>
	</g>
	<g>
		<g>
			<path fill="#E5E5E5" d="M415.328,380.98v57.61c0,10.351-8.473,18.826-18.826,18.826h-56.806"/>
		</g>
		<g>
			<path fill="#2C2010" d="M396.502,461.451h-56.806c-2.229,0-4.034-1.812-4.034-4.033c0-2.229,1.805-4.033,4.034-4.033h56.806
				c8.156,0,14.792-6.641,14.792-14.793V380.98c0-2.229,1.806-4.033,4.034-4.033c2.228,0,4.033,1.804,4.033,4.033v57.61
				C419.361,451.193,409.107,461.451,396.502,461.451z"/>
		</g>
	</g>
	<g>
		<path fill="#D2D3D4" d="M415.613,381.195l-57.604,0.285c-10.351,0.055-18.6,8.562-18.321,18.91l1.551,58.138"/>
	</g>
	<g>
		<path fill="#2C2010" d="M328.436,461.451c-2.224,0-4.024-1.797-4.036-4.025c-0.009-2.222,1.797-4.033,4.021-4.041l22.853-0.077
			c0.008,0,0.008,0,0.015,0c2.223,0,4.026,1.796,4.034,4.02c0.008,2.229-1.794,4.041-4.022,4.048l-22.852,0.077
			C328.443,461.451,328.44,461.451,328.436,461.451z"/>
	</g>
	<g>
		<path fill="#1D1D1D" d="M413.989,397.199c-1.487,0-2.69-1.203-2.69-2.691v-21.664c0-1.488,1.203-2.691,2.69-2.691
			c1.484,0,2.688,1.203,2.688,2.691v21.664C416.678,395.996,415.475,397.199,413.989,397.199z"/>
	</g>
	<g>
		<path fill="#333333" d="M199.079,271.118v14.276h-24.116v66.34h-16.956v-66.34h-24.229v-14.276H199.079z"/>
		<path fill="#333333" d="M208.928,271.118h17.118v49.515c0,5.536,0.652,9.578,1.962,12.131c2.032,4.521,6.464,6.779,13.297,6.779
			c6.791,0,11.206-2.26,13.241-6.779c1.31-2.553,1.964-6.595,1.964-12.131v-49.515h17.117v49.553c0,8.567-1.33,15.24-3.986,20.021
			c-4.947,8.744-14.396,13.125-28.335,13.125c-13.943,0-23.407-4.381-28.394-13.125c-2.657-4.78-3.983-11.453-3.983-20.021V271.118z
			"/>
		<path fill="#333333" d="M349.433,285.395h-42.656v17.121h39.159v13.998h-39.159v20.73h44.628v14.49h-61.094v-80.617h59.122
			V285.395L349.433,285.395z"/>
	</g>
</g>
</svg>
