<?xml version="1.0" encoding="utf-8"?>
<!-- Generator: Adobe Illustrator 16.0.0, SVG Export Plug-In . SVG Version: 6.00 Build 0)  -->
<!DOCTYPE svg PUBLIC "-//W3C//DTD SVG 1.1//EN" "http://www.w3.org/Graphics/SVG/1.1/DTD/svg11.dtd">
<svg version="1.1" id="Layer_1" xmlns="http://www.w3.org/2000/svg" xmlns:xlink="http://www.w3.org/1999/xlink" x="0px" y="0px"
	 width="500px" height="500px" viewBox="0 0 500 500" enable-background="new 0 0 500 500" xml:space="preserve">
<g id="Layer_1_copy_23">
	<g>
		<g>
			<path fill="#FCC394" d="M209.219,263.689c0,0,1.597,17.153-9.258,22.602c-10.861,5.445-17.259,72.049-17.259,72.049
				l130.671,20.256l-14.251-73.088l-15.663-22.424c0,0-5.175-7.211-2.261-19.395C284.114,251.501,209.12,253.898,209.219,263.689z"
				/>
		</g>
		<g>
			<path fill="#291911" d="M317.339,382.41L179.27,361.007l0.287-2.969c1.54-16.035,7.456-68.793,18.985-74.576
				c8.774-4.399,7.543-19.334,7.526-19.485l-0.012-0.256c-0.012-1.017,0.282-2.533,1.75-4.018c5.817-5.876,28.78-7.444,41.427-7.444
				c10.591,0,29.066,0.904,33.854,6.966c1.199,1.526,1.624,3.375,1.188,5.198c-2.508,10.479,1.596,16.58,1.769,16.836l16.052,22.99
				l0.13,0.653L317.339,382.41z M186.149,355.671l123.261,19.108l-13.266-68.008l-15.278-21.881
				c-0.222-0.311-5.916-8.445-2.777-21.799c-1.126-1.541-9.345-4.507-28.855-4.507c-19.833,0-34.46,3.103-36.821,5.44
				c0.199,3.42,0.463,19.322-11.034,25.09C195.819,291.906,189.276,325.234,186.149,355.671z"/>
		</g>
	</g>
	<g>
		<g>
			<path fill="#FCC394" d="M328.628,160.049c-0.929,0-1.823,0.228-2.687,0.569c-7.387-43.042-39.991-75.481-79.122-75.481
				c-40.151,0-73.36,34.189-79.562,78.917c-1.487-1.125-3.12-1.809-4.87-1.809c-6.296,0-11.398,8.195-11.398,18.304
				c0,10.108,5.103,18.303,11.398,18.303c1.884,0,3.637-0.804,5.203-2.106c7.088,43.475,39.838,76.361,79.229,76.361
				c39.562,0,72.409-33.177,79.31-76.922c0.805,0.29,1.636,0.466,2.498,0.466c6.296,0,11.399-8.19,11.399-18.299
				C340.027,168.247,334.924,160.049,328.628,160.049z"/>
		</g>
		<g>
			<path fill="#291911" d="M246.82,276.27c-38.971,0-72.674-31.146-81.554-74.676c-0.942,0.282-1.9,0.42-2.878,0.42
				c-8.166,0-14.563-9.43-14.563-21.465c0-12.039,6.397-21.469,14.563-21.469c0.813,0,1.613,0.098,2.406,0.293
				c7.998-45.106,41.922-77.399,82.025-77.399c38.947,0,72.834,31.312,81.639,74.917c0.06-0.004,0.113-0.004,0.169-0.004
				c8.168,0,14.562,9.43,14.562,21.465c0,11.996-6.353,21.398-14.477,21.461C320.394,244.307,286.389,276.27,246.82,276.27z
				 M169.819,190.767l0.891,5.468c6.967,42.71,38.972,73.707,76.11,73.707c37.356,0,69.396-31.225,76.183-74.25l0.597-3.782
				l3.602,1.298c0.525,0.188,0.993,0.283,1.428,0.283c3.899,0,8.237-6.217,8.237-15.138c0-8.92-4.338-15.137-8.237-15.137
				c-0.432,0-0.935,0.11-1.533,0.348l-3.612,1.409l-0.658-3.821C315.582,118.938,283.616,88.3,246.82,88.3
				c-38.162,0-70.305,32.042-76.433,76.189l-0.74,5.358l-4.308-3.275c-1.016-0.773-2.009-1.165-2.951-1.165
				c-3.893,0-8.232,6.217-8.232,15.141c0,8.92,4.34,15.142,8.232,15.142c1.018,0,2.083-0.463,3.175-1.374L169.819,190.767z"/>
		</g>
	</g>
	<g>
		<path fill="#110D0A" d="M217.771,174.806c0,6.136-3.979,11.109-8.877,11.109c-4.903,0-8.877-4.974-8.877-11.109
			c0-6.135,3.974-11.105,8.877-11.105C213.792,163.701,217.771,168.67,217.771,174.806z"/>
	</g>
	<g>
		<path fill="#FFFFFA" d="M210.729,174.81c0,2.133-1.604,3.863-3.582,3.863c-1.981,0-3.585-1.73-3.585-3.863
			c0-2.138,1.604-3.868,3.585-3.868C209.125,170.942,210.729,172.672,210.729,174.81z"/>
	</g>
	<g>
		<path fill="#110D0A" d="M290.128,174.806c0,6.136-3.976,11.109-8.882,11.109c-4.898,0-8.876-4.974-8.876-11.109
			c0-6.135,3.978-11.105,8.876-11.105C286.152,163.701,290.128,168.67,290.128,174.806z"/>
	</g>
	<g>
		<path fill="#FFFFFA" d="M283.087,174.81c0,2.133-1.608,3.863-3.586,3.863s-3.577-1.73-3.577-3.863
			c0-2.138,1.602-3.868,3.577-3.868C281.479,170.942,283.087,172.672,283.087,174.81z"/>
	</g>
	<g>
		<path fill="#844A1F" d="M238.349,195.055c0,0,11.706,1.742,13.317-4.793c1.611-6.535,0-19.319,0-19.319s7.261,9.74,3.632,21.5
			C251.666,204.202,232.763,194.957,238.349,195.055z"/>
	</g>
	<g opacity="0.7">
		<g>
			<path fill="#F9A780" d="M210.729,199.193c0,3.974-5.014,7.19-11.207,7.19c-6.19,0-11.208-3.216-11.208-7.19
				c0-3.97,5.018-7.186,11.208-7.186C205.716,192.007,210.729,195.223,210.729,199.193z"/>
		</g>
	</g>
	<g opacity="0.7">
		<g>
			<path fill="#F9A780" d="M307.667,198.417c0,3.974-5.022,7.19-11.213,7.19c-6.193,0-11.207-3.216-11.207-7.19
				c0-3.97,5.014-7.187,11.207-7.187C302.645,191.23,307.667,194.446,307.667,198.417z"/>
		</g>
	</g>
	<g>
		<path fill="#FFFFFD" d="M223.713,226.726c0,0,5.253,20.472,23.811,19.602c18.559-0.872,25.548-19.602,25.548-19.602
			s-8.197,9.815-25.548,9.815C229.698,236.541,223.713,226.726,223.713,226.726z"/>
	</g>
	<g>
		<path fill="#301C10" d="M196.157,162.065c0,0,4.036-5.665,11.704-5.014c7.665,0.656,8.477,2.181,8.873-1.961
			c0.404-4.138-3.229-5.005-8.873-4.35C202.209,151.392,191.319,163.38,196.157,162.065z"/>
	</g>
	<g>
		<path fill="#301C10" d="M294.943,162.065c0,0-4.031-5.665-11.7-5.014c-7.668,0.656-8.478,2.181-8.88-1.961
			c-0.401-4.138,3.23-5.005,8.88-4.35C288.891,151.392,299.781,163.38,294.943,162.065z"/>
	</g>
	<g>
		<path fill="#841F19" d="M197.263,287.607c0,0,16.165,35.01,44.841,35.01c41.882-3.262,47.023-35.01,47.023-35.01
			s79.355,4.879,91.111,35.01c11.757,30.121,52.168,111.744,0,114.896H115.707c0,0-65.395,13.742-7.353-116.526
			C131.954,277.568,197.263,287.607,197.263,287.607z"/>
		<path fill="#291911" d="M110.749,441.093c-5.92,0-16.864-1.567-23.693-12.088c-11.918-18.362-5.723-55.135,18.413-109.31
			l0.109-0.223c17.043-31.354,54.607-36.033,75.479-36.033c9.807,0,16.409,0.996,16.687,1.039l1.671,0.254l0.719,1.543
			c0.152,0.328,15.64,33.072,41.846,33.175c38.848-3.082,43.978-32.062,44.026-32.354l0.457-2.828l2.855,0.178
			c3.326,0.207,81.518,5.373,93.869,37.021c1.256,3.222,2.845,7.039,4.612,11.285c12.157,29.222,30.531,73.381,16.767,95.428
			c-4.75,7.605-12.87,11.812-24.136,12.49L116,440.675C115.229,440.814,113.321,441.093,110.749,441.093z M111.195,322.389
			c-28.854,64.793-26.172,91.872-18.832,103.174c4.938,7.606,12.724,9.204,18.386,9.204c2.557,0,4.298-0.346,4.313-0.348
			l0.645-0.066h264.531c9.042-0.553,15.308-3.668,18.962-9.524c12.035-19.275-6.291-63.328-17.24-89.648
			c-1.789-4.295-3.396-8.154-4.667-11.418c-4.409-11.307-20.919-20.598-47.739-26.871c-16.345-3.826-31.958-5.416-37.993-5.93
			c-0.97,3.289-3.154,8.992-7.744,14.873c-6.344,8.113-18.688,18.16-41.47,19.932l-0.242,0.008c-27.06,0-43.241-28.094-46.924-35.25
			c-2.46-0.285-7.567-0.76-14.122-0.76C161.617,289.764,126.706,294.003,111.195,322.389z"/>
	</g>
	<g>
		<path fill="#32150F" d="M217.158,248.332c3.82,7.725,10.901,10.712,18.44,12.766c1.899,0.514,5.213,0.344,6.045-0.828
			c1.125-1.57,0.474-4.405,0.059-6.804c1.185-2.616,3.594-3.71,6.649-2.905c2.176,0.571,3.383,1.687,2.247,4.326
			c-2.005,4.651,0.205,7.488,5.379,6.856c6.473-0.792,12.459-2.707,16.767-8.14c1.639-2.067,3.606-3.868,5.428-5.793
			c0.513,0.086,1.021,0.161,1.529,0.243c0,3.903,0.616,7.932-0.12,11.694c-1.797,9.153-6.27,16.922-15.104,20.907
			c-5.942,2.675-12.438,4.562-19.054,3.103c-6.683-1.471-13.609-2.875-19.655-5.871c-3.609-1.784-7.089-6.179-8.221-10.094
			c-1.74-6.041-1.405-12.674-1.959-19.06C216.111,248.595,216.636,248.466,217.158,248.332z"/>
	</g>
	<g>
		<g>
			<path fill="#32150F" d="M211.321,44.312c2.676,0.538,5.408,0.883,8.018,1.65c9.045,2.666,18.339,4.783,26.977,8.426
				c8.717,3.685,17.84,2.818,26.717,4.259c12.322,2.019,23.79,5.465,33.951,12.894c2.251,1.646,5.981,1.843,7.454,3.862
				c3.312,4.509,7.572,9.581,7.988,14.712c1.138,13.786,5.527,26.761,7.919,40.178c2.322,13.119,1.893,26.338-3.148,39.016
				c-2.378,5.99-4.849,11.952-7.769,19.119c-0.324-2.251-0.606-3.35-0.631-4.452c-0.181-8.739-0.467-17.479-0.424-26.211
				c0.086-14.553-4.104-27.825-14.204-38.134c-4.169-4.254-11.133-6.471-17.223-7.951c-6.661-1.628-12.067,1.667-14.903,8.312
				c-0.122,0.292-0.541,0.53-0.871,0.659c-9.223,3.528-18.315,6.583-28.638,4.421c-13.279-2.773-24.82-8.74-35.96-16.138
				c-2.056-1.367-6.159-0.811-8.857,0.149c-11.64,4.132-16.729,14.361-19.288,24.985c-1.863,7.747,0.122,16.354-0.063,24.571
				c-0.263,12.286-0.917,24.571-1.411,36.857c-0.848,0.051-1.693,0.103-2.55,0.153c-1.452-7.493-2.804-15.008-4.396-22.469
				c-0.942-4.44-2.417-8.763-3.362-13.204c-1.507-7.044-3.542-14.094-3.978-21.221c-1.111-17.974,0.436-35.376,9.501-51.897
				c2.513-4.57,4.1-10.581,6.052-15.954c1.023-2.824-0.204-6.543,0.988-9.222c5.226-11.709,15.676-16.387,31.197-14.317
				c-0.07-1.071-0.133-2.063-0.199-3.054C210.576,44.312,210.952,44.312,211.321,44.312z"/>
		</g>
		<g>
			<path fill="#291911" d="M317.954,200.429l-1.654-11.552c-0.119-0.812-0.23-1.471-0.325-2.028
				c-0.177-1.052-0.322-1.883-0.343-2.801l-0.141-6.37c-0.153-6.523-0.31-13.271-0.278-19.927
				c0.086-14.729-4.39-26.81-13.299-35.906c-3.777-3.848-10.778-5.89-15.719-7.09c-0.872-0.214-1.721-0.321-2.532-0.321
				c-4.797,0-7.388,3.698-8.705,6.801c-0.563,1.318-1.737,2.012-2.624,2.362c-7.398,2.83-14.686,5.36-22.811,5.36
				c-2.569,0-5.138-0.265-7.637-0.787c-12.172-2.544-23.606-7.663-37.062-16.601c-0.021-0.012-0.451-0.291-1.737-0.291
				c-1.298,0-2.949,0.303-4.307,0.787c-8.811,3.124-14.3,10.352-17.275,22.744c-1.076,4.474-0.723,9.396-0.35,14.614
				c0.22,3.032,0.443,6.175,0.373,9.285c-0.188,8.701-0.577,17.523-0.95,26.059c-0.16,3.62-0.32,7.241-0.463,10.858l-0.117,2.855
				l-8.168,0.502l-0.533-2.726c-0.432-2.236-0.854-4.472-1.278-6.703c-0.98-5.167-1.992-10.505-3.103-15.711
				c-0.456-2.126-1.028-4.209-1.637-6.414c-0.606-2.201-1.23-4.479-1.725-6.794c-0.365-1.709-0.765-3.424-1.167-5.138
				c-1.246-5.362-2.532-10.905-2.878-16.546c-1.361-22.133,1.687-38.667,9.889-53.611c1.644-2.993,2.935-6.876,4.182-10.634
				c0.546-1.645,1.092-3.289,1.667-4.875c0.295-0.811,0.271-2.045,0.248-3.352c-0.039-1.899-0.078-4.048,0.827-6.079
				c5.343-11.976,15.585-17.559,30.687-16.553l-0.173-2.695l5.108,0.062c0.814,0.163,1.631,0.309,2.451,0.456
				c1.911,0.335,3.876,0.684,5.833,1.261c2.389,0.702,4.79,1.367,7.194,2.031c6.681,1.848,13.588,3.761,20.115,6.516
				c5.304,2.24,10.839,2.65,16.689,3.085c3.041,0.224,6.188,0.459,9.312,0.967c15.061,2.467,25.945,6.617,35.309,13.458
				c0.594,0.438,1.62,0.802,2.616,1.154c1.927,0.684,4.107,1.459,5.522,3.398l1.196,1.603c3.26,4.354,6.95,9.291,7.395,14.72
				c0.683,8.32,2.648,16.579,4.546,24.568c1.185,4.983,2.408,10.135,3.33,15.308c2.636,14.873,1.518,28.579-3.321,40.743
				c-1.663,4.197-3.373,8.375-5.249,12.957L317.954,200.429z M203.646,50.054c-10.62,0-17.665,4.227-21.544,12.919
				c-0.329,0.744-0.306,2.084-0.282,3.381c0.03,1.742,0.066,3.717-0.625,5.631c-0.556,1.534-1.085,3.121-1.611,4.711
				c-1.338,4.026-2.718,8.19-4.641,11.688c-7.59,13.832-10.407,29.308-9.116,50.181c0.31,5.107,1.483,10.156,2.722,15.499
				c0.408,1.753,0.82,3.502,1.193,5.252c0.45,2.133,1.027,4.221,1.64,6.429c0.604,2.196,1.231,4.467,1.722,6.781
				c0.479,2.241,0.938,4.503,1.381,6.759c0.298-6.857,0.572-13.835,0.722-20.715c0.063-2.82-0.14-5.676-0.356-8.697
				c-0.392-5.468-0.796-11.117,0.51-16.544c3.476-14.465,10.441-23.371,21.304-27.225c2.047-0.729,4.393-1.149,6.426-1.149
				c2.13,0,3.896,0.453,5.24,1.346c12.749,8.471,23.505,13.305,34.853,15.676c2.106,0.442,4.183,0.656,6.343,0.656
				c6.866,0,13.385-2.216,19.999-4.735c3.595-7.584,10.504-11.166,18.175-9.292c6.169,1.501,13.878,3.861,18.732,8.811
				c10.12,10.331,15.2,23.912,15.111,40.364c-0.029,5.511,0.077,11.125,0.203,16.62c0.859-2.118,1.689-4.185,2.511-6.256
				c4.459-11.215,5.434-23.415,2.978-37.301c-0.891-4.994-2.096-10.056-3.26-14.953c-1.949-8.218-3.972-16.716-4.695-25.515
				c-0.293-3.615-3.409-7.774-6.157-11.444l-1.229-1.657c-0.273-0.37-1.693-0.874-2.542-1.175c-1.353-0.48-2.89-1.026-4.231-2.006
				c-8.517-6.225-18.566-10.026-32.593-12.323c-2.852-0.464-5.719-0.677-8.76-0.902c-6.107-0.453-12.424-0.921-18.684-3.565
				c-6.148-2.595-12.854-4.453-19.347-6.247c-2.436-0.673-4.872-1.347-7.288-2.059c-1.526-0.449-3.134-0.746-4.833-1.048l0.196,3.06
				l-3.821-0.508C207.763,50.205,205.63,50.054,203.646,50.054z"/>
		</g>
	</g>
	<g>
		<path fill="#32150F" d="M196.345,214.609c18.495,0.882,33.688-13.632,50.05-1.918c16.446-11.156,31.244,1.918,48.558,2.514
			c-10.854,10.587-22.764,13.69-34.869,10.082c-9.868-2.942-18.243-2.467-28.011,0.122
			C219.661,228.715,207.763,225.33,196.345,214.609z"/>
	</g>
	<g>
		<g>
			<defs>
				<path id="SVGID_1_" d="M194.627,287.607c0,0,16.165,35.01,44.835,35.01c41.89-3.262,47.029-35.01,47.029-35.01
					s79.354,4.879,91.11,35.01c11.758,30.121,52.168,111.748,0,114.901H113.066c0,0-65.396,13.736-7.348-116.532
					C129.322,277.568,194.627,287.607,194.627,287.607z"/>
			</defs>
			<clipPath id="SVGID_2_">
				<use xlink:href="#SVGID_1_"  overflow="visible"/>
			</clipPath>
			<g clip-path="url(#SVGID_2_)">
				<g>
					<rect x="123.141" y="288.621" fill="#AB493A" width="8.782" height="157.43"/>
				</g>
				<g>
					<rect x="159.314" y="285.457" fill="#AB493A" width="8.784" height="157.432"/>
				</g>
				<g>
					<rect x="195.484" y="285.457" fill="#AB493A" width="8.784" height="157.432"/>
				</g>
				<g>
					<rect x="231.656" y="297.582" fill="#AB493A" width="8.786" height="157.428"/>
				</g>
				<g>
					<rect x="267.83" y="297.582" fill="#AB493A" width="8.788" height="157.428"/>
				</g>
				<g>
					<rect x="304.002" y="283.555" fill="#AB493A" width="8.786" height="157.432"/>
				</g>
				<g>
					<rect x="340.174" y="285.457" fill="#AB493A" width="8.786" height="157.432"/>
				</g>
				<g>
					<rect x="376.348" y="291.783" fill="#AB493A" width="8.787" height="157.432"/>
				</g>
				<g>
					<rect x="86.965" y="304.964" fill="#AB493A" width="8.788" height="157.426"/>
				</g>
			</g>
		</g>
	</g>
	<g>
		<path fill="#291911" d="M111.102,441.095c-5.919,0-16.868-1.569-23.692-12.086c-11.926-18.36-5.728-55.139,18.413-109.307
			l0.105-0.228c17.043-31.354,54.606-36.035,75.482-36.035c9.808,0,16.409,0.996,16.684,1.039l1.676,0.261l0.713,1.536
			c0.153,0.332,15.636,33.074,41.847,33.179c38.846-3.086,43.98-32.062,44.029-32.354l0.455-2.828l2.858,0.174
			c3.322,0.21,81.513,5.371,93.864,37.021c1.255,3.226,2.845,7.041,4.613,11.291c12.156,29.218,30.528,73.38,16.766,95.422
			c-4.75,7.609-12.87,11.814-24.137,12.49l-264.434,0.012C115.577,440.816,113.675,441.095,111.102,441.095z M111.541,322.389
			c-28.852,64.793-26.164,91.872-18.829,103.176c4.942,7.61,12.725,9.202,18.39,9.202c2.557,0,4.292-0.346,4.312-0.348l0.64-0.066
			h264.534c9.043-0.551,15.312-3.668,18.963-9.521c12.035-19.279-6.293-63.326-17.24-89.65c-1.788-4.297-3.393-8.156-4.667-11.418
			c-4.408-11.305-20.915-20.598-47.738-26.873c-16.347-3.824-31.959-5.414-37.994-5.928c-0.97,3.293-3.149,8.996-7.744,14.871
			c-6.343,8.115-18.685,18.162-41.47,19.932l-0.244,0.015c-27.059,0-43.239-28.097-46.922-35.25
			c-2.46-0.285-7.564-0.763-14.119-0.763C161.963,289.768,127.055,294.009,111.541,322.389z"/>
	</g>
</g>
</svg>
