<?xml version="1.0" encoding="utf-8"?>
<!-- Generator: Adobe Illustrator 16.0.0, SVG Export Plug-In . SVG Version: 6.00 Build 0)  -->
<!DOCTYPE svg PUBLIC "-//W3C//DTD SVG 1.1//EN" "http://www.w3.org/Graphics/SVG/1.1/DTD/svg11.dtd">
<svg version="1.1" id="Layer_1" xmlns="http://www.w3.org/2000/svg" xmlns:xlink="http://www.w3.org/1999/xlink" x="0px" y="0px"
	 width="500px" height="500px" viewBox="0 0 500 500" enable-background="new 0 0 500 500" xml:space="preserve">
<g id="Layer_1_copy_2">
	<g>
		<g>
			<path fill="#FCC394" d="M204.672,275.52c0,0,1.729,18.617-10.045,24.524c-11.783,5.908-18.728,78.185-18.728,78.185
				l141.796,21.977l-15.463-79.303l-17.002-24.34c0,0-5.612-7.822-2.449-21.043C285.941,262.297,204.57,264.895,204.672,275.52z"/>
		</g>
		<g>
			<path fill="#291911" d="M321.999,404.343l-149.825-23.221l0.313-3.228c1.666-17.395,8.089-74.646,20.602-80.918
				c9.52-4.778,8.179-20.983,8.168-21.145l-0.017-0.283c-0.013-1.097,0.311-2.749,1.897-4.354c6.312-6.377,31.233-8.08,44.958-8.08
				c11.489,0,31.542,0.984,36.732,7.562c1.307,1.654,1.767,3.659,1.295,5.637c-2.72,11.377,1.726,17.992,1.913,18.271l17.421,24.942
				l0.141,0.712L321.999,404.343z M179.638,375.333l133.755,20.733L299,322.271l-16.58-23.744
				c-0.244-0.332-6.419-9.168-3.013-23.654c-1.226-1.676-10.138-4.887-31.312-4.887c-21.524,0-37.399,3.361-39.96,5.897
				c0.216,3.716,0.502,20.974-11.972,27.229C190.131,306.134,183.035,342.309,179.638,375.333z"/>
		</g>
	</g>
	<g>
		<g>
			<path fill="#FCC394" d="M334.248,163.058c-1.007,0-1.979,0.247-2.921,0.616c-8.01-46.706-43.39-81.907-85.848-81.907
				c-43.576,0-79.61,37.102-86.338,85.641c-1.611-1.228-3.385-1.969-5.287-1.969c-6.825,0-12.368,8.896-12.368,19.864
				c0,10.968,5.543,19.856,12.368,19.856c2.044,0,3.949-0.868,5.646-2.284c7.696,47.174,43.234,82.861,85.979,82.861
				c42.923,0,78.57-35.997,86.057-83.468c0.874,0.313,1.776,0.509,2.712,0.509c6.831,0,12.373-8.892,12.373-19.86
				C346.621,171.954,341.079,163.058,334.248,163.058z"/>
		</g>
		<g>
			<path fill="#291911" d="M245.479,289.171c-42.289,0-78.865-33.798-88.507-81.035c-1.016,0.306-2.06,0.458-3.118,0.458
				c-8.861,0-15.801-10.234-15.801-23.292c0-13.066,6.939-23.297,15.801-23.297c0.883,0,1.754,0.106,2.617,0.322
				c8.672-48.947,45.481-83.992,89.008-83.992c42.255,0,79.025,33.978,88.585,81.293c0.062,0,0.121-0.004,0.184-0.004
				c8.863,0,15.801,10.234,15.801,23.292c0,13.016-6.892,23.223-15.709,23.29C325.31,254.486,288.412,289.171,245.479,289.171z
				 M161.915,196.388l0.97,5.935c7.559,46.342,42.298,79.983,82.595,79.983c40.54,0,75.303-33.885,82.667-80.572l0.644-4.103
				l3.908,1.404c0.571,0.208,1.082,0.31,1.551,0.31c4.226,0,8.941-6.746,8.941-16.428c0-9.681-4.717-16.427-8.941-16.427
				c-0.469,0-1.019,0.122-1.669,0.38l-3.921,1.53l-0.713-4.15C320.089,118.446,285.408,85.2,245.48,85.2
				c-41.415,0-76.296,34.772-82.938,82.676l-0.807,5.813l-4.668-3.55c-1.106-0.839-2.186-1.266-3.213-1.266
				c-4.229,0-8.935,6.746-8.935,16.432c0,9.681,4.706,16.428,8.935,16.428c1.102,0,2.263-0.502,3.444-1.487L161.915,196.388z"/>
		</g>
	</g>
	<g>
		<path fill="#110D0A" d="M213.954,179.069c0,6.658-4.315,12.055-9.639,12.055c-5.319,0-9.633-5.397-9.633-12.055
			c0-6.656,4.313-12.049,9.633-12.049C209.639,167.02,213.954,172.413,213.954,179.069z"/>
	</g>
	<g>
		<path fill="#FFFFFA" d="M206.312,179.078c0,2.314-1.738,4.189-3.888,4.189c-2.146,0-3.888-1.875-3.888-4.189
			c0-2.322,1.742-4.201,3.888-4.201C204.574,174.876,206.312,176.755,206.312,179.078z"/>
	</g>
	<g>
		<ellipse fill="#110D0A" cx="282.833" cy="179.069" rx="9.636" ry="12.055"/>
	</g>
	<g>
		<path fill="#FFFFFA" d="M284.828,179.078c0,2.314-1.741,4.189-3.889,4.189c-2.149,0-3.887-1.875-3.887-4.189
			c0-2.322,1.736-4.201,3.887-4.201C283.087,174.876,284.828,176.755,284.828,179.078z"/>
	</g>
	<g>
		<path fill="#844A1F" d="M236.281,201.044c0,0,12.701,1.887,14.445-5.205c1.754-7.088,0-20.963,0-20.963s7.887,10.572,3.942,23.332
			C250.729,210.969,230.218,200.938,236.281,201.044z"/>
	</g>
	<g opacity="0.7">
		<g>
			<path fill="#F9A780" d="M206.32,205.536c0,4.307-5.452,7.798-12.169,7.798c-6.716,0-12.165-3.491-12.165-7.798
				c0-4.307,5.449-7.798,12.165-7.798C200.868,197.738,206.32,201.229,206.32,205.536z"/>
		</g>
	</g>
	<g opacity="0.7">
		<g>
			<path fill="#F9A780" d="M311.498,204.693c0,4.311-5.449,7.797-12.164,7.797c-6.716,0-12.164-3.487-12.164-7.797
				c0-4.307,5.448-7.798,12.164-7.798C306.049,196.895,311.498,200.386,311.498,204.693z"/>
		</g>
	</g>
	<g>
		<path fill="#FFFFFD" d="M220.406,235.411c0,0,5.691,22.217,25.835,21.269c20.134-0.945,27.721-21.269,27.721-21.269
			s-8.896,10.649-27.721,10.649C226.898,246.061,220.406,235.411,220.406,235.411z"/>
	</g>
	<g>
		<path fill="#301C10" d="M190.496,165.246c0,0,4.386-6.15,12.701-5.44c8.32,0.709,9.199,2.365,9.634-2.126
			c0.436-4.491-3.502-5.437-9.634-4.723C197.074,153.663,185.247,166.67,190.496,165.246z"/>
	</g>
	<g>
		<path fill="#301C10" d="M297.694,165.246c0,0-4.374-6.15-12.696-5.44c-8.321,0.709-9.196,2.365-9.632-2.126
			c-0.437-4.491,3.503-5.437,9.632-4.723C291.132,153.663,302.951,166.67,297.694,165.246z"/>
	</g>
	<g>
		<path fill="#EC6124" d="M193.345,294.889c0,0,17.541,37.983,48.655,37.983c45.452-3.535,51.029-37.983,51.029-37.983
			s86.109,5.293,98.867,37.983c12.756,32.688,56.607,121.264,0,124.684H104.845c0,0-70.957,14.908-7.974-126.448
			C122.48,283.994,193.345,294.889,193.345,294.889z"/>
		<path fill="#291911" d="M99.467,461.438c-6.422,0-18.299-1.703-25.71-13.111c-12.933-19.928-6.213-59.836,19.979-118.619
			l0.122-0.242c18.496-34.021,59.255-39.102,81.905-39.102c10.642,0,17.805,1.084,18.106,1.125l1.816,0.285l0.776,1.67
			c0.164,0.356,16.97,35.889,45.405,35.998c42.155-3.342,47.723-34.791,47.778-35.105l0.494-3.068l3.098,0.189
			c3.608,0.225,88.457,5.83,101.859,40.17c1.36,3.5,3.087,7.641,5.006,12.246c13.191,31.711,33.127,79.629,18.192,103.555
			c-5.154,8.252-13.964,12.814-26.19,13.554l-286.938,0.006C104.327,461.138,102.265,461.438,99.467,461.438z M99.949,332.626
			c-31.311,70.312-28.393,99.697-20.433,111.955c5.361,8.264,13.809,9.996,19.95,9.996c2.777,0,4.665-0.381,4.68-0.381l0.698-0.074
			h287.052c9.812-0.601,16.612-3.982,20.577-10.332c13.061-20.92-6.829-68.722-18.711-97.283c-1.938-4.657-3.684-8.85-5.063-12.385
			c-4.784-12.271-22.696-22.353-51.803-29.164c-17.733-4.147-34.677-5.875-41.23-6.433c-1.047,3.568-3.416,9.761-8.4,16.14
			c-6.882,8.805-20.277,19.705-44.999,21.627L242,336.307c-29.357,0-46.918-30.488-50.916-38.255
			c-2.667-0.311-8.21-0.827-15.321-0.827C154.663,297.225,116.785,301.828,99.949,332.626z"/>
	</g>
	<g>
		<line fill="none" x1="391.896" y1="457.556" x2="104.845" y2="457.556"/>
		<rect x="104.845" y="454.123" fill="#291911" width="287.052" height="6.863"/>
	</g>
	<g>
		<path fill="#A93823" d="M193.345,294.889c0,0,17.541,37.983,48.655,37.983c45.452-3.535,51.029-37.983,51.029-37.983l22.474,2.53
			c0,0-19.935,62.211-82.184,57.324c-54.623-4.293-59.196-60.947-59.196-60.947L193.345,294.889z"/>
		<path fill="#291911" d="M240.191,358.451c-2.337,0-4.737-0.1-7.138-0.287c-56.883-4.465-62.305-63.496-62.354-64.09l-0.318-3.926
			l25.214,1.424l0.867,1.871c0.164,0.356,16.97,35.889,45.405,35.998c41.925-3.324,47.559-33.818,47.777-35.119l0.541-3.201
			l29.86,3.357l-1.276,3.99c-0.19,0.6-19.903,59.977-78.569,59.981L240.191,358.451L240.191,358.451z M178.069,297.457
			c2.126,12.557,12.109,50.455,55.521,53.863c2.224,0.172,4.443,0.264,6.601,0.264h0.009c45.707-0.004,65.308-38.504,70.548-51.25
			l-15.148-1.705c-2.797,9.09-14.108,34.617-53.333,37.664L242,336.307c-29.181,0-46.706-30.119-50.841-38.109L178.069,297.457z"/>
	</g>
	<g>
		<g>
			<path fill="#562010" d="M165.54,209.977c-1.514-7.422-3.111-14.832-4.53-22.276c-2.5-13.036-7.807-25.501-7.315-39.141
				c0.317-9.026-0.412-18.093,3.251-26.761c0.625-1.469-0.424-3.893-1.229-5.641c-0.635-1.385-2.117-2.358-3.17-3.565
				c-8.095-9.293-8.318-14.084,0.511-22.752c4.653-4.582,8.431-9.023,7.657-16.014c3.527-0.607,7.197-0.215,9.19-1.859
				c2.299-1.903,3.573-5.471,4.492-8.545c1.773-5.99,4.429-11.111,10.457-14.414c0.762,1.859,1.456,3.563,2.469,6.032
				c4.204-8.006,10.517-11.684,18.443-13.988c8.48-2.462,14.902,2.983,22.583,3.754c-1.752-1.311-3.508-2.617-5.257-3.927
				c0.142-0.558,0.283-1.114,0.424-1.669c7.354,1.292,14.75,2.401,22.054,3.954c4.711,1.008,9.116,2.852,13.337-1.581
				c1.116-1.175,4.204-1.402,6.005-0.838c6.41,1.983,12.714,4.34,16.707,10.409c1.047,1.598,1.572,4.919,5.115,2.442
				c0.666-0.461,2.918,1.824,4.586,2.208c2.098,0.484,3.58,5.729,6.562,1.069c0.025-0.026,1.789,0.914,2.613,1.564
				c5.829,4.688,10.936,9.815,10.41,17.988c5.602,2.061,12.861,13.241,11.359,18.901c-1.449,5.466,0.62,8.004,4.005,11.995
				c3.752,4.417,5.348,10.99,6.903,16.883c3.245,12.293,1.846,24.603-0.678,36.928c-1.766,8.626-2.554,17.448-3.825,26.176
				c-1.098,7.559-3.683,14.522-8.395,21.704c-0.977-8.174-1.134-15.479-2.852-22.398c-2.167-8.692-2.785-17.393-3.566-26.234
				c-0.735-8.355-3.295-16.655-5.91-24.708c-1.815-5.57-6.244-9.309-12.287-10.615c-0.588-0.129-1.273-0.33-1.686-0.729
				c-4.599-4.571-9.58-5.79-14.287-2.147c-7.916,6.129-16.819,5.295-25.748,4.79c-5.279-0.294-10.54-1.006-15.805-1.591
				c-5.865-0.651-11.051,0.418-16.118,3.931c-2.236,1.555-6.414,1.835-9.115,0.919c-8.007-2.71-15.205,1.436-22.799,1.758
				c-0.711,0.036-1.508,0.887-2.044,1.539c-5.979,7.242-12.047,15.197-11.185,24.705c1.409,15.553-4.538,29.518-7.123,44.185
				c-0.471,2.66-1.86,5.147-2.828,7.708C166.466,210.075,166.002,210.031,165.54,209.977z"/>
		</g>
		<g>
			<path fill="#291911" d="M317.982,218.759l-1.115-9.34c-0.311-2.62-0.54-5.154-0.765-7.613c-0.462-5.083-0.896-9.885-2.013-14.357
				c-2.032-8.163-2.75-16.393-3.439-24.352l-0.213-2.412c-0.701-7.92-3.12-15.848-5.757-23.948c-1.404-4.313-4.86-7.269-9.741-8.322
				c-0.94-0.206-2.311-0.599-3.364-1.64c-1.523-1.51-3.812-3.295-6.158-3.295c-1.209,0-2.397,0.461-3.63,1.415
				c-6.703,5.192-13.952,5.856-19.521,5.856c-2.451,0-4.916-0.143-7.301-0.283l-1.217-0.07c-4.134-0.231-8.276-0.714-12.277-1.181
				l-3.71-0.426c-5.36-0.596-9.596,0.436-13.78,3.34c-1.884,1.304-4.642,2.052-7.567,2.052c-1.659,0-3.257-0.242-4.613-0.7
				c-3.813-1.293-8.246-0.526-12.897,0.532c-2.535,0.574-5.154,1.167-7.899,1.359c-0.079,0.084-0.182,0.196-0.295,0.337
				c-5.9,7.149-11.137,14.23-10.412,22.216c1.018,11.258-1.597,21.634-4.122,31.672c-1.108,4.389-2.25,8.936-3.039,13.411
				c-0.392,2.224-1.244,4.182-2.06,6.073c-0.326,0.749-0.651,1.498-0.938,2.255l-0.941,2.495l-6.52-0.718l-0.497-2.451
				c-0.475-2.334-0.961-4.668-1.444-6.999c-1.062-5.103-2.118-10.203-3.098-15.325c-0.789-4.131-1.91-8.336-2.99-12.404
				c-2.326-8.751-4.735-17.805-4.386-27.502c0.06-1.714,0.083-3.428,0.105-5.142c0.098-7.416,0.196-15.081,3.335-22.63
				c-0.02-0.375-0.242-1.212-1.102-3.068c-0.134-0.293-0.726-0.851-1.204-1.3c-0.499-0.471-0.998-0.946-1.437-1.452
				c-9.395-10.783-9.222-17.71,0.69-27.448c4.849-4.774,7.214-8.126,6.649-13.188l-0.354-3.213l3.186-0.547
				c1.27-0.22,2.538-0.324,3.651-0.414c1.444-0.116,3.414-0.277,3.936-0.711c1.777-1.469,2.906-5.26,3.393-6.878
				c1.612-5.454,4.448-12.257,12.093-16.444l3.37-1.847l1.494,3.651c5.072-5.968,11.431-8.502,16.742-10.048
				c1.762-0.51,3.578-0.769,5.401-0.769c3.593,0,6.771,0.957,9.822,2l0.926-3.712l3.153,0.554c2.158,0.383,4.323,0.746,6.485,1.109
				c5.146,0.865,10.465,1.759,15.687,2.872c0.627,0.135,1.247,0.282,1.867,0.427c1.604,0.384,3.131,0.747,4.429,0.747
				c1.122,0,2.359-0.214,3.843-1.767c1.817-1.913,4.729-2.197,6.296-2.197c1.161,0,2.276,0.157,3.219,0.453
				c6.85,2.117,13.934,4.775,18.549,11.798c0.24,0.365,0.465,0.791,0.688,1.234l0.483-0.337l1.298-0.063
				c1.436,0,2.554,0.734,3.73,1.511c0.433,0.286,1.152,0.761,1.442,0.857c1.407,0.323,2.425,1.231,3.201,2.028l0.666-1.04
				l1.863-0.015c0,0,0.01,0,0.017,0c1.828,0,4.727,2.285,4.755,2.308c5.914,4.761,11.348,10.299,11.729,18.598
				c6.45,4.089,13.033,15.041,11.226,21.856c-0.969,3.65-0.047,4.951,3.304,8.895c4.072,4.793,5.825,11.47,7.378,17.36l0.229,0.869
				c3.596,13.625,1.697,27.104-0.632,38.495c-1.162,5.648-1.906,11.548-2.633,17.251c-0.372,2.915-0.741,5.83-1.164,8.732
				c-1.209,8.315-4.046,15.655-8.921,23.084L317.982,218.759z M164.202,76.884c-0.45,6.661-4.522,11.254-8.74,15.403
				c-7.354,7.227-7.405,9.924-0.324,18.05c0.294,0.338,0.631,0.646,0.961,0.955c0.909,0.855,2.038,1.918,2.733,3.427
				c1.225,2.65,2.425,5.7,1.274,8.416c-2.694,6.378-2.785,13.116-2.879,20.247c-0.02,1.765-0.043,3.535-0.109,5.3
				c-0.31,8.676,1.863,16.843,4.162,25.488c1.108,4.182,2.263,8.508,3.099,12.883c0.784,4.103,1.616,8.19,2.464,12.278
				c0.776-3.872,1.737-7.692,2.676-11.407c2.494-9.92,4.855-19.284,3.941-29.381c-1.04-11.458,6.779-20.931,11.952-27.2
				c0.946-1.146,2.44-2.677,4.519-2.783c2.433-0.102,4.872-0.655,7.457-1.241c3.11-0.707,6.332-1.434,9.775-1.434
				c2.425,0,4.661,0.359,6.842,1.096c0.642,0.218,1.502,0.339,2.408,0.339c1.697,0,3.055-0.417,3.651-0.828
				c5.535-3.838,11.451-5.301,18.452-4.522l3.75,0.431c3.899,0.454,7.94,0.924,11.867,1.144l1.229,0.071
				c2.393,0.141,4.652,0.273,6.902,0.273c6.739,0,11.321-1.322,15.322-4.421c5.704-4.415,12.523-3.665,18.562,2.181
				c0.082,0.023,0.168,0.041,0.248,0.059c7.253,1.565,12.653,6.27,14.814,12.906c2.757,8.491,5.303,16.83,6.064,25.467l0.212,2.42
				c0.7,8.049,1.36,15.652,3.265,23.289c0.929,3.738,1.418,7.52,1.815,11.436c1.289-3.335,2.177-6.767,2.706-10.408
				c0.416-2.855,0.78-5.734,1.146-8.603c0.745-5.833,1.506-11.862,2.715-17.766c2.173-10.611,3.955-23.108,0.722-35.364
				l-0.228-0.877c-1.433-5.435-2.91-11.056-5.975-14.663c-3.417-4.021-6.639-7.822-4.703-15.099
				c0.979-3.689-4.975-13.233-9.227-14.798l-2.404-0.882l0.159-2.558c0.394-6.105-2.991-10.128-8.98-14.968
				c-0.923,0.655-1.919,0.985-2.975,0.985c-2.33,0-3.815-1.572-4.801-2.611c-0.185-0.194-0.356-0.4-0.541-0.559
				c-1.209-0.359-2.304-1.069-3.205-1.663c-0.828,0.353-1.634,0.527-2.429,0.527c-3.375,0-4.774-2.839-5.448-4.205
				c-0.113-0.241-0.229-0.482-0.354-0.679c-3.366-5.119-8.943-7.182-14.85-9.008c-0.226-0.07-0.646-0.143-1.181-0.143
				c-0.72,0-1.25,0.128-1.465,0.214c-2.469,2.523-5.31,3.75-8.674,3.75c-2.106,0-4.099-0.473-6.021-0.934
				c-0.565-0.134-1.138-0.27-1.711-0.393c-3.726-0.792-7.546-1.481-11.329-2.126l6.768,5.064l-12.281-1.236
				c-3.256-0.33-6.183-1.348-9.007-2.33c-4.253-1.48-8.302-2.697-12.273-1.547c-8.301,2.416-13.047,5.978-16.366,12.293
				l-3.424,6.516l-3.629-8.874c-2.519,2.301-4.24,5.464-5.617,10.115c-1.094,3.67-2.613,7.749-5.597,10.216
				c-2.19,1.809-5.022,2.038-7.752,2.261C164.297,76.876,164.249,76.881,164.202,76.884z"/>
		</g>
	</g>
	<g>
		<path fill="#562010" d="M279.736,222.046c0.969,1.941,2.645,3.766,2.557,5.503c-0.129,2.456-0.223,5.68-3.804,6.417
			c-4.595,0.95-8.882,1.231-13.498-1.012c-5.521-2.68-11.597-4.209-17.444-6.21c-0.306-0.11-0.727-0.035-1.051,0.079
			c-5.735,1.969-11.713,3.444-17.119,6.088c-4.602,2.255-8.885,1.98-13.493,1.094c-3.673-0.71-3.625-4.029-3.923-6.457
			c-0.199-1.608,1.561-3.456,2.522-5.362c0.775,2.562,0.988,4.382,1.887,5.755c0.438,0.674,2.339,0.981,3.244,0.624
			c1.862-0.729,3.543-1.961,5.224-3.099c2.186-1.471,4.285-3.08,6.466-4.566c4.165-2.855,8.789-3.362,13.678-2.687
			c1.381,0.188,2.828,0.157,4.221,0.003c5.634-0.592,10.721-0.055,15.273,4.135c2.946,2.71,6.828,4.472,10.442,6.358
			c0.769,0.4,2.767-0.16,3.229-0.891C278.973,226.53,279.049,224.773,279.736,222.046z"/>
	</g>
	<g>
		<rect x="284.797" y="411.941" fill="#A93823" width="49.574" height="45.614"/>
		<path fill="#291911" d="M337.799,460.986h-56.431v-52.478h56.431V460.986z M288.232,454.123h42.705v-38.748h-42.705V454.123z"/>
	</g>
</g>
</svg>
