<?xml version="1.0" encoding="utf-8"?>
<!-- Generator: Adobe Illustrator 16.0.0, SVG Export Plug-In . SVG Version: 6.00 Build 0)  -->
<!DOCTYPE svg PUBLIC "-//W3C//DTD SVG 1.1//EN" "http://www.w3.org/Graphics/SVG/1.1/DTD/svg11.dtd">
<svg version="1.1" id="Layer_1" xmlns="http://www.w3.org/2000/svg" xmlns:xlink="http://www.w3.org/1999/xlink" x="0px" y="0px"
	 width="500px" height="500px" viewBox="0 0 500 500" enable-background="new 0 0 500 500" xml:space="preserve">
<g id="Layer_1_copy_76">
	<g>
		<g>
			<g>
				<path fill="#F89521" d="M213.651,136.085c-2.605-1.476-2.852,0.971-5.661,1.523c0.438,0.807,2.191-0.375,2.299,0.927
					c-1.751,0.306-3.759,0.997-5.125,0.709c2.479,3.132,7.042-0.117,9.872,1.829c5.618,3.863,4.049,15.688,3.513,22.129
					c-0.4,4.841-0.501,9.735-2.085,12.037c-2.204,0.546-4.166,0.722-5.872,0.508c0.641,4.494,6.264,1.413,9.001,2.716
					c-0.802,1.627-3.072,0.804-4.652,1.312c-2.646,0.842-4.786,2.545-5.374,4.623c1.369,1.625,3.835-0.605,6.548-0.646
					c4.067,1.151,3.933,7.32,3.796,13.28c-0.074,3.469-0.261,6.941-1.224,9.395c-0.845,2.164-3.466,6.131-4.888,6.989
					c-3.183,1.92-9.31,2.434-11.822-1.075c-1.397-1.943-2.168-6.191-2.962-9.231c-1.633-6.231-2.106-12.381,0.306-15.539
					c0.846-1.106,2.047-2.604,2.675-4.068c-1.436-0.18-3.097-0.012-4.056-0.921c-1.205-1.586-1.228-3.435-1.659-6.339
					c-1.101-7.319-3.617-18.512-4.074-24.829c-0.196-2.687,0.16-6.118,1.233-7.638c2.374-3.368,5.786-4.875,6.562-9.092
					c-1.936-0.306-4.843,0.864-6.348-0.095c-1.501-8.682-3.592-18.765-2.876-27.541c0.499-6.103,2.385-13.217,11.669-13.309
					c2.355-0.021,5.859,1.448,7.65,2.99c2.28,1.968,3.771,5.922,4.787,9.562C217.734,116.522,216.663,131.159,213.651,136.085z"/>
				<path fill="#3B2518" d="M207.994,216.43c-3.189,0-5.763-1.138-7.248-3.207c-1.271-1.779-1.996-4.797-2.696-7.714
					c-0.17-0.704-0.335-1.388-0.502-2.019c-1.429-5.468-2.494-12.829,0.571-16.837l0.243-0.312c0.359-0.473,0.763-0.997,1.145-1.539
					c-0.928-0.13-1.851-0.407-2.604-1.123c-0.061-0.057-0.117-0.117-0.168-0.183c-1.223-1.612-1.457-3.349-1.747-5.55
					c-0.056-0.46-0.126-0.953-0.205-1.479c-0.406-2.734-1.016-5.979-1.652-9.417c-1.054-5.658-2.141-11.507-2.432-15.525
					c-0.211-2.923,0.17-6.724,1.508-8.619c0.911-1.296,1.924-2.299,2.904-3.268c1.161-1.154,2.15-2.135,2.791-3.387
					c-0.139,0.016-0.277,0.035-0.413,0.05c-1.729,0.221-3.538,0.268-4.651-0.441c-0.356-0.227-0.6-0.596-0.675-1.016l-0.543-3.081
					c-1.403-7.916-2.996-16.891-2.35-24.835c0.296-3.608,1.192-14.583,13.163-14.699c2.962,0,6.774,1.741,8.647,3.355
					c2.113,1.826,3.832,5.194,5.261,10.3c2.772,9.947,2.079,25.298-1.4,30.988c-0.426,0.694-1.328,0.927-2.034,0.527
					c-0.429-0.243-0.644-0.271-0.716-0.271c-0.142,0-0.378,0.158-0.656,0.356c0.152,0.291,0.237,0.612,0.263,0.921
					c0.016,0.177,0,0.35-0.041,0.511c1.677-0.101,3.053,0.167,4.135,0.915c5.905,4.062,4.944,14.794,4.307,21.896l-0.142,1.602
					c-0.063,0.735-0.116,1.473-0.167,2.202c-0.312,4.257-0.608,8.279-2.176,10.564c-0.158,0.224-0.366,0.401-0.612,0.514
					c1.287-0.047,2.321,0.098,3.142,0.489c0.362,0.173,0.644,0.485,0.775,0.867c0.133,0.384,0.107,0.804-0.073,1.167
					c-0.923,1.877-2.862,1.921-4.146,1.946c-0.514,0.013-1.05,0.025-1.397,0.136c-1.435,0.458-2.633,1.173-3.428,2.012
					c0.199-0.06,0.395-0.133,0.593-0.199c1.035-0.36,2.208-0.767,3.526-0.789c0.139,0.009,0.29,0.019,0.432,0.06
					c5.195,1.473,5.037,8.531,4.897,14.762c-0.075,3.353-0.242,7.156-1.327,9.919c-0.886,2.264-3.652,6.606-5.509,7.729
					C212.797,215.787,210.333,216.43,207.994,216.43z M199.053,181.544c0.375,0.259,1.217,0.312,1.964,0.36
					c0.392,0.025,0.786,0.053,1.168,0.101c0.47,0.057,0.889,0.334,1.122,0.748c0.236,0.413,0.269,0.908,0.079,1.347
					c-0.649,1.507-1.747,2.936-2.63,4.081l-0.236,0.309c-1.785,2.337-1.801,7.524-0.044,14.236c0.169,0.649,0.337,1.356,0.514,2.081
					c0.57,2.388,1.283,5.358,2.214,6.654c1.214,1.697,3.522,1.949,4.791,1.949c1.784,0,3.711-0.495,5.026-1.29
					c0.918-0.552,3.405-4.059,4.26-6.244c0.902-2.302,1.054-5.79,1.12-8.875c0.117-5.263,0.239-10.697-2.494-11.728
					c-0.764,0.06-1.568,0.337-2.35,0.608c-0.918,0.318-1.785,0.622-2.682,0.622c-0.989,0-1.841-0.392-2.463-1.129
					c-0.324-0.381-0.435-0.902-0.299-1.384c0.498-1.766,1.838-3.343,3.743-4.484c-1.573-0.523-2.498-1.71-2.76-3.545
					c-0.065-0.464,0.089-0.937,0.42-1.271c0.331-0.337,0.801-0.495,1.264-0.441c1.363,0.174,2.924,0.06,4.709-0.334
					c0.887-1.797,1.139-5.25,1.385-8.603c0.054-0.738,0.11-1.485,0.17-2.229l0.142-1.624c0.543-6.011,1.445-16.078-3.009-19.137
					c-0.403-0.281-0.926-0.403-1.699-0.403c-0.583,0-1.188,0.066-1.794,0.132c-0.713,0.076-1.429,0.148-2.116,0.148
					c-2.016,0-3.514-0.659-4.589-2.016c-0.394-0.498-0.436-1.192-0.098-1.731c0.334-0.542,0.971-0.813,1.596-0.685
					c0.242,0.051,0.608,0.044,1.01-0.003c-0.029-0.271,0.019-0.548,0.135-0.801c0.205-0.435,0.603-0.748,1.078-0.836
					c0.796-0.158,1.287-0.517,1.854-0.936c0.796-0.581,1.922-1.309,3.375-1c2.355-5.44,3.072-18.262,0.501-27.493
					c-1.242-4.453-2.695-7.42-4.32-8.821c-1.593-1.372-4.746-2.624-6.606-2.624c-6.5,0.063-9.543,3.63-10.219,11.924
					c-0.617,7.557,0.94,16.324,2.312,24.06l0.391,2.213c0.501,0.047,1.363-0.047,2.12-0.142c1.044-0.135,2.179-0.268,3.131-0.113
					c0.4,0.062,0.76,0.287,0.994,0.618c0.235,0.334,0.327,0.747,0.255,1.148c-0.59,3.195-2.45,5.042-4.251,6.824
					c-0.886,0.88-1.804,1.785-2.561,2.864c-0.735,1.043-1.157,3.967-0.965,6.661c0.28,3.848,1.353,9.615,2.39,15.188
					c0.644,3.463,1.252,6.736,1.672,9.524c0.079,0.545,0.147,1.053,0.211,1.529C198.236,179.428,198.387,180.592,199.053,181.544z"
					/>
			</g>
		</g>
		<g>
			<g>
				<path fill="#F89521" d="M275.938,149.942c-1.49,0.958-4.215,1.11-6.332,1.665c0.416,2.892-0.924,4.639-3.002,5.891
					c2.201,0.789,4.933,0.773,6.5,2.529c-0.287,11.568-0.304,23.312-7.035,30.638c-1.479,0.618-2.028-0.167-3.174-0.047
					c0.42,3.457,1.945,2.375,2.73,4.708c1.287,3.851-1.312,11.917-2.88,15.011c-1.775,3.498-7.478,11.139-12.838,9.335
					c-3.712-1.249-6.216-8.818-6.973-13.328c-1.305-7.799,0.457-14.513,6.376-16.79c-0.314-2.032-1.343-2.978-1.979-4.513
					c-1.368-0.281-3.337,0.341-4.333-0.514c-0.228-5.298,0.441-10.41,1.056-15.336c0.606-4.837,1.665-9.574,3.088-14.002
					c3.444,1.202,5.913-1.729,6.111-4.428c-1.103-2.251-3.305-3.04-3.879-5.175c-0.497-1.852,0.625-8.386,0.88-11.082
					c0.697-7.509,1.527-14.191,3.782-20.827c1.129-3.321,1.961-6.711,3.79-8.872c6.205-7.313,22.609-8.039,22.593,5.532
					c-0.004,6.376-1.839,12.874-2.644,19.537C276.982,136.435,276.514,143.083,275.938,149.942z"/>
				<path fill="#3B2518" d="M251.57,221.454c-0.731,0-1.45-0.12-2.145-0.35c-4.652-1.567-7.255-10.177-7.979-14.513
					c-1.454-8.682,0.754-15.109,6.083-17.887c-0.195-0.501-0.45-0.94-0.73-1.419c-0.155-0.268-0.311-0.533-0.458-0.811
					c-0.222,0-0.448,0.009-0.679,0.019c-0.277,0.01-0.554,0.019-0.825,0.019c-0.858,0-1.956-0.095-2.822-0.839
					c-0.316-0.271-0.506-0.663-0.524-1.079c-0.227-5.238,0.394-10.24,1-15.072l0.065-0.52c0.609-4.863,1.666-9.666,3.148-14.273
					c0.122-0.388,0.396-0.709,0.763-0.893c0.363-0.179,0.785-0.211,1.174-0.072c2.03,0.703,3.711-0.918,4.055-2.706
					c-0.391-0.63-0.914-1.145-1.467-1.681c-0.889-0.871-1.895-1.854-2.314-3.4c-0.413-1.532-0.05-4.642,0.502-8.868
					c0.139-1.079,0.269-2.043,0.33-2.747c0.638-6.844,1.461-14.116,3.857-21.17c0.209-0.618,0.41-1.236,0.604-1.845
					c0.918-2.844,1.782-5.531,3.464-7.518c2.941-3.463,8.057-5.702,13.036-5.702c3.617,0,6.8,1.192,8.963,3.355
					c2.136,2.138,3.261,5.2,3.257,8.859c-0.003,4.15-0.76,8.382-1.492,12.476c-0.428,2.369-0.869,4.819-1.158,7.237
					c-0.631,5.197-1.047,10.37-1.492,15.851l-0.34,4.163c-0.043,0.47-0.293,0.896-0.691,1.148c-1.248,0.801-2.977,1.113-4.645,1.416
					c-0.307,0.057-0.615,0.113-0.922,0.17c-0.035,1.495-0.51,2.82-1.418,3.961c1.566,0.372,3.233,0.886,4.457,2.258
					c0.256,0.284,0.396,0.656,0.387,1.043l-0.035,1.337c-0.266,11.221-0.539,22.82-7.398,30.285
					c-0.146,0.161-0.326,0.287-0.529,0.369c-0.463,0.199-0.911,0.312-1.355,0.347c0.006,0.003,0.014,0.01,0.018,0.013
					c0.535,0.429,1.271,1.018,1.746,2.431c1.453,4.346-1.259,12.813-2.965,16.175C262.624,213.923,257.502,221.454,251.57,221.454z
					 M246.373,183.453c0.442,0,0.87,0.028,1.258,0.11c0.493,0.098,0.902,0.435,1.095,0.898c0.199,0.476,0.442,0.886,0.681,1.3
					c0.54,0.921,1.151,1.965,1.399,3.562c0.11,0.7-0.287,1.384-0.952,1.643c-6.752,2.598-6.042,11.444-5.428,15.128
					c0.868,5.169,3.394,11.284,5.965,12.147c3.821,1.284,9.012-4.651,11.008-8.587c1.518-2.993,3.883-10.593,2.791-13.848
					c-0.188-0.568-0.385-0.723-0.772-1.035c-0.897-0.722-1.733-1.571-2.022-3.974c-0.049-0.4,0.065-0.807,0.316-1.12
					c0.253-0.318,0.622-0.521,1.025-0.564c0.703-0.069,1.273,0.069,1.695,0.177c0.234,0.06,0.397,0.104,0.549,0.104
					c0.031,0,0.104,0,0.222-0.028c5.851-6.642,6.097-17.036,6.358-28.036l0.016-0.659c-0.785-0.58-1.938-0.842-3.141-1.116
					c-0.772-0.177-1.571-0.356-2.345-0.631c-0.549-0.198-0.937-0.694-0.993-1.274c-0.06-0.581,0.226-1.142,0.723-1.444
					c1.908-1.151,2.57-2.422,2.285-4.383c-0.105-0.761,0.373-1.486,1.117-1.678c0.737-0.192,1.543-0.337,2.351-0.485
					c1.06-0.189,2.145-0.388,2.929-0.688l0.271-3.312c0.444-5.506,0.867-10.71,1.504-15.967c0.3-2.507,0.748-4.999,1.184-7.411
					c0.744-4.144,1.444-8.061,1.447-11.943c0.003-2.879-0.794-5.141-2.375-6.717c-1.592-1.596-4.016-2.473-6.824-2.473
					c-4.128,0-8.341,1.817-10.73,4.636c-1.295,1.526-2.069,3.939-2.894,6.49c-0.202,0.627-0.405,1.261-0.62,1.889
					c-2.294,6.749-3.062,13.542-3.707,20.48c-0.07,0.735-0.201,1.738-0.346,2.854c-0.305,2.315-0.865,6.626-0.578,7.695
					c0.203,0.744,0.775,1.309,1.504,2.021c0.773,0.754,1.646,1.605,2.271,2.883c0.119,0.239,0.174,0.511,0.15,0.778
					c-0.221,3-2.551,6.103-6.058,6.103c-0.177,0-0.354-0.006-0.527-0.025c-1.211,4.03-2.094,8.206-2.624,12.425l-0.062,0.518
					c-0.549,4.402-1.116,8.941-1.009,13.585c0.262,0.02,0.681,0.007,1.065-0.006C245.824,183.465,246.102,183.453,246.373,183.453z"
					/>
			</g>
		</g>
		<g>
			<g>
				<path fill="#F89521" d="M162.271,192.056c-3.186-0.47-4.418,1.993-6.944,2.142c-4.272,0.249-10.017-6.695-12.239-13.296
					c-1.177-3.485-2.672-11.731-2.053-15.049c0.419-2.264,2.734-3.201,2.466-5.081c-1.539-0.322-4.678,3.268-5.34-0.306
					c1.095-2.391,7.298-1.417,7.541-4.368c-2.428-1.779-8.524,2.024-10.34-0.679c-1.675-8.918-5.104-20.354,0.589-24.384
					c4.279-3.027,11.533-0.874,13.394,3.561c2.317,5.509,3.056,11.729,4.636,17.33c2.476,8.77,9.524,14.425,12.236,23.495
					c0.536,1.788,0.649,3.926,1.255,6.067c2.084,7.395,7.572,14.04,9.656,21.218c2.576,8.875,3.866,20.937-4.521,22.385
					c-6.071,1.05-8.853-7.799-11.089-12.833c-1.198-2.703-5.79-11.306-4.75-14.491C157.67,195.004,161.641,195.446,162.271,192.056z
					"/>
				<path fill="#3B2518" d="M171.635,226.686c-5.702,0-8.562-6.837-10.65-11.83c-0.296-0.703-0.573-1.372-0.845-1.987
					c-0.189-0.419-0.461-0.984-0.779-1.655c-2.576-5.393-5.011-10.915-4.03-13.917c0.237-0.71,0.599-1.274,1.031-1.731
					c-0.299,0.072-0.611,0.12-0.945,0.139l-0.315,0.009l0,0c-5.153,0-11.114-7.411-13.447-14.333
					c-1.146-3.4-2.813-11.984-2.107-15.803c0.158-0.849,0.501-1.539,0.883-2.129c-0.296,0.076-0.599,0.124-0.907,0.124
					c-0.698,0-2.371-0.274-2.845-2.83c-0.057-0.306-0.017-0.621,0.113-0.905c0.454-0.997,1.31-1.589,2.296-1.999
					c-2.191,0.284-4.03-0.17-4.977-1.577c-0.113-0.167-0.192-0.363-0.233-0.562c-0.23-1.239-0.499-2.523-0.77-3.831
					c-1.75-8.449-3.733-18.027,1.975-22.066c1.558-1.104,3.507-1.69,5.633-1.69c4.446,0,8.564,2.428,10.024,5.901
					c1.533,3.645,2.391,7.562,3.224,11.35c0.47,2.145,0.914,4.175,1.473,6.153c1.18,4.172,3.453,7.606,5.859,11.246
					c2.438,3.684,4.954,7.49,6.37,12.224c0.293,0.974,0.46,1.983,0.637,3.049c0.168,1.003,0.342,2.041,0.625,3.043
					c1.016,3.589,2.933,7.125,4.791,10.54c1.863,3.431,3.79,6.976,4.862,10.666c1.529,5.26,3.573,14.914,0.11,20.451
					c-1.318,2.11-3.276,3.406-5.821,3.848C172.442,226.651,172.032,226.686,171.635,226.686z M161.48,190.488
					c0.321,0,0.656,0.022,1.012,0.076c0.404,0.06,0.771,0.281,1.01,0.615c0.236,0.334,0.328,0.75,0.255,1.155
					c-0.467,2.523-2.318,3.541-3.667,4.282c-1.058,0.58-1.662,0.94-1.887,1.618c-0.688,2.107,2.637,9.064,3.886,11.678
					c0.331,0.703,0.615,1.293,0.811,1.731c0.281,0.634,0.571,1.325,0.873,2.046c1.87,4.476,4.415,10.653,8.578,9.912
					c1.684-0.29,2.92-1.101,3.777-2.469c2.072-3.314,1.909-9.877-0.45-18.007c-0.981-3.375-2.747-6.626-4.616-10.064
					c-1.937-3.563-3.939-7.244-5.043-11.161c-0.329-1.164-0.515-2.287-0.698-3.368c-0.16-0.971-0.312-1.889-0.551-2.681
					c-1.287-4.308-3.681-7.922-5.998-11.422c-2.426-3.671-4.939-7.468-6.245-12.094c-0.58-2.063-1.056-4.23-1.517-6.327
					c-0.801-3.655-1.63-7.433-3.059-10.827c-0.969-2.309-4.078-4.046-7.237-4.046c-1.498,0-2.843,0.392-3.89,1.132
					c-4.093,2.895-2.321,11.445-0.757,18.989c0.247,1.182,0.486,2.346,0.704,3.472c0.142,0.094,0.416,0.183,0.962,0.183
					c0.778,0,1.781-0.192,2.753-0.381c1.11-0.214,2.261-0.438,3.33-0.438c1.148,0,2.053,0.258,2.778,0.788
					c0.423,0.309,0.652,0.817,0.612,1.34c-0.148,1.82-1.474,2.712-2.937,3.251c0.385,0.227,0.659,0.625,0.726,1.084
					c0.236,1.643-0.672,2.782-1.4,3.69c-0.508,0.641-0.946,1.192-1.078,1.88c-0.54,2.923,0.842,10.858,2.002,14.292
					c2.088,6.194,7.329,12.274,10.581,12.274c0.864-0.048,1.484-0.407,2.268-0.861C158.402,191.235,159.688,190.488,161.48,190.488z
					"/>
			</g>
		</g>
		<g>
			<g>
				<path fill="#F89521" d="M321.632,177.076c-2.245,0.46-3.647-0.356-6.203,0.58c-0.396,1.35,2.396,1.653,2.249,4.106
					c0.359,1.205-1.703,0.823-2.15,1.501c-0.55,0.887,0.833,1.337,0.896,2.627c-1.039,4.519-3.18,12.286-6.312,17.124
					c-2.095,3.248-4.299,5.888-7.814,3.021c-2.92,1.195-4.119-0.233-6.615,0.312c0.145,4.705,5.212,6.011,5.331,10.505
					c0.079,2.841-3.612,6.156-5.616,8.553c-2.394,2.847-4.844,5.475-6.91,7.404c-7.065,2.227-11.633-0.879-12.197-6.275
					c-0.262-2.507,1.332-6.393,2.574-9.682c2.117-5.611,4.51-9.729,6.865-14.425c2.555,0.126,1.033-2.432,2.957-2.722
					c0.014-1.205-1.459-0.145-1.365-1.476c2.045-5.001,5.101-12.977,7.916-19.568c1.447-3.387,2.88-8.029,7.667-5.453
					c0.443-1.457,0.911-2.895,2.003-3.93c-1.041-1.523-2.542-2.34-4.409-2.604c2.551-9.178,5.093-21.114,9.199-30.382
					c2.722-6.15,6.213-15.721,17.121-15.844c8.407-0.094,9.823,10.143,8.216,17.642c-0.294,1.362-0.618,2.804-0.921,4.059
					c-1.713,7.083-3.154,14.503-8.394,18.966C324.521,166.542,324.527,172.765,321.632,177.076z"/>
				<path fill="#3B2518" d="M284.146,235.049c-5.155,0-8.83-3.28-9.362-8.357c-0.274-2.649,1.054-6.137,2.337-9.508l0.324-0.864
					c1.638-4.327,3.457-7.833,5.217-11.227c0.57-1.101,1.145-2.204,1.712-3.343c0.271-0.536,0.839-0.839,1.431-0.833
					c0,0,0.077-0.003,0.156-0.006c0.021-0.076,0.048-0.167,0.062-0.237c0.058-0.217,0.142-0.539,0.3-0.879
					c-0.511-0.562-0.535-1.284-0.511-1.675c0.013-0.158,0.051-0.315,0.109-0.46c0.721-1.763,1.564-3.895,2.48-6.209
					c1.695-4.264,3.615-9.102,5.443-13.384l0.329-0.789c1.11-2.67,2.628-6.326,6.203-6.326c0.521,0,1.05,0.079,1.599,0.24
					c0.242-0.634,0.543-1.28,0.949-1.889c-0.688-0.603-1.562-0.975-2.646-1.132c-0.434-0.063-0.814-0.306-1.056-0.669
					c-0.234-0.365-0.306-0.813-0.188-1.233c0.62-2.229,1.242-4.626,1.883-7.105c1.986-7.669,4.238-16.364,7.391-23.482l0.485-1.114
					c2.69-6.171,6.759-15.503,17.999-15.629c0,0,0.003,0,0.006,0c3.085,0,5.572,1.151,7.332,3.327
					c3.403,4.21,3.406,11.325,2.375,16.141c-0.297,1.378-0.624,2.832-0.934,4.1l-0.365,1.523
					c-1.567,6.601-3.188,13.418-8.118,17.887c-0.29,1.407-0.51,2.895-0.729,4.34c-0.611,4.096-1.245,8.335-3.479,11.665
					c-0.221,0.328-0.563,0.559-0.952,0.637c-0.9,0.183-1.897,0.199-2.9,0.158c-0.337-0.016-0.666-0.032-1.021-0.025
					c0.609,0.653,1.196,1.571,1.182,2.927c0.112,0.637-0.062,1.126-0.236,1.432c-0.383,0.659-1.016,0.934-1.567,1.095
					c0.257,0.419,0.508,0.971,0.539,1.674c0.011,0.135-0.007,0.274-0.035,0.413c-1.003,4.358-3.179,12.447-6.515,17.607
					c-1.54,2.387-3.423,4.936-6.234,4.936c-1.02,0-2.06-0.351-3.102-1.044c-1.374,0.407-2.797,0.303-3.855,0.139
					c-0.233-0.038-0.472-0.076-0.713-0.104c0.403,1.088,1.188,1.978,2.057,2.961c1.368,1.555,2.92,3.315,2.993,6.087
					c0.077,2.87-2.416,5.616-4.618,8.039c-0.488,0.539-0.952,1.047-1.35,1.52c-2.44,2.904-4.938,5.582-7.039,7.543
					c-0.168,0.154-0.363,0.269-0.576,0.334C287.26,234.781,285.648,235.049,284.146,235.049z M286.691,203.869
					c-0.45,0.883-0.897,1.75-1.346,2.618c-1.801,3.466-3.498,6.74-5.07,10.902l-0.33,0.871c-1.053,2.756-2.357,6.188-2.156,8.117
					c0.379,3.592,2.693,5.649,6.357,5.649c1.099,0,2.297-0.186,3.562-0.559c1.962-1.857,4.271-4.343,6.53-7.036
					c0.421-0.499,0.912-1.041,1.43-1.611c1.637-1.804,3.882-4.27,3.834-5.926c-0.04-1.678-1.062-2.835-2.238-4.172
					c-1.406-1.596-3.002-3.406-3.094-6.326c-0.021-0.729,0.479-1.369,1.188-1.523c1.162-0.252,2.372-0.135,3.293,0.01
					c0.942,0.145,1.928,0.224,3.074-0.243c0.513-0.208,1.099-0.123,1.526,0.228c0.723,0.589,1.356,0.882,1.889,0.882
					c1.24,0,2.509-1.706,3.703-3.551c3.109-4.812,5.213-12.829,6.036-16.354c-0.044-0.101-0.136-0.23-0.284-0.429
					c-0.355-0.477-1.188-1.592-0.355-2.945c0.515-0.776,1.303-0.987,1.912-1.132c-0.076-0.354-0.339-0.608-0.871-1.063
					c-0.614-0.523-1.756-1.501-1.304-3.043c0.137-0.46,0.48-0.826,0.932-0.99c1.952-0.716,3.146-0.59,4.248-0.542
					c0.532,0.019,1.094,0.034,1.562-0.009c1.584-2.7,2.107-6.194,2.66-9.877c0.245-1.662,0.501-3.378,0.866-5.024
					c0.068-0.321,0.246-0.612,0.495-0.826c4.484-3.816,6.032-10.331,7.53-16.632l0.369-1.533c0.303-1.246,0.624-2.678,0.914-4.024
					c0.962-4.491,0.788-10.442-1.77-13.608c-1.201-1.486-2.787-2.205-4.854-2.205c-9.389,0.101-12.699,7.708-15.363,13.816
					l-0.491,1.129c-3.055,6.894-5.273,15.459-7.229,23.019c-0.505,1.945-0.994,3.838-1.481,5.645
					c1.58,0.534,2.851,1.492,3.783,2.857c0.421,0.612,0.332,1.441-0.204,1.953c-0.781,0.737-1.17,1.87-1.597,3.273
					c-0.132,0.432-0.454,0.786-0.87,0.956c-0.423,0.176-0.896,0.148-1.293-0.067c-0.698-0.375-1.309-0.567-1.807-0.567
					c-1.448,0-2.328,1.848-3.41,4.462l-0.346,0.816c-1.814,4.249-3.723,9.067-5.409,13.315c-0.757,1.907-1.466,3.692-2.094,5.25
					c0.971,0.518,1.081,1.457,1.075,1.908c-0.01,0.7-0.502,1.303-1.176,1.454c-0.025,0.082-0.052,0.183-0.07,0.259
					C288.792,202.04,288.408,203.519,286.691,203.869z"/>
			</g>
		</g>
		<g>
			<g>
				<path fill="#F89521" d="M278.048,281.04c6.146,2.597,7.015,8.745,10.158,15.131c3.041,6.179,9.015,10.942,12.461,16.063
					c1.11,1.646,2.462,3.893,2.938,5.722c0.253,0.949-0.202,2.176-0.048,3.177c0.301,1.887,1.526,3.596,1.791,5.254
					c1.02,6.43-2.261,13.563-6.029,18.478c-2.04,2.655-5.063,4.606-6.982,7.065c-1.538,1.985-2.571,4.362-3.94,6.443
					c-3.504,5.324-8.16,13.229-15.703,15.9c-8.373,2.966-17.518,1.095-23.635-0.392c-0.953-0.845,1.371-0.845-0.351-1.687
					c-5.282-3.955-11.303-8.086-13.883-16.121c-1.358-4.223-2.062-9.971-2.46-15.317c-0.328-4.37,0.242-9.513,1.259-14.323
					c1.078-5.113,1.526-10.332,2.889-13.259c1.359-2.911,4.892-5.073,5.354-8.138c-3.311,0.095-5.632,3.271-8.146,4.845
					c-0.574,1.832,0.104,4.358-0.432,6.421c-0.372,1.444-0.65,1.522-1.533,2.778c-2.35,3.336-2.35,9.468-2.204,14.873
					c0.17,6.452,1.511,13.377-0.427,18.37c-1.443,0.492-2.396,2.74-4.231,3.339c-2.088,0.678-4.602-0.218-6.616,0.312
					c-2.45,0.645-5.05,2.297-6.261,3.756c-1.16,1.392-0.889,3.438-2.466,5.078c-2.163,0.233-4.08,1.137-5.733,1.183
					c-1.34,0.042-2.702-0.747-4.056-0.918c-2.04-0.251-4.062,0.026-6.014-0.163c-14.44-1.42-25.643-8.839-30.751-24.596
					c-2.435-7.516-1.344-13.498-2.028-21.731c-0.356-4.286-0.696-8.925-1.098-13.842c-0.77-9.417-3.263-20.404,0.174-26.408
					c4.563-7.981,14.268-6.756,24.268-6.769c16.651-0.027,34.538-2.592,54.057-7.301c-2.538-1.955-5.944-0.656-8.852-0.277
					c-18.708,2.419-37.924,4.734-55.354,4.398c-5.598-0.109-12.201,0.24-13.744-5.25c-1.334-4.75,3.756-13.678,6.04-16.721
					c1.951-2.598,4.594-5.074,6.909-7.405c4.879-4.913,9.291-7.483,18.307-10.12c6.68-1.952,11.978-1.703,16.815-0.306
					c2.785,0.798,5.617,2.835,8.325,2.851c3.577,0.022,7.462-1.977,10.99-2.974c4.309-1.217,9.31-3.396,13.089-3.056
					c2.573,0.233,4.248,2.457,6.711,3.538c3.161,1.391,6.938,2.107,10.281,3.857c3.286,1.719,5.72,4.062,8.89,5.554
					c1.631-1.23-0.416-3.857-0.852-5.806c4.521,0.192,9.88,1.87,14.35,4.771c4.033,2.627,9.11,6.96,10.737,11.152
					c2.703,6.954,0.647,13.274-3.059,17.508c-0.888,4.67-2.826,8.639-6.009,11.789c-14.059,3.377-28.902,4.131-41.886,8.301
					c-6.989,2.244-13.507,8.322-19.032,13.424c-6.14,5.671-10.968,11.631-15.636,16.242c-0.006,0.285-0.269,0.406-0.195,0.74
					c6.07-4.998,12.532-10.312,18.54-15.781c1.852-1.688,3.589-3.881,5.572-5.37C241.104,286.463,259.645,284.411,278.048,281.04z"
					/>
				<path fill="#3B2518" d="M262.829,377.357c-5.172,0-10.045-1.016-14.128-2.008c-0.244-0.058-0.467-0.174-0.65-0.339
					c-0.628-0.558-0.75-1.149-0.744-1.551c0.003-0.136,0.021-0.265,0.05-0.386l-0.432-0.321c-5.134-3.828-10.953-8.161-13.541-16.22
					c-0.738-2.299-1.337-5.146-1.807-8.608c-0.14,1.753-0.452,3.425-1.042,4.944c-0.16,0.42-0.501,0.74-0.924,0.887
					c-0.312,0.105-0.795,0.631-1.22,1.092c-0.748,0.807-1.678,1.812-3.031,2.256c-1.117,0.357-2.57,0.367-4.081,0.27
					c-0.993-0.068-1.992-0.102-2.62,0.062c-2.218,0.584-4.529,2.117-5.481,3.262c-0.331,0.396-0.508,0.984-0.716,1.668
					c-0.315,1.041-0.706,2.334-1.819,3.492c-0.246,0.254-0.577,0.418-0.931,0.457c-0.927,0.098-1.849,0.35-2.734,0.592
					c-1.072,0.291-2.084,0.568-3.115,0.597c-0.006,0-0.01,0-0.014,0c-1.106,0-2.012-0.287-2.806-0.542
					c-0.53-0.173-1.028-0.331-1.47-0.389c-0.564-0.068-1.187-0.098-2.009-0.098l-2.05,0.02c-0.644,0-1.281-0.02-1.915-0.082
					c-16.264-1.596-27.045-10.221-32.041-25.631c-1.693-5.234-1.75-9.77-1.811-14.574c-0.031-2.365-0.06-4.812-0.283-7.497
					c-0.187-2.248-0.369-4.592-0.559-7.017c-0.174-2.207-0.351-4.488-0.542-6.824c-0.17-2.09-0.426-4.256-0.682-6.426
					c-0.918-7.75-1.864-15.766,1.047-20.857c4.009-7.007,11.451-7.594,18.73-7.594c1.087,0,2.191,0.017,3.308,0.031
					c1.123,0.017,2.258,0.031,3.399,0.031c10.527-0.019,21.649-1.031,33.701-3.082c-15.204,1.83-29.957,3.178-43.732,2.924
					l-1.246-0.021c-5.431-0.069-12.188-0.157-13.923-6.329c-1.644-5.844,4.541-15.715,6.288-18.036
					c1.665-2.224,3.76-4.302,5.786-6.311l1.26-1.254c5.185-5.226,9.972-7.878,18.952-10.505c6.374-1.864,11.878-1.977,17.654-0.309
					c1.174,0.334,2.312,0.854,3.413,1.355c1.624,0.735,3.156,1.432,4.51,1.438l0,0c2.217,0,4.67-0.886,7.049-1.741
					c1.194-0.432,2.374-0.854,3.519-1.18c1.092-0.306,2.229-0.678,3.378-1.053c3.507-1.145,7.174-2.331,10.252-2.05
					c1.972,0.177,3.415,1.205,4.815,2.198c0.795,0.564,1.546,1.101,2.372,1.46c1.274,0.564,2.671,1.012,4.146,1.488
					c2.062,0.662,4.193,1.35,6.226,2.413c1.637,0.854,3.046,1.841,4.409,2.793c0.886,0.615,1.742,1.214,2.624,1.753
					c-0.13-0.356-0.287-0.719-0.4-0.983c-0.301-0.703-0.608-1.429-0.771-2.148c-0.102-0.457,0.017-0.939,0.318-1.299
					c0.301-0.359,0.758-0.574,1.225-0.539c4.949,0.214,10.597,2.087,15.104,5.014c2.112,1.375,9.16,6.292,11.327,11.874
					c2.554,6.579,1.435,13.384-3.062,18.736c-1,4.899-3.133,8.993-6.353,12.183c-0.194,0.192-0.44,0.331-0.71,0.395
					c-1.008,0.242-2.021,0.471-3.039,0.691c4.739,2.286,6.486,6.559,8.335,11.071c0.599,1.47,1.222,2.985,1.968,4.504
					c1.723,3.494,4.493,6.588,7.178,9.577c1.922,2.136,3.73,4.152,5.182,6.309c1.66,2.463,2.719,4.543,3.148,6.185
					c0.208,0.78,0.115,1.554,0.036,2.239c-0.047,0.406-0.098,0.821-0.057,1.084c0.126,0.783,0.473,1.582,0.839,2.432
					c0.393,0.898,0.795,1.826,0.953,2.818c1.39,8.759-4.488,17.244-6.324,19.636c-1.132,1.473-2.5,2.709-3.824,3.901
					c-1.188,1.071-2.312,2.08-3.164,3.174c-0.842,1.082-1.527,2.311-2.254,3.605c-0.521,0.934-1.041,1.86-1.615,2.737l-0.836,1.276
					c-3.452,5.309-8.184,12.58-15.629,15.22C270.088,376.796,266.598,377.357,262.829,377.357z M250.873,372.76
					c3.586,0.826,7.691,1.573,11.956,1.573c3.425,0,6.575-0.498,9.36-1.485c6.478-2.291,10.705-8.795,14.103-14.018l0.839-1.29
					c0.54-0.817,1.021-1.685,1.508-2.552c0.75-1.338,1.523-2.723,2.504-3.985c1.02-1.303,2.293-2.454,3.525-3.563
					c1.225-1.104,2.491-2.242,3.454-3.498c1.647-2.146,6.935-9.75,5.736-17.319c-0.099-0.61-0.411-1.33-0.738-2.09
					c-0.406-0.938-0.87-2-1.058-3.164c-0.104-0.672-0.024-1.324,0.041-1.897c0.049-0.424,0.102-0.896,0.041-1.13
					c-0.337-1.293-1.282-3.112-2.729-5.263c-1.335-1.979-3.078-3.921-4.925-5.977c-2.818-3.146-5.735-6.394-7.641-10.264
					c-0.791-1.611-1.435-3.176-2.054-4.691c-1.767-4.32-3.173-7.762-6.938-9.539c-2.508,0.457-5.018,0.892-7.513,1.324
					c-15.595,2.691-30.328,5.237-40.13,12.602c-1.104,0.83-2.185,1.959-3.226,3.047c-0.744,0.775-1.482,1.546-2.236,2.232
					c-6.008,5.469-12.362,10.699-18.509,15.76c-0.409,0.333-1.013,0.47-1.504,0.296c-0.498-0.177-0.918-0.562-1.025-1.079
					c-0.139-0.652,0.076-1.145,0.201-1.387c0.063-0.277,0.205-0.536,0.411-0.738c1.866-1.846,3.766-3.917,5.777-6.107
					c3.049-3.322,6.2-6.757,9.896-10.172l0.237-0.218c5.695-5.261,12.15-11.218,19.356-13.535
					c7.571-2.432,15.901-3.741,23.952-5.005c5.822-0.915,11.836-1.857,17.629-3.227c2.73-2.822,4.467-6.329,5.292-10.7
					c0.05-0.265,0.171-0.511,0.347-0.714c1.873-2.141,5.892-7.98,2.791-15.966c-1.463-3.769-6.205-7.859-10.158-10.436
					c-3.373-2.191-7.441-3.728-11.258-4.298c0.678,1.631,1.399,3.838-0.504,5.273c-0.451,0.334-1.051,0.401-1.553,0.161
					c-1.795-0.842-3.355-1.933-4.865-2.986c-1.287-0.898-2.617-1.832-4.082-2.595c-1.804-0.943-3.809-1.589-5.748-2.214
					c-1.489-0.479-3.021-0.975-4.439-1.599c-1.107-0.483-2.022-1.136-2.908-1.763c-1.167-0.83-2.176-1.548-3.334-1.652
					c-2.541-0.233-5.831,0.864-9.041,1.914c-1.189,0.388-2.365,0.77-3.494,1.088c-1.079,0.309-2.192,0.709-3.317,1.116
					c-2.62,0.943-5.33,1.917-8.029,1.917c-2.06-0.009-3.964-0.873-5.8-1.709c-1.05-0.476-2.043-0.927-2.999-1.202
					c-5.226-1.508-10.161-1.397-15.977,0.303c-8.523,2.498-12.816,4.863-17.653,9.738l-1.278,1.271
					c-1.945,1.93-3.96,3.93-5.497,5.976c-2.646,3.52-6.843,11.675-5.796,15.403c1.047,3.722,5.056,4.049,11.054,4.127l1.265,0.021
					c17.124,0.329,35.854-1.895,55.133-4.391c0.583-0.071,1.191-0.188,1.804-0.309c1.235-0.232,2.511-0.477,3.806-0.477
					c1.738,0,3.163,0.447,4.355,1.369c0.461,0.354,0.675,0.942,0.556,1.511c-0.121,0.567-0.559,1.019-1.123,1.153
					c-20.366,4.914-38.163,7.313-54.406,7.342c-1.376-0.059-2.452-0.016-3.593-0.031c-1.101-0.012-2.192-0.027-3.264-0.027
					c-8.002,0-13.202,0.992-16.106,6.066c-2.419,4.229-1.529,11.74-0.672,19.004c0.263,2.208,0.524,4.409,0.694,6.531
					c0.191,2.347,0.372,4.627,0.542,6.838c0.189,2.421,0.372,4.761,0.559,7.001c0.23,2.791,0.262,5.292,0.293,7.71
					c0.061,4.77,0.11,8.885,1.665,13.682c4.592,14.16,14.504,22.088,29.459,23.559c0.535,0.05,1.078,0.064,1.621,0.064l2.05-0.021
					c0.643,0,1.491,0.016,2.381,0.126c0.723,0.088,1.382,0.3,2.018,0.505c0.646,0.205,1.259,0.403,1.757,0.403
					c0.726-0.02,1.571-0.25,2.463-0.495c0.783-0.216,1.653-0.451,2.587-0.601c0.391-0.551,0.586-1.188,0.8-1.9
					c0.266-0.873,0.564-1.861,1.287-2.725c1.505-1.812,4.396-3.559,7.036-4.252c0.983-0.259,2.249-0.246,3.586-0.158
					c1.113,0.073,2.242,0.102,2.945-0.125c0.603-0.199,1.161-0.803,1.747-1.436c0.527-0.566,1.065-1.154,1.741-1.559
					c1.068-3.279,0.76-7.51,0.435-11.971c-0.129-1.761-0.259-3.533-0.306-5.271c-0.158-5.979-0.098-12.127,2.479-15.784
					c0.215-0.311,0.398-0.549,0.555-0.754c0.448-0.594,0.543-0.716,0.754-1.533c0.208-0.811,0.183-1.791,0.155-2.828
					c-0.035-1.227-0.073-2.494,0.299-3.664c0.104-0.345,0.332-0.638,0.638-0.83c0.688-0.429,1.397-1.027,2.145-1.658
					c1.848-1.563,3.945-3.336,6.762-3.416c0.447,0,0.876,0.178,1.173,0.512c0.296,0.337,0.429,0.785,0.362,1.229
					c-0.335,2.202-1.801,3.875-3.217,5.485c-0.914,1.041-1.778,2.024-2.264,3.062c-0.823,1.771-1.318,4.713-1.846,7.83
					c-0.277,1.653-0.57,3.385-0.934,5.101c-0.763,3.624-1.596,8.976-1.229,13.901c0.482,6.5,1.287,11.532,2.387,14.965
					c2.297,7.134,7.469,10.99,12.473,14.718l0.77,0.573c0.436,0.225,1.25,0.713,1.359,1.649
					C250.87,372.625,250.873,372.693,250.873,372.76z M233.339,319.469c-0.104,0.143-0.218,0.297-0.35,0.482
					c-1.934,2.744-2.056,8.102-1.946,13.102c0.269-2.59,0.697-4.996,1.102-6.93c0.353-1.678,0.64-3.368,0.91-4.979
					C233.152,320.574,233.244,320.012,233.339,319.469z M235.055,310.811c-0.088,0.586-0.079,1.303-0.057,2.053
					c0.047-0.111,0.095-0.219,0.146-0.325c0.665-1.429,1.715-2.624,2.731-3.778c0.211-0.242,0.425-0.48,0.626-0.722
					c-0.491,0.372-0.986,0.789-1.488,1.211C236.383,309.785,235.733,310.333,235.055,310.811z M245.376,286.12
					c-1.64,0.416-3.26,0.876-4.855,1.388c-1.883,0.608-3.734,1.508-5.548,2.605C238.184,288.52,241.678,287.225,245.376,286.12z"/>
			</g>
		</g>
		<g>
			<g>
				<path fill="#F89521" d="M345.896,297.971c7.199-0.371,7.646-6.226,11.424-9.395c7.543-6.329,22.747-6.497,30.174-2.016
					c6.13,3.698,10.229,12.623,6.209,19.817c-2.771,4.947-10.805,10.675-19.442,13.16c-3.967,1.146-8.86,1.551-13.557,2.446
					c-4.747,0.904-9.515,2.429-13.829,2.856c-3.978,0.397-10.55-0.577-15.661,0.775c-2.041,0.536-5.188,1.997-7.745,3.354
					c-2.962,1.577-5.895,5.194-8.816,4.986c-2.521-0.178-3.819-2.542-4.485-4.699c-1.892-6.113,0.164-14.173,3.271-16.502
					c3.715-2.785,10.586-2.709,16.653-4.49c1.757-0.521,3.392-1.632,5.115-2.464c1.981-0.959,4.255-1.509,5.525-2.198
					C343.373,302.178,344.017,300.16,345.896,297.971z"/>
				<path fill="#3B2518" d="M314.893,335.48c-0.119,0-0.232-0.006-0.353-0.013c-1.881-0.133-4.423-1.239-5.818-5.759
					c-1.939-6.27-0.055-15.266,3.807-18.158c2.633-1.975,6.427-2.627,10.44-3.318c2.229-0.385,4.535-0.781,6.695-1.416
					c1.016-0.303,2.037-0.856,3.119-1.446c0.584-0.317,1.17-0.642,1.766-0.929c1.085-0.522,2.229-0.924,3.239-1.279
					c0.876-0.309,1.706-0.602,2.224-0.883c1.488-0.809,2.21-1.842,3.128-3.154c0.455-0.648,0.966-1.387,1.608-2.137
					c0.271-0.316,0.659-0.506,1.068-0.527c4.065-0.208,5.459-2.32,7.229-4.998c0.928-1.402,1.886-2.857,3.302-4.043
					c4.136-3.47,10.636-5.456,17.831-5.456c5.476,0,10.615,1.205,14.098,3.306c6.847,4.135,11.191,13.897,6.746,21.85
					c-3.098,5.536-11.652,11.375-20.345,13.875c-2.58,0.74-5.442,1.171-8.475,1.624c-1.729,0.262-3.484,0.522-5.216,0.854
					c-1.805,0.344-3.608,0.775-5.391,1.205c-2.992,0.719-5.813,1.396-8.571,1.67c-1.306,0.131-3.214,0.117-5.37,0.073
					c-0.949-0.019-1.938-0.042-2.934-0.042c-2.084,0-4.78,0.079-7.121,0.701c-1.643,0.434-4.487,1.668-7.427,3.229
					c-0.921,0.494-1.873,1.233-2.883,2.017C319.292,333.875,317.227,335.48,314.893,335.48z M346.652,299.428
					c-0.385,0.485-0.715,0.963-1.034,1.422c-1.005,1.444-2.047,2.939-4.169,4.084c-0.727,0.398-1.665,0.729-2.654,1.076
					c-0.98,0.346-1.997,0.702-2.934,1.153c-0.553,0.269-1.092,0.563-1.631,0.858c-1.174,0.64-2.388,1.303-3.712,1.692
					c-2.33,0.685-4.726,1.099-7.035,1.495c-3.646,0.628-7.094,1.221-9.144,2.759c-2.341,1.755-4.565,8.919-2.73,14.849
					c0.716,2.313,1.771,3.537,3.145,3.636l0.139,0.004c1.3,0,2.949-1.28,4.542-2.519c1.068-0.828,2.169-1.684,3.32-2.297
					c1.192-0.636,5.291-2.754,8.076-3.486c2.671-0.706,5.623-0.797,7.891-0.797c1.02,0,2.024,0.021,2.996,0.041
					c1.877,0.037,3.607,0.078,5.008-0.061c2.552-0.253,5.276-0.908,8.165-1.604c1.805-0.433,3.668-0.879,5.528-1.231
					c1.771-0.338,3.57-0.608,5.336-0.874c2.93-0.438,5.695-0.854,8.086-1.542c7.868-2.265,15.841-7.616,18.543-12.446
					c3.536-6.33-0.147-14.453-5.67-17.783c-3.023-1.826-7.594-2.873-12.536-2.873c-6.4,0-12.343,1.774-15.888,4.744
					c-1.078,0.905-1.88,2.117-2.725,3.397C353.768,295.852,351.736,298.926,346.652,299.428z"/>
			</g>
		</g>
	</g>
	<g>
		<path fill="#E11E2D" d="M245.357,20.106c-119.605,0-216.907,97.306-216.907,216.915c0,119.605,97.302,216.909,216.907,216.909
			c119.6,0,216.905-97.304,216.905-216.909C462.263,117.412,364.957,20.106,245.357,20.106z M59.519,237.021
			c0-50.187,20.004-95.786,52.446-129.259l237.543,283.098c-29.729,20.192-65.584,32-104.15,32
			C142.884,422.859,59.519,339.496,59.519,237.021z M373.674,371.326L135.368,87.317c30.817-22.704,68.859-36.141,109.989-36.141
			c102.472,0,185.836,83.364,185.836,185.845C431.193,289.777,409.096,337.468,373.674,371.326z"/>
	</g>
</g>
</svg>
