<?xml version="1.0" encoding="utf-8"?>
<!-- Generator: Adobe Illustrator 16.0.0, SVG Export Plug-In . SVG Version: 6.00 Build 0)  -->
<!DOCTYPE svg PUBLIC "-//W3C//DTD SVG 1.1//EN" "http://www.w3.org/Graphics/SVG/1.1/DTD/svg11.dtd">
<svg version="1.1" id="Layer_1" xmlns="http://www.w3.org/2000/svg" xmlns:xlink="http://www.w3.org/1999/xlink" x="0px" y="0px"
	 width="500px" height="500px" viewBox="0 0 500 500" enable-background="new 0 0 500 500" xml:space="preserve">
<g id="Layer_1_copy_61">
	<g>
		<path fill="#8A236B" d="M244.199,382.55c0,0-8.435,27.114,54.896,24.485c63.323-2.624,111.925-24.485,111.925-24.485
			l23.646-24.555l-38.53-37.22L244.199,382.55z"/>
		<path fill="#3C2517" d="M290.771,409.693h-0.008c-23.759,0-39.22-4.646-45.956-13.791c-5.11-6.943-3.062-13.799-2.971-14.088
			c0.218-0.705,0.746-1.276,1.43-1.559l151.937-61.771c0.905-0.363,1.947-0.168,2.648,0.511l38.53,37.218
			c0.984,0.952,1.014,2.518,0.068,3.502l-23.648,24.551c-0.218,0.229-0.48,0.413-0.768,0.541
			c-0.491,0.223-49.768,22.088-112.841,24.701C296.292,409.628,293.461,409.693,290.771,409.693z M246.371,384.339
			c-0.204,1.687-0.178,5.156,2.504,8.728c3.994,5.324,14.5,11.672,41.891,11.672h0.006c2.621,0,5.387-0.057,8.221-0.174
			c58.974-2.446,105.656-21.955,110.588-24.086l21.591-22.418l-35.595-34.384L246.371,384.339z"/>
	</g>
	<g>
		<path fill="#C14A49" d="M325.644,254.223c0,0,63.926-49.911,104.646,17.519c-7.969,33.866-108.588,66.551-108.588,66.551
			L325.644,254.223z"/>
		<path fill="#3C2517" d="M321.702,340.77c-0.535,0-1.062-0.174-1.501-0.51c-0.646-0.492-1.01-1.271-0.975-2.083l3.939-84.067
			c0.037-0.721,0.386-1.393,0.953-1.834c0.96-0.748,23.767-18.31,51.314-18.31c23.186,0,42.354,12.279,56.977,36.494
			c0.336,0.554,0.438,1.216,0.292,1.847c-8.199,34.822-106.076,66.987-110.237,68.342C322.219,340.73,321.955,340.77,321.702,340.77
			z M328.057,255.514l-3.712,79.271c17.328-5.984,95.021-34.271,103.284-62.652c-13.592-22.041-31.147-33.217-52.193-33.217
			C352.501,238.917,332.462,252.354,328.057,255.514z"/>
	</g>
	<g>
		<path fill="#F07443" d="M325.644,254.223c0,0-75.752,32.476-81.443,128.327c15.764,49.881,153.252-17.116,153.252-17.116
			l61.735-17.511l-12.699-38.091l-16.197-38.092c0,0-10.072,19.262-48.167,9.629C344.03,271.741,325.644,254.223,325.644,254.223z"
			/>
		<path fill="#3C2517" d="M278.729,403.486c-20.242,0-32.657-6.793-36.887-20.188c-0.093-0.293-0.133-0.593-0.115-0.895
			c5.718-96.264,82.169-130.121,82.942-130.456c0.902-0.394,1.958-0.199,2.679,0.485c0.183,0.17,18.462,17.203,55.386,26.537
			c6.879,1.734,13.28,2.62,19.028,2.62c20.344,0,26.281-10.889,26.334-10.999c0.449-0.849,1.359-1.352,2.297-1.326
			c0.952,0.039,1.802,0.627,2.176,1.506l16.198,38.095l12.771,38.276c0.211,0.639,0.157,1.342-0.16,1.938
			c-0.312,0.6-0.862,1.045-1.512,1.227l-61.529,17.45C393.242,370.229,323.745,403.486,278.729,403.486z M246.698,382.232
			c3.649,10.819,14.423,16.306,32.03,16.306c44.609,0,116.913-34.972,117.638-35.328c0.132-0.062,0.268-0.114,0.411-0.153
			l59.242-16.805l-11.881-35.635l-14.481-34.033c-3.879,4.048-12.235,9.957-27.896,9.957c-6.153,0-12.967-0.932-20.245-2.771
			c-33.121-8.373-51.455-22.48-56.299-26.606C314.976,262.201,252.003,296.596,246.698,382.232z"/>
	</g>
	<g>
		<polygon fill="#471148" points="152.69,416.667 140.43,425.645 119.414,404.1 150.059,398.715 		"/>
		<path fill="#3C2517" d="M140.43,428.12c-0.648,0-1.29-0.257-1.771-0.746l-21.017-21.547c-0.642-0.656-0.866-1.612-0.585-2.485
			c0.285-0.878,1.026-1.523,1.926-1.681l30.649-5.386c0.659-0.109,1.34,0.045,1.883,0.433c0.537,0.394,0.898,0.987,0.998,1.651
			l2.625,17.953c0.135,0.905-0.246,1.812-0.984,2.354l-12.262,8.977C141.45,427.962,140.94,428.12,140.43,428.12z M124.46,405.727
			l16.241,16.647l9.322-6.822l-2.04-13.959L124.46,405.727z"/>
	</g>
	<g>
		<path fill="#8A236B" d="M108.903,344.857L182.9,93.532c0,0,14.013-61.74,49.919-48.164c35.902,13.577,34.585,69.183,32.399,91.073
			c-2.188,21.894-6.127,157.192,33.716,164.636c2.189,24.519-18.83,26.272-18.83,26.272s-36.782-14.017-35.904-105.09
			c0.413-42.696,0.855-98.333,0-127.852c-0.874-30.214-26.966-34.39-33.277-19.265c-11.883,28.48-84.942,274.095-84.942,274.095
			l-6.565,8.756L108.903,344.857z"/>
		<path fill="#3C2517" d="M119.414,360.471c-0.753,0-1.466-0.34-1.934-0.929l-10.509-13.134c-0.508-0.637-0.671-1.475-0.443-2.247
			l73.997-251.325c0.446-1.972,12.123-51.893,42.258-51.893c3.538,0,7.204,0.709,10.906,2.111
			c16.348,6.177,27.129,21.056,32.034,44.219c4.078,19.24,2.977,39.219,1.955,49.418c-3.24,32.432-3.562,155.364,31.709,161.95
			c1.092,0.207,1.911,1.111,2.012,2.219c0.768,8.565-1.049,15.531-5.393,20.693c-6.216,7.395-15.311,8.229-15.693,8.26
			c-0.365,0.045-0.746-0.021-1.093-0.151c-1.565-0.597-38.385-15.681-37.497-107.425c0.457-47.439,0.816-99.717,0-127.755
			c-0.502-17.439-9.7-25.382-18.031-25.382c-4.735,0-8.654,2.614-10.484,7.001c-11.697,28.031-84.126,271.388-84.854,273.845
			c-0.085,0.279-0.218,0.543-0.392,0.779l-6.57,8.758c-0.456,0.613-1.177,0.978-1.94,0.988
			C119.439,360.471,119.425,360.471,119.414,360.471z M111.644,344.318l7.709,9.637l4.384-5.85
			c4.434-14.91,73.237-245.96,84.903-273.917c2.585-6.19,8.352-10.042,15.053-10.042c10.646,0,22.379,9.451,22.982,30.192
			c0.812,28.049,0.484,78.067,0,127.945c-0.793,82.021,29.529,100.344,33.83,102.523c3.12-0.48,16.843-3.619,16.079-21.744
			c-17.021-4.838-28.029-31.274-32.734-78.64c-3.77-37.981-2.121-77.96-1.095-88.224c1.736-17.375,4.646-75.106-30.813-88.516
			c-3.142-1.184-6.22-1.79-9.158-1.79c-26.227,0-37.356,47.71-37.468,48.188L111.644,344.318z"/>
	</g>
	<g>
		<path fill="#8A236B" d="M45.417,382.953c0,0,66.988-4.38,104.642,15.763l-8.751,14.45c0,0-3.067,4.377-0.878,12.479
			L28.776,415.355C28.776,415.355,24.839,396.087,45.417,382.953z"/>
		<path fill="#3C2517" d="M140.43,428.12c-0.078,0-0.149-0.003-0.228-0.011L28.548,417.824c-1.084-0.104-1.976-0.902-2.196-1.973
			c-0.175-0.854-4.03-21.092,17.731-34.984c0.356-0.225,0.756-0.361,1.17-0.387c0.257-0.018,6.348-0.406,15.944-0.406
			c22.133,0,63.263,2.141,90.031,16.459c0.601,0.324,1.042,0.874,1.22,1.529c0.179,0.656,0.082,1.355-0.271,1.938l-8.754,14.45
			c-0.161,0.25-2.329,3.655-0.718,10.109c0.157,0.324,0.25,0.695,0.25,1.085c0,1.377-1.034,2.555-2.5,2.476
			C140.444,428.12,140.438,428.12,140.43,428.12z M31.002,413.073l106.354,9.805c-0.899-6.998,1.789-10.944,1.922-11.134
			l7.293-12.036c-25.855-12.739-64.344-14.681-85.374-14.681c-7.682,0-13.184,0.261-14.981,0.361
			C31.358,395.167,30.698,408.341,31.002,413.073z"/>
	</g>
	<g>
		<path fill="#C14A49" d="M108.903,344.857c0,0,10.511-3.063,17.076,4.383c-3.502,24.957-11.397,31.109-11.397,31.109l-14.433,2.2
			l-2.936-7.647C97.214,374.902,103.651,367.189,108.903,344.857z"/>
		<path fill="#3C2517" d="M100.146,385.027c-1.009,0-1.94-0.62-2.311-1.59l-2.933-7.646c-0.32-0.839-0.163-1.787,0.41-2.473
			c0.054-0.062,6.174-7.734,11.181-29.025c0.207-0.87,0.863-1.562,1.719-1.812c0.1-0.027,2.518-0.725,5.789-0.725
			c3.962,0,9.574,1.018,13.837,5.846c0.478,0.539,0.695,1.267,0.596,1.979c-3.602,25.655-11.976,32.442-12.332,32.722
			c-0.336,0.26-0.729,0.428-1.149,0.494L100.523,385C100.395,385.018,100.27,385.027,100.146,385.027z M100.003,375.268l1.74,4.531
			l11.694-1.779c1.494-1.607,7.035-8.705,9.918-27.935c-2.369-2.239-5.508-3.374-9.354-3.374c-1.217,0-2.279,0.121-3.053,0.246
			C106.785,363.958,101.964,372.35,100.003,375.268z"/>
	</g>
	<g>
		<path fill="#F07443" d="M121.425,388.552c0,0-3.327-16.106-39.667-13.916c-0.875,2.187-8.76,17.515-8.76,17.515
			s25.4,6.127,29.779,3.938C107.156,393.9,121.425,388.552,121.425,388.552z"/>
		<path fill="#3C2517" d="M99.499,399.037L99.499,399.037c-8.412,0-26.322-4.299-27.078-4.482c-0.738-0.175-1.355-0.686-1.67-1.373
			c-0.317-0.691-0.299-1.488,0.05-2.162c3.146-6.123,8.046-15.776,8.656-17.299c0.353-0.893,1.194-1.498,2.149-1.556
			c2.305-0.14,4.559-0.21,6.699-0.21c31.847,0,35.406,15.438,35.544,16.1c0.247,1.189-0.412,2.387-1.558,2.815
			c-0.139,0.053-14.197,5.328-18.41,7.437C102.877,398.805,101.489,399.037,99.499,399.037z M76.657,390.449
			c5.5,1.229,16.99,3.634,22.842,3.634l0,0c1.674,0,2.158-0.202,2.18-0.214c3.353-1.672,12.09-5.055,16.404-6.701
			c-2.168-3.412-9.101-10.264-29.777-10.264c-1.584,0-3.232,0.043-4.915,0.121C81.907,380.146,78.604,386.636,76.657,390.449z"/>
	</g>
	<g>
		<path fill="#471148" d="M277.404,325.895c0,0,8.392-1.172,13.648-9.055c5.254-7.882,3.354-17.262,3.354-17.262
			s12.846-12.078,14.161,7.189c1.312,19.267-25.399,32.403-33.276,24.521c-7.882-7.885-4.744-11.021-4.744-11.021L277.404,325.895z"
			/>
		<path fill="#3C2517" d="M281.98,336.091c-3.526,0-6.444-1.057-8.442-3.053c-3.677-3.675-5.705-7.015-6.034-9.937
			c-0.32-2.811,1.023-4.312,1.292-4.584c0.902-0.897,2.341-0.966,3.32-0.162l5.935,4.863c2.16-0.566,7.403-2.443,10.94-7.753
			c4.63-6.946,3.003-15.313,2.985-15.396c-0.168-0.838,0.109-1.709,0.734-2.297c0.479-0.449,4.82-4.407,9.425-4.407
			c3.649,0,8.153,2.292,8.899,13.229c0.584,8.545-3.667,15.021-7.336,18.95C297.809,331.854,289.081,336.091,281.98,336.091z
			 M274.591,326.786c0.632,0.817,1.435,1.737,2.451,2.754c1.317,1.323,3.416,1.603,4.938,1.603c5.724,0,13.166-3.69,18.099-8.974
			c3-3.21,6.479-8.459,6.017-15.231c-0.221-3.221-1.025-8.623-3.959-8.623c-1.711,0-3.802,1.302-5.085,2.277
			c0.351,3.188,0.577,10.844-3.94,17.621c-5.803,8.706-14.976,10.079-15.362,10.133c-0.683,0.104-1.377-0.096-1.912-0.535
			L274.591,326.786z"/>
	</g>
	<g>
		<path fill="#471148" d="M463.958,353.68c-5.609,22.09-25.521,36.096-44.479,31.28c-18.962-4.812-29.782-26.619-24.173-48.709
			c5.604-22.086,25.519-36.099,44.477-31.283C458.741,309.783,469.565,331.59,463.958,353.68z"/>
		<path fill="#3C2517" d="M427.055,388.383c-2.757,0-5.514-0.345-8.188-1.023c-9.879-2.51-18.019-9.313-22.906-19.174
			c-4.825-9.727-5.909-21.285-3.054-32.541c5.012-19.761,21.542-34.097,39.302-34.097c2.757,0,5.51,0.343,8.185,1.021
			c20.254,5.143,31.896,28.346,25.968,51.722C461.344,374.044,444.811,388.383,427.055,388.383z M432.208,306.494
			c-15.527,0-30.035,12.771-34.5,30.367c-2.568,10.111-1.613,20.457,2.688,29.123c4.239,8.545,11.229,14.434,19.688,16.576
			c2.279,0.582,4.622,0.873,6.969,0.873c15.527,0,30.039-12.771,34.5-30.363c5.265-20.73-4.777-41.233-22.382-45.701
			C436.897,306.791,434.551,306.494,432.208,306.494z"/>
	</g>
</g>
</svg>
