<svg id="vegetable_shop" data-name="vegetable shop" xmlns="http://www.w3.org/2000/svg" viewBox="0 0 300 300"><defs><style>.cls-1{fill:#5fae46;}.cls-2{fill:#3c2417;}.cls-3{fill:#1d6935;}.cls-4{fill:#327d3d;}.cls-5{fill:#309144;}.cls-6{fill:#ed7923;}.cls-7{fill:#3b2314;}.cls-8{fill:#cf6228;}</style></defs><title>veggetable shop</title><path class="cls-1" d="M69,131.85s13.62-.24,17.82,8a182.62,182.62,0,0,1,7.94,19s2.65,3.14,8.36-.84.19-4.26,8.6-6.84,9.47-6,5.84-6.51-10.33-.8-12.5-5.47-9.48-12-6.55-17.75,5.87-17.43,5.24-19.94S89,107.23,89,107.23s.55,14.56-.47,18.84c-.52,2.23.92,3.67-8.36-1a29.89,29.89,0,0,0-17.53-3Z"/><path class="cls-2" d="M118.53,150.23a24.85,24.85,0,0,1-6.21,2.72,17.35,17.35,0,0,0-3.78,1.47c-.28.19-.28.19-.45.64-.47,1.28-1.11,2.57-3.84,4.47l-.45.31c-6.76,4.43-10.3.36-10.45.19a2,2,0,0,1-.35-.6,177.29,177.29,0,0,0-7.84-18.71c-3.62-7.09-16-7-16.08-7a1.88,1.88,0,0,1-1.63-.86L61,123.08a1.92,1.92,0,0,1-.15-1.79,1.89,1.89,0,0,1,1.39-1.12A31.53,31.53,0,0,1,81,123.38c2.63,1.32,4.5,2.19,5.59,2.6,0-.11,0-.23.07-.35.78-3.3.56-14.35.41-18.33a1.93,1.93,0,0,1,1-1.72c8.63-5,14.07-7.16,16.17-6.28a2.47,2.47,0,0,1,1.45,1.68c.83,3.32-2.56,15.7-5.39,21.28-1.63,3.19,1.29,7.63,3.87,11.54a37.63,37.63,0,0,1,2.72,4.53c1.45,3.15,6.13,3.75,9.54,4.2.55.06,1.05.13,1.51.2,2.74.41,3.38,2,3.53,2.72C121.67,146.61,121.38,148.38,118.53,150.23Zm-12.08,1a19.78,19.78,0,0,1,4.75-1.94c3.83-1.17,5.3-2.21,6-2.81-.4,0-.83-.12-1.29-.17-4.05-.52-10.18-1.31-12.53-6.37a35.53,35.53,0,0,0-2.44-4c-3-4.54-6.72-10.19-4.09-15.38A62.65,62.65,0,0,0,102,103a66.11,66.11,0,0,0-11,5.27c.11,3.71.35,14.37-.56,18.2-.05.24-.07.46-.1.66A3.09,3.09,0,0,1,89,129.65h0c-1.55,1-3.36.34-9.74-2.85A29.42,29.42,0,0,0,66,123.69L70.09,130c3.51.14,14.47,1.18,18.47,9a179.64,179.64,0,0,1,7.88,18.72c.51.32,2.15,1,5.27-1.06l.36-.24c2-1.37,2.2-2,2.43-2.66A4.55,4.55,0,0,1,106.45,151.23Z"/><path class="cls-3" d="M51.3,110.91s-12.17,10.89-1.46,13.64c-3.86,5.45,4.71,11.3,14.31,6,0,0,5.8,5.23,13.75-4.84,0,0,10.57-1.56,10.23-12.07,15.79-10.82,6.53-18.17,6.53-18.17s2.76-16.2-9.81-10.9c-4.6-4.3-14.75-9.37-16.17,5.71-8.77-5.24-14.12.21-14.88,9.48C45.87,100.81,40.26,104.48,51.3,110.91Z"/><path class="cls-2" d="M74.2,131.85c-4.71,3.08-8.39,1.89-10.17.91-6.52,3.14-12.6,1.79-15.4-1.33a6,6,0,0,1-1.42-5.79,6,6,0,0,1-3.53-4c-.91-3.77,2.31-8,4.57-10.43-3.32-2.27-5-4.45-5-6.63a5,5,0,0,1,2.61-4.33,17.46,17.46,0,0,1,6.24-2.18c.67-4.82,2.58-8.47,5.45-10.35,2-1.29,5.15-2.26,9.65-.38.74-3.83,2.22-6.49,4.41-7.93,4.26-2.78,9.81-.3,13.67,2.93,3.47-1.22,6.28-1,8.35.64,3.66,2.91,3.37,9.22,3.08,11.77a9.7,9.7,0,0,1,2.58,6.84c-.15,4.36-3.26,8.74-9.22,13a12.56,12.56,0,0,1-5.85,10.57A16.85,16.85,0,0,1,79,127.44,21.84,21.84,0,0,1,74.2,131.85ZM47.92,103.48c-.33.21-.89.63-.88,1,0,.17.19,1.81,5.22,4.74a1.91,1.91,0,0,1,.94,1.46,1.88,1.88,0,0,1-.63,1.61c-2.46,2.22-5.7,6.3-5.18,8.43.26,1,1.73,1.64,2.92,1.95a1.9,1.9,0,0,1,1.08,3,2.35,2.35,0,0,0,.09,3.22c1.89,2.11,6.64,2.82,11.75,0a1.9,1.9,0,0,1,2.2.25c.25.21,2.71,2.12,6.68-.47a19.12,19.12,0,0,0,4.29-4.14,1.87,1.87,0,0,1,1.22-.7A13.1,13.1,0,0,0,82.1,122a9,9,0,0,0,4.12-8.32,1.9,1.9,0,0,1,.83-1.63c5.35-3.67,8.25-7.31,8.4-10.53a6,6,0,0,0-2-4.59,1.89,1.89,0,0,1-.68-1.8c.3-1.81.67-7.39-1.56-9.15-1.39-1.1-3.83-.43-5.63.33a1.91,1.91,0,0,1-2-.36c-2.47-2.32-7.15-5.12-9.88-3.33C72,83.71,71,86.41,70.58,90.45a1.9,1.9,0,0,1-2.88,1.46c-2.28-1.36-5.54-2.63-8.09-1-2.13,1.4-3.55,4.67-3.91,9a1.91,1.91,0,0,1-1.65,1.74A15.56,15.56,0,0,0,47.92,103.48Z"/><path class="cls-4" d="M95.92,111.47s-.06,8.09,8.58,2.68c12.54.09,13.06-10,13.06-10S131,92,120.18,86.82c4.45-10,2.49-18-10.42-13.19-2.76-10.13-7.45-7.31-12.89-1.56,0,0-15.7-1.64-14.81,10.32-12.89,4.73-3.33,13.26-3.33,13.26s-6.47,7.82,1.06,10.25c-5.12,5.33,2.47,8.41,6.73,7.09C86.52,113,90.52,118.66,95.92,111.47Z"/><path class="cls-2" d="M113.86,113.65a16.42,16.42,0,0,1-8.82,2.41c-3.32,2-6,2.38-8.09,1.23a5.22,5.22,0,0,1-2-2c-.25.2-.51.39-.77.56h0a6.51,6.51,0,0,1-8.36-.72c-3.2.47-7.28-.63-8.94-3.32a5,5,0,0,1,0-5.17,5.76,5.76,0,0,1-2.41-3.2c-.83-2.82.67-5.85,1.78-7.58-1.28-1.5-3.06-4.17-2.83-7.21s2.46-5.67,6.69-7.51a9.91,9.91,0,0,1,4.57-8.46C88.6,70.09,94,70,96.11,70.11a26.2,26.2,0,0,1,4.23-3.66c2.21-1.44,4.25-1.83,6-1.15,2,.75,3.47,2.65,4.62,5.9,5.16-1.56,8.94-1.11,11.23,1.34,2.57,2.73,2.68,7.48.35,13.46a7.75,7.75,0,0,1,3.61,5.37c.84,5.69-4.92,11.83-6.83,13.69A12.75,12.75,0,0,1,113.86,113.65Zm-19-3.77a1.91,1.91,0,0,1,3,1.6c0,.63.25,2.07,1,2.48.3.16,1.53.54,4.68-1.43a2,2,0,0,1,1-.29,12.88,12.88,0,0,0,7.25-1.79,8.85,8.85,0,0,0,3.88-6.42,1.93,1.93,0,0,1,.62-1.29c1.9-1.74,6.71-7.06,6.15-10.81-.21-1.39-1.21-2.5-3.07-3.39a1.91,1.91,0,0,1-.92-2.5c2.24-5,2.63-9.18,1-10.89-1.38-1.47-4.58-1.37-9,.27a1.88,1.88,0,0,1-1.54-.09,1.91,1.91,0,0,1-1-1.19c-1.15-4.2-2.4-5.08-2.89-5.26-1.21-.46-3.41.93-6.78,4.5a1.88,1.88,0,0,1-1.58.59c-.07,0-6.14-.59-9.9,1.87-2.12,1.38-3,3.48-2.82,6.41a1.91,1.91,0,0,1-1.25,1.94c-3.44,1.26-5.33,2.86-5.48,4.7-.16,2.18,2,4.59,2.78,5.34a1.91,1.91,0,0,1,.19,2.63c-.7.86-2.58,3.7-2.06,5.48.08.28.33,1.12,2.24,1.74a1.91,1.91,0,0,1,1.26,1.35,1.93,1.93,0,0,1-.47,1.79c-.72.75-1.49,1.81-1,2.55.78,1.28,3.83,2,5.81,1.4a1.91,1.91,0,0,1,2.12.72,2.8,2.8,0,0,0,4,.73,9.49,9.49,0,0,0,2.29-2.29A2,2,0,0,1,94.87,109.88Z"/><path class="cls-1" d="M125.84,118.89s6.34,12,.88,19.5A181.91,181.91,0,0,1,113.38,154s-1.62,3.78,4.51,7.09,3.88-1.76,10,4.59,9.58,5.77,8.43,2.29-3.92-9.58-.72-13.63,6.45-13.86,12.88-13.83,18.2-2.62,20.17-4.31-11.83-10.61-11.83-10.61-12.75,7.05-17,8.08c-2.22.53-2.86,2.45-2.88-7.92a29.89,29.89,0,0,0-5.16-17Z"/><path class="cls-2" d="M131.69,171.34a24.56,24.56,0,0,1-5.2-4.33,17,17,0,0,0-3-2.7c-.29-.17-.29-.17-.76-.12-1.35.16-2.8.17-5.72-1.41l-.48-.27c-7-4-5-9-4.88-9.24a2,2,0,0,1,.39-.59,180.69,180.69,0,0,0,13.17-15.42c4.7-6.41-1-17.37-1-17.48a2,2,0,0,1,0-1.85l5.89-10.16a1.89,1.89,0,0,1,1.52-1,1.93,1.93,0,0,1,1.64.74,31.62,31.62,0,0,1,5.55,18.19c0,2.94.08,5,.2,6.16a1.89,1.89,0,0,1,.34-.09c3.3-.8,13.07-6,16.55-7.89a1.89,1.89,0,0,1,2,.07c8.39,5.42,12.72,9.33,12.88,11.6a2.48,2.48,0,0,1-.84,2.06c-2.6,2.23-15.17,4.79-21.42,4.77-3.59,0-6.23,4.58-8.56,8.65a39.5,39.5,0,0,1-2.83,4.46c-2.15,2.72-.58,7.17.56,10.42.18.51.35,1,.49,1.42.86,2.64-.3,3.94-.84,4.38C136.35,172.5,134.63,173,131.69,171.34ZM125.37,161a19.41,19.41,0,0,1,3.87,3.37c2.77,2.9,4.37,3.74,5.2,4.08l-.42-1.23c-1.36-3.85-3.41-9.68,0-14.05a35,35,0,0,0,2.51-4c2.7-4.72,6.07-10.59,11.88-10.57a63.16,63.16,0,0,0,17.91-3.32,67,67,0,0,0-9.66-7.47c-3.26,1.78-12.68,6.79-16.5,7.71a6,6,0,0,0-.64.21,3.09,3.09,0,0,1-2.76,0c-1.61-.93-1.83-2.85-1.84-10a29.36,29.36,0,0,0-3.22-13.29L128,119c1.46,3.19,5.46,13.45.26,20.55A179.52,179.52,0,0,1,115.1,155c-.06.6.08,2.36,3.31,4.22l.39.22c2.1,1.14,2.79,1.06,3.46,1A4.44,4.44,0,0,1,125.37,161Z"/><path class="cls-4" d="M136.55,93.61s-15.2-6-12.84,4.83c-6.6-1-8,9.31,1.09,15.49,0,0-2.07,7.53,10.52,10.09,0,0,6.13,8.75,15.36,3.71,16.77,9.22,19.17-2.37,19.17-2.37s15.7-4.82,5.31-13.66c1.78-6,1.74-17.39-12.36-11.87.73-10.19-6.54-12.5-15.17-9C143.14,84.21,137.33,80.85,136.55,93.61Z"/><path class="cls-2" d="M128.16,123.49c-4.87-2.82-5.47-6.64-5.39-8.67-5.74-4.42-7.27-10.46-5.73-14.36a6,6,0,0,1,4.52-3.87,5.92,5.92,0,0,1,2-4.94c3-2.52,8.19-1.54,11.36-.62.54-4,1.74-6.43,3.66-7.46a4.9,4.9,0,0,1,5.05.37,17.25,17.25,0,0,1,4.74,4.59C153,87,157.06,87,160,88.74c2,1.18,4.33,3.58,4.67,8.43,3.76-1.06,6.8-.94,9.07.38,4.39,2.54,4.68,8.62,3.53,13.52,2.64,2.55,3.72,5.15,3.18,7.74-.94,4.58-6.72,7.16-9.12,8a9.74,9.74,0,0,1-5,5.39c-4,1.82-9.26,1-15.76-2.37a12.54,12.54,0,0,1-12.07-.46,16.84,16.84,0,0,1-4.35-3.67A21.8,21.8,0,0,1,128.16,123.49Zm13.52-36.25c-.35-.2-1-.51-1.33-.32-.16.09-1.54,1-1.89,6.8a1.91,1.91,0,0,1-2.6,1.67c-3.09-1.21-8.19-2.26-9.86-.84-.83.7-.69,2.29-.42,3.48a1.91,1.91,0,0,1-2.15,2.3,2.35,2.35,0,0,0-2.84,1.52c-1,2.64.47,7.21,5.28,10.5a1.89,1.89,0,0,1,.77,2.08c-.07.31-.67,3.38,3.43,5.75a18.93,18.93,0,0,0,5.63,2,1.86,1.86,0,0,1,1.18.77,12.9,12.9,0,0,0,3.62,3.19,9,9,0,0,0,9.27-.07,1.92,1.92,0,0,1,1.83,0c5.71,3.14,10.28,4.09,13.22,2.73A6,6,0,0,0,168,125a2,2,0,0,1,1.31-1.44c1.76-.54,6.91-2.72,7.47-5.51.36-1.74-1.33-3.61-2.82-4.88a1.9,1.9,0,0,1-.6-2c1-3.26,1.36-8.69-1.46-10.32-1.7-1-4.59-.72-8.37.76a1.91,1.91,0,0,1-2.6-1.91c.19-2.65-.14-6.13-2.77-7.66-2.21-1.27-5.77-1.07-9.78.55a1.9,1.9,0,0,1-2.29-.69A15.94,15.94,0,0,0,141.68,87.24Z"/><path class="cls-4" d="M156.12,133.7s-7.24,3.59,1.47,8.87c5.56,11.23,14.81,7.16,14.81,7.16s16.93,6.48,16.66-5.47c10.92-.52,17.17-5.86,7.09-15.23,7.8-7,3.17-10-4.42-12.22,0,0-5.6-14.76-15.88-8.58-10-9.38-13.32,3-13.32,3s-9.9-2.25-8.68,5.56c-7.07-2.18-6.39,6-3.31,9.2C150.54,126,147.28,132.12,156.12,133.7Z"/><path class="cls-2" d="M162.25,150.7a16.28,16.28,0,0,1-6.12-6.79c-3.24-2.07-4.83-4.31-4.73-6.67a5,5,0,0,1,.92-2.69,7.49,7.49,0,0,1-.85-.43h0a6.49,6.49,0,0,1-3.11-7.79c-1.87-2.66-2.73-6.79-1.07-9.49a5,5,0,0,1,4.62-2.31,5.85,5.85,0,0,1,1.77-3.61c2.15-2,5.53-2,7.58-1.82.76-1.82,2.34-4.6,5.16-5.77s6.17-.37,9.7,2.59a9.93,9.93,0,0,1,9.62.27c4,2.34,6.51,7.08,7.4,9a25.47,25.47,0,0,1,5.17,2.14c2.29,1.32,3.55,3,3.76,4.89.22,2.1-.8,4.28-3.19,6.77,3.72,3.92,5,7.49,3.87,10.64-1.29,3.53-5.48,5.75-11.87,6.37a7.75,7.75,0,0,1-3.18,5.64c-4.7,3.32-12.78.93-15.3.06A12.71,12.71,0,0,1,162.25,150.7Zm-5.17-18.65a1.9,1.9,0,0,1-.11,3.36c-.55.28-1.73,1.16-1.76,2,0,.34.2,1.61,3.37,3.53a1.89,1.89,0,0,1,.72.79,13,13,0,0,0,4.86,5.67,8.86,8.86,0,0,0,7.47.58,1.92,1.92,0,0,1,1.45,0c2.41.92,9.32,2.82,12.43.63,1.15-.81,1.69-2.21,1.64-4.26a1.9,1.9,0,0,1,1.82-1.95c5.48-.26,9.39-1.79,10.19-4,.7-1.88-.84-4.7-4.31-7.94a1.9,1.9,0,0,1,0-2.81c3.23-2.91,3.46-4.43,3.4-4.94-.14-1.29-2.37-2.63-7.08-4a1.87,1.87,0,0,1-1.24-1.15s-2.24-5.73-6.12-8c-2.19-1.26-4.48-1.14-7,.37a1.91,1.91,0,0,1-2.29-.24c-2.68-2.51-5-3.47-6.67-2.76-2,.83-3.24,3.87-3.51,4.86a1.92,1.92,0,0,1-2.27,1.37c-1.08-.24-4.46-.64-5.82.63-.21.2-.85.8-.54,2.77a1.91,1.91,0,0,1-2.45,2.12c-1-.3-2.28-.51-2.74.23-.79,1.28-.07,4.33,1.37,5.83a1.92,1.92,0,0,1,.31,2.22,2.79,2.79,0,0,0,1.15,3.92h0a9.75,9.75,0,0,0,3.08,1A1.93,1.93,0,0,1,157.08,132.05Z"/><path class="cls-5" d="M95.93,99s11.52,7.25,10.53,16.43a182.13,182.13,0,0,1-3.73,20.2s.5,4.09,7.46,3.88,2.48-3.47,10.93-1,11.19.21,8.46-2.24-8.21-6.33-7.46-11.43-1.36-15.23,4.23-18.43S140.8,95,141.65,92.55s-15.55-3.27-15.55-3.27-7.52,12.48-10.71,15.51c-1.65,1.57-1.24,3.56-6.47-5.41a29.93,29.93,0,0,0-13-12.14Z"/><path class="cls-2" d="M127.28,141.43a24.92,24.92,0,0,1-6.69-1.13,16.86,16.86,0,0,0-4-.83c-.34,0-.34,0-.72.28-1.09.81-2.34,1.54-5.66,1.64h-.55c-8.09,0-8.83-5.34-8.85-5.56a1.77,1.77,0,0,1,0-.69,181,181,0,0,0,3.68-20c.85-7.88-9.55-14.55-9.65-14.62A1.92,1.92,0,0,1,94,99V87.24a1.9,1.9,0,0,1,2.63-1.77,31.7,31.7,0,0,1,13.92,13c1.48,2.54,2.57,4.29,3.26,5.22l.25-.25c2.46-2.33,8.33-11.7,10.38-15.11a1.91,1.91,0,0,1,1.73-.92c10,.5,15.7,1.71,17,3.6a2.5,2.5,0,0,1,.3,2.2c-1.12,3.23-10.74,11.73-16.17,14.85-3.11,1.78-3.09,7.09-3.07,11.77a39.11,39.11,0,0,1-.21,5.27c-.5,3.44,3.08,6.5,5.7,8.74.41.35.8.68,1.14,1,2.07,1.85,1.71,3.56,1.46,4.21C131.89,140.11,130.67,141.43,127.28,141.43Zm-10.66-5.78a19.4,19.4,0,0,1,5,1c3.86,1.12,5.66,1.05,6.55.93-.3-.27-.63-.56-1-.86-3.1-2.65-7.8-6.67-7-12.19a36.67,36.67,0,0,0,.17-4.7c0-5.45,0-12.21,5-15.1a63,63,0,0,0,13.84-11.83c-2.19-.7-7.38-1.34-12.11-1.63-1.93,3.16-7.57,12.21-10.42,14.92a6.33,6.33,0,0,0-.45.5,3.1,3.1,0,0,1-2.39,1.39c-1.86,0-3-1.55-6.6-7.72a29.37,29.37,0,0,0-9.43-9.89V98c2.86,2,11.46,8.9,10.52,17.65a181.27,181.27,0,0,1-3.66,20c.25.55,1.26,2,5,2h.44c2.39-.07,3-.48,3.49-.88A4.49,4.49,0,0,1,116.62,135.65Z"/><path class="cls-3" d="M92.55,71.72s-16.15,2.45-8.7,10.62c-6.21,2.45-2.24,12,8.7,12.86,0,0,2,7.55,14.15,3.47,0,0,9.7,4.48,15.17-4.49,19.14-.41,15.42-11.64,15.42-11.64s11.18-12.05-2.24-14.5c-1.5-6.12-7.21-15.92-16.66-4.08-4.47-9.18-11.93-7.55-17.64-.2C93.54,60.29,86.83,60.29,92.55,71.72Z"/><path class="cls-2" d="M100.24,101.78c-5.62,0-8-3-9-4.8-7.18-.94-11.53-5.41-12.16-9.55a6,6,0,0,1,2-5.62,6,6,0,0,1-.78-5.26c1.28-3.63,6.39-5.43,9.53-6.22-1.53-3.72-1.72-6.45-.58-8.31a5,5,0,0,1,4.56-2.2,17.4,17.4,0,0,1,6.41,1.6c3.2-3.68,6.8-5.68,10.24-5.68,2.35,0,5.54.93,8.28,5,2.71-2.8,5.41-4.21,8-4.21,5.08,0,8.38,5.11,9.83,9.93,3.57.88,5.8,2.6,6.64,5.11C144.7,76,141,81.1,139.36,83.07a9.72,9.72,0,0,1-1.59,7.14c-2.52,3.57-7.51,5.53-14.84,5.84a12.58,12.58,0,0,1-10.69,5.65,16.94,16.94,0,0,1-5.6-1A22.26,22.26,0,0,1,100.24,101.78ZM93.79,63.64c-.4,0-1.1,0-1.31.39-.09.15-.83,1.62,1.77,6.83a1.89,1.89,0,0,1,0,1.73,1.93,1.93,0,0,1-1.4,1c-3.28.5-8.23,2.14-9,4.21-.36,1,.55,2.32,1.38,3.23a1.9,1.9,0,0,1-.71,3.06,2.36,2.36,0,0,0-1.69,2.75c.42,2.8,4,6,9.83,6.43a1.9,1.9,0,0,1,1.7,1.42C94.48,95,95.5,98,100.24,98a18.51,18.51,0,0,0,5.86-1.12,1.91,1.91,0,0,1,1.41.09,13,13,0,0,0,4.73.94,9,9,0,0,0,8-4.7,1.94,1.94,0,0,1,1.59-.91c6.48-.14,10.9-1.6,12.79-4.22a5.94,5.94,0,0,0,.85-4.93,1.94,1.94,0,0,1,.42-1.88c1.24-1.35,4.61-5.82,3.71-8.51-.57-1.69-3-2.46-4.9-2.81a1.9,1.9,0,0,1-1.51-1.42c-.8-3.3-3.18-8.2-6.44-8.2-2,0-4.34,1.68-6.87,4.85a1.89,1.89,0,0,1-1.7.71,1.91,1.91,0,0,1-1.51-1.06c-1.16-2.39-3.19-5.24-6.23-5.24-2.55,0-5.53,2-8.19,5.37a1.91,1.91,0,0,1-2.33.55A15.68,15.68,0,0,0,93.79,63.64Z"/><path class="cls-3" d="M129.58,96.62s-4.48,6.74,5.72,6.94c10.43,6.94,16.39-1.22,16.39-1.22s17.89-2.86,11.68-13.06c9.19-5.92,11.92-13.68-1.49-16.75,3.23-10-2.23-10.2-9.94-8.37,0,0-12.23-10-18,.53-13.37-3.1-10,9.28-10,9.28s-9.7,3-4.72,9.16c-7.21,1.66-2.54,8.39,1.74,9.62C120.88,92.75,121.12,99.69,129.58,96.62Z"/><path class="cls-2" d="M143.4,108.27a16.29,16.29,0,0,1-8.7-2.81c-3.85-.18-6.35-1.32-7.45-3.41a5.24,5.24,0,0,1-.55-2.78c-.32,0-.64,0-1,0h0a6.51,6.51,0,0,1-6.6-5.18c-2.94-1.37-5.75-4.52-5.67-7.68a5,5,0,0,1,2.84-4.32,5.78,5.78,0,0,1-.27-4c.86-2.81,3.77-4.53,5.64-5.37-.24-2-.27-5.16,1.58-7.59s5.17-3.4,9.71-2.61A9.9,9.9,0,0,1,141.44,58c4.67,0,9.18,2.86,10.94,4.13a25.9,25.9,0,0,1,5.55-.75c2.64,0,4.55.8,5.69,2.36,1.24,1.71,1.45,4.1.63,7.46,5.18,1.52,8.09,4,8.67,7.27.65,3.7-1.85,7.73-7.08,11.46a7.8,7.8,0,0,1,.08,6.48c-2.42,5.22-10.59,7.2-13.21,7.71A12.74,12.74,0,0,1,143.4,108.27ZM129.58,94.72a1.91,1.91,0,0,1,1.5.73,1.89,1.89,0,0,1,.09,2.23c-.34.52-.92,1.87-.53,2.6.16.31,1,1.3,4.69,1.37a1.92,1.92,0,0,1,1,.32,12.91,12.91,0,0,0,7.05,2.48,8.81,8.81,0,0,0,6.75-3.24,2,2,0,0,1,1.24-.75c2.54-.41,9.47-2.23,11.06-5.68.59-1.27.36-2.75-.71-4.51a1.91,1.91,0,0,1,.6-2.6c4.61-3,7.23-6.25,6.82-8.56-.35-2-3.08-3.66-7.7-4.72a1.92,1.92,0,0,1-1.24-.91,2,2,0,0,1-.16-1.53c1.34-4.14.78-5.57.47-6-.76-1-3.36-1.08-8.14.06a1.92,1.92,0,0,1-1.65-.37s-4.81-3.85-9.3-3.85c-2.53,0-4.45,1.25-5.87,3.82a1.91,1.91,0,0,1-2.1.93c-3.59-.83-6-.52-7.17,1-1.33,1.74-.87,5-.6,6a1.9,1.9,0,0,1-1.28,2.32c-1,.33-4.18,1.68-4.72,3.46-.08.27-.34,1.12.92,2.68a1.93,1.93,0,0,1,.32,1.82A1.91,1.91,0,0,1,119.57,85c-1,.23-2.25.69-2.27,1.57,0,1.5,2.11,3.78,4.11,4.35a1.92,1.92,0,0,1,1.37,1.77,2.81,2.81,0,0,0,3,2.82h0a9.44,9.44,0,0,0,3.18-.67A1.81,1.81,0,0,1,129.58,94.72Z"/><path class="cls-1" d="M88.72,133.34s11.53,7.26,10.53,16.45A181.2,181.2,0,0,1,95.53,170s.49,4.09,7.45,3.89,2.49-3.48,10.94-1,11.19.21,8.45-2.24-8.21-6.32-7.46-11.43-1.36-15.24,4.23-18.44,14.46-11.37,15.31-13.82-15.56-3.26-15.56-3.26-7.52,12.48-10.71,15.51c-1.66,1.57-1.24,3.56-6.46-5.41a30,30,0,0,0-13-12.15Z"/><path class="cls-2" d="M120.07,175.82a25.19,25.19,0,0,1-6.68-1.13,17.66,17.66,0,0,0-4-.84c-.33,0-.33,0-.72.29-1.09.81-2.34,1.54-5.66,1.64h-.55c-8.08,0-8.82-5.34-8.85-5.56a2,2,0,0,1,0-.69,179.76,179.76,0,0,0,3.69-20c.85-7.91-9.55-14.55-9.65-14.62a1.91,1.91,0,0,1-.9-1.62V121.61a1.9,1.9,0,0,1,.85-1.58,1.93,1.93,0,0,1,1.79-.18,31.64,31.64,0,0,1,13.92,13c1.48,2.54,2.56,4.29,3.25,5.23l.25-.24c2.46-2.34,8.33-11.71,10.38-15.12a1.93,1.93,0,0,1,1.73-.92c10,.5,15.7,1.71,17,3.6a2.43,2.43,0,0,1,.3,2.2c-1.12,3.23-10.73,11.73-16.16,14.85-3.12,1.78-3.1,7.09-3.08,11.78a37.74,37.74,0,0,1-.21,5.28c-.5,3.43,3.08,6.5,5.69,8.73l1.15,1c2.07,1.86,1.71,3.57,1.47,4.22C124.68,174.5,123.47,175.82,120.07,175.82ZM109.41,170a19.47,19.47,0,0,1,5,1c3.85,1.11,5.65,1,6.55.93l-1-.86c-3.11-2.65-7.8-6.67-7-12.19a35,35,0,0,0,.17-4.71c0-5.44,0-12.21,5-15.11A63.07,63.07,0,0,0,132,127.25a66.45,66.45,0,0,0-12.12-1.62c-1.93,3.16-7.57,12.21-10.42,14.92a4.94,4.94,0,0,0-.45.5,3.12,3.12,0,0,1-2.4,1.39h0c-1.84,0-3-1.55-6.58-7.72a29.44,29.44,0,0,0-9.44-9.88v7.49c2.87,2,11.46,8.91,10.52,17.66a179.35,179.35,0,0,1-3.65,20c.25.55,1.25,2,5,2h.44c2.39-.07,3-.49,3.49-.89A4.49,4.49,0,0,1,109.41,170Z"/><path class="cls-3" d="M85.34,106.1s-16.15,2.45-8.69,10.62c-6.21,2.45-2.24,12,8.69,12.85,0,0,2,7.56,14.16,3.48,0,0,9.7,4.49,15.16-4.5,19.15-.4,15.41-11.63,15.41-11.63s11.19-12-2.23-14.49c-1.49-6.12-7.21-15.91-16.66-4.08-4.47-9.18-11.93-7.55-17.64-.2C86.33,94.68,79.63,94.68,85.34,106.1Z"/><path class="cls-2" d="M93,136.17c-5.63,0-8.06-3-9-4.81-7.17-.94-11.52-5.41-12.15-9.55a6.05,6.05,0,0,1,2-5.62,6,6,0,0,1-.77-5.26c1.29-3.65,6.32-5.44,9.53-6.22-1.54-3.72-1.72-6.45-.58-8.3a5,5,0,0,1,4.55-2.2A17.63,17.63,0,0,1,93,95.8c3.2-3.66,6.79-5.67,10.23-5.67,2.35,0,5.55.93,8.28,5,2.71-2.8,5.41-4.21,8-4.21,5.08,0,8.37,5.11,9.83,9.93,3.57.88,5.8,2.6,6.63,5.11,1.48,4.44-2.23,9.56-3.87,11.53a9.66,9.66,0,0,1-1.58,7.14c-2.51,3.57-7.51,5.53-14.84,5.84A12.58,12.58,0,0,1,105,136.08a16.69,16.69,0,0,1-5.6-1A21.66,21.66,0,0,1,93,136.17ZM86.58,98c-.4,0-1.09,0-1.3.39-.1.15-.84,1.62,1.77,6.83A1.91,1.91,0,0,1,85.63,108c-3.28.5-8.22,2.14-9,4.22-.36,1,.56,2.32,1.39,3.22a1.9,1.9,0,0,1-.71,3.06,2.37,2.37,0,0,0-1.7,2.75c.43,2.79,4,6,9.83,6.43a1.91,1.91,0,0,1,1.71,1.42c.09.31,1.11,3.26,5.85,3.26a18.79,18.79,0,0,0,5.85-1.12,2,2,0,0,1,1.41.08,12.74,12.74,0,0,0,4.73.95,8.94,8.94,0,0,0,8-4.7,1.93,1.93,0,0,1,1.59-.91c6.49-.14,10.91-1.6,12.8-4.22a5.94,5.94,0,0,0,.84-4.92,1.9,1.9,0,0,1,.42-1.88c1.25-1.36,4.61-5.82,3.71-8.51-.56-1.69-3-2.46-4.89-2.81a1.91,1.91,0,0,1-1.52-1.42c-.8-3.3-3.18-8.19-6.43-8.19-2,0-4.34,1.67-6.88,4.84a1.9,1.9,0,0,1-3.2-.35C108.3,96.8,106.28,94,103.23,94c-2.54,0-5.53,2-8.19,5.37a1.92,1.92,0,0,1-2.33.55A15.63,15.63,0,0,0,86.58,98Z"/><path class="cls-4" d="M122.37,131s-4.47,6.74,5.72,6.95c10.44,6.94,16.4-1.23,16.4-1.23s17.89-2.86,11.68-13.06c9.19-5.92,11.92-13.67-1.5-16.74,3.24-10-2.23-10.2-9.93-8.37,0,0-12.24-10-18.05.53-13.37-3.1-10,9.27-10,9.27s-9.69,3-4.72,9.16c-7.21,1.66-2.54,8.38,1.74,9.62C113.67,127.13,113.92,134.06,122.37,131Z"/><path class="cls-2" d="M136.2,142.65a16.28,16.28,0,0,1-8.7-2.82c-3.86-.17-6.36-1.31-7.45-3.4a5.07,5.07,0,0,1-.55-2.78c-.33,0-.65,0-1,0h0a6.49,6.49,0,0,1-6.6-5.18c-3-1.36-5.76-4.51-5.67-7.67a5,5,0,0,1,2.83-4.32,5.76,5.76,0,0,1-.27-4c.86-2.82,3.77-4.53,5.65-5.37-.26-2-.28-5.16,1.57-7.58s5.17-3.4,9.71-2.62a9.91,9.91,0,0,1,8.46-4.59c4.67,0,9.19,2.87,11,4.14a25.74,25.74,0,0,1,5.54-.75c2.64,0,4.56.8,5.69,2.36s1.46,4.11.64,7.46c5.17,1.52,8.09,4,8.66,7.26.66,3.7-1.85,7.73-7.07,11.46a7.73,7.73,0,0,1,.07,6.47c-2.41,5.23-10.58,7.21-13.21,7.72A12.69,12.69,0,0,1,136.2,142.65Zm-13.83-13.56a1.91,1.91,0,0,1,1.59,3c-.34.52-.92,1.87-.53,2.61.16.3,1,1.29,4.7,1.37a1.88,1.88,0,0,1,1,.31,12.86,12.86,0,0,0,7,2.48,8.85,8.85,0,0,0,6.76-3.25,1.89,1.89,0,0,1,1.23-.74c2.54-.41,9.47-2.24,11.06-5.68.59-1.28.35-2.75-.71-4.51a1.91,1.91,0,0,1,.59-2.6c4.62-3,7.23-6.25,6.83-8.55-.35-2-3.09-3.66-7.71-4.72a1.89,1.89,0,0,1-1.39-2.44c1.34-4.14.77-5.57.46-6-.76-1-3.36-1.08-8.14.06a1.9,1.9,0,0,1-1.64-.37s-4.81-3.86-9.31-3.86c-2.52,0-4.45,1.25-5.87,3.82a1.91,1.91,0,0,1-2.1.94c-3.58-.83-6-.52-7.16.94-1.33,1.73-.89,4.9-.6,6a1.91,1.91,0,0,1-1.29,2.31c-1,.34-4.18,1.68-4.72,3.46-.08.28-.33,1.12.92,2.68a1.87,1.87,0,0,1,.32,1.82,1.91,1.91,0,0,1-1.37,1.24c-1,.23-2.24.7-2.27,1.57,0,1.5,2.11,3.78,4.11,4.35a1.9,1.9,0,0,1,1.37,1.77,2.81,2.81,0,0,0,3,2.82,9.69,9.69,0,0,0,3.17-.67A1.82,1.82,0,0,1,122.37,129.09Z"/><path class="cls-6" d="M151.09,196.91s60.75-13.17,66.26-12.26,9.55,1.47,11,12.18-.5,16.52-11.29,16.91-64.37-7-65.22-6.79-10.84-.63-9-6S147.38,197.71,151.09,196.91Z"/><path class="cls-2" d="M143.46,206.44a4.94,4.94,0,0,1-2.16-6c1.73-5,4.61-4.94,6.91-4.92a11.65,11.65,0,0,0,2.54-.18C157,194,212,182.11,217.62,183.05l.17,0c2.47.41,4.81.79,6.82,2.13,2.89,1.93,4.53,5.45,5.33,11.4,1,7.31.3,11.71-2.23,14.71-2.14,2.54-5.62,3.87-10.62,4.05-7.85.29-36.83-3.32-54.15-5.48-5.55-.69-10.34-1.29-11.06-1.32A16.44,16.44,0,0,1,143.46,206.44Zm79.34-18.52c-1.43-.95-3.34-1.27-5.54-1.63l-.17,0c-3.79-.63-42.29,7.18-65.66,12.24a14.07,14.07,0,0,1-3.23.25c-2.14,0-2.86,0-3.82,2.74-.28.8-.23,1.49.89,2.24a13.7,13.7,0,0,0,6.31,1.6c.36-.07.42-.08,11.76,1.33,16.09,2,46,5.73,53.63,5.46,4-.15,6.73-1.1,8.26-2.9,1.84-2.19,2.3-5.95,1.48-12.18S224.17,188.84,222.8,187.92Z"/><path class="cls-6" d="M123.88,183.9s60.76-13.17,66.27-12.26,9.54,1.47,11,12.18-.5,16.51-11.29,16.91-64.37-7-65.22-6.8-10.84-.62-9-6S120.18,184.69,123.88,183.9Z"/><path class="cls-2" d="M116.26,193.42a4.91,4.91,0,0,1-2.16-6c1.72-5,4.6-4.94,6.91-4.93a10.92,10.92,0,0,0,2.53-.17c6.25-1.36,61.22-13.21,66.88-12.28l.16,0c2.48.41,4.81.8,6.82,2.14,2.89,1.93,4.54,5.45,5.33,11.4,1,7.31.31,11.71-2.22,14.71-2.14,2.54-5.62,3.87-10.62,4.05-7.85.28-36.84-3.32-54.15-5.48-5.55-.69-10.34-1.29-11.06-1.32A16.34,16.34,0,0,1,116.26,193.42Zm79.33-18.51c-1.42-1-3.33-1.27-5.54-1.64l-.17,0c-3.79-.63-42.28,7.18-65.65,12.24a13.57,13.57,0,0,1-3.23.25c-2.15,0-2.86,0-3.82,2.74-.28.8-.24,1.48.89,2.23a13.72,13.72,0,0,0,6.31,1.61c.35-.07.41-.08,11.76,1.33,16.09,2,46,5.73,53.63,5.45,4-.14,6.73-1.1,8.25-2.89,1.85-2.2,2.31-6,1.48-12.18S197,175.83,195.59,174.91Z"/><path class="cls-6" d="M150.31,215.94s60.76-13.17,66.27-12.26,9.54,1.47,11,12.18-.5,16.52-11.29,16.91-64.36-7-65.21-6.8-10.84-.62-9-6S146.61,216.73,150.31,215.94Z"/><path class="cls-2" d="M142.69,225.46a4.91,4.91,0,0,1-2.16-6c1.72-5,4.6-4.95,6.91-4.93a11.54,11.54,0,0,0,2.53-.17c6.24-1.36,61.22-13.22,66.87-12.28l.18,0c2.47.41,4.8.8,6.81,2.14,2.89,1.93,4.53,5.44,5.33,11.4,1,7.31.3,11.72-2.23,14.71-2.14,2.54-5.62,3.87-10.62,4.05-7.84.29-36.82-3.32-54.13-5.48-5.55-.69-10.36-1.29-11.07-1.32A16.34,16.34,0,0,1,142.69,225.46ZM222,207c-1.43-.95-3.33-1.27-5.54-1.64l-.17,0c-3.79-.62-42.28,7.18-65.65,12.25a14.15,14.15,0,0,1-3.24.25c-2.14,0-2.86,0-3.82,2.74-.28.8-.23,1.48.89,2.23a13.75,13.75,0,0,0,6.32,1.61c.36-.07.41-.09,11.77,1.33,16.09,2,46,5.73,53.61,5.46,4-.15,6.74-1.1,8.25-2.9,1.86-2.19,2.31-5.95,1.49-12.18S223.4,207.87,222,207Z"/><path class="cls-1" d="M221.77,194.47s6.84,1.32,8.65-1.48-.91-6.78,2.62-7.82,6.15,1.08,4.45,4.5,1,4.75,2.36,4.22c7.09-2.86,9.67,6.15,3.23,5.9s-8.76-3-6.56,1.68c2.38,5.06-.89,5.07-4,4.17s-1.84-7.73-4.28-6.86-6,.15-6,.15Z"/><path class="cls-7" d="M221.4,199.71l-.68-6.38,1.22.24c1.62.31,6.5.77,7.71-1.08a5.65,5.65,0,0,0,.53-3.34c-.06-1.81-.13-4.07,2.6-4.86a5.52,5.52,0,0,1,4.61.42c1.31.87,2.24,2.74.92,5.38-.63,1.26-.58,2.27.14,2.75a1.28,1.28,0,0,0,1.05.2c3.09-1.25,5.14-.38,6.09.26a4.34,4.34,0,0,1,1.92,4.87c-.54,1.68-2.21,2.63-4.46,2.55a27.69,27.69,0,0,1-5.38-.78l-.89-.19c.11.29.28.71.58,1.33,1.09,2.32,1.19,3.95.31,5s-2.71,1.25-5.44.47a3.21,3.21,0,0,1-.88-.41c-1.43-1-1.86-2.93-2.2-4.53a6.17,6.17,0,0,0-.63-2c-2.63,1-6.31.28-6.46.25Zm8.15-1.65c.85.57,1.1,1.76,1.4,3.14s.71,3.25,1.79,3.56c2.15.61,3.23.46,3.52.11s.25-1.26-.58-3-1.22-2.75-.6-3.52,1.54-.52,3-.19a26.62,26.62,0,0,0,5.05.72c1.42.06,2.36-.4,2.64-1.27a2.55,2.55,0,0,0-1.2-2.76,4.62,4.62,0,0,0-4.37-.09c-2,.82-5.69-1.16-3.53-5.49.67-1.34.57-2.44-.29-3a3.75,3.75,0,0,0-3.07-.19c-1.25.36-1.34,1-1.27,3a7.32,7.32,0,0,1-.83,4.41c-1.65,2.52-6.16,2.33-8.39,2.07l.28,2.56a11.52,11.52,0,0,0,4.82-.22A1.74,1.74,0,0,1,229.55,198.06Z"/><path class="cls-1" d="M194.74,182.8s6.39.78,8.35-2.22-.32-6.83,3.13-8.17,5.75.6,3.85,4.22.62,4.75,1.91,4.11c7-3.5,8.69,5.46,2.6,5.74s-8.09-2.35-6.38,2.24c1.85,5-1.26,5.24-4.18,4.58s-1.12-7.72-3.5-6.65a12.36,12.36,0,0,1-5.69.65Z"/><path class="cls-7" d="M193.94,188.1l-.12-6.33,1,.13c1.63.19,6.14.25,7.48-1.81a6.8,6.8,0,0,0,.82-3.54c.09-1.88.2-4,2.74-5a4.87,4.87,0,0,1,4.45.08c1.21.81,2,2.65.54,5.4-.7,1.33-.78,2.41-.19,2.8a.94.94,0,0,0,.88.08c3.06-1.54,5-.78,5.86-.19a4,4,0,0,1,1.63,4.49,4.48,4.48,0,0,1-4.44,3.15,23.27,23.27,0,0,1-5.08-.35c-.34-.05-.71-.11-1-.13a12.23,12.23,0,0,0,.49,1.5c.85,2.3.82,3.93-.1,5s-2.67,1.34-5.12.79a2.54,2.54,0,0,1-.88-.37c-1.35-.9-1.58-2.83-1.8-4.53a10.36,10.36,0,0,0-.31-1.77,13.56,13.56,0,0,1-6.13.69Zm7.87-2.21c.82.54,1,1.76,1.14,3.17s.36,3.14,1.27,3.36c1.69.38,2.91.3,3.36-.22s.35-1.62-.23-3.17-.93-2.68-.32-3.43,1.5-.56,2.79-.35a22.67,22.67,0,0,0,4.71.33,2.75,2.75,0,0,0,2.79-1.83,2.3,2.3,0,0,0-.89-2.51c-1-.63-2.39-.53-4.05.31a2.73,2.73,0,0,1-2.69-.2c-.54-.36-2.17-1.8-.42-5.14.76-1.43.78-2.57.07-3.05a3.27,3.27,0,0,0-2.8.09c-1.38.54-1.49,1.48-1.58,3.38a8.42,8.42,0,0,1-1.11,4.45c-1.74,2.66-6.16,2.78-8.18,2.69l.05,2.69a10.39,10.39,0,0,0,4.43-.63A1.63,1.63,0,0,1,201.81,185.89Z"/><path class="cls-8" d="M126.31,201.16S187.07,188,192.57,188.9s9.55,1.47,11,12.18S203,217.6,192.25,218s-64.36-7-65.21-6.79-10.84-.63-9-6S122.6,202,126.31,201.16Z"/><path class="cls-2" d="M118.69,210.69a4.94,4.94,0,0,1-2.17-6c1.73-5,4.61-4.94,6.92-4.93a11,11,0,0,0,2.53-.17c6.25-1.35,61.22-13.21,66.87-12.27l.17,0c2.47.41,4.81.79,6.82,2.13,2.89,1.94,4.54,5.45,5.33,11.41,1,7.32.3,11.71-2.23,14.71-2.14,2.54-5.62,3.87-10.62,4-7.85.29-36.82-3.32-54.13-5.47-5.55-.7-10.36-1.29-11.07-1.33C125.81,212.91,121.46,212.54,118.69,210.69ZM198,192.17c-1.43-.95-3.33-1.27-5.54-1.63l-.17,0c-3.79-.63-42.28,7.18-65.66,12.25a14,14,0,0,1-3.23.24c-2.14,0-2.86,0-3.82,2.74-.27.8-.23,1.49.9,2.24a13.68,13.68,0,0,0,6.31,1.6c.35-.07.41-.08,11.77,1.33,16.09,2,46,5.73,53.62,5.46,4-.15,6.72-1.1,8.24-2.89,1.85-2.2,2.31-6,1.48-12.19S199.4,193.09,198,192.17Z"/><path class="cls-1" d="M193.3,204s8.27,1.35,10.6-2.22-.83-8.45,3.51-9.89,7.43,1.09,5.22,5.44,1.07,5.9,2.69,5.18c8.75-3.88,11.51,7.28,3.69,7.25s-10.53-3.39-8,2.37c2.67,6.23-1.3,6.38-5.09,5.4S204,208,201,209.15s-7.27.45-7.27.45Z"/><path class="cls-7" d="M192.62,210.58l-.55-7.89,1.42.23c2.09.34,7.88.7,9.45-1.72a7.53,7.53,0,0,0,.81-4.25c0-2.23,0-5,3.3-6.1a6.48,6.48,0,0,1,5.65.35c1.57,1.05,2.64,3.35.94,6.69-.83,1.63-.83,2.88,0,3.44a1.39,1.39,0,0,0,1.21.18c3.82-1.69,6.3-.67,7.44.09a5.31,5.31,0,0,1,2.24,5.87c-.67,2.19-2.74,3.48-5.54,3.47a32.58,32.58,0,0,1-6.52-.74l-1.15-.22c.11.35.31.89.67,1.74,1.23,2.87,1.29,4.9.17,6.2s-3.36,1.59-6.59.75a3.52,3.52,0,0,1-1.08-.49c-1.74-1.15-2.16-3.53-2.53-5.63a7.91,7.91,0,0,0-.65-2.43c-3.18,1.38-7.63.64-7.82.61Zm10-2.34c1,.69,1.3,2.18,1.61,3.92s.67,4,1.95,4.31c2.18.57,3.78.55,4.29,0,.22-.26.61-1.15-.54-3.82-.86-2-1.37-3.39-.61-4.33s1.88-.67,3.62-.33a30.2,30.2,0,0,0,6.09.7c1.77,0,3-.66,3.35-1.85a3.07,3.07,0,0,0-1.32-3.32c-1.3-.86-3.16-.83-5.25.1a3.64,3.64,0,0,1-3.41-.37c-1.45-1-2.41-3.15-.77-6.37.88-1.72.82-3.1-.17-3.76a4.39,4.39,0,0,0-3.67-.08c-1.66.55-1.74,1.6-1.74,3.94a9.55,9.55,0,0,1-1.18,5.49c-2.1,3.23-7.64,3.15-10.31,2.9l.22,3.25a13.63,13.63,0,0,0,5.79-.49A2.12,2.12,0,0,1,202.6,208.24Z"/><path class="cls-1" d="M222.23,215.36s6.59,1.39,8.27-1.19-1-6.41,2.33-7.3,5.93,1.16,4.37,4.34,1.12,4.49,2.37,4c6.73-2.53,9.42,6,3.24,5.62s-8.48-3-6.26,1.43c2.4,4.81-.74,4.74-3.77,3.83s-1.95-7.32-4.26-6.56-5.73,0-5.73,0Z"/><path class="cls-7" d="M222,220.29l-.8-6,1.21.26c2.33.49,6.37.7,7.36-.81a5.15,5.15,0,0,0,.43-3.09c-.1-1.64-.23-3.88,2.41-4.57a5.43,5.43,0,0,1,4.4.49c1.26.84,2.18,2.62,1,5.08-.59,1.18-.5,2.1.23,2.59a1.28,1.28,0,0,0,1,.22,6.29,6.29,0,0,1,5.82.38,4.25,4.25,0,0,1,1.91,4.69c-.52,1.54-2.1,2.38-4.24,2.25a28.93,28.93,0,0,1-5.17-.85l-.8-.19c.11.27.28.65.55,1.19,1.1,2.21,1.24,3.75.42,4.72s-2.58,1.14-5.22.35a3.24,3.24,0,0,1-.84-.4c-1.38-.92-1.83-2.79-2.2-4.28a5.74,5.74,0,0,0-.66-1.92,13.92,13.92,0,0,1-6.23.07Zm7.8-1.4c.8.54,1.08,1.66,1.39,3,.35,1.45.77,3.09,1.84,3.42,2.09.63,3.13.5,3.38.2s.18-1.15-.64-2.8-1.24-2.62-.66-3.35,1.44-.5,2.89-.15a26.07,26.07,0,0,0,4.86.81c1.33.08,2.2-.29,2.47-1.06a2.55,2.55,0,0,0-1.23-2.68,4.6,4.6,0,0,0-4.22-.19c-1.93.72-5.44-1.2-3.46-5.23.6-1.24.47-2.28-.38-2.84a3.73,3.73,0,0,0-3-.26c-1.16.3-1.22.93-1.12,2.77a6.55,6.55,0,0,1-.7,4.15c-1.53,2.35-5.82,2.08-8,1.78l.32,2.39a11.07,11.07,0,0,0,4.67-.09A1.73,1.73,0,0,1,229.8,218.89Z"/></svg>