<?xml version="1.0" encoding="utf-8"?>
<!-- Generator: Adobe Illustrator 16.0.0, SVG Export Plug-In . SVG Version: 6.00 Build 0)  -->
<!DOCTYPE svg PUBLIC "-//W3C//DTD SVG 1.1//EN" "http://www.w3.org/Graphics/SVG/1.1/DTD/svg11.dtd">
<svg version="1.1" id="Layer_1" xmlns="http://www.w3.org/2000/svg" xmlns:xlink="http://www.w3.org/1999/xlink" x="0px" y="0px"
	 width="500px" height="500px" viewBox="0 0 500 500" enable-background="new 0 0 500 500" xml:space="preserve">
<g id="Layer_1_copy_38">
	<g>
		<g>
			<path fill="#3F456A" d="M309.954,310.008l18.141-7.091c0,0-2.549-22.396-5.101-32.603c-2.553-10.205-14.455,45.362-14.455,45.362
				l18.14,125.864c0,0-13.039,25.232-89.014,18.709c-75.972-6.517-72.571-17.855-72.571-17.855l20.128-118.218
				c0,0,2.834-20.696-6.237-47.625c-1.134,1.703-6.521,24.101-6.521,24.101l13.164,16.447l-5.56,37.354l-0.823,6.75l-45.616-39.573
				c0,0-13.608-7.371-6.522-45.358c7.084-37.987,32.6-89.865,32.6-89.865s7.652-10.206,29.766-12.189
				c22.114-1.983,29.201-8.786,29.201-8.786l38.272,4.818l27.778-3.827c0,0,29.239,7.742,44.226,12.899
				c17.291,5.952,30.613,52.725,37.988,93.833c4.146,17.029,4.531,39.121,4.531,39.121s-30.898,34.871-56.979,42.525"/>
			<path fill="#3C2517" d="M261.346,463.64c-7.191,0-15.126-0.332-23.879-1.088c-43.134-3.698-68.64-9.637-73.758-17.162
				c-1.053-1.546-1.003-2.811-0.893-3.402l13.647-80.142l-44.215-38.35c-2.075-1.342-14.262-10.939-7.413-47.648
				c7.063-37.864,32.541-89.939,32.799-90.462c0.062-0.127,0.137-0.25,0.222-0.363c0.338-0.452,8.536-11.057,31.407-13.111
				c20.774-1.86,27.753-8.102,27.819-8.166c0.506-0.462,1.205-0.688,1.876-0.61l37.974,4.78l27.475-3.785
				c0.308-0.039,0.615-0.021,0.906,0.053c0.297,0.081,29.494,7.826,44.388,12.952c21.511,7.403,34.797,69.331,39.511,95.609
				c4.137,16.944,4.553,38.577,4.57,39.489c0.011,0.58-0.196,1.14-0.582,1.572c-1.253,1.416-30.42,34.088-56.442,42.702
				l12.21,84.707c0.071,0.476-0.015,0.96-0.231,1.393C328.233,443.568,317.138,463.64,261.346,463.64z M167.408,442.572
				c0.484,0.976,6.69,9.905,70.454,15.378c67.203,5.753,83.918-13.365,86.406-16.917l-18.021-125.026
				c-0.039-0.272-0.027-0.548,0.029-0.815c10.359-48.346,13.926-48.404,15.843-48.437c0.929-0.028,2.456,0.356,3.117,3.004
				c2.56,10.234,5.051,31.976,5.153,32.897c0.119,1.044-0.478,2.033-1.454,2.412l-17.186,6.724
				c-0.294,1.324-0.583,2.651-0.864,3.965l5.199,36.101c22.699-7.957,48.771-35.77,53.05-40.446
				c-0.13-4.304-0.875-23.054-4.447-37.712c-9.404-52.404-23.377-87.673-36.491-92.191c-13.729-4.723-39.882-11.734-43.616-12.729
				l-27.316,3.763c-0.203,0.028-0.402,0.028-0.607,0.003l-37.302-4.699c-2.611,1.935-11.077,7.007-29.677,8.674
				c-19.232,1.726-26.988,9.958-28.013,11.145c-1.867,3.848-25.582,53.096-32.284,89.032c-6.599,35.375,5.263,42.849,5.387,42.922
				c0.116,0.072,0.272,0.174,0.374,0.266l42.23,36.633l0.417-2.447l5.403-36.31l-12.53-15.659c-0.445-0.56-0.611-1.293-0.445-1.983
				c2.047-8.517,5.662-23.066,6.845-24.843c0.491-0.733,1.355-1.127,2.224-1.01c0.879,0.113,1.609,0.717,1.892,1.553
				c9.145,27.134,6.453,47.812,6.337,48.678l-5.16,30.309l-0.812,6.678c-0.057,0.459-0.243,0.877-0.533,1.215L167.408,442.572z
				 M174.977,300.092l8.19,10.234c-0.356-6.814-1.443-15.787-4.212-25.936C177.801,288.693,176.329,294.508,174.977,300.092z
				 M321.561,274.51c-2.229,6.04-5.545,18.639-8.58,31.834l12.608-4.931C325.017,296.658,323.348,283.354,321.561,274.51z"/>
		</g>
		<g>
			<path fill="#BE202E" d="M277.354,149.555c0,0-10.201,14.173-29.2,11.904l-11.621,5.108l11.621,16.722
				c0,0,25.229-0.287,36.571-16.867C279.62,160.326,277.354,149.555,277.354,149.555z"/>
			<path fill="#3C2517" d="M248.153,185.601c-0.756,0-1.466-0.37-1.899-0.992l-11.622-16.725c-0.391-0.568-0.511-1.282-0.324-1.945
				c0.188-0.667,0.66-1.214,1.295-1.489l11.621-5.105c0.378-0.166,0.795-0.223,1.205-0.18c1.278,0.152,2.555,0.229,3.805,0.229
				c14.926,0,23.164-11.081,23.244-11.194c0.541-0.737,1.463-1.09,2.354-0.903c0.892,0.193,1.592,0.89,1.778,1.782
				c0.021,0.102,2.222,10.29,6.885,15.857c0.668,0.798,0.721,1.938,0.135,2.789c-11.882,17.378-37.369,17.865-38.45,17.875
				C248.171,185.601,248.163,185.601,248.153,185.601z M240.034,167.552l9.29,13.369c4.826-0.311,23.023-2.277,32.513-14.463
				c-2.735-3.862-4.563-8.755-5.619-12.196c-4.053,3.886-12.127,9.757-23.983,9.757c-1.223,0-2.471-0.063-3.717-0.19
				L240.034,167.552z"/>
		</g>
		<g>
			<path fill="#BE202E" d="M228.875,147.572c0,0,8.225,10.205,19.278,13.887v21.83c0,0-24.481-7.738-29.019-18.222
				C221.401,163.365,226.876,155.991,228.875,147.572z"/>
			<path fill="#3C2517" d="M248.153,185.601c-0.234,0-0.471-0.035-0.696-0.105c-1.042-0.329-25.544-8.187-30.443-19.511
				c-0.424-0.981-0.12-2.128,0.734-2.771c1.688-1.264,6.976-8.158,8.879-16.179c0.204-0.857,0.882-1.525,1.739-1.719
				c0.862-0.195,1.758,0.12,2.312,0.801c0.077,0.098,7.953,9.732,18.209,13.149c0.941,0.314,1.577,1.197,1.577,2.192v21.83
				c0,0.737-0.353,1.43-0.945,1.864C249.12,185.45,248.64,185.601,248.153,185.601z M222.005,165.532
				c4.053,6.252,16.549,11.854,23.836,14.52v-16.973c-7.004-2.747-12.709-7.709-15.925-10.946
				C227.759,158.077,224.366,163.005,222.005,165.532z"/>
		</g>
		<g>
			<path fill="#3C2517" d="M235.392,462.363c-0.063,0-0.127,0-0.188,0c-1.273-0.114-2.224-1.229-2.118-2.5
				c0.163-2.006,16.394-201.506,12.759-276.464c-0.061-1.271,0.924-2.354,2.194-2.418c1.223-0.054,2.362,0.921,2.426,2.199
				c3.646,75.251-12.605,275.052-12.769,277.065C237.597,461.452,236.584,462.363,235.392,462.363z"/>
		</g>
		<g>
			<line fill="none" x1="320.947" y1="270.395" x2="329.825" y2="231.623"/>
			<path fill="#3C2517" d="M320.95,272.706c-0.173,0-0.347-0.017-0.521-0.06c-1.241-0.282-2.019-1.521-1.735-2.771l8.876-38.771
				c0.28-1.246,1.541-2.029,2.767-1.733c1.25,0.282,2.026,1.521,1.74,2.768l-8.875,38.771
				C322.959,271.982,322.006,272.706,320.95,272.706z"/>
		</g>
		<g>
			<path fill="#FFF8EF" d="M178.984,276.553c0,0-3.149-20.744-2.585-35.198"/>
			<path fill="#3C2517" d="M178.98,278.867c-1.123,0-2.107-0.819-2.28-1.967c-0.135-0.854-3.178-21.131-2.609-35.636
				c0.05-1.278,1.127-2.288,2.4-2.22c1.277,0.049,2.27,1.122,2.222,2.4c-0.552,14.076,2.526,34.557,2.558,34.761
				c0.19,1.264-0.677,2.441-1.94,2.633C179.213,278.855,179.098,278.867,178.98,278.867z"/>
		</g>
		<g>
			<path fill="#FFF8EF" d="M185.37,308.292c0,0,39.798,20.295,123.864,4.201c0,0-0.911,1.709,1.853,20.881
				c0,0-74.414,18.835-127.461-2.831C183.626,330.543,187.22,314.951,185.37,308.292z"/>
			<path fill="#3C2517" d="M245.622,343.279c-24.503,0-45.658-3.564-62.871-10.596c-1.048-0.428-1.632-1.558-1.381-2.658
				c0.965-4.18,3.16-16.123,1.772-21.114c-0.247-0.879,0.053-1.82,0.762-2.403c0.707-0.584,1.691-0.688,2.511-0.275
				c0.2,0.103,20.549,10.156,61.814,10.156c18.824,0,39.203-2.076,60.566-6.168c0.891-0.154,1.77,0.188,2.298,0.9
				c0.436,0.593,0.559,1.346,0.354,2.033c-0.06,0.449-0.363,3.988,1.932,19.893c0.166,1.173-0.575,2.28-1.722,2.573
				C311.352,335.693,280.977,343.279,245.622,343.279z M186.298,329.118c16.33,6.327,36.275,9.538,59.324,9.538
				c29.573,0,55.599-5.395,62.881-7.047c-1.207-8.646-1.627-13.514-1.701-16.31c-20.608,3.792-40.303,5.712-58.572,5.712
				c-32.558,0-52.23-5.996-60.042-8.998C188.413,317.913,187.043,325.502,186.298,329.118z"/>
		</g>
		<g>
			<rect x="229.446" y="314.827" fill="#FBB041" width="37.207" height="28.917"/>
			<path fill="#3C2517" d="M266.652,346.053h-37.207c-1.277,0-2.312-1.031-2.312-2.31v-28.917c0-1.278,1.034-2.312,2.312-2.312
				h37.207c1.279,0,2.311,1.033,2.311,2.312v28.917C268.963,345.021,267.932,346.053,266.652,346.053z M231.759,341.428h32.584
				v-24.293h-32.584V341.428L231.759,341.428z"/>
		</g>
		<g>
			<circle fill="#FBB041" cx="258.148" cy="296.965" r="5.314"/>
			<path fill="#3C2517" d="M258.146,304.594c-4.205,0-7.625-3.422-7.625-7.629c0-4.205,3.42-7.629,7.625-7.629
				c4.203,0,7.629,3.424,7.629,7.629C265.775,301.172,262.352,304.594,258.146,304.594z M258.146,293.961
				c-1.655,0-3.002,1.348-3.002,3.004c0,1.655,1.347,3.004,3.002,3.004c1.654,0,3.004-1.349,3.004-3.004
				C261.15,295.309,259.802,293.961,258.146,293.961z"/>
		</g>
		<g>
			<circle fill="#FBB041" cx="258.824" cy="274.853" r="5.316"/>
			<path fill="#3C2517" d="M258.824,282.48c-4.208,0-7.626-3.42-7.626-7.627c0-4.205,3.418-7.625,7.626-7.625
				s7.628,3.42,7.628,7.625C266.452,279.061,263.032,282.48,258.824,282.48z M258.824,271.852c-1.656,0-3.004,1.346-3.004,3.002
				c0,1.658,1.348,3.002,3.004,3.002s3.004-1.344,3.004-3.002C261.828,273.197,260.48,271.852,258.824,271.852z"/>
		</g>
		<g>
			<path fill="#FFF8EF" d="M207.539,232.696c0,1.991-1.612,3.615-3.611,3.615c-1.995,0-3.615-1.624-3.615-3.615
				c0-1.998,1.62-3.618,3.615-3.618C205.927,229.078,207.539,230.698,207.539,232.696z"/>
			<path fill="#3C2517" d="M203.928,238.623c-3.269,0-5.927-2.662-5.927-5.927c0-3.269,2.658-5.931,5.927-5.931
				c3.266,0,5.924,2.662,5.924,5.931C209.852,235.961,207.193,238.623,203.928,238.623z M203.928,231.39
				c-0.717,0-1.304,0.586-1.304,1.306c0,0.717,0.587,1.303,1.304,1.303c0.717,0,1.299-0.586,1.299-1.303
				C205.227,231.976,204.645,231.39,203.928,231.39z"/>
		</g>
		<g>
			<path fill="#FBB041" d="M265.268,252.443c0,2.938-2.379,5.312-5.316,5.312c-2.934,0-5.312-2.376-5.312-5.312
				s2.379-5.315,5.312-5.315C262.889,247.127,265.268,249.507,265.268,252.443z"/>
			<path fill="#3C2517" d="M259.95,260.068c-4.204,0-7.625-3.42-7.625-7.625c0-4.203,3.421-7.627,7.625-7.627
				s7.628,3.424,7.628,7.627C267.578,256.648,264.154,260.068,259.95,260.068z M259.95,249.439c-1.655,0-3.001,1.349-3.001,3.004
				c0,1.656,1.346,3,3.001,3s3.004-1.344,3.004-3C262.954,250.788,261.605,249.439,259.95,249.439z"/>
		</g>
		<g>
			<path fill="#FBB041" d="M265.945,230.331c0,2.933-2.381,5.316-5.313,5.316c-2.94,0-5.315-2.383-5.315-5.316
				c0-2.937,2.375-5.316,5.315-5.316C263.564,225.015,265.945,227.394,265.945,230.331z"/>
			<path fill="#3C2517" d="M260.632,237.959c-4.208,0-7.633-3.421-7.633-7.628c0-4.205,3.425-7.629,7.633-7.629
				c4.204,0,7.625,3.424,7.625,7.629C268.257,234.539,264.836,237.959,260.632,237.959z M260.632,227.327
				c-1.659,0-3.008,1.349-3.008,3.004c0,1.655,1.349,3.004,3.008,3.004c1.655,0,3-1.349,3-3.004
				C263.632,228.675,262.287,227.327,260.632,227.327z"/>
		</g>
		<g>
			<path fill="#FBB041" d="M265.945,207.343c0,2.937-2.381,5.316-5.313,5.316c-2.94,0-5.315-2.379-5.315-5.316
				c0-2.938,2.375-5.316,5.315-5.316C263.564,202.027,265.945,204.406,265.945,207.343z"/>
			<path fill="#3C2517" d="M260.632,214.972c-4.208,0-7.633-3.421-7.633-7.628c0-4.205,3.425-7.629,7.633-7.629
				c4.204,0,7.625,3.424,7.625,7.629C268.257,211.551,264.836,214.972,260.632,214.972z M260.632,204.339
				c-1.659,0-3.008,1.348-3.008,3.004c0,1.655,1.349,3.004,3.008,3.004c1.655,0,3-1.349,3-3.004
				C263.632,205.687,262.287,204.339,260.632,204.339z"/>
		</g>
		<g>
			<path fill="#BE202E" d="M145.9,217.492c0,0,2.438,12.338,4.451,22.494c1.645,8.31-4.988,21.942-18.756,17.771L145.9,217.492z"/>
			<path fill="#3C2517" d="M136.52,260.842c-1.796,0-3.682-0.294-5.598-0.873c-0.604-0.184-1.105-0.605-1.391-1.168
				c-0.286-0.564-0.324-1.222-0.117-1.818l14.312-40.26c0.346-0.985,1.3-1.599,2.348-1.535c1.037,0.078,1.896,0.84,2.096,1.86
				l4.452,22.487c1.003,5.073-0.668,11.329-4.155,15.577C145.389,258.861,141.254,260.842,136.52,260.842z M134.643,256.083
				c0.643,0.092,1.271,0.138,1.877,0.138c4.175,0,6.855-2.199,8.374-4.041c2.616-3.188,3.93-8.018,3.188-11.746l-2.817-14.245
				L134.643,256.083z"/>
		</g>
		<g>
			<path fill="#BE202E" d="M356.025,226.205c0,0-5.095,13.378-7.981,21.815c-2.747,8.017,3.533,22.378,17.7,19.853L356.025,226.205z
				"/>
			<path fill="#3C2517" d="M362.534,270.479h-0.003c-5.606,0-10.495-2.526-13.774-7.117c-3.401-4.758-4.566-11.226-2.9-16.085
				c2.864-8.38,7.957-21.759,8.006-21.893c0.362-0.95,1.322-1.536,2.318-1.483c1.015,0.07,1.863,0.791,2.095,1.779l9.721,41.667
				c0.146,0.62,0.029,1.271-0.32,1.801c-0.351,0.528-0.899,0.893-1.524,1.002C364.922,270.365,363.707,270.479,362.534,270.479z
				 M355.506,234.162c-1.672,4.486-3.78,10.241-5.275,14.606c-1.184,3.468-0.244,8.36,2.289,11.907
				c1.688,2.362,4.796,5.179,10.013,5.179h0.003c0.121,0,0.244-0.002,0.363-0.006L355.506,234.162z"/>
		</g>
		<g>
			<path fill="#3F456A" d="M183.919,219.151c0,0-3.188,19.133,4.462,21.897c7.657,2.764,33.808,2.594,43.378-5.401
				c1.469-1.409,1.487-19.688,1.487-19.688L183.919,219.151z"/>
			<path fill="#3C2517" d="M202.301,244.977L202.301,244.977c-6.256-0.003-11.617-0.638-14.704-1.754
				c-9.199-3.322-6.318-22.299-5.958-24.453c0.176-1.06,1.056-1.861,2.133-1.928l49.321-3.191c0.647-0.042,1.271,0.184,1.733,0.622
				c0.467,0.438,0.73,1.048,0.728,1.691c-0.018,19.263-1.489,20.675-2.199,21.353C224.852,244.43,207.447,244.977,202.301,244.977z
				 M185.942,221.336c-0.728,6.072-0.749,16.101,3.226,17.538c2.528,0.915,7.558,1.479,13.133,1.479l0,0
				c9.149,0,21.752-1.63,27.633-6.202c0.541-1.839,0.904-8.991,0.985-15.723L185.942,221.336z"/>
		</g>
		<g>
			<circle fill="#FFF8EF" cx="201.59" cy="361.204" r="2.528"/>
			<path fill="#3C2517" d="M201.594,366.047c-2.669,0-4.843-2.175-4.843-4.844c0-2.668,2.174-4.836,4.843-4.836
				c2.669,0,4.837,2.168,4.837,4.836C206.431,363.873,204.263,366.047,201.594,366.047z"/>
		</g>
		<g>
			<path fill="#3F456A" d="M185.984,351.736c0,0-2.23,13.38,3.116,15.312c5.355,1.93,23.646,1.814,30.335-3.783
				c1.031-0.981,1.042-13.761,1.042-13.761L185.984,351.736z"/>
			<path fill="#3C2517" d="M198.829,370.488L198.829,370.488c-4.446,0-8.277-0.459-10.508-1.264
				c-6.82-2.465-5.045-15.32-4.617-17.869c0.173-1.061,1.06-1.855,2.128-1.929l34.497-2.229c0.64-0.029,1.267,0.184,1.733,0.621
				s0.73,1.053,0.726,1.688c-0.014,13.773-1.062,14.776-1.758,15.434C214.874,370.092,202.486,370.488,198.829,370.488z
				 M188.023,353.917c-0.475,4.554-0.13,10.237,1.864,10.958c1.328,0.479,4.379,0.988,8.941,0.988
				c8.103,0,15.339-1.582,18.714-4.053c0.317-1.428,0.537-5.685,0.601-9.843L188.023,353.917z"/>
		</g>
		<g>
			<path fill="#FFF8EF" d="M290.326,361.204c0,1.397,1.13,2.528,2.531,2.528c1.395,0,2.523-1.131,2.523-2.528
				s-1.13-2.527-2.523-2.527C291.456,358.676,290.326,359.807,290.326,361.204z"/>
			<path fill="#3C2517" d="M292.857,366.047c-2.67,0-4.842-2.175-4.842-4.844c0-2.668,2.172-4.836,4.842-4.836
				c2.666,0,4.837,2.168,4.837,4.836C297.694,363.873,295.523,366.047,292.857,366.047z"/>
		</g>
		<g>
			<path fill="#3F456A" d="M308.465,351.736c0,0,2.228,13.38-3.122,15.312c-5.352,1.93-23.644,1.814-30.333-3.783
				c-1.027-0.981-1.041-13.761-1.041-13.761L308.465,351.736z"/>
			<path fill="#3C2517" d="M295.614,370.488c-3.652,0-16.044-0.396-22.089-5.443c-0.808-0.77-1.855-1.766-1.866-15.539
				c0-0.635,0.262-1.25,0.729-1.688c0.469-0.438,1.104-0.65,1.731-0.621l34.492,2.23c1.073,0.071,1.956,0.867,2.132,1.928
				c0.424,2.549,2.2,15.404-4.616,17.869C303.896,370.029,300.066,370.488,295.614,370.488z M276.909,361.833
				c3.229,2.422,10.53,4.031,18.704,4.031c4.568,0,7.615-0.509,8.946-0.988c1.997-0.72,2.345-6.403,1.867-10.958l-30.125-1.947
				C276.368,356.148,276.587,360.419,276.909,361.833z"/>
		</g>
		<g>
			<path fill="#FFF8EF" d="M215.834,83.786c0,0-21.257-11.056-15.729-26.363c5.524-15.31,26.222-27.782,57.263-29.056
				c21.743-0.896,40.68,9.21,49.043,29.338c0,0,7.936,18.286-19.278,29.77L261.62,71.738L215.834,83.786z"/>
			<path fill="#3C2517" d="M287.132,89.787c-0.419,0-0.843-0.12-1.211-0.346L261.25,74.227l-44.825,11.794
				c-0.555,0.148-1.145,0.081-1.655-0.184c-0.939-0.491-22.985-12.182-16.84-29.2c6.263-17.354,29.558-29.357,59.341-30.582
				c23.518-0.985,42.931,10.682,51.274,30.765c0.108,0.251,2.95,6.979-0.301,15.091c-2.929,7.318-9.729,13.269-20.213,17.693
				C287.743,89.724,287.439,89.787,287.132,89.787z M261.62,69.426c0.423,0,0.844,0.12,1.21,0.345l24.488,15.103
				c23.324-10.375,17.241-25.607,16.966-26.257c-7.396-17.798-23.531-27.993-44.278-27.993c-0.843,0-1.689,0.018-2.544,0.053
				c-27.899,1.148-49.56,11.953-55.187,27.531c-4.222,11.699,10.343,21.043,13.877,23.105l44.877-11.808
				C261.225,69.45,261.422,69.426,261.62,69.426z"/>
		</g>
		<g>
			<path fill="#5A544B" d="M223.205,95.552c0,0-10.628-4.395-7.371-14.883c3.263-10.488,25.803-14.176,41.818-14.176
				c16.015,0,55.561,7.656,29.197,29.06c0,0,3.801-10.852-18.613-11.724c-3.198-0.127-17.935,0.508-21.072,0.54
				c-11.92,0.131-21.402-0.3-21.405-0.3C225.759,84.068,218.955,84.923,223.205,95.552z"/>
			<path fill="#3C2517" d="M223.205,97.864c-0.3,0-0.595-0.06-0.882-0.176c-4.353-1.797-11.771-7.816-8.694-17.708
				c4.771-15.355,40.02-15.801,44.023-15.801c11.236,0,35.744,3.671,39.771,15.014c1.963,5.538-1.103,11.645-9.118,18.155
				c-0.802,0.649-1.941,0.691-2.785,0.095c-0.838-0.59-1.188-1.656-0.861-2.623c0.035-0.124,0.533-1.877-0.744-3.686
				c-1.189-1.684-4.818-4.575-15.768-4.999c-2-0.067-8.842,0.159-14.154,0.339c-3.051,0.102-5.669,0.194-6.803,0.205
				c-10.767,0.116-19.446-0.216-21.251-0.29c-0.261,0.082-0.964,0.35-1.391,1.109c-0.434,0.783-0.915,2.7,0.656,6.809
				c0.227,0.36,0.359,0.787,0.359,1.243c0,1.281-1.097,2.294-2.329,2.312C223.223,97.864,223.213,97.864,223.205,97.864z
				 M267.128,81.499c0.485,0,0.89,0.006,1.199,0.017c9.978,0.388,16.524,2.775,19.463,7.092c0.457,0.678,0.8,1.366,1.048,2.041
				c3.039-3.093,5.36-6.711,4.229-9.913c-2.729-7.681-22.67-11.932-35.414-11.932c-17.741,0-37.047,4.311-39.606,12.55
				c-1.201,3.858-0.113,6.679,1.461,8.627c-0.078-1.892,0.286-3.523,1.088-4.882c1.68-2.849,4.553-3.283,4.878-3.325
				c0.096-0.011,0.19-0.018,0.287-0.018c0.469,0.018,9.819,0.424,21.381,0.3c1.108-0.01,3.692-0.103,6.696-0.202
				C258.488,81.696,264.281,81.499,267.128,81.499z"/>
		</g>
		<g>
			<path fill="#FBB041" d="M261.762,43.392c0,4.225-3.429,7.653-7.654,7.653c-4.225,0-7.656-3.428-7.656-7.653
				c0-4.229,3.432-7.657,7.656-7.657C258.333,35.735,261.762,39.162,261.762,43.392z"/>
			<path fill="#3C2517" d="M254.107,53.357c-5.496,0-9.968-4.473-9.968-9.965c0-5.497,4.473-9.969,9.968-9.969
				c5.494,0,9.963,4.472,9.963,9.969C264.07,48.884,259.602,53.357,254.107,53.357z M254.107,38.047
				c-2.947,0-5.344,2.397-5.344,5.345c0,2.944,2.396,5.341,5.344,5.341c2.943,0,5.342-2.396,5.342-5.341
				C259.449,40.444,257.052,38.047,254.107,38.047z"/>
		</g>
		<g>
			<path fill="#3F456A" d="M237.834,428.417l-3.227,38.039c0,0,56.493,5.854,93.483-17.644l-3.15-19.465"/>
			<path fill="#3C2517" d="M250.945,469.458c-9.481,0-15.818-0.621-16.578-0.7c-1.249-0.134-2.171-1.242-2.064-2.499l3.227-38.041
				c0.109-1.27,1.225-2.229,2.5-2.104c1.273,0.106,2.219,1.229,2.11,2.5l-3.032,35.725c10.671,0.741,56.738,2.634,88.458-16.67
				l-2.909-17.947c-0.204-1.263,0.651-2.448,1.913-2.653c1.277-0.204,2.446,0.648,2.65,1.913l3.156,19.466
				c0.144,0.911-0.262,1.829-1.045,2.322C304.166,466.753,270.714,469.458,250.945,469.458z"/>
		</g>
	</g>
</g>
</svg>
