<?xml version="1.0" encoding="utf-8"?>
<!-- Generator: Adobe Illustrator 16.0.0, SVG Export Plug-In . SVG Version: 6.00 Build 0)  -->
<!DOCTYPE svg PUBLIC "-//W3C//DTD SVG 1.1//EN" "http://www.w3.org/Graphics/SVG/1.1/DTD/svg11.dtd">
<svg version="1.1" id="Layer_1" xmlns="http://www.w3.org/2000/svg" xmlns:xlink="http://www.w3.org/1999/xlink" x="0px" y="0px"
	 width="500px" height="500px" viewBox="0 0 500 500" enable-background="new 0 0 500 500" xml:space="preserve">
<g id="Layer_1_copy_97">
	<g>
		<path fill="#47B649" d="M405.748,270.971c0,37.264-30.014,67.467-67.04,67.467c-37.019,0-67.032-30.203-67.032-67.467
			c0-37.257,30.015-67.468,67.032-67.468C375.734,203.503,405.748,233.714,405.748,270.971z"/>
		<path fill="#27140E" d="M338.708,341.016c-38.383,0-69.61-31.42-69.61-70.045c0-38.623,31.229-70.045,69.61-70.045
			c38.389,0,69.618,31.423,69.618,70.045C408.326,309.596,377.097,341.016,338.708,341.016z M338.708,206.085
			c-35.537,0-64.454,29.11-64.454,64.886c0,35.782,28.917,64.889,64.454,64.889c35.545,0,64.463-29.105,64.463-64.889
			C403.171,235.195,374.253,206.085,338.708,206.085z"/>
	</g>
	<g>
		<path fill="#2E9345" d="M215.812,270.971c0,37.264-30.011,67.467-67.04,67.467c-37.019,0-67.029-30.203-67.029-67.467
			c0-37.257,30.011-67.468,67.029-67.468C185.801,203.503,215.812,233.714,215.812,270.971z"/>
		<path fill="#27140E" d="M148.771,341.016c-38.38,0-69.607-31.42-69.607-70.045c0-38.623,31.228-70.045,69.607-70.045
			c38.388,0,69.618,31.423,69.618,70.045C218.39,309.596,187.159,341.016,148.771,341.016z M148.771,206.085
			c-35.541,0-64.451,29.11-64.451,64.886c0,35.782,28.91,64.889,64.451,64.889c35.548,0,64.462-29.105,64.462-64.889
			C213.233,235.195,184.319,206.085,148.771,206.085z"/>
	</g>
	<g>
		<path fill="#B4B4B4" d="M246.756,211.692c-8.413,2.385-18.856,3.569-27.586,3.126c-0.091-27.305,5.955-43.889,18.152-57.926
			c10.164-11.703,25.436-21.485,41.209-25.08c15.094-3.442,29.57-2.469,43.492-4.931c28.361-5.007,50.679-24.938,51.754-55.286
			c0.238-6.717-3.214-16.311,4.204-19.814c22.099-9.826,26.034,10.592,22.116,34.026c-5.221,31.241-31.144,60.755-70.707,68.177
			c-15.004,2.814-32.931,2.255-44.554,5.047C259.346,165.152,247.239,185.784,246.756,211.692z"/>
		<path fill="#27140E" d="M222.89,218.776c-1.334,0-2.637-0.033-3.912-0.095c-2.051-0.105-3.663-1.797-3.67-3.853
			c-0.095-26.88,5.62-44.963,19.096-60.475c11.158-12.839,27.334-22.68,43.268-26.314c8.714-1.986,17.143-2.545,25.289-3.09
			c6.396-0.422,12.44-0.824,18.393-1.874c29.005-5.127,47.61-24.902,48.562-51.619c0.051-1.431-0.105-3.13-0.269-4.935
			c-0.562-6.096-1.329-14.452,6.685-18.239c10.315-4.589,18.366-3.58,23.395,2.36c7.022,8.29,6.155,24.045,4.19,35.803
			c-5.934,35.497-35.599,64.168-73.812,71.335c-7.494,1.409-15.522,1.983-23.286,2.542c-7.919,0.566-15.399,1.104-21.074,2.469
			c-29.896,7.175-34.836,33.761-35.12,48.972c-0.032,1.703-1.172,3.185-2.813,3.649C240.274,217.549,231.189,218.776,222.89,218.776
			z M388.04,53.124c-2.36,0-5.214,0.737-8.489,2.189c-2.728,1.293-2.771,4.343-2.204,10.501c0.179,1.968,0.363,3.998,0.297,5.919
			c-1.069,30.108-22.639,53.253-54.947,58.957c-6.365,1.126-12.901,1.558-19.224,1.979c-7.851,0.522-15.966,1.06-24.078,2.912
			c-14.396,3.283-29.033,12.197-39.151,23.849c-11.679,13.438-16.762,28.576-17.176,51.611c6.591-0.014,13.692-0.864,19.924-2.36
			c1.468-28.097,16.268-47.487,40.944-53.413c6.291-1.51,14.083-2.069,22.329-2.661c7.546-0.542,15.35-1.101,22.415-2.426
			c40.465-7.592,63.111-38.123,67.606-65.014c2.36-14.129,1.463-24.892-2.462-29.528C392.368,53.922,390.531,53.124,388.04,53.124z"
			/>
	</g>
	<g>
		<path fill="#676767" d="M141.053,174.84c32.099-2.226,50.812,18.867,79.476,26.405c14.223,3.744,30.069,4.241,45.89,1.068
			c32.494-6.515,55.297-28.504,85.954-22.564c31.114,6.024,50.025,31.314,66.797,66.688c14.8,31.223,25.812,65.868,24.23,106.281
			c-1.067,27.179-11.362,50.104-35.47,55.773c-28.273,6.647-51.411-10.589-66.717-23.976c-16.05-14.031-28.115-37.061-45.946-44.849
			c-13.355-5.836-32.705-5.028-53.265-5.509c-22.887-0.53-39.949-1.79-53.464,3.031c-20.77,7.412-31.885,26.455-47.904,39.467
			c-14.79,12.012-34.738,27.259-60.388,25.294c-60.98-4.666-42.164-93.685-24.524-139.392
			c12.505-32.419,29.931-63.938,57.378-79.827C121.721,177.745,131.379,175.512,141.053,174.84z M340.113,247.806
			c25.556,0.592,23.604-41.601-3.429-36.387C314.337,215.733,320.618,247.352,340.113,247.806z M157.062,221.129
			c-5.24-9.96-23.046-9.717-26.779,3.653c-2.339,8.351,1.177,15.174-0.595,25.613c-19.982-2.534-41.347-0.755-36.735,18.371
			c2.77,11.487,21.463,10.201,36.067,10.445c-2.041,21.03-0.887,37.857,15.162,36.659c16.707-1.246,10.741-20.983,14.721-35.966
			c19.571,1.812,35.66,0.537,35.562-14.122c-0.095-15.101-17.443-15.195-37.029-14.741
			C158.231,240.94,160.998,228.616,157.062,221.129z M284.243,262.525c-3.265,31.632,43.26,25.363,36.386-3.428
			c-1.836-7.705-13.261-13.731-23.23-11.216C288.618,250.097,284.867,256.458,284.243,262.525z M370.223,284.811
			c29.762,8.045,33.342-42.034,1.89-35.192C352.957,253.782,355.839,280.924,370.223,284.811z M341.605,321.523
			c21.607-2.526,19.416-37.851-3.424-36.387C311.89,286.822,317.369,324.355,341.605,321.523z"/>
		<path fill="#27140E" d="M395.345,413.833c-23.478,0.003-42.62-14.11-56.68-26.405c-6.38-5.58-12.121-12.49-17.672-19.176
			c-8.806-10.595-17.117-20.602-27.277-25.039c-10.519-4.597-25.86-4.805-42.103-5.025c-3.191-0.039-6.43-0.082-9.701-0.16
			c-2.978-0.068-5.857-0.151-8.646-0.231c-5.835-0.164-11.351-0.319-16.412-0.319c-12.339,0-20.422,1.006-27.015,3.358
			c-12.855,4.587-21.776,13.942-31.221,23.849c-4.876,5.116-9.92,10.406-15.545,14.976c-12.127,9.851-32.422,26.332-58.336,26.332
			c-1.587,0-3.196-0.062-4.786-0.181c-16.016-1.229-28.02-8.004-35.689-20.146c-18.409-29.165-7.276-85.293,7.851-124.498
			c15.907-41.234,35.222-67.98,59.052-81.778c8.269-4.786,18.231-7.614,29.618-8.402c20.908-1.438,36.579,6.562,51.721,14.306
			c9.077,4.641,18.468,9.441,29.005,12.215c13.854,3.646,29.245,4.001,44.15,1.017c12.131-2.433,22.998-7.15,33.508-11.714
			c14.139-6.136,27.494-11.936,42.747-11.936c3.737,0,7.503,0.363,11.195,1.079c35.826,6.936,55.265,38.686,69.553,68.83
			c18.173,38.337,25.99,72.688,24.6,108.089c-1.283,32.771-14.94,53.862-38.443,59.386
			C404.368,413.302,399.837,413.833,395.345,413.833z M216.854,329.741c5.174,0,10.74,0.159,16.63,0.323
			c2.773,0.08,5.643,0.158,8.605,0.229c3.247,0.077,6.463,0.12,9.629,0.163c17.046,0.229,33.142,0.446,45.095,5.668
			c11.838,5.171,21.137,16.362,30.128,27.187c5.358,6.448,10.896,13.119,16.818,18.297c13.038,11.401,30.683,24.492,51.585,24.492
			c3.896,0,7.833-0.461,11.7-1.369c26.731-6.285,31.826-35.381,32.487-52.16c1.34-34.109-6.242-67.309-23.86-104.477
			c-19.077-40.247-38.228-59.549-64.033-64.549c-3.207-0.621-6.478-0.933-9.725-0.933c-13.647,0-26.285,5.482-39.669,11.292
			c-10.879,4.724-22.127,9.607-35.064,12.2c-16.057,3.217-32.651,2.825-47.636-1.119c-11.354-2.984-21.123-7.981-30.562-12.81
			c-14.898-7.618-28.874-14.79-47.666-13.479c-10.34,0.719-18.935,3.138-26.277,7.386C92.8,198.958,74.574,224.426,59.327,263.95
			c-23.169,60.055-19.073,100.87-8.521,117.584c6.376,10.102,16.103,15.517,29.737,16.558c23.37,1.816,41.337-11.184,57.654-24.438
			c5.243-4.258,9.898-9.139,14.821-14.307c9.651-10.127,19.634-20.595,34.22-25.802
			C196.644,330.195,207.485,329.741,216.854,329.741z M339.043,325.543c-0.005,0-0.005,0-0.005,0
			c-13.892-0.004-21.749-11.432-22.094-22.184c-0.327-10.301,6.034-21.125,20.99-22.082c14.59-0.957,21.909,10.345,22.517,20.765
			c0.589,10.128-4.916,21.747-18.398,23.323C341.04,325.482,340.026,325.543,339.043,325.543z M339.547,288.96
			c-0.37,0-0.74,0.011-1.118,0.036c-10.45,0.669-13.954,7.73-13.75,14.118c0.232,7.302,5.239,14.69,14.359,14.694h0.005
			c0.683,0,1.387-0.043,2.112-0.132c8.549-0.995,11.972-8.344,11.571-15.186C352.336,295.757,348.109,288.96,339.547,288.96z
			 M142.613,319.799c-5.135,0-9.281-1.699-12.323-5.051c-6.147-6.775-6.442-19.416-5.49-31.71c-0.211,0-0.422,0-0.633,0
			c-14.167-0.077-31.793-0.171-34.974-13.37c-1.544-6.391-0.689-11.706,2.527-15.796c5.381-6.833,17.168-9.433,34.561-7.751
			c0.174-3.062-0.08-5.857-0.327-8.58c-0.392-4.329-0.791-8.809,0.604-13.806c2.283-8.173,9.331-13.457,17.955-13.457
			c6.917,0,13.035,3.468,15.973,9.049c3.632,6.913,2.549,16.267,1.504,25.305c-0.096,0.824-0.189,1.645-0.284,2.455
			c1.337-0.022,2.651-0.033,3.944-0.033c11.38,0,32.566,0,32.687,18.704c0.032,4.971-1.496,9.049-4.546,12.113
			c-4.43,4.459-11.685,6.539-22.833,6.539c-2.701,0-5.664-0.123-8.994-0.37c-0.562,3.3-0.772,6.826-0.976,10.265
			c-0.654,10.827-1.461,24.303-16.515,25.422C143.83,319.773,143.213,319.799,142.613,319.799z M116.564,253.355
			c-9.542,0-16.035,1.832-18.766,5.301c-1.702,2.162-2.059,5.175-1.089,9.201c1.765,7.306,15.432,7.377,27.494,7.442
			c1.659,0.007,3.289,0.019,4.876,0.044c1.079,0.018,2.103,0.485,2.821,1.292c0.72,0.808,1.068,1.878,0.967,2.948
			c-0.999,10.275-1.758,24.557,3.151,29.964c1.772,1.957,4.295,2.734,7.875,2.466c7.597-0.566,8.603-5.433,9.369-18.17
			c0.298-4.941,0.605-10.055,1.899-14.931c0.485-1.822,2.182-3.071,4.096-2.858c4.517,0.418,8.343,0.618,11.698,0.618
			c8.707,0,14.542-1.431,17.346-4.253c1.564-1.572,2.313-3.736,2.299-6.615c-0.044-6.976-4.144-11.017-24.952-11.017
			c-2.637,0-5.356,0.054-8.127,0.119c-1.147-0.028-2.146-0.417-2.897-1.212c-0.751-0.791-1.133-1.87-1.046-2.959
			c0.175-2.249,0.45-4.604,0.727-6.993c0.911-7.873,1.855-16.017-0.668-20.813c-1.594-3.032-5.091-4.917-9.125-4.917
			c-4.027,0-8.899,2.047-10.505,7.807c-1.017,3.627-0.708,7.055-0.349,11.023c0.37,4.056,0.785,8.653-0.16,14.201
			c-0.349,2.044-2.243,3.446-4.299,3.187C124.611,253.652,120.363,253.355,116.564,253.355z M376.453,289.559
			c-2.136,0-3.867-1.733-3.867-3.869c0-2.137,1.731-3.867,3.867-3.867c9.085,0,13.842-7.834,13.85-15.567c0-0.006,0-0.014,0-0.021
			c-0.005-3.699-1.11-7.049-3.119-9.43c-2.212-2.629-5.393-3.966-9.443-3.966c-2.136,0-3.867-1.728-3.867-3.867
			c0-2.135,1.73-3.867,3.867-3.867c6.35,0,11.658,2.324,15.361,6.713c3.186,3.785,4.936,8.914,4.936,14.44
			C398.029,277.552,390.462,289.559,376.453,289.559z M301.319,287.482L301.319,287.482c-6.329,0-11.936-2.35-15.787-6.623
			c-2.896-3.205-6.134-9.06-5.136-18.732c0.922-8.961,6.926-15.689,16.057-17.991c1.83-0.465,3.755-0.705,5.713-0.705
			c10.49,0,20.25,6.492,22.226,14.772c2.334,9.771-0.803,16.415-3.849,20.268C316.091,284.113,308.901,287.482,301.319,287.482z
			 M302.166,251.168c-1.318,0-2.604,0.156-3.82,0.461c-8.123,2.051-9.912,7.956-10.254,11.293c-0.56,5.417,0.541,9.828,3.184,12.755
			c2.369,2.626,5.935,4.07,10.045,4.07c5.155,0,10.196-2.326,13.15-6.065c2.848-3.603,3.676-8.334,2.396-13.684
			C315.746,255.293,308.88,251.168,302.166,251.168z M340.647,251.68c-2.14,0-3.871-1.731-3.871-3.867s1.731-3.867,3.871-3.867
			c9.434,0,13.655-7.309,13.655-14.553c0.004-3.863-1.237-7.582-3.397-10.203c-2.378-2.887-5.661-4.351-9.75-4.351
			c-2.14,0-3.867-1.731-3.867-3.87c0-2.135,1.729-3.863,3.867-3.863c6.421,0,11.854,2.476,15.719,7.164
			c3.334,4.042,5.167,9.416,5.167,15.124C362.038,240.468,354.688,251.68,340.647,251.68z"/>
	</g>
</g>
</svg>
