<?xml version="1.0" encoding="utf-8"?>
<!-- Generator: Adobe Illustrator 16.0.0, SVG Export Plug-In . SVG Version: 6.00 Build 0)  -->
<!DOCTYPE svg PUBLIC "-//W3C//DTD SVG 1.1//EN" "http://www.w3.org/Graphics/SVG/1.1/DTD/svg11.dtd">
<svg version="1.1" id="Layer_1" xmlns="http://www.w3.org/2000/svg" xmlns:xlink="http://www.w3.org/1999/xlink" x="0px" y="0px"
	 width="500px" height="500px" viewBox="0 0 500 500" enable-background="new 0 0 500 500" xml:space="preserve">
<g id="Layer_1_copy_79">
	<g>
		<g>
			<path fill="#2E368F" d="M428.181,253.796c0,104.808-84.959,189.77-189.769,189.77c-104.802,0-189.76-84.962-189.76-189.77
				c0-104.806,84.958-189.769,189.76-189.769C343.222,64.028,428.181,148.991,428.181,253.796z"/>
			<path fill="#3C2517" d="M238.412,448.125c-107.153,0-194.322-87.175-194.322-194.328c0-107.153,87.169-194.327,194.322-194.327
				c107.157,0,194.332,87.174,194.332,194.327C432.744,360.95,345.569,448.125,238.412,448.125z M238.412,68.59
				c-102.123,0-185.202,83.083-185.202,185.207s83.079,185.207,185.202,185.207c102.129,0,185.212-83.083,185.212-185.207
				S340.541,68.59,238.412,68.59z"/>
		</g>
		<g>
			<path fill="#3C2517" d="M238.412,448.125c-1.008,0-2.021-0.332-2.864-1.018c-1.961-1.58-2.264-4.454-0.681-6.409
				c33.765-41.759,44.466-85.69,31.812-130.575c-7.919-28.084-22.893-47.645-27.655-53.373
				C107.56,272.384,72.996,156.334,72.663,155.155c-0.689-2.423,0.717-4.941,3.136-5.631c2.43-0.685,4.944,0.713,5.634,3.136
				c1.303,4.542,33.279,111.137,158.86,94.741c1.476-0.184,2.94,0.343,3.941,1.426c0.84,0.909,83.003,92.135-2.272,197.603
				C241.062,447.547,239.743,448.125,238.412,448.125z"/>
		</g>
		<g>
			<path fill="#3C2517" d="M240.882,256.482c-0.484,0-0.979-0.078-1.469-0.242c-2.383-0.813-3.658-3.403-2.845-5.786
				c0.386-1.135,40.132-113.278,168.339-93.53c2.486,0.378,4.196,2.71,3.81,5.2c-0.382,2.49-2.729,4.203-5.2,3.813
				c-50.707-7.81-92.739,4.531-124.96,36.69c-24.062,24.019-33.267,50.5-33.354,50.768
				C244.553,255.287,242.779,256.482,240.882,256.482z"/>
		</g>
		<g>
			<path fill="#F8ED34" d="M294.609,183.293c0,0,123.646,123.458,27.938,240.636c0,0,72.614-37.352,92.964-101.842
				c0,0,11.229-93.445-51.099-162.957C364.412,159.131,321.351,159.171,294.609,183.293z"/>
			<path fill="#3C2517" d="M322.552,428.489c-1.344,0-2.659-0.591-3.547-1.689c-1.363-1.679-1.354-4.081,0.008-5.754
				c38.55-47.194,45.695-100.897,21.25-159.622c-18.39-44.166-48.569-74.599-48.872-74.898c-0.885-0.885-1.369-2.096-1.336-3.343
				c0.029-1.256,0.571-2.436,1.5-3.276c27.726-25.003,71.024-25.334,72.854-25.334h0.003c1.296,0,2.53,0.55,3.399,1.514
				c62.979,70.24,52.694,162.647,52.229,166.542c-0.034,0.284-0.096,0.559-0.179,0.828
				c-20.688,65.552-92.195,102.966-95.228,104.528C323.97,428.324,323.255,428.489,322.552,428.489z M301.253,183.676
				c8.694,9.491,31.857,36.849,47.429,74.24c22.302,53.581,19.086,105.021-9.076,150.078c22.438-15.508,58.228-45.605,71.419-86.848
				c0.666-6.625,7.998-92.739-48.606-157.395C354.275,164.12,323.141,166.631,301.253,183.676z"/>
		</g>
		<g>
			<path fill="#F8ED34" d="M49.35,237.476c0,0,7.551-58.9,28.672-80.576c21.126-21.676,73.918,26.971,73.918,26.971v56.521
				c0,0,43.898,20.247,90.562,13.404c0,0,35.419,47.572,33.441,82.692c-1.98,35.119-65.063,44.24-65.063,44.24L99.147,326.766
				l-47.126-52.449L49.35,237.476z"/>
			<path fill="#3C2517" d="M210.879,385.291c-0.687,0-1.363-0.152-1.983-0.453L97.163,330.87c-0.533-0.261-1.013-0.617-1.405-1.056
				L48.632,277.37c-0.678-0.759-1.088-1.714-1.159-2.722l-2.67-36.841c-0.024-0.303-0.016-0.606,0.023-0.909
				c0.314-2.47,7.994-60.668,29.933-83.182c4.486-4.606,10.359-6.941,17.452-6.941c25.903,0,61.322,32.363,62.82,33.742
				c0.937,0.861,1.47,2.08,1.47,3.354v53.505c8.34,3.392,35.276,13.272,66.065,13.272c6.618,0,13.104-0.458,19.273-1.367
				c1.668-0.234,3.319,0.447,4.318,1.789c1.49,1.998,36.384,49.316,34.339,85.674c-2.164,38.4-66.239,48.104-68.965,48.499
				C211.312,385.275,211.099,385.291,210.879,385.291z M101.938,323.048l109.623,52.946c8.829-1.537,58.234-11.407,59.83-39.762
				c1.629-28.951-24.313-68.006-31.001-77.551c-5.766,0.726-11.745,1.088-17.822,1.088c-39.05,0-71.188-14.612-72.535-15.23
				c-1.614-0.748-2.65-2.361-2.65-4.147v-54.48c-6.78-5.937-35.478-30.015-55.17-30.015c-4.606,0-8.177,1.37-10.922,4.183
				c-18.907,19.401-26.616,72.16-27.358,77.536l2.526,34.813L101.938,323.048z"/>
		</g>
		<g>
			<path fill="#F8ED34" d="M226.83,64.391c0,0,60.562-5.148,114.271,29.801c0,0-131.047-25.291-189.163,146.201
				c0,0-42.583-20.564-55.663-48.041c-13.091-27.482,12.753-63.98,12.753-63.98S181.219,65.259,226.83,64.391z"/>
			<path fill="#3C2517" d="M151.939,244.955c-0.681,0-1.354-0.146-1.984-0.45c-1.792-0.872-44.181-21.596-57.804-50.197
				c-14.074-29.553,12.037-66.993,13.153-68.571c0.207-0.298,0.453-0.566,0.72-0.801c3.001-2.622,73.982-64.215,120.722-65.1h-0.004
				c-0.112,0,3.144-0.271,8.71-0.271c18.28,0,65.415,3.001,108.141,30.805c1.826,1.187,2.555,3.502,1.737,5.523
				c-0.811,2.023-2.947,3.191-5.085,2.777c-0.062-0.012-6.594-1.227-17.128-1.227c-106.433,0-152.144,100.992-166.858,144.42
				c-0.422,1.236-1.351,2.235-2.555,2.738C153.139,244.839,152.536,244.955,151.939,244.955z M112.456,131.435
				c-2.726,4.056-23.118,35.742-12.068,58.952c9.786,20.548,37.904,37.462,48.979,43.515
				c19.822-55.852,49.527-96.478,88.346-120.796c31.908-19.986,62.942-24.564,83.855-24.779
				c-35.563-17.517-71.066-19.64-86.115-19.64c-5.181,0-8.207,0.247-8.236,0.251C185.274,69.742,118.453,126.282,112.456,131.435z"
				/>
		</g>
		<g>
			<path fill="#FFFFFF" d="M226.83,64.391c0,0-97.71,29.267-130.554,127.96c-11.783-20.143-19.224-33.22-19.224-33.22
				S109.029,76.698,226.83,64.391z"/>
			<path fill="#3C2517" d="M96.271,196.909c-1.606,0-3.112-0.853-3.938-2.259c-11.654-19.935-19.173-33.132-19.249-33.263
				c-0.677-1.191-0.784-2.622-0.286-3.905c0.326-0.849,34.366-85.17,153.56-97.622c2.328-0.267,4.479,1.327,4.941,3.634
				c0.463,2.307-0.904,4.59-3.159,5.268c-0.953,0.286-95.86,29.836-127.542,125.023c-0.565,1.702-2.077,2.913-3.853,3.096
				C96.587,196.901,96.427,196.909,96.271,196.909z M82.146,158.856c2.033,3.546,6.683,11.651,13.149,22.768
				c21.983-56.338,65.185-89.063,95.797-106.096c-38.508,10.284-64.096,28.564-79.804,43.782
				C93.326,136.715,84.711,153.33,82.146,158.856z"/>
		</g>
		<g>
			<path fill="#FFFFFF" d="M48.652,235.555c0,0-11.298,75.604,43.921,139.651c0,0,72.885,47.429,168.562,33.315
				c0,0,20.888-40.396,14.806-72.033C275.941,336.489,96.198,373.887,48.652,235.555z"/>
			<path fill="#3C2517" d="M225.219,415.705c-77.873,0-132.829-35.18-135.132-36.678c-0.362-0.234-0.689-0.514-0.968-0.842
				C33.18,313.297,43.663,238.054,44.138,234.882c0.31-2.08,2-3.678,4.097-3.869c2.083-0.196,4.043,1.072,4.724,3.056
				c16.07,46.748,58.614,102.468,170.05,102.468c29.909,0,51.788-4.471,52.007-4.516c1.188-0.246,2.443-0.004,3.459,0.674
				c1.012,0.674,1.719,1.732,1.943,2.934c6.309,32.812-14.348,73.283-15.232,74.988c-0.672,1.304-1.932,2.203-3.383,2.419
				C249.78,414.809,237.472,415.705,225.219,415.705z M95.585,371.712c5.79,3.577,58.515,34.873,129.634,34.873
				c11.002,0,22.053-0.755,32.879-2.235c3.783-8.01,16.719-37.596,14.028-62.533c-8.172,1.363-26.206,3.842-49.118,3.842
				c-48.938,0-132.785-12.129-170.634-89.211C53.015,282.637,59.8,329.885,95.585,371.712z"/>
		</g>
	</g>
</g>
</svg>
