<?xml version="1.0" encoding="utf-8"?>
<!-- Generator: Adobe Illustrator 16.0.0, SVG Export Plug-In . SVG Version: 6.00 Build 0)  -->
<!DOCTYPE svg PUBLIC "-//W3C//DTD SVG 1.1//EN" "http://www.w3.org/Graphics/SVG/1.1/DTD/svg11.dtd">
<svg version="1.1" id="Layer_1" xmlns="http://www.w3.org/2000/svg" xmlns:xlink="http://www.w3.org/1999/xlink" x="0px" y="0px"
	 width="500px" height="500px" viewBox="0 0 500 500" enable-background="new 0 0 500 500" xml:space="preserve">
<g id="Layer_1_copy_7">
	<g>
		<path fill="#FFE6C7" d="M466.214,252.82c0,118.334-95.93,214.266-214.262,214.266c-118.334,0-214.268-95.932-214.268-214.266
			c0-118.334,95.934-214.265,214.268-214.265C370.284,38.555,466.214,134.485,466.214,252.82z"/>
		<path fill="#27140E" d="M251.952,470.716c-120.147,0-217.899-97.747-217.899-217.896S131.805,34.924,251.952,34.924
			c120.146,0,217.894,97.748,217.894,217.896S372.098,470.716,251.952,470.716z M251.952,42.187
			c-116.146,0-210.633,94.489-210.633,210.633c0,116.143,94.487,210.633,210.633,210.633c116.14,0,210.63-94.49,210.63-210.633
			C462.582,136.676,368.092,42.187,251.952,42.187z"/>
	</g>
	<g>
		<path fill="#4A50A2" d="M159.872,307.77c-18.33,0-38.229,0-57.329,0c-2.755,0-5.545,0.205-7.598-0.31
			c-4.084-1.03-6.986-4.471-7.589-8.835c-0.443-3.209-0.157-6.684-0.157-10.072c0-16.214,0-33.748,0-50.356
			c0-6.746-0.478-13.562,0-20.141c0.345-4.703,3.331-8.267,7.283-9.453c2.271-0.68,5.039-0.466,7.903-0.466
			c16.632,0,32.863,0,49.583,0c2.701,0,5.602,0.443,8.213,0c1.792-0.305,3.55-2.621,4.805-3.72
			c10.394-9.091,21.371-18.222,31.61-27.115c8.828-7.674,17.585-15.426,26.958-23.396c3.024-2.571,6.382-6.492,10.382-6.973
			c6.338-0.762,10.774,3.21,11.776,8.057c0.733,3.533,0.157,8.412,0.157,12.86c0,60.098,0,119.937,0,180.207
			c0,5.514,0.723,12.291-1.085,15.961c-2.072,4.192-7.2,7.59-13.325,4.957c-3.463-1.486-6.58-5.104-9.302-7.437
			C200.73,343.161,181.448,326.496,159.872,307.77z"/>
		<path fill="#27140E" d="M235.739,373.531c-1.906,0-3.828-0.412-5.713-1.225c-3.12-1.336-5.75-3.828-8.067-6.023
			c-0.747-0.71-1.471-1.395-2.162-1.988c-18.849-16.158-37.23-32.025-61.282-52.895h-55.972c-0.601,0-1.2,0.012-1.793,0.021
			c-0.621,0.01-1.235,0.021-1.828,0.021c-1.5,0-3.246-0.055-4.858-0.461c-5.456-1.377-9.501-6.032-10.305-11.857
			c-0.358-2.592-0.296-5.225-0.236-7.77c0.025-0.933,0.048-1.871,0.048-2.801v-50.358c0-2.223-0.054-4.455-0.107-6.683
			c-0.107-4.504-0.215-9.165,0.116-13.722c0.439-6.028,4.309-11,9.86-12.667c1.909-0.574,3.948-0.651,5.687-0.651
			c0.539,0,1.091,0.008,1.644,0.016l1.616,0.017h49.583c0.961,0,1.944,0.049,2.933,0.102c1.697,0.091,3.495,0.151,4.671-0.051
			c0.283-0.143,1.248-1.125,1.766-1.654c0.451-0.459,0.873-0.884,1.254-1.217c5.613-4.908,11.389-9.825,17.132-14.71
			c4.901-4.17,9.775-8.318,14.49-12.415c2.707-2.354,5.407-4.713,8.126-7.088c6.072-5.307,12.35-10.793,18.864-16.333
			c0.588-0.5,1.187-1.054,1.801-1.621c2.741-2.525,6.157-5.669,10.498-6.19c0.676-0.082,1.336-0.122,1.979-0.122
			c6.768,0,12.44,4.542,13.788,11.046c0.597,2.879,0.467,6.273,0.337,9.557c-0.051,1.352-0.105,2.716-0.105,4.041v180.207
			c0,1.181,0.034,2.42,0.071,3.676c0.137,5.027,0.28,10.223-1.534,13.891C245.669,370.424,240.837,373.531,235.739,373.531z
			 M102.543,304.139h57.329c0.872,0,1.719,0.312,2.38,0.887c24.543,21.304,43.167,37.375,62.272,53.752
			c0.779,0.668,1.591,1.437,2.429,2.23c1.879,1.783,4.01,3.799,5.939,4.626c0.976,0.419,1.934,0.634,2.847,0.634
			c2.864,0,4.907-2.082,5.786-3.861c1.017-2.053,0.895-6.53,0.784-10.477c-0.037-1.324-0.074-2.631-0.074-3.875V167.849
			c0-1.417,0.058-2.876,0.116-4.323c0.108-2.846,0.225-5.79-0.194-7.799c-0.543-2.634-3.059-5.768-7.784-5.188
			c-2.015,0.241-4.372,2.409-6.444,4.322c-0.691,0.633-1.364,1.252-2.021,1.812c-6.476,5.506-12.736,10.977-18.787,16.269
			c-2.722,2.378-5.429,4.744-8.139,7.102c-4.74,4.114-9.63,8.277-14.553,12.465c-5.716,4.862-11.467,9.759-17.056,14.642
			c-0.259,0.229-0.542,0.525-0.853,0.84c-1.363,1.393-3.239,3.301-5.729,3.725c-1.772,0.305-4.033,0.268-6.28,0.147
			c-0.856-0.047-1.707-0.095-2.543-0.095h-49.583c-0.579,0-1.152-0.008-1.725-0.017l-1.535-0.015c-1.214,0-2.585,0.04-3.598,0.344
			c-2.684,0.805-4.483,3.195-4.704,6.238c-0.307,4.209-0.208,8.49-0.099,13.025c0.054,2.285,0.108,4.574,0.108,6.854v50.357
			c0,0.988-0.023,1.982-0.048,2.977c-0.055,2.359-0.109,4.59,0.167,6.602c0.406,2.922,2.274,5.146,4.887,5.807
			c0.845,0.215,2.09,0.242,3.082,0.242c0.559,0,1.128-0.012,1.705-0.021C101.261,304.148,101.9,304.139,102.543,304.139z"/>
	</g>
	<g>
		<path fill="#F26343" d="M325.976,148.017c1.865-0.242,4.847,0.157,6.666,1.239c2.968,1.769,6.109,6.663,8.521,10.072
			c2.711,3.835,5.34,8.065,7.283,11.312c9.529,15.926,16.507,32.47,20.919,53.303c2.137,10.099,3.562,21.429,3.562,33.467
			c0,24.426-4.333,45.031-11.312,62.91c-5.955,15.266-13.896,29.27-23.239,41.836c-1.841,2.476-3.171,4.535-5.578,5.886
			c-7.493,4.204-17.045-2.212-15.186-11.31c0.605-2.959,2.658-4.709,4.34-6.974c8.146-10.969,15.129-23.116,20.454-37.032
			c6.19-16.186,9.762-33.199,9.759-56.092c0-20.395-4.92-40.046-11-54.852c-3.007-7.319-7.057-15.076-11.155-21.848
			c-1.791-2.958-3.844-6.222-6.511-9.917c-2.284-3.164-5.612-5.869-6.351-10.07C315.965,153.264,321.015,148.66,325.976,148.017z"/>
		<path fill="#27140E" d="M327.804,372.993c-4.188,0-8.28-1.95-10.947-5.226c-2.688-3.289-3.684-7.466-2.805-11.766
			c0.639-3.12,2.33-5.159,3.819-6.955c0.394-0.471,0.787-0.949,1.163-1.449c8.522-11.478,15.057-23.309,19.978-36.17
			c6.583-17.216,9.522-34.113,9.521-54.793c0-23.797-6.723-43.717-10.731-53.473c-2.735-6.676-6.61-14.257-10.899-21.346
			c-1.623-2.68-3.645-5.924-6.349-9.673c-0.565-0.784-1.204-1.534-1.846-2.293c-2.076-2.46-4.429-5.246-5.138-9.272
			c-0.669-3.79,0.171-7.519,2.358-10.5c2.25-3.06,5.831-5.175,9.584-5.663c0.488-0.063,1.037-0.097,1.613-0.097
			c1.017,0,4.538,0.131,7.375,1.818c3.253,1.94,6.131,6.073,8.664,9.718l0.961,1.377c2.274,3.214,4.772,7.097,7.438,11.543
			c10.378,17.346,17.162,34.639,21.354,54.416c2.417,11.407,3.642,22.92,3.642,34.219c0.005,23.291-3.776,44.301-11.559,64.229
			c-5.885,15.073-13.863,29.437-23.711,42.687l-0.596,0.801c-1.698,2.315-3.302,4.504-6.124,6.086
			C332.495,372.375,330.152,372.993,327.804,372.993z M327.125,151.581c-0.242,0-0.475,0.011-0.682,0.038
			c-1.794,0.232-3.581,1.289-4.661,2.76c-1.033,1.406-1.393,3.068-1.062,4.939c0.367,2.096,1.834,3.834,3.535,5.846
			c0.762,0.899,1.511,1.798,2.188,2.729c2.853,3.958,4.975,7.359,6.67,10.164c4.479,7.399,8.525,15.335,11.406,22.346
			c4.211,10.251,11.272,31.187,11.272,56.232c0.003,21.606-3.079,39.307-9.996,57.393c-5.163,13.484-12.009,25.882-20.933,37.896
			c-0.453,0.61-0.932,1.188-1.401,1.756c-1.289,1.559-2.035,2.5-2.295,3.782c-0.555,2.714,0.406,4.604,1.313,5.714
			c2.021,2.482,5.706,3.295,8.533,1.698c1.448-0.812,2.444-2.168,3.821-4.044l0.621-0.84c9.463-12.729,17.127-26.52,22.772-40.99
			c7.445-19.077,11.064-39.221,11.064-61.591c0-10.793-1.174-21.801-3.486-32.714c-4.072-19.23-10.389-35.326-20.479-52.193
			c-2.567-4.288-4.969-8.016-7.134-11.08L337.2,160c-1.902-2.738-4.511-6.487-6.416-7.624
			C330.02,151.922,328.448,151.581,327.125,151.581z"/>
	</g>
	<g>
		<path fill="#EF3640" d="M359.441,115.349c2.32-0.301,6.037,0.195,8.302,1.544c3.701,2.205,7.615,8.303,10.617,12.55
			c3.381,4.78,6.655,10.049,9.078,14.093c11.875,19.848,20.562,40.46,26.062,66.417c2.667,12.586,4.439,26.705,4.439,41.705
			c0.003,30.434-5.396,56.105-14.097,78.387c-7.422,19.02-17.312,36.469-28.957,52.127c-2.296,3.088-3.952,5.653-6.953,7.337
			c-9.335,5.237-21.233-2.758-18.92-14.096c0.753-3.685,3.314-5.864,5.407-8.688c10.152-13.668,18.854-28.802,25.487-46.143
			c7.713-20.167,12.163-41.368,12.158-69.891c0-25.413-6.131-49.898-13.707-68.349c-3.743-9.121-8.796-18.785-13.899-27.224
			c-2.23-3.684-4.79-7.753-8.108-12.356c-2.848-3.944-6.992-7.314-7.918-12.549C346.97,121.886,353.256,116.15,359.441,115.349z"/>
		<path fill="#27140E" d="M361.716,394.779c-4.95,0-9.793-2.307-12.95-6.178c-3.174-3.888-4.35-8.828-3.307-13.914
			c0.75-3.668,2.778-6.119,4.572-8.278c0.494-0.601,0.999-1.204,1.476-1.847c10.669-14.367,18.851-29.18,25.007-45.274
			c8.251-21.565,11.928-42.72,11.924-68.595c0-29.806-8.416-54.752-13.436-66.969c-3.433-8.355-8.277-17.846-13.646-26.723
			c-2.029-3.352-4.56-7.413-7.948-12.113c-0.716-0.993-1.527-1.945-2.338-2.909c-2.519-2.978-5.367-6.352-6.21-11.134
			c-0.803-4.544,0.159-8.833,2.781-12.399c2.659-3.621,6.897-6.124,11.337-6.699c0.577-0.076,1.218-0.115,1.896-0.115
			c2.481,0,6.079,0.562,8.729,2.141c3.892,2.317,7.409,7.379,10.516,11.845l1.211,1.728c2.823,3.996,5.929,8.815,9.227,14.325
			c13.056,21.817,21.229,42.643,26.503,67.528c2.993,14.159,4.516,28.443,4.516,42.459c0.003,28.902-4.687,54.979-14.341,79.707
			c-7.309,18.715-17.205,36.537-29.43,52.976l-0.747,1.013c-2.057,2.804-3.999,5.448-7.345,7.324
			C367.256,394.055,364.492,394.779,361.716,394.779z M360.874,118.895c-0.348,0-0.673,0.017-0.966,0.056
			c-2.506,0.324-4.906,1.743-6.413,3.797c-1.418,1.93-1.93,4.293-1.483,6.838c0.501,2.852,2.495,5.211,4.606,7.707
			c0.896,1.065,1.828,2.165,2.677,3.345c3.542,4.911,6.172,9.126,8.272,12.604c5.561,9.186,10.586,19.033,14.151,27.722
			c5.222,12.712,13.982,38.676,13.982,69.729c0,26.803-3.825,48.758-12.4,71.188c-6.402,16.726-14.893,32.103-25.963,47.009
			c-0.554,0.745-1.141,1.457-1.716,2.151c-1.491,1.796-2.664,3.211-3.049,5.101c-0.597,2.909,0.051,5.705,1.816,7.869
			c2.793,3.422,7.876,4.516,11.769,2.329c1.973-1.106,3.259-2.86,5.042-5.288l0.771-1.047c11.837-15.916,21.422-33.172,28.49-51.281
			c9.321-23.877,13.85-49.084,13.846-77.066c0-13.511-1.466-27.29-4.359-40.953c-5.099-24.065-13.001-44.205-25.627-65.303
			c-3.201-5.352-6.209-10.016-8.927-13.864l-1.24-1.773c-2.415-3.476-5.729-8.238-8.27-9.751
			C364.798,119.365,362.688,118.895,360.874,118.895z"/>
	</g>
	<g>
		<path fill="#F78F38" d="M299.016,174.978c7.208-0.934,10.217,4.475,13.325,9.142c9.057,13.575,16.435,29.627,20.146,48.343
			c1.496,7.544,2.108,15.55,2.479,24.793c0.709,17.703-3.096,33.448-7.746,46.639c-3.291,9.33-8.13,19.416-13.482,27.582
			c-1.889,2.881-3.727,5.957-5.73,7.899c-6.134,5.946-16.578,2.065-17.509-5.884c-0.616-5.27,2.292-8.014,4.494-11.312
			c11.066-16.6,19.366-36.609,19.366-64.771c0-15.395-3.573-29.125-7.903-40.13c-2.146-5.45-5.118-11.355-7.9-16.116
			c-1.036-1.773-2.636-4.577-4.651-7.438c-1.877-2.671-3.731-5.052-3.871-8.057C289.752,179.677,294.164,175.605,299.016,174.978z"
			/>
		<path fill="#27140E" d="M300.898,345.893c-7.188,0-13.209-5.148-14.015-11.979c-0.672-5.771,1.913-9.339,3.989-12.199
			c0.367-0.512,0.742-1.025,1.094-1.552c12.797-19.19,18.757-39.134,18.757-62.754c-0.003-12.849-2.577-25.905-7.65-38.8
			c-1.923-4.889-4.715-10.58-7.658-15.613l-0.29-0.498c-1.032-1.774-2.447-4.203-4.191-6.685l-0.428-0.604
			c-1.934-2.722-3.929-5.537-4.105-9.373c-0.385-8.323,5.975-13.662,12.151-14.461c9.021-1.163,13.202,5.252,16.206,9.811
			l0.607,0.917c10.234,15.351,17.193,32.055,20.682,49.652c1.692,8.536,2.238,17.606,2.549,25.353
			c0.613,15.382-1.992,31.08-7.952,47.994c-3.502,9.918-8.556,20.256-13.869,28.363l-0.917,1.412
			c-1.647,2.555-3.353,5.191-5.327,7.105C307.933,344.505,304.51,345.893,300.898,345.893z M300.608,178.503
			c-0.358,0-0.733,0.026-1.125,0.077c-3.035,0.393-6.013,2.897-5.826,6.921c0.075,1.707,1.267,3.384,2.772,5.509l0.44,0.625
			c1.927,2.735,3.495,5.427,4.528,7.207l0.286,0.489c3.123,5.339,6.089,11.397,8.146,16.618c5.411,13.747,8.155,27.695,8.155,41.46
			c0,25.122-6.347,46.343-19.979,66.784c-0.405,0.606-0.828,1.195-1.258,1.783c-1.971,2.717-2.98,4.269-2.65,7.088
			c0.407,3.484,3.775,5.563,6.798,5.563c1.21,0,2.989-0.323,4.577-1.86c1.374-1.334,2.852-3.617,4.276-5.83l0.943-1.453
			c5.01-7.641,9.783-17.408,13.094-26.799c5.652-16.029,8.122-30.845,7.546-45.287c-0.3-7.467-0.819-16.187-2.414-24.229
			c-3.301-16.658-9.895-32.484-19.603-47.036l-0.627-0.953C305.966,181.041,304.116,178.503,300.608,178.503z"/>
	</g>
	<g>
		<path fill="#FEBF32" d="M269.576,204.108c6.656-1.023,9.974,3.407,12.548,7.903c3.151,5.495,5.817,11.822,7.903,18.127
			c2.848,8.6,4.947,19.346,4.65,30.06c-0.461,16.479-4.354,29.905-10.539,41.524c-2.039,3.834-4.115,8.215-7.279,10.072
			c-7.352,4.311-16.715-1.727-15.34-10.688c0.263-1.732,1.059-3.366,2.012-4.959c5.978-9.989,10.384-21.568,10.384-37.967
			c0-13.09-3.64-24.53-8.214-33.158c-1.225-2.309-4.086-5.558-4.648-9.142C260.066,209.619,264.596,204.87,269.576,204.108z"/>
		<path fill="#27140E" d="M271.698,316.85c-4.064,0-7.927-1.783-10.604-4.896c-2.683-3.131-3.809-7.179-3.164-11.396
			c0.385-2.525,1.531-4.683,2.489-6.276c6.822-11.406,9.863-22.541,9.863-36.099c0-13.856-4.234-24.757-7.79-31.458
			c-0.305-0.576-0.733-1.218-1.197-1.918c-1.472-2.242-3.309-5.034-3.829-8.36c-0.582-3.718,0.286-7.397,2.451-10.358
			c2.187-2.989,5.507-5.019,9.106-5.571c0.826-0.126,1.641-0.189,2.426-0.189c8.169,0,11.992,6.671,13.828,9.878
			c3.066,5.353,5.902,11.852,8.197,18.792c3.394,10.249,5.107,21.367,4.831,31.303c-0.442,15.99-4.026,30.1-10.958,43.129
			l-0.576,1.088c-2.025,3.849-4.316,8.205-8.074,10.412C276.55,316.184,274.133,316.85,271.698,316.85z M271.449,207.591
			c-0.42,0-0.858,0.034-1.323,0.105c-1.681,0.26-3.308,1.26-4.349,2.68c-0.719,0.983-1.498,2.641-1.139,4.944
			c0.279,1.776,1.578,3.751,2.726,5.497c0.6,0.911,1.146,1.753,1.545,2.503c3.938,7.431,8.637,19.512,8.637,34.862
			c0,14.944-3.358,27.229-10.897,39.826c-0.909,1.528-1.389,2.65-1.541,3.646c-0.408,2.68,0.59,4.504,1.502,5.568
			c2.041,2.375,5.642,3.064,8.412,1.442c1.973-1.156,3.752-4.543,5.322-7.528l0.59-1.119c6.395-12.016,9.703-25.074,10.114-39.924
			c0.257-9.109-1.333-19.348-4.467-28.816c-2.147-6.487-4.776-12.526-7.606-17.462C276.376,209.279,274.338,207.591,271.449,207.591
			z"/>
	</g>
</g>
</svg>
