<?xml version="1.0" encoding="utf-8"?>
<!-- Generator: Adobe Illustrator 16.0.0, SVG Export Plug-In . SVG Version: 6.00 Build 0)  -->
<!DOCTYPE svg PUBLIC "-//W3C//DTD SVG 1.1//EN" "http://www.w3.org/Graphics/SVG/1.1/DTD/svg11.dtd">
<svg version="1.1" id="Layer_1" xmlns="http://www.w3.org/2000/svg" xmlns:xlink="http://www.w3.org/1999/xlink" x="0px" y="0px"
	 width="500px" height="500px" viewBox="0 0 500 500" enable-background="new 0 0 500 500" xml:space="preserve">
<g id="Layer_1_copy_6">
	<path fill="#727448" stroke="#3C2415" stroke-width="4.1568" stroke-miterlimit="10" d="M246.066,213.084
		c0,0-69.156-131.297-124.595-116.229c-55.435,15.068-52.143,72.225-24.149,108.597c27.993,36.372,160.272,214.077,179.481,220.832
		c19.215,6.756,27.445-0.521,24.153-14.548c-3.296-14.031-29.095-62.354-27.445-92.492
		C275.16,289.109,270.818,253.751,246.066,213.084z"/>
	<path fill="#925724" stroke="#3C2415" stroke-width="4.1568" stroke-miterlimit="10" d="M113.885,349.693v31.176
		c0,0,136.654,2.079,174.064,2.598c37.413,0.52,114.312,9.354,119.511,9.873c5.195,0.52,31.695,8.627,41.048,8.729
		c9.354,0.104,16.108-6.649,23.901-23.277c7.793-16.627,14.55-34.294,3.118-32.734c-11.433,1.559-23.382,2.598-38.972,7.795
		c-15.587,5.195-62.352,4.676-63.909,4.676c-1.559,0-60.274,0.521-70.667,0.521c-10.392,0-78.265-5.04-78.265-5.04
		s-57.352-7.104-66.186-8.046C148.697,345.016,113.885,343.979,113.885,349.693z"/>
	<path fill="#C87A29" stroke="#3C2415" stroke-width="4.1568" stroke-miterlimit="10" d="M88.425,172.509
		c0,0,9.871,7.132,11.432,24.87c1.558,17.737-41.569,12.022-41.569,12.022S22.954,194.851,88.425,172.509z"/>
	<path fill="#F7941E" stroke="#3C2415" stroke-width="4.1568" stroke-miterlimit="10" d="M70.238,161.597
		c0,0-44.686,26.5-44.168,41.569c0.521,15.068,5.198,33.773,16.629,31.695c11.431-2.078,15.588-25.46,15.588-25.46
		s-6.755-8.314-0.52-14.029c6.235-5.716,42.089-20.784,42.089-20.784S82.81,153.477,70.238,161.597z"/>
	<path fill="#735748" stroke="#3C2415" stroke-width="4.1568" stroke-miterlimit="10" d="M230.796,143.931
		c0,0-57.677,3.117-75.862,22.862c-18.188,19.744-20.784,51.959-6.756,78.459c14.03,26.5,99.245,165.234,184.458,178.224
		c61.834-2.6,25.98-68.587,25.98-68.587L230.796,143.931z"/>
	<path fill="#FBB040" stroke="#3C2415" stroke-width="4.1568" stroke-miterlimit="10" d="M188.341,347.094
		c-4.416,4.678-4.935,36.112,6.662,38.713c11.525-3.64,4.77-26.242,16.462-27.021c4.156,0,3.376-8.834,2.077-10.393
		C212.244,346.835,199.253,337.223,188.341,347.094z"/>
	<path fill="#FBB040" stroke="#3C2415" stroke-width="4.1568" stroke-miterlimit="10" d="M204.189,347.094
		c-4.417,4.678-4.937,36.112,6.66,38.713c11.526-3.64,4.771-26.242,16.462-27.021c4.156,0,3.378-8.834,2.078-10.393
		C228.091,346.835,215.102,337.223,204.189,347.094z"/>
	<path fill="#FBB040" stroke="#3C2415" stroke-width="4.1568" stroke-miterlimit="10" d="M221.337,347.094
		c-4.417,4.678-4.938,36.112,6.66,38.713c11.525-3.64,4.771-26.242,16.462-27.021c4.156,0,3.378-8.834,2.077-10.393
		C245.237,346.835,232.248,337.223,221.337,347.094z"/>
	<path fill="#006B45" stroke="#3C2415" stroke-width="4.1568" stroke-miterlimit="10" d="M93.022,177.524
		c0,0-17.588-19.82-26.94-17.786c0,0,1.733-21.867,39.489-25.333c37.756-3.464,38.101,27.02,37.756,36.025
		c-0.345,9.005-7.968,47.803,5.196,47.803s14.553-12.47,28.753-11.432c14.199,1.04,15.242,16.975,16.627,26.328
		c1.384,9.353,0.34,29.792-50.231,29.098c-50.572-0.693-49.995-49.769-46.906-57.309C99.856,197.379,98.836,187.736,93.022,177.524z
		"/>
	<path fill="#006B45" stroke="#3C2415" stroke-width="4.1568" stroke-miterlimit="10" d="M93.022,177.524
		c0,0-17.588-19.82-26.94-17.786c0,0,1.733-21.867,39.489-25.333"/>
	
		<ellipse fill="#FFFFFF" stroke="#3C2415" stroke-width="4.1568" stroke-miterlimit="10" cx="114.303" cy="163.156" rx="12.73" ry="15.762"/>
	<ellipse fill="#3C2415" cx="113.117" cy="163.675" rx="5.195" ry="6.755"/>
	<path fill="#727448" stroke="#3C2415" stroke-width="4.1568" stroke-miterlimit="10" d="M347.705,210.277
		c0,0-65.469-131.296-117.95-116.228c-52.479,15.068-49.361,72.224-22.861,108.596c26.499,36.373,151.723,214.075,169.909,220.832
		c18.188,6.755,25.979-0.521,22.862-14.55c-3.118-14.028-27.539-62.352-25.98-92.489
		C375.244,286.301,371.136,250.943,347.705,210.277z"/>
</g>
</svg>
