<?xml version="1.0" encoding="utf-8"?>
<!-- Generator: Adobe Illustrator 16.0.0, SVG Export Plug-In . SVG Version: 6.00 Build 0)  -->
<!DOCTYPE svg PUBLIC "-//W3C//DTD SVG 1.1//EN" "http://www.w3.org/Graphics/SVG/1.1/DTD/svg11.dtd">
<svg version="1.1" id="Layer_1" xmlns="http://www.w3.org/2000/svg" xmlns:xlink="http://www.w3.org/1999/xlink" x="0px" y="0px"
	 width="500px" height="500px" viewBox="0 0 500 500" enable-background="new 0 0 500 500" xml:space="preserve">
<g id="Layer_1_copy_66">
	<g>
		<g>
			<path fill="#FBB041" d="M80.034,72.034c0,0-64.042,3.306-52.218,233.911c0,0,4.925,78.109,28.573,102.912
				c9.356,10.746,23.645-9.922,23.645-9.922s5.912,10.338,20.199,13.026s30.048-94.862,31.529-112.215
				C133.24,282.391,147.528,103.859,80.034,72.034z"/>
			<path fill="#231F20" d="M100.815,415.947L100.815,415.947c-0.438,0-0.872-0.047-1.31-0.125
				c-9.708-1.823-15.993-6.815-19.475-10.525c-3.808,4.387-10.424,10.589-17.389,10.589c-3.497,0-6.686-1.542-9.217-4.448
				c-24.233-25.406-29.327-101.998-29.531-105.244C12.004,74.283,77.057,68.253,79.831,68.108c0.628-0.036,1.293,0.094,1.878,0.37
				c67.426,31.793,56.786,198.51,53.968,231.605c-0.727,8.522-4.955,36.892-10.799,63.078
				C114.488,409.667,106.888,415.947,100.815,415.947z M80.034,395.006c0.056,0,0.111,0,0.17,0.01
				c1.345,0.055,2.57,0.801,3.238,1.973c0.2,0.338,5.268,8.717,17.314,11.068c0.915-0.475,7.396-5.3,16.891-48.613
				c5.538-25.267,9.525-52.103,10.2-60.031c1.666-19.615,14.414-191.654-48.406-223.293c-7.059,1.765-58.351,21.905-47.698,229.622
				c0.043,0.724,5.104,76.926,27.491,100.405c1.481,1.697,2.649,1.879,3.408,1.879c4.784,0,11.606-7.625,14.157-11.319
				C77.539,395.643,78.746,395.006,80.034,395.006z"/>
		</g>
		<g>
			<path fill="#F15B2B" d="M317.452,252.562c0,0-178.689,45.906-169.991,109.377c8.706,63.48,85.517,95.216,150.535,84.979
				c65.017-10.242,124.404-50.175,179.18-132.595c18.435-39.398-62.966-59.364-62.966-59.364S364.039,238.578,317.452,252.562z"/>
			<path fill="#3C2517" d="M273.464,452.737c-0.007,0-0.007,0-0.007,0c-30.739,0-60.624-8.239-84.165-23.19
				c-26.176-16.633-41.988-39.82-45.727-67.072c-9.067-66.182,165.475-111.807,172.911-113.716
				c12.699-3.816,26.986-5.773,42.309-5.773c30.174,0,54.224,7.464,56.504,8.194c3.646,0.908,53.319,13.713,65.697,39.575
				c3.877,8.101,3.795,16.597-0.249,25.237c-0.083,0.177-0.182,0.351-0.286,0.512c-52.779,79.416-112.258,123.343-181.841,134.301
				C290.436,452.084,281.977,452.737,273.464,452.737z M358.784,250.846c-14.556,0-28.079,1.844-40.2,5.481
				c-0.6,0.155-45.083,11.682-87.868,30.749c-38.5,17.154-83.521,43.972-79.36,74.326c5.688,41.479,49.454,83.474,122.099,83.474
				c0,0,0.003,0,0.01,0c8.104,0,16.153-0.614,23.924-1.84c67.213-10.589,124.899-53.32,176.346-130.634
				c2.924-6.399,2.979-12.373,0.16-18.254c-10.987-22.965-60.123-35.252-60.617-35.373c-0.096-0.023-0.188-0.051-0.283-0.084
				C412.752,258.62,388.524,250.846,358.784,250.846z"/>
		</g>
		<g>
			<path fill="#CB7B29" d="M303.368,302.458l-85.75,48.606c0,0,6.145,30.75,57.853,27.213
				c51.707-3.545,129.434-50.646,140.229-78.791C392.122,284.619,320.003,289.064,303.368,302.458z"/>
		</g>
		<g>
			<path fill="#3C2517" d="M268.675,382.24c-15.301,0-28.325-3.27-38.989-9.825c-22.554-13.865-25.584-37.181-25.701-38.162
				c-0.264-2.157,1.278-4.11,3.432-4.371c2.146-0.278,4.104,1.272,4.37,3.425c0.036,0.307,2.85,20.705,22.141,32.487
				c20.526,12.541,51.574,11.394,92.289-3.409c89.743-39.971,91.732-75.438,91.744-75.793c0.056-2.169,1.733-3.906,4.035-3.822
				c2.167,0.062,3.881,1.864,3.822,4.035c-0.044,1.647-2.179,40.828-96.527,82.819c-0.087,0.04-0.169,0.069-0.256,0.103
				C306.117,378.066,285.945,382.24,268.675,382.24z"/>
		</g>
		<g>
			<path fill="#F8ED34" d="M404.346,294.668c0,0,11.123-33.986,41.722-28.145l21.695,13.74c0,0-37.774,2.854-52.062,25.875
				C415.232,296.93,404.346,294.668,404.346,294.668z"/>
			<path fill="#3C2517" d="M415.699,310.068c-0.325,0-0.655-0.039-0.982-0.125c-1.666-0.426-2.854-1.891-2.942-3.604
				c-0.307-6.022-7.925-7.756-8.246-7.825c-1.085-0.236-2.027-0.924-2.582-1.888c-0.556-0.968-0.68-2.123-0.334-3.181
				c0.42-1.284,10.64-31.53,38.555-31.53c2.479,0,5.049,0.253,7.639,0.744c0.484,0.093,0.949,0.278,1.365,0.546l21.694,13.736
				c1.432,0.908,2.119,2.625,1.711,4.269c-0.409,1.644-1.823,2.842-3.514,2.972c-0.359,0.027-35.977,3.004-49.025,24.031
				C418.311,309.384,417.032,310.068,415.699,310.068z M409.542,292.338c2.39,1.102,5.27,2.9,7.346,5.73
				c11.175-12.383,28.664-17.805,39.89-20.112l-12.159-7.703c-1.863-0.313-3.691-0.476-5.451-0.476
				C421.961,269.777,412.838,285.195,409.542,292.338z"/>
		</g>
		<g>
			<path fill="#3C2517" d="M214.244,354.997c-1.31,0-2.591-0.653-3.334-1.843c-1.152-1.842-0.594-4.268,1.244-5.42
				c2.919-1.824,71.81-44.814,106.224-55.082c16.961-5.059,39.167-7.457,59.39-6.398c12.96,0.676,35.566,3.439,41.396,14.334
				c1.025,1.914,0.308,4.297-1.611,5.321c-1.911,1.026-4.297,0.304-5.318-1.609c-5.862-10.954-55.119-15.003-91.605-4.116
				c-33.396,9.965-103.594,53.776-104.301,54.217C215.679,354.805,214.958,354.997,214.244,354.997z"/>
		</g>
		<g>
			<path fill="#F8ED34" d="M231.961,369.617c0,0-41.589,20.477-17.724,69.623c23.737,5.714,42.296,9.574,42.296,9.574
				s-25.595-49.531,9.729-70.252C245.274,377.807,231.961,369.617,231.961,369.617z"/>
			<path fill="#3C2517" d="M256.533,452.745c-0.268,0-0.533-0.032-0.797-0.088c-0.189-0.038-18.894-3.931-42.415-9.598
				c-1.143-0.274-2.103-1.046-2.613-2.105c-25.288-52.056,19.062-74.642,19.515-74.866c1.215-0.596,2.645-0.529,3.797,0.182
				c0.118,0.07,12.794,7.662,32.383,8.362c1.744,0.07,3.238,1.274,3.668,2.972c0.427,1.688-0.314,3.467-1.821,4.348
				c-31.745,18.621-8.466,64.593-8.228,65.056c0.697,1.345,0.56,2.972-0.36,4.183C258.912,452.179,257.744,452.745,256.533,452.745z
				 M216.99,435.859c13.643,3.271,25.501,5.902,32.76,7.483c-6.952-17.577-11.244-44.784,6.135-61.81
				c-11.82-1.803-20.222-5.534-23.911-7.43C224.8,378.419,199.17,397.152,216.99,435.859z"/>
		</g>
		<g>
			<path fill="#F8ED34" d="M357.865,351.066c0,0,47.384,21.199,18.845,66.459c0,0,36.58-27.313,41.297-31.811
				c4.718-4.497-7.719-52.242-39.293-47.48C374.407,341.116,357.865,351.066,357.865,351.066z"/>
			<path fill="#3C2517" d="M376.71,421.458c-0.958,0-1.921-0.353-2.668-1.047c-1.391-1.281-1.668-3.379-0.656-4.981
				c7.915-12.555,10.34-24.213,7.2-34.65c-5.203-17.318-24.144-26.043-24.337-26.129c-1.328-0.602-2.221-1.894-2.309-3.353
				c-0.085-1.459,0.646-2.846,1.896-3.601c0.164-0.098,16.511-9.936,20.692-12.729c0.483-0.323,1.028-0.532,1.601-0.622
				c1.658-0.248,3.324-0.373,4.943-0.373c21.452,0,32.12,20.858,35.712,29.828c2.859,7.151,6.489,20.413,1.935,24.76
				c-4.831,4.605-40.156,30.996-41.659,32.119C378.361,421.2,377.533,421.458,376.71,421.458z M365.678,350.934
				c7.083,4.521,18.187,13.53,22.419,27.519c2.507,8.293,2.229,17.073-0.816,26.216c11.158-8.427,24.364-18.521,27.667-21.477
				c0.68-2.9-1.354-15.998-9.367-27.596c-4.336-6.281-11.76-13.762-22.506-13.762c-0.963,0-1.948,0.059-2.947,0.173
				C376.986,344.05,370.477,348.029,365.678,350.934z"/>
		</g>
		<g>
			<path fill="#F8ED34" d="M222.106,286.698c0,0,31.477-1.607,31.417,41.159l24.815-13.431c0,0,3.042-34.493-23.972-41.352
				C240.958,278.414,222.106,286.698,222.106,286.698z"/>
			<path fill="#3C2517" d="M253.523,331.788c-0.7,0-1.396-0.188-2.019-0.554c-1.186-0.713-1.917-1.998-1.913-3.381
				c0.021-13.445-3.195-23.492-9.55-29.854c-7.013-7.024-15.807-7.378-17.496-7.378c-1.881,0.056-3.709-1.172-4.143-3.02
				c-0.439-1.848,0.387-3.736,2.123-4.498c0.188-0.084,19.063-8.373,32.387-13.677c0.774-0.306,1.623-0.36,2.421-0.161
				c23.938,6.072,28.07,32.424,26.92,45.508c-0.119,1.317-0.886,2.483-2.049,3.112l-24.814,13.427
				C254.809,331.627,254.165,331.788,253.523,331.788z M235.055,285.375c3.445,1.438,7.141,3.654,10.549,7.068
				c6.757,6.766,10.651,16.486,11.615,28.945l17.301-9.363c0.146-6.952-0.924-29.107-19.918-34.812
				C248.32,279.738,240.997,282.83,235.055,285.375z"/>
		</g>
		<g>
			<path fill="#F8ED34" d="M319.659,251.941c0,0,27.043,12.086,14.211,41.08c0,0,19.423-6.183,28.125-3.111
				c9.724-16.834-0.103-43.078-4.13-42.996C353.836,246.993,336.923,247.076,319.659,251.941z"/>
			<path fill="#3C2517" d="M333.87,296.949c-1.098,0-2.167-0.461-2.926-1.307c-1.034-1.146-1.292-2.797-0.672-4.213
				c11.052-24.971-11.271-35.472-12.229-35.908c-1.5-0.68-2.419-2.228-2.294-3.875c0.126-1.646,1.258-3.039,2.846-3.485
				c11.271-3.181,24.259-4.921,38.593-5.165l0.598-0.012l0,0c3.628,0,5.782,3.733,6.49,4.959
				c4.148,7.188,10.191,28.229,1.123,43.931c-0.951,1.64-2.929,2.36-4.714,1.741c-0.815-0.287-2.33-0.633-4.92-0.633
				c-8.718,0-20.587,3.744-20.705,3.783C334.67,296.891,334.27,296.949,333.87,296.949z M329.279,253.68
				c6.921,5.879,15.169,16.797,10.774,33.604c4.562-1.065,10.507-2.159,15.711-2.159c1.497,0,2.861,0.089,4.1,0.267
				c5.645-13.216-0.279-30.978-3.022-34.529C346.89,251.061,337.659,252,329.279,253.68z"/>
		</g>
		<g>
			<path fill="#2DB674" d="M31.368,208.058l92.031-49.779c0,0,2.229,7.857,3.536,24.888l-96.55,51.421L31.368,208.058z"/>
		</g>
		<g>
			<path fill="#2DB674" d="M30.386,265.045l98.995-52.986c0,0,0.791,12.703,0.655,26.468l-99.175,53.048L30.386,265.045z"/>
		</g>
	</g>
</g>
</svg>
