<?xml version="1.0" encoding="utf-8"?>
<!-- Generator: Adobe Illustrator 16.0.0, SVG Export Plug-In . SVG Version: 6.00 Build 0)  -->
<!DOCTYPE svg PUBLIC "-//W3C//DTD SVG 1.1//EN" "http://www.w3.org/Graphics/SVG/1.1/DTD/svg11.dtd">
<svg version="1.1" id="Layer_1" xmlns="http://www.w3.org/2000/svg" xmlns:xlink="http://www.w3.org/1999/xlink" x="0px" y="0px"
	 width="500px" height="500px" viewBox="0 0 500 500" enable-background="new 0 0 500 500" xml:space="preserve">
<g id="Layer_1_copy_66">
	<g>
		<g>
			<path fill="#EEC4D6" d="M168.295,207.897l-17.269,174.656c0,0-9.67,32.748-15.193,44.955
				c-5.527,12.201-49.041,40.445-17.269,45.591c31.771,5.137,60.438-26.65,60.438-26.65s14.85-11.232,12.432-25.043
				c-1.038-7.39,46.274-107.882,46.274-107.882s14.163-27.93,29.022-1.928c0,0,49.181,103.551,48.145,110.931
				c-2.415,13.803,12.436,25.052,12.436,25.052s28.668,31.78,60.433,26.643c31.771-5.136-11.735-33.396-17.263-45.589
				c-5.526-12.202-15.199-44.948-15.199-44.948l-17.265-174.671"/>
		</g>
		<g>
			<path fill="#3C2517" d="M380.606,477.516c-28.69,0.01-52.692-25.251-55.152-27.928c-1.977-1.556-15.8-13.035-13.271-27.534
				c-0.041-6.134-29.408-70.319-47.918-109.286c-2.472-4.309-6.432-9.541-11.213-9.519c-5.879,0.147-11.311,8.356-12.912,11.508
				c-17.774,37.761-46.021,100.109-46.001,106.378c2.519,14.303-11.307,25.77-13.282,27.323c-2.678,2.91-30.795,32.486-62.73,27.334
				c-7.628-1.238-12-3.884-13.373-8.094c-2.631-8.068,7.427-18.219,17.151-28.043c4.921-4.97,10.005-10.104,11.442-13.275
				c5.133-11.343,14.088-41.321,14.989-44.354l17.245-174.396l5.427,0.533L153.74,382.822c-0.019,0.171-0.051,0.342-0.101,0.504
				c-0.394,1.346-9.787,33.066-15.323,45.305c-1.844,4.068-6.794,9.068-12.531,14.861c-7.36,7.434-17.446,17.613-15.848,22.52
				c0.65,1.988,3.868,3.552,9.063,4.389c29.959,4.857,57.697-25.47,57.973-25.778c0.111-0.123,0.244-0.238,0.379-0.351
				c0.131-0.099,13.49-10.418,11.39-22.396c-1.077-7.697,35.322-85.767,46.502-109.513c0.328-0.654,7.369-14.311,17.669-14.564
				c6.042-0.127,11.381,4.042,16.185,12.448c11.717,24.646,49.546,105.054,48.477,112.666c-2.108,12.061,11.25,22.388,11.385,22.489
				c0.135,0.1,0.262,0.217,0.375,0.349c0.278,0.302,28.02,30.628,57.979,25.777c5.188-0.835,8.406-2.398,9.058-4.395
				c1.599-4.905-8.486-15.095-15.848-22.529c-5.733-5.786-10.686-10.79-12.524-14.844c-5.54-12.241-14.938-43.96-15.331-45.306
				c-0.045-0.163-0.08-0.333-0.101-0.503l-17.265-174.675l5.429-0.535l17.238,174.414c0.903,3.033,9.857,33.011,14.994,44.352
				c1.436,3.164,6.522,8.302,11.437,13.26c9.728,9.827,19.784,19.991,17.157,28.055c-1.373,4.216-5.748,6.86-13.38,8.092
				C385.631,477.325,383.098,477.516,380.606,477.516z"/>
		</g>
	</g>
	<g>
		<g>
			<path fill="#FAE0EA" d="M207.526,22.967c0,0,17.753,28.253,47.712,25.683c29.951-2.568,44.754-25.683,44.754-25.683
				s42.812,5.137,122.437,95.89c0.848,0.854,1.706,6.848,1.706,6.848l10.282,9.846l-13.278,18.406l-7.708-5.989l-9.414,1.284
				l-76.2-44.091c0,0,31.271,101.302,19.057,107.231c-12.225,5.932-189.258,4.003-191.354-4.495
				c-2.101-8.495,26.751-101.454,26.751-101.454l-78.767,41.951l-8.135,0.426l-8.989,5.137l-8.561-21.83l6.851-3.853l3.849-8.565
				C88.517,119.71,160.008,23.395,207.526,22.967z"/>
		</g>
		<g>
			<path fill="#3C2517" d="M277.564,218.551c-28.819,0-58.373-0.739-81.083-2.023c-42.233-2.39-42.999-5.487-43.613-7.977
				c-1.959-7.921,17.444-72.488,24.844-96.591l-72.926,38.844c-0.353,0.186-0.742,0.293-1.142,0.315l-7.484,0.393l-8.429,4.814
				c-0.693,0.392-1.521,0.465-2.261,0.204c-0.747-0.263-1.342-0.837-1.635-1.576l-8.556-21.83c-0.5-1.267,0.015-2.705,1.203-3.373
				l6.063-3.411l3.486-7.747c0.08-0.179,0.178-0.35,0.3-0.509c2.945-3.976,72.852-97.408,121.168-97.843
				c0.937,0.002,1.827,0.475,2.329,1.273c0.163,0.258,17.263,26.822,45.178,24.419c28.286-2.425,42.548-24.216,42.693-24.437
				c0.559-0.88,1.562-1.376,2.617-1.236c1.792,0.215,44.759,6.301,124.16,96.799c0.313,0.307,1.272,1.274,2.216,7.322l9.605,9.201
				c0.983,0.94,1.122,2.461,0.323,3.564l-13.278,18.406c-0.43,0.602-1.087,0.998-1.821,1.105c-0.73,0.105-1.478-0.093-2.062-0.548
				l-6.796-5.286l-8.281,1.13c-0.598,0.089-1.207-0.037-1.733-0.34l-70.241-40.646c2.741,9.271,7.839,27.012,12.166,44.944
				c11.541,47.819,8.237,56.624,3.487,58.932C341.174,218.189,296.467,218.551,277.564,218.551z M158.101,206.623
				c7.173,3.536,60.873,6.474,119.465,6.474c42.562,0,64.881-1.585,68.119-3.159c5.299-3.232-4.072-50.845-20.471-103.974
				c-0.337-1.072,0.025-2.238,0.904-2.936c0.87-0.699,2.085-0.791,3.063-0.229l75.391,43.625l8.489-1.159
				c0.729-0.104,1.463,0.099,2.043,0.55l5.475,4.255l10.233-14.191l-8.562-8.204c-0.443-0.422-0.728-0.979-0.816-1.583
				c-0.333-2.319-0.864-4.849-1.175-5.583c-69.396-79.002-110.771-92.503-119.058-94.516c-4.029,5.438-19.041,23.086-45.731,25.374
				c-27.77,2.375-45.308-19.848-49.365-25.63c-44.526,2.28-111.321,90.179-115.221,95.368l-3.729,8.289
				c-0.24,0.531-0.646,0.973-1.148,1.257l-4.785,2.688l6.543,16.686l6.252-3.572c0.372-0.21,0.786-0.332,1.212-0.355l7.527-0.395
				l78.229-41.668c0.977-0.521,2.172-0.402,3.021,0.305c0.851,0.704,1.195,1.855,0.868,2.911
				C171.508,150.312,157.904,198.743,158.101,206.623z"/>
		</g>
	</g>
	<g>
		<path fill="#E587AC" d="M241.852,115.218c0,0,11.526-4.522,9.136-10.754c-2.39-6.231-10.932-0.769-10.932-0.769
			s5.811-10.584-2.382-11.777c-4.53-0.427-8.282,8.193-8.282,8.193s-5.12-12.974-11.013-6.657
			c-2.39,2.303,0.255,10.498,0.255,10.498s-12.89-4.612-13.403,3.076c-0.512,7.682,9.049,7.083,9.049,7.083
			s-11.01,4.525-8.453,10.929c2.564,6.4,11.872-0.172,11.872-0.172s-6.235,9.134-0.085,12.036c6.147,2.901,9.818-5.293,9.818-6.573
			c0,0,3.665,8.879,9.728,7.599c6.061-1.282,1.109-12.889,1.109-12.889s11.524,5.974,13.911-2.052
			C252.527,116.672,241.852,115.218,241.852,115.218z M227.771,123.842c-4.904,0-8.876-3.975-8.876-8.88
			c0-4.901,3.972-8.879,8.876-8.879c4.9,0,8.877,3.979,8.877,8.879C236.647,119.868,232.671,123.842,227.771,123.842z"/>
	</g>
	<g>
		<path fill="#E587AC" d="M312.728,252.141c0,0,9.172-3.598,7.27-8.558c-1.904-4.959-8.699-0.609-8.699-0.609
			s4.626-8.428-1.904-9.376c-3.598-0.336-6.584,6.524-6.584,6.524s-4.078-10.329-8.761-5.3c-1.906,1.834,0.201,8.356,0.201,8.356
			s-10.259-3.671-10.663,2.448c-0.411,6.108,7.201,5.633,7.201,5.633s-8.763,3.604-6.729,8.701c2.037,5.085,9.449-0.144,9.449-0.144
			s-4.963,7.27-0.074,9.582c4.896,2.31,7.819-4.209,7.819-5.231c0,0,2.912,7.06,7.735,6.043c4.827-1.015,0.889-10.25,0.889-10.25
			s9.169,4.748,11.062-1.64C321.217,253.296,312.728,252.141,312.728,252.141z M301.518,259c-3.901,0-7.065-3.16-7.065-7.062
			c0-3.899,3.164-7.066,7.065-7.066s7.062,3.167,7.062,7.066C308.58,255.839,305.419,259,301.518,259z"/>
	</g>
	<g>
		<path fill="#E587AC" d="M165.888,435.447c0,0,7.079-2.777,5.608-6.606c-1.47-3.831-6.715-0.473-6.715-0.473
			s3.571-6.498-1.469-7.232c-2.774-0.271-5.083,5.036-5.083,5.036s-3.146-7.979-6.763-4.094c-1.465,1.417,0.154,6.443,0.154,6.443
			s-7.913-2.823-8.226,1.896c-0.313,4.712,5.554,4.348,5.554,4.348s-6.758,2.778-5.195,6.717c1.578,3.93,7.297-0.109,7.297-0.109
			s-3.827,5.609-0.057,7.389c3.776,1.787,6.032-3.239,6.032-4.037c0,0,2.254,5.461,5.972,4.673c3.725-0.789,0.685-7.914,0.685-7.914
			s7.08,3.667,8.55-1.264C172.438,436.334,165.888,435.447,165.888,435.447z M157.235,440.738c-3.014,0-5.451-2.438-5.451-5.454
			c0-3.009,2.438-5.446,5.451-5.446c3.01,0,5.45,2.438,5.45,5.446C162.686,438.3,160.245,440.738,157.235,440.738z"/>
	</g>
	<g>
		<path fill="#E587AC" d="M311.73,133.837c0,0,6.812-2.675,5.4-6.361c-1.414-3.686-6.47-0.457-6.47-0.457s3.441-6.258-1.416-6.969
			c-2.665-0.251-4.895,4.851-4.895,4.851s-3.023-7.676-6.51-3.939c-1.411,1.363,0.144,6.21,0.144,6.21s-7.616-2.725-7.922,1.815
			c-0.301,4.547,5.354,4.194,5.354,4.194s-6.514,2.676-4.993,6.461c1.513,3.789,7.009-0.098,7.009-0.098s-3.682,5.401-0.041,7.12
			c3.631,1.715,5.803-3.132,5.803-3.888c0,0,2.172,5.25,5.755,4.495c3.591-0.76,0.657-7.628,0.657-7.628s6.819,3.536,8.231-1.211
			C318.031,134.697,311.73,133.837,311.73,133.837z M303.393,138.938c-2.899,0-5.252-2.35-5.252-5.251
			c0-2.899,2.353-5.25,5.252-5.25c2.902,0,5.263,2.35,5.263,5.25C308.654,136.588,306.295,138.938,303.393,138.938z"/>
	</g>
	<g>
		<path fill="#E587AC" d="M193.395,65.611c0,0,6.814-2.677,5.404-6.366c-1.419-3.686-6.468-0.453-6.468-0.453
			s3.435-6.263-1.416-6.969c-2.677-0.251-4.897,4.847-4.897,4.847s-3.025-7.672-6.511-3.938c-1.416,1.364,0.147,6.21,0.147,6.21
			s-7.621-2.729-7.925,1.816c-0.303,4.548,5.356,4.19,5.356,4.19s-6.519,2.679-5.002,6.466c1.512,3.787,7.019-0.101,7.019-0.101
			s-3.684,5.402-0.052,7.119c3.641,1.716,5.806-3.13,5.806-3.89c0,0,2.176,5.255,5.761,4.497c3.582-0.762,0.653-7.626,0.653-7.626
			s6.815,3.534,8.231-1.213C199.702,66.467,193.395,65.611,193.395,65.611z M185.059,70.707c-2.896,0-5.249-2.35-5.249-5.247
			c0-2.904,2.353-5.255,5.249-5.255c2.905,0,5.252,2.352,5.252,5.255C190.311,68.357,187.964,70.707,185.059,70.707z"/>
	</g>
	<g>
		<path fill="#E587AC" d="M387.248,111.067c0,0,6.262-2.458,4.955-5.843c-1.301-3.386-5.938-0.418-5.938-0.418
			s3.16-5.75-1.297-6.399c-2.455-0.233-4.501,4.454-4.501,4.454s-2.777-7.052-5.979-3.619c-1.295,1.251,0.143,5.703,0.143,5.703
			s-7.006-2.502-7.284,1.672c-0.281,4.171,4.918,3.849,4.918,3.849s-5.98,2.456-4.593,5.936c1.394,3.478,6.449-0.093,6.449-0.093
			s-3.385,4.961-0.043,6.538c3.334,1.58,5.33-2.874,5.33-3.568c0,0,1.991,4.821,5.284,4.125c3.296-0.695,0.605-7.001,0.605-7.001
			s6.26,3.247,7.556-1.112C393.043,111.858,387.248,111.067,387.248,111.067z M379.593,115.751c-2.669,0-4.819-2.159-4.819-4.822
			c0-2.663,2.15-4.825,4.819-4.825c2.661,0,4.823,2.162,4.823,4.825C384.416,113.592,382.254,115.751,379.593,115.751z"/>
	</g>
	<g>
		<path fill="#E587AC" d="M334.305,372.208c0,0,6.265-2.451,4.972-5.833c-1.312-3.389-5.949-0.418-5.949-0.418
			s3.159-5.747-1.296-6.396c-2.456-0.24-4.499,4.447-4.499,4.447s-2.78-7.045-5.984-3.617c-1.296,1.26,0.145,5.707,0.145,5.707
			s-7.005-2.5-7.284,1.672c-0.279,4.168,4.923,3.844,4.923,3.844s-5.986,2.46-4.593,5.941c1.388,3.475,6.442-0.092,6.442-0.092
			s-3.381,4.957-0.05,6.535c3.349,1.579,5.341-2.876,5.341-3.582c0,0,1.988,4.83,5.28,4.141c3.295-0.697,0.598-7.002,0.598-7.002
			s6.27,3.249,7.564-1.115C340.095,373.014,334.305,372.208,334.305,372.208z M326.654,376.904c-2.662,0-4.827-2.164-4.827-4.826
			c0-2.668,2.165-4.827,4.827-4.827c2.651,0,4.82,2.159,4.82,4.827C331.476,374.74,329.307,376.904,326.654,376.904z"/>
	</g>
	<g>
		<path fill="#E587AC" d="M306.638,78.52c0,0,8.916-3.499,7.069-8.317c-1.85-4.817-8.448-0.597-8.448-0.597s4.486-8.18-1.85-9.106
			c-3.496-0.328-6.403,6.34-6.403,6.34s-3.947-10.032-8.512-5.15c-1.846,1.78,0.191,8.119,0.191,8.119s-9.961-3.564-10.352,2.376
			c-0.402,5.939,6.989,5.473,6.989,5.473s-8.509,3.502-6.527,8.448c1.976,4.952,9.166-0.131,9.166-0.131s-4.812,7.062-0.058,9.304
			c4.742,2.245,7.584-4.09,7.584-5.081c0,0,2.838,6.866,7.518,5.875c4.691-0.989,0.862-9.967,0.862-9.967s8.903,4.621,10.762-1.58
			C314.886,79.643,306.638,78.52,306.638,78.52z M295.759,85.184c-3.799,0-6.866-3.072-6.866-6.865c0-3.789,3.067-6.862,6.866-6.862
			c3.782,0,6.861,3.073,6.861,6.862C302.62,82.112,299.541,85.184,295.759,85.184z"/>
	</g>
	<g>
		<path fill="#E587AC" d="M124.557,120.022c0,0,6.294-2.472,4.994-5.876c-1.308-3.403-5.976-0.421-5.976-0.421
			s3.175-5.777-1.305-6.433c-2.469-0.234-4.519,4.479-4.519,4.479s-2.793-7.091-6.019-3.638c-1.3,1.255,0.144,5.732,0.144,5.732
			s-7.041-2.52-7.319,1.677c-0.279,4.201,4.94,3.871,4.94,3.871s-6.013,2.471-4.614,5.968c1.396,3.497,6.479-0.095,6.479-0.095
			s-3.401,4.988-0.046,6.574c3.358,1.586,5.359-2.89,5.359-3.588c0,0,2.008,4.848,5.316,4.151c3.31-0.704,0.606-7.042,0.606-7.042
			s6.293,3.265,7.602-1.118C130.382,120.813,124.557,120.022,124.557,120.022z M116.862,124.73c-2.677,0-4.848-2.172-4.848-4.851
			c0-2.675,2.171-4.849,4.848-4.849c2.676,0,4.856,2.173,4.856,4.849C121.719,122.558,119.538,124.73,116.862,124.73z"/>
	</g>
	<g>
		<path fill="#E587AC" d="M230.383,168.8c0,0,5.725-2.248,4.541-5.346c-1.193-3.098-5.432-0.383-5.432-0.383
			s2.881-5.259-1.195-5.853c-2.248-0.212-4.111,4.073-4.111,4.073s-2.542-6.448-5.471-3.309c-1.191,1.146,0.123,5.216,0.123,5.216
			s-6.403-2.288-6.654,1.528c-0.26,3.819,4.498,3.519,4.498,3.519s-5.475,2.253-4.202,5.433c1.272,3.184,5.895-0.084,5.895-0.084
			s-3.094,4.541-0.041,5.982c3.056,1.444,4.878-2.63,4.878-3.265c0,0,1.825,4.412,4.839,3.774c3.008-0.636,0.545-6.406,0.545-6.406
			s5.732,2.971,6.916-1.018C235.678,169.521,230.383,168.8,230.383,168.8z M223.382,173.083c-2.438,0-4.416-1.975-4.416-4.411
			c0-2.438,1.979-4.414,4.416-4.414c2.436,0,4.409,1.977,4.409,4.414C227.791,171.108,225.817,173.083,223.382,173.083z"/>
	</g>
	<g>
		<path fill="#E587AC" d="M199.996,241.827c0,0,5.731-2.25,4.543-5.343c-1.187-3.099-5.437-0.387-5.437-0.387
			s2.888-5.257-1.187-5.853c-2.247-0.209-4.11,4.071-4.11,4.071s-2.545-6.448-5.476-3.307c-1.187,1.146,0.13,5.22,0.13,5.22
			s-6.411-2.294-6.665,1.524c-0.257,3.819,4.501,3.518,4.501,3.518s-5.477,2.255-4.2,5.433c1.272,3.183,5.894-0.083,5.894-0.083
			s-3.094,4.542-0.037,5.981c3.053,1.444,4.874-2.63,4.874-3.268c0,0,1.824,4.414,4.834,3.771c3.019-0.633,0.555-6.402,0.555-6.402
			s5.729,2.971,6.915-1.016C205.297,242.545,199.996,241.827,199.996,241.827z M192.996,246.108c-2.438,0-4.409-1.973-4.409-4.409
			c0-2.436,1.972-4.414,4.409-4.414c2.432,0,4.417,1.978,4.417,4.414C197.413,244.135,195.428,246.108,192.996,246.108z"/>
	</g>
	<g>
		<path fill="#E587AC" d="M363.645,447.578c0,0,5.721-2.251,4.534-5.345c-1.191-3.097-5.433-0.382-5.433-0.382
			s2.887-5.27-1.188-5.855c-2.248-0.21-4.118,4.077-4.118,4.077s-2.538-6.453-5.467-3.312c-1.188,1.146,0.128,5.223,0.128,5.223
			s-6.406-2.296-6.66,1.517c-0.257,3.82,4.492,3.526,4.492,3.526s-5.474,2.252-4.195,5.433c1.269,3.178,5.898-0.086,5.898-0.086
			s-3.099,4.542-0.041,5.979c3.046,1.438,4.873-2.629,4.873-3.271c0,0,1.821,4.424,4.838,3.781c3.012-0.643,0.552-6.404,0.552-6.404
			s5.728,2.963,6.915-1.014C368.94,448.296,363.645,447.578,363.645,447.578z M356.635,451.863c-2.438,0-4.404-1.973-4.404-4.409
			c0-2.438,1.967-4.411,4.404-4.411c2.438,0,4.416,1.975,4.416,4.411S359.072,451.863,356.635,451.863z"/>
	</g>
	<g>
		<path fill="#E587AC" d="M303.409,311.121c0,0,5.721-2.247,4.541-5.344c-1.195-3.096-5.433-0.385-5.433-0.385
			s2.879-5.256-1.197-5.86c-2.239-0.208-4.109,4.077-4.109,4.077s-2.545-6.445-5.473-3.308c-1.188,1.148,0.128,5.218,0.128,5.218
			s-6.406-2.285-6.661,1.529c-0.255,3.816,4.5,3.52,4.5,3.52s-5.471,2.252-4.205,5.427c1.271,3.185,5.902-0.073,5.902-0.073
			s-3.098,4.534-0.043,5.977c3.052,1.441,4.873-2.633,4.873-3.271c0,0,1.829,4.416,4.841,3.778c3.008-0.64,0.554-6.41,0.554-6.41
			s5.724,2.979,6.911-1.013C308.708,311.844,303.409,311.121,303.409,311.121z M296.398,315.412c-2.428,0-4.399-1.984-4.399-4.422
			s1.974-4.409,4.399-4.409c2.445,0,4.419,1.974,4.419,4.409C300.817,313.427,298.845,315.412,296.398,315.412z"/>
	</g>
	<g>
		<path fill="#E587AC" d="M178.847,383.057c0,0,4.939-1.935,3.921-4.611c-1.028-2.678-4.69-0.334-4.69-0.334s2.49-4.539-1.025-5.053
			c-1.938-0.184-3.551,3.515-3.551,3.515s-2.193-5.556-4.729-2.849c-1.021,0.991,0.112,4.504,0.112,4.504s-5.523-1.979-5.742,1.315
			c-0.227,3.296,3.877,3.04,3.877,3.04s-4.723,1.936-3.623,4.689c1.099,2.735,5.092-0.08,5.092-0.08s-2.677,3.914-0.04,5.162
			c2.635,1.252,4.209-2.269,4.209-2.816c0,0,1.574,3.805,4.173,3.264c2.601-0.557,0.477-5.529,0.477-5.529s4.944,2.56,5.969-0.891
			C183.422,383.684,178.847,383.057,178.847,383.057z M172.803,386.754c-2.103,0-3.807-1.703-3.807-3.807s1.704-3.809,3.807-3.809
			c2.105,0,3.812,1.705,3.812,3.809C176.614,385.051,174.908,386.754,172.803,386.754z"/>
	</g>
	<g>
		<path fill="#E587AC" d="M325.538,192.192c0,0,3.636-1.427,2.884-3.393c-0.759-1.964-3.45-0.241-3.45-0.241s1.836-3.34-0.755-3.717
			c-1.428-0.135-2.604,2.588-2.604,2.588s-1.626-4.095-3.478-2.1c-0.761,0.723,0.081,3.31,0.081,3.31s-4.064-1.455-4.229,0.97
			c-0.17,2.421,2.855,2.234,2.855,2.234s-3.479,1.428-2.667,3.446c0.807,2.02,3.74-0.054,3.74-0.054s-1.96,2.882-0.031,3.798
			c1.939,0.916,3.104-1.673,3.104-2.074c0,0,1.154,2.796,3.062,2.397c1.92-0.405,0.36-4.068,0.36-4.068s3.63,1.886,4.376-0.648
			C328.908,192.65,325.538,192.192,325.538,192.192z M321.099,194.911c-1.547,0-2.801-1.254-2.801-2.798
			c0-1.547,1.254-2.802,2.801-2.802c1.544,0,2.796,1.255,2.796,2.802C323.895,193.657,322.643,194.911,321.099,194.911z"/>
	</g>
	<g>
		<path fill="#E587AC" d="M336.403,312.027c0,0,3.636-1.434,2.883-3.391c-0.758-1.972-3.45-0.248-3.45-0.248
			s1.836-3.332-0.755-3.711c-1.428-0.133-2.611,2.584-2.611,2.584s-1.607-4.094-3.469-2.102c-0.758,0.723,0.081,3.314,0.081,3.314
			s-4.062-1.459-4.236,0.967c-0.154,2.422,2.86,2.231,2.86,2.231s-3.467,1.431-2.672,3.45c0.813,2.021,3.751-0.053,3.751-0.053
			s-1.966,2.88-0.02,3.789c1.926,0.921,3.091-1.668,3.091-2.069c0,0,1.152,2.801,3.062,2.396c1.92-0.405,0.361-4.062,0.361-4.062
			s3.627,1.88,4.38-0.649C339.77,312.486,336.403,312.027,336.403,312.027z M331.964,314.743c-1.555,0-2.8-1.25-2.8-2.793
			c0-1.552,1.245-2.806,2.8-2.806c1.544,0,2.802,1.254,2.802,2.806C334.766,313.493,333.508,314.743,331.964,314.743z"/>
	</g>
	<g>
		<path fill="#E587AC" d="M338.955,414.83c0,0,3.63-1.423,2.881-3.396c-0.754-1.965-3.451-0.238-3.451-0.238
			s1.839-3.336-0.751-3.715c-1.426-0.141-2.612,2.584-2.612,2.584s-1.614-4.094-3.468-2.098c-0.758,0.721,0.078,3.312,0.078,3.312
			s-4.062-1.455-4.232,0.966c-0.159,2.422,2.863,2.235,2.863,2.235s-3.475,1.424-2.674,3.442c0.812,2.021,3.744-0.045,3.744-0.045
			s-1.96,2.878-0.026,3.782c1.938,0.928,3.103-1.664,3.103-2.061c0,0,1.148,2.794,3.068,2.394c1.909-0.411,0.352-4.07,0.352-4.07
			s3.634,1.888,4.388-0.642C342.323,415.286,338.955,414.83,338.955,414.83z M334.513,417.552c-1.547,0-2.801-1.261-2.801-2.808
			c0-1.549,1.254-2.803,2.801-2.803s2.802,1.254,2.802,2.803C337.312,416.292,336.06,417.552,334.513,417.552z"/>
	</g>
	<g>
		<path fill="#E587AC" d="M246.211,238.392c0,0,3.628-1.425,2.881-3.386c-0.758-1.971-3.45-0.248-3.45-0.248
			s1.834-3.337-0.758-3.715c-1.42-0.132-2.607,2.584-2.607,2.584s-1.616-4.089-3.474-2.099c-0.753,0.726,0.077,3.311,0.077,3.311
			s-4.062-1.45-4.225,0.97c-0.161,2.424,2.856,2.234,2.856,2.234s-3.47,1.425-2.665,3.448c0.807,2.017,3.739-0.054,3.739-0.054
			s-1.964,2.886-0.022,3.797c1.934,0.915,3.095-1.667,3.095-2.073c0,0,1.151,2.799,3.067,2.394c1.914-0.401,0.351-4.063,0.351-4.063
			s3.634,1.882,4.387-0.646C249.572,238.846,246.211,238.392,246.211,238.392z M241.763,241.111c-1.544,0-2.797-1.251-2.797-2.798
			c0-1.548,1.253-2.802,2.797-2.802c1.55,0,2.8,1.254,2.8,2.802C244.562,239.86,243.312,241.111,241.763,241.111z"/>
	</g>
	<g>
		<path fill="#E587AC" d="M224.355,285.301c0,0,3.632-1.425,2.881-3.393c-0.754-1.969-3.45-0.25-3.45-0.25s1.834-3.33-0.759-3.709
			c-1.418-0.133-2.604,2.584-2.604,2.584s-1.613-4.096-3.477-2.1c-0.752,0.721,0.083,3.312,0.083,3.312s-4.066-1.456-4.226,0.967
			c-0.167,2.42,2.853,2.235,2.853,2.235s-3.473,1.431-2.666,3.45c0.806,2.016,3.74-0.057,3.74-0.057s-1.965,2.885-0.023,3.801
			c1.939,0.912,3.096-1.675,3.096-2.069c0,0,1.156,2.792,3.07,2.383c1.916-0.401,0.35-4.058,0.35-4.058s3.635,1.881,4.39-0.65
			C227.716,285.757,224.355,285.301,224.355,285.301z M219.912,288.021c-1.548,0-2.806-1.254-2.806-2.803
			c0-1.546,1.258-2.8,2.806-2.8c1.547,0,2.8,1.254,2.8,2.8C222.712,286.768,221.459,288.021,219.912,288.021z"/>
	</g>
	<g>
		<path fill="#E587AC" d="M192.485,175.571c0,0,3.634-1.427,2.883-3.393c-0.756-1.967-3.447-0.245-3.447-0.245
			s1.833-3.339-0.758-3.714c-1.425-0.134-2.611,2.585-2.611,2.585s-1.612-4.095-3.473-2.101c-0.755,0.728,0.085,3.31,0.085,3.31
			s-4.07-1.453-4.234,0.971c-0.157,2.423,2.856,2.232,2.856,2.232s-3.47,1.432-2.661,3.449c0.804,2.019,3.74-0.054,3.74-0.054
			s-1.97,2.884-0.025,3.796c1.937,0.917,3.094-1.669,3.094-2.071c0,0,1.16,2.799,3.071,2.395c1.91-0.402,0.35-4.065,0.35-4.065
			s3.634,1.886,4.384-0.646C195.846,176.027,192.485,175.571,192.485,175.571z M188.045,178.288c-1.551,0-2.806-1.255-2.806-2.799
			c0-1.549,1.255-2.802,2.806-2.802c1.543,0,2.796,1.253,2.796,2.802C190.841,177.033,189.588,178.288,188.045,178.288z"/>
	</g>
	<g>
		<path fill="#E587AC" d="M349.225,70.351c0,0,3.627-1.425,2.878-3.391c-0.759-1.967-3.45-0.242-3.45-0.242s1.828-3.339-0.75-3.717
			c-1.427-0.135-2.616,2.586-2.616,2.586s-1.617-4.094-3.474-2.099c-0.749,0.724,0.077,3.31,0.077,3.31s-4.062-1.455-4.224,0.969
			C337.502,70.19,340.521,70,340.521,70s-3.471,1.429-2.664,3.446c0.811,2.021,3.742-0.052,3.742-0.052s-1.961,2.881-0.025,3.795
			c1.937,0.917,3.098-1.667,3.098-2.071c0,0,1.157,2.798,3.066,2.396c1.916-0.404,0.351-4.068,0.351-4.068s3.641,1.886,4.385-0.645
			C352.581,70.81,349.225,70.351,349.225,70.351z M344.771,73.072c-1.548,0-2.794-1.256-2.794-2.801
			c0-1.544,1.246-2.801,2.794-2.801c1.554,0,2.802,1.257,2.802,2.801C347.573,71.816,346.325,73.072,344.771,73.072z"/>
	</g>
	<g>
		<path fill="#E587AC" d="M226.482,69.42c0,0,3.633-1.428,2.885-3.393c-0.755-1.966-3.445-0.243-3.445-0.243
			s1.829-3.338-0.754-3.716c-1.428-0.135-2.614,2.585-2.614,2.585s-1.616-4.093-3.474-2.1c-0.751,0.725,0.081,3.312,0.081,3.312
			s-4.066-1.453-4.229,0.969c-0.158,2.423,2.857,2.235,2.857,2.235s-3.476,1.428-2.665,3.445c0.802,2.022,3.741-0.05,3.741-0.05
			s-1.965,2.88-0.028,3.795c1.939,0.914,3.096-1.669,3.096-2.074c0,0,1.157,2.8,3.067,2.397c1.919-0.404,0.352-4.068,0.352-4.068
			s3.633,1.886,4.387-0.644C229.854,69.877,226.482,69.42,226.482,69.42z M222.042,72.138c-1.548,0-2.801-1.252-2.801-2.799
			c0-1.545,1.253-2.8,2.801-2.8c1.545,0,2.801,1.255,2.801,2.8C224.843,70.886,223.587,72.138,222.042,72.138z"/>
	</g>
	<g>
		<path fill="#E587AC" d="M160.26,98.161c0,0,4.958-1.946,3.933-4.626c-1.031-2.687-4.706-0.335-4.706-0.335s2.502-4.552-1.03-5.071
			c-1.944-0.184-3.562,3.53-3.562,3.53s-2.205-5.586-4.743-2.867c-1.028,0.993,0.113,4.52,0.113,4.52s-5.551-1.984-5.775,1.321
			c-0.218,3.309,3.9,3.049,3.9,3.049s-4.74,1.948-3.637,4.704c1.103,2.758,5.104-0.071,5.104-0.071s-2.684,3.932-0.031,5.18
			c2.643,1.251,4.22-2.276,4.22-2.827c0,0,1.583,3.823,4.191,3.27c2.609-0.551,0.479-5.551,0.479-5.551s4.958,2.573,5.988-0.882
			C164.852,98.789,160.26,98.161,160.26,98.161z M154.194,101.874c-2.112,0-3.821-1.713-3.821-3.822
			c0-2.112,1.709-3.824,3.821-3.824c2.116,0,3.825,1.712,3.825,3.824C158.02,100.161,156.311,101.874,154.194,101.874z"/>
	</g>
	<g>
		<path fill="#E587AC" d="M286.105,178.605c0,0,8.352-3.274,6.623-7.783c-1.732-4.512-7.914-0.559-7.914-0.559
			s4.205-7.661-1.735-8.527c-3.272-0.308-5.993,5.932-5.993,5.932s-3.706-9.392-7.968-4.818c-1.729,1.667,0.182,7.599,0.182,7.599
			s-9.327-3.337-9.692,2.224c-0.379,5.562,6.547,5.127,6.547,5.127s-7.971,3.278-6.121,7.913c1.855,4.633,8.59-0.123,8.59-0.123
			s-4.51,6.612-0.062,8.711c4.455,2.101,7.106-3.83,7.106-4.758c0,0,2.653,6.427,7.046,5.503c4.381-0.929,0.803-9.333,0.803-9.333
			s8.34,4.324,10.074-1.484C293.831,179.658,286.105,178.605,286.105,178.605z M275.913,184.849c-3.545,0-6.421-2.876-6.421-6.427
			c0-3.548,2.876-6.426,6.421-6.426c3.553,0,6.429,2.878,6.429,6.426C282.342,181.972,279.466,184.849,275.913,184.849z"/>
	</g>
	<g>
		<path fill="#E587AC" d="M204.027,329.995c0,0,8.34-3.284,6.615-7.789c-1.733-4.513-7.915-0.562-7.915-0.562
			s4.201-7.66-1.736-8.529c-3.271-0.303-5.992,5.938-5.992,5.938s-3.7-9.385-7.967-4.82c-1.729,1.668,0.184,7.603,0.184,7.603
			s-9.329-3.344-9.704,2.222c-0.375,5.564,6.558,5.127,6.558,5.127s-7.974,3.281-6.12,7.92c1.849,4.629,8.583-0.131,8.583-0.131
			s-4.506,6.613-0.058,8.713c4.448,2.102,7.109-3.824,7.109-4.759c0,0,2.648,6.435,7.039,5.496c4.387-0.919,0.807-9.319,0.807-9.319
			s8.338,4.32,10.072-1.481C211.745,331.038,204.027,329.995,204.027,329.995z M193.828,336.23c-3.551,0-6.426-2.875-6.426-6.426
			c0-3.552,2.875-6.438,6.426-6.438c3.552,0,6.43,2.886,6.43,6.438C200.258,333.355,197.38,336.23,193.828,336.23z"/>
	</g>
</g>
</svg>
