<?xml version="1.0" encoding="utf-8"?>
<!-- Generator: Adobe Illustrator 16.0.0, SVG Export Plug-In . SVG Version: 6.00 Build 0)  -->
<!DOCTYPE svg PUBLIC "-//W3C//DTD SVG 1.1//EN" "http://www.w3.org/Graphics/SVG/1.1/DTD/svg11.dtd">
<svg version="1.1" id="Layer_1" xmlns="http://www.w3.org/2000/svg" xmlns:xlink="http://www.w3.org/1999/xlink" x="0px" y="0px"
	 width="500px" height="500px" viewBox="0 0 500 500" enable-background="new 0 0 500 500" xml:space="preserve">
<g id="Layer_1_copy_7">
	<path fill="#FFFFFF" stroke="#3C2415" stroke-width="4.0983" stroke-miterlimit="10" d="M61.378,272.824
		c0,0,16.124,65.04,114.482,86.812s160.777-9.649,173.112-33.13c12.335-23.479-137.251-98.272-137.251-98.272L61.378,272.824z"/>
	<path fill="#00AEEF" stroke="#3C2415" stroke-width="4.0983" stroke-miterlimit="10" d="M83.649,152.416
		c0,0-78.892,73.257-41.495,107.58c37.396,34.322,105.53,23.054,120.898,16.906c15.369-6.148,19.98-10.758,24.59,14.854
		c4.611,25.615,17.419,53.79,64.547,66.085c37.397,11.271,15.369-34.322,15.369-34.322s46.106,24.078,87.09,0
		c40.981-24.076,44.057-67.621,48.666-86.063c4.61-18.443,17.931-12.808,26.127-14.345c8.195-1.536,47.644-1.536,48.667-44.569
		c2.196-31.647,5.122-37.909,5.122-37.909s3.074-14.344-9.221-7.684c-12.295,6.66-13.32,11.27-42.008,16.393
		s-30.736,25.614-30.736,25.614s2.049-27.151-33.299-29.712c-20.695-8.425-19.468-28.176-19.468-29.713c0-1.537,0-9.221-9.733-9.221
		c-9.732,0-10.758,46.105-10.758,46.105s-8.769,43.756,34.323,61.475c13.628,6.662,21.873,21.242,6.147,39.446
		c-7.992,9.251-45.082,43.544-87.601-7.684c0,0-43.545-115.264-133.707-111.166C108.238,130.388,83.649,152.416,83.649,152.416z"/>
	
		<ellipse fill="#FFFFFF" stroke="#3C2415" stroke-width="4.0983" stroke-miterlimit="10" cx="118.741" cy="204.669" rx="15.625" ry="17.93"/>
	<ellipse fill="#3C2415" cx="117.572" cy="205.182" rx="5.122" ry="6.659"/>
	<path fill="#00AEEF" stroke="#3C2415" stroke-width="4.0983" stroke-miterlimit="10" d="M94.407,311.225
		c-2.562,1.023-31.249,19.467-16.394,41.496c14.856,22.027,56.352-20.748,56.352-20.748L94.407,311.225z"/>
</g>
</svg>
