<?xml version="1.0" encoding="utf-8"?>
<!-- Generator: Adobe Illustrator 16.0.0, SVG Export Plug-In . SVG Version: 6.00 Build 0)  -->
<!DOCTYPE svg PUBLIC "-//W3C//DTD SVG 1.1//EN" "http://www.w3.org/Graphics/SVG/1.1/DTD/svg11.dtd">
<svg version="1.1" id="Layer_1" xmlns="http://www.w3.org/2000/svg" xmlns:xlink="http://www.w3.org/1999/xlink" x="0px" y="0px"
	 width="500px" height="500px" viewBox="0 0 500 500" enable-background="new 0 0 500 500" xml:space="preserve">
<g id="Layer_1_copy_8">
	<g>
		<rect x="93.382" y="66.569" fill="#95D6D8" width="347.34" height="336.662"/>
		<path fill="#27140E" d="M442.157,404.658H91.942V65.133h350.215V404.658L442.157,404.658z M94.817,401.789h344.471V68.007H94.817
			V401.789z"/>
	</g>
	<g>
		<rect x="254.93" y="55.858" fill="#DDD2B5" width="20.327" height="358.44"/>
		<path fill="#27140E" d="M275.257,418.598H254.93c-2.384,0-4.312-1.924-4.312-4.3V55.858c0-2.379,1.928-4.309,4.312-4.309h20.327
			c2.386,0,4.312,1.929,4.312,4.309v358.44C279.568,416.674,277.643,418.598,275.257,418.598z M259.236,409.982h11.709V60.168
			h-11.709V409.982z"/>
	</g>
	<g>
		<rect x="85.877" y="224.917" fill="#DDD2B5" width="358.43" height="20.321"/>
		<path fill="#27140E" d="M444.307,249.548H85.877c-2.381,0-4.312-1.931-4.312-4.31v-20.321c0-2.383,1.931-4.31,4.312-4.31h358.43
			c2.386,0,4.312,1.927,4.312,4.31v20.321C448.618,247.617,446.691,249.548,444.307,249.548z M90.183,240.929h349.813v-11.701
			H90.183V240.929z"/>
	</g>
	<g>
		<path fill="#FAB87F" d="M80.792,55.858v358.44h368.604V55.858H80.792z M424.697,390.275H105.494V79.879h319.203V390.275
			L424.697,390.275z"/>
		<path fill="#27140E" d="M449.396,418.598H80.792c-2.379,0-4.312-1.924-4.312-4.3V55.858c0-2.379,1.933-4.309,4.312-4.309h368.604
			c2.381,0,4.311,1.929,4.311,4.309v358.44C453.707,416.674,451.777,418.598,449.396,418.598z M85.104,409.982h359.979V60.168
			H85.104V409.982z M424.697,394.584H105.494c-2.381,0-4.308-1.932-4.308-4.309V79.879c0-2.381,1.927-4.31,4.308-4.31h319.203
			c2.376,0,4.307,1.929,4.307,4.31v310.396C429.004,392.652,427.073,394.584,424.697,394.584z M109.806,385.969h310.58V84.186
			h-310.58V385.969z"/>
	</g>
	<g>
		<path fill="#B05675" d="M52.155,304.273c0,6.058,4.392,10.981,9.804,10.981h70.567c5.422,0,9.803-4.925,9.803-10.981l0,0
			c0-6.058-4.381-10.967-9.803-10.967H61.959C56.547,293.307,52.155,298.216,52.155,304.273L52.155,304.273z"/>
		<path fill="#27140E" d="M132.526,319.562H61.959c-7.784,0-14.114-6.857-14.114-15.289c0-8.42,6.33-15.277,14.114-15.277h70.567
			c7.78,0,14.111,6.857,14.111,15.277C146.638,312.705,140.307,319.562,132.526,319.562z M61.959,297.616
			c-3.031,0-5.496,2.991-5.496,6.657c0,3.678,2.465,6.672,5.496,6.672h70.567c3.027,0,5.492-2.994,5.492-6.672
			c0-3.666-2.465-6.657-5.492-6.657H61.959z"/>
	</g>
	<g>
		<path fill="#B05675" d="M464.708,303.686c0,6.043-4.389,10.942-9.796,10.942h-70.576c-5.408,0-9.805-4.899-9.805-10.942l0,0
			c0-6.057,4.396-10.941,9.805-10.941h70.576C460.319,292.744,464.708,297.629,464.708,303.686L464.708,303.686z"/>
		<path fill="#27140E" d="M454.912,318.939h-70.576c-7.779,0-14.111-6.842-14.111-15.254c0-8.41,6.332-15.252,14.111-15.252h70.576
			c7.779,0,14.105,6.842,14.105,15.252C469.019,312.098,462.691,318.939,454.912,318.939z M384.336,297.055
			c-3.027,0-5.492,2.975-5.492,6.631c0,3.662,2.465,6.633,5.492,6.633h70.576c3.021,0,5.487-2.971,5.487-6.633
			c0-3.656-2.466-6.631-5.487-6.631H384.336z"/>
	</g>
	<g>
		<g>
			<path fill="#F27072" d="M59.999,62.418v231.525h73.511c0,0,40.187-34.014,37.247-238.11H59.999V62.418z"/>
			<path fill="#27140E" d="M133.51,298.253H59.999c-2.386,0-4.313-1.933-4.313-4.31V55.833c0-2.38,1.928-4.309,4.313-4.309h110.758
				c2.354,0,4.271,1.893,4.307,4.247c2.933,203.79-37.062,240.02-38.768,241.461C135.516,297.896,134.529,298.253,133.51,298.253z
				 M64.305,289.633h67.331c5.912-7.115,36.906-53.003,34.863-229.49H64.305V289.633z"/>
		</g>
		<g>
			<path fill="#F27072" d="M61.959,315.255l-1.96,137.146c0,0,15.683,5.491,23.522-6.583c7.846-12.064,26.038-2.217,26.038-2.217
				s17.042,13.501,25.859,1.435c8.82-12.08,17.696-3.289,18.679,0c0.974,3.294,17.938,10.667,16.813-7.991
				c-1.14-18.648-44.266-121.789-44.266-121.789L61.959,315.255L61.959,315.255z"/>
			<path fill="#27140E" d="M68.131,457.952c-5.156,0-9.123-1.335-9.562-1.485c-1.746-0.613-2.904-2.275-2.884-4.123l1.963-137.154
				c0.032-2.354,1.955-4.244,4.311-4.244h64.687c1.737,0,3.307,1.044,3.976,2.642c1.775,4.245,43.426,104.038,44.589,123.19
				c0.356,5.91-0.861,10.402-3.623,13.324c-2.141,2.274-5.071,3.485-8.476,3.485l0,0c-5.181,0-11.902-3.134-13.149-7.323
				c-0.29-0.688-2.351-3.098-4.87-3.098c-2.46,0-4.722,2.392-6.192,4.407c-3.245,4.442-7.83,6.787-13.263,6.787
				c-8.464,0-16.46-5.645-18.4-7.105c-1.247-0.63-6.613-3.133-11.858-3.133c-3.826,0-6.445,1.286-8.242,4.048
				C82.979,454.568,76.401,457.952,68.131,457.952z M64.356,449.017c1.074,0.178,2.371,0.319,3.774,0.319
				c5.289,0,9.252-1.973,11.774-5.87c3.393-5.213,8.738-7.966,15.473-7.966c8.181,0,15.905,4.13,16.229,4.306
				c0.227,0.118,0.434,0.262,0.631,0.411c1.948,1.538,8.169,5.519,13.399,5.519c2.68,0,4.682-1.033,6.304-3.242
				c4.793-6.564,9.797-7.941,13.151-7.941c6.323,0,11.437,4.903,12.923,8.641c0.738,0.638,2.946,1.771,5.097,1.771l0,0
				c1.48,0,2.02-0.578,2.2-0.764c1.026-1.082,1.499-3.602,1.297-6.895c-0.866-14.266-30.215-87.388-42.829-117.74H66.207
				L64.356,449.017z"/>
		</g>
		<g>
			<path fill="#F27072" d="M456.872,62.724v230.981h-73.51c0,0-40.193-33.941-37.247-237.55h110.757V62.724z"/>
			<path fill="#27140E" d="M456.872,298.014h-73.51c-1.017,0-2.003-0.359-2.776-1.016c-1.708-1.443-41.721-37.598-38.777-240.904
				c0.032-2.357,1.951-4.249,4.308-4.249h110.757c2.381,0,4.312,1.93,4.312,4.31v237.55
				C461.185,296.084,459.253,298.014,456.872,298.014z M385.176,289.393h67.391V60.464H350.369
				C348.294,238.246,379.256,282.568,385.176,289.393z"/>
		</g>
		<g>
			<path fill="#F27072" d="M454.912,314.628l1.96,136.824c0,0-15.686,5.482-23.531-6.566c-7.837-12.03-22.8,1.588-22.8,1.588
				s-13.438,8.446-22.268-3.595c-8.814-12.048-21.907-1.612-25.139,1.438c-2.503,2.357-18.305,10.428-17.18-8.188
				c1.137-18.597,44.261-121.5,44.261-121.5L454.912,314.628L454.912,314.628z"/>
			<path fill="#27140E" d="M448.741,457.011c-8.271,0-14.851-3.375-19.011-9.764c-1.731-2.672-3.567-3.016-4.967-3.016
				c-4.354,0-9.654,3.928-11.335,5.433c-0.185,0.168-0.387,0.326-0.596,0.454c-0.577,0.369-5.827,3.542-12.444,3.542
				c-6.251,0-11.642-2.848-15.596-8.229c-1.949-2.67-4.081-3.913-6.705-3.913c-5.562,0-11.356,5.324-11.999,5.93
				c-1.641,1.546-7.162,4.953-12.871,4.953c-3.25,0-6.046-1.143-8.073-3.291c-2.707-2.882-3.854-7.213-3.493-13.241
				c1.173-19.11,42.822-118.675,44.594-122.906c0.677-1.596,2.242-2.644,3.972-2.644h64.695c2.355,0,4.271,1.893,4.307,4.248
				l1.966,136.826c0.021,1.855-1.14,3.519-2.894,4.132C457.855,455.676,453.9,457.011,448.741,457.011z M424.765,435.618
				L424.765,435.618c5.026,0,9.241,2.384,12.188,6.918c2.525,3.889,6.496,5.862,11.788,5.862c1.406,0,2.7-0.152,3.772-0.33
				l-1.85-129.129h-57.572c-12.623,30.289-41.965,103.228-42.834,117.449c-0.29,4.861,0.815,6.439,1.162,6.81
				c0.152,0.16,0.55,0.581,1.798,0.581c2.806,0,6.289-1.999,6.959-2.604c2.05-1.938,9.423-8.271,17.911-8.271
				c3.748,0,9.164,1.284,13.661,7.431c2.321,3.166,5.15,4.712,8.631,4.712c3.562,0,6.722-1.597,7.628-2.091
				C409.841,441.369,417.036,435.618,424.765,435.618z"/>
		</g>
	</g>
	<g>
		<path fill="#F37E7B" stroke="#27140E" stroke-width="10.1679" stroke-linejoin="round" stroke-miterlimit="10" d="M254.93,211.582
			"/>
	</g>
	<g>
		<rect x="259.271" y="209.6" fill="#DDD2B5" width="11.611" height="49.746"/>
	</g>
</g>
</svg>
