<?xml version="1.0" encoding="utf-8"?>
<!-- Generator: Adobe Illustrator 16.0.0, SVG Export Plug-In . SVG Version: 6.00 Build 0)  -->
<!DOCTYPE svg PUBLIC "-//W3C//DTD SVG 1.1//EN" "http://www.w3.org/Graphics/SVG/1.1/DTD/svg11.dtd">
<svg version="1.1" id="Layer_1" xmlns="http://www.w3.org/2000/svg" xmlns:xlink="http://www.w3.org/1999/xlink" x="0px" y="0px"
	 width="500px" height="500px" viewBox="0 0 500 500" enable-background="new 0 0 500 500" xml:space="preserve">
<g id="Layer_1_copy_4">
	<g>
		<g>
			<path fill="#2252A4" d="M245.237,476.646c-8.036,0-14.551-6.519-14.551-14.559V25.143c0-8.037,6.515-14.553,14.551-14.553
				c8.037,0,14.551,6.516,14.551,14.553v436.946C259.788,470.128,253.273,476.646,245.237,476.646z"/>
		</g>
		<g>
			<path fill="#2252A4" d="M245.237,123.337c-0.132,0-0.264-0.001-0.396-0.007c-3.996-0.107-7.77-1.855-10.437-4.831l-57.236-63.832
				c-5.363-5.983-4.861-15.182,1.12-20.548c5.981-5.365,15.183-4.862,20.55,1.12l46.978,52.392l52.972-52.967
				c5.68-5.683,14.896-5.681,20.578,0c5.683,5.683,5.683,14.897-0.004,20.58l-63.837,63.832
				C252.795,121.808,249.091,123.337,245.237,123.337z"/>
		</g>
		<g>
			<path fill="#2252A4" d="M187.998,455.182c-3.457,0-6.932-1.23-9.71-3.722c-5.981-5.362-6.483-14.563-1.12-20.547l57.236-63.83
				c2.667-2.978,6.44-4.724,10.437-4.833c4.024-0.057,7.859,1.434,10.685,4.256l63.837,63.831
				c5.687,5.682,5.687,14.898,0.004,20.581c-5.684,5.683-14.898,5.683-20.578,0l-52.972-52.966l-46.978,52.395
				C195.961,453.547,191.99,455.182,187.998,455.182z"/>
		</g>
		<g>
			<path fill="#2252A4" d="M430.058,379.771c-2.713,0-5.457-0.76-7.9-2.338L55.493,139.761c-6.743-4.37-8.667-13.381-4.296-20.125
				c4.368-6.742,13.38-8.667,20.126-4.295l366.663,237.666c6.742,4.375,8.667,13.382,4.295,20.13
				C439.495,377.434,434.825,379.771,430.058,379.771z"/>
		</g>
		<g>
			<path fill="#2252A4" d="M48.889,200.908c-7.046,0-13.233-5.123-14.358-12.295c-1.25-7.941,4.176-15.387,12.115-16.634
				l69.516-10.919l-15.635-73.266c-1.677-7.86,3.334-15.59,11.194-17.269c7.863-1.687,15.591,3.333,17.267,11.193l18.843,88.296
				c0.834,3.909,0.028,7.989-2.24,11.282c-2.264,3.293-5.783,5.508-9.73,6.129l-84.696,13.304
				C50.398,200.849,49.637,200.908,48.889,200.908z"/>
		</g>
		<g>
			<path fill="#2252A4" d="M380.921,416.12c-6.41,0-12.28-4.265-14.036-10.746l-22.436-82.742c-1.046-3.86-0.458-7.978,1.624-11.386
				c2.08-3.415,5.475-5.814,9.384-6.656l88.285-18.849c7.854-1.663,15.59,3.338,17.271,11.19c1.677,7.865-3.336,15.594-11.19,17.271
				l-73.26,15.644l18.411,67.912c2.104,7.756-2.479,15.747-10.237,17.854C383.462,415.953,382.18,416.12,380.921,416.12z"/>
		</g>
		<g>
			<path fill="#2252A4" d="M74.116,388.583c-4.486,0-8.91-2.06-11.762-5.961c-4.74-6.49-3.324-15.595,3.165-20.338l352.772-257.838
				c6.485-4.74,15.59-3.328,20.334,3.161c4.743,6.49,3.325,15.592-3.164,20.336L82.692,385.781
				C80.104,387.672,77.094,388.583,74.116,388.583z"/>
		</g>
		<g>
			<path fill="#2252A4" d="M123.882,423.103c-1.001,0-2.013-0.104-3.032-0.318c-7.859-1.663-12.882-9.39-11.219-17.25l14.585-68.847
				l-74.02-11.502c-7.942-1.24-13.382-8.675-12.145-16.617c1.235-7.938,8.674-13.383,16.613-12.145l89.207,13.868
				c3.95,0.612,7.474,2.824,9.744,6.114c2.269,3.289,3.085,7.371,2.254,11.281l-17.768,83.875
				C136.652,418.408,130.608,423.103,123.882,423.103z"/>
		</g>
		<g>
			<path fill="#2252A4" d="M443.325,189.622c-0.48,0-0.972-0.024-1.465-0.073l-85.303-8.538c-3.974-0.398-7.611-2.414-10.057-5.575
				s-3.485-7.188-2.87-11.137l13.859-89.211c1.233-7.943,8.698-13.387,16.613-12.146c7.938,1.234,13.379,8.671,12.145,16.611
				l-11.502,74.029l70.011,7.007c7.998,0.8,13.83,7.933,13.031,15.928C457.037,184.021,450.712,189.622,443.325,189.622z"/>
		</g>
	</g>
</g>
</svg>
