<?xml version="1.0" encoding="utf-8"?>
<!-- Generator: Adobe Illustrator 16.0.0, SVG Export Plug-In . SVG Version: 6.00 Build 0)  -->
<!DOCTYPE svg PUBLIC "-//W3C//DTD SVG 1.1//EN" "http://www.w3.org/Graphics/SVG/1.1/DTD/svg11.dtd">
<svg version="1.1" id="Layer_1" xmlns="http://www.w3.org/2000/svg" xmlns:xlink="http://www.w3.org/1999/xlink" x="0px" y="0px"
	 width="500px" height="500px" viewBox="0 0 500 500" enable-background="new 0 0 500 500" xml:space="preserve">
<g id="Layer_1_copy_41">
	<path fill="#414042" stroke="#000000" stroke-width="3.8993" stroke-miterlimit="10" d="M177.243,246.264
		c0,0,13.319,13.485,15.92,24.208c2.601,10.723,14.783,45.004-0.65,49.877c-15.433,4.875-20.145-1.461-20.309,7.637
		c-0.163,9.099,2.602,15.273,12.838,15.762c10.235,0.488,24.043-12.836,29.08-23.072c5.037-10.234,15.597-22.582,13.16-34.605
		c-2.437-12.022-4.938-17.028-3.605-25.329c1.332-8.302,1.82-31.046-22.715-25.522C176.428,240.74,173.02,238.302,177.243,246.264z"
		/>
	<path fill="#414042" stroke="#000000" stroke-width="3.8993" stroke-miterlimit="10" d="M301.368,242.203
		c0,0,13.32,13.486,15.921,24.209s14.783,45.004-0.651,49.878c-15.434,4.874-20.144-1.463-20.307,7.637
		c-0.164,9.099,2.601,15.275,12.836,15.763c10.236,0.487,24.044-12.838,29.081-23.073c5.038-10.235,15.598-22.583,13.16-34.605
		c-2.438-12.024-4.939-17.028-3.605-25.331c1.332-8.301,1.82-31.045-22.715-25.521C300.554,236.68,297.146,234.24,301.368,242.203z"
		/>
	<path fill="#58595B" stroke="#000000" stroke-width="3.8993" stroke-miterlimit="10" d="M102.673,88.733
		c0,0-8.77,16.505-8.123,21.705c0.648,5.2,19.17,0,19.17,0S116.971,77.751,102.673,88.733z"/>
	<path fill="#58595B" stroke="#000000" stroke-width="3.8993" stroke-miterlimit="10" d="M95.198,105.89
		c0,0-19.825-0.649-22.421,6.174c-2.598,6.824-1.95,23.396-12.022,22.421c-10.071-0.975-29.587,0.487-29.571,10.397
		c0.012,6.854,2.28,21.12,22.425,26.32c20.144,5.2,35.417-4.225,35.417-4.225s3.896-2.924,6.173,10.074
		c2.276,12.998,23.723,49.064,42.245,62.063c18.521,12.999,33.79,52.64,30.542,91.634c0,0-3.247,3.251-9.748,8.447
		c-6.5,5.199-19.5,16.568-3.575,22.746c15.924,6.177,28.27-2.598,31.846-8.123c3.575-5.524,6.827-5.2,6.5-24.047
		c-0.328-18.845,4.546-68.236,4.546-68.236s-6.496-3.896,18.85-1.299c25.346,2.598,56.535-1.627,85.457-13.323
		c28.921-11.698,37.044-9.747,43.544,6.5c6.5,16.246,20.146,27.944,25.021,31.843c4.875,3.898,10.076,36.196,7.799,42.471
		c-2.276,6.273-2.929,12.449-17.874,14.07c-14.945,1.623-15.921,11.048-11.047,17.872c4.873,6.822,20.277,7.794,29.474-0.651
		c9.195-8.445,25.443-35.418,25.769-41.918c0.324-6.496-1.622-14.298-1.949-25.346c-0.326-11.046,8.118-32.493,12.346-39.314
		c4.227-6.825,6.173-35.095,0-43.868c-6.173-8.774,13.327,41.917,13.975,55.239c0.647,13.322,4.875,7.799,5.197,0.976
		c0.324-6.824,1.627-30.543,7.799,9.099c3.603,17.109,9.425,11.697,12.35,9.424c2.926-2.274,7.476-3.574,7.8,5.198
		c0.322,8.772,4.546,5.849,5.521-2.601c0.975-8.447,22.747-53.615-16.245-84.484c-38.993-30.868-53.938-37.692-59.464-42.892
		c-5.525-5.199-20.476-16.246-51.018-11.698c-30.544,4.549-50.364,8.773-75.71,5.849c-25.345-2.925-71.489,4.876-81.236-2.599
		c-9.749-7.475-41.271-37.045-49.716-33.795c-8.447,3.25,1.626-16.57-0.324-21.77c-1.949-5.2-4.878-8.773-13.324-2.275
		C112.098,98.74,109.492,106.215,95.198,105.89z"/>
	
		<ellipse fill="#FFFFFF" stroke="#000000" stroke-width="4.086" stroke-miterlimit="10" cx="92.191" cy="128.636" rx="8.208" ry="10.072"/>
	<ellipse cx="90.152" cy="129.529" rx="2.517" ry="2.843"/>
	<path fill="#414042" stroke="#000000" stroke-width="3.8993" stroke-miterlimit="10" d="M41.686,135.73
		c0,0-9.04,1.679-10.502,7.528c-1.462,5.849,1.169,9.788,1.169,9.788S40.817,147.862,41.686,135.73z"/>
</g>
</svg>
