<?xml version="1.0" encoding="utf-8"?>
<!-- Generator: Adobe Illustrator 16.0.0, SVG Export Plug-In . SVG Version: 6.00 Build 0)  -->
<!DOCTYPE svg PUBLIC "-//W3C//DTD SVG 1.1//EN" "http://www.w3.org/Graphics/SVG/1.1/DTD/svg11.dtd">
<svg version="1.1" id="Layer_1" xmlns="http://www.w3.org/2000/svg" xmlns:xlink="http://www.w3.org/1999/xlink" x="0px" y="0px"
	 width="500px" height="500px" viewBox="0 0 500 500" enable-background="new 0 0 500 500" xml:space="preserve">
<g id="Layer_1_copy_74">
	<g>
		<path fill="#C4D32E" d="M335.36,435.392c0,15.12-10.241,27.381-22.867,27.381H200.022c-12.634,0-22.875-12.261-22.875-27.381
			v-95.827c0-15.121,10.241-27.377,22.875-27.377h112.471c12.626,0,22.867,12.256,22.867,27.377V435.392L335.36,435.392z"/>
		<path fill="#27140E" d="M312.493,466.36H200.022c-14.593,0-26.462-13.889-26.462-30.969v-95.827
			c0-17.073,11.869-30.965,26.462-30.965h112.471c14.586,0,26.458,13.892,26.458,30.965v95.827
			C338.951,452.472,327.079,466.36,312.493,466.36z M200.022,315.777c-10.632,0-19.284,10.672-19.284,23.787v95.827
			c0,13.12,8.652,23.792,19.284,23.792h112.471c10.626,0,19.274-10.672,19.274-23.792v-95.827c0-13.115-8.648-23.787-19.274-23.787
			H200.022z"/>
	</g>
	<g>
		<path fill="#C4D32E" d="M335.175,152.683c0,14.925-10.24,27.03-22.875,27.03H199.834c-12.634,0-22.874-12.104-22.874-27.03V58.07
			c0-14.927,10.24-27.03,22.874-27.03H312.3c12.635,0,22.875,12.103,22.875,27.03V152.683z"/>
		<path fill="#27140E" d="M312.3,183.304H199.834c-14.593,0-26.466-13.736-26.466-30.621V58.07
			c0-16.885,11.873-30.621,26.466-30.621H312.3c14.594,0,26.467,13.736,26.467,30.621v94.613
			C338.767,169.568,326.894,183.304,312.3,183.304z M199.834,34.631c-10.632,0-19.283,10.514-19.283,23.438v94.613
			c0,12.924,8.651,23.439,19.283,23.439H312.3c10.632,0,19.283-10.515,19.283-23.439V58.07c0-12.925-8.651-23.438-19.283-23.438
			L199.834,34.631L199.834,34.631z"/>
	</g>
	<g>
		<path fill="#E9EABE" d="M380.152,246.409c0,68.161-55.251,123.407-123.426,123.407c-68.152,0-123.401-55.246-123.401-123.407
			c0-68.155,55.249-123.404,123.401-123.404C324.901,123.005,380.152,178.253,380.152,246.409z"/>
		<path fill="#27140E" d="M256.729,373.404c-70.024,0-126.994-56.971-126.994-126.995c0-70.026,56.969-126.995,126.994-126.995
			c70.032,0,127.016,56.969,127.016,126.995C383.743,316.434,326.761,373.404,256.729,373.404z M256.729,126.594
			c-66.065,0-119.812,53.749-119.812,119.814c0,66.066,53.747,119.812,119.812,119.812c66.074,0,119.834-53.746,119.834-119.812
			C376.562,180.343,322.803,126.594,256.729,126.594z"/>
	</g>
	<g>
		<path fill="#2B120E" d="M380.801,232.13c0,0,16.838-5.718,18.431,14.295c-1.593,20.655-19.696,16.524-19.696,16.524
			S382.071,250.561,380.801,232.13z"/>
		<path fill="#27140E" d="M383.157,264.484c-2.257,0-3.822-0.352-3.889-0.367l-1.143-0.26l0.235-1.147
			c0.021-0.122,2.491-12.466,1.247-30.497l-0.066-0.919l0.874-0.297c0.1-0.033,2.452-0.819,5.524-0.819
			c4.928,0,13.361,2.099,14.48,16.154C399.174,262.732,387.935,264.484,383.157,264.484z M380.927,261.961
			c0.58,0.068,1.346,0.129,2.23,0.129c5.102,0,13.821-2.047,14.879-15.756c-0.914-11.343-7.084-13.763-12.095-13.763
			c-1.633,0-3.032,0.254-3.883,0.454C382.985,247.805,381.516,258.457,380.927,261.961z"/>
	</g>
	<g>
		<path fill="#2B120E" d="M263.779,233.56c0,4.082-3.197,7.389-7.139,7.389l0,0c-3.949,0-7.148-3.307-7.148-7.389v-60.099
			c0-4.082,3.199-5.427,7.148-5.427c0,0,7.139,1.346,7.139,5.427V233.56z"/>
		<path fill="#27140E" d="M256.643,242.146c-4.604,0-8.346-3.851-8.346-8.585v-60.099c0-2.475,1.083-6.624,8.346-6.624
			c0.553,0.083,8.336,1.607,8.336,6.624v60.099C264.979,238.294,261.239,242.146,256.643,242.146z M256.42,169.21
			c-5.729,0.021-5.729,3.204-5.729,4.25v60.099c0,3.414,2.67,6.192,5.951,6.192c3.278,0,5.943-2.779,5.943-6.192V173.46
			C262.586,170.468,256.479,169.222,256.42,169.21z"/>
	</g>
	<g>
		<path fill="#2B120E" d="M312.72,236.191c2.999,0,5.427,3.184,5.427,7.118l0,0c0,3.95-2.428,7.152-5.427,7.152h-44.116
			c-3.012,0-4.002-3.202-4.002-7.152c0,0,0.99-7.118,4.002-7.118H312.72z"/>
		<path fill="#27140E" d="M312.72,251.658h-44.116c-1.946,0-5.201-1.084-5.201-8.349c0.203-1.528,1.346-8.315,5.201-8.315h44.116
			c3.652,0,6.621,3.729,6.621,8.315C319.341,247.913,316.372,251.658,312.72,251.658z M268.604,237.389
			c-1.269,0-2.47,3.598-2.82,6.085c0.015,2.551,0.5,5.789,2.82,5.789h44.116c2.331,0,4.229-2.671,4.229-5.954
			c0-3.266-1.896-5.92-4.229-5.92H268.604L268.604,237.389z"/>
	</g>
	<g>
		<path fill="#2B120E" d="M262.295,137.332c0,2.615-2.42,4.736-5.396,4.736l0,0c-2.969,0-5.379-2.122-5.379-4.736v-10.471
			c0-2.618,2.41-4.736,5.379-4.736l0,0c2.977,0,5.396,2.118,5.396,4.736V137.332z"/>
		<path fill="#27140E" d="M256.898,143.265c-3.623,0-6.572-2.661-6.572-5.933v-10.471c0-3.271,2.949-5.935,6.572-5.935
			c3.636,0,6.594,2.663,6.594,5.935v10.471C263.492,140.604,260.534,143.265,256.898,143.265z M256.898,123.321
			c-2.303,0-4.181,1.587-4.181,3.54v10.471c0,1.952,1.878,3.54,4.181,3.54c2.314,0,4.201-1.588,4.201-3.54v-10.471
			C261.1,124.908,259.214,123.321,256.898,123.321z"/>
	</g>
	<g>
		<path fill="#2B120E" d="M377.99,238.887c2.841,0,5.134,2.618,5.134,5.852l0,0c0,3.237-2.293,5.862-5.134,5.862h-11.354
			c-2.832,0-5.13-2.625-5.13-5.862l0,0c0-3.234,2.298-5.852,5.13-5.852H377.99z"/>
		<path fill="#27140E" d="M377.99,251.799h-11.354c-3.487,0-6.324-3.168-6.324-7.061c0-3.887,2.837-7.048,6.324-7.048h11.354
			c3.493,0,6.332,3.161,6.332,7.048C384.322,248.631,381.483,251.799,377.99,251.799z M366.638,240.083
			c-2.172,0-3.932,2.089-3.932,4.656c0,2.573,1.76,4.666,3.932,4.666h11.354c2.172,0,3.938-2.092,3.938-4.666
			c0-2.566-1.768-4.656-3.938-4.656H366.638z"/>
	</g>
	<g>
		<path fill="#2B120E" d="M146.902,238.921c2.436,0,4.409,2.512,4.409,5.616l0,0c0,3.104-1.974,5.62-4.409,5.62h-9.748
			c-2.435,0-4.409-2.515-4.409-5.62l0,0c0-3.104,1.975-5.616,4.409-5.616H146.902z"/>
		<path fill="#27140E" d="M146.902,251.354h-9.748c-3.091,0-5.606-3.058-5.606-6.816c0-3.757,2.516-6.812,5.606-6.812h9.748
			c3.091,0,5.607,3.055,5.607,6.812C152.51,248.296,149.993,251.354,146.902,251.354z M137.154,240.12
			c-1.773,0-3.214,1.981-3.214,4.417c0,2.398,1.473,4.423,3.214,4.423h9.748c1.744,0,3.213-2.025,3.213-4.423
			c0-2.395-1.469-4.417-3.213-4.417H137.154z"/>
	</g>
	<g>
		<path fill="#2B120E" d="M262.391,365.295c0,2.732-2.524,4.959-5.63,4.959l0,0c-3.104,0-5.616-2.227-5.616-4.959V354.32
			c0-2.739,2.513-4.965,5.616-4.965l0,0c3.104,0,5.63,2.226,5.63,4.965V365.295z"/>
		<path fill="#27140E" d="M256.761,371.453c-3.758,0-6.816-2.768-6.816-6.157V354.32c0-3.396,3.059-6.163,6.816-6.163
			c3.763,0,6.823,2.768,6.823,6.163v10.976C263.584,368.686,260.523,371.453,256.761,371.453z M256.761,350.555
			c-2.438,0-4.419,1.692-4.419,3.766v10.976c0,2.072,1.98,3.761,4.419,3.761c2.444,0,4.431-1.688,4.431-3.761V354.32
			C261.191,352.248,259.205,350.555,256.761,350.555z"/>
	</g>
	<g>
		<path fill="#0794BF" d="M273.229,245.473c0,9.475-7.692,17.155-17.177,17.155c-9.467,0-17.145-7.681-17.145-17.155
			c0-9.472,7.678-17.15,17.145-17.15C265.535,228.323,273.229,236.001,273.229,245.473z"/>
		<path fill="#27140E" d="M256.052,266.221c-11.436,0-20.735-9.311-20.735-20.748s9.3-20.739,20.735-20.739
			c11.453,0,20.767,9.302,20.767,20.739C276.818,256.911,267.505,266.221,256.052,266.221z M256.052,231.915
			c-7.473,0-13.553,6.083-13.553,13.558c0,7.478,6.08,13.564,13.553,13.564c7.49,0,13.584-6.087,13.584-13.564
			C269.636,237.999,263.542,231.915,256.052,231.915z"/>
	</g>
</g>
</svg>
