<?xml version="1.0" encoding="utf-8"?>
<!-- Generator: Adobe Illustrator 16.0.0, SVG Export Plug-In . SVG Version: 6.00 Build 0)  -->
<!DOCTYPE svg PUBLIC "-//W3C//DTD SVG 1.1//EN" "http://www.w3.org/Graphics/SVG/1.1/DTD/svg11.dtd">
<svg version="1.1" id="Layer_1" xmlns="http://www.w3.org/2000/svg" xmlns:xlink="http://www.w3.org/1999/xlink" x="0px" y="0px"
	 width="500px" height="500px" viewBox="0 0 500 500" enable-background="new 0 0 500 500" xml:space="preserve">
<g id="Layer_1_copy_63">
	<g>
		<g>
			<path fill="#FFFFFF" d="M436.439,429.184c0,9.179-7.508,16.683-16.685,16.683h-31.923c-9.168,0-24.184,0-33.36,0H145.904
				c-9.177,0-16.68-7.504-16.68-16.683V181.168c0-9.175,7.503-16.68,16.68-16.68h273.852c9.177,0,16.685,7.505,16.685,16.68v182.034
				c0,9.176,0,24.188,0,33.366L436.439,429.184L436.439,429.184z"/>
		</g>
		<g>
			<path fill="#27140E" d="M419.756,449.438H145.904c-11.171,0-20.256-9.09-20.256-20.254V181.168
				c0-11.168,9.085-20.255,20.256-20.255h273.852c11.167,0,20.256,9.087,20.256,20.255v248.016
				C440.012,440.348,430.923,449.438,419.756,449.438z M145.904,168.062c-7.229,0-13.107,5.88-13.107,13.106v248.016
				c0,7.228,5.878,13.108,13.107,13.108h273.852c7.227,0,13.106-5.882,13.106-13.108V181.168c0-7.226-5.882-13.106-13.106-13.106
				H145.904z"/>
		</g>
	</g>
	<g>
		<g>
			<path fill="#D95241" d="M454.588,210.298c0,9.175-7.507,16.681-16.677,16.681H125.655c-9.173,0-16.684-7.505-16.684-16.681
				v-90.919c0-9.176,7.511-16.682,16.684-16.682h312.256c9.17,0,16.677,7.505,16.677,16.682V210.298z"/>
		</g>
		<g>
			<path fill="#27140E" d="M437.911,230.554H125.655c-11.168,0-20.257-9.085-20.257-20.255V119.38
				c0-11.169,9.089-20.258,20.257-20.258h312.256c11.169,0,20.254,9.089,20.254,20.258v90.919
				C458.165,221.468,449.08,230.554,437.911,230.554z M125.655,106.272c-7.23,0-13.108,5.879-13.108,13.107v90.919
				c0,7.228,5.878,13.106,13.108,13.106h312.256c7.227,0,13.104-5.878,13.104-13.106v-90.919c0-7.228-5.878-13.107-13.104-13.107
				H125.655z"/>
		</g>
	</g>
	<g>
		<path fill="#424143" d="M205.328,155.482c0,9.792-7.657,17.732-17.104,17.732l0,0c-9.447,0-17.104-7.94-17.104-17.732V92.505
			c0-9.798,7.657-17.738,17.104-17.738l0,0c9.447,0,17.104,7.94,17.104,17.738V155.482z"/>
		<path fill="#27140E" d="M188.224,176.792c-11.405,0-20.677-9.561-20.677-21.309V92.505c0-11.752,9.271-21.312,20.677-21.312
			c11.404,0,20.677,9.561,20.677,21.312v62.978C208.9,167.231,199.628,176.792,188.224,176.792z M188.224,78.342
			c-7.46,0-13.531,6.354-13.531,14.163v62.978c0,7.807,6.071,14.158,13.531,14.158c7.459,0,13.531-6.351,13.531-14.158V92.505
			C201.755,84.696,195.683,78.342,188.224,78.342z"/>
	</g>
	<g>
		<path fill="#424143" d="M391.402,155.482c0,9.792-7.653,17.732-17.104,17.732l0,0c-9.451,0-17.104-7.94-17.104-17.732V92.505
			c0-9.798,7.652-17.738,17.104-17.738l0,0c9.45,0,17.104,7.94,17.104,17.738V155.482z"/>
		<path fill="#27140E" d="M374.299,176.792c-11.4,0-20.681-9.561-20.681-21.309V92.505c0-11.752,9.279-21.312,20.681-21.312
			c11.405,0,20.677,9.561,20.677,21.312v62.978C394.976,167.231,385.704,176.792,374.299,176.792z M374.299,78.342
			c-7.464,0-13.531,6.354-13.531,14.163v62.978c0,7.807,6.067,14.158,13.531,14.158c7.46,0,13.531-6.351,13.531-14.158V92.505
			C387.83,84.696,381.759,78.342,374.299,78.342z"/>
	</g>
	<g>
		<g>
			<path fill="#E5E5E5" d="M436.286,378.2v51.05c0,9.169-7.508,16.682-16.683,16.682h-50.34"/>
		</g>
		<g>
			<path fill="#2C2010" d="M419.604,449.504h-50.34c-1.974,0-3.576-1.602-3.576-3.573c0-1.973,1.604-3.571,3.576-3.571h50.34
				c7.228,0,13.108-5.884,13.108-13.109V378.2c0-1.979,1.602-3.579,3.573-3.579c1.976,0,3.576,1.6,3.576,3.579v51.05
				C439.862,440.415,430.776,449.504,419.604,449.504z"/>
		</g>
	</g>
	<g>
		<path fill="#D2D3D4" d="M436.542,378.382l-51.047,0.259c-9.172,0.051-16.482,7.582-16.234,16.76l1.373,51.517"/>
	</g>
	<g>
		<path fill="#2C2010" d="M359.287,449.504c-1.972,0-3.564-1.593-3.576-3.566c-0.008-1.965,1.593-3.571,3.562-3.578l20.253-0.066
			c0,0,0.005,0,0.008,0c1.969,0,3.568,1.584,3.577,3.558c0.007,1.979-1.589,3.581-3.565,3.589l-20.247,0.065
			C359.295,449.504,359.292,449.504,359.287,449.504z"/>
	</g>
	<g>
		<path fill="#1D1D1D" d="M435.102,392.572c-1.317,0-2.386-1.067-2.386-2.389v-19.201c0-1.315,1.067-2.383,2.386-2.383
			c1.315,0,2.384,1.066,2.384,2.383v19.201C437.484,391.504,436.417,392.572,435.102,392.572z"/>
	</g>
	<g>
		
			<path fill="#676767" stroke="#27140E" stroke-width="7.149" stroke-linecap="round" stroke-linejoin="round" stroke-miterlimit="10" d="
			M323.073,283.32c-3.957,3.888-9.451,10.807-16.49,20.759c-7.036,9.948-12.933,20.229-17.688,30.823
			c-3.767,8.322-7.16,18.486-10.186,30.506c-3.027,12.018-4.541,21.876-4.541,29.584H246.81
			c0.804-24.038,8.698-49.026,23.684-74.971c9.681-16.082,17.791-27.299,24.33-33.647h-66.78l0.373-23.665h94.657L323.073,283.32
			L323.073,283.32z"/>
	</g>
	<g>
		<path fill="#446EB5" d="M36.532,185.455c13.812-11.416,28.558-23.587,42.352-35.476c3.149-2.716,6.108-5.367,10.451-4.95
			c8.896,0.853,7.701,10.086,7.701,20.078c0,5.12,0,10.314,0,15.122c14.796,0,74.729-0.968,78.537,0.548
			c1.654,0.661,4.693,3.887,4.693,3.887c0,0.405,0,0.866,0.004,1.293c0.2,0.471,1.194,73.436-0.312,77.249
			c-0.979,2.478-3.788,4.405-6.583,5.246c-6.966,0.015-13.94,0.044-20.906,0.059c-2.766-0.84-5.622-2.747-6.62-5.202
			c-1.538-3.787-0.581-10.455-0.599-15.941c-0.025-8.01-0.062-20.049-0.099-31.927c-16.366,0-37.029,0-48.116,0
			c-1.633,13.614,5.389,35.873-9.349,35.208c-3.521-0.162-6.123-2.981-8.804-5.231c-12.853-10.777-25.591-21.411-38.227-31.899
			c-5.104-4.238-11.354-7.614-14.025-13.752c0-1.284,0-2.574,0-3.858C28.147,191.284,33.058,188.332,36.532,185.455z"/>
		<path fill="#27140E" d="M152.47,270.9c-0.237,0-0.472-0.037-0.698-0.11c-3.011-0.913-6.725-3.127-8.124-6.583
			c-1.308-3.207-1.111-7.745-0.914-12.137c0.066-1.599,0.14-3.192,0.132-4.697l-0.091-29.551h-43.55
			c-0.176,3.237,0.015,6.93,0.197,10.521c0.461,8.837,0.891,17.185-3.404,21.711c-2.024,2.133-4.822,3.141-8.439,2.973
			c-3.807-0.176-6.576-2.601-9.017-4.737c-0.401-0.355-0.803-0.709-1.209-1.049c-12.848-10.775-25.583-21.406-38.216-31.89
			c-1.202-0.996-2.463-1.942-3.727-2.888c-4.27-3.201-8.688-6.508-10.966-11.751c-0.132-0.298-0.198-0.623-0.198-0.95v-3.858
			c0-0.252,0.044-0.504,0.118-0.745c1.457-4.422,5.237-7.334,8.569-9.902c0.724-0.557,1.425-1.099,2.082-1.638l1.462-1.211
			c13.553-11.201,27.56-22.779,40.85-34.234l0.219-0.189c3.311-2.855,6.773-5.811,12.016-5.329
			c10.123,0.97,9.995,10.704,9.886,19.292c-0.015,1.038-0.025,2.093-0.025,3.159v12.733c3.317-0.015,7.891-0.055,13.166-0.1
			c10.09-0.088,22.729-0.199,34.055-0.199c27.245,0,28.915,0.665,29.811,1.024c1.994,0.795,4.749,3.618,5.546,4.466
			c0.415,0.438,0.646,1.016,0.649,1.62l0.008,1.295h-0.029c1.009,9.01,0.716,75.177-0.445,78.128
			c-1.404,3.535-5.111,5.751-8.118,6.656c-0.22,0.065-0.453,0.103-0.68,0.103l-20.907,0.065
			C152.477,270.9,152.474,270.9,152.47,270.9z M97.036,213.057h48.116c1.312,0,2.375,1.063,2.381,2.375l0.104,31.923
			c0,1.579-0.073,3.249-0.146,4.924c-0.168,3.88-0.344,7.888,0.57,10.138c0.589,1.446,2.527,2.944,4.778,3.712l20.166-0.059
			c2.26-0.76,4.146-2.235,4.741-3.748c1.168-4.398,0.482-71.608,0.161-76.038c-0.012-0.104-0.019-0.208-0.022-0.312v-0.336
			c-1.191-1.186-2.623-2.415-3.192-2.645c-0.849-0.237-5.729-0.685-28.05-0.685c-11.311,0-23.936,0.112-34.019,0.199
			c-6.699,0.059-12.274,0.108-15.588,0.108c-1.315,0-2.382-1.068-2.382-2.384v-15.122c0-1.085,0.012-2.165,0.025-3.222
			c0.132-9.9-0.336-13.983-5.571-14.485c-3.248-0.312-5.621,1.755-8.446,4.194l-0.222,0.188
			c-13.327,11.487-27.355,23.084-40.924,34.3l-1.465,1.211c-0.69,0.572-1.442,1.149-2.21,1.741c-2.817,2.17-5.729,4.411-6.827,7.281
			v2.932c1.844,3.849,5.446,6.55,9.252,9.403c1.33,0.996,2.653,1.989,3.914,3.036c12.636,10.486,25.382,21.125,38.237,31.907
			c0.432,0.362,0.854,0.734,1.286,1.114c2.03,1.779,3.952,3.463,6.086,3.558l0.53,0.011c1.895,0,3.28-0.493,4.241-1.501
			c2.886-3.043,2.491-10.74,2.104-18.186c-0.241-4.595-0.483-9.347,0.006-13.434C94.815,213.957,95.827,213.057,97.036,213.057z"/>
	</g>
</g>
</svg>
