<?xml version="1.0" encoding="utf-8"?>
<!-- Generator: Adobe Illustrator 16.0.0, SVG Export Plug-In . SVG Version: 6.00 Build 0)  -->
<!DOCTYPE svg PUBLIC "-//W3C//DTD SVG 1.1//EN" "http://www.w3.org/Graphics/SVG/1.1/DTD/svg11.dtd">
<svg version="1.1" id="Layer_1" xmlns="http://www.w3.org/2000/svg" xmlns:xlink="http://www.w3.org/1999/xlink" x="0px" y="0px"
	 width="500px" height="500px" viewBox="0 0 500 500" enable-background="new 0 0 500 500" xml:space="preserve">
<g id="Layer_1_copy_39">
	<path fill="#F1F2F2" stroke="#3C2415" stroke-width="4.3686" stroke-miterlimit="10" d="M213.903,268.605
		c17.475,18.842,16.109,54.063,17.475,58.979c1.365,4.915,16.383,34.676,1.911,43.96c-14.472,9.283-33.311,24.847-20.75,31.672
		c12.559,6.827,26.484,7.372,29.487-2.729c3.003-10.103,2.458-16.928,10.922-21.844c8.464-4.914,7.917-12.832,7.099-20.752
		c-0.818-7.916-6.279-56.519-4.095-72.354l-6.008-33.848L213.903,268.605z"/>
	<path fill="#F1F2F2" stroke="#3C2415" stroke-width="4.3686" stroke-miterlimit="10" d="M325.1,248.76
		c17.476,18.84,16.109,54.062,17.476,58.977c1.365,4.916,16.382,34.678,1.91,43.961s-33.312,24.846-20.75,31.673
		c12.56,6.825,26.484,7.371,29.487-2.731c3.002-10.103,2.457-16.928,10.921-21.843c8.465-4.914,7.92-12.833,7.1-20.752
		c-0.818-7.917,9.216-53.873,11.398-69.71l-21.501-36.491L325.1,248.76z"/>
	<path fill="#F1F2F2" stroke="#3C2415" stroke-width="4.3686" stroke-miterlimit="10" d="M145.643,93.861
		c0,0-31.945-15.837-59.522-2.458c-27.576,13.379-40.956,43.686-40.137,56.246c0.819,12.56-22.389,25.393-23.209,30.308
		c-0.818,4.915-5.733,22.389,11.468,33.311c17.202,10.921,39.317,11.195,60.069-14.198c20.751-25.394,20.478-22.663,20.478-22.663
		s34.677,23.622,38.772,43.893c4.096,20.271,9.556,52.765,27.03,71.603c17.476,18.841,16.109,54.062,17.476,58.979
		c1.364,4.914,16.382,34.676,1.911,43.96c-14.472,9.282-33.312,24.847-20.752,31.672c12.561,6.825,26.485,7.372,29.489-2.729
		c3.003-10.104,2.456-16.93,10.922-21.844c8.464-4.914,7.917-12.834,7.099-20.752c-0.819-7.918-6.28-56.519-4.096-72.354
		s-7.918-37.406,7.646-36.041s25.393,15.562,43.14,13.651c17.748-1.911,43.96-14.743,61.981-15.563
		c18.02-0.817,36.587,1.64,43.959,10.923c7.371,9.282,24.3,28.123,28.122,35.223c3.823,7.099,6.279,24.3,0,39.591
		c-6.279,15.29-28.396,28.669-33.855,37.952c-5.462,9.283-7.374,15.562,9.282,20.752c16.656,5.188,30.58-7.92,37.68-24.848
		c7.101-16.929,14.198-30.582,15.837-37.681c1.64-7.099,4.097-18.293,6.007-33.037c1.91-14.743-9.282-23.481-11.741-28.396
		c-2.457-4.914-6.278-37.406-3.549-60.342s-0.818-48.874-3.821-54.062c-3.004-5.188,16.815,1.911,19.329,12.014
		s4.971,64.438,3.604,73.448c-1.364,9.011-12.014,15.562-6.554,26.485c5.462,10.921-1.365,13.104,5.733,16.383
		c7.101,3.275,9.831-0.273,12.834-6.008c3.004-5.733-4.915-15.563-4.098-21.024c0.82-5.46,0.82-6.552,2.459-21.843
		c1.639-15.29-1.912-49.693-1.912-61.161s-17.475-41.775-35.222-46.963c-17.748-5.188-26.212-27.304-90.104-8.737
		c-63.893,18.567-82.458,1.911-108.124-5.734C195.609,124.168,145.643,93.861,145.643,93.861z"/>
	
		<ellipse fill="#FFFFFF" stroke="#3C2415" stroke-width="3.2765" stroke-miterlimit="10" cx="78.701" cy="135.263" rx="13.588" ry="16.824"/>
	<path fill="#3C2415" d="M81.44,136.434c0,3.985-2.487,7.212-5.55,7.212c-3.064,0-5.547-3.228-5.547-7.212
		c0-3.98,2.482-7.208,5.547-7.208C78.953,129.226,81.44,132.454,81.44,136.434z"/>
	<path fill="#F1F2F2" stroke="#3C2415" stroke-width="4.3686" stroke-miterlimit="10" d="M87.485,104.236
		c0,0,13.106-45.325,31.673-46.962c18.567-1.638,6.554,43.687,1.911,46.962"/>
	<path fill="#3C2415" d="M141.548,92.496c0,0,13.105,55.427,12.832,76.451c-0.271,21.024,26.485-53.789,26.485-53.789
		L141.548,92.496z"/>
	<polygon fill="#3C2415" points="191.241,119.8 187.146,201.439 233.562,137.001 	"/>
	<path fill="#3C2415" d="M255.309,145.466l-25.295,100.479c0,0,57.611-45.325,60.069-97.202L255.309,145.466z"/>
	<path fill="#3C2415" d="M308.648,143.021c0,0-10.104,93.925-20.205,106.212c0,0,27.029,1.912,41.502-44.232
		c14.472-46.144,14.197-71.01,14.197-71.01L308.648,143.021z"/>
	<path fill="#3C2415" d="M360.799,131.987c0,0-4.641,98.121-9.556,106.859c0,0,34.13-12.752,44.231-67.264
		c7.372-34.308,7.372-34.308,7.372-34.308S377.573,127.251,360.799,131.987z"/>
	<path fill="#3C2415" d="M205.438,259.324l-27.03,25.392c-9.011-4.913-16.109-24.573-17.201-25.392
		C161.207,259.324,185.507,265.876,205.438,259.324z"/>
	<path fill="#3C2415" d="M187.146,303.557l7.646,28.123c0,0,12.56-21.845,13.925-30.854
		C205.438,304.648,187.146,303.557,187.146,303.557z"/>
	<path fill="#3C2415" d="M199.159,346.697l4.914,17.746c0,0,7.099-16.053,7.919-26.319
		C205.985,345.332,199.159,346.697,199.159,346.697z"/>
	<path fill="#3C2415" d="M222.913,284.715l5.188,21.571c0,0,12.56-11.468,14.744-18.841
		C235.474,289.631,222.913,284.715,222.913,284.715z"/>
	<path fill="#3C2415" d="M232.88,320.758l3.686,15.836c0,0,6.28-10.923,6.28-24.847C242.271,319.191,232.88,320.758,232.88,320.758z
		"/>
	<path fill="#3C2415" d="M337.612,274.404l4.228,20.623c0,0,15.657-2.368,18.942-7.068
		C352.305,287.691,337.612,274.404,337.612,274.404z"/>
	<path fill="#3C2415" d="M347.711,317.587l2.721,17.739c0,0,8.401-19.656,8.448-27.773
		C354.126,313.292,347.711,317.587,347.711,317.587z"/>
	<path fill="#3C2415" d="M384.827,289.495l15.289,15.973c0,0,3.55-12.286,2.73-25.938
		C402.848,279.529,396.841,290.723,384.827,289.495z"/>
	<path fill="#3C2415" d="M411.312,316.252l-1.094,26.35c0,0,17.477-17.748,19.659-28.67
		C423.326,319.393,411.312,316.252,411.312,316.252z"/>
	<path fill="#3C2415" d="M409.127,348.607l-11.194,24.027c0,0,30.308-15.837,31.945-24.027
		C417.592,353.795,409.127,348.607,409.127,348.607z"/>
	<path fill="#3C2415" d="M34.311,166.289l48.648,42.119c0,0-25.516,17.895-44.352,5.327
		C19.771,201.167,11.717,184.109,34.311,166.289z"/>
	<ellipse fill="#754C29" cx="32.604" cy="187.648" rx="3.003" ry="2.869"/>
</g>
</svg>
